<?xml version="1.0" standalone="no"?>
<!DOCTYPE svg PUBLIC "-//W3C//DTD SVG 1.1//EN" "http://www.w3.org/Graphics/SVG/1.1/DTD/svg11.dtd" >
<svg xmlns="http://www.w3.org/2000/svg" xmlns:xlink="http://www.w3.org/1999/xlink" version="1.1" viewBox="-10 0 1051 1000">
  <g transform="matrix(1 0 0 -1 0 800)">
   <path fill="currentColor"
d="M452.109 154.035zM507.423 408.557l0.0410156 -0.0478516c-0.0136719 0.0166016 -0.0410156 0.0478516 -0.0410156 0.0478516zM350.34 209.404l0.0126953 0.078125c-0.00390625 -0.0253906 -0.0126953 -0.0527344 -0.0126953 -0.078125zM364.184 177.539
l-0.267578 0.0820312c0.0888672 -0.0283203 0.178711 -0.0556641 0.267578 -0.0820312zM368.65 176.654l-0.0585938 0.00488281c0.0107422 0 0.0205078 -0.00488281 0.0585938 -0.00488281zM539.908 151.318c-89.9082 0.314453 -163.771 0 -163.786 0.000976563
c-10.127 0.327148 -22.6934 0.731445 -33.5391 12.7471c-17.9863 19.9258 -14.8203 44.1172 -13.8457 49.4551c1.98145 10.8477 5.08594 21.7422 9.60254 39.8945c18.9238 76.0518 21.1406 86.9668 29.749 112.097c19.6191 57.0361 43.3799 76.2939 64.3506 84.8311
c12.8359 4.79102 54.5059 16.0977 88.9697 -22.3926c17.752 -20.8438 32.1172 -49.0654 49.0127 -117.139c5.9834 -24.873 12.0947 -49.7002 18.3467 -74.5312c1.59277 -6.63281 3.05371 -13.291 4.38867 -20.0176c6.58301 -32.4062 -12.2188 -65.127 -42.4561 -64.7266z
M357.063 182.822c0.0185547 -0.0146484 0.0380859 -0.0292969 0.0380859 -0.0449219c5.54004 -6.02051 9.2168 -6.17969 19.29 -6.61523c0 0 167.472 0.0732422 167.545 0.0722656c3.92285 -0.0546875 7.83105 0.174805 11.7324 0.692383
c8.08691 1.00879 20.2148 14.4736 16.1621 33.6816c-1.87305 9.43066 -1.87305 9.43066 -9.83105 41.3916c-19.7842 81.2559 -24.292 99.7695 -37.7949 129.352c-2.47461 5.30469 -10.418 21.2441 -21.2471 32.0742c-10.5967 10.5957 -22.5703 16.1758 -36.4473 17.1367
c-17.2637 1.52539 -48.8545 -0.882812 -72.2422 -58.8555c-9.1543 -23.0703 -14.7705 -43.3545 -20.9561 -67.998c-14.4199 -59.3643 -14.4199 -59.3643 -19.6436 -78.9561l0.0126953 0.0527344c-0.00390625 -0.0175781 -0.0126953 -0.0527344 -0.0126953 -0.0527344
c-4.11523 -16.9248 -7.16699 -29.4717 3.39453 -41.9307zM690.083 204.986c0.65918 -11.7217 -3.28418 -36.1504 -2.80176 -47.0625c0.499023 -0.883789 0.899414 -1.96777 1.01562 -3.2207c1.08496 -11.666 5.99414 -23.7129 12.0762 -34.249
c7.58203 -13.1367 16.8965 -23.8291 21.585 -28.5166c1.61621 -1.61719 3.16602 -2.88086 3.19629 -2.91113c1.29688 -1.29785 1.98633 -2.97461 2.06641 -4.6748c0.924805 -2.98633 -0.204102 -6.24902 -2.84082 -8.00684l-6.12207 -4.08105
c-3.30664 -2.20508 -7.7627 -1.67383 -10.4521 1.25977c-13.5615 14.7559 -24.2979 26.4375 -34.3896 50.1797c-5.03516 -11.373 -11.7041 -21.8594 -18.0137 -29.873c-5.71582 -7.25879 -9.72461 -15.6367 -14.6387 -20.5508
c-2.93555 -2.93555 -7.57031 -3.14648 -10.749 -0.629883c-7.36621 5.83105 -7.36621 5.83105 -7.70508 6.16992c-2.90918 2.90918 -3.14355 7.49121 -0.691406 10.6689c6.30469 8.17188 14.0752 19.125 17.4648 23.5781c24.6025 32.3184 26.0303 76 25.8262 100.028
c-0.0380859 4.57129 3.70703 8.26562 8.27832 8.16504l7.41113 -0.164062c5.95215 -0.126953 9.49902 -4.96484 9.3916 -10.3477c-0.0107422 -0.545898 -0.0585938 -3.08594 0.0927734 -5.76172zM48.3545 723.521h55.5146l17.1611 52.2256l17.1602 -52.2256h55.5156
l-44.8672 -32.2959l17.1611 -52.2246l-44.9697 32.2959l-44.9707 -32.2959l17.1611 52.2246zM271 608l-12 60c128.725 89.7881 355.203 55.3633 442.457 48.5605c0 -0.0107422 0.000976562 -0.0214844 0.000976562 -0.0322266
c27.4463 0.582031 75.1855 -1.32129 107.268 -33.4033c40.1396 -40.1396 38.6152 -108.841 37.5254 -169.365c-0.395508 -21.9258 -0.433594 -33.2402 -0.22168 -41.9463c26.3789 -43.8281 72.168 -89.959 89.3252 -129.607
c6.95117 -16.0635 5.49219 -24.7637 2.64551 -40.2051l-12 -14l-79.501 -63.5771v-212.431c1.93945 -31.0869 1.82422 -79.2412 -27.416 -108.48c-26.0322 -26.0322 -182.507 -12.0195 -220.584 -13.0049l-2.90137 0.0126953
c-103.732 -7.2998 -296.108 50.6025 -326.603 92.1719c-18.5059 25.2275 -31.4014 41.2529 -57.9951 55.3086v70.0371c25.8174 -16.2627 49.624 -17.8066 70.1904 -60.6357c44.2188 -92.082 349.455 -105.734 451.309 -108.438l-0.499023 -0.962891
c50 12 34.1514 4.48145 42.5352 13.5361c19.1768 20.7119 3.97852 41.9688 5.50781 57.9648h-0.541992v2.14941c-0.253906 0.990234 -0.500977 1.94141 -0.738281 2.84863h0.738281v207.174v3.4873v1.33887h1.58203l104 88h1.13281
c4.9834 45.8955 -62.8379 92.1289 -94.2158 139.501l-3 4l-1 1c-2.02051 3.99219 0.0439453 4.02539 -2.08398 11.5605c-0.0371094 0.130859 -0.189453 0.24707 -0.174805 0.367188l0.258789 2.07227l0.0644531 1.49902
c0.00976562 0.226562 0.150391 3.89551 0.242188 6.24414c3.11426 79.1523 5.19727 173.389 -83.8154 173.771c-136.35 16.7461 -373.536 9.53418 -431.49 -46.5137zM48.3545 723.521h55.5146l17.1611 52.2256l17.1602 -52.2256h55.5156l-44.8672 -32.2959l17.1611 -52.2246
l-44.9697 32.2959l-44.9707 -32.2959l17.1611 52.2246zM271 608l-12 60c128.725 89.7881 355.203 55.3633 442.457 48.5605c0 -0.0107422 0.000976562 -0.0214844 0.000976562 -0.0322266c27.4463 0.582031 75.1855 -1.32129 107.268 -33.4033
c40.1396 -40.1396 38.6152 -108.841 37.5254 -169.365c-0.395508 -21.9258 -0.433594 -33.2402 -0.22168 -41.9463c26.3789 -43.8281 72.168 -89.959 89.3252 -129.607c6.95117 -16.0635 5.49219 -24.7637 2.64551 -40.2051l-12 -14l-79.501 -63.5771v-212.431
c1.93945 -31.0869 1.82422 -79.2412 -27.416 -108.48c-26.0322 -26.0322 -182.507 -12.0195 -220.584 -13.0049l-2.90137 0.0126953c-103.732 -7.2998 -296.108 50.6025 -326.603 92.1719c-18.5059 25.2275 -31.4014 41.2529 -57.9951 55.3086v70.0371
c25.8174 -16.2627 49.624 -17.8066 70.1904 -60.6357c44.2188 -92.082 349.455 -105.734 451.309 -108.438l-0.499023 -0.962891c50 12 34.1514 4.48145 42.5352 13.5361c19.1768 20.7119 3.97852 41.9688 5.50781 57.9648h-0.541992v2.14941
c-0.253906 0.990234 -0.500977 1.94141 -0.738281 2.84863h0.738281v207.174v3.4873v1.33887h1.58203l104 88h1.13281c4.9834 45.8955 -62.8379 92.1289 -94.2158 139.501l-3 4l-1 1c-2.02051 3.99219 0.0439453 4.02539 -2.08398 11.5605
c-0.0371094 0.130859 -0.189453 0.24707 -0.174805 0.367188l0.258789 2.07227l0.0644531 1.49902c0.00976562 0.226562 0.150391 3.89551 0.242188 6.24414c3.11426 79.1523 5.19727 173.389 -83.8154 173.771c-136.35 16.7461 -373.536 9.53418 -431.49 -46.5137zM184 330
l-80.3037 144l12 5.06934l69.3457 -115.555l64.4316 114.055l16.2227 -6.56934z" />
  </g>

</svg>
