<?xml version="1.0" standalone="no"?>
<!DOCTYPE svg PUBLIC "-//W3C//DTD SVG 1.1//EN" "http://www.w3.org/Graphics/SVG/1.1/DTD/svg11.dtd" >
<svg xmlns="http://www.w3.org/2000/svg" xmlns:xlink="http://www.w3.org/1999/xlink" version="1.1" viewBox="-10 0 1051 1000">
  <g transform="matrix(1 0 0 -1 0 800)">
   <path fill="currentColor"
d="M590.206 353.018c1.71875 -30.543 -12.7959 -117.545 -4.25684 -122.111c8.38184 -90.1201 95.6328 -174.321 95.7441 -171.073l-14.7842 -9.85547c-33.2627 36.2812 -70.377 72.1865 -98.6592 170.496c-6.2959 -43.2871 -33.334 -91.7705 -57.6289 -122.624
c-14.7832 -18.7734 -21.1201 -33.792 -33.792 -47.8721l-16.8965 13.376c19.0088 24.6396 29.6777 40.5215 42.2402 57.0244c64.1436 84.2568 66.8262 194.883 66.3291 253.489l17.9062 -0.395508c3.3584 -0.0712891 3.49512 -3.33594 3.55273 -4.73047
c0.00683594 -0.15625 -0.21875 -7.49023 0.245117 -15.7236zM739.582 370.417l-124.418 -140.386l16.3018 -12.9902l105.984 123.144c8.80371 -14.5977 21.3662 -31.8555 25.5498 -43.1846l29.7402 42.4082zM474.497 189.525
c5.49805 5.33008 14.6621 14.8252 14.6621 29.8271c0 5.67676 -3.52637 14.5713 -7.43848 18.7686c-5.0293 4.41699 -17.4453 9.82227 -28.4238 6.08398c-8.2832 -2.72949 -16.5137 -10.5693 -17.6924 -11.748c-2.30273 -2.30273 -2.77148 -3.41406 -4.69043 -3.44336
c-1.42285 0 -1.42285 0 -3.45605 2.0332c-3.22852 3.22852 -14.4316 14.4316 -28.0234 14.4316c-6.94922 0 -16.585 -4.62891 -19.5195 -7.56445c-2.39258 -2.39258 -5.20312 -11.8145 -6.35742 -15.9814c-0.318359 -1.14844 -0.580078 -2.1084 -0.833008 -2.88867
c0.148438 -15.6914 10.9492 -26.0215 17.3701 -32.1621c27.0068 -25.8281 37.6807 -36.1475 40.8223 -39.334c3.44629 3.17969 17.9287 17.1084 43.5801 41.9775zM399.148 258.668c7.23145 0 17.4434 -1.2002 31.4766 -12.666
c3.53125 2.88086 9.56836 6.92285 9.65527 6.82715c23.1787 13.79 45.3262 0.125 50.4707 -5.01855c0.483398 -0.483398 30.0762 -31.6299 -7.12988 -67.9609c-40.6553 -39.6982 -43.7012 -42.3398 -44.3711 -42.9189c-5.62109 -4.86133 -12.457 -4.3916 -16.666 -0.314453
l-45.4824 44.043c-3.1084 3.1084 -5.92676 5.88184 -7.11426 8.5459c-4.65723 6.22266 -10.625 14.5283 -10.625 30.2178c0 11.9287 6.7168 23.5977 10.9893 27.8691c5.49902 5.49902 17.6846 11.376 28.7969 11.376zM443.916 410.102
c0.630859 -11.2168 -3.87109 -40.6963 -2.61523 -47.834c0.384766 -0.4375 0.782227 -1.11523 0.864258 -1.99219c2.61523 -28.1289 25.6377 -55.8486 34.543 -64.7539c1.80273 -1.80273 1.80273 -1.80273 7.0293 -5.8457
c-0.613281 -0.401367 -0.613281 -0.401367 -9.99609 -6.65723c-1.42383 -0.950195 -3.34961 -0.728516 -4.51758 0.544922c-15.0391 16.3604 -26.8496 29.208 -37.3047 59.0479c-4.72266 -14.7061 -13.3418 -29.1475 -21.3018 -39.2578
c-5.56348 -7.06445 -9.94043 -15.7344 -14.1016 -19.8965c-1.26855 -1.26855 -3.27246 -1.35742 -4.64453 -0.271484c-7.07227 5.59863 -7.07227 5.59863 -7.2168 5.74414c-1.25879 1.25781 -1.35645 3.23828 -0.299805 4.60938
c3.97363 5.15137 17.0908 23.0791 17.2666 23.3105c25.3916 33.3535 26.626 77.6836 26.4229 101.553c-0.0175781 1.97559 1.60156 3.57324 3.57715 3.52832c9.35059 -0.208008 9.35059 -0.208008 10.7012 -1.55859c1.01367 -1.01367 1.53027 -2.51855 1.49609 -4.23438
c-0.0117188 -0.578125 -0.0625 -3.19531 0.0976562 -6.03613zM48.3545 723.521h55.5146l17.1611 52.2256l17.1602 -52.2256h55.5156l-44.8672 -32.2959l17.1611 -52.2246l-44.9697 32.2959l-44.9707 -32.2959l17.1611 52.2246zM271 608l-12 60
c128.725 89.7881 355.203 55.3633 442.457 48.5605c0 -0.0107422 0.000976562 -0.0214844 0.000976562 -0.0322266c27.4463 0.582031 75.1855 -1.32129 107.268 -33.4033c40.1396 -40.1396 38.6152 -108.841 37.5254 -169.365
c-0.395508 -21.9258 -0.433594 -33.2402 -0.22168 -41.9463c26.3789 -43.8281 72.168 -89.959 89.3252 -129.607c6.95117 -16.0635 5.49219 -24.7637 2.64551 -40.2051l-12 -14l-79.501 -63.5771v-212.431c1.93945 -31.0869 1.82422 -79.2412 -27.416 -108.48
c-26.0322 -26.0322 -182.507 -12.0195 -220.584 -13.0049l-2.90137 0.0126953c-103.732 -7.2998 -296.108 50.6025 -326.603 92.1719c-18.5059 25.2275 -31.4014 41.2529 -57.9951 55.3086v70.0371c25.8174 -16.2627 49.624 -17.8066 70.1904 -60.6357
c44.2188 -92.082 349.455 -105.734 451.309 -108.438l-0.499023 -0.962891c50 12 34.1514 4.48145 42.5352 13.5361c19.1768 20.7119 3.97852 41.9688 5.50781 57.9648h-0.541992v2.14941c-0.253906 0.990234 -0.500977 1.94141 -0.738281 2.84863h0.738281v207.174v3.4873
v1.33887h1.58203l104 88h1.13281c4.9834 45.8955 -62.8379 92.1289 -94.2158 139.501l-3 4l-1 1c-2.02051 3.99219 0.0439453 4.02539 -2.08398 11.5605c-0.0371094 0.130859 -0.189453 0.24707 -0.174805 0.367188l0.258789 2.07227l0.0644531 1.49902
c0.00976562 0.226562 0.150391 3.89551 0.242188 6.24414c3.11426 79.1523 5.19727 173.389 -83.8154 173.771c-136.35 16.7461 -373.536 9.53418 -431.49 -46.5137zM48.3545 723.521h55.5146l17.1611 52.2256l17.1602 -52.2256h55.5156l-44.8672 -32.2959l17.1611 -52.2246
l-44.9697 32.2959l-44.9707 -32.2959l17.1611 52.2246zM271 608l-12 60c128.725 89.7881 355.203 55.3633 442.457 48.5605c0 -0.0107422 0.000976562 -0.0214844 0.000976562 -0.0322266c27.4463 0.582031 75.1855 -1.32129 107.268 -33.4033
c40.1396 -40.1396 38.6152 -108.841 37.5254 -169.365c-0.395508 -21.9258 -0.433594 -33.2402 -0.22168 -41.9463c26.3789 -43.8281 72.168 -89.959 89.3252 -129.607c6.95117 -16.0635 5.49219 -24.7637 2.64551 -40.2051l-12 -14l-79.501 -63.5771v-212.431
c1.93945 -31.0869 1.82422 -79.2412 -27.416 -108.48c-26.0322 -26.0322 -182.507 -12.0195 -220.584 -13.0049l-2.90137 0.0126953c-103.732 -7.2998 -296.108 50.6025 -326.603 92.1719c-18.5059 25.2275 -31.4014 41.2529 -57.9951 55.3086v70.0371
c25.8174 -16.2627 49.624 -17.8066 70.1904 -60.6357c44.2188 -92.082 349.455 -105.734 451.309 -108.438l-0.499023 -0.962891c50 12 34.1514 4.48145 42.5352 13.5361c19.1768 20.7119 3.97852 41.9688 5.50781 57.9648h-0.541992v2.14941
c-0.253906 0.990234 -0.500977 1.94141 -0.738281 2.84863h0.738281v207.174v3.4873v1.33887h1.58203l104 88h1.13281c4.9834 45.8955 -62.8379 92.1289 -94.2158 139.501l-3 4l-1 1c-2.02051 3.99219 0.0439453 4.02539 -2.08398 11.5605
c-0.0371094 0.130859 -0.189453 0.24707 -0.174805 0.367188l0.258789 2.07227l0.0644531 1.49902c0.00976562 0.226562 0.150391 3.89551 0.242188 6.24414c3.11426 79.1523 5.19727 173.389 -83.8154 173.771c-136.35 16.7461 -373.536 9.53418 -431.49 -46.5137zM166 303
l-100.801 99l19.2002 19.8008l81 -74.4004l144 182.4l21.6006 -15z" />
  </g>

</svg>
