<?xml version="1.0" standalone="no"?>
<!DOCTYPE svg PUBLIC "-//W3C//DTD SVG 1.1//EN" "http://www.w3.org/Graphics/SVG/1.1/DTD/svg11.dtd" >
<svg xmlns="http://www.w3.org/2000/svg" xmlns:xlink="http://www.w3.org/1999/xlink" version="1.1" viewBox="-10 0 1008 1000">
  <g transform="matrix(1 0 0 -1 0 800)">
   <path fill="currentColor"
d="M332.481 97.6934l-82.2217 148.848l24.0225 10.1475l58.4395 -100.383l53.3027 101.418l27.2285 -11.0254zM249.568 -67.707v34.6641h38.626v22.0713h-38.626v34.6641h38.626v33.7148h31.3828v-33.7148h23.2197v31.2539h31.3828v-31.2539h41.292v-34.6641h-41.292
v-22.0713h41.292v-34.6641h-41.292v-36.1855h-31.3828v36.1855h-23.2197v-33.7246h-31.3828v33.7246h-38.626zM319.577 -33.043h23.2197v22.0713h-23.2197v-22.0713zM764.659 223.904c-0.529297 0 -0.985352 0.173828 -1.32227 0.358398l-214.094 -88.2627v-37.8242
c12.126 5.10742 24.251 10.2148 36.376 15.3213v-3.77051l-0.21875 -161.659h318.305l0.646484 155.446c10.9619 -6.48535 21.9238 -12.9697 32.8867 -19.4551l-0.677734 40.7051l-136.33 79.1182l1.46387 0.616211c-22.6963 11.7715 -24.457 12.7314 -36.2109 19.5508
c-0.288086 -0.102539 -0.56543 -0.144531 -0.824219 -0.144531zM868.594 -16.7148h-248.003l-0.665039 144.662l142.009 59.8174l107.859 -63.8086zM38.3545 -39.4795h55.5146l17.1611 52.2256l17.1602 -52.2256h55.5156l-44.8672 -32.2959l17.1611 -52.2246
l-44.9697 32.2959l-44.9707 -32.2959l17.1611 52.2246zM762.05 635.241c0 -10.5503 9.89559 -12.7418 12.3011 -12.7418c6.92613 0 13.4106 6.37209 13.4106 13.3403c0 4.18597 -2.13564 7.54867 -4.53843 11.332c-1.14127 1.797 -1.14127 1.797 -8.4435 14.6089
c-0.107878 -0.189025 -10.1846 -17.5735 -10.8321 -18.8771c-1.29135 -2.60565 -1.89765 -5.21525 -1.89765 -7.66238zM774.382 614.801c-9.05223 0 -20.0073 7.07181 -20.0073 20.4255c0 7.14094 2.93226 12.0058 7.1048 18.9284
c0.878473 1.43929 0.878473 1.43929 7.70929 13.398c1.57878 3.08952 2.5281 4.94725 5.56138 4.94725h0.317383c2.98367 0 4.26228 -2.82003 4.92723 -4.28662c4.06348 -9.11509 15.4658 -21.8425 15.4658 -32.374c0 -9.97738 -8.23194 -20.7515 -21.0786 -21.0386z
M779.995 668.213c0 0 -0.000225103 0.000496021 0 0zM778.068 668.205c14.0636 -23.8638 15.7687 -26.7571 15.7687 -32.4378c0 -9.75287 -8.30025 -19.3208 -19.4624 -19.3208c-7.9606 0 -18.3492 6.18848 -18.3492 18.694c0 5.53717 0 5.53717 15.3634 32.9864
c0.200398 0.358044 1.22232 1.97331 3.34931 1.97331c1.35365 0 2.63284 -0.712614 3.33027 -1.89513zM774.374 624.145c6.66314 0 11.7632 6.00032 11.7632 11.6226c0 2.90177 0 2.90177 -11.3466 22.6042c-11.0889 -19.3514 -11.0889 -19.3514 -11.0889 -23.1973
c0 -9.68314 9.49555 -11.0295 10.6724 -11.0295zM773.8 674.5c-7.26105 0 -12.6987 4.45612 -12.6987 9.69971c0 5.24391 5.4368 9.69971 12.6987 9.69971c7.26284 0 12.6997 -4.4557 12.6997 -9.69971c0 -5.24322 -5.43716 -9.69971 -12.6997 -9.69971zM668.2 673.301
c-7.60927 0 -13.2993 4.44593 -13.2993 9.69873c0 5.25348 5.68976 9.69971 13.2993 9.69971c7.60922 0 13.2993 -4.44597 13.2993 -9.69971c0 -5.25258 -5.68974 -9.69873 -13.2993 -9.69873zM658.143 544.787c-3.24079 0 -4.94338 3.91923 -4.94338 6.46113
c0 2.44802 1.43061 3.94139 2.54426 4.41896c6.86594 3.19336 12.9157 6.52758 18.6849 9.70854c15.1394 8.34737 28.5567 15.743 49.0094 15.743c22.3097 0 35.8861 -8.58417 51.3097 -18.3363c8.61406 -5.44655 16.6562 -10.1441 16.7954 -10.2834
c0.974796 -0.974796 1.34295 -2.08626 1.34295 -3.19287c0 -2.78869 -2.64123 -6.99566 -5.86185 -6.99566c-1.72613 0 -7.60486 3.95299 -16.0822 9.67419c-15.1971 10.2562 -27.2151 18.1372 -47.067 18.1372c-19.6835 0 -31.7264 -6.85841 -47.8549 -16.0303
c-8.9049 -5.06403 -16.3618 -9.3046 -17.8774 -9.3046zM728.2 735.101c-64.3038 0 -116.3 -50.1686 -116.3 -112.101c0 -61.9274 51.9922 -112.1 116.3 -112.1c64.3034 0 116.3 50.1682 116.3 112.1c0 61.9284 -51.9922 112.101 -116.3 112.101zM728.2 496.901
c-70.9854 0 -128.5 56.3219 -128.5 125.5c0 69.1712 57.5075 125.5 128.5 125.5c70.9854 0 128.5 -56.3219 128.5 -125.5c0 -69.1712 -57.5075 -125.5 -128.5 -125.5zM406.85 632.841c0 -10.5503 9.89559 -12.7418 12.3011 -12.7418
c6.92613 0 13.4106 6.37209 13.4106 13.3403c0 4.18597 -2.13564 7.54867 -4.53844 11.332c-1.14127 1.797 -1.14127 1.797 -8.4435 14.6089c-0.107878 -0.189025 -10.1846 -17.5735 -10.8321 -18.8771c-1.29135 -2.60565 -1.89765 -5.21525 -1.89765 -7.66238z
M419.182 612.401c-9.05223 0 -20.0073 7.07181 -20.0073 20.4255c0 7.14094 2.93226 12.0058 7.1048 18.9284c0.878473 1.43929 0.878473 1.43929 7.70929 13.398c1.57878 3.08952 2.5281 4.94725 5.56138 4.94725h0.317383c2.98367 0 4.26228 -2.82003 4.92723 -4.28662
c4.06348 -9.11509 15.4658 -21.8425 15.4658 -32.374c0 -9.97738 -8.23194 -20.7515 -21.0786 -21.0386zM424.795 665.813c0 0 -0.000225103 0.000496022 0 0zM415.444 664.264c0.720383 1.52791 1.62024 3.43647 4.09342 3.43647c2.2827 0 2.39872 0 12.0458 -17.1215
c7.0532 -12.1553 7.0532 -12.1553 7.0532 -17.2114c0 -9.75195 -8.29938 -19.3208 -19.4624 -19.3208c-7.95923 0 -18.3492 6.1873 -18.3492 18.694c0 6.02047 0.591639 7.05256 14.6193 31.5232zM419.174 621.745c6.66314 0 11.7632 6.00032 11.7632 11.6226
c0 2.90177 0 2.90177 -11.3466 22.6042c-11.0889 -19.3514 -11.0889 -19.3514 -11.0889 -23.1973c0 -9.68314 9.49555 -11.0295 10.6724 -11.0295zM418.6 672.1c-7.26105 0 -12.6987 4.45612 -12.6987 9.69971c0 5.24391 5.4368 9.69971 12.6987 9.69971
c7.26284 0 12.6997 -4.4557 12.6997 -9.69971c0 -5.24322 -5.43716 -9.69971 -12.6997 -9.69971zM313 670.901c-7.60927 0 -13.2993 4.44593 -13.2993 9.69873c0 5.25348 5.68976 9.69971 13.2993 9.69971c7.60922 0 13.2993 -4.44597 13.2993 -9.69971
c0 -5.25258 -5.68974 -9.69873 -13.2993 -9.69873zM302.943 542.387c-3.24079 0 -4.94338 3.91923 -4.94338 6.46113c0 2.44802 1.43061 3.94139 2.54426 4.41896c6.86594 3.19336 12.9157 6.52758 18.6849 9.70854c15.1394 8.34737 28.5567 15.743 49.0094 15.743
c22.3097 0 35.8861 -8.58417 51.3097 -18.3363c8.61406 -5.44655 16.6562 -10.1441 16.7954 -10.2834c0.974796 -0.974796 1.34295 -2.08626 1.34295 -3.19287c0 -2.78869 -2.64123 -6.99566 -5.86185 -6.99566c-1.72613 0 -7.60486 3.95299 -16.0822 9.67419
c-15.1971 10.2562 -27.2151 18.1372 -47.067 18.1372c-19.6835 0 -31.7264 -6.85841 -47.8549 -16.0303c-8.9049 -5.06403 -16.3618 -9.3046 -17.8774 -9.3046zM373 732.701c-64.3038 0 -116.3 -50.1686 -116.3 -112.101c0 -61.9274 51.9922 -112.1 116.3 -112.1
c64.3034 0 116.3 50.1682 116.3 112.1c0 61.9284 -51.9922 112.101 -116.3 112.101zM373 494.5c-70.9854 0 -128.5 56.3219 -128.5 125.5c0 69.1712 57.5075 125.5 128.5 125.5c70.9854 0 128.5 -56.3219 128.5 -125.5c0 -69.1712 -57.5075 -125.5 -128.5 -125.5z" />
  </g>

</svg>
