<?xml version="1.0" standalone="no"?>
<!DOCTYPE svg PUBLIC "-//W3C//DTD SVG 1.1//EN" "http://www.w3.org/Graphics/SVG/1.1/DTD/svg11.dtd" >
<svg xmlns="http://www.w3.org/2000/svg" xmlns:xlink="http://www.w3.org/1999/xlink" version="1.1" viewBox="-10 0 1050 1000">
  <g transform="matrix(1 0 0 -1 0 800)">
   <path fill="currentColor"
d="M348.481 97.6934l-82.2217 148.848l24.0225 10.1475l58.4395 -100.383l53.3027 101.418l27.2285 -11.0254zM265.568 -67.707v34.6641h38.626v22.0713h-38.626v34.6641h38.626v33.7148h31.3828v-33.7148h23.2197v31.2539h31.3828v-31.2539h41.292v-34.6641h-41.292
v-22.0713h41.292v-34.6641h-41.292v-36.1855h-31.3828v36.1855h-23.2197v-33.7246h-31.3828v33.7246h-38.626zM335.577 -33.043h23.2197v22.0713h-23.2197v-22.0713zM780.659 223.904c-0.529297 0 -0.985352 0.173828 -1.32227 0.358398l-214.094 -88.2627v-37.8242
c12.126 5.10742 24.251 10.2148 36.376 15.3213v-3.77051l-0.21875 -161.659h318.305l0.646484 155.446c10.9619 -6.48535 21.9238 -12.9697 32.8867 -19.4551l-0.677734 40.7051l-136.33 79.1182l1.46387 0.616211c-22.6963 11.7715 -24.457 12.7314 -36.2109 19.5508
c-0.288086 -0.102539 -0.56543 -0.144531 -0.824219 -0.144531zM884.594 -16.7148h-248.003l-0.665039 144.662l142.009 59.8174l107.859 -63.8086zM63.3545 -23.4795h55.5146l17.1611 52.2256l17.1602 -52.2256h55.5156l-44.8672 -32.2959l17.1611 -52.2246
l-44.9697 32.2959l-44.9707 -32.2959l17.1611 52.2246zM575.82 663.891c0 6.36914 7.34961 11.7598 16.6602 11.7598c9.30957 0 16.6592 -5.39062 16.6592 -11.7598c0 -6.37012 -7.34961 -11.7607 -16.6592 -11.7607c-9.31055 0 -16.6602 5.39062 -16.6602 11.7607z
M402.36 661.931c0 6.36914 7.83984 11.7598 17.6396 11.7598s17.6396 -5.39062 17.6396 -11.7598c0 -6.37012 -7.83984 -11.7607 -17.6396 -11.7607s-17.6396 5.39062 -17.6396 11.7607zM401.38 450.25c42.1396 19.6006 65.1699 42.1406 111.72 41.1602
c44.5908 -0.979492 66.1504 -23.5195 104.86 -45.0801c3.91992 -1.95996 -1.29102 -11.9229 -4.90039 -9.7998c-33.3193 19.5996 -56.3496 44.0996 -98.9795 45.0801c-45.5703 0.979492 -67.6201 -19.6006 -109.76 -41.1602
c-3.59766 -1.84082 -6.37012 8.33008 -2.94043 9.7998zM323.96 563.931c0 -103.391 86.7305 -187.181 194.04 -187.181s194.04 83.79 194.04 187.181c0 103.39 -86.7305 187.18 -194.04 187.18s-194.04 -83.79 -194.04 -187.18zM312.2 562.95
c0 110.74 92.1201 200.9 205.8 200.9s205.8 -90.1602 205.8 -200.9c0 -110.74 -92.1201 -200.9 -205.8 -200.9s-205.8 90.1602 -205.8 200.9z" />
  </g>

</svg>
