<?xml version="1.0" standalone="no"?>
<!DOCTYPE svg PUBLIC "-//W3C//DTD SVG 1.1//EN" "http://www.w3.org/Graphics/SVG/1.1/DTD/svg11.dtd" >
<svg xmlns="http://www.w3.org/2000/svg" xmlns:xlink="http://www.w3.org/1999/xlink" version="1.1" viewBox="-10 0 1008 1000">
  <g transform="matrix(1 0 0 -1 0 800)">
   <path fill="currentColor"
d="M212.161 752.854c0 3.21094 -0.0605469 5.59277 -0.0605469 5.64844c0.0625 1.21777 0.375977 2.26855 0.486328 2.38184c0 0.0996094 0 0.0996094 19.0762 0.519531c-0.0185547 -2.78613 -0.0292969 -5.66309 -0.0292969 -8.62305
c0 -74.458 6.86035 -202.178 82.1445 -301.068c10.3506 -13.5967 31.5967 -43.6211 49.8223 -67.3623l-15.6006 -12.3506c-13.7793 16.3525 -20.6582 35.1826 -39.3721 56.3408c-33.1016 37.4248 -65.4004 96.5068 -69.8965 148.551l-1.65918 19.209l-4.96289 -18.6289
c-11.5117 -43.2148 -35.5645 -53.8164 -53.2529 -61.5801c-11.8232 -5.18848 -21.3232 -9.35742 -21.3232 -21.4639c0 -10.3223 2.41113 -18.2412 57.9062 -85.1455c1.57422 -1.89941 2.88281 -3.47852 3.82324 -4.62109l-8.38477 -10.1631
c-11.4805 17.1367 -69.7695 55.4736 -69.7695 95.4287c0 36.5205 52.7656 37.1289 76.3652 96.1279c0.899414 2.25 2.87891 5.68555 2.87891 21.1729c0 31.0469 -8.72559 93.3438 -8.72559 125.114c0 7.32812 0.53418 9.49707 0.53418 20.5127zM212.1 758.555
c0 -0.0107422 0.000976563 -0.0283203 0.000976563 -0.0517578c0.000976562 0.0273438 -0.000976563 0.0517578 -0.000976563 0.0517578zM231.663 761.404zM363.601 384.351l2.6123 2.06836l-0.582031 -4.70703c-0.685547 0.888672 -1.3623 1.76758 -2.03027 2.63867z
M348 372c0.675781 -0.802734 1.36816 -1.59863 2.08008 -2.38965l-4.60254 0.392578zM219.263 404.661zM211.615 735.894zM692.434 479.958c36.5312 0 74.0205 20.2715 85.4365 60.6465l1.52539 5.39258l23.3096 -6.52637
c-3.50293 -12.5996 -8.74902 -31.4629 -27.5381 -50.251c-21.7988 -21.7988 -52.5566 -32.9746 -83.0781 -32.9746c-29.0264 0 -57.8389 10.1074 -78.5273 30.7959c-19.2646 19.2646 -24.248 39.5703 -27.4785 52.7295l23.3936 5.37988
c3.00684 -11.5801 6.91699 -26.6367 21.5791 -41.2988c16.0146 -16.0146 38.5898 -23.8936 61.3779 -23.8936zM501.252 547.875c0 87.7891 86.8037 159.374 193.874 159.374c107.078 0 193.874 -71.4658 193.874 -159.249c0 -87.7881 -86.8037 -159.373 -193.874 -159.373
c-107.078 0 -193.874 71.4658 -193.874 159.248zM525 548c0 -74.8262 76.5957 -135.626 170.126 -135.626c93.5254 0 170.126 60.6719 170.126 135.501c0 74.8271 -76.5957 135.626 -170.126 135.626c-93.5254 0 -170.126 -60.6709 -170.126 -135.501zM739.076 607.7
c0 9.4502 6.75 17.1006 15.2998 17.1006c8.5498 0 15.2998 -7.65039 15.2998 -17.1006c0 -9.4502 -6.75 -17.0996 -15.2998 -17.0996c-8.5498 0 -15.2998 7.64941 -15.2998 17.0996zM630.176 608.601c0 9 6.75 16.2002 15.3008 16.2002
c8.5498 0 15.2998 -7.2002 15.2998 -16.2002s-6.75 -16.2002 -15.2998 -16.2002c-8.55078 0 -15.3008 7.2002 -15.3008 16.2002zM332.481 97.6934l-82.2217 148.848l24.0225 10.1475l58.4395 -100.383l53.3027 101.418l27.2285 -11.0254zM249.568 -67.707v34.6641h38.626
v22.0713h-38.626v34.6641h38.626v33.7148h31.3828v-33.7148h23.2197v31.2539h31.3828v-31.2539h41.292v-34.6641h-41.292v-22.0713h41.292v-34.6641h-41.292v-36.1855h-31.3828v36.1855h-23.2197v-33.7246h-31.3828v33.7246h-38.626zM319.577 -33.043h23.2197v22.0713
h-23.2197v-22.0713zM764.659 223.904c-0.529297 0 -0.985352 0.173828 -1.32227 0.358398l-214.094 -88.2627v-37.8242c12.126 5.10742 24.251 10.2148 36.376 15.3213v-3.77051l-0.21875 -161.659h318.305l0.646484 155.446
c10.9619 -6.48535 21.9238 -12.9697 32.8867 -19.4551l-0.677734 40.7051l-136.33 79.1182l1.46387 0.616211c-22.6963 11.7715 -24.457 12.7314 -36.2109 19.5508c-0.288086 -0.102539 -0.56543 -0.144531 -0.824219 -0.144531zM868.594 -16.7148h-248.003
l-0.665039 144.662l142.009 59.8174l107.859 -63.8086zM38.3545 -39.4795h55.5146l17.1611 52.2256l17.1602 -52.2256h55.5156l-44.8672 -32.2959l17.1611 -52.2246l-44.9697 32.2959l-44.9707 -32.2959l17.1611 52.2246z" />
  </g>

</svg>
