<?xml version="1.0" standalone="no"?>
<!DOCTYPE svg PUBLIC "-//W3C//DTD SVG 1.1//EN" "http://www.w3.org/Graphics/SVG/1.1/DTD/svg11.dtd" >
<svg xmlns="http://www.w3.org/2000/svg" xmlns:xlink="http://www.w3.org/1999/xlink" version="1.1" viewBox="-10 0 1020 1000">
  <g transform="matrix(1 0 0 -1 0 800)">
   <path fill="currentColor"
d="M52.8535 732.847h55.5146l17.1611 52.2256l17.1602 -52.2256h55.5156l-44.8672 -32.2959l17.1611 -52.2246l-44.9697 32.2959l-44.9707 -32.2959l17.1611 52.2246zM275.499 617.326l-12 60c128.725 89.7881 355.203 55.3633 442.457 48.5605
c0 -0.0107422 0.000976562 -0.0214844 0.000976562 -0.0322266c27.4463 0.582031 75.1855 -1.32129 107.268 -33.4033c40.1396 -40.1396 38.6152 -108.841 37.5254 -169.365c-0.395508 -21.9258 -0.433594 -33.2402 -0.22168 -41.9463
c26.3789 -43.8281 72.168 -89.959 89.3252 -129.607c6.95117 -16.0635 5.49219 -24.7637 2.64551 -40.2051l-12 -14l-79.501 -63.5771v-212.431c1.93945 -31.0869 1.82422 -79.2412 -27.416 -108.48c-26.0322 -26.0322 -182.507 -12.0195 -220.584 -13.0049
l-2.90137 0.0126953c-103.732 -7.2998 -296.108 50.6025 -326.603 92.1719c-18.5059 25.2275 -31.4014 41.2529 -57.9951 55.3086v70.0371c25.8174 -16.2627 49.624 -17.8066 70.1904 -60.6357c44.2188 -92.082 349.455 -105.734 451.309 -108.438l-0.499023 -0.962891
c50 12 34.1514 4.48145 42.5352 13.5361c19.1768 20.7119 3.97852 41.9688 5.50781 57.9648h-0.541992v2.14941c-0.253906 0.990234 -0.500977 1.94141 -0.738281 2.84863h0.738281v207.174v3.4873v1.33887h1.58203l104 88h1.13281
c4.9834 45.8955 -62.8379 92.1289 -94.2158 139.501l-3 4l-1 1c-2.02051 3.99219 0.0439453 4.02539 -2.08398 11.5605c-0.0371094 0.130859 -0.189453 0.24707 -0.174805 0.367188l0.258789 2.07227l0.0644531 1.49902
c0.00976563 0.226562 0.150391 3.89551 0.242188 6.24414c3.11426 79.1523 5.19727 173.389 -83.8154 173.771c-136.35 16.7461 -373.536 9.53418 -431.49 -46.5137zM396.326 422.37l-66.5332 120.445c-1.19141 2.15723 -0.0117188 4.79199 1.94336 5.61719l7.67969 3.24414
c1.87891 0.793945 4.08105 -0.0634766 5.01758 -1.67188l55.8828 -95.9932l50.8779 96.8027c0.878906 1.67285 3.10645 2.63086 5.0459 1.84473l10.3818 -4.20312c1.97656 -0.800781 3.19434 -3.43457 2.0127 -5.61328l-65.2891 -120.445
c-1.38184 -2.5498 -5.5 -2.77832 -7.01953 -0.0273438zM626.089 267.874c0.644531 -14.5713 -3.1748 -46.0283 -4.12891 -53.4824c3.9248 -13.0986 10.9912 -24.8838 21.8447 -35.7373c10.9209 -10.9209 25.748 -20.918 45.0557 -30.1162
c4.49902 -2.14258 0.791016 -7.84766 -0.543945 -10.8984c-0.817383 -1.86914 -3.28711 -3.00781 -5.38965 -2.00391c-21.0195 10.043 -37.7803 21.2188 -50.415 33.8525c-8.41602 8.41699 -14.9785 17.4756 -19.6807 27.2061
c-11.1406 -22.3281 -33.0342 -47.6533 -54.8848 -60.3291c-1.81445 -1.05273 -4.16211 -0.429688 -5.28125 1.16211l-4.03906 5.74414c-1.37793 1.95898 -0.595703 4.63184 1.2041 5.72168c10.3213 6.24609 19.3154 13.2051 27.0039 20.8936
c24.4131 24.4131 36.085 56.4639 34.7822 98.0068h-176.037c-0.0244141 -0.166992 -0.0410156 -0.368164 -0.0410156 -0.617188c0.639648 -14.5723 -6.28418 -46.2852 -4.12793 -53.4834c3.9248 -13.0996 10.9902 -24.8848 21.8428 -35.7373
c10.9209 -10.9209 25.748 -20.918 45.0566 -30.1172c4.49805 -2.14258 0.791016 -7.84766 -0.543945 -10.8984c-0.818359 -1.86914 -3.28809 -3.00781 -5.39062 -2.00293c-21.0195 10.042 -37.7793 21.2188 -50.4141 33.8525
c-8.41699 8.41699 -14.9785 17.4746 -19.6816 27.2051c-11.1406 -22.3271 -33.0332 -47.6533 -54.8848 -60.3281c-1.81445 -1.05273 -4.16211 -0.429688 -5.28125 1.16309l-4.03809 5.74414c-1.37695 1.95898 -0.594727 4.63184 1.20508 5.7207
c10.3203 6.24609 19.3145 13.2041 27.0029 20.8926c24.4883 24.4893 36.1572 56.6641 34.7686 98.3955c0 0.0712891 -0.00292969 0.141602 -0.00292969 0.210938h-39.6914c-2.15137 0 -3.99902 1.84668 -3.99902 4v10.8447c0 2.15234 1.8457 3.99902 3.99902 3.99902
h320.111c2.15234 0 4 -1.8457 4 -3.99902v-10.8447c0 -2.15234 -1.84668 -4 -4 -4h-75.3799v-0.0195312zM550.515 460.269c0.586914 -14.7549 -2.96777 -47.4209 -3.80762 -54.7158c8.51074 -31.7002 32.417 -52.0439 61.5439 -67.4639
c1.62891 -0.862305 2.58789 -3.02734 1.87402 -4.93848l-3.65234 -9.7832c-0.755859 -2.02539 -3.40527 -3.30859 -5.62305 -2.13086c-28.25 14.998 -50.9717 37.2676 -62.918 65.5176c-7.89355 -17.2656 -21.376 -36.4121 -35.3438 -50.3799
c-5.34766 -5.34766 -10.7764 -9.93945 -16.0967 -13.3682c-2.39844 -1.54688 -5.40039 0.0195312 -6.02344 2.30859l-2.40527 8.84082c-0.449219 1.64941 0.277344 3.46777 1.62793 4.37598c7.56055 5.08496 14.3477 10.6338 20.3721 16.6582
c25.5674 25.5674 37.8447 60.0283 36.4814 105.529c-0.145508 4.88672 5.37793 4.08887 10.0059 3.98145c1.39258 -0.0273438 2.31738 -0.736328 2.75195 -1.1709c2.45312 -2.45312 1.21289 -3.22363 1.21289 -3.26074z" />
  </g>

</svg>
