<?xml version="1.0" standalone="no"?>
<!DOCTYPE svg PUBLIC "-//W3C//DTD SVG 1.1//EN" "http://www.w3.org/Graphics/SVG/1.1/DTD/svg11.dtd" >
<svg xmlns="http://www.w3.org/2000/svg" xmlns:xlink="http://www.w3.org/1999/xlink" version="1.1" viewBox="-10 0 1051 1000">
  <g transform="matrix(1 0 0 -1 0 800)">
   <path fill="currentColor"
d="M388.31 368.285c-47.1846 0 -106.457 10.6709 -162.821 10.6709c-13.0049 0 -19.6035 -0.107422 -44.21 -2.5127l41.0303 44.7539l-29.1113 2.87891l-57.1973 -64.0762c7.4082 -9.78906 10.4219 -13.7715 12.7725 -19.5811
c0.0410156 -0.00488281 0.0410156 -0.00488281 1.74414 -0.228516l29.125 -42.5889l29.124 -2.88086l-35.4668 50.8379c17.8896 1.69141 31.0576 2.65918 55.0488 2.65918c44.9482 0 91.1133 -4.12305 133.053 -4.12305c15.8008 0 30.9414 0.586914 45.1074 2.20312
c44.4785 5.07227 106.641 31.0723 109.682 100.135c0.547852 12.4414 0.547852 12.4414 0.547852 15.3721c0 11.835 -2.05371 20.0918 -12.3027 33.7998c-9.05078 12.1064 -34.1895 14.2842 -58.833 14.2842c-32.7061 0 -74.2061 -3.91895 -115.267 -3.91895
c-55.1914 0 -111.528 7.0127 -149.588 40.1064c-0.44043 -0.796875 -1.52539 -2.69141 -3.35449 -3.99707c-3.60449 -2.5752 -3.82227 -8.23926 -3.82227 -9.57129c0 -6.09277 4.375 -9.45117 9.24414 -13.1885c37.5996 -28.8662 74.8438 -38.1387 118.583 -38.1387
c20.5742 0 78.4756 3.78906 122.522 3.78906c49.3145 0 59.9697 -4.82324 63.0586 -10.6875c2.81641 -5.34668 3.96777 -11.749 3.96777 -18.6094c0 -24.9756 -15.5713 -60.5605 -28.5459 -69.8271c-18.8389 -13.457 -44.582 -17.5605 -74.0908 -17.5605zM666.367 377.614
c0 1.64746 -1.65625 6.16309 -3.07812 8.01172c-1.96777 1.45898 -6.69629 3.14453 -8.50098 3.14453c-6.52637 0 -11.1963 -4.5293 -15.4248 -8.75879c-1.8252 -1.82324 -4.21973 -2.73828 -6.61426 -2.73828c-3.85938 0 -5.98828 2.11328 -7.72266 3.84766
c-0.359375 0.359375 -6.51074 5.75781 -10.1279 6.95117c-1.65137 0.544922 -2.73047 0.691406 -4.06348 0.691406c-1.7207 0 -6.25684 -1.55957 -8.40234 -3.08008c-0.914062 -1.44434 -0.945312 -1.54785 -3.125 -9.04297
c0.179688 -2.78809 1.49902 -8.48047 7.7832 -14.543l25.6787 -24.7705l25.498 24.54c2.75684 2.76367 8.09961 8.19141 8.09961 15.7471zM599.768 430.888c0.331055 -5.875 0.130859 -13.6318 -0.382812 -22.4775c8.3584 2.95703 20.1133 3.7002 33.2305 -5.48828
c8.93262 6.34766 15.252 7.45605 22.0957 7.5918c9.4043 0 19.5283 -4.99414 23.832 -9.47168c9.2373 -9.61133 17.5303 -32.5947 -5.21387 -54.8057c-26.8867 -26.2549 -30.0928 -29.1963 -31.0068 -29.9971c-5.41504 -5.20117 -13.8799 -5.21582 -19.3457 0.0771484
l-29.043 28.1279c-0.994141 -11.5137 -1.7793 -22.207 -2.01074 -30.8262c-0.09375 -3.49121 -0.352539 -19.1523 2.48145 -20.6689c0.323242 -0.113281 0.582031 -0.291992 0.523438 -0.788086c9.20801 -98.9971 102.682 -191.717 107.88 -193.623
c0.169922 -0.0615234 -0.322266 0.0146484 -0.322266 0.0146484l-0.488281 -0.253906l-0.264648 -0.59668l1.55371 -0.867188l-17.5117 -11.6748c-1.94824 2.125 -2.88574 3.14746 -7.35645 7.9873c-35.5156 38.4502 -74.2109 80.3906 -104.311 182.503
c-8.31934 -48.3086 -38.1211 -101.279 -64.9893 -135.4c-17.3301 -22.0088 -23.2012 -37.5166 -39.0713 -55.1494l-20.71 16.3955c12.2129 15.832 20.0459 26.5664 30.8691 41.5049c6.09961 8.41992 11.7227 16.1807 17.7295 24.0713
c73.5107 96.5625 75.71 223.811 75.1611 288.474l21.3789 -0.47168c1.89941 -0.0410156 5.12598 -0.958008 5.00879 -6.74414c-0.0332031 -1.67773 -0.182617 -9.16504 0.283203 -17.4424v0zM48.3545 723.521h55.5146l17.1611 52.2256l17.1602 -52.2256h55.5156
l-44.8672 -32.2959l17.1611 -52.2246l-44.9697 32.2959l-44.9707 -32.2959l17.1611 52.2246zM271 608l-12 60c128.725 89.7881 355.203 55.3633 442.457 48.5605c0 -0.0107422 0.000976562 -0.0214844 0.000976562 -0.0322266
c27.4463 0.582031 75.1855 -1.32129 107.268 -33.4033c40.1396 -40.1396 38.6152 -108.841 37.5254 -169.365c-0.395508 -21.9258 -0.433594 -33.2402 -0.22168 -41.9463c26.3789 -43.8281 72.168 -89.959 89.3252 -129.607
c6.95117 -16.0635 5.49219 -24.7637 2.64551 -40.2051l-12 -14l-79.501 -63.5771v-212.431c1.93945 -31.0869 1.82422 -79.2412 -27.416 -108.48c-26.0322 -26.0322 -182.507 -12.0195 -220.584 -13.0049l-2.90137 0.0126953
c-103.732 -7.2998 -296.108 50.6025 -326.603 92.1719c-18.5059 25.2275 -31.4014 41.2529 -57.9951 55.3086v70.0371c25.8174 -16.2627 49.624 -17.8066 70.1904 -60.6357c44.2188 -92.082 349.455 -105.734 451.309 -108.438l-0.499023 -0.962891
c50 12 34.1514 4.48145 42.5352 13.5361c19.1768 20.7119 3.97852 41.9688 5.50781 57.9648h-0.541992v2.14941c-0.253906 0.990234 -0.500977 1.94141 -0.738281 2.84863h0.738281v207.174v3.4873v1.33887h1.58203l104 88h1.13281
c4.9834 45.8955 -62.8379 92.1289 -94.2158 139.501l-3 4l-1 1c-2.02051 3.99219 0.0439453 4.02539 -2.08398 11.5605c-0.0371094 0.130859 -0.189453 0.24707 -0.174805 0.367188l0.258789 2.07227l0.0644531 1.49902
c0.00976562 0.226562 0.150391 3.89551 0.242188 6.24414c3.11426 79.1523 5.19727 173.389 -83.8154 173.771c-136.35 16.7461 -373.536 9.53418 -431.49 -46.5137zM48.3545 723.521h55.5146l17.1611 52.2256l17.1602 -52.2256h55.5156l-44.8672 -32.2959l17.1611 -52.2246
l-44.9697 32.2959l-44.9707 -32.2959l17.1611 52.2246zM271 608l-12 60c128.725 89.7881 355.203 55.3633 442.457 48.5605c0 -0.0107422 0.000976562 -0.0214844 0.000976562 -0.0322266c27.4463 0.582031 75.1855 -1.32129 107.268 -33.4033
c40.1396 -40.1396 38.6152 -108.841 37.5254 -169.365c-0.395508 -21.9258 -0.433594 -33.2402 -0.22168 -41.9463c26.3789 -43.8281 72.168 -89.959 89.3252 -129.607c6.95117 -16.0635 5.49219 -24.7637 2.64551 -40.2051l-12 -14l-79.501 -63.5771v-212.431
c1.93945 -31.0869 1.82422 -79.2412 -27.416 -108.48c-26.0322 -26.0322 -182.507 -12.0195 -220.584 -13.0049l-2.90137 0.0126953c-103.732 -7.2998 -296.108 50.6025 -326.603 92.1719c-18.5059 25.2275 -31.4014 41.2529 -57.9951 55.3086v70.0371
c25.8174 -16.2627 49.624 -17.8066 70.1904 -60.6357c44.2188 -92.082 349.455 -105.734 451.309 -108.438l-0.499023 -0.962891c50 12 34.1514 4.48145 42.5352 13.5361c19.1768 20.7119 3.97852 41.9688 5.50781 57.9648h-0.541992v2.14941
c-0.253906 0.990234 -0.500977 1.94141 -0.738281 2.84863h0.738281v207.174v3.4873v1.33887h1.58203l104 88h1.13281c4.9834 45.8955 -62.8379 92.1289 -94.2158 139.501l-3 4l-1 1c-2.02051 3.99219 0.0439453 4.02539 -2.08398 11.5605
c-0.0371094 0.130859 -0.189453 0.24707 -0.174805 0.367188l0.258789 2.07227l0.0644531 1.49902c0.00976562 0.226562 0.150391 3.89551 0.242188 6.24414c3.11426 79.1523 5.19727 173.389 -83.8154 173.771c-136.35 16.7461 -373.536 9.53418 -431.49 -46.5137z" />
  </g>

</svg>
