<?xml version="1.0" standalone="no"?>
<!DOCTYPE svg PUBLIC "-//W3C//DTD SVG 1.1//EN" "http://www.w3.org/Graphics/SVG/1.1/DTD/svg11.dtd" >
<svg xmlns="http://www.w3.org/2000/svg" xmlns:xlink="http://www.w3.org/1999/xlink" version="1.1" viewBox="-10 0 1051 1000">
  <g transform="matrix(1 0 0 -1 0 800)">
   <path fill="currentColor"
d="M828.399 483.872c0 9.49878 0.360099 25.4826 0.360099 28.905l-0.318652 61.3747l-8.69455 54.78l-24.0577 41.7601l-29.8355 19.1251l-33.9409 8.02542l-47.9505 1.85133v0.765382l-107.704 8.96128l-161.614 -4.8437l-135.511 -48.0118l4.97421 -24.8711
l90.1513 34.2037l168.519 13.9909l163.859 -8.05849l72.0585 -32.0852l24.6852 -76.5829c-11.2968 -92.7231 -11.5388 -94.7093 -10.6225 -98.1968c0.272553 -1.03738 0.408327 -1.98777 0.495372 -2.92219c0.487753 -0.641757 1.13403 -1.58506 1.4862 -2.05622
l30.4464 -40.7334l38.0432 -60.0682l23.93 -33.502l-96.7113 -80.2498l-3.19974 -219.288c0.962733 -7.56244 2.78458 -22.0112 5.01798 -45.877c-0.12894 -0.269919 -9.65147 -20.9678 -12.8349 -27.02c-1.80565 -3.43278 -3.36365 -6.39475 -8.94453 -11.1259
c-28.726 -6.87192 -37.6748 -9.01268 -53.7943 -9.01268c-3.38415 0 -6.77838 0.14333 -10.1737 0.446144l-127.95 -3.2205l-189.706 31.9736l-119.91 72.0259l-21.8729 31.5454c-0.18608 0.126152 -14.9542 10.3475 -18.5829 12.6523v-31.4635
c5.41685 -3.87145 13.5068 -7.36272 24.4398 -17.2503c7.32645 -6.62591 2.09556 -4.45645 10.6241 -11.9264c1.03002 -0.902171 1.03002 -0.902171 17.2005 -21.8062l70.2643 -41.1391l123.979 -35.7692l40.8353 -3.74581
c52.8258 -4.90757 59.0669 -6.73248 83.0467 -7.42728l68.08 -1.97257l89.7606 0.254271l51.1066 12.4914l15.1376 25.2075l6.27671 34.16l-0.268638 82.9487l0.0291888 84.2282l-0.00582149 87.5189l84.7837 67.8016l7.68593 8.96692l1.11464 7.19504
c0.44913 7.61262 -1.52476 12.8022 -3.31214 18.1783l-23.3304 38.8443l-33.0243 43.448l-34.3179 48.9016c-0.202711 16.1296 -0.202711 16.1296 -0.202711 17.6951zM30.3242 741.553h55.5146l17.1611 52.2256l17.1602 -52.2256h55.5156l-44.8672 -32.2959
l17.1611 -52.2246l-44.9697 32.2959l-44.9707 -32.2959l17.1611 52.2246zM493.535 148.055l-90.2373 90.2373l7.20508 7.20508l90.2383 -90.2373l90.4648 90.4658l7.26562 -6.50293c-21.4404 -21.1094 -48.9619 -48.2441 -91.2568 -90.4365
c30.9287 -30.9287 61.8564 -61.8574 92.7852 -92.7861l2.68945 -1.25098c-4.04395 -3.62793 -4.04395 -3.62793 -9.875 -7.15918l-92.8018 94.002c-25.5439 -25.5596 -53.5352 -53.6523 -89.7812 -90.6006l-7.26172 6.49902
c1.85449 1.85449 89.6602 89.6592 90.5654 90.5645zM456.327 199.786l7.45312 -7.45312c14.3477 2.58691 30.7783 4.07812 49.1045 4.07812c0.762695 0 1.48535 -0.00195312 2.16406 -0.00390625c0.350586 0.136719 0.72168 0.205078 1.09277 0.205078
c8.01465 0 16.4199 -0.487305 24.8652 -1.43164l7.73047 7.73047c-11.8027 1.57812 -24.2734 2.42188 -37.0947 2.42188c-19.6416 0 -38.4609 -1.97949 -55.3154 -5.54688zM560.202 201.111c-2.45605 -2.43262 -4.98438 -4.93555 -7.58691 -7.5166
c38.5488 -6.22754 74.5977 -21.7959 74.5977 -43.9033c0 -20.2021 -31.8867 -37.6455 -76.6094 -44.1816l7.57031 -7.57031c46.4951 8.01465 80.4814 27.7217 80.4814 51.7646c0 23.6914 -32.999 43.1738 -78.4531 51.4072zM545.101 96.0371l-7.79102 7.8916
c-8.25195 -0.763672 -16.8418 -1.16797 -25.667 -1.16797c-16.4053 0 -31.9922 1.39551 -46.1035 3.90332c-2.41992 -2.43555 -4.87598 -4.9082 -7.37012 -7.42285c16.3789 -3.32715 34.5439 -5.16504 53.4736 -5.16504c11.5117 0 22.7412 0.679688 33.458 1.96094z
M550.604 105.51zM465.539 106.664zM444.71 196.992c-35.7051 -9.67383 -60.0811 -26.9258 -60.0811 -47.2881c0 -20.8877 25.6523 -38.5049 62.877 -48.0234l7.19434 7.19434c-35.0566 8.1123 -58.6299 23.4521 -58.6299 40.8174c0 15.3438 19.8994 31.4141 55.8066 40.1338
zM589.364 370.148zM417.61 485.697zM385.535 426.649zM510.508 349.445zM510.282 342.274zM414.796 368.938zM469.845 351.62zM620 440zM385.535 426.649zM620 440zM543.945 515.811c-12.1074 0 -22.3574 -4.70996 -27.5566 -9.9082
c-1.97754 -1.97852 -1.47266 -2.08203 -2.29102 -2.37891c-3.6748 -1.34082 -7.27734 -1.82617 -10.5645 -1.82617c-3.10254 0 -8.74219 0.458008 -14.8477 3.20117c-4.14844 5.0498 -11.1641 9.64648 -22.9609 9.64648c-17.71 0 -37.9053 -10.9619 -44.9287 -27.3857
l-0.34668 -0.811523h-1.22168l-31.998 -43.4766h-1.53125v-2.0791c-0.207031 -0.282227 -0.414062 -0.563477 -0.62207 -0.845703h0.334961l-3.54395 -13.2891l-0.398438 0.00585938c-0.0712891 -1.36035 -0.200195 -2.1416 -0.628906 -3.83301h0.515625
c-0.0126953 -1.50195 -0.0126953 -1.50195 -0.0126953 -1.65527c0 -9.71582 4.19238 -29.377 32.1357 -52.4873c29.5117 -24.4102 62.8867 -27.1016 90.5547 -27.1016c45.3486 0 63.8379 5.68359 90.9736 27.127c33.1494 26.1934 33.709 33.9072 34.6201 53.0527
l-0.927734 0.0146484c-0.0566406 0.212891 -4.12793 16.8281 -5.57227 21.3008l-23.6924 40.4854c-2.66992 2.78711 -2.66992 2.78711 -2.93945 3.24902h-0.175781c-8.33008 8.52539 -25.792 24.4785 -42.8418 28.0137
c-3.2627 0.676758 -6.45703 0.981445 -9.53223 0.981445zM465.263 504.101c2.54883 0 8.21387 0 14.6719 -4.44434l-0.0498047 -0.617188c0.373047 -0.152344 0.970703 -0.432617 1.55078 -0.984375c5.47266 -5.2002 13.8828 -7.6416 21.8682 -7.6416
c7.43848 0 14.5078 2.11816 18.4873 6.09863c0.774414 0.774414 2.02539 2.02441 2.99121 4.93555c4.10059 2.79883 10.6152 5.85254 19.5059 5.85254c11.7998 0 17.3154 -5.13867 21.5459 -9.07715c3.28711 -3.06152 7.61621 -7.10254 16.9258 -13.2637
c0.355469 -0.0771484 0.647461 -0.248047 0.881836 -0.512695l0.205078 0.0078125l26.625 -41.9961c0 -0.0712891 -0.00195313 -0.143555 -0.00195313 -0.21582c1.91016 -7.1543 3.65332 -14.4746 5.49219 -21.7002c0.642578 -2.56836 1.00488 -4.94824 1.00488 -7.25293
c0 -11.0566 -8.22656 -20.0146 -31.9219 -39.3779c-21.8359 -17.8418 -37.6484 -23.9629 -85.3008 -23.9629c-25.7979 0 -46.5928 3.16895 -70.8789 20.1689c-29.9375 20.957 -33.9629 36.3896 -33.9629 50.1328c0 0.90625 0.0175781 1.7998 0.0419922 2.67871
c1.49414 5.92871 3.11719 11.7275 4.65918 17.6074l29.1758 41.3076c0.415039 -0.160156 0.828125 -0.319336 1.24121 -0.478516c0.983398 2.31445 2.65723 6.25781 7.19824 10.7988c7.31738 7.31738 18.1484 11.9365 28.0439 11.9365z" />
  </g>

</svg>
