<?xml version="1.0" standalone="no"?>
<!DOCTYPE svg PUBLIC "-//W3C//DTD SVG 1.1//EN" "http://www.w3.org/Graphics/SVG/1.1/DTD/svg11.dtd" >
<svg xmlns="http://www.w3.org/2000/svg" xmlns:xlink="http://www.w3.org/1999/xlink" version="1.1" viewBox="-12 0 999 1000">
  <g transform="matrix(1 0 0 -1 0 800)">
   <path fill="currentColor"
d="M271 608l-12 60c128.725 89.7881 355.203 55.3633 442.457 48.5605c0 -0.0107422 0.000976562 -0.0214844 0.000976562 -0.0322266c27.4463 0.582031 75.1855 -1.32129 107.268 -33.4033c40.1396 -40.1396 38.6152 -108.841 37.5254 -169.365
c-0.395508 -21.9258 -0.433594 -33.2402 -0.22168 -41.9463c26.3789 -43.8281 72.168 -89.959 89.3252 -129.607c6.95117 -16.0635 5.49219 -24.7637 2.64551 -40.2051l-12 -14l-79.501 -63.5771v-212.431c1.93945 -31.0869 1.82422 -79.2412 -27.416 -108.48
c-26.0322 -26.0322 -182.507 -12.0195 -220.584 -13.0049l-2.90137 0.0126953c-103.732 -7.2998 -296.108 50.6025 -326.603 92.1719c-18.5059 25.2275 -31.4014 41.2529 -57.9951 55.3086v70.0371c25.8174 -16.2627 49.624 -17.8066 70.1904 -60.6357
c44.2188 -92.082 349.455 -105.734 451.309 -108.438l-0.499023 -0.962891c50 12 34.1514 4.48145 42.5352 13.5361c19.1768 20.7119 3.97852 41.9688 5.50781 57.9648h-0.541992v2.14941c-0.253906 0.990234 -0.500977 1.94141 -0.738281 2.84863h0.738281v207.174v3.4873
v1.33887h1.58203l104 88h1.13281c4.9834 45.8955 -62.8379 92.1289 -94.2158 139.501l-3 4l-1 1c-2.02051 3.99219 0.0439453 4.02539 -2.08398 11.5605c-0.0371094 0.130859 -0.189453 0.24707 -0.174805 0.367188l0.258789 2.07227l0.0644531 1.49902
c0.00976562 0.226562 0.150391 3.89551 0.242188 6.24414c3.11426 79.1523 5.19727 173.389 -83.8154 173.771c-136.35 16.7461 -373.536 9.53418 -431.49 -46.5137zM346.251 257.55c-0.544922 -18.7041 1.52344 -40.9473 46.9482 -72.7451
c38.5449 -26.9814 70.4844 -28.9189 114.333 -27.833c51.0889 1.31543 72.4062 7.88184 103.256 33.0898c41.0244 33.5234 47.8213 44.0293 42.8877 63.7227l-6.52246 26.043l-0.240234 -0.427734c0.0146484 1.57617 -1.04004 3.58008 -1.02637 5.15723l-36.6055 57.7354
c-0.982422 -0.0390625 -0.197266 0.853516 -1.18066 0.81543c-22.6582 14.9385 -25.0742 21.4111 -33.5381 26.4023c-13.0332 7.68555 -33.0713 6.1377 -45.8281 -2.56836c-6.35059 -19.1299 -45.752 -22.1963 -63.9082 -4.94531
c-1.69141 1.6084 -2.94043 0.713867 -2.78027 2.68652c-19.4072 13.3555 -55.7588 -0.0996094 -66.0312 -24.293l-1.24609 -2.93457l-2.07617 0.799805l-40.0312 -56.6748zM667.14 287.302c3.11816 -9.44336 5.12598 -19.6631 7.74805 -29.4521l1.82812 -0.0302734
c-1.38965 -29.333 -1.91309 -40.3789 -49.5459 -78.0156c-35.4414 -28.0068 -61.3906 -37.8711 -120.371 -38.5371c-40.5723 -0.457031 -92.2422 1.06152 -137.54 38.5264c-17.8506 14.7627 -46.1836 43.334 -45.9209 75.7881h-1.26953
c1.3877 5.20312 1.3877 5.20312 1.51953 9.19727l0.928711 -0.0166016l3.97754 14.916h-1.74609c0.907227 1.23145 1.81348 2.46289 2.71973 3.69434v4.19043h3.08594l45.0449 61.2031h1.42871c15.584 36.4443 75.291 53.999 98.4805 25.7705
c3.29297 -1.48047 18.2266 -7.43848 33.9512 -1.70508c8.09863 10.8398 30.8574 21.3027 56.4678 15.9922c24.7705 -5.13672 49.7568 -28.1797 60.7197 -39.3984h0.525391c0.385742 -0.569336 0.650391 -1.22266 1.13574 -1.71973l3.44531 -3.59473l32.8896 -56.2021
c0.491211 0.0419922 0.878906 0.0107422 0.800781 -0.345703zM661.188 281.637zM331.122 262.843zM661.188 281.637zM449.807 157.22zM372.313 181.6zM506.733 144.065zM507.052 154.159zM331.122 262.843zM376.275 345.968zM618.061 183.304zM141.65 550.64v0z
M144.859 181.315v0zM145.728 162v0zM285 162l-1.10449 406.837h-142.245v-18.1973h122.921v-369.324h-119.712l0.868164 -19.3154h139.272zM285 162v0zM283.896 568.837v0zM141.65 568.837v0zM475.916 192.618l-6.25781 -0.419922l2.89844 3.7207zM424.478 267.8
l-3.00879 2.7627l5.85547 0.171875zM424.478 267.8l-12.248 -12.6318l60.3271 -59.249l97.9561 125.741l-13.8486 9.61719l-84.6123 -107.176zM556.664 331.277l-3.24121 2.25098l5.69238 0.853516zM570.513 321.66l2.72461 3.49707l0.922852 -6.03027zM412.229 255.168
l-2.9043 -2.99512l-0.0732422 5.91992zM-1.89648 741.521h55.5146l17.1611 52.2256l17.1602 -52.2256h55.5156l-44.8672 -32.2959l17.1611 -52.2246l-44.9697 32.2959l-44.9707 -32.2959l17.1611 52.2246zM103 662z" />
  </g>

</svg>
