<?xml version="1.0" standalone="no"?>
<!DOCTYPE svg PUBLIC "-//W3C//DTD SVG 1.1//EN" "http://www.w3.org/Graphics/SVG/1.1/DTD/svg11.dtd" >
<svg xmlns="http://www.w3.org/2000/svg" xmlns:xlink="http://www.w3.org/1999/xlink" version="1.1" viewBox="-10 0 997 1000">
  <g transform="matrix(1 0 0 -1 0 800)">
   <path fill="currentColor"
d="M36.3096 730.951h55.5146l17.1611 52.2256l17.1602 -52.2256h55.5156l-44.8672 -32.2959l17.1611 -52.2246l-44.9697 32.2959l-44.9707 -32.2959l17.1611 52.2246zM276.985 597.398l-12 60c128.725 89.7881 355.203 55.3633 442.457 48.5605
c0 -0.0107422 0.000976563 -0.0214844 0.000976563 -0.0322266c27.4463 0.582031 75.1855 -1.32129 107.268 -33.4033c40.1396 -40.1396 38.6152 -108.841 37.5254 -169.365c-0.395508 -21.9258 -0.433594 -33.2402 -0.22168 -41.9463
c26.3789 -43.8281 72.168 -89.959 89.3252 -129.607c6.95117 -16.0635 5.49219 -24.7637 2.64551 -40.2051l-12 -14l-79.501 -63.5771v-212.431c1.93945 -31.0869 1.82422 -79.2412 -27.416 -108.48c-26.0322 -26.0322 -182.507 -12.0195 -220.584 -13.0049
l-2.90137 0.0126953c-103.732 -7.2998 -296.108 50.6025 -326.603 92.1719c-18.5059 25.2275 -31.4014 41.2529 -57.9951 55.3086v70.0371c25.8174 -16.2627 49.624 -17.8066 70.1904 -60.6357c44.2188 -92.082 349.455 -105.734 451.309 -108.438l-0.499023 -0.962891
c50 12 34.1514 4.48145 42.5352 13.5361c19.1768 20.7119 3.97852 41.9688 5.50781 57.9648h-0.541992v2.14941c-0.253906 0.990234 -0.500977 1.94141 -0.738281 2.84863h0.738281v207.174v3.4873v1.33887h1.58203l104 88h1.13281
c4.9834 45.8955 -62.8379 92.1289 -94.2158 139.501l-3 4l-1 1c-2.02051 3.99219 0.0439453 4.02539 -2.08398 11.5605c-0.0371094 0.130859 -0.189453 0.24707 -0.174805 0.367188l0.258789 2.07227l0.0644531 1.49902
c0.00976562 0.226562 0.150391 3.89551 0.242188 6.24414c3.11426 79.1523 5.19727 173.389 -83.8154 173.771c-136.35 16.7461 -373.536 9.53418 -431.49 -46.5137zM395.958 374.274l-90.9727 -91.875l99 -91l-12.8887 -10.7354l-99.1113 91.2354l-89.6387 -91.2354
l-9.36133 10.2354l88.5 90l-87 90.5l11.5 11l88 -87.5l92 88zM470.012 153.506c0 -1.18555 0.112305 -2.85547 0.112305 -4.49219c0 -12.4434 3.81152 -32.2529 22.3115 -55.0771c5.18555 -6.45312 8.36328 -10.2061 12.7949 -13.8877l92.2676 -88.125
c2.53906 -2.53613 6.48535 -4.28516 10.5391 -4.28516c1.37891 0.0166016 5.6709 0.0664062 10.4326 4.60938c91.9971 87.7646 91.9971 87.7646 92.8223 88.5898c22.8438 22.8438 34.5342 45.7998 34.5859 68.4805v0.123047l0.00683594 0.124023
c0.0576172 1.12695 0.101562 2.75684 0.101562 3.83398c0 16.3643 -9.14746 38.7773 -20.7061 50.6426c-12.2549 10.9717 -35.1592 19.6885 -51.6934 19.6885c-28.6758 0 -48.0176 -14.4199 -66.0283 -29.7656c-11.8145 10.1475 -34.4814 29.1768 -61.7451 29.3154
h-0.110352l-0.110352 0.00585937c-0.731445 0.0361328 -2.67871 0.0849609 -3.63281 0.0849609c-16.5312 0 -39.4453 -8.72363 -51.7588 -19.7539c-11.2441 -11.7568 -17.9336 -44.5117 -20.1895 -50.1113zM490.212 203.628c0 0 -0.000976562 -0.000976563 0 0z
M608.001 178.976c2.30566 0 5.06836 7.90918 28.4746 23.0303c4.1709 2.68555 16.6895 10.748 37.3418 10.748c19.5088 0 40.2969 -12.4238 44.4863 -16.9785c8.93945 -9.71973 17.0088 -28.583 17.0088 -42.4141c0 -0.986328 -0.046875 -2.56445 -0.105469 -3.62598
c0 -16.6738 -7.67773 -37.5693 -32.2168 -61.7705l-94.9453 -90.1299l-3.44043 3.27344s-91.917 87.4443 -91.9658 87.4873c-0.99707 0.835938 -31.5137 26.7324 -31.5137 64.8555c0 18.7568 12.5137 38.5244 17.1191 42.4912
c10.2432 8.82031 29.9922 16.791 44.3125 16.791c37.2871 0 62.8066 -33.7578 65.4443 -33.7578zM735.208 149.783v0zM749.519 483.925c-0.119141 0.876953 -0.170898 1.2627 -0.99707 1.2627c-0.332031 0 -0.332031 0 -75.1416 -53.4688
c-59.6924 121.872 -59.6924 121.872 -60.2822 121.872c-0.317383 0 -0.75 -0.135742 -0.944336 -0.53125l-59.6133 -121.338c-75.3125 54.127 -75.3125 54.127 -75.7871 54.1172c-0.477539 -0.0761719 -0.84082 -0.568359 -0.84082 -1.04199
c0 -0.0947266 0 -0.0947266 41.9033 -174.056c0.0654297 -0.272461 0.547852 -0.772461 0.973633 -0.772461h196.553c0.0126953 0.00292969 0.87207 0.238281 0.983398 0.818359zM562.479 400.125c0.435547 0 0.893555 0.0927734 1.06543 0.447266l50.3066 104.008
c48.4463 -108.943 48.4463 -108.943 48.543 -109.041c0.245117 -0.244141 0.560547 -0.34668 0.842773 -0.34668c0.318359 0 0.318359 0 51.4775 37.376l-25.7148 -99.5684l-152.193 0.961914l-27.667 104.449c53.0176 -38.2861 53.0176 -38.2861 53.3398 -38.2861z" />
  </g>

</svg>
