<?xml version="1.0" standalone="no"?>
<!DOCTYPE svg PUBLIC "-//W3C//DTD SVG 1.1//EN" "http://www.w3.org/Graphics/SVG/1.1/DTD/svg11.dtd" >
<svg xmlns="http://www.w3.org/2000/svg" xmlns:xlink="http://www.w3.org/1999/xlink" version="1.1" viewBox="-10 0 1020 1000">
  <g transform="matrix(1 0 0 -1 0 800)">
   <path fill="currentColor"
d="M395.496 284.155h298.338l0.677734 162.94l32.5176 -19.2373l-0.286133 17.1777l-148.822 86.3682l0.305664 0.128906c-4.9541 2.56934 -4.9541 2.56934 -7.74023 4.18555l-0.0683594 -0.135742c-2.44824 1.26855 -4.89648 2.53809 -7.34473 3.80762l-203.746 -83.998
v-16.0635l36.3955 15.3301zM678.593 299.376h-267.869l-0.741211 161.29l152.796 64.3604l117.148 -69.3027zM641.799 234.265c0.660156 -11.7207 -3.2832 -36.1494 -2.80078 -47.0615c0.498047 -0.883789 0.899414 -1.96777 1.01562 -3.2207
c1.08496 -11.666 5.99316 -23.7129 12.0752 -34.249c7.58203 -13.1367 16.8975 -23.8291 21.5859 -28.5166c1.61621 -1.61719 3.16504 -2.88086 3.19531 -2.91113c1.29785 -1.29785 1.98633 -2.97461 2.06641 -4.67578
c0.925781 -2.98535 -0.204102 -6.24805 -2.83984 -8.00586l-6.12207 -4.08203c-3.30664 -2.20508 -7.76367 -1.67383 -10.4521 1.25977c-13.5615 14.7568 -24.2979 26.4385 -34.3906 50.1797c-5.03516 -11.3721 -11.7031 -21.8584 -18.0137 -29.8721
c-5.71582 -7.25879 -9.72461 -15.6377 -14.6387 -20.5518c-2.93457 -2.93457 -7.57031 -3.14551 -10.749 -0.628906c-7.36621 5.83105 -7.36621 5.83105 -7.7041 6.16992c-2.90918 2.90918 -3.14355 7.49121 -0.691406 10.668
c6.30469 8.17285 14.0742 19.126 17.4639 23.5791c24.6035 32.3174 26.0303 76 25.8262 100.028c-0.0380859 4.57129 3.70703 8.26562 8.27832 8.16406c0.000976563 0 7.41211 -0.163086 7.41211 -0.163086c5.95117 -0.12793 9.49902 -4.96484 9.3916 -10.3486
c-0.0107422 -0.544922 -0.0585938 -3.08594 0.0917969 -5.76172zM483.799 232.265c0.660156 -11.7207 -3.2832 -36.1494 -2.80078 -47.0615c0.498047 -0.883789 0.899414 -1.96777 1.01562 -3.2207c1.08496 -11.666 5.99316 -23.7129 12.0752 -34.249
c7.58203 -13.1367 16.8975 -23.8291 21.5859 -28.5166c1.61621 -1.61719 3.16504 -2.88086 3.19531 -2.91113c1.29785 -1.29785 1.98633 -2.97461 2.06641 -4.67578c0.925781 -2.98535 -0.204102 -6.24805 -2.83984 -8.00586l-6.12207 -4.08203
c-3.30664 -2.20508 -7.76367 -1.67383 -10.4521 1.25977c-13.5615 14.7568 -24.2979 26.4385 -34.3906 50.1797c-5.03516 -11.3721 -11.7031 -21.8584 -18.0137 -29.8721c-5.71582 -7.25879 -9.72461 -15.6377 -14.6387 -20.5518
c-2.93457 -2.93457 -7.57031 -3.14551 -10.749 -0.628906c-7.36621 5.83105 -7.36621 5.83105 -7.7041 6.16992c-2.90918 2.90918 -3.14355 7.49121 -0.691406 10.668c6.30469 8.17285 14.0742 19.126 17.4639 23.5791c24.6035 32.3174 26.0303 76 25.8262 100.028
c-0.0380859 4.57129 3.70703 8.26562 8.27832 8.16406c0.000976563 0 7.41211 -0.163086 7.41211 -0.163086c5.95117 -0.12793 9.49902 -4.96484 9.3916 -10.3486c-0.0107422 -0.544922 -0.0585938 -3.08594 0.0917969 -5.76172zM48.3545 723.521h55.5146l17.1611 52.2256
l17.1602 -52.2256h55.5156l-44.8672 -32.2959l17.1611 -52.2246l-44.9697 32.2959l-44.9707 -32.2959l17.1611 52.2246zM271 608l-12 60c128.725 89.7881 355.203 55.3633 442.457 48.5605c0 -0.0107422 0.000976562 -0.0214844 0.000976562 -0.0322266
c27.4463 0.582031 75.1855 -1.32129 107.268 -33.4033c40.1396 -40.1396 38.6152 -108.841 37.5254 -169.365c-0.395508 -21.9258 -0.433594 -33.2402 -0.22168 -41.9463c26.3789 -43.8281 72.168 -89.959 89.3252 -129.607
c6.95117 -16.0635 5.49219 -24.7637 2.64551 -40.2051l-12 -14l-79.501 -63.5771v-212.431c1.93945 -31.0869 1.82422 -79.2412 -27.416 -108.48c-26.0322 -26.0322 -182.507 -12.0195 -220.584 -13.0049l-2.90137 0.0126953
c-103.732 -7.2998 -296.108 50.6025 -326.603 92.1719c-18.5059 25.2275 -31.4014 41.2529 -57.9951 55.3086v70.0371c25.8174 -16.2627 49.624 -17.8066 70.1904 -60.6357c44.2188 -92.082 349.455 -105.734 451.309 -108.438l-0.499023 -0.962891
c50 12 34.1514 4.48145 42.5352 13.5361c19.1768 20.7119 3.97852 41.9688 5.50781 57.9648h-0.541992v2.14941c-0.253906 0.990234 -0.500977 1.94141 -0.738281 2.84863h0.738281v207.174v3.4873v1.33887h1.58203l104 88h1.13281
c4.9834 45.8955 -62.8379 92.1289 -94.2158 139.501l-3 4l-1 1c-2.02051 3.99219 0.0439453 4.02539 -2.08398 11.5605c-0.0371094 0.130859 -0.189453 0.24707 -0.174805 0.367188l0.258789 2.07227l0.0644531 1.49902
c0.00976562 0.226562 0.150391 3.89551 0.242188 6.24414c3.11426 79.1523 5.19727 173.389 -83.8154 173.771c-136.35 16.7461 -373.536 9.53418 -431.49 -46.5137z" />
  </g>

</svg>
