<?xml version="1.0" standalone="no"?>
<!DOCTYPE svg PUBLIC "-//W3C//DTD SVG 1.1//EN" "http://www.w3.org/Graphics/SVG/1.1/DTD/svg11.dtd" >
<svg xmlns="http://www.w3.org/2000/svg" xmlns:xlink="http://www.w3.org/1999/xlink" version="1.1" viewBox="-10 0 1073 1000">
  <g transform="matrix(1 0 0 -1 0 800)">
   <path fill="currentColor"
d="M505.859 219.449c1.03418 -18.3682 -7.69434 -70.6875 -2.55957 -73.4336c5.04102 -54.1943 57.5098 -104.83 57.5771 -102.876l-8.8916 -5.92773c-20.002 21.8174 -42.3223 43.4102 -59.3301 102.529c-3.78516 -26.0312 -20.0449 -55.1875 -34.6553 -73.7412
c-8.88965 -11.29 -12.7002 -20.3213 -20.3213 -28.7881l-10.1611 8.04395c11.4307 14.8174 17.8467 24.3682 25.4023 34.292c38.5732 50.6689 40.1865 117.195 39.8877 152.438c3.58984 -0.078125 7.17773 -0.157227 10.7676 -0.236328
c2.01953 -0.0439453 2.10156 -2.00781 2.13672 -2.84473c0.00390625 -0.0947266 -0.130859 -4.50586 0.147461 -9.45605zM446.425 378.067l-58.3398 52.8477l9.45312 6.96387l45.2021 -41.5195l80.6016 102.097l12.8418 -5.90137zM584.159 355.065zM352.859 510.676z
M309.664 431.155zM477.965 327.186zM477.661 317.529zM349.069 353.436zM423.202 330.113zM625.417 449.135zM309.664 431.155zM625.417 449.135zM631.11 454.555c2.98242 -9.0332 4.90332 -18.8105 7.41113 -28.1758l1.74902 -0.0283203
c-1.33008 -28.0615 -1.83008 -38.6279 -47.3965 -74.6338c-33.9053 -26.791 -58.7275 -36.2285 -115.151 -36.8643c-38.8125 -0.4375 -88.2422 1.01562 -131.575 36.8555c-17.0752 14.1221 -44.1807 41.4541 -43.9287 72.501h-1.21484
c1.32715 4.97656 1.32715 4.97656 1.45312 8.79785l0.889648 -0.0146484l3.80469 14.2695h-1.6709c0.867188 1.17773 1.73535 2.35547 2.60254 3.5332v4.00879h2.95117l43.0908 58.5498h1.36719c14.9092 34.8623 72.0254 51.6562 94.21 24.6523
c3.15039 -1.41602 17.4355 -7.11621 32.4785 -1.63184c7.74805 10.3711 29.5195 20.3789 54.0186 15.2988c23.6963 -4.91309 47.5996 -26.957 58.0869 -37.6895h0.50293c0.369141 -0.544922 0.62207 -1.16895 1.08691 -1.64648l3.29492 -3.4375l31.4639 -53.7646
c0.469727 0.0400391 0.84082 0.0107422 0.766602 -0.331055zM324.139 426.092c-0.522461 -17.8916 1.45703 -39.1699 44.9111 -69.5889c36.874 -25.8115 67.4287 -27.665 109.375 -26.627c48.873 1.25879 69.2656 7.54004 98.7783 31.6553
c39.2441 32.0703 45.7471 42.1201 41.0273 60.96l-6.24023 24.9121l-0.229492 -0.408203c0.0126953 1.50684 -0.995117 3.4248 -0.981445 4.93262l-35.0186 55.2324c-0.939453 -0.0380859 -0.189453 0.816406 -1.12891 0.779297
c-21.6758 14.291 -23.9863 20.4824 -32.084 25.2568c-12.4678 7.35254 -31.6377 5.87305 -43.8408 -2.45605c-6.0752 -18.3008 -43.7686 -21.2334 -61.1357 -4.73047c-1.61914 1.53809 -2.81348 0.682617 -2.66016 2.56934
c-18.5654 12.7764 -53.3408 -0.0947266 -63.168 -23.2393l-1.19141 -2.80664l-1.98633 0.764648l-38.2969 -54.2168zM37.3545 728.521h55.5146l17.1611 52.2256l17.1602 -52.2256h55.5156l-44.8672 -32.2959l17.1611 -52.2246l-44.9697 32.2959l-44.9707 -32.2959
l17.1611 52.2246zM271 608l-12 60c128.725 89.7881 355.203 55.3633 442.457 48.5605c0 -0.0107422 0.000976562 -0.0214844 0.000976562 -0.0322266c27.4463 0.582031 75.1855 -1.32129 107.268 -33.4033c40.1396 -40.1396 38.6152 -108.841 37.5254 -169.365
c-0.395508 -21.9258 -0.433594 -33.2402 -0.22168 -41.9463c26.3789 -43.8281 72.168 -89.959 89.3252 -129.607c6.95117 -16.0635 5.49219 -24.7637 2.64551 -40.2051l-12 -14l-79.501 -63.5771v-212.431c1.93945 -31.0869 1.82422 -79.2412 -27.416 -108.48
c-26.0322 -26.0322 -182.507 -12.0195 -220.584 -13.0049l-2.90137 0.0126953c-103.732 -7.2998 -296.108 50.6025 -326.603 92.1719c-18.5059 25.2275 -31.4014 41.2529 -57.9951 55.3086v70.0371c25.8174 -16.2627 49.624 -17.8066 70.1904 -60.6357
c44.2188 -92.082 349.455 -105.734 451.309 -108.438l-0.499023 -0.962891c50 12 34.1514 4.48145 42.5352 13.5361c19.1768 20.7119 3.97852 41.9688 5.50781 57.9648h-0.541992v2.14941c-0.253906 0.990234 -0.500977 1.94141 -0.738281 2.84863h0.738281v207.174v3.4873
v1.33887h1.58203l104 88h1.13281c4.9834 45.8955 -62.8379 92.1289 -94.2158 139.501l-3 4l-1 1c-2.02051 3.99219 0.0439453 4.02539 -2.08398 11.5605c-0.0371094 0.130859 -0.189453 0.24707 -0.174805 0.367188l0.258789 2.07227l0.0644531 1.49902
c0.00976562 0.226562 0.150391 3.89551 0.242188 6.24414c3.11426 79.1523 5.19727 173.389 -83.8154 173.771c-136.35 16.7461 -373.536 9.53418 -431.49 -46.5137z" />
  </g>

</svg>
