<?xml version="1.0" standalone="no"?>
<!DOCTYPE svg PUBLIC "-//W3C//DTD SVG 1.1//EN" "http://www.w3.org/Graphics/SVG/1.1/DTD/svg11.dtd" >
<svg xmlns="http://www.w3.org/2000/svg" xmlns:xlink="http://www.w3.org/1999/xlink" version="1.1" viewBox="-10 0 1010 1000">
  <g transform="matrix(1 0 0 -1 0 800)">
   <path fill="currentColor"
d="M318.821 444.827c1.27344 -22.626 -8.9541 -87.9463 -4.3125 -95.0469c0.219727 -0.129883 0.855469 -0.581055 0.939453 -1.4834c5.25488 -56.4961 50.6055 -110.598 68.1924 -128.184c3.70215 -3.70312 6.10352 -5.56055 6.10352 -5.56055l-1.86621 -0.453125
l-0.544922 -1.24902l3.00293 -1.67578l-11.6953 -7.79688c-0.775391 -0.517578 -1.83984 -0.413086 -2.49805 0.303711c-1.55957 1.70117 -3.13086 3.40332 -4.71289 5.11621c-24.1768 26.1729 -50.6416 54.915 -71.4434 122.713
c-6.90625 -32.5469 -26.6436 -67.1279 -44.5322 -89.8467c-10.624 -13.4922 -19.5996 -30.7578 -26.8867 -38.043c-0.700195 -0.702148 -1.80664 -0.750977 -2.56543 -0.150391c-7.8916 6.24707 -13.4121 10.6094 -13.5342 10.7314
c-0.694336 0.694336 -0.75 1.78906 -0.165039 2.54688c11.1914 14.5078 28.4229 38.5547 33.4072 45.1006c50.2734 66.0391 52.4707 153.04 52.0771 199.344c-0.00878906 1.0918 0.885742 1.97461 1.97656 1.9502l14.165 -0.313477
c1.27148 -0.0263672 4.80566 -0.584961 4.69727 -5.95898c-0.0224609 -1.16113 -0.125977 -6.33984 0.195312 -12.0439zM705.051 437.851c3.81836 -0.985352 5.8457 -3.98535 5.8457 -7.07812c0 -6.5918 -7.75684 -12.0186 -13.499 -5.44727
c-0.714844 0.817383 -1.4209 1.81348 -1.73145 3.07422c-0.746094 1.0625 -5.71191 5.94727 -14.2754 14.1895c-6.75195 -8.87793 -9.30957 -9.10156 -10.835 -9.10156c-3.55371 0 -7.81836 4.19629 -7.81836 7.95117c0 2.65234 2.14941 4.94629 6.39258 4.63965
c0.805664 0 4.53711 2.08203 3.6748 3.87109c-68.4072 69.6982 -68.4072 69.6982 -68.5938 69.9258c-0.119141 0.144531 -9.6416 12.4111 -9.6416 16.0928c0 1.74707 1.41992 3.03418 2.97168 3.03418c1.3457 0 2.42285 -0.605469 13.4521 -7.08008l0.0839844 -0.0849609
c58.1953 -57.5771 72.1123 -71.3457 72.8037 -71.3457c0.263672 0 0.854492 0.109375 2.14941 1.36328c2.52246 2.44922 0.621094 3.85352 2.01465 6.58887c1.1582 2.27637 4.97754 4.05762 9.0498 0.226562c0.813477 -0.763672 3.09375 -3.08105 2.93555 -6.26855
c-0.0458984 -0.923828 -0.242188 -3.45117 -9.11621 -10.2979c5.09375 -4.75098 6.77344 -6.375 10.6982 -11.1084c2.06152 -2.48535 2.51953 -2.9082 3.43848 -3.14453v0zM700.41 433.24c2.1748 -2.46094 0.787109 -4.40625 2.57324 -4.40625
c0.856445 0 1.72266 0.679688 1.72363 1.59668c-0.000976562 1.69727 -1.57812 0.700195 -4.29688 2.80957v0zM693.604 462.97c-0.00488281 -0.0244141 -0.0732422 -0.112305 -0.078125 -0.135742c0.0322266 0.0488281 0.0576172 0.0957031 0.078125 0.135742z
M679.26 449.943c0.515625 0.274414 1.75 0.734375 3.35449 -0.249023c2.625 -1.60742 10.5596 -10.5918 16.375 -15.1553c-2.28027 2.37402 -4.69238 6.12012 -10.5322 11.4375c-4.40918 4.01465 -5.44629 4.95996 -5.44629 6.56543
c0 0.616211 0.201172 1.13379 0.541992 1.60254c-0.949219 0.0224609 -1.96191 0.277344 -2.87598 0.941406c-1.86133 1.35449 -3.0459 2.22754 -45.6689 44.4209c-0.274414 0.274414 -22.4492 22.4502 -27.9141 26.9795c4.88086 -6.34473 13.709 -15.2246 37.8486 -39.3711
c14.0781 -14.083 18.9023 -18.9902 27.6992 -27.9844c3.30273 -3.37695 5.05859 -5.11133 5.73633 -6.30957c0.347656 -0.614258 0.782227 -1.60547 0.881836 -2.87793v0zM670.479 439.87c0.0234375 -0.0166016 0.0439453 -0.03125 0.0634766 -0.0419922
c-0.0078125 -0.00195312 -0.0576172 0.0419922 -0.0634766 0.0419922zM495.606 480.687c-0.984375 -3.81836 -3.98438 -5.84668 -7.07812 -5.84668c-6.5918 0 -12.0186 7.75781 -5.44727 13.5c0.818359 0.714844 1.81348 1.4209 3.0752 1.73145
c1.06152 0.746094 5.94629 5.71289 14.1875 14.2754c-8.87695 6.75293 -9.10156 9.30957 -9.10156 10.8359c0.000976562 3.55273 4.19727 7.81641 7.95312 7.81641c2.65137 0 4.94531 -2.14941 4.63867 -6.3916c-0.000976563 -0.805664 2.08203 -4.53711 3.87207 -3.67578
c69.6982 68.4082 69.6982 68.4082 69.9248 68.5947c0.144531 0.119141 12.4121 9.6416 16.0938 9.6416c1.74609 -0.000976562 3.03418 -1.41992 3.03418 -2.9707c0 -1.34668 -0.606445 -2.42383 -7.08105 -13.4521l-0.0830078 -0.0849609
c-57.5791 -58.1953 -71.3486 -72.1113 -71.3486 -72.8037c0 -0.263672 0.110352 -0.854492 1.36523 -2.14844c2.44824 -2.52344 3.85254 -0.62207 6.58789 -2.01465c2.27637 -1.1582 4.05762 -4.97852 0.227539 -9.05176
c-0.764648 -0.8125 -3.08203 -3.09375 -6.26855 -2.93457c-0.923828 0.0458984 -3.45215 0.243164 -10.2988 9.11621c-4.75098 -5.09277 -6.375 -6.77441 -11.1084 -10.6992c-2.48535 -2.06055 -2.90723 -2.51855 -3.14453 -3.4375v0zM490.997 485.326
c-2.46191 -2.17383 -4.40625 -0.786133 -4.40625 -2.57129c0 -0.856445 0.678711 -1.72266 1.59668 -1.72363c1.69727 0.000976562 0.699219 1.57715 2.80957 4.29492v0zM520.727 492.133c-0.0253906 0.00488281 -0.113281 0.0732422 -0.136719 0.078125
c0.0498047 -0.0322266 0.0957031 -0.0585938 0.136719 -0.078125zM507.699 506.478c0.275391 -0.515625 0.734375 -1.75 -0.249023 -3.35352c-1.60742 -2.62598 -10.5908 -10.5615 -15.1543 -16.376c2.37402 2.28125 6.11914 4.69336 11.4365 10.5322
c4.01562 4.40918 4.95996 5.44629 6.56445 5.44629c0.617188 0 1.13477 -0.201172 1.60352 -0.541992c0.0224609 0.948242 0.277344 1.96191 0.942383 2.87598c1.35449 1.86133 2.22754 3.0459 44.4209 45.6689c0.274414 0.273438 22.4492 22.4492 26.9785 27.9131
c-6.34473 -4.87891 -15.2246 -13.708 -39.3711 -37.8467c-14.083 -14.0801 -18.9902 -18.9033 -27.9844 -27.7002c-3.37695 -3.30371 -5.11035 -5.05859 -6.30957 -5.73633c-0.614258 -0.348633 -1.60547 -0.78125 -2.87793 -0.881836v0zM497.626 515.259
c-0.0166016 -0.0224609 -0.0302734 -0.0439453 -0.0419922 -0.0625c-0.000976563 0.00585938 0.0419922 0.0566406 0.0419922 0.0625zM561.854 107.001v23.832h35.8672v28.8496h-35.8672v23.833h35.8672v31.3066h20.7852v-31.3066h29.917v29.0215h20.7861v-29.0215h38.3418
v-23.833h-38.3418v-28.8496h38.3418v-23.832h-38.3418v-33.6016h-20.7861v33.6016h-29.917v-31.3164h-20.7852v31.3164h-35.8672zM633.328 242.122l-70.4121 127.467l14.6416 6.18457l56.2139 -96.5596l51.248 97.5078l17.4414 -7.0625zM648.424 159.683h-29.917v-28.8496
h29.917v28.8496zM48.3545 723.521h55.5146l17.1611 52.2256l17.1602 -52.2256h55.5156l-44.8672 -32.2959l17.1611 -52.2246l-44.9697 32.2959l-44.9707 -32.2959l17.1611 52.2246zM271 608l-12 60c128.725 89.7881 355.203 55.3633 442.457 48.5605
c0 -0.0107422 0.000976562 -0.0214844 0.000976562 -0.0322266c27.4463 0.582031 75.1855 -1.32129 107.268 -33.4033c40.1396 -40.1396 38.6152 -108.841 37.5254 -169.365c-0.395508 -21.9258 -0.433594 -33.2402 -0.22168 -41.9463
c26.3789 -43.8281 72.168 -89.959 89.3252 -129.607c6.95117 -16.0635 5.49219 -24.7637 2.64551 -40.2051l-12 -14l-79.501 -63.5771v-212.431c1.93945 -31.0869 1.82422 -79.2412 -27.416 -108.48c-26.0322 -26.0322 -182.507 -12.0195 -220.584 -13.0049
l-2.90137 0.0126953c-103.732 -7.2998 -296.108 50.6025 -326.603 92.1719c-18.5059 25.2275 -31.4014 41.2529 -57.9951 55.3086v70.0371c25.8174 -16.2627 49.624 -17.8066 70.1904 -60.6357c44.2188 -92.082 349.455 -105.734 451.309 -108.438l-0.499023 -0.962891
c50 12 34.1514 4.48145 42.5352 13.5361c19.1768 20.7119 3.97852 41.9688 5.50781 57.9648h-0.541992v2.14941c-0.253906 0.990234 -0.500977 1.94141 -0.738281 2.84863h0.738281v207.174v3.4873v1.33887h1.58203l104 88h1.13281
c4.9834 45.8955 -62.8379 92.1289 -94.2158 139.501l-3 4l-1 1c-2.02051 3.99219 0.0439453 4.02539 -2.08398 11.5605c-0.0371094 0.130859 -0.189453 0.24707 -0.174805 0.367188l0.258789 2.07227l0.0644531 1.49902
c0.00976562 0.226562 0.150391 3.89551 0.242188 6.24414c3.11426 79.1523 5.19727 173.389 -83.8154 173.771c-136.35 16.7461 -373.536 9.53418 -431.49 -46.5137zM48.3545 723.521h55.5146l17.1611 52.2256l17.1602 -52.2256h55.5156l-44.8672 -32.2959l17.1611 -52.2246
l-44.9697 32.2959l-44.9707 -32.2959l17.1611 52.2246zM271 608l-12 60c128.725 89.7881 355.203 55.3633 442.457 48.5605c0 -0.0107422 0.000976562 -0.0214844 0.000976562 -0.0322266c27.4463 0.582031 75.1855 -1.32129 107.268 -33.4033
c40.1396 -40.1396 38.6152 -108.841 37.5254 -169.365c-0.395508 -21.9258 -0.433594 -33.2402 -0.22168 -41.9463c26.3789 -43.8281 72.168 -89.959 89.3252 -129.607c6.95117 -16.0635 5.49219 -24.7637 2.64551 -40.2051l-12 -14l-79.501 -63.5771v-212.431
c1.93945 -31.0869 1.82422 -79.2412 -27.416 -108.48c-26.0322 -26.0322 -182.507 -12.0195 -220.584 -13.0049l-2.90137 0.0126953c-103.732 -7.2998 -296.108 50.6025 -326.603 92.1719c-18.5059 25.2275 -31.4014 41.2529 -57.9951 55.3086v70.0371
c25.8174 -16.2627 49.624 -17.8066 70.1904 -60.6357c44.2188 -92.082 349.455 -105.734 451.309 -108.438l-0.499023 -0.962891c50 12 34.1514 4.48145 42.5352 13.5361c19.1768 20.7119 3.97852 41.9688 5.50781 57.9648h-0.541992v2.14941
c-0.253906 0.990234 -0.500977 1.94141 -0.738281 2.84863h0.738281v207.174v3.4873v1.33887h1.58203l104 88h1.13281c4.9834 45.8955 -62.8379 92.1289 -94.2158 139.501l-3 4l-1 1c-2.02051 3.99219 0.0439453 4.02539 -2.08398 11.5605
c-0.0371094 0.130859 -0.189453 0.24707 -0.174805 0.367188l0.258789 2.07227l0.0644531 1.49902c0.00976562 0.226562 0.150391 3.89551 0.242188 6.24414c3.11426 79.1523 5.19727 173.389 -83.8154 173.771c-136.35 16.7461 -373.536 9.53418 -431.49 -46.5137z" />
  </g>

</svg>
