<?xml version="1.0" standalone="no"?>
<!DOCTYPE svg PUBLIC "-//W3C//DTD SVG 1.1//EN" "http://www.w3.org/Graphics/SVG/1.1/DTD/svg11.dtd" >
<svg xmlns="http://www.w3.org/2000/svg" xmlns:xlink="http://www.w3.org/1999/xlink" version="1.1" viewBox="-10 0 1044 1000">
  <g transform="matrix(1 0 0 -1 0 800)">
   <path fill="currentColor"
d="M803.344 683.279c29.9229 0 74.2539 -16.3018 98.249 -37.6875l0.217773 -0.232422c20.8086 -22.1943 37.9951 -65.4121 37.9951 -95.7109c0 -3.04883 -0.180664 -7.09863 -0.230469 -8.23828c0 -0.0498047 -0.00585937 -0.0927734 -0.00585937 -0.12793
c-0.0283203 -25.4268 -7.43262 -76.8662 -71.7305 -139.203c-123.819 -120.045 -191.653 -185.268 -205.107 -197.492c-1.77637 -1.61426 -1.46777 -1.99219 -4.0293 -2.97559l-2.6748 -1.12402c-3.74902 1.65137 -4.09961 1.80566 -5.2207 3.01172
c-16.29 17.5137 -208.271 200.692 -210.337 202.759c-21.9229 21.9229 -40.6289 50.9756 -43.4287 55.79c-5.59961 9.69824 -13.0703 26.6504 -16.4521 37.3223c-5.68164 17.9258 -7.40137 35.2324 -7.47754 49.5049l-0.00585938 1.22949
c3.36426 9.4873 9.12012 35.4512 19.002 61.0625c2.36133 6.12109 10.7666 26.8896 18.7119 34.0488c23.1143 20.8252 67.6328 38.0186 98.6104 38.0186c14.542 0 29.002 -2.0752 45.7373 -7.59863c27.5586 -9.09473 61.7051 -31.582 93.2891 -63.166
c5.63281 -5.63184 6.42285 -6.08984 7.10059 -6.08984c0.131836 0 0.258789 0.0175781 0.416016 0.0175781c1.34473 0 1.34473 0 13.998 12.6533c5.96777 5.96777 44.8408 43.71 87.04 57.6172c18.3262 6.23926 40.5273 6.61133 46.333 6.61133zM966.18 548.936v0.347656
c0 42.7344 -24.5264 94.0879 -47.1074 116.67c-15.0352 15.0342 -68.5576 44.6582 -116.244 44.6582c-28.2744 0 -48.6895 -6.28809 -55.708 -8.79395c-12.7812 -4.28418 -31.5049 -13.377 -42.752 -20.7627c0.0136719 0.00976562 0.0273438 0.0185547 0.0419922 0.0283203
c-0.0146484 -0.00976562 -0.0283203 -0.0195312 -0.0820312 -0.0546875c0.0126953 0.00878906 0.0263672 0.0175781 0.0400391 0.0263672v0c-19.0625 -12.9229 -29.1738 -19.7783 -49.3916 -37.748c-70.0566 62.6787 -114.21 66.4873 -146.885 66.4873
c-43.9346 0 -97.6416 -26.0156 -117.887 -46.2598c-14.9277 -14.9287 -44.4541 -66.5908 -44.4541 -113.557c0 -28.7744 4.39453 -48.1572 7.9873 -59.2754c3.98242 -12.5508 12.293 -31.3584 18.8887 -42.7598c1.82617 -3.15527 4.80664 -7.30566 20.5977 -28.3799
l0.164062 -1.36523c-0.0146484 0.0595703 -0.0615234 0.0996094 -0.0615234 0.0996094c0.00683594 -0.0214844 0.0292969 -0.0664062 0.0654297 -0.133789c4.68164 -8.64941 24.4424 -28.8906 31.623 -35.8438l206.697 -200.161
c2.00586 -1.94531 10.791 -10.0557 23.4277 -10.0557c7.20996 0 15.6738 2.64062 24.8477 10.5723c1.83691 1.58789 16.4004 14.1758 206.012 199.325c80.0547 78.1699 80.1797 138.682 80.1797 166.936zM561.569 619.435l88.7041 -88.2002l92.1582 88.1523l28.501 -24.6514
l-91.9805 -92.8936l100.523 -92.4004l-27.6582 -23.0391l-99.2656 91.3779l-91.1035 -92.7266l-26.043 28.4775l89.0039 90.5127l-87.8926 91.4277zM344.085 64.3486l-0.0107422 -0.413086c0.00488281 0.137695 0.0107422 0.275391 0.0107422 0.413086zM271.031 296.462
l0.101562 -0.120117c-0.0332031 0.0400391 -0.101562 0.120117 -0.101562 0.120117zM169.251 287.102l0.106445 0.161133c-0.0175781 -0.0263672 -0.0351562 -0.0537109 -0.106445 -0.161133zM103.441 71.999l0.0292969 0.191406
c-0.00976562 -0.0644531 -0.0292969 -0.12793 -0.0292969 -0.191406zM109.569 47.2275l-0.137695 0.149414zM114.998 43.1074l-0.676758 0.201172c0.226562 -0.0712891 0.452148 -0.138672 0.676758 -0.201172zM118.331 42.4873l-0.143555 0.0136719
c0.0263672 0 0.0527344 -0.0136719 0.143555 -0.0136719zM229.16 319.14c-55.3799 5.01758 -78.1494 -54.707 -99.5723 -139.86c-16.4873 -67.8789 -16.4873 -67.8789 -22.4551 -90.2598l0.0322266 0.131836
c-0.0107422 -0.0439453 -0.0322266 -0.131836 -0.0322266 -0.131836c-4.21094 -17.3311 -7.69824 -31.6787 3 -42.376c3.92773 -3.92871 5.37109 -4.19629 16.543 -4.68652c198.349 0.0859375 198.349 0.0859375 203.843 0.814453
c4.74219 0.59082 16.6768 11.6309 12.7158 30.4375c-0.307617 1.55273 -24.6455 107.782 -38.666 153.497c-24.6113 79.3652 -53.9336 90.9482 -75.4082 92.4336zM325.769 0.243164c-15.4131 -0.31543 -197.771 -0.307617 -199.769 -0.243164
c-12.0547 0.387695 -28.8174 0.927734 -43.1514 16.8057c-4.18652 4.63867 -23.6533 28.3613 -17.4561 62.29c2.28516 12.5059 5.35645 25.1025 11.0791 46.0693c24.5156 100.855 31.1611 128.193 49.5225 165.82c15.0205 30.7305 48.1504 77.0049 109.506 69.6689
c72.7939 -8.06836 99.9287 -91.6641 119.372 -170c6.83398 -28.4043 13.8115 -56.7539 20.9688 -85.1816c6.27051 -26.1201 12.3398 -51.3984 -3.19531 -77.0996c-7.72656 -12.7832 -22.2266 -28.4004 -46.877 -28.1299z" />
  </g>

</svg>
