<?xml version="1.0" standalone="no"?>
<!DOCTYPE svg PUBLIC "-//W3C//DTD SVG 1.1//EN" "http://www.w3.org/Graphics/SVG/1.1/DTD/svg11.dtd" >
<svg xmlns="http://www.w3.org/2000/svg" xmlns:xlink="http://www.w3.org/1999/xlink" version="1.1" viewBox="-10 0 941 1000">
  <g transform="matrix(1 0 0 -1 0 800)">
   <path fill="currentColor"
d="M1373.38 475zM424 300zM291.797 117.317c-3.72949 -1.07812 -3.72949 -1.07812 -204.461 -1.16406v-0.886719c-13.5039 1.73242 -13.5039 1.73242 -15.2109 2.38086l-1.23438 -0.813477c-1.55762 2.45215 -4.68359 3.33691 -7.4541 4.5752l0.735352 2.54492
l-6.29297 6.66895l1.45703 1.23242c-1.59473 3.93359 -2.21582 8.07617 -2.21582 12.3467c0 7.82812 2.6875 19.1289 4.34863 25.3594c5.94727 22.3037 5.94141 22.2812 22.4229 90.1377c20.0195 79.5762 42.2568 143.801 99.5254 143.801
c42.6904 0 67.207 -38.4873 85.0811 -96.1279c14.0986 -45.9678 38.1934 -151.127 38.7793 -153.933c0.125 -0.59375 0.125 -0.59375 1.44727 -0.670898c-0.394531 -6.36523 -0.773438 -12.7461 -1.12793 -19.1523l-1.29883 -0.0175781
c-1.6377 -4.68848 -6.58691 -13.9941 -14.501 -16.2812zM28.3428 145.154c0 -3.31934 0.609375 -29.1367 19.1143 -47.6426c12.3584 -12.3584 26.0879 -12.9414 37.6953 -13.3154c0.241211 0 0.709961 -0.000976562 1.39551 -0.000976562
c5.12891 -0.00195312 22.4287 -0.00683594 44.8389 -0.00683594c55.5889 0 142.625 0.0341797 153.359 0.245117h0.295898c0.307617 -0.00292969 0.34082 -0.000976562 0.509766 -0.000976562c14.5908 0 25.0635 6.09961 32.6426 13.6777
c13.9121 13.9131 18.2773 29.3789 18.2773 45.1279c0 13.458 -3.1875 27.123 -6.32715 40.2021c-2.93457 11.6562 -7.4502 29.6182 -15.3203 61.8486c87.6299 134.716 133.927 187.418 164.896 187.418c54.625 0 35.5146 -166.26 122.678 -203.213l7.81348 -3.31348
c-2.35742 -9.68164 -4.70605 -19.3721 -7.06934 -29.0488c-11.1172 -40.7373 -12.084 -50.5684 -12.084 -57.8154c0 -3.31934 0.609375 -29.1367 19.1143 -47.6426c12.3584 -12.3584 26.0879 -12.9414 37.6953 -13.3154
c0.241211 0 0.709961 -0.000976562 1.39551 -0.000976562c5.12891 -0.00195312 22.4287 -0.00683594 44.8389 -0.00683594c55.5889 0 142.625 0.0341797 153.359 0.245117h0.295898c0.307617 -0.00292969 0.34082 -0.000976562 0.509766 -0.000976562
c14.5908 0 25.0635 6.09961 32.6426 13.6777c13.9121 13.9131 18.2773 29.3789 18.2773 45.1279c0 13.458 -3.1875 27.123 -6.32715 40.2021c-7.15625 28.4268 -14.1475 56.8291 -20.9805 85.2324c-22.6875 91.4043 -51.8457 166.955 -127.332 166.955
c-24.458 0 -64.0869 -10.1416 -92.1943 -67.6455c-9.49609 -19.4609 -14.792 -30.3125 -30.2832 -88.1035c-16.8623 9.85352 -19.3701 11.3193 -26.2168 18.165c-55.6377 55.6377 -27.7432 188.795 -123.854 188.795c-51.0186 0 -73.3184 -38.8896 -102.886 -93.2803
c-23.0498 -42.4014 -29.8584 -54.9258 -64.4883 -100.181c-19.1934 65.5244 -43.9512 148.088 -122.794 148.088c-24.458 0 -64.0869 -10.1416 -92.1943 -67.6455c-17.7715 -36.4189 -23.9902 -61.2725 -49.1738 -164.878
c-10.8945 -39.9209 -12.1211 -50.2871 -12.1211 -57.9502zM619.836 138.364c0 7.82812 2.6875 19.1289 4.34863 25.3594c5.94727 22.3037 5.94141 22.2812 22.4229 90.1377c20.0195 79.5762 42.2568 143.801 99.5254 143.801c42.6904 0 67.207 -38.4873 85.0811 -96.1279
c14.0986 -45.9678 38.1934 -151.127 38.7793 -153.933c0.125 -0.59375 0.125 -0.59375 1.44727 -0.670898c-0.394531 -6.36523 -0.773438 -12.7461 -1.12793 -19.1523l-1.29883 -0.0175781c-3.65234 -10.457 -11.0703 -15.9395 -15.9658 -16.5879
c-6.49121 -0.861328 -6.2832 -0.772461 -202.996 -0.857422v-0.886719c-13.5039 1.73242 -13.5039 1.73242 -15.2109 2.38086l-1.23438 -0.813477c-1.55762 2.45215 -4.68359 3.33691 -7.4541 4.5752l0.735352 2.54492l-6.29297 6.66895l1.45703 1.23242
c-1.59473 3.93359 -2.21582 8.07617 -2.21582 12.3467z" />
  </g>

</svg>
