<?xml version="1.0" standalone="no"?>
<!DOCTYPE svg PUBLIC "-//W3C//DTD SVG 1.1//EN" "http://www.w3.org/Graphics/SVG/1.1/DTD/svg11.dtd" >
<svg xmlns="http://www.w3.org/2000/svg" xmlns:xlink="http://www.w3.org/1999/xlink" version="1.1" viewBox="-10 0 1210 1000">
  <g transform="matrix(1 0 0 -1 0 800)">
   <path fill="currentColor"
d="M828.399 483.872c0 9.49878 0.360099 25.4826 0.360099 28.905l-0.318652 61.3747l-8.69455 54.78l-24.0577 41.7601l-29.8355 19.1251l-33.9409 8.02542l-47.9505 1.85133v0.765382l-107.704 8.96128l-161.614 -4.8437l-135.511 -48.0118l4.97421 -24.8711
l90.1513 34.2037l168.519 13.9909l163.859 -8.05849l72.0585 -32.0852l24.6852 -76.5829c-11.2968 -92.7231 -11.5388 -94.7093 -10.6225 -98.1968c0.272553 -1.03738 0.408327 -1.98777 0.495372 -2.92219c0.487753 -0.641757 1.13403 -1.58506 1.4862 -2.05622
l30.4464 -40.7334l38.0432 -60.0682l23.93 -33.502l-96.7113 -80.2498l-3.19974 -219.288c0.962733 -7.56244 2.78458 -22.0112 5.01798 -45.877c-0.12894 -0.269919 -9.65147 -20.9678 -12.8349 -27.02c-1.80565 -3.43278 -3.36365 -6.39475 -8.94453 -11.1259
c-28.726 -6.87192 -37.6748 -9.01268 -53.7943 -9.01268c-3.38415 0 -6.77838 0.14333 -10.1737 0.446144l-127.95 -3.2205l-189.706 31.9736l-119.91 72.0259l-21.8729 31.5454c-0.18608 0.126152 -14.9542 10.3475 -18.5829 12.6523v-31.4635
c5.41685 -3.87145 13.5068 -7.36272 24.4398 -17.2503c7.32645 -6.62591 2.09556 -4.45645 10.6241 -11.9264c1.03002 -0.902171 1.03002 -0.902171 17.2005 -21.8062l70.2643 -41.1391l123.979 -35.7692l40.8353 -3.74581
c52.8258 -4.90757 59.0669 -6.73248 83.0467 -7.42728l68.08 -1.97257l89.7606 0.254271l51.1066 12.4914l15.1376 25.2075l6.27671 34.16l-0.268638 82.9487l0.0291888 84.2282l-0.00582149 87.5189l84.7837 67.8016l7.68593 8.96692l1.11464 7.19504
c0.44913 7.61262 -1.52476 12.8022 -3.31214 18.1783l-23.3304 38.8443l-33.0243 43.448l-34.3179 48.9016c-0.202711 16.1296 -0.202711 16.1296 -0.202711 17.6951zM33.2949 712.521h55.5146l17.1611 52.2256l17.1602 -52.2256h55.5156l-44.8672 -32.2959
l17.1611 -52.2246l-44.9697 32.2959l-44.9707 -32.2959l17.1611 52.2246zM614.137 399.021c0 4.75 0.179688 12.7412 0.179688 14.4531l-0.158203 30.6865l-4.34766 27.3906l-12.0293 20.8799l-14.918 9.5625l-16.9707 4.0127
c-7.99121 0.308594 -15.9824 0.617188 -23.9746 0.925781v0.382812l-53.8516 4.48047l-80.8066 -2.42188l-67.7559 -24.0059l2.48633 -12.4355l45.0762 17.1016l84.2598 6.99609l81.9297 -4.0293l36.0293 -16.043l12.3418 -38.291
c-5.64844 -46.3623 -5.76953 -47.3555 -5.31055 -49.0986c0.135742 -0.518555 0.203125 -0.994141 0.24707 -1.46094c0.244141 -0.321289 0.567383 -0.792969 0.743164 -1.02832l15.2227 -20.3672l19.0215 -30.0342c3.98926 -5.58301 7.97754 -11.167 11.9658 -16.751
l-48.3564 -40.125l-1.59961 -109.644c0.482422 -3.78125 1.39258 -11.0059 2.50977 -22.9385c-0.0644531 -0.134766 -4.82617 -10.4834 -6.41797 -13.5098c-0.902344 -1.7168 -1.68164 -3.19727 -4.47266 -5.56348c-14.3623 -3.43555 -18.8369 -4.50586 -26.8965 -4.50586
c-1.69238 0 -3.38867 0.0712891 -5.08691 0.222656l-63.9756 -1.61035l-94.8525 15.9873l-59.9541 36.0127c-3.64648 5.25781 -7.29102 10.5156 -10.9375 15.7725c-0.0927734 0.0634766 -7.47656 5.17383 -9.29102 6.32617v-15.7314
c2.70898 -1.93555 6.75391 -3.68164 12.2197 -8.625c3.66309 -3.31348 1.04785 -2.22852 5.31152 -5.96289c0.515625 -0.451172 0.515625 -0.451172 8.60156 -10.9033l35.1309 -20.5693l61.9902 -17.8848l20.418 -1.87305
c26.4121 -2.4541 29.5332 -3.36621 41.5234 -3.71387l34.0391 -0.986328l44.8809 0.126953l25.5527 6.24609l7.56934 12.6035l3.1377 17.0801l-0.133789 41.4746l0.0146484 42.1143l-0.00292969 43.7588l42.3916 33.9014l3.84375 4.4834l0.556641 3.59766
c0.224609 3.80566 -0.761719 6.40039 -1.65625 9.08887l-11.665 19.4219l-16.5127 21.7246l-17.1582 24.4502c-0.101562 8.06543 -0.101562 8.06543 -0.101562 8.84766zM271.214 401.542c10.4736 0 25.9883 -5.70605 34.3867 -13.1904l0.0761719 -0.0810547
c7.2832 -7.76855 13.2988 -22.8945 13.2988 -33.499c0 -1.06738 -0.0634766 -2.48438 -0.0800781 -2.88379c0 -0.0175781 -0.00292969 -0.03125 -0.00292969 -0.0449219c-0.00976562 -8.89844 -2.60156 -26.9033 -25.1055 -48.7197
c-43.3369 -42.0166 -67.0791 -64.8447 -71.7871 -69.123c-0.62207 -0.56543 -0.514648 -0.697266 -1.41016 -1.04102l-0.936523 -0.393555c-1.3125 0.578125 -1.43555 0.631836 -1.82715 1.05371c-5.70117 6.12988 -72.8945 70.2422 -73.6182 70.9658
c-7.67285 7.67285 -14.2197 17.8408 -15.2002 19.5264c-1.95996 3.39453 -4.57422 9.32715 -5.75781 13.0625c-1.98828 6.27441 -2.59082 12.3311 -2.61719 17.3271l-0.00292969 0.429688c1.17773 3.32129 3.19238 12.4092 6.65137 21.3721
c0.827148 2.14258 3.76855 9.41211 6.54883 11.917c8.08984 7.28906 23.6719 13.3066 34.5137 13.3066c5.08984 0 10.1504 -0.726562 16.0088 -2.65918c9.64551 -3.18359 21.5967 -11.0537 32.6504 -22.1084c1.97168 -1.9707 2.24805 -2.13184 2.48633 -2.13184
c0.0458984 0 0.0898438 0.00683594 0.144531 0.00683594c0.470703 0 0.470703 0 4.89941 4.42871c2.08887 2.08789 15.6943 15.2988 30.4639 20.166c6.41504 2.18359 14.1846 2.31348 16.2168 2.31348zM328.206 354.522v0.121094c0 14.957 -8.58398 32.9307 -16.4873 40.834
c-5.2627 5.2627 -23.9951 15.6309 -40.6855 15.6309c-9.89551 0 -17.041 -2.20117 -19.4971 -3.07812c-4.47363 -1.49902 -11.0273 -4.68164 -14.9639 -7.2666c0.00488281 0.00292969 0.00976562 0.00585938 0.0146484 0.00976562
c-0.00488281 -0.00390625 -0.00976562 -0.00683594 -0.0283203 -0.0195312c0.00488281 0.00292969 0.00878906 0.00683594 0.0136719 0.00976562v0c-6.67188 -4.52344 -10.2109 -6.92285 -17.2861 -13.2119c-24.5205 21.9375 -39.9736 23.2705 -51.4102 23.2705
c-15.377 0 -34.1748 -9.10449 -41.2607 -16.1914c-5.22461 -5.22461 -15.5586 -23.3057 -15.5586 -39.7441c0 -10.0713 1.53809 -16.8555 2.79492 -20.7471c1.39453 -4.39258 4.30273 -10.9746 6.61133 -14.9648c0.638672 -1.10547 1.68262 -2.55762 7.20898 -9.93359
l0.0576172 -0.477539c-0.00488281 0.0205078 -0.0214844 0.0351562 -0.0214844 0.0351562c0.00195313 -0.0078125 0.0107422 -0.0234375 0.0224609 -0.0478516c1.63867 -3.02734 8.55566 -10.1113 11.0684 -12.5449l72.3438 -70.0557
c0.702148 -0.681641 3.77832 -3.52051 8.2002 -3.52051c2.52344 0 5.48535 0.924805 8.69629 3.7002c0.643555 0.555664 5.74023 4.96289 72.1055 69.7646c28.0176 27.3594 28.0615 48.5381 28.0615 58.4277z" />
  </g>

</svg>
