<?xml version="1.0" standalone="no"?>
<!DOCTYPE svg PUBLIC "-//W3C//DTD SVG 1.1//EN" "http://www.w3.org/Graphics/SVG/1.1/DTD/svg11.dtd" >
<svg xmlns="http://www.w3.org/2000/svg" xmlns:xlink="http://www.w3.org/1999/xlink" version="1.1" viewBox="-10 0 1192 1000">
  <g transform="matrix(1 0 0 -1 0 800)">
   <path fill="currentColor"
d="M1007.67 487.585c0 9.49902 0.360352 25.4834 0.360352 28.9053l-0.319336 61.375l-8.69434 54.7793l-24.0576 41.7607l-29.835 19.125l-33.9414 8.02539l-47.9502 1.85156v0.764648l-107.704 8.96191l-161.614 -4.84375l-135.511 -48.0117l4.97363 -24.8711
l90.1514 34.2031l168.52 13.9912l163.859 -8.05859l72.0586 -32.085l24.6846 -76.583c-12.0205 -98.6621 -12.0205 -98.6621 -8.64062 -103.175l30.4463 -40.7334l38.043 -60.0684c7.97656 -11.168 15.9531 -22.335 23.9307 -33.502l-96.7119 -80.25l-3.19922 -219.288
c0.962891 -7.5625 2.78418 -22.0107 5.01758 -45.877c-15.8331 -33.1055 -15.8331 -33.1055 -21.7793 -38.1455c-28.7256 -6.87207 -37.6748 -9.0127 -53.7939 -9.0127c-3.38477 0 -6.77832 0.142578 -10.1738 0.445312l-127.95 -3.21973l-189.706 31.9736l-119.91 72.0254
c-7.29102 10.5156 -14.582 21.0303 -21.8721 31.5459c-0.186523 0.125977 -14.9551 10.3467 -18.583 12.6523v-31.4639c5.41699 -3.87109 13.5068 -7.3623 24.4395 -17.25c0.324307 -0.293311 6.03728 -5.56783 27.8242 -33.7324l70.2646 -41.1396l123.979 -35.7695
l40.8359 -3.74512c52.8252 -4.9082 59.0664 -6.73242 83.0469 -7.42773l68.0791 -1.97266l89.7607 0.254883l51.1064 12.4912l15.1377 25.207l6.27734 34.1602l-0.268555 82.9492l0.0292969 84.2275l-0.00585937 87.5195l84.7832 67.8018l7.68555 8.9668
c1.77512 11.4512 1.98433 12.8008 -2.19727 25.373l-23.3301 38.8447c-23.3122 29.9183 -45.6513 60.8096 -67.3418 92.3496c-0.203125 16.1289 -0.203125 16.1289 -0.203125 17.6943zM212.568 716.233h55.5146l17.1611 52.2256l17.1602 -52.2256h55.5156l-44.8672 -32.2959
l17.1611 -52.2246l-44.9697 32.2959l-44.9707 -32.2959l17.1611 52.2246zM793.41 402.734c0 4.75 0.179688 12.7412 0.179688 14.4531l-0.158203 30.6865l-4.34766 27.3906l-12.0293 20.8799l-14.918 9.5625l-16.9707 4.0127
c-7.99121 0.308594 -15.9824 0.617188 -23.9746 0.925781v0.382812l-53.8516 4.48047l-80.8066 -2.42188l-67.7559 -24.0059l2.48633 -12.4355l45.0762 17.1016l84.2598 6.99609l81.9297 -4.0293l36.0293 -16.043l12.3418 -38.291
c-6.00954 -49.3262 -6.00954 -49.3262 -4.32031 -51.5879l15.2227 -20.3672l19.0215 -30.0342c3.98926 -5.58301 7.97754 -11.167 11.9658 -16.751l-48.3564 -40.125l-1.59961 -109.644c0.482422 -3.78125 1.39258 -11.0059 2.50977 -22.9385
c-7.91578 -16.5512 -7.91578 -16.5512 -10.8906 -19.0732c-14.3623 -3.43555 -18.8369 -4.50586 -26.8965 -4.50586c-1.69238 0 -3.38867 0.0712891 -5.08691 0.222656l-63.9756 -1.61035l-94.8525 15.9873l-59.9541 36.0127
c-11.4672 16.5344 -11.4672 16.5344 -20.2285 22.0986v-15.7314c2.70898 -1.93555 6.75391 -3.68164 12.2197 -8.625c0.162147 -0.146672 3.02402 -2.79065 13.9131 -16.8662l35.1309 -20.5693l61.9902 -17.8848l20.418 -1.87305
c26.4121 -2.4541 29.5332 -3.36621 41.5234 -3.71387l34.0391 -0.986328l44.8809 0.126953l25.5527 6.24609l7.56934 12.6035l3.1377 17.0801l-0.133789 41.4746l0.0146484 42.1143l-0.00292969 43.7588l42.3916 33.9014l3.84375 4.4834
c0.886081 5.72688 0.99082 6.40383 -1.09961 12.6865l-11.665 19.4219c-11.6559 14.9593 -22.8256 30.4049 -33.6709 46.1748c-0.101562 8.06543 -0.101562 8.06543 -0.101562 8.84766zM398.907 378.347c3.22426 0 19.7689 26.9082 51.5801 26.9082
c13.9625 0 30.5053 -9.06023 34.4629 -13.2715c7.2832 -7.76855 13.2988 -22.8945 13.2988 -33.499c0 -8.06815 0 -27.2295 -25.1885 -51.6484c-57.8553 -56.0926 -71.7351 -69.5496 -74.1338 -70.5576c-1.04216 0.459048 -74.7078 71.282 -75.4453 72.0195
c-11.9634 11.9634 -23.4643 28.9111 -23.5752 49.916l-0.00292969 0.429688c11.1491 31.4411 11.1491 31.4411 13.2002 33.2891c8.08984 7.28906 23.6719 13.3066 34.5137 13.3066c27.6632 0 50.5676 -26.8994 51.1455 -26.8994
c0.0458984 0 0.0898438 0.00683594 0.144531 0.00683594zM290.33 358.6c0 -23.4694 8.43284 -34.7246 16.6152 -45.6455c0.295507 -2.4492 11.0038 -12.9159 11.127 -13.0352l72.3438 -70.0557c0.702148 -0.681641 3.77832 -3.52051 8.2002 -3.52051
c5.56442 0 5.56442 0 80.8018 73.4648c28.0176 27.3594 28.0615 48.5381 28.0615 58.4277v0.121094c0 14.957 -8.58398 32.9307 -16.4873 40.834c-5.2627 5.2627 -23.9951 15.6309 -40.6855 15.6309c-14.1328 0 -29.4428 -3.73066 -51.7471 -23.5566
c-24.5205 21.9375 -39.9736 23.2705 -51.4102 23.2705c-15.377 0 -34.1748 -9.10449 -41.2607 -16.1914c-5.22461 -5.22461 -15.5586 -23.3057 -15.5586 -39.7441zM113.656 228.155v21.3877h32.1885v25.8916h-32.1885v21.3877h32.1885v28.0957h18.6533v-28.0957h26.8486
v26.0449h18.6533v-26.0449h34.4102v-21.3877h-34.4102v-25.8916h34.4102v-21.3877h-34.4102v-30.1553h-18.6533v30.1553h-26.8486v-28.1045h-18.6533v28.1045h-32.1885zM177.799 349.419l-63.1895 114.393l13.1396 5.55078l50.4482 -86.6562l45.9922 87.5078
l15.6523 -6.33887zM191.347 275.435h-26.8486v-25.8916h26.8486v25.8916z" />
  </g>

</svg>
