<?xml version="1.0" standalone="no"?>
<!DOCTYPE svg PUBLIC "-//W3C//DTD SVG 1.1//EN" "http://www.w3.org/Graphics/SVG/1.1/DTD/svg11.dtd" >
<svg xmlns="http://www.w3.org/2000/svg" xmlns:xlink="http://www.w3.org/1999/xlink" version="1.1" viewBox="-10 0 1014 1000">
  <g transform="matrix(1 0 0 -1 0 800)">
   <path fill="currentColor"
d="M731.511 730.666c0 15.0049 13.4346 27.6992 31.0049 27.6992c17.5693 0 31.0068 -12.6943 31.0068 -27.6992c0 -15.0039 -13.4375 -27.6992 -31.0068 -27.6992c-17.5703 0 -31.0049 12.6953 -31.0049 27.6992zM745.7 347.085zM801.014 601.606l0.0410156 -0.0478516
c-0.0136719 0.015625 -0.0410156 0.0478516 -0.0410156 0.0478516zM643.931 402.453l0.0126953 0.0791016c-0.00488281 -0.0263672 -0.0126953 -0.0527344 -0.0126953 -0.0791016zM657.774 370.588l-0.267578 0.0830078
c0.0888672 -0.0292969 0.177734 -0.0566406 0.267578 -0.0830078zM662.241 369.703l-0.0585938 0.00488281c0.00976562 0 0.0205078 -0.00488281 0.0585938 -0.00488281zM833.498 344.367c-89.9072 0.31543 -163.771 0.000976562 -163.785 0.000976562
c-10.1279 0.327148 -22.6934 0.732422 -33.54 12.748c-17.9854 19.9248 -14.8203 44.1172 -13.8447 49.4541c1.98145 10.8486 5.08594 21.7432 9.60254 39.8945c18.9238 76.0527 21.1406 86.9668 29.749 112.098c19.6182 57.0352 43.3799 76.293 64.3506 84.8311
c12.8359 4.79004 54.5059 16.0977 88.9697 -22.3936c17.751 -20.8428 32.1172 -49.0645 49.0117 -117.138c5.98438 -24.874 12.0957 -49.7002 18.3467 -74.5312c1.59277 -6.63379 3.05469 -13.291 4.38965 -20.0176c6.58301 -32.4062 -12.2188 -65.1279 -42.4561 -64.7275z
M650.654 375.872c0.0175781 -0.015625 0.0380859 -0.0292969 0.0380859 -0.0449219c5.54004 -6.02148 9.2168 -6.17969 19.29 -6.61523c0 0 167.471 0.0722656 167.545 0.0722656c3.92285 -0.0556641 7.83008 0.173828 11.7314 0.691406
c8.08691 1.00977 20.2148 14.4736 16.1631 33.6816c-1.87305 9.43164 -1.87305 9.43164 -9.83203 41.3916c-19.7842 81.2559 -24.292 99.7695 -37.7939 129.352c-2.47461 5.30469 -10.4189 21.2451 -21.2471 32.0742c-10.5977 10.5967 -22.5703 16.1768 -36.4473 17.1367
c-17.2646 1.52637 -48.8545 -0.881836 -72.2422 -58.8555c-9.15527 -23.0703 -14.7705 -43.3535 -20.9561 -67.9971c-14.4199 -59.3652 -14.4199 -59.3652 -19.6436 -78.957l0.0126953 0.0527344c-0.00390625 -0.0175781 -0.0126953 -0.0527344 -0.0126953 -0.0527344
c-4.11621 -16.9248 -7.16699 -29.4717 3.39453 -41.9297zM237.535 396.219zM404.644 640.676zM336.635 394.966c25.2783 0 42.0088 23.8467 42.0088 50.4707c0 8.43262 -2.34277 18.9014 -5.66504 32.7354c-6.25195 24.835 -12.3613 49.6523 -18.3467 74.5303
c-1.3125 5.28906 -2.66016 10.5625 -4.05273 15.793l74.4209 0.504883l0.8125 -2.20703l-34.3438 -28.9092l15.791 -16.7031l67.0977 59.1943l-69.7139 60.3008l-14.9365 -16.9775l36.3086 -30.3936l-0.805664 -2.20898l-81.1523 0.271484
c-10.2471 33.3496 -23.1787 63.1738 -41.8965 81.8906c-18.376 18.376 -38.3916 23.3418 -54.6641 23.3418c-47.5918 0 -74.5391 -36.2197 -92.8008 -89.3115c-2.00488 -5.85352 -3.41602 -9.97266 -5.00684 -15.2715l-38.5566 0.128906l-0.595703 -25.2773
l32.4092 0.219727c-3.72656 -14.5596 -9.15625 -36.377 -17.9678 -71.792c-10.4062 -41.8213 -10.4062 -41.8213 -10.4062 -49.6719c0 -7.89453 1.7002 -25.9482 15.7969 -40.0449c10.1348 -10.1348 21.5352 -10.5146 31.2178 -10.8271
c0.00585938 0 0.125977 0.000976563 0.125977 0.000976563c2.59082 0.0107422 34.6104 0.138672 81.0322 0.138672c24.3027 0 52.5518 -0.0351562 82.5928 -0.140625l10.7637 0.21875c0.177734 -0.00292969 0.355469 -0.00390625 0.533203 -0.00390625zM149.248 418.525
c-0.09375 0.0283203 -0.189453 0.0576172 -0.287109 0.0888672zM134.516 451.587c0 0.199219 0.0302734 0.290039 0.0302734 0.290039l0.0429688 -0.0078125c0.665039 4.83301 1.88184 9.93359 3.2998 15.3965c5.09277 19.6133 5.2168 19.5664 19.6377 78.9336
c1.7666 7.03809 3.58105 14.0742 5.48047 21.0244l167.199 1.13379c4.68066 -17.3926 10.2529 -40.2793 18.4316 -73.8701c9.06641 -36.4092 10.6748 -42.8711 10.6748 -49.2451c0 -15.6211 -10.3359 -26.4072 -18.0527 -27.3711
c-3.57617 -0.473633 -7.14355 -0.710938 -10.7344 -0.710938c-0.387695 0 -0.774414 0.00292969 -1.16309 0.00878906c-0.308594 0 -167.545 -0.0732422 -167.545 -0.0732422h-0.0546875c-3.14941 0.136719 -5.64355 0.283203 -7.68652 0.50293v-0.0107422
c-0.0175781 0 -0.0380859 0.00390625 -0.0585938 0.00488281v0.0117188c-6.55957 0.713867 -8.43945 2.19922 -12.4824 6.59473c-5.83105 6.33691 -7.48828 13.2139 -7.48828 20.3535c0 2.28516 0.182617 4.625 0.50293 7.03223
c-0.0107422 0 -0.0224609 0.00195312 -0.0341797 0.00195312zM407.26 521.181zM391.469 537.884zM110.537 566.868zM111.133 592.146zM389.707 623.698zM474.357 580.375zM323.489 591.436l-153.143 0.511719c14.8945 45.6543 35.958 82.3389 75.3242 82.3389
c11.3301 0 30.0312 -1.49707 48.0781 -22.7822l0.0537109 0.0449219l0.0410156 -0.0488281l-0.0537109 -0.0449219c5.81738 -6.87109 11.5664 -15.8008 16.9775 -27.4004c5.08301 -11.1348 8.89746 -20.7148 12.7217 -32.6191zM154.018 417.604l0.0585938 -0.00683594v0
v0.000976562c-0.0195312 0.00195313 -0.0585938 0.00585938 -0.0585938 0.00585938zM134.55 451.585c0.0126953 0.0947266 0.0263672 0.189453 0.0390625 0.28418zM293.79 651.455l-1.85449 -1.57031l-0.0410156 0.0478516l1.85449 1.57129
c0.0136719 -0.0166016 0.0273438 -0.0322266 0.0410156 -0.0488281zM134.221 -61.2959zM340.548 -55.9424v263.013l80.8701 -0.34668l63.0251 -53.1485c1.23064 24.1913 1.23064 24.1913 2.20835 54.5l190.772 -2.45117v-66.4404l-54.499 -59.7695l32.7266 -4.33887l26 4
l-4.22754 -136.465zM695.938 -84.5088c4.71561 0 8.54759 3.82766 8.57399 8.39457l-1.86111 158.189c12.9088 -1.84411 12.9088 -1.84411 53.0537 -4.0831l-51.1944 59.6085v86.5381c0 4.71977 -3.8161 8.4982 -8.24219 8.54782l-211.617 -4.6113
c-2.01115 37.2063 -2.01115 37.2063 -4.71543 58.173l-57.9857 -52.4621l-3.87834 0.0156927s-96.0008 0.388525 -96.0416 0.388607c-4.71785 0 -8.57227 -3.83432 -8.57227 -8.54297v-300.105c0 -4.69954 3.84858 -8.54199 8.54199 -8.54199
c0 0 373.898 -1.50871 373.938 -1.50879zM29.3242 18.2246h55.5146l17.1611 52.2256l17.1602 -52.2256h55.5156l-44.8672 -32.2959l17.1611 -52.2246l-44.9697 32.2959l-44.9707 -32.2959l17.1611 52.2246z" />
  </g>

</svg>
