<?xml version="1.0" standalone="no"?>
<!DOCTYPE svg PUBLIC "-//W3C//DTD SVG 1.1//EN" "http://www.w3.org/Graphics/SVG/1.1/DTD/svg11.dtd" >
<svg xmlns="http://www.w3.org/2000/svg" xmlns:xlink="http://www.w3.org/1999/xlink" version="1.1" viewBox="-10 0 1016 1000">
  <g transform="matrix(1 0 0 -1 0 800)">
   <path fill="currentColor"
d="M450.908 111.873c-1.55664 -8.01855 -7.50684 -12.5879 -13.9023 -12.9775c-13.6299 -0.828125 -25.8252 14.5303 -12.959 27.2285c1.60156 1.58203 3.57031 3.16699 6.13867 3.9668c2.10352 1.67676 11.5801 12.5596 27.5449 31.3008
c-19.2051 12.8467 -19.9893 18.1055 -20.1797 21.2627c-0.447266 7.3457 7.69434 16.6904 15.459 17.1631c5.48242 0.332031 10.4961 -3.82422 10.3945 -12.6348c0.101562 -1.66602 4.87598 -9.12012 8.46777 -7.11328c135.522 150.207 135.522 150.207 135.969 150.621
c0.28418 0.265625 24.4521 21.4961 32.0645 21.959c3.61133 0.219727 6.45312 -2.55469 6.64844 -5.76074c0.168945 -2.78613 -0.950195 -5.08691 -12.9521 -28.708l-0.162109 -0.18457c-111.744 -127.566 -138.466 -158.073 -138.379 -159.504
c0.0332031 -0.543945 0.334961 -1.75586 3.09277 -4.27148c5.37891 -4.90918 8.04297 -0.801758 13.876 -3.33789c4.85156 -2.1084 9.01367 -9.78418 1.60645 -18.6865c-1.47852 -1.77734 -5.98438 -6.78516 -12.5938 -6.85645
c-1.91504 -0.0214844 -7.16699 0.0683594 -22.4404 17.5566c-9.18359 -11.1299 -12.3301 -14.8096 -21.625 -23.5205c-4.87891 -4.57227 -5.69531 -5.57324 -6.06836 -7.50293zM440.793 120.889c-4.81641 -4.80469 -9.01172 -2.18066 -8.78809 -5.87305
c0.108398 -1.77051 1.62109 -3.47656 3.5166 -3.36133c3.51172 0.212891 1.24902 3.35059 5.27148 9.23438zM501.409 138.698c-0.0498047 0.00585937 -0.241211 0.137695 -0.291992 0.144531c0.109375 -0.0595703 0.207031 -0.109375 0.291992 -0.144531zM472.672 166.722
c0.632812 -1.03125 1.7373 -3.52539 -0.09375 -6.96582c-2.99512 -5.63086 -20.5742 -23.167 -29.2783 -35.7656c4.62012 5.01465 12.0635 10.4736 22.3242 23.2148c7.74902 9.62207 9.57227 11.8867 12.8906 12.0889
c1.27734 0.0771484 2.37109 -0.276367 3.38281 -0.921875c-0.0732422 1.96582 0.328125 4.09277 1.58691 6.06543c2.56445 4.01953 4.22266 6.57715 86.1113 100.013c0.533203 0.601562 43.5986 49.2422 52.2793 61.1104
c-12.5078 -10.8906 -29.7607 -30.2598 -76.6543 -83.207c-27.3535 -30.8809 -36.8916 -41.4736 -54.3838 -60.7939c-6.56934 -7.25391 -9.93164 -11.1016 -12.3252 -12.6533c-1.22754 -0.795898 -3.22168 -1.81738 -5.83984 -2.18457zM450.738 183.614
c-0.0302734 -0.0507812 -0.0566406 -0.0966797 -0.0791016 -0.135742c-0.00292969 0.0107422 0.0820312 0.123047 0.0791016 0.135742zM704.055 139.517c7.94043 -1.91797 12.2354 -8.06738 12.334 -14.4746c0.209961 -13.6543 -15.6846 -25.1406 -27.7881 -11.7129
c-1.50586 1.67188 -3 3.71094 -3.68359 6.31348c-1.58008 2.17676 -12.0205 12.1367 -30.0215 28.9336c-13.7031 -18.6035 -18.9922 -19.1484 -22.1533 -19.1963c-7.35938 -0.114258 -16.3262 8.44336 -16.4453 16.2188c-0.0849609 5.49414 4.29492 10.3145 13.0908 9.81348
c1.66992 0.0253906 9.33301 4.45801 7.49023 8.13672c-143.914 142.188 -143.914 142.188 -144.308 142.651c-0.250977 0.296875 -20.3652 25.4004 -20.4834 33.0264c-0.0546875 3.61816 2.84375 6.33105 6.05664 6.38086
c2.79102 0.0419922 5.03906 -1.17773 28.0908 -14.2393l1.7373 -0.169922c122.374 -117.409 151.638 -145.484 153.071 -145.463c0.545898 0.00878906 0.208984 0.254883 2.84863 2.89551c5.14746 5.15234 1.16406 8.00098 3.96191 13.7129
c2.32715 4.75 10.1826 8.55957 18.7412 0.755859c1.70703 -1.55762 6.50586 -6.28418 6.2793 -12.8906c-0.0664062 -1.91406 -0.393555 -7.15625 -18.5557 -21.6211c10.7021 -9.67773 14.2334 -12.9902 22.5166 -22.6689
c4.34668 -5.08105 5.30859 -5.94141 7.21973 -6.40234zM694.59 129.82c4.58301 -5.03027 1.76953 -9.10156 5.46973 -9.04395c1.77344 0.0273438 3.54688 1.46191 3.51758 3.36035c-0.0546875 3.5166 -3.29102 1.40039 -8.9873 5.68359zM679.546 191.182
c-0.00878906 -0.0498047 -0.149414 -0.235352 -0.158203 -0.28418c0.0644531 0.105469 0.118164 0.200195 0.158203 0.28418zM650.248 163.743c1.05957 0.584961 3.60156 1.57422 6.95508 -0.40918c5.48828 -3.24707 22.2109 -21.6035 34.4023 -30.8682
c-4.7998 4.84277 -9.91602 12.5234 -22.1797 23.3525c-9.26172 8.17578 -11.4414 10.1006 -11.4922 13.4248c-0.0205078 1.2793 0.383789 2.35742 1.07422 3.33691c-1.96777 0.015625 -4.07422 0.513672 -5.98828 1.86035
c-3.89746 2.74414 -6.37988 4.5166 -96.0088 90.5547c-0.577148 0.55957 -47.2178 45.7842 -58.6787 54.9932c10.3105 -12.9883 28.8789 -31.1006 79.6475 -80.3447c29.6123 -28.7236 39.7607 -38.7324 58.2695 -57.083c6.94824 -6.88965 10.6406 -10.4248 12.082 -12.8848
c0.738281 -1.26172 1.66895 -3.30078 1.91699 -5.93262zM632.381 142.597c0.0478516 -0.0322266 0.0917969 -0.0605469 0.131836 -0.0849609c-0.0126953 -0.00292969 -0.121094 0.0878906 -0.131836 0.0849609zM409.184 526.725l-54.583 -55.125l59.3994 -54.5996
l-7.7334 -6.44141l-59.4668 54.7412l-53.7832 -54.7412l-5.61621 6.14062l53.0996 54l-52.2002 54.3008l6.90039 6.59961l52.7998 -52.5l55.2002 52.7998zM48.3545 723.521h55.5146l17.1611 52.2256l17.1602 -52.2256h55.5156l-44.8672 -32.2959l17.1611 -52.2246
l-44.9697 32.2959l-44.9707 -32.2959l17.1611 52.2246zM271 608l-12 60c128.725 89.7881 355.203 55.3633 442.457 48.5605c0 -0.0107422 0.000976562 -0.0214844 0.000976562 -0.0322266c27.4463 0.582031 75.1855 -1.32129 107.268 -33.4033
c40.1396 -40.1396 38.6152 -108.841 37.5254 -169.365c-0.395508 -21.9258 -0.433594 -33.2402 -0.22168 -41.9463c26.3789 -43.8281 72.168 -89.959 89.3252 -129.607c6.95117 -16.0635 5.49219 -24.7637 2.64551 -40.2051l-12 -14l-79.501 -63.5771v-212.431
c1.93945 -31.0869 1.82422 -79.2412 -27.416 -108.48c-26.0322 -26.0322 -182.507 -12.0195 -220.584 -13.0049l-2.90137 0.0126953c-103.732 -7.2998 -296.108 50.6025 -326.603 92.1719c-18.5059 25.2275 -31.4014 41.2529 -57.9951 55.3086v70.0371
c25.8174 -16.2627 49.624 -17.8066 70.1904 -60.6357c44.2188 -92.082 349.455 -105.734 451.309 -108.438l-0.499023 -0.962891c50 12 34.1514 4.48145 42.5352 13.5361c19.1768 20.7119 3.97852 41.9688 5.50781 57.9648h-0.541992v2.14941
c-0.253906 0.990234 -0.500977 1.94141 -0.738281 2.84863h0.738281v207.174v3.4873v1.33887h1.58203l104 88h1.13281c4.9834 45.8955 -62.8379 92.1289 -94.2158 139.501l-3 4l-1 1c-2.02051 3.99219 0.0439453 4.02539 -2.08398 11.5605
c-0.0371094 0.130859 -0.189453 0.24707 -0.174805 0.367188l0.258789 2.07227l0.0644531 1.49902c0.00976562 0.226562 0.150391 3.89551 0.242188 6.24414c3.11426 79.1523 5.19727 173.389 -83.8154 173.771c-136.35 16.7461 -373.536 9.53418 -431.49 -46.5137z
M48.3545 723.521h55.5146l17.1611 52.2256l17.1602 -52.2256h55.5156l-44.8672 -32.2959l17.1611 -52.2246l-44.9697 32.2959l-44.9707 -32.2959l17.1611 52.2246zM271 608l-12 60c128.725 89.7881 355.203 55.3633 442.457 48.5605
c0 -0.0107422 0.000976562 -0.0214844 0.000976562 -0.0322266c27.4463 0.582031 75.1855 -1.32129 107.268 -33.4033c40.1396 -40.1396 38.6152 -108.841 37.5254 -169.365c-0.395508 -21.9258 -0.433594 -33.2402 -0.22168 -41.9463
c26.3789 -43.8281 72.168 -89.959 89.3252 -129.607c6.95117 -16.0635 5.49219 -24.7637 2.64551 -40.2051l-12 -14l-79.501 -63.5771v-212.431c1.93945 -31.0869 1.82422 -79.2412 -27.416 -108.48c-26.0322 -26.0322 -182.507 -12.0195 -220.584 -13.0049
l-2.90137 0.0126953c-103.732 -7.2998 -296.108 50.6025 -326.603 92.1719c-18.5059 25.2275 -31.4014 41.2529 -57.9951 55.3086v70.0371c25.8174 -16.2627 49.624 -17.8066 70.1904 -60.6357c44.2188 -92.082 349.455 -105.734 451.309 -108.438l-0.499023 -0.962891
c50 12 34.1514 4.48145 42.5352 13.5361c19.1768 20.7119 3.97852 41.9688 5.50781 57.9648h-0.541992v2.14941c-0.253906 0.990234 -0.500977 1.94141 -0.738281 2.84863h0.738281v207.174v3.4873v1.33887h1.58203l104 88h1.13281
c4.9834 45.8955 -62.8379 92.1289 -94.2158 139.501l-3 4l-1 1c-2.02051 3.99219 0.0439453 4.02539 -2.08398 11.5605c-0.0371094 0.130859 -0.189453 0.24707 -0.174805 0.367188l0.258789 2.07227l0.0644531 1.49902
c0.00976562 0.226562 0.150391 3.89551 0.242188 6.24414c3.11426 79.1523 5.19727 173.389 -83.8154 173.771c-136.35 16.7461 -373.536 9.53418 -431.49 -46.5137z" />
  </g>

</svg>
