<?xml version="1.0" standalone="no"?>
<!DOCTYPE svg PUBLIC "-//W3C//DTD SVG 1.1//EN" "http://www.w3.org/Graphics/SVG/1.1/DTD/svg11.dtd" >
<svg xmlns="http://www.w3.org/2000/svg" xmlns:xlink="http://www.w3.org/1999/xlink" version="1.1" viewBox="-10 0 1032 1000">
  <g transform="matrix(1 0 0 -1 0 800)">
   <path fill="currentColor"
d="M38.3545 -98.4795h55.5146l17.1611 52.2256l17.1602 -52.2256h55.5156l-44.8672 -32.2959l17.1611 -52.2246l-44.9697 32.2959l-44.9707 -32.2959l17.1611 52.2246zM860.216 256.336c-62.5469 0 -116.897 48.6748 -124.824 110.001h-268.548v31.6621h268.548
c7.92676 61.3232 62.2744 110.001 124.824 110.001c69.4619 0 125.831 -56.3672 125.831 -125.832c0 -69.4629 -56.3662 -125.832 -125.831 -125.832zM767.212 397.999h46.2891c6.59473 18.5215 25.7256 33.334 46.499 33.334c27.1455 0 49.165 -22.0215 49.165 -49.165
c0 -27.1426 -22.0195 -49.165 -49.165 -49.165c-20.7773 0 -39.9053 14.8154 -46.499 33.334h-46.3027c7.75977 -43.9619 47.8809 -78.3369 92.8018 -78.3369c51.9746 0 94.1689 42.1904 94.1689 94.168c0 51.9814 -42.2031 94.168 -94.1602 94.168
c-44.8545 -0.0634766 -84.9707 -34.4453 -92.7969 -78.3369zM314.413 -90.4707c0 -6.08062 4.9659 -11.0415 11.0415 -11.0415l373.928 -1.50885c6.11715 0 11.0843 4.96469 11.0843 10.942l-1.72461 146.594c0 4.14329 3.35399 7.49853 7.49853 7.49853
c0.357419 0 0.716701 -0.0256338 1.0824 -0.0779531c0.974636 -0.139521 1.53475 -0.219839 47.3808 -2.76837c-1.43732 1.82589 -9.63896 11.4179 -52.4349 61.2476c-1.20277 1.40045 -1.80416 3.14097 -1.80416 4.88148v82.8301
c0 6.1042 -4.93994 11.0072 -10.7575 11.0471l-202.14 -4.40487c-3.98063 0 -7.27236 3.1109 -7.48756 7.09259c-1.49195 27.6045 -4.8004 27.6637 -4.8004 53.2717c-1.73306 -1.42827 -10.9063 -9.68408 -58.6842 -52.9108
c-0.939272 -0.849799 -5.00829 -1.93313 -5.06248 -1.93313l-96.037 0.388664c-6.10541 9.99989e-10 -11.0822 -4.94744 -11.0822 -11.0425v-300.105zM674.74 58.8501c4.15731 0 7.50215 -3.3727 7.50215 -7.49864l-3.56096 -114.948
c-0.124105 -4.00612 -3.38473 -7.2645 -7.52736 -7.2645l-317.187 1.3623c-4.13075 0.0177414 -7.46608 3.36686 -7.46608 7.49846v243.017c0 4.10179 3.29949 7.49846 7.53092 7.49846l67.1973 -0.288086c1.70834 -0.00732394 3.41465 -0.594014 4.79737 -1.76007
c52.427 -44.2121 62.2734 -52.4826 64.1097 -53.8999c0 0.379331 0.00293934 0.758663 0.00293934 1.13799c0.83507 9.07941 2.12881 47.8852 2.14265 48.3141l0.0052962 0.16407c0.12634 3.91386 3.27504 7.25413 7.58938 7.25413l171.1 -2.19824
c4.10434 -0.0527321 7.40146 -3.39063 7.40146 -7.49791v-52.6934c0 -1.81087 -0.650984 -3.62173 -1.95295 -5.04961c-44.7316 -49.0575 -53.3948 -58.6046 -54.9262 -60.4403l0.62568 0.0197461c6.66274 -1.0607 36.5031 -5.04063 37.0064 -5.04063
c2.86634 0.407269 14.4925 2.313 15.6088 2.313zM488 748c0.178042 0 13.9998 -9.9355 13.9998 -10.9998c0 -0.255988 -0.0887051 -0.521253 -0.324275 -0.737354l-120.157 -110.226s131.121 -109.267 131.188 -109.329
c0.195131 -0.195131 0.292697 -0.451119 0.292697 -0.707107c0 -0.771878 -17.4786 -13.9998 -17.9998 -13.9998c-0.362373 0 -0.362373 0 -131.966 109.67c-118.643 -109.67 -118.643 -109.67 -119.034 -109.67c-0.526378 0 -12.9998 12.2219 -12.9998 12.9998
c0 0.255988 0.0975657 0.511975 0.318559 0.732071l116.221 108.274l-114.227 108.268c-0.207385 0.207124 -0.309812 0.471732 -0.309812 0.733177c0 0.651883 15.3509 13.9927 15.9974 13.9927c0.383176 0 0.383176 0 117.011 -104.666
c121.615 105.666 121.615 105.666 121.989 105.666z" />
  </g>

</svg>
