<?xml version="1.0" standalone="no"?>
<!DOCTYPE svg PUBLIC "-//W3C//DTD SVG 1.1//EN" "http://www.w3.org/Graphics/SVG/1.1/DTD/svg11.dtd" >
<svg xmlns="http://www.w3.org/2000/svg" xmlns:xlink="http://www.w3.org/1999/xlink" version="1.1" viewBox="-10 0 1043 1000">
  <g transform="matrix(1 0 0 -1 0 800)">
   <path fill="currentColor"
d="M664.593 439.732l11.6133 -10.3945c-22.2246 -21.8672 -44.0508 -43.4707 -65.3789 -64.75l65.3789 -65.3809l-11.2061 -11.207l-65.3848 65.3848c-21.8965 -21.9082 -43.2422 -43.4551 -63.9346 -64.5723l-11.6133 10.3945l64.8633 64.8633l-64.4561 64.4531
l11.209 11.209l64.4531 -64.457zM400.593 435.732l11.6162 -10.3945c-22.2275 -21.8672 -44.0537 -43.4707 -65.3818 -64.75l65.3789 -65.3809l-11.2061 -11.207l-65.3848 65.3848c-21.8965 -21.9082 -43.2422 -43.4551 -63.9316 -64.5723l-11.6162 10.3945l64.8633 64.8633
l-64.4561 64.4531l11.209 11.209l64.4561 -64.457zM700.407 216.144zM206.967 548.111zM114.818 378.469zM473.859 156.666zM473.21 136.065zM198.883 212.666zM357.033 162.912zM788.423 416.824zM114.818 378.469zM788.423 416.824zM800.57 428.386
c6.3623 -19.2725 10.459 -40.1289 15.8115 -60.1084l3.73047 -0.0605469c-2.83691 -59.8633 -3.90527 -82.4053 -101.112 -159.217c-72.3311 -57.1562 -125.286 -77.2881 -245.658 -78.6445c-82.7988 -0.933594 -188.249 2.16504 -280.693 78.624
c-36.4277 30.127 -94.252 88.4346 -93.7148 154.669h-2.5918c2.83203 10.6172 2.83203 10.6172 3.10156 18.7695l1.89648 -0.03125l8.11719 30.4395h-3.56348c1.85059 2.5127 3.70117 5.02539 5.55078 7.53809v8.55371h6.2959l91.9277 124.904h2.91699
c31.8057 74.374 153.654 110.202 200.98 52.5918c6.71973 -3.01953 37.1963 -15.1797 69.2871 -3.48047c16.5303 22.125 62.9756 43.4756 115.241 32.6367c50.5508 -10.4814 101.545 -57.5078 123.917 -80.4033h1.07324
c0.788086 -1.16113 1.32812 -2.49414 2.31934 -3.51074l7.0293 -7.33496l67.123 -114.698c1.00195 0.0849609 1.79297 0.0214844 1.63477 -0.705078zM145.696 367.666c-1.11328 -38.1699 3.1084 -83.5645 95.8115 -148.457
c78.6641 -55.0645 143.846 -59.0205 233.332 -56.8037c104.263 2.68359 147.768 16.084 210.727 67.5303c83.7227 68.416 97.5947 89.8574 87.5264 130.047l-13.3135 53.1475l-0.488281 -0.87207c0.0283203 3.21582 -2.12305 7.30664 -2.09473 10.5234l-74.7051 117.828
c-2.00488 -0.078125 -0.404297 1.74219 -2.40918 1.66406c-46.2412 30.4873 -51.1719 43.6953 -68.4453 53.8828c-26.5986 15.6846 -67.4932 12.5273 -93.5273 -5.24121c-12.96 -39.041 -93.3721 -45.2979 -130.424 -10.0908
c-3.45312 3.28125 -6.00098 1.45508 -5.6748 5.48047c-39.6064 27.2549 -111.047 11.0703 -132.011 -38.3047l-5.28906 -17.2617l-4.2373 1.63184c-28.7328 -36.4875 -63.4737 -64.6969 -81.6982 -115.663zM487.921 118.904z" />
  </g>

</svg>
