<?xml version="1.0" standalone="no"?>
<!DOCTYPE svg PUBLIC "-//W3C//DTD SVG 1.1//EN" "http://www.w3.org/Graphics/SVG/1.1/DTD/svg11.dtd" >
<svg xmlns="http://www.w3.org/2000/svg" xmlns:xlink="http://www.w3.org/1999/xlink" version="1.1" viewBox="-10 0 1020 1000">
  <g transform="matrix(1 0 0 -1 0 800)">
   <path fill="currentColor"
d="M440.985 178.897c-1.38574 0 -2.50098 1.125 -2.50098 2.49902l2.39844 69.0293c-6.97266 8.34668 -14.125 16.1592 -21.168 23.8516c-31.0508 33.9141 -60.1094 65.7266 -60.21 129.897c-0.0849609 53.4785 19.3691 80.8379 30.2637 91.9199
c34.4336 33.6602 79.8916 42.1211 103.517 42.1211c2.14844 0 4.86621 1.82227 7.69727 1.68848c69.8301 -3.28516 84.7324 -8.80762 120.311 -39.7539c4.59277 -3.99512 5.92871 -7.25098 6.52637 -10.3262c0.107422 -0.554688 0.167969 -0.771484 0.189453 -0.838867
c16.3027 -18.8115 27.7412 -68.251 28.6279 -82.6299c0.0605469 -0.974609 0.207031 -2.10742 0.375 -3.3877c0.476562 -3.62109 1.10742 -8.40527 0.0537109 -14.4258c-14.5068 -82.8516 -53.9326 -106.695 -58.5693 -119.685
c-0.25293 -0.708008 -0.486328 -0.825195 -0.586914 -0.925781c-1.10547 -1.10547 -10.6836 -5.98926 -18.3789 -9.6084c-0.96582 -2.75098 -0.96582 -2.75098 -1.45605 -3.25977c-0.226562 -0.87207 -0.432617 -2.41406 -0.432617 -2.41406l-1.42871 -70.5146
c-0.0273438 -1.35547 -1.12793 -2.44043 -2.4834 -2.44824zM627.903 489.095l-0.165039 0.143555l-1.51074 -1.97363zM620.884 498.012l-1.6543 0.682617l-1.65625 -4.15137zM512.761 520.799c-40.0898 0 -66.2324 -7.07715 -99.5674 -31.792
c-8.79004 -8.79004 -33.2559 -35.1709 -33.3711 -80.9375c-0.15332 -60.2461 26.1045 -88.6094 40.208 -102.713c7.02734 -7.02832 7.02734 -7.02832 8.19141 -8.7666c2.30078 -3.4375 2.30078 -3.4375 17.2344 -19.625c3.42969 -0.84375 8.67188 -3.00488 13.9883 -8.53223
c2.9082 -3.02148 1.73438 -14.2412 1.19629 -19.374l-0.478516 -58.3711l92.6289 -0.475586l4.35645 71.6416c0.0410156 0.678711 0.354492 1.30957 0.879883 1.75488c3.07715 2.62305 3.15723 2.69238 4.75293 4.28711c1.57422 1.57422 6.14258 6.03516 10.1602 7.2041
c1.45605 0.423828 3.4873 4.4502 7.70703 7.60449c20.1855 15.0898 50.0625 53.0723 53.7725 107.815c0.542969 8.00879 -0.693359 16.7461 -2.27344 26.1201c-3.34375 19.8359 -8.24414 48.0264 -23.3262 65.5996c-2.34473 1.93262 -3.05664 2.57422 -13.8525 13.3701
c-19.3135 19.3135 -51.292 25.1895 -82.207 25.1895zM484.593 327.689v143.11h52.8389v-143.214l-26.7891 -71.3857zM523.945 451.516h-25.8643l0.0292969 -118.542l12.7295 -34.9102l13.1055 34.9482v118.504zM498.079 451.516h0.00195313v0v0
s-0.00195313 2.20117 -0.00195313 0zM48.3545 723.521h55.5146l17.1611 52.2256l17.1602 -52.2256h55.5156l-44.8672 -32.2959l17.1611 -52.2246l-44.9697 32.2959l-44.9707 -32.2959l17.1611 52.2246zM271 608l-12 60c128.725 89.7881 355.203 55.3633 442.457 48.5605
c0 -0.0107422 0.000976562 -0.0214844 0.000976562 -0.0322266c27.4463 0.582031 75.1855 -1.32129 107.268 -33.4033c40.1396 -40.1396 38.6152 -108.841 37.5254 -169.365c-0.395508 -21.9258 -0.433594 -33.2402 -0.22168 -41.9463
c26.3789 -43.8281 72.168 -89.959 89.3252 -129.607c6.95117 -16.0635 5.49219 -24.7637 2.64551 -40.2051l-12 -14l-79.501 -63.5771v-212.431c1.93945 -31.0869 1.82422 -79.2412 -27.416 -108.48c-26.0322 -26.0322 -182.507 -12.0195 -220.584 -13.0049
l-2.90137 0.0126953c-103.732 -7.2998 -296.108 50.6025 -326.603 92.1719c-18.5059 25.2275 -31.4014 41.2529 -57.9951 55.3086v70.0371c25.8174 -16.2627 49.624 -17.8066 70.1904 -60.6357c44.2188 -92.082 349.455 -105.734 451.309 -108.438l-0.499023 -0.962891
c50 12 34.1514 4.48145 42.5352 13.5361c19.1768 20.7119 3.97852 41.9688 5.50781 57.9648h-0.541992v2.14941c-0.253906 0.990234 -0.500977 1.94141 -0.738281 2.84863h0.738281v207.174v3.4873v1.33887h1.58203l104 88h1.13281
c4.9834 45.8955 -62.8379 92.1289 -94.2158 139.501l-3 4l-1 1c-2.02051 3.99219 0.0439453 4.02539 -2.08398 11.5605c-0.0371094 0.130859 -0.189453 0.24707 -0.174805 0.367188l0.258789 2.07227l0.0644531 1.49902
c0.00976562 0.226562 0.150391 3.89551 0.242188 6.24414c3.11426 79.1523 5.19727 173.389 -83.8154 173.771c-136.35 16.7461 -373.536 9.53418 -431.49 -46.5137z" />
  </g>

</svg>
