<?xml version="1.0" standalone="no"?>
<!DOCTYPE svg PUBLIC "-//W3C//DTD SVG 1.1//EN" "http://www.w3.org/Graphics/SVG/1.1/DTD/svg11.dtd" >
<svg xmlns="http://www.w3.org/2000/svg" xmlns:xlink="http://www.w3.org/1999/xlink" version="1.1" viewBox="-10 0 1010 1000">
  <g transform="matrix(1 0 0 -1 0 800)">
   <path fill="currentColor"
d="M344.593 671.454c0 1.64746 -1.65625 6.16309 -3.07812 8.01074c-1.96777 1.45996 -6.69629 3.14453 -8.50098 3.14453c-6.52637 0 -11.1973 -4.5293 -15.4258 -8.75879c-1.82422 -1.82324 -4.21875 -2.7373 -6.61328 -2.7373
c-3.85938 0 -5.98828 2.11328 -7.72266 3.84668c-0.359375 0.360352 -6.51172 5.75879 -10.1289 6.95215c-1.65039 0.544922 -2.72949 0.691406 -4.0625 0.691406c-1.7207 0 -6.25684 -1.55957 -8.40234 -3.08105c-0.914062 -1.44336 -0.945312 -1.54785 -3.125 -9.04199
c0.179688 -2.78906 1.49805 -8.48145 7.7832 -14.5439l25.6787 -24.7705l25.4971 24.541c2.75781 2.7627 8.10059 8.19141 8.10059 15.7471zM277.993 724.728c0.331055 -5.87598 0.129883 -13.6318 -0.382812 -22.4785c8.3584 2.95703 20.1133 3.7002 33.2305 -5.48828
c8.93262 6.34766 15.252 7.45703 22.0957 7.5918c9.40332 0 19.5283 -4.99316 23.8311 -9.47168c9.23828 -9.61035 17.5312 -32.5947 -5.21289 -54.8047c-26.8867 -26.2549 -30.0928 -29.1973 -31.0068 -29.998c-5.41504 -5.2002 -13.8799 -5.21582 -19.3457 0.078125
l-29.0439 28.127c-0.994141 -11.5137 -1.7793 -22.2061 -2.00977 -30.8262c-0.09375 -3.49023 -0.353516 -19.1523 2.48047 -20.668c0.324219 -0.113281 0.583008 -0.291992 0.523438 -0.789062c9.20898 -98.9971 102.682 -191.717 107.881 -193.622
c0.169922 -0.0625 -0.322266 0.0136719 -0.322266 0.0136719l-0.488281 -0.25293l-0.264648 -0.597656l1.55371 -0.866211l-17.5117 -11.6748c-1.94922 2.12402 -2.88672 3.14648 -7.35742 7.98633c-35.5156 38.4502 -74.21 80.3906 -104.311 182.503
c-8.31836 -48.3086 -38.1201 -101.278 -64.9883 -135.4c-17.3301 -22.0088 -23.2012 -37.5156 -39.0713 -55.1484l-20.71 16.3955c12.2129 15.832 20.0449 26.5664 30.8691 41.5049c6.09961 8.41992 11.7227 16.1807 17.7295 24.0713
c73.5107 96.5615 75.71 223.811 75.1611 288.473l21.3789 -0.47168c1.89844 -0.0400391 5.125 -0.957031 5.00879 -6.74414c-0.0341797 -1.67676 -0.182617 -9.16406 0.282227 -17.4414h0.000976562zM657.409 439.584l79.373 -77.9561l127.097 163.146l-20.3008 14.0977
l-107.788 -136.53l-60.5576 55.623zM818.42 774.416l-73.3193 -70.1318l-70.4004 70l-14.5234 -13.8916l69.6777 -72.4805l-70.7002 -71.8994l15.5986 -17.0576l72.0762 73.3604l79.0361 -72.7559l16.1348 13.4404l-79.4912 73.0674l72.916 73.6396zM134.221 -61.2959z
M340.548 -55.9424v263.013l80.8701 -0.34668l63.0251 -53.1485c1.23064 24.1913 1.23064 24.1913 2.20835 54.5l190.772 -2.45117v-66.4404l-54.499 -59.7695l32.7266 -4.33887l26 4l-4.22754 -136.465zM695.938 -84.5088c4.71561 0 8.54759 3.82766 8.57399 8.39457
l-1.86111 158.189c12.9088 -1.84411 12.9088 -1.84411 53.0537 -4.0831l-51.1944 59.6085v86.5381c0 4.71977 -3.8161 8.4982 -8.24219 8.54782l-211.617 -4.6113c-2.01115 37.2063 -2.01115 37.2063 -4.71543 58.173l-57.9857 -52.4621l-3.87834 0.0156927
s-96.0008 0.388525 -96.0416 0.388607c-4.71785 0 -8.57227 -3.83432 -8.57227 -8.54297v-300.105c0 -4.69954 3.84858 -8.54199 8.54199 -8.54199c0 0 373.898 -1.50871 373.938 -1.50879zM29.3242 18.2246h55.5146l17.1611 52.2256l17.1602 -52.2256h55.5156
l-44.8672 -32.2959l17.1611 -52.2246l-44.9697 32.2959l-44.9707 -32.2959l17.1611 52.2246z" />
  </g>

</svg>
