<?xml version="1.0" standalone="no"?>
<!DOCTYPE svg PUBLIC "-//W3C//DTD SVG 1.1//EN" "http://www.w3.org/Graphics/SVG/1.1/DTD/svg11.dtd" >
<svg xmlns="http://www.w3.org/2000/svg" xmlns:xlink="http://www.w3.org/1999/xlink" version="1.1" viewBox="-10 0 1124 1000">
  <g transform="matrix(1 0 0 -1 0 800)">
   <path fill="currentColor"
d="M346.287 224.15c-36.5938 0 -66.2871 32.2432 -66.2871 66.8496c0 16.9668 10.3535 37.8105 17.3916 45.0049c1.86621 1.94922 2.80566 4.44238 2.80566 6.93164c0 2.48242 -0.933594 4.96191 -2.81641 6.89844c-9.20508 9.21484 -16.6758 27.2568 -16.6875 40.1709
c0 0.963867 2.02832 16.3955 3.61719 19.9268c8.2041 18.8418 31.5 34.4863 52.0117 34.9775l0.144531 0.00390625l0.142578 -0.00488281c18.0254 -0.635742 41.4336 -14.0947 50.4375 -34.5479c1.48047 -3.08594 5.10645 -5.80078 9.21777 -5.80078
c2.81738 0 4.55176 1.14648 5.7666 1.94922c10.9316 7.22656 30.4746 13.124 43.543 13.124c1 0 2.67773 -0.0439453 3.20508 -0.0576172c0.0292969 0 0.0566406 -0.00195312 0.078125 -0.00195312c4.16211 0.0244141 7.95898 3.06152 9.27734 6.39551
c9.39062 22.7686 37.0723 41.2695 61.6387 41.2695c-0.439453 0.203125 -0.646484 0.333008 -0.646484 0.394531c0 0.0263672 0.0410156 0.0400391 0.123047 0.0400391c2.2002 0 33.4336 -9.93848 44.0371 -20.542c4.01074 -4.01074 15.7109 -16.8828 18.6699 -33.2197
c1.05762 -5.32812 5.69141 -8.0791 9.41602 -8.19727c34.3047 -0.920898 62.1543 -29.5312 62.1543 -63.8438c0 -0.46875 -0.570312 -26.7197 -17.3184 -43.4678c-9.99219 -9.99121 -21.9727 -15.2295 -22.8438 -15.5732
c-9.14551 -3.60645 -19.9551 -4.9834 -25.0518 -4.9834h-0.108398c-7.8418 0.175781 -14.1191 4.09082 -23.0117 4.09082c-4.4668 0 -6.99805 -1.19824 -8.36133 -2.5625c-0.165039 -0.178711 -0.871094 -0.976562 -3.62891 -4.1084
c1.96289 -4.5293 4.71289 -10.876 4.71289 -19.2109c0 -12.0791 -7.10449 -23.3701 -7.46094 -23.4248c-1.79297 -2.48145 -3.9375 -4.91797 -6.29004 -7.27051c-6.9541 -6.95508 -15.6631 -13.1895 -22.9424 -16.1348
c-17.4004 -7.03809 -32.2881 -7.13574 -33.4873 -7.13574c-12.3896 0 -28.4287 4.69922 -29.3799 5.44727c-14.8691 6.1709 -32.707 23.6152 -38.9727 40.8164c-1.10547 2.86719 -4.19727 5.81543 -7.69922 6.50488
c-0.845703 0.0517578 -1.7959 0.0673828 -2.81055 0.0673828c-0.0898438 0 -5.16016 -0.717773 -7.99609 -4.18652c-14.5566 -17.7988 -39.5098 -26.5889 -54.5898 -26.5889zM458.764 207.37l-0.0439453 0.0195312zM297.299 335.905v0zM265.445 289.792
c0 -44.8223 39.3057 -82.4453 80.1816 -82.4453c30.6309 0 54.418 18.9033 58.2832 22.2051l4.19336 3.58008c4.89258 -7.66797 8.07812 -12.6602 15.9844 -20.5664c8.74707 -8.74805 19.4375 -16.4873 29.2773 -20.3672
c9.11719 -3.55566 23.9824 -6.35059 33.7686 -6.35059c12.5576 0 26.083 2.91797 40.9629 8.66113c13.3877 5.16797 30.1377 18.626 37.9014 29.9961c3.98438 5.83594 8.47266 20.5215 8.47266 31.0137c0 0.761719 0 0.761719 -0.300781 7.61035
c8.04883 -1.625 10.9854 -2.21777 14.4141 -2.21777c4.00977 0 19.3848 1.9541 30.3867 6.64355c11.998 4.88184 27.2227 17.0264 34.4756 27.0566c8.47168 11.8359 15.1729 32.7061 15.1729 47.2646c0 10.542 -3.63477 26.2334 -8.26953 35.6992
c-7.94727 16.2373 -33.6641 38.7383 -61.2578 43.1162l-2.94336 0.467773c-2.15234 6.93848 -6.69336 21.582 -22.3711 37.2598c-8.90332 8.90332 -28.3359 24.666 -54.3389 24.666c-33.5674 0 -62.2734 -24.5732 -73.1846 -45.334l-1.25781 -2.39355
c-10.5938 -0.640625 -26.5938 -3.04688 -42.4766 -10.873l-3.77539 -1.85938c-3.86133 5.77344 -5.85547 8.75391 -10.8066 13.7051c-13.2773 13.2773 -33.1035 23.332 -50.9922 23.915c-0.21875 0.00292969 -0.439453 0.00585937 -0.662109 0.00585937
c-21.6758 0 -54.6582 -17.6836 -65.7148 -45.9316c-2.62207 -7.0498 -4.3916 -24.2881 -4.62598 -25.5859c0 -13.8682 6.51074 -32.6855 15.3467 -44.6973l2.0293 -2.75977l-1.95312 -2.81445c-9.13672 -13.1689 -15.9199 -33.7402 -15.9199 -48.6699zM521.941 296.712
c0 -11.7637 -8.27148 -22.5156 -19.9385 -22.5156c-0.0634766 0 -0.125977 0 -0.188477 0.000976563c-3.48242 -0.0683594 -30.1514 -0.0800781 -47.9492 -0.0800781c-9.03418 0 -15.7832 0.00292969 -16.0518 0.00292969
c-3.91895 0.126953 -10.0732 0.326172 -15.2295 6.03711c-1.29004 1.42969 -6.49023 7.71777 -6.49023 17.0205c0 4.2627 1.58008 10.6289 4 19.4961c7.82715 32.2041 9.99609 41.166 15.9863 53.4395c2.86523 5.86133 12.5225 23.6631 32.7617 23.6631
c28.4824 0 37.8555 -30.5371 44.2197 -56.1777c2.18457 -9.08301 4.4209 -18.1689 6.70996 -27.2588c1.05469 -4.39355 2.16992 -8.96191 2.16992 -13.6279zM468.809 376.341c-13.8379 0 -20.7588 -15.1826 -27.8438 -43.3428
c-5.26758 -21.6885 -5.28027 -21.7393 -7.1875 -28.8906c-0.717773 -2.95801 -1.23145 -5.29492 -1.23145 -7.20117c0 -1.73926 0.426758 -3.12012 1.51562 -4.28809v0v0c0.0498047 -0.0537109 0.100586 -0.106445 0.15332 -0.15918
c0.304688 -0.304688 0.428711 -0.488281 0.613281 -0.605469c0.0234375 -0.0078125 0.0449219 -0.0126953 0.0664062 -0.0126953l-0.00585938 -0.0224609c0.117188 -0.0605469 0.263672 -0.100586 0.488281 -0.129883
c0 0.0107422 0.00195312 0.0205078 0.00195312 0.0302734c0.015625 0 0.03125 -0.00390625 0.0449219 -0.00390625c0 -0.0107422 -0.00195312 -0.0214844 -0.00195312 -0.0322266c0.464844 -0.0546875 1.24609 -0.0732422 2.7168 -0.137695
c62.6416 0.0273438 63.5283 0.0595703 64.873 0.236328c0.707031 0.316406 2.63672 2.10059 2.63672 5.39648c0 2.45801 -8.93652 39.1494 -12.5391 50.8984c-8.05469 25.9717 -17.416 27.8311 -22.3809 28.1738h-0.0214844
c-0.650391 0.0595703 -1.2832 0.0908203 -1.89844 0.0908203zM432.635 298.915l0.0244141 0.244141l-3.1748 0.244141zM434.062 292.619v-0.000976563h0.000976562zM434.062 292.619v0v0zM48.3545 723.521h55.5146l17.1611 52.2256l17.1602 -52.2256h55.5156
l-44.8672 -32.2959l17.1611 -52.2246l-44.9697 32.2959l-44.9707 -32.2959l17.1611 52.2246zM271 608l-12 60c128.725 89.7881 355.203 55.3633 442.457 48.5605c0 -0.0107422 0.000976562 -0.0214844 0.000976562 -0.0322266
c27.4463 0.582031 75.1855 -1.32129 107.268 -33.4033c40.1396 -40.1396 38.6152 -108.841 37.5254 -169.365c-0.395508 -21.9258 -0.433594 -33.2402 -0.22168 -41.9463c26.3789 -43.8281 72.168 -89.959 89.3252 -129.607
c6.95117 -16.0635 5.49219 -24.7637 2.64551 -40.2051l-12 -14l-79.501 -63.5771v-212.431c1.93945 -31.0869 1.82422 -79.2412 -27.416 -108.48c-26.0322 -26.0322 -182.507 -12.0195 -220.584 -13.0049l-2.90137 0.0126953
c-103.732 -7.2998 -296.108 50.6025 -326.603 92.1719c-18.5059 25.2275 -31.4014 41.2529 -57.9951 55.3086v70.0371c25.8174 -16.2627 49.624 -17.8066 70.1904 -60.6357c44.2188 -92.082 349.455 -105.734 451.309 -108.438l-0.499023 -0.962891
c50 12 34.1514 4.48145 42.5352 13.5361c19.1768 20.7119 3.97852 41.9688 5.50781 57.9648h-0.541992v2.14941c-0.253906 0.990234 -0.500977 1.94141 -0.738281 2.84863h0.738281v207.174v3.4873v1.33887h1.58203l104 88h1.13281
c4.9834 45.8955 -62.8379 92.1289 -94.2158 139.501l-3 4l-1 1c-2.02051 3.99219 0.0439453 4.02539 -2.08398 11.5605c-0.0371094 0.130859 -0.189453 0.24707 -0.174805 0.367188l0.258789 2.07227l0.0644531 1.49902
c0.00976562 0.226562 0.150391 3.89551 0.242188 6.24414c3.11426 79.1523 5.19727 173.389 -83.8154 173.771c-136.35 16.7461 -373.536 9.53418 -431.49 -46.5137zM48.3545 723.521h55.5146l17.1611 52.2256l17.1602 -52.2256h55.5156l-44.8672 -32.2959l17.1611 -52.2246
l-44.9697 32.2959l-44.9707 -32.2959l17.1611 52.2246zM271 608l-12 60c128.725 89.7881 355.203 55.3633 442.457 48.5605c0 -0.0107422 0.000976562 -0.0214844 0.000976562 -0.0322266c27.4463 0.582031 75.1855 -1.32129 107.268 -33.4033
c40.1396 -40.1396 38.6152 -108.841 37.5254 -169.365c-0.395508 -21.9258 -0.433594 -33.2402 -0.22168 -41.9463c26.3789 -43.8281 72.168 -89.959 89.3252 -129.607c6.95117 -16.0635 5.49219 -24.7637 2.64551 -40.2051l-12 -14l-79.501 -63.5771v-212.431
c1.93945 -31.0869 1.82422 -79.2412 -27.416 -108.48c-26.0322 -26.0322 -182.507 -12.0195 -220.584 -13.0049l-2.90137 0.0126953c-103.732 -7.2998 -296.108 50.6025 -326.603 92.1719c-18.5059 25.2275 -31.4014 41.2529 -57.9951 55.3086v70.0371
c25.8174 -16.2627 49.624 -17.8066 70.1904 -60.6357c44.2188 -92.082 349.455 -105.734 451.309 -108.438l-0.499023 -0.962891c50 12 34.1514 4.48145 42.5352 13.5361c19.1768 20.7119 3.97852 41.9688 5.50781 57.9648h-0.541992v2.14941
c-0.253906 0.990234 -0.500977 1.94141 -0.738281 2.84863h0.738281v207.174v3.4873v1.33887h1.58203l104 88h1.13281c4.9834 45.8955 -62.8379 92.1289 -94.2158 139.501l-3 4l-1 1c-2.02051 3.99219 0.0439453 4.02539 -2.08398 11.5605
c-0.0371094 0.130859 -0.189453 0.24707 -0.174805 0.367188l0.258789 2.07227l0.0644531 1.49902c0.00976562 0.226562 0.150391 3.89551 0.242188 6.24414c3.11426 79.1523 5.19727 173.389 -83.8154 173.771c-136.35 16.7461 -373.536 9.53418 -431.49 -46.5137z" />
  </g>

</svg>
