<?xml version="1.0" standalone="no"?>
<!DOCTYPE svg PUBLIC "-//W3C//DTD SVG 1.1//EN" "http://www.w3.org/Graphics/SVG/1.1/DTD/svg11.dtd" >
<svg xmlns="http://www.w3.org/2000/svg" xmlns:xlink="http://www.w3.org/1999/xlink" version="1.1" viewBox="-10 0 1009 1000">
  <g transform="matrix(1 0 0 -1 0 800)">
   <path fill="currentColor"
d="M828.399 483.872c0 9.49878 0.360099 25.4826 0.360099 28.905l-0.318652 61.3747l-8.69455 54.78l-24.0577 41.7601l-29.8355 19.1251l-33.9409 8.02542l-47.9505 1.85133v0.765382l-107.704 8.96128l-161.614 -4.8437l-135.511 -48.0118l4.97421 -24.8711
l90.1513 34.2037l168.519 13.9909l163.859 -8.05849l72.0585 -32.0852l24.6852 -76.5829c-11.2968 -92.7231 -11.5388 -94.7093 -10.6225 -98.1968c0.272553 -1.03738 0.408327 -1.98777 0.495372 -2.92219c0.487753 -0.641757 1.13403 -1.58506 1.4862 -2.05622
l30.4464 -40.7334l38.0432 -60.0682l23.93 -33.502l-96.7113 -80.2498l-3.19974 -219.288c0.962733 -7.56244 2.78458 -22.0112 5.01798 -45.877c-0.12894 -0.269919 -9.65147 -20.9678 -12.8349 -27.02c-1.80565 -3.43278 -3.36365 -6.39475 -8.94453 -11.1259
c-28.726 -6.87192 -37.6748 -9.01268 -53.7943 -9.01268c-3.38415 0 -6.77838 0.14333 -10.1737 0.446144l-127.95 -3.2205l-189.706 31.9736l-119.91 72.0259l-21.8729 31.5454c-0.18608 0.126152 -14.9542 10.3475 -18.5829 12.6523v-31.4635
c5.41685 -3.87145 13.5068 -7.36272 24.4398 -17.2503c7.32645 -6.62591 2.09556 -4.45645 10.6241 -11.9264c1.03002 -0.902171 1.03002 -0.902171 17.2005 -21.8062l70.2643 -41.1391l123.979 -35.7692l40.8353 -3.74581
c52.8258 -4.90757 59.0669 -6.73248 83.0467 -7.42728l68.08 -1.97257l89.7606 0.254271l51.1066 12.4914l15.1376 25.2075l6.27671 34.16l-0.268638 82.9487l0.0291888 84.2282l-0.00582149 87.5189l84.7837 67.8016l7.68593 8.96692l1.11464 7.19504
c0.44913 7.61262 -1.52476 12.8022 -3.31214 18.1783l-23.3304 38.8443l-33.0243 43.448l-34.3179 48.9016c-0.202711 16.1296 -0.202711 16.1296 -0.202711 17.6951zM297.998 143.351c0.223633 0.223633 5.94824 4.56641 23.4766 21.2393
c22.1396 21.0586 43.5732 41.6084 80.7061 40.7109c24.1523 -0.641602 36.3623 -19.3301 46.9414 -35.5215c11.2871 -17.2764 19.2881 -28.335 34.8682 -28.1963c32.7305 0.302734 31.6123 63.9854 75.5576 64.7988c39.71 0.588867 62.8232 -20.0156 87.2422 -41.666
c18.9111 -16.7676 26.2891 -22.1631 26.5352 -22.4092c10.0918 -10.0918 -3.91602 -31.7539 -17.3672 -25.8701c-17.8496 7.96875 -30.2285 20.6035 -41.6572 32.2695c-16.2246 16.5615 -28.4766 28.8516 -50.9854 27.5713
c-32.8887 -1.81055 -27.9033 -68.5703 -72.5303 -70.207c-26.375 -0.858398 -40.6855 18.126 -53.2412 34.7803c-12.5049 16.5889 -22.4717 29.1572 -40.2207 30.0234c-19.6719 0.87793 -30.2666 -9.90625 -44.8047 -25.0928
c-10.5244 -10.9932 -22.2197 -23.21 -39.4766 -30.5107c-13.9355 -5.73828 -25.4102 17.7139 -15.0439 28.0801zM634.737 247.642c0 -5.57031 -4.53613 -10.1748 -10.2119 -10.1748c0.0117188 0 -314.096 1.26758 -314.096 1.26758
c-5.54395 0 -10.1748 4.51367 -10.1748 10.1748v252.088c0 5.56152 4.52832 10.1758 10.2119 10.1758c-0.0117188 0 72.6533 -0.293945 82.7686 -0.334961l49.9941 45.2314l20.8574 -21.5156l-27.6699 -23.8896l188.186 -0.758789
c5.53027 -0.0244141 10.1348 -4.5332 10.1348 -10.1758v-71.5791l44.2314 -51.501l-22.585 -19.9648l-21.6465 27.5322v-136.575zM329.008 267.448l276.979 -1.18945v119.965l-25.4863 -28.457l-21.5 20.2334l46.9863 51.5312v51.6592l-167.939 0.720703l28.4463 -23.21
l-19.2695 -22.458l-54.3857 45.8633l-63.8301 0.273438v-214.932zM48.3545 723.521h55.5146l17.1611 52.2256l17.1602 -52.2256h55.5156l-44.8672 -32.2959l17.1611 -52.2246l-44.9697 32.2959l-44.9707 -32.2959l17.1611 52.2246z" />
  </g>

</svg>
