<?xml version="1.0" standalone="no"?>
<!DOCTYPE svg PUBLIC "-//W3C//DTD SVG 1.1//EN" "http://www.w3.org/Graphics/SVG/1.1/DTD/svg11.dtd" >
<svg xmlns="http://www.w3.org/2000/svg" xmlns:xlink="http://www.w3.org/1999/xlink" version="1.1" viewBox="-10 0 1008 1000">
  <g transform="matrix(1 0 0 -1 0 800)">
   <path fill="currentColor"
d="M348.481 97.6934l-82.2217 148.848l24.0225 10.1475l58.4395 -100.383l53.3027 101.418l27.2285 -11.0254zM265.568 -67.707v34.6641h38.626v22.0713h-38.626v34.6641h38.626v33.7148h31.3828v-33.7148h23.2197v31.2539h31.3828v-31.2539h41.292v-34.6641h-41.292
v-22.0713h41.292v-34.6641h-41.292v-36.1855h-31.3828v36.1855h-23.2197v-33.7246h-31.3828v33.7246h-38.626zM335.577 -33.043h23.2197v22.0713h-23.2197v-22.0713zM780.659 223.904c-0.529297 0 -0.985352 0.173828 -1.32227 0.358398l-214.094 -88.2627v-37.8242
c12.126 5.10742 24.251 10.2148 36.376 15.3213v-3.77051l-0.21875 -161.659h318.305l0.646484 155.446c10.9619 -6.48535 21.9238 -12.9697 32.8867 -19.4551l-0.677734 40.7051l-136.33 79.1182l1.46387 0.616211c-22.6963 11.7715 -24.457 12.7314 -36.2109 19.5508
c-0.288086 -0.102539 -0.56543 -0.144531 -0.824219 -0.144531zM884.594 -16.7148h-248.003l-0.665039 144.662l142.009 59.8174l107.859 -63.8086zM63.3545 -23.4795h55.5146l17.1611 52.2256l17.1602 -52.2256h55.5156l-44.8672 -32.2959l17.1611 -52.2246
l-44.9697 32.2959l-44.9707 -32.2959l17.1611 52.2246zM334.697 454.649v-22.8574h9.80176v58.0166h-9.80176v-22.9463l-121.98 -0.985352l21.2959 17.9072l-8.29102 8.76758l-36.377 -32.5439l37.3604 -30.6221l7.79395 8.85938l-21.8691 16.2637zM559.236 460.806
l-34.0713 32.7646l-7.79492 -8.85938l18.582 -18.4043l-126.439 -0.146484c-0.0957031 8.0127 -0.191406 16.0264 -0.287109 24.04h-10.585l0.689453 -57.625h10.5859c-0.0859375 7.11328 -0.170898 14.2285 -0.255859 21.3428l126.203 1.02051l-18.5684 -20.9619
l8.28906 -8.76758zM482.072 515.762h-237.81l0.175781 132.68l-28.5303 -12.0176v16.8594l161.79 66.7002l4.80469 -2.49023l0.0986328 0.193359l3.94238 -2.28809l7.55566 -3.91895l-0.467773 -0.195312l114.231 -66.293l0.300781 -18.0791l-25.5664 15.124z
M467.248 651.117l-90.0225 53.2559l-117.68 -49.5684l0.567383 -123.192h206.116zM689.026 476.486v-25.125h-15.2432v25.125l1.00195 -2.14746l-129.5 108.613c3.74609 3.09668 7.49121 6.19336 11.2373 9.29004l121.857 -102.203l-4.59668 -2.14746v91.7285
l4.59766 -2.14746l-2.08887 -1.75195l-79.5986 66.8477c3.74414 3.09668 7.48828 6.19336 11.2324 9.28809l70.4541 -59.0898l-4.59668 -2.14648v109.008h15.2432v-110.705l-4.59668 2.14648l71.2373 59.7471c3.73535 -3.13184 7.4707 -6.26562 11.2051 -9.39844
l-78.3682 -65.7275l-4.11816 3.59863l4.64062 2.10938v-93.5068l-4.59668 2.14746l121.857 102.203c3.74609 -3.09668 7.49121 -6.19336 11.2373 -9.29004l-129.5 -108.613z" />
  </g>

</svg>
