<?xml version="1.0" standalone="no"?>
<!DOCTYPE svg PUBLIC "-//W3C//DTD SVG 1.1//EN" "http://www.w3.org/Graphics/SVG/1.1/DTD/svg11.dtd" >
<svg xmlns="http://www.w3.org/2000/svg" xmlns:xlink="http://www.w3.org/1999/xlink" version="1.1" viewBox="-10 0 1051 1000">
  <g transform="matrix(1 0 0 -1 0 800)">
   <path fill="currentColor"
d="M828.399 483.872c0 9.49878 0.360099 25.4826 0.360099 28.905l-0.318652 61.3747l-8.69455 54.78l-24.0577 41.7601l-29.8355 19.1251l-33.9409 8.02542l-47.9505 1.85133v0.765382l-107.704 8.96128l-161.614 -4.8437l-135.511 -48.0118l4.97421 -24.8711
l90.1513 34.2037l168.519 13.9909l163.859 -8.05849l72.0585 -32.0852l24.6852 -76.5829c-11.2968 -92.7231 -11.5388 -94.7093 -10.6225 -98.1968c0.272553 -1.03738 0.408327 -1.98777 0.495372 -2.92219c0.487753 -0.641757 1.13403 -1.58506 1.4862 -2.05622
l30.4464 -40.7334l38.0432 -60.0682l23.93 -33.502l-96.7113 -80.2498l-3.19974 -219.288c0.962733 -7.56244 2.78458 -22.0112 5.01798 -45.877c-0.12894 -0.269919 -9.65147 -20.9678 -12.8349 -27.02c-1.80565 -3.43278 -3.36365 -6.39475 -8.94453 -11.1259
c-28.726 -6.87192 -37.6748 -9.01268 -53.7943 -9.01268c-3.38415 0 -6.77838 0.14333 -10.1737 0.446144l-127.95 -3.2205l-189.706 31.9736l-119.91 72.0259l-21.8729 31.5454c-0.18608 0.126152 -14.9542 10.3475 -18.5829 12.6523v-31.4635
c5.41685 -3.87145 13.5068 -7.36272 24.4398 -17.2503c7.32645 -6.62591 2.09556 -4.45645 10.6241 -11.9264c1.03002 -0.902171 1.03002 -0.902171 17.2005 -21.8062l70.2643 -41.1391l123.979 -35.7692l40.8353 -3.74581
c52.8258 -4.90757 59.0669 -6.73248 83.0467 -7.42728l68.08 -1.97257l89.7606 0.254271l51.1066 12.4914l15.1376 25.2075l6.27671 34.16l-0.268638 82.9487l0.0291888 84.2282l-0.00582149 87.5189l84.7837 67.8016l7.68593 8.96692l1.11464 7.19504
c0.44913 7.61262 -1.52476 12.8022 -3.31214 18.1783l-23.3304 38.8443l-33.0243 43.448l-34.3179 48.9016c-0.202711 16.1296 -0.202711 16.1296 -0.202711 17.6951zM33.2949 712.521h55.5146l17.1611 52.2256l17.1602 -52.2256h55.5156l-44.8672 -32.2959
l17.1611 -52.2246l-44.9697 32.2959l-44.9707 -32.2959l17.1611 52.2246zM124.714 431.23zM124.487 428.552zM285.458 400.669c0 20.9902 -7.22852 40.0889 -23.9082 56.7686c-9.43945 9.43848 -18.9717 15.2236 -27.9004 18.7393l-25.3428 9.98242
c31.3027 -5.40723 31.3027 -5.40723 35.4141 -6.63477c0.451172 0.155273 1.04297 0.277344 1.63379 0.167969c38.668 -7.12402 68.0078 -24.3438 89.0225 -45.3594c10.8867 -10.8867 18.3525 -21.291 25.3027 -33.3311
c-18.1143 -31.4482 -49.0869 -66.9258 -115.935 -78.8379l-14.3711 -2.55957c12.9883 7.9707 20.2314 11.8789 32.5312 24.4102c17.0615 17.0615 23.5527 36.5205 23.5527 56.6543zM202.853 337.625c-17.6377 0 -33.1348 6.04297 -45.9561 18.8652
c-18.6396 18.6396 -22.6377 43.6768 -14.416 66.4365l0.955078 2.64355l0.635742 -0.236328c12.9219 19.0723 12.9219 19.0723 13.6777 20.1729c20.1953 13.2207 20.1953 13.2207 20.4619 13.2549c14.2617 5.99707 44.9873 11.458 70.7295 -14.2852
c12.7979 -12.7988 18.2324 -27.6885 18.2881 -43.5693c0 -11.0322 -2.33691 -28.0439 -18.292 -44c-7.48926 -7.48926 -21.7451 -19.2822 -46.084 -19.2822zM392 401c-9.9209 17.6074 -58.1865 102.45 -185.317 102.45c-76.4531 0 -124.403 -30.5723 -152.868 -59.0361
c-12.124 -12.124 -22.583 -25.4023 -32.8525 -43.4131c9.08301 -15.9248 19.2002 -29.6484 31.9229 -42.3701c47.2109 -47.2119 105.261 -59.834 153.798 -59.834c23.3398 0 95.2373 1.4873 153.461 59.7119c16.6533 16.6523 26.6211 33.167 31.8564 42.4912z
M169.655 474.514c-7.6084 -2.86035 -19.5195 -10.3984 -24.1523 -15.0312c-6.19141 -6.19043 -6.19141 -6.19043 -7.60645 -8.55176c-1.1875 -1.98145 -1.44434 -2.23047 -2.99414 -3.62793c-2.17773 -1.9668 -2.91016 -2.85742 -3.72754 -4.94141
c-0.640625 -1.63184 -4.48047 -8.58691 -5.55762 -11.5781c0.143555 -0.701172 0.0439453 -1.39746 -0.145508 -1.89062c-8.7627 -22.9434 -9.18945 -57.4131 18.2637 -84.8662c7.12988 -7.12988 14.5605 -12.1104 21.6973 -15.6113l19.6172 -9.62402l-21.4102 4.38672
c-39.4736 8.08691 -66.7734 26.3105 -85.0439 44.582c-10.8408 10.8428 -18.377 21.2539 -25.3203 33.2402c13.0342 22.5908 42.0938 65.6318 114.893 78.8682zM420.763 332.552c-2.73438 -3.88379 -4.15039 -5.66309 -6.82129 -8.05469
c11.1006 -9.37598 17.7158 -15.0596 29.1123 -25.2373c-5.36719 -8.04297 -16.5605 -24.8174 -16.5605 -51.29c0 -13.0039 2.83691 -25.3447 7.92578 -36.4443l1.60742 -3.50684c-9.51758 -4.7959 -17.5068 -8.87109 -35.6738 -18.9941
c3.13477 -4.32129 4.49707 -6.59375 5.76367 -9.76758c13.7871 8.33789 21.9092 13.0088 35.1748 19.875c3.61816 -4.95215 6.16211 -8.43359 11.002 -13.2734c18.8164 -18.8164 41.0479 -23.6699 51.5439 -24.8955l3.69141 -0.430664
c-1.03809 -23.5889 -1.28711 -31.0518 -1.52832 -39.5322c6.53516 -0.477539 8.70996 -0.603516 11.6611 -0.636719c-0.0566406 5.81543 -0.0859375 11.0723 -0.0859375 15.8408c0 8.97949 0.0498047 13.8135 0.383789 24.1758
c10.874 0.912109 35.3086 2.96094 58.1357 25.7881c3.21484 3.21484 5.24805 5.24805 11.6445 14.1943c12.7783 -9.22949 19.3008 -13.9111 28.4131 -20.3916c2.83984 3.97461 4.10547 5.87793 6.33887 9.78027c-9.9375 7.73633 -16.5 12.5645 -29.2246 20.5391
c3.3457 7.78711 8.4502 19.668 8.4502 37.1504c0 19.4766 -6.69238 34.6709 -10.3643 41.5352l-1.75 3.27246c0.298828 0.189453 19.4873 12.3457 30.0371 18.8018c-2.1084 3.44043 -3.32422 5.24707 -5.51953 8.19824
c-16.3564 -9.47559 -19.6123 -11.3623 -30.1426 -18.6133c-3.74023 4.53809 -5.14844 6.24805 -8.22266 9.32227c-20.041 20.04 -43.667 24.4473 -55.0547 25.3408l-3.50488 0.274414c-0.714844 14.3643 -0.93457 21.7246 -0.93457 30.0557
c0 2.6084 0.0283203 4.85449 0.0683594 6.8418l-10.3135 -0.245117c-0.168945 -6.15625 -0.234375 -11.7969 -0.234375 -17.2598c0 -3.9707 0 -6.80371 0.212891 -19.6738c-9.68652 -1.28906 -32.6094 -4.33789 -53.71 -25.3506l-2.75586 -2.74414
c-14.373 13.6504 -20.375 18.793 -28.7656 25.3555zM513.757 171.139c-41.1602 0.0244141 -76.4922 33.8213 -76.4922 76.8281c0 42.4072 34.4229 76.8281 76.8301 76.8281c42.4014 0 76.8281 -34.416 76.8281 -76.8154
c-0.181641 -42.415 -34.7578 -76.8408 -77.166 -76.8408zM471.167 598.39c0 -4.70898 3.50879 -9 8.5 -9c4.99219 0 8.5 4.29199 8.5 9c0 4.70898 -3.50879 9 -8.5 9c-4.99219 0 -8.5 -4.29199 -8.5 -9zM479.658 607.27c4.625 0 8.50879 -3.69336 8.50879 -8.87988
c0 -5.19043 -3.87207 -8.87988 -8.49121 -8.87988c-4.625 0 -8.50879 3.69336 -8.50879 8.87988c0 5.19043 3.87207 8.87988 8.49121 8.87988zM531.667 597.89c0 -4.67871 3.27246 -9.5 8.5 -9.5c5.22949 0 8.5 4.82129 8.5 9.5c0 4.67871 -3.27246 9.5 -8.5 9.5
c-5.22949 0 -8.5 -4.82129 -8.5 -9.5zM540.155 607.186c4.62598 0 8.51172 -3.76172 8.51172 -9.2959c0 -5.5459 -3.87695 -9.2959 -8.48828 -9.2959c-4.62598 0 -8.51172 3.76172 -8.51172 9.2959c0 5.5459 3.87695 9.2959 8.48828 9.2959zM559.51 551.773
c0 0 -0.00390625 -0.00488281 0 0zM559.387 551.381c-6.77246 -23.5771 -28.7266 -35.8008 -50.4248 -35.8008c-21.1875 0 -42.0664 11.6514 -48.3174 35.582c-0.0273438 0.0234375 -0.0634766 0.0458984 -0.0869141 0.0585938
c-5.89062 -1.34277 -5.89062 -1.34277 -6.83301 -1.76074c6.81934 -27.417 30.7646 -40.7373 55.0703 -40.7373c3.75977 0 75.0674 3.22266 57.5762 40.8555c-0.0507812 0.110352 -5.15625 1.71875 -6.98438 1.80273zM607.639 555.403
c0 -43.2383 -43.7852 -78.4033 -97.6387 -78.4033c-53.8506 0 -97.6387 35.2324 -97.6387 78.4727c0 43.2383 43.7852 78.4023 97.6387 78.4023c53.8516 0 97.6387 -35.2324 97.6387 -78.4717zM614.583 555.473c0 47.0674 -46.9238 85.3477 -104.583 85.3477
c-57.6602 0 -104.583 -38.3506 -104.583 -85.417c0 -47.0674 46.9238 -85.3477 104.583 -85.3477c57.6602 0 104.583 38.3506 104.583 85.417z" />
  </g>

</svg>
