<?xml version="1.0" standalone="no"?>
<!DOCTYPE svg PUBLIC "-//W3C//DTD SVG 1.1//EN" "http://www.w3.org/Graphics/SVG/1.1/DTD/svg11.dtd" >
<svg xmlns="http://www.w3.org/2000/svg" xmlns:xlink="http://www.w3.org/1999/xlink" version="1.1" viewBox="-10 0 1169 1000">
  <g transform="matrix(1 0 0 -1 0 800)">
   <path fill="currentColor"
d="M791.977 570c0 19.4258 -15.75 34.6504 -35.1758 34.6504s-35.6992 -15.2246 -35.6992 -34.6504c0 -22.5742 17.8496 -33.5996 35.6992 -33.5996c9.97461 0 19.4258 3.15039 26.25 9.97461c5.25 5.25 8.92578 13.125 8.92578 23.625zM807.727 561.074
c-1.57617 -7.34961 -4.72656 -15.75 -8.92578 -22.0488l43.5742 -43.5762c13.6504 16.2754 25.2012 44.625 27.3008 65.625h-61.9492zM786.727 528c-6.30078 -4.19922 -14.1758 -7.34961 -21.5254 -8.92578v-62.4746c21 2.09961 49.3496 13.6504 65.625 27.3008z
M726.352 528l-43.5762 -44.0996c16.2754 -13.6504 44.625 -25.2012 65.625 -27.3008v62.4746c-7.34961 1.57617 -15.75 4.72656 -22.0488 8.92578zM714.801 539.025c-4.19922 6.29883 -7.875 14.6992 -9.44922 22.0488h-61.9512
c2.09961 -21 13.6504 -49.3496 27.3008 -65.625zM705.352 577.875c1.57422 7.34961 5.25 15.75 9.44922 22.0508l-44.0996 44.0996c-13.6504 -16.2754 -25.2012 -44.625 -27.3008 -66.1504h61.9512zM726.352 611.475c6.29883 4.20117 14.6992 7.34961 22.0488 8.92578
v62.4746c-21 -2.09961 -49.3496 -13.6504 -65.625 -27.3008zM786.727 611.475l44.0996 44.0996c-16.2754 13.6504 -44.625 25.2012 -65.625 27.3008v-62.4746c7.34961 -1.57617 15.2246 -4.72461 21.5254 -8.92578zM798.801 599.926
c4.19922 -6.30078 7.34961 -14.7012 8.92578 -22.0508h61.9492c-2.09961 21 -13.6504 49.3496 -27.3008 65.625zM756.801 700.199c71.9258 0 130.199 -58.2734 130.199 -130.199c0 -70.875 -57.75 -130.2 -130.199 -130.2c-71.9258 0 -130.199 58.2744 -130.199 130.2
s58.2734 130.199 130.199 130.199zM229.46 557.609c0 -17.1924 6.16504 -33.335 18.2139 -45.4209c9.99902 -9.95996 29.2002 -17.8926 43.3154 -17.8926c3.20703 0 7.47852 0.511719 12.8574 1.52734c29.3135 5.53223 53.1025 34.1572 53.1025 64.0566
c0 5.31934 -1.19043 13.4912 -2.70801 18.5947c-3.33887 11.7969 -14.8203 29.3311 -15.7061 30.626c-4.10938 6.48926 -5.16016 8.1582 -6.90137 11.1914c-10.4268 18.3418 -20.8691 36.667 -31.2852 55.0186c-2.89258 6.54785 -4.09961 7.74707 -6.35156 8.73438
c-2.44434 0 -3.24219 -0.0205078 -4.59766 -1.37598c-0.837891 -0.836914 -0.885742 -0.955078 -2.36426 -3.72363c-0.867188 -1.62402 -20.7168 -37.7764 -30.8525 -54.0957c-1.93945 -3.12402 -11.8896 -19.1875 -18.0322 -31.5537
c-5.82324 -11.749 -8.69043 -23.9619 -8.69043 -35.6865zM291.187 502.716c-11.4502 0 -28.6328 6.52246 -37.8701 15.7598c-10.1758 10.1758 -15.4238 23.959 -15.4238 38.8555c0 10.4355 2.5752 21.417 7.83496 32.0879c4.66016 9.38184 10.2637 18.6621 15.7012 27.6621
c4.8623 7.90137 4.84277 7.86621 28.6426 49.4043c0.0478516 0.0917969 0.0478516 0.0917969 2.50293 4.86426l31.6729 -54.9941c1.32129 -2.27637 2.51367 -4.28906 7.15918 -11.5557c4.19141 -6.13379 9.97949 -16.6074 12.9395 -23.3779
c0.0488281 -0.12207 0.102539 -0.239258 0.154297 -0.358398v-0.03125c2.98242 -7.63281 4.10742 -16.5049 4.10742 -21.4238c0 -26.0508 -20.8477 -51.0908 -46.5273 -55.7695c-5.58105 -1.0166 -9.4209 -1.12305 -10.8936 -1.12305zM353.557 446.872
c0.298828 0.0126953 19.124 0.00195313 19.1299 0.0117188c-5.7998 24.3213 -4.16992 32.1523 -2.05469 38.9766c0.0195312 0.0615234 1.65625 5.71875 1.87891 6.16504l13.6768 27.3525c-7 108.499 -7 108.499 -6.96094 108.966
c2.2998 27.2969 4.30469 59.1377 1.96094 79.5342c-6.0957 24.208 -21.2197 19.0996 -24.752 11.3564c-1.24805 -2.73633 -2.65527 -3.05859 -6.28613 -3.89062c-2.82227 -2.52441 -7.26172 -1.97168 -9.37305 1.20703c-2.64648 3.98535 -14.8906 22.9443 -15.2119 23.5752
c-4.42773 8.67188 -21.5078 14.0068 -24.7725 -3.16016c-0.118164 -0.620117 -0.118164 -0.620117 -5.94824 -14.8311c-2.17188 -5.29395 -9.8291 -5.07324 -11.6895 0.338867l-10.9668 31.9043c-2.93262 8.52832 -21.2246 15.3389 -30.8887 -0.811523
c-0.177734 -0.532227 -1.48242 -4.48828 -8.53418 -26.6045c-1.5332 -4.80762 -7.93066 -5.90625 -10.9707 -1.82129c-9.02051 12.1211 -9.02051 12.1211 -9.17969 12.2803c-0.0595703 0.0595703 -10.3027 10.2861 -16.1055 4.48242
c-3.17773 -3.17773 -4.97559 -10.9355 -5.76758 -15.6934c0.0224609 -0.712891 0.164062 -4.92383 0.946289 -25.3438c0.464844 -12.7158 1.03027 -39.8896 1.04297 -40.293c3.71875 -26.5088 1.99902 -27.3369 3.93262 -41.5205
c0.140625 -0.544922 1.21387 -4.67871 6.7832 -25.7637c0.0546875 -0.207031 0.563477 -12.0127 -1.05078 -14.7578c-3.9707 -6.75 -4.24609 -7.21777 -6.86621 -7.81836c-10.3672 -2.375 -13.6475 -0.287109 -17.1533 4.57715
c-1.80273 2.50195 -14.0664 14.793 -15.2998 16.2158l-25.6992 29.6533c-0.695312 0.458984 -4.26172 2.7959 -14.9912 9.59277c-0.626953 0.189453 -3.62988 1.08691 -12.6982 3.62598c-2.53613 -1.3916 -5.55859 -0.552734 -7.85156 -2.8457
c-1.66309 -1.66309 -3.58203 -7.23633 -2.97168 -10.3926l14.1787 -19.0684c2.73145 -2.56055 17.2461 -15.2119 17.957 -16.0713c21.1875 -25.6221 21.1875 -25.6221 21.2891 -25.7607c15.3984 -20.8613 15.3984 -20.8613 15.5137 -21.043
c13.8848 -21.8184 13.8848 -21.8184 14.0811 -22.2734l10.7236 -24.8594c2.96191 -4.59277 14.415 -21.873 14.7217 -22.4551c4.8252 -9.16797 4.8252 -9.16797 5.00684 -9.93066c3.59082 -15.0449 29.0176 -15.7939 29.3516 -15.7998l27.8125 -0.49707zM372.688 434.38
h-18.7383c-84.2998 -3.50098 -84.2998 -3.50098 -84.4873 -3.49805l-28.0127 0.500977c-4.44727 0.0830078 -34.8125 1.50293 -41.0625 24.5713l-3.97949 7.56055c-14.5625 22.0928 -14.3154 21.3613 -15.1963 23.4033l-10.6074 24.5898l-13.2373 20.8018l-15.041 20.377
l-20.6543 24.9785c-17.7441 15.7148 -17.7441 15.7148 -18.5234 16.7627l-14.5 19.5c-5.17285 6.95703 -1.56152 20.5312 4.35059 26.4434c3.46582 3.4668 6.73438 4.52539 11.5801 5.41699c2.68066 1.19824 5.69727 1.40625 8.49414 0.623047
c13.1924 -3.69434 13.4795 -3.49902 15.7979 -4.96777c14.1562 -8.96484 15.2305 -9.30371 17.2578 -11.3311c0.236328 -0.236328 -0.304688 -0.731445 26.291 -30.2998c13.8564 -15.4062 14.3975 -14.9111 16.3867 -17.6074
c0.329102 0.0292969 0.780273 0.0849609 1.34961 0.177734l0.669922 1.13867l0.298828 7.47168c-6.66504 25.2227 -6.5918 24.5254 -6.81738 26.1729c-2.08301 15.165 -0.250977 15.3809 -3.99414 41.957c-0.0576172 0.408203 -0.805664 32.8604 -1.11328 41.2617
c-1 26.1104 -1.23926 25.0811 -0.848633 27.4971c1.2168 7.54102 4.02148 24.9209 18.7051 28.0186c12.209 2.57422 24.0439 -8.8877 25.668 -11.0693l1.81836 -2.44336c4.87891 15.4814 4.72168 15.3779 5.86523 17.3232c15.1133 25.7041 47.2393 17.2402 53.5977 -1.25586
l5.36523 -15.6084c7.48438 25.1504 37.5898 21.4053 47.1689 3.27246c0.112305 -0.172852 10.7607 -16.7168 11.1621 -17.335c10.5078 13.5801 37.1152 15.8701 45.6035 -17.8389c0.135742 -0.538086 0.235352 -1.08301 0.297852 -1.63086
c2.55859 -22.2695 0.422852 -54.1162 -1.88379 -81.5605l6.93945 -107.565c0.141602 -2.18652 -0.289062 -4.40234 -1.29004 -6.40527l-13.373 -26.7461c-0.384766 -1.49023 -0.834961 -2.97949 -1.42773 -4.89258c-1.66406 -5.37012 -3.4209 -8.46484 2.27441 -32.3525
c1.87305 -7.85254 -4.07812 -15.4121 -12.1543 -15.4121zM348.481 97.6934l-82.2217 148.848l24.0225 10.1475l58.4395 -100.383l53.3027 101.418l27.2285 -11.0254zM265.568 -67.707v34.6641h38.626v22.0713h-38.626v34.6641h38.626v33.7148h31.3828v-33.7148h23.2197
v31.2539h31.3828v-31.2539h41.292v-34.6641h-41.292v-22.0713h41.292v-34.6641h-41.292v-36.1855h-31.3828v36.1855h-23.2197v-33.7246h-31.3828v33.7246h-38.626zM335.577 -33.043h23.2197v22.0713h-23.2197v-22.0713zM780.659 223.904
c-0.529297 0 -0.985352 0.173828 -1.32227 0.358398l-214.094 -88.2627v-37.8242c12.126 5.10742 24.251 10.2148 36.376 15.3213v-3.77051l-0.21875 -161.659h318.305l0.646484 155.446c10.9619 -6.48535 21.9238 -12.9697 32.8867 -19.4551l-0.677734 40.7051
l-136.33 79.1182l1.46387 0.616211c-22.6963 11.7715 -24.457 12.7314 -36.2109 19.5508c-0.288086 -0.102539 -0.56543 -0.144531 -0.824219 -0.144531zM884.594 -16.7148h-248.003l-0.665039 144.662l142.009 59.8174l107.859 -63.8086zM63.3545 -23.4795h55.5146
l17.1611 52.2256l17.1602 -52.2256h55.5156l-44.8672 -32.2959l17.1611 -52.2246l-44.9697 32.2959l-44.9707 -32.2959l17.1611 52.2246z" />
  </g>

</svg>
