<?xml version="1.0" standalone="no"?>
<!DOCTYPE svg PUBLIC "-//W3C//DTD SVG 1.1//EN" "http://www.w3.org/Graphics/SVG/1.1/DTD/svg11.dtd" >
<svg xmlns="http://www.w3.org/2000/svg" xmlns:xlink="http://www.w3.org/1999/xlink" version="1.1" viewBox="-10 0 1011 1000">
  <g transform="matrix(1 0 0 -1 0 800)">
   <path fill="currentColor"
d="M320.188 351.584l-68.5186 124.039l20.0195 8.45703l48.6992 -83.6523l44.4189 84.5146l22.6904 -9.18848zM254.157 216.155v28.8867h32.1875v18.3926h-32.1875v28.8867h32.1875v28.0957h26.1523v-28.0957h19.3496v26.0449h26.1533v-26.0449h34.4092v-28.8867h-34.4092
v-18.3926h34.4092v-28.8867h-34.4092v-30.1553h-26.1533v30.1553h-19.3496v-28.1045h-26.1523v28.1045h-32.1875zM312.497 245.042h19.3496v18.3926h-19.3496v-18.3926zM732.607 320.244c0 0.0371094 0.105469 2.22656 0.105469 3.6709
c0 12.4941 -7.51855 31.4189 -16.1182 40.5908c-9.55078 8.51172 -28.9668 15.9414 -41.6777 15.9414c-2.41797 0 -12.1592 -0.226562 -19.6738 -2.78516c-4.3252 -1.42578 -11.8369 -5.03125 -15.6514 -7.52051c-8.24023 -5.39844 -15.6846 -10.8076 -23.9277 -19.417
c-4.52148 -4.52148 -4.59961 -4.59961 -6.53809 -4.59961c-2.05469 0 -2.94824 1.00977 -6.62305 4.68555c-2.45117 2.44922 -20.8857 20.2852 -39.3623 26.3818c-7.18945 2.37207 -13.2422 3.2334 -19.4355 3.2334c-12.8203 0 -32.3457 -7.5332 -41.9326 -16.1699
c-6.19434 -6.75879 -11.3672 -24.8223 -14.0908 -34.7656c-0.714844 -2.61133 -1.24609 -4.60156 -1.70801 -5.9043c0.0322266 -6.13281 0.775391 -13.5469 3.19141 -21.1699c1.40137 -4.4248 4.75195 -12.0254 7.07422 -16.0469
c1.1377 -1.95703 10.2373 -16.0273 20.1738 -25.5137c93.084 -88.8574 92.6309 -89.3535 92.7666 -89.4141c0.0917969 0.0390625 0.418945 -0.294922 92.3555 88.8379c21.3477 20.6973 31.0723 41.2988 31.0723 59.9648zM621.89 157.721
c-13.166 -11.3828 -24.1523 -1.67578 -25.7676 -0.110352l-92.1953 89.2803c-3.86035 3.24414 -14.7812 15.0771 -15.1016 17.7441c-5.05078 6.74219 -7.73633 10.3027 -8.89844 12.3105c-3.10156 5.35938 -6.82617 13.7852 -8.69922 19.6895
c-1.70215 5.26758 -3.71777 14.2598 -3.71777 27.4258c0 22.8379 14.2998 47.0723 21.4443 53.5586c13.0352 11.834 36.5332 20.9141 54.1543 20.9141c16.3916 0 33.7334 -2.92285 60.0879 -24.0078c2.42188 -1.9375 4.03516 -3.30664 5.49219 -4.6123
c4.82324 4.28711 9.49414 7.93262 20.3096 15.2666c5.32617 3.5 13.7627 7.59863 19.8223 9.62891c3.32129 1.18652 12.7773 4.08887 25.8672 4.08887c22.7178 0 47.3203 -13.7871 54.3867 -21.1396c11.8418 -12.3223 21.6621 -35.3984 21.6621 -54.0068
c0 -13.0811 -0.280273 -41.3174 -36.7363 -76.917c-84.6699 -82.6758 -91.1182 -88.2559 -92.1104 -89.1133zM619.871 327.469c0 -0.130859 0.0888672 -7.91797 0.0888672 -7.99805c1.97461 0.160156 4.25977 -0.197266 6.62793 -1.54395
c5.85449 3.42773 11.4297 0.676758 13.4883 -1.46582c3.02051 -3.14258 5.41504 -10.4922 -1.41309 -17.1602c-6.85352 -6.69141 -7.82617 -7.59961 -8.18652 -7.91797c-2.18164 -2.06055 -5.59766 -2.0498 -7.77539 0.0585938l-4.62012 4.47461
c-0.170898 -2.50391 -0.305664 -5.82227 0.000976562 -7.87988c0.365234 -0.379883 0.543945 -0.895508 0.584961 -1.33691c2.11426 -22.7256 22.3232 -45.0605 27.1816 -49.1855c0.0117188 -0.00390625 0.538086 -0.197266 0.860352 -0.884766l2.21777 -1.23633
l-8.67969 -5.78613c-1.02344 1.11035 -2.04688 2.22168 -3.07031 3.33301c-8.5332 9.23828 -18.0107 19.5859 -25.6758 41.9336c-3.35547 -10.9922 -9.82031 -21.8945 -15.7705 -29.4512c-5.64062 -7.16406 -4.48438 -8.07031 -11.5771 -15.9512l-8.41016 6.6582
c5.16016 6.68945 13.7939 18.5566 13.9365 18.7422c18.8135 24.7139 19.4727 57.5898 19.3291 74.5156l-0.0175781 2.0293c2.54688 -0.0556641 5.09277 -0.111328 7.63965 -0.167969c1.83301 -0.0390625 3.28809 -1.41406 3.24023 -3.7793zM620.285 309.922v0v0z
M633.22 309.576c-0.289062 0.116211 -0.732422 0.290039 -0.87207 0.329102l0.0732422 0.000976562c-0.0244141 0 -0.0488281 -0.000976562 -0.0732422 -0.000976562c-1.83398 -0.09375 -2.60156 -3.0166 -5.71191 -3.0166c-2.91211 0 -4.31348 3.0332 -5.66895 3.01758
c-0.110352 -0.0283203 -0.484375 -0.166992 -0.77832 -0.28418c-0.0634766 -0.203125 -0.165039 -0.538086 -0.326172 -1.08887l-0.0410156 0.285156c0.00390625 -0.0625 0.0146484 -0.15918 0.0410156 -0.285156c0.0683594 -0.326172 0.31543 -1.19141 1.4043 -2.24219
l5.37598 -5.18555l5.31152 5.11328c1.87109 1.87891 1.56445 2.62695 1.26562 3.35742zM48.3545 723.521h55.5146l17.1611 52.2256l17.1602 -52.2256h55.5156l-44.8672 -32.2959l17.1611 -52.2246l-44.9697 32.2959l-44.9707 -32.2959l17.1611 52.2246zM271 608l-12 60
c128.725 89.7881 355.203 55.3633 442.457 48.5605c0 -0.0107422 0.000976562 -0.0214844 0.000976562 -0.0322266c27.4463 0.582031 75.1855 -1.32129 107.268 -33.4033c40.1396 -40.1396 38.6152 -108.841 37.5254 -169.365
c-0.395508 -21.9258 -0.433594 -33.2402 -0.22168 -41.9463c26.3789 -43.8281 72.168 -89.959 89.3252 -129.607c6.95117 -16.0635 5.49219 -24.7637 2.64551 -40.2051l-12 -14l-79.501 -63.5771v-212.431c1.93945 -31.0869 1.82422 -79.2412 -27.416 -108.48
c-26.0322 -26.0322 -182.507 -12.0195 -220.584 -13.0049l-2.90137 0.0126953c-103.732 -7.2998 -296.108 50.6025 -326.603 92.1719c-18.5059 25.2275 -31.4014 41.2529 -57.9951 55.3086v70.0371c25.8174 -16.2627 49.624 -17.8066 70.1904 -60.6357
c44.2188 -92.082 349.455 -105.734 451.309 -108.438l-0.499023 -0.962891c50 12 34.1514 4.48145 42.5352 13.5361c19.1768 20.7119 3.97852 41.9688 5.50781 57.9648h-0.541992v2.14941c-0.253906 0.990234 -0.500977 1.94141 -0.738281 2.84863h0.738281v207.174v3.4873
v1.33887h1.58203l104 88h1.13281c4.9834 45.8955 -62.8379 92.1289 -94.2158 139.501l-3 4l-1 1c-2.02051 3.99219 0.0439453 4.02539 -2.08398 11.5605c-0.0371094 0.130859 -0.189453 0.24707 -0.174805 0.367188l0.258789 2.07227l0.0644531 1.49902
c0.00976562 0.226562 0.150391 3.89551 0.242188 6.24414c3.11426 79.1523 5.19727 173.389 -83.8154 173.771c-136.35 16.7461 -373.536 9.53418 -431.49 -46.5137zM48.3545 723.521h55.5146l17.1611 52.2256l17.1602 -52.2256h55.5156l-44.8672 -32.2959l17.1611 -52.2246
l-44.9697 32.2959l-44.9707 -32.2959l17.1611 52.2246zM271 608l-12 60c128.725 89.7881 355.203 55.3633 442.457 48.5605c0 -0.0107422 0.000976562 -0.0214844 0.000976562 -0.0322266c27.4463 0.582031 75.1855 -1.32129 107.268 -33.4033
c40.1396 -40.1396 38.6152 -108.841 37.5254 -169.365c-0.395508 -21.9258 -0.433594 -33.2402 -0.22168 -41.9463c26.3789 -43.8281 72.168 -89.959 89.3252 -129.607c6.95117 -16.0635 5.49219 -24.7637 2.64551 -40.2051l-12 -14l-79.501 -63.5771v-212.431
c1.93945 -31.0869 1.82422 -79.2412 -27.416 -108.48c-26.0322 -26.0322 -182.507 -12.0195 -220.584 -13.0049l-2.90137 0.0126953c-103.732 -7.2998 -296.108 50.6025 -326.603 92.1719c-18.5059 25.2275 -31.4014 41.2529 -57.9951 55.3086v70.0371
c25.8174 -16.2627 49.624 -17.8066 70.1904 -60.6357c44.2188 -92.082 349.455 -105.734 451.309 -108.438l-0.499023 -0.962891c50 12 34.1514 4.48145 42.5352 13.5361c19.1768 20.7119 3.97852 41.9688 5.50781 57.9648h-0.541992v2.14941
c-0.253906 0.990234 -0.500977 1.94141 -0.738281 2.84863h0.738281v207.174v3.4873v1.33887h1.58203l104 88h1.13281c4.9834 45.8955 -62.8379 92.1289 -94.2158 139.501l-3 4l-1 1c-2.02051 3.99219 0.0439453 4.02539 -2.08398 11.5605
c-0.0371094 0.130859 -0.189453 0.24707 -0.174805 0.367188l0.258789 2.07227l0.0644531 1.49902c0.00976562 0.226562 0.150391 3.89551 0.242188 6.24414c3.11426 79.1523 5.19727 173.389 -83.8154 173.771c-136.35 16.7461 -373.536 9.53418 -431.49 -46.5137z" />
  </g>

</svg>
