<?xml version="1.0" standalone="no"?>
<!DOCTYPE svg PUBLIC "-//W3C//DTD SVG 1.1//EN" "http://www.w3.org/Graphics/SVG/1.1/DTD/svg11.dtd" >
<svg xmlns="http://www.w3.org/2000/svg" xmlns:xlink="http://www.w3.org/1999/xlink" version="1.1" viewBox="-10 0 2328 1000">
  <g transform="matrix(1 0 0 -1 0 800)">
   <path fill="currentColor"
d="M304.229 313.629l-62.2295 56.3711l10.084 7.42773l48.2158 -44.2871l85.9746 108.902l13.6982 -6.29492zM324.704 236.185c-82.8984 0.0488281 -153.894 68.0938 -153.894 154.553c0 85.3125 69.2393 154.556 154.556 154.556
c85.3145 0 154.556 -69.2422 154.556 -154.548c-0.363281 -85.3174 -69.9062 -154.561 -155.218 -154.561zM493.033 390.74c-0.369141 92.5566 -75.7803 167.667 -168.332 167.667c-89.6475 0 -167.002 -73.5645 -167.002 -167.663
c0 -92.5596 75.1211 -167.667 167.667 -167.667c92.5576 0 167.667 75.1191 167.667 167.663zM48.3545 723.521h55.5146l17.1611 52.2256l17.1602 -52.2256h55.5156l-44.8672 -32.2959l17.1611 -52.2246l-44.9697 32.2959l-44.9707 -32.2959l17.1611 52.2246zM271 608
l-12 60c128.725 89.7881 355.203 55.3633 442.457 48.5605c0 -0.0107422 0.000976562 -0.0214844 0.000976562 -0.0322266c27.4463 0.582031 75.1855 -1.32129 107.268 -33.4033c40.1396 -40.1396 38.6152 -108.841 37.5254 -169.365
c-0.395508 -21.9258 -0.433594 -33.2402 -0.22168 -41.9463c26.3789 -43.8281 72.168 -89.959 89.3252 -129.607c6.95117 -16.0635 5.49219 -24.7637 2.64551 -40.2051l-12 -14l-79.501 -63.5771v-212.431c1.93945 -31.0869 1.82422 -79.2412 -27.416 -108.48
c-26.0322 -26.0322 -182.507 -12.0195 -220.584 -13.0049l-2.90137 0.0126953c-103.732 -7.2998 -296.108 50.6025 -326.603 92.1719c-18.5059 25.2275 -31.4014 41.2529 -57.9951 55.3086v70.0371c25.8174 -16.2627 49.624 -17.8066 70.1904 -60.6357
c44.2188 -92.082 349.455 -105.734 451.309 -108.438l-0.499023 -0.962891c50 12 34.1514 4.48145 42.5352 13.5361c19.1768 20.7119 3.97852 41.9688 5.50781 57.9648h-0.541992v2.14941c-0.253906 0.990234 -0.500977 1.94141 -0.738281 2.84863h0.738281v207.174v3.4873
v1.33887h1.58203l104 88h1.13281c4.9834 45.8955 -62.8379 92.1289 -94.2158 139.501l-3 4l-1 1c-2.02051 3.99219 0.0439453 4.02539 -2.08398 11.5605c-0.0371094 0.130859 -0.189453 0.24707 -0.174805 0.367188l0.258789 2.07227l0.0644531 1.49902
c0.00976562 0.226562 0.150391 3.89551 0.242188 6.24414c3.11426 79.1523 5.19727 173.389 -83.8154 173.771c-136.35 16.7461 -373.536 9.53418 -431.49 -46.5137zM48.3545 723.521h55.5146l17.1611 52.2256l17.1602 -52.2256h55.5156l-44.8672 -32.2959l17.1611 -52.2246
l-44.9697 32.2959l-44.9707 -32.2959l17.1611 52.2246zM271 608l-12 60c128.725 89.7881 355.203 55.3633 442.457 48.5605c0 -0.0107422 0.000976562 -0.0214844 0.000976562 -0.0322266c27.4463 0.582031 75.1855 -1.32129 107.268 -33.4033
c40.1396 -40.1396 38.6152 -108.841 37.5254 -169.365c-0.395508 -21.9258 -0.433594 -33.2402 -0.22168 -41.9463c26.3789 -43.8281 72.168 -89.959 89.3252 -129.607c6.95117 -16.0635 5.49219 -24.7637 2.64551 -40.2051l-12 -14l-79.501 -63.5771v-212.431
c1.93945 -31.0869 1.82422 -79.2412 -27.416 -108.48c-26.0322 -26.0322 -182.507 -12.0195 -220.584 -13.0049l-2.90137 0.0126953c-103.732 -7.2998 -296.108 50.6025 -326.603 92.1719c-18.5059 25.2275 -31.4014 41.2529 -57.9951 55.3086v70.0371
c25.8174 -16.2627 49.624 -17.8066 70.1904 -60.6357c44.2188 -92.082 349.455 -105.734 451.309 -108.438l-0.499023 -0.962891c50 12 34.1514 4.48145 42.5352 13.5361c19.1768 20.7119 3.97852 41.9688 5.50781 57.9648h-0.541992v2.14941
c-0.253906 0.990234 -0.500977 1.94141 -0.738281 2.84863h0.738281v207.174v3.4873v1.33887h1.58203l104 88h1.13281c4.9834 45.8955 -62.8379 92.1289 -94.2158 139.501l-3 4l-1 1c-2.02051 3.99219 0.0439453 4.02539 -2.08398 11.5605
c-0.0371094 0.130859 -0.189453 0.24707 -0.174805 0.367188l0.258789 2.07227l0.0644531 1.49902c0.00976562 0.226562 0.150391 3.89551 0.242188 6.24414c3.11426 79.1523 5.19727 173.389 -83.8154 173.771c-136.35 16.7461 -373.536 9.53418 -431.49 -46.5137z
M575.597 300.645c1.35449 -24.0527 -10.0762 -92.5674 -3.35156 -96.1641c6.60059 -70.9678 75.3105 -137.276 75.3975 -134.719l-11.6426 -7.76172c-26.1934 28.5713 -55.4219 56.8467 -77.6934 134.266c-4.95801 -34.0889 -26.251 -72.2686 -45.3828 -96.5664
c-11.6416 -14.7832 -16.6328 -26.6113 -26.6113 -37.6992l-13.3057 10.5332c14.9688 19.4043 23.3711 31.9111 33.2637 44.9072c50.5127 66.3525 52.626 153.47 52.2344 199.623c4.7002 -0.104492 9.40039 -0.207031 14.1006 -0.311523
c2.64551 -0.0566406 2.75293 -2.62695 2.79785 -3.72559c0.00585938 -0.123047 -0.171875 -5.89844 0.193359 -12.3818zM693.23 314.346l-97.9795 -110.553l12.8379 -10.2305l83.4629 96.9756c6.93262 -11.4951 16.8262 -25.0859 20.1201 -34.0078l23.4209 33.3965z
M2197.67 411.444l110.333 -104.444l-110.333 -99.7227l5.33301 -327.277l-561 3l-6 63h507v306l77 55l-77 65l-6 294h-477l6 61.5557h531.667v-316.111zM1645 512.605c61.9736 0 112.448 -41.1416 112.448 -91.7646c0 -50.624 -50.4746 -91.8408 -112.448 -91.8408
s-112.447 41.1416 -112.447 91.7656s50.4736 91.8398 112.447 91.8398zM1645 336.467c57.8672 0 104.981 37.7812 104.981 84.2988s-47.1143 84.374 -104.981 84.374c-57.8662 0 -104.981 -37.7812 -104.981 -84.2988c0 -46.5176 47.1152 -84.374 104.981 -84.374z
M1437.98 720.875l37.1855 54.043c2.29688 3.33789 7.27148 3.3457 9.66016 0.306641l45.2246 -57.542c2.13086 -2.71191 1.47949 -6.79199 -1.3916 -8.70215c-0.647461 -0.430664 -1.41699 -0.742188 -2.13965 -0.887695l-7.70508 -1.55469
c-2.23438 -0.451172 -4.58496 0.498047 -5.90234 2.17188l-24.293 30.8799l1.17383 -123.925c0.0332031 -3.49219 -3.05371 -6.21973 -6.31543 -6.04785l-7.37012 0.388672c-3.27246 0.172852 -5.69824 3.08691 -5.68457 6.01953l0.578125 122.085l-19.7871 -28.707
c-1.95703 -2.83984 -6.04297 -3.4248 -8.72266 -1.25195c-0.408203 0.331055 -1.05078 1.10156 -1.09082 1.15723l-3.35059 4.66504c-1.54883 2.15625 -1.26855 5.15918 -0.0693359 6.90137zM1628.41 406.158l-20.3896 23.9141l1.60547 1.89062l18.8799 -21.1797
l32.9531 51.6953l1.85352 -1.80762zM1710.53 284.598c0 6.24609 -0.456055 8.12402 -0.456055 17.5371c0 1.47754 0.00195312 2.15723 0.0507812 4.8291c-0.0976562 1.86523 -0.400391 1.87207 -0.648438 1.87695l-15.5605 0.34375
c0.0136719 -2.30469 0.0224609 -4.67969 0.0224609 -7.12207c0 -63.7178 -5.86719 -173.048 -70.332 -257.728c-7.61328 -10.001 -28.0068 -38.5811 -42.4697 -57.4277l12.9531 -10.2549c11.7314 13.8018 18.6738 29.1777 33.4014 47.8809
c25.25 32.0664 53.3896 82.6943 59.873 127.265c0.222656 1.5332 1.54004 2.69238 3.11816 2.69238c1.41406 0 2.63867 -0.939453 3.02246 -2.27441c27.793 -96.6074 63.4023 -135.002 96.6162 -170.96c1.48633 -1.60938 2.96875 -3.21387 4.44531 -4.81836l9.43848 6.29297
c-16.4873 14.542 -89.4189 93.0898 -97.957 178.025c-1.01855 1.14941 -2.9834 3.46777 -2.9834 16.7861c0 26.583 7.46582 79.8877 7.46582 107.056zM1709.82 308.793c0 0 -0.0175781 0.00488281 0 0zM1867.7 279.062c1.03809 0 4.25684 -0.271484 6.24707 -3.46777
c1.26367 -2.02832 2.25 -3.61328 7.52832 -11.7783c5.30078 -8.19824 10.5869 -16.3564 14.2812 -23.6211l24.3691 34.6973l-48.8955 28.5254l-125.419 -141.514l10.4941 -8.36133c106.489 123.646 106.489 123.646 106.612 123.752
c1.38086 1.18359 3.08691 1.76758 4.78223 1.76758z" />
  </g>

</svg>
