<?xml version="1.0" standalone="no"?>
<!DOCTYPE svg PUBLIC "-//W3C//DTD SVG 1.1//EN" "http://www.w3.org/Graphics/SVG/1.1/DTD/svg11.dtd" >
<svg xmlns="http://www.w3.org/2000/svg" xmlns:xlink="http://www.w3.org/1999/xlink" version="1.1" viewBox="-10 0 1051 1000">
  <g transform="matrix(1 0 0 -1 0 800)">
   <path fill="currentColor"
d="M484.818 145.156c-22.5576 -11.1201 -22.7969 -11.2178 -25.1582 -11.2178c-1.39551 0 -4.18457 0.366211 -6.29883 2.98633c-0.276367 0.34082 -24.2227 34.7354 -25.1152 35.9551c-1.45898 1.99316 -3.26562 4.10547 -3.26562 7.44141
c0 4.61426 3.04102 6.68555 8.70801 10.5449c30.4922 20.9883 69.251 47.7314 74.0322 51.3457h19.6973c3.14844 0 5.7627 0.00585938 7.95508 0.00585938c9.07324 0 10.9248 -0.108398 13.5605 -1.22266c0.000976562 0 0.21875 -0.0820312 0.21875 -0.0820312
c1.61621 -0.59668 9.70898 -3.33594 19.7998 -3.33594h1.02051c6.67578 0 10.3203 0.595703 19.2285 4.63477h36.5234c0.853516 -0.585938 70.4854 -48.4297 84.9336 -59.2568c-6.88379 -10.3955 -10.1211 -15.4209 -19.3848 -30.7725
c-4.36133 -7.22949 -6.99414 -11.9307 -9.36426 -14.3018c-2.47559 -2.47461 -5.24902 -2.50977 -5.77051 -2.50977c-1.9541 0 -14.1787 3.44434 -34.0059 9.1582c11.2246 -123.703 11.2246 -123.703 11.2246 -123.947v-9.24023h-176.326
c1.08008 14.0342 1.08008 14.0342 1.96191 30.3633c0.000976563 0 1.76367 31.5469 1.76367 31.5469l1.77246 30.9941c0 0.00390625 1.55078 27.7129 2.28906 40.9102zM634 30c-0.110352 1.27637 -11.54 126.106 -11.54 127.571c0 4.4834 2.47949 7.625 5.82617 8.6543
v1.27344c1.68262 -0.429688 3.36523 -0.859375 5.04785 -1.29004l-0.0224609 -0.0898438c7.35938 -1.75391 28.1797 -7.94531 38.2314 -10.6572l14.0762 22.7734c-1.92578 1.33496 -4.06738 2.81445 -5.97168 4.12109c-32.0547 22.2705 -32.0547 22.2705 -59.3926 41.207
c-1.73535 0.0605469 -5.69238 0.155273 -13.1855 0.155273c-4.60742 0 -9.21484 0.00195312 -13.8213 0.00195312c-6.3457 -2.41504 -12.5762 -4.57617 -23.4424 -4.57617c-6.83398 0 -13.4014 0.110352 -27.6963 4.57617h-14.5938
c-6.97363 0 -11.6738 -0.0957031 -13.8584 -0.172852c-8.60352 -5.83398 -53.6172 -36.96 -66.2607 -45.7158c3.43555 -4.91602 8.0791 -11.6162 15.7402 -22.6689c7.56445 3.68848 25.7988 12.6152 29.5156 14.292c1.03613 0.652344 2.94141 0.786133 3.37305 0.786133
c0.0576172 0 0.078125 -0.0107422 0.078125 -0.0107422c4.56348 0 8.20703 -3.45508 8.20703 -9.07227c0 -0.204102 -0.652344 -10.709 -1.18164 -20.3896l-6.26953 -110.843c11.375 -0.0615234 33.1133 -0.0908203 56.3535 -0.0908203zM523.513 564.291
c1.55176 -27.5527 -11.542 -106.032 -3.83984 -110.151c7.56152 -81.292 86.2656 -157.245 86.3662 -154.314l-13.3369 -8.8916c-30.0039 32.7275 -63.4834 65.1152 -88.9951 153.795c-5.67773 -39.0469 -30.0684 -82.7812 -51.9834 -110.612
c-13.335 -16.9346 -19.0508 -30.4814 -30.4824 -43.1826l-15.2412 12.0664c17.1465 22.2256 26.7705 36.5518 38.1035 51.4375c57.8594 76.0049 60.2793 175.794 59.832 228.659c5.38379 -0.118164 10.7666 -0.237305 16.1514 -0.355469
c3.02832 -0.0664062 3.15137 -3.01074 3.20508 -4.2666c0.00585937 -0.142578 -0.196289 -6.75879 0.220703 -14.1836zM48.3545 723.521h55.5146l17.1611 52.2256l17.1602 -52.2256h55.5156l-44.8672 -32.2959l17.1611 -52.2246l-44.9697 32.2959l-44.9707 -32.2959
l17.1611 52.2246zM271 608l-12 60c128.725 89.7881 355.203 55.3633 442.457 48.5605c0 -0.0107422 0.000976562 -0.0214844 0.000976562 -0.0322266c27.4463 0.582031 75.1855 -1.32129 107.268 -33.4033c40.1396 -40.1396 38.6152 -108.841 37.5254 -169.365
c-0.395508 -21.9258 -0.433594 -33.2402 -0.22168 -41.9463c26.3789 -43.8281 72.168 -89.959 89.3252 -129.607c6.95117 -16.0635 5.49219 -24.7637 2.64551 -40.2051l-12 -14l-79.501 -63.5771v-212.431c1.93945 -31.0869 1.82422 -79.2412 -27.416 -108.48
c-26.0322 -26.0322 -182.507 -12.0195 -220.584 -13.0049l-2.90137 0.0126953c-103.732 -7.2998 -296.108 50.6025 -326.603 92.1719c-18.5059 25.2275 -31.4014 41.2529 -57.9951 55.3086v70.0371c25.8174 -16.2627 49.624 -17.8066 70.1904 -60.6357
c44.2188 -92.082 349.455 -105.734 451.309 -108.438l-0.499023 -0.962891c50 12 34.1514 4.48145 42.5352 13.5361c19.1768 20.7119 3.97852 41.9688 5.50781 57.9648h-0.541992v2.14941c-0.253906 0.990234 -0.500977 1.94141 -0.738281 2.84863h0.738281v207.174v3.4873
v1.33887h1.58203l104 88h1.13281c4.9834 45.8955 -62.8379 92.1289 -94.2158 139.501l-3 4l-1 1c-2.02051 3.99219 0.0439453 4.02539 -2.08398 11.5605c-0.0371094 0.130859 -0.189453 0.24707 -0.174805 0.367188l0.258789 2.07227l0.0644531 1.49902
c0.00976562 0.226562 0.150391 3.89551 0.242188 6.24414c3.11426 79.1523 5.19727 173.389 -83.8154 173.771c-136.35 16.7461 -373.536 9.53418 -431.49 -46.5137zM48.3545 723.521h55.5146l17.1611 52.2256l17.1602 -52.2256h55.5156l-44.8672 -32.2959l17.1611 -52.2246
l-44.9697 32.2959l-44.9707 -32.2959l17.1611 52.2246zM271 608l-12 60c128.725 89.7881 355.203 55.3633 442.457 48.5605c0 -0.0107422 0.000976562 -0.0214844 0.000976562 -0.0322266c27.4463 0.582031 75.1855 -1.32129 107.268 -33.4033
c40.1396 -40.1396 38.6152 -108.841 37.5254 -169.365c-0.395508 -21.9258 -0.433594 -33.2402 -0.22168 -41.9463c26.3789 -43.8281 72.168 -89.959 89.3252 -129.607c6.95117 -16.0635 5.49219 -24.7637 2.64551 -40.2051l-12 -14l-79.501 -63.5771v-212.431
c1.93945 -31.0869 1.82422 -79.2412 -27.416 -108.48c-26.0322 -26.0322 -182.507 -12.0195 -220.584 -13.0049l-2.90137 0.0126953c-103.732 -7.2998 -296.108 50.6025 -326.603 92.1719c-18.5059 25.2275 -31.4014 41.2529 -57.9951 55.3086v70.0371
c25.8174 -16.2627 49.624 -17.8066 70.1904 -60.6357c44.2188 -92.082 349.455 -105.734 451.309 -108.438l-0.499023 -0.962891c50 12 34.1514 4.48145 42.5352 13.5361c19.1768 20.7119 3.97852 41.9688 5.50781 57.9648h-0.541992v2.14941
c-0.253906 0.990234 -0.500977 1.94141 -0.738281 2.84863h0.738281v207.174v3.4873v1.33887h1.58203l104 88h1.13281c4.9834 45.8955 -62.8379 92.1289 -94.2158 139.501l-3 4l-1 1c-2.02051 3.99219 0.0439453 4.02539 -2.08398 11.5605
c-0.0371094 0.130859 -0.189453 0.24707 -0.174805 0.367188l0.258789 2.07227l0.0644531 1.49902c0.00976562 0.226562 0.150391 3.89551 0.242188 6.24414c3.11426 79.1523 5.19727 173.389 -83.8154 173.771c-136.35 16.7461 -373.536 9.53418 -431.49 -46.5137z" />
  </g>

</svg>
