<?xml version="1.0" standalone="no"?>
<!DOCTYPE svg PUBLIC "-//W3C//DTD SVG 1.1//EN" "http://www.w3.org/Graphics/SVG/1.1/DTD/svg11.dtd" >
<svg xmlns="http://www.w3.org/2000/svg" xmlns:xlink="http://www.w3.org/1999/xlink" version="1.1" viewBox="-10 0 1086 1000">
  <g transform="matrix(1 0 0 -1 0 800)">
   <path fill="currentColor"
d="M719.584 470.431zM583.271 562.137zM557.816 515.272zM657 454zM656.822 448.31zM581.039 469.47zM624.728 455.726zM743.898 525.868zM557.816 515.272zM743.898 525.868zM583.106 566.401c6.60742 13.2656 22.9912 22.3789 38.3525 22.3789
c6.02148 0 14.4053 -1.45508 20.5039 -8.30273c3.91992 -1.60742 7.52637 -1.89355 9.50195 -1.89355c2.03027 0 4.19727 0.269531 6.4082 0.984375c4.20117 5.09961 13.6396 10.2158 25.666 10.2158c7.88574 0 21.8672 -1.76367 43.1318 -23.0117h0.727539
c1.07715 -1.84375 1.07715 -1.84375 3.19434 -4.05371c6.43066 -11.1045 13.0322 -22.0381 19.3564 -33.249c0.905273 -2.80469 2.77832 -10.2461 3.80078 -14.3584l1.71973 -0.0273438c-0.97168 -20.3848 -1.27539 -26.7637 -29.085 -48.7373
c-22.085 -17.4521 -38.2217 -22.333 -74.5234 -22.333c-28.748 0 -56.7256 4.08691 -82.2393 29.5996c-14.3105 14.3115 -18.1621 26.8857 -18.7852 34.8789h-1.57031c1.52637 6.00293 1.52637 6.00293 1.7666 10.5967l1.00195 -0.015625l0.800781 3.00391h-2.80371
l4.16406 5.65332v4.16602h3.06738l25.3945 34.5049h0.448242zM550.739 510.956v0zM621.092 572.993c-4.99414 0 -18.9814 -2.72656 -24.5186 -15.7607l-1.41699 -3.33594l-1.64062 0.630859l-21.0811 -29.8447c-3.43457 -13.0234 -3.43457 -13.0234 -3.43457 -14.4883
c0 -8.42578 1.27246 -19.8574 25.3535 -36.7139c18.5596 -12.9922 33.9473 -15.332 54.1035 -15.332c37.5439 0 48.5732 4.4834 65.3301 18.1748c18.918 15.46 23.9541 21.5146 23.9541 28.3467c0 2.23828 -1.70898 9.53418 -4.95996 21.7539l-20.1289 31.749
c-7.43848 4.87402 -11.7119 8.71191 -14.2969 11.1582c-3.28027 3.05566 -6.43848 6.20117 -14.5449 6.20117c-5.50977 0 -9.625 -1.67285 -12.4268 -3.38574c-3.16211 -7.14453 -11.7354 -10.0166 -20.1006 -10.0166c-7.04102 0 -14.6416 2.06152 -19.9375 7.09375
c-0.00585938 0 -0.0742188 0.0332031 -0.0742188 0.0332031l-2.53027 1.03711l0.0742188 0.925781c-3.25098 1.73145 -5.86328 1.77344 -7.48535 1.77344h-0.238281zM359.601 413.633v243.974l3.37695 1.74609c22.5684 11.665 102.61 42.6084 191.777 -46.5537
c4.99316 -4.99316 6.16699 -6.2334 17.7969 -19.1094c10.3516 11.4727 12.7227 14.1006 18.75 20.1279c46.6328 46.6328 89.8613 60.7041 124.021 60.9395c27.2627 0.1875 48.3057 -8.34668 60.5273 -15.1758l3.2002 -1.78809v-241.94
c-12.2881 4.77539 -32.9395 12.8018 -54.6279 13.8516c-33.1182 1.90723 -88.6934 -7.50391 -150.743 -70.7354l-4.42676 -4.51172c-19.3408 19.4062 -70.6582 70.8984 -147.363 70.8984c-15.2461 0 -37.29 -3.78613 -54.1426 -9.13672zM344.693 669.855l3.1582 1.08203
c-0.854492 -0.558594 -1.47461 -1.35156 -3.1582 -1.08203zM796.4 666.831l-0.316406 1.09961l0.316406 -1.09961v0zM796.4 666.831l-3.5 2.625c-1.76562 1.3252 -101.11 71.5244 -216.054 -45.2764l-4.44629 -4.51758c-5.13184 5.19336 -5.13184 5.19336 -5.80957 5.87109
c-102.514 102.514 -196.705 57.8135 -218.788 45.1475c-1.13867 -0.571289 -1.41406 -0.741211 -5.70117 -3.66406v-283.604c13.293 8.57031 13.293 8.57031 13.5254 8.70312c6.88867 3.93652 96.8301 54.3389 195.841 -44.6719
c4.93848 -4.9375 5.9082 -5.95215 17.7832 -19.1045c10.877 12.0527 13.415 14.8662 19.8408 21.291c57.8828 57.8828 109.126 66.8877 144.529 61.8574c28.168 -4.00098 45.6807 -16.5908 48.624 -18.8281l14.1553 -11.0098v285.182zM796.4 381.649v0v0v0zM569.251 328.339
c1.38574 -1.53516 -1.72363 1.9082 -0.000976562 0l0.333984 1.0918s-2.77637 -3.79883 -0.333008 -1.0918zM342.102 383.412v-0.000976563v0v0.000976563zM342.102 667.017v0v0v0zM348.481 97.6934l-82.2217 148.848l24.0225 10.1475l58.4395 -100.383l53.3027 101.418
l27.2285 -11.0254zM265.568 -67.707v34.6641h38.626v22.0713h-38.626v34.6641h38.626v33.7148h31.3828v-33.7148h23.2197v31.2539h31.3828v-31.2539h41.292v-34.6641h-41.292v-22.0713h41.292v-34.6641h-41.292v-36.1855h-31.3828v36.1855h-23.2197v-33.7246h-31.3828
v33.7246h-38.626zM335.577 -33.043h23.2197v22.0713h-23.2197v-22.0713zM780.659 223.904c-0.529297 0 -0.985352 0.173828 -1.32227 0.358398l-214.094 -88.2627v-37.8242c12.126 5.10742 24.251 10.2148 36.376 15.3213v-3.77051l-0.21875 -161.659h318.305
l0.646484 155.446c10.9619 -6.48535 21.9238 -12.9697 32.8867 -19.4551l-0.677734 40.7051l-136.33 79.1182l1.46387 0.616211c-22.6963 11.7715 -24.457 12.7314 -36.2109 19.5508c-0.288086 -0.102539 -0.56543 -0.144531 -0.824219 -0.144531zM884.594 -16.7148
h-248.003l-0.665039 144.662l142.009 59.8174l107.859 -63.8086zM63.3545 -23.4795h55.5146l17.1611 52.2256l17.1602 -52.2256h55.5156l-44.8672 -32.2959l17.1611 -52.2246l-44.9697 32.2959l-44.9707 -32.2959l17.1611 52.2246z" />
  </g>

</svg>
