<?xml version="1.0" standalone="no"?>
<!DOCTYPE svg PUBLIC "-//W3C//DTD SVG 1.1//EN" "http://www.w3.org/Graphics/SVG/1.1/DTD/svg11.dtd" >
<svg xmlns="http://www.w3.org/2000/svg" xmlns:xlink="http://www.w3.org/1999/xlink" version="1.1" viewBox="-10 0 1043 1000">
  <g transform="matrix(1 0 0 -1 0 800)">
   <path fill="currentColor"
d="M582.51 408.49zM150.75 698.962zM70.1201 550.524zM384.28 356.447zM383.712 338.422zM143.676 405.447zM282.058 361.912zM659.523 584.086zM70.1201 550.524zM659.523 584.086zM670.152 594.202c5.56738 -16.8633 9.15234 -35.1133 13.835 -52.5947l3.26367 -0.0537109
c-2.48145 -52.3799 -3.41602 -72.1045 -88.4727 -139.314c-63.29 -50.0107 -109.626 -67.627 -214.95 -68.8145c-72.4492 -0.816406 -164.719 1.89551 -245.607 68.7969c-31.874 26.3613 -82.4697 77.3809 -82 135.336h-2.26758
c2.47754 9.29004 2.47754 9.29004 2.71387 16.4229l1.65918 -0.0283203l7.10254 26.6348h-3.11816c1.61914 2.19922 3.23828 4.39844 4.85645 6.59668v7.48438h5.50977l80.4365 109.291h2.55176c27.8301 65.0771 134.447 96.4268 175.858 46.0176
c5.87988 -2.64258 32.5469 -13.2822 60.626 -3.04492c14.4639 19.3584 55.1035 38.041 100.836 28.5576c44.2324 -9.17188 88.8516 -50.3193 108.428 -70.3535h0.938477c0.689453 -1.0166 1.16211 -2.18262 2.0293 -3.07227l6.15137 -6.41797l58.7324 -100.361
c0.875977 0.0751953 1.56836 0.0195312 1.43066 -0.616211zM97.1377 541.072c-0.974609 -33.3994 2.71973 -73.1191 83.835 -129.9c68.8311 -48.1816 125.865 -51.6426 204.166 -49.7031c91.2295 2.34863 129.297 14.0742 184.386 59.0889
c73.2568 59.8643 85.3945 78.625 76.585 113.791l-11.6484 46.5049l-0.427734 -0.763672c0.0244141 2.81445 -1.85742 6.39355 -1.83301 9.20898l-65.3672 103.1c-1.75391 -0.0693359 -0.353516 1.52441 -2.10742 1.45605
c-40.4619 26.6758 -44.7754 38.2334 -59.8896 47.1465c-23.2744 13.7246 -59.0566 10.9619 -81.8369 -4.58594c-11.3398 -34.1611 -81.7002 -39.6348 -114.121 -8.83008c-3.02148 2.87109 -5.25098 1.27344 -4.96484 4.79688
c-34.6553 23.8477 -99.5693 -0.178711 -117.913 -43.3818l-2.22461 -5.23926l-3.70801 1.42773l-71.4854 -101.205zM804.886 404.781c-0.442383 -21.6992 1.24707 -23.4043 0.348633 -46.0732c11.0908 1.6084 24.457 0.0820312 38.4893 -8.36816
c31.6299 19.624 60.7441 2.96289 69.7549 -6.41309c15.1943 -15.8096 27.6436 -53 -7.46973 -87.29c-36.7734 -35.9092 -41.8311 -40.6172 -43.584 -42.1641c-10.4775 -9.93262 -26.8809 -9.89746 -37.3643 0.254883l-29.2578 28.335
c-0.0380859 -0.504883 -3.50391 -46.8545 0.288086 -50.6475c1.52051 -1.52051 2.23535 -3.63672 2.38281 -5.41699c11.6758 -125.522 124.79 -247.099 146.561 -264.784c0.0546875 -0.0107422 2.44043 -0.701172 3.74805 -4.16895l8.30566 -4.63379l-40.0674 -26.7109
c-4.87988 5.29785 -9.75977 10.5957 -14.6387 15.8936c-46.6152 50.4658 -98.123 106.598 -139.356 231.653c-16.8096 -61.1396 -53.0615 -123.107 -86.252 -165.259c-28.3271 -35.9746 -26.4414 -45.835 -59.7334 -82.8242l-40.3223 31.9199
c24.5215 31.7871 71.792 96.6602 72.5293 97.6279c105.822 139.008 104.325 325.583 103.634 406.992c12.5518 -0.277344 25.1035 -0.553711 37.6543 -0.831055c7.96484 -0.169922 14.5742 -5.97461 14.3506 -17.0918zM874.812 314.053
c-11.8291 0 -15.2812 -16.0947 -30.8535 -16.0947c-8.54004 0 -13.709 5.1748 -16.1152 7.58105c-11.4062 9.17773 -12.7607 9.90918 -20.6074 6.31055c-0.0400391 -0.0390625 -0.0830078 -0.0605469 -0.131836 -0.0605469
c-0.335938 -0.966797 -0.922852 -2.98535 -2.35059 -7.89453l-0.131836 1.16406c0.0205078 -0.313477 0.0595703 -0.704102 0.131836 -1.16406c0.445312 -2.81738 2.15527 -8.17676 8.48828 -14.2852l30.751 -29.6631l30.4346 29.292
c3.84375 3.8584 8.99609 9.68359 9.09668 16.4932c-0.174805 0.926758 -1.49023 4.23438 -2.26855 5.91211l0.99707 -0.524414c-0.157227 0.117188 -0.515625 0.301758 -0.99707 0.524414c-1.78516 0.823242 -5.26367 2.17969 -6.44336 2.40918z" />
  </g>

</svg>
