<?xml version="1.0" standalone="no"?>
<!DOCTYPE svg PUBLIC "-//W3C//DTD SVG 1.1//EN" "http://www.w3.org/Graphics/SVG/1.1/DTD/svg11.dtd" >
<svg xmlns="http://www.w3.org/2000/svg" xmlns:xlink="http://www.w3.org/1999/xlink" version="1.1" viewBox="-10 0 1185 1000">
  <g transform="matrix(1 0 0 -1 0 800)">
   <path fill="currentColor"
d="M336.42 128.938zM547.457 239.674c0 0.678711 -0.078125 1.14941 -0.131836 1.4209l-14.7939 -2.4668l0.0253906 -0.157227zM514.439 168.763c0.202148 0.0615234 0.419922 0.12793 0.65332 0.202148l-4.50488 14.3086l-0.535156 -0.165039zM138.132 131.431
c-47.9258 0 -78.9238 45.8975 -78.9238 95.998c0 16.2197 4.60449 36.832 11.1846 64.2412c12.5098 49.6865 24.7188 99.2852 36.6934 149.059c23.6094 95.1299 52.916 188.051 103.617 238.751c35.6084 35.6084 74.3291 45.2402 105.826 45.2402
c90.3301 0 143.716 -67.3447 180.842 -175.275c13.46 -39.2949 13.46 -39.2949 59.3125 -223.567c20.6514 -82.9941 20.6514 -82.9941 20.6514 -98.043c0 -14.9531 -3.19043 -49.7129 -30.1182 -76.6406c-18.8232 -18.8232 -39.6484 -19.5674 -59.1318 -20.1885
c-5.18652 0.0205078 -69.2314 0.276367 -162.084 0.276367c-48.585 0 -105.059 -0.0703125 -165.114 -0.280273l-21.4971 0.435547h-0.25293c-0.335938 -0.00488281 -0.670898 -0.00585938 -1.00488 -0.00585938zM548.358 225.674
c0 13.791 -3.27734 28.2168 -7.81348 46.6396c-10.4375 39.1484 -10.4072 39.0293 -39.2588 157.807c-32.2656 128.545 -73.0547 259.934 -181.386 259.934c-33.7002 0 -89.957 -7.89453 -134.494 -103.366c-27.3428 -59.9033 -36.5176 -97.6709 -76.042 -260
c-18.3262 -73.5977 -21.499 -86.3389 -21.499 -99.7012c0 -33.2773 22.0576 -57.4053 40.4434 -59.6992c7.37012 -0.978516 14.7588 -1.46582 22.167 -1.46582c0.780273 0 1.56055 0.00488281 2.3418 0.015625l335.2 -0.145508l0.165039 0.0078125
c20.415 0.883789 30.8838 1.75098 43.541 15.3945c0.0263672 0.0195312 1.26562 1.37402 2.20996 2.40137v0.241211c10.7588 13.5801 14.4248 27.4492 14.4248 41.9375zM540.574 272.2v-0.00390625c0.000976562 -0.000976562 0 0.00390625 0 0.00390625zM925.22 481.585
l125.046 -110.318l-123.706 -107.002l-22.3135 25.3623l85.5039 71.5723h-1.79688s-307.245 0.279297 -307.316 0.358398l1.58398 28.998l314.085 -2.53809l-88.8447 74.7842z" />
  </g>

</svg>
