<?xml version="1.0" standalone="no"?>
<!DOCTYPE svg PUBLIC "-//W3C//DTD SVG 1.1//EN" "http://www.w3.org/Graphics/SVG/1.1/DTD/svg11.dtd" >
<svg xmlns="http://www.w3.org/2000/svg" xmlns:xlink="http://www.w3.org/1999/xlink" version="1.1" viewBox="-10 0 1008 1000">
  <g transform="matrix(1 0 0 -1 0 800)">
   <path fill="currentColor"
d="M430.92 44.4004c-0.0859375 0 -0.46875 0.163086 -0.46875 0.522461c0 0.0556641 0.0078125 0.111328 0.0214844 0.161133c-0.214844 4.19336 -0.429688 8.38574 -0.644531 12.5791l154.491 15.8447c-1.49219 0.142578 -2.86035 0.273438 -2.87598 0.275391
c-15.9385 2.71289 -21.8428 10.2109 -21.8428 25.9307c0 35.4258 29.7861 94.3916 35.8066 125.901c0.277344 1.45117 2.18066 2.52832 2.18066 3.61328c0 0.0761719 0.391602 1.01172 0.314453 1.5752l0.630859 -0.629883
c0.0146484 -0.50293 0.387695 -0.841797 0.40332 -1.34473v0c7.12988 -34.2969 34.0811 -79.7695 34.0811 -112.391c0 -10.7217 -3.18262 -18.6738 -8.02441 -28.4746c-1.11914 -2.2627 -2.49316 -5.04395 -4.29785 -8.87695
c-0.148438 -0.313477 -1.45215 -1.69727 -7.58594 -6.96094l-4.24707 1.76953l-0.478516 1.43359c0.125977 0.119141 8.52734 8.46777 8.98438 14.7588c0.220703 3.03418 0.324219 5.94336 0.324219 8.73438c0 28.2393 -10.6279 44.4277 -18.6455 56.6562
c-2.53418 3.86523 -4.81348 7.33594 -6.41309 10.6826c-6.88574 -21.5859 -22.1367 -43.8506 -22.1367 -65.1377c0 -10.5439 5.85938 -18.7734 5.98535 -18.8994c2.99512 -2.99609 4.99805 -5.08789 12.127 -7.20801v-0.967773l0.442383 0.0449219
c1.54688 3.77637 5.30859 7.35938 9.76465 7.35938c6.68359 0 9.96094 -5.87793 9.96094 -10.6113c0 -4.91602 -3.79297 -10.5098 -8.66992 -10.5098c-2.26172 0 -4.90234 1.0752 -7.1123 2.71777c-32.3037 -4.99219 -110.09 -13.7852 -159.411 -18.2617
c-1.3623 -0.123047 -2.23242 -0.197266 -2.53809 -0.214844c0 0 -0.0322266 -0.0722656 -0.125977 -0.0722656zM426.72 250.2c-0.0859375 0 -0.46875 0.163086 -0.46875 0.522461c0 0.0556641 0.0078125 0.111328 0.0214844 0.161133
c-0.214844 4.19336 -0.429688 8.38574 -0.644531 12.5791l154.491 15.8447c-1.49219 0.142578 -2.86035 0.273438 -2.87598 0.275391c-15.9385 2.71289 -21.8428 10.2109 -21.8428 25.9307c0 35.4258 29.7871 94.3916 35.8066 125.902
c0.277344 1.4502 2.18066 2.52734 2.18066 3.6123c0 0.0761719 0.392578 1.01172 0.314453 1.5752l0.630859 -0.629883c0.0146484 -0.501953 0.387695 -0.841797 0.40332 -1.34473v0c7.12988 -34.2969 34.0811 -79.7695 34.0811 -112.39
c0 -10.7227 -3.18164 -18.6738 -8.02441 -28.4756c-1.11816 -2.2627 -2.49219 -5.04395 -4.29785 -8.87598c-0.147461 -0.314453 -1.45215 -1.69824 -7.58594 -6.96191l-4.24609 1.76953l-0.478516 1.43457c0.125 0.118164 8.52637 8.4668 8.9834 14.7588
c0.220703 3.0332 0.324219 5.94238 0.324219 8.7334c0 28.2402 -10.627 44.4277 -18.6455 56.6572c-2.53418 3.86426 -4.8125 7.33496 -6.41211 10.6816c-6.88672 -21.5859 -22.1377 -43.8506 -22.1377 -65.1367c0 -10.5449 5.85938 -18.7744 5.98633 -18.9004
c2.99414 -2.99512 4.99707 -5.08789 12.127 -7.20801v-0.967773l0.441406 0.0449219c1.54785 3.77637 5.30859 7.35938 9.76465 7.35938c6.68359 0 9.96094 -5.87793 9.96094 -10.6113c0 -4.91602 -3.79297 -10.5098 -8.66895 -10.5098
c-2.2627 0 -4.90332 1.07617 -7.11328 2.71875c-32.3037 -4.99219 -110.09 -13.7861 -159.41 -18.2627c-1.3623 -0.123047 -2.2334 -0.196289 -2.53809 -0.214844c0 0 -0.0332031 -0.0722656 -0.126953 -0.0722656zM48.3545 723.521h55.5146l17.1611 52.2256
l17.1602 -52.2256h55.5156l-44.8672 -32.2959l17.1611 -52.2246l-44.9697 32.2959l-44.9707 -32.2959l17.1611 52.2246zM271 608l-12 60c128.725 89.7881 355.203 55.3633 442.457 48.5605c0 -0.0107422 0.000976562 -0.0214844 0.000976562 -0.0322266
c27.4463 0.582031 75.1855 -1.32129 107.268 -33.4033c40.1396 -40.1396 38.6152 -108.841 37.5254 -169.365c-0.395508 -21.9258 -0.433594 -33.2402 -0.22168 -41.9463c26.3789 -43.8281 72.168 -89.959 89.3252 -129.607
c6.95117 -16.0635 5.49219 -24.7637 2.64551 -40.2051l-12 -14l-79.501 -63.5771v-212.431c1.93945 -31.0869 1.82422 -79.2412 -27.416 -108.48c-26.0322 -26.0322 -182.507 -12.0195 -220.584 -13.0049l-2.90137 0.0126953
c-103.732 -7.2998 -296.108 50.6025 -326.603 92.1719c-18.5059 25.2275 -31.4014 41.2529 -57.9951 55.3086v70.0371c25.8174 -16.2627 49.624 -17.8066 70.1904 -60.6357c44.2188 -92.082 349.455 -105.734 451.309 -108.438l-0.499023 -0.962891
c50 12 34.1514 4.48145 42.5352 13.5361c19.1768 20.7119 3.97852 41.9688 5.50781 57.9648h-0.541992v2.14941c-0.253906 0.990234 -0.500977 1.94141 -0.738281 2.84863h0.738281v207.174v3.4873v1.33887h1.58203l104 88h1.13281
c4.9834 45.8955 -62.8379 92.1289 -94.2158 139.501l-3 4l-1 1c-2.02051 3.99219 0.0439453 4.02539 -2.08398 11.5605c-0.0371094 0.130859 -0.189453 0.24707 -0.174805 0.367188l0.258789 2.07227l0.0644531 1.49902
c0.00976562 0.226562 0.150391 3.89551 0.242188 6.24414c3.11426 79.1523 5.19727 173.389 -83.8154 173.771c-136.35 16.7461 -373.536 9.53418 -431.49 -46.5137zM48.3545 723.521h55.5146l17.1611 52.2256l17.1602 -52.2256h55.5156l-44.8672 -32.2959l17.1611 -52.2246
l-44.9697 32.2959l-44.9707 -32.2959l17.1611 52.2246zM271 608l-12 60c128.725 89.7881 355.203 55.3633 442.457 48.5605c0 -0.0107422 0.000976562 -0.0214844 0.000976562 -0.0322266c27.4463 0.582031 75.1855 -1.32129 107.268 -33.4033
c40.1396 -40.1396 38.6152 -108.841 37.5254 -169.365c-0.395508 -21.9258 -0.433594 -33.2402 -0.22168 -41.9463c26.3789 -43.8281 72.168 -89.959 89.3252 -129.607c6.95117 -16.0635 5.49219 -24.7637 2.64551 -40.2051l-12 -14l-79.501 -63.5771v-212.431
c1.93945 -31.0869 1.82422 -79.2412 -27.416 -108.48c-26.0322 -26.0322 -182.507 -12.0195 -220.584 -13.0049l-2.90137 0.0126953c-103.732 -7.2998 -296.108 50.6025 -326.603 92.1719c-18.5059 25.2275 -31.4014 41.2529 -57.9951 55.3086v70.0371
c25.8174 -16.2627 49.624 -17.8066 70.1904 -60.6357c44.2188 -92.082 349.455 -105.734 451.309 -108.438l-0.499023 -0.962891c50 12 34.1514 4.48145 42.5352 13.5361c19.1768 20.7119 3.97852 41.9688 5.50781 57.9648h-0.541992v2.14941
c-0.253906 0.990234 -0.500977 1.94141 -0.738281 2.84863h0.738281v207.174v3.4873v1.33887h1.58203l104 88h1.13281c4.9834 45.8955 -62.8379 92.1289 -94.2158 139.501l-3 4l-1 1c-2.02051 3.99219 0.0439453 4.02539 -2.08398 11.5605
c-0.0371094 0.130859 -0.189453 0.24707 -0.174805 0.367188l0.258789 2.07227l0.0644531 1.49902c0.00976562 0.226562 0.150391 3.89551 0.242188 6.24414c3.11426 79.1523 5.19727 173.389 -83.8154 173.771c-136.35 16.7461 -373.536 9.53418 -431.49 -46.5137z
M494.506 543.411l-50.9453 -51.4502l55.4395 -50.9609l-7.2168 -6.01172l-55.5029 51.0918l-50.1973 -51.0918l-5.24219 5.73242l49.5596 50.3994l-48.7197 50.6797l6.44043 6.16113l49.2793 -49l51.5205 49.2793z" />
  </g>

</svg>
