<?xml version="1.0" standalone="no"?>
<!DOCTYPE svg PUBLIC "-//W3C//DTD SVG 1.1//EN" "http://www.w3.org/Graphics/SVG/1.1/DTD/svg11.dtd" >
<svg xmlns="http://www.w3.org/2000/svg" xmlns:xlink="http://www.w3.org/1999/xlink" version="1.1" viewBox="-10 0 1026 1000">
  <g transform="matrix(1 0 0 -1 0 800)">
   <path fill="currentColor"
d="M232 279.363v172.637l16.7969 0.977539v-190.531l-127.813 0.338867l3.69531 190.363l15.4014 0.341797l-1.19824 -174.127h93.1182zM447.575 470.399l-6 30c64.3623 44.8936 177.602 27.6816 221.229 24.2793v-0.015625
c13.7236 0.291016 37.5938 -0.660156 53.6348 -16.7012c20.0693 -20.0703 19.3066 -54.4209 18.7617 -84.6836c-0.197266 -10.9629 -0.216797 -16.6191 -0.110352 -20.9727c13.1895 -21.9141 36.084 -44.9795 44.6631 -64.8037
c3.47461 -8.03223 2.74609 -12.3818 1.32227 -20.1025l-6 -7l-39.75 -31.7891v-106.215c0.96875 -15.543 0.912109 -39.6211 -13.709 -54.2402c-13.0156 -13.0156 -91.2529 -6.00977 -110.291 -6.50195l-1.45117 0.00585938
c-51.8662 -3.65039 -148.055 25.3008 -163.301 46.0859c-9.25391 12.6133 -15.7012 20.627 -28.998 27.6543v35.0186c12.9082 -8.13184 24.8125 -8.90332 35.0957 -30.3174c22.1094 -46.041 174.727 -52.8672 225.654 -54.2197l-0.25 -0.481445
c25 6 17.0762 2.24023 21.2676 6.76758c9.58789 10.3564 1.98926 20.9844 2.75391 28.9824h-0.271484v1.0752c-0.126953 0.495117 -0.25 0.970703 -0.369141 1.4248h0.369141v103.586v1.74414v0.669922h0.791016l52 44h0.566406
c2.49219 22.9473 -31.418 46.0645 -47.1074 69.75l-1.5 2l-0.5 0.5c-1.00977 1.99609 0.0214844 2.0127 -1.04199 5.78027c-0.0185547 0.0654297 -0.0947266 0.124023 -0.0869141 0.183594l0.128906 1.03613l0.0322266 0.75
c0.00488281 0.113281 0.0751953 1.94727 0.121094 3.12109c1.55762 39.5762 2.59863 86.6953 -41.9072 86.8867c-68.1758 8.37305 -186.769 4.7666 -215.746 -23.2578v0zM561.588 289.195c2.95605 0 8.29102 0 17.2725 -6.59375
c7.99609 -5.86914 7.96875 -7.77051 9.76074 -7.77051c0.106445 0 0.225586 0.00195312 0.360352 0.00195312c1.21777 0 1.87988 0.661133 2.27734 1.05859c5.08691 5.08789 12.9688 13.3125 25.2705 13.3125c6.05859 0 14.915 -4.14648 17.1973 -6.88672
c3.2041 -3.84766 6.02539 -11.0098 6.02539 -15.8066c0 -4.20996 0 -13.1553 -12.7139 -25.9004l-38.0381 -36.6104c-38.3564 37 -38.3564 37 -38.5518 37.1953c-3.3457 3.3457 -11.5342 11.5342 -12.0713 25.167c2.97559 10.2324 4.29785 14.7803 6.99902 16.8906
c4.07617 3.18652 11.3506 5.94238 16.2119 5.94238zM561.338 298.733c-9.40918 0 -19.5527 -5.21484 -23.6631 -9.3252c-3.50098 -3.50195 -8.96973 -14.2148 -8.96973 -22.8359c0 -0.5 0.0146484 -1.1123 0.0400391 -1.64844l0.00683594 -0.137695v-0.137695
c0.0498047 -15.4668 12.4268 -28.4668 15.5303 -31.123l38.5684 -37.3496c1.63086 -1.57812 3.73633 -2.50684 6.06641 -2.50684c3.18262 0 4.88379 1.49023 6.18457 2.62988c0.40918 0.359375 29.3525 28.1035 39.1377 37.8887
c14.5137 14.5137 15.0156 26.3564 15.0156 32.2568v0.0820312c0 8.67188 -4.6416 18.5098 -9.48242 23.3506c-3.55762 3.55762 -14.6367 8.98535 -23.2803 9.00977c-11.9932 -0.242188 -15.8955 -2.86621 -27.6709 -11.6133c-8.56836 6.3584 -15.4434 11.46 -27.4834 11.46z
M561.588 289.195c2.95605 0 8.29102 0 17.2725 -6.59375c7.99609 -5.86914 7.96875 -7.77051 9.76074 -7.77051c0.106445 0 0.225586 0.00195312 0.360352 0.00195312c1.21777 0 1.87988 0.661133 2.27734 1.05859c5.08691 5.08789 12.9688 13.3125 25.2705 13.3125
c6.05859 0 14.915 -4.14648 17.1973 -6.88672c3.2041 -3.84766 6.02539 -11.0098 6.02539 -15.8066c0 -4.20996 0 -13.1553 -12.7139 -25.9004l-38.0381 -36.6104c-38.3564 37 -38.3564 37 -38.5518 37.1953c-3.3457 3.3457 -11.5342 11.5342 -12.0713 25.167
c2.97559 10.2324 4.29785 14.7803 6.99902 16.8906c4.07617 3.18652 11.3506 5.94238 16.2119 5.94238zM561.338 298.733c-9.40918 0 -19.5527 -5.21484 -23.6631 -9.3252c-3.50098 -3.50195 -8.96973 -14.2148 -8.96973 -22.8359
c0 -0.5 0.0146484 -1.1123 0.0400391 -1.64844l0.00683594 -0.137695v-0.137695c0.0498047 -15.4668 12.4268 -28.4668 15.5303 -31.123l38.5684 -37.3496c1.63086 -1.57812 3.73633 -2.50684 6.06641 -2.50684c3.18262 0 4.88379 1.49023 6.18457 2.62988
c0.40918 0.359375 29.3525 28.1035 39.1377 37.8887c14.5137 14.5137 15.0156 26.3564 15.0156 32.2568v0.0820312c0 8.67188 -4.6416 18.5098 -9.48242 23.3506c-3.55762 3.55762 -14.6367 8.98535 -23.2803 9.00977
c-11.9932 -0.242188 -15.8955 -2.86621 -27.6709 -11.6133c-8.56836 6.3584 -15.4434 11.46 -27.4834 11.46zM48.3545 723.521h55.5146l17.1611 52.2256l17.1602 -52.2256h55.5156l-44.8672 -32.2959l17.1611 -52.2246l-44.9697 32.2959l-44.9707 -32.2959l17.1611 52.2246z
M271 608l-12 60c128.725 89.7881 355.203 55.3633 442.457 48.5605c0 -0.0107422 0.000976562 -0.0214844 0.000976562 -0.0322266c27.4463 0.582031 75.1855 -1.32129 107.268 -33.4033c40.1396 -40.1396 38.6152 -108.841 37.5254 -169.365
c-0.395508 -21.9258 -0.433594 -33.2402 -0.22168 -41.9463c26.3789 -43.8281 72.168 -89.959 89.3252 -129.607c6.95117 -16.0635 5.49219 -24.7637 2.64551 -40.2051l-12 -14l-79.501 -63.5771v-212.431c1.93945 -31.0869 1.82422 -79.2412 -27.416 -108.48
c-26.0322 -26.0322 -182.507 -12.0195 -220.584 -13.0049l-2.90137 0.0126953c-103.732 -7.2998 -296.108 50.6025 -326.603 92.1719c-18.5059 25.2275 -31.4014 41.2529 -57.9951 55.3086v70.0371c25.8174 -16.2627 49.624 -17.8066 70.1904 -60.6357
c44.2188 -92.082 349.455 -105.734 451.309 -108.438l-0.499023 -0.962891c50 12 34.1514 4.48145 42.5352 13.5361c19.1768 20.7119 3.97852 41.9688 5.50781 57.9648h-0.541992v2.14941c-0.253906 0.990234 -0.500977 1.94141 -0.738281 2.84863h0.738281v207.174v3.4873
v1.33887h1.58203l104 88h1.13281c4.9834 45.8955 -62.8379 92.1289 -94.2158 139.501l-3 4l-1 1c-2.02051 3.99219 0.0439453 4.02539 -2.08398 11.5605c-0.0371094 0.130859 -0.189453 0.24707 -0.174805 0.367188l0.258789 2.07227l0.0644531 1.49902
c0.00976562 0.226562 0.150391 3.89551 0.242188 6.24414c3.11426 79.1523 5.19727 173.389 -83.8154 173.771c-136.35 16.7461 -373.536 9.53418 -431.49 -46.5137zM505.5 424.501l-1.22559 8.12598l113.951 0.109375l-0.225586 -8.23535h-112.5zM505.5 381
l-0.674805 8.80566l113.13 -0.540039l0.0449219 -8.26562h-112.5z" />
  </g>

</svg>
