<?xml version="1.0" standalone="no"?>
<!DOCTYPE svg PUBLIC "-//W3C//DTD SVG 1.1//EN" "http://www.w3.org/Graphics/SVG/1.1/DTD/svg11.dtd" >
<svg xmlns="http://www.w3.org/2000/svg" xmlns:xlink="http://www.w3.org/1999/xlink" version="1.1" viewBox="-10 0 1051 1000">
  <g transform="matrix(1 0 0 -1 0 800)">
   <path fill="currentColor"
d="M516.531 335.525l86.584 -6.59668l1.48242 17.5107l-54.9951 3.29492l123.409 91.5469l-11.5176 13.9648l-121.909 -91.7471l12.2109 51.2178l-17.6445 3.14551zM428.466 205.362c40.5205 0 73.4023 32.8809 73.4023 73.4023
c0 40.5205 -32.8809 73.4023 -73.4023 73.4023c-35.4414 0 -66.3486 -26.7891 -72.3418 -61.0684l-0.541992 -3.09863h-156.582v-18.4707h156.582c1.41895 -8.11816 4.48535 -25.6553 21.1631 -42.333c13.4473 -13.4473 31.9033 -21.834 51.7207 -21.834zM483.272 278.765
c0 -30.3184 -24.6113 -54.9316 -54.9316 -54.9316c-24.5439 0 -46.6543 17.5928 -53.0664 40.9502l-1.30273 4.74609h27.1309c1.75879 -3.83008 3.15137 -6.86328 6.97754 -10.6895c5.29297 -5.29297 12.5889 -8.75488 20.2607 -8.75488
c15.8369 0 28.6797 12.8467 28.6797 28.6797c0 16.9912 -14.0674 28.6797 -28.6357 28.6797c-12.6436 0 -22.3379 -8.67676 -26.2803 -17.2627l-1.00195 -2.18164h-27.124c2.48438 8.97949 5.16504 18.6738 15.708 29.2168c11.4014 11.4014 25.1484 16.4316 38.5459 16.4316
c28.5205 0 55.04 -22.6777 55.04 -54.8838zM48.3545 723.521h55.5146l17.1611 52.2256l17.1602 -52.2256h55.5156l-44.8672 -32.2959l17.1611 -52.2246l-44.9697 32.2959l-44.9707 -32.2959l17.1611 52.2246zM271 608l-12 60
c128.725 89.7881 355.203 55.3633 442.457 48.5605c0 -0.0107422 0.000976562 -0.0214844 0.000976562 -0.0322266c27.4463 0.582031 75.1855 -1.32129 107.268 -33.4033c40.1396 -40.1396 38.6152 -108.841 37.5254 -169.365
c-0.395508 -21.9258 -0.433594 -33.2402 -0.22168 -41.9463c26.3789 -43.8281 72.168 -89.959 89.3252 -129.607c6.95117 -16.0635 5.49219 -24.7637 2.64551 -40.2051l-12 -14l-79.501 -63.5771v-212.431c1.93945 -31.0869 1.82422 -79.2412 -27.416 -108.48
c-26.0322 -26.0322 -182.507 -12.0195 -220.584 -13.0049l-2.90137 0.0126953c-103.732 -7.2998 -296.108 50.6025 -326.603 92.1719c-18.5059 25.2275 -31.4014 41.2529 -57.9951 55.3086v70.0371c25.8174 -16.2627 49.624 -17.8066 70.1904 -60.6357
c44.2188 -92.082 349.455 -105.734 451.309 -108.438l-0.499023 -0.962891c50 12 34.1514 4.48145 42.5352 13.5361c19.1768 20.7119 3.97852 41.9688 5.50781 57.9648h-0.541992v2.14941c-0.253906 0.990234 -0.500977 1.94141 -0.738281 2.84863h0.738281v207.174v3.4873
v1.33887h1.58203l104 88h1.13281c4.9834 45.8955 -62.8379 92.1289 -94.2158 139.501l-3 4l-1 1c-2.02051 3.99219 0.0439453 4.02539 -2.08398 11.5605c-0.0371094 0.130859 -0.189453 0.24707 -0.174805 0.367188l0.258789 2.07227l0.0644531 1.49902
c0.00976562 0.226562 0.150391 3.89551 0.242188 6.24414c3.11426 79.1523 5.19727 173.389 -83.8154 173.771c-136.35 16.7461 -373.536 9.53418 -431.49 -46.5137z" />
  </g>

</svg>
