<?xml version="1.0" standalone="no"?>
<!DOCTYPE svg PUBLIC "-//W3C//DTD SVG 1.1//EN" "http://www.w3.org/Graphics/SVG/1.1/DTD/svg11.dtd" >
<svg xmlns="http://www.w3.org/2000/svg" xmlns:xlink="http://www.w3.org/1999/xlink" version="1.1" viewBox="-10 0 1051 1000">
  <g transform="matrix(1 0 0 -1 0 800)">
   <path fill="currentColor"
d="M64.9736 733.206h55.5146l17.1611 52.2256l17.1602 -52.2256h55.5156l-44.8672 -32.2959l17.1611 -52.2246l-44.9697 32.2959l-44.9707 -32.2959l17.1611 52.2246zM287.619 617.686l-12 60c128.725 89.7881 355.203 55.3633 442.457 48.5605
c0 -0.0107422 0.000976563 -0.0214844 0.000976563 -0.0322266c27.4463 0.582031 75.1855 -1.32129 107.268 -33.4033c40.1396 -40.1396 38.6152 -108.841 37.5254 -169.365c-0.395508 -21.9258 -0.433594 -33.2402 -0.22168 -41.9463
c26.3789 -43.8281 72.168 -89.959 89.3252 -129.607c6.95117 -16.0635 5.49219 -24.7637 2.64551 -40.2051l-12 -14l-79.501 -63.5771v-212.431c1.93945 -31.0869 1.82422 -79.2412 -27.416 -108.48c-26.0322 -26.0322 -182.507 -12.0195 -220.584 -13.0049
l-2.90137 0.0126953c-103.732 -7.2998 -296.108 50.6025 -326.603 92.1719c-18.5059 25.2275 -31.4014 41.2529 -57.9951 55.3086v70.0371c25.8174 -16.2627 49.624 -17.8066 70.1904 -60.6357c44.2188 -92.082 349.455 -105.734 451.309 -108.438l-0.499023 -0.962891
c50 12 34.1514 4.48145 42.5352 13.5361c19.1768 20.7119 3.97852 41.9688 5.50781 57.9648h-0.541992v2.14941c-0.253906 0.990234 -0.500977 1.94141 -0.738281 2.84863h0.738281v207.174v3.4873v1.33887h1.58203l104 88h1.13281
c4.9834 45.8955 -62.8379 92.1289 -94.2158 139.501l-3 4l-1 1c-2.02051 3.99219 0.0439453 4.02539 -2.08398 11.5605c-0.0371094 0.130859 -0.189453 0.24707 -0.174805 0.367188l0.258789 2.07227l0.0644531 1.49902
c0.00976562 0.226562 0.150391 3.89551 0.242188 6.24414c3.11426 79.1523 5.19727 173.389 -83.8154 173.771c-136.35 16.7461 -373.536 9.53418 -431.49 -46.5137zM653.375 302.661c0 0.133789 -0.347656 10.8408 -0.347656 13.4609
c0 1.93848 0.0371094 3.7373 0.0371094 3.77539c0 1.48047 -0.275391 2.86719 -1.92578 2.90234l-13.6221 0.300781c0.0166016 -2.23633 0.0273438 -4.56055 0.0273438 -6.96973c0 -49.5674 -4.58398 -134.436 -54.5078 -200.014
c-0.345703 -0.455078 -26.0859 -35.6299 -33.96 -45.877c1.07715 -0.857422 1.07715 -0.857422 12.3379 -9.77148c7.0918 7.58203 16.2852 24.8945 26.9512 38.4385c18.2695 23.2021 38.4854 58.7168 45.4844 91.6992l2.4043 11.3281l3.39648 -11.0713
c21.3721 -69.6602 48.2598 -98.7363 73.2285 -125.767l4.30078 -4.66895l7.29785 4.86523l-1.19629 0.667969c0.480469 1.09961 0.961914 2.19922 1.44238 3.2998c-13.5459 12.3018 -68.6172 72.6592 -74.8877 137.292
c-0.492188 0.235352 -2.29199 1.79883 -2.29199 12.0674c0 19.875 5.83105 62.9199 5.83105 84.041zM450.176 306.661c0 0.133789 -0.348633 10.8408 -0.348633 13.4609c0 1.93848 0.0371094 3.7373 0.0371094 3.77539c0 1.48047 -0.274414 2.86719 -1.92578 2.90234
l-13.6221 0.300781c0.0166016 -2.23633 0.0273438 -4.56055 0.0273438 -6.96973c0 -49.5674 -4.58398 -134.436 -54.5078 -200.014c-0.345703 -0.455078 -26.0859 -35.6299 -33.96 -45.877c1.07715 -0.857422 1.07715 -0.857422 12.3379 -9.77148
c7.0918 7.58203 16.2861 24.8945 26.9512 38.4385c18.2695 23.2021 38.4854 58.7168 45.4844 91.6992l2.4043 11.3281l3.39648 -11.0713c21.3721 -69.6602 48.2607 -98.7363 73.2285 -125.767l4.30176 -4.66895l7.29688 4.86523l-1.19531 0.667969
c0.480469 1.09961 0.960938 2.19922 1.44141 3.2998c-13.5459 12.3018 -68.6172 72.6592 -74.8867 137.292c-0.493164 0.235352 -2.29297 1.79883 -2.29297 12.0674c0 19.875 5.83203 62.9199 5.83203 84.041zM685 409.92l-324 1.08008v21.3799h290.5v121.4h-290.5v21.3799
l321.12 -1.80078z" />
  </g>

</svg>
