<?xml version="1.0" standalone="no"?>
<!DOCTYPE svg PUBLIC "-//W3C//DTD SVG 1.1//EN" "http://www.w3.org/Graphics/SVG/1.1/DTD/svg11.dtd" >
<svg xmlns="http://www.w3.org/2000/svg" xmlns:xlink="http://www.w3.org/1999/xlink" version="1.1" viewBox="-10 0 1114 1000">
  <g transform="matrix(1 0 0 -1 0 800)">
   <path fill="currentColor"
d="M30.3242 741.553h55.5146l17.1611 52.2256l17.1602 -52.2256h55.5156l-44.8672 -32.2959l17.1611 -52.2246l-44.9697 32.2959l-44.9707 -32.2959l17.1611 52.2246zM271 608l-12 60c128.725 89.7881 355.203 55.3633 442.457 48.5605
c0 -0.0107422 0.000976562 -0.0214844 0.000976562 -0.0322266c27.4463 0.582031 75.1855 -1.32129 107.268 -33.4033c40.1396 -40.1396 38.6152 -108.841 37.5254 -169.365c-0.395508 -21.9258 -0.433594 -33.2402 -0.22168 -41.9463
c26.3789 -43.8281 72.168 -89.959 89.3252 -129.607c6.95117 -16.0635 5.49219 -24.7637 2.64551 -40.2051l-12 -14l-79.501 -63.5771v-212.431c1.93945 -31.0869 1.82422 -79.2412 -27.416 -108.48c-26.0322 -26.0322 -182.507 -12.0195 -220.584 -13.0049
l-2.90137 0.0126953c-103.732 -7.2998 -296.108 50.6025 -326.603 92.1719c-18.5059 25.2275 -31.4014 41.2529 -57.9951 55.3086v70.0371c25.8174 -16.2627 49.624 -17.8066 70.1904 -60.6357c44.2188 -92.082 349.455 -105.734 451.309 -108.438l-0.499023 -0.962891
c50 12 34.1514 4.48145 42.5352 13.5361c19.1768 20.7119 3.97852 41.9688 5.50781 57.9648h-0.541992v2.14941c-0.253906 0.990234 -0.500977 1.94141 -0.738281 2.84863h0.738281v207.174v3.4873v1.33887h1.58203l104 88h1.13281
c4.9834 45.8955 -62.8379 92.1289 -94.2158 139.501l-3 4l-1 1c-2.02051 3.99219 0.0439453 4.02539 -2.08398 11.5605c-0.0371094 0.130859 -0.189453 0.24707 -0.174805 0.367188l0.258789 2.07227l0.0644531 1.49902
c0.00976562 0.226562 0.150391 3.89551 0.242188 6.24414c3.11426 79.1523 5.19727 173.389 -83.8154 173.771c-136.35 16.7461 -373.536 9.53418 -431.49 -46.5137zM687.258 88.4854c0.213867 0.00878906 13.7686 0.000976562 13.7725 0.0078125
c-4.1748 17.5117 -3.00195 23.1494 -1.47949 28.0625c0.0146484 0.0449219 1.19238 4.11816 1.35352 4.43945l9.84668 19.6934c-5.04004 78.1201 -5.04004 78.1201 -5.01172 78.4551c1.65527 19.6543 3.09961 42.5801 1.41211 57.2646
c-4.38867 17.4307 -15.2783 13.752 -17.8213 8.17676c-0.899414 -1.96973 -1.91211 -2.20215 -4.52637 -2.80078c-2.03223 -1.81738 -5.22852 -1.41992 -6.74902 0.869141c-1.90527 2.87012 -10.7207 16.5205 -10.9521 16.9736
c-3.1875 6.24414 -15.4854 10.085 -17.8359 -2.27441c-0.0849609 -0.447266 -0.0849609 -0.447266 -4.28223 -10.6787c-1.56445 -3.81152 -7.07715 -3.65332 -8.41699 0.244141l-7.89648 22.9707c-2.11133 6.14062 -15.2812 11.0439 -22.2393 -0.583984
c-0.12793 -0.383789 -1.06738 -3.23145 -6.14453 -19.1553c-1.10352 -3.46191 -5.70996 -4.25293 -7.89941 -1.31152c-6.49512 8.72754 -6.49512 8.72754 -6.60938 8.8418c-0.0429688 0.0429688 -7.41797 7.40625 -11.5957 3.22754
c-2.28809 -2.28809 -3.58203 -7.87402 -4.15234 -11.2988c0.0166016 -0.513672 0.118164 -3.54492 0.680664 -18.248c0.334961 -9.15527 0.742188 -28.7207 0.750977 -29.0107c2.67773 -19.0869 1.43945 -19.6826 2.83203 -29.8945
c0.101562 -0.392578 0.873047 -3.36914 4.88379 -18.5508c0.0390625 -0.148438 0.40625 -8.64844 -0.756836 -10.625c-2.85938 -4.85938 -3.05762 -5.19727 -4.94336 -5.62891c-7.46484 -1.71094 -9.82617 -0.207031 -12.3506 3.29492
c-1.29785 1.80176 -10.1279 10.6514 -11.0156 11.6758l-18.5039 21.3506c-0.5 0.330078 -3.06738 2.0127 -10.793 6.90625c-0.451172 0.136719 -2.61426 0.782227 -9.14355 2.61035c-1.8252 -1.00098 -4.00195 -0.397461 -5.65234 -2.04785
c-1.19824 -1.19824 -2.58008 -5.21094 -2.14062 -7.48242l10.209 -13.7295c1.9668 -1.84375 12.417 -10.9531 12.9297 -11.5723c15.2549 -18.4473 15.2549 -18.4473 15.3281 -18.5469c11.0859 -15.0205 11.0859 -15.0205 11.1699 -15.1514
c9.99609 -15.71 9.99609 -15.71 10.1377 -16.0371l7.7207 -17.8984c2.13379 -3.30664 10.3799 -15.748 10.6006 -16.168c3.47363 -6.60059 3.47363 -6.60059 3.60449 -7.14941c2.58496 -10.833 20.8926 -11.3721 21.1328 -11.376l20.0254 -0.357422zM701.031 79.4902
h-13.4912c-60.6963 -2.52051 -60.6963 -2.52051 -60.8311 -2.51855l-20.1689 0.360352c-3.20215 0.0605469 -25.0654 1.08301 -29.5654 17.6914l-2.86523 5.44434c-10.4854 15.9062 -10.3066 15.3789 -10.9414 16.8496l-7.63672 17.7051l-9.53125 14.9775l-10.8291 14.6709
l-14.8721 17.9844c-12.7754 11.3154 -12.7754 11.3154 -13.3359 12.0693l-10.4404 14.04c-3.72461 5.00879 -1.12402 14.7822 3.13184 19.0391c2.49609 2.49609 4.84961 3.25781 8.33789 3.90039c1.93066 0.863281 4.10254 1.0127 6.11621 0.448242
c9.49805 -2.65918 9.70508 -2.51855 11.374 -3.57617c10.1924 -6.45508 10.9658 -6.69922 12.4258 -8.1582c0.169922 -0.170898 -0.21875 -0.527344 18.9297 -21.8164c9.97656 -11.0918 10.3662 -10.7363 11.7988 -12.6777
c0.236328 0.0214844 0.561523 0.0615234 0.97168 0.128906l0.482422 0.819336l0.214844 5.37988c-4.79883 18.1602 -4.74609 17.6582 -4.9082 18.8438c-1.5 10.9189 -0.180664 11.0752 -2.87598 30.209c-0.0410156 0.294922 -0.580078 23.6602 -0.801758 29.709
c-0.719727 18.7998 -0.891602 18.0586 -0.611328 19.7979c0.875977 5.42969 2.89551 17.9434 13.4678 20.1729c8.79102 1.85449 17.3115 -6.39844 18.4814 -7.96973l1.30859 -1.75879c3.5127 11.1465 3.40039 11.0723 4.22363 12.4727
c10.8809 18.5068 34.0117 12.4131 38.5898 -0.904297l3.86328 -11.2383c5.38867 18.1084 27.0645 15.4121 33.9609 2.35742c0.0810547 -0.125 7.74902 -12.0371 8.03711 -12.4824c7.56543 9.77832 26.7236 11.4268 32.835 -12.8438
c0.0966797 -0.386719 0.168945 -0.779297 0.213867 -1.17383c1.84277 -16.0342 0.304688 -38.9639 -1.35645 -58.7246l4.99707 -77.4463c0.101562 -1.57422 -0.208008 -3.16992 -0.928711 -4.61133l-9.62891 -19.2578
c-0.277344 -1.07324 -0.600586 -2.14453 -1.02832 -3.52246c-1.19824 -3.86719 -2.46289 -6.09473 1.6377 -23.2939c1.34863 -5.65332 -2.93555 -11.0967 -8.75098 -11.0967zM716 376l-243 0.80957v16.0352h217.875v91.0498h-217.875v16.0352l240.84 -1.35059z" />
  </g>

</svg>
