<?xml version="1.0" standalone="no"?>
<!DOCTYPE svg PUBLIC "-//W3C//DTD SVG 1.1//EN" "http://www.w3.org/Graphics/SVG/1.1/DTD/svg11.dtd" >
<svg xmlns="http://www.w3.org/2000/svg" xmlns:xlink="http://www.w3.org/1999/xlink" version="1.1" viewBox="-10 0 961 1000">
  <g transform="matrix(1 0 0 -1 0 800)">
   <path fill="currentColor"
d="M30.3242 741.553h55.5146l17.1611 52.2256l17.1602 -52.2256h55.5156l-44.8672 -32.2959l17.1611 -52.2246l-44.9697 32.2959l-44.9707 -32.2959l17.1611 52.2246zM271 608l-12 60c128.725 89.7881 355.203 55.3633 442.457 48.5605
c0 -0.0107422 0.000976562 -0.0214844 0.000976562 -0.0322266c27.4463 0.582031 75.1855 -1.32129 107.268 -33.4033c40.1396 -40.1396 38.6152 -108.841 37.5254 -169.365c-0.395508 -21.9258 -0.433594 -33.2402 -0.22168 -41.9463
c26.3789 -43.8281 72.168 -89.959 89.3252 -129.607c6.95117 -16.0635 5.49219 -24.7637 2.64551 -40.2051l-12 -14l-79.501 -63.5771v-212.431c1.93945 -31.0869 1.82422 -79.2412 -27.416 -108.48c-26.0322 -26.0322 -182.507 -12.0195 -220.584 -13.0049
l-2.90137 0.0126953c-103.732 -7.2998 -296.108 50.6025 -326.603 92.1719c-18.5059 25.2275 -31.4014 41.2529 -57.9951 55.3086v70.0371c25.8174 -16.2627 49.624 -17.8066 70.1904 -60.6357c44.2188 -92.082 349.455 -105.734 451.309 -108.438l-0.499023 -0.962891
c50 12 34.1514 4.48145 42.5352 13.5361c19.1768 20.7119 3.97852 41.9688 5.50781 57.9648h-0.541992v2.14941c-0.253906 0.990234 -0.500977 1.94141 -0.738281 2.84863h0.738281v207.174v3.4873v1.33887h1.58203l104 88h1.13281
c4.9834 45.8955 -62.8379 92.1289 -94.2158 139.501l-3 4l-1 1c-2.02051 3.99219 0.0439453 4.02539 -2.08398 11.5605c-0.0371094 0.130859 -0.189453 0.24707 -0.174805 0.367188l0.258789 2.07227l0.0644531 1.49902
c0.00976562 0.226562 0.150391 3.89551 0.242188 6.24414c3.11426 79.1523 5.19727 173.389 -83.8154 173.771c-136.35 16.7461 -373.536 9.53418 -431.49 -46.5137zM515.741 154.979c-1.93262 -0.246094 -3.93262 0.884766 -4.77344 2.66602
c-0.204102 -0.594727 -0.533203 -1.15137 -0.955078 -1.60938c-0.805664 -0.870117 -2.06152 -1.40039 -3.30078 -1.44922l4.81641 -4.96777zM463.374 199.295c-4.22266 4.56348 -8.52246 8.90332 -12.4971 13.1992c3.15137 -3.25098 8.43359 -9.00781 12.4971 -13.1992z
M506.436 245.841c-1.99707 41.5068 -4.46582 83.833 -6.43457 124.741c2.19531 -39.873 4.15918 -83.4219 6.43457 -124.741zM565.169 217.859c0.785156 0.998047 1.55859 2.03223 2.28223 2.95312c0 0 -1.13184 -1.44043 -2.28223 -2.95312zM577.617 219.132
l-29.8545 -37.9814l-32.3428 -41.1445c-1.71387 -2.17969 -5.00488 -2.1709 -6.76953 -0.351562l-30.0244 30.9756l-37.707 38.8994c-1.69727 1.75098 -1.60938 4.59277 -0.00976562 6.25293l6.62305 6.87793c1.82324 1.89355 4.90625 1.70605 6.54395 -0.0654297
l39.5625 -42.7578l7.8877 -8.52344l-1.2959 23.5264l-9.91113 179.994c-0.135742 2.44922 1.83008 4.50488 4.0459 4.72559l9.86133 0.984375c2.62695 0.261719 4.8291 -1.9043 4.94141 -4.26074l8.44824 -175.513l1.38379 -28.7705l7.76465 10.2129l36.5918 48.1338
c1.62598 2.13867 4.72559 2.125 6.39355 0.791016l7.14062 -5.71191c2.00586 -1.60547 2.07617 -4.57715 0.726562 -6.29395zM560.082 597.424c-21.624 -20.6826 -45.4307 -42.6113 -67.7461 -63.9561c-1.71973 -1.64453 -4.56445 -1.64746 -6.2832 0.0605469
l-64.4717 64.1064l-2.40137 -2.29785l63.6895 -66.251c1.63184 -1.69727 1.66797 -4.54199 -0.0361328 -6.27344c-21.6172 -21.9844 -42.083 -43.9648 -64.0547 -66.3086c19.8828 20.2373 44.2959 43.918 65.7012 65.7051c1.62598 1.65527 4.46582 1.80762 6.25781 0.157227
l73.2178 -67.3994l2.91992 2.43066l-72.2461 66.4092c-1.65039 1.51562 -2.02832 4.58496 -0.152344 6.47852c21.917 22.1357 44.1738 45.4951 65.6055 67.1387zM570.738 594.514l-66.5801 -67.2422l72.5928 -66.7275c2.04395 -1.87793 1.77051 -5.15723 -0.166016 -6.76953
l-9.89746 -8.24609c-1.82812 -1.52246 -4.52246 -1.14551 -5.92676 0.146484l-72.9141 67.1201l-65.7891 -66.9629c-1.84668 -1.87988 -4.92578 -1.63672 -6.53125 0.117188l-7.18848 7.86133c-1.66309 1.81836 -1.40234 4.65234 0.111328 6.19141l64.8994 66.002
l-63.7832 66.3486c-1.88477 1.95996 -1.27734 5.02051 0.132812 6.37012l8.83301 8.44922c1.75098 1.6748 4.5957 1.61719 6.2832 -0.0605469l64.4717 -64.1055l67.4854 64.5488c1.69727 1.62305 4.4082 1.5752 6.05469 0.152344l7.65723 -6.62305
c1.97363 -1.70703 2.00879 -4.79883 0.254883 -6.57031z" />
  </g>

</svg>
