<?xml version="1.0" standalone="no"?>
<!DOCTYPE svg PUBLIC "-//W3C//DTD SVG 1.1//EN" "http://www.w3.org/Graphics/SVG/1.1/DTD/svg11.dtd" >
<svg xmlns="http://www.w3.org/2000/svg" xmlns:xlink="http://www.w3.org/1999/xlink" version="1.1" viewBox="-10 0 1020 1000">
  <g transform="matrix(1 0 0 -1 0 800)">
   <path fill="currentColor"
d="M30.3242 741.553h55.5146l17.1611 52.2256l17.1602 -52.2256h55.5156l-44.8672 -32.2959l17.1611 -52.2246l-44.9697 32.2959l-44.9707 -32.2959l17.1611 52.2246zM271 608l-12 60c128.725 89.7881 355.203 55.3633 442.457 48.5605
c0 -0.0107422 0.000976562 -0.0214844 0.000976562 -0.0322266c27.4463 0.582031 75.1855 -1.32129 107.268 -33.4033c40.1396 -40.1396 38.6152 -108.841 37.5254 -169.365c-0.395508 -21.9258 -0.433594 -33.2402 -0.22168 -41.9463
c26.3789 -43.8281 72.168 -89.959 89.3252 -129.607c6.95117 -16.0635 5.49219 -24.7637 2.64551 -40.2051l-12 -14l-79.501 -63.5771v-212.431c1.93945 -31.0869 1.82422 -79.2412 -27.416 -108.48c-26.0322 -26.0322 -182.507 -12.0195 -220.584 -13.0049
l-2.90137 0.0126953c-103.732 -7.2998 -296.108 50.6025 -326.603 92.1719c-18.5059 25.2275 -31.4014 41.2529 -57.9951 55.3086v70.0371c25.8174 -16.2627 49.624 -17.8066 70.1904 -60.6357c44.2188 -92.082 349.455 -105.734 451.309 -108.438l-0.499023 -0.962891
c50 12 34.1514 4.48145 42.5352 13.5361c19.1768 20.7119 3.97852 41.9688 5.50781 57.9648h-0.541992v2.14941c-0.253906 0.990234 -0.500977 1.94141 -0.738281 2.84863h0.738281v207.174v3.4873v1.33887h1.58203l104 88h1.13281
c4.9834 45.8955 -62.8379 92.1289 -94.2158 139.501l-3 4l-1 1c-2.02051 3.99219 0.0439453 4.02539 -2.08398 11.5605c-0.0371094 0.130859 -0.189453 0.24707 -0.174805 0.367188l0.258789 2.07227l0.0644531 1.49902
c0.00976562 0.226562 0.150391 3.89551 0.242188 6.24414c3.11426 79.1523 5.19727 173.389 -83.8154 173.771c-136.35 16.7461 -373.536 9.53418 -431.49 -46.5137zM672 128h-11.6641l-42.2412 105.119h1.77539h10.8535h0.8125l42.2383 -105.119h-1.77441zM473.94 234.56
h12.7676h1.78711l-43.2002 -105.6h-13.5713h-1.78809l43.2002 105.6h0.804688zM462.828 233.723c0 -1.22363 1.02051 -2.15332 2.15332 -2.15332l171.511 -0.692383c1.18848 0 2.16113 0.97168 2.16113 2.13281l-0.878906 74.5566
c6.79883 -1.12402 6.79883 -1.12402 22.1055 -1.95508l-21.2266 24.7158v40.3438c0 1.18848 -0.967773 2.15625 -2.06152 2.15625l-98.6807 -2.15039c-1.00684 18.6084 -1.00684 18.6084 -1.81445 24.9062l-24.5957 -22.251h-0.461914h-0.228516l-45.8213 0.185547
c-1.22852 0 -2.16113 -1.01758 -2.16113 -2.1543v-137.641zM629.756 363.921v-32.8975l-23.1807 -25.4229l11.4141 -1.51465c4.58984 0.707031 9.18066 1.41309 13.7715 2.11914l-2.05762 -66.4248l-157.979 0.677734v124.156l39.5029 -0.169922l26.6787 -22.4971
c0.239258 4.10449 0.262695 4.50488 0.882812 23.1426zM654.727 557.906l-78.7373 46.5801l-102.926 -43.3535l0.496094 -107.748h180.276zM667.692 439.52h-207.997l0.15332 116.047l-24.9531 -10.5117v14.7461l141.509 58.3389l4.20215 -2.17871l0.0839844 0.168945
l3.4502 -2.00098l6.60645 -3.42578l-0.408203 -0.171875l99.9111 -57.9824l0.262695 -15.8125l-22.3613 13.2285z" />
  </g>

</svg>
