<?xml version="1.0" standalone="no"?>
<!DOCTYPE svg PUBLIC "-//W3C//DTD SVG 1.1//EN" "http://www.w3.org/Graphics/SVG/1.1/DTD/svg11.dtd" >
<svg xmlns="http://www.w3.org/2000/svg" xmlns:xlink="http://www.w3.org/1999/xlink" version="1.1" viewBox="-10 0 1051 1000">
  <g transform="matrix(1 0 0 -1 0 800)">
   <path fill="currentColor"
d="M271 608l-12 60c128.725 89.7881 355.203 55.3633 442.457 48.5605c0 -0.0107422 0.000976562 -0.0214844 0.000976562 -0.0322266c27.4463 0.582031 75.1855 -1.32129 107.268 -33.4033c40.1396 -40.1396 38.6152 -108.841 37.5254 -169.365
c-0.395508 -21.9258 -0.433594 -33.2402 -0.22168 -41.9463c26.3789 -43.8281 72.168 -89.959 89.3252 -129.607c6.95117 -16.0635 5.49219 -24.7637 2.64551 -40.2051l-12 -14l-79.501 -63.5771v-212.431c1.93945 -31.0869 1.82422 -79.2412 -27.416 -108.48
c-26.0322 -26.0322 -182.507 -12.0195 -220.584 -13.0049l-2.90137 0.0126953c-103.732 -7.2998 -296.108 50.6025 -326.603 92.1719c-18.5059 25.2275 -31.4014 41.2529 -57.9951 55.3086v70.0371c25.8174 -16.2627 49.624 -17.8066 70.1904 -60.6357
c44.2188 -92.082 349.455 -105.734 451.309 -108.438l-0.499023 -0.962891c50 12 34.1514 4.48145 42.5352 13.5361c19.1768 20.7119 3.97852 41.9688 5.50781 57.9648h-0.541992v2.14941c-0.253906 0.990234 -0.500977 1.94141 -0.738281 2.84863h0.738281v207.174v3.4873
v1.33887h1.58203l104 88h1.13281c4.9834 45.8955 -62.8379 92.1289 -94.2158 139.501l-3 4l-1 1c-2.02051 3.99219 0.0439453 4.02539 -2.08398 11.5605c-0.0371094 0.130859 -0.189453 0.24707 -0.174805 0.367188l0.258789 2.07227l0.0644531 1.49902
c0.00976562 0.226562 0.150391 3.89551 0.242188 6.24414c3.11426 79.1523 14.1973 176.389 -74.8154 176.771c-136.35 16.7461 -373.536 9.53418 -431.49 -46.5137zM30.3545 728.521h55.5146l17.1611 52.2256l17.1602 -52.2256h55.5156l-44.8672 -32.2959l17.1611 -52.2246
l-44.9697 32.2959l-44.9707 -32.2959l17.1611 52.2246zM469.817 58.4102c-1.1084 0 -2.00098 0.899414 -2.00098 1.99902l1.91895 55.2236c-5.57812 6.67676 -11.2998 12.9277 -16.9346 19.0811c-24.8398 27.1309 -48.0869 52.582 -48.168 103.918
c-0.0673828 42.7832 15.4951 64.6699 24.2109 73.5361c27.5469 26.9277 63.9131 33.6973 82.8135 33.6973c1.71875 0 3.89258 1.45703 6.1582 1.35059c55.8633 -2.62793 67.7852 -7.04688 96.248 -31.8027c3.67383 -3.19629 4.74316 -5.80078 5.2207 -8.26074
c0.0859375 -0.444336 0.134766 -0.618164 0.152344 -0.671875c13.042 -15.0498 22.1924 -54.6006 22.9023 -66.1035c0.0478516 -0.780273 0.165039 -1.68652 0.299805 -2.71094c0.380859 -2.89648 0.885742 -6.72363 0.0429688 -11.54
c-11.6055 -66.2812 -43.1465 -85.3564 -46.8555 -95.748c-0.202148 -0.566406 -0.388672 -0.660156 -0.469727 -0.740234c-0.883789 -0.884766 -8.54688 -4.79102 -14.7031 -7.68652c-0.773438 -2.20117 -0.773438 -2.20117 -1.16504 -2.6084
c-0.180664 -0.697266 -0.345703 -1.93066 -0.345703 -1.93066l-1.14258 -56.4121c-0.0224609 -1.08398 -0.902344 -1.95215 -1.9873 -1.95898zM619.352 306.568l-0.131836 0.115234l-1.20898 -1.58008zM613.736 313.701l-1.32422 0.545898l-1.3252 -3.32031z
M527.238 331.932c-32.0723 0 -52.9873 -5.66211 -79.6543 -25.4346c-7.03223 -7.03125 -26.6045 -28.1357 -26.6973 -64.749c-0.12207 -48.1973 20.8838 -70.8877 32.166 -82.1709c5.62207 -5.62207 5.62207 -5.62207 6.55371 -7.0127
c1.84082 -2.75 1.84082 -2.75 13.7871 -15.7002c2.74414 -0.674805 6.9375 -2.40332 11.1914 -6.8252c2.32617 -2.41797 1.38672 -11.3936 0.957031 -15.5l-0.382812 -46.6973l74.1025 -0.379883l3.48535 57.3125c0.0332031 0.543945 0.28418 1.04883 0.703125 1.4043
c2.46191 2.09863 2.52734 2.1543 3.80273 3.42969c1.25977 1.25977 4.91406 4.82812 8.12891 5.76367c1.16504 0.338867 2.78906 3.56055 6.16504 6.08398c16.1484 12.0713 40.0498 42.457 43.0186 86.252c0.433594 6.40723 -0.555664 13.3975 -1.81934 20.8955
c-2.6748 15.8691 -6.5957 38.4219 -18.6611 52.4805c-1.875 1.5459 -2.44531 2.05957 -11.082 10.6963c-15.4512 15.4502 -41.0332 20.1514 -65.7646 20.1514zM341.688 462.412l-52.2002 -55.1992l56.5117 -50.2129l-10.3115 -8.58789l-56.6006 50.4004l-51.3994 -46.4004
l-7.48926 8.18848l50.4893 45.4121l-55 54.3994l9.2002 8.80078l55.7998 -52l53.0215 52.0986zM534 387l-77 138l12 5.06934l66.043 -109.555l65.7363 113.055l16.2207 -6.56934z" />
  </g>

</svg>
