<?xml version="1.0" standalone="no"?>
<!DOCTYPE svg PUBLIC "-//W3C//DTD SVG 1.1//EN" "http://www.w3.org/Graphics/SVG/1.1/DTD/svg11.dtd" >
<svg xmlns="http://www.w3.org/2000/svg" xmlns:xlink="http://www.w3.org/1999/xlink" version="1.1" viewBox="-10 0 1051 1000">
  <g transform="matrix(1 0 0 -1 0 800)">
   <path fill="currentColor"
d="M271 608l-12 60c128.725 89.7881 355.203 55.3633 442.457 48.5605c0 -0.0107422 0.000976562 -0.0214844 0.000976562 -0.0322266c27.4463 0.582031 75.1855 -1.32129 107.268 -33.4033c40.1396 -40.1396 38.6152 -108.841 37.5254 -169.365
c-0.395508 -21.9258 -0.433594 -33.2402 -0.22168 -41.9463c26.3789 -43.8281 72.168 -89.959 89.3252 -129.607c6.95117 -16.0635 5.49219 -24.7637 2.64551 -40.2051l-12 -14l-79.501 -63.5771v-212.431c1.93945 -31.0869 1.82422 -79.2412 -27.416 -108.48
c-26.0322 -26.0322 -182.507 -12.0195 -220.584 -13.0049l-2.90137 0.0126953c-103.732 -7.2998 -296.108 50.6025 -326.603 92.1719c-18.5059 25.2275 -31.4014 41.2529 -57.9951 55.3086v70.0371c25.8174 -16.2627 49.624 -17.8066 70.1904 -60.6357
c44.2188 -92.082 349.455 -105.734 451.309 -108.438l-0.499023 -0.962891c50 12 34.1514 4.48145 42.5352 13.5361c19.1768 20.7119 3.97852 41.9688 5.50781 57.9648h-0.541992v2.14941c-0.253906 0.990234 -0.500977 1.94141 -0.738281 2.84863h0.738281v207.174v3.4873
v1.33887h1.58203l104 88h1.13281c4.9834 45.8955 -62.8379 92.1289 -94.2158 139.501l-3 4l-1 1c-2.02051 3.99219 0.0439453 4.02539 -2.08398 11.5605c-0.0371094 0.130859 -0.189453 0.24707 -0.174805 0.367188l0.258789 2.07227l0.0644531 1.49902
c0.00976562 0.226562 0.150391 3.89551 0.242188 6.24414c3.11426 79.1523 14.1973 176.389 -74.8154 176.771c-136.35 16.7461 -373.536 9.53418 -431.49 -46.5137zM30.3545 728.521h55.5146l17.1611 52.2256l17.1602 -52.2256h55.5156l-44.8672 -32.2959l17.1611 -52.2246
l-44.9697 32.2959l-44.9707 -32.2959l17.1611 52.2246zM412.443 283.111h0.222656c-43.6611 -2.8252 -79.0957 -40.627 -79.0957 -84.3789c0 -46.6748 37.8809 -84.5557 84.5557 -84.5557c46.6748 0 84.5557 37.8809 84.5557 84.5557
c0 26.9775 -18.9727 59.8018 -42.3486 73.2676h207.667v11.1113h-255.557zM418.333 125.444h0.22168h-0.22168c-40.542 0 -73.4443 32.9033 -73.4443 73.4443v0.000976563c0 40.541 32.9023 73.4443 73.4443 73.4443c40.541 0 73.4443 -32.9033 73.4443 -73.4443
c0 -40.542 -32.9033 -73.4453 -73.4443 -73.4453zM480.382 333.802h-0.249023c-20.3008 0 -48.4502 11.627 -62.834 25.9531c-29.3701 29.4639 -34.7275 75.6436 -13.7607 117.945c7.11133 14.3164 15.5166 28.2627 23.6445 41.7471
c4.34082 7.1123 8.68164 14.3164 12.7451 21.5205l29.3711 51.4453l1.38477 2.67871c6.46582 12.6533 8.12793 15.793 11.8232 15.793h1.75391c3.14062 -1.29297 5.17285 -5.26465 7.85059 -11.1748c0.461914 -1.0166 0.831055 -1.94043 1.1084 -2.30957l45.5342 -79.8926
c3.23242 -5.63379 6.74219 -11.083 10.2529 -16.625c6.52539 -9.53418 15.5459 -25.8779 20.1348 -36.4824c1.1084 -2.70898 2.0625 -5.48047 2.8623 -8.3125c2.1748 -7.30078 3.94043 -19.4102 3.94043 -27.0283c0 -43.3506 -34.5771 -85.0332 -77.1826 -93.041
c-5.0127 -1.10645 -13.2471 -2.10059 -18.3799 -2.2168zM482.507 597.585c-1.38574 -2.49316 -2.77148 -5.35645 -3.51074 -6.92773l-1.66211 -3.23145l-29.3701 -51.2607c-4.15625 -7.2959 -8.49707 -14.501 -12.9316 -21.7051
c-8.03418 -13.2998 -16.3467 -27.0615 -23.2744 -41.0088c-19.2119 -38.9756 -14.5938 -81 11.915 -107.139c13.002 -12.9121 38.4268 -23.3916 56.751 -23.3916c4.57422 0 11.9209 0.754883 16.3984 1.68652c38.7061 7.05273 70.1201 44.708 70.1201 84.0508
c0 7.11719 -1.7041 18.4121 -3.80469 25.2139c-0.739258 2.58496 -1.60059 5.11035 -2.58594 7.57227c-4.41309 10.1426 -13.0605 25.7832 -19.3037 34.9131c-3.60254 5.63379 -7.2041 11.2676 -10.5283 16.9941l-45.5342 79.0615
c0 0.646484 -0.924805 1.75391 -1.47852 3.14062zM399.104 59.7109z" />
  </g>

</svg>
