<?xml version="1.0" standalone="no"?>
<!DOCTYPE svg PUBLIC "-//W3C//DTD SVG 1.1//EN" "http://www.w3.org/Graphics/SVG/1.1/DTD/svg11.dtd" >
<svg xmlns="http://www.w3.org/2000/svg" xmlns:xlink="http://www.w3.org/1999/xlink" version="1.1" viewBox="-10 0 1043 1000">
  <g transform="matrix(1 0 0 -1 0 800)">
   <path fill="currentColor"
d="M430.974 395.514l0.000976563 0.000976563c91.5098 -0.128906 165.924 -74.2705 166.524 -165.654h-21.8623c-0.599609 79.3281 -65.2285 143.661 -144.661 143.792c-100.438 0 -183.626 -81.1201 -183.626 -184.099c0 -128.081 103.947 -232.238 232.027 -232.498
c165.499 0.130859 292.943 136.379 292.943 293.651c0 203.546 -159.859 393.97 -362.824 394.773v21.8623c214.084 -0.798828 384.687 -200.054 384.687 -417.108c0 -173.703 -140.332 -318.606 -314.161 -318.737c-138.771 0.254883 -254.533 116.213 -254.533 258.229
c0 113.679 92.2939 205.656 205.485 205.787z" />
  </g>

</svg>
