<?xml version="1.0" standalone="no"?>
<!DOCTYPE svg PUBLIC "-//W3C//DTD SVG 1.1//EN" "http://www.w3.org/Graphics/SVG/1.1/DTD/svg11.dtd" >
<svg xmlns="http://www.w3.org/2000/svg" xmlns:xlink="http://www.w3.org/1999/xlink" version="1.1" viewBox="-10 0 1032 1000">
  <g transform="matrix(1 0 0 -1 0 800)">
   <path fill="currentColor"
d="M403.544 96.1748c-1.4375 -7.40234 -6.92871 -11.6201 -12.833 -11.9785c-12.5811 -0.764648 -23.8379 13.4121 -11.9619 25.1338c1.47852 1.45898 3.2959 2.92188 5.66699 3.66016c1.94141 1.54883 10.6885 11.5938 25.4248 28.8945
c-17.7275 11.8574 -18.4512 16.7119 -18.6279 19.626c-0.412109 6.78125 7.10449 15.4062 14.2705 15.8418c5.06055 0.307617 9.68945 -3.52832 9.5957 -11.6611c0.09375 -1.53809 4.5 -8.41992 7.81641 -6.56641c125.097 138.652 125.097 138.652 125.509 139.035
c0.262695 0.244141 22.5713 19.8428 29.5977 20.2686c3.33398 0.203125 5.95703 -2.35645 6.13672 -5.31738c0.15625 -2.57129 -0.875 -4.69629 -11.9551 -26.499l-0.149414 -0.169922c-103.148 -117.754 -127.814 -145.914 -127.734 -147.234
c0.03125 -0.50293 0.308594 -1.62012 2.85352 -3.94336c4.96582 -4.53223 7.42578 -0.739258 12.8105 -3.08008c4.47852 -1.94824 8.32031 -9.03223 1.48242 -17.25c-1.36523 -1.64062 -5.52344 -6.26367 -11.625 -6.33008
c-1.76855 -0.0185547 -6.61523 0.0644531 -20.7139 16.207c-8.47754 -10.2744 -11.3828 -13.6699 -19.9619 -21.7109c-4.50293 -4.2207 -5.25684 -5.14453 -5.60156 -6.92578zM394.207 104.496c-4.44727 -4.43555 -8.31934 -2.0127 -8.1123 -5.41992
c0.0996094 -1.63477 1.49707 -3.20996 3.24609 -3.10352c3.24121 0.197266 1.1543 3.0918 4.86621 8.52344zM450.16 120.936c-0.0458984 0.00585938 -0.222656 0.12793 -0.268555 0.133789c0.0996094 -0.0546875 0.189453 -0.100586 0.268555 -0.133789zM423.634 146.805
c0.583008 -0.953125 1.60254 -3.25488 -0.0869141 -6.43164c-2.76367 -5.19727 -18.9912 -21.3838 -27.0264 -33.0127c4.26562 4.62793 11.1348 9.66699 20.6064 21.4287c7.15332 8.88184 8.83594 10.9727 11.8994 11.1582
c1.17871 0.0712891 2.18945 -0.253906 3.12305 -0.850586c-0.0683594 1.81543 0.301758 3.77832 1.46484 5.59863c2.36719 3.70996 3.89746 6.07227 79.4883 92.3193c0.492188 0.556641 40.2441 45.4551 48.2559 56.4092
c-11.5449 -10.0518 -27.4697 -27.9316 -70.7568 -76.8057c-25.249 -28.5059 -34.0537 -38.2832 -50.2012 -56.1172c-6.0625 -6.69629 -9.16797 -10.248 -11.376 -11.6807c-1.13379 -0.734375 -2.97461 -1.67773 -5.39062 -2.01562zM403.387 162.396
c-0.0283203 -0.046875 -0.0527344 -0.0878906 -0.0732422 -0.125977c-0.00292969 0.0117188 0.0761719 0.114258 0.0732422 0.125977zM637.217 121.691c7.33008 -1.77051 11.2949 -7.44727 11.3857 -13.3623c0.194336 -12.6025 -14.4775 -23.2051 -25.6504 -10.8105
c-1.39062 1.54297 -2.76953 3.4248 -3.40039 5.82715c-1.45801 2.00977 -11.0967 11.2031 -27.7119 26.708c-12.6494 -17.1719 -17.5303 -17.6758 -20.4492 -17.7197c-6.79395 -0.105469 -15.0693 7.79395 -15.1807 14.9727
c-0.078125 5.07031 3.96484 9.51953 12.085 9.05762c1.54102 0.0244141 8.61426 4.11523 6.91406 7.51074c-132.844 131.25 -132.844 131.25 -133.207 131.679c-0.232422 0.273438 -18.7998 23.4473 -18.9082 30.4854c-0.0517578 3.34082 2.625 5.84473 5.59082 5.88965
c2.5752 0.0400391 4.65137 -1.08789 25.9297 -13.1426l1.60352 -0.158203c112.96 -108.376 139.974 -134.293 141.296 -134.272c0.504883 0.0078125 0.193359 0.235352 2.62988 2.67285c4.75195 4.75488 1.0752 7.38477 3.65723 12.6562
c2.14844 4.38574 9.39941 7.90332 17.2988 0.700195c1.57715 -1.43848 6.00684 -5.80078 5.7959 -11.9004c-0.0595703 -1.7666 -0.363281 -6.60547 -17.127 -19.958c9.87891 -8.93359 13.1396 -11.9902 20.7832 -20.9238
c4.01367 -4.69043 4.90137 -5.48535 6.66504 -5.91113zM628.481 112.741c4.22949 -4.64258 1.63379 -8.40039 5.04785 -8.34863c1.63672 0.0253906 3.27344 1.34961 3.24707 3.10254c-0.0498047 3.24512 -3.03711 1.29199 -8.29492 5.24609zM614.594 169.383
c-0.00878906 -0.0458984 -0.137695 -0.216797 -0.146484 -0.263672c0.0605469 0.0976562 0.109375 0.185547 0.146484 0.263672zM587.55 144.055c0.977539 0.540039 3.32422 1.4541 6.4209 -0.37793c5.06641 -2.99609 20.502 -19.9404 31.7549 -28.4941
c-4.43066 4.4707 -9.15332 11.5615 -20.4736 21.5566c-8.54883 7.54785 -10.5605 9.32422 -10.6074 12.3916c-0.0185547 1.18164 0.352539 2.17578 0.990234 3.08203c-1.81543 0.0136719 -3.75977 0.472656 -5.52734 1.7168
c-3.59766 2.5332 -5.88867 4.16895 -88.623 83.5879c-0.533203 0.516602 -43.585 42.2627 -54.165 50.7637c9.51855 -11.9902 26.6582 -28.708 73.5215 -74.165c27.333 -26.5137 36.7021 -35.7529 53.7861 -52.6914c6.41504 -6.36035 9.82227 -9.62207 11.1533 -11.8936
c0.681641 -1.16504 1.54102 -3.04688 1.76953 -5.47656zM571.057 124.535c0.0449219 -0.0302734 0.0859375 -0.0566406 0.12207 -0.078125c-0.0117188 -0.00292969 -0.111328 0.0810547 -0.12207 0.078125zM52.7012 763.544h41.6357l12.8711 39.1699l12.8701 -39.1699
h41.6367l-33.6504 -24.2217l12.8711 -39.168l-33.7275 24.2217l-33.7275 -24.2217l12.8701 39.168zM264.521 609.221l-12.6758 63.3936c136.002 94.8662 375.292 58.4941 467.481 51.3066v-0.0322266c29.001 0.613281 79.4395 -1.39844 113.337 -35.2939
c42.4092 -42.4102 40.7979 -114.996 39.6455 -178.943c-0.416016 -23.167 -0.457031 -35.123 -0.233398 -44.3203c27.873 -46.3066 76.252 -95.0469 94.3799 -136.938c7.34277 -16.9707 5.80176 -26.1641 2.79395 -42.4785l-12.6807 -14.791l-83.9961 -67.1738v-224.448
c2.04785 -32.8447 1.92871 -83.7236 -28.9658 -114.614c-27.5059 -27.5059 -192.831 -12.7002 -233.062 -13.7412l-3.06641 0.0136719c-109.601 -7.71484 -312.854 53.4648 -345.075 97.3857c-19.5508 26.6543 -33.1758 43.585 -61.2744 58.4365v73.998
c27.2783 -17.1826 52.4307 -18.8125 74.1611 -64.0645c46.7197 -97.292 369.22 -111.715 476.835 -114.573l-0.527344 -1.0166c52.8281 12.6768 36.083 4.73438 44.9424 14.3018c20.2598 21.8828 4.2041 44.3428 5.81836 61.2441h-0.571289v2.27051
c-0.269531 1.04492 -0.530273 2.05176 -0.78125 3.00781h0.78125v218.894v3.68359v1.41504h1.6709l109.881 92.9756h1.19727c5.26562 48.4922 -66.3906 97.3398 -99.5449 147.394l-3.16895 4.22559l-1.05762 1.05664c-2.13379 4.2168 0.0449219 4.25195 -2.20117 12.2139
c-0.0390625 0.138672 -0.200195 0.261719 -0.18457 0.386719l0.273438 2.19141l0.0683594 1.58203c0.00976562 0.242188 0.15918 4.11719 0.255859 6.59766c3.29004 83.6279 5.49121 183.196 -88.5566 183.601l9.05664 11.0186
c-144.061 17.6953 -394.666 10.0771 -455.897 -49.1416zM570.892 441.628l-182.25 0.607422v12.0264h163.406v68.2871h-163.406v12.0264l180.63 -1.0127z" />
  </g>

</svg>
