<?xml version="1.0" standalone="no"?>
<!DOCTYPE svg PUBLIC "-//W3C//DTD SVG 1.1//EN" "http://www.w3.org/Graphics/SVG/1.1/DTD/svg11.dtd" >
<svg xmlns="http://www.w3.org/2000/svg" xmlns:xlink="http://www.w3.org/1999/xlink" version="1.1" viewBox="-10 0 1046 1000">
  <g transform="matrix(1 0 0 -1 0 800)">
   <path fill="currentColor"
d="M30.3242 741.553h55.5146l17.1611 52.2256l17.1602 -52.2256h55.5156l-44.8672 -32.2959l17.1611 -52.2246l-44.9697 32.2959l-44.9707 -32.2959l17.1611 52.2246zM804 631c0 -96.6865 68.0879 -173.199 99.375 -191.775l11.1992 -6.64941
c-16.9434 -0.478516 1.18945 0.900391 -34.5742 -3.5752l-1.0752 1.36426c-22.0068 27.9238 -93.998 110.011 -106.903 207.233c-0.657227 4.95117 0.0224609 9.79688 0.582031 18.2783c-1.38379 0.708984 -2.88672 1.4873 -4.52246 2.34082
c-0.0283203 -1.83984 -0.322266 -3.81641 -0.0449219 -5.88867c33.3789 -249.661 97.5459 -216.742 97.5459 -216.742s6.91211 -4.29004 10.2793 -6.58594h-32.8613c-44.1455 16.1279 -101.697 151.17 -101.697 222.331c0 8.73535 0.302734 15.3135 0.785156 20.6846
c-60.6641 32.3369 -181.179 64.7012 -284.885 64.7012c-23.0527 0 -45.5234 -2.04883 -73.3945 -6.17773c-32.3232 -4.78906 -32.3232 -4.78906 -70.6152 -21.2002c-18.916 -8.10645 -50.2139 -47.4062 -58.166 -66.7188
c-7.02734 -17.0664 -9.0791 -30.2676 -9.0791 -45.8906c0 -22.332 3.62891 -44.376 3.62891 -77.1553c0 -8.99219 1.14648 -13.8564 1.14648 -20.1924c0 -4.57031 -0.613281 -9.64551 -2.73242 -16.6025c-19.9492 -65.4795 -40.3174 -87.0479 -63.832 -110.183
c-6.25977 -6.16016 -27.0508 -26.6172 -27.0508 -37.7881c0 -4.45605 0.882812 -6.9082 38.3447 -19.4531c55.9199 -18.7266 60.0254 -24.4102 60.0254 -90.9766c0 -43.0117 2.70801 -110.013 2.70801 -151.731c0 -5.5 0.0820312 -11.3867 0.267578 -17.7666
c0.50293 -17.292 16.4512 -45.3398 23.8975 -57.5352c1.19629 -0.303711 1.95996 -1.18164 1.95996 -1.18164c1.1543 -0.666992 2.48438 -1.60059 4.13477 -2.74414c16.0508 -11.1162 22.0049 -13.1846 40.8428 -13.1846c24.0361 0 22.3457 4.21484 79.0615 4.21484
c0.316406 0 6.94531 -0.00390625 7.01562 -0.00390625c14.7988 0 25.668 0.226562 52.1025 3.80078c20.2021 2.73242 38.8271 4.61572 56.5088 6.4043c120.938 12.2334 201.711 24.1475 280.178 80.1953c2.23438 1.5957 5.14355 3.85352 8.45703 6.42773
c12.6104 9.7959 33.0303 26.8994 48.1416 26.8994c8.16699 0 13.834 -4.95996 13.834 -14.165c0 -15.4473 -17.4082 -42.8486 -33.0938 -42.8486c-1.16406 0 -1.56543 0.129883 -3.01758 0.129883c-22.6426 0 -44.3604 -36.5264 -79.4766 -51.29
c-52.8857 -22.2344 -138.298 -27.127 -175.459 -33.71c-17.2549 -3.05664 -36.6504 -6.49316 -61.8809 -12.2393c-34.7246 -7.90918 -51.6299 -8.61133 -86.7539 -8.61133c-0.251953 0 -22.7891 0.03125 -25.0811 0.03125c-11.3115 0 -32.6182 -0.123047 -32.9473 -0.123047
c-40.7773 0 -82.5049 2.86621 -120.91 24.8125c-26.0957 14.9121 -27.9092 36.1035 -30.0449 61.0586c-0.477539 5.59082 -0.976562 11.3994 -1.75781 17.3906c-1.96484 15.7158 -2.63672 29.7119 -2.63672 42.8916c0 28.6572 -4.27441 100.664 -4.27441 131.409
c0 46.4277 -4.59863 49 -29.7539 58.8145c-27.3184 10.6582 -57.2148 13.2568 -70.834 26.876c-4.33008 4.33008 -6.66504 9.68945 -6.66504 16.1094c0 4.7959 1.30371 10.1846 4.05176 16.1768c36.4951 79.5967 68.6367 70.0742 91.3711 139.761
c5.20312 15.9443 6.93652 32.2529 6.93652 48.6797c0 32.5635 -6.77832 65.1611 -6.77832 95.8125c0 47.6494 17.2412 68.3838 35.0508 86.1934c66.2422 66.2412 143.674 66.3555 238.901 66.3555h0.988281c82.8154 0 190.135 -23.3467 246.021 -49.8477
c43.5547 -20.6533 21.8506 -15.7109 32.4561 -16.8408c11.3984 -1.2168 39 -13 47.5039 -30.4053c4.31641 -8.83496 -4.12305 -21.668 -4.50391 -29.5947c-0.257812 -5.36523 2 -14.3428 2 -20zM683.4 407.113h-301.113l1.59961 -301.113h301.113zM706.109 84.8906h-343.332
v343.332h343.332v-343.332zM500.173 299.761v0c-48.083 -0.0556641 -87.1455 -39.1025 -87.2002 -87.1885c-0.0683594 -59.6191 48.4883 -108.309 106.803 -108.416c72.2754 0.0546875 130.673 60.2148 130.673 132.494c0 89.8008 -70.7148 171.736 -159.218 171.844
c-1.55078 0.000976563 -3.10156 0.00390625 -4.6543 0.00488281v-18.7432c1.54883 0 3.0957 -0.00292969 4.64258 -0.00488281c78.6611 -0.100586 140.487 -74.2637 140.487 -152.912c0 -60.0801 -48.6807 -112.411 -112.183 -112.462
c-48.4678 0.0986328 -87.8086 39.5381 -87.8086 88.001c0 38.458 31.0684 68.6406 68.4521 68.6406c29.1289 -0.0478516 52.8193 -23.7461 52.8672 -52.876c0.00195312 -1.54688 0.00585937 -3.09277 0.00683594 -4.64062h18.7422
c0 0.400391 0 0.400391 -0.00683594 4.65527c-0.0556641 39.4736 -32.126 71.5479 -71.6035 71.6035zM463.915 593.827c-20.0312 -9.87402 -20.2432 -9.96094 -22.3398 -9.96094c-1.23926 0 -3.7168 0.325195 -5.59375 2.65137
c-0.245117 0.302734 -21.5098 30.8457 -22.3027 31.9287c-1.29492 1.76953 -2.89941 3.64551 -2.89941 6.60742c0 4.09766 2.7002 5.93652 7.73242 9.36426c27.0771 18.6377 61.4951 42.3857 65.7412 45.5947h17.4902c2.79688 0 5.11816 0.00488281 7.06445 0.00488281
c8.05762 0 9.70117 -0.0957031 12.042 -1.08496c0.000976563 0 0.194336 -0.0732422 0.194336 -0.0732422c1.43555 -0.529297 8.62109 -2.96191 17.582 -2.96191h0.90625c5.92773 0 9.16406 0.529297 17.0752 4.11523h32.4326
c0.757812 -0.520508 62.5908 -43.0049 75.4209 -52.6201c-6.1123 -9.23047 -8.9873 -13.6934 -17.2139 -27.3252c-3.87305 -6.41992 -6.21094 -10.5947 -8.31543 -12.7002c-2.19824 -2.19727 -4.66113 -2.22852 -5.12402 -2.22852
c-1.73535 0 -12.5908 3.05859 -30.1973 8.13184c9.96777 -109.849 9.96777 -109.849 9.96777 -110.065v-8.20508h-156.578c0.959961 12.4629 0.959961 12.4629 1.74219 26.9629c0.000976562 0 1.56641 28.0137 1.56641 28.0137l1.57422 27.5225
c0 0.00390625 1.37695 24.6094 2.03223 36.3281zM596.389 491.568c-0.0986328 1.13379 -10.248 111.983 -10.248 113.283c0 3.98145 2.20215 6.77148 5.17383 7.68555v1.13086l4.48242 -1.14551l-0.0195312 -0.0800781c6.53516 -1.55762 25.0234 -7.05469 33.9492 -9.46387
l12.5 20.2227c-1.70996 1.18652 -3.6123 2.5 -5.30273 3.66016c-28.4648 19.7764 -28.4648 19.7764 -52.7412 36.5918c-1.54102 0.0537109 -5.05469 0.137695 -11.709 0.137695c-4.09082 0 -8.18262 0.00195313 -12.2725 0.00195313
c-5.63574 -2.14453 -11.168 -4.06348 -20.8174 -4.06348c-6.06836 0 -11.9004 0.0976562 -24.5938 4.06348h-12.96c-6.19238 0 -10.3662 -0.0849609 -12.3057 -0.15332c-7.64062 -5.18066 -47.6123 -32.8203 -58.8398 -40.5957
c3.05078 -4.36523 7.17383 -10.3154 13.9775 -20.1299c6.7168 3.27539 22.9092 11.2021 26.21 12.6904c0.919922 0.580078 2.61133 0.698242 2.99512 0.698242c0.0507812 0 0.0693359 -0.00878906 0.0693359 -0.00878906c4.05273 0 7.28809 -3.06836 7.28809 -8.05664
c0 -0.180664 -0.579102 -9.50879 -1.0498 -18.1055l-5.56738 -98.4287c10.1016 -0.0546875 29.4053 -0.0810547 50.042 -0.0810547z" />
  </g>

</svg>
