<?xml version="1.0" standalone="no"?>
<!DOCTYPE svg PUBLIC "-//W3C//DTD SVG 1.1//EN" "http://www.w3.org/Graphics/SVG/1.1/DTD/svg11.dtd" >
<svg xmlns="http://www.w3.org/2000/svg" xmlns:xlink="http://www.w3.org/1999/xlink" version="1.1" viewBox="-10 0 1020 1000">
  <g transform="matrix(1 0 0 -1 0 800)">
   <path fill="currentColor"
d="M30.3242 741.553h55.5146l17.1611 52.2256l17.1602 -52.2256h55.5156l-44.8672 -32.2959l17.1611 -52.2246l-44.9697 32.2959l-44.9707 -32.2959l17.1611 52.2246zM271 608l-12 60c128.725 89.7881 355.203 55.3633 442.457 48.5605
c0 -0.0107422 0.000976562 -0.0214844 0.000976562 -0.0322266c27.4463 0.582031 75.1855 -1.32129 107.268 -33.4033c40.1396 -40.1396 38.6152 -108.841 37.5254 -169.365c-0.395508 -21.9258 -0.433594 -33.2402 -0.22168 -41.9463
c26.3789 -43.8281 72.168 -89.959 89.3252 -129.607c6.95117 -16.0635 5.49219 -24.7637 2.64551 -40.2051l-12 -14l-79.501 -63.5771v-212.431c1.93945 -31.0869 1.82422 -79.2412 -27.416 -108.48c-26.0322 -26.0322 -182.507 -12.0195 -220.584 -13.0049
l-2.90137 0.0126953c-103.732 -7.2998 -296.108 50.6025 -326.603 92.1719c-18.5059 25.2275 -31.4014 41.2529 -57.9951 55.3086v70.0371c25.8174 -16.2627 49.624 -17.8066 70.1904 -60.6357c44.2188 -92.082 349.455 -105.734 451.309 -108.438l-0.499023 -0.962891
c50 12 34.1514 4.48145 42.5352 13.5361c19.1768 20.7119 3.97852 41.9688 5.50781 57.9648h-0.541992v2.14941c-0.253906 0.990234 -0.500977 1.94141 -0.738281 2.84863h0.738281v207.174v3.4873v1.33887h1.58203l104 88h1.13281
c4.9834 45.8955 -62.8379 92.1289 -94.2158 139.501l-3 4l-1 1c-2.02051 3.99219 0.0439453 4.02539 -2.08398 11.5605c-0.0371094 0.130859 -0.189453 0.24707 -0.174805 0.367188l0.258789 2.07227l0.0644531 1.49902
c0.00976562 0.226562 0.150391 3.89551 0.242188 6.24414c3.11426 79.1523 5.19727 173.389 -83.8154 173.771c-136.35 16.7461 -373.536 9.53418 -431.49 -46.5137zM585.374 406.17c-7.70605 -0.158203 -98.8857 -0.154297 -99.8838 -0.123047
c-6.02637 0.194336 -14.4082 0.464844 -21.5762 8.4043c-2.0918 2.31836 -11.8262 14.1807 -8.72754 31.1445c1.14258 6.25195 2.67773 12.5508 5.53906 23.0352c12.2588 50.4268 15.5811 64.0957 24.7627 82.9102c7.50977 15.3643 24.0742 38.502 54.752 34.834
c36.3975 -4.0332 49.9648 -45.832 59.6855 -85c3.41699 -14.2021 6.90625 -28.377 10.4854 -42.5908c3.13477 -13.0605 6.16895 -25.6992 -1.59863 -38.5498c-3.86328 -6.3916 -11.1133 -14.2002 -23.4385 -14.0645zM537.071 565.617
c-27.6904 2.50879 -39.0752 -27.3535 -49.7861 -69.9297c-8.24414 -33.9395 -8.24414 -33.9395 -11.2285 -45.1299l0.015625 0.0664062c-0.00488281 -0.0224609 -0.015625 -0.0664062 -0.015625 -0.0664062c-2.10547 -8.66504 -3.84863 -15.8398 1.5 -21.1875
c1.96484 -1.96582 2.68555 -2.09863 8.27148 -2.34375c99.1748 0.0429688 99.1748 0.0429688 101.922 0.407227c2.37012 0.295898 8.33789 5.81641 6.35742 15.2188c-0.154297 0.776367 -12.3223 53.8906 -19.332 76.748
c-12.3066 39.6826 -26.9668 45.4746 -37.7041 46.2168zM481.656 427.291l-0.0722656 0.0078125c0.0136719 0 0.0273438 -0.0078125 0.0722656 -0.0078125zM479.99 427.602l-0.338867 0.101562c0.112305 -0.0371094 0.225586 -0.0703125 0.338867 -0.101562zM477.275 429.662
l-0.0683594 0.0742188c0.0224609 -0.0244141 0.0449219 -0.0498047 0.0683594 -0.0742188zM474.211 442.047l0.0146484 0.0966797c-0.00488281 -0.0332031 -0.0146484 -0.0644531 -0.0146484 -0.0966797zM507.116 549.599l0.0527344 0.0800781
c-0.00878906 -0.0126953 -0.0175781 -0.0263672 -0.0527344 -0.0800781zM558.006 554.278l0.0517578 -0.0595703c-0.0175781 0.0195312 -0.0517578 0.0595703 -0.0517578 0.0595703zM594.533 438.223l-0.00585938 -0.207031
c0.00195312 0.0693359 0.00585938 0.137695 0.00585938 0.207031zM535.775 279.375c59.7402 -0.0820312 108.225 -48.6338 108.225 -108.375v-0.0742188c-0.123047 -59.6162 -48.6084 -108 -108.225 -108c-59.7402 0 -108.225 48.4844 -108.225 108.225
s48.4844 108.225 108.225 108.225zM636.351 174.375c-0.744141 20.6309 -12.7725 49.627 -26.8506 64.7256l-42.2246 -42.2256c4.60547 -5.37305 8.87305 -15.4531 9.52441 -22.5h59.5508zM539.525 271.426l-0.0751953 -60c6.97949 -0.597656 17.0596 -4.66406 22.5 -9.0752
l42.2256 42.2246c-15.082 14.0625 -44.0439 26.0918 -64.6504 26.8506zM532.025 271.426c-20.5977 -0.741211 -49.5605 -12.7363 -64.6504 -26.7754l42.1504 -42.2998c5.44141 4.41113 15.5205 8.47754 22.5 9.0752v60zM462.05 239.325
c-14.124 -15.1514 -26.1523 -44.248 -26.8496 -64.9502h59.5498c0.652344 7.04688 4.91992 17.127 9.52539 22.5zM435.2 166.875c0.803711 -20.5342 12.833 -49.3965 26.8496 -64.4238l42.1504 41.9238c-4.60547 5.37305 -8.87305 15.4531 -9.52539 22.5h-59.4746z
M532.025 70.3506l0.0751953 60c-6.97949 0.597656 -17.0596 4.66309 -22.501 9.0752l-42.2246 -42.2256c15.082 -14.0625 44.0439 -26.0918 64.6504 -26.8496zM539.525 70.3506c20.6299 0.742188 49.627 12.7725 64.7246 26.8496l-42.2246 42.2256
c-5.44141 -4.41211 -15.5215 -8.47754 -22.5 -9.0752v-60zM609.5 102.451c13.9941 15.0361 25.9893 43.8984 26.7754 64.4238h-59.4756c-0.651367 -7.04688 -4.91895 -17.127 -9.52441 -22.5zM502.025 170.926c0 -43.0029 67.5 -42.7832 67.5 0
c0 18.3496 -15.1104 33.2246 -33.75 33.2246s-33.75 -14.875 -33.75 -33.2246zM535.775 279.375c59.7402 -0.0820312 108.225 -48.6338 108.225 -108.375v-0.0742188c-0.123047 -59.6162 -48.6084 -108 -108.225 -108c-59.7402 0 -108.225 48.4844 -108.225 108.225
s48.4844 108.225 108.225 108.225zM636.351 174.375c-0.744141 20.6309 -12.7725 49.627 -26.8506 64.7256l-42.2246 -42.2256c4.60547 -5.37305 8.87305 -15.4531 9.52441 -22.5h59.5508zM539.525 271.426l-0.0751953 -60c6.97949 -0.597656 17.0596 -4.66406 22.5 -9.0752
l42.2256 42.2246c-15.082 14.0625 -44.0439 26.0918 -64.6504 26.8506zM532.025 271.426c-20.5977 -0.741211 -49.5605 -12.7363 -64.6504 -26.7754l42.1504 -42.2998c5.44141 4.41113 15.5205 8.47754 22.5 9.0752v60zM462.05 239.325
c-14.124 -15.1514 -26.1523 -44.248 -26.8496 -64.9502h59.5498c0.652344 7.04688 4.91992 17.127 9.52539 22.5zM435.2 166.875c0.803711 -20.5342 12.833 -49.3965 26.8496 -64.4238l42.1504 41.9238c-4.60547 5.37305 -8.87305 15.4531 -9.52539 22.5h-59.4746z
M532.025 70.3506l0.0751953 60c-6.97949 0.597656 -17.0596 4.66309 -22.501 9.0752l-42.2246 -42.2256c15.082 -14.0625 44.0439 -26.0918 64.6504 -26.8496zM539.525 70.3506c20.6299 0.742188 49.627 12.7725 64.7246 26.8496l-42.2246 42.2256
c-5.44141 -4.41211 -15.5215 -8.47754 -22.5 -9.0752v-60zM609.5 102.451c13.9941 15.0361 25.9893 43.8984 26.7754 64.4238h-59.4756c-0.651367 -7.04688 -4.91895 -17.127 -9.52441 -22.5zM502.025 170.926c0 -43.0029 67.5 -42.7832 67.5 0
c0 18.3496 -15.1104 33.2246 -33.75 33.2246s-33.75 -14.875 -33.75 -33.2246zM518.595 351.523c0 8.80176 7.88281 16.251 18.1914 16.251c10.3066 0 18.1904 -7.44922 18.1904 -16.251c0 -8.80273 -7.88379 -16.25 -18.1904 -16.25
c-10.3086 0 -18.1914 7.44727 -18.1914 16.25z" />
  </g>

</svg>
