<?xml version="1.0" standalone="no"?>
<!DOCTYPE svg PUBLIC "-//W3C//DTD SVG 1.1//EN" "http://www.w3.org/Graphics/SVG/1.1/DTD/svg11.dtd" >
<svg xmlns="http://www.w3.org/2000/svg" xmlns:xlink="http://www.w3.org/1999/xlink" version="1.1" viewBox="-10 0 1008 1000">
  <g transform="matrix(1 0 0 -1 0 800)">
   <path fill="currentColor"
d="M172.169 451.279c-1.11619 0 -3.20425 0.265075 -5.06553 1.97469l-115.993 106.542l-12.8511 -9.46584l142.807 -129.363l228.525 291.485l-20.2494 9.30527c-211.358 -267.728 -211.358 -267.728 -211.451 -267.837
c-1.48537 -1.74371 -3.59771 -2.64041 -5.72195 -2.64041zM706.36 520.204c0 -15.7387 -10.6748 -26.1883 -15.1481 -30.4938l-40.9072 -39.3717c-1.44935 -1.39495 -3.32335 -2.09231 -5.19729 -2.09231c-1.87681 0 -3.75356 0.699496 -5.2036 2.09825
c-41.5065 40.0351 -41.5065 40.0351 -41.915 40.4436c-1.21875 1.21875 -13.9219 14.2483 -13.9219 27.8612c0 0.221645 3.2189 17.0841 8.17862 20.6003c5.04699 3.57812 12.1145 6.29176 17.7643 6.29176c11.5435 0 22.0277 -8.44114 28.0096 -14.423
c2.79673 -2.79673 4.01293 -3.96075 7.05287 -3.96075c2.49344 0 4.24738 1.15331 5.35893 2.26486c6.57299 6.57299 15.7733 16.1297 29.9028 16.1297c7.88169 0 17.381 -5.13751 19.5616 -7.97134c3.63252 -4.72072 6.46427 -11.6559 6.46427 -17.3768zM680.284 565.344
c-24.9106 -0.506381 -27.9254 -12.1458 -35.4305 -12.1458c-5.42754 0 -15.2441 12.0251 -34.8428 12.0251c-10.1896 0 -15.3662 -3.2518 -18.3223 -3.2518c-4.08691 0 -7.49715 3.32001 -7.49715 7.51004c0 0.780003 0.868501 13.5229 0.868501 25.6342
c0 3.58379 -0.0756344 6.86351 -0.236911 9.78386c0 0.0390233 -0.00751288 0.0781322 -0.00751288 0.117325c-0.438631 7.79648 -0.544455 15.1272 -0.544455 20.4763c0 4.43959 0.085412 8.26384 0.085412 8.34732c0 0.628276 0 2.78747 -0.684765 2.80221
l-26.4889 0.584592c0.0215226 -3.7995 0.0346915 -7.71953 0.0346915 -11.7536c0 -108.376 -9.50433 -299.068 -121.873 -446.674c-0.746533 -0.980612 -58.5272 -79.8608 -73.2758 -99.0948l21.7264 -17.2001c21.5239 25.5424 31.2937 49.179 57.5713 82.5503
c42.3826 53.8255 89.5182 137.928 102.495 213.287c0.612426 3.5566 3.70418 6.21566 7.39119 6.21566c3.35462 0 6.25689 -2.21822 7.18509 -5.36708c47.8197 -162.225 108.493 -227.636 165.218 -289.049l7.43005 -8.0675l15.5206 10.3471
c-27.9912 25.0093 -154.393 160.623 -169.29 308.029c-5.14966 5.82118 -5.14966 23.1447 -5.14966 30.9518c0 16.5231 2.79529 56.2458 3.97855 58.841c1.25735 2.7577 3.98163 4.38757 6.82907 4.38757c1.01387 0 3.27334 -0.235779 5.20868 -2.11008l46.4697 -45.0039
c2.94404 -2.85133 6.64938 -4.26278 10.3398 -4.26278c5.44111 0 8.47279 2.65525 10.4604 4.39608c0.525142 0.459937 37.285 35.6833 50.1561 48.5544c15.1552 15.1552 20.3895 30.1396 20.3895 43.0906c0 3.11707 -0.582695 20.7186 -13.309 33.4449
c-5.40069 5.40069 -20.0342 12.5762 -32.4056 12.6039z" />
  </g>

</svg>
