<?xml version="1.0" standalone="no"?>
<!DOCTYPE svg PUBLIC "-//W3C//DTD SVG 1.1//EN" "http://www.w3.org/Graphics/SVG/1.1/DTD/svg11.dtd" >
<svg xmlns="http://www.w3.org/2000/svg" xmlns:xlink="http://www.w3.org/1999/xlink" version="1.1" viewBox="-10 0 1008 1000">
  <g transform="matrix(1 0 0 -1 0 800)">
   <path fill="currentColor"
d="M348.481 97.6934l-82.2217 148.848l24.0225 10.1475l58.4395 -100.383l53.3027 101.418l27.2285 -11.0254zM265.568 -67.707v34.6641h38.626v22.0713h-38.626v34.6641h38.626v33.7148h31.3828v-33.7148h23.2197v31.2539h31.3828v-31.2539h41.292v-34.6641h-41.292
v-22.0713h41.292v-34.6641h-41.292v-36.1855h-31.3828v36.1855h-23.2197v-33.7246h-31.3828v33.7246h-38.626zM335.577 -33.043h23.2197v22.0713h-23.2197v-22.0713zM780.659 223.904c-0.529297 0 -0.985352 0.173828 -1.32227 0.358398l-214.094 -88.2627v-37.8242
c12.126 5.10742 24.251 10.2148 36.376 15.3213v-3.77051l-0.21875 -161.659h318.305l0.646484 155.446c10.9619 -6.48535 21.9238 -12.9697 32.8867 -19.4551l-0.677734 40.7051l-136.33 79.1182l1.46387 0.616211c-22.6963 11.7715 -24.457 12.7314 -36.2109 19.5508
c-0.288086 -0.102539 -0.56543 -0.144531 -0.824219 -0.144531zM884.594 -16.7148h-248.003l-0.665039 144.662l142.009 59.8174l107.859 -63.8086zM63.3545 -23.4795h55.5146l17.1611 52.2256l17.1602 -52.2256h55.5156l-44.8672 -32.2959l17.1611 -52.2246
l-44.9697 32.2959l-44.9707 -32.2959l17.1611 52.2246zM618.998 606.364c0 6.90332 5.5957 12.499 12.499 12.499c6.9043 0 12.5 -5.5957 12.5 -12.499c0 -6.9043 -5.5957 -12.501 -12.5 -12.501c-6.90332 0 -12.499 5.59668 -12.499 12.501zM684.897 604.23
c-0.000976563 -0.130859 -0.000976563 -0.34375 -0.000976563 -0.474609c0 -31.7334 15.1475 -75.0371 33.8115 -96.6602c11.7451 -13.6475 4.7041 -38.7979 -10.1201 -40.6475c-4.10156 -0.68457 -10.7871 -1.24121 -14.9258 -1.24121
c-0.112305 0 -0.294922 0.000976562 -0.408203 0.000976562c-61.5459 0.740234 -112.723 63.4932 -114.233 140.072c-0.0107422 0.746094 -0.0205078 1.95801 -0.0205078 2.70508c0 79.0049 51.5205 143.125 115 143.125c6.20117 0 16.1709 -1.21191 22.2549 -2.70508
c14.2627 -3.74023 20.25 -28.6904 8.12598 -40.9336c-21.7949 -21.9912 -39.4834 -68.1797 -39.4834 -103.1v-0.141602zM716.255 485.15c0.332031 1.24512 0.601562 3.32129 0.601562 4.63281c0 3.56543 -1.71191 8.41406 -3.82227 10.8252
c-19.792 23.3652 -35.8555 69.8857 -35.8555 103.838c0 37.3779 18.8457 86.9521 42.0654 110.658c2.19727 2.19824 3.98047 6.8291 3.98047 10.3379c0 7.01465 -4.34766 12.7432 -9.04004 13.8975c-5.72168 1.41602 -15.0977 2.57031 -20.9307 2.57617h-2.60645
c-58.0273 -2.64648 -105.245 -63.5938 -104.727 -136.445c1.26953 -73.6787 49.9316 -130.745 109.373 -130.745c3.38379 0 8.8584 0.395508 12.2197 0.883789c3.83398 0.616211 7.74902 4.89062 8.74121 9.54102zM358 656.373
c78.9893 -0.105469 143.096 -61.874 143.096 -137.877v-0.0957031c-0.163086 -75.8447 -64.2705 -137.4 -143.096 -137.4c-78.9902 0 -143.098 61.6836 -143.098 137.687c0 76.0029 64.1074 137.687 143.098 137.687zM490.981 522.789
c-0.983398 26.2461 -16.8877 63.1367 -35.502 82.3447l-55.8301 -53.7197c6.08984 -6.83496 11.7324 -19.6602 12.5938 -28.625h78.7383zM362.958 646.258l-0.0996094 -76.333c9.22852 -0.759766 22.5557 -5.93262 29.75 -11.5449l55.8311 53.7197
c-19.9404 17.8906 -58.2363 33.1943 -85.4814 34.1582zM353.041 646.258c-27.2344 -0.941406 -65.5293 -16.2021 -85.4814 -34.0635l55.7314 -53.8145c7.19434 5.6123 20.5215 10.7852 29.75 11.5449v76.333zM260.519 605.42
c-18.6748 -19.2754 -34.5801 -56.2939 -35.502 -82.6309h78.7383c0.862305 8.96484 6.50488 21.79 12.5938 28.625zM225.017 513.248c1.0625 -26.125 16.9678 -62.8438 35.502 -81.9629l55.7314 53.3379c-6.08984 6.83496 -11.7314 19.6592 -12.5947 28.625h-78.6387z
M353.041 390.446l0.0986328 76.333c-9.22754 0.760742 -22.5557 5.93262 -29.75 11.5459l-55.8301 -53.7197c19.9404 -17.8906 58.2354 -33.1943 85.4814 -34.1592zM362.958 390.446c27.2773 0.945312 65.6172 16.249 85.5811 34.1592l-55.8311 53.7197
c-7.19434 -5.61328 -20.5225 -10.7852 -29.75 -11.5459v-76.333zM455.479 431.285c18.5029 19.1299 34.3633 55.8496 35.4033 81.9629h-78.6396c-0.861328 -8.96582 -6.50391 -21.79 -12.5938 -28.625zM313.375 518.4c0 -54.709 89.25 -54.4287 89.25 0
c0 23.3447 -19.9805 42.2695 -44.625 42.2695c-24.6465 0 -44.625 -18.9248 -44.625 -42.2695z" />
  </g>

</svg>
