<?xml version="1.0" standalone="no"?>
<!DOCTYPE svg PUBLIC "-//W3C//DTD SVG 1.1//EN" "http://www.w3.org/Graphics/SVG/1.1/DTD/svg11.dtd" >
<svg xmlns="http://www.w3.org/2000/svg" xmlns:xlink="http://www.w3.org/1999/xlink" version="1.1" viewBox="-10 0 890 1000">
  <g transform="matrix(1 0 0 -1 0 800)">
   <path fill="currentColor"
d="M174.221 -61.2959zM380.548 -55.9424v263.013l80.8701 -0.34668l63.0254 -53.1484c1.23047 24.1914 1.23047 24.1914 2.20801 54.5l190.772 -2.45117v-66.4404l-54.499 -59.7695l32.7266 -4.33887c8.66699 1.33301 17.333 2.66699 26 4l-4.22754 -136.465z
M735.938 -84.5088c4.71582 0 8.54785 3.82812 8.57422 8.39453l-1.86133 158.189c12.9092 -1.84375 12.9092 -1.84375 53.0537 -4.08301l-51.1943 59.6084v86.5381c0 4.71973 -3.81641 8.49805 -8.24219 8.54785l-211.617 -4.61133
c-2.01074 37.2061 -2.01074 37.2061 -4.71582 58.1729l-57.9854 -52.4619l-3.87793 0.015625s-96.001 0.388672 -96.042 0.388672c-4.71777 0 -8.57227 -3.83398 -8.57227 -8.54297v-300.105c0 -4.69922 3.84863 -8.54199 8.54199 -8.54199
c0 0 373.897 -1.50879 373.938 -1.50879zM69.3242 18.2246h55.5146l17.1611 52.2256l17.1602 -52.2256h55.5156l-44.8672 -32.2959l17.1611 -52.2246l-44.9697 32.2959l-44.9707 -32.2959l17.1611 52.2246zM677.919 542.685zM421.33 715.309zM373.413 627.094z
M560.114 511.756zM559.776 501.044zM417.126 540.877zM499.364 515.004zM723.688 647.039zM373.413 627.094zM723.688 647.039zM610.118 758.287c-19.5781 0 -35.876 -8.50391 -42.1201 -16.8623l-1.83301 -1.36621c-5.76172 -2.10059 -11.3848 -2.85938 -16.5049 -2.85938
c-11.1494 0 -19.915 3.59863 -22.54 4.77832l-1.45215 1.11133c-2.18457 2.65918 -11.2734 13.3633 -32.3584 13.3633c-25.1533 0 -55.0625 -15.6211 -65.3809 -39.75l-2.69238 -1.77441l-47.0801 -63.9688l-2.49902 -1.26367v-0.81543
c-0.415039 -1.54785 -0.980469 -2.94629 -1.93945 -3.9502l0.771484 -1.00586l-4.22168 -15.8281l-0.916992 -0.691406c-0.126953 -2.50293 -0.365234 -3.95703 -1.16309 -7.07715l0.964844 -0.972656c-0.00195312 -0.145508 -0.00195312 -0.291016 -0.00195312 -0.436523
c0 -13.6797 5.87793 -42.6318 47.2803 -76.873c43.5518 -36.0205 92.8154 -40.0293 134.035 -40.0293c67.7891 0 94.5811 8.4375 134.645 40.0957c48.3643 38.2168 49.5713 49.4355 50.9404 77.3291l-1.6875 1.31348c-2.66113 9.93359 -4.91992 21.1572 -8.07227 30.7822
l-0.268555 0.138672l-34.667 59.2373c-4.01465 4.19043 -4.01465 4.19043 -4.49805 5.03223c-0.530273 0.222656 -0.530273 0.222656 -2.375 2.06738c-12.2637 12.2637 -37.1543 34.002 -60.583 38.8594c-4.71777 0.978516 -9.33691 1.41602 -13.7812 1.41602z
M727.379 650.974l0.0634766 -0.213867zM727.266 655.599l-0.845703 -1.41406l0.234375 -0.78418zM492.493 744.84c8.0332 0 15.7256 -1.96973 22.125 -6.37305l0.69043 -1.45508c0.670898 -0.292969 1.75684 -0.848633 2.75 -1.79199
c7.59961 -7.22168 19.6982 -10.9307 31.3525 -10.9307c1.32227 0 25.1572 0.200195 29.918 14.542l1.54297 2.04102c8.28906 5.65723 19.0869 8.73242 29.6943 8.73242c18.4004 0 27.1777 -8.1748 33.5625 -14.1211c4.86719 -4.5332 11.127 -10.3906 24.7656 -19.4365
c0.546875 -0.171875 1.88379 -0.733398 2.64551 -2.26758l0.443359 -0.232422l38.8457 -61.2705c0.0175781 -0.0605469 1.46094 -5.19043 1.60449 -6.15039l0.238281 -0.03125l6.92285 -27.6367c0.989258 -3.9502 1.59082 -7.74316 1.59082 -11.4932
c0 -17.085 -12.2939 -30.6582 -48.4551 -60.208c-33.0713 -27.0244 -57.5645 -36.2461 -128.554 -36.2461c-38.7822 0 -70.4561 4.78418 -107.177 30.4893c-44.4219 31.0947 -51.5889 54.5488 -51.5889 76.6934c0 2.26953 0 3.48145 0.195312 4.81836l6.80078 25.502
l0.59375 1.26953l42.4834 60.1445l2.8291 0.857422c9.95117 23.4385 35.8555 34.5547 54.1797 34.5547zM515.921 735.723c0 0 -0.456055 0.991211 -0.478516 1.00781zM567.427 492.12zM547.746 554.59h10.6318v12.1465l1.1709 2.82812l57.1777 57.1768l-7.56348 7.45703
l-43.957 -43.957l-6.82812 2.82812v27.7461l1.1709 2.8291l34.4121 34.4111l-7.53223 7.53125l-21.2227 -21.2227l-6.82812 2.82812v43.6963h-10.6318v-42.7861l-6.82715 -2.82812l-20.8613 20.8604l-7.56055 -7.45508l34.0801 -34.125l1.16895 -2.82617v-28.6592
l-6.82715 -2.82812l-43.958 43.957l-7.5625 -7.45703l57.1768 -57.1768l1.1709 -2.82812v-12.1465z" />
  </g>

</svg>
