<?xml version="1.0" standalone="no"?>
<!DOCTYPE svg PUBLIC "-//W3C//DTD SVG 1.1//EN" "http://www.w3.org/Graphics/SVG/1.1/DTD/svg11.dtd" >
<svg xmlns="http://www.w3.org/2000/svg" xmlns:xlink="http://www.w3.org/1999/xlink" version="1.1" viewBox="-10 0 1008 1000">
  <g transform="matrix(1 0 0 -1 0 800)">
   <path fill="currentColor"
d="M348.481 97.6934l-82.2217 148.848l24.0225 10.1475l58.4395 -100.383l53.3027 101.418l27.2285 -11.0254zM265.568 -67.707v34.6641h38.626v22.0713h-38.626v34.6641h38.626v33.7148h31.3828v-33.7148h23.2197v31.2539h31.3828v-31.2539h41.292v-34.6641h-41.292
v-22.0713h41.292v-34.6641h-41.292v-36.1855h-31.3828v36.1855h-23.2197v-33.7246h-31.3828v33.7246h-38.626zM335.577 -33.043h23.2197v22.0713h-23.2197v-22.0713zM780.659 223.904c-0.529297 0 -0.985352 0.173828 -1.32227 0.358398l-214.094 -88.2627v-37.8242
c12.126 5.10742 24.251 10.2148 36.376 15.3213v-3.77051l-0.21875 -161.659h318.305l0.646484 155.446c10.9619 -6.48535 21.9238 -12.9697 32.8867 -19.4551l-0.677734 40.7051l-136.33 79.1182l1.46387 0.616211c-22.6963 11.7715 -24.457 12.7314 -36.2109 19.5508
c-0.288086 -0.102539 -0.56543 -0.144531 -0.824219 -0.144531zM884.594 -16.7148h-248.003l-0.665039 144.662l142.009 59.8174l107.859 -63.8086zM63.3545 -23.4795h55.5146l17.1611 52.2256l17.1602 -52.2256h55.5156l-44.8672 -32.2959l17.1611 -52.2246
l-44.9697 32.2959l-44.9707 -32.2959l17.1611 52.2246zM740.225 697.881c0 -48.3438 39.0439 -115.1 54.6875 -124.389l5.59961 -3.32422c-8.47168 -0.239258 0.594727 0.450195 -17.2871 -1.78711l-0.538086 0.681641c-11.0029 13.9619 -52.002 83.5049 -58.4512 132.117
c-0.329102 2.47461 0.0107422 4.89844 0.291016 9.13867c-0.692383 0.354492 -1.44336 0.744141 -2.26172 1.16992c-0.0136719 -0.919922 -0.161133 -1.9082 -0.0224609 -2.94336c16.6895 -124.831 53.7734 -136.871 53.7734 -136.871s3.45605 -2.14551 5.13965 -3.29297
h-16.4307c-22.0732 8.06348 -55.8486 104.084 -55.8486 139.665c0 4.36816 0.151367 7.65723 0.392578 10.3428c-30.332 16.168 -61.5898 32.3496 -113.442 32.3496c-11.5264 0 -22.7617 -1.02344 -36.6973 -3.08789c-16.1621 -2.39453 -16.1621 -2.39453 -35.3076 -10.6006
c-9.45801 -4.05371 -25.1074 -23.7031 -29.083 -33.3594c-3.51367 -8.5332 -4.54004 -15.1338 -4.54004 -22.9453c0 -11.166 1.81445 -22.1885 1.81445 -38.5771c0 -4.49609 0.573242 -6.92871 0.573242 -10.0967c0 -2.28516 -0.306641 -4.82324 -1.36621 -8.30176
c-9.97461 -32.7393 -20.1582 -43.5234 -31.916 -55.0908c-3.12988 -3.08008 -13.5254 -13.3086 -13.5254 -18.8936c0 -2.22852 0.441406 -3.45508 19.1729 -9.72656c27.96 -9.36328 30.0127 -12.2051 30.0127 -45.4883c0 -21.5059 -2.37109 -31.3867 -2.37109 -52.2461
c0 -2.75 0.0410156 -5.69336 0.133789 -8.88379c0.251953 -8.64551 8.22559 -22.6699 11.9492 -28.7676c0.597656 -0.151367 0.979492 -0.59082 0.979492 -0.59082c0.577148 -0.333984 1.24219 -0.800781 2.06738 -1.37207
c8.02539 -5.55762 11.0029 -6.59277 20.4219 -6.59277c12.0176 0 11.1729 2.10742 39.5303 2.10742c0.158203 0 3.47266 -0.00195312 3.50781 -0.00195312c7.39941 0 12.834 0.113281 26.0518 1.90039c10.1006 1.36719 19.4131 2.30859 28.2539 3.20312
c60.4697 6.11621 71.8555 12.0732 111.089 40.0977c1.11719 0.796875 2.57227 1.92578 4.22852 3.21289c6.30566 4.89844 16.5156 13.4502 24.0713 13.4502c4.08301 0 6.91699 -2.47949 6.91699 -7.08301c0 -7.72266 -8.7041 -21.4238 -16.5469 -21.4238
c-0.582031 0 -0.783203 0.0644531 -1.50879 0.0644531c-11.3213 0 -22.1807 -18.2627 -39.7383 -25.6445c-26.4434 -11.1172 -40.1494 -13.5645 -58.7295 -16.8555c-8.62793 -1.52734 -18.3252 -3.24609 -30.9404 -6.11914
c-17.3623 -3.95508 -25.8154 -4.30566 -43.377 -4.30566c-0.125977 0 -11.3945 0.015625 -12.541 0.015625c-5.65527 0 -16.3086 -0.0615234 -16.4736 -0.0615234c-20.3887 0 -41.252 1.43359 -60.4551 12.4062c-13.0479 7.45605 -13.9541 18.0518 -15.0225 30.5293
c-0.238281 2.79492 -0.488281 5.69922 -0.878906 8.69531c-0.982422 7.85742 -1.31836 14.8555 -1.31836 21.4453c0 14.3291 1.58789 26.7129 1.58789 42.0859c0 23.2129 -2.2998 24.5 -14.877 29.4062c-13.6592 5.33008 -28.6074 6.62891 -35.417 13.4385
c-2.16504 2.16504 -3.33301 4.84473 -3.33301 8.05469c0 2.39746 0.652344 5.09277 2.02637 8.08887c18.2471 39.7979 34.3184 35.0371 45.6855 69.8799c2.60156 7.97168 3.46777 16.126 3.46777 24.3398c0 16.2822 -3.38867 32.5811 -3.38867 47.9062
c0 23.8252 8.62012 34.1924 17.5254 43.0967c33.1211 33.1211 71.8369 33.1777 119.45 33.1777h0.494141c41.4082 0 66.0674 -11.6738 94.0107 -24.9238c21.7773 -10.3262 10.9258 -7.85547 16.2285 -8.41992c5.69922 -0.609375 19.5 -6.5 23.752 -15.2031
c2.1582 -4.41797 -2.06152 -10.834 -2.25195 -14.7969c-0.128906 -2.68359 1 -7.17188 1 -10zM392.043 737.434c0 -0.302734 -0.0361328 -1.2998 -0.0449219 -1.53711c0 -6.98438 -3.58691 -15.0898 -12.3057 -23.4805l-37.1514 -35.7568
c-37.4814 36.1562 -37.4814 36.1562 -37.6689 36.3428c-3.05762 3.05859 -11.1885 11.1885 -11.6982 24.1279c2.8252 9.7168 4.12891 14.1992 6.51074 16.0605c4.1748 3.2627 10.5342 5.67773 15.4434 5.67773c9.44727 0 17.8916 -6.5957 23.0439 -11.748
c2.27441 -2.27539 2.55469 -2.61426 4.34961 -2.61426c0.553711 0 1.73633 0 3.16113 1.4248c5.11328 5.11328 12.6943 12.9463 24.3867 12.9463c6.85547 0 14.5547 -4.41699 16.2363 -6.43555c3.02148 -3.62988 5.7373 -10.5557 5.7373 -15.0078zM314.878 770.906
c-9.86035 0 -20.2432 -5.3877 -24.5469 -9.69141c-3.77148 -3.77148 -9.33594 -14.6748 -9.33594 -23.7197c0 -0.524414 0.015625 -1.15234 0.0419922 -1.70801l0.00488281 -0.109375v-0.110352c0.0527344 -16.2539 13.0283 -29.5527 15.9385 -32.0439l38.541 -37.3223
c1.84473 -1.78711 4.25781 -2.85938 6.93555 -2.85938c3.65332 0 5.65332 1.75293 7.00781 2.93945c0.410156 0.359375 29.2666 28.0127 39.1982 37.9443c14.7812 14.7812 15.3818 27.0596 15.3818 33.1416v0.0820312c0 9.0918 -4.78906 19.1758 -9.84863 24.2344
c-3.84473 3.84473 -15.1191 9.35645 -24.1748 9.375c-12.0371 -0.242188 -16.4697 -2.99316 -27.6602 -11.3057c-7.53906 5.59473 -15.0293 11.1533 -27.4834 11.1533z" />
  </g>

</svg>
