<?xml version="1.0" standalone="no"?>
<!DOCTYPE svg PUBLIC "-//W3C//DTD SVG 1.1//EN" "http://www.w3.org/Graphics/SVG/1.1/DTD/svg11.dtd" >
<svg xmlns="http://www.w3.org/2000/svg" xmlns:xlink="http://www.w3.org/1999/xlink" version="1.1" viewBox="-10 0 1036 1000">
  <g transform="matrix(1 0 0 -1 0 800)">
   <path fill="currentColor"
d="M401.857 184.625c-0.974609 -33.3994 2.7207 -73.1191 83.835 -129.9c68.8311 -48.1816 125.866 -51.6426 204.167 -49.7031c91.2285 2.34863 129.297 14.0742 184.385 59.0889c73.2568 59.8643 85.3945 78.625 76.585 113.791l-11.6484 46.5049l-0.426758 -0.763672
c0.0234375 2.81445 -1.8584 6.39355 -1.83398 9.20898l-65.3672 103.1c-1.75391 -0.0693359 -0.353516 1.52441 -2.10742 1.45605c-40.4609 26.6758 -44.7754 38.2334 -59.8896 47.1465c-23.2744 13.7246 -59.0557 10.9619 -81.8369 -4.58594
c-11.3398 -34.1611 -81.6992 -39.6348 -114.121 -8.83008c-3.02148 2.87109 -5.25 1.27344 -4.96484 4.79688c-34.6553 23.8477 -99.5693 -0.178711 -117.913 -43.3818l-2.22363 -5.23926l-3.70898 1.42773l-71.4854 -101.205zM974.872 237.755
c5.56738 -16.8633 9.15234 -35.1133 13.835 -52.5947l3.26367 -0.0537109c-2.48145 -52.3799 -3.41602 -72.1045 -88.4727 -139.314c-63.29 -50.0107 -109.626 -67.627 -214.95 -68.8145c-72.4492 -0.816406 -164.719 1.89551 -245.606 68.7969
c-31.875 26.3613 -82.4707 77.3809 -82 135.336h-2.26855c2.47754 9.29004 2.47754 9.29004 2.71387 16.4229l1.66016 -0.0283203l7.10156 26.6348h-3.11719c1.61816 2.19922 3.23828 4.39844 4.85547 6.59668v7.48438h5.50977l80.4365 109.291h2.55176
c27.8301 65.0771 134.447 96.4268 175.858 46.0176c5.87988 -2.64258 32.5469 -13.2822 60.626 -3.04492c14.4639 19.3584 55.1035 38.041 100.836 28.5576c44.2324 -9.17188 88.8516 -50.3193 108.428 -70.3535h0.938477
c0.69043 -1.0166 1.16309 -2.18262 2.03027 -3.07227l6.15039 -6.41797l58.7324 -100.361c0.875977 0.0751953 1.56836 0.0195312 1.43066 -0.616211zM964.243 227.639zM374.84 194.077zM964.243 227.639zM586.777 5.46484zM448.396 49zM688.432 -18.0254zM689 0z
M374.84 194.077zM455.47 342.515zM887.23 52.043zM36.5 708v0zM42.2285 48.4941v0zM43.7793 14.001v0zM292.48 14.001l-1.97266 726.494h-254.008v-32.4951h219.5v-659.506h-213.771l1.55078 -34.4932h248.701zM292.48 14.001v0zM290.508 740.495v0zM36.5 740.495v0z
M633.402 68.6758l-11.1758 -0.748047l5.17383 6.64258zM541.546 202.928l-5.37207 4.93555l10.4551 0.306641zM541.546 202.928l-21.8711 -22.5547l107.726 -105.803l174.924 224.538l-24.7305 17.1729l-151.094 -191.385zM777.594 316.281l-5.78906 4.02051l10.166 1.52344
zM802.324 299.108l4.86523 6.24512l1.64844 -10.7686zM519.675 180.373l-5.18652 -5.34863l-0.130859 10.5713z" />
  </g>

</svg>
