<?xml version="1.0" standalone="no"?>
<!DOCTYPE svg PUBLIC "-//W3C//DTD SVG 1.1//EN" "http://www.w3.org/Graphics/SVG/1.1/DTD/svg11.dtd" >
<svg xmlns="http://www.w3.org/2000/svg" xmlns:xlink="http://www.w3.org/1999/xlink" version="1.1" viewBox="-10 0 900 1000">
  <g transform="matrix(1 0 0 -1 0 800)">
   <path fill="currentColor"
d="M441.911 656.396zM441.606 652.796zM656.714 615.319c0 59.5705 -45.4543 91.1153 -68.8435 100.327l-45.4569 17.9035c54.0815 -9.35237 54.0815 -9.35237 59.4808 -10.9464c0.481653 0.132445 1.02632 0.229141 1.5894 0.229141
c1.86349 0 101.244 -12.7525 154.244 -104.569l1.44096 -2.49634c-22.6644 -39.3454 -63.1521 -90.463 -157.049 -107.195l-25.7524 -4.58898c19.4934 12.286 31.2358 17.6542 49.057 36.0719c22.6918 22.6918 31.2905 48.4872 31.2905 75.2643zM546.935 529.334
c-52.0756 0 -87.8467 41.6374 -87.8467 85.4371c0 15.5897 3.79345 26.0912 7.24222 35.6386l1.1183 -0.417277c17.916 26.4615 17.916 26.4615 19.0769 27.2272c26.2782 17.3304 26.3279 17.3364 27.0102 17.4188c8.26235 3.44395 20.4984 6.73046 34.5139 6.73046
c19.1174 0 41.5455 -6.11473 61.7154 -26.2853c17.4323 -17.4323 24.8707 -37.805 24.9461 -59.444c0 -15.0123 -3.21285 -38.2859 -24.951 -60.024c-10.17 -10.169 -29.6709 -26.2817 -62.8254 -26.2817zM799.73 615.763
c-13.4635 23.7754 -78.1168 136.452 -247.646 136.452c-29.7944 0 -170.233 -0.386094 -248.184 -136.45c12.0689 -21.0521 25.5072 -39.222 42.3466 -56.0614c77.5308 -77.5318 173.525 -80.0057 204.607 -80.0581c0.410213 0 0.820425 -0.000488282 1.23064 -0.000488282
c31.2938 0.000488282 127.495 2.00511 205.38 79.8905c21.9074 21.9074 35.1656 43.6379 42.2657 56.2277zM444.435 654.988c0 -3.16849 -7.40625 -17.1793 -7.40625 -40.757c0 -47.2628 30.8933 -80.545 60.1624 -94.9046l35.1535 -17.2465l-38.3668 7.86069
c-38.9273 7.97553 -106.682 31.8756 -148.083 103.32l-1.44921 2.50084c16.6884 28.9222 55.4466 89.0196 155.646 107.239l2.66453 -9.59686c-13.7445 -5.1685 -35.2595 -19.8315 -42.056 -31.1723c-3.3191 -5.53834 -6.75296 -5.74977 -8.94194 -11.3305
c-0.892558 -2.27413 -5.19257 -9.96463 -7.35808 -15.2816c0.0236414 -0.212781 0.0344402 -0.423736 0.0344402 -0.631101zM647.928 40.5068zM216.168 330.979zM135.538 182.541zM449.698 -11.5361zM449.13 -29.5615zM209.094 37.4639zM347.476 -6.07129zM724.941 216.103z
M135.538 182.541zM724.941 216.103zM735.57 226.219c5.56738 -16.8633 9.15234 -35.1133 13.835 -52.5947l3.26367 -0.0537109c-2.48145 -52.3799 -3.41602 -72.1045 -88.4727 -139.314c-63.29 -50.0107 -109.626 -67.627 -214.95 -68.8145
c-72.4492 -0.816406 -164.719 1.89551 -245.607 68.7969c-31.874 26.3613 -82.4697 77.3809 -82 135.336h-2.26758c2.47754 9.29004 2.47754 9.29004 2.71387 16.4229l1.65918 -0.0283203l7.10254 26.6348h-3.11816c1.61914 2.19922 3.23828 4.39844 4.85645 6.59668
v7.48438h5.50977l80.4365 109.291h2.55176c27.8301 65.0771 134.447 96.4268 175.858 46.0176c5.87988 -2.64258 32.5469 -13.2822 60.626 -3.04492c14.4639 19.3584 55.1035 38.041 100.836 28.5576c44.2324 -9.17188 88.8516 -50.3193 108.428 -70.3535h0.938477
c0.689453 -1.0166 1.16211 -2.18262 2.0293 -3.07227l6.15137 -6.41797l58.7324 -100.361c0.875977 0.0751953 1.56836 0.0195312 1.43066 -0.616211zM162.556 173.089c-0.974609 -33.3994 2.71973 -73.1191 83.835 -129.9
c68.8311 -48.1816 125.865 -51.6426 204.166 -49.7031c91.2295 2.34863 129.297 14.0742 184.386 59.0889c73.2568 59.8643 85.3945 78.625 76.585 113.791l-11.6484 46.5049l-0.427734 -0.763672c0.0244141 2.81445 -1.85742 6.39355 -1.83301 9.20898l-65.3672 103.1
c-1.75391 -0.0693359 -0.353516 1.52441 -2.10742 1.45605c-40.4619 26.6758 -44.7754 38.2334 -59.8896 47.1465c-23.2744 13.7246 -59.0566 10.9619 -81.8369 -4.58594c-11.3398 -34.1611 -81.7002 -39.6348 -114.121 -8.83008
c-3.02148 2.87109 -5.25098 1.27344 -4.96484 4.79688c-34.6553 23.8477 -99.5693 -0.178711 -117.913 -43.3818l-2.22461 -5.23926l-3.70801 1.42773l-71.4854 -101.205zM703.895 180.662zM192.369 721.15c0 -2.27192 0.346849 -13.1023 0.346849 -13.3962
c0 -22.2275 -5.8432 -64.7207 -5.8432 -83.1604c0 -12.7191 1.78579 -7.07078 2.22354 -11.7505c5.45359 -58.6457 56.7055 -120.57 77.6636 -136.945l5.46137 -4.26716c-21.7301 -14.4712 -21.7301 -14.4712 -23.8515 -14.4712
c-0.864904 0 -3.25472 0.195513 -5.09197 2.19391c-43.0802 46.8586 -55.715 66.421 -74.63 118.295c-3.71925 -11.5807 -15.8631 -44.6325 -42.6472 -78.6486c-10.3225 -13.1085 -20.802 -32.4052 -27.2946 -38.8978
c-1.06027 -1.06027 -2.51712 -2.94319 -5.85785 -2.94319c-2.66816 0 -3.25313 0.470888 -18.683 12.8916c-0.626638 0.665286 -2.13963 2.27159 -2.13963 5.05086c0 1.50585 0.483779 3.01513 1.4506 4.26954c6.01589 7.79892 18.2784 24.4904 34.5322 46.6201
c48.1297 63.2224 52.8808 146.161 52.8808 195.316c0 0.671077 -0.000473161 1.29579 -0.000473161 1.87965c0 6.83343 0 13.0055 6.30019 13.0055c0.159441 0 13.5313 -0.318797 15.9369 -0.478601c2.67332 -0.177589 4.80126 -0.318948 6.49333 -2.89181
c1.83819 -1.96407 2.78802 -4.73698 2.78802 -7.93149c0 -0.149729 -0.038037 -1.84192 -0.038037 -3.74036zM187.459 616.515c0.00800071 -0.00746897 0 -0.00373449 0 0z" />
  </g>

</svg>
