<?xml version="1.0" standalone="no"?>
<!DOCTYPE svg PUBLIC "-//W3C//DTD SVG 1.1//EN" "http://www.w3.org/Graphics/SVG/1.1/DTD/svg11.dtd" >
<svg xmlns="http://www.w3.org/2000/svg" xmlns:xlink="http://www.w3.org/1999/xlink" version="1.1" viewBox="-10 0 753 1000">
  <g transform="matrix(1 0 0 -1 0 800)">
   <path fill="currentColor"
d="M385 432l-116.681 105.696l18.9072 13.9258l90.4043 -83.0371l161.203 204.191l25.6836 -11.8018zM425.549 -91.9541v169.248l2.35156 0.981445c4.10254 0.522461 15.6582 6.22949 21.8906 14.0771c0.111328 0.139648 5.49609 9.04492 8.33203 15.6172h180.136
l-0.708008 -6.30859c-4.36426 -38.9189 -26.3223 -88.8262 -52.4893 -119.305c-8.22363 -9.5791 -4.83398 -7.11719 -9.94727 -11.915c-3.83496 -3.59863 -7.80273 -6.02637 -10.7656 -7.8584l0.339844 -0.318359l-5.25391 -3.99219
c-32.4453 -24.6514 -85.6406 -45.3809 -127.153 -49.5498zM638.604 129.37h-180.312c-0.761719 1.96484 0.524414 -2.74316 0 0.000976562c-1.30078 6.83105 -3.83887 10.1309 -12.3018 17.2441c-0.0976562 0.0820312 -4.23047 3.65527 -9.08594 8.84082
c-2.77441 1.38477 -3.74902 1.87109 -11.3555 4.5498v169.13l6.73242 -0.675781c39.1357 -3.93164 88.582 -22.5928 121.307 -45.3291c6.58203 -4.57324 6.3584 -2.65039 13.2812 -8.79688c2.17578 -1.93262 2.47266 -2.19531 3.49805 -2.55957
c2.0957 -0.743164 3.51758 -1.24609 4.75293 -3.50586c1.71387 -3.13477 1.7666 -1.36719 4.38574 -6.22754c6.92969 -4.36816 7.53906 -5.56152 12.0303 -14.3525l-0.125 -0.179688c26.2275 -34.623 42.9023 -79.7666 46.4873 -111.832zM402.574 329.453v-169.245
l-3.02637 -1.26074c-0.995117 -0.81543 -2.22949 -1.34863 -4.64551 -3.09863c-2.13281 -1.5459 -0.207031 1.16992 -4.25586 -3.4248l-4.25781 -3.99512c-0.606445 -0.568359 0.608398 0.570312 -3.04102 -2.2832c-7.29883 -6.27832 -5.47363 -4.56543 -6.82715 -6.0957
c-0.804688 -0.912109 -1.20996 -3.30371 -2.9043 -5.88965c-0.236328 -0.362305 -1.79102 0.422852 -2.84863 -4.62988h-180.903l0.708008 6.30762c4.36426 38.9199 26.3213 88.8271 52.4893 119.306c3.58789 4.17871 1.61719 2.29785 5.87402 6.86328
c1.69922 1.82227 2.43262 2.2832 2.9043 3.04395c0.106445 0.171875 11.5303 8.51953 17.1562 13.1016c20.7461 13.54 65.8789 44.501 126.845 50.625zM414.065 351.328c-136.807 0 -247.844 -104.194 -247.844 -232.578c0 -128.39 111.042 -232.578 247.84 -232.578
c136.814 0 247.84 104.204 247.84 232.578c-0.188477 128.216 -111.227 232.4 -247.836 232.578zM189.531 107.97h180.297c0.818359 -2.10645 -1.78711 -0.552734 3.17969 -9.7666c3.62305 -6.7207 12.7988 -14.1826 15.2129 -15.5264
c0.439453 -0.245117 -1.9668 1.34473 -1.22363 1.25781c1.25195 -0.146484 2.72949 -2.13281 5.2373 -3.14062h1.20117c1.0293 -0.429688 1.0293 -0.429688 9.13867 -2.99805v-169.434l-6.72754 0.668945c-41.4922 4.13379 -94.6758 24.7979 -127.139 49.4014
l-5.2666 3.99121l0.645508 0.605469c-5.30859 6.25293 -5.61328 6.61035 -8.73438 8.78906c-2.18652 1.52734 -4.17578 3.02637 -7.27539 6.30762l-0.770508 -0.725586l-4.26172 4.93945c-26.2656 30.4492 -48.3506 80.3604 -52.793 119.312z" />
  </g>

</svg>
