<?xml version="1.0" standalone="no"?>
<!DOCTYPE svg PUBLIC "-//W3C//DTD SVG 1.1//EN" "http://www.w3.org/Graphics/SVG/1.1/DTD/svg11.dtd" >
<svg xmlns="http://www.w3.org/2000/svg" xmlns:xlink="http://www.w3.org/1999/xlink" version="1.1" viewBox="-10 0 1042 1000">
  <g transform="matrix(1 0 0 -1 0 800)">
   <path fill="currentColor"
d="M46.8232 736.879h55.5146l17.1611 52.2256l17.1602 -52.2256h55.5156l-44.8672 -32.2959l17.1611 -52.2246l-44.9697 32.2959l-44.9707 -32.2959l17.1611 52.2246zM287.499 603.326l-12 60c128.725 89.7881 355.203 55.3633 442.457 48.5605
c0 -0.0107422 0.000976562 -0.0214844 0.000976562 -0.0322266c27.4463 0.582031 75.1855 -1.32129 107.268 -33.4033c40.1396 -40.1396 38.6152 -108.841 37.5254 -169.365c-0.395508 -21.9258 -0.433594 -33.2402 -0.22168 -41.9463
c26.3789 -43.8281 72.168 -89.959 89.3252 -129.607c6.95117 -16.0635 5.49219 -24.7637 2.64551 -40.2051l-12 -14l-79.501 -63.5771v-212.431c1.93945 -31.0869 1.82422 -79.2412 -27.416 -108.48c-26.0322 -26.0322 -182.507 -12.0195 -220.584 -13.0049
l-2.90137 0.0126953c-103.732 -7.2998 -296.108 50.6025 -326.603 92.1719c-18.5059 25.2275 -31.4014 41.2529 -57.9951 55.3086v70.0371c25.8174 -16.2627 49.624 -17.8066 70.1904 -60.6357c44.2188 -92.082 349.455 -105.734 451.309 -108.438l-0.499023 -0.962891
c50 12 34.1514 4.48145 42.5352 13.5361c19.1768 20.7119 3.97852 41.9688 5.50781 57.9648h-0.541992v2.14941c-0.253906 0.990234 -0.500977 1.94141 -0.738281 2.84863h0.738281v207.174v3.4873v1.33887h1.58203l104 88h1.13281
c4.9834 45.8955 -62.8379 92.1289 -94.2158 139.501l-3 4l-1 1c-2.02051 3.99219 0.0439453 4.02539 -2.08398 11.5605c-0.0371094 0.130859 -0.189453 0.24707 -0.174805 0.367188l0.258789 2.07227l0.0644531 1.49902
c0.00976563 0.226562 0.150391 3.89551 0.242188 6.24414c3.11426 79.1523 5.19727 173.389 -83.8154 173.771c-136.35 16.7461 -373.536 9.53418 -431.49 -46.5137zM554.811 76.1514l-46.6729 42.2783l7.56348 5.57129l36.1611 -33.2158l64.4814 81.6768l10.2734 -4.7207z
M664.998 57.75zM479.958 182.238zM445.402 118.622zM580.042 35.4463zM579.799 27.7207zM476.926 56.4463zM536.232 37.7891zM698.004 133.006zM445.402 118.622zM698.004 133.006zM702.559 137.341c2.38672 -7.22656 3.92285 -15.0479 5.92969 -22.54l1.39844 -0.0224609
c-1.06348 -22.4492 -1.46387 -30.9023 -37.917 -59.707c-27.124 -21.4336 -46.9824 -28.9824 -92.1211 -29.4912c-31.0498 -0.350586 -70.5938 0.811523 -105.261 29.4834c-13.6602 11.2979 -35.3438 33.1631 -35.1426 58.001h-0.97168
c1.06152 3.98145 1.06152 3.98145 1.16309 7.03906l0.710938 -0.0117188l3.04395 11.415h-1.33594c0.693359 0.941406 1.3877 1.88379 2.08105 2.82617v3.20801h2.36133l34.4727 46.8389h1.09375c11.9268 27.8906 57.6201 41.3262 75.3682 19.7217
c2.51953 -1.13184 13.9482 -5.69238 25.9824 -1.30469c6.19824 8.29688 23.6152 16.3027 43.2148 12.2383c18.957 -3.93066 38.0791 -21.5654 46.4697 -30.1514h0.401367c0.295898 -0.43457 0.498047 -0.93457 0.870117 -1.31641l2.63672 -2.75l25.1709 -43.0117
c0.375 0.03125 0.671875 0.0078125 0.613281 -0.264648zM456.981 114.571c-0.417969 -14.3135 1.16504 -31.3369 35.9287 -55.6709c29.499 -20.6494 53.9424 -22.1328 87.5 -21.3018c39.0986 1.00586 55.4131 6.03125 79.0225 25.3242
c31.3955 25.6553 36.5977 33.6963 32.8223 48.7676l-4.99219 19.9297l-0.183594 -0.327148c0.0107422 1.20605 -0.795898 2.74023 -0.785156 3.94629l-28.0146 44.1855c-0.751953 -0.0292969 -0.151367 0.65332 -0.90332 0.624023
c-17.3408 11.4326 -19.1895 16.3857 -25.667 20.2061c-9.97461 5.88184 -25.3096 4.69824 -35.0732 -1.96484c-4.85938 -14.6406 -35.0137 -16.9873 -48.9092 -3.78418c-1.29492 1.23047 -2.25 0.545898 -2.12695 2.05469
c-14.8525 10.2207 -42.6729 -0.0761719 -50.5342 -18.5918l-0.954102 -2.24512l-1.58887 0.611328l-30.6367 -43.373zM502.487 456.811c8.33008 -49.4639 30.7178 -89.0498 71.4307 -122.315l-2.56445 -10.0508c-39.8232 32.6328 -64.0645 71.7461 -73.9854 119.55
c-9.3418 -42.4395 -35.6738 -95.5381 -58.7764 -118.522l-4.16504 10.1611c45.6729 47.4092 67.6211 118.396 65.7021 217.322l6.64551 -0.236328c0.0898438 -0.00292969 0.166016 -9.28027 0.166016 -12.8203c0 -24.0889 -4.45312 -83.0879 -4.45312 -83.0879z
M645.228 458.536c7.43652 -50.4629 27.4238 -90.8486 63.7705 -124.786l-2.28906 -10.2539c-35.5537 33.292 -57.1953 73.1953 -66.0518 121.965c-8.33984 -43.2969 -31.8486 -97.4678 -52.4736 -120.917l-3.71777 10.3672c40.7754 48.3662 60.3691 120.787 58.6562 221.712
l5.93262 -0.241211c0.0800781 -0.00292969 0.148438 -9.46777 0.148438 -13.0791c0 -24.5762 -3.97559 -84.7666 -3.97559 -84.7666z" />
  </g>

</svg>
