<?xml version="1.0" standalone="no"?>
<!DOCTYPE svg PUBLIC "-//W3C//DTD SVG 1.1//EN" "http://www.w3.org/Graphics/SVG/1.1/DTD/svg11.dtd" >
<svg xmlns="http://www.w3.org/2000/svg" xmlns:xlink="http://www.w3.org/1999/xlink" version="1.1" viewBox="-10 0 1010 1000">
  <g transform="matrix(1 0 0 -1 0 800)">
   <path fill="currentColor"
d="M37.3545 728.521h55.5146l17.1611 52.2256l17.1602 -52.2256h55.5156l-44.8672 -32.2959l17.1611 -52.2246l-44.9697 32.2959l-44.9707 -32.2959l17.1611 52.2246zM271 608l-12 60c128.725 89.7881 355.203 55.3633 442.457 48.5605
c0 -0.0107422 0.000976562 -0.0214844 0.000976562 -0.0322266c27.4463 0.582031 75.1855 -1.32129 107.268 -33.4033c40.1396 -40.1396 38.6152 -108.841 37.5254 -169.365c-0.395508 -21.9258 -0.433594 -33.2402 -0.22168 -41.9463
c26.3789 -43.8281 72.168 -89.959 89.3252 -129.607c6.95117 -16.0635 5.49219 -24.7637 2.64551 -40.2051l-12 -14l-79.501 -63.5771v-212.431c1.93945 -31.0869 1.82422 -79.2412 -27.416 -108.48c-26.0322 -26.0322 -182.507 -12.0195 -220.584 -13.0049
l-2.90137 0.0126953c-103.732 -7.2998 -296.108 50.6025 -326.603 92.1719c-18.5059 25.2275 -31.4014 41.2529 -57.9951 55.3086v70.0371c25.8174 -16.2627 49.624 -17.8066 70.1904 -60.6357c44.2188 -92.082 349.455 -105.734 451.309 -108.438l-0.499023 -0.962891
c50 12 34.1514 4.48145 42.5352 13.5361c19.1768 20.7119 3.97852 41.9688 5.50781 57.9648h-0.541992v2.14941c-0.253906 0.990234 -0.500977 1.94141 -0.738281 2.84863h0.738281v207.174v3.4873v1.33887h1.58203l104 88h1.13281
c4.9834 45.8955 -62.8379 92.1289 -94.2158 139.501l-3 4l-1 1c-2.02051 3.99219 0.0439453 4.02539 -2.08398 11.5605c-0.0371094 0.130859 -0.189453 0.24707 -0.174805 0.367188l0.258789 2.07227l0.0644531 1.49902
c0.00976562 0.226562 0.150391 3.89551 0.242188 6.24414c3.11426 79.1523 5.19727 173.389 -83.8154 173.771c-136.35 16.7461 -373.536 9.53418 -431.49 -46.5137zM635.27 324.854c-15.8955 0 -27.418 -0.952148 -39.9336 -2.44141
c-5.55762 8.13574 -9.24121 12.3906 -15.8174 18.7354c-11.8223 11.4053 -44.9473 20.1689 -76.6865 20.1689c-21.4414 0 -44.1133 -3.72363 -64.0195 -13.1426c-4.69629 -2.22266 -13.7061 -6.48633 -25.4092 -22.8965c-15.75 1.57324 -25.9893 1.91895 -36.458 1.91895
c-21.2402 0 -43.7705 -1.97949 -63.584 -6.96875c-7.79688 -1.96289 -19.9746 -6.47656 -28.9854 -15.4863c-3.80273 -3.80273 -5.11426 -7.57031 -5.11426 -11.4707c0 -8.96973 7.83887 -18.4072 9.85742 -20.4258c4.13281 -4.13281 10.6436 -7.33203 15.291 -9.53613
c15.3506 -7.27734 44.5928 -10.668 72.8047 -10.668c16.8789 0 30.208 0.994141 43.7812 2.72852c3.99023 -4.26855 5.42578 -5.63672 8.70703 -8.56055c21.54 -19.1953 66.2207 -19.9453 74.9043 -19.9453c24.8242 0 48.7207 4.56152 61.8125 12.2705
c7.97852 4.69922 13.3154 9.30469 19.1719 14.9531c17.2656 -2.82715 32.9346 -3.82422 50.0947 -3.82422c24.6289 0 48.5195 2.52344 61.5117 6.59473c31.4316 9.84961 40.4834 25.0459 40.5762 30.7598v0.0722656c0 3.39844 -5.58691 10.5361 -8.88477 13.834
c-4.48926 4.48828 -10.2041 8.26855 -18.6826 12.6211c-10.6768 5.48047 -41.2178 10.709 -74.9375 10.709zM710.13 288.027c0 -11.5283 -39.0928 -22.4639 -81.293 -22.4639c-8.32227 0 -13.7188 0 -31.7432 2.3877c6.11035 11.748 7.79688 15.4541 9.20508 25.0713
c1.11426 1.57617 0.75 1.33887 0.758789 1.35156c-0.0107422 0.152344 -0.0908203 0.321289 -0.0908203 0.321289c-0.0234375 -1.3252 -3.23535 9.82812 -3.875 11.7178c15.0303 1.44043 24.0283 2.02539 37.9805 2.02539c22.3135 0 42.7441 -1.76855 52.4922 -6.64258
c13.1357 -6.56738 16.0508 -9.56152 16.5654 -13.4727v-0.295898zM409.908 275.628v-4.67188c-18.127 -2.58496 -28.0107 -2.94141 -38.1328 -2.94141c-19.5967 0 -38.4326 2.28613 -51.1494 8.05762c-14.0303 6.36719 -17.2422 10.8652 -17.2422 14.8379
c0 7.31152 6.39844 9.79883 13.4805 12.0918c22.5088 7.28516 56.6885 7.94238 67.9541 7.94238c5.8252 0 8.95801 -0.0185547 21.292 -0.695312c-0.889648 -7.02344 -0.963867 -7.60742 -0.963867 -10.5703c0 -7.69434 1.69629 -15.2871 4.76172 -24.0508zM560.784 288.511
c0 4.52637 4.16211 6.2002 18.4502 11.0127c3.16895 1.06641 5.9043 2.08984 5.9043 2.08984l-0.773438 -0.600586l-2.00391 -6.23828l-2.40039 -3c-0.702148 -0.0390625 2.40039 3 0 0c-2.39941 -6 -4.13574 -8.86035 -8.18555 -15.2549
c-7.39062 4.91895 -10.9912 7.31641 -10.9912 11.9912zM537.262 290.872c0 -6.86914 11.9375 -21.9502 18.0996 -27.2979l12.4131 5.40039l-19.3857 -8.61133c-14.8066 -6.57715 -32.9775 -10.1494 -50.4883 -10.1494c-23.9131 0 -34.5498 5.30664 -48.3018 12.167
c12.6123 6.49023 17.6553 9.08594 23.5312 14.9619c6.93555 6.93555 7.24805 11.8037 7.24805 12.624c0 0.0820312 -0.00292969 0.123047 -0.00292969 0.123047c0 2.73242 -4.63379 9.62109 -8.81055 13.7949c-7.52148 7.52148 -20.4248 13.4482 -20.4248 13.4482
l-9.37793 4.09082l9.35254 4.14746c15.6475 6.93555 37.9385 10.6484 58.8867 10.6484c22.8887 0 42.6436 -4.28809 51.4541 -12.5674c0.796875 -0.75 0.796875 -0.75 6.50879 -6.25195c-11.1143 -4.4082 -30.7021 -12.416 -30.7021 -26.5283zM452.73 290.427
c0 -6.67871 -13.584 -11.7773 -13.7549 -11.8398c-0.205078 -0.0742188 0.130859 0.133789 -1.56641 -0.27832l-3.84766 -0.933594l-0.651367 4.25977c-2.31543 4.33594 -3.54102 8.9541 -3.54102 13.9961c0 2.46289 0 2.46387 1.23828 11.3457
c18.0137 -9.01367 21.3828 -11.1299 22.123 -16.5498zM581.965 589.455l-79.2764 -75.8301l-76.0322 75.6006l-12.8984 -12.3379l75.2109 -78.2363l-76.3896 -77.6836l14.2109 -15.54l77.7236 79.1084l85.4912 -78.6982l14.4014 11.9961l-85.7002 78.7744l78.7061 79.4873z
" />
  </g>

</svg>
