<?xml version="1.0" standalone="no"?>
<!DOCTYPE svg PUBLIC "-//W3C//DTD SVG 1.1//EN" "http://www.w3.org/Graphics/SVG/1.1/DTD/svg11.dtd" >
<svg xmlns="http://www.w3.org/2000/svg" xmlns:xlink="http://www.w3.org/1999/xlink" version="1.1" viewBox="-10 0 1051 1000">
  <g transform="matrix(1 0 0 -1 0 800)">
   <path fill="currentColor"
d="M828.399 483.872c0 9.49878 0.360099 25.4826 0.360099 28.905l-0.318652 61.3747l-8.69455 54.78l-24.0577 41.7601l-29.8355 19.1251l-33.9409 8.02542l-47.9505 1.85133v0.765382l-107.704 8.96128l-161.614 -4.8437l-135.511 -48.0118l4.97421 -24.8711
l90.1513 34.2037l168.519 13.9909l163.859 -8.05849l72.0585 -32.0852l24.6852 -76.5829c-11.2968 -92.7231 -11.5388 -94.7093 -10.6225 -98.1968c0.272553 -1.03738 0.408327 -1.98777 0.495372 -2.92219c0.487753 -0.641757 1.13403 -1.58506 1.4862 -2.05622
l30.4464 -40.7334l38.0432 -60.0682l23.93 -33.502l-96.7113 -80.2498l-3.19974 -219.288c0.962733 -7.56244 2.78458 -22.0112 5.01798 -45.877c-0.12894 -0.269919 -9.65147 -20.9678 -12.8349 -27.02c-1.80565 -3.43278 -3.36365 -6.39475 -8.94453 -11.1259
c-28.726 -6.87192 -37.6748 -9.01268 -53.7943 -9.01268c-3.38415 0 -6.77838 0.14333 -10.1737 0.446144l-127.95 -3.2205l-189.706 31.9736l-119.91 72.0259l-21.8729 31.5454c-0.18608 0.126152 -14.9542 10.3475 -18.5829 12.6523v-31.4635
c5.41685 -3.87145 13.5068 -7.36272 24.4398 -17.2503c7.32645 -6.62591 2.09556 -4.45645 10.6241 -11.9264c1.03002 -0.902171 1.03002 -0.902171 17.2005 -21.8062l70.2643 -41.1391l123.979 -35.7692l40.8353 -3.74581
c52.8258 -4.90757 59.0669 -6.73248 83.0467 -7.42728l68.08 -1.97257l89.7606 0.254271l51.1066 12.4914l15.1376 25.2075l6.27671 34.16l-0.268638 82.9487l0.0291888 84.2282l-0.00582149 87.5189l84.7837 67.8016l7.68593 8.96692l1.11464 7.19504
c0.44913 7.61262 -1.52476 12.8022 -3.31214 18.1783l-23.3304 38.8443l-33.0243 43.448l-34.3179 48.9016c-0.202711 16.1296 -0.202711 16.1296 -0.202711 17.6951zM33.2949 712.521h55.5146l17.1611 52.2256l17.1602 -52.2256h55.5156l-44.8672 -32.2959
l17.1611 -52.2246l-44.9697 32.2959l-44.9707 -32.2959l17.1611 52.2246zM523.895 41.9814l-41.4053 -50.3564l-42.9395 46.2881l7.29688 7.25098l30.1963 -34.1074l-4.1543 125.631l10.4336 0.810547l3.30176 -126.272l29.5811 37.1885zM343.528 234.85
c17.6992 -17.4004 15.8994 -49.2002 40.5 -48.6006c26.6992 0.600586 19.1992 49.2002 45.8994 50.4004c24.9004 1.2002 20.1006 -46.7998 45 -45.9004c24.9004 0.900391 16.5 48.6006 41.4004 48.6006c26.7002 0 21.2998 -48.6006 47.7002 -48.6006
c22.5 0 16.1992 31.7998 31.5 48.6006c3.59961 3.89941 16.1992 5.69922 13.5 0.899414c-13.8008 -25.5 -16.2002 -56.3994 -45 -59.3994c-26.7002 -2.7002 -21 49.5 -47.7002 49.5c-25.2002 0 -16.2002 -48 -41.4004 -49.5
c-24.2998 -1.5 -20.0996 45.5996 -44.0996 44.0996c-26.7002 -1.5 -21 -52.2002 -47.7002 -49.5c-29.7002 3 -32.0996 34.5 -48.5996 59.4004c-1.80078 3 6.59961 2.39941 9 0zM468 327l-103.958 188.195l12 5.06934l93 -159.75l84.75 161.25l16.2227 -6.56934z" />
  </g>

</svg>
