<?xml version="1.0" standalone="no"?>
<!DOCTYPE svg PUBLIC "-//W3C//DTD SVG 1.1//EN" "http://www.w3.org/Graphics/SVG/1.1/DTD/svg11.dtd" >
<svg xmlns="http://www.w3.org/2000/svg" xmlns:xlink="http://www.w3.org/1999/xlink" version="1.1" viewBox="-10 0 1137 1000">
  <g transform="matrix(1 0 0 -1 0 800)">
   <path fill="currentColor"
d="M669.112 599.323l-152.833 -154.35l166.319 -152.881l-21.6533 -18.0361l-166.506 153.276l-150.594 -153.276l-15.7266 17.1963l148.68 151.2l-146.16 152.04l19.3203 18.4805l147.84 -147l154.561 147.839zM669.112 599.323l-152.833 -154.35l166.319 -152.881
l-21.6533 -18.0361l-166.506 153.276l-150.594 -153.276l-15.7266 17.1963l148.68 151.2l-146.16 152.04l19.3203 18.4805l147.84 -147l154.561 147.839zM633.509 360.084zM374.452 534.367zM326.074 445.305zM514.57 328.858zM514.229 318.043zM370.208 358.258z
M453.237 332.138zM679.717 465.441zM326.074 445.305zM679.717 465.441zM686.094 471.511c3.34082 -10.1182 5.49121 -21.0674 8.30078 -31.5566l1.95898 -0.03125c-1.48926 -31.4287 -2.0498 -43.2637 -53.084 -83.5898
c-37.9736 -30.0059 -65.7754 -40.5752 -128.97 -41.2881c-43.4697 -0.490234 -98.832 1.13672 -147.365 41.2773c-19.124 15.8174 -49.4814 46.4287 -49.1992 81.2021h-1.36133c1.4873 5.57422 1.4873 5.57422 1.62891 9.85352l0.995117 -0.0166016l4.26172 15.9814
h-1.87109c0.97168 1.31836 1.94336 2.6377 2.91406 3.95703v4.49023h3.30566l48.2617 65.5752h1.53125c16.6982 39.0469 80.6689 57.8564 105.516 27.6104c3.52734 -1.58496 19.5273 -7.96973 36.375 -1.82715c8.67871 11.6162 33.0625 22.8252 60.502 17.1348
c26.5391 -5.50293 53.3105 -30.1914 65.0566 -42.2119h0.5625c0.414062 -0.609375 0.697266 -1.30957 1.21777 -1.84375l3.69141 -3.84961l35.2393 -60.2168c0.525391 0.0439453 0.94043 0.0107422 0.858398 -0.371094zM342.285 439.633
c-0.584961 -20.0391 1.63184 -43.8711 50.3008 -77.9395c41.2988 -28.9092 75.5195 -30.9854 122.5 -29.8223c54.7373 1.40918 77.5781 8.44434 110.631 35.4541c43.9541 35.918 51.2373 47.1748 45.9512 68.2744l-6.98926 27.9023l-0.255859 -0.458008
c0.0146484 1.68848 -1.11523 3.83594 -1.10059 5.52539l-39.2197 61.8594c-1.05273 -0.0419922 -0.211914 0.915039 -1.26465 0.874023c-24.2773 16.0049 -26.8652 22.9395 -35.9336 28.2871c-13.9648 8.23535 -35.4346 6.57715 -49.1025 -2.75098
c-6.80371 -20.4971 -49.0195 -23.7812 -68.4727 -5.29785c-1.8125 1.72266 -3.15039 0.764648 -2.97852 2.87793c-20.793 14.3086 -59.7422 -0.107422 -70.748 -26.0293l-1.33496 -3.14355l-2.22461 0.856445l-42.8916 -60.7227zM443.168 132.807zM443.29 134.236z
M457.354 117.646c0 -13.084 10.6191 -26.6611 27.665 -26.6611c10.6318 0 16.4023 4.88086 19.8447 8.32324c6.94629 6.94629 7.79883 13.8164 7.79883 18.7344c-0.0585938 16.1533 -13.9014 26.8271 -27.377 26.8271c-4.00684 0 -7.72559 -0.851562 -10.7148 -2.10059
l-8.84668 -5.82324l-6.86133 -10.1445c-0.612305 -1.79883 -1.50879 -5.11035 -1.50879 -9.15527zM485.35 167.85c26.5449 0 50.5215 -21.1934 50.5215 -49.9346c0 -7.15625 -1.52051 -19.6729 -10.4961 -31.2832c3.28027 1.39453 16.1094 7.25977 26.625 17.7764
c11.4277 11.4268 22.1377 35.0088 22.1377 52.4551c0 16.6797 -11.0967 41.5811 -24.0488 52.9678c-28.7852 25.6182 -60.624 25.8252 -123.144 25.8252h-4.49902v21.9971h4.49902h2.14551c61.0723 0 100.22 -0.178711 135.604 -31.3242
c16.1318 -14.1514 31.5664 -43.3467 31.5664 -69.8877c0 -24.084 -13.583 -53.9473 -30.5488 -69.5215c-35.0996 -32.3066 -71.8545 -32.4502 -138.708 -32.4502h-1.80957h-4.49902v21.9961h4.49902c6.03613 0 10.1172 0 30.5215 0.446289
c-6.81738 4.90332 -13.0391 11.6299 -17.0312 20.0635c-0.345703 -0.511719 -0.698242 -1.03223 -1.05566 -1.56055l0.789062 2.13281c-2.67676 5.85449 -4.28125 12.5166 -4.28125 19.9463c0 6.08984 1.10547 11.833 2.84473 16.7627
c0.00292969 1.06641 2.6416 9.37695 7.4375 13.752c3.96387 6.55859 13.8438 13.6123 21.7158 16.0723c1.54102 0.481445 2.45508 0.848633 3.33789 1.20215c1.24805 0.498047 2.83594 1.09668 4.91797 1.3418c1.06934 0.125977 1.48633 0.225586 2.26367 0.400391
c0.650391 0.144531 3.90527 0.824219 8.69434 0.824219zM35.7939 756.847h55.5146l17.1611 52.2256l17.1602 -52.2256h55.5156l-44.8672 -32.2959l17.1611 -52.2246l-44.9697 32.2959l-44.9707 -32.2959l17.1611 52.2246zM275.499 652.326l-12 60
c128.725 89.7881 355.203 55.3633 442.457 48.5605c0 -0.0107422 0.000976562 -0.0214844 0.000976562 -0.0322266c27.4463 0.582031 75.1855 -1.32129 107.268 -33.4033c40.1396 -40.1396 38.6152 -108.841 37.5254 -169.365
c-0.395508 -21.9258 -0.433594 -33.2402 -0.22168 -41.9463c26.3789 -43.8281 72.168 -89.959 89.3252 -129.607c6.95117 -16.0635 5.49219 -24.7637 2.64551 -40.2051l-12 -14l-79.501 -63.5771v-212.431c1.93945 -31.0869 1.82422 -79.2412 -27.416 -108.479
c-26.0322 -26.0322 -182.507 -12.0195 -220.584 -13.0049l-2.90137 0.0126953c-103.73 -7.2998 -296.106 50.6025 -326.603 92.1719c-18.5059 25.2275 -31.4014 41.2529 -57.9951 55.3086v70.0371c25.8174 -16.2627 49.624 -17.8066 70.1904 -60.6357
c44.2188 -92.082 349.455 -105.734 451.309 -108.438l-0.499023 -0.962891c50 12 34.1514 4.48145 42.5352 13.5361c19.1768 20.7119 3.97852 41.9688 5.50781 57.9648h-0.541992v2.14941c-0.253906 0.990234 -0.500977 1.94141 -0.738281 2.84863h0.738281v207.174v3.4873
v1.33887h1.58203l104 88h1.13281c4.9834 45.8955 -62.8379 92.1289 -94.2158 139.501l-3 4l-1 1c-3.00635 3.00635 4.62891 47.1357 2.50098 54.6709c-0.0371094 0.130859 -0.189453 0.24707 -0.174805 0.367188l0.258789 2.07227l0.0644531 1.49902
c0.00976562 0.226562 0.150391 3.89551 0.242188 6.24414c3.11426 79.1523 0.612305 130.28 -88.4004 130.661c-136.35 16.7461 -373.534 9.53418 -431.488 -46.5137z" />
  </g>

</svg>
