<?xml version="1.0" standalone="no"?>
<!DOCTYPE svg PUBLIC "-//W3C//DTD SVG 1.1//EN" "http://www.w3.org/Graphics/SVG/1.1/DTD/svg11.dtd" >
<svg xmlns="http://www.w3.org/2000/svg" xmlns:xlink="http://www.w3.org/1999/xlink" version="1.1" viewBox="-10 0 1006 1000">
  <g transform="matrix(1 0 0 -1 0 800)">
   <path fill="currentColor"
d="M775.537 521.563c0 9.49805 0.360352 25.4824 0.360352 28.9043l-0.319336 61.375l-8.69434 54.7803l-24.0576 41.7598l-29.835 19.125l-33.9414 8.02539l-47.9502 1.85156v0.765625l-107.704 8.96094l-161.614 -4.84375l-135.511 -48.0117l4.97363 -24.8711
l90.1514 34.2041l168.52 13.9902l163.859 -8.05762l72.0586 -32.0859l24.6846 -76.583c-11.2969 -92.7227 -11.5391 -94.709 -10.6221 -98.1963c0.272461 -1.03711 0.408203 -1.98828 0.495117 -2.92188c0.487305 -0.642578 1.13379 -1.58594 1.48633 -2.05664
l30.4463 -40.7334l38.043 -60.0684c7.97656 -11.167 15.9531 -22.335 23.9307 -33.502l-96.7119 -80.25l-3.19922 -219.288c0.962891 -7.5625 2.78418 -22.0107 5.01758 -45.877c-0.128906 -0.269531 -9.65137 -20.9678 -12.835 -27.0195
c-1.80566 -3.43262 -3.36328 -6.39453 -8.94434 -11.126c-28.7266 -6.87207 -37.6748 -9.0127 -53.7939 -9.0127c-3.38477 0 -6.7793 0.143555 -10.1738 0.446289l-127.95 -3.2207l-189.706 31.9736l-119.91 72.0264c-7.29102 10.5146 -14.582 21.0303 -21.8721 31.5449
c-0.186523 0.125977 -14.9551 10.3477 -18.583 12.6523v-31.4639c5.41699 -3.87109 13.5068 -7.3623 24.4395 -17.25c7.32617 -6.62598 2.0957 -4.45605 10.624 -11.9268c1.03027 -0.901367 1.03027 -0.901367 17.2002 -21.8057l70.2646 -41.1396l123.979 -35.7686
l40.8359 -3.74609c52.8252 -4.90723 59.0664 -6.73242 83.0469 -7.42676l68.0791 -1.97266l89.7607 0.253906l51.1064 12.4912l15.1377 25.208l6.27734 34.1602l-0.268555 82.9482l0.0292969 84.2285l-0.00585938 87.5186l84.7832 67.8018l7.68555 8.9668l1.11523 7.19531
c0.449219 7.6123 -1.52441 12.8018 -3.3125 18.1777l-23.3301 38.8447l-33.0244 43.4482l-34.3174 48.9014c-0.203125 16.1299 -0.203125 16.1299 -0.203125 17.6953zM100.601 546.95l104.5 -0.549805v0h4.9502l-6.05078 -334.4v-19.7998h-22.5498l-84.7002 0.549805
v19.7998l84.7002 -0.549805l7.15039 316.8l-88 0.550781v17.5996zM596.481 165.913c0.392578 0.015625 25.2432 0.00195312 25.25 0.0146484c-7.6543 32.1045 -5.50391 42.4414 -2.71191 51.4492c0.0253906 0.0810547 2.18555 7.54883 2.48047 8.1377l18.0527 36.1055
c-9.24023 143.219 -9.24023 143.219 -9.1875 143.835c3.03516 36.0322 5.68164 78.0615 2.58691 104.984c-8.0459 31.9551 -28.0078 25.2119 -32.6719 14.9912c-1.64746 -3.6123 -3.50391 -4.03809 -8.29785 -5.13574c-3.72461 -3.33301 -9.58496 -2.60352 -12.3721 1.59375
c-3.49316 5.26074 -19.6543 30.2871 -20.0801 31.1182c-5.84473 11.4473 -28.3896 18.4893 -32.6982 -4.16992c-0.15625 -0.819336 -0.15625 -0.819336 -7.85156 -19.5771c-2.86719 -6.98828 -12.9756 -6.69727 -15.4316 0.447266l-14.4756 42.1133
c-3.87109 11.2578 -28.0166 20.248 -40.7725 -1.07227c-0.235352 -0.701172 -1.95801 -5.92383 -11.2656 -35.1172c-2.02344 -6.3457 -10.4688 -7.7959 -14.4814 -2.40332c-11.9072 15.999 -11.9072 15.999 -12.1172 16.209
c-0.0791016 0.0791016 -13.5996 13.5771 -21.2598 5.91699c-4.19434 -4.19434 -6.56738 -14.4346 -7.6123 -20.7148c0.0302734 -0.941406 0.216797 -6.49902 1.24902 -33.4531c0.613281 -16.7852 1.36035 -52.6562 1.37598 -53.1875
c4.90918 -34.9922 2.63867 -36.085 5.19141 -54.8066c0.186523 -0.720703 1.60156 -6.17578 8.9541 -34.0088c0.0722656 -0.273438 0.744141 -15.8555 -1.3877 -19.4795c-5.24121 -8.91016 -5.60449 -9.52832 -9.0625 -10.3203
c-13.6855 -3.13574 -18.0156 -0.378906 -22.6426 6.04102c-2.37988 3.30273 -18.5684 19.5273 -20.1963 21.4043l-33.9229 39.1436c-0.916992 0.606445 -5.625 3.69043 -19.7881 12.6611c-0.827148 0.250977 -4.79199 1.43555 -16.7617 4.78711
c-3.34766 -1.83594 -7.33691 -0.729492 -10.3643 -3.75586c-2.19531 -2.19531 -4.72852 -9.55176 -3.92285 -13.7178l18.7158 -25.1709c3.60547 -3.37891 22.7646 -20.0801 23.7031 -21.2148c27.9678 -33.8213 27.9678 -33.8213 28.1025 -34.0039
c20.3252 -27.5371 20.3252 -27.5371 20.4775 -27.7754c18.3271 -28.8018 18.3271 -28.8018 18.5869 -29.4023l14.1553 -32.8135c3.91016 -6.0625 19.0283 -28.8721 19.4326 -29.6416c6.36914 -12.1016 6.36914 -12.1016 6.60938 -13.1074
c4.73926 -19.8594 38.3037 -20.8486 38.7432 -20.8564l36.7129 -0.655273zM621.732 149.423h-24.7344c-111.275 -4.62109 -111.275 -4.62109 -111.522 -4.61719l-36.9766 0.661133c-5.87109 0.109375 -45.9521 1.98438 -54.2021 32.4336l-5.25293 9.98047
c-19.2236 29.1621 -18.8965 28.1963 -20.0596 30.8926l-14.002 32.458l-17.4736 27.458l-19.8535 26.8984l-27.2637 32.9717c-23.4219 20.7432 -23.4219 20.7432 -24.4512 22.127l-19.1396 25.7402c-6.82812 9.18262 -2.06152 27.1006 5.74219 34.9043
c4.5752 4.5752 8.88965 5.97363 15.2861 7.15039c3.53809 1.58203 7.52051 1.85547 11.2129 0.822266c17.4131 -4.87598 17.792 -4.61816 20.8525 -6.55664c18.6855 -11.835 20.1035 -12.2812 22.7793 -14.958c0.3125 -0.3125 -0.401367 -0.964844 34.7041 -39.9951
c18.291 -20.3359 19.0049 -19.6836 21.6318 -23.2422c0.433594 0.0390625 1.0293 0.112305 1.78125 0.234375l0.883789 1.50293l0.395508 9.86328c-8.7998 33.2939 -8.70117 32.374 -9 34.5479c-2.74902 20.0176 -0.331055 20.3037 -5.27246 55.3828
c-0.0751953 0.540039 -1.06348 43.377 -1.46875 54.4668c-1.32031 34.4648 -1.63574 33.1074 -1.12109 36.2949c1.60645 9.9541 5.30762 32.8965 24.6914 36.9844c16.1162 3.39941 31.7373 -11.7305 33.8809 -14.6104l2.40039 -3.22559
c6.44043 20.4355 6.2334 20.2998 7.74316 22.8662c19.9492 33.9297 62.3555 22.7578 70.749 -1.6582l7.08105 -20.6025c9.87988 33.1982 49.6182 28.2559 62.2637 4.32031c0.147461 -0.227539 14.2041 -22.0664 14.7344 -22.8828
c13.8691 17.9258 48.9912 20.9492 60.1973 -23.5469c0.177734 -0.709961 0.308594 -1.42871 0.392578 -2.15234c3.37793 -29.3965 0.556641 -71.4346 -2.4873 -107.661l9.16016 -141.986c0.186523 -2.88574 -0.380859 -5.81055 -1.70312 -8.4541l-17.6523 -35.3047
c-0.507812 -1.96777 -1.10156 -3.93262 -1.88379 -6.45801c-2.19727 -7.08984 -4.5166 -11.1748 3.00195 -42.7061c2.47266 -10.3652 -5.38379 -20.3438 -16.0449 -20.3438zM37.3545 728.521h55.5146l17.1611 52.2256l17.1602 -52.2256h55.5156l-44.8672 -32.2959
l17.1611 -52.2246l-44.9697 32.2959l-44.9707 -32.2959l17.1611 52.2246zM598.499 -109.492l-2.90137 0.0126953z" />
  </g>

</svg>
