<?xml version="1.0" standalone="no"?>
<!DOCTYPE svg PUBLIC "-//W3C//DTD SVG 1.1//EN" "http://www.w3.org/Graphics/SVG/1.1/DTD/svg11.dtd" >
<svg xmlns="http://www.w3.org/2000/svg" xmlns:xlink="http://www.w3.org/1999/xlink" version="1.1" viewBox="-10 0 1008 1000">
  <g transform="matrix(1 0 0 -1 0 800)">
   <path fill="currentColor"
d="M348.481 97.6934l-82.2217 148.848l24.0225 10.1475l58.4395 -100.383l53.3027 101.418l27.2285 -11.0254zM265.568 -67.707v34.6641h38.626v22.0713h-38.626v34.6641h38.626v33.7148h31.3828v-33.7148h23.2197v31.2539h31.3828v-31.2539h41.292v-34.6641h-41.292
v-22.0713h41.292v-34.6641h-41.292v-36.1855h-31.3828v36.1855h-23.2197v-33.7246h-31.3828v33.7246h-38.626zM335.577 -33.043h23.2197v22.0713h-23.2197v-22.0713zM780.659 223.904c-0.529297 0 -0.985352 0.173828 -1.32227 0.358398l-214.094 -88.2627v-37.8242
c12.126 5.10742 24.251 10.2148 36.376 15.3213v-3.77051l-0.21875 -161.659h318.305l0.646484 155.446c10.9619 -6.48535 21.9238 -12.9697 32.8867 -19.4551l-0.677734 40.7051l-136.33 79.1182l1.46387 0.616211c-22.6963 11.7715 -24.457 12.7314 -36.2109 19.5508
c-0.288086 -0.102539 -0.56543 -0.144531 -0.824219 -0.144531zM884.594 -16.7148h-248.003l-0.665039 144.662l142.009 59.8174l107.859 -63.8086zM63.3545 -23.4795h55.5146l17.1611 52.2256l17.1602 -52.2256h55.5156l-44.8672 -32.2959l17.1611 -52.2246
l-44.9697 32.2959l-44.9707 -32.2959l17.1611 52.2246zM796 551c0.130859 -1.76562 0.236328 -4.63477 0.236328 -6.40527c0 -0.838867 -0.0234375 -2.19824 -0.0517578 -3.03613c-0.927734 -21.4473 -14.2764 -50.8916 -29.792 -65.7256
c-8.59277 -7.54004 -24.8447 -13.6592 -36.2764 -13.6592c-0.107422 0 -0.283203 0.000976563 -0.391602 0.000976563c-0.603516 -0.0214844 -1.58496 -0.0410156 -2.19043 -0.0410156c-1.0918 0 -2.86133 0.0595703 -3.94922 0.132812
c-8.11719 0.657227 -21.3154 1.19238 -29.458 1.19238c-3.91406 0 -10.2646 -0.124023 -14.1768 -0.275391c-0.245117 -0.00390625 -0.640625 -0.00585938 -0.885742 -0.00585938c-15.582 0 -36.9912 9.11914 -47.79 20.3555
c-12.8076 12.9404 -23.2031 38.2188 -23.2031 56.4258c0 0.390625 0.00585938 1.02441 0.0136719 1.41602c0.639648 33.6416 22.457 61.5078 58.5742 74.5244c8.2168 2.89258 21.9336 5.80859 30.6152 6.50879c0 20.8086 0.735352 70.584 27.5 97.3496
c9.6084 9.62695 28.4443 17.4404 42.0449 17.4404c0.464844 0 1.21777 -0.0107422 1.68066 -0.0234375v-9.16699c-0.416992 0.0117188 -1.0957 0.0234375 -1.51367 0.0234375c-11.543 0 -27.5381 -6.62207 -35.7031 -14.7812
c-23.7412 -23.7422 -24.75 -71.958 -24.75 -90.292c0.922852 0.0302734 2.4209 0.0546875 3.34375 0.0546875c15.998 0 40.0439 -6.80078 53.6729 -15.1797c17.123 -11.0225 31.6611 -36.4844 32.4502 -56.833zM760.342 482.524
c13.793 13.21 25.7861 39.4102 26.7676 58.4834c0.0751953 1.26465 0.135742 3.31738 0.135742 4.58398c0 1.26562 -0.0605469 3.31934 -0.135742 4.58301c-0.685547 17.7793 -13.375 40.0371 -28.3262 49.6836c-13.25 7.65527 -36.4268 13.8701 -51.7305 13.8701
c-10.5342 0 -27.0703 -3.05176 -36.9102 -6.81152c-32.9092 -11.8252 -51.9756 -35.8428 -52.5254 -66c-0.0078125 -0.386719 -0.0136719 -1.01465 -0.0136719 -1.40137c0 -16.0723 9.16406 -38.4014 20.4551 -49.8408c9.26758 -9.51562 27.5664 -17.2393 40.8496 -17.2393
c0.209961 0 0.554688 0.00292969 0.766602 0.00585938h18.335c0.829102 0.00976562 2.1748 0.0175781 3.00391 0.0175781c6.57324 0 17.2178 -0.5 23.7607 -1.11719c1.4375 -0.165039 3.77832 -0.298828 5.22559 -0.298828c9.57324 0 23.166 5.14355 30.3418 11.4814z
M494.875 501.863l-272.25 0.908203v17.9639h244.102v102.01h-244.102v17.9658l269.83 -1.5127z" />
  </g>

</svg>
