<?xml version="1.0" standalone="no"?>
<!DOCTYPE svg PUBLIC "-//W3C//DTD SVG 1.1//EN" "http://www.w3.org/Graphics/SVG/1.1/DTD/svg11.dtd" >
<svg xmlns="http://www.w3.org/2000/svg" xmlns:xlink="http://www.w3.org/1999/xlink" version="1.1" viewBox="-10 0 1051 1000">
  <g transform="matrix(1 0 0 -1 0 800)">
   <path fill="currentColor"
d="M271 608l-12 60c128.725 89.7881 355.203 55.3633 442.457 48.5605c0 -0.0107422 0.000976562 -0.0214844 0.000976562 -0.0322266c27.4463 0.582031 75.1855 -1.32129 107.268 -33.4033c40.1396 -40.1396 38.6152 -108.841 37.5254 -169.365
c-0.395508 -21.9258 -0.433594 -33.2402 -0.22168 -41.9463c26.3789 -43.8281 72.168 -89.959 89.3252 -129.607c6.95117 -16.0635 5.49219 -24.7637 2.64551 -40.2051l-12 -14l-79.501 -63.5771v-212.431c1.93945 -31.0869 1.82422 -79.2412 -27.416 -108.48
c-26.0322 -26.0322 -182.507 -12.0195 -220.584 -13.0049l-2.90137 0.0126953c-103.732 -7.2998 -296.108 50.6025 -326.603 92.1719c-18.5059 25.2275 -31.4014 41.2529 -57.9951 55.3086v70.0371c25.8174 -16.2627 49.624 -17.8066 70.1904 -60.6357
c44.2188 -92.082 349.455 -105.734 451.309 -108.438l-0.499023 -0.962891c50 12 34.1514 4.48145 42.5352 13.5361c19.1768 20.7119 3.97852 41.9688 5.50781 57.9648h-0.541992v2.14941c-0.253906 0.990234 -0.500977 1.94141 -0.738281 2.84863h0.738281v207.174v3.4873
v1.33887h1.58203l104 88h1.13281c4.9834 45.8955 -62.8379 92.1289 -94.2158 139.501l-3 4l-1 1c-2.02051 3.99219 0.0439453 4.02539 -2.08398 11.5605c-0.0371094 0.130859 -0.189453 0.24707 -0.174805 0.367188l0.258789 2.07227l0.0644531 1.49902
c0.00976562 0.226562 0.150391 3.89551 0.242188 6.24414c3.11426 79.1523 14.1973 176.389 -74.8154 176.771c-136.35 16.7461 -373.536 9.53418 -431.49 -46.5137zM30.3545 728.521h55.5146l17.1611 52.2256l17.1602 -52.2256h55.5156l-44.8672 -32.2959l17.1611 -52.2246
l-44.9697 32.2959l-44.9707 -32.2959l17.1611 52.2246zM276.192 305.691c-21.9561 0 -39.7725 19.3457 -39.7725 40.1094c0 10.1797 6.21289 22.6865 10.4355 27.0029c1.11914 1.16895 1.68359 2.66504 1.68359 4.15918c0 1.48926 -0.560547 2.97656 -1.69043 4.13867
c-5.52246 5.5293 -10.0049 16.3545 -10.0127 24.1025c0 0.578125 1.21777 9.83691 2.1709 11.9561c4.92188 11.3047 18.8994 20.6914 31.207 20.9863l0.0859375 0.00195312l0.0859375 -0.00292969c10.8154 -0.380859 24.8604 -8.45605 30.2627 -20.7285
c0.888672 -1.85156 3.06348 -3.47949 5.53027 -3.47949c1.69043 0 2.73145 0.6875 3.45996 1.16895c6.55957 4.33594 18.2852 7.87402 26.126 7.87402c0.599609 0 1.60742 -0.0263672 1.92285 -0.0341797c0.0185547 0 0.0341797 -0.000976562 0.046875 -0.000976562
c2.49707 0.0146484 4.77539 1.83691 5.56738 3.83691c5.63379 13.6611 22.2432 24.7617 36.9834 24.7617c-0.264648 0.12207 -0.388672 0.200195 -0.388672 0.236328c0 0.0166016 0.0253906 0.0244141 0.0732422 0.0244141c1.32031 0 20.0605 -5.96289 26.4229 -12.3252
c2.40625 -2.40625 9.42676 -10.1299 11.2021 -19.9316c0.634766 -3.19727 3.41504 -4.84766 5.64941 -4.91895c20.583 -0.551758 37.293 -17.7178 37.293 -38.3057c0 -0.28125 -0.342773 -16.0322 -10.3916 -26.0811c-5.99512 -5.99414 -13.1836 -9.1377 -13.7061 -9.34375
c-5.4873 -2.16406 -11.9727 -2.99023 -15.0312 -2.99023h-0.0654297c-4.7041 0.106445 -8.4707 2.45508 -13.8066 2.45508c-2.67969 0 -4.19824 -0.719727 -5.0166 -1.53711c-0.0986328 -0.108398 -0.522461 -0.585938 -2.17773 -2.46582
c1.17773 -2.7168 2.82812 -6.52539 2.82812 -11.5264c0 -7.24805 -4.2627 -14.0215 -4.47656 -14.0547c-1.07617 -1.48926 -2.3623 -2.95117 -3.77441 -4.3623c-4.17188 -4.17285 -9.39746 -7.91406 -13.7656 -9.68066
c-10.4395 -4.22363 -19.3721 -4.28125 -20.0918 -4.28125c-7.43359 0 -17.0566 2.81836 -17.6279 3.26758c-8.9209 3.70215 -19.624 14.1699 -23.3828 24.4902c-0.664062 1.71973 -2.51855 3.48926 -4.62012 3.90234
c-0.506836 0.03125 -1.07812 0.0410156 -1.68652 0.0410156c-0.0537109 0 -3.0957 -0.430664 -4.79785 -2.5127c-8.73438 -10.6787 -23.7061 -15.9521 -32.7539 -15.9521zM343.679 295.622l-0.0263672 0.0117188zM246.8 372.743v0zM227.688 345.076
c0 -26.8936 23.583 -49.4678 48.1094 -49.4678c18.3779 0 32.6504 11.3428 34.9697 13.3232l2.51562 2.14844c2.93555 -4.60059 4.84668 -7.59668 9.59082 -12.3408c5.24805 -5.24805 11.6631 -9.8916 17.5664 -12.2197c5.4707 -2.13379 14.3896 -3.81055 20.2607 -3.81055
c7.53516 0 15.6504 1.75098 24.5781 5.19727c8.03223 3.10059 18.083 11.1758 22.7412 17.9971c2.39062 3.50195 5.08398 12.3125 5.08398 18.6084c0 0.457031 0 0.457031 -0.181641 4.56641c4.83008 -0.975586 6.5918 -1.33105 8.64844 -1.33105
c2.40625 0 11.6309 1.17285 18.2324 3.98633c7.19922 2.92871 16.334 10.2158 20.6855 16.2344c5.08301 7.10156 9.10352 19.623 9.10352 28.3584c0 6.3252 -2.18066 15.7402 -4.96094 21.4189c-4.76953 9.74316 -20.1992 23.2432 -36.7549 25.8701l-1.7666 0.280273
c-1.29102 4.16406 -4.01562 12.9492 -13.4229 22.3564c-5.3418 5.3418 -17.002 14.7998 -32.6035 14.7998c-20.1396 0 -37.3633 -14.7441 -43.9102 -27.2002l-0.754883 -1.43652c-6.35645 -0.383789 -15.9561 -1.82812 -25.4863 -6.52344l-2.26465 -1.11621
c-2.31738 3.46484 -3.5127 5.25195 -6.48438 8.22266c-7.9668 7.9668 -19.8623 14 -30.5947 14.3496c-0.131836 0.00195312 -0.263672 0.00292969 -0.397461 0.00292969c-13.0049 0 -32.7949 -10.6094 -39.4287 -27.5586
c-1.57324 -4.22949 -2.63574 -14.5723 -2.77637 -15.3516c0 -8.32031 3.90723 -19.6113 9.20801 -26.8184l1.21777 -1.65527l-1.17188 -1.68848c-5.48145 -7.90137 -9.55176 -20.2441 -9.55176 -29.2021zM381.586 349.228c0 -7.05859 -4.96289 -13.5098 -11.9639 -13.5098
c-0.0380859 0 -0.0751953 0 -0.113281 0.000976562c-2.08984 -0.0410156 -18.0908 -0.0478516 -28.7686 -0.0478516c-5.4209 0 -9.4707 0.00195312 -9.63184 0.00195312c-2.35156 0.0761719 -6.04395 0.195312 -9.1377 3.62207
c-0.774414 0.857422 -3.89355 4.63086 -3.89355 10.2119c0 2.55859 0.947266 6.37793 2.39941 11.6982c4.69629 19.3223 5.99805 24.6992 9.5918 32.0635c1.71875 3.5166 7.51367 14.1982 19.6572 14.1982c17.0889 0 22.7129 -18.3223 26.5312 -33.707
c1.31152 -5.44922 2.65332 -10.9014 4.02637 -16.3555c0.632812 -2.63574 1.30273 -5.37695 1.30273 -8.17676zM349.705 397.005c-8.30176 0 -12.4551 -9.10938 -16.7051 -26.0049c-3.16113 -13.0137 -3.16895 -13.0439 -4.3125 -17.335
c-0.431641 -1.77539 -0.739258 -3.17676 -0.739258 -4.32129c0 -1.04297 0.255859 -1.87109 0.90918 -2.57227v0v0c0.0292969 -0.0322266 0.0605469 -0.0644531 0.0917969 -0.0957031c0.182617 -0.182617 0.256836 -0.292969 0.368164 -0.363281
c0.0136719 -0.00390625 0.0263672 -0.0078125 0.0400391 -0.0078125l-0.00390625 -0.0126953c0.0703125 -0.0361328 0.158203 -0.0605469 0.292969 -0.078125c0 0.00585937 0.000976563 0.0117188 0.000976563 0.0185547
c0.00976562 0 0.0185547 -0.00292969 0.0273438 -0.00292969c0 -0.00683594 -0.000976563 -0.0126953 -0.000976563 -0.0195312c0.27832 -0.0332031 0.74707 -0.0439453 1.62988 -0.0830078c37.585 0.0166016 38.1172 0.0361328 38.9238 0.142578
c0.423828 0.189453 1.58203 1.25977 1.58203 3.23828c0 1.47363 -5.3623 23.4893 -7.52344 30.5391c-4.83301 15.583 -10.4492 16.6982 -13.4287 16.9043h-0.0126953c-0.390625 0.0351562 -0.769531 0.0537109 -1.13965 0.0537109zM328.002 350.55l0.0136719 0.146484
l-1.9043 0.146484zM328.857 346.772v-0.000976563v0v0.000976563zM328.857 346.772v0v0zM536.42 244.848v18.333h27.5898v22.1914h-27.5898v18.333h27.5898v24.082h15.9883v-24.082h23.0137v22.3242h15.9883v-22.3242h29.4941v-18.333h-29.4941v-22.1914h29.4941v-18.333
h-29.4941v-25.8477h-15.9883v25.8477h-23.0137v-24.0898h-15.9883v24.0898h-27.5898zM591.399 348.788l-54.1631 98.0508l11.2627 4.75781l43.2412 -74.2773l39.4219 75.0068l13.417 -5.43359zM603.012 285.372h-23.0137v-22.1914h23.0137v22.1914z" />
  </g>

</svg>
