<?xml version="1.0" standalone="no"?>
<!DOCTYPE svg PUBLIC "-//W3C//DTD SVG 1.1//EN" "http://www.w3.org/Graphics/SVG/1.1/DTD/svg11.dtd" >
<svg xmlns="http://www.w3.org/2000/svg" xmlns:xlink="http://www.w3.org/1999/xlink" version="1.1" viewBox="-10 0 1051 1000">
  <g transform="matrix(1 0 0 -1 0 800)">
   <path fill="currentColor"
d="M828.399 483.872c0 9.49878 0.360099 25.4826 0.360099 28.905l-0.318652 61.3747l-8.69455 54.78l-24.0577 41.7601l-29.8355 19.1251l-33.9409 8.02542l-47.9505 1.85133v0.765382l-107.704 8.96128l-161.614 -4.8437l-135.511 -48.0118l4.97421 -24.8711
l90.1513 34.2037l168.519 13.9909l163.859 -8.05849l72.0585 -32.0852l24.6852 -76.5829c-11.2968 -92.7231 -11.5388 -94.7093 -10.6225 -98.1968c0.272553 -1.03738 0.408327 -1.98777 0.495372 -2.92219c0.487753 -0.641757 1.13403 -1.58506 1.4862 -2.05622
l30.4464 -40.7334l38.0432 -60.0682l23.93 -33.502l-96.7113 -80.2498l-3.19974 -219.288c0.962733 -7.56244 2.78458 -22.0112 5.01798 -45.877c-0.12894 -0.269919 -9.65147 -20.9678 -12.8349 -27.02c-1.80565 -3.43278 -3.36365 -6.39475 -8.94453 -11.1259
c-28.726 -6.87192 -37.6748 -9.01268 -53.7943 -9.01268c-3.38415 0 -6.77838 0.14333 -10.1737 0.446144l-127.95 -3.2205l-189.706 31.9736l-119.91 72.0259l-21.8729 31.5454c-0.18608 0.126152 -14.9542 10.3475 -18.5829 12.6523v-31.4635
c5.41685 -3.87145 13.5068 -7.36272 24.4398 -17.2503c7.32645 -6.62591 2.09556 -4.45645 10.6241 -11.9264c1.03002 -0.902171 1.03002 -0.902171 17.2005 -21.8062l70.2643 -41.1391l123.979 -35.7692l40.8353 -3.74581
c52.8258 -4.90757 59.0669 -6.73248 83.0467 -7.42728l68.08 -1.97257l89.7606 0.254271l51.1066 12.4914l15.1376 25.2075l6.27671 34.16l-0.268638 82.9487l0.0291888 84.2282l-0.00582149 87.5189l84.7837 67.8016l7.68593 8.96692l1.11464 7.19504
c0.44913 7.61262 -1.52476 12.8022 -3.31214 18.1783l-23.3304 38.8443l-33.0243 43.448l-34.3179 48.9016c-0.202711 16.1296 -0.202711 16.1296 -0.202711 17.6951zM33.2949 712.521h55.5146l17.1611 52.2256l17.1602 -52.2256h55.5156l-44.8672 -32.2959
l17.1611 -52.2246l-44.9697 32.2959l-44.9707 -32.2959l17.1611 52.2246zM457.792 230.775zM457.631 228.868zM655.757 260.382c0 -29.7529 -17.3076 -68.5547 -38.7949 -88.2783c-45.2891 -41.6865 -92.1953 -41.6865 -183.295 -41.6865v17.3311
c25.6191 0 47.5391 0.97168 66.7637 0.97168c-8.83203 2.19434 -20.4512 7.09668 -31.2051 17.8506c-20.4863 20.4863 -20.2441 46.2969 -13.7373 63.458c-0.484375 1.97461 3.25 7.53223 4.12695 9.76562c0.855469 2.17969 1.91406 3.27051 3.43262 4.64258
c0.936523 0.844727 0.936523 0.844727 1.50293 1.78809c1.34863 2.24902 3.53223 4.43555 6.25879 7.16113c2.0918 2.09277 11.7871 9.12598 19.2402 11.4561c5.51758 1.72461 6.28418 2.73242 9.91602 3.16016c1.6582 0.194336 2.60547 0.407227 3.63672 0.638672
c1.80762 0.404297 30.3037 6.33594 54.0488 -17.4092c11.6758 -11.6768 17.584 -25.8447 17.584 -42.2178c0 -10.1016 -2.48047 -28.8037 -18.459 -44.4609c-4.9043 -4.74805 -10.2402 -8.53711 -15.9863 -11.3613c24.9268 4.88184 44.9902 14.1426 64.2539 31.7109
c17.4229 15.9688 33.5391 50.374 33.2061 76.8037c-0.229492 23.9287 -15.4688 57.9902 -34.0732 74.3457c-40.3916 35.9482 -85.2529 35.9482 -168.177 35.9482v17.332c83.4531 0 133.948 0 179.714 -40.2803c20.4941 -17.9805 40.043 -55.8193 40.043 -88.6699z
M513.431 167.106c16.2832 0 25.6191 7.77051 30.7031 12.8555c10.6641 10.6641 12.1523 21.7969 12.1523 29.2217c-0.0361328 10.5469 -3.53906 20.5605 -12.6758 29.4346c-15.4395 15.1904 -35.1182 14.0029 -46.9609 8.84082l-13.2441 -8.7168l-10.251 -15.1553
l0.03125 0.0849609c-0.0107422 -0.0283203 -0.0205078 -0.0566406 -0.03125 -0.0849609c-2.04492 -5.59668 -7.96387 -26.5303 9.89941 -44.1553c8.36328 -8.25 18.3848 -12.3252 30.377 -12.3252zM632 436h-29.4854v81.9805c0 24.0811 -7.57324 40.5059 -22.6943 49.3145
c-12.7617 7.43457 -34.9404 11.1504 -66.5381 11.1504c-23.9795 0 -47.29 -1.46484 -69.9316 -4.39746l-2.46973 25.5996c23.3613 3.24512 49.1943 4.86914 77.4971 4.86914c38.9033 0 66.8877 -5.38867 84.1367 -15.8623
c19.6572 -11.9365 29.4854 -53.1582 29.4854 -62.6631v-89.9912zM472.22 436h-29.4873v93.917h29.4873v-93.917zM595.667 92.333h-0.166016s28.6572 -2.93555 45.499 -18.3203c4.7168 -4.30859 8.34668 -9.44043 10 -16.0127
c2.29004 -9.10547 3.82227 -18.9375 3.82227 -28.9512c0 -35.0059 -28.4111 -63.416 -63.417 -63.416c-35.0059 0 -63.416 28.4102 -63.416 63.416c0 20.2334 31.7607 54.9512 31.7607 54.9512h-155.75v8.33301h191.667zM591.25 -25.917h-0.166016h0.166016
c30.4062 0 55.084 24.6777 55.084 55.083v0.000976562c0 30.4062 -24.6777 55.083 -55.084 55.083c-30.4053 0 -55.083 -24.6768 -55.083 -55.083c0 -18.1904 9.70312 -38.6279 32.833 -48.167c10.2148 -4.21289 22.25 -6.91699 22.25 -6.91699z" />
  </g>

</svg>
