<?xml version="1.0" standalone="no"?>
<!DOCTYPE svg PUBLIC "-//W3C//DTD SVG 1.1//EN" "http://www.w3.org/Graphics/SVG/1.1/DTD/svg11.dtd" >
<svg xmlns="http://www.w3.org/2000/svg" xmlns:xlink="http://www.w3.org/1999/xlink" version="1.1" viewBox="-10 0 1008 1000">
  <g transform="matrix(1 0 0 -1 0 800)">
   <path fill="currentColor"
d="M183.433 72.2051l-82.2217 148.848l24.0225 10.1475l58.4395 -100.383l53.3027 101.418l27.2285 -11.0254zM100.52 -93.1953v34.6641h38.626v22.0713h-38.626v34.6641h38.626v33.7148h31.3828v-33.7148h23.2197v31.2539h31.3828v-31.2539h41.292v-34.6641h-41.292
v-22.0713h41.292v-34.6641h-41.292v-36.1855h-31.3828v36.1855h-23.2197v-33.7246h-31.3828v33.7246h-38.626zM170.528 -58.5312h23.2197v22.0713h-23.2197v-22.0713zM615.61 198.416c-0.528664 0 -0.985482 0.173609 -1.32195 0.35837l-214.093 -88.2633v-37.8236
l36.3751 15.3214v-3.77139l-0.218472 -161.658h318.305l0.646464 155.446l32.8863 -19.4552l-0.67749 40.7048l-136.33 79.1188l1.46379 0.61569c-22.6968 11.7717 -24.4573 12.7314 -36.2113 19.5513c-0.288261 -0.102785 -0.564955 -0.144581 -0.824352 -0.144581z
M719.545 -42.2036h-248.002l-0.665609 144.662l142.009 59.8176l107.859 -63.8083zM25.3545 730.521h55.5146l17.1611 52.2256l17.1602 -52.2256h55.5156l-44.8672 -32.2959l17.1611 -52.2246l-44.9697 32.2959l-44.9707 -32.2959l17.1611 52.2246zM334.113 445.928
c50.4443 -3.83398 86.8867 -44.4561 86.8867 -91.9277c0 -50.8174 -41.2373 -92.0557 -92.0557 -92.0557c-50.8174 0 -92.0557 41.2373 -92.0557 92.0557c0 23.2051 12.0254 48.166 28.5615 65.7676h-186.38c-4.54004 0 -7.5 4.28125 -7.5 7.5v11.1113
c0 4.54004 4.28125 7.5 7.5 7.5h255.557zM328.737 288.212c36.3994 0 65.9443 29.5449 65.9443 65.9453c0 36.3984 -29.5449 65.9443 -65.9443 65.9443c-36.3984 0 -65.9443 -29.5459 -65.9443 -65.9443c0 -36.3994 29.5459 -65.9453 65.9443 -65.9453zM419.728 701.896
c17.0146 -14.9268 29.9668 -43.3291 30.2725 -65.8955c0.00488281 -0.342773 0.0078125 -0.810547 0.0078125 -1.14648c0 -22.665 -12.6592 -51.3701 -29.3066 -66.6943c-34.1348 -31.4189 -72.0518 -31.1416 -128.859 -31.1416h-2.75977c-4.54004 0 -7.5 4.28125 -7.5 7.5
v6c0 4.54004 4.28125 7.5 7.5 7.5h2.33984c56.6514 0 87.4961 0.486328 114.932 25.6299c11.9736 10.9736 22.5342 34.7627 22.5342 51.5449c-0.165039 17.1426 -10.9639 40.1504 -23.1123 50.9629c-27.4814 24.459 -58.6533 24.8027 -115.014 24.8027
c-4.54004 0 -7.5 4.28125 -7.5 7.5v6.00098c0 4.54004 4.28125 7.5 7.5 7.5c54.8711 0 94.3896 0.269531 128.966 -30.0635zM346.441 634.399c0 12.4229 10.0732 22.499 22.5 22.499c12.4258 0 22.5 -10.0752 22.5 -22.499c0 -12.4268 -10.0742 -22.502 -22.5 -22.502
c-12.4268 0 -22.5 10.0762 -22.5 22.502zM840 580h-23.8838v66.4043c0 19.5059 -6.13477 32.8096 -18.3818 39.9443c-10.3369 6.02246 -28.3018 9.0332 -53.8965 9.0332c-19.4229 0 -38.3047 -1.18652 -56.6445 -3.5625l-2.00098 20.7363
c18.9229 2.62793 39.8486 3.94336 62.7734 3.94336c31.5117 0 54.1787 -4.36523 68.1504 -12.8486c15.9229 -9.66797 23.8838 -26.5869 23.8838 -50.7568v-72.8936zM710.577 580h-23.8838v76.0732h23.8838v-76.0732z" />
  </g>

</svg>
