<?xml version="1.0" standalone="no"?>
<!DOCTYPE svg PUBLIC "-//W3C//DTD SVG 1.1//EN" "http://www.w3.org/Graphics/SVG/1.1/DTD/svg11.dtd" >
<svg xmlns="http://www.w3.org/2000/svg" xmlns:xlink="http://www.w3.org/1999/xlink" version="1.1" viewBox="-10 0 1020 1000">
  <g transform="matrix(1 0 0 -1 0 800)">
   <path fill="currentColor"
d="M30.3242 741.553h55.5146l17.1611 52.2256l17.1602 -52.2256h55.5156l-44.8672 -32.2959l17.1611 -52.2246l-44.9697 32.2959l-44.9707 -32.2959l17.1611 52.2246zM271 608l-12 60c128.725 89.7881 355.203 55.3633 442.457 48.5605
c0 -0.0107422 0.000976562 -0.0214844 0.000976562 -0.0322266c27.4463 0.582031 75.1855 -1.32129 107.268 -33.4033c40.1396 -40.1396 38.6152 -108.841 37.5254 -169.365c-0.395508 -21.9258 -0.433594 -33.2402 -0.22168 -41.9463
c26.3789 -43.8281 72.168 -89.959 89.3252 -129.607c6.95117 -16.0635 5.49219 -24.7637 2.64551 -40.2051l-12 -14l-79.501 -63.5771v-212.431c1.93945 -31.0869 1.82422 -79.2412 -27.416 -108.48c-26.0322 -26.0322 -182.507 -12.0195 -220.584 -13.0049
l-2.90137 0.0126953c-103.732 -7.2998 -296.108 50.6025 -326.603 92.1719c-18.5059 25.2275 -31.4014 41.2529 -57.9951 55.3086v70.0371c25.8174 -16.2627 49.624 -17.8066 70.1904 -60.6357c44.2188 -92.082 349.455 -105.734 451.309 -108.438l-0.499023 -0.962891
c50 12 34.1514 4.48145 42.5352 13.5361c19.1768 20.7119 3.97852 41.9688 5.50781 57.9648h-0.541992v2.14941c-0.253906 0.990234 -0.500977 1.94141 -0.738281 2.84863h0.738281v207.174v3.4873v1.33887h1.58203l104 88h1.13281
c4.9834 45.8955 -62.8379 92.1289 -94.2158 139.501l-3 4l-1 1c-2.02051 3.99219 0.0439453 4.02539 -2.08398 11.5605c-0.0371094 0.130859 -0.189453 0.24707 -0.174805 0.367188l0.258789 2.07227l0.0644531 1.49902
c0.00976562 0.226562 0.150391 3.89551 0.242188 6.24414c3.11426 79.1523 5.19727 173.389 -83.8154 173.771c-136.35 16.7461 -373.536 9.53418 -431.49 -46.5137zM456.62 151.956l-49.7842 45.0967l8.06738 5.94238l38.5732 -35.4297l68.7793 87.1221l10.959 -5.03613z
M473 90c-66.3193 0.0390625 -123.115 54.4756 -123.115 123.643c0 68.25 55.3916 123.645 123.645 123.645c68.252 0 123.645 -55.3936 123.645 -123.639c-0.291016 -68.2539 -55.9248 -123.648 -124.174 -123.648zM607.663 213.645
c-0.295898 74.0459 -60.624 134.134 -134.666 134.134c-71.7178 0 -133.602 -58.8516 -133.602 -134.13c0 -74.0479 60.0967 -134.134 134.134 -134.134c74.0459 0 134.134 60.0947 134.134 134.13zM614.009 425.692zM385.004 579.758zM342.237 501.026zM508.867 398.089z
M508.567 388.527zM381.251 424.078zM454.649 400.987zM654.857 518.828zM342.237 501.026zM654.857 518.828zM553.451 619.908c-16.1436 0 -29.8096 -6.2793 -36.7422 -13.2109c-2.6377 -2.6377 -1.96387 -2.77539 -3.05469 -3.17188
c-4.90039 -1.78809 -9.70312 -2.43457 -14.0859 -2.43457c-4.1377 0 -11.6562 0.611328 -19.7969 4.26855c-5.53125 6.7334 -14.8857 12.8613 -30.6143 12.8613c-23.6133 0 -50.541 -14.6162 -59.9062 -36.5146l-0.461914 -1.08203h-1.62891l-42.6631 -57.9678h-2.04199
v-2.77246c-0.276367 -0.375977 -0.552734 -0.750977 -0.829102 -1.12695h0.445312l-4.72461 -17.7188l-0.53125 0.0078125c-0.0957031 -1.81445 -0.266602 -2.85645 -0.838867 -5.11133h0.6875c-0.0166016 -2.00293 -0.0166016 -2.00293 -0.0166016 -2.20703
c0 -12.9541 5.58984 -39.1699 42.8477 -69.9834c39.3486 -32.5459 83.8486 -36.1348 120.739 -36.1348c60.4658 0 85.1172 7.57715 121.298 36.1689c44.2002 34.9248 44.9453 45.209 46.1611 70.7363l-1.2373 0.0195312
c-0.0751953 0.285156 -5.50391 22.4375 -7.42969 28.4014l-31.5898 53.9814c-3.56055 3.71582 -3.56055 3.71582 -3.91895 4.33105h-0.234375c-11.1064 11.3672 -34.3896 32.6387 -57.1221 37.3525c-4.35059 0.902344 -8.61035 1.30762 -12.71 1.30762zM448.54 604.296
c3.39844 0 10.9521 0 19.5635 -5.92676l-0.0664062 -0.822266c0.49707 -0.203125 1.29395 -0.577148 2.06738 -1.3125c7.29688 -6.93359 18.5107 -10.1885 29.1582 -10.1885c9.91797 0 19.3438 2.82422 24.6494 8.13086c1.03223 1.0332 2.7002 2.69922 3.9873 6.58105
c5.46875 3.73145 14.1543 7.80371 26.0088 7.80371c15.7324 0 23.0869 -6.85156 28.7275 -12.1035c4.38281 -4.08203 10.1543 -9.4707 22.5684 -17.6846c0.473633 -0.102539 0.863281 -0.331055 1.17578 -0.68457l0.272461 0.0117188l35.501 -55.9961
c0 -0.0947266 -0.00292969 -0.191406 -0.00292969 -0.287109c2.5459 -9.53906 4.87109 -19.2998 7.32324 -28.9336c0.856445 -3.42383 1.33887 -6.59766 1.33887 -9.66992c0 -14.7422 -10.9678 -26.6865 -42.5625 -52.5049
c-29.1143 -23.7891 -50.1973 -31.9502 -113.734 -31.9502c-34.3975 0 -62.124 4.22559 -94.5049 26.8926c-39.916 27.9414 -45.2832 48.5195 -45.2832 66.8438c0 1.20801 0.0224609 2.39844 0.0556641 3.57031c1.99219 7.90527 4.15527 15.6377 6.21191 23.4766
l38.9014 55.0771c0.552734 -0.212891 1.10352 -0.425781 1.65527 -0.637695c1.31055 3.08594 3.54199 8.34375 9.59668 14.3984c9.75684 9.75684 24.1982 15.916 37.3916 15.916z" />
  </g>

</svg>
