<?xml version="1.0" standalone="no"?>
<!DOCTYPE svg PUBLIC "-//W3C//DTD SVG 1.1//EN" "http://www.w3.org/Graphics/SVG/1.1/DTD/svg11.dtd" >
<svg xmlns="http://www.w3.org/2000/svg" xmlns:xlink="http://www.w3.org/1999/xlink" version="1.1" viewBox="-10 0 1046 1000">
  <g transform="matrix(1 0 0 -1 0 800)">
   <path fill="currentColor"
d="M518.333 -13.0562c-213.816 0 -388.056 139.703 -388.056 311.389c0 171.699 174.257 311.112 388.056 311.112c213.816 0 388.056 -139.703 388.056 -311.389c0 -171.699 -174.257 -311.112 -388.056 -311.112zM518.333 642.222
c-232.05 0 -420.833 -154.495 -420.833 -344.167c0 -189.673 188.783 -343.888 420.833 -343.888c232.051 0 420.833 154.494 420.833 344.166c0 189.674 -188.783 343.889 -420.833 343.889zM446.349 366.516l-157.008 126.222l-22.65 -37.3725l158.919 -119.958z
M716.122 507.657l-147.423 -147.423l21.0126 -28.0167l150.726 147.65zM545.082 209.5h-44.0365l-143.253 -128.013l20.5503 -34.2505l147.488 120.398l122.403 -122.403l41.5065 10.3766z" />
  </g>

</svg>
