<?xml version="1.0" standalone="no"?>
<!DOCTYPE svg PUBLIC "-//W3C//DTD SVG 1.1//EN" "http://www.w3.org/Graphics/SVG/1.1/DTD/svg11.dtd" >
<svg xmlns="http://www.w3.org/2000/svg" xmlns:xlink="http://www.w3.org/1999/xlink" version="1.1" viewBox="-10 0 1008 1000">
  <g transform="matrix(1 0 0 -1 0 800)">
   <path fill="currentColor"
d="M348.481 97.6934l-82.2217 148.848l24.0225 10.1475l58.4395 -100.383l53.3027 101.418l27.2285 -11.0254zM265.568 -67.707v34.6641h38.626v22.0713h-38.626v34.6641h38.626v33.7148h31.3828v-33.7148h23.2197v31.2539h31.3828v-31.2539h41.292v-34.6641h-41.292
v-22.0713h41.292v-34.6641h-41.292v-36.1855h-31.3828v36.1855h-23.2197v-33.7246h-31.3828v33.7246h-38.626zM335.577 -33.043h23.2197v22.0713h-23.2197v-22.0713zM780.659 223.904c-0.529297 0 -0.985352 0.173828 -1.32227 0.358398l-214.094 -88.2627v-37.8242
c12.126 5.10742 24.251 10.2148 36.376 15.3213v-3.77051l-0.21875 -161.659h318.305l0.646484 155.446c10.9619 -6.48535 21.9238 -12.9697 32.8867 -19.4551l-0.677734 40.7051l-136.33 79.1182l1.46387 0.616211c-22.6963 11.7715 -24.457 12.7314 -36.2109 19.5508
c-0.288086 -0.102539 -0.56543 -0.144531 -0.824219 -0.144531zM884.594 -16.7148h-248.003l-0.665039 144.662l142.009 59.8174l107.859 -63.8086zM63.3545 -23.4795h55.5146l17.1611 52.2256l17.1602 -52.2256h55.5156l-44.8672 -32.2959l17.1611 -52.2246
l-44.9697 32.2959l-44.9707 -32.2959l17.1611 52.2246zM700.218 505.995l-106.889 193.502l31.2295 13.1924l75.9717 -130.498l69.293 131.844l35.3975 -14.333zM265.568 -67.707v34.6641h38.626v22.0713h-38.626v34.6641h38.626v33.7148h31.3828v-33.7148h23.2197v31.2539
h31.3828v-31.2539h41.292v-34.6641h-41.292v-22.0713h41.292v-34.6641h-41.292v-36.1855h-31.3828v36.1855h-23.2197v-33.7246h-31.3828v33.7246h-38.626zM335.577 -33.043h23.2197v22.0713h-23.2197v-22.0713zM780.659 223.904
c-0.529297 0 -0.985352 0.173828 -1.32227 0.358398l-214.094 -88.2627v-37.8242c12.126 5.10742 24.251 10.2148 36.376 15.3213v-3.77051l-0.21875 -161.659h318.305l0.646484 155.446c10.9619 -6.48535 21.9238 -12.9697 32.8867 -19.4551l-0.677734 40.7051
l-136.33 79.1182l1.46387 0.616211c-22.6963 11.7715 -24.457 12.7314 -36.2109 19.5508c-0.288086 -0.102539 -0.56543 -0.144531 -0.824219 -0.144531zM884.594 -16.7148h-248.003l-0.665039 144.662l142.009 59.8174l107.859 -63.8086zM63.3545 -23.4795h55.5146
l17.1611 52.2256l17.1602 -52.2256h55.5156l-44.8672 -32.2959l17.1611 -52.2246l-44.9697 32.2959l-44.9707 -32.2959l17.1611 52.2246zM347.142 426c-0.0839844 0 -0.220703 -0.000976562 -0.303711 -0.000976562c-24.7275 0 -59.0777 14.1001 -76.5352 31.6133
c-35.7734 35.8877 -42.3428 92.1587 -16.7607 143.663c8.66113 17.4375 18.8083 34.4801 28.7998 50.8496c5.28711 8.66211 10.5293 17.4635 15.5244 26.2129l35.7744 62.6621l1.68848 3.2627c7.95457 15.3709 9.89941 19.2373 14.4004 19.2373h2.13574
c3.82617 0 6.29112 -6.41641 9.5625 -13.6123c0.5625 -1.2373 1.075 -2.32726 1.35156 -2.8125l55.4619 -97.3125c3.91781 -6.87412 7.97613 -13.6559 12.4883 -20.25c7.94727 -11.6143 18.9346 -31.5225 24.5244 -44.4375
c1.35059 -3.30078 2.46385 -6.68946 3.4873 -10.125c2.64941 -8.89355 4.79883 -23.6426 4.79883 -32.9219c0 -52.8037 -42.451 -101.939 -94.0117 -113.328c-6.10547 -1.34863 -16.1348 -2.7002 -22.3867 -2.7002zM349.729 747.3c0 0 -3.30905 -6.55886 -4.27539 -8.4375
l-2.02539 -3.9375l-35.7744 -62.4375c-5.08461 -8.87423 -10.4215 -17.6184 -15.75 -26.4375c-9.78809 -16.2002 -19.9648 -32.9365 -28.3506 -49.9502c-23.3994 -47.4746 -17.6619 -98.5476 14.5127 -130.5c15.8369 -15.7275 46.8057 -28.4922 69.126 -28.4922
c5.57031 0 14.4933 1.05598 19.9746 2.05469c47.1445 8.58984 85.4092 54.4551 85.4092 102.377c0 8.66992 -2.25477 22.3745 -4.63477 30.7109c-0.899414 3.15039 -1.9502 6.22559 -3.14941 9.22461c-5.37598 12.3535 -16.2544 31.1761 -23.5127 42.5254
c-4.38867 6.8623 -8.7998 13.7109 -12.8252 20.7002l-55.4629 96.2998c-0.340169 0.590633 -0.886334 2.27895 -1.7998 3.8252z" />
  </g>

</svg>
