<?xml version="1.0" standalone="no"?>
<!DOCTYPE svg PUBLIC "-//W3C//DTD SVG 1.1//EN" "http://www.w3.org/Graphics/SVG/1.1/DTD/svg11.dtd" >
<svg xmlns="http://www.w3.org/2000/svg" xmlns:xlink="http://www.w3.org/1999/xlink" version="1.1" viewBox="-10 0 1025 1000">
  <g transform="matrix(1 0 0 -1 0 800)">
   <path fill="currentColor"
d="M837.795 664.098l110.119 -94.1416l-104.674 -93.4277l-15.8008 16.5195l77.0674 65.6367l-279.828 -3.88086l1.25977 27.7109l278.347 -2.32324l-81.1074 67.0977zM576.676 393.077c0 -24.0928 -15.8418 -49.2266 -41.9473 -49.2266
c-0.164062 0 -0.327148 0.000976562 -0.491211 0.00292969c0 0 -9.55566 -0.195312 -9.73633 -0.196289c-24.5381 0.0859375 -49.0752 0.128906 -73.6123 0.128906s-49.0742 -0.0429688 -73.6113 -0.128906h-0.265625c-9.23633 0.291992 -21.6943 0.6875 -32.3223 12.4648
c-9.3125 10.3184 -13.9141 22.9785 -13.9141 37.1104c0 10.9414 3.94434 26.0137 9.41992 46.0645c19.2783 79.3096 24.4844 100.728 38.8359 130.144c12.8037 26.1846 35.623 54.1182 74.708 54.1182c62.4639 0 84.9609 -67.415 101.15 -132.65
c5.38281 -22.377 10.8994 -44.791 16.5117 -67.0801c2.46094 -10.2461 5.27441 -21.9639 5.27441 -30.751zM377.413 372.017c133.854 0.0566406 133.854 0.0566406 151.72 0.0566406c9.6875 0 11.9375 0.890625 15.2256 4.17969
c6.62598 6.62598 6.66309 16.1709 6.66309 16.3477c0 6.46191 -3.25488 19.25 -9.52246 43.8809c-20.375 83.6768 -27.6787 113.671 -48.5439 139.788c-12.6123 14.9199 -26.0195 18.9541 -39.9551 18.9541c-42.3125 0 -59.9033 -49.9199 -75.5146 -112.147
c-12.9873 -53.4668 -12.9873 -53.4668 -17.6826 -71.0732c-1.34082 -5.51758 -3.39648 -13.9736 -3.39648 -19.1064c0 -6.9043 3.89648 -19.459 14.2617 -20.4521c2.29297 -0.191406 4.48633 -0.329102 6.74512 -0.427734zM161.099 510.737
c1.2627 -22.4336 -7.74219 -81.3936 -5.23047 -95.668c0.770508 -0.875977 1.56445 -2.23145 1.72852 -3.98535c5.23145 -56.2568 51.2754 -111.696 69.0869 -129.507c3.60547 -3.60547 3.60547 -3.60547 14.0586 -11.6914
c-1.22754 -0.802734 -1.22754 -0.802734 -19.9932 -13.3145c-2.84668 -1.90039 -6.69922 -1.45703 -9.03418 1.08984c-30.0791 32.7197 -53.7002 58.416 -74.6094 118.096c-9.44629 -29.4131 -26.6836 -58.2959 -42.6045 -78.5156
c-11.126 -14.1289 -19.8799 -31.4688 -28.2031 -39.793c-2.53711 -2.53711 -6.54395 -2.71484 -9.28906 -0.542969c-14.1436 11.1963 -14.1436 11.1963 -14.4336 11.4873c-2.5166 2.51562 -2.71289 6.47656 -0.598633 9.21973
c7.94727 10.3027 34.1816 46.1582 34.5322 46.6201c50.7832 66.708 53.252 155.368 52.8457 203.106c-0.0341797 3.9502 3.20312 7.14551 7.1543 7.05664c18.7012 -0.416016 18.7012 -0.416016 21.4033 -3.11816c2.02734 -2.02734 3.06055 -5.03613 2.99219 -8.46777
c-0.0234375 -1.15625 -0.125977 -6.3916 0.194336 -12.0723zM248.457 266.27z" />
  </g>

</svg>
