<?xml version="1.0" standalone="no"?>
<!DOCTYPE svg PUBLIC "-//W3C//DTD SVG 1.1//EN" "http://www.w3.org/Graphics/SVG/1.1/DTD/svg11.dtd" >
<svg xmlns="http://www.w3.org/2000/svg" xmlns:xlink="http://www.w3.org/1999/xlink" version="1.1" viewBox="-10 0 1051 1000">
  <g transform="matrix(1 0 0 -1 0 800)">
   <path fill="currentColor"
d="M271 608l-12 60c128.725 89.7881 355.203 55.3633 442.457 48.5605c0 -0.0107422 0.000976562 -0.0214844 0.000976562 -0.0322266c27.4463 0.582031 75.1855 -1.32129 107.268 -33.4033c40.1396 -40.1396 38.6152 -108.841 37.5254 -169.365
c-0.395508 -21.9258 -0.433594 -33.2402 -0.22168 -41.9463c26.3789 -43.8281 72.168 -89.959 89.3252 -129.607c6.95117 -16.0635 5.49219 -24.7637 2.64551 -40.2051l-12 -14l-79.501 -63.5771v-212.431c1.93945 -31.0869 1.82422 -79.2412 -27.416 -108.48
c-26.0322 -26.0322 -182.507 -12.0195 -220.584 -13.0049l-2.90137 0.0126953c-103.732 -7.2998 -296.108 50.6025 -326.603 92.1719c-18.5059 25.2275 -31.4014 41.2529 -57.9951 55.3086v70.0371c25.8174 -16.2627 49.624 -17.8066 70.1904 -60.6357
c44.2188 -92.082 349.455 -105.734 451.309 -108.438l-0.499023 -0.962891c50 12 34.1514 4.48145 42.5352 13.5361c19.1768 20.7119 3.97852 41.9688 5.50781 57.9648h-0.541992v2.14941c-0.253906 0.990234 -0.500977 1.94141 -0.738281 2.84863h0.738281v207.174v3.4873
v1.33887h1.58203l104 88h1.13281c4.9834 45.8955 -62.8379 92.1289 -94.2158 139.501l-3 4l-1 1c-2.02051 3.99219 0.0439453 4.02539 -2.08398 11.5605c-0.0371094 0.130859 -0.189453 0.24707 -0.174805 0.367188l0.258789 2.07227l0.0644531 1.49902
c0.00976562 0.226562 0.150391 3.89551 0.242188 6.24414c3.11426 79.1523 14.1973 176.389 -74.8154 176.771c-136.35 16.7461 -373.536 9.53418 -431.49 -46.5137zM30.3545 728.521h55.5146l17.1611 52.2256l17.1602 -52.2256h55.5156l-44.8672 -32.2959l17.1611 -52.2246
l-44.9697 32.2959l-44.9707 -32.2959l17.1611 52.2246zM622.428 331.307v-70.4707h8.31641v70.4707h-8.31641zM556.225 333.088v-54.2695h7.28906v54.2695h-7.28906zM498.741 333.088l8.90918 -0.431641v-68.04l-8.90918 0.431641v68.04zM564 281.438
c62.2627 0 112.941 -41.3379 112.941 -92.1787c0 -50.8408 -50.7061 -92.2588 -112.941 -92.2588s-112.941 41.3379 -112.941 92.2051s50.7061 92.2324 112.941 92.2324zM669.463 189.178c0 46.71 -47.334 84.7168 -105.463 84.2129
c-55.8809 -0.483398 -105.094 -38.0078 -105.436 -84.6719c-0.341797 -46.7354 47.332 -84.2119 105.436 -84.2119c58.1309 0 105.463 37.9609 105.463 84.6709zM510.675 184.696c13.6631 -52.542 92.4219 -50.2197 106.704 0.37793l7.50684 -2.10645
c-16.0117 -57.6182 -106.947 -60.1826 -121.717 0zM648.019 472.933c0.118164 -1.60449 0.214844 -4.21289 0.214844 -5.82227c0 -0.762695 -0.0224609 -1.99902 -0.0488281 -2.76074c-0.84375 -19.4971 -12.9766 -46.2646 -27.083 -59.75
c-7.81152 -6.85449 -22.5859 -12.418 -32.9785 -12.418c-0.0976562 0 -0.256836 0.000976563 -0.355469 0.000976563c-0.548828 -0.0195312 -1.44141 -0.0361328 -1.99121 -0.0361328c-0.992188 0 -2.60156 0.0537109 -3.5918 0.120117
c-7.37793 0.598633 -19.375 1.08398 -26.7783 1.08398c-3.55859 0 -9.33301 -0.112305 -12.8877 -0.250977c-0.222656 -0.00292969 -0.583008 -0.00488281 -0.805664 -0.00488281c-14.167 0 -33.6289 8.29004 -43.4443 18.5049
c-11.6445 11.7637 -21.0957 34.7441 -21.0957 51.2969c0 0.354492 0.00585938 0.931641 0.0117188 1.28613c0.583984 30.584 20.417 55.917 53.25 67.751c7.4707 2.62891 19.9395 5.2793 27.834 5.91602c0 18.917 0.666016 64.167 24.999 88.5
c8.73438 8.75195 25.8584 15.8545 38.2227 15.8545c0.421875 0 1.10645 -0.00878906 1.52734 -0.0205078v-8.33398c-0.379883 0.0117188 -0.996094 0.0205078 -1.37598 0.0205078c-10.4941 0 -25.0342 -6.01953 -32.457 -13.4365
c-21.583 -21.584 -22.5 -65.417 -22.5 -82.084c0.838867 0.0273438 2.2002 0.0498047 3.03906 0.0498047c14.5449 0 36.4043 -6.18262 48.7939 -13.7998c15.5664 -10.0205 28.7822 -33.168 29.501 -51.667zM615.602 410.683c12.54 12.0088 23.4414 35.8271 24.333 53.167
c0.0693359 1.14941 0.125 3.01562 0.125 4.16699c0 1.15137 -0.0556641 3.01758 -0.125 4.16602c-0.62207 16.1631 -12.1582 36.3975 -25.75 45.167c-12.0459 6.96094 -33.1152 12.6094 -47.0273 12.6094c-9.57715 0 -24.6104 -2.77441 -33.5557 -6.19238
c-29.917 -10.75 -47.25 -32.584 -47.75 -60c-0.00683594 -0.351562 -0.0126953 -0.921875 -0.0126953 -1.27246c0 -14.6123 8.33105 -34.9121 18.5957 -45.3105c8.4248 -8.65137 25.0605 -15.6719 37.1357 -15.6719c0.192383 0 0.504883 0.00195312 0.698242 0.00488281
h16.666c0.754883 0.00878906 1.97852 0.015625 2.73242 0.015625c5.97461 0 15.6523 -0.455078 21.6006 -1.01562c1.30664 -0.150391 3.43457 -0.271484 4.75 -0.271484c8.70312 0 21.0605 4.67578 27.584 10.4375z" />
  </g>

</svg>
