<?xml version="1.0" standalone="no"?>
<!DOCTYPE svg PUBLIC "-//W3C//DTD SVG 1.1//EN" "http://www.w3.org/Graphics/SVG/1.1/DTD/svg11.dtd" >
<svg xmlns="http://www.w3.org/2000/svg" xmlns:xlink="http://www.w3.org/1999/xlink" version="1.1" viewBox="-10 0 872 1000">
  <g transform="matrix(1 0 0 -1 0 800)">
   <path fill="currentColor"
d="M670.861 338.101zM155.599 684.748zM59.374 507.603zM434.291 275.991zM433.616 254.479zM147.156 334.469zM312.303 282.515zM762.771 547.656zM59.374 507.603zM762.771 547.656zM414.867 251.914c-107.246 0 -208.482 15.1746 -301.216 107.908
c-53.3906 53.3906 -67.3529 100.285 -67.3529 131.36c0 -0.01793 0.0161906 2.17799 0.033087 4.46272h-1.41145c1.27597 7.03017 1.27597 7.03017 1.97826 12.4385h1.0769c11.9724 44.897 11.9724 44.897 12.8606 48.6855h3.36921l95.9922 130.428h3.58836
c2.94541 6.89088 9.2077 21.5417 26.0273 38.3613c47.6465 47.6465 136.801 67.3592 179.3 17.2189c43.8662 -19.2383 76.9007 -3.52564 77.0539 -3.37253c0.0593857 0.0593857 2.27525 3.23001 5.44196 6.39673c17.7859 17.7859 60.7026 37.4085 111.697 26.83
c59.7377 -12.386 118.306 -73.2425 138.17 -93.9738c23.7394 -40.7271 47.7164 -81.2165 71.3062 -122.093c3.55145 -11.2163 13.4291 -50.6739 16.5255 -63.0786l2.87213 -0.0470842c-2.83083 -58.1836 -4.33477 -81.2238 -104.08 -160.038
c-81.47 -64.3795 -137.155 -81.4866 -273.231 -81.4866zM402 277.999c142.909 0 190.168 18.3231 255.587 71.7757c91.3072 74.6157 103.321 96.2953 92.126 141.218c-0.159277 0.639155 -16.0286 63.7625 -16.0286 63.8903
c-79.6402 125.616 -79.6402 125.616 -79.855 125.616c-4.08022 2.709 -1.41568 0.528341 -3.64393 2.00668c-27.1191 17.9922 -39.9557 29.8587 -50.1458 39.3479c-12.7092 11.8386 -29.1399 27.2012 -64.4052 27.2012c-30.7136 0 -50.3385 -12.1568 -58.1203 -17.3943
c-2.35841 -6.70319 -4.64816 -10.4521 -9.01812 -14.824c-25.2161 -25.2204 -89.736 -25.8126 -121.765 4.62044c-0.990225 0.941278 -1.00922 0.959337 -4.81048 3.30991l0.128477 1.58134c-12.2457 8.12835 -23.6755 13.109 -43.4927 13.109
c-37.3008 0 -84.9875 -22.9214 -103.575 -64.0203l-1.94535 -4.30125l-3.74359 1.4423c-87.2594 -123.54 -87.2594 -123.54 -87.4654 -124.309c-2.04663 -7.64478 -10.7542 -40.1733 -13.7251 -51.8971c-1.11646 -41.0964 3.8628 -89.5723 101.55 -157.955
c72.7568 -50.928 135.005 -60.4176 212.349 -60.4176zM435.876 429.495h-104.122l1.37726 155.189l-19.8111 -1.53382l-2.43972 -174.23l144.584 1.24925l-2.80283 182.544l-18.5816 1.14086zM424.992 36.993c-6.18844 7.86482 3.8053 63.5912 3.8053 94.7081
c0 5.86852 -0.494376 7.70522 -0.325244 17.7733c-0.00757555 2.71668 -1.19077 10.0274 -9.00522 10.1947l-15.0192 0.328746c-3.20577 -0.0244107 -6.14795 -2.561 -6.14738 -6.29203c0.399824 -48.6186 -2.11135 -138.401 -53.6871 -206.149
c-0.355829 -0.467453 -26.885 -36.7319 -34.9667 -47.208c-1.86168 -2.41221 -1.70177 -5.87874 0.473042 -8.10928c0.353917 -0.293453 2.89895 -2.36222 14.593 -11.6198c5.70793 -4.51798 10.1409 0.800263 22.8071 20.5447
c4.09471 6.38302 8.56931 13.3711 13.9054 20.1481c19.5057 24.7729 28.9 44.4118 39.4132 68.1568l4.66486 10.536c24.112 -56.7229 29.2744 -67.9245 75.9565 -118.72c0.615502 -0.670909 2.13885 -1.99623 4.56923 -1.99623
c1.79874 0 0.0277031 -1.23143 15.6745 9.20008c3.86141 2.57428 0.241278 9.70132 0.18283 9.77975c-17.5613 14.9001 -70.9891 75.6027 -76.7624 137.68c-0.0436189 0.469979 -0.0929908 0.816267 -0.131616 1.0443z" />
  </g>

</svg>
