<?xml version="1.0" standalone="no"?>
<!DOCTYPE svg PUBLIC "-//W3C//DTD SVG 1.1//EN" "http://www.w3.org/Graphics/SVG/1.1/DTD/svg11.dtd" >
<svg xmlns="http://www.w3.org/2000/svg" xmlns:xlink="http://www.w3.org/1999/xlink" version="1.1" viewBox="-10 0 1046 1000">
  <g transform="matrix(1 0 0 -1 0 800)">
   <path fill="currentColor"
d="M276.53 405.946c31.4229 2.33789 116.943 -9.51953 132.42 -4.23047l0.836914 1.63379l2.61621 0.290039c90.8252 10.1016 176.296 95.165 184.626 106.722l1.08984 -5.04395l3.31055 -1.40625l4.10938 7.68652c4.55273 -6.57031 9.10645 -13.1396 13.6602 -19.71
c-5.23828 -4.97949 -5.39844 -5.13184 -10.1221 -9.65527c-35.2803 -33.7861 -74.3379 -70.9863 -164.154 -101.633c44.1309 -10.3301 89.8359 -35.752 120.646 -59.126c20.9766 -15.9141 37.8682 -22.667 54.2324 -36.8691l3.47754 -3.01855l-20.2793 -26.5859
c-27.46 20.4043 -58.3311 41.5186 -68.1963 48.7529c-98.1514 71.9639 -227.531 69.2314 -285.605 67.6924c0.0332031 8.33105 0.0673828 16.6621 0.100586 24.9941c0.00585938 1.59375 0.566406 8.95312 10.4482 8.93359
c1.61426 -0.00390625 8.85449 -0.0166016 16.7832 0.573242zM561.012 668.012c0 -59.6318 -48.3838 -108.012 -108.012 -108.012c-52.2158 0 -97.627 39.3672 -106.449 89.834h-220.053v36.3555h220.053c8.82227 50.4658 54.2334 89.834 106.449 89.834
c59.6279 0 108.012 -48.3789 108.012 -108.012zM411.323 649.834h-27.7305c8.38281 -30.5342 37.3633 -53.4775 69.2314 -53.4775c39.5469 0 71.6562 32.1104 71.6562 71.6553c0 62.2344 -75.6572 96.5225 -122.06 50.1211
c-8.82129 -8.82129 -15.4521 -19.8252 -18.8037 -31.9434h27.7061c2.28125 4.96973 5.50586 9.50879 9.41309 13.417c29.7744 29.7734 77.4883 7.66504 77.4883 -31.5947c0 -25.0674 -20.3291 -45.4004 -45.4004 -45.4004c-18.2227 0 -34.5234 12.0254 -41.501 27.2227z
M348.481 97.6934l-82.2217 148.848l24.0225 10.1475l58.4395 -100.383l53.3027 101.418l27.2285 -11.0254zM265.568 -67.707v34.6641h38.626v22.0713h-38.626v34.6641h38.626v33.7148h31.3828v-33.7148h23.2197v31.2539h31.3828v-31.2539h41.292v-34.6641h-41.292v-22.0713
h41.292v-34.6641h-41.292v-36.1855h-31.3828v36.1855h-23.2197v-33.7246h-31.3828v33.7246h-38.626zM335.577 -33.043h23.2197v22.0713h-23.2197v-22.0713zM780.659 223.904c-0.529297 0 -0.985352 0.173828 -1.32227 0.358398l-214.094 -88.2627v-37.8242
c12.126 5.10742 24.251 10.2148 36.376 15.3213v-3.77051l-0.21875 -161.659h318.305l0.646484 155.446c10.9619 -6.48535 21.9238 -12.9697 32.8867 -19.4551l-0.677734 40.7051l-136.33 79.1182l1.46387 0.616211c-22.6963 11.7715 -24.457 12.7314 -36.2109 19.5508
c-0.288086 -0.102539 -0.56543 -0.144531 -0.824219 -0.144531zM884.594 -16.7148h-248.003l-0.665039 144.662l142.009 59.8174l107.859 -63.8086zM63.3545 -23.4795h55.5146l17.1611 52.2256l17.1602 -52.2256h55.5156l-44.8672 -32.2959l17.1611 -52.2246
l-44.9697 32.2959l-44.9707 -32.2959l17.1611 52.2246z" />
  </g>

</svg>
