<?xml version="1.0" standalone="no"?>
<!DOCTYPE svg PUBLIC "-//W3C//DTD SVG 1.1//EN" "http://www.w3.org/Graphics/SVG/1.1/DTD/svg11.dtd" >
<svg xmlns="http://www.w3.org/2000/svg" xmlns:xlink="http://www.w3.org/1999/xlink" version="1.1" viewBox="-10 0 1039 1000">
  <g transform="matrix(1 0 0 -1 0 800)">
   <path fill="currentColor"
d="M104.482 356.133c-4.78418 0 -8.57227 -3.90234 -8.57227 -8.54297v-300.105c0 -4.7666 3.91797 -8.54199 8.54199 -8.54199l373.938 -1.50879c4.70996 0 8.57227 3.82617 8.57227 8.54199l-0.804688 155.248l12.9453 0.793945
c13.0273 -0.706055 26.0557 -1.41113 39.083 -2.11719l-51.2236 59.6426v86.5381c0 4.73145 -3.87012 8.54199 -8.50977 8.54199l-212.295 -0.399414c-0.348633 10.8555 -0.698242 21.7109 -1.04688 32.5664c-0.757812 6.1377 -1.30957 10.4131 -2.72656 21.3975
l-57.9824 -52.459l-1.93945 0.0078125s-97.96 0.396484 -97.9805 0.396484zM123 66v263.013l80.8701 -0.34668l63.0283 -53.1514c-0.633789 23.9238 -0.811523 31.8213 -0.811523 39.3877c0 2.90234 0.00488281 3.61035 0.12207 15.3203l193.667 -2.65625v-66.4404
l-54.499 -59.7695c38.1592 1.01172 38.1592 1.01172 54.7812 1.91309l-0.282227 -138.717zM26.3545 -71.4795h55.5146l17.1611 52.2256l17.1602 -52.2256h55.5156l-44.8672 -32.2959l17.1611 -52.2246l-44.9697 32.2959l-44.9707 -32.2959l17.1611 52.2246z
M869.058 -96.0742c-11.8311 0 -11.8311 0 -78.3896 0.610352l0.0859375 0.467773h-4.67188l4.15137 253.874l-92.002 50.5596v14.5928l86.5654 -49.4102c4.83496 -0.0117188 9.89355 0.00292969 15.3076 0.03125l-59.6338 112.174h16.9395l59.5781 -112.062
l2.49512 0.0175781l0.957031 153.737h19.459l-0.958008 -153.638c1.89746 0 3.79395 0.00292969 5.69043 0.00292969l64.5146 122.485h16.9346l-63.8926 -121.302l79.3018 31.875v-14.8652c-21.5107 -9.51172 -42.9912 -19.0508 -64.5195 -28.543l-11.8975 -2.83203
l2.08301 -69.3613l17.1084 9.94629l3.73535 -24.2871l-20.0469 -12.2021l4.9375 -164.465c-1.27832 0.864258 -2.55566 1.72949 -3.83301 2.59277zM850.125 -77.5713l-5.94824 237.889h-3.07129l3.56836 -237.889h5.45117zM817.078 -76.9961v237.988l-3.54688 0.416992
l-1.18848 -238.888zM917 671l-112.777 -106.223l100.399 -86.5996l-20.6221 -17.1777l-100.578 86.9775l-100.422 -89.9775l-14.9775 16.377l98.5996 88.001l-95.6221 105.622l18.4004 17.5996l97.2217 -100.822l114.423 100.022zM917 671l-112.777 -106.223
l100.399 -86.5996l-20.6221 -17.1777l-100.578 86.9775l-100.422 -89.9775l-14.9775 16.377l98.5996 88.001l-95.6221 105.622l18.4004 17.5996l97.2217 -100.822l114.423 100.022z" />
  </g>

</svg>
