<?xml version="1.0" standalone="no"?>
<!DOCTYPE svg PUBLIC "-//W3C//DTD SVG 1.1//EN" "http://www.w3.org/Graphics/SVG/1.1/DTD/svg11.dtd" >
<svg xmlns="http://www.w3.org/2000/svg" xmlns:xlink="http://www.w3.org/1999/xlink" version="1.1" viewBox="-10 0 1010 1000">
  <g transform="matrix(1 0 0 -1 0 800)">
   <path fill="currentColor"
d="M134.221 -61.2959zM340.548 -55.9424v263.013l80.8701 -0.34668l63.0251 -53.1485c1.23064 24.1913 1.23064 24.1913 2.20835 54.5l190.772 -2.45117v-66.4404l-54.499 -59.7695l32.7266 -4.33887l26 4l-4.22754 -136.465zM695.938 -84.5088
c4.71561 0 8.54759 3.82766 8.57399 8.39457l-1.86111 158.189c12.9088 -1.84411 12.9088 -1.84411 53.0537 -4.0831l-51.1944 59.6085v86.5381c0 4.71977 -3.8161 8.4982 -8.24219 8.54782l-211.617 -4.6113c-2.01115 37.2063 -2.01115 37.2063 -4.71543 58.173
l-57.9857 -52.4621l-3.87834 0.0156927s-96.0008 0.388525 -96.0416 0.388607c-4.71785 0 -8.57227 -3.83432 -8.57227 -8.54297v-300.105c0 -4.69954 3.84858 -8.54199 8.54199 -8.54199c0 0 373.898 -1.50871 373.938 -1.50879zM29.3242 18.2246h55.5146l17.1611 52.2256
l17.1602 -52.2256h55.5156l-44.8672 -32.2959l17.1611 -52.2246l-44.9697 32.2959l-44.9707 -32.2959l17.1611 52.2246zM731.949 753.501c68.123 0 123.551 -37.252 123.551 -82.9502c0 -11.3223 -3.32617 -22.1377 -9.94141 -32.5781l30.3223 -144.872h-17.5098
l-29.0732 126.436c-10.0361 -8.41699 -19.2559 -13.7197 -29.7979 -18.4033v-110.133h-17.5v103.715c-6.58203 -1.9248 -24.6504 -7.11426 -50.0508 -7.11426c-13.5547 0 -25.3594 1.37598 -37.4766 3.89941l12.6748 -99.0996h-16.1055l-13.2529 103.606
c-21.2793 7.06836 -33.3223 15.7588 -39.9375 20.8535l-14.7939 -114.66h-16.1064l16.5947 128.603c-3.69824 4.56055 -11.3496 14.7109 -14.1182 29.0312c-0.107422 0 -0.214844 -0.00195312 -0.322266 -0.00195312c-7.42188 0 -15.6768 2.15723 -24.5117 7.12988
c-22.9277 12.8994 -47.2559 31.251 -47.2559 51.0391c0 24.7822 15.2461 35.8496 56.7129 35.8496c26.8887 0 41.5898 -10.1279 48.1719 -26.4824c16.4873 11.6719 45.7812 26.1328 89.7266 26.1328zM606.951 502.2h-0.794922l0.693359 -0.790039zM623.058 502.2
l-0.0791016 -0.609375l0.694336 0.609375h-0.615234zM691.042 492.4h-0.616211l0.693359 -0.610352zM707.147 492.4l0.100586 -0.790039l0.694336 0.790039h-0.794922zM782 491h-0.701172l0.701172 -0.699219v0.699219zM799.5 491v-0.699219l0.699219 0.699219h-0.699219z
M858.371 493.101h-0.556641l0.681641 -0.541992zM875.881 493.101l0.177734 -0.844727l0.683594 0.844727h-0.861328zM240 549l-93.6592 163.291l14.6201 6.17676l80.3086 -128.636l75.3076 136.463l19.7637 -8.00391z" />
  </g>

</svg>
