<?xml version="1.0" standalone="no"?>
<!DOCTYPE svg PUBLIC "-//W3C//DTD SVG 1.1//EN" "http://www.w3.org/Graphics/SVG/1.1/DTD/svg11.dtd" >
<svg xmlns="http://www.w3.org/2000/svg" xmlns:xlink="http://www.w3.org/1999/xlink" version="1.1" viewBox="-10 0 1051 1000">
  <g transform="matrix(1 0 0 -1 0 800)">
   <path fill="currentColor"
d="M271 608l-12 60c128.725 89.7881 355.203 55.3633 442.457 48.5605c0 -0.0107422 0.000976562 -0.0214844 0.000976562 -0.0322266c27.4463 0.582031 75.1855 -1.32129 107.268 -33.4033c40.1396 -40.1396 38.6152 -108.841 37.5254 -169.365
c-0.395508 -21.9258 -0.433594 -33.2402 -0.22168 -41.9463c26.3789 -43.8281 72.168 -89.959 89.3252 -129.607c6.95117 -16.0635 5.49219 -24.7637 2.64551 -40.2051l-12 -14l-79.501 -63.5771v-212.431c1.93945 -31.0869 1.82422 -79.2412 -27.416 -108.48
c-26.0322 -26.0322 -182.507 -12.0195 -220.584 -13.0049l-2.90137 0.0126953c-103.732 -7.2998 -296.108 50.6025 -326.603 92.1719c-18.5059 25.2275 -31.4014 41.2529 -57.9951 55.3086v70.0371c25.8174 -16.2627 49.624 -17.8066 70.1904 -60.6357
c44.2188 -92.082 349.455 -105.734 451.309 -108.438l-0.499023 -0.962891c50 12 34.1514 4.48145 42.5352 13.5361c19.1768 20.7119 3.97852 41.9688 5.50781 57.9648h-0.541992v2.14941c-0.253906 0.990234 -0.500977 1.94141 -0.738281 2.84863h0.738281v207.174v3.4873
v1.33887h1.58203l104 88h1.13281c4.9834 45.8955 -62.8379 92.1289 -94.2158 139.501l-3 4l-1 1c-2.02051 3.99219 0.0439453 4.02539 -2.08398 11.5605c-0.0371094 0.130859 -0.189453 0.24707 -0.174805 0.367188l0.258789 2.07227l0.0644531 1.49902
c0.00976562 0.226562 0.150391 3.89551 0.242188 6.24414c3.11426 79.1523 14.1973 176.389 -74.8154 176.771c-136.35 16.7461 -373.536 9.53418 -431.49 -46.5137zM30.3545 728.521h55.5146l17.1611 52.2256l17.1602 -52.2256h55.5156l-44.8672 -32.2959l17.1611 -52.2246
l-44.9697 32.2959l-44.9707 -32.2959l17.1611 52.2246zM589.641 224.24c40.874 0 74.1299 -22.3516 74.1299 -49.7695c0 -6.79395 -1.99512 -13.2832 -5.96387 -19.5479l18.1934 -86.9229h-10.5059l-17.4443 75.8613c-6.02148 -5.0498 -11.5537 -8.23145 -17.8789 -11.042
v-66.0791h-10.5v62.2285c-3.94922 -1.1543 -14.79 -4.26855 -30.0303 -4.26855c-8.13281 0 -15.2158 0.825195 -22.4863 2.33984l7.60547 -59.46h-9.66309l-7.95215 62.1641c-12.7676 4.24121 -19.9932 9.45508 -23.9619 12.5117l-8.87695 -68.7959h-9.66309
l9.95605 77.1621c-2.21875 2.73535 -6.80957 8.82617 -8.4707 17.418c-0.0644531 0 -0.128906 -0.000976562 -0.193359 -0.000976562c-4.45312 0 -9.40625 1.29492 -14.707 4.27734c-13.7568 7.74023 -28.3535 18.751 -28.3535 30.624
c0 14.8691 9.14746 21.5098 34.0273 21.5098c16.1338 0 24.9541 -6.07617 28.9033 -15.8896c9.89258 7.00391 27.4688 15.6797 53.8359 15.6797zM514.643 73.46h-0.477539l0.416016 -0.474609zM524.306 73.46l-0.046875 -0.366211l0.416016 0.366211h-0.369141z
M565.097 67.5801h-0.370117l0.416016 -0.366211zM574.76 67.5801l0.0605469 -0.473633l0.416016 0.473633h-0.476562zM619.671 66.7402h-0.419922l0.419922 -0.419922v0.419922zM630.171 66.7402v-0.419922l0.419922 0.419922h-0.419922zM665.494 68h-0.334961
l0.40918 -0.325195zM676 68l0.106445 -0.506836l0.410156 0.506836h-0.516602zM572 344l-103.958 188.195l12 5.06934l93 -159.75l84.75 161.25l16.2227 -6.56934z" />
  </g>

</svg>
