<?xml version="1.0" standalone="no"?>
<!DOCTYPE svg PUBLIC "-//W3C//DTD SVG 1.1//EN" "http://www.w3.org/Graphics/SVG/1.1/DTD/svg11.dtd" >
<svg xmlns="http://www.w3.org/2000/svg" xmlns:xlink="http://www.w3.org/1999/xlink" version="1.1" viewBox="-10 0 1051 1000">
  <g transform="matrix(1 0 0 -1 0 800)">
   <path fill="currentColor"
d="M274.499 620.326l-12 60c128.725 89.7881 355.203 55.3633 442.457 48.5605c0 -0.0107422 0.000976562 -0.0214844 0.000976562 -0.0322266c27.4463 0.582031 75.1855 -1.32129 107.268 -33.4033c40.1396 -40.1396 38.6152 -108.841 37.5254 -169.365
c-0.395508 -21.9258 -0.433594 -33.2402 -0.22168 -41.9463c26.3789 -43.8281 72.168 -89.959 89.3252 -129.607c6.95117 -16.0635 5.49219 -24.7637 2.64551 -40.2051l-12 -14l-79.501 -63.5771v-212.431c1.93945 -31.0869 1.82422 -79.2412 -27.416 -108.48
c-26.0322 -26.0322 -182.507 -12.0195 -220.584 -13.0049l-2.90137 0.0126953c-103.732 -7.2998 -296.108 50.6025 -326.603 92.1719c-18.5059 25.2275 -31.4014 41.2529 -57.9951 55.3086v70.0371c25.8174 -16.2627 49.624 -17.8066 70.1904 -60.6357
c44.2188 -92.082 349.455 -105.734 451.309 -108.438l-0.499023 -0.962891c50 12 34.1514 4.48145 42.5352 13.5361c19.1768 20.7119 3.97852 41.9688 5.50781 57.9648h-0.541992v2.14941c-0.253906 0.990234 -0.500977 1.94141 -0.738281 2.84863h0.738281v207.174v3.4873
v1.33887h1.58203l104 88h1.13281c4.9834 45.8955 -62.8379 92.1289 -94.2158 139.501l-3 4l-1 1c-2.02051 3.99219 0.0439453 4.02539 -2.08398 11.5605c-0.0371094 0.130859 -0.189453 0.24707 -0.174805 0.367188l0.258789 2.07227l0.0644531 1.49902
c0.00976563 0.226562 0.150391 3.89551 0.242188 6.24414c3.11426 79.1523 14.1973 176.389 -74.8154 176.771c-136.35 16.7461 -373.536 9.53418 -431.49 -46.5137zM33.8535 740.847h55.5146l17.1611 52.2256l17.1602 -52.2256h55.5156l-44.8672 -32.2959l17.1611 -52.2246
l-44.9697 32.2959l-44.9707 -32.2959l17.1611 52.2246zM676.196 175.982l2.40039 -20.8926l-85.7969 27.3965l-1.29883 -86.998h0.695312v-21.1982h-181.198v93.1533l-68 -64v22.2344l68 64v2.61035h2.77344l6.4248 6.04688v-6.04688h8.7998v-96.7998h142.105l1.56445 104.8
h11.1318v1.46191c1.74414 -0.487305 3.48926 -0.974609 5.2334 -1.46191h3.97363v-1.1084zM582.998 276.29c-9.46582 0 -9.46582 0 -62.7129 0.488281l0.0693359 0.374023h-3.7373l3.32031 203.1l-73.6006 40.4473v11.6748l69.252 -39.5293
c3.86816 -0.00878906 7.91504 0.00292969 12.2461 0.0263672l-47.707 89.7383h13.5518l47.6621 -89.6494l1.99609 0.0146484l0.765625 122.99h15.5674l-0.765625 -122.911c1.51758 0 3.03418 0.00195312 4.55176 0.00195312l51.6113 97.9893h13.5479l-51.1143 -97.042
l63.4414 25.5v-11.8926c-17.208 -7.6084 -34.3926 -15.2393 -51.6152 -22.833l-9.51758 -2.26562l1.66602 -55.4893l13.6865 7.95605l2.98828 -19.4297l-16.0381 -9.76074l3.95117 -131.573c-1.02344 0.692383 -2.04492 1.38477 -3.06641 2.0752zM567.852 291.093
l-4.75879 190.31h-2.45703l2.85449 -190.31h4.36133zM541.414 291.553v190.391l-2.83789 0.333984l-0.950195 -191.111z" />
  </g>

</svg>
