<?xml version="1.0" standalone="no"?>
<!DOCTYPE svg PUBLIC "-//W3C//DTD SVG 1.1//EN" "http://www.w3.org/Graphics/SVG/1.1/DTD/svg11.dtd" >
<svg xmlns="http://www.w3.org/2000/svg" xmlns:xlink="http://www.w3.org/1999/xlink" version="1.1" viewBox="-10 0 1094 1000">
  <g transform="matrix(1 0 0 -1 0 800)">
   <path fill="currentColor"
d="M868.395 462.694c0 9.49902 0.360352 25.4824 0.360352 28.9053l-0.318359 61.375l-8.69434 54.7793l-24.0586 41.7607l-29.835 19.125l-33.9414 8.02539c-15.9834 0.617188 -31.9668 1.23438 -47.9502 1.85059v0.765625l-107.704 8.96191l-161.613 -4.84375
l-135.512 -48.0117l4.97461 -24.8711l90.1514 34.2031l168.52 13.9912l163.858 -8.05859l72.0586 -32.085l24.6855 -76.583c-11.2969 -92.7236 -11.5391 -94.709 -10.623 -98.1973c0.272461 -1.03711 0.408203 -1.9873 0.495117 -2.92188
c0.488281 -0.641602 1.13477 -1.58496 1.48633 -2.05664l30.4463 -40.7334l38.0439 -60.0674c7.97656 -11.168 15.9531 -22.335 23.9297 -33.502l-96.7109 -80.25l-3.2002 -219.288c0.962891 -7.5625 2.78418 -22.0117 5.01758 -45.877
c-0.128906 -0.270508 -9.65137 -20.9678 -12.835 -27.0205c-1.80566 -3.43262 -3.36328 -6.39453 -8.94434 -11.126c-28.7256 -6.87109 -37.6748 -9.0127 -53.7939 -9.0127c-3.38379 0 -6.77832 0.143555 -10.1738 0.446289l-127.95 -3.2207l-189.706 31.9736
l-119.909 72.0264c-7.29102 10.5146 -14.582 21.0303 -21.873 31.5449c-0.186523 0.126953 -14.9541 10.3477 -18.583 12.6523v-31.4629c5.41699 -3.87207 13.5068 -7.36328 24.4395 -17.251c7.32715 -6.625 2.0957 -4.45605 10.624 -11.9258
c1.03027 -0.902344 1.03027 -0.902344 17.2012 -21.8066l70.2637 -41.1387l123.979 -35.7695l40.835 -3.74512c52.8262 -4.9082 59.0674 -6.7334 83.0469 -7.42773l68.0801 -1.97266l89.7607 0.253906l51.1064 12.4922l15.1377 25.207l6.27637 34.1602l-0.268555 82.9482
l0.0292969 84.2285l-0.00585938 87.5186l84.7832 67.8018l7.68652 8.9668l1.11426 7.19531c0.449219 7.6123 -1.52441 12.8027 -3.31152 18.1787l-23.3311 38.8438l-33.0244 43.4482l-34.3174 48.9014c-0.203125 16.1299 -0.203125 16.1299 -0.203125 17.6953z
M70.3203 720.375h55.5146l17.1611 52.2256l17.1602 -52.2256h55.5156l-44.8672 -32.2959l17.1611 -52.2246l-44.9697 32.2959l-44.9707 -32.2959l17.1611 52.2246zM565.209 379.681l-75.2637 73.9199l14.3359 14.7842l60.4805 -55.5527l107.52 136.192l16.1279 -11.2002z
M586.578 89.334c-0.685547 -0.0146484 -1.79688 -0.0263672 -2.48145 -0.0263672c-19.4463 0 -48.4004 8.69238 -64.6299 19.4033c-17.2266 11.4951 -31.208 37.6309 -31.208 58.3398c0 0.287109 0.00292969 0.751953 0.0078125 1.03906v187.91h8.88965v-187.821
c0 -47.9111 46.3105 -69.9561 89.4219 -69.9561c43.1104 0 89.4219 21.8672 89.4219 69.8672v187.91h8.88867v-187.821c0 -54.0449 -50.9326 -78.8447 -98.3105 -78.8447z" />
  </g>

</svg>
