<?xml version="1.0" standalone="no"?>
<!DOCTYPE svg PUBLIC "-//W3C//DTD SVG 1.1//EN" "http://www.w3.org/Graphics/SVG/1.1/DTD/svg11.dtd" >
<svg xmlns="http://www.w3.org/2000/svg" xmlns:xlink="http://www.w3.org/1999/xlink" version="1.1" viewBox="-10 0 1092 1000">
  <g transform="matrix(1 0 0 -1 0 800)">
   <path fill="currentColor"
d="M181.61 245.163v24.4443h36.7871v29.5889h-36.7871v24.4443h36.7871v32.1094h21.3184v-32.1094h30.6836v29.7656h21.3184v-29.7656h39.3262v-24.4443h-39.3262v-29.5889h39.3262v-24.4443h-39.3262v-34.4629h-21.3184v34.4629h-30.6836v-32.1191h-21.3184v32.1191
h-36.7871zM254.917 383.751l-72.2178 130.734l15.0176 6.34375l57.6543 -99.0361l52.5625 100.009l17.8896 -7.24414zM270.399 299.196h-30.6836v-29.5889h30.6836v29.5889zM562.282 291.198c1.3125 -23.3242 -9.77051 -89.7617 -3.25098 -93.25
c6.40137 -68.8184 73.0293 -133.117 73.1133 -130.637l-11.2891 -7.52539c-25.4004 27.7041 -53.7432 55.123 -75.3398 130.195c-4.80762 -33.0547 -25.4551 -70.0781 -44.0078 -93.6396c0 0 -16.1279 -25.8047 -25.8047 -36.5557l-12.9023 10.2139
c14.5146 18.8154 22.6621 30.9434 32.2559 43.5459c48.9824 64.3418 51.0312 148.818 50.6504 193.572c4.55859 -0.0996094 9.11621 -0.200195 13.6748 -0.300781c2.56445 -0.0546875 2.66895 -2.54785 2.71289 -3.6123
c0.00488281 -0.120117 -0.166992 -5.71973 0.1875 -12.0068zM93.502 763.544h41.6357l12.8711 39.1699l12.8701 -39.1699h41.6367l-33.6504 -24.2217l12.8711 -39.168l-33.7275 24.2217l-33.7275 -24.2217l12.8701 39.168zM305.321 609.221l-12.6758 63.3936
c136.002 94.8662 375.292 58.4941 467.481 51.3066v-0.0322266c29.001 0.613281 79.4395 -1.39844 113.337 -35.2939c42.4092 -42.4102 40.7979 -114.996 39.6455 -178.943c-0.416016 -23.167 -0.457031 -35.123 -0.233398 -44.3203
c27.873 -46.3066 76.252 -95.0469 94.3799 -136.938c7.34277 -16.9707 5.80176 -26.1641 2.79395 -42.4785l-12.6807 -14.791l-83.9961 -67.1738v-224.448c2.04785 -32.8447 1.92871 -83.7236 -28.9658 -114.614c-27.5059 -27.5059 -192.831 -12.7002 -233.062 -13.7412
l-3.06641 0.0136719c-109.601 -7.71484 -312.854 53.4648 -345.075 97.3857c-19.5508 26.6543 -33.1758 43.585 -61.2744 58.4365v73.998c27.2783 -17.1826 52.4307 -18.8125 74.1611 -64.0645c46.7197 -97.292 369.22 -111.715 476.835 -114.573l-0.527344 -1.0166
c52.8281 12.6768 36.083 4.73438 44.9424 14.3018c20.2598 21.8828 4.2041 44.3428 5.81836 61.2441h-0.571289v2.27051c-0.269531 1.04492 -0.530273 2.05176 -0.78125 3.00781h0.78125v218.894v3.68359v1.41504h1.6709l109.881 92.9756h1.19727
c5.26562 48.4922 -66.3906 97.3398 -99.5449 147.394l-3.16895 4.22559l-1.05762 1.05664c-2.13379 4.2168 0.0449219 4.25195 -2.20117 12.2139c-0.0390625 0.138672 -0.200195 0.261719 -0.18457 0.386719l0.273438 2.19141l0.0683594 1.58203
c0.00976562 0.242188 0.15918 4.11719 0.255859 6.59766c3.29004 83.6279 5.49121 183.196 -88.5566 183.601l9.05664 11.0186c-144.061 17.6953 -394.666 10.0771 -455.897 -49.1416zM611.692 441.628l-182.25 0.607422v12.0264h163.406v68.2871h-163.406v12.0264
l180.63 -1.0127z" />
  </g>

</svg>
