<?xml version="1.0" standalone="no"?>
<!DOCTYPE svg PUBLIC "-//W3C//DTD SVG 1.1//EN" "http://www.w3.org/Graphics/SVG/1.1/DTD/svg11.dtd" >
<svg xmlns="http://www.w3.org/2000/svg" xmlns:xlink="http://www.w3.org/1999/xlink" version="1.1" viewBox="-10 0 1131 1000">
  <g transform="matrix(1 0 0 -1 0 800)">
   <path fill="currentColor"
d="M51.5039 746.016h42.7031l13.2012 40.1738l13.2002 -40.1738h42.7041l-34.5127 -24.8428l13.2002 -40.1729l-34.5918 24.8428l-34.5928 -24.8428l13.2012 40.1729zM976.101 168.121v-106.021h-261.449v-22.4766l294.867 -0.982422l-2.64844 150.332l-292.219 1.6377
v-22.4902h261.449zM917.844 -170.068l15.9043 40.9697c37.7734 -61.4629 37.4873 -85.7715 54.0127 -110.901h52.2393v-26.0996h-312.3v26.0996h37.0498l43.0928 114.428c12.1943 -19.8408 20.4307 -35.8301 26.5479 -49.2275l41.8818 100.937
c18.9541 -30.8428 31.5254 -65.5684 41.5713 -96.2051zM472.446 625.168l49.5537 -42.3633l-47.1035 -42.043l-7.11035 7.43262l34.6807 29.5371l-125.923 -1.74609l0.567383 12.4697l125.256 -1.04492l-36.499 30.1934zM592.722 587.076
c1.18164 -20.9922 -8.79395 -80.7861 -2.92578 -83.9248c5.76074 -61.9365 65.7266 -119.806 65.8027 -117.573l-10.1611 -6.77344c-22.8604 24.9346 -48.3682 49.6113 -67.8057 117.177c-4.32715 -29.751 -22.9102 -63.0713 -39.6074 -84.2764
c-10.1592 -12.9023 -14.5146 -23.2236 -23.2246 -32.9004l-11.6123 9.19238c13.0645 16.9346 20.3975 27.8496 29.0312 39.1914c44.084 57.9072 45.9277 133.938 45.5859 174.216c4.10254 -0.0898438 8.2041 -0.180664 12.3066 -0.271484
c2.30762 -0.0498047 2.40137 -2.29297 2.44238 -3.25098c0.00390625 -0.108398 -0.150391 -5.14844 0.167969 -10.8057zM532.5 766c0.138672 0 0.363281 0.000976562 0.501953 0.000976562c138.001 0 250.448 -112.001 250.998 -250.001
c-0.00292969 -137.998 -112.002 -249.996 -250 -249.996c-138 0 -250 112.001 -250 250.001c0 137.174 111.328 249.172 248.5 249.995zM532.5 282.667c0.138672 -0.000976563 0.363281 -0.000976563 0.501953 -0.000976563c128.802 0 233.782 104.533 234.331 233.334
c-0.00195312 128.797 -104.536 233.328 -233.333 233.328c-128.8 0 -233.333 -104.533 -233.333 -233.333c0 -127.975 103.86 -232.506 231.833 -233.328z" />
  </g>

</svg>
