<?xml version="1.0" standalone="no"?>
<!DOCTYPE svg PUBLIC "-//W3C//DTD SVG 1.1//EN" "http://www.w3.org/Graphics/SVG/1.1/DTD/svg11.dtd" >
<svg xmlns="http://www.w3.org/2000/svg" xmlns:xlink="http://www.w3.org/1999/xlink" version="1.1" viewBox="-10 0 1026 1000">
  <g transform="matrix(1 0 0 -1 0 800)">
   <path fill="currentColor"
d="M908.911 483.872c0 9.49902 0.360352 25.4824 0.360352 28.9053l-0.318359 61.375l-8.69434 54.7793l-24.0586 41.7607l-29.835 19.125l-33.9414 8.02539c-15.9834 0.617188 -31.9668 1.23438 -47.9502 1.85059v0.765625l-107.704 8.96191l-161.613 -4.84375
l-135.512 -48.0117l4.97461 -24.8711l90.1514 34.2031l168.52 13.9912l163.858 -8.05859l72.0586 -32.085l24.6855 -76.583c-11.2969 -92.7236 -11.5391 -94.709 -10.623 -98.1973c0.272461 -1.03711 0.408203 -1.9873 0.495117 -2.92188
c0.488281 -0.641602 1.13477 -1.58496 1.48633 -2.05664l30.4463 -40.7334l38.0439 -60.0674c7.97656 -11.168 15.9531 -22.335 23.9297 -33.502l-96.7109 -80.25l-3.2002 -219.288c0.962891 -7.5625 2.78418 -22.0117 5.01758 -45.877
c-0.128906 -0.270508 -9.65137 -20.9678 -12.835 -27.0205c-1.80566 -3.43262 -3.36328 -6.39453 -8.94434 -11.126c-28.7256 -6.87109 -37.6748 -9.0127 -53.7939 -9.0127c-3.38379 0 -6.77832 0.143555 -10.1738 0.446289l-127.95 -3.2207l-189.706 31.9736
l-119.909 72.0264c-7.29102 10.5146 -14.582 21.0303 -21.873 31.5449c-0.186523 0.126953 -14.9541 10.3477 -18.583 12.6523v-31.4629c5.41699 -3.87207 13.5068 -7.36328 24.4395 -17.251c7.32715 -6.625 2.0957 -4.45605 10.624 -11.9258
c1.03027 -0.902344 1.03027 -0.902344 17.2012 -21.8066l70.2637 -41.1387l123.979 -35.7695l40.835 -3.74512c52.8262 -4.9082 59.0674 -6.7334 83.0469 -7.42773l68.0801 -1.97266l89.7607 0.253906l51.1064 12.4922l15.1377 25.207l6.27637 34.1602l-0.268555 82.9482
l0.0292969 84.2285l-0.00585937 87.5186l84.7832 67.8018l7.68652 8.9668l1.11426 7.19531c0.449219 7.6123 -1.52441 12.8027 -3.31152 18.1787l-23.3311 38.8438l-33.0244 43.4482l-34.3174 48.9014c-0.203125 16.1299 -0.203125 16.1299 -0.203125 17.6953z
M110.837 741.553h55.5146l17.1611 52.2256l17.1602 -52.2256h55.5156l-44.8672 -32.2959l17.1611 -52.2246l-44.9697 32.2959l-44.9707 -32.2959l17.1611 52.2246zM292.2 565l114 -0.599609v0h5.39941l-6.59961 -364.801v-21.5996h-24.6006l-92.3994 0.599609v21.6006
l92.3994 -0.600586l7.80078 345.601l-96 0.599609v19.2002zM524.36 219.562c-1.4375 -7.40234 -6.92871 -11.6201 -12.833 -11.9785c-12.5811 -0.764648 -23.8379 13.4121 -11.9619 25.1338c1.47852 1.45898 3.2959 2.92188 5.66699 3.66016
c1.94141 1.54883 10.6885 11.5938 25.4248 28.8945c-17.7275 11.8574 -18.4512 16.7119 -18.6279 19.626c-0.412109 6.78125 7.10449 15.4062 14.2705 15.8418c5.06055 0.307617 9.68945 -3.52832 9.5957 -11.6611c0.09375 -1.53809 4.5 -8.41992 7.81641 -6.56641
c125.097 138.652 125.097 138.652 125.509 139.035c0.262695 0.244141 22.5713 19.8428 29.5977 20.2686c3.33398 0.203125 5.95703 -2.35645 6.13672 -5.31738c0.15625 -2.57129 -0.875 -4.69629 -11.9551 -26.499l-0.149414 -0.169922
c-103.148 -117.754 -127.814 -145.914 -127.734 -147.234c0.03125 -0.50293 0.308594 -1.62012 2.85352 -3.94336c4.96582 -4.53223 7.42578 -0.739258 12.8105 -3.08008c4.47852 -1.94824 8.32031 -9.03223 1.48242 -17.25
c-1.36523 -1.64062 -5.52344 -6.26367 -11.625 -6.33008c-1.76855 -0.0185547 -6.61523 0.0644531 -20.7139 16.207c-8.47754 -10.2744 -11.3828 -13.6699 -19.9619 -21.7109c-4.50293 -4.2207 -5.25684 -5.14453 -5.60156 -6.92578zM515.023 227.884
c-4.44727 -4.43555 -8.31934 -2.0127 -8.1123 -5.41992c0.0996094 -1.63477 1.49707 -3.20996 3.24609 -3.10352c3.24121 0.197266 1.1543 3.0918 4.86621 8.52344zM570.977 244.323c-0.0458984 0.00585937 -0.222656 0.12793 -0.268555 0.133789
c0.0996094 -0.0546875 0.189453 -0.100586 0.268555 -0.133789zM544.45 270.192c0.583008 -0.953125 1.60254 -3.25488 -0.0869141 -6.43164c-2.76367 -5.19727 -18.9912 -21.3838 -27.0264 -33.0127c4.26562 4.62793 11.1348 9.66699 20.6064 21.4287
c7.15332 8.88184 8.83594 10.9727 11.8994 11.1582c1.17871 0.0712891 2.18945 -0.253906 3.12305 -0.850586c-0.0683594 1.81543 0.301758 3.77832 1.46484 5.59863c2.36719 3.70996 3.89746 6.07227 79.4883 92.3193c0.492188 0.556641 40.2441 45.4551 48.2559 56.4092
c-11.5449 -10.0518 -27.4697 -27.9316 -70.7568 -76.8057c-25.249 -28.5059 -34.0537 -38.2832 -50.2012 -56.1172c-6.0625 -6.69629 -9.16797 -10.248 -11.376 -11.6807c-1.13379 -0.734375 -2.97461 -1.67773 -5.39062 -2.01562zM524.203 285.784
c-0.0283203 -0.046875 -0.0527344 -0.0878906 -0.0732422 -0.125977c-0.00292969 0.0117188 0.0761719 0.114258 0.0732422 0.125977zM758.033 245.079c7.33008 -1.77051 11.2949 -7.44727 11.3857 -13.3623c0.194336 -12.6025 -14.4775 -23.2051 -25.6504 -10.8105
c-1.39062 1.54297 -2.76953 3.4248 -3.40039 5.82715c-1.45801 2.00977 -11.0967 11.2031 -27.7119 26.708c-12.6494 -17.1719 -17.5303 -17.6758 -20.4492 -17.7197c-6.79395 -0.105469 -15.0693 7.79395 -15.1807 14.9727
c-0.078125 5.07031 3.96484 9.51953 12.085 9.05762c1.54102 0.0244141 8.61426 4.11523 6.91406 7.51074c-132.844 131.25 -132.844 131.25 -133.207 131.679c-0.232422 0.273438 -18.7998 23.4473 -18.9082 30.4854c-0.0517578 3.34082 2.625 5.84473 5.59082 5.88965
c2.5752 0.0400391 4.65137 -1.08789 25.9297 -13.1426l1.60352 -0.158203c112.96 -108.376 139.974 -134.293 141.296 -134.272c0.504883 0.0078125 0.193359 0.235352 2.62988 2.67285c4.75195 4.75488 1.0752 7.38477 3.65723 12.6562
c2.14844 4.38574 9.39941 7.90332 17.2988 0.700195c1.57715 -1.43848 6.00684 -5.80078 5.7959 -11.9004c-0.0595703 -1.7666 -0.363281 -6.60547 -17.127 -19.958c9.87891 -8.93359 13.1396 -11.9902 20.7832 -20.9238
c4.01367 -4.69043 4.90137 -5.48535 6.66504 -5.91113zM749.298 236.129c4.22949 -4.64258 1.63379 -8.40039 5.04785 -8.34863c1.63672 0.0253906 3.27344 1.34961 3.24707 3.10254c-0.0498047 3.24512 -3.03711 1.29199 -8.29492 5.24609zM735.41 292.771
c-0.00878906 -0.0458984 -0.137695 -0.216797 -0.146484 -0.263672c0.0605469 0.0976562 0.109375 0.185547 0.146484 0.263672zM708.366 267.442c0.977539 0.540039 3.32422 1.4541 6.4209 -0.37793c5.06641 -2.99609 20.502 -19.9404 31.7549 -28.4941
c-4.43066 4.4707 -9.15332 11.5615 -20.4736 21.5566c-8.54883 7.54785 -10.5605 9.32422 -10.6074 12.3916c-0.0185547 1.18164 0.352539 2.17578 0.990234 3.08203c-1.81543 0.0136719 -3.75977 0.472656 -5.52734 1.7168
c-3.59766 2.5332 -5.88867 4.16895 -88.623 83.5879c-0.533203 0.516602 -43.585 42.2627 -54.165 50.7637c9.51855 -11.9902 26.6582 -28.708 73.5215 -74.165c27.333 -26.5137 36.7021 -35.7529 53.7861 -52.6914c6.41504 -6.36035 9.82227 -9.62207 11.1533 -11.8936
c0.681641 -1.16504 1.54102 -3.04688 1.76953 -5.47656zM691.873 247.923c0.0449219 -0.0302734 0.0859375 -0.0566406 0.12207 -0.078125c-0.0117188 -0.00292969 -0.111328 0.0810547 -0.12207 0.078125zM732.499 -61.0361l-0.499023 -0.962891zM211 108.038z" />
  </g>

</svg>
