<?xml version="1.0" standalone="no"?>
<!DOCTYPE svg PUBLIC "-//W3C//DTD SVG 1.1//EN" "http://www.w3.org/Graphics/SVG/1.1/DTD/svg11.dtd" >
<svg xmlns="http://www.w3.org/2000/svg" xmlns:xlink="http://www.w3.org/1999/xlink" version="1.1" viewBox="-10 0 1010 1000">
  <g transform="matrix(1 0 0 -1 0 800)">
   <path fill="currentColor"
d="M352.123 703.076c68.123 0 123.551 -37.252 123.551 -82.9502c0 -11.3223 -3.32617 -22.1377 -9.94141 -32.5781l30.3223 -144.872h-17.5098l-29.0732 126.436c-10.0361 -8.41699 -19.2559 -13.7197 -29.7979 -18.4033v-110.133h-17.5v103.715
c-6.58203 -1.9248 -24.6504 -7.11426 -50.0508 -7.11426c-13.5547 0 -25.3594 1.37598 -37.4766 3.89941l12.6748 -99.0996h-16.1055l-13.2529 103.606c-21.2793 7.06836 -33.3223 15.7588 -39.9375 20.8535l-14.7939 -114.66h-16.1064l16.5947 128.603
c-3.69824 4.56055 -11.3496 14.7109 -14.1182 29.0312c-0.107422 0 -0.214844 -0.00195313 -0.322266 -0.00195313c-7.42188 0 -15.6768 2.15723 -24.5117 7.12988c-22.9277 12.8994 -47.2559 31.251 -47.2559 51.0391c0 24.7822 15.2461 35.8496 56.7129 35.8496
c26.8887 0 41.5898 -10.1279 48.1719 -26.4824c16.4873 11.6719 45.7812 26.1328 89.7266 26.1328zM227.125 451.775h-0.794922l0.693359 -0.790039zM243.231 451.775l-0.0791016 -0.609375l0.694336 0.609375h-0.615234zM311.216 441.976h-0.616211l0.693359 -0.610352z
M327.321 441.976l0.100586 -0.790039l0.694336 0.790039h-0.794922zM402.174 440.575h-0.701172l0.701172 -0.699219v0.699219zM419.674 440.575v-0.699219l0.699219 0.699219h-0.699219zM478.545 442.676h-0.556641l0.681641 -0.541992zM496.055 442.676
l0.177734 -0.844727l0.683594 0.844727h-0.861328zM134.221 -61.2959zM340.548 -55.9424v263.013l80.8701 -0.34668l63.0251 -53.1485c1.23064 24.1913 1.23064 24.1913 2.20835 54.5l190.772 -2.45117v-66.4404l-54.499 -59.7695l32.7266 -4.33887l26 4l-4.22754 -136.465z
M695.938 -84.5088c4.71561 0 8.54759 3.82766 8.57399 8.39457l-1.86111 158.189c12.9088 -1.84411 12.9088 -1.84411 53.0537 -4.0831l-51.1944 59.6085v86.5381c0 4.71977 -3.8161 8.4982 -8.24219 8.54782l-211.617 -4.6113
c-2.01115 37.2063 -2.01115 37.2063 -4.71543 58.173l-57.9857 -52.4621l-3.87834 0.0156927s-96.0008 0.388525 -96.0416 0.388607c-4.71785 0 -8.57227 -3.83432 -8.57227 -8.54297v-300.105c0 -4.69954 3.84858 -8.54199 8.54199 -8.54199
c0 0 373.898 -1.50871 373.938 -1.50879zM29.3242 18.2246h55.5146l17.1611 52.2256l17.1602 -52.2256h55.5156l-44.8672 -32.2959l17.1611 -52.2246l-44.9697 32.2959l-44.9707 -32.2959l17.1611 52.2246zM758 444h-0.220703c-17.9746 0 -42.8975 11.7998 -55.6318 26.3398
c-26.0039 29.9023 -30.7461 76.7705 -12.1846 119.701c6.29688 14.5293 13.7383 28.6846 20.9346 42.3701c3.84375 7.2168 7.6875 14.5283 11.2842 21.8398l26.0049 52.2119l1.22656 2.71777c5.72363 12.8428 7.19629 16.0303 10.4678 16.0303h1.55371
c2.78027 -1.31348 4.57812 -5.34473 6.9502 -11.3428c0.408203 -1.03125 0.736328 -1.96875 0.981445 -2.34375l40.3145 -81.083c2.8623 -5.71777 5.96973 -11.2471 9.07715 -16.8721c5.77734 -9.67676 13.7637 -26.2646 17.8271 -37.0254
c0.980469 -2.75 1.8252 -5.5625 2.53418 -8.43652c1.92578 -7.41016 3.48828 -19.6992 3.48828 -27.4307c0 -43.9971 -30.6143 -86.3008 -68.335 -94.4268c-4.43848 -1.12402 -11.7295 -2.13184 -16.2725 -2.25zM759.881 711.712
c-1.22656 -2.53125 -2.4541 -5.43652 -3.1084 -7.03027l-1.47168 -3.28027l-26.0039 -52.0244c-3.67969 -7.40527 -7.52246 -14.7168 -11.4482 -22.0273c-7.11328 -13.499 -14.4736 -27.4658 -20.6074 -41.6201c-17.0078 -39.5566 -12.9199 -82.2061 10.5488 -108.733
c11.5127 -13.1045 34.0225 -23.7412 50.2461 -23.7412c4.0498 0 10.5537 0.767578 14.5186 1.71289c34.2705 7.15723 62.083 45.3721 62.083 85.3018c0 7.22363 -1.50977 18.6875 -3.36914 25.5889c-0.65332 2.62402 -1.41699 5.18652 -2.28906 7.68555
c-3.90625 10.293 -11.5645 26.166 -17.0908 35.4326c-3.18945 5.71777 -6.37891 11.4355 -9.32227 17.2471l-40.3145 80.2393c0 0.65625 -0.817383 1.78125 -1.30859 3.18652z" />
  </g>

</svg>
