<?xml version="1.0" standalone="no"?>
<!DOCTYPE svg PUBLIC "-//W3C//DTD SVG 1.1//EN" "http://www.w3.org/Graphics/SVG/1.1/DTD/svg11.dtd" >
<svg xmlns="http://www.w3.org/2000/svg" xmlns:xlink="http://www.w3.org/1999/xlink" version="1.1" viewBox="-10 0 1415 1000">
  <g transform="matrix(1 0 0 -1 0 800)">
   <path fill="currentColor"
d="M990.248 703.047l-56.1172 58.375l27.2734 27.6504l56.3203 -55.999l57.5967 55.0928l31.3799 -24.9824l-58.8457 -59.4287l62.9854 -53.7344l-30.8408 -26.0205l-62.0117 51.084l-59.0918 -55.9902l-24.8965 30.9062zM1010.49 152.242
c-5.25586 0 -21.5068 19.8477 -54.9629 19.8477c-21.5498 0 -43.2705 -11.4883 -52.6299 -20.8467c-8.62402 -8.62402 -20.1348 -31.1875 -20.1348 -50.9746c0 -20.8066 6.96875 -45.1953 30.3076 -68.5332c1.98828 -1.98926 3.375 -3.18848 3.40918 -3.2207
l76.8574 -74.4277c4.54785 -4.40332 10.5996 -7.12402 17.3477 -7.12402c9.18945 0 14.3857 4.55273 17.3086 7.11426c0.823242 0.72168 58.1914 55.6689 78.6396 76.1172c30.6289 30.6289 32.2275 56.9268 32.2275 69.8174v0.166016
c0 19.8662 -10.1719 41.0156 -21.1611 52.0039c-8.8457 8.8457 -32.2061 20.2139 -51.9814 20.2139c-16.6553 -0.329102 -29.6562 -2.38867 -52.25 -19.1719c-0.880859 -0.654297 -1.92871 -0.981445 -2.97754 -0.981445zM1104.86 100.146
c0 -0.398437 -0.0888672 -3.04395 -0.0888672 -3.07422c0 -12.0713 -6.33691 -27.2461 -23.2275 -43.502l-67.2139 -64.6904c-0.96582 -0.929688 -2.21582 -1.39453 -3.46582 -1.39453c-1.25195 0 -2.50293 0.46582 -3.46973 1.39844
c-67.998 65.5928 -67.998 65.5928 -68.3408 65.9346c-5.44922 5.4502 -21.877 23.5332 -21.877 43.4834c0 0.313477 6.08496 25.542 11.041 29.415c7.25391 5.66797 19.751 10.3008 27.8125 10.3008c18.3008 0 35.3594 -14.8428 42.5508 -22.0342
c4.47266 -4.47266 6.63281 -6.69141 12.2354 -6.69141c1.46094 0 5.54492 0 9.85938 4.31348c10.3281 10.3291 24.291 24.4287 45.2373 24.4287c11.1475 0 26.0508 -7.97754 28.626 -11.0693c5.53711 -6.64941 10.3213 -18.835 10.3213 -26.8184zM856.396 432.068
c-15.4785 0 -18.6953 -1.2666 -37.4346 -1.2666c-0.329102 0 -0.598633 0.000976563 -0.863281 0.000976563c-11.96 0 -17.3447 -7.29688 -17.3711 -15.2539l-0.154297 -38.2803c13.9424 0.364258 30.1055 0.745117 47.9834 0.745117
c96.9043 0 244.171 -11.1982 361.057 -96.8994c39.9941 -28.2109 69.2012 -48.8115 99.3867 -71.1143l31.8867 41.8027c-43.374 37.1533 -44.375 28.3223 -84.3359 58.6377c-38.9355 29.5381 -94.3184 61.3389 -150.363 78.6641
c-0.172852 0.0527344 -3.5166 1.13379 -3.5166 4.77539c0 2.12988 1.33398 3.9668 3.24023 4.68066c113.012 42.332 165.604 92.335 213.013 137.736l16.0039 15.2666l-23.0615 33.2773c-1.74609 -3.26562 -2.64062 -4.93848 -5.63867 -4.93848
c-1.20996 0 -4.12695 0.425781 -4.98633 4.40234c-5.03613 -6.98438 -6.75293 -9.36719 -16.8652 -19.4785c-36.8418 -36.8418 -140.123 -124.47 -248.421 -136.515l-5.07422 -0.564453c-1.28027 -2.5 -2.11328 -4.12695 -22.252 -4.12695
c-37.8984 0 -109.884 8.44824 -152.232 8.44824zM570.172 238.215zM138.412 528.687zM57.7822 380.249zM371.942 186.172zM371.374 168.146zM131.338 235.172zM269.72 191.637zM647.186 413.811zM57.7822 380.249zM647.186 413.811zM657.814 423.927
c5.56738 -16.8633 9.15234 -35.1133 13.835 -52.5947l3.26367 -0.0537109c-2.48145 -52.3799 -3.41602 -72.1045 -88.4727 -139.314c-63.29 -50.0107 -109.626 -67.627 -214.95 -68.8145c-72.4492 -0.816406 -164.719 1.89551 -245.607 68.7969
c-31.874 26.3613 -82.4697 77.3809 -82 135.336h-2.26758c2.47754 9.29004 2.47754 9.29004 2.71387 16.4229l1.65918 -0.0283203l7.10254 26.6348h-3.11816c1.61914 2.19922 3.23828 4.39844 4.85645 6.59668v7.48438h5.50977l80.4365 109.291h2.55176
c27.8301 65.0771 134.447 96.4268 175.858 46.0176c5.87988 -2.64258 32.5469 -13.2822 60.626 -3.04492c14.4639 19.3584 55.1035 38.041 100.836 28.5576c44.2324 -9.17188 88.8516 -50.3193 108.428 -70.3535h0.938477
c0.689453 -1.0166 1.16211 -2.18262 2.0293 -3.07227l6.15137 -6.41797l58.7324 -100.361c0.875977 0.0751953 1.56836 0.0195312 1.43066 -0.616211zM84.7998 370.797c-0.974609 -33.3994 2.71973 -73.1191 83.835 -129.9
c68.8311 -48.1816 125.865 -51.6426 204.166 -49.7031c91.2295 2.34863 129.297 14.0742 184.386 59.0889c73.2568 59.8643 85.3945 78.625 76.585 113.791l-11.6484 46.5049l-0.427734 -0.763672c0.0244141 2.81445 -1.85742 6.39355 -1.83301 9.20898l-65.3672 103.1
c-1.75391 -0.0693359 -0.353516 1.52441 -2.10742 1.45605c-40.4619 26.6758 -44.7754 38.2334 -59.8896 47.1465c-23.2744 13.7246 -59.0566 10.9619 -81.8369 -4.58594c-11.3398 -34.1611 -81.7002 -39.6348 -114.121 -8.83008
c-3.02148 2.87109 -5.25098 1.27344 -4.96484 4.79688c-34.6553 23.8477 -99.5693 -0.178711 -117.913 -43.3818l-2.22461 -5.23926l-3.70801 1.42773l-71.4854 -101.205z" />
  </g>

</svg>
