<?xml version="1.0" standalone="no"?>
<!DOCTYPE svg PUBLIC "-//W3C//DTD SVG 1.1//EN" "http://www.w3.org/Graphics/SVG/1.1/DTD/svg11.dtd" >
<svg xmlns="http://www.w3.org/2000/svg" xmlns:xlink="http://www.w3.org/1999/xlink" version="1.1" viewBox="-10 0 1222 1000">
  <g transform="matrix(1 0 0 -1 0 800)">
   <path fill="currentColor"
d="M313.167 29.7529l-82.2217 148.848l24.0225 10.1475l58.4395 -100.383l53.3027 101.418l27.2285 -11.0254zM230.254 -135.647v34.6641h38.626v22.0713h-38.626v34.6641h38.626v33.7148h31.3828v-33.7148h23.2197v31.2539h31.3828v-31.2539h41.292v-34.6641h-41.292
v-22.0713h41.292v-34.6641h-41.292v-36.1855h-31.3828v36.1855h-23.2197v-33.7246h-31.3828v33.7246h-38.626zM300.263 -100.983h23.2197v22.0713h-23.2197v-22.0713zM557.788 -109.217h313.312l0.654297 157.319c10.9316 -6.4668 21.8633 -12.9336 32.7939 -19.4004
l-0.579102 34.8232l-139.452 80.9307l1.17578 0.495117c-17.96 9.3252 -20.6006 10.7832 -31.0918 16.8213c-0.114258 0 -0.225586 0.00683594 -0.333008 0.00683594c-0.302734 0.0185547 -0.574219 0.0498047 -0.818359 0.0898438l-211.822 -87.3281v-32.3828
c12.127 5.10742 24.2529 10.2158 36.3799 15.3232zM840.957 -78.999h-252.969l-0.685547 148.819l144.706 60.9531l110.182 -65.1816zM398.5 552.667v11.333h-86.584v65.917h-11.332v-65.917h-86.584v-11.333h86.584v-177.583h11.332v177.583h86.584zM1082.32 592.514
c0 1.64746 -1.65625 6.16309 -3.07812 8.01074c-1.96777 1.45996 -6.69629 3.14453 -8.50098 3.14453c-6.52637 0 -11.1973 -4.5293 -15.4258 -8.75879c-1.82422 -1.82324 -4.21875 -2.7373 -6.61328 -2.7373c-3.85938 0 -5.98828 2.11328 -7.72266 3.84668
c-0.359375 0.360352 -6.51172 5.75879 -10.1289 6.95215c-1.65039 0.544922 -2.72949 0.691406 -4.0625 0.691406c-1.7207 0 -6.25684 -1.55957 -8.40234 -3.08105c-0.914062 -1.44336 -0.945312 -1.54785 -3.125 -9.04199
c0.179688 -2.78906 1.49805 -8.48145 7.7832 -14.5439l25.6787 -24.7705l25.4971 24.541c2.75781 2.7627 8.10059 8.19141 8.10059 15.7471zM1015.72 645.787c0.331055 -5.87598 0.129883 -13.6318 -0.382812 -22.4785c8.3584 2.95703 20.1133 3.7002 33.2305 -5.48828
c8.93262 6.34766 15.252 7.45703 22.0957 7.5918c9.40332 0 19.5283 -4.99316 23.8311 -9.47168c9.23828 -9.61035 17.5312 -32.5947 -5.21289 -54.8047c-26.8867 -26.2549 -30.0928 -29.1973 -31.0068 -29.998c-5.41504 -5.2002 -13.8799 -5.21582 -19.3457 0.078125
l-29.0439 28.127c-0.994141 -11.5137 -1.7793 -22.2061 -2.00977 -30.8262c-0.09375 -3.49023 -0.353516 -19.1523 2.48047 -20.668c0.324219 -0.113281 0.583008 -0.291992 0.523438 -0.789062c9.20898 -98.9971 102.682 -191.717 107.881 -193.622
c0.169922 -0.0625 -0.322266 0.0136719 -0.322266 0.0136719l-0.488281 -0.25293l-0.264648 -0.597656l1.55371 -0.866211l-17.5117 -11.6748c-1.94922 2.12402 -2.88672 3.14648 -7.35742 7.98633c-35.5156 38.4502 -74.21 80.3906 -104.311 182.503
c-8.31836 -48.3086 -38.1201 -101.278 -64.9883 -135.4c-17.3301 -22.0088 -23.2012 -37.5156 -39.0713 -55.1484l-20.71 16.3955c12.2129 15.832 20.0449 26.5664 30.8691 41.5049c6.09961 8.41992 11.7227 16.1807 17.7295 24.0713
c73.5107 96.5615 75.71 223.811 75.1611 288.473l21.3789 -0.47168c1.89844 -0.0400391 5.125 -0.957031 5.00879 -6.74414c-0.0341797 -1.67676 -0.182617 -9.16406 0.282227 -17.4414h0.00097656zM763.609 664.42l-101.889 -102.9l110.88 -101.92l-14.4355 -12.0244
l-111.005 102.185l-100.396 -102.185l-10.4844 11.4639l99.1201 100.8l-97.4404 101.361l12.8809 12.3193l98.5596 -98l103.04 98.5596zM763.609 664.42l-101.889 -102.9l110.88 -101.92l-14.4355 -12.0244l-111.005 102.185l-100.396 -102.185l-10.4844 11.4639
l99.1201 100.8l-97.4404 101.361l12.8809 12.3193l98.5596 -98l103.04 98.5596zM48.5039 -144.984h42.7031l13.2012 40.1738l13.2002 -40.1738h42.7041l-34.5127 -24.8428l13.2002 -40.1729l-34.5918 24.8428l-34.5928 -24.8428l13.2012 40.1729zM760 258h-181.046
l0.121094 91.9297c-6.78906 -2.85938 -13.5781 -5.71875 -20.3672 -8.5791v24.2285l121.435 50.0625c0.34668 -0.157227 0.78125 -0.583984 0.878906 0.03125c7.86426 -4.56543 7.86426 -4.56543 23.7559 -12.8057l-0.981445 -0.412109l74.5957 -43.292l0.43457 -26.0879
c-6.15723 3.64062 -12.3115 7.28223 -18.4688 10.9248zM601.456 280.521h136.1l0.65332 76.582l-59.1006 34.9629l-78.0146 -32.8613z" />
  </g>

</svg>
