<?xml version="1.0" standalone="no"?>
<!DOCTYPE svg PUBLIC "-//W3C//DTD SVG 1.1//EN" "http://www.w3.org/Graphics/SVG/1.1/DTD/svg11.dtd" >
<svg xmlns="http://www.w3.org/2000/svg" xmlns:xlink="http://www.w3.org/1999/xlink" version="1.1" viewBox="-10 0 994 1000">
  <g transform="matrix(1 0 0 -1 0 800)">
   <path fill="currentColor"
d="M59.8232 749.879h55.5146l17.1611 52.2256l17.1602 -52.2256h55.5156l-44.8672 -32.2959l17.1611 -52.2246l-44.9697 32.2959l-44.9707 -32.2959l17.1611 52.2246zM300.499 616.326l-12 60c128.725 89.7881 355.203 55.3633 442.457 48.5605
c0 -0.0107422 0.000976562 -0.0214844 0.000976562 -0.0322266c27.4463 0.582031 75.1855 -1.32129 107.268 -33.4033c40.1396 -40.1396 38.6152 -108.841 37.5254 -169.365c-0.395508 -21.9258 -0.433594 -33.2402 -0.22168 -41.9463
c26.3789 -43.8281 72.168 -89.959 89.3252 -129.607c6.95117 -16.0635 5.49219 -24.7637 2.64551 -40.2051l-12 -14l-79.501 -63.5771v-212.431c1.93945 -31.0869 1.82422 -79.2412 -27.416 -108.48c-26.0322 -26.0322 -182.507 -12.0195 -220.584 -13.0049
l-2.90137 0.0126953c-103.732 -7.2998 -296.108 50.6025 -326.603 92.1719c-18.5059 25.2275 -31.4014 41.2529 -57.9951 55.3086v70.0371c25.8174 -16.2627 49.624 -17.8066 70.1904 -60.6357c44.2188 -92.082 349.455 -105.734 451.309 -108.438l-0.499023 -0.962891
c50 12 34.1514 4.48145 42.5352 13.5361c19.1768 20.7119 3.97852 41.9688 5.50781 57.9648h-0.541992v2.14941c-0.253906 0.990234 -0.500977 1.94141 -0.738281 2.84863h0.738281v207.174v3.4873v1.33887h1.58203l104 88h1.13281
c4.9834 45.8955 -62.8379 92.1289 -94.2158 139.501l-3 4l-1 1c-2.02051 3.99219 0.0439453 4.02539 -2.08398 11.5605c-0.0371094 0.130859 -0.189453 0.24707 -0.174805 0.367188l0.258789 2.07227l0.0644531 1.49902
c0.00976563 0.226562 0.150391 3.89551 0.242188 6.24414c3.11426 79.1523 5.19727 173.389 -83.8154 173.771c-136.35 16.7461 -373.536 9.53418 -431.49 -46.5137zM600.248 249.28c47.6865 0 86.4854 -26.0762 86.4854 -58.0645
c0 -7.92578 -2.32812 -15.4971 -6.95898 -22.8057l21.2256 -101.41h-12.2568l-20.3516 88.5049c-7.02441 -5.8916 -13.4785 -9.60352 -20.8584 -12.8828v-77.0918h-12.25v72.5996c-4.60742 -1.34668 -17.2549 -4.97949 -35.0352 -4.97949
c-9.48828 0 -17.752 0.962891 -26.2344 2.72949l8.87305 -69.3701h-11.2734l-9.27734 72.5244c-14.8955 4.94824 -23.3252 11.0312 -27.9561 14.5977l-10.3564 -80.2617h-11.2734l11.6152 90.0215c-2.58789 3.19238 -7.94434 10.2979 -9.88184 20.3213
c-0.0751953 0 -0.151367 -0.000976563 -0.226562 -0.000976563c-5.19531 0 -10.9736 1.51074 -17.1582 4.99121c-16.0488 9.0293 -33.0791 21.876 -33.0791 35.7275c0 17.3467 10.6729 25.0947 39.6992 25.0947c18.8223 0 29.1133 -7.08984 33.7207 -18.5381
c11.541 8.1709 32.0469 18.293 62.8086 18.293zM512.75 73.3701h-0.557617l0.486328 -0.553711zM524.023 73.3701l-0.0546875 -0.426758l0.485352 0.426758h-0.430664zM571.613 66.5098h-0.431641l0.485352 -0.426758zM582.887 66.5098l0.0703125 -0.552734
l0.486328 0.552734h-0.556641zM635.283 65.5303h-0.490234l0.490234 -0.490234v0.490234zM647.533 65.5303v-0.490234l0.490234 0.490234h-0.490234zM688.743 67h-0.389648l0.476562 -0.379883zM701 67l0.124023 -0.59082l0.479492 0.59082h-0.603516zM648.786 581.798
v-78.1377h9.21973v78.1377h-9.21973zM575.377 583.774v-60.1758h8.08398v60.1758h-8.08398zM511.641 583.774l9.87988 -0.479492v-75.4434l-9.87988 0.479492v75.4434zM584 526.503c69.0371 0 125.229 -45.835 125.229 -102.208
c0 -56.3711 -56.2217 -102.295 -125.229 -102.295s-125.229 45.833 -125.229 102.236c0 56.4023 56.2217 102.267 125.229 102.267zM700.937 424.206c0 51.792 -52.4834 93.9336 -116.937 93.375c-61.9609 -0.537109 -116.527 -42.1436 -116.906 -93.8848
c-0.379883 -51.8203 52.4814 -93.374 116.906 -93.374c64.4561 0 116.937 42.0918 116.937 93.8838zM524.873 419.236c15.1484 -58.2588 102.477 -55.6836 118.313 0.418945l8.32324 -2.33398c-17.7539 -63.8877 -118.583 -66.7324 -134.959 0z" />
  </g>

</svg>
