<?xml version="1.0" standalone="no"?>
<!DOCTYPE svg PUBLIC "-//W3C//DTD SVG 1.1//EN" "http://www.w3.org/Graphics/SVG/1.1/DTD/svg11.dtd" >
<svg xmlns="http://www.w3.org/2000/svg" xmlns:xlink="http://www.w3.org/1999/xlink" version="1.1" viewBox="-10 0 869 1000">
  <g transform="matrix(1 0 0 -1 0 800)">
   <path fill="currentColor"
d="M77.7109 296.619l50.8369 59.4639l50.4521 -56.5244l-8.9209 -8.53223l-35.4443 41.6172l2.09668 -151.107l-14.9648 0.680664l1.25391 150.307l-36.2324 -43.7988zM363.348 541.451c21.3516 -3.76562 71.8232 0.493164 79.5967 44.5742
c2.02246 11.4707 -1.92676 30.8125 -9.10352 41.0615c-5.47363 7.81738 -18.7295 16.3105 -27.9814 17.9424c-0.291016 0.0507812 -0.580078 0.102539 -0.868164 0.152344c-21.8936 3.86133 -29.8389 5.26758 -37.8838 7.6582
c-0.992188 0.294922 -1.99316 0.527344 -2.99316 0.703125c-10.9766 1.93555 -22.0742 -2.81055 -24.667 -4.62695c-7.10156 -4.97266 -24.9082 -22.7402 -28.876 -45.2441c-0.181641 -1.03223 -0.333984 -2.0752 -0.456055 -3.12598
c-1.38184 -10.4492 2.9834 -30.2373 14.6133 -41.1133c9.03027 -7.53906 35.8818 -16.707 38.6191 -17.9814zM381.408 521.998c-2.25879 -2.52441 -2.83398 -6.91602 -5.07617 -12.5771c-14.6758 -37.0479 -1.81836 -178.188 33.668 -179.421
c7.45996 -0.258789 18.8994 -13.8135 46.5254 -15.2842c0.586914 -0.03125 11.8936 2.28906 12.4746 2.28418c19.6123 -0.15918 39 9 39 9v0c23.5264 -3.27148 35.4863 -4.85742 45 -12c116.514 -87.4727 4.5957 14.458 90.8584 -76.5322
c15.2197 -11.6465 34.6016 -42.3145 53.2168 -42.3145c1.36816 0 4.0625 0 8.21875 2.17871c7.56738 -0.37793 19.626 -2.82812 19.626 -14.6035c0 -7.09375 -5.69824 -13.2656 -9.61816 -15.4883c-6.54785 -3.71387 -45.3994 13.3975 -51.4609 13.3975
c-22.2764 0 -9.18066 3.42969 -32.8408 30.3623c-24.5029 27.8926 -41.0137 59.0605 -82 78c9.44043 -5.22363 16.1191 -23.6328 16 -25c-4.14355 -47.3916 -26.4551 -55.5498 -12.5938 -99.0234c5.3877 -25.793 62.1963 -13.7432 71.0938 -21.751l7.32129 -21.9639
c-0.397461 -1.32031 -1.30273 -4.32715 -9.5 -4.32715c-16.9824 0 -69.9922 -13.543 -87.1006 31.627c-19.9023 72.5518 10.7334 78.6729 5.90527 95.3057c-22.1982 76.4697 -8.07129 55.666 -66.126 57.1328c-2.62793 0.0664062 -12.7334 -0.269531 -20.3174 -1.48926
c-130.452 -20.9814 -104.592 168.587 -101.683 217.489c0.165039 2.77832 0.208984 5.18164 1.40234 7.71582c-5.2207 1.35059 -34.3242 9.63379 -48.2871 29.5742c-7.14648 10.207 -16.54 29.0889 -12.1582 53.9336c3.7002 20.9863 20.5322 45.1934 37.4912 56.5156
c8.83887 5.36719 23.7852 8.89355 36.167 6.70996c0.364258 -0.0527344 0.748047 -0.113281 1.15137 -0.18457c0.293945 -0.0517578 19.9902 -4.63477 29.2334 -6.26465c5.21289 -0.919922 11.7969 -1.85254 11.915 -1.87305
c14.5615 -2.56738 31.4922 -13.585 39.9189 -25.6182c10.3027 -14.7148 15.3574 -37.9971 12.2852 -55.4219c-5.66113 -32.1055 -34.1338 -59.0107 -79.7109 -60.0889z" />
  </g>

</svg>
