<?xml version="1.0" standalone="no"?>
<!DOCTYPE svg PUBLIC "-//W3C//DTD SVG 1.1//EN" "http://www.w3.org/Graphics/SVG/1.1/DTD/svg11.dtd" >
<svg xmlns="http://www.w3.org/2000/svg" xmlns:xlink="http://www.w3.org/1999/xlink" version="1.1" viewBox="-10 0 1012 1000">
  <g transform="matrix(1 0 0 -1 0 800)">
   <path fill="currentColor"
d="M421.458 742.564c0 3.24707 -0.0605469 5.65625 -0.0605469 5.71289c0.0634766 1.23242 0.379883 2.29492 0.492188 2.40918c0 0.0996094 0 0.0996094 19.2949 0.526367c-0.0175781 -2.81934 -0.0292969 -5.72852 -0.0292969 -8.72363
c0 -75.3135 6.93848 -204.502 83.0879 -304.53c10.4697 -13.752 31.9609 -44.123 50.3955 -68.1367l-15.7793 -12.4922c-13.9375 16.541 -20.8965 35.5869 -39.8242 56.9883c-33.4824 37.8545 -66.1523 97.6162 -70.7012 150.26l-1.67773 19.4287l-5.02051 -18.8428
c-11.6436 -43.7119 -35.9736 -54.4355 -53.8652 -62.2881c-11.958 -5.24805 -21.5684 -9.46387 -21.5684 -21.7119c0 -10.4395 2.43848 -18.4492 58.5713 -86.124c1.59375 -1.91992 2.91699 -3.5166 3.86816 -4.67383l-8.48047 -10.2803
c-11.6133 17.335 -70.5732 56.1123 -70.5732 96.5264c0 36.9404 69.6816 35.0264 76.6357 98.9238c1.22363 1.34863 3.51953 4.06152 3.51953 19.7266c0 31.4033 -8.8252 94.416 -8.8252 126.553c0 7.41211 0.540039 9.60645 0.540039 20.749zM421.396 748.33
c0 -0.0117188 0.00195313 -0.0292969 0.00195313 -0.0527344c0.000976562 0.0283203 -0.00195313 0.0527344 -0.00195313 0.0527344zM441.185 751.213zM574.639 369.822l2.64355 2.09277l-0.588867 -4.76172c-0.693359 0.898438 -1.37793 1.78809 -2.05469 2.66895z
M558.859 357.33c0.683594 -0.8125 1.38379 -1.61816 2.10352 -2.41797l-4.65527 0.397461zM428.642 390.366zM426.362 576.913c-0.129883 -1.39844 -0.170898 -1.82617 -1.78809 -2.69141zM421.087 728.628c-0.00195312 -0.0322266 0.0888672 1.56348 -0.180664 -3.21973z
M719.526 458.555l-124.75 225.834c-1.49023 2.69727 -0.015625 5.99023 2.42871 7.02246l14.4004 6.08301c2.34863 0.992188 5.10156 -0.0800781 6.27148 -2.09082l107.054 -183.89l97.4971 185.503c1.09863 2.09082 3.88379 3.28809 6.30762 2.30664l19.4658 -7.88379
c2.4707 -1.00098 3.99219 -4.29297 2.51562 -7.0166l-122.416 -225.834c-1.72754 -3.18652 -6.875 -3.47266 -8.77441 -0.0341797zM51.3545 703.521h55.5146l17.1611 52.2256l17.1602 -52.2256h55.5156l-44.8672 -32.2959l17.1611 -52.2246l-44.9697 32.2959
l-44.9707 -32.2959l17.1611 52.2246zM51.3545 703.521h55.5146l17.1611 52.2256l17.1602 -52.2256h55.5156l-44.8672 -32.2959l17.1611 -52.2246l-44.9697 32.2959l-44.9707 -32.2959l17.1611 52.2246zM649.177 263.219c1.2627 -22.4336 -7.74219 -81.3936 -5.23047 -95.668
c0.770508 -0.875977 1.56445 -2.23145 1.72852 -3.98535c5.23145 -56.2568 51.2754 -111.696 69.0869 -129.507c3.60547 -3.60547 3.60547 -3.60547 14.0586 -11.6914c-1.22754 -0.802734 -1.22754 -0.802734 -19.9932 -13.3145
c-2.84668 -1.90039 -6.69922 -1.45703 -9.03418 1.08984c-30.0791 32.7197 -53.7002 58.416 -74.6094 118.096c-9.44629 -29.4131 -26.6836 -58.2959 -42.6045 -78.5156c-11.126 -14.1289 -19.8799 -31.4688 -28.2031 -39.793
c-2.53711 -2.53711 -6.54395 -2.71484 -9.28906 -0.542969c-14.1436 11.1963 -14.1436 11.1963 -14.4336 11.4873c-2.5166 2.51562 -2.71289 6.47656 -0.598633 9.21973c7.94727 10.3027 34.1816 46.1582 34.5322 46.6201c50.7832 66.708 53.252 155.368 52.8457 203.106
c-0.0341797 3.9502 3.20312 7.14551 7.1543 7.05664c18.7012 -0.416016 18.7012 -0.416016 21.4033 -3.11816c2.02734 -2.02734 3.06055 -5.03613 2.99219 -8.46777c-0.0234375 -1.15625 -0.125977 -6.3916 0.194336 -12.0723zM346.598 263.496
c1.2627 -22.4336 -7.74219 -81.3936 -5.23047 -95.668c0.770508 -0.875977 1.56445 -2.23145 1.72852 -3.98535c5.23145 -56.2568 51.2754 -111.696 69.0869 -129.507c3.60547 -3.60547 3.60547 -3.60547 14.0586 -11.6914
c-1.22754 -0.802734 -1.22754 -0.802734 -19.9932 -13.3145c-2.84668 -1.90039 -6.69922 -1.45703 -9.03418 1.08984c-30.0791 32.7197 -53.7002 58.416 -74.6094 118.096c-9.44629 -29.4131 -26.6836 -58.2959 -42.6045 -78.5156
c-11.126 -14.1289 -19.8799 -31.4688 -28.2031 -39.793c-2.53711 -2.53711 -6.54395 -2.71484 -9.28906 -0.542969c-14.1436 11.1963 -14.1436 11.1963 -14.4336 11.4873c-2.5166 2.51562 -2.71289 6.47656 -0.598633 9.21973
c7.94727 10.3027 34.1816 46.1582 34.5322 46.6201c50.7832 66.708 53.252 155.368 52.8457 203.106c-0.0341797 3.9502 3.20312 7.14551 7.1543 7.05664c18.7012 -0.416016 18.7012 -0.416016 21.4033 -3.11816c2.02734 -2.02734 3.06055 -5.03613 2.99219 -8.46777
c-0.0234375 -1.15625 -0.125977 -6.3916 0.194336 -12.0723z" />
  </g>

</svg>
