<?xml version="1.0" standalone="no"?>
<!DOCTYPE svg PUBLIC "-//W3C//DTD SVG 1.1//EN" "http://www.w3.org/Graphics/SVG/1.1/DTD/svg11.dtd" >
<svg xmlns="http://www.w3.org/2000/svg" xmlns:xlink="http://www.w3.org/1999/xlink" version="1.1" viewBox="-10 0 785 1000">
  <g transform="matrix(1 0 0 -1 0 800)">
   <path fill="currentColor"
d="M74.7153 498.948c-0.0418516 0 -0.0576544 0.0273367 -0.0576544 0.0693319c0 0.0484118 0.0210008 0.116304 0.0473056 0.184253h-1.52135l4.79766 3.59025c-0.212809 -0.728032 -0.514592 -1.23952 -0.798643 -1.60835v-1.9819h-2.0349
c-0.235675 -0.185623 -0.366425 -0.253585 -0.432415 -0.253585zM77.1826 463.776v-3.99902l-1.16968 2.82864l-2.82934 1.17038h3.99902zM419.466 584.317c-0.760904 25.2673 -0.920898 32.5145 -0.920898 35.5c0 5.5845 0.0966797 8.91916 0.0966797 9.66016
c0 5.06166 -1.48521 11.5628 -9.07812 11.7248l-39.4476 0.8707c0.0511731 -6.66281 0.0882218 -13.6852 0.0882218 -21.1228c0 -30.1865 -0.383671 -68.6023 -4.67323 -121.749h-288.348v-35.4248h284.798c-8.85632 -72.5787 -31.9547 -226.418 -131.429 -357.085
c-19.9219 -26.1697 -57.6486 -79.7445 -90.0732 -121.554c25.5865 -20.3173 33.5712 -26.5778 38.1259 -30.0867c32.7162 37.1181 38.4803 59.1347 72.3393 102.133c46.4378 58.9763 97.6549 148.333 116.888 232.763l4.12039 18.0875l5.52485 -17.7092
c54.8031 -175.664 122.495 -250.787 201.599 -335.2c4.25721 2.79148 4.25721 2.79148 30.9733 20.6054c0.126341 0.520969 0.292131 1.20793 0.452384 1.87973c-21.0617 17.3027 -182.371 180.933 -200.398 362.26c-3.5012 1.87971 -5.61563 8.33762 -5.61563 29.6133
c0 17.0741 1.16496 38.1964 6.35082 94.2929h4.55834c93.7699 0 187.54 0.000978477 281.31 0.000978477v35.4238h-118.832c6.84004 11.3301 8.32536 13.7904 8.32536 20.998c0 14.3529 -11.8462 26.2002 -26.1992 26.2002c-14.3535 0 -26.2002 -11.8477 -26.2002 -26.2002
c0 -7.20817 1.48504 -9.6672 8.32791 -20.998h-128.003c4.56263 51.1659 5.34076 69.8891 5.34076 85.1162zM696.706 499.201v3.99804c0.971032 -1.69498 1.71918 -3.61284 4 -3.99804h-4zM696.706 463.777c1.333 0 2.666 1.3688e-05 3.999 1.3688e-05l-2.82696 -1.16999
l-1.17204 -2.83001v3.99998zM410.103 339.87c-0.0709786 0.713946 -0.139735 1.42816 -0.206253 2.14265l1.25166 -2.57375c-0.233755 0.128348 -0.571471 0.176661 -1.04541 0.431105zM610.501 -22.3904c0.139393 0.584347 0.383661 1.15722 0.485071 1.5994
l1.16966 -2.82522c-0.490405 0.359957 -1.04168 0.722173 -1.65473 1.22582zM610.049 -24.2701c0.210771 0.140539 0.422801 0.169789 0.636098 0.312004zM579.076 -44.8755c0.891435 -0.951265 1.47009 -1.5567 1.83301 -1.91962
c-2.18545 0.638189 -2.18545 0.638189 -2.46039 0.64767l-2.0461 -0.457228c0.0846272 0.0435413 0.883786 0.555661 2.67348 1.72918zM178.604 -44.9495c0.951786 -0.733247 1.72907 -1.32523 2.29207 -1.74406l-1.86373 0.211171l-2.82661 -1.16957
c0.818172 0.910042 1.61225 1.81068 2.39826 2.70245zM140.478 -14.8628c-1.02329 -1.31946 -2.0209 -2.60581 -2.19174 -2.85371c0.190678 0.738237 0.52017 1.33766 0.610258 2.17649l-1.16949 2.82606c0.650068 -0.515176 1.58526 -1.22319 2.75097 -2.14884z
M370.116 642.073l-4.02506 0.0900691l2.82473 1.17065l1.16733 2.78478c0.0114579 -1.33376 0.0329922 -2.6821 0.0329922 -4.0455z" />
  </g>

</svg>
