<?xml version="1.0" standalone="no"?>
<!DOCTYPE svg PUBLIC "-//W3C//DTD SVG 1.1//EN" "http://www.w3.org/Graphics/SVG/1.1/DTD/svg11.dtd" >
<svg xmlns="http://www.w3.org/2000/svg" xmlns:xlink="http://www.w3.org/1999/xlink" version="1.1" viewBox="-10 0 1036 1000">
  <g transform="matrix(1 0 0 -1 0 800)">
   <path fill="currentColor"
d="M824.672 521.586c0 9.49805 0.359375 25.4824 0.359375 28.9043l-0.318359 61.375l-8.69434 54.7803l-24.0576 41.7598l-29.8359 19.125l-33.9404 8.02539c-15.9834 0.617188 -31.9668 1.23438 -47.9512 1.85156v0.765625l-107.703 8.96094l-161.614 -4.84375
l-135.512 -48.0117l4.97461 -24.8711l90.1514 34.2041l168.52 13.9902l163.858 -8.05859l72.0586 -32.085l24.6855 -76.583c-11.2969 -92.7227 -11.5391 -94.709 -10.623 -98.1963c0.273438 -1.03711 0.40918 -1.98828 0.496094 -2.92188
c0.487305 -0.642578 1.13379 -1.58594 1.48633 -2.05664l30.4463 -40.7334l38.043 -60.0684c7.97656 -11.167 15.9531 -22.335 23.9297 -33.502l-96.7109 -80.25l-3.2002 -219.288c0.962891 -7.5625 2.78516 -22.0107 5.01855 -45.877
c-0.128906 -0.269531 -9.65137 -20.9678 -12.835 -27.0195c-1.80566 -3.43262 -3.36426 -6.39453 -8.94434 -11.126c-28.7266 -6.87207 -37.6748 -9.0127 -53.7949 -9.0127c-3.38379 0 -6.77832 0.143555 -10.1738 0.446289l-127.95 -3.2207l-189.705 31.9736
l-119.91 72.0264c-7.29102 10.5146 -14.582 21.0303 -21.873 31.5449c-0.185547 0.125977 -14.9541 10.3477 -18.583 12.6523v-31.4639c5.41699 -3.87109 13.5068 -7.3623 24.4404 -17.25c7.32617 -6.62598 2.0957 -4.45605 10.624 -11.9268
c1.03027 -0.901367 1.03027 -0.901367 17.2002 -21.8057l70.2646 -41.1396l123.979 -35.7686l40.835 -3.74609c52.8262 -4.90723 59.0674 -6.73242 83.0469 -7.42676l68.0801 -1.97266l89.7607 0.253906l51.1064 12.4912l15.1377 25.208l6.27637 34.1602l-0.268555 82.9482
l0.0292969 84.2285l-0.00585938 87.5186l84.7842 67.8018l7.68555 8.9668l1.11523 7.19531c0.448242 7.6123 -1.52539 12.8018 -3.3125 18.1777l-23.3301 38.8447l-33.0244 43.4482l-34.3184 48.9014c-0.202148 16.1299 -0.202148 16.1299 -0.202148 17.6953zM676 60
c0.357422 0.0146484 22.9482 0.00195312 22.9541 0.0136719c-6.95801 29.1855 -5.00293 38.583 -2.46484 46.7715c0.0234375 0.0742188 1.9873 6.86328 2.25488 7.39844l16.4111 32.8232c-8.39941 130.199 -8.39941 130.199 -8.35254 130.759
c2.75977 32.7568 5.16602 70.9658 2.35254 95.4404c-7.31445 29.0498 -25.4619 22.9199 -29.7012 13.6279c-1.49805 -3.2832 -3.18652 -3.66992 -7.54395 -4.66797c-3.38672 -3.03027 -8.71387 -2.36719 -11.248 1.44824c-3.17578 4.7832 -17.8672 27.5342 -18.2539 28.29
c-5.31348 10.4062 -25.8096 16.8076 -29.7266 -3.79199c-0.141602 -0.744141 -0.141602 -0.744141 -7.1377 -17.7969c-2.60645 -6.35254 -11.7949 -6.08887 -14.0283 0.407227l-13.1602 38.2842c-3.51855 10.2344 -25.4688 18.4072 -37.0654 -0.974609
c-0.213867 -0.637695 -1.7793 -5.38477 -10.2412 -31.9248c-1.83984 -5.76953 -9.5166 -7.08789 -13.165 -2.18555c-10.8252 14.5449 -10.8252 14.5449 -11.0156 14.7363c-0.0712891 0.0722656 -12.3633 12.3428 -19.3271 5.37891
c-3.81348 -3.81348 -5.96973 -13.123 -6.91992 -18.832c0.0273438 -0.855469 0.197266 -5.9082 1.13477 -30.4121c0.558594 -15.2588 1.2373 -47.8682 1.25098 -48.3516c4.46387 -31.8115 2.39941 -32.8047 4.71973 -49.8242
c0.169922 -0.655273 1.45605 -5.61523 8.14062 -30.918c0.0654297 -0.248047 0.675781 -14.4141 -1.26172 -17.708c-4.76465 -8.09961 -5.0957 -8.66211 -8.23926 -9.38184c-12.4404 -2.85059 -16.377 -0.344727 -20.584 5.49219
c-2.16309 3.00195 -16.8799 17.751 -18.3594 19.458l-30.8398 35.585c-0.833984 0.550781 -5.11328 3.35449 -17.9883 11.5107c-0.75293 0.227539 -4.35645 1.30469 -15.2393 4.35156c-3.04199 -1.66992 -6.66895 -0.663086 -9.4209 -3.41406
c-1.99609 -1.99707 -4.29883 -8.68457 -3.56641 -12.4717l17.0137 -22.8818c3.27832 -3.07227 20.6953 -18.2549 21.5488 -19.2861c25.4248 -30.7471 25.4248 -30.7471 25.5479 -30.9131c18.4775 -25.0332 18.4775 -25.0332 18.6162 -25.251
c16.6611 -26.1826 16.6611 -26.1826 16.8965 -26.7285l12.8682 -29.8311c3.55566 -5.51074 17.2988 -26.2471 17.667 -26.9463c5.79004 -11.002 5.79004 -11.002 6.00781 -11.916c4.30859 -18.0547 34.8213 -18.9531 35.2217 -18.9609l33.375 -0.595703zM698.956 45.0098
h-22.4863c-101.159 -4.20215 -101.159 -4.20215 -101.384 -4.19824l-33.6152 0.600586c-5.33789 0.100586 -41.7754 1.80469 -49.2754 29.4863l-4.77539 9.07227c-17.4756 26.5107 -17.1787 25.6328 -18.2354 28.084l-12.7295 29.5078l-15.8848 24.9619l-18.0488 24.4531
l-24.7852 29.9736c-21.293 18.8584 -21.293 18.8584 -22.2285 20.1162l-17.3994 23.3994c-6.20801 8.34766 -1.87402 24.6377 5.21973 31.7314c4.15918 4.16016 8.08203 5.43066 13.8965 6.50098c3.2168 1.4375 6.83691 1.68652 10.1934 0.74707
c15.8311 -4.43262 16.1748 -4.19824 18.957 -5.96094c16.9873 -10.7588 18.2764 -11.165 20.709 -13.5977c0.28418 -0.28418 -0.364258 -0.876953 31.5498 -36.3594c16.6279 -18.4873 17.2764 -17.8936 19.6641 -21.1299
c0.394531 0.0361328 0.936523 0.102539 1.62012 0.213867l0.803711 1.36621l0.358398 8.9668c-7.99902 30.2666 -7.91016 29.4307 -8.18066 31.4062c-2.5 18.1982 -0.301758 18.458 -4.79297 50.3486c-0.0693359 0.491211 -0.967773 39.4336 -1.33594 49.5156
c-1.2002 31.332 -1.4873 30.0967 -1.01953 32.9951c1.46094 9.0498 4.82617 29.9062 22.4473 33.6221c14.6504 3.09082 28.8525 -10.6641 30.8008 -13.2822l2.18164 -2.93164c5.85547 18.5771 5.66699 18.4531 7.04004 20.7871
c18.1348 30.8447 56.6865 20.6885 64.3164 -1.50781l6.43848 -18.7295c8.98145 30.1807 45.1074 25.6865 56.6025 3.92773c0.134766 -0.207031 12.9131 -20.0605 13.3945 -20.8027c12.6084 16.2969 44.5381 19.0449 54.7246 -21.4062
c0.162109 -0.645508 0.28125 -1.29883 0.357422 -1.95703c3.07031 -26.7236 0.506836 -64.9395 -2.26074 -97.873l8.32715 -129.079c0.169922 -2.62305 -0.34668 -5.28223 -1.54785 -7.68457l-16.0479 -32.0957c-0.461914 -1.78906 -1.00195 -3.5752 -1.71289 -5.87109
c-1.99805 -6.44531 -4.10645 -10.1582 2.72949 -38.8232c2.24707 -9.42285 -4.89453 -18.4941 -14.5859 -18.4941zM62.8555 768.097h55.5146l17.1611 52.2256l17.1602 -52.2256h55.5156l-44.8672 -32.2959l17.1611 -52.2246l-44.9697 32.2959l-44.9707 -32.2959
l17.1611 52.2246zM257.586 584.807l66.9424 -66.5625l70.0771 67.0303c0.96582 0.922852 2.20996 1.38477 3.45508 1.38477c1.16602 0 2.33203 -0.404297 3.26758 -1.21387c2.72852 -2.36035 5.69531 -4.59961 8.24609 -7.14941
c0.975586 -0.975586 1.46289 -2.25488 1.46289 -3.53516c0 -1.27246 -0.481445 -2.54395 -1.44531 -3.51758l-69.127 -69.8135l75.5352 -69.4297c0.982422 -0.983398 1.44043 -2.24902 1.44043 -3.50195c0 -1.46875 -0.628906 -2.92188 -1.7832 -3.88281l-10.3115 -8.58887
c-0.922852 -0.768555 -2.05957 -1.15332 -3.19629 -1.15332c-1.21484 0 -2.42969 0.439453 -3.38379 1.31836l-75.7305 69.7119s-68.3184 -69.5352 -68.3496 -69.5664c-0.980469 -0.980469 -2.25488 -1.45312 -3.52148 -1.45312
c-1.37207 0 -2.73438 0.553711 -3.70605 1.61621l-7.48926 8.18848c-0.87207 0.953125 -1.30762 2.16211 -1.30762 3.37207c0 1.2666 0.477539 2.5332 1.43359 3.50488l67.3926 68.5342l-66.2324 68.8975c-0.930664 0.967773 -1.3877 2.21484 -1.3877 3.45703
c0 1.3252 0.519531 2.64648 1.53906 3.62109l9.2002 8.7998c0.964844 0.922852 2.20898 1.38477 3.4541 1.38477c1.27539 0 2.55078 -0.484375 3.52539 -1.45312z" />
  </g>

</svg>
