<?xml version="1.0" standalone="no"?>
<!DOCTYPE svg PUBLIC "-//W3C//DTD SVG 1.1//EN" "http://www.w3.org/Graphics/SVG/1.1/DTD/svg11.dtd" >
<svg xmlns="http://www.w3.org/2000/svg" xmlns:xlink="http://www.w3.org/1999/xlink" version="1.1" viewBox="-10 0 1010 1000">
  <g transform="matrix(1 0 0 -1 0 800)">
   <path fill="currentColor"
d="M111.762 445.081c41.4277 30.3076 74.4795 63.585 109.907 99.5967c69.165 70.3047 131.855 134.027 245.966 134.512c113.692 0.489258 176.258 -63.2783 245.443 -133.795c31.1719 -31.7705 63.1055 -64.2695 101.87 -93.8379l9.40723 66.3262l35.3076 -2.94238
l-9.01074 -126.144l-101.881 -37.9102l8.22852 52.1133l44.7295 12.3594c-45.7461 28.7354 -80.1436 63.6768 -120.839 106.51c-60.3652 63.5361 -113.346 119.101 -211.155 119.522c-100.692 0.426758 -156.068 -55.3398 -219.304 -119.205
c-38.1562 -38.5371 -78.6162 -79.3994 -132.93 -111.083c-3.2334 -1.88574 -14.9844 -3.97949 -13.8721 14.8711c0.258789 4.38477 1.57812 14.3398 8.13184 19.1064zM82.1006 270.796l54.1348 0.888672l757.665 1.82129v-50.0254l-282.601 -2.14941v-244.218
l-468.898 252.282l-17.1006 10.8008c-4.71289 0 -38.4873 30.5996 -43.2002 30.5996z" />
  </g>

</svg>
