<?xml version="1.0" standalone="no"?>
<!DOCTYPE svg PUBLIC "-//W3C//DTD SVG 1.1//EN" "http://www.w3.org/Graphics/SVG/1.1/DTD/svg11.dtd" >
<svg xmlns="http://www.w3.org/2000/svg" xmlns:xlink="http://www.w3.org/1999/xlink" version="1.1" viewBox="-10 0 1051 1000">
  <g transform="matrix(1 0 0 -1 0 800)">
   <path fill="currentColor"
d="M48.3545 723.521h55.5146l17.1611 52.2256l17.1602 -52.2256h55.5156l-44.8672 -32.2959l17.1611 -52.2246l-44.9697 32.2959l-44.9707 -32.2959l17.1611 52.2246zM271 608l-12 60c128.725 89.7881 355.203 55.3633 442.457 48.5605
c0 -0.0107422 0.000976562 -0.0214844 0.000976562 -0.0322266c27.4463 0.582031 75.1855 -1.32129 107.268 -33.4033c40.1396 -40.1396 38.6152 -108.841 37.5254 -169.365c-0.395508 -21.9258 -0.433594 -33.2402 -0.22168 -41.9463
c26.3789 -43.8281 72.168 -89.959 89.3252 -129.607c6.95117 -16.0635 5.49219 -24.7637 2.64551 -40.2051l-12 -14l-79.501 -63.5771v-212.431c1.93945 -31.0869 1.82422 -79.2412 -27.416 -108.48c-26.0322 -26.0322 -182.507 -12.0195 -220.584 -13.0049
l-2.90137 0.0126953c-103.732 -7.2998 -296.108 50.6025 -326.603 92.1719c-18.5059 25.2275 -31.4014 41.2529 -57.9951 55.3086v70.0371c25.8174 -16.2627 49.624 -17.8066 70.1904 -60.6357c44.2188 -92.082 349.455 -105.734 451.309 -108.438l-0.499023 -0.962891
c50 12 34.1514 4.48145 42.5352 13.5361c19.1768 20.7119 3.97852 41.9688 5.50781 57.9648h-0.541992v2.14941c-0.253906 0.990234 -0.500977 1.94141 -0.738281 2.84863h0.738281v207.174v3.4873v1.33887h1.58203l104 88h1.13281
c4.9834 45.8955 -62.8379 92.1289 -94.2158 139.501l-3 4l-1 1c-2.02051 3.99219 0.0439453 4.02539 -2.08398 11.5605c-0.0371094 0.130859 -0.189453 0.24707 -0.174805 0.367188l0.258789 2.07227l0.0644531 1.49902
c0.00976562 0.226562 0.150391 3.89551 0.242188 6.24414c3.11426 79.1523 5.19727 173.389 -83.8154 173.771c-136.35 16.7461 -373.536 9.53418 -431.49 -46.5137zM462 348l-82.334 149.05l9.50293 4.01465l73.6572 -126.521l67.1221 127.71l12.8457 -5.20312z
M458.437 315.065c52.7168 -0.0732422 95.5625 -42.917 95.6348 -95.6338c0 -52.79 -42.8457 -95.6348 -95.6348 -95.6348s-95.6348 42.8447 -95.6348 95.6348c0 52.7891 42.8457 95.6338 95.6348 95.6338zM547.34 222.665v0.0664062
c-0.645508 18.2051 -11.2305 43.8115 -23.6289 57.1562l-51.415 -51.415c0.988281 -1.46973 2.08398 -4.07129 2.44336 -5.80762h72.6006zM467.544 233.159l51.4141 51.2812c-13.3438 12.4551 -38.9805 23.0996 -57.2207 23.7607v-72.5996
c1.73438 -0.359375 4.33594 -1.45312 5.80664 -2.44238zM455.136 235.602v72.7314c-18.2402 -0.661133 -43.877 -11.3057 -57.2207 -23.7598l51.4141 -51.4141c1.4707 0.989258 4.07227 2.08301 5.80664 2.44238zM449.329 205.703l-51.4141 -51.3477
c13.3516 -12.4326 38.9883 -23.0479 57.2207 -23.6943v72.6006c-1.73438 0.359375 -5.80664 2.44141 -5.80664 2.44141zM461.737 203.262v-72.7324c18.2402 0.662109 43.877 11.3066 57.2207 23.7598l-51.4141 51.4141
c-1.4707 -0.988281 -4.07227 -2.08203 -5.80664 -2.44141zM393.294 279.953c-12.4111 -13.3594 -22.9971 -38.9961 -23.627 -57.2217h72.5996c0.359375 1.73535 1.45312 4.33691 2.44141 5.80762zM369.534 216.131c0.662109 -18.2402 11.3066 -43.877 23.7598 -57.2207
l51.2832 51.4131c-0.988281 1.47168 -2.08398 4.07324 -2.44336 5.80762h-72.5996zM523.579 158.91c12.4111 13.3594 22.9971 38.9961 23.627 57.2207h-72.5996c-0.359375 -1.73438 -1.45312 -4.33594 -2.44141 -5.80762z" />
  </g>

</svg>
