<?xml version="1.0" standalone="no"?>
<!DOCTYPE svg PUBLIC "-//W3C//DTD SVG 1.1//EN" "http://www.w3.org/Graphics/SVG/1.1/DTD/svg11.dtd" >
<svg xmlns="http://www.w3.org/2000/svg" xmlns:xlink="http://www.w3.org/1999/xlink" version="1.1" viewBox="-10 0 1010 1000">
  <g transform="matrix(1 0 0 -1 0 800)">
   <path fill="currentColor"
d="M427.721 566.957l70.6074 82.5898l70.0703 -78.5059l-12.3887 -11.8496l-49.2285 57.8008l2.91211 -209.871l-20.7852 0.945312l1.74219 208.76l-50.3223 -60.8301zM573.488 360.85c0.357422 0.0136719 22.9473 0.00195312 22.9531 0.0136719
c-6.95703 29.1855 -5.00195 38.582 -2.46484 46.7715c0.0234375 0.0742188 1.98828 6.86328 2.25586 7.39844l16.4102 32.8223c-8.39844 130.199 -8.39844 130.199 -8.35156 130.76c2.75977 32.7559 5.16602 70.9648 2.35156 95.4395
c-7.31445 29.0508 -25.4609 22.9199 -29.7012 13.6289c-1.49805 -3.2832 -3.18555 -3.66992 -7.54297 -4.66797c-3.38672 -3.03125 -8.71484 -2.36719 -11.248 1.44727c-3.17578 4.7832 -17.8672 27.5352 -18.2539 28.291
c-5.31445 10.4062 -25.8105 16.8066 -29.7266 -3.79297c-0.142578 -0.744141 -0.142578 -0.744141 -7.13867 -17.7969c-2.60547 -6.35156 -11.7949 -6.08789 -14.0273 0.408203l-13.1602 38.2832c-3.51953 10.2344 -25.4688 18.4082 -37.0664 -0.974609
c-0.212891 -0.636719 -1.7793 -5.38477 -10.2402 -31.9238c-1.83984 -5.76953 -9.51758 -7.08789 -13.166 -2.18555c-10.8242 14.5449 -10.8242 14.5449 -11.0156 14.7363c-0.0703125 0.0722656 -12.3633 12.3418 -19.3262 5.37891
c-3.81445 -3.81445 -5.9707 -13.123 -6.91992 -18.832c0.0273438 -0.855469 0.197266 -5.9082 1.13477 -30.4121c0.558594 -15.2598 1.23633 -47.8691 1.25 -48.3516c4.46484 -31.8125 2.40039 -32.8047 4.7207 -49.8242
c0.169922 -0.65625 1.45508 -5.61523 8.14062 -30.918c0.0644531 -0.248047 0.675781 -14.4141 -1.26172 -17.709c-4.76562 -8.09961 -5.0957 -8.66211 -8.24023 -9.38086c-12.4395 -2.85156 -16.377 -0.345703 -20.584 5.49219
c-2.16211 3.00195 -16.8789 17.75 -18.3594 19.457l-30.8398 35.5859c-0.833984 0.550781 -5.11328 3.35352 -17.9883 11.5098c-0.751953 0.228516 -4.35547 1.30469 -15.2383 4.35156c-3.04297 -1.66992 -6.66992 -0.662109 -9.42188 -3.41406
c-1.99609 -1.99609 -4.29883 -8.68359 -3.56641 -12.4707l17.0137 -22.8828c3.2793 -3.07227 20.6953 -18.2539 21.5488 -19.2852c25.4258 -30.748 25.4258 -30.748 25.5488 -30.9141c18.4766 -25.0332 18.4766 -25.0332 18.6152 -25.25
c16.6621 -26.1836 16.6621 -26.1836 16.8965 -26.7285l12.8691 -29.832c3.55469 -5.50977 17.2988 -26.2461 17.666 -26.9453c5.79102 -11.002 5.79102 -11.002 6.00781 -11.916c4.30859 -18.0547 34.8223 -18.9531 35.2227 -18.9609l33.375 -0.595703zM596.443 345.859
h-22.4863c-101.158 -4.20312 -101.158 -4.20312 -101.383 -4.19922l-33.6152 0.601562c-5.33789 0.0996094 -41.7754 1.80469 -49.2754 29.4863l-4.77539 9.07227c-17.4766 26.5098 -17.1797 25.6328 -18.2363 28.084l-12.7285 29.5078l-15.8848 24.9609l-18.0488 24.4531
l-24.7852 29.9746c-21.293 18.8574 -21.293 18.8574 -22.2285 20.1152l-17.4004 23.4004c-6.20703 8.34766 -1.87305 24.6367 5.2207 31.7305c4.1582 4.16016 8.08203 5.43164 13.8965 6.50195c3.2168 1.4375 6.83594 1.68555 10.1934 0.746094
c15.8301 -4.43164 16.1738 -4.19727 18.957 -5.96094c16.9863 -10.7578 18.2754 -11.1641 20.709 -13.5977c0.283203 -0.283203 -0.365234 -0.876953 31.5488 -36.3594c16.6289 -18.4863 17.2773 -17.8926 19.6641 -21.1289
c0.394531 0.0351562 0.9375 0.101562 1.62109 0.212891l0.802734 1.36719l0.359375 8.9668c-8 30.2656 -7.91016 29.4297 -8.18164 31.4062c-2.5 18.1973 -0.300781 18.457 -4.79297 50.3477c-0.0683594 0.492188 -0.966797 39.4336 -1.33594 49.5156
c-1.19922 31.332 -1.48633 30.0977 -1.01953 32.9961c1.46094 9.04883 4.82617 29.9062 22.4473 33.6211c14.6504 3.0918 28.8535 -10.6641 30.8008 -13.2812l2.18164 -2.93164c5.85547 18.5762 5.66797 18.4531 7.04102 20.7871
c18.1348 30.8438 56.6855 20.6875 64.3164 -1.50781l6.4375 -18.7305c8.98242 30.1816 45.1074 25.6875 56.6035 3.92773c0.134766 -0.207031 12.9121 -20.0605 13.3945 -20.8027c12.6074 16.2969 44.5371 19.0449 54.7246 -21.4062
c0.162109 -0.644531 0.28125 -1.29883 0.357422 -1.95703c3.07031 -26.7227 0.505859 -64.9395 -2.26172 -97.873l8.32812 -129.078c0.169922 -2.62305 -0.347656 -5.2832 -1.54883 -7.68555l-16.0469 -32.0957c-0.462891 -1.78906 -1.00195 -3.57422 -1.71289 -5.87109
c-1.99805 -6.44531 -4.10742 -10.1582 2.72852 -38.8223c2.24805 -9.42383 -4.89453 -18.4941 -14.5859 -18.4941zM134.221 -61.2959zM340.548 -55.9424v263.013l80.8701 -0.34668l63.0251 -53.1485c1.23064 24.1913 1.23064 24.1913 2.20835 54.5l190.772 -2.45117
v-66.4404l-54.499 -59.7695l32.7266 -4.33887l26 4l-4.22754 -136.465zM695.938 -84.5088c4.71561 0 8.54759 3.82766 8.57399 8.39457l-1.86111 158.189c12.9088 -1.84411 12.9088 -1.84411 53.0537 -4.0831l-51.1944 59.6085v86.5381
c0 4.71977 -3.8161 8.4982 -8.24219 8.54782l-211.617 -4.6113c-2.01115 37.2063 -2.01115 37.2063 -4.71543 58.173l-57.9857 -52.4621l-3.87834 0.0156927s-96.0008 0.388525 -96.0416 0.388607c-4.71785 0 -8.57227 -3.83432 -8.57227 -8.54297v-300.105
c0 -4.69954 3.84858 -8.54199 8.54199 -8.54199c0 0 373.898 -1.50871 373.938 -1.50879zM29.3242 18.2246h55.5146l17.1611 52.2256l17.1602 -52.2256h55.5156l-44.8672 -32.2959l17.1611 -52.2246l-44.9697 32.2959l-44.9707 -32.2959l17.1611 52.2246z" />
  </g>

</svg>
