<?xml version="1.0" standalone="no"?>
<!DOCTYPE svg PUBLIC "-//W3C//DTD SVG 1.1//EN" "http://www.w3.org/Graphics/SVG/1.1/DTD/svg11.dtd" >
<svg xmlns="http://www.w3.org/2000/svg" xmlns:xlink="http://www.w3.org/1999/xlink" version="1.1" viewBox="-24 0 1046 1000">
  <g transform="matrix(1 0 0 -1 0 800)">
   <path fill="currentColor"
d="M-13.416 -112.528h55.5146l17.1611 52.2256l17.1602 -52.2256h55.5156l-44.8672 -32.2959l17.1611 -52.2246l-44.9697 32.2959l-44.9707 -32.2959l17.1611 52.2246zM401.712 240.084c-4.78443 0 -8.57239 -3.90243 -8.57239 -8.54301v-300.105
c0 -4.76659 3.91845 -8.542 8.542 -8.542l373.938 -1.50883c4.70918 0 8.57274 3.82634 8.57252 8.54254l-0.804772 155.248l12.9448 0.794521l39.0831 -2.11748l-51.2232 59.643v86.5374c0 4.7315 -3.86913 8.54204 -8.50954 8.54201l-212.295 -0.398759l-1.04805 32.5657
c-0.752936 6.10711 -1.28959 10.2651 -2.72635 21.3972l-57.982 -52.4587l-1.93917 0.00784698s-97.9601 0.396443 -97.9805 0.396484zM420.229 -50.0489v263.013l80.8699 -0.346692l63.0281 -53.1514c-0.632969 23.9201 -0.811271 31.8191 -0.811271 39.3847
c0 2.90082 0.00435341 3.5988 0.122172 15.3244l193.667 -2.65698v-66.4407l-54.499 -59.7692c38.1589 1.01122 38.1589 1.01122 54.7812 1.91396l-0.282708 -138.718zM135 751.11l122.678 -222.083l120.412 222.138l-24.1064 9.7627l-95.2793 -181.28l-104.533 179.562z
M607.512 533.657l81.0645 -55.7783c5.00781 -3.44629 5.01953 -10.9082 0.460938 -14.4912l-86.3135 -67.8369c-4.06738 -3.19629 -10.1846 -2.21777 -13.0537 2.08691c-0.645508 0.97168 -1.11133 2.12695 -1.33105 3.20996l-2.33203 11.5576
c-0.674805 3.35156 0.74707 6.87695 3.25781 8.85352l46.3193 36.4395l-185.887 -1.76074c-5.23828 -0.0498047 -9.33105 4.58203 -9.07227 9.47461l0.583984 11.0547c0.257812 4.90723 4.62988 8.5459 9.0293 8.52539l183.127 -0.867188l-43.0625 29.6807
c-4.25977 2.9375 -5.13965 9.06738 -1.87891 13.084c0.498047 0.612305 1.65234 1.57617 1.7373 1.6377l6.99902 5.02637c3.23438 2.32129 7.74023 1.89941 10.3516 0.103516z" />
  </g>

</svg>
