<?xml version="1.0" standalone="no"?>
<!DOCTYPE svg PUBLIC "-//W3C//DTD SVG 1.1//EN" "http://www.w3.org/Graphics/SVG/1.1/DTD/svg11.dtd" >
<svg xmlns="http://www.w3.org/2000/svg" xmlns:xlink="http://www.w3.org/1999/xlink" version="1.1" viewBox="-10 0 997 1000">
  <g transform="matrix(1 0 0 -1 0 800)">
   <path fill="currentColor"
d="M576.264 110.049c0.357422 0.0146484 22.9482 0.00195312 22.9541 0.0136719c-6.95801 29.1855 -5.00293 38.583 -2.46484 46.7715c0.0234375 0.0742188 1.9873 6.86328 2.25488 7.39844l16.4111 32.8232c-8.39941 130.199 -8.39941 130.199 -8.35254 130.759
c2.75977 32.7568 5.16602 70.9658 2.35254 95.4404c-7.31445 29.0498 -25.4619 22.9199 -29.7012 13.6279c-1.49805 -3.2832 -3.18652 -3.66992 -7.54395 -4.66797c-3.38672 -3.03027 -8.71387 -2.36719 -11.248 1.44824c-3.17578 4.7832 -17.8672 27.5342 -18.2539 28.29
c-5.31348 10.4062 -25.8096 16.8076 -29.7266 -3.79199c-0.141602 -0.744141 -0.141602 -0.744141 -7.1377 -17.7969c-2.60645 -6.35254 -11.7949 -6.08887 -14.0283 0.407227l-13.1602 38.2842c-3.51855 10.2344 -25.4688 18.4072 -37.0654 -0.974609
c-0.213867 -0.637695 -1.7793 -5.38477 -10.2412 -31.9248c-1.83984 -5.76953 -9.5166 -7.08789 -13.165 -2.18555c-10.8252 14.5449 -10.8252 14.5449 -11.0156 14.7363c-0.0712891 0.0722656 -12.3633 12.3428 -19.3271 5.37891
c-3.81348 -3.81348 -5.96973 -13.123 -6.91992 -18.832c0.0273438 -0.855469 0.197266 -5.9082 1.13477 -30.4121c0.558594 -15.2588 1.2373 -47.8682 1.25098 -48.3516c4.46387 -31.8115 2.39941 -32.8047 4.71973 -49.8242
c0.169922 -0.655273 1.45605 -5.61523 8.14062 -30.918c0.0654297 -0.248047 0.675781 -14.4141 -1.26172 -17.708c-4.76465 -8.09961 -5.0957 -8.66211 -8.23926 -9.38184c-12.4404 -2.85059 -16.377 -0.344727 -20.584 5.49219
c-2.16309 3.00195 -16.8799 17.751 -18.3594 19.458l-30.8398 35.585c-0.833984 0.550781 -5.11328 3.35449 -17.9883 11.5107c-0.75293 0.227539 -4.35645 1.30469 -15.2393 4.35156c-3.04199 -1.66992 -6.66895 -0.663086 -9.4209 -3.41406
c-1.99609 -1.99707 -4.29883 -8.68457 -3.56641 -12.4717l17.0137 -22.8818c3.27832 -3.07227 20.6953 -18.2549 21.5488 -19.2861c25.4248 -30.7471 25.4248 -30.7471 25.5479 -30.9131c18.4775 -25.0332 18.4775 -25.0332 18.6162 -25.251
c16.6611 -26.1826 16.6611 -26.1826 16.8965 -26.7285l12.8682 -29.8311c3.55566 -5.51074 17.2988 -26.2471 17.667 -26.9463c5.79004 -11.002 5.79004 -11.002 6.00781 -11.916c4.30859 -18.0547 34.8213 -18.9531 35.2217 -18.9609l33.375 -0.595703zM599.22 95.0586
h-22.4863c-101.159 -4.20215 -101.159 -4.20215 -101.384 -4.19824l-33.6152 0.600586c-5.33789 0.100586 -41.7754 1.80469 -49.2754 29.4863l-4.77539 9.07227c-17.4756 26.5107 -17.1787 25.6328 -18.2354 28.084l-12.7295 29.5078l-15.8848 24.9619l-18.0488 24.4531
l-24.7852 29.9736c-21.293 18.8584 -21.293 18.8584 -22.2285 20.1162l-17.3994 23.3994c-6.20801 8.34766 -1.87402 24.6377 5.21973 31.7314c4.15918 4.16016 8.08203 5.43066 13.8965 6.50098c3.2168 1.4375 6.83691 1.68652 10.1934 0.74707
c15.8311 -4.43262 16.1748 -4.19824 18.957 -5.96094c16.9873 -10.7588 18.2764 -11.165 20.709 -13.5977c0.28418 -0.28418 -0.364258 -0.876953 31.5498 -36.3594c16.6279 -18.4873 17.2764 -17.8936 19.6641 -21.1299
c0.394531 0.0361328 0.936523 0.102539 1.62012 0.213867l0.803711 1.36621l0.358398 8.9668c-7.99902 30.2666 -7.91016 29.4307 -8.18066 31.4062c-2.5 18.1982 -0.301758 18.458 -4.79297 50.3486c-0.0693359 0.491211 -0.967773 39.4336 -1.33594 49.5156
c-1.2002 31.332 -1.4873 30.0967 -1.01953 32.9951c1.46094 9.0498 4.82617 29.9062 22.4473 33.6221c14.6504 3.09082 28.8525 -10.6641 30.8008 -13.2822l2.18164 -2.93164c5.85547 18.5771 5.66699 18.4531 7.04004 20.7871
c18.1348 30.8447 56.6865 20.6885 64.3164 -1.50781l6.43848 -18.7295c8.98145 30.1807 45.1074 25.6865 56.6025 3.92773c0.134766 -0.207031 12.9131 -20.0605 13.3945 -20.8027c12.6084 16.2969 44.5381 19.0449 54.7246 -21.4062
c0.162109 -0.645508 0.28125 -1.29883 0.357422 -1.95703c3.07031 -26.7236 0.506836 -64.9395 -2.26074 -97.873l8.32715 -129.079c0.169922 -2.62305 -0.34668 -5.28223 -1.54785 -7.68457l-16.0479 -32.0957c-0.461914 -1.78906 -1.00195 -3.5752 -1.71289 -5.87109
c-1.99805 -6.44531 -4.10645 -10.1582 2.72949 -38.8232c2.24707 -9.42285 -4.89453 -18.4941 -14.5859 -18.4941zM544.799 271.424c0 0.824219 -0.828125 3.08203 -1.53906 4.00586c-0.983398 0.729492 -3.34766 1.57227 -4.25 1.57227
c-3.26367 0 -5.59863 -2.26465 -7.71289 -4.37988c-0.912109 -0.911133 -2.10938 -1.36816 -3.30664 -1.36816c-1.92969 0 -2.99414 1.05664 -3.86133 1.92285c-0.179688 0.180664 -3.25586 2.87988 -5.06445 3.47656
c-0.825195 0.272461 -1.36523 0.345703 -2.03125 0.345703c-0.860352 0 -3.12891 -0.780273 -4.20117 -1.54102c-0.457031 -0.72168 -0.472656 -0.773438 -1.5625 -4.52051c0.0898438 -1.39453 0.749023 -4.24121 3.8916 -7.27246l12.8389 -12.3848l12.749 12.2705
c1.37891 1.38086 4.0498 4.0957 4.0498 7.87305zM511.499 298.061c0.166016 -2.9375 0.0654297 -6.81543 -0.191406 -11.2393c4.17969 1.47852 10.0566 1.85059 16.6152 -2.74414c4.4668 3.17383 7.62598 3.72852 11.0479 3.7959
c4.70215 0 9.76465 -2.49609 11.916 -4.73535c4.61914 -4.80566 8.76562 -16.2979 -2.60645 -27.4023c-13.4434 -13.1279 -15.0469 -14.5986 -15.5039 -14.999c-2.70703 -2.60059 -6.93945 -2.6084 -9.67285 0.0390625l-14.5215 14.0635
c-0.49707 -5.75684 -0.889648 -11.1035 -1.00488 -15.4131c-0.046875 -1.74512 -0.176758 -9.57617 1.24023 -10.334c0.162109 -0.0566406 0.291016 -0.146484 0.261719 -0.394531c4.60449 -49.499 51.3408 -95.8584 53.9404 -96.8115
c0.0849609 -0.03125 -0.161133 0.00683594 -0.161133 0.00683594l-0.244141 -0.125977l-0.132812 -0.298828l0.777344 -0.433594l-8.75586 -5.83691c-0.974609 1.06152 -1.44336 1.57324 -3.67871 3.99316c-17.7578 19.2246 -37.1055 40.1953 -52.1553 91.251
c-4.15918 -24.1543 -19.0605 -50.6387 -32.4941 -67.7002c-8.66504 -11.0039 -11.6006 -18.7578 -19.5361 -27.5742l-10.3545 8.19824c6.10645 7.91602 10.0225 13.2832 15.4346 20.752c3.0498 4.20996 5.86133 8.09082 8.86426 12.0361
c36.7559 48.2803 37.8555 111.905 37.5811 144.236l10.6895 -0.236328c0.949219 -0.0195312 2.5625 -0.478516 2.50391 -3.37207c-0.0166016 -0.837891 -0.0908203 -4.58203 0.141602 -8.7207v0zM463.777 424.388c19.3037 0 36.6309 -7.24121 48.1025 -18.7129
c8.78516 -8.78516 14.1367 -20.0859 14.1367 -32.4463c0 -12.3701 -5.35938 -23.6855 -14.1562 -32.4824c-11.4707 -11.4707 -28.7891 -18.7178 -48.083 -18.7178c-19.3037 0 -36.6309 7.24121 -48.1025 18.7129c-8.78516 8.78516 -14.1367 20.0869 -14.1367 32.4473
c0 12.3691 5.35938 23.6846 14.1553 32.4814c11.4717 11.4707 28.79 18.7178 48.084 18.7178zM463.777 330.027c17.2217 0 32.5576 6.44434 42.457 16.3438c7.41895 7.41992 11.7832 16.7422 11.7832 26.8174c0 10.082 -4.37109 19.4199 -11.8018 26.8506
c-9.90039 9.90039 -25.2285 16.3496 -42.4385 16.3496c-17.2217 0 -32.5576 -6.44531 -42.458 -16.3438c-7.41895 -7.41992 -11.7832 -16.7422 -11.7832 -26.8164c0 -10.083 4.37207 -19.4209 11.8027 -26.8516c9.90039 -9.90039 25.2285 -16.3496 42.4385 -16.3496z
M437.272 371.293c1.22852 -4.72852 3.49316 -8.51172 6.41406 -11.4326c10.416 -10.416 29.6104 -9.99316 40.1875 0.583984c2.91992 2.91992 5.19141 6.60938 6.45898 11.0898c0.741211 2.62207 4.52344 0.802734 6.46582 0.258789
c0.975586 -0.272461 1.68652 -1.37988 1.38477 -2.46289c-1.60938 -5.78516 -4.56543 -10.6191 -8.38184 -14.4355c-13.6855 -13.6855 -38.3291 -14.3633 -51.9961 -0.696289c-3.91211 3.91113 -6.8877 8.98926 -8.41016 15.1904
c-0.662109 2.69727 3.45898 2.88086 5.49121 3.34766c1.07031 0.24707 2.13379 -0.474609 2.38574 -1.44336zM493.577 368.541c-1.52539 -4.30664 -3.91113 -7.96289 -6.87402 -10.9258c0.0908203 0.0888672 0.180664 0.0185547 0.270508 0.108398
c2.91992 2.91895 5.26367 6.50684 6.75879 10.7744zM452.087 350.073c-8.55469 2.97168 -15.2217 9.39258 -18.1387 18.3428l-0.12207 -0.0273438c2.86621 -9.11328 9.53711 -15.4102 18.2607 -18.3154zM481.153 390.188c-4.02148 0 -6.89551 3.53125 -6.89551 7.47168
s2.87305 7.47168 6.89551 7.47168c4.02148 0 6.89551 -3.53223 6.89551 -7.47168c0 -3.94043 -2.87305 -7.47168 -6.89551 -7.47168zM481.153 401.133c-3.78223 0 -3.79492 -6.94531 0 -6.94531c3.78223 0 3.79492 6.94531 0 6.94531zM446.305 390.765
c-3.92676 0 -6.89551 3.29785 -6.89551 7.18359c0 3.88574 2.96875 7.18359 6.89551 7.18359c3.92773 0 6.89551 -3.29785 6.89551 -7.18359c0 -3.88574 -2.96777 -7.18359 -6.89551 -7.18359zM446.305 401.133c-3.76367 0 -3.77832 -6.36914 0 -6.36914
c3.76465 0 3.7793 6.36914 0 6.36914zM466.253 326.07c-0.821289 -0.0283203 -1.64648 -0.0419922 -2.47559 -0.0419922c0.829102 0 1.6543 0.0136719 2.47559 0.0419922zM522.016 372.831c0.000976562 0.131836 0.00195312 0.264648 0.00195312 0.397461
c0 7.34766 -2.08887 14.3262 -5.84082 20.5625c3.72852 -6.20898 5.83984 -13.1992 5.83984 -20.6025c0 -0.119141 -0.000976562 -0.238281 -0.000976562 -0.357422zM469.396 420.17c-1.84961 0.144531 -3.72266 0.21875 -5.61816 0.21875
c1.89453 0 3.76855 -0.0742188 5.61816 -0.21875zM459.476 420.261c1.41992 0.0839844 2.85547 0.126953 4.30176 0.12793c-1.44727 0 -2.88184 -0.0439453 -4.30176 -0.12793zM405.539 373.585c-0.000976562 -0.131836 -0.00195312 -0.264648 -0.00195312 -0.396484
c0 -7.28906 2.05469 -14.2148 5.75 -20.4131c-3.67188 6.17188 -5.75 13.1084 -5.75 20.4531c0 0.119141 0.00195312 0.237305 0.00195312 0.356445zM460.569 326.099c1.0625 -0.046875 2.13184 -0.0712891 3.20801 -0.0703125
c-1.07617 0 -2.14551 0.0234375 -3.20801 0.0703125zM33.2949 712.521h55.5146l17.1611 52.2256l17.1602 -52.2256h55.5156l-44.8672 -32.2959l17.1611 -52.2246l-44.9697 32.2959l-44.9707 -32.2959l17.1611 52.2246zM273 608l-12 60
c128.725 89.7881 355.203 55.3633 442.457 48.5605c0 -0.0107422 0.000976562 -0.0214844 0.000976562 -0.0322266c27.4463 0.582031 75.1855 -1.32129 107.268 -33.4033c40.1396 -40.1396 38.6152 -108.841 37.5254 -169.365
c-0.395508 -21.9258 -0.433594 -33.2402 -0.22168 -41.9463c26.3789 -43.8281 72.168 -89.959 89.3252 -129.607c6.95117 -16.0635 5.49219 -24.7637 2.64551 -40.2051l-12 -14l-79.501 -63.5771v-212.431c1.93945 -31.0869 1.82422 -79.2412 -27.416 -108.48
c-26.0322 -26.0322 -182.507 -12.0195 -220.584 -13.0049l-2.90137 0.0126953c-103.732 -7.2998 -278.104 -22.0898 -308.598 19.4795c-18.5059 25.2275 -58.4014 62.2529 -84.9951 76.3086v70.0371c25.8174 -16.2627 76.624 -38.8066 97.1904 -81.6357
c44.2188 -92.082 331.45 -33.042 433.304 -35.7461l-0.499023 -0.962891c50 12 34.1514 4.48145 42.5352 13.5361c19.1768 20.7119 3.97852 41.9688 5.50781 57.9648h-0.541992v2.14941c-0.253906 0.990234 -0.500977 1.94141 -0.738281 2.84863h0.738281v207.174v3.4873
v1.33887h1.58203l104 88h1.13281c4.9834 45.8955 -62.8379 92.1289 -94.2158 139.501l-3 4l-1 1c-2.02051 3.99219 0.0439453 4.02539 -2.08398 11.5605c-0.0371094 0.130859 -0.189453 0.24707 -0.174805 0.367188l0.258789 2.07227l0.0644531 1.49902
c0.00976562 0.226562 0.150391 3.89551 0.242188 6.24414c3.11426 79.1523 5.19727 173.389 -83.8154 173.771c-136.35 16.7461 -373.536 9.53418 -431.49 -46.5137zM178 369l-72.9785 132.112c-1.3418 2.42773 -0.0146484 5.3916 2.18555 6.32031l8.42383 3.55762
c2.11328 0.893555 4.59082 -0.0712891 5.64453 -1.88086l61.1943 -105.116l55.7119 106c0.989258 1.88184 3.49512 2.95898 5.67676 2.07617l11.3887 -4.61133c2.22363 -0.899414 3.59277 -3.86328 2.26367 -6.31445l-71.6143 -132.113
c-1.55469 -2.86719 -6.1875 -3.125 -7.89648 -0.0302734z" />
  </g>

</svg>
