<?xml version="1.0" standalone="no"?>
<!DOCTYPE svg PUBLIC "-//W3C//DTD SVG 1.1//EN" "http://www.w3.org/Graphics/SVG/1.1/DTD/svg11.dtd" >
<svg xmlns="http://www.w3.org/2000/svg" xmlns:xlink="http://www.w3.org/1999/xlink" version="1.1" viewBox="-10 0 1020 1000">
  <g transform="matrix(1 0 0 -1 0 800)">
   <path fill="currentColor"
d="M30.3242 741.553h55.5146l17.1611 52.2256l17.1602 -52.2256h55.5156l-44.8672 -32.2959l17.1611 -52.2246l-44.9697 32.2959l-44.9707 -32.2959l17.1611 52.2246zM271 608l-12 60c128.725 89.7881 355.203 55.3633 442.457 48.5605
c0 -0.0107422 0.000976562 -0.0214844 0.000976562 -0.0322266c27.4463 0.582031 75.1855 -1.32129 107.268 -33.4033c40.1396 -40.1396 38.6152 -108.841 37.5254 -169.365c-0.395508 -21.9258 -0.433594 -33.2402 -0.22168 -41.9463
c26.3789 -43.8281 72.168 -89.959 89.3252 -129.607c6.95117 -16.0635 5.49219 -24.7637 2.64551 -40.2051l-12 -14l-79.501 -63.5771v-212.431c1.93945 -31.0869 1.82422 -79.2412 -27.416 -108.48c-26.0322 -26.0322 -182.507 -12.0195 -220.584 -13.0049
l-2.90137 0.0126953c-103.732 -7.2998 -296.108 50.6025 -326.603 92.1719c-18.5059 25.2275 -31.4014 41.2529 -57.9951 55.3086v70.0371c25.8174 -16.2627 49.624 -17.8066 70.1904 -60.6357c44.2188 -92.082 349.455 -105.734 451.309 -108.438l-0.499023 -0.962891
c50 12 34.1514 4.48145 42.5352 13.5361c19.1768 20.7119 3.97852 41.9688 5.50781 57.9648h-0.541992v2.14941c-0.253906 0.990234 -0.500977 1.94141 -0.738281 2.84863h0.738281v207.174v3.4873v1.33887h1.58203l104 88h1.13281
c4.9834 45.8955 -62.8379 92.1289 -94.2158 139.501l-3 4l-1 1c-2.02051 3.99219 0.0439453 4.02539 -2.08398 11.5605c-0.0371094 0.130859 -0.189453 0.24707 -0.174805 0.367188l0.258789 2.07227l0.0644531 1.49902
c0.00976562 0.226562 0.150391 3.89551 0.242188 6.24414c3.11426 79.1523 5.19727 173.389 -83.8154 173.771c-136.35 16.7461 -373.536 9.53418 -431.49 -46.5137zM490.322 228.251c0.267578 0.0107422 17.21 0.00195313 17.2158 0.0107422
c-5.21973 21.8887 -3.75293 28.9365 -1.84863 35.0781c0.0175781 0.0556641 1.49023 5.14746 1.69043 5.54883l12.3096 24.6172c-6.30078 97.6494 -6.30078 97.6494 -6.26562 98.0693c2.07031 24.5674 3.875 53.2236 1.76562 71.5801
c-5.48633 21.7881 -19.0977 17.1895 -22.2773 10.2217c-1.12402 -2.46289 -2.38965 -2.75293 -5.6582 -3.50293c-2.53906 -2.27148 -6.53418 -1.77344 -8.43555 1.08691c-2.38184 3.58789 -13.4004 20.6514 -13.6904 21.2188
c-3.98438 7.80469 -19.3564 12.6045 -22.2949 -2.84473c-0.105469 -0.558594 -0.105469 -0.558594 -5.35254 -13.3477c-1.95508 -4.76367 -8.84766 -4.56641 -10.5215 0.305664l-9.87109 28.7129c-2.6377 7.67578 -19.1016 13.8057 -27.7979 -0.731445
c-0.161133 -0.478516 -1.33496 -4.03809 -7.68164 -23.9424c-1.37988 -4.32715 -7.1377 -5.31641 -9.87305 -1.63965c-8.12012 10.9092 -8.12012 10.9092 -8.26172 11.0527c-0.0537109 0.0537109 -9.27246 9.25586 -14.4961 4.03418
c-2.85938 -2.85938 -4.47754 -9.84277 -5.19043 -14.124c0.0214844 -0.641602 0.148438 -4.43164 0.851562 -22.8096c0.418945 -11.4443 0.927734 -35.9014 0.939453 -36.2646c3.34668 -23.8584 1.79883 -24.6025 3.53906 -37.3672
c0.126953 -0.492188 1.0918 -4.21094 6.10547 -23.1885c0.0478516 -0.185547 0.505859 -10.8105 -0.947266 -13.2812c-3.57227 -6.0752 -3.82129 -6.49707 -6.17773 -7.03613c-9.33203 -2.13867 -12.2832 -0.258789 -15.4385 4.11914
c-1.62305 2.25195 -12.6611 13.3145 -13.7705 14.5928l-23.1289 26.6885c-0.625 0.414062 -3.83496 2.51758 -13.4922 8.63379c-0.564453 0.170898 -3.26758 0.978516 -11.4297 3.26367c-2.28125 -1.25293 -5.00195 -0.498047 -7.06445 -2.56055
c-1.49707 -1.49707 -3.22461 -6.5127 -2.6748 -9.35352l12.7607 -17.1621c2.45703 -2.30371 15.5215 -13.6904 16.1602 -14.4639c19.0684 -23.0605 19.0684 -23.0605 19.1611 -23.1855c13.8574 -18.7744 13.8574 -18.7744 13.9619 -18.9375
c12.4961 -19.6377 12.4961 -19.6377 12.6738 -20.0459l9.65039 -22.374c2.66602 -4.13281 12.9736 -19.6846 13.249 -20.209c4.34277 -8.25195 4.34277 -8.25195 4.50684 -8.9375c3.23242 -13.541 26.1152 -14.2148 26.416 -14.2207l25.0312 -0.446289zM507.538 217.009
h-16.8633c-75.8701 -3.15234 -75.8701 -3.15234 -76.0381 -3.14941l-25.2119 0.451172c-4.00293 0.0742188 -31.3311 1.35352 -36.9561 22.1143l-3.58203 6.80469c-13.1055 19.8818 -12.8828 19.2246 -13.6758 21.0625l-9.54785 22.1309l-11.9131 18.7227l-13.5371 18.3379
l-18.5889 22.4814c-15.9697 14.1426 -15.9697 14.1426 -16.6709 15.0859l-13.0488 17.5508c-4.65723 6.26074 -1.40625 18.4775 3.91406 23.7988c3.11914 3.11914 6.06055 4.07227 10.4219 4.875c2.41211 1.07812 5.12891 1.26465 7.64453 0.55957
c11.873 -3.32324 12.1328 -3.14746 14.2188 -4.4707c12.7402 -8.06836 13.7061 -8.37305 15.5312 -10.1982c0.213867 -0.211914 -0.273438 -0.657227 23.6631 -27.2695c12.4697 -13.8643 12.9561 -13.4189 14.748 -15.8467
c0.295898 0.0263672 0.702148 0.078125 1.21387 0.160156l0.602539 1.02539l0.269531 6.72363c-5.99902 22.7002 -5.93262 22.0732 -6.13574 23.5557c-1.87402 13.6484 -0.226562 13.8428 -3.5957 37.7607c-0.0507812 0.369141 -0.724609 29.5752 -1.00195 37.1367
c-0.898438 23.499 -1.11426 22.5732 -0.762695 24.7471c1.0957 6.78711 3.61816 22.4297 16.834 25.2158c10.9893 2.31934 21.6396 -7.99805 23.1025 -9.96094l1.63574 -2.19824c4.3916 13.9316 4.24902 13.8398 5.2793 15.5898
c13.6006 23.1348 42.5146 15.5156 48.2373 -1.13086l4.82812 -14.0479c6.73633 22.6367 33.832 19.2656 42.4531 2.94629c0.100586 -0.155273 9.68555 -15.0459 10.0449 -15.6025c9.45703 12.2227 33.4043 14.2842 41.0439 -16.0547
c0.12207 -0.483398 0.210938 -0.973633 0.268555 -1.46777c2.30273 -20.042 0.380859 -48.7041 -1.69727 -73.4043l6.24609 -96.8086c0.12793 -1.96777 -0.258789 -3.96289 -1.16113 -5.76465l-12.0352 -24.0713c-0.345703 -1.3418 -0.750977 -2.68066 -1.28418 -4.40332
c-1.49902 -4.83398 -3.08008 -7.61914 2.0459 -29.1172c1.68652 -7.06738 -3.66895 -13.8701 -10.9395 -13.8701zM444.512 377.729c0.568359 -10.0938 -3.48438 -36.627 -2.35352 -43.0498c0.34668 -0.394531 1.60352 2.5957 1.67676 1.80566
c2.35449 -25.3154 23.0742 -50.2627 31.0898 -58.2773c1.62207 -1.62305 0.72168 -5.22168 5.42578 -8.86035c-0.551758 -0.362305 -0.551758 -0.362305 -8.99707 -5.99316c-1.28027 -0.853516 -3.01465 -0.654297 -4.06445 0.491211
c-13.5352 14.7246 -24.166 26.2881 -33.5742 53.1426c-4.25195 -13.2363 -12.0078 -26.2324 -19.1719 -35.332c-5.00781 -6.35742 -8.94629 -14.1602 -12.6914 -17.9062c-1.14258 -1.14258 -2.94531 -1.22168 -4.18164 -0.244141
c-6.36426 5.03711 -6.36426 5.03711 -6.49414 5.16895c-1.13281 1.13281 -1.2207 2.91406 -0.269531 4.14844c3.57617 4.63672 15.3818 20.7715 15.54 20.9795c22.8516 30.0195 23.9639 69.916 23.7803 91.3975c-0.015625 1.77832 1.44141 3.21582 3.21973 3.17578
c8.41504 -0.1875 8.41504 -0.1875 9.63184 -1.40332c0.912109 -0.912109 1.37695 -2.26562 1.3457 -3.80957c-0.00976562 -0.520508 -0.0566406 -2.87695 0.0878906 -5.43359z" />
  </g>

</svg>
