<?xml version="1.0" standalone="no"?>
<!DOCTYPE svg PUBLIC "-//W3C//DTD SVG 1.1//EN" "http://www.w3.org/Graphics/SVG/1.1/DTD/svg11.dtd" >
<svg xmlns="http://www.w3.org/2000/svg" xmlns:xlink="http://www.w3.org/1999/xlink" version="1.1" viewBox="-10 0 1020 1000">
  <g transform="matrix(1 0 0 -1 0 800)">
   <path fill="currentColor"
d="M30.3242 741.553h55.5146l17.1611 52.2256l17.1602 -52.2256h55.5156l-44.8672 -32.2959l17.1611 -52.2246l-44.9697 32.2959l-44.9707 -32.2959l17.1611 52.2246zM271 608l-12 60c128.725 89.7881 355.203 55.3633 442.457 48.5605
c0 -0.0107422 0.000976562 -0.0214844 0.000976562 -0.0322266c27.4463 0.582031 75.1855 -1.32129 107.268 -33.4033c40.1396 -40.1396 38.6152 -108.841 37.5254 -169.365c-0.395508 -21.9258 -0.433594 -33.2402 -0.22168 -41.9463
c26.3789 -43.8281 72.168 -89.959 89.3252 -129.607c6.95117 -16.0635 5.49219 -24.7637 2.64551 -40.2051l-12 -14l-79.501 -63.5771v-212.431c1.93945 -31.0869 1.82422 -79.2412 -27.416 -108.48c-26.0322 -26.0322 -182.507 -12.0195 -220.584 -13.0049
l-2.90137 0.0126953c-103.732 -7.2998 -296.108 50.6025 -326.603 92.1719c-18.5059 25.2275 -31.4014 41.2529 -57.9951 55.3086v70.0371c25.8174 -16.2627 49.624 -17.8066 70.1904 -60.6357c44.2188 -92.082 349.455 -105.734 451.309 -108.438l-0.499023 -0.962891
c50 12 34.1514 4.48145 42.5352 13.5361c19.1768 20.7119 3.97852 41.9688 5.50781 57.9648h-0.541992v2.14941c-0.253906 0.990234 -0.500977 1.94141 -0.738281 2.84863h0.738281v207.174v3.4873v1.33887h1.58203l104 88h1.13281
c4.9834 45.8955 -62.8379 92.1289 -94.2158 139.501l-3 4l-1 1c-2.02051 3.99219 0.0439453 4.02539 -2.08398 11.5605c-0.0371094 0.130859 -0.189453 0.24707 -0.174805 0.367188l0.258789 2.07227l0.0644531 1.49902
c0.00976562 0.226562 0.150391 3.89551 0.242188 6.24414c3.11426 79.1523 5.19727 173.389 -83.8154 173.771c-136.35 16.7461 -373.536 9.53418 -431.49 -46.5137zM508.337 522.45c-0.0400391 0.0341797 -0.078125 0.0654297 -0.113281 0.0927734zM467.226 532.239
c0.125977 -0.140625 0.21582 -0.239258 0.264648 -0.289062zM631.798 456.053c-0.779297 -1.2207 0.111328 0.299805 -1.08008 -0.603516l0.694336 -0.445312c0.0419922 -0.0273438 -1.55566 -6.26074 -0.462891 -11.457
c0.509766 -2.42188 1.82617 -2.25098 1.83398 -4.24023c0.00976562 -2.26855 -0.504883 -1.11719 -0.914062 -2.9668c-3.75 -4.77344 -5.20703 -5.00977 -9.57227 -5.71582c-7.1416 -1.15527 -18.9072 -0.467773 -29.707 -3.15234
c-3.17578 -0.266602 -30.1904 -1.95898 -33.6523 -1.0498c-1.75 0.460938 -3.74609 0.311523 -5.10547 -0.537109c-8.68066 1.91504 -23.3105 11.0195 -24.7393 15.9717l0.0166016 1.32227l-0.466797 1.17285l-0.760742 0.955078
c-6.45312 11.0254 -12.6846 19.6133 -12.8447 19.7881c-0.474609 3.24219 -1.96973 4.80273 -1.96973 5.16602c0 4.45996 -12.7949 27.1201 -15.3877 29.1152c-0.162109 0.124023 -10.6875 12.0996 -13.6533 15.2754c-0.0947266 0.168945 -3.83301 5.48828 -13.6875 13.7305
c-1.7002 1.4248 -1.04492 2.55957 -3.11328 3.85742c-5.11328 5.72559 -3.07422 5.45117 -5.00879 8.34863c0.229492 6.74023 10.043 10.0986 10.1807 10.1387c1.19238 0.0332031 4.41309 -0.129883 5.09863 -0.287109c3.18164 -0.725586 5.65918 -3.99609 8.32812 -5.28809
c3.5918 -4.87793 19.6738 -19.8262 19.8281 -20.0625c0.711914 -1.59375 2.07617 -2.37012 2.68457 -2.63867c2.21387 -1.9502 2.81836 -4.67285 6.2002 -5.89355c1.37012 -1.40234 3.76074 -1.92188 5.89453 -1.30859
c0.418945 -0.0722656 0.418945 -0.0722656 3.94434 -0.777344l0.984375 1.06836c0.636719 2.04297 -0.40625 8.63672 -2.49023 9.41309c-0.560547 3.16797 -0.742188 4.05762 -0.798828 4.25879c0.613281 1.19141 1.21582 3.02441 0.0205078 4.80176
c-0.0888672 0.451172 -3.49707 41.5088 -4.64062 45.6992c-0.015625 1.06641 0.754883 3.90332 0.00390625 5.67871c0.498047 3.75781 0.101562 16.377 0.451172 21.127c0 2.11719 2.13477 5.33398 4.2793 10.834c1.52051 2.08594 1.52051 2.08594 4.77148 3.18066
c2.38086 -0.133789 2.4375 -0.422852 2.77539 -0.666016c0.816406 -0.584961 0.816406 -0.584961 3.87891 -2.26172c0.386719 -0.506836 1.93164 -3.12793 1.95215 -3.1582c2.11133 -6.46484 3.57324 -17.9336 4.43652 -26.4453l5.0918 9.5459l1.44727 4.06543
c1.89258 5.31738 2.43555 14.9131 5.28906 21.8066c1.9043 4.60059 3.16895 5.93457 7.53125 7.60254c3.75098 -0.15332 3.91016 -0.362305 4.79102 -1.10547c0.0527344 -0.1875 6.61133 -12.6719 8.11133 -17.8223l-0.428711 -2.74609l1.08105 0.0380859
c0.0126953 -0.0683594 0.347656 -3.77734 0.896484 -6.84473l0.678711 -0.0722656c0.161133 -2.375 0.161133 -2.375 -0.0351562 -3.86621c0.174805 -0.0283203 0.458008 0.0253906 0.393555 -0.188477c3.17773 0.177734 4.34277 -16.9922 6.52344 -16.0439
c4.22656 1.83789 0.93457 24.333 2.59668 24.2363c1.20312 -0.0712891 0.334961 2.13672 0.420898 2.84082c0.250977 2.04004 0.960938 1.31543 1.57617 4.21777c0.867188 4.10449 6.77051 11.3779 6.82227 11.501c2.28613 2.2207 5.30664 3.04297 6.51953 2.10938
c6.80566 -7.60352 10.623 -26.1562 10.3887 -38.541c1.4541 -0.0166016 1.77734 -4.76074 1.9082 -5.875c2.63477 -22.3477 4.06836 16.1387 5.60645 13.6465l1.29785 2.23438c1.39062 2.39453 9.31738 11.1416 11.9473 13.1641
c0.694336 0.535156 0.837891 0.592773 4.08301 0.0517578c2.19629 -1.36523 3.95312 -4.28809 4.02637 -4.44141c3.62305 -7.50977 -0.915039 -52.8818 -0.960938 -60.5039c-1.30469 -4.33887 -0.732422 -11.7539 -0.4375 -13.5703
c0 -9.78809 1.59473 -26.7939 1.79395 -28.2188c-1.77539 -3.27344 2.73145 -16.7236 1.61816 -26.542c-0.287109 -2.53418 -8.78027 -22.627 -8.78027 -22.627zM522.186 617.352c0.0214844 0.0302734 0.0214844 0.0537109 0.0244141 0.0585938
c-0.000976563 -0.000976562 -0.00976563 -0.0214844 -0.0244141 -0.0585938zM632.45 618.239l-0.59082 -3.43066l1.9707 0.547852zM563.102 630.651l0.231445 -0.0263672c-0.0595703 0.00976562 -0.137695 0.0136719 -0.231445 0.0263672zM606.301 614.135
c0 -0.0302734 0.0195312 -0.0625 0.0195312 -0.0634766c-0.00488281 0.0195312 -0.0195312 0.0419922 -0.0195312 0.0634766zM515.018 465.024c0 -0.0126953 0.0341797 -0.0273438 0.0351562 -0.0410156zM537.454 434.756zM612.145 625.507l0.0410156 -0.0810547
c-0.00878906 0.0195312 -0.0214844 0.046875 -0.0410156 0.0810547zM549.665 633.811l0.0292969 0.0214844c-0.00976563 -0.00585938 -0.0195312 -0.0136719 -0.0292969 -0.0214844zM507.339 535.41l0.0332031 -0.0341797
c-0.0117188 0.0126953 -0.0332031 0.0341797 -0.0332031 0.0341797zM473.242 558.151l0.0957031 -0.0205078c-0.0185547 0.00292969 -0.0957031 0.0205078 -0.0957031 0.0205078zM467.27 520.128l-0.0195312 0.0146484
c0.00585938 -0.00390625 0.0117188 -0.0146484 0.0195312 -0.0146484zM466.965 520.419c0.573242 -0.573242 1.95703 -1.47559 3.94238 -3.45996c4.08105 -4.08008 4.91895 -7.05176 9.8916 -11.8203c3.63086 -3.48047 3.02148 -3.91602 8.55078 -10.7891
c11.2559 -13.9961 17.0996 -35.8574 25.6758 -44.9668c2.0332 -4.38477 -0.337891 -3.08105 1.91699 -6.27148c0.0537109 -0.167969 0.0537109 -0.167969 1.61426 -4.16211l-1.35547 -1.41113c-0.0185547 -0.0205078 -0.584961 -1.31543 -0.31543 -3.50293
c0.319336 -2.58789 1.58984 -5.47656 2.75098 -6.6377c1.7168 -1.22363 0.167969 -1.4707 3.00684 -2.35449c15.3564 -10.9336 96.5166 -3.96484 107.306 0.0898438c4.51367 0.0615234 9.95508 5.10547 12.1348 9.50391c3.02637 6.10156 -2.03418 10.7588 -0.175781 20.0918
c-0.901367 1.74805 -0.160156 3.09375 2.4668 7.86328c1.93457 3.51367 2.9707 5.39648 3.2168 6.86914c3.13477 3.94629 2.88477 9.46973 1.23828 27.9131c0.525391 1.04297 0.525391 1.04297 0.359375 1.73145c-2.15039 8.92773 -2.40332 23.8145 -2.13281 37.9307
c0.116211 6.06738 0.959961 28.4463 1.64648 34.3711c0.995117 8.58105 0.0693359 30.082 -0.291016 32.8311c-0.484375 3.69727 -1.74023 9.4209 -4.91992 10.7969c-0.0810547 0.0283203 -3.41992 2.33008 -7.92969 3.46973
c-1.01758 0.258789 -3.9834 1.00781 -6.11328 -0.00488281c-3.62695 -0.454102 -7.79102 -3.80859 -8.62891 -4.6709l-3.8916 -4.00977l-1.28125 5.43457c-1.85449 7.86816 -1.50488 6.85645 -3.19043 9.59473c-0.993164 1.76562 -1.61035 2.86328 -3.2998 4.55371
c-2.59766 2.59668 -3.05957 1.76172 -4.47363 2.76953c-3.61133 2.57129 -9.85254 2.29492 -12.6309 0.604492c-3.81738 -1.71191 -4.4707 -2.00586 -5.81738 -3.35254c-0.993164 -0.993164 -1.21094 -1.2627 -8.21289 -9.91406l-1.38965 6.1582
c-0.416016 1.84375 -0.446289 2.45801 -3.21191 5.57129c-3.57129 4.01953 -3.71582 4.18262 -7.61523 5.12109c-0.791992 0.19043 -1.78418 0.428711 -2.47559 1.56348c-2.77441 4.54004 -5.5459 3.69531 -11.5684 -2.23828
c-3.04492 -2.99902 -3.06641 -2.37891 -6.5791 -5.8916c-2.33496 -2.33691 -2.54785 -2.74609 -4.47363 -6.4707l-2.75391 1.52148c-10.4922 5.79785 -17.4688 2.33887 -21.9102 -2.10254c-2.62109 -2.62109 -4.36719 -5.96582 -4.66699 -7.33008
c0.0673828 -0.783203 -0.217773 -1.21289 -0.548828 -1.59766c-4.77051 -6.79297 -2.0166 -45.0264 0.475586 -63.8594c0 0 -0.105469 -1.2002 0.196289 -1.48438c0.878906 -4.0498 0.973633 -4.49219 1.27637 -18.75l-5.41699 5.66797
c-0.556641 0.551758 -10.5693 10.3008 -17.4463 15.6924c-3.90039 3.05762 -6.70898 4.73145 -8.89648 5.65723c-4.04199 1.70801 -6.54102 1.11914 -7.69824 1.39551c-0.303711 0.0449219 -8.30566 1.20801 -18.374 -9.97656
c-5.87305 -6.52344 2.43262 -16.8018 2.61816 -16.9658c0.209961 -0.22168 0.509766 -0.351562 0.605469 -0.689453v0v0c1.22754 -1.49414 6.93555 -8.22266 8.7959 -10.083zM519.806 427.239l-2.96387 0.59668c0.62207 0.204102 1.82617 0.394531 2.96387 -0.59668z
M458.169 530.502c-0.170898 0.255859 -0.0166016 0.0205078 -0.0166016 0.0205078c0.00585938 -0.00683594 0.015625 -0.0195312 0.0166016 -0.0205078zM641.908 454.729c0.154297 0.771484 0.154297 0.771484 0.662109 2.53125l0.816406 -2.74805l4.13867 -0.133789
c-2.73535 -2.61328 -4.96289 -0.918945 -5.61719 0.350586zM603.043 466.98c-3.77344 -0.0771484 -48.4141 -0.0761719 -48.9043 -0.0595703c-2.9502 0.0947266 -7.05371 0.226562 -10.5625 4.11426c-1.02539 1.13477 -5.79102 6.94238 -4.27344 15.248
c0.55957 3.06152 1.31055 6.14551 2.71191 11.2783c6.00098 24.6895 7.62793 31.3818 12.124 40.5928c3.67578 7.52344 11.7861 18.8516 26.8066 17.0547c17.8193 -1.97461 24.4629 -22.4395 29.2217 -41.6162c1.67285 -6.95312 3.38184 -13.8936 5.13281 -20.8525
c1.53613 -6.39453 3.02148 -12.582 -0.78125 -18.874c-1.8916 -3.12988 -5.44141 -6.95215 -11.4756 -6.88574zM579.393 545.046c-13.5566 1.22852 -19.1299 -13.3916 -24.375 -34.2373c-4.03613 -16.6172 -4.03613 -16.6172 -5.49707 -22.0957l0.0078125 0.0322266
c-0.00292969 -0.0107422 -0.0078125 -0.0322266 -0.0078125 -0.0322266c-1.03027 -4.24219 -1.88477 -7.75488 0.734375 -10.374c0.961914 -0.961914 1.31543 -1.02734 4.0498 -1.14746c48.5557 0.0214844 48.5557 0.0214844 49.9004 0.200195
c1.16113 0.143555 4.08301 2.84668 3.11328 7.4502c-0.0751953 0.380859 -6.0332 26.3857 -9.46484 37.5762c-6.02539 19.4287 -13.2041 22.2646 -18.4609 22.6279zM552.262 477.321l-0.0351562 0.00292969c0.00585938 0 0.0136719 -0.00292969 0.0351562 -0.00292969z
M551.446 477.475l-0.166016 0.0488281c0.0556641 -0.0175781 0.111328 -0.0351562 0.166016 -0.0488281zM550.117 478.481l-0.0332031 0.0371094c0.0107422 -0.0117188 0.0224609 -0.0244141 0.0332031 -0.0371094zM548.617 484.546l0.00683594 0.046875
c-0.00292969 -0.015625 -0.00683594 -0.03125 -0.00683594 -0.046875zM564.728 537.203l0.0263672 0.0400391c-0.00488281 -0.00683594 -0.00878906 -0.0126953 -0.0263672 -0.0400391zM589.643 539.494l0.0253906 -0.0292969
c-0.0078125 0.00976562 -0.0253906 0.0292969 -0.0253906 0.0292969zM607.526 482.673l-0.00195313 -0.100586c0.000976563 0.0341797 0.00195313 0.0673828 0.00195313 0.100586zM509.319 211.642c-0.0400391 0.0341797 -0.078125 0.0654297 -0.113281 0.0927734z
M468.208 221.431c0.125977 -0.140625 0.21582 -0.239258 0.264648 -0.289062zM632.78 145.244c-0.779297 -1.2207 0.111328 0.299805 -1.08008 -0.603516l0.694336 -0.445312c0.0419922 -0.0273438 -1.55566 -6.26074 -0.462891 -11.457
c0.509766 -2.42188 1.82617 -2.25098 1.83398 -4.24023c0.00976562 -2.26855 -0.504883 -1.11719 -0.914062 -2.9668c-3.75 -4.77344 -5.20703 -5.00977 -9.57227 -5.71582c-7.1416 -1.15527 -18.9072 -0.467773 -29.707 -3.15234
c-3.17578 -0.266602 -30.1904 -1.95898 -33.6523 -1.0498c-1.75 0.460938 -3.74609 0.311523 -5.10547 -0.537109c-8.68066 1.91504 -23.3105 11.0195 -24.7393 15.9717l0.0166016 1.32227l-0.466797 1.17285l-0.760742 0.955078
c-6.45312 11.0254 -12.6846 19.6133 -12.8447 19.7881c-0.474609 3.24219 -1.96973 4.80273 -1.96973 5.16602c0 4.45996 -12.7949 27.1201 -15.3877 29.1152c-0.162109 0.124023 -10.6875 12.0996 -13.6533 15.2754c-0.0947266 0.168945 -3.83301 5.48828 -13.6875 13.7305
c-1.7002 1.4248 -1.04492 2.55957 -3.11328 3.85742c-5.11328 5.72559 -3.07422 5.45117 -5.00879 8.34863c0.229492 6.74023 10.043 10.0986 10.1807 10.1387c1.19238 0.0332031 4.41309 -0.129883 5.09863 -0.287109c3.18164 -0.725586 5.65918 -3.99609 8.32812 -5.28809
c3.5918 -4.87793 19.6738 -19.8262 19.8281 -20.0625c0.711914 -1.59375 2.07617 -2.37012 2.68457 -2.63867c2.21387 -1.9502 2.81836 -4.67285 6.2002 -5.89355c1.37012 -1.40234 3.76074 -1.92188 5.89453 -1.30859
c0.418945 -0.0722656 0.418945 -0.0722656 3.94434 -0.777344l0.984375 1.06836c0.636719 2.04297 -0.40625 8.63672 -2.49023 9.41309c-0.560547 3.16797 -0.742188 4.05762 -0.798828 4.25879c0.613281 1.19141 1.21582 3.02441 0.0205078 4.80176
c-0.0888672 0.451172 -3.49707 41.5088 -4.64062 45.6992c-0.015625 1.06641 0.754883 3.90332 0.00390625 5.67871c0.498047 3.75781 0.101562 16.377 0.451172 21.127c0 2.11719 2.13477 5.33398 4.2793 10.834c1.52051 2.08594 1.52051 2.08594 4.77148 3.18066
c2.38086 -0.133789 2.4375 -0.422852 2.77539 -0.666016c0.816406 -0.584961 0.816406 -0.584961 3.87891 -2.26172c0.386719 -0.506836 1.93164 -3.12793 1.95215 -3.1582c2.11133 -6.46484 3.57324 -17.9336 4.43652 -26.4453l5.0918 9.5459l1.44727 4.06543
c1.89258 5.31738 2.43555 14.9131 5.28906 21.8066c1.9043 4.60059 3.16895 5.93457 7.53125 7.60254c3.75098 -0.15332 3.91016 -0.362305 4.79102 -1.10547c0.0527344 -0.1875 6.61133 -12.6719 8.11133 -17.8223l-0.428711 -2.74609l1.08105 0.0380859
c0.0126953 -0.0683594 0.347656 -3.77734 0.896484 -6.84473l0.678711 -0.0722656c0.161133 -2.375 0.161133 -2.375 -0.0351562 -3.86621c0.174805 -0.0283203 0.458008 0.0253906 0.393555 -0.188477c3.17773 0.177734 4.34277 -16.9922 6.52344 -16.0439
c4.22656 1.83789 0.93457 24.333 2.59668 24.2363c1.20312 -0.0712891 0.334961 2.13672 0.420898 2.84082c0.250977 2.04004 0.960938 1.31543 1.57617 4.21777c0.867188 4.10449 6.77051 11.3779 6.82227 11.501c2.28613 2.2207 5.30664 3.04297 6.51953 2.10938
c6.80566 -7.60352 10.623 -26.1562 10.3887 -38.541c1.4541 -0.0166016 1.77734 -4.76074 1.9082 -5.875c2.63477 -22.3477 4.06836 16.1387 5.60645 13.6465l1.29785 2.23438c1.39062 2.39453 9.31738 11.1416 11.9473 13.1641
c0.694336 0.535156 0.837891 0.592773 4.08301 0.0517578c2.19629 -1.36523 3.95312 -4.28809 4.02637 -4.44141c3.62305 -7.50977 -0.915039 -52.8818 -0.960938 -60.5039c-1.30469 -4.33887 -0.732422 -11.7539 -0.4375 -13.5703
c0 -9.78809 1.59473 -26.7939 1.79395 -28.2188c-1.77539 -3.27344 2.73145 -16.7236 1.61816 -26.542c-0.287109 -2.53418 -8.78027 -22.627 -8.78027 -22.627zM523.168 306.543c0.0214844 0.0302734 0.0214844 0.0537109 0.0244141 0.0585938
c-0.000976562 -0.000976562 -0.00976562 -0.0214844 -0.0244141 -0.0585938zM633.433 307.431l-0.59082 -3.43066l1.9707 0.547852zM564.084 319.843l0.231445 -0.0263672c-0.0595703 0.00976562 -0.137695 0.0136719 -0.231445 0.0263672zM607.283 303.326
c0 -0.0302734 0.0195312 -0.0625 0.0195312 -0.0634766c-0.00488281 0.0195312 -0.0195312 0.0419922 -0.0195312 0.0634766zM516 154.216c0 -0.0126953 0.0341797 -0.0273438 0.0351562 -0.0410156zM538.437 123.947zM613.127 314.698l0.0410156 -0.0810547
c-0.00878906 0.0195312 -0.0214844 0.046875 -0.0410156 0.0810547zM550.647 323.002l0.0292969 0.0214844c-0.00976562 -0.00585938 -0.0195312 -0.0136719 -0.0292969 -0.0214844zM508.321 224.602l0.0332031 -0.0341797
c-0.0117188 0.0126953 -0.0332031 0.0341797 -0.0332031 0.0341797zM474.225 247.343l0.0957031 -0.0205078c-0.0185547 0.00292969 -0.0957031 0.0205078 -0.0957031 0.0205078zM468.252 209.319l-0.0195312 0.0146484
c0.00585938 -0.00390625 0.0117188 -0.0146484 0.0195312 -0.0146484zM467.947 209.61c0.573242 -0.573242 1.95703 -1.47559 3.94238 -3.45996c4.08105 -4.08008 4.91895 -7.05176 9.8916 -11.8203c3.63086 -3.48047 3.02148 -3.91602 8.55078 -10.7891
c11.2559 -13.9961 17.0996 -35.8574 25.6758 -44.9668c2.0332 -4.38477 -0.337891 -3.08105 1.91699 -6.27148c0.0537109 -0.167969 0.0537109 -0.167969 1.61426 -4.16211l-1.35547 -1.41113c-0.0185547 -0.0205078 -0.584961 -1.31543 -0.31543 -3.50293
c0.319336 -2.58789 1.58984 -5.47656 2.75098 -6.6377c1.7168 -1.22363 0.167969 -1.4707 3.00684 -2.35449c15.3564 -10.9336 96.5166 -3.96484 107.306 0.0898438c4.51367 0.0615234 9.95508 5.10547 12.1348 9.50391c3.02637 6.10156 -2.03418 10.7588 -0.175781 20.0918
c-0.901367 1.74805 -0.160156 3.09375 2.4668 7.86328c1.93457 3.51367 2.9707 5.39648 3.2168 6.86914c3.13477 3.94629 2.88477 9.46973 1.23828 27.9131c0.525391 1.04297 0.525391 1.04297 0.359375 1.73145c-2.15039 8.92773 -2.40332 23.8145 -2.13281 37.9307
c0.116211 6.06738 0.959961 28.4463 1.64648 34.3711c0.995117 8.58105 0.0693359 30.082 -0.291016 32.8311c-0.484375 3.69727 -1.74023 9.4209 -4.91992 10.7969c-0.0810547 0.0283203 -3.41992 2.33008 -7.92969 3.46973
c-1.01758 0.258789 -3.9834 1.00781 -6.11328 -0.00488281c-3.62695 -0.454102 -7.79102 -3.80859 -8.62891 -4.6709l-3.8916 -4.00977l-1.28125 5.43457c-1.85449 7.86816 -1.50488 6.85645 -3.19043 9.59473c-0.993164 1.76562 -1.61035 2.86328 -3.2998 4.55371
c-2.59766 2.59668 -3.05957 1.76172 -4.47363 2.76953c-3.61133 2.57129 -9.85254 2.29492 -12.6309 0.604492c-3.81738 -1.71191 -4.4707 -2.00586 -5.81738 -3.35254c-0.993164 -0.993164 -1.21094 -1.2627 -8.21289 -9.91406l-1.38965 6.1582
c-0.416016 1.84375 -0.446289 2.45801 -3.21191 5.57129c-3.57129 4.01953 -3.71582 4.18262 -7.61523 5.12109c-0.791992 0.19043 -1.78418 0.428711 -2.47559 1.56348c-2.77441 4.54004 -5.5459 3.69531 -11.5684 -2.23828
c-3.04492 -2.99902 -3.06641 -2.37891 -6.5791 -5.8916c-2.33496 -2.33691 -2.54785 -2.74609 -4.47363 -6.4707l-2.75391 1.52148c-10.4922 5.79785 -17.4688 2.33887 -21.9102 -2.10254c-2.62109 -2.62109 -4.36719 -5.96582 -4.66699 -7.33008
c0.0673828 -0.783203 -0.217773 -1.21289 -0.548828 -1.59766c-4.77051 -6.79297 -2.0166 -45.0264 0.475586 -63.8594c0 0 -0.105469 -1.2002 0.196289 -1.48438c0.878906 -4.0498 0.973633 -4.49219 1.27637 -18.75l-5.41699 5.66797
c-0.556641 0.551758 -10.5693 10.3008 -17.4463 15.6924c-3.90039 3.05762 -6.70898 4.73145 -8.89648 5.65723c-4.04199 1.70801 -6.54102 1.11914 -7.69824 1.39551c-0.303711 0.0449219 -8.30566 1.20801 -18.374 -9.97656
c-5.87305 -6.52344 2.43262 -16.8018 2.61816 -16.9658c0.209961 -0.22168 0.509766 -0.351562 0.605469 -0.689453v0v0c1.22754 -1.49414 6.93555 -8.22266 8.7959 -10.083zM520.788 116.431l-2.96387 0.59668c0.62207 0.204102 1.82617 0.394531 2.96387 -0.59668z
M459.151 219.693c-0.170898 0.255859 -0.0166016 0.0205078 -0.0166016 0.0205078c0.00585938 -0.00683594 0.015625 -0.0195312 0.0166016 -0.0205078zM642.891 143.92c0.154297 0.771484 0.154297 0.771484 0.662109 2.53125l0.816406 -2.74805l4.13867 -0.133789
c-2.73535 -2.61328 -4.96289 -0.918945 -5.61719 0.350586zM604.025 156.172c-3.77344 -0.0771484 -48.4141 -0.0761719 -48.9043 -0.0595703c-2.9502 0.0947266 -7.05371 0.226562 -10.5625 4.11426c-1.02539 1.13477 -5.79102 6.94238 -4.27344 15.248
c0.55957 3.06152 1.31055 6.14551 2.71191 11.2783c6.00098 24.6895 7.62793 31.3818 12.124 40.5928c3.67578 7.52344 11.7861 18.8516 26.8066 17.0547c17.8193 -1.97461 24.4629 -22.4395 29.2217 -41.6162c1.67285 -6.95312 3.38184 -13.8936 5.13281 -20.8525
c1.53613 -6.39453 3.02148 -12.582 -0.78125 -18.874c-1.8916 -3.12988 -5.44141 -6.95215 -11.4756 -6.88574zM580.375 234.237c-13.5566 1.22852 -19.1299 -13.3916 -24.375 -34.2373c-4.03613 -16.6172 -4.03613 -16.6172 -5.49707 -22.0957l0.0078125 0.0322266
c-0.00292969 -0.0107422 -0.0078125 -0.0322266 -0.0078125 -0.0322266c-1.03027 -4.24219 -1.88477 -7.75488 0.734375 -10.374c0.961914 -0.961914 1.31543 -1.02734 4.0498 -1.14746c48.5557 0.0214844 48.5557 0.0214844 49.9004 0.200195
c1.16113 0.143555 4.08301 2.84668 3.11328 7.4502c-0.0751953 0.380859 -6.0332 26.3857 -9.46484 37.5762c-6.02539 19.4287 -13.2041 22.2646 -18.4609 22.6279zM553.244 166.513l-0.0351562 0.00292969c0.00585938 0 0.0136719 -0.00292969 0.0351562 -0.00292969z
M552.429 166.666l-0.166016 0.0488281c0.0556641 -0.0175781 0.111328 -0.0351562 0.166016 -0.0488281zM551.1 167.673l-0.0332031 0.0371094c0.0107422 -0.0117188 0.0224609 -0.0244141 0.0332031 -0.0371094zM549.6 173.737l0.00683594 0.046875
c-0.00292969 -0.015625 -0.00683594 -0.03125 -0.00683594 -0.046875zM565.71 226.395l0.0263672 0.0400391c-0.00488281 -0.00683594 -0.00878906 -0.0126953 -0.0263672 -0.0400391zM590.625 228.686l0.0253906 -0.0292969
c-0.0078125 0.00976562 -0.0253906 0.0292969 -0.0253906 0.0292969zM608.509 171.864l-0.00195312 -0.100586c0.000976562 0.0341797 0.00195312 0.0673828 0.00195312 0.100586z" />
  </g>

</svg>
