<?xml version="1.0" standalone="no"?>
<!DOCTYPE svg PUBLIC "-//W3C//DTD SVG 1.1//EN" "http://www.w3.org/Graphics/SVG/1.1/DTD/svg11.dtd" >
<svg xmlns="http://www.w3.org/2000/svg" xmlns:xlink="http://www.w3.org/1999/xlink" version="1.1" viewBox="-10 0 1051 1000">
  <g transform="matrix(1 0 0 -1 0 800)">
   <path fill="currentColor"
d="M271 608l-12 60c128.725 89.7881 355.203 55.3633 442.457 48.5605c0 -0.0107422 0.000976562 -0.0214844 0.000976562 -0.0322266c27.4463 0.582031 75.1855 -1.32129 107.268 -33.4033c40.1396 -40.1396 38.6152 -108.841 37.5254 -169.365
c-0.395508 -21.9258 -0.433594 -33.2402 -0.22168 -41.9463c26.3789 -43.8281 72.168 -89.959 89.3252 -129.607c6.95117 -16.0635 5.49219 -24.7637 2.64551 -40.2051l-12 -14l-79.501 -63.5771v-212.431c1.93945 -31.0869 1.82422 -79.2412 -27.416 -108.48
c-26.0322 -26.0322 -182.507 -12.0195 -220.584 -13.0049l-2.90137 0.0126953c-103.732 -7.2998 -296.108 50.6025 -326.603 92.1719c-18.5059 25.2275 -31.4014 41.2529 -57.9951 55.3086v70.0371c25.8174 -16.2627 49.624 -17.8066 70.1904 -60.6357
c44.2188 -92.082 349.455 -105.734 451.309 -108.438l-0.499023 -0.962891c50 12 34.1514 4.48145 42.5352 13.5361c19.1768 20.7119 3.97852 41.9688 5.50781 57.9648h-0.541992v2.14941c-0.253906 0.990234 -0.500977 1.94141 -0.738281 2.84863h0.738281v207.174v3.4873
v1.33887h1.58203l104 88h1.13281c4.9834 45.8955 -62.8379 92.1289 -94.2158 139.501l-3 4l-1 1c-2.02051 3.99219 0.0439453 4.02539 -2.08398 11.5605c-0.0371094 0.130859 -0.189453 0.24707 -0.174805 0.367188l0.258789 2.07227l0.0644531 1.49902
c0.00976562 0.226562 0.150391 3.89551 0.242188 6.24414c3.11426 79.1523 14.1973 176.389 -74.8154 176.771c-136.35 16.7461 -373.536 9.53418 -431.49 -46.5137zM30.3545 728.521h55.5146l17.1611 52.2256l17.1602 -52.2256h55.5156l-44.8672 -32.2959l17.1611 -52.2246
l-44.9697 32.2959l-44.9707 -32.2959l17.1611 52.2246zM637.869 290.167zM466.115 405.716zM434.04 346.668zM559.013 269.464zM558.787 262.293zM463.301 288.956zM518.35 271.639zM668.505 360.019zM434.04 346.668zM668.505 360.019zM592.45 435.829
c-12.1074 0 -22.3574 -4.70996 -27.5566 -9.9082c-1.97754 -1.97852 -1.47266 -2.08203 -2.29102 -2.37891c-3.6748 -1.34082 -7.27734 -1.82617 -10.5645 -1.82617c-3.10254 0 -8.74219 0.458008 -14.8477 3.20117c-4.14844 5.0498 -11.1641 9.64648 -22.9609 9.64648
c-17.71 0 -37.9053 -10.9619 -44.9287 -27.3857l-0.34668 -0.811523h-1.22168l-31.998 -43.4766h-1.53125v-2.0791c-0.207031 -0.282227 -0.414062 -0.563477 -0.62207 -0.845703h0.334961l-3.54395 -13.2891l-0.398438 0.00585938
c-0.0712891 -1.36035 -0.200195 -2.1416 -0.628906 -3.83301h0.515625c-0.0126953 -1.50195 -0.0126953 -1.50195 -0.0126953 -1.65527c0 -9.71582 4.19238 -29.377 32.1357 -52.4873c29.5117 -24.4102 62.8867 -27.1016 90.5547 -27.1016
c45.3486 0 63.8379 5.68359 90.9736 27.127c33.1494 26.1934 33.709 33.9072 34.6201 53.0527l-0.927734 0.0146484c-0.0566406 0.212891 -4.12793 16.8281 -5.57227 21.3008l-23.6924 40.4854c-2.66992 2.78711 -2.66992 2.78711 -2.93945 3.24902h-0.175781
c-8.33008 8.52539 -25.792 24.4785 -42.8418 28.0137c-3.2627 0.676758 -6.45703 0.981445 -9.53223 0.981445zM513.768 424.119c2.54883 0 8.21387 0 14.6719 -4.44434l-0.0498047 -0.617188c0.373047 -0.152344 0.970703 -0.432617 1.55078 -0.984375
c5.47266 -5.2002 13.8828 -7.6416 21.8682 -7.6416c7.43848 0 14.5078 2.11816 18.4873 6.09863c0.774414 0.774414 2.02539 2.02441 2.99121 4.93555c4.10059 2.79883 10.6152 5.85254 19.5059 5.85254c11.7998 0 17.3154 -5.13867 21.5459 -9.07715
c3.28711 -3.06152 7.61621 -7.10254 16.9258 -13.2637c0.355469 -0.0771484 0.647461 -0.248047 0.881836 -0.512695l0.205078 0.0078125l26.625 -41.9961c0 -0.0712891 -0.00195312 -0.143555 -0.00195312 -0.21582c1.91016 -7.1543 3.65332 -14.4746 5.49219 -21.7002
c0.642578 -2.56836 1.00488 -4.94824 1.00488 -7.25293c0 -11.0566 -8.22656 -20.0146 -31.9219 -39.3779c-21.8359 -17.8418 -37.6484 -23.9629 -85.3008 -23.9629c-25.7979 0 -46.5928 3.16895 -70.8789 20.1689c-29.9375 20.957 -33.9629 36.3896 -33.9629 50.1328
c0 0.90625 0.0175781 1.7998 0.0419922 2.67871c1.49414 5.92871 3.11719 11.7275 4.65918 17.6074l29.1758 41.3076c0.415039 -0.160156 0.828125 -0.319336 1.24121 -0.478516c0.983398 2.31445 2.65723 6.25781 7.19824 10.7988
c7.31738 7.31738 18.1484 11.9365 28.0439 11.9365zM383.753 485.892l-54.583 -55.125l59.3994 -54.5996l-7.7334 -6.44141l-59.4668 54.7412l-53.7832 -54.7412l-5.61621 6.1416l53.0996 54l-52.2002 54.2998l6.90039 6.59961l52.7998 -52.5l55.2002 52.7998z
M323.963 293.624c9.09961 -33.4121 33.5586 -60.1533 78.0371 -82.624l-2.80176 -6.78906c-43.5068 22.043 -69.9902 48.4639 -80.8291 80.7559c-10.2061 -28.668 -38.9727 -64.5361 -64.2129 -80.0625l-4.5498 6.86426c49.8984 32.0254 73.876 79.9766 71.7793 146.803
l7.25977 -0.160156c0.0986328 -0.00195312 0.181641 -6.26855 0.181641 -8.66016c0 -16.2725 -4.86426 -56.127 -4.86426 -56.127z" />
  </g>

</svg>
