<?xml version="1.0" standalone="no"?>
<!DOCTYPE svg PUBLIC "-//W3C//DTD SVG 1.1//EN" "http://www.w3.org/Graphics/SVG/1.1/DTD/svg11.dtd" >
<svg xmlns="http://www.w3.org/2000/svg" xmlns:xlink="http://www.w3.org/1999/xlink" version="1.1" viewBox="-10 0 1080 1000">
  <g transform="matrix(1 0 0 -1 0 800)">
   <path fill="currentColor"
d="M341.278 284.041zM82.2227 458.324zM33.8447 369.262zM222.341 252.815zM222 242zM77.9785 282.215zM161.007 256.094zM387.486 389.398zM33.8447 369.262zM387.486 389.398zM272.595 510.783c10.377 0 38.9365 -0.357422 82.1182 -43.7559h1.12207
c2.58398 -3.80859 2.58398 -3.80859 6.27734 -7.66211l34.4805 -58.9199c1.2959 -0.875977 2.58105 -2.35156 2.58105 -4.75684c0 -0.12207 -0.00390625 -0.242188 -0.0117188 -0.356445c0.889648 -2.81934 0.889648 -2.81934 6.88574 -26.4854l3.3125 -0.0546875
c-1.82422 -38.5303 -2.40039 -50.6875 -55.2246 -92.4287c-42.5469 -33.6191 -73.3154 -42.4199 -141.649 -42.4199c-54.6201 0 -107.693 7.84082 -155.837 55.9844c-16.293 16.293 -34.1592 39.6465 -35.9912 66.5547h-3.02148
c3.0166 11.3135 3.0166 11.3135 3.30176 19.9326l2.00586 -0.0332031l1.57812 5.91797h-5.25391c2.60254 3.53418 5.2041 7.06738 7.80566 10.6016v7.8457h5.77539l48.2617 65.5742h0.863281c12.9453 26.0557 45.1865 42.7129 72.9219 42.7129
c5.05664 0 25.1162 -0.243164 38.8379 -15.9648c2.99902 -1.21484 9.92188 -3.55078 18.2061 -3.55078c3.83008 0 7.95117 0.499023 12.1094 1.83887c1.51855 1.82715 16.9658 19.4258 48.5449 19.4258zM54.9775 358.967c0 -15.6143 2.74805 -37.3711 48.2432 -69.2168
c35.0869 -24.5615 64.3281 -29.168 102.364 -29.168c72.5107 0 93.3467 8.91992 124.742 34.5742c36.8027 30.0752 45.709 41.3877 45.709 53.4287c0 3.97461 0 3.97461 -5.37988 25.4531l-3.63184 -6.47754l0.168945 19.4297
c-0.256836 1.29785 -0.763672 2.41406 -0.984375 3.89941c-37.3281 58.875 -37.3281 58.875 -38.6543 60.3936c-23.9014 15.8008 -27.3213 23.1807 -35.4199 27.9561c-5.22363 3.08008 -11.9072 4.55859 -18.791 4.55859c-8.34961 0 -16.9912 -2.1748 -23.6768 -6.30469
c-5.20117 -12.2637 -20.8076 -19.2988 -38.1367 -19.2988c-13.8135 0 -28.2031 4.48926 -37.8994 13.7002c-0.00683594 0 -0.264648 0.106445 -0.264648 0.106445c-0.981445 0.385742 -2.68457 1.05566 -3.67285 3.25391
c-4.36523 2.49219 -9.73047 3.67188 -15.4902 3.67188c-18.2041 0 -39.043 -11.6143 -46.2285 -28.5381c-1.07422 -2.5293 -2.14844 -5.05859 -3.22266 -7.58887l-3.10059 1.19336l-40.1299 -56.8115l-6.48535 -24.3203
c-0.0341797 -1.29004 -0.0585938 -2.58691 -0.0585938 -3.89453zM479.706 282.127c0 -0.508789 -0.0488281 -2.13184 -0.0488281 -4.54883c0 -6.77734 0.413086 -9.7041 0.413086 -16.124c0 -0.619141 -0.00390625 -1.26855 -0.0126953 -1.95312
c5.56543 -0.0732422 11.6797 -1.38281 17.9102 -4.60156c6.43164 3.4375 12.6748 4.7627 18.4082 4.7627c0.974609 0 16.7793 -0.166992 27.0898 -10.8955c5.59277 -5.81934 10.4502 -15.6348 10.4502 -26.9297c0 -8.71875 -2.91309 -20.6387 -15.0459 -32.4863
c-21.7188 -21.207 -24.9551 -24.2471 -26.2725 -25.4141c-4.07031 -3.82617 -9.27637 -5.74316 -14.4902 -5.74316c-5.31836 0 -10.6445 1.99609 -14.7764 5.99707c0 0 -4.99023 4.83301 -9.64941 9.3457c-0.143555 -3.50781 -0.257812 -7.2998 -0.257812 -10.4512
c0 -2.60742 0.078125 -4.77734 0.28418 -5.98535c1.44043 -1.7959 1.9834 -3.75781 2.12598 -5.4873c6.62012 -71.1641 70.5254 -142.124 85.4736 -154.922c1.08594 -0.515625 2.50195 -1.71191 3.49023 -3.28613c3.60449 -2.01074 7.20801 -4.02148 10.8125 -6.03223
l-34.4072 -22.9365c-41.6836 45.2568 -67.1416 72.8975 -91.376 139.134c-11.4385 -32.542 -30.4141 -63.9102 -48.0586 -86.3193c-19.4375 -24.6855 -12.0635 -23.293 -39.1953 -53.4385l-31.7451 25.1299c19.6475 25.4678 46.04 61.8379 46.5117 62.457
c56.9443 74.8027 61.2344 173.753 61.2344 227.434c0 5.22363 -0.0273438 8.45508 -0.116211 18.8486c9.24805 -0.204102 18.4951 -0.408203 27.7432 -0.612305c7.39844 -0.157227 13.5049 -5.73242 13.5049 -14.9414zM516.119 222.312
c-3.3418 -0.844727 -7.65137 -9.58984 -17.9707 -9.58984c-7.00391 0 -11.3418 4.15234 -13.0098 5.81641c-2.9043 2.32422 -4.55859 3.37695 -5.03711 3.66016c-0.0917969 -0.3125 -0.194336 -0.662109 -0.307617 -1.05078
c0.789062 -2.32324 0.789062 -2.32324 18.3789 -19.29c18.082 17.4023 18.082 17.4023 18.6436 20.0078c-0.0859375 0.22168 -0.0859375 0.22168 -0.697266 0.446289zM987.862 809.77l-218.333 -220.5l237.601 -218.399l-30.9336 -25.7666l-237.867 218.967
l-215.133 -218.967l-22.4668 24.5664l212.4 216l-208.801 217.2l27.6006 26.3994l211.2 -210l220.8 211.2zM987.862 809.77l-218.333 -220.5l237.601 -218.399l-30.9336 -25.7666l-237.867 218.967l-215.133 -218.967l-22.4668 24.5664l212.4 216l-208.801 217.2
l27.6006 26.3994l211.2 -210l220.8 211.2zM937 468zM566.92 716.976zM497.809 589.743zM767.089 423.392zM766.603 407.941zM560.856 465.392zM679.469 428.076zM1003.01 618.511zM497.809 589.743zM1003.01 618.511zM1012.12 627.182
c4.77246 -14.4541 7.84473 -30.0967 11.8584 -45.0811l2.79785 -0.0458984c-2.12793 -44.8975 -2.92871 -61.8037 -75.834 -119.413c-54.248 -42.8662 -93.9648 -57.9658 -184.243 -58.9834c-62.0996 -0.700195 -141.187 1.62402 -210.521 58.9688
c-27.3203 22.5947 -70.6885 66.3262 -70.2861 116.002h-1.94336c2.12402 7.96289 2.12402 7.96289 2.32617 14.0771l1.42188 -0.0244141l6.08789 22.8301h-2.67188c1.38672 1.88477 2.77539 3.76953 4.16309 5.65332v6.41602h4.72168l68.9453 93.6777h2.1875
c23.8545 55.7803 115.241 82.6514 150.736 39.4434c5.03906 -2.26465 27.8965 -11.3848 51.9648 -2.60938c12.3975 16.5928 47.2314 32.6064 86.4307 24.4775c37.9131 -7.86133 76.1582 -43.1309 92.9385 -60.3027h0.803711
c0.591797 -0.871094 0.996094 -1.87109 1.74023 -2.63379l5.27246 -5.50098l50.3418 -86.0234c0.750977 0.0634766 1.34473 0.0166016 1.22656 -0.52832zM520.967 581.642c-0.834961 -28.6279 2.33105 -62.6738 71.8584 -111.343
c58.998 -41.2988 107.885 -44.2656 174.999 -42.6025c78.1973 2.0127 110.826 12.0625 158.045 50.6475c62.792 51.3115 73.1963 67.3926 65.6455 97.5352l-9.98535 39.8604l-0.367188 -0.654297c0.0214844 2.41211 -1.5918 5.48047 -1.57031 7.89355l-56.0293 88.3711
c-1.50391 -0.0595703 -0.302734 1.30664 -1.80664 1.24805c-34.6807 22.8652 -38.3789 32.7715 -51.334 40.4111c-19.9482 11.7637 -50.6191 9.39648 -70.1455 -3.93066c-9.71973 -29.2803 -70.0283 -33.9727 -97.8184 -7.56836
c-2.58984 2.46094 -4.5 1.0918 -4.25488 4.11133c-29.7051 20.4404 -85.3457 -0.15332 -101.068 -37.1846l-1.90723 -4.49023l-3.17773 1.22363l-61.2744 -86.7471z" />
  </g>

</svg>
