<?xml version="1.0" standalone="no"?>
<!DOCTYPE svg PUBLIC "-//W3C//DTD SVG 1.1//EN" "http://www.w3.org/Graphics/SVG/1.1/DTD/svg11.dtd" >
<svg xmlns="http://www.w3.org/2000/svg" xmlns:xlink="http://www.w3.org/1999/xlink" version="1.1" viewBox="-10 0 1045 1000">
  <g transform="matrix(1 0 0 -1 0 800)">
   <path fill="currentColor"
d="M828.399 483.872c0 9.49878 0.360099 25.4826 0.360099 28.905l-0.318652 61.3747l-8.69455 54.78l-24.0577 41.7601l-29.8355 19.1251l-33.9409 8.02542l-47.9505 1.85133v0.765382l-107.704 8.96128l-161.614 -4.8437l-135.511 -48.0118l4.97421 -24.8711
l90.1513 34.2037l168.519 13.9909l163.859 -8.05849l72.0585 -32.0852l24.6852 -76.5829c-11.2968 -92.7231 -11.5388 -94.7093 -10.6225 -98.1968c0.272553 -1.03738 0.408327 -1.98777 0.495372 -2.92219c0.487753 -0.641757 1.13403 -1.58506 1.4862 -2.05622
l30.4464 -40.7334l38.0432 -60.0682l23.93 -33.502l-96.7113 -80.2498l-3.19974 -219.288c0.962733 -7.56244 2.78458 -22.0112 5.01798 -45.877c-0.12894 -0.269919 -9.65147 -20.9678 -12.8349 -27.02c-1.80565 -3.43278 -3.36365 -6.39475 -8.94453 -11.1259
c-28.726 -6.87192 -37.6748 -9.01268 -53.7943 -9.01268c-3.38415 0 -6.77838 0.14333 -10.1737 0.446144l-127.95 -3.2205l-189.706 31.9736l-119.91 72.0259l-21.8729 31.5454c-0.18608 0.126152 -14.9542 10.3475 -18.5829 12.6523v-31.4635
c5.41685 -3.87145 13.5068 -7.36272 24.4398 -17.2503c7.32645 -6.62591 2.09556 -4.45645 10.6241 -11.9264c1.03002 -0.902171 1.03002 -0.902171 17.2005 -21.8062l70.2643 -41.1391l123.979 -35.7692l40.8353 -3.74581
c52.8258 -4.90757 59.0669 -6.73248 83.0467 -7.42728l68.08 -1.97257l89.7606 0.254271l51.1066 12.4914l15.1376 25.2075l6.27671 34.16l-0.268638 82.9487l0.0291888 84.2282l-0.00582149 87.5189l84.7837 67.8016l7.68593 8.96692l1.11464 7.19504
c0.44913 7.61262 -1.52476 12.8022 -3.31214 18.1783l-23.3304 38.8443l-33.0243 43.448l-34.3179 48.9016c-0.202711 16.1296 -0.202711 16.1296 -0.202711 17.6951zM33.2949 712.521h55.5146l17.1611 52.2256l17.1602 -52.2256h55.5156l-44.8672 -32.2959
l17.1611 -52.2246l-44.9697 32.2959l-44.9707 -32.2959l17.1611 52.2246zM781.501 221.674v3.4873v1.33887zM515.641 230.215c36.5312 0 74.0205 20.2715 85.4365 60.6465l1.52539 5.39258l23.3096 -6.52637c-3.50293 -12.5996 -8.74902 -31.4629 -27.5381 -50.251
c-21.7988 -21.7988 -52.5566 -32.9746 -83.0781 -32.9746c-29.0264 0 -57.8389 10.1074 -78.5273 30.7959c-19.2646 19.2646 -24.248 39.5703 -27.4785 52.7295l23.3936 5.37988c3.00684 -11.5801 6.91699 -26.6367 21.5791 -41.2988
c16.0146 -16.0146 38.5898 -23.8936 61.3779 -23.8936zM324.459 298.132c0 87.7891 86.8037 159.374 193.874 159.374c107.078 0 193.874 -71.4658 193.874 -159.249c0 -87.7881 -86.8037 -159.373 -193.874 -159.373c-107.078 0 -193.874 71.4658 -193.874 159.248z
M348.207 298.257c0 -74.8262 76.5957 -135.626 170.126 -135.626c93.5254 0 170.126 60.6719 170.126 135.501c0 74.8271 -76.5957 135.626 -170.126 135.626c-93.5254 0 -170.126 -60.6709 -170.126 -135.501zM562.283 357.957c0 9.4502 6.75 17.1006 15.2998 17.1006
c8.5498 0 15.2998 -7.65039 15.2998 -17.1006s-6.75 -17.0996 -15.2998 -17.0996c-8.5498 0 -15.2998 7.64941 -15.2998 17.0996zM453.383 358.857c0 9 6.75 16.2002 15.3008 16.2002c8.5498 0 15.2998 -7.2002 15.2998 -16.2002s-6.75 -16.2002 -15.2998 -16.2002
c-8.55078 0 -15.3008 7.2002 -15.3008 16.2002z" />
  </g>

</svg>
