<?xml version="1.0" standalone="no"?>
<!DOCTYPE svg PUBLIC "-//W3C//DTD SVG 1.1//EN" "http://www.w3.org/Graphics/SVG/1.1/DTD/svg11.dtd" >
<svg xmlns="http://www.w3.org/2000/svg" xmlns:xlink="http://www.w3.org/1999/xlink" version="1.1" viewBox="-10 0 1032 1000">
  <g transform="matrix(1 0 0 -1 0 800)">
   <path fill="currentColor"
d="M377.917 -57.3809c-4.47363 0 -8.32812 3.64746 -8.32812 8.3291v292.603c0 4.48828 3.65918 8.3291 8.35645 8.3291c0 0 82.0684 -0.332031 97.4229 -0.393555l56.5332 51.1475l2.64941 -20.6416l1.95117 -36.0742l206.065 4.49023
c4.46191 0.0976562 8.29688 -3.66406 8.29688 -8.3291v-84.374l49.9424 -58.1514l-38.1055 2.06348l-13.6504 1.9502l1.81348 -154.091c0.0527344 -4.47754 -3.67285 -8.32812 -8.35742 -8.32812zM728.576 100.643l-25.3496 -3.90039l-31.9082 4.23047l53.1367 58.2764
v64.7783l-186.004 2.39062l-0.974609 -30.2256l-1.17578 -22.9141l-61.4512 51.8213l-78.8496 0.337891v-256.438l328.455 -1.41113zM63.3545 -23.4795h55.5146l17.1611 52.2256l17.1602 -52.2256h55.5156l-44.8672 -32.2959l17.1611 -52.2246l-44.9697 32.2959
l-44.9707 -32.2959l17.1611 52.2246zM491.222 413.155l-360 1.2002v23.7549h322.778v134.89h-322.778v23.7549l356.8 -2zM758.666 677.557c92.2227 0 167.334 -61.2227 167.334 -136.557c0 -75.333 -75.1113 -136.666 -167.334 -136.666s-167.334 61.2227 -167.334 136.555
c0 75.334 75.1113 136.668 167.334 136.668zM758.666 415.444c86.1113 0 156.223 56.2227 156.223 125.444c0 69.2227 -70.1113 125.556 -156.223 125.556s-156.223 -56.2217 -156.223 -125.444c0 -69.2217 70.1113 -125.556 156.223 -125.556zM679.666 534.223
l-11.1113 -2.55566c21.8867 -89.1699 156.597 -85.3564 180.334 0l-11.1113 3.11133c-21.1953 -74.9541 -137.894 -78.4102 -158.111 -0.555664zM793.332 608.867c0 8.39941 6 15.2002 13.6006 15.2002c7.59961 0 13.5996 -6.80078 13.5996 -15.2002
c0 -8.40039 -6 -15.2002 -13.5996 -15.2002c-7.60059 0 -13.6006 6.7998 -13.6006 15.2002zM695 610c0 10 7.53223 14.0674 15.1328 14.0674c7.59961 0 13.5996 -6.40039 13.5996 -14.4004s-6 -14.4004 -13.5996 -14.4004c-7.60059 0 -15.1328 4.7334 -15.1328 14.7334z" />
  </g>

</svg>
