<?xml version="1.0" standalone="no"?>
<!DOCTYPE svg PUBLIC "-//W3C//DTD SVG 1.1//EN" "http://www.w3.org/Graphics/SVG/1.1/DTD/svg11.dtd" >
<svg xmlns="http://www.w3.org/2000/svg" xmlns:xlink="http://www.w3.org/1999/xlink" version="1.1" viewBox="-10 0 1008 1000">
  <g transform="matrix(1 0 0 -1 0 800)">
   <path fill="currentColor"
d="M378.35 469.774c-42.4658 0 -95.8115 9.60449 -146.54 9.60449c-11.7041 0 -17.6426 -0.0966797 -39.7891 -2.26074l36.9277 40.2773l-26.2002 2.5918l-51.4766 -57.668c6.66699 -8.81055 9.37988 -12.3945 11.4941 -17.623
c0.0380859 -0.00585937 0.0380859 -0.00585937 1.56934 -0.206055l26.2129 -38.3311l26.2129 -2.5918l-31.9209 45.7539c16.1006 1.52148 27.9521 2.39355 49.543 2.39355c40.4551 0 82.002 -3.71094 119.749 -3.71094c14.2207 0 27.8457 0.52832 40.5967 1.98242
c40.0293 4.56543 95.9756 27.9658 98.7119 90.1211c0.493164 11.1973 0.493164 11.1973 0.493164 13.835c0 10.6514 -1.84766 18.083 -11.0713 30.4199c-8.14551 10.8955 -30.7705 12.8564 -52.9502 12.8564c-29.4346 0 -66.7852 -3.52637 -103.739 -3.52637
c-49.6729 0 -100.376 6.31055 -134.629 36.0957c-0.397461 -0.717773 -1.37402 -2.42285 -3.02051 -3.59863c-3.24316 -2.31641 -3.43945 -7.41504 -3.43945 -8.61328c0 -5.48438 3.93848 -8.50684 8.31934 -11.8701c33.8408 -25.9795 67.3604 -34.3242 106.726 -34.3242
c18.5166 0 70.627 3.41016 110.271 3.41016c44.3818 0 53.9727 -4.34082 56.7529 -9.61914c2.53418 -4.8125 3.56934 -10.5742 3.56934 -16.749c0 -22.4775 -14.0127 -54.5039 -25.6904 -62.8447c-16.9551 -12.1104 -40.124 -15.8047 -66.6816 -15.8047zM788.802 474.615
c-42.4658 0 -95.8115 9.60449 -146.54 9.60449c-11.7041 0 -17.6426 -0.0966797 -39.7891 -2.26074l36.9277 40.2773l-26.2002 2.5918l-51.4766 -57.668c6.66699 -8.81055 9.37988 -12.3945 11.4941 -17.623c0.0380859 -0.00585938 0.0380859 -0.00585938 1.56934 -0.206055
l26.2129 -38.3311l26.2129 -2.5918l-31.9209 45.7539c16.1006 1.52148 27.9521 2.39355 49.543 2.39355c40.4551 0 82.002 -3.71094 119.749 -3.71094c14.2207 0 27.8457 0.52832 40.5967 1.98242c40.0293 4.56543 95.9756 27.9658 98.7119 90.1211
c0.493164 11.1973 0.493164 11.1973 0.493164 13.835c0 10.6514 -1.84766 18.083 -11.0713 30.4199c-8.14551 10.8955 -30.7705 12.8564 -52.9502 12.8564c-29.4346 0 -66.7852 -3.52637 -103.739 -3.52637c-49.6729 0 -100.376 6.31055 -134.629 36.0957
c-0.397461 -0.717773 -1.37402 -2.42285 -3.02051 -3.59863c-3.24316 -2.31641 -3.43945 -7.41504 -3.43945 -8.61328c0 -5.48438 3.93848 -8.50684 8.31934 -11.8701c33.8408 -25.9795 67.3604 -34.3242 106.726 -34.3242c18.5166 0 70.627 3.41016 110.271 3.41016
c44.3818 0 53.9727 -4.34082 56.7529 -9.61914c2.53418 -4.8125 3.56934 -10.5742 3.56934 -16.749c0 -22.4775 -14.0127 -54.5039 -25.6904 -62.8447c-16.9551 -12.1104 -40.124 -15.8047 -66.6816 -15.8047zM348.481 97.6934l-82.2217 148.848l24.0225 10.1475
l58.4395 -100.383l53.3027 101.418l27.2285 -11.0254zM265.568 -67.707v34.6641h38.626v22.0713h-38.626v34.6641h38.626v33.7148h31.3828v-33.7148h23.2197v31.2539h31.3828v-31.2539h41.292v-34.6641h-41.292v-22.0713h41.292v-34.6641h-41.292v-36.1855h-31.3828v36.1855
h-23.2197v-33.7246h-31.3828v33.7246h-38.626zM335.577 -33.043h23.2197v22.0713h-23.2197v-22.0713zM780.659 223.904c-0.529297 0 -0.985352 0.173828 -1.32227 0.358398l-214.094 -88.2627v-37.8242c12.126 5.10742 24.251 10.2148 36.376 15.3213v-3.77051
l-0.21875 -161.659h318.305l0.646484 155.446c10.9619 -6.48535 21.9238 -12.9697 32.8867 -19.4551l-0.677734 40.7051l-136.33 79.1182l1.46387 0.616211c-22.6963 11.7715 -24.457 12.7314 -36.2109 19.5508c-0.288086 -0.102539 -0.56543 -0.144531 -0.824219 -0.144531
zM884.594 -16.7148h-248.003l-0.665039 144.662l142.009 59.8174l107.859 -63.8086zM63.3545 -23.4795h55.5146l17.1611 52.2256l17.1602 -52.2256h55.5156l-44.8672 -32.2959l17.1611 -52.2246l-44.9697 32.2959l-44.9707 -32.2959l17.1611 52.2246z" />
  </g>

</svg>
