<?xml version="1.0" standalone="no"?>
<!DOCTYPE svg PUBLIC "-//W3C//DTD SVG 1.1//EN" "http://www.w3.org/Graphics/SVG/1.1/DTD/svg11.dtd" >
<svg xmlns="http://www.w3.org/2000/svg" xmlns:xlink="http://www.w3.org/1999/xlink" version="1.1" viewBox="-10 0 950 1000">
  <g transform="matrix(1 0 0 -1 0 800)">
   <path fill="currentColor"
d="M467.888 554.051l-84.3936 -47.5547l84.3936 -47.7998l-13.6348 -24.0225l-78.9863 49.7607v-92.4131h-26.7998v92.4131l-78.9863 -49.7607l-13.6348 24.0225l84.3936 47.7998l-84.3936 47.5547l13.6348 24.2676l78.9863 -49.7607v92.4131h26.7998v-92.4131
l78.9863 49.7607zM869.635 551.377l-84.3936 -47.5547l84.3936 -47.7998l-13.6348 -24.0225l-78.9863 49.7607v-92.4131h-26.7998v92.4131l-78.9863 -49.7607l-13.6348 24.0225l84.3936 47.7998l-84.3936 47.5547l13.6348 24.2676l78.9863 -49.7607v92.4131h26.7998
v-92.4131l78.9863 49.7607zM364.488 -155.935c-7.40332 0 -13.541 6.02734 -13.541 13.541v300.105c0 7.42871 6.04688 13.542 13.5918 13.542c0 0 84.0664 -0.339844 97.9805 -0.396484l63.6426 57.5801c3.96582 -30.957 3.96582 -30.957 6.45312 -59.3027
c0 0 205.859 0.609375 205.898 0.609375c7.33203 0 13.4844 -6.04883 13.4844 -13.541v-84.6846l57.6465 -67.1211c-51.4336 2.8252 -51.4336 2.8252 -59.4375 3.96777l1.79297 -152.365c0 -7.3457 -6.06836 -13.4434 -13.5938 -13.4434zM724.14 11.1396l-26 -4
l-32.7266 4.33887l54.499 59.7695v66.4404l-190.772 2.45117l-1 -31l-1.20605 -23.502l-63.0273 53.1504l-80.8701 0.34668v-263.013l336.876 -1.44727zM54.3545 716.521h55.5146l17.1611 52.2256l17.1602 -52.2256h55.5156l-44.8672 -32.2959l17.1611 -52.2246
l-44.9697 32.2959l-44.9707 -32.2959l17.1611 52.2246z" />
  </g>

</svg>
