<?xml version="1.0" standalone="no"?>
<!DOCTYPE svg PUBLIC "-//W3C//DTD SVG 1.1//EN" "http://www.w3.org/Graphics/SVG/1.1/DTD/svg11.dtd" >
<svg xmlns="http://www.w3.org/2000/svg" xmlns:xlink="http://www.w3.org/1999/xlink" version="1.1" viewBox="-10 0 1032 1000">
  <g transform="matrix(1 0 0 -1 0 800)">
   <path fill="currentColor"
d="M591.694 563.701zM884.198 499.193c0 -95.6104 -77.584 -173.193 -173.198 -173.193c-95.6133 0 -173.197 77.583 -173.197 173.196c0 37.3174 11.793 71.5615 31.5664 99.543c-0.901367 0.904297 -67.7461 67.6797 -90.2432 90.3418
c-1.33301 2.52539 -5.80176 12.2822 0.750977 18.835l3.01758 3.01758c4.52148 4.51953 13.3262 6.35742 19.6855 -0.000976562l87.7188 -87.7197c69.6865 67.748 179.867 64.9238 246.28 -5.23633c0.594727 0.792969 0.594727 0.792969 91.7998 91.9971
c6.35742 6.3584 15.1631 4.52344 19.6855 0.000976563c0 -0.000976563 3.01953 -3.01953 3.01953 -3.01953c6.35449 -6.35742 4.51953 -15.1611 -0.00292969 -19.6836l-90.5127 -90.5137c-1.45508 -1.4541 -3.0625 -2.47852 -4.72559 -3.13672
c17.7979 -27.1553 28.2178 -59.6084 28.3555 -94.4277zM712.28 352.238c75.1279 0 142.401 76.2539 142.401 151.36c0 75.1309 -68.6045 139.841 -143.682 139.841c-75.1191 0 -143.681 -68.5557 -143.681 -143.682c0 -76.3018 72.2568 -147.52 144.961 -147.52z
M780.659 223.904c-0.529297 0 -0.985352 0.173828 -1.32227 0.358398l-214.094 -88.2627v-37.8242c12.126 5.10742 24.251 10.2148 36.376 15.3213v-3.77051l-0.21875 -161.659h318.305l0.646484 155.446c10.9619 -6.48535 21.9238 -12.9697 32.8867 -19.4551
l-0.677734 40.7051l-136.33 79.1182l1.46387 0.616211c-22.6963 11.7715 -24.457 12.7314 -36.2109 19.5508c-0.288086 -0.102539 -0.56543 -0.144531 -0.824219 -0.144531zM884.594 -16.7148h-248.003l-0.665039 144.662l142.009 59.8174l107.859 -63.8086z
M348.481 97.6934l-82.2217 148.848l24.0225 10.1475l58.4395 -100.383l53.3027 101.418l27.2285 -11.0254zM265.568 -67.707v34.6641h38.626v22.0713h-38.626v34.6641h38.626v33.7148h31.3828v-33.7148h23.2197v31.2539h31.3828v-31.2539h41.292v-34.6641h-41.292v-22.0713
h41.292v-34.6641h-41.292v-36.1855h-31.3828v36.1855h-23.2197v-33.7246h-31.3828v33.7246h-38.626zM335.577 -33.043h23.2197v22.0713h-23.2197v-22.0713zM63.3545 -23.4795h55.5146l17.1611 52.2256l17.1602 -52.2256h55.5156l-44.8672 -32.2959l17.1611 -52.2246
l-44.9697 32.2959l-44.9707 -32.2959l17.1611 52.2246zM384 462l-315 1.0498v20.7861h282.431v118.028h-282.431v20.7861l312.2 -1.75z" />
  </g>

</svg>
