<?xml version="1.0" standalone="no"?>
<!DOCTYPE svg PUBLIC "-//W3C//DTD SVG 1.1//EN" "http://www.w3.org/Graphics/SVG/1.1/DTD/svg11.dtd" >
<svg xmlns="http://www.w3.org/2000/svg" xmlns:xlink="http://www.w3.org/1999/xlink" version="1.1" viewBox="-10 0 1014 1000">
  <g transform="matrix(1 0 0 -1 0 800)">
   <path fill="currentColor"
d="M30.3242 741.553h55.5146l17.1611 52.2256l17.1602 -52.2256h55.5156l-44.8672 -32.2959l17.1611 -52.2246l-44.9697 32.2959l-44.9707 -32.2959l17.1611 52.2246zM271 608l-12 60c128.725 89.7881 355.203 55.3633 442.457 48.5605
c0 -0.0107422 0.000976562 -0.0214844 0.000976562 -0.0322266c27.4463 0.582031 75.1855 -1.32129 107.268 -33.4033c40.1396 -40.1396 38.6152 -108.841 37.5254 -169.365c-0.395508 -21.9258 -0.433594 -33.2402 -0.22168 -41.9463
c26.3789 -43.8281 72.168 -89.959 89.3252 -129.607c6.95117 -16.0635 5.49219 -24.7637 2.64551 -40.2051l-12 -14l-79.501 -63.5771v-212.431c1.93945 -31.0869 1.82422 -79.2412 -27.416 -108.48c-26.0322 -26.0322 -182.507 -12.0195 -220.584 -13.0049
l-2.90137 0.0126953c-103.732 -7.2998 -296.108 50.6025 -326.603 92.1719c-18.5059 25.2275 -31.4014 41.2529 -57.9951 55.3086v70.0371c25.8174 -16.2627 49.624 -17.8066 70.1904 -60.6357c44.2188 -92.082 349.455 -105.734 451.309 -108.438l-0.499023 -0.962891
c50 12 34.1514 4.48145 42.5352 13.5361c19.1768 20.7119 3.97852 41.9688 5.50781 57.9648h-0.541992v2.14941c-0.253906 0.990234 -0.500977 1.94141 -0.738281 2.84863h0.738281v207.174v3.4873v1.33887h1.58203l104 88h1.13281
c4.9834 45.8955 -62.8379 92.1289 -94.2158 139.501l-3 4l-1 1c-2.02051 3.99219 0.0439453 4.02539 -2.08398 11.5605c-0.0371094 0.130859 -0.189453 0.24707 -0.174805 0.367188l0.258789 2.07227l0.0644531 1.49902
c0.00976562 0.226562 0.150391 3.89551 0.242188 6.24414c3.11426 79.1523 5.19727 173.389 -83.8154 173.771c-136.35 16.7461 -373.536 9.53418 -431.49 -46.5137zM674.372 389.679c-0.000976562 -0.107422 -0.000976562 -0.280273 -0.000976562 -0.387695
c0 -25.916 12.3701 -61.2803 27.6123 -78.9385c9.59277 -11.1465 3.84277 -31.6855 -8.26465 -33.1963c-3.34863 -0.55957 -8.80957 -1.01367 -12.1885 -1.01367c-0.0917969 0 -0.241211 0.000976563 -0.333984 0.000976563
c-50.2627 0.604492 -92.0566 51.8525 -93.29 114.392c-0.00878906 0.610352 -0.0166016 1.59961 -0.0166016 2.20996c0 64.5205 42.0742 116.886 93.916 116.886c5.06445 0 13.2061 -0.990234 18.1748 -2.20996c11.6475 -3.05371 16.5381 -23.4297 6.63672 -33.4287
c-17.7998 -17.96 -32.2451 -55.6807 -32.2451 -84.1982v-0.115234zM699.98 292.43c0.271484 1.0166 0.491211 2.71191 0.491211 3.7832c0 2.91211 -1.39844 6.87207 -3.12109 8.84082c-16.1641 19.082 -29.2822 57.0732 -29.2822 84.8018
c0 30.5244 15.3906 71.0107 34.3535 90.3701c1.79395 1.79492 3.25098 5.57715 3.25098 8.44238c0 5.72852 -3.55176 10.4072 -7.38281 11.3496c-4.67285 1.15625 -12.3301 2.09961 -17.0938 2.10449h-2.12891c-47.3887 -2.16113 -85.9502 -51.9355 -85.5264 -111.431
c1.03613 -60.1709 40.7773 -106.775 89.3213 -106.775c2.76367 0 7.23438 0.323242 9.97949 0.72168c3.13086 0.503906 6.3291 3.99414 7.13867 7.79199zM509 300.888c64.5078 -0.0849609 116.862 -50.5303 116.862 -112.6v-0.0771484
c-0.133789 -61.9404 -52.4883 -112.211 -116.862 -112.211c-64.5088 0 -116.863 50.375 -116.863 112.444c0 62.0693 52.3545 112.443 116.863 112.443zM617.602 191.795c-0.802734 21.4346 -13.792 51.5615 -28.9932 67.248l-45.5947 -43.8711
c4.97363 -5.58203 9.58105 -16.0557 10.2852 -23.377h64.3027zM513.049 292.628l-0.0810547 -62.3389c7.53613 -0.621094 18.4209 -4.8457 24.2959 -9.42871l45.5947 43.8711c-16.2842 14.6113 -47.5586 27.1084 -69.8096 27.8965zM504.95 292.628
c-22.2412 -0.769531 -53.5156 -13.2324 -69.8096 -27.8184l45.5137 -43.9492c5.875 4.58301 16.7598 8.80762 24.2959 9.42871v62.3389zM429.39 259.276c-15.251 -15.7412 -28.2393 -45.9727 -28.9922 -67.4814h64.3027c0.704102 7.32129 5.3125 17.7949 10.2852 23.377z
M400.397 184.003c0.867188 -21.3359 13.8564 -51.3223 28.9922 -66.9365l45.5146 43.5596c-4.97363 5.58203 -9.58105 16.0547 -10.2852 23.377h-64.2217zM504.95 83.7148l0.0810547 62.3389c-7.53613 0.621094 -18.4209 4.84473 -24.2959 9.42871l-45.5947 -43.8711
c16.2842 -14.6104 47.5586 -27.1084 69.8096 -27.8965zM513.049 83.7148c22.2764 0.772461 53.5879 13.2695 69.8916 27.8965l-45.5957 43.8711c-5.875 -4.58398 -16.7598 -8.80762 -24.2959 -9.42871v-62.3389zM588.608 117.066
c15.1104 15.623 28.0635 45.6104 28.9121 66.9365h-64.2217c-0.704102 -7.32227 -5.31152 -17.7949 -10.2852 -23.377zM472.556 188.211c0 -44.6797 72.8877 -44.4502 72.8877 0c0 19.0645 -16.3164 34.5195 -36.4434 34.5195
c-20.1279 0 -36.4443 -15.4551 -36.4443 -34.5195z" />
  </g>

</svg>
