<?xml version="1.0" standalone="no"?>
<!DOCTYPE svg PUBLIC "-//W3C//DTD SVG 1.1//EN" "http://www.w3.org/Graphics/SVG/1.1/DTD/svg11.dtd" >
<svg xmlns="http://www.w3.org/2000/svg" xmlns:xlink="http://www.w3.org/1999/xlink" version="1.1" viewBox="-10 0 933 1000">
  <g transform="matrix(1 0 0 -1 0 800)">
   <path fill="currentColor"
d="M57.3604 732.396l37.1855 54.043c2.29785 3.33789 7.27246 3.3457 9.66113 0.306641l45.2246 -57.542c2.13086 -2.71191 1.47852 -6.79004 -1.3916 -8.70215c-0.647461 -0.430664 -1.41797 -0.741211 -2.13965 -0.887695l-7.70508 -1.55469
c-2.23438 -0.450195 -4.58496 0.498047 -5.90234 2.17188l-24.293 30.8799l1.17383 -123.925c0.0332031 -3.49219 -3.05469 -6.2207 -6.31641 -6.04785l-7.37012 0.388672c-3.27148 0.171875 -5.69727 3.08691 -5.68359 6.01953l0.578125 122.085l-19.7871 -28.708
c-1.95801 -2.83984 -6.04492 -3.42676 -8.72266 -1.25293c-0.408203 0.332031 -1.05078 1.10156 -1.0918 1.1582l-3.35059 4.66602c-1.54785 2.15625 -1.2666 5.16016 -0.0693359 6.90137zM452.4 -93.959h203.328v-12.375h-426.527v12.375h208.799v263.959h-151.199v12.375
h151.199v86.625h14.4004v-86.625h151.2v-12.375h-151.2v-263.959zM606 658c-0.000976562 -0.107422 -0.000976562 -0.280273 -0.000976562 -0.387695c0 -25.916 12.3701 -61.2803 27.6123 -78.9385c9.59277 -11.1465 3.84277 -31.6855 -8.26465 -33.1963
c-3.34863 -0.55957 -8.80957 -1.01367 -12.1885 -1.01367c-0.0917969 0 -0.241211 0.000976562 -0.333984 0.000976562c-50.2627 0.604492 -92.0566 51.8525 -93.29 114.392c-0.00878906 0.610352 -0.0166016 1.59961 -0.0166016 2.20996
c0 64.5205 42.0742 116.886 93.916 116.886c5.06445 0 13.2061 -0.990234 18.1748 -2.20996c11.6475 -3.05371 16.5381 -23.4297 6.63672 -33.4287c-17.7998 -17.96 -32.2451 -55.6807 -32.2451 -84.1982v-0.115234zM631.608 560.751
c0.271484 1.0166 0.491211 2.71191 0.491211 3.7832c0 2.91211 -1.39844 6.87207 -3.12109 8.84082c-16.1641 19.082 -29.2822 57.0732 -29.2822 84.8018c0 30.5244 15.3906 71.0107 34.3535 90.3701c1.79395 1.79492 3.25098 5.57715 3.25098 8.44238
c0 5.72852 -3.55176 10.4072 -7.38281 11.3496c-4.67285 1.15625 -12.3301 2.09961 -17.0938 2.10449h-2.12891c-47.3887 -2.16113 -85.9502 -51.9355 -85.5264 -111.431c1.03613 -60.1709 40.7773 -106.775 89.3213 -106.775c2.76367 0 7.23438 0.323242 9.97949 0.72168
c3.13086 0.503906 6.3291 3.99414 7.13867 7.79199zM440.628 569.209c64.5078 -0.0849609 116.862 -50.5303 116.862 -112.6v-0.0771484c-0.133789 -61.9404 -52.4883 -112.211 -116.862 -112.211c-64.5088 0 -116.863 50.375 -116.863 112.444
s52.3545 112.443 116.863 112.443zM549.229 460.116c-0.802734 21.4346 -13.792 51.5615 -28.9932 67.248l-45.5947 -43.8711c4.97363 -5.58203 9.58105 -16.0557 10.2852 -23.377h64.3027zM444.677 560.949l-0.0810547 -62.3389
c7.53613 -0.621094 18.4209 -4.8457 24.2959 -9.42871l45.5947 43.8711c-16.2842 14.6113 -47.5586 27.1084 -69.8096 27.8965zM436.578 560.949c-22.2412 -0.769531 -53.5156 -13.2324 -69.8096 -27.8184l45.5137 -43.9492c5.875 4.58301 16.7598 8.80762 24.2959 9.42871
v62.3389zM361.018 527.598c-15.251 -15.7412 -28.2393 -45.9727 -28.9922 -67.4814h64.3027c0.704102 7.32129 5.3125 17.7949 10.2852 23.377zM332.025 452.324c0.867188 -21.3359 13.8564 -51.3223 28.9922 -66.9365l45.5146 43.5596
c-4.97363 5.58203 -9.58105 16.0547 -10.2852 23.377h-64.2217zM436.578 352.036l0.0810547 62.3389c-7.53613 0.621094 -18.4209 4.84473 -24.2959 9.42871l-45.5947 -43.8711c16.2842 -14.6104 47.5586 -27.1084 69.8096 -27.8965zM444.677 352.036
c22.2764 0.772461 53.5879 13.2695 69.8916 27.8965l-45.5957 43.8711c-5.875 -4.58398 -16.7598 -8.80762 -24.2959 -9.42871v-62.3389zM520.236 385.388c15.1104 15.623 28.0635 45.6104 28.9121 66.9365h-64.2217c-0.704102 -7.32227 -5.31152 -17.7949 -10.2852 -23.377
zM404.184 456.532c0 -44.6797 72.8877 -44.4502 72.8877 0c0 19.0645 -16.3164 34.5195 -36.4434 34.5195c-20.1279 0 -36.4443 -15.4551 -36.4443 -34.5195z" />
  </g>

</svg>
