<?xml version="1.0" standalone="no"?>
<!DOCTYPE svg PUBLIC "-//W3C//DTD SVG 1.1//EN" "http://www.w3.org/Graphics/SVG/1.1/DTD/svg11.dtd" >
<svg xmlns="http://www.w3.org/2000/svg" xmlns:xlink="http://www.w3.org/1999/xlink" version="1.1" viewBox="-10 0 1032 1000">
  <g transform="matrix(1 0 0 -1 0 800)">
   <path fill="currentColor"
d="M293.015 735.265c13 3 37.042 -6.60156 36.5 -32c-0.341797 -16.0664 -18.4766 -29.8857 -18.5 -31.5c0 0 2.5 -29 -2.01465 -144.765l131.802 -0.796875c7.88672 19.917 35.1475 28.4932 52.6924 10.9492c20.583 -20.584 5.19141 -54.6826 -22.4609 -54.8867
c-12.6523 -0.0927734 -23.8232 7.39453 -29.1416 18.1504c-1.14844 0.385742 -1.53711 0.489258 -1.64453 0.420898l-130.965 -0.413086l0.931641 -126.237c32.1865 -13.7607 22.0713 -61.668 -12.1807 -61.9209c-33.8506 -0.249023 -45.5684 47.1895 -13.0664 61.5664
l-0.933594 126.416l-144.444 -1.06641c-16.4854 -29.1025 -59.8379 -16.3457 -60.0732 15.5645c-0.262695 35.5938 50.3018 44.8672 62.5518 11.0527l141.684 1.04688l-0.736328 146.419s-43.5 42.5 10 62c9.23828 4.70605 -4.23145 -1.53906 0 0zM449.482 312.133
c-4.7838 0 -8.57227 -3.90243 -8.57227 -8.54297v-300.105c0 -4.76644 3.91806 -8.54199 8.54199 -8.54199l373.938 -1.50879c4.70995 0 8.57248 3.82649 8.57227 8.54199l-0.804688 155.248l12.9453 0.793945l39.083 -2.11719l-51.2236 59.6426v86.5381
c0 4.73161 -3.8704 8.54202 -8.50977 8.54199l-212.295 -0.399414l-1.04736 32.5661c-0.757026 6.13794 -1.30885 10.4137 -2.72643 21.3975l-57.9821 -52.4588l-1.93917 0.00784629s-97.9604 0.39641 -97.9808 0.396451zM468 22v263.013l80.8701 -0.34668l63.0282 -53.1511
c-0.633312 23.9234 -0.811447 31.821 -0.811447 39.3873c0 2.90293 0.00450494 3.61011 0.121833 15.3208l193.667 -2.65653v-66.4404l-54.4988 -59.7693c38.1592 1.01151 38.1592 1.01151 54.7812 1.91327l-0.282321 -138.717zM34.3545 -40.4795h55.5146l17.1611 52.2256
l17.1602 -52.2256h55.5156l-44.8672 -32.2959l17.1611 -52.2246l-44.9697 32.2959l-44.9707 -32.2959l17.1611 52.2246z" />
  </g>

</svg>
