<?xml version="1.0" standalone="no"?>
<!DOCTYPE svg PUBLIC "-//W3C//DTD SVG 1.1//EN" "http://www.w3.org/Graphics/SVG/1.1/DTD/svg11.dtd" >
<svg xmlns="http://www.w3.org/2000/svg" xmlns:xlink="http://www.w3.org/1999/xlink" version="1.1" viewBox="-10 0 1024 1000">
  <g transform="matrix(1 0 0 -1 0 800)">
   <path fill="currentColor"
d="M349.049 147.403l-82.2217 148.848l24.0225 10.1475l58.4395 -100.383l53.3027 101.418l27.2285 -11.0254zM266.136 -17.9971v34.6641h38.626v22.0713h-38.626v34.6641h38.626v33.7148h31.3828v-33.7148h23.2197v31.2539h31.3828v-31.2539h41.292v-34.6641h-41.292
v-22.0713h41.292v-34.6641h-41.292v-36.1855h-31.3828v36.1855h-23.2197v-33.7246h-31.3828v33.7246h-38.626zM336.145 16.667h23.2197v22.0713h-23.2197v-22.0713zM922.762 -4.72168h-323.297l0.216797 164.161c-12.123 -5.10645 -24.2471 -10.2129 -36.3701 -15.3193
v43.2637l216.847 89.3984c0.620117 -0.28125 1.39551 -1.04395 1.56934 0.0556641c14.0449 -8.15234 14.0449 -8.15234 42.4219 -22.8662l-1.75293 -0.737305l133.207 -77.3066l0.775391 -46.5869c-10.9932 6.50293 -21.9854 13.0059 -32.9785 19.5098zM639.646 35.4941
h243.036l1.16699 136.753l-105.537 62.4346l-139.312 -58.6816zM86.3545 -11.4795h55.5146l17.1611 52.2256l17.1602 -52.2256h55.5156l-44.8672 -32.2959l17.1611 -52.2246l-44.9697 32.2959l-44.9707 -32.2959l17.1611 52.2246zM646.212 402.527l1.16113 283.14
c0.00878906 2.27832 2.02637 3.98438 4 3.98438h22.9941c2.4209 0 4 -2.2832 4 -4v-249.866h122.574v249.866c0 2.4209 2.2832 4 4 4h22.9941c2.41211 0 4.01172 -2.25977 4 -4.02832l-1.93555 -280.623c-0.015625 -2.14844 -1.80078 -3.94141 -3.94336 -3.97168
l-175.788 -2.5166c-2.39551 -0.0341797 -4.05664 2.16309 -4.05664 4.01562z" />
  </g>

</svg>
