<?xml version="1.0" standalone="no"?>
<!DOCTYPE svg PUBLIC "-//W3C//DTD SVG 1.1//EN" "http://www.w3.org/Graphics/SVG/1.1/DTD/svg11.dtd" >
<svg xmlns="http://www.w3.org/2000/svg" xmlns:xlink="http://www.w3.org/1999/xlink" version="1.1" viewBox="-10 0 1032 1000">
  <g transform="matrix(1 0 0 -1 0 800)">
   <path fill="currentColor"
d="M592.162 -2.64453c-6.48631 0 -11.833 5.28008 -11.833 11.833v240.084c0 6.50695 5.29661 11.833 11.8768 11.833c0 0 65.7808 -0.266007 77.9974 -0.315402l52.046 47.0879c3.43504 -26.9775 3.43504 -26.9775 4.76432 -51.5598l164.49 3.58456
c6.35195 0 11.6655 -5.28664 11.6655 -11.8373v-67.3766l47.4028 -55.1928c-43.6188 2.40107 -43.6188 2.40107 -48.8219 3.14417l1.42033 -120.739c0 -6.4347 -5.3078 -11.7526 -11.8781 -11.7526zM871.655 27.8626l3.04494 98.2963l-15.5639 -2.39462l-36.374 4.82183
l48.7399 53.4539v46.2786l-142.781 1.83454c-0.434266 -15.8752 -0.434266 -15.8752 -2.12679 -48.8555l-56.7358 47.8439l-57.8597 0.248036v-200.412zM34.3545 -40.4795h55.5146l17.1611 52.2256l17.1602 -52.2256h55.5156l-44.8672 -32.2959l17.1611 -52.2246
l-44.9697 32.2959l-44.9707 -32.2959l17.1611 52.2246zM495.048 420.36l-4.36621 314.807l73.8418 -86.7021l18.584 17.7764l-105.107 117.759l-105.908 -123.885l18.9092 -16.4434l75.4854 91.2451l-2.61328 -313.14z" />
  </g>

</svg>
