<?xml version="1.0" standalone="no"?>
<!DOCTYPE svg PUBLIC "-//W3C//DTD SVG 1.1//EN" "http://www.w3.org/Graphics/SVG/1.1/DTD/svg11.dtd" >
<svg xmlns="http://www.w3.org/2000/svg" xmlns:xlink="http://www.w3.org/1999/xlink" version="1.1" viewBox="-10 0 1086 1000">
  <g transform="matrix(1 0 0 -1 0 800)">
   <path fill="currentColor"
d="M348.481 97.6934l-82.2217 148.848l24.0225 10.1475l58.4395 -100.383l53.3027 101.418l27.2285 -11.0254zM265.568 -67.707v34.6641h38.626v22.0713h-38.626v34.6641h38.626v33.7148h31.3828v-33.7148h23.2197v31.2539h31.3828v-31.2539h41.292v-34.6641h-41.292
v-22.0713h41.292v-34.6641h-41.292v-36.1855h-31.3828v36.1855h-23.2197v-33.7246h-31.3828v33.7246h-38.626zM335.577 -33.043h23.2197v22.0713h-23.2197v-22.0713zM780.659 223.904c-0.529297 0 -0.985352 0.173828 -1.32227 0.358398l-214.094 -88.2627v-37.8242
c12.126 5.10742 24.251 10.2148 36.376 15.3213v-3.77051l-0.21875 -161.659h318.305l0.646484 155.446c10.9619 -6.48535 21.9238 -12.9697 32.8867 -19.4551l-0.677734 40.7051l-136.33 79.1182l1.46387 0.616211c-22.6963 11.7715 -24.457 12.7314 -36.2109 19.5508
c-0.288086 -0.102539 -0.56543 -0.144531 -0.824219 -0.144531zM884.594 -16.7148h-248.003l-0.665039 144.662l142.009 59.8174l107.859 -63.8086zM63.3545 -23.4795h55.5146l17.1611 52.2256l17.1602 -52.2256h55.5156l-44.8672 -32.2959l17.1611 -52.2246
l-44.9697 32.2959l-44.9707 -32.2959l17.1611 52.2246zM350.421 637.07zM351.293 659.12zM201.46 639.295zM202.112 659.693zM162.677 672.296l-1.05469 2.05762l-1.00781 2.07617l-0.914062 2.10059l-0.31543 16.4971l10.2881 10.4746l14.2461 4.01855l13.8955 -3.2373
l6.43359 -7.2793l1.70605 -4.86523l-0.0175781 -9.09766l-1.77637 -11.2051l-1.41211 -14.7158h148.545l0.0849609 -2.68848l0.00390625 -2.69824v0l-0.355469 -7.32324l-0.320312 -4.73145l-0.285156 -4.6084h-146.682l0.15332 -5.39941l-0.125 -5.3916l-0.516602 -5.3457
l-4.27637 -14.5215l-5.89844 -8.04883l-4.79785 -3.33594l-11.5088 -0.77832l-8.76953 5.75098l-5.3418 6.28906l-6.60254 11.6914l-0.536133 9.94434l4.71289 10.1055l6.16699 10.874l1.22461 10.0762zM202.347 659.12v0.450195
c-0.166016 -0.205078 -0.750977 -0.550781 0 -0.450195zM350.421 637.07l0.87207 22.0498v0c-0.193359 4.75684 -0.740234 9.49609 -1.49414 14.1973c-0.573242 3.57617 -1.27637 7.13379 -1.69629 10.7305c-0.34375 2.95898 -0.46582 5.9707 0.0517578 8.90332
c0.735352 4.1709 2.8916 8.09277 6.10645 10.8486c3.21582 2.75684 7.32422 4.34961 11.5166 4.95215c4.38477 0.630859 8.89746 0.260742 13.167 -0.925781c4.26855 -1.1875 8.33105 -3.22266 11.6641 -6.1416c3.42773 -3.00293 6.02734 -7.01855 7.01074 -11.4688
c0.981445 -4.4502 0.232422 -9.15332 -1.49023 -13.3721c-0.732422 -1.79297 -1.61035 -3.52246 -2.49707 -5.24512c-0.981445 -1.9082 -1.97168 -3.81348 -2.83789 -5.77734c-0.862305 -1.95703 -1.60547 -3.97266 -2.0918 -6.05566
c-0.612305 -2.62207 -0.783203 -5.36328 -0.329102 -8.01758c0.422852 -2.46973 1.36621 -4.8252 2.5332 -7.04297c1.37109 -2.60547 3.02832 -5.04883 4.61035 -7.53418c2.0752 -3.26074 4.03125 -6.68457 4.85059 -10.4619
c0.738281 -3.39941 0.495117 -6.9834 -0.553711 -10.3008c-1.39258 -4.39941 -3.9873 -8.31641 -6.75586 -12.0078c-1.69531 -2.25879 -3.4873 -4.45117 -5.49023 -6.44238c-2.60449 -2.58984 -5.6543 -4.82617 -9.15137 -5.94727
c-3.94238 -1.26367 -8.35547 -0.94043 -12.0859 0.853516c-1.83496 0.881836 -3.50977 2.0791 -5 3.46582c-2.52051 2.34277 -4.53027 5.2041 -6.08789 8.27344c-2.34863 4.62402 -3.67773 9.71582 -4.39062 14.8535c-0.269531 1.94238 -0.448242 3.89648 -0.546875 5.85547
c-0.100586 1.95996 -0.12207 3.92285 -0.0957031 5.88574c0.0263672 1.95801 0.0986328 3.91602 0.211914 5.87207v0v0zM202.347 637.07c0.100586 -0.751953 -0.245117 -0.166992 -0.450195 0h0.450195zM622.297 514.628
c-21.0117 0.0117188 -39.3486 17.3076 -39.3486 39.5498c0 21.8242 17.7227 39.5498 39.5498 39.5498c21.8008 0 39.5498 -17.7041 39.5498 -39.5098c-0.0927734 -21.8379 -17.9141 -39.5898 -39.751 -39.5898zM635.515 478.275
c0 0.113281 -0.289062 9.25488 -0.289062 11.3213c0 0.435547 0 0.435547 0.0224609 4.65039c7.79492 2.16504 19.0781 5.29785 30.4814 16.7012c11.0693 11.0693 17.9131 26.3564 17.9131 43.2295c-0.135742 33.7588 -27.582 61.1455 -61.3525 61.1455
c-32.9355 0 -60.9365 -26.9824 -60.9365 -61.1436c0 -26.9814 17.4854 -49.8486 41.6709 -57.9756l3.39453 -1.14062l0.00585938 -3.58789c0.000976562 -0.435547 0.00195312 -0.873047 0.00195312 -1.31445c0 -42.8926 -4.00781 -115.621 -46.1406 -170.965
c-15.4541 -21.0342 -25.0723 -34.125 -30.2139 -40.79c-0.932617 -1.20898 -1.39844 -2.66406 -1.39844 -4.11816c0 -3.28711 0.84375 -3.95312 7.06055 -8.86426c1.79395 -1.41699 4.24023 -3.34961 7.59863 -6.00879c1.22168 -0.96582 2.70215 -1.4502 4.18457 -1.4502
c3.89453 0 6.56836 2.45996 17.4775 19.4248c3.6123 5.61816 7.50684 11.6895 12.0225 17.4238c11.4229 14.5078 23.6289 34.0742 32.2227 54.8604l4.6875 11.3389l4.57129 -11.3857c17.1543 -42.7266 36.1787 -63.4297 60.1299 -89.4834
c0.660156 -0.719727 2.32617 -2.17969 4.97461 -2.17969c1.29395 0 2.59668 0.369141 3.73535 1.12793c5.79102 3.86133 11.582 7.72266 17.373 11.583c0.397461 0.0966797 0.793945 0.192383 1.19043 0.289062c-9.99805 7.75293 -10.71 8.40723 -13.2744 10.9717
c-15.5586 15.5576 -55.7148 63.9561 -60.2705 112.935c-0.416016 4.46387 -1.90039 0.117188 -1.90039 9.04199c0 14.9766 5.05762 55.1797 5.05762 74.3633z" />
  </g>

</svg>
