<?xml version="1.0" standalone="no"?>
<!DOCTYPE svg PUBLIC "-//W3C//DTD SVG 1.1//EN" "http://www.w3.org/Graphics/SVG/1.1/DTD/svg11.dtd" >
<svg xmlns="http://www.w3.org/2000/svg" xmlns:xlink="http://www.w3.org/1999/xlink" version="1.1" viewBox="-10 0 1014 1000">
  <g transform="matrix(1 0 0 -1 0 800)">
   <path fill="currentColor"
d="M413.681 300.949c46.9082 0.164062 93.8154 0.164062 140.723 0c3.08691 0.0595703 6.1709 0.120117 9.25293 0.1875c11.3662 -0.175781 20.7402 5.19629 27.2549 16.623c5.86914 10.2949 8.87598 23.4717 7.62695 29.6191
c-0.567383 2.8623 -4.89453 15.6914 -6.31055 21.3281c-5.37012 21.3184 -10.6289 42.6836 -15.7773 64.0898c-3.05762 12.3203 -6.43164 24.498 -10.1123 36.5322c-3.83887 12.417 -8.45801 24.3418 -13.8545 35.7754c-4.75879 9.82812 -10.5059 18.6973 -17.2441 26.6094
c-11.5244 12.8711 -25.042 20.1602 -40.5527 21.8691c-10.584 1.27148 -20.9668 0.00878906 -31.1494 -3.79199c-9.32422 -3.79785 -17.6152 -9.7373 -24.8779 -17.8252c-6.58984 -7.5791 -12.2002 -16.1113 -16.8379 -25.5947
c-4.20801 -8.62598 -7.91309 -17.6006 -11.123 -26.9277c-3.19824 -9.33398 -6.09668 -18.8125 -8.69824 -28.4434c-1.94824 -7.26758 -3.83691 -14.5576 -5.66309 -21.8691c-3.67773 -15.2676 -7.38574 -30.5195 -11.124 -45.7627
c-1.90234 -6.96094 -3.7207 -13.9561 -5.46094 -20.9834c-1.01953 -4.30273 -1.93262 -8.64551 -2.73047 -13.0215c-2.14648 -15.5078 -0.598633 -30.8125 10.8711 -38.8711c0 0 6.69141 -5.78516 10.6182 -7.45996c2.15234 -0.763672 4.34473 -1.26855 6.57617 -1.51758
c2.87695 -0.28418 5.73926 -0.476562 8.59375 -0.56543v0zM413.681 313.716c-2.31055 0.0986328 -4.63867 0.246094 -6.97754 0.443359c-1.67676 0.158203 -3.32617 0.494141 -4.95508 1.00879c-2.89941 1.28516 -5.49316 3.18262 -7.78906 5.68848
c-6.18848 7.24512 -8.46387 16.0732 -6.82324 26.4844c0.867188 4.54688 1.84277 9.05566 2.93164 13.5254c1.99609 7.48242 3.95117 14.9844 5.86523 22.502c3.65918 15.1348 7.33301 30.2607 11.0244 45.3818c1.80664 7.19629 3.69336 14.3594 5.66211 21.4922
c3.52734 12.8516 7.70898 25.3672 12.541 37.541c3.60742 8.94727 7.92383 17.292 12.9414 25.0322c13.9287 20.7588 31.7793 30.1768 53.5498 28.251c14.7715 -1.01855 27.4805 -7.84766 38.1289 -20.4766c5.85645 -7.31934 10.8623 -15.4326 15.0166 -24.335
c4.59668 -10.0723 8.5752 -20.5215 11.9326 -31.3525c3.44824 -11.2441 6.61719 -22.6221 9.50684 -34.1309c3.80566 -15.4932 7.58301 -31.001 11.3252 -46.5166c1.41699 -5.5625 2.83203 -11.124 4.24805 -16.6885c1.55859 -6.3125 2.97461 -12.6738 4.24902 -19.0889
c0.628906 -2.98535 0.899414 -6.01758 0.80957 -9.09961c-0.935547 -9.69434 -4.72754 -17.0459 -11.3779 -22.0605c-2.15137 -1.625 -4.47656 -2.59668 -6.97949 -2.90723c-3.56152 -0.472656 -7.13281 -0.680664 -10.7197 -0.631836
c-48.0361 -0.0625 -96.0742 -0.0859375 -144.11 -0.0625v0zM568.118 -71.0498c-4.12891 0 -7.6875 3.36719 -7.6875 7.68848v270.094c0 4.14453 3.37793 7.68945 7.71484 7.68945c0 0 75.7539 -0.306641 89.9277 -0.364258l52.1846 47.2139l2.44629 -19.0537
l1.7998 -33.2998l190.215 4.14551c4.11816 0.0898438 7.65918 -3.38281 7.65918 -7.68848v-77.8848l46.1006 -53.6777l-35.1748 1.90527l-12.5996 1.7998l1.67383 -142.237c0.0478516 -4.13281 -3.39062 -7.6875 -7.71484 -7.6875zM891.804 74.8174l-23.3994 -3.59961
l-29.4541 3.90527l49.0498 53.793v59.7959l-171.696 2.20605l-0.899414 -27.9004l-1.08496 -21.1514l-56.7246 47.835l-72.7842 0.3125v-236.712l303.189 -1.30176zM36.3545 736.521h55.5146l17.1611 52.2256l17.1602 -52.2256h55.5156l-44.8672 -32.2959l17.1611 -52.2246
l-44.9697 32.2959l-44.9707 -32.2959l17.1611 52.2246zM289 618h408.334v-14.81h-408.334v14.81z" />
  </g>

</svg>
