<?xml version="1.0" standalone="no"?>
<!DOCTYPE svg PUBLIC "-//W3C//DTD SVG 1.1//EN" "http://www.w3.org/Graphics/SVG/1.1/DTD/svg11.dtd" >
<svg xmlns="http://www.w3.org/2000/svg" xmlns:xlink="http://www.w3.org/1999/xlink" version="1.1" viewBox="-10 0 1145 1000">
  <g transform="matrix(1 0 0 -1 0 800)">
   <path fill="currentColor"
d="M1000.45 692.68l-87.333 -88.2002l95.04 -87.3604l-12.374 -10.3066l-95.1465 87.5859l-86.0537 -87.5859l-8.98633 9.82617l84.9609 86.4004l-83.5215 86.8809l11.041 10.5596l84.4805 -84l88.3193 84.4795zM194.36 732.396l37.1855 54.043
c2.29785 3.33789 7.27246 3.3457 9.66113 0.306641l45.2246 -57.543c2.13086 -2.71191 1.47852 -6.79004 -1.3916 -8.70215c-0.647461 -0.430664 -1.41797 -0.741211 -2.13965 -0.887695l-7.70508 -1.55469c-2.23438 -0.450195 -4.58496 0.498047 -5.90234 2.17188
l-24.293 30.8799l1.17383 -123.924c0.0332031 -3.49219 -3.05469 -6.2207 -6.31641 -6.04785l-7.37012 0.388672c-3.27148 0.171875 -5.69727 3.08691 -5.68359 6.01953l0.578125 122.085l-19.7871 -28.707c-1.95801 -2.83984 -6.04492 -3.42676 -8.72266 -1.25293
c-0.408203 0.332031 -1.05078 1.10254 -1.09082 1.1582l-3.35059 4.66504c-1.54883 2.15527 -1.26855 5.15918 -0.0703125 6.90137zM74.3125 84.4307l230.033 339.63l-2.44727 1.6582l-230.034 -339.631zM72.4629 70.4648l-12.8799 8.72363
c-2.96484 2.00781 -3.4541 6.13672 -1.68359 8.74902l237.101 350.062c2.13867 3.1582 6.50879 3.20117 8.74902 1.68359l12.8789 -8.72461c2.96191 -2.00684 3.45215 -6.13574 1.68262 -8.74805l-237.099 -350.063c-2.13867 -3.15625 -6.51074 -3.19922 -8.74902 -1.68262z
M198.657 -22.8086l230.033 339.63l-2.44727 1.65723l-230.033 -339.63zM196.806 -36.7744l-12.8789 8.72363c-2.96289 2.00684 -3.45215 6.13574 -1.68164 8.74902l237.1 350.062c2.00684 2.96387 6.13574 3.45312 8.74805 1.68457l12.8809 -8.72266
c3.15625 -2.13867 3.19922 -6.51074 1.68262 -8.75l-237.101 -350.063c-2.1377 -3.15625 -6.51074 -3.19922 -8.75 -1.68262zM1036.24 481.119v253.681h-253.68v-253.681h253.68zM1043.8 466h-268.801c-4.57617 0 -7.55957 4.31445 -7.55957 7.55957v268.8
c0 4.57617 4.31543 7.56055 7.55957 7.56055h268.801c4.57617 0 7.55957 -4.31543 7.55957 -7.56055v-268.8c0 -4.57617 -4.31543 -7.55957 -7.55957 -7.55957zM783.959 474.959c-3.24414 0 -7.55957 2.9834 -7.55957 7.55957v250.882
c0 3.24414 2.9834 7.56055 7.55957 7.56055h250.88c3.24512 0 7.55957 -2.98438 7.55957 -7.56055v-250.882c0 -3.24316 -2.9834 -7.55957 -7.55957 -7.55957h-250.88zM791.52 490.08h235.76v235.76h-235.76v-235.76zM499.888 746.868v-380.567h158.512v380.567h-158.512z
M493.588 759.468h171.112c3.81348 0 6.2998 -3.5957 6.2998 -6.2998v-393.168c0 -3.81348 -3.59668 -6.2998 -6.2998 -6.2998h-171.112c-3.81348 0 -6.2998 3.59668 -6.2998 6.2998v393.168c0 3.81348 3.5957 6.2998 6.2998 6.2998zM662.444 497.347
c0 -2.7041 -2.4873 -6.2998 -6.30078 -6.2998h-154c-2.70312 0 -6.2998 2.48633 -6.2998 6.2998v119.523c0 2.7041 2.48633 6.2998 6.2998 6.2998h154c2.7041 0 6.30078 -2.48633 6.30078 -6.2998v-119.523zM649.844 503.646v106.924h-141.399v-106.924h141.399z
M656.144 746.362c2.7041 0 6.30078 -2.48633 6.30078 -6.2998v-110.088c0 -2.7041 -2.4873 -6.2998 -6.30078 -6.2998h-154c-2.70312 0 -6.2998 2.48633 -6.2998 6.2998v110.088c0 2.70312 2.48633 6.2998 6.2998 6.2998h154zM649.844 733.762h-141.399v-97.4873h141.399
v97.4873zM502.144 366.807c-2.70312 0 -6.2998 2.48633 -6.2998 6.2998v111.136c0 2.7041 2.48633 6.2998 6.2998 6.2998h154c2.7041 0 6.30078 -2.48633 6.30078 -6.2998v-111.136c0 -2.7041 -2.4873 -6.2998 -6.30078 -6.2998h-154zM508.444 379.406h141.399v98.5361
h-141.399v-98.5361zM905.511 288.861c-0.370117 -1.7832 -0.573242 -2.77441 -1.12109 -5.32715c0.231445 0.0117188 1.27246 0.0419922 2.1709 -0.124023c-0.0527344 0.259766 -0.236328 1.125 -1.0498 5.45117zM919.929 294.135
c11.9854 -67.584 42.2227 -119.229 98.3525 -164.11c2.41699 -1.93262 3.23926 -5.33691 2.59375 -7.8125l-3.63477 -13.9404c-1.09766 -4.20508 -5.68555 -6.6582 -9.79102 -5.23535c-0.805664 0.279297 -2.07324 1.10059 -2.25391 1.24609
c-49.7754 39.915 -83.5654 89.1104 -100.3 142.489c-17.6768 -55.1445 -48.3066 -111.807 -77.8643 -140.585c-3.11328 -3.03027 -8.30957 -2.75781 -11.0869 0.584961c-0.479492 0.575195 -0.950195 1.41211 -1.16016 1.91211l-5.90234 14.0938
c-1.2041 2.87402 -0.336914 6.27148 1.58496 8.22461c62.8066 63.7988 93.6484 159.872 90.9521 295.981c-0.0878906 4.42285 3.81348 7.8457 7.82227 7.70508l9.44434 -0.330078c13.5879 -0.522461 7.50391 -25.3369 7.50391 -25.3369
c0 -32.0264 -5.61523 -106.383 -6.26074 -114.887z" />
  </g>

</svg>
