<?xml version="1.0" standalone="no"?>
<!DOCTYPE svg PUBLIC "-//W3C//DTD SVG 1.1//EN" "http://www.w3.org/Graphics/SVG/1.1/DTD/svg11.dtd" >
<svg xmlns="http://www.w3.org/2000/svg" xmlns:xlink="http://www.w3.org/1999/xlink" version="1.1" viewBox="-10 0 1051 1000">
  <g transform="matrix(1 0 0 -1 0 800)">
   <path fill="currentColor"
d="M828.399 483.872c0 9.49878 0.360099 25.4826 0.360099 28.905l-0.318652 61.3747l-8.69455 54.78l-24.0577 41.7601l-29.8355 19.1251l-33.9409 8.02542l-47.9505 1.85133v0.765382l-107.704 8.96128l-161.614 -4.8437l-135.511 -48.0118l4.97421 -24.8711
l90.1513 34.2037l168.519 13.9909l163.859 -8.05849l72.0585 -32.0852l24.6852 -76.5829c-11.2968 -92.7231 -11.5388 -94.7093 -10.6225 -98.1968c0.272553 -1.03738 0.408327 -1.98777 0.495372 -2.92219c0.487753 -0.641757 1.13403 -1.58506 1.4862 -2.05622
l30.4464 -40.7334l38.0432 -60.0682l23.93 -33.502l-96.7113 -80.2498l-3.19974 -219.288c0.962733 -7.56244 2.78458 -22.0112 5.01798 -45.877c-0.12894 -0.269919 -9.65147 -20.9678 -12.8349 -27.02c-1.80565 -3.43278 -3.36365 -6.39475 -8.94453 -11.1259
c-28.726 -6.87192 -37.6748 -9.01268 -53.7943 -9.01268c-3.38415 0 -6.77838 0.14333 -10.1737 0.446144l-127.95 -3.2205l-189.706 31.9736l-119.91 72.0259l-21.8729 31.5454c-0.18608 0.126152 -14.9542 10.3475 -18.5829 12.6523v-31.4635
c5.41685 -3.87145 13.5068 -7.36272 24.4398 -17.2503c7.32645 -6.62591 2.09556 -4.45645 10.6241 -11.9264c1.03002 -0.902171 1.03002 -0.902171 17.2005 -21.8062l70.2643 -41.1391l123.979 -35.7692l40.8353 -3.74581
c52.8258 -4.90757 59.0669 -6.73248 83.0467 -7.42728l68.08 -1.97257l89.7606 0.254271l51.1066 12.4914l15.1376 25.2075l6.27671 34.16l-0.268638 82.9487l0.0291888 84.2282l-0.00582149 87.5189l84.7837 67.8016l7.68593 8.96692l1.11464 7.19504
c0.44913 7.61262 -1.52476 12.8022 -3.31214 18.1783l-23.3304 38.8443l-33.0243 43.448l-34.3179 48.9016c-0.202711 16.1296 -0.202711 16.1296 -0.202711 17.6951zM33.2949 712.521h55.5146l17.1611 52.2256l17.1602 -52.2256h55.5156l-44.8672 -32.2959
l17.1611 -52.2246l-44.9697 32.2959l-44.9707 -32.2959l17.1611 52.2246zM439.677 442.057zM563.712 441.236zM504.042 340.562zM491.277 170.636zM508.375 254.83zM458.992 170.597zM544.63 495.836v-1.3584h-0.808594v1.3584h0.808594zM411.278 441.124
c-16.2109 0 -29.3525 13.1416 -29.3525 29.3525c0 16.2129 13.1416 29.3545 29.3525 29.3545c13.0898 0 24.1797 -8.56934 27.9648 -20.4043c-0.291016 0.0751953 -0.581055 0.151367 -0.868164 0.227539c1.49512 -2.30957 2.25684 -5.94043 2.25684 -9.17773
c0 -7.71387 -2.97559 -14.7324 -7.8418 -19.9707c-1.62891 -1.5918 -3.40918 -2.93164 -5.23047 -4.07129c0.0996094 -0.0585938 0.203125 -0.117188 0.307617 -0.176758c-4.71973 -3.23828 -10.4326 -5.13379 -16.5889 -5.13379v0zM583.806 491.199
c-16.6064 0 -25.1367 -15.8008 -25.1367 -25.458c0 -6.24805 10.9258 -24.8008 24.6611 -24.8008c12.7891 0 25.6016 10.4531 25.6016 25.1328c0 13.7002 -11.4268 25.126 -25.126 25.126zM504.042 331.672c-13.7002 0 -25.127 -11.4258 -25.127 -25.126
c0 -13.7002 11.4268 -25.127 25.127 -25.127c13.7002 0 25.127 11.4268 25.127 25.127c0 13.7002 -11.4268 25.126 -25.127 25.126zM474.325 169.016c-13.6992 0 -25.125 -11.4258 -25.125 -25.126c0 -13.7002 11.4258 -25.127 25.125 -25.127
c13.7002 0 25.127 11.4268 25.127 25.127c0 13.7002 -11.4268 25.126 -25.127 25.126zM474.325 111.539c-18.3623 0 -33.5234 15.1621 -33.5234 33.5234c0 12.8828 7.75781 22.2148 18.7988 26.6055c0.00585937 -0.0761719 0.00976562 -0.152344 0.015625 -0.227539
c12.7891 3.04102 12.7891 3.04102 15.2842 3.04102c5.74219 0 11.1006 -1.07715 15.7588 -3.1123c0.00683594 0.0820312 0.0136719 0.165039 0.0214844 0.248047c0.287109 -0.114258 0.574219 -0.233398 0.863281 -0.356445l-0.275391 -0.166016
c9.97461 -4.59863 16.5811 -13.6846 16.5811 -26.0322c0 -18.3623 -15.1621 -33.5234 -33.5244 -33.5234v0zM565.546 496.3c0.353516 0.384766 0.708984 0.770508 1.06543 1.15723l0.50293 -1.14062c-0.523438 0 -1.04688 -0.0166016 -1.56836 -0.0166016v0zM565.546 496.3
c-35.6826 -0.640625 -64.2627 -17.6787 -91.3867 -17.6787c-16.6074 0 -16.4141 -3.99219 -34.916 0.805664c0.902344 -2.82129 1.38867 -5.8291 1.38867 -8.9502c0 -9.29492 -3.35449 -15.5898 -7.8418 -19.9707c-1.47656 -1.59082 -3.12793 -3.0166 -4.92285 -4.24805
c7.66699 -4.38477 2.17285 -4.30859 10.834 -5.70996c4.69434 -0.758789 9.47266 -1.09473 14.2842 -1.09473c35.1309 0 73.2793 18.0918 88.2539 18.0918c0.00195313 0 9.92188 -0.577148 9.92188 -0.577148c-0.996094 2.89551 -1.55859 6.09082 -1.55859 9.59863
c0 1.58105 0.112305 3.1377 0.328125 4.66309c0.175781 1.5293 0.483398 2.99023 0.949219 4.44629c1.59082 4.95605 5.04004 9.8457 11.5166 17.1406c5.72559 4.54492 12.9395 7.27344 20.7295 7.27344c18.4707 0 34.2041 -14.6318 34.2041 -33.0205
c0 -12.8193 -8.22461 -25.374 -19.1045 -30.7852l0.1875 0.379883c-7.96387 -2.9082 -7.96387 -2.9082 -8.15527 -2.9082c-0.046875 0 -0.046875 0 -0.608398 0.0517578c-10.0352 0.918945 -14.7734 1.38965 -25.8154 7.9248
c-0.0771484 -0.130859 -0.15332 -0.260742 -0.231445 -0.390625c-0.0302734 0.0205078 -0.0595703 0.0410156 -0.0898438 0.0625c-0.0244141 -0.0410156 -0.078125 -0.0976562 -0.421875 -0.464844l-0.273438 0.131836l-0.015625 -0.121094
c-0.113281 0.119141 -0.132812 0.139648 -0.249023 0.24707c0.220703 0.105469 0.289062 0.361328 0.317383 0.65918c-5.10742 3.67285 -9.4873 8.65039 -11.709 15.1113c0.214844 -0.0126953 0.43457 -0.0253906 0.660156 -0.0380859
c-1.33496 3.58496 -2.07715 6.98438 -2.07715 10.8027c0 1.21875 0.0585938 2.37598 0.186523 3.49707c0.21582 1.51562 0.535156 3 0.949219 4.44629c1.96094 6.83496 6.0625 12.8115 11.5166 17.1406c0.979492 1.10352 2.02832 2.26172 3.14941 3.4834v0zM537.394 313.299
c0.160156 -0.583984 0.3125 -1.17773 0.458984 -1.78125l-0.511719 0.0566406c0.148438 -1.26562 0.224609 -2.55273 0.224609 -3.85547c0 -13.5 -8.19434 -25.2695 -19.8301 -30.5557c0.0214844 0.0478516 0.0429688 0.0957031 0.0654297 0.143555
c-0.501953 -0.274414 -1.02539 -0.536133 -1.56934 -0.783203c-3.78711 -1.50195 -7.90137 -2.32812 -12.1895 -2.32812c-6.75098 0 -13.0684 2.04883 -18.3604 5.55273c-2.18945 1.66602 -4.30957 3.79199 -6.22266 6.50098
c-0.133789 -0.25 -0.266602 -0.504883 -0.401367 -0.763672c-5.29883 5.93945 -8.53906 13.7441 -8.53906 22.2334c0 18.3496 15.1406 33.5029 33.4844 33.5234c0.150391 0.0166016 0.307617 0.0244141 0.473633 0.0244141
c0.232422 0 0.478516 -0.015625 0.737305 -0.0429688l-0.00195313 -0.000976562c0.0107422 0 0.0205078 -0.00195312 0.03125 -0.00195312c2.38086 -0.259766 5.91797 -1.6084 7.62207 -2.00195c11.8145 -2.7207 19.2676 -10.585 23.3408 -22.1143
c0.411133 -1.3877 0.733398 -2.81055 0.961914 -4.26367zM537.394 313.299v0c-0.357422 1.30859 -0.753906 2.57812 -1.1875 3.80566c-4 13.501 -16.3701 23.5898 -30.9629 24.1162c-0.00976562 0 -0.0195312 0.00292969 -0.0292969 0.00292969
c19.4922 33.3428 38.7617 66.9092 58.3887 100.117c7.92383 -5.43555 17.3975 -7.83301 23.2871 -7.83301c3.93262 0 7.77637 1.00586 11.3359 2.77539zM507.561 254.663c0.0644531 0.148438 0.12793 0.294922 0.192383 0.441406l0.729492 -0.946289
c-0.0419922 -0.00585938 -0.0878906 -0.00976562 -0.136719 -0.00976562c-0.166992 0 -0.616211 0.0546875 -0.785156 0.514648v0zM507.561 254.663v0c-7.33691 -17.0332 -14.2686 -53.6553 -16.8799 -83.0459c-6.19922 2.46777 -11.833 2.86426 -15.7803 2.86426
c-5.45801 0 -10.668 -0.97168 -15.2998 -2.81348c-1.39062 20.5332 -2.4082 38.6641 -2.4082 45.2842c1.5 4.66699 11.625 48.7158 21.8652 68.5332c1.94922 -2.18457 4.17773 -4.11621 6.62402 -5.7373c6.56348 -4.99219 13.7588 -5.84668 17.9209 -5.84668
c4.6582 0 9.07324 1.00488 12.6289 2.62207c0.507812 0.201172 1.00781 0.414062 1.50391 0.639648c-3.58398 -7.89648 -10.2529 -18.8252 -10.2529 -21.9824c0 -0.201172 0.0253906 -0.375 0.078125 -0.517578zM563.487 441.421
c-0.160156 0.110352 -0.318359 0.222656 -0.477539 0.335938c-0.123047 -0.0742188 -0.196289 -0.198242 -0.15918 -0.433594z" />
  </g>

</svg>
