<?xml version="1.0" standalone="no"?>
<!DOCTYPE svg PUBLIC "-//W3C//DTD SVG 1.1//EN" "http://www.w3.org/Graphics/SVG/1.1/DTD/svg11.dtd" >
<svg xmlns="http://www.w3.org/2000/svg" xmlns:xlink="http://www.w3.org/1999/xlink" version="1.1" viewBox="-10 0 1051 1000">
  <g transform="matrix(1 0 0 -1 0 800)">
   <path fill="currentColor"
d="M271 608l-12 60c128.725 89.7881 355.203 55.3633 442.457 48.5605c0 -0.0107422 0.000976562 -0.0214844 0.000976562 -0.0322266c27.4463 0.582031 75.1855 -1.32129 107.268 -33.4033c40.1396 -40.1396 38.6152 -108.841 37.5254 -169.365
c-0.395508 -21.9258 -0.433594 -33.2402 -0.22168 -41.9463c26.3789 -43.8281 72.168 -89.959 89.3252 -129.607c6.95117 -16.0635 5.49219 -24.7637 2.64551 -40.2051l-12 -14l-79.501 -63.5771v-212.431c1.93945 -31.0869 1.82422 -79.2412 -27.416 -108.48
c-26.0322 -26.0322 -182.507 -12.0195 -220.584 -13.0049l-2.90137 0.0126953c-103.732 -7.2998 -296.108 50.6025 -326.603 92.1719c-18.5059 25.2275 -31.4014 41.2529 -57.9951 55.3086v70.0371c25.8174 -16.2627 49.624 -17.8066 70.1904 -60.6357
c44.2188 -92.082 349.455 -105.734 451.309 -108.438l-0.499023 -0.962891c50 12 34.1514 4.48145 42.5352 13.5361c19.1768 20.7119 3.97852 41.9688 5.50781 57.9648h-0.541992v2.14941c-0.253906 0.990234 -0.500977 1.94141 -0.738281 2.84863h0.738281v207.174v3.4873
v1.33887h1.58203l104 88h1.13281c4.9834 45.8955 -62.8379 92.1289 -94.2158 139.501l-3 4l-1 1c-2.02051 3.99219 0.0439453 4.02539 -2.08398 11.5605c-0.0371094 0.130859 -0.189453 0.24707 -0.174805 0.367188l0.258789 2.07227l0.0644531 1.49902
c0.00976562 0.226562 0.150391 3.89551 0.242188 6.24414c3.11426 79.1523 14.1973 176.389 -74.8154 176.771c-136.35 16.7461 -373.536 9.53418 -431.49 -46.5137zM30.3545 728.521h55.5146l17.1611 52.2256l17.1602 -52.2256h55.5156l-44.8672 -32.2959l17.1611 -52.2246
l-44.9697 32.2959l-44.9707 -32.2959l17.1611 52.2246zM366.889 408.331h5v-10c18 1 34 8 46 20c4 4 8 9 11 14l-7 4l-1 -1l-46 22c-1 -1 -3 -2 -5 -2c-6 0 -11 5 -11 11c0 4 3 8 7 10v49h1v9c-9 0 -36 -4 -53 -30c3 -2 5 -2 8 -4l-3 -5c-3 2 -5 3 -8 5
c-6 -10 -9 -22 -9 -34s4 -23 9 -33c3 2 5 3 8 5l3 -5c-3 -2 -5 -3 -8 -5c12 -18 32 -29 54 -30c0 3 -1 7 -1 10zM443.889 466.331c0 -41 -33 -74 -74 -74s-74 33 -74 74s33 74 74 74v0c41 0 74 -33 74 -74zM371.889 534.331v-9h1l2 -50c3 -2 5 -5 5 -8l45 -25l-1 -2l7 -3
c4 9 7 19 7 29c0 13 -3 24 -9 34c-3 -2 -5 -2 -8 -4l-3 4c3 2 5 2 8 4c-5 8 -23 29 -54 30zM371.889 191.331h5v-10c18 1 34 8 46 20c4 4 8 9 11 14l-7 4l-1 -1l-46 22c-1 -1 -3 -2 -5 -2c-6 0 -11 5 -11 11c0 4 3 8 7 10v49h1v9c-9 0 -36 -4 -53 -30c3 -2 5 -2 8 -4l-3 -5
c-3 2 -5 3 -8 5c-6 -10 -9 -22 -9 -34s4 -23 9 -33c3 2 5 3 8 5l3 -5c-3 -2 -5 -3 -8 -5c12 -18 32 -29 54 -30c0 3 -1 7 -1 10zM448.889 249.331c0 -41 -33 -74 -74 -74s-74 33 -74 74s33 74 74 74v0c41 0 74 -33 74 -74zM376.889 317.331v-9h1l2 -50c3 -2 5 -5 5 -8
l45 -25l-1 -2l7 -3c4 9 7 19 7 29c0 13 -3 24 -9 34c-3 -2 -5 -2 -8 -4l-3 4c3 2 5 2 8 4c-5 8 -23 29 -54 30zM683.11 247h-161.11v166.666h3.11035c0.154297 0.000976563 0.40332 0.000976563 0.556641 0.000976563c86.8193 0 157.553 -70.4609 157.888 -157.278v-4.11133
v-2.38867zM527.555 252.556h150v3.66602c-0.199219 82.4893 -67.2998 150.535 -149.777 151.889z" />
  </g>

</svg>
