<?xml version="1.0" standalone="no"?>
<!DOCTYPE svg PUBLIC "-//W3C//DTD SVG 1.1//EN" "http://www.w3.org/Graphics/SVG/1.1/DTD/svg11.dtd" >
<svg xmlns="http://www.w3.org/2000/svg" xmlns:xlink="http://www.w3.org/1999/xlink" version="1.1" viewBox="-10 0 1110 1000">
  <g transform="matrix(1 0 0 -1 0 800)">
   <path fill="currentColor"
d="M828.272 426.579h10.9209c0.269531 -7.52637 0.539062 -15.0527 0.806641 -22.5791c41.6064 1.45605 79.2207 18.9805 106.793 46.5527c10.0225 10.0225 18.7188 21.373 25.7979 33.7617l-17.4736 9.27246l-2.15039 -3.4043l-107.166 50.5635
c-3.49609 -1.91504 -7.50977 -3.00293 -11.7773 -3.00293c-13.5576 0 -24.5459 10.9883 -24.5459 24.5459c0 10.3613 6.41797 19.2217 15.4961 22.8242v114.466h2.52051v20.916c-21.4219 -1.00781 -82.416 -9.28125 -123.218 -68.8691
c6.1377 -3.54297 12.2744 -7.08691 18.4121 -10.6299l-6.30078 -10.9121c-6.27148 3.62207 -12.5439 7.24219 -18.8154 10.8633c-13.3008 -23.1826 -20.9062 -50.0371 -20.9062 -78.6611c0 -27.916 7.2793 -54.1855 20.0449 -77.0078
c6.48926 3.74609 12.9766 7.49219 19.4658 11.2393l6.30078 -10.9131c-6.39355 -3.69141 -12.7871 -7.38281 -19.1816 -11.0742c27.4189 -41.0088 73.418 -68.5615 125.782 -70.5195c-0.268555 7.52246 -0.537109 15.0459 -0.805664 22.5684zM1008.23 562.288
c0 -95.5928 -77.584 -173.177 -173.181 -173.177c-95.5957 0 -173.18 77.584 -173.18 173.181c0 95.0322 77.1221 172.606 172.148 173.177h0.34668c95.6084 0 173.484 -77.5908 173.865 -173.181zM840.093 720.594v-21.0146h1.65039l4.13574 -115.791
c6.71191 -3.70801 11.501 -10.4678 12.499 -18.4082l105.543 -57.8535l-2.95801 -4.68359l16.7139 -8.87109c10.0059 20.6914 15.6592 43.8623 15.7637 68.3242c0 29.5459 -8.10449 57.2031 -22.21 80.8848c-6.10742 -3.82324 -12.2148 -7.64746 -18.3223 -11.4697
l-5.46094 9.45996c5.95801 3.72949 11.918 7.45996 17.877 11.1904c-12.2207 17.6328 -52.2471 65.9473 -125.231 68.2324zM77.3545 -77.4795h55.5146l17.1611 52.2256l17.1602 -52.2256h55.5156l-44.8672 -32.2959l17.1611 -52.2246l-44.9697 32.2959l-44.9707 -32.2959
l17.1611 52.2246zM347.38 94.2129l-82.2217 148.848l24.0225 10.1475l58.4395 -100.383l53.3027 101.418l27.2285 -11.0254zM264.467 -71.1875v34.6641h38.626v22.0713h-38.626v34.6641h38.626v33.7148h31.3828v-33.7148h23.2197v31.2539h31.3828v-31.2539h41.292v-34.6641
h-41.292v-22.0713h41.292v-34.6641h-41.292v-36.1855h-31.3828v36.1855h-23.2197v-33.7246h-31.3828v33.7246h-38.626zM334.476 -36.5234h23.2197v22.0713h-23.2197v-22.0713zM955.449 -53.4033h-323.297l0.216797 164.161
c-12.123 -5.10645 -24.2471 -10.2129 -36.3701 -15.3193v43.2637l216.847 89.3984c0.620117 -0.28125 1.39551 -1.04395 1.56934 0.0556641c14.0449 -8.15234 14.0449 -8.15234 42.4219 -22.8662l-1.75293 -0.737305l133.207 -77.3066l0.775391 -46.5869
c-10.9932 6.50293 -21.9854 13.0059 -32.9785 19.5098zM672.334 -13.1875h243.036l1.16699 136.753l-105.537 62.4346l-139.312 -58.6816z" />
  </g>

</svg>
