<?xml version="1.0" standalone="no"?>
<!DOCTYPE svg PUBLIC "-//W3C//DTD SVG 1.1//EN" "http://www.w3.org/Graphics/SVG/1.1/DTD/svg11.dtd" >
<svg xmlns="http://www.w3.org/2000/svg" xmlns:xlink="http://www.w3.org/1999/xlink" version="1.1" viewBox="-10 0 776 1000">
  <g transform="matrix(1 0 0 -1 0 800)">
   <path fill="currentColor"
d="M599.985 71.9326zM168.226 362.404zM87.5957 213.967zM401.756 19.8896zM401.188 1.86426zM161.151 68.8896zM299.533 25.3545zM676.999 247.528zM87.5957 213.967zM676.999 247.528zM687.628 257.645c5.56738 -16.8633 9.15234 -35.1133 13.835 -52.5947
l3.26367 -0.0537109c-2.48145 -52.3799 -3.41602 -72.1045 -88.4727 -139.314c-63.29 -50.0107 -109.626 -67.627 -214.95 -68.8145c-72.4492 -0.816406 -164.719 1.89551 -245.607 68.7969c-31.874 26.3613 -82.4697 77.3809 -82 135.336h-2.26758
c2.47754 9.29004 2.47754 9.29004 2.71387 16.4229l1.65918 -0.0283203l7.10254 26.6348h-3.11816c1.61914 2.19922 3.23828 4.39844 4.85645 6.59668v7.48438h5.50977l80.4365 109.291h2.55176c27.8301 65.0771 134.447 96.4268 175.858 46.0176
c5.87988 -2.64258 32.5469 -13.2822 60.626 -3.04492c14.4639 19.3584 55.1035 38.041 100.836 28.5576c44.2324 -9.17188 88.8516 -50.3193 108.428 -70.3535h0.938477c0.689453 -1.0166 1.16211 -2.18262 2.0293 -3.07227l6.15137 -6.41797l58.7324 -100.361
c0.875977 0.0751953 1.56836 0.0195312 1.43066 -0.616211zM114.613 204.515c-0.974609 -33.3994 2.71973 -73.1191 83.835 -129.9c68.8311 -48.1816 125.865 -51.6426 204.166 -49.7031c91.2295 2.34863 129.297 14.0742 184.386 59.0889
c73.2568 59.8643 85.3945 78.625 76.585 113.791l-11.6484 46.5049l-0.427734 -0.763672c0.0244141 2.81445 -1.85742 6.39355 -1.83301 9.20898l-65.3672 103.1c-1.75391 -0.0693359 -0.353516 1.52441 -2.10742 1.45605
c-40.4619 26.6758 -44.7754 38.2334 -59.8896 47.1465c-23.2744 13.7246 -59.0566 10.9619 -81.8369 -4.58594c-11.3398 -34.1611 -81.7002 -39.6348 -114.121 -8.83008c-3.02148 2.87109 -5.25098 1.27344 -4.96484 4.79688
c-34.6553 23.8477 -99.5693 -0.178711 -117.913 -43.3818l-2.22461 -5.23926l-3.70801 1.42773l-71.4854 -101.205zM544.97 505h-332.97l-77.6455 196.094l143.49 -60.1504l93.9102 117.438l92.2334 -119.396l142.277 60.5098zM288.002 596.137l-87.7773 38.5605
l40.4492 -92.8379l272.064 -0.975586l28.124 88.5059l-86.0664 -38.252l-81.583 104.823z" />
  </g>

</svg>
