<?xml version="1.0" standalone="no"?>
<!DOCTYPE svg PUBLIC "-//W3C//DTD SVG 1.1//EN" "http://www.w3.org/Graphics/SVG/1.1/DTD/svg11.dtd" >
<svg xmlns="http://www.w3.org/2000/svg" xmlns:xlink="http://www.w3.org/1999/xlink" version="1.1" viewBox="-10 0 1136 1000">
  <g transform="matrix(1 0 0 -1 0 800)">
   <path fill="currentColor"
d="M642.82 270.401l-123.722 -124.95l134.64 -123.76l-17.5293 -14.6006l-134.79 124.081l-121.91 -124.081l-12.7305 13.9199l120.36 122.401l-118.32 123.079l15.6396 14.96l119.681 -119l125.119 119.68zM642.82 270.401l-123.722 -124.95l134.64 -123.76
l-17.5293 -14.6006l-134.79 124.081l-121.91 -124.081l-12.7305 13.9199l120.36 122.401l-118.32 123.079l15.6396 14.96l119.681 -119l125.119 119.68zM650.806 141.518c0 -38.2188 -67.3105 -66.4453 -147.348 -66.4453c-80.0322 0 -147.347 28.2246 -147.347 66.4453
c0 38.2188 67.3096 66.4453 147.347 66.4453c80.0322 0 147.348 -28.2256 147.348 -66.4453zM503.458 91.7139c85.6318 0 151.646 34.6221 119.147 67.1201c-17.5449 17.5449 -60.6377 31.5918 -114.048 32.4463v-0.236328
c-14.6494 0.0517578 -49.8965 0.176758 -85.1162 -11.1406c-17.54 -5.63574 -31.1689 -13.1104 -39.1416 -21.084c-32.4668 -32.4668 33.4941 -67.1055 119.158 -67.1055zM52.7012 763.544h41.6357l12.8711 39.1699l12.8701 -39.1699h41.6367l-33.6504 -24.2217
l12.8711 -39.168l-33.7275 24.2217l-33.7275 -24.2217l12.8701 39.168zM264.521 609.221l-12.6758 63.3936c136.002 94.8662 375.292 58.4941 467.481 51.3066v-0.0322266c29.001 0.613281 79.4395 -1.39844 113.337 -35.2939
c42.4092 -42.4102 40.7979 -114.996 39.6455 -178.943c-0.416016 -23.167 -0.457031 -35.123 -0.233398 -44.3203c27.873 -46.3066 76.252 -95.0469 94.3799 -136.938c7.34277 -16.9707 5.80176 -26.1641 2.79395 -42.4785l-12.6807 -14.791l-83.9961 -67.1738v-224.448
c2.04785 -32.8447 1.92871 -83.7236 -28.9658 -114.614c-27.5059 -27.5059 -192.831 -12.7002 -233.062 -13.7412l-3.06641 0.0136719c-109.601 -7.71484 -312.854 53.4648 -345.075 97.3857c-19.5508 26.6543 -33.1758 43.585 -61.2744 58.4365v73.998
c27.2783 -17.1826 52.4307 -18.8125 74.1611 -64.0645c46.7197 -97.292 369.22 -111.715 476.835 -114.573l-0.527344 -1.0166c52.8281 12.6768 36.083 4.73438 44.9424 14.3018c20.2598 21.8828 4.2041 44.3428 5.81836 61.2441h-0.571289v2.27051
c-0.269531 1.04492 -0.530273 2.05176 -0.78125 3.00781h0.78125v218.894v3.68359v1.41504h1.6709l109.881 92.9756h1.19727c5.26562 48.4922 -66.3906 97.3398 -99.5449 147.394l-3.16895 4.22559l-1.05762 1.05664c-2.13379 4.2168 0.0449219 4.25195 -2.20117 12.2139
c-0.0390625 0.138672 -0.200195 0.261719 -0.18457 0.386719l0.273438 2.19141l0.0683594 1.58203c0.00976562 0.242188 0.15918 4.11719 0.255859 6.59766c3.29004 83.6279 5.49121 183.196 -88.5566 183.601l9.05664 11.0186
c-144.061 17.6953 -394.666 10.0771 -455.897 -49.1416zM614.509 361.626l-282.24 0.94043v18.624h253.058v105.753h-253.058v18.625l279.731 -1.56836zM1035.17 772.02l49.7197 -38.6729c3.13965 -2.44238 2.70605 -7.08496 0.300781 -9.22168l-52.9375 -47.0332
c-2.57812 -2.29004 -6.68848 -1.88574 -8.76953 0.864258c-0.569336 0.751953 -0.957031 1.63867 -1.12305 2.56641l-1.42969 8.0127c-0.365234 2.04199 0.391602 4.17871 1.91895 5.53809l29.1543 25.9268l-114.169 -1.22168
c-3.50391 -0.0371094 -6.20703 3.07129 -6.05859 6.2793l0.358398 7.66504c0.152344 3.26074 3.02344 5.73633 6.02539 5.7207l112.586 -0.602539l-27.2393 21.2256c-3.03516 2.36426 -2.98242 7.04688 -0.09375 9.39062l4.29199 3.48438
c2.20508 1.79004 5.43262 1.65918 7.46484 0.078125z" />
  </g>

</svg>
