<?xml version="1.0" standalone="no"?>
<!DOCTYPE svg PUBLIC "-//W3C//DTD SVG 1.1//EN" "http://www.w3.org/Graphics/SVG/1.1/DTD/svg11.dtd" >
<svg xmlns="http://www.w3.org/2000/svg" xmlns:xlink="http://www.w3.org/1999/xlink" version="1.1" viewBox="-10 0 838 1000">
  <g transform="matrix(1 0 0 -1 0 800)">
   <path fill="currentColor"
d="M471.701 444.689zM650.094 516.432l-17.8281 12.3809l-103.918 -127.538l-56.6465 43.415l-16.1699 -16.6758v-0.000976563l72.4688 -65.0127zM632.266 528.812zM650.094 516.432zM455.531 428.014v-0.000976563zM528 363v0zM459.474 686.958v0zM457.907 555.641v0v0z
M562.398 686.823v0zM562.398 686.823l-52.3896 -50.1123l-50.5352 50.2471l-14.1299 -14.3242l50.6924 -52.7324l-51.085 -48.1768l12.9561 -16.084l52.0928 49.3594l56.1006 -46.2129v0v0l16.2207 13.6836l-56.1064 47.8662l52.7637 53.2861zM578.979 673.623v0v0z
M582.321 572.471zM566.101 558.787v0v0zM444.951 571.725h-0.000976563h0.000976563zM445.344 672.634zM51.3545 703.521h55.5146l17.1611 52.2256l17.1602 -52.2256h55.5156l-44.8672 -32.2959l17.1611 -52.2246l-44.9697 32.2959l-44.9707 -32.2959l17.1611 52.2246z
M656.598 223.496c1.2627 -22.4336 -7.74219 -81.3936 -5.23047 -95.668c0.770508 -0.875977 1.56445 -2.23145 1.72852 -3.98535c5.23145 -56.2568 51.2754 -111.696 69.0869 -129.507c3.60547 -3.60547 3.60547 -3.60547 14.0586 -11.6914
c-1.22754 -0.802734 -1.22754 -0.802734 -19.9932 -13.3145c-2.84668 -1.90039 -6.69922 -1.45703 -9.03418 1.08984c-30.0791 32.7197 -53.7002 58.416 -74.6094 118.096c-9.44629 -29.4131 -26.6836 -58.2959 -42.6045 -78.5156
c-11.126 -14.1289 -19.8799 -31.4688 -28.2031 -39.793c-2.53711 -2.53711 -6.54395 -2.71484 -9.28906 -0.542969c-14.1436 11.1963 -14.1436 11.1963 -14.4336 11.4873c-2.5166 2.51562 -2.71289 6.47656 -0.598633 9.21973
c7.94727 10.3027 34.1816 46.1582 34.5322 46.6201c50.7832 66.708 53.252 155.368 52.8457 203.106c-0.0341797 3.9502 3.20312 7.14551 7.1543 7.05664c18.7012 -0.416016 18.7012 -0.416016 21.4033 -3.11816c2.02734 -2.02734 3.06055 -5.03613 2.99219 -8.46777
c-0.0234375 -1.15625 -0.125977 -6.3916 0.194336 -12.0723zM354.019 223.773c1.2627 -22.4336 -7.74219 -81.3936 -5.23047 -95.668c0.770508 -0.875977 1.56445 -2.23145 1.72852 -3.98535c5.23145 -56.2568 51.2754 -111.696 69.0869 -129.507
c3.60547 -3.60547 3.60547 -3.60547 14.0586 -11.6914c-1.22754 -0.802734 -1.22754 -0.802734 -19.9932 -13.3145c-2.84668 -1.90039 -6.69922 -1.45703 -9.03418 1.08984c-30.0791 32.7197 -53.7002 58.416 -74.6094 118.096
c-9.44629 -29.4131 -26.6836 -58.2959 -42.6045 -78.5156c-11.126 -14.1289 -19.8799 -31.4688 -28.2031 -39.793c-2.53711 -2.53711 -6.54395 -2.71484 -9.28906 -0.542969c-14.1436 11.1963 -14.1436 11.1963 -14.4336 11.4873
c-2.5166 2.51562 -2.71289 6.47656 -0.598633 9.21973c7.94727 10.3027 34.1816 46.1582 34.5322 46.6201c50.7832 66.708 53.252 155.368 52.8457 203.106c-0.0341797 3.9502 3.20312 7.14551 7.1543 7.05664c18.7012 -0.416016 18.7012 -0.416016 21.4033 -3.11816
c2.02734 -2.02734 3.06055 -5.03613 2.99219 -8.46777c-0.0234375 -1.15625 -0.125977 -6.3916 0.194336 -12.0723z" />
  </g>

</svg>
