<?xml version="1.0" standalone="no"?>
<!DOCTYPE svg PUBLIC "-//W3C//DTD SVG 1.1//EN" "http://www.w3.org/Graphics/SVG/1.1/DTD/svg11.dtd" >
<svg xmlns="http://www.w3.org/2000/svg" xmlns:xlink="http://www.w3.org/1999/xlink" version="1.1" viewBox="-10 0 1194 1000">
  <g transform="matrix(1 0 0 -1 0 800)">
   <path fill="currentColor"
d="M30.3242 741.553h55.5146l17.1611 52.2256l17.1602 -52.2256h55.5156l-44.8672 -32.2959l17.1611 -52.2246l-44.9697 32.2959l-44.9707 -32.2959l17.1611 52.2246zM271 608l-12 60c128.725 89.7881 355.203 55.3633 442.457 48.5605
c0 -0.0107422 0.000976562 -0.0214844 0.000976562 -0.0322266c27.4463 0.582031 75.1855 -1.32129 107.268 -33.4033c40.1396 -40.1396 38.6152 -108.841 37.5254 -169.365c-0.395508 -21.9258 -0.433594 -33.2402 -0.22168 -41.9463
c26.3789 -43.8281 72.168 -89.959 89.3252 -129.607c6.95117 -16.0635 5.49219 -24.7637 2.64551 -40.2051l-12 -14l-79.501 -63.5771v-212.431c1.93945 -31.0869 1.82422 -79.2412 -27.416 -108.48c-26.0322 -26.0322 -182.507 -12.0195 -220.584 -13.0049
l-2.90137 0.0126953c-103.732 -7.2998 -296.108 50.6025 -326.603 92.1719c-18.5059 25.2275 -31.4014 41.2529 -57.9951 55.3086v70.0371c25.8174 -16.2627 49.624 -17.8066 70.1904 -60.6357c44.2188 -92.082 349.455 -105.734 451.309 -108.438l-0.499023 -0.962891
c50 12 34.1514 4.48145 42.5352 13.5361c19.1768 20.7119 3.97852 41.9688 5.50781 57.9648h-0.541992v2.14941c-0.253906 0.990234 -0.500977 1.94141 -0.738281 2.84863h0.738281v207.174v3.4873v1.33887h1.58203l104 88h1.13281
c4.9834 45.8955 -62.8379 92.1289 -94.2158 139.501l-3 4l-1 1c-2.02051 3.99219 0.0439453 4.02539 -2.08398 11.5605c-0.0371094 0.130859 -0.189453 0.24707 -0.174805 0.367188l0.258789 2.07227l0.0644531 1.49902
c0.00976562 0.226562 0.150391 3.89551 0.242188 6.24414c3.11426 79.1523 5.19727 173.389 -83.8154 173.771c-136.35 16.7461 -373.536 9.53418 -431.49 -46.5137zM522.453 297.633l0.926758 2.74512c1.15918 -1.14941 2.31738 -2.29785 3.47656 -3.44629
c-0.816406 -0.574219 -1.63184 -1.14844 -2.44824 -1.72266l-1.49219 1.49219c-0.274414 -0.0654297 -0.550781 -0.117188 -0.831055 -0.152344c0.248047 0.489258 0.292969 0.913086 -0.181641 1.16602zM497.692 281.694
c0.333008 0.305664 0.664062 0.613281 1.41504 0.481445zM287.071 301.978l1.91309 0.96875l-0.694336 -1.00195zM585.485 147.986c-14.5488 0 -25.6553 -10.4092 -25.6553 -22.6807c0 -12.2695 11.1074 -22.6787 25.6553 -22.6787
c14.5469 0 25.6562 10.4092 25.6562 22.6787c0 12.2715 -11.1094 22.6807 -25.6562 22.6807zM538.259 281.36l2.25586 1.52734l-0.331055 -3.4541zM333.993 142.941l1.31543 -1.31445l-2.85156 0.272461l1.53613 1.04199v0zM333.993 142.941l199.116 134.93
c4.62305 -5.38379 11.9375 -8.92383 20.4199 -8.92383c14.5479 0 25.6572 10.4102 25.6572 22.6797c0 12.2715 -11.1094 22.6807 -25.6572 22.6807c-14.502 0 -25.585 -10.3438 -25.6553 -22.5645l-3.46582 3.46582l-185.852 -130.737l-88.8594 88.8584l0.418945 1.30957
c0.50293 1.56445 5.57422 8.33496 14.1533 20.625c59.8213 85.6816 95.627 138.645 112.461 167.624l-14.4141 14.4141l-136.134 -206.549v0l-1.00977 -1.5293l-0.288086 2.82715l1.29785 -1.29785zM362.316 457.303l-1.95117 1.95117l3.46973 0.354492zM376.73 442.889
l1.05176 1.81055c1.46582 -1.45508 2.93359 -2.90918 4.40039 -4.36426l-3.82227 -1.37695c0.0986328 1.00781 0.163086 1.62793 0.219727 2.0791zM559.254 196.918c4.63379 -4.54297 11.3525 -7.44141 19.0312 -7.44141c14.5479 0 25.6572 10.4102 25.6572 22.6787
c0 5.79492 -2.47852 11.1748 -6.62402 15.2383c-4.63477 4.54297 -11.3555 7.44336 -19.0332 7.44336c-14.5488 0 -25.6553 -10.4092 -25.6553 -22.6807c0 -5.79492 2.47754 -11.1738 6.62402 -15.2383zM276.105 284.385l-2.41992 -3.48926l-1.82812 3.53027z
M276.105 284.385l222.207 -2.2002l16.9922 13.415l-227.015 6.34473zM515.305 295.6l4.86621 3.84375l1.33008 -4.0166z" />
  </g>

</svg>
