<?xml version="1.0" standalone="no"?>
<!DOCTYPE svg PUBLIC "-//W3C//DTD SVG 1.1//EN" "http://www.w3.org/Graphics/SVG/1.1/DTD/svg11.dtd" >
<svg xmlns="http://www.w3.org/2000/svg" xmlns:xlink="http://www.w3.org/1999/xlink" version="1.1" viewBox="-10 0 1051 1000">
  <g transform="matrix(1 0 0 -1 0 800)">
   <path fill="currentColor"
d="M70.8232 743.879h55.5146l17.1611 52.2256l17.1602 -52.2256h55.5156l-44.8672 -32.2959l17.1611 -52.2246l-44.9697 32.2959l-44.9707 -32.2959l17.1611 52.2246zM311.499 610.326l-12 60c128.725 89.7881 355.203 55.3633 442.457 48.5605
c0 -0.0107422 0.000976562 -0.0214844 0.000976562 -0.0322266c27.4463 0.582031 75.1855 -1.32129 107.268 -33.4033c40.1396 -40.1396 38.6152 -108.841 37.5254 -169.365c-0.395508 -21.9258 -0.433594 -33.2402 -0.22168 -41.9463
c26.3789 -43.8281 72.168 -89.959 89.3252 -129.607c6.95117 -16.0635 5.49219 -24.7637 2.64551 -40.2051l-12 -14l-79.501 -63.5771v-212.431c1.93945 -31.0869 1.82422 -79.2412 -27.416 -108.48c-26.0322 -26.0322 -182.507 -12.0195 -220.584 -13.0049
l-2.90137 0.0126953c-103.732 -7.2998 -296.108 50.6025 -326.603 92.1719c-18.5059 25.2275 -31.4014 41.2529 -57.9951 55.3086v70.0371c25.8174 -16.2627 49.624 -17.8066 70.1904 -60.6357c44.2188 -92.082 349.455 -105.734 451.309 -108.438l-0.499023 -0.962891
c50 12 34.1514 4.48145 42.5352 13.5361c19.1768 20.7119 3.97852 41.9688 5.50781 57.9648h-0.541992v2.14941c-0.253906 0.990234 -0.500977 1.94141 -0.738281 2.84863h0.738281v207.174v3.4873v1.33887h1.58203l104 88h1.13281
c4.9834 45.8955 -62.8379 92.1289 -94.2158 139.501l-3 4l-1 1c-2.02051 3.99219 0.0439453 4.02539 -2.08398 11.5605c-0.0371094 0.130859 -0.189453 0.24707 -0.174805 0.367188l0.258789 2.07227l0.0644531 1.49902
c0.00976563 0.226562 0.150391 3.89551 0.242188 6.24414c3.11426 79.1523 5.19727 173.389 -83.8154 173.771c-136.35 16.7461 -373.536 9.53418 -431.49 -46.5137zM703.383 232.016c-0.709961 0 -1.28125 0.576172 -1.28125 1.28027l1.22754 35.3428
c-3.56934 4.27344 -7.23145 8.27344 -10.8369 12.2119c-15.8984 17.3643 -30.7764 33.6523 -30.8281 66.5078c-0.0429688 27.3818 9.91699 41.3887 15.4951 47.0625c17.6299 17.2344 40.9043 21.5664 53 21.5664c1.10059 0 2.49219 0.932617 3.94141 0.865234
c35.7529 -1.68262 43.3828 -4.50977 61.5996 -20.3545c2.35156 -2.04492 3.03516 -3.71289 3.34082 -5.28711c0.0556641 -0.28418 0.0869141 -0.394531 0.0976562 -0.429688c8.34668 -9.63184 14.2031 -34.9443 14.6572 -42.3066
c0.03125 -0.499023 0.105469 -1.07812 0.191406 -1.73438c0.244141 -1.85352 0.567383 -4.30273 0.0273438 -7.38574c-7.42773 -42.4199 -27.6133 -54.6279 -29.9863 -61.2793c-0.129883 -0.362305 -0.25 -0.421875 -0.300781 -0.473633
c-0.566406 -0.56543 -5.4707 -3.06641 -9.41016 -4.91895c-0.495117 -1.40918 -0.495117 -1.40918 -0.746094 -1.66992c-0.115234 -0.446289 -0.22168 -1.23535 -0.220703 -1.23535l-0.731445 -36.1035c-0.0146484 -0.694336 -0.578125 -1.25 -1.27246 -1.25391z
M799.084 390.838l-0.0839844 0.0732422l-0.773438 -1.01074zM795.49 395.402l-0.84668 0.349609l-0.848633 -2.125zM740.132 407.07c-20.5273 0 -33.9121 -3.62402 -50.9785 -16.2783c-4.50098 -4.5 -17.0273 -18.0068 -17.0869 -41.4395
c-0.078125 -30.8457 13.3652 -45.3682 20.5869 -52.5889c3.59766 -3.59863 3.59766 -3.59863 4.19336 -4.48828c1.17871 -1.76074 1.17871 -1.76074 8.82422 -10.0488c1.75586 -0.431641 4.44043 -1.53809 7.16211 -4.36816
c1.48926 -1.54688 0.887695 -7.29199 0.613281 -9.91992l-0.245117 -29.8857l47.4258 -0.243164l2.23047 36.6797c0.0205078 0.347656 0.181641 0.670898 0.450195 0.898438c1.5752 1.34375 1.61719 1.37891 2.43359 2.19531
c0.805664 0.806641 3.14453 3.08984 5.20215 3.68945c0.745117 0.216797 1.78516 2.27832 3.94629 3.89355c10.334 7.72559 25.6318 27.1719 27.5312 55.2012c0.277344 4.10059 -0.355469 8.57422 -1.16406 13.373c-1.71289 10.1562 -4.2207 24.5898 -11.9434 33.5879
c-1.2002 0.988281 -1.56445 1.31738 -7.09277 6.84473c-9.8877 9.88867 -26.2607 12.8975 -42.0889 12.8975zM523.398 140.913zM351.645 256.462zM319.569 197.414zM444.542 120.21zM444.316 113.039zM348.83 139.702zM403.879 122.385zM554.034 210.765zM319.569 197.414z
M554.034 210.765zM477.979 286.575c-12.1074 0 -22.3574 -4.70996 -27.5566 -9.9082c-1.97754 -1.97852 -1.47266 -2.08203 -2.29102 -2.37891c-3.6748 -1.34082 -7.27734 -1.82617 -10.5645 -1.82617c-3.10254 0 -8.74219 0.458008 -14.8477 3.20117
c-4.14844 5.0498 -11.1641 9.64648 -22.9609 9.64648c-17.71 0 -37.9053 -10.9619 -44.9287 -27.3857l-0.34668 -0.811523h-1.22168l-31.998 -43.4766h-1.53125v-2.0791c-0.207031 -0.282227 -0.414062 -0.563477 -0.62207 -0.845703h0.334961l-3.54395 -13.2891
l-0.398438 0.00585938c-0.0712891 -1.36035 -0.200195 -2.1416 -0.628906 -3.83301h0.515625c-0.0126953 -1.50195 -0.0126953 -1.50195 -0.0126953 -1.65527c0 -9.71582 4.19238 -29.377 32.1357 -52.4873c29.5117 -24.4102 62.8867 -27.1016 90.5547 -27.1016
c45.3486 0 63.8379 5.68359 90.9736 27.127c33.1494 26.1934 33.709 33.9072 34.6201 53.0527l-0.927734 0.0146484c-0.0566406 0.212891 -4.12793 16.8281 -5.57227 21.3008l-23.6924 40.4854c-2.66992 2.78711 -2.66992 2.78711 -2.93945 3.24902h-0.175781
c-8.33008 8.52539 -25.792 24.4785 -42.8418 28.0137c-3.2627 0.676758 -6.45703 0.981445 -9.53223 0.981445zM399.297 274.865c2.54883 0 8.21387 0 14.6719 -4.44434l-0.0498047 -0.617188c0.373047 -0.152344 0.970703 -0.432617 1.55078 -0.984375
c5.47266 -5.2002 13.8828 -7.6416 21.8682 -7.6416c7.43848 0 14.5078 2.11816 18.4873 6.09863c0.774414 0.774414 2.02539 2.02441 2.99121 4.93555c4.10059 2.79883 10.6152 5.85254 19.5059 5.85254c11.7998 0 17.3154 -5.13867 21.5459 -9.07715
c3.28711 -3.06152 7.61621 -7.10254 16.9258 -13.2637c0.355469 -0.0771484 0.647461 -0.248047 0.881836 -0.512695l0.205078 0.0078125l26.625 -41.9961c0 -0.0712891 -0.00195312 -0.143555 -0.00195312 -0.21582c1.91016 -7.1543 3.65332 -14.4746 5.49219 -21.7002
c0.642578 -2.56836 1.00488 -4.94824 1.00488 -7.25293c0 -11.0566 -8.22656 -20.0146 -31.9219 -39.3779c-21.8359 -17.8418 -37.6484 -23.9629 -85.3008 -23.9629c-25.7979 0 -46.5928 3.16895 -70.8789 20.1689c-29.9375 20.957 -33.9629 36.3896 -33.9629 50.1328
c0 0.90625 0.0175781 1.7998 0.0419922 2.67871c1.49414 5.92871 3.11719 11.7275 4.65918 17.6074l29.1758 41.3076c0.415039 -0.160156 0.828125 -0.319336 1.24121 -0.478516c0.983398 2.31445 2.65723 6.25781 7.19824 10.7988
c7.31738 7.31738 18.1484 11.9365 28.0439 11.9365zM541.666 553.866l-87.333 -88.2002l95.0391 -87.3604l-12.3721 -10.3057l-95.1475 87.5869l-86.0527 -87.5869l-8.98633 9.82617l84.959 86.4004l-83.5195 86.8799l11.04 10.5596l84.4795 -84l88.3203 84.4795z
M541.666 553.866l-87.333 -88.2002l95.0391 -87.3604l-12.3721 -10.3057l-95.1475 87.5869l-86.0527 -87.5869l-8.98633 9.82617l84.959 86.4004l-83.5195 86.8799l11.04 10.5596l84.4795 -84l88.3203 84.4795z" />
  </g>

</svg>
