<?xml version="1.0" standalone="no"?>
<!DOCTYPE svg PUBLIC "-//W3C//DTD SVG 1.1//EN" "http://www.w3.org/Graphics/SVG/1.1/DTD/svg11.dtd" >
<svg xmlns="http://www.w3.org/2000/svg" xmlns:xlink="http://www.w3.org/1999/xlink" version="1.1" viewBox="-10 0 1046 1000">
  <g transform="matrix(1 0 0 -1 0 800)">
   <path fill="currentColor"
d="M30.3242 741.553h55.5146l17.1611 52.2256l17.1602 -52.2256h55.5156l-44.8672 -32.2959l17.1611 -52.2246l-44.9697 32.2959l-44.9707 -32.2959l17.1611 52.2246zM804 631c0 -96.6865 68.0879 -173.199 99.375 -191.775l11.1992 -6.64941
c-16.9434 -0.478516 1.18945 0.900391 -34.5742 -3.5752l-1.0752 1.36426c-22.0068 27.9238 -93.998 110.011 -106.903 207.233c-0.657227 4.95117 0.0224609 9.79688 0.582031 18.2783c-1.38379 0.708984 -2.88672 1.4873 -4.52246 2.34082
c-0.0283203 -1.83984 -0.322266 -3.81641 -0.0449219 -5.88867c33.3789 -249.661 97.5459 -216.742 97.5459 -216.742s6.91211 -4.29004 10.2793 -6.58594h-32.8613c-44.1455 16.1279 -101.697 151.17 -101.697 222.331c0 8.73535 0.302734 15.3135 0.785156 20.6846
c-60.6641 32.3369 -181.179 64.7012 -284.885 64.7012c-23.0527 0 -45.5234 -2.04883 -73.3945 -6.17773c-32.3232 -4.78906 -32.3232 -4.78906 -70.6152 -21.2002c-18.916 -8.10645 -50.2139 -47.4062 -58.166 -66.7188
c-7.02734 -17.0664 -9.0791 -30.2676 -9.0791 -45.8906c0 -22.332 3.62891 -44.376 3.62891 -77.1553c0 -8.99219 1.14648 -13.8564 1.14648 -20.1924c0 -4.57031 -0.613281 -9.64551 -2.73242 -16.6025c-19.9492 -65.4795 -40.3174 -87.0479 -63.832 -110.183
c-6.25977 -6.16016 -27.0508 -26.6172 -27.0508 -37.7881c0 -4.45605 0.882812 -6.9082 38.3447 -19.4531c55.9199 -18.7266 60.0254 -24.4102 60.0254 -90.9766c0 -43.0117 2.70801 -110.013 2.70801 -151.731c0 -5.5 0.0820312 -11.3867 0.267578 -17.7666
c0.50293 -17.292 16.4512 -45.3398 23.8975 -57.5352c1.19629 -0.303711 1.95996 -1.18164 1.95996 -1.18164c1.1543 -0.666992 2.48438 -1.60059 4.13477 -2.74414c16.0508 -11.1162 22.0049 -13.1846 40.8428 -13.1846c24.0361 0 22.3457 4.21484 79.0615 4.21484
c0.316406 0 6.94531 -0.00390625 7.01562 -0.00390625c14.7988 0 25.668 0.226562 52.1025 3.80078c20.2021 2.73242 38.8271 4.61572 56.5088 6.4043c120.938 12.2334 201.711 24.1475 280.178 80.1953c2.23438 1.5957 5.14355 3.85352 8.45703 6.42773
c12.6104 9.7959 33.0303 26.8994 48.1416 26.8994c8.16699 0 13.834 -4.95996 13.834 -14.165c0 -15.4473 -17.4082 -42.8486 -33.0938 -42.8486c-1.16406 0 -1.56543 0.129883 -3.01758 0.129883c-22.6426 0 -44.3604 -36.5264 -79.4766 -51.29
c-52.8857 -22.2344 -138.298 -27.127 -175.459 -33.71c-17.2549 -3.05664 -36.6504 -6.49316 -61.8809 -12.2393c-34.7246 -7.90918 -51.6299 -8.61133 -86.7539 -8.61133c-0.251953 0 -22.7891 0.03125 -25.0811 0.03125c-11.3115 0 -32.6182 -0.123047 -32.9473 -0.123047
c-40.7773 0 -82.5049 2.86621 -120.91 24.8125c-26.0957 14.9121 -27.9092 36.1035 -30.0449 61.0586c-0.477539 5.59082 -0.976562 11.3994 -1.75781 17.3906c-1.96484 15.7158 -2.63672 29.7119 -2.63672 42.8916c0 28.6572 -4.27441 100.664 -4.27441 131.409
c0 46.4277 -4.59863 49 -29.7539 58.8145c-27.3184 10.6582 -57.2148 13.2568 -70.834 26.876c-4.33008 4.33008 -6.66504 9.68945 -6.66504 16.1094c0 4.7959 1.30371 10.1846 4.05176 16.1768c36.4951 79.5967 68.6367 70.0742 91.3711 139.761
c5.20312 15.9443 6.93652 32.2529 6.93652 48.6797c0 32.5635 -6.77832 65.1611 -6.77832 95.8125c0 47.6494 17.2412 68.3838 35.0508 86.1934c66.2422 66.2412 143.674 66.3555 238.901 66.3555h0.988281c82.8154 0 190.135 -23.3467 246.021 -49.8477
c43.5547 -20.6533 21.8506 -15.7109 32.4561 -16.8408c11.3984 -1.2168 39 -13 47.5039 -30.4053c4.31641 -8.83496 -4.12305 -21.668 -4.50391 -29.5947c-0.257812 -5.36523 2 -14.3428 2 -20zM425.722 435.47l42.4043 40.5605
c4.40332 4.21191 9.92969 -2.34473 11.9688 -4.38379c1.94531 -1.94531 1.95117 -5.10059 0.0175781 -7.05371l-41.7627 -42.1768l45.7559 -42.0586c2.13477 -2.13477 1.7959 -5.60352 -0.341797 -7.38379l-6.43457 -5.35938
c-1.91016 -1.5918 -4.73242 -1.53711 -6.58008 0.164062l-45.917 42.2705s-41.3555 -42.0928 -41.3877 -42.125c-4.8584 -4.85938 -9.97754 3.1709 -11.9004 5.27246c-1.78418 1.9502 -1.74219 4.97754 0.125977 6.87793l40.7715 41.4629l-40.0615 41.6738
c-1.92383 2.00098 -1.82324 5.19043 0.150391 7.0791l5.74023 5.49023c1.9541 1.86816 5.05469 1.8457 6.98047 -0.0693359zM480 100c0 -2.7041 -2.31934 -4.99902 -5.02246 -4.99902l-91.1768 0.429688c-2.69141 0.0126953 -4.99414 2.33594 -4.97559 5.03418
l1.29004 184.074c0.0478516 6.76172 9.52441 4.84473 15.8379 4.67578c2.61914 -0.0693359 4.86426 -2.33984 4.86426 -4.99707v-168.108h59.293v168.108c0 6.54688 8.71094 4.94629 14.9639 4.85547c2.65137 -0.0390625 4.92578 -2.32617 4.92578 -4.99902v-184.074z
M574.979 448.568l-66.5332 120.444c-3.48047 6.30078 6.23828 8.63184 10.1074 10.2676c2.34863 0.992188 5.10254 -0.0800781 6.27246 -2.09082l54.9746 -94.4307l50.0371 95.2031c1.09863 2.09082 3.88379 3.28809 6.30762 2.30664l10.3818 -4.20508
c2.4707 -1.00098 3.99219 -4.29297 2.51562 -7.0166l-65.2891 -120.444c-1.72754 -3.18652 -6.875 -3.47266 -8.77441 -0.0341797z" />
  </g>

</svg>
