<?xml version="1.0" standalone="no"?>
<!DOCTYPE svg PUBLIC "-//W3C//DTD SVG 1.1//EN" "http://www.w3.org/Graphics/SVG/1.1/DTD/svg11.dtd" >
<svg xmlns="http://www.w3.org/2000/svg" xmlns:xlink="http://www.w3.org/1999/xlink" version="1.1" viewBox="-10 0 1010 1000">
  <g transform="matrix(1 0 0 -1 0 800)">
   <path fill="currentColor"
d="M751.732 754.841c13 3 37.042 -6.60156 36.5 -32c-0.341797 -16.0664 -18.4766 -29.8857 -18.5 -31.5c0 0 2.5 -29 -2.01465 -144.765l131.802 -0.796875c7.88672 19.917 35.1475 28.4932 52.6924 10.9492c20.583 -20.584 5.19141 -54.6826 -22.4609 -54.8867
c-12.6523 -0.0927734 -23.8232 7.39453 -29.1416 18.1504c-1.14844 0.385742 -1.53711 0.489258 -1.64453 0.420898l-130.965 -0.413086l0.931641 -126.237c32.1865 -13.7607 22.0713 -61.668 -12.1807 -61.9209c-33.8506 -0.249023 -45.5684 47.1895 -13.0664 61.5664
l-0.933594 126.416l-144.444 -1.06641c-16.4854 -29.1025 -59.8379 -16.3457 -60.0732 15.5645c-0.262695 35.5938 50.3018 44.8672 62.5518 11.0527l141.684 1.04688l-0.736328 146.419s-43.5 42.5 10 62c9.23828 4.70605 -4.23145 -1.53906 0 0zM33.5742 -105.354h55.5146
l17.1611 52.2256l17.1602 -52.2256h55.5156l-44.8672 -32.2959l17.1611 -52.2246l-44.9697 32.2959l-44.9707 -32.2959l17.1611 52.2246zM435.131 238.716c0 7.42773 6.04688 13.542 13.5918 13.542c-0.0185547 0 84.0664 -0.34082 97.9805 -0.396484l63.6426 57.5801
c1.31836 -10.3857 2.69043 -20.7168 3.97363 -31.1367l0.899414 -27.9473l207.444 0.390625c7.38477 0.0136719 13.5186 -6.03027 13.5186 -13.541v-84.6846l57.6465 -67.1221c-16.8291 0.912109 -33.6582 1.82422 -50.4873 2.73535l-7.93945 -0.487305l0.780273 -150.521
c0.0380859 -7.41797 -6.04102 -13.5664 -13.5918 -13.5664c0.0205078 0 -373.918 1.50879 -373.918 1.50879c-7.40332 0 -13.541 6.02734 -13.541 13.541v300.105zM472.219 -37.8965l326.888 -1.4043l0.261719 128.418
c-11.4902 -0.623047 -11.4902 -0.623047 -61.3779 -1.94336l61.1064 67.0166v59.5703l-183.72 2.52051c-0.155273 -15.4531 -0.15918 -15.8955 1.03516 -60.6455l-70.1602 59.165l-74.0332 0.317383v-253.015zM437 412h-212.407l-45.263 132.557l82.143 -41.647
l64.984 93.312l64.788 -93.312l81.65 41.167zM243.23 428.769l166.14 -0.742l28.755 78.546l-57.511 -29.639l-53.25 84.473l-55.38 -80.768l-59.639 30.381z" />
  </g>

</svg>
