<?xml version="1.0" standalone="no"?>
<!DOCTYPE svg PUBLIC "-//W3C//DTD SVG 1.1//EN" "http://www.w3.org/Graphics/SVG/1.1/DTD/svg11.dtd" >
<svg xmlns="http://www.w3.org/2000/svg" xmlns:xlink="http://www.w3.org/1999/xlink" version="1.1" viewBox="-10 0 1024 1000">
  <g transform="matrix(1 0 0 -1 0 800)">
   <path fill="currentColor"
d="M207.669 335.659l-107.784 195.121l12.4424 5.25586l96.4219 -165.629l87.8691 167.184l16.8184 -6.81055zM449.478 457.862l-102.618 98.2471l8.19336 7.84473l102.619 -98.2471l102.877 98.4961l8.26172 -7.08008
c-24.3818 -22.9834 -55.6797 -52.5264 -103.777 -98.4648c35.1729 -33.6738 70.3438 -67.3486 105.516 -101.022l3.05859 -1.3623c-4.59863 -3.9502 -4.59863 -3.9502 -11.2295 -7.79492l-105.534 102.347c-29.0488 -27.8291 -60.8809 -58.415 -102.1 -98.6436
l-8.25781 7.07617c2.10938 2.01855 101.961 97.6182 102.991 98.6045zM468.934 234.206l223.065 1.04297v15.5635l-590.879 -0.873047l-21.0361 -0.211914c5.57715 -2.72363 11.3213 -5.46289 13.6611 -6.33496h0.737305
c15.0205 -5.83203 15.0205 -5.83203 374.451 -124.714v115.527z" />
  </g>

</svg>
