<?xml version="1.0" standalone="no"?>
<!DOCTYPE svg PUBLIC "-//W3C//DTD SVG 1.1//EN" "http://www.w3.org/Graphics/SVG/1.1/DTD/svg11.dtd" >
<svg xmlns="http://www.w3.org/2000/svg" xmlns:xlink="http://www.w3.org/1999/xlink" version="1.1" viewBox="-10 0 1479 1000">
  <g transform="matrix(1 0 0 -1 0 800)">
   <path fill="currentColor"
d="M74.3545 -131.479h55.5146l17.1611 52.2256l17.1602 -52.2256h55.5156l-44.8672 -32.2959l17.1611 -52.2246l-44.9697 32.2959l-44.9707 -32.2959l17.1611 52.2246zM964.027 -136.55c0 -2.2207 1.86035 -3.84668 3.84668 -3.84668l306.269 -1.23535
c2.125 0 3.8584 1.73926 3.85742 3.80859l-1.56641 133.111c4.99023 -0.712891 9.93652 -1.86621 14.9697 -2.13867l24.502 -1.32715l-37.9053 44.1357v72.042c0 2.13184 -1.73828 3.84961 -3.67969 3.84961l-176.216 -3.83984l-1.79688 33.2295l-1.44336 11.2471
l-43.9229 -39.7383l-1.22168 0.00488281s-81.8223 0.331055 -81.835 0.331055c-2.22559 0 -3.85742 -1.85449 -3.85742 -3.84766v-245.786zM979.914 -124.522v221.707l70.541 -0.302734l47.6406 -40.1758c0.808594 13.4941 1.10059 27.5039 1.5791 41.3281l162.439 -2.08789
v-58.7441l-41.3955 -45.4004l20.3809 -2.70215l24.5938 3.7832l-3.6748 -118.617zM312 -42l-93.3447 84.5576l15.126 11.1406l72.3232 -66.4297l128.963 163.354l20.5469 -9.44238zM622.117 24.123c0 1.58105 -1.58984 5.91602 -2.95508 7.69043
c-1.88867 1.40137 -6.42871 3.01855 -8.16113 3.01855c-6.26562 0 -10.749 -4.34766 -14.8086 -8.4082c-1.75098 -1.75 -4.0498 -2.62793 -6.34863 -2.62793c-3.70605 0 -5.74902 2.02832 -7.41309 3.69336c-0.345703 0.345703 -6.25098 5.52734 -9.72363 6.67383
c-1.58496 0.522461 -2.62109 0.663086 -3.90137 0.663086c-1.65137 0 -6.00586 -1.49707 -8.06543 -2.95703c-0.87793 -1.38574 -0.908203 -1.48633 -3.00098 -8.68066c0.172852 -2.67773 1.43945 -8.1416 7.47266 -13.9619l24.6514 -23.7803l24.4775 23.5596
c2.64648 2.65234 7.77637 7.86328 7.77637 15.1172zM558.182 75.2646c0.317383 -5.63965 0.125 -13.0859 -0.368164 -21.5781c8.02441 2.83887 19.3096 3.55176 31.9014 -5.26953c8.5752 6.09375 14.6426 7.15918 21.2129 7.28906
c9.02734 0 18.7471 -4.79395 22.8779 -9.09375c8.86816 -9.22559 16.8291 -31.29 -5.00586 -52.6123c-25.8105 -25.2041 -28.8877 -28.0283 -29.7656 -28.7979c-5.19824 -4.99219 -13.3252 -5.00684 -18.5723 0.0751953l-27.8818 27.002
c-0.954102 -11.0527 -1.70801 -21.3184 -1.92969 -29.5938c-0.0898438 -3.35059 -0.338867 -18.3857 2.38184 -19.8408c0.310547 -0.109375 0.55957 -0.280273 0.50293 -0.757812c8.83984 -95.0371 98.5742 -184.048 103.564 -185.877
c0.164062 -0.0595703 -0.30957 0.0136719 -0.30957 0.0136719l-0.46875 -0.243164l-0.25293 -0.574219l1.49121 -0.832031l-16.8125 -11.208c-1.87012 2.04004 -2.76953 3.02148 -7.06152 7.66797c-34.0947 36.9121 -71.2422 77.1748 -100.139 175.203
c-7.98535 -46.377 -36.5957 -97.2275 -62.3887 -129.984c-16.6367 -21.1289 -22.2734 -36.0156 -37.5088 -52.9434l-19.8809 15.7393c11.7246 15.1992 19.2432 25.5049 29.6338 39.8457c5.85645 8.08301 11.2539 15.5332 17.0205 23.1074
c70.5693 92.7002 72.6816 214.858 72.1543 276.935l20.5234 -0.452148c1.82324 -0.0400391 4.9209 -0.919922 4.80957 -6.47461c-0.0332031 -1.61035 -0.175781 -8.79785 0.271484 -16.7451v0zM622.35 255.601c0.303711 0.0126953 19.5059 0.00195312 19.5117 0.0117188
c-5.91504 24.8076 -4.25293 32.7959 -2.0957 39.7559c0.0195312 0.0625 1.68945 5.83301 1.91699 6.28809l13.9492 27.8994c-7.13965 110.67 -7.13965 110.67 -7.09961 111.146c2.3457 27.8438 4.39062 60.3213 2 81.125c-6.21777 24.6924 -21.6436 19.4814 -25.2461 11.583
c-1.27441 -2.79004 -2.70801 -3.11914 -6.41309 -3.96777c-2.87793 -2.5752 -7.40625 -2.01172 -9.56055 1.23145c-2.69922 4.06543 -15.1875 23.4043 -15.5156 24.0459c-4.5166 8.8457 -21.9375 14.2881 -25.2676 -3.22266
c-0.120117 -0.632812 -0.120117 -0.632812 -6.06738 -15.1279c-2.21484 -5.39941 -10.0254 -5.1748 -11.9238 0.34668l-11.1855 32.541c-2.99121 8.69922 -21.6494 15.6465 -31.5059 -0.828125c-0.181641 -0.541992 -1.5127 -4.57715 -8.70508 -27.1357
c-1.56445 -4.9043 -8.08887 -6.02441 -11.1904 -1.85742c-9.20117 12.3633 -9.20117 12.3633 -9.36328 12.5254c-0.0615234 0.0615234 -10.5088 10.4912 -16.4277 4.57227c-3.24219 -3.24121 -5.0752 -11.1543 -5.88281 -16.0068
c0.0234375 -0.727539 0.167969 -5.02246 0.964844 -25.8506c0.474609 -12.9707 1.05176 -40.6885 1.06348 -41.0996c3.79395 -27.0391 2.03906 -27.8828 4.0127 -42.3506c0.143555 -0.555664 1.2373 -4.77246 6.91797 -26.2793
c0.0556641 -0.210938 0.575195 -12.252 -1.07227 -15.0527c-4.0498 -6.88477 -4.33105 -7.3623 -7.00293 -7.97461c-10.5742 -2.42285 -13.9209 -0.292969 -17.4961 4.66895c-1.83887 2.55176 -14.3486 15.0889 -15.6064 16.54l-26.2129 30.2461
c-0.708984 0.46875 -4.34668 2.85254 -15.291 9.78418c-0.638672 0.194336 -3.70312 1.10938 -12.9521 3.69922c-2.58691 -1.41895 -5.66992 -0.564453 -8.00781 -2.90234c-1.69727 -1.69629 -3.65527 -7.38086 -3.03223 -10.6006l14.4619 -19.4492
c2.78613 -2.61133 17.5918 -15.5166 18.3164 -16.3936c21.6113 -26.1348 21.6113 -26.1348 21.7148 -26.2754c15.7061 -21.2793 15.7061 -21.2793 15.8242 -21.4639c14.1621 -22.2549 14.1621 -22.2549 14.3623 -22.7197l10.9385 -25.3555
c3.02148 -4.68457 14.7031 -22.3115 15.0166 -22.9053c4.9209 -9.35059 4.9209 -9.35059 5.10645 -10.1289c3.66211 -15.3457 29.5986 -16.1094 29.9385 -16.1162l28.3691 -0.506836zM641.862 242.858h-19.1133c-85.9854 -3.57129 -85.9854 -3.57129 -86.1768 -3.56738
l-28.5723 0.509766c-4.53711 0.0859375 -35.5088 1.5332 -41.8838 25.0635l-4.05859 7.71191c-14.8545 22.5342 -14.6025 21.7881 -15.501 23.8711l-10.8193 25.082l-13.5029 21.2178l-15.3408 20.7842l-21.0684 25.4785
c-18.0977 16.0293 -18.0977 16.0293 -18.8936 17.0977l-14.79 19.8906c-5.27637 7.0957 -1.59277 20.9414 4.4375 26.9717c3.53516 3.53516 6.86914 4.61523 11.8115 5.52539c2.73438 1.22266 5.81152 1.43359 8.66504 0.634766
c13.4561 -3.76758 13.748 -3.56836 16.1133 -5.06641c14.4385 -9.14551 15.5342 -9.49023 17.6025 -11.5576c0.241211 -0.242188 -0.310547 -0.746094 26.8174 -30.9062c14.1328 -15.7139 14.6846 -15.21 16.7139 -17.96
c0.335938 0.0302734 0.795898 0.0869141 1.37695 0.181641l0.683594 1.16113l0.304688 7.62109c-6.79883 25.7275 -6.72363 25.0166 -6.9541 26.6963c-2.125 15.4688 -0.255859 15.6895 -4.07324 42.7959c-0.0585938 0.416992 -0.822266 33.5186 -1.13672 42.0879
c-1.01953 26.6318 -1.26367 25.583 -0.865234 28.0469c1.24121 7.69141 4.10156 25.4199 19.0791 28.5781c12.4531 2.62695 24.5254 -9.06445 26.1816 -11.29l1.85449 -2.49121c4.97656 15.79 4.81641 15.6855 5.9834 17.6689
c15.415 26.2178 48.1836 17.585 54.6699 -1.28223l5.47168 -15.9199c7.63379 25.6533 38.3418 21.834 48.1123 3.33887c0.114258 -0.176758 10.9756 -17.0518 11.3857 -17.6826c10.7168 13.8525 37.8574 16.1885 46.5156 -18.1953
c0.137695 -0.548828 0.239258 -1.10449 0.303711 -1.66309c2.61035 -22.7148 0.430664 -55.1992 -1.92188 -83.1924l7.07812 -109.717c0.144531 -2.22949 -0.293945 -4.49023 -1.31543 -6.53223l-13.6406 -27.2812c-0.392578 -1.52051 -0.851562 -3.03906 -1.45605 -4.99121
c-1.69727 -5.47754 -3.49023 -8.63379 2.32031 -32.999c1.91016 -8.00977 -4.16016 -15.7207 -12.3984 -15.7207zM568.325 389.319c0.4375 -7.78027 -2.68457 -28.2275 -1.81348 -33.1777c0.267578 -0.303711 0.542969 -0.774414 0.599609 -1.38184
c1.81445 -19.5098 17.7822 -38.7363 23.959 -44.9131c1.25 -1.25 1.25 -1.25 4.87598 -4.05469c-0.425781 -0.27832 -0.425781 -0.27832 -6.93359 -4.61719c-0.988281 -0.65918 -2.32324 -0.505859 -3.13379 0.37793c-10.4307 11.3467 -18.624 20.2588 -25.874 40.9551
c-3.27637 -10.2002 -9.25391 -20.2178 -14.7754 -27.2295c-3.8584 -4.89941 -6.89453 -10.9131 -9.78027 -13.7998c-0.880859 -0.879883 -2.27051 -0.941406 -3.22266 -0.188477c-4.9043 3.88379 -4.9043 3.88379 -5.00488 3.9834
c-0.87207 0.873047 -0.941406 2.24707 -0.208008 3.19727c2.75586 3.57324 11.8545 16.0078 11.9756 16.168c17.6123 23.1357 18.4678 53.8828 18.3271 70.4385c-0.0117188 1.36914 1.11133 2.47852 2.48145 2.44629c6.48535 -0.143555 6.48535 -0.143555 7.42188 -1.08008
c0.703125 -0.704102 1.0625 -1.74707 1.03906 -2.9375c-0.00878906 -0.400391 -0.0439453 -2.21582 0.0664062 -4.18652zM180 510h187.988l0.392578 94.3916c6.55859 -3.88086 13.1172 -7.76074 19.6758 -11.6406l-0.347656 20.8936l-83.6787 48.5625l0.707031 0.298828
c-10.418 5.41602 -12.7217 6.68262 -18.9561 10.292l-127.477 -52.5439v-19.4307c7.27539 3.06543 14.5518 6.12988 21.8281 9.19434zM198.12 528.13l-0.411133 89.292l86.8242 36.5723l66.1084 -39.1094l-0.739258 -86.7549h-151.782zM1261.71 431.406zM918.205 662.505z
M854.056 544.408zM1104 390zM1103.55 375.659zM912.577 428.985zM1022.67 394.35zM1322.99 571.11zM854.056 544.408zM1322.99 571.11zM1170.88 722.729c-24.2158 0 -44.7158 -9.41797 -55.1133 -19.8164c-3.95605 -3.95605 -2.94629 -4.16211 -4.58203 -4.75781
c-7.35156 -2.68066 -14.5547 -3.65137 -21.1289 -3.65137c-6.20605 0 -17.4844 0.916016 -29.6953 6.40332c-8.29688 10.0986 -22.3291 19.291 -45.9229 19.291c-35.4199 0 -75.8105 -21.9229 -89.8574 -54.7705l-0.694336 -1.62305h-2.44336l-63.9951 -86.9521h-3.06152
v-4.15918c-0.415039 -0.563477 -0.830078 -1.12598 -1.24512 -1.69141h0.669922l-7.08789 -26.5781l-0.796875 0.0117188c-0.142578 -2.7207 -0.399414 -4.28418 -1.25879 -7.66602h1.03125c-0.0244141 -3.00488 -0.0244141 -3.00488 -0.0244141 -3.31055
c0 -19.4307 8.38477 -58.7539 64.2715 -104.976c59.0225 -48.8193 125.772 -54.2012 181.108 -54.2012c90.6982 0 127.676 11.3662 181.948 54.2529c66.2998 52.3877 67.418 67.8145 69.2412 106.105l-1.85645 0.0292969
c-0.112305 0.425781 -8.25586 33.6562 -11.1445 42.6006l-47.3848 80.9717c-5.33984 5.5752 -5.33984 5.5752 -5.87793 6.49707h-0.351562c-16.6611 17.0508 -51.585 48.959 -85.6846 56.0283c-6.52441 1.35352 -12.915 1.96191 -19.0635 1.96191zM1013.51 699.311
c5.09766 0 16.4268 0 29.3447 -8.88965l-0.0996094 -1.23242c0.745117 -0.304688 1.94043 -0.866211 3.10059 -1.96875c10.9453 -10.4004 27.7666 -15.2842 43.7363 -15.2842c14.877 0 29.0156 4.23633 36.9756 12.1973c1.54785 1.54883 4.0498 4.04883 5.98145 9.87207
c8.20117 5.59668 21.2305 11.7041 39.0127 11.7041c23.5977 0 34.6299 -10.2773 43.0908 -18.1543c6.57422 -6.12305 15.2324 -14.2051 33.8516 -26.5264c0.711914 -0.155273 1.29492 -0.49707 1.76367 -1.02637l0.40918 0.015625l53.251 -83.9922
c0 -0.143555 -0.00292969 -0.287109 -0.00292969 -0.431641c3.81934 -14.3086 7.30664 -28.9502 10.9834 -43.4004c1.28613 -5.13672 2.00879 -9.89648 2.00879 -14.5059c0 -22.1133 -16.4521 -40.0283 -63.8438 -78.7568
c-43.6709 -35.6836 -75.2949 -47.9248 -170.602 -47.9248c-51.5947 0 -93.1846 6.33887 -141.757 40.3379c-59.875 41.9141 -67.9258 72.7793 -67.9258 100.266c0 1.81348 0.0341797 3.59961 0.0849609 5.35742c2.98828 11.8564 6.2334 23.4561 9.31738 35.2148
l58.3525 82.6143c0.828125 -0.318359 1.6543 -0.638672 2.48145 -0.956055c1.9668 4.62891 5.31348 12.5156 14.3955 21.5977c14.6357 14.6357 36.2979 23.873 56.0889 23.873zM1146 462h-140.728l-29.9883 126.225l54.4229 -39.6572l43.0547 88.8535l42.9238 -88.8535
l54.0967 39.2002zM1017.62 477.968l110.073 -0.705078l19.0518 74.793l-38.1025 -28.2236l-35.2803 80.4385l-36.6904 -76.9102l-39.5146 28.9287z" />
  </g>

</svg>
