<?xml version="1.0" standalone="no"?>
<!DOCTYPE svg PUBLIC "-//W3C//DTD SVG 1.1//EN" "http://www.w3.org/Graphics/SVG/1.1/DTD/svg11.dtd" >
<svg xmlns="http://www.w3.org/2000/svg" xmlns:xlink="http://www.w3.org/1999/xlink" version="1.1" viewBox="-10 0 1051 1000">
  <g transform="matrix(1 0 0 -1 0 800)">
   <path fill="currentColor"
d="M30.3242 741.553h55.5146l17.1611 52.2256l17.1602 -52.2256h55.5156l-44.8672 -32.2959l17.1611 -52.2246l-44.9697 32.2959l-44.9707 -32.2959l17.1611 52.2246zM271 608l-12 60c128.725 89.7881 355.203 55.3633 442.457 48.5605
c0 -0.0107422 0.000976562 -0.0214844 0.000976562 -0.0322266c27.4463 0.582031 75.1855 -1.32129 107.268 -33.4033c40.1396 -40.1396 38.6152 -108.841 37.5254 -169.365c-0.395508 -21.9258 -0.433594 -33.2402 -0.22168 -41.9463
c26.3789 -43.8281 72.168 -89.959 89.3252 -129.607c6.95117 -16.0635 5.49219 -24.7637 2.64551 -40.2051l-12 -14l-79.501 -63.5771v-212.431c1.93945 -31.0869 1.82422 -79.2412 -27.416 -108.48c-26.0322 -26.0322 -182.507 -12.0195 -220.584 -13.0049
l-2.90137 0.0126953c-103.732 -7.2998 -296.108 50.6025 -326.603 92.1719c-18.5059 25.2275 -31.4014 41.2529 -57.9951 55.3086v70.0371c25.8174 -16.2627 49.624 -17.8066 70.1904 -60.6357c44.2188 -92.082 349.455 -105.734 451.309 -108.438l-0.499023 -0.962891
c50 12 34.1514 4.48145 42.5352 13.5361c19.1768 20.7119 3.97852 41.9688 5.50781 57.9648h-0.541992v2.14941c-0.253906 0.990234 -0.500977 1.94141 -0.738281 2.84863h0.738281v207.174v3.4873v1.33887h1.58203l104 88h1.13281
c4.9834 45.8955 -62.8379 92.1289 -94.2158 139.501l-3 4l-1 1c-2.02051 3.99219 0.0439453 4.02539 -2.08398 11.5605c-0.0371094 0.130859 -0.189453 0.24707 -0.174805 0.367188l0.258789 2.07227l0.0644531 1.49902
c0.00976562 0.226562 0.150391 3.89551 0.242188 6.24414c3.11426 79.1523 5.19727 173.389 -83.8154 173.771c-136.35 16.7461 -373.536 9.53418 -431.49 -46.5137zM606.698 395.949zM409.321 528.737zM372.462 460.88zM516.078 372.159zM515.819 363.918zM406.088 394.559
zM469.348 374.657zM641.904 476.223zM372.462 460.88zM641.904 476.223zM646.763 480.847c2.5459 -7.70898 4.18359 -16.0518 6.3252 -24.043l1.49219 -0.0244141c-1.13477 -23.9453 -1.5625 -32.9629 -40.4453 -63.6865
c-28.9316 -22.8623 -50.1143 -30.915 -98.2637 -31.458c-33.1191 -0.373047 -75.2988 0.866211 -112.277 31.4492c-14.5703 12.0518 -37.7002 35.374 -37.4854 61.8682h-1.03711c1.13281 4.24707 1.13281 4.24707 1.24121 7.50781l0.757812 -0.0126953l3.24707 12.1758
h-1.4248c0.740234 1.00488 1.48047 2.00977 2.2207 3.01562v3.4209h2.51758l36.7715 49.9619h1.16699c12.7217 29.75 61.4619 44.0811 80.3916 21.0371c2.6875 -1.20801 14.8789 -6.07227 27.7148 -1.39258c6.6123 8.84961 25.1904 17.3896 46.0967 13.0547
c20.2197 -4.19336 40.6182 -23.0029 49.5674 -32.1621h0.428711c0.31543 -0.463867 0.53125 -0.996094 0.927734 -1.40332l2.81152 -2.93359l26.8496 -45.8799c0.400391 0.0341797 0.716797 0.00878906 0.654297 -0.282227zM384.813 456.559
c-0.445312 -15.2676 1.24316 -33.4258 38.3242 -59.3828c31.4658 -22.0254 57.5381 -23.6074 93.333 -22.7217c41.7051 1.07324 59.1074 6.43457 84.291 27.0127c33.4883 27.3662 39.0381 35.9434 35.0107 52.0186l-5.32617 21.2598l-0.195312 -0.349609
c0.0117188 1.28711 -0.848633 2.92285 -0.836914 4.20996l-29.8828 47.1309c-0.801758 -0.03125 -0.161133 0.697266 -0.963867 0.666016c-18.4961 12.1943 -20.4688 17.4775 -27.3779 21.5527c-10.6387 6.27441 -26.9971 5.01074 -37.4111 -2.0957
c-5.18359 -15.6172 -37.3486 -18.1201 -52.1689 -4.03711c-1.38184 1.3125 -2.40039 0.582031 -2.26953 2.19238c-15.8438 10.9023 -45.5186 -0.0810547 -53.9033 -19.8311l-1.01758 -2.39551l-1.69434 0.652344l-32.6797 -46.2646zM504.75 427.118
c-0.0498047 1.72949 -0.0742188 3.02637 -0.0742188 3.89062c0 5.09277 0.735352 9.4873 2.20703 13.1865c1.0791 2.78516 2.82031 5.5957 5.22266 8.42969c1.76562 2.06543 4.92871 5.06738 9.48926 9.00684c4.60938 3.98633 7.60059 7.15723 8.97461 9.51074
c1.37305 2.35352 2.05957 4.92383 2.05957 7.70996c0 5.04395 -2.01074 9.46289 -6.03125 13.2578c-4.02246 3.84277 -8.9502 5.76465 -14.7852 5.76465c-5.64062 0 -10.3477 -1.73047 -14.125 -5.18848c-3.77539 -3.45898 -6.25195 -8.8623 -7.42871 -16.2119
l-13.6084 1.58496c1.22559 9.84766 4.85449 17.3896 10.8867 22.624c6.08008 5.2373 14.0986 7.85449 24.0527 7.85449c10.5449 0 18.9551 -2.81055 25.2314 -8.42969c6.27734 -5.62012 9.41602 -12.417 9.41602 -20.3916c0 -4.61133 -1.10352 -8.8623 -3.31055 -12.7529
s-6.52148 -8.62207 -12.9463 -14.1943c-4.31543 -3.74707 -7.13477 -6.50879 -8.45898 -8.28516c-1.3252 -1.77832 -2.30566 -3.82031 -2.94238 -6.125c-0.637695 -2.30566 -1.00488 -6.05371 -1.10352 -11.2412h-12.7256zM503.94 401.107v14.7705h15.0801v-14.7705
h-15.0801zM653.519 297.626l21.1094 -17.7129l-192.893 -220.45l-21.1104 17.7129zM642 36h0.354492c4.38672 0 5.87207 6.66602 5.87207 8.9541c0 1.57422 -0.700195 5.2959 -1.9707 10.5889c-2.45996 9.77734 -4.87012 19.5742 -7.23242 29.3867
c-9.25 37.2607 -18.4053 48.4873 -32.1309 48.4873c-16.6895 0 -24.4932 -18.2451 -32.4824 -50.2441c-6.5625 -26.9922 -7.35254 -29.8145 -7.61426 -30.6406c-0.649414 -2.75488 -1.23828 -5.47852 -1.23828 -7.58789c0 -2.70703 1.68066 -8.42773 4.92969 -8.82129
c1.04102 -0.100586 2.0752 -0.170898 3.09766 -0.206055l21.3408 0.0322266l42.8477 -0.0322266l4.13281 0.0830078h0.09375zM551.882 45.1826c0 3.78125 0.210938 4.5791 4.52246 21.5088c8.51465 35.0576 11.6582 48.3828 20.584 62.1406
c3.03906 4.53027 12.2715 17.1123 29.7295 17.1123c29.9102 0 39.2246 -32.6748 45.4814 -57.5977c9.55078 -39.2314 9.71094 -39.3877 9.71094 -43.4951c0 -9.9502 -7.04492 -19.8975 -16.3789 -21.0605c-1.87109 -0.248047 -3.75684 -0.371094 -5.64258 -0.371094
c-0.178711 0 -0.358398 0.00195312 -0.539062 0.00195312l-66.1035 -0.0292969c-0.0654297 0.00292969 -0.130859 0.00585938 -0.195312 0.0107422c-4.37305 0.182617 -10.5068 0.489258 -15.626 6.48242c-3.7168 4.34863 -5.54297 9.73047 -5.54297 15.2969z
M515.032 197.295c0.182617 0.000976563 0.349609 0 0.354492 0c4.38574 0 5.87109 6.66602 5.87109 8.95605c0 1.57227 -0.700195 5.29492 -1.96875 10.5869c-2.46191 9.77832 -4.87207 19.5723 -7.23438 29.3848c-9.25 37.2637 -18.4043 48.4873 -32.1299 48.4873
c-16.6904 0 -24.4932 -18.2432 -32.4834 -50.2412c-6.56152 -26.9922 -7.35254 -29.8164 -7.61328 -30.6416c-0.652344 -2.75391 -1.23926 -5.47949 -1.23926 -7.58984c0 -2.70605 1.68066 -8.42578 4.92773 -8.81934
c1.04297 -0.101562 2.07715 -0.171875 3.09961 -0.207031l21.3408 0.0322266l42.8496 -0.0322266l4.13086 0.0839844h0.0947266zM424.913 206.477c0 3.78027 0.211914 4.58008 4.52246 21.5078c8.51758 35.0596 11.6592 48.3857 20.584 62.1426
c3.03906 4.5293 12.2725 17.1113 29.7305 17.1113c29.9111 0 39.2236 -32.6738 45.4795 -57.5967c9.55176 -39.2314 9.71191 -39.3887 9.71191 -43.4951c0 -9.95117 -7.0459 -19.8975 -16.3779 -21.0596c-1.87207 -0.249023 -3.75586 -0.373047 -5.64355 -0.373047
c-0.178711 0 -0.358398 0.000976562 -0.537109 0.000976562l-66.1055 -0.0273438c-0.0654297 0.00195312 -0.131836 0.00488281 -0.198242 0.00878906c-4.37012 0.186523 -10.5029 0.491211 -15.6221 6.48438c-3.71777 4.34766 -5.54395 9.73047 -5.54395 15.2959z" />
  </g>

</svg>
