<?xml version="1.0" standalone="no"?>
<!DOCTYPE svg PUBLIC "-//W3C//DTD SVG 1.1//EN" "http://www.w3.org/Graphics/SVG/1.1/DTD/svg11.dtd" >
<svg xmlns="http://www.w3.org/2000/svg" xmlns:xlink="http://www.w3.org/1999/xlink" version="1.1" viewBox="-10 0 1046 1000">
  <g transform="matrix(1 0 0 -1 0 800)">
   <path fill="currentColor"
d="M30.3242 741.553h55.5146l17.1611 52.2256l17.1602 -52.2256h55.5156l-44.8672 -32.2959l17.1611 -52.2246l-44.9697 32.2959l-44.9707 -32.2959l17.1611 52.2246zM746 631c0 -96.6865 68.0879 -173.199 99.375 -191.775l11.1992 -6.64941
c-16.9434 -0.478516 1.18945 0.900391 -34.5742 -3.5752l-1.0752 1.36426c-22.0068 27.9238 -93.9978 110.011 -106.903 207.233c-0.657227 4.95117 0.0224609 9.79688 0.582031 18.2783c-1.38379 0.708984 -2.88672 1.4873 -4.52246 2.34082
c-0.0283203 -1.83984 -0.321982 -3.81637 -0.0449219 -5.88867c33.3789 -249.661 97.5459 -216.742 97.5459 -216.742s6.91211 -4.29004 10.2793 -6.58594h-32.8613c-44.1455 16.1279 -101.697 151.17 -101.697 222.331c0 8.73535 0.302734 15.3135 0.785156 20.6846
c-60.6641 32.3369 -123.179 64.7012 -226.885 64.7012c-23.0527 0 -45.5234 -2.04883 -73.3945 -6.17773c-32.3232 -4.78906 -32.3232 -4.78906 -70.6152 -21.2002c-18.916 -8.10645 -50.2139 -47.4062 -58.166 -66.7188
c-7.02734 -17.0664 -9.0791 -30.2676 -9.0791 -45.8906c0 -22.332 3.62891 -44.376 3.62891 -77.1553c0 -8.99219 1.14648 -13.8564 1.14648 -20.1924c0 -4.57031 -0.613281 -9.64551 -2.73242 -16.6025c-19.9492 -65.4795 -40.3174 -87.0479 -63.832 -110.183
c-6.25977 -6.16016 -27.0508 -26.6172 -27.0508 -37.7881c0 -4.45605 0.882812 -6.9082 38.3447 -19.4531c55.9199 -18.7266 60.0254 -24.4102 60.0254 -90.9766c0 -43.0117 2.70801 -110.013 2.70801 -151.731c0 -5.5 0.0820312 -11.3867 0.267578 -17.7666
c0.50293 -17.292 16.4512 -45.3398 23.8975 -57.5352c1.19629 -0.303711 1.95996 -1.18164 1.95996 -1.18164c1.1543 -0.666992 2.48438 -1.60059 4.13477 -2.74414c16.0508 -11.1162 22.0049 -13.1846 40.8428 -13.1846c24.0361 0 22.3457 4.21484 79.0615 4.21484
c0.316406 0 6.94531 -0.00390625 7.01562 -0.00390625c14.7988 0 25.668 0.226562 52.1025 3.80078c20.2021 2.73242 38.8271 4.61523 56.5088 6.4043c120.938 12.2334 143.711 24.1475 222.178 80.1953c2.23438 1.5957 5.14355 3.85352 8.45703 6.42773
c12.6104 9.7959 33.0303 26.8994 48.1416 26.8994c8.16699 0 13.834 -4.95996 13.834 -14.165c0 -15.4473 -17.4082 -42.8486 -33.0938 -42.8486c-1.16406 0 -1.56543 0.129883 -3.01758 0.129883c-22.6426 0 -44.3604 -36.5264 -79.4766 -51.29
c-52.8857 -22.2344 -80.2979 -27.1279 -117.459 -33.71c-17.2549 -3.05664 -36.6504 -6.49316 -61.8809 -12.2393c-34.7246 -7.90918 -51.6299 -8.61133 -86.7539 -8.61133c-0.251953 0 -22.7891 0.03125 -25.0811 0.03125
c-11.3115 0 -32.6182 -0.123047 -32.9473 -0.123047c-40.7773 0 -82.5049 2.86621 -120.91 24.8125c-26.0957 14.9121 -27.9092 36.1035 -30.0449 61.0586c-0.477539 5.59082 -0.976562 11.3994 -1.75781 17.3906c-1.96484 15.7158 -2.63672 29.7119 -2.63672 42.8916
c0 28.6572 -4.27441 100.664 -4.27441 131.409c0 46.4277 -4.59863 49 -29.7539 58.8145c-27.3184 10.6582 -57.2148 13.2568 -70.834 26.876c-4.33008 4.33008 -6.66504 9.68945 -6.66504 16.1094c0 4.7959 1.30371 10.1846 4.05176 16.1768
c36.4951 79.5967 68.6367 70.0742 91.3711 139.761c5.20312 15.9443 6.93652 32.2529 6.93652 48.6797c0 32.5635 -6.77832 65.1611 -6.77832 95.8125c0 47.6494 17.2412 68.3838 35.0508 86.1934c66.2422 66.2412 143.674 66.3555 238.901 66.3555h0.988281
c82.8154 0 132.135 -23.3467 188.021 -49.8477c43.5547 -20.6533 21.8506 -15.7109 32.4561 -16.8408c11.3984 -1.2168 39 -13 47.5039 -30.4053c4.31641 -8.83496 -4.12305 -21.668 -4.50391 -29.5947c-0.257812 -5.36523 2 -14.3428 2 -20zM-1542.19 426.509z
M-910.621 446.302zM-1542.19 426.509zM-910.621 446.302zM408 128c-0.0859375 0 -0.46875 0.163086 -0.46875 0.521484c0 0.0566406 0.00878906 0.112305 0.0214844 0.162109c-0.213867 4.19336 -0.429688 8.38574 -0.644531 12.5791l154.491 15.8447
c-1.49219 0.142578 -2.86035 0.273438 -2.87598 0.275391c-15.9375 2.71289 -21.8428 10.2109 -21.8428 25.9307c0 35.4268 29.7871 94.3916 35.8076 125.901c0.276367 1.45117 2.17969 2.52832 2.17969 3.61426c0 0.0742188 0.391602 1.01074 0.31543 1.57422
l0.629883 -0.629883c0.015625 -0.501953 0.387695 -0.841797 0.40332 -1.34473v0c7.12988 -34.2969 34.082 -79.7705 34.082 -112.391c0 -10.7217 -3.18262 -18.6738 -8.02637 -28.4746c-1.11719 -2.2627 -2.49121 -5.04395 -4.29688 -8.87695
c-0.147461 -0.313477 -1.45215 -1.69727 -7.58594 -6.96094l-4.24609 1.76855l-0.478516 1.43457c0.125 0.119141 8.52637 8.46777 8.98438 14.7588c0.219727 3.03418 0.324219 5.94336 0.324219 8.73438c0 28.2393 -10.6289 44.4277 -18.6465 56.6562
c-2.5332 3.86523 -4.8125 7.33594 -6.41211 10.6826c-6.88574 -21.5859 -22.1367 -43.8506 -22.1367 -65.1377c0 -10.5439 5.8584 -18.7734 5.98535 -18.9004c2.99512 -2.99512 4.99805 -5.08789 12.127 -7.20703v-0.967773l0.441406 0.0449219
c1.54688 3.77637 5.30859 7.35938 9.76465 7.35938c6.68359 0 9.96094 -5.87793 9.96094 -10.6123c0 -4.91504 -11.1924 -9.31641 -11.79 -9.31641c-0.277344 0 -0.600586 0.131836 -0.871094 0.333008c-3.95703 -0.611328 -113.211 -12.5928 -162.531 -17.0693
c-1.3623 -0.123047 -2.2334 -0.197266 -2.53809 -0.214844c0 0 -0.0332031 -0.0722656 -0.126953 -0.0722656zM538.749 570.794l60.5146 -0.318359v0h2.86719l-3.50391 -193.647v-11.4658h-13.0586l-49.0488 0.318359v11.4658l49.0488 -0.318359l4.14062 183.456
l-50.96 0.318359v10.1914zM334.02 489.02l14.0127 0.229492l196.117 0.47168v-12.9492l-73.1494 -0.556641v-63.2148l-121.372 65.3037l-4.42578 2.79492c-1.21973 0 -9.96289 7.9209 -11.1826 7.9209z" />
  </g>

</svg>
