<?xml version="1.0" standalone="no"?>
<!DOCTYPE svg PUBLIC "-//W3C//DTD SVG 1.1//EN" "http://www.w3.org/Graphics/SVG/1.1/DTD/svg11.dtd" >
<svg xmlns="http://www.w3.org/2000/svg" xmlns:xlink="http://www.w3.org/1999/xlink" version="1.1" viewBox="-10 0 1003 1000">
  <g transform="matrix(1 0 0 -1 0 800)">
   <path fill="currentColor"
d="M556.586 421.974l-17.3232 -19.3574c-36.4453 37.0449 -72.4531 73.4209 -107.917 108.967l-108.967 -108.966l-18.6787 18.6787l108.976 108.976c-36.5127 36.4941 -72.4258 72.0703 -107.622 106.554l17.3252 19.3564l108.103 -108.104l107.425 107.426
l18.6797 -18.6797l-107.425 -107.426zM562.323 82.3574l-17.3232 -19.3574c-36.4453 37.0449 -72.4531 73.4209 -107.917 108.967l-108.967 -108.966l-18.6787 18.6787l108.976 108.976c-36.5127 36.4941 -72.4258 72.0703 -107.622 106.554l17.3252 19.3564
l108.103 -108.104l107.425 107.426l18.6797 -18.6797l-107.425 -107.426z" />
  </g>

</svg>
