<?xml version="1.0" standalone="no"?>
<!DOCTYPE svg PUBLIC "-//W3C//DTD SVG 1.1//EN" "http://www.w3.org/Graphics/SVG/1.1/DTD/svg11.dtd" >
<svg xmlns="http://www.w3.org/2000/svg" xmlns:xlink="http://www.w3.org/1999/xlink" version="1.1" viewBox="-10 0 1020 1000">
  <g transform="matrix(1 0 0 -1 0 800)">
   <path fill="currentColor"
d="M30.3242 741.553h55.5146l17.1611 52.2256l17.1602 -52.2256h55.5156l-44.8672 -32.2959l17.1611 -52.2246l-44.9697 32.2959l-44.9707 -32.2959l17.1611 52.2246zM271 608l-12 60c128.725 89.7881 355.203 55.3633 442.457 48.5605
c0 -0.0107422 0.000976562 -0.0214844 0.000976562 -0.0322266c27.4463 0.582031 75.1855 -1.32129 107.268 -33.4033c40.1396 -40.1396 38.6152 -108.841 37.5254 -169.365c-0.395508 -21.9258 -0.433594 -33.2402 -0.22168 -41.9463
c26.3789 -43.8281 72.168 -89.959 89.3252 -129.607c6.95117 -16.0635 5.49219 -24.7637 2.64551 -40.2051l-12 -14l-79.501 -63.5771v-212.431c1.93945 -31.0869 1.82422 -79.2412 -27.416 -108.48c-26.0322 -26.0322 -182.507 -12.0195 -220.584 -13.0049
l-2.90137 0.0126953c-103.732 -7.2998 -296.108 50.6025 -326.603 92.1719c-18.5059 25.2275 -31.4014 41.2529 -57.9951 55.3086v70.0371c25.8174 -16.2627 49.624 -17.8066 70.1904 -60.6357c44.2188 -92.082 349.455 -105.734 451.309 -108.438l-0.499023 -0.962891
c50 12 34.1514 4.48145 42.5352 13.5361c19.1768 20.7119 3.97852 41.9688 5.50781 57.9648h-0.541992v2.14941c-0.253906 0.990234 -0.500977 1.94141 -0.738281 2.84863h0.738281v207.174v3.4873v1.33887h1.58203l104 88h1.13281
c4.9834 45.8955 -62.8379 92.1289 -94.2158 139.501l-3 4l-1 1c-2.02051 3.99219 0.0439453 4.02539 -2.08398 11.5605c-0.0371094 0.130859 -0.189453 0.24707 -0.174805 0.367188l0.258789 2.07227l0.0644531 1.49902
c0.00976562 0.226562 0.150391 3.89551 0.242188 6.24414c3.11426 79.1523 5.19727 173.389 -83.8154 173.771c-136.35 16.7461 -373.536 9.53418 -431.49 -46.5137zM501.111 86.7539zM501.025 85.7451zM562.655 75.252c0 -7.81641 -2.54688 -15.4404 -9.1709 -22.0645
c-2.9668 -2.9668 -5.4668 -5.02637 -7.7627 -6.44727c13.5068 2.40723 31.0967 8.65723 42.6045 28.6367c-2.49902 4.33008 -5.50879 8.25781 -9.05273 11.8018c-7.7627 7.7627 -18.6064 14.1377 -32.9512 16.7803
c-0.179688 0.0332031 -0.117188 -0.217773 -0.692383 -0.0458984c-0.380859 0.113281 -1.51367 0.452148 -3.13574 0.732422c3.48926 -1.37402 7.20312 -3.63379 10.8564 -7.28711c6.46582 -6.46582 9.30469 -13.9492 9.30469 -22.1064zM530.518 52.5752
c8.79004 0 13.8701 4.21875 16.6016 6.94922c5.75781 5.75879 6.57617 11.8174 6.57617 15.8174c-0.0195312 5.72852 -1.95117 11.0303 -6.5752 15.6543c-9.38477 9.38477 -20.5693 7.26758 -25.6318 5.08105c-0.0478516 0 -7.125 -4.66895 -7.19629 -4.71582
c-1.84473 -2.68457 -3.65723 -5.40039 -5.48926 -8.09766l-0.0185547 0.00683594c-2.9707 -8.22461 -1.53418 -17.1875 5.18066 -23.9033c4.63281 -4.63281 10.166 -6.79199 16.5527 -6.79199zM531.959 35.8633v0c-8.39551 0 -36.1992 0.401367 -58.623 22.8242
c-5 5.00098 -8.94629 10.4072 -12.4785 16.6895c-0.0117188 0.0214844 -0.0234375 0.0419922 -0.0361328 0.0644531l0.0361328 -0.0644531c4 7.11523 8.08984 12.3418 12.8281 17.0801c10.8701 10.8701 29.1982 22.5254 58.2734 22.5254
c7.49023 0 35.832 -0.132812 58.2559 -22.5566c5.11523 -5.11523 9.13281 -10.6426 12.6904 -17.0488c0.0117188 -0.0214844 0.0234375 -0.0429688 0.0351562 -0.0634766l-0.0351562 0.0634766c-1.90137 -3.4248 -5.76367 -10.0488 -12.4492 -16.7344
c-22.2256 -22.2266 -49.6484 -22.7793 -58.4971 -22.7793zM517.653 104.025c-23.3887 -4.25293 -35.4131 -16.8604 -42.2148 -28.6484c2.90625 -5.01562 6.18652 -8.89551 9.05859 -11.7676c6.75098 -6.75098 16.8359 -13.4932 31.4756 -16.4922
c-2.78027 1.36328 -5.67578 3.30469 -8.44531 6.0752c-10.6836 10.6826 -10.5234 24.1338 -7.11133 33.0566c0.0517578 0.078125 0.0292969 0.12793 -0.0507812 0.15625c-0.128906 0.6875 1.87207 4.08496 2.2002 4.92188c0.40918 1.04297 0.895508 1.54883 1.67676 2.25488
c0.546875 0.493164 0.556641 0.50293 0.928711 1.12402c0.557617 0.930664 0.583008 0.983398 3.02051 3.42188c1.91895 1.91895 6.41016 4.75 9.46191 5.89746zM588.846 7.05664c0.238281 0.00976562 15.2988 0.00195312 15.3037 0.00976562
c-4.63965 19.457 -3.33594 25.7217 -1.64355 31.1807c0.015625 0.0498047 1.32422 4.5752 1.50293 4.93262l10.9414 21.8818c-5.60059 86.7998 -5.60059 86.7998 -5.56836 87.1729c1.83887 21.8369 3.44336 47.3105 1.56836 63.627
c-4.87695 19.3662 -16.9756 15.2793 -19.8018 9.08496c-0.999023 -2.18848 -2.12402 -2.44629 -5.0293 -3.1123c-2.25684 -2.01953 -5.80859 -1.57715 -7.49805 0.96582c-2.11719 3.18848 -11.9121 18.3555 -12.1699 18.8604
c-3.54199 6.9375 -17.2061 11.2051 -19.8174 -2.52832c-0.0947266 -0.496094 -0.0947266 -0.496094 -4.75879 -11.8643c-1.7373 -4.23535 -7.86328 -4.05957 -9.35156 0.270508l-8.77344 25.5234c-2.3457 6.82324 -16.9795 12.2715 -24.7109 -0.649414
c-0.141602 -0.425781 -1.18555 -3.59082 -6.82715 -21.2832c-1.22656 -3.84668 -6.34473 -4.72559 -8.77734 -1.45703c-7.21582 9.69629 -7.21582 9.69629 -7.34277 9.82422c-0.0478516 0.0478516 -8.24219 8.22852 -12.8848 3.58594
c-2.54199 -2.54199 -3.98047 -8.74902 -4.61328 -12.5547c0.0175781 -0.571289 0.130859 -3.93848 0.756836 -20.2744c0.37207 -10.1729 0.824219 -31.9131 0.833984 -32.2354c2.97559 -21.207 1.59863 -21.8691 3.14648 -33.2158
c0.112305 -0.436523 0.970703 -3.74316 5.42676 -20.6113c0.0429688 -0.166016 0.450195 -9.61035 -0.841797 -11.8057c-3.17578 -5.40039 -3.39648 -5.77539 -5.49219 -6.25488c-8.29395 -1.90039 -10.918 -0.229492 -13.7227 3.66113
c-1.44238 2.00195 -11.2539 11.835 -12.2402 12.9727l-20.5596 23.7227c-0.555664 0.368164 -3.40918 2.2373 -11.9922 7.67383c-0.501953 0.152344 -2.9043 0.870117 -10.1592 2.90137c-2.02832 -1.11328 -4.44629 -0.442383 -6.28125 -2.27637
c-1.33008 -1.33105 -2.86523 -5.78906 -2.37695 -8.31348l11.3428 -15.2549c2.18457 -2.04883 13.7969 -12.1699 14.3652 -12.8574c16.9502 -20.498 16.9502 -20.498 17.0312 -20.6084c12.3184 -16.6895 12.3184 -16.6895 12.4111 -16.834
c11.1074 -17.4561 11.1074 -17.4561 11.2646 -17.8193l8.5791 -19.8877c2.37012 -3.67383 11.5322 -17.498 11.7773 -17.9639c3.86035 -7.33496 3.86035 -7.33496 4.00586 -7.94434c2.87207 -12.0361 23.2139 -12.6357 23.4805 -12.6406l22.251 -0.397461zM604.149 -2.93652
h-14.9902c-67.4395 -2.80176 -67.4395 -2.80176 -67.5889 -2.79883l-22.4102 0.400391c-3.55859 0.0673828 -27.8506 1.20312 -32.8506 19.6572l-3.18359 6.04883c-11.6504 17.6738 -11.4521 17.0889 -12.1572 18.7227l-8.48535 19.6719l-10.5908 16.6416l-12.0322 16.3018
l-16.5234 19.9824c-14.1953 12.5723 -14.1953 12.5723 -14.8184 13.4102l-11.6006 15.6006c-4.1377 5.56445 -1.24902 16.4248 3.48047 21.1543c2.77246 2.77246 5.3877 3.62012 9.26465 4.33301c2.14355 0.958984 4.55762 1.125 6.79492 0.499023
c10.5537 -2.95508 10.7832 -2.7998 12.6387 -3.97461c11.3242 -7.17188 12.1836 -7.44336 13.8057 -9.06445c0.189453 -0.189453 -0.243164 -0.584961 21.0322 -24.2402c11.0859 -12.3242 11.5186 -11.9287 13.1104 -14.0859
c0.262695 0.0234375 0.624023 0.0683594 1.08008 0.142578l0.535156 0.910156l0.239258 5.97754c-5.33203 20.1777 -5.27344 19.6211 -5.4541 20.9385c-1.66602 12.1318 -0.200195 12.3047 -3.19531 33.5654c-0.0458984 0.327148 -0.644531 26.2891 -0.890625 33.0098
c-0.799805 20.8877 -0.991211 20.0654 -0.678711 21.9971c0.973633 6.0332 3.2168 19.9375 14.9639 22.415c9.76758 2.05957 19.2354 -7.10938 20.5342 -8.85547l1.45508 -1.9541c3.90332 12.3848 3.77734 12.3027 4.69238 13.8584
c12.0908 20.5635 37.791 13.792 42.8779 -1.00488l4.29199 -12.4863c5.9873 20.1191 30.0713 17.124 37.7354 2.61816c0.0898438 -0.138672 8.6084 -13.374 8.92969 -13.8682c8.40625 10.8643 29.6924 12.6963 36.4834 -14.2715
c0.107422 -0.429688 0.1875 -0.866211 0.237305 -1.30469c2.04785 -17.8154 0.338867 -43.293 -1.50684 -65.249l5.55176 -86.0518c0.113281 -1.74902 -0.230469 -3.52148 -1.03223 -5.12402l-10.6982 -21.3975c-0.307617 -1.19238 -0.667969 -2.38281 -1.1416 -3.91309
c-1.33203 -4.29688 -2.7373 -6.77246 1.81934 -25.8828c1.49805 -6.28125 -3.2627 -12.3291 -9.72461 -12.3291zM549 369l-83.166 150.556l9.59961 4.05566l74.4004 -127.8l67.7998 129l12.9775 -5.25586z" />
  </g>

</svg>
