<?xml version="1.0" standalone="no"?>
<!DOCTYPE svg PUBLIC "-//W3C//DTD SVG 1.1//EN" "http://www.w3.org/Graphics/SVG/1.1/DTD/svg11.dtd" >
<svg xmlns="http://www.w3.org/2000/svg" xmlns:xlink="http://www.w3.org/1999/xlink" version="1.1" viewBox="-10 0 1020 1000">
  <g transform="matrix(1 0 0 -1 0 800)">
   <path fill="currentColor"
d="M30.3242 741.553h55.5146l17.1611 52.2256l17.1602 -52.2256h55.5156l-44.8672 -32.2959l17.1611 -52.2246l-44.9697 32.2959l-44.9707 -32.2959l17.1611 52.2246zM271 608l-12 60c128.725 89.7881 355.203 55.3633 442.457 48.5605
c0 -0.0107422 0.000976562 -0.0214844 0.000976562 -0.0322266c27.4463 0.582031 75.1855 -1.32129 107.268 -33.4033c40.1396 -40.1396 38.6152 -108.841 37.5254 -169.365c-0.395508 -21.9258 -0.433594 -33.2402 -0.22168 -41.9463
c26.3789 -43.8281 72.168 -89.959 89.3252 -129.607c6.95117 -16.0635 5.49219 -24.7637 2.64551 -40.2051l-12 -14l-79.501 -63.5771v-212.431c1.93945 -31.0869 1.82422 -79.2412 -27.416 -108.48c-26.0322 -26.0322 -182.507 -12.0195 -220.584 -13.0049
l-2.90137 0.0126953c-103.732 -7.2998 -296.108 50.6025 -326.603 92.1719c-18.5059 25.2275 -31.4014 41.2529 -57.9951 55.3086v70.0371c25.8174 -16.2627 49.624 -17.8066 70.1904 -60.6357c44.2188 -92.082 349.455 -105.734 451.309 -108.438l-0.499023 -0.962891
c50 12 34.1514 4.48145 42.5352 13.5361c19.1768 20.7119 3.97852 41.9688 5.50781 57.9648h-0.541992v2.14941c-0.253906 0.990234 -0.500977 1.94141 -0.738281 2.84863h0.738281v207.174v3.4873v1.33887h1.58203l104 88h1.13281
c4.9834 45.8955 -62.8379 92.1289 -94.2158 139.501l-3 4l-1 1c-2.02051 3.99219 0.0439453 4.02539 -2.08398 11.5605c-0.0371094 0.130859 -0.189453 0.24707 -0.174805 0.367188l0.258789 2.07227l0.0644531 1.49902
c0.00976562 0.226562 0.150391 3.89551 0.242188 6.24414c3.11426 79.1523 5.19727 173.389 -83.8154 173.771c-136.35 16.7461 -373.536 9.53418 -431.49 -46.5137zM586.966 65.1484c-7.70605 -0.158203 -98.8857 -0.154297 -99.8838 -0.123047
c-6.02637 0.194336 -14.4082 0.464844 -21.5762 8.4043c-2.0918 2.31836 -11.8262 14.1807 -8.72754 31.1445c1.14258 6.25195 2.67773 12.5508 5.53906 23.0352c12.2588 50.4268 15.5811 64.0957 24.7627 82.9102c7.50977 15.3643 24.0742 38.502 54.752 34.834
c36.3975 -4.0332 49.9648 -45.832 59.6855 -85c3.41699 -14.2021 6.90625 -28.377 10.4854 -42.5908c3.13477 -13.0605 6.16895 -25.6992 -1.59863 -38.5498c-3.86328 -6.3916 -11.1133 -14.2002 -23.4385 -14.0645zM538.663 224.596
c-27.6904 2.50879 -39.0752 -27.3535 -49.7861 -69.9297c-8.24414 -33.9395 -8.24414 -33.9395 -11.2285 -45.1299l0.015625 0.0664062c-0.00488281 -0.0224609 -0.015625 -0.0664062 -0.015625 -0.0664062c-2.10547 -8.66504 -3.84863 -15.8398 1.5 -21.1875
c1.96484 -1.96582 2.68555 -2.09863 8.27148 -2.34375c99.1748 0.0429688 99.1748 0.0429688 101.922 0.407227c2.37012 0.295898 8.33789 5.81641 6.35742 15.2188c-0.154297 0.776367 -12.3223 53.8906 -19.332 76.748
c-12.3066 39.6826 -26.9668 45.4746 -37.7041 46.2168zM483.248 86.2695l-0.0722656 0.0078125c0.0136719 0 0.0273438 -0.0078125 0.0722656 -0.0078125zM481.582 86.5801l-0.338867 0.101562c0.112305 -0.0371094 0.225586 -0.0703125 0.338867 -0.101562z
M478.867 88.6406l-0.0683594 0.0742188c0.0224609 -0.0244141 0.0449219 -0.0498047 0.0683594 -0.0742188zM475.803 101.025l0.0146484 0.0966797c-0.00488281 -0.0332031 -0.0146484 -0.0644531 -0.0146484 -0.0966797zM508.708 208.577l0.0527344 0.0800781
c-0.00878906 -0.0126953 -0.0175781 -0.0263672 -0.0527344 -0.0800781zM559.598 213.257l0.0517578 -0.0595703c-0.0175781 0.0195312 -0.0517578 0.0595703 -0.0517578 0.0595703zM596.125 97.2012l-0.00585938 -0.207031
c0.00195312 0.0693359 0.00585938 0.137695 0.00585938 0.207031zM606.961 373.312c0.223633 0.0078125 14.3418 0.000976562 14.3477 0.0078125c-4.34961 18.2412 -3.12793 24.1143 -1.54102 29.2324c0.0146484 0.046875 1.24121 4.28906 1.4082 4.62402l10.2578 20.5137
c-5.25 81.375 -5.25 81.375 -5.2207 81.7256c1.72461 20.4717 3.22852 44.3525 1.4707 59.6494c-4.57129 18.1562 -15.9141 14.3252 -18.5645 8.51758c-0.935547 -2.05176 -1.99023 -2.29395 -4.71387 -2.91895c-2.11719 -1.89258 -5.44629 -1.47754 -7.03027 0.90625
c-1.98438 2.98926 -11.167 17.209 -11.4082 17.6816c-3.32031 6.50391 -16.1309 10.5039 -18.5801 -2.37012c-0.0878906 -0.46582 -0.0878906 -0.46582 -4.45996 -11.123c-1.62988 -3.96973 -7.37305 -3.80566 -8.76855 0.254883l-8.22461 23.9268
c-2.19922 6.39648 -15.918 11.5049 -23.166 -0.608398c-0.133789 -0.399414 -1.11133 -3.36621 -6.40039 -19.9531c-1.15039 -3.60547 -5.94922 -4.42969 -8.22852 -1.36523c-6.76562 9.08984 -6.76562 9.08984 -6.88477 9.20996
c-0.0449219 0.0449219 -7.72656 7.71387 -12.0801 3.36133c-2.38281 -2.38281 -3.73145 -8.20215 -4.32422 -11.7695c0.0166016 -0.535156 0.123047 -3.69238 0.708984 -19.0078c0.349609 -9.53711 0.772461 -29.918 0.782227 -30.2207
c2.79004 -19.8818 1.49902 -20.502 2.94922 -31.1396c0.106445 -0.410156 0.911133 -3.50879 5.08789 -19.3232c0.0400391 -0.155273 0.422852 -9.00879 -0.788086 -11.0684c-2.97754 -5.06152 -3.18555 -5.41309 -5.14941 -5.8623
c-7.77539 -1.7832 -10.2354 -0.216797 -12.8643 3.43164c-1.35352 1.87695 -10.5508 11.0957 -11.4766 12.1611l-19.2734 22.2402c-0.521484 0.344727 -3.19531 2.09863 -11.2441 7.19434c-0.469727 0.142578 -2.72168 0.81543 -9.52344 2.71973
c-1.90234 -1.04395 -4.16895 -0.415039 -5.8877 -2.13379c-1.24707 -1.24707 -2.68652 -5.42676 -2.22949 -7.79395l10.6338 -14.3018c2.04883 -1.91992 12.9346 -11.4082 13.4668 -12.0527c15.8916 -19.2178 15.8916 -19.2178 15.9678 -19.3223
c11.5488 -15.6455 11.5488 -15.6455 11.6348 -15.7812c10.4141 -16.3643 10.4141 -16.3643 10.5615 -16.7051l8.04199 -18.6445c2.22168 -3.44336 10.8125 -16.4043 11.041 -16.8408c3.62012 -6.87598 3.62012 -6.87598 3.75684 -7.44824
c2.69238 -11.2832 21.7627 -11.8457 22.0127 -11.8496l20.8594 -0.373047zM621.309 363.943h-14.0527c-63.2256 -2.62695 -63.2256 -2.62695 -63.3662 -2.625l-21.0088 0.375977c-3.33691 0.0625 -26.1104 1.12793 -30.7979 18.4287l-2.98438 5.6709
c-10.9219 16.5684 -10.7363 16.0205 -11.3965 17.5518l-7.95605 18.4434l-9.92871 15.6016l-11.2803 15.2812l-15.4902 18.7344c-13.3086 11.7861 -13.3086 11.7861 -13.8936 12.5723l-10.874 14.625c-3.88086 5.21777 -1.17188 15.3984 3.26172 19.833
c2.60059 2.59863 5.05176 3.39355 8.68555 4.0625c2.01074 0.898438 4.27344 1.05371 6.37109 0.46582c9.89355 -2.76953 10.1094 -2.62305 11.8477 -3.72461c10.6182 -6.72461 11.4219 -6.97852 12.9434 -8.49902c0.177734 -0.176758 -0.228516 -0.547852 19.7188 -22.7246
c10.3926 -11.5537 10.7979 -11.1826 12.291 -13.2061c0.246094 0.0224609 0.583984 0.0654297 1.01172 0.133789l0.501953 0.854492l0.224609 5.60254c-4.99902 18.917 -4.94434 18.3955 -5.11426 19.6299c-1.56152 11.374 -0.1875 11.5361 -2.99512 31.4678
c-0.0429688 0.307617 -0.604492 24.6455 -0.834961 30.9473c-0.75 19.583 -0.928711 18.8115 -0.635742 20.6221c0.912109 5.65625 3.01465 18.6914 14.0273 21.0137c9.1582 1.93262 18.0342 -6.66504 19.252 -8.30078l1.36328 -1.83203
c3.66016 11.6094 3.54199 11.5332 4.40039 12.9922c11.334 19.2783 35.4277 12.9297 40.1973 -0.943359l4.02344 -11.7061c5.61426 18.8633 28.1934 16.0547 35.377 2.45508c0.0839844 -0.129883 8.07129 -12.5381 8.37207 -13.002
c7.88086 10.1855 27.8369 11.9033 34.2021 -13.3789c0.101562 -0.40332 0.175781 -0.811523 0.223633 -1.22363c1.91895 -16.7012 0.317383 -40.5869 -1.41309 -61.1699l5.20508 -80.6738c0.105469 -1.63965 -0.216797 -3.30273 -0.96875 -4.80371l-10.0293 -20.0596
c-0.287109 -1.11816 -0.625977 -2.23438 -1.07031 -3.66992c-1.24805 -4.02832 -2.56543 -6.34863 1.70508 -24.2637c1.40527 -5.88965 -3.05762 -11.5586 -9.11523 -11.5586zM568.786 497.877c0.473633 -8.41113 -2.9043 -30.5215 -1.96191 -35.875
c0.289062 -0.328125 1.33691 2.16309 1.39844 1.50586c1.96094 -21.0967 19.2285 -41.8867 25.9082 -48.5645c1.35059 -1.35352 0.601562 -4.35254 4.52148 -7.38477c-0.460938 -0.300781 -0.460938 -0.300781 -7.49805 -4.99414
c-1.06641 -0.710938 -2.51172 -0.544922 -3.3877 0.40918c-11.2793 12.2705 -20.1377 21.9072 -27.9785 44.2861c-3.54199 -11.0303 -10.0059 -21.8604 -15.9766 -29.4434c-4.17188 -5.29785 -7.4541 -11.8008 -10.5762 -14.9219
c-0.952148 -0.952148 -2.45312 -1.01758 -3.4834 -0.204102c-5.30469 4.19824 -5.30469 4.19824 -5.41309 4.30762c-0.943359 0.944336 -1.0166 2.42871 -0.224609 3.45703c2.98145 3.86426 12.8193 17.3105 12.9502 17.4834c19.043 25.0156 19.9697 58.2627 19.8174 76.165
c-0.0136719 1.48145 1.20117 2.67871 2.68262 2.64648c7.01367 -0.15625 7.01367 -0.15625 8.02637 -1.16992c0.760742 -0.760742 1.14746 -1.88867 1.12207 -3.1748c-0.00878906 -0.433594 -0.0478516 -2.39746 0.0732422 -4.52832z" />
  </g>

</svg>
