<?xml version="1.0" standalone="no"?>
<!DOCTYPE svg PUBLIC "-//W3C//DTD SVG 1.1//EN" "http://www.w3.org/Graphics/SVG/1.1/DTD/svg11.dtd" >
<svg xmlns="http://www.w3.org/2000/svg" xmlns:xlink="http://www.w3.org/1999/xlink" version="1.1" viewBox="-10 0 1014 1000">
  <g transform="matrix(1 0 0 -1 0 800)">
   <path fill="currentColor"
d="M309 112zM329.815 641.97zM666.949 607.753c3.78223 16.3486 39.3799 12.0977 39.7314 -12.8516l2.74707 -203.333c0 -1.50098 -0.296875 -11.9443 -8.4082 -17.5283c-39.334 -27.0771 -65.0771 -33.6543 -92.5068 -35.5215
c-54.0117 -3.67676 -108.43 37.0781 -138.628 60.2549c-42.625 32.7129 -69.5322 50.9766 -129.064 2.66699c-0.0664062 -1.98633 -0.174805 -4.80371 -0.980469 -7.98633l-0.120117 -286.975l-38.1953 -1.97754l1.47559 543.498l34.2656 4.36719l0.0390625 -8.38965
c54.6338 26.1152 98.918 2.42578 153.484 -26.7617c35.0859 -18.7686 71.8594 -38.2617 110.287 -43.7939c23.4648 -3.37891 59.1143 5.11523 65.873 34.3311v0zM672.26 386.558l-0.1875 -0.150391s0.0673828 0.0498047 0.1875 0.150391zM338.013 613.251
l-0.504883 -1.00977l0.915039 -178.399c16.1895 11.6494 37.5059 24.1201 69.4648 22.8965c65.7363 -2.51855 120.164 -93.1318 202.939 -91.2422c20.2529 0.462891 54.5088 14.0371 58.6631 18.9727c3.06641 3.75098 1.21289 0.46875 3.5752 2.83105
c2.47363 2.47461 6.49121 8.07031 8.41406 10.874l-1.77832 176.9c-6.71094 -7.77148 -6.71094 -7.77148 -7.5957 -8.65625c-6.76855 -6.76855 -27.9932 -22.8281 -70.2686 -21.915c-25.7412 0.556641 -75.6221 25.0391 -150.188 65.5889
c-6.56738 3.57129 -12.3926 6.73926 -17.1768 9.28809c-49.5967 26.4219 -87.9805 0.464844 -96.46 -6.12891h0.000976562z" />
  </g>

</svg>
