<?xml version="1.0" standalone="no"?>
<!DOCTYPE svg PUBLIC "-//W3C//DTD SVG 1.1//EN" "http://www.w3.org/Graphics/SVG/1.1/DTD/svg11.dtd" >
<svg xmlns="http://www.w3.org/2000/svg" xmlns:xlink="http://www.w3.org/1999/xlink" version="1.1" viewBox="-10 0 966 1000">
  <g transform="matrix(1 0 0 -1 0 800)">
   <path fill="currentColor"
d="M683.805 460.759c0 2.30664 -2.31934 8.62891 -4.30957 11.2158c-2.75488 2.04297 -9.37598 4.40234 -11.9023 4.40234c-9.13574 0 -15.6748 -6.34082 -21.5947 -12.2617c-2.55469 -2.55273 -5.90625 -3.83301 -9.25879 -3.83301
c-5.4043 0 -8.38379 2.95801 -10.8115 5.38574c-0.503906 0.503906 -9.11621 8.06152 -14.1807 9.73242c-2.31152 0.762695 -3.82129 0.967773 -5.68848 0.967773c-2.4082 0 -8.75879 -2.18359 -11.7627 -4.3125c-1.28027 -2.02148 -1.32422 -2.16699 -4.37598 -12.6602
c0.25293 -3.90332 2.09863 -11.873 10.8975 -20.3604l35.9502 -34.6787l35.6963 34.3564c3.86035 3.86914 11.3408 11.4678 11.3408 22.0459v0zM590.565 535.342c0.461914 -8.22559 0.181641 -19.085 -0.536133 -31.4688c11.7012 4.13965 28.1582 5.17969 46.5225 -7.68359
c12.5049 8.88672 21.3525 10.4385 30.9336 10.6279c13.166 0 27.3398 -6.99121 33.3643 -13.2598c12.9326 -13.4561 24.543 -45.6328 -7.29883 -76.7275c-37.6416 -36.7568 -42.1299 -40.876 -43.4092 -41.9971c-7.58105 -7.28027 -19.4316 -7.30176 -27.084 0.109375
l-40.6611 39.3779c-1.3916 -16.1191 -2.49121 -31.0889 -2.81445 -43.1562c-0.130859 -4.8877 -0.494141 -26.8135 3.47363 -28.9365c0.453125 -0.158203 0.81543 -0.408203 0.732422 -1.10352c12.8916 -138.596 143.755 -268.403 151.031 -271.071
c0.238281 -0.0869141 -0.451172 0.0195312 -0.451172 0.0195312l-0.682617 -0.354492l-0.371094 -0.835938l2.17578 -1.21387l-24.5176 -16.3447c-2.72754 2.97461 -4.04004 4.40625 -10.2988 11.1816c-49.7217 53.8301 -103.895 112.548 -146.034 255.505
c-11.6455 -67.6318 -53.3682 -141.79 -90.9834 -189.562c-24.2627 -30.8125 -32.4824 -52.5225 -54.7002 -77.208l-28.9941 22.9531c17.0986 22.165 28.0635 37.1934 43.2158 58.1074c8.54102 11.7871 16.4121 22.6523 24.8223 33.6992
c102.914 135.188 105.993 313.335 105.226 403.862l29.9297 -0.660156c2.65918 -0.0566406 7.17676 -1.34082 7.01367 -9.44141c-0.0478516 -2.34863 -0.256836 -12.8311 0.395508 -24.4189h0.000976563v0zM399.672 357.823v0c28.0996 0 53.5498 -4.35742 62.4473 -8.9248
c7.06543 -3.62695 11.8281 -6.77637 15.5693 -10.5176c2.74805 -2.74707 7.40332 -8.69629 7.4043 -11.5283c0 -0.0195312 -0.000976563 -0.0400391 -0.000976563 -0.0595703c-0.0761719 -4.76172 -7.62012 -17.4258 -33.8135 -25.6328
c-10.8262 -3.39258 -30.7354 -5.49609 -51.2588 -5.49609c-14.3008 0 -27.3574 0.831055 -41.7461 3.18652c-4.87988 -4.70605 -9.32715 -8.54492 -15.9766 -12.4609c-10.9092 -6.42383 -30.8232 -10.2256 -51.5107 -10.2256c-7.23633 0 -44.4697 0.625977 -62.4199 16.6221
c-2.73438 2.43652 -3.93066 3.57617 -7.25586 7.13379c-11.3115 -1.44531 -22.4189 -2.27441 -36.4844 -2.27441c-23.5098 0 -47.8779 2.8252 -60.6699 8.89062c-3.87402 1.83691 -9.29883 4.50293 -12.7432 7.94629c-1.68164 1.68262 -8.21484 9.54688 -8.21484 17.0215
c0 3.25098 1.09375 6.38965 4.2627 9.55859c7.50879 7.50879 17.6562 11.2695 24.1543 12.9062c16.5107 4.15723 35.2861 5.80664 52.9863 5.80664c8.72461 0 17.2568 -0.288086 30.3818 -1.59961c9.75293 13.6758 17.2607 17.2285 21.1738 19.0811
c16.5889 7.84961 35.4824 10.9521 53.3496 10.9521c26.4492 0 54.0537 -7.30371 63.9053 -16.8076c5.48047 -5.28711 8.55078 -8.83301 13.1816 -15.6123c10.4297 1.24121 20.0322 2.03418 33.2783 2.03418zM462.056 327.134v0v0.24707
c-0.427734 3.25879 -2.8584 5.75391 -13.8047 11.2266c-8.12305 4.0625 -25.1494 5.53516 -43.7432 5.53516c-11.6279 0 -19.126 -0.486328 -31.6514 -1.6875c0.533203 -1.57422 3.20996 -10.8691 3.22949 -9.76465c0 0 0.0673828 -0.140625 0.0761719 -0.267578
c-0.0078125 -0.0107422 0.295898 0.186523 -0.632812 -1.12598c-1.17383 -8.01465 -2.5791 -11.1035 -7.6709 -20.8936c15.0205 -1.98926 19.5176 -1.98926 26.4531 -1.98926c35.166 0 67.7441 9.1123 67.7441 18.7197zM211.87 316.801v0
c-2.55371 7.30273 -3.96777 13.6309 -3.96777 20.043c0 2.46875 0.0625 2.95508 0.803711 8.80859c-10.2793 0.563477 -12.8896 0.579102 -17.7432 0.579102c-9.38867 0 -37.8721 -0.547852 -56.6289 -6.61914c-5.90234 -1.91016 -11.2334 -3.9834 -11.2334 -10.0762
c0 -3.31055 2.67676 -7.05859 14.3682 -12.3652c10.5967 -4.80957 26.2939 -6.71484 42.624 -6.71484c8.43555 0 16.6719 0.297852 31.7773 2.45117v3.89355zM337.601 327.537v0c0 -3.89648 3.00098 -5.89355 9.15918 -9.99316
c3.375 5.3291 4.82129 7.71289 6.82129 12.7129c2 2.5 -0.584961 -0.0332031 0 0l2 2.5l1.66992 5.19824l0.645508 0.5s-2.28027 -0.852539 -4.9209 -1.74121c-11.9072 -4.01074 -15.375 -5.40527 -15.375 -9.17676zM317.998 329.504v0
c0 11.7607 16.3232 18.4336 25.585 22.1074c-4.75977 4.58496 -4.75977 4.58496 -5.42383 5.20996c-7.3418 6.89941 -23.8047 10.4727 -42.8779 10.4727c-17.457 0 -36.0332 -3.09375 -49.0723 -8.87402l-7.79395 -3.45508l7.81445 -3.40918
s10.7529 -4.93945 17.0215 -11.207c3.48047 -3.47852 7.3418 -9.21875 7.3418 -11.4961c0 0 0.00195312 -0.0341797 0.00195312 -0.102539c0 -0.683594 -0.259766 -4.74023 -6.03906 -10.5205c-4.89648 -4.89551 -9.09961 -7.05859 -19.6104 -12.4678
c11.46 -5.7168 20.3242 -10.1387 40.252 -10.1387c14.5918 0 29.7344 2.97656 42.0732 8.45703l16.1553 7.17676l-10.3447 -4.5c-5.13477 4.45605 -15.083 17.0234 -15.083 22.7471zM247.556 329.134v0c-0.617188 4.5166 -3.4248 6.2793 -18.4355 13.791
c-1.03223 -7.40137 -1.03223 -7.40234 -1.03223 -9.4541c0 -4.20215 1.02148 -8.05078 2.95117 -11.6641l0.541992 -3.5498l3.20703 0.77832c1.41406 0.342773 1.13379 0.169922 1.30566 0.231445c0.141602 0.0517578 11.4619 4.30176 11.4619 9.86719zM225.896 585.116
l63.3594 -63l65.8262 62.9648l20.3584 -17.6074l-65.7002 -66.3525l71.8027 -66l-19.7568 -16.457l-70.9033 65.2705l-65.0732 -66.2334l-18.6025 20.3408l63.5732 64.6514l-62.7803 65.3066zM33.2949 712.521h55.5146l17.1611 52.2256l17.1602 -52.2256h55.5156
l-44.8672 -32.2959l17.1611 -52.2246l-44.9697 32.2959l-44.9707 -32.2959l17.1611 52.2246zM273 608l-12 60c128.725 89.7881 355.203 55.3633 442.457 48.5605c0 -0.0107422 0.000976562 -0.0214844 0.000976562 -0.0322266
c27.4463 0.582031 75.1855 -1.32129 107.268 -33.4033c40.1396 -40.1396 38.6152 -108.841 37.5254 -169.365c-0.395508 -21.9258 -0.433594 -33.2402 -0.22168 -41.9463c26.3789 -43.8281 72.168 -89.959 89.3252 -129.606
c6.95117 -16.0635 5.49219 -24.7637 2.64551 -40.2051l-12 -14l-79.501 -63.5771v-212.432c1.93945 -31.0869 1.82422 -79.2412 -27.416 -108.479c-26.0322 -26.0322 -182.507 -12.0195 -220.584 -13.0049l-2.90137 0.0126953
c-103.731 -7.2998 -296.107 50.6025 -326.603 92.1719c-18.5059 25.2275 -31.4014 41.2529 -57.9951 55.3086v70.0371c25.8174 -16.2627 49.624 -17.8066 70.1904 -60.6357c44.2188 -92.082 349.455 -105.734 451.309 -108.438l-0.499023 -0.962891
c50 12 34.1514 4.48145 42.5352 13.5361c19.1768 20.7119 3.97852 41.9688 5.50781 57.9648h-0.541992v2.14941c-0.253906 0.990234 -0.500977 1.94141 -0.738281 2.84863h0.738281v207.174v3.4873v1.33887h1.58203l104 88h1.13281
c4.9834 45.8955 -62.8379 92.1289 -94.2158 139.501l-3 4l-1 1c-2.02051 3.99219 0.0439453 4.02539 -2.08398 11.5605c-0.0371094 0.130859 -0.189453 0.24707 -0.174805 0.367188l0.258789 2.07227l0.0644531 1.49902
c0.00976562 0.226562 0.150391 3.89551 0.242188 6.24414c3.11426 79.1523 5.19727 173.39 -83.8154 173.771c-136.35 16.7461 -373.535 9.53418 -431.489 -46.5137z" />
  </g>

</svg>
