<?xml version="1.0" standalone="no"?>
<!DOCTYPE svg PUBLIC "-//W3C//DTD SVG 1.1//EN" "http://www.w3.org/Graphics/SVG/1.1/DTD/svg11.dtd" >
<svg xmlns="http://www.w3.org/2000/svg" xmlns:xlink="http://www.w3.org/1999/xlink" version="1.1" viewBox="-10 0 1008 1000">
  <g transform="matrix(1 0 0 -1 0 800)">
   <path fill="currentColor"
d="M828.399 483.872c0 9.49878 0.360099 25.4826 0.360099 28.905l-0.318652 61.3747l-8.69455 54.78l-24.0577 41.7601l-29.8355 19.1251l-33.9409 8.02542l-47.9505 1.85133v0.765382l-107.704 8.96128l-161.614 -4.8437l-135.511 -48.0118l4.97421 -24.8711
l90.1513 34.2037l168.519 13.9909l163.859 -8.05849l72.0585 -32.0852l24.6852 -76.5829c-11.2968 -92.7231 -11.5388 -94.7093 -10.6225 -98.1968c0.272553 -1.03738 0.408327 -1.98777 0.495372 -2.92219c0.487753 -0.641757 1.13403 -1.58506 1.4862 -2.05622
l30.4464 -40.7334l38.0432 -60.0682l23.93 -33.502l-96.7113 -80.2498l-3.19974 -219.288c0.962733 -7.56244 2.78458 -22.0112 5.01798 -45.877c-0.12894 -0.269919 -9.65147 -20.9678 -12.8349 -27.02c-1.80565 -3.43278 -3.36365 -6.39475 -8.94453 -11.1259
c-28.726 -6.87192 -37.6748 -9.01268 -53.7943 -9.01268c-3.38415 0 -6.77838 0.14333 -10.1737 0.446144l-127.95 -3.2205l-189.706 31.9736l-119.91 72.0259l-21.8729 31.5454c-0.18608 0.126152 -14.9542 10.3475 -18.5829 12.6523v-31.4635
c5.41685 -3.87145 13.5068 -7.36272 24.4398 -17.2503c7.32645 -6.62591 2.09556 -4.45645 10.6241 -11.9264c1.03002 -0.902171 1.03002 -0.902171 17.2005 -21.8062l70.2643 -41.1391l123.979 -35.7692l40.8353 -3.74581
c52.8258 -4.90757 59.0669 -6.73248 83.0467 -7.42728l68.08 -1.97257l89.7606 0.254271l51.1066 12.4914l15.1376 25.2075l6.27671 34.16l-0.268638 82.9487l0.0291888 84.2282l-0.00582149 87.5189l84.7837 67.8016l7.68593 8.96692l1.11464 7.19504
c0.44913 7.61262 -1.52476 12.8022 -3.31214 18.1783l-23.3304 38.8443l-33.0243 43.448l-34.3179 48.9016c-0.202711 16.1296 -0.202711 16.1296 -0.202711 17.6951zM33.2949 712.521h55.5146l17.1611 52.2256l17.1602 -52.2256h55.5156l-44.8672 -32.2959
l17.1611 -52.2246l-44.9697 32.2959l-44.9707 -32.2959l17.1611 52.2246zM449.88 180.657zM450.062 182.818zM457.919 214.389c4.18499 0 7.51244 -3.40623 7.51244 -7.4954c0 -1.06739 -0.249174 -3.24171 -2.03315 -5.13649
c-5.12157 -5.43965 0.72329 -0.414052 -5.57843 -6.71578c-1.94336 -1.94336 -6.85823 -12.4807 -6.91454 -12.613c0.00245933 -0.0788991 0.00368693 -0.157787 0.00368693 -0.236633c0 -3.01671 -4.26288 -10.516 -4.26288 -24.6599
c0 -29.4096 18.0411 -40.45 18.0411 -46.901c0 -4.08613 -3.32465 -7.49386 -7.51334 -7.49386c-2.77359 0 -39.4045 13.4063 -62.7048 51.3958c-0.734217 1.19709 -1.10155 2.55678 -1.10155 3.91668c0 3.37572 17.965 37.9752 61.7915 55.41
c0.863507 0.343516 1.79758 0.529621 2.76001 0.529621zM369.707 153.346c18.1164 -29.3833 60.7289 -77.0786 146.459 -77.0786c41.2855 0 103.552 11.6745 143.873 73.4889c-2.18782 1.42625 -3.39987 3.82774 -3.39987 6.28957
c0 4.40252 2.91815 6.02476 5.65675 7.54718c-18.5191 30.3383 -60.92 77.2163 -146.13 77.2163c-18.9592 0 -96.1406 -0.444185 -144.162 -73.6973c2.1441 -1.43188 3.32991 -3.80833 3.32991 -6.24342c0 -4.41554 -2.94692 -6.04277 -5.62711 -7.52272zM513.411 106.9
c-27.5097 0 -52.5666 21.7909 -52.5666 50.9504c0 0.201791 0.291243 13.9484 4.20153 19.7369c12.6931 18.7898 12.6931 18.7898 15.4335 19.5309c11.3498 7.47598 11.8273 7.79052 12.6125 8.12151c4.90169 2.06625 12.2299 4.05359 20.6375 4.05359
c28.4618 0 51.6474 -23.8339 51.6474 -51.1098c0 -28.0118 -24.1679 -51.2835 -51.9659 -51.2835zM438.771 177.528c0 4.13694 3.36283 7.5103 7.50589 7.5103c3.78152 0 8.04551 -2.85767 8.04551 -7.66933c0 -4.16042 -3.37811 -7.51487 -7.50093 -7.51487
c-3.89078 0 -8.05047 2.9359 -8.05047 7.67391zM556.974 210.128c0 4.10202 3.33802 7.49997 7.50904 7.49997c1.29291 0 45.9852 -10.8988 73.0651 -55.2916c0.728015 -1.19346 1.09216 -2.54733 1.09216 -3.90188c0 -5.13233 -12.4396 -20.6108 -19.9052 -28.0764
c-23.8583 -23.8583 -51.8859 -30.5088 -52.9008 -30.5088c-4.17343 0 -7.51033 3.39931 -7.51033 7.49923c0 1.04931 0.247676 3.35427 2.19048 5.297c12.5561 12.5593 19.1253 28.9093 19.1253 45.445c0 10.3538 -2.74823 29.6138 -20.3824 46.6489
c-0.751432 0.725902 -2.28333 2.5535 -2.28333 5.38872zM434.286 531.25l81.7139 -81.25l85.502 81.7852c0.772461 0.738281 1.76855 1.10742 2.76367 1.10742c0.932617 0 1.86523 -0.324219 2.61426 -0.97168c3.2373 -2.7998 6.7627 -5.4541 9.78809 -8.47852
c0.780273 -0.78125 1.1709 -1.80469 1.1709 -2.8291c0 -1.01758 -0.385742 -2.03516 -1.15723 -2.81445l-84.4121 -85.25l92.1074 -84.6641c0.786133 -0.786133 1.15234 -1.79883 1.15234 -2.80176c0 -1.1748 -0.503906 -2.33691 -1.42676 -3.10547l-12.3721 -10.3066
c-0.739258 -0.615234 -1.64844 -0.922852 -2.55762 -0.922852c-0.97168 0 -2.00684 0.0205078 -2.70703 1.05469c-0.299805 -0.0341797 -92.2998 84.9658 -92.2998 84.9658s-83.3389 -84.8242 -83.3643 -84.8496c-0.78418 -0.78418 -1.80371 -1.16211 -2.81738 -1.16211
c-1.09766 0 -2.1875 0.442383 -2.96484 1.29297l-8.98633 9.82617c-0.697266 0.762695 -1.0459 1.73047 -1.0459 2.69727c0 1.01367 0.381836 2.02734 1.14648 2.80469l82.2334 83.627l-80.8252 84.0771c-0.745117 0.774414 -1.11035 1.77148 -1.11035 2.76562
c0 1.06055 0.416016 2.11719 1.23047 2.89746l11.04 10.5596c0.772461 0.739258 1.76758 1.1084 2.76367 1.1084c1.02051 0 2.04102 -0.387695 2.82031 -1.16309z" />
  </g>

</svg>
