<?xml version="1.0" standalone="no"?>
<!DOCTYPE svg PUBLIC "-//W3C//DTD SVG 1.1//EN" "http://www.w3.org/Graphics/SVG/1.1/DTD/svg11.dtd" >
<svg xmlns="http://www.w3.org/2000/svg" xmlns:xlink="http://www.w3.org/1999/xlink" version="1.1" viewBox="-10 0 979 1000">
  <g transform="matrix(1 0 0 -1 0 800)">
   <path fill="currentColor"
d="M828.399 483.872c0 9.49878 0.360099 25.4826 0.360099 28.905l-0.318652 61.3747l-8.69455 54.78l-24.0577 41.7601l-29.8355 19.1251l-33.9409 8.02542l-47.9505 1.85133v0.765382l-107.704 8.96128l-161.614 -4.8437l-135.511 -48.0118l4.97421 -24.8711
l90.1513 34.2037l168.519 13.9909l163.859 -8.05849l72.0585 -32.0852l24.6852 -76.5829c-12.0195 -98.6551 -12.0195 -98.6551 -8.64097 -103.175l30.4464 -40.7334l38.0432 -60.0682l23.93 -33.502l-96.7113 -80.2498l-3.19974 -219.288
c0.962733 -7.56244 2.78458 -22.0112 5.01798 -45.877c-15.8013 -33.078 -15.8013 -33.078 -21.7795 -38.1459c-28.726 -6.87192 -37.6748 -9.01268 -53.7943 -9.01268c-3.38415 0 -6.77838 0.14333 -10.1737 0.446144l-127.95 -3.2205l-189.706 31.9736l-119.91 72.0259
l-21.8729 31.5454c-0.18608 0.126152 -14.9542 10.3475 -18.5829 12.6523v-31.4635c5.41685 -3.87145 13.5068 -7.36272 24.4398 -17.2503c0.324316 -0.293306 6.03353 -5.56267 27.8246 -33.7326l70.2643 -41.1391l123.979 -35.7692l40.8353 -3.74581
c52.8258 -4.90757 59.0669 -6.73248 83.0467 -7.42728l68.08 -1.97257l89.7606 0.254271l51.1066 12.4914l15.1376 25.2075l6.27671 34.16l-0.268638 82.9487l0.0291888 84.2282l-0.00582149 87.5189l84.7837 67.8016l7.68593 8.96692
c1.77472 11.4559 1.98289 12.7996 -2.19749 25.3734l-23.3304 38.8443c-23.3118 29.9188 -45.6511 60.8101 -67.3422 92.3496c-0.202711 16.1296 -0.202711 16.1296 -0.202711 17.6951zM33.2949 712.521h55.5146l17.1611 52.2256l17.1602 -52.2256h55.5156
l-44.8672 -32.2959l17.1611 -52.2246l-44.9697 32.2959l-44.9707 -32.2959l17.1611 52.2246zM542.396 270.37c0 9.00293 8.06055 16.6191 18.6025 16.6191s18.6045 -7.61621 18.6045 -16.6191c0 -9.00195 -8.0625 -16.6201 -18.6045 -16.6201
s-18.6025 7.61816 -18.6025 16.6201zM550.909 40.2217zM584.121 192.905c-0.0078125 0.00976562 -0.0244141 0.0292969 0 0zM489.854 73.4893c-0.00195313 -0.015625 -0.0078125 -0.03125 0 0zM498.153 54.3232l-0.160156 0.0498047
c0.0527344 -0.0175781 0.106445 -0.0341797 0.160156 -0.0498047zM500.798 53.7959c0.00683594 0 0.0126953 -0.00390625 0 0zM603.588 38.5908c-53.9443 0.189453 -98.2627 0 -98.2715 0.000976562c-37.6098 1.20893 -28.9032 36.2017 -22.6689 61.2578
c18.8465 75.7459 26.3485 105.897 56.459 118.157c56.7541 21.1775 75.5985 -54.7448 82.79 -83.7188c13.6197 -56.6238 13.6197 -56.6238 13.6406 -56.7295c3.9502 -19.4443 -7.33105 -39.0771 -25.4736 -38.8369zM491.845 82.6514
c-3.79703 -15.613 -4.45607 -28.371 13.6338 -29.1543c0 0 100.482 0.0439453 100.526 0.0439453c22.2362 -0.313706 18.622 14.2 10.8379 45.459c-16.5213 67.8563 -25.5505 104.941 -57.293 107.138c-32.7184 2.89027 -45.2254 -33.5043 -55.9189 -76.1123
c-8.65234 -35.6181 -8.67947 -35.7199 -11.7861 -47.374zM538.396 562.37c0 9.00293 8.06055 16.6191 18.6025 16.6191s18.6045 -7.61621 18.6045 -16.6191c0 -9.00195 -8.0625 -16.6201 -18.6045 -16.6201s-18.6025 7.61816 -18.6025 16.6201zM546.909 332.222z
M580.121 484.905c-0.0078125 0.00976562 -0.0244141 0.0292969 0 0zM485.854 365.489c-0.00195313 -0.015625 -0.0078125 -0.03125 0 0zM494.153 346.323l-0.160156 0.0498047c0.0527344 -0.0175781 0.106445 -0.0341797 0.160156 -0.0498047zM496.798 345.796
c0.00683594 0 0.0126953 -0.00390625 0 0zM599.588 330.591c-53.9443 0.189453 -98.2627 0 -98.2715 0.000976563c-37.6098 1.20893 -28.9032 36.2017 -22.6689 61.2578c18.8465 75.7459 26.3485 105.897 56.459 118.157c56.7541 21.1775 75.5985 -54.7448 82.79 -83.7188
c13.6197 -56.6238 13.6197 -56.6238 13.6406 -56.7295c3.9502 -19.4443 -7.33105 -39.0771 -25.4736 -38.8369zM487.845 374.651c-3.79703 -15.613 -4.45607 -28.371 13.6338 -29.1543c0 0 100.482 0.0439453 100.526 0.0439453
c22.2362 -0.313706 18.622 14.2 10.8379 45.459c-16.5213 67.8563 -25.5505 104.941 -57.293 107.138c-32.7184 2.89027 -45.2254 -33.5043 -55.9189 -76.1123c-8.65234 -35.6181 -8.67947 -35.7199 -11.7861 -47.374z" />
  </g>

</svg>
