<?xml version="1.0" standalone="no"?>
<!DOCTYPE svg PUBLIC "-//W3C//DTD SVG 1.1//EN" "http://www.w3.org/Graphics/SVG/1.1/DTD/svg11.dtd" >
<svg xmlns="http://www.w3.org/2000/svg" xmlns:xlink="http://www.w3.org/1999/xlink" version="1.1" viewBox="-10 0 1046 1000">
  <g transform="matrix(1 0 0 -1 0 800)">
   <path fill="currentColor"
d="M434.689 480.117zM589.733 479.092zM515.146 353.25zM499.189 140.841zM520.562 246.084zM458.833 140.792zM565.88 547.341v-1.69727h-1.01074v1.69727h1.01074zM399.191 478.951c-20.2646 0 -36.6914 16.4268 -36.6914 36.6914
c0 20.2656 16.4268 36.6924 36.6914 36.6924c16.3623 0 30.2246 -10.7109 34.9551 -25.5049c-0.363281 0.09375 -0.725586 0.188477 -1.08496 0.28418c1.86914 -2.88672 2.82129 -7.42578 2.82129 -11.4717c0 -9.64258 -3.71973 -18.416 -9.80273 -24.9639
c-2.03613 -1.99023 -4.26074 -3.66406 -6.53809 -5.08887c0.125 -0.0732422 0.253906 -0.146484 0.384766 -0.22168c-5.89941 -4.04785 -13.041 -6.41699 -20.7354 -6.41699v0zM614.851 541.546c-20.7588 0 -31.4209 -19.751 -31.4209 -31.8232
c0 -7.80957 13.6572 -31.001 30.8262 -31.001c15.9863 0 32.002 13.0664 32.002 31.416c0 17.126 -14.2832 31.4082 -31.4072 31.4082zM515.146 342.136c-17.125 0 -31.4082 -14.2822 -31.4082 -31.4072s14.2832 -31.4082 31.4082 -31.4082s31.4082 14.2832 31.4082 31.4082
s-14.2832 31.4072 -31.4082 31.4072zM478 138.816c-17.125 0 -31.4072 -14.2832 -31.4072 -31.4082s14.2822 -31.4082 31.4072 -31.4082s31.4082 14.2832 31.4082 31.4082s-14.2832 31.4082 -31.4082 31.4082zM478 66.9697c-22.9531 0 -41.9043 18.9531 -41.9043 41.9053
c0 16.1035 9.69629 27.7686 23.498 33.2559c0.00683594 -0.0947266 0.0126953 -0.189453 0.0195312 -0.28418c15.9863 3.80176 15.9863 3.80176 19.1055 3.80176c7.17773 0 13.876 -1.34668 19.6982 -3.89062c0.00878906 0.102539 0.0175781 0.206055 0.0273438 0.30957
c0.358398 -0.142578 0.717773 -0.291016 1.0791 -0.445312l-0.344727 -0.207031c12.4678 -5.74902 20.7266 -17.1064 20.7266 -32.54c0 -22.9531 -18.9531 -41.9053 -41.9053 -41.9053v0zM592.025 547.921c0.442383 0.481445 0.885742 0.963867 1.33203 1.44727
l0.628906 -1.42578c-0.655273 0 -1.30859 -0.0214844 -1.96094 -0.0214844v0zM592.025 547.921c-44.6035 -0.800781 -80.3281 -22.0986 -114.233 -22.0986c-20.7588 0 -20.5176 -4.99023 -43.6455 1.00781c1.12793 -3.52734 1.73633 -7.28613 1.73633 -11.1875
c0 -11.6191 -4.19336 -19.4873 -9.80273 -24.9639c-1.8457 -1.98828 -3.90918 -3.77051 -6.15332 -5.31055c9.58398 -5.48047 2.7168 -5.38574 13.543 -7.13672c5.86816 -0.949219 11.8408 -1.36816 17.8555 -1.36816c43.9131 0 91.5986 22.6143 110.316 22.6143
c0.00292969 0 12.4023 -0.72168 12.4023 -0.72168c-1.24512 3.62012 -1.94824 7.61328 -1.94824 11.999c0 1.97559 0.140625 3.92188 0.411133 5.82812c0.219727 1.91211 0.603516 3.73828 1.18652 5.55762c1.98828 6.19531 6.2998 12.3076 14.3955 21.4268
c7.15625 5.68066 16.1738 9.0918 25.9111 9.0918c23.0889 0 42.7559 -18.29 42.7559 -41.2764c0 -16.0234 -10.2812 -31.7178 -23.8809 -38.4814l0.234375 0.474609c-9.95508 -3.63477 -9.95508 -3.63477 -10.1943 -3.63477c-0.0585938 0 -0.0585938 0 -0.760742 0.0644531
c-12.543 1.14941 -18.4668 1.7373 -32.2686 9.90625c-0.0966797 -0.163086 -0.192383 -0.326172 -0.289062 -0.488281c-0.0380859 0.0253906 -0.0751953 0.0517578 -0.113281 0.078125c-0.0302734 -0.0517578 -0.0966797 -0.12207 -0.526367 -0.581055l-0.341797 0.165039
l-0.0195312 -0.151367c-0.141602 0.148438 -0.166016 0.173828 -0.311523 0.308594c0.275391 0.131836 0.361328 0.452148 0.396484 0.824219c-6.38477 4.59082 -11.8594 10.8125 -14.6367 18.8887c0.269531 -0.015625 0.543945 -0.03125 0.825195 -0.0478516
c-1.66797 4.48145 -2.5957 8.73145 -2.5957 13.5039c0 1.52344 0.0732422 2.96973 0.233398 4.37109c0.269531 1.89453 0.668945 3.75 1.18652 5.55762c2.45117 8.54395 7.57812 16.0146 14.3955 21.4268c1.22363 1.37891 2.53516 2.82617 3.93652 4.35352v0z
M556.835 319.17c0.200195 -0.729492 0.390625 -1.47168 0.574219 -2.22656l-0.639648 0.0712891c0.185547 -1.58301 0.280273 -3.19141 0.280273 -4.82031c0 -16.874 -10.2432 -31.5859 -24.7881 -38.1943c0.0273438 0.0595703 0.0546875 0.120117 0.0820312 0.179688
c-0.626953 -0.342773 -1.28125 -0.669922 -1.96094 -0.978516c-4.73438 -1.87793 -9.87695 -2.91113 -15.2373 -2.91113c-8.43848 0 -16.3359 2.56152 -22.9502 6.94141c-2.7373 2.08203 -5.38672 4.74023 -7.77832 8.12598
c-0.166992 -0.3125 -0.333984 -0.630859 -0.501953 -0.954102c-6.62402 7.42383 -10.6738 17.1797 -10.6738 27.791c0 22.9375 18.9258 41.8789 41.8555 41.9053c0.1875 0.0205078 0.384766 0.0302734 0.591797 0.0302734
c0.291016 0 0.598633 -0.0195312 0.921875 -0.0537109l-0.00195312 -0.00195312c0.0126953 0 0.0253906 -0.00195312 0.0390625 -0.00195312c2.97559 -0.324219 7.39648 -2.01074 9.52734 -2.50195c14.7676 -3.40137 24.084 -13.2314 29.1758 -27.6436
c0.513672 -1.73438 0.916992 -3.5127 1.20215 -5.3291zM556.835 319.17v0c-0.447266 1.63574 -0.942383 3.22266 -1.48438 4.75684c-5 16.876 -20.4629 29.4873 -38.7031 30.1455c-0.0126953 0 -0.0253906 0.00390625 -0.0371094 0.00390625
c24.3652 41.6787 48.4521 83.6367 72.9863 125.146c9.9043 -6.79492 21.7461 -9.79102 29.1084 -9.79102c4.91602 0 9.7207 1.25684 14.1699 3.46875zM519.544 245.875c0.0800781 0.185547 0.160156 0.369141 0.240234 0.551758l0.912109 -1.18262
c-0.0527344 -0.0078125 -0.110352 -0.0126953 -0.170898 -0.0126953c-0.208984 0 -0.770508 0.0683594 -0.981445 0.643555v0zM519.544 245.875v0c-9.1709 -21.291 -17.8359 -67.0693 -21.0996 -103.808c-7.74902 3.08496 -14.792 3.58105 -19.7256 3.58105
c-6.82227 0 -13.335 -1.21484 -19.125 -3.51758c-1.73828 25.667 -3.01074 48.3311 -3.01074 56.6055c1.875 5.83398 14.5312 60.8955 27.332 85.667c2.43652 -2.73047 5.22168 -5.14551 8.28027 -7.17188c8.2041 -6.24023 17.1982 -7.30859 22.4004 -7.30859
c5.82324 0 11.3418 1.25586 15.7871 3.27832c0.633789 0.250977 1.25977 0.517578 1.87891 0.798828c-4.47949 -9.87012 -12.8154 -23.5312 -12.8154 -27.4775c0 -0.251953 0.03125 -0.46875 0.0976562 -0.647461zM589.452 479.322
c-0.200195 0.138672 -0.398438 0.27832 -0.59668 0.419922c-0.154297 -0.0927734 -0.246094 -0.248047 -0.199219 -0.541992zM30.3242 741.553h55.5146l17.1611 52.2256l17.1602 -52.2256h55.5156l-44.8672 -32.2959l17.1611 -52.2246l-44.9697 32.2959l-44.9707 -32.2959
l17.1611 52.2246zM804 631c0 -96.6865 68.0879 -173.199 99.375 -191.775l11.1992 -6.64941c-16.9434 -0.478516 1.18945 0.900391 -34.5742 -3.5752l-1.0752 1.36426c-22.0068 27.9238 -93.998 110.011 -106.903 207.233
c-0.657227 4.95117 0.0224609 9.79688 0.582031 18.2783c-1.38379 0.708984 -2.88672 1.4873 -4.52246 2.34082c-0.0283203 -1.83984 -0.322266 -3.81641 -0.0449219 -5.88867c33.3789 -249.661 97.5459 -216.742 97.5459 -216.742s6.91211 -4.29004 10.2793 -6.58594
h-32.8613c-44.1455 16.1279 -101.697 151.17 -101.697 222.331c0 8.73535 0.302734 15.3135 0.785156 20.6846c-60.6641 32.3369 -181.179 64.7012 -284.885 64.7012c-23.0527 0 -45.5234 -2.04883 -73.3945 -6.17773
c-32.3232 -4.78906 -32.3232 -4.78906 -70.6152 -21.2002c-18.916 -8.10645 -50.2139 -47.4062 -58.166 -66.7188c-7.02734 -17.0664 -9.0791 -30.2676 -9.0791 -45.8906c0 -22.332 3.62891 -44.376 3.62891 -77.1553c0 -8.99219 1.14648 -13.8564 1.14648 -20.1924
c0 -4.57031 -0.613281 -9.64551 -2.73242 -16.6025c-19.9492 -65.4795 -40.3174 -87.0479 -63.832 -110.183c-6.25977 -6.16016 -27.0508 -26.6172 -27.0508 -37.7881c0 -4.45605 0.882812 -6.9082 38.3447 -19.4531c55.9199 -18.7266 60.0254 -24.4102 60.0254 -90.9766
c0 -43.0117 2.70801 -110.013 2.70801 -151.731c0 -5.5 0.0820312 -11.3867 0.267578 -17.7666c0.50293 -17.292 16.4512 -45.3398 23.8975 -57.5352c1.19629 -0.303711 1.95996 -1.18164 1.95996 -1.18164c1.1543 -0.666992 2.48438 -1.60059 4.13477 -2.74414
c16.0508 -11.1162 22.0049 -13.1846 40.8428 -13.1846c24.0361 0 22.3457 4.21484 79.0615 4.21484c0.316406 0 6.94531 -0.00390625 7.01562 -0.00390625c14.7988 0 25.668 0.226562 52.1025 3.80078c20.2021 2.73242 38.8271 4.61572 56.5088 6.4043
c120.938 12.2334 201.711 24.1475 280.178 80.1953c2.23438 1.5957 5.14355 3.85352 8.45703 6.42773c12.6104 9.7959 33.0303 26.8994 48.1416 26.8994c8.16699 0 13.834 -4.95996 13.834 -14.165c0 -15.4473 -17.4082 -42.8486 -33.0938 -42.8486
c-1.16406 0 -1.56543 0.129883 -3.01758 0.129883c-22.6426 0 -44.3604 -36.5264 -79.4766 -51.29c-52.8857 -22.2344 -138.298 -27.127 -175.459 -33.71c-17.2549 -3.05664 -36.6504 -6.49316 -61.8809 -12.2393c-34.7246 -7.90918 -51.6299 -8.61133 -86.7539 -8.61133
c-0.251953 0 -22.7891 0.03125 -25.0811 0.03125c-11.3115 0 -32.6182 -0.123047 -32.9473 -0.123047c-40.7773 0 -82.5049 2.86621 -120.91 24.8125c-26.0957 14.9121 -27.9092 36.1035 -30.0449 61.0586c-0.477539 5.59082 -0.976562 11.3994 -1.75781 17.3906
c-1.96484 15.7158 -2.63672 29.7119 -2.63672 42.8916c0 28.6572 -4.27441 100.664 -4.27441 131.409c0 46.4277 -4.59863 49 -29.7539 58.8145c-27.3184 10.6582 -57.2148 13.2568 -70.834 26.876c-4.33008 4.33008 -6.66504 9.68945 -6.66504 16.1094
c0 4.7959 1.30371 10.1846 4.05176 16.1768c36.4951 79.5967 68.6367 70.0742 91.3711 139.761c5.20312 15.9443 6.93652 32.2529 6.93652 48.6797c0 32.5635 -6.77832 65.1611 -6.77832 95.8125c0 47.6494 17.2412 68.3838 35.0508 86.1934
c66.2422 66.2412 143.674 66.3555 238.901 66.3555h0.988281c82.8154 0 190.135 -23.3467 246.021 -49.8477c43.5547 -20.6533 21.8506 -15.7109 32.4561 -16.8408c11.3984 -1.2168 39 -13 47.5039 -30.4053c4.31641 -8.83496 -4.12305 -21.668 -4.50391 -29.5947
c-0.257812 -5.36523 2 -14.3428 2 -20z" />
  </g>

</svg>
