<?xml version="1.0" standalone="no"?>
<!DOCTYPE svg PUBLIC "-//W3C//DTD SVG 1.1//EN" "http://www.w3.org/Graphics/SVG/1.1/DTD/svg11.dtd" >
<svg xmlns="http://www.w3.org/2000/svg" xmlns:xlink="http://www.w3.org/1999/xlink" version="1.1" viewBox="-10 0 1051 1000">
  <g transform="matrix(1 0 0 -1 0 800)">
   <path fill="currentColor"
d="M828.399 483.872c0 9.49878 0.360099 25.4826 0.360099 28.905l-0.318652 61.3747l-8.69455 54.78l-24.0577 41.7601l-29.8355 19.1251l-33.9409 8.02542l-47.9505 1.85133v0.765382l-107.704 8.96128l-161.614 -4.8437l-135.511 -48.0118l4.97421 -24.8711
l90.1513 34.2037l168.519 13.9909l163.859 -8.05849l72.0585 -32.0852l24.6852 -76.5829c-11.2968 -92.7231 -11.5388 -94.7093 -10.6225 -98.1968c0.272553 -1.03738 0.408327 -1.98777 0.495372 -2.92219c0.487753 -0.641757 1.13403 -1.58506 1.4862 -2.05622
l30.4464 -40.7334l38.0432 -60.0682l23.93 -33.502l-96.7113 -80.2498l-3.19974 -219.288c0.962733 -7.56244 2.78458 -22.0112 5.01798 -45.877c-0.12894 -0.269919 -9.65147 -20.9678 -12.8349 -27.02c-1.80565 -3.43278 -3.36365 -6.39475 -8.94453 -11.1259
c-28.726 -6.87192 -37.6748 -9.01268 -53.7943 -9.01268c-3.38415 0 -6.77838 0.14333 -10.1737 0.446144l-127.95 -3.2205l-189.706 31.9736l-119.91 72.0259l-21.8729 31.5454c-0.18608 0.126152 -14.9542 10.3475 -18.5829 12.6523v-31.4635
c5.41685 -3.87145 13.5068 -7.36272 24.4398 -17.2503c7.32645 -6.62591 2.09556 -4.45645 10.6241 -11.9264c1.03002 -0.902171 1.03002 -0.902171 17.2005 -21.8062l70.2643 -41.1391l123.979 -35.7692l40.8353 -3.74581
c52.8258 -4.90757 59.0669 -6.73248 83.0467 -7.42728l68.08 -1.97257l89.7606 0.254271l51.1066 12.4914l15.1376 25.2075l6.27671 34.16l-0.268638 82.9487l0.0291888 84.2282l-0.00582149 87.5189l84.7837 67.8016l7.68593 8.96692l1.11464 7.19504
c0.44913 7.61262 -1.52476 12.8022 -3.31214 18.1783l-23.3304 38.8443l-33.0243 43.448l-34.3179 48.9016c-0.202711 16.1296 -0.202711 16.1296 -0.202711 17.6951zM33.2949 712.521h55.5146l17.1611 52.2256l17.1602 -52.2256h55.5156l-44.8672 -32.2959
l17.1611 -52.2246l-44.9697 32.2959l-44.9707 -32.2959l17.1611 52.2246zM585.145 226.029c6.45215 -8.51465 6.16016 -8.69922 3.84668 -10.1602c-0.662109 -0.417969 -9.73535 -6.0127 -16.0293 -10.0146c3.52344 -6.58789 11.4961 -25.415 2.04883 -47.4023
c5.91211 -3.70508 11.3105 -7.68262 17.6221 -12.6465c-2.46582 -4.41602 -3.09961 -5.30664 -6.35156 -9.82715c-3.72461 2.64551 -8.78809 6.24707 -17.0537 12.2178c-4.47852 -6.26367 -17.2881 -20.9316 -40.0889 -22.8438
c-0.186523 -5.79004 -0.204102 -13.4951 -0.0830078 -24.2051c-4.0293 0 -4.26562 0 -11.8828 0.564453c0.193359 7.53223 0.488281 14.8545 0.882812 23.8193c-7.69434 0.898438 -25.292 4.85254 -37.9717 22.207c-5.4834 -2.83887 -11.7051 -6.36328 -21.6543 -12.4297
c-1.4873 4.46973 -1.5166 4.55664 -5.73438 10.209c7.5498 4.22754 14.7979 8.2002 21.8076 11.7334c-3.19141 6.96289 -4.97266 14.7109 -4.97266 22.8672c0 11.3086 3.41309 21.7266 9.18262 30.373c-5.23242 4.67188 -10.5801 9.26562 -18.0273 15.5352
c3.61621 3.02148 3.62988 3.04102 7.27832 8.2793c6.75195 -5.13672 11.9189 -9.76855 17.7471 -15.3037c8.39844 8.3623 19.4111 14 31.4844 15.6064c-0.118164 7.18555 -0.163086 13.9541 0.119141 22.4082l10.9775 0.260742
c-0.113281 -4.11816 -0.264648 -10.001 0.350586 -22.3701c7.87402 -0.618164 24.9785 -3.88184 38.2295 -19.9639c4.61328 3.17676 8.53418 5.44727 18.2725 11.0859zM568.188 180.135c0 24.1084 -19.5898 43.6797 -43.6982 43.6797
c-24.1182 0 -43.6982 -19.5801 -43.6982 -43.6982c0 -24.498 20.1484 -43.6826 43.498 -43.6973c24.1211 0 43.7949 19.5898 43.8984 43.7158zM409.212 203.327c-0.0644531 0.0566406 -0.126953 0.108398 -0.183594 0.152344zM342.037 219.324
c0.206055 -0.230469 0.352539 -0.389648 0.432617 -0.472656zM514.731 345.38c0.0322266 -0.174805 2.73047 -15.9824 2.51562 -17.6191c0.285156 -0.0478516 0.748047 0.0410156 0.643555 -0.307617c5.19141 0.290039 7.09473 -27.7656 10.6592 -26.2158
c6.24414 2.71387 1.01367 12.2324 4.92969 44.2432c1.02148 8.30078 16.4971 35.1934 24.376 29.1318c11.1201 -12.4248 17.3584 -42.7402 16.9736 -62.9756c2.37695 -0.0263672 2.90625 -7.7793 3.12012 -9.59961c4.30566 -36.5166 6.64551 26.3682 9.16016 22.2979
c7.62891 13.1289 21.3799 24.959 21.6426 25.1611c1.13379 0.87207 1.36816 0.966797 6.6709 0.0839844c3.58887 -2.23145 6.45996 -7.00879 6.58008 -7.25684c5.91895 -12.2725 -1.49609 -86.4082 -1.57031 -98.8633
c-2.13281 -7.08984 -1.19727 -19.2051 -0.71582 -22.1738c0 -15.9922 2.60645 -43.7803 2.93164 -46.1104c-2.90039 -5.34668 4.46289 -27.3232 2.64551 -43.3682c-0.469727 -4.14062 -14.3486 -36.9707 -14.3486 -36.9707
c-1.27246 -1.99512 0.182617 0.489258 -1.76465 -0.987305c2.60449 -1.66797 -1.90137 -8.60254 0.378906 -19.4473c0.832031 -3.95801 2.9834 -3.67871 2.99707 -6.92871c0.000976563 -0.222656 -0.198242 -11.4463 -17.1357 -14.1875
c-32.1875 -5.20898 -110.919 -7.15039 -111.87 -7.74414c-14.1846 3.12891 -38.0879 18.0059 -40.4248 26.0977l0.0283203 2.16016c-2.20703 5.55273 -26.2129 39.6289 -26.2129 44.251c0 7.29004 -20.9062 44.3154 -25.1426 47.5742
c-4.6123 3.54395 -22.9512 29.2256 -44.6748 47.3965c-2.7793 2.32617 -1.70703 4.18262 -5.08691 6.30273c-8.35449 9.35645 -5.02344 8.90625 -8.18457 13.6416c0.289062 8.48145 12.5801 18.9248 24.9668 16.0977c5.19727 -1.1875 9.24609 -6.5293 13.6074 -8.64062
c5.17871 -7.03516 36.2656 -36.8652 36.7852 -37.0957c3.61719 -3.18457 4.60645 -7.63574 10.1328 -9.62988c2.23828 -2.29004 6.14355 -3.13965 9.62891 -2.13672c0.685547 -0.119141 0.685547 -0.119141 6.44629 -1.27051l1.60938 1.74707
c1.04004 3.33691 -0.664062 14.1113 -4.06934 15.3799c-0.916016 5.17578 -1.21387 6.62891 -1.30566 6.95898c1.75684 3.41113 -6.85742 79.9854 -7.54785 82.5176c-0.0263672 1.74219 1.23242 6.37598 0.00585938 9.27734
c0.813477 6.1416 0.164062 26.7617 0.735352 34.5234c0 3.45898 3.48926 8.71484 6.99414 17.7021c2.48242 3.4082 2.48242 3.4082 7.7959 5.19727c13.1611 -0.740234 17.0771 -11.3877 21.3115 -53.1572l8.32031 15.6006c8.74902 24.5762 4.88672 27.4873 11.0068 42.2725
c3.11133 7.51953 5.17773 9.69824 12.3057 12.4229c6.12988 -0.250977 6.38965 -0.59082 7.82812 -1.80469c0.0878906 -0.307617 10.8027 -20.707 13.2539 -29.123l-0.700195 -4.4873zM431.842 358.396c0.0332031 0.0498047 0.0341797 0.0878906 0.0390625 0.0966797
c-0.00195312 -0.00390625 -0.015625 -0.0371094 -0.0390625 -0.0966797zM612.013 359.847l-0.966797 -5.60547l3.2207 0.894531zM498.696 380.128l0.379883 -0.0429688c-0.0976562 0.015625 -0.225586 0.0214844 -0.379883 0.0429688zM569.284 353.141
c0 -0.0507812 0.0322266 -0.102539 0.0332031 -0.104492c-0.00976562 0.0322266 -0.0332031 0.0664062 -0.0332031 0.104492zM420.187 109.429c-0.0566406 0.0449219 -0.00292969 0.0224609 0 0zM456.79 60.0371zM578.833 371.722l0.0673828 -0.131836
c-0.0146484 0.03125 -0.0371094 0.0751953 -0.0673828 0.131836zM476.789 385.326c-0.0146484 -0.0117188 -0.0302734 -0.0234375 0 0zM407.636 224.449c-0.0195312 0.0195312 -0.0546875 0.0566406 0 0zM351.868 261.664l0.157227 -0.0351562
c-0.0322266 0.00488281 -0.157227 0.0351562 -0.157227 0.0351562zM342.077 199.56c0.00878906 -0.00683594 0.0175781 -0.0263672 0 0zM414.062 248.271c-0.0292969 -0.330078 1.7041 0.113281 2.40625 -33.0635l-8.85156 9.26172
c-6.35254 6.30469 -30.1748 29.4424 -43.0439 34.8838c-9.45605 3.99902 -25.0908 5.43066 -42.6016 -14.0195c-9.59668 -10.6582 3.97461 -27.4521 4.27832 -27.7227c7.78613 -8.20703 -19.9385 18.4883 21.8037 -23.2539
c2.10059 -2.10059 2.10059 -2.10059 30.1348 -36.9434c18.3926 -22.8701 27.9414 -58.5918 41.9531 -73.4766c0.0761719 -0.163086 -0.926758 0.0927734 5.77148 -17.0488c-7.43359 -7.73535 1.24414 -21.0293 6.67676 -22.7227
c25.0928 -17.8633 157.707 -6.47852 175.337 0.148438c7.375 0.100586 16.2666 8.34277 19.8291 15.5293c4.94336 9.96973 -3.32617 17.5791 -0.289062 32.8291c-2.84277 5.51367 8.10254 16.957 9.28711 24.0713c5.12207 6.44824 4.71387 15.4746 2.02344 45.6104
c0.543945 1.08008 -6.85352 63.623 -0.207031 120.97c0.0830078 0.712891 4.89746 65.4795 -8.51367 71.2881c-0.133789 0.046875 -5.58887 3.80762 -12.96 5.6709c-13.3857 3.38379 -21.7158 -5.19922 -30.4463 -14.1953c-4.94727 20.9854 -5.9541 25.2559 -12.6992 31.999
c-10.6885 10.6904 -28.7822 8.70703 -37.4531 0.0361328c-1.62305 -1.62305 -1.97949 -2.06348 -13.4199 -16.1992l-2.26953 10.0625c-3.25684 14.4375 -20.4238 17.8711 -21.7373 20.0254c-8.69336 14.2246 -32.9014 -16.0029 -36.9629 -23.8564
c-38.5117 21.2744 -47.8193 -12.4434 -47.9258 -12.9277c0.0908203 -1.06543 -11.7109 -19.3867 -0.120117 -106.956zM427.952 47.7559l-4.84375 0.974609c1.0166 0.333984 2.98438 0.643555 4.84375 -0.974609zM327.211 216.519c-0.251953 0.384766 0 0 0 0z
M628.548 96.8076c-0.179688 -4.44727 3.375 -5.16113 8.09668 -4.70801c-4.4707 -4.27051 -8.11035 -1.50098 -9.17871 0.572266c0.251953 1.2627 0.251953 1.2627 1.08203 4.13574zM638.056 446.531l-252 0.839844v16.6289h225.944v94.4229h-225.944v16.6279
l249.76 -1.40039z" />
  </g>

</svg>
