<?xml version="1.0" standalone="no"?>
<!DOCTYPE svg PUBLIC "-//W3C//DTD SVG 1.1//EN" "http://www.w3.org/Graphics/SVG/1.1/DTD/svg11.dtd" >
<svg xmlns="http://www.w3.org/2000/svg" xmlns:xlink="http://www.w3.org/1999/xlink" version="1.1" viewBox="-10 0 1054 1000">
  <g transform="matrix(1 0 0 -1 0 800)">
   <path fill="currentColor"
d="M504.065 426.995zM684.653 435.5c0 27.7354 -6.54297 77.5 -53.5 77.5c-25.5127 0 -51.2178 -0.447266 -67.4453 -59.0986c-21.7959 -78.7803 48.0742 -151.938 87.8037 -121.089c-1.22461 -5.6543 -1.8584 -11.4346 -1.8584 -17.3125
c0 -20.6523 7.82617 -40.1055 21.5908 -57.0801l-23.7969 -184.42h25.0244l21.0254 162.945c15.3887 -11.8545 34.1924 -21.6514 55.373 -28.6875l18.9629 -148.258h25.0244l-18.0742 141.306c16.5566 -3.44824 34.1445 -5.30566 52.3701 -5.30566
c25.0439 0 48.8848 3.50781 70.5 9.8291v-147.829h27v157.681c15.5234 6.89648 29.3496 15.3877 40.96 25.125l41.3457 -179.806h27.041l-43.4863 207.766c9.10156 14.3652 14.1396 30.1641 14.1396 46.7344c0 65.8428 -79.542 119.5 -177.5 119.5
c-62.6426 0 -117.756 -21.9434 -149.352 -54.9844c4.33887 15.9795 6.85156 34.7891 6.85156 55.4844zM139.395 180.644l-0.140815 0.0399763c0.0361632 -0.00985056 0.0723355 -0.0399763 0.140815 -0.0399763zM73.5986 351.695
c0 -98.0794 10.4776 -135.092 27.4557 -152.07c9.6097 -9.6097 22.0933 -13.7671 38.3079 -18.9708c37.9451 -10.3725 85.1035 -42.3919 110.089 -72.8611c24.5827 29.7041 70.7464 61.0541 107.871 71.356l-0.103383 -0.0335557
c0.0344782 0.0111901 0.103383 0.0335557 0.103383 0.0335557c15.8681 5.15077 28.0975 9.28954 37.5401 18.7322c16.9443 16.9443 27.4047 54.0223 27.4047 152.98v183.964c-81.0075 -28.1583 -104.698 -34.0878 -172.775 3.70293
c-67.7904 -34.2619 -89.5519 -27.9026 -175.893 -2.67155v-184.162zM97.3634 556.986c74.3498 -23.0189 86.3342 -23.4531 152.66 11.9465c70.1598 -40.9276 77.7627 -38.7835 170.106 -6.68055c-0.00659905 -0.00228747 29.0106 10.0269 29.3037 10.1281v-220.685
c0 -159.3 -27.1262 -178.85 -83.5601 -197.124c-3.35443 -0.921472 -46.4244 -13.3336 -86.8754 -53.7846c-7.44692 -7.44692 -13.5348 -14.7159 -18.371 -21.899l-11.3344 -13.9711c-21.0329 27.9052 -21.0329 27.9052 -28.7691 35.6413
c-24.2296 24.2296 -59.9525 46.8996 -88.9906 54.6692c-57.1477 17.9155 -84.5984 37.8629 -84.5984 196.468v219.6c28.866 -8.11826 49.9252 -14.1677 50.4298 -14.3096z" />
  </g>

</svg>
