<?xml version="1.0" standalone="no"?>
<!DOCTYPE svg PUBLIC "-//W3C//DTD SVG 1.1//EN" "http://www.w3.org/Graphics/SVG/1.1/DTD/svg11.dtd" >
<svg xmlns="http://www.w3.org/2000/svg" xmlns:xlink="http://www.w3.org/1999/xlink" version="1.1" viewBox="-10 0 953 1000">
  <g transform="matrix(1 0 0 -1 0 800)">
   <path fill="currentColor"
d="M375.033 2.00391c-2.74414 0 -4.95312 2.22754 -4.95312 4.94922l4.74805 136.677c-13.8037 16.5264 -27.9658 31.9971 -41.9121 47.2266c-61.4805 67.1494 -119.016 130.14 -119.216 257.197c-0.166992 105.887 54.9316 159.278 76.5029 181.22
c66.8398 67.9902 141.605 84.1826 188.382 84.1826c4.25586 0 9.63574 3.60547 15.2422 3.3418c138.263 -6.50391 167.77 -17.4395 238.214 -78.7119c9.09375 -7.91016 11.7393 -14.3574 12.9229 -20.4443c0.211914 -1.10059 0.333008 -1.53125 0.375 -1.66309
c32.2783 -37.248 54.9268 -135.138 56.6846 -163.606c0.118164 -1.93066 0.408203 -4.17285 0.741211 -6.70996c0.943359 -7.16699 2.19336 -16.6416 0.105469 -28.5605c-28.7236 -164.048 -106.786 -211.258 -115.966 -236.977
c-0.500977 -1.40332 -0.963867 -1.63379 -1.16211 -1.83301c-2.18945 -2.18848 -21.1553 -11.8584 -36.3916 -19.0234c-1.91309 -5.44824 -1.91309 -5.44824 -2.88281 -6.45703c-0.448242 -1.72559 -0.857422 -4.77734 -0.857422 -4.77734l-2.82812 -139.62
c-0.0527344 -2.68262 -2.23242 -4.83203 -4.91699 -4.84863zM745.13 616.196l-0.326172 0.283203l-2.99219 -3.90918zM731.23 633.85l-3.27637 1.35156l-3.2793 -8.21875zM517.149 678.97c-79.3809 0 -111.444 -12.6387 -177.446 -61.5752
c-17.4043 -17.4053 -85.5449 -71.0107 -85.7744 -161.629c-0.302734 -119.288 51.6865 -175.448 79.6113 -203.374c13.915 -13.9141 13.915 -13.9141 16.2197 -17.3574c4.55664 -6.80469 4.55664 -6.80469 34.124 -38.8564
c6.79004 -1.66992 17.1709 -5.94922 27.6992 -16.8936c5.75684 -5.98242 3.43164 -28.1982 2.36719 -38.3613l-0.947266 -115.575l183.404 -0.941406l8.62695 141.851c0.0800781 1.3457 0.701172 2.59375 1.74023 3.47559c6.09277 5.19336 6.25391 5.33008 9.41211 8.48828
c3.11621 3.11621 12.1621 11.9482 20.1172 14.2646c2.88379 0.839844 6.9043 8.81152 15.2588 15.0566c39.9678 29.877 99.124 105.083 106.471 213.474c1.07422 15.8584 -1.375 33.1592 -4.50195 51.7168c-6.62109 39.2764 -16.3252 95.0947 -46.1855 129.89
c-4.64258 3.8252 -6.05273 5.09668 -27.4287 26.4727c-38.2412 38.2402 -101.557 49.875 -162.768 49.875zM512.799 591.757c32.3584 0 50.6787 -16.0068 58.8086 -24.1348c14.3906 -14.3906 21.957 -31.6797 21.957 -51.0342
c0 -25.8984 -13.0225 -42.0986 -41.4141 -66.9229c-36.5869 -31.9395 -57.0664 -51.9326 -57.0664 -103.465c0 -1.6416 0.0253906 -3.79199 0.078125 -6.43066h30.3594c1.56738 46 9.125 56.7959 46.3965 89.5127c40.332 35.3613 54.7451 57.8623 54.7451 90.3857
c0 22.21 -7.07227 45.7002 -30.7266 67.1113c-20.499 18.5547 -48.1025 28.1084 -83.916 28.1084c-24.9053 0 -99.7412 -3.96094 -114.674 -94.6387l33.4336 -3.9375c4.0625 20.4971 11.9014 40.8174 27.2168 54.9971c14.7305 13.6367 33.3389 20.4482 54.8018 20.4482z
M492.491 284.891v-37.7568h38.2812v37.7568h-38.2812z" />
  </g>

</svg>
