<?xml version="1.0" standalone="no"?>
<!DOCTYPE svg PUBLIC "-//W3C//DTD SVG 1.1//EN" "http://www.w3.org/Graphics/SVG/1.1/DTD/svg11.dtd" >
<svg xmlns="http://www.w3.org/2000/svg" xmlns:xlink="http://www.w3.org/1999/xlink" version="1.1" viewBox="-10 0 1015 1000">
  <g transform="matrix(1 0 0 -1 0 800)">
   <path fill="currentColor"
d="M416.22 83.0713zM219.705 134.327l-0.120255 0.130389l14.7106 13.5503l0.120255 -0.130389zM202.718 179.693c0 14.7434 3.63477 29.5158 7.6009 45.8106v0.198147c4.3823 15.3445 6.90985 24.4194 39.5804 158.919c29.6015 117.932 69.8571 261.088 182.499 261.088
c37.0663 0 92.3685 -10.3048 136.2 -104.264c27.4097 -60.051 36.6172 -97.9671 76.1325 -260.26c19.2862 -77.4525 21.5436 -86.3167 21.5436 -100.071c0 -31.3016 -18.7853 -52.605 -32.6487 -58.3902c-7.50818 -3.13317 -16.7666 -4.26885 -31.4734 -4.26885
c-0.782087 0 -1.56429 0.00538169 -2.34659 0.0161398l-335.198 -0.146306l-0.219907 0.00951874c-26.6148 1.15203 -31.0043 2.33408 -44.8713 16.2011c-7.23516 8.54607 -16.7982 22.76 -16.7982 45.1569zM264.389 86.637c1.62252 0 63.8087 0.277915 162.252 0.277915
l68.7153 -0.0458784c5.66746 -2.24755 16.5417 -6.55998 29.0138 -19.0312c16.1648 -16.1648 23.988 -35.6085 23.988 -58.1337c0 -22.8025 -8.00808 -42.1534 -23.9968 -58.1421c-16.0073 -16.0073 -35.1311 -23.7595 -57.27 -23.7595h-95.3781v61.8318l-79.0349 -79.6365
l79.0349 -79.6909v61.9335h95.3781c31.8927 0 59.4297 11.3947 81.9438 33.9078c27.0694 27.0694 34.5433 57.3914 34.5433 83.507c0 22.9361 -5.81112 43.5265 -17.1963 61.7399l-9.59831 15.3548l34.9442 -0.11566l21.4922 0.435297h0.337397
c0.326392 -0.00432196 0.651853 -0.00529131 0.976386 -0.00529131c47.2042 0 77.4102 45.5021 77.4102 94.4011c0 16.7239 -5.67809 41.1736 -11.1422 63.9326c-12.506 49.674 -24.7344 99.3511 -36.7053 149.112c-23.5566 94.9135 -52.7768 187.598 -103.215 238.036
c-35.434 35.434 -73.4246 44.7743 -104.713 44.7743c-83.7709 0 -139.362 -57.599 -179.481 -174.232c-14.1846 -41.4081 -19.5372 -63.0377 -42.739 -156.771c-17.6674 -71.3744 -18.7391 -75.5655 -23.6137 -94.6198
c-11.7831 -46.0598 -13.5513 -55.5155 -13.5513 -69.8764c0 -14.9148 3.20488 -48.9381 29.6975 -75.4308c18.3347 -18.3347 38.4905 -19.1267 57.9084 -19.7537z" />
  </g>

</svg>
