<?xml version="1.0" standalone="no"?>
<!DOCTYPE svg PUBLIC "-//W3C//DTD SVG 1.1//EN" "http://www.w3.org/Graphics/SVG/1.1/DTD/svg11.dtd" >
<svg xmlns="http://www.w3.org/2000/svg" xmlns:xlink="http://www.w3.org/1999/xlink" version="1.1" viewBox="-10 0 1010 1000">
  <g transform="matrix(1 0 0 -1 0 800)">
   <path fill="currentColor"
d="M414.822 235.895c0 -1.8418 0.356445 -13.6094 0.356445 -13.7471c0 -20.3545 -5.53613 -60.1377 -5.53613 -83.1494c0 -1.87793 0.0527344 -3.38379 0.164062 -4.43164c1.98535 -0.209961 1.51074 -2.87988 1.80469 -4.78027
c5.10352 -54.8594 50.1055 -109.108 67.5186 -126.522c3.17969 -3.17871 5.26465 -4.87305 5.26465 -4.87305v0l6.60547 -8.39062l-5.92871 -4.32617c-5.73242 -3.82227 -11.4639 -7.64355 -17.1963 -11.4648c-35.5889 38.8184 -56.5869 61.7217 -76.9473 118.893
c-9.39551 -28.3105 -25.9746 -55.8945 -41.2842 -75.3359c-15.9551 -20.2637 -10.8262 -20.333 -32.1289 -44.002l-24.874 19.6934c15.3457 19.8926 37.9697 51.0322 38.3594 51.543c47.123 61.9004 51.6904 143.236 51.6904 191.316
c0 3.48438 -0.00292969 3.86133 -0.0976562 15.0654c7.36035 -0.162109 14.7217 -0.324219 22.083 -0.486328c5.74316 -0.123047 10.1963 -4.8584 10.1963 -10.1758c0 -0.358398 -0.0185547 -0.619141 -0.0195312 -0.763672c0 0 0.00488281 -0.239258 0.00488281 -0.493164
c0 -0.0361328 -0.0351562 -1.85059 -0.0351562 -3.56836zM396 449.4v0.0976562h98.877c23.4375 0 43.4082 8.34961 59.9609 25s24.8047 36.8164 24.8047 60.4004s-8.25195 43.75 -24.8047 60.4004s-36.5234 25 -59.9609 25h-98.877v28.4668h98.877
c31.1523 0 57.8125 -11.1328 79.8828 -33.3984s33.1055 -49.0723 33.1055 -80.5176s-10.9863 -58.252 -33.0078 -80.5176s-48.6816 -33.3984 -79.9805 -33.3984h-98.877v-56.9336l-70.6055 71.1914l70.6055 71.1426v-56.9336zM396 449.4v0.0976562h98.877
c23.4375 0 43.4082 8.34961 59.9609 25s24.8047 36.8164 24.8047 60.4004s-8.25195 43.75 -24.8047 60.4004s-36.5234 25 -59.9609 25h-98.877v28.4668h98.877c31.1523 0 57.8125 -11.1328 79.8828 -33.3984s33.1055 -49.0723 33.1055 -80.5176
s-10.9863 -58.252 -33.0078 -80.5176s-48.6816 -33.3984 -79.9805 -33.3984h-98.877v-56.9336l-70.6055 71.1914l70.6055 71.1426v-56.9336z" />
  </g>

</svg>
