<?xml version="1.0" standalone="no"?>
<!DOCTYPE svg PUBLIC "-//W3C//DTD SVG 1.1//EN" "http://www.w3.org/Graphics/SVG/1.1/DTD/svg11.dtd" >
<svg xmlns="http://www.w3.org/2000/svg" xmlns:xlink="http://www.w3.org/1999/xlink" version="1.1" viewBox="-10 0 1051 1000">
  <g transform="matrix(1 0 0 -1 0 800)">
   <path fill="currentColor"
d="M828.399 483.872c0 9.49878 0.360099 25.4826 0.360099 28.905l-0.318652 61.3747l-8.69455 54.78l-24.0577 41.7601l-29.8355 19.1251l-33.9409 8.02542l-47.9505 1.85133v0.765382l-107.704 8.96128l-161.614 -4.8437l-135.511 -48.0118l4.97421 -24.8711
l90.1513 34.2037l168.519 13.9909l163.859 -8.05849l72.0585 -32.0852l24.6852 -76.5829c-11.2968 -92.7231 -11.5388 -94.7093 -10.6225 -98.1968c0.272553 -1.03738 0.408327 -1.98777 0.495372 -2.92219c0.487753 -0.641757 1.13403 -1.58506 1.4862 -2.05622
l30.4464 -40.7334l38.0432 -60.0682l23.93 -33.502l-96.7113 -80.2498l-3.19974 -219.288c0.962733 -7.56244 2.78458 -22.0112 5.01798 -45.877c-0.12894 -0.269919 -9.65147 -20.9678 -12.8349 -27.02c-1.80565 -3.43278 -3.36365 -6.39475 -8.94453 -11.1259
c-28.726 -6.87192 -37.6748 -9.01268 -53.7943 -9.01268c-3.38415 0 -6.77838 0.14333 -10.1737 0.446144l-127.95 -3.2205l-189.706 31.9736l-119.91 72.0259l-21.8729 31.5454c-0.18608 0.126152 -14.9542 10.3475 -18.5829 12.6523v-31.4635
c5.41685 -3.87145 13.5068 -7.36272 24.4398 -17.2503c7.32645 -6.62591 2.09556 -4.45645 10.6241 -11.9264c1.03002 -0.902171 1.03002 -0.902171 17.2005 -21.8062l70.2643 -41.1391l123.979 -35.7692l40.8353 -3.74581
c52.8258 -4.90757 59.0669 -6.73248 83.0467 -7.42728l68.08 -1.97257l89.7606 0.254271l51.1066 12.4914l15.1376 25.2075l6.27671 34.16l-0.268638 82.9487l0.0291888 84.2282l-0.00582149 87.5189l84.7837 67.8016l7.68593 8.96692l1.11464 7.19504
c0.44913 7.61262 -1.52476 12.8022 -3.31214 18.1783l-23.3304 38.8443l-33.0243 43.448l-34.3179 48.9016c-0.202711 16.1296 -0.202711 16.1296 -0.202711 17.6951zM33.2949 712.521h55.5146l17.1611 52.2256l17.1602 -52.2256h55.5156l-44.8672 -32.2959
l17.1611 -52.2246l-44.9697 32.2959l-44.9707 -32.2959l17.1611 52.2246zM406.012 282.509c-7.18848 0 -7.18848 0 -47.6318 0.371094l0.0527344 0.28418h-2.83984l2.52246 154.264l-55.9043 30.7217v8.86719l52.6006 -30.0234
c2.93848 -0.0078125 6.01172 0.00195313 9.30273 0.0195312l-36.2373 68.1611h10.2939l36.2012 -68.0938l1.5166 0.0107422l0.582031 93.417h11.8242l-0.582031 -93.3555c1.15234 0 2.30469 0.000976562 3.45703 0.000976562l39.2012 74.4268h10.29l-38.8232 -73.708
l48.1875 19.3682v-9.03223c-13.0713 -5.7793 -26.124 -11.5752 -39.2051 -17.3438l-7.22852 -1.7207l1.26465 -42.1465l10.3955 6.04395l2.27051 -14.7578l-12.1816 -7.41406l3 -99.9355c-0.776367 0.525391 -1.55273 1.0498 -2.3291 1.5752zM394.508 293.752
l-3.61426 144.55h-1.86621l2.16797 -144.55h3.3125zM374.428 294.102v144.61l-2.15527 0.253906l-0.722656 -145.157zM516 496l-40.8779 -3.98828l1.49219 39.749l6.47949 -0.0205078l-1.74121 -28.6455l54.1143 57.8164l5.00977 -4.28711l-54.7812 -57.7227
l29.7451 3.38867zM604 0c-8.28223 0 -8.28223 0 -54.873 0.427734l0.0605469 0.327148h-3.27051l2.90527 177.712l-64.4004 35.3916v10.2148l60.5947 -34.5869c3.38574 -0.00878906 6.92676 0.00195312 10.7158 0.0224609l-41.7441 78.5215h11.8584l41.7041 -78.4434
l1.74707 0.0117188l0.669922 107.617h13.6211l-0.669922 -107.547c1.32812 0 2.65527 0.00195313 3.98242 0.00195313l45.1602 85.7393h11.8545l-44.7246 -84.9111l55.5107 22.3125v-10.4053c-15.0566 -6.6582 -30.0928 -13.335 -45.1631 -19.9795l-8.32812 -1.98242
l1.45801 -48.5537l11.9756 6.96289l2.61426 -17.001l-14.0322 -8.54199l3.45605 -115.126c-0.894531 0.605469 -1.78809 1.21094 -2.68262 1.81543zM590.747 12.9521l-4.16406 166.521h-2.15039l2.49805 -166.521h3.81641zM567.614 13.3545v166.592l-2.4834 0.292969
l-0.831055 -167.222z" />
  </g>

</svg>
