<?xml version="1.0" standalone="no"?>
<!DOCTYPE svg PUBLIC "-//W3C//DTD SVG 1.1//EN" "http://www.w3.org/Graphics/SVG/1.1/DTD/svg11.dtd" >
<svg xmlns="http://www.w3.org/2000/svg" xmlns:xlink="http://www.w3.org/1999/xlink" version="1.1" viewBox="-10 0 1016 1000">
  <g transform="matrix(1 0 0 -1 0 800)">
   <path fill="currentColor"
d="M30.3242 741.553h55.5146l17.1611 52.2256l17.1602 -52.2256h55.5156l-44.8672 -32.2959l17.1611 -52.2246l-44.9697 32.2959l-44.9707 -32.2959l17.1611 52.2246zM271 608l-12 60c128.725 89.7881 355.203 55.3633 442.457 48.5605
c0 -0.0107422 0.000976562 -0.0214844 0.000976562 -0.0322266c27.4463 0.582031 75.1855 -1.32129 107.268 -33.4033c40.1396 -40.1396 38.6152 -108.841 37.5254 -169.365c-0.395508 -21.9258 -0.433594 -33.2402 -0.22168 -41.9463
c26.3789 -43.8281 72.168 -89.959 89.3252 -129.607c6.95117 -16.0635 5.49219 -24.7637 2.64551 -40.2051l-12 -14l-79.501 -63.5771v-212.431c1.93945 -31.0869 1.82422 -79.2412 -27.416 -108.48c-26.0322 -26.0322 -182.507 -12.0195 -220.584 -13.0049
l-2.90137 0.0126953c-103.732 -7.2998 -296.108 50.6025 -326.603 92.1719c-18.5059 25.2275 -31.4014 41.2529 -57.9951 55.3086v70.0371c25.8174 -16.2627 49.624 -17.8066 70.1904 -60.6357c44.2188 -92.082 349.455 -105.734 451.309 -108.438l-0.499023 -0.962891
c50 12 34.1514 4.48145 42.5352 13.5361c19.1768 20.7119 3.97852 41.9688 5.50781 57.9648h-0.541992v2.14941c-0.253906 0.990234 -0.500977 1.94141 -0.738281 2.84863h0.738281v207.174v3.4873v1.33887h1.58203l104 88h1.13281
c4.9834 45.8955 -62.8379 92.1289 -94.2158 139.501l-3 4l-1 1c-2.02051 3.99219 0.0439453 4.02539 -2.08398 11.5605c-0.0371094 0.130859 -0.189453 0.24707 -0.174805 0.367188l0.258789 2.07227l0.0644531 1.49902
c0.00976562 0.226562 0.150391 3.89551 0.242188 6.24414c3.11426 79.1523 5.19727 173.389 -83.8154 173.771c-136.35 16.7461 -373.536 9.53418 -431.49 -46.5137zM674 315c0 92.873 -75.3828 168.252 -168.251 168.252c-92.8711 0 -168.252 -75.3818 -168.252 -168.252
c0 -78.2881 53.9648 -144.949 127.597 -163.271c-10.8916 8.49219 -25.6943 25.5078 -25.6943 55.2734c-0.000976562 72.9102 89.5264 91.1309 130.976 49.6816c25.5752 -25.5752 26.3926 -68.7031 3.5 -95.5547c19.0645 8.46191 36.2734 20.3662 50.8232 34.916
c30.457 30.458 49.3018 72.5234 49.3018 118.955zM699.997 315.003c0 -107.241 -87.0303 -194.248 -194.248 -194.248c-107.225 0 -194.249 87.0137 -194.249 194.248c0 107.11 87.1426 194.248 194.249 194.248c107.236 0 194.248 -87.0225 194.248 -194.248z
M564.464 206.914l2.10742 0.0371094l0.0078125 0.00878906l-1.07324 1.0332l-1.04688 -1.07422c0.000976563 0 0.00292969 -0.00488281 0.00488281 -0.00488281zM564.293 209.16l-1.05762 1.01953l1 0.0117188c-0.707031 10.4648 -4.9043 20.6934 -12.585 28.374
c-25.6553 25.6553 -86.251 17.0439 -86.251 -31.583c0.015625 -48.5928 60.5801 -57.2002 86.249 -31.5303c7.62695 7.62598 11.8154 17.7549 12.5693 28.1299c-0.517578 -0.00683594 -0.881836 -0.0107422 -0.900391 -0.0107422l0.961914 1
c0.0791016 1.52832 0.0839844 3.06055 0.0136719 4.58887z" />
  </g>

</svg>
