<?xml version="1.0" standalone="no"?>
<!DOCTYPE svg PUBLIC "-//W3C//DTD SVG 1.1//EN" "http://www.w3.org/Graphics/SVG/1.1/DTD/svg11.dtd" >
<svg xmlns="http://www.w3.org/2000/svg" xmlns:xlink="http://www.w3.org/1999/xlink" version="1.1" viewBox="-10 0 768 1000">
  <g transform="matrix(1 0 0 -1 0 800)">
   <path fill="currentColor"
d="M63.5911 780.244l38.6729 49.7197c2.44207 3.13965 7.08492 2.70611 9.22146 0.301324l47.0332 -52.9385c2.29069 -2.5783 1.88553 -6.688 -0.864547 -8.76935c-0.752272 -0.569344 -1.63818 -0.956613 -2.56627 -1.12232l-8.0127 -1.43066
c-2.04187 -0.364575 -4.17935 0.391457 -5.53811 1.91932l-25.9273 29.154l1.22196 -114.169c0.0375069 -3.50431 -3.07051 -6.20732 -6.27913 -6.0577l-7.66504 0.357422c-3.26067 0.152045 -5.73649 3.02357 -5.72044 6.02557l0.602087 112.586l-21.2248 -27.2396
c-2.36482 -3.03497 -7.047 -2.98127 -9.39108 -0.0938761l-3.48438 4.29199c-1.79015 2.20508 -1.65895 5.43266 -0.0778158 7.46544zM282.488 740.041v-249.334h162.223v249.334h-162.223zM276.488 752.041h174.223c3.63181 0 6 -3.42482 6 -6v-261.334
c0 -3.63181 -3.42482 -6 -6 -6h-174.223c-3.63181 0 -6 3.42482 -6 6v261.334c0 3.63181 3.42482 6 6 6zM448 576c0 -2.57518 -2.36819 -6 -6 -6h-156.801c-2.57518 0 -6 2.36819 -6 6v79.4453c0 2.57518 2.36819 6 6 6h156.801c2.57518 0 6 -2.36819 6 -6v-79.4453z
M436 582v67.4453h-144.801v-67.4453h144.801zM442 743.33c2.57518 0 6 -2.36819 6 -6v-73.1738c0 -2.57518 -2.36819 -6 -6 -6h-156.801c-2.57518 0 -6 2.36819 -6 6v73.1738c0 2.57518 2.36819 6 6 6h156.801zM436 731.33h-144.801v-61.1738h144.801v61.1738z
M285.199 487.418c-2.57518 0 -6 2.36819 -6 6v73.8711c0 2.57518 2.36819 6 6 6h156.801c2.57518 0 6 -2.36819 6 -6v-73.8711c0 -2.57518 -2.36819 -6 -6 -6h-156.801zM291.199 499.418h144.801v61.8711h-144.801v-61.8711zM346.894 199.011
c3.5631 0.0809408 9.90221 0.841593 13.5358 1.64393c31.1195 5.84869 56.6231 36.6623 56.6231 68.1617c0 5.24641 -1.3803 14.7409 -2.89825 19.8378c-0.591073 2.09233 -1.29147 4.11057 -2.04741 5.95898c-3.39628 7.84896 -10.5155 20.771 -15.5035 28.0597
c-2.90802 4.59081 -5.64252 8.8238 -8.35081 13.5443l-36.6502 64.3043c-0.000321876 0.000703586 -0.726746 1.61579 -0.726746 1.61579c-0.76689 1.69222 -1.39289 3.01639 -1.99428 4.1015c-0.300527 -0.515269 -2.28442 -4.17547 -4.25133 -8.0253l-1.17329 -2.2688
l-23.4347 -41.0475c-3.2565 -5.77262 -6.77593 -11.614 -10.2315 -17.2766c-6.42887 -10.6643 -13.0613 -21.6868 -18.5645 -32.7655c-15.747 -31.7713 -11.4597 -65.5998 9.82787 -86.9541c10.0634 -10.0248 31.4514 -18.8903 45.8398 -18.8903zM347.03 187.011
c-18.5426 0 -41.5832 9.57639 -54.4746 22.4183c-25.4585 25.5383 -29.6986 65.2098 -12.0764 100.765c5.81036 11.6969 12.5707 22.8997 19.0598 33.664c3.47219 5.6898 6.84464 11.2858 10.0621 16.9892l23.3114 40.8314l1.03179 1.99487
c4.39174 8.5959 6.71113 15.8385 14.7512 15.8385h1.39648c0.775956 0 1.65395 -0.192221 2.28504 -0.452156c5.64701 -2.32589 7.44782 -7.59745 9.42513 -11.9606l0.511894 -1.14603c0.0429511 -0.069136 0.113286 -0.189586 0.119616 -0.200692l36.2278 -63.5633
c2.43624 -4.24631 5.28768 -8.68714 7.9656 -12.9147c5.39873 -7.88897 12.6349 -20.9787 16.5414 -30.0067c1.00773 -2.46408 1.82881 -4.85405 2.51118 -7.26953c1.943 -6.52417 3.37324 -16.3031 3.37324 -23.1817c0 -37.4967 -29.5315 -73.0248 -66.2206 -79.9203
c-4.34489 -0.959385 -11.165 -1.78003 -15.8021 -1.88537zM343.45 405.842c0.32361 0.58244 1.06144 1.48008 1.79778 1.99692c2.82292 1.98142 6.85952 1.10979 8.61335 -1.85988l0.955078 -1.61719c0.113515 -0.192209 0.294834 -0.548708 0.403875 -0.821069
c0.371674 -0.928363 0.365475 -0.806956 0.857764 -1.67739c12.101 -21.0118 24.0999 -41.9934 36.1826 -62.9733c2.50478 -4.31266 5.44124 -8.91631 8.1856 -13.2086c5.19784 -7.60108 12.098 -20.0577 15.8942 -28.7817
c0.91931 -2.30057 1.6525 -4.46263 2.27122 -6.62813c1.88587 -6.10374 3.27581 -15.2804 3.27581 -21.7744c0 -34.3162 -27.0209 -66.6486 -60.651 -72.7752c-3.99398 -0.830758 -9.9955 -1.4533 -14.1986 -1.4533c-16.5161 0 -37.6711 8.71971 -49.3901 20.358
c-23.2564 22.9301 -26.8131 59.3479 -10.6353 92.1697c5.68171 11.4379 12.3657 22.4874 18.7678 33.0838c3.5684 5.79853 6.93715 11.3904 10.212 17.1395l23.3131 40.6885l1.21249 2.35698c0.525844 1.11807 1.74005 3.63097 2.9323 5.77682zM348.848 390.225
l-22.4288 -39.1449c-3.34829 -5.87805 -6.86273 -11.7098 -10.3808 -17.4264c-6.35753 -10.5227 -12.926 -21.4197 -18.2625 -32.1627c-14.3983 -29.2114 -10.6074 -59.6804 8.32763 -78.3498c8.97437 -8.91254 28.2862 -16.8725 40.9342 -16.8725
c3.07621 0 8.76805 0.58058 11.901 1.23224c27.9734 5.09606 50.9486 32.6953 50.9486 60.9963c0 4.83414 -1.321 13.636 -2.77888 18.3545c-0.557065 1.94973 -1.19692 3.8072 -1.84401 5.42655c-3.22726 7.41661 -10.0908 19.8545 -14.8285 26.7827
c-2.99001 4.67648 -5.78598 9.03962 -8.57417 13.8402zM358.065 142.25c-57.3702 -0.229226 -104.065 -46.9422 -104.065 -104.25c0 -57.5423 46.7067 -104.25 104.25 -104.25c57.5424 0 104.25 46.7057 104.25 104.249c0 57.545 -46.5514 104.251 -104.435 104.251z
M358.041 154.25c64.5557 0 116.459 -52.0758 116.459 -116.251c0 -64.1716 -52.0775 -116.249 -116.25 -116.249c-64.1715 0 -116.25 52.0775 -116.25 116.25c0 63.9227 52.0477 115.994 116.041 116.25zM358.024 -70.9014
c-59.9302 0.256634 -108.674 49.0348 -108.674 108.899c0 60.1149 48.7855 108.9 108.9 108.9c60.1138 0 108.9 -48.7845 108.9 -108.899c0 -60.1167 -48.597 -108.9 -109.127 -108.9zM358.049 -58.9014c53.8545 0 97.1009 43.412 97.1009 96.9004
c0 53.4866 -43.4146 96.8994 -96.9004 96.8994c-53.4867 0 -96.9004 -43.4137 -96.9004 -96.9004c0 -53.2506 43.3908 -96.6711 96.6999 -96.8994zM392.233 37.999c-0.443342 21.9486 -17.5789 32.4968 -35.5343 32.0069
c-17.1552 -0.468016 -32.8924 -11.1704 -33.3128 -32.0069c0.438478 -21.7281 17.5779 -32.4963 35.5336 -32.0066c17.1553 0.467908 32.8927 11.1702 33.3135 32.0066zM404.236 37.999c-0.580864 -28.7622 -23.0975 -43.405 -44.9888 -44.0021
c-22.7886 -0.621555 -47.2565 13.9363 -47.8632 44.0021c0.580306 28.762 23.0967 43.4053 44.988 44.0025c22.7889 0.621709 47.2604 -14.1177 47.864 -44.0025zM330.735 37.999c0.394784 -15.9606 12.3268 -24.2942 25.7244 -24.8451
c14.3542 -0.590215 27.924 7.82244 28.422 24.8455c-0.470034 16.1355 -12.3636 24.2959 -25.7233 24.8452c-14.3956 0.59182 -27.9993 -7.72316 -28.4231 -24.8456zM384.882 37.9994c0 0.0492567 0.00399788 0.0985855 0.00399788 0.147986l-2.781e-06 -0.29655
c0 0.0495962 -0.0039951 0.0991175 -0.0039951 0.148564zM318.735 37.8507c0 0.0697764 -0.00233023 0.20259 2.699e-06 0.296838c0.628007 25.3707 21.7161 37.4763 40.916 36.6869c18.0687 -0.742823 36.6475 -13.0872 37.2307 -36.6872
c0.00172254 -0.0697082 0.00232565 -0.202394 -2.781e-06 -0.29655c-0.627408 -25.3709 -21.7154 -37.4761 -40.9153 -36.6867c-18.0686 0.742945 -36.6477 13.0871 -37.2314 36.6867z" />
  </g>

</svg>
