<?xml version="1.0" standalone="no"?>
<!DOCTYPE svg PUBLIC "-//W3C//DTD SVG 1.1//EN" "http://www.w3.org/Graphics/SVG/1.1/DTD/svg11.dtd" >
<svg xmlns="http://www.w3.org/2000/svg" xmlns:xlink="http://www.w3.org/1999/xlink" version="1.1" viewBox="-10 0 1051 1000">
  <g transform="matrix(1 0 0 -1 0 800)">
   <path fill="currentColor"
d="M69.8252 732.129h55.5146l17.1611 52.2256l17.1602 -52.2256h55.5156l-44.8672 -32.2959l17.1611 -52.2246l-44.9697 32.2959l-44.9707 -32.2959l17.1611 52.2246zM310.501 598.576l-12 60c128.725 89.7881 355.203 55.3633 442.457 48.5605
c0 -0.0107422 0.000976563 -0.0214844 0.000976563 -0.0322266c27.4463 0.582031 75.1855 -1.32129 107.268 -33.4033c40.1396 -40.1396 38.6152 -108.841 37.5254 -169.365c-0.395508 -21.9258 -0.433594 -33.2402 -0.22168 -41.9463
c26.3789 -43.8281 72.168 -89.959 89.3252 -129.607c6.95117 -16.0635 5.49219 -24.7637 2.64551 -40.2051l-12 -14l-79.501 -63.5771v-212.431c1.93945 -31.0869 1.82422 -79.2412 -27.416 -108.48c-26.0322 -26.0322 -182.507 -12.0195 -220.584 -13.0049
l-2.90137 0.0126953c-103.732 -7.2998 -296.108 50.6025 -326.603 92.1719c-18.5059 25.2275 -31.4014 41.2529 -57.9951 55.3086v70.0371c25.8174 -16.2627 49.624 -17.8066 70.1904 -60.6357c44.2188 -92.082 349.455 -105.734 451.309 -108.438l-0.499023 -0.962891
c50 12 34.1514 4.48145 42.5352 13.5361c19.1768 20.7119 3.97852 41.9688 5.50781 57.9648h-0.541992v2.14941c-0.253906 0.990234 -0.500977 1.94141 -0.738281 2.84863h0.738281v207.174v3.4873v1.33887h1.58203l104 88h1.13281
c4.9834 45.8955 -62.8379 92.1289 -94.2158 139.501l-3 4l-1 1c-2.02051 3.99219 0.0439453 4.02539 -2.08398 11.5605c-0.0371094 0.130859 -0.189453 0.24707 -0.174805 0.367188l0.258789 2.07227l0.0644531 1.49902
c0.00976562 0.226562 0.150391 3.89551 0.242188 6.24414c3.11426 79.1523 5.19727 173.389 -83.8154 173.771c-136.35 16.7461 -373.536 9.53418 -431.49 -46.5137zM718.535 296.146c0 49.5322 -40.2031 89.7344 -89.7334 89.7344
c-49.5312 0 -89.7344 -40.2041 -89.7344 -89.7344c0 -41.7539 28.7812 -77.3066 68.0518 -87.0781c-5.80859 4.5293 -13.7041 13.6045 -13.7041 29.4785c0 38.8857 47.748 48.6035 69.8545 26.4971c13.6396 -13.6396 14.0752 -36.6416 1.86621 -50.9619
c10.168 4.5127 19.3457 10.8623 27.1064 18.6221c16.2432 16.2441 26.293 38.6787 26.293 63.4424zM732.4 296.148c0 -57.1953 -46.416 -103.599 -103.599 -103.599c-57.1865 0 -103.599 46.4062 -103.599 103.599c0 57.125 46.4756 103.598 103.599 103.598
c57.1924 0 103.599 -46.4111 103.599 -103.598zM660.116 238.501l1.12402 0.0195312l0.00488281 0.00390625l-0.573242 0.551758l-0.558594 -0.572266c0.000976562 0 0.00195312 -0.00292969 0.00292969 -0.00292969zM660.025 239.699l-0.564453 0.542969
l0.533203 0.00683594c-0.376953 5.58008 -2.61523 11.0361 -6.71191 15.1328c-13.6826 13.6816 -46.001 9.08984 -46.001 -16.8447c0.00878906 -25.916 32.3096 -30.5059 46 -16.8164c4.06836 4.06836 6.30176 9.46973 6.7041 15.002
c-0.276367 -0.00292969 -0.469727 -0.00488281 -0.480469 -0.00488281l0.513672 0.533203c0.0419922 0.81543 0.0439453 1.63184 0.00683594 2.44824zM716.936 75.3467c0 49.5322 -40.2041 89.7344 -89.7334 89.7344c-49.5312 0 -89.7344 -40.2041 -89.7344 -89.7344
c0 -41.7539 28.7812 -77.3066 68.0518 -87.0781c-5.80859 4.52832 -13.7041 13.6045 -13.7041 29.4785c0 38.8857 47.7471 48.6035 69.8535 26.4971c13.6396 -13.6396 14.0762 -36.6416 1.86621 -50.9629c10.168 4.51367 19.3467 10.8633 27.1064 18.623
c16.2441 16.2441 26.2939 38.6787 26.2939 63.4424zM730.801 75.3477c0 -57.1953 -46.416 -103.598 -103.599 -103.598c-57.1865 0 -103.6 46.4062 -103.6 103.598c0 57.126 46.4756 103.599 103.6 103.599c57.1924 0 103.599 -46.4111 103.599 -103.599zM658.516 17.7012
l1.125 0.0195312l0.00390625 0.00390625l-0.572266 0.551758l-0.558594 -0.573242c0.000976563 0 0.00195312 -0.00195312 0.00195312 -0.00195312zM658.426 18.8984l-0.564453 0.542969l0.533203 0.0078125c-0.376953 5.58008 -2.61523 11.0352 -6.71191 15.1328
c-13.6826 13.6816 -46.001 9.08984 -46.001 -16.8447c0.00878906 -25.917 32.3096 -30.5068 46 -16.8164c4.06836 4.06738 6.30176 9.46973 6.7041 15.002c-0.276367 -0.00292969 -0.470703 -0.00488281 -0.480469 -0.00488281l0.512695 0.533203
c0.0429688 0.814453 0.0449219 1.63184 0.0078125 2.44727zM400.656 331.03c-16.3555 -0.370117 -37.748 8.80566 -49.1885 20.2002c-22.9326 23.0059 -26.7812 58.7881 -10.8701 90.8906c8.03027 16.1641 17.7695 30.6172 26.4014 45.918
c7.34277 12.9756 14.8516 25.7852 22.0898 38.8643c2.97559 5.82227 4.34668 8.99902 6.89062 11.543c3.49512 3.49512 9.25195 3.28027 12.5693 -0.0371094c2.65234 -2.65137 3.86914 -5.92383 5.49707 -9.44727l32.9688 -57.8467
c2.22949 -3.8877 4.75977 -7.8252 7.24121 -11.7402c4.96973 -7.27832 11.4932 -19.125 14.9805 -27.1836c18.4912 -45.2217 -14.1191 -91.8359 -54.4209 -99.4609c-4.08887 -0.896484 -9.99707 -1.60547 -14.1592 -1.7002zM400.572 347.609
c17.4883 0 29.7549 6.63086 39.9951 16.8711c15.5947 15.5947 22.5127 38.4277 13.2275 61.751c-5.57617 12.7773 -14.542 25.3438 -21.2441 36.8867l-30.3369 52.6738c-9.96094 -17.3848 -19.7031 -35.0156 -30.1436 -51.9834
c-5.79883 -9.59863 -11.7061 -19.3896 -16.583 -29.207c-13.1387 -26.6562 -9.63867 -54.5176 7.63184 -71.5459c8.2373 -8.18066 25.8525 -15.4463 37.4531 -15.4463z" />
  </g>

</svg>
