<?xml version="1.0" standalone="no"?>
<!DOCTYPE svg PUBLIC "-//W3C//DTD SVG 1.1//EN" "http://www.w3.org/Graphics/SVG/1.1/DTD/svg11.dtd" >
<svg xmlns="http://www.w3.org/2000/svg" xmlns:xlink="http://www.w3.org/1999/xlink" version="1.1" viewBox="-10 0 1185 1000">
  <g transform="matrix(1 0 0 -1 0 800)">
   <path fill="currentColor"
d="M773.054 128.938zM562.016 239.674c0 0.679015 0.0786167 1.14938 0.131836 1.42066l14.7941 -2.46671l-0.0253906 -0.157227zM595.035 168.763c-0.202673 0.0609127 -0.42077 0.127511 -0.653443 0.201659l4.50473 14.3085l0.535156 -0.165039zM971.342 131.431
c47.9255 0 78.9235 45.8979 78.9235 95.9977c0 16.2204 -4.60407 36.8328 -11.1849 64.2413c-12.5094 49.6867 -24.7186 99.2856 -36.6926 149.059c-23.6102 95.1294 -52.9165 188.05 -103.617 238.751c-35.6083 35.6083 -74.3296 45.2402 -105.826 45.2402
c-90.3308 0 -143.717 -67.3451 -180.842 -175.276c-13.4606 -39.2946 -13.4606 -39.2946 -59.3125 -223.567c-20.6515 -82.9943 -20.6515 -82.9943 -20.6515 -98.0431c0 -14.9531 3.18973 -49.713 30.1179 -76.6412c18.8229 -18.8229 39.6481 -19.5672 59.1315 -20.1883
c5.187 0.0207333 69.2316 0.276736 162.084 0.276736c48.5858 0 105.059 -0.0700933 165.115 -0.280663l21.4971 0.43568h0.253147c0.335713 -0.00444539 0.67061 -0.00577286 1.00469 -0.00577286zM561.116 225.674c0 13.7911 3.27754 28.217 7.81281 46.6396
c10.4379 39.1485 10.4081 39.0292 39.2596 157.807c32.2654 128.545 73.0547 259.934 181.386 259.934c33.7001 0 89.9571 -7.89466 134.494 -103.366c27.3423 -59.9032 36.5177 -97.6712 76.0419 -260c18.3264 -73.5978 21.499 -86.3389 21.499 -99.701
c0 -33.2771 -22.0581 -57.4051 -40.4436 -59.6997c-7.37004 -0.977752 -14.7583 -1.4656 -22.1667 -1.4656c-0.78025 0 -1.56072 0.00541121 -2.34143 0.0162312l-335.2 -0.145556l-0.164926 0.00713908c-20.4156 0.88372 -30.8843 1.75145 -43.5419 15.3949
c-0.0261085 0.0195738 -1.26476 1.37352 -2.20998 2.4008v0.241737c-10.7581 13.5797 -14.424 27.4487 -14.424 41.9373zM568.899 272.2v-0.00354152c-0.00038727 -0.001687 0 0.00354152 0 0.00354152zM184.254 481.585l-125.046 -110.318l123.706 -107.002l22.313 25.362
l-85.5032 71.5719h1.79703s307.245 0.279613 307.316 0.35863l-1.58381 28.998l-314.085 -2.53796l88.8446 74.7846z" />
  </g>

</svg>
