<?xml version="1.0" standalone="no"?>
<!DOCTYPE svg PUBLIC "-//W3C//DTD SVG 1.1//EN" "http://www.w3.org/Graphics/SVG/1.1/DTD/svg11.dtd" >
<svg xmlns="http://www.w3.org/2000/svg" xmlns:xlink="http://www.w3.org/1999/xlink" version="1.1" viewBox="-10 0 1009 1000">
  <g transform="matrix(1 0 0 -1 0 800)">
   <path fill="currentColor"
d="M660.306 466.973v18.8877h-144.306v109.861h-18.8867v-109.861h-144.306v-18.8877h144.306l0.886719 -262.973h18.8867l-0.886719 262.973h144.306zM493.142 712.922c-3.84225 0 -8.74226 -3.38954 -14.857 -3.38954c-45.7553 0 -134.805 -16.6661 -201.736 -82.0559
c-20.5071 -20.884 -58.3266 -73.365 -58.3266 -177.833c0 -126.049 56.1118 -187.334 118.458 -255.429c14.0805 -15.3788 28.489 -31.1085 42.5562 -47.9479c1.12489 -1.34657 1.80762 -3.06025 1.74658 -4.81766l-4.70815 -135.543l260.419 1.54812l2.74425 135.499
c-1.35494 1.57456 -1.81124 2.54399 -1.81124 3.13558c0 0.746317 0.726205 0.891293 1.29048 0.891293c0.358516 0 0.651666 -0.0585231 0.651666 -0.0585231c0.029758 0.220088 0.284667 2.0681 0.554161 3.5037c-6.7851 17.035 -7.23389 18.1617 -7.23389 22.6079
c0 2.3526 0.551586 7.02514 4.69032 8.97173c13.27 6.24133 30.0066 14.7901 34.3679 17.61c3.20133 8.09432 10.7253 14.9186 22.9843 25.8785c30.7026 27.449 82.6122 74.0365 103.528 193.492c0.761742 4.35049 1.04088 8.31799 1.04088 11.9747
c0 37.6752 -24.6866 144.901 -57.4318 182.687c-3.89559 4.49521 0.683108 9.96169 -12.6857 21.59c-70.2922 61.1401 -96.5641 71.1185 -236.058 77.6811c-0.0590484 0.00277759 -0.120188 0.00415731 -0.183404 0.00415731zM755.022 618.781
c0 -2.76231 0 -2.76231 -5.31668 -8.71445c-0.746755 -0.81562 -2.60092 -2.43673 -5.54177 -2.43673c-4.09124 0 -7.49543 3.31947 -7.49543 7.50387c0 2.95576 4.55428 11.4452 10.5353 11.4452c4.19507 0 7.81853 -3.59508 7.81853 -7.79786zM719.9 632.468
c4.50562 11.307 5.18854 13.0208 10.2788 13.0208c0.139883 0 10.8109 -1.10623 10.8109 -8.87671c0 -2.98745 0 -2.98745 -8.70144 -12.104c-0.73057 -0.765418 -2.56413 -2.31691 -5.42335 -2.31691c-4.095 0 -7.49788 3.33101 -7.49788 7.50901
c0 0.963755 0.186969 1.90089 0.532874 2.76775zM517.237 689.696c62.5213 0 128.703 -11.561 169.716 -52.5743c21.6829 -21.6829 22.7573 -22.6163 27.1664 -26.2502c0.338303 -0.278821 0.652339 -0.586703 0.938311 -0.919924
c32.0706 -37.3694 41.6671 -95.2169 48.3426 -134.819c2.65323 -15.7382 4.917 -30.8764 4.917 -45.4269c0 -26.4333 -6.51216 -104.029 -76.5566 -174.073c-28.5645 -28.5645 -41.8344 -32.9836 -53.4143 -46.8791c-3.5646 -4.27738 -5.30745 -6.20884 -8.64539 -7.18044
c-4.93284 -1.43567 -13.5469 -8.93576 -17.2715 -12.6604c-2.92617 -2.92617 -3.78168 -3.70138 -8.91001 -8.07657c0 0 0.978387 -134.781 0.978588 -134.836c0 -4.13504 -3.35484 -7.49438 -7.53817 -7.49869c0 0 -185.256 0.951077 -185.289 0.951313
c-4.11426 0.0386573 -7.42779 3.39148 -7.42708 7.60203l1.2569 91.9553c0 4.49591 -1.94729 19.5079 -4.62322 32.0726c-2.26398 10.6304 -5.68092 19.158 -5.68092 19.158c-14.392 14.9616 -24.6874 13.4893 -28.1004 17.1888
c-5.2526 5.69346 -12.8645 13.7 -17.2216 17.228c-0.222515 -0.0181052 -0.445773 -0.027561 -0.668642 -0.027561c-3.9507 0 -5.89268 2.90074 -7.28551 4.9812c-1.96677 2.93776 -1.12202 2.06977 -15.4499 16.3977c-28.6636 28.6636 -82.6119 87.4653 -82.6119 209.693
c0 34.4932 6.32695 105.602 68.9394 168.214c0.265283 0.265283 0.548761 0.509914 0.847913 0.731718c67.7439 50.2282 122.415 65.0486 203.591 65.0486z" />
  </g>

</svg>
