<?xml version="1.0" standalone="no"?>
<!DOCTYPE svg PUBLIC "-//W3C//DTD SVG 1.1//EN" "http://www.w3.org/Graphics/SVG/1.1/DTD/svg11.dtd" >
<svg xmlns="http://www.w3.org/2000/svg" xmlns:xlink="http://www.w3.org/1999/xlink" version="1.1" viewBox="-10 0 1005 1000">
  <g transform="matrix(1 0 0 -1 0 800)">
   <path fill="currentColor"
d="M562.756 381.382c0 -31.7201 -17.9779 -71.3684 -40.41 -91.9593c-46.721 -43.0045 -93.5556 -43.0045 -191.678 -43.0045v27.3291c17.1667 0 17.7239 0 48.8143 0.662632c-3.9414 2.58851 -7.92218 5.75502 -11.7922 9.62508
c-21.7021 21.7021 -21.9077 49.0869 -15.2966 67.627c-0.00847476 0.948112 2.97751 11.6434 9.68754 17.8358c5.87798 9.61158 19.4028 18.28 28.4714 21.1151c2.08567 0.651911 3.34425 1.1572 4.52333 1.62844c1.67535 0.669579 3.63072 1.41082 6.30411 1.72568
c1.46167 0.171303 2.08206 0.317625 3.11677 0.549847c32.1399 7.18857 77.7378 -17.9479 77.7378 -64.5029c0 -10.0341 -2.27379 -28.0581 -16.2566 -44.1087c5.66304 2.1865 24.1798 10.1012 39.4699 25.3913c15.6024 15.6024 30.1019 47.6814 29.8035 71.3615
c-0.209382 21.8318 -14.7086 55.1073 -32.3957 70.6563c-38.9744 34.687 -81.0221 34.687 -169.855 34.687v27.3301c90.7277 0 140.836 0 188.007 -41.5178c21.333 -18.7165 41.7476 -57.4584 41.7476 -92.4314zM379.65 342.308
c-12.8693 -37.1491 34.1375 -66.621 62.9437 -37.8148c29.0835 29.0835 -5.19453 74.861 -41.5657 59.5449l-12.0396 -7.92404zM359.792 351.775zM359.631 349.868zM534.468 -62.5215l-0.00878906 -0.330078c0.00390625 0.110352 0.00878906 0.220703 0.00878906 0.330078z
M476.024 123.17l0.0810547 -0.0966797c-0.0263672 0.0322266 -0.0810547 0.0966797 -0.0810547 0.0966797zM394.601 115.682l0.0849609 0.128906c-0.0136719 -0.0214844 -0.0283203 -0.0429688 -0.0849609 -0.128906zM341.953 -56.4004l0.0234375 0.152344
c-0.0078125 -0.0507812 -0.0234375 -0.101562 -0.0234375 -0.152344zM346.745 -76.0986zM351.198 -79.5137l-0.541992 0.160156c0.181641 -0.0566406 0.362305 -0.110352 0.541992 -0.160156zM353.864 -80.0098l-0.114258 0.0107422
c0.0205078 0 0.0419922 -0.0107422 0.114258 -0.0107422zM442.527 141.312c-44.3037 4.01465 -62.5195 -43.7656 -79.6572 -111.888c-13.1904 -54.3037 -13.1904 -54.3037 -17.9639 -72.208l0.0253906 0.105469
c-0.00878906 -0.0351562 -0.0253906 -0.105469 -0.0253906 -0.105469c-3.36914 -13.8652 -6.15918 -25.3428 2.39941 -33.9014c3.14258 -3.14258 4.29688 -3.35645 13.2344 -3.74902c158.679 0.0693359 158.679 0.0693359 163.074 0.651367
c3.79395 0.472656 13.3418 9.30469 10.1729 24.3506c-0.246094 1.24219 -19.7168 86.2256 -30.9326 122.798c-19.6895 63.4922 -43.1475 72.7578 -60.3271 73.9463zM519.814 -113.806c-12.3301 -0.251953 -158.217 -0.246094 -159.814 -0.194336
c-9.64453 0.310547 -23.0547 0.742188 -34.5215 13.4443c-3.34961 3.71094 -18.9229 22.6895 -13.9648 49.832c1.82812 10.0049 4.28516 20.082 8.86328 36.8555c19.6123 80.6846 24.9287 102.555 39.6182 132.656c12.0166 24.585 38.5205 61.6045 87.6045 55.7354
c58.2354 -6.45508 79.9434 -73.3311 95.498 -136c5.4668 -22.7236 11.0488 -45.4033 16.7744 -68.1455c5.0166 -20.8955 9.87207 -41.1182 -2.55566 -61.6797c-6.18164 -10.2266 -17.7812 -22.7197 -37.502 -22.5039zM348.095 292.381zM312.676 613.294l-9.96445 9.99798
l9.96445 -0.0332186v-9.96476zM312.676 712.48v-9.99804l-9.99804 9.99804h9.99804zM312.676 712.48h171.564l9.99804 -9.99804v-46.6309l-9.99804 -9.99804h-171.564v-22.5948l211.83 -0.706182l-1.96252 111.388l-209.868 1.17692v-22.6371zM312.676 735.118
l-10.0545 0.0563851l10.0545 9.99788v-10.0543zM522.544 733.941l-0.172058 9.76563l9.93998 -9.82041zM524.506 622.553l10.2099 -0.034037l-10.0301 -10.1755zM312.676 645.854h-9.99804l9.99804 9.99804v-9.99804z" />
  </g>

</svg>
