<?xml version="1.0" standalone="no"?>
<!DOCTYPE svg PUBLIC "-//W3C//DTD SVG 1.1//EN" "http://www.w3.org/Graphics/SVG/1.1/DTD/svg11.dtd" >
<svg xmlns="http://www.w3.org/2000/svg" xmlns:xlink="http://www.w3.org/1999/xlink" version="1.1" viewBox="-10 0 1054 1000">
  <g transform="matrix(1 0 0 -1 0 800)">
   <path fill="currentColor"
d="M700 566.388l0.000976562 0.000976563h-574.722v-241.387h497.223v-22.7793h-497.223v-271.108l579.064 -0.0498047c48.4072 0 107.587 27.0791 144.206 63.6982c39.541 39.541 72.0605 136.319 72.0605 198.234c0 1.66211 -0.0537109 4.30762 -0.0537109 5.65039
c0 131.465 -70.9141 267.74 -220.557 267.74zM941.957 302.483v0c0 -0.949219 -0.000976562 -1.89844 -0.00878906 -2.84863v-0.40918c0.0273438 -1.38867 0.0410156 -2.78809 0.0410156 -4.19922c0 -62.0996 -26.2559 -145.445 -60.1914 -194.207
c-35.0859 -48.8984 -115.082 -91.6533 -181.892 -91.6533h-597.407v580.002h597.501c166.33 0 241.957 -148.383 241.957 -286.685z" />
  </g>

</svg>
