<?xml version="1.0" standalone="no"?>
<!DOCTYPE svg PUBLIC "-//W3C//DTD SVG 1.1//EN" "http://www.w3.org/Graphics/SVG/1.1/DTD/svg11.dtd" >
<svg xmlns="http://www.w3.org/2000/svg" xmlns:xlink="http://www.w3.org/1999/xlink" version="1.1" viewBox="-10 0 1006 1000">
  <g transform="matrix(1 0 0 -1 0 800)">
   <path fill="currentColor"
d="M30.3242 741.553h55.5146l17.1611 52.2256l17.1602 -52.2256h55.5156l-44.8672 -32.2959l17.1611 -52.2246l-44.9697 32.2959l-44.9707 -32.2959l17.1611 52.2246zM271 608l-12 60c128.725 89.7881 355.203 55.3633 442.457 48.5605
c0 -0.0107422 0.000976562 -0.0214844 0.000976562 -0.0322266c27.4463 0.582031 75.1855 -1.32129 107.268 -33.4033c40.1396 -40.1396 38.6152 -108.841 37.5254 -169.365c-0.395508 -21.9258 -0.433594 -33.2402 -0.22168 -41.9463
c26.3789 -43.8281 72.168 -89.959 89.3252 -129.607c6.95117 -16.0635 5.49219 -24.7637 2.64551 -40.2051l-12 -14l-79.501 -63.5771v-212.431c1.93945 -31.0869 1.82422 -79.2412 -27.416 -108.48c-26.0322 -26.0322 -182.507 -12.0195 -220.584 -13.0049
l-2.90137 0.0126953c-103.732 -7.2998 -296.108 50.6025 -326.603 92.1719c-18.5059 25.2275 -31.4014 41.2529 -57.9951 55.3086v70.0371c25.8174 -16.2627 49.624 -17.8066 70.1904 -60.6357c44.2188 -92.082 349.455 -105.734 451.309 -108.438l-0.499023 -0.962891
c50 12 34.1514 4.48145 42.5352 13.5361c19.1768 20.7119 3.97852 41.9688 5.50781 57.9648h-0.541992v2.14941c-0.253906 0.990234 -0.500977 1.94141 -0.738281 2.84863h0.738281v207.174v3.4873v1.33887h1.58203l104 88h1.13281
c4.9834 45.8955 -62.8379 92.1289 -94.2158 139.501l-3 4l-1 1c-2.02051 3.99219 0.0439453 4.02539 -2.08398 11.5605c-0.0371094 0.130859 -0.189453 0.24707 -0.174805 0.367188l0.258789 2.07227l0.0644531 1.49902
c0.00976562 0.226562 0.150391 3.89551 0.242188 6.24414c3.11426 79.1523 5.19727 173.389 -83.8154 173.771c-136.35 16.7461 -373.536 9.53418 -431.49 -46.5137zM511.377 454.886zM511.235 453.217zM684.596 480.792c0 -26.0342 -15.1436 -59.9854 -33.9453 -77.2441
c-39.6279 -36.4756 -80.6709 -36.4756 -160.383 -36.4756v15.166c22.416 0 41.5967 0.849609 58.418 0.849609c-7.72754 1.91992 -17.8945 6.20996 -27.3037 15.6191c-17.9258 17.9258 -17.7148 40.5098 -12.0215 55.5254c-0.422852 1.72852 2.84473 6.59082 3.61133 8.5459
c0.749023 1.90723 1.67578 2.86133 3.00391 4.06152c0.819336 0.739258 0.819336 0.739258 1.31445 1.56445c1.18066 1.96777 3.0918 3.88184 5.47656 6.2666c1.83105 1.83008 10.3145 7.98535 16.8359 10.0234c4.82715 1.50977 5.49805 2.3916 8.67578 2.76562
c1.45215 0.169922 2.28027 0.356445 3.18262 0.558594c1.58203 0.353516 26.5156 5.54395 47.292 -15.2324c10.2178 -10.2178 15.3867 -22.6152 15.3867 -36.9414c0 -8.83789 -2.16992 -25.2031 -16.1514 -38.9033c-4.29199 -4.1543 -8.96094 -7.46973 -13.9883 -9.94141
c21.8105 4.27148 39.3672 12.375 56.2217 27.748c15.2451 13.9717 29.3467 44.0762 29.0557 67.2021c-0.201172 20.9385 -13.5352 50.7422 -29.8145 65.0537c-35.3418 31.4541 -74.5957 31.4541 -147.154 31.4541v15.166c73.0215 0 117.205 0 157.25 -35.2461
c17.9316 -15.7324 35.0371 -48.8418 35.0371 -77.5859zM560.061 399.177c14.2471 0 22.416 6.79883 26.8652 11.248c9.33105 9.33008 10.6338 19.0723 10.6338 25.5684c-0.0322266 9.22852 -3.09668 17.9912 -11.0918 25.7549
c-13.5088 13.292 -30.7285 12.2539 -41.0908 7.73633l-11.5889 -7.62695l-8.96973 -13.2607l0.0273438 0.0742188c-0.00878906 -0.0244141 -0.0175781 -0.0488281 -0.0273438 -0.0742188c-1.78906 -4.89746 -6.96777 -23.2139 8.66309 -38.6357
c7.31641 -7.21973 16.0859 -10.7842 26.5791 -10.7842zM504.068 143.428zM503.927 141.759zM677.287 169.334c0 -26.0342 -15.1436 -59.9854 -33.9453 -77.2441c-39.6279 -36.4756 -80.6709 -36.4756 -160.383 -36.4756v15.166c22.416 0 41.5967 0.849609 58.418 0.849609
c-7.72754 1.91992 -17.8945 6.20996 -27.3037 15.6191c-17.9258 17.9258 -17.7148 40.5098 -12.0215 55.5254c-0.422852 1.72852 2.84473 6.59082 3.61133 8.5459c0.749023 1.90723 1.67578 2.86133 3.00391 4.06152c0.819336 0.739258 0.819336 0.739258 1.31445 1.56445
c1.18066 1.96777 3.0918 3.88184 5.47656 6.2666c1.83105 1.83008 10.3145 7.98535 16.8359 10.0234c4.82715 1.50977 5.49805 2.3916 8.67578 2.76562c1.45215 0.169922 2.28027 0.356445 3.18262 0.558594c1.58203 0.353516 26.5156 5.54395 47.292 -15.2324
c10.2178 -10.2178 15.3867 -22.6152 15.3867 -36.9414c0 -8.83789 -2.16992 -25.2031 -16.1514 -38.9033c-4.29199 -4.1543 -8.96094 -7.46973 -13.9883 -9.94141c21.8105 4.27148 39.3672 12.375 56.2217 27.748c15.2451 13.9717 29.3467 44.0762 29.0557 67.2021
c-0.201172 20.9385 -13.5352 50.7422 -29.8145 65.0537c-35.3418 31.4541 -74.5957 31.4541 -147.154 31.4541v15.166c73.0215 0 117.205 0 157.25 -35.2461c17.9316 -15.7324 35.0371 -48.8418 35.0371 -77.5859zM552.752 87.7188c14.2471 0 22.416 6.79883 26.8652 11.248
c9.33105 9.33008 10.6338 19.0723 10.6338 25.5684c-0.0322266 9.22852 -3.09668 17.9912 -11.0918 25.7549c-13.5088 13.292 -30.7285 12.2539 -41.0908 7.73633l-11.5889 -7.62695l-8.96973 -13.2607l0.0273438 0.0742188
c-0.00878906 -0.0244141 -0.0175781 -0.0488281 -0.0273438 -0.0742188c-1.78906 -4.89746 -6.96777 -23.2139 8.66309 -38.6357c7.31641 -7.21973 16.0859 -10.7842 26.5791 -10.7842zM330.179 265.809l-66.5332 120.445c-3.48047 6.30176 6.23828 8.63281 10.1084 10.2676
c2.34863 0.992188 5.10156 -0.0800781 6.27148 -2.09082l54.9746 -94.4307l50.0371 95.2031c1.09863 2.09082 3.88379 3.28809 6.30762 2.30664l10.3818 -4.2041c2.4707 -1.00098 3.99219 -4.29297 2.51562 -7.0166l-65.2891 -120.445
c-1.72754 -3.18652 -6.875 -3.47363 -8.77441 -0.0351562z" />
  </g>

</svg>
