<?xml version="1.0" standalone="no"?>
<!DOCTYPE svg PUBLIC "-//W3C//DTD SVG 1.1//EN" "http://www.w3.org/Graphics/SVG/1.1/DTD/svg11.dtd" >
<svg xmlns="http://www.w3.org/2000/svg" xmlns:xlink="http://www.w3.org/1999/xlink" version="1.1" viewBox="-10 0 1010 1000">
  <g transform="matrix(1 0 0 -1 0 800)">
   <path fill="currentColor"
d="M559.782 432.418c0.286133 0.0117188 18.3584 0.000976562 18.3633 0.0107422c-5.56641 23.3486 -4.00293 30.8662 -1.97168 37.417c0.0185547 0.0595703 1.58984 5.49023 1.80371 5.91895l13.1289 26.2588c-6.71973 104.159 -6.71973 104.159 -6.68164 104.606
c2.20703 26.2061 4.13184 56.7725 1.88184 76.3525c-5.85156 23.2402 -20.3701 18.3359 -23.7617 10.9023c-1.19824 -2.62695 -2.54883 -2.93652 -6.03516 -3.73438c-2.70898 -2.42383 -6.9707 -1.89355 -8.99805 1.15918
c-2.54004 3.82617 -14.2939 22.0264 -14.6035 22.6309c-4.25 8.3252 -20.6475 13.4473 -23.7803 -3.0332c-0.113281 -0.594727 -0.113281 -0.594727 -5.71094 -14.2373c-2.08496 -5.08203 -9.43555 -4.87109 -11.2217 0.325195l-10.5283 30.6279
c-2.81543 8.1875 -20.376 14.7256 -29.6523 -0.779297c-0.170898 -0.510742 -1.42383 -4.30859 -8.19336 -25.54c-1.47168 -4.61523 -7.61328 -5.66992 -10.5322 -1.74805c-8.66016 11.6357 -8.66016 11.6357 -8.8125 11.7881
c-0.0566406 0.0576172 -9.89062 9.875 -15.4609 4.30371c-3.05176 -3.05078 -4.77637 -10.498 -5.53711 -15.0654c0.0224609 -0.68457 0.158203 -4.72656 0.908203 -24.3301c0.447266 -12.207 0.990234 -38.2949 1.00098 -38.6816
c3.57129 -25.4482 1.91895 -26.2432 3.77637 -39.8594c0.134766 -0.523438 1.16406 -4.49121 6.51172 -24.7334c0.0527344 -0.199219 0.541016 -11.5312 -1.00977 -14.167c-3.81152 -6.47949 -4.07617 -6.92969 -6.59082 -7.50586
c-9.95215 -2.28027 -13.1016 -0.275391 -16.4668 4.39355c-1.73145 2.40234 -13.5049 14.2012 -14.6885 15.5674l-24.6709 28.4678c-0.667969 0.44043 -4.09082 2.68359 -14.3916 9.20801c-0.601562 0.182617 -3.48438 1.04395 -12.1904 3.48145
c-2.43457 -1.33594 -5.33594 -0.530273 -7.53711 -2.73145c-1.59668 -1.59668 -3.43945 -6.94727 -2.85352 -9.97656l13.6113 -18.3057c2.62207 -2.45801 16.5566 -14.6045 17.2393 -15.4297c20.3398 -24.5967 20.3398 -24.5967 20.4375 -24.7295
c14.7822 -20.0273 14.7822 -20.0273 14.8936 -20.2012c13.3291 -20.9463 13.3291 -20.9463 13.5176 -21.3828l10.2939 -23.8643c2.84473 -4.40918 13.8398 -20.998 14.1338 -21.5576c4.63184 -8.80176 4.63184 -8.80176 4.80664 -9.5332
c3.44629 -14.4434 27.8564 -15.1621 28.1768 -15.168l26.7002 -0.476562zM578.146 420.425h-17.9883c-80.9277 -3.36133 -80.9277 -3.36133 -81.1074 -3.35742l-26.8926 0.480469c-4.26953 0.0800781 -33.4199 1.44336 -39.4199 23.5879l-3.82031 7.25879
c-13.9805 21.208 -13.7432 20.5059 -14.5879 22.4668l-10.1836 23.6064l-12.708 19.9697l-14.4385 19.5625l-19.8291 23.9785c-17.0342 15.0869 -17.0342 15.0869 -17.7822 16.0928l-13.9199 18.7197c-4.96582 6.67871 -1.49902 19.71 4.17578 25.3857
c3.32812 3.32715 6.46582 4.34375 11.1172 5.2002c2.57422 1.15039 5.46973 1.34961 8.15527 0.597656c12.6641 -3.5459 12.9395 -3.3584 15.165 -4.76855c13.5898 -8.60742 14.6211 -8.93164 16.5674 -10.8779c0.227539 -0.227539 -0.291992 -0.702148 25.2393 -29.0879
c13.3027 -14.79 13.8223 -14.3154 15.7314 -16.9033c0.316406 0.0283203 0.749023 0.0820312 1.2959 0.170898l0.643555 1.09277l0.287109 7.17285c-6.39941 24.2139 -6.32812 23.5449 -6.54492 25.126c-2 14.5586 -0.241211 14.7656 -3.83496 40.2783
c-0.0546875 0.392578 -0.773438 31.5469 -1.06836 39.6123c-0.959961 25.0654 -1.18945 24.0781 -0.81543 26.3965c1.16895 7.23926 3.86035 23.9248 17.958 26.8975c11.7197 2.47266 23.082 -8.53125 24.6406 -10.626l1.74512 -2.3457
c4.68457 14.8623 4.53418 14.7637 5.63184 16.6299c14.5078 24.6768 45.3496 16.5518 51.4531 -1.20605l5.15039 -14.9834c7.18555 24.1445 36.0859 20.5498 45.2822 3.14258c0.108398 -0.166016 10.3311 -16.0488 10.7158 -16.6426
c10.0869 13.0371 35.6309 15.2363 43.7803 -17.125c0.128906 -0.516602 0.224609 -1.03906 0.285156 -1.56543c2.45703 -21.3789 0.405273 -51.9521 -1.80859 -78.2988l6.66211 -103.263c0.135742 -2.09863 -0.277344 -4.22559 -1.23828 -6.14844l-12.8389 -25.6758
c-0.369141 -1.43164 -0.800781 -2.86035 -1.37012 -4.69727c-1.59766 -5.15625 -3.28516 -8.12695 2.18359 -31.0586c1.79785 -7.53809 -3.91504 -14.7959 -11.6689 -14.7959zM134.221 -61.2959zM340.548 -55.9424v263.013l80.8701 -0.34668l63.0251 -53.1485
c1.23064 24.1913 1.23064 24.1913 2.20835 54.5l190.772 -2.45117v-66.4404l-54.499 -59.7695l32.7266 -4.33887l26 4l-4.22754 -136.465zM695.938 -84.5088c4.71561 0 8.54759 3.82766 8.57399 8.39457l-1.86111 158.189
c12.9088 -1.84411 12.9088 -1.84411 53.0537 -4.0831l-51.1944 59.6085v86.5381c0 4.71977 -3.8161 8.4982 -8.24219 8.54782l-211.617 -4.6113c-2.01115 37.2063 -2.01115 37.2063 -4.71543 58.173l-57.9857 -52.4621l-3.87834 0.0156927
s-96.0008 0.388525 -96.0416 0.388607c-4.71785 0 -8.57227 -3.83432 -8.57227 -8.54297v-300.105c0 -4.69954 3.84858 -8.54199 8.54199 -8.54199c0 0 373.898 -1.50871 373.938 -1.50879zM29.3242 18.2246h55.5146l17.1611 52.2256l17.1602 -52.2256h55.5156
l-44.8672 -32.2959l17.1611 -52.2246l-44.9697 32.2959l-44.9707 -32.2959l17.1611 52.2246z" />
  </g>

</svg>
