<?xml version="1.0" standalone="no"?>
<!DOCTYPE svg PUBLIC "-//W3C//DTD SVG 1.1//EN" "http://www.w3.org/Graphics/SVG/1.1/DTD/svg11.dtd" >
<svg xmlns="http://www.w3.org/2000/svg" xmlns:xlink="http://www.w3.org/1999/xlink" version="1.1" viewBox="-10 0 1010 1000">
  <g transform="matrix(1 0 0 -1 0 800)">
   <path fill="currentColor"
d="M828.399 483.872c0 9.49878 0.360099 25.4826 0.360099 28.905l-0.318652 61.3747l-8.69455 54.78l-24.0577 41.7601l-29.8355 19.1251l-33.9409 8.02542l-47.9505 1.85133v0.765382l-107.704 8.96128l-161.614 -4.8437l-135.511 -48.0118l4.97421 -24.8711
l90.1513 34.2037l168.519 13.9909l163.859 -8.05849l72.0585 -32.0852l24.6852 -76.5829c-11.2968 -92.7231 -11.5388 -94.7093 -10.6225 -98.1968c0.272553 -1.03738 0.408327 -1.98777 0.495372 -2.92219c0.487753 -0.641757 1.13403 -1.58506 1.4862 -2.05622
l30.4464 -40.7334l38.0432 -60.0682l23.93 -33.502l-96.7113 -80.2498l-3.19974 -219.288c0.962733 -7.56244 2.78458 -22.0112 5.01798 -45.877c-0.12894 -0.269919 -9.65147 -20.9678 -12.8349 -27.02c-1.80565 -3.43278 -3.36365 -6.39475 -8.94453 -11.1259
c-28.726 -6.87192 -37.6748 -9.01268 -53.7943 -9.01268c-3.38415 0 -6.77838 0.14333 -10.1737 0.446144l-127.95 -3.2205l-189.706 31.9736l-119.91 72.0259l-21.8729 31.5454c-0.18608 0.126152 -14.9542 10.3475 -18.5829 12.6523v-31.4635
c5.41685 -3.87145 13.5068 -7.36272 24.4398 -17.2503c7.32645 -6.62591 2.09556 -4.45645 10.6241 -11.9264c1.03002 -0.902171 1.03002 -0.902171 17.2005 -21.8062l70.2643 -41.1391l123.979 -35.7692l40.8353 -3.74581
c52.8258 -4.90757 59.0669 -6.73248 83.0467 -7.42728l68.08 -1.97257l89.7606 0.254271l51.1066 12.4914l15.1376 25.2075l6.27671 34.16l-0.268638 82.9487l0.0291888 84.2282l-0.00582149 87.5189l84.7837 67.8016l7.68593 8.96692l1.11464 7.19504
c0.44913 7.61262 -1.52476 12.8022 -3.31214 18.1783l-23.3304 38.8443l-33.0243 43.448l-34.3179 48.9016c-0.202711 16.1296 -0.202711 16.1296 -0.202711 17.6951zM33.2949 712.521h55.5146l17.1611 52.2256l17.1602 -52.2256h55.5156l-44.8672 -32.2959
l17.1611 -52.2246l-44.9697 32.2959l-44.9707 -32.2959l17.1611 52.2246zM659.539 130.691c0.349609 0.0146484 22.4883 0.00195312 22.4951 0.0126953c-6.81934 28.6025 -4.90332 37.8115 -2.41602 45.8369c0.0234375 0.0722656 1.94727 6.72559 2.20996 7.25
l16.084 32.166c-8.23242 127.596 -8.23242 127.596 -8.18652 128.145c2.7041 32.1016 5.0625 69.5459 2.30566 93.5312c-7.16797 28.4697 -24.9531 22.4609 -29.1074 13.3555c-1.46777 -3.21777 -3.12207 -3.59668 -7.39258 -4.5752
c-3.31934 -2.96875 -8.54004 -2.31836 -11.0234 1.41992c-3.1123 4.6875 -17.5098 26.9834 -17.8887 27.7236c-5.20703 10.1992 -25.293 16.4717 -29.1318 -3.71484c-0.138672 -0.730469 -0.138672 -0.730469 -6.99512 -17.4424
c-2.55469 -6.22559 -11.5596 -5.96582 -13.7471 0.399414l-12.8975 37.5186c-3.44824 10.0293 -24.96 18.0391 -36.3242 -0.954102c-0.208984 -0.625977 -1.74414 -5.27734 -10.0371 -31.2871c-1.80176 -5.6543 -9.32617 -6.94629 -12.9014 -2.1416
c-10.6084 14.2539 -10.6084 14.2539 -10.7959 14.4414c-0.0693359 0.0703125 -12.1152 12.0967 -18.9395 5.27246c-3.7373 -3.7373 -5.85059 -12.8613 -6.78223 -18.4561c0.0273438 -0.838867 0.193359 -5.79004 1.1123 -29.8037
c0.546875 -14.9551 1.21191 -46.9111 1.22656 -47.3848c4.37402 -31.1758 2.35059 -32.1484 4.625 -48.8281c0.166016 -0.641602 1.42676 -5.50293 7.97754 -30.2998c0.0634766 -0.242188 0.663086 -14.125 -1.23633 -17.3545
c-4.66992 -7.93652 -4.99414 -8.48828 -8.07422 -9.19336c-12.1924 -2.79395 -16.0498 -0.337891 -20.1729 5.38184c-2.11914 2.94336 -16.542 17.3975 -17.9922 19.0693l-30.2227 34.873c-0.817383 0.540039 -5.01074 3.28809 -17.6289 11.2812
c-0.737305 0.223633 -4.26953 1.27832 -14.9346 4.26367c-2.98047 -1.63574 -6.53516 -0.649414 -9.23242 -3.3457c-1.95605 -1.95703 -4.21289 -8.51074 -3.49512 -12.2217l16.6738 -22.4248c3.21289 -3.01074 20.2812 -17.8896 21.1182 -18.9004
c24.916 -30.1318 24.916 -30.1318 25.0361 -30.2939c18.1084 -24.5332 18.1084 -24.5332 18.2441 -24.7461c16.3271 -25.6592 16.3271 -25.6592 16.5586 -26.1943l12.6113 -29.2344c3.48438 -5.40137 16.9531 -25.7227 17.3135 -26.4082
c5.67383 -10.7803 5.67383 -10.7803 5.8877 -11.6768c4.22266 -17.6934 34.125 -18.5742 34.5166 -18.5811l32.708 -0.583984zM682.036 116h-22.0361c-99.1367 -4.11719 -99.1367 -4.11719 -99.3574 -4.11328l-32.9424 0.587891
c-5.23047 0.0986328 -40.9395 1.76855 -48.29 28.8965l-4.67969 8.8916c-17.126 25.9805 -16.835 25.1201 -17.8711 27.5225l-12.4736 28.918l-15.5674 24.4619l-17.6875 23.9639l-24.29 29.374c-20.8672 18.4814 -20.8672 18.4814 -21.7842 19.7139l-17.0518 22.9316
c-6.08301 8.18066 -1.83594 24.1445 5.11621 31.0967c4.07617 4.07715 7.91992 5.32227 13.6182 6.37109c3.15234 1.40918 6.7002 1.65332 9.98926 0.732422c15.5146 -4.34375 15.8516 -4.11426 18.5781 -5.8418c16.6475 -10.543 17.9102 -10.9414 20.2949 -13.3252
c0.27832 -0.27832 -0.357422 -0.860352 30.9189 -35.6328c16.2949 -18.1172 16.9307 -17.5361 19.2705 -20.707c0.386719 0.0341797 0.917969 0.100586 1.58789 0.209961l0.787109 1.33887l0.351562 8.78711c-7.83887 29.6611 -7.75195 28.8408 -8.01758 30.7783
c-2.44922 17.834 -0.294922 18.0889 -4.69629 49.3418c-0.0683594 0.480469 -0.948242 38.6436 -1.31055 48.5244c-1.1748 30.7061 -1.45605 29.4951 -0.998047 32.3359c1.43164 8.86816 4.72949 29.3076 21.998 32.9492c14.3584 3.02832 28.2754 -10.4502 30.1855 -13.0166
l2.1377 -2.87305c5.7373 18.2051 5.55371 18.084 6.89844 20.3711c17.7725 30.2285 55.5527 20.2754 63.0303 -1.47656l6.30957 -18.3555c8.80176 29.5762 44.2061 25.1729 55.4707 3.84961c0.131836 -0.204102 12.6553 -19.6602 13.127 -20.3867
c12.3564 15.9707 43.6475 18.6631 53.6299 -20.9795c0.15918 -0.631836 0.276367 -1.27246 0.350586 -1.91699c3.00879 -26.1885 0.496094 -63.6406 -2.21582 -95.916l8.16113 -126.497c0.166016 -2.57031 -0.339844 -5.17676 -1.51758 -7.53125l-15.7266 -31.4541
c-0.452148 -1.75293 -0.981445 -3.50293 -1.67871 -5.75391c-1.95801 -6.31543 -4.02344 -9.9541 2.6748 -38.0469c2.20215 -9.2334 -4.7959 -18.124 -14.2939 -18.124z" />
  </g>

</svg>
