<?xml version="1.0" standalone="no"?>
<!DOCTYPE svg PUBLIC "-//W3C//DTD SVG 1.1//EN" "http://www.w3.org/Graphics/SVG/1.1/DTD/svg11.dtd" >
<svg xmlns="http://www.w3.org/2000/svg" xmlns:xlink="http://www.w3.org/1999/xlink" version="1.1" viewBox="-10 0 1018 1000">
  <g transform="matrix(1 0 0 -1 0 800)">
   <path fill="currentColor"
d="M831.038 541.378c0 1.64746 -1.65625 6.16309 -3.07812 8.01074c-1.96777 1.45996 -6.69629 3.14453 -8.50098 3.14453c-6.52637 0 -11.1973 -4.5293 -15.4258 -8.75879c-1.82422 -1.82324 -4.21875 -2.7373 -6.61328 -2.7373
c-3.85938 0 -5.98828 2.11328 -7.72266 3.84668c-0.359375 0.360352 -6.51172 5.75879 -10.1289 6.95215c-1.65039 0.544922 -2.72949 0.691406 -4.0625 0.691406c-1.7207 0 -6.25684 -1.55957 -8.40234 -3.08105c-0.914062 -1.44336 -0.945312 -1.54785 -3.125 -9.04199
c0.179688 -2.78906 1.49805 -8.48145 7.7832 -14.5439l25.6787 -24.7705l25.4971 24.541c2.75781 2.7627 8.10059 8.19141 8.10059 15.7471zM764.438 594.651c0.331055 -5.87598 0.129883 -13.6318 -0.382812 -22.4785c8.3584 2.95703 20.1133 3.7002 33.2305 -5.48828
c8.93262 6.34766 15.252 7.45703 22.0957 7.5918c9.40332 0 19.5283 -4.99316 23.8311 -9.47168c9.23828 -9.61035 17.5312 -32.5947 -5.21289 -54.8047c-26.8867 -26.2549 -30.0928 -29.1973 -31.0068 -29.998c-5.41504 -5.2002 -13.8799 -5.21582 -19.3457 0.078125
l-29.0439 28.127c-0.994141 -11.5137 -1.7793 -22.2061 -2.00977 -30.8262c-0.09375 -3.49023 -0.353516 -19.1523 2.48047 -20.668c0.324219 -0.113281 0.583008 -0.291992 0.523438 -0.789062c9.20898 -98.9971 102.682 -191.717 107.881 -193.622
c0.169922 -0.0625 -0.322266 0.0136719 -0.322266 0.0136719l-0.488281 -0.25293l-0.264648 -0.597656l1.55371 -0.866211l-17.5117 -11.6748c-1.94922 2.12402 -2.88672 3.14648 -7.35742 7.98633c-35.5156 38.4502 -74.21 80.3906 -104.311 182.503
c-8.31836 -48.3086 -38.1201 -101.278 -64.9883 -135.4c-17.3301 -22.0088 -23.2012 -37.5156 -39.0713 -55.1484l-20.71 16.3955c12.2129 15.832 20.0449 26.5664 30.8691 41.5049c6.09961 8.41992 11.7227 16.1807 17.7295 24.0713
c73.5107 96.5615 75.71 223.811 75.1611 288.473l21.3789 -0.47168c1.89844 -0.0400391 5.125 -0.957031 5.00879 -6.74414c-0.0341797 -1.67676 -0.182617 -9.16406 0.282227 -17.4414h0.000976562zM177.225 47.9053c-5.84961 0 -10.6963 4.76172 -10.6963 10.6963v235.281
c0 5.87012 4.77734 10.6973 10.7354 10.6973c0 0 65.7842 -0.265625 76.7861 -0.310547l44.3125 40.0918c0.759766 0.686523 1.7207 1.03125 2.68164 1.03125c2.01953 0 3.71094 -1.50098 3.96582 -3.48633c2.15137 -16.7451 2.15137 -16.7451 3.51758 -42.0371
l162.052 3.53223c5.72852 0 10.5322 -4.7793 10.5322 -10.7012v-66.3623l39.1982 -45.6396c0.640625 -0.74707 0.960938 -1.6748 0.960938 -2.60352c0 -2.20996 -1.78906 -3.99902 -3.99902 -3.99902c-0.375977 0 -26.8369 1.07617 -37.5635 2.6084l1.40527 -119.362
c0 -5.80273 -4.79395 -10.6191 -10.7373 -10.6191zM438.007 175.035c0.193359 0.174805 2.2666 -0.268555 -25.3877 0.237305c-1.99414 0.0361328 -3.46973 1.9502 -3.46973 3.96387c0 0.96582 0.347656 1.93164 1.04297 2.69336l41.6846 45.7168v46.5908l-141.696 1.82031
c-0.364258 -13.1328 -0.871094 -26.123 -1.60547 -38.8867c-0.108398 -2.12402 -1.86035 -3.79297 -3.99316 -3.79297c-0.916992 0 -1.83398 0.313477 -2.57617 0.938477l-48.3076 40.7383l-57.9326 0.248047v-198.204l256.234 -1.09863l3.04395 98.2871
c-25.0371 1.54883 -18.1494 -0.256836 -17.0371 0.748047zM493.546 768.012v-34.4746l-140.672 -1.07031v-124.838c-80.2529 43.1875 -160.528 86.3525 -240.768 129.555c-0.621094 0.390625 -12.0186 7.37109 -12.1338 7.45312
c-2.7998 2.00781 -15.5664 12.2002 -16.6396 12.6445l1.31836 -0.227539l-0.078125 9.59668c26.9795 0.442383 26.9795 0.442383 408.973 1.36133zM43.1357 -64.3311h55.5146l17.1611 52.2256l17.1602 -52.2256h55.5166l-44.8672 -32.2959l17.1602 -52.2236
l-44.9697 32.2959l-44.9707 -32.2959l17.1611 52.2236z" />
  </g>

</svg>
