<?xml version="1.0" standalone="no"?>
<!DOCTYPE svg PUBLIC "-//W3C//DTD SVG 1.1//EN" "http://www.w3.org/Graphics/SVG/1.1/DTD/svg11.dtd" >
<svg xmlns="http://www.w3.org/2000/svg" xmlns:xlink="http://www.w3.org/1999/xlink" version="1.1" viewBox="-10 0 996 1000">
  <g transform="matrix(1 0 0 -1 0 800)">
   <path fill="currentColor"
d="M828.399 483.872c0 9.49878 0.360099 25.4826 0.360099 28.905l-0.318652 61.3747l-8.69455 54.78l-24.0577 41.7601l-29.8355 19.1251l-33.9409 8.02542l-47.9505 1.85133v0.765382l-107.704 8.96128l-161.614 -4.8437l-135.511 -48.0118l4.97421 -24.8711
l90.1513 34.2037l168.519 13.9909l163.859 -8.05849l72.0585 -32.0852l24.6852 -76.5829c-11.2968 -92.7231 -11.5388 -94.7093 -10.6225 -98.1968c0.272553 -1.03738 0.408327 -1.98777 0.495372 -2.92219c0.487753 -0.641757 1.13403 -1.58506 1.4862 -2.05622
l30.4464 -40.7334l38.0432 -60.0682l23.93 -33.502l-96.7113 -80.2498l-3.19974 -219.288c0.962733 -7.56244 2.78458 -22.0112 5.01798 -45.877c-0.12894 -0.269919 -9.65147 -20.9678 -12.8349 -27.02c-1.80565 -3.43278 -3.36365 -6.39475 -8.94453 -11.1259
c-28.726 -6.87192 -37.6748 -9.01268 -53.7943 -9.01268c-3.38415 0 -6.77838 0.14333 -10.1737 0.446144l-127.95 -3.2205l-189.706 31.9736l-119.91 72.0259l-21.8729 31.5454c-0.18608 0.126152 -14.9542 10.3475 -18.5829 12.6523v-31.4635
c5.41685 -3.87145 13.5068 -7.36272 24.4398 -17.2503c7.32645 -6.62591 2.09556 -4.45645 10.6241 -11.9264c1.03002 -0.902171 1.03002 -0.902171 17.2005 -21.8062l70.2643 -41.1391l123.979 -35.7692l40.8353 -3.74581
c52.8258 -4.90757 59.0669 -6.73248 83.0467 -7.42728l68.08 -1.97257l89.7606 0.254271l51.1066 12.4914l15.1376 25.2075l6.27671 34.16l-0.268638 82.9487l0.0291888 84.2282l-0.00582149 87.5189l84.7837 67.8016l7.68593 8.96692l1.11464 7.19504
c0.44913 7.61262 -1.52476 12.8022 -3.31214 18.1783l-23.3304 38.8443l-33.0243 43.448l-34.3179 48.9016c-0.202711 16.1296 -0.202711 16.1296 -0.202711 17.6951zM33.2949 712.521h55.5146l17.1611 52.2256l17.1602 -52.2256h55.5156l-44.8672 -32.2959
l17.1611 -52.2246l-44.9697 32.2959l-44.9707 -32.2959l17.1611 52.2246zM370.704 90.3154c-0.131836 0 -0.713867 0.248047 -0.713867 0.795898c0 0.0849609 0.0117188 0.168945 0.0322266 0.246094c-0.327148 6.38867 -0.655273 12.7783 -0.982422 19.167l235.415 24.1455
c-2.27344 0.21582 -4.35938 0.415039 -4.38281 0.418945c-24.2852 4.13379 -33.2842 15.5596 -33.2842 39.5127c0 53.9834 45.3896 143.835 54.5635 191.851c0.421875 2.21094 3.32227 3.85254 3.32227 5.50586c0 0.115234 0.597656 1.54102 0.480469 2.40039
l0.959961 -0.959961c0.0234375 -0.765625 0.59082 -1.2832 0.615234 -2.04785v0c10.8633 -52.2637 51.9326 -121.555 51.9326 -171.263c0 -16.3389 -4.84863 -28.4551 -12.2285 -43.3896c-1.70312 -3.44824 -3.79785 -7.68652 -6.54883 -13.5273
c-0.224609 -0.477539 -2.21094 -2.58691 -11.5586 -10.6084l-6.47168 2.69727l-0.728516 2.18555c0.191406 0.181641 12.9932 12.9014 13.6895 22.4893c0.335938 4.62305 0.494141 9.05566 0.494141 13.3086c0 43.0322 -16.1943 67.7002 -28.4121 86.334
c-3.86035 5.88965 -7.33398 11.1787 -9.77148 16.2783c-10.4932 -32.8936 -33.7324 -66.8203 -33.7324 -99.2568c0 -16.0684 8.92773 -28.6074 9.12012 -28.7998c4.56445 -4.56543 7.61621 -7.75293 18.4805 -10.9834v-1.47559l0.671875 0.0693359
c2.3584 5.75391 8.08984 11.2139 14.8809 11.2139c10.1846 0 15.1777 -8.95703 15.1777 -16.1699c0 -7.49023 -5.7793 -16.0146 -13.2109 -16.0146c-3.44629 0 -7.46973 1.63867 -10.8379 4.14258c-49.2246 -7.6084 -167.756 -21.0068 -242.912 -27.8281
c-2.0752 -0.1875 -3.40234 -0.300781 -3.86719 -0.327148c0 0 -0.0498047 -0.110352 -0.192383 -0.110352zM472 320l-122.887 222.461l25.0078 10.5645l98.6729 -169.497l89.959 171.158l29.8975 -12.1084z" />
  </g>

</svg>
