<?xml version="1.0" standalone="no"?>
<!DOCTYPE svg PUBLIC "-//W3C//DTD SVG 1.1//EN" "http://www.w3.org/Graphics/SVG/1.1/DTD/svg11.dtd" >
<svg xmlns="http://www.w3.org/2000/svg" xmlns:xlink="http://www.w3.org/1999/xlink" version="1.1" viewBox="-10 0 1015 1000">
  <g transform="matrix(1 0 0 -1 0 800)">
   <path fill="currentColor"
d="M271 608l-12 60c128.725 89.7881 355.203 55.3633 442.457 48.5605c0 -0.0107422 0.000976562 -0.0214844 0.000976562 -0.0322266c27.4463 0.582031 75.1855 -1.32129 107.268 -33.4033c40.1396 -40.1396 38.6152 -108.841 37.5254 -169.365
c-0.395508 -21.9258 -0.433594 -33.2402 -0.22168 -41.9463c26.3789 -43.8281 72.168 -89.959 89.3252 -129.607c6.95117 -16.0635 5.49219 -24.7637 2.64551 -40.2051l-12 -14l-79.501 -63.5771v-212.431c1.93945 -31.0869 1.82422 -79.2412 -27.416 -108.48
c-26.0322 -26.0322 -182.507 -12.0195 -220.584 -13.0049l-2.90137 0.0126953c-103.732 -7.2998 -296.108 50.6025 -326.603 92.1719c-18.5059 25.2275 -31.4014 41.2529 -57.9951 55.3086v70.0371c25.8174 -16.2627 49.624 -17.8066 70.1904 -60.6357
c44.2188 -92.082 349.455 -105.734 451.309 -108.438l-0.499023 -0.962891c50 12 34.1514 4.48145 42.5352 13.5361c19.1768 20.7119 3.97852 41.9688 5.50781 57.9648h-0.541992v2.14941c-0.253906 0.990234 -0.500977 1.94141 -0.738281 2.84863h0.738281v207.174v3.4873
v1.33887h1.58203l104 88h1.13281c4.9834 45.8955 -62.8379 92.1289 -94.2158 139.501l-3 4l-1 1c-2.02051 3.99219 0.0439453 4.02539 -2.08398 11.5605c-0.0371094 0.130859 -0.189453 0.24707 -0.174805 0.367188l0.258789 2.07227l0.0644531 1.49902
c0.00976562 0.226562 0.150391 3.89551 0.242188 6.24414c3.11426 79.1523 14.1973 176.389 -74.8154 176.771c-136.35 16.7461 -373.536 9.53418 -431.49 -46.5137zM30.3545 728.521h55.5146l17.1611 52.2256l17.1602 -52.2256h55.5156l-44.8672 -32.2959l17.1611 -52.2246
l-44.9697 32.2959l-44.9707 -32.2959l17.1611 52.2246zM633.803 79.5498c0.299805 0.0117188 19.2764 0.000976562 19.2812 0.0107422c-5.84473 24.5166 -4.20312 32.4102 -2.07031 39.2881c0.0195312 0.0625 1.66895 5.76465 1.89355 6.21484l13.7861 27.5713
c-7.05566 109.367 -7.05566 109.367 -7.01562 109.837c2.31738 27.5166 4.33789 59.6113 1.97559 80.1709c-6.14355 24.4023 -21.3887 19.2529 -24.9492 11.4473c-1.25879 -2.75879 -2.67676 -3.08301 -6.33691 -3.9209
c-2.84473 -2.54492 -7.31934 -1.98926 -9.44824 1.2168c-2.66699 4.01758 -15.0088 23.1279 -15.334 23.7627c-4.46191 8.74121 -21.6797 14.1191 -24.9697 -3.18457c-0.118164 -0.625977 -0.118164 -0.625977 -5.99512 -14.9492
c-2.18945 -5.33691 -9.9082 -5.11523 -11.7842 0.341797l-11.0547 32.1582c-2.95508 8.59766 -21.3945 15.4619 -31.1348 -0.818359c-0.179688 -0.536133 -1.49512 -4.52344 -8.60254 -26.8174c-1.54492 -4.8457 -7.99414 -5.95312 -11.0586 -1.83496
c-9.09375 12.2178 -9.09375 12.2178 -9.25293 12.3779c-0.0605469 0.0605469 -10.3857 10.3682 -16.2354 4.51855c-3.20312 -3.20312 -5.01465 -11.0234 -5.81348 -15.8184c0.0234375 -0.719727 0.166992 -4.96289 0.954102 -25.5469
c0.46875 -12.8174 1.03906 -40.21 1.05078 -40.6152c3.74902 -26.7217 2.01465 -27.5557 3.96484 -41.8525c0.141602 -0.549805 1.22266 -4.71582 6.83789 -25.9707c0.0546875 -0.208008 0.568359 -12.1074 -1.06055 -14.875
c-4.00195 -6.80371 -4.2793 -7.27637 -6.9209 -7.88086c-10.4492 -2.39453 -13.7559 -0.289062 -17.29 4.61328c-1.81738 2.52148 -14.1797 14.9111 -15.4219 16.3457l-25.9053 29.8906c-0.700195 0.462891 -4.29492 2.81738 -15.1104 9.66895
c-0.631836 0.191406 -3.65918 1.0957 -12.8008 3.65527c-2.55566 -1.40234 -5.60254 -0.556641 -7.91406 -2.86816c-1.67676 -1.67676 -3.61133 -7.29395 -2.99609 -10.4756l14.292 -19.2207c2.75391 -2.58105 17.3848 -15.335 18.1016 -16.2002
c21.3564 -25.8271 21.3564 -25.8271 21.459 -25.9668c15.5215 -21.0283 15.5215 -21.0283 15.6387 -21.2109c13.9951 -21.9941 13.9951 -21.9941 14.1934 -22.4521l10.8086 -25.0576c2.98633 -4.62988 14.5312 -22.0479 14.8398 -22.6357
c4.86426 -9.24121 4.86426 -9.24121 5.04785 -10.0098c3.61816 -15.165 29.249 -15.9199 29.5859 -15.9258l28.0342 -0.500977zM653.085 66.957h-18.8877c-84.9736 -3.5293 -84.9736 -3.5293 -85.1621 -3.52539l-28.2373 0.503906
c-4.4834 0.0839844 -35.0908 1.51562 -41.3906 24.7686l-4.01172 7.62109c-14.6797 22.2686 -14.4297 21.5312 -15.3184 23.5898l-10.6914 24.7861l-13.3438 20.9688l-15.1611 20.54l-20.8203 25.1787c-17.8857 15.8408 -17.8857 15.8408 -18.6709 16.8965l-14.6162 19.6562
c-5.21387 7.0127 -1.57422 20.6953 4.38477 26.6543c3.49414 3.49414 6.78906 4.56152 11.6729 5.46094c2.70215 1.20801 5.74316 1.41699 8.56348 0.62793c13.2969 -3.72363 13.5859 -3.52734 15.9229 -5.00781c14.2695 -9.03711 15.3525 -9.37793 17.3955 -11.4219
c0.239258 -0.239258 -0.305664 -0.737305 26.502 -30.542c13.9678 -15.5293 14.5127 -15.0303 16.5186 -17.749c0.331055 0.0302734 0.786133 0.0869141 1.36035 0.179688l0.674805 1.14746l0.301758 7.53223c-6.71875 25.4238 -6.64453 24.7217 -6.87207 26.3818
c-2.10059 15.2861 -0.25293 15.5039 -4.02637 42.292c-0.0576172 0.412109 -0.8125 33.125 -1.12207 41.5928c-1.00781 26.3193 -1.24902 25.2822 -0.856445 27.7168c1.22754 7.60156 4.05371 25.1211 18.8555 28.2422c12.3066 2.59668 24.2363 -8.95801 25.873 -11.1572
l1.83203 -2.46289c4.91895 15.6055 4.76074 15.502 5.91406 17.4609c15.2334 25.9111 47.6162 17.3799 54.0264 -1.26562l5.40723 -15.7324c7.54492 25.3516 37.8906 21.5762 47.5459 3.29883c0.114258 -0.173828 10.8486 -16.8506 11.252 -17.4746
c10.5908 13.6895 37.4131 15.998 45.9697 -17.9805c0.134766 -0.542969 0.235352 -1.0918 0.298828 -1.64453c2.58008 -22.4482 0.425781 -54.5498 -1.89844 -82.2139l6.99512 -108.426c0.142578 -2.20312 -0.291992 -4.43652 -1.30078 -6.45508l-13.4805 -26.9609
c-0.387695 -1.50195 -0.84082 -3.00293 -1.43848 -4.93066c-1.67773 -5.41406 -3.44922 -8.53418 2.29297 -32.6123c1.8877 -7.91504 -4.11133 -15.5352 -12.2529 -15.5352zM639.086 498.562zM501.683 591.002zM476.022 543.764zM576 482zM575.82 476.264zM499.432 497.594z
M543.471 483.74zM663.595 554.444zM476.022 543.764zM663.595 554.444zM602.751 615.092c-9.68652 0 -17.8857 -3.76758 -22.0449 -7.92676c-1.58301 -1.58203 -1.17871 -1.66504 -1.83301 -1.90332c-2.94043 -1.07227 -5.82227 -1.45996 -8.45117 -1.45996
c-2.48242 0 -6.99414 0.366211 -11.8789 2.56152c-3.31836 4.03906 -8.93164 7.71582 -18.3691 7.71582c-14.168 0 -30.3242 -8.76855 -35.9424 -21.9082l-0.27832 -0.649414h-0.976562l-25.5986 -34.7803h-1.22461v-1.66406
c-0.166016 -0.225586 -0.332031 -0.450195 -0.498047 -0.676758h0.268555l-2.83594 -10.6309l-0.318359 0.00488281c-0.0566406 -1.08887 -0.160156 -1.71387 -0.503906 -3.06641h0.413086c-0.00976563 -1.20215 -0.00976563 -1.20215 -0.00976563 -1.32422
c0 -7.77246 3.35352 -23.502 25.708 -41.9902c23.6094 -19.5283 50.3096 -21.6807 72.4434 -21.6807c36.2793 0 51.0703 4.54688 72.7793 21.7012c26.5205 20.9551 26.9678 27.126 27.6973 42.4424l-0.743164 0.0117188
c-0.0449219 0.169922 -3.30176 13.4619 -4.45801 17.04l-18.9531 32.3887c-2.13672 2.23047 -2.13672 2.23047 -2.35156 2.59863h-0.140625c-6.66406 6.82031 -20.6338 19.584 -34.2734 22.4111c-2.61035 0.541992 -5.16602 0.785156 -7.62598 0.785156zM539.805 605.725
c2.03906 0 6.57031 0 11.7383 -3.55664l-0.0400391 -0.492188c0.297852 -0.12207 0.776367 -0.34668 1.24023 -0.788086c4.37793 -4.16016 11.1064 -6.11328 17.4941 -6.11328c5.95117 0 11.6064 1.69434 14.79 4.87891c0.619141 0.619141 1.62012 1.61914 2.39258 3.94824
c3.28125 2.23926 8.49219 4.68164 15.6055 4.68164c9.43945 0 13.8516 -4.11035 17.2363 -7.26172c2.62988 -2.44922 6.09277 -5.68164 13.541 -10.6104c0.28418 -0.0615234 0.517578 -0.198242 0.705078 -0.410156l0.164062 0.00585938l21.2998 -33.5967
c0 -0.0576172 -0.000976563 -0.115234 -0.000976563 -0.172852c1.52734 -5.72363 2.92285 -11.5801 4.39355 -17.3604c0.514648 -2.05469 0.803711 -3.95801 0.803711 -5.80176c0 -8.8457 -6.58105 -16.0117 -25.5381 -31.5029
c-17.4678 -14.2734 -30.1182 -19.1699 -68.2402 -19.1699c-20.6377 0 -37.2744 2.53516 -56.7031 16.1348c-23.9502 16.7656 -27.1699 29.1123 -27.1699 40.1064c0 0.725586 0.0136719 1.44043 0.0341797 2.14355c1.19531 4.74219 2.49316 9.38184 3.72656 14.0859
l23.3408 33.0449c0.331055 -0.126953 0.662109 -0.254883 0.993164 -0.381836c0.786133 1.85156 2.125 5.00586 5.75781 8.63867c5.85449 5.85449 14.5195 9.5498 22.4355 9.5498zM566.287 253.667c-5.66309 4.58398 -13.2461 9.87402 -23.4678 9.87402
c-6.10645 0 -15.6133 -3.66504 -20.2002 -7.7793c-6.57324 -7.1582 -9.37109 -19.3125 -6.0459 -29.8047c2.125 -6.70703 6.74219 -14.3066 11.3711 -18.4189c0.59375 -0.52832 1.39062 -1.31152 1.8916 -1.79492l45.2812 -43.6768l45.1016 43.4092
c11.043 11.042 15.1523 20.1475 15.1523 30.8779c0 5.94238 -3.6543 15.1484 -7.74316 19.5293c-5.32812 4.72754 -14.5225 7.66309 -22.0029 7.61035c-9.33887 -0.0654297 -16.377 -5.44141 -21.6719 -9.59473c-2.10645 -1.75879 -4.70898 -4.37109 -6.7373 -6.40137
c-2.33105 -2.33105 -4.72363 0.480469 -5.87891 1.63574c-1.29688 1.29688 -3.64844 3.4082 -5.0498 4.53418zM574.881 259.968c7.69434 6.69824 18.0918 14.0693 32.5557 14.0693c8.59766 0 21.29 -4.35547 27.3311 -10.6406
c6.68359 -6.95508 11.3594 -18.7832 10.8252 -29.0713c-0.0283203 -12.4033 -6.46387 -24.6787 -18.2832 -36.499l-45.3096 -43.8262c-3.64258 -3.82227 -10.0244 -3.96582 -13.8242 -0.166016l-45.4443 44.0059c-4.10742 3.45898 -8.83203 9.75977 -11.9756 14.9961
c-3.69141 6.37988 -6.21875 13.9648 -6.21875 23.5898c0 8.49414 4.41016 21.1279 10.8066 26.9355c9.52637 8.64746 25.6123 13.4766 39.9141 8.63086c7.42383 -2.48145 14.4736 -7.52734 19.623 -12.0244z" />
  </g>

</svg>
