<?xml version="1.0" standalone="no"?>
<!DOCTYPE svg PUBLIC "-//W3C//DTD SVG 1.1//EN" "http://www.w3.org/Graphics/SVG/1.1/DTD/svg11.dtd" >
<svg xmlns="http://www.w3.org/2000/svg" xmlns:xlink="http://www.w3.org/1999/xlink" version="1.1" viewBox="-10 0 1004 1000">
  <g transform="matrix(1 0 0 -1 0 800)">
   <path fill="currentColor"
d="M30.3242 741.553h55.5146l17.1611 52.2256l17.1602 -52.2256h55.5156l-44.8672 -32.2959l17.1611 -52.2246l-44.9697 32.2959l-44.9707 -32.2959l17.1611 52.2246zM271 608l-12 60c128.725 89.7881 355.203 55.3633 442.457 48.5605
c0 -0.0107422 0.000976562 -0.0214844 0.000976562 -0.0322266c27.4463 0.582031 75.1855 -1.32129 107.268 -33.4033c40.1396 -40.1396 38.6152 -108.841 37.5254 -169.365c-0.395508 -21.9258 -0.433594 -33.2402 -0.22168 -41.9463
c26.3789 -43.8281 72.168 -89.959 89.3252 -129.607c6.95117 -16.0635 5.49219 -24.7637 2.64551 -40.2051l-12 -14l-79.501 -63.5771v-212.431c1.93945 -31.0869 1.82422 -79.2412 -27.416 -108.48c-26.0322 -26.0322 -182.507 -12.0195 -220.584 -13.0049
l-2.90137 0.0126953c-103.732 -7.2998 -296.108 50.6025 -326.603 92.1719c-18.5059 25.2275 -31.4014 41.2529 -57.9951 55.3086v70.0371c25.8174 -16.2627 49.624 -17.8066 70.1904 -60.6357c44.2188 -92.082 349.455 -105.734 451.309 -108.438l-0.499023 -0.962891
c50 12 34.1514 4.48145 42.5352 13.5361c19.1768 20.7119 3.97852 41.9688 5.50781 57.9648h-0.541992v2.14941c-0.253906 0.990234 -0.500977 1.94141 -0.738281 2.84863h0.738281v207.174v3.4873v1.33887h1.58203l104 88h1.13281
c4.9834 45.8955 -62.8379 92.1289 -94.2158 139.501l-3 4l-1 1c-2.02051 3.99219 0.0439453 4.02539 -2.08398 11.5605c-0.0371094 0.130859 -0.189453 0.24707 -0.174805 0.367188l0.258789 2.07227l0.0644531 1.49902
c0.00976562 0.226562 0.150391 3.89551 0.242188 6.24414c3.11426 79.1523 5.19727 173.389 -83.8154 173.771c-136.35 16.7461 -373.536 9.53418 -431.49 -46.5137zM376.399 346.4l-0.799805 12.7998l188 0.799805l-0.400391 -13.5996h-186.8zM377.199 290.4
l-0.799805 14.3994l187.601 -0.799805v-13.5996h-186.801zM460 60.7998c-8.80078 5.60059 -20 12.7998 -24.4004 15.6006c-4.40039 2.7998 -9.59961 6.39941 -11.5996 7.59961l-3.2002 2l-9.2002 27.5996l-9.2002 27.6006l3.2002 30
c1.59961 16.7998 3.2002 30.7998 3.59961 31.2002c0.400391 0.399414 12 6.39941 26 13.1992l26 12.8008l6.40039 0.799805c3.59961 0.399414 11.2002 1.2002 16.7998 1.59961c20.4004 2.40039 16 3.2002 37.6006 -6.7998l18.7998 -8.7998l14.3994 -23.2002
c8 -12.7998 -2.39941 -38.4004 -2.39941 -39.2002c0 -0.799805 34 -26 28.7998 -42.3994c-5.2002 -16.4004 -16.7998 -36 -18.7998 -42s-16 -4.80078 -16.4004 -6c-0.799805 -1.60059 -0.799805 -0.800781 -27.5996 2.7998c-8 1.2002 -16.7998 -3.60059 -19.6006 -4.7998
c-10.3994 -4.80078 -22.3994 -10.4004 -22.7998 -10.4004c-0.399414 0 -7.59961 5.2002 -16.3994 10.7998zM389.323 415.043c-29.2754 0 -53.0303 25.7949 -53.0303 53.4795c0 13.5732 8.2832 30.249 13.9131 36.0039c1.49316 1.55859 2.24512 3.55371 2.24512 5.5459
c0 1.98535 -0.74707 3.96875 -2.25293 5.51855c-7.36426 7.37207 -13.3408 21.8057 -13.3506 32.1367c0 0.770508 1.62305 13.1152 2.89453 15.9404c6.5625 15.0732 25.1992 27.5889 41.6094 27.9824l0.114258 0.00292969l0.115234 -0.00390625
c14.4199 -0.508789 33.1465 -11.2754 40.3496 -27.6377c1.18457 -2.46875 4.08496 -4.64062 7.37402 -4.64062c2.25391 0 3.6416 0.916992 4.61328 1.55859c8.74512 5.78125 24.3799 10.499 34.834 10.499c0.799805 0 2.14355 -0.0341797 2.56445 -0.0458984
c0.0244141 0 0.0458984 -0.000976562 0.0625 -0.000976562c3.3291 0.0195312 6.36719 2.44922 7.42285 5.11621c7.51172 18.2148 29.6572 33.0156 49.3105 33.0156c-0.352539 0.162109 -0.517578 0.266602 -0.517578 0.31543
c0 0.0214844 0.0332031 0.0322266 0.0976562 0.0322266c1.76074 0 26.748 -7.95117 35.2305 -16.4336c3.20898 -3.20898 12.5684 -13.5068 14.9355 -26.5752c0.84668 -4.2627 4.55371 -6.46387 7.5332 -6.55859c27.4434 -0.736328 49.7236 -23.624 49.7236 -51.0752
c0 -0.374023 -0.456055 -21.376 -13.8545 -34.7744c-7.99414 -7.99219 -17.5781 -12.1826 -18.2754 -12.458c-7.31641 -2.88574 -15.9639 -3.9873 -20.041 -3.9873h-0.0878906c-6.27246 0.141602 -11.2949 3.27344 -18.4092 3.27344
c-3.57324 0 -5.59766 -0.958984 -6.68848 -2.0498c-0.131836 -0.143555 -0.696289 -0.78125 -2.90332 -3.28711c1.57031 -3.62305 3.77051 -8.70117 3.77051 -15.3691c0 -9.66309 -5.68359 -18.6953 -5.96875 -18.7393
c-1.43457 -1.98535 -3.15039 -3.93457 -5.03223 -5.81641c-5.56348 -5.56348 -12.5303 -10.5518 -18.3545 -12.9072c-13.9199 -5.63086 -25.8301 -5.70898 -26.7891 -5.70898c-9.91113 0 -22.7422 3.75879 -23.5039 4.35742
c-11.8945 4.93652 -26.166 18.8926 -31.1777 32.6533c-0.884766 2.29395 -3.35742 4.65234 -6.15918 5.20312c-0.676758 0.0419922 -1.4375 0.0546875 -2.24902 0.0546875c-0.0722656 0 -4.12793 -0.574219 -6.39648 -3.34961
c-11.6465 -14.2393 -31.6084 -21.2705 -43.6719 -21.2705zM479.305 401.618l-0.0361328 0.015625zM350.133 504.446v0zM324.649 467.557c0 -35.8584 31.4443 -65.957 64.1455 -65.957c24.5049 0 43.5342 15.123 46.626 17.7637l3.35547 2.86523
c3.91309 -6.13477 6.46191 -10.1289 12.7871 -16.4541c6.99805 -6.99805 15.5508 -13.1895 23.4219 -16.2939c7.29395 -2.84375 19.1855 -5.08008 27.0146 -5.08008c10.0459 0 20.8672 2.33398 32.7705 6.92969c10.71 4.13379 24.1104 14.9004 30.3213 23.9961
c3.1875 4.66895 6.77832 16.417 6.77832 24.8115c0 0.609375 0 0.609375 -0.241211 6.08789c6.43945 -1.2998 8.78809 -1.77441 11.5312 -1.77441c3.20801 0 15.5078 1.56348 24.3096 5.31445c9.59863 3.90527 21.7783 13.6211 27.5801 21.6465
c6.77734 9.46875 12.1387 26.1641 12.1387 37.8105c0 8.43457 -2.9082 20.9873 -6.61523 28.5596c-6.3584 12.9902 -26.9316 30.9902 -49.0059 34.4932l-2.35547 0.374023c-1.72168 5.55176 -5.35449 17.2656 -17.8965 29.8076
c-7.12305 7.12305 -22.6699 19.7334 -43.4717 19.7334c-26.8535 0 -49.8184 -19.6592 -58.5469 -36.2666l-1.00684 -1.91504c-8.47461 -0.512695 -21.2754 -2.4375 -33.9814 -8.69824l-3.01953 -1.48828c-3.08984 4.61914 -4.68457 7.00293 -8.64551 10.9639
c-10.623 10.6221 -26.4834 18.666 -40.7939 19.1318c-0.174805 0.00292969 -0.351562 0.00488281 -0.529297 0.00488281c-17.3408 0 -43.7266 -14.1465 -52.5723 -36.7451c-2.09766 -5.63965 -3.51367 -19.4297 -3.70117 -20.4688
c0 -11.0938 5.20898 -26.1484 12.2773 -35.7578l1.62305 -2.20703l-1.56152 -2.25195c-7.30957 -10.5352 -12.7363 -26.9922 -12.7363 -38.9355zM529.847 473.092c0 -9.41113 -6.61719 -18.0127 -15.9512 -18.0127c-0.0507812 0 -0.100586 0 -0.150391 0.000976563
c-2.78711 -0.0546875 -24.1211 -0.0634766 -38.3594 -0.0634766c-7.22754 0 -12.627 0.00195313 -12.8418 0.00195313c-3.13477 0.101562 -8.05859 0.260742 -12.1836 4.83008c-1.03223 1.14258 -5.19141 6.17383 -5.19141 13.6162
c0 3.41016 1.2627 8.50293 3.19922 15.5967c6.26172 25.7627 7.99707 32.9326 12.7891 42.752c2.29199 4.68848 10.0176 18.9307 26.209 18.9307c22.7861 0 30.2852 -24.4297 35.376 -44.9434c1.74805 -7.26562 3.53711 -14.5352 5.36816 -21.8066
c0.84375 -3.51465 1.73633 -7.16895 1.73633 -10.9023zM487.34 536.795c-11.0693 0 -16.6064 -12.1455 -22.2744 -34.6738c-4.21484 -17.3516 -4.22461 -17.3916 -5.75 -23.1123c-0.574219 -2.36719 -0.985352 -4.23633 -0.985352 -5.76172
c0 -1.39062 0.341797 -2.49512 1.21191 -3.43066v0v0c0.0400391 -0.0419922 0.0810547 -0.0849609 0.123047 -0.126953c0.243164 -0.243164 0.342773 -0.390625 0.490234 -0.484375c0.0185547 -0.00585938 0.0361328 -0.0107422 0.0537109 -0.0107422
l-0.00488281 -0.0166016c0.09375 -0.0488281 0.210938 -0.0810547 0.390625 -0.104492c0 0.00878906 0.000976563 0.0166016 0.000976563 0.0244141c0.0126953 0 0.0253906 -0.00292969 0.0361328 -0.00390625
c0 -0.00878906 -0.000976563 -0.0166016 -0.000976563 -0.0253906c0.37207 -0.0439453 0.996094 -0.0585938 2.17285 -0.110352c50.1133 0.0224609 50.8232 0.0478516 51.8984 0.189453c0.566406 0.25293 2.10938 1.67969 2.10938 4.31738
c0 1.96582 -7.14844 31.3193 -10.0312 40.7188c-6.44336 20.7773 -13.9316 22.2646 -17.9043 22.5391h-0.0166016c-0.520508 0.046875 -1.02637 0.0722656 -1.51953 0.0722656zM458.401 474.854l0.0195312 0.195312l-2.54004 0.195312zM459.542 469.818v-0.00195312
l0.000976562 0.000976562zM459.542 469.818v0v0z" />
  </g>

</svg>
