<?xml version="1.0" standalone="no"?>
<!DOCTYPE svg PUBLIC "-//W3C//DTD SVG 1.1//EN" "http://www.w3.org/Graphics/SVG/1.1/DTD/svg11.dtd" >
<svg xmlns="http://www.w3.org/2000/svg" xmlns:xlink="http://www.w3.org/1999/xlink" version="1.1" viewBox="-10 0 1051 1000">
  <g transform="matrix(1 0 0 -1 0 800)">
   <path fill="currentColor"
d="M828.399 483.872c0 9.49878 0.360099 25.4826 0.360099 28.905l-0.318652 61.3747l-8.69455 54.78l-24.0577 41.7601l-29.8355 19.1251l-33.9409 8.02542l-47.9505 1.85133v0.765382l-107.704 8.96128l-161.614 -4.8437l-135.511 -48.0118l4.97421 -24.8711
l90.1513 34.2037l168.519 13.9909l163.859 -8.05849l72.0585 -32.0852l24.6852 -76.5829c-11.2968 -92.7231 -11.5388 -94.7093 -10.6225 -98.1968c0.272553 -1.03738 0.408327 -1.98777 0.495372 -2.92219c0.487753 -0.641757 1.13403 -1.58506 1.4862 -2.05622
l30.4464 -40.7334l38.0432 -60.0682l23.93 -33.502l-96.7113 -80.2498l-3.19974 -219.288c0.962733 -7.56244 2.78458 -22.0112 5.01798 -45.877c-0.12894 -0.269919 -9.65147 -20.9678 -12.8349 -27.02c-1.80565 -3.43278 -3.36365 -6.39475 -8.94453 -11.1259
c-28.726 -6.87192 -37.6748 -9.01268 -53.7943 -9.01268c-3.38415 0 -6.77838 0.14333 -10.1737 0.446144l-127.95 -3.2205l-189.706 31.9736l-119.91 72.0259l-21.8729 31.5454c-0.18608 0.126152 -14.9542 10.3475 -18.5829 12.6523v-31.4635
c5.41685 -3.87145 13.5068 -7.36272 24.4398 -17.2503c7.32645 -6.62591 2.09556 -4.45645 10.6241 -11.9264c1.03002 -0.902171 1.03002 -0.902171 17.2005 -21.8062l70.2643 -41.1391l123.979 -35.7692l40.8353 -3.74581
c52.8258 -4.90757 59.0669 -6.73248 83.0467 -7.42728l68.08 -1.97257l89.7606 0.254271l51.1066 12.4914l15.1376 25.2075l6.27671 34.16l-0.268638 82.9487l0.0291888 84.2282l-0.00582149 87.5189l84.7837 67.8016l7.68593 8.96692l1.11464 7.19504
c0.44913 7.61262 -1.52476 12.8022 -3.31214 18.1783l-23.3304 38.8443l-33.0243 43.448l-34.3179 48.9016c-0.202711 16.1296 -0.202711 16.1296 -0.202711 17.6951zM33.2949 712.521h55.5146l17.1611 52.2256l17.1602 -52.2256h55.5156l-44.8672 -32.2959
l17.1611 -52.2246l-44.9697 32.2959l-44.9707 -32.2959l17.1611 52.2246zM424.633 164.965c34.0136 31.3972 48.9238 45.1605 48.9238 60.3164c0 17.373 -22.5897 33.4035 -44.9863 11.0068c-1.93457 -1.93359 -2.32812 -2.86719 -3.93945 -2.8916
c-2.9636 0 -11.9698 13.8301 -26.4434 13.8301c-15.2227 0 -17.6955 -7.61118 -22.4365 -22.2041c0.125 -13.1826 9.19727 -21.8584 14.5918 -27.0166c22.6855 -21.6953 31.6514 -30.3643 34.29 -33.041zM364.526 225.34c0 18.6895 15.0985 32.9668 33.4209 32.9668
c6.07422 0 14.6523 -1.00879 26.4404 -10.6396c2.96582 2.41992 8.03711 5.81543 8.11035 5.73438c33.9618 20.2047 75.619 -23.0126 36.4062 -61.3027c-44.2025 -43.1609 -44.2025 -43.1609 -51.2715 -36.3164l-38.2041 36.9961
c-3.97604 3.97604 -14.9023 14.9023 -14.9023 32.5615zM311.425 271.069c-0.0683594 0.0605469 -0.132812 0.113281 -0.193359 0.160156zM240.892 287.866c0.21582 -0.241211 0.370117 -0.40918 0.454102 -0.496094zM422.22 420.226
c0.0351795 -0.183545 2.86683 -16.7812 2.6416 -18.501c0.299805 -0.0498047 0.786133 0.0429688 0.675781 -0.322266c5.45117 0.303711 7.4502 -29.1543 11.1914 -27.5273c6.5601 2.8511 1.05892 12.7225 5.17676 46.4561c1.07272 8.71798 17.327 36.9527 25.5947 30.5879
c11.6768 -13.0459 18.2275 -44.877 17.8232 -66.124c2.49512 -0.0283203 3.05078 -8.16895 3.27539 -10.0801c4.52051 -38.3428 6.97852 27.6865 9.61816 23.4131c8.00073 13.7732 22.4484 26.2065 22.7246 26.4189c1.19043 0.916016 1.43652 1.01465 7.00488 0.0878906
c3.76758 -2.34375 6.7832 -7.3584 6.90918 -7.62012c6.21484 -12.8857 -1.57129 -90.7275 -1.64844 -103.806c-2.24023 -7.44434 -1.25781 -20.165 -0.751953 -23.2832c0 -16.792 2.7373 -45.9688 3.07715 -48.415c-3.04395 -5.61523 4.68652 -28.6904 2.77832 -45.5371
c-0.493164 -4.34668 -15.0664 -38.8193 -15.0664 -38.8193c-1.33594 -2.09473 0.191406 0.513672 -1.85156 -1.03711c2.73301 -1.75101 -1.99713 -9.0334 0.396484 -20.4189c0.875 -4.15625 3.13379 -3.8623 3.14746 -7.27539
c0.000996468 -0.233584 -0.207555 -12.0189 -17.9922 -14.8965c-33.7858 -5.46895 -116.465 -7.50726 -117.464 -8.13086c-14.8936 3.28418 -39.9922 18.9053 -42.4453 27.4023l0.0292969 2.26855c-2.31568 5.82454 -27.5234 41.6108 -27.5234 46.4629
c0 7.6543 -21.9521 46.5312 -26.4004 49.9531c-4.85443 3.73025 -24.0817 30.6729 -46.9082 49.7666c-2.91797 2.44141 -1.79297 4.3916 -5.34082 6.61719c-8.77246 9.82422 -5.27441 9.35156 -8.59375 14.3242c0.303041 8.90324 13.2045 19.869 26.2148 16.9023
c5.45703 -1.24609 9.70801 -6.85645 14.2871 -9.07324c5.43777 -7.38389 38.0804 -38.7088 38.625 -38.9502c3.79785 -3.34375 4.83691 -8.01758 10.6396 -10.1113c2.34961 -2.4043 6.4502 -3.2959 10.1104 -2.24414c0.719727 -0.125 0.719727 -0.125 6.76855 -1.33398
l1.69043 1.83496c1.09082 3.50391 -0.698242 14.8164 -4.27441 16.1494c-0.960938 5.43457 -1.27344 6.95996 -1.37012 7.30664c1.84418 3.58059 -7.19985 83.984 -7.9248 86.6436c-0.0283203 1.8291 1.29395 6.69531 0.00488281 9.74023
c0.855469 6.4502 0.173828 28.1006 0.772461 36.25c0 3.63184 3.66406 9.15137 7.34473 18.5879c2.60645 3.57812 2.60645 3.57812 8.18457 5.45703c13.8209 -0.779574 17.9317 -11.9543 22.3779 -55.8154l8.73633 16.3799c9.19743 25.8411 5.12318 28.8406 11.5566 44.3877
c3.2666 7.89453 5.4375 10.1826 12.9209 13.043c6.43652 -0.262695 6.70996 -0.621094 8.21973 -1.89453c0.0927734 -0.323242 11.3428 -21.7432 13.916 -30.5791l-0.735352 -4.71289zM335.187 433.893c0.0341797 0.0517578 0.0351562 0.0917969 0.0400391 0.100586
c-0.00195312 -0.00292969 -0.015625 -0.0380859 -0.0400391 -0.100586zM524.365 435.415l-1.01465 -5.88574l3.38184 0.939453zM405.384 456.71l0.398438 -0.0449219c-0.102539 0.0166016 -0.237305 0.0234375 -0.398438 0.0449219zM479.501 428.373
c0 -0.0527344 0.0332031 -0.107422 0.0341797 -0.109375c-0.00976562 0.0332031 -0.0341797 0.0703125 -0.0341797 0.109375zM322.948 172.476c-0.0595703 0.046875 -0.00292969 0.0234375 0 0zM361.382 120.614zM489.526 447.884l0.0712891 -0.137695
c-0.015625 0.0322266 -0.0390625 0.0791016 -0.0712891 0.137695zM382.38 462.169c-0.0146484 -0.0117188 -0.03125 -0.0253906 0 0zM309.771 293.248c-0.0214844 0.0205078 -0.0576172 0.0585938 0 0zM251.214 332.323l0.165039 -0.0361328
c-0.0332031 0.00488281 -0.165039 0.0361328 -0.165039 0.0361328zM240.934 267.113c0.00878906 -0.0078125 0.0185547 -0.0263672 0 0zM316.517 318.26c-0.0304258 -0.346744 1.78939 0.115327 2.52637 -34.7158l-9.29395 9.72461
c-6.57321 6.52612 -31.657 30.9029 -45.1963 36.6279c-9.92826 4.19865 -26.3439 5.70192 -44.7314 -14.7207c-10.0762 -11.1914 4.17383 -28.8252 4.49219 -29.1084c8.1322 -8.57297 -20.8593 19.3359 22.8936 -24.417c2.20338 -2.20338 2.20338 -2.20338 31.6426 -38.791
c19.3115 -24.0137 29.3379 -61.5215 44.0508 -77.1494c0.0794961 -0.171459 -0.96807 0.0789382 6.05957 -17.9014c-7.80426 -8.12547 1.30542 -22.0805 7.00977 -23.8584c26.3477 -18.7578 165.593 -6.80371 184.104 0.155273
c7.74414 0.105469 17.0801 8.75977 20.8203 16.3057c5.19141 10.4688 -3.49219 18.458 -0.302734 34.4697c-2.98579 5.79061 8.50517 17.7986 9.75098 25.2764c5.37793 6.76953 4.9502 16.248 2.125 47.8896c0.570519 1.13485 -7.19681 66.8323 -0.217773 127.019
c0.0867677 0.748825 5.14183 68.758 -8.93945 74.8516c-0.140625 0.0498047 -5.86816 3.99805 -13.6074 5.95508c-14.0545 3.55491 -22.8033 -5.46004 -31.9688 -14.9043c-5.1947 22.0365 -6.25044 26.5151 -13.334 33.5986
c-11.2229 11.2254 -30.2228 9.1415 -39.3262 0.0380859c-1.7041 -1.7041 -2.07812 -2.16699 -14.0908 -17.0098l-2.38281 10.5654c-3.41986 15.1578 -21.4455 18.7658 -22.8242 21.0273c-9.12876 14.9375 -34.5486 -16.8063 -38.8115 -25.0498
c-40.4285 22.3414 -50.2101 -13.0642 -50.3223 -13.5732c0.0960943 -1.11893 -12.295 -20.3523 -0.125977 -112.305zM331.102 107.72l-5.08496 1.02344c1.06738 0.350586 3.13281 0.675781 5.08496 -1.02344zM225.324 284.921c-0.265625 0.40332 0 0 0 0zM541.728 159.225
c-0.187647 -4.66974 3.54471 -5.41948 8.50195 -4.94434c-4.69434 -4.4834 -8.5166 -1.57617 -9.6377 0.600586c0.263672 1.32617 0.263672 1.32617 1.13574 4.34375zM704.587 534.738l44.4004 -40.7998l-36 -45.5996l-13.877 12.7705l20.8301 23.7148l-168.899 -0.813477
l-1.61621 17.5225l170.763 -0.394531l-29.1514 19.46zM64.8398 436.439l61.04 71.4004l60.4795 -67.7598l-6.44043 -6.16016l-49.8389 58.5195l2.7998 -201.88l-12.3203 0.560547l1.67969 201.319l-50.959 -61.5996z" />
  </g>

</svg>
