<?xml version="1.0" standalone="no"?>
<!DOCTYPE svg PUBLIC "-//W3C//DTD SVG 1.1//EN" "http://www.w3.org/Graphics/SVG/1.1/DTD/svg11.dtd" >
<svg xmlns="http://www.w3.org/2000/svg" xmlns:xlink="http://www.w3.org/1999/xlink" version="1.1" viewBox="-10 0 1019 1000">
  <g transform="matrix(1 0 0 -1 0 800)">
   <path fill="currentColor"
d="M614.951 738.072l-1.05078 19.9502l293.301 1.40039l-0.583984 -21.3506h-291.666zM616.451 650.572l-1.75 22.8281l293.299 -1.40039l0.117188 -21.4277h-291.666zM745.274 291.563c-13.7432 8.95898 -30.75 20.0361 -37.793 24.6182
c-7.04395 4.58203 -15.127 9.90039 -17.9619 11.8184l-5.15527 3.48926l-14.2529 42.8838l-14.2529 42.8828l4.74121 47.2979c2.60742 26.0127 5.02344 47.752 5.36816 48.3105c0.34375 0.556641 18.7617 9.96094 40.9277 20.8965l40.3027 19.8848l10.4854 1.10938
c5.76758 0.609375 17.501 1.85938 26.0771 2.78125c32.0488 3.44043 24.8467 4.77148 58.4609 -10.8105l29.5098 -13.6797l22.5498 -36.0234c12.4023 -19.8115 -3.91699 -60.3457 -3.91699 -61.5332s52.916 -40.46 45 -66c-7.91602 -25.542 -26.1631 -56.8135 -29 -66
c-2.83691 -9.18652 -25.0693 -7.0459 -26 -9c-1.30762 -2.74609 -1.30566 -1.43457 -43 4c-12.6914 1.6543 -26.1836 -5.16504 -30.7773 -7.32422c-16.0879 -7.56055 -34.7031 -15.8887 -35.5098 -15.8887c-0.448242 0 -12.0596 7.33008 -25.8027 16.2871zM138.056 512.499
c-32.0186 0 -58.001 28.2139 -58.001 58.4932c0 14.8467 9.05957 33.085 15.2178 39.3789c1.63281 1.70703 2.45508 3.8877 2.45508 6.06641c0 2.17188 -0.817383 4.34082 -2.46484 6.03613c-8.05371 8.06348 -14.5908 23.8496 -14.6016 35.1504
c0 0.841797 1.77539 14.3447 3.16602 17.4346c7.17773 16.4863 27.5625 30.1758 45.5098 30.6055l0.125 0.00292969l0.125977 -0.00390625c15.7725 -0.556641 36.2539 -12.333 44.1328 -30.2295c1.2959 -2.7002 4.46777 -5.0752 8.06543 -5.0752
c2.46582 0 3.9834 1.00293 5.0459 1.70508c9.56543 6.32324 26.666 11.4834 38.0996 11.4834c0.875 0 2.34375 -0.0380859 2.80469 -0.0498047c0.0263672 0 0.0498047 -0.00195312 0.0673828 -0.00195312c3.64258 0.0214844 6.96484 2.67969 8.11914 5.59668
c8.2168 19.9219 32.4375 36.1104 53.9336 36.1104c-0.385742 0.177734 -0.56543 0.291016 -0.56543 0.344727c0 0.0234375 0.0361328 0.0351562 0.107422 0.0351562c1.9248 0 29.2549 -8.69531 38.5322 -17.9736c3.50977 -3.50977 13.748 -14.7725 16.3359 -29.0664
c0.925781 -4.66309 4.98047 -7.07031 8.24023 -7.17383c30.0166 -0.806641 54.3848 -25.8398 54.3848 -55.8633c0 -0.410156 -0.5 -23.3799 -15.1543 -38.0352c-8.74219 -8.74121 -19.2256 -13.3252 -19.9883 -13.626
c-8.00195 -3.15527 -17.4609 -4.36035 -21.9199 -4.36035h-0.0947266c-6.86133 0.154297 -12.3545 3.58008 -20.1367 3.58008c-3.90723 0 -6.12207 -1.04883 -7.31543 -2.24219c-0.143555 -0.157227 -0.761719 -0.854492 -3.1748 -3.59473
c1.71777 -3.96289 4.12402 -9.51758 4.12402 -16.8096c0 -10.5703 -6.2168 -20.4482 -6.52832 -20.4971c-1.56934 -2.1709 -3.44531 -4.30371 -5.50391 -6.3623c-6.08496 -6.08496 -13.7051 -11.54 -20.0752 -14.1172c-15.2246 -6.15918 -28.252 -6.24414 -29.3008 -6.24414
c-10.8408 0 -24.875 4.11133 -25.707 4.7666c-13.0107 5.39941 -28.6191 20.6631 -34.1016 35.7139c-0.967773 2.50879 -3.67188 5.08887 -6.73633 5.69238c-0.740234 0.0449219 -1.57227 0.0585938 -2.45898 0.0585938c-0.0791016 0 -4.51562 -0.62793 -6.99707 -3.66406
c-12.7373 -15.5732 -34.5713 -23.2646 -47.7666 -23.2646zM236.474 497.816l-0.0390625 0.0175781zM95.1914 610.285v0zM67.3193 569.937c0 -39.2197 34.3926 -72.1406 70.1592 -72.1406c26.8018 0 47.6152 16.541 50.998 19.4287l3.66895 3.13379
c4.28027 -6.70898 7.06836 -11.0781 13.9863 -17.9961c7.65332 -7.6543 17.0078 -14.4258 25.6182 -17.8213c7.97656 -3.11133 20.9834 -5.55664 29.5469 -5.55664c10.9873 0 22.8232 2.55273 35.8428 7.5791c11.7139 4.52148 26.3701 16.2969 33.1631 26.2451
c3.4873 5.10742 7.41406 17.957 7.41406 27.1387c0 0.666016 0 0.666016 -0.262695 6.6582c7.04199 -1.42188 9.61133 -1.94141 12.6104 -1.94141c3.50977 0 16.9629 1.71094 26.5898 5.81348c10.498 4.27246 23.8203 14.8984 30.166 23.6748
c7.41309 10.3564 13.2764 28.6182 13.2764 41.3564c0 9.22461 -3.18066 22.9541 -7.23535 31.2373c-6.9541 14.208 -29.4561 33.8955 -53.6006 37.7266l-2.57617 0.40918c-1.88281 6.07129 -5.85645 18.8848 -19.5742 32.6025
c-7.79102 7.79004 -24.7949 21.583 -47.5469 21.583c-29.3711 0 -54.4893 -21.502 -64.0361 -39.667l-1.10059 -2.09375c-9.27051 -0.560547 -23.2695 -2.66699 -37.168 -9.51465l-3.30273 -1.62793c-3.37891 5.05273 -5.12305 7.66016 -9.45605 11.9922
c-11.6182 11.6191 -28.9648 20.417 -44.6182 20.9258c-0.191406 0.00390625 -0.384766 0.00488281 -0.579102 0.00488281c-18.9658 0 -47.8262 -15.4727 -57.5 -40.1895c-2.29492 -6.16895 -3.84375 -21.252 -4.04883 -22.3877
c0 -12.1338 5.69727 -28.5996 13.4287 -39.1113l1.77441 -2.41309l-1.70703 -2.46289c-7.99512 -11.5234 -13.9307 -29.5225 -13.9307 -42.5859zM291.754 575.991c0 -10.2939 -7.2373 -19.7012 -17.4463 -19.7012h-0.165039
c-3.04785 -0.0595703 -26.3828 -0.0693359 -41.9551 -0.0693359c-7.90527 0 -13.8105 0.00292969 -14.0459 0.00292969c-3.42969 0.109375 -8.81348 0.28418 -13.3252 5.28223c-1.12988 1.25098 -5.67969 6.75293 -5.67969 14.8926c0 3.73047 1.38281 9.2998 3.5 17.0586
c6.84863 28.1787 8.74707 36.0205 13.9883 46.7598c2.50684 5.12988 10.957 20.7061 28.667 20.7061c24.9219 0 33.123 -26.7207 38.6914 -49.1562c1.91211 -7.94727 3.86914 -15.8984 5.87109 -23.8516c0.923828 -3.84473 1.89941 -7.84082 1.89941 -11.9238z
M245.262 645.665c-12.1074 0 -18.1631 -13.2842 -24.3623 -37.9238c-4.60938 -18.9775 -4.62109 -19.0215 -6.28906 -25.2793c-0.628906 -2.58789 -1.07812 -4.63281 -1.07812 -6.30176c0 -1.52051 0.374023 -2.72949 1.32617 -3.75195v0v0
c0.0439453 -0.046875 0.0888672 -0.0927734 0.134766 -0.138672c0.265625 -0.265625 0.375 -0.427734 0.536133 -0.530273c0.0205078 -0.00683594 0.0390625 -0.0117188 0.0576172 -0.0117188l-0.00585937 -0.0175781
c0.103516 -0.0537109 0.231445 -0.0888672 0.428711 -0.114258c0 0.00878906 0.000976563 0.0175781 0.000976563 0.0263672c0.0136719 0 0.0273438 -0.00390625 0.0400391 -0.00390625c0 -0.00878906 -0.00195312 -0.0185547 -0.00195312 -0.0273438
c0.407227 -0.0488281 1.08984 -0.0654297 2.37598 -0.121094c54.8125 0.0234375 55.5889 0.0517578 56.7646 0.207031c0.619141 0.276367 2.30762 1.83789 2.30762 4.72168c0 2.15039 -7.81934 34.2559 -10.9717 44.5361c-7.04785 22.7256 -15.2383 24.3516 -19.583 24.6523
h-0.0185547c-0.569336 0.0507812 -1.12305 0.078125 -1.66211 0.078125zM213.61 577.919l0.0214844 0.212891l-2.77832 0.213867zM214.858 572.409v-0.000976563l0.000976562 0.000976563h-0.000976562zM214.858 572.409v0v0zM348.481 97.6934l-82.2217 148.848
l24.0225 10.1475l58.4395 -100.383l53.3027 101.418l27.2285 -11.0254zM265.568 -67.707v34.6641h38.626v22.0713h-38.626v34.6641h38.626v33.7148h31.3828v-33.7148h23.2197v31.2539h31.3828v-31.2539h41.292v-34.6641h-41.292v-22.0713h41.292v-34.6641h-41.292v-36.1855
h-31.3828v36.1855h-23.2197v-33.7246h-31.3828v33.7246h-38.626zM335.577 -33.043h23.2197v22.0713h-23.2197v-22.0713zM780.659 223.904c-0.529297 0 -0.985352 0.173828 -1.32227 0.358398l-214.094 -88.2627v-37.8242c12.126 5.10742 24.251 10.2148 36.376 15.3213
v-3.77051l-0.21875 -161.659h318.305l0.646484 155.446c10.9619 -6.48535 21.9238 -12.9697 32.8867 -19.4551l-0.677734 40.7051l-136.33 79.1182l1.46387 0.616211c-22.6963 11.7715 -24.457 12.7314 -36.2109 19.5508
c-0.288086 -0.102539 -0.56543 -0.144531 -0.824219 -0.144531zM884.594 -16.7148h-248.003l-0.665039 144.662l142.009 59.8174l107.859 -63.8086zM63.3545 -23.4795h55.5146l17.1611 52.2256l17.1602 -52.2256h55.5156l-44.8672 -32.2959l17.1611 -52.2246
l-44.9697 32.2959l-44.9707 -32.2959l17.1611 52.2246z" />
  </g>

</svg>
