<?xml version="1.0" standalone="no"?>
<!DOCTYPE svg PUBLIC "-//W3C//DTD SVG 1.1//EN" "http://www.w3.org/Graphics/SVG/1.1/DTD/svg11.dtd" >
<svg xmlns="http://www.w3.org/2000/svg" xmlns:xlink="http://www.w3.org/1999/xlink" version="1.1" viewBox="-10 0 1051 1000">
  <g transform="matrix(1 0 0 -1 0 800)">
   <path fill="currentColor"
d="M828.399 483.872c0 9.49878 0.360099 25.4826 0.360099 28.905l-0.318652 61.3747l-8.69455 54.78l-24.0577 41.7601l-29.8355 19.1251l-33.9409 8.02542l-47.9505 1.85133v0.765382l-107.704 8.96128l-161.614 -4.8437l-135.511 -48.0118l4.97421 -24.8711
l90.1513 34.2037l168.519 13.9909l163.859 -8.05849l72.0585 -32.0852l24.6852 -76.5829c-11.2968 -92.7231 -11.5388 -94.7093 -10.6225 -98.1968c0.272553 -1.03738 0.408327 -1.98777 0.495372 -2.92219c0.487753 -0.641757 1.13403 -1.58506 1.4862 -2.05622
l30.4464 -40.7334l38.0432 -60.0682l23.93 -33.502l-96.7113 -80.2498l-3.19974 -219.288c0.962733 -7.56244 2.78458 -22.0112 5.01798 -45.877c-0.12894 -0.269919 -9.65147 -20.9678 -12.8349 -27.02c-1.80565 -3.43278 -3.36365 -6.39475 -8.94453 -11.1259
c-28.726 -6.87192 -37.6748 -9.01268 -53.7943 -9.01268c-3.38415 0 -6.77838 0.14333 -10.1737 0.446144l-127.95 -3.2205l-189.706 31.9736l-119.91 72.0259l-21.8729 31.5454c-0.18608 0.126152 -14.9542 10.3475 -18.5829 12.6523v-31.4635
c5.41685 -3.87145 13.5068 -7.36272 24.4398 -17.2503c7.32645 -6.62591 2.09556 -4.45645 10.6241 -11.9264c1.03002 -0.902171 1.03002 -0.902171 17.2005 -21.8062l70.2643 -41.1391l123.979 -35.7692l40.8353 -3.74581
c52.8258 -4.90757 59.0669 -6.73248 83.0467 -7.42728l68.08 -1.97257l89.7606 0.254271l51.1066 12.4914l15.1376 25.2075l6.27671 34.16l-0.268638 82.9487l0.0291888 84.2282l-0.00582149 87.5189l84.7837 67.8016l7.68593 8.96692l1.11464 7.19504
c0.44913 7.61262 -1.52476 12.8022 -3.31214 18.1783l-23.3304 38.8443l-33.0243 43.448l-34.3179 48.9016c-0.202711 16.1296 -0.202711 16.1296 -0.202711 17.6951zM33.2949 712.521h55.5146l17.1611 52.2256l17.1602 -52.2256h55.5156l-44.8672 -32.2959
l17.1611 -52.2246l-44.9697 32.2959l-44.9707 -32.2959l17.1611 52.2246zM506.334 109.376c3.48438 -5.90527 2.28906 -12.0879 -1.51562 -15.8926c-8.10449 -8.10547 -24.3154 -5.23828 -23.2969 9.90234c0.12793 1.88477 0.482422 3.97656 1.65234 5.90918
c0.388672 2.22461 0.288086 14.3369 -0.107422 35.001c-19.2188 -2.61426 -22.6377 0.255859 -24.5146 2.13184c-4.36914 4.37012 -4.45215 14.7734 0.165039 19.3906c3.26074 3.26074 8.72461 3.43848 13.5635 -2.15527
c0.991211 -0.991211 8.14062 -3.01855 9.28027 0.241211c1.58789 169.821 1.58789 169.821 1.6377 170.329c0.03125 0.325195 3.40625 27.1182 7.93262 31.6445c2.14844 2.14844 5.47754 1.98633 7.38477 0.0791016c1.65625 -1.65625 2.23438 -3.72559 7.83496 -25.25
v-0.207031c0.758789 -142.359 0.94043 -176.402 1.79102 -177.253c0.324219 -0.324219 1.1875 -0.916992 4.32129 -0.964844c6.1123 -0.0908203 5.50098 3.97363 10.5781 5.62598c4.22363 1.37402 11.1104 -1.13477 11.4082 -10.8516
c0.0605469 -1.93945 0.0166016 -7.59375 -4.09863 -11.3184c-1.19238 -1.0791 -4.54297 -3.94434 -23.873 -1.45215c0.420898 -12.1055 0.490234 -16.1699 -0.503906 -26.8174c-0.521484 -5.58789 -0.477539 -6.67188 0.360352 -8.09277v0zM494.961 109.413
c-0.353516 -5.7002 -4.45117 -6.38477 -2.25586 -8.58008c1.05273 -1.05371 2.9541 -1.28418 4.08105 -0.15625c2.08789 2.08789 -1.07812 2.80078 -1.8252 8.73633v0zM523.147 154.339c-0.0361328 -0.0244141 -0.229492 -0.0478516 -0.263672 -0.0703125
c0.100586 0.0214844 0.189453 0.0458984 0.263672 0.0703125zM489.491 155.961c0.97168 -0.296875 3.05371 -1.25 3.81836 -4.43164c1.25098 -5.2041 -0.0400391 -26.0088 1.5 -38.7705c0.114258 5.72266 1.75391 13.2949 1.1123 27.0137
c-0.484375 10.3584 -0.598633 12.7979 1.375 14.7705c0.759766 0.759766 1.64355 1.14648 2.63867 1.30273c-1.13965 1.19531 -2.07129 2.75488 -2.37793 4.69629c-0.624023 3.95312 -1.00586 6.48438 -1.53418 110.778c0 0.674805 -0.000976562 55.209 -1.14941 67.499
c-1.80176 -13.8037 -1.86523 -35.5791 -1.87402 -94.9521c-0.00488281 -34.6299 -0.106445 -46.5957 -0.350586 -68.4727c-0.0908203 -8.21484 -0.0634766 -12.5049 -0.703125 -14.8115c-0.329102 -1.18262 -1.01367 -2.93555 -2.45508 -4.62207v0zM466.305 154.371
c0.00976562 -0.0488281 0.0185547 -0.0917969 0.0263672 -0.129883c-0.0078125 0.00683594 -0.0166016 0.123047 -0.0263672 0.129883zM492 399c-85.1699 0 -154.479 29.8809 -154.479 66.6201c0 36.7393 69.3086 66.6201 154.479 66.6201
c85.1689 0 154.479 -29.8809 154.479 -66.6201c0 -36.7393 -69.3096 -66.6201 -154.479 -66.6201zM492 524.962c-79.5049 0.280273 -144.181 -26.4512 -144.181 -59.3418s64.6758 -59.6221 144.181 -59.6221c79.5039 0 144.18 26.7314 144.18 59.6221
s-64.6758 59.6221 -144.18 59.6221v-0.280273z" />
  </g>

</svg>
