<?xml version="1.0" standalone="no"?>
<!DOCTYPE svg PUBLIC "-//W3C//DTD SVG 1.1//EN" "http://www.w3.org/Graphics/SVG/1.1/DTD/svg11.dtd" >
<svg xmlns="http://www.w3.org/2000/svg" xmlns:xlink="http://www.w3.org/1999/xlink" version="1.1" viewBox="-10 0 1051 1000">
  <g transform="matrix(1 0 0 -1 0 800)">
   <path fill="currentColor"
d="M30.3242 741.553h55.5146l17.1611 52.2256l17.1602 -52.2256h55.5156l-44.8672 -32.2959l17.1611 -52.2246l-44.9697 32.2959l-44.9707 -32.2959l17.1611 52.2246zM271 608l-12 60c128.725 89.7881 355.203 55.3633 442.457 48.5605
c0 -0.0107422 0.000976562 -0.0214844 0.000976562 -0.0322266c27.4463 0.582031 75.1855 -1.32129 107.268 -33.4033c40.1396 -40.1396 38.6152 -108.841 37.5254 -169.365c-0.395508 -21.9258 -0.433594 -33.2402 -0.22168 -41.9463
c26.3789 -43.8281 72.168 -89.959 89.3252 -129.607c6.95117 -16.0635 5.49219 -24.7637 2.64551 -40.2051l-12 -14l-79.501 -63.5771v-212.431c1.93945 -31.0869 1.82422 -79.2412 -27.416 -108.48c-26.0322 -26.0322 -182.507 -12.0195 -220.584 -13.0049
l-2.90137 0.0126953c-103.732 -7.2998 -296.108 50.6025 -326.603 92.1719c-18.5059 25.2275 -31.4014 41.2529 -57.9951 55.3086v70.0371c25.8174 -16.2627 49.624 -17.8066 70.1904 -60.6357c44.2188 -92.082 349.455 -105.734 451.309 -108.438l-0.499023 -0.962891
c50 12 34.1514 4.48145 42.5352 13.5361c19.1768 20.7119 3.97852 41.9688 5.50781 57.9648h-0.541992v2.14941c-0.253906 0.990234 -0.500977 1.94141 -0.738281 2.84863h0.738281v207.174v3.4873v1.33887h1.58203l104 88h1.13281
c4.9834 45.8955 -62.8379 92.1289 -94.2158 139.501l-3 4l-1 1c-2.02051 3.99219 0.0439453 4.02539 -2.08398 11.5605c-0.0371094 0.130859 -0.189453 0.24707 -0.174805 0.367188l0.258789 2.07227l0.0644531 1.49902
c0.00976562 0.226562 0.150391 3.89551 0.242188 6.24414c3.11426 79.1523 5.19727 173.389 -83.8154 173.771c-136.35 16.7461 -373.536 9.53418 -431.49 -46.5137zM521.159 258.65l-0.00195313 -0.0664062
c0.000976563 0.0214844 0.00195313 0.0449219 0.00195313 0.0664062zM509.471 295.789l0.0166016 -0.0195312c-0.00585938 0.00585938 -0.0166016 0.0195312 -0.0166016 0.0195312zM493.186 294.291l0.0166016 0.0253906
c-0.00292969 -0.00390625 -0.00488281 -0.0078125 -0.0166016 -0.0253906zM482.655 259.875l0.00488281 0.0302734c-0.000976562 -0.0107422 -0.00488281 -0.0205078 -0.00488281 -0.0302734zM483.636 255.91l-0.0214844 0.0244141
c0.0078125 -0.0078125 0.0146484 -0.015625 0.0214844 -0.0244141zM484.505 255.252l-0.107422 0.0322266c0.0351562 -0.0117188 0.0712891 -0.0224609 0.107422 -0.0322266zM485.038 255.152l-0.0234375 0.00195312
c0.00488281 0 0.00878906 -0.00195312 0.0234375 -0.00195312zM502.771 299.417c-8.86133 0.802734 -12.5039 -8.75293 -15.9326 -22.3779c-2.63672 -10.8604 -2.63672 -10.8604 -3.59277 -14.4414l0.00585938 0.0205078
c-0.00195312 -0.00683594 -0.00585938 -0.0205078 -0.00585938 -0.0205078c-0.672852 -2.77344 -1.23145 -5.06836 0.480469 -6.78027c0.62793 -0.628906 0.859375 -0.671875 2.64746 -0.75c31.7354 0.0146484 31.7354 0.0146484 32.6143 0.130859
c0.758789 0.0947266 2.66797 1.86035 2.03418 4.86914c-0.0488281 0.249023 -3.94238 17.2451 -6.18652 24.5605c-3.9375 12.6982 -8.62891 14.5518 -12.0645 14.7891zM518.229 248.394c-2.4668 -0.0507812 -31.6436 -0.0498047 -31.9639 -0.0390625
c-1.92773 0.0625 -4.60938 0.148438 -6.90332 2.68848c-0.669922 0.742188 -3.78418 4.53809 -2.79297 9.9668c0.365234 2.00098 0.856445 4.0166 1.77246 7.37109c3.92285 16.1367 4.98633 20.5107 7.92383 26.5312c2.40234 4.91699 7.70312 12.3213 17.5205 11.1465
c11.6475 -1.29004 15.9883 -14.666 19.0996 -27.1992c1.09375 -4.54492 2.20996 -9.08105 3.35547 -13.6289c1.00293 -4.17969 1.97363 -8.22363 -0.511719 -12.3359c-1.23633 -2.0459 -3.55664 -4.54395 -7.5 -4.50098zM585.799 199.77l-0.00195312 -0.0654297
c0.000976562 0.0224609 0.00195312 0.0439453 0.00195312 0.0654297zM574.11 236.908l0.0166016 -0.0185547c-0.00585938 0.00585937 -0.0166016 0.0185547 -0.0166016 0.0185547zM557.825 235.41l0.0175781 0.0263672
c-0.00292969 -0.00390625 -0.00585938 -0.00878906 -0.0175781 -0.0263672zM547.296 200.994l0.00488281 0.0302734c-0.000976562 -0.00976562 -0.00488281 -0.0205078 -0.00488281 -0.0302734zM548.276 197.031l-0.0224609 0.0234375
c0.0078125 -0.0078125 0.0146484 -0.015625 0.0224609 -0.0234375zM549.145 196.371l-0.107422 0.0322266c0.0361328 -0.0107422 0.0712891 -0.0214844 0.107422 -0.0322266zM549.679 196.272l-0.0234375 0.00195312
c0.00390625 0 0.0078125 -0.00195312 0.0234375 -0.00195312zM567.411 240.537c-8.86133 0.802734 -12.5039 -8.75293 -15.9316 -22.3779c-2.6377 -10.8604 -2.6377 -10.8604 -3.59277 -14.4414l0.00488281 0.0205078
c-0.00195312 -0.00683594 -0.00488281 -0.0205078 -0.00488281 -0.0205078c-0.673828 -2.77246 -1.23145 -5.06934 0.479492 -6.78027c0.628906 -0.628906 0.859375 -0.671875 2.64746 -0.75c31.7354 0.0136719 31.7354 0.0136719 32.6143 0.129883
c0.758789 0.0947266 2.66797 1.86133 2.03516 4.87012c-0.0498047 0.249023 -3.94336 17.2461 -6.1875 24.5596c-3.9375 12.6982 -8.62891 14.5518 -12.0645 14.79zM582.868 189.514c-2.46582 -0.0507812 -31.6426 -0.0488281 -31.9629 -0.0390625
c-1.92871 0.0615234 -4.61035 0.148438 -6.9043 2.68945c-0.669922 0.742188 -3.78418 4.53711 -2.79297 9.96582c0.365234 2.00098 0.857422 4.0166 1.77246 7.37109c3.92285 16.1367 4.98633 20.5107 7.92383 26.5312c2.40332 4.91699 7.7041 12.3203 17.5205 11.1475
c11.6475 -1.29199 15.9893 -14.667 19.1006 -27.2002c1.09277 -4.54492 2.20898 -9.08105 3.35449 -13.6289c1.00293 -4.17969 1.97461 -8.22461 -0.510742 -12.3359c-1.2373 -2.0459 -3.55664 -4.54492 -7.50098 -4.50098zM564.507 279.789
c0.511719 0 17.5039 19.8047 17.8945 19.4141l4.375 -4.18555c0.387695 -0.37207 0.584961 -0.902344 0.584961 -1.41406c0 -0.452148 0.6875 1.56445 0.369141 1.20801c-51.7295 -58.0078 -97.7129 -110.023 -105.649 -119.742
c-0.348633 -0.427734 -1.72754 -3.06543 -2.24023 -3.06543c-0.511719 0 -1.02344 0.195312 -1.41406 0.584961l-3.36035 3.36035c-0.389648 0.390625 -0.584961 0.902344 -0.584961 1.41406c0 0.452148 0.135742 0.917969 0.456055 1.27246
c57.5439 63.6074 71.3564 78.9141 81.2236 91.7676c0.335938 0.4375 7.83398 9.38574 8.3457 9.38574zM473.222 64.3477c-1.13574 0 -2.0498 0.921875 -2.0498 2.04785l1.96387 56.5488c-5.71094 6.83691 -11.5703 13.2373 -17.3389 19.5391
c-25.4375 27.7822 -49.2422 53.8438 -49.3252 106.412c-0.0683594 43.8115 15.8672 66.2217 24.793 75.2998c28.207 27.5752 65.4463 34.5068 84.7998 34.5068c1.76074 0 3.9873 1.49219 6.30566 1.38379c57.2051 -2.69141 69.4131 -7.21484 98.5596 -32.5664
c3.7627 -3.27246 4.85645 -5.94141 5.3457 -8.45996c0.0888672 -0.454102 0.138672 -0.630859 0.15625 -0.6875c13.3545 -15.4111 22.7246 -55.9111 23.4512 -67.6904c0.0498047 -0.798828 0.168945 -1.72461 0.306641 -2.77539
c0.390625 -2.96484 0.907227 -6.88379 0.0439453 -11.8164c-11.8848 -67.8721 -44.1816 -87.4053 -47.9785 -98.0469c-0.208008 -0.580078 -0.400391 -0.675781 -0.481445 -0.757812c-0.90625 -0.905273 -8.75293 -4.90625 -15.0557 -7.87109
c-0.792969 -2.25391 -0.792969 -2.25391 -1.19434 -2.67188c-0.18457 -0.713867 -0.354492 -1.97656 -0.352539 -1.97656l-1.1709 -57.7656c-0.0234375 -1.11035 -0.924805 -2 -2.03613 -2.00586zM626.344 318.463l-0.133789 0.117188l-1.23828 -1.61719zM620.594 325.766
l-1.35449 0.55957l-1.35742 -3.39941zM532.021 344.435c-32.8438 0 -54.2598 -5.79785 -81.5654 -26.0449c-7.20215 -7.2002 -27.2441 -28.8115 -27.3389 -66.3037c-0.125 -49.3525 21.3838 -72.5889 32.9385 -84.1416c5.75684 -5.75781 5.75684 -5.75781 6.70996 -7.18164
c1.88574 -2.81738 1.88574 -2.81738 14.1182 -16.0781c2.80957 -0.69043 7.10449 -2.46094 11.46 -6.98926c2.38281 -2.47461 1.41992 -11.667 0.980469 -15.8711l-0.391602 -47.8174l75.8809 -0.389648l3.56934 58.6875
c0.0322266 0.556641 0.290039 1.07422 0.719727 1.4375c2.52051 2.15039 2.58789 2.20703 3.89355 3.5127c1.28906 1.29102 5.03125 4.94434 8.32422 5.90332c1.19141 0.34668 2.85547 3.64551 6.31348 6.22949c16.5342 12.3613 41.0107 43.4756 44.0498 88.3223
c0.444336 6.56055 -0.568359 13.7188 -1.8623 21.3965c-2.74023 16.25 -6.75293 39.3438 -19.1094 53.7412c-1.91992 1.58105 -2.50293 2.10742 -11.3486 10.9512c-15.8203 15.8223 -42.0166 20.6357 -67.3418 20.6357zM590 451h-29.4854v81.9805
c0 24.0811 -7.56445 40.5205 -22.6943 49.3145c-12.7617 7.43457 -34.9404 11.1504 -66.5381 11.1504c-23.9795 0 -47.29 -1.46484 -69.9316 -4.39746l-2.46973 25.5996c23.3613 3.24512 49.1943 4.86914 77.4971 4.86914c38.9033 0 66.9492 -5.28809 84.1367 -15.8623
c19.6572 -11.9365 29.4854 -32.8232 29.4854 -62.6631v-89.9912zM430.22 451h-29.4873v93.917h29.4873v-93.917z" />
  </g>

</svg>
