<?xml version="1.0" standalone="no"?>
<!DOCTYPE svg PUBLIC "-//W3C//DTD SVG 1.1//EN" "http://www.w3.org/Graphics/SVG/1.1/DTD/svg11.dtd" >
<svg xmlns="http://www.w3.org/2000/svg" xmlns:xlink="http://www.w3.org/1999/xlink" version="1.1" viewBox="-10 0 1010 1000">
  <g transform="matrix(1 0 0 -1 0 800)">
   <path fill="currentColor"
d="M719.822 438.179c0 -7.31564 -5.91949 -35.0853 -28.8182 -35.0853c-0.146083 0 -0.292524 0.00113429 -0.439319 0.00340209c-0.0905301 -0.000228627 -7.11024 -0.145045 -7.11024 -0.145045c-17.957 0.0628056 -35.9365 0.0943688 -53.9158 0.0943688
c-17.7984 0 -35.5966 -0.0309314 -53.3725 -0.0931052c-7.50605 0.239304 -14.1596 0.495693 -21.4264 8.09612c-6.26122 6.93801 -9.37469 15.355 -9.37469 24.962c0 7.57827 2.80753 18.3541 6.76241 32.8305c0.0176487 0.0683871 8.4785 34.882 8.4785 34.882
c10.776 43.1114 25.4705 97.0769 71.3223 97.0769c42.8756 0 58.8278 -46.221 70.7627 -94.3056c15.223 -63.2869 16.7175 -64.508 16.8484 -65.1682c0.190802 -0.939317 0.282766 -1.99808 0.282766 -3.14807zM686.781 417.72c5.52917 0 17.2238 0 18.9201 17.1681
c0.00646703 0.243878 0.00970033 0.487168 0.00970033 0.729902c0 5.09019 -2.30926 14.1619 -7.02446 32.6851c-14.7321 60.5032 -21.6484 88.9077 -38.894 106.153c-8.51262 8.51262 -17.733 11.6288 -28.2989 11.6288c-33.5639 0 -46.7203 -39.1633 -57.9475 -83.8728
c-15.437 -63.5544 -15.437 -63.5544 -15.437 -66.3543c0 -6.06944 3.49429 -16.9458 13.0585 -17.8531c1.72956 -0.145946 3.42347 -0.252962 5.13138 -0.325639l109.744 0.0458759c0.245901 -0.00333962 0.491991 -0.00501089 0.738219 -0.00501089zM279.533 369.198
v71.1689l0.927734 0.413086c1.61914 0.219727 6.17871 2.61914 8.63867 5.91895c0.0429688 0.0595703 2.16797 3.80371 3.28711 6.56738h71.083l-0.279297 -2.65234c-1.72168 -16.3662 -10.3867 -37.3516 -20.7119 -50.168
c-3.24609 -4.02832 -1.9082 -2.99316 -3.92578 -5.01074c-1.51367 -1.5127 -3.0791 -2.53418 -4.24805 -3.30371l0.133789 -0.134766l-2.07324 -1.67871c-12.8027 -10.3662 -33.7939 -19.083 -50.1758 -20.8359zM363.606 462.266h-71.1523
c-0.300781 0.826172 0.206055 -1.15332 0 0.000976562c-0.513672 2.87207 -1.51465 4.25977 -4.85449 7.25098c-0.0390625 0.0341797 -1.66992 1.53711 -3.58594 3.71777c-1.09473 0.582031 -1.47852 0.786133 -4.48047 1.91211v71.1201l2.65625 -0.28418
c15.4434 -1.65332 34.9551 -9.5 47.8691 -19.0605c2.59668 -1.92383 2.50879 -1.11523 5.24023 -3.69922c0.859375 -0.8125 0.976562 -0.923828 1.38086 -1.07617c0.827148 -0.3125 1.3877 -0.524414 1.875 -1.47461c0.676758 -1.31836 0.697266 -0.575195 1.73047 -2.61914
c2.73438 -1.83594 2.97559 -2.33789 4.74805 -6.03516l-0.0498047 -0.0751953c10.3496 -14.5596 16.9297 -33.542 18.3447 -47.0254zM270.467 546.401v-71.168l-1.19434 -0.530273c-0.392578 -0.342773 -0.879883 -0.567383 -1.83301 -1.30371
c-0.841797 -0.649414 -0.0810547 0.492188 -1.67969 -1.43945l-1.67969 -1.67969c-0.239258 -0.239258 0.240234 0.239258 -1.2002 -0.960938c-2.87988 -2.63965 -2.16016 -1.91992 -2.69336 -2.5625c-0.318359 -0.383789 -0.477539 -1.38965 -1.14648 -2.47656
c-0.09375 -0.152344 -0.707031 0.177734 -1.12402 -1.94727h-71.3857l0.279297 2.65234c1.72168 16.3662 10.3867 37.3516 20.7119 50.168c1.41602 1.75781 0.638672 0.966797 2.31836 2.88672c0.670898 0.765625 0.959961 0.959961 1.14648 1.2793
c0.0419922 0.0722656 4.5498 3.58301 6.76953 5.50977c8.18652 5.69336 25.9961 18.7129 50.0547 21.2881zM275.002 555.6c-53.9854 0 -97.8018 -43.8135 -97.8018 -97.7998c0 -53.9883 43.8184 -97.7998 97.7998 -97.7998c53.9883 0 97.7998 43.8184 97.7998 97.7998
c-0.0742188 53.915 -43.8916 97.7256 -97.7979 97.7998zM186.398 453.267h71.1465c0.323242 -0.885742 -0.705078 -0.232422 1.25488 -4.10645c1.42969 -2.82617 5.05078 -5.96387 6.00293 -6.5293c0.173828 -0.102539 -0.775391 0.56543 -0.482422 0.529297
c0.494141 -0.0615234 1.07715 -0.897461 2.06641 -1.32129h0.473633c0.407227 -0.180664 0.407227 -0.180664 3.60645 -1.25977v-71.248l-2.6543 0.28125c-16.373 1.73828 -37.3604 10.4277 -50.1699 20.7734l-2.07812 1.67871l0.254883 0.254883
c-2.09473 2.62891 -2.21582 2.7793 -3.44727 3.69531c-0.862305 0.642578 -1.64746 1.27246 -2.87109 2.65234l-0.303711 -0.304688l-1.68164 2.07715c-10.3652 12.8037 -19.0801 33.791 -20.833 50.1709zM339.993 -162.333c-6.48633 0 -11.833 5.2793 -11.833 11.833
v240.084c0 6.50684 5.29688 11.833 11.877 11.833c0 0 65.7803 -0.266602 77.9971 -0.31543l52.0459 47.0879c3.43555 -26.9775 3.43555 -26.9775 4.76465 -51.5605l164.489 3.58496c6.35254 0 11.666 -5.28613 11.666 -11.8369v-67.377l47.4023 -55.1924
c-43.6182 2.40039 -43.6182 2.40039 -48.8213 3.14355l1.41992 -120.739c0 -6.43457 -5.30762 -11.752 -11.8779 -11.752zM619.486 -131.826l3.04492 98.2959c-5.18848 -0.797852 -10.376 -1.5957 -15.5645 -2.39453l-36.374 4.82227l48.7402 53.4541v46.2783
l-142.78 1.83496c-0.43457 -15.876 -0.43457 -15.876 -2.12695 -48.8555l-56.7363 47.8438l-57.8594 0.248047v-200.412zM50.3545 720.521h55.5146l17.1611 52.2256l17.1602 -52.2256h55.5156l-44.8672 -32.2959l17.1611 -52.2246l-44.9697 32.2959l-44.9707 -32.2959
l17.1611 52.2246zM462.776 722.092l49.4408 49.6289l9.02678 -8.19154l-49.0613 -51.999l53.5126 -51.6206l-10.7225 -9.37431l-53.2188 51.4131l-48.446 -51.7477l-8.3455 9.57696l47.6378 50.8413l-46.9179 51.2182l9.68674 9.72339z" />
  </g>

</svg>
