<?xml version="1.0" standalone="no"?>
<!DOCTYPE svg PUBLIC "-//W3C//DTD SVG 1.1//EN" "http://www.w3.org/Graphics/SVG/1.1/DTD/svg11.dtd" >
<svg xmlns="http://www.w3.org/2000/svg" xmlns:xlink="http://www.w3.org/1999/xlink" version="1.1" viewBox="-10 0 1036 1000">
  <g transform="matrix(1 0 0 -1 0 800)">
   <path fill="currentColor"
d="M45.5674 732.92l37.1855 54.043c2.29785 3.33789 7.27246 3.3457 9.66113 0.306641l45.2246 -57.542c2.1312 -2.71165 5.23242 -3.81738 2.36133 -5.72754c-0.647461 -0.430664 -5.17073 -3.71665 -5.89258 -3.8623l-7.70508 -1.55469
c-2.23438 -0.450195 -4.58496 0.498047 -5.90234 2.17188l-24.293 30.8799l1.17383 -123.925c0.0332031 -3.49219 -3.05469 -6.2207 -6.31641 -6.04785l-7.37012 0.388672c-3.27148 0.171875 -5.69727 3.08691 -5.68359 6.01953l0.578125 122.085l-19.7871 -28.708
c-1.95801 -2.83984 -6.04492 -3.42676 -8.72266 -1.25293c-0.408203 0.332031 -1.05078 1.10156 -1.0918 1.1582l-3.35059 4.66602c-1.54785 2.15625 -1.2666 5.16016 -0.0693359 6.90137zM523.617 733.096l-46.6787 46.0635l3.72754 3.67871l46.6787 -46.0635
l46.7959 46.1797l3.75879 -3.31934c-11.0908 -10.7754 -25.3271 -24.627 -47.2061 -46.166l47.9971 -47.3643c0.462891 -0.212891 0.926758 -0.425781 1.39062 -0.638672c-2.0918 -1.85156 -2.0918 -1.85156 -5.1084 -3.6543l-48.0049 47.9854
c-13.2129 -13.0479 -27.6934 -27.3877 -46.4424 -46.249l-3.75684 3.31738c0.959961 0.946289 46.3799 45.7686 46.8486 46.2305zM613.643 494.905c0.0341797 30.4287 35.7646 46.7021 55.1768 26.8164c5.24316 -5.37109 8.49707 -12.7871 8.50781 -20.9785
l0.00683594 -4.62891h-12.4775c-0.00195312 1.53809 -0.00488281 3.07617 -0.00683594 4.61426c-0.0146484 9.31738 -7.41895 16.9111 -16.5156 16.9268c-12.0986 0 -22.2139 -9.99902 -22.2139 -22.8262c0 -16.5547 13.124 -30.043 29.2891 -30.0762
c21.6982 0.0175781 38.333 18.3613 38.2031 39.2383c0 27.8691 -22.0879 50.5215 -49.29 50.5566l-4.50684 0.00683594v12.7822c1.50586 -0.00195312 3.0127 -0.00390625 4.51855 -0.00585938c33.9219 -0.0419922 61.7568 -28.2012 61.7568 -63.4111
c0 -28.667 -22.7061 -51.9287 -50.6875 -51.9502c-22.8877 0.0439453 -41.7607 19.0283 -41.7607 42.9355zM562.261 618.688h-126.341v-238.153h126.341v238.153zM422.182 631.456h154.495l-1.77637 -266.501l-152.127 -0.606445zM325.679 24.1934
c0 -1.48828 2.32324 -2.97559 4.64551 -2.97559l355.361 -0.992188c2.32227 0 4.64551 1.48828 4.64551 2.97559l-0.774414 97.2051c5.41895 -0.496094 10.8389 1.48828 17.0322 1.48828c24.7744 0.991211 24.7744 -0.496094 24.7744 -0.496094l-41.0322 31.2441
l-0.774414 52.0742c0 1.48828 -2.32324 2.97559 -4.64551 2.97559h-203.616l-2.32324 22.8135l-1.54785 8.43164l-51.0977 -29.2607h-1.54883h-94.4531c-2.32227 0 -4.64551 -1.48828 -4.64551 -2.97559v-182.508zM344.26 33.1201v164.653h82.0664l54.9688 -29.7559
c0.774414 9.91895 -0.774414 19.3418 0 29.7559l190.455 -0.495117v-44.1396l-45.6787 -31.7402l24.001 0.496094h23.2256l-1.54785 -89.7666z" />
  </g>

</svg>
