<?xml version="1.0" standalone="no"?>
<!DOCTYPE svg PUBLIC "-//W3C//DTD SVG 1.1//EN" "http://www.w3.org/Graphics/SVG/1.1/DTD/svg11.dtd" >
<svg xmlns="http://www.w3.org/2000/svg" xmlns:xlink="http://www.w3.org/1999/xlink" version="1.1" viewBox="-10 0 1770 1000">
  <g transform="matrix(1 0 0 -1 0 800)">
   <path fill="currentColor"
d="M348.481 97.6934l-82.2217 148.848l24.0225 10.1475l58.4395 -100.383l53.3027 101.418l27.2285 -11.0254zM265.568 -67.707v34.6641h38.626v22.0713h-38.626v34.6641h38.626v33.7148h31.3828v-33.7148h23.2197v31.2539h31.3828v-31.2539h41.292v-34.6641h-41.292
v-22.0713h41.292v-34.6641h-41.292v-36.1855h-31.3828v36.1855h-23.2197v-33.7246h-31.3828v33.7246h-38.626zM335.577 -33.043h23.2197v22.0713h-23.2197v-22.0713zM780.659 223.904c-0.529297 0 -0.985352 0.173828 -1.32227 0.358398l-214.094 -88.2627v-37.8242
c12.126 5.10742 24.251 10.2148 36.376 15.3213v-3.77051l-0.21875 -161.659h318.305l0.646484 155.446c10.9619 -6.48535 21.9238 -12.9697 32.8867 -19.4551l-0.677734 40.7051l-136.33 79.1182l1.46387 0.616211c-22.6963 11.7715 -24.457 12.7314 -36.2109 19.5508
c-0.288086 -0.102539 -0.56543 -0.144531 -0.824219 -0.144531zM884.594 -16.7148h-248.003l-0.665039 144.662l142.009 59.8174l107.859 -63.8086zM63.3545 -23.4795h55.5146l17.1611 52.2256l17.1602 -52.2256h55.5156l-44.8672 -32.2959l17.1611 -52.2246
l-44.9697 32.2959l-44.9707 -32.2959l17.1611 52.2246zM340.745 316.762c-5.56934 0 -10.124 4.53125 -10.124 10.124v180.062c0 5.58691 4.5459 10.125 10.1621 10.125c0 0 47.7236 -0.192383 58.0127 -0.234375l40.4502 36.5957
c0.956055 -7.52246 2.4707 -14.9668 2.88086 -22.5576l0.939453 -17.3682l122.187 2.66309c5.45215 0 9.99707 -4.52344 9.99707 -10.1289v-50.0684l37.1582 -43.2646c-35.8037 1.97852 -35.8037 1.97852 -38.2051 2.32129l1.04785 -89.1113
c0 -5.52441 -4.54785 -10.0635 -10.1631 -10.0635zM356.873 342.973l192.28 -0.826172l2.2002 71.0029l-10.3652 -1.59375l-29.8271 3.9541l37.8389 41.499v32.9912l-104.626 1.34375c-0.443359 -13.748 -0.443359 -13.748 -1.68555 -37.9551l-44.1299 37.2148
l-41.6855 0.178711v-147.81zM248 636.043v27.3242h201.736v71.8076h-201.736v27.3799l235.39 -1.31934l2.21973 -125.984zM555 783.498c92.082 0 167.03 -74.709 167.386 -166.776v-7.23145l-1.79199 -11.6553h-178.759v185.662h12.5928
c0.0126953 0 0.572266 0.000976563 0.572266 0.000976563zM566.399 622.387h130.857c-3.10449 71.4316 -59.7646 130.077 -130.663 136.074zM1727.68 -38.6133h-87.5596l-0.236328 48.1875l50.0869 19.7363l38.1367 -21.1055zM1629.67 -48.3975h108.445l0.226562 50.9395
c3.78418 -2.09375 7.56738 -4.1875 11.3506 -6.28125l-0.200195 11.2754l-48.2725 26.207l0.407227 0.161133c-6.00879 2.92285 -7.33789 3.60645 -10.9346 5.55469l-73.5391 -28.3564v-10.4863c4.19727 1.6543 8.39551 3.30859 12.5928 4.96191zM1556.5 -36.4062h-44.8799
l1.10645 104.384l-12.6885 -0.463867c-0.894531 -38.9258 -1.65332 -77.8506 -2.27832 -116.775l70.6787 0.59668v115.108l-11.9385 0.162109v-103.012zM1367.92 -58.9541h31.5225v11.582h-31.5225v26.4727h31.5225v11.582h-31.5225v22.6133h-11.4141v-22.6133h-33.1465
v20.9629h-11.4141v-20.9629h-33.6973v-11.582h33.6973v-26.4727h-33.6973v-11.582h33.6973v-24.2715h11.4141v24.2715h33.1465v-22.6201h11.4141v22.6201zM1284.14 126.528l55.9453 -84.8262l57.0117 84.8262l-7.3584 2.5498l-50.2246 -72.2705l-47.4609 72.2705z
M1323.36 -20.8994h33.1465v-26.4727h-33.1465v26.4727z" />
  </g>

</svg>
