<?xml version="1.0" standalone="no"?>
<!DOCTYPE svg PUBLIC "-//W3C//DTD SVG 1.1//EN" "http://www.w3.org/Graphics/SVG/1.1/DTD/svg11.dtd" >
<svg xmlns="http://www.w3.org/2000/svg" xmlns:xlink="http://www.w3.org/1999/xlink" version="1.1" viewBox="-10 0 1013 1000">
  <g transform="matrix(1 0 0 -1 0 800)">
   <path fill="currentColor"
d="M148.797 -142.906zM355.124 -137.553v263.013l80.8701 -0.34668l63.0254 -53.1484c1.23047 24.1914 1.23047 24.1914 2.20801 54.5l190.772 -2.45117v-66.4404l-54.499 -59.7695l32.7266 -4.33887c8.66699 1.33301 17.333 2.66699 26 4l-4.22754 -136.465z
M710.515 -166.119c4.71582 0 8.54785 3.82812 8.57422 8.39453l-1.86133 158.189c12.9092 -1.84375 12.9092 -1.84375 53.0537 -4.08301l-51.1943 59.6084v86.5381c0 4.71973 -3.81641 8.49805 -8.24219 8.54785l-211.617 -4.61133
c-2.01074 37.2061 -2.01074 37.2061 -4.71582 58.1729l-57.9854 -52.4619l-3.87793 0.015625s-96.001 0.388672 -96.042 0.388672c-4.71777 0 -8.57227 -3.83398 -8.57227 -8.54297v-300.105c0 -4.69922 3.84863 -8.54199 8.54199 -8.54199
c0 0 373.897 -1.50879 373.938 -1.50879zM43.9004 -63.3857h55.5146l17.1611 52.2256l17.1602 -52.2256h55.5156l-44.8672 -32.2959l17.1611 -52.2246l-44.9697 32.2959l-44.9707 -32.2959l17.1611 52.2246zM386 416l-111 199l15.3604 6.48926l96.9736 -162.592
l82.9014 176.512l20.7646 -8.40918zM759.399 222.6c-0.0615234 0 -0.163086 -0.000976563 -0.224609 -0.000976563c-18.3164 0 -43.7148 10.4912 -56.6924 23.417c-26.5 26.584 -31.333 68.25 -12.416 106.417c6.41602 12.917 14 25.5 21.333 37.667
c3.91699 6.41602 7.83301 12.916 11.5 19.416l26.5 46.417l1.25 2.41699c5.83301 11.416 7.33301 14.25 10.667 14.25h1.58301c2.83301 -1.16699 4.66699 -4.75 7.08301 -10.084c0.416992 -0.916016 0.75 -1.75 1 -2.08301l41.084 -72.083
c2.91602 -5.08398 6.08301 -10 9.25 -15c5.8877 -8.60352 14.0264 -23.3496 18.166 -32.917c1.00098 -2.44434 1.86133 -4.94434 2.58398 -7.5c1.96191 -6.58789 3.55469 -17.5127 3.55469 -24.3867c0 -39.1133 -31.1982 -76.7217 -69.6387 -83.9463
c-4.52246 -0.999023 -11.9521 -1.89453 -16.583 -2zM761.316 460.6c-1.25 -2.25 -2.5 -4.83398 -3.16699 -6.25l-1.5 -2.91699l-26.5 -46.25c-3.75 -6.58301 -7.66699 -13.083 -11.667 -19.583c-7.25 -12 -14.75 -24.417 -21 -37
c-17.333 -35.167 -13.166 -73.084 10.75 -96.667c11.7314 -11.6504 34.6719 -21.1055 51.2051 -21.1055c4.12695 0 10.7549 0.681641 14.7949 1.52246c34.9238 6.3623 63.2666 40.3369 63.2666 75.835c0 6.4209 -1.53809 16.6123 -3.43262 22.748
c-0.666992 2.33301 -1.44434 4.61133 -2.33398 6.83301c-3.98145 9.15039 -11.7842 23.2627 -17.416 31.5c-3.25 5.08398 -6.5 10.167 -9.5 15.334l-41.084 71.333c0 0.583008 -0.833008 1.58301 -1.33301 2.83301zM862.438 767.827l-79.8379 -90.2275l70.8379 -71.7725
l-15.4658 -12.8828l-70.9717 72.0557l-87.5625 -86.1729l-11.2334 12.2832l86.1953 84.6895l-77.9619 83.0273l13.7998 13.2002l79.1621 -79.4277l81.0713 85.5771z" />
  </g>

</svg>
