<?xml version="1.0" standalone="no"?>
<!DOCTYPE svg PUBLIC "-//W3C//DTD SVG 1.1//EN" "http://www.w3.org/Graphics/SVG/1.1/DTD/svg11.dtd" >
<svg xmlns="http://www.w3.org/2000/svg" xmlns:xlink="http://www.w3.org/1999/xlink" version="1.1" viewBox="-10 0 2612 1000">
  <g transform="matrix(1 0 0 -1 0 800)">
   <path fill="currentColor"
d="M232.481 97.6934l-82.2217 148.848l24.0225 10.1475l58.4395 -100.383l53.3027 101.418l27.2285 -11.0254zM149.568 -67.707v34.6641h38.626v22.0713h-38.626v34.6641h38.626v33.7148h31.3828v-33.7148h23.2197v31.2539h31.3828v-31.2539h41.292v-34.6641h-41.292
v-22.0713h41.292v-34.6641h-41.292v-36.1855h-31.3828v36.1855h-23.2197v-33.7246h-31.3828v33.7246h-38.626zM219.577 -33.043h23.2197v22.0713h-23.2197v-22.0713zM664.659 223.905c-0.528664 0 -0.985482 0.173609 -1.32195 0.35837l-214.093 -88.2633v-37.8236
l36.3751 15.3214v-3.77139l-0.218472 -161.658h318.305l0.646464 155.446l32.8863 -19.4552l-0.67749 40.7048l-136.33 79.1188l1.46379 0.61569c-22.6968 11.7717 -24.4573 12.7314 -36.2113 19.5513c-0.288261 -0.102785 -0.564955 -0.144581 -0.824352 -0.144581z
M768.594 -16.7153h-248.002l-0.665609 144.662l142.009 59.8176l107.859 -63.8083zM38.3242 728.225h55.5146l17.1611 52.2256l17.1602 -52.2256h55.5156l-44.8672 -32.2959l17.1611 -52.2246l-44.9697 32.2959l-44.9707 -32.2959l17.1611 52.2246zM842.056 412.71h-281.182
l0.198791 150.231l-32.7439 -13.7917v28.0148l170.355 80.5239l3.7201 -1.92919l0.202216 0.40228c8.14311 -4.7251 8.14311 -4.7251 169.03 -88.3922l0.511631 -30.6243l-29.5005 17.4522zM698.352 630.526l-111.718 -56.463l0.62015 -134.958h228.469l1.11215 130.469z
M275.399 650.25l85.5 -0.450195v0h4.0498l-4.94922 -273.6v-16.2002h-18.4502l-69.2998 0.450195v16.2002l69.2998 -0.450195l5.84961 259.2l-72 0.449219v14.4004zM1947.42 462.569c25.2783 -92.8135 93.2188 -167.094 216.771 -229.513l-7.78223 -18.8594
c-120.854 61.2334 -194.418 134.624 -224.524 224.323c-28.3506 -79.6338 -108.26 -179.268 -178.369 -222.396l-12.6396 19.0674c138.605 88.958 205.21 222.158 199.388 407.785l20.166 -0.444336c0.273438 -0.00585937 0.50293 -17.4141 0.50293 -24.0566
c0 -45.2012 -13.5117 -155.906 -13.5117 -155.906zM1771.38 544.521h373.5v-19.5h-373.5v19.5zM2222.41 602.521h368.969v-108.29h-12.25v96.04h-344.469v-98.7354h-12.25v110.985zM2502.45 647.502c-40.4629 3.2168 -101.309 23.1729 -135.818 44.542l5.52051 10.5908
c33.0947 -20.4912 91.4473 -39.6348 130.25 -42.7295zM1749.36 732.396l37.1855 54.043c2.29688 3.33887 7.27148 3.3457 9.66016 0.306641l45.2246 -57.542c2.13184 -2.71191 1.47852 -6.78809 -1.39062 -8.70117
c-0.647461 -0.431641 -1.41797 -0.742188 -2.13965 -0.887695l-7.70508 -1.55469c-2.23438 -0.451172 -4.58496 0.49707 -5.90234 2.1709l-24.293 30.8799l1.17285 -123.925c0.0332031 -3.49121 -3.05371 -6.21973 -6.31543 -6.04785l-7.37012 0.388672
c-3.27148 0.172852 -5.81543 4.55762 -5.68359 6.01953l8.57812 94.9746l-27.7881 -1.59668c-2.76367 -0.15918 -6.04004 -3.4209 -8.72168 -1.25195c-0.40918 0.331055 -1.05176 1.10156 -1.0918 1.15723l-3.35059 4.66504
c-1.54883 2.15625 -1.26758 5.16016 -0.0693359 6.90137zM2523.33 -25.4521h-125.086l-0.337891 68.8389l71.5527 28.1943l54.4805 -30.1504zM2383.31 -39.4297h154.923l0.323242 72.7705c5.40527 -2.99219 10.8096 -5.9834 16.2158 -8.97461l-0.287109 16.1084
l-68.9609 37.4385l0.582031 0.230469c-8.58496 4.1748 -10.4834 5.15234 -15.6211 7.93457l-105.056 -40.5088v-14.9795c5.99707 2.36328 11.9932 4.72559 17.9893 7.08887zM2278.79 -22.2998h-64.1143l1.58203 149.119l-18.127 -0.662109
c-1.27832 -55.6074 -2.3623 -111.215 -3.25488 -166.823l100.97 0.853516v164.441l-17.0557 0.231445v-147.16zM2009.41 -54.5107h45.0322v16.5459h-45.0322v37.8174h45.0322v16.5449h-45.0322v32.3057h-16.3057v-32.3057h-47.3516v29.9473h-16.3057v-29.9473h-48.1396
v-16.5449h48.1396v-37.8174h-48.1396v-16.5459h48.1396v-34.6738h16.3057v34.6738h47.3516v-32.3154h16.3057v32.3154zM1889.72 210.463l79.9229 -121.18l81.4443 121.181l-10.5117 3.64258l-71.749 -103.243l-67.8018 103.243zM1945.75 -0.147461h47.3516v-37.8174
h-47.3516v37.8174z" />
  </g>

</svg>
