<?xml version="1.0" standalone="no"?>
<!DOCTYPE svg PUBLIC "-//W3C//DTD SVG 1.1//EN" "http://www.w3.org/Graphics/SVG/1.1/DTD/svg11.dtd" >
<svg xmlns="http://www.w3.org/2000/svg" xmlns:xlink="http://www.w3.org/1999/xlink" version="1.1" viewBox="-10 0 826 1000">
  <g transform="matrix(1 0 0 -1 0 800)">
   <path fill="currentColor"
d="M150 137l-82.2217 148.848l24.0225 10.1475l58.4395 -100.383l53.3027 101.418l27.2285 -11.0254zM67.0869 -28.4004v34.6641h38.626v22.0713h-38.626v34.6641h38.626v33.7148h31.3828v-33.7148h23.2197v31.2539h31.3828v-31.2539h41.292v-34.6641h-41.292v-22.0713
h41.292v-34.6641h-41.292v-36.1855h-31.3828v36.1855h-23.2197v-33.7246h-31.3828v33.7246h-38.626zM137.096 6.26367h23.2197v22.0713h-23.2197v-22.0713zM394.621 -1.96973h313.313l0.654256 157.32l32.7941 -19.4007l-0.579589 34.8228l-139.452 80.931l1.17635 0.494788
c-17.9605 9.32523 -20.6009 10.7837 -31.0918 16.8219c-0.114972 0 -0.226346 0.00673145 -0.333333 0.00673145c-0.302392 0.018729 -0.574027 0.0496491 -0.818063 0.0892226l-211.823 -87.3272v-32.3836l36.3801 15.3235zM677.79 28.2481h-252.969l-0.684734 148.819
l144.706 60.9536l110.181 -65.182zM41.5039 743.016h42.7031l13.2012 40.1738l13.2002 -40.1738h42.7041l-34.5127 -24.8428l13.2002 -40.1729l-34.5918 24.8428l-34.5928 -24.8428l13.2012 40.1729zM372.22 702.401h101.014v-23.2197h-101.014v-207.181h-23.2187v207.181
h-101.014v23.2197h101.014v76.9033h23.2187v-76.9033zM567.855 420.141c0 -34.7139 36.29 -46.5293 61.7383 -46.5293c25.2832 0 61.7383 11.5938 61.7383 46.46v154.929h23.1914v-154.859c0 -41.7529 -35.7529 -69.7354 -86.3027 -69.7354
c-18.9463 0 -48.542 8.19141 -63.2002 22.8496c-11.4053 11.4053 -20.3564 29.3984 -20.3564 46.8379v154.907h23.1914v-154.859z" />
  </g>

</svg>
