<?xml version="1.0" standalone="no"?>
<!DOCTYPE svg PUBLIC "-//W3C//DTD SVG 1.1//EN" "http://www.w3.org/Graphics/SVG/1.1/DTD/svg11.dtd" >
<svg xmlns="http://www.w3.org/2000/svg" xmlns:xlink="http://www.w3.org/1999/xlink" version="1.1" viewBox="-10 0 1323 1000">
  <g transform="matrix(1 0 0 -1 0 800)">
   <path fill="currentColor"
d="M610.688 -26h313.312l0.654297 157.319c10.9316 -6.4668 21.8623 -12.9336 32.7939 -19.4004l-0.579102 34.8232l-139.452 80.9307l1.17578 0.495117c-17.96 9.3252 -20.6006 10.7832 -31.0918 16.8213c-0.115234 0 -0.226562 0.00683594 -0.333008 0.00683594
c-0.302734 0.0185547 -0.574219 0.0498047 -0.818359 0.0898438l-211.822 -87.3281v-32.3828c12.126 5.10742 24.2529 10.2158 36.3799 15.3232zM893.855 4.21777h-252.969l-0.68457 148.819l144.706 60.9531l110.182 -65.1816zM366.066 112.97l-82.2217 148.848
l24.0225 10.1475l58.4395 -100.383l53.3027 101.418l27.2285 -11.0254zM283.153 -52.4307v34.6641h38.626v22.0713h-38.626v34.6641h38.626v33.7148h31.3828v-33.7148h23.2197v31.2539h31.3828v-31.2539h41.292v-34.6641h-41.292v-22.0713h41.292v-34.6641h-41.292v-36.1855
h-31.3828v36.1855h-23.2197v-33.7246h-31.3828v33.7246h-38.626zM353.162 -17.7666h23.2197v22.0713h-23.2197v-22.0713zM332.831 500.782h313.313l0.654297 157.319c10.9307 -6.4668 21.8623 -12.9336 32.7939 -19.4004l-0.580078 34.8232l-139.452 80.9307
l1.17676 0.495117c-17.9609 9.3252 -20.6016 10.7832 -31.0918 16.8213c-0.115234 0 -0.226562 0.00683594 -0.333008 0.00683594c-0.302734 0.0185547 -0.574219 0.0498047 -0.818359 0.0898438l-211.823 -87.3281v-32.3828
c12.127 5.10742 24.2539 10.2158 36.3809 15.3232zM616 531h-252.969l-0.68457 148.819l144.706 60.9531l110.181 -65.1816zM41.5039 -66.9844h42.7031l13.2012 40.1738l13.2002 -40.1738h42.7041l-34.5127 -24.8428l13.2002 -40.1729l-34.5918 24.8428l-34.5928 -24.8428
l13.2012 40.1729zM895.801 735.418l24.0596 0.395508l336.739 0.80957v-22.2334l-125.6 -0.956055l-4 -89.4336l-204.399 93.0186l-7.60059 4.7998c-2.09375 0 -17.1055 13.5996 -19.1992 13.5996zM1002.33 601.055c0 -2.48047 0.396484 -15.1152 0.396484 -15.2676
c0 -2.42773 -0.0664063 -5.06055 -0.18457 -7.86328c1.60059 0.267578 3.28809 0.419922 5.0498 0.419922c5.31152 0 11.2891 -1.38672 17.5098 -5.20312c6.70898 4.23828 12.2656 5.21582 17.7002 5.32227c8.84961 0 17.5713 -4.35938 21.7695 -8.72852
c4.47266 -4.6543 8.5293 -12.6045 8.5293 -21.9023c0 -8.23242 -3.18457 -17.8477 -12.7861 -27.2236c-21.0566 -20.5615 -23.9189 -23.2236 -24.8926 -24.082c-2.87012 -2.72559 -6.54688 -4.09277 -10.2285 -4.09277c-3.73438 0 -7.47363 1.40625 -10.3867 4.22852
l-17.5391 16.9844c-0.93457 -12.1309 -0.959961 -17.1113 -0.959961 -17.6514c0 -3.19434 0.192383 -10.3506 0.805664 -12.499c0.583008 -0.466797 1.48047 -1.45117 1.59863 -3.16211c6.80566 -72.9004 73.0498 -143.047 84.0361 -151.702
c0.0292969 -0.00488281 1.32227 -0.348633 1.96875 -2.27051l4.13281 -2.30664l-21.7842 -14.5215c-2.68457 2.91406 -5.37012 5.83008 -8.05566 8.74414c-26.8398 29.0596 -56.4512 61.3066 -80.0752 133.885c-9.3623 -35.3926 -30.415 -71.5391 -49.6592 -95.9766
c-15.9434 -20.249 -15.5098 -26.6348 -33.7734 -46.9277l-22.2305 17.5996c10.0635 13.0469 14.25 18.6016 26.8867 36.043c4.87891 6.73633 9.39551 12.9707 14.2363 19.3281c54.6133 71.7402 59.4082 165.509 59.4082 219.25
c0 4.27148 -0.0205078 6.72949 -0.0742188 13.0938c6.98828 -0.154297 13.9766 -0.307617 20.9648 -0.461914c4.14453 -0.0878906 7.67773 -3.02051 7.67773 -8.91699c0 -0.384766 -0.0410156 -1.74219 -0.0410156 -4.13867zM1042.86 553.57
c-7.07617 0 -8.97461 -9.19727 -17.6309 -9.19727c-4.65625 0 -7.45312 2.79883 -8.83008 4.17383c-0.00097656 0.00195312 -5.12402 4.15625 -6.63086 4.6543c-1.06055 0.349609 -1.29883 0.363281 -2.07031 0.363281c0 0 -2.59473 -0.798828 -3.95703 -1.44531
c-0.201172 -0.517578 -0.526367 -1.63672 -1.46094 -4.85352l-0.0634766 0.592773c0.0107422 -0.166016 0.0302734 -0.364258 0.0634766 -0.592773c0.240234 -1.67383 1.22266 -4.91699 5.02539 -8.58594l17.9434 -17.3086l17.7666 17.1016
c2.21777 2.22461 5.3584 5.71875 5.3584 9.92188c0 0 -0.839844 2.49805 -1.41797 3.66211l0.474609 -0.267578c-0.09375 0.0683594 -0.259766 0.160156 -0.474609 0.267578c-1.06836 0.526367 -3.35742 1.39844 -4.0957 1.51367zM347.893 559.849z" />
  </g>

</svg>
