<?xml version="1.0" standalone="no"?>
<!DOCTYPE svg PUBLIC "-//W3C//DTD SVG 1.1//EN" "http://www.w3.org/Graphics/SVG/1.1/DTD/svg11.dtd" >
<svg xmlns="http://www.w3.org/2000/svg" xmlns:xlink="http://www.w3.org/1999/xlink" version="1.1" viewBox="-10 0 1010 1000">
  <g transform="matrix(1 0 0 -1 0 800)">
   <path fill="currentColor"
d="M78.3789 796.2l37.666 53.709c2.32715 3.31836 7.30176 3.28125 9.66309 0.220703l44.709 -57.9434c2.10645 -2.73047 1.41797 -6.80273 -1.46875 -8.68848c-0.651367 -0.425781 -1.4248 -0.729492 -2.14746 -0.869141l-7.71875 -1.48535
c-2.23828 -0.431641 -4.58105 0.538086 -5.88281 2.22363l-24.0166 31.0957l0.0673828 -123.931c0.00195312 -3.49219 -3.10938 -6.19238 -6.36914 -5.99121l-7.36719 0.454102c-3.26953 0.202148 -5.66992 3.13867 -5.62988 6.07031l1.66797 122.075l-20.043 -28.5293
c-1.98242 -2.82129 -6.0752 -3.37207 -8.73242 -1.1748c-0.40625 0.335938 -1.04199 1.11133 -1.08105 1.16797l-3.30859 4.69434c-1.5293 2.16992 -1.22168 5.1709 -0.0078125 6.90137zM910.072 769.672l52.5439 -39.2744
c3.24707 -2.42578 3.05859 -7.39746 -0.0722656 -9.66504l-59.2695 -42.9346c-2.79297 -2.02441 -6.84277 -1.21289 -8.63965 1.73047c-0.40625 0.663086 -0.686523 1.44531 -0.803711 2.17285l-1.25098 7.75977c-0.363281 2.25 0.675781 4.56152 2.40039 5.8125
l31.8076 23.0645l-123.875 3.68359c-3.49023 0.104492 -6.0957 3.2959 -5.7959 6.54785l0.676758 7.34961c0.300781 3.26172 3.30859 5.57129 6.23828 5.44336l121.968 -5.3623l-27.9092 20.8984c-2.75977 2.06641 -3.1875 6.1748 -0.90918 8.76367
c0.34668 0.396484 1.1416 1.00781 1.19922 1.0459l4.79297 3.16504c2.21484 1.46191 5.20508 1.06445 6.89844 -0.201172zM698.728 626.378l54.0625 -51.1777l-54.0625 -48.8643l2.61328 -160.365l-274.891 1.46973l-2.93945 30.8701h248.43v149.939l37.7295 26.9502
l-37.7295 31.8506l-2.94043 144.06h-233.729l2.93945 30.1621h260.518v-154.895zM530.33 687.9l0.708984 20.6895h102.219l0.952148 -19.709zM832.949 -3.97266h-125.086l-0.337891 68.8389l71.5527 28.1943l54.4805 -30.1504zM692.931 -17.9512h154.923l0.324219 72.7715
c5.40527 -2.99219 10.8096 -5.9834 16.2148 -8.97461l-0.286133 16.1084l-68.9609 37.4385l0.582031 0.230469c-8.58496 4.1748 -10.4834 5.15234 -15.6211 7.93457l-105.056 -40.5088v-14.9795c5.99707 2.36328 11.9932 4.72559 17.9893 7.08887zM588.414 -0.821289
h-64.1143l1.58105 149.12l-18.126 -0.663086c-1.27832 -55.6064 -2.3623 -111.214 -3.25586 -166.822l100.971 0.853516v164.441l-17.0557 0.231445v-147.161zM319.024 -57.0312h45.0322v16.5459h-45.0322v37.8174h45.0322v16.5449h-45.0322v32.3057h-16.3057v-32.3057
h-47.3516v29.9473h-16.3057v-29.9473h-48.1396v-16.5449h48.1396v-37.8174h-48.1396v-16.5459h48.1396v-34.6738h16.3057v34.6738h47.3516v-32.3154h16.3057v32.3154zM199.334 207.942l79.9219 -121.18l81.4453 121.18l-10.5117 3.64355l-71.749 -103.243l-67.8018 103.243z
M255.367 -2.66797h47.3516v-37.8174h-47.3516v37.8174zM457.044 501.123c0 -17.4258 7.63574 -33.7441 22.5312 -45.957c12.2686 -9.99023 36.2432 -18.084 53.5596 -18.084c3.88574 0 9.20508 0.512695 15.9336 1.55176c36.2861 5.59863 65.7422 34.6299 65.7422 64.8281
c0 5.31641 -1.49609 13.7178 -3.35156 18.8174c-4.0957 11.832 -18.5469 29.9639 -19.6338 31.2656c-5.17871 6.68262 -6.52539 8.43164 -8.73535 11.5811c-13.1709 18.9424 -26.3564 37.8721 -39.5176 56.8223c-2.73926 5.07031 -4.94336 8.27832 -7.55273 8.27832
c-2.29395 0 -2.60254 -0.0537109 -3.83789 -1.0625c-0.857422 -0.702148 -0.857422 -0.702148 -2.7168 -3.5498c-1.11719 -1.70996 -26.1201 -38.9414 -38.9492 -55.8281c-2.4375 -3.20605 -14.9736 -19.7578 -22.6699 -32.4229
c-7.24609 -11.9531 -10.8018 -24.3564 -10.8018 -36.2402zM533.383 443.324c-14.9072 0 -36.8018 6.79102 -48.8027 16.6006c-13.1328 10.7363 -19.8828 25.2676 -19.8828 40.9102c0 10.959 3.30957 22.4639 10.0342 33.6172c5.91309 9.73047 13.0068 19.3301 19.876 28.626
c6.08496 8.08105 6.12793 8.14258 36.0605 50.8477c1.46387 2.32617 2.92676 4.65234 4.39062 6.97754l41.2988 -58.6182c1.65723 -2.33301 3.13477 -4.37598 8.98242 -11.8506c5.55176 -6.64746 13.0596 -17.8193 16.7539 -24.8877v-0.0517578
c3.77637 -8.01367 5.17871 -17.123 5.17871 -22.3115c0 -29.7686 -31.7266 -59.8594 -73.8896 -59.8594zM524.321 493.321l-18.8721 17.6543l1.48535 1.39551l17.4756 -15.6357l30.5 38.1641l1.71582 -1.33496z" />
  </g>

</svg>
