<?xml version="1.0" standalone="no"?>
<!DOCTYPE svg PUBLIC "-//W3C//DTD SVG 1.1//EN" "http://www.w3.org/Graphics/SVG/1.1/DTD/svg11.dtd" >
<svg xmlns="http://www.w3.org/2000/svg" xmlns:xlink="http://www.w3.org/1999/xlink" version="1.1" viewBox="-10 0 990 1000">
  <g transform="matrix(1 0 0 -1 0 800)">
   <path fill="currentColor"
d="M53.5039 -14.9844h42.7031l13.2012 40.1738l13.2002 -40.1738h42.7041l-34.5127 -24.8428l13.2002 -40.1729l-34.5918 24.8428l-34.5928 -24.8428l13.2012 40.1729zM316.088 143.969l-82.2217 148.848l24.0225 10.1475l58.4395 -100.383l53.3027 101.418
l27.2285 -11.0254zM233.175 -21.4316v34.6641h38.626v22.0713h-38.626v34.6641h38.626v33.7148h31.3828v-33.7148h23.2197v31.2539h31.3828v-31.2539h41.292v-34.6641h-41.292v-22.0713h41.292v-34.6641h-41.292v-36.1855h-31.3828v36.1855h-23.2197v-33.7246h-31.3828
v33.7246h-38.626zM303.184 13.2324h23.2197v22.0713h-23.2197v-22.0713zM560.709 4.99902h313.312l0.654297 157.319c10.9316 -6.4668 21.8633 -12.9336 32.7939 -19.4004l-0.579102 34.8232l-139.452 80.9307l1.17578 0.495117
c-17.96 9.3252 -20.6006 10.7832 -31.0918 16.8213c-0.114258 0 -0.225586 0.00683594 -0.333008 0.00683594c-0.302734 0.0185547 -0.574219 0.0498047 -0.818359 0.0898438l-211.822 -87.3281v-32.3828c12.127 5.10742 24.2529 10.2158 36.3799 15.3232zM843.878 35.2168
h-252.969l-0.685547 148.819l144.706 60.9531l110.182 -65.1816zM623.249 377.391c0.357422 0.0146484 22.9482 0.00195312 22.9541 0.0136719c-6.95801 29.1855 -5.00293 38.583 -2.46484 46.7715c0.0234375 0.0742188 1.9873 6.86328 2.25488 7.39844l16.4111 32.8232
c-8.39941 130.199 -8.39941 130.199 -8.35254 130.759c2.75977 32.7568 5.16602 70.9658 2.35254 95.4404c-7.31445 29.0498 -25.4619 22.9199 -29.7012 13.6279c-1.49805 -3.2832 -3.18652 -3.66992 -7.54395 -4.66797
c-3.38672 -3.03027 -8.71387 -2.36719 -11.248 1.44824c-3.17578 4.7832 -17.8672 27.5342 -18.2539 28.29c-5.31348 10.4062 -25.8096 16.8076 -29.7266 -3.79199c-0.141602 -0.744141 -0.141602 -0.744141 -7.1377 -17.7969
c-2.60645 -6.35254 -11.7949 -6.08887 -14.0283 0.407227l-13.1602 38.2842c-3.51855 10.2344 -25.4688 18.4072 -37.0654 -0.974609c-0.213867 -0.637695 -1.7793 -5.38477 -10.2412 -31.9248c-1.83984 -5.76953 -9.5166 -7.08789 -13.165 -2.18555
c-10.8252 14.5449 -10.8252 14.5449 -11.0156 14.7363c-0.0712891 0.0722656 -12.3633 12.3428 -19.3271 5.37891c-3.81348 -3.81348 -5.96973 -13.123 -6.91992 -18.832c0.0273438 -0.855469 0.197266 -5.9082 1.13477 -30.4121
c0.558594 -15.2588 1.2373 -47.8682 1.25098 -48.3516c4.46387 -31.8115 2.39941 -32.8047 4.71973 -49.8242c0.169922 -0.655273 1.45605 -5.61523 8.14062 -30.918c0.0654297 -0.248047 0.675781 -14.4141 -1.26172 -17.708
c-4.76465 -8.09961 -5.0957 -8.66211 -8.23926 -9.38184c-12.4404 -2.85059 -16.377 -0.344727 -20.584 5.49219c-2.16309 3.00195 -16.8799 17.751 -18.3594 19.458l-30.8398 35.585c-0.833984 0.550781 -5.11328 3.35449 -17.9883 11.5107
c-0.75293 0.227539 -4.35645 1.30469 -15.2393 4.35156c-3.04199 -1.66992 -6.66895 -0.663086 -9.4209 -3.41406c-1.99609 -1.99707 -4.29883 -8.68457 -3.56641 -12.4717l17.0137 -22.8818c3.27832 -3.07227 20.6953 -18.2549 21.5488 -19.2861
c25.4248 -30.7471 25.4248 -30.7471 25.5479 -30.9131c18.4775 -25.0332 18.4775 -25.0332 18.6162 -25.251c16.6611 -26.1826 16.6611 -26.1826 16.8965 -26.7285l12.8682 -29.8311c3.55566 -5.51074 17.2988 -26.2471 17.667 -26.9463
c5.79004 -11.002 5.79004 -11.002 6.00781 -11.916c4.30859 -18.0547 34.8213 -18.9531 35.2217 -18.9609l33.375 -0.595703zM646.205 362.4h-22.4863c-101.159 -4.20215 -101.159 -4.20215 -101.384 -4.19824l-33.6152 0.600586
c-5.33789 0.100586 -41.7754 1.80469 -49.2754 29.4863l-4.77539 9.07227c-17.4756 26.5107 -17.1787 25.6328 -18.2354 28.084l-12.7295 29.5078l-15.8848 24.9619l-18.0488 24.4531l-24.7852 29.9736c-21.293 18.8584 -21.293 18.8584 -22.2285 20.1162l-17.3994 23.3994
c-6.20801 8.34766 -1.87402 24.6377 5.21973 31.7314c4.15918 4.16016 8.08203 5.43066 13.8965 6.50098c3.2168 1.4375 6.83691 1.68652 10.1934 0.74707c15.8311 -4.43262 16.1748 -4.19824 18.957 -5.96094c16.9873 -10.7588 18.2764 -11.165 20.709 -13.5977
c0.28418 -0.28418 -0.364258 -0.876953 31.5498 -36.3594c16.6279 -18.4873 17.2764 -17.8936 19.6641 -21.1299c0.394531 0.0361328 0.936523 0.102539 1.62012 0.213867l0.803711 1.36621l0.358398 8.9668c-7.99902 30.2666 -7.91016 29.4307 -8.18066 31.4062
c-2.5 18.1982 -0.301758 18.458 -4.79297 50.3486c-0.0693359 0.491211 -0.967773 39.4336 -1.33594 49.5156c-1.2002 31.332 -1.4873 30.0967 -1.01953 32.9951c1.46094 9.0498 4.82617 29.9062 22.4473 33.6221c14.6504 3.09082 28.8525 -10.6641 30.8008 -13.2822
l2.18164 -2.93164c5.85547 18.5771 5.66699 18.4531 7.04004 20.7871c18.1348 30.8447 56.6865 20.6885 64.3164 -1.50781l6.43848 -18.7295c8.98145 30.1807 45.1074 25.6865 56.6025 3.92773c0.134766 -0.207031 12.9131 -20.0605 13.3945 -20.8027
c12.6084 16.2969 44.5381 19.0449 54.7246 -21.4062c0.162109 -0.645508 0.28125 -1.29883 0.357422 -1.95703c3.07031 -26.7236 0.506836 -64.9395 -2.26074 -97.873l8.32715 -129.079c0.169922 -2.62305 -0.34668 -5.28223 -1.54785 -7.68457l-16.0479 -32.0957
c-0.461914 -1.78906 -1.00195 -3.5752 -1.71289 -5.87109c-1.99805 -6.44531 -4.10645 -10.1582 2.72949 -38.8232c2.24707 -9.42285 -4.89453 -18.4941 -14.5859 -18.4941zM558.719 444.567h-10.5547v16.7969l-74.1602 74.1592l7.50488 7.39941l66.6553 -66.6543v55.5957
l-44.5479 44.6055l7.50391 7.39844l37.0439 -37.0439v69.4092h10.5547v-70.5762l37.5 37.501l7.48047 -7.48047l-44.9805 -44.9805v-54.4287l66.6543 66.6543l7.50488 -7.39941l-74.1592 -74.1592v-16.7969z" />
  </g>

</svg>
