<?xml version="1.0" standalone="no"?>
<!DOCTYPE svg PUBLIC "-//W3C//DTD SVG 1.1//EN" "http://www.w3.org/Graphics/SVG/1.1/DTD/svg11.dtd" >
<svg xmlns="http://www.w3.org/2000/svg" xmlns:xlink="http://www.w3.org/1999/xlink" version="1.1" viewBox="-10 0 1053 1000">
  <g transform="matrix(1 0 0 -1 0 800)">
   <path fill="currentColor"
d="M657.757 537.133c0 0.105469 -0.269531 9.01758 -0.269531 10.4502c0 1.3418 0.0273438 2.77051 0.0273438 2.7998c0 4.18652 -2.34961 9.41406 -8.58789 9.54785c-6.36523 0.140625 -11.1562 0.246094 -11.2695 0.246094c-3.52246 0 -6.52148 -2.82031 -6.52148 -6.5791
c0.0166016 -1.81445 0.0253906 -3.70703 0.0253906 -5.67188c0 -37.2314 -3.54297 -100.053 -39.9082 -147.82c-3.58984 -4.7168 -17.7715 -24.4463 -26.2178 -35.3965c-0.902344 -1.16895 -1.35352 -2.57324 -1.35352 -3.97949
c0 -0.939453 0.225586 -2.97363 1.96582 -4.66992c0 0 1.20703 -1.00098 11.0117 -8.76172c1.17969 -0.935547 2.61328 -1.40332 4.04395 -1.40332c3.69238 0 6.15723 2.23535 15.7178 17.1406c3.0957 4.8252 6.44238 10.0586 10.4082 15.0947
c9.18555 11.666 18.9727 27.0605 26.3008 43.6143l5.24805 11.8525c16.7852 -39.4834 22.2305 -49.2627 55.6221 -85.5967c0.643555 -0.702148 2.24902 -2.10254 4.80566 -2.10254c3.20996 0 13.4531 7.73047 13.5645 7.83984
c0.945312 0.945312 1.46289 2.22949 1.46289 3.54688c0 0.0625 -0.285156 4.41504 -1.79297 6.04492c-13.0332 10.9531 -52.8096 56.5713 -57.0449 102.111c-0.416992 4.49414 -1.6123 -0.648438 -1.6123 8.5332c0 16.3125 4.37402 45.8125 4.37402 63.1592z
M149.014 669.916c0 -60.9238 49.4404 -110.125 110.082 -110.125c53.8418 0 100.163 40.9688 108.701 92.6045l0.769531 4.65625l234.864 2.16992l-0.256836 27.7061l-234.863 -2.1709c-2.23242 12.1094 -6.97852 37.8604 -31.5801 62.459
c-20.1992 20.2002 -47.9316 32.7822 -77.6582 32.7822c-60.6562 0 -110.059 -49.2734 -110.059 -110.082zM176.908 669.91c0 45.5391 37.0254 82.3828 82.3486 82.3828c36.5303 0 69.5732 -25.9697 79.4502 -60.6895l2.01953 -7.10059l-40.6943 -0.37793
c-2.67773 5.69238 -4.73145 10.0576 -10.3076 15.6348c-7.95508 7.9541 -18.9375 13.1553 -30.4648 13.1553c-23.5801 0 -42.9756 -19.1699 -42.9756 -43.0107c0 -25.4766 21.0693 -43.0264 42.9678 -43.0264c19.1523 0 33.7266 13.2314 39.5645 26.2568l1.47363 3.28711
l40.6826 0.375c-3.63281 -13.6172 -7.60059 -28.4922 -23.7676 -44.6602c-17.0381 -17.0371 -37.6309 -24.5654 -57.7168 -24.5654c-42.8477 0 -82.5801 34.04 -82.5801 82.3389zM348.481 97.6934l-82.2217 148.848l24.0225 10.1475l58.4395 -100.383l53.3027 101.418
l27.2285 -11.0254zM265.568 -67.707v34.6641h38.626v22.0713h-38.626v34.6641h38.626v33.7148h31.3828v-33.7148h23.2197v31.2539h31.3828v-31.2539h41.292v-34.6641h-41.292v-22.0713h41.292v-34.6641h-41.292v-36.1855h-31.3828v36.1855h-23.2197v-33.7246h-31.3828
v33.7246h-38.626zM335.577 -33.043h23.2197v22.0713h-23.2197v-22.0713zM780.659 223.904c-0.529297 0 -0.985352 0.173828 -1.32227 0.358398l-214.094 -88.2627v-37.8242c12.126 5.10742 24.251 10.2148 36.376 15.3213v-3.77051l-0.21875 -161.659h318.305
l0.646484 155.446c10.9619 -6.48535 21.9238 -12.9697 32.8867 -19.4551l-0.677734 40.7051l-136.33 79.1182l1.46387 0.616211c-22.6963 11.7715 -24.457 12.7314 -36.2109 19.5508c-0.288086 -0.102539 -0.56543 -0.144531 -0.824219 -0.144531zM884.594 -16.7148
h-248.003l-0.665039 144.662l142.009 59.8174l107.859 -63.8086zM63.3545 -23.4795h55.5146l17.1611 52.2256l17.1602 -52.2256h55.5156l-44.8672 -32.2959l17.1611 -52.2246l-44.9697 32.2959l-44.9707 -32.2959l17.1611 52.2246z" />
  </g>

</svg>
