<?xml version="1.0" standalone="no"?>
<!DOCTYPE svg PUBLIC "-//W3C//DTD SVG 1.1//EN" "http://www.w3.org/Graphics/SVG/1.1/DTD/svg11.dtd" >
<svg xmlns="http://www.w3.org/2000/svg" xmlns:xlink="http://www.w3.org/1999/xlink" version="1.1" viewBox="-10 0 1008 1000">
  <g transform="matrix(1 0 0 -1 0 800)">
   <path fill="currentColor"
d="M909 0h-323.297l0.216797 164.161c-12.123 -5.10645 -24.2471 -10.2129 -36.3701 -15.3193v43.2637l216.847 89.3984c0.620117 -0.28125 1.39551 -1.04395 1.56934 0.0556641c14.0449 -8.15234 14.0449 -8.15234 42.4219 -22.8662l-1.75293 -0.737305l133.207 -77.3066
l0.775391 -46.5869c-10.9932 6.50293 -21.9854 13.0059 -32.9785 19.5098zM625.885 40.2158h243.036l1.16699 136.753l-105.537 62.4346l-139.312 -58.6816zM34.3545 -40.4795h55.5146l17.1611 52.2256l17.1602 -52.2256h55.5156l-44.8672 -32.2959l17.1611 -52.2246
l-44.9697 32.2959l-44.9707 -32.2959l17.1611 52.2246zM335.287 152.125l-82.2217 148.848l24.0225 10.1475l58.4395 -100.383l53.3027 101.418l27.2285 -11.0254zM252.374 -13.2754v34.6641h38.626v22.0713h-38.626v34.6641h38.626v33.7148h31.3828v-33.7148h23.2197
v31.2539h31.3828v-31.2539h41.292v-34.6641h-41.292v-22.0713h41.292v-34.6641h-41.292v-36.1855h-31.3828v36.1855h-23.2197v-33.7246h-31.3828v33.7246h-38.626zM322.383 21.3887h23.2197v22.0713h-23.2197v-22.0713zM894.449 457.597h-323.297l0.216797 164.161
c-12.123 -5.10645 -24.2471 -10.2129 -36.3701 -15.3193v43.2637l216.847 89.3984c0.620117 -0.28125 1.39551 -1.04395 1.56934 0.0556641c14.0449 -8.15234 14.0449 -8.15234 42.4219 -22.8662l-1.75293 -0.737305l133.207 -77.3066l0.775391 -46.5869
c-10.9932 6.50293 -21.9854 13.0059 -32.9785 19.5098zM611.334 497.812h243.036l1.16699 136.753l-105.537 62.4346l-139.312 -58.6816zM269.372 444.398c-0.142578 -0.00195312 -0.375 -0.00195312 -0.518555 -0.00195312c-9.15137 0 -23.499 2.69824 -32.0264 6.02344
c-16.4316 6.48145 -35.9492 24.6777 -43.5635 40.6172c-13.1992 -14.373 -39.749 -26.0371 -59.2637 -26.0371c-2.25 0 -5.89355 0.183594 -8.13086 0.411133c-38.0303 4.5957 -68.8945 39.4141 -68.8945 77.7207c0 15.4004 7.90332 37.5811 17.6436 49.5098
c-9.47559 10.793 -17.167 31.207 -17.167 45.5693c0 6.87598 1.9502 17.6885 4.35352 24.1328c9.22754 23.6211 37.2969 43.0811 62.6543 43.4355c22.1592 -0.707031 48.5635 -17.1807 58.9395 -36.7734c11.6533 7.00293 32.1465 12.7432 45.7412 12.8135
c11.5273 25.29 45.1074 41.9717 72.9023 41.9717c1.55859 0 4.09277 -0.0117188 5.64062 -0.203125c29.6465 -3.66797 57.8291 -26.3428 64.9609 -55.3506c23.1992 -2.14062 50.8096 -20.624 61.6299 -41.2568c4.32031 -8.82812 7.82715 -23.9688 7.82715 -33.7988
c0 -13.6211 -6.43457 -33.667 -14.3623 -44.7432c-6.98633 -9.66309 -21.624 -21.1436 -32.6729 -25.625c-7.6582 -3.27441 -20.6318 -6.08691 -28.957 -6.2793c-3.63184 0.101562 -9.37207 1.13477 -12.8135 2.30566h-2.43359
c0.433594 -2.53906 0.786133 -6.69238 0.786133 -9.26953c0 -8.4873 -3.56641 -21.2676 -7.96191 -28.5283c-7.48145 -10.957 -23.6123 -23.7002 -36.0039 -28.4443c-10.1025 -4.45801 -27.2656 -8.13184 -38.3096 -8.19922zM194.546 508.462h1.40918
c2.82129 0 25.0723 -26.7705 26.0449 -29.4619c5.6875 -15.7451 3.52103 -10.2433 19.1846 -16.1504c7.53809 -2.84277 20.1924 -5.14844 28.248 -5.14844c9.41016 0 24.0186 3.10938 32.6133 6.94043c10.4043 4.20996 23.7793 15.2881 29.8525 24.7305
c3.38281 5.40234 6.12793 14.9648 6.12793 21.3408c0 4.11133 -1.19531 10.5664 -2.66797 14.4053l-1.66602 3.84473l2.81836 3.20312c4.6123 4.99609 19.8613 0 19.9883 0c2.54492 -0.874023 6.79297 -1.61816 9.48145 -1.66602h0.102539
c7.02832 0 18.0039 2.18164 24.498 4.86816c9.125 3.59863 21.2949 12.8984 27.1641 20.7578c6.71094 9.12402 12.1592 25.7236 12.1592 37.0508c0 33.6016 -27.2598 61.6035 -60.8477 62.5059c-3.75293 0.118164 -7.31152 3.21777 -7.94531 6.91797
c-5.04102 25.5664 -30.125 48.8691 -55.9912 52.0195c-1.35059 0.101562 -3.54492 0.18457 -4.89941 0.18457c-24.123 0 -51.1455 -18.1074 -60.3184 -40.417c-1.15723 -2.97461 -4.6875 -5.3877 -7.87891 -5.3877c-0.0888672 0 -0.232422 0.00292969 -0.320312 0.00585938
c-0.769531 0.0283203 -2.01855 0.0507812 -2.78711 0.0507812c-12.8223 0 -31.8945 -5.76172 -42.5713 -12.8633c-1.22363 -0.886719 -3.44629 -1.60547 -4.95801 -1.60547c-3.16309 0 -6.68262 2.38379 -7.85449 5.32129
c-7.81543 17.8594 -29.9707 32.8408 -49.457 33.4414c-20.2744 -0.398438 -43.2354 -15.8398 -51.251 -34.4658c-1.92773 -5.18652 -3.49316 -13.8867 -3.49316 -19.4189c0 -12.7354 7.30469 -30.3828 16.3057 -39.3926c1.32031 -1.3584 2.39258 -3.99902 2.39258 -5.89355
c0 -1.89551 -1.07227 -4.53613 -2.39258 -5.89355c-9.375 -10.333 -16.9834 -30.043 -16.9834 -43.9941c0 -32.2178 25.9775 -61.3574 57.9844 -65.043c1.89062 -0.193359 4.96777 -0.348633 6.86816 -0.348633c18.2158 0 42.1172 11.6357 53.3525 25.9736
c1.46289 1.79004 4.53027 3.24414 6.8418 3.24414c0.234375 0 0.612305 -0.0185547 0.845703 -0.0410156v0.384766zM77.0518 590.464v0zM77.0518 596.485v0zM373.925 664.778v0zM369.696 668.366v0zM228.756 679.001v0zM232.984 681.819v0z" />
  </g>

</svg>
