<?xml version="1.0" standalone="no"?>
<!DOCTYPE svg PUBLIC "-//W3C//DTD SVG 1.1//EN" "http://www.w3.org/Graphics/SVG/1.1/DTD/svg11.dtd" >
<svg xmlns="http://www.w3.org/2000/svg" xmlns:xlink="http://www.w3.org/1999/xlink" version="1.1" viewBox="-10 0 1116 1000">
  <g transform="matrix(1 0 0 -1 0 800)">
   <path fill="currentColor"
d="M409.106 285.748h273.164v-89.1855h-273.164v89.1855zM673.202 201.608l0.270508 79.0918h-56.3184v-46.2832h-9.06934v46.2832h-59.1309v-46.2832h-9.06934v46.2832h-59.1309v-46.2832h-9.06934v46.2832h-53.5088v-79.0918h255.026zM536.412 294.572l-64.9922 55.0088
l12.3789 11.0029l52.2266 -41.3408l92.8447 101.351l13.9277 -8.33496zM549.107 9.52246c-0.0996094 0 -0.258789 -0.00195312 -0.358398 -0.00195312c-7.23047 0 -17.2227 3.99316 -22.3027 8.91211l-214.328 198.441c-2.83594 2.25098 -7.20117 6.15234 -9.74316 8.70508
c-4.44727 4.25391 -10.7998 11.543 -19.6963 22.2744c-7.30664 8.73926 -18.123 23.6162 -24.1436 33.21c-6.63281 10.957 -15.2666 29.6455 -19.2715 41.7129c-4.32812 12.8027 -7.83984 34.1143 -7.83984 47.5703c0 0.283203 0.00195312 0.743164 0.00292969 1.02734
c-0.146484 2.50293 -0.266602 6.57129 -0.266602 9.0791c0 35.54 20.709 85.3564 46.2246 111.199c27.8135 24.1436 80.876 43.7383 118.443 43.7383c2.38281 0 6.24902 -0.0908203 8.62891 -0.202148c13.2686 -0.0654297 34.2383 -3.41992 46.8047 -7.49121
c12.8018 -4.09277 32.3467 -13.1641 43.6279 -20.25c12.9199 -8.10059 24.1436 -15.7949 33.6748 -23.084c9.53027 -7.28906 13.1299 -10.5293 19.4844 -16.1982c6.35254 5.66895 12.707 10.9336 19.4854 16.1982c6.77637 5.26465 21.1768 14.9834 33.6738 23.084
c11.2793 7.08887 30.8232 16.1602 43.627 20.25c12.8115 4.39062 34.2539 8.11133 47.8643 8.30176c2.37988 0.111328 6.24609 0.202148 8.62891 0.202148c37.5664 0 92.333 -17.7607 118.443 -43.7373c26.0918 -25.959 43.5967 -69.3916 43.5967 -105.395
c0 -2.44141 -0.251953 -6.39844 -0.251953 -8.83984c0 -51.0283 -23.0146 -110.839 -78.0781 -161.762l-213.481 -197.429c-5.01758 -5.16797 -15.0752 -9.43164 -22.4492 -9.5166zM405.517 515.749c-2.29004 0.117188 -6.01074 0.211914 -8.30469 0.211914
c-33.3291 0 -80.3701 -17.4209 -105.003 -38.8867c-22.0234 -22.5498 -39.8994 -65.8906 -39.8994 -96.7441c0 -2.47461 0.131836 -6.48633 0.295898 -8.95605c0.149414 -11.9473 3.56543 -30.8174 7.625 -42.1191c3.61035 -10.8926 11.3906 -27.7656 17.3652 -37.6621
c5.43066 -8.93164 15.2041 -22.8105 21.8145 -30.9814c8.47168 -10.125 14.6152 -17.0088 18.4268 -20.249c2.20898 -2.25391 6.00391 -5.70117 8.4707 -7.69434l215.176 -198.441c1.73242 -1.76953 5.19531 -3.20508 7.72949 -3.20508s5.99902 1.43555 7.73047 3.20508
l214.328 197.226c49.9824 47.7891 75.3955 95.1709 75.3955 140.529c0.136719 2.24609 0.246094 5.89648 0.246094 8.14746c0 31.209 -18.2314 74.9111 -40.6963 97.5527c-24.5518 21.1553 -71.3027 38.3262 -104.355 38.3262
c-2.5293 0 -6.63574 -0.117188 -9.16211 -0.258789c-11.3496 -0.078125 -29.2822 -2.98242 -40.0283 -6.47949c-11.3691 -3.58301 -28.7314 -11.5645 -38.7568 -17.8193c-12.2842 -7.69531 -23.085 -15.1865 -31.9795 -21.8691
c-7.38574 -5.87793 -18.7715 -16.0381 -25.415 -22.6787l-7.41211 -7.08691l-7.41309 7.08691c-6.6084 6.35059 -17.8994 16.0566 -25.2012 21.667c-8.89648 6.88477 -19.6982 14.1748 -31.9805 21.8682c-10.0273 6.25195 -27.3896 14.2344 -38.7568 17.8203
c-10.7539 3.80273 -28.7803 7.16016 -40.2393 7.49121zM614.308 752.233l-80.5986 -82.6797l87.7109 -81.8926l-11.4199 -9.66113l-87.8086 82.1045l-79.417 -82.1045l-8.29395 9.21191l78.4082 80.9922l-77.0791 81.4424l10.1885 9.89941l77.9648 -78.7432l81.5098 79.1924
z" />
  </g>

</svg>
