<?xml version="1.0" standalone="no"?>
<!DOCTYPE svg PUBLIC "-//W3C//DTD SVG 1.1//EN" "http://www.w3.org/Graphics/SVG/1.1/DTD/svg11.dtd" >
<svg xmlns="http://www.w3.org/2000/svg" xmlns:xlink="http://www.w3.org/1999/xlink" version="1.1" viewBox="-10 0 792 1000">
  <g transform="matrix(1 0 0 -1 0 800)">
   <path fill="currentColor"
d="M259.177 27.7549v31.7764h47.8232v38.4668h-47.8232v31.7764h47.8232v41.7422h27.7139v-41.7422h39.8887v38.6953h27.7148v-38.6953h51.123v-31.7764h-51.123v-38.4668h51.123v-31.7764h-51.123v-44.8018h-27.7148v44.8018h-39.8887v-41.7549h-27.7139v41.7549h-47.8232z
M354.475 207.918l-93.8818 169.954l19.5225 8.24707l74.9512 -128.746l68.3311 130.011l23.2559 -9.41797zM374.603 97.998h-39.8887v-38.4668h39.8887v38.4668zM371.942 534.938l-101.123 91.6035l16.3857 12.0693l78.3496 -71.9658l139.711 176.966l22.2578 -10.2285z
M497.819 740.615z" />
  </g>

</svg>
