<?xml version="1.0" standalone="no"?>
<!DOCTYPE svg PUBLIC "-//W3C//DTD SVG 1.1//EN" "http://www.w3.org/Graphics/SVG/1.1/DTD/svg11.dtd" >
<svg xmlns="http://www.w3.org/2000/svg" xmlns:xlink="http://www.w3.org/1999/xlink" version="1.1" viewBox="-10 0 1010 1000">
  <g transform="matrix(1 0 0 -1 0 800)">
   <path fill="currentColor"
d="M29.3242 18.2246h55.5146l17.1611 52.2256l17.1602 -52.2256h55.5156l-44.8672 -32.2959l17.1611 -52.2246l-44.9697 32.2959l-44.9707 -32.2959l17.1611 52.2246zM695.938 -84.5088c4.71561 0 8.54759 3.82766 8.57399 8.39457l-1.86111 158.189
c12.9088 -1.84411 12.9088 -1.84411 53.0537 -4.0831l-51.1944 59.6085v86.5381c0 4.71977 -3.8161 8.4982 -8.24219 8.54782l-211.617 -4.6113c-2.01115 37.2063 -2.01115 37.2063 -4.71543 58.173l-57.9857 -52.4621l-3.87834 0.0156927
s-96.0008 0.388525 -96.0416 0.388607c-4.71785 0 -8.57227 -3.83432 -8.57227 -8.54297v-300.105c0 -4.69954 3.84858 -8.54199 8.54199 -8.54199c0 0 373.898 -1.50879 373.938 -1.50879zM340.548 -55.9424v263.013l80.8701 -0.34668l63.0251 -53.1485
c1.23064 24.1913 1.23064 24.1913 2.20835 54.5l190.772 -2.45117v-66.4404l-54.499 -59.7695l32.7266 -4.33887l26 4l-4.22754 -136.465zM134.221 -61.2959zM625.6 727.007c-10.2246 -3.84473 -26.2354 -13.9766 -32.4629 -20.2041
c-8.32031 -8.32031 -8.32031 -8.32031 -10.2236 -11.4951c-1.5957 -2.66211 -1.94141 -2.99707 -4.02344 -4.875c-2.92773 -2.64355 -3.91113 -3.84082 -5.00977 -6.6416c-0.861328 -2.19434 -6.02344 -11.541 -7.46973 -15.5615
c0.192383 -0.943359 0.0576172 -1.87988 -0.195312 -2.54199c-11.7783 -30.8379 -12.3525 -77.168 24.5469 -114.067c9.58301 -9.58301 19.5713 -16.2773 29.1631 -20.9824l26.3672 -12.9355l-28.7773 5.89551c-53.0547 10.8701 -89.748 35.3652 -114.306 59.9229
c-14.5713 14.5723 -24.7002 28.5674 -34.0342 44.6768c17.5205 30.3633 56.5791 88.2148 154.427 106.007zM924.45 628.197c-13.334 23.667 -78.207 137.701 -249.082 137.701c-102.76 0 -167.208 -41.0908 -205.468 -79.3496
c-16.2949 -16.2949 -30.3535 -34.1426 -44.1562 -58.3496c12.209 -21.4043 25.8066 -39.8496 42.9062 -56.9492c63.457 -63.457 141.479 -80.4209 206.718 -80.4209c31.3711 0 128.006 1.99805 206.266 80.2559c22.3828 22.3838 35.7803 44.5801 42.8164 57.1123z
M670.22 543.017c-23.7061 0 -44.5361 8.12207 -61.7686 25.3555c-25.0527 25.0547 -30.4268 58.7061 -19.376 89.2979l1.2832 3.55176l0.854492 -0.316406c17.3682 25.6338 17.3682 25.6338 18.3848 27.1133c27.1445 17.7705 27.1445 17.7705 27.5029 17.8154
c19.1689 8.06152 60.4648 15.4004 95.0645 -19.2002c17.2021 -17.2021 24.5068 -37.2158 24.5811 -58.5605c0 -14.8291 -3.14062 -37.6943 -24.585 -59.1396c-10.0664 -10.0654 -29.2275 -25.917 -61.9414 -25.917zM781.249 627.753
c0 28.2119 -9.71582 53.8818 -32.1348 76.3008c-12.6875 12.6865 -25.499 20.4619 -37.5 25.1885l-34.0635 13.416c42.0742 -7.26758 42.0742 -7.26758 47.5996 -8.91602c0.606445 0.207031 1.40137 0.371094 2.19727 0.223633
c51.9727 -9.57324 91.4072 -32.7197 119.652 -60.9658c14.6328 -14.6328 24.6689 -28.6172 34.0098 -44.7998c-24.3486 -42.2686 -65.9775 -89.9531 -155.827 -105.964l-19.3145 -3.44141c17.457 10.7148 27.1924 15.9658 43.7236 32.8096
c22.9326 22.9326 31.6572 49.0869 31.6572 76.1484zM564.891 665.229zM565.195 668.83zM127 475l-12.9512 13.9033l121.874 113.181l-110.381 43.8984l125.256 113.621l12.7588 -14.0908l-102.634 -93.0957l110.103 -43.8252z" />
  </g>

</svg>
