<?xml version="1.0" standalone="no"?>
<!DOCTYPE svg PUBLIC "-//W3C//DTD SVG 1.1//EN" "http://www.w3.org/Graphics/SVG/1.1/DTD/svg11.dtd" >
<svg xmlns="http://www.w3.org/2000/svg" xmlns:xlink="http://www.w3.org/1999/xlink" version="1.1" viewBox="-10 0 1051 1000">
  <g transform="matrix(1 0 0 -1 0 800)">
   <path fill="currentColor"
d="M271 608l-12 60c128.725 89.7881 355.203 55.3633 442.457 48.5605c0 -0.0107422 0.000976562 -0.0214844 0.000976562 -0.0322266c27.4463 0.582031 75.1855 -1.32129 107.268 -33.4033c40.1396 -40.1396 38.6152 -108.841 37.5254 -169.365
c-0.395508 -21.9258 -0.433594 -33.2402 -0.22168 -41.9463c26.3789 -43.8281 72.168 -89.959 89.3252 -129.607c6.95117 -16.0635 5.49219 -24.7637 2.64551 -40.2051l-12 -14l-79.501 -63.5771v-212.431c1.93945 -31.0869 1.82422 -79.2412 -27.416 -108.48
c-26.0322 -26.0322 -182.507 -12.0195 -220.584 -13.0049l-2.90137 0.0126953c-103.732 -7.2998 -296.108 50.6025 -326.603 92.1719c-18.5059 25.2275 -31.4014 41.2529 -57.9951 55.3086v70.0371c25.8174 -16.2627 49.624 -17.8066 70.1904 -60.6357
c44.2188 -92.082 349.455 -105.734 451.309 -108.438l-0.499023 -0.962891c50 12 34.1514 4.48145 42.5352 13.5361c19.1768 20.7119 3.97852 41.9688 5.50781 57.9648h-0.541992v2.14941c-0.253906 0.990234 -0.500977 1.94141 -0.738281 2.84863h0.738281v207.174v3.4873
v1.33887h1.58203l104 88h1.13281c4.9834 45.8955 -62.8379 92.1289 -94.2158 139.501l-3 4l-1 1c-2.02051 3.99219 0.0439453 4.02539 -2.08398 11.5605c-0.0371094 0.130859 -0.189453 0.24707 -0.174805 0.367188l0.258789 2.07227l0.0644531 1.49902
c0.00976562 0.226562 0.150391 3.89551 0.242188 6.24414c3.11426 79.1523 14.1973 176.389 -74.8154 176.771c-136.35 16.7461 -373.536 9.53418 -431.49 -46.5137zM30.3545 728.521h55.5146l17.1611 52.2256l17.1602 -52.2256h55.5156l-44.8672 -32.2959l17.1611 -52.2246
l-44.9697 32.2959l-44.9707 -32.2959l17.1611 52.2246zM555.064 371.85l-3.00098 3.97559c-10.0195 14.7969 -32.1621 30.5557 -49.4258 35.1748c-23.9238 7.50098 -36.4492 15 -36.4492 86.25v95.8496l4.7998 -1.34961l15.001 -4.27441
c31.0498 -9.22559 38.3994 -11.4004 67.5 3.97461l1.79883 0.974609l1.80078 -1.0498c30 -17.3252 35.3994 -15.4502 75.5244 -1.5l10.2012 3.52539v-96.1504c0 -71.5508 -12.375 -78.8994 -36 -86.5498c-16.9629 -4.66016 -38.7012 -20.2842 -48.5254 -34.875z
M473.688 583.125v-85.875c0 -69.1504 11.0996 -72.6748 31.2002 -79.125c17.124 -4.66406 39.6025 -20.0195 50.1758 -34.2754c10.4082 13.916 32.4492 28.9688 49.1992 33.6006c19.874 6.4502 30.8252 10.0508 30.8252 79.4248v85.9502
c-39.375 -13.7246 -48.1504 -16.7998 -79.9502 1.05078c-30.75 -15.751 -40.5 -12.5254 -71.7002 -3.60156zM555.976 100.975l-3 3.97559c-10.0195 14.7969 -32.1621 30.5557 -49.4258 35.1748c-23.9248 7.5 -36.4502 15 -36.4502 86.249v95.8506l4.80078 -1.35059
l15.001 -4.27344c31.0498 -9.22656 38.3994 -11.4004 67.5 3.97461l1.79883 0.974609l1.80078 -1.0498c30 -17.3252 35.3994 -15.4502 75.5244 -1.5l10.2002 3.52539v-96.1514c0 -71.5498 -12.375 -78.8994 -36 -86.5488
c-16.9619 -4.66016 -38.7002 -20.2842 -48.5254 -34.875zM474.601 312.25v-85.876c0 -69.1494 11.0996 -72.6738 31.2002 -79.124c17.124 -4.66406 39.6016 -20.0195 50.1748 -34.2754c10.4092 13.916 32.4502 28.9688 49.2002 33.6006
c19.874 6.4502 30.8242 10.0498 30.8242 79.4248v85.9502c-39.375 -13.7256 -48.1494 -16.8008 -79.9492 1.0498c-30.75 -15.751 -40.5 -12.5254 -71.7002 -3.60059z" />
  </g>

</svg>
