<?xml version="1.0" standalone="no"?>
<!DOCTYPE svg PUBLIC "-//W3C//DTD SVG 1.1//EN" "http://www.w3.org/Graphics/SVG/1.1/DTD/svg11.dtd" >
<svg xmlns="http://www.w3.org/2000/svg" xmlns:xlink="http://www.w3.org/1999/xlink" version="1.1" viewBox="-10 0 1101 1000">
  <g transform="matrix(1 0 0 -1 0 800)">
   <path fill="currentColor"
d="M539.567 425.036c40.0703 44.3975 144.117 159.679 287.315 159.679c54.7363 0 96.9932 -17.1699 121.724 -30.9902l8.96094 -5.00684v-494.124c-45.958 17.8613 -81.1836 30.4541 -129.744 30.4541c-66.7607 0 -168.947 -24.7754 -282.427 -140.415l-12.3965 -12.6328
c-43.0137 43.1602 -143.42 143.908 -294.753 143.908c-29.7246 0 -73.5957 -7.50781 -106.767 -18.0381l-22.8115 -7.24219v497.826c21.6475 11.1895 67.5088 34.8945 137.188 34.8945c71.6533 0 164.129 -26.498 261.655 -124.021
c9.46387 -9.46387 12.2373 -12.3662 32.0547 -34.292zM84.8604 564.827c-0.899414 0 -0.899414 0 -21.5859 3.31641l63.0381 21.5947c-33.5957 -21.9775 -33.5957 -21.9775 -34.0664 -22.3252c-1.19629 -0.885742 -3.82617 -2.58594 -7.38574 -2.58594zM983.72 558.1
c-0.629883 2.19043 -1.25879 4.38086 -1.8877 6.57129l9.6084 2.77344c0.71582 -2.49219 1.43262 -4.98535 2.14941 -7.47852zM532.967 -105.665c41.9521 46.4746 150.047 166.225 294.677 166.225c12.2646 0 23.8779 -0.891602 34.7734 -2.43945
c57.5078 -8.16992 93.2598 -33.832 99.5615 -38.6221l20.29 -15.7803v557.64l-4.99609 3.74805c-1.46875 1.10156 -60.7275 43.3174 -151.404 43.3174c-72.5352 0 -169.467 -27.0068 -274.143 -133.374c-4.14941 -4.21582 -8.29785 -8.43164 -12.4473 -12.6475
c-44.2471 44.7168 -143.967 145.493 -291.245 145.493c-69.6738 0 -125.093 -23.25 -155.593 -40.7432c-2.02246 -1.01562 -2.31348 -1.17188 -8.77051 -5.56738v-555.4c19.457 12.5205 19.457 12.5205 19.5703 12.5859c7.42578 4.24316 59.3193 33.168 135.175 33.168
c71.8281 0 165.14 -25.9355 262.524 -123.319c9.36816 -9.36816 11.7725 -11.8643 32.0273 -34.2832zM532.968 -105.664c3.79492 -4.20312 3.81055 -4.21973 4.27051 -4.74023h-1.66309l0.0107422 0.382812c-1.30371 -0.288086 -2.60645 -0.576172 -3.90918 -0.864258
l-3.48828 -0.772461l0.163086 0.535156l-0.344727 0.0224609c0.492188 0.458008 0.492188 0.458008 0.849609 1.62598l0.463867 -0.231445zM534.677 -112.388l0.623047 -3.08789h-5.31152l0.149414 4.23438c1.22949 0.289062 2.47363 0.5625 3.71777 0.836914h1.71973
l-0.0673828 -2.39941zM535.508 -112.804l2.16797 -1.08594c-1.7959 -2.45801 -1.95605 -2.68652 -2.0918 -2.99414l-0.28418 1.4082h0.133789zM529.988 -115.476l-0.0615234 -1.74316c-0.501953 0.556641 -1.56445 1.74316 -1.56445 1.74316h1.62598zM893.014 365.181
v30.2178h-101.014v76.9033h-30.2188v-76.9033h-101.014v-30.2178h101.014v-207.181h30.2188v207.181h101.014zM59.6484 730h55.5146l17.1611 52.2256l17.1602 -52.2256h55.5156l-44.8672 -32.2959l17.1611 -52.2246l-44.9697 32.2959l-44.9707 -32.2959l17.1611 52.2246z
" />
  </g>

</svg>
