<?xml version="1.0" standalone="no"?>
<!DOCTYPE svg PUBLIC "-//W3C//DTD SVG 1.1//EN" "http://www.w3.org/Graphics/SVG/1.1/DTD/svg11.dtd" >
<svg xmlns="http://www.w3.org/2000/svg" xmlns:xlink="http://www.w3.org/1999/xlink" version="1.1" viewBox="-10 0 1051 1000">
  <g transform="matrix(1 0 0 -1 0 800)">
   <path fill="currentColor"
d="M30.3242 741.553h55.5146l17.1611 52.2256l17.1602 -52.2256h55.5156l-44.8672 -32.2959l17.1611 -52.2246l-44.9697 32.2959l-44.9707 -32.2959l17.1611 52.2246zM271 608l-12 60c128.725 89.7881 355.203 55.3633 442.457 48.5605
c0 -0.0107422 0.000976562 -0.0214844 0.000976562 -0.0322266c27.4463 0.582031 75.1855 -1.32129 107.268 -33.4033c40.1396 -40.1396 38.6152 -108.841 37.5254 -169.365c-0.395508 -21.9258 -0.433594 -33.2402 -0.22168 -41.9463
c26.3789 -43.8281 72.168 -89.959 89.3252 -129.607c6.95117 -16.0635 5.49219 -24.7637 2.64551 -40.2051l-12 -14l-79.501 -63.5771v-212.431c1.93945 -31.0869 1.82422 -79.2412 -27.416 -108.48c-26.0322 -26.0322 -182.507 -12.0195 -220.584 -13.0049
l-2.90137 0.0126953c-103.732 -7.2998 -296.108 50.6025 -326.603 92.1719c-18.5059 25.2275 -31.4014 41.2529 -57.9951 55.3086v70.0371c25.8174 -16.2627 49.624 -17.8066 70.1904 -60.6357c44.2188 -92.082 349.455 -105.734 451.309 -108.438l-0.499023 -0.962891
c50 12 34.1514 4.48145 42.5352 13.5361c19.1768 20.7119 3.97852 41.9688 5.50781 57.9648h-0.541992v2.14941c-0.253906 0.990234 -0.500977 1.94141 -0.738281 2.84863h0.738281v207.174v3.4873v1.33887h1.58203l104 88h1.13281
c4.9834 45.8955 -62.8379 92.1289 -94.2158 139.501l-3 4l-1 1c-2.02051 3.99219 0.0439453 4.02539 -2.08398 11.5605c-0.0371094 0.130859 -0.189453 0.24707 -0.174805 0.367188l0.258789 2.07227l0.0644531 1.49902
c0.00976562 0.226562 0.150391 3.89551 0.242188 6.24414c3.11426 79.1523 5.19727 173.389 -83.8154 173.771c-136.35 16.7461 -373.536 9.53418 -431.49 -46.5137zM479.218 317.671c0 0.988281 -0.993164 3.69727 -1.84668 4.80566
c-1.18066 0.875977 -4.01758 1.88672 -5.10059 1.88672c-3.91602 0 -6.71875 -2.71777 -9.25586 -5.25488c-1.09375 -1.09375 -2.53125 -1.64258 -3.96777 -1.64258c-2.31543 0 -3.59277 1.26855 -4.63379 2.30859c-0.214844 0.21582 -3.90625 3.45508 -6.07715 4.1709
c-0.990234 0.327148 -1.6377 0.414062 -2.4375 0.414062c-1.03223 0 -3.75391 -0.93457 -5.04102 -1.84766c-0.548828 -0.866211 -0.567383 -0.929688 -1.875 -5.42578c0.107422 -1.67285 0.898438 -5.08887 4.66992 -8.72559l15.4072 -14.8633l15.2979 14.7256
c1.65527 1.65723 4.86035 4.91406 4.86035 9.44824zM439.258 349.635c0.199219 -3.52539 0.078125 -8.17969 -0.229492 -13.4873c5.01562 1.77441 12.0684 2.21973 19.9385 -3.29297c5.35938 3.80859 9.15137 4.47461 13.2578 4.55469
c5.6416 0 11.7168 -2.99512 14.2979 -5.68262c5.54297 -5.7666 10.5195 -19.5566 -3.12695 -32.8828c-16.1328 -15.7529 -18.0557 -17.5186 -18.6045 -17.999c-3.24902 -3.12012 -8.32812 -3.12891 -11.6074 0.046875l-17.4268 16.876
c-0.595703 -6.9082 -1.06738 -13.3232 -1.20508 -18.4951c-0.0566406 -2.09473 -0.212891 -11.4912 1.48828 -12.4014c0.194336 -0.0673828 0.349609 -0.174805 0.313477 -0.472656c5.52539 -59.3984 61.6094 -115.031 64.7285 -116.174
c0.102539 -0.0371094 -0.193359 0.00878906 -0.193359 0.00878906l-0.292969 -0.152344l-0.158203 -0.358398l0.931641 -0.519531l-10.5068 -7.00488c-1.16992 1.27441 -1.73242 1.8877 -4.41406 4.79102c-21.3096 23.0703 -44.5264 48.2344 -62.5869 109.502
c-4.99121 -28.9844 -22.8721 -60.7666 -38.9932 -81.2402c-10.3975 -13.2051 -13.9199 -22.5088 -23.4424 -33.0889l-12.4258 9.83789c7.32715 9.49902 12.0264 15.9395 18.5215 24.9023c3.65918 5.05176 7.0332 9.70801 10.6377 14.4424
c44.1064 57.9375 45.4258 134.287 45.0967 173.084l12.8271 -0.283203c1.13867 -0.0244141 3.0752 -0.574219 3.00488 -4.0459c-0.0205078 -1.00586 -0.109375 -5.49902 0.169922 -10.4648v0zM391.6 513.894l18.0449 0.295898l252.556 0.607422v-16.6748l-94.2002 -0.716797
v-81.4053l-156.3 84.0938l-5.7002 3.59961c-1.57031 0 -12.8291 10.2002 -14.4004 10.2002zM306.601 567.5l57 -0.299805v0h2.7002l-3.30078 -182.4v-10.7998h-12.2998l-46.2002 0.299805v10.7998l46.2002 -0.299805l3.90039 172.8l-48 0.300781v9.59961z" />
  </g>

</svg>
