<?xml version="1.0" standalone="no"?>
<!DOCTYPE svg PUBLIC "-//W3C//DTD SVG 1.1//EN" "http://www.w3.org/Graphics/SVG/1.1/DTD/svg11.dtd" >
<svg xmlns="http://www.w3.org/2000/svg" xmlns:xlink="http://www.w3.org/1999/xlink" version="1.1" viewBox="-10 0 1051 1000">
  <g transform="matrix(1 0 0 -1 0 800)">
   <path fill="currentColor"
d="M828.399 483.872c0 9.49878 0.360099 25.4826 0.360099 28.905l-0.318652 61.3747l-8.69455 54.78l-24.0577 41.7601l-29.8355 19.1251l-33.9409 8.02542l-47.9505 1.85133v0.765382l-107.704 8.96128l-161.614 -4.8437l-135.511 -48.0118l4.97421 -24.8711
l90.1513 34.2037l168.519 13.9909l163.859 -8.05849l72.0585 -32.0852l24.6852 -76.5829c-11.2968 -92.7231 -11.5388 -94.7093 -10.6225 -98.1968c0.272553 -1.03738 0.408327 -1.98777 0.495372 -2.92219c0.487753 -0.641757 1.13403 -1.58506 1.4862 -2.05622
l30.4464 -40.7334l38.0432 -60.0682l23.93 -33.502l-96.7113 -80.2498l-3.19974 -219.288c0.962733 -7.56244 2.78458 -22.0112 5.01798 -45.877c-0.12894 -0.269919 -9.65147 -20.9678 -12.8349 -27.02c-1.80565 -3.43278 -3.36365 -6.39475 -8.94453 -11.1259
c-28.726 -6.87192 -37.6748 -9.01268 -53.7943 -9.01268c-3.38415 0 -6.77838 0.14333 -10.1737 0.446144l-127.95 -3.2205l-189.706 31.9736l-119.91 72.0259l-21.8729 31.5454c-0.18608 0.126152 -14.9542 10.3475 -18.5829 12.6523v-31.4635
c5.41685 -3.87145 13.5068 -7.36272 24.4398 -17.2503c7.32645 -6.62591 2.09556 -4.45645 10.6241 -11.9264c1.03002 -0.902171 1.03002 -0.902171 17.2005 -21.8062l70.2643 -41.1391l123.979 -35.7692l40.8353 -3.74581
c52.8258 -4.90757 59.0669 -6.73248 83.0467 -7.42728l68.08 -1.97257l89.7606 0.254271l51.1066 12.4914l15.1376 25.2075l6.27671 34.16l-0.268638 82.9487l0.0291888 84.2282l-0.00582149 87.5189l84.7837 67.8016l7.68593 8.96692l1.11464 7.19504
c0.44913 7.61262 -1.52476 12.8022 -3.31214 18.1783l-23.3304 38.8443l-33.0243 43.448l-34.3179 48.9016c-0.202711 16.1296 -0.202711 16.1296 -0.202711 17.6951zM33.2949 712.521h55.5146l17.1611 52.2256l17.1602 -52.2256h55.5156l-44.8672 -32.2959
l17.1611 -52.2246l-44.9697 32.2959l-44.9707 -32.2959l17.1611 52.2246zM404.363 309.105c1.1582 -20.5713 -8.61816 -79.1699 -2.86719 -82.2451c5.64551 -60.6982 64.4121 -117.41 64.4873 -115.222l-9.95801 -6.63867
c-22.4033 24.4355 -47.4014 48.6191 -66.4502 114.833c-4.24023 -29.1553 -22.4512 -61.8105 -38.8145 -82.5908c-9.95703 -12.6445 -14.2246 -22.7598 -22.7607 -32.2422l-11.3799 9.00879c12.8037 16.5957 19.9893 27.293 28.4512 38.4072
c43.2012 56.75 45.0078 131.259 44.6738 170.731c4.02051 -0.0878906 8.04004 -0.176758 12.0605 -0.264648c2.26172 -0.0498047 2.35352 -2.24902 2.39258 -3.18555c0.00488281 -0.107422 -0.146484 -5.04785 0.165039 -10.5918zM586.363 305.105
c1.1582 -20.5713 -8.61816 -79.1699 -2.86719 -82.2451c5.64551 -60.6982 64.4121 -117.41 64.4873 -115.222l-9.95801 -6.63867c-22.4033 24.4355 -47.4014 48.6191 -66.4502 114.833c-4.24023 -29.1553 -22.4512 -61.8105 -38.8145 -82.5908
c-9.95703 -12.6445 -14.2246 -22.7598 -22.7607 -32.2422l-11.3799 9.00879c12.8037 16.5957 19.9893 27.293 28.4512 38.4072c43.2012 56.75 45.0078 131.259 44.6738 170.731c4.02051 -0.0878906 8.04004 -0.176758 12.0605 -0.264648
c2.26172 -0.0498047 2.35352 -2.24902 2.39258 -3.18555c0.00488281 -0.107422 -0.146484 -5.04785 0.165039 -10.5918zM458.12 576.426c69.167 0 125.5 -45.917 125.5 -102.417s-56.333 -102.5 -125.5 -102.5c-69.167 0 -125.5 45.917 -125.5 102.417
s56.333 102.5 125.5 102.5zM458.12 379.842c64.583 0 117.167 42.167 117.167 94.084c0 51.916 -52.584 94.166 -117.167 94.166c-64.583 0 -117.167 -42.166 -117.167 -94.083c0 -51.917 52.584 -94.167 117.167 -94.167zM398.87 468.926l-8.33301 -1.91699
c16.4141 -66.8779 117.446 -64.0176 135.25 0l-8.33398 2.33301c-15.8955 -56.2148 -103.42 -58.8066 -118.583 -0.416016zM484.12 524.909c0 6.2998 4.5 11.3994 10.2002 11.3994s10.2002 -5.09961 10.2002 -11.3994c0 -6.30078 -4.5 -11.4004 -10.2002 -11.4004
s-10.2002 5.09961 -10.2002 11.4004zM411.521 525.509c0 6 4.5 10.7998 10.2002 10.7998c5.69922 0 10.1992 -4.7998 10.1992 -10.7998s-4.5 -10.7998 -10.1992 -10.7998c-5.7002 0 -10.2002 4.7998 -10.2002 10.7998z" />
  </g>

</svg>
