<?xml version="1.0" standalone="no"?>
<!DOCTYPE svg PUBLIC "-//W3C//DTD SVG 1.1//EN" "http://www.w3.org/Graphics/SVG/1.1/DTD/svg11.dtd" >
<svg xmlns="http://www.w3.org/2000/svg" xmlns:xlink="http://www.w3.org/1999/xlink" version="1.1" viewBox="-10 0 1051 1000">
  <g transform="matrix(1 0 0 -1 0 800)">
   <path fill="currentColor"
d="M271 608l-12 60c128.725 89.7881 355.203 55.3633 442.457 48.5605c0 -0.0107422 0.000976562 -0.0214844 0.000976562 -0.0322266c27.4463 0.582031 75.1855 -1.32129 107.268 -33.4033c40.1396 -40.1396 38.6152 -108.841 37.5254 -169.365
c-0.395508 -21.9258 -0.433594 -33.2402 -0.22168 -41.9463c26.3789 -43.8281 72.168 -89.959 89.3252 -129.607c6.95117 -16.0635 5.49219 -24.7637 2.64551 -40.2051l-12 -14l-79.501 -63.5771v-212.431c1.93945 -31.0869 1.82422 -79.2412 -27.416 -108.48
c-26.0322 -26.0322 -182.507 -12.0195 -220.584 -13.0049l-2.90137 0.0126953c-103.732 -7.2998 -296.108 50.6025 -326.603 92.1719c-18.5059 25.2275 -31.4014 41.2529 -57.9951 55.3086v70.0371c25.8174 -16.2627 49.624 -17.8066 70.1904 -60.6357
c44.2188 -92.082 349.455 -105.734 451.309 -108.438l-0.499023 -0.962891c50 12 34.1514 4.48145 42.5352 13.5361c19.1768 20.7119 3.97852 41.9688 5.50781 57.9648h-0.541992v2.14941c-0.253906 0.990234 -0.500977 1.94141 -0.738281 2.84863h0.738281v207.174v3.4873
v1.33887h1.58203l104 88h1.13281c4.9834 45.8955 -62.8379 92.1289 -94.2158 139.501l-3 4l-1 1c-2.02051 3.99219 0.0439453 4.02539 -2.08398 11.5605c-0.0371094 0.130859 -0.189453 0.24707 -0.174805 0.367188l0.258789 2.07227l0.0644531 1.49902
c0.00976562 0.226562 0.150391 3.89551 0.242188 6.24414c3.11426 79.1523 14.1973 176.389 -74.8154 176.771c-136.35 16.7461 -373.536 9.53418 -431.49 -46.5137zM30.3545 728.521h55.5146l17.1611 52.2256l17.1602 -52.2256h55.5156l-44.8672 -32.2959l17.1611 -52.2246
l-44.9697 32.2959l-44.9707 -32.2959l17.1611 52.2246zM558.462 111.516h7.01953c0.174805 -4.83789 0.347656 -9.67676 0.518555 -14.5156c26.748 0.936523 50.9287 12.2031 68.6533 29.9277c6.44336 6.44336 12.0332 13.7402 16.585 21.7041l-11.2344 5.95996
l-1.38086 -2.1875l-68.8936 32.5039c-2.24707 -1.23047 -4.82812 -1.92969 -7.57031 -1.92969c-8.71582 0 -15.7803 7.06445 -15.7803 15.7803c0 6.66113 4.12598 12.3564 9.96191 14.6719v73.585h1.62012v13.4473c-13.7705 -0.648438 -52.9814 -5.96777 -79.2109 -44.2734
c3.94629 -2.27734 7.89062 -4.55566 11.8359 -6.83398l-4.05078 -7.01465c-4.03125 2.32715 -8.06348 4.65527 -12.0947 6.9834c-8.55078 -14.9023 -13.4404 -32.167 -13.4404 -50.5684c0 -17.9453 4.68066 -34.834 12.8867 -49.5039
c4.17188 2.4082 8.3418 4.81641 12.5137 7.22461l4.05078 -7.01562l-12.3311 -7.11914c17.626 -26.3633 47.1973 -44.0762 80.8594 -45.334c-0.172852 4.83594 -0.344727 9.67188 -0.517578 14.5078zM674.151 198.758c0 -61.4521 -49.875 -111.328 -111.331 -111.328
c-61.4551 0 -111.33 49.876 -111.33 111.33c0 61.0938 49.5791 110.961 110.668 111.328h0.222656c61.4619 0 111.525 -49.8809 111.771 -111.33zM566.061 300.525v-13.5098h1.06055l2.6582 -74.4355c4.31543 -2.38477 7.39453 -6.73047 8.03613 -11.835l67.8486 -37.1904
l-1.90137 -3.01172l10.7451 -5.70312c6.43164 13.3027 10.0664 28.1973 10.1338 43.9219c0 18.9941 -5.21094 36.7754 -14.2783 51.998c-3.92578 -2.45703 -7.85254 -4.91602 -11.7783 -7.37305l-3.51172 6.08008c3.83105 2.39844 7.66309 4.79688 11.4932 7.19434
c-7.85547 11.3369 -33.5869 42.3955 -80.5059 43.8643zM502.457 538.912c-4.4082 2.80957 -8.58008 4.32812 -13.8389 11.8125c-0.944336 5.68359 -3.87598 9.89355 -0.336914 18.9004c2.28418 4.52246 5.51074 8.41016 10.4619 11.1377
c4.72559 1.46191 9.78809 2.58691 14.5127 2.7002c5.59863 -0.892578 12.4863 -4.18262 13.8379 -7.08789l4.72461 -7.08789l12.8262 11.4756c5.47266 4.67285 13.5889 11.8662 16.2549 18.3369l2.7002 9.44922s23.1748 -0.449219 22.5 -0.449219
c-0.673828 0 1.7998 -233.1 1.7998 -233.1h-27.8994v186.299l-22.0498 -16.1992c-4.84277 -4.6582 -10.3506 -8.09961 -16.6494 -12.5996c-4.95898 -3.07227 -12.2051 -8.00195 -18 -9.90039c0 0 -0.169922 5.85059 -0.84375 16.3125z" />
  </g>

</svg>
