<?xml version="1.0" standalone="no"?>
<!DOCTYPE svg PUBLIC "-//W3C//DTD SVG 1.1//EN" "http://www.w3.org/Graphics/SVG/1.1/DTD/svg11.dtd" >
<svg xmlns="http://www.w3.org/2000/svg" xmlns:xlink="http://www.w3.org/1999/xlink" version="1.1" viewBox="-10 0 1051 1000">
  <g transform="matrix(1 0 0 -1 0 800)">
   <path fill="currentColor"
d="M271 608l-12 60c128.725 89.7881 355.203 55.3633 442.457 48.5605c0 -0.0107422 0.000976562 -0.0214844 0.000976562 -0.0322266c27.4463 0.582031 75.1855 -1.32129 107.268 -33.4033c40.1396 -40.1396 38.6152 -108.841 37.5254 -169.365
c-0.395508 -21.9258 -0.433594 -33.2402 -0.22168 -41.9463c26.3789 -43.8281 72.168 -89.959 89.3252 -129.607c6.95117 -16.0635 5.49219 -24.7637 2.64551 -40.2051l-12 -14l-79.501 -63.5771v-212.431c1.93945 -31.0869 1.82422 -79.2412 -27.416 -108.48
c-26.0322 -26.0322 -182.507 -12.0195 -220.584 -13.0049l-2.90137 0.0126953c-103.732 -7.2998 -296.108 50.6025 -326.603 92.1719c-18.5059 25.2275 -31.4014 41.2529 -57.9951 55.3086v70.0371c25.8174 -16.2627 49.624 -17.8066 70.1904 -60.6357
c44.2188 -92.082 349.455 -105.734 451.309 -108.438l-0.499023 -0.962891c50 12 34.1514 4.48145 42.5352 13.5361c19.1768 20.7119 3.97852 41.9688 5.50781 57.9648h-0.541992v2.14941c-0.253906 0.990234 -0.500977 1.94141 -0.738281 2.84863h0.738281v207.174v3.4873
v1.33887h1.58203l104 88h1.13281c4.9834 45.8955 -62.8379 92.1289 -94.2158 139.501l-3 4l-1 1c-2.02051 3.99219 0.0439453 4.02539 -2.08398 11.5605c-0.0371094 0.130859 -0.189453 0.24707 -0.174805 0.367188l0.258789 2.07227l0.0644531 1.49902
c0.00976562 0.226562 0.150391 3.89551 0.242188 6.24414c3.11426 79.1523 14.1973 176.389 -74.8154 176.771c-136.35 16.7461 -373.536 9.53418 -431.49 -46.5137zM30.3545 728.521h55.5146l17.1611 52.2256l17.1602 -52.2256h55.5156l-44.8672 -32.2959l17.1611 -52.2246
l-44.9697 32.2959l-44.9707 -32.2959l17.1611 52.2246zM517.147 223.121c-4.20898 -48.5723 50.3379 -90.2314 117.056 -123.938l-4.20312 -10.1836c-65.2598 33.0654 -104.985 72.6973 -121.242 121.134c-15.3096 -43.002 -58.46 -96.8027 -96.3193 -120.094
l-6.8252 10.2969c74.8467 48.0371 110.813 119.966 107.669 220.204l10.8896 -0.240234c0.148438 -0.00292969 0.271484 -9.40332 0.271484 -12.9902c0 -24.4092 -7.2959 -84.1895 -7.2959 -84.1895zM613.523 570.938l-91.7002 -92.6104l99.792 -91.7275l-12.9922 -10.8223
l-99.9043 91.9668l-90.3555 -91.9668l-9.43652 10.3184l89.208 90.7197l-87.6963 91.2236l11.5918 11.0889l88.7051 -88.2002l92.7354 88.7041zM518.151 410.195c-83.04 0 -150.616 29.1348 -150.616 64.9551s67.5762 64.9551 150.616 64.9551
c83.0391 0 150.615 -29.1348 150.615 -64.9551s-67.5762 -64.9551 -150.615 -64.9551zM518.151 533.009c-77.5176 0.274414 -140.576 -25.791 -140.576 -57.8584s63.0586 -58.1328 140.576 -58.1328c77.5166 0 140.575 26.0654 140.575 58.1328
s-63.0586 58.1328 -140.575 58.1328v-0.274414z" />
  </g>

</svg>
