<?xml version="1.0" standalone="no"?>
<!DOCTYPE svg PUBLIC "-//W3C//DTD SVG 1.1//EN" "http://www.w3.org/Graphics/SVG/1.1/DTD/svg11.dtd" >
<svg xmlns="http://www.w3.org/2000/svg" xmlns:xlink="http://www.w3.org/1999/xlink" version="1.1" viewBox="-10 0 1082 1000">
  <g transform="matrix(1 0 0 -1 0 800)">
   <path fill="currentColor"
d="M306.481 97.6934l-82.2217 148.848l24.0225 10.1475l58.4395 -100.383l53.3027 101.418l27.2285 -11.0254zM223.568 -67.707v34.6641h38.626v22.0713h-38.626v34.6641h38.626v33.7148h31.3828v-33.7148h23.2197v31.2539h31.3828v-31.2539h41.292v-34.6641h-41.292
v-22.0713h41.292v-34.6641h-41.292v-36.1855h-31.3828v36.1855h-23.2197v-33.7246h-31.3828v33.7246h-38.626zM293.577 -33.043h23.2197v22.0713h-23.2197v-22.0713zM738.659 223.904c-0.529297 0 -0.985352 0.173828 -1.32227 0.358398l-214.094 -88.2627v-37.8242
c12.126 5.10742 24.251 10.2148 36.376 15.3213v-3.77051l-0.21875 -161.659h318.305l0.646484 155.446c10.9619 -6.48535 21.9238 -12.9697 32.8867 -19.4551l-0.677734 40.7051l-136.33 79.1182l1.46387 0.616211c-22.6963 11.7715 -24.457 12.7314 -36.2109 19.5508
c-0.288086 -0.102539 -0.56543 -0.144531 -0.824219 -0.144531zM842.594 -16.7148h-248.003l-0.665039 144.662l142.009 59.8174l107.859 -63.8086zM40.3545 -111.479h55.5146l17.1611 52.2256l17.1602 -52.2256h55.5156l-44.8672 -32.2959l17.1611 -52.2246
l-44.9697 32.2959l-44.9707 -32.2959l17.1611 52.2246zM1010.16 570.172c0 0.988281 -0.993164 3.69824 -1.84668 4.80664c-1.18066 0.875977 -4.01758 1.88672 -5.10059 1.88672c-3.91602 0 -6.71777 -2.7168 -9.25488 -5.25488
c-1.09473 -1.09375 -2.53223 -1.64258 -3.96875 -1.64258c-2.31543 0 -3.59277 1.26758 -4.63379 2.30859c-0.214844 0.21582 -3.90625 3.4541 -6.07715 4.1709c-0.990234 0.326172 -1.6377 0.414062 -2.4375 0.414062c-1.03223 0 -3.75391 -0.935547 -5.04102 -1.84766
c-0.548828 -0.866211 -0.567383 -0.928711 -1.875 -5.42578c0.107422 -1.67285 0.898438 -5.08887 4.66992 -8.72559l15.4072 -14.8623l15.2979 14.7236c1.6543 1.6582 4.86035 4.91504 4.86035 9.44824zM970.198 602.136
c0.199219 -3.52441 0.078125 -8.17871 -0.229492 -13.4863c5.01465 1.77441 12.0684 2.21973 19.9385 -3.29297c5.35938 3.80859 9.15137 4.47363 13.2578 4.55469c5.6416 0 11.7168 -2.99609 14.2988 -5.68262c5.54199 -5.7666 10.5186 -19.5566 -3.12891 -32.8828
c-16.1318 -15.7529 -18.0547 -17.5186 -18.6035 -17.999c-3.24902 -3.12012 -8.32812 -3.12891 -11.6074 0.046875l-17.4258 16.876c-0.59668 -6.9082 -1.06836 -13.3232 -1.20703 -18.4951c-0.0556641 -2.09473 -0.210938 -11.4912 1.48926 -12.4014
c0.194336 -0.0683594 0.349609 -0.174805 0.313477 -0.472656c5.52539 -59.3984 61.6094 -115.03 64.7285 -116.174c0.102539 -0.0371094 -0.193359 0.00878906 -0.193359 0.00878906l-0.292969 -0.152344l-0.158203 -0.358398l0.931641 -0.520508l-10.5068 -7.00488
c-1.16895 1.27539 -1.73145 1.88867 -4.41406 4.79297c-21.3096 23.0693 -44.5264 48.2344 -62.5869 109.501c-4.99121 -28.9844 -22.8721 -60.7666 -38.9932 -81.2402c-10.3975 -13.2051 -13.9209 -22.5098 -23.4424 -33.0889l-12.4258 9.83691
c7.32715 9.49902 12.0273 15.9404 18.5215 24.9033c3.65918 5.05176 7.0332 9.70801 10.6377 14.4424c44.1064 57.9375 45.4258 134.286 45.0967 173.084l12.8271 -0.283203c1.13965 -0.0244141 3.0752 -0.574219 3.00488 -4.0459
c-0.0195312 -1.00684 -0.109375 -5.49902 0.169922 -10.4658v0zM793.829 531.499zM622.075 647.049zM590 588zM714.973 510.796zM714.747 503.625zM619.261 530.288zM674.309 512.971zM824.465 601.351zM590 588zM824.465 601.351zM748.41 677.161
c-12.1074 0 -22.3574 -4.70996 -27.5557 -9.9082c-1.97852 -1.97852 -1.47363 -2.08105 -2.29199 -2.37891c-3.6748 -1.34082 -7.27734 -1.82617 -10.5645 -1.82617c-3.10352 0 -8.74219 0.458008 -14.8467 3.20117c-4.14844 5.0498 -11.165 9.64648 -22.9619 9.64648
c-17.71 0 -37.9053 -10.9619 -44.9287 -27.3857l-0.34668 -0.811523h-1.22168l-31.998 -43.4766h-1.53125v-2.0791c-0.207031 -0.282227 -0.414062 -0.563477 -0.62207 -0.845703h0.334961l-3.54395 -13.2891l-0.398438 0.00585938
c-0.0712891 -1.36035 -0.200195 -2.14258 -0.629883 -3.83301h0.516602c-0.0126953 -1.50195 -0.0126953 -1.50195 -0.0126953 -1.65527c0 -9.71582 4.19238 -29.377 32.1357 -52.4873c29.5117 -24.4102 62.8867 -27.1016 90.5547 -27.1016
c45.3486 0 63.8369 5.68359 90.9736 27.127c33.1494 26.1943 33.708 33.9072 34.6211 53.0527l-0.928711 0.0146484c-0.0556641 0.212891 -4.12793 16.8281 -5.57227 21.3008l-23.6924 40.4854c-2.66992 2.78711 -2.66992 2.78711 -2.93945 3.24902h-0.175781
c-8.33008 8.52539 -25.792 24.4785 -42.8418 28.0137c-3.2627 0.676758 -6.45703 0.981445 -9.53223 0.981445zM669.728 665.451c2.54883 0 8.21289 0 14.6719 -4.44434l-0.0498047 -0.616211c0.373047 -0.15332 0.970703 -0.433594 1.55078 -0.984375
c5.47266 -5.20117 13.8828 -7.64258 21.8682 -7.64258c7.43848 0 14.5078 2.11816 18.4873 6.09863c0.774414 0.774414 2.02539 2.02441 2.99121 4.93652c4.10059 2.79785 10.6152 5.85156 19.5059 5.85156c11.7998 0 17.3154 -5.13867 21.5459 -9.07715
c3.28711 -3.06152 7.61523 -7.10254 16.9258 -13.2627c0.356445 -0.078125 0.647461 -0.249023 0.881836 -0.513672l0.205078 0.0078125l26.625 -41.9961c0 -0.0712891 -0.00195313 -0.143555 -0.00195313 -0.21582c1.91016 -7.1543 3.6543 -14.4746 5.49219 -21.7002
c0.642578 -2.56836 1.00391 -4.94824 1.00391 -7.25293c0 -11.0566 -8.22559 -20.0146 -31.9219 -39.3779c-21.835 -17.8418 -37.6465 -23.9629 -85.2998 -23.9629c-25.7979 0 -46.5928 3.16895 -70.8789 20.1689c-29.9375 20.957 -33.9629 36.3896 -33.9629 50.1328
c0 0.90625 0.0166016 1.7998 0.0419922 2.67871c1.49414 5.92871 3.11719 11.7275 4.65918 17.6074l29.1768 41.3066c0.414062 -0.15918 0.827148 -0.318359 1.24023 -0.477539c0.983398 2.31445 2.65625 6.25781 7.19824 10.7988
c7.31738 7.31738 18.1484 11.9365 28.0439 11.9365zM460.773 684.479l-74.8799 -77.7598l78.3203 -72.3799l-18.5605 -15.46l-78.4795 72.7197l-77.04 -79.1992l-13.4805 14.7393l75.4004 77.4199l-74.1602 79.2002l16.5596 15.8398l75.6006 -74.8799l76.3604 72.1807z
M460.773 684.479l-74.8799 -77.7598l78.3203 -72.3799l-18.5605 -15.46l-78.4795 72.7197l-77.04 -79.1992l-13.4805 14.7393l75.4004 77.4199l-74.1602 79.2002l16.5596 15.8398l75.6006 -74.8799l76.3604 72.1807z" />
  </g>

</svg>
