<?xml version="1.0" standalone="no"?>
<!DOCTYPE svg PUBLIC "-//W3C//DTD SVG 1.1//EN" "http://www.w3.org/Graphics/SVG/1.1/DTD/svg11.dtd" >
<svg xmlns="http://www.w3.org/2000/svg" xmlns:xlink="http://www.w3.org/1999/xlink" version="1.1" viewBox="-10 0 1051 1000">
  <g transform="matrix(1 0 0 -1 0 800)">
   <path fill="currentColor"
d="M271 608l-12 60c128.725 89.7881 355.203 55.3633 442.457 48.5605c0 -0.0107422 0.000976562 -0.0214844 0.000976562 -0.0322266c27.4463 0.582031 75.1855 -1.32129 107.268 -33.4033c40.1396 -40.1396 38.6152 -108.841 37.5254 -169.365
c-0.395508 -21.9258 -0.433594 -33.2402 -0.22168 -41.9463c26.3789 -43.8281 72.168 -89.959 89.3252 -129.607c6.95117 -16.0635 5.49219 -24.7637 2.64551 -40.2051l-12 -14l-79.501 -63.5771v-212.431c1.93945 -31.0869 1.82422 -79.2412 -27.416 -108.48
c-26.0322 -26.0322 -182.507 -12.0195 -220.584 -13.0049l-2.90137 0.0126953c-103.732 -7.2998 -296.108 50.6025 -326.603 92.1719c-18.5059 25.2275 -31.4014 41.2529 -57.9951 55.3086v70.0371c25.8174 -16.2627 49.624 -17.8066 70.1904 -60.6357
c44.2188 -92.082 349.455 -105.734 451.309 -108.438l-0.499023 -0.962891c50 12 34.1514 4.48145 42.5352 13.5361c19.1768 20.7119 3.97852 41.9688 5.50781 57.9648h-0.541992v2.14941c-0.253906 0.990234 -0.500977 1.94141 -0.738281 2.84863h0.738281v207.174v3.4873
v1.33887h1.58203l104 88h1.13281c4.9834 45.8955 -62.8379 92.1289 -94.2158 139.501l-3 4l-1 1c-2.02051 3.99219 0.0439453 4.02539 -2.08398 11.5605c-0.0371094 0.130859 -0.189453 0.24707 -0.174805 0.367188l0.258789 2.07227l0.0644531 1.49902
c0.00976562 0.226562 0.150391 3.89551 0.242188 6.24414c3.11426 79.1523 14.1973 176.389 -74.8154 176.771c-136.35 16.7461 -373.536 9.53418 -431.49 -46.5137zM30.3545 728.521h55.5146l17.1611 52.2256l17.1602 -52.2256h55.5156l-44.8672 -32.2959l17.1611 -52.2246
l-44.9697 32.2959l-44.9707 -32.2959l17.1611 52.2246zM301.228 513.16l-0.586914 -19.4336h6.84473v-1.09961l221.663 -117.627v117.92l138.159 1.05078v20.0693zM516 78c-0.124023 0 -0.325195 -0.000976562 -0.449219 -0.000976562
c-7.93652 0 -20.3779 2.33984 -27.7725 5.22363c-14.25 5.62012 -31.1748 21.3994 -37.7783 35.2217c-11.4463 -12.4639 -34.4697 -22.5791 -51.3926 -22.5791c-1.95117 0 -5.11035 0.160156 -7.05176 0.357422c-32.9785 3.98438 -59.7451 34.1797 -59.7451 67.3984
c0 13.3555 6.85449 32.5898 15.3008 42.9346c-8.21777 9.35938 -14.8867 27.0625 -14.8867 39.5166c0 5.96387 1.69141 15.3398 3.77539 20.9287c8.00293 20.4834 32.3438 37.3584 54.334 37.666c19.2158 -0.612305 42.1133 -14.8994 51.1104 -31.8887
c10.1064 6.07324 27.877 11.0508 39.667 11.1104c9.99707 21.9326 37.6719 39.7324 61.7744 39.7324c1.35254 0 3.54395 -0.0791016 4.89258 -0.176758c25.708 -3.18066 51.5928 -26.1777 57.7773 -51.333c20.1191 -1.85645 44.0615 -17.8848 53.4443 -35.7773
c3.74707 -7.65625 6.78906 -20.7861 6.78906 -29.3096c0 -11.8125 -5.58008 -29.1963 -12.4551 -38.8018c-6.05859 -8.37891 -18.752 -18.335 -28.334 -22.2217c-6.64062 -2.83887 -17.8906 -5.27832 -25.1104 -5.44531c-3.15039 0.0888672 -8.12793 0.984375 -11.1113 2
h-2.11133c0.375977 -2.20215 0.681641 -5.80371 0.681641 -8.03906c0 -7.35938 -3.09277 -18.4424 -6.9043 -24.7383c-6.48828 -9.50293 -20.4756 -20.5537 -31.2217 -24.667c-8.76172 -3.86621 -23.6455 -7.05273 -33.2227 -7.11133zM451.111 133.556h1.22266
c2.44629 -0.413086 5.08398 -2.65332 5.88867 -5c4.93262 -13.6533 19.8662 -29.1348 33.333 -34.5557c6.53711 -2.46387 17.5117 -4.46387 24.4971 -4.46387c8.15918 0 20.8291 2.69629 28.2812 6.01953c9.02344 3.65039 20.6221 13.2578 25.8887 21.4443
c2.93262 4.6875 5.31348 12.9785 5.31348 18.5078c0 3.56641 -1.03711 9.16309 -2.31348 12.4932l-1.44434 3.33301l2.44434 2.77734c4 4.33301 17.2217 0 17.333 0c2.20703 -0.756836 5.89062 -1.4043 8.22266 -1.44434h0.0888672
c6.09473 0 15.6123 1.8916 21.2441 4.22266c7.91309 3.12012 18.4658 11.1836 23.5557 17.999c5.82129 7.91309 10.5449 22.3076 10.5449 32.1309c0 29.1387 -23.6396 53.4209 -52.7676 54.2031c-3.25293 0.103516 -6.33887 2.79102 -6.88867 6
c-4.37109 22.1699 -26.124 42.3799 -48.5557 45.1113c-1.1709 0.0878906 -3.07422 0.15918 -4.24902 0.15918c-20.918 0 -44.3516 -15.7021 -52.3066 -35.0488c-1.00391 -2.5791 -4.06543 -4.67188 -6.83301 -4.67188
c-0.0761719 0 -0.201172 0.00292969 -0.277344 0.00585937c-0.666992 0.0244141 -1.74902 0.0439453 -2.41602 0.0439453c-11.1201 0 -27.6592 -4.99805 -36.918 -11.1553c-1.06152 -0.768555 -2.98828 -1.39258 -4.2998 -1.39258
c-2.74316 0 -5.79395 2.06738 -6.81055 4.61426c-6.77734 15.4883 -25.9922 28.4795 -42.8896 29c-17.5811 -0.345703 -37.4922 -13.7354 -44.4443 -29.8877c-1.67188 -4.49805 -3.02832 -12.042 -3.02832 -16.8408c0 -11.043 6.33496 -26.3467 14.1396 -34.1592
c1.14551 -1.17871 2.07422 -3.46875 2.07422 -5.1123c0 -1.64258 -0.928711 -3.93262 -2.07422 -5.11035c-8.12891 -8.96094 -14.7266 -26.0518 -14.7266 -38.1504c0 -27.9395 22.5264 -53.209 50.2822 -56.4053c1.63965 -0.166992 4.30762 -0.302734 5.95605 -0.302734
c15.7959 0 36.5234 10.0908 46.2656 22.5244c1.27051 1.55273 3.92871 2.81348 5.93457 2.81348c0.203125 0 0.53125 -0.015625 0.732422 -0.0351562v0.333008zM349.223 204.667v0zM349.223 209.889v0zM606.667 269.111v0zM603 272.223v0zM480.778 281.444v0z
M484.444 283.889v0z" />
  </g>

</svg>
