<?xml version="1.0" standalone="no"?>
<!DOCTYPE svg PUBLIC "-//W3C//DTD SVG 1.1//EN" "http://www.w3.org/Graphics/SVG/1.1/DTD/svg11.dtd" >
<svg xmlns="http://www.w3.org/2000/svg" xmlns:xlink="http://www.w3.org/1999/xlink" version="1.1" viewBox="-10 0 1051 1000">
  <g transform="matrix(1 0 0 -1 0 800)">
   <path fill="currentColor"
d="M828.399 483.872c0 9.49878 0.360099 25.4826 0.360099 28.905l-0.318652 61.3747l-8.69455 54.78l-24.0577 41.7601l-29.8355 19.1251l-33.9409 8.02542l-47.9505 1.85133v0.765382l-107.704 8.96128l-161.614 -4.8437l-135.511 -48.0118l4.97421 -24.8711
l90.1513 34.2037l168.519 13.9909l163.859 -8.05849l72.0585 -32.0852l24.6852 -76.5829c-12.0195 -98.6551 -12.0195 -98.6551 -8.64097 -103.175l30.4464 -40.7334l38.0432 -60.0682l23.93 -33.502l-96.7113 -80.2498l-3.19974 -219.288
c0.962733 -7.56244 2.78458 -22.0112 5.01798 -45.877c-15.8013 -33.078 -15.8013 -33.078 -21.7795 -38.1459c-28.726 -6.87192 -37.6748 -9.01268 -53.7943 -9.01268c-3.38415 0 -6.77838 0.14333 -10.1737 0.446144l-127.95 -3.2205l-189.706 31.9736l-119.91 72.0259
l-21.8729 31.5454c-0.18608 0.126152 -14.9542 10.3475 -18.5829 12.6523v-31.4635c5.41685 -3.87145 13.5068 -7.36272 24.4398 -17.2503c0.324316 -0.293306 6.03353 -5.56267 27.8246 -33.7326l70.2643 -41.1391l123.979 -35.7692l40.8353 -3.74581
c52.8258 -4.90757 59.0669 -6.73248 83.0467 -7.42728l68.08 -1.97257l89.7606 0.254271l51.1066 12.4914l15.1376 25.2075l6.27671 34.16l-0.268638 82.9487l0.0291888 84.2282l-0.00582149 87.5189l84.7837 67.8016l7.68593 8.96692
c1.77472 11.4559 1.98289 12.7996 -2.19749 25.3734l-23.3304 38.8443c-23.3118 29.9188 -45.6511 60.8101 -67.3422 92.3496c-0.202711 16.1296 -0.202711 16.1296 -0.202711 17.6951zM33.2949 712.521h55.5146l17.1611 52.2256l17.1602 -52.2256h55.5156
l-44.8672 -32.2959l17.1611 -52.2246l-44.9697 32.2959l-44.9707 -32.2959l17.1611 52.2246zM435.25 536.206v9.61914l91.8076 43.3955c1.11328 -0.577148 2.22852 -1.15527 3.3418 -1.73242l0.0507812 0.100586c2.02832 -1.17676 2.02832 -1.17676 90 -46.9248
l0.172852 -10.3916l-16.2861 9.63477l-0.336914 -80.9072h-150.666l0.112305 84.8711zM462.079 547.568l0.365234 -79.459h132.445l0.65625 76.9482l-68.6055 35.292zM495.069 160.833c23.1969 30.0714 38.0985 49.4368 37.6064 107.558
c7.36507 -0.163514 7.36507 -0.163514 7.43359 -1.77539c0.767984 -21.5036 -4.53331 -46.0638 -1.39062 -47.7441c2.9043 -31.2158 33.165 -59.2568 33.165 -59.2568l-5.12109 -3.41406c-11.5215 12.5674 -24.3779 25.0039 -34.1748 59.0566
c-2.17969 -14.9932 -12.1162 -31.3613 -19.9609 -42.4746c0 0 -7.31543 -11.7051 -11.7051 -16.582zM591.893 103.872c0.267578 0.0117188 17.21 0.00195313 17.2148 0.0107422c-1.81688 7.62184 -6.60368 27.7026 -0.157227 40.627l12.3076 24.6182
c-6.29883 97.6494 -6.29883 97.6494 -6.26367 98.0684c2.07031 24.5684 3.875 53.2246 1.76367 71.5811c-5.48535 21.7871 -19.0957 17.1895 -22.2754 10.2207c-1.23443 -2.7048 -10.528 -7.78379 -14.0938 -2.41504c-2.38184 3.58789 -13.4004 20.6504 -13.6904 21.2178
c-3.98535 7.80469 -19.3574 12.6055 -22.2949 -2.84375c-0.106445 -0.558594 -0.106445 -0.558594 -5.35352 -13.3477c-1.9541 -4.76465 -8.84668 -4.56738 -10.5205 0.304688l-9.87012 28.7139c-2.63965 7.67578 -19.1016 13.8047 -27.7998 -0.731445
c-0.160156 -0.478516 -1.33496 -4.03809 -7.68066 -23.9434c-1.37988 -4.32715 -7.1377 -5.31641 -9.87402 -1.63965c-9.14521 12.2893 -22.973 30.871 -27.9463 0.962891c2.73741 -85.6419 2.77648 -86.864 11.4346 -119.63
c0.646984 -2.50871 0.461506 -18.5797 -7.12695 -20.3174c-8.06279 -1.84753 -10.8263 -2.48076 -29.207 18.7129l-23.1299 26.6885c-12.9512 8.54655 -12.9512 8.54655 -24.9199 11.8975c-2.28223 -1.25293 -5.00293 -0.498047 -7.06641 -2.56055
c-1.49707 -1.49805 -3.22461 -6.51367 -2.6748 -9.35449l12.7598 -17.1611c27.143 -25.419 39.4058 -41.0764 49.2852 -56.5879c12.4961 -19.6367 12.4961 -19.6367 12.6719 -20.0459l9.65234 -22.373c17.1509 -26.5933 17.1509 -26.5933 17.7549 -29.1475
c3.23145 -13.541 26.1172 -14.2148 26.417 -14.2207l25.0312 -0.446289zM609.108 92.6299h-16.8643c-75.8691 -3.15137 -75.8691 -3.15137 -76.0371 -3.14844l-25.2119 0.450195c-4.00293 0.0751953 -31.3311 1.35352 -36.9561 22.1143
c-9.32232 17.7094 -14.8212 22.2106 -17.2588 27.8672l-9.54688 22.1309l-11.9131 18.7217l-13.5371 18.3398l-18.5889 22.4805c-15.9697 14.1436 -15.9697 14.1436 -16.6709 15.0869l-13.0508 17.5498c-11.2348 15.1094 12.765 39.6059 36.2012 24.7637
c12.7393 -8.06934 13.7061 -8.37402 15.5312 -10.1982c0.212891 -0.212891 -0.273438 -0.657227 23.6621 -27.2695c12.4717 -13.8652 12.958 -13.4199 14.748 -15.8477c0.295898 0.0273438 0.703125 0.0771484 1.21582 0.161133l0.601562 1.02441l0.269531 6.72461
c-6 22.7002 -5.93262 22.0732 -6.13574 23.5547c-3.72434 27.112 -5.52021 98.6594 -5.36133 99.6445c6.28725 38.9507 32.4526 25.305 41.5723 13.0566c4.3916 13.9326 4.25098 13.8398 5.28027 15.5898c13.6016 23.1338 42.5146 15.5166 48.2373 -1.13086
l4.82812 -14.0469c6.7373 22.6357 33.8311 19.2646 42.4531 2.94629c0.100586 -0.155273 9.68359 -15.0459 10.0459 -15.6025c14.0385 18.1476 38.7566 4.3896 41.3115 -17.5225c2.30273 -20.043 0.378906 -48.7041 -1.69629 -73.4043l6.24609 -96.8096
c0.126953 -1.96777 -0.260742 -3.96191 -1.16211 -5.76367l-12.0352 -24.0713c-3.76095 -14.5564 -3.76095 -14.5564 0.761719 -33.5215c1.68652 -7.06641 -3.6709 -13.8701 -10.9395 -13.8701z" />
  </g>

</svg>
