<?xml version="1.0" standalone="no"?>
<!DOCTYPE svg PUBLIC "-//W3C//DTD SVG 1.1//EN" "http://www.w3.org/Graphics/SVG/1.1/DTD/svg11.dtd" >
<svg xmlns="http://www.w3.org/2000/svg" xmlns:xlink="http://www.w3.org/1999/xlink" version="1.1" viewBox="-10 0 1046 1000">
  <g transform="matrix(1 0 0 -1 0 800)">
   <path fill="currentColor"
d="M542.844 625.649c1.24121 -22.042 -9.2334 -84.8252 -3.07227 -88.1211c6.0498 -65.0332 75.1611 -134.363 75.2412 -132.019l-16.8174 1.4541c-24.0029 26.1816 -50.7861 52.0928 -71.1953 123.036c-4.54297 -31.2373 -24.0547 -66.2256 -41.5869 -88.4902
c-10.6689 -13.5479 -14.8545 -23.5391 -24 -33.7002c-7 0.918945 -14 1.1377 -21 -1.7998c13.7168 17.7812 29.8379 39.8486 38.9033 51.7578c46.2871 60.8037 48.2236 140.635 47.8652 182.927c4.30762 -0.0947266 8.61426 -0.189453 12.9219 -0.28418
c2.42285 -0.0527344 2.52148 -2.40918 2.56445 -3.41309c0.00390625 -0.114258 -0.158203 -5.40723 0.175781 -11.3477zM593.767 407.35c-7.94727 0 -13.708 -0.475586 -19.9668 -1.2207c-2.77832 4.06836 -4.62012 6.19531 -7.9082 9.36816
c-5.91113 5.70215 -22.4736 10.084 -38.3438 10.084c-10.7207 0 -22.0566 -1.86133 -32.0098 -6.57129c-2.34766 -1.11133 -6.85254 -3.24316 -12.7041 -11.4482c-7.875 0.787109 -12.9941 0.959961 -18.2295 0.959961c-10.6201 0 -21.8848 -0.990234 -31.792 -3.48438
c-3.89844 -0.981445 -9.9873 -3.23828 -14.4922 -7.74316c-1.90137 -1.90234 -2.55762 -3.78516 -2.55762 -5.73535c0 -4.48535 3.91992 -9.2041 4.92871 -10.2129c2.06641 -2.06641 5.32227 -3.66602 7.64648 -4.76855c7.6748 -3.63867 22.2959 -5.33398 36.4023 -5.33398
c8.43848 0 15.1035 0.49707 21.8906 1.36426c1.99414 -2.13379 2.71289 -2.81836 4.35352 -4.28027c10.7695 -9.59766 33.1094 -9.97266 37.4512 -9.97266c12.4121 0 24.3613 2.28125 30.9062 6.13477c3.99023 2.34961 6.6582 4.65332 9.58594 7.47656
c8.63281 -1.41309 16.4678 -1.91211 25.0479 -1.91211c12.3145 0 24.2598 1.2627 30.7559 3.29785c15.7158 4.9248 20.2412 12.5225 20.2881 15.3799v0.0361328c0 1.69922 -2.79395 5.26855 -4.44238 6.91699c-2.24512 2.24414 -5.10254 4.13477 -9.3418 6.31055
c-5.33789 2.74023 -20.6084 5.35449 -37.4688 5.35449zM631.197 388.937c0 -5.76465 -19.5469 -11.2324 -40.6465 -11.2324c-4.16113 0 -6.85938 0 -15.8721 1.19336c3.05566 5.875 3.89844 7.72754 4.60254 12.5361c0.557617 0.788086 0.375 0.669922 0.379883 0.675781
c-0.00488281 0.0761719 -0.0458984 0.161133 -0.0458984 0.161133c-0.0117188 -0.663086 -1.61719 4.91406 -1.9375 5.8584c7.51562 0.720703 12.0146 1.0127 18.9902 1.0127c11.1572 0 21.373 -0.883789 26.2461 -3.32129
c6.56836 -3.28418 8.02539 -4.78027 8.2832 -6.73633v-0.147461zM481.086 382.736v-2.33594c-9.0625 -1.29199 -14.0049 -1.4707 -19.0664 -1.4707c-9.79785 0 -19.2158 1.14355 -25.5742 4.02832c-7.01562 3.18457 -8.62109 5.43359 -8.62109 7.41992
c0 3.65527 3.19922 4.89941 6.74023 6.04492c11.2539 3.64355 28.3438 3.97168 33.9766 3.97168c2.91309 0 4.47949 -0.00878906 10.6465 -0.347656c-0.445312 -3.51172 -0.482422 -3.80371 -0.482422 -5.28516c0 -3.84668 0.848633 -7.64355 2.38086 -12.0254z
M556.524 389.178c0 2.26367 2.08105 3.10059 9.22461 5.50684c1.58496 0.533203 2.95215 1.04492 2.95215 1.04492l-0.386719 -0.300781l-1.00195 -3.11914l-1.19922 -1.5c-0.351562 -0.0195312 1.19922 1.5 0 0c-1.2002 -3 -2.06836 -4.42969 -4.09375 -7.62695
c-3.69531 2.45898 -5.49512 3.6582 -5.49512 5.99512zM544.763 390.358c0 -3.43457 5.96875 -10.9746 9.0498 -13.6484l6.20703 2.7002l-9.69336 -4.30566c-7.40332 -3.28906 -16.4883 -5.0752 -25.2441 -5.0752c-11.9561 0 -17.2744 2.65332 -24.1504 6.08301
c6.30664 3.24609 8.82812 4.54395 11.7656 7.48145c3.46777 3.46777 3.62402 5.90234 3.62402 6.3125c0 0.0400391 -0.00195312 0.0615234 -0.00195312 0.0615234c0 1.36621 -2.31641 4.81055 -4.40527 6.89746c-3.76074 3.76074 -10.2119 6.72363 -10.2119 6.72363
l-4.68848 2.0459l4.67578 2.07324c7.82324 3.46777 18.9688 5.32422 29.4434 5.32422c11.4443 0 21.3213 -2.14453 25.7266 -6.2832c0.398438 -0.375 0.398438 -0.375 3.25488 -3.12695c-5.55762 -2.20312 -15.3516 -6.20703 -15.3516 -13.2637zM502.497 390.136
c0 -3.33887 -6.79199 -5.88867 -6.87695 -5.91992c-0.102539 -0.0371094 -0.00683594 -0.00585937 -0.783203 -0.138672l-1.92383 -0.466797l-0.326172 2.12988c-1.15723 2.16797 -1.77051 4.47656 -1.77051 6.99805c0 1.23145 0 1.23145 0.619141 5.67285
c9.00684 -4.50781 10.6914 -5.56543 11.0615 -8.27539zM54.251 733.43h55.5146l17.1611 52.2256l17.1602 -52.2256h55.5156l-44.8672 -32.2959l17.1611 -52.2246l-44.9697 32.2959l-44.9707 -32.2959l17.1611 52.2246zM769.927 622.877
c0 -96.6865 78.0879 -230.199 109.375 -248.775l11.1992 -6.64941c-16.9434 -0.478516 1.18945 0.900391 -34.5742 -3.5752l-1.0752 1.36426c-22.0068 27.9238 -104.004 167.01 -116.903 264.233c-0.657227 4.95117 0.0224609 9.79688 0.582031 18.2783
c-1.38379 0.708984 -2.88672 1.4873 -4.52246 2.34082c-0.0283203 -1.83984 -0.322266 -3.81641 -0.0449219 -5.88867c33.3789 -249.661 107.546 -273.742 107.546 -273.742s6.91211 -4.29004 10.2793 -6.58594h-32.8613c-44.1455 16.1279 -111.697 208.17 -111.697 279.331
c0 8.73535 0.302734 15.3135 0.785156 20.6846c-60.6641 32.3369 -123.179 64.7012 -226.885 64.7012c-23.0527 0 -45.5234 -2.04883 -73.3945 -6.17773c-32.3232 -4.78906 -32.3232 -4.78906 -70.6152 -21.2002c-18.916 -8.10645 -50.2139 -47.4062 -58.166 -66.7188
c-7.02734 -17.0664 -9.0791 -30.2676 -9.0791 -45.8906c0 -22.332 3.62891 -44.376 3.62891 -77.1553c0 -8.99219 1.14648 -13.8564 1.14648 -20.1924c0 -4.57031 -0.613281 -9.64551 -2.73242 -16.6025c-19.9492 -65.4795 -40.3174 -87.0479 -63.832 -110.183
c-6.25977 -6.16016 -27.0508 -26.6172 -27.0508 -37.7881c0 -4.45605 0.882812 -6.9082 38.3447 -19.4531c55.9199 -18.7266 60.0254 -24.4102 60.0254 -90.9766c0 -43.0117 -4.74121 -62.7734 -4.74121 -104.492c0 -5.5 0.0820312 -11.3867 0.267578 -17.7666
c0.50293 -17.292 16.4512 -45.3398 23.8975 -57.5352c1.19629 -0.303711 1.95996 -1.18164 1.95996 -1.18164c1.1543 -0.666992 2.48438 -1.60059 4.13477 -2.74414c16.0508 -11.1162 22.0049 -13.1846 40.8428 -13.1846c24.0361 0 22.3457 4.21484 79.0615 4.21484
c0.316406 0 6.94531 -0.00390625 7.01562 -0.00390625c14.7988 0 25.668 0.226562 52.1025 3.80078c20.2021 2.73242 38.8271 4.61523 56.5088 6.4043c120.938 12.2334 143.711 24.1475 222.178 80.1953c2.23438 1.5957 5.14355 3.85352 8.45703 6.42773
c12.6104 9.7959 33.0303 26.8994 48.1416 26.8994c8.16699 0 13.834 -4.95996 13.834 -14.165c0 -15.4473 -17.4082 -42.8486 -33.0938 -42.8486c-1.16406 0 -1.56543 0.129883 -3.01758 0.129883c-22.6426 0 -44.3604 -36.5264 -79.4766 -51.29
c-52.8857 -22.2344 -80.2979 -27.1279 -117.459 -33.71c-17.2549 -3.05664 -36.6504 -6.49316 -61.8809 -12.2393c-34.7246 -7.90918 -51.6299 -8.61133 -86.7539 -8.61133c-0.251953 0 -22.7891 0.03125 -25.0811 0.03125
c-11.3115 0 -32.6182 -0.123047 -32.9473 -0.123047c-40.7773 0 -82.5049 2.86621 -120.91 24.8125c-26.0957 14.9121 -27.9092 36.1035 -30.0449 61.0586c-0.477539 5.59082 -0.976562 11.3994 -1.75781 17.3906c-1.96484 15.7158 -2.63672 29.7119 -2.63672 42.8916
c0 28.6572 3.1748 53.4248 3.1748 84.1699c0 46.4277 -4.59863 49 -29.7539 58.8145c-27.3184 10.6582 -57.2148 13.2568 -70.834 26.876c-4.33008 4.33008 -6.66504 9.68945 -6.66504 16.1094c0 4.7959 1.30371 10.1846 4.05176 16.1768
c36.4951 79.5967 68.6367 70.0742 91.3711 139.761c5.20312 15.9443 6.93652 32.2529 6.93652 48.6797c0 32.5635 -6.77832 65.1611 -6.77832 95.8125c0 47.6494 17.2412 68.3838 35.0508 86.1934c66.2422 66.2412 143.674 66.3555 238.901 66.3555h0.988281
c82.8154 0 132.135 -23.3467 188.021 -49.8477c43.5547 -20.6533 21.8506 -15.7109 32.4561 -16.8408c11.3984 -1.2168 39 -13 47.5039 -30.4053c4.31641 -8.83496 -4.12305 -21.668 -4.50391 -29.5947c-0.257812 -5.36523 2 -14.3428 2 -20zM458.42 151.657
c0 -1.11035 0.929688 -1.92285 1.92285 -1.92285l153.135 -0.618164c1.0625 0 1.92871 0.870117 1.92871 1.9043l-0.783203 66.5557c2.49512 -0.356445 4.96777 -0.932617 7.48438 -1.06934l12.251 -0.663086l-18.9521 22.0674v36.0215
c0 1.06543 -0.869141 1.9248 -1.83984 1.9248l-88.1084 -1.91992l-0.898438 16.6143l-0.72168 5.62402l-21.9609 -19.8691l-0.611328 0.00195312s-40.9111 0.166016 -40.917 0.166016c-1.11328 0 -1.92871 -0.927734 -1.92871 -1.92383v-122.894zM466.363 157.671v110.854
l35.2705 -0.151367l23.8203 -20.0879c0.404297 6.74707 0.549805 13.752 0.789062 20.6641l81.2197 -1.04395v-29.3721l-20.6973 -22.7002l10.1904 -1.35059l12.2969 1.8916l-1.83789 -59.3086z" />
  </g>

</svg>
