<?xml version="1.0" standalone="no"?>
<!DOCTYPE svg PUBLIC "-//W3C//DTD SVG 1.1//EN" "http://www.w3.org/Graphics/SVG/1.1/DTD/svg11.dtd" >
<svg xmlns="http://www.w3.org/2000/svg" xmlns:xlink="http://www.w3.org/1999/xlink" version="1.1" viewBox="-10 0 1018 1000">
  <g transform="matrix(1 0 0 -1 0 800)">
   <path fill="currentColor"
d="M577.656 88.8848l3.04492 98.2959c-5.1875 -0.797852 -10.376 -1.5957 -15.5635 -2.39453l-36.374 4.82227l48.7393 53.4541v46.2783l-142.78 1.83496c-0.43457 -15.876 -0.43457 -15.876 -2.12695 -48.8555l-56.7354 47.8438l-57.8604 0.248047v-200.412z
M298.163 58.3779c-6.48633 0 -11.833 5.2793 -11.833 11.833v240.084c0 6.50684 5.29688 11.833 11.877 11.833c0 0 65.7812 -0.266602 77.9971 -0.31543l52.0469 47.0879c3.43457 -26.9775 3.43457 -26.9775 4.76367 -51.5605l164.49 3.58496
c6.35156 0 11.665 -5.28613 11.665 -11.8369v-67.377l47.4033 -55.1924c-43.6191 2.40039 -43.6191 2.40039 -48.8223 3.14355l1.4209 -120.739c0 -6.43457 -5.30859 -11.752 -11.8789 -11.752zM756.095 398.897v106.754l1.3916 0.619141
c2.42871 0.329102 9.26855 3.92969 12.957 8.87891c0.0664062 0.0878906 3.25391 5.70508 4.93262 9.85059h106.624l-0.418945 -3.97852c-2.58398 -24.5488 -15.5801 -56.0283 -31.0693 -75.2529c-4.86719 -6.04199 -2.86133 -4.48828 -5.8877 -7.51465
c-2.26953 -2.27051 -4.61816 -3.80078 -6.37207 -4.95703l0.201172 -0.200195l-3.11035 -2.51855c-19.2051 -15.5488 -50.6914 -28.624 -75.2627 -31.2539zM882.204 538.499h-106.729c-0.451172 1.23828 0.310547 -1.73145 0 0
c-0.770508 4.30859 -2.27246 6.38965 -7.28223 10.877c-0.0576172 0.0517578 -2.50293 2.30566 -5.37793 5.57617c-1.6416 0.874023 -2.21875 1.18066 -6.7207 2.87012v106.68l3.98535 -0.426758c23.1641 -2.47949 52.4326 -14.25 71.8018 -28.5918
c3.89648 -2.88379 3.76367 -1.6709 7.8623 -5.54883c1.28711 -1.21875 1.46289 -1.38379 2.07031 -1.61426c1.24023 -0.46875 2.08203 -0.786133 2.81348 -2.21094c1.01465 -1.97656 1.0459 -0.862305 2.5957 -3.92773c4.10156 -2.75586 4.46191 -3.50781 7.12012 -9.05273
l-0.0732422 -0.114258c15.5244 -21.8379 25.3945 -50.3135 27.5156 -70.5381zM742.495 664.702v-106.753l-1.79102 -0.794922c-0.588867 -0.514648 -1.31934 -0.850586 -2.74902 -1.9541c-1.2627 -0.975586 -0.123047 0.738281 -2.51953 -2.16016l-2.52051 -2.52051
c-0.358398 -0.358398 0.359375 0.360352 -1.7998 -1.43945c-4.32031 -3.95996 -3.24023 -2.87988 -4.04102 -3.8457c-0.476562 -0.575195 -0.716797 -2.08301 -1.71973 -3.71484c-0.139648 -0.228516 -1.05957 0.266602 -1.68555 -2.91992h-107.079l0.418945 3.97852
c2.58398 24.5488 15.5801 56.0283 31.0693 75.2529c2.12402 2.63574 0.957031 1.44824 3.47656 4.32812c1.00586 1.15039 1.44043 1.44043 1.71875 1.9209c0.0634766 0.108398 6.8252 5.37305 10.1553 8.26367c12.2803 8.54004 38.9951 28.0693 75.0811 31.9316z
M749.297 678.499c-80.9775 0 -146.701 -65.7207 -146.701 -146.699c0 -80.9824 65.7266 -146.699 146.699 -146.699c80.9824 0 146.699 65.7266 146.699 146.699c-0.111328 80.873 -65.8359 146.588 -146.697 146.699zM616.393 525h106.72
c0.484375 -1.32812 -1.05762 -0.347656 1.88281 -6.16016c2.14355 -4.23926 7.5752 -8.94629 9.00391 -9.79395c0.259766 -0.154297 -1.16406 0.848633 -0.724609 0.793945c0.742188 -0.0927734 1.61621 -1.34473 3.10059 -1.98047h0.710938
c0.609375 -0.271484 0.609375 -0.271484 5.40918 -1.8916v-106.871l-3.98242 0.422852c-24.5596 2.60645 -56.0391 15.6406 -75.2549 31.1592l-3.11719 2.51758l0.382812 0.381836c-3.14258 3.94336 -3.32227 4.16992 -5.16992 5.54395
c-1.29492 0.962891 -2.47266 1.90918 -4.30664 3.97852l-0.456055 -0.458008l-2.52246 3.11621c-15.5469 19.2051 -28.6191 50.6875 -31.249 75.2559zM81.9834 530.967l25.9844 0.425781l363.68 0.875v-24.0117l-135.647 -1.03223v-117.224l-225.071 121.096
l-8.20801 5.18262c-2.26172 0 -18.4746 14.6885 -20.7373 14.6885zM65.3242 -76.2256h55.5146l17.1611 52.2256l17.1602 -52.2256h55.5156l-44.8672 -32.2959l17.1611 -52.2246l-44.9697 32.2959l-44.9707 -32.2959l17.1611 52.2246z" />
  </g>

</svg>
