<?xml version="1.0" standalone="no"?>
<!DOCTYPE svg PUBLIC "-//W3C//DTD SVG 1.1//EN" "http://www.w3.org/Graphics/SVG/1.1/DTD/svg11.dtd" >
<svg xmlns="http://www.w3.org/2000/svg" xmlns:xlink="http://www.w3.org/1999/xlink" version="1.1" viewBox="-10 0 1043 1000">
  <g transform="matrix(1 0 0 -1 0 800)">
   <path fill="currentColor"
d="M615.576 294.12c12.8242 0 31.8232 -6.98633 42.1064 -16.1514l0.0927734 -0.100586c8.91895 -9.51172 16.2842 -28.0332 16.2842 -41.0186c0 -1.30664 -0.078125 -3.04199 -0.0986328 -3.53027c0 -0.0214844 -0.00292969 -0.0400391 -0.00292969 -0.0546875
c-0.0117188 -10.8975 -3.18555 -32.9434 -30.7412 -59.6592c-53.0654 -51.4473 -82.1377 -79.4004 -87.9033 -84.6396c-0.761719 -0.691406 -0.628906 -0.853516 -1.72656 -1.27539l-1.14648 -0.481445c-1.60742 0.708008 -1.75684 0.774414 -2.23828 1.29102
c-6.98047 7.50586 -89.2588 86.0107 -90.1436 86.8965c-9.39551 9.39551 -17.4131 21.8467 -18.6123 23.9102c-2.40039 4.15625 -5.60156 11.4209 -7.05176 15.9951c-2.43457 7.68262 -3.17188 15.0996 -3.2041 21.2158l-0.00292969 0.527344
c1.44238 4.06641 3.90918 15.1934 8.14355 26.1699c1.0127 2.62305 4.61523 11.5244 8.01953 14.5918c9.90625 8.92578 28.9863 16.2939 42.2617 16.2939c6.23242 0 12.4297 -0.889648 19.6016 -3.25684c11.8115 -3.89746 26.4453 -13.5342 39.9814 -27.0703
c2.41406 -2.41406 2.75293 -2.61035 3.04297 -2.61035c0.0566406 0 0.111328 0.0078125 0.178711 0.0078125c0.576172 0 0.576172 0 5.99902 5.42285c2.55762 2.55762 19.2168 18.7324 37.3027 24.6924c7.85449 2.67383 17.3691 2.83398 19.8574 2.83398zM685.362 236.544
v0.148438c0 18.3154 -10.5107 40.3242 -20.1885 50.002c-6.44336 6.44336 -29.3818 19.1396 -49.8193 19.1396c-12.1172 0 -20.8662 -2.69531 -23.874 -3.76953c-5.47852 -1.83594 -13.5029 -5.73242 -18.3232 -8.89746
c0.00683594 0.00390625 0.0126953 0.0078125 0.0185547 0.0117188l-0.0351562 -0.0234375c0.00585938 0.00390625 0.0117188 0.0078125 0.0166016 0.0117188v-0.000976563c-8.16895 -5.53809 -12.5029 -8.47559 -21.167 -16.1768
c-30.0244 26.8623 -48.9473 28.4941 -62.9512 28.4941c-18.8291 0 -41.8457 -11.1494 -50.5225 -19.8262c-6.39844 -6.39746 -19.0518 -28.5381 -19.0518 -48.667c0 -12.332 1.88281 -20.6387 3.42285 -25.4033c1.70703 -5.37891 5.26855 -13.4395 8.0957 -18.3252
c0.782227 -1.35254 2.05957 -3.13184 8.82715 -12.1631l0.0703125 -0.584961c-0.00683594 0.0253906 -0.0263672 0.0429688 -0.0263672 0.0429688c0.00292969 -0.00976562 0.0126953 -0.0292969 0.0273438 -0.0576172c2.00684 -3.70703 10.4766 -12.3818 13.5527 -15.3623
l88.585 -85.7832c0.860352 -0.833008 4.625 -4.30957 10.041 -4.30957c3.08984 0 6.7168 1.13184 10.6484 4.53125c0.787109 0.680664 7.02832 6.0752 88.291 85.4248c34.3086 33.502 34.3623 59.4355 34.3623 71.5439zM661.421 419.395zM443.32 566.124zM402.591 491.142z
M561.287 393.105zM561 384zM439.747 417.857zM509.649 395.866zM700.324 508.096zM402.591 491.142zM700.324 508.096zM603.747 604.361c-15.375 0 -28.3896 -5.97852 -34.9912 -12.5801c-2.5127 -2.5127 -1.87109 -2.64355 -2.91016 -3.02246
c-4.66699 -1.70117 -9.24121 -2.31738 -13.416 -2.31738c-3.94043 0 -11.1006 0.582031 -18.8525 4.06543c-5.26855 6.41211 -14.1787 12.248 -29.1582 12.248c-22.4883 0 -48.1328 -13.9199 -57.0527 -34.7764l-0.439453 -1.0293h-1.55176l-40.6328 -55.208h-1.94336
v-2.64062c-0.262695 -0.357422 -0.526367 -0.714844 -0.790039 -1.07324h0.424805l-4.5 -16.875l-0.506836 0.0078125c-0.0908203 -1.72754 -0.25293 -2.7207 -0.798828 -4.86914h0.655273c-0.015625 -1.90723 -0.015625 -1.90723 -0.015625 -2.10156
c0 -12.3359 5.32324 -37.3047 40.8066 -66.6504c37.4756 -30.9961 79.8564 -34.4131 114.99 -34.4131c57.5859 0 81.0635 7.2168 115.521 34.4463c42.0947 33.2627 42.8047 43.0566 43.9639 67.3672l-1.17773 0.0195312
c-0.0722656 0.270508 -5.24316 21.3682 -7.07617 27.0479l-30.0859 51.4111c-3.39062 3.53906 -3.39062 3.53906 -3.73242 4.125h-0.223633c-10.5781 10.8262 -32.752 31.085 -54.4023 35.5742c-4.14258 0.859375 -8.2002 1.24414 -12.1045 1.24414zM503.832 589.493
c3.2373 0 10.4297 0 18.6318 -5.64355l-0.0634766 -0.783203c0.472656 -0.193359 1.23145 -0.550781 1.96875 -1.25c6.94922 -6.60449 17.6299 -9.70508 27.7695 -9.70508c9.44629 0 18.4219 2.69043 23.4766 7.74512c0.983398 0.983398 2.57031 2.57129 3.79785 6.26758
c5.20703 3.55469 13.4795 7.43066 24.7695 7.43066c14.9824 0 21.9883 -6.52441 27.3594 -11.5264c4.17383 -3.8877 9.6709 -9.01855 21.4932 -16.8418c0.452148 -0.0986328 0.823242 -0.31543 1.12012 -0.651367l0.259766 0.00976562l33.8105 -53.3291
c0 -0.0908203 -0.00195313 -0.182617 -0.00195313 -0.273438c2.4248 -9.08496 4.63867 -18.3809 6.97266 -27.5557c0.817383 -3.26074 1.27539 -6.2832 1.27539 -9.20996c0 -14.04 -10.4453 -25.415 -40.5352 -50.0039
c-27.7285 -22.6572 -47.8066 -30.4287 -108.318 -30.4287c-32.7598 0 -59.165 4.02441 -90.0039 25.6113c-38.0156 26.6113 -43.1279 46.208 -43.1279 63.6602c0 1.15137 0.0214844 2.28516 0.0537109 3.40137c1.89648 7.52832 3.95703 14.8936 5.91602 22.3594
l37.0498 52.4521c0.524414 -0.201172 1.0498 -0.404297 1.5752 -0.605469c1.24707 2.93848 3.37305 7.94531 9.13965 13.7119c9.29199 9.29199 23.0459 15.1582 35.6113 15.1582zM567.502 376.414zM715.178 5.61523
c0.714844 0.0292969 45.8965 0.00390625 45.9092 0.0263672c-13.917 58.3721 -10.0068 77.166 -4.93066 93.5439c0.046875 0.147461 3.97461 13.7256 4.50977 14.7959l32.8232 65.6465c-16.7998 260.398 -16.7998 260.398 -16.7051 261.518
c5.51855 65.5137 10.3311 141.932 4.70508 190.882c-14.6289 58.0996 -50.9248 45.8389 -59.4033 27.2559c-2.99609 -6.56738 -6.37207 -7.34082 -15.0879 -9.33691c-6.77246 -6.05957 -17.4277 -4.7334 -22.4951 2.89746
c-6.35156 9.56543 -35.7354 55.0674 -36.5088 56.5791c-10.626 20.8125 -51.6182 33.6162 -59.4521 -7.58301c-0.283203 -1.48926 -0.283203 -1.48926 -14.2754 -35.5947c-5.21289 -12.7051 -23.5908 -12.1768 -28.0566 0.814453l-26.3203 76.5684
c-7.03711 20.4688 -50.9385 36.8145 -74.1309 -1.94824c-0.427734 -1.27637 -3.55957 -10.7705 -20.4834 -63.8506c-3.67871 -11.5381 -19.0332 -14.1748 -26.3301 -4.37012c-21.6494 29.0898 -21.6494 29.0898 -22.0312 29.4717
c-0.142578 0.144531 -24.7256 24.6865 -38.6533 10.7588c-7.62695 -7.62695 -11.9404 -26.2461 -13.8408 -37.6641c0.0546875 -1.71191 0.394531 -11.8164 2.27051 -60.8242c1.11621 -30.5186 2.47363 -95.7373 2.50195 -96.7041
c8.92676 -63.6221 4.79785 -65.6084 9.43945 -99.6484c0.338867 -1.30957 2.91211 -11.2295 16.2803 -61.835c0.130859 -0.496094 1.35254 -28.8281 -2.52344 -35.417c-9.5293 -16.1992 -10.1904 -17.3242 -16.4775 -18.7637
c-24.8818 -5.70117 -32.7549 -0.689453 -41.168 10.9844c-4.32715 6.00488 -33.7607 35.5029 -36.7197 38.917l-61.6787 71.1689c-1.66797 1.10254 -10.2266 6.70996 -35.9775 23.0215c-1.50488 0.456055 -8.71289 2.60938 -30.4775 8.70312
c-6.08496 -3.33887 -13.3389 -1.32617 -18.8428 -6.82812c-3.99219 -3.99316 -8.59766 -17.3682 -7.13281 -24.9424l34.0283 -45.7646c6.55566 -6.14453 41.3906 -36.5098 43.0977 -38.5723c50.8496 -61.4932 50.8496 -61.4932 51.0947 -61.8252
c36.9551 -50.0674 36.9551 -50.0674 37.2324 -50.502c33.3223 -52.3662 33.3223 -52.3662 33.7939 -53.458l25.7363 -59.6611c7.11035 -11.0225 34.5977 -52.4951 35.333 -53.8936c11.5801 -22.0029 11.5801 -22.0029 12.0166 -23.832
c8.61719 -36.1084 69.6426 -37.9062 70.4424 -37.9209l66.751 -1.19141zM761.09 -24.3662h-44.9717c-202.319 -8.40332 -202.319 -8.40332 -202.769 -8.39551l-67.2305 1.20117c-10.6748 0.200195 -83.5498 3.6084 -98.5498 58.9717l-9.55078 18.1455
c-34.9512 53.0215 -34.3574 51.2656 -36.4717 56.168l-25.458 59.0156l-31.7695 49.9238l-36.0977 48.9053l-49.5713 59.9482c-42.585 37.7158 -42.585 37.7158 -44.4561 40.2314l-34.7998 46.7998c-12.415 16.6953 -3.74805 49.2744 10.4404 63.4629
c8.31836 8.31934 16.1631 10.8604 27.793 13.001c6.43359 2.87598 13.6738 3.37402 20.3867 1.49512c31.6611 -8.86523 32.3496 -8.39746 37.9141 -11.9219c33.9746 -21.5176 36.5518 -22.3301 41.418 -27.1953c0.567383 -0.568359 -0.729492 -1.75488 63.0986 -72.7188
c33.2559 -36.9746 34.5537 -35.7881 39.3291 -42.2598c0.789062 0.0712891 1.87207 0.205078 3.23926 0.427734l1.60742 2.73242l0.717773 17.9326c-15.998 60.5342 -15.8203 58.8613 -16.3623 62.8135c-4.99902 36.3965 -0.602539 36.916 -9.58594 100.697
c-0.137695 0.981445 -1.93457 78.8662 -2.67188 99.0303c-2.39941 62.6641 -2.97363 60.1943 -2.03809 65.9912c2.9209 18.0986 9.65137 59.8115 44.8936 67.2441c29.3018 6.18066 57.7051 -21.3281 61.6025 -26.5654l4.36328 -5.86328
c11.71 37.1543 11.334 36.9072 14.0791 41.5742c36.2705 61.6904 113.373 41.3779 128.634 -3.01465l12.876 -37.459c17.9629 60.3604 90.2148 51.373 113.205 7.85547c0.269531 -0.415039 25.8271 -40.1221 26.79 -41.6055
c25.2168 32.5928 89.0762 38.0889 109.449 -42.8135c0.323242 -1.29004 0.5625 -2.59766 0.713867 -3.91309c6.1416 -53.4473 1.01367 -129.88 -4.52148 -195.747l16.6553 -258.157c0.338867 -5.24609 -0.693359 -10.5645 -3.09668 -15.3701l-32.0957 -64.1914
c-0.922852 -3.57715 -2.00293 -7.15039 -3.42578 -11.7422c-3.99512 -12.8896 -8.21191 -20.3164 5.45898 -77.6465c4.49512 -18.8457 -9.78809 -36.9883 -29.1719 -36.9883z" />
  </g>

</svg>
