<?xml version="1.0" standalone="no"?>
<!DOCTYPE svg PUBLIC "-//W3C//DTD SVG 1.1//EN" "http://www.w3.org/Graphics/SVG/1.1/DTD/svg11.dtd" >
<svg xmlns="http://www.w3.org/2000/svg" xmlns:xlink="http://www.w3.org/1999/xlink" version="1.1" viewBox="-10 0 1112 1000">
  <g transform="matrix(1 0 0 -1 0 800)">
   <path fill="currentColor"
d="M944.603 379.164zM512.843 669.636zM432.213 521.198zM746.373 327.121zM745.805 309.096zM505.769 376.121zM644.15 332.586zM1021.62 554.76zM432.213 521.198zM1021.62 554.76zM667.004 317.071zM319.251 16.5068l-1.97266 726.494h-254.008v-32.4951h219.501
v-659.506h-213.771l1.55078 -34.4932h248.7zM456.713 511.138c0 0.0409378 0 0.0409378 0.019535 0.688848l9.97745 -0.294703l-9.74338 1.42563l11.4078 42.7765l72.8671 103.16l3.26957 -1.25865c2.90306 6.83676 6.94304 16.351 18.2146 27.6225
c18.3931 18.3931 45.1266 29.6101 70.0303 29.6101c7.06936 0 18.8569 0 34.9416 -9.83895c0.700612 -2.37899 0.700612 -2.37899 1.17234 -2.58721c0.640035 -0.282514 1.97587 -0.61525 3.82231 -2.37039c13.622 -12.9434 34.9558 -19.7142 55.638 -19.7142
c3.29266 0 43.9038 0.52313 53.916 26.2068c0.390123 1.77985 1.42669 2.91326 2.93043 3.57949c13.2395 8.52184 29.9269 12.8221 46.175 12.8221c29.3411 0 42.6422 -12.368 53.6116 -22.5677c10.7495 -9.99538 20.7044 -18.925 44.2376 -34.4467
c0.383883 -0.725174 1.10226 -1.11585 1.81732 -1.50986l65.6239 -103.504c0.518198 -4.7448 0.30094 -0.519548 0.807934 -2.69655c15.8407 -63.2465 15.8407 -63.2465 15.8407 -71.2709c0 -26.1786 -19.5764 -48.224 -80.0935 -97.6771
c-54.1545 -44.2511 -93.4483 -60.0548 -214.498 -60.0548c-64.4473 0 -116.453 8.12872 -177.066 50.5576c-74.2149 51.9507 -85.0237 90.4163 -85.0237 124.572c0 2.30284 0.0425453 4.55808 0.103038 6.7703zM516.471 672.133h-3.7946l6.04546 3.0583zM516.471 672.133
l-80.4365 -109.291h-4.27556v-5.80675l-2.41118 -3.2753h1.42749l-8.44438 -31.665l-1.2607 0.0212271c-0.287001 -3.82348 -0.778083 -6.84046 -1.85949 -11.3855h1.39154c0.777666 -19.6729 2.33844 -59.1562 57.2779 -114.096
c77.5003 -77.5003 162.229 -90.1368 252.12 -90.1368c113.262 0 160.32 13.8527 229.323 68.3777c83.186 65.7314 84.9773 84.9361 87.4018 134.894l-2.60536 0.0428729c-2.55388 9.88249 -2.74093 10.6063 -5.23819 20.9396
c-4.86513 20.1313 -6.31677 24.9279 -8.93882 33.1543l0.106315 0.518074l-0.963422 0.464899l-58.4701 99.9137c-6.44171 6.7217 -6.44171 6.7217 -7.59789 8.50623h-0.548011c-48.8748 49.4691 -90.1631 72.9167 -131.065 72.9167
c-0.416506 0 -0.812065 -0.000661432 -1.18659 -0.000661432c-40.3913 0 -62.8916 -18.5537 -70.4023 -26.0644c-1.59743 -1.59743 -1.97706 -2.0273 -4.13552 -4.72634c-5.27919 -1.79385 -13.7153 -4.66041 -26.6995 -4.66041c-4.71188 0 -18.4453 0 -36.8408 7.77027
c-4.81994 5.65335 -21.0491 24.6887 -58.2227 24.6887c-42.3081 0 -93.3613 -25.8693 -112.609 -66.7973l-2.02371 -4.30326h-2.81227zM963.017 673.31l-2.21836 3.42397l6.29816 -3.42397h-4.07979zM1030.05 564.425l0.23247 0.917561l0.531543 -1.21377zM1046.72 509.77
c0.120851 2.49018 0.24042 5.06305 0.366639 7.72774l7.36575 -7.85498zM419.211 510.731c-0.603355 -2.53583 -1.39047 -5.54732 -2.42844 -9.43994l-7.24448 9.43994h9.67292zM421.07 522.116l-7.27095 0.122424l7.62158 7.24679
c-0.0979524 -2.95088 -0.193836 -5.2804 -0.350628 -7.36922zM429.348 553.76l-8.7895 -11.9395l-6.04493 11.9395h14.8344zM431.759 562.842h-7.49853l7.49853 7.49853v-7.49853zM862.277 -52.4726c-55.186 0.174691 -99.8568 45.0217 -99.8568 100.168
c0 55.2873 44.8833 100.169 100.169 100.169c55.293 0 100.169 -44.8881 100.169 -100.17c0 -54.5872 -44.0231 -100.167 -100.481 -100.167zM478.091 200.061v-9.79261l0.80564 -4.05997l-0.80564 0.333745v-2.51417
c-0.837838 -0.00052186 -1.67568 -0.00163944 -2.51351 -0.00163944l0.333016 -0.80382l-4.04276 0.802171c-3.27247 0 -6.54494 -0.00436509 -9.81741 -0.00436509l6.48172 6.48172l-0.815805 0.337956c1.55585 0.819216 2.7481 2.00204 3.56231 3.5629l0.338145 -0.8162z
M611.459 184.678c-1.31294 0 -66.9944 -0.620928 -131.293 -0.649517c-0.69196 0 -1.38392 -0.000922992 -2.07588 -0.000922992v-36.6627h290.599c-24.0393 -32.4949 -42.5399 -57.5031 -42.5399 -102.113c0 -71.7085 60.2655 -134.623 136.75 -134.623
c75.5378 0 136.831 61.2939 136.831 136.831c0 71.0453 -57.2729 134.945 -128.097 136.55c-43.4993 0.9866 -87.0208 1.31483 -130.55 1.31483c-43.2054 0 -86.4182 -0.3233 -129.624 -0.646922zM462.058 147.365h9.79261l4.05997 0.80564l-0.333745 -0.80564h2.51424
v-2.51424l0.80564 0.333745l-0.80564 -4.05997v-9.79261l-6.47414 6.47414l-0.337956 -0.815805c-0.819386 1.55571 -2.00164 2.74856 -3.56265 3.56265l0.815805 0.337956z" />
  </g>

</svg>
