<?xml version="1.0" standalone="no"?>
<!DOCTYPE svg PUBLIC "-//W3C//DTD SVG 1.1//EN" "http://www.w3.org/Graphics/SVG/1.1/DTD/svg11.dtd" >
<svg xmlns="http://www.w3.org/2000/svg" xmlns:xlink="http://www.w3.org/1999/xlink" version="1.1" viewBox="-10 0 1020 1000">
  <g transform="matrix(1 0 0 -1 0 800)">
   <path fill="currentColor"
d="M30.3242 741.553h55.5146l17.1611 52.2256l17.1602 -52.2256h55.5156l-44.8672 -32.2959l17.1611 -52.2246l-44.9697 32.2959l-44.9707 -32.2959l17.1611 52.2246zM271 608l-12 60c128.725 89.7881 355.203 55.3633 442.457 48.5605
c0 -0.0107422 0.000976562 -0.0214844 0.000976562 -0.0322266c27.4463 0.582031 75.1855 -1.32129 107.268 -33.4033c40.1396 -40.1396 38.6152 -108.841 37.5254 -169.365c-0.395508 -21.9258 -0.433594 -33.2402 -0.22168 -41.9463
c26.3789 -43.8281 72.168 -89.959 89.3252 -129.607c6.95117 -16.0635 5.49219 -24.7637 2.64551 -40.2051l-12 -14l-79.501 -63.5771v-212.431c1.93945 -31.0869 1.82422 -79.2412 -27.416 -108.48c-26.0322 -26.0322 -182.507 -12.0195 -220.584 -13.0049
l-2.90137 0.0126953c-103.732 -7.2998 -296.108 50.6025 -326.603 92.1719c-18.5059 25.2275 -31.4014 41.2529 -57.9951 55.3086v70.0371c25.8174 -16.2627 49.624 -17.8066 70.1904 -60.6357c44.2188 -92.082 349.455 -105.734 451.309 -108.438l-0.499023 -0.962891
c50 12 34.1514 4.48145 42.5352 13.5361c19.1768 20.7119 3.97852 41.9688 5.50781 57.9648h-0.541992v2.14941c-0.253906 0.990234 -0.500977 1.94141 -0.738281 2.84863h0.738281v207.174v3.4873v1.33887h1.58203l104 88h1.13281
c4.9834 45.8955 -62.8379 92.1289 -94.2158 139.501l-3 4l-1 1c-2.02051 3.99219 0.0439453 4.02539 -2.08398 11.5605c-0.0371094 0.130859 -0.189453 0.24707 -0.174805 0.367188l0.258789 2.07227l0.0644531 1.49902
c0.00976562 0.226562 0.150391 3.89551 0.242188 6.24414c3.11426 79.1523 5.19727 173.389 -83.8154 173.771c-136.35 16.7461 -373.536 9.53418 -431.49 -46.5137zM513.671 163.87c0 0.0566406 -0.144531 4.80957 -0.144531 5.57422
c0 0.71582 0.015625 1.47754 0.015625 1.49316c0 2.23242 -1.25293 5.02051 -4.58105 5.0918c-3.39355 0.0751953 -5.9502 0.131836 -6.00977 0.131836c-1.87891 0 -3.47754 -1.50391 -3.47754 -3.50977c0.0078125 -0.966797 0.0126953 -1.97656 0.0126953 -3.02441
c0 -19.8564 -1.88965 -53.3613 -21.2842 -78.8379c-1.91504 -2.51562 -9.47852 -13.0381 -13.9834 -18.8779c-0.480469 -0.623047 -0.72168 -1.37207 -0.72168 -2.12207c0 -0.500977 0.120117 -1.58594 1.04883 -2.49121c0 0 0.643555 -0.533203 5.87305 -4.67188
c0.628906 -0.5 1.39355 -0.749023 2.15625 -0.749023c1.96973 0 3.28418 1.19238 8.38281 9.1416c1.65137 2.57324 3.43652 5.36426 5.55078 8.05078c4.89941 6.22168 10.1191 14.4316 14.0273 23.2607l2.7998 6.32129c8.95117 -21.0576 11.8564 -26.2734 29.6641 -45.6514
c0.34375 -0.374023 1.2002 -1.12109 2.56348 -1.12109c1.71191 0 7.17578 4.12207 7.23438 4.18066c0.503906 0.503906 0.780273 1.18945 0.780273 1.8916c0 0.0341797 -0.151367 2.35449 -0.956055 3.22461c-6.95117 5.84082 -28.165 30.1709 -30.4238 54.459
c-0.222656 2.39746 -0.860352 -0.345703 -0.860352 4.55078c0 8.7002 2.33301 24.4336 2.33301 33.6846zM393.359 282.245c0 -32.4922 26.3672 -58.7324 58.71 -58.7324c28.7158 0 53.4199 21.8496 57.9746 49.3887l0.40918 2.4834l125.261 1.15723l-0.135742 14.7764
l-125.261 -1.15723c-1.19141 6.45801 -3.72266 20.1914 -16.8428 33.3115c-10.7734 10.7725 -25.5635 17.4834 -41.418 17.4834c-32.3496 0 -58.6973 -26.2793 -58.6973 -58.7109zM408.235 282.242c0 24.2881 19.7471 43.9375 43.9199 43.9375
c19.4824 0 37.1055 -13.8506 42.373 -32.3672l1.07812 -3.78711l-21.7051 -0.202148c-1.42773 3.03711 -2.52246 5.36523 -5.49707 8.33887c-4.24219 4.24219 -10.0996 7.0166 -16.248 7.0166c-12.5752 0 -22.9199 -10.2246 -22.9199 -22.9395
c0 -13.5879 11.2373 -22.9473 22.917 -22.9473c10.2139 0 17.9873 7.05664 21.1006 14.0039l0.785156 1.75293l21.6982 0.200195c-1.9375 -7.2627 -4.05469 -15.1963 -12.6768 -23.8193c-9.08691 -9.08594 -20.0693 -13.1006 -30.7822 -13.1006
c-22.8516 0 -44.043 18.1543 -44.043 43.9131zM515.243 547.487c-3.42773 2.18555 -6.67285 3.36719 -10.7627 9.1875c-0.734375 4.4209 -3.01465 7.69434 -0.261719 14.7002c1.77539 3.51855 4.28613 6.54199 8.13672 8.66309
c3.67578 1.13672 7.61328 2.01172 11.2881 2.09961c4.35352 -0.693359 9.71094 -3.25293 10.7627 -5.5127l3.6748 -5.5127l9.97461 8.92578c4.25781 3.63379 10.5693 9.22949 12.6436 14.2617l2.10059 7.35059s18.0244 -0.350586 17.5 -0.350586
c-0.525391 0 1.39941 -181.3 1.39941 -181.3h-21.6992v144.9l-17.1504 -12.6006c-3.7666 -3.62305 -8.0498 -6.2998 -12.9502 -9.7998c-3.85547 -2.38965 -9.49219 -6.22266 -14 -7.7002c0 0 -0.130859 4.55078 -0.65625 12.6875z" />
  </g>

</svg>
