<?xml version="1.0" standalone="no"?>
<!DOCTYPE svg PUBLIC "-//W3C//DTD SVG 1.1//EN" "http://www.w3.org/Graphics/SVG/1.1/DTD/svg11.dtd" >
<svg xmlns="http://www.w3.org/2000/svg" xmlns:xlink="http://www.w3.org/1999/xlink" version="1.1" viewBox="-10 0 650 1000">
  <g transform="matrix(1 0 0 -1 0 800)">
   <path fill="currentColor"
d="M180.406 301.18zM178.662 345.279zM478.328 305.629zM477.023 346.426zM555.895 371.631l2.10938 4.11523l2.01562 4.15234l1.82812 4.20117l0.630859 32.9941l-20.5762 20.9492l-28.4922 8.03711l-27.791 -6.47461l-12.8672 -14.5586l-3.41211 -9.73047
l0.0351562 -18.1953l3.55273 -22.4102l2.82422 -29.4316h-297.09l-0.169922 -5.37695l-0.0078125 -5.39648v0l0.710938 -14.6465l0.640625 -9.46289l0.570312 -9.2168h293.363l-0.306641 -10.7988l0.25 -10.7832l1.0332 -10.6914l8.55273 -29.043l11.7969 -16.0977
l9.5957 -6.67188l23.0176 -1.55664l17.5391 11.502l10.6836 12.5781l13.2051 23.3828l1.07227 19.8887l-9.42578 20.2109l-12.334 21.748l-2.44922 20.1523zM476.555 345.279v0.900391c0.332031 -0.410156 1.50195 -1.10156 0 -0.900391zM180.406 301.18l-1.74414 44.0996v0
c0.386719 9.51367 1.48047 18.9922 2.98828 28.3945c1.14648 7.15234 2.55273 14.2676 3.39258 21.4609c0.6875 5.91797 0.931641 11.9414 -0.103516 17.8066c-1.4707 8.3418 -5.7832 16.1855 -12.2129 21.6973c-6.43164 5.51367 -14.6484 8.69922 -23.0332 9.9043
c-8.76953 1.26172 -17.7949 0.521484 -26.334 -1.85156c-8.53711 -2.375 -16.6621 -6.44531 -23.3281 -12.2832c-6.85547 -6.00586 -12.0547 -14.0371 -14.0215 -22.9375c-1.96289 -8.90039 -0.464844 -18.3066 2.98047 -26.7441
c1.46484 -3.58594 3.2207 -7.04492 4.99414 -10.4902c1.96289 -3.81641 3.94336 -7.62695 5.67578 -11.5547c1.72461 -3.91406 3.21094 -7.94531 4.18359 -12.1113c1.22461 -5.24414 1.56641 -10.7266 0.658203 -16.0352
c-0.845703 -4.93945 -2.73242 -9.65039 -5.06641 -14.0859c-2.74219 -5.21094 -6.05664 -10.0977 -9.2207 -15.0684c-4.15039 -6.52148 -8.0625 -13.3691 -9.70117 -20.9238c-1.47656 -6.79883 -0.990234 -13.9668 1.10742 -20.6016
c2.78516 -8.79883 7.97461 -16.6328 13.5117 -24.0156c3.39062 -4.51758 6.97461 -8.90234 10.9805 -12.8848c5.20898 -5.17969 11.3086 -9.65234 18.3027 -11.8945c7.88477 -2.52734 16.7109 -1.88086 24.1719 1.70703c3.66992 1.76367 7.01953 4.1582 10 6.93164
c5.04102 4.68555 9.06055 10.4082 12.1758 16.5469c4.69727 9.24805 7.35547 19.4316 8.78125 29.707c0.539062 3.88477 0.896484 7.79297 1.09375 11.7109c0.201172 3.91992 0.244141 7.8457 0.191406 11.7715c-0.0527344 3.91602 -0.197266 7.83203 -0.423828 11.7441v0v0
zM476.555 301.18c-0.201172 -1.50391 0.490234 -0.333984 0.900391 0h-0.900391z" />
  </g>

</svg>
