<?xml version="1.0" standalone="no"?>
<!DOCTYPE svg PUBLIC "-//W3C//DTD SVG 1.1//EN" "http://www.w3.org/Graphics/SVG/1.1/DTD/svg11.dtd" >
<svg xmlns="http://www.w3.org/2000/svg" xmlns:xlink="http://www.w3.org/1999/xlink" version="1.1" viewBox="-10 0 758 1000">
  <g transform="matrix(1 0 0 -1 0 800)">
   <path fill="currentColor"
d="M444.301 61.1113l-82.6367 -89.4248l-71.6748 94.2041l14.3301 12.6797l50.1846 -69.2002l10.3301 239.471l22.6992 -2.47266l-15.3545 -237.891l59.0234 65.9795zM364.289 514.616h-12.6494l0.606445 0.594727c-23.5391 2.33789 -46.2041 11.5938 -63.1318 28.1924
c-15.9658 15.6572 -21.6611 31.9434 -25.1924 44.668l-17.0928 -3.85547c3.81836 -14.5908 10.2266 -34.0107 29.3252 -52.7412c22.9512 -22.5059 55.1318 -33.6602 87.7334 -33.6602c34.2832 0 68.7695 12.3555 93.0322 36.1475
c18.6357 18.2754 25.2197 36.3438 29.3037 50.1865l-17.0557 4.68262c-1.93848 -6.72461 -7.42188 -25.7402 -25.3633 -43.334c-21.0898 -20.6807 -50.5889 -30.8809 -79.5156 -30.8809zM367.424 774.149c-121.59 0 -220.509 -79.3848 -220.509 -176.845
s98.9189 -176.701 220.509 -176.701c121.591 0 220.511 79.3838 220.511 176.844c0 97.4619 -98.9199 176.702 -220.511 176.702zM367.424 437.444c-112.036 0 -203.335 71.7852 -203.335 160.003c0 88.2256 91.3076 159.86 203.335 159.86
c112.036 0 203.336 -71.7842 203.336 -160.003c0 -88.2246 -91.3086 -159.86 -203.336 -159.86z" />
  </g>

</svg>
