<?xml version="1.0" standalone="no"?>
<!DOCTYPE svg PUBLIC "-//W3C//DTD SVG 1.1//EN" "http://www.w3.org/Graphics/SVG/1.1/DTD/svg11.dtd" >
<svg xmlns="http://www.w3.org/2000/svg" xmlns:xlink="http://www.w3.org/1999/xlink" version="1.1" viewBox="-10 0 1016 1000">
  <g transform="matrix(1 0 0 -1 0 800)">
   <path fill="currentColor"
d="M127.374 215.348c17.1154 -184.995 174.644 -331.294 368.85 -331.294c190.423 0 347.918 142.621 368.627 327.54c-114.213 -40.4987 -235.692 -62.5368 -360.85 -62.5368c-129.07 0 -258.152 22.0759 -376.626 66.2909zM915.944 230.171
c-7.9227 -217.86 -190.068 -388.336 -411.944 -388.336c-221.166 0 -410.645 180.986 -419.639 398.031c-2.1793 3.87998 -3.1191 7.71264 -3.1191 11.3037c0 14.9228 15.3138 21.1565 15.5589 21.2531c129.076 50.846 269.969 82.1879 411.089 82.1879
c171.506 0 314.512 -45.4854 391.895 -74.5038c5.90796 -2.95435 20.0482 -11.9349 20.0482 -30.2174c0 -9.09212 -3.88867 -13.451 -3.88867 -19.4434v-0.274585zM863.198 248.883c-111.744 42.69 -233.74 67.3961 -359.198 67.3961
c-124.373 0 -248.873 -24.2963 -360.146 -66.2898c114.43 -42.1363 235.531 -66.4766 360.031 -66.4915c123.312 3.74864 246.612 25.5674 359.312 65.3851zM96.6396 246.825l-9.69155 -0.274509l-1.20367 -8.06806l0.453474 -1.04153l9.54946 0.560204z" />
  </g>

</svg>
