<?xml version="1.0" standalone="no"?>
<!DOCTYPE svg PUBLIC "-//W3C//DTD SVG 1.1//EN" "http://www.w3.org/Graphics/SVG/1.1/DTD/svg11.dtd" >
<svg xmlns="http://www.w3.org/2000/svg" xmlns:xlink="http://www.w3.org/1999/xlink" version="1.1" viewBox="-10 0 784 1000">
  <g transform="matrix(1 0 0 -1 0 800)">
   <path fill="currentColor"
d="M43.4365 220.404c-11.959 33.6533 -0.65332 93.6406 25.0752 133.051c20.1221 30.8184 84.0928 95.5986 101.505 102.791c8.03613 3.32129 9.6084 2.17188 8.82715 -6.44727c-0.785156 -8.65332 2.16309 -10.5557 16.8711 -10.8838l17.8223 -0.394531l-14.2002 -16.2158
l-14.1992 -16.2158l29.1572 -2.6416c16.0342 -1.4541 30.0684 -3.7334 31.1885 -5.06738c1.11914 -1.33398 -4.10059 -7.57129 -11.5977 -13.8623c-7.49609 -6.29102 -12.9258 -12.2783 -12.0625 -13.3086c0.864258 -1.02832 14.3486 -5.68164 29.9639 -10.333
l28.3965 -8.46191l-6.02637 -22.584l-6.02344 -22.5879l15.9551 0.136719l15.957 0.139648l-5.61621 -16.666l-5.61621 -16.6641l34.2441 -0.09375l34.2451 -0.0927734l-5.41895 -42.1406l-5.41895 -42.1416l-39.8818 -25.9766
c-96.584 -62.9072 -178.588 -60.1748 -234.17 7.80469c-11.2998 13.8184 -24.3389 35.8047 -28.9766 48.8564zM137.125 142.17c43.1045 -18.2568 102.92 -5.53906 165.176 35.1172c23.8682 15.5869 24.5566 16.6768 30.7939 48.7041l6.37891 32.7578l-36.8066 -0.000976563
l-36.8066 -0.00390625l5.34375 16.7012l5.34473 16.7012l-14.9443 -2.55469l-14.9434 -2.55469l6.00977 27.0449l6.00879 27.0449l-33.5957 10.293l-33.5967 10.29l11.2393 9.43262c14.4785 12.1475 11.6543 14.8564 -19.7822 18.9736
c-14.2197 1.86133 -26.9736 4.59961 -28.3418 6.08594c-1.36621 1.48828 3.90137 8.0625 11.7061 14.6104c11.3545 9.52637 12.335 12.0625 4.90918 12.6875c-5.10352 0.429688 -8.88574 3.3877 -8.40234 6.57617c0.482422 3.1875 -15.1221 -9.16992 -34.6787 -27.4619
c-73.5479 -68.7959 -92.9727 -139.081 -56.8125 -205.576c10.2129 -18.7793 40.7812 -44.2686 65.8008 -54.8682zM553.101 119.386c-34.6143 11.292 -84.9248 43.9551 -111.697 72.5215l-21.7373 23.1924l35.0205 0.249023l35.0205 0.25v38.8477v38.8486l17.4678 -3.4375
c17.3291 -3.41113 17.4443 -3.2959 14.5156 14.4678l-2.95312 17.9053l21.8818 -2.11133l21.8818 -2.10938l8.31543 34.2461l8.31543 34.2471l12.8291 -12.2393l12.8281 -12.2393l4.04688 35.7383l4.04785 35.7373l12.8369 -12.2832
c17.1084 -16.3662 18.5596 -15.7236 18.5596 8.22461c0 17.4014 1.65723 20.5049 10.9463 20.5049c23.6787 0 65.5156 -103.706 69.8457 -173.135c7.66699 -122.965 -67.2842 -191.576 -171.972 -157.426v0zM641 134c25.0361 8.43164 54.1064 41.6494 64.0283 73.1641
c15.9141 50.5371 2 134.607 -32.957 199.127l-15.7139 29.0078l-1.46582 -30.9375l-1.46582 -30.9365l-12.4688 11.8965c-17.5811 16.7715 -20.8281 15.0479 -20.8281 -11.0586c0 -38.2422 -3.43457 -43.4941 -19.4121 -29.6943l-13.5732 11.7207l-6.82715 -24.9395
c-6.36816 -23.2607 -8.12793 -25.0596 -26.1104 -26.6904c-18.5898 -1.6875 -19.2031 -2.4043 -17.082 -19.9365c2.17676 -17.9834 2.00391 -18.1484 -15.3623 -14.7305l-17.5625 3.45703v-37.3916v-37.3936l-22.9453 -1.78418l-22.9443 -1.78613l25.5986 -19.165
c53.0674 -39.7305 114.744 -56.1914 157.092 -41.9287z" />
  </g>

</svg>
