<?xml version="1.0" standalone="no"?>
<!DOCTYPE svg PUBLIC "-//W3C//DTD SVG 1.1//EN" "http://www.w3.org/Graphics/SVG/1.1/DTD/svg11.dtd" >
<svg xmlns="http://www.w3.org/2000/svg" xmlns:xlink="http://www.w3.org/1999/xlink" version="1.1" viewBox="-10 0 714 1000">
  <g transform="matrix(1 0 0 -1 0 800)">
   <path fill="currentColor"
d="M390.725 620.952c1.21495 -21.5791 -0.93874 -54.8725 -4.0668 -91.4163c10.9776 14.8745 28.6148 24.597 48.3422 24.597c32.9463 0 60.0654 -27.1191 60.0654 -60.0664s-27.1191 -60.0664 -60.0654 -60.0664c-23.5772 0 -44.1689 13.8874 -53.9743 33.8601
c-6.45361 -69.7279 -11.7391 -134.657 -0.541313 -140.645c19.7199 -212.002 220.888 -410.389 229.992 -411.716l-35.2459 -23.4985c-80.0117 87.2725 -169.289 173.641 -237.32 410.119c-15.1426 -104.125 -80.1836 -220.75 -138.623 -294.967
c-35.5605 -45.1582 -50.8027 -81.2832 -81.2871 -115.152l-40.6426 32.1758c45.7246 59.2695 71.3887 97.4727 101.609 137.168c154.291 202.679 160.744 468.783 159.551 609.757c14.3574 -0.31543 28.7129 -0.631836 43.0723 -0.948242
c8.07617 -0.175781 8.4043 -8.02832 8.54688 -11.377c0.015625 -0.380859 -0.525391 -18.0234 0.587891 -37.8232zM610.476 -84.5015c0.205079 -0.0298892 0.312701 0.0402148 0.318595 0.212409z" />
  </g>

</svg>
