<?xml version="1.0" standalone="no"?>
<!DOCTYPE svg PUBLIC "-//W3C//DTD SVG 1.1//EN" "http://www.w3.org/Graphics/SVG/1.1/DTD/svg11.dtd" >
<svg xmlns="http://www.w3.org/2000/svg" xmlns:xlink="http://www.w3.org/1999/xlink" version="1.1" viewBox="-10 0 977 1000">
  <g transform="matrix(1 0 0 -1 0 800)">
   <path fill="currentColor"
d="M346.323 105.357l-17.3232 -19.3574c-36.4453 37.0449 -72.4531 73.4209 -107.917 108.967l-108.967 -108.966l-18.6787 18.6787l108.976 108.976c-36.5127 36.4941 -72.4258 72.0703 -107.622 106.554l17.3252 19.3564l108.103 -108.104l107.425 107.426
l18.6797 -18.6797l-107.425 -107.426zM330.323 491.357l-17.3232 -19.3574c-36.4453 37.0449 -72.4531 73.4209 -107.917 108.967l-108.967 -108.966l-18.6787 18.6787l108.976 108.976c-36.5127 36.4941 -72.4258 72.0703 -107.622 106.554l17.3252 19.3564
l108.103 -108.104l107.425 107.426l18.6797 -18.6797l-107.425 -107.426zM682.996 368.797c121.248 0 220.002 -76.9473 220.002 -171.399c0 -94.457 -98.7598 -171.401 -220.002 -171.401c-121.249 0 -220.002 76.9482 -220.002 171.401
c0 94.4551 98.7598 171.399 220.002 171.399zM683.004 -2.00195c140.437 0 253.398 89.9268 253.398 201.199c0 111.265 -112.952 201.197 -253.398 201.197c-140.445 0 -253.397 -89.9346 -253.397 -201.197c0 -111.266 112.952 -201.199 253.397 -201.199zM590.958 136.69
h186.869l35.7363 113.392l-76.8213 -33.3994l-56.1455 69.7314l-56.3105 -69.7275l-78.6123 34.3701zM636.982 184.746l44.1494 55.5244l57.7539 -79.0068l-123.668 0.475586l-17.5371 40.2725c13.1006 -5.75488 26.2012 -11.5107 39.3018 -17.2656zM677.696 161.497
l83.918 37.3008l-15.9463 -37.5596zM869.8 615.926l-127.31 110.118l-19.8818 -22.6006l87.7939 -73.4863l-311.555 -0.362305l1.6377 -31.1436l309.689 2.50195l-83.8438 -70.5752l21.1455 -22.3672z" />
  </g>

</svg>
