<?xml version="1.0" standalone="no"?>
<!DOCTYPE svg PUBLIC "-//W3C//DTD SVG 1.1//EN" "http://www.w3.org/Graphics/SVG/1.1/DTD/svg11.dtd" >
<svg xmlns="http://www.w3.org/2000/svg" xmlns:xlink="http://www.w3.org/1999/xlink" version="1.1" viewBox="-10 0 1023 1000">
  <g transform="matrix(1 0 0 -1 0 800)">
   <path fill="currentColor"
d="M614 422zM307 425zM168 243zM784.003 224.003h-268.006v-112.006h268.006v112.006zM486.003 253.997c101.994 -0.100209 204.39 0.20101 306.132 -0.151682l15.5744 -2.22491l6.28739 -15.7185v-153.899h-327.994v171.994zM588.003 298.997v112.057l-267.065 0.917747
l-0.830699 -112.975h267.895zM610 435c6.51896 -1.74631 7.99706 -9.08947 7.99706 -16v-149.997h-328.105l1.13678 154.603c4.63668 9.27335 2.99186 12.7263 5.36451 13.0009c3.98121 9.64844 38.6523 2.10254 46.6064 5.39355l-9.26503 -0.0775427l256.265 -0.880636
c7.55785 -0.025972 15.0519 2.0819 20 -6.04182zM437.003 225.003h-266.293l-1.71279 -2.99739v-109.008h268.006v112.006zM158 256l308.997 -1.00294v-171.994h-327.994l-1.00001 147.991c4.18848 8.33496 10.7002 16.6719 19.9971 25.0059z" />
  </g>

</svg>
