<?xml version="1.0" standalone="no"?>
<!DOCTYPE svg PUBLIC "-//W3C//DTD SVG 1.1//EN" "http://www.w3.org/Graphics/SVG/1.1/DTD/svg11.dtd" >
<svg xmlns="http://www.w3.org/2000/svg" xmlns:xlink="http://www.w3.org/1999/xlink" version="1.1" viewBox="-10 0 1051 1000">
  <g transform="matrix(1 0 0 -1 0 800)">
   <path fill="currentColor"
d="M271 608l-12 60c128.725 89.7881 355.203 55.3633 442.457 48.5605c0 -0.0107422 0.000976562 -0.0214844 0.000976562 -0.0322266c27.4463 0.582031 75.1855 -1.32129 107.268 -33.4033c40.1396 -40.1396 38.6152 -108.841 37.5254 -169.365
c-0.395508 -21.9258 -0.433594 -33.2402 -0.22168 -41.9463c26.3789 -43.8281 72.168 -89.959 89.3252 -129.607c6.95117 -16.0635 5.49219 -24.7637 2.64551 -40.2051l-12 -14l-79.501 -63.5771v-212.431c1.93945 -31.0869 1.82422 -79.2412 -27.416 -108.48
c-26.0322 -26.0322 -182.507 -12.0195 -220.584 -13.0049l-2.90137 0.0126953c-103.732 -7.2998 -296.108 50.6025 -326.603 92.1719c-18.5059 25.2275 -31.4014 41.2529 -57.9951 55.3086v70.0371c25.8174 -16.2627 49.624 -17.8066 70.1904 -60.6357
c44.2188 -92.082 349.455 -105.734 451.309 -108.438l-0.499023 -0.962891c50 12 34.1514 4.48145 42.5352 13.5361c19.1768 20.7119 3.97852 41.9688 5.50781 57.9648h-0.541992v2.14941c-0.253906 0.990234 -0.500977 1.94141 -0.738281 2.84863h0.738281v207.174v3.4873
v1.33887h1.58203l104 88h1.13281c4.9834 45.8955 -62.8379 92.1289 -94.2158 139.501l-3 4l-1 1c-2.02051 3.99219 0.0439453 4.02539 -2.08398 11.5605c-0.0371094 0.130859 -0.189453 0.24707 -0.174805 0.367188l0.258789 2.07227l0.0644531 1.49902
c0.00976562 0.226562 0.150391 3.89551 0.242188 6.24414c3.11426 79.1523 14.1973 176.389 -74.8154 176.771c-136.35 16.7461 -373.536 9.53418 -431.49 -46.5137zM30.3545 728.521h55.5146l17.1611 52.2256l17.1602 -52.2256h55.5156l-44.8672 -32.2959l17.1611 -52.2246
l-44.9697 32.2959l-44.9707 -32.2959l17.1611 52.2246zM332.676 140.077c-0.823242 0 -1.48633 0.667969 -1.48633 1.48535l1.4248 41.0029c-4.1416 4.95801 -8.38965 9.59863 -12.5732 14.168c-18.4443 20.1445 -35.7051 39.042 -35.7656 77.1592
c-0.0498047 31.7656 16.4805 47.7832 22.9512 54.3652c20.0518 20.3975 42.4814 25.2549 56.5146 25.2549c1.27637 0 2.89062 1.08203 4.57324 1.00293c41.4785 -1.95117 50.3301 -5.23242 71.4639 -23.6133c2.72754 -2.37305 3.52148 -4.30762 3.87695 -6.13379
c0.0634766 -0.330078 0.0996094 -0.458984 0.112305 -0.499023c9.68359 -11.1738 16.4775 -40.541 17.0049 -49.082c0.0361328 -0.579102 0.123047 -1.25195 0.222656 -2.0127c0.283203 -2.15039 0.658203 -4.99219 0.0322266 -8.56836
c-8.61719 -49.2139 -32.0361 -63.377 -34.79 -71.0928c-0.150391 -0.420898 -0.289062 -0.490234 -0.348633 -0.549805c-0.657227 -0.65625 -6.34668 -3.55762 -10.918 -5.70703c-0.573242 -1.63477 -0.573242 -1.63477 -0.864258 -1.9375
c-0.134766 -0.517578 -0.257812 -1.43262 -0.257812 -1.43262l-0.848633 -41.8867c-0.015625 -0.804688 -0.668945 -1.44922 -1.47461 -1.4541zM443.705 324.335l-0.0976562 0.0849609l-0.898438 -1.17285zM439.535 329.631l-0.983398 0.405273l-0.983398 -2.46484z
M375.311 343.167c-23.8145 0 -33.4336 -3.79199 -53.2334 -18.4727c-5.22168 -5.22168 -25.6641 -21.3027 -25.7324 -48.4883c-0.0908203 -35.7871 15.5059 -52.6348 23.8828 -61.0127c4.1748 -4.17383 4.1748 -4.17383 4.86621 -5.20703
c1.36719 -2.04102 1.36719 -2.04102 10.2373 -11.6572c2.03711 -0.500977 5.15137 -1.78418 8.30957 -5.06738c1.72754 -1.79492 1.0293 -8.45996 0.709961 -11.5088l-0.28418 -34.6729l55.0215 -0.282227l2.58789 42.5557
c0.0244141 0.40332 0.210938 0.777344 0.522461 1.04199c1.82812 1.55859 1.87598 1.59961 2.82324 2.54688c0.935547 0.93457 3.64844 3.58398 6.03516 4.2793c0.865234 0.251953 2.07129 2.64355 4.57812 4.5166c11.9902 8.96387 29.7373 31.5254 31.9414 64.043
c0.322266 4.75684 -0.413086 9.94727 -1.35059 15.5146c-1.98633 11.7832 -4.89746 28.5283 -13.8564 38.9668c-1.39258 1.14746 -1.81543 1.5293 -8.22852 7.94141c-11.4717 11.4727 -30.4668 14.9629 -48.8301 14.9629zM547.68 169.528v18.333h27.5898v22.1914h-27.5898
v18.333h27.5898v24.082h15.9883v-24.082h23.0137v22.3242h15.9883v-22.3242h29.4941v-18.333h-29.4941v-22.1914h29.4941v-18.333h-29.4941v-25.8477h-15.9883v25.8477h-23.0137v-24.0898h-15.9883v24.0898h-27.5898zM602.659 273.469l-54.1631 98.0508l11.2627 4.75781
l43.2412 -74.2773l39.4219 75.0068l13.417 -5.43359zM614.271 210.053h-23.0137v-22.1914h23.0137v22.1914zM378.676 422.077l-66.166 122.556l9.59961 4.05566l57.4004 -99.7998l56.0225 105l12.9775 -5.25586zM574.242 514.521l30.1201 43.7754
c1.86035 2.70312 5.88965 2.70996 7.8252 0.248047l36.6318 -46.6094c1.72559 -2.19629 1.19727 -5.5 -1.12695 -7.04883c-0.524414 -0.348633 -1.14844 -0.599609 -1.7334 -0.71875l-6.24121 -1.25879c-1.80957 -0.365234 -3.71387 0.40332 -4.78125 1.75879
l-19.6768 25.0127l0.950195 -100.379c0.0273438 -2.8291 -2.47363 -5.03906 -5.11523 -4.89844l-5.96973 0.314453c-2.65039 0.138672 -4.61523 2.5 -4.60449 4.87598l0.46875 98.8887l-16.0283 -23.2529c-1.58496 -2.2998 -4.89648 -2.77539 -7.06543 -1.01367
c-0.330078 0.267578 -0.850586 0.891602 -0.882812 0.9375l-2.71387 3.77832c-1.25488 1.74609 -1.02832 4.17871 -0.0566406 5.58984z" />
  </g>

</svg>
