<?xml version="1.0" standalone="no"?>
<!DOCTYPE svg PUBLIC "-//W3C//DTD SVG 1.1//EN" "http://www.w3.org/Graphics/SVG/1.1/DTD/svg11.dtd" >
<svg xmlns="http://www.w3.org/2000/svg" xmlns:xlink="http://www.w3.org/1999/xlink" version="1.1" viewBox="-10 0 564 1000">
  <g transform="matrix(1 0 0 -1 0 800)">
   <path fill="currentColor"
d="M452.953 491.649c0.238281 0.00976563 15.2988 0.00195313 15.3027 0.00976563c-4.63867 19.457 -3.33496 25.7217 -1.64355 31.1807c0.015625 0.0498047 1.3252 4.5752 1.50391 4.93262l10.9404 21.8818c-5.59961 86.7998 -5.59961 86.7998 -5.56836 87.1729
c1.83984 21.8379 3.44434 47.3105 1.56836 63.627c-4.87598 19.3662 -16.9746 15.2803 -19.8008 9.08496c-0.999023 -2.18848 -2.12402 -2.44629 -5.0293 -3.1123c-2.25781 -2.01953 -5.80859 -1.57715 -7.49805 0.96582
c-2.11719 3.18945 -11.9121 18.3564 -12.1699 18.8604c-3.54199 6.9375 -17.2061 11.2051 -19.8174 -2.52832c-0.0947266 -0.496094 -0.0947266 -0.496094 -4.75879 -11.8643c-1.7373 -4.23535 -7.86328 -4.05957 -9.35156 0.271484l-8.77344 25.5225
c-2.3457 6.82324 -16.9805 12.2715 -24.7109 -0.649414c-0.142578 -0.424805 -1.18652 -3.58984 -6.82715 -21.2832c-1.22656 -3.84668 -6.34473 -4.72461 -8.77734 -1.45703c-7.21582 9.69629 -7.21582 9.69629 -7.34375 9.82422
c-0.046875 0.0478516 -8.24121 8.22852 -12.8838 3.58594c-2.54297 -2.54199 -3.98047 -8.74902 -4.61328 -12.5547c0.0175781 -0.570312 0.130859 -3.93848 0.755859 -20.2744c0.37207 -10.1729 0.824219 -31.9121 0.833984 -32.2354
c2.97656 -21.207 1.59961 -21.8691 3.14648 -33.2158c0.113281 -0.436523 0.970703 -3.74316 5.42676 -20.6113c0.0439453 -0.166016 0.451172 -9.61035 -0.84082 -11.8057c-3.17676 -5.40039 -3.39648 -5.77539 -5.49219 -6.25488
c-8.29395 -1.90039 -10.9189 -0.229492 -13.7227 3.66113c-1.44238 2.00195 -11.2539 11.835 -12.2402 12.9727l-20.5596 23.7236c-0.555664 0.367188 -3.40918 2.23633 -11.9922 7.67383c-0.501953 0.151367 -2.90527 0.869141 -10.1592 2.90039
c-2.0293 -1.11328 -4.44727 -0.442383 -6.28125 -2.27637c-1.33105 -1.33008 -2.86621 -5.78906 -2.37793 -8.31348l11.3428 -15.2549c2.18555 -2.04883 13.7969 -12.1699 14.3662 -12.8574c16.9502 -20.498 16.9502 -20.498 17.0312 -20.6094
c12.3184 -16.6885 12.3184 -16.6885 12.4111 -16.834c11.1074 -17.4551 11.1074 -17.4551 11.2646 -17.8184l8.5791 -19.8877c2.36914 -3.67383 11.5322 -17.498 11.7773 -17.9639c3.85938 -7.33496 3.85938 -7.33496 4.00586 -7.94434
c2.87207 -12.0361 23.2139 -12.6357 23.4805 -12.6406l22.25 -0.397461zM468.257 481.656h-14.9902c-67.4404 -2.80176 -67.4404 -2.80176 -67.5898 -2.79883l-22.4092 0.400391c-3.55859 0.0673828 -27.8506 1.20312 -32.8506 19.6572l-3.18359 6.04883
c-11.6504 17.6738 -11.4521 17.0889 -12.1572 18.7227l-8.48633 19.6719l-10.5898 16.6416l-12.0322 16.3018l-16.5244 19.9824c-14.1943 12.5723 -14.1943 12.5723 -14.8184 13.4102l-11.5996 15.6006c-4.13867 5.56445 -1.25 16.4248 3.48047 21.1543
c2.77246 2.77344 5.38672 3.62012 9.26367 4.33398c2.14453 0.958008 4.55859 1.12402 6.7959 0.498047c10.5537 -2.95508 10.7832 -2.79883 12.6377 -3.97461c11.3252 -7.17188 12.1846 -7.44238 13.8066 -9.06445
c0.188477 -0.189453 -0.243164 -0.584961 21.0322 -24.2402c11.085 -12.3252 11.5186 -11.9287 13.1104 -14.0859c0.262695 0.0234375 0.623047 0.0683594 1.0791 0.141602l0.536133 0.911133l0.239258 5.97754c-5.33301 20.1787 -5.27344 19.6211 -5.4541 20.9385
c-1.66602 12.1318 -0.201172 12.3047 -3.19531 33.5654c-0.0458984 0.327148 -0.644531 26.2891 -0.890625 33.0098c-0.799805 20.8887 -0.991211 20.0654 -0.679688 21.9971c0.973633 6.0332 3.21777 19.9375 14.9648 22.415
c9.76758 2.06055 19.2354 -7.10938 20.5342 -8.85449l1.4541 -1.95508c3.90332 12.3848 3.77832 12.3027 4.69336 13.8584c12.0898 20.5635 37.791 13.793 42.8779 -1.00488l4.29199 -12.4863c5.9873 20.1201 30.0713 17.124 37.7354 2.61816
c0.0888672 -0.138672 8.6084 -13.374 8.92969 -13.8682c8.40527 10.8643 29.6924 12.6963 36.4834 -14.2715c0.107422 -0.429688 0.1875 -0.866211 0.237305 -1.30469c2.04785 -17.8154 0.337891 -43.293 -1.50684 -65.248l5.55176 -86.0527
c0.112305 -1.74902 -0.231445 -3.52148 -1.03223 -5.12402l-10.6982 -21.3965c-0.307617 -1.19336 -0.667969 -2.38379 -1.14258 -3.91406c-1.33105 -4.29688 -2.7373 -6.77246 1.81934 -25.8828c1.49902 -6.28125 -3.26172 -12.3291 -9.72363 -12.3291zM152.216 461.649
h-113.267l-1.05664 23.4854h89.9912v267.994h-92.1895v22.6465h115.668zM45.1846 432.223h465.818v-170.974h-465.818v170.974zM69.3496 279.414h417.503l0.425781 134.644h-85.1719v-84.0576h-24.165v84.0576h-89.8877v-84.0576h-24.165v84.0576h-89.8887v-84.0576h-24.165
v84.0576h-80.4854v-134.644zM265.363 202.515h33.0107c0.635742 -8.75781 1.98633 -27.3906 1.98633 -50.8906c0 -21.9004 -1.19434 -42.3428 -3.35156 -61.4385c3.97168 -44.1377 19.2109 -95.7051 89.1523 -183.313l-32.0547 -11.8721
c-29.3867 42.0342 -56.5918 84.54 -68.3887 132.994c-14.3721 -56.1924 -37.1914 -97.5469 -58.6055 -128.854l-30.7949 8.29102c37.0469 67.0762 70.9492 133.332 70.9492 246.631c0 14.541 -0.458984 28.4209 -1.90332 48.4531z" />
  </g>

</svg>
