<?xml version="1.0" standalone="no"?>
<!DOCTYPE svg PUBLIC "-//W3C//DTD SVG 1.1//EN" "http://www.w3.org/Graphics/SVG/1.1/DTD/svg11.dtd" >
<svg xmlns="http://www.w3.org/2000/svg" xmlns:xlink="http://www.w3.org/1999/xlink" version="1.1" viewBox="-10 0 1177 1000">
  <g transform="matrix(1 0 0 -1 0 800)">
   <path fill="currentColor"
d="M976 677.807v-53.8662l-189 5.05957l-8 -180c-125.396 67.4805 -247.801 111.348 -368.199 187.369c-0.969727 0.612305 -18.7783 11.5176 -18.959 11.6475c-4.37695 3.13672 -24.3232 19.0625 -26.001 19.7568l2.06152 -0.357422l-17.1025 15.2559
c42.1572 0.691406 28.3359 -6.2998 625.2 -4.86523zM-4462.45 712.654zM-2657.97 769.205zM-4462.45 712.654zM-2657.97 769.205zM397.468 -124.102c-0.274414 0 -1.48926 0.517578 -1.48926 1.65723c0 0.178711 0.0263672 0.353516 0.0693359 0.512695l-2.04785 39.9316
l490.447 50.3027c-4.73535 0.452148 -9.08008 0.867188 -9.12988 0.873047c-50.5947 8.61328 -69.3408 32.417 -69.3408 82.3203c0 112.465 94.5605 299.656 113.672 399.688c0.879883 4.60547 6.92188 8.02539 6.92188 11.4697c0 0.240234 1.24414 3.21094 1 5l2 -2
c0.0488281 -1.59375 1.23242 -2.67383 1.28223 -4.26758v0c22.6328 -108.881 108.194 -253.238 108.194 -356.796c0 -34.0381 -10.1025 -59.2812 -25.4766 -90.3965c-3.54883 -7.18262 -7.91113 -16.0107 -13.6426 -28.1797
c-0.469727 -0.996094 -4.6084 -5.38965 -24.0811 -22.1006l-13.4834 5.61816l-1.51758 4.55371c0.398438 0.376953 27.0693 26.8789 28.5205 46.8525c0.699219 9.63184 1.0293 18.8662 1.0293 27.7256c0 89.6504 -33.7393 141.042 -59.1914 179.863
c-8.04492 12.2695 -15.2803 23.2891 -20.3594 33.9131c-21.8604 -68.5283 -70.2744 -139.209 -70.2744 -206.786c0 -33.4746 18.5986 -59.5986 19 -60c9.50879 -9.50879 15.8672 -16.1514 38.5 -22.8809v-3.07324l1.40137 0.143555
c4.91309 11.9873 16.8525 23.3623 31.001 23.3623c21.2168 0 31.6201 -18.6602 31.6201 -33.6865c0 -15.6064 -12.04 -33.3652 -27.5225 -33.3652c-7.17969 0 -15.5625 3.41504 -22.5781 8.63086c-102.554 -15.8496 -349.492 -43.7637 -506.066 -57.9746
c-4.3252 -0.392578 -7.08789 -0.626953 -8.05664 -0.681641c0 0 -0.105469 -0.230469 -0.401367 -0.230469zM315.685 723.147c2.7998 -49.7266 -19.6797 -193.287 -9.47754 -208.892c0.482422 -0.286133 1.88086 -1.27832 2.06445 -3.26074
c11.5488 -124.168 111.222 -243.073 149.872 -281.723c8.1377 -8.13867 13.415 -12.2207 13.415 -12.2207l-4.10059 -0.996094l-1.2002 -2.74512l6.60156 -3.68359l-25.7031 -17.1357c-1.70508 -1.13672 -4.0459 -0.90625 -5.48926 0.667969
c-3.42773 3.73926 -6.88281 7.47949 -10.3613 11.2441c-53.1338 57.5234 -111.299 120.691 -157.017 269.699c-15.1797 -71.5322 -58.5576 -147.535 -97.874 -197.467c-23.3477 -29.6504 -43.0752 -67.5977 -59.0889 -83.6113
c-1.54004 -1.54004 -3.97266 -1.65039 -5.63965 -0.330078c-17.3447 13.7314 -29.4785 23.3174 -29.7461 23.5869c-1.52734 1.52734 -1.64844 3.93066 -0.363281 5.59668c24.5977 31.8867 62.4697 84.7344 73.4229 99.1221c110.492 145.141 115.321 336.352 114.457 438.12
c-0.0205078 2.39844 1.94336 4.33789 4.34375 4.28418l31.1309 -0.6875c2.79395 -0.0595703 10.5615 -1.28613 10.3242 -13.0967c-0.0507812 -2.55273 -0.277344 -13.9355 0.428711 -26.4727z" />
  </g>

</svg>
