<?xml version="1.0" standalone="no"?>
<!DOCTYPE svg PUBLIC "-//W3C//DTD SVG 1.1//EN" "http://www.w3.org/Graphics/SVG/1.1/DTD/svg11.dtd" >
<svg xmlns="http://www.w3.org/2000/svg" xmlns:xlink="http://www.w3.org/1999/xlink" version="1.1" viewBox="-10 0 1031 1000">
  <g transform="matrix(1 0 0 -1 0 800)">
   <path fill="currentColor"
d="M521.613 636.442l-139.712 -133.637l-13.96 0.137541l-133.885 133.124l-25.4743 -24.3658l132.566 -137.9l-0.080164 -13.9381l-134.626 -136.909l27.8188 -30.42l137.214 139.659l13.9026 0.354551l151.124 -139.116l28.3932 23.6506l-151.143 138.93
l-0.343874 14.4021l138.474 139.849zM81.7116 728.89l-0.752686 -25.8916h813.329l0.752686 25.8916h-813.329zM759.938 386.238c0 3.63594 0.0798516 7.42337 0.0798516 7.49836c0 6.20113 -3.16142 6.48871 -4.57212 6.51875l-27.3599 0.603475
c0.0316563 -4.60516 0.0550091 -9.47762 0.0550091 -14.5965c0 -90.7291 -7.33634 -258.875 -105.806 -388.223c-24.9898 -34.0959 -46.845 -63.915 -66.5697 -89.8439l25.1668 -19.9232c26.1367 30.3974 26.3306 41.2738 53.1023 75.2726
c32.473 41.24 68.1674 102.422 84.4769 161.742l19.1334 0.479378c40.729 -123.528 90.7014 -177.661 137.212 -228.015l8.85229 -9.6111l21.2511 14.1671c-8.86629 4.15514 -138.275 133.269 -151.296 271.914c-2.24828 2.44328 -4.22301 5.48506 -4.22301 22.4767
c0 6.02836 0.359297 20.0981 1.51682 35.4957l16.9245 6.43048l29.2581 -28.3347c3.35109 -3.24546 7.61837 -4.85652 11.8732 -4.85652c1.81014 0 6.54752 0 11.9237 4.91841c4.5783 4.04141 43.6778 42.2758 43.9803 42.5784
c14.0558 14.0558 18.9609 28.1949 18.9609 40.5214c0 2.94014 -0.543463 19.986 -12.7381 32.1806c-4.76574 4.76574 -16.6247 12.1809 -31.5491 12.1809c-7.84012 0 -16.5262 -2.04631 -25.4743 -7.59801l-10.4246 -0.068741
c-9.26692 5.58041 -17.8141 7.51968 -25.3753 7.51968c-2.26155 0 -4.43489 -0.173488 -6.5129 -0.474926l-11.4351 10.2932c0.191622 4.82917 0.264212 8.61174 0.264212 11.8292c0 9.8157 -0.695316 14.9148 -0.695316 26.9237zM905.111 -97.7631l0.0315304 -0.0365617z
M904.551 -97.114l0.427068 -0.565733c0.0386142 0.0257423 -0.427068 0.565733 -0.427068 0.565733zM809.083 296.333c10.184 0 14.0552 16.0947 30.8535 16.0947c7.34875 -0.705663 13.2752 -4.80715 13.3897 -4.89206l-8.30511 -13.2328l10.4298 9.93129
c2.4656 -5.31399 2.83756 -6.11565 3.19443 -10.2744c-0.165163 -11.2104 -7.27052 -18.7445 -12.1614 -23.552l-30.4346 -29.2923l-13.8725 0.00791793c-31.0956 29.9958 -31.0956 29.9958 -31.4304 30.3306c-3.38004 3.38004 -10.3397 11.4719 -10.976 21.3305
l13.3322 1.192l-12.8231 1.09737c1.44047 4.9557 1.96827 6.83668 2.50714 8.38666l9.44247 6.70364l-6.83993 -2.76851c2.19516 1.50659 7.06139 4.84639 13.5733 4.84639c7.18214 0 10.3489 -2.54792 20.267 -10.528c5.0001 -4.48936 5.99335 -5.38116 9.85364 -5.38116z
" />
  </g>

</svg>
