<?xml version="1.0" standalone="no"?>
<!DOCTYPE svg PUBLIC "-//W3C//DTD SVG 1.1//EN" "http://www.w3.org/Graphics/SVG/1.1/DTD/svg11.dtd" >
<svg xmlns="http://www.w3.org/2000/svg" xmlns:xlink="http://www.w3.org/1999/xlink" version="1.1" viewBox="-10 0 1014 1000">
  <g transform="matrix(1 0 0 -1 0 800)">
   <path fill="currentColor"
d="M454.825 11.2275c-0.914062 0 -1.65137 0.742188 -1.65137 1.64941l1.58398 45.5596c-4.60254 5.50781 -9.32227 10.6641 -13.9717 15.7422c-20.4922 22.3828 -39.6719 43.3789 -39.7383 85.7324c-0.0556641 35.2959 12.7842 53.3525 19.9736 60.666
c22.7266 22.2168 52.7295 27.8008 68.3213 27.8008c1.41797 0 3.21191 1.20215 5.08008 1.11426c46.0889 -2.16797 55.9238 -5.81348 79.4053 -26.2373c3.03125 -2.63672 3.91406 -4.78613 4.30664 -6.81543c0.0722656 -0.366211 0.112305 -0.508789 0.125977 -0.553711
c10.7588 -12.416 18.3096 -45.0469 18.8945 -54.5361c0.0390625 -0.642578 0.135742 -1.39062 0.248047 -2.23535c0.313477 -2.39062 0.730469 -5.54785 0.0341797 -9.52148c-9.57422 -54.6816 -35.5957 -70.4189 -38.6543 -78.9912
c-0.167969 -0.46875 -0.321289 -0.544922 -0.387695 -0.611328c-0.729492 -0.729492 -7.05176 -3.95312 -12.1309 -6.34082c-0.637695 -1.81641 -0.637695 -1.81641 -0.960938 -2.15332c-0.149414 -0.574219 -0.286133 -1.59277 -0.286133 -1.59277l-0.941406 -46.5391
c-0.0185547 -0.893555 -0.745117 -1.61035 -1.63965 -1.61621zM578.19 215.957l-0.108398 0.0957031l-0.99707 -1.30273zM573.558 221.843l-1.0918 0.450195l-1.09277 -2.73926zM502.197 236.883c-26.46 0 -43.7139 -4.67188 -65.7139 -20.9834
c-5.80176 -5.80078 -21.9502 -23.2119 -22.0264 -53.418c-0.100586 -39.7627 17.2295 -58.4824 26.5381 -67.792c4.6377 -4.63672 4.6377 -4.63672 5.40625 -5.78516c1.51855 -2.26855 1.51855 -2.26855 11.375 -12.9521
c2.26367 -0.556641 5.72363 -1.98242 9.23145 -5.63086c1.91992 -1.99512 1.14453 -9.39941 0.790039 -12.7871l-0.316406 -38.5254l61.1348 -0.313477l2.87598 47.2832c0.0273438 0.447266 0.234375 0.864258 0.580078 1.15918
c2.03125 1.73047 2.08496 1.77637 3.13672 2.8291c1.04004 1.03906 4.05566 3.9834 6.70605 4.75488c0.961914 0.279297 2.30273 2.93652 5.08691 5.01855c13.3223 9.95898 33.042 35.0283 35.4902 71.1582c0.358398 5.28613 -0.458008 11.0527 -1.50098 17.2393
c-2.20605 13.0908 -5.44043 31.6963 -15.3945 43.2959c-1.54785 1.27539 -2.01758 1.69824 -9.14258 8.82422c-12.748 12.7461 -33.8535 16.625 -54.2568 16.625zM52.7012 763.544h41.6357l12.8711 39.1699l12.8701 -39.1699h41.6367l-33.6504 -24.2217l12.8711 -39.168
l-33.7275 24.2217l-33.7275 -24.2217l12.8701 39.168zM264.521 609.221l-12.6758 63.3936c136.002 94.8662 375.292 58.4941 467.481 51.3066v-0.0322266c29.001 0.613281 79.4395 -1.39844 113.337 -35.2939c42.4092 -42.4102 40.7979 -114.996 39.6455 -178.943
c-0.416016 -23.167 -0.457031 -35.123 -0.233398 -44.3203c27.873 -46.3066 76.252 -95.0469 94.3799 -136.938c7.34277 -16.9707 5.80176 -26.1641 2.79395 -42.4785l-12.6807 -14.791l-83.9961 -67.1738v-224.448c2.04785 -32.8447 1.92871 -83.7236 -28.9658 -114.614
c-27.5059 -27.5059 -192.831 -12.7002 -233.062 -13.7412l-3.06641 0.0136719c-109.601 -7.71484 -312.854 53.4648 -345.075 97.3857c-19.5508 26.6543 -33.1758 43.585 -61.2744 58.4365v73.998c27.2783 -17.1826 52.4307 -18.8125 74.1611 -64.0645
c46.7197 -97.292 369.22 -111.715 476.835 -114.573l-0.527344 -1.0166c52.8281 12.6768 36.083 4.73438 44.9424 14.3018c20.2598 21.8828 4.2041 44.3428 5.81836 61.2441h-0.571289v2.27051c-0.269531 1.04492 -0.530273 2.05176 -0.78125 3.00781h0.78125v218.894
v3.68359v1.41504h1.6709l109.881 92.9756h1.19727c5.26562 48.4922 -66.3906 97.3398 -99.5449 147.394l-3.16895 4.22559l-1.05762 1.05664c-2.13379 4.2168 0.0449219 4.25195 -2.20117 12.2139c-0.0390625 0.138672 -0.200195 0.261719 -0.18457 0.386719
l0.273438 2.19141l0.0683594 1.58203c0.00976562 0.242188 0.15918 4.11719 0.255859 6.59766c3.29004 83.6279 5.49121 183.196 -88.5566 183.601l9.05664 11.0186c-144.061 17.6953 -394.666 10.0771 -455.897 -49.1416zM474.069 480.015l-49.9199 90.3711
l5.76172 2.43359l44.6582 -76.7109l40.6982 77.4316l7.78906 -3.1543zM600 344l-216.09 0.720703v14.2588h193.747v80.9678h-193.747v14.2588l214.169 -1.2002z" />
  </g>

</svg>
