<?xml version="1.0" standalone="no"?>
<!DOCTYPE svg PUBLIC "-//W3C//DTD SVG 1.1//EN" "http://www.w3.org/Graphics/SVG/1.1/DTD/svg11.dtd" >
<svg xmlns="http://www.w3.org/2000/svg" xmlns:xlink="http://www.w3.org/1999/xlink" version="1.1" viewBox="-10 0 917 1000">
  <g transform="matrix(1 0 0 -1 0 800)">
   <path fill="currentColor"
d="M83.5039 -60.9844h42.7031l13.2012 40.1738l13.2002 -40.1738h42.7041l-34.5127 -24.8428l13.2002 -40.1729l-34.5918 24.8428l-34.5928 -24.8428l13.2012 40.1729zM447.564 -45.3047c-4.1748 0 -7.77246 3.4043 -7.77246 7.77246v273.096
c0 4.19043 3.41504 7.77441 7.7998 7.77441c0 0 76.5967 -0.30957 90.9268 -0.367188l52.7646 47.7383l2.47363 -19.2656l1.82031 -33.6699l192.328 4.19043c4.16406 0.0917969 7.74316 -3.41992 7.74316 -7.77344v-78.749l46.6133 -54.2744l-35.5645 1.92578
l-12.7402 1.82031l1.69141 -143.818c0.0498047 -4.17871 -3.42773 -7.77344 -7.7998 -7.77344zM774.847 102.183l-23.6602 -3.63965l-29.7803 3.94824l49.5938 54.3906v60.4609l-173.604 2.23047l-0.90918 -28.2109l-1.09766 -21.3857l-57.3545 48.3662l-73.5928 0.31543
v-239.342l306.558 -1.31641zM519.613 328.011h-216.431l-50.4697 127.461l93.2695 -39.0977l61.041 76.334l59.9521 -77.6064l92.4805 39.3311zM352.584 387.25l-57.0547 25.0645l26.292 -60.3447l176.842 -0.634766l18.2803 57.5293l-55.9434 -24.8643l-53.0283 68.1357z
M640.76 769.029l102.479 -0.55957v0l4.76074 0.280273l-6.16113 -327.601v-19.5996h-21.8389l-82.8809 0.55957v19.6006l82.8809 -0.560547l7 309.961l-86.2402 0.55957v17.3594z" />
  </g>

</svg>
