<?xml version="1.0" standalone="no"?>
<!DOCTYPE svg PUBLIC "-//W3C//DTD SVG 1.1//EN" "http://www.w3.org/Graphics/SVG/1.1/DTD/svg11.dtd" >
<svg xmlns="http://www.w3.org/2000/svg" xmlns:xlink="http://www.w3.org/1999/xlink" version="1.1" viewBox="-10 0 1052 1000">
  <g transform="matrix(1 0 0 -1 0 800)">
   <path fill="currentColor"
d="M188.399 524.097l18.0449 0.295898l252.556 0.607422v-16.6748l-94.2002 -0.716797v-81.4062l-156.3 84.0947l-5.7002 3.59961c-1.57129 0 -12.8291 10.2002 -14.4004 10.2002zM694.236 573.309c1.19629 -21.2539 -8.90332 -81.7969 -2.96191 -84.9736
c5.83203 -62.7109 66.5479 -121.304 66.625 -119.043l-10.2891 -6.8584c-23.1455 25.2461 -48.9717 50.2314 -68.6523 118.643c-4.38184 -30.123 -23.1963 -63.8604 -40.1016 -85.3301c-10.2871 -13.0635 -14.6973 -23.5146 -23.5156 -33.3125l-11.7578 9.30859
c13.2275 17.1455 20.6523 28.1963 29.3945 39.6797c44.6348 58.6318 46.502 135.611 46.1553 176.395c4.15332 -0.0908203 8.30664 -0.182617 12.46 -0.274414c2.33691 -0.0507812 2.43262 -2.32227 2.47363 -3.29199
c0.00390625 -0.109375 -0.152344 -5.21289 0.169922 -10.9414zM35.7939 756.847h55.5146l17.1611 52.2256l17.1602 -52.2256h55.5156l-44.8672 -32.2959l17.1611 -52.2246l-44.9697 32.2959l-44.9707 -32.2959l17.1611 52.2246zM275.499 652.326l-12 60
c128.725 89.7881 355.203 55.3633 442.457 48.5605c0 -0.0107422 0.000976562 -0.0214844 0.000976562 -0.0322266c27.4463 0.582031 75.1855 -1.32129 107.268 -33.4033c40.1396 -40.1396 38.6152 -108.841 37.5254 -169.365
c-0.395508 -21.9258 -0.433594 -33.2402 -0.22168 -41.9463c26.3789 -43.8281 72.168 -89.959 89.3252 -129.607c6.95117 -16.0635 5.49219 -24.7637 2.64551 -40.2051l-12 -14l-79.501 -63.5771v-212.431c1.93945 -31.0869 1.82422 -79.2412 -27.416 -108.479
c-26.0322 -26.0322 -182.507 -12.0195 -220.584 -13.0049l-2.90137 0.0126953c-103.73 -7.2998 -296.106 50.6025 -326.603 92.1719c-18.5059 25.2275 -31.4014 41.2529 -57.9951 55.3086v70.0371c25.8174 -16.2627 49.624 -17.8066 70.1904 -60.6357
c44.2188 -92.082 349.455 -105.734 451.309 -108.438l-0.499023 -0.962891c50 12 34.1514 4.48145 42.5352 13.5361c19.1768 20.7119 3.97852 41.9688 5.50781 57.9648h-0.541992v2.14941c-0.253906 0.990234 -0.500977 1.94141 -0.738281 2.84863h0.738281v207.174v3.4873
v1.33887h1.58203l104 88h1.13281c4.9834 45.8955 -62.8379 92.1289 -94.2158 139.501l-3 4l-1 1c-3.00635 3.00635 4.62891 47.1357 2.50098 54.6709c-0.0371094 0.130859 -0.189453 0.24707 -0.174805 0.367188l0.258789 2.07227l0.0644531 1.49902
c0.00976562 0.226562 0.150391 3.89551 0.242188 6.24414c3.11426 79.1523 0.612305 130.28 -88.4004 130.661c-136.35 16.7461 -373.534 9.53418 -431.488 -46.5137zM660.764 246.361c1.69434 0 3.14844 -1.4541 3.14844 -3.14941v-8.75
c0 -1.69434 -1.45312 -3.14941 -3.14844 -3.14941h-87.7637v-183.312c0 -1.69434 -1.4541 -3.14941 -3.14941 -3.14941h-8.75c-1.69434 0 -3.14941 1.4541 -3.14941 3.14941v183.312h-87.7627c-1.69434 0 -3.15039 1.4541 -3.15039 3.14941v8.75
c0 1.69434 1.45508 3.14941 3.15039 3.14941h87.7627v66.0625c0 1.69531 1.4541 3.15039 3.14941 3.15039h8.75c1.69434 0 3.14941 -1.45508 3.14941 -3.15039v-66.0625h87.7637z" />
  </g>

</svg>
