<?xml version="1.0" standalone="no"?>
<!DOCTYPE svg PUBLIC "-//W3C//DTD SVG 1.1//EN" "http://www.w3.org/Graphics/SVG/1.1/DTD/svg11.dtd" >
<svg xmlns="http://www.w3.org/2000/svg" xmlns:xlink="http://www.w3.org/1999/xlink" version="1.1" viewBox="-10 0 1015 1000">
  <g transform="matrix(1 0 0 -1 0 800)">
   <path fill="currentColor"
d="M697.832 725.013c2.14844 -38.1787 -15.9941 -146.932 -5.32129 -152.641c10.4775 -112.648 119.542 -217.9 119.68 -213.84l-18.4795 -12.3203c-41.5781 45.3516 -87.9707 90.2334 -123.324 213.12c-7.87012 -54.1094 -41.668 -114.713 -72.0361 -153.28
c-18.4785 -23.4658 -26.4004 -42.2393 -42.2402 -59.8398l-21.1201 16.7197c23.7607 30.7998 37.0967 50.6523 52.8008 71.2803c80.1777 105.321 83.5322 243.604 82.9102 316.862c7.46094 -0.165039 14.9219 -0.329102 22.3828 -0.494141
c4.19824 -0.0898438 4.36914 -4.16992 4.44141 -5.91309c0.00878906 -0.196289 -0.273438 -9.36328 0.306641 -19.6543zM884.551 746.762l-155.521 -175.482l20.377 -16.2383l132.48 153.93c11.0049 -18.2471 26.709 -39.8193 31.9375 -53.9805l37.1758 53.0098zM324 561z
M94.9951 715.065zM52.2285 636.334zM218.858 533.396zM218.559 523.835zM91.2422 559.386zM164.641 536.295zM364.849 654.136zM52.2285 636.334zM364.849 654.136zM263.442 755.216c-16.1436 0 -29.8096 -6.2793 -36.7422 -13.2109
c-2.6377 -2.6377 -1.96387 -2.77539 -3.05469 -3.17188c-4.90039 -1.78809 -9.70312 -2.43457 -14.0859 -2.43457c-4.1377 0 -11.6562 0.611328 -19.7969 4.26855c-5.53125 6.7334 -14.8857 12.8613 -30.6143 12.8613c-23.6133 0 -50.541 -14.6162 -59.9062 -36.5146
l-0.461914 -1.08203h-1.62891l-42.6631 -57.9678h-2.04199v-2.77246c-0.276367 -0.375977 -0.552734 -0.750977 -0.829102 -1.12695h0.445312l-4.72461 -17.7188l-0.53125 0.0078125c-0.0957031 -1.81445 -0.266602 -2.85645 -0.838867 -5.11133h0.6875
c-0.0166016 -2.00293 -0.0166016 -2.00293 -0.0166016 -2.20703c0 -12.9541 5.58984 -39.1699 42.8477 -69.9834c39.3486 -32.5459 83.8486 -36.1348 120.739 -36.1348c60.4658 0 85.1172 7.57715 121.298 36.1689c44.2002 34.9248 44.9453 45.209 46.1611 70.7363
l-1.2373 0.0195312c-0.0751953 0.285156 -5.50391 22.4375 -7.42969 28.4014l-31.5898 53.9814c-3.56055 3.71582 -3.56055 3.71582 -3.91895 4.33105h-0.234375c-11.1064 11.3672 -34.3896 32.6387 -57.1221 37.3525c-4.35059 0.902344 -8.61035 1.30762 -12.71 1.30762z
M158.531 739.604c3.39844 0 10.9521 0 19.5635 -5.92676l-0.0664062 -0.822266c0.49707 -0.203125 1.29395 -0.577148 2.06738 -1.3125c7.29688 -6.93359 18.5107 -10.1885 29.1582 -10.1885c9.91797 0 19.3438 2.82422 24.6494 8.13086
c1.03223 1.0332 2.7002 2.69922 3.9873 6.58105c5.46875 3.73145 14.1543 7.80371 26.0088 7.80371c15.7324 0 23.0869 -6.85156 28.7275 -12.1035c4.38281 -4.08203 10.1543 -9.4707 22.5684 -17.6846c0.473633 -0.102539 0.863281 -0.331055 1.17578 -0.68457
l0.272461 0.0117188l35.501 -55.9961c0 -0.0947266 -0.00292969 -0.191406 -0.00292969 -0.287109c2.5459 -9.53906 4.87109 -19.2998 7.32324 -28.9336c0.856445 -3.42383 1.33887 -6.59766 1.33887 -9.66992c0 -14.7422 -10.9678 -26.6865 -42.5625 -52.5049
c-29.1143 -23.7891 -50.1973 -31.9502 -113.734 -31.9502c-34.3975 0 -62.124 4.22559 -94.5049 26.8926c-39.916 27.9414 -45.2832 48.5195 -45.2832 66.8438c0 1.20801 0.0224609 2.39844 0.0556641 3.57031c1.99219 7.90527 4.15527 15.6377 6.21191 23.4766
l38.9014 55.0771c0.552734 -0.212891 1.10352 -0.425781 1.65527 -0.637695c1.31055 3.08594 3.54199 8.34375 9.59668 14.3984c9.75684 9.75684 24.1982 15.916 37.3916 15.916zM139.251 -120zM343.047 -53.4536v258.014l77.4518 -0.332026l66.1835 -55.8119
c1.47742 28.903 1.47742 28.903 2.38792 57.1283l185.854 -2.38797v-63.0036l-57.0691 -62.5882l37.8227 -5.01451l23.3821 3.59725l-4.05908 -131.027zM695.928 -87.0083c6.1174 0 11.0838 4.96457 11.0838 10.9416l-1.82714 155.255
c10.2223 -1.46032 10.2223 -1.46032 56.2398 -4.01859l-54.4145 63.3579v85.6112c0 6.10449 -4.94059 11.0077 -10.7579 11.0476l-209.236 -4.55941l-1.85533 34.3237c-1.02866 8.30993 -2.01561 15.957 -3.35808 26.3585l-60.8124 -55.0195l-2.90875 0.0117695
s-96.011 0.388546 -96.0416 0.388607c-6.10589 0 -11.082 -4.94787 -11.082 -11.0425v-300.105c0 -6.08085 4.96635 -11.0415 11.0415 -11.0415zM34.3545 -40.4795h55.5146l17.1611 52.2256l17.1602 -52.2256h55.5156l-44.8672 -32.2959l17.1611 -52.2246l-44.9697 32.2959
l-44.9707 -32.2959l17.1611 52.2246z" />
  </g>

</svg>
