<?xml version="1.0" standalone="no"?>
<!DOCTYPE svg PUBLIC "-//W3C//DTD SVG 1.1//EN" "http://www.w3.org/Graphics/SVG/1.1/DTD/svg11.dtd" >
<svg xmlns="http://www.w3.org/2000/svg" xmlns:xlink="http://www.w3.org/1999/xlink" version="1.1" viewBox="-10 0 1191 1000">
  <g transform="matrix(1 0 0 -1 0 800)">
   <path fill="currentColor"
d="M288.328 529.18c2.30566 -40.9512 -16.207 -159.178 -7.80566 -172.028c0.398438 -0.236328 1.54883 -1.05273 1.70117 -2.68555c9.51074 -102.256 91.5938 -200.178 123.424 -232.007c6.70117 -6.70215 11.0479 -10.0645 11.0479 -10.0645l-3.37793 -0.820312
l-0.987305 -2.25977l5.43652 -3.03418l-21.168 -14.1123c-1.40332 -0.935547 -3.33105 -0.746094 -4.52051 0.550781c-2.82324 3.0791 -5.66797 6.16016 -8.53223 9.25977c-43.7578 47.3721 -91.6582 99.3936 -129.308 222.105
c-12.501 -58.9092 -48.2246 -121.499 -80.6025 -162.62c-19.2275 -24.418 -35.4746 -55.6689 -48.6621 -68.8555c-1.26758 -1.26953 -3.27051 -1.35938 -4.64453 -0.272461c-14.2832 11.3076 -24.2754 19.2031 -24.4961 19.4238
c-1.25781 1.25781 -1.35742 3.23828 -0.299805 4.61035c20.2568 26.2588 51.4463 69.7812 60.4668 81.6299c90.9932 119.526 94.9707 276.994 94.2578 360.804c-0.0166016 1.97559 1.60156 3.57227 3.57715 3.5293l25.6377 -0.566406
c2.30078 -0.0488281 8.69727 -1.05957 8.50293 -10.7861c-0.0419922 -2.10254 -0.228516 -11.4756 0.352539 -21.8008zM911.297 73.0977c-8.21582 0 -8.21582 0 -54.4375 0.423828l0.0605469 0.325195h-3.24512l2.88281 176.301l-63.8906 35.1104v10.1348l60.1152 -34.3135
c3.35742 -0.0078125 6.87109 0.00195313 10.6309 0.0224609l-41.4131 77.8984h11.7637l41.374 -77.8203l1.73145 0.0117188l0.666016 106.762h13.5127l-0.665039 -106.692c1.31738 0 2.63477 0.00195312 3.95117 0.00195312l44.8018 85.0586h11.7607l-44.3701 -84.2373
l55.0713 22.1357v-10.3232c-14.9385 -6.60449 -29.8555 -13.2295 -44.8057 -19.8213l-8.26172 -1.9668l1.44629 -48.167l11.8799 6.90723l2.59473 -16.8662l-13.9209 -8.47363l3.42871 -114.212c-0.887695 0.600586 -1.77539 1.20117 -2.66211 1.80078zM898.148 85.9463
l-4.12988 165.201h-2.13379l2.47852 -165.201h3.78516zM875.2 86.3467v165.27l-2.46289 0.289062l-0.826172 -165.894zM913.874 421.586c5.59867 0 7.48677 8.07549 7.48677 11.0696c0 0 -11.3507 58.9074 -22.7688 83.0878
c-6.57888 13.5921 -14.7828 20.2996 -25.8982 20.2996c-19.9328 0 -29.0867 -21.683 -38.3662 -58.8474c-9.87152 -40.6117 -10.3037 -42.934 -10.3037 -44.1854c0 -0.120083 0.00397912 -0.230305 0.00397912 -0.363551c0 -5.29596 3.03349 -10.5504 6.35575 -10.9171
c1.25674 -0.125112 2.39 -0.198682 3.62142 -0.24154l24.7854 0.0387373l49.7749 -0.0389424s4.98707 0.0987839 5.16416 0.0991781c0.0490576 -0.000753269 0.0972325 -0.00112238 0.144539 -0.00112238zM911.071 408.307
c-0.348094 0 -0.627965 0.00425718 -0.634308 0.00425718c-1.04156 0 -76.5454 -0.0322195 -76.5849 -0.0322364h-0.425839c-22.392 0.942634 -23.9473 19.4906 -23.9473 24.6263c0 4.84934 11.3661 56.8703 21.2 81.6533c3.40083 8.43282 14.6688 34.7076 41.7216 34.7076
c33.7198 0 44.5838 -35.8011 52.2592 -66.3852c11.086 -45.5383 11.2609 -45.6981 11.2609 -50.3453c0 -0.279859 -0.00381878 -0.559844 -0.011452 -0.934795v-0.316489c-0.546244 -4.32841 -3.58568 -20.7071 -18.4258 -22.5485
c-2.14074 -0.284843 -4.25788 -0.429076 -6.41209 -0.429076zM995.277 54.1191c0.595703 0.0244141 38.2471 0.00390625 38.2578 0.0224609c-11.5986 48.6436 -8.33887 64.3057 -4.10938 77.9531c0.0390625 0.123047 3.3125 11.4385 3.75781 12.3301l27.3535 54.7051
c-14 216.999 -14 216.999 -13.9209 217.932c4.59863 54.5947 8.6084 118.276 3.9209 159.068c-12.1914 48.416 -42.4385 38.1992 -49.5029 22.7129c-2.49707 -5.47266 -5.31055 -6.11719 -12.5732 -7.78125c-5.64355 -5.04883 -14.5225 -3.94336 -18.7461 2.41504
c-5.29297 7.97168 -29.7803 45.8896 -30.4238 47.1494c-8.85547 17.3438 -43.0146 28.0137 -49.5439 -6.31934c-0.236328 -1.24023 -0.236328 -1.24023 -11.8965 -29.6621c-4.34375 -10.5879 -19.6582 -10.1475 -23.3799 0.678711l-21.9336 63.8066
c-5.86426 17.0586 -42.4492 30.6787 -61.7764 -1.62305c-0.355469 -1.06348 -2.96582 -8.97559 -17.0684 -53.209c-3.06641 -9.61523 -15.8613 -11.8115 -21.9424 -3.6416c-18.041 24.2422 -18.041 24.2422 -18.3594 24.5596
c-0.118164 0.120117 -20.6045 20.5723 -32.2109 8.96582c-6.35547 -6.35547 -9.95117 -21.8721 -11.5332 -31.3867c0.0449219 -1.42676 0.327148 -9.84668 1.8916 -50.6865c0.929688 -25.4326 2.06055 -79.7812 2.08496 -80.5869
c7.43848 -53.0186 3.99805 -54.6738 7.86621 -83.04c0.282227 -1.0918 2.42676 -9.3584 13.5664 -51.5293c0.109375 -0.414062 1.12695 -24.0244 -2.10254 -29.5137c-7.94141 -13.5 -8.49219 -14.4375 -13.7314 -15.6377
c-20.7344 -4.75098 -27.2959 -0.574219 -34.3066 9.1543c-3.60645 5.00391 -28.1338 29.5859 -30.5996 32.4307l-51.3994 59.3076c-1.38965 0.918945 -8.52246 5.5918 -29.9814 19.1846c-1.25391 0.379883 -7.26074 2.17383 -25.3975 7.25195
c-5.07129 -2.78223 -11.1162 -1.10449 -15.7021 -5.68945c-3.32715 -3.32715 -7.16504 -14.4736 -5.94434 -20.7852l28.3574 -38.1377c5.46289 -5.12012 34.5518 -30.377 35.9141 -32.1436c54.8984 -71.2393 42.375 -51.2441 42.5791 -51.5215
c30.7959 -41.7227 30.7959 -41.7227 31.0264 -42.085c27.7695 -43.6377 27.7695 -43.6377 28.1621 -44.5479l21.4473 -49.7178c5.9248 -9.18457 28.8311 -43.7461 29.4443 -44.9111c9.64941 -18.3359 9.64941 -18.3359 10.0137 -19.8604
c7.18066 -30.0898 58.0352 -31.5879 58.7021 -31.6006l55.626 -0.993164zM1033.54 29.1348h-37.4766c-168.6 -7.00293 -168.6 -7.00293 -168.974 -6.99609l-56.0254 1.00098c-8.89551 0.166992 -69.625 3.00684 -82.125 49.1436l-7.95898 15.1211
c-29.126 44.1846 -28.6309 42.7217 -30.3926 46.8066l-21.2148 49.1797l-26.4756 41.6035l-30.0801 40.7539l-41.3105 49.957c-35.4873 31.4297 -35.4873 31.4297 -37.0459 33.5264l-29 39c-10.3457 13.9121 -3.12402 41.0615 8.7002 52.8857
c6.93164 6.93262 13.4688 9.0498 23.1611 10.834c5.36035 2.39648 11.3945 2.81152 16.9883 1.24609c26.3848 -7.38867 26.958 -6.99805 31.5957 -9.93555c28.3115 -17.9307 30.46 -18.6074 34.5146 -22.6631c0.472656 -0.472656 -0.608398 -1.46191 52.582 -60.5986
c27.7129 -30.8115 28.7949 -29.8232 32.7744 -35.2158c0.657227 0.0585938 1.55957 0.170898 2.69922 0.355469l1.33984 2.27734l0.597656 14.9443c-13.3311 50.4443 -13.1836 49.0508 -13.6348 52.3447c-4.16602 30.3301 -0.501953 30.7627 -7.98828 83.9141
c-0.115234 0.818359 -1.6123 65.7217 -2.22754 82.5244c-1.99902 52.2207 -2.47754 50.1621 -1.69727 54.9932c2.43359 15.082 8.04297 49.8438 37.4111 56.0371c24.418 5.15039 48.0879 -17.7734 51.3359 -22.1377l3.63574 -4.88574
c9.75781 30.9619 9.44531 30.7559 11.7314 34.6445c30.2266 51.4092 94.4785 34.4824 107.195 -2.51172l10.7305 -31.2158c14.9688 50.2998 75.1787 42.8105 94.3379 6.5459c0.223633 -0.34668 21.5215 -33.4355 22.3252 -34.6709
c21.0137 27.1602 74.2295 31.7402 91.207 -35.6787c0.269531 -1.07422 0.46875 -2.16504 0.594727 -3.26074c5.11816 -44.5391 0.844727 -108.232 -3.76855 -163.122l13.8809 -215.131c0.28125 -4.37207 -0.578125 -8.80371 -2.58105 -12.8086l-26.7461 -53.4932
c-0.769531 -2.98145 -1.66895 -5.95801 -2.85547 -9.78516c-3.3291 -10.7412 -6.84277 -16.9297 4.54883 -64.7051c3.74609 -15.7051 -8.15625 -30.8242 -24.3096 -30.8242z" />
  </g>

</svg>
