<?xml version="1.0" standalone="no"?>
<!DOCTYPE svg PUBLIC "-//W3C//DTD SVG 1.1//EN" "http://www.w3.org/Graphics/SVG/1.1/DTD/svg11.dtd" >
<svg xmlns="http://www.w3.org/2000/svg" xmlns:xlink="http://www.w3.org/1999/xlink" version="1.1" viewBox="-10 0 1006 1000">
  <g transform="matrix(1 0 0 -1 0 800)">
   <path fill="currentColor"
d="M794.979 104.912zM297.058 516.577v-284.577h-93.0576v22.4971h70.5605v239.583h-72.541v22.4971h95.0381zM456.996 211.972c-25.4971 -12.5635 -25.4971 -12.5635 -27.7285 -12.5635c-2.13867 0 -4.20215 0.858398 -5.68066 2.68945
c-0.993164 1.22852 -23.1758 33.3887 -26.335 37.707c-1.5752 2.15137 -3.19727 4.10254 -3.19727 7.10547c0 4.18457 3.36816 6.48535 5.86035 8.18359c0.806641 0.549805 74.0703 50.9541 80.2197 55.6016h20.2783c2.43164 0 4.55762 0.00195312 6.4248 0.00195312
c11.2197 0 13.083 -0.078125 15.6963 -1.18359l0.283203 -0.107422c1.78125 -0.658203 10.3984 -3.57715 21.2061 -3.57715h0.777344c6.88477 0 11.0547 0.472656 20.7451 4.86621h37.7168c0.883789 -0.606445 74.3916 -51.1572 87.9277 -61.3008
c-5.95312 -8.98926 -9.62012 -14.6113 -19.7578 -31.4121c-9.11328 -15.1045 -10.2988 -17.0703 -14.8633 -17.0703c-2.91406 0 -27.1143 7.08105 -37.0547 10.0234c0.118164 -1.31738 11.9355 -129.954 11.9355 -131.752v-8.50195h-182.647
c1.03613 13.4717 1.03613 13.4717 1.96289 30.6143l1.85156 33.1221l1.86133 32.5459zM613.633 87.876c-0.211914 2.46191 -12.2256 133.789 -12.2256 135.146c0 5.33105 3.58984 8.27148 7.59375 8.27148c3.43359 0 17.8184 -5.05078 43.2949 -11.877l15.8486 25.6406
c-2.24609 1.55859 -4.89453 3.39062 -7.21191 4.97949c-33.6523 23.3809 -33.6523 23.3809 -62.6455 43.4629c-1.63965 0.0654297 -5.81152 0.176758 -14.2402 0.177734c-4.91113 0 -9.82227 0.00195312 -14.7344 0.00195312
c-6.72363 -2.56543 -13.0186 -4.80469 -24.3916 -4.80469c-7.18652 0 -13.8369 0.0830078 -28.8965 4.80469h-15.5078c-7.72266 0 -12.7793 -0.109375 -14.9414 -0.195312l0.682617 0.458984l-0.00195312 -0.000976563
c-0.182617 -0.12207 -0.411133 -0.275391 -0.680664 -0.458008c-8.52734 -5.76758 -58.9619 -40.6465 -70.8584 -48.8887c2.58301 -3.68848 3.32617 -4.75098 17.8018 -25.6309c20.1533 9.81543 28.0576 13.666 31.5752 15.1758
c0.123047 0.112305 0.250977 0.210938 0.381836 0.298828l-0.342773 -0.28125c2.23633 0.957031 2.67773 0.957031 3.40137 0.957031c3.89941 0 7.41602 -2.85938 7.41602 -8.32617c0 -0.213867 -0.645508 -10.4922 -1.23828 -21.3428l-6.6543 -117.644
c11.5479 -0.0703125 35.1406 -0.103516 60.4404 -0.103516zM48.3545 723.521h55.5146l17.1611 52.2256l17.1602 -52.2256h55.5156l-44.8672 -32.2959l17.1611 -52.2246l-44.9697 32.2959l-44.9707 -32.2959l17.1611 52.2246zM271 608l-12 60
c128.725 89.7881 355.203 55.3633 442.457 48.5605c0 -0.0107422 0.000976562 -0.0214844 0.000976562 -0.0322266c27.4463 0.582031 75.1855 -1.32129 107.268 -33.4033c40.1396 -40.1396 38.6152 -108.841 37.5254 -169.365
c-0.395508 -21.9258 -0.433594 -33.2402 -0.22168 -41.9463c26.3789 -43.8281 72.168 -89.959 89.3252 -129.607c6.95117 -16.0635 5.49219 -24.7637 2.64551 -40.2051l-12 -14l-79.501 -63.5771v-212.431c1.93945 -31.0869 1.82422 -79.2412 -27.416 -108.48
c-26.0322 -26.0322 -182.507 -12.0195 -220.584 -13.0049l-2.90137 0.0126953c-103.732 -7.2998 -296.108 50.6025 -326.603 92.1719c-18.5059 25.2275 -31.4014 41.2529 -57.9951 55.3086v70.0371c25.8174 -16.2627 49.624 -17.8066 70.1904 -60.6357
c44.2188 -92.082 349.455 -105.734 451.309 -108.438l-0.499023 -0.962891c50 12 34.1514 4.48145 42.5352 13.5361c19.1768 20.7119 3.97852 41.9688 5.50781 57.9648h-0.541992v2.14941c-0.253906 0.990234 -0.500977 1.94141 -0.738281 2.84863h0.738281v207.174v3.4873
v1.33887h1.58203l104 88h1.13281c4.9834 45.8955 -62.8379 92.1289 -94.2158 139.501l-3 4l-1 1c-2.02051 3.99219 0.0439453 4.02539 -2.08398 11.5605c-0.0371094 0.130859 -0.189453 0.24707 -0.174805 0.367188l0.258789 2.07227l0.0644531 1.49902
c0.00976562 0.226562 0.150391 3.89551 0.242188 6.24414c3.11426 79.1523 5.19727 173.389 -83.8154 173.771c-136.35 16.7461 -373.536 9.53418 -431.49 -46.5137z" />
  </g>

</svg>
