<?xml version="1.0" standalone="no"?>
<!DOCTYPE svg PUBLIC "-//W3C//DTD SVG 1.1//EN" "http://www.w3.org/Graphics/SVG/1.1/DTD/svg11.dtd" >
<svg xmlns="http://www.w3.org/2000/svg" xmlns:xlink="http://www.w3.org/1999/xlink" version="1.1" viewBox="-10 0 873 1000">
  <g transform="matrix(1 0 0 -1 0 800)">
   <path fill="currentColor"
d="M299.497 44.6279c-3.8916 0 -7.09961 3.16699 -7.09961 7.09961v144.05c0 3.9043 3.17773 7.10059 7.12598 7.10059c0 0 39.4688 -0.160156 46.7979 -0.189453l31.2285 28.2529c2.06055 -16.1865 2.05176 -13.9912 2.84961 -28.7402l98.7031 -0.0458984
c3.81055 -0.000976563 6.99902 -3.1709 6.99902 -7.10156v-40.4268l28.4414 -33.1152c-26.1709 1.44043 -26.1709 1.44043 -29.293 1.88672l0.852539 -72.4443c0 -3.86035 -3.18555 -7.05078 -7.12793 -7.05078zM467.193 62.9316l1.82617 58.9775
c-3.1123 -0.478516 -6.22559 -0.957031 -9.33789 -1.43652l-21.8242 2.89355l29.2432 32.0723v27.7666l-85.668 1.10156c-0.260742 -9.52637 -0.260742 -9.52637 -1.27637 -29.3135l-34.041 28.7061l-34.7158 0.148438v-120.247zM687 382.31
c0 1.65723 1.3418 2.99902 2.99902 2.99902h57.6094v24.1299h-57.6094c-1.65723 0 -2.99902 1.3418 -2.99902 2.99902v43.1426h-24.1299v-43.1426c0 -1.65723 -1.3418 -2.99902 -3 -2.99902h-57.6084v-24.1299h57.6084c1.6582 0 3 -1.3418 3 -2.99902v-121.31h24.1299
v121.31zM773.399 28.8008h-193.979l0.129883 98.4971c-7.27344 -3.06445 -14.5479 -6.12793 -21.8213 -9.19238v25.959l130.107 53.6387c0.37207 -0.168945 0.837891 -0.625977 0.941406 0.0332031c8.42773 -4.8916 8.42773 -4.8916 25.4531 -13.7197l-1.05176 -0.442383
l79.9248 -46.3838l0.464844 -27.9521c-6.5957 3.90137 -13.1914 7.80371 -19.7871 11.7061zM603.53 52.9307h145.821l0.700195 82.0518l-63.3223 37.46l-83.5869 -35.209zM659.863 681.798l32.1367 -27.7979l-30.9463 -27.3008l-7.85352 8.30664l15.8408 13.334
l-112.112 -0.974609l-0.602539 11.4688l112.807 0.525391l-16.707 13.9844zM164.395 710.071l32.1357 -27.7979l-30.9463 -27.3008l-7.85254 8.30664l15.8398 13.334l-112.112 -0.974609l-0.602539 11.4688l112.808 0.525391l-16.707 13.9844zM454.192 367.975
c0.349609 0.0146484 22.4883 0.00195312 22.4951 0.0126953c-6.81934 28.6025 -4.90332 37.8115 -2.41602 45.8369c0.0234375 0.0722656 1.94727 6.72559 2.20996 7.25l16.084 32.166c-8.2334 127.596 -8.2334 127.596 -8.18652 128.145
c2.7041 32.1016 5.0625 69.5459 2.30566 93.5312c-7.16797 28.4697 -24.9531 22.4609 -29.1074 13.3555c-1.46777 -3.21777 -3.12207 -3.59668 -7.39258 -4.5752c-3.31934 -2.96875 -8.54004 -2.31836 -11.0234 1.41992c-3.1123 4.6875 -17.5098 26.9834 -17.8887 27.7236
c-5.20703 10.1992 -25.293 16.4717 -29.1318 -3.71484c-0.138672 -0.730469 -0.138672 -0.730469 -6.99512 -17.4424c-2.55469 -6.22559 -11.5596 -5.96582 -13.7471 0.399414l-12.8975 37.5186c-3.44824 10.0293 -24.96 18.0391 -36.3242 -0.954102
c-0.208984 -0.625977 -1.74414 -5.27734 -10.0371 -31.2871c-1.80273 -5.6543 -9.32617 -6.94629 -12.9014 -2.1416c-10.6084 14.2539 -10.6084 14.2539 -10.7959 14.4414c-0.0693359 0.0703125 -12.1152 12.0967 -18.9395 5.27246
c-3.7373 -3.7373 -5.85059 -12.8613 -6.78223 -18.4561c0.0273438 -0.838867 0.193359 -5.79004 1.1123 -29.8037c0.546875 -14.9551 1.21191 -46.9111 1.22656 -47.3848c4.37402 -31.1758 2.35059 -32.1484 4.625 -48.8281
c0.166016 -0.641602 1.42676 -5.50293 7.97656 -30.2998c0.0644531 -0.242188 0.663086 -14.125 -1.23535 -17.3545c-4.66992 -7.93652 -4.99414 -8.48828 -8.07422 -9.19336c-12.1924 -2.79395 -16.0498 -0.337891 -20.1729 5.38184
c-2.12012 2.94336 -16.542 17.3975 -17.9922 19.0693l-30.2227 34.873c-0.817383 0.540039 -5.01074 3.28809 -17.6289 11.2812c-0.737305 0.223633 -4.26953 1.27832 -14.9346 4.26367c-2.98047 -1.63574 -6.53516 -0.649414 -9.23242 -3.3457
c-1.95605 -1.95703 -4.21289 -8.51074 -3.49512 -12.2217l16.6738 -22.4248c3.21289 -3.01074 20.2812 -17.8896 21.1182 -18.9004c24.916 -30.1318 24.916 -30.1318 25.0361 -30.2939c18.1084 -24.5332 18.1084 -24.5332 18.2441 -24.7461
c16.3271 -25.6592 16.3271 -25.6592 16.5586 -26.1943l12.6113 -29.2344c3.4834 -5.40137 16.9531 -25.7227 17.3125 -26.4082c5.67383 -10.7803 5.67383 -10.7803 5.88867 -11.6768c4.22168 -17.6934 34.125 -18.5742 34.5166 -18.5811l32.708 -0.583984zM476.689 353.283
h-22.0361c-99.1377 -4.11719 -99.1377 -4.11719 -99.3574 -4.11328l-32.9424 0.587891c-5.23047 0.0986328 -40.9395 1.76855 -48.29 28.8965l-4.67969 8.8916c-17.126 25.9805 -16.835 25.1201 -17.8711 27.5225l-12.4746 28.918l-15.5664 24.4619l-17.6875 23.9639
l-24.291 29.374c-20.8662 18.4814 -20.8662 18.4814 -21.7832 19.7139l-17.0518 22.9316c-6.08398 8.18066 -1.83594 24.1445 5.11621 31.0967c4.07617 4.07715 7.91992 5.32227 13.6182 6.37109c3.15234 1.40918 6.7002 1.65332 9.98926 0.732422
c15.5146 -4.34375 15.8516 -4.11426 18.5781 -5.8418c16.6475 -10.543 17.9102 -10.9414 20.2949 -13.3252c0.277344 -0.27832 -0.357422 -0.860352 30.9189 -35.6328c16.2939 -18.1172 16.9307 -17.5361 19.2705 -20.707
c0.386719 0.0341797 0.917969 0.100586 1.58789 0.209961l0.787109 1.33887l0.351562 8.78711c-7.83887 29.6611 -7.75195 28.8408 -8.01758 30.7783c-2.44922 17.834 -0.294922 18.0889 -4.69629 49.3418c-0.0683594 0.480469 -0.948242 38.6436 -1.31055 48.5244
c-1.1748 30.7061 -1.45605 29.4951 -0.998047 32.3359c1.43066 8.86816 4.72949 29.3076 21.998 32.9492c14.3574 3.02832 28.2754 -10.4502 30.1855 -13.0166l2.1377 -2.87305c5.7373 18.2051 5.55371 18.084 6.89844 20.3711
c17.7725 30.2285 55.5527 20.2754 63.0303 -1.47656l6.30957 -18.3555c8.80176 29.5762 44.2061 25.1729 55.4707 3.84961c0.131836 -0.204102 12.6553 -19.6602 13.127 -20.3867c12.3564 15.9707 43.6475 18.6631 53.6299 -20.9795
c0.158203 -0.631836 0.276367 -1.27246 0.349609 -1.91699c3.00977 -26.1885 0.49707 -63.6406 -2.21484 -95.916l8.16113 -126.497c0.165039 -2.57031 -0.339844 -5.17676 -1.51758 -7.53125l-15.7266 -31.4541c-0.453125 -1.75293 -0.981445 -3.50293 -1.67871 -5.75391
c-1.95801 -6.31543 -4.02441 -9.9541 2.6748 -38.0469c2.20215 -9.2334 -4.7959 -18.124 -14.2939 -18.124zM316.26 548.238l-0.49707 16.9258l138.614 1.1875l-0.275391 -18.1133h-137.842zM319.451 495.963l-0.826172 19.3662l138.612 -1.1875l0.0556641 -18.1787
h-137.842z" />
  </g>

</svg>
