<?xml version="1.0" standalone="no"?>
<!DOCTYPE svg PUBLIC "-//W3C//DTD SVG 1.1//EN" "http://www.w3.org/Graphics/SVG/1.1/DTD/svg11.dtd" >
<svg xmlns="http://www.w3.org/2000/svg" xmlns:xlink="http://www.w3.org/1999/xlink" version="1.1" viewBox="-10 0 1253 1000">
  <g transform="matrix(1 0 0 -1 0 800)">
   <path fill="currentColor"
d="M619.6 682.052c1.32422 -23.5117 -9.84863 -90.4805 -3.27734 -93.9961c6.45312 -69.3682 73.6143 -134.183 73.7002 -131.681l-11.3809 -7.58789c-25.6035 27.9268 -54.1719 55.5654 -75.9424 131.238c-4.8457 -33.3203 -25.6582 -70.6406 -44.3594 -94.3896
c-11.3799 -14.4512 -16.2568 -26.0098 -26.0117 -36.8486l-13.0059 10.2959c14.6318 18.9668 22.8438 31.1914 32.5156 43.8945c49.3721 64.8564 51.4375 150.011 51.0557 195.121c4.59473 -0.100586 9.18848 -0.201172 13.7832 -0.302734
c2.58398 -0.0566406 2.68945 -2.56934 2.73535 -3.64062c0.00390625 -0.12207 -0.167969 -5.76758 0.1875 -12.1035zM640.447 134.521v-0.52832l-0.52832 0.52832h0.52832zM649.251 134.521h0.52832l-0.52832 -0.52832v0.52832zM585.429 137.001v-0.52832l-0.52832 0.52832
h0.52832zM594.232 137.001h0.529297l-0.529297 -0.52832v0.52832zM546.508 183.094h-0.529297l0.529297 0.52832v-0.52832zM546.508 183.094v-12.1113h38.9209v-33.9814h8.80371v33.9814h46.2148v-36.4619h8.80371v36.4619h41.6064v12.1113h-41.6064v45.0557h41.6064
v12.1104h-41.6064v31.4922h-8.80371v-31.4922h-46.2148v33.9717h-8.80371v-33.9717h-38.9209v-12.1104h38.9209v-45.0557h-38.9209zM690.857 183.094v0.52832l0.529297 -0.52832h-0.529297zM546.508 170.982v-0.52832l-0.529297 0.52832h0.529297zM690.857 170.982h0.529297
l-0.529297 -0.52832v0.52832zM546.508 240.26h-0.529297l0.529297 0.529297v-0.529297zM690.857 240.26v0.529297l0.529297 -0.529297h-0.529297zM546.508 228.149v-0.52832l-0.529297 0.52832h0.529297zM690.857 228.149h0.529297l-0.529297 -0.52832v0.52832z
M640.447 228.149v-45.0557h-46.2148v45.0557h46.2148zM649.251 271.752v0.529297l0.52832 -0.529297h-0.52832zM640.447 271.752h-0.52832l0.52832 0.529297v-0.529297zM594.232 274.231v0.529297l0.529297 -0.529297h-0.529297zM585.429 274.231h-0.52832l0.52832 0.529297
v-0.529297zM612.277 37.2119l-5.32715 5.90332c-101.377 112.608 -196.272 56.8799 -200.593 54.4326l-10.9443 -7.05664v269.424l3.16797 2.16016c1.00879 0 104.545 70.1289 216.72 -48.8154c112.177 119.231 209.952 49.3906 210.96 48.6719l2.88086 -2.16016v-270.72
l-11.6641 9.07129c-3.60059 2.73633 -90 67.249 -199.873 -55.0078zM470.869 127.355c39.0244 0 89.8564 -14.4004 141.408 -68.6885c59.9043 63.6494 113.904 74.8809 148.896 72.8652c15.6865 -0.759766 39.749 -7.21094 53.7109 -14.4004v235.151
c-16.5586 10.3672 -97.9189 52.416 -194.112 -54.4326l-5.32715 -5.90332l-5.32812 5.90332c-95.4717 105.841 -183.024 64.2246 -200.304 54.2891v-236.88c16.1729 6.67676 43.499 12.0957 60.9961 12.0957h0.0595703z" />
  </g>

</svg>
