<?xml version="1.0" standalone="no"?>
<!DOCTYPE svg PUBLIC "-//W3C//DTD SVG 1.1//EN" "http://www.w3.org/Graphics/SVG/1.1/DTD/svg11.dtd" >
<svg xmlns="http://www.w3.org/2000/svg" xmlns:xlink="http://www.w3.org/1999/xlink" version="1.1" viewBox="-10 0 1357 1000">
  <g transform="matrix(1 0 0 -1 0 800)">
   <path fill="currentColor"
d="M1076.49 -87.1699h41.6357l12.8711 39.1699l12.8701 -39.1699h41.6367l-33.6504 -24.2217l12.8711 -39.168l-33.7275 24.2217l-33.7275 -24.2217l12.8701 39.168zM449.371 699.65c1.38281 -24.5713 -9.72363 -95.5068 -4.68262 -103.218
c0.238281 -0.141602 0.928711 -0.631836 1.01953 -1.61133c5.70703 -61.3535 54.957 -120.106 74.0547 -139.204c4.02051 -4.02148 6.62891 -6.03906 6.62891 -6.03906l-2.02637 -0.492188l-0.592773 -1.35547l3.26172 -1.82031l-12.7012 -8.4668
c-0.841797 -0.561523 -1.99902 -0.448242 -2.71191 0.330078c-1.69336 1.84766 -3.40137 3.69531 -5.12012 5.55566c-26.2539 28.4238 -54.9941 59.6357 -77.584 133.263c-7.50098 -35.3447 -28.9346 -72.8994 -48.3613 -97.5713
c-11.5371 -14.6504 -21.2852 -33.4014 -29.1973 -41.3145c-0.760742 -0.760742 -1.96289 -0.814453 -2.78613 -0.162109c-8.57031 6.78418 -14.5664 11.5215 -14.6982 11.6543c-0.754883 0.754883 -0.814453 1.94238 -0.179688 2.76562
c12.1543 15.7559 30.8672 41.8682 36.2793 48.9775c54.5967 71.7168 56.9824 166.197 56.5557 216.482c-0.0107422 1.18555 0.959961 2.14453 2.14648 2.11719l15.3818 -0.338867c1.38086 -0.0302734 5.21875 -0.635742 5.10156 -6.47168
c-0.0253906 -1.26172 -0.136719 -6.88574 0.211914 -13.0801zM236.011 703.85c1.38379 -24.5703 -9.72363 -95.5068 -4.68359 -103.217c0.239258 -0.141602 0.929688 -0.631836 1.02051 -1.61133c5.70703 -61.3535 54.957 -120.106 74.0547 -139.204
c4.02148 -4.02148 6.62891 -6.03906 6.62891 -6.03906l-2.02637 -0.492188l-0.592773 -1.35547l3.26172 -1.82031l-12.7002 -8.4668c-0.842773 -0.5625 -1.99902 -0.448242 -2.71289 0.330078c-1.69336 1.84766 -3.40039 3.69531 -5.11914 5.55566
c-26.2539 28.4238 -54.9951 59.6357 -77.585 133.263c-7.5 -35.3447 -28.9346 -72.8994 -48.3613 -97.5713c-11.5361 -14.6504 -21.2842 -33.4014 -29.1973 -41.3145c-0.760742 -0.760742 -1.96191 -0.814453 -2.78613 -0.162109
c-8.57031 6.78418 -14.5654 11.5205 -14.6982 11.6543c-0.754883 0.754883 -0.814453 1.94238 -0.179688 2.76465c12.1543 15.7568 30.8682 41.8691 36.2803 48.9785c54.5957 71.7168 47.8135 166.573 47.3857 216.858
c-0.00976562 1.18555 0.960938 2.14355 2.14648 2.11719l24.5518 -0.714844c1.36816 -0.0400391 5.21777 -0.635742 5.10156 -6.47168c-0.0253906 -1.26172 -0.137695 -6.88574 0.210938 -13.0811zM971.599 258.692v16.999h-129.875v98.875h-16.998v-98.875h-129.875
v-16.999h129.875v-266.375h16.998v266.375h129.875zM712.081 -135.479v0v0v0h-0.0185547l238.911 1.41992l2.57031 126.927c0.0136719 0.670898 0.925781 7.2002 1.80078 7.2002c0.650391 0 2.14258 6.03906 2.69922 6.2998c13.5 6.2998 33.2598 16.9854 33.3008 17.0996
c9.06934 25.4082 79.1875 65.9629 105.229 214.697c2.4043 13.7324 -0.363281 23.4365 -0.830078 31.0029c-1.53809 24.9414 -22.5605 114.035 -50.5381 146.176c-2.4873 2.8584 0.819336 8.78516 -11.541 19.5371c-63.542 55.2676 -88.2041 64.5508 -213.821 70.4609
c-3.68164 0.172852 -8.84668 -3.04492 -13.6436 -3.04492c-41.6299 0 -122.365 -15.085 -183.184 -74.5381c-18.8633 -19.1875 -53.2715 -67.1289 -53.1211 -162.229c0.22168 -140.47 77.9023 -192.597 146.537 -275.192l-4.37012 -125.815h0.0185547zM1045.34 415.201
l0.305664 -0.255859c-0.232422 0.162109 -0.258789 0.208984 -0.305664 0.255859zM1032.9 431.157c-0.0263672 0 -0.0527344 0.0507812 -0.0849609 0.0800781zM717.744 32.4678c-9.89941 10.7998 -25.498 26.5908 -32.3994 36.9004
c-11.7686 17.5811 -88.2266 64.8896 -87.876 203.176c0.0703125 27.9004 4.97363 91.1846 59.2666 146.697c2.31836 2.36914 2.31836 2.36914 2.46191 2.47656c60.7363 45.0732 109.222 58.2266 182.061 58.2266c56.3311 0 115.546 -10.5713 151.688 -47.1963
c20.4443 -20.7168 24.1807 -23.2539 24.4023 -23.5107c28.4766 -32.9492 37.2139 -84.7812 43.2393 -120.526c2.85449 -16.9307 5.16895 -32.9834 4.14648 -48.0752c-6.78906 -100.168 -61.4375 -169.595 -98.5889 -197.368
c-7.79199 -5.82422 -10.498 -13.002 -15.2998 -14.3994c-6.05762 -1.76367 -16.2002 -11.502 -17.1006 -12.6006c-0.883789 -1.0791 -8.09961 -7.19922 -8.09961 -7.19922l-8.10059 -133.2l-175.5 0.899414c-0.0332031 -4.10547 0.634766 77.4697 0.900391 109.801
c1.7002 16.1201 1.67188 28.8271 -0.900391 31.5c-6.10547 6.34668 -14.5312 12.3633 -24.2998 14.3994zM950.969 -136.23c0 0.723633 0.00488281 1.44824 0.00488281 2.17188h0.118164z" />
  </g>

</svg>
