<?xml version="1.0" standalone="no"?>
<!DOCTYPE svg PUBLIC "-//W3C//DTD SVG 1.1//EN" "http://www.w3.org/Graphics/SVG/1.1/DTD/svg11.dtd" >
<svg xmlns="http://www.w3.org/2000/svg" xmlns:xlink="http://www.w3.org/1999/xlink" version="1.1" viewBox="-10 0 1000 1000">
  <g transform="matrix(1 0 0 -1 0 800)">
   <path fill="currentColor"
d="M106.466 379.034c-9.56348 0 -19.168 1.11133 -27.7773 1.11133h-6.70117l1.88477 26.9395c28.7715 -2.61914 47.665 -1.74219 66.0654 0.780273c13.5146 1.80664 36.5762 11.9414 46.6426 22.0088c25.7217 25.7207 21.9678 58.0986 17.3076 96.0693
c-0.442383 2.8457 -4.12793 27.5537 -3.38965 53.7266c0.967773 27.6309 16.6074 58.498 23.8711 66.9141c14.8613 17.2217 44.3174 35.0566 67.9287 39.9609c18.2197 3.69824 45.6201 7.25293 80.1396 6.52246v-26.3916
c-8.0957 0.174805 -9.75586 0.210938 -13.1357 0.210938c-16.8213 0 -44.8027 -2.76367 -61.3008 -6.05859c-16.5508 -3.38184 -41.2773 -17.3516 -53.1992 -30.8672c-9.14355 -12.3066 -17.6953 -36.3389 -18.3408 -51.5596
c-0.508789 -19.333 1.12988 -32.624 3.15039 -49.0146c5.12207 -41.5449 10.4492 -85.4736 -27.1436 -120.402l-0.0556641 -0.0498047c-14.3877 -12.7461 -39.7051 -24.4014 -58.7676 -27.0537c-2.26562 -0.362305 -18.6953 -2.84668 -37.1787 -2.84668zM230.493 305.84
c-9.96484 0 -19.459 1.11133 -27.7773 1.11133h-6.70215l1.88672 26.9385c28.3828 -2.58203 46.7646 -1.69238 64.6865 0.782227c13.3916 1.76855 35.8516 11.7891 45.375 21.3125c25.0244 25.0244 21.4395 56.5488 16.8965 93.7139
c-0.779297 5.05371 -3.96387 28.1885 -3.24902 52.4766c0.97168 27.1309 16.3418 57.3184 23.3193 65.3867c14.582 16.8613 43.4209 34.3047 66.5361 39.1221c17.8311 3.62109 44.5879 7.0918 78.3506 6.38867l0.529297 -26.2627
c-8.27539 0.180664 -9.84277 0.21582 -13.1758 0.21582c-16.4209 0 -43.7607 -2.70215 -59.8652 -5.91992c-16.1328 -3.28809 -40.2783 -16.8877 -51.9326 -30.0195c-8.75586 -12.0234 -16.9297 -35.4219 -17.5205 -50.1719
c-0.460938 -18.7246 1.06543 -31.0684 3.14941 -47.9141c4.97754 -40.2471 10.1621 -83.0908 -26.707 -117.888l-0.0732422 -0.0654297c-14.123 -12.5215 -38.9482 -23.9287 -57.6699 -26.501c-4.10059 -0.646484 -19.0596 -2.70605 -36.0566 -2.70605zM530.504 389.05
c-9.56348 0 -19.168 1.11133 -27.7773 1.11133h-6.70117l1.88477 26.9395c28.7715 -2.61914 47.665 -1.74219 66.0654 0.780273c13.5146 1.80664 36.5762 11.9414 46.6426 22.0088c25.7217 25.7207 21.9678 58.0986 17.3076 96.0693
c-0.442383 2.8457 -4.12793 27.5537 -3.38965 53.7266c0.967773 27.6309 16.6074 58.498 23.8711 66.9141c14.8613 17.2217 44.3174 35.0566 67.9287 39.9609c18.2197 3.69824 45.6201 7.25293 80.1396 6.52246v-26.3916
c-8.0957 0.174805 -9.75586 0.210938 -13.1357 0.210938c-16.8213 0 -44.8027 -2.76367 -61.3008 -6.05859c-16.5508 -3.38184 -41.2773 -17.3516 -53.1992 -30.8672c-9.14355 -12.3066 -17.6953 -36.3389 -18.3408 -51.5596
c-0.508789 -19.333 1.12988 -32.624 3.15039 -49.0146c5.12207 -41.5449 10.4492 -85.4736 -27.1436 -120.402l-0.0556641 -0.0498047c-14.3877 -12.7461 -39.7051 -24.4014 -58.7676 -27.0537c-2.26562 -0.362305 -18.6953 -2.84668 -37.1787 -2.84668zM654.531 315.855
c-9.96484 0 -19.459 1.11133 -27.7773 1.11133h-6.70215l1.88672 26.9385c28.3828 -2.58203 46.7646 -1.69238 64.6865 0.782227c13.3916 1.76855 35.8516 11.7891 45.375 21.3125c25.0244 25.0244 21.4395 56.5488 16.8965 93.7139
c-0.779297 5.05371 -3.96387 28.1885 -3.24902 52.4766c0.97168 27.1309 16.3418 57.3184 23.3193 65.3867c14.582 16.8613 43.4209 34.3047 66.5361 39.1221c17.8311 3.62109 44.5879 7.0918 78.3506 6.38867l0.529297 -26.2627
c-8.27539 0.180664 -9.84277 0.21582 -13.1758 0.21582c-16.4209 0 -43.7607 -2.70215 -59.8652 -5.91992c-16.1328 -3.28809 -40.2783 -16.8877 -51.9326 -30.0195c-8.75586 -12.0234 -16.9297 -35.4219 -17.5205 -50.1719
c-0.460938 -18.7246 1.06543 -31.0684 3.14941 -47.9141c4.97754 -40.2471 10.1621 -83.0908 -26.707 -117.888l-0.0732422 -0.0654297c-14.123 -12.5215 -38.9482 -23.9287 -57.6699 -26.501c-4.10059 -0.646484 -19.0596 -2.70605 -36.0566 -2.70605zM73.0781 -109.736
h36.2979l11.2207 34.1475l11.2207 -34.1475h36.2979l-29.335 -21.1162l11.2197 -34.1475l-29.4033 21.1162l-29.4033 -21.1162l11.2207 34.1475zM248.506 -184.697c-5.07031 0 -9.43945 4.13379 -9.43945 9.43848v331.616c0 5.08789 4.14844 9.43945 9.47168 9.43945
c0 0 93.0098 -0.375977 110.412 -0.445312l64.0713 57.9678l3.00293 -23.3945l2.20996 -40.8848l233.541 5.08984c5.05664 0.110352 9.40332 -4.15332 9.40332 -9.43945v-95.625l56.6025 -65.9043l-43.1865 2.33887l-15.4707 2.20996l2.05469 -174.636
c0.0595703 -5.0752 -4.16211 -9.43945 -9.4707 -9.43945zM645.92 -5.60449l-28.7305 -4.4209l-36.1621 4.79492l60.2217 66.0459v73.416l-210.805 2.70898l-1.10449 -34.2559l-1.33203 -25.9687l-69.6455 58.7305l-89.3623 0.383789v-290.63l372.249 -1.59863z" />
  </g>

</svg>
