<?xml version="1.0" standalone="no"?>
<!DOCTYPE svg PUBLIC "-//W3C//DTD SVG 1.1//EN" "http://www.w3.org/Graphics/SVG/1.1/DTD/svg11.dtd" >
<svg xmlns="http://www.w3.org/2000/svg" xmlns:xlink="http://www.w3.org/1999/xlink" version="1.1" viewBox="-10 0 824 1000">
  <g transform="matrix(1 0 0 -1 0 800)">
   <path fill="currentColor"
d="M332.665 142.831v-242.667h36.6621v279.33h-216.667v240.667h-36.6621v-516.163h36.6621v238.833h180.005zM464.159 290.312c93.4264 0 164.727 50.4505 164.727 131.968v302.22h-31.3857v-302.359c0 -71.2244 -70.8219 -100.418 -130.974 -100.418
c-32.927 0 -77.2147 9.28601 -105.51 37.5814c-15.3317 15.3317 -25.464 36.353 -25.464 62.9757v302.22h-31.3857v-302.316c0 -32.4065 16.9736 -66.8295 38.5185 -88.3744c26.4324 -26.4324 83.6538 -43.4974 121.474 -43.4974z" />
  </g>

</svg>
