<?xml version="1.0" standalone="no"?>
<!DOCTYPE svg PUBLIC "-//W3C//DTD SVG 1.1//EN" "http://www.w3.org/Graphics/SVG/1.1/DTD/svg11.dtd" >
<svg xmlns="http://www.w3.org/2000/svg" xmlns:xlink="http://www.w3.org/1999/xlink" version="1.1" viewBox="-10 0 1013 1000">
  <g transform="matrix(1 0 0 -1 0 800)">
   <path fill="currentColor"
d="M63.3545 -23.4795h55.5146l17.1611 52.2256l17.1602 -52.2256h55.5156l-44.8672 -32.2959l17.1611 -52.2246l-44.9697 32.2959l-44.9707 -32.2959l17.1611 52.2246zM418.323 320.15l121.791 -105.346l-116.757 -103.006l-10.4971 11.1006l100.813 84.8584
l-346.102 -2.79785l-0.833008 15.833l347.013 0.404297l-105.093 87.9697zM348.333 383.378l-166.333 301.111l19.1992 8.11035l148.801 -255.6l135.6 258l25.9551 -10.5107zM890.115 693.681l-102.18 -103.193l111.196 -102.211l-14.4775 -12.0586l-111.32 102.478
l-100.684 -102.478l-10.5137 11.499l99.4033 101.088l-97.7178 101.648l12.916 12.3545l98.8418 -98.2793l103.335 98.8398zM778.188 333.757c17.0342 -62.5488 62.8223 -112.606 146.086 -154.672l-5.24512 -12.709c-81.4443 41.2646 -131.021 90.7236 -151.312 151.174
c-19.1055 -53.666 -72.9561 -120.811 -120.206 -149.877l-8.51855 12.8506c93.4102 59.9512 138.297 149.716 134.372 274.814l13.5898 -0.299805c0.18457 -0.00292969 0.339844 -11.7344 0.339844 -16.2119c0 -30.4619 -9.10547 -105.069 -9.10547 -105.069z" />
  </g>

</svg>
