<?xml version="1.0" standalone="no"?>
<!DOCTYPE svg PUBLIC "-//W3C//DTD SVG 1.1//EN" "http://www.w3.org/Graphics/SVG/1.1/DTD/svg11.dtd" >
<svg xmlns="http://www.w3.org/2000/svg" xmlns:xlink="http://www.w3.org/1999/xlink" version="1.1" viewBox="-10 0 1111 1000">
  <g transform="matrix(1 0 0 -1 0 800)">
   <path fill="currentColor"
d="M763.935 96.4746zM332.175 386.946zM251.545 238.509zM565.705 44.4316zM565.137 26.4062zM325.101 93.4316zM463.482 49.8965zM840.948 272.07zM251.545 238.509zM840.948 272.07zM851.577 282.187c5.56738 -16.8633 9.15234 -35.1133 13.835 -52.5947
l3.26367 -0.0537109c-2.48145 -52.3799 -3.41602 -72.1045 -88.4727 -139.314c-63.29 -50.0107 -109.626 -67.627 -214.95 -68.8145c-72.4492 -0.816406 -164.719 1.89551 -245.607 68.7969c-31.874 26.3613 -82.4697 77.3809 -82 135.336h-2.26758
c2.47754 9.29004 2.47754 9.29004 2.71387 16.4229l1.65918 -0.0283203l7.10254 26.6348h-3.11816c1.61914 2.19922 3.23828 4.39844 4.85645 6.59668v7.48438h5.50977l80.4365 109.291h2.55176c27.8301 65.0771 134.447 96.4268 175.858 46.0176
c5.87988 -2.64258 32.5469 -13.2822 60.626 -3.04492c14.4639 19.3584 55.1035 38.041 100.836 28.5576c44.2324 -9.17188 88.8516 -50.3193 108.428 -70.3535h0.938477c0.689453 -1.0166 1.16211 -2.18262 2.0293 -3.07227l6.15137 -6.41797l58.7324 -100.361
c0.875977 0.0751953 1.56836 0.0195312 1.43066 -0.616211zM278.562 229.057c-0.974609 -33.3994 2.71973 -73.1191 83.835 -129.9c68.8311 -48.1816 125.865 -51.6426 204.166 -49.7031c91.2295 2.34863 129.297 14.0742 184.386 59.0889
c73.2568 59.8643 85.3945 78.625 76.585 113.791l-11.6484 46.5049l-0.427734 -0.763672c0.0244141 2.81445 -1.85742 6.39355 -1.83301 9.20898l-65.3672 103.1c-1.75391 -0.0693359 -0.353516 1.52441 -2.10742 1.45605
c-40.4619 26.6758 -44.7754 38.2334 -59.8896 47.1465c-23.2744 13.7246 -59.0566 10.9619 -81.8369 -4.58594c-11.3398 -34.1611 -81.7002 -39.6348 -114.121 -8.83008c-3.02148 2.87109 -5.25098 1.27344 -4.96484 4.79688
c-34.6553 23.8477 -99.5693 -0.178711 -117.913 -43.3818l-2.22461 -5.23926l-3.70801 1.42773l-71.4854 -101.205zM892.406 42.0361zM213.927 498.492zM87.2227 265.233zM580.903 -39.7451zM580.011 -68.0713zM202.811 37.2549zM420.267 -31.1572zM1013.43 317.973z
M87.2227 265.233zM1013.43 317.973zM1030.13 333.869c8.74805 -26.499 14.3818 -55.1768 21.7402 -82.6484l5.12891 -0.0839844c-3.90039 -82.3115 -5.36914 -113.307 -139.028 -218.923c-99.4551 -78.5889 -172.27 -106.271 -337.779 -108.137
c-113.85 -1.2832 -258.843 2.97754 -385.954 108.108c-50.0879 41.4248 -129.596 121.599 -128.858 212.671h-3.5625c3.89355 14.5986 3.89355 14.5986 4.26465 25.8076l2.60645 -0.0439453l11.1611 41.8545h-4.89941c2.54395 3.45508 5.08887 6.91113 7.63281 10.3652
v11.7617h8.65723l126.399 171.743h4.01074c43.7334 102.265 211.275 151.528 276.349 72.3135c9.23926 -4.15234 51.1445 -20.8721 95.2695 -4.78516c22.7295 30.4209 86.5918 59.7783 158.457 44.876c69.5068 -14.4131 139.624 -79.0732 170.386 -110.556h1.47559
c1.08398 -1.5957 1.82617 -3.42871 3.18945 -4.82715l9.66504 -10.085l92.2939 -157.71c1.37695 0.116211 2.46582 0.0292969 2.24805 -0.969727zM129.679 250.38c-1.53027 -52.4844 4.27441 -114.901 131.741 -204.129c108.163 -75.7139 197.788 -81.1523 320.831 -78.1045
c143.361 3.68945 203.182 22.1152 289.749 92.8535c115.119 94.0723 134.193 123.554 120.35 178.814l-18.3057 73.0781l-0.672852 -1.19922c0.0390625 4.42188 -2.91895 10.0469 -2.87988 14.4707l-102.72 162.014c-2.75684 -0.108398 -0.555664 2.39551 -3.3125 2.28809
c-63.5811 41.9189 -70.3613 60.0811 -94.1123 74.0879c-36.5723 21.5664 -92.8027 17.2256 -128.6 -7.20605c-17.8203 -53.6816 -128.387 -62.2842 -179.333 -13.876c-4.74805 4.51172 -8.25098 2.00195 -7.80273 7.53711
c-54.458 37.4746 -156.466 -0.280273 -185.292 -68.1709l-3.49512 -8.2334l-5.82617 2.24316l-112.336 -159.036zM358.949 184.542v48.3906h399.398v-48.3906h-399.398zM434.198 232.933v94.7656h30.8721v-94.7656h-30.8721zM536.459 232.933v90.7344h30.8711v-90.7344
h-30.8711zM646.439 230.916v88.7178h34.7285v-88.7178h-34.7285z" />
  </g>

</svg>
