<?xml version="1.0" standalone="no"?>
<!DOCTYPE svg PUBLIC "-//W3C//DTD SVG 1.1//EN" "http://www.w3.org/Graphics/SVG/1.1/DTD/svg11.dtd" >
<svg xmlns="http://www.w3.org/2000/svg" xmlns:xlink="http://www.w3.org/1999/xlink" version="1.1" viewBox="-10 0 781 1000">
  <g transform="matrix(1 0 0 -1 0 800)">
   <path fill="currentColor"
d="M172.044 711.796h403.473v-173.608h-403.473v-24.7041l433.956 0.516602l-3.91211 222.006l-430.044 0.472656v-24.6826zM394.245 382.478c2.13281 -37.9023 -15.8779 -145.864 -5.28223 -151.531c10.4014 -111.83 118.672 -216.315 118.81 -212.284l-18.3467 -12.2305
c-41.2754 45.0205 -87.3311 89.5762 -122.426 211.568c-7.81348 -53.7148 -41.3652 -113.878 -71.5127 -152.164c-18.3438 -23.2959 -26.209 -41.9326 -41.9336 -59.4043l-20.9668 16.5977c23.5879 30.5762 36.8271 50.2842 52.417 70.7617
c79.5957 104.556 82.9248 241.831 82.3076 314.557c7.40723 -0.162109 14.8135 -0.326172 22.2207 -0.489258c4.16699 -0.0898438 4.33594 -4.14062 4.4082 -5.87012c0.00878906 -0.195312 -0.270508 -9.29492 0.304688 -19.5107z" />
  </g>

</svg>
