<?xml version="1.0" standalone="no"?>
<!DOCTYPE svg PUBLIC "-//W3C//DTD SVG 1.1//EN" "http://www.w3.org/Graphics/SVG/1.1/DTD/svg11.dtd" >
<svg xmlns="http://www.w3.org/2000/svg" xmlns:xlink="http://www.w3.org/1999/xlink" version="1.1" viewBox="-10 0 1215 1000">
  <g transform="matrix(1 0 0 -1 0 800)">
   <path fill="currentColor"
d="M315.736 126.722l-82.2217 148.848l24.0225 10.1475l58.4395 -100.383l53.3027 101.418l27.2285 -11.0254zM232.823 -38.6787v34.6641h38.626v22.0713h-38.626v34.6641h38.626v33.7148h31.3828v-33.7148h23.2197v31.2539h31.3828v-31.2539h41.292v-34.6641h-41.292
v-22.0713h41.292v-34.6641h-41.292v-36.1855h-31.3828v36.1855h-23.2197v-33.7246h-31.3828v33.7246h-38.626zM302.832 -4.01465h23.2197v22.0713h-23.2197v-22.0713zM889.449 -25.4033h-323.297l0.216797 164.161c-12.123 -5.10645 -24.2471 -10.2129 -36.3701 -15.3193
v43.2637l216.847 89.3984c0.620117 -0.28125 1.39551 -1.04395 1.56934 0.0556641c14.0449 -8.15234 14.0449 -8.15234 42.4219 -22.8662l-1.75293 -0.737305l133.207 -77.3066l0.775391 -46.5869c-10.9932 6.50293 -21.9854 13.0059 -32.9785 19.5098zM606.334 14.8125
h243.036l1.16699 136.753l-105.537 62.4346l-139.312 -58.6816zM-2672.5 897.31zM-2672.5 897.31zM770 350c-0.154297 0 -0.836914 0.291016 -0.836914 0.932617c0 0.0996094 0.0146484 0.198242 0.0380859 0.288086c-0.383789 7.48633 -0.767578 14.9746 -1.15137 22.4619
l275.877 28.2949c-2.66309 0.253906 -5.10742 0.487305 -5.13574 0.491211c-28.46 4.84473 -39.0049 18.2344 -39.0049 46.3047c0 63.2617 53.1904 168.557 63.9414 224.825c0.495117 2.58984 3.89355 4.51465 3.89355 6.45117c0 0.135742 0.699219 1.80664 0.5625 2.8125
l1.125 -1.125c0.0273438 -0.896484 0.692383 -1.50293 0.72168 -2.39941v0c12.7305 -61.2461 60.8584 -142.447 60.8584 -200.698c0 -19.1465 -5.68262 -33.3457 -14.3311 -50.8477c-1.99609 -4.04004 -4.44922 -9.00586 -7.67383 -15.8516
c-0.263672 -0.560547 -2.5918 -3.03223 -13.5449 -12.4316l-7.58398 3.16016l-0.854492 2.56152c0.224609 0.211914 15.2266 15.1201 16.043 26.3545c0.393555 5.41797 0.579102 10.6123 0.579102 15.5957c0 50.4287 -18.9785 79.3359 -33.2959 101.174
c-4.52441 6.90137 -8.59473 13.0996 -11.4521 19.0752c-12.2959 -38.5469 -39.5283 -78.3047 -39.5283 -116.317c0 -18.8291 10.4619 -33.5244 10.6875 -33.75c5.34863 -5.34863 8.9248 -9.08496 21.6562 -12.8701v-1.72852l0.788086 0.0810547
c2.76367 6.74219 9.47949 13.1406 17.4375 13.1406c11.9346 0 17.7871 -10.4961 17.7871 -18.9492c0 -8.77734 -6.77344 -18.7676 -15.4814 -18.7676c-4.03906 0 -8.75391 1.92188 -12.7012 4.85449c-57.6855 -8.91504 -196.589 -24.6162 -284.661 -32.6104
c-2.43359 -0.220703 -3.9873 -0.351562 -4.53223 -0.383789c0 0 -0.0595703 -0.128906 -0.226562 -0.128906zM48.3545 -34.4795h55.5146l17.1611 52.2256l17.1602 -52.2256h55.5156l-44.8672 -32.2959l17.1611 -52.2246l-44.9697 32.2959l-44.9707 -32.2959l17.1611 52.2246
zM551.68 710.398l-60.5674 -60.9395l66.0361 -60.4727c1.81543 -1.66211 1.59766 -4.58008 -0.146484 -6.02832l-8.99805 -7.46582c-1.52441 -1.26465 -3.81348 -1.19531 -5.25879 0.129883l-66.3428 60.8438l-59.8643 -60.7041
c-1.64941 -1.67285 -4.38477 -1.43262 -5.79492 0.103516l-6.53516 7.11914c-1.47852 1.61035 -1.26758 4.12988 0.0996094 5.51465l59.0371 59.8115l-58.0215 60.1309c-1.67578 1.73535 -1.15723 4.45703 0.119141 5.67285l8.02832 7.65039
c1.56348 1.49023 4.09082 1.41602 5.57422 -0.0546875l58.6689 -58.1172l61.4092 58.5195c1.5127 1.44238 3.92285 1.38086 5.37012 0.134766l6.96094 -5.99902c1.75195 -1.50977 1.80762 -4.25879 0.225586 -5.84961zM471.601 366.829l-71.6523 73.1748
c-1.52637 1.55859 -1.41309 4.08301 -0.0664062 5.52637l13.6484 14.6348c1.64062 1.75879 4.38281 1.41016 5.6875 0.164062l54.3369 -51.8975l99.6514 131.251c1.30078 1.71484 3.80664 2.06641 5.52734 0.824219l15.3535 -11.0869
c1.94336 -1.40332 1.9668 -4.16309 0.860352 -5.6416l-117.287 -156.55c-1.45703 -1.94434 -4.3877 -2.10742 -6.05957 -0.399414z" />
  </g>

</svg>
