<?xml version="1.0" standalone="no"?>
<!DOCTYPE svg PUBLIC "-//W3C//DTD SVG 1.1//EN" "http://www.w3.org/Graphics/SVG/1.1/DTD/svg11.dtd" >
<svg xmlns="http://www.w3.org/2000/svg" xmlns:xlink="http://www.w3.org/1999/xlink" version="1.1" viewBox="-10 0 1057 1000">
  <g transform="matrix(1 0 0 -1 0 800)">
   <path fill="currentColor"
d="M37.5039 748.016h42.7031l13.2012 40.1738l13.2002 -40.1738h42.7041l-34.5127 -24.8428l13.2002 -40.1729l-34.5918 24.8428l-34.5928 -24.8428l13.2012 40.1729zM291.569 305.226l-123.313 223.234l25.0938 10.6016l99.0166 -170.086l90.2715 171.753l30.001 -12.1514z
M905.943 285.688zM654.288 454.992zM607.293 368.474zM790.403 255.354zM790.072 244.849zM650.165 283.914zM730.822 258.54zM950.831 388.035zM607.293 368.474zM950.831 388.035zM957.026 393.932c3.24414 -9.8291 5.33398 -20.4658 8.06348 -30.6553l1.90332 -0.0302734
c-1.44727 -30.5303 -1.99219 -42.0273 -51.5684 -81.2012c-36.8887 -29.1494 -63.8945 -39.417 -125.285 -40.1084c-42.2275 -0.476562 -96.0068 1.10352 -143.153 40.0977c-18.5781 15.3643 -48.0684 45.1016 -47.7949 78.8818h-1.32227
c1.44434 5.41406 1.44434 5.41406 1.58301 9.57227l0.966797 -0.015625l4.13965 15.5234h-1.81738c0.944336 1.28125 1.8877 2.5625 2.83105 3.84473v4.36133h3.20996l46.8838 63.7021h1.4873c16.2207 37.9307 78.3643 56.2031 102.5 26.8213
c3.42773 -1.53906 18.9707 -7.74121 35.3369 -1.77441c8.43066 11.2832 32.1182 22.1719 58.7734 16.6445c25.7803 -5.3457 51.7881 -29.3291 63.1973 -41.0059h0.547852c0.401367 -0.592773 0.676758 -1.27246 1.18262 -1.79004l3.58398 -3.74121l34.2334 -58.4961
c0.510742 0.0439453 0.914062 0.0107422 0.833984 -0.360352zM623.041 362.964c-0.568359 -19.4658 1.58398 -42.6172 48.8633 -75.7129c40.1182 -28.082 73.3613 -30.0996 118.999 -28.9697c53.1738 1.36914 75.3623 8.20312 107.471 34.4414
c42.6992 34.8906 49.7734 45.8262 44.6387 66.3232l-6.79004 27.1045l-0.249023 -0.444336c0.0146484 1.63965 -1.08203 3.72656 -1.06836 5.36719l-38.0996 60.0928c-1.02148 -0.0400391 -0.206055 0.887695 -1.22852 0.848633
c-23.583 15.5479 -26.0977 22.2842 -34.9072 27.4805c-13.5654 7.99805 -34.4209 6.3877 -47.6992 -2.67383c-6.6084 -19.9102 -47.6191 -23.1025 -66.5156 -5.14551c-1.76172 1.67285 -3.06055 0.742188 -2.89453 2.79492
c-20.1992 13.8994 -58.0352 -0.104492 -68.7266 -25.2852l-1.2959 -3.05371l-2.16113 0.831055l-41.666 -58.9873zM802.615 310.764l-1.01953 93.3184l16.1875 -0.994141l1.67285 -108.916l-87.6807 -0.757812l1.45898 104.214l16.8828 1.30566l-0.782227 -88.1699h53.2803z
M797.575 236.096zM783.215 175.359c0 2.88477 -0.185547 3.44434 -0.185547 7.14551c0 0.885742 0.0195312 1.88184 0.0195312 1.90039c0 3.75391 -2.29492 7.66406 -7.08789 7.7666c-7.62695 0.167969 -7.62695 0.167969 -7.69043 0.167969
c-3.08496 0 -5.70898 -2.46973 -5.70801 -5.75879c0.00976562 -1.21094 0.0166016 -2.47266 0.0166016 -3.78027c0 -25.2422 -2.42578 -67.6924 -26.8789 -99.8125c-2.46094 -3.23242 -12.0908 -16.6328 -17.8232 -24.0635
c-0.790039 -1.02344 -1.18457 -2.25391 -1.18457 -3.4834c0 -1.46289 0.557617 -2.9248 1.67188 -4.03906c0.0976562 -0.0986328 0.121094 -0.145508 7.63574 -6.0957c1.03516 -0.818359 2.28809 -1.22852 3.54199 -1.22852c3.2959 0 5.28711 2.15039 11.7617 12.2432
c2.10449 3.28027 4.35938 6.80273 7.00684 10.1641c10.1123 12.8438 15.0508 23.1611 20.4268 35.3018c10.6758 -25.1123 15.6113 -32.6934 36.9062 -55.8643c0.558594 -0.609375 1.9668 -1.84277 4.20996 -1.84277c1.72852 0 1.72852 0 9.40625 5.11816
c0.505859 0.335938 2.08594 1.5752 2.08594 3.89844c0 0.0537109 -0.111328 3.47168 -1.61914 5.04102c-8.89258 7.46094 -35.5693 38.2236 -38.3965 68.625c-0.302734 3.26367 -1.09082 0.0107422 -1.09082 5.65332c0 11.0371 2.97559 31.0996 2.97559 42.9434z
M935.396 541.498h-283.024l-65.998 166.68l121.967 -51.1279l79.8232 99.8223l78.3984 -101.486l120.936 51.4336zM716.975 618.965l-74.6113 32.7764l34.3818 -78.9121l231.255 -0.829102l23.9053 75.2295l-73.1562 -32.5137l-69.3457 89.0996z" />
  </g>

</svg>
