<?xml version="1.0" standalone="no"?>
<!DOCTYPE svg PUBLIC "-//W3C//DTD SVG 1.1//EN" "http://www.w3.org/Graphics/SVG/1.1/DTD/svg11.dtd" >
<svg xmlns="http://www.w3.org/2000/svg" xmlns:xlink="http://www.w3.org/1999/xlink" version="1.1" viewBox="-10 0 1427 1000">
  <g transform="matrix(1 0 0 -1 0 800)">
   <path fill="currentColor"
d="M51.3545 703.521h55.5146l17.1611 52.2256l17.1602 -52.2256h55.5156l-44.8672 -32.2959l17.1611 -52.2246l-44.9697 32.2959l-44.9707 -32.2959l17.1611 52.2246zM1014.88 600.171l-36.6954 84.2732l75.0314 -32.9616l75.5457 95.0128l72.7683 -99.548
c24.1083 10.7152 48.2165 21.4304 72.3248 32.1456l-33.8703 -79.7871zM1327.5 383.498v31.3975h-181.825v155.178h139.771l54.4284 172.702l-120.38 -52.3383l-91.8285 114.05l-92.1035 -114.047l-122.125 53.3945l68.8029 -173.761h132.038v-155.178h-181.826v-31.3975
h181.826v-372.924h31.3965v372.924h181.825zM289.31 511.861c0 10.1024 -0.706462 12.7453 -0.706462 27.2797c0 3.74689 0.0737609 7.36237 0.0737609 7.43674c0 2.0357 -0.220529 11.7094 -9.72093 11.911c0 0 -29.2988 0.646717 -29.39 0.647726
c-2.15856 0 -3.99836 -1.72884 -3.99808 -4.03438c0.0425454 -5.00147 0.070514 -10.2322 0.070514 -15.6741c0 -98.7977 -9.21869 -267.187 -107.794 -396.673c-30.0498 -40.9194 -56.7237 -77.2419 -69.1054 -93.2912
c-0.552463 -0.716677 -0.827996 -1.57762 -0.827996 -2.43825c0 -0.985246 0.3611 -1.97008 1.0812 -2.73758c0.502505 -0.405289 4.69432 -3.77293 28.0865 -22.2923c0.72288 -0.572239 1.59971 -0.859036 2.4774 -0.859036c8.07487 0 34.9332 50.0071 58.4425 79.8632
c29.9557 38.0433 62.5244 92.1733 81.3338 147.209l11.5039 33.6602l12.0757 -33.4602c40.8592 -113.215 89.779 -166.454 134.985 -215.392c10.9433 -11.8769 10.9433 -11.8769 12.7051 -11.8769c1.21618 0 1.21618 0 30.6294 19.609
c-10.5184 8.2389 -12.6493 10.2472 -18.0746 15.6726c-36.4268 36.4258 -130.181 148.227 -141.057 265.152c-0.10856 1.17159 -0.10856 1.17159 -3.10481 4.92402c-0.761331 6.24523 -1.26463 10.3738 -1.26463 20.1955c0 40.4954 11.579 120.998 11.579 165.167z
M813.229 519.226c0 10.101 -0.70681 12.7664 -0.70681 27.2922c0 3.79194 0.0752112 7.3875 0.0752112 7.46213c0 2.04568 -0.245572 11.6749 -9.72155 11.8756c0 0 -29.3002 0.646726 -29.3914 0.647736c-2.15863 0 -3.99738 -1.7289 -3.9971 -4.03438
c0.0425415 -5.00101 0.0705062 -10.2312 0.0705062 -15.6726c0 -98.7976 -9.21919 -267.188 -107.795 -396.674c-8.28505 -10.8823 -47.4731 -65.2498 -69.104 -93.2916c-0.552254 -0.716286 -0.828117 -1.57774 -0.828117 -2.43915
c0 -0.98449 0.360324 -1.96893 1.08018 -2.73655c0.503888 -0.406399 4.69872 -3.77641 28.0862 -22.2921c0.724088 -0.572735 1.60077 -0.858889 2.47762 -0.858889c8.07681 0 34.925 49.9966 58.4434 79.8632c29.9557 38.0433 62.5243 92.1731 81.3337 147.209
l11.5041 33.6606l12.0756 -33.4607c40.8582 -113.215 89.7789 -166.453 134.984 -215.392c10.943 -11.8777 10.943 -11.8777 12.7042 -11.8777c1.21577 0 1.21577 0 30.6292 19.6092c-10.5178 8.23997 -12.6481 10.2478 -18.0736 15.6733
c-36.4268 36.4258 -130.182 148.227 -141.057 265.153c-0.10914 1.17005 -0.10914 1.17005 -3.10616 4.927c-0.760927 6.24202 -1.2647 10.3745 -1.2647 20.1996c0 40.5029 11.5804 120.979 11.5804 165.158zM613.161 350.637l-97.5586 84.3848l-22.5781 -25.6631
c16.9062 -14.1523 33.8115 -28.3037 50.7178 -42.4551l-150.01 -4.31152l1.83008 -34.8184l147.899 5.68066c-16.0293 -13.4922 -32.0576 -26.9844 -48.0859 -40.4766l23.8418 -25.2188z" />
  </g>

</svg>
