<?xml version="1.0" standalone="no"?>
<!DOCTYPE svg PUBLIC "-//W3C//DTD SVG 1.1//EN" "http://www.w3.org/Graphics/SVG/1.1/DTD/svg11.dtd" >
<svg xmlns="http://www.w3.org/2000/svg" xmlns:xlink="http://www.w3.org/1999/xlink" version="1.1" viewBox="-10 0 2662 1000">
  <g transform="matrix(1 0 0 -1 0 800)">
   <path fill="currentColor"
d="M559.706 494.269c34.498 0 69.8818 19.1445 80.6455 57.2744l1.43945 5.09863l22.0244 -6.17969c-3.30469 -11.8955 -8.25684 -29.7158 -26.0039 -47.4619c-20.583 -20.583 -49.6279 -31.1348 -78.4492 -31.1348c-27.415 0 -54.6289 9.54688 -74.1689 29.0869
c-18.1943 18.1934 -22.8994 37.3691 -25.9482 49.7939l22.0996 5.08887c2.84277 -10.9346 6.53906 -25.1484 20.3838 -38.9932c15.1299 -15.1289 36.4551 -22.5732 57.9775 -22.5732zM561.44 428.585c88.3408 0 160.694 57.3203 160.694 127.969
c0 70.1592 -71.3643 127.254 -158.901 127.254c-86.0889 0 -162.446 -57.4873 -162.446 -128.764c0 -70.3379 72.7266 -126.459 160.653 -126.459zM548.505 785.797h24.1963v-78.9902c24.2461 -1.21094 47.2148 -6.30469 68.0039 -14.5312v97.0156l24.6465 -1.19434
v-107.603c47.8389 -27.1689 79.1777 -72.5498 79.1777 -123.813c0 -82.8955 -81.9883 -150.534 -183.089 -150.534c-101.106 0 -183.089 67.5166 -183.089 150.449c0 50.5225 30.4219 95.332 77.0527 122.645v106.65l24.6475 -1.19531v-93.292
c20.7617 8.49707 43.7578 13.8496 68.0664 15.291zM232.787 265.814c-22.5576 -11.1201 -22.7969 -11.2178 -25.1582 -11.2178c-1.39551 0 -4.18457 0.366211 -6.29883 2.98633c-0.276367 0.34082 -24.2227 34.7354 -25.1152 35.9551
c-1.45898 1.99316 -3.26562 4.10547 -3.26562 7.44141c0 4.61426 3.04102 6.68555 8.70801 10.5449c30.4922 20.9883 69.251 47.7314 74.0322 51.3457h19.6973c3.14844 0 5.7627 0.00585937 7.95508 0.00585937c9.07324 0 10.9248 -0.108398 13.5605 -1.22266
c0.000976562 0 0.21875 -0.0820312 0.21875 -0.0820312c1.61621 -0.59668 9.70898 -3.33594 19.7998 -3.33594h1.02051c6.67578 0 10.3203 0.595703 19.2285 4.63477h36.5234c0.853516 -0.585938 70.4854 -48.4297 84.9336 -59.2568
c-6.88379 -10.3955 -10.1211 -15.4209 -19.3848 -30.7725c-4.36133 -7.22949 -6.99414 -11.9307 -9.36426 -14.3018c-2.47559 -2.47461 -5.24902 -2.50977 -5.77051 -2.50977c-1.9541 0 -14.1787 3.44434 -34.0059 9.1582
c11.2246 -123.703 11.2246 -123.703 11.2246 -123.947v-9.24023h-176.326c1.08008 14.0342 1.08008 14.0342 1.96191 30.3633c0.000976563 0 1.76367 31.5469 1.76367 31.5469l1.77246 30.9941c0 0.00390625 1.55078 27.7129 2.28906 40.9102zM381.969 150.658
c-0.110352 1.27637 -11.54 126.106 -11.54 127.571c0 4.4834 2.47949 7.625 5.82617 8.6543v1.27344c1.68262 -0.429688 3.36523 -0.859375 5.04785 -1.29004l-0.0224609 -0.0898438c7.35938 -1.75391 28.1797 -7.94531 38.2314 -10.6572l14.0762 22.7734
c-1.92578 1.33496 -4.06738 2.81445 -5.97168 4.12109c-32.0547 22.2705 -32.0547 22.2705 -59.3926 41.207c-1.73535 0.0605469 -5.69238 0.155273 -13.1855 0.155273c-4.60742 0 -9.21484 0.00195312 -13.8213 0.00195312
c-6.3457 -2.41504 -12.5762 -4.57617 -23.4424 -4.57617c-6.83398 0 -13.4014 0.110352 -27.6963 4.57617h-14.5938c-6.97363 0 -11.6738 -0.0957031 -13.8584 -0.172852c-8.60352 -5.83398 -53.6172 -36.96 -66.2607 -45.7158
c3.43555 -4.91602 8.0791 -11.6162 15.7402 -22.6689c7.56445 3.68848 25.7988 12.6152 29.5156 14.292c1.03613 0.652344 2.94141 0.786133 3.37305 0.786133c0.0576172 0 0.078125 -0.0107422 0.078125 -0.0107422c4.56348 0 8.20703 -3.45508 8.20703 -9.07227
c0 -0.204102 -0.652344 -10.709 -1.18164 -20.3896l-6.26953 -110.843c11.375 -0.0615234 33.1133 -0.0908203 56.3535 -0.0908203zM593.593 -46.3711l323.141 -1.3877v139.959l-29.7334 -33.2002l-16 21l45 50l0.733398 72.9951l-195.929 0.84082l33.1865 -27.0791
l-14.9912 -16.7568l-60 45l-85.4072 -0.617188v-250.754zM945 -61c0.128906 -6.49707 -5.29297 -11.8711 -11.915 -11.8711h-353.215c-6.4668 0 -11.8467 5.26855 -11.8701 11.8711l-1 280c-0.178711 6.46191 5.28418 11.8711 11.9141 11.8711
c-0.0136719 0 91.2842 0.176758 103.086 0.128906l52 52l17.1836 -17.748l-33.1836 -34.252l211.176 1.87109c6.4502 0.0576172 11.6143 -5.35742 11.8242 -11.8711l3 -93l49 -50l-17.4688 -20.2627l-33.5312 32.2627zM58.2949 -38.4795h55.5146l17.1611 52.2256
l17.1602 -52.2256h55.5156l-44.8672 -32.2959l17.1611 -52.2246l-44.9697 32.2959l-44.9707 -32.2959l17.1611 52.2246zM2559.44 228.944c10.0049 0 18.3271 -8.2832 18.3271 -18.5469v-82.8301l64.0703 -74.6006c-63.793 3.5332 -63.793 3.5332 -65.793 3.81934
l1.72461 -146.594c0 -10.1416 -8.33594 -18.4404 -18.6123 -18.4404c0 0.000976563 -373.898 1.50879 -373.898 1.50879c-10.2197 0 -18.54 8.31543 -18.54 18.54v300.105c0 10.2529 8.3418 18.541 18.6113 18.541c0 0 77.6338 -0.313477 96.042 -0.388672l69.3018 62.7002
c1.73145 -13.6348 3.52832 -27.2051 5.21973 -40.8809l1.47852 -27.3369zM2213.8 -59.7285l317.187 -1.3623l3.55371 114.714c-5.17578 -0.795898 -10.3525 -1.59277 -15.5283 -2.38867l-53.1113 7.04102l64.7793 71.0439v52.6934l-171.098 2.19824
c-0.686523 -21.2969 -0.686523 -21.2969 -2.92969 -65.0098l-75.6553 63.7988l-67.1973 0.288086v-243.017z" />
  </g>

</svg>
