<?xml version="1.0" standalone="no"?>
<!DOCTYPE svg PUBLIC "-//W3C//DTD SVG 1.1//EN" "http://www.w3.org/Graphics/SVG/1.1/DTD/svg11.dtd" >
<svg xmlns="http://www.w3.org/2000/svg" xmlns:xlink="http://www.w3.org/1999/xlink" version="1.1" viewBox="-10 0 1058 1000">
  <g transform="matrix(1 0 0 -1 0 800)">
   <path fill="currentColor"
d="M497.71 557.809c0 4.28027 -0.0800781 7.45605 -0.0800781 7.53125c0.0830078 1.62402 0.501953 3.02441 0.649414 3.17578c0 0.132812 0 0.132812 25.4336 0.693359c-0.0244141 -3.71582 -0.0380859 -7.55078 -0.0380859 -11.499
c0 -99.2764 9.14746 -269.569 109.525 -401.424c13.8008 -18.1279 42.1289 -58.1621 66.4297 -89.8164l-20.8008 -16.4678c-18.3721 21.8047 -27.5449 46.9111 -52.4961 75.1211c-44.1348 49.8994 -87.2002 128.677 -93.1943 198.068l-2.21289 25.6123l-6.61719 -24.8389
c-15.3486 -57.6201 -47.4189 -71.7559 -71.0039 -82.1064c-15.7637 -6.91797 -28.4307 -12.4766 -28.4307 -28.6191c0 -13.7627 3.21484 -24.3213 77.207 -113.527c2.09961 -2.53223 3.84473 -4.6377 5.09863 -6.16211l-11.1797 -13.5498
c-15.3076 22.8486 -93.0264 73.9639 -93.0264 127.238c0 48.6934 70.3535 49.5049 101.82 128.17c1.19922 3 3.83887 7.58203 3.83887 28.2314c0 41.3945 -11.6348 124.457 -11.6348 166.818c0 9.77148 0.711914 12.6621 0.711914 27.3506zM497.629 565.409
c0 -0.0146484 0.000976562 -0.0380859 0.000976562 -0.0693359c0.000976563 0.0371094 -0.000976562 0.0693359 -0.000976562 0.0693359zM523.713 569.209zM699.63 66.4697l3.4834 2.75781l-0.776367 -6.27637c-0.914062 1.18457 -1.81641 2.35742 -2.70703 3.51855z
M678.829 50.002c0.901367 -1.07031 1.8252 -2.13184 2.77441 -3.18652l-6.1377 0.524414zM507.18 93.5498zM496.983 535.194zM48.3545 723.521h55.5146l17.1611 52.2256l17.1602 -52.2256h55.5156l-44.8672 -32.2959l17.1611 -52.2246l-44.9697 32.2959l-44.9707 -32.2959
l17.1611 52.2246zM271 608l-12 60c128.725 89.7881 355.203 55.3633 442.457 48.5605c0 -0.0107422 0.000976562 -0.0214844 0.000976562 -0.0322266c27.4463 0.582031 75.1855 -1.32129 107.268 -33.4033c40.1396 -40.1396 38.6152 -108.841 37.5254 -169.365
c-0.395508 -21.9258 -0.433594 -33.2402 -0.22168 -41.9463c26.3789 -43.8281 72.168 -89.959 89.3252 -129.607c6.95117 -16.0635 5.49219 -24.7637 2.64551 -40.2051l-12 -14l-79.501 -63.5771v-212.431c1.93945 -31.0869 1.82422 -79.2412 -27.416 -108.48
c-26.0322 -26.0322 -182.507 -12.0195 -220.584 -13.0049l-2.90137 0.0126953c-103.732 -7.2998 -296.108 50.6025 -326.603 92.1719c-18.5059 25.2275 -31.4014 41.2529 -57.9951 55.3086v70.0371c25.8174 -16.2627 49.624 -17.8066 70.1904 -60.6357
c44.2188 -92.082 349.455 -105.734 451.309 -108.438l-0.499023 -0.962891c50 12 34.1514 4.48145 42.5352 13.5361c19.1768 20.7119 3.97852 41.9688 5.50781 57.9648h-0.541992v2.14941c-0.253906 0.990234 -0.500977 1.94141 -0.738281 2.84863h0.738281v207.174v3.4873
v1.33887h1.58203l104 88h1.13281c4.9834 45.8955 -62.8379 92.1289 -94.2158 139.501l-3 4l-1 1c-2.02051 3.99219 0.0439453 4.02539 -2.08398 11.5605c-0.0371094 0.130859 -0.189453 0.24707 -0.174805 0.367188l0.258789 2.07227l0.0644531 1.49902
c0.00976562 0.226562 0.150391 3.89551 0.242188 6.24414c3.11426 79.1523 5.19727 173.389 -83.8154 173.771c-136.35 16.7461 -373.536 9.53418 -431.49 -46.5137zM283.896 460.976l-85.2646 -91.1602l74.3682 -78.8154l-17.1035 -16.0244l-74.5146 79.1689
l-87.4854 -93.1689l-12.4209 15.2783l85.9736 91.3223l-82.5527 84.3994l15.2598 16.417l83.8799 -79.9209l86.6279 85.377z" />
  </g>

</svg>
