<?xml version="1.0" standalone="no"?>
<!DOCTYPE svg PUBLIC "-//W3C//DTD SVG 1.1//EN" "http://www.w3.org/Graphics/SVG/1.1/DTD/svg11.dtd" >
<svg xmlns="http://www.w3.org/2000/svg" xmlns:xlink="http://www.w3.org/1999/xlink" version="1.1" viewBox="-10 0 1006 1000">
  <g transform="matrix(1 0 0 -1 0 800)">
   <path fill="currentColor"
d="M433.859 125.052l-140.017 126.838l22.6875 16.71l108.485 -99.6436l193.445 245.03l30.8184 -14.1631zM271.83 11.7959c140.264 0.492188 280.528 0.492188 420.79 0c9.22266 0.175781 18.4463 0.365234 27.6709 0.567383
c33.9844 -0.523438 61.1504 16.0469 81.4961 49.7061c17.5449 30.7842 22.5859 64.5547 15.1191 101.306c-3.39844 17.126 -7.13281 34.1367 -11.1885 51.0312c-16.0537 63.7559 -31.7764 127.639 -47.1748 191.646c-9.14551 36.8438 -19.2266 73.2568 -30.2393 109.243
c-11.4736 37.125 -25.2832 72.7822 -41.4287 106.972c-14.2246 29.3906 -31.4102 55.9121 -51.5596 79.5703c-34.4619 38.4873 -74.8799 60.2842 -121.265 65.3955c-31.6475 3.80078 -62.6953 0.0214844 -93.1367 -11.3408
c-27.8838 -11.3525 -52.6807 -29.1182 -74.3906 -53.2988c-19.7041 -22.667 -36.4883 -48.1816 -50.3516 -76.5439c-12.582 -25.7852 -23.6689 -52.623 -33.2617 -80.5146c-9.56055 -27.9072 -18.2285 -56.2588 -26.0078 -85.0488
c-5.82617 -21.7295 -11.4736 -43.5283 -16.9355 -65.3955c-10.9922 -45.6455 -22.083 -91.2598 -33.2627 -136.837c-5.68359 -20.8154 -11.127 -41.7305 -16.3301 -62.748c-3.05176 -12.8672 -5.77441 -25.8457 -8.16504 -38.9355
c-6.41602 -46.3711 4.41992 -85.1143 32.5098 -116.235c9.42773 -9.8623 20.0098 -17.2969 31.752 -22.3018c6.43555 -2.28223 12.9854 -3.79688 19.6543 -4.53516c8.60547 -0.857422 17.1738 -1.42578 25.7041 -1.70117h0.000976563zM271.83 49.9756
c-6.91211 0.294922 -13.8691 0.734375 -20.8652 1.32324c-5.00977 0.478516 -9.94922 1.48828 -14.8184 3.02344c-8.66602 3.83594 -16.4258 9.50781 -23.2832 17.0098c-18.5098 21.6602 -25.3154 48.0557 -20.4121 79.1904c2.5918 13.5967 5.51562 27.0781 8.76758 40.4463
c5.96875 22.377 11.8164 44.8066 17.5391 67.2842c10.9424 45.252 21.9287 90.4854 32.9629 135.7c5.40137 21.5205 11.0488 42.9375 16.9326 64.2617c10.5537 38.4346 23.0518 75.8535 37.499 112.266c10.793 26.749 23.6953 51.6982 38.707 74.8447
c41.6465 62.0752 95.0176 90.2354 160.121 84.4834c44.1621 -3.05469 82.165 -23.4668 114.008 -61.2383c17.5137 -21.8828 32.4814 -46.1377 44.9043 -72.7646c13.7461 -30.1182 25.6406 -61.3633 35.6836 -93.7441c10.3125 -33.6309 19.7891 -67.6523 28.4238 -102.062
c11.3848 -46.3311 22.6758 -92.6992 33.8721 -139.102c4.23145 -16.6318 8.46582 -33.2617 12.7002 -49.8955c4.65527 -18.874 8.89062 -37.9014 12.7002 -57.0791c1.88184 -8.92676 2.69043 -18 2.41895 -27.2148c-2.79102 -28.9863 -14.1309 -50.9727 -34.0195 -65.9619
c-6.43262 -4.8623 -13.3887 -7.76074 -20.8652 -8.69238c-10.6562 -1.41504 -21.3389 -2.04395 -32.0547 -1.8916c-143.643 -0.1875 -287.281 -0.25293 -430.922 -0.1875v0z" />
  </g>

</svg>
