<?xml version="1.0" standalone="no"?>
<!DOCTYPE svg PUBLIC "-//W3C//DTD SVG 1.1//EN" "http://www.w3.org/Graphics/SVG/1.1/DTD/svg11.dtd" >
<svg xmlns="http://www.w3.org/2000/svg" xmlns:xlink="http://www.w3.org/1999/xlink" version="1.1" viewBox="-10 0 1078 1000">
  <g transform="matrix(1 0 0 -1 0 800)">
   <path fill="currentColor"
d="M880.395 481.694c0 9.49902 0.360352 25.4824 0.360352 28.9053l-0.318359 61.375l-8.69434 54.7793l-24.0586 41.7607l-29.835 19.125l-33.9414 8.02539c-15.9834 0.617188 -31.9668 1.23438 -47.9502 1.85059v0.765625l-107.704 8.96191l-161.613 -4.84375
l-135.512 -48.0117l4.97461 -24.8711l90.1514 34.2031l168.52 13.9912l163.858 -8.05859l72.0586 -32.085l24.6855 -76.583c-11.2969 -92.7236 -11.5391 -94.709 -10.623 -98.1973c0.272461 -1.03711 0.408203 -1.9873 0.495117 -2.92188
c0.488281 -0.641602 1.13477 -1.58496 1.48633 -2.05664l30.4463 -40.7334l38.0439 -60.0674c7.97656 -11.168 15.9531 -22.335 23.9297 -33.502l-96.7109 -80.25l-3.2002 -219.288c0.962891 -7.5625 2.78418 -22.0117 5.01758 -45.877
c-0.128906 -0.270508 -9.65137 -20.9678 -12.835 -27.0205c-1.80566 -3.43262 -3.36328 -6.39453 -8.94434 -11.126c-28.7256 -6.87109 -37.6748 -9.0127 -53.7939 -9.0127c-3.38379 0 -6.77832 0.143555 -10.1738 0.446289l-127.95 -3.2207l-189.706 31.9736
l-119.909 72.0264c-7.29102 10.5146 -14.582 21.0303 -21.873 31.5449c-0.186523 0.126953 -14.9541 10.3477 -18.583 12.6523v-31.4629c5.41699 -3.87207 13.5068 -7.36328 24.4395 -17.251c7.32715 -6.625 2.0957 -4.45605 10.624 -11.9258
c1.03027 -0.902344 1.03027 -0.902344 17.2012 -21.8066l70.2637 -41.1387l123.979 -35.7695l40.835 -3.74512c52.8262 -4.9082 59.0674 -6.7334 83.0469 -7.42773l68.0801 -1.97266l89.7607 0.253906l51.1064 12.4922l15.1377 25.207l6.27637 34.1602l-0.268555 82.9482
l0.0292969 84.2285l-0.00585938 87.5186l84.7832 67.8018l7.68652 8.9668l1.11426 7.19531c0.449219 7.6123 -1.52441 12.8027 -3.31152 18.1787l-23.3311 38.8438l-33.0244 43.4482l-34.3174 48.9014c-0.203125 16.1299 -0.203125 16.1299 -0.203125 17.6953z
M82.3203 739.375h55.5146l17.1611 52.2256l17.1602 -52.2256h55.5156l-44.8672 -32.2959l17.1611 -52.2246l-44.9697 32.2959l-44.9707 -32.2959l17.1611 52.2246zM630.691 493.086l-42.0879 43.7812l20.4551 20.7373l42.2402 -42l43.1982 41.3203l23.5342 -18.7363
l-44.1338 -44.5723l43.2334 -42.0996l-23.1309 -19.5166l-42.5029 40.1133l-44.3193 -41.9922l-18.6719 23.1797zM732.24 118.279l0.0703125 -0.0605469s-0.0214844 0.0195312 -0.0703125 0.0605469zM678.512 290.691c0 4.24023 -0.271484 5.06543 -0.271484 10.5088
c0 1.30078 0.0273438 2.7666 0.0273438 2.79492c0 5.51953 -3.37402 11.2686 -10.4219 11.4199c-11.2158 0.24707 -11.2158 0.24707 -11.3105 0.24707c-4.53711 0 -8.39551 -3.63086 -8.39453 -8.46777c0.0146484 -1.78125 0.0244141 -3.6377 0.0244141 -5.56055
c0 -37.1191 -3.56641 -99.5469 -39.5273 -146.782c-3.61914 -4.75488 -17.7803 -24.46 -26.21 -35.3877c-1.16211 -1.50391 -1.74316 -3.31445 -1.74316 -5.12402c0 -2.15039 0.820312 -4.30078 2.45996 -5.93945c0.142578 -0.143555 0.176758 -0.213867 11.2295 -8.96387
c1.52148 -1.2041 3.36426 -1.80566 5.20703 -1.80566c4.84766 0 7.77539 3.16113 17.2969 18.0039c3.09473 4.82422 6.41211 10.0049 10.3037 14.9473c9.27832 11.7852 19.1367 27.29 26.541 44.0127l6.87891 -0.0507812
c14.9287 -35.1172 30.5352 -52.0459 50.8945 -74.2002c0.822266 -0.896484 2.89258 -2.71191 6.18945 -2.71191c2.54395 0 2.54395 0 13.834 7.52832c0.743164 0.495117 3.06738 2.31738 3.06738 5.7334c0 0.0771484 -0.192383 5.13379 -2.38086 7.41309
c-13.0762 10.9717 -52.3076 56.2109 -56.4658 100.919c-0.392578 4.23242 -1.60352 0.93457 -1.60352 8.31348c0 16.2314 4.375 45.7354 4.375 63.1523zM369.527 345.157l-93.3447 84.5576l15.126 11.1406l72.3232 -66.4297l128.963 163.354l20.5469 -9.44238z" />
  </g>

</svg>
