<?xml version="1.0" standalone="no"?>
<!DOCTYPE svg PUBLIC "-//W3C//DTD SVG 1.1//EN" "http://www.w3.org/Graphics/SVG/1.1/DTD/svg11.dtd" >
<svg xmlns="http://www.w3.org/2000/svg" xmlns:xlink="http://www.w3.org/1999/xlink" version="1.1" viewBox="-10 0 979 1000">
  <g transform="matrix(1 0 0 -1 0 800)">
   <path fill="currentColor"
d="M50.7197 726.494v0v0v0zM304.728 726.494v0v0v0zM306.7 0v0v0v0zM306.7 0l-1.97266 726.494h-254.008v-32.4951h219.501v-659.506h-213.771l1.55078 -34.4932h248.7zM58 0v0v0v0zM56.4492 34.4932v0v0v0zM50.7197 693.999v0v0v0zM2521.46 -406.479zM550.259 76.7186
c-42.4949 -20.9402 -42.4949 -20.9402 -46.2149 -20.9402c-3.5649 0 -7.00308 1.4312 -9.46731 4.48354c-1.65567 2.04712 -38.6262 55.6471 -43.8923 62.8446c-2.62413 3.58585 -5.32886 6.8383 -5.32886 11.8428c0 6.97352 5.61368 10.8092 9.7683 13.6389
c1.34406 0.916408 123.45 84.9236 133.699 92.6696h33.7972c4.05293 0 7.59641 0.00363952 10.7081 0.00363952c18.6991 0 21.8043 -0.131432 26.1607 -1.97392c0.000417022 0 0.471981 -0.177825 0.471981 -0.177825c2.96786 -1.09719 17.3304 -5.96224 35.3438 -5.96224
c0.434856 0 0.866053 -0.000370353 1.29461 -0.000370353c11.4745 0 18.4249 0.787566 34.5755 8.11072h62.8612c1.47288 -1.01096 123.986 -85.2628 146.546 -102.168c-9.92097 -14.9823 -16.0333 -24.3522 -32.9285 -52.3535
c-15.1894 -25.1741 -17.1658 -28.4498 -24.7724 -28.4498c-4.85765 0 -45.1914 11.8009 -61.7589 16.7045c0.198474 -2.19589 19.8927 -216.59 19.8927 -219.585v-14.1709h-304.411c1.72679 22.4524 1.72679 22.4524 3.27048 51.0233
c0.000525597 0 3.0863 55.2047 3.0863 55.2047c0.000367942 0 3.10218 54.2428 3.10218 54.2428zM811.319 -130.109c-0.353323 4.10445 -20.375 222.983 -20.375 225.244c0 8.88558 5.9827 13.7861 12.6553 13.7861c5.72352 0 29.6975 -8.41729 72.1589 -19.795
l26.4136 42.7352c-3.7434 2.59648 -8.15738 5.6498 -12.0196 8.29859c-56.0873 38.9672 -56.0873 38.9672 -104.409 72.4386c-2.7322 0.108068 -9.68524 0.294437 -23.7327 0.295207c-8.18589 0 -16.3718 0.00282315 -24.5577 0.00282315
c-11.2062 -4.27435 -21.6984 -8.00771 -40.653 -8.00771c-11.9772 0 -23.0615 0.138799 -48.1613 8.00781h-25.8465c-12.8702 0 -21.2984 -0.182259 -24.9012 -0.325149l1.13684 0.764994l-0.00232089 -0.00154413
c-0.305501 -0.204007 -0.685088 -0.45947 -1.13452 -0.76345c-14.2124 -9.61276 -98.2708 -67.7433 -118.098 -81.4804c4.30557 -6.14742 5.54441 -7.9184 29.6698 -42.7192c33.5882 16.3597 46.7631 22.7767 52.6251 25.2937
c0.20578 0.186595 0.418423 0.351786 0.636411 0.498028l-0.570297 -0.469674c3.7259 1.59615 4.46161 1.59615 5.66759 1.59615c6.49934 0 12.3613 -4.76623 12.3613 -13.8769c0 -0.356315 -1.07617 -17.4871 -2.06414 -35.5716l-11.0906 -196.073
c19.2459 -0.116203 58.5671 -0.171755 100.734 -0.171755z" />
  </g>

</svg>
