<?xml version="1.0" standalone="no"?>
<!DOCTYPE svg PUBLIC "-//W3C//DTD SVG 1.1//EN" "http://www.w3.org/Graphics/SVG/1.1/DTD/svg11.dtd" >
<svg xmlns="http://www.w3.org/2000/svg" xmlns:xlink="http://www.w3.org/1999/xlink" version="1.1" viewBox="-10 0 1044 1000">
  <g transform="matrix(1 0 0 -1 0 800)">
   <path fill="currentColor"
d="M507.171 504.036c59.802 7.71379 105.837 27.496 145.297 63.6827c1.7956 1.64663 4.51729 2.21378 6.47773 1.83889l12.333 -2.3584c4.2344 -0.809729 6.96407 -5.191 5.82462 -9.34881c-0.382656 -1.3963 -1.72246 -3.14138 -2.17209 -3.55253
c-32.8315 -30.0221 -72.2562 -51.0304 -115.588 -62.5983c46.064 -12.0439 89.7928 -29.8873 113.779 -47.952c3.44374 -2.59354 3.96235 -7.72945 1.10663 -10.9591c-0.910972 -1.03025 -2.11415 -1.80136 -3.41647 -2.20137l-12.4697 -3.83008
c-2.31351 -0.710594 -5.01041 -0.0532682 -6.59184 1.0883c-56.1883 40.5602 -141.562 60.7495 -262.193 58.997c-4.36592 -0.0634275 -7.79326 3.78038 -7.60057 7.85361l0.291098 6.15337c0.797367 13.5552 23.223 7.25394 23.223 7.25394
c28.4763 0 95.5257 -3.7225 101.699 -4.06716zM521.699 174.951c-4.93792 0 -9.38927 1.90526 -12.6692 5.22747l-70.2168 67.9971c-0.332241 0.321738 -2.50696 2.25434 -3.34536 3.13501c-1.77896 1.77896 -4.03306 4.51559 -6.95839 8.20678
c-2.7093 3.38856 -6.21384 8.4244 -8.50955 12.2513c-2.6384 4.55681 -5.44879 10.9333 -7.0008 15.8272c-1.75111 5.41843 -2.92839 12.8717 -2.92839 18.6013c0 0.919498 -0.0859375 2.43449 -0.0859375 3.46582c0 14.556 7.21159 32.7011 17.2038 43.2845
c0.126023 0.13348 0.310892 0.312245 0.411985 0.404028c10.833 9.83545 29.2477 16.9472 43.8784 16.9472c0.909408 0 2.08651 -0.0265669 3.03714 -0.0706708c5.46328 -0.0513978 12.418 -1.22691 17.5178 -2.95503c5.08949 -1.70163 11.5626 -4.84334 16.0402 -7.78552
c4.39169 -2.87987 8.25674 -5.64687 11.6135 -8.33227c0.802557 -0.642046 1.71592 -1.38953 1.71592 -1.38953c0.771305 0.636466 0.870549 0.722826 1.64687 1.35316c2.68059 2.17864 7.28327 5.40345 11.607 8.3347c4.55149 2.99187 11.0652 6.14038 16.0156 7.79397
c5.07777 1.82124 12.5942 3.17951 17.9111 3.25748c0.673032 0.0328103 2.17985 0.0720145 3.06773 0.0720145c14.6318 0 33.0462 -7.1125 43.8784 -16.9472c0.120174 -0.109108 0.282569 -0.268942 0.366083 -0.355841c10.2061 -10.6196 17.5925 -28.9645 17.5925 -43.6931
c0 -0.97607 -0.0323311 -2.22376 -0.0833577 -3.23559c-0.0693307 -20.1543 -10.443 -39.6649 -29.0461 -58.269l-69.9196 -67.6302c-3.32098 -3.48648 -7.87163 -5.43804 -12.7404 -5.49507zM521.634 189.945c0.336732 0.0842305 1.68941 0.647774 1.99525 0.901878
c0.0588247 0.0626809 0.172663 0.179356 0.255996 0.25996l69.9551 67.6645c16.8891 16.89 24.5649 33.0041 24.5649 47.7776c0 0.0967054 0.00410598 0.280373 0.0112535 0.410701c0.034516 0.629367 0.0717543 1.99159 0.0717543 2.62153
c0 9.83238 -5.88097 25.0701 -13.2291 33.1163c-7.24254 6.25656 -23.5242 12.8798 -33.6078 12.8798c-0.674626 0 -1.70296 -0.0232958 -2.59243 -0.0666574c-3.60693 -0.0528921 -10.153 -1.2454 -13.4776 -2.43783c-3.44607 -1.15109 -9.74877 -4.22329 -12.5957 -6.0947
c-3.86967 -2.62344 -8.7123 -6.06659 -10.4751 -7.49928c-2.1087 -1.71216 -4.04692 -3.3929 -6.00132 -5.21719c-2.48315 -2.31784 -7.20825 -2.82423 -10.234 -0.00119635c-2.11422 1.97254 -2.944 2.77044 -5.95848 5.18203
c-2.89325 2.3146 -6.38954 4.8269 -10.4685 7.50172c-2.92075 1.91915 -9.26604 4.99814 -12.5711 6.10315c-3.08958 1.04694 -9.79534 2.16582 -13.0082 2.18241c-0.0790379 0.000408052 -0.229592 0.00393982 -0.33628 0.0092809
c-0.583793 0.0292262 -1.85505 0.0599551 -2.4541 0.0599551c-9.8694 0 -25.3424 -5.7396 -33.583 -12.8583c-6.2188 -6.937 -12.9111 -22.8831 -12.9111 -32.7774c0 -0.598401 0.0448115 -2.14948 0.0708361 -2.61687c0 0 0.0151014 -0.387693 0.0151014 -0.848954
c0 -3.48767 1.13508 -10.6886 2.20786 -14.0081c1.08699 -3.42759 3.92494 -9.83437 5.64419 -12.8037c1.64643 -2.74459 5.25361 -7.93845 7.31241 -10.5134c2.93124 -3.69864 4.82376 -5.93922 5.96965 -7.08511c0.660526 -0.693823 1.99398 -1.93618 2.61591 -2.45239
c0.104521 -0.0867531 0.296201 -0.25625 0.427398 -0.3833l70.3379 -68.1143c0.0160879 -0.0162953 0.83612 -0.610796 2.04845 -0.892179zM474.969 363.557c4.8492 -0.147442 11.0156 -1.37712 15.3576 -2.98285c4.34426 -1.43405 10.3099 -4.28939 14.3278 -6.90948
c4.18994 -2.74454 7.89125 -5.34847 11.1085 -7.95288c1.76799 -1.42045 3.68088 -3.09249 5.92119 -5.15517c0.73646 0.704064 4.34046 4.03867 6.10063 5.50417c3.28478 2.58097 6.82929 5.14797 11.0933 7.9417c4.10793 2.68126 9.83466 5.4331 14.4707 6.96103
c4.40272 1.49849 10.4176 2.53569 15.2222 2.59737c1.02148 0.0557296 2.26752 0.0900672 3.25535 0.0900673c13.1389 0 29.4788 -6.27709 39.2385 -15.072c0.103215 -0.0930116 0.291794 -0.274207 0.420321 -0.409685c8.99229 -9.47868 15.4037 -25.5521 15.4037 -38.6179
c0 -0.918302 -0.0308834 -2.05807 -0.0815032 -3.01017c-0.00784371 -1.89089 -0.118543 -3.77701 -0.329728 -5.65811c-0.359349 -6.14237 -0.214409 -3.59298 -0.0163285 -0.143686c-1.87106 -16.2699 -11.2567 -32.1644 -26.6226 -47.5303l-70.2111 -67.5749
c-2.234 -2.31921 -4.59849 -3.30935 -7.85402 -3.30935c-3.25923 0 -5.62257 0.993214 -7.85641 3.31096l-70.3135 67.8221c-0.94404 0.839577 -2.67907 2.55364 -2.67907 2.55364c-2.11224 1.87626 -3.99083 4.20808 -6.95553 7.91369
c-2.55608 3.30333 -5.69428 7.96993 -7.74254 11.4946c-2.35728 4.08149 -4.96443 10.0163 -6.33233 14.3333c-1.61877 4.71379 -2.78574 11.3441 -2.8741 16.5118c-0.0619978 1.05147 -0.101008 2.32889 -0.101008 3.35581c0 12.9248 6.28005 28.8513 15.1018 38.2969
c0.0974705 0.104364 0.287101 0.29448 0.428887 0.423718c9.78783 8.92159 26.2399 15.294 39.483 15.294c0.898722 0 2.27758 -0.0378838 3.03632 -0.0783366zM474.342 348.57c-0.743217 0.0396254 -1.80381 0.0661947 -2.409 0.0661947
c-8.67479 0 -23.0305 -5.898 -29.1549 -11.1753c-5.97994 -6.78738 -10.8588 -19.7447 -10.8588 -27.8393c0 -0.607387 0.0439498 -1.9873 0.0826452 -2.59799c0.00773651 -0.122096 0.0133986 -0.294302 0.0144784 -0.384893
c0.0357384 -2.99845 1.10008 -9.20376 2.12308 -12.1827c0.999289 -3.1537 3.49371 -8.79308 5.05635 -11.4987c1.51229 -2.60233 4.78229 -7.45526 6.56215 -9.75545c2.59194 -3.2397 4.74069 -5.63054 5.12846 -5.97499
c0.163672 -0.145387 0.380729 -0.360317 0.492428 -0.479542c0.425046 -0.453688 1.67005 -1.63677 2.15021 -2.04328c0.11795 -0.0998591 0.278141 -0.246391 0.360687 -0.326012l67.8865 -65.481l67.5575 65.021c15.5222 15.5222 22.4743 30.1004 22.4743 42.8403
c0 0.138762 0.00672723 0.333832 0.0127142 0.436521c0.0319912 0.548719 0.0683405 1.80476 0.0683405 2.35742c0 8.41002 -5.86204 22.2454 -11.0828 28.0814c-7.13802 6.08257 -20.5778 11.0182 -28.9797 11.0182c-0.610021 0 -1.95949 -0.0393196 -2.56395 -0.074918
c-0.122408 -0.00720894 -0.295026 -0.0121031 -0.38583 -0.0127702c-2.58808 -0.019015 -8.28916 -0.980706 -10.798 -1.83459c-2.89614 -0.954504 -8.49618 -3.65189 -10.9799 -5.273c-3.79067 -2.4836 -7.33014 -5.05529 -9.87934 -7.0583
c-1.94741 -1.6214 -5.71918 -5.13201 -7.68827 -7.19025l-2.48935 -2.48935c-3.2101 -3.2101 -8.33045 -2.27616 -10.6066 0l-2.44376 2.44379c-1.88422 1.89356 -5.54904 5.19047 -7.66621 6.89145c-2.6167 2.11824 -5.99742 4.51431 -9.86412 7.04712
c-2.55636 1.66702 -7.97742 4.28629 -11.0882 5.31318c-2.70871 1.0017 -8.34439 2.07414 -11.031 2.15582zM517.016 30.7773c-0.129883 -0.000976562 -0.339844 -0.00292969 -0.469727 -0.00292969c-9.4834 0 -22.5889 5.47754 -29.2529 12.2256l-281.11 272.222
c-3.7207 3.08984 -9.44434 8.44141 -12.7783 11.9443c-5.83301 5.83398 -14.166 15.834 -25.833 30.5557c-9.58398 11.9873 -23.7705 32.3965 -31.667 45.5557c-8.7002 15.0322 -20.0244 40.668 -25.2773 57.2227c-5.67578 17.5635 -10.2822 46.7998 -10.2822 65.2578
c0 0.388672 0.00195313 1.01953 0.00390625 1.4082c-0.192383 3.43555 -0.348633 9.01562 -0.348633 12.4561c0 48.7529 27.1602 117.093 60.627 152.544c36.4805 33.1201 106.076 60 155.349 60c3.125 0 8.19629 -0.124023 11.3174 -0.277344
c17.4033 -0.0898438 44.9062 -4.69336 61.3896 -10.2773c16.79 -5.61328 42.4258 -18.0576 57.2217 -27.7783c16.9443 -11.1113 31.667 -21.667 44.167 -31.667s17.2217 -14.4443 25.5557 -22.2217c8.33301 7.77734 16.666 15 25.5557 22.2217
c8.88867 7.22266 27.7773 20.5557 44.166 31.667c14.7949 9.72461 40.4297 22.1689 57.2227 27.7783c16.8037 6.02441 44.9277 11.127 62.7773 11.3887c3.12207 0.15332 8.19238 0.277344 11.3184 0.277344c49.2725 0 118.868 -26.8799 155.349 -60
c34.2227 -35.6094 61.998 -104.594 61.998 -153.983c0 -3.34961 -0.148438 -8.7832 -0.331055 -12.1279c0 -70 -36.1113 -141.389 -107.223 -212.5l-280 -270.833c-6.58008 -7.09082 -19.7715 -12.9404 -29.4443 -13.0557zM328.683 725.222
c-3.00391 0.160156 -7.88379 0.291016 -10.8916 0.291016c-43.7139 0 -105.412 -23.8994 -137.72 -53.3467c-28.8877 -30.9326 -52.333 -90.3887 -52.333 -132.714c0 -3.39355 0.173828 -8.89844 0.388672 -12.2861c0.196289 -16.3896 4.67676 -42.2744 10 -57.7773
c4.73535 -14.9434 14.9404 -38.0908 22.7773 -51.667c7.12207 -12.251 19.9404 -31.291 28.6113 -42.5c11.1113 -13.8887 19.167 -23.333 24.167 -27.7773c2.89746 -3.0918 7.875 -7.82031 11.1104 -10.5557l282.223 -272.223
c2.27246 -2.42676 6.81445 -4.39648 10.1387 -4.39648c3.3252 0 7.86719 1.96973 10.1387 4.39648l281.111 270.556c65.5557 65.5557 98.8887 130.556 98.8887 192.778c0.177734 3.08203 0.322266 8.08887 0.322266 11.1768c0 42.8115 -23.9131 102.764 -53.377 133.823
c-32.2021 29.0215 -93.5205 52.5752 -136.871 52.5752c-3.31934 0 -8.7041 -0.158203 -12.0186 -0.353516c-14.8867 -0.108398 -38.4062 -4.09082 -52.5 -8.88867c-14.9111 -4.91406 -37.6846 -15.8652 -50.833 -24.4443c-16.1113 -10.5557 -30.2773 -20.833 -41.9443 -30
c-9.68652 -8.06543 -24.6201 -22.0029 -33.333 -31.1113l-9.72266 -9.72168l-9.72266 9.72168c-8.66699 8.71094 -23.4756 22.0264 -33.0547 29.7227c-11.667 9.44434 -25.834 19.4443 -41.9453 30c-13.1504 8.57422 -35.9238 19.5254 -50.833 24.4443
c-14.1025 5.21777 -37.7471 9.82227 -52.7773 10.2773z" />
  </g>

</svg>
