<?xml version="1.0" standalone="no"?>
<!DOCTYPE svg PUBLIC "-//W3C//DTD SVG 1.1//EN" "http://www.w3.org/Graphics/SVG/1.1/DTD/svg11.dtd" >
<svg xmlns="http://www.w3.org/2000/svg" xmlns:xlink="http://www.w3.org/1999/xlink" version="1.1" viewBox="-10 0 1015 1000">
  <g transform="matrix(1 0 0 -1 0 800)">
   <path fill="currentColor"
d="M442.011 351.995c-115.236 0 -208.759 -93.5096 -208.759 -208.749c0 -115.24 93.5262 -208.748 208.748 -208.748c115.239 0 208.748 93.5263 208.748 208.748c-0.157415 115.078 -93.6618 208.59 -208.736 208.749zM418.06 106.523
c1.8327 0 3.44461 -0.808916 3.44461 -0.808916c1.64508 -0.806361 4.27601 -2.13384 6.05294 -3.01776v-138.484l-8.78338 1.51761c-49.9427 8.62922 -88.7239 36.6761 -94.1155 42.0678c-5.40877 5.40877 -4.16848 6.13256 -10.5263 11.0871
c-2.95088 2.29963 -4.07993 3.33965 -8.24392 8.60344l-0.793578 -0.795174c-32.3802 45.821 -38.1007 77.3565 -42.4014 102.11h8.91443c125.363 -9.5e-08 125.363 -9.5e-08 131.551 -0.138703c1.59285 -2.18594 3.56506 -3.99252 4.88503 -6.45134
c6.59132 -14.5846 6.79267 -15.0301 9.67178 -15.6975c0.11181 0.00472623 0.226482 0.00725498 0.34387 0.00725498zM427.557 322.554v-137.167c-1.92807 -4.93432 -1.97753 -5.0609 -4.10796 -6.77455c-9.8783 -7.9458 -10.7858 -8.6758 -12.2846 -9.49232
c-3.12527 -1.70269 -3.44444 -5.29882 -7.77991 -8.17514c-0.113836 -0.136114 -0.113836 -0.136114 -2.50195 -3.25575h-137.924c2.48427 14.4609 9.57173 55.717 36.9697 94.7325c9.85392 14.7743 9.85392 14.7743 12.7962 15.6139
c4.97629 7.97045 5.25102 8.41049 11.6231 11.0237c2.28249 2.28268 2.43264 2.43285 3.83788 2.84717c24.2779 18.6546 60.7062 33.9195 90.579 39.1173zM324.347 279.059c0 0 0.000102138 0.000102185 0 0zM456.443 185.994v136.28
c24.7851 -4.30405 66.3788 -14.8765 98.4425 -39.9345c4.34724 -3.3974 3.19584 -0.631752 9.60054 -6.69689c5.60656 -5.30932 2.8893 -0.888242 5.61246 -4.8463c3.88671 -5.64926 6.45971 -7.26357 13.6645 -11.7839l-2.05853 -3.17753
c25.1197 -35.4355 34.5538 -68.9068 38.109 -89.5023l1.51597 -8.7822h-139.465l-0.205394 0.564227l-1.8443 -0.33997c-2.4068 5.98239 -2.85247 7.09015 -6.73065 12.2047c-10.1104 10.1121 -16.4783 15.8512 -16.6412 16.015zM398.288 106.808l-23.939 39.5726
c26.418 -22.4304 35.2504 -29.9139 35.5806 -30.2441c1.41904 -1.41904 1.76398 -2.71601 1.76398 -2.71601zM480.593 128.803h140.447c-2.733 -15.9088 -7.90426 -46.0107 -28.7114 -81.7818l2.47725 0.204573c-12.7859 -21.4524 -14.7408 -24.7324 -21.725 -27.2908
c-1.08793 -1.20146 -5.03426 -5.74862 -5.08924 -5.80279c-4.59746 -4.52972 -6.39673 -2.64327 -9.95704 -7.24908c-5.54821 -7.17647 -46.9368 -33.4482 -92.8025 -41.416l-8.79014 -1.52703v139.754l1.27832 0.498047v1.99327
c3.28868 1.19967 13.241 4.83017 15.997 8.17088c2.15859 2.83456 4.65721 7.34891 6.87532 14.4468zM321.91 747.766l121.72 -220.351l119.568 220.578l-39.6796 16.0682l-79.5082 -151.277l-87.1719 149.738z" />
  </g>

</svg>
