<?xml version="1.0" standalone="no"?>
<!DOCTYPE svg PUBLIC "-//W3C//DTD SVG 1.1//EN" "http://www.w3.org/Graphics/SVG/1.1/DTD/svg11.dtd" >
<svg xmlns="http://www.w3.org/2000/svg" xmlns:xlink="http://www.w3.org/1999/xlink" version="1.1" viewBox="-10 0 1011 1000">
  <g transform="matrix(1 0 0 -1 0 800)">
   <path fill="currentColor"
d="M446.381 152.643c-1.66309 0 -3.00195 1.34961 -3.00195 2.99902l2.87793 82.835c-8.36621 10.0156 -16.9492 19.3916 -25.4014 28.6221c-37.2598 40.6963 -72.1309 78.8721 -72.252 155.877c-0.101562 64.1738 23.2432 97.0049 36.3164 110.304
c41.3203 40.3916 95.8701 50.5459 124.22 50.5459c2.5791 0 5.83984 2.18555 9.2373 2.02539c83.7959 -3.94141 101.679 -10.5693 144.372 -47.7041c5.51172 -4.79395 7.11523 -8.70117 7.83203 -12.3916c0.128906 -0.666016 0.202148 -0.926758 0.227539 -1.00684
c19.5625 -22.5742 33.2891 -81.9014 34.3545 -99.1553c0.0712891 -1.1709 0.24707 -2.5293 0.449219 -4.06641c0.571289 -4.34473 1.3291 -10.0859 0.0634766 -17.3096c-17.4082 -99.4229 -64.7188 -128.035 -70.2822 -143.622
c-0.303711 -0.850586 -0.583984 -0.991211 -0.704102 -1.11133c-1.32715 -1.32617 -12.8213 -7.18652 -22.0557 -11.5293c-1.15918 -3.30176 -1.15918 -3.30176 -1.74707 -3.91309c-0.271484 -1.0459 -0.519531 -2.89551 -0.519531 -2.89551l-1.71289 -84.6182
c-0.0332031 -1.62598 -1.35449 -2.92871 -2.98145 -2.93848zM670.682 524.879l-0.197266 0.172852l-1.81348 -2.36914zM662.258 535.579l-1.98535 0.819336l-1.9873 -4.98145zM532.512 562.925c-48.1094 0 -79.4805 -8.49316 -119.481 -38.1514
c-10.5479 -10.5479 -39.9072 -42.2041 -40.0459 -97.124c-0.182617 -72.2959 31.3252 -106.332 48.249 -123.257c8.43359 -8.43262 8.43359 -8.43262 9.83008 -10.5195c2.76172 -4.125 2.76172 -4.125 20.6816 -23.5498c4.11523 -1.01172 10.4062 -3.60547 16.7871 -10.2383
c3.48926 -3.62598 2.08008 -17.0898 1.43457 -23.249l-0.574219 -70.0459l111.154 -0.570312l5.22852 85.9697c0.0498047 0.81543 0.424805 1.57227 1.05469 2.10645c3.69238 3.14746 3.79004 3.23047 5.7041 5.14453c1.88867 1.88867 7.37109 7.24121 12.1924 8.64453
c1.74805 0.508789 4.18457 5.34082 9.24805 9.12598c24.2227 18.1074 60.0752 63.6865 64.5273 129.378c0.651367 9.61133 -0.833008 20.0967 -2.72852 31.3438c-4.0127 23.8037 -9.89355 57.6328 -27.9912 78.7207c-2.81348 2.31836 -3.66797 3.08887 -16.623 16.0439
c-23.1768 23.1758 -61.5498 30.2275 -98.6475 30.2275zM582.612 480.638l-48.3613 -55.3682l52.6934 -54.9092c1.25195 -1.30371 0.863281 -3.34375 -0.105469 -4.25781l-7.10742 -6.71191c-1.24414 -1.17578 -3.21289 -0.951172 -4.22559 0.105469l-52.3789 54.6611
l-47.2764 -54.5498c-1.30664 -1.50879 -3.61133 -1.14746 -4.60156 0.0800781l-5.16309 6.39941c-0.943359 1.16992 -0.773438 2.87793 0.0683594 3.84961l47.1191 54.3213l-46.3135 54.6152c-1.02246 1.20703 -0.810547 3.00586 0.0830078 3.97461l6.3418 6.87695
c1.2832 1.3916 3.45703 1.0752 4.44922 -0.0429688l46.3281 -52.2217l48.4854 52.5771c1.20996 1.31055 3.26465 1.12793 4.30566 0.108398l5.5 -5.39258c1.17578 -1.15234 1.09082 -3.04785 0.15918 -4.11523zM524.564 537.196c64.8789 0 117.185 -52.2842 117.441 -116.75
c-0.000976563 -64.4453 -52.3037 -116.748 -116.75 -116.748c-64.4473 0 -116.75 52.3037 -116.75 116.75c0 64.0674 51.9902 116.364 116.059 116.748zM524.583 317.279c57.3525 0 103.597 46.2393 103.84 103.167c-0.00195312 56.9463 -46.2207 103.165 -103.167 103.165
s-103.167 -46.2207 -103.167 -103.167c0 -56.5771 45.9189 -102.801 102.494 -103.165zM822.41 170.951zM168.108 611.142zM45.9189 386.194zM522.008 92.085zM521.147 64.7676zM157.388 166.341zM367.096 100.367zM939.119 437.055zM45.9189 386.194zM939.119 437.055z
M649.388 725.854c-46.124 0 -85.1689 -17.9375 -104.974 -37.7422c-7.53809 -7.53711 -5.61328 -7.92969 -8.72949 -9.06543c-14.002 -5.10449 -27.7236 -6.95215 -40.248 -6.95215c-11.8213 0 -33.3027 1.74414 -56.5596 12.1943
c-15.8037 19.2373 -42.5342 36.7451 -87.4736 36.7451c-67.4648 0 -144.399 -41.7588 -171.157 -104.328l-1.32031 -3.08984h-4.6543l-121.897 -165.623h-5.83008v-7.9209c-0.790039 -1.07324 -1.58008 -2.14551 -2.37109 -3.21973h1.27539l-13.5 -50.626
l-1.52051 0.0244141c-0.272461 -5.18262 -0.759766 -8.16309 -2.39746 -14.6074h1.9668c-0.046875 -5.72168 -0.046875 -5.72168 -0.046875 -6.30469c0 -37.0098 15.9688 -111.914 122.419 -199.952c112.427 -92.9873 239.569 -103.239 344.972 -103.239
c172.757 0 243.188 21.6494 346.564 103.338c126.284 99.7881 128.414 129.17 131.891 202.104l-3.53418 0.0576172c-0.216797 0.811523 -15.7285 64.1045 -21.2275 81.1445l-90.2588 154.233c-10.1719 10.6152 -10.1719 10.6152 -11.1973 12.374h-0.669922
c-31.7334 32.4775 -98.2559 93.2549 -163.207 106.722c-12.4277 2.57812 -24.5996 3.73438 -36.3135 3.73438zM349.643 681.248c9.71094 0 31.29 0 55.8945 -16.9316l-0.189453 -2.34766c1.41895 -0.582031 3.69531 -1.65234 5.90625 -3.75195
c20.8486 -19.8115 52.8896 -29.1133 83.3096 -29.1133c28.3369 0 55.2656 8.07129 70.4287 23.2354c2.94922 2.94922 7.71191 7.71191 11.3936 18.8027c15.6221 10.6621 40.4385 22.292 74.3096 22.292c44.9473 0 65.9639 -19.5742 82.0762 -34.5791
c12.5225 -11.6641 29.0137 -27.0576 64.4805 -50.5254c1.35547 -0.295898 2.46875 -0.947266 3.35938 -1.95605l0.779297 0.0302734l101.433 -159.986c0 -0.273438 -0.00683594 -0.547852 -0.00683594 -0.820312c7.27539 -27.2559 13.917 -55.1436 20.9199 -82.6689
c2.45117 -9.78125 3.82422 -18.8486 3.82422 -27.6279c0 -42.1201 -31.335 -76.2461 -121.605 -150.013c-83.1836 -67.9717 -143.419 -91.2871 -324.955 -91.2871c-98.2773 0 -177.494 12.0742 -270.012 76.835c-114.047 79.834 -129.383 138.625 -129.383 190.981
c0 3.4541 0.0644531 6.85449 0.161133 10.2041c5.69043 22.584 11.8711 44.6787 17.7471 67.0771l111.15 157.357c1.57422 -0.605469 3.14941 -1.21289 4.72461 -1.81836c3.74316 8.81641 10.1191 23.8369 27.4209 41.1377c27.876 27.876 69.1367 45.4736 106.833 45.4736z
M540.653 42.0117z" />
  </g>

</svg>
