<?xml version="1.0" standalone="no"?>
<!DOCTYPE svg PUBLIC "-//W3C//DTD SVG 1.1//EN" "http://www.w3.org/Graphics/SVG/1.1/DTD/svg11.dtd" >
<svg xmlns="http://www.w3.org/2000/svg" xmlns:xlink="http://www.w3.org/1999/xlink" version="1.1" viewBox="-10 0 920 1000">
  <g transform="matrix(1 0 0 -1 0 800)">
   <path fill="currentColor"
d="M413.954 -50.9141c-21.9883 14.334 -49.1992 32.0586 -60.4688 39.3887s-24.2012 15.8398 -28.7383 18.9102l-8.24805 5.58203l-22.8047 68.6133l-22.8047 68.6133l7.58594 75.6758c4.17188 41.6211 8.03711 76.4043 8.58789 77.2969
c0.550781 0.890625 30.0195 15.9375 65.4844 33.4355l64.4844 31.8164l16.7773 1.77344c9.22852 0.974609 28.002 2.97656 41.7227 4.44922c51.2793 5.50586 39.7559 7.63672 93.5391 -17.2949l47.2148 -21.8887l36.0801 -57.6367
c19.8438 -31.6992 -6.26758 -96.5527 -6.26758 -98.4531s84.666 -64.7363 72 -105.601c-12.666 -40.8672 -41.8613 -90.9014 -46.3994 -105.6c-4.53906 -14.6992 -40.1113 -11.2734 -41.6006 -14.4004c-2.0918 -4.39258 -2.08887 -2.29492 -68.7998 6.40039
c-20.3066 2.64648 -41.8936 -8.26465 -49.2432 -11.7178c-25.7422 -12.0977 -55.5254 -25.4219 -56.8164 -25.4219c-0.716797 0 -19.2949 11.7266 -41.2852 26.0586zM454 489l-132.378 239.645l34.7236 13.1299l98 -172l96 182l33.7539 -22.7676z" />
  </g>

</svg>
