<?xml version="1.0" standalone="no"?>
<!DOCTYPE svg PUBLIC "-//W3C//DTD SVG 1.1//EN" "http://www.w3.org/Graphics/SVG/1.1/DTD/svg11.dtd" >
<svg xmlns="http://www.w3.org/2000/svg" xmlns:xlink="http://www.w3.org/1999/xlink" version="1.1" viewBox="-10 0 1126 1000">
  <g transform="matrix(1 0 0 -1 0 800)">
   <path fill="currentColor"
d="M463.826 107.22l-155.574 140.929l25.209 18.5684l120.539 -110.717l214.938 272.256l34.2441 -15.7363zM515.013 -86.3901c-207.248 0.120915 -384.735 170.234 -384.735 386.382c0 213.28 173.099 386.389 386.389 386.389
c213.285 0 386.389 -173.106 386.389 -386.371c-0.909183 -213.293 -174.765 -386.401 -388.043 -386.401zM935.833 300c-0.921555 231.391 -189.45 419.167 -420.83 419.167c-224.118 0 -417.503 -183.911 -417.503 -419.159c0 -231.398 187.802 -419.167 419.167 -419.167
c231.394 0 419.167 187.798 419.167 419.158z" />
  </g>

</svg>
