<?xml version="1.0" standalone="no"?>
<!DOCTYPE svg PUBLIC "-//W3C//DTD SVG 1.1//EN" "http://www.w3.org/Graphics/SVG/1.1/DTD/svg11.dtd" >
<svg xmlns="http://www.w3.org/2000/svg" xmlns:xlink="http://www.w3.org/1999/xlink" version="1.1" viewBox="-10 0 869 1000">
  <g transform="matrix(1 0 0 -1 0 800)">
   <path fill="currentColor"
d="M505 286v-278.639h-36.9404v596.358h36.9404v-280.778h252.777v-320.053h-36.9404v283.111h-215.837zM59.9922 740v0v0v0zM314 740v0v0v0zM315.973 13.5059v0v0v0zM315.973 13.5059l-1.97266 726.494h-254.008v-32.4951h219.501v-659.506h-213.771l1.55078 -34.4932
h248.7zM67.2725 13.5059v0v0v0zM65.7217 47.999v0v0v0zM59.9922 707.505v0v0v0z" />
  </g>

</svg>
