<?xml version="1.0" standalone="no"?>
<!DOCTYPE svg PUBLIC "-//W3C//DTD SVG 1.1//EN" "http://www.w3.org/Graphics/SVG/1.1/DTD/svg11.dtd" >
<svg xmlns="http://www.w3.org/2000/svg" xmlns:xlink="http://www.w3.org/1999/xlink" version="1.1" viewBox="-10 0 911 1000">
  <g transform="matrix(1 0 0 -1 0 800)">
   <path fill="currentColor"
d="M589 722.5l95 -0.5v0h4.5l-5.5 -304v-18h-20.5l-77 0.5v18l77 -0.5l6.5 288l-80 0.5v16zM422.678 255.859c-4.78418 0 -8.57227 -3.90234 -8.57227 -8.54297v-300.105c0 -4.7666 3.91797 -8.54199 8.54199 -8.54199l373.938 -1.50879
c4.70996 0 8.57227 3.82617 8.57227 8.54199l-0.804688 155.248l12.9453 0.793945c13.0273 -0.706055 26.0557 -1.41113 39.083 -2.11719l-51.2236 59.6426v86.5381c0 4.73145 -3.87012 8.54199 -8.50977 8.54199l-212.295 -0.399414
c-0.348633 10.8555 -0.698242 21.7109 -1.04688 32.5664c-0.757812 6.1377 -1.30957 10.4131 -2.72656 21.3975l-57.9824 -52.459l-1.93945 0.0078125s-97.96 0.396484 -97.9805 0.396484zM441.195 -34.2734v263.013l80.8701 -0.34668l63.0283 -53.1514
c-0.633789 23.9238 -0.811523 31.8213 -0.811523 39.3877c0 2.90234 0.00488281 3.61035 0.12207 15.3203l193.667 -2.65625v-66.4404l-54.499 -59.7695c38.1592 1.01172 38.1592 1.01172 54.7812 1.91309l-0.282227 -138.717zM7.5498 -96.7529h55.5146l17.1611 52.2256
l17.1602 -52.2256h55.5156l-44.8672 -32.2959l17.1611 -52.2246l-44.9697 32.2959l-44.9707 -32.2959l17.1611 52.2246zM366.762 396.114l-134.762 -92.1279v-23.9863h-10.2402v23.9863l-134.762 92.1279l7.26953 6.08301l127.492 -85.958v76.3115l-0.308594 -0.260742
l-79.873 67.873l7.27051 6.08301l72.9111 -61.876v114.106h10.2402v-115.932l73.7295 62.5713l7.27051 -6.16992l-78.542 -66.6562l-2.45801 2.17285v-78.2236l127.491 85.958z" />
  </g>

</svg>
