<?xml version="1.0" standalone="no"?>
<!DOCTYPE svg PUBLIC "-//W3C//DTD SVG 1.1//EN" "http://www.w3.org/Graphics/SVG/1.1/DTD/svg11.dtd" >
<svg xmlns="http://www.w3.org/2000/svg" xmlns:xlink="http://www.w3.org/1999/xlink" version="1.1" viewBox="-10 0 1489 1000">
  <g transform="matrix(1 0 0 -1 0 800)">
   <path fill="currentColor"
d="M1018.26 573.93c-6.07227 0 -11.0195 -4.90527 -11.0195 -10.9785v-210.073c0 -6.04688 4.92285 -10.9785 10.9785 -10.9785l261.736 -1.05664c6.08203 0 11.0205 4.91602 11.0205 10.9072l-1.23438 104.926c3.55957 -0.507812 3.55957 -0.507812 43.5068 -2.72559
l-42.2734 49.2217v58.7227c0 6.08301 -4.93555 10.9834 -10.8301 10.9834l-143.34 -3.125c-1.11621 20.6494 -1.11621 20.6494 -4.29883 45.7383l-46.2412 -41.8359h-0.969727s-67.0254 0.274414 -67.0352 0.274414zM1036.2 370.815v174.111
c48.8652 -0.209961 48.8652 -0.209961 49.7715 -0.212891l50.4355 -42.5312c1.36328 26.6006 1.36328 26.6006 1.90527 43.4062l123.704 -1.58984v-39.6338l-43.29 -47.4766l33.1006 -4.38867c4.32129 0.665039 8.64258 1.33008 12.9639 1.99512l-2.62109 -84.6504z
M503.198 505.128c0 -1.8418 0.356445 -13.6094 0.356445 -13.7471c0 -20.3545 -5.53613 -60.1377 -5.53613 -83.1494c0 -1.87793 0.0527344 -3.38379 0.164062 -4.43164c1.98535 -0.209961 1.51074 -2.87988 1.80469 -4.78027
c5.10352 -54.8594 50.1055 -109.108 67.5186 -126.522c3.17969 -3.17871 5.26465 -4.87305 5.26465 -4.87305l-8.80273 -1.22266l-2.1709 -4.99219l11.6504 -6.50195c-5.73242 -3.82227 -11.4639 -7.64355 -17.1963 -11.4648
c-35.5889 38.8184 -56.5869 61.7217 -76.9473 118.893c-9.39551 -28.3105 -25.9746 -55.8945 -41.2842 -75.3359c-15.9551 -20.2637 -10.8262 -20.333 -32.1289 -44.002l-24.874 19.6934c15.3457 19.8926 37.9697 51.0322 38.3594 51.543
c47.123 61.9004 51.6904 143.236 51.6904 191.316c0 3.48438 -0.00292969 3.86133 -0.0976562 15.0654c7.36035 -0.162109 14.7217 -0.324219 22.083 -0.486328c5.74316 -0.123047 10.1963 -4.8584 10.1963 -10.1758c0 -0.358398 -0.0185547 -0.619141 -0.0195312 -0.763672
c0 0 0.00488281 -0.239258 0.00488281 -0.493164c0 -0.0361328 -0.0351562 -1.85059 -0.0351562 -3.56836zM149.936 445.572c0 -1.82812 0.356445 -13.6045 0.356445 -13.7422c0 -20.4395 0.526367 2.29785 0.526367 -20.7988
c0 -1.87793 0.0527344 -3.38379 0.164062 -4.43164c1.98535 -0.209961 1.51074 -2.87988 1.80469 -4.78027c5.10352 -54.8594 50.1055 -109.108 67.5195 -126.521c3.17969 -3.17969 5.26465 -4.87402 5.26465 -4.87402l-8.80273 -1.22266l-2.1709 -4.99219l11.6494 -6.50293
c-5.73145 -3.82031 -11.4639 -7.6416 -17.1963 -11.4619c-35.5859 38.8145 -56.5859 61.7197 -76.9473 118.891c-9.39551 -28.3105 -25.9746 -55.8936 -41.2842 -75.3359c-15.9502 -20.2578 -10.8311 -20.3389 -32.1289 -44.001l-24.874 19.6924
c15.3457 19.8926 37.9707 51.0322 38.3594 51.543c47.123 61.9004 45.627 80.8809 45.627 128.961c0 3.48438 9.11133 61.6006 9.0166 72.8047c7.36035 -0.162109 14.7217 -0.324219 22.083 -0.486328c5.74414 -0.123047 1.08203 -62.6006 1.08203 -67.9082
c0 -0.355469 -0.0185547 -0.614258 -0.015625 -0.830078c0 0 0.00195312 -0.177734 0.00195312 -0.379883c0 -0.426758 -0.0351562 -1.52148 -0.0351562 -3.62207zM491.02 702.494v0v0v0zM745.027 702.494v0v0v0zM747 -24v0v0v0zM747 -24l-1.97266 726.494h-254.008
v-32.4951h219.501v-659.506h-213.771l1.55078 -34.4932h248.7zM498.3 -24v0v0v0zM496.749 10.4932v0v0v0zM491.02 669.999v0v0v0z" />
  </g>

</svg>
