<?xml version="1.0" standalone="no"?>
<!DOCTYPE svg PUBLIC "-//W3C//DTD SVG 1.1//EN" "http://www.w3.org/Graphics/SVG/1.1/DTD/svg11.dtd" >
<svg xmlns="http://www.w3.org/2000/svg" xmlns:xlink="http://www.w3.org/1999/xlink" version="1.1" viewBox="-10 0 1046 1000">
  <g transform="matrix(1 0 0 -1 0 800)">
   <path fill="currentColor"
d="M529 102.999c142.48 0 258.124 115.624 258.124 258.118c-0.206292 51.9016 -15.7207 100.192 -42.2686 140.696c-5.28351 8.05594 -5.8592 8.37804 -5.8592 10.4254c0 6.45118 10.208 5.50705 14.8687 10.1651l141.423 141.424
c1.58077 1.58077 2.76257 4.20811 2.76257 6.73219c0 0.135467 0.000177564 0.265649 0.000177564 0.391093c0 3.19682 0 3.19682 -7.47623 10.6715c-1.58136 1.58136 -4.20821 2.76322 -6.73175 2.76322c-2.13691 0 -4.28499 -0.69794 -6.3499 -2.76285l-142.488 -142.689
c-6.00827 -7.99822 -6.62763 -8.82272 -9.13 -8.82272c-0.517282 0 -2.15228 0 -3.74331 1.68083c-8.51473 8.99526 -8.50382 8.98431 -11.0963 11.5768c-50.3579 50.3579 -116.315 75.8233 -182.404 75.8233c-64.4625 0 -129.076 -24.2212 -179.516 -73.2588
c-5.66328 -5.50533 -6.40082 -6.5665 -8.78522 -6.5665c-1.28071 0 -2.56036 0.488125 -3.53562 1.46338l-142.291 142.291c-2.06439 2.06439 -4.21198 2.76215 -6.34892 2.76215c-3.971 0 -3.971 0 -11.4462 -7.47601
c-1.08283 -1.08283 -1.63632 -2.62063 -1.63632 -4.88081c0 -2.72855 1.00524 -6.11491 1.97383 -8.38434l143.965 -144.123c0.969007 -0.970052 1.46046 -2.2455 1.46046 -3.53433c0 -2.57786 -1.99593 -4.39355 -4.44272 -7.96592
c-12.0623 -17.6112 -47.1534 -68.8245 -47.1534 -148.396c0 -142.481 115.627 -258.123 258.124 -258.123zM292.001 362c0 124.326 112.672 236.999 236.999 236.999c124.314 0 236.999 -106.732 236.999 -230.999c0 -124.384 -110.664 -248.999 -234.999 -248.999
c-120.649 0 -238.999 116.879 -238.999 242.999z" />
  </g>

</svg>
