<?xml version="1.0" standalone="no"?>
<!DOCTYPE svg PUBLIC "-//W3C//DTD SVG 1.1//EN" "http://www.w3.org/Graphics/SVG/1.1/DTD/svg11.dtd" >
<svg xmlns="http://www.w3.org/2000/svg" xmlns:xlink="http://www.w3.org/1999/xlink" version="1.1" viewBox="-10 0 1166 1000">
  <g transform="matrix(1 0 0 -1 0 800)">
   <path fill="currentColor"
d="M732.996 509.203h318.438l52.5664 166.797l-129.406 -55.0361l-89.1768 115.438l-90.7803 -113.524l-120.868 46.3271zM971.681 597.66l99.249 44.1104l-37.085 -116.706l-285.937 1.02539c-15.7305 36.1045 -54.2637 124.545 -53.2637 122.25l104.375 -45.8525
l88.3496 103.502zM741.994 418.82l-6.29883 31.5c67.5791 47.1387 186.48 29.0654 232.289 25.4941v-0.0166016c14.4102 0.304688 39.4736 -0.694336 56.3164 -17.5371c21.0732 -21.0732 20.2725 -57.1406 19.7002 -88.916
c-0.207031 -11.5117 -0.227539 -17.4521 -0.116211 -22.0225c13.8496 -23.0098 37.8887 -47.2285 46.8965 -68.0439c3.64844 -8.43262 2.88281 -13.001 1.38867 -21.1074l-6.30078 -7.34961l-41.7373 -33.3779v-111.527
c1.01758 -16.3203 0.958008 -41.6016 -14.3936 -56.9512c-13.667 -13.667 -95.8164 -6.31055 -115.807 -6.82812l-1.52344 0.00683594c-54.46 -3.83301 -155.457 26.5654 -171.466 48.3906c-9.71484 13.2441 -15.8027 25.2256 -29.7646 32.6055v36.7686
c13.5547 -8.53809 26.0527 -9.34766 36.8506 -31.833c23.2148 -48.3437 182.78 -59.0791 236.254 -60.499l-0.261719 -0.504883c26.25 6.29883 17.9287 2.35254 22.3311 7.10645c10.0674 10.873 2.08887 22.0332 2.8916 30.4316l-5.28418 26v1.12793
c-0.133789 0.519531 -0.263672 1.01953 -0.388672 1.49512h0.388672v108.767v1.83008v0.703125l5.83008 -26l54.5996 46.1992h0.594727c2.61621 24.0957 -32.9893 48.3682 -49.4639 73.2393l-1.57422 2.09961l-0.525391 0.525391
c-1.06055 2.09473 0.0224609 2.1123 -1.09375 6.06836c-0.0195313 0.0693359 -0.0996094 0.129883 -0.0917969 0.192383l0.135742 1.08887l0.0341797 0.786133c0.00488281 0.120117 0.0791016 2.0459 0.126953 3.27832c1.63477 41.5547 2.72852 91.0293 -44.0029 91.2305
l4.5 1.5c-71.583 8.79199 -196.107 5.00684 -226.533 -24.4189zM777.014 266.16c0.0820312 -25.7051 22.7051 -45.8945 23.0977 -46.2314l57.8594 -56.0303c2.34082 -2.26562 5.34473 -3.58496 8.66504 -3.58496c4.53809 0 6.93555 2.10059 8.86621 3.79199
c0.614258 0.538086 44.082 42.209 58.6758 56.8027c21.6377 21.6377 22.3408 39.1846 22.3408 47.9424v0.125c0 12.7979 -6.88867 27.4307 -14.042 34.584c-5.19336 5.19336 -21.7129 13.291 -34.4727 13.3301c-17.9473 -0.361328 -23.5439 -4.22656 -41.5107 -17.5723
c-13.3652 9.91797 -23.3721 17.3438 -41.2256 17.3438c-13.8955 0 -28.9912 -7.74414 -35.0518 -13.8047c-5.11621 -5.11621 -13.2725 -21.0918 -13.2725 -33.8125c0 -0.739258 0.0224609 -1.64844 0.0595703 -2.44043l0.0107422 -0.22168v-0.22168zM866.732 282.06
c4.77832 0 16.4805 21.5566 41.3223 21.5566c12.501 0 23.9941 -7.81348 26.2773 -10.5557c4.89258 -5.87695 9.18262 -16.7373 9.18262 -24.1094c0 -6.40332 -0.0126953 -20.0029 -19.2549 -39.292l-57.499 -55.3408c-57.9727 55.9219 -57.9727 55.9219 -58.2705 56.2188
c-5.19238 5.19336 -17.4736 17.4736 -18.293 38.2686c4.53418 15.5928 6.53223 22.4629 10.7432 25.7529c6.81055 5.32129 16.459 9.04492 24.7021 9.04492c22.7139 0 37.4873 -21.5488 40.5166 -21.5488c0.164062 0 0.350586 0.00488281 0.573242 0.00488281zM260 58z
M211.825 33.917c-8.83789 7.69141 -13.3916 29.3135 -6.87305 36.0967c-0.0205078 0.0507812 -1.71875 4.1377 -2.01953 5.08203c-4.87109 6.88965 -1.80957 9.34277 -4.20215 14.5c-0.282227 0.300781 -15.3027 17.6631 -20.6338 33.4346
c-1.29297 3.56445 -6.0498 13.5195 -7.2998 16.0195c-2.61816 3.11816 -2.42188 5.12012 -3.30566 6.40039c-1.91309 2.77148 -3.19922 5.72949 -4.22266 7.99805c-2.60352 5.76855 -1.8623 2.13184 -3.52441 7.20312c-1.83301 5.59082 -4.61621 6.08496 -5.24512 11.1582
c-2.48047 2.85547 -3.58105 5.73242 -4.125 7.16016c-3.50098 4.03906 -1.49316 3.91602 -4.59766 7.54297c-5.64355 6.5918 -2.28125 3.84473 -9.52734 12.8555c-13.7119 17.041 -11.9717 17.7393 -20.2998 25.7246c-3.25879 3.12402 -7.02344 6.62207 -9.5791 10.3789
c-0.914062 1.34375 -4.88574 6.9707 -6.02148 8.19043c-2.5791 2.05078 -3.48633 3.97168 -4.81641 5.91113c-1.01367 1.47656 -2.03711 2.81348 -2.23926 3.07617c-1.00391 0.774414 -2.85645 3.24316 -9.92871 8.68359
c-3.42676 2.63574 -2.55371 3.14453 -5.59766 5.80371c-6.17578 5.39648 -7.65625 9.93164 -12.79 15.0146c-1.96387 1.94629 -5.16699 5.24121 -5.77246 6.60449c-5.05371 4.50195 -8.24414 11.25 -11.6094 20.6094c-3.4043 9.47852 -4.51562 21.4697 4.59863 31.5928
c11.0762 12.3018 16.54 16.1084 19.71 17.1631c2.84082 1.74121 12.1348 7.43848 22.3779 8.90332c3.44824 1.47754 7.20996 1.39551 10.084 0.709961c11.7852 -0.335938 21.5186 -1.29785 43.7373 -18.7158c30.2275 -23.6982 12.4307 -11.3223 42.4863 -38.2285
c0.621094 -0.554688 0.549805 -0.412109 1.02246 -0.907227c-0.225586 10.6562 -1.02051 18.1807 -2.32422 24.1855c-2.48438 4.57324 -0.350586 5.70117 -4.21484 34.3594c-0.177734 1.3252 -0.177734 1.3252 -2.22656 30.499
c-2.30371 13.9033 -2.75391 64.3164 -0.711914 78.2734c0.0351562 0.243164 3.12891 19.2246 6.46582 23.9766c0.439453 8.46484 7.98633 14.5938 9.2168 17.2578c3.7832 8.20605 17.7422 18.0469 31.4346 19.0957c5.98633 2.67969 18.0947 1.12793 23.4375 -1.88477
c4.09082 -0.711914 9.17871 -3.52344 12.167 -5.1748c2.90039 5.60645 8.19531 10.917 13.5127 15.166c4.16211 3.32715 7.15625 6.33105 7.23926 6.38281c5.22852 3.24023 27.8721 34.5957 44.2197 7.84375c0.102539 -0.167969 1.14648 -0.361328 2.50977 -0.712891
c10.9121 -2.81543 12.7422 -4.81836 21.4287 -14.5977c7.19238 -8.09668 8.41016 -11.8076 9.5752 -16.9717c0.681641 0.842773 1.27637 1.61621 1.79199 2.37988c2.68652 3.9834 12.4697 15.4346 22.3018 18.8271c0.665039 0.228516 2.3584 0.973633 2.88574 1.20996
c7.50488 4.56543 22.2588 5.3623 30.1104 2.03516c2.34375 -0.508789 5.45605 -1.75195 8.69043 -4.05566c10.7373 -2.59863 20.5674 -17.9766 21.0977 -20.1357c4.31934 -7.01367 4.31934 -7.01367 8.72852 -25.7148c5.64453 5.81641 16.8701 12.5752 24.3936 13.5166
c10.9736 5.21777 33.3496 -4.16895 39.542 -8.90039c12.6729 -5.48633 15.4512 -24.3174 16.5078 -32.3652c1.04297 -7.95215 3.33691 -59.7988 0.727539 -82.3174c-0.0537109 -0.543945 -2.4668 -27.9678 -3.5127 -54.5293
c-1.2627 -60.9844 -0.109375 -86.0859 2.55176 -108.876c0.952148 -2.97949 1.15039 -7.67285 1.99219 -11.168c0.282227 -1.1709 1.13867 -4.20508 -0.509766 -7.47949c0.143555 -1.61426 0.550781 -4.9248 1.38672 -9.83496
c0.101562 -0.599609 4.85059 -47.8574 -5.00293 -60.2617c-1.09766 -6.58398 -9.91406 -15.4609 -14.3613 -23.1035c-0.731445 -1.25781 -1.74512 -2.91895 -2.88281 -4.71582c-4.86621 -7.70117 -4.86621 -7.70117 -4.83691 -13.7871
c0.0292969 -5.82324 -0.503906 -5.91406 3.94531 -12.752c6.87988 -10.5713 9.24414 -21.166 4.2793 -31.1768c-3.36816 -6.7959 -10.999 -15.7646 -16.5 -19.7393c-1.38574 -1.00098 -10.8027 -7.5957 -18.5439 -7.70215
c-8.06055 -3.0293 -12.8467 -2.69238 -21.2148 -4.47559c-17.4941 -3.72168 -42.0938 -4.08203 -51.126 -5.63379c-5.99023 -1.9873 -12.1729 -0.898438 -15.6455 -1.58789c-9.94531 -1.97266 -25.0693 -1.33008 -33.5918 -2.13086
c-12.0752 -1.13379 -71.2168 -0.96875 -85.0957 0.814453c-4.38184 0.560547 -12.6885 0.8125 -18.8584 1.84082c-3.9248 0.120117 -22.8262 2.33398 -28.0234 5.88867c-3.05078 0.472656 -8.68262 1.77832 -14.2451 5.73828
c-7.13867 2.22461 -7.93652 6.71191 -8.49707 6.52832zM205.011 132.188c0 -0.0332031 0.0800781 -0.0664062 0.0849609 -0.100586zM428.742 497.655c0 -0.0761719 0.0478516 -0.154297 0.0498047 -0.15625c-0.0146484 0.0478516 -0.0498047 0.0996094 -0.0498047 0.15625z
M322.86 538.136l0.569336 -0.0634766c-0.146484 0.0224609 -0.338867 0.0322266 -0.569336 0.0634766zM492.834 507.715l-1.44922 -8.40918l4.83105 1.34277zM222.578 505.54c0.0498047 0.0742188 0.0507812 0.130859 0.0585938 0.143555
c-0.00292969 -0.00488281 -0.0234375 -0.0546875 -0.0585938 -0.143555zM230.359 256c0 0.205078 -2.41406 -2.62109 -2.41406 -2.62109c-8.64062 1.72754 -8.64062 1.72754 -9.66895 1.90625c-5.22852 -1.50391 -11.0869 -0.229492 -14.4434 3.20605
c-8.29004 2.99023 -9.77344 9.66797 -15.1992 14.4434c-1.53125 0.679688 -5.17188 2.66992 -6.8623 6.80273l0.283203 -0.330078c-0.0390625 0.0595703 -0.135742 0.171875 -0.283203 0.330078c-6.07422 6.5332 -27.1133 24.252 -29.2451 28.3086
c-3.74707 3.2041 -10.749 11.8877 -14.4053 15.625c-2.28906 1.81445 -3.76758 3.68848 -4.66602 4.9082c-2.65625 1.28613 -5.02539 3.19922 -7.95801 5.58008c-3.52637 2.8623 -7.77539 6.3125 -12.4521 7.38086c-1.80762 0.413086 -10.7871 0.654297 -13.0664 0.516602
l0.567383 0.1875s-0.197266 -0.0585938 -0.567383 -0.1875c-4.32422 -1.50684 -11.1221 -5.0752 -17.2812 -10.4111c-1.60352 -2.81348 -4.74609 -2.63379 -6.71777 -11.1572c-0.257812 -1.11621 -0.357422 -2.28613 -0.384766 -3.09473
c4.74121 -7.10352 -0.254883 -6.42871 12.2764 -20.4629c5.06934 -3.17969 3.46191 -5.96484 7.63086 -9.45312c17.1152 -14.3164 20.6611 -18.0469 21.8418 -20.5244l-0.443359 0.544922c0.118164 -0.15332 0.267578 -0.336914 0.443359 -0.544922
c3.20508 -3.7832 10.0293 -10.1279 11.7061 -13.1309c17.6113 -18.8652 18.8682 -21.7061 19.1074 -21.8936c0.972656 -0.763672 4.38867 -3.55078 5.4873 -5.8457c3.13867 -2.68652 7.45996 -8.61816 8.86914 -9.70117c3.69727 -2.84375 3.25586 -5.11914 6.23438 -8.3418
c6.26367 -6.7793 1.50586 -3.37891 9.91699 -16.2812c3.7959 -5.82324 6.55078 -10.0498 6.94727 -12.1592l-0.290039 0.439453s0.0859375 -0.143555 0.290039 -0.439453c2.99902 -4.36133 3.06543 -4.45801 3.5459 -6.74805
c2.35059 -3.05371 2.03223 -5.81445 3.20801 -7.55957c0.125977 -0.188477 7.86133 -13.917 7.86133 -20.2705c0 -0.316406 1.18359 -1.57324 1.62305 -3.46582c2.06934 -2.66309 2.93164 -7.31445 3.20703 -9.19531c2.64258 -2.88281 5.81543 -8.06055 10.9072 -15.7588
c6.54785 -9.89746 14.6211 -22.5713 20.5742 -32.7412l3.9707 -0.480469l-0.962891 -4.73535l1.5498 -2.69922l-1.5918 -0.541016c3.50488 -12.1387 39.3604 -34.4541 60.6367 -39.1465c3.33105 2.08008 8.22363 2.44434 12.5146 1.31738
c8.00684 -2.10449 36.1221 0.676758 57.3379 0.870117c2.16113 0.0195312 20.418 1.30664 25.1426 1.70312c26.4697 6.57812 55.3057 4.8916 72.8105 7.72559c10.8184 1.75 12.0986 1.95703 19.5234 9.15039c0.963867 2.08594 2.21582 2.66504 3.9375 4.85645
c1.00391 4.53711 2.26562 1.71387 2.24219 7.27344c-0.0205078 4.87598 -0.411133 5.90723 -4.49512 10.3936c-4.2207 4.63672 -6.92871 27.3701 -6.91992 27.6514v0l-1.70215 1.08984c2.91992 2.21484 4.83984 5.19824 6.74805 8.19141l1.04297 -0.413086
c0.896484 2.32617 8.22266 14.1445 8.31152 14.2852l-0.0283203 -0.174805c0.00878906 0.0537109 0.0283203 0.111328 0.0283203 0.174805c0.183594 1.11035 0.710938 3.7334 3.10938 6.19434c0.802734 2.45801 5.95215 7.54004 10.2354 22.1064
c0.97168 3.30859 1.91504 5.50586 2.77539 7.00195l-0.111328 -0.738281c0.0390625 0.179688 0.0761719 0.428711 0.111328 0.738281c0.467773 4.13281 0.575195 18.9736 0.111328 21.0059c-3.12012 13.6816 -4.7666 35.6016 -4.8252 35.96
c-0.357422 1.62598 -1.03809 4.79883 0.746094 8.08691c-2.68359 19.2725 -0.28418 16.2822 -2.49609 29.6602c-1.19727 7.24023 -1.19727 7.24023 -1.90137 39.5049c0 -0.170898 0.0673828 -0.384766 0.0673828 -0.385742
c-0.0214844 0.114258 -0.0673828 0.243164 -0.0673828 0.385742c-0.72168 4.4541 -2.125 22.626 1.07422 33.2617c0.0556641 9.36719 1.35059 36.792 2.1084 44.1172c1.33105 12.8965 2.30469 25.2334 3.38672 40.4277c0.930664 13.0684 0.136719 46.8428 -0.553711 49.7715
c-1.86426 7.89062 -1.65137 12.04 -2.58594 13.9775c-0.180664 0.373047 -4.4873 7.53809 -9.87012 10.8867c0.499023 -0.142578 1.21777 -0.205078 1.21777 -0.205078c-0.424805 0.0712891 -0.830078 0.139648 -1.21777 0.205078
c-8.00195 1.33105 -8.32227 1.16992 -10.0068 -0.126953c-6.44629 -4.95801 -25.873 -26.3975 -29.2822 -32.2656l-3.18164 -5.47559c-3.77148 6.10449 -7.28223 -88.2227 -13.7402 -33.4473c-0.321289 2.73047 -1.11523 14.3594 -4.67969 14.4004
c0.201172 10.5645 -2.61523 37.5029 -3.80078 41.6729c-4.35742 15.3291 -1.56934 14.9951 -7.75781 27.8086c-1.37891 2.85547 -2.79785 5.12891 -3.46973 7.63574c-1.0791 1.32617 -1.74512 2.7832 -2.0332 4.18848l0.160156 -0.28125
s-0.0566406 0.0996094 -0.160156 0.28125c-2.83105 4.99219 -6.31641 10.8301 -8.39941 13.1572c-2.97168 2.28613 -10.377 0.270508 -15.9795 -5.1709c-0.385742 -0.918945 -1.24902 -2.52539 -3.30762 -4.06738l0.533203 0.725586
s-0.193359 -0.261719 -0.533203 -0.725586c-1.68066 -2.30273 -6.91992 -9.60645 -9.76172 -14.9707c-0.675781 -3.88672 -2.7793 -5.02734 -3.65039 -9.14941c-1.50977 -7.11719 -3.24902 -5.33984 -3.86523 -10.3389
c-0.209961 -1.72559 1.91797 -7.13867 -1.03027 -6.96484c-3.75586 0.22168 3.50488 -57.1602 -6.36426 -59.4014c-2.87012 -0.651367 2.60645 1.13281 0 0c-5.3457 -2.32324 -8.20117 39.7598 -15.9883 39.3252c0.157227 0.521484 -0.537109 0.389648 -0.964844 0.460938
c0.478516 3.6543 0.478516 3.6543 0.0859375 9.47754l-1.66406 0.174805c-1.34473 7.51758 -2.16504 16.6094 -2.19629 16.7764l-2.65137 -0.0947266l1.05078 6.73242c-4.02148 13.8057 -7.7373 17.1924 -11.3008 26.168c-4.9541 12.4766 -7.2168 12.7568 -8.58008 17.5166
c-2.18848 1.8457 -2.55859 2.1582 -12.1475 2.54102l0.405273 0.165039s-0.112305 -0.0429688 -0.405273 -0.165039c-8.94727 -3.72461 -12.5791 -5.2373 -18.0537 -18.4688c-6.99219 -16.8965 -8.3252 -40.415 -12.9629 -53.4463l-3.54688 -9.96289l-12.4805 -23.4004
c-1.37598 13.5762 -6.78906 53.0918 -8.38281 57.3105c-0.287109 0.758789 -0.287109 0.758789 -2.49219 7.50781c-0.0488281 0.0771484 -3.83496 6.50098 -4.78223 7.74316c-7.50781 4.10645 -7.50781 4.10645 -9.50781 5.54297
c-0.828125 0.594727 -0.966797 1.30273 -6.80273 1.63184c-1.69434 -0.571289 -3.23535 -0.806641 -4.2168 -0.939453c-2.08984 -1.16113 -4.23438 -2.54688 -5.61426 -3.94434c0.0488281 0.0761719 0.115234 0.205078 0.115234 0.206055
c-0.0380859 -0.0683594 -0.0771484 -0.137695 -0.115234 -0.206055c-0.553711 -0.97168 -1.1748 -1.96973 -1.8623 -2.91211c-3.69336 -9.4707 -3.69336 -9.4707 -5.48145 -12.3096c-2.08594 -3.31348 -2.49512 -4.77148 -5.00977 -14.2451l0.03125 0.405273
c-0.0107422 -0.129883 -0.03125 -0.265625 -0.03125 -0.405273c-0.856445 -11.6416 0.117188 -42.5713 -1.10352 -51.7852c1.84082 -4.35059 -0.0478516 -11.3018 -0.0078125 -13.915c1.06445 -3.90723 2.07715 -14.96 2.90625 -22.8281
c0.0273438 -0.257812 1.86035 -8.45508 2.84277 -25.6934c0.555664 -9.75391 5.49805 -62.8584 5.62207 -63.4873c2.93164 -4.35742 1.4541 -8.84766 -0.0498047 -11.7676c0.137695 -0.495117 0.583984 -2.6748 1.95801 -10.4385
c5.1084 -1.90332 7.66406 -18.0654 6.10449 -23.0703zM87.8711 296.931c0.308594 -0.344727 0.529297 -0.584961 0.649414 -0.708008zM188.634 272.935c-0.0976562 0.0859375 -0.19043 0.163086 -0.276367 0.229492zM222.248 289.414l-0.000976563 -0.000976562
c0 -0.00390625 0.000976563 0.000976562 0.000976563 0.000976562zM392.233 330.902c0.791016 -14.0654 -3.94043 -43.3789 -3.36133 -56.4736c0.597656 -1.06055 1.0791 -2.36133 1.21875 -3.86426c1.30176 -14 7.19238 -28.4561 14.4902 -41.0996
c9.09863 -15.7646 20.2764 -28.5947 25.9023 -34.2197c1.93945 -1.94043 3.79883 -3.45703 3.83496 -3.49414c1.55762 -1.55664 2.38379 -3.56934 2.48047 -5.61035c1.11035 -3.58203 -0.245117 -7.49805 -3.40918 -9.60742l-7.3457 -4.89746
c-3.96875 -2.64648 -9.31641 -2.00879 -12.543 1.51172c-16.2734 17.707 -29.1572 31.7256 -41.2686 60.2158c-6.04199 -13.6475 -14.0439 -26.2305 -21.6162 -35.8467c-6.8584 -8.71094 -11.6689 -18.7656 -17.5664 -24.6621
c-3.52148 -3.52246 -9.08398 -3.77441 -12.8984 -0.755859c-8.83984 6.99805 -8.83984 6.99805 -9.24609 7.4043c-3.49023 3.49121 -3.77148 8.98926 -0.829102 12.8018c7.56543 9.80762 16.8896 22.9512 20.957 28.2949c29.5234 38.7812 31.2363 91.2002 30.9912 120.034
c-0.0458984 5.48535 4.44824 9.91797 9.93457 9.79688l8.89355 -0.196289c7.1416 -0.152344 11.3984 -5.95703 11.2695 -12.418c-0.0126953 -0.654297 -0.0703125 -3.70312 0.111328 -6.91406zM105.324 741.553h55.5146l17.1611 52.2256l17.1602 -52.2256h55.5156
l-44.8672 -32.2959l17.1611 -52.2246l-44.9697 32.2959l-44.9707 -32.2959l17.1611 52.2246z" />
  </g>

</svg>
