<?xml version="1.0" standalone="no"?>
<!DOCTYPE svg PUBLIC "-//W3C//DTD SVG 1.1//EN" "http://www.w3.org/Graphics/SVG/1.1/DTD/svg11.dtd" >
<svg xmlns="http://www.w3.org/2000/svg" xmlns:xlink="http://www.w3.org/1999/xlink" version="1.1" viewBox="-10 0 1279 1000">
  <g transform="matrix(1 0 0 -1 0 800)">
   <path fill="currentColor"
d="M808.057 144.06l0.0703125 -0.0117188s-0.00976562 0.0117188 -0.0703125 0.0117188zM1002 181c0 -96.3281 -78.165 -174.497 -174.496 -174.497c-96.3281 0 -174.497 78.165 -174.497 174.497c0 96.3379 78.1758 174.496 174.516 174.496
c96.2002 -0.131836 174.346 -78.291 174.478 -174.496zM738.957 284.628l0.0947266 0.0996094c-0.0253906 -0.0273438 -0.0947266 -0.0605469 -0.0947266 -0.0996094zM918.004 283c0 0 0.0351562 0.981445 0 1v-1zM718.978 99.3682v0
c1.63965 -2.39941 3.31055 -4.65723 4.99805 -6.74219l-3.97168 5.37402zM718.978 99.3682l0.318359 0.319336l5.23047 -6.68164c6.53613 -8.34863 5.95312 -4.40625 12.7227 -13.1855c6.07227 -7.87402 39.0996 -27.0605 71.2012 -33.127v97.2139
c-0.198242 0.0869141 -0.317383 0.12793 -0.370117 0.144531c-0.164062 0 -8.1748 0.618164 -11.8457 10.4209l0.501953 -0.841797c-0.143555 0.272461 -0.303711 0.601562 -0.459961 0.966797l-0.0761719 -0.03125c-0.18457 0.498047 -0.357422 1.01855 -0.516602 1.56445
c-0.399414 1.36035 -1.15332 2.85938 -1.52344 3.58887l-1.15625 2.28027l-2.63965 -0.0537109h-97.376c3.90918 -20.583 14.1582 -45.2695 25.9893 -62.5781zM808.45 216.133v99.3799c-37.2861 -7.08887 -67.5234 -28.9238 -69.7656 -31.166
c-2.38867 -2.3877 -4.94531 -1.80273 -6.38477 -4.33984c-2.20801 -3.8916 -5.32129 -4.13281 -5.35645 -6.50195c-0.00585938 -0.369141 13.0605 13.4951 0 0l-7.92969 -10.8857c-11.7783 -17.3213 -21.9648 -42.002 -25.8301 -62.5664h97.7529
c1.70703 1.91797 1.51074 0.910156 2.6748 2.58203c4.56152 6.54883 5.19922 4.53418 8.34375 7.67773c3.71094 3.71094 2.30762 1.32617 4.08887 3.10742c2.20996 2.20996 2.20996 2.20996 2.40625 2.71289zM851.222 214.251l-0.0849609 0.0927734
c0.0283203 -0.03125 0.0849609 -0.0927734 0.0849609 -0.0927734zM851.222 214.251c2.48242 -2.68555 3.47852 -3.75293 3.95703 -4.23242c3.62891 -3.62891 5.74414 -5.74414 7.20996 -8.91504l1.70898 0.31543l0.541016 -1.47852h97.4082
c-4.70508 24.9531 -15.3311 48.5664 -31.877 70.8799l0.348633 0.538086c0.0585938 0.0908203 -1.51465 1.6416 -7.48242 7.78027v-0.000976563s-4.03223 3.8623 -5.32129 4.46289c-1.32227 0.617188 -1.38184 0.470703 -5.27734 3.34863
c-17.3633 12.8564 -43.9736 24.1865 -65.8809 28.3428v-96.9971c3.94629 -3.96777 2.25586 -1.27441 4.66504 -4.04395zM796.234 154.473c-0.0117188 0.03125 -0.0234375 0.0625 -0.0341797 0.09375c-0.00585937 0 -0.0117188 -0.00683594 -0.0175781 -0.00683594z
M961.823 161.946h-98.0186c-3.81543 -8.73828 -7.55957 -12.249 -16.2256 -15.8164v-1.50586l-1.02246 -0.396484v-97.7422c34.5791 6.56641 64.5957 27.6611 67.8389 30.0078c7.6084 5.50684 2.59375 0.609375 10.5635 8.5791
c2.98828 2.98828 2.04492 0.927734 11.0342 14.3076v0c11.7783 17.3213 21.9648 42.002 25.8301 62.5664zM1024.29 359.902zM990.412 342.969c-6.21289 5.4082 -14.9961 21.2617 -10.4121 26.0312c-0.0146484 0.0361328 -1.20898 2.91016 -1.41992 3.57324
c-3.42383 4.84473 -1.27246 6.56934 -2.9541 10.1953c-0.198242 0.210938 -4.94164 11.8532 -8.92871 22.8584c-0.908203 2.50684 -4.25391 9.50586 -5.13281 11.2637c-1.84082 2.19238 -1.70312 3.60059 -2.32422 4.5c-1.34473 1.94824 -2.24902 4.02832 -2.96875 5.625
c-1.83105 4.05566 -1.30957 1.49805 -2.47852 5.06445c-1.28809 3.93066 -3.24512 4.27832 -3.6875 7.84473c-1.74414 2.00879 -2.51855 4.03125 -2.90039 5.03516c-2.46191 2.83887 -1.0498 2.75391 -3.23242 5.30273c-3.96875 4.63477 -1.60449 2.7041 -6.69922 9.03906
c-9.64062 11.9814 -8.41797 12.4736 -14.2734 18.0879c-2.29102 2.19629 -4.93945 4.65625 -6.73535 7.29785c-0.642578 0.944336 -3.43555 4.90137 -4.2334 5.75879c-1.81348 1.44238 -2.45117 2.79199 -3.38672 4.15625
c-0.712891 1.03809 -1.43164 1.97852 -1.57422 2.16309c-0.707031 0.544922 -2.00781 2.28027 -6.98145 6.10547c-2.40918 1.85352 -1.7959 2.21094 -3.93652 4.08105c-4.3418 3.79395 -5.38379 6.9834 -8.99219 10.5576
c-1.38086 1.36816 -3.63477 3.68457 -4.05859 4.64355c-3.55371 3.16504 -5.79785 7.91016 -8.16309 14.4912c-2.39453 6.66406 -3.1748 15.0957 3.2334 22.2129c7.78711 8.64941 11.6289 11.3262 13.8584 12.0674c1.99707 1.22461 8.53223 5.23047 15.7344 6.26074
c2.4248 1.03906 5.06934 0.981445 7.08984 0.499023c8.28613 -0.235352 15.1299 -0.912109 30.7529 -13.1602c21.2539 -16.6621 8.74023 -7.95996 29.874 -26.8779c0.435547 -0.390625 0.385742 -0.290039 0.719727 -0.638672
c-0.15918 7.49219 -0.719727 12.7832 -1.63477 17.0049c-1.74805 3.21582 -0.246094 4.00977 -2.96387 24.1602c-0.125 0.930664 -0.125 0.930664 -1.56543 21.4443c-1.62012 9.77539 -1.93652 45.2217 -0.501953 55.0352
c0.0253906 0.170898 2.20117 13.5176 4.54688 16.8594c0.30957 5.95117 5.61621 10.2607 6.48047 12.1338c2.66016 5.77051 12.4746 12.6904 22.1025 13.4268c4.20996 1.88477 12.7236 0.792969 16.4795 -1.3252c2.87695 -0.500977 6.4541 -2.47754 8.55566 -3.63867
c2.03906 3.94238 5.76172 7.67578 9.50098 10.6641c2.92676 2.33984 5.03125 4.45117 5.08984 4.4873c3.67676 2.27832 19.5977 24.3252 31.0918 5.51562c0.0722656 -0.118164 0.805664 -0.253906 1.76562 -0.500977c7.67188 -1.97949 8.95898 -3.3877 15.0664 -10.2646
c5.05664 -5.69238 5.91309 -8.30176 6.73242 -11.9326c0.478516 0.592773 0.897461 1.13574 1.25977 1.67383c1.88867 2.80078 8.76758 10.8516 15.6807 13.2363c0.467773 0.161133 1.6582 0.685547 2.0293 0.852539c5.27637 3.20898 15.6504 3.77051 21.1709 1.42969
c1.64844 -0.357422 3.83691 -1.23145 6.11133 -2.85059c7.54883 -1.82812 14.4609 -12.6406 14.834 -14.1592c3.03711 -4.93066 3.03711 -4.93066 6.13672 -18.0801c3.96875 4.08887 11.8623 8.8418 17.1523 9.50391c7.71582 3.66895 23.4482 -2.93164 27.8027 -6.25879
c8.91113 -3.85645 10.8643 -17.0977 11.6074 -22.7568c0.732422 -5.59082 2.3457 -42.0459 0.511719 -57.8789c-0.0380859 -0.382812 -1.73438 -19.665 -2.46973 -38.3408c-0.888672 -42.8799 -0.0771484 -60.5293 1.79395 -76.5537
c0.667969 -2.0957 0.808594 -5.39453 1.40039 -7.85254c0.198242 -0.823242 0.800781 -2.95605 -0.358398 -5.25879c0.100586 -1.13477 0.386719 -3.46289 0.974609 -6.91504c0.0722656 -0.420898 3.41113 -33.6494 -3.51758 -42.3711
c-0.772461 -4.62988 -35.3975 -17.6279 -38.5234 -23.001c-0.514648 -0.884766 27.1982 4.7041 26.3994 3.43945c-3.42188 -5.41406 -3.42188 -5.41406 -3.40137 -9.69336c0.0205078 -4.09375 -0.354492 -4.1582 2.77441 -8.96582
c4.83691 -7.43359 6.5 -14.8828 3.00879 -21.9219c-2.36816 -4.77832 -7.7334 -11.084 -11.6016 -13.8789c-0.974609 -0.704102 -7.59668 -5.34082 -13.0391 -5.41602c-5.66699 -2.12988 -9.0332 -1.89355 -14.917 -3.14648
c-12.3008 -2.61719 -29.5967 -2.87012 -35.9473 -3.96094c-4.21289 -1.39746 -8.56055 -0.631836 -11.001 -1.11719c-6.99316 -1.38672 -17.627 -0.93457 -23.6191 -1.49805c-8.49023 -0.796875 -50.0752 -0.680664 -59.833 0.572266
c-3.08105 0.394531 -8.9209 0.571289 -13.2598 1.29492c-2.75977 0.0839844 -16.0498 1.64062 -19.7041 4.13965c-2.14551 0.333008 -6.10547 1.25098 -10.0166 4.03613c-5.01953 1.56348 -5.66062 4.31554 -5.97461 4.58887zM985.621 412.065
c0 -0.0224609 0.0566406 -0.046875 0.0605469 -0.0703125zM1142.93 669.035c0 -0.0537109 0.0341797 -0.108398 0.0351563 -0.109375c-0.00976563 0.0332031 -0.0351563 0.0703125 -0.0351563 0.109375zM1068.48 697.499l0.400391 -0.0449219
c-0.103516 0.015625 -0.238281 0.0224609 -0.400391 0.0449219zM1188 676.108l-1.01855 -5.91309l3.39746 0.945312zM997.974 674.579c0.0351562 0.0527344 0.0361328 0.0917969 0.0410156 0.100586c-0.00292969 -0.00292969 -0.0166016 -0.0380859 -0.0410156 -0.100586z
M1003.44 499.121c-0.00097656 0.144531 -1.69629 -1.84277 -1.69629 -1.84277c-6.07617 1.21484 -6.07617 1.21484 -6.79883 1.34082c-3.67676 -1.05762 -7.7959 -0.161133 -10.1562 2.25391c-5.82812 2.10254 -6.87207 6.79688 -10.6875 10.1553
c-1.07617 0.478516 -3.63477 1.87793 -4.82422 4.7832l0.199219 -0.231445c-0.0273438 0.0410156 -0.0957031 0.120117 -0.199219 0.231445c-4.27051 4.59375 -19.0645 17.0527 -20.5635 19.9043c-2.63379 2.25293 -7.55762 8.3584 -10.1279 10.9863
c-1.61035 1.27734 -2.64941 2.59277 -3.28125 3.45117c-1.86719 0.904297 -3.5332 2.25 -5.5957 3.92285c-2.47852 2.01367 -5.4668 4.43945 -8.75488 5.19043c-1.27051 0.291016 -7.58496 0.460938 -9.1875 0.363281l0.399414 0.131836
s-0.138672 -0.0410156 -0.399414 -0.131836c-3.04004 -1.05957 -7.82031 -3.56738 -12.1504 -7.32031c-1.12793 -1.97754 -3.33789 -1.85156 -4.72363 -7.84473c-0.181641 -0.785156 -0.251953 -1.60742 -0.271484 -2.17676
c3.33496 -4.99414 -0.178711 -4.51953 8.63281 -14.3877c3.56348 -2.23535 2.43359 -4.19336 5.36523 -6.64648c12.0332 -10.0654 14.5273 -12.6895 15.3574 -14.4307l-0.3125 0.383789c0.0839844 -0.108398 0.188477 -0.237305 0.3125 -0.383789
c2.25391 -2.66016 7.05176 -7.12109 8.23047 -9.2334c12.3838 -13.2637 13.2666 -15.2617 13.4355 -15.3936c0.683594 -0.537109 3.08594 -2.49609 3.85742 -4.11035c2.20703 -1.88965 5.24609 -6.05957 6.23633 -6.82031
c2.59961 -2.00098 2.29004 -3.59961 4.38477 -5.86621c4.4043 -4.76562 1.05859 -2.375 6.97168 -11.4482c2.66992 -4.09277 4.60645 -7.06641 4.88574 -8.54883l-0.205078 0.30957s0.0605469 -0.101562 0.205078 -0.30957
c2.1084 -3.06738 2.1543 -3.13477 2.49219 -4.74414c1.65234 -2.14746 1.42871 -4.08887 2.25586 -5.31641c0.0888672 -0.131836 5.52734 -9.78516 5.52734 -14.2529c0 -0.22168 0.833008 -1.10547 1.1416 -2.43652c1.45508 -1.87207 2.06055 -5.14258 2.25488 -6.46387
c1.85742 -2.02832 4.08887 -5.66895 7.66895 -11.0811c4.60449 -6.95996 10.2813 -15.8711 14.4668 -23.0215l2.79102 -0.337891l-0.676758 -3.3291l1.08984 -1.89844l-1.11914 -0.379883c2.46387 -8.53516 27.6748 -24.2266 42.6348 -27.5254
c2.3418 1.46289 5.78223 1.71875 8.7998 0.925781c5.62988 -1.47949 25.3984 0.476562 40.3154 0.612305c1.52051 0.0136719 14.3574 0.918945 17.6797 1.19824c18.6104 4.625 38.8857 3.43848 51.1934 5.43164c7.60742 1.23047 8.50781 1.375 13.7285 6.43359
c0.675781 1.4668 1.55859 1.87402 2.76758 3.41406c0.707031 3.19043 1.59375 1.20605 1.57617 5.11523c-0.0136719 3.42773 -0.289062 4.15332 -3.16016 7.30762c-2.96777 3.26074 -4.87207 19.2441 -4.86621 19.4424v0l-1.19629 0.766602
c2.05371 1.55664 3.40332 3.6543 4.74512 5.75879l0.733398 -0.290039c0.630859 1.63477 5.78125 9.94531 5.84473 10.0439l-0.0205078 -0.12207c0.00585938 0.0371094 0.0205078 0.078125 0.0205078 0.12207c0.128906 0.78125 0.499023 2.62598 2.18555 4.35547
c0.564453 1.72852 4.18555 5.30176 7.19727 15.5439c0.682617 2.32617 1.3457 3.87012 1.95117 4.92285l-0.078125 -0.518555c0.0263672 0.125977 0.0537109 0.300781 0.078125 0.518555c0.329102 2.90625 0.404297 13.3408 0.078125 14.7705
c-2.19434 9.61914 -3.35254 25.0312 -3.39355 25.2832c-0.250977 1.14355 -0.728516 3.375 0.525391 5.68652c-1.88672 13.5508 -0.199219 11.4492 -1.75586 20.8545c-0.84082 5.09082 -0.84082 5.09082 -1.33691 27.7783
c0 -0.121094 0.0478516 -0.271484 0.0478516 -0.272461c-0.0146484 0.0810547 -0.0478516 0.170898 -0.0478516 0.272461c-0.506836 3.13086 -1.49414 15.9082 0.755859 23.3867c0.0400391 6.58594 0.950195 25.8691 1.48242 31.0195
c0.936523 9.06836 1.62012 17.7422 2.38086 28.4258c0.655273 9.18848 0.0966797 32.9355 -0.388672 34.9951c-1.31055 5.54785 -1.16113 8.46582 -1.81836 9.82812c-0.126953 0.262695 -3.15527 5.30078 -6.94043 7.6543
c0.351562 -0.0986328 0.857422 -0.143555 0.857422 -0.143555c-0.298828 0.0507812 -0.583984 0.0976562 -0.857422 0.143555c-5.62598 0.935547 -5.85059 0.823242 -7.03516 -0.0888672c-4.5332 -3.48633 -18.1914 -18.5605 -20.5889 -22.6865l-2.2373 -3.85059
c-2.65234 4.29297 -5.12109 -62.0312 -9.66113 -23.5176c-0.225586 1.91992 -0.78418 10.0967 -3.29102 10.125c0.141602 7.42871 -1.83887 26.3701 -2.67285 29.3027c-3.0625 10.7773 -1.10254 10.542 -5.4541 19.5518c-0.969727 2.00781 -1.9668 3.60645 -2.43945 5.36914
c-0.758789 0.932617 -1.22656 1.95703 -1.42871 2.94531l0.111328 -0.198242s-0.0390625 0.0703125 -0.111328 0.198242c-1.99219 3.51074 -4.44141 7.61523 -5.90625 9.25098c-2.08984 1.60742 -7.29688 0.189453 -11.2363 -3.63574
c-0.271484 -0.645508 -0.87793 -1.77539 -2.32422 -2.86035l0.374023 0.510742s-0.136719 -0.183594 -0.374023 -0.510742c-1.18262 -1.61914 -4.86719 -6.75391 -6.86523 -10.5264c-0.474609 -2.73242 -1.95312 -3.53418 -2.56641 -6.43262
c-1.06152 -5.00488 -2.28516 -3.75391 -2.71875 -7.26953c-0.146484 -1.21289 1.34961 -5.01953 -0.722656 -4.89746c-2.6416 0.157227 2.46289 -40.1904 -4.47559 -41.7666c-2.01855 -0.457031 1.83301 0.796875 0 0c-3.75879 -1.63379 -5.7666 27.9561 -11.2422 27.6504
c0.110352 0.367188 -0.376953 0.274414 -0.677734 0.325195c0.335938 2.56836 0.335938 2.56836 0.0595703 6.66309l-1.16992 0.12207c-0.944336 5.28711 -1.52148 11.6797 -1.54297 11.7969l-1.86523 -0.0664062l0.739258 4.7334
c-2.82812 9.70703 -5.44043 12.0889 -7.94629 18.3994c-3.4834 8.77246 -5.07422 8.96973 -6.03223 12.3164c-1.54004 1.29785 -1.7998 1.51758 -8.54199 1.78613l0.285156 0.116211s-0.0791016 -0.0302734 -0.285156 -0.116211
c-6.29004 -2.61816 -8.84375 -3.68164 -12.6934 -12.9854c-4.91602 -11.8809 -5.85352 -28.416 -9.11523 -37.5801l-2.49316 -7.00488l-8.77539 -16.4531c-0.967773 9.5459 -4.77441 37.3301 -5.89453 40.2969c-0.202148 0.53418 -0.202148 0.53418 -1.75195 5.27832
c-0.0351562 0.0546875 -2.69629 4.57129 -3.36328 5.44531c-5.27832 2.88672 -5.27832 2.88672 -6.68457 3.89648c-0.582031 0.418945 -0.679688 0.916992 -4.7832 1.14746c-1.19141 -0.401367 -2.27441 -0.567383 -2.96484 -0.660156
c-1.46973 -0.816406 -2.97656 -1.79102 -3.94824 -2.77344c0.0351562 0.0537109 0.0820312 0.144531 0.0820312 0.144531c-0.0263672 -0.0478516 -0.0546875 -0.0966797 -0.0820312 -0.144531c-0.387695 -0.683594 -0.826172 -1.38477 -1.30859 -2.04785
c-2.59766 -6.6582 -2.59766 -6.6582 -3.85449 -8.65527c-1.4668 -2.3291 -1.75391 -3.35547 -3.52148 -10.0156l0.0214844 0.285156c-0.0078125 -0.0917969 -0.0214844 -0.1875 -0.0214844 -0.285156c-0.602539 -8.18555 0.0820312 -29.9336 -0.777344 -36.4121
c1.29492 -3.05859 -0.0332031 -7.94531 -0.00585938 -9.7832c0.749023 -2.74707 1.46094 -10.5195 2.04492 -16.0508c0.0175781 -0.181641 1.30762 -5.94531 1.99805 -18.0654c0.391602 -6.85938 3.86523 -44.1982 3.95312 -44.6396
c2.06055 -3.06445 1.02246 -6.22168 -0.0351562 -8.27539c0.0966797 -0.347656 0.411133 -1.87988 1.37695 -7.33887c3.5918 -1.33789 5.38867 -12.7021 4.29199 -16.2217zM903.258 527.9c0.216797 -0.242188 0.371094 -0.411133 0.456055 -0.498047zM974.105 511.028
c-0.0673828 0.0605469 -0.132812 0.115234 -0.193359 0.162109zM997.741 522.616l-0.000976563 -0.000976563c0 -0.00390625 0.000976563 0.000976563 0.000976563 0.000976563zM1117.26 551.787c0.556641 -9.88965 -2.77051 -30.5 -2.36328 -39.708
c0.420898 -0.746094 0.758789 -1.66016 0.856445 -2.7168c0.916016 -9.84375 5.05762 -20.0088 10.1895 -28.8984c6.39746 -11.084 14.2568 -20.1055 18.2119 -24.0605c1.36426 -1.36426 2.67188 -2.43164 2.69727 -2.45605
c1.09375 -1.09473 1.67578 -2.50977 1.74414 -3.94531c0.779297 -2.51953 -0.172852 -5.27246 -2.39746 -6.75586l-5.16504 -3.44336c-2.79102 -1.86035 -6.55078 -1.41211 -8.81934 1.0625c-11.4424 12.4512 -20.501 22.3076 -29.0166 42.3389
c-4.24805 -9.59473 -9.875 -18.4424 -15.1992 -25.2041c-4.82227 -6.125 -8.20508 -13.1943 -12.3516 -17.3408c-2.47656 -2.47559 -6.38672 -2.65332 -9.06934 -0.530273c-6.21387 4.91992 -6.21387 4.91992 -6.5 5.20605
c-2.45508 2.45508 -2.65332 6.32031 -0.583984 9.00098c5.31934 6.89551 11.876 16.1377 14.7354 19.8945c20.7588 27.2676 21.9639 64.125 21.791 84.3984c-0.03125 3.8584 3.12793 6.97461 6.98438 6.88867l6.25391 -0.137695
c5.02246 -0.107422 8.01465 -4.18848 7.92383 -8.73145c-0.00878906 -0.459961 -0.0488281 -2.60352 0.078125 -4.86133zM12.9863 698h41.6357l12.8711 39.1699l12.8701 -39.1699h41.6367l-33.6504 -24.2217l12.8711 -39.168l-33.7275 24.2217l-33.7275 -24.2217
l12.8701 39.168zM231.035 410.821l-6.29883 31.5c67.5791 47.1387 186.48 29.0654 232.289 25.4941v-0.0166016c14.4102 0.304688 39.4736 -0.694336 56.3164 -17.5371c21.0732 -21.0732 20.2725 -57.1406 19.7002 -88.916
c-0.207031 -11.5117 -0.227539 -17.4521 -0.116211 -22.0225c13.8496 -23.0098 37.8887 -47.2285 46.8965 -68.0439c3.64844 -8.43262 2.88281 -13.001 1.38867 -21.1074l-6.30078 -7.34961l-41.7373 -33.3779v-111.527
c1.01758 -16.3203 0.958008 -41.6016 -14.3936 -56.9512c-13.667 -13.667 -95.8164 -6.31055 -115.807 -6.82812l-1.52344 0.00683594c-54.46 -3.83301 -155.456 26.5664 -171.466 48.3906c-9.71484 13.2441 -16.4854 21.6572 -30.4473 29.0371v36.7686
c13.5547 -8.53809 26.0527 -9.34766 36.8506 -31.833c23.2148 -48.3438 183.463 -55.5107 236.937 -56.9307l-0.261719 -0.504883c26.25 6.29883 17.9287 2.35254 22.3311 7.10645c10.0674 10.873 2.08887 22.0332 2.8916 30.4316h-0.28418v1.12793
c-0.133789 0.519531 -0.263672 1.01953 -0.388672 1.49512h0.388672v108.767v1.83008v0.703125h0.830078l54.5996 46.1992h0.594727c2.61621 24.0957 -32.9893 48.3682 -49.4639 73.2393l-1.57422 2.09961l-0.525391 0.525391
c-1.06055 2.09473 0.0224609 2.1123 -1.09375 6.06836c-0.0195312 0.0693359 -0.0996094 0.129883 -0.0917969 0.192383l0.135742 1.08887l0.0341797 0.786133c0.00488281 0.120117 0.0791016 2.0459 0.126953 3.27832c1.63477 41.5547 2.72852 91.0293 -44.0029 91.2305
l4.5 1.5c-71.583 8.79199 -196.107 5.00684 -226.533 -24.4189zM484 618l-59.7705 -30.3945l-54.2295 89.3945l-52.249 -85.8721l-63.751 30.8721l30 -62l182 -2zM495.152 531.765h-238.003l-60.1807 151.985l103.031 -45.0469l71.3262 88.3184l71.1162 -88.3271
l100.131 43.5342zM259.533 241.261c0.0869141 -26.9824 23.5049 -47.7227 23.9121 -48.0723l57.8057 -55.9775c2.76953 -2.68066 6.3877 -4.28906 10.4033 -4.28906c5.47949 0 8.47559 2.625 10.5127 4.41016c0.615234 0.539062 43.9072 42.0264 58.7969 56.917
c22.1719 22.1709 23.0732 40.5879 23.0732 49.71v0.125c0 13.626 -7.1748 28.7529 -14.7744 36.3525c-5.7666 5.7666 -22.6787 14.0322 -36.2617 14.0605c-18.0547 -0.362305 -24.707 -4.49121 -41.4902 -16.957c-11.3076 8.39062 -22.5439 16.7295 -41.2246 16.7295
c-14.7881 0 -30.3652 -8.08301 -36.8193 -14.5371c-5.65723 -5.65625 -14.0049 -22.0117 -14.0049 -35.5801c0 -0.787109 0.0244141 -1.72754 0.0634766 -2.55957l0.0078125 -0.166016v-0.166016zM426.033 244.06c0 -0.454102 -0.0527344 -1.92188 -0.0673828 -2.30566
c0 -10.4766 -5.37988 -22.6348 -18.5693 -35.3281l-55.6152 -53.5273c-56.2236 54.2344 -56.2236 54.2344 -56.5039 54.5156c-4.61523 4.61523 -16.7822 16.7822 -17.5479 36.1904c4.23828 14.5732 6.19336 21.2988 9.7666 24.0908
c6.2627 4.89355 15.8008 8.5166 23.165 8.5166c14.1719 0 26.8369 -9.89453 34.5654 -17.6221c3.41211 -3.41309 3.83105 -3.92188 6.52441 -3.92188c6.96973 0 16.9414 21.5566 41.3223 21.5566c10.2803 0 21.832 -6.62402 24.3545 -9.6543
c4.86621 -5.84375 8.60547 -15.1436 8.60547 -22.5107z" />
  </g>

</svg>
