<?xml version="1.0" standalone="no"?>
<!DOCTYPE svg PUBLIC "-//W3C//DTD SVG 1.1//EN" "http://www.w3.org/Graphics/SVG/1.1/DTD/svg11.dtd" >
<svg xmlns="http://www.w3.org/2000/svg" xmlns:xlink="http://www.w3.org/1999/xlink" version="1.1" viewBox="-10 0 1238 1000">
  <g transform="matrix(1 0 0 -1 0 800)">
   <path fill="currentColor"
d="M427.892 10.2021c4.36816 0 7.99805 -3.6123 7.99805 -8.08984v-34.6768l27.2949 -31.7822c-27.5342 1.52734 -27.5342 1.52734 -28.0146 1.59668c0 0 -1.04883 -51.6846 -0.774414 -51.7725c2.72559 -6.91211 -2.14258 -17.4961 -6.62305 -17.4961l-157.036 0.634766
c-4.46191 0 -8.08594 3.62891 -8.08594 8.08594v126.044c0 4.47461 3.63965 8.08691 8.11621 8.08691c0 0 32.2852 -0.129883 40.2217 -0.162109l29.4463 26.6406c2.27637 -17.9307 2.27637 -17.9307 2.87305 -28.9521zM415.653 -111.611l1.47168 47.5273
c-2.06934 -0.318359 -4.1377 -0.636719 -6.20801 -0.955078l-22.917 3.03906l27.5156 30.1768v21.7178l-71.2715 0.916016c-0.279297 -8.6543 -0.279297 -8.6543 -1.25195 -27.6201l-32.1543 27.1162l-27.8135 0.118164v-101.467zM180.736 -85.6826
c0 -45.8477 16.4404 -88.8936 48.5693 -121.124c26.665 -26.5596 77.8682 -47.7129 115.509 -47.7129c8.55078 0 19.9414 1.36426 34.2852 4.07129c78.1699 14.7539 141.607 91.0879 141.607 170.82c0 14.1836 -3.1748 35.9746 -7.22168 49.584
c-8.90137 31.46 -39.5195 78.2168 -41.8809 81.6709c-10.96 17.3037 -13.7627 21.7539 -18.4043 29.8438c-27.8047 48.9102 -55.6523 97.7764 -83.4287 146.715c-7.71289 17.46 -10.9316 20.6592 -16.9375 23.293c-6.5166 0 -8.64453 -0.0546875 -12.2598 -3.66895
c-2.23242 -2.2334 -2.36133 -2.54883 -6.30371 -9.92969c-2.31348 -4.33301 -55.2451 -100.739 -82.2725 -144.257c-5.17383 -8.33105 -31.707 -51.168 -48.0879 -84.1416c-15.5283 -31.3311 -23.1738 -63.8994 -23.1738 -95.1641zM345.339 -232.066
c-30.5332 0 -76.3535 17.3945 -100.986 42.0264c-27.1348 27.1357 -41.1279 63.8896 -41.1279 103.613c0 27.8281 6.86621 57.1123 20.8926 85.5693c12.4258 25.0176 27.3691 49.7646 41.8701 73.7646c12.9668 21.0703 12.9121 20.9766 76.3779 131.744
c0.129883 0.244141 0.129883 0.244141 6.67578 12.9707l84.4609 -146.649c3.52344 -6.07031 6.70215 -11.4375 19.0918 -30.8145c11.1748 -16.3584 26.6113 -44.2881 34.5039 -62.3428c0.129883 -0.326172 0.274414 -0.636719 0.411133 -0.956055v-0.0820312
c7.95312 -20.3545 10.9551 -44.0117 10.9551 -57.1289c0 -69.4688 -55.5947 -136.242 -124.074 -148.72c-14.8818 -2.71191 -25.1211 -2.99512 -29.0508 -2.99512zM78.2168 748.779h42.7031l13.2012 40.1738l13.2002 -40.1738h42.7041l-34.5127 -24.8428l13.2002 -40.1729
l-34.5918 24.8428l-34.5928 -24.8428l13.2012 40.1729zM553.644 378.529c-54.8896 0 -99.4297 48.3652 -99.4297 100.274c0 25.4502 15.5293 56.7158 26.0869 67.5068c2.79883 2.9248 4.20898 6.66406 4.20898 10.3984c0 3.72363 -1.40137 7.44238 -4.22559 10.3477
c-13.8066 13.8223 -25.0137 40.8848 -25.0312 60.2568c0 1.44434 3.04297 24.5928 5.42676 29.8887c12.3057 28.2627 47.25 51.7305 78.0176 52.4668l0.21582 0.00585938l0.213867 -0.0078125c27.0391 -0.953125 62.1504 -21.1416 75.6572 -51.8213
c2.2207 -4.62891 7.65918 -8.70117 13.8262 -8.70117c4.22656 0 6.82812 1.71973 8.64941 2.92383c16.3975 10.8398 45.7129 19.6855 65.3145 19.6855c1.5 0 4.01758 -0.0654297 4.80762 -0.0859375c0.0449219 0 0.0849609 -0.00292969 0.117188 -0.00292969
c6.24316 0.0371094 11.9385 4.59277 13.917 9.59375c14.085 34.1523 55.6074 61.9043 92.458 61.9043c-0.660156 0.304688 -0.970703 0.499023 -0.970703 0.59082c0 0.0400391 0.0625 0.0605469 0.18457 0.0605469c3.30078 0 50.1514 -14.9072 66.0557 -30.8125
c6.0166 -6.0166 23.5674 -25.3242 28.0049 -49.8291c1.58691 -7.99316 8.53711 -12.1191 14.125 -12.2969c51.457 -1.38184 93.2314 -44.2969 93.2314 -95.7656c0 -0.703125 -0.856445 -40.0801 -25.9785 -65.2021c-14.9873 -14.9863 -32.958 -22.8438 -34.2656 -23.3594
c-13.7178 -5.40918 -29.9326 -7.47461 -37.5771 -7.47461h-0.163086c-11.7617 0.263672 -21.1787 6.13574 -34.5176 6.13574c-6.7002 0 -10.4961 -1.79688 -12.542 -3.84375c-0.24707 -0.268555 -1.30566 -1.46484 -5.44238 -6.16211
c2.94336 -6.79395 7.06836 -16.3145 7.06836 -28.8164c0 -18.1191 -10.6562 -35.0547 -11.1904 -35.1377c-2.69043 -3.72168 -5.90625 -7.37695 -9.43555 -10.9062c-10.4316 -10.4316 -23.4951 -19.7832 -34.4141 -24.2012
c-26.1006 -10.5576 -48.4316 -10.7041 -50.2305 -10.7041c-18.584 0 -42.6426 7.04883 -44.0693 8.1709c-22.3037 9.25684 -49.0605 35.4229 -58.459 61.2246c-1.65918 4.30078 -6.2959 8.72363 -11.5488 9.75781c-1.26855 0.0771484 -2.69434 0.100586 -4.21582 0.100586
c-0.135742 0 -7.74023 -1.07617 -11.9951 -6.28027c-21.835 -26.6973 -59.2637 -39.8828 -81.8848 -39.8828zM722.359 353.358l-0.0664062 0.0292969zM480.162 546.162v0zM432.382 476.992c0 -67.2334 58.958 -123.668 120.271 -123.668
c45.9473 0 81.627 28.3545 87.4258 33.3066l6.28906 5.37109c7.33887 -11.502 12.1172 -18.9912 23.9766 -30.8496c13.1211 -13.1221 29.1572 -24.7314 43.917 -30.5508c13.6748 -5.33398 35.9727 -9.52637 50.6523 -9.52637c18.8359 0 39.125 4.37695 61.4443 12.9922
c20.0811 7.75195 45.2061 27.9385 56.8516 44.9932c5.97754 8.75488 12.71 30.7822 12.71 46.5215c0 1.14258 0 1.14258 -0.451172 11.415c12.0732 -2.4375 16.4775 -3.32715 21.6201 -3.32715c6.01562 0 29.0781 2.93164 45.5811 9.96582
c17.9961 7.32324 40.834 25.5391 51.7129 40.585c12.707 17.7539 22.7588 49.0596 22.7588 70.8965c0 15.8135 -5.45215 39.3506 -12.4033 53.5498c-11.9209 24.3555 -50.4961 58.1064 -91.8867 64.6738l-4.41504 0.701172c-3.22852 10.4082 -10.04 32.374 -33.5566 55.8906
c-13.3555 13.3545 -42.5049 36.999 -81.5088 36.999c-50.3506 0 -93.4102 -36.8604 -109.776 -68.001l-1.88672 -3.58984c-15.8916 -0.960938 -39.8906 -4.57129 -63.7158 -16.3105l-5.66211 -2.78906c-5.79297 8.66016 -8.7832 13.1309 -16.21 20.5576
c-19.917 19.917 -49.6553 34.999 -76.4883 35.8721c-0.329102 0.00585937 -0.660156 0.00878906 -0.993164 0.00878906c-32.5137 0 -81.9873 -26.5244 -98.5723 -68.8965c-3.93359 -10.5752 -6.58789 -36.4326 -6.93945 -38.3789
c0 -20.8018 9.7666 -49.0283 23.0195 -67.0469l3.04395 -4.13867l-2.92871 -4.22168c-13.7051 -19.7539 -23.8799 -50.6104 -23.8799 -73.0049zM722.205 612.04c0.757812 -13.46 -4.64551 -48.8359 -3.13867 -57.4004c0.462891 -0.525391 0.939453 -1.33887 1.03711 -2.3916
c3.13965 -33.7539 30.7656 -67.0176 41.4521 -77.7041c2.16406 -2.16309 2.16406 -2.16309 8.43555 -7.01465c-0.736328 -0.481445 -0.736328 -0.481445 -11.9961 -7.98828c-1.70801 -1.14062 -4.01953 -0.874023 -5.41992 0.65332
c-18.0479 19.6318 -32.2207 35.0498 -44.7656 70.8574c-5.66797 -17.6475 -16.0107 -34.9775 -25.5635 -47.1094c-6.6748 -8.47656 -11.9277 -18.8809 -16.9219 -23.875c-1.52148 -1.52246 -3.92578 -1.62891 -5.57324 -0.326172
c-8.48633 6.71777 -8.48633 6.71777 -8.66016 6.89258c-1.50977 1.50879 -1.62793 3.88574 -0.359375 5.53125c4.76855 6.18164 20.5098 27.6953 20.7197 27.9727c30.4697 40.0244 31.9512 93.2207 31.707 121.863c-0.0205078 2.37012 1.92188 4.28809 4.29297 4.23438
c11.2207 -0.25 11.2207 -0.25 12.8418 -1.87109c1.2168 -1.21582 1.83691 -3.02148 1.7959 -5.08008c-0.0146484 -0.694336 -0.0761719 -3.83496 0.116211 -7.24414z" />
  </g>

</svg>
