<?xml version="1.0" standalone="no"?>
<!DOCTYPE svg PUBLIC "-//W3C//DTD SVG 1.1//EN" "http://www.w3.org/Graphics/SVG/1.1/DTD/svg11.dtd" >
<svg xmlns="http://www.w3.org/2000/svg" xmlns:xlink="http://www.w3.org/1999/xlink" version="1.1" viewBox="-10 0 986 1000">
  <g transform="matrix(1 0 0 -1 0 800)">
   <path fill="currentColor"
d="M277.014 671.181v30.2178h-101.014v76.9033h-30.2188v-76.9033h-101.014v-30.2178h101.014v-207.181h30.2188v207.181h101.014zM377.312 427.957l34.6455 0.568359l484.905 1.16602v-32.0156l-180.863 -1.37598v-156.3l-300.096 161.462l-10.9443 6.91113
c-3.01562 0 -24.6318 19.584 -27.6475 19.584zM317.601 442.353c2.63477 -46.8008 -18.5225 -181.917 -8.9209 -196.604c0.455078 -0.269531 1.77051 -1.20312 1.94434 -3.06836c10.8691 -116.864 104.679 -228.775 141.055 -265.151
c7.66016 -7.66016 12.627 -11.502 12.627 -11.502l-3.86035 -0.9375l-1.12891 -2.58301l6.21387 -3.4668l-24.1914 -16.1289c-1.60547 -1.06934 -3.80859 -0.852539 -5.16699 0.628906c-3.22656 3.51953 -6.47754 7.04004 -9.75098 10.583
c-50.0088 54.1396 -104.753 113.592 -147.781 253.835c-14.2861 -67.3242 -55.1133 -138.856 -92.1172 -185.852c-21.9736 -27.9062 -40.541 -63.6211 -55.6133 -78.6924c-1.44922 -1.4502 -3.73828 -1.55371 -5.30762 -0.311523
c-16.3242 12.9238 -27.7432 21.9463 -27.9961 22.1992c-1.4375 1.4375 -1.55176 3.7002 -0.341797 5.26855c23.1504 30.0107 58.7949 79.75 69.1045 93.291c103.992 136.603 108.537 316.565 107.724 412.348c-0.0185547 2.25781 1.8291 4.08301 4.08789 4.0332
l29.2998 -0.647461c2.62988 -0.0556641 9.94043 -1.21094 9.71777 -12.3262c-0.0478516 -2.40332 -0.260742 -13.1162 0.40332 -24.916z" />
  </g>

</svg>
