<?xml version="1.0" standalone="no"?>
<!DOCTYPE svg PUBLIC "-//W3C//DTD SVG 1.1//EN" "http://www.w3.org/Graphics/SVG/1.1/DTD/svg11.dtd" >
<svg xmlns="http://www.w3.org/2000/svg" xmlns:xlink="http://www.w3.org/1999/xlink" version="1.1" viewBox="-10 0 539 1000">
  <g transform="matrix(1 0 0 -1 0 800)">
   <path fill="currentColor"
d="M392 -30c0 0 -12 -3.25293 -12 10c0 2.2832 -1.49707 -17.1016 6 28c2.82324 16.9834 18.8975 55.9531 17 52c-0.0351562 -0.0732422 -2.83789 -0.000976562 -2.75684 -0.000976562c15.3047 0 10.6045 7.9209 20.7568 3.00098c2.79492 -1.35449 6.41309 -3.41309 9 -6
c12.4717 -12.4707 11.2568 -22.791 22 -65c3.30176 -12.9727 5 -10.1699 5 -14c0 -4.26172 1.39941 -8.46191 -12 -8h-53zM459.596 -53.834c11.249 0 17.4639 11.3984 17.4639 21.165c0 4.91309 -13.4609 60.8096 -16.3418 68.248
c-4.81445 13.8564 -11.1416 31.7393 -24.709 40.1973c4.73926 5.43555 7.40527 12.0449 7.40527 19.4541c0 27.7236 -37.3672 53.2354 -75.96 53.2354c-2.74805 0 -5.4248 -0.131836 -8.01855 -0.388672c23.7988 38.123 58.1172 90.9277 58.1172 138.815
c0 99.9756 -135.61 42.2314 -178.83 158.043l0.426758 -0.121094c-0.143555 0.0332031 -0.286133 0.121094 -0.426758 0.121094c-21.3975 7.19434 -38.9717 195.876 -60.1357 260.159c-7.79102 23.668 -8.54785 35.0557 -12.4658 38.9727
c-1.00977 1.00977 -2.30078 1.72754 -4.10938 1.72754c-0.946289 0 -0.946289 0 -39.1885 -9.34863c20.7354 -74.918 49.6807 -190.646 49.6807 -317.804c0 -82.3984 -12.1543 -169.596 -46.5732 -253.597c-7.20312 -17.5791 -13.7656 -34.7441 -20.8945 -53.3896
c-9.77441 -25.5654 -20.6133 -53.9131 -35.6211 -89.9141l41.7451 -18.0371c18.4033 36.5273 20.6807 72.8281 43.8398 119.295c32.1201 64.4463 56.9014 152.573 56.9014 232.978c0 25.8262 -2.22852 43.21 -5.5625 61.9971
c6.25586 -10.873 16.6533 -28.9424 33.8027 -46.0908c65.2412 -65.2422 135.618 -20.6133 135.618 -76.2783c0 -16.5156 -11.583 -49.6406 -61.3506 -157.975c-3.24316 -7.05859 -5.49316 -11.9658 -6.19238 -13.626
c-0.0244141 0.0195312 -0.0498047 0.0371094 -0.0761719 0.0537109l0.0761719 -0.0537109l9.8125 -6.99316c-0.154297 -1.22656 -0.233398 -2.47754 -0.233398 -3.75293c0 -26.0078 32.8848 -50.0693 68.8164 -52.9473
c-0.927734 -1.56055 -1.83496 -3.23926 -2.71777 -5.04395c-11.1973 -22.9463 -21.6289 -73.5723 -24.127 -87.877c0 -3.4375 0.908203 -21.3232 19.7998 -21.3232l37.4014 0.0654297s37.3857 -0.0654297 37.4033 -0.0654297l4.9209 0.100586
c0.0908203 -0.00195312 0.211914 -0.00195312 0.302734 -0.00195312zM308.141 124.059c-0.362305 0.225586 -0.932617 0.166992 -1.45898 0.144531l0.408203 0.604492zM111.16 3.70508l0.691406 -0.298828l-1.03125 -0.371094
c0.114258 0.223633 0.227539 0.447266 0.339844 0.669922zM69.415 21.7422c-0.101562 -0.243164 -0.202148 -0.486328 -0.303711 -0.730469l-0.420898 1.04297zM122.823 736.446l-0.799805 -0.195312l0.579102 0.991211
c0.0732422 -0.264648 0.147461 -0.530273 0.220703 -0.795898z" />
  </g>

</svg>
