<?xml version="1.0" standalone="no"?>
<!DOCTYPE svg PUBLIC "-//W3C//DTD SVG 1.1//EN" "http://www.w3.org/Graphics/SVG/1.1/DTD/svg11.dtd" >
<svg xmlns="http://www.w3.org/2000/svg" xmlns:xlink="http://www.w3.org/1999/xlink" version="1.1" viewBox="-10 0 1050 1000">
  <g transform="matrix(1 0 0 -1 0 800)">
   <path fill="currentColor"
d="M700.999 492c0 15.6943 -16.8469 28.999 -38.999 28.999c-22.1538 0 -38.999 -13.306 -38.999 -28.999c0 -15.6943 16.8469 -28.999 38.999 -28.999c22.1538 0 38.999 13.306 38.999 28.999zM350.999 488c0 -15.7781 -17.8439 -28.999 -40.999 -28.999
c-23.1555 0 -40.999 13.2212 -40.999 28.999c0 15.7781 17.8439 28.999 40.999 28.999c23.1555 0 40.999 -13.2212 40.999 -28.999zM721.977 42.4451c0 -8.43147 -7.38132 -20.0559 -15.8276 -20.0559c-3.7249 0 -8.86401 2.6732 -51.8094 31.6564
c-50.557 34.1202 -91.4487 61.0243 -158.7 61.0243c-66.4951 0 -107.466 -23.2994 -161.218 -53.8664c-16.8386 -9.57571 -52.492 -30.6327 -58.1253 -30.6327c-7.81108 0 -12.6284 10.1337 -12.6284 18.3542c0 2.31505 0.499558 9.15659 6.22044 11.6084
c23.0093 10.702 43.2517 21.8604 62.481 32.463c50.4967 27.8427 94.4173 52.0654 161.706 52.0654c73.4421 0 117.831 -28.0602 169.304 -60.606c33.4276 -21.1359 54.9488 -33.3572 55.4078 -33.8162c2.30526 -2.30526 3.18924 -5.28851 3.18924 -8.19437zM901.001 288
c0 208.266 -174.796 377.001 -391.001 377.001c-216.221 0 -391.001 -168.751 -391.001 -377.001c0 -208.266 174.796 -377.001 391.001 -377.001c216.221 0 391.001 168.751 391.001 377.001zM934.999 286c0 -228.764 -190.235 -414.999 -424.999 -414.999
c-234.771 0 -424.999 186.243 -424.999 414.999c0 228.764 190.235 414.999 424.999 414.999c234.771 0 424.999 -186.243 424.999 -414.999zM665.285 333.606c24.664 0 46.041 21.5237 46.041 45.8057c0 10.2313 -4.02004 21.242 -12.3179 33.4397
c-5.43567 8.58758 -18.9771 33.2861 -25.4316 43.8938l0.208998 0.145952l-4.01521 4.75987h-0.357914l-2.30345 2.30345v-2.31052h-3.79377c-6.71399 -5.96327 -10.0109 -16.7478 -23.9371 -39.1703c-12.598 -20.2832 -17.3773 -30.7934 -17.3773 -44.4741
c0 -30.3075 25.61 -44.3936 43.2842 -44.3936zM696.138 379.244c0 -14.7026 -13.0132 -30.4014 -30.7305 -30.4014c-7.86272 0 -28.1611 6.2469 -28.1611 28.9834c0 11.1789 4.57129 19.1072 13.9045 34.5566c0 0.000876562 0.249222 0.421042 0.249222 0.421042
c1.51179 2.53488 10.9675 18.9822 14.8989 25.8987c17.1526 -29.7703 17.6295 -30.5448 20.1299 -34.3501c8.52392 -13.0344 9.70904 -19.7117 9.70904 -25.1083z" />
  </g>

</svg>
