<?xml version="1.0" standalone="no"?>
<!DOCTYPE svg PUBLIC "-//W3C//DTD SVG 1.1//EN" "http://www.w3.org/Graphics/SVG/1.1/DTD/svg11.dtd" >
<svg xmlns="http://www.w3.org/2000/svg" xmlns:xlink="http://www.w3.org/1999/xlink" version="1.1" viewBox="-10 0 979 1000">
  <g transform="matrix(1 0 0 -1 0 800)">
   <path fill="currentColor"
d="M678.002 332.16h-439.162v-439.162h439.162v439.162zM415.573 171.584c-60.5398 0 -114.013 -48.3046 -114.013 -115.607c0 -41.0842 19.9227 -82.1498 53.3368 -108.767l22.3789 -17.8268h-102.077l-1.94708 366.393h120.336v-21.6884l10.796 -0.0147126
c95.6045 -0.121075 170.616 -90.6797 170.616 -186.14c0 -72.3032 -58.5832 -135.517 -135.24 -135.579c-57.8173 0.117673 -104.75 47.1979 -104.75 105.002c0 45.3311 36.6181 80.8017 80.5692 80.8017c33.6472 -0.0548913 61.0263 -27.4546 61.0812 -61.104
c0 0 0.0082233 -5.46673 0.0162332 -10.7915h33.4253l-0.0147121 10.8245c-0.0741639 52.0878 -42.375 94.4236 -94.5137 94.4978zM476.729 295.775h162.916l1.94708 -366.393h-131.643c38.3209 27.0274 38.6424 27.3489 48.8232 37.5297
c45.3721 45.3721 49.6554 101.884 49.6554 120.784c0 61.2877 -25.7053 119.577 -66.8266 160.698c-16.6339 16.6325 -22.135 20.1391 -64.8716 47.3809zM341.524 582.676c-19.412 -9.55868 -21.9042 -10.749 -25.9783 -10.749
c-2.28431 0 -7.71485 0.576775 -11.7646 5.5907c-0.37989 0.469539 -31.2152 44.6908 -31.5404 45.1352c-1.64938 2.25288 -5.04272 6.00266 -5.04272 12.2526c0 8.41203 6.12723 12.5861 13.0509 17.3027c41.7493 28.7359 86.2541 59.4358 93.6947 65.0586
c50.62 0 50.62 0 55.2061 -1.93278c1.67198 -0.618019 11.2865 -3.86019 23.0112 -3.86019c9.30702 0 11.6063 0.0710747 24.2268 5.79297h48.2884c4.73687 -3.24605 87.0036 -59.6214 111.392 -77.8975c-10.7522 -16.2372 -14.0485 -21.2152 -26.7231 -42.2215
c-5.51466 -9.13978 -8.41114 -14.7878 -12.4524 -18.829c-4.52644 -4.52644 -9.50102 -4.59982 -10.7488 -4.59982c-3.24697 0 -12.8096 2.73741 -36.8682 9.6245c13.3917 -147.603 13.3917 -147.603 13.3917 -164.662h-230.806
c1.78728 23.2124 2.1164 29.0951 9.66363 163.994zM528.014 451.991c-0.137154 1.54498 -13.9668 151.749 -13.9668 154.475c0 4.94127 2.19929 10.9382 7.2832 14.0924v4.87136s12.569 -3.3271 12.6355 -3.34468l-0.000103082 -0.00039851
c3.06213 -0.76303 8.82549 -2.41391 21.295 -5.98574c7.4797 -2.14252 15.6986 -4.4958 22.8497 -6.46261l13.1339 21.2498c-0.767062 0.52943 -41.825 29.0383 -76.5859 53.1168c-5.49858 0.145527 -8.00568 0.151426 -31.2113 0.151426
c-17.4285 -6.55064 -36.4877 -8.97077 -65.6006 0.00019773c-24.6913 0 -26.8698 0 -33.1941 -0.170469c-12.0902 -8.24169 -58.4237 -40.2702 -77.4624 -53.4474c4.40815 -6.33253 10.2515 -14.7642 14.3652 -20.7002c18.4681 9.03712 27.3739 13.3951 32.2067 15.4966
c0.177238 0.125324 0.354743 0.242722 0.5321 0.35269l-0.336272 -0.267807c4.33383 1.87236 5.30081 1.87236 7.14321 1.87236c5.72473 0 16.1884 -3.70999 15.1444 -18.8555c-0.315023 -4.5699 -0.315023 -4.5699 -8.91095 -156.55
c32.0657 -0.127989 36.9871 -0.146795 160.68 0.106269z" />
  </g>

</svg>
