<?xml version="1.0" standalone="no"?>
<!DOCTYPE svg PUBLIC "-//W3C//DTD SVG 1.1//EN" "http://www.w3.org/Graphics/SVG/1.1/DTD/svg11.dtd" >
<svg xmlns="http://www.w3.org/2000/svg" xmlns:xlink="http://www.w3.org/1999/xlink" version="1.1" viewBox="-10 0 1014 1000">
  <g transform="matrix(1 0 0 -1 0 800)">
   <path fill="currentColor"
d="M30.3242 741.553h55.5146l17.1611 52.2256l17.1602 -52.2256h55.5156l-44.8672 -32.2959l17.1611 -52.2246l-44.9697 32.2959l-44.9707 -32.2959l17.1611 52.2246zM271 608l-12 60c128.725 89.7881 355.203 55.3633 442.457 48.5605
c0 -0.0107422 0.000976562 -0.0214844 0.000976562 -0.0322266c27.4463 0.582031 75.1855 -1.32129 107.268 -33.4033c40.1396 -40.1396 38.6152 -108.841 37.5254 -169.365c-0.395508 -21.9258 -0.433594 -33.2402 -0.22168 -41.9463
c26.3789 -43.8281 72.168 -89.959 89.3252 -129.607c6.95117 -16.0635 5.49219 -24.7637 2.64551 -40.2051l-12 -14l-79.501 -63.5771v-212.431c1.93945 -31.0869 1.82422 -79.2412 -27.416 -108.48c-26.0322 -26.0322 -182.507 -12.0195 -220.584 -13.0049
l-2.90137 0.0126953c-103.732 -7.2998 -296.108 50.6025 -326.603 92.1719c-18.5059 25.2275 -31.4014 41.2529 -57.9951 55.3086v70.0371c25.8174 -16.2627 49.624 -17.8066 70.1904 -60.6357c44.2188 -92.082 349.455 -105.734 451.309 -108.438l-0.499023 -0.962891
c50 12 34.1514 4.48145 42.5352 13.5361c19.1768 20.7119 3.97852 41.9688 5.50781 57.9648h-0.541992v2.14941c-0.253906 0.990234 -0.500977 1.94141 -0.738281 2.84863h0.738281v207.174v3.4873v1.33887h1.58203l104 88h1.13281
c4.9834 45.8955 -62.8379 92.1289 -94.2158 139.501l-3 4l-1 1c-2.02051 3.99219 0.0439453 4.02539 -2.08398 11.5605c-0.0371094 0.130859 -0.189453 0.24707 -0.174805 0.367188l0.258789 2.07227l0.0644531 1.49902
c0.00976562 0.226562 0.150391 3.89551 0.242188 6.24414c3.11426 79.1523 5.19727 173.389 -83.8154 173.771c-136.35 16.7461 -373.536 9.53418 -431.49 -46.5137zM559.657 183.905c-0.000976562 -0.120117 -0.000976562 -0.313477 -0.000976562 -0.433594
c0 -28.9717 17.21 -68.5059 38.416 -88.2461c13.3467 -12.459 5.3457 -35.4209 -11.498 -37.1094c-4.66016 -0.625 -12.2568 -1.13281 -16.958 -1.13281c-0.128906 0 -0.335938 0 -0.463867 0.000976562c-69.9316 0.675781 -128.08 57.9648 -129.796 127.879
c-0.0126953 0.681641 -0.0234375 1.78809 -0.0234375 2.46973c0 72.1279 58.5381 130.667 130.667 130.667c7.04492 0 18.373 -1.10645 25.2852 -2.4707c16.2061 -3.41406 23.0098 -26.1924 9.2334 -37.3701c-24.7637 -20.0771 -44.8613 -62.2451 -44.8613 -94.125
v-0.128906zM595.285 75.1904c0.37793 1.13672 0.68457 3.03125 0.68457 4.22949c0 3.25488 -1.94531 7.68164 -4.34375 9.88184c-22.4873 21.333 -40.7393 63.8037 -40.7393 94.7998c0 34.125 21.4121 79.3838 47.7959 101.026
c2.49609 2.00684 4.52246 6.23438 4.52246 9.4375c0 6.4043 -4.93945 11.6338 -10.2715 12.6885c-6.5 1.29297 -17.1543 2.34668 -23.7812 2.35254h-2.96191c-65.9336 -2.41699 -119.583 -58.0586 -118.994 -124.568c1.44238 -67.2666 56.7334 -119.365 124.273 -119.365
c3.84473 0 10.0654 0.361328 13.8848 0.805664c4.35547 0.564453 8.80469 4.4668 9.93066 8.71191zM476.813 187.563c0 12.0273 9.75098 21.7783 21.7783 21.7783s21.7773 -9.75098 21.7773 -21.7783s-9.75 -21.7773 -21.7773 -21.7773s-21.7783 9.75 -21.7783 21.7773z
M596.569 598.344c69.5791 -0.0957031 126.128 -56.6436 126.224 -126.224c0 -69.6758 -56.5488 -126.224 -126.224 -126.224c-69.6758 0 -126.225 56.5479 -126.225 126.224s56.5488 126.224 126.225 126.224zM713.907 476.389v0.0869141
c-0.849609 24.0283 -14.8213 57.8242 -31.1855 75.4385l-67.8594 -67.8594c1.30469 -1.94141 2.74805 -5.37598 3.22266 -7.66602h95.8223zM608.59 490.239l67.8604 67.6855c-17.6143 16.4375 -51.4492 30.4863 -75.5254 31.3594v-95.8213
c2.29004 -0.475586 5.72461 -1.91895 7.66504 -3.22363zM592.213 493.463v95.9961c-24.0762 -0.873047 -57.9111 -14.9229 -75.5254 -31.3604l67.8604 -67.8594c1.94141 1.30469 5.375 2.74805 7.66504 3.22363zM584.548 454.001l-67.8604 -67.7725
c17.625 -16.4102 51.46 -30.4199 75.5254 -31.2725v95.8213c-2.29004 0.475586 -7.66504 3.22363 -7.66504 3.22363zM600.925 450.777v-95.9961c24.0762 0.873047 57.9111 14.9229 75.5254 31.3604l-67.8604 67.8594c-1.94043 -1.30469 -5.375 -2.74805 -7.66504 -3.22363z
M510.59 552.001c-16.3818 -17.6348 -30.3535 -51.4697 -31.1855 -75.5254h95.8223c0.474609 2.29004 1.91895 5.72461 3.22363 7.66602zM479.23 467.765c0.873047 -24.0762 14.9219 -57.9121 31.3594 -75.5254l67.6855 67.8594
c-1.30469 1.94141 -2.74805 5.37598 -3.22266 7.66602h-95.8223zM682.548 392.239c16.3818 17.6348 30.3535 51.4697 31.1855 75.5254h-95.8223c-0.474609 -2.29004 -1.91797 -5.72461 -3.22363 -7.66602z" />
  </g>

</svg>
