<?xml version="1.0" standalone="no"?>
<!DOCTYPE svg PUBLIC "-//W3C//DTD SVG 1.1//EN" "http://www.w3.org/Graphics/SVG/1.1/DTD/svg11.dtd" >
<svg xmlns="http://www.w3.org/2000/svg" xmlns:xlink="http://www.w3.org/1999/xlink" version="1.1" viewBox="-10 0 1016 1000">
  <g transform="matrix(1 0 0 -1 0 800)">
   <path fill="currentColor"
d="M828.399 483.872c0 9.49878 0.360099 25.4826 0.360099 28.905l-0.318652 61.3747l-8.69455 54.78l-24.0577 41.7601l-29.8355 19.1251l-33.9409 8.02542l-47.9505 1.85133v0.765382l-107.704 8.96128l-161.614 -4.8437l-135.511 -48.0118l4.97421 -24.8711
l90.1513 34.2037l168.519 13.9909l163.859 -8.05849l72.0585 -32.0852l24.6852 -76.5829c-11.2968 -92.7231 -11.5388 -94.7093 -10.6225 -98.1968c0.272553 -1.03738 0.408327 -1.98777 0.495372 -2.92219c0.487753 -0.641757 1.13403 -1.58506 1.4862 -2.05622
l30.4464 -40.7334l38.0432 -60.0682l23.93 -33.502l-96.7113 -80.2498l-3.19974 -219.288c0.962733 -7.56244 2.78458 -22.0112 5.01798 -45.877c-0.12894 -0.269919 -9.65147 -20.9678 -12.8349 -27.02c-1.80565 -3.43278 -3.36365 -6.39475 -8.94453 -11.1259
c-28.726 -6.87192 -37.6748 -9.01268 -53.7943 -9.01268c-3.38415 0 -6.77838 0.14333 -10.1737 0.446144l-127.95 -3.2205l-189.706 31.9736l-119.91 72.0259l-21.8729 31.5454c-0.18608 0.126152 -14.9542 10.3475 -18.5829 12.6523v-31.4635
c5.41685 -3.87145 13.5068 -7.36272 24.4398 -17.2503c7.32645 -6.62591 2.09556 -4.45645 10.6241 -11.9264c1.03002 -0.902171 1.03002 -0.902171 17.2005 -21.8062l70.2643 -41.1391l123.979 -35.7692l40.8353 -3.74581
c52.8258 -4.90757 59.0669 -6.73248 83.0467 -7.42728l68.08 -1.97257l89.7606 0.254271l51.1066 12.4914l15.1376 25.2075l6.27671 34.16l-0.268638 82.9487l0.0291888 84.2282l-0.00582149 87.5189l84.7837 67.8016l7.68593 8.96692l1.11464 7.19504
c0.44913 7.61262 -1.52476 12.8022 -3.31214 18.1783l-23.3304 38.8443l-33.0243 43.448l-34.3179 48.9016c-0.202711 16.1296 -0.202711 16.1296 -0.202711 17.6951zM33.2949 712.521h55.5146l17.1611 52.2256l17.1602 -52.2256h55.5156l-44.8672 -32.2959
l17.1611 -52.2246l-44.9697 32.2959l-44.9707 -32.2959l17.1611 52.2246zM484.371 265.58c-2.90527 -4.12598 -4.41113 -6.01758 -7.24805 -8.55762c11.7939 -9.96094 18.8232 -16.001 30.9326 -26.8145c-5.70312 -8.54688 -17.5967 -26.3682 -17.5967 -54.4951
c0 -13.8174 3.01465 -26.9287 8.42188 -38.7227l1.70801 -3.72656c-10.1133 -5.09473 -18.6006 -9.4248 -37.9043 -20.1816c3.33105 -4.59082 4.7793 -7.00488 6.125 -10.377c14.6484 8.8584 23.2773 13.8223 37.373 21.1182
c3.84375 -5.2627 6.54688 -8.96094 11.6895 -14.1045c19.9922 -19.9922 43.6133 -25.1484 54.7646 -26.4512l3.92285 -0.458008c-1.10352 -25.0625 -1.36719 -32.9922 -1.62402 -42.002c6.94434 -0.507812 9.25488 -0.641602 12.3896 -0.677734
c-0.0595703 6.18066 -0.0908203 11.7637 -0.0908203 16.832c0 9.54102 0.0537109 14.6768 0.408203 25.6865c11.5537 0.96875 37.5146 3.14551 61.7686 27.3994c3.41602 3.41602 5.57617 5.57617 12.3721 15.0811c13.5771 -9.80566 20.5068 -14.7803 30.1895 -21.666
c3.01758 4.22363 4.36133 6.24512 6.73438 10.3926c-10.5576 8.21875 -17.5303 13.3486 -31.0508 21.8213c3.55469 8.27441 8.97852 20.8984 8.97852 39.4727c0 20.6953 -7.11133 36.8389 -11.0127 44.1328l-1.85938 3.47461
c0.318359 0.203125 20.7061 13.1182 31.915 19.9775c-2.24023 3.65625 -3.5332 5.5752 -5.86426 8.71191c-17.3789 -10.0684 -20.8389 -12.0723 -32.0273 -19.7783c-3.97363 4.82324 -5.46973 6.63965 -8.73633 9.90527c-21.293 21.293 -46.3955 25.9746 -58.4951 26.9248
l-3.72461 0.291992c-0.758789 15.2617 -0.993164 23.083 -0.993164 31.9336c0 2.77246 0.03125 5.1582 0.0732422 7.27051l-10.958 -0.260742c-0.179688 -6.54102 -0.249023 -12.5342 -0.249023 -18.3389c0 -4.21875 0 -7.22852 0.225586 -20.9033
c-10.292 -1.36914 -34.6465 -4.60938 -57.0664 -26.9346l-2.92773 -2.91699c-15.2715 14.5049 -21.6484 19.9678 -30.5635 26.9404zM583.178 94.0791c-43.7344 0.0263672 -81.2734 35.9355 -81.2734 81.6299c0 45.0576 36.5742 81.6299 81.6318 81.6299
c45.0518 0 81.6299 -36.5674 81.6299 -81.6162c-0.192383 -45.0664 -36.9297 -81.6436 -81.9883 -81.6436zM163.896 248.801zM163.714 246.64zM293.528 224.154c0 16.9268 -5.8291 32.3291 -19.2803 45.7803c-7.6123 7.6123 -15.2998 12.2773 -22.501 15.1133
l-20.4375 8.0498c25.2441 -4.36035 25.2441 -4.36035 28.5596 -5.34961c0.364258 0.124023 0.84082 0.222656 1.31836 0.134766c31.1836 -5.74414 54.8447 -19.6328 71.792 -36.5801c8.7793 -8.78027 14.8008 -17.1699 20.4053 -26.8799
c-14.6084 -25.3613 -39.5869 -53.9717 -93.4961 -63.5781l-11.5889 -2.06543c10.4746 6.42969 16.3154 9.58008 26.2344 19.6865c13.7598 13.7598 18.9941 29.4521 18.9941 45.6885zM226.911 173.312c-14.2236 0 -26.7217 4.87305 -37.0615 15.2129
c-15.0312 15.0332 -18.2559 35.2246 -11.626 53.5791l0.770508 2.13086l0.512695 -0.189453c10.4209 15.3799 10.4209 15.3799 11.0303 16.2676c16.2871 10.6621 16.2871 10.6621 16.5029 10.6895c11.501 4.83691 36.2783 9.24023 57.0381 -11.5205
c10.3213 -10.3203 14.7041 -22.3291 14.748 -35.1357c0 -8.89746 -1.88379 -22.6172 -14.751 -35.4844c-6.03906 -6.03906 -17.5361 -15.5498 -37.1641 -15.5498zM379.449 224.421c-8.00098 14.2002 -46.9238 82.6211 -149.449 82.6211
c-61.6562 0 -100.325 -24.6543 -123.281 -47.6104c-9.77637 -9.77637 -18.2119 -20.4854 -26.4932 -35.0098c7.3252 -12.8428 15.4844 -23.9092 25.7432 -34.1689c38.0742 -38.0742 84.8887 -48.2529 124.031 -48.2529c18.8223 0 76.8037 1.19824 123.759 48.1543
c13.4297 13.4297 21.4688 26.7471 25.6904 34.2666zM200.139 283.707c-6.13477 -2.30762 -15.7412 -8.38574 -19.4775 -12.1221c-4.99219 -4.99219 -4.99219 -4.99219 -6.13477 -6.89746c-0.957031 -1.59766 -1.16406 -1.79883 -2.41309 -2.92578
c-1.75684 -1.58594 -2.34668 -2.30371 -3.00586 -3.98438c-0.517578 -1.31738 -3.61426 -6.9248 -4.48242 -9.33691c0.115234 -0.566406 0.0341797 -1.12793 -0.117188 -1.52539c-7.06641 -18.502 -7.41113 -46.3008 14.7285 -68.4404
c5.74902 -5.74902 11.7432 -9.7666 17.498 -12.5898l15.8203 -7.76074l-17.2666 3.53711c-31.833 6.52246 -53.8496 21.2197 -68.584 35.9541c-8.74219 8.74316 -14.8193 17.1406 -20.4199 26.8057c10.5117 18.2178 33.9473 52.9287 92.6562 63.6045zM221.568 570.666
c25.2207 0 37.4727 -26.8369 37.4727 -55.0576c0 -28.8438 -11.8623 -49.377 -34.5527 -81.3701c-14.8232 -20.7568 -18.4043 -26.9307 -21.6826 -35.2256l55.1943 2.37402v-25.3867l-78.0811 -2.47852c-0.0332031 1.79492 -0.0361328 1.95898 -0.0361328 2.61035
c-0.886719 -0.15332 -1.79785 -0.233398 -2.72754 -0.233398c-8.79199 0 -15.917 7.12598 -15.917 15.916c0 8.79199 7.12598 15.917 15.917 15.917c3.11426 0 6.02051 -0.894531 8.47363 -2.44043c6.49414 17.2598 17.0879 32.166 24.2295 41.9121
c21.7979 29.8154 32.0195 48.8906 32.0195 68.9346c0 16.959 -7.61426 32.3311 -20.626 32.3311c-12.5752 0 -21.3926 -13.165 -21.499 -37.625l-0.00585938 -1.47559l-12.1768 2.08594c-2.46973 -1.5752 -5.40234 -2.48828 -8.54883 -2.48828
c-8.79102 0 -15.916 7.12598 -15.916 15.916c0 8.79199 7.12598 15.917 15.916 15.917c2.71777 0 5.27637 -0.680664 7.51465 -1.88184c2.35742 8.15332 6.14844 16.3594 12.3291 22.541c6.125 6.125 13.752 9.20801 22.7031 9.20801zM604.092 511.123l51.6484 50.3154
c1.87793 1.83008 4.84375 1.8877 6.79004 0.172852c2.1582 -1.90137 11.335 -7.29883 6.26855 -12.5107l-51.0371 -52.4971l55.8047 -52.2441c2.11621 -2.11523 1.81348 -5.55469 -0.305664 -7.35254l-7.7334 -6.56152
c-1.92285 -1.63184 -4.79102 -1.57617 -6.64941 0.166016l-55.8779 52.3887s-50.3652 -52.21 -50.4297 -52.2744c-2.05957 -2.05957 -5.40723 -1.86523 -7.25879 0.198242l-5.61621 6.25684c-1.74121 1.93945 -1.69922 4.91895 0.125977 6.80859l49.79 51.5684
l-48.9307 51.8398c-1.84863 1.95898 -1.81445 5.0498 0.149414 7.0127l6.90039 6.72266c1.95508 1.9043 5.08789 1.88867 7.04688 -0.0693359z" />
  </g>

</svg>
