<?xml version="1.0" standalone="no"?>
<!DOCTYPE svg PUBLIC "-//W3C//DTD SVG 1.1//EN" "http://www.w3.org/Graphics/SVG/1.1/DTD/svg11.dtd" >
<svg xmlns="http://www.w3.org/2000/svg" xmlns:xlink="http://www.w3.org/1999/xlink" version="1.1" viewBox="-10 0 961 1000">
  <g transform="matrix(1 0 0 -1 0 800)">
   <path fill="currentColor"
d="M715.443 225.181v-139.456c32.9521 3.52637 76.1621 21.4678 101.925 42.3271l-0.689453 0.689453c9.11621 6.00586 13.2246 8.71191 15.7207 12.5488c0.714844 1.09863 1.9541 2.97168 5.2832 7.10352c20.7783 25.79 38.6113 68.9902 42.0762 101.911h-139.26
c-7.70898 -16.7295 -10.1611 -17.582 -18.2617 -20.3994c-9.0918 -3.16211 -3.49512 -3.25781 -6.79395 -4.72461zM670.703 233.858l-0.584961 1.74707zM739.74 279.052h140.305c-1.21191 11.5459 -7.65332 53.8643 -39.29 98.3652l0.416016 0.641602
c-5.1084 10.3438 -6.18652 5.14551 -8.62207 9.96094c-0.0634766 0.125 -0.0634766 0.125 -3.72363 5.66113c-8.47754 4.21973 -4.21777 4.14355 -10.8994 7.74902c-1.13867 0.614258 -2.81152 1.53809 -5.19336 3.30273
c-26.0918 19.3174 -66.2432 35.4375 -97.2891 38.7607v-139.158c2.5166 -0.982422 6.79004 -2.65039 8.09277 -4.13281c1.67969 -1.91016 1.67871 -1.91113 8.03125 -8.2627c5.92773 -5.92676 4.5791 -9.61328 6.04688 -11.0811
c0.30957 -0.120117 1.57324 -1.80664 2.12598 -1.80664zM669.661 289.444c0.332031 0.248047 0.796875 1.70508 1 2c0.0859375 0.125 1.05566 0.833008 1 1c-0.185547 0.561523 0 -0.578125 0 0c0 1.99219 0.655273 2.99316 9 8c5 3 2.63965 2.42871 5.89551 3.875v139.452
c-58.6895 -6.28223 -100.654 -42.8809 -105.068 -43.8838c-5.83691 -1.3252 -8.41016 -10.1289 -12.5361 -12.0977c-0.433594 -0.207031 -1.16309 -0.646484 -1.67578 -1.43164c-0.676758 -1.7207 -1.21289 -3.08887 -2.95996 -5.25586
c-20.7773 -25.79 -38.6113 -68.9902 -42.0762 -101.911h139.055c0.108398 0.541992 0.108398 0.541992 0.683594 3.18652c2.41797 1.2168 2.20898 2.14648 2.68262 3.06641c0.506836 0.983398 2.14648 1.86816 5 4zM572.138 390.731c0 0 -0.000976562 -0.000976562 0 0z
M909.748 264.748c0 -115.224 -93.5088 -208.748 -208.748 -208.748c-115.224 0 -208.748 93.5088 -208.748 208.748c0 115.237 93.5225 208.748 208.759 208.748c115.07 -0.158203 208.579 -93.667 208.737 -208.748zM662.633 250.305h-140.656
c3.52637 -32.9492 21.4629 -76.1514 42.3203 -101.916l0.462891 0.463867c11.9746 -13.5176 5.98633 -5.55078 11.7666 -11.3311c3.60449 -3.60449 5.08301 -6.87695 8.11621 -9.32617c25.7773 -20.8193 68.9785 -38.7041 101.914 -42.1992v139.284
c-1.9873 0.671875 -2.9043 0.987305 -3.5127 1.21777h-1.01855c-7.14062 3.05762 -3.82031 -0.0986328 -6.95996 2.49219c-0.22168 0.182617 -0.232422 0.191406 -1.65527 0.978516c-3.92871 5.87012 -6.32227 16.3457 -9.39551 19.749
c-0.212891 0.0585938 -0.741211 0.209961 -1.38184 0.586914zM664.21 249.657v0zM301.48 633.954c3.43848 -61.0859 -25.5908 -235.091 -8.51367 -244.224c16.7646 -180.239 191.267 -348.642 191.488 -342.146l-29.5684 -19.7109
c-66.5254 72.5615 -140.753 144.372 -197.317 340.991c-12.5928 -86.5742 -66.6689 -183.541 -115.259 -245.248c-29.5654 -37.5459 -42.2402 -67.583 -67.584 -95.7432l-33.792 26.751c38.0166 49.2803 59.3545 81.043 84.4805 114.049
c128.286 168.514 133.652 389.767 132.657 506.979c11.9375 -0.263672 23.875 -0.526367 35.8125 -0.790039c6.7168 -0.143555 6.99023 -6.67188 7.10547 -9.46094c0.0146484 -0.313477 -0.4375 -14.9805 0.490234 -31.4473zM600.232 668.753l-248.836 -280.772
l32.6035 -25.9805l211.969 246.288c17.6074 -29.1963 42.7334 -63.7119 51.0996 -86.3691l59.4814 84.8154z" />
  </g>

</svg>
