<?xml version="1.0" standalone="no"?>
<!DOCTYPE svg PUBLIC "-//W3C//DTD SVG 1.1//EN" "http://www.w3.org/Graphics/SVG/1.1/DTD/svg11.dtd" >
<svg xmlns="http://www.w3.org/2000/svg" xmlns:xlink="http://www.w3.org/1999/xlink" version="1.1" viewBox="-10 0 1022 1000">
  <g transform="matrix(1 0 0 -1 0 800)">
   <path fill="currentColor"
d="M485.765 447.303zM485.613 445.515zM671.356 475.06c0 -27.8936 -16.2256 -64.2705 -36.3711 -82.7617c-42.458 -39.0811 -86.4316 -39.0811 -171.839 -39.0811v16.248c24.0176 0 44.5684 0.911133 62.5908 0.911133c-8.28027 2.05762 -19.1729 6.65332 -29.2549 16.7344
c-19.2061 19.207 -18.9785 43.4033 -12.8789 59.4922c-0.453125 1.85156 3.04688 7.06152 3.86914 9.15625c0.801758 2.04297 1.79492 3.06543 3.21875 4.35156c0.87793 0.791992 0.87793 0.791992 1.4082 1.67676c1.26562 2.10742 3.31152 4.1582 5.86816 6.71289
c1.96094 1.96191 11.0508 8.55664 18.0381 10.7402c5.17188 1.61719 5.89062 2.56152 9.2959 2.96289c1.55469 0.182617 2.44238 0.381836 3.40918 0.598633c1.69531 0.378906 28.4102 5.93945 50.6699 -16.3203c10.9473 -10.9482 16.4854 -24.2305 16.4854 -39.5801
c0 -9.46973 -2.3252 -27.0029 -17.3047 -41.6826c-4.59766 -4.4502 -9.60059 -8.00293 -14.9873 -10.6504c23.3691 4.57617 42.1787 13.2588 60.2383 29.7285c16.334 14.9707 31.4424 47.2256 31.1309 72.0039c-0.21582 22.4336 -14.502 54.3662 -31.9434 69.6992
c-37.8662 33.7012 -79.9248 33.7012 -157.665 33.7012v16.249c78.2373 0 125.575 0 168.48 -37.7637c19.2129 -16.8555 37.54 -52.3301 37.54 -83.127h0.000976562zM537.927 387.614c15.2637 0 24.0166 7.28418 28.7842 12.0508
c9.99707 9.99805 11.3916 20.4355 11.3916 27.3955c-0.0332031 9.8877 -3.31738 19.2764 -11.8838 27.5947c-14.4736 14.2412 -32.9229 13.1289 -44.0244 8.28906l-12.418 -8.17285l-9.60938 -14.207l0.0292969 0.0791016
c-0.00976562 -0.0263672 -0.0205078 -0.0527344 -0.0292969 -0.0791016c-1.91699 -5.24805 -7.46582 -24.8721 9.28125 -41.3955c7.83984 -7.73535 17.2344 -11.5547 28.4785 -11.5547v0zM506.65 80.8643c41.4834 0.146484 82.9668 0.146484 124.449 0
c2.72754 0.0527344 5.45703 0.108398 8.18262 0.167969c10.0518 -0.155273 18.085 4.74512 24.1025 14.7012c5.18945 9.10254 6.68164 19.0898 4.47266 29.9609c-1.00391 5.06348 -2.1084 10.0938 -3.30957 15.0918c-4.74707 18.8555 -9.39844 37.749 -13.9512 56.6797
c-2.7041 10.8955 -5.68652 21.665 -8.94238 32.3086c-3.39453 10.9785 -7.48047 21.5254 -12.252 31.6377c-4.20898 8.69043 -9.29199 16.5352 -15.251 23.5293c-10.1904 11.3848 -22.1455 17.8301 -35.8643 19.3418c-9.3584 1.12402 -18.541 0.00585938 -27.5459 -3.35449
c-8.24707 -3.35742 -15.5791 -8.61133 -22.001 -15.7627c-5.82617 -6.70215 -10.7891 -14.25 -14.8896 -22.6367c-3.7207 -7.62695 -7.00098 -15.5635 -9.83789 -23.8125c-2.82715 -8.25391 -5.39062 -16.6387 -7.69238 -25.1543
c-1.72266 -6.42578 -3.39258 -12.873 -5.00781 -19.3398c-3.25195 -13.5 -6.53125 -26.9902 -9.83789 -40.4707c-1.68164 -6.15527 -3.29004 -12.3418 -4.83008 -18.5557c-0.900391 -3.80566 -1.70703 -7.64453 -2.41406 -11.5166
c-1.89844 -13.7139 1.30859 -25.1719 9.61426 -34.375c2.78906 -2.91797 5.91797 -5.11719 9.3916 -6.59668c1.90234 -0.674805 3.83984 -1.12305 5.81348 -1.3418c2.54395 -0.251953 5.07715 -0.421875 7.60059 -0.501953v0zM506.65 92.1562
c-2.04297 0.0869141 -4.10156 0.216797 -6.16992 0.391602c-1.48242 0.140625 -2.94238 0.4375 -4.38281 0.891602c-2.5625 1.13574 -4.8584 2.81445 -6.88672 5.03027c-5.47461 6.40723 -7.48633 14.2148 -6.03516 23.4229
c0.767578 4.02148 1.62988 8.00684 2.5918 11.9609c1.76562 6.61816 3.49414 13.251 5.1875 19.8984c3.23633 13.3857 6.48438 26.7627 9.74805 40.1348c1.59863 6.36523 3.26758 12.6992 5.00879 19.0049c3.12012 11.3672 6.81738 22.4346 11.0908 33.2021
c3.19141 7.91211 7.00781 15.292 11.4453 22.1367c12.3184 18.3574 28.1035 26.6865 47.3574 24.9844c13.0605 -0.902344 24.3008 -6.94043 33.7178 -18.1094c5.17969 -6.47363 9.60645 -13.6465 13.2803 -21.5215c4.06641 -8.9082 7.58398 -18.1484 10.5547 -27.7256
c3.04785 -9.94629 5.85156 -20.0068 8.40625 -30.1826c3.36523 -13.7021 6.70605 -27.418 10.0166 -41.1406c1.25098 -4.91699 2.50293 -9.83594 3.75586 -14.7568c1.37695 -5.58105 2.62988 -11.209 3.75586 -16.8809
c0.556641 -2.63965 0.796875 -5.32324 0.71582 -8.04785c-0.826172 -8.57324 -4.17969 -15.0762 -10.0615 -19.5088c-1.90137 -1.43848 -3.95996 -2.29492 -6.1709 -2.57031c-3.15137 -0.418945 -6.30957 -0.603516 -9.48047 -0.55957
c-42.4805 -0.0546875 -84.9629 -0.0751953 -127.445 -0.0546875v0zM715.178 5.61523c0.714844 0.0292969 45.8965 0.00390625 45.9092 0.0263672c-13.917 58.3721 -10.0068 77.166 -4.93066 93.5439c0.046875 0.147461 3.97461 13.7256 4.50977 14.7959l32.8232 65.6465
c-16.7998 260.398 -16.7998 260.398 -16.7051 261.518c5.51855 65.5137 10.3311 141.932 4.70508 190.882c-14.6289 58.0996 -50.9248 45.8389 -59.4033 27.2559c-2.99609 -6.56738 -6.37207 -7.34082 -15.0879 -9.33691
c-6.77246 -6.05957 -17.4277 -4.7334 -22.4951 2.89746c-6.35156 9.56543 -35.7354 55.0674 -36.5088 56.5791c-10.626 20.8125 -51.6182 33.6162 -59.4521 -7.58301c-0.283203 -1.48926 -0.283203 -1.48926 -14.2754 -35.5947
c-5.21289 -12.7051 -23.5908 -12.1768 -28.0566 0.814453l-26.3203 76.5684c-7.03711 20.4688 -50.9385 36.8145 -74.1309 -1.94824c-0.427734 -1.27637 -3.55957 -10.7705 -20.4834 -63.8506c-3.67871 -11.5381 -19.0332 -14.1748 -26.3301 -4.37012
c-21.6494 29.0898 -21.6494 29.0898 -22.0312 29.4717c-0.142578 0.144531 -24.7256 24.6865 -38.6533 10.7588c-7.62695 -7.62695 -11.9404 -26.2461 -13.8408 -37.6641c0.0546875 -1.71191 0.394531 -11.8164 2.27051 -60.8242
c1.11621 -30.5186 2.47363 -95.7373 2.50195 -96.7041c8.92676 -63.6221 4.79785 -65.6084 9.43945 -99.6484c0.338867 -1.30957 2.91211 -11.2295 16.2803 -61.835c0.130859 -0.496094 1.35254 -28.8281 -2.52344 -35.417
c-9.5293 -16.1992 -10.1904 -17.3242 -16.4775 -18.7637c-24.8818 -5.70117 -32.7549 -0.689453 -41.168 10.9844c-4.32715 6.00488 -33.7607 35.5029 -36.7197 38.917l-61.6787 71.1689c-1.66797 1.10254 -10.2266 6.70996 -35.9775 23.0215
c-1.50488 0.456055 -8.71289 2.60938 -30.4775 8.70312c-6.08496 -3.33887 -13.3389 -1.32617 -18.8428 -6.82812c-3.99219 -3.99316 -8.59766 -17.3682 -7.13281 -24.9424l34.0283 -45.7646c6.55566 -6.14453 41.3906 -36.5098 43.0977 -38.5723
c50.8496 -61.4932 50.8496 -61.4932 51.0947 -61.8252c36.9551 -50.0674 36.9551 -50.0674 37.2324 -50.502c33.3223 -52.3662 33.3223 -52.3662 33.7939 -53.458l25.7363 -59.6611c7.11035 -11.0225 34.5977 -52.4951 35.333 -53.8936
c11.5801 -22.0029 11.5801 -22.0029 12.0166 -23.832c8.61719 -36.1084 69.6426 -37.9062 70.4424 -37.9209l66.751 -1.19141zM761.09 -24.3662h-44.9717c-202.319 -8.40332 -202.319 -8.40332 -202.769 -8.39551l-67.2305 1.20117
c-10.6748 0.200195 -83.5498 3.6084 -98.5498 58.9717l-9.55078 18.1455c-34.9512 53.0215 -34.3574 51.2656 -36.4717 56.168l-25.458 59.0156l-31.7695 49.9238l-36.0977 48.9053l-49.5713 59.9482c-42.585 37.7158 -42.585 37.7158 -44.4561 40.2314l-34.7998 46.7998
c-12.415 16.6953 -3.74805 49.2744 10.4404 63.4629c8.31836 8.31934 16.1631 10.8604 27.793 13.001c6.43359 2.87598 13.6738 3.37402 20.3867 1.49512c31.6611 -8.86523 32.3496 -8.39746 37.9141 -11.9219c33.9746 -21.5176 36.5518 -22.3301 41.418 -27.1953
c0.567383 -0.568359 -0.729492 -1.75488 63.0986 -72.7188c33.2559 -36.9746 34.5537 -35.7881 39.3291 -42.2598c0.789062 0.0712891 1.87207 0.205078 3.23926 0.427734l1.60742 2.73242l0.717773 17.9326c-15.998 60.5342 -15.8203 58.8613 -16.3623 62.8135
c-4.99902 36.3965 -0.602539 36.916 -9.58594 100.697c-0.137695 0.981445 -1.93457 78.8662 -2.67188 99.0303c-2.39941 62.6641 -2.97363 60.1943 -2.03809 65.9912c2.9209 18.0986 9.65137 59.8115 44.8936 67.2441c29.3018 6.18066 57.7051 -21.3281 61.6025 -26.5654
l4.36328 -5.86328c11.71 37.1543 11.334 36.9072 14.0791 41.5742c36.2705 61.6904 113.373 41.3779 128.634 -3.01465l12.876 -37.459c17.9629 60.3604 90.2148 51.373 113.205 7.85547c0.269531 -0.415039 25.8271 -40.1221 26.79 -41.6055
c25.2168 32.5928 89.0762 38.0889 109.449 -42.8135c0.323242 -1.29004 0.5625 -2.59766 0.713867 -3.91309c6.1416 -53.4473 1.01367 -129.88 -4.52148 -195.747l16.6553 -258.157c0.338867 -5.24609 -0.693359 -10.5645 -3.09668 -15.3701l-32.0957 -64.1914
c-0.922852 -3.57715 -2.00293 -7.15039 -3.42578 -11.7422c-3.99512 -12.8896 -8.21191 -20.3164 5.45898 -77.6465c4.49512 -18.8457 -9.78809 -36.9883 -29.1719 -36.9883zM239.968 50z" />
  </g>

</svg>
