<?xml version="1.0" standalone="no"?>
<!DOCTYPE svg PUBLIC "-//W3C//DTD SVG 1.1//EN" "http://www.w3.org/Graphics/SVG/1.1/DTD/svg11.dtd" >
<svg xmlns="http://www.w3.org/2000/svg" xmlns:xlink="http://www.w3.org/1999/xlink" version="1.1" viewBox="-10 0 1084 1000">
  <g transform="matrix(1 0 0 -1 0 800)">
   <path fill="currentColor"
d="M945.724 316.856c5.0957 0 9.33008 -4.21484 9.33008 -9.43848v-40.457l31.8447 -37.0781c-32.124 1.78223 -32.124 1.78223 -32.6846 1.8623l0.84082 -71.4287c0 -5.16406 -4.24316 -9.38379 -9.4707 -9.38379l-183.209 0.739258
c-5.20508 0 -9.43359 4.23438 -9.43359 9.43457v147.051c0 5.2207 4.24707 9.43457 9.46973 9.43457c0 0 37.666 -0.151367 46.9248 -0.189453l34.3535 31.082c2.65625 -20.9199 2.65625 -20.9199 3.35156 -33.7783zM931.445 174.74l1.7168 55.4482
c-2.41406 -0.371094 -4.82812 -0.743164 -7.24219 -1.11426l-26.7373 3.5459l32.1016 35.2061v25.3379l-83.1504 1.06836c-0.325195 -10.0967 -0.325195 -10.0967 -1.45996 -32.2227l-37.5137 31.6348l-32.4482 0.138672v-118.378zM657.375 204.99
c0 -53.4893 19.1807 -103.709 56.6641 -141.312c31.1094 -30.9863 90.8467 -55.665 134.761 -55.665c9.97559 0 23.2646 1.5918 39.999 4.75098c91.1982 17.2119 165.209 106.269 165.209 199.289c0 16.5479 -3.7041 41.9707 -8.4248 57.8486
c-10.3857 36.7031 -46.1074 91.2529 -48.8623 95.2822c-12.7861 20.1885 -16.0557 25.3799 -21.4717 34.8174c-32.4375 57.0625 -64.9268 114.073 -97.333 171.168c-8.99805 20.3701 -12.7539 24.1025 -19.7607 27.1748c-7.60156 0 -10.085 -0.0634766 -14.3027 -4.28027
c-2.60449 -2.60547 -2.75488 -2.97363 -7.35352 -11.584c-2.7002 -5.05566 -64.4531 -117.53 -95.9854 -168.301c-6.03613 -9.71875 -36.9912 -59.6953 -56.1025 -98.165c-18.1162 -36.5527 -27.0361 -74.5488 -27.0361 -111.024zM849.412 34.209
c-35.623 0 -89.0791 20.2939 -117.817 49.0312c-31.6582 31.6582 -47.9834 74.5371 -47.9834 120.883c0 32.4648 8.01074 66.6299 24.375 99.8301c14.4961 29.1865 31.9307 58.0596 48.8477 86.0586c15.1279 24.583 15.0645 24.4727 89.1084 153.702
c0.151367 0.285156 0.151367 0.285156 7.78809 15.1328l98.5381 -171.092c4.11035 -7.08203 7.81934 -13.3438 22.2734 -35.9502c13.0381 -19.084 31.0469 -51.6689 40.2549 -72.7334c0.151367 -0.379883 0.320312 -0.743164 0.479492 -1.11523v-0.0957031
c9.27832 -23.7471 12.7803 -51.3477 12.7803 -66.6504c0 -81.0469 -64.8604 -158.949 -144.753 -173.506c-17.3623 -3.16406 -29.3076 -3.49512 -33.8916 -3.49512zM135 128l-112.167 102.104l24.0176 21.7891l80.2305 -73.6943l143.151 181.324l29.5771 -19.3203z
M34.3545 -40.4795h55.5146l17.1611 52.2256l17.1602 -52.2256h55.5156l-44.8672 -32.2959l17.1611 -52.2246l-44.9697 32.2959l-44.9707 -32.2959l17.1611 52.2246zM484.093 13.9404c-20.5381 0 -20.5381 0 -136.093 1.05957l0.151367 0.8125h-8.11328l7.20801 440.752
l-159.727 87.7773v25.335l150.287 -85.7822c8.39453 -0.0214844 17.1768 0.00488281 26.5781 0.0556641l-103.534 194.746h29.4092l103.435 -194.552l4.33105 0.0302734l1.66406 266.905h33.7822l-1.66309 -266.731c3.29297 0 6.58594 0.00390625 9.87793 0.00390625
l112.005 212.647h29.4004l-110.924 -210.594l137.677 55.3389v-25.8076c-37.3447 -16.5117 -74.6387 -33.0732 -112.015 -49.5527l-20.6533 -4.91699l3.61523 -120.419l29.7002 17.2676l6.4873 -42.1641l-34.8037 -21.1846l8.57227 -285.53
c-2.21875 1.50098 -4.43652 3.00195 -6.65527 4.50293zM451.223 46.0625l-10.3242 413.001h-5.33398l6.19434 -413.001h9.46387zM393.853 47.0615v413.174l-6.15918 0.723633l-2.06445 -414.734z" />
  </g>

</svg>
