<?xml version="1.0" standalone="no"?>
<!DOCTYPE svg PUBLIC "-//W3C//DTD SVG 1.1//EN" "http://www.w3.org/Graphics/SVG/1.1/DTD/svg11.dtd" >
<svg xmlns="http://www.w3.org/2000/svg" xmlns:xlink="http://www.w3.org/1999/xlink" version="1.1" viewBox="-10 0 1154 1000">
  <g transform="matrix(1 0 0 -1 0 800)">
   <path fill="currentColor"
d="M405.671 276.705c3.55176 0 3.55176 0 23.3291 2.29492c-12.2598 -12.9766 -12.2598 -12.9766 -12.75 -13.4668c-9.04688 -9.04785 -20.5703 -14.082 -29.0449 -14.082c-7.54883 0 -7.54883 0 -41.0137 12.3809c29.501 8.99805 42.2012 12.873 59.4795 12.873z
M219.206 253.957c-2.84668 0 -7.78418 0 -11.2646 4.05664c-3.55957 4.14941 -3.55957 4.14941 -18.3135 17.7031h64.2354l43.8203 1.45508l-38.5527 -13.498c-14.2871 -5.00195 -29.4355 -9.7168 -39.9248 -9.7168zM388.059 334.85
c7.04395 0 20.8926 -2.17285 31.2871 -15.4629l11.709 -14.9727c-23.7822 6.63086 -23.7822 6.63086 -31.833 6.63086c-17.1943 0 -30.8857 -4.98828 -82.2217 -24.7363c30.7949 1.58984 10.1064 17.0811 10.1064 18.1309c0 0.283203 -0.145508 0.359375 -0.145508 0.591797
c-0.394531 0.552734 -0.394531 0.552734 -8.00684 10.9326l11.7549 0.454102c1.87598 0.0722656 14.3545 4.11914 23.8789 8.92871c12.2285 6.17285 23.2891 9.50293 33.4707 9.50293zM561.74 290.105zM557.99 286.373zM185.014 309.326
c14.2109 12.457 14.2109 12.457 17.4219 15.46c5.35449 5.00488 11.0312 9.90332 26.5146 9.90332c22.0723 0 34.418 -11.4863 42.1338 -15.6406l20.7109 -11.1504l-30.0488 1.42773h-76.7324zM321.795 246.898c0 -0.0683594 7.13867 -4.28711 7.11719 -4.35254
l-0.115234 0.831055s-7.29297 3.92773 -7.00195 3.52148zM329.206 242.747c6.9541 -4.35254 25.0742 -19.1904 37.6914 -23.3291c3.29199 -1.08203 20.249 -5.83008 28.9951 -5.83008c28.249 0 62.6816 21.1182 71.4043 57.3516l1.15039 4.77734h41.709
c18.5586 0 36.0469 0.628906 40.5898 1.35352l0.279297 0.0136719c2.97461 1.47266 9.15039 11.9473 9.15039 17.8701c0 3.23535 -4.94531 9.33984 -11.4951 17.1553h-71.3857l-12.1367 0.952148v0c-15.5498 29.583 -46.2969 55.6943 -77.4316 55.6943
c-6.8125 0 -13.5576 -1.03223 -20.0742 -3.22852c-13.2207 -4.45703 -61.0312 -28.5117 -69.3574 -33.6289l17.5635 7.66211s0.00683594 -0.0517578 -0.0361328 -0.0986328c-1.19531 -1.31445 -33.3906 -3.50293 -1.58789 -17.2334
c-14.9453 16.7324 -19.1572 21.4482 -25.3535 26.0156c-19.0088 14.0176 -39.7324 20.8652 -59.2178 20.8652c-47.8271 0 -68.2412 -39.8604 -68.5732 -40.585c-2.71973 -5.95117 -5.43945 -11.9014 -8.15918 -17.8525
c-7.30273 0.339844 -11.4375 0.533203 -18.5732 0.533203c-19.7637 0 -34.4414 -1.90039 -54.5918 -1.90039c-0.341797 0 -0.685547 0.000976562 -1.03125 0.000976562c-6.03516 -7.78027 -6.03516 -7.81738 -6.03516 -11.8623
c0 -6.36328 3.35352 -13.5977 4.42285 -15.7422l-0.62793 0.648438c0.208984 -0.21582 0.417969 -0.431641 0.62793 -0.648438c1.07129 -1.09961 1.07129 -1.09961 5.96582 -5.98438h76.4746c-0.607422 -7.13965 -0.607422 -7.13965 -0.607422 -7.51758
c0 -5.57812 6.41992 -18.5518 16.4941 -28.626c17.0684 -17.0693 40.1719 -22.2275 50.9473 -22.2275c14.1201 0 31.9531 6.73047 73.1914 26.0889c10.5391 4.94727 12.4297 5.80762 37.1777 16.4365c-34.3516 -2.87305 -17.3486 -10.998 -7.55957 -17.124zM83.0879 275.717
c0.442383 -0.441406 1.12695 -1.12598 1.8457 -1.85352l-4.44336 1.85352h2.59766zM78.7344 309.306c-0.895508 0 -1.80273 0.00878906 -2.7207 0.0205078l4.60742 2.39453c-0.681641 -0.869141 -1.31055 -1.67188 -1.88672 -2.41504zM477.295 312.109h-6.25z
M548.681 312.109c-0.602539 0.71875 -1.22656 1.46094 -1.87207 2.22852l4.78516 -2.22852h-2.91309zM692.593 -46.3711l323.141 -1.3877v139.959l-29.7334 -33.2002l-16 21l45 50l0.733398 72.9951l-195.929 0.84082l33.1865 -27.0791l-14.9912 -16.7568l-60 45
l-85.4072 -0.617188v-250.754zM1044 -61c0.128906 -6.49707 -5.29297 -11.8711 -11.915 -11.8711h-353.215c-6.4668 0 -11.8467 5.26855 -11.8701 11.8711l-1 280c-0.178711 6.46191 5.28418 11.8711 11.9141 11.8711c-0.0136719 0 91.2842 0.176758 103.086 0.128906l52 52
l17.1836 -17.748l-33.1836 -34.252l211.176 1.87109c6.4502 0.0576172 11.6143 -5.35742 11.8242 -11.8711l3 -93l49 -50l-17.4688 -20.2627l-33.5312 32.2627zM63.2949 -48.4795h55.5146l17.1611 52.2256l17.1602 -52.2256h55.5156l-44.8672 -32.2959l17.1611 -52.2246
l-44.9697 32.2959l-44.9707 -32.2959l17.1611 52.2246zM326.801 522.337c-0.606445 0 -1.74902 -0.0195312 -2.4209 -0.0195312c-19.6055 0 -47.6309 6.38184 -64.166 14.6895c-17.9717 9.12793 -32.5723 28.8027 -32.5723 47.6719v137.151
c0 2.94238 2.77441 4.86035 4.86035 4.86035h8.52148c2.94238 0 4.86035 -2.77441 4.86035 -4.86035v-137.087c0 -29.9473 39.5 -46.1992 80.877 -46.1992c41.3555 0 80.875 16.1416 80.875 46.1348v137.151c0 2.94238 2.77344 4.86035 4.85938 4.86035h8.52344
c2.94141 0 4.86035 -2.77441 4.86035 -4.86035v-137.087c0 -44.3828 -53.5752 -62.4062 -99.0781 -62.4062z" />
  </g>

</svg>
