<?xml version="1.0" standalone="no"?>
<!DOCTYPE svg PUBLIC "-//W3C//DTD SVG 1.1//EN" "http://www.w3.org/Graphics/SVG/1.1/DTD/svg11.dtd" >
<svg xmlns="http://www.w3.org/2000/svg" xmlns:xlink="http://www.w3.org/1999/xlink" version="1.1" viewBox="-10 0 1003 1000">
  <g transform="matrix(1 0 0 -1 0 800)">
   <path fill="currentColor"
d="M233.068 428.363c39.7793 0 80.5996 22.0742 93.0312 66.0371l1.66113 5.87207l25.3818 -7.10645c-3.81543 -13.7188 -9.52734 -34.2588 -29.9863 -54.7178c-23.7363 -23.7363 -57.2285 -35.9053 -90.4629 -35.9053c-31.6074 0 -62.9805 11.0059 -85.5078 33.5332
c-20.9766 20.9775 -26.4033 43.0879 -29.9209 57.416l25.4727 5.8584c3.27441 -12.6094 7.53223 -29.0039 23.4971 -44.9697c17.4385 -17.4375 42.0205 -26.0176 66.834 -26.0176zM24.8936 502.318c0 95.5918 94.5186 173.54 211.106 173.54
c116.598 0 211.107 -77.8184 211.107 -173.404c0 -95.5918 -94.5186 -173.54 -211.107 -173.54c-116.597 0 -211.106 77.8184 -211.106 173.404zM50.752 502.454c0 -81.4785 83.4033 -147.682 185.248 -147.682c101.839 0 185.249 66.0645 185.249 147.546
c0 81.4785 -83.4043 147.682 -185.249 147.682c-101.838 0 -185.248 -66.0645 -185.248 -147.546zM283.857 567.461c0 10.29 7.34961 18.6201 16.6592 18.6201c9.31055 0 16.6602 -8.33008 16.6602 -18.6201s-7.34961 -18.6201 -16.6602 -18.6201
c-9.30957 0 -16.6592 8.33008 -16.6592 18.6201zM165.277 568.44c0 9.80078 7.34961 17.6406 16.6602 17.6406c9.30957 0 16.6602 -7.83984 16.6602 -17.6406c0 -9.7998 -7.35059 -17.6396 -16.6602 -17.6396c-9.31055 0 -16.6602 7.83984 -16.6602 17.6396z
M650.232 669.743c0 5.1543 -0.0966797 8.97852 -0.0966797 9.06836c0.100586 1.95605 0.603516 3.64258 0.782227 3.82422c0 0.15918 0 0.15918 30.626 0.834961c-0.0283203 -4.47461 -0.0458984 -9.09277 -0.0458984 -13.8467
c0 -119.546 11.0146 -324.606 131.887 -483.381c16.6182 -21.8291 50.7305 -70.0371 79.9922 -108.154l-25.0469 -19.8291c-22.123 26.2559 -33.1689 56.4883 -63.2139 90.458c-53.1465 60.0869 -105.004 154.947 -112.223 238.508l-2.66406 30.8398l-7.96777 -29.9092
c-18.4834 -69.3848 -57.1016 -86.4062 -85.502 -98.8701c-18.9814 -8.33105 -34.2344 -15.0234 -34.2344 -34.4629c0 -16.5713 3.87012 -29.2861 92.9697 -136.705c2.5293 -3.04883 4.62988 -5.58398 6.13965 -7.41992l-13.4609 -16.3174
c-18.4336 27.5146 -112.021 89.0664 -112.021 153.217c0 58.6357 75.6292 65.9638 121.644 157.021c1.20312 2.38086 5.58789 6.44629 5.58789 31.3115c0 49.8467 -14.0098 149.867 -14.0098 200.878c0 11.7656 0.857422 15.2471 0.857422 32.9346zM650.134 678.895
c0 -0.0175781 0.00195313 -0.0458984 0.00195313 -0.0830078c0.00195312 0.0449219 -0.00195313 0.0830078 -0.00195313 0.0830078zM681.544 683.471zM893.377 78.0889l4.19531 3.32129l-0.93457 -7.55762c-1.10059 1.42578 -2.1875 2.83887 -3.26074 4.23633z
M868.33 58.2598c1.08496 -1.28906 2.19727 -2.56738 3.33984 -3.83789l-7.38965 0.630859zM661.635 110.698zM649.356 642.512z" />
  </g>

</svg>
