<?xml version="1.0" standalone="no"?>
<!DOCTYPE svg PUBLIC "-//W3C//DTD SVG 1.1//EN" "http://www.w3.org/Graphics/SVG/1.1/DTD/svg11.dtd" >
<svg xmlns="http://www.w3.org/2000/svg" xmlns:xlink="http://www.w3.org/1999/xlink" version="1.1" viewBox="-10 0 1051 1000">
  <g transform="matrix(1 0 0 -1 0 800)">
   <path fill="currentColor"
d="M828.399 483.872c0 9.49878 0.360099 25.4826 0.360099 28.905l-0.318652 61.3747l-8.69455 54.78l-24.0577 41.7601l-29.8355 19.1251l-33.9409 8.02542l-47.9505 1.85133v0.765382l-107.704 8.96128l-161.614 -4.8437l-135.511 -48.0118l4.97421 -24.8711
l90.1513 34.2037l168.519 13.9909l163.859 -8.05849l72.0585 -32.0852l24.6852 -76.5829c-11.2968 -92.7231 -11.5388 -94.7093 -10.6225 -98.1968c0.272553 -1.03738 0.408327 -1.98777 0.495372 -2.92219c0.487753 -0.641757 1.13403 -1.58506 1.4862 -2.05622
l30.4464 -40.7334l38.0432 -60.0682l23.93 -33.502l-96.7113 -80.2498l-3.19974 -219.288c0.962733 -7.56244 2.78458 -22.0112 5.01798 -45.877c-0.12894 -0.269919 -9.65147 -20.9678 -12.8349 -27.02c-1.80565 -3.43278 -3.36365 -6.39475 -8.94453 -11.1259
c-28.726 -6.87192 -37.6748 -9.01268 -53.7943 -9.01268c-3.38415 0 -6.77838 0.14333 -10.1737 0.446144l-127.95 -3.2205l-189.706 31.9736l-119.91 72.0259l-21.8729 31.5454c-0.18608 0.126152 -14.9542 10.3475 -18.5829 12.6523v-31.4635
c5.41685 -3.87145 13.5068 -7.36272 24.4398 -17.2503c7.32645 -6.62591 2.09556 -4.45645 10.6241 -11.9264c1.03002 -0.902171 1.03002 -0.902171 17.2005 -21.8062l70.2643 -41.1391l123.979 -35.7692l40.8353 -3.74581
c52.8258 -4.90757 59.0669 -6.73248 83.0467 -7.42728l68.08 -1.97257l89.7606 0.254271l51.1066 12.4914l15.1376 25.2075l6.27671 34.16l-0.268638 82.9487l0.0291888 84.2282l-0.00582149 87.5189l84.7837 67.8016l7.68593 8.96692l1.11464 7.19504
c0.44913 7.61262 -1.52476 12.8022 -3.31214 18.1783l-23.3304 38.8443l-33.0243 43.448l-34.3179 48.9016c-0.202711 16.1296 -0.202711 16.1296 -0.202711 17.6951zM33.2949 712.521h55.5146l17.1611 52.2256l17.1602 -52.2256h55.5156l-44.8672 -32.2959
l17.1611 -52.2246l-44.9697 32.2959l-44.9707 -32.2959l17.1611 52.2246zM407.562 502.857l-0.84082 15.96l234.641 1.12012l-0.466797 -17.0801h-233.333zM408.762 432.857l-1.40039 18.2627l234.639 -1.12012l0.09375 -17.1426h-233.332zM511.819 145.65
c-10.9941 7.16699 -24.5996 16.0293 -30.2344 19.6943c-5.63477 3.66602 -12.1006 7.9209 -14.3691 9.45508l-4.12402 2.79102l-11.4023 34.3076l-11.4023 34.3057l3.79297 37.8389c2.08594 20.8096 4.01855 38.2012 4.29492 38.6484
c0.274414 0.445312 15.0088 7.96875 32.7412 16.7168l32.2432 15.9082l8.3877 0.886719c4.61426 0.488281 14.001 1.48828 20.8623 2.22559c25.6387 2.75195 19.877 3.81738 46.7686 -8.64844l23.6074 -10.9443l18.04 -28.8184
c9.92188 -15.8496 -3.13379 -48.2764 -3.13379 -49.2266s42.333 -32.3682 36 -52.7998c-6.33203 -20.4336 -20.9307 -45.4512 -23.2002 -52.7998c-2.26953 -7.34961 -20.0547 -5.63672 -20.7998 -7.2002c-1.0459 -2.19727 -1.04395 -1.14746 -34.4004 3.2002
c-10.1533 1.32324 -20.9463 -4.13281 -24.6221 -5.85938c-12.8691 -6.04883 -27.7617 -12.7109 -28.4072 -12.7109c-0.358398 0 -9.64746 5.86328 -20.6426 13.0293zM94.7256 261.195l-7.58887 5.13965l139.72 206.287l7.58789 -5.14062zM168 198l-7.58789 5.14062
l139.719 206.287l7.58887 -5.1416z" />
  </g>

</svg>
