<?xml version="1.0" standalone="no"?>
<!DOCTYPE svg PUBLIC "-//W3C//DTD SVG 1.1//EN" "http://www.w3.org/Graphics/SVG/1.1/DTD/svg11.dtd" >
<svg xmlns="http://www.w3.org/2000/svg" xmlns:xlink="http://www.w3.org/1999/xlink" version="1.1" viewBox="-10 0 1127 1000">
  <g transform="matrix(1 0 0 -1 0 800)">
   <path fill="currentColor"
d="M665.192 324.618c5.91211 0 16.5811 0 34.5449 -13.1875c15.9912 -11.7393 15.9365 -15.541 19.5215 -15.541c0.213867 0 0.450195 0.00292969 0.719727 0.00292969c2.43652 0 3.76074 1.32422 4.55566 2.11914c10.1738 10.1738 25.9365 26.623 50.541 26.623
c12.1172 0 29.8301 -8.29297 34.3936 -13.7734c6.4082 -7.69434 12.0518 -22.0195 12.0518 -31.6123c0 -8.4209 0 -26.3105 -25.4287 -51.8018l-76.0752 -73.2188c-76.7139 73.999 -76.7139 73.999 -77.1045 74.3896c-6.68945 6.69043 -23.0674 23.0684 -24.1426 50.333
c5.95117 20.4648 8.5957 29.5615 13.998 33.7822c8.15332 6.37207 22.7031 11.8848 32.4248 11.8848zM664.692 343.694c-18.8193 0 -39.1055 -10.4307 -47.3262 -18.6514c-7.00293 -7.00195 -17.9404 -28.4287 -17.9404 -45.6709
c0 -1.00098 0.0302734 -2.22559 0.0810547 -3.29785l0.0126953 -0.274414v-0.275391c0.0996094 -30.9336 24.8535 -56.9346 31.0605 -62.2461l77.1367 -74.6992c3.26172 -3.15723 7.47363 -5.01465 12.1328 -5.01465c6.36621 0 9.76758 2.98145 12.3691 5.26172
c0.819336 0.717773 58.7061 56.2061 78.2754 75.7754c29.0283 29.0283 30.0322 52.7139 30.0322 64.5137v0.166016c0 17.3428 -9.28418 37.0195 -18.9658 46.7002c-7.11523 7.11621 -29.2725 17.9697 -46.5605 18.0186
c-23.9863 -0.483398 -31.79 -5.73145 -55.3418 -23.2266c-17.1357 12.7168 -30.8848 22.9209 -54.9658 22.9209zM665.192 324.618c5.91211 0 16.5811 0 34.5449 -13.1875c15.9912 -11.7393 15.9365 -15.541 19.5215 -15.541
c0.213867 0 0.450195 0.00292969 0.719727 0.00292969c2.43652 0 3.76074 1.32422 4.55566 2.11914c10.1738 10.1738 25.9365 26.623 50.541 26.623c12.1172 0 29.8301 -8.29297 34.3936 -13.7734c6.4082 -7.69434 12.0518 -22.0195 12.0518 -31.6123
c0 -8.4209 0 -26.3105 -25.4287 -51.8018l-76.0752 -73.2188c-76.7139 73.999 -76.7139 73.999 -77.1045 74.3896c-6.68945 6.69043 -23.0674 23.0684 -24.1426 50.333c5.95117 20.4648 8.5957 29.5615 13.998 33.7822c8.15332 6.37207 22.7031 11.8848 32.4248 11.8848z
M664.692 343.694c-18.8193 0 -39.1055 -10.4307 -47.3262 -18.6514c-7.00293 -7.00195 -17.9404 -28.4287 -17.9404 -45.6709c0 -1.00098 0.0302734 -2.22559 0.0810547 -3.29785l0.0126953 -0.274414v-0.275391c0.0996094 -30.9336 24.8535 -56.9346 31.0605 -62.2461
l77.1367 -74.6992c3.26172 -3.15723 7.47363 -5.01465 12.1328 -5.01465c6.36621 0 9.76758 2.98145 12.3691 5.26172c0.819336 0.717773 58.7061 56.2061 78.2754 75.7754c29.0283 29.0283 30.0322 52.7139 30.0322 64.5137v0.166016
c0 17.3428 -9.28418 37.0195 -18.9658 46.7002c-7.11523 7.11621 -29.2725 17.9697 -46.5605 18.0186c-23.9863 -0.483398 -31.79 -5.73145 -55.3418 -23.2266c-17.1357 12.7168 -30.8848 22.9209 -54.9658 22.9209zM62.2314 688.457h282.431v-121.525h-282.431v-17.293
l303.769 0.361328l-2.73828 155.404l-301.03 0.331055v-17.2783zM939.657 577.104c0 -77.3496 54.4707 -138.56 79.5 -153.42l8.95996 -5.32031c-13.5547 -0.381836 0.951172 0.720703 -27.6592 -2.85938l-0.860352 1.09082
c-17.6055 22.3398 -75.1992 88.0088 -85.5225 165.787c-0.526367 3.96094 0.0175781 7.83789 0.464844 14.6221c-1.10645 0.567383 -2.30859 1.19043 -3.61719 1.87305c-0.0234375 -1.47168 -0.258789 -3.05273 -0.0361328 -4.71094
c26.7031 -199.729 78.0361 -173.394 78.0361 -173.394s5.53027 -3.43164 8.22363 -5.26855h-26.2891c-35.3164 12.9023 -81.3574 120.936 -81.3574 177.864c0 6.98828 0.242188 12.251 0.62793 16.5479c-48.5312 25.8691 -144.943 51.7607 -227.908 51.7607
c-18.4414 0 -36.418 -1.63867 -58.7148 -4.94141c-25.8594 -3.83203 -25.8594 -3.83203 -56.4922 -16.9609c-15.1328 -6.48438 -40.1719 -37.9248 -46.5332 -53.375c-5.62207 -13.6523 -7.26367 -24.2139 -7.26367 -36.7119c0 -17.8662 2.90332 -35.501 2.90332 -61.7246
c0 -7.19336 0.916992 -11.085 0.916992 -16.1533c0 -3.65625 -0.490234 -7.7168 -2.18555 -13.2822c-15.959 -52.3838 -32.2539 -69.6387 -51.0654 -88.1465c-5.00781 -4.92773 -21.6406 -21.2939 -21.6406 -30.2305c0 -3.56445 0.706055 -5.52637 30.6758 -15.5625
c44.7354 -14.9814 48.0205 -19.5283 48.0205 -72.7812c0 -34.4092 2.16602 -88.0098 2.16602 -121.385c0 -4.40039 0.0654297 -9.10938 0.213867 -14.2139c0.402344 -13.833 13.1611 -36.2715 19.1182 -46.0273c0.957031 -0.243164 1.56836 -0.945312 1.56836 -0.945312
c0.922852 -0.53418 1.9873 -1.28125 3.30762 -2.19531c12.8398 -8.89355 17.6035 -10.5479 32.6738 -10.5479c19.2285 0 17.877 3.37207 63.249 3.37207c0.253906 0 5.55664 -0.00390625 5.61328 -0.00390625c11.8389 0 20.5342 0.181641 41.6816 3.04102
c16.1621 2.18555 31.0615 3.69238 45.207 5.12305c96.751 9.78711 161.368 19.3184 224.143 64.1562c1.78711 1.27734 4.11426 3.08301 6.76562 5.14258c10.0879 7.83691 26.4238 21.5195 38.5127 21.5195c6.53418 0 11.0674 -3.96777 11.0674 -11.332
c0 -12.3574 -13.9268 -34.2793 -26.4746 -34.2793c-0.931641 0 -1.25293 0.104492 -2.41406 0.104492c-18.1143 0 -35.4883 -29.2217 -63.582 -41.0322c-42.3086 -17.7871 -110.638 -21.7021 -140.367 -26.9678c-13.8037 -2.44531 -29.3203 -5.19434 -49.5039 -9.79199
c-27.7803 -6.32715 -41.3047 -6.88867 -69.4033 -6.88867c-0.202148 0 -18.2314 0.0253906 -20.0654 0.0253906c-9.04883 0 -26.0938 -0.0986328 -26.3574 -0.0986328c-32.6221 0 -66.0039 2.29297 -96.7285 19.8496c-20.876 11.9297 -22.3271 28.8828 -24.0361 48.8467
c-0.381836 4.47266 -0.78125 9.12012 -1.40625 13.9131c-1.57129 12.5723 -2.10938 23.7695 -2.10938 34.3135c0 22.9258 -3.41895 80.5303 -3.41895 105.127c0 37.1426 -3.67871 39.2002 -23.8027 47.0518c-21.8555 8.52637 -45.7725 10.6055 -56.668 21.501
c-3.46387 3.46387 -5.33203 7.75098 -5.33203 12.8867c0 3.83691 1.04297 8.14844 3.24219 12.9414c29.1953 63.6777 54.9092 56.0596 73.0967 111.809c4.16211 12.7559 5.54883 25.8027 5.54883 38.9443c0 26.0508 -5.42285 52.1289 -5.42285 76.6494
c0 38.1201 13.793 54.707 28.041 68.9551c52.9941 52.9932 114.939 53.084 191.121 53.084h0.791016c66.252 0 152.107 -18.6768 196.816 -39.8779c34.8438 -16.5225 17.4805 -12.5684 25.9648 -13.4727c9.11914 -0.973633 31.2002 -10.3994 38.0039 -24.3242
c3.45312 -7.06738 -3.29883 -17.334 -3.60352 -23.6758c-0.206055 -4.29199 1.59961 -11.4746 1.59961 -16z" />
  </g>

</svg>
