<?xml version="1.0" standalone="no"?>
<!DOCTYPE svg PUBLIC "-//W3C//DTD SVG 1.1//EN" "http://www.w3.org/Graphics/SVG/1.1/DTD/svg11.dtd" >
<svg xmlns="http://www.w3.org/2000/svg" xmlns:xlink="http://www.w3.org/1999/xlink" version="1.1" viewBox="-10 0 1030 1000">
  <g transform="matrix(1 0 0 -1 0 800)">
   <path fill="currentColor"
d="M352.886 504.678l-17.3232 -19.3574c-36.4453 37.0449 -72.4531 73.4209 -107.917 108.967l-108.967 -108.966l-18.6787 18.6787l108.976 108.976c-36.5127 36.4941 -72.4258 72.0703 -107.622 106.554l17.3252 19.3564l108.103 -108.104l107.425 107.426
l18.6797 -18.6797l-107.425 -107.426zM864.996 583.729c0 -20.6559 -13.6753 -34.3847 -20.0325 -40.5032l-54.4652 -52.4209c-1.44937 -1.39497 -3.32336 -2.09231 -5.19729 -2.09231c-1.8772 0 -3.75434 0.699787 -5.20448 2.09908l-55.899 53.9374
c-3.11647 3.11647 -18.3633 19.2979 -18.3633 37.5923c0 0.300493 3.73669 22.1747 11.5742 27.7308c6.70785 4.75534 16.1538 8.45324 24.0246 8.45324c18.0185 0 32.6548 -14.3771 37.2212 -18.9434c3.59983 -3.59882 3.99341 -4.03708 6.60794 -4.03708
c2.57191 0 3.89803 1.32619 4.76893 2.19712c8.11258 8.11258 20.3515 20.796 39.3082 20.796c9.12111 0 22.9373 -5.99857 26.9189 -11.1739c4.8492 -6.30297 8.7378 -15.6701 8.7378 -23.6352zM707.123 677.327c-0.0122474 0.38012 -0.987452 30.988 -0.987452 38.0189
c0 4.8484 0.0827903 9.26061 0.102982 10.3394c0 0.0666913 0.00291916 0.121268 0.00291916 0.157277c0 0.126264 -0.00552252 0.246572 -0.00552252 0.361l-27.6965 0.610631c0.0164036 -3.6593 0.0259144 -7.40487 0.0259144 -11.233
c0 -135.55 -11.6892 -374.905 -152.976 -560.497c-11.8975 -15.6274 -23.0822 -31.0636 -35.2837 -47.9053c-19.3578 -26.7181 -34.0327 -46.8494 -54.4484 -73.5314l22.3565 -17.699c25.2115 30.624 38.039 60.2414 69.9565 100.776
c52.726 66.9601 111.411 171.825 127.492 265.212c4.01336 23.2773 4.01336 23.2773 5.43744 24.8772c1.4806 1.66349 3.53802 2.51176 5.60436 2.51176c3.35462 0 6.25689 -2.21822 7.18509 -5.36707l6.0745 -20.6073c59.4208 -201.581 134.155 -282.49 205.823 -360.079
l7.47999 -8.12093l13.716 9.14402c-36.4085 34.284 -190.374 200.305 -209.412 383.353c-4.29339 5.19871 -6.56308 14.2228 -6.56308 40.1192c0 27.2517 4.83252 81.6835 5.72567 83.6423c1.25738 2.75762 3.98162 4.38741 6.829 4.38741
c1.01387 0 3.27335 -0.23578 5.2087 -2.11009l65.6403 -63.57c3.11241 -3.01426 6.96394 -4.44185 10.7517 -4.44185c5.73395 0 8.4891 2.49974 11.017 4.71437c0.0818981 0.0717483 46.2277 44.2355 62.5424 60.5501c18.6183 18.6183 24.5189 36.4589 24.5189 51.5931
c0 19.0801 -9.71547 33.7074 -15.666 39.6579c-6.00106 6.00106 -23.9267 14.811 -38.3165 14.8405c-17.9707 -0.365735 -24.8527 -4.22144 -39.9133 -14.9244c-1.29297 -0.918856 -2.81372 -1.37867 -4.33477 -1.37867c-6.20865 0 -18.8923 16.1207 -43.6475 16.1207
c-15.8291 0 -23.2591 -6.25624 -28.2569 -6.25624c-4.08691 0 -7.49715 3.32001 -7.49715 7.51004c0 0.392545 1.51448 22.7427 1.51448 39.2253z" />
  </g>

</svg>
