<?xml version="1.0" standalone="no"?>
<!DOCTYPE svg PUBLIC "-//W3C//DTD SVG 1.1//EN" "http://www.w3.org/Graphics/SVG/1.1/DTD/svg11.dtd" >
<svg xmlns="http://www.w3.org/2000/svg" xmlns:xlink="http://www.w3.org/1999/xlink" version="1.1" viewBox="-10 0 1008 1000">
  <g transform="matrix(1 0 0 -1 0 800)">
   <path fill="currentColor"
d="M348.481 97.6934l-82.2217 148.848l24.0225 10.1475l58.4395 -100.383l53.3027 101.418l27.2285 -11.0254zM265.568 -67.707v34.6641h38.626v22.0713h-38.626v34.6641h38.626v33.7148h31.3828v-33.7148h23.2197v31.2539h31.3828v-31.2539h41.292v-34.6641h-41.292
v-22.0713h41.292v-34.6641h-41.292v-36.1855h-31.3828v36.1855h-23.2197v-33.7246h-31.3828v33.7246h-38.626zM335.577 -33.043h23.2197v22.0713h-23.2197v-22.0713zM780.659 223.904c-0.529297 0 -0.985352 0.173828 -1.32227 0.358398l-214.094 -88.2627v-37.8242
c12.126 5.10742 24.251 10.2148 36.376 15.3213v-3.77051l-0.21875 -161.659h318.305l0.646484 155.446c10.9619 -6.48535 21.9238 -12.9697 32.8867 -19.4551l-0.677734 40.7051l-136.33 79.1182l1.46387 0.616211c-22.6963 11.7715 -24.457 12.7314 -36.2109 19.5508
c-0.288086 -0.102539 -0.56543 -0.144531 -0.824219 -0.144531zM884.594 -16.7148h-248.003l-0.665039 144.662l142.009 59.8174l107.859 -63.8086zM63.3545 -23.4795h55.5146l17.1611 52.2256l17.1602 -52.2256h55.5156l-44.8672 -32.2959l17.1611 -52.2246
l-44.9697 32.2959l-44.9707 -32.2959l17.1611 52.2246zM629.039 505.34zM628.837 502.956zM876.494 542.349c0 -37.1914 -21.6338 -85.6934 -48.4941 -110.349c-56.6113 -52.1074 -115.242 -52.1074 -229.117 -52.1074v21.6641c32.0234 0 59.4238 1.21484 83.4541 1.21484
c-11.04 2.74316 -25.5635 8.87109 -39.0059 22.3125c-25.6084 25.6084 -25.3057 57.8711 -17.1729 79.3223c-0.604492 2.46875 4.06348 9.41504 5.15918 12.208c1.06934 2.72461 2.39355 4.08789 4.29199 5.80273c1.16992 1.05566 1.16992 1.05566 1.87695 2.23535
c1.6875 2.81055 4.41602 5.54395 7.82422 8.95117c2.61523 2.61523 14.7344 11.4082 24.0508 14.3203c6.89648 2.15527 7.85449 3.41504 12.3945 3.9502c2.07324 0.243164 3.25684 0.508789 4.5459 0.797852c2.25977 0.504883 37.8799 7.91992 67.5605 -21.7607
c14.5957 -14.5967 21.9795 -32.3066 21.9795 -52.7734c0 -12.626 -3.09961 -36.0039 -23.0723 -55.5762c-6.13086 -5.93359 -12.8008 -10.6709 -19.9834 -14.2012c31.1582 6.10254 56.2383 17.6787 80.3174 39.6387c21.7783 19.9609 41.9238 62.9668 41.5078 96.0049
c-0.287109 29.9111 -19.3359 72.4883 -42.5918 92.9326c-50.4893 44.9346 -106.566 44.9346 -210.221 44.9346v21.665c104.316 0 167.436 0 224.643 -50.3506c25.6172 -22.4746 50.0527 -69.7734 50.0527 -110.837zM698.588 425.755
c20.3525 0 32.0225 9.71289 38.3789 16.0684c13.3301 13.3301 15.1895 27.2471 15.1895 36.5273c-0.0449219 13.1836 -4.42383 25.7012 -15.8457 36.793c-19.2979 18.9883 -43.8965 17.5049 -58.6992 11.0518l-16.5566 -10.8965l-12.8135 -18.9434l0.0390625 0.105469
c-0.0126953 -0.0351562 -0.0263672 -0.0703125 -0.0390625 -0.105469c-2.55566 -6.99707 -9.9541 -33.1631 12.375 -55.1943c10.4531 -10.3135 22.9805 -15.4062 37.9717 -15.4062zM350.739 458.681l-118.928 215.294l13.7275 5.79883l106.392 -182.753l96.9541 184.47
l18.5586 -7.51562z" />
  </g>

</svg>
