<?xml version="1.0" standalone="no"?>
<!DOCTYPE svg PUBLIC "-//W3C//DTD SVG 1.1//EN" "http://www.w3.org/Graphics/SVG/1.1/DTD/svg11.dtd" >
<svg xmlns="http://www.w3.org/2000/svg" xmlns:xlink="http://www.w3.org/1999/xlink" version="1.1" viewBox="-10 0 1117 1000">
  <g transform="matrix(1 0 0 -1 0 800)">
   <path fill="currentColor"
d="M271.09 343.096c2.30566 -40.9512 -16.207 -159.178 -7.80566 -172.028c0.398438 -0.236328 1.54883 -1.05273 1.70117 -2.68555c9.51074 -102.256 91.5938 -200.178 123.424 -232.007c6.70117 -6.70215 11.0479 -10.0645 11.0479 -10.0645l-3.37793 -0.820312
l-0.987305 -2.25977l5.43652 -3.03418l-21.168 -14.1123c-1.40332 -0.935547 -3.33105 -0.746094 -4.52051 0.550781c-2.82324 3.0791 -5.66797 6.16016 -8.53223 9.25977c-43.7578 47.3721 -91.6582 99.3936 -129.308 222.105
c-12.501 -58.9092 -48.2246 -121.499 -80.6025 -162.62c-19.2275 -24.418 -35.4746 -55.6689 -48.6621 -68.8555c-1.26758 -1.26953 -3.27051 -1.35938 -4.64453 -0.272461c-14.2832 11.3076 -24.2754 19.2031 -24.4961 19.4238
c-1.25781 1.25781 -1.35742 3.23828 -0.299805 4.61035c20.2568 26.2588 51.4463 69.7812 60.4668 81.6299c90.9932 119.526 94.9707 276.994 94.2578 360.804c-0.0166016 1.97559 1.60156 3.57227 3.57715 3.5293l25.6377 -0.566406
c2.30078 -0.0488281 8.69727 -1.05957 8.50293 -10.7861c-0.0419922 -2.10254 -0.228516 -11.4756 0.352539 -21.8008zM659.269 363.536l-26.0463 -26.8613l108.346 -106.411l171.693 220.393l-29.8021 20.6951l-143.576 -181.863zM690.65 587.689l-56.556 -53.3373
l18.5961 -23.085l58.3659 55.3024l62.2047 -51.243l23.15 19.5318l-62.5986 53.4044l58.7143 59.296l-23.6052 18.7928l-57.9653 -55.4453l-56.2183 55.8976l-20.3291 -20.6101zM497.451 125.149v-314.496h521.996v314.496h-521.996zM863.118 -64.3457h36.6621v152.833
h83.4849l-0.461081 -241.172h-448.69v241.172h78.3379v-152.833h36.6611v152.833h88.6719v-152.833h36.6621v152.833h88.6709v-152.833zM497.451 125.149v-314.496h521.996v314.496h-521.996zM863.118 -64.3457h36.6621v152.833h83.4849l-0.461081 -241.172h-448.69v241.172
h78.3379v-152.833h36.6611v152.833h88.6719v-152.833h36.6621v152.833h88.6709v-152.833zM497.451 125.149v-314.496h521.996v314.496h-521.996zM863.118 -64.3457h36.6621v152.833h83.4849l-0.461081 -241.172h-448.69v241.172h78.3379v-152.833h36.6611v152.833h88.6719
v-152.833h36.6621v152.833h88.6709v-152.833z" />
  </g>

</svg>
