<?xml version="1.0" standalone="no"?>
<!DOCTYPE svg PUBLIC "-//W3C//DTD SVG 1.1//EN" "http://www.w3.org/Graphics/SVG/1.1/DTD/svg11.dtd" >
<svg xmlns="http://www.w3.org/2000/svg" xmlns:xlink="http://www.w3.org/1999/xlink" version="1.1" viewBox="-10 0 1127 1000">
  <g transform="matrix(1 0 0 -1 0 800)">
   <path fill="currentColor"
d="M1159.84 276zM659.443 739.873c26.2183 26.2183 70.0033 24.8126 98.1291 -3.31313c44.9878 -44.9878 47.0606 -140.063 106.428 -140.063c31.74 0 41.1762 21.2163 55.231 70.4679c7.69151 26.953 18.7536 65.7173 41.4393 88.403
c13.9427 13.9427 49.3748 22.274 62.177 9.47174c6.58918 -6.58918 5.2197 -16.2348 2.11498 -21.8521c-32.6391 -60.3432 -45.281 -128.924 -87.026 -170.669c-18.073 -18.073 -41.7157 -30.5279 -72.6698 -33.7523c-82.5116 -8.34387 -86.4269 110.064 -127.366 151.003
c-8.93143 8.93143 -18.8329 13.9331 -32.9005 13.9331c-62.6154 0 -60.7998 -117.319 -121 -150.502l6 -448l119.494 133.085l42.5063 -31.0846l-172 -176l-176 170l38.1533 24.8391l113.847 -120.839l-8 446c-41.3066 25.2412 -68.4313 94.1858 -97.0736 122.828
c-8.27577 8.27577 -17.1666 12.51 -30.2201 11.6942c-59.8145 -3.36036 -62.2867 -101.878 -105.906 -145.497c-13.5469 -13.5469 -31.9643 -21.795 -55.0654 -19.4589c-76.6274 7.74015 -103.779 67.0499 -131.808 128.276
c-12.6399 27.6105 -24.0256 52.1283 -39.5073 75.4916c-6.60729 11.0121 -1.79329 28.22 24.0307 25.6882c15.5893 -1.52837 21.5785 -6.36648 26.1725 -10.9605c24.6218 -24.6218 38.0203 -55.7175 50.1247 -83.2122c21.4069 -48.6252 35.5531 -75.3162 74.9695 -74.3548
c77.1185 1.733 53.8938 163.549 152.677 167.989c76.2403 3.67423 81.7134 -103.296 118.858 -140.441c8.49723 -8.49723 17.7447 -13.0427 31.2931 -12.553c56.3583 2.03705 50.0698 100.556 92.8981 143.384z" />
  </g>

</svg>
