<?xml version="1.0" standalone="no"?>
<!DOCTYPE svg PUBLIC "-//W3C//DTD SVG 1.1//EN" "http://www.w3.org/Graphics/SVG/1.1/DTD/svg11.dtd" >
<svg xmlns="http://www.w3.org/2000/svg" xmlns:xlink="http://www.w3.org/1999/xlink" version="1.1" viewBox="-10 0 1050 1000">
  <g transform="matrix(1 0 0 -1 0 800)">
   <path fill="currentColor"
d="M738 617l105.207 -91.4688l-93.8193 -87.2314l-23.5566 24.916l52.1689 45.7842l-418.984 -3.38574l-1.83105 34.8369l421.054 0.489258l-62.3086 50.9746zM580.2 589.267l-79.4268 143.787l29.2109 12.3398l50.2051 -86.2383l45.8174 87.1758l32.2529 -13.0605z
M231 366.5c0 27.7354 -6.54297 77.5 -53.5 77.5c-25.5127 0 -51.2178 -0.447266 -67.4453 -59.0986c-21.7959 -78.7803 48.0742 -151.938 87.8037 -121.089c-1.22461 -5.6543 -1.8584 -11.4346 -1.8584 -17.3125c0 -20.6523 7.82617 -40.1055 21.5908 -57.0801
l-23.7969 -184.42h25.0244l21.0254 162.945c15.3887 -11.8545 34.1924 -21.6514 55.373 -28.6875l18.9629 -148.258h25.0244l-18.0742 141.306c16.5566 -3.44824 34.1445 -5.30566 52.3701 -5.30566c25.0439 0 48.8848 3.50781 70.5 9.8291v-147.829h27v157.681
c15.5234 6.89648 29.3496 15.3877 40.96 25.125l41.3457 -179.806h27.041l-43.4863 207.766c9.10156 14.3652 14.1396 30.1641 14.1396 46.7344c0 65.8428 -79.542 119.5 -177.5 119.5c-62.6426 0 -117.756 -21.9434 -149.352 -54.9844
c4.33887 15.9795 6.85156 34.7891 6.85156 55.4844z" />
  </g>

</svg>
