<?xml version="1.0" standalone="no"?>
<!DOCTYPE svg PUBLIC "-//W3C//DTD SVG 1.1//EN" "http://www.w3.org/Graphics/SVG/1.1/DTD/svg11.dtd" >
<svg xmlns="http://www.w3.org/2000/svg" xmlns:xlink="http://www.w3.org/1999/xlink" version="1.1" viewBox="-10 0 1014 1000">
  <g transform="matrix(1 0 0 -1 0 800)">
   <path fill="currentColor"
d="M298.969 552.587c24.2969 -0.520508 49.415 -13.5664 60.0312 -34.5869c9.05664 -17.9316 12.374 -55.7891 6.19629 -70.7041c-2.42578 -5.85742 -14.5576 -19.4785 -30.9258 -35.8066c-0.182617 2.41895 -1.43066 5.23535 -4.14258 8.0752l-1.64941 1.72754
c-2.12988 2.04297 -4.40918 3.92871 -6.38965 6.12109c-1.83496 1.79883 -3.79297 3.46777 -5.4668 5.41699c-1.91992 2.26855 -3.83203 4.58008 -6.24609 6.35059c-1.80664 1.56934 -3.54883 3.1875 -5.21484 4.91113
c-0.861328 0.953125 -1.74023 1.88965 -2.65527 2.78418c18.627 18.3799 8.61328 27.624 -32.5225 30.0352c-31.1182 1.82129 -52.5273 7.49805 -57.415 15.2178c-4.72656 7.46191 -3.22559 23.791 2.65723 28.8779c3.05273 2.64355 12.6787 6.54297 21.3848 8.66504
c8.70703 2.11914 16.5625 4.88574 17.457 6.14355c0.898438 1.25781 7.06934 5.43945 13.7158 9.28906c9.26758 5.36816 20.1416 7.71875 31.1855 7.48242zM290.236 437.418c1.37012 -0.996094 2.4873 -2.27148 3.62207 -3.53027
c2.06641 -2.1748 4.25293 -4.20605 6.50586 -6.18262c1.83789 -1.27637 3.20605 -3.02344 4.63477 -4.71289c1.92773 -2.34473 4.25195 -4.30176 6.40527 -6.42969c2.02051 -2.24023 4.35156 -4.16406 6.52441 -6.25293
c0.383789 -0.408203 0.767578 -0.817383 1.15039 -1.22461c2.77832 -2.95898 5.61426 -4.35254 8.0752 -4.60059c-13.7695 -13.3984 -29.7383 -28.0352 -45.3555 -41.585c-1.2168 2.0957 -2.42871 4.19336 -3.55957 6.33984
c-2.08398 3.29785 -4.2041 6.58008 -6.45508 9.76367c-1.99512 2.69043 -4.1543 5.25391 -6.17383 7.92871c-1.7334 2.15137 -3.42578 4.38672 -4.63672 6.87402c-1.41113 2.25098 -2.89844 4.62695 -4.8584 6.42969c-1.33008 1.79785 -1.8457 4.11328 -2.97656 6.03613
c-0.90625 2.15625 -1.92285 4.2627 -3.24023 6.18164c15.4219 9.02734 30.3936 18.2646 40.3379 24.9648zM236.61 404.803c1.08496 -1.29883 1.81738 -2.75488 2.45215 -4.34277c1.31738 -2.82227 2.55664 -5.67285 4.16699 -8.3418
c1.56836 -2.0752 3.46582 -3.91895 4.72559 -6.21484c1.52344 -3.0166 3.63281 -5.7627 5.71387 -8.42188c1.85449 -2.55176 3.99219 -4.89355 5.81836 -7.46191c2.04102 -2.9043 3.98047 -5.8877 5.86719 -8.89648c1.44727 -2.82031 3.09863 -5.52344 4.66895 -8.27539
c-13.3984 -11.251 -26.0576 -21.2354 -36.1602 -28.1855c-1.15039 -0.791016 -2.33594 -1.66895 -3.53516 -2.58496c-0.290039 0.333984 -0.600586 0.667969 -0.932617 1.00195c-1.90039 1.9082 -3.8877 3.77539 -6.20703 5.1709
c-1.28223 0.660156 -1.71875 1.08105 -2.7832 2.5791c-1.625 1.59668 -3.34473 3.07715 -5.21484 4.37402c-1.9375 1.88867 -3.50684 3.90918 -4.67676 6.4043c-1.62891 2.54785 -3.05176 5.12207 -4.19531 7.94141c-1.22559 2.29395 -2.5459 4.53906 -3.57031 6.93359
c-0.974609 2.02734 -1.77832 4.05371 -2.13477 6.30078c-0.65625 2.54883 -1.05859 5.18359 -2.1875 7.59082c-0.986328 2.7998 -2.36328 5.36426 -3.88184 7.90625c-0.443359 0.757812 -0.898438 1.50781 -1.3584 2.25391c5.63965 3.65918 10.5537 6.67188 13.3086 8.04004
c8.43066 4.1875 19.0605 9.95898 30.1162 16.2285zM180.525 372.036c0.295898 -0.481445 0.592773 -0.962891 0.878906 -1.45117c0.888672 -1.7041 2.03906 -3.24316 2.59766 -5.09668c0.958008 -2.02246 1.30762 -4.22363 1.83203 -6.37695
c0.608398 -3.23242 1.76758 -6.25879 3.18262 -9.21484c1.11621 -2.58301 2.54297 -5.01074 3.85547 -7.49512c1.2793 -3.18359 2.96582 -6.10449 4.80762 -8.99023c1.73145 -3.47852 4.11523 -6.41699 6.87988 -9.1123c1.57715 -1.53223 3.55371 -2.55273 5.03027 -4.19043
c1.46875 -2.21875 3.75195 -3.72363 6.01953 -5.06641c1.00781 -0.764648 2.01074 -1.62793 2.86914 -2.58203c0.115234 -0.12793 0.231445 -0.248047 0.34668 -0.370117c-7.51074 -7.16504 -14.5449 -15.1416 -18.9258 -21.5117
c-0.913086 2.89941 -4.01562 5.63477 -9.5957 6.59082c-1.76172 0.302734 -3.50098 0.708984 -5.15527 1.4043c-3.06641 1.23438 -6.18066 2.32812 -9.27539 3.48145c-2.22754 0.570312 -3.78809 2.76758 -5.88477 3.67676
c-3.45508 2.22266 -7.08398 4.23047 -11.1162 5.18652c-3.51367 0.910156 -7.04785 1.72168 -10.6006 2.46387c-2.79199 0.712891 -5.58105 1.62402 -8.2002 2.82227c-2.00195 1.00391 -3.70312 2.55566 -5.69141 3.60059
c-0.457031 0.240234 -0.907227 0.458008 -1.35352 0.657227c0.591797 1.22266 1.13379 2.37695 1.79199 3.69531c10.2129 20.4404 14.4912 25.3125 36.0742 41.0439c3.12402 2.27734 6.39062 4.58496 9.63281 6.83496zM805.319 316.513v0
c2.40332 -0.304688 8.91406 -5.49707 15.6738 -12.6514c10.875 -11.5117 14.0283 -17.2402 13.958 -25.3701c-0.112305 -13.2832 -9.20508 -30.9355 -22.5566 -44.792c-0.317383 0.610352 -0.682617 1.23242 -1.10352 1.86523
c-1.19336 1.79492 -0.547852 0.794922 -1.91406 3.01758c-2.05176 3.09961 -4.28906 6.05566 -6.38867 9.11523c-2.05762 3.15039 -3.94727 6.41602 -6.19824 9.43945c19.2773 14.0361 20.8955 19.3447 12.5088 39.5869c-3.92578 9.46875 -6.0625 18.2959 -4.74707 19.6113
c0.165039 0.164062 0.424805 0.220703 0.767578 0.177734zM450.376 313.518h-0.000976562c7.71582 -0.154297 14.1484 -1.44238 18.9639 -3.93555c10.8125 -5.5957 23.1436 -13.7676 35.3633 -23.1885c-1.87793 -0.96875 -3.75586 -2.73535 -5.37305 -5.47559
c-0.776367 -1.31445 -1.79688 -2.41895 -2.94922 -3.42188c-2.93164 -2.74414 -5.8584 -5.48535 -8.46484 -8.55078c-3.2002 -3.2666 -6.97559 -5.86035 -10.5898 -8.6416c-3.88086 -3.12793 -7.74121 -6.28613 -11.377 -9.7002
c-2.50684 -2.38379 -4.74219 -5.02734 -7.33203 -7.31641c-3.3584 -2.96875 -4.88867 -6.0498 -5.07617 -8.66406c-1.30762 0.777344 -2.54395 1.47363 -3.58008 1.96875c-6.55762 3.12598 -9.82617 4.06738 -17.6211 2.47559
c0.149414 0.84375 0.246094 1.75098 0.280273 2.72461c0.0244141 0.678711 0.0478516 1.35645 0.0712891 2.03613c0.194336 4.80566 0.458984 9.60645 0.754883 14.4062c0.170898 5.55078 -0.0917969 11.1055 -0.283203 16.6533
c-0.299805 5.81543 -0.680664 11.6523 -1.82129 17.375c-0.901367 4.08691 -1.80078 8.22559 -3.33398 12.124c-1.16699 2.33008 -2.56543 4.45508 -4.28906 6.26855c9.94434 2.03906 18.9424 3.01758 26.6582 2.8623zM127.014 306.49
c1.85742 -1.23926 3.71875 -2.47656 5.65234 -3.59082c3.69043 -1.89453 7.7002 -3.14844 11.6943 -4.23535c3.5791 -0.772461 7.15039 -1.57129 10.6943 -2.48828c2.39453 -0.582031 4.56348 -1.80664 6.58691 -3.18262
c2.71582 -1.76172 5.28906 -3.57422 8.24414 -4.93945c3.18457 -1.23047 6.41016 -2.33203 9.57812 -3.60645c2.62207 -1.0918 5.37598 -1.75977 8.16016 -2.26953c3.29297 -0.602539 5.9873 -0.323242 8.02539 0.50293
c-0.0380859 -0.131836 -0.0947266 -0.279297 -0.124023 -0.405273c-1.58691 -6.74609 1.95996 -15.665 8.05273 -22.873c-0.745117 -0.310547 -1.50977 -0.681641 -2.29688 -1.13672c-0.612305 -0.353516 -1.22461 -0.707031 -1.83789 -1.06152
c-3.69043 -2.21289 -7.47168 -4.27734 -11.1904 -6.44238c-3.06445 -1.69824 -6.23633 -3.19141 -9.3877 -4.7168c-3.9668 -1.7998 -7.88965 -3.68848 -11.8125 -5.58008c-3.50977 -1.55664 -7.0332 -3.06738 -10.4531 -4.81641
c-3.4668 -1.77051 -7.0625 -3.33789 -10.7031 -4.70801c-4.23438 -1.35449 -8.51367 -2.59375 -12.5791 -4.42188c-1.31152 -0.588867 -2.44141 -1.24805 -3.40234 -1.9541c-2.74609 4.24902 -4.89648 8.46289 -6.21484 12.458
c-2.30664 6.9873 -3.11621 21.4756 -2.1084 37.6514c0.879883 14.0811 2.11719 22.498 5.42188 31.8164zM406.964 306.46v0c1.13574 -1.92676 2.91309 -3.93457 5.41309 -5.83594c0.889648 -0.676758 1.46777 -1.77344 1.8916 -2.80859
c0.841797 -2.89551 1.55859 -5.84473 2.19336 -8.79883c0.935547 -4.91406 1.23828 -9.92188 1.49121 -14.9092c0.130859 -5.11426 0.472656 -10.2373 0.273438 -15.3535c-0.303711 -4.7666 -0.558594 -9.53809 -0.751953 -14.3105
c-0.0244141 -0.706055 -0.0498047 -1.41113 -0.0742188 -2.11621c-0.0996094 -2.81836 0.351562 -5.12891 1.15527 -6.92285c-0.899414 -0.265625 -1.6377 -0.475586 -2.6123 -0.765625c-12.9033 -3.84473 -28.498 -10.4111 -34.6543 -14.5947
c-2.41602 -1.6416 -4.76758 -3.08594 -6.92188 -4.33301c0.0273438 1.67773 -0.287109 3.59277 -1.04492 5.71387c-0.5625 1.57324 -0.271484 0.673828 -0.818359 2.71094c-0.967773 3.55469 -1.33105 7.2207 -2.32227 10.7754
c-1.04785 3.41895 -2.37598 6.73242 -3.55176 10.1074c-1.25 3.17871 -2.38086 6.39062 -3.58203 9.58594c-0.941406 2.94922 -1.37402 6.0293 -2.04102 9.04785c-0.882812 4.03516 -1.68652 8.17676 -3.58496 11.877c-1.95117 3.29102 -4.3252 6.1748 -7.42773 8.30469
c3.5293 1.58301 7.07227 3.20117 10.6387 4.87109c16.3164 7.64062 31.9873 13.5771 46.3311 17.7549zM699.921 293.646v0c8.86523 -2.91406 21.3057 -10.7197 35.126 -22.2109c3.06152 -2.54492 5.84277 -4.79883 8.50098 -6.91211
c-0.370117 -0.625 -0.724609 -1.30469 -1.05566 -2.04688c-1.46484 -3.27637 -3.34961 -6.33789 -5.00977 -9.51562c-1.56055 -2.75488 -2.96777 -5.58984 -4.54297 -8.33594c-1.30078 -2.45898 -2.64453 -4.89648 -4.35156 -7.09766
c-2.13184 -2.64453 -4.46484 -5.10938 -6.7334 -7.63477c-11.7129 6.1377 -20.5391 10.1416 -26.5254 11.9463c0.0185547 0.556641 0.0419922 1.11328 0.0654297 1.66895c0.239258 5.34766 0.544922 10.7002 1.25293 16.0098
c0.791992 4.80078 2.1748 9.4502 3.12988 14.2148c0.791992 4.69629 1.15039 9.44336 1.09668 14.209c-0.131836 2.19629 -0.431641 4.01758 -0.953125 5.70508zM683.53 292.133h-0.000976563c0.629883 -1.2373 2.43262 -2.97852 2.49023 -4.25684
c0.00683594 -0.169922 -0.24707 0.513672 -0.342773 0.374023c-0.166992 -0.250977 -0.0136719 -0.606445 -0.0205078 -0.910156c-0.0273438 -3.68652 -0.219727 -7.36719 -0.881836 -10.9971c-1.05469 -4.77344 -2.3252 -9.47949 -3.14648 -14.3076
c-0.830078 -5.91406 -1.17871 -11.8818 -1.44727 -17.8447c-0.0673828 -1.49414 -0.111328 -2.99121 -0.147461 -4.4873c-4.9834 -2.62695 -11.3359 -6.57031 -17.9111 -11.0488c-2.48242 3.87988 -5.09961 7.66309 -8.05762 11.2129
c-2.94141 4.34863 -5.91699 8.67383 -8.83789 13.0371c-2.73242 4.13086 -5.39648 8.30566 -7.93555 12.5586c-0.59082 0.902344 -1.12695 1.83496 -1.63184 2.78418c0.30957 0.164062 0.608398 0.314453 0.918945 0.478516c23.834 12.6484 38.2432 19.8623 46.9521 23.4072
zM514.597 278.452v0c6.79883 -5.66797 13.4414 -11.6064 19.5869 -17.666c5.57324 -5.49414 9.84277 -9.48828 13.4639 -12.5498c-1.62891 -1.29492 -3.26367 -2.58203 -4.90723 -3.85938c-4.09473 -3.07715 -8.06836 -6.32812 -11.8623 -9.76953
c-3.08008 -2.53418 -5.62109 -5.61328 -8.32227 -8.52246c-2.38184 -2.71094 -4.68555 -5.48633 -6.97559 -8.27539c-1.78027 -2.05566 -4.19922 -3.42383 -6.46094 -4.88867c-2.65723 -1.89453 -1.33691 -0.936523 -3.96484 -2.87793
c-1.23242 -0.911133 -2.22949 -1.85742 -3.04297 -2.81055c-0.498047 0.0732422 -1.02246 0.110352 -1.57129 0.108398c-1.85547 -0.00976562 -3.99805 -0.470703 -6.36328 -1.53027c-0.874023 -0.390625 -1.75586 -0.760742 -2.63965 -1.125
c-5.61133 4.30859 -11.4121 9.14844 -17.5605 14.7061c-3.31543 2.99414 -7.31348 6.15918 -11.2383 9.03516c1.75098 0.532227 3.65527 1.54883 5.62695 3.16113c2.9248 2.39453 5.2793 5.36719 8.03418 7.93945c3.34961 3.14062 6.90918 6.04004 10.4814 8.91895
c4.125 3.03223 8.1748 6.13574 11.8145 9.74219c2.49707 2.92871 5.27734 5.56152 8.08398 8.18164c2.09473 1.80078 3.77246 3.95215 5.30664 6.22852c1.4043 2.08203 2.19727 4.06055 2.51074 5.85352zM334.544 277.135v0
c1.11035 -1.97168 3.13672 -3.91992 6.25195 -5.51074c1.62207 -0.828125 2.59766 -2.08594 3.41016 -3.65723c0.858398 -2.43848 1.37402 -5.02246 1.92188 -7.55469c0.69043 -3.45312 1.34863 -6.9082 2.36328 -10.2832c1.31641 -3.56641 2.5752 -7.14355 3.9668 -10.6826
c0.943359 -2.98828 2.28516 -5.84473 3.12305 -8.86523c0.794922 -3.4707 1.2959 -6.97266 2.2207 -10.415c0.626953 -2.33789 0.265625 -1.11816 1.10449 -3.64941c0.84082 -2.5332 1.99609 -4.45801 3.29785 -5.83594
c-4.52734 -1.77832 -11.2881 -4.71289 -18.6943 -8.2002c-11.6318 -5.47559 -26.8613 -11.1729 -33.8457 -12.6631c-1.47168 -0.314453 -2.78418 -0.571289 -4.21777 -0.87207c0.00976563 0.161133 0.0175781 0.323242 0.0224609 0.487305
c0.0810547 2.34766 -0.0927734 4.68555 -0.291992 7.02246c-0.402344 4.72168 -2.17969 7.82812 -4.3877 9.4043c-0.498047 1.82227 -0.988281 3.64648 -1.53711 5.45703c-0.857422 2.18945 -1.95898 4.27246 -2.62305 6.53516
c-1.05371 3.23926 -1.80371 6.58594 -3.28906 9.67871c-1.32617 3.29492 -1.96777 6.76562 -2.44922 10.2764c-0.630859 3.76172 -1.00391 7.58398 -2.31641 11.1973c-0.754883 2.39355 -1.62695 4.81152 -2.10742 7.22559
c-0.201172 1.01562 -0.459961 1.94824 -0.763672 2.80664c15.6455 4.9668 31.9932 11.0283 48.8408 18.0986zM622.115 261.296v0c0.734375 -1.37305 1.51758 -2.71973 2.34766 -4.03613c2.5752 -4.32227 5.28711 -8.56055 8.0625 -12.7578
c2.94824 -4.40625 5.95508 -8.77246 8.92383 -13.1641c3.04395 -3.67773 5.73438 -7.58301 8.28613 -11.5947c-5.50684 -4.17871 -10.6699 -8.38672 -14.6875 -12.1436c-6.2002 -5.79883 -13.5391 -11.04 -21.3506 -15.4805
c-1.04004 2.37793 -2.1748 4.71094 -3.79102 6.77051c-0.750977 0.945312 -1.55469 1.84766 -2.34961 2.75781c0.615234 0.431641 0.50293 0.4375 -0.123047 0.144531c-1.50391 1.71484 -3.04395 3.39941 -4.60742 5.05469
c-0.607422 0.577148 -1.19238 1.18066 -1.82324 1.73242c-1.30371 1.1416 -2.78027 1.72461 -3.61426 3.32715c-0.973633 1.87109 -2.04102 3.2959 -3.13867 4.3252c-0.139648 0.300781 -0.283203 0.598633 -0.422852 0.899414
c-1.47852 3.52148 -2.94922 7.04492 -4.54492 10.5146c-1.6875 3.6084 -3.80176 6.86914 -6.0918 10.1211c-1.27832 1.73242 -2.63184 3.39551 -4.04688 5.00977c10.7588 3.4873 25.8271 9.97461 42.9717 18.5195zM755.952 255.311v0
c11.6445 -7.74414 19.1621 -9.34766 27.6494 -6.03027c0.0166016 -0.0195312 0.0302734 -0.0361328 0.046875 -0.0556641c2.44824 -3.0625 4.42578 -6.42676 6.50781 -9.72852c2.11719 -3.14941 4.42676 -6.15332 6.52246 -9.32031
c1.16309 -1.91504 0.53125 -0.912109 1.90332 -3.00195c0.891602 -1.35645 1.83301 -2.46777 2.79688 -3.35742c-9.73242 -7.7168 -15.3389 -9.64844 -28.0801 -10.7051c-13.749 -1.1416 -18.3828 -0.424805 -37.5264 9.47461
c1.68945 1.8623 3.36816 3.73438 4.92676 5.70996c2.07715 2.75488 3.87793 5.69043 5.45508 8.76074c1.67285 2.92676 3.18262 5.93945 4.83887 8.87598c1.625 3.14062 3.49219 6.15625 4.95898 9.37793zM271.295 254.712v0
c0.0292969 -0.209961 0.0615234 -0.420898 0.0976562 -0.636719c0.550781 -3.26855 1.66406 -6.44434 2.64648 -9.61328c1.06445 -2.94336 1.32812 -6.06348 1.82715 -9.12891c0.575195 -4.57227 1.6416 -9.01758 3.2793 -13.3193
c1.32617 -2.78906 2.0498 -5.77832 2.94922 -8.71191c0.675781 -2.60449 2.0127 -4.95312 2.94531 -7.45801c0.776367 -3.16797 1.63867 -6.30664 2.62988 -9.41797c0.671875 -2.11133 1.57422 -3.76562 2.58301 -5.08594
c0.0166016 -0.633789 0.0175781 -1.26953 -0.0117188 -1.90723c-0.0585938 -1.28516 -0.000976563 -2.46094 0.155273 -3.52637c-30.0723 -5.82812 -51.2754 -8.27734 -71.3779 -8.3291c-0.0107422 0.0810547 -0.0185547 0.161133 -0.0302734 0.243164
c-0.274414 1.97266 -0.462891 3.9541 -0.612305 5.93848c2.10254 1.40723 3.97656 4.03809 4.95215 8.13965c0.412109 1.73047 0.833984 3.45996 1.3584 5.16016c0.995117 3.32227 1.7627 6.73047 3.2666 9.875c1.73145 3.59375 3.1416 7.30859 4.87891 10.8965
c1.85547 3.3877 3.44531 6.89258 4.71289 10.5449c0.985352 2.69141 2.53809 5.10352 4.19336 7.43066c1.71582 2.81445 4.09766 5.08105 6.1748 7.61914c1.87207 2.28711 2.96387 4.36816 3.43164 6.16895c1.16504 0.269531 2.1748 0.494141 3.45215 0.794922
c5.375 1.26758 10.9033 2.74805 16.498 4.32324zM214.489 250.275c1.00977 -0.561523 2.0332 -1.08398 3.07812 -1.52051c4.61719 -1.93066 7.93945 -2.89746 12.6143 -2.81348c-0.455078 -0.670898 -0.892578 -1.34277 -1.31348 -1.99609
c-2.28711 -3.08984 -4.07422 -6.47168 -5.50684 -10.0273c-1.04199 -3.03027 -2.32129 -5.94434 -3.87207 -8.74707c-1.96289 -3.78418 -3.40137 -7.78613 -5.25293 -11.6221c-1.91016 -3.84863 -2.91211 -8.0293 -4.13672 -12.1211
c-0.235352 -0.762695 -0.443359 -1.5332 -0.649414 -2.30371c-2.37793 -1.19043 -4.48047 -3.58496 -5.5 -7.46191c-0.580078 -2.2041 -1.10352 -4.38281 -0.919922 -6.68848c0.150391 -2.37207 0.333008 -4.74316 0.603516 -7.10449
c-12.3506 0.708008 -18.6172 2.9541 -31.46 9.37305v-0.00195312c-12.042 6.01758 -23.7979 15.2666 -32.8926 25.2676c0.0732422 0.0322266 0.145508 0.0605469 0.219727 0.09375c3.56445 1.58398 7.31543 2.64844 11.0225 3.82812
c4.42383 1.58105 8.7334 3.52051 12.9346 5.62207c3.18262 1.63379 6.46484 3.04199 9.73828 4.47852c3.97852 1.90234 7.94434 3.82422 11.9609 5.64648c3.5127 1.67676 7.01855 3.37207 10.4346 5.24023c3.88184 2.25 7.81445 4.41699 11.668 6.7168
c0.544922 0.314453 1.08984 0.629883 1.63574 0.944336c2.71582 1.56641 4.5293 3.37793 5.59375 5.19727zM561.851 240.166v0c0.181641 -0.03125 0.367188 -0.0410156 0.549805 -0.0673828c0.649414 -1.70605 1.77246 -3.5166 3.46387 -5.33887
c1.77832 -1.91406 3.50488 -3.86328 5.03516 -5.98535c0.99707 -1.93652 2.60449 -3.50781 3.6582 -5.40234c0.383789 -0.689453 0.59668 -1.46094 0.930664 -2.17676c1.51855 -3.28125 2.89844 -6.62109 4.29785 -9.95605
c1.84375 -4.02148 3.69434 -8.02441 5.83203 -11.8994c1.37793 -2.49902 2.97168 -4.23535 4.60059 -5.35156c-2.37988 -1.86914 -1.43262 -1.68652 0.96875 -0.578125c0.198242 -0.104492 0.395508 -0.225586 0.59375 -0.3125
c0.625977 -2.48926 1.18555 -4.99414 1.92969 -7.45117c0.258789 -0.855469 0.552734 -1.64355 0.875 -2.36621c-10.0264 -3.64844 -20.0156 -5.7627 -28.7803 -5.7627c-22.2324 0 -40.3584 4.89453 -59.9971 17.1582c2.39746 -0.0751953 5.29785 0.827148 8.40039 3.12305
c2.26562 1.67578 1.19434 0.892578 3.20996 2.35352c3.56836 2.32715 7.22461 4.63281 9.92969 7.99219c2.10449 2.56152 4.2207 5.1123 6.39844 7.6123c2.38965 2.60059 4.64648 5.34277 7.3877 7.59668c3.4834 3.19434 7.18652 6.15234 10.9541 9.00195
c2.97559 2.31445 5.93164 4.65332 8.85645 7.0293c0.319336 0.258789 0.617188 0.519531 0.905273 0.78125zM592.681 192.775c1.10449 -1.61133 1.47363 -1.60938 2.7959 -0.382812c-0.0166016 0.0205078 -0.0302734 0.0390625 -0.0488281 0.0576172
c-0.873047 -0.0830078 -1.80176 0.0332031 -2.74707 0.325195v0z" />
  </g>

</svg>
