<?xml version="1.0" standalone="no"?>
<!DOCTYPE svg PUBLIC "-//W3C//DTD SVG 1.1//EN" "http://www.w3.org/Graphics/SVG/1.1/DTD/svg11.dtd" >
<svg xmlns="http://www.w3.org/2000/svg" xmlns:xlink="http://www.w3.org/1999/xlink" version="1.1" viewBox="-10 0 1015 1000">
  <g transform="matrix(1 0 0 -1 0 800)">
   <path fill="currentColor"
d="M569.774 204.856zM609.601 388.112l0.0292969 -0.0351562c-0.00976562 0.0117188 -0.0292969 0.0351562 -0.0292969 0.0351562zM496.501 244.722l0.00878906 0.0566406c-0.00292969 -0.0185547 -0.00878906 -0.0380859 -0.00878906 -0.0566406zM506.468 221.778
l-0.192383 0.0595703c0.0634766 -0.0205078 0.12793 -0.0400391 0.192383 -0.0595703zM509.685 221.142l-0.0419922 0.00390625c0.00683594 0 0.0146484 -0.00390625 0.0419922 -0.00390625zM632.989 202.899c-64.7334 0.227539 -117.915 0.000976563 -117.926 0.000976563
c-7.29199 0.235352 -16.3389 0.527344 -24.1484 9.17871c-12.9502 14.3457 -10.6709 31.7637 -9.96875 35.6064c1.42676 7.81152 3.66211 15.6553 6.91406 28.7246c13.626 54.7578 15.2217 62.6162 21.4199 80.71c14.125 41.0654 31.2334 54.9307 46.332 61.0781
c9.24121 3.44922 39.2441 11.5908 64.0586 -16.123c12.7812 -15.0068 23.124 -35.3262 35.2881 -84.3389c4.30859 -17.9092 8.70898 -35.7842 13.21 -53.6631c1.14648 -4.77637 2.19922 -9.56934 3.16016 -14.4121c4.74023 -23.333 -8.79785 -46.8926 -30.5684 -46.6045z
M501.342 225.583c0.0126953 -0.0107422 0.0273438 -0.0214844 0.0273438 -0.0322266c3.98828 -4.33496 6.63574 -4.44922 13.8887 -4.76367c0 0 120.579 0.0527344 120.632 0.0527344c2.8252 -0.0400391 5.63867 0.125 8.44727 0.498047
c5.82324 0.726562 14.5547 10.4209 11.6377 24.251c-1.34961 6.79004 -1.34961 6.79004 -7.0791 29.8018c-14.2451 58.5039 -17.4902 71.834 -27.2119 93.1338c-1.78223 3.81836 -7.50098 15.2959 -15.2979 23.0928c-7.62988 7.62891 -16.251 11.6475 -26.2422 12.3389
c-12.4307 1.09863 -35.1748 -0.635742 -52.0146 -42.377c-6.59082 -16.6094 -10.6348 -31.2148 -15.0879 -48.958c-10.3828 -42.7422 -10.3828 -42.7422 -14.1436 -56.8486l0.00878906 0.0380859c-0.00292969 -0.0126953 -0.00878906 -0.0380859 -0.00878906 -0.0380859
c-2.96289 -12.1865 -5.16016 -21.2197 2.44434 -30.1895zM554.182 274.4c0 10.8037 9.67285 19.9434 22.3242 19.9434c12.6494 0 22.3242 -9.13965 22.3242 -19.9434c0 -10.8027 -9.6748 -19.9434 -22.3242 -19.9434c-12.6514 0 -22.3242 9.14062 -22.3242 19.9434z
M496.727 43.1143c-1.66309 0 -3.00098 1.35059 -3.00098 3l2.87695 82.835c-8.36621 10.0156 -16.9482 19.3906 -25.4004 28.6221c-37.2607 40.6963 -72.1309 78.8721 -72.2529 155.877c-0.100586 64.1748 23.2441 97.0049 36.3174 110.304
c41.3203 40.3916 95.8691 50.5459 124.219 50.5459c2.5791 0 5.84082 2.18555 9.2373 2.02637c83.7959 -3.94238 101.679 -10.5703 144.373 -47.7051c5.51172 -4.79395 7.11523 -8.70117 7.83105 -12.3916c0.128906 -0.666016 0.202148 -0.925781 0.228516 -1.00781
c19.5625 -22.5732 33.2891 -81.9004 34.3535 -99.1553c0.0722656 -1.16895 0.248047 -2.52832 0.450195 -4.06543c0.570312 -4.34473 1.32812 -10.0859 0.0634766 -17.3096c-17.4082 -99.4229 -64.7188 -128.035 -70.2832 -143.622
c-0.302734 -0.850586 -0.583008 -0.990234 -0.704102 -1.11133c-1.32617 -1.32617 -12.8213 -7.18652 -22.0547 -11.5293c-1.15918 -3.30273 -1.15918 -3.30273 -1.74707 -3.91309c-0.271484 -1.0459 -0.519531 -2.89648 -0.519531 -2.89648l-1.71387 -84.6172
c-0.0332031 -1.62598 -1.35352 -2.92871 -2.98047 -2.93848zM721.028 415.352l-0.198242 0.172852l-1.8125 -2.36914zM712.604 426.052l-1.98535 0.819336l-1.9873 -4.98145zM582.857 453.397c-48.1084 0 -79.4795 -8.49316 -119.481 -38.1514
c-10.5479 -10.5479 -39.9072 -42.2041 -40.0449 -97.124c-0.183594 -72.2959 31.3242 -106.332 48.249 -123.257c8.43262 -8.43262 8.43262 -8.43262 9.83008 -10.5195c2.76074 -4.125 2.76074 -4.125 20.6816 -23.5498c4.11426 -1.01172 10.4062 -3.60547 16.7861 -10.2383
c3.48926 -3.62695 2.08008 -17.0898 1.43555 -23.25l-0.574219 -70.0449l111.154 -0.570312l5.22754 85.9697c0.0498047 0.814453 0.425781 1.57227 1.05566 2.10645c3.69238 3.14746 3.78906 3.23047 5.70312 5.14453c1.88867 1.88867 7.37109 7.24219 12.1934 8.64551
c1.74707 0.507812 4.18359 5.33984 9.24805 9.125c24.2217 18.1074 60.0752 63.6865 64.5273 129.378c0.651367 9.61133 -0.833008 20.0957 -2.72949 31.3438c-4.0127 23.8037 -9.89258 57.6318 -27.9912 78.7207c-2.8125 2.31836 -3.66797 3.08887 -16.623 16.0439
c-23.1758 23.1758 -61.5498 30.2275 -98.6475 30.2275zM828.399 483.872c0 9.49878 0.360099 25.4826 0.360099 28.905l-0.318652 61.3747l-8.69455 54.78l-24.0577 41.7601l-29.8355 19.1251l-33.9409 8.02542l-47.9505 1.85133v0.765382l-107.704 8.96128
l-161.614 -4.8437l-135.511 -48.0118l4.97421 -24.8711l90.1513 34.2037l168.519 13.9909l163.859 -8.05849l72.0585 -32.0852l24.6852 -76.5829c-11.2968 -92.7231 -11.5388 -94.7093 -10.6225 -98.1968c0.272553 -1.03738 0.408327 -1.98777 0.495372 -2.92219
c0.487753 -0.641757 1.13403 -1.58506 1.4862 -2.05622l30.4464 -40.7334l38.0432 -60.0682l23.93 -33.502l-96.7113 -80.2498l-3.19974 -219.288c0.962733 -7.56244 2.78458 -22.0112 5.01798 -45.877c-0.12894 -0.269919 -9.65147 -20.9678 -12.8349 -27.02
c-1.80565 -3.43278 -3.36365 -6.39475 -8.94453 -11.1259c-28.726 -6.87192 -37.6748 -9.01268 -53.7943 -9.01268c-3.38415 0 -6.77838 0.14333 -10.1737 0.446144l-127.95 -3.2205l-189.706 31.9736l-119.91 72.0259l-21.8729 31.5454
c-0.18608 0.126152 -14.9542 10.3475 -18.5829 12.6523v-31.4635c5.41685 -3.87145 13.5068 -7.36272 24.4398 -17.2503c7.32645 -6.62591 2.09556 -4.45645 10.6241 -11.9264c1.03002 -0.902171 1.03002 -0.902171 17.2005 -21.8062l70.2643 -41.1391l123.979 -35.7692
l40.8353 -3.74581c52.8258 -4.90757 59.0669 -6.73248 83.0467 -7.42728l68.08 -1.97257l89.7606 0.254271l51.1066 12.4914l15.1376 25.2075l6.27671 34.16l-0.268638 82.9487l0.0291888 84.2282l-0.00582149 87.5189l84.7837 67.8016l7.68593 8.96692l1.11464 7.19504
c0.44913 7.61262 -1.52476 12.8022 -3.31214 18.1783l-23.3304 38.8443l-33.0243 43.448l-34.3179 48.9016c-0.202711 16.1296 -0.202711 16.1296 -0.202711 17.6951zM291.78 564.434c28.3291 0 42.0889 -30.1436 42.0889 -61.8408
c0 -32.3984 -13.3223 -55.4609 -38.8096 -91.3936c-16.6484 -23.3164 -20.6699 -30.251 -24.3535 -39.5664l61.9941 2.66602v-28.5146l-87.7002 -2.78418c-0.0371094 2.0166 -0.0410156 2.20117 -0.0410156 2.93262
c-0.995117 -0.171875 -2.01953 -0.262695 -3.06348 -0.262695c-9.87402 0 -17.877 8.00391 -17.877 17.877c0 9.875 8.00293 17.8779 17.877 17.8779c3.49902 0 6.76172 -1.00293 9.51758 -2.74219c7.29395 19.3877 19.1943 36.1309 27.2148 47.0762
c24.4834 33.4893 35.9648 54.9141 35.9648 77.4287c0 19.0469 -8.55273 36.3125 -23.168 36.3125c-14.124 0 -24.0283 -14.7842 -24.1475 -42.2598l-0.00585938 -1.65723l-13.6768 2.34277c-2.77539 -1.76855 -6.06836 -2.79297 -9.60254 -2.79297
c-9.87402 0 -17.877 8.00293 -17.877 17.876c0 9.875 8.00293 17.8779 17.877 17.8779c3.05176 0 5.92578 -0.764648 8.43945 -2.1123c2.64844 9.15527 6.90625 18.374 13.8496 25.3164c6.87891 6.87891 15.4463 10.3428 25.499 10.3428zM48.3545 723.521h55.5146
l17.1611 52.2256l17.1602 -52.2256h55.5156l-44.8672 -32.2959l17.1611 -52.2246l-44.9697 32.2959l-44.9707 -32.2959l17.1611 52.2246zM778.763 14.5z" />
  </g>

</svg>
