<?xml version="1.0" standalone="no"?>
<!DOCTYPE svg PUBLIC "-//W3C//DTD SVG 1.1//EN" "http://www.w3.org/Graphics/SVG/1.1/DTD/svg11.dtd" >
<svg xmlns="http://www.w3.org/2000/svg" xmlns:xlink="http://www.w3.org/1999/xlink" version="1.1" viewBox="-10 0 1020 1000">
  <g transform="matrix(1 0 0 -1 0 800)">
   <path fill="currentColor"
d="M828.399 483.872c0 9.49878 0.360099 25.4826 0.360099 28.905l-0.318652 61.3747l-8.69455 54.78l-24.0577 41.7601l-29.8355 19.1251l-33.9409 8.02542l-47.9505 1.85133v0.765382l-107.704 8.96128l-161.614 -4.8437l-135.511 -48.0118l4.97421 -24.8711
l90.1513 34.2037l168.519 13.9909l163.859 -8.05849l72.0585 -32.0852l24.6852 -76.5829c-11.2968 -92.7231 -11.5388 -94.7093 -10.6225 -98.1968c0.272553 -1.03738 0.408327 -1.98777 0.495372 -2.92219c0.487753 -0.641757 1.13403 -1.58506 1.4862 -2.05622
l30.4464 -40.7334l38.0432 -60.0682l23.93 -33.502l-96.7113 -80.2498l-3.19974 -219.288c0.962733 -7.56244 2.78458 -22.0112 5.01798 -45.877c-0.12894 -0.269919 -9.65147 -20.9678 -12.8349 -27.02c-1.80565 -3.43278 -3.36365 -6.39475 -8.94453 -11.1259
c-28.726 -6.87192 -37.6748 -9.01268 -53.7943 -9.01268c-3.38415 0 -6.77838 0.14333 -10.1737 0.446144l-127.95 -3.2205l-189.706 31.9736l-119.91 72.0259l-21.8729 31.5454c-0.18608 0.126152 -14.9542 10.3475 -18.5829 12.6523v-31.4635
c5.41685 -3.87145 13.5068 -7.36272 24.4398 -17.2503c7.32645 -6.62591 2.09556 -4.45645 10.6241 -11.9264c1.03002 -0.902171 1.03002 -0.902171 17.2005 -21.8062l70.2643 -41.1391l123.979 -35.7692l40.8353 -3.74581
c52.8258 -4.90757 59.0669 -6.73248 83.0467 -7.42728l68.08 -1.97257l89.7606 0.254271l51.1066 12.4914l15.1376 25.2075l6.27671 34.16l-0.268638 82.9487l0.0291888 84.2282l-0.00582149 87.5189l84.7837 67.8016l7.68593 8.96692l1.11464 7.19504
c0.44913 7.61262 -1.52476 12.8022 -3.31214 18.1783l-23.3304 38.8443l-33.0243 43.448l-34.3179 48.9016c-0.202711 16.1296 -0.202711 16.1296 -0.202711 17.6951zM473.786 543.114c0 18.0068 16.1221 33.2393 37.207 33.2393c21.083 0 37.207 -15.2324 37.207 -33.2393
c0 -18.0039 -16.124 -33.2383 -37.207 -33.2383c-21.085 0 -37.207 15.2344 -37.207 33.2383zM473.786 433.192c0 18.0068 16.1221 33.2393 37.207 33.2393c21.083 0 37.207 -15.2324 37.207 -33.2393c0 -18.0039 -16.124 -33.2383 -37.207 -33.2383
c-21.085 0 -37.207 15.2344 -37.207 33.2383zM468.986 329.992c0 18.0068 16.1221 33.2402 37.207 33.2402c21.083 0 37.207 -15.2334 37.207 -33.2402c0 -18.0029 -16.124 -33.2383 -37.207 -33.2383c-21.085 0 -37.207 15.2354 -37.207 33.2383zM473.786 220.792
c0 18.0068 16.1221 33.2402 37.207 33.2402c21.083 0 37.207 -15.2334 37.207 -33.2402c0 -18.0029 -16.124 -33.2383 -37.207 -33.2383c-21.085 0 -37.207 15.2354 -37.207 33.2383zM621.618 206.812zM603.945 94.2539h-168.61l-15.1533 80.3916
c-2.93848 0.00585938 2.91992 0 0 0l-1.69629 9.00098c2.35742 0 -2.37012 0.00390625 0 0l-46.8193 248.39l-24.5088 -0.12207l67.2559 -362.823h210.678v0h3.78711l-4.43262 -3.72656l0.645508 3.72656l62.9092 362.909l-26.8184 0.573242l-42.1885 -248.02
c0.629883 0.00585937 0.599609 -1.19922 0.599609 -1.2002c0 0 -2.26562 -11.9062 -2.25293 -9.92773c-1.16211 -0.0107422 0.0341797 0.201172 0 0zM370.973 435.716l4.44336 -3.66113l-3.75 -0.0185547zM414.993 190.554zM623.193 201.354zM620.793 196.554
l-3.45312 -23.1279c-8.4834 -0.0654297 -17.0635 -0.09375 -25.7197 -0.09375c-56.0781 0 -115.357 1.19434 -171.438 1.31348l-3.98828 23.1084c56.6436 -0.0976562 121.838 -0.422852 178.441 -0.422852c9.17383 0 17.1885 -0.851562 26.1582 -0.777344zM661.182 432.573
l-3.88574 0.0830078l4.5332 3.74219zM688 432l0.894531 5.15918l4.33594 -5.27051zM414.413 69.0908l0.681641 -3.6748l-4.42383 3.6748h3.74219zM347.157 431.914l-5.38281 -0.0263672l4.40137 5.32324zM48.3545 723.521h55.5146l17.1611 52.2256l17.1602 -52.2256h55.5156
l-44.8672 -32.2959l17.1611 -52.2246l-44.9697 32.2959l-44.9707 -32.2959l17.1611 52.2246zM48.3545 723.521h55.5146l17.1611 52.2256l17.1602 -52.2256h55.5156l-44.8672 -32.2959l17.1611 -52.2246l-44.9697 32.2959l-44.9707 -32.2959l17.1611 52.2246z" />
  </g>

</svg>
