<?xml version="1.0" standalone="no"?>
<!DOCTYPE svg PUBLIC "-//W3C//DTD SVG 1.1//EN" "http://www.w3.org/Graphics/SVG/1.1/DTD/svg11.dtd" >
<svg xmlns="http://www.w3.org/2000/svg" xmlns:xlink="http://www.w3.org/1999/xlink" version="1.1" viewBox="-10 0 1016 1000">
  <g transform="matrix(1 0 0 -1 0 800)">
   <path fill="currentColor"
d="M840.395 478.694c0 9.49902 0.360352 25.4824 0.360352 28.9053l-0.318359 61.375l-8.69434 54.7793l-24.0586 41.7607l-29.835 19.125l-33.9414 8.02539c-15.9834 0.617188 -31.9668 1.23438 -47.9502 1.85059v0.765625l-107.704 8.96191l-161.613 -4.84375
l-135.512 -48.0117l4.97461 -24.8711l90.1514 34.2031l168.52 13.9912l163.858 -8.05859l72.0586 -32.085l24.6855 -76.583c-11.2969 -92.7236 -11.5391 -94.709 -10.623 -98.1973c0.272461 -1.03711 0.408203 -1.9873 0.495117 -2.92188
c0.488281 -0.641602 1.13477 -1.58496 1.48633 -2.05664l30.4463 -40.7334l38.0439 -60.0674c7.97656 -11.168 15.9531 -22.335 23.9297 -33.502l-96.7109 -80.25l-3.2002 -219.288c0.962891 -7.5625 2.78418 -22.0117 5.01758 -45.877
c-0.128906 -0.270508 -9.65137 -20.9678 -12.835 -27.0205c-1.80566 -3.43262 -3.36328 -6.39453 -8.94434 -11.126c-28.7256 -6.87109 -37.6748 -9.0127 -53.7939 -9.0127c-3.38379 0 -6.77832 0.143555 -10.1738 0.446289l-127.95 -3.2207l-189.706 31.9736
l-119.909 72.0264c-7.29102 10.5146 -14.582 21.0303 -21.873 31.5449c-0.186523 0.126953 -14.9541 10.3477 -18.583 12.6523v-31.4629c5.41699 -3.87207 13.5068 -7.36328 24.4395 -17.251c7.32715 -6.625 2.0957 -4.45605 10.624 -11.9258
c1.03027 -0.902344 1.03027 -0.902344 17.2012 -21.8066l70.2637 -41.1387l123.979 -35.7695l40.835 -3.74512c52.8262 -4.9082 59.0674 -6.7334 83.0469 -7.42773l68.0801 -1.97266l89.7607 0.253906l51.1064 12.4922l15.1377 25.207l6.27637 34.1602l-0.268555 82.9482
l0.0292969 84.2285l-0.00585938 87.5186l84.7832 67.8018l7.68652 8.9668l1.11426 7.19531c0.449219 7.6123 -1.52441 12.8027 -3.31152 18.1787l-23.3311 38.8438l-33.0244 43.4482l-34.3174 48.9014c-0.203125 16.1299 -0.203125 16.1299 -0.203125 17.6953z
M42.3203 736.375h55.5146l17.1611 52.2256l17.1602 -52.2256h55.5156l-44.8672 -32.2959l17.1611 -52.2246l-44.9697 32.2959l-44.9707 -32.2959l17.1611 52.2246zM657.755 212.146zM349.354 419.625zM291.762 313.599zM516.162 174.972zM515.757 162.097zM344.302 209.972z
M443.146 178.876zM712.765 337.571zM291.762 313.599zM712.765 337.571zM720.356 344.797c3.97656 -12.0449 6.53711 -25.0811 9.88184 -37.5674l2.33203 -0.0380859c-1.77344 -37.415 -2.44043 -51.5039 -63.1953 -99.5107
c-45.207 -35.7227 -78.3037 -48.3047 -153.536 -49.1533c-51.749 -0.583008 -117.655 1.35352 -175.434 49.1406c-22.7666 18.8291 -58.9072 55.2715 -58.5713 96.668h-1.62012c1.77051 6.63574 1.77051 6.63574 1.93848 11.7314l1.18555 -0.0205078l5.07324 19.0254
h-2.22754c1.15625 1.57031 2.31348 3.14062 3.46973 4.71094v5.34668h3.93457l57.4551 78.0645h1.82227c19.8789 46.4844 96.0342 68.877 125.613 32.8701c4.2002 -1.8877 23.248 -9.4873 43.3047 -2.1748c10.3311 13.8271 39.3594 27.1719 72.0254 20.3975
c31.5947 -6.55078 63.4658 -35.9424 77.4482 -50.252h0.670898c0.492188 -0.725586 0.830078 -1.55859 1.44922 -2.19434l4.39355 -4.58398l41.9521 -71.6865c0.625977 0.0527344 1.12012 0.0136719 1.02148 -0.44043zM311.061 306.847
c-0.696289 -23.8564 1.94238 -52.2275 59.8818 -92.7852c49.165 -34.416 89.9043 -36.8877 145.833 -35.5029c65.1641 1.67773 92.3545 10.0527 131.704 42.207c52.3262 42.7598 60.9961 56.1602 54.7041 81.2793l-8.32129 33.2168l-0.305664 -0.544922
c0.0175781 2.00977 -1.32617 4.56641 -1.30859 6.57715l-46.6914 73.6426c-1.25293 -0.0488281 -0.251953 1.08887 -1.50488 1.04004c-28.9014 19.0547 -31.9824 27.3096 -42.7783 33.6768c-16.624 9.80273 -42.1836 7.83008 -58.4551 -3.27539
c-8.09961 -24.4014 -58.3574 -28.3115 -81.5146 -6.30762c-2.1582 2.05078 -3.75098 0.910156 -3.54688 3.42578c-24.7539 17.0342 -71.1211 -0.126953 -84.2236 -30.9863l-1.58887 -3.74219l-2.64844 1.01953l-51.0615 -72.2891zM471.951 210.882l-10.2119 10.9639
l80.5225 74.7793l-73.4062 29.1943l85.541 77.5947l10.0605 -11.1123l-67.707 -61.4141l73.1777 -29.127z" />
  </g>

</svg>
