<?xml version="1.0" standalone="no"?>
<!DOCTYPE svg PUBLIC "-//W3C//DTD SVG 1.1//EN" "http://www.w3.org/Graphics/SVG/1.1/DTD/svg11.dtd" >
<svg xmlns="http://www.w3.org/2000/svg" xmlns:xlink="http://www.w3.org/1999/xlink" version="1.1" viewBox="-10 0 828 1000">
  <g transform="matrix(1 0 0 -1 0 800)">
   <path fill="currentColor"
d="M100.466 641.216l-0.839844 15.96l234.64 1.12012l-0.46582 -17.0801h-233.334zM100.466 550.993l-1.39941 18.2627l234.64 -1.12012l0.09375 -17.1426h-233.334zM618.164 19.8906c-0.931641 -0.0205078 -2.44434 -0.0390625 -3.37695 -0.0390625
c-26.4717 0 -65.8887 12.6533 -87.9824 28.2412c-23.4512 16.7295 -42.4834 54.7686 -42.4834 84.9082c0 0.416016 0.00390625 1.09375 0.00976563 1.51074v273.488h12.1006v-273.358c0 -69.7305 63.0449 -101.813 121.732 -101.813
c58.6904 0 121.735 31.8242 121.735 101.684v273.488h12.1006v-273.358c0 -78.6572 -69.3369 -114.751 -133.836 -114.751zM339.499 289.199l-226.709 0.637695v12.6074h203.269v71.5928h-203.269v12.6084l224.694 -1.06152z" />
  </g>

</svg>
