<?xml version="1.0" standalone="no"?>
<!DOCTYPE svg PUBLIC "-//W3C//DTD SVG 1.1//EN" "http://www.w3.org/Graphics/SVG/1.1/DTD/svg11.dtd" >
<svg xmlns="http://www.w3.org/2000/svg" xmlns:xlink="http://www.w3.org/1999/xlink" version="1.1" viewBox="-10 0 1080 1000">
  <g transform="matrix(1 0 0 -1 0 800)">
   <path fill="currentColor"
d="M352.776 69.626l-82.2217 148.848l24.0225 10.1475l58.4395 -100.383l53.3027 101.418l27.2285 -11.0254zM269.863 -95.7744v34.6641h38.626v22.0713h-38.626v34.6641h38.626v33.7148h31.3828v-33.7148h23.2197v31.2539h31.3828v-31.2539h41.292v-34.6641h-41.292
v-22.0713h41.292v-34.6641h-41.292v-36.1855h-31.3828v36.1855h-23.2197v-33.7246h-31.3828v33.7246h-38.626zM339.872 -61.1104h23.2197v22.0713h-23.2197v-22.0713zM784.954 195.837c-0.529297 0 -0.985352 0.173828 -1.32227 0.358398l-214.094 -88.2627v-37.8242
c12.126 5.10742 24.251 10.2148 36.376 15.3213v-3.77051l-0.21875 -161.659h318.305l0.646484 155.446c10.9619 -6.48535 21.9238 -12.9697 32.8867 -19.4551l-0.677734 40.7051l-136.33 79.1182l1.46387 0.616211c-22.6963 11.7715 -24.457 12.7314 -36.2109 19.5508
c-0.288086 -0.102539 -0.56543 -0.144531 -0.824219 -0.144531zM888.889 -44.7822h-248.003l-0.665039 144.662l142.009 59.8174l107.859 -63.8086zM67.6494 -51.5469h55.5146l17.1611 52.2256l17.1602 -52.2256h55.5156l-44.8672 -32.2959l17.1611 -52.2246
l-44.9697 32.2959l-44.9707 -32.2959l17.1611 52.2246zM752.283 705.6c30.2646 0 44.9668 -32.2041 44.9668 -66.0693c0 -34.6133 -14.2344 -59.2529 -41.4629 -97.6436c-17.7881 -24.9092 -22.085 -32.3174 -26.0195 -42.2715l66.2324 2.84863v-30.4639l-93.6963 -2.97461
c-0.0400391 2.1543 -0.0439453 2.35156 -0.0439453 3.13281c-1.06348 -0.183594 -2.15723 -0.280273 -3.27344 -0.280273c-10.5488 0 -19.0996 8.55176 -19.0996 19.0996c0 10.5498 8.55078 19.1006 19.0996 19.1006c3.73828 0 7.22461 -1.07324 10.1699 -2.92969
c7.79199 20.7129 20.5049 38.5996 29.0742 50.2949c26.1572 35.7793 38.4238 58.6689 38.4238 82.7227c0 20.3496 -9.1377 38.7959 -24.751 38.7959c-15.0908 0 -25.6719 -15.7969 -25.7988 -45.1494l-0.0078125 -1.77051l-14.6113 2.50293
c-2.96387 -1.89062 -6.4834 -2.98535 -10.2588 -2.98535c-10.5488 0 -19.0996 8.55078 -19.0996 19.0996c0 10.5488 8.55078 19.0996 19.0996 19.0996c3.26074 0 6.33105 -0.817383 9.0166 -2.25781c2.8291 9.7832 7.37891 19.6309 14.7969 27.0488
c7.34961 7.34961 16.502 11.0498 27.2432 11.0498zM274.288 574.112c0 -26.7441 9.58984 -51.8545 28.3311 -70.6553c15.5547 -15.4932 45.4238 -27.832 67.3809 -27.832c4.9873 0 11.6328 0.794922 20 2.375c45.5986 8.60547 82.6035 53.1338 82.6035 99.6436
c0 8.27441 -1.85156 20.9863 -4.21191 28.9248c-5.19336 18.3516 -23.0537 45.626 -24.4307 47.6416c-6.39355 10.0938 -8.02832 12.6895 -10.7363 17.4082c-16.2188 28.5312 -32.4639 57.0371 -48.666 85.584c-4.49902 10.1855 -6.37793 12.0508 -9.88086 13.5879
c-3.80078 0 -5.04297 -0.0322266 -7.15137 -2.14062c-1.30273 -1.30273 -1.37793 -1.48633 -3.67676 -5.79199c-1.34961 -2.52832 -32.2266 -58.7646 -47.9932 -84.1504c-3.01758 -4.85938 -18.4951 -29.8467 -28.0508 -49.083
c-9.05859 -18.2754 -13.5176 -37.2734 -13.5176 -55.5117zM370.306 488.722c-17.8115 0 -44.5391 10.1475 -58.9082 24.5156c-15.8291 15.8291 -23.9922 37.2695 -23.9922 60.4414c0 16.2324 4.00586 33.3154 12.1875 49.915
c7.24902 14.5938 15.9658 29.0293 24.4238 43.0293c7.56445 12.292 7.53223 12.2363 44.5547 76.8506c0.0751953 0.142578 0.0751953 0.142578 3.89355 7.56641l49.2695 -85.5449c2.05566 -3.54102 3.90918 -6.67285 11.1367 -17.9756
c6.51855 -9.54199 15.5234 -25.835 20.127 -36.3662c0.0761719 -0.19043 0.160156 -0.37207 0.240234 -0.558594v-0.046875c4.63867 -11.874 6.38965 -25.6738 6.38965 -33.3262c0 -40.5234 -32.4297 -79.4736 -72.376 -86.752
c-8.68066 -1.58203 -14.6543 -1.74805 -16.9463 -1.74805z" />
  </g>

</svg>
