<?xml version="1.0" standalone="no"?>
<!DOCTYPE svg PUBLIC "-//W3C//DTD SVG 1.1//EN" "http://www.w3.org/Graphics/SVG/1.1/DTD/svg11.dtd" >
<svg xmlns="http://www.w3.org/2000/svg" xmlns:xlink="http://www.w3.org/1999/xlink" version="1.1" viewBox="-10 0 832 1000">
  <g transform="matrix(1 0 0 -1 0 800)">
   <path fill="currentColor"
d="M478.409 211.75c12.3115 0 30.5508 -6.70703 40.4229 -15.5059l0.0888672 -0.0957031c8.56152 -9.13184 15.6328 -26.9121 15.6328 -39.3789c0 -1.25391 -0.0751953 -2.91992 -0.0947266 -3.38867c0 -0.0214844 -0.00195312 -0.0390625 -0.00195312 -0.0527344
c-0.0117188 -10.4609 -3.05859 -31.625 -29.5127 -57.2725c-50.9434 -49.3896 -78.8516 -76.2236 -84.3867 -81.2539c-0.731445 -0.665039 -0.604492 -0.820312 -1.6582 -1.22461l-1.10059 -0.461914c-1.54199 0.679688 -1.68652 0.743164 -2.14844 1.23926
c-6.70117 7.20508 -85.6885 82.5703 -86.5381 83.4199c-9.01953 9.01953 -16.7158 20.9727 -17.8672 22.9541c-2.30371 3.99023 -5.37793 10.9639 -6.76953 15.3555c-2.33789 7.375 -3.0459 14.4951 -3.07617 20.3672l-0.00292969 0.505859
c1.38477 3.90332 3.75195 14.5859 7.81836 25.123c0.97168 2.51855 4.42969 11.0635 7.69824 14.0088c9.50977 8.56836 27.8262 15.6426 40.5713 15.6426c5.9834 0 11.9326 -0.854492 18.8174 -3.12598c11.3389 -3.74316 25.3877 -12.9941 38.3818 -25.9883
c2.31738 -2.31836 2.64258 -2.50586 2.92188 -2.50586c0.0537109 0 0.106445 0.00683594 0.170898 0.00683594c0.552734 0 0.552734 0 5.75879 5.20605c2.45605 2.45508 18.4492 17.9834 35.8115 23.7051c7.54004 2.56738 16.6738 2.7207 19.0625 2.7207zM545.404 156.477
v0.143555c0 17.582 -10.0908 38.71 -19.3809 48.001c-6.18652 6.18555 -28.207 18.374 -47.8262 18.374c-11.6328 0 -20.0322 -2.58789 -22.9199 -3.61914c-5.25879 -1.76172 -12.9619 -5.50293 -17.5898 -8.54199l0.0175781 0.0117188
c-0.00585938 -0.00390625 -0.0117188 -0.0078125 -0.0332031 -0.0224609c0.00488281 0.00390625 0.00976562 0.0078125 0.015625 0.0107422v0c-7.84277 -5.31641 -12.0029 -8.1377 -20.3203 -15.5303c-28.8242 25.7881 -46.9893 27.3545 -60.4336 27.3545
c-18.0752 0 -40.1719 -10.7031 -48.501 -19.0332c-6.14258 -6.1416 -18.29 -27.3965 -18.29 -46.7197c0 -11.8389 1.80762 -19.8135 3.28613 -24.3877c1.6377 -5.16406 5.05762 -12.9014 7.77148 -17.5918c0.750977 -1.29883 1.97754 -3.00684 8.47461 -11.6768
l0.0673828 -0.561523c-0.00683594 0.0234375 -0.0253906 0.0410156 -0.0253906 0.0410156c0.00195312 -0.00976562 0.0117188 -0.0283203 0.0263672 -0.0556641c1.92676 -3.55859 10.0566 -11.8867 13.0107 -14.7471l85.042 -82.3516
c0.825195 -0.800781 4.43848 -4.1377 9.6377 -4.1377c2.9668 0 6.44922 1.08691 10.2236 4.34961c0.755859 0.65332 6.74707 5.83301 84.7588 82.0078c32.9365 32.1621 32.9883 57.0576 32.9883 68.6826zM393.816 329.67c27.9893 1.57617 107.715 -11.7246 111.899 -3.90039
c82.582 7.68066 159.741 87.6348 156.765 87.7363l9.03125 -13.5479c-33.2461 -30.4805 -66.1484 -64.4912 -156.235 -90.4072c39.667 -5.76953 84.0947 -30.5469 112.368 -52.8096c17.2031 -13.5459 30.9648 -19.3535 43.8672 -30.9668l-12.2568 -15.4824
c-22.5791 17.4189 -37.1328 27.1963 -52.2549 38.708c-77.21 58.7783 -178.583 61.2363 -232.288 60.7812c0.120117 5.46973 0.241211 10.9385 0.362305 16.4082c0.0664062 3.07715 3.05762 3.20215 4.33398 3.25684
c0.144531 0.00585938 6.86523 -0.200195 14.4082 0.223633zM403.512 552.976c-8.30469 0.369141 -17.2646 7.03906 -20 14.8887c-26.6387 59.8311 -99.1152 123.845 -161.777 142.89c-62.8887 22.2217 -123.333 20.4443 -145.333 7.33301l-11.334 19.1113
c31.1113 18.4443 100 16.2217 163.778 -5.33398c67.415 -20.626 145.666 -89.5186 174.666 -153.777c44.4453 124 170.89 160.889 208.667 169.333c56.8887 12.667 106.444 8 126 -12l-15.7773 -15.5557c-11.5557 11.7783 -52.2227 17.7783 -105.111 5.77832
c-35.333 -7.77832 -153.333 -42.4443 -192.667 -155.556c-2.29492 -8.5791 -11.3545 -15.9463 -20.2217 -16.4443zM343.512 495.375c0 32 27.2002 57.5996 60 57.5996c32.8008 0 60 -25.5996 60 -57.5996s-27.1992 -57.6006 -60 -57.6006
c-32.7998 0 -60 25.6006 -60 57.6006zM403.512 552.976c-8.30469 0.369141 -17.2646 7.03906 -20 14.8887c-26.6387 59.8311 -99.1152 123.845 -161.777 142.89c-62.8887 22.2217 -123.333 20.4443 -145.333 7.33301l-11.334 19.1113
c31.1113 18.4443 100 16.2217 163.778 -5.33398c67.415 -20.626 145.666 -89.5186 174.666 -153.777c44.4453 124 170.89 160.889 208.667 169.333c56.8887 12.667 106.444 8 126 -12l-15.7773 -15.5557c-11.5557 11.7783 -52.2227 17.7783 -105.111 5.77832
c-35.333 -7.77832 -153.333 -42.4443 -192.667 -155.556c-2.29492 -8.5791 -11.3545 -15.9463 -20.2217 -16.4443zM343.512 495.375c0 32 27.2002 57.5996 60 57.5996c32.8008 0 60 -25.5996 60 -57.5996s-27.1992 -57.6006 -60 -57.6006
c-32.7998 0 -60 25.6006 -60 57.6006z" />
  </g>

</svg>
