<?xml version="1.0" standalone="no"?>
<!DOCTYPE svg PUBLIC "-//W3C//DTD SVG 1.1//EN" "http://www.w3.org/Graphics/SVG/1.1/DTD/svg11.dtd" >
<svg xmlns="http://www.w3.org/2000/svg" xmlns:xlink="http://www.w3.org/1999/xlink" version="1.1" viewBox="-10 0 745 1000">
  <g transform="matrix(1 0 0 -1 0 800)">
   <path fill="currentColor"
d="M137.405 244.781c46.1719 3.43555 171.833 -13.9863 194.575 -6.2168l1.22949 2.40039l3.84473 0.427734c133.455 14.8438 259.046 139.834 271.285 156.814v0l8.46875 5.42969l4.03711 -3.61328c6.68945 -9.65234 13.3809 -19.3066 20.0703 -28.9609
c-7.69531 -7.31641 -7.93164 -7.53906 -14.8701 -14.1855c-51.8428 -49.6465 -109.233 -104.307 -241.208 -149.338c64.8457 -15.1816 132.005 -52.5352 177.278 -86.8809c30.8213 -23.3848 55.6416 -33.3066 79.6875 -54.1758l5.10938 -4.43555l-29.7969 -39.0645
c-40.3506 29.9805 -85.7109 61.0078 -100.208 71.6367c-144.222 105.744 -334.331 101.729 -419.666 99.4668c0.0488281 12.2422 0.0976562 24.4844 0.148438 36.7266c0.0078125 2.3418 0.832031 13.1562 15.3516 13.127
c2.37402 -0.00585938 13.0117 -0.0234375 24.6631 0.841797zM258.452 572.684zM258.179 569.443zM456.273 535.715c0 -25.125 -8.1875 -49.6309 -29.4805 -70.9219c-9.5332 -9.5332 -17.5674 -16.1543 -24.9492 -20.7207c43.4141 7.73438 99.9531 27.8262 136.944 92.043
c-8.03418 13.9199 -17.708 26.5449 -29.0986 37.9355c-24.9531 24.9551 -59.8076 45.4453 -105.916 53.9375c-0.578125 0.107422 -0.375977 -0.699219 -2.22461 -0.148438c-1.22461 0.365234 -4.86719 1.45508 -10.0801 2.35547
c11.2148 -4.41602 23.1523 -11.6797 34.8975 -23.4219c20.7822 -20.7852 29.9072 -44.8379 29.9072 -71.0586zM352.973 462.828c28.2539 0 44.582 13.5586 53.3623 22.3359c18.5078 18.5078 21.1377 37.9844 21.1377 50.8398
c-0.0644531 18.4141 -6.27051 35.457 -21.1348 50.3164c-30.1641 30.166 -66.1123 23.3633 -82.3857 16.334c-0.15625 0 -22.9033 -15.0078 -23.1328 -15.1602c-5.92871 -8.62891 -11.7549 -17.3594 -17.6436 -26.0254l-0.0585938 0.0214844
c-9.55078 -26.4355 -4.93359 -55.2441 16.6504 -76.832c14.8926 -14.8906 32.6777 -21.8301 53.2051 -21.8301zM357.608 409.109v0c-26.9873 0 -116.356 1.28906 -188.433 73.3652c-16.0723 16.0723 -28.7578 33.4492 -40.1094 53.6406
c-0.0390625 0.0683594 -0.078125 0.138672 -0.117188 0.208984l0.117188 -0.208984c12.8574 22.8711 26.0029 39.6719 41.2324 54.9023c34.9395 34.9395 93.8516 72.4023 187.31 72.4023c24.0752 0 115.172 -0.423828 187.25 -72.502
c16.4424 -16.4434 29.3525 -34.207 40.7891 -54.8008c0.0390625 -0.0683594 0.0751953 -0.136719 0.114258 -0.203125l-0.114258 0.203125c-6.10938 -11.0078 -18.5264 -32.3008 -40.0156 -53.7891c-71.4404 -71.4414 -159.585 -73.2188 -188.023 -73.2188zM311.625 628.201
c-75.1797 -13.6699 -113.829 -54.1934 -135.693 -92.084c9.3418 -16.1211 19.8877 -28.5918 29.1191 -37.8242c21.6992 -21.7012 54.1152 -43.3711 101.17 -53.0117c-8.93555 4.38281 -18.2422 10.623 -27.1465 19.5273c-34.3379 34.3379 -33.8242 77.5723 -22.8564 106.256
c0.165039 0.25 0.0947266 0.412109 -0.163086 0.501953c-0.415039 2.20898 6.01562 13.1309 7.07227 15.8203c1.31445 3.35156 2.87695 4.97656 5.38867 7.24609c1.75977 1.58594 1.78906 1.61914 2.98438 3.61523c1.79297 2.99023 1.87402 3.16016 9.71094 10.998
c6.16797 6.16602 20.6035 15.2676 30.4141 18.9551z" />
  </g>

</svg>
