<?xml version="1.0" standalone="no"?>
<!DOCTYPE svg PUBLIC "-//W3C//DTD SVG 1.1//EN" "http://www.w3.org/Graphics/SVG/1.1/DTD/svg11.dtd" >
<svg xmlns="http://www.w3.org/2000/svg" xmlns:xlink="http://www.w3.org/1999/xlink" version="1.1" viewBox="-10 0 1383 1000">
  <g transform="matrix(1 0 0 -1 0 800)">
   <path fill="currentColor"
d="M144.994 4.99902c2.76259 0 4.99902 -2.23645 4.99902 -4.99902v-75.2988h43.2988v75.2988c0 2.76259 2.23645 4.99902 4.99902 4.99902h76.709c2.76259 0 4.99902 -2.23645 4.99902 -4.99902v-81.1582h43.2988v81.1582c0 2.76259 2.23645 4.99902 4.99902 4.99902
h93.3154v51.1113h-93.3154c-2.76259 0 -4.99902 2.23645 -4.99902 4.99902v73.9736c0 2.76259 2.23645 4.99902 4.99902 4.99902h93.3154v51.1113h-93.3154c-2.76259 0 -4.99902 2.23645 -4.99902 4.99902v69.415h-43.2988v-69.415
c0 -2.76259 -2.23645 -4.99902 -4.99902 -4.99902h-76.709c-2.76259 0 -4.99902 2.23645 -4.99902 4.99902v75.2744h-43.2988v-75.2744c0 -2.76259 -2.23645 -4.99902 -4.99902 -4.99902h-86.9678v-51.1113h86.9678c2.76259 0 4.99902 -2.23645 4.99902 -4.99902v-73.9736
c0 -2.76259 -2.23645 -4.99902 -4.99902 -4.99902h-86.9678v-51.1113h86.9678zM237.43 436.574c-1.8364 0 -3.45375 0.991664 -4.32268 2.48426l-141.922 243.785l-28.3713 -11.985l173.438 -313.974l170.244 314.064l-35.3397 14.3108
c-129.652 -246.683 -129.652 -246.683 -130.191 -247.222c-0.975657 -0.975657 -2.2556 -1.46349 -3.53553 -1.46349zM275 140.082c2.76259 0 4.99902 -2.23645 4.99902 -4.99902v-73.9736c0 -2.76259 -2.23645 -4.99902 -4.99902 -4.99902h-76.709
c-2.76259 0 -4.99902 2.23645 -4.99902 4.99902v73.9736c0 2.76259 2.23645 4.99902 4.99902 4.99902h76.709zM756.001 269c0 77.536 86.0514 98.6963 121.783 98.6963c24.9962 0 62.0842 -12.9864 71.35 -19.104c16.7861 -11.0829 36.2572 -40.2993 36.2572 -67.3002
c0 -51.4137 -34.3284 -86.6843 -35.3462 -87.7036c-2.40078 -2.39938 -18.6159 -14.5329 -38.4436 -14.5329c-1.76963 0 -3.56804 0.0966512 -5.38797 0.3055c-14.8479 1.70523 -28.9861 1.74945 -66.1715 1.74945c-0.65139 0 -1.30985 -1.3568e-05 -1.97551 -3.2012e-05
h-2.92797c-15.4512 0 -40.5323 10.4516 -51.6791 21.5972c-14.8332 14.8332 -27.4586 46.8012 -27.4586 66.2924zM957.995 188.541c0 -2.76259 -2.23645 -4.99902 -4.99902 -4.99902c-1.27994 0 -2.55988 0.487829 -3.53553 1.46349
c-0.0648325 0.0660215 -7.47206 7.74766 -7.47206 7.74766c-0.932435 0.966979 -1.39865 2.21825 -1.39865 3.46951c0 2.69516 2.1585 4.99869 5.00526 4.99869c2.27957 0 2.27957 0 11.0331 -9.24407c0.911254 -0.962317 1.36688 -2.19929 1.36688 -3.43626z
M834.737 139.556c2.93733 0 9.81419 0.436522 22.3311 0.436522c15.7638 0 52.7226 -1.95525 53.2555 -1.95525c3.93885 0 43.1654 0.674839 69.5941 27.1035c17.6691 17.6691 46.7343 64.8404 46.7343 111.379c0 60.9023 -39.2989 96.9182 -55.8304 107.559
c-15.4333 9.93494 -46.2549 21.5238 -75.2627 24.4579c-2.54482 0.257405 -4.49231 2.3994 -4.49231 4.97346c0 1.13931 0.533406 76.3808 33.1529 109c4.97686 4.97332 13.9757 10.2802 23.5416 13.8701c8.72736 3.2761 12.6255 4.27344 24.1575 4.27344
c3.44553 0 7.57253 -0.0890309 12.7134 -0.232915v41.4314c-14.5144 0.404518 -14.5144 0.404518 -15.6836 0.404518c-28.9618 0 -58.4454 -14.8504 -73.9976 -30.4026c-38.2164 -38.2164 -44.612 -100.34 -45.5613 -140.939
c-0.0562152 -2.40419 -1.80807 -4.40739 -4.14649 -4.80879c-39.3655 -6.75726 -70.9101 -23.1464 -93.1529 -45.3892c-14.0837 -14.0837 -38.0213 -44.743 -38.0213 -90.4653c0 -32.5025 15.9971 -72.6381 40.1689 -96.8098
c21.6217 -21.6217 57.1567 -33.8864 80.4994 -33.8864zM647.929 -122.498h487.271l146.768 846.663h-790.984zM1225.15 681.391c2.76259 0 4.99902 -2.23645 4.99902 -4.99902c0 -0.432797 0 -0.432797 -130.188 -751.976
c-0.41187 -2.37762 -2.47762 -4.14031 -4.92524 -4.14031h-407.42c-2.42702 0 -4.47935 1.73328 -4.9148 4.0821c-139.337 751.571 -139.337 751.571 -139.337 752.034c0 2.76259 2.23645 4.99902 4.99902 4.99902h676.787z" />
  </g>

</svg>
