<?xml version="1.0" standalone="no"?>
<!DOCTYPE svg PUBLIC "-//W3C//DTD SVG 1.1//EN" "http://www.w3.org/Graphics/SVG/1.1/DTD/svg11.dtd" >
<svg xmlns="http://www.w3.org/2000/svg" xmlns:xlink="http://www.w3.org/1999/xlink" version="1.1" viewBox="-10 0 697 1000">
  <g transform="matrix(1 0 0 -1 0 800)">
   <path fill="currentColor"
d="M170.924 73.8359c0 32.0879 7.84668 65.416 23.6934 97.3896c16.5479 33.3096 43.1113 76.1699 48.3164 84.5527c27.9561 45.0098 81.7441 143.287 82.5293 144.757c6.25195 11.7129 9.29883 15.4609 22.5566 15.4609h1.05273
c8.51465 -3.73438 12.0088 -7.17188 20.3574 -26.0381l83.2939 -146.481c4.58203 -7.98535 7.31152 -12.3203 18.248 -29.5869c2.88477 -4.24121 33.2656 -50.3809 42.4912 -82.9844c4.24023 -14.2617 7.42871 -36.1436 7.42871 -51.0146
c0 -82.2764 -65.249 -160.553 -145.673 -175.732c-14.5215 -2.74023 -26.1445 -4.1582 -35.2188 -4.1582c-39.2529 0 -91.248 21.4902 -119.05 49.1816c-33.126 33.2314 -50.0264 77.5957 -50.0264 124.654zM340.525 -67.5488c84.793 0 148.125 74.3818 148.125 146.716
c0 14.3848 -3.72559 38.3154 -10.9775 56.2285c-7.71973 17.6396 -23.125 45.5088 -34.1084 61.5898c-12.3926 19.3828 -15.6514 24.8799 -19.2021 30.9951l-79.8887 138.712c-4.46875 -8.68555 -60.334 -106.487 -79.04 -136.886
c-38.7393 -64.1152 -62.0244 -102.73 -62.0244 -156.715c0 -38.5361 13.5479 -73.9609 39.665 -100.078c23.4482 -23.4473 68.4932 -40.5625 97.4512 -40.5625zM466.801 770.625l-132.009 -126.27l-126.72 126l-25.0708 -23.9797l125.403 -130.449l-127.273 -129.431
l27.0647 -29.5953l129.69 132.002l142.316 -131.008l27.88 23.2239l-143.026 131.468l131.232 132.535z" />
  </g>

</svg>
