<?xml version="1.0" standalone="no"?>
<!DOCTYPE svg PUBLIC "-//W3C//DTD SVG 1.1//EN" "http://www.w3.org/Graphics/SVG/1.1/DTD/svg11.dtd" >
<svg xmlns="http://www.w3.org/2000/svg" xmlns:xlink="http://www.w3.org/1999/xlink" version="1.1" viewBox="-10 0 1007 1000">
  <g transform="matrix(1 0 0 -1 0 800)">
   <path fill="currentColor"
d="M449.047 239.997l44.3516 -44.1006l46.0791 44.0762l14.251 -12.3262l-45.9902 -46.4463l50.2617 -46.2002l-13.8291 -11.5195l-49.6328 45.6895l-45.5518 -46.3633l-13.0215 14.2383l44.502 45.2559l-43.9463 45.7148zM599.861 106.64zM383.981 251.876z
M343.667 177.656zM500.747 80.6182zM500.463 71.6055zM380.444 105.118zM449.636 83.3506zM638.368 194.438zM343.667 177.656zM638.368 194.438zM643.683 199.495c2.78418 -8.43066 4.57617 -17.5557 6.91797 -26.2969l1.63184 -0.0263672
c-1.24121 -26.1904 -1.70801 -36.0527 -44.2363 -69.6582c-31.6455 -25.0049 -54.8135 -33.8125 -107.476 -34.4062c-36.2246 -0.40918 -82.3594 0.947266 -122.804 34.3975c-15.9365 13.1807 -41.2344 38.6904 -41 67.668h-1.13379
c1.23926 4.64551 1.23926 4.64551 1.35742 8.21191l0.829102 -0.0136719l3.55176 13.3174h-1.55957c0.80957 1.09863 1.61914 2.19824 2.42871 3.29785v3.74219h2.75488l40.2178 54.6455h1.27637c13.915 32.5391 67.2236 48.2139 87.9287 23.0088
c2.94043 -1.32129 16.2734 -6.6416 30.3135 -1.52246c7.23145 9.67969 27.5518 19.0205 50.418 14.2783c22.1162 -4.58594 44.4258 -25.1592 54.2139 -35.1768h0.46875c0.344727 -0.507812 0.581055 -1.09082 1.01465 -1.53613l3.07617 -3.20801l29.3662 -50.1807
c0.4375 0.0371094 0.78418 0.00976562 0.714844 -0.308594zM357.176 172.931c-0.487305 -16.6992 1.35938 -36.5596 41.917 -64.9502c34.416 -24.0908 62.9326 -25.8213 102.083 -24.8516c45.6152 1.17383 64.6484 7.03711 92.1934 29.5449
c36.6279 29.9316 42.6973 39.3125 38.292 56.8955l-5.82422 23.252l-0.213867 -0.381836c0.0126953 1.40723 -0.928711 3.19727 -0.916016 4.60449l-32.6836 51.5498c-0.876953 -0.0351562 -0.176758 0.761719 -1.05371 0.727539
c-20.2314 13.3379 -22.3877 19.1172 -29.9453 23.5732c-11.6367 6.8623 -29.5283 5.48145 -40.918 -2.29199c-5.66992 -17.0811 -40.8506 -19.8184 -57.0605 -4.41504c-1.51074 1.43555 -2.62598 0.636719 -2.48242 2.39746
c-17.3281 11.9238 -49.7852 -0.0888672 -58.957 -21.6904l-1.1123 -2.61914l-1.85352 0.712891l-35.7432 -50.6016zM52.7012 763.544h41.6357l12.8711 39.1699l12.8701 -39.1699h41.6367l-33.6504 -24.2217l12.8711 -39.168l-33.7275 24.2217l-33.7275 -24.2217
l12.8701 39.168zM264.521 609.221l-12.6758 63.3936c136.002 94.8662 375.292 58.4941 467.481 51.3066v-0.0322266c29.001 0.613281 79.4395 -1.39844 113.337 -35.2939c42.4092 -42.4102 40.7979 -114.996 39.6455 -178.943
c-0.416016 -23.167 -0.457031 -35.123 -0.233398 -44.3203c27.873 -46.3066 76.252 -95.0469 94.3799 -136.938c7.34277 -16.9707 5.80176 -26.1641 2.79395 -42.4785l-12.6807 -14.791l-83.9961 -67.1738v-224.448c2.04785 -32.8447 1.92871 -83.7236 -28.9658 -114.614
c-27.5059 -27.5059 -192.831 -12.7002 -233.062 -13.7412l-3.06641 0.0136719c-109.601 -7.71484 -312.854 53.4648 -345.075 97.3857c-19.5508 26.6543 -33.1758 43.585 -61.2744 58.4365v73.998c27.2783 -17.1826 52.4307 -18.8125 74.1611 -64.0645
c46.7197 -97.292 369.22 -111.715 476.835 -114.573l-0.527344 -1.0166c52.8281 12.6768 36.083 4.73438 44.9424 14.3018c20.2598 21.8828 4.2041 44.3428 5.81836 61.2441h-0.571289v2.27051c-0.269531 1.04492 -0.530273 2.05176 -0.78125 3.00781h0.78125v218.894
v3.68359v1.41504h1.6709l109.881 92.9756h1.19727c5.26562 48.4922 -66.3906 97.3398 -99.5449 147.394l-3.16895 4.22559l-1.05762 1.05664c-2.13379 4.2168 0.0449219 4.25195 -2.20117 12.2139c-0.0390625 0.138672 -0.200195 0.261719 -0.18457 0.386719
l0.273438 2.19141l0.0683594 1.58203c0.00976562 0.242188 0.15918 4.11719 0.255859 6.59766c3.29004 83.6279 5.49121 183.196 -88.5566 183.601l3.05664 6.01855c-144.061 17.6953 -394.666 10.0771 -455.897 -49.1416zM645 419.25l-225 0.75v14.8477h201.736v84.3047
h-201.736v14.8477l223 -1.25z" />
  </g>

</svg>
