<?xml version="1.0" standalone="no"?>
<!DOCTYPE svg PUBLIC "-//W3C//DTD SVG 1.1//EN" "http://www.w3.org/Graphics/SVG/1.1/DTD/svg11.dtd" >
<svg xmlns="http://www.w3.org/2000/svg" xmlns:xlink="http://www.w3.org/1999/xlink" version="1.1" viewBox="-10 0 752 1000">
  <g transform="matrix(1 0 0 -1 0 800)">
   <path fill="currentColor"
d="M164.997 231.859zM164.593 227.091zM288.693 41.4648c4.54492 0 5.96582 -1.29492 9.30469 -1.29492c1.58594 0 3.30957 0.25 5.48828 0.676758h0.244141c6.1582 0 24.1084 0.932617 24.3525 0.93457c0.130859 0.260742 0.607422 1.02734 1.91406 1.64648
l-5.87598 1.45996c12.4639 2.44141 24.9287 4.88281 37.3926 7.32324c63.7148 12.4795 115.961 36.5742 165.454 81.7129c45.0332 41.2744 86.2744 127.495 86.2744 197.283c0 66.9346 -41.166 153.784 -88.5527 195.442c-102.208 90.9648 -215.774 92.374 -414.586 92.3926
h-2.49902v23.334h2.5c201.671 -0.0546875 321.291 -2.37109 430.197 -98.2256c49.457 -43.3896 96.6982 -136.148 96.6982 -214.15c0 -70.5127 -41.9756 -165.803 -93.7588 -213.336c-107.979 -99.3896 -218.846 -101.533 -438.97 -101.578h-2.5v23.3486l2.48438 0.0146484
c0.898438 0.00585938 152.882 2.39746 154.427 2.39746h24.1523c2.37305 0.451172 4.27637 0.618164 5.8584 0.618164zM161.91 176.01c0 25.1562 6.39453 42.624 10.3916 53.1816c-0.147461 0.600586 -0.294922 1.20215 -0.441406 1.80371
c2.9834 7.02832 7.44043 14.0283 9.32617 18.834c1.27344 3.24414 2.25781 4.13281 5.31738 6.89648c9.46875 8.54688 -0.821289 2.12695 19.873 22.8223c3.11719 3.11621 27.8662 20.8184 43.0078 25.5518c14.7725 4.61719 15.1279 6.5459 22.5107 7.41602
c3.01855 0.353516 5.66016 0.865234 8.48242 1.41309c5.9707 1.16016 12.6943 2.45117 24.584 2.45117c24.6689 0 65.0889 -6.46484 100.842 -42.2168c27.001 -27.0029 40.3018 -58.96 40.3018 -96.708c0 -41.5166 -16.6807 -76.5225 -41.5303 -101.373
c-10.9551 -10.9551 -23.1504 -22.6748 -37.9883 -27.1143l-44.0811 -13.1904c-15.8125 1.00098 -31.625 2.00195 -47.4375 3.00195c-56 3.54395 -113.158 64.0215 -113.158 137.23zM304.094 60.1914c45.1035 0 71.8486 22.0488 85.5957 35.7959
c29.5908 29.5889 34.04 61.5176 34.04 81.8926c-0.100586 28.709 -9.82129 56.915 -34.0225 81.1152c-27.6787 27.6807 -58.3369 35.8057 -84.4912 35.8057c-18.085 0 -34.8018 -3.98633 -48.0801 -9.77441c-0.446289 -0.195312 -0.68457 -0.269531 -36.3564 -23.7129
c-1.82227 -2.61426 -11.0264 -16.0244 -27.8125 -40.5391l-0.369141 0.139648c-0.329102 -0.822266 -0.693359 -1.52344 -1.20703 -2.32617l0.328125 -0.168945c-4.9248 -14.0176 -7.26855 -27.8955 -7.26855 -42.0732c0 -23.9727 7.18652 -54.0107 34.2744 -81.0986
c27.8691 -27.8701 59.3975 -35.0557 85.3691 -35.0557z" />
  </g>

</svg>
