<?xml version="1.0" standalone="no"?>
<!DOCTYPE svg PUBLIC "-//W3C//DTD SVG 1.1//EN" "http://www.w3.org/Graphics/SVG/1.1/DTD/svg11.dtd" >
<svg xmlns="http://www.w3.org/2000/svg" xmlns:xlink="http://www.w3.org/1999/xlink" version="1.1" viewBox="-10 0 1020 1000">
  <g transform="matrix(1 0 0 -1 0 800)">
   <path fill="currentColor"
d="M30.3242 741.553h55.5146l17.1611 52.2256l17.1602 -52.2256h55.5156l-44.8672 -32.2959l17.1611 -52.2246l-44.9697 32.2959l-44.9707 -32.2959l17.1611 52.2246zM271 608l-12 60c128.725 89.7881 355.203 55.3633 442.457 48.5605
c0 -0.0107422 0.000976562 -0.0214844 0.000976562 -0.0322266c27.4463 0.582031 75.1855 -1.32129 107.268 -33.4033c40.1396 -40.1396 38.6152 -108.841 37.5254 -169.365c-0.395508 -21.9258 -0.433594 -33.2402 -0.22168 -41.9463
c26.3789 -43.8281 72.168 -89.959 89.3252 -129.607c6.95117 -16.0635 5.49219 -24.7637 2.64551 -40.2051l-12 -14l-79.501 -63.5771v-212.431c1.93945 -31.0869 1.82422 -79.2412 -27.416 -108.48c-26.0322 -26.0322 -182.507 -12.0195 -220.584 -13.0049
l-2.90137 0.0126953c-103.732 -7.2998 -296.108 50.6025 -326.603 92.1719c-18.5059 25.2275 -31.4014 41.2529 -57.9951 55.3086v70.0371c25.8174 -16.2627 49.624 -17.8066 70.1904 -60.6357c44.2188 -92.082 349.455 -105.734 451.309 -108.438l-0.499023 -0.962891
c50 12 34.1514 4.48145 42.5352 13.5361c19.1768 20.7119 3.97852 41.9688 5.50781 57.9648h-0.541992v2.14941c-0.253906 0.990234 -0.500977 1.94141 -0.738281 2.84863h0.738281v207.174v3.4873v1.33887h1.58203l104 88h1.13281
c4.9834 45.8955 -62.8379 92.1289 -94.2158 139.501l-3 4l-1 1c-2.02051 3.99219 0.0439453 4.02539 -2.08398 11.5605c-0.0371094 0.130859 -0.189453 0.24707 -0.174805 0.367188l0.258789 2.07227l0.0644531 1.49902
c0.00976562 0.226562 0.150391 3.89551 0.242188 6.24414c3.11426 79.1523 5.19727 173.389 -83.8154 173.771c-136.35 16.7461 -373.536 9.53418 -431.49 -46.5137zM543.003 215.216c-10.1494 -5.00391 -10.2578 -5.04785 -11.3203 -5.04785
c-0.62793 0 -1.88281 0.165039 -2.83398 1.34375c-0.124023 0.15332 -10.9004 15.6309 -11.3027 16.1807c-0.65625 0.896484 -1.46875 1.84668 -1.46875 3.34863c0 2.07617 1.36719 3.00781 3.91895 4.74512c13.7207 9.44434 31.1621 21.4785 33.3135 23.1055h8.86426
c1.41699 0 2.59375 0.00195313 3.58008 0.00195313c4.08203 0 4.91504 -0.0488281 6.10156 -0.549805l0.0986328 -0.0371094c0.727539 -0.268555 4.36816 -1.50098 8.91016 -1.50098h0.458984c3.00391 0 4.64453 0.268555 8.65332 2.08594h16.4355
c0.383789 -0.263672 31.7188 -21.7939 38.2207 -26.666c-3.09863 -4.67871 -4.55566 -6.93945 -8.72363 -13.8477c-1.96289 -3.25293 -3.14746 -5.36914 -4.21387 -6.43555c-1.11426 -1.11426 -2.3623 -1.12988 -2.59766 -1.12988
c-0.878906 0 -6.37988 1.55078 -15.3018 4.12109c5.05078 -55.666 5.05078 -55.666 5.05078 -55.7764v-4.15723h-79.3467c0.485352 6.31543 0.485352 6.31543 0.881836 13.6631c0.000976562 0 0.794922 14.1963 0.794922 14.1963l0.796875 13.9473
c0 0.00195312 0.698242 12.4707 1.0293 18.4092zM610.136 163.396c-0.0498047 0.575195 -5.19238 56.748 -5.19238 57.4072c0 2.01758 1.11523 3.43066 2.62109 3.89453v0.573242c0.756836 -0.193359 1.51367 -0.386719 2.27246 -0.581055l-0.0117188 -0.0400391
c3.3125 -0.789062 12.6816 -3.5752 17.2051 -4.7959l6.33496 10.248c-0.867188 0.600586 -1.83203 1.2666 -2.6875 1.85449c-14.4248 10.0215 -14.4248 10.0215 -26.7275 18.5439c-0.780273 0.0263672 -2.56152 0.0693359 -5.93262 0.0693359
c-2.07422 0 -4.14746 0.000976562 -6.2207 0.000976562c-2.85547 -1.08691 -5.65918 -2.05957 -10.5488 -2.05957c-3.0752 0 -6.03027 0.0498047 -12.4629 2.05957h-6.56738c-3.1377 0 -5.25293 -0.0429688 -6.23633 -0.078125
c-3.87109 -2.625 -24.1279 -16.6318 -29.8184 -20.5723c1.54688 -2.21191 3.63672 -5.22656 7.08398 -10.2002c3.4043 1.65918 11.6094 5.67676 13.2822 6.43164c0.466797 0.292969 1.32324 0.353516 1.51758 0.353516
c0.0253906 0 0.0351562 -0.00585937 0.0351562 -0.00585937c2.05371 0 3.69238 -1.55469 3.69238 -4.08203c0 -0.0917969 -0.292969 -4.81934 -0.53125 -9.1748l-2.82129 -49.8799c5.11914 -0.0283203 14.9014 -0.0410156 25.3594 -0.0410156zM496.86 311.324
c0 -2.25879 0.337891 -12.8613 0.337891 -12.9922c0 -20.2686 -5.54297 -60.998 -5.54297 -80.4219c0 -4.43652 0.303711 -7.5752 1.04492 -8.82227c0.148438 -0.0986328 0.947266 -0.641602 1.04883 -1.75098c4.55469 -48.96 39.7236 -96.2051 59.9482 -118.696
c3.51074 8.76465 14.1592 16.5205 25.2578 16.5205c8.51758 0 14.4287 -4.74316 14.4287 -11.9639c0 -10.8574 -12.8975 -22.4502 -26.4668 -22.4502c-0.0644531 0 -0.130859 0.000976562 -0.195312 0.000976562c-1.32129 -0.920898 -4.2373 -2.86426 -10.6719 -7.1543
c-0.395508 -0.263672 -0.852539 -0.395508 -1.30957 -0.395508c-1.0625 0 -1.0625 0 -6.4043 5.8252c-23.7207 25.6807 -49.7354 53.9502 -70.252 119.904c-7.16113 -31.7969 -26.3418 -65.2471 -43.7637 -87.3721c-11.6377 -14.7793 -24.0156 -38.3574 -28.2969 -38.3574
c-0.821289 0 -0.821289 0 -6.33496 4.36328c-5.13574 4.06445 -8.37988 6.62012 -8.55371 6.79492c-0.460938 0.459961 -0.692383 1.06543 -0.692383 1.66992c0 0.508789 0.163086 1.0166 0.490234 1.44141c7.68945 9.96777 32.7021 44.1602 33.0381 44.6016
c47.0361 61.7861 51.4482 142.229 51.4482 189.43c0 2.58496 -0.0136719 5.07129 -0.0341797 7.46973c0 1.30566 1.05762 2.36133 2.36133 2.36133c0.0263672 0 0.0263672 0 14.0625 -0.30957c2.13965 -0.046875 5.08887 -1.29785 5.08887 -6.11035
c0 -0.316406 -0.0371094 -1.51172 -0.0371094 -3.58594zM476.5 416l-84 82.5l16 16.5l67.5 -62l120 152l18 -12.5z" />
  </g>

</svg>
