<?xml version="1.0" standalone="no"?>
<!DOCTYPE svg PUBLIC "-//W3C//DTD SVG 1.1//EN" "http://www.w3.org/Graphics/SVG/1.1/DTD/svg11.dtd" >
<svg xmlns="http://www.w3.org/2000/svg" xmlns:xlink="http://www.w3.org/1999/xlink" version="1.1" viewBox="-10 0 1010 1000">
  <g transform="matrix(1 0 0 -1 0 800)">
   <path fill="currentColor"
d="M134.221 -61.2959zM340.548 -55.9424v263.013l80.8701 -0.34668l63.0251 -53.1485c1.23064 24.1913 1.23064 24.1913 2.20835 54.5l190.772 -2.45117v-66.4404l-54.499 -59.7695l32.7266 -4.33887l26 4l-4.22754 -136.465zM695.938 -84.5088
c4.71561 0 8.54759 3.82766 8.57399 8.39457l-1.86111 158.189c12.9088 -1.84411 12.9088 -1.84411 53.0537 -4.0831l-51.1944 59.6085v86.5381c0 4.71977 -3.8161 8.4982 -8.24219 8.54782l-211.617 -4.6113c-2.01115 37.2063 -2.01115 37.2063 -4.71543 58.173
l-57.9857 -52.4621l-3.87834 0.0156927s-96.0008 0.388525 -96.0416 0.388607c-4.71785 0 -8.57227 -3.83432 -8.57227 -8.54297v-300.105c0 -4.69954 3.84858 -8.54199 8.54199 -8.54199c0 0 373.898 -1.50871 373.938 -1.50879zM29.3242 18.2246h55.5146l17.1611 52.2256
l17.1602 -52.2256h55.5156l-44.8672 -32.2959l17.1611 -52.2246l-44.9697 32.2959l-44.9707 -32.2959l17.1611 52.2246zM644.797 735.04c1.71875 -30.543 -12.7959 -117.545 -4.25684 -122.111c8.38184 -90.1201 95.6328 -174.321 95.7441 -171.073l-14.7842 -9.85547
c-33.2627 36.2812 -70.377 72.1865 -98.6592 170.496c-6.2959 -43.2871 -33.334 -91.7705 -57.6289 -122.624c-14.7832 -18.7734 -21.1201 -33.792 -33.792 -47.8721l-16.8965 13.376c19.0088 24.6396 29.6777 40.5215 42.2402 57.0244
c64.1436 84.2568 66.8262 194.883 66.3291 253.489l17.9062 -0.395508c3.3584 -0.0712891 3.49512 -3.33594 3.55273 -4.73047c0.00683594 -0.15625 -0.21875 -7.49023 0.245117 -15.7236zM794.173 752.439l-124.418 -140.386l16.3018 -12.9902l105.984 123.144
c8.80371 -14.5977 21.3662 -31.8555 25.5498 -43.1846l29.7402 42.4082zM623.899 647.494zM847.876 529.677c5.49805 5.33008 14.6621 14.8252 14.6621 29.8262c0 5.67773 -3.52637 14.5713 -7.43848 18.7686c-5.0293 4.41699 -17.4453 9.82324 -28.4238 6.08398
c-8.2832 -2.72949 -16.5137 -10.5693 -17.6924 -11.748c-2.30273 -2.30176 -2.77148 -3.41406 -4.69043 -3.44238c-1.42285 0 -1.42285 0 -3.45605 2.03223c-3.22852 3.22852 -14.4316 14.4316 -28.0234 14.4316c-6.94922 0 -16.585 -4.62891 -19.5195 -7.56445
c-2.39258 -2.3916 -5.20312 -11.8145 -6.35742 -15.9805c-0.318359 -1.14941 -0.580078 -2.1084 -0.833008 -2.88867c0.148438 -15.6924 10.9492 -26.0215 17.3701 -32.1631c27.0068 -25.8271 37.6807 -36.1465 40.8223 -39.334
c3.44629 3.18066 17.9287 17.1084 43.5801 41.9785zM772.527 598.819c7.23145 0 17.4434 -1.20117 31.4766 -12.666c3.53125 2.88086 9.56836 6.92285 9.65625 6.82617c23.1777 13.79 45.3252 0.125977 50.4697 -5.01855
c0.483398 -0.483398 30.0762 -31.6289 -7.12988 -67.9609c-40.6553 -39.6973 -43.7012 -42.3398 -44.3711 -42.9189c-5.62109 -4.86035 -12.457 -4.39062 -16.666 -0.314453l-45.4824 44.043c-3.1084 3.1084 -5.92676 5.88281 -7.11426 8.54688
c-4.65723 6.22266 -10.625 14.5283 -10.625 30.2168c0 11.9297 6.7168 23.5977 10.9893 27.8691c5.49902 5.5 17.6846 11.377 28.7969 11.377z" />
  </g>

</svg>
