<?xml version="1.0" standalone="no"?>
<!DOCTYPE svg PUBLIC "-//W3C//DTD SVG 1.1//EN" "http://www.w3.org/Graphics/SVG/1.1/DTD/svg11.dtd" >
<svg xmlns="http://www.w3.org/2000/svg" xmlns:xlink="http://www.w3.org/1999/xlink" version="1.1" viewBox="-10 0 1008 1000">
  <g transform="matrix(1 0 0 -1 0 800)">
   <path fill="currentColor"
d="M332.481 97.6934l-82.2217 148.848l24.0225 10.1475l58.4395 -100.383l53.3027 101.418l27.2285 -11.0254zM249.568 -67.707v34.6641h38.626v22.0713h-38.626v34.6641h38.626v33.7148h31.3828v-33.7148h23.2197v31.2539h31.3828v-31.2539h41.292v-34.6641h-41.292
v-22.0713h41.292v-34.6641h-41.292v-36.1855h-31.3828v36.1855h-23.2197v-33.7246h-31.3828v33.7246h-38.626zM319.577 -33.043h23.2197v22.0713h-23.2197v-22.0713zM764.659 223.904c-0.529297 0 -0.985352 0.173828 -1.32227 0.358398l-214.094 -88.2627v-37.8242
c12.126 5.10742 24.251 10.2148 36.376 15.3213v-3.77051l-0.21875 -161.659h318.305l0.646484 155.446c10.9619 -6.48535 21.9238 -12.9697 32.8867 -19.4551l-0.677734 40.7051l-136.33 79.1182l1.46387 0.616211c-22.6963 11.7715 -24.457 12.7314 -36.2109 19.5508
c-0.288086 -0.102539 -0.56543 -0.144531 -0.824219 -0.144531zM868.594 -16.7148h-248.003l-0.665039 144.662l142.009 59.8174l107.859 -63.8086zM38.3545 -39.4795h55.5146l17.1611 52.2256l17.1602 -52.2256h55.5156l-44.8672 -32.2959l17.1611 -52.2246
l-44.9697 32.2959l-44.9707 -32.2959l17.1611 52.2246zM388.78 583.978c-84.9062 0 -154.002 29.7891 -154.002 66.4141c0 36.626 69.0957 66.415 154.002 66.415s154.001 -29.7891 154.001 -66.415c0 -36.625 -69.0947 -66.4141 -154.001 -66.4141zM388.78 709.551
c-79.2588 0.279297 -143.734 -26.3701 -143.734 -59.1592c0 -32.7881 64.4756 -59.4375 143.734 -59.4375c79.2588 0 143.734 26.6494 143.734 59.4375c0 32.7891 -64.4756 59.4385 -143.734 59.4385v-0.279297zM751.388 639.312
c-3.94434 0.174805 -8.2002 3.34375 -9.5 7.07227c-12.6533 28.4189 -47.0791 58.8262 -76.8438 67.8721c-29.8721 10.5557 -58.584 9.71094 -69.0342 3.4834l-5.38184 9.07812c14.7764 8.76074 47.5 7.70508 77.7939 -2.53418
c32.0215 -9.79785 69.1914 -42.5205 82.9658 -73.0439c21.1123 58.9004 81.1729 76.4219 99.1172 80.4336c27.0225 6.0166 50.5615 3.7998 59.8496 -5.7002l-7.49414 -7.38965c-5.48828 5.5957 -24.8057 8.44531 -49.9268 2.74512
c-16.7842 -3.69434 -72.834 -20.1611 -91.5176 -73.8887c-1.08984 -4.07617 -5.39355 -7.5752 -9.60547 -7.81055zM722.888 611.95c0 15.2002 12.9209 27.3613 28.5 27.3613c15.5811 0 28.5 -12.1611 28.5 -27.3613c0 -15.1992 -12.9189 -27.3594 -28.5 -27.3594
c-15.5791 0 -28.5 12.1602 -28.5 27.3594z" />
  </g>

</svg>
