<?xml version="1.0" standalone="no"?>
<!DOCTYPE svg PUBLIC "-//W3C//DTD SVG 1.1//EN" "http://www.w3.org/Graphics/SVG/1.1/DTD/svg11.dtd" >
<svg xmlns="http://www.w3.org/2000/svg" xmlns:xlink="http://www.w3.org/1999/xlink" version="1.1" viewBox="-10 0 1002 1000">
  <g transform="matrix(1 0 0 -1 0 800)">
   <path fill="currentColor"
d="M310.481 97.6934l-82.2217 148.848l24.0225 10.1475l58.4395 -100.383l53.3027 101.418l27.2285 -11.0254zM227.568 -67.707v34.6641h38.626v22.0713h-38.626v34.6641h38.626v33.7148h31.3828v-33.7148h23.2197v31.2539h31.3828v-31.2539h41.292v-34.6641h-41.292
v-22.0713h41.292v-34.6641h-41.292v-36.1855h-31.3828v36.1855h-23.2197v-33.7246h-31.3828v33.7246h-38.626zM297.577 -33.043h23.2197v22.0713h-23.2197v-22.0713zM742.659 223.904c-0.529297 0 -0.985352 0.173828 -1.32227 0.358398l-214.094 -88.2627v-37.8242
c12.126 5.10742 24.251 10.2148 36.376 15.3213v-3.77051l-0.21875 -161.659h318.305l0.646484 155.446c10.9619 -6.48535 21.9238 -12.9697 32.8867 -19.4551l-0.677734 40.7051l-136.33 79.1182l1.46387 0.616211c-22.6963 11.7715 -24.457 12.7314 -36.2109 19.5508
c-0.288086 -0.102539 -0.56543 -0.144531 -0.824219 -0.144531zM846.594 -16.7148h-248.003l-0.665039 144.662l142.009 59.8174l107.859 -63.8086zM35.3545 -98.4795h55.5146l17.1611 52.2256l17.1602 -52.2256h55.5156l-44.8672 -32.2959l17.1611 -52.2246
l-44.9697 32.2959l-44.9707 -32.2959l17.1611 52.2246zM700 687.069c80.6943 0 146.417 -53.5693 146.417 -119.486c0 -65.917 -65.7227 -119.583 -146.417 -119.583s-146.417 53.5693 -146.417 119.486c0 65.916 65.7227 119.583 146.417 119.583zM700 457.722
c75.3467 0 136.694 49.1943 136.694 109.765c0 60.5693 -61.3477 109.86 -136.694 109.86s-136.694 -49.1943 -136.694 -109.764c0 -60.5693 61.3477 -109.861 136.694 -109.861zM630.875 561.652l-9.72168 -2.23633c19.1504 -78.0234 137.021 -74.6865 157.791 0
l-9.72266 2.72266c-18.5449 -65.584 -120.656 -68.6084 -138.347 -0.486328zM730.333 626.967c0 7.34961 5.25 13.2998 11.9004 13.2998c6.65039 0 11.9004 -5.9502 11.9004 -13.2998c0 -7.35059 -5.25 -13.3008 -11.9004 -13.3008
c-6.65039 0 -11.9004 5.9502 -11.9004 13.3008zM645.634 627.666c0 7 5.25 12.6006 11.8994 12.6006c6.65039 0 11.9004 -5.60059 11.9004 -12.6006s-5.25 -12.5996 -11.9004 -12.5996c-6.64941 0 -11.8994 5.59961 -11.8994 12.5996zM319 687.069
c80.6943 0 146.417 -53.5693 146.417 -119.486c0 -65.917 -65.7227 -119.583 -146.417 -119.583s-146.417 53.5693 -146.417 119.486c0 65.916 65.7227 119.583 146.417 119.583zM319 457.722c75.3467 0 136.694 49.1943 136.694 109.765
c0 60.5693 -61.3477 109.86 -136.694 109.86s-136.694 -49.1943 -136.694 -109.764c0 -60.5693 61.3477 -109.861 136.694 -109.861zM249.875 561.652l-9.72168 -2.23633c19.1504 -78.0234 137.021 -74.6865 157.791 0l-9.72266 2.72266
c-18.5449 -65.584 -120.656 -68.6084 -138.347 -0.486328zM349.333 626.967c0 7.34961 5.25 13.2998 11.9004 13.2998c6.65039 0 11.9004 -5.9502 11.9004 -13.2998c0 -7.35059 -5.25 -13.3008 -11.9004 -13.3008c-6.65039 0 -11.9004 5.9502 -11.9004 13.3008z
M264.634 627.666c0 7 5.25 12.6006 11.8994 12.6006c6.65039 0 11.9004 -5.60059 11.9004 -12.6006s-5.25 -12.5996 -11.9004 -12.5996c-6.64941 0 -11.8994 5.59961 -11.8994 12.5996z" />
  </g>

</svg>
