<?xml version="1.0" standalone="no"?>
<!DOCTYPE svg PUBLIC "-//W3C//DTD SVG 1.1//EN" "http://www.w3.org/Graphics/SVG/1.1/DTD/svg11.dtd" >
<svg xmlns="http://www.w3.org/2000/svg" xmlns:xlink="http://www.w3.org/1999/xlink" version="1.1" viewBox="-10 0 1020 1000">
  <g transform="matrix(1 0 0 -1 0 800)">
   <path fill="currentColor"
d="M30.3242 741.553h55.5146l17.1611 52.2256l17.1602 -52.2256h55.5156l-44.8672 -32.2959l17.1611 -52.2246l-44.9697 32.2959l-44.9707 -32.2959l17.1611 52.2246zM271 608l-12 60c128.725 89.7881 355.203 55.3633 442.457 48.5605
c0 -0.0107422 0.000976562 -0.0214844 0.000976562 -0.0322266c27.4463 0.582031 75.1855 -1.32129 107.268 -33.4033c40.1396 -40.1396 38.6152 -108.841 37.5254 -169.365c-0.395508 -21.9258 -0.433594 -33.2402 -0.22168 -41.9463
c26.3789 -43.8281 72.168 -89.959 89.3252 -129.607c6.95117 -16.0635 5.49219 -24.7637 2.64551 -40.2051l-12 -14l-79.501 -63.5771v-212.431c1.93945 -31.0869 1.82422 -79.2412 -27.416 -108.48c-26.0322 -26.0322 -182.507 -12.0195 -220.584 -13.0049
l-2.90137 0.0126953c-103.732 -7.2998 -296.108 50.6025 -326.603 92.1719c-18.5059 25.2275 -31.4014 41.2529 -57.9951 55.3086v70.0371c25.8174 -16.2627 49.624 -17.8066 70.1904 -60.6357c44.2188 -92.082 349.455 -105.734 451.309 -108.438l-0.499023 -0.962891
c50 12 34.1514 4.48145 42.5352 13.5361c19.1768 20.7119 3.97852 41.9688 5.50781 57.9648h-0.541992v2.14941c-0.253906 0.990234 -0.500977 1.94141 -0.738281 2.84863h0.738281v207.174v3.4873v1.33887h1.58203l104 88h1.13281
c4.9834 45.8955 -62.8379 92.1289 -94.2158 139.501l-3 4l-1 1c-2.02051 3.99219 0.0439453 4.02539 -2.08398 11.5605c-0.0371094 0.130859 -0.189453 0.24707 -0.174805 0.367188l0.258789 2.07227l0.0644531 1.49902
c0.00976562 0.226562 0.150391 3.89551 0.242188 6.24414c3.11426 79.1523 5.19727 173.389 -83.8154 173.771c-136.35 16.7461 -373.536 9.53418 -431.49 -46.5137zM494.906 164.218c28.4131 0 57.5713 15.7676 66.4502 47.1699l1.18652 4.19434l18.1299 -5.07617
c-2.72461 -9.7998 -6.80469 -24.4707 -21.4189 -39.085c-16.9541 -16.9541 -40.877 -25.6465 -64.6162 -25.6465c-22.5762 0 -44.9854 7.86133 -61.0771 23.9531c-14.9834 14.9834 -18.8594 30.7764 -21.3721 41.0107l18.1953 4.18457
c2.33887 -9.00684 5.37988 -20.7168 16.7832 -32.1211c12.4561 -12.4551 30.0146 -18.584 47.7393 -18.584zM346.209 217.043c0 68.2793 67.5137 123.957 150.791 123.957c83.2832 0 150.791 -55.584 150.791 -123.86c0 -68.2803 -67.5137 -123.957 -150.791 -123.957
c-83.2832 0 -150.791 55.584 -150.791 123.86zM364.68 217.14c0 -58.1982 59.5742 -105.487 132.32 -105.487c72.7422 0 132.32 47.1895 132.32 105.391c0 58.1982 -59.5742 105.486 -132.32 105.486c-72.7422 0 -132.32 -47.1885 -132.32 -105.39zM531.184 263.573
c0 7.34961 5.25 13.2998 11.8994 13.2998c6.65039 0 11.9004 -5.9502 11.9004 -13.2998c0 -7.35059 -5.25 -13.2998 -11.9004 -13.2998c-6.64941 0 -11.8994 5.94922 -11.8994 13.2998zM446.483 264.273c0 7 5.25 12.5996 11.9004 12.5996
c6.64941 0 11.8994 -5.59961 11.8994 -12.5996s-5.25 -12.6006 -11.8994 -12.6006c-6.65039 0 -11.9004 5.60059 -11.9004 12.6006zM645 423l-262.439 0.874023v17.3184h235.305v98.334h-235.305v17.3174l260.107 -1.45703z" />
  </g>

</svg>
