<?xml version="1.0" standalone="no"?>
<!DOCTYPE svg PUBLIC "-//W3C//DTD SVG 1.1//EN" "http://www.w3.org/Graphics/SVG/1.1/DTD/svg11.dtd" >
<svg xmlns="http://www.w3.org/2000/svg" xmlns:xlink="http://www.w3.org/1999/xlink" version="1.1" viewBox="-10 0 1051 1000">
  <g transform="matrix(1 0 0 -1 0 800)">
   <path fill="currentColor"
d="M271 608l-12 60c128.725 89.7881 355.203 55.3633 442.457 48.5605c0 -0.0107422 0.000976562 -0.0214844 0.000976562 -0.0322266c27.4463 0.582031 75.1855 -1.32129 107.268 -33.4033c40.1396 -40.1396 38.6152 -108.841 37.5254 -169.365
c-0.395508 -21.9258 -0.433594 -33.2402 -0.22168 -41.9463c26.3789 -43.8281 72.168 -89.959 89.3252 -129.607c6.95117 -16.0635 5.49219 -24.7637 2.64551 -40.2051l-12 -14l-79.501 -63.5771v-212.431c1.93945 -31.0869 1.82422 -79.2412 -27.416 -108.48
c-26.0322 -26.0322 -182.507 -12.0195 -220.584 -13.0049l-2.90137 0.0126953c-103.732 -7.2998 -296.108 50.6025 -326.603 92.1719c-18.5059 25.2275 -31.4014 41.2529 -57.9951 55.3086v70.0371c25.8174 -16.2627 49.624 -17.8066 70.1904 -60.6357
c44.2188 -92.082 349.455 -105.734 451.309 -108.438l-0.499023 -0.962891c50 12 34.1514 4.48145 42.5352 13.5361c19.1768 20.7119 3.97852 41.9688 5.50781 57.9648h-0.541992v2.14941c-0.253906 0.990234 -0.500977 1.94141 -0.738281 2.84863h0.738281v207.174v3.4873
v1.33887h1.58203l104 88h1.13281c4.9834 45.8955 -62.8379 92.1289 -94.2158 139.501l-3 4l-1 1c-2.02051 3.99219 0.0439453 4.02539 -2.08398 11.5605c-0.0371094 0.130859 -0.189453 0.24707 -0.174805 0.367188l0.258789 2.07227l0.0644531 1.49902
c0.00976562 0.226562 0.150391 3.89551 0.242188 6.24414c3.11426 79.1523 14.1973 176.389 -74.8154 176.771c-136.35 16.7461 -373.536 9.53418 -431.49 -46.5137zM30.3545 728.521h55.5146l17.1611 52.2256l17.1602 -52.2256h55.5156l-44.8672 -32.2959l17.1611 -52.2246
l-44.9697 32.2959l-44.9707 -32.2959l17.1611 52.2246zM513.926 395v18.333h27.5898v22.1914h-27.5898v18.333h27.5898v24.082h15.9883v-24.082h23.0137v22.3242h15.9883v-22.3242h29.4941v-18.333h-29.4941v-22.1914h29.4941v-18.333h-29.4941v-25.8477h-15.9883v25.8477
h-23.0137v-24.0898h-15.9883v24.0898h-27.5898zM568.905 498.94l-54.1631 98.0508l11.2627 4.75781l43.2412 -74.2773l39.4219 75.0068l13.417 -5.43359zM580.518 435.524h-23.0137v-22.1914h23.0137v22.1914zM478.436 247.074l1.69629 1.69727
c0.462891 0.462891 0.328125 1.19922 0 1.52734l-50.9121 50.9121c-0.461914 0.461914 -1.19824 0.328125 -1.52637 0l-1.69727 -1.69727c-0.461914 -0.462891 -0.328125 -1.2002 0 -1.52734l50.9111 -50.9121c0.462891 -0.461914 1.2002 -0.327148 1.52832 0z
M621.46 247.75l-1.69629 1.69727c-0.462891 0.462891 -0.328125 1.2002 0 1.52734l50.9111 50.9121c0.461914 0.461914 1.19922 0.328125 1.52734 0l1.69727 -1.69727c0.461914 -0.461914 0.328125 -1.19922 0 -1.52734l-50.9111 -50.9121
c-0.463867 -0.461914 -1.2002 -0.327148 -1.52832 0zM550 267.926c62.25 0 112.95 -41.3252 112.95 -92.1758c0 -50.8496 -50.7002 -92.25 -112.95 -92.25s-112.95 41.3262 -112.95 92.1758s50.7002 92.25 112.95 92.25zM550 91c58.125 0 105.45 37.9502 105.45 84.6758
c0 46.7246 -47.3252 84.749 -105.45 84.749s-105.45 -37.9492 -105.45 -84.6748c0 -46.7246 47.3252 -84.75 105.45 -84.75z" />
  </g>

</svg>
