<?xml version="1.0" standalone="no"?>
<!DOCTYPE svg PUBLIC "-//W3C//DTD SVG 1.1//EN" "http://www.w3.org/Graphics/SVG/1.1/DTD/svg11.dtd" >
<svg xmlns="http://www.w3.org/2000/svg" xmlns:xlink="http://www.w3.org/1999/xlink" version="1.1" viewBox="-10 0 1008 1000">
  <g transform="matrix(1 0 0 -1 0 800)">
   <path fill="currentColor"
d="M348.481 97.6934l-82.2217 148.848l24.0225 10.1475l58.4395 -100.383l53.3027 101.418l27.2285 -11.0254zM265.568 -67.707v34.6641h38.626v22.0713h-38.626v34.6641h38.626v33.7148h31.3828v-33.7148h23.2197v31.2539h31.3828v-31.2539h41.292v-34.6641h-41.292
v-22.0713h41.292v-34.6641h-41.292v-36.1855h-31.3828v36.1855h-23.2197v-33.7246h-31.3828v33.7246h-38.626zM335.577 -33.043h23.2197v22.0713h-23.2197v-22.0713zM780.659 223.904c-0.529297 0 -0.985352 0.173828 -1.32227 0.358398l-214.094 -88.2627v-37.8242
c12.126 5.10742 24.251 10.2148 36.376 15.3213v-3.77051l-0.21875 -161.659h318.305l0.646484 155.446c10.9619 -6.48535 21.9238 -12.9697 32.8867 -19.4551l-0.677734 40.7051l-136.33 79.1182l1.46387 0.616211c-22.6963 11.7715 -24.457 12.7314 -36.2109 19.5508
c-0.288086 -0.102539 -0.56543 -0.144531 -0.824219 -0.144531zM884.594 -16.7148h-248.003l-0.665039 144.662l142.009 59.8174l107.859 -63.8086zM63.3545 -23.4795h55.5146l17.1611 52.2256l17.1602 -52.2256h55.5156l-44.8672 -32.2959l17.1611 -52.2246
l-44.9697 32.2959l-44.9707 -32.2959l17.1611 52.2246zM269.768 737.461c0 5.94174 1.62484 13.649 9.23226 13.649c2.87207 0 6.01562 -1.01074 8.25781 -3.4873l84.7422 -86.623c0.130322 -0.133214 0.259766 -0.265625 0.384766 -0.40332
c31.0303 17.4717 74.1853 30.4023 114.615 30.4023c42.0393 0 80.948 -11.0472 112.668 -29.7843c0.0224551 0.0231448 0.0450543 0.0460891 0.0677949 0.0688297l84.8535 84.8535c1.43482 1.43482 3.11005 2.02554 4.71982 2.02554
c2.87161 0 3.71254 -0.840927 7.72756 -4.85595c1.4322 -1.43402 2.02144 -3.1076 2.02144 -4.71587c0 -1.88701 -0.811195 -3.68411 -2.02375 -4.89883l-82.3258 -82.3248c40.1844 -29.0924 65.5393 -71.6594 65.5393 -118.993
c0 -87.4448 -86.5398 -158.748 -193.248 -158.748c-106.708 0 -193.249 71.177 -193.249 158.623c0 45.4382 23.3656 86.5179 60.7852 115.5l-81.2875 81.2866c-2.14096 2.14479 -3.48092 5.108 -3.48092 8.42543zM316.249 532.374
c0 -75.1654 76.8479 -136.25 170.751 -136.25c93.8983 0 170.751 60.958 170.751 136.125c0 75.1664 -76.8479 136.252 -170.751 136.252c-93.8993 0 -170.751 -60.9588 -170.751 -136.127z" />
  </g>

</svg>
