<?xml version="1.0" standalone="no"?>
<!DOCTYPE svg PUBLIC "-//W3C//DTD SVG 1.1//EN" "http://www.w3.org/Graphics/SVG/1.1/DTD/svg11.dtd" >
<svg xmlns="http://www.w3.org/2000/svg" xmlns:xlink="http://www.w3.org/1999/xlink" version="1.1" viewBox="-10 0 927 1000">
  <g transform="matrix(1 0 0 -1 0 800)">
   <path fill="currentColor"
d="M483 432.606c-223.438 0 -405.268 78.3926 -405.268 174.774c0 96.3838 181.83 174.776 405.268 174.776s405.267 -78.3926 405.267 -174.776c0 -96.3818 -181.829 -174.774 -405.267 -174.774zM483 763.063c-208.577 0.734375 -378.249 -69.3955 -378.249 -155.683
c0 -86.2852 169.672 -156.415 378.249 -156.415c208.576 0 378.247 70.1299 378.247 156.415c0 86.2871 -169.671 156.417 -378.247 156.417v-0.734375zM480 108c-10.3809 0.460938 -21.5811 8.79883 -25 18.6113c-33.2988 74.7881 -123.895 154.806 -202.223 178.611
c-78.6104 27.7773 -154.166 25.5557 -181.666 9.16699l-14.167 23.8887c38.8887 23.0557 125 20.2773 204.723 -6.66699c84.2686 -25.7832 182.082 -111.898 218.333 -192.222c55.5557 155 213.611 201.11 260.833 211.666c71.1113 15.834 133.056 10 157.5 -15
l-19.7217 -19.4443c-14.4443 14.7227 -65.2783 22.2227 -131.389 7.22266c-44.167 -9.72266 -191.667 -53.0557 -240.834 -194.444c-2.86914 -10.7246 -14.1934 -19.9336 -25.2773 -20.5557zM405 35.999c0 40 34 72 75 72s75 -32 75 -72s-34 -72 -75 -72s-75 32 -75 72z" />
  </g>

</svg>
