<?xml version="1.0" standalone="no"?>
<!DOCTYPE svg PUBLIC "-//W3C//DTD SVG 1.1//EN" "http://www.w3.org/Graphics/SVG/1.1/DTD/svg11.dtd" >
<svg xmlns="http://www.w3.org/2000/svg" xmlns:xlink="http://www.w3.org/1999/xlink" version="1.1" viewBox="-10 0 1010 1000">
  <g transform="matrix(1 0 0 -1 0 800)">
   <path fill="currentColor"
d="M134.221 -61.2959zM340.548 -55.9424v263.013l80.8701 -0.34668l63.0251 -53.1485c1.23064 24.1913 1.23064 24.1913 2.20835 54.5l190.772 -2.45117v-66.4404l-54.499 -59.7695l32.7266 -4.33887l26 4l-4.22754 -136.465zM695.938 -84.5088
c4.71561 0 8.54759 3.82766 8.57399 8.39457l-1.86111 158.189c12.9088 -1.84411 12.9088 -1.84411 53.0537 -4.0831l-51.1944 59.6085v86.5381c0 4.71977 -3.8161 8.4982 -8.24219 8.54782l-211.617 -4.6113c-2.01115 37.2063 -2.01115 37.2063 -4.71543 58.173
l-57.9857 -52.4621l-3.87834 0.0156927s-96.0008 0.388525 -96.0416 0.388607c-4.71785 0 -8.57227 -3.83432 -8.57227 -8.54297v-300.105c0 -4.69954 3.84858 -8.54199 8.54199 -8.54199c0 0 373.898 -1.50871 373.938 -1.50879zM29.3242 18.2246h55.5146l17.1611 52.2256
l17.1602 -52.2256h55.5156l-44.8672 -32.2959l17.1611 -52.2246l-44.9697 32.2959l-44.9707 -32.2959l17.1611 52.2246zM692.001 443h-0.269531c-21.9805 0 -52.5137 12.5322 -68.0312 28.0996c-31.7998 31.9004 -37.6396 81.9199 -14.8994 127.7
c7.69922 15.5 16.7197 30.6484 25.6006 45.2002c4.69922 7.7002 9.3584 15.5225 13.7988 23.2998l31.7998 55.7002l1.50098 2.90039c7.07031 13.6621 8.79883 17.0996 12.7998 17.0996h1.89941c3.40039 0 5.59375 -5.70312 8.5 -12.0996
c0.5 -1.10059 0.954102 -2.06934 1.2002 -2.50098l49.2998 -86.5c3.48242 -6.10938 7.08984 -12.1387 11.1006 -18c7.06445 -10.3223 16.8311 -28.0186 21.7998 -39.5c1.2002 -2.93262 2.18945 -5.94531 3.09961 -9c2.35547 -7.9043 4.2666 -21.0146 4.2666 -29.2637
c0 -46.9365 -37.7363 -90.6094 -83.5664 -100.735c-5.42773 -1.19922 -14.3418 -2.40039 -19.8994 -2.40039zM694.301 728.601c0 0 -2.94043 -5.83105 -3.7998 -7.50098l-1.80078 -3.5l-31.7998 -55.5c-4.51953 -7.88867 -9.26465 -15.6611 -14 -23.499
c-8.7002 -14.4004 -17.7451 -29.2783 -25.1992 -44.4004c-20.8008 -42.2002 -15.6992 -87.5977 12.8994 -116c14.0771 -13.9805 41.6055 -25.3271 61.4453 -25.3271c4.95215 0 12.8828 0.938477 17.7549 1.82617c41.9082 7.63672 75.9199 48.4053 75.9199 91.0029
c0 7.70605 -2.00293 19.8877 -4.12012 27.2979c-0.799805 2.7998 -1.73242 5.5332 -2.7998 8.2002c-4.77734 10.9805 -14.4512 27.71 -20.9004 37.7998c-3.89941 6.10059 -7.82129 12.1875 -11.3994 18.3994l-49.3008 85.6006
c-0.302734 0.526367 -0.787109 2.02539 -1.59961 3.40039zM326.761 446.556h-0.269531c-21.9805 0 -52.5137 12.5322 -68.0312 28.0996c-31.7998 31.9004 -37.6396 81.9199 -14.8994 127.7c7.69922 15.5 16.7197 30.6484 25.6006 45.2002
c4.69922 7.7002 9.3584 15.5225 13.7988 23.2998l31.7998 55.7002l1.50098 2.90039c7.07031 13.6621 8.79883 17.0996 12.7998 17.0996h1.89941c3.40039 0 5.59375 -5.70312 8.5 -12.0996c0.5 -1.10059 0.954102 -2.06934 1.2002 -2.50098l49.2998 -86.5
c3.48242 -6.10938 7.08984 -12.1387 11.1006 -18c7.06445 -10.3223 16.8311 -28.0186 21.7998 -39.5c1.2002 -2.93262 2.18945 -5.94531 3.09961 -9c2.35547 -7.9043 4.2666 -21.0146 4.2666 -29.2637c0 -46.9365 -37.7363 -90.6094 -83.5664 -100.735
c-5.42773 -1.19922 -14.3418 -2.40039 -19.8994 -2.40039zM329.061 732.156c0 0 -2.94043 -5.83105 -3.7998 -7.50098l-1.80078 -3.5l-31.7998 -55.5c-4.51953 -7.88867 -9.26465 -15.6611 -14 -23.499c-8.7002 -14.4004 -17.7451 -29.2783 -25.1992 -44.4004
c-20.8008 -42.2002 -15.6992 -87.5977 12.8994 -116c14.0771 -13.9805 41.6055 -25.3271 61.4453 -25.3271c4.95215 0 12.8828 0.938477 17.7549 1.82617c41.9082 7.63672 75.9199 48.4053 75.9199 91.0029c0 7.70605 -2.00293 19.8877 -4.12012 27.2979
c-0.799805 2.7998 -1.73242 5.5332 -2.7998 8.2002c-4.77734 10.9805 -14.4512 27.71 -20.9004 37.7998c-3.89941 6.10059 -7.82129 12.1875 -11.3994 18.3994l-49.3008 85.6006c-0.302734 0.526367 -0.787109 2.02539 -1.59961 3.40039z" />
  </g>

</svg>
