<?xml version="1.0" standalone="no"?>
<!DOCTYPE svg PUBLIC "-//W3C//DTD SVG 1.1//EN" "http://www.w3.org/Graphics/SVG/1.1/DTD/svg11.dtd" >
<svg xmlns="http://www.w3.org/2000/svg" xmlns:xlink="http://www.w3.org/1999/xlink" version="1.1" viewBox="-10 0 1589 1000">
  <g transform="matrix(1 0 0 -1 0 800)">
   <path fill="currentColor"
d="M1049.47 533.112l-7.7998 39c83.6709 58.3613 230.882 35.9854 287.597 31.5635c0 -0.00683594 0.00097656 -0.0136719 0.00097656 -0.0205078c17.8398 0.37793 48.8701 -0.858398 69.7236 -21.7119c26.0908 -26.0908 25.0996 -70.7471 24.3916 -110.088
c-0.256836 -14.252 -0.282227 -21.6064 -0.144531 -27.2646c17.1465 -28.4883 46.9092 -58.4736 58.0615 -84.2451c4.51855 -10.4414 3.57031 -16.0967 1.71973 -26.1328l-7.7998 -9.10059l-51.6758 -41.3252v-138.08c1.26074 -20.2061 1.18555 -51.5068 -17.8203 -70.5117
c-16.9209 -16.9209 -118.63 -7.8125 -143.38 -8.45312l-1.88574 0.0078125c-67.4258 -4.74512 -192.471 32.8916 -212.292 59.9121c-12.0283 16.3975 -20.4102 26.8145 -37.6963 35.9502v45.5244c16.7812 -10.5713 32.2549 -11.5742 45.623 -39.4131
c28.7422 -59.8535 227.146 -68.7275 293.351 -70.4854l-0.324219 -0.625977c32.5 7.7998 22.1982 2.91309 27.6484 8.79883c12.4648 13.4629 2.58594 27.2793 3.58008 37.6768h-0.352539v1.39746c-0.165039 0.643555 -0.325195 1.26172 -0.479492 1.85156h0.479492v134.663
v2.2666v0.870117h1.02832l67.5996 57.2002h0.736328c3.23926 29.832 -40.8447 59.8838 -61.2402 90.6758l-1.94922 2.59961l-0.650391 0.650391c-1.31348 2.59473 0.0283203 2.61621 -1.35449 7.51367c-0.0244141 0.0859375 -0.123047 0.161133 -0.114258 0.239258
l0.168945 1.34668l0.0419922 0.974609c0.00585938 0.147461 0.0976562 2.53223 0.157227 4.05859c2.02441 51.4492 3.37793 112.703 -54.4805 112.951c-88.627 10.8857 -242.798 6.19727 -280.469 -30.2334v-0.000976562zM66.6855 722.992h36.085l11.1543 33.9463
l11.1543 -33.9463h36.085l-29.1641 -20.9922l11.1553 -33.9463l-29.2305 20.9922l-29.2305 -20.9922l11.1543 33.9463zM259.159 528.842l-7.7998 39c83.6709 58.3623 230.882 35.9863 287.598 31.5645v-0.0205078c17.8408 0.37793 48.8711 -0.859375 69.7246 -21.7119
c26.0908 -26.0908 25.0996 -70.7471 24.3906 -110.088c-0.256836 -14.252 -0.28125 -21.6064 -0.143555 -27.2646c17.1465 -28.4883 46.9092 -58.4736 58.0615 -84.2451c4.51758 -10.4414 3.56934 -16.0967 1.71973 -26.1338l-7.80078 -9.09961l-51.6748 -41.3252v-138.08
c1.25977 -20.2061 1.18555 -51.5068 -17.8213 -70.5117c-16.9209 -16.9209 -118.629 -7.8125 -143.379 -8.45312l-1.88574 0.0078125c-67.4268 -4.74512 -192.471 32.8916 -212.292 59.9121c-12.0293 16.3975 -20.4111 26.8145 -37.6973 35.9502v45.5244
c16.7812 -10.5713 32.2559 -11.5742 45.624 -39.4131c28.7422 -59.8535 227.146 -68.7275 293.351 -70.4854l-0.324219 -0.625977c32.5 7.7998 22.1982 2.91309 27.6475 8.79883c12.4648 13.4629 2.58691 27.2793 3.58008 37.6768h-0.351562v1.39746
c-0.165039 0.643555 -0.326172 1.26172 -0.480469 1.85156h0.480469v134.663v2.2666v0.870117h1.02832l67.5996 57.2002h0.736328c3.23926 29.832 -40.8447 59.8838 -61.2402 90.6758l-1.9502 2.59961l-0.649414 0.650391
c-1.31348 2.59473 0.0283203 2.61621 -1.35449 7.51367c-0.0244141 0.0849609 -0.124023 0.161133 -0.114258 0.239258l0.167969 1.34668l0.0419922 0.974609c0.00683594 0.147461 0.0976562 2.53223 0.158203 4.05859c2.02344 51.4492 3.37793 112.702 -54.4805 112.951
c-88.627 10.8848 -242.799 6.19727 -280.469 -30.2334zM465.913 264.491c0 0.382812 0.0576172 1.59277 0.0576172 1.99805c0 3.99414 -2.97852 11.7764 -5.95898 15.3545c-3.77344 3.01465 -11.8955 6.02344 -16.1074 6.02344
c-12.1846 0 -20.5371 -8.35645 -27.3652 -15.1865c-2.33008 -2.32812 -5.39062 -3.49609 -8.44727 -3.49609c-4.94922 0 -7.39453 2.44434 -10.251 5.30078c-0.864258 0.864258 -10.6494 9.74512 -17.7354 12.083c-2.9375 0.970703 -5.17188 1.28809 -7.625 1.28809
c-4.09766 0 -12.0771 -2.88184 -16.0791 -6.00977c-2.00781 -3.17773 -2.05957 -3.25879 -5.92676 -16.5566c0.109375 -2.76855 0.802734 -8.4668 4.30957 -14.541c0.0341797 -0.0585938 4.88867 -7.50391 9.35742 -11.8154l43.9814 -42.4248l43.6885 42.0488
c10.4131 10.4385 14.1016 19.3213 14.1016 25.9336v0zM372.155 316.502c5.99805 0 19.0791 -0.546875 35.7266 -12.9004c15.1152 11.2285 24.6826 12.8779 35.8975 13.0996c14.1416 0 30.082 -7.83594 36.3828 -14.3926c8.66309 -9.01367 14.4092 -23.2705 14.4092 -35.7988
v-0.107422c0 -8.97949 -1.33496 -27.6074 -22.8076 -48.5771c-43.6699 -42.6426 -49.041 -47.5654 -50.3652 -48.7266c-3.53516 -3.39453 -8.23633 -5.42773 -13.3906 -5.42773c-5.29199 0 -10.0234 2.14355 -13.5361 5.54492c0 0 -46.6055 45.1318 -49.958 48.3779
c-0.0654297 0.0566406 -22.7568 19.5488 -22.8428 46.4482c-0.0390625 0.824219 -0.0615234 1.72266 -0.0615234 2.52734c0 14.498 8.33301 30.2842 14.7559 36.1152c9.15137 8.30859 23.3936 13.8174 35.79 13.8174zM238.585 399.64v30.7354h131.129v33.6787h-131.129
v30.8301l165.887 -0.929688l1.67188 -94.873zM803.101 498c0 20.25 16.1992 36.4502 36.4492 36.4502s36.4502 -16.2002 36.4502 -36.4502s-16.2002 -36.4502 -36.4502 -36.4502s-36.4492 16.2002 -36.4492 36.4502z" />
  </g>

</svg>
