<?xml version="1.0" standalone="no"?>
<!DOCTYPE svg PUBLIC "-//W3C//DTD SVG 1.1//EN" "http://www.w3.org/Graphics/SVG/1.1/DTD/svg11.dtd" >
<svg xmlns="http://www.w3.org/2000/svg" xmlns:xlink="http://www.w3.org/1999/xlink" version="1.1" viewBox="-10 0 961 1000">
  <g transform="matrix(1 0 0 -1 0 800)">
   <path fill="currentColor"
d="M30.3242 741.553h55.5146l17.1611 52.2256l17.1602 -52.2256h55.5156l-44.8672 -32.2959l17.1611 -52.2246l-44.9697 32.2959l-44.9707 -32.2959l17.1611 52.2246zM271 608l-12 60c128.725 89.7881 355.203 55.3633 442.457 48.5605
c0 -0.0107422 0.000976562 -0.0214844 0.000976562 -0.0322266c27.4463 0.582031 75.1855 -1.32129 107.268 -33.4033c40.1396 -40.1396 38.6152 -108.841 37.5254 -169.365c-0.395508 -21.9258 -0.433594 -33.2402 -0.22168 -41.9463
c26.3789 -43.8281 72.168 -89.959 89.3252 -129.607c6.95117 -16.0635 5.49219 -24.7637 2.64551 -40.2051l-12 -14l-79.501 -63.5771v-212.431c1.93945 -31.0869 1.82422 -79.2412 -27.416 -108.48c-26.0322 -26.0322 -182.507 -12.0195 -220.584 -13.0049
l-2.90137 0.0126953c-103.732 -7.2998 -296.108 50.6025 -326.603 92.1719c-18.5059 25.2275 -31.4014 41.2529 -57.9951 55.3086v70.0371c25.8174 -16.2627 49.624 -17.8066 70.1904 -60.6357c44.2188 -92.082 349.455 -105.734 451.309 -108.438l-0.499023 -0.962891
c50 12 34.1514 4.48145 42.5352 13.5361c19.1768 20.7119 3.97852 41.9688 5.50781 57.9648h-0.541992v2.14941c-0.253906 0.990234 -0.500977 1.94141 -0.738281 2.84863h0.738281v207.174v3.4873v1.33887h1.58203l104 88h1.13281
c4.9834 45.8955 -62.8379 92.1289 -94.2158 139.501l-3 4l-1 1c-2.02051 3.99219 0.0439453 4.02539 -2.08398 11.5605c-0.0371094 0.130859 -0.189453 0.24707 -0.174805 0.367188l0.258789 2.07227l0.0644531 1.49902
c0.00976562 0.226562 0.150391 3.89551 0.242188 6.24414c3.11426 79.1523 5.19727 173.389 -83.8154 173.771c-136.35 16.7461 -373.536 9.53418 -431.49 -46.5137zM591.294 539.561l-87.333 -88.2002l95.0391 -87.3604l-12.3721 -10.3057l-95.1475 87.5859
l-86.0527 -87.5859l-8.98633 9.82617l84.959 86.4004l-83.5195 86.8789l11.04 10.5605l84.4795 -84l88.3203 84.4795zM491.438 69.6758c-0.0615234 0 -0.163086 -0.000976562 -0.224609 -0.000976562c-18.3164 0 -43.7148 10.4912 -56.6924 23.417
c-26.5 26.584 -31.333 68.25 -12.416 106.417c6.41602 12.917 14 25.5 21.333 37.667c3.91699 6.41602 7.83301 12.916 11.5 19.416l26.5 46.417l1.25 2.41699c5.83301 11.416 7.33301 14.25 10.667 14.25h1.58301c2.83301 -1.16699 4.66699 -4.75 7.08301 -10.084
c0.416992 -0.916016 0.75 -1.75 1 -2.08301l41.084 -72.083c2.91602 -5.08398 6.08301 -10 9.25 -15c5.8877 -8.60352 14.0264 -23.3496 18.166 -32.917c1.00098 -2.44434 1.86133 -4.94434 2.58398 -7.5c1.96191 -6.58789 3.55469 -17.5127 3.55469 -24.3867
c0 -39.1133 -31.1982 -76.7217 -69.6387 -83.9463c-4.52246 -0.999023 -11.9521 -1.89453 -16.583 -2zM493.354 307.676c-1.25 -2.25 -2.5 -4.83398 -3.16699 -6.25l-1.5 -2.91699l-26.5 -46.25c-3.75 -6.58301 -7.66699 -13.083 -11.667 -19.583
c-7.25 -12 -14.75 -24.417 -21 -37c-17.333 -35.167 -13.166 -73.084 10.75 -96.667c11.7314 -11.6504 34.6719 -21.1055 51.2051 -21.1055c4.12695 0 10.7549 0.681641 14.7949 1.52246c34.9238 6.3623 63.2666 40.3369 63.2666 75.835
c0 6.4209 -1.53809 16.6123 -3.43262 22.748c-0.666992 2.33301 -1.44434 4.61133 -2.33398 6.83301c-3.98145 9.15039 -11.7842 23.2627 -17.416 31.5c-3.25 5.08398 -6.5 10.167 -9.5 15.334l-41.084 71.333c0 0.583008 -0.833008 1.58301 -1.33301 2.83301z" />
  </g>

</svg>
