<?xml version="1.0" standalone="no"?>
<!DOCTYPE svg PUBLIC "-//W3C//DTD SVG 1.1//EN" "http://www.w3.org/Graphics/SVG/1.1/DTD/svg11.dtd" >
<svg xmlns="http://www.w3.org/2000/svg" xmlns:xlink="http://www.w3.org/1999/xlink" version="1.1" viewBox="-10 0 1071 1000">
  <g transform="matrix(1 0 0 -1 0 800)">
   <path fill="currentColor"
d="M77.9912 737.605h55.5146l17.1611 52.2256l17.1602 -52.2256h55.5156l-44.8672 -32.2959l17.1611 -52.2246l-44.9697 32.2959l-44.9707 -32.2959l17.1611 52.2246zM318.667 604.053l-12 60c128.725 89.7881 355.203 55.3633 442.457 48.5605
c0 -0.0107422 0.000976562 -0.0214844 0.000976562 -0.0322266c27.4463 0.582031 75.1855 -1.32129 107.268 -33.4033c40.1396 -40.1396 38.6152 -108.841 37.5254 -169.365c-0.395508 -21.9258 -0.433594 -33.2402 -0.22168 -41.9463
c26.3789 -43.8281 72.168 -89.959 89.3252 -129.607c6.95117 -16.0635 5.49219 -24.7637 2.64551 -40.2051l-12 -14l-79.501 -63.5771v-212.431c1.93945 -31.0869 1.82422 -79.2412 -27.416 -108.48c-26.0322 -26.0322 -182.507 -12.0195 -220.584 -13.0049
l-2.90137 0.0126953c-103.732 -7.2998 -296.108 50.6025 -326.603 92.1719c-18.5059 25.2275 -31.4014 41.2529 -57.9951 55.3086v70.0371c25.8174 -16.2627 49.624 -17.8066 70.1904 -60.6357c44.2188 -92.082 349.455 -105.734 451.309 -108.438l-0.499023 -0.962891
c50 12 34.1514 4.48145 42.5352 13.5361c19.1768 20.7119 3.97852 41.9688 5.50781 57.9648h-0.541992v2.14941c-0.253906 0.990234 -0.500977 1.94141 -0.738281 2.84863h0.738281v207.174v3.4873v1.33887h1.58203l104 88h1.13281
c4.9834 45.8955 -62.8379 92.1289 -94.2158 139.501l-3 4l-1 1c-2.02051 3.99219 0.0439453 4.02539 -2.08398 11.5605c-0.0371094 0.130859 -0.189453 0.24707 -0.174805 0.367188l0.258789 2.07227l0.0644531 1.49902
c0.00976563 0.226562 0.150391 3.89551 0.242188 6.24414c3.11426 79.1523 5.19727 173.389 -83.8154 173.771c-136.35 16.7461 -373.536 9.53418 -431.49 -46.5137zM518.025 292.215l-4.2002 21c45.0537 31.4258 124.321 19.377 154.859 16.9961
c0 -0.00390625 0.000976563 -0.0078125 0.000976563 -0.0117188c9.60547 0.204102 26.3145 -0.461914 37.543 -11.6914c14.0488 -14.0488 13.5156 -38.0938 13.1348 -59.2773c-0.138672 -7.67383 -0.152344 -11.6338 -0.078125 -14.6816
c9.23242 -15.3398 25.2588 -31.4854 31.2637 -45.3623c2.43359 -5.62207 1.92285 -8.66699 0.925781 -14.0723l-4.19922 -4.89941l-27.8262 -22.252v-74.3506c0.679688 -10.8809 0.638672 -27.7344 -9.59473 -37.9688
c-9.11133 -9.11133 -63.8779 -4.20703 -77.2051 -4.55176l-1.01562 0.00488281c-36.3057 -2.55469 -103.638 17.7109 -114.311 32.2598c-6.47656 8.83008 -10.9902 14.4385 -20.2979 19.3584v24.5127c9.03613 -5.69141 17.3682 -6.23242 24.5664 -21.2227
c15.4766 -32.2285 122.31 -37.0068 157.958 -37.9531l-0.174805 -0.336914c17.5 4.2002 11.9531 1.56836 14.8877 4.7373c6.71191 7.24902 1.3916 14.6895 1.92773 20.2881h-0.19043v0.751953c-0.0888672 0.34668 -0.174805 0.679688 -0.257812 0.99707h0.257812v72.5107
v1.2207v0.46875h0.553711l36.4004 30.7998h0.396484c1.74414 16.0635 -21.9932 32.2451 -32.9756 48.8252l-1.0498 1.40039l-0.350586 0.349609c-0.707031 1.39746 0.015625 1.40918 -0.729492 4.04688c-0.0126953 0.0449219 -0.0654297 0.0859375 -0.0605469 0.12793
l0.0908203 0.725586l0.0224609 0.524414c0.00292969 0.0791016 0.0527344 1.36328 0.0839844 2.18555c1.09082 27.7031 1.81934 60.6865 -29.335 60.8203c-47.7227 5.86133 -130.737 3.33691 -151.021 -16.2803v0zM597.834 165.372c2.06934 0 5.80371 0 12.0908 -4.61523
c5.59668 -4.10938 5.57812 -5.43945 6.83301 -5.43945c0.0742188 0 0.157227 0.000976563 0.250977 0.000976563c0.853516 0 1.31641 0.462891 1.59473 0.741211c3.56152 3.56152 9.07812 9.31836 17.6895 9.31836c4.24121 0 10.4404 -2.90234 12.0381 -4.82031
c2.24219 -2.69336 4.21777 -7.70703 4.21777 -11.0654c0 -2.94629 0 -9.20801 -8.90039 -18.1299l-26.626 -25.627c-26.8496 25.9004 -26.8496 25.9004 -26.9863 26.0371c-2.3418 2.34082 -8.07422 8.07324 -8.4502 17.6162
c2.08301 7.16309 3.00879 10.3467 4.89941 11.8242c2.85352 2.22949 7.94629 4.15918 11.3486 4.15918zM597.659 172.049c-6.58691 0 -13.6875 -3.65039 -16.5645 -6.52832c-2.45117 -2.4502 -6.2793 -9.9502 -6.2793 -15.9844
c0 -0.350586 0.0107422 -0.779297 0.0283203 -1.1543l0.00488281 -0.0966797v-0.0957031c0.0351562 -10.8271 8.69824 -19.9277 10.8711 -21.7861l26.998 -26.1445c1.1416 -1.10547 2.61523 -1.75586 4.24609 -1.75586c2.22852 0 3.41895 1.04395 4.3291 1.8418
c0.287109 0.250977 20.5469 19.6719 27.3965 26.5215c10.1602 10.1602 10.5117 18.4502 10.5117 22.5801v0.0576172c0 6.07031 -3.25 12.957 -6.6377 16.3457c-2.49121 2.49023 -10.2461 6.28906 -16.2969 6.30566c-8.39551 -0.168945 -11.126 -2.00586 -19.3691 -8.12891
c-5.99805 4.45117 -10.8105 8.02246 -19.2383 8.02246zM597.834 165.372c2.06934 0 5.80371 0 12.0908 -4.61523c5.59668 -4.10938 5.57812 -5.43945 6.83301 -5.43945c0.0742188 0 0.157227 0.000976563 0.250977 0.000976563
c0.853516 0 1.31641 0.462891 1.59473 0.741211c3.56152 3.56152 9.07812 9.31836 17.6895 9.31836c4.24121 0 10.4404 -2.90234 12.0381 -4.82031c2.24219 -2.69336 4.21777 -7.70703 4.21777 -11.0654c0 -2.94629 0 -9.20801 -8.90039 -18.1299l-26.626 -25.627
c-26.8496 25.9004 -26.8496 25.9004 -26.9863 26.0371c-2.3418 2.34082 -8.07422 8.07324 -8.4502 17.6162c2.08301 7.16309 3.00879 10.3467 4.89941 11.8242c2.85352 2.22949 7.94629 4.15918 11.3486 4.15918zM597.659 172.049
c-6.58691 0 -13.6875 -3.65039 -16.5645 -6.52832c-2.45117 -2.4502 -6.2793 -9.9502 -6.2793 -15.9844c0 -0.350586 0.0107422 -0.779297 0.0283203 -1.1543l0.00488281 -0.0966797v-0.0957031c0.0351562 -10.8271 8.69824 -19.9277 10.8711 -21.7861l26.998 -26.1445
c1.1416 -1.10547 2.61523 -1.75586 4.24609 -1.75586c2.22852 0 3.41895 1.04395 4.3291 1.8418c0.287109 0.250977 20.5469 19.6719 27.3965 26.5215c10.1602 10.1602 10.5117 18.4502 10.5117 22.5801v0.0576172c0 6.07031 -3.25 12.957 -6.6377 16.3457
c-2.49121 2.49023 -10.2461 6.28906 -16.2969 6.30566c-8.39551 -0.168945 -11.126 -2.00586 -19.3691 -8.12891c-5.99805 4.45117 -10.8105 8.02246 -19.2383 8.02246zM734.022 426.735h-194.787l-45.4229 114.715l83.9424 -35.1885l54.9375 68.7012l53.957 -69.8467
l83.2324 35.3984zM583.697 480.05l-51.3496 22.5576l23.6621 -54.3096l159.158 -0.571289l16.4521 51.7764l-50.3486 -22.3779l-47.7256 61.3223zM177.04 191.143c-1.24805 0 -1.90332 2.16895 -2.25098 2.25l1.88184 68.1074
c-6.27539 7.51172 -12.7119 14.543 -19.0508 21.4668c-27.9453 30.5215 -54.0986 59.1533 -54.1895 116.907c-0.0761719 48.1309 17.4326 72.7539 27.2373 82.7275c30.9902 30.2949 71.9023 37.9102 93.165 37.9102c1.93359 0 4.37988 1.63965 6.92773 1.51953
c62.8467 -2.95703 76.2588 -7.92773 108.279 -35.7783c4.13379 -3.5957 5.33594 -6.52637 5.87305 -9.29395c0.0976562 -0.5 0.152344 -0.694336 0.170898 -0.755859c14.6729 -16.9307 32.9414 -77.834 33.748 -90.7734
c0.0546875 -0.876953 0.185547 -1.89648 0.337891 -3.0498c0.427734 -3.25781 0.99707 -7.56348 0.0478516 -12.9824c-13.0566 -74.5664 -56.5225 -79.6182 -60.6943 -91.3086c-0.227539 -0.637695 -0.438477 -0.743164 -0.52832 -0.833984
c-0.995117 -0.994141 -9.61621 -5.38965 -16.542 -8.64648c-0.869141 -2.47656 -0.869141 -2.47656 -1.30957 -2.93457c-0.204102 -0.785156 -0.389648 -2.17285 -0.389648 -2.17285l-1.00879 -69.4443c0.366211 -0.0869141 -1.01562 -2.19629 -2.23633 -2.2041z
M344.989 476.302l-0.148438 0.129883l-1.35938 -1.77734zM338.672 484.327l-1.48926 0.614258l-1.49121 -3.73633zM241.361 504.836c-36.0811 0 -59.6104 -6.36914 -89.6104 -28.6133c-7.91113 -7.91113 -29.9307 -31.6533 -30.0352 -72.8428
c-0.136719 -54.2217 23.4941 -79.749 36.1875 -92.4424c6.3252 -6.3252 6.3252 -6.3252 7.37207 -7.88965c2.07129 -3.09375 2.07129 -3.09375 15.5117 -17.6621c3.08594 -0.759766 7.80469 -2.70508 12.5898 -7.67969c2.61719 -2.71973 1.55957 -12.8164 1.07617 -17.4365
l-0.430664 -52.5342l83.3662 -0.427734l3.9209 64.4775c0.0371094 0.610352 0.318359 1.17871 0.791016 1.5791c2.76953 2.36133 2.84277 2.42285 4.27734 3.8584c1.41699 1.41699 5.5293 5.43164 9.14551 6.48438c1.31055 0.380859 3.1377 4.00488 6.93555 6.84375
c18.167 13.5811 45.0566 47.7646 48.3955 97.0342c0.488281 7.20801 -0.625 15.0713 -2.04688 23.5068c-3.00879 17.8535 -7.41992 43.2246 -20.9932 59.041c-2.10938 1.73828 -2.75098 2.31641 -12.4678 12.0322c-17.3818 17.3828 -46.1621 22.6709 -73.9854 22.6709z" />
  </g>

</svg>
