<?xml version="1.0" standalone="no"?>
<!DOCTYPE svg PUBLIC "-//W3C//DTD SVG 1.1//EN" "http://www.w3.org/Graphics/SVG/1.1/DTD/svg11.dtd" >
<svg xmlns="http://www.w3.org/2000/svg" xmlns:xlink="http://www.w3.org/1999/xlink" version="1.1" viewBox="-10 0 1051 1000">
  <g transform="matrix(1 0 0 -1 0 800)">
   <path fill="currentColor"
d="M271 608l-12 60c128.725 89.7881 355.203 55.3633 442.457 48.5605c0 -0.0107422 0.000976562 -0.0214844 0.000976562 -0.0322266c27.4463 0.582031 75.1855 -1.32129 107.268 -33.4033c40.1396 -40.1396 38.6152 -108.841 37.5254 -169.365
c-0.395508 -21.9258 -0.433594 -33.2402 -0.22168 -41.9463c26.3789 -43.8281 72.168 -89.959 89.3252 -129.607c6.95117 -16.0635 5.49219 -24.7637 2.64551 -40.2051l-12 -14l-79.501 -63.5771v-212.431c1.93945 -31.0869 1.82422 -79.2412 -27.416 -108.48
c-26.0322 -26.0322 -182.507 -12.0195 -220.584 -13.0049l-2.90137 0.0126953c-103.732 -7.2998 -296.108 50.6025 -326.603 92.1719c-18.5059 25.2275 -31.4014 41.2529 -57.9951 55.3086v70.0371c25.8174 -16.2627 49.624 -17.8066 70.1904 -60.6357
c44.2188 -92.082 349.455 -105.734 451.309 -108.438l-0.499023 -0.962891c50 12 34.1514 4.48145 42.5352 13.5361c19.1768 20.7119 3.97852 41.9688 5.50781 57.9648h-0.541992v2.14941c-0.253906 0.990234 -0.500977 1.94141 -0.738281 2.84863h0.738281v207.174v3.4873
v1.33887h1.58203l104 88h1.13281c4.9834 45.8955 -62.8379 92.1289 -94.2158 139.501l-3 4l-1 1c-2.02051 3.99219 0.0439453 4.02539 -2.08398 11.5605c-0.0371094 0.130859 -0.189453 0.24707 -0.174805 0.367188l0.258789 2.07227l0.0644531 1.49902
c0.00976562 0.226562 0.150391 3.89551 0.242188 6.24414c3.11426 79.1523 14.1973 176.389 -74.8154 176.771c-136.35 16.7461 -373.536 9.53418 -431.49 -46.5137zM30.3545 728.521h55.5146l17.1611 52.2256l17.1602 -52.2256h55.5156l-44.8672 -32.2959l17.1611 -52.2246
l-44.9697 32.2959l-44.9707 -32.2959l17.1611 52.2246zM209 506l57 -0.299805v0h2.7002l-3.30078 -182.4v-10.7998h-12.2998l-46.2002 0.299805v10.7998l46.2002 -0.299805l3.90039 172.8l-48 0.300781v9.59961zM415.419 280.341zM415.207 277.83zM566.116 251.689
c0 19.6777 -6.77637 37.583 -22.4141 53.2207c-8.84863 8.84863 -17.7852 14.2715 -26.1562 17.5684l-23.7588 9.35742c29.3467 -5.06836 29.3467 -5.06836 33.2002 -6.21875c0.423828 0.144531 0.977539 0.258789 1.5332 0.15625
c36.251 -6.67773 63.7568 -22.8223 83.457 -42.5244c10.207 -10.2061 17.207 -19.96 23.7217 -31.2471c-16.9824 -29.4824 -46.0195 -62.7432 -108.688 -73.9102l-13.4727 -2.40039c12.1768 7.47363 18.9668 11.1367 30.4971 22.8848
c15.9961 15.9951 22.0811 34.2383 22.0811 53.1133zM488.674 192.586c-16.5352 0 -31.0645 5.66504 -43.084 17.6855c-17.4736 17.4756 -21.2227 40.9473 -13.5146 62.2852l0.895508 2.47754l0.595703 -0.220703c12.1143 17.8799 12.1143 17.8799 12.8232 18.9111
c18.9336 12.3955 18.9336 12.3955 19.1836 12.4268c13.3701 5.62305 42.1738 10.7412 66.3076 -13.3926c11.998 -11.998 17.0938 -25.958 17.1455 -40.8457c0 -10.3428 -2.19141 -26.292 -17.1484 -41.25c-7.02148 -7.02051 -20.3867 -18.0771 -43.2041 -18.0771zM666 252
c-9.30078 16.5068 -54.5498 96.0469 -173.735 96.0469c-71.6748 0 -116.628 -28.6611 -143.313 -55.3467c-11.3662 -11.3662 -21.1719 -23.8145 -30.7998 -40.6992c8.51562 -14.9297 18.001 -27.7949 29.9277 -39.7217c44.2607 -44.2617 98.6816 -56.0947 144.186 -56.0947
c21.8818 0 89.2842 1.39453 143.87 55.9795c15.6123 15.6123 24.957 31.0938 29.8652 39.8359zM457.551 320.919c-7.13184 -2.68164 -18.2988 -9.74805 -22.6426 -14.0918c-5.80371 -5.80371 -5.80371 -5.80371 -7.13086 -8.01758
c-1.11328 -1.85742 -1.35449 -2.09082 -2.80664 -3.40039c-2.04199 -1.84473 -2.72754 -2.67969 -3.49414 -4.63281c-0.600586 -1.53027 -4.20117 -8.0498 -5.20996 -10.8545c0.133789 -0.658203 0.0400391 -1.31055 -0.136719 -1.77246
c-8.21484 -21.5098 -8.61523 -53.8252 17.1221 -79.5625c6.68359 -6.68359 13.6504 -11.3535 20.3408 -14.6348l18.3916 -9.02344l-20.0723 4.11328c-37.0059 7.58105 -62.5996 24.666 -79.7285 41.7949c-10.1631 10.165 -17.2285 19.9258 -23.7383 31.1631
c12.2197 21.1777 39.4639 61.5293 107.712 73.9395zM476 404l-67.1992 66l12.7998 13.1992l54 -49.5996l96 121.6l14.3994 -10z" />
  </g>

</svg>
