<?xml version="1.0" standalone="no"?>
<!DOCTYPE svg PUBLIC "-//W3C//DTD SVG 1.1//EN" "http://www.w3.org/Graphics/SVG/1.1/DTD/svg11.dtd" >
<svg xmlns="http://www.w3.org/2000/svg" xmlns:xlink="http://www.w3.org/1999/xlink" version="1.1" viewBox="-10 0 1046 1000">
  <g transform="matrix(1 0 0 -1 0 800)">
   <path fill="currentColor"
d="M61.748 746.129h55.5146l17.1611 52.2256l17.1602 -52.2256h55.5156l-44.8672 -32.2959l17.1611 -52.2246l-44.9697 32.2959l-44.9707 -32.2959l17.1611 52.2246zM295.394 625.608l-12 60c128.725 89.7881 355.203 55.3633 442.457 48.5605
c0 -0.0107422 0.000976562 -0.0214844 0.000976562 -0.0322266c27.4463 0.582031 75.1855 -1.32129 107.268 -33.4033c40.1396 -40.1396 38.6152 -108.841 37.5254 -169.365c-0.395508 -21.9258 -0.433594 -33.2402 -0.22168 -41.9463
c26.3789 -43.8281 72.168 -89.959 89.3252 -129.607c6.95117 -16.0635 5.49219 -24.7637 2.64551 -40.2051l-12 -14l-79.501 -63.5771v-212.431c1.93945 -31.0869 1.82422 -79.2412 -27.416 -108.48c-26.0322 -26.0322 -182.507 -12.0195 -220.584 -13.0049
l-2.90137 0.0126953c-103.732 -7.2998 -296.108 50.6025 -326.603 92.1719c-18.5059 25.2275 -31.4014 41.2529 -57.9951 55.3086v70.0371c25.8174 -16.2627 49.624 -17.8066 70.1904 -60.6357c44.2188 -92.082 349.455 -105.734 451.309 -108.438l-0.499023 -0.962891
c50 12 34.1514 4.48145 42.5352 13.5361c19.1768 20.7119 3.97852 41.9688 5.50781 57.9648h-0.541992v2.14941c-0.253906 0.990234 -0.500977 1.94141 -0.738281 2.84863h0.738281v207.174v3.4873v1.33887h1.58203l104 88h1.13281
c4.9834 45.8955 -62.8379 92.1289 -94.2158 139.501l-3 4l-1 1c-2.02051 3.99219 0.0439453 4.02539 -2.08398 11.5605c-0.0371094 0.130859 -0.189453 0.24707 -0.174805 0.367188l0.258789 2.07227l0.0644531 1.49902
c0.00976563 0.226562 0.150391 3.89551 0.242188 6.24414c3.11426 79.1523 5.19727 173.389 -83.8154 173.771c-136.35 16.7461 -373.536 9.53418 -431.49 -46.5137zM383.802 275.275h383.266c2.31445 0 3.82422 -2.18359 3.82422 -3.8252v-13.7695
c0 -2.31543 -2.18262 -3.8252 -3.82422 -3.8252h-383.266c-2.31445 0 -3.82422 2.18359 -3.82422 3.8252v13.7695c0 2.31543 2.18262 3.8252 3.82422 3.8252zM647.236 184.459c8.78516 -38.7305 31.7549 -69.5166 74.293 -95.877
c1.54004 -0.954102 2.12988 -2.92578 1.61035 -4.47168l-2.73438 -8.12598c-0.779297 -2.31543 -3.60254 -3.29688 -5.64453 -2.02832c-39.0381 24.2617 -64.5586 53.5889 -76.9482 87.584c-2.78418 -7.27734 -4.79688 -11.7715 -7.87207 -17.9902
c-13.4775 -27.2656 -33.5537 -54.3604 -52.3828 -68.5684c-1.85742 -1.40137 -4.58887 -0.764648 -5.66992 1.23535l-4.43848 8.21582c-0.910156 1.68457 -0.31543 3.78906 1 4.82422c18.6543 14.6855 33.4639 32.1699 44.5107 52.7412
c17.1914 32.0146 25.3037 71.6328 24.0703 119.86c-0.0576172 2.24121 1.91309 3.97559 3.92676 3.92188l7.09961 -0.192383c6.95605 -0.216797 3.88281 -14.1875 3.88281 -14.1875c0 -18.6836 -4.25488 -62.3662 -4.70312 -66.9414zM476.808 183.119
c10.1855 -38.5244 35.5977 -68.0029 83.2363 -93.8369c1.77637 -0.962891 2.33398 -3.20703 1.74609 -4.73535l-3.0625 -7.96484c-0.848633 -2.20605 -3.5293 -3.00293 -5.39746 -1.9873c-44.0898 23.9785 -72.7686 52.9336 -86.6162 87.0244
c-4.60547 -10.8789 -10.3604 -21.3262 -17.3057 -31.8945c-14.4814 -22.0391 -33.0723 -42.5273 -50.6699 -54.1475c-1.89844 -1.25293 -4.38672 -0.396484 -5.3623 1.18359l-4.97266 8.05273c-1.09863 1.77832 -0.444336 4.10547 1.08398 5.15918
c19.3984 13.3633 35.0645 29.0693 47.0908 47.3164c21.1523 32.0928 31.1543 72.2217 29.71 121.648c-0.0644531 2.24023 1.89844 3.9834 3.91406 3.93555l7.95117 -0.1875c6.97461 -0.195312 3.91602 -13.9834 3.91602 -13.9834
c0 -18.2393 -4.61719 -59.8057 -5.26172 -65.583zM672 352h-228.862l-48.7686 205.275l88.5068 -64.4941l70.0186 144.501l69.8066 -144.501l87.9746 63.75zM463.22 377.968l179.01 -1.14746l30.9824 121.635l-61.9648 -45.9004l-57.375 130.815l-59.6709 -125.077
l-64.2588 47.0479z" />
  </g>

</svg>
