<?xml version="1.0" standalone="no"?>
<!DOCTYPE svg PUBLIC "-//W3C//DTD SVG 1.1//EN" "http://www.w3.org/Graphics/SVG/1.1/DTD/svg11.dtd" >
<svg xmlns="http://www.w3.org/2000/svg" xmlns:xlink="http://www.w3.org/1999/xlink" version="1.1" viewBox="-10 0 1047 1000">
  <g transform="matrix(1 0 0 -1 0 800)">
   <path fill="currentColor"
d="M828.399 483.872c0 9.49878 0.360099 25.4826 0.360099 28.905l-0.318652 61.3747l-8.69455 54.78l-24.0577 41.7601l-29.8355 19.1251l-33.9409 8.02542l-47.9505 1.85133v0.765382l-107.704 8.96128l-161.614 -4.8437l-135.511 -48.0118l4.97421 -24.8711
l90.1513 34.2037l168.519 13.9909l163.859 -8.05849l72.0585 -32.0852l24.6852 -76.5829c-11.2968 -92.7231 -11.5388 -94.7093 -10.6225 -98.1968c0.272553 -1.03738 0.408327 -1.98777 0.495372 -2.92219c0.487753 -0.641757 1.13403 -1.58506 1.4862 -2.05622
l30.4464 -40.7334l38.0432 -60.0682l23.93 -33.502l-96.7113 -80.2498l-3.19974 -219.288c0.962733 -7.56244 2.78458 -22.0112 5.01798 -45.877c-0.12894 -0.269919 -9.65147 -20.9678 -12.8349 -27.02c-1.80565 -3.43278 -3.36365 -6.39475 -8.94453 -11.1259
c-28.726 -6.87192 -37.6748 -9.01268 -53.7943 -9.01268c-3.38415 0 -6.77838 0.14333 -10.1737 0.446144l-127.95 -3.2205l-189.706 31.9736l-119.91 72.0259l-21.8729 31.5454c-0.18608 0.126152 -14.9542 10.3475 -18.5829 12.6523v-31.4635
c5.41685 -3.87145 13.5068 -7.36272 24.4398 -17.2503c7.32645 -6.62591 2.09556 -4.45645 10.6241 -11.9264c1.03002 -0.902171 1.03002 -0.902171 17.2005 -21.8062l70.2643 -41.1391l123.979 -35.7692l40.8353 -3.74581
c52.8258 -4.90757 59.0669 -6.73248 83.0467 -7.42728l68.08 -1.97257l89.7606 0.254271l51.1066 12.4914l15.1376 25.2075l6.27671 34.16l-0.268638 82.9487l0.0291888 84.2282l-0.00582149 87.5189l84.7837 67.8016l7.68593 8.96692l1.11464 7.19504
c0.44913 7.61262 -1.52476 12.8022 -3.31214 18.1783l-23.3304 38.8443l-33.0243 43.448l-34.3179 48.9016c-0.202711 16.1296 -0.202711 16.1296 -0.202711 17.6951zM33.2949 712.521h55.5146l17.1611 52.2256l17.1602 -52.2256h55.5156l-44.8672 -32.2959
l17.1611 -52.2246l-44.9697 32.2959l-44.9707 -32.2959l17.1611 52.2246zM672.813 422.263v138.11l13.4375 0.78125v-152.426l-102.251 0.271484l2.95605 152.291l12.3213 0.273438l-0.958984 -139.302h74.4951zM610.46 290.296
c0 2.44727 -0.0458984 4.2627 -0.0458984 4.30566c0.046875 0.927734 0.286133 1.72949 0.371094 1.81543c0 0.0751953 0 0.0751953 14.54 0.395508c-0.0136719 -2.12402 -0.0214844 -4.31641 -0.0214844 -6.57227c0 -56.7539 5.22852 -154.104 62.6113 -229.481
c7.88965 -10.3633 24.084 -33.249 37.9756 -51.3447l-11.8906 -9.41406c-10.5029 12.4639 -15.7471 26.8174 -30.0098 42.9434c-25.2305 28.5264 -49.8496 73.5615 -53.2773 113.23l-1.26465 14.6406l-3.78223 -14.1992
c-8.77441 -32.9395 -27.1084 -41.0205 -40.5908 -46.9375c-9.0127 -3.95508 -16.2529 -7.13281 -16.2529 -16.3604c0 -7.86816 1.83789 -13.9043 44.1367 -64.9004c1.2002 -1.44727 2.19727 -2.65039 2.91406 -3.52246l-6.39062 -7.74609
c-8.75098 13.0615 -53.1797 42.2832 -53.1797 72.7373c0 27.8379 40.2178 28.3008 58.207 73.2715c0.686523 1.71484 2.19434 4.33398 2.19434 16.1387c0 23.6641 -6.65039 71.1484 -6.65039 95.3652c0 5.58496 0.40625 7.23828 0.40625 15.6348zM610.413 294.641
c0 -0.00878906 0.000976562 -0.0214844 0.000976562 -0.0390625c0.000976562 0.0205078 -0.000976562 0.0390625 -0.000976562 0.0390625zM625.325 296.812zM725.891 9.41406l1.99121 1.57617l-0.443359 -3.58789c-0.522461 0.677734 -1.03809 1.34766 -1.54785 2.01172z
M714 0c0.514648 -0.612305 1.04297 -1.21875 1.58496 -1.82129l-3.50781 0.298828zM615.873 24.8945zM610.044 277.368zM269.582 256v20.96h31.5439v25.373h-31.5439v20.96h31.5439v27.5342h18.2803v-27.5342h26.3125v25.5244h18.2812v-25.5244h33.7207v-20.96h-33.7207
v-25.373h33.7207v-20.96h-33.7207v-29.5518h-18.2812v29.5518h-26.3125v-27.542h-18.2803v27.542h-31.5439zM332.441 374.838l-61.9258 112.104l12.877 5.43945l49.4395 -84.9229l45.0713 85.7568l15.3398 -6.21191zM345.719 302.333h-26.3125v-25.373h26.3125v25.373z" />
  </g>

</svg>
