<?xml version="1.0" standalone="no"?>
<!DOCTYPE svg PUBLIC "-//W3C//DTD SVG 1.1//EN" "http://www.w3.org/Graphics/SVG/1.1/DTD/svg11.dtd" >
<svg xmlns="http://www.w3.org/2000/svg" xmlns:xlink="http://www.w3.org/1999/xlink" version="1.1" viewBox="-10 0 1018 1000">
  <g transform="matrix(1 0 0 -1 0 800)">
   <path fill="currentColor"
d="M43.8232 743.879h55.5146l17.1611 52.2256l17.1602 -52.2256h55.5156l-44.8672 -32.2959l17.1611 -52.2246l-44.9697 32.2959l-44.9707 -32.2959l17.1611 52.2246zM284.499 610.326l-12 60c128.725 89.7881 355.203 55.3633 442.457 48.5605
c0 -0.0107422 0.000976562 -0.0214844 0.000976562 -0.0322266c27.4463 0.582031 75.1855 -1.32129 107.268 -33.4033c40.1396 -40.1396 38.6152 -108.841 37.5254 -169.365c-0.395508 -21.9258 -0.433594 -33.2402 -0.22168 -41.9463
c26.3789 -43.8281 72.168 -89.959 89.3252 -129.607c6.95117 -16.0635 5.49219 -24.7637 2.64551 -40.2051l-12 -14l-79.501 -63.5771v-212.431c1.93945 -31.0869 1.82422 -79.2412 -27.416 -108.48c-26.0322 -26.0322 -182.507 -12.0195 -220.584 -13.0049
l-2.90137 0.0126953c-103.732 -7.2998 -296.108 50.6025 -326.603 92.1719c-18.5059 25.2275 -31.4014 41.2529 -57.9951 55.3086v70.0371c25.8174 -16.2627 49.624 -17.8066 70.1904 -60.6357c44.2188 -92.082 349.455 -105.734 451.309 -108.438l-0.499023 -0.962891
c50 12 34.1514 4.48145 42.5352 13.5361c19.1768 20.7119 3.97852 41.9688 5.50781 57.9648h-0.541992v2.14941c-0.253906 0.990234 -0.500977 1.94141 -0.738281 2.84863h0.738281v207.174v3.4873v1.33887h1.58203l104 88h1.13281
c4.9834 45.8955 -62.8379 92.1289 -94.2158 139.501l-3 4l-1 1c-2.02051 3.99219 0.0439453 4.02539 -2.08398 11.5605c-0.0371094 0.130859 -0.189453 0.24707 -0.174805 0.367188l0.258789 2.07227l0.0644531 1.49902
c0.00976563 0.226562 0.150391 3.89551 0.242188 6.24414c3.11426 79.1523 5.19727 173.389 -83.8154 173.771c-136.35 16.7461 -373.536 9.53418 -431.49 -46.5137zM738.556 337.142l-127.361 -128.625l138.601 -127.4l-18.0449 -15.0303l-138.755 127.73l-125.495 -127.73
l-13.1055 14.3301l123.9 126l-121.8 126.7l16.0996 15.4004l123.2 -122.5l128.8 123.199zM738.556 337.142l-127.361 -128.625l138.601 -127.4l-18.0449 -15.0303l-138.755 127.73l-125.495 -127.73l-13.1055 14.3301l123.9 126l-121.8 126.7l16.0996 15.4004l123.2 -122.5
l128.8 123.199zM746.776 204.467c0 -39.3428 -69.291 -68.3994 -151.682 -68.3994c-82.3857 0 -151.682 29.0547 -151.682 68.3994c0 39.3418 69.291 68.3994 151.682 68.3994c82.3857 0 151.682 -29.0547 151.682 -68.3994zM595.095 153.198
c88.1504 0 156.105 35.6406 122.652 69.0938c-18.0615 18.0615 -62.4219 32.5215 -117.403 33.4014v-0.243164c-15.0801 0.0527344 -51.3633 0.181641 -87.6201 -11.4688c-18.0557 -5.80176 -32.085 -13.4961 -40.292 -21.7041
c-33.4219 -33.4219 34.4795 -69.0791 122.663 -69.0791zM578.095 381.067l-99.7998 180.667l11.5205 4.86621l89.2793 -153.359l81.3604 154.8l15.5732 -6.30664z" />
  </g>

</svg>
