<?xml version="1.0" standalone="no"?>
<!DOCTYPE svg PUBLIC "-//W3C//DTD SVG 1.1//EN" "http://www.w3.org/Graphics/SVG/1.1/DTD/svg11.dtd" >
<svg xmlns="http://www.w3.org/2000/svg" xmlns:xlink="http://www.w3.org/1999/xlink" version="1.1" viewBox="-10 0 1047 1000">
  <g transform="matrix(1 0 0 -1 0 800)">
   <path fill="currentColor"
d="M577.203 162.767l45.5049 20.2256l-16.4707 -51.8369l-134.278 0.481445l-23.665 54.3154l47.4961 -20.8643l41.6406 48.7822zM429.823 204.528l33.0869 -83.5615h153.628l26.1729 83.0439l-63.2939 -26.918l-42.8506 55.4717l-43.5889 -54.5107zM462.188 119.905z
M536 52c-87.9854 0 -159.375 56.1074 -159.375 124.949c0 68.8389 71.3838 124.95 159.375 124.95c87.9854 0 159.375 -56.1074 159.375 -124.95c0 -68.8379 -71.3838 -124.949 -159.375 -124.949zM536 317.199c-97.3311 0 -175.95 -62.0527 -175.95 -138.975
c0 -76.9189 78.6162 -138.975 175.95 -138.975c97.3311 0 175.95 62.0527 175.95 138.975c0 76.9189 -78.6162 138.975 -175.95 138.975zM37.3545 728.521h55.5146l17.1611 52.2256l17.1602 -52.2256h55.5156l-44.8672 -32.2959l17.1611 -52.2246l-44.9697 32.2959
l-44.9707 -32.2959l17.1611 52.2246zM271 608l-12 60c128.725 89.7881 355.203 55.3633 442.457 48.5605c0 -0.0107422 0.000976562 -0.0214844 0.000976562 -0.0322266c27.4463 0.582031 75.1855 -1.32129 107.268 -33.4033
c40.1396 -40.1396 38.6152 -108.841 37.5254 -169.365c-0.395508 -21.9258 -0.433594 -33.2402 -0.22168 -41.9463c26.3789 -43.8281 72.168 -89.959 89.3252 -129.607c6.95117 -16.0635 5.49219 -24.7637 2.64551 -40.2051l-12 -14l-79.501 -63.5771v-212.431
c1.93945 -31.0869 1.82422 -79.2412 -27.416 -108.48c-26.0322 -26.0322 -182.507 -12.0195 -220.584 -13.0049l-2.90137 0.0126953c-103.732 -7.2998 -296.108 50.6025 -326.603 92.1719c-18.5059 25.2275 -31.4014 41.2529 -57.9951 55.3086v70.0371
c25.8174 -16.2627 49.624 -17.8066 70.1904 -60.6357c44.2188 -92.082 349.455 -105.734 451.309 -108.438l-0.499023 -0.962891c50 12 34.1514 4.48145 42.5352 13.5361c19.1768 20.7119 3.97852 41.9688 5.50781 57.9648v0v2.14941
c-0.253906 0.990234 -1.04297 1.94141 -1.28027 2.84863h1.28027v207.174v3.4873v1.33887h1.04004l104 88h1.13281c4.9834 45.8955 -62.8379 92.1289 -94.2158 139.501l-3 4l-1 1c-2.02051 3.99219 0.0439453 4.02539 -2.08398 11.5605
c-0.0371094 0.130859 -0.189453 0.24707 -0.174805 0.367188l0.258789 2.07227l0.0644531 1.49902c0.00976562 0.226562 0.150391 3.89551 0.242188 6.24414c3.11426 79.1523 5.19727 173.389 -83.8154 173.771c-136.35 16.7461 -373.536 9.53418 -431.49 -46.5137z
M449.975 519.611l60.3848 75.6172c1.42969 1.79004 4.05273 1.3916 5.16797 0.168945l73.4404 -80.5127c1.31641 -1.44336 1.11719 -3.77441 -0.425781 -4.97461c-0.441406 -0.34375 -1.29492 -0.628906 -1.50391 -0.665039l-12.5117 -2.17676
c-1.14648 -0.199219 -2.34766 0.241211 -3.09375 1.05762l-51.1113 55.9785l2.0791 -189.104c0.0214844 -1.98633 -1.74219 -3.5166 -3.55469 -3.43457l-11.9678 0.544922c-1.84766 0.0839844 -3.25586 1.70605 -3.24609 3.41504l1.03418 188.237l-43.9404 -54.9238
c-1.38867 -1.73828 -4.02344 -1.54297 -5.26562 -0.0527344l-5.44043 6.52734c-1.02539 1.23145 -1.03027 3.06445 -0.0449219 4.29785z" />
  </g>

</svg>
