<?xml version="1.0" standalone="no"?>
<!DOCTYPE svg PUBLIC "-//W3C//DTD SVG 1.1//EN" "http://www.w3.org/Graphics/SVG/1.1/DTD/svg11.dtd" >
<svg xmlns="http://www.w3.org/2000/svg" xmlns:xlink="http://www.w3.org/1999/xlink" version="1.1" viewBox="-10 0 1051 1000">
  <g transform="matrix(1 0 0 -1 0 800)">
   <path fill="currentColor"
d="M828.399 483.872c0 9.49878 0.360099 25.4826 0.360099 28.905l-0.318652 61.3747l-8.69455 54.78l-24.0577 41.7601l-29.8355 19.1251l-33.9409 8.02542l-47.9505 1.85133v0.765382l-107.704 8.96128l-161.614 -4.8437l-135.511 -48.0118l4.97421 -24.8711
l90.1513 34.2037l168.519 13.9909l163.859 -8.05849l72.0585 -32.0852l24.6852 -76.5829c-11.2968 -92.7231 -11.5388 -94.7093 -10.6225 -98.1968c0.272553 -1.03738 0.408327 -1.98777 0.495372 -2.92219c0.487753 -0.641757 1.13403 -1.58506 1.4862 -2.05622
l30.4464 -40.7334l38.0432 -60.0682l23.93 -33.502l-96.7113 -80.2498l-3.19974 -219.288c0.962733 -7.56244 2.78458 -22.0112 5.01798 -45.877c-0.12894 -0.269919 -9.65147 -20.9678 -12.8349 -27.02c-1.80565 -3.43278 -3.36365 -6.39475 -8.94453 -11.1259
c-28.726 -6.87192 -37.6748 -9.01268 -53.7943 -9.01268c-3.38415 0 -6.77838 0.14333 -10.1737 0.446144l-127.95 -3.2205l-189.706 31.9736l-119.91 72.0259l-21.8729 31.5454c-0.18608 0.126152 -14.9542 10.3475 -18.5829 12.6523v-31.4635
c5.41685 -3.87145 13.5068 -7.36272 24.4398 -17.2503c7.32645 -6.62591 2.09556 -4.45645 10.6241 -11.9264c1.03002 -0.902171 1.03002 -0.902171 17.2005 -21.8062l70.2643 -41.1391l123.979 -35.7692l40.8353 -3.74581
c52.8258 -4.90757 59.0669 -6.73248 83.0467 -7.42728l68.08 -1.97257l89.7606 0.254271l51.1066 12.4914l15.1376 25.2075l6.27671 34.16l-0.268638 82.9487l0.0291888 84.2282l-0.00582149 87.5189l84.7837 67.8016l7.68593 8.96692l1.11464 7.19504
c0.44913 7.61262 -1.52476 12.8022 -3.31214 18.1783l-23.3304 38.8443l-33.0243 43.448l-34.3179 48.9016c-0.202711 16.1296 -0.202711 16.1296 -0.202711 17.6951zM30.3242 741.553h55.5146l17.1611 52.2256l17.1602 -52.2256h55.5156l-44.8672 -32.2959
l17.1611 -52.2246l-44.9697 32.2959l-44.9707 -32.2959l17.1611 52.2246zM387.962 244.463zM387.785 242.37zM513.543 220.587c0 16.3984 -5.64746 31.3184 -18.6787 44.3496c-7.37402 7.37402 -14.8213 11.8936 -21.7969 14.6406l-19.7988 7.79883
c24.4551 -4.22461 24.4551 -4.22461 27.667 -5.18262c0.352539 0.120117 0.814453 0.21582 1.27734 0.129883c30.209 -5.56445 53.1309 -19.0186 69.5479 -35.4365c8.50586 -8.50488 14.3389 -16.6338 19.7686 -26.04
c-14.1533 -24.5684 -38.3496 -52.2852 -90.5752 -61.5918l-11.2266 -2c10.1475 6.22754 15.8057 9.28027 25.415 19.0703c13.3291 13.3301 18.4004 28.5322 18.4004 44.2617zM449.007 171.334c-13.7783 0 -25.8867 4.7207 -35.9023 14.7383
c-14.5625 14.5625 -17.6855 34.1221 -11.2627 51.9033l0.746094 2.06543l0.496094 -0.18457c10.0957 14.8994 10.0957 14.8994 10.6865 15.7598c15.7773 10.3291 15.7773 10.3291 15.9863 10.3555c11.1416 4.68555 35.1455 8.95117 55.2559 -11.1602
c9.99902 -9.99902 14.2451 -21.6318 14.2881 -34.0391c0 -8.61914 -1.8252 -21.9092 -14.29 -34.374c-5.85156 -5.85059 -16.9883 -15.0645 -36.0039 -15.0645zM596.779 220.845c-7.75098 13.7568 -45.459 80.0391 -144.779 80.0391
c-59.7295 0 -97.1895 -23.8838 -119.429 -46.1221c-9.4707 -9.4707 -17.6426 -19.8447 -25.666 -33.916c7.09668 -12.4404 15.001 -23.1621 24.9395 -33.1006c36.8848 -36.8848 82.2354 -46.7451 120.155 -46.7451c18.2344 0 74.4033 1.16113 119.892 46.6484
c13.0098 13.0107 20.7979 25.9121 24.8877 33.1963zM423.072 278.278c-5.94336 -2.23535 -15.25 -8.12402 -18.8691 -11.7441c-4.83691 -4.83594 -4.83691 -4.83594 -5.94238 -6.68066c-0.927734 -1.54785 -1.12891 -1.74219 -2.33887 -2.83398
c-1.70215 -1.53711 -2.27344 -2.23242 -2.91211 -3.86035c-0.500977 -1.27539 -3.50098 -6.70801 -4.3418 -9.0459c0.112305 -0.547852 0.0332031 -1.0918 -0.113281 -1.47656c-6.84668 -17.9248 -7.17969 -44.8545 14.2676 -66.3018
c5.57031 -5.57031 11.376 -9.46094 16.9512 -12.1963l15.3262 -7.51855l-16.7266 3.42676c-30.8389 6.31836 -52.167 20.5557 -66.4404 34.8301c-8.46973 8.46973 -14.3574 16.6045 -19.7822 25.9678c10.1836 17.6494 32.8857 51.2754 89.7598 61.6172zM496.854 543.221
l76.1201 -65.8418l-72.9736 -64.3789l-6.56055 6.93848l63.0078 53.0361l-216.313 -1.74805l-0.520508 9.89551l216.883 0.25293l-65.6826 54.9805z" />
  </g>

</svg>
