<?xml version="1.0" standalone="no"?>
<!DOCTYPE svg PUBLIC "-//W3C//DTD SVG 1.1//EN" "http://www.w3.org/Graphics/SVG/1.1/DTD/svg11.dtd" >
<svg xmlns="http://www.w3.org/2000/svg" xmlns:xlink="http://www.w3.org/1999/xlink" version="1.1" viewBox="-10 0 1009 1000">
  <g transform="matrix(1 0 0 -1 0 800)">
   <path fill="currentColor"
d="M828.399 483.872c0 9.49878 0.360099 25.4826 0.360099 28.905l-0.318652 61.3747l-8.69455 54.78l-24.0577 41.7601l-29.8355 19.1251l-33.9409 8.02542l-47.9505 1.85133v0.765382l-107.704 8.96128l-161.614 -4.8437l-135.511 -48.0118l4.97421 -24.8711
l90.1513 34.2037l168.519 13.9909l163.859 -8.05849l72.0585 -32.0852l24.6852 -76.5829c-11.2968 -92.7231 -11.5388 -94.7093 -10.6225 -98.1968c0.272553 -1.03738 0.408327 -1.98777 0.495372 -2.92219c0.487753 -0.641757 1.13403 -1.58506 1.4862 -2.05622
l30.4464 -40.7334l38.0432 -60.0682l23.93 -33.502l-96.7113 -80.2498l-3.19974 -219.288c0.962733 -7.56244 2.78458 -22.0112 5.01798 -45.877c-0.12894 -0.269919 -9.65147 -20.9678 -12.8349 -27.02c-1.80565 -3.43278 -3.36365 -6.39475 -8.94453 -11.1259
c-28.726 -6.87192 -37.6748 -9.01268 -53.7943 -9.01268c-3.38415 0 -6.77838 0.14333 -10.1737 0.446144l-127.95 -3.2205l-189.706 31.9736l-119.91 72.0259l-21.8729 31.5454c-0.18608 0.126152 -14.9542 10.3475 -18.5829 12.6523v-31.4635
c5.41685 -3.87145 13.5068 -7.36272 24.4398 -17.2503c7.32645 -6.62591 2.09556 -4.45645 10.6241 -11.9264c1.03002 -0.902171 1.03002 -0.902171 17.2005 -21.8062l70.2643 -41.1391l123.979 -35.7692l40.8353 -3.74581
c52.8258 -4.90757 59.0669 -6.73248 83.0467 -7.42728l68.08 -1.97257l89.7606 0.254271l51.1066 12.4914l15.1376 25.2075l6.27671 34.16l-0.268638 82.9487l0.0291888 84.2282l-0.00582149 87.5189l84.7837 67.8016l7.68593 8.96692l1.11464 7.19504
c0.44913 7.61262 -1.52476 12.8022 -3.31214 18.1783l-23.3304 38.8443l-33.0243 43.448l-34.3179 48.9016c-0.202711 16.1296 -0.202711 16.1296 -0.202711 17.6951zM629.965 126.734l0.0644531 -0.0615234
c-0.0117188 0.00976563 -0.0234375 0.0195312 -0.0644531 0.0615234zM592.141 200.209c0 12.3369 2.80957 20.4619 2.80957 42.9482c0 2.01367 -0.0224609 4.14355 -0.0703125 6.4043c0 0.452148 0.0488281 0.69043 0.0488281 0.697266
c0 0.462891 -0.169922 1.12988 -0.518555 1.83301l73.9893 0.508789l-0.745117 20.8789l-310.654 1.92383v-20.4033l59.4092 -4.13281c0.00390625 -0.902344 0.00585937 -1.82129 0.00585937 -2.75586c0 -27.2705 -2.03809 -67.957 -26.2656 -99.7842
c-6.92578 -9.49902 -12.2812 -16.7656 -19.7998 -26.585l13.2598 -10.4971c11.5898 12.9385 8.38281 12.2393 16.6426 22.7305c11.0049 13.9766 15.7217 24.9365 20.8447 36.9531c12.0947 -29.1484 16.3701 -34.6572 39.123 -59.4346
c10.2666 6.97266 11.082 7.53027 12.9453 9.07129c-0.0751953 0.0712891 -7.00488 6.5957 -7.6377 7.22852c-11.6484 11.6494 -32.4502 40.873 -33.6523 64.4326c-0.0439453 0.862305 -0.0654297 1.26855 -0.397461 1.60059
c-0.605469 0.605469 -0.617188 0.955078 -0.617188 4.07031v0.387695c0 12.3389 2.81055 20.4639 2.81055 42.9521c0 2.01367 -0.0224609 4.14355 -0.0712891 6.4043c0 0.452148 0.0488281 0.689453 0.0488281 0.697266c0 0.637695 -0.323242 1.66699 -0.995117 2.64062
l145.039 0.99707c0.00195313 -0.643555 0.00292969 -1.29492 0.00292969 -1.9541c0 -27.2705 -2.04004 -67.9521 -26.2666 -99.7754c-10.623 -14.582 -16.0176 -21.6494 -19.7988 -26.584l13.2588 -10.4971c11.5898 12.9385 8.38281 12.2393 16.6436 22.7285
c11.0039 13.9775 15.7217 24.9375 20.8438 36.9531c12.0977 -29.1514 16.376 -34.6621 39.124 -59.4346c8.81543 5.87891 8.81543 5.87891 8.87988 6.12891c0.210938 0.818359 0.75293 1.61816 3.14258 3.27148l-3.52832 3.88867
c-10.083 8.28125 -35.8672 42.0459 -36.8486 67.6455c-0.0224609 0.588867 -0.0742188 1.08496 -0.388672 1.40137c-0.605469 0.604492 -0.616211 0.954102 -0.616211 4.08105v0.378906zM633.522 122.813c0.180664 0.125 0.37207 0.255859 0.576172 0.391602
l-0.113281 -0.90332zM621.5 113.413c0.115234 -0.125 0.231445 -0.250977 0.347656 -0.37793l-0.774414 0.09375zM544.889 113.166l0.442383 -0.349609l-0.818359 -0.0703125c0.126953 0.141602 0.25293 0.28125 0.375977 0.419922zM531.63 123.663
c-0.121094 -0.15918 -0.241211 -0.314453 -0.359375 -0.46875l-0.104492 0.835938zM577.671 255.7l-0.618164 0.0136719l0.613281 0.604492zM473.165 120.565c0.164062 0.133789 0.333984 0.276367 0.519531 0.429688l-0.0292969 -0.895508
c-0.166016 0.158203 -0.330078 0.313477 -0.490234 0.46582zM460.22 111.494c0.117188 -0.126953 0.233398 -0.253906 0.351562 -0.381836l-0.779297 0.0908203c0.144531 0.0976562 0.287109 0.194336 0.427734 0.291016zM383.609 111.245l0.442383 -0.348633
l-0.819336 -0.0693359c0.12793 0.140625 0.25293 0.28125 0.376953 0.417969zM370.35 121.742c-0.118164 -0.155273 -0.238281 -0.311523 -0.358398 -0.467773l-0.104492 0.834961zM416.392 253.78l-0.618164 0.0136719l0.613281 0.604492zM667.654 273.479
l-0.0205078 0.583008l0.604492 -0.579102c-0.194336 0 -0.389648 -0.00390625 -0.583984 -0.00390625zM668.399 252.601c0.206055 0 0.412109 0.00390625 0.617188 0.00390625l-0.594727 -0.621094zM357 275.403c-0.198242 0 -0.397461 -0.00488281 -0.594727 -0.00488281
l0.594727 0.599609v-0.594727zM357 255v-0.603516l-0.604492 0.599609c0.202148 0 0.402344 0.00390625 0.604492 0.00390625zM581.288 375.787c-39.5488 0 -71.6436 32.0928 -71.6436 71.6436c0 18.2275 9.72754 38.6836 23.3779 52.334
c0.783203 0.783203 1.58008 1.54395 2.38965 2.28125h-158.022v16.8867c69.5059 -0.00488281 139.085 1.56641 208.526 -0.0078125c37.0732 -0.84082 67.0156 -34.3633 67.0156 -71.4941c0 -39.5488 -32.0928 -71.6436 -71.6436 -71.6436zM581.122 392.799h0.0078125
c30.2188 0 54.749 24.5381 54.749 54.7568c0 30.2227 -24.5322 54.7568 -54.7568 54.7568c-30.2217 0 -54.7559 -24.5322 -54.7559 -54.7568c0 -30.1494 24.4209 -54.6602 54.5859 -54.7559v0h0.169922v-0.000976563zM48.3545 723.521h55.5146l17.1611 52.2256
l17.1602 -52.2256h55.5156l-44.8672 -32.2959l17.1611 -52.2246l-44.9697 32.2959l-44.9707 -32.2959l17.1611 52.2246z" />
  </g>

</svg>
