<?xml version="1.0" standalone="no"?>
<!DOCTYPE svg PUBLIC "-//W3C//DTD SVG 1.1//EN" "http://www.w3.org/Graphics/SVG/1.1/DTD/svg11.dtd" >
<svg xmlns="http://www.w3.org/2000/svg" xmlns:xlink="http://www.w3.org/1999/xlink" version="1.1" viewBox="-10 0 1023 1000">
  <g transform="matrix(1 0 0 -1 0 800)">
   <path fill="currentColor"
d="M828.399 483.872c0 9.49878 0.360099 25.4826 0.360099 28.905l-0.318652 61.3747l-8.69455 54.78l-24.0577 41.7601l-29.8355 19.1251l-33.9409 8.02542l-47.9505 1.85133v0.765382l-107.704 8.96128l-161.614 -4.8437l-135.511 -48.0118l4.97421 -24.8711
l90.1513 34.2037l168.519 13.9909l163.859 -8.05849l72.0585 -32.0852l24.6852 -76.5829c-11.2968 -92.7231 -11.5388 -94.7093 -10.6225 -98.1968c0.272553 -1.03738 0.408327 -1.98777 0.495372 -2.92219c0.487753 -0.641757 1.13403 -1.58506 1.4862 -2.05622
l30.4464 -40.7334l38.0432 -60.0682l23.93 -33.502l-96.7113 -80.2498l-3.19974 -219.288c0.962733 -7.56244 2.78458 -22.0112 5.01798 -45.877c-0.12894 -0.269919 -9.65147 -20.9678 -12.8349 -27.02c-1.80565 -3.43278 -3.36365 -6.39475 -8.94453 -11.1259
c-28.726 -6.87192 -37.6748 -9.01268 -53.7943 -9.01268c-3.38415 0 -6.77838 0.14333 -10.1737 0.446144l-127.95 -3.2205l-189.706 31.9736l-119.91 72.0259l-21.8729 31.5454c-0.18608 0.126152 -14.9542 10.3475 -18.5829 12.6523v-31.4635
c5.41685 -3.87145 13.5068 -7.36272 24.4398 -17.2503c7.32645 -6.62591 2.09556 -4.45645 10.6241 -11.9264c1.03002 -0.902171 1.03002 -0.902171 17.2005 -21.8062l70.2643 -41.1391l123.979 -35.7692l40.8353 -3.74581
c52.8258 -4.90757 59.0669 -6.73248 83.0467 -7.42728l68.08 -1.97257l89.7606 0.254271l51.1066 12.4914l15.1376 25.2075l6.27671 34.16l-0.268638 82.9487l0.0291888 84.2282l-0.00582149 87.5189l84.7837 67.8016l7.68593 8.96692l1.11464 7.19504
c0.44913 7.61262 -1.52476 12.8022 -3.31214 18.1783l-23.3304 38.8443l-33.0243 43.448l-34.3179 48.9016c-0.202711 16.1296 -0.202711 16.1296 -0.202711 17.6951zM33.2949 712.521h55.5146l17.1611 52.2256l17.1602 -52.2256h55.5156l-44.8672 -32.2959
l17.1611 -52.2246l-44.9697 32.2959l-44.9707 -32.2959l17.1611 52.2246zM594.909 94.1904c-47.1846 0 -106.457 10.6709 -162.822 10.6709c-13.0049 0 -19.6035 -0.107422 -44.21 -2.51172l41.0303 44.7529l-29.1113 2.87988l-57.1963 -64.0762
c7.4082 -9.78906 10.4219 -13.7715 12.7715 -19.5811c0.0419922 -0.00585938 0.0419922 -0.00585938 1.74414 -0.228516l29.125 -42.5898l29.125 -2.87988l-35.4668 50.8379c17.8887 1.69043 31.0576 2.65918 55.0479 2.65918c44.9492 0 91.1133 -4.12402 133.054 -4.12402
c15.8008 0 30.9404 0.587891 45.1074 2.20312c44.4775 5.07324 106.64 31.0732 109.681 100.135c0.547852 12.4414 0.547852 12.4414 0.547852 15.3721c0 11.835 -2.05371 20.0928 -12.3018 33.8008c-9.05078 12.1055 -34.1895 14.2842 -58.834 14.2842
c-32.7051 0 -74.2051 -3.91895 -115.266 -3.91895c-55.1914 0 -111.528 7.01172 -149.588 40.1064c-0.441406 -0.796875 -1.52637 -2.69141 -3.35449 -3.99707c-3.60449 -2.5752 -3.82324 -8.24023 -3.82324 -9.57129c0 -6.09375 4.37598 -9.45215 9.24414 -13.1895
c37.6006 -28.8662 74.8447 -38.1377 118.584 -38.1377c20.5742 0 78.4746 3.78906 122.522 3.78906c49.3135 0 59.9697 -4.82324 63.0586 -10.6875c2.81641 -5.34766 3.9668 -11.75 3.9668 -18.6094c0 -24.9756 -15.5703 -60.5605 -28.5449 -69.8281
c-18.8389 -13.4561 -44.583 -17.5605 -74.0908 -17.5605zM500 384l-84 82.5l16 16.5l67.5 -62l120 152l18 -12.5z" />
  </g>

</svg>
