<?xml version="1.0" standalone="no"?>
<!DOCTYPE svg PUBLIC "-//W3C//DTD SVG 1.1//EN" "http://www.w3.org/Graphics/SVG/1.1/DTD/svg11.dtd" >
<svg xmlns="http://www.w3.org/2000/svg" xmlns:xlink="http://www.w3.org/1999/xlink" version="1.1" viewBox="-10 0 1016 1000">
  <g transform="matrix(1 0 0 -1 0 800)">
   <path fill="currentColor"
d="M598.795 363.569c-11.043 0 -11.043 0 -73.1641 0.570312l0.0800781 0.436523h-4.36035l3.87402 236.949l-85.8682 47.1885v13.6201l80.7939 -46.1172c4.51367 -0.0107422 9.23535 0.00390625 14.2881 0.0302734l-55.6592 104.696h15.8105l55.6064 -104.592
l2.3291 0.0166016l0.893555 143.488h18.1611l-0.893555 -143.396c1.77051 0 3.54102 0.00195312 5.31055 0.00195312l60.2139 114.32h15.8057l-59.6328 -113.215l74.0146 29.75v-13.875c-20.0771 -8.87598 -40.125 -17.7793 -60.2188 -26.6387l-11.1035 -2.64355
l1.94336 -64.7373l15.9678 9.2832l3.48633 -22.668l-18.71 -11.3887l4.6084 -153.501c-1.19336 0.806641 -2.38477 1.61426 -3.57715 2.41992zM581.124 380.84l-5.55176 222.028h-2.86719l3.33105 -222.028h5.08789zM550.28 381.376v222.122l-3.31055 0.389648
l-1.10938 -222.962zM454.216 24.0195c-2.86328 0 -5.33008 2.33496 -5.33008 5.33105v187.266c0 2.87207 2.34277 5.33008 5.34863 5.33008c0 0 52.5234 -0.211914 62.3496 -0.250977l36.1816 32.7344l1.69629 -13.2109l1.24805 -23.0879l131.882 2.87305
c2.85547 0.0625 5.31055 -2.34375 5.31055 -5.33008v-53.999l31.9629 -37.2178l-24.3867 1.32129l-8.7373 1.24805l1.16113 -98.6182c0.0332031 -2.86523 -2.35059 -5.33008 -5.34863 -5.33008zM678.639 125.154l-16.2246 -2.49512l-20.4209 2.70703l34.0068 37.2969v41.458
l-119.042 1.53027l-0.624023 -19.3447l-0.751953 -14.665l-39.3301 33.166l-50.4629 0.21582v-164.12l210.211 -0.90332zM63.3545 -23.4795h55.5146l17.1611 52.2256l17.1602 -52.2256h55.5156l-44.8672 -32.2959l17.1611 -52.2246l-44.9697 32.2959l-44.9707 -32.2959
l17.1611 52.2246z" />
  </g>

</svg>
