<?xml version="1.0" standalone="no"?>
<!DOCTYPE svg PUBLIC "-//W3C//DTD SVG 1.1//EN" "http://www.w3.org/Graphics/SVG/1.1/DTD/svg11.dtd" >
<svg xmlns="http://www.w3.org/2000/svg" xmlns:xlink="http://www.w3.org/1999/xlink" version="1.1" viewBox="-10 0 1020 1000">
  <g transform="matrix(1 0 0 -1 0 800)">
   <path fill="currentColor"
d="M30.3242 741.553h55.5146l17.1611 52.2256l17.1602 -52.2256h55.5156l-44.8672 -32.2959l17.1611 -52.2246l-44.9697 32.2959l-44.9707 -32.2959l17.1611 52.2246zM271 608l-12 60c128.725 89.7881 355.203 55.3633 442.457 48.5605
c0 -0.0107422 0.000976562 -0.0214844 0.000976562 -0.0322266c27.4463 0.582031 75.1855 -1.32129 107.268 -33.4033c40.1396 -40.1396 38.6152 -108.841 37.5254 -169.365c-0.395508 -21.9258 -0.433594 -33.2402 -0.22168 -41.9463
c26.3789 -43.8281 72.168 -89.959 89.3252 -129.607c6.95117 -16.0635 5.49219 -24.7637 2.64551 -40.2051l-12 -14l-79.501 -63.5771v-212.431c1.93945 -31.0869 1.82422 -79.2412 -27.416 -108.48c-26.0322 -26.0322 -182.507 -12.0195 -220.584 -13.0049
l-2.90137 0.0126953c-103.732 -7.2998 -296.108 50.6025 -326.603 92.1719c-18.5059 25.2275 -31.4014 41.2529 -57.9951 55.3086v70.0371c25.8174 -16.2627 49.624 -17.8066 70.1904 -60.6357c44.2188 -92.082 349.455 -105.734 451.309 -108.438l-0.499023 -0.962891
c50 12 34.1514 4.48145 42.5352 13.5361c19.1768 20.7119 3.97852 41.9688 5.50781 57.9648h-0.541992v2.14941c-0.253906 0.990234 -0.500977 1.94141 -0.738281 2.84863h0.738281v207.174v3.4873v1.33887h1.58203l104 88h1.13281
c4.9834 45.8955 -62.8379 92.1289 -94.2158 139.501l-3 4l-1 1c-2.02051 3.99219 0.0439453 4.02539 -2.08398 11.5605c-0.0371094 0.130859 -0.189453 0.24707 -0.174805 0.367188l0.258789 2.07227l0.0644531 1.49902
c0.00976562 0.226562 0.150391 3.89551 0.242188 6.24414c3.11426 79.1523 5.19727 173.389 -83.8154 173.771c-136.35 16.7461 -373.536 9.53418 -431.49 -46.5137zM541.209 238.888zM585.46 442.505l0.0322266 -0.0380859
c-0.0107422 0.0126953 -0.0322266 0.0380859 -0.0322266 0.0380859zM459.793 283.183l0.0107422 0.0625c-0.00390625 -0.0205078 -0.0107422 -0.0419922 -0.0107422 -0.0625zM470.868 257.69l-0.213867 0.0654297
c0.0712891 -0.0224609 0.142578 -0.0439453 0.213867 -0.0654297zM474.441 256.982l-0.046875 0.00390625c0.00878906 0 0.0166016 -0.00390625 0.046875 -0.00390625zM611.447 236.714c-71.9258 0.251953 -131.017 0.000976562 -131.028 0.000976562
c-8.10156 0.261719 -18.1543 0.584961 -26.8311 10.1982c-14.3887 15.9395 -11.8564 35.293 -11.0762 39.5635c1.58496 8.67871 4.06836 17.3945 7.68164 31.915c15.1387 60.8418 16.9121 69.5742 23.7988 89.6777c15.6953 45.6289 34.7041 61.0352 51.4805 67.8652
c10.2695 3.83301 43.6055 12.8779 71.1758 -17.9141c14.2012 -16.6748 25.6943 -39.2529 39.21 -93.7109c4.78711 -19.8994 9.67676 -39.7607 14.6777 -59.625c1.27441 -5.30664 2.44336 -10.6328 3.51074 -16.0137c5.2666 -25.9258 -9.77441 -52.1025 -33.9648 -51.7822z
M465.172 261.918c0.0146484 -0.0126953 0.03125 -0.0244141 0.03125 -0.0361328c4.43164 -4.81738 7.37305 -4.94434 15.4316 -5.29297c0 0 133.977 0.0585938 134.036 0.0585938c3.1377 -0.0449219 6.26465 0.139648 9.38574 0.553711
c6.46875 0.806641 16.1719 11.5781 12.9297 26.9453c-1.49805 7.54395 -1.49805 7.54395 -7.86523 33.1133c-15.8271 65.0039 -19.4336 79.8154 -30.2354 103.48c-1.97949 4.24414 -8.33496 16.9961 -16.998 25.6592c-8.47754 8.47754 -18.0557 12.9414 -29.1572 13.71
c-13.8115 1.2207 -39.084 -0.706055 -57.7939 -47.085c-7.32422 -18.4561 -11.8164 -34.6826 -16.7646 -54.3975c-11.5361 -47.4922 -11.5361 -47.4922 -15.7148 -63.165l0.00976562 0.0419922c-0.00292969 -0.0136719 -0.00976562 -0.0419922 -0.00976562 -0.0419922
c-3.29297 -13.54 -5.73438 -23.5781 2.71484 -33.5439zM306.787 287.312l-57.3867 49.6387l55.2607 48.752l14.0254 -14.834l-28.2871 -23.8105l116.601 0.941406l1.07617 -20.4814l-117.842 -0.136719l29.834 -24.9727z" />
  </g>

</svg>
