<?xml version="1.0" standalone="no"?>
<!DOCTYPE svg PUBLIC "-//W3C//DTD SVG 1.1//EN" "http://www.w3.org/Graphics/SVG/1.1/DTD/svg11.dtd" >
<svg xmlns="http://www.w3.org/2000/svg" xmlns:xlink="http://www.w3.org/1999/xlink" version="1.1" viewBox="-10 0 1010 1000">
  <g transform="matrix(1 0 0 -1 0 800)">
   <path fill="currentColor"
d="M271 608l-12 60c128.725 89.7881 355.203 55.3633 442.457 48.5605c0 -0.0107422 0.000976562 -0.0214844 0.000976562 -0.0322266c27.4463 0.582031 75.1855 -1.32129 107.268 -33.4033c40.1396 -40.1396 38.6152 -108.841 37.5254 -169.365
c-0.395508 -21.9258 -0.433594 -33.2402 -0.22168 -41.9463c26.3789 -43.8281 72.168 -89.959 89.3252 -129.607c6.95117 -16.0635 5.49219 -24.7637 2.64551 -40.2051l-12 -14l-79.501 -63.5771v-212.431c1.93945 -31.0869 1.82422 -79.2412 -27.416 -108.48
c-26.0322 -26.0322 -182.507 -12.0195 -220.584 -13.0049l-2.90137 0.0126953c-103.732 -7.2998 -296.108 50.6025 -326.603 92.1719c-18.5059 25.2275 -31.4014 41.2529 -57.9951 55.3086v70.0371c25.8174 -16.2627 49.624 -17.8066 70.1904 -60.6357
c44.2188 -92.082 349.455 -105.734 451.309 -108.438l-0.499023 -0.962891c50 12 34.1514 4.48145 42.5352 13.5361c19.1768 20.7119 3.97852 41.9688 5.50781 57.9648h-0.541992v2.14941c-0.253906 0.990234 -0.500977 1.94141 -0.738281 2.84863h0.738281v207.174v3.4873
v1.33887h1.58203l104 88h1.13281c4.9834 45.8955 -62.8379 92.1289 -94.2158 139.501l-3 4l-1 1c-2.02051 3.99219 0.0439453 4.02539 -2.08398 11.5605c-0.0371094 0.130859 -0.189453 0.24707 -0.174805 0.367188l0.258789 2.07227l0.0644531 1.49902
c0.00976562 0.226562 0.150391 3.89551 0.242188 6.24414c3.11426 79.1523 14.1973 176.389 -74.8154 176.771c-136.35 16.7461 -373.536 9.53418 -431.49 -46.5137zM30.3545 728.521h55.5146l17.1611 52.2256l17.1602 -52.2256h55.5156l-44.8672 -32.2959l17.1611 -52.2246
l-44.9697 32.2959l-44.9707 -32.2959l17.1611 52.2246zM489.521 136.547c0.0908203 0.202148 22.8447 48.1846 50.5654 106.628c27.7197 58.4424 51.0059 107.666 51.7471 109.385c1.73926 4.03711 2.95312 7.20996 6.11816 15.9941
c3.49023 9.68945 4.7793 12.9932 7.13477 18.292c4.13184 9.29688 7.95215 15.543 12.5889 20.5898c4.85449 5.28223 9.2959 7.46387 12.7764 6.27539c5.03125 -1.71875 6.04102 -10.3584 2.50977 -21.4824c-0.753906 -2.37598 -2.02637 -5.74609 -2.16992 -5.74902
c-0.103516 -0.000976563 -2.78223 2.25879 -4.68555 3.9541c-0.783203 0.698242 -1.00977 1.00391 -0.951172 1.28418c0.0429688 0.202148 0.454102 1.46973 0.916016 2.81836c1.22656 3.58398 1.5166 4.93848 1.53711 7.16992
c0.0166016 1.86328 0.0078125 1.9082 -0.441406 2.34375c-0.595703 0.577148 -0.833984 0.561523 -2.07715 -0.136719c-0.749023 -0.420898 -1.51562 -1.12109 -2.76758 -2.52832c-6.37695 -7.16504 -13.8516 -22.8682 -14.1895 -29.8086
c-0.0966797 -2.00293 0.140625 -2.83691 0.865234 -3.04199c0.999023 -0.282227 3.00879 1.16992 5.07129 3.66504c1.34668 1.62891 4.27637 5.9209 5.23828 7.67383c0.329102 0.598633 0.65625 1.08984 0.726562 1.08984s0.334961 -0.194336 0.589844 -0.431641
c0.253906 -0.237305 1.51172 -1.31836 2.79395 -2.40332c1.46289 -1.23828 2.29004 -2.05273 2.21973 -2.18848c-0.0615234 -0.119141 -0.773438 -1.33301 -1.58398 -2.69824c-2.50977 -4.23047 -4.55176 -7.32617 -10.0527 -15.2412
c-7.46582 -10.7402 -8.75391 -12.8193 -15.5635 -25.1113c-2.63184 -4.75293 -8.61133 -15.5488 -13.2871 -23.9912c-4.67676 -8.44336 -10.083 -18.2051 -12.0156 -21.6934c-1.93262 -3.48828 -6.79004 -12.2578 -10.7949 -19.4873
c-4.00488 -7.22949 -9.96387 -17.9844 -13.2422 -23.8994c-3.2793 -5.91504 -8.47949 -15.3047 -11.5566 -20.8662c-3.07812 -5.56055 -8.30078 -14.9922 -11.6074 -20.957c-9.08105 -16.3848 -22.2285 -40.1221 -29.6309 -53.498
c-5.90137 -10.6611 -7.34473 -13.2061 -6.78125 -11.9492zM667.352 358.35c-14.6182 1.41016 -31.2812 10.7529 -49.4219 27.7139l-1.84863 1.72754l0.445312 0.860352c0.972656 1.87891 2.71973 4.8125 2.86523 4.8125c0.0849609 0 0.832031 -0.648438 1.65918 -1.44043
c5.64258 -5.39941 12.7568 -11.2178 18.5088 -15.1367c14.209 -9.68262 27.0127 -13.5 37.4375 -11.1621c1.99219 0.447266 5.0459 1.57227 6.84277 2.52148c9.10254 4.80859 16.3311 15.9912 20.3018 31.4053c1.67285 6.49414 2.71191 12.8965 3.44336 21.2051
c0.355469 4.0293 0.499023 16.8809 0.245117 21.8203c-0.673828 13.0986 -2.59473 26.7012 -5.58691 39.5576c-0.361328 1.55371 -0.62793 2.85742 -0.592773 2.89746c0.0361328 0.0400391 0.662109 -1.93359 1.39062 -4.3877
c7.49414 -25.2129 10.5625 -50.7432 8.60254 -71.5615c-0.923828 -9.80957 -2.76367 -16.998 -6.44434 -25.1865c-6.66699 -14.832 -16.8975 -23.6328 -29.5908 -25.4609c-1.92383 -0.276367 -6.29199 -0.375 -8.25684 -0.185547zM465.199 366.494
c0.0458984 0.0478516 1.37402 0.630859 2.95312 1.29492c12.2383 5.14453 21.6201 10.793 29.3359 17.6621c7.30371 6.50195 13.1016 13.5156 25.999 31.4521c7.07617 9.84277 9.51465 13.0391 12.6055 16.5303c6.65527 7.51465 12.1357 10.9521 18.6719 11.709
c7.40723 0.858398 16.2744 -3.06543 26.5459 -11.7461c6.45996 -5.45898 10.8311 -9.97559 22.6904 -23.4453c5.08887 -5.78027 6.73047 -7.75 6.6123 -7.93652c-0.0849609 -0.136719 -0.851562 -1.41016 -1.70312 -2.8291l-1.54688 -2.58105l-1.00977 1.0498
c-0.554688 0.577148 -4.1582 4.62891 -8.00586 9.00391c-8.75586 9.95312 -12.8311 14.2402 -17.8076 18.7295c-7.14941 6.44922 -13.123 10.2119 -18.8359 11.8633c-1.97461 0.571289 -2.24512 0.604492 -4.87012 0.59375
c-2.45215 -0.00878906 -2.96191 -0.0654297 -4.34082 -0.482422c-6.46875 -1.95703 -11.1816 -6.55859 -21.709 -21.1943c-10.1963 -14.1758 -15.4131 -20.5586 -22.0293 -26.957c-11.6465 -11.2617 -24.9512 -18.5898 -39.958 -22.0078
c-2.96289 -0.673828 -3.70117 -0.820312 -3.59766 -0.708984z" />
  </g>

</svg>
