<?xml version="1.0" standalone="no"?>
<!DOCTYPE svg PUBLIC "-//W3C//DTD SVG 1.1//EN" "http://www.w3.org/Graphics/SVG/1.1/DTD/svg11.dtd" >
<svg xmlns="http://www.w3.org/2000/svg" xmlns:xlink="http://www.w3.org/1999/xlink" version="1.1" viewBox="-10 0 1051 1000">
  <g transform="matrix(1 0 0 -1 0 800)">
   <path fill="currentColor"
d="M828.399 483.872c0 9.49878 0.360099 25.4826 0.360099 28.905l-0.318652 61.3747l-8.69455 54.78l-24.0577 41.7601l-29.8355 19.1251l-33.9409 8.02542l-47.9505 1.85133v0.765382l-107.704 8.96128l-161.614 -4.8437l-135.511 -48.0118l4.97421 -24.8711
l90.1513 34.2037l168.519 13.9909l163.859 -8.05849l72.0585 -32.0852l24.6852 -76.5829c-11.2968 -92.7231 -11.5388 -94.7093 -10.6225 -98.1968c0.272553 -1.03738 0.408327 -1.98777 0.495372 -2.92219c0.487753 -0.641757 1.13403 -1.58506 1.4862 -2.05622
l30.4464 -40.7334l38.0432 -60.0682l23.93 -33.502l-96.7113 -80.2498l-3.19974 -219.288c0.962733 -7.56244 2.78458 -22.0112 5.01798 -45.877c-0.12894 -0.269919 -9.65147 -20.9678 -12.8349 -27.02c-1.80565 -3.43278 -3.36365 -6.39475 -8.94453 -11.1259
c-28.726 -6.87192 -37.6748 -9.01268 -53.7943 -9.01268c-3.38415 0 -6.77838 0.14333 -10.1737 0.446144l-127.95 -3.2205l-189.706 31.9736l-119.91 72.0259l-21.8729 31.5454c-0.18608 0.126152 -14.9542 10.3475 -18.5829 12.6523v-31.4635
c5.41685 -3.87145 13.5068 -7.36272 24.4398 -17.2503c7.32645 -6.62591 2.09556 -4.45645 10.6241 -11.9264c1.03002 -0.902171 1.03002 -0.902171 17.2005 -21.8062l70.2643 -41.1391l123.979 -35.7692l40.8353 -3.74581
c52.8258 -4.90757 59.0669 -6.73248 83.0467 -7.42728l68.08 -1.97257l89.7606 0.254271l51.1066 12.4914l15.1376 25.2075l6.27671 34.16l-0.268638 82.9487l0.0291888 84.2282l-0.00582149 87.5189l84.7837 67.8016l7.68593 8.96692l1.11464 7.19504
c0.44913 7.61262 -1.52476 12.8022 -3.31214 18.1783l-23.3304 38.8443l-33.0243 43.448l-34.3179 48.9016c-0.202711 16.1296 -0.202711 16.1296 -0.202711 17.6951zM33.2949 712.521h55.5146l17.1611 52.2256l17.1602 -52.2256h55.5156l-44.8672 -32.2959
l17.1611 -52.2246l-44.9697 32.2959l-44.9707 -32.2959l17.1611 52.2246zM634.571 228.679l11.9043 10.0723c0.668945 -25.6611 2.52051 -45.3262 5.55176 -58.9961c3.0752 -13.6689 7.35645 -20.5049 12.8408 -20.5049c5.52832 0 9.63184 5.99609 12.3057 17.9883
c2.67578 12.2295 4.01367 26.498 4.01367 42.8066c0 14.6279 -1.14355 26.1504 -3.54492 34.5332c0 0 1.81055 28.6182 -4.72852 37.5039c-8.82812 11.9893 -2.73242 9.46387 -6.04785 18.1426c-3.38965 8.87305 -24.208 26.9814 -25.9199 42.3379
c-1.74023 15.5879 -4.36719 23.9629 -4.36719 42.6689c0 17.0283 0.711914 32.7363 2.13867 47.124c1.47168 14.6299 3.45605 26.7402 5.95215 36.333c1.87305 7.43457 4.41406 13.6699 7.625 18.7061c3.25586 5.27539 6.73242 7.91406 10.4336 7.91406
c5.57324 0 10.4551 -4.31641 14.6465 -12.9502c4.23535 -8.63281 7.35645 -20.3848 9.3623 -35.2529c2.00781 -14.6299 3.38965 -34.2939 4.14746 -58.9951l-11.7715 -8.63379c-0.53418 19.6641 -2.0957 35.0127 -4.68164 46.0449
c-2.54102 11.0312 -6.15234 16.5479 -10.834 16.5479c-5.5293 0 -9.47461 -4.91602 -11.8369 -14.749c-2.36426 -9.83301 -3.54492 -21.3438 -3.54492 -34.5342c0 -8.39355 0.489258 -15.9463 1.4707 -22.6641c0.980469 -6.9541 2.51953 -12.709 4.61426 -17.2646
c1.2041 -2.39941 4.74805 -7.91504 10.6348 -16.5488c8.5166 -12.2305 14.4463 -22.3027 17.791 -30.2168c3.3877 -7.67383 6.04102 -18.9453 7.95801 -33.8145c1.91699 -14.8682 2.87598 -33.335 2.87598 -55.3975c0 -21.584 -1.18164 -41.9688 -3.54688 -61.1543
c-2.31641 -18.9463 -5.68359 -33.6953 -10.0977 -44.2451c-4.41406 -10.3125 -9.4082 -15.4688 -14.9805 -15.4688c-9.22949 0 -16.2744 10.3105 -21.1348 30.9346c-4.81445 20.625 -7.89258 51.2021 -9.22949 91.7324zM392.479 116.554l-80.4727 79.0342l15.3281 15.8066
l64.666 -59.3945l114.959 145.615l17.2461 -11.9746zM484.812 519.8l-72.627 -73.3477l79.0342 -72.6494l-10.2891 -8.57129l-79.124 72.8389l-71.5625 -72.8389l-7.47266 8.17188l70.6523 71.8506l-69.4551 72.25l9.18164 8.78223l70.252 -69.8555l73.4482 70.2539z" />
  </g>

</svg>
