<?xml version="1.0" standalone="no"?>
<!DOCTYPE svg PUBLIC "-//W3C//DTD SVG 1.1//EN" "http://www.w3.org/Graphics/SVG/1.1/DTD/svg11.dtd" >
<svg xmlns="http://www.w3.org/2000/svg" xmlns:xlink="http://www.w3.org/1999/xlink" version="1.1" viewBox="-10 0 1138 1000">
  <g transform="matrix(1 0 0 -1 0 800)">
   <path fill="currentColor"
d="M61.748 746.129h55.5146l17.1611 52.2256l17.1602 -52.2256h55.5156l-44.8672 -32.2959l17.1611 -52.2246l-44.9697 32.2959l-44.9707 -32.2959l17.1611 52.2246zM506.772 -21.2373c-1.38574 0 -2.50098 1.125 -2.50098 2.49902l2.39844 69.0293
c-6.97266 8.34668 -14.125 16.1592 -21.168 23.8516c-31.0508 33.9141 -60.1094 65.7266 -60.21 129.897c-0.0849609 53.4785 19.3691 80.8379 30.2637 91.9199c34.4336 33.6602 79.8916 42.1211 103.517 42.1211c2.14844 0 4.86621 1.82227 7.69727 1.68848
c69.8301 -3.28516 84.7324 -8.80762 120.311 -39.7539c4.59277 -3.99512 5.92871 -7.25098 6.52637 -10.3262c0.107422 -0.554688 0.167969 -0.771484 0.189453 -0.838867c16.3027 -18.8115 27.7412 -68.251 28.6279 -82.6299
c0.0605469 -0.974609 0.207031 -2.10742 0.375 -3.3877c0.476562 -3.62109 1.10742 -8.40527 0.0537109 -14.4258c-14.5068 -82.8516 -53.9326 -106.695 -58.5693 -119.685c-0.25293 -0.708008 -0.486328 -0.825195 -0.586914 -0.925781
c-1.10547 -1.10547 -10.6836 -5.98926 -18.3789 -9.6084c-0.96582 -2.75098 -0.96582 -2.75098 -1.45605 -3.25977c-0.226562 -0.87207 -0.432617 -2.41406 -0.432617 -2.41406l-1.42871 -70.5146c-0.0273438 -1.35547 -1.12793 -2.44043 -2.4834 -2.44824zM693.69 288.96
l-0.165039 0.143555l-1.51074 -1.97363zM686.671 297.877l-1.6543 0.682617l-1.65625 -4.15137zM578.548 320.664c-40.0898 0 -66.2324 -7.07715 -99.5674 -31.792c-8.79004 -8.79004 -33.2559 -35.1709 -33.3711 -80.9375
c-0.15332 -60.2461 26.1045 -88.6094 40.208 -102.713c7.02734 -7.02832 7.02734 -7.02832 8.19141 -8.7666c2.30078 -3.4375 2.30078 -3.4375 17.2344 -19.625c3.42969 -0.84375 8.67188 -3.00488 13.9883 -8.53223c2.9082 -3.02148 1.73438 -14.2412 1.19629 -19.374
l-0.478516 -58.3711l92.6289 -0.475586l4.35645 71.6416c0.0410156 0.678711 0.354492 1.30957 0.879883 1.75488c3.07715 2.62305 3.15723 2.69238 4.75293 4.28711c1.57422 1.57422 6.14258 6.03516 10.1602 7.2041c1.45605 0.423828 3.4873 4.4502 7.70703 7.60449
c20.1855 15.0898 50.0625 53.0723 53.7725 107.815c0.542969 8.00879 -0.693359 16.7461 -2.27344 26.1201c-3.34375 19.8359 -8.24414 48.0264 -23.3262 65.5996c-2.34473 1.93262 -3.05664 2.57422 -13.8525 13.3701c-19.3135 19.3135 -51.292 25.1895 -82.207 25.1895z
M251.807 440.257c-0.488281 -16.7002 1.35938 -36.5596 41.917 -64.9502c34.415 -24.0908 62.9326 -25.8213 102.083 -24.8516c45.6152 1.17383 64.6484 7.03711 92.1934 29.5449c36.6279 29.9316 42.6973 39.3125 38.292 56.8945l-5.82422 23.2529l-0.213867 -0.381836
c0.0117188 1.40723 -0.928711 3.19727 -0.916016 4.60449l-32.6836 51.5498c-0.876953 -0.0351562 -0.177734 0.761719 -1.05469 0.728516c-20.2305 13.3379 -22.3867 19.1162 -29.9443 23.5723c-11.6377 6.86328 -29.5283 5.48145 -40.9189 -2.29297
c-5.66992 -17.0801 -40.8496 -19.8164 -57.0605 -4.41406c-1.50977 1.43555 -2.625 0.636719 -2.48242 2.39844c-17.3271 11.9238 -49.7842 -0.0898438 -58.9561 -21.6914l-1.1123 -2.61914l-1.85352 0.712891l-35.7432 -50.6016zM538.313 466.822
c2.78418 -8.43164 4.57617 -17.5566 6.91699 -26.2979l1.63281 -0.0263672c-1.24121 -26.1904 -1.70898 -36.0527 -44.2363 -69.6582c-31.6455 -25.0049 -54.8135 -33.8125 -107.476 -34.4062c-36.2246 -0.408203 -82.3594 0.947266 -122.804 34.3984
c-15.9375 13.1797 -41.2344 38.6895 -41 67.668h-1.13379c1.23926 4.64453 1.23926 4.64453 1.35645 8.21094l0.830078 -0.0136719l3.55078 13.3164h-1.55859c0.80957 1.09961 1.61914 2.19922 2.42773 3.29883v3.74219h2.75586l40.2178 54.6455h1.27637
c13.9141 32.5381 67.2227 48.2139 87.9287 23.0088c2.94043 -1.32129 16.2734 -6.64062 30.3135 -1.52246c7.23145 9.67871 27.5508 19.0205 50.418 14.2783c22.1152 -4.58594 44.4258 -25.1592 54.2129 -35.1758h0.469727
c0.344727 -0.508789 0.581055 -1.0918 1.01465 -1.53711l3.07617 -3.20898l29.3652 -50.1797c0.438477 0.0371094 0.785156 0.00976562 0.71582 -0.308594zM532.999 461.764zM238.297 444.982zM532.999 461.764zM344.266 350.677zM275.075 372.444zM395.094 338.932z
M395.377 347.944zM238.297 444.982zM278.612 519.201zM494.492 373.966zM48.0098 538.999v0zM50.875 209.246v0zM51.6504 192v0zM176 192l-0.986328 363.246h-127.004v-16.2471h109.75v-329.753h-106.885l0.775391 -17.2461h124.35zM176 192v0zM175.014 555.246v0z
M48.0098 555.246v0zM367.578 382.282l-5.58789 -0.374023l2.58789 3.32129zM321.65 449.408l-2.68555 2.46777l5.22656 0.15332zM321.65 449.408l-10.9355 -11.2773l53.8633 -52.9014l87.4609 112.269l-12.3652 8.58691l-75.5469 -95.6924zM439.674 506.085
l-2.89453 2.01074l5.08398 0.761719zM452.039 497.498l2.43359 3.12305l0.824219 -5.38477zM310.715 438.131l-2.59375 -2.67383l-0.0644531 5.28516zM271 608l-12 60c128.725 89.7881 355.203 55.3633 442.457 48.5605
c0 -0.0107422 0.000976562 -0.0214844 0.000976562 -0.0322266c27.4463 0.582031 75.1855 -1.32129 107.268 -33.4033c40.1396 -40.1396 38.6152 -108.841 37.5254 -169.365c-0.395508 -21.9258 -0.433594 -33.2402 -0.22168 -41.9463
c26.3789 -43.8281 72.168 -89.959 89.3252 -129.607c6.95117 -16.0635 5.49219 -24.7637 2.64551 -40.2051l-12 -14l-79.501 -63.5771v-212.431c1.93945 -31.0869 1.82422 -79.2412 -27.416 -108.48c-26.0322 -26.0322 -182.507 -12.0195 -220.584 -13.0049
l-2.90137 0.0126953c-103.732 -7.2998 -296.108 50.6025 -326.603 92.1719c-18.5059 25.2275 -31.4014 41.2529 -57.9951 55.3086v70.0371c25.8174 -16.2627 49.624 -17.8066 70.1904 -60.6357c44.2188 -92.082 349.455 -105.734 451.309 -108.438l-0.499023 -0.962891
c50 12 34.1514 4.48145 42.5352 13.5361c19.1768 20.7119 3.97852 41.9688 5.50781 57.9648h-0.541992v2.14941c-0.253906 0.990234 -0.500977 1.94141 -0.738281 2.84863h0.738281v207.174v3.4873v1.33887h1.58203l104 88h1.13281
c4.9834 45.8955 -62.8379 92.1289 -94.2158 139.501l-3 4l-1 1c-2.02051 3.99219 0.0439453 4.02539 -2.08398 11.5605c-0.0371094 0.130859 -0.189453 0.24707 -0.174805 0.367188l0.258789 2.07227l0.0644531 1.49902
c0.00976562 0.226562 0.150391 3.89551 0.242188 6.24414c3.11426 79.1523 5.19727 173.389 -83.8154 173.771c-136.35 16.7461 -373.536 9.53418 -431.49 -46.5137z" />
  </g>

</svg>
