<?xml version="1.0" standalone="no"?>
<!DOCTYPE svg PUBLIC "-//W3C//DTD SVG 1.1//EN" "http://www.w3.org/Graphics/SVG/1.1/DTD/svg11.dtd" >
<svg xmlns="http://www.w3.org/2000/svg" xmlns:xlink="http://www.w3.org/1999/xlink" version="1.1" viewBox="-10 0 1124 1000">
  <g transform="matrix(1 0 0 -1 0 800)">
   <path fill="currentColor"
d="M804.673 518.586c0 9.49805 0.359375 25.4824 0.359375 28.9043l-0.318359 61.375l-8.69434 54.7803l-24.0576 41.7598l-29.8359 19.125l-33.9404 8.02539c-15.9834 0.617188 -31.9668 1.23438 -47.9512 1.85156v0.765625l-107.703 8.96094l-161.614 -4.84375
l-135.512 -48.0117l4.97461 -24.8711l90.1514 34.2041l168.52 13.9902l163.858 -8.05859l72.0586 -32.085l24.6855 -76.583c-11.2969 -92.7227 -11.5391 -94.709 -10.623 -98.1963c0.273438 -1.03711 0.40918 -1.98828 0.496094 -2.92188
c0.487305 -0.642578 1.13379 -1.58594 1.48633 -2.05664l30.4463 -40.7334l38.043 -60.0684c7.97656 -11.167 15.9531 -22.335 23.9297 -33.502l-96.7109 -80.25l-3.2002 -219.288c0.962891 -7.5625 2.78516 -22.0107 5.01855 -45.877
c-0.128906 -0.269531 -9.65137 -20.9678 -12.835 -27.0195c-1.80566 -3.43262 -3.36426 -6.39453 -8.94434 -11.126c-28.7266 -6.87207 -37.6748 -9.0127 -53.7949 -9.0127c-3.38379 0 -6.77832 0.143555 -10.1738 0.446289l-127.95 -3.2207l-189.705 31.9736
l-119.91 72.0264c-7.29102 10.5146 -14.582 21.0303 -21.873 31.5449c-0.185547 0.125977 -14.9541 10.3477 -18.583 12.6523v-31.4639c5.41699 -3.87109 13.5068 -7.3623 24.4404 -17.25c7.32617 -6.62598 2.0957 -4.45605 10.624 -11.9268
c1.03027 -0.901367 1.03027 -0.901367 17.2002 -21.8057l70.2646 -41.1396l123.979 -35.7686l40.835 -3.74609c52.8262 -4.90723 59.0674 -6.73242 83.0469 -7.42676l68.0801 -1.97266l89.7607 0.253906l51.1064 12.4912l15.1377 25.208l6.27637 34.1602l-0.268555 82.9482
l0.0292969 84.2285l-0.00585938 87.5186l84.7842 67.8018l7.68555 8.9668l1.11523 7.19531c0.448242 7.6123 -1.52539 12.8018 -3.3125 18.1777l-23.3301 38.8447l-33.0244 43.4482l-34.3184 48.9014c-0.202148 16.1299 -0.202148 16.1299 -0.202148 17.6953z
M253.188 357.585l-86.0801 -74.457l82.8916 -73.1279l21.0361 22.252l-42.4287 35.7148l296.699 -2.0127l1.61523 30.7227l-298.562 0.804688l44.751 37.46zM648.443 465.359l86.0801 -74.457l-82.8916 -73.1279l-21.0361 22.252l42.4287 35.7148l-300.299 -2.61328
l-1.61523 30.7227l302.162 1.40527l-44.751 37.46zM48.3545 723.521h55.5146l17.1611 52.2256l17.1602 -52.2256h55.5156l-44.8672 -32.2959l17.1611 -52.2246l-44.9697 32.2959l-44.9707 -32.2959l17.1611 52.2246zM48.3545 723.521h55.5146l17.1611 52.2256
l17.1602 -52.2256h55.5156l-44.8672 -32.2959l17.1611 -52.2246l-44.9697 32.2959l-44.9707 -32.2959l17.1611 52.2246z" />
  </g>

</svg>
