<?xml version="1.0" standalone="no"?>
<!DOCTYPE svg PUBLIC "-//W3C//DTD SVG 1.1//EN" "http://www.w3.org/Graphics/SVG/1.1/DTD/svg11.dtd" >
<svg xmlns="http://www.w3.org/2000/svg" xmlns:xlink="http://www.w3.org/1999/xlink" version="1.1" viewBox="-10 0 982 1000">
  <g transform="matrix(1 0 0 -1 0 800)">
   <path fill="currentColor"
d="M271 608l-12 60c128.725 89.7881 355.203 55.3633 442.457 48.5605c0 -0.0107422 0.000976562 -0.0214844 0.000976562 -0.0322266c27.4463 0.582031 75.1855 -1.32129 107.268 -33.4033c40.1396 -40.1396 38.6152 -108.841 37.5254 -169.365
c-0.395508 -21.9258 -0.433594 -33.2402 -0.22168 -41.9463c26.3789 -43.8281 72.168 -89.959 89.3252 -129.607c6.95117 -16.0635 5.49219 -24.7637 2.64551 -40.2051l-12 -14l-79.501 -63.5771v-212.431c1.93945 -31.0869 1.82422 -79.2412 -27.416 -108.48
c-26.0322 -26.0322 -182.507 -12.0195 -220.584 -13.0049l-2.90137 0.0126953c-103.732 -7.2998 -296.108 50.6025 -326.603 92.1719c-18.5059 25.2275 -31.4014 41.2529 -57.9951 55.3086v70.0371c25.8174 -16.2627 49.624 -17.8066 70.1904 -60.6357
c44.2188 -92.082 349.455 -105.734 451.309 -108.438l-0.499023 -0.962891c50 12 34.1514 4.48145 42.5352 13.5361c19.1768 20.7119 3.97852 41.9688 5.50781 57.9648h-0.541992v2.14941c-0.253906 0.990234 -0.500977 1.94141 -0.738281 2.84863h0.738281v207.174v3.4873
v1.33887h1.58203l104 88h1.13281c4.9834 45.8955 -62.8379 92.1289 -94.2158 139.501l-3 4l-1 1c-2.02051 3.99219 0.0439453 4.02539 -2.08398 11.5605c-0.0371094 0.130859 -0.189453 0.24707 -0.174805 0.367188l0.258789 2.07227l0.0644531 1.49902
c0.00976562 0.226562 0.150391 3.89551 0.242188 6.24414c3.11426 79.1523 14.1973 176.389 -74.8154 176.771c-136.35 16.7461 -373.536 9.53418 -431.49 -46.5137zM30.3545 728.521h55.5146l17.1611 52.2256l17.1602 -52.2256h55.5156l-44.8672 -32.2959l17.1611 -52.2246
l-44.9697 32.2959l-44.9707 -32.2959l17.1611 52.2246zM607.999 102.154zM407.619 236.961zM370.199 168.071zM516 78zM515.737 69.6348zM404.336 100.741zM468.56 80.5371zM643.741 183.647zM370.199 168.071zM643.741 183.647zM555.011 272.093
c-14.125 0 -26.084 -5.49414 -32.1494 -11.5596c-2.30762 -2.30859 -1.71777 -2.42871 -2.67285 -2.77539c-4.28809 -1.56445 -8.49023 -2.13086 -12.3252 -2.13086c-3.62012 0 -10.1992 0.535156 -17.3223 3.73535c-4.83984 5.8916 -13.0244 11.2539 -26.7881 11.2539
c-20.6611 0 -44.2227 -12.7891 -52.417 -31.9502l-0.404297 -0.946289h-1.42578l-37.3301 -50.7227h-1.78613v-2.42578c-0.242188 -0.329102 -0.484375 -0.657227 -0.726562 -0.986328h0.390625l-4.13379 -15.5039l-0.464844 0.00683594
c-0.0839844 -1.58789 -0.233398 -2.49902 -0.734375 -4.47266h0.601562c-0.0146484 -1.75195 -0.0146484 -1.75195 -0.0146484 -1.93066c0 -11.335 4.8916 -34.2734 37.4922 -61.2354c34.4297 -28.4785 73.3672 -31.6182 105.646 -31.6182
c52.9072 0 74.4775 6.63086 106.136 31.6484c38.6748 30.5586 39.3271 39.5576 40.3906 61.8945l-1.08203 0.0166016c-0.0664062 0.249023 -4.81641 19.6328 -6.50098 24.8506l-27.6416 47.2334c-3.11523 3.25195 -3.11523 3.25195 -3.42871 3.79004h-0.205078
c-9.71875 9.94629 -30.0908 28.5596 -49.9824 32.6836c-3.80664 0.789062 -7.53418 1.14453 -11.1211 1.14453zM463.214 258.432c2.97363 0 9.58301 0 17.1182 -5.18555l-0.0585938 -0.719727c0.435547 -0.177734 1.13281 -0.504883 1.80957 -1.14844
c6.38477 -6.06641 16.1963 -8.91504 25.5127 -8.91504c8.67773 0 16.9258 2.4707 21.5684 7.11426c0.90332 0.904297 2.36328 2.3623 3.48926 5.75879c4.78418 3.26465 12.3848 6.82812 22.7578 6.82812c13.7656 0 20.2012 -5.99512 25.1367 -10.5908
c3.83496 -3.57129 8.88477 -8.28613 19.7461 -15.4736c0.415039 -0.0898438 0.755859 -0.290039 1.0293 -0.598633l0.238281 0.00976563l31.0635 -48.9961c0 -0.0830078 -0.00195312 -0.166992 -0.00195312 -0.251953c2.22754 -8.34668 4.26172 -16.8867 6.40723 -25.3164
c0.75 -2.99609 1.17188 -5.77344 1.17188 -8.46191c0 -12.8994 -9.59766 -23.3496 -37.2422 -45.9414c-25.4746 -20.8154 -43.9229 -27.9561 -99.5176 -27.9561c-30.0977 0 -54.3584 3.69727 -82.6914 23.5303c-34.9277 24.4502 -39.624 42.4551 -39.624 58.4883
c0 1.05762 0.0205078 2.09961 0.0498047 3.125c1.74316 6.91699 3.63574 13.6826 5.43555 20.542l34.0381 48.1924c0.483398 -0.186523 0.96582 -0.373047 1.44824 -0.558594c1.14746 2.7002 3.09961 7.30078 8.39746 12.5986
c8.53711 8.53809 21.1738 13.9268 32.7178 13.9268zM546.95 482.166c12.1338 -44.5498 44.7461 -80.2041 104.05 -110.166l-3.73535 -9.05273c-58.0098 29.3926 -93.3203 64.6201 -107.771 107.676c-13.6084 -38.2246 -51.9639 -86.0488 -85.6172 -106.751l-6.06641 9.15234
c66.5293 42.7012 98.501 106.636 95.7061 195.737l9.67969 -0.212891c0.130859 -0.00390625 0.241211 -8.35938 0.241211 -11.5479c0 -21.6963 -6.48633 -74.835 -6.48633 -74.835z" />
  </g>

</svg>
