<?xml version="1.0" standalone="no"?>
<!DOCTYPE svg PUBLIC "-//W3C//DTD SVG 1.1//EN" "http://www.w3.org/Graphics/SVG/1.1/DTD/svg11.dtd" >
<svg xmlns="http://www.w3.org/2000/svg" xmlns:xlink="http://www.w3.org/1999/xlink" version="1.1" viewBox="-10 0 1179 1000">
  <g transform="matrix(1 0 0 -1 0 800)">
   <path fill="currentColor"
d="M649.685 473.469c0 -26.7441 9.58984 -51.8545 28.3311 -70.6553c15.5547 -15.4932 45.4238 -27.832 67.3809 -27.832c4.9873 0 11.6328 0.794922 20 2.375c45.5986 8.60547 82.6035 53.1338 82.6035 99.6436c0 8.27441 -1.85156 20.9863 -4.21191 28.9248
c-5.19336 18.3516 -23.0537 45.626 -24.4307 47.6416c-6.39355 10.0938 -8.02832 12.6895 -10.7363 17.4082c-16.2188 28.5312 -32.4639 57.0371 -48.666 85.584c-4.49902 10.1855 -6.37793 12.0508 -9.88086 13.5879c-3.80078 0 -5.04297 -0.0322266 -7.15137 -2.14062
c-1.30273 -1.30273 -1.37793 -1.48633 -3.67676 -5.79199c-1.34961 -2.52832 -32.2266 -58.7646 -47.9932 -84.1504c-3.01758 -4.85938 -18.4951 -29.8467 -28.0508 -49.083c-9.05859 -18.2754 -13.5176 -37.2734 -13.5176 -55.5117zM745.702 388.078
c-17.8115 0 -44.5391 10.1475 -58.9082 24.5156c-15.8291 15.8291 -23.9922 37.2695 -23.9922 60.4414c0 16.2324 4.00586 33.3154 12.1875 49.915c7.24902 14.5938 15.9658 29.0293 24.4238 43.0293c7.56445 12.292 7.53223 12.2363 44.5547 76.8506
c0.0751953 0.142578 0.0751953 0.142578 3.89355 7.56641l49.2695 -85.5449c2.05566 -3.54102 3.90918 -6.67285 11.1367 -17.9756c6.51855 -9.54199 15.5234 -25.835 20.127 -36.3662c0.0761719 -0.19043 0.160156 -0.37207 0.240234 -0.558594v-0.046875
c4.63867 -11.874 6.38965 -25.6738 6.38965 -33.3262c0 -40.5234 -32.4297 -79.4736 -72.376 -86.752c-8.68066 -1.58203 -14.6543 -1.74805 -16.9463 -1.74805zM77 393c-0.137695 0 -0.745117 0.258789 -0.745117 0.829102
c0 0.0888672 0.0136719 0.176758 0.0351562 0.255859c-0.341797 6.65527 -0.682617 13.3105 -1.02441 19.9658l245.224 25.1523c-2.36719 0.225586 -4.53906 0.432617 -4.56445 0.435547c-25.2979 4.30664 -34.6709 16.209 -34.6709 41.1602
c0 56.2324 47.2812 149.828 56.8369 199.845c0.439453 2.30273 3.46094 4.0127 3.46094 5.73438c0 0.120117 0.62207 1.60547 0.5 2.5l1 -1c0.0244141 -0.796875 0.616211 -1.33691 0.640625 -2.13379v0c11.3164 -54.4404 54.0967 -126.619 54.0967 -178.397
c0 -17.0195 -5.05078 -29.6406 -12.7383 -45.1982c-1.77441 -3.59082 -3.95508 -8.00586 -6.82129 -14.0898c-0.234375 -0.498047 -2.30371 -2.69531 -12.04 -11.0508l-6.74121 2.80957l-0.759766 2.27637c0.199219 0.189453 13.5352 13.4395 14.2607 23.4268
c0.349609 4.81641 0.514648 9.43262 0.514648 13.8623c0 44.8262 -16.8701 70.5215 -29.5957 89.9316c-4.02246 6.13477 -7.63965 11.6445 -10.1797 16.957c-10.9297 -34.2646 -35.1367 -69.6045 -35.1367 -103.394c0 -16.7373 9.29883 -29.7988 9.5 -30
c4.75391 -4.75391 7.93262 -8.0752 19.25 -11.4404v-1.53613l0.700195 0.0722656c2.45605 5.99316 8.42676 11.6807 15.5 11.6807c10.6094 0 15.8105 -9.33008 15.8105 -16.8438c0 -7.80273 -6.01953 -16.6816 -13.7607 -16.6816
c-3.59082 0 -7.78125 1.70703 -11.29 4.31445c-51.2764 -7.9248 -174.746 -21.8818 -253.032 -28.9873c-2.16309 -0.196289 -3.54492 -0.313477 -4.0293 -0.34082c0 0 -0.0517578 -0.115234 -0.200195 -0.115234zM348.481 97.6934l-82.2217 148.848l24.0225 10.1475
l58.4395 -100.383l53.3027 101.418l27.2285 -11.0254zM265.568 -67.707v34.6641h38.626v22.0713h-38.626v34.6641h38.626v33.7148h31.3828v-33.7148h23.2197v31.2539h31.3828v-31.2539h41.292v-34.6641h-41.292v-22.0713h41.292v-34.6641h-41.292v-36.1855h-31.3828v36.1855
h-23.2197v-33.7246h-31.3828v33.7246h-38.626zM335.577 -33.043h23.2197v22.0713h-23.2197v-22.0713zM780.659 223.904c-0.529297 0 -0.985352 0.173828 -1.32227 0.358398l-214.094 -88.2627v-37.8242c12.126 5.10742 24.251 10.2148 36.376 15.3213v-3.77051
l-0.21875 -161.659h318.305l0.646484 155.446c10.9619 -6.48535 21.9238 -12.9697 32.8867 -19.4551l-0.677734 40.7051l-136.33 79.1182l1.46387 0.616211c-22.6963 11.7715 -24.457 12.7314 -36.2109 19.5508c-0.288086 -0.102539 -0.56543 -0.144531 -0.824219 -0.144531
zM884.594 -16.7148h-248.003l-0.665039 144.662l142.009 59.8174l107.859 -63.8086zM63.3545 -23.4795h55.5146l17.1611 52.2256l17.1602 -52.2256h55.5156l-44.8672 -32.2959l17.1611 -52.2246l-44.9697 32.2959l-44.9707 -32.2959l17.1611 52.2246z" />
  </g>

</svg>
