<?xml version="1.0" standalone="no"?>
<!DOCTYPE svg PUBLIC "-//W3C//DTD SVG 1.1//EN" "http://www.w3.org/Graphics/SVG/1.1/DTD/svg11.dtd" >
<svg xmlns="http://www.w3.org/2000/svg" xmlns:xlink="http://www.w3.org/1999/xlink" version="1.1" viewBox="-10 0 1010 1000">
  <g transform="matrix(1 0 0 -1 0 800)">
   <path fill="currentColor"
d="M339.993 -162.333c-6.48633 0 -11.833 5.2793 -11.833 11.833v240.084c0 6.50684 5.29688 11.833 11.877 11.833c0 0 65.7803 -0.266602 77.9971 -0.31543l52.0459 47.0879c3.43555 -26.9775 3.43555 -26.9775 4.76465 -51.5605l164.489 3.58496
c6.35254 0 11.666 -5.28613 11.666 -11.8369v-67.377l47.4023 -55.1924c-43.6182 2.40039 -43.6182 2.40039 -48.8213 3.14355l1.41992 -120.739c0 -6.43457 -5.30762 -11.752 -11.8779 -11.752zM619.486 -131.826l3.04492 98.2959
c-5.18848 -0.797852 -10.376 -1.5957 -15.5645 -2.39453l-36.374 4.82227l48.7402 53.4541v46.2783l-142.78 1.83496c-0.43457 -15.876 -0.43457 -15.876 -2.12695 -48.8555l-56.7363 47.8438l-57.8594 0.248047v-200.412zM50.3545 720.521h55.5146l17.1611 52.2256
l17.1602 -52.2256h55.5156l-44.8672 -32.2959l17.1611 -52.2246l-44.9697 32.2959l-44.9707 -32.2959l17.1611 52.2246zM508.586 282.499c-0.0615234 0 -0.163086 -0.000976563 -0.224609 -0.000976563c-18.3164 0 -43.7148 10.4912 -56.6924 23.417
c-26.5 26.584 -31.333 68.25 -12.416 106.417c6.41602 12.917 14 25.5 21.333 37.667c3.91699 6.41602 7.83301 12.916 11.5 19.416l26.5 46.417l1.25 2.41699c5.83301 11.416 7.33301 14.25 10.667 14.25h1.58301c2.83301 -1.16699 4.66699 -4.75 7.08301 -10.084
c0.416992 -0.916016 0.75 -1.75 1 -2.08301l41.084 -72.083c2.91602 -5.08398 6.08301 -10 9.25 -15c5.8877 -8.60352 14.0264 -23.3496 18.166 -32.917c1.00098 -2.44434 1.86133 -4.94434 2.58398 -7.5c1.96191 -6.58789 3.55469 -17.5127 3.55469 -24.3867
c0 -39.1133 -31.1982 -76.7217 -69.6387 -83.9463c-4.52246 -0.999023 -11.9521 -1.89453 -16.583 -2zM510.503 520.499c-1.25 -2.25 -2.5 -4.83398 -3.16699 -6.25l-1.5 -2.91699l-26.5 -46.25c-3.75 -6.58301 -7.66699 -13.083 -11.667 -19.583
c-7.25 -12 -14.75 -24.417 -21 -37c-17.333 -35.167 -13.166 -73.084 10.75 -96.667c11.7314 -11.6504 34.6719 -21.1055 51.2051 -21.1055c4.12695 0 10.7549 0.681641 14.7949 1.52246c34.9238 6.3623 63.2666 40.3369 63.2666 75.835
c0 6.4209 -1.53809 16.6123 -3.43262 22.748c-0.666992 2.33301 -1.44434 4.61133 -2.33398 6.83301c-3.98145 9.15039 -11.7842 23.2627 -17.416 31.5c-3.25 5.08398 -6.5 10.167 -9.5 15.334l-41.084 71.333c0 0.583008 -0.833008 1.58301 -1.33301 2.83301z
M691.786 528.569l1.58398 1.58398c0.431641 0.431641 0.305664 1.12012 0 1.42578l-47.5186 47.5176c-0.431641 0.431641 -1.11816 0.305664 -1.42383 0l-1.58496 -1.58398c-0.431641 -0.430664 -0.305664 -1.11914 0 -1.4248l47.5176 -47.5186
c0.431641 -0.431641 1.12012 -0.305664 1.42578 0zM825.276 529.2l-1.58398 1.58398c-0.431641 0.431641 -0.305664 1.12012 0 1.42578l47.5186 47.5186c0.430664 0.429688 1.11816 0.305664 1.42383 0l1.58496 -1.58398c0.431641 -0.432617 0.305664 -1.12012 0 -1.42578
l-47.5176 -47.5186c-0.431641 -0.430664 -1.12012 -0.305664 -1.42578 0zM758.58 548.03c58.0996 0 105.42 -38.5703 105.42 -86.0303c0 -47.459 -47.3203 -86.0996 -105.42 -86.0996s-105.42 38.5703 -105.42 86.0303c0 47.459 47.3203 86.0996 105.42 86.0996z
M758.58 382.9c54.25 0 98.4199 35.4199 98.4199 79.0303c0 43.6094 -44.1699 79.0996 -98.4199 79.0996c-54.249 0 -98.4199 -35.4209 -98.4199 -79.0303s44.1709 -79.0996 98.4199 -79.0996zM191.786 528.568l1.58398 1.58496c0.431641 0.431641 0.305664 1.11914 0 1.4248
l-47.5186 47.5176c-0.431641 0.431641 -1.11816 0.306641 -1.42383 0l-1.58496 -1.58398c-0.431641 -0.430664 -0.305664 -1.11914 0 -1.4248l47.5176 -47.5186c0.431641 -0.430664 1.12012 -0.305664 1.42578 0zM325.276 529.2l-1.58398 1.58301
c-0.431641 0.431641 -0.305664 1.12109 0 1.42676l47.5186 47.5166c0.430664 0.431641 1.11816 0.306641 1.42383 0l1.58496 -1.58301c0.431641 -0.431641 0.305664 -1.12012 0 -1.42578l-47.5176 -47.5176c-0.431641 -0.432617 -1.12012 -0.305664 -1.42578 0z
M258.58 548.03c58.0996 0 105.42 -38.5703 105.42 -86.0312c0 -47.459 -47.3203 -86.0986 -105.42 -86.0986s-105.42 38.5693 -105.42 86.0293s47.3203 86.1006 105.42 86.1006zM258.58 382.9c54.25 0 98.4199 35.4199 98.4199 79.0293
c0 43.6104 -44.1699 79.1006 -98.4199 79.1006c-54.249 0 -98.4199 -35.4209 -98.4199 -79.0312c0 -43.6094 44.1709 -79.0986 98.4199 -79.0986z" />
  </g>

</svg>
