<?xml version="1.0" standalone="no"?>
<!DOCTYPE svg PUBLIC "-//W3C//DTD SVG 1.1//EN" "http://www.w3.org/Graphics/SVG/1.1/DTD/svg11.dtd" >
<svg xmlns="http://www.w3.org/2000/svg" xmlns:xlink="http://www.w3.org/1999/xlink" version="1.1" viewBox="-10 0 1008 1000">
  <g transform="matrix(1 0 0 -1 0 800)">
   <path fill="currentColor"
d="M348.481 97.6934l-82.2217 148.848l24.0225 10.1475l58.4395 -100.383l53.3027 101.418l27.2285 -11.0254zM265.568 -67.707v34.6641h38.626v22.0713h-38.626v34.6641h38.626v33.7148h31.3828v-33.7148h23.2197v31.2539h31.3828v-31.2539h41.292v-34.6641h-41.292
v-22.0713h41.292v-34.6641h-41.292v-36.1855h-31.3828v36.1855h-23.2197v-33.7246h-31.3828v33.7246h-38.626zM335.577 -33.043h23.2197v22.0713h-23.2197v-22.0713zM780.659 223.904c-0.529297 0 -0.985352 0.173828 -1.32227 0.358398l-214.094 -88.2627v-37.8242
c12.126 5.10742 24.251 10.2148 36.376 15.3213v-3.77051l-0.21875 -161.659h318.305l0.646484 155.446c10.9619 -6.48535 21.9238 -12.9697 32.8867 -19.4551l-0.677734 40.7051l-136.33 79.1182l1.46387 0.616211c-22.6963 11.7715 -24.457 12.7314 -36.2109 19.5508
c-0.288086 -0.102539 -0.56543 -0.144531 -0.824219 -0.144531zM884.594 -16.7148h-248.003l-0.665039 144.662l142.009 59.8174l107.859 -63.8086zM63.3545 -23.4795h55.5146l17.1611 52.2256l17.1602 -52.2256h55.5156l-44.8672 -32.2959l17.1611 -52.2246
l-44.9697 32.2959l-44.9707 -32.2959l17.1611 52.2246zM619.48 555.04l18.3594 7.2002l-3.40332 -54l-11.7158 -30.2402h-18.7207l12.2402 33.1201zM488.714 567.07c6.74902 0.0947266 13.498 1.21484 20.2461 3.4502l13.6807 -51.4805l-7.2002 -51.1201l-11.5205 -4.32031
l3.8418 52.5605zM470.8 570.16c3.71094 -1.43457 7.37891 -2.90137 12.9609 -2.87988c0.299805 -35.8418 2.2793 -65.3604 0.719727 -93.6006h-12.2402zM642.16 565.84l15.1377 14.3564l20.8623 -102.196h-18zM489.219 579.925c-27.9932 0 -50.71 24.667 -50.71 51.1396
c0 12.9805 7.9209 28.9258 13.3047 34.4287c1.42773 1.49219 2.14648 3.39941 2.14648 5.30371c0 1.89844 -0.713867 3.79492 -2.15527 5.27734c-7.04102 7.0498 -12.7559 20.8516 -12.7656 30.7314c0 0.736328 1.55176 12.542 2.76855 15.2432
c6.27539 14.4141 24.0967 26.3818 39.7881 26.7578l0.109375 0.00292969l0.110352 -0.00390625c13.79 -0.486328 31.6963 -10.7832 38.585 -26.4297c1.13281 -2.36035 3.90527 -4.43652 7.05176 -4.43652c2.15527 0 3.48145 0.876953 4.41113 1.49023
c8.3623 5.52832 23.3135 10.04 33.3096 10.04c0.765625 0 2.0498 -0.0332031 2.45215 -0.0439453c0.0234375 0 0.0429688 -0.000976562 0.0595703 -0.000976562c3.18457 0.0185547 6.08887 2.3418 7.09766 4.89258c7.18359 17.418 28.3604 31.5713 47.1543 31.5713
c-0.336914 0.155273 -0.495117 0.254883 -0.495117 0.300781c0 0.0214844 0.0322266 0.03125 0.09375 0.03125c1.68262 0 25.5771 -7.60254 33.6885 -15.7148c3.06836 -3.06836 12.0186 -12.915 14.2822 -25.4121c0.80957 -4.07715 4.35449 -6.18066 7.2041 -6.27148
c26.2422 -0.705078 47.5479 -22.5918 47.5479 -48.8408c0 -0.358398 -0.436523 -20.4404 -13.249 -33.2529c-7.64355 -7.64258 -16.8086 -11.6504 -17.4756 -11.9131c-6.99609 -2.75977 -15.2656 -3.8125 -19.1641 -3.8125h-0.0830078
c-5.99902 0.134766 -10.8018 3.12988 -17.6045 3.12988c-3.41699 0 -5.35254 -0.916992 -6.39648 -1.96094c-0.125977 -0.136719 -0.665039 -0.74707 -2.77539 -3.14258c1.50098 -3.46484 3.60449 -8.32031 3.60449 -14.6963
c0 -9.24121 -5.43457 -17.8779 -5.70703 -17.9199c-1.37207 -1.89844 -3.01172 -3.7627 -4.81152 -5.5625c-5.32031 -5.32031 -11.9824 -10.0889 -17.5518 -12.3428c-13.3105 -5.38477 -24.7002 -5.45801 -25.6172 -5.45801c-9.47754 0 -21.748 3.59375 -22.4756 4.16602
c-11.375 4.7207 -25.0205 18.0664 -29.8135 31.2246c-0.84668 2.19336 -3.21094 4.44922 -5.89062 4.97656c-0.646484 0.0400391 -1.37402 0.0517578 -2.14941 0.0517578c-0.0693359 0 -3.94824 -0.549805 -6.11719 -3.20312
c-11.1367 -13.6162 -30.2256 -20.3408 -41.7617 -20.3408zM575.264 567.088l-0.0341797 0.0146484zM451.743 665.418v0zM427.375 630.142c0 -34.2891 30.0684 -63.0713 61.3389 -63.0713c23.4326 0 41.6299 14.4609 44.5869 16.9863l3.20801 2.73926
c3.74219 -5.86523 6.17969 -9.68555 12.2275 -15.7334c6.69141 -6.69238 14.8701 -12.6123 22.3975 -15.5801c6.97461 -2.7207 18.3457 -4.8584 25.833 -4.8584c9.60547 0 19.9541 2.23145 31.3359 6.62598c10.2422 3.95312 23.0557 14.248 28.9951 22.9463
c3.04883 4.46484 6.48145 15.6982 6.48145 23.7266c0 0.582031 0 0.582031 -0.229492 5.82129c6.15723 -1.24316 8.40332 -1.69727 11.0254 -1.69727c3.06836 0 14.8301 1.49512 23.2471 5.08301c9.17773 3.73438 20.8252 13.0244 26.373 20.6982
c6.48145 9.05469 11.6074 25.0205 11.6074 36.1572c0 8.06543 -2.78125 20.0684 -6.3252 27.3096c-6.08008 12.4219 -25.7529 29.6348 -46.8633 32.9844l-2.25098 0.357422c-1.64648 5.30859 -5.12109 16.5107 -17.1143 28.5039
c-6.81152 6.81152 -21.6777 18.8701 -41.5693 18.8701c-25.6787 0 -47.6396 -18.7988 -55.9863 -34.6807l-0.961914 -1.83105c-8.10449 -0.490234 -20.3438 -2.33105 -32.4951 -8.31836l-2.8877 -1.42285c-2.9541 4.41699 -4.47949 6.69727 -8.26758 10.4844
c-10.1572 10.1582 -25.3232 17.8496 -39.0088 18.2949c-0.167969 0.00292969 -0.335938 0.00488281 -0.505859 0.00488281c-16.582 0 -41.8135 -13.5273 -50.2715 -35.1377c-2.00684 -5.39258 -3.36133 -18.5801 -3.54004 -19.5732
c0 -10.6084 4.98145 -25.0039 11.7402 -34.1934l1.55176 -2.11035l-1.49316 -2.15332c-6.98926 -10.0742 -12.1787 -25.8115 -12.1787 -37.2324zM598.284 657.219zM598.808 670.448zM508.908 658.554zM509.299 670.793zM485.639 678.354l-0.632812 1.23535
l-0.605469 1.24512l-0.548828 1.26074l-0.188477 9.89844l6.17285 6.28516l8.54688 2.41016l8.33789 -1.94238l3.86035 -4.36719l1.02344 -2.91895l-0.0107422 -5.45898l-1.06543 -6.72266l-0.847656 -8.83008h89.127l0.0507812 -1.61328l0.00292969 -1.61816v0
l-0.212891 -4.39453l-0.192383 -2.83789l-0.171875 -2.76562h-88.0088l0.0917969 -3.24023l-0.0742188 -3.23438l-0.310547 -3.20801l-2.56543 -8.71191l-3.53906 -4.83008l-2.87891 -2.00195l-6.90527 -0.466797l-5.26172 3.45117l-3.20508 3.77344l-3.96191 7.01465
l-0.321289 5.9668l2.82715 6.06348l3.7002 6.52441l0.735352 6.04492zM509.44 670.448v0.270508c-0.100586 -0.123047 -0.451172 -0.330078 0 -0.270508zM598.284 657.219l0.523438 13.2295v0c-0.116211 2.85449 -0.444336 5.69824 -0.896484 8.51855
c-0.34375 2.14648 -0.765625 4.28027 -1.01758 6.43848c-0.206055 1.77539 -0.279297 3.58203 0.03125 5.3418c0.44043 2.50293 1.73438 4.85547 3.66406 6.50977c1.92871 1.65332 4.39453 2.60938 6.90918 2.9707c2.63184 0.378906 5.33887 0.15625 7.90039 -0.555664
s4.99805 -1.93359 6.99902 -3.68457c2.05664 -1.80176 3.61621 -4.21094 4.20605 -6.88086c0.588867 -2.6709 0.139648 -5.49219 -0.894531 -8.02344c-0.439453 -1.07617 -0.96582 -2.11426 -1.49805 -3.14746c-0.588867 -1.14453 -1.18262 -2.28809 -1.70215 -3.4668
c-0.517578 -1.17383 -0.963867 -2.38281 -1.25488 -3.63281c-0.368164 -1.57324 -0.470703 -3.21777 -0.198242 -4.81055c0.253906 -1.48145 0.820312 -2.89453 1.52051 -4.22559c0.822266 -1.56348 1.81641 -3.0293 2.76562 -4.52051
c1.24512 -1.95703 2.41895 -4.01074 2.91113 -6.27734c0.442383 -2.04004 0.295898 -4.19043 -0.333008 -6.18066c-0.834961 -2.63965 -2.3916 -4.99023 -4.05273 -7.20508c-1.01758 -1.35449 -2.09277 -2.6709 -3.29492 -3.86523
c-1.5625 -1.55371 -3.39258 -2.89551 -5.49121 -3.56836c-2.36523 -0.757812 -5.0127 -0.564453 -7.25098 0.512695c-1.10059 0.52832 -2.10547 1.24707 -3 2.0791c-1.5127 1.40527 -2.71777 3.12305 -3.65332 4.96387c-1.4082 2.77441 -2.20605 5.83008 -2.63379 8.91211
c-0.162109 1.16602 -0.268555 2.33887 -0.328125 3.51367c-0.0605469 1.17578 -0.0732422 2.35352 -0.0576172 3.53125c0.015625 1.1748 0.0595703 2.34961 0.126953 3.52344v0v0zM509.44 657.219c0.0595703 -0.451172 -0.147461 -0.0996094 -0.270508 0h0.270508z" />
  </g>

</svg>
