<?xml version="1.0" standalone="no"?>
<!DOCTYPE svg PUBLIC "-//W3C//DTD SVG 1.1//EN" "http://www.w3.org/Graphics/SVG/1.1/DTD/svg11.dtd" >
<svg xmlns="http://www.w3.org/2000/svg" xmlns:xlink="http://www.w3.org/1999/xlink" version="1.1" viewBox="-10 0 1008 1000">
  <g transform="matrix(1 0 0 -1 0 800)">
   <path fill="currentColor"
d="M348.481 97.6934l-82.2217 148.848l24.0225 10.1475l58.4395 -100.383l53.3027 101.418l27.2285 -11.0254zM265.568 -67.707v34.6641h38.626v22.0713h-38.626v34.6641h38.626v33.7148h31.3828v-33.7148h23.2197v31.2539h31.3828v-31.2539h41.292v-34.6641h-41.292
v-22.0713h41.292v-34.6641h-41.292v-36.1855h-31.3828v36.1855h-23.2197v-33.7246h-31.3828v33.7246h-38.626zM335.577 -33.043h23.2197v22.0713h-23.2197v-22.0713zM780.659 223.904c-0.529297 0 -0.985352 0.173828 -1.32227 0.358398l-214.094 -88.2627v-37.8242
c12.126 5.10742 24.251 10.2148 36.376 15.3213v-3.77051l-0.21875 -161.659h318.305l0.646484 155.446c10.9619 -6.48535 21.9238 -12.9697 32.8867 -19.4551l-0.677734 40.7051l-136.33 79.1182l1.46387 0.616211c-22.6963 11.7715 -24.457 12.7314 -36.2109 19.5508
c-0.288086 -0.102539 -0.56543 -0.144531 -0.824219 -0.144531zM884.594 -16.7148h-248.003l-0.665039 144.662l142.009 59.8174l107.859 -63.8086zM63.3545 -23.4795h55.5146l17.1611 52.2256l17.1602 -52.2256h55.5156l-44.8672 -32.2959l17.1611 -52.2246
l-44.9697 32.2959l-44.9707 -32.2959l17.1611 52.2246zM740.185 476.57c0 53.6602 -43.5547 97.2119 -97.2109 97.2119c-53.6602 0 -97.2119 -43.5537 -97.2119 -97.2119c0 -45.2334 31.1777 -83.748 73.7217 -94.335c-6.29199 4.90625 -14.8467 14.7393 -14.8467 31.9365
c0 42.125 51.7275 52.6523 75.6758 28.7051c14.7764 -14.7773 15.248 -39.6953 2.02246 -55.2109c11.0146 4.89062 20.957 11.7686 29.3643 20.1758c17.5986 17.5967 28.4854 41.9023 28.4854 68.7285zM755.205 476.573c0 -61.9619 -50.2842 -112.233 -112.231 -112.233
c-61.9521 0 -112.233 50.2744 -112.233 112.233c0 61.8857 50.3486 112.231 112.233 112.231c61.958 0 112.231 -50.2803 112.231 -112.231zM676.896 414.121l1.21875 0.0214844l0.00488281 0.00488281l-0.621094 0.59668l-0.605469 -0.621094
c0.00195312 0 0.00292969 -0.00195312 0.00292969 -0.00195312zM676.799 415.418l-0.611328 0.589844l0.577148 0.00683594c-0.408203 6.0459 -2.83301 11.9551 -7.27051 16.3936c-14.8232 14.8232 -49.835 9.84766 -49.835 -18.248
c0.00878906 -28.0752 35.0029 -33.0488 49.833 -18.2178c4.40723 4.40625 6.82617 10.2588 7.26367 16.2529c-0.299805 -0.00292969 -0.510742 -0.00585938 -0.520508 -0.00585938l0.555664 0.578125c0.0458984 0.881836 0.0478516 1.76758 0.0078125 2.65039z
M368.651 600.857c0 14.1904 3.4707 28.8955 10.4482 42.9736c7.22852 14.5518 18.749 33.1309 21.0176 36.7822c12.041 19.3887 35.3604 61.9834 35.6992 62.6191c2.53418 4.74707 4.34277 7.62793 11.3096 7.62793h0.822266
c4.54297 -1.99316 6.18457 -3.60645 10.0059 -12.2344c37.9092 -66.668 37.9092 -66.668 43.9014 -76.1279c1.40723 -2.06934 14.5107 -21.8818 18.624 -36.4141c1.9043 -6.40723 3.29102 -15.9199 3.29102 -22.6025c0 -36.5361 -28.9033 -71.1289 -64.5342 -77.8535
c-6.35352 -1.19922 -11.4717 -1.83203 -15.585 -1.83203c-17.5684 0 -40.375 9.42871 -52.8164 21.8213c-14.6992 14.7471 -22.1836 34.4277 -22.1836 55.2402zM443.879 541.324c35.8076 0 62.4551 31.4902 62.4551 61.8438c0 6.36133 -1.75586 16.6572 -4.62109 23.6924
c-3.89258 8.88477 -8.56445 16.9199 -14.6455 26.4287c-5.92285 9.26367 -5.92285 9.26367 -41.4111 70.8848c-27.1455 -47.377 -27.2119 -47.4922 -32.8398 -56.6367c-16.7734 -27.7607 -26.6221 -44.1377 -26.6221 -67.002c0 -16.2871 5.7168 -31.1777 16.6816 -42.1406
c9.75098 -9.75195 29.001 -17.0703 41.0029 -17.0703z" />
  </g>

</svg>
