<?xml version="1.0" standalone="no"?>
<!DOCTYPE svg PUBLIC "-//W3C//DTD SVG 1.1//EN" "http://www.w3.org/Graphics/SVG/1.1/DTD/svg11.dtd" >
<svg xmlns="http://www.w3.org/2000/svg" xmlns:xlink="http://www.w3.org/1999/xlink" version="1.1" viewBox="-10 0 1050 1000">
  <g transform="matrix(1 0 0 -1 0 800)">
   <path fill="currentColor"
d="M743.122 497.223c108.872 0 197.222 -88.3623 197.222 -197.223c0 -108.873 -88.3623 -197.223 -197.222 -197.223c-97.8779 0 -183.232 76.416 -195.646 172.449c-0.46875 3.62891 -0.938477 7.25684 -1.40723 10.8848h-446.069v27.7773h446.069
c3.34863 25.9092 9.87012 76.3555 58.1152 124.601c36.1836 36.1836 85.8193 58.7334 138.938 58.7334zM742.777 130.556c93.502 0 169.431 75.9014 169.431 169.444c0 93.5391 -75.917 169.444 -169.444 169.444c-81.1084 0 -153.015 -61.7744 -166.978 -140.872
l-2.5918 -14.6836h100.891c5.04199 14.1611 8.05469 22.623 19.6084 34.1768c13.0381 13.0371 30.9629 21.3789 49.0703 21.3789c38.333 0 69.4443 -31.1104 69.4443 -69.4443c0 -38.333 -31.1104 -69.4443 -69.4443 -69.4443c-28.7715 0 -56.3359 20.8916 -65.7266 47.2637
l-2.95215 8.29199h-100.894c5.08984 -28.543 11.8311 -66.3525 50.292 -104.813c31.0361 -31.0371 73.6035 -50.6777 119.294 -50.7422z" />
  </g>

</svg>
