<?xml version="1.0" standalone="no"?>
<!DOCTYPE svg PUBLIC "-//W3C//DTD SVG 1.1//EN" "http://www.w3.org/Graphics/SVG/1.1/DTD/svg11.dtd" >
<svg xmlns="http://www.w3.org/2000/svg" xmlns:xlink="http://www.w3.org/1999/xlink" version="1.1" viewBox="-10 0 1044 1000">
  <g transform="matrix(1 0 0 -1 0 800)">
   <path fill="currentColor"
d="M255.928 339.604h13.002c0.320312 -8.95996 0.640625 -17.9199 0.959961 -26.8799c49.5312 1.7334 94.3096 22.5957 127.135 55.4209c11.9307 11.9307 22.2832 25.4434 30.7109 40.1914l-20.8018 11.0391l-2.55957 -4.05273l-127.579 60.1953
c-4.16211 -2.28027 -8.93945 -3.57617 -14.0205 -3.57617c-16.1396 0 -29.2207 13.082 -29.2207 29.2217c0 12.335 7.64062 22.8828 18.4473 27.1719v136.269h3v24.9004c-25.501 -1.2002 -98.1133 -11.0498 -146.688 -81.9873
c7.30664 -4.21777 14.6133 -8.43652 21.9199 -12.6553l-7.50098 -12.9902c-7.4668 4.31152 -14.9336 8.62207 -22.4004 12.9336c-15.834 -27.5986 -24.8877 -59.5693 -24.8877 -93.6455c0 -33.2334 8.66602 -64.5068 23.8633 -91.6758
c7.72461 4.45996 15.4482 8.91992 23.1729 13.3799l7.50098 -12.9912l-22.834 -13.1836c32.6416 -48.8203 87.4023 -81.6201 149.74 -83.9521c-0.320312 8.95605 -0.639648 17.9121 -0.959961 26.8672zM470.167 501.162c0 -113.801 -92.3613 -206.162 -206.167 -206.162
c-113.805 0 -206.166 92.3613 -206.166 206.167c0 113.134 91.8115 205.483 204.938 206.162h0.412109c113.82 0 206.529 -92.3701 206.982 -206.167zM270 689.621v-25.0176h1.96484l4.92383 -137.846c7.98926 -4.41504 13.6914 -12.4629 14.8789 -21.915l125.646 -68.873
l-3.52148 -5.57617l19.8984 -10.5605c11.9111 24.6328 18.6406 52.2168 18.7656 81.3379c0 35.1738 -9.64844 68.0996 -26.4404 96.291c-7.27051 -4.55078 -14.541 -9.10254 -21.8115 -13.6533l-6.50195 11.2607c7.09375 4.44043 14.1885 8.88184 21.2822 13.3223
c-14.5488 20.9922 -62.1992 78.5088 -149.085 81.2295zM922.963 20.5088c0 -8.84277 -7.19727 -16.04 -16.1016 -16.04c0.0302734 0 -373.908 1.50879 -373.908 1.50879c-8.81152 0 -16.04 7.1709 -16.04 16.04v300.105c0 8.84082 7.19434 16.042 16.1016 16.042
c-0.0273438 0 80.5654 -0.326172 97.0107 -0.392578l61.2031 55.373l30.3682 -31.3281c-9.38184 -8.10059 -18.7637 -16.2002 -28.1455 -24.3008l213.536 -0.861328c8.78711 -0.0380859 15.9756 -7.19824 15.9756 -16.041v-83.7568l54.2324 -63.1455l-32.9072 -29.0898
c-7.1084 9.04199 -14.2168 18.083 -21.3252 27.124v-151.237zM559 48l321.879 -1.38281v128.597c-8.72363 -9.74121 -17.4482 -19.4824 -26.1719 -29.2246l-31.3447 29.499l57.5166 63.0791v56.0664l-184.912 0.792969c9.45996 -7.71973 18.9209 -15.4385 28.3809 -23.1582
l-28.0996 -32.7471l-66.6328 56.1914l-70.6152 0.302734v-248.016zM735 486l-116 204l33.3076 18.2119l83.6748 -143.73l76.3633 145.293l42.6543 -17.7744z" />
  </g>

</svg>
