<?xml version="1.0" standalone="no"?>
<!DOCTYPE svg PUBLIC "-//W3C//DTD SVG 1.1//EN" "http://www.w3.org/Graphics/SVG/1.1/DTD/svg11.dtd" >
<svg xmlns="http://www.w3.org/2000/svg" xmlns:xlink="http://www.w3.org/1999/xlink" version="1.1" viewBox="-10 0 1043 1000">
  <g transform="matrix(1 0 0 -1 0 800)">
   <path fill="currentColor"
d="M869.235 480.127c0 9.49902 0.359375 25.4824 0.359375 28.9053l-0.318359 61.374l-8.69434 54.7803l-24.0576 41.7598l-29.8359 19.125l-33.9404 8.02637c-15.9844 0.616211 -31.9678 1.2334 -47.9512 1.85059v0.765625l-107.703 8.96094l-161.614 -4.84375
l-135.512 -48.0117l4.97461 -24.8711l90.1514 34.2041l168.52 13.9912l163.858 -8.05859l72.0586 -32.0859l24.6855 -76.582c-11.2969 -92.7236 -11.5391 -94.71 -10.623 -98.1973c0.272461 -1.03711 0.408203 -1.9873 0.496094 -2.92188
c0.487305 -0.641602 1.13379 -1.58496 1.48535 -2.05664l30.4473 -40.7334l38.043 -60.0684c7.97656 -11.167 15.9531 -22.334 23.9297 -33.502l-96.7109 -80.25l-3.2002 -219.287c0.962891 -7.5625 2.78516 -22.0117 5.01855 -45.877
c-0.128906 -0.270508 -9.65137 -20.9678 -12.835 -27.0205c-1.80566 -3.43262 -3.36426 -6.39453 -8.94531 -11.126c-28.7256 -6.87207 -37.6748 -9.0127 -53.7939 -9.0127c-3.38379 0 -6.77832 0.143555 -10.1738 0.446289l-127.95 -3.2207l-189.705 31.9736
l-119.91 72.0264c-7.29102 10.5146 -14.582 21.0303 -21.873 31.5449c-0.185547 0.125977 -14.9541 10.3477 -18.583 12.6523v-31.4629c5.41699 -3.87207 13.5068 -7.36328 24.4404 -17.251c7.32617 -6.62598 2.09473 -4.45605 10.624 -11.9258
c1.0293 -0.902344 1.0293 -0.902344 17.2002 -21.8066l70.2646 -41.1387l123.979 -35.7695l40.835 -3.74609c52.8262 -4.90723 59.0674 -6.73242 83.0469 -7.42676l68.0801 -1.97266l89.7607 0.253906l51.1064 12.4912l15.1377 25.208l6.27637 34.1602l-0.268555 82.9482
l0.0292969 84.2285l-0.00585938 87.5186l84.7842 67.8018l7.68555 8.9668l1.11426 7.19531c0.449219 7.6123 -1.52441 12.8018 -3.31152 18.1787l-23.3311 38.8438l-33.0234 43.4482l-34.3184 48.9014c-0.202148 16.1299 -0.202148 16.1299 -0.202148 17.6953z
M378.822 404.844c13.9678 8.00977 73.2158 35.6377 136.619 -28.5254c67.4658 68.5566 127.656 32.7109 134.553 27.5381c1.2002 -0.899414 2.40137 -1.80078 3.60059 -2.70117v-180.652l-14.5078 11.2852c-3.39941 2.58301 -53.6963 38.7002 -118.857 -33.8066
c0.00390625 0.00390625 -6.60645 -7.32031 -6.67285 -7.39453c-9.84277 10.9072 -10.0527 11.1396 -13.3213 14.4082c-58.0566 58.0566 -109.885 27.9717 -113.046 26.168c-4.55664 -2.93848 -9.11426 -5.87695 -13.6709 -8.81543v179.025l5.08789 3.4707h0.21582z
M391.516 252.485c10.5 3.33301 23.915 5.6582 33.624 5.6582c20.2393 0 53.4814 -5.9209 88.3975 -40.9551c20.2041 20.5889 53.4346 45.8555 93.3398 43.5576c8.47852 -0.411133 19.7588 -3.05566 28.8105 -6.57324v137.482
c-16.3037 9.11035 -60.9717 23.8594 -113.475 -34.46c-2.22461 -2.46582 -4.4502 -4.93262 -6.6748 -7.39746c-9.7002 10.7451 -10.0244 11.1035 -13.3701 14.4492c-51.6416 51.6416 -97.2744 34.1279 -110.652 27.2129v-138.975zM688.027 191.293zM317.947 440.269z
M248.836 313.036zM518.116 146.685zM517.63 131.234zM311.884 188.685zM430.496 151.369zM754.039 341.804zM248.836 313.036zM754.039 341.804zM763.149 350.475c4.77246 -14.4541 7.84473 -30.0967 11.8584 -45.0811l2.79785 -0.0458984
c-2.12793 -44.8975 -2.92871 -61.8037 -75.834 -119.413c-54.248 -42.8662 -93.9648 -57.9658 -184.243 -58.9834c-62.0996 -0.700195 -141.187 1.62402 -210.521 58.9688c-27.3203 22.5947 -70.6885 66.3262 -70.2861 116.002h-1.94336
c2.12402 7.96289 2.12402 7.96289 2.32617 14.0771l1.42188 -0.0244141l6.08789 22.8301h-2.67188c1.38672 1.88477 2.77539 3.76953 4.16309 5.65332v6.41602h4.72168l68.9453 93.6777h2.1875c23.8545 55.7803 115.241 82.6514 150.736 39.4434
c5.03906 -2.26465 27.8965 -11.3848 51.9648 -2.60938c12.3975 16.5928 47.2314 32.6064 86.4307 24.4775c37.9131 -7.86133 76.1582 -43.1309 92.9385 -60.3027h0.803711c0.591797 -0.871094 0.996094 -1.87109 1.74023 -2.63379l5.27246 -5.50098l50.3418 -86.0234
c0.750977 0.0634766 1.34473 0.0166016 1.22656 -0.52832zM271.994 304.935c-0.834961 -28.6279 2.33105 -62.6738 71.8584 -111.343c58.998 -41.2988 107.885 -44.2656 174.999 -42.6025c78.1973 2.0127 110.826 12.0625 158.045 50.6475
c62.792 51.3115 73.1963 67.3926 65.6455 97.5352l-9.98535 39.8604l-0.367188 -0.654297c0.0214844 2.41211 -1.5918 5.48047 -1.57031 7.89355l-56.0293 88.3711c-1.50391 -0.0595703 -0.302734 1.30664 -1.80664 1.24805
c-34.6807 22.8652 -38.3789 32.7715 -51.334 40.4111c-19.9482 11.7637 -50.6191 9.39648 -70.1455 -3.93066c-9.71973 -29.2803 -70.0283 -33.9727 -97.8184 -7.56836c-2.58984 2.46094 -4.5 1.0918 -4.25488 4.11133
c-29.7051 20.4404 -85.3457 -0.15332 -101.068 -37.1846l-1.90723 -4.49023l-3.17773 1.22363l-61.2744 -86.7471zM48.3545 723.521h55.5146l17.1611 52.2256l17.1602 -52.2256h55.5156l-44.8672 -32.2959l17.1611 -52.2246l-44.9697 32.2959l-44.9707 -32.2959
l17.1611 52.2246zM846.499 224.424zM885.083 314.5z" />
  </g>

</svg>
