<?xml version="1.0" standalone="no"?>
<!DOCTYPE svg PUBLIC "-//W3C//DTD SVG 1.1//EN" "http://www.w3.org/Graphics/SVG/1.1/DTD/svg11.dtd" >
<svg xmlns="http://www.w3.org/2000/svg" xmlns:xlink="http://www.w3.org/1999/xlink" version="1.1" viewBox="-10 0 1115 1000">
  <g transform="matrix(1 0 0 -1 0 800)">
   <path fill="currentColor"
d="M980.29 697.885v-795.498h-436.872v795.498h436.872zM1032.13 762.538h-540.562v-924.805h540.562v924.805zM748.749 130.651c91.7784 0.0692059 166.25 74.5706 166.25 166.349c0 113.391 -91.8329 204.013 -203.669 204.147l-10.2606 0.0131276v-32.1611
l10.234 -0.0150973c94.6731 -0.120709 171.533 -77.0704 171.533 -171.751c0.00177058 -0.278044 0.00265466 -0.555951 0.00265466 -0.833716c0 -71.3347 -58.3698 -133.524 -134.079 -133.585c-57.379 0.115936 -103.961 46.8282 -103.961 104.201
c0 45.0328 36.376 80.2861 80.0518 80.2861c33.4963 -0.0553412 60.7475 -27.3247 60.8017 -60.819l0.0170656 -10.2308h32.1611l-0.0150962 10.2621c-0.0701804 49.7831 -39.9536 92.9871 -93.7268 92.9871c-54.9945 0 -111.375 -45.0975 -111.453 -112.239
c0 -76.1111 61.5619 -136.472 136.113 -136.61zM416.8 293.926l-127.309 110.118l-19.8827 -22.5996l87.7929 -73.4885l-311.553 -0.361461l1.63756 -31.1433l309.69 2.50246l-83.8439 -70.576l21.1459 -22.3674z" />
  </g>

</svg>
