<?xml version="1.0" standalone="no"?>
<!DOCTYPE svg PUBLIC "-//W3C//DTD SVG 1.1//EN" "http://www.w3.org/Graphics/SVG/1.1/DTD/svg11.dtd" >
<svg xmlns="http://www.w3.org/2000/svg" xmlns:xlink="http://www.w3.org/1999/xlink" version="1.1" viewBox="-10 0 1004 1000">
  <g transform="matrix(1 0 0 -1 0 800)">
   <path fill="currentColor"
d="M877.711 -31.3057c0 -0.301753 -0.00932748 -0.511503 -0.0154881 -0.680847l-14.9898 0.464181l0.0107422 0.413086zM802.868 205.672c0 0 0.066397 -0.0765084 0.1708 -0.202407l-11.5104 -9.61927l-0.101562 0.120117zM622.071 -23.6553
c0 0.61778 0.0673742 1.05613 0.114436 1.32222l14.8251 -2.27288l-0.0292969 -0.191406zM639.106 -59.7701c-0.31631 0.0880166 -0.621557 0.17941 -0.916883 0.272336l4.40556 14.3389l0.676758 -0.201172zM749.076 231.27c31.1592 0 63.1187 -15.2312 88.7887 -98.0102
c14.2321 -46.4048 38.4135 -152.025 38.8346 -154.151c0.654707 -3.10857 0.94876 -6.07043 0.94876 -8.8707c0 -16.7205 -10.8905 -29.4182 -20.0089 -30.5542c-6.9115 -0.916456 -6.3657 -0.793952 -204.832 -0.87994h-0.167334l-0.167159 0.00726261
c-11.4199 0.501117 -15.3125 0.671929 -21.5159 6.87537c-7.07608 7.07608 -9.34229 15.2515 -9.34229 23.6982c0 7.91995 1.81685 15.3527 4.39551 25.902l0.00647274 0.0196208c5.95839 22.3457 5.92951 22.2302 22.4285 90.1573
c18.9282 75.2375 41.1376 145.806 100.631 145.806zM625.978 -4.84483c0 0 -0.000124147 -0.00051106 0 0zM852.537 -87.9161c29.3074 0 48.5522 28.24 48.5522 56.5284c0 12.4344 -3.0264 25.3462 -6.41056 39.4431c-7.16448 28.4567 -14.1286 56.7516 -20.9687 85.1813
c-23.2884 93.8275 -52.4455 165.041 -124.899 165.041c-24.3425 0 -62.5844 -10.2537 -89.951 -66.2431c-17.0944 -35.0308 -22.7573 -56.4454 -49.0002 -164.407c-10.8294 -39.677 -12.0354 -49.9019 -12.0354 -57.2697c0 -2.83011 0.511209 -28.0626 18.3913 -45.9427
c11.7295 -11.7295 24.6212 -12.2045 36.1546 -12.5754c0.426111 -0.0137522 17.7698 -0.0248038 42.0902 -0.0248038c55.3607 0 146.872 0.0572645 157.281 0.270291h0.237512c0.206277 -0.00226363 0.37276 -0.00194217 0.558041 -0.00194217zM162.552 -100.947
c-33.6336 0 -60.9468 27.3113 -60.9468 60.9468c0 33.6337 27.3114 60.9468 60.9468 60.9468c33.6337 0 60.9468 -27.3114 60.9468 -60.9468c0 -33.6337 -27.3114 -60.9468 -60.9468 -60.9468zM162.345 -137.21c53.9509 0 97.0393 44.4055 97.0393 95.4633
c0 26.4918 -9.45944 42.176 -21.6335 62.361h186.967v36.1065h-7.49952c-1.75297 0 -84.3196 0.722257 -160.9 0.722257c-38.5737 0 -75.5989 -0.183379 -99.9293 -0.734965c-50.3242 -1.1411 -91.0966 -46.2384 -91.0966 -96.8647
c0 -53.5849 43.4752 -97.0532 97.0532 -97.0532zM319.437 717.219c0 3.58497 0.0800748 7.43329 0.0800748 7.50838c0 3.39009 -0.938998 8.89686 -7.01789 9.02634l-29.932 0.660207c0.0396786 -5.27017 0.0714971 -10.9097 0.0714971 -16.8852
c0 -90.5526 -7.30685 -258.262 -105.295 -386.977c-29.2268 -39.8563 -48.9068 -66.6937 -68.0548 -91.7934l28.9668 -22.9315c28.0907 32.2626 27.3307 42.3593 54.7442 77.1731c32.6525 41.4679 68.4862 102.846 84.9208 162.621l6.57895 23.9287l7.77114 -23.5692
c40.8549 -123.909 91.2113 -178.543 137.748 -228.924l10.2988 -11.1816l24.5305 16.3534c-0.856592 2.27261 -0.856592 2.27261 -2.41246 3.53647c-21.7862 17.6974 -137.246 140.283 -149.304 269.911c-0.265617 3.21792 -4.19068 -1.35203 -4.19068 22.0536
c0 9.07027 0 15.2062 2.70816 51.2307l40.752 -39.466c3.8331 -3.71228 8.72879 -5.55727 13.6123 -5.55727c2.37842 0 7.30047 0 13.5763 5.53987c0.460103 0.406147 32.3453 30.9364 44.0951 42.6863c14.5553 14.5553 19.6684 29.3209 19.6684 42.2543
c0 16.1449 -7.88945 28.4271 -13.4456 33.9832c-5.12077 5.12077 -17.6348 12.9254 -33.3343 12.9254c-13.9042 0 -22.7263 -5.47354 -30.667 -10.4002c-8.1009 4.87825 -17.0001 10.2372 -30.619 10.2372c-3.41329 0 -3.41329 0 -15.779 -1.79379
c0.541349 13.6428 0.622905 15.6981 0.622905 20.9333c0 9.93971 -0.694596 14.9999 -0.694596 26.9168zM366.083 624.834c11.7824 0 15.0596 16.0947 30.8535 16.0947h0.725549c0.117927 -0.0228769 7.47729 -1.65886 11.1768 -4.40234l-5.65455 -9.00957l6.99892 6.66436
c1.90343 -4.10237 2.3572 -5.14635 2.97409 -8.42312l-0.0112068 -0.760663c-0.155021 -10.5221 -7.3441 -17.723 -11.3952 -21.7873l-35.6396 -34.3019c-36.2786 34.9955 -36.2786 34.9955 -36.5972 35.3141c-3.148 3.148 -9.66681 10.6978 -10.2495 19.725
l8.3543 0.746941l-7.93966 0.679455c2.06583 7.10715 2.06583 7.10715 4.21586 13.2914c1.23765 0 2.47529 0.000137849 3.71294 0.000137849c2.46667 1.08222 5.22041 2.07639 8.36633 2.07639c6.29021 0 9.289 -2.41279 19.0072 -10.2319
c2.4757 -2.4757 5.67565 -5.67565 11.1014 -5.67565z" />
  </g>

</svg>
