<?xml version="1.0" standalone="no"?>
<!DOCTYPE svg PUBLIC "-//W3C//DTD SVG 1.1//EN" "http://www.w3.org/Graphics/SVG/1.1/DTD/svg11.dtd" >
<svg xmlns="http://www.w3.org/2000/svg" xmlns:xlink="http://www.w3.org/1999/xlink" version="1.1" viewBox="-10 0 1010 1000">
  <g transform="matrix(1 0 0 -1 0 800)">
   <path fill="currentColor"
d="M828.399 483.872c0 9.49878 0.360099 25.4826 0.360099 28.905l-0.318652 61.3747l-8.69455 54.78l-24.0577 41.7601l-29.8355 19.1251l-33.9409 8.02542l-47.9505 1.85133v0.765382l-107.704 8.96128l-161.614 -4.8437l-135.511 -48.0118l4.97421 -24.8711
l90.1513 34.2037l168.519 13.9909l163.859 -8.05849l72.0585 -32.0852l24.6852 -76.5829c-11.2968 -92.7231 -11.5388 -94.7093 -10.6225 -98.1968c0.272553 -1.03738 0.408327 -1.98777 0.495372 -2.92219c0.487753 -0.641757 1.13403 -1.58506 1.4862 -2.05622
l30.4464 -40.7334l38.0432 -60.0682l23.93 -33.502l-96.7113 -80.2498l-3.19974 -219.288c0.962733 -7.56244 2.78458 -22.0112 5.01798 -45.877c-0.12894 -0.269919 -9.65147 -20.9678 -12.8349 -27.02c-1.80565 -3.43278 -3.36365 -6.39475 -8.94453 -11.1259
c-28.726 -6.87192 -37.6748 -9.01268 -53.7943 -9.01268c-3.38415 0 -6.77838 0.14333 -10.1737 0.446144l-127.95 -3.2205l-189.706 31.9736l-119.91 72.0259l-21.8729 31.5454c-0.18608 0.126152 -14.9542 10.3475 -18.5829 12.6523v-31.4635
c5.41685 -3.87145 13.5068 -7.36272 24.4398 -17.2503c7.32645 -6.62591 2.09556 -4.45645 10.6241 -11.9264c1.03002 -0.902171 1.03002 -0.902171 17.2005 -21.8062l70.2643 -41.1391l123.979 -35.7692l40.8353 -3.74581
c52.8258 -4.90757 59.0669 -6.73248 83.0467 -7.42728l68.08 -1.97257l89.7606 0.254271l51.1066 12.4914l15.1376 25.2075l6.27671 34.16l-0.268638 82.9487l0.0291888 84.2282l-0.00582149 87.5189l84.7837 67.8016l7.68593 8.96692l1.11464 7.19504
c0.44913 7.61262 -1.52476 12.8022 -3.31214 18.1783l-23.3304 38.8443l-33.0243 43.448l-34.3179 48.9016c-0.202711 16.1296 -0.202711 16.1296 -0.202711 17.6951zM33.2949 712.521h55.5146l17.1611 52.2256l17.1602 -52.2256h55.5156l-44.8672 -32.2959
l17.1611 -52.2246l-44.9697 32.2959l-44.9707 -32.2959l17.1611 52.2246zM668.82 211.762zM348.084 427.541zM288.188 317.273zM521.563 173.102zM521.142 159.711zM342.829 209.502zM445.627 177.161zM726.03 342.204zM288.188 317.273zM726.03 342.204zM584.005 483.772
c-22.6094 0 -41.75 -8.79297 -51.458 -18.501c-3.69434 -3.69434 -2.75195 -3.8877 -4.2793 -4.44434c-6.86328 -2.50195 -13.5889 -3.40723 -19.7295 -3.40723c-5.79395 0 -16.3242 0.855469 -27.7246 5.97754c-7.74707 9.42969 -20.8506 18.0117 -42.8799 18.0117
c-33.0703 0 -70.7842 -20.4697 -83.9004 -51.1406l-0.647461 -1.51465h-2.28125l-59.7539 -81.1885h-2.85742v-3.88184c-0.387695 -0.526367 -0.774414 -1.05176 -1.16211 -1.57812h0.625l-6.61816 -24.8174l-0.745117 0.0126953
c-0.133789 -2.54102 -0.37207 -4.00195 -1.1748 -7.16113h0.963867c-0.0224609 -2.80469 -0.0224609 -2.80469 -0.0224609 -3.08984c0 -18.1426 7.82715 -54.8604 60.0088 -98.0166c55.1113 -45.5811 117.436 -50.6074 169.104 -50.6074
c84.6846 0 119.21 10.6123 169.885 50.6562c61.9043 48.916 62.9482 63.3184 64.6523 99.0703l-1.73242 0.0283203c-0.106445 0.397461 -7.70996 31.4229 -10.4053 39.7764l-44.2451 75.6045c-4.98535 5.2041 -4.98535 5.2041 -5.48828 6.06641h-0.329102
c-15.5557 15.9199 -48.1641 45.7129 -80.0029 52.3145c-6.09277 1.26367 -12.0586 1.83008 -17.8008 1.83008zM437.07 461.907c4.76074 0 15.3389 0 27.3994 -8.2998l-0.0927734 -1.15039c0.695312 -0.285156 1.81152 -0.810547 2.89551 -1.83984
c10.2197 -9.71094 25.9268 -14.2705 40.8379 -14.2705c13.8906 0 27.0908 3.95605 34.5234 11.3887c1.44629 1.44629 3.78125 3.78125 5.58594 9.21777c7.6582 5.22656 19.8223 10.9277 36.4258 10.9277c22.0332 0 32.3359 -9.5957 40.2334 -16.9512
c6.13867 -5.7168 14.2227 -13.2627 31.6084 -24.7666c0.664062 -0.144531 1.20996 -0.464844 1.64648 -0.958984l0.381836 0.0146484l49.7227 -78.4248c0 -0.133789 -0.00390625 -0.267578 -0.00390625 -0.402344c3.56641 -13.3604 6.82227 -27.0312 10.2549 -40.5234
c1.20215 -4.79492 1.875 -9.24023 1.875 -13.5439c0 -20.6465 -15.3604 -37.375 -59.6113 -73.5352c-40.7754 -33.3193 -70.3027 -44.748 -159.291 -44.748c-48.1758 0 -87.0078 5.91797 -132.358 37.6641c-55.9062 39.1338 -63.4238 67.9531 -63.4238 93.6182
c0 1.69336 0.0322266 3.36035 0.0800781 5.00195c2.78906 11.0703 5.81836 21.9014 8.69922 32.8809l54.4854 77.1367c0.771484 -0.297852 1.54395 -0.594727 2.31543 -0.891602c1.83496 4.32129 4.96094 11.6846 13.4414 20.165
c13.665 13.665 33.8916 22.291 52.3691 22.291zM530.704 148.557zM477.103 347.844c0 -6.73145 5.09668 -12.0498 11.4492 -12.0498c6.35254 0 11.4492 5.31738 11.4492 12.0498c0 6.73145 -5.09668 12.0488 -11.4492 12.0488
c-6.35254 0 -11.4492 -5.31738 -11.4492 -12.0488zM549.702 347.243c0 -7.07129 5.12402 -12.6494 11.4492 -12.6494c6.32617 0 11.4502 5.57812 11.4502 12.6494c0 7.07129 -5.12402 12.6494 -11.4502 12.6494c-6.3252 0 -11.4492 -5.57715 -11.4492 -12.6494z
M409.483 307.443c0 49.2002 50.5508 89.085 112.168 89.085c61.6221 0 112.168 -39.9697 112.168 -89.168c0 -49.2012 -50.5508 -89.085 -112.168 -89.085c-61.6211 0 -112.168 39.9697 -112.168 89.168zM391.153 307.36c0 -59.1875 58.3633 -107.416 130.498 -107.416
c72.126 0 130.499 48.3047 130.499 107.499c0 59.1875 -58.3633 107.416 -130.499 107.416c-72.125 0 -130.498 -48.3047 -130.498 -107.499zM519.894 263.29c-14.8984 0 -29.6387 5.17188 -40.0713 15.6045c-8.64355 8.64355 -11.2373 16.3271 -14.3604 28.1406
l-18.0176 -4.14355c3.42383 -13.7148 6.89551 -24.9199 18.9473 -36.9717c13.998 -13.998 33.5518 -20.8682 53.2607 -20.8682c20.6455 0 41.4619 7.53906 56.2441 22.3203c11.7451 11.7451 15.3164 22.166 19.0088 35.2539l-17.9375 5.02246
c-2.58008 -9.12598 -5.09766 -18.0264 -14.6143 -27.543c-11.1758 -11.1768 -26.9043 -16.8154 -42.46 -16.8154z" />
  </g>

</svg>
