<?xml version="1.0" standalone="no"?>
<!DOCTYPE svg PUBLIC "-//W3C//DTD SVG 1.1//EN" "http://www.w3.org/Graphics/SVG/1.1/DTD/svg11.dtd" >
<svg xmlns="http://www.w3.org/2000/svg" xmlns:xlink="http://www.w3.org/1999/xlink" version="1.1" viewBox="-10 0 1008 1000">
  <g transform="matrix(1 0 0 -1 0 800)">
   <path fill="currentColor"
d="M714.522 542.183c0 -13.4121 4.80762 -26.002 14.2061 -35.4287c7.7998 -7.76953 22.7764 -13.9561 33.7861 -13.9561c2.50098 0 5.83398 0.398438 10.0283 1.19043c22.8652 4.31543 41.4209 26.6436 41.4209 49.9648c0 4.14941 -0.929688 10.5225 -2.1123 14.5029
c-2.60449 9.20215 -11.5605 22.8789 -12.251 23.8887c-3.20605 5.0625 -4.02441 6.36328 -5.38281 8.72949c-8.13281 14.3066 -16.2783 28.6006 -24.4033 42.9141c-2.25586 5.10742 -3.19824 6.04297 -4.9541 6.81348c-1.90625 0 -2.52832 -0.0166016 -3.58594 -1.07422
c-0.652344 -0.652344 -0.69043 -0.745117 -1.84375 -2.90332c-0.676758 -1.26758 -16.1592 -29.4668 -24.0645 -42.1953c-1.51367 -2.4375 -9.27441 -14.9658 -14.0654 -24.6113c-4.54297 -9.16406 -6.77832 -18.6904 -6.77832 -27.835zM762.668 499.365
c-8.93066 0 -22.333 5.08789 -29.5381 12.292c-7.93652 7.9375 -12.0303 18.6875 -12.0303 30.3066c0 8.14062 2.00879 16.7061 6.11035 25.0303c3.63477 7.31738 8.00586 14.5566 12.2471 21.5752c3.79395 6.16406 3.77734 6.13574 22.3418 38.5361
c0.0380859 0.0703125 0.0380859 0.0703125 1.95215 3.79297l24.7041 -42.8945c1.03223 -1.77539 1.96094 -3.3457 5.58496 -9.0127c3.26855 -4.78516 7.78418 -12.9541 10.0928 -18.2354c0.0380859 -0.0957031 0.0800781 -0.186523 0.120117 -0.279297v-0.0244141
c2.32617 -5.9541 3.2041 -12.874 3.2041 -16.7109c0 -20.3203 -16.2607 -39.8506 -36.292 -43.5c-4.35254 -0.792969 -7.34766 -0.875977 -8.49707 -0.875977zM811.318 455.808c0.232422 0.00878906 14.915 0.000976562 14.9189 0.00878906
c-4.52148 18.9707 -3.25098 25.0781 -1.60156 30.4014c0.0146484 0.0478516 1.29199 4.46094 1.46582 4.80859l10.667 21.335c-5.45898 84.6289 -5.45898 84.6289 -5.42871 84.9932c1.79395 21.292 3.35742 46.1279 1.52832 62.0361
c-4.75391 18.8828 -16.5498 14.8975 -19.3057 8.8584c-0.973633 -2.13379 -2.07031 -2.38477 -4.90332 -3.03418c-2.20117 -1.96973 -5.66406 -1.53809 -7.31055 0.941406c-2.06445 3.1084 -11.6143 17.8975 -11.8652 18.3887
c-3.4541 6.76367 -16.7773 10.9248 -19.3223 -2.46582c-0.0927734 -0.483398 -0.0927734 -0.483398 -4.64062 -11.5674c-1.69336 -4.12891 -7.66602 -3.95703 -9.11719 0.265625l-8.55469 24.8838c-2.28711 6.65234 -16.5547 11.9648 -24.0928 -0.633789
c-0.138672 -0.414062 -1.15625 -3.5 -6.65625 -20.75c-1.19531 -3.75098 -6.18652 -4.60742 -8.55762 -1.4209c-7.03613 9.4541 -7.03613 9.4541 -7.16016 9.57812c-0.0458984 0.0458984 -8.03613 8.02246 -12.5625 3.49707
c-2.47949 -2.47949 -3.88086 -8.53027 -4.49805 -12.2412c0.0185547 -0.555664 0.128906 -3.83984 0.738281 -19.7676c0.363281 -9.91895 0.803711 -31.1152 0.8125 -31.4287c2.90234 -20.6777 1.55957 -21.3232 3.06836 -32.3857
c0.110352 -0.426758 0.947266 -3.65039 5.29102 -20.0967c0.0419922 -0.161133 0.439453 -9.36914 -0.820312 -11.5107c-3.09766 -5.26465 -3.31152 -5.63086 -5.35449 -6.09766c-8.08691 -1.85352 -10.6465 -0.224609 -13.3809 3.57031
c-1.40527 1.95117 -10.9717 11.5371 -11.9336 12.6465l-20.0459 23.1309c-0.541992 0.358398 -3.32324 2.17969 -11.6924 7.48145c-0.488281 0.148438 -2.83105 0.847656 -9.90527 2.82812c-1.97754 -1.08496 -4.33496 -0.429688 -6.12402 -2.21875
c-1.29688 -1.29785 -2.79395 -5.64453 -2.31836 -8.10547l11.0596 -14.874c2.13086 -1.99707 13.4521 -11.8652 14.0068 -12.5352c16.5264 -19.9863 16.5264 -19.9863 16.6064 -20.0947c12.0098 -16.2715 12.0098 -16.2715 12.0996 -16.4121
c10.8311 -17.0195 10.8311 -17.0195 10.9834 -17.374l8.36426 -19.3906c2.31055 -3.58105 11.2441 -17.0596 11.4834 -17.5146c3.76367 -7.15137 3.76367 -7.15137 3.90527 -7.74512c2.7998 -11.7354 22.6338 -12.3193 22.8945 -12.3242l21.6934 -0.387695zM826.239 446.063
h-14.6162c-65.7529 -2.73242 -65.7529 -2.73242 -65.8994 -2.72949l-21.8496 0.390625c-3.46973 0.0654297 -27.1543 1.17383 -32.0293 19.167l-3.10352 5.89648c-11.3604 17.2314 -11.166 16.6611 -11.8535 18.2549l-8.27344 19.1797l-10.3252 16.2246l-11.7324 15.8945
l-16.1104 19.4834c-13.8398 12.2578 -13.8398 12.2578 -14.4482 13.0752l-11.3105 15.21c-4.03418 5.42578 -1.2168 16.0137 3.39355 20.625c2.70312 2.7041 5.25391 3.53027 9.0332 4.22656c2.09082 0.93457 4.44336 1.0957 6.625 0.484375
c10.29 -2.87988 10.5137 -2.72754 12.3223 -3.87402c11.041 -6.99316 11.8789 -7.25684 13.4609 -8.83887c0.18457 -0.183594 -0.237305 -0.570312 20.5068 -23.6338c10.8086 -12.0156 11.2305 -11.6299 12.7812 -13.7334
c0.256836 0.0224609 0.609375 0.0664062 1.05371 0.138672l0.522461 0.888672l0.233398 5.82812c-5.2002 19.6729 -5.1416 19.1289 -5.31836 20.4141c-1.625 11.8281 -0.195312 11.9971 -3.11523 32.7256c-0.0439453 0.320312 -0.62793 25.6318 -0.868164 32.1855
c-0.779297 20.3662 -0.96582 19.5635 -0.663086 21.4473c0.950195 5.88184 3.1377 19.4395 14.5908 21.8535c9.52246 2.00977 18.7549 -6.93164 20.0215 -8.63281l1.41699 -1.90527c3.80664 12.0742 3.68457 11.9941 4.57715 13.5117
c11.7871 20.0488 36.8457 13.4473 41.8057 -0.980469l4.18457 -12.1748c5.83789 19.6182 29.3193 16.6973 36.792 2.55371c0.0878906 -0.134766 8.39258 -13.04 8.70605 -13.5225c8.19531 10.5938 28.9492 12.3799 35.5713 -13.9141
c0.105469 -0.418945 0.182617 -0.84375 0.232422 -1.27148c1.99512 -17.3701 0.329102 -42.2109 -1.4707 -63.6182l5.41406 -83.9004c0.110352 -1.70508 -0.226562 -3.43359 -1.00684 -4.99512l-10.4307 -20.8623c-0.300781 -1.16309 -0.651367 -2.32324 -1.11328 -3.81641
c-1.29883 -4.18945 -2.66992 -6.60254 1.77344 -25.2344c1.46094 -6.12598 -3.18164 -12.0215 -9.48047 -12.0215zM376.56 694.14l-74.8799 -77.7598l78.3203 -72.3799l-18.5605 -15.46l-78.4795 72.7197l-77.04 -79.1992l-13.4805 14.7393l75.4004 77.4199
l-74.1602 79.2002l16.5596 15.8398l75.6006 -74.8799l76.3604 72.1807zM376.56 694.14l-74.8799 -77.7598l78.3203 -72.3799l-18.5605 -15.46l-78.4795 72.7197l-77.04 -79.1992l-13.4805 14.7393l75.4004 77.4199l-74.1602 79.2002l16.5596 15.8398l75.6006 -74.8799
l76.3604 72.1807zM332.481 97.6934l-82.2217 148.848l24.0225 10.1475l58.4395 -100.383l53.3027 101.418l27.2285 -11.0254zM249.568 -67.707v34.6641h38.626v22.0713h-38.626v34.6641h38.626v33.7148h31.3828v-33.7148h23.2197v31.2539h31.3828v-31.2539h41.292v-34.6641
h-41.292v-22.0713h41.292v-34.6641h-41.292v-36.1855h-31.3828v36.1855h-23.2197v-33.7246h-31.3828v33.7246h-38.626zM319.577 -33.043h23.2197v22.0713h-23.2197v-22.0713zM764.659 223.904c-0.529297 0 -0.985352 0.173828 -1.32227 0.358398l-214.094 -88.2627v-37.8242
c12.126 5.10742 24.251 10.2148 36.376 15.3213v-3.77051l-0.21875 -161.659h318.305l0.646484 155.446c10.9619 -6.48535 21.9238 -12.9697 32.8867 -19.4551l-0.677734 40.7051l-136.33 79.1182l1.46387 0.616211c-22.6963 11.7715 -24.457 12.7314 -36.2109 19.5508
c-0.288086 -0.102539 -0.56543 -0.144531 -0.824219 -0.144531zM868.594 -16.7148h-248.003l-0.665039 144.662l142.009 59.8174l107.859 -63.8086zM38.3545 -39.4795h55.5146l17.1611 52.2256l17.1602 -52.2256h55.5156l-44.8672 -32.2959l17.1611 -52.2246
l-44.9697 32.2959l-44.9707 -32.2959l17.1611 52.2246z" />
  </g>

</svg>
