<?xml version="1.0" standalone="no"?>
<!DOCTYPE svg PUBLIC "-//W3C//DTD SVG 1.1//EN" "http://www.w3.org/Graphics/SVG/1.1/DTD/svg11.dtd" >
<svg xmlns="http://www.w3.org/2000/svg" xmlns:xlink="http://www.w3.org/1999/xlink" version="1.1" viewBox="-10 0 1006 1000">
  <g transform="matrix(1 0 0 -1 0 800)">
   <path fill="currentColor"
d="M30.3242 741.553h55.5146l17.1611 52.2256l17.1602 -52.2256h55.5156l-44.8672 -32.2959l17.1611 -52.2246l-44.9697 32.2959l-44.9707 -32.2959l17.1611 52.2246zM271 608l-12 60c128.725 89.7881 355.203 55.3633 442.457 48.5605
c0 -0.0107422 0.000976562 -0.0214844 0.000976562 -0.0322266c27.4463 0.582031 75.1855 -1.32129 107.268 -33.4033c40.1396 -40.1396 38.6152 -108.841 37.5254 -169.365c-0.395508 -21.9258 -0.433594 -33.2402 -0.22168 -41.9463
c26.3789 -43.8281 72.168 -89.959 89.3252 -129.607c6.95117 -16.0635 5.49219 -24.7637 2.64551 -40.2051l-12 -14l-79.501 -63.5771v-212.431c1.93945 -31.0869 1.82422 -79.2412 -27.416 -108.48c-26.0322 -26.0322 -182.507 -12.0195 -220.584 -13.0049
l-2.90137 0.0126953c-103.732 -7.2998 -296.108 50.6025 -326.603 92.1719c-18.5059 25.2275 -31.4014 41.2529 -57.9951 55.3086v70.0371c25.8174 -16.2627 49.624 -17.8066 70.1904 -60.6357c44.2188 -92.082 349.455 -105.734 451.309 -108.438l-0.499023 -0.962891
c50 12 34.1514 4.48145 42.5352 13.5361c19.1768 20.7119 3.97852 41.9688 5.50781 57.9648h-0.541992v2.14941c-0.253906 0.990234 -0.500977 1.94141 -0.738281 2.84863h0.738281v207.174v3.4873v1.33887h1.58203l104 88h1.13281
c4.9834 45.8955 -62.8379 92.1289 -94.2158 139.501l-3 4l-1 1c-2.02051 3.99219 0.0439453 4.02539 -2.08398 11.5605c-0.0371094 0.130859 -0.189453 0.24707 -0.174805 0.367188l0.258789 2.07227l0.0644531 1.49902
c0.00976562 0.226562 0.150391 3.89551 0.242188 6.24414c3.11426 79.1523 5.19727 173.389 -83.8154 173.771c-136.35 16.7461 -373.536 9.53418 -431.49 -46.5137zM501.037 468.961c81.7471 0 148.26 -44.7031 148.26 -99.54
c0 -13.5869 -3.99121 -26.5654 -11.9287 -39.0947l36.3867 -173.846h-21.0117l-34.8887 151.723c-12.043 -10.1006 -23.1064 -16.4639 -35.7578 -22.084v-132.159h-21v124.458c-7.89746 -2.30957 -29.5801 -8.53809 -60.0596 -8.53809
c-16.2666 0 -30.4326 1.65137 -44.9727 4.67969l15.21 -118.92h-19.3262l-15.9033 124.328c-25.5352 8.48242 -39.9873 18.9102 -47.9248 25.0244l-17.7539 -137.592h-19.3271l19.9131 154.323c-4.4375 5.47168 -13.6191 17.6523 -16.9414 34.8369
c-0.128906 0 -0.258789 -0.00195312 -0.387695 -0.00195312c-8.90625 0 -18.8115 2.58887 -29.4141 8.55469c-27.5117 15.4805 -56.707 37.502 -56.707 61.2471c0 29.7393 18.2959 43.0205 68.0557 43.0205c32.2676 0 49.9082 -12.1533 57.8066 -31.7793
c19.7852 14.0068 54.9375 31.3594 107.673 31.3594zM351.039 167.4h-0.955078l0.833008 -0.949219zM370.366 167.4l-0.0947266 -0.732422l0.833008 0.732422h-0.738281zM451.948 155.64h-0.740234l0.833008 -0.732422zM471.274 155.64l0.121094 -0.947266l0.833008 0.947266
h-0.954102zM561.097 153.96h-0.839844l0.839844 -0.839844v0.839844zM582.097 153.96v-0.839844l0.84082 0.839844h-0.84082zM652.743 156.48h-0.668945l0.818359 -0.650391zM673.755 156.48l0.211914 -1.01367l0.822266 1.01367h-1.03418z" />
  </g>

</svg>
