<?xml version="1.0" standalone="no"?>
<!DOCTYPE svg PUBLIC "-//W3C//DTD SVG 1.1//EN" "http://www.w3.org/Graphics/SVG/1.1/DTD/svg11.dtd" >
<svg xmlns="http://www.w3.org/2000/svg" xmlns:xlink="http://www.w3.org/1999/xlink" version="1.1" viewBox="-10 0 1051 1000">
  <g transform="matrix(1 0 0 -1 0 800)">
   <path fill="currentColor"
d="M271 608l-12 60c128.725 89.7881 355.203 55.3633 442.457 48.5605c0 -0.0107422 0.000976562 -0.0214844 0.000976562 -0.0322266c27.4463 0.582031 75.1855 -1.32129 107.268 -33.4033c40.1396 -40.1396 38.6152 -108.841 37.5254 -169.365
c-0.395508 -21.9258 -0.433594 -33.2402 -0.22168 -41.9463c26.3789 -43.8281 72.168 -89.959 89.3252 -129.607c6.95117 -16.0635 5.49219 -24.7637 2.64551 -40.2051l-12 -14l-79.501 -63.5771v-212.431c1.93945 -31.0869 1.82422 -79.2412 -27.416 -108.48
c-26.0322 -26.0322 -182.507 -12.0195 -220.584 -13.0049l-2.90137 0.0126953c-103.732 -7.2998 -296.108 50.6025 -326.603 92.1719c-18.5059 25.2275 -31.4014 41.2529 -57.9951 55.3086v70.0371c25.8174 -16.2627 49.624 -17.8066 70.1904 -60.6357
c44.2188 -92.082 349.455 -105.734 451.309 -108.438l-0.499023 -0.962891c50 12 34.1514 4.48145 42.5352 13.5361c19.1768 20.7119 3.97852 41.9688 5.50781 57.9648h-0.541992v2.14941c-0.253906 0.990234 -0.500977 1.94141 -0.738281 2.84863h0.738281v207.174v3.4873
v1.33887h1.58203l104 88h1.13281c4.9834 45.8955 -62.8379 92.1289 -94.2158 139.501l-3 4l-1 1c-2.02051 3.99219 0.0439453 4.02539 -2.08398 11.5605c-0.0371094 0.130859 -0.189453 0.24707 -0.174805 0.367188l0.258789 2.07227l0.0644531 1.49902
c0.00976562 0.226562 0.150391 3.89551 0.242188 6.24414c3.11426 79.1523 14.1973 176.389 -74.8154 176.771c-136.35 16.7461 -373.536 9.53418 -431.49 -46.5137zM30.3545 728.521h55.5146l17.1611 52.2256l17.1602 -52.2256h55.5156l-44.8672 -32.2959l17.1611 -52.2246
l-44.9697 32.2959l-44.9707 -32.2959l17.1611 52.2246zM485.609 166.846l0.0419922 -0.0078125s-0.00488281 0.0078125 -0.0419922 0.0078125zM601.975 189.009c0 -57.7959 -46.8984 -104.697 -104.697 -104.697c-57.7969 0 -104.698 46.8984 -104.698 104.697
c0 57.8037 46.9053 104.698 104.71 104.698c57.7197 -0.0791016 104.607 -46.9746 104.686 -104.698zM444.15 251.187l0.0566406 0.0595703c-0.015625 -0.0166016 -0.0566406 -0.0361328 -0.0566406 -0.0595703zM551.577 250.209c0 0 0.0214844 0.588867 0 0.599609
v-0.599609zM432.162 140.03v0c0.984375 -1.43945 1.98633 -2.79395 2.99902 -4.04492l-2.38379 3.22363zM432.162 140.03l0.19043 0.191406l3.13867 -4.00879c3.92188 -5.00879 3.57227 -2.64355 7.63379 -7.91113c3.64355 -4.72461 23.46 -16.2363 42.7207 -19.876v58.3281
c-0.119141 0.0517578 -0.19043 0.0771484 -0.222656 0.0869141c-0.0986328 0 -4.9043 0.371094 -7.10742 6.25195l0.301758 -0.504883c-0.0859375 0.164062 -0.182617 0.361328 -0.276367 0.580078l-0.0458984 -0.0185547
c-0.110352 0.298828 -0.213867 0.611328 -0.30957 0.938477c-0.239258 0.816406 -0.692383 1.71582 -0.914062 2.15332l-0.694336 1.36816l-1.58301 -0.0322266h-58.4258c2.3457 -12.3496 8.49512 -27.1611 15.5938 -37.5469zM485.846 210.089v59.6279
c-22.3711 -4.25293 -40.5146 -17.3535 -41.8594 -18.6992c-1.43359 -1.43359 -2.96777 -1.08203 -3.83203 -2.60352c-1.32422 -2.33496 -3.19141 -2.48047 -3.21289 -3.90137c-0.00390625 -0.22168 7.83594 8.09668 0 -0.000976562l-4.75781 -6.53027
c-7.06641 -10.3936 -13.1787 -25.2012 -15.498 -37.54h58.6514c1.02441 1.15039 0.90625 0.545898 1.60547 1.54883c2.7373 3.92969 3.12012 2.7207 5.00586 4.60645c2.22656 2.22656 1.38379 0.795898 2.45312 1.86523c1.32617 1.3252 1.32617 1.3252 1.44434 1.62695z
M511.509 208.96l-0.0517578 0.0556641c0.0175781 -0.0185547 0.0517578 -0.0556641 0.0517578 -0.0556641zM511.509 208.96c1.48926 -1.61133 2.08691 -2.25195 2.37402 -2.53906c2.17773 -2.17773 3.44531 -3.44629 4.32617 -5.34961l1.02539 0.189453l0.324219 -0.886719
h58.4443c-2.82227 14.9717 -9.19824 29.1396 -19.126 42.5273l0.208984 0.323242c0.0351562 0.0546875 -0.908203 0.984375 -4.48926 4.66797v0s-2.41895 2.31641 -3.19238 2.67773c-0.793945 0.370117 -0.829102 0.282227 -3.16602 2.00879
c-10.4189 7.71387 -26.3848 14.5117 -39.5293 17.0059v-58.1982c2.36719 -2.38086 1.35352 -0.764648 2.7998 -2.42676zM478.516 173.093c-0.00585938 0.0195312 -0.0136719 0.0380859 -0.0205078 0.0566406c-0.00292969 0 -0.00683594 -0.00390625 -0.00976563 -0.00390625
zM577.869 177.577h-58.8105c-2.28906 -5.24316 -4.53711 -7.34961 -9.73633 -9.48926v-0.904297l-0.613281 -0.237305v-58.6455c20.748 3.93945 38.7578 16.5967 40.7031 18.0049c4.56543 3.30371 1.55664 0.365234 6.33789 5.14746
c1.79395 1.79297 1.22754 0.555664 6.62109 8.58398v0c7.06641 10.3936 13.1787 25.2012 15.498 37.54zM436 400l-0.375977 -12.4375h4.38086v-0.704102l141.864 -75.2812v75.4688l88.4219 0.672852v12.8438zM339.869 434.577l-59.7773 -59.5l51.7773 -50.5
l-10.3115 -8.58887l-51.8662 50.6885l-53.8223 -56.0996l-7.48926 8.18848l52.9121 55.1113l-55.4229 54.7002l9.2002 8.7998l56.2227 -52.2998l60.5996 56.3994zM488.035 437.021l-66.166 122.556l9.59961 4.05566l57.4004 -99.7998l56.0225 105l12.9775 -5.25586z" />
  </g>

</svg>
