<?xml version="1.0" standalone="no"?>
<!DOCTYPE svg PUBLIC "-//W3C//DTD SVG 1.1//EN" "http://www.w3.org/Graphics/SVG/1.1/DTD/svg11.dtd" >
<svg xmlns="http://www.w3.org/2000/svg" xmlns:xlink="http://www.w3.org/1999/xlink" version="1.1" viewBox="-10 0 1003 1000">
  <g transform="matrix(1 0 0 -1 0 800)">
   <path fill="currentColor"
d="M828.399 483.872c0 9.49878 0.360099 25.4826 0.360099 28.905l-0.318652 61.3747l-8.69455 54.78l-24.0577 41.7601l-29.8355 19.1251l-33.9409 8.02542l-47.9505 1.85133v0.765382l-107.704 8.96128l-161.614 -4.8437l-135.511 -48.0118l4.97421 -24.8711
l90.1513 34.2037l168.519 13.9909l163.859 -8.05849l72.0585 -32.0852l24.6852 -76.5829c-11.2968 -92.7231 -11.5388 -94.7093 -10.6225 -98.1968c0.272553 -1.03738 0.408327 -1.98777 0.495372 -2.92219c0.487753 -0.641757 1.13403 -1.58506 1.4862 -2.05622
l30.4464 -40.7334l38.0432 -60.0682l23.93 -33.502l-96.7113 -80.2498l-3.19974 -219.288c0.962733 -7.56244 2.78458 -22.0112 5.01798 -45.877c-0.12894 -0.269919 -9.65147 -20.9678 -12.8349 -27.02c-1.80565 -3.43278 -3.36365 -6.39475 -8.94453 -11.1259
c-28.726 -6.87192 -37.6748 -9.01268 -53.7943 -9.01268c-3.38415 0 -6.77838 0.14333 -10.1737 0.446144l-127.95 -3.2205l-189.706 31.9736l-119.91 72.0259l-21.8729 31.5454c-0.18608 0.126152 -14.9542 10.3475 -18.5829 12.6523v-31.4635
c5.41685 -3.87145 13.5068 -7.36272 24.4398 -17.2503c7.32645 -6.62591 2.09556 -4.45645 10.6241 -11.9264c1.03002 -0.902171 1.03002 -0.902171 17.2005 -21.8062l70.2643 -41.1391l123.979 -35.7692l40.8353 -3.74581
c52.8258 -4.90757 59.0669 -6.73248 83.0467 -7.42728l68.08 -1.97257l89.7606 0.254271l51.1066 12.4914l15.1376 25.2075l6.27671 34.16l-0.268638 82.9487l0.0291888 84.2282l-0.00582149 87.5189l84.7837 67.8016l7.68593 8.96692l1.11464 7.19504
c0.44913 7.61262 -1.52476 12.8022 -3.31214 18.1783l-23.3304 38.8443l-33.0243 43.448l-34.3179 48.9016c-0.202711 16.1296 -0.202711 16.1296 -0.202711 17.6951zM48.3545 723.521h55.5146l17.1611 52.2256l17.1602 -52.2256h55.5156l-44.8672 -32.2959
l17.1611 -52.2246l-44.9697 32.2959l-44.9707 -32.2959l17.1611 52.2246zM538.781 340.802l-121.594 220.119l14.0352 5.92969l108.777 -186.851l99.127 188.605l18.9746 -7.68457zM608.972 126.731c0.12793 -1.73242 0.236328 -4.6416 0.236328 -6.45215
c0 -0.878906 -0.0234375 -2.19922 -0.0546875 -3.08984c-0.951172 -21.9707 -14.2305 -51.2881 -30.1729 -66.5264c-9.22266 -8.09375 -25.0361 -14.1318 -37.8428 -14.1318c-0.454102 -0.0146484 -1.57617 -0.0390625 -2.16992 -0.0390625
c-1.16992 0 -2.88379 0.0585938 -4.08105 0.138672c-7.92773 0.642578 -20.8857 1.16797 -28.8096 1.16797c-3.82422 0 -10.0146 -0.121094 -13.8896 -0.271484c-0.334961 -0.00585938 -0.663086 -0.00683594 -0.94043 -0.00683594
c-16.1943 0 -37.7148 9.17285 -48.9102 20.8262c-13.1738 13.3057 -23.585 38.6123 -23.585 57.3682c0 0.405273 0.00585938 1.0332 0.0136719 1.44238c0.65332 34.3311 23.002 62.6572 59.4053 75.7764c7.68945 2.70703 19.6816 5.27832 28.4102 6.31641
c0.0859375 21.7646 1.44434 68.9365 27.8301 95.3213c10.0498 10.0693 29.0186 17.9346 43.2354 17.9346c0.495117 0 1.23535 -0.0117188 1.72559 -0.0253906c1.40332 -0.0390625 2.52734 -1.23535 2.52734 -2.59766v-9.02539
c0 -1.5459 -1.41992 -2.63379 -2.67383 -2.59668c-0.374023 0.0107422 -1.04395 0.0205078 -1.41602 0.0205078c-10.5244 0 -25.8701 -6.35254 -33.3135 -13.791c-21.332 -21.332 -23.4707 -65.5967 -23.5986 -84.4092
c0.651367 0.00488281 0.0351562 0.00292969 0.685547 0.00292969c16.3984 0 40.2188 -6.73145 54.2285 -15.3438c17.7246 -11.4111 32.3428 -36.9922 33.1602 -58.0088zM569.509 61.082c12.9209 12.3721 24.5928 37.8311 25.5186 55.8193
c0.0693359 1.16797 0.128906 3.19043 0.128906 4.35938c0 1.18164 -0.0576172 3.15918 -0.130859 4.38574c-0.637695 16.5557 -12.7676 37.834 -26.6475 46.8223c-12.5273 7.2207 -35.1416 13.2764 -49.5742 13.2764c-9.9375 0 -26.1162 -2.9834 -35.4375 -6.5459
c-31.6719 -11.3789 -49.499 -34.1055 -50.0176 -62.5938c-0.0078125 -0.352539 -0.0136719 -0.969727 -0.0136719 -1.32617c0 -14.9961 8.84766 -36.5654 19.4023 -47.2588c8.5332 -8.76172 26.1182 -16.1855 38.3555 -16.1855
c0.199219 0 0.508789 0.00195312 0.740234 0.00488281h18.0508c0.799805 0.00976562 2.14844 0.0175781 2.97266 0.0175781c6.6123 0 17.0391 -0.490234 23.6641 -1.11328c1.32617 -0.15332 3.58398 -0.28125 4.87305 -0.28125c8.6377 0 21.6416 4.90137 28.1152 10.6191z
M568.378 172.469c-0.0185547 0.0117188 -0.0361328 0.0234375 -0.0546875 0.0351562l0.110352 -0.0664062c-0.0195312 0.0107422 -0.0380859 0.0205078 -0.0556641 0.03125z" />
  </g>

</svg>
