<?xml version="1.0" standalone="no"?>
<!DOCTYPE svg PUBLIC "-//W3C//DTD SVG 1.1//EN" "http://www.w3.org/Graphics/SVG/1.1/DTD/svg11.dtd" >
<svg xmlns="http://www.w3.org/2000/svg" xmlns:xlink="http://www.w3.org/1999/xlink" version="1.1" viewBox="-10 0 1008 1000">
  <g transform="matrix(1 0 0 -1 0 800)">
   <path fill="currentColor"
d="M30.3242 741.553h55.5146l17.1611 52.2256l17.1602 -52.2256h55.5156l-44.8672 -32.2959l17.1611 -52.2246l-44.9697 32.2959l-44.9707 -32.2959l17.1611 52.2246zM271 608l-12 60c128.725 89.7881 355.203 55.3633 442.457 48.5605
c0 -0.0107422 0.000976562 -0.0214844 0.000976562 -0.0322266c27.4463 0.582031 75.1855 -1.32129 107.268 -33.4033c40.1396 -40.1396 38.6152 -108.841 37.5254 -169.365c-0.395508 -21.9258 -0.433594 -33.2402 -0.22168 -41.9463
c26.3789 -43.8281 72.168 -89.959 89.3252 -129.607c6.95117 -16.0635 5.49219 -24.7637 2.64551 -40.2051l-12 -14l-79.501 -63.5771v-212.431c1.93945 -31.0869 1.82422 -79.2412 -27.416 -108.48c-26.0322 -26.0322 -182.507 -12.0195 -220.584 -13.0049
l-2.90137 0.0126953c-103.732 -7.2998 -296.108 50.6025 -326.603 92.1719c-18.5059 25.2275 -31.4014 41.2529 -57.9951 55.3086v70.0371c25.8174 -16.2627 49.624 -17.8066 70.1904 -60.6357c44.2188 -92.082 349.455 -105.734 451.309 -108.438l-0.499023 -0.962891
c50 12 34.1514 4.48145 42.5352 13.5361c19.1768 20.7119 3.97852 41.9688 5.50781 57.9648h-0.541992v2.14941c-0.253906 0.990234 -0.500977 1.94141 -0.738281 2.84863h0.738281v207.174v3.4873v1.33887h1.58203l104 88h1.13281
c4.9834 45.8955 -62.8379 92.1289 -94.2158 139.501l-3 4l-1 1c-2.02051 3.99219 0.0439453 4.02539 -2.08398 11.5605c-0.0371094 0.130859 -0.189453 0.24707 -0.174805 0.367188l0.258789 2.07227l0.0644531 1.49902
c0.00976562 0.226562 0.150391 3.89551 0.242188 6.24414c3.11426 79.1523 5.19727 173.389 -83.8154 173.771c-136.35 16.7461 -373.536 9.53418 -431.49 -46.5137zM494.622 520.823l-31.4248 32.6895l15.2725 15.4854l31.54 -31.3594l32.2529 30.8516l17.5723 -13.9902
l-32.9531 -33.2803l35.2725 -30.0918l-17.2705 -14.5713l-34.7266 28.6074l-33.0918 -31.3545l-13.9424 17.3076zM505.957 212.372c-2.94336 0 -12.043 11.1152 -30.7793 11.1152c-12.0684 0 -24.2305 -6.43359 -29.4727 -11.6738
c-4.8291 -4.8291 -11.2754 -17.4648 -11.2754 -28.5459c0 -11.6514 3.90234 -25.3096 16.9727 -38.3779c1.11328 -1.11426 1.88965 -1.78613 1.9082 -1.80371l43.041 -41.6797c2.54688 -2.4668 5.93652 -3.99023 9.71484 -3.99023c5.14648 0 8.05566 2.5498 9.69238 3.98438
c0.460938 0.404297 32.5869 31.1748 44.0381 42.626c17.1533 17.1514 18.0469 31.8789 18.0469 39.0977v0.0927734c0 11.125 -5.69531 22.9688 -11.8496 29.123c-4.9541 4.95312 -18.0352 11.3184 -29.1094 11.3184c-9.32715 -0.18457 -16.6074 -1.33691 -29.2598 -10.7363
c-0.493164 -0.366211 -1.08008 -0.549805 -1.66797 -0.549805zM558.803 183.199c0 -0.224609 -0.0498047 -1.70508 -0.0498047 -1.72266c0 -6.75977 -3.54785 -15.2578 -13.0078 -24.3604l-37.6387 -36.2266c-0.541016 -0.520508 -1.24121 -0.780273 -1.94141 -0.780273
c-0.701172 0 -1.40137 0.259766 -1.94238 0.78125c-38.0791 36.7324 -38.0791 36.7324 -38.2725 36.9238c-3.05078 3.05273 -12.251 13.1787 -12.251 24.3516c0 0.174805 3.4082 14.3027 6.18359 16.4717c4.0625 3.1748 11.0605 5.76953 15.5752 5.76953
c10.248 0 19.8008 -8.3125 23.8291 -12.3408c2.50391 -2.50391 3.71387 -3.74609 6.85059 -3.74609c0.819336 0 3.10645 0 5.52246 2.41504c5.7832 5.78418 13.6016 13.6797 25.332 13.6797c6.24316 0 14.5879 -4.4668 16.0303 -6.19824
c3.10059 -3.72363 5.78027 -10.5469 5.78027 -15.0176zM419.666 369.075c-8.66797 0 -10.4697 -0.709961 -20.9648 -0.709961c-0.182617 0 -0.334961 0.00195312 -0.482422 0.00195312c-6.69824 0 -9.71387 -4.08691 -9.72852 -8.54199l-0.0869141 -21.4375
c7.80859 0.203125 16.8604 0.416992 26.8711 0.416992c54.2666 0 136.736 -6.27051 202.192 -54.2637c22.3965 -15.7979 38.7529 -27.335 55.6562 -39.8242l17.8574 23.4092c-24.29 20.8057 -24.8506 15.8613 -47.2285 32.8369
c-21.8037 16.542 -52.8184 34.3506 -84.2041 44.0527c-0.0966797 0.0302734 -1.96875 0.635742 -1.96875 2.67383c0 1.19336 0.74707 2.22168 1.81445 2.62109c63.2861 23.707 92.7383 51.708 119.287 77.1328l8.96191 8.54883l-12.9141 18.6357
c-0.977539 -1.8291 -1.47949 -2.76562 -3.1582 -2.76562c-0.676758 0 -2.31055 0.238281 -2.79199 2.46484c-2.82031 -3.91113 -3.78125 -5.24512 -9.44434 -10.9072c-20.6309 -20.6318 -78.4688 -69.7031 -139.115 -76.4492l-2.84277 -0.31543
c-0.716797 -1.40039 -1.18262 -2.31055 -12.4609 -2.31055c-21.2227 0 -61.5342 4.73047 -85.249 4.73047z" />
  </g>

</svg>
