<?xml version="1.0" standalone="no"?>
<!DOCTYPE svg PUBLIC "-//W3C//DTD SVG 1.1//EN" "http://www.w3.org/Graphics/SVG/1.1/DTD/svg11.dtd" >
<svg xmlns="http://www.w3.org/2000/svg" xmlns:xlink="http://www.w3.org/1999/xlink" version="1.1" viewBox="-10 0 983 1000">
  <g transform="matrix(1 0 0 -1 0 800)">
   <path fill="currentColor"
d="M424.727 -82.8857c-1.66309 0 -3.00098 1.35059 -3.00098 3l2.87695 82.835c-8.36621 10.0156 -16.9482 19.3906 -25.4004 28.6221c-37.2607 40.6963 -72.1309 78.8721 -72.2529 155.877c-0.100586 64.1748 23.2441 97.0049 36.3174 110.304
c41.3203 40.3916 95.8691 50.5459 124.219 50.5459c2.5791 0 5.84082 2.18555 9.2373 2.02637c83.7959 -3.94238 101.679 -10.5703 144.373 -47.7051c5.51172 -4.79395 7.11523 -8.70117 7.83105 -12.3916c0.128906 -0.666016 0.202148 -0.925781 0.228516 -1.00781
c19.5625 -22.5732 33.2891 -81.9004 34.3535 -99.1553c0.0722656 -1.16895 0.248047 -2.52832 0.450195 -4.06543c0.570312 -4.34473 1.32812 -10.0859 0.0634766 -17.3096c-17.4082 -99.4229 -64.7188 -128.035 -70.2832 -143.622
c-0.302734 -0.850586 -0.583008 -0.990234 -0.704102 -1.11133c-1.32617 -1.32617 -12.8213 -7.18652 -22.0547 -11.5293c-1.15918 -3.30273 -1.15918 -3.30273 -1.74707 -3.91309c-0.271484 -1.0459 -0.519531 -2.89648 -0.519531 -2.89648l-1.71387 -84.6172
c-0.0332031 -1.62598 -1.35352 -2.92871 -2.98047 -2.93848zM649.028 289.352l-0.198242 0.172852l-1.8125 -2.36914zM640.604 300.052l-1.98535 0.819336l-1.9873 -4.98145zM510.857 327.397c-48.1084 0 -79.4795 -8.49316 -119.481 -38.1514
c-10.5479 -10.5479 -39.9072 -42.2041 -40.0449 -97.124c-0.183594 -72.2959 31.3242 -106.332 48.249 -123.257c8.43262 -8.43262 8.43262 -8.43262 9.83008 -10.5195c2.76074 -4.125 2.76074 -4.125 20.6816 -23.5498c4.11426 -1.01172 10.4062 -3.60547 16.7861 -10.2383
c3.48926 -3.62695 2.08008 -17.0898 1.43555 -23.25l-0.574219 -70.0449l111.154 -0.570312l5.22754 85.9697c0.0498047 0.814453 0.425781 1.57227 1.05566 2.10645c3.69238 3.14746 3.78906 3.23047 5.70312 5.14453c1.88867 1.88867 7.37109 7.24219 12.1934 8.64551
c1.74707 0.507812 4.18359 5.33984 9.24805 9.125c24.2217 18.1074 60.0752 63.6865 64.5273 129.378c0.651367 9.61133 -0.833008 20.0957 -2.72949 31.3438c-4.0127 23.8037 -9.89258 57.6318 -27.9912 78.7207c-2.8125 2.31836 -3.66797 3.08887 -16.623 16.0439
c-23.1758 23.1758 -61.5498 30.2275 -98.6475 30.2275zM508.222 274.541c19.6113 0 30.7148 -9.70117 35.6406 -14.627c8.72266 -8.72168 13.3086 -19.2002 13.3086 -30.9297c0 -15.6963 -7.89258 -25.5146 -25.1006 -40.5596
c-22.1729 -19.3574 -34.585 -31.4746 -34.585 -62.7061c0 -0.995117 0.015625 -2.29785 0.046875 -3.89746h18.4004c0.950195 27.8789 5.5293 34.4219 28.1191 54.25c24.4434 21.4316 33.1787 35.0684 33.1787 54.7793c0 13.4609 -4.28613 27.6973 -18.623 40.6738
c-12.4229 11.2451 -29.1523 17.0352 -50.8574 17.0352c-15.0938 0 -60.4492 -2.40039 -69.499 -57.3564l20.2627 -2.38672c2.46191 12.4229 7.21289 24.7383 16.4951 33.332c8.92676 8.26465 20.2051 12.3926 33.2129 12.3926zM495.914 88.5615v-22.8828h23.2012v22.8828
h-23.2012zM685.093 542.639c39.4541 0 79.9404 21.8936 92.2715 65.498l1.64648 5.82422l25.1758 -7.04883c-3.78516 -13.6064 -9.4502 -33.9785 -29.7412 -54.2715c-23.543 -23.542 -56.7617 -35.6113 -89.7256 -35.6113c-31.3486 0 -62.4658 10.915 -84.8096 33.2588
c-20.8047 20.8066 -26.1885 42.7373 -29.6768 56.9482l25.2656 5.81055c3.24707 -12.5068 7.4707 -28.7676 23.3057 -44.6035c17.2949 -17.2949 41.6768 -25.8047 66.2891 -25.8047h-0.000976562zM478.616 615.99c0 94.8105 93.748 172.123 209.384 172.123
c115.645 0 209.385 -77.1826 209.385 -171.989c0 -94.8105 -93.749 -172.124 -209.385 -172.124c-115.645 0 -209.384 77.1836 -209.384 171.99zM504.265 616.124c0 -80.8135 82.7227 -146.477 183.735 -146.477c101.008 0 183.736 65.5254 183.736 146.342
c0 80.8115 -82.7227 146.477 -183.736 146.477c-101.008 0 -183.735 -65.5254 -183.735 -146.342zM51.3545 703.521h55.5146l17.1611 52.2256l17.1602 -52.2256h55.5156l-44.8672 -32.2959l17.1611 -52.2246l-44.9697 32.2959l-44.9707 -32.2959l17.1611 52.2246z
M361.598 713.496c1.2627 -22.4336 -7.74219 -81.3936 -5.23047 -95.668c0.770508 -0.875977 1.56445 -2.23145 1.72852 -3.98535c5.23145 -56.2568 51.2754 -111.696 69.0869 -129.507c3.60547 -3.60547 3.60547 -3.60547 14.0586 -11.6914
c-1.22754 -0.802734 -1.22754 -0.802734 -19.9932 -13.3145c-2.84668 -1.90039 -6.69922 -1.45703 -9.03418 1.08984c-30.0791 32.7197 -53.7002 58.416 -74.6094 118.096c-9.44629 -29.4131 -26.6836 -58.2959 -42.6045 -78.5156
c-11.126 -14.1289 -19.8799 -31.4688 -28.2031 -39.793c-2.53711 -2.53711 -6.54395 -2.71484 -9.28906 -0.542969c-14.1436 11.1963 -14.1436 11.1963 -14.4336 11.4873c-2.5166 2.51562 -2.71289 6.47656 -0.598633 9.21973
c7.94727 10.3027 34.1816 46.1582 34.5322 46.6201c50.7832 66.708 53.252 155.368 52.8457 203.106c-0.0341797 3.9502 3.20312 7.14551 7.1543 7.05664c18.7012 -0.416016 18.7012 -0.416016 21.4033 -3.11816c2.02734 -2.02734 3.06055 -5.03613 2.99219 -8.46777
c-0.0234375 -1.15625 -0.125977 -6.3916 0.194336 -12.0723zM614.812 703.918c0 10.9561 7.2373 19.7217 16.4053 19.7217c9.16699 0 16.4043 -8.76562 16.4043 -19.7217c0 -10.9551 -7.2373 -19.7197 -16.4043 -19.7197c-9.16797 0 -16.4053 8.76465 -16.4053 19.7197z
M731.577 702.822c0 11.5049 7.23828 20.8174 16.4053 20.8174c9.16797 0 16.4053 -9.3125 16.4053 -20.8174c0 -11.5029 -7.2373 -20.8164 -16.4053 -20.8164c-9.16699 0 -16.4053 9.31348 -16.4053 20.8164z" />
  </g>

</svg>
