<?xml version="1.0" standalone="no"?>
<!DOCTYPE svg PUBLIC "-//W3C//DTD SVG 1.1//EN" "http://www.w3.org/Graphics/SVG/1.1/DTD/svg11.dtd" >
<svg xmlns="http://www.w3.org/2000/svg" xmlns:xlink="http://www.w3.org/1999/xlink" version="1.1" viewBox="-10 0 1008 1000">
  <g transform="matrix(1 0 0 -1 0 800)">
   <path fill="currentColor"
d="M758.671 730.159c0.984375 -17.4932 -7.3291 -67.3213 -2.43848 -69.9375c4.80078 -51.6133 54.7725 -99.8379 54.8359 -97.9775l-8.46875 -5.64355c-19.0498 20.7783 -40.3066 41.3418 -56.5039 97.6465c-3.60547 -24.791 -19.0918 -52.5586 -33.0059 -70.2295
c-8.46582 -10.752 -12.0957 -19.3535 -19.3535 -27.417l-9.67773 7.66016c10.8867 14.1113 16.998 23.208 24.1924 32.6592c36.7373 48.2568 38.2734 111.614 37.9893 145.18c3.41797 -0.0751953 6.83594 -0.149414 10.2549 -0.225586
c1.92383 -0.0410156 2.00098 -1.91113 2.03516 -2.70898c0.00390625 -0.0908203 -0.125 -4.29004 0.140625 -9.00586zM62.6729 566.633v31.6641l448.397 3v-31.6641zM251.288 733.335l42.3633 49.5537l42.043 -47.1035l-7.43359 -7.11035l-29.5371 34.6807l1.74707 -125.923
l-12.4707 0.567383l1.0459 125.256l-30.1943 -36.498zM348.481 97.6934l-82.2217 148.848l24.0225 10.1475l58.4395 -100.383l53.3027 101.418l27.2285 -11.0254zM265.568 -67.707v34.6641h38.626v22.0713h-38.626v34.6641h38.626v33.7148h31.3828v-33.7148h23.2197v31.2539
h31.3828v-31.2539h41.292v-34.6641h-41.292v-22.0713h41.292v-34.6641h-41.292v-36.1855h-31.3828v36.1855h-23.2197v-33.7246h-31.3828v33.7246h-38.626zM335.577 -33.043h23.2197v22.0713h-23.2197v-22.0713zM780.659 223.904
c-0.529297 0 -0.985352 0.173828 -1.32227 0.358398l-214.094 -88.2627v-37.8242c12.126 5.10742 24.251 10.2148 36.376 15.3213v-3.77051l-0.21875 -161.659h318.305l0.646484 155.446c10.9619 -6.48535 21.9238 -12.9697 32.8867 -19.4551l-0.677734 40.7051
l-136.33 79.1182l1.46387 0.616211c-22.6963 11.7715 -24.457 12.7314 -36.2109 19.5508c-0.288086 -0.102539 -0.56543 -0.144531 -0.824219 -0.144531zM884.594 -16.7148h-248.003l-0.665039 144.662l142.009 59.8174l107.859 -63.8086zM63.3545 -23.4795h55.5146
l17.1611 52.2256l17.1602 -52.2256h55.5156l-44.8672 -32.2959l17.1611 -52.2246l-44.9697 32.2959l-44.9707 -32.2959l17.1611 52.2246z" />
  </g>

</svg>
