<?xml version="1.0" standalone="no"?>
<!DOCTYPE svg PUBLIC "-//W3C//DTD SVG 1.1//EN" "http://www.w3.org/Graphics/SVG/1.1/DTD/svg11.dtd" >
<svg xmlns="http://www.w3.org/2000/svg" xmlns:xlink="http://www.w3.org/1999/xlink" version="1.1" viewBox="-10 0 1108 1000">
  <g transform="matrix(1 0 0 -1 0 800)">
   <path fill="currentColor"
d="M752.422 -15.1162c-3.08594 0 -5.74707 2.5166 -5.74707 5.74707v201.896c0 3.09766 2.52637 5.74707 5.76758 5.74707c0 0 56.626 -0.228516 67.2207 -0.270508l39.0078 35.291l1.82812 -14.2422l1.34668 -24.8926l142.185 3.09863
c3.0791 0.0673828 5.72559 -2.52832 5.72559 -5.74609v-58.2188l34.4609 -40.125l-26.293 1.4248l-9.41895 1.34473l1.25098 -106.322c0.0361328 -3.08887 -2.53516 -5.74609 -5.7666 -5.74609zM994.377 93.9199l-17.4922 -2.69141l-22.0156 2.91895l36.6641 40.2109
v44.6973l-128.343 1.64941l-0.671875 -20.8555l-0.811523 -15.8105l-42.4023 35.7568l-54.4043 0.232422v-176.941l226.633 -0.974609zM40.3545 -98.4795h55.5146l17.1611 52.2256l17.1602 -52.2256h55.5156l-44.8672 -32.2959l17.1611 -52.2246l-44.9697 32.2959
l-44.9707 -32.2959l17.1611 52.2246zM795.4 160.151zM256 -78l-11.9229 8.0752l219.487 324.059l11.9219 -8.07617zM371.107 -177.273l-11.9219 8.07617l219.486 324.058l11.9229 -8.0752zM648.16 444.758c0.123047 -1.66406 0.223633 -4.36816 0.223633 -6.03711
c0 -0.790039 -0.0224609 -2.07227 -0.0507812 -2.86133c-0.874023 -20.2148 -13.4551 -47.9688 -28.0801 -61.9492c-8.09863 -7.10742 -23.416 -12.875 -34.1914 -12.875c-0.101562 0 -0.266602 0.000976562 -0.369141 0.000976562
c-0.569336 -0.0205078 -1.49414 -0.0371094 -2.06445 -0.0371094c-1.0293 0 -2.69727 0.0546875 -3.72363 0.124023c-7.65039 0.620117 -20.0889 1.12402 -27.7637 1.12402c-3.68945 0 -9.67578 -0.116211 -13.3633 -0.259766
c-0.230469 -0.00292969 -0.603516 -0.00585938 -0.833984 -0.00585938c-14.6885 0 -34.8672 8.5957 -45.0439 19.1865c-12.0723 12.1963 -21.8711 36.0225 -21.8711 53.1836c0 0.368164 0.00585938 0.966797 0.0126953 1.33496
c0.605469 31.708 21.167 57.9736 55.209 70.2432c7.74512 2.72559 20.6738 5.47363 28.8574 6.13379c0 19.6133 0.691406 66.5283 25.9199 91.7568c9.05566 9.07422 26.8096 16.4385 39.6289 16.4385c0.4375 0 1.14746 -0.00976562 1.58301 -0.0224609v-8.63965
c-0.392578 0.0117188 -1.03223 0.0214844 -1.42578 0.0214844c-10.8799 0 -25.9561 -6.24219 -33.6523 -13.9316c-22.377 -22.3779 -23.3271 -67.8242 -23.3271 -85.1045c0.869141 0.0283203 2.28125 0.0517578 3.15039 0.0517578
c15.0801 0 37.7441 -6.41016 50.5898 -14.3076c16.1396 -10.3896 29.8418 -34.3877 30.5859 -53.5684zM614.551 380.218c13.001 12.4502 24.3047 37.1455 25.2285 55.123c0.0712891 1.19043 0.128906 3.12695 0.128906 4.31934
c0 1.19336 -0.0576172 3.12891 -0.128906 4.32031c-0.645508 16.7578 -12.6055 37.7373 -26.6982 46.8291c-12.4893 7.2168 -34.333 13.0732 -48.7578 13.0732c-9.92969 0 -25.5146 -2.87695 -34.79 -6.4209c-31.0176 -11.1455 -48.9883 -33.7832 -49.5068 -62.208
c-0.0078125 -0.364258 -0.0136719 -0.955078 -0.0136719 -1.31934c0 -15.1494 8.63867 -36.1963 19.2803 -46.9775c8.73438 -8.96973 25.9834 -16.249 38.502 -16.249c0.199219 0 0.524414 0.00195313 0.723633 0.00488281h17.2803
c0.782227 0.00976562 2.05078 0.015625 2.83301 0.015625c6.19434 0 16.2275 -0.470703 22.3955 -1.05176c1.35449 -0.155273 3.56055 -0.282227 4.92383 -0.282227c9.02441 0 21.8359 4.84863 28.5996 10.8232zM672.279 674.223l-233.279 0.777344v15.3936h209.159v87.4082
h-209.159v15.3926l231.206 -1.29492z" />
  </g>

</svg>
