<?xml version="1.0" standalone="no"?>
<!DOCTYPE svg PUBLIC "-//W3C//DTD SVG 1.1//EN" "http://www.w3.org/Graphics/SVG/1.1/DTD/svg11.dtd" >
<svg xmlns="http://www.w3.org/2000/svg" xmlns:xlink="http://www.w3.org/1999/xlink" version="1.1" viewBox="-10 0 1014 1000">
  <g transform="matrix(1 0 0 -1 0 800)">
   <path fill="currentColor"
d="M30.3242 741.553h55.5146l17.1611 52.2256l17.1602 -52.2256h55.5156l-44.8672 -32.2959l17.1611 -52.2246l-44.9697 32.2959l-44.9707 -32.2959l17.1611 52.2246zM271 608l-12 60c128.725 89.7881 355.203 55.3633 442.457 48.5605
c0 -0.0107422 0.000976562 -0.0214844 0.000976562 -0.0322266c27.4463 0.582031 75.1855 -1.32129 107.268 -33.4033c40.1396 -40.1396 38.6152 -108.841 37.5254 -169.365c-0.395508 -21.9258 -0.433594 -33.2402 -0.22168 -41.9463
c26.3789 -43.8281 72.168 -89.959 89.3252 -129.607c6.95117 -16.0635 5.49219 -24.7637 2.64551 -40.2051l-12 -14l-79.501 -63.5771v-212.431c1.93945 -31.0869 1.82422 -79.2412 -27.416 -108.48c-26.0322 -26.0322 -182.507 -12.0195 -220.584 -13.0049
l-2.90137 0.0126953c-103.732 -7.2998 -296.108 50.6025 -326.603 92.1719c-18.5059 25.2275 -31.4014 41.2529 -57.9951 55.3086v70.0371c25.8174 -16.2627 49.624 -17.8066 70.1904 -60.6357c44.2188 -92.082 349.455 -105.734 451.309 -108.438l-0.499023 -0.962891
c50 12 34.1514 4.48145 42.5352 13.5361c19.1768 20.7119 3.97852 41.9688 5.50781 57.9648h-0.541992v2.14941c-0.253906 0.990234 -0.500977 1.94141 -0.738281 2.84863h0.738281v207.174v3.4873v1.33887h1.58203l104 88h1.13281
c4.9834 45.8955 -62.8379 92.1289 -94.2158 139.501l-3 4l-1 1c-2.02051 3.99219 0.0439453 4.02539 -2.08398 11.5605c-0.0371094 0.130859 -0.189453 0.24707 -0.174805 0.367188l0.258789 2.07227l0.0644531 1.49902
c0.00976562 0.226562 0.150391 3.89551 0.242188 6.24414c3.11426 79.1523 5.19727 173.389 -83.8154 173.771c-136.35 16.7461 -373.536 9.53418 -431.49 -46.5137zM606.113 226.038c26.1875 0 35.4609 0 44.9375 -1.08789
c14.9668 -1.71777 28.8174 7.29883 31.998 10.4795c7.625 7.625 25.6885 33.3711 23.9932 61.7949l-0.00195313 0.0419922c-0.588867 15.2861 -11.8408 36.0137 -25.5557 44.918l0.0839844 -0.0498047c-0.0273438 0.0166016 -0.0566406 0.0332031 -0.0839844 0.0498047
c-12.0635 6.9375 -34.2168 12.8662 -48.0781 12.8662c-9.45605 0 -25.3809 -2.91016 -34.3984 -6.35645c-18.2734 -6.56641 -48.3418 -23.7012 -48.3418 -61.6074c0 -13.9668 8.3877 -35.2305 18.9805 -45.8223c8.17871 -8.17969 25.0508 -15.2266 36.4668 -15.2266z
M682.375 234.77l-0.0595703 -0.0576172c0.0195312 0.0195312 0.0400391 0.0380859 0.0595703 0.0576172zM655.457 208.089c-7.11621 -0.24707 -23.1973 1.95508 -48.2266 0.979492c-0.00976562 0 -0.634766 -0.00683594 -0.963867 -0.00683594
c-16.5449 0 -37.9141 9.21094 -49.2061 20.9463c-12.5479 12.6904 -24.0068 37.7861 -23.623 58.958c0.392578 20.542 8.55371 39.0508 22.8662 53.3633c11.749 11.748 31.6045 24.7549 63.6318 28.7422c0.160156 25.1348 2.89746 68.6934 27.8516 93.6475
c9.2168 9.21777 28.0459 18.5146 45.3164 18.0342l3.88672 -0.108398v-16.8994c-4.79688 0.144531 -4.79688 0.144531 -5.4668 0.144531c-9.88867 0 -24.793 -6.16895 -31.793 -13.1631c-21.3906 -21.3916 -22.6406 -65.915 -22.8066 -80.6797
c19.2754 -0.239258 43.1387 -8.72266 53.4307 -15.3486c17.2793 -11.123 32.4248 -36.5576 33.2979 -58.25c0.0527344 -0.725586 0.345703 -4.76367 0.179688 -9.55664c-0.951172 -21.9824 -14.085 -51.1201 -30.1846 -66.5107l-0.0644531 -0.0566406
c-8.47559 -7.4375 -24.3643 -14.2354 -38.126 -14.2354zM492.307 228.412v24.4443h-36.7871v29.5889h36.7871v24.4443h-36.7871v32.1094h-21.3184v-32.1094h-30.6836v29.7656h-21.3184v-29.7656h-39.3262v-24.4443h39.3262v-29.5889h-39.3262v-24.4443h39.3262v-34.4629
h21.3184v34.4629h30.6836v-32.1191h21.3184v32.1191h36.7871zM419 367l72.2178 130.734l-15.0176 6.34375l-57.6543 -99.0361l-52.5625 100.009l-17.8896 -7.24414zM403.518 282.445h30.6836v-29.5889h-30.6836v29.5889z" />
  </g>

</svg>
