<?xml version="1.0" standalone="no"?>
<!DOCTYPE svg PUBLIC "-//W3C//DTD SVG 1.1//EN" "http://www.w3.org/Graphics/SVG/1.1/DTD/svg11.dtd" >
<svg xmlns="http://www.w3.org/2000/svg" xmlns:xlink="http://www.w3.org/1999/xlink" version="1.1" viewBox="-10 0 982 1000">
  <g transform="matrix(1 0 0 -1 0 800)">
   <path fill="currentColor"
d="M348.481 97.6934l-82.2217 148.848l24.0225 10.1475l58.4395 -100.383l53.3027 101.418l27.2285 -11.0254zM265.568 -67.707v34.6641h38.626v22.0713h-38.626v34.6641h38.626v33.7148h31.3828v-33.7148h23.2197v31.2539h31.3828v-31.2539h41.292v-34.6641h-41.292
v-22.0713h41.292v-34.6641h-41.292v-36.1855h-31.3828v36.1855h-23.2197v-33.7246h-31.3828v33.7246h-38.626zM335.577 -33.043h23.2197v22.0713h-23.2197v-22.0713zM780.659 223.904c-0.529297 0 -0.985352 0.173828 -1.32227 0.358398l-214.094 -88.2627v-37.8242
c12.126 5.10742 24.251 10.2148 36.376 15.3213v-3.77051l-0.21875 -161.659h318.305l0.646484 155.446c10.9619 -6.48535 21.9238 -12.9697 32.8867 -19.4551l-0.677734 40.7051l-136.33 79.1182l1.46387 0.616211c-22.6963 11.7715 -24.457 12.7314 -36.2109 19.5508
c-0.288086 -0.102539 -0.56543 -0.144531 -0.824219 -0.144531zM884.594 -16.7148h-248.003l-0.665039 144.662l142.009 59.8174l107.859 -63.8086zM63.3545 -23.4795h55.5146l17.1611 52.2256l17.1602 -52.2256h55.5156l-44.8672 -32.2959l17.1611 -52.2246
l-44.9697 32.2959l-44.9707 -32.2959l17.1611 52.2246zM329.106 557.362zM328.91 555.044zM569.571 593.324c0 -36.1406 -21.0234 -83.2715 -47.124 -107.23c-55.0127 -50.6357 -111.987 -50.6357 -222.646 -50.6357v21.0527c31.1201 0 57.7451 1.17969 81.0967 1.17969
c-10.7275 2.66504 -24.8418 8.62109 -37.9043 21.6816c-24.8848 24.8857 -24.5898 56.2363 -16.6865 77.083c-0.587891 2.39844 3.94824 9.14941 5.0127 11.8623c1.03906 2.64746 2.3252 3.97266 4.1709 5.63867c1.1377 1.02539 1.1377 1.02539 1.8252 2.17188
c1.63867 2.73145 4.29102 5.3877 7.60156 8.69922c2.54102 2.54102 14.3174 11.0859 23.3721 13.915c6.70215 2.0957 7.63184 3.31934 12.0439 3.83887c2.01367 0.235352 3.16504 0.495117 4.41699 0.775391c2.19629 0.491211 36.8096 7.69629 65.6523 -21.1455
c14.1836 -14.1855 21.3594 -31.3945 21.3594 -51.2832c0 -12.2686 -3.01172 -34.9863 -22.4219 -54.0059c-5.95703 -5.7666 -12.4385 -10.3691 -19.418 -13.7998c30.2783 5.92969 54.6494 17.1787 78.0479 38.5195c21.1641 19.3955 40.7402 61.1865 40.3359 93.291
c-0.279297 29.0664 -18.79 70.4414 -41.3877 90.3076c-49.0645 43.665 -103.558 43.665 -204.282 43.665v21.0537c101.369 0 162.704 0 218.295 -48.9287c24.8945 -21.8398 48.6396 -67.8027 48.6396 -107.706zM396.69 480.024c19.7783 0 31.1182 9.43848 37.2939 15.6152
c12.9541 12.9531 14.7617 26.4766 14.7617 35.4951c-0.0449219 12.8105 -4.29883 24.9756 -15.3984 35.7529c-18.7539 18.4521 -42.6562 17.0107 -57.042 10.7402l-16.0869 -10.5879l-12.4531 -18.4092l0.0390625 0.103516
c-0.0136719 -0.0341797 -0.0263672 -0.0693359 -0.0390625 -0.103516c-2.48242 -6.79883 -9.67285 -32.2266 12.0264 -53.6348c10.1572 -10.0225 22.3301 -14.9717 36.8984 -14.9717z" />
  </g>

</svg>
