<?xml version="1.0" standalone="no"?>
<!DOCTYPE svg PUBLIC "-//W3C//DTD SVG 1.1//EN" "http://www.w3.org/Graphics/SVG/1.1/DTD/svg11.dtd" >
<svg xmlns="http://www.w3.org/2000/svg" xmlns:xlink="http://www.w3.org/1999/xlink" version="1.1" viewBox="-10 0 1051 1000">
  <g transform="matrix(1 0 0 -1 0 800)">
   <path fill="currentColor"
d="M271 608l-12 60c128.725 89.7881 355.203 55.3633 442.457 48.5605c0 -0.0107422 0.000976562 -0.0214844 0.000976562 -0.0322266c27.4463 0.582031 75.1855 -1.32129 107.268 -33.4033c40.1396 -40.1396 38.6152 -108.841 37.5254 -169.365
c-0.395508 -21.9258 -0.433594 -33.2402 -0.22168 -41.9463c26.3789 -43.8281 72.168 -89.959 89.3252 -129.607c6.95117 -16.0635 5.49219 -24.7637 2.64551 -40.2051l-12 -14l-79.501 -63.5771v-212.431c1.93945 -31.0869 1.82422 -79.2412 -27.416 -108.48
c-26.0322 -26.0322 -182.507 -12.0195 -220.584 -13.0049l-2.90137 0.0126953c-103.732 -7.2998 -296.108 50.6025 -326.603 92.1719c-18.5059 25.2275 -31.4014 41.2529 -57.9951 55.3086v70.0371c25.8174 -16.2627 49.624 -17.8066 70.1904 -60.6357
c44.2188 -92.082 349.455 -105.734 451.309 -108.438l-0.499023 -0.962891c50 12 34.1514 4.48145 42.5352 13.5361c19.1768 20.7119 3.97852 41.9688 5.50781 57.9648h-0.541992v2.14941c-0.253906 0.990234 -0.500977 1.94141 -0.738281 2.84863h0.738281v207.174v3.4873
v1.33887h1.58203l104 88h1.13281c4.9834 45.8955 -62.8379 92.1289 -94.2158 139.501l-3 4l-1 1c-2.02051 3.99219 0.0439453 4.02539 -2.08398 11.5605c-0.0371094 0.130859 -0.189453 0.24707 -0.174805 0.367188l0.258789 2.07227l0.0644531 1.49902
c0.00976562 0.226562 0.150391 3.89551 0.242188 6.24414c3.11426 79.1523 14.1973 176.389 -74.8154 176.771c-136.35 16.7461 -373.536 9.53418 -431.49 -46.5137zM30.3545 728.521h55.5146l17.1611 52.2256l17.1602 -52.2256h55.5156l-44.8672 -32.2959l17.1611 -52.2246
l-44.9697 32.2959l-44.9707 -32.2959l17.1611 52.2246zM308.995 203.594c0 -1.11035 0.929688 -1.92285 1.92285 -1.92285l153.135 -0.618164c1.0625 0 1.92871 0.870117 1.92871 1.9043l-0.783203 66.5557c2.49512 -0.356445 4.96777 -0.932617 7.48438 -1.06934
l12.251 -0.663086l-18.9521 22.0674v36.0215c0 1.06543 -0.869141 1.9248 -1.83984 1.9248l-88.1084 -1.91992l-0.898438 16.6143l-0.72168 5.62402l-21.9609 -19.8691l-0.611328 0.00195313s-40.9111 0.166016 -40.917 0.166016
c-1.11328 0 -1.92871 -0.927734 -1.92871 -1.92383v-122.894zM316.938 209.607v110.854l35.2705 -0.151367l23.8203 -20.0879c0.404297 6.74707 0.549805 13.752 0.789062 20.6641l81.2197 -1.04395v-29.3721l-20.6973 -22.7002l10.1904 -1.35059l12.2969 1.8916
l-1.83789 -59.3086zM600.029 392.222l-66.166 122.556l9.59961 4.05566l57.4004 -99.7998l56.0225 105l12.9775 -5.25586zM404.888 388.22l-85.4785 0.40332l1.20996 172.569l10.0352 -0.268555v-162.288h64.96v162.288l9.27344 -0.134766v-172.569zM664.958 320.794
l-55.3486 -55.8975l60.2324 -55.3643l-7.8418 -6.53223l-60.2988 55.5078l-54.5361 -55.5078l-5.69629 6.22754l53.8438 54.7559l-52.9307 55.0605l6.99609 6.69238l53.5391 -53.2354l55.9736 53.54z" />
  </g>

</svg>
