<?xml version="1.0" standalone="no"?>
<!DOCTYPE svg PUBLIC "-//W3C//DTD SVG 1.1//EN" "http://www.w3.org/Graphics/SVG/1.1/DTD/svg11.dtd" >
<svg xmlns="http://www.w3.org/2000/svg" xmlns:xlink="http://www.w3.org/1999/xlink" version="1.1" viewBox="-10 0 935 1000">
  <g transform="matrix(1 0 0 -1 0 800)">
   <path fill="currentColor"
d="M30.3242 741.553h55.5146l17.1611 52.2256l17.1602 -52.2256h55.5156l-44.8672 -32.2959l17.1611 -52.2246l-44.9697 32.2959l-44.9707 -32.2959l17.1611 52.2246zM804 631c0 -96.6865 68.0879 -173.199 99.375 -191.775l11.1992 -6.64941
c-16.9434 -0.478516 1.18945 0.900391 -34.5742 -3.5752l-1.0752 1.36426c-22.0068 27.9238 -93.998 110.011 -106.903 207.233c-0.657227 4.95117 0.0224609 9.79688 0.582031 18.2783c-1.38379 0.708984 -2.88672 1.4873 -4.52246 2.34082
c-0.0283203 -1.83984 -0.322266 -3.81641 -0.0449219 -5.88867c33.3789 -249.661 97.5459 -216.742 97.5459 -216.742s6.91211 -4.29004 10.2793 -6.58594h-32.8613c-44.1455 16.1279 -101.697 151.17 -101.697 222.331c0 8.73535 0.302734 15.3135 0.785156 20.6846
c-60.6641 32.3369 -181.179 64.7012 -284.885 64.7012c-23.0527 0 -45.5234 -2.04883 -73.3945 -6.17773c-32.3232 -4.78906 -32.3232 -4.78906 -70.6152 -21.2002c-18.916 -8.10645 -50.2139 -47.4062 -58.166 -66.7188
c-7.02734 -17.0664 -9.0791 -30.2676 -9.0791 -45.8906c0 -22.332 3.62891 -44.376 3.62891 -77.1553c0 -8.99219 1.14648 -13.8564 1.14648 -20.1924c0 -4.57031 -0.613281 -9.64551 -2.73242 -16.6025c-19.9492 -65.4795 -40.3174 -87.0479 -63.832 -110.183
c-6.25977 -6.16016 -27.0508 -26.6172 -27.0508 -37.7881c0 -4.45605 0.882812 -6.9082 38.3447 -19.4531c55.9199 -18.7266 60.0254 -24.4102 60.0254 -90.9766c0 -43.0117 2.70801 -110.013 2.70801 -151.731c0 -5.5 0.0820312 -11.3867 0.267578 -17.7666
c0.50293 -17.292 16.4512 -45.3398 23.8975 -57.5352c1.19629 -0.303711 1.95996 -1.18164 1.95996 -1.18164c1.1543 -0.666992 2.48438 -1.60059 4.13477 -2.74414c16.0508 -11.1162 22.0049 -13.1846 40.8428 -13.1846c24.0361 0 22.3457 4.21484 79.0615 4.21484
c0.316406 0 6.94531 -0.00390625 7.01562 -0.00390625c14.7988 0 25.668 0.226562 52.1025 3.80078c20.2021 2.73242 38.8271 4.61572 56.5088 6.4043c120.938 12.2334 201.711 24.1475 280.178 80.1953c2.23438 1.5957 5.14355 3.85352 8.45703 6.42773
c12.6104 9.7959 33.0303 26.8994 48.1416 26.8994c8.16699 0 13.834 -4.95996 13.834 -14.165c0 -15.4473 -17.4082 -42.8486 -33.0938 -42.8486c-1.16406 0 -1.56543 0.129883 -3.01758 0.129883c-22.6426 0 -44.3604 -36.5264 -79.4766 -51.29
c-52.8857 -22.2344 -138.298 -27.127 -175.459 -33.71c-17.2549 -3.05664 -36.6504 -6.49316 -61.8809 -12.2393c-34.7246 -7.90918 -51.6299 -8.61133 -86.7539 -8.61133c-0.251953 0 -22.7891 0.03125 -25.0811 0.03125c-11.3115 0 -32.6182 -0.123047 -32.9473 -0.123047
c-40.7773 0 -82.5049 2.86621 -120.91 24.8125c-26.0957 14.9121 -27.9092 36.1035 -30.0449 61.0586c-0.477539 5.59082 -0.976562 11.3994 -1.75781 17.3906c-1.96484 15.7158 -2.63672 29.7119 -2.63672 42.8916c0 28.6572 -4.27441 100.664 -4.27441 131.409
c0 46.4277 -4.59863 49 -29.7539 58.8145c-27.3184 10.6582 -57.2148 13.2568 -70.834 26.876c-4.33008 4.33008 -6.66504 9.68945 -6.66504 16.1094c0 4.7959 1.30371 10.1846 4.05176 16.1768c36.4951 79.5967 68.6367 70.0742 91.3711 139.761
c5.20312 15.9443 6.93652 32.2529 6.93652 48.6797c0 32.5635 -6.77832 65.1611 -6.77832 95.8125c0 47.6494 17.2412 68.3838 35.0508 86.1934c66.2422 66.2412 143.674 66.3555 238.901 66.3555h0.988281c82.8154 0 190.135 -23.3467 246.021 -49.8477
c43.5547 -20.6533 21.8506 -15.7109 32.4561 -16.8408c11.3984 -1.2168 39 -13 47.5039 -30.4053c4.31641 -8.83496 -4.12305 -21.668 -4.50391 -29.5947c-0.257812 -5.36523 2 -14.3428 2 -20zM412.248 162.952zM437.139 277.486l0.0185547 -0.0214844
c-0.00585937 0.00683594 -0.0185547 0.0214844 -0.0185547 0.0214844zM366.451 187.867l0.00585938 0.0351562c-0.00195312 -0.0117188 -0.00585938 -0.0234375 -0.00585938 -0.0351562zM372.681 173.527l-0.120117 0.0380859
c0.0400391 -0.0136719 0.0800781 -0.0253906 0.120117 -0.0380859zM374.691 173.13l-0.0263672 0.00195313c0.00488281 0 0.00878906 -0.00195313 0.0263672 -0.00195313zM451.757 161.729c-40.458 0.142578 -73.6973 0.000976563 -73.7031 0.000976563
c-4.55762 0.146484 -10.2129 0.329102 -15.0928 5.73633c-8.09375 8.96582 -6.66895 19.8525 -6.23047 22.2539c0.891602 4.88184 2.28809 9.78516 4.32129 17.9521c8.51562 34.2236 9.5127 39.1357 13.3867 50.4443c8.82812 25.666 19.5205 34.332 28.958 38.1748
c5.77539 2.15527 24.5273 7.24316 40.0361 -10.0771c7.98828 -9.37988 14.4521 -22.0801 22.0547 -52.7119c2.69336 -11.1943 5.44336 -22.3662 8.25684 -33.5391c0.716797 -2.98633 1.37402 -5.98145 1.97461 -9.00879c2.96289 -14.583 -5.49805 -29.3076 -19.1045 -29.127
zM369.477 175.906c0.0078125 -0.0078125 0.0175781 -0.0136719 0.0175781 -0.0205078c2.49316 -2.70996 4.14746 -2.78125 8.68066 -2.97754c0 0 75.3613 0.0332031 75.3945 0.0332031c1.76562 -0.0253906 3.52441 0.078125 5.28027 0.311523
c3.63867 0.454102 9.09668 6.5127 7.27246 15.1562c-0.842773 4.24414 -0.842773 4.24414 -4.42383 18.626c-8.90234 36.5654 -10.9316 44.8965 -17.0078 58.209c-1.11328 2.38672 -4.68848 9.55957 -9.56055 14.4326c-4.76953 4.76855 -10.1572 7.28027 -16.4014 7.71191
c-7.76855 0.686523 -21.9844 -0.396484 -32.5098 -26.4854c-4.11914 -10.3809 -6.64648 -19.5088 -9.42969 -30.5986c-6.48926 -26.7139 -6.48926 -26.7139 -8.83984 -35.5303l0.00585938 0.0234375l-0.00585938 -0.0234375
c-1.85156 -7.61719 -3.22461 -13.2627 1.52734 -18.8682zM391.702 127.892c0 6.75195 6.0459 12.4639 13.9521 12.4639s20.7051 -12.4639 13.9531 -12.4639c-27.9053 0 -6.04688 -12.4648 -13.9531 -12.4648s-13.9521 5.71289 -13.9521 12.4648zM389.979 513.625z
M371.914 522.656c-3.31445 -2.88379 -5.02246 -10.9922 -2.57812 -13.5361c-0.00683594 -0.0195312 -0.643555 -1.55176 -0.756836 -1.90527c-1.82617 -2.58398 -0.678711 -3.50391 -1.5752 -5.43848c-0.106445 -0.112305 -5.73926 -6.62305 -7.73828 -12.5371
c-0.152344 -0.421875 -12.332 -27.7529 -23.3047 -38.2734c-3.3877 -3.24707 -7.1582 -9.50781 -14.3184 -15.7666c-0.220703 -0.193359 -18.8857 -17.3584 -9.58984 -27.6826c4.54785 -5.05273 16.4766 -18.3027 35.9648 -3.02344
c6.70215 5.25488 16.165 14.5176 16.3164 14.6758c-0.0419922 -1.95801 -5.94043 -46.4375 -3.55371 -62.7432c0.0126953 -0.0917969 1.17285 -7.20996 2.42383 -8.99121c0.185547 -3.55566 10.2412 -21.1279 28.5957 -10.9863
c1.65039 -3.18945 7.6875 -8.02051 7.78223 -8.08008c1.96094 -1.21484 10.4521 -12.9736 16.583 -2.94141c0.0908203 0.149414 10.3867 2.43555 12.5674 12.1055c4.90039 -6.06445 4.90039 -6.06445 10.1172 -8.40625c8.3291 -5.06641 21.21 3.21582 22.4619 8.30859
c1.62012 2.63086 1.62012 2.63086 3.27344 9.64355c7.5918 -7.82324 27.5459 -9.5625 30.166 10.4053c0.390625 2.98242 1.25195 22.4248 0.272461 30.8691c-0.0625 0.651367 -3.74414 48.3076 0.386719 65.4648c0.106445 0.439453 0.426758 1.57715 -0.19043 2.80469
c1.18457 13.2666 1.97363 22.0947 -1.35645 26.2871c-0.708008 4.24902 -12.2314 12.0371 -6.80078 20.3838c8.2041 12.6055 -6.59961 21.9141 -11.5371 21.9814c-6.27734 2.36035 -32.668 4.32227 -32.9951 4.38672c-0.663086 0.131836 -55.0303 4.26855 -67.4297 -4.55664
c-2.67676 -0.833984 -2.97656 -2.5166 -3.18652 -2.44824zM369.358 485.805c0 0.0126953 0.0302734 0.0253906 0.0322266 0.0380859zM453.258 348.755c0 0.0283203 0.0185547 0.0576172 0.0185547 0.0585938
c-0.00585938 -0.0185547 -0.0185547 -0.0380859 -0.0185547 -0.0585938zM413.553 333.574l0.212891 0.0234375c-0.0546875 -0.0078125 -0.126953 -0.0117188 -0.212891 -0.0234375zM477.292 344.982l-0.542969 3.15332l1.81152 -0.503906zM375.946 345.798
c0.0185547 -0.0283203 0.0195312 -0.0488281 0.0224609 -0.0537109c-0.00195312 0.00195312 -0.00878906 0.0205078 -0.0224609 0.0537109zM439.797 339.869c-5.61914 6.16797 -6.66113 13.0469 -6.67969 13.1943c0 0 0.80957 2.68164 -0.386719 2.61133
c-1.52637 -0.0898438 1.49805 20.5879 -2.38574 22.2754c-2.00488 0.871094 -3.07617 -14.9102 -5.99609 -14.7471c0.0585938 -0.195312 -0.201172 -0.145508 -0.362305 -0.171875c0.179688 -1.37109 0.179688 -1.37109 0.0332031 -3.55469l-0.624023 -0.0654297
c-0.503906 -2.81934 -0.811523 -6.22852 -0.824219 -6.29102l-0.994141 0.0351562l0.394531 -2.52441c-1.37891 -4.7334 -7.40625 -16.208 -7.45605 -16.3818c-0.808594 -0.682617 -0.955078 -0.874023 -4.40332 -1.01465
c-3.87891 1.51074 -5.08496 2.54883 -6.92188 6.9873c-3.44043 8.31348 -1.27051 9.95801 -6.19043 23.7783l-4.68066 8.77539c-0.875 -8.62988 -2.28223 -22.501 -5.87207 -27.21c-4.7793 -2.61523 -4.7793 -2.61523 -6.11621 -2.69141
c-2.98926 1.00684 -2.98926 1.00684 -4.38477 2.92383c-1.9707 5.05176 -3.93457 8.01172 -3.93457 9.95801c-0.321289 4.36621 0.0449219 15.9639 -0.413086 19.4189c0.0537109 0.12793 -0.259766 0.990234 1.08691 13.7793
c2.84961 27.1338 3.10938 33.1133 3.17383 33.4424c1.09961 1.63477 0.545898 3.31836 -0.0185547 4.41309c0.0517578 0.185547 0.21875 1.00293 0.734375 3.91504c1.91602 0.712891 2.87402 6.77344 2.28906 8.65039c0 -0.0771484 -0.905273 0.983398 -0.905273 0.983398
c-3.24023 -0.647461 -3.24023 -0.647461 -3.62598 -0.714844c-1.96094 0.563477 -4.15723 0.0859375 -5.41602 -1.20215c-1.75293 -0.632812 -26.1709 -25.9834 -26.3916 -26.2832c-2.45215 -1.18652 -4.73047 -4.19238 -7.65332 -4.86035
c-6.96973 -1.58984 -13.8857 4.28809 -14.0439 9.05469c1.77734 2.66406 -0.0966797 2.41113 4.60352 7.67383c1.90039 1.19238 1.29785 2.2373 2.86133 3.54492c11.6631 9.75488 27.1924 29.4912 27.4678 29.7891c1.66113 1.79883 11.8047 19.8096 11.8047 23.6318
c0 2.33496 8.0498 13.4268 13.6162 22.9355l1.48926 0.180664l-0.361328 1.77539l0.581055 1.01172l-0.59668 0.203125c1.31445 4.55176 14.7607 12.9199 22.7383 14.6797c1.25 -0.780273 3.08398 -0.916016 4.69336 -0.493164
c5.7002 1.49707 57.6582 -3.76953 58.2344 -3.8623c7.81543 -1.26465 12.3408 -7.05957 7.95215 -11.8779c-1.58203 -1.73926 -2.59766 -10.2637 -2.59375 -10.3691l-0.638672 -0.40918c1.09473 -0.830078 1.81445 -1.94922 2.53027 -3.07129l0.391602 0.154297
c0.310547 -0.805664 3.11621 -5.29492 3.11621 -5.35645c0.387695 -2.33691 2.95508 -3.64062 5.00488 -10.6133c3.1582 -10.7559 -2.08203 -24.0059 -0.447266 -27.0195c-0.18457 -1.32129 -1.64941 -16.9385 -1.64941 -25.9375
c-1.18066 -7.28809 5.26758 -59.8311 1.28613 -68.083c-0.0673828 -0.140625 -1.68262 -2.82715 -3.70117 -4.08301c0.1875 0.0537109 0.457031 0.0771484 0.457031 0.0771484c-3.42969 -0.576172 -3.54102 -0.544922 -4.20996 -0.0292969
c-0.148438 0.114258 -7.88379 6.76953 -12.1738 14.1533c-1.41406 -2.29004 -2.73047 33.083 -5.15234 12.542c-0.120117 -1.02344 -0.417969 -5.38477 -1.75488 -5.39941c0.0722656 -3.77051 -0.992188 -19.1348 -4.33496 -26.0557
c-5.80273 -12.0195 -6.41504 -12.5762 -12.2451 -6.17578zM325.432 424.026c0.115234 0.128906 0.198242 0.219727 0.243164 0.265625zM363.218 433.024c-0.0371094 -0.0322266 -0.0712891 -0.0605469 -0.104492 -0.0849609z" />
  </g>

</svg>
