<?xml version="1.0" standalone="no"?>
<!DOCTYPE svg PUBLIC "-//W3C//DTD SVG 1.1//EN" "http://www.w3.org/Graphics/SVG/1.1/DTD/svg11.dtd" >
<svg xmlns="http://www.w3.org/2000/svg" xmlns:xlink="http://www.w3.org/1999/xlink" version="1.1" viewBox="-10 0 1008 1000">
  <g transform="matrix(1 0 0 -1 0 800)">
   <path fill="currentColor"
d="M332.481 97.6934l-82.2217 148.848l24.0225 10.1475l58.4395 -100.383l53.3027 101.418l27.2285 -11.0254zM249.568 -67.707v34.6641h38.626v22.0713h-38.626v34.6641h38.626v33.7148h31.3828v-33.7148h23.2197v31.2539h31.3828v-31.2539h41.292v-34.6641h-41.292
v-22.0713h41.292v-34.6641h-41.292v-36.1855h-31.3828v36.1855h-23.2197v-33.7246h-31.3828v33.7246h-38.626zM319.577 -33.043h23.2197v22.0713h-23.2197v-22.0713zM764.659 223.904c-0.529297 0 -0.985352 0.173828 -1.32227 0.358398l-214.094 -88.2627v-37.8242
c12.126 5.10742 24.251 10.2148 36.376 15.3213v-3.77051l-0.21875 -161.659h318.305l0.646484 155.446c10.9619 -6.48535 21.9238 -12.9697 32.8867 -19.4551l-0.677734 40.7051l-136.33 79.1182l1.46387 0.616211c-22.6963 11.7715 -24.457 12.7314 -36.2109 19.5508
c-0.288086 -0.102539 -0.56543 -0.144531 -0.824219 -0.144531zM868.594 -16.7148h-248.003l-0.665039 144.662l142.009 59.8174l107.859 -63.8086zM38.3545 -39.4795h55.5146l17.1611 52.2256l17.1602 -52.2256h55.5156l-44.8672 -32.2959l17.1611 -52.2246
l-44.9697 32.2959l-44.9707 -32.2959l17.1611 52.2246zM610.555 417.41h5.96777c0.146484 -4.1123 0.293945 -8.22461 0.439453 -12.3369c22.7354 0.795898 43.2891 10.3711 58.3555 25.4375c5.47656 5.47754 10.2275 11.6787 14.0957 18.4482l-9.54785 5.06641
l-1.1748 -1.86035l-58.5586 27.6299c-1.91113 -1.0459 -4.10254 -1.64062 -6.43555 -1.64062c-7.4082 0 -13.4121 6.00488 -13.4121 13.4131c0 5.66113 3.50684 10.502 8.46777 12.4717v62.5469h1.37598v11.4297c-11.7041 -0.551758 -45.0332 -5.07227 -67.3291 -37.6318
c3.35449 -1.93652 6.70703 -3.87305 10.0615 -5.80859l-3.44336 -5.96387c-3.42676 1.98047 -6.85449 3.95801 -10.2812 5.93652c-7.26855 -12.667 -11.4238 -27.3408 -11.4238 -42.9834c0 -15.2539 3.97852 -29.6084 10.9531 -42.0781
c3.5459 2.04688 7.09082 4.09375 10.6367 6.14062l3.44238 -5.96289c-3.49316 -2.01758 -6.9873 -4.03418 -10.4805 -6.05176c14.9824 -22.4072 40.1182 -37.4629 68.7305 -38.5332c-0.146484 4.11035 -0.292969 8.22168 -0.439453 12.3311zM708.89 491.565
c0 -52.2334 -42.3936 -94.6279 -94.6309 -94.6279c-52.2363 0 -94.6299 42.3945 -94.6299 94.6318c0 51.9277 42.1416 94.3154 94.0664 94.6279h0.189453c52.2432 0 94.7969 -42.3975 95.0049 -94.6318zM617.014 578.069v-11.4834h0.901367l2.25977 -63.2715
c3.66797 -2.02637 6.28418 -5.71973 6.83008 -10.0586l57.6709 -31.6133l-1.61621 -2.55957l9.13379 -4.84668c5.4668 11.3057 8.55566 23.9678 8.61328 37.334c0 16.1455 -4.42871 31.2568 -12.1367 44.1982c-3.33691 -2.08887 -6.67383 -4.17969 -10.0107 -6.26758
l-2.98438 5.16992c3.25586 2.03711 6.51172 4.0752 9.76758 6.11328c-6.67676 9.63574 -28.5488 36.0361 -68.4287 37.2852zM625.401 332.84c0 -5.57715 1.00879 -12.2891 1.09277 -22.0898h4.14453c44.7549 7.97461 82.4639 25.8711 110.728 54.1338
c31.752 31.752 50.6338 76.4121 50.6338 131.116c0 50.1582 -19.3418 89.8242 -49.1338 119.616c-40.2031 40.2031 -93.1084 56.7627 -110.783 61.9824l-65.9541 -61.8643c-0.0292969 0.619141 -2.37598 58.7861 -2.53809 61.9678
c-46.9619 -18.4814 -133.591 -57.8438 -133.591 -181.702c0 -89.4365 60.7227 -163.509 139.398 -182.629l57.7656 52.6074c-1.7627 -32.3223 -1.7627 -32.3223 -1.7627 -33.1387zM813 496c0 -114.316 -71.6582 -205.25 -183.25 -205.25
c-1.7373 0 -2.81055 -0.634766 -2.81055 -2.8584c0 -0.379883 0.0361328 -0.644531 0.0361328 -0.644531l0.0244141 -0.12207v-0.125c0 -3.3125 -0.105469 -6.11816 -0.105469 -6.18066c0 -3.85352 0.456055 -7.05176 0.456055 -11.5322
c0 -1.98633 -0.0898438 -4.2168 -0.350586 -6.84473c0.00195312 -0.0546875 2.25391 -25.8125 2.27637 -26.0732l-60.6328 56.4873c-96.8535 22.2432 -159.644 108.634 -159.644 203.144c0 66.249 20.0781 121.596 57.3662 158.884
c37.0049 37.0059 79.3389 45.0156 97.5508 48.1553l-4.64062 60.8525l71.5293 -60.7236c105.956 -19.7275 182.194 -103.702 182.194 -207.168z" />
  </g>

</svg>
