<?xml version="1.0" standalone="no"?>
<!DOCTYPE svg PUBLIC "-//W3C//DTD SVG 1.1//EN" "http://www.w3.org/Graphics/SVG/1.1/DTD/svg11.dtd" >
<svg xmlns="http://www.w3.org/2000/svg" xmlns:xlink="http://www.w3.org/1999/xlink" version="1.1" viewBox="-10 0 1051 1000">
  <g transform="matrix(1 0 0 -1 0 800)">
   <path fill="currentColor"
d="M828.399 483.872c0 9.49878 0.360099 25.4826 0.360099 28.905l-0.318652 61.3747l-8.69455 54.78l-24.0577 41.7601l-29.8355 19.1251l-33.9409 8.02542l-47.9505 1.85133v0.765382l-107.704 8.96128l-161.614 -4.8437l-135.511 -48.0118l4.97421 -24.8711
l90.1513 34.2037l168.519 13.9909l163.859 -8.05849l72.0585 -32.0852l24.6852 -76.5829c-11.2968 -92.7231 -11.5388 -94.7093 -10.6225 -98.1968c0.272553 -1.03738 0.408327 -1.98777 0.495372 -2.92219c0.487753 -0.641757 1.13403 -1.58506 1.4862 -2.05622
l30.4464 -40.7334l38.0432 -60.0682l23.93 -33.502l-96.7113 -80.2498l-3.19974 -219.288c0.962733 -7.56244 2.78458 -22.0112 5.01798 -45.877c-0.12894 -0.269919 -9.65147 -20.9678 -12.8349 -27.02c-1.80565 -3.43278 -3.36365 -6.39475 -8.94453 -11.1259
c-28.726 -6.87192 -37.6748 -9.01268 -53.7943 -9.01268c-3.38415 0 -6.77838 0.14333 -10.1737 0.446144l-127.95 -3.2205l-189.706 31.9736l-119.91 72.0259l-21.8729 31.5454c-0.18608 0.126152 -14.9542 10.3475 -18.5829 12.6523v-31.4635
c5.41685 -3.87145 13.5068 -7.36272 24.4398 -17.2503c7.32645 -6.62591 2.09556 -4.45645 10.6241 -11.9264c1.03002 -0.902171 1.03002 -0.902171 17.2005 -21.8062l70.2643 -41.1391l123.979 -35.7692l40.8353 -3.74581
c52.8258 -4.90757 59.0669 -6.73248 83.0467 -7.42728l68.08 -1.97257l89.7606 0.254271l51.1066 12.4914l15.1376 25.2075l6.27671 34.16l-0.268638 82.9487l0.0291888 84.2282l-0.00582149 87.5189l84.7837 67.8016l7.68593 8.96692l1.11464 7.19504
c0.44913 7.61262 -1.52476 12.8022 -3.31214 18.1783l-23.3304 38.8443l-33.0243 43.448l-34.3179 48.9016c-0.202711 16.1296 -0.202711 16.1296 -0.202711 17.6951zM33.2949 712.521h55.5146l17.1611 52.2256l17.1602 -52.2256h55.5156l-44.8672 -32.2959
l17.1611 -52.2246l-44.9697 32.2959l-44.9707 -32.2959l17.1611 52.2246zM631.101 71.7168zM467.525 181.764zM436.978 125.527zM556 52zM555.785 45.1699zM464.845 70.5635zM517.272 54.0703zM660.278 138.242zM436.978 125.527zM660.278 138.242zM637.726 182.828
c-6.44434 6.59473 -26.9834 27.6143 -49.8809 27.6143c-23.9229 0 -22.2754 -13.4404 -38.4873 -13.4404c-19.4912 0 -15.2637 12.2344 -36.0088 12.2344c-13.3594 0 -34.8213 -7.43457 -43.1191 -26.8535h-1.16309l-30.4746 -41.4062h-1.45801v-1.98047
c-0.197266 -0.268555 -0.394531 -0.536133 -0.592773 -0.804688h0.319336l-3.375 -12.6562l-0.379883 0.00585938c-0.0683594 -1.2959 -0.19043 -2.04102 -0.599609 -3.65137h0.491211c-0.0117188 -1.43066 -0.0117188 -1.43066 -0.0117188 -1.57617
c0 -9.25293 3.99219 -27.9785 30.6055 -49.9883c28.1064 -23.2471 59.8916 -25.8105 86.2422 -25.8105c43.1895 0 60.7979 5.41309 86.6416 25.835c31.5713 24.9473 32.1035 32.293 32.9727 50.5264l-0.883789 0.0136719
c-0.0537109 0.203125 -3.93164 16.0264 -5.30664 20.2861l-22.5645 38.5586c-2.54297 2.6543 -2.54297 2.6543 -2.7998 3.09375h-0.166992zM479.346 177.638c7.12793 16.793 24.7051 21.6523 33.5635 21.6523c2.42773 0 7.82227 0 13.9736 -4.23242l-0.0478516 -0.586914
c0.354492 -0.145508 0.923828 -0.413086 1.47656 -0.9375c5.21191 -4.95312 13.2227 -7.27832 20.8271 -7.27832c3.56055 0 17.1826 0.654297 20.4561 10.5088c3.90527 2.66602 10.1094 5.57324 18.5771 5.57324c11.2373 0 16.4912 -4.89355 20.5195 -8.64453
c10.6494 -9.92188 16.3594 -12.4404 16.96 -13.1201l0.194336 0.00683594l25.3584 -39.9961c0 -0.0683594 -0.00195312 -0.136719 -0.00195312 -0.205078c2.19531 -8.22168 6.18652 -23.1719 6.18652 -27.5742c0 -10.5303 -7.83398 -19.0615 -30.4014 -37.5039
c-20.7959 -16.9922 -35.8555 -22.8213 -81.2393 -22.8213c-24.5693 0 -44.373 3.01855 -67.5029 19.209c-28.5117 19.958 -32.3457 34.6562 -32.3457 47.7451c0 2.26074 0 2.26074 4.47754 19.3203l27.7871 39.3398
c0.393555 -0.151367 0.787109 -0.303711 1.18164 -0.455078zM434.759 412.104c-0.0488281 0.0429688 -0.0957031 0.0810547 -0.138672 0.114258zM384.377 424.101c0.154297 -0.171875 0.264648 -0.291992 0.324219 -0.353516zM568.182 502.859
c0.886719 1.52539 12.0898 20.4561 21.2354 18.9336c2.69141 -1.67383 4.84473 -5.25586 4.93457 -5.44238c4.43945 -9.20508 -1.12207 -64.8066 -1.17773 -74.1475c-1.59961 -5.31738 -0.897461 -14.4043 -0.537109 -16.6309c0 -11.9941 1.95508 -32.835 2.19922 -34.583
c-2.17578 -4.00977 3.34668 -20.4922 1.9834 -32.5254c-0.351562 -3.10547 -10.7607 -27.7285 -10.7607 -27.7285c-0.955078 -1.49609 0.136719 0.367188 -1.32324 -0.740234c1.95215 -1.25098 -1.42676 -6.45117 0.283203 -14.5859
c0.625 -2.96777 2.23828 -2.75879 2.24805 -5.19629c0.000976563 -0.166992 -0.148438 -8.58398 -12.8516 -10.6406c-24.1484 -3.90723 -83.1895 -5.3623 -83.9023 -5.80762c-10.6387 2.34668 -28.5664 13.5039 -30.3184 19.5732l0.0205078 1.62012
c-1.6543 4.16211 -19.6592 29.7217 -19.6592 33.1885c0 13.1641 -31.3447 53.6475 -52.3633 71.2275c-4.5957 3.84668 -9.85449 14.8086 -9.9541 14.958c0.216797 6.37207 9.45312 14.1943 18.7256 12.0732c3.89844 -0.889648 6.93457 -4.89648 10.2051 -6.48047
c0.332031 -0.451172 33.874 -39.1025 42.4111 -36.6465c0.513672 -0.0898438 0.513672 -0.0898438 4.83398 -0.953125c1.7207 1.86816 1.7207 1.86816 -2.82422 18.0645c0.505859 0.982422 -5.3877 68.21 -5.65625 68.8467
c0.610352 4.60645 0.123047 20.0713 0.551758 25.8926c0 0.204102 2.52051 14.2861 11.0918 17.1748c9.86914 -0.558594 12.8066 -8.52637 15.9844 -39.8682l6.24023 11.7002c6.56836 18.459 3.66113 20.6064 8.25488 31.7051
c2.33301 5.63867 3.88379 7.27344 9.22949 9.31641c4.59668 -0.1875 4.79199 -0.443359 5.87109 -1.35352c0.0654297 -0.230469 8.10156 -15.5303 9.94043 -21.8418l-0.525391 -3.36621l1.3252 0.0478516c0.0244141 -0.130859 2.04883 -11.9854 1.88672 -13.2148
c0.214844 -0.0361328 0.561523 0.0302734 0.483398 -0.230469c3.89355 0.216797 5.32129 -20.8242 7.99414 -19.6621c4.68066 2.0332 0.761719 9.17773 3.69727 33.1826c0.765625 6.22461 12.3711 26.3926 18.2822 21.8486
c8.33984 -9.31836 13.0186 -32.0547 12.7305 -47.2314c1.78223 -0.0205078 2.17871 -5.83496 2.33984 -7.2002c3.22852 -27.3877 4.98438 19.7764 6.87012 16.7236zM451.76 528.478c-0.00390625 -0.0351562 -0.00390625 -0.00683594 0 0zM586.858 529.493l-0.724609 -4.2041
l2.41602 0.670898zM501.872 544.704l0.28418 -0.0322266c-0.0732422 0.0117188 -0.168945 0.0166016 -0.28418 0.0322266zM554.837 524.385c-0.0244141 0.0400391 0 0.00195312 0 0zM442.989 341.68c-0.0429688 0.0332031 -0.00195312 0.0166016 0 0zM470.441 304.636z
M561.974 538.399l0.0507812 -0.0986328c-0.0107422 0.0234375 -0.0273438 0.0566406 -0.0507812 0.0986328zM485.441 548.603c-0.0117188 -0.0078125 -0.0234375 -0.0175781 0 0zM433.576 427.945c-0.0146484 0.0146484 -0.0410156 0.0419922 0 0zM391.751 455.855
l0.117188 -0.0253906c-0.0234375 0.00390625 -0.117188 0.0253906 -0.117188 0.0253906zM384.407 409.277c0.00683594 -0.00488281 0.0136719 -0.0185547 0 0zM440.2 421.014c-33.6299 35.1885 -49.9941 45.7861 -70.873 22.5938
c-7.19727 -7.99316 2.98145 -20.5889 3.20898 -20.791c2.45703 -2.59766 -11.4326 10.3438 16.3525 -17.4414c1.57715 -1.57715 1.57715 -1.57715 22.6016 -27.707c13.7939 -17.1533 20.9561 -43.9443 31.4648 -55.1074
c0.0566406 -0.12207 -0.692383 0.0615234 4.32812 -12.7861c-5.57324 -5.80176 0.929688 -15.7715 5.00781 -17.042c18.8193 -13.3984 118.28 -4.85938 131.502 0.110352c5.53223 0.0761719 12.2002 6.25781 14.8721 11.6475
c3.70801 7.47754 -2.49414 13.1846 -0.216797 24.6211c-2.12988 4.1377 6.07617 12.7139 6.96582 18.0547c3.8418 4.83594 3.53516 11.6055 1.51758 34.207c0.408203 0.810547 -5.13965 47.7324 -0.155273 90.7275c0.0615234 0.535156 3.67285 49.1113 -6.38574 53.4658
c-19.625 6.92676 -20.1865 6.34766 -32.5547 -6.39258c-4.73438 20.0791 -4.73438 20.0791 -15.0059 27.3936c-12.7607 9.08594 -24.4443 -5.35059 -32.6729 -15.5176c-6.0127 26.6602 -14.1592 16.2578 -18.0049 22.5664c-6.51855 10.668 -24.6748 -12 -27.7227 -17.8926
c-28.8799 15.957 -35.8643 -9.33203 -35.9443 -9.69531c0.0683594 -0.798828 -8.78223 -14.5352 -0.0898438 -80.2178c-0.0214844 -0.248047 1.27734 0.0820312 1.80469 -24.7969zM448.813 295.425l-3.63281 0.731445c0.762695 0.25 2.23828 0.482422 3.63281 -0.731445z
M373.258 421.997c-0.189453 0.288086 0 0 0 0zM599.26 332.214c-0.133789 -3.33594 2.53223 -3.87012 6.07324 -3.53125c-3.35352 -3.20312 -6.08301 -1.12598 -6.88477 0.428711c0.189453 0.947266 0.189453 0.947266 0.811523 3.10254zM444.903 310.402zM575.881 286.625z
M499.544 394.695c0 -5.7002 6 -10.2002 13.1992 -10.2002c7.2002 0 13.2002 4.5 13.2002 10.2002s-6 10.2002 -13.2002 10.2002c-7.19922 0 -13.1992 -4.5 -13.1992 -10.2002z" />
  </g>

</svg>
