<?xml version="1.0" standalone="no"?>
<!DOCTYPE svg PUBLIC "-//W3C//DTD SVG 1.1//EN" "http://www.w3.org/Graphics/SVG/1.1/DTD/svg11.dtd" >
<svg xmlns="http://www.w3.org/2000/svg" xmlns:xlink="http://www.w3.org/1999/xlink" version="1.1" viewBox="-10 0 965 1000">
  <g transform="matrix(1 0 0 -1 0 800)">
   <path fill="currentColor"
d="M78.6553 719.694h55.5146l17.1611 52.2256l17.1602 -52.2256h55.5156l-44.8672 -32.2959l17.1611 -52.2246l-44.9697 32.2959l-44.9707 -32.2959l17.1611 52.2246zM794.331 609.142c0 -96.6865 78.0879 -230.199 109.375 -248.775l11.1992 -6.64941
c-16.9434 -0.478516 1.18945 0.900391 -34.5742 -3.5752l-1.0752 1.36426c-22.0068 27.9238 -104.004 167.01 -116.903 264.233c-0.657227 4.95117 0.0224609 9.79688 0.582031 18.2783c-1.38379 0.708984 -2.88672 1.4873 -4.52246 2.34082
c-0.0283203 -1.83984 -0.322266 -3.81641 -0.0449219 -5.88867c33.3789 -249.661 107.546 -273.742 107.546 -273.742s6.91211 -4.29004 10.2793 -6.58594h-32.8613c-44.1455 16.1279 -111.697 208.17 -111.697 279.331c0 8.73535 0.302734 15.3135 0.785156 20.6846
c-60.6641 32.3369 -123.179 64.7012 -226.885 64.7012c-23.0527 0 -45.5234 -2.04883 -73.3945 -6.17773c-32.3232 -4.78906 -32.3232 -4.78906 -70.6152 -21.2002c-18.916 -8.10645 -50.2139 -47.4062 -58.166 -66.7188
c-7.02734 -17.0664 -9.0791 -30.2676 -9.0791 -45.8906c0 -22.332 3.62891 -44.376 3.62891 -77.1553c0 -8.99219 1.14648 -13.8564 1.14648 -20.1924c0 -4.57031 -0.613281 -9.64551 -2.73242 -16.6025c-19.9492 -65.4795 -40.3174 -87.0479 -63.832 -110.183
c-6.25977 -6.16016 -27.0508 -26.6172 -27.0508 -37.7881c0 -4.45605 0.882812 -6.9082 38.3447 -19.4531c55.9199 -18.7266 60.0254 -24.4102 60.0254 -90.9766c0 -43.0117 -4.74121 -62.7734 -4.74121 -104.492c0 -5.5 0.0820312 -11.3867 0.267578 -17.7666
c0.50293 -17.292 16.4512 -45.3398 23.8975 -57.5352c1.19629 -0.303711 1.95996 -1.18164 1.95996 -1.18164c1.1543 -0.666992 2.48438 -1.60059 4.13477 -2.74414c16.0508 -11.1162 22.0049 -13.1846 40.8428 -13.1846c24.0361 0 22.3457 4.21484 79.0615 4.21484
c0.316406 0 6.94531 -0.00390625 7.01562 -0.00390625c14.7988 0 25.668 0.226562 52.1025 3.80078c20.2021 2.73242 38.8271 4.61523 56.5088 6.4043c120.938 12.2334 143.711 24.1475 222.178 80.1953c2.23438 1.5957 5.14355 3.85352 8.45703 6.42773
c12.6104 9.7959 33.0303 26.8994 48.1416 26.8994c8.16699 0 13.834 -4.95996 13.834 -14.165c0 -15.4473 -17.4082 -42.8486 -33.0938 -42.8486c-1.16406 0 -1.56543 0.129883 -3.01758 0.129883c-22.6426 0 -44.3604 -36.5264 -79.4766 -51.29
c-52.8857 -22.2344 -80.2979 -27.1279 -117.459 -33.71c-17.2549 -3.05664 -36.6504 -6.49316 -61.8809 -12.2393c-34.7246 -7.90918 -51.6299 -8.61133 -86.7539 -8.61133c-0.251953 0 -22.7891 0.03125 -25.0811 0.03125
c-11.3115 0 -32.6182 -0.123047 -32.9473 -0.123047c-40.7773 0 -82.5049 2.86621 -120.91 24.8125c-26.0957 14.9121 -27.9092 36.1035 -30.0449 61.0586c-0.477539 5.59082 -0.976562 11.3994 -1.75781 17.3906c-1.96484 15.7158 -2.63672 29.7119 -2.63672 42.8916
c0 28.6572 3.1748 53.4248 3.1748 84.1699c0 46.4277 -4.59863 49 -29.7539 58.8145c-27.3184 10.6582 -57.2148 13.2568 -70.834 26.876c-4.33008 4.33008 -6.66504 9.68945 -6.66504 16.1094c0 4.7959 1.30371 10.1846 4.05176 16.1768
c36.4951 79.5967 68.6367 70.0742 91.3711 139.761c5.20312 15.9443 6.93652 32.2529 6.93652 48.6797c0 32.5635 -6.77832 65.1611 -6.77832 95.8125c0 47.6494 17.2412 68.3838 35.0508 86.1934c66.2422 66.2412 143.674 66.3555 238.901 66.3555h0.988281
c82.8154 0 132.135 -23.3467 188.021 -49.8477c43.5547 -20.6533 21.8506 -15.7109 32.4561 -16.8408c11.3984 -1.2168 39 -13 47.5039 -30.4053c4.31641 -8.83496 -4.12305 -21.668 -4.50391 -29.5947c-0.257812 -5.36523 2 -14.3428 2 -20zM432.604 129.312
c-1.49707 -7.70898 -7.21777 -12.1035 -13.3682 -12.4766c-13.1045 -0.796875 -24.8301 13.9697 -12.46 26.1807c1.54102 1.52051 3.43359 3.04395 5.90332 3.81445c2.02148 1.61133 11.1348 12.0762 26.4844 30.0967c-18.4658 12.3516 -19.2207 17.4082 -19.4033 20.4434
c-0.430664 7.06348 7.39941 16.0488 14.8643 16.5029c5.27148 0.319336 10.0918 -3.67676 9.99609 -12.1465c0.0957031 -1.60254 4.6875 -8.77148 8.14062 -6.84082c130.311 144.431 130.311 144.431 130.739 144.829c0.272461 0.25293 23.5107 20.6689 30.8311 21.1123
c3.47266 0.212891 6.20508 -2.45508 6.39258 -5.53809c0.162109 -2.67871 -0.913086 -4.89258 -12.4531 -27.6035l-0.15625 -0.176758c-107.447 -122.662 -133.141 -151.994 -133.057 -153.369c0.0322266 -0.525391 0.322266 -1.68945 2.97363 -4.10938
c5.17285 -4.71973 7.73438 -0.770508 13.3418 -3.20801c4.66699 -2.02734 8.66699 -9.40723 1.5459 -17.9678c-1.42285 -1.70898 -5.75391 -6.52441 -12.1104 -6.59375c-1.84082 -0.0195312 -6.89062 0.0664062 -21.5771 16.8809
c-8.83008 -10.7012 -11.8564 -14.2393 -20.792 -22.6152c-4.69238 -4.39648 -5.47754 -5.3584 -5.83594 -7.21484zM422.877 137.981c-4.63184 -4.62109 -8.66504 -2.09668 -8.44922 -5.64746c0.104492 -1.70215 1.55859 -3.34277 3.38086 -3.23145
c3.37598 0.205078 1.20117 3.21973 5.06836 8.87891zM481.163 155.104c-0.0498047 0.0078125 -0.232422 0.133789 -0.28125 0.139648c0.103516 -0.0576172 0.197266 -0.104492 0.28125 -0.139648zM453.53 182.051c0.607422 -0.990234 1.66992 -3.38965 -0.0908203 -6.69727
c-2.87793 -5.41406 -19.7822 -22.2764 -28.1514 -34.3887c4.44336 4.82129 11.5986 10.0693 21.4658 22.3213c7.4502 9.25195 9.2041 11.4287 12.3936 11.6221c1.22949 0.0761719 2.28125 -0.263672 3.25391 -0.884766c-0.0722656 1.88965 0.313477 3.93457 1.52539 5.83301
c2.4668 3.86426 4.06055 6.32422 82.7998 96.1641c0.512695 0.580078 41.9209 47.3496 50.2676 58.7607c-12.0264 -10.4707 -28.6162 -29.0947 -73.7051 -80.0068c-26.3018 -29.6924 -35.4727 -39.8789 -52.2939 -58.4561
c-6.31445 -6.97559 -9.54883 -10.6758 -11.8496 -12.167c-1.17969 -0.764648 -3.09863 -1.74609 -5.61523 -2.10059zM432.439 198.293c-0.0292969 -0.046875 -0.0537109 -0.0908203 -0.0761719 -0.128906c-0.00292969 0.0117188 0.0791016 0.117188 0.0761719 0.128906z
M676.014 155.894c7.63477 -1.84473 11.7646 -7.75781 11.8594 -13.9199c0.202148 -13.1289 -15.082 -24.1719 -26.7188 -11.2617c-1.44824 1.60742 -2.88574 3.56738 -3.54199 6.07031c-1.52051 2.09375 -11.5586 11.6699 -28.8672 27.8223
c-13.1768 -17.8887 -18.2617 -18.4131 -21.3008 -18.46c-7.07812 -0.108398 -15.6992 8.12012 -15.8125 15.5977c-0.0820312 5.28027 4.12891 9.91699 12.5869 9.43359c1.60547 0.0263672 8.97363 4.28613 7.20117 7.8252
c-138.378 136.719 -138.378 136.719 -138.756 137.165c-0.241211 0.28418 -19.583 24.4229 -19.6963 31.7549c-0.0527344 3.48047 2.7334 6.08789 5.82422 6.13477c2.68164 0.0410156 4.84375 -1.13086 27.0098 -13.6904l1.66992 -0.164062
c117.667 -112.893 145.807 -139.888 147.184 -139.866c0.525391 0.0078125 0.202148 0.243164 2.73926 2.7832c4.95117 4.9541 1.12012 7.69336 3.80957 13.1836c2.2373 4.57031 9.79102 8.23242 18.0195 0.729492c1.64355 -1.49707 6.25781 -6.04395 6.03809 -12.3955
c-0.0634766 -1.83984 -0.37793 -6.88184 -17.8418 -20.7891c10.292 -9.30762 13.6875 -12.4902 21.6504 -21.7969c4.18066 -4.88672 5.10645 -5.71289 6.94336 -6.15625zM666.914 146.569c4.40527 -4.83691 1.7002 -8.75098 5.25684 -8.69727
c1.70508 0.0273438 3.41016 1.40625 3.38281 3.23242c-0.0527344 3.38184 -3.16406 1.3457 -8.63965 5.46484zM652.447 205.57c-0.00878906 -0.046875 -0.143555 -0.225586 -0.152344 -0.272461c0.0615234 0.0996094 0.114258 0.191406 0.152344 0.272461zM624.276 179.188
c1.01855 0.5625 3.46191 1.51367 6.6875 -0.395508c5.27734 -3.12012 21.3574 -20.7715 33.0791 -29.6807c-4.61621 4.65625 -9.53418 12.0439 -21.3271 22.4561c-8.9043 7.86035 -11 9.71191 -11.0488 12.9082c-0.0205078 1.23047 0.367188 2.26465 1.03125 3.20801
c-1.89062 0.0146484 -3.91699 0.492188 -5.75684 1.79004c-3.74902 2.6377 -6.13477 4.3418 -92.3154 87.0703c-0.555664 0.539062 -45.4023 44.0225 -56.4238 52.8779c9.91602 -12.4893 27.7695 -29.9033 76.5859 -77.2559
c28.4717 -27.6182 38.2305 -37.2422 56.0273 -54.8848c6.68066 -6.62695 10.2314 -10.0254 11.6172 -12.3896c0.710938 -1.21387 1.60547 -3.1748 1.84375 -5.7041zM607.096 158.854c0.046875 -0.03125 0.0888672 -0.0595703 0.12793 -0.0820312
c-0.0117188 -0.00195313 -0.116211 0.0839844 -0.12793 0.0820312z" />
  </g>

</svg>
