<?xml version="1.0" standalone="no"?>
<!DOCTYPE svg PUBLIC "-//W3C//DTD SVG 1.1//EN" "http://www.w3.org/Graphics/SVG/1.1/DTD/svg11.dtd" >
<svg xmlns="http://www.w3.org/2000/svg" xmlns:xlink="http://www.w3.org/1999/xlink" version="1.1" viewBox="-10 0 1018 1000">
  <g transform="matrix(1 0 0 -1 0 800)">
   <path fill="currentColor"
d="M213.251 -120zM108.354 -40.4785h55.5146l17.1611 52.2256l17.1602 -52.2256h55.5156l-44.8672 -32.2959l17.1611 -52.2246l-44.9697 32.2959l-44.9707 -32.2959l17.1611 52.2246zM595.962 557.721v0v-7.5c-0.53418 -9.30566 -8.14551 -10.3818 -11.6367 -10.3818
c-6.35352 0 -17.2764 -4.4707 -21.8574 -9.0459c-13.5273 -13.5273 -15.8398 -41.1006 -17.1172 -56.3271c13.7822 -2.33594 35.8115 -6.07031 51.4258 -21.6855c39.6445 -39.6445 16.5547 -94.2148 -3.77441 -114.544
c-15.2285 -15.2285 -35.7676 -15.9072 -38.8926 -15.9199c-9.03125 0 -15.1719 0.00390625 -40.5088 0.824219c-62.1699 0 -92.9639 79.999 -48.0049 124.958c17.4229 17.4229 37.9365 21.9336 51.332 24.8789c0.760742 19.1553 2.16309 54.5029 25.4941 77.834
c16.6943 16.6953 53.54 25.543 53.54 6.90918zM572.119 357.293c-0.107422 -0.106445 -0.214844 -0.210938 -0.321289 -0.314453l-10.4473 10.7637l0.255859 0.25zM472.502 396v0c0 -10.9922 6.39648 -26.1357 13.9502 -33.6904
c5.77148 -5.77051 17.3691 -10.79 26.4375 -10.79c28.9209 0 37.2812 -0.636719 38.9766 -0.859375c8.19922 -1.20898 17.958 4.33691 20.373 6.75195c8.19238 8.19238 33.5898 46.1875 4.33398 75.4424c-9.76855 9.76855 -34.8096 13.4639 -41.2842 13.4639
c-16.9746 0 -62.7871 -9.6543 -62.7871 -50.3184zM416.693 -54.7217l2.67871 38.249c52.9492 -4.37305 88.7324 -2.52832 123.412 2.26074c28.7979 3.80273 74.1846 23.874 95.0654 44.7539c53.0059 53.0059 44.9551 119.842 35.9336 193.649
c-4.5127 36.9199 -7.6582 62.6475 -6.44727 103.766c1.85645 51.8467 32.3662 111.741 44.8223 126.144c28.3506 32.7812 85.2158 66.6934 128.896 75.7979c33.8799 6.87988 84.3193 13.5234 147.849 12.7461l0.755859 -37.4795
c-68.7695 1.47559 -127.053 -9.15625 -139.934 -11.7295c-34.918 -7.11523 -83.7754 -35.1465 -107.975 -62.4102c-9.78711 -11.0283 -35.2217 -62.9062 -36.9199 -105.018c-0.9375 -38.0771 2.18945 -63.4111 6.35059 -97.0576
c9.79199 -79.1738 19.1875 -159.211 -46.7588 -225.156c-26.3662 -26.3662 -79.582 -50.4297 -115.729 -55.3965c-8.04199 -1.2666 -37.7002 -5.34082 -71.085 -5.34082c-23.3125 0 -31.3174 2.22168 -60.916 2.22168zM92.042 69.498l2.67969 38.251
c52.9482 -4.37305 88.7324 -2.5293 123.412 2.26074c28.7969 3.80176 74.1846 23.874 95.0654 44.7539c53.0049 53.0049 44.9551 119.84 35.9326 193.647c-4.51172 36.918 -7.65723 62.6514 -6.44629 103.767c1.85645 51.8467 32.3662 111.741 44.8223 126.144
c28.3525 32.7812 85.2168 66.6934 128.896 75.7979c33.8799 6.87891 84.3184 13.5234 147.848 12.7461l0.756836 -37.4795c-68.7852 1.47363 -127.05 -9.15527 -139.934 -11.7305c-34.918 -7.11426 -83.7764 -35.1465 -107.974 -62.4092
c-9.78809 -11.0283 -35.2227 -62.9062 -36.9199 -105.017c-0.9375 -38.0771 2.18945 -63.4111 6.35059 -97.0576c9.79199 -79.1738 19.1875 -159.212 -46.7598 -225.158c-26.3662 -26.3652 -79.583 -50.4287 -115.729 -55.3955
c-8.04102 -1.2666 -37.7002 -5.3418 -71.084 -5.3418c-23.3135 0 -31.3174 2.22168 -60.917 2.22168z" />
  </g>

</svg>
