<?xml version="1.0" standalone="no"?>
<!DOCTYPE svg PUBLIC "-//W3C//DTD SVG 1.1//EN" "http://www.w3.org/Graphics/SVG/1.1/DTD/svg11.dtd" >
<svg xmlns="http://www.w3.org/2000/svg" xmlns:xlink="http://www.w3.org/1999/xlink" version="1.1" viewBox="-10 0 1013 1000">
  <g transform="matrix(1 0 0 -1 0 800)">
   <path fill="currentColor"
d="M866.002 -54.002v28.999h-736.999v-28.999h736.999zM489.025 663.28c-158.736 0 -295.1 -128.821 -295.1 -295.463c0 -159.688 134.996 -294.686 294.919 -294.686c12.4651 0 25.0789 0.82033 37.7887 2.51245
c0.0920846 0.0129905 0.185903 0.0242469 0.281753 0.0334723c26.6418 2.78455 43.8259 27.3383 43.8259 52.0062c0 5.4427 -0.679179 22.8104 -16.1784 37.2799c-46.5436 43.3251 -84.338 130.65 -84.338 194.463c0 80.5645 50.7586 169.484 98.5288 208.212
c6.97808 5.66224 17.9343 17.7682 17.9343 37.9712c0 23.3926 -15.5545 46.8192 -40.066 52.0168c-19.391 3.82077 -38.6538 5.65407 -57.5958 5.65407zM218.966 365.037c0 143.732 114.501 261.833 252.04 271.236c0 0.0624092 -0.00294073 0.124818 -0.00294073 0.187228
c6.59927 0.199108 13.1968 0.39999 19.7926 0.602544c0 -0.064807 0.00519495 -0.129614 0.00519495 -0.194421c16.1441 -0.131308 32.5257 -1.77195 48.9988 -5.04812c9.99684 -1.97733 19.7609 -11.8718 19.7609 -23.624c0 -8.23943 -4.57402 -15.9723 -8.57129 -19.1849
c-59.5111 -48.8161 -108.061 -150.437 -108.061 -228.406c0 -70.2865 40.8108 -165.669 92.2024 -214.419c1.70428 -1.70312 8.36036 -9.03005 8.36036 -19.581c0 -13.8597 -10.9158 -23.7385 -20.3892 -24.835c-10.5793 -1.22453 -21.1256 -1.82351 -31.5946 -1.82351
c-141.844 0 -269.13 109.921 -272.528 262.598c0 0.0186123 -0.00448457 0.075856 -0.00448457 0.246587c-0.00620701 0.749113 -0.00930401 1.49753 -0.00930401 2.24525zM218.976 362.86v-0.00832308s0.000101377 0.00832308 0 0.00832308z" />
  </g>

</svg>
