<?xml version="1.0" standalone="no"?>
<!DOCTYPE svg PUBLIC "-//W3C//DTD SVG 1.1//EN" "http://www.w3.org/Graphics/SVG/1.1/DTD/svg11.dtd" >
<svg xmlns="http://www.w3.org/2000/svg" xmlns:xlink="http://www.w3.org/1999/xlink" version="1.1" viewBox="-10 0 961 1000">
  <g transform="matrix(1 0 0 -1 0 800)">
   <path fill="currentColor"
d="M30.3242 741.553h55.5146l17.1611 52.2256l17.1602 -52.2256h55.5156l-44.8672 -32.2959l17.1611 -52.2246l-44.9697 32.2959l-44.9707 -32.2959l17.1611 52.2246zM271 608l-12 60c128.725 89.7881 355.203 55.3633 442.457 48.5605
c0 -0.0107422 0.000976562 -0.0214844 0.000976562 -0.0322266c27.4463 0.582031 75.1855 -1.32129 107.268 -33.4033c40.1396 -40.1396 38.6152 -108.841 37.5254 -169.365c-0.395508 -21.9258 -0.433594 -33.2402 -0.22168 -41.9463
c26.3789 -43.8281 72.168 -89.959 89.3252 -129.607c6.95117 -16.0635 5.49219 -24.7637 2.64551 -40.2051l-12 -14l-79.501 -63.5771v-212.431c1.93945 -31.0869 1.82422 -79.2412 -27.416 -108.48c-26.0322 -26.0322 -182.507 -12.0195 -220.584 -13.0049
l-2.90137 0.0126953c-103.732 -7.2998 -296.108 50.6025 -326.603 92.1719c-18.5059 25.2275 -31.4014 41.2529 -57.9951 55.3086v70.0371c25.8174 -16.2627 49.624 -17.8066 70.1904 -60.6357c44.2188 -92.082 349.455 -105.734 451.309 -108.438l-0.499023 -0.962891
c50 12 34.1514 4.48145 42.5352 13.5361c19.1768 20.7119 3.97852 41.9688 5.50781 57.9648h-0.541992v2.14941c-0.253906 0.990234 -0.500977 1.94141 -0.738281 2.84863h0.738281v207.174v3.4873v1.33887h1.58203l104 88h1.13281
c4.9834 45.8955 -62.8379 92.1289 -94.2158 139.501l-3 4l-1 1c-2.02051 3.99219 0.0439453 4.02539 -2.08398 11.5605c-0.0371094 0.130859 -0.189453 0.24707 -0.174805 0.367188l0.258789 2.07227l0.0644531 1.49902
c0.00976562 0.226562 0.150391 3.89551 0.242188 6.24414c3.11426 79.1523 5.19727 173.389 -83.8154 173.771c-136.35 16.7461 -373.536 9.53418 -431.49 -46.5137zM557.895 328.608c0 1.08984 -1.09473 4.07715 -2.03516 5.29883
c-1.30176 0.96582 -4.43066 2.08008 -5.62402 2.08008c-4.31738 0 -7.40723 -2.99609 -10.2051 -5.79395c-1.20508 -1.20508 -2.79004 -1.81055 -4.37305 -1.81055c-2.55371 0 -3.96191 1.39941 -5.10938 2.5459c-0.237305 0.238281 -4.30664 3.80859 -6.69922 4.59766
c-1.09375 0.360352 -1.80664 0.457031 -2.6875 0.457031c-1.13965 0 -4.13965 -1.03125 -5.55859 -2.03711c-0.605469 -0.955078 -0.625977 -1.02539 -2.06738 -5.98242c0.119141 -1.84473 0.990234 -5.61035 5.14844 -9.61914l16.9863 -16.3867l16.8662 16.2344
c1.8252 1.82715 5.3584 5.41797 5.3584 10.416zM513.84 363.85c0.21875 -3.88672 0.0859375 -9.01855 -0.253906 -14.8701c5.53027 1.95703 13.3057 2.44727 21.9824 -3.63086c5.9082 4.19922 10.0889 4.93359 14.6162 5.02148c6.21973 0 12.918 -3.30176 15.7637 -6.26465
c6.11133 -6.3584 11.5977 -21.5605 -3.44727 -36.2529c-17.7871 -17.3682 -19.9062 -19.3145 -20.5117 -19.8447c-3.58203 -3.43945 -9.18262 -3.44922 -12.7969 0.0527344l-19.2139 18.6055c-0.65625 -7.61621 -1.17676 -14.6895 -1.32812 -20.3916
c-0.0615234 -2.30859 -0.234375 -12.6689 1.64062 -13.6719c0.214844 -0.0742188 0.385742 -0.193359 0.345703 -0.521484c6.0918 -65.4863 67.9238 -126.821 71.3633 -128.081c0.113281 -0.0410156 -0.212891 0.00878906 -0.212891 0.00878906l-0.324219 -0.167969
l-0.172852 -0.394531l1.02637 -0.572266l-11.583 -7.72363c-1.29004 1.40527 -1.91016 2.08203 -4.86621 5.28223c-23.4941 25.4355 -49.0908 53.1787 -69.0039 120.726c-5.50098 -31.9551 -25.2148 -66.9941 -42.9893 -89.5674
c-11.4629 -14.5586 -15.3457 -24.8154 -25.8447 -36.4795l-13.6992 10.8457c8.07812 10.4727 13.2588 17.5732 20.4199 27.4551c4.03418 5.56934 7.75391 10.7031 11.7285 15.9229c48.627 63.876 50.0811 148.051 49.7178 190.824l14.1426 -0.311523
c1.25586 -0.0273438 3.38965 -0.633789 3.3125 -4.46094c-0.0224609 -1.1084 -0.121094 -6.0625 0.188477 -11.5371v0zM620.056 455.204c-43.2568 0 -78.3604 35.1016 -78.3604 78.3594c0 19.9365 10.6387 42.3105 25.5693 57.2412
c0.856445 0.856445 1.72754 1.68848 2.61426 2.49512h-172.838v18.4697c76.0225 -0.00585938 152.124 1.71289 228.076 -0.00878906c40.5479 -0.918945 73.2988 -37.585 73.2988 -78.1973c0 -43.2559 -35.1016 -78.3594 -78.3604 -78.3594zM619.874 473.812h0.0078125
c33.0527 0 59.8818 26.8379 59.8818 59.8896c0 33.0557 -26.832 59.8896 -59.8896 59.8896c-33.0547 0 -59.8896 -26.832 -59.8896 -59.8896c0 -32.9756 26.71 -59.7852 59.7031 -59.8896v0h0.186523v0z" />
  </g>

</svg>
