<?xml version="1.0" standalone="no"?>
<!DOCTYPE svg PUBLIC "-//W3C//DTD SVG 1.1//EN" "http://www.w3.org/Graphics/SVG/1.1/DTD/svg11.dtd" >
<svg xmlns="http://www.w3.org/2000/svg" xmlns:xlink="http://www.w3.org/1999/xlink" version="1.1" viewBox="-10 0 1043 1000">
  <g transform="matrix(1 0 0 -1 0 800)">
   <path fill="currentColor"
d="M322.066 609.28c3.4375 -61.0859 -25.5908 -235.091 -8.51367 -244.225c16.7637 -180.238 191.267 -348.641 191.487 -342.145l-29.5674 -19.7109c-66.5254 72.5615 -140.754 144.372 -197.317 340.991c-12.5928 -86.5742 -66.6699 -183.541 -115.259 -245.248
c-29.5654 -37.5459 -42.2402 -67.583 -67.584 -95.7432l-33.793 26.751c38.0166 49.2803 59.3555 81.043 84.4805 114.049c128.286 168.514 133.652 389.767 132.657 506.979c11.9375 -0.263672 23.875 -0.526367 35.8135 -0.790039
c6.7168 -0.144531 6.99023 -6.67188 7.10547 -9.46094c0.0136719 -0.313477 -0.4375 -14.9805 0.490234 -31.4473zM627.867 715.345l-248.835 -280.771l32.6035 -25.9805l211.969 246.287c16.3623 -26.2734 55.9912 -94.8203 51.0986 -86.3682l79.6797 53.1973z
M474.631 178.999h314.487l-0.203069 36.9993l-317.237 1.51493zM474.462 294.997h314.413l1.00889 36.993l-317.29 -1.51288z" />
  </g>

</svg>
