<?xml version="1.0" standalone="no"?>
<!DOCTYPE svg PUBLIC "-//W3C//DTD SVG 1.1//EN" "http://www.w3.org/Graphics/SVG/1.1/DTD/svg11.dtd" >
<svg xmlns="http://www.w3.org/2000/svg" xmlns:xlink="http://www.w3.org/1999/xlink" version="1.1" viewBox="-10 0 1018 1000">
  <g transform="matrix(1 0 0 -1 0 800)">
   <path fill="currentColor"
d="M828.399 483.872c0 9.49878 0.360099 25.4826 0.360099 28.905l-0.318652 61.3747l-8.69455 54.78l-24.0577 41.7601l-29.8355 19.1251l-33.9409 8.02542l-47.9505 1.85133v0.765382l-107.704 8.96128l-161.614 -4.8437l-135.511 -48.0118l4.97421 -24.8711
l90.1513 34.2037l168.519 13.9909l163.859 -8.05849l72.0585 -32.0852l24.6852 -76.5829c-11.2968 -92.7231 -11.5388 -94.7093 -10.6225 -98.1968c0.272553 -1.03738 0.408327 -1.98777 0.495372 -2.92219c0.487753 -0.641757 1.13403 -1.58506 1.4862 -2.05622
l30.4464 -40.7334l38.0432 -60.0682l23.93 -33.502l-96.7113 -80.2498l-3.19974 -219.288c0.962733 -7.56244 2.78458 -22.0112 5.01798 -45.877c-0.12894 -0.269919 -9.65147 -20.9678 -12.8349 -27.02c-1.80565 -3.43278 -3.36365 -6.39475 -8.94453 -11.1259
c-28.726 -6.87192 -37.6748 -9.01268 -53.7943 -9.01268c-3.38415 0 -6.77838 0.14333 -10.1737 0.446144l-127.95 -3.2205l-189.706 31.9736l-119.91 72.0259l-21.8729 31.5454c-0.18608 0.126152 -14.9542 10.3475 -18.5829 12.6523v-31.4635
c5.41685 -3.87145 13.5068 -7.36272 24.4398 -17.2503c7.32645 -6.62591 2.09556 -4.45645 10.6241 -11.9264c1.03002 -0.902171 1.03002 -0.902171 17.2005 -21.8062l70.2643 -41.1391l123.979 -35.7692l40.8353 -3.74581
c52.8258 -4.90757 59.0669 -6.73248 83.0467 -7.42728l68.08 -1.97257l89.7606 0.254271l51.1066 12.4914l15.1376 25.2075l6.27671 34.16l-0.268638 82.9487l0.0291888 84.2282l-0.00582149 87.5189l84.7837 67.8016l7.68593 8.96692l1.11464 7.19504
c0.44913 7.61262 -1.52476 12.8022 -3.31214 18.1783l-23.3304 38.8443l-33.0243 43.448l-34.3179 48.9016c-0.202711 16.1296 -0.202711 16.1296 -0.202711 17.6951zM33.2949 712.521h55.5146l17.1611 52.2256l17.1602 -52.2256h55.5156l-44.8672 -32.2959
l17.1611 -52.2246l-44.9697 32.2959l-44.9707 -32.2959l17.1611 52.2246zM388.861 211.401zM388.618 208.521zM561.704 178.539c0 22.5693 -7.77246 43.1055 -25.708 61.041c-10.1494 10.1494 -20.3984 16.3691 -30 20.1504l-27.25 10.7334
c33.6592 -5.81445 33.6592 -5.81445 38.0791 -7.13379c0.485352 0.166016 1.12109 0.296875 1.75781 0.179688c41.5781 -7.65918 73.126 -26.1758 95.7217 -48.7725c11.7061 -11.707 19.7354 -22.8945 27.208 -35.8408
c-19.4785 -33.8145 -52.7822 -71.9619 -124.661 -84.7705l-15.4521 -2.75293c13.9658 8.57227 21.7539 12.7725 34.9795 26.248c18.3457 18.3457 25.3252 39.2686 25.3252 60.918zM472.881 110.75c-18.9648 0 -35.6289 6.49805 -49.415 20.2842
c-20.042 20.0439 -24.3418 46.9658 -15.501 71.4385l1.02637 2.8418l0.68457 -0.253906c13.8936 20.5078 13.8936 20.5078 14.707 21.6914c21.7158 14.2158 21.7158 14.2158 22.0029 14.252c15.335 6.44922 48.3721 12.3203 76.0518 -15.3604
c13.7617 -13.7617 19.6045 -29.7725 19.6641 -46.8477c0 -11.8643 -2.51172 -30.1562 -19.668 -47.3125c-8.05273 -8.05176 -23.3818 -20.7334 -49.5527 -20.7334zM676.266 178.895c-10.668 18.9336 -62.5664 110.161 -199.266 110.161
c-82.208 0 -133.768 -32.8721 -164.375 -63.4795c-13.0352 -13.0361 -24.2822 -27.3145 -35.3252 -46.6807c9.76758 -17.123 20.6455 -31.8789 34.3252 -45.5586c50.7656 -50.7656 113.184 -64.3369 165.375 -64.3369c25.0967 0 102.404 1.59863 165.012 64.2051
c17.9062 17.9062 28.624 35.6641 34.2539 45.6895zM437.185 257.942c-8.17969 -3.07617 -20.9883 -11.1807 -25.9707 -16.1631c-6.65625 -6.65625 -6.65625 -6.65625 -8.17871 -9.19629c-1.27637 -2.12988 -1.55273 -2.39746 -3.21875 -3.90039
c-2.3418 -2.11523 -3.12891 -3.07227 -4.00781 -5.3125c-0.688477 -1.75586 -4.81836 -9.2334 -5.97559 -12.4502c0.154297 -0.753906 0.0458984 -1.50293 -0.15625 -2.0332c-9.42285 -24.6699 -9.88184 -61.7344 19.6377 -91.2539
c7.66602 -7.66602 15.6572 -13.0215 23.3301 -16.7861l21.0947 -10.3486l-23.0225 4.7168c-42.4443 8.69629 -71.7988 28.292 -91.4443 47.9385c-11.6572 11.6572 -19.7598 22.8545 -27.2275 35.7412c14.0156 24.291 45.2637 70.5723 123.541 84.8057zM508 412
l-228.615 0.761719v15.0859h204.977v85.6602h-204.977v15.0859l226.583 -1.27051z" />
  </g>

</svg>
