<?xml version="1.0" standalone="no"?>
<!DOCTYPE svg PUBLIC "-//W3C//DTD SVG 1.1//EN" "http://www.w3.org/Graphics/SVG/1.1/DTD/svg11.dtd" >
<svg xmlns="http://www.w3.org/2000/svg" xmlns:xlink="http://www.w3.org/1999/xlink" version="1.1" viewBox="-10 0 1121 1000">
  <g transform="matrix(1 0 0 -1 0 800)">
   <path fill="currentColor"
d="M583.496 28.6621c0 -0.526294 -0.0877606 -3.04252 -0.0888672 -3.07324c0 -13.0203 -6.7188 -28.6776 -23.9938 -45.304l-72.4188 -69.7c-73.214 70.6241 -73.214 70.6241 -73.5721 70.9822c-5.52056 5.52056 -21.6857 21.6857 -22.6515 46.1787
c5.3209 18.2974 7.9196 27.2337 12.0459 30.4581c7.80163 6.09653 20.4095 10.8287 29.3496 10.8287c18.6639 0 35.6134 -14.06 44.3189 -22.7655c4.51129 -4.51129 5.87108 -5.96004 10.4672 -5.96004c1.28724 0 4.50904 0 8.09113 3.58209
c10.2773 10.2773 24.8398 25.1601 47.0056 25.1601c12.3772 0 27.5421 -8.35978 30.5487 -11.9702c6.01336 -7.22115 10.8981 -19.5141 10.8981 -28.417zM431.666 98.1069c-20.6178 0 -41.8645 -11.1177 -50.8618 -20.115
c-8.0834 -8.0834 -19.4034 -30.268 -19.4034 -49.2068c0 -1.09528 0.0323745 -2.3826 0.0864104 -3.5333l0.00774715 -0.164976v-0.165173c0.109665 -34.1712 27.39 -61.3872 32.6937 -65.9315l77.0252 -74.5902c4.11904 -3.98807 9.55796 -6.42104 15.6093 -6.42104
c8.24866 0 12.8467 4.02964 15.6621 6.49695c0.821836 0.720239 58.3619 55.847 78.5181 76.0033c30.0957 30.0957 31.4961 55.5227 31.4961 68.0491v0.166016c0 19.0184 -9.87088 39.6781 -20.429 50.2362c-8.26392 8.26392 -31.2035 19.4536 -50.1418 19.482
c-23.8219 -0.477851 -33.7521 -5.99234 -55.2977 -21.997c-14.1458 10.4978 -29.8826 21.6914 -54.965 21.6914zM247.815 248.845h596.675l1.35444 325.88l65.0351 -38.4738l-0.572505 34.3539l-297.643 172.738l0.611494 0.25755
c-9.90846 5.13776 -9.90846 5.13776 -15.48 8.3713l-0.137219 -0.272818l-14.6894 7.61625l-407.494 -167.996v-32.1277l72.7922 30.6614zM814.007 279.286h-535.738l-1.48254 322.579l305.593 128.721l234.295 -138.605zM247.815 248.845h596.675l1.35444 325.88
l65.0351 -38.4738l-0.572505 34.3539l-297.643 172.738l0.611494 0.25755c-9.90846 5.13776 -9.90846 5.13776 -15.48 8.3713l-0.137219 -0.272818l-14.6894 7.61625l-407.494 -167.996v-32.1277l72.7922 30.6614zM814.007 279.286h-535.738l-1.48254 322.579
l305.593 128.721l234.295 -138.605zM247.815 248.845h596.675l1.35444 325.88l65.0351 -38.4738l-0.572505 34.3539l-297.643 172.738l0.611494 0.25755c-9.90846 5.13776 -9.90846 5.13776 -15.48 8.3713l-0.137219 -0.272818l-14.6894 7.61625l-407.494 -167.996v-32.1277
l72.7922 30.6614zM814.007 279.286h-535.738l-1.48254 322.579l305.593 128.721l234.295 -138.605z" />
  </g>

</svg>
