<?xml version="1.0" standalone="no"?>
<!DOCTYPE svg PUBLIC "-//W3C//DTD SVG 1.1//EN" "http://www.w3.org/Graphics/SVG/1.1/DTD/svg11.dtd" >
<svg xmlns="http://www.w3.org/2000/svg" xmlns:xlink="http://www.w3.org/1999/xlink" version="1.1" viewBox="-10 0 746 1000">
  <g transform="matrix(1 0 0 -1 0 800)">
   <path fill="currentColor"
d="M349.838 -143.501h36.6631v51.8556l223.527 223.528l-26.0752 25.7087l-197.452 -197.452v156.215l135.978 135.977l-25.9764 25.9764l-110.001 -110.003v208.192h-36.6631v-204.692l-108.619 108.62l-26.0702 -25.7058l134.689 -134.863v-159.718l-197.452 197.452
l-26.0752 -25.7087l223.527 -223.528v-51.8547zM495.846 768.698l-132.008 -126.27l-126.721 126l-25.0716 -23.9798l125.404 -130.449l-127.273 -129.431l27.0647 -29.5953l129.69 132.002l142.316 -131.008l27.88 23.2239l-143.025 131.468l131.231 132.535z" />
  </g>

</svg>
