<?xml version="1.0" standalone="no"?>
<!DOCTYPE svg PUBLIC "-//W3C//DTD SVG 1.1//EN" "http://www.w3.org/Graphics/SVG/1.1/DTD/svg11.dtd" >
<svg xmlns="http://www.w3.org/2000/svg" xmlns:xlink="http://www.w3.org/1999/xlink" version="1.1" viewBox="-10 0 905 1000">
  <g transform="matrix(1 0 0 -1 0 800)">
   <path fill="currentColor"
d="M385.352 613.953l-56.1172 58.375l27.2734 27.6504l56.3203 -55.999l57.5967 55.0928l31.3799 -24.9824l-58.8457 -59.4287l62.9854 -53.7344l-30.8408 -26.0205l-62.0117 51.084l-59.0918 -55.9902l-24.8965 30.9062zM658.339 127.109zM180.863 422.299zM91.6953 271.45
zM439.118 74.2197zM438.492 55.9014zM173.04 124.017zM326.075 79.7744zM743.508 305.558zM91.6953 271.45zM743.508 305.558zM557.724 492.97c-50.2656 9.58105 -91.7617 -11.2461 -103.221 -25.8887c-0.773438 -0.988281 -1.60742 -2.05371 -3.97266 -2.84473
c-12.7627 -4.27734 -40.5908 -10.0879 -74.6768 3.98633c-44.6982 49.999 -154.61 15.8008 -182.301 -43.7002c-0.681641 -1.46582 -1.3623 -2.92969 -2.04395 -4.39453h-4.03906l-88.9531 -111.067h-1.79395c-0.40332 -1.57812 -0.40332 -1.57812 -0.40332 -2.74121
c-0.543945 -0.520508 -0.543945 -0.520508 -11.6289 -38.7236c-0.162109 0 -0.324219 0.00585938 -0.486328 0.00585938c-0.0966797 -0.68457 -0.213867 -1.36816 -0.354492 -2.07715h0.424805l-0.0644531 -8.08887c0 -29.2295 16.5693 -76.9512 87.8232 -131.104
c80.9004 -61.4912 172.399 -68.3574 249.085 -68.3574c125.727 0 175.497 14.1387 250.325 68.4766c89.9844 65.3389 92.125 84.6904 94.457 128.755l-1.43555 0.0205078c-0.163086 0.566406 -12.3389 45.7236 -16.0967 56.6289l-65.3867 102.677
c-16.043 15.3877 -71.0049 68.1016 -125.258 78.4385zM213.136 416.127c17.8555 36.2773 63.3486 57.0166 100.201 57.0166c20.5215 0 32.54 -5.31738 45.1396 -13.2852l-0.107422 -1.22852c0.885742 -0.504883 1.84766 -1.15137 2.7998 -1.9834
c27.8604 -24.3271 85.2227 -23.4473 106.368 -4.0127c4.0166 3.69238 5.4248 5.89355 7.75 12.3369c6.34082 3.97656 26.0674 16.3457 57.7422 16.3457c34.2627 0 50.9492 -14.126 62.8389 -24.3018c9.03516 -7.73438 20.6406 -17.6924 45.8711 -33.0762
c0.750977 -0.225586 1.47168 -0.545898 2.13379 -0.949219l1.36328 0.0498047l75.9512 -110.089v-1.17676c3.9248 -13.5391 14.9854 -54.4414 15.1377 -54.9912c11.1553 -40.957 -8.07324 -63.4922 -87.3584 -123.032
c-61.3408 -46.0586 -106.987 -62.0771 -239.771 -62.0771c-72.0703 0 -131.121 8.27539 -199.432 52.2148c-90.7129 58.3545 -97.2451 100.724 -96.0645 138.589c2.98242 10.873 13.1328 45.6328 13.2646 46.0938l83.4189 108.531zM524.728 200.336
c0 -7.76855 -6.73242 -34.6191 -31.4453 -34.6191c-0.130859 0 -0.262695 0.000976562 -0.393555 0.00292969c-2.4834 -0.046875 -2.4834 -0.046875 -62.6191 -0.046875c-18.4365 0 -36.875 -0.0292969 -55.3262 -0.0878906c-7.5459 0 -16.3223 0.980469 -23.377 8.16211
c-6.73828 6.86133 -10.0811 15.2383 -10.0811 24.6855c0 7.37598 2.93066 17.6953 7.03613 31.5029c16.7246 63.2285 24.3301 91.9785 45.3838 111.325c6.71875 6.17578 19.1816 14.8887 38.5049 14.8887c45.5146 0 62.248 -44.9082 74.5781 -90.5586
c5.75391 -21.9795 11.585 -44.2549 15.0996 -54.6279c2.44922 -7.22559 2.63965 -7.78711 2.63965 -10.627zM488.999 182.513c7.41406 0 9.58887 0.570312 12.5371 3.2793c5.39746 4.96094 5.43555 12.0254 5.43555 12.2275c0 4.64551 -2.40039 13.3105 -7.20215 30.6445
c-15.1367 57.1328 -22.2393 83.9385 -39.7256 100.008c-8.26172 7.59277 -17.2246 10.5986 -28.0859 10.5986c-33.2207 0 -46.5713 -35.6768 -58.2598 -78.4424c-0.154297 -0.585938 -14.832 -55.2373 -15.5205 -58.5488
c-0.238281 -1.40234 -0.356445 -2.7373 -0.356445 -4.01074c0 -5.33984 3.2959 -14.7344 12.0303 -15.4932c1.75195 -0.134766 3.4541 -0.234375 5.17969 -0.301758l113.23 0.0439453c0.245117 -0.00292969 0.491211 -0.00488281 0.737305 -0.00488281z" />
  </g>

</svg>
