<?xml version="1.0" standalone="no"?>
<!DOCTYPE svg PUBLIC "-//W3C//DTD SVG 1.1//EN" "http://www.w3.org/Graphics/SVG/1.1/DTD/svg11.dtd" >
<svg xmlns="http://www.w3.org/2000/svg" xmlns:xlink="http://www.w3.org/1999/xlink" version="1.1" viewBox="-10 0 1240 1000">
  <g transform="matrix(1 0 0 -1 0 800)">
   <path fill="currentColor"
d="M518.381 185.283c-73.1865 0 -132.574 64.4863 -132.574 133.698c0 33.9336 20.707 75.6221 34.7832 90.0098c3.73145 3.89844 5.61133 8.88477 5.61133 13.8643c0 4.96387 -1.86719 9.92285 -5.63281 13.7969c-18.4102 18.4297 -33.3516 54.5137 -33.375 80.3428
c0 1.92578 4.05664 32.7891 7.23535 39.8516c16.4072 37.6836 62.999 68.9727 104.023 69.9561l0.287109 0.00683594l0.286133 -0.00976562c36.0508 -1.27148 81.5484 -28.7954 100.876 -69.0957c2.95996 -6.17188 10.2119 -11.6006 18.4346 -11.6006
c5.63477 0 9.10385 2.29149 11.5332 3.89746c21.8633 14.4531 60.9502 26.248 87.085 26.248c2 0 5.35742 -0.0878906 6.41113 -0.115234c0.0595703 0 0.113281 -0.00292969 0.155273 -0.00292969c8.32422 0.0488281 15.918 6.12305 18.5566 12.79
c18.7793 45.5381 74.1436 82.5391 123.277 82.5391c-0.880859 0.40625 -1.29395 0.666992 -1.29395 0.789062c0 0.0537109 0.0830078 0.0810547 0.245117 0.0810547c4.40137 0 66.8682 -19.8779 88.0752 -41.084c8.02148 -8.02246 31.4219 -33.7666 37.3389 -66.4385
c2.11621 -10.6582 11.3838 -16.1592 18.834 -16.3965c68.6084 -1.8418 124.308 -59.0615 124.308 -127.688c0 -0.936523 -1.14062 -53.4395 -34.6367 -86.9355c-19.9834 -19.9824 -43.9453 -30.459 -45.6875 -31.1465c-18.291 -7.21289 -39.9102 -9.9668 -50.1035 -9.9668
h-0.217773c-15.6826 0.352539 -28.2373 8.18262 -46.0234 8.18262c-8.93262 0 -13.9951 -2.39746 -16.7227 -5.125c-0.329102 -0.358398 -1.74023 -1.95312 -7.25684 -8.21777c3.92578 -9.05762 9.42578 -21.752 9.42578 -38.4219
c0 -24.1582 -14.209 -46.7383 -14.9219 -46.8486c-3.58594 -4.96387 -7.875 -9.83691 -12.5801 -14.542c-13.9082 -13.9092 -31.3262 -26.3779 -45.8857 -32.2686c-34.7998 -14.0771 -64.5752 -14.2715 -66.9736 -14.2715c-24.7783 0 -56.8564 9.39746 -58.7598 10.8936
c-29.7373 12.3418 -65.4141 47.2314 -77.9443 81.6328c-2.21289 5.73438 -8.39453 11.6309 -15.3984 13.0098c-1.69141 0.104492 -3.59277 0.135742 -5.62109 0.135742c-0.180664 0 -10.3203 -1.43652 -15.9932 -8.37402
c-29.1143 -35.5977 -79.0195 -53.1768 -109.18 -53.1768zM743.335 151.722l-0.0888672 0.0390625zM420.405 408.792v0zM356.698 316.566c0 -89.6455 78.6104 -164.892 160.362 -164.892c61.2617 0 108.836 37.8076 116.566 44.4102l8.38672 7.16113
c9.78418 -15.3359 16.1562 -25.3213 31.9688 -41.1338c17.4941 -17.4961 38.876 -32.9736 58.5547 -40.7344c18.2344 -7.11133 47.9639 -12.7012 67.5371 -12.7012c25.1143 0 52.167 5.83594 81.9258 17.3232c26.7754 10.335 60.2754 37.252 75.8027 59.9912
c7.96973 11.6719 16.9463 41.043 16.9463 62.0283c0 1.52344 0 1.52344 -0.602539 15.2207c16.0977 -3.25098 21.9707 -4.43652 28.8271 -4.43652c8.02051 0 38.7705 3.90918 60.7754 13.2871c23.9951 9.76367 54.4443 34.0527 68.9502 54.1143
c16.9434 23.6719 30.3447 65.4121 30.3447 94.5283c0 21.085 -7.26953 52.4668 -16.5371 71.3984c-15.8955 32.4756 -67.3281 77.4766 -122.516 86.2324l-5.8877 0.935547c-4.30469 13.8779 -13.3867 43.1641 -44.7422 74.5195
c-17.8066 17.8076 -56.6729 49.333 -108.678 49.333c-67.1348 0 -124.547 -49.1475 -146.368 -90.668l-2.51562 -4.78613c-21.1885 -1.28125 -53.1885 -6.09473 -84.9551 -21.7471l-7.54883 -3.71973c-7.72363 11.5479 -11.7109 17.5078 -21.6143 27.4102
c-26.5557 26.5566 -66.207 46.666 -101.984 47.8301c-0.4375 0.0078125 -0.878906 0.0117188 -1.32324 0.0117188c-43.3516 0 -109.316 -35.3662 -131.43 -91.8623c-5.24512 -14.0996 -8.78418 -48.5762 -9.25293 -51.1729c0 -27.7344 13.0225 -65.3701 30.6924 -89.3945
l4.05859 -5.51855l-3.90527 -5.62891c-18.2725 -26.3379 -31.8389 -67.4805 -31.8389 -97.3398zM743.129 496.631c1.00977 -17.9473 -6.19336 -65.1152 -4.18457 -76.5342c0.616211 -0.701172 1.25195 -1.78516 1.38281 -3.18848
c4.18555 -45.0059 41.0205 -89.3574 55.2695 -103.605c2.88477 -2.88477 2.88477 -2.88477 11.2471 -9.35352c-0.982422 -0.641602 -0.982422 -0.641602 -15.9941 -10.6514c-2.27734 -1.52051 -5.35938 -1.16602 -7.22754 0.87207
c-24.0635 26.1758 -42.96 46.7324 -59.6875 94.4766c-7.55762 -23.5303 -21.3467 -46.6367 -34.084 -62.8125c-8.90039 -11.3037 -15.9033 -25.1748 -22.5625 -31.835c-2.0293 -2.0293 -5.23535 -2.17188 -7.43066 -0.433594
c-11.3154 8.95703 -11.3154 8.95703 -11.5469 9.18945c-2.01367 2.0127 -2.1709 5.18164 -0.479492 7.37598c6.3584 8.24219 27.3457 36.9268 27.626 37.2959c40.627 53.3662 42.6016 124.295 42.2764 162.485c-0.0273438 3.16016 2.5625 5.71582 5.72363 5.64551
c14.9609 -0.333008 14.9609 -0.333008 17.123 -2.49512c1.62109 -1.62207 2.44824 -4.02832 2.39355 -6.77441c-0.0185547 -0.924805 -0.100586 -5.11328 0.155273 -9.65723zM30.0195 770.494v0v0v0zM284.027 770.494v0v0v0zM286 44v0v0v0zM286 44l-1.97266 726.494
h-254.008v-32.4951h219.501v-659.506h-213.771l1.55078 -34.4932h248.7zM37.2998 44v0v0v0zM35.749 78.4932v0v0v0zM30.0195 737.999v0v0v0z" />
  </g>

</svg>
