<?xml version="1.0" standalone="no"?>
<!DOCTYPE svg PUBLIC "-//W3C//DTD SVG 1.1//EN" "http://www.w3.org/Graphics/SVG/1.1/DTD/svg11.dtd" >
<svg xmlns="http://www.w3.org/2000/svg" xmlns:xlink="http://www.w3.org/1999/xlink" version="1.1" viewBox="-10 0 1033 1000">
  <g transform="matrix(1 0 0 -1 0 800)">
   <path fill="currentColor"
d="M484.99 178.432c0 -9.47001 -7.5274 -41.3173 -34.6092 -41.3173c-0.140091 0 -0.280383 0.000881518 -0.420871 0.0026444l-7.8108 -0.157452h-0.118973c-20.0079 0.0693158 -40.016 0.102981 -60.0238 0.102981c-20.0079 0 -40.0155 -0.0346579 -60.0223 -0.103974
h-0.0874474c-7.58326 0.237072 -17.2995 0.540826 -25.6521 9.79513c-7.39734 8.19594 -11.0604 18.2162 -11.0604 29.4825c0 2.51495 0.182534 5.09198 0.546809 7.72467c0.830437 6.58141 7.02029 29.2906 7.10043 29.5841
c18.1494 74.6637 26.4325 108.739 49.3727 131.679c7.21718 7.21718 20.8515 17.7226 42.1247 17.7226c49.8008 0 68.041 -53.4843 81.3921 -107.304c17.0094 -70.6829 18.7418 -72.324 18.8882 -73.0644c0.257753 -1.26752 0.38101 -2.66063 0.38101 -4.14717z
M445.745 157.898c8.00707 0 10.2169 0.687686 13.2625 3.73331c5.73681 5.73681 5.76076 13.9456 5.76076 14.0979c0 5.41986 -2.59993 15.6378 -7.80067 36.077c-16.4226 67.443 -24.1076 99.0035 -42.9838 117.88c-8.86299 8.86299 -18.4521 12.3802 -30.1438 12.3802
c-35.5891 0 -50.023 -41.5404 -62.7654 -92.2761c-0.167902 -0.69116 -16.0859 -65.1892 -16.8354 -69.105c-0.253687 -1.63487 -0.380001 -3.18634 -0.380001 -4.66434c0 -7.49 4.31206 -17.0185 12.6327 -17.8137c1.8925 -0.158481 3.71684 -0.274314 5.58205 -0.355053
l122.864 0.0517119c0.268717 -0.0036881 0.537932 -0.00553425 0.807533 -0.00553425zM714.02 726.494v0v0v0zM968.027 726.494v0v0v0zM970 0v0v0v0zM970 0l-1.97266 726.494h-254.008v-32.4951h219.501v-659.506h-213.771l1.55078 -34.4932h248.7zM721.3 0v0v0v0z
M719.749 34.4932v0v0v0zM714.02 693.999v0v0v0zM645.841 84.208zM152.4 416.176zM60.252 246.532zM419.293 24.7305zM144.316 80.7305zM302.467 30.9766zM733.856 284.889zM60.252 246.532zM733.856 284.889zM746.004 296.449
c6.3623 -19.2715 10.46 -40.1279 15.8115 -60.1074l3.73047 -0.0605469c-2.83691 -59.8633 -3.90527 -82.4053 -101.112 -159.217c-72.3311 -57.1562 -124.716 -90.8623 -245.087 -92.8008c-82.7988 -1.33301 -188.819 16.3232 -281.265 92.7803
c-36.4277 30.127 -94.252 88.4346 -93.7148 154.669h-2.5918c2.83203 10.6172 2.83203 10.6172 3.10156 18.7695l1.89648 -0.03125l8.11719 30.4395h-3.56348c1.85059 2.5127 3.70117 5.02539 5.55078 7.53809v8.55371h6.2959l91.9277 124.904h2.91602
c31.8066 74.374 153.655 110.202 200.981 52.5918c6.71973 -3.01953 37.1963 -15.1807 69.2871 -3.48047c16.5303 22.125 62.9756 43.4756 115.241 32.6367c50.5508 -10.4814 101.545 -57.5078 123.917 -80.4033h1.07324
c0.788086 -1.16113 1.32812 -2.49414 2.31934 -3.51074l7.0293 -7.33496l67.123 -114.698c1.00195 0.0849609 1.79297 0.0214844 1.63477 -0.705078zM91.1299 235.73c-1.11328 -38.1699 3.1084 -83.5645 95.8115 -148.457
c78.6641 -55.0645 143.846 -59.0205 233.332 -56.8037c104.263 2.68359 147.769 16.084 210.727 67.5303c83.7227 68.416 97.5947 89.8574 87.5264 130.047l-13.3125 53.1475l-0.489258 -0.87207c0.0283203 3.21582 -2.12305 7.30566 -2.09473 10.5234l-74.7051 117.828
c-2.00488 -0.078125 -0.404297 1.74219 -2.40918 1.66406c-46.2412 30.4873 -51.1719 43.6953 -68.4453 53.8828c-26.5986 15.6846 -67.4932 12.5273 -93.5273 -5.24121c-12.96 -39.041 -93.3721 -45.2979 -130.424 -10.0908
c-3.45312 3.28125 -6.00098 1.45508 -5.6748 5.48047c-39.6064 27.2549 -113.794 -0.203125 -134.758 -49.5781l-2.54199 -5.98828l-4.2373 1.63086l-81.6982 -115.662zM484.99 178.432c0 -9.47001 -7.5274 -41.3173 -34.6092 -41.3173
c-0.140091 0 -0.280383 0.000881518 -0.420871 0.0026444l-7.8108 -0.157452h-0.118973c-20.0079 0.0693158 -40.016 0.102981 -60.0238 0.102981c-20.0079 0 -40.0155 -0.0346579 -60.0223 -0.103974h-0.0874474c-7.58326 0.237072 -17.2995 0.540826 -25.6521 9.79513
c-7.39734 8.19594 -11.0604 18.2162 -11.0604 29.4825c0 2.51495 0.182534 5.09198 0.546809 7.72467c0.830437 6.58141 7.02029 29.2906 7.10043 29.5841c18.1494 74.6637 26.4325 108.739 49.3727 131.679c7.21718 7.21718 20.8515 17.7226 42.1247 17.7226
c49.8008 0 68.041 -53.4843 81.3921 -107.304c17.0094 -70.6829 18.7418 -72.324 18.8882 -73.0644c0.257753 -1.26752 0.38101 -2.66063 0.38101 -4.14717zM445.745 157.898c8.00707 0 10.2169 0.687686 13.2625 3.73331c5.73681 5.73681 5.76076 13.9456 5.76076 14.0979
c0 5.41986 -2.59993 15.6378 -7.80067 36.077c-16.4226 67.443 -24.1076 99.0035 -42.9838 117.88c-8.86299 8.86299 -18.4521 12.3802 -30.1438 12.3802c-35.5891 0 -50.023 -41.5404 -62.7654 -92.2761c-0.167902 -0.69116 -16.0859 -65.1892 -16.8354 -69.105
c-0.253687 -1.63487 -0.380001 -3.18634 -0.380001 -4.66434c0 -7.49 4.31206 -17.0185 12.6327 -17.8137c1.8925 -0.158481 3.71684 -0.274314 5.58205 -0.355053l122.864 0.0517119c0.268717 -0.0036881 0.537932 -0.00553425 0.807533 -0.00553425zM714.02 726.494v0v0v0
zM968.027 726.494v0v0v0zM970 0v0v0v0zM970 0l-1.97266 726.494h-254.008v-32.4951h219.501v-659.506h-213.771l1.55078 -34.4932h248.7zM721.3 0v0v0v0zM719.749 34.4932v0v0v0zM714.02 693.999v0v0v0zM484.99 178.432c0 -9.47001 -7.5274 -41.3173 -34.6092 -41.3173
c-0.140091 0 -0.280383 0.000881518 -0.420871 0.0026444l-7.8108 -0.157452h-0.118973c-20.0079 0.0693158 -40.016 0.102981 -60.0238 0.102981c-20.0079 0 -40.0155 -0.0346579 -60.0223 -0.103974h-0.0874474c-7.58326 0.237072 -17.2995 0.540826 -25.6521 9.79513
c-7.39734 8.19594 -11.0604 18.2162 -11.0604 29.4825c0 2.51495 0.182534 5.09198 0.546809 7.72467c0.830437 6.58141 7.02029 29.2906 7.10043 29.5841c18.1494 74.6637 26.4325 108.739 49.3727 131.679c7.21718 7.21718 20.8515 17.7226 42.1247 17.7226
c49.8008 0 68.041 -53.4843 81.3921 -107.304c17.0094 -70.6829 18.7418 -72.324 18.8882 -73.0644c0.257753 -1.26752 0.38101 -2.66063 0.38101 -4.14717zM445.745 157.898c8.00707 0 10.2169 0.687686 13.2625 3.73331c5.73681 5.73681 5.76076 13.9456 5.76076 14.0979
c0 5.41986 -2.59993 15.6378 -7.80067 36.077c-16.4226 67.443 -24.1076 99.0035 -42.9838 117.88c-8.86299 8.86299 -18.4521 12.3802 -30.1438 12.3802c-35.5891 0 -50.023 -41.5404 -62.7654 -92.2761c-0.167902 -0.69116 -16.0859 -65.1892 -16.8354 -69.105
c-0.253687 -1.63487 -0.380001 -3.18634 -0.380001 -4.66434c0 -7.49 4.31206 -17.0185 12.6327 -17.8137c1.8925 -0.158481 3.71684 -0.274314 5.58205 -0.355053l122.864 0.0517119c0.268717 -0.0036881 0.537932 -0.00553425 0.807533 -0.00553425z" />
  </g>

</svg>
