<?xml version="1.0" standalone="no"?>
<!DOCTYPE svg PUBLIC "-//W3C//DTD SVG 1.1//EN" "http://www.w3.org/Graphics/SVG/1.1/DTD/svg11.dtd" >
<svg xmlns="http://www.w3.org/2000/svg" xmlns:xlink="http://www.w3.org/1999/xlink" version="1.1" viewBox="-10 0 1043 1000">
  <g transform="matrix(1 0 0 -1 0 800)">
   <path fill="currentColor"
d="M405.501 27c0 78.3257 85.6738 101.196 124.283 101.196c25.916 0 63.1013 -13.1611 72.7262 -19.5159c17.1371 -11.3147 37.3809 -41.0046 37.3809 -69.4083c0 -52.5278 -34.8762 -88.247 -36.0788 -89.4514c-2.82896 -2.82731 -19.3036 -15.2724 -40.0764 -15.2724
c-1.90287 0 -3.8418 0.10443 -5.80962 0.33025c-14.6777 1.68569 -28.757 1.73301 -66.1735 1.73301c-0.556899 0 -1.11897 -1.04828e-05 -1.68629 -2.62024e-05h-2.92804c-16.3843 0 -41.6588 10.5421 -53.4469 22.329c-15.4778 15.4778 -28.1903 47.6881 -28.1903 68.0601
zM597.598 -38.2795c3.35361 0 3.35361 0 12.8467 -10.0251l-10.8488 -10.3587l-12.6659 13.1351c7.675 7.24861 7.675 7.24861 10.6679 7.24861zM486.765 -99.9439c0.222988 0 12.3661 0.435673 22.2945 0.435673c15.9215 0 52.7625 -1.95441 53.2958 -1.95441
c0.660253 0 1.28064 0.00857516 1.86053 0.0267693h0.217647c23.5576 0.0601658 50.9516 11.5801 65.716 26.3445c17.1199 17.1199 46.0034 63.8717 46.0034 109.633c0 45.0182 -21.6485 75.3227 -38.6596 92.3338c-5.07321 5.07321 -10.4385 9.50424 -16.0241 13.0995
c-11.0458 7.11056 -36.8249 20.2978 -81.1713 24.7834c0.946952 24.3073 3.37939 86.7455 34.1534 117.52c5.40327 5.39944 14.5646 10.7406 24.4285 14.4424c8.99142 3.37523 13.4342 4.4107 25.5889 4.4107c2.77165 0 5.9443 -0.0538431 9.66334 -0.146064v36.4364
c-12.0404 0.335566 -12.0404 0.335566 -13.165 0.335566c-28.1574 0 -57.1623 -14.5839 -72.249 -29.6706c-37.3769 -37.3769 -43.8834 -98.7335 -44.8303 -139.23l-0.144275 -6.17031c-18.9589 -3.25438 -62.9564 -10.8067 -97.8862 -45.7365
c-13.8609 -13.8609 -37.2895 -43.9132 -37.2895 -88.6854c0 -31.7751 15.8122 -71.4293 39.437 -95.0541c21.0697 -21.0697 56.1703 -33.1541 78.7602 -33.1541zM631.365 571.161zM531.364 685.692c-39.6246 0 -78.1127 -26.0416 -96.0365 -59.9745l-5.92136 -11.2102
l-155.541 84.963v-240.688l155.28 85.7588c9.66862 -18.7145 13.5987 -26.3216 26.1051 -38.8279c20.17 -20.17 47.9359 -33.3615 76.2274 -33.3615c39.2692 0 77.5876 25.7502 95.6362 59.1875l5.95035 11.0238l156.153 -84.681l-0.37207 242.65l-155.534 -85.9747
c-9.68867 18.2978 -13.5455 25.5816 -25.6786 37.7148c-20.0593 20.0593 -47.9196 33.4192 -76.2675 33.4192zM531.301 504.493c-40.5309 0.66864 -73.4378 34.1056 -73.4378 74.6593c0 41.2142 33.4601 74.668 74.668 74.668c41.1601 0 74.5708 -33.3682 74.6678 -74.5012
c-2.8001e-05 0 -0.000661783 -0.152599 -0.000661783 -0.152599c-0.670399 -41.2965 -34.608 -74.5808 -75.672 -74.6742c0 1.7164e-05 -0.225286 0.000684321 -0.225286 0.000684321zM531.526 504.492c0 0 0.000286621 6.56e-07 0 0zM607.199 579.319
c0 0 -8.82e-07 0.000376856 0 0zM305.53 512.415v133.963l121.783 -66.2196zM757.199 646.586v-135.477l-123.3 67.0448z" />
  </g>

</svg>
