<?xml version="1.0" standalone="no"?>
<!DOCTYPE svg PUBLIC "-//W3C//DTD SVG 1.1//EN" "http://www.w3.org/Graphics/SVG/1.1/DTD/svg11.dtd" >
<svg xmlns="http://www.w3.org/2000/svg" xmlns:xlink="http://www.w3.org/1999/xlink" version="1.1" viewBox="-10 0 895 1000">
  <g transform="matrix(1 0 0 -1 0 800)">
   <path fill="currentColor"
d="M358.989 676.601c0 30.0107 26.8691 55.3994 62.0107 55.3994c35.1387 0 62.0127 -25.3887 62.0127 -55.3994c0 -30.0059 -26.874 -55.3975 -62.0127 -55.3975c-35.1416 0 -62.0107 25.3916 -62.0107 55.3975zM358.989 493.397
c0 30.0107 26.8691 55.3994 62.0107 55.3994c35.1387 0 62.0127 -25.3887 62.0127 -55.3994c0 -30.0059 -26.874 -55.3975 -62.0127 -55.3975c-35.1416 0 -62.0107 25.3916 -62.0107 55.3975zM350.989 321.397c0 30.0107 26.8691 55.3994 62.0107 55.3994
c35.1387 0 62.0127 -25.3887 62.0127 -55.3994c0 -30.0059 -26.874 -55.3975 -62.0127 -55.3975c-35.1416 0 -62.0107 25.3916 -62.0107 55.3975zM358.989 139.397c0 30.0107 26.8691 55.3994 62.0107 55.3994c35.1387 0 62.0127 -25.3887 62.0127 -55.3994
c0 -30.0059 -26.874 -55.3975 -62.0127 -55.3975c-35.1416 0 -62.0107 25.3916 -62.0107 55.3975zM605.375 116.098zM575.921 -71.5005h-281.018l-25.2552 133.986c-4.89774 0.0103846 4.86688 -0.000270199 -0.000312273 -0.000270199l-2.82715 15.0029
c3.92969 0 -3.95013 0.00669385 -0.000389031 -0.000129155l-78.0321 413.982l-40.8473 -0.203475l112.094 -604.706h351.129v0h6.31129l-7.38771 -6.20961l1.07642 6.20961l104.849 604.849l-44.6981 0.954775l-70.3141 -413.365c1.0498 0.00878906 1.00019 -1.99914 1 -2
c0 0 -3.77637 -19.8447 -3.75488 -16.5469c-1.9375 -0.0175781 0.0566446 0.334819 0 0zM187.632 497.602l7.40571 -6.10092l-6.24986 -0.0311328zM261 89zM608 107zM604 99l-5.75488 -38.5469c-14.1387 -0.108398 -28.4403 -0.155807 -42.867 -0.155807
c-93.4634 0 -192.262 1.99012 -285.73 2.1883l-6.64777 38.5144c94.4062 -0.163086 203.063 -0.705078 297.402 -0.705078c15.291 0 28.6484 -1.41895 43.5977 -1.29492zM671.314 492.365l-6.4755 0.13832l7.55422 6.23795zM716.012 491.41l1.4907 8.59953l7.22635 -8.78573
zM260.034 -113.439l1.13507 -6.12333l-7.37224 6.12333h6.23716zM147.94 491.267l-8.97121 -0.0446889l7.3346 8.87363z" />
  </g>

</svg>
