<?xml version="1.0" standalone="no"?>
<!DOCTYPE svg PUBLIC "-//W3C//DTD SVG 1.1//EN" "http://www.w3.org/Graphics/SVG/1.1/DTD/svg11.dtd" >
<svg xmlns="http://www.w3.org/2000/svg" xmlns:xlink="http://www.w3.org/1999/xlink" version="1.1" viewBox="-10 0 896 1000">
  <g transform="matrix(1 0 0 -1 0 800)">
   <path fill="currentColor"
d="M102.627 427.167c0 7.98537 3.98026 18.6073 7.7124 22.3404c5.77039 5.76834 13.2206 3.78888 19.0687 6.9978l0.751884 0.0857562c0.307975 -0.086228 29.5553 -8.27753 30.7414 -8.82054c0.363275 -0.23011 35.0878 -22.2359 36.1991 -23.2125
c62.6309 -72.2676 62.6309 -72.2676 71.2928 -81.1725c9.9517 -10.2308 24.13 -24.7773 27.1613 -28.9838c6.00448 -8.33169 11.537 -12.9412 22.9731 -12.9412c0.235042 0 18.3984 0.564746 22.9423 5.10867c2.14132 2.14132 4.71874 6.46183 10.0525 15.5289
c2.17488 3.69714 2.60439 15.9314 2.60439 24.819c0 5.54321 -0.167077 9.78463 -0.181985 9.84115c-5.43273 20.6536 -10.8815 41.2911 -16.3041 61.9548c-4.52926 33.2161 -0.634211 36.8924 -9.43892 99.6446l-0.00932831 0.110368
c-0.0283224 0.966869 -1.38612 66.1952 -2.50168 96.696l-2.27051 60.8242l0.0129456 0.20279c1.90624 11.4531 6.13707 30.2232 14.1199 38.206c3.32991 3.32991 7.18561 4.62081 11.1628 4.62081c13.655 0 28.742 -15.2168 28.8982 -15.373
c0.276245 -0.276258 22.7379 -30.4141 23.5192 -31.1953c2.7287 -2.7287 6.26645 -4.02047 9.78087 -4.02047c5.70798 0 11.4019 3.41249 13.4083 9.70547c4.9988 15.6783 20.1181 63.0605 20.5774 64.0589c5.63025 9.41014 17.7472 23.9924 38.7729 23.9924
c17.2295 0 33.0723 -10.3361 37.1619 -22.2312l26.3203 -76.5684c2.16075 -6.28569 7.75052 -9.37179 13.2568 -9.37179c5.21187 0 10.5308 2.76546 12.9295 8.61154c13.9911 34.1029 13.9822 34.1608 14.2183 35.4023c1.73162 9.10664 7.76601 27.9109 28.075 27.9109
c11.8677 0 26.8408 -7.10337 34.4522 -22.0065c0.361189 -0.57293 34.5605 -54.2445 37.0266 -56.7106c2.68753 -2.68753 6.28723 -4.08189 9.91245 -4.08189c3.30452 0 6.63025 1.15857 9.30565 3.55235c1.84931 0.957227 8.61881 1.26691 12.0623 4.71037
c2.98239 2.98239 2.77102 6.57208 8.21129 12.0124c4.88209 4.88209 11.8031 8.2664 19.2588 8.2664c27.4739 0 36.5162 -42.9792 36.6183 -43.5389c1.78498 -15.5307 2.5229 -33.7932 2.5229 -53.5792c0 -42.7598 -3.44636 -92.6347 -7.21868 -137.428l16.7003 -261.443
c-6.74083 -13.9296 -32.8647 -65.9924 -33.1247 -66.6902c-2.65463 -7.68818 -8.88161 -25.7224 -8.88161 -43.707c0 -14.0255 2.43737 -33.4675 9.57867 -63.4203l-0.97185 -1.23292l-45.868 -0.0254996l-201.797 -8.37961c0 0.00106466 -66.7515 1.19141 -66.7515 1.19141
c-5.07956 0.0930323 -62.8987 3.07968 -71.3963 38.6872c-0.653987 2.74031 -12.1409 23.9421 -12.2833 24.1728c-1.17307 1.8514 -34.7115 52.8261 -35.012 53.3894l-25.7361 59.6606c-0.372709 0.862709 -0.375341 0.921474 -33.6816 53.2626
c-0.0385694 0.0562533 -37.1984 50.4583 -37.1984 50.4583c-0.0340654 0.043622 -51.0943 61.8246 -51.0943 61.8246c-0.760501 0.912342 -42.6956 38.1429 -43.1298 38.6132c-11.3789 15.4132 -22.9451 30.6391 -34.2067 46.1696
c-0.208675 1.07899 -0.305047 2.25771 -0.305047 3.50026zM761.09 -23.3673c16.3939 0 29.0041 13.4237 29.0041 28.9657c0 8.20303 -10.1758 40.3007 -10.1758 63.6449c0 8.6439 1.04104 12.0027 3.92967 21.3224c2.67259 8.62492 3.44275 11.7764 3.48617 11.8925
l32.0957 64.1914c2.03611 4.07139 3.05418 8.5235 3.05418 12.9756c0 0.940983 0 0.940983 -16.716 260.039v0.14919c3.74895 44.6117 7.30695 94.0697 7.30695 137.902c0 0.615273 -0.283832 48.7082 -3.47132 61.4293c-4.66841 18.5385 -20.5243 64.4018 -63.1419 64.4018
c-5.59897 0 -28.5768 -1.31502 -44.546 -21.9552l-1.63289 0.0702391l-26.79 41.6055c-11.4663 21.7043 -35.1498 34.5628 -58.0071 34.5628c-10.9527 0 -41.9037 -3.5378 -53.3985 -42.1637l-1.90359 -0.0397253l-12.876 37.459
c-8.29531 24.1306 -35.272 41.0842 -63.7989 41.0842c-14.2665 0 -43.2266 -4.57249 -63.0271 -38.2501c-2.04578 -3.47805 -2.04578 -3.47805 -13.988 -41.3693l-1.75639 -0.29453c-5.31814 7.1464 -5.31814 7.1464 -7.46309 9.29135
c-7.90672 7.90672 -27.6614 23.628 -48.9993 23.628c-48.1145 0 -53.0224 -69.9904 -53.0224 -72.1056c0 -32.9575 0.227628 33.4117 4.31301 -129.077c0.381943 -15.1911 0.69203 -27.5188 0.795325 -30.3348c0.026574 -0.669403 4.87125 -30.5308 6.58138 -66.669
c0.479804 -10.1392 0.901527 -19.0733 3.02495 -34.5334c0.497222 -3.62569 16.2352 -61.7514 16.3709 -62.9907c-0.323216 -6.09468 -0.341909 -12.4939 -0.854519 -18.3992c-0.777364 -1.06271 -1.12672 -2.55342 -2.30792 -3.2123
c-1.38748 -0.225961 -2.49156 -0.362749 -3.31039 -0.436728l-0.89595 0.402698c-1.89083 2.56248 -3.1861 3.85848 -6.33289 7.01059c-26.04 26.084 -91.2652 100.258 -95.9709 107.796c-1.00796 1.61468 -1.00796 1.61468 -41.2713 27.1152
c-5.02242 3.1811 -38.7563 12.8812 -45.503 12.8812c-3.72963 0 -3.72963 0 -12.081 -2.59238c-11.5757 -2.13066 -19.1236 -4.58048 -27.2657 -12.7226c-9.27484 -9.27484 -16.0811 -26.59 -16.0811 -41.8817c0 -7.70213 1.72672 -14.8909 5.73444 -20.2804
c35.6203 -47.9032 35.6203 -47.9032 36.6458 -48.9287c4.8402 -4.8402 41.8095 -37.2669 42.5783 -38.062l49.5713 -59.9482l36.1316 -48.9487c10.6245 -16.7097 21.2731 -33.3953 31.8824 -50.1202l25.458 -59.0156c1.01304 -2.34894 1.01304 -2.34894 36.389 -56.0149
c3.22079 -6.15017 6.4891 -12.2528 9.68022 -18.4326c14.8317 -54.7421 87.351 -58.0425 97.6038 -58.2348c0 0 67.17 -1.20362 67.2296 -1.20116l202.709 8.39481h45.0134zM262.172 584.885c-23.3115 0 -40.7713 15.7197 -40.7713 45.115
c0 13.7955 4.52991 24.3592 11.8159 31.6453c8.17162 8.17162 19.7142 12.1544 31.9827 12.1544c10.4597 0 39.8006 -3.58419 39.8006 -43.7996c0 -14.4229 -4.71133 -25.6225 -12.3439 -33.255c-7.84371 -7.84371 -18.6997 -11.86 -30.4841 -11.86z" />
  </g>

</svg>
