<?xml version="1.0" standalone="no"?>
<!DOCTYPE svg PUBLIC "-//W3C//DTD SVG 1.1//EN" "http://www.w3.org/Graphics/SVG/1.1/DTD/svg11.dtd" >
<svg xmlns="http://www.w3.org/2000/svg" xmlns:xlink="http://www.w3.org/1999/xlink" version="1.1" viewBox="-10 0 1087 1000">
  <g transform="matrix(1 0 0 -1 0 800)">
   <path fill="currentColor"
d="M517.955 392.353c-78.1104 0 -141.745 -63.46 -141.745 -141.777c0 -78.4736 63.6875 -141.834 141.776 -141.834c69.3076 0 129.013 52.834 140.004 119.295c0.569336 3.44922 1.13965 6.89844 1.70898 10.3477l312.354 2.88477l-0.249023 26.9443l-312.354 -2.8877
c-3.98535 21.6172 -9.78516 53.0811 -41.4824 84.7783c-26.0586 26.0586 -61.8184 42.249 -100.013 42.249zM518.51 135.784c-60.0439 0 -115.106 47.7598 -115.106 114.783c0 63.4746 51.5957 114.843 114.797 114.843c51.0596 0 96.9902 -36.2051 110.742 -84.5439
l4.48926 -15.7783l-64.0254 -0.595703c-5.52051 11.7363 -7.30176 15.5234 -14.1172 22.3398c-9.76953 9.76855 -23.2432 16.0771 -37.084 16.0771c-28.666 0 -52.3027 -23.3145 -52.3027 -52.3496c0 -31.3662 26.0371 -52.3691 52.293 -52.3691
c14.957 0 27.7041 6.68066 36.8457 15.8223c7.37207 7.37207 9.53613 12.2002 14.6172 23.54l64.0225 0.589844c-7.04395 -26.4053 -12.1738 -45.6338 -34.6807 -68.1426c-23.6533 -23.6514 -52.4287 -34.2158 -80.4902 -34.2158zM523.432 93.5859zM367.93 365.869
l-33.9296 170.323l-34.5238 -6.57636l23.2743 -107.702l-242.799 188.391l-20.6955 -29.7056l242.377 -185.391l-105.228 -4.06753l3.44681 -35.6815z" />
  </g>

</svg>
