<?xml version="1.0" standalone="no"?>
<!DOCTYPE svg PUBLIC "-//W3C//DTD SVG 1.1//EN" "http://www.w3.org/Graphics/SVG/1.1/DTD/svg11.dtd" >
<svg xmlns="http://www.w3.org/2000/svg" xmlns:xlink="http://www.w3.org/1999/xlink" version="1.1" viewBox="-10 0 698 1000">
  <g transform="matrix(1 0 0 -1 0 800)">
   <path fill="currentColor"
d="M441.591 162.529c1.19141 -21.1611 -8.86523 -81.4336 -2.9502 -84.5967c5.80762 -62.4316 66.2529 -120.764 66.3301 -118.513l-10.2432 -6.8291c-23.043 25.1348 -48.7549 50.0078 -68.3486 118.113c-4.36035 -29.9863 -24.2334 -62.7227 -39.9229 -84.9492
c-23.4102 -33.1641 -14.6299 -23.4102 -23.4102 -33.1641l-11.7051 9.2666c13.168 17.0703 20.5586 28.0732 29.2637 39.5039c44.4355 58.3721 46.2939 135.011 45.9502 175.61c4.13477 -0.0908203 8.26855 -0.181641 12.4053 -0.273438
c2.3252 -0.0507812 2.41992 -2.3125 2.46094 -3.27637c0.00390625 -0.110352 -0.150391 -5.19043 0.169922 -10.8926zM544.987 -152.064c0.535156 0.0224609 34.4209 0.00390625 34.4307 0.0214844c-10.4365 43.7773 -7.50488 57.874 -3.69727 70.1562
c0.0351562 0.111328 2.98145 10.2949 3.38184 11.0977l24.6162 49.2354c-12.5986 195.299 -12.5986 195.299 -12.5283 196.138c4.14062 49.1357 7.75 106.448 3.52832 143.161c-10.9707 43.5752 -38.1924 34.3789 -44.5508 20.4424
c-2.24805 -4.92578 -4.78027 -5.50586 -11.3154 -7.00195c-5.08008 -4.5459 -13.0713 -3.55078 -16.873 2.1709c-4.76367 7.17578 -26.8008 41.3018 -27.3809 42.4365c-7.96973 15.6094 -38.7139 25.21 -44.5898 -5.68848
c-0.211914 -1.11719 -0.211914 -1.11719 -10.7061 -26.6953c-3.90918 -9.52832 -17.6934 -9.13379 -21.042 0.610352l-19.7402 57.4268c-5.27832 15.3516 -38.2031 27.6104 -55.5986 -1.46289c-0.321289 -0.956055 -2.66992 -8.07617 -15.3623 -47.8857
c-2.75977 -8.6543 -14.2744 -10.6328 -19.7471 -3.2793c-16.2373 21.8184 -16.2373 21.8184 -16.5234 22.1055c-0.106445 0.107422 -18.5449 18.5127 -28.9912 8.06836c-5.71973 -5.72168 -8.9541 -19.6855 -10.3789 -28.248
c0.0410156 -1.2832 0.294922 -8.86328 1.70117 -45.6191c0.837891 -22.8877 1.85645 -71.8018 1.87598 -72.5273c6.69629 -47.7178 3.60059 -49.207 7.08105 -74.7363c0.253906 -0.983398 2.18262 -8.42188 12.2109 -46.377
c0.0966797 -0.371094 1.01367 -21.6211 -1.89258 -26.5615c-7.14746 -12.1504 -7.64453 -12.9941 -12.3604 -14.0732c-18.6592 -4.27637 -24.5645 -0.516602 -30.875 8.23828c-3.24512 4.50391 -25.3193 26.626 -27.5391 29.1865l-46.2598 53.3779
c-1.25195 0.826172 -7.66992 5.03223 -26.9824 17.2666c-1.12988 0.34082 -6.53418 1.95703 -22.8584 6.52734c-4.56348 -2.50586 -10.0049 -0.995117 -14.1318 -5.12109c-2.99414 -2.99512 -6.44922 -13.0264 -5.34961 -18.708l25.5195 -34.3232
c4.91895 -4.60742 31.043 -27.3818 32.3242 -28.9287c38.1377 -46.1201 38.1377 -46.1201 38.3213 -46.3701c27.7158 -37.5488 27.7158 -37.5488 27.9248 -37.876c24.9912 -39.2744 24.9912 -39.2744 25.3438 -40.0918l19.3037 -44.7471
c5.33301 -8.2666 25.9473 -39.3701 26.499 -40.4189c8.68652 -16.5039 8.68652 -16.5039 9.01172 -17.875c6.46289 -27.082 52.2334 -28.4297 52.833 -28.4414l50.0625 -0.892578zM579.42 -174.549h-33.7285c-151.739 -6.30371 -151.739 -6.30371 -152.075 -6.29785
l-50.4238 0.901367c-8.00586 0.149414 -62.6621 2.70703 -73.9121 44.2285l-7.16406 13.6094c-26.2139 39.7646 -25.7686 38.4492 -27.3525 42.125l-19.0947 44.2617l-23.8262 37.4424l-27.0742 36.6797l-37.1777 44.9619
c-31.9395 28.2861 -31.9395 28.2861 -33.3418 30.1729l-26.1006 35.1006c-9.31152 12.5215 -2.80957 36.9561 7.83105 47.5967c6.2373 6.24023 12.123 8.14551 20.8438 9.75098c4.82617 2.15625 10.2549 2.53027 15.291 1.12012
c23.7451 -6.64746 24.2607 -6.2959 28.4355 -8.94141c25.4795 -16.1377 27.4131 -16.7471 31.0625 -20.3965c0.426758 -0.424805 -0.545898 -1.31445 47.3252 -54.5391c24.9424 -27.7295 25.915 -26.8389 29.4961 -31.6943
c0.591797 0.0537109 1.40527 0.15332 2.43066 0.321289l1.2041 2.0498l0.538086 13.4492c-11.999 45.3994 -11.8652 44.1455 -12.2705 47.1094c-3.75 27.2979 -0.452148 27.6865 -7.18945 75.5225c-0.104492 0.737305 -1.45215 59.1504 -2.00391 74.2734
c-1.7998 46.998 -2.23145 45.1455 -1.5293 49.4932c2.19141 13.5752 7.23828 44.8594 33.6699 50.4326c21.9766 4.6377 43.2803 -15.9961 46.2012 -19.9229l3.27344 -4.39648c8.7832 27.8643 8.50098 27.6797 10.5596 31.1797
c27.2031 46.2666 85.0303 31.0322 96.4746 -2.26172l9.65723 -28.0947c13.4736 45.2725 67.6621 38.5303 84.9053 5.89258c0.201172 -0.310547 19.3682 -30.0918 20.0918 -31.2051c18.9111 24.4453 66.8057 28.5684 82.0859 -32.1094
c0.244141 -0.967773 0.421875 -1.94727 0.537109 -2.93555c4.60547 -40.085 0.758789 -97.4082 -3.3916 -146.809l12.4912 -193.618c0.253906 -3.93555 -0.520508 -7.9248 -2.32324 -11.5283l-24.0713 -48.1426c-0.692383 -2.68359 -1.50195 -5.3623 -2.56836 -8.80664
c-2.99805 -9.66797 -6.16113 -15.2383 4.09277 -58.2354c3.37207 -14.1338 -7.3418 -27.7402 -21.8789 -27.7402zM383.369 539.415l-116.681 105.696l18.9072 13.9258l90.4043 -83.0371l161.203 204.191l25.6836 -11.8018z" />
  </g>

</svg>
