<?xml version="1.0" standalone="no"?>
<!DOCTYPE svg PUBLIC "-//W3C//DTD SVG 1.1//EN" "http://www.w3.org/Graphics/SVG/1.1/DTD/svg11.dtd" >
<svg xmlns="http://www.w3.org/2000/svg" xmlns:xlink="http://www.w3.org/1999/xlink" version="1.1" viewBox="-10 0 1128 1000">
  <g transform="matrix(1 0 0 -1 0 800)">
   <path fill="currentColor"
d="M532.989 318.181c-4.12803 0 -17.4861 -19.2354 -39.1162 -19.2354c-22.8711 0 -41.4297 20.1523 -41.4297 41.7812c0 16.8394 12.624 28.7555 12.624 32.4609c0 4.05016 -12.1773 13.9231 -12.1904 29.418c0 20.997 20.0747 33.9636 34.9473 34.3145
c11.2666 -0.397461 25.8955 -8.80957 31.5244 -21.5928c0.924805 -1.92871 3.19043 -3.625 5.76074 -3.625c2.58213 0 15.623 9.41992 30.8174 9.41992c0.625 0 1.6748 -0.0273438 2.05273 -0.0361328c2.60059 0.0146484 4.97363 1.91309 5.79883 3.99707
c5.86816 14.2305 23.1699 25.793 38.5244 25.793c2.73577 -0.527934 34.1209 -7.13721 38.8633 -33.3291c0.662109 -3.33008 3.55762 -5.0498 5.88574 -5.12402c21.4404 -0.575195 38.8467 -18.4561 38.8467 -39.9023c0 -20.72 -17.6216 -40.0146 -40.8271 -40.0146
c-4.90039 0.110352 -8.82422 2.55664 -14.3818 2.55664c-3.82031 0 -4.37 -0.623775 -7.49414 -4.16895c1.22656 -2.83105 2.94531 -6.79785 2.94531 -12.0068c0 -19.3891 -23.4277 -33.7285 -43.8623 -33.7285c-36.7993 0 -39.4355 33.0225 -49.2891 33.0225z
M564.144 288.47c0 0 0.0273438 -0.0117188 0 0zM463.256 368.792v0zM454.518 372.149c-3.0019 -4.32514 -11.1699 -17.4459 -11.1699 -32.1777c0 -28.0137 24.5654 -51.5283 50.1123 -51.5283c4.66608 0 20.1823 0 39.0479 16.1162
c4.37184 -6.85308 18.8534 -29.5537 49.3945 -29.5537c21.7858 0 54.5859 14.2968 54.5859 43.5449c0 0.476562 0 0.476562 -0.188477 4.75684c5.03027 -1.0166 6.86621 -1.38672 9.00879 -1.38672c24.2998 0 50.0215 21.4329 50.0215 50.6025
c0 26.2155 -20.4376 45.5947 -45.2939 49.5527c-8.00771 25.8259 -30.6898 38.7041 -47.9434 38.7041c-15.335 0 -35.6915 -9.21022 -46.5264 -29.8301c-5.46344 -0.330385 -14.5418 -0.879369 -28.9072 -7.95801c-15.3141 22.8907 -36.7411 23.5156 -39.0381 23.5156
c-13.5479 0 -34.1611 -11.0518 -41.0723 -28.7061c-1.63867 -4.40625 -2.74414 -15.1807 -2.89062 -15.9922c0 -4.56713 1.0811 -16.3665 10.8594 -29.6602zM563.311 401.377c3.34685 -3.34685 -10.3142 -41.3514 20.707 -65.3477
c-6.28097 -4.12063 -6.28097 -4.12063 -7.25684 -3.05664c-7.51953 8.17969 -13.4248 14.6045 -18.6523 29.5244c-2.79766 -8.7123 -16.8903 -32.1916 -20.0244 -29.7129c-14.3597 11.3688 18.6039 6.86155 18.0869 67.6084
c-0.0254598 2.85998 6.34663 1.77739 7.13965 0.984375z" />
  </g>

</svg>
