<?xml version="1.0" standalone="no"?>
<!DOCTYPE svg PUBLIC "-//W3C//DTD SVG 1.1//EN" "http://www.w3.org/Graphics/SVG/1.1/DTD/svg11.dtd" >
<svg xmlns="http://www.w3.org/2000/svg" xmlns:xlink="http://www.w3.org/1999/xlink" version="1.1" viewBox="-10 0 951 1000">
  <g transform="matrix(1 0 0 -1 0 800)">
   <path fill="currentColor"
d="M331 65c131.248 203.07 -80.2344 580.333 -3 661c33.9033 35.4102 54.8154 36.3926 97.6504 41.6074c138.096 16.8115 214.709 -94.445 241.719 -188.828c36.5535 -127.735 35.9906 -301.019 74.8773 -447.544l91.0797 89.0798l5.20996 -78.1455l-77.0126 -75.0126
c0.319546 -9.1645 -4.71387 -20.8835 -23.3281 -23.3281l-14.9156 -14.9156l-153.651 97.101l-5.14355 77.1475l97.9334 -63.727c-52.0085 193.516 -11.3467 436.62 -103.963 529.237c-24.4495 24.4495 -131.976 49.6893 -172.7 18.7362
c-24.4268 -18.5654 17.4132 -200.097 45.2451 -334.408c20.3838 -98.3682 18.0195 -184.129 -32 -278c-2.86719 -5.38086 -11.4316 -25.849 -31.9053 -26.8252c-7.06641 -0.336914 -16.0244 -0.25293 -23.1455 6.86816c-5.29199 5.29199 -16.7031 4.14941 -12.9492 9.95703z
" />
  </g>

</svg>
