<?xml version="1.0" standalone="no"?>
<!DOCTYPE svg PUBLIC "-//W3C//DTD SVG 1.1//EN" "http://www.w3.org/Graphics/SVG/1.1/DTD/svg11.dtd" >
<svg xmlns="http://www.w3.org/2000/svg" xmlns:xlink="http://www.w3.org/1999/xlink" version="1.1" viewBox="-10 0 1123 1000">
  <g transform="matrix(1 0 0 -1 0 800)">
   <path fill="currentColor"
d="M725.039 69.7197c0 27.2891 6.67383 55.5693 20.0918 82.6416c13.9014 27.9834 36.0557 63.7139 40.417 70.7344c23.1748 37.3125 68.0166 119.229 68.6699 120.453c4.86328 9.1084 8.34863 14.6377 21.7334 14.6377h1.57812
c8.74023 -3.83105 11.8945 -6.93359 19.2441 -23.5293c72.9033 -128.205 72.9033 -128.205 84.4268 -146.397c2.70605 -3.98145 27.9072 -42.0801 35.8154 -70.0273c3.66309 -12.3203 6.3291 -30.6162 6.3291 -43.4668c0 -70.2607 -55.585 -136.785 -124.104 -149.717
c-12.2197 -2.30762 -22.0605 -3.52441 -29.9717 -3.52441c-33.7861 0 -77.6426 18.1328 -101.568 41.9639c-28.2705 28.3594 -42.6611 66.209 -42.6611 106.231zM869.706 -44.7676c68.8662 0 120.105 60.5645 120.105 118.93c0 9.91895 -2.45801 29.1162 -8.61523 44.8711
c-6.44238 16.4824 -22.9072 42.8721 -28.4346 51.5166c-11.3906 17.8164 -11.3906 17.8164 -79.6377 136.315c-52.1943 -91.0957 -52.3311 -91.3291 -63.124 -108.865c-32.2607 -53.4004 -51.2236 -84.8994 -51.2236 -128.9c0 -31.3213 10.9922 -59.9551 32.0781 -81.04
c18.751 -18.752 55.7725 -32.8271 78.8516 -32.8271zM798.501 612.501l219.8 1.67188v38.9078c-505.481 -1.22608 -587.629 -2.47611 -627.187 -3.23954c0.836808 -0.81406 8.75878 -10.2228 23.889 -19.5181l18.5393 -11.3897l364.959 -196.38v189.948zM309.821 669.822
c0 0.336658 -0.872432 27.1047 -0.872432 33.6545c0 4.84587 0.095333 9.34279 0.095333 9.43717c0 3.70129 -0.68833 7.16834 -4.81609 7.25664l-34.0548 0.751847c0.0424381 -5.58912 0.0695027 -11.4023 0.0695027 -17.4239
c0 -123.917 -11.4615 -336.089 -136.27 -500.035c-0.864377 -1.13536 -65.2155 -89.0742 -84.8998 -114.691c2.69284 -2.14485 2.69284 -2.14485 30.8443 -24.4298c17.7307 18.9581 40.7146 62.2369 67.3784 96.0988c45.6729 58.004 96.2125 146.791 113.71 229.245
l6.01009 28.3217l8.4922 -27.6788c53.4311 -174.149 120.65 -246.84 183.07 -314.416l10.7549 -11.6716l18.2439 12.163l-2.991 1.66906l3.60603 8.25019c-33.8653 30.7551 -171.543 181.648 -187.218 343.23c-1.23312 0.588458 -5.73232 4.49601 -5.73232 30.1678
c0 49.6882 14.5795 157.302 14.5795 210.101z" />
  </g>

</svg>
