<?xml version="1.0" standalone="no"?>
<!DOCTYPE svg PUBLIC "-//W3C//DTD SVG 1.1//EN" "http://www.w3.org/Graphics/SVG/1.1/DTD/svg11.dtd" >
<svg xmlns="http://www.w3.org/2000/svg" xmlns:xlink="http://www.w3.org/1999/xlink" version="1.1" viewBox="-10 0 1020 1000">
  <g transform="matrix(1 0 0 -1 0 800)">
   <path fill="currentColor"
d="M708.514 626.247c44.9592 0 71.3102 -18.5724 71.3102 -36.3202c0 -2.64619 -0.622897 -5.16236 -1.82084 -7.36133c-5.56716 -10.2185 -22.0268 -30.4159 -27.0769 -36.4096c-16.5664 -19.6708 -34.8248 -50.5796 -46.045 -78.0648
c-17.7968 -43.5963 -18.3095 -45.5376 -18.3076 -45.8412c0 -12.2755 9.61897 -86.6635 9.61897 -147.675c0 -58.4868 -8.43201 -98.9404 -27.2391 -138.115c-3.50584 -7.29962 -13.0179 -27.6187 -21.1003 -45.0641c-2.85097 -6.15672 -9.50784 -18.8366 -18.1138 -27.4426
c-9.67446 -9.67445 -16.0611 -8.3527 -21.857 -12.3882c-38.4298 -26.7482 -69.664 -40.0259 -98.2606 -40.0259c-13.3468 0 -26.0533 2.91722 -38.4729 8.62326c-32.852 15.0949 -93.5249 65.4792 -106.928 88.6274c-25.1686 43.4593 -25.9116 51.4492 -26.806 185.969
c-0.805593 122.748 -0.662071 123.748 -32.6076 197.162c-20.0179 46.0057 -35.6444 64.1706 -40.9584 69.4846c-1.39171 1.39171 -1.96393 1.81716 -1.96393 1.81716c-0.613335 0.475439 -0.969653 1.21212 -0.969653 1.98078
c0 0.285153 0.706549 7.49542 0.705697 7.85419c0 2.73874 -2.22746 4.99892 -5.0131 4.99892c-6.22655 0 -3.66808 -7.31129 -7.70626 -7.31129c-2.93988 0 -17.7056 18.3035 -17.7056 25.6867c0 7.96795 13.8037 21.8271 13.9881 22.0115
c8.32214 8.32214 18.6154 11.3308 50.3552 11.3308c27.8647 0 38.5288 -4.12221 64.5099 -22.7585c17.557 -12.5905 24.4212 -17.8534 35.3614 -26.7551c1.19078 -0.968898 2.45435 -1.12665 3.15102 -1.12665c3.34161 0 4.22015 2.10556 5.64558 5.52183
c3.42753 8.21464 3.56562 8.54559 12.5044 19.5756c5.84348 7.21045 14.6855 17.4155 24.7661 27.4961c35.6374 35.6374 53.1549 36.1183 60.5764 36.1183c15.6238 0 32.8944 -8.18503 52.7434 -28.034c29.0708 -29.0708 39.692 -53.7021 41.11 -55.1201
c0.916499 -0.916499 2.18374 -1.46273 3.54185 -1.46273c2.11717 0 2.3223 0.0550122 6.19244 4.49575c28.5198 32.5997 82.3572 38.5216 102.872 38.5216zM746.52 587.402c0 0.407683 -0.102674 3.29528 -2.96559 4.56999c0 0 -17.3928 5.14912 -32.7774 5.14912
c-35.3928 0 -81.1976 -20.1687 -91.4831 -43.6851c-1.63962 -3.74824 -9.66473 -20.5509 -21.7689 -20.5509c-11.3228 0 -18.1704 14.3296 -20.9992 24.7219c-11.3535 41.725 -56.6155 79.7183 -75.0328 79.7183c-10.2245 0 -20.7567 -8.18872 -36.4413 -23.8733
c-16.6919 -16.6919 -33.9227 -37.9844 -39.8283 -54.042c-3.68054 -10.007 -11.2501 -27.2128 -22.0391 -27.2128c-5.53861 0 -11.3154 3.85295 -16.9398 13.9732c-4.60365 8.29024 -43.4442 43.1785 -68.804 51.1033c-6.50287 2.03071 -12.3667 2.87991 -19.1417 2.87991
c-0.521672 0 -22.9289 -0.613453 -25.8583 -3.54292c-0.910971 -0.910971 -1.46902 -2.17327 -1.46902 -3.5459c0 -2.03172 0.408412 -2.44013 3.51092 -5.54264c30.2964 -30.2964 47.9527 -71.0075 55.8915 -89.2566c31.0803 -71.4521 31.2935 -72.7098 31.9377 -203.741
c0.596584 -121.218 0.922747 -124.388 13.5676 -152.16c22.4617 -49.3282 105.647 -102.672 140.597 -102.672c1.68461 0 11.3218 0.159251 13.524 3.76609c1.78171 2.9182 4.23193 6.13291 16.3073 10.7911c19.322 7.45363 48.1626 21.6203 62.2982 35.7558
c10.1667 10.1667 17.5904 23.6116 30.0122 49.2673c23.1991 47.9152 31.9226 79.284 31.9226 135.878c0 43.5135 -9.49418 158.968 -9.49418 160.577c0 0.504227 0 0.504227 19.2434 46.7612c11.5063 27.6604 29.9653 58.4873 46.6036 77.6406
c2.55523 2.94175 17.4189 20.2475 19.6269 27.2719z" />
  </g>

</svg>
