<?xml version="1.0" standalone="no"?>
<!DOCTYPE svg PUBLIC "-//W3C//DTD SVG 1.1//EN" "http://www.w3.org/Graphics/SVG/1.1/DTD/svg11.dtd" >
<svg xmlns="http://www.w3.org/2000/svg" xmlns:xlink="http://www.w3.org/1999/xlink" version="1.1" viewBox="-10 0 1022 1000">
  <g transform="matrix(1 0 0 -1 0 800)">
   <path fill="currentColor"
d="M490.541 3.23926c-2.77148 0 -5.00195 2.25 -5.00195 4.99902l4.7959 138.059c-13.9443 16.6924 -28.249 32.3184 -42.335 47.7031c-62.1006 67.8271 -120.219 131.453 -120.421 259.795c-0.168945 106.957 38.7393 161.675 60.5283 183.839
c68.8662 67.3203 159.782 84.2432 207.032 84.2432c4.29785 0 9.7334 3.64355 15.3955 3.37695c139.659 -6.57031 169.465 -17.6162 240.62 -79.5078c9.18652 -7.99023 11.8594 -14.502 13.0527 -20.6523c0.214844 -1.10938 0.337891 -1.54395 0.379883 -1.67871
c32.6045 -37.623 55.4824 -136.502 57.2568 -165.259c0.120117 -1.9502 0.412109 -4.21484 0.749023 -6.77637c0.952148 -7.24121 2.21484 -16.8096 0.106445 -28.8496c-29.0137 -165.705 -107.865 -213.392 -117.138 -239.37
c-0.505859 -1.41699 -0.972656 -1.65137 -1.17383 -1.85254c-2.21094 -2.20996 -21.3682 -11.9775 -36.7588 -19.2158c-1.93164 -5.50293 -1.93164 -5.50293 -2.91113 -6.52051c-0.453125 -1.74414 -0.866211 -4.82715 -0.866211 -4.82715l-2.85547 -141.03
c-0.0556641 -2.70996 -2.25684 -4.88086 -4.96875 -4.89648zM864.377 623.634l-0.330078 0.288086l-3.02148 -3.94824zM850.337 641.468l-3.30859 1.36523l-3.3125 -8.30273zM634.093 687.043c-80.1816 0 -132.467 -14.1543 -199.136 -63.585
c-17.5791 -17.5801 -66.5117 -70.3408 -66.7432 -161.874c-0.304688 -120.492 52.209 -177.22 80.416 -205.427c14.0547 -14.0557 14.0547 -14.0557 16.3828 -17.5332c4.60254 -6.875 4.60254 -6.875 34.4697 -39.249c6.8584 -1.6875 17.3438 -6.00977 27.9775 -17.0645
c5.81543 -6.04395 3.4668 -28.4824 2.3916 -38.749l-0.957031 -116.742l185.258 -0.950195l8.71289 143.282c0.0830078 1.3584 0.708984 2.62012 1.75879 3.51074c6.1543 5.24609 6.31641 5.38379 9.50586 8.57422c3.14844 3.14844 12.2861 12.0693 20.3213 14.4082
c2.91309 0.847656 6.97363 8.90039 15.4141 15.209c40.3701 30.1787 100.125 106.145 107.545 215.631c1.08594 16.0176 -1.3877 33.4932 -4.54785 52.2393c-6.6875 39.6729 -16.4883 96.0537 -46.6523 131.201c-4.68848 3.86328 -6.11328 5.14746 -27.7051 26.7393
c-38.627 38.627 -102.583 50.3789 -164.412 50.3789zM163.094 691.807l87.8465 84.0262l24.5451 -21.2275l-87.558 -88.4274l95.8106 -88.0696l-27.8804 -23.226l-94.4699 86.9632l-86.6623 -88.2074l-22.505 24.6108l84.791 86.2286l-83.729 87.0977l25.3318 24.2316z" />
  </g>

</svg>
