<?xml version="1.0" standalone="no"?>
<!DOCTYPE svg PUBLIC "-//W3C//DTD SVG 1.1//EN" "http://www.w3.org/Graphics/SVG/1.1/DTD/svg11.dtd" >
<svg xmlns="http://www.w3.org/2000/svg" xmlns:xlink="http://www.w3.org/1999/xlink" version="1.1" viewBox="-10 0 862 1000">
  <g transform="matrix(1 0 0 -1 0 800)">
   <path fill="currentColor"
d="M375.676 267.2c0 -2.5 2.5 -5 5 -5l382.5 -1.25c2.5 0 5 2.5 5 5l-1.25 162.5c6.25 -1.25 12.5 2.5 18.75 2.5c26.25 1.25 26.25 0 26.25 0l-43.75 51.25l-1.25 88.75c0 2.5 -1.25 5 -3.75 5h-220l-2.5 38.75l-1.25 13.75l-55 -50h-1.25l-102.5 1.25
c-2.5 0 -5 -2.5 -5 -5v-307.5zM395.676 282.2v277.5l88.75 -1.25l58.75 -50c1.25 16.25 0 32.5 0 50l205 -1.25v-72.5l-48.75 -53.75h25h26.25l-2.5 -150zM200.301 575.7c2 -33 -13 -128 -4 -133c9 -98 103 -189 103 -185l-16 -10c-36 39 -75 78 -106 184
c-7 -47 -37 -100 -63 -133c-16 -20 -22 -36 -36 -51l-19 14c21 27 32 44 46 62c69 91 73 211 72 274h19c4 0 4 -3 4 -5c0 0 -1 -8 0 -17zM640.65 466.2l9.75 -8.4502c-18.2002 -18.2002 -35.75 -35.0996 -53.2998 -52.6494l53.2998 -53.3008l-9.09961 -9.09961
l-53.3008 53.2998c-18.1992 -18.2002 -35.75 -35.0996 -52 -52.6494l-9.09961 9.09961l52 52.6504l-52 52l9.09961 9.09961l52 -52z" />
  </g>

</svg>
