<?xml version="1.0" standalone="no"?>
<!DOCTYPE svg PUBLIC "-//W3C//DTD SVG 1.1//EN" "http://www.w3.org/Graphics/SVG/1.1/DTD/svg11.dtd" >
<svg xmlns="http://www.w3.org/2000/svg" xmlns:xlink="http://www.w3.org/1999/xlink" version="1.1" viewBox="-10 0 1261 1000">
  <g transform="matrix(1 0 0 -1 0 800)">
   <path fill="currentColor"
d="M926.695 584.174l-60.4512 -69.21l65.8662 -68.6357c1.56543 -1.63086 1.08008 -4.17969 -0.130859 -5.32227l-8.88477 -8.39062c-1.55566 -1.46973 -4.0166 -1.18848 -5.28223 0.132812l-65.4727 68.3262l-59.0957 -68.1885
c-1.63379 -1.88574 -4.51465 -1.43262 -5.75293 0.101562l-6.45312 7.99902c-1.17969 1.46191 -0.967773 3.59668 0.0859375 4.81152l58.8984 67.9023l-57.8916 68.2686c-1.27832 1.50781 -1.01367 3.75684 0.103516 4.96777l7.92676 8.59668
c1.60449 1.74023 4.32227 1.34375 5.5625 -0.0537109l57.9102 -65.2773l60.6064 65.7207c1.51172 1.63965 4.08105 1.41113 5.38184 0.135742l6.87402 -6.74023c1.4707 -1.44043 1.36523 -3.81055 0.199219 -5.14453zM854.136 654.873
c81.0996 0 146.481 -65.3555 146.803 -145.938c-0.00195312 -80.5566 -65.3809 -145.935 -145.938 -145.935c-80.5586 0 -145.938 65.3789 -145.938 145.938c0 80.084 64.9883 145.455 145.073 145.936zM854.159 379.977c71.6904 0 129.495 57.7988 129.8 128.958
c-0.00195312 71.1826 -57.7764 128.956 -128.959 128.956s-128.958 -57.7744 -128.958 -128.958c0 -70.7217 57.3984 -128.501 128.117 -128.956zM230.383 163.716l53.459 -53.1562l55.543 53.127l17.1768 -14.8564l-55.4346 -55.9844l60.583 -55.6875l-16.6689 -13.8867
l-59.8252 55.0723l-54.9053 -55.8838l-15.6963 17.1631l53.6406 54.5488l-52.9707 55.1025zM453.504 -27.0654zM106.554 206.35zM41.7627 87.0693zM294.213 -68.8857zM293.756 -83.3701zM100.87 -29.5107zM212.069 -64.4941zM515.39 114.038zM41.7627 87.0693z
M515.39 114.038zM523.932 122.167c4.47363 -13.5498 7.35352 -28.2148 11.1172 -42.2637l2.62305 -0.0419922c-1.99512 -42.0918 -2.74609 -57.9414 -71.0947 -111.95c-50.8574 -40.1875 -88.0928 -54.3428 -172.729 -55.2959
c-58.2178 -0.657227 -132.362 1.52246 -197.362 55.2822c-25.6133 21.1836 -66.2705 62.1816 -65.8936 108.752h-1.82227c1.99219 7.46484 1.99219 7.46484 2.18164 13.1973l1.33301 -0.0224609l5.70703 21.4033h-2.50488c1.30078 1.7666 2.60156 3.5332 3.90234 5.30078
v6.01367h4.42773l64.6357 87.8232h2.05078c22.3643 52.2939 108.038 77.4854 141.315 36.9785c4.72363 -2.12402 26.1533 -10.6738 48.7168 -2.44727c11.623 15.5566 44.2803 30.5684 81.0293 22.9482c35.543 -7.37012 71.3975 -40.4355 87.1289 -56.5342h0.753906
c0.554688 -0.816406 0.93457 -1.75293 1.63184 -2.46875l4.94238 -5.15723l47.1953 -80.6465c0.704102 0.0595703 1.26074 0.0146484 1.15039 -0.496094zM63.4727 79.4736c-0.782227 -26.8379 2.18555 -58.7559 67.3682 -104.384
c55.3105 -38.7178 101.142 -41.498 164.062 -39.9395c73.3096 1.88672 103.899 11.3096 148.167 47.4814c58.8672 48.1055 68.6211 63.1816 61.542 91.4395l-9.36133 37.3701l-0.342773 -0.614258c0.0195312 2.26172 -1.49316 5.13867 -1.47363 7.40039l-52.5264 82.8477
c-1.41016 -0.0556641 -0.28418 1.22461 -1.69434 1.16992c-32.5127 21.4355 -35.9805 30.7227 -48.125 37.8857c-18.7031 11.0283 -47.4561 8.80859 -65.7617 -3.68457c-9.1123 -27.4512 -65.6523 -31.8496 -91.7051 -7.0957
c-2.42773 2.30762 -4.21875 1.02344 -3.98926 3.85449c-27.8486 19.1631 -80.0117 -0.143555 -94.751 -34.8604l-1.78809 -4.20996l-2.97949 1.14648l-57.4443 -81.3252zM736 88c-2.59961 0 -14.0918 6.03027 -14.0918 8.6084l4.49707 129.429
c-13.0742 15.6494 -26.4844 30.2988 -39.6904 44.7217c-58.2188 63.5889 -112.705 123.237 -112.895 243.559c-0.158203 100.271 36.3184 151.569 56.7461 172.349c64.5615 63.1123 149.796 78.9775 194.093 78.9775c4.02832 0 9.125 3.41602 14.4326 3.16699
c130.932 -6.15918 158.873 -16.5166 225.582 -74.5381c8.6123 -7.49219 11.1182 -13.5967 12.2363 -19.3633c0.201172 -1.04004 0.317383 -1.44629 0.356445 -1.57324c30.5664 -35.2715 52.0146 -127.97 53.6777 -154.931
c0.112305 -1.82715 0.387695 -3.9502 0.702148 -6.35254c0.893555 -6.78809 2.07617 -15.7588 0.100586 -27.0459c-27.2002 -155.35 -101.123 -200.055 -109.817 -224.409c-0.473633 -1.3291 -0.912109 -1.54883 -1.09961 -1.7373
c-2.07324 -2.07129 -20.0332 -11.2285 -34.4619 -18.0146c-1.81055 -5.15918 -1.81055 -5.15918 -2.72949 -6.11328c-0.424805 -1.63477 -0.811523 -4.52539 -0.811523 -4.52539l-2.67676 -132.216c-0.0527344 -2.54004 7.28613 -8.49707 4.74316 -8.51172zM1077.07 673.541
l-0.310547 0.269531l-2.83203 -3.70117zM1063.91 690.261l-3.10156 1.2793l-3.10547 -7.7832zM861.178 732.987c-75.1709 0 -124.188 -13.2695 -186.69 -59.6113c-16.4795 -16.4707 -63.4219 -88.7725 -62.5713 -151.757
c1.52539 -112.951 48.9453 -166.144 75.3896 -192.588c13.1768 -13.1768 13.1768 -13.1768 15.3594 -16.4365c4.31445 -6.44531 4.31445 -6.44531 32.3154 -36.7969c6.42969 -1.58203 16.2598 -5.63379 26.2295 -15.9971
c5.45117 -5.66699 3.24902 -26.7031 2.24121 -36.3271l-0.897461 -109.445l173.679 -0.891602l8.16895 134.327c0.078125 1.27344 0.664062 2.45605 1.64941 3.29102c5.76953 4.91797 5.92188 5.04785 8.91113 8.03906c2.95215 2.95117 11.5186 11.3145 19.0518 13.5078
c2.73047 0.792969 6.53809 8.34375 14.4502 14.2578c37.8467 28.292 93.8672 99.5107 100.823 202.153c1.01758 15.0166 -1.2998 31.4004 -4.2627 48.9746c-6.26953 37.1934 -15.458 90.0518 -43.7363 123.002c-4.39648 3.62207 -5.73145 4.8252 -25.9746 25.0674
c-36.2119 36.2129 -96.1719 47.2305 -154.136 47.2305z" />
  </g>

</svg>
