<?xml version="1.0" standalone="no"?>
<!DOCTYPE svg PUBLIC "-//W3C//DTD SVG 1.1//EN" "http://www.w3.org/Graphics/SVG/1.1/DTD/svg11.dtd" >
<svg xmlns="http://www.w3.org/2000/svg" xmlns:xlink="http://www.w3.org/1999/xlink" version="1.1" viewBox="-10 0 1040 1000">
  <g transform="matrix(1 0 0 -1 0 800)">
   <path fill="currentColor"
d="M497 352v-0.000976562c12.5479 0 18.5932 4.32619 18.9736 16.8662c3.55078 117.036 3.56152 117.411 3.56152 146.205c0 20.2656 -0.304688 40.0508 -0.691406 52.9268c-0.222656 7.40332 -0.864258 28.6709 -23.4648 28.6709
c-11.7842 0 -3.61816 -0.425781 -51.3789 -57.668c-21.7588 -26.0781 -39.8691 -51.0069 -59.8672 -73.5684c-54.543 -61.5342 -69.1328 -78.9346 -69.1328 -92.4316c0 -12.7568 -0.810547 -19 14 -19c0.405273 0 25.1689 0.297852 40.4268 0.297852h0.578125
c37.0332 0 126.995 -2.29785 126.995 -2.29785zM495.93 325.827v-0.00292969c-147.857 -0.132812 -204.005 -0.203125 -211.729 -0.636719c-0.233398 0.0205078 -0.475586 0.0322266 -0.720703 0.0322266c-0.212891 0 -0.425781 -0.0078125 -0.636719 -0.0244141
c-20.4951 0.21582 -64.0967 3.29785 -64.7441 3.29785c-21.2852 0 -39.0967 17.7158 -39.0967 39.1094c0 21.3467 17.7598 39.1074 39.1084 39.1074c11.9492 0 23.0469 -5.60938 30.375 -14.6699c6.2041 -7.67285 14.3701 -8.63477 18.0781 -8.63477
c8.12305 0 13.6514 4.03027 16.4561 6.83398c2.37695 2.37598 27.5596 38.9131 215.031 258.307c3.71582 4.3457 5.55078 9.71973 5.55078 15.0625c0 19.1885 -20.5762 19.5938 -20.5762 46.124c0 21.3486 17.7646 39.1084 39.1104 39.1084
c21.3486 0 39.1074 -17.7627 39.1074 -39.1084c0 -15.2197 -6.91406 -17.4609 -6.91406 -28.3545c0 -3.88281 0.960938 -7.72559 2.84277 -11.1631c-2.31738 -88.71 -2.60147 -183.712 -2.5459 -225.139l0.104492 -77.8984
c0.026021 -19.3985 30.2686 -11.1777 30.2686 -11.1777l11 1s18.3155 -3.02828 20.7588 7.64648c3.91878 17.1213 14.5938 25.4648 33.1328 25.4648c21.3457 0 39.1084 -17.7627 39.1084 -39.1113s-17.7637 -39.1084 -39.1084 -39.1084c-24.8857 0 -26.2197 13 -44 13
c-10.0352 0 -15.2373 -2.94824 -19.3037 -2.94629c-34.8486 0.0185547 -8.27539 3.88263 -9.05762 3.88086c-12.9131 -0.0292969 -23.2188 -10.4639 -23.2188 -23.3174c0.832031 -111.893 1.03418 -121.59 1.57031 -147.15
c0.18457 -8.80664 4.98242 -14.8535 9.04004 -17.9902c14.2129 -10.9756 15.375 -26.2314 15.375 -30.9258c0 -21.3486 -17.7646 -39.1084 -39.1104 -39.1084c-21.3486 0 -39.1064 17.7646 -39.1064 39.1084c0 22.999 16.4023 25.3701 16.4697 41.9541l0.619141 154.198
c0 12.8789 -10.4414 23.2324 -23.2393 23.2324z" />
  </g>

</svg>
