<?xml version="1.0" standalone="no"?>
<!DOCTYPE svg PUBLIC "-//W3C//DTD SVG 1.1//EN" "http://www.w3.org/Graphics/SVG/1.1/DTD/svg11.dtd" >
<svg xmlns="http://www.w3.org/2000/svg" xmlns:xlink="http://www.w3.org/1999/xlink" version="1.1" viewBox="-10 0 1124 1000">
  <g transform="matrix(1 0 0 -1 0 800)">
   <path fill="currentColor"
d="M86 516c0 57.2891 3.50098 103.341 10.502 138.154c7.13379 35.0342 17.6357 62.0254 31.5068 80.9756c14.002 18.9492 31.5723 28.4238 52.71 28.4238c15.5879 0 29.2607 -5.28809 41.0176 -15.8643c11.7568 -10.3564 21.4668 -25.4492 29.1289 -45.2803
c7.66211 -19.6104 13.6729 -43.6279 18.0322 -72.0518c4.35938 -28.2041 6.53906 -66.3232 6.53906 -114.357c0 -56.8486 -3.50098 -102.79 -10.5029 -137.824c-7.00098 -34.8135 -17.5029 -61.8057 -31.5059 -80.9756
c-13.8711 -18.9492 -31.4404 -28.4238 -52.709 -28.4238c-28.0068 0 -50.002 16.7461 -65.9863 50.2383c-19.1553 40.3223 -28.7324 105.984 -28.7324 196.985v0zM122.659 516c0 -79.5439 5.54785 -132.536 16.6445 -158.977
c11.2295 -26.2207 25.0342 -39.3311 41.415 -39.3311c16.3799 0 30.1191 13.2207 41.2158 39.6611c11.2285 26.4404 16.8428 79.3232 16.8428 158.646c0 79.7637 -5.61426 132.756 -16.8428 158.977c-11.0967 26.2207 -24.9678 39.3311 -41.6123 39.3311
c-16.3809 0 -29.459 -11.5684 -39.2344 -34.7041c-12.2861 -29.5264 -18.4287 -84.0596 -18.4287 -163.604v0zM509.686 803.156zM360 171.121c0 -142.561 147.84 -258.722 330 -258.722s330 116.161 330 258.722c0 142.56 -147.84 258.719 -330 258.719
s-330 -116.159 -330 -258.719zM325.68 173.761c0 159.279 162.801 287.759 364.32 287.759s364.32 -128.479 364.32 -287.759c0 -159.281 -162.801 -287.761 -364.32 -287.761s-364.32 128.479 -364.32 287.761zM839.645 7.44043h-297.984l-63.499 245.051l115.238 -76.9902
l91.166 172.499l90.8896 -172.499l114.546 76.1025zM567.806 38.4395l233.076 -1.37012l40.3398 145.205l-80.6797 -54.7949l-74.7041 156.163l-77.6914 -149.313l-83.6689 56.1641z" />
  </g>

</svg>
