<?xml version="1.0" standalone="no"?>
<!DOCTYPE svg PUBLIC "-//W3C//DTD SVG 1.1//EN" "http://www.w3.org/Graphics/SVG/1.1/DTD/svg11.dtd" >
<svg xmlns="http://www.w3.org/2000/svg" xmlns:xlink="http://www.w3.org/1999/xlink" version="1.1" viewBox="-10 0 1042 1000">
  <g transform="matrix(1 0 0 -1 0 800)">
   <path fill="currentColor"
d="M719.771 269.317c-26.4922 0 -45.6963 -1.58594 -66.5566 -4.06836c-9.26172 13.5596 -15.4014 20.6514 -26.3623 31.2256c-19.7031 19.0078 -74.9121 33.6143 -127.811 33.6143c-35.7354 0 -73.5225 -6.20508 -106.699 -21.9033
c-7.82715 -3.70508 -22.8428 -10.8115 -42.3477 -38.1621c-26.25 2.62207 -43.3154 3.19922 -60.7646 3.19922c-35.4004 0 -72.9502 -3.2998 -105.973 -11.6143c-12.9951 -3.27246 -33.291 -10.7949 -48.3086 -25.8115
c-6.33789 -6.33789 -8.52441 -12.6162 -8.52441 -19.1172c0 -14.9502 13.0654 -30.6787 16.4297 -34.043c6.8877 -6.8877 17.7383 -12.2197 25.4854 -15.8936c25.584 -12.1299 74.3213 -17.7803 121.341 -17.7803c28.1309 0 50.3457 1.65723 72.9688 4.54785
c6.65039 -7.11523 9.04297 -9.39453 14.5117 -14.2676c35.9004 -31.9922 110.367 -33.2432 124.84 -33.2432c41.374 0 81.2021 7.60254 103.021 20.4512c13.2988 7.83203 22.1934 15.5088 31.9541 24.9219c28.7764 -4.71191 54.8906 -6.37402 83.4912 -6.37402
c41.0479 0 80.8662 4.20703 102.519 10.9922c52.3867 16.415 67.4736 41.7422 67.627 51.2656c0 0.0400391 0.000976563 0.0800781 0.000976563 0.120117c-0.000976563 5.66406 -9.3125 17.5615 -14.8076 23.0566c-7.48242 7.48145 -17.0078 13.7812 -31.1387 21.0352
c-17.7949 9.13477 -68.6963 17.8486 -124.896 17.8486zM844.538 207.938c0 -19.2139 -65.1553 -37.4395 -135.488 -37.4395c-13.8701 0 -22.8643 0 -52.9062 3.97949c10.1846 19.5801 12.9951 25.7578 15.3418 41.7861c1.85742 2.62598 1.25098 2.23145 1.26562 2.25293
c-0.0175781 0.25293 -0.152344 0.535156 -0.152344 0.535156c-0.0390625 -2.20898 -5.3916 16.3799 -6.45801 19.5293c25.0508 2.40137 40.0469 3.375 63.3018 3.375c37.1885 0 71.2402 -2.94629 87.4863 -11.0703c21.8926 -10.9463 26.752 -15.9365 27.6094 -22.4541
v-0.494141zM344.168 187.273v-7.78711c-30.2109 -4.30762 -46.6846 -4.90234 -63.5547 -4.90234c-32.6611 0 -64.0547 3.81055 -85.249 13.4297c-23.3828 10.6123 -28.7363 18.1084 -28.7363 24.7305c0 12.1855 10.6631 16.3311 22.4678 20.1523
c37.5137 12.1426 94.4805 13.2373 113.257 13.2373c9.70801 0 14.9287 -0.0302734 35.4863 -1.1582c-1.48242 -11.7061 -1.60645 -12.6797 -1.60645 -17.6172c0 -12.8242 2.82715 -25.4795 7.93555 -40.085zM595.628 208.745c0 7.54395 6.93652 10.333 30.75 18.3535
c5.28223 1.77832 9.8418 3.4834 9.8418 3.4834l-1.29004 -1.00098l-3.33984 -10.3965l-4 -5c-1.16992 -0.0654297 4 5 0 0c-4 -10 -6.89355 -14.7676 -13.6436 -25.4248c-12.3164 8.19824 -18.3184 12.1934 -18.3184 19.9854zM556.424 212.68
c0 -11.4482 19.8955 -36.583 30.166 -45.4951l20.6895 9l-32.3105 -14.3525c-24.6777 -10.9619 -54.9629 -16.915 -84.1465 -16.915c-39.8555 0 -57.584 8.84375 -80.5039 20.2773c21.0215 10.8184 29.4268 15.1445 39.2197 24.9365
c11.5596 11.5596 12.0791 19.6738 12.0791 21.041c0 0.135742 -0.00488281 0.205078 -0.00488281 0.205078c0 4.55371 -7.72168 16.0352 -14.6836 22.9912c-12.5361 12.5361 -34.042 22.4141 -34.042 22.4141l-15.6289 6.81836l15.5879 6.91113
c26.0781 11.5605 63.2305 17.748 98.1445 17.748c38.1465 0 71.0713 -7.14746 85.7559 -20.9453c1.32812 -1.25 1.32812 -1.25 10.8477 -10.4209c-18.5234 -7.34668 -51.1699 -20.6924 -51.1699 -44.2139zM415.538 211.938c0 -11.1309 -22.6396 -19.6299 -22.9238 -19.7334
c-0.342773 -0.124023 0.217773 0.222656 -2.61035 -0.463867l-6.41406 -1.55664l-1.08496 7.10059c-3.85938 7.22656 -5.90137 14.9229 -5.90137 23.3271c0 4.10352 0 4.10547 2.06348 18.9092c30.0225 -15.0234 35.6377 -18.5498 36.8711 -27.583zM604.256 687.267
l-105.454 -103.331l-105.304 101.627l-21.498 -20.5625l103.935 -106.02l-111.62 -96.0803l23.6846 -25.8994l113.843 98.4535l102.157 -96.4535l24.0029 19.9941l-102.504 96.58l104.501 109.426z" />
  </g>

</svg>
