<?xml version="1.0" standalone="no"?>
<!DOCTYPE svg PUBLIC "-//W3C//DTD SVG 1.1//EN" "http://www.w3.org/Graphics/SVG/1.1/DTD/svg11.dtd" >
<svg xmlns="http://www.w3.org/2000/svg" xmlns:xlink="http://www.w3.org/1999/xlink" version="1.1" viewBox="-10 0 780 1000">
  <g transform="matrix(1 0 0 -1 0 800)">
   <path fill="currentColor"
d="M324.769 71.9702c-31.0929 0 -74.2735 18.0629 -96.4722 40.2616c-28.2842 28.2842 -49.6444 82.4863 -49.6444 119.858c0 49.6813 19.9618 86.1653 45.7383 111.942c25.5514 25.5514 56.5557 40.6761 80.0007 49.1087c22.2292 8.48037 84.0835 16.0608 88.6091 16.3581
c50.244 0 113.454 -25.2796 124.881 -33.7668c35.3031 -23.2929 65.0877 -76.1426 66.6984 -117.933c0.197124 -3.33329 0.29222 -6.64897 0.29222 -9.94375c0 -70.2188 -43.1931 -130.941 -62.4625 -150.211c-8.57638 -8.57638 -39.1987 -28.9513 -75.4384 -28.9513
c-3.52522 0 -7.10358 0.192795 -10.72 0.607999c-23.0239 2.64225 -45.9654 2.66952 -111.482 2.66952zM584.578 257.82c0 0 -2.9076e-05 0.000753515 0 0zM516.959 376.322c0 0 -0.00204768 0.0011775 0 0zM522.921 101.301c0 -4.18914 -3.4971 -7.65002 -7.6487 -7.65002
c-4.13938 0 -7.50003 3.36065 -7.50003 7.50003c0 4.25249 3.56794 7.64893 7.64772 7.64893c4.15192 0 7.501 -3.37227 7.501 -7.49893zM359.681 45.1686c27.3392 0 84.6474 -3.12093 85.503 -3.12093c0.964653 0 1.85848 0.0134392 2.67959 0.041971
c0.0861202 0 0.174248 0.0045571 0.262382 0.0045571c34.4229 0 75.6023 18.9066 92.7441 36.0484c36.036 36.036 70.8226 108.2 70.8226 165.932c0 1.92773 0 1.92773 -0.570825 16.1171c-2.03758 50.6494 -37.9691 112.685 -79.8069 139.618
c-24.2038 15.581 -83.3782 36.6098 -129.616 37.1832c-4.10568 0.0509195 -7.40475 3.40075 -7.40426 7.58281c0.413827 36.8053 2.62377 150.328 59.2133 206.918c19.2927 19.2787 57.5147 35.1015 84.7838 35.1015c1.29684 0 1.73594 -0.133102 6.17042 -0.133102v27.2305
c-3.56541 0.0992483 -3.89385 0.108391 -5.37871 0.108391c-39.7755 0 -83.8248 -21.9299 -104.828 -42.9334c-59.6197 -59.6197 -67.0395 -166.172 -67.439 -228.871c-0.0239142 -3.75301 -2.83878 -6.92244 -6.55939 -7.38562
c-78.3938 -9.7593 -126.403 -41.4126 -154.71 -69.7182c-20.732 -20.7325 -54.9929 -64.939 -54.9929 -130.666c0 -46.6873 24.878 -107.553 58.4088 -141.084c26.97 -26.97 77.9772 -48.6174 116.187 -48.6174c0.345366 0 19.0219 0.642759 34.5306 0.642759z" />
  </g>

</svg>
