<?xml version="1.0" standalone="no"?>
<!DOCTYPE svg PUBLIC "-//W3C//DTD SVG 1.1//EN" "http://www.w3.org/Graphics/SVG/1.1/DTD/svg11.dtd" >
<svg xmlns="http://www.w3.org/2000/svg" xmlns:xlink="http://www.w3.org/1999/xlink" version="1.1" viewBox="-11 0 1051 1000">
  <g transform="matrix(1 0 0 -1 0 800)">
   <path fill="currentColor"
d="M642.477 761.265c78.1104 0 141.745 -63.46 141.745 -141.777c0 -78.4736 -63.6875 -141.834 -141.776 -141.834c-69.3076 0 -129.013 52.834 -140.004 119.295c-0.569336 3.44922 -1.13965 6.89844 -1.70898 10.3477l-312.354 2.88477l0.249023 26.9443l312.354 -2.8877
c3.98535 21.6172 9.78516 53.0811 41.4824 84.7783c26.0586 26.0586 61.8184 42.249 100.013 42.249zM641.922 504.696c60.0439 0 115.106 47.7598 115.106 114.783c0 63.4746 -51.5957 114.843 -114.797 114.843c-51.0596 0 -96.9902 -36.2051 -110.742 -84.5439
l-4.48926 -15.7783l64.0254 -0.595703c5.52051 11.7363 7.30176 15.5234 14.1172 22.3398c9.76953 9.76855 23.2432 16.0771 37.084 16.0771c28.666 0 52.3027 -23.3145 52.3027 -52.3496c0 -31.3662 -26.0371 -52.3691 -52.293 -52.3691
c-14.957 0 -27.7041 6.68066 -36.8457 15.8223c-7.37207 7.37207 -9.53613 12.2002 -14.6172 23.54l-64.0225 0.589844c7.04395 -26.4053 12.1738 -45.6338 34.6807 -68.1426c23.6533 -23.6514 52.4287 -34.2158 80.4902 -34.2158zM637 462.499zM149.522 378.149z
M149.827 381.75zM766.783 294.298l10.5368 0.727677l-4.91686 -5.58873zM154.805 380.404c0 -4.50381 -7.36794 -17.2995 -7.36794 -40.8237c0 -46.1807 30.262 -78.6689 58.7725 -92.6563l52.7302 -25.8698l-57.5502 11.791
c-39.203 8.03201 -107.82 32.1719 -149.742 104.516l-2.17381 3.75125c15.652 27.1259 54.1423 90.8007 158.085 109.7l3.9968 -14.3953c-9.23679 -3.47342 -25.255 -13.4661 -31.2575 -19.4683c-8.836 -8.836 -7.78053 -7.72065 -9.53554 -10.6491
c-3.5948 -5.99838 -6.80799 -5.98355 -8.76057 -10.9616c-1.22492 -3.12095 -2.98233 -5.49152 -7.19732 -14.8282c0.000426929 -0.0353993 0.000638031 -0.070729 0.000638031 -0.105985zM252.501 199.999v7.49951h6.27941
c0.406372 0 0.812743 -0.000488281 1.21911 -0.000488281zM254.851 252.188c-53.2462 0 -90.3355 42.5443 -90.3355 87.9656c0 8.98909 0 16.0301 8.2379 38.8354l1.64274 -0.612963c13.6425 20.1751 13.6425 20.1751 17.1557 25.2884
c28.3723 18.6631 28.3723 18.6631 29.3119 18.7898c8.48775 3.48224 20.9166 6.75938 35.1204 6.75938c19.6685 0 42.7406 -6.2839 63.4648 -27.0087c17.891 -17.891 25.6005 -38.9831 25.678 -61.2118c0 -15.3768 -3.35785 -39.4669 -25.6828 -61.7919
c-10.378 -10.377 -30.5576 -27.0133 -64.5931 -27.0133zM362.13 340.673c0 58.9148 -45.3652 89.3774 -67.2623 98.0017l-68.1853 26.8552c77.9902 -13.4869 77.9902 -13.4869 83.2723 -15.0104c0.494268 0.0953493 1.01773 0.155585 1.55136 0.155585
c1.88748 0 102.56 -12.7031 156.303 -105.808l2.16144 -3.74451c-20.7085 -35.9501 -60.058 -91.9377 -159.495 -109.657l-38.6286 -6.88347c22.7981 14.9738 39.6748 21.5723 59.7242 42.5947c22.2094 22.2094 30.5587 47.2886 30.5587 73.4965zM777.472 64.4181
l4.98056 -5.26827l-10.4097 0.478576zM777.472 64.4181l126.28 111.407l-131.349 113.611l-23.2128 -26.3847l84.491 -70.7236l-307.316 -0.357564l1.90127 -36.1585l305.144 2.46572l-80.5632 -67.8125zM752.847 90.4654l-6.08428 -5.12132l0.628035 10.8927z
M528.267 155.812l0.376458 -7.15953l-7.54916 7.10157zM526.366 191.971c-2.63133 0 -5.26265 -0.0091847 -7.89398 -0.0091847l7.47932 7.89523zM749.19 263.052l-5.0735 -5.76678l-0.826693 10.7056zM903.752 175.825l6.44318 5.6843l0.0556798 -11.3055zM14.7013 341.119
c-1.0505 -1.81581 -1.0505 -1.81581 -8.65254 -15.3383l-6.65977 11.9069l13.1208 7.27534c0.115786 -0.210519 1.08999 -1.9418 2.19154 -3.84391zM14.7013 341.119c48.4783 -83.7099 134.263 -133.434 244.08 -133.621
c0.41819 0 0.824629 -0.000488281 1.21911 -0.000488281c31.1409 0.000488281 126.474 2.01962 203.613 79.1588c20.9833 20.9833 33.9549 41.8083 41.1579 54.4572c-13.7604 24.0559 -77.9859 133.955 -244.771 133.955c-101.679 0 -165.119 -40.5547 -202.817 -78.252
c-15.6604 -15.6604 -29.1755 -32.6973 -42.4819 -55.6976zM504.771 341.114c0.969945 1.70329 0.969945 1.70329 8.60128 15.4533l6.68866 -12.0292l-13.0862 -7.33726c0 0.0390876 -0.991602 1.79413 -2.20372 3.91316z" />
  </g>

</svg>
