<?xml version="1.0" standalone="no"?>
<!DOCTYPE svg PUBLIC "-//W3C//DTD SVG 1.1//EN" "http://www.w3.org/Graphics/SVG/1.1/DTD/svg11.dtd" >
<svg xmlns="http://www.w3.org/2000/svg" xmlns:xlink="http://www.w3.org/1999/xlink" version="1.1" viewBox="-10 0 954 1000">
  <g transform="matrix(1 0 0 -1 0 800)">
   <path fill="currentColor"
d="M628.426 355.972c2.14844 -38.1787 -15.9941 -146.932 -5.32129 -152.641c10.4775 -112.648 119.542 -217.9 119.68 -213.84l-18.4795 -12.3203c-41.5781 45.3516 -87.9707 90.2334 -123.324 213.12c-7.87012 -54.1094 -41.668 -114.713 -72.0361 -153.28
c-18.4785 -23.4658 -26.4004 -42.2393 -42.2402 -59.8398l-21.1201 16.7197c23.7607 30.7998 37.0967 50.6523 52.8008 71.2803c80.1777 105.321 83.5322 243.604 82.9102 316.862c7.46094 -0.165039 14.9219 -0.329102 22.3828 -0.494141
c4.19824 -0.0898438 4.36914 -4.16992 4.44141 -5.91309c0.00878906 -0.196289 -0.273438 -9.36328 0.306641 -19.6543zM815.145 377.721l-155.521 -175.482l20.377 -16.2383l132.48 153.93c11.0049 -18.2471 26.709 -39.8193 31.9375 -53.9805l37.1758 53.0098zM350 534
l-66.0674 -71.7334l69.5332 -65.3838l-15.4658 -12.8828l-69.667 65.667l-76.333 -69.667l-11.2334 12.2832l74.9658 68.1836l-63.7324 67.5332l13.7998 13.2002l64.9326 -63.9336l67.3008 67.083zM462.464 323.187l-0.0253906 -1.15527l0.0253906 1.15527
l0.0166016 0.619141zM349.305 681.085l0.291016 -0.344727l-0.291016 0.344727v0v0zM71.5049 334.662l0.213867 2.54883l-0.213867 -2.54883l-0.0439453 -0.287109zM99.7979 276.878l-1.49609 0.444336l1.49609 -0.444336l1.01562 -0.301758zM265.837 720.795
c51.1143 0 98.8281 -27.5576 136.691 -149.656c21.335 -69.5635 57.2764 -226.497 58.3369 -231.553c1.03027 -4.91602 1.50098 -9.61035 1.50098 -14.0605c0 -26.2285 -17.0244 -47.5479 -33.2637 -49.5703c-11.0762 -1.46875 -9.98438 -1.22363 -307.742 -1.35254
h-0.334961l-0.334961 0.0136719c-17.5195 0.769531 -24.4238 1.07227 -34.7598 11.4072c-11.5234 11.5234 -15.1387 24.8047 -15.1387 38.2178c0 12.2012 2.58594 22.7812 6.72852 39.7295l0.0292969 0.104492c8.93262 33.501 8.875 33.2705 33.6299 135.186
c27.6152 109.77 61.1553 221.534 154.657 221.534zM420.96 242.021c41.9629 0 69.0752 40.875 69.0752 81.0205c0 18.041 -4.40234 37.0127 -9.49609 58.2314c-10.7412 42.666 -21.2139 85.2148 -31.4707 127.846c-35.9619 144.887 -79.8037 244.694 -183.727 244.694
c-36.043 0 -91.5127 -15.3848 -131.534 -97.2637c-25.5527 -52.3643 -34.0752 -84.7852 -73.2393 -245.902c-16.1416 -59.1416 -17.9277 -74.2666 -17.9277 -84.9082c0 -3.56348 0.634766 -40.4688 26.4834 -66.3184c16.5156 -16.5156 34.3926 -17.21 51.7012 -17.7676
c0.53418 -0.0166016 25.2568 -0.03125 60.3076 -0.03125c82.7061 0 222.918 0.0810547 238.551 0.401367h0.474609c0.412109 -0.00488281 0.535156 -0.00195313 0.801758 -0.00195313z" />
  </g>

</svg>
