<?xml version="1.0" standalone="no"?>
<!DOCTYPE svg PUBLIC "-//W3C//DTD SVG 1.1//EN" "http://www.w3.org/Graphics/SVG/1.1/DTD/svg11.dtd" >
<svg xmlns="http://www.w3.org/2000/svg" xmlns:xlink="http://www.w3.org/1999/xlink" version="1.1" viewBox="-10 0 1023 1000">
  <g transform="matrix(1 0 0 -1 0 800)">
   <path fill="currentColor"
d="M30.3242 741.553h55.5146l17.1611 52.2256l17.1602 -52.2256h55.5156l-44.8672 -32.2959l17.1611 -52.2246l-44.9697 32.2959l-44.9707 -32.2959l17.1611 52.2246zM271 608l-12 60c128.725 89.7881 355.203 55.3633 442.457 48.5605
c0 -0.0107422 0.000976562 -0.0214844 0.000976562 -0.0322266c27.4463 0.582031 75.1855 -1.32129 107.268 -33.4033c40.1396 -40.1396 38.6152 -108.841 37.5254 -169.365c-0.395508 -21.9258 -0.433594 -33.2402 -0.22168 -41.9463
c26.3789 -43.8281 72.168 -89.959 89.3252 -129.607c6.95117 -16.0635 5.49219 -24.7637 2.64551 -40.2051l-12 -14l-79.501 -63.5771v-212.431c1.93945 -31.0869 1.82422 -79.2412 -27.416 -108.48c-26.0322 -26.0322 -182.507 -12.0195 -220.584 -13.0049
l-2.90137 0.0126953c-103.732 -7.2998 -296.108 50.6025 -326.603 92.1719c-18.5059 25.2275 -31.4014 41.2529 -57.9951 55.3086v70.0371c25.8174 -16.2627 49.624 -17.8066 70.1904 -60.6357c44.2188 -92.082 349.455 -105.734 451.309 -108.438l-0.499023 -0.962891
c50 12 34.1514 4.48145 42.5352 13.5361c19.1768 20.7119 3.97852 41.9688 5.50781 57.9648h-0.541992v2.14941c-0.253906 0.990234 -0.500977 1.94141 -0.738281 2.84863h0.738281v207.174v3.4873v1.33887h1.58203l104 88h1.13281
c4.9834 45.8955 -62.8379 92.1289 -94.2158 139.501l-3 4l-1 1c-2.02051 3.99219 0.0439453 4.02539 -2.08398 11.5605c-0.0371094 0.130859 -0.189453 0.24707 -0.174805 0.367188l0.258789 2.07227l0.0644531 1.49902
c0.00976562 0.226562 0.150391 3.89551 0.242188 6.24414c3.11426 79.1523 5.19727 173.389 -83.8154 173.771c-136.35 16.7461 -373.536 9.53418 -431.49 -46.5137zM567.787 257.605v24.4443h36.7871v29.5889h-36.7871v24.4443h36.7871v32.1094h21.3184v-32.1094h30.6836
v29.7656h21.3184v-29.7656h39.3262v-24.4443h-39.3262v-29.5889h39.3262v-24.4443h-39.3262v-34.4629h-21.3184v34.4629h-30.6836v-32.1191h-21.3184v32.1191h-36.7871zM641.094 396.193l-72.2178 130.734l15.0176 6.34375l57.6543 -99.0361l52.5625 100.009
l17.8896 -7.24414zM656.576 311.639h-30.6836v-29.5889h30.6836v29.5889zM424.853 356.443l-82.334 149.05l9.50293 4.01562l73.6562 -126.522l67.1211 127.71l12.8477 -5.20312zM413.339 301.216c45.6504 0 82.8301 -30.3057 82.8301 -67.5957
c0 -37.29 -37.1797 -67.6494 -82.8301 -67.6494c-45.6494 0 -82.8291 30.3047 -82.8291 67.5947c0 37.2891 37.1797 67.6504 82.8291 67.6504zM413.339 171.47c42.625 0 77.3311 27.8301 77.3311 62.0957c0 34.2646 -34.7061 62.1494 -77.3311 62.1494
s-77.3291 -27.8301 -77.3291 -62.0947c0 -34.2656 34.7041 -62.1504 77.3291 -62.1504zM374.234 230.266l-5.5 -1.26562c10.834 -44.1396 77.5146 -42.252 89.2656 0l-5.50098 1.54004c-10.4912 -37.1016 -68.2568 -38.8135 -78.2646 -0.274414zM430.5 267.215
c0 4.15723 2.96875 7.52344 6.73242 7.52344c3.76172 0 6.73145 -3.36621 6.73145 -7.52344c0 -4.15918 -2.96973 -7.52539 -6.73145 -7.52539c-3.76367 0 -6.73242 3.36621 -6.73242 7.52539zM382.583 267.609c0 3.96094 2.9707 7.12891 6.73242 7.12891
s6.73242 -3.16797 6.73242 -7.12891c0 -3.95898 -2.9707 -7.12695 -6.73242 -7.12695s-6.73242 3.16797 -6.73242 7.12695z" />
  </g>

</svg>
