<?xml version="1.0" standalone="no"?>
<!DOCTYPE svg PUBLIC "-//W3C//DTD SVG 1.1//EN" "http://www.w3.org/Graphics/SVG/1.1/DTD/svg11.dtd" >
<svg xmlns="http://www.w3.org/2000/svg" xmlns:xlink="http://www.w3.org/1999/xlink" version="1.1" viewBox="-10 0 1014 1000">
  <g transform="matrix(1 0 0 -1 0 800)">
   <path fill="currentColor"
d="M30.3242 741.553h55.5146l17.1611 52.2256l17.1602 -52.2256h55.5156l-44.8672 -32.2959l17.1611 -52.2246l-44.9697 32.2959l-44.9707 -32.2959l17.1611 52.2246zM271 608l-12 60c128.725 89.7881 355.203 55.3633 442.457 48.5605
c0 -0.0107422 0.000976562 -0.0214844 0.000976562 -0.0322266c27.4463 0.582031 75.1855 -1.32129 107.268 -33.4033c40.1396 -40.1396 38.6152 -108.841 37.5254 -169.365c-0.395508 -21.9258 -0.433594 -33.2402 -0.22168 -41.9463
c26.3789 -43.8281 72.168 -89.959 89.3252 -129.607c6.95117 -16.0635 5.49219 -24.7637 2.64551 -40.2051l-12 -14l-79.501 -63.5771v-212.431c1.93945 -31.0869 1.82422 -79.2412 -27.416 -108.48c-26.0322 -26.0322 -182.507 -12.0195 -220.584 -13.0049
l-2.90137 0.0126953c-103.732 -7.2998 -296.108 50.6025 -326.603 92.1719c-18.5059 25.2275 -31.4014 41.2529 -57.9951 55.3086v70.0371c25.8174 -16.2627 49.624 -17.8066 70.1904 -60.6357c44.2188 -92.082 349.455 -105.734 451.309 -108.438l-0.499023 -0.962891
c50 12 34.1514 4.48145 42.5352 13.5361c19.1768 20.7119 3.97852 41.9688 5.50781 57.9648h-0.541992v2.14941c-0.253906 0.990234 -0.500977 1.94141 -0.738281 2.84863h0.738281v207.174v3.4873v1.33887h1.58203l104 88h1.13281
c4.9834 45.8955 -62.8379 92.1289 -94.2158 139.501l-3 4l-1 1c-2.02051 3.99219 0.0439453 4.02539 -2.08398 11.5605c-0.0371094 0.130859 -0.189453 0.24707 -0.174805 0.367188l0.258789 2.07227l0.0644531 1.49902
c0.00976562 0.226562 0.150391 3.89551 0.242188 6.24414c3.11426 79.1523 5.19727 173.389 -83.8154 173.771c-136.35 16.7461 -373.536 9.53418 -431.49 -46.5137zM402 119c-0.0986328 0 -0.535156 0.186523 -0.535156 0.59668
c0 0.0644531 0.00878906 0.12793 0.0244141 0.185547c-0.245117 4.79102 -0.491211 9.58301 -0.737305 14.375l176.562 18.1094c-1.70508 0.162109 -3.26953 0.311523 -3.28711 0.313477c-18.2139 3.10059 -24.9629 11.6699 -24.9629 29.6357
c0 40.4873 34.043 107.876 40.9229 143.888c0.316406 1.6582 2.49121 2.88867 2.49121 4.12988c0 0.0849609 0.448242 1.15527 0.360352 1.7998l0.720703 -0.720703c0.0175781 -0.573242 0.442383 -0.961914 0.459961 -1.53613v0
c8.14844 -39.1973 38.9512 -91.166 38.9512 -128.447c0 -12.2529 -3.6377 -21.3408 -9.17285 -32.542c-1.27637 -2.58594 -2.84668 -5.76465 -4.91113 -10.1445c-0.168945 -0.358398 -1.65918 -1.94043 -8.66895 -7.95605l-4.85254 2.02148l-0.547852 1.63965
c0.142578 0.135742 9.74512 9.67676 10.2676 16.8662c0.251953 3.46777 0.371094 6.79297 0.371094 9.98242c0 32.2734 -12.1465 50.7754 -21.3096 64.751c-2.89551 4.41699 -5.50098 8.38379 -7.3291 12.208c-7.86914 -24.6699 -25.2988 -50.1152 -25.2988 -74.4434
c0 -12.0498 6.69531 -21.4551 6.84082 -21.5996c3.42285 -3.42285 5.71191 -5.81445 13.8594 -8.2373v-1.10645l0.503906 0.0517578c1.76855 4.31641 6.06738 8.41113 11.1602 8.41113c7.63867 0 11.3838 -6.71777 11.3838 -12.1279
c0 -5.61816 -12.791 -10.6475 -13.4746 -10.6475c-0.316406 0 -0.685547 0.150391 -0.995117 0.380859c-4.52246 -0.699219 -129.384 -14.3926 -185.75 -19.5088c-1.55762 -0.140625 -2.55273 -0.224609 -2.90039 -0.245117c0 0 -0.0390625 -0.0830078 -0.145508 -0.0830078
zM360.989 469.485c-15.6523 0 -28.3311 12.6797 -28.3311 28.332c0 15.6533 12.6787 28.332 28.3311 28.332c15.6543 0 28.333 -12.6777 28.333 -28.332c0 -15.6533 -12.6787 -28.332 -28.333 -28.332zM360.989 511.152c-7.35742 0 -13.334 -5.97656 -13.334 -13.335
c0 -7.35742 5.97656 -13.335 13.334 -13.335c7.35938 0 13.3359 5.97656 13.3359 13.335c0 7.35938 -5.97656 13.335 -13.3359 13.335zM403.519 494.506c0 35.5596 21.5234 80.2871 48.5762 102.541c2.75977 2.75977 0.686523 7.32031 -2.31934 7.91602
c-6.69141 1.3291 -16.9385 2.10645 -23.9775 2.10645c-58.4932 -2.21777 -107.007 -51.6973 -106.476 -111.602c1.28711 -60.0957 50.75 -106.756 111.385 -106.756c6.32129 0 15.626 -0.849609 15.9395 5.65137c0 2.06836 -2.27148 4.4248 -3.43555 5.58984
c-22.4893 22.4893 -39.6924 63.0996 -39.6924 94.5527zM296.803 497.597c0 73.1494 59.3496 132.499 132.498 132.499c7.46875 0 18.4199 -1.08008 25.7441 -2.52539c5.28027 -1.1123 9.79395 -3.76074 13.291 -7.25684c11.0732 -11.0742 11.8457 -30.999 -1.29492 -41.6611
c-22.1328 -17.9434 -40.041 -56.125 -40.041 -84.6523c0 -25.3311 15.6523 -61.6992 34.2715 -79.0312c12.4414 -11.6143 10.7725 -30.5137 0.345703 -40.9395c-3.98926 -3.98926 -9.3418 -6.83594 -15.5732 -7.49316c-5.15918 -0.68457 -12.4277 -1.13477 -17.627 -1.13477
c-71.5088 0.691406 -131.614 59.7598 -131.614 132.195z" />
  </g>

</svg>
