<?xml version="1.0" standalone="no"?>
<!DOCTYPE svg PUBLIC "-//W3C//DTD SVG 1.1//EN" "http://www.w3.org/Graphics/SVG/1.1/DTD/svg11.dtd" >
<svg xmlns="http://www.w3.org/2000/svg" xmlns:xlink="http://www.w3.org/1999/xlink" version="1.1" viewBox="-10 0 1014 1000">
  <g transform="matrix(1 0 0 -1 0 800)">
   <path fill="currentColor"
d="M439.792 412.478c24.043 26.6377 86.4707 95.8066 172.39 95.8066c32.8418 0 58.1963 -10.3018 73.0342 -18.5938l5.37695 -3.00391v-296.475c-27.5752 10.7168 -48.7109 18.2725 -77.8467 18.2725c-40.0566 0 -101.368 -14.8652 -169.456 -84.249l-7.43848 -7.58008
c-25.8076 25.8965 -86.0518 86.3447 -176.852 86.3447c-17.835 0 -44.1572 -4.50391 -64.0596 -10.8223l-13.6875 -4.3457v298.696c12.9893 6.71289 40.5059 20.9365 82.3135 20.9365c42.9922 0 98.4775 -15.8994 156.993 -74.4121
c5.67871 -5.67871 7.34277 -7.41992 19.2324 -20.5752zM166.968 496.352c-0.539062 0 -0.539062 0 -12.9512 1.99023l37.8232 12.957c-20.1582 -13.1865 -20.1582 -13.1865 -20.4404 -13.3955c-0.717773 -0.53125 -2.2959 -1.55176 -4.43164 -1.55176zM706.284 492.315
c-0.37793 1.31445 -0.755859 2.62793 -1.13281 3.94238l5.76465 1.66406c0.429688 -1.49512 0.859375 -2.99121 1.29004 -4.4873c-1.97461 -0.373047 -3.94824 -0.746094 -5.92188 -1.11914zM435.832 94.0566c25.1709 27.8848 90.0283 99.7344 176.806 99.7344
c7.35938 0 14.3271 -0.535156 20.8643 -1.46387c34.5049 -4.90137 55.9561 -20.2988 59.7373 -23.1729l12.1738 -9.46777v334.583l-2.99805 2.24902c-0.880859 0.661133 -36.4365 25.9902 -90.8418 25.9902c-43.5215 0 -101.681 -16.2041 -164.486 -80.0244
l-7.46777 -7.58789c-26.5488 26.8301 -86.3799 87.2959 -174.747 87.2959c-41.8047 0 -75.0557 -13.9502 -93.3555 -24.4463c-1.21387 -0.609375 -1.38867 -0.703125 -5.2627 -3.33984v-333.24c11.6738 7.51172 11.6738 7.51172 11.7422 7.55078
c4.45508 2.5459 35.5918 19.9014 81.1045 19.9014c43.0977 0 99.084 -15.5615 157.515 -73.9922c5.62109 -5.62012 7.06348 -7.11816 19.2168 -20.5693zM435.833 94.0566c2.27637 -2.52148 2.28613 -2.53125 2.56152 -2.84375h-0.99707l0.00585937 0.229492
c-0.782227 -0.172852 -1.56348 -0.345703 -2.3457 -0.518555l-2.09277 -0.462891l0.0976562 0.320312l-0.206055 0.0136719c0.294922 0.275391 0.294922 0.275391 0.509766 0.975586l0.27832 -0.138672zM436.858 90.0225l0.373047 -1.85254h-3.18652l0.0898438 2.54102
c0.737305 0.172852 1.48438 0.336914 2.23047 0.501953h1.03223l-0.0410156 -1.43945zM437.356 89.7734l1.30078 -0.651367c-1.07715 -1.47559 -1.17383 -1.6123 -1.25488 -1.79688l-0.170898 0.844727h0.0810547zM434.045 88.1699l-0.0371094 -1.0459
c-0.300781 0.333984 -0.938477 1.0459 -0.938477 1.0459h0.975586zM651.86 376.563v18.1309h-60.6084v46.1426h-18.1309v-46.1426h-60.6084v-18.1309h60.6084v-124.308h18.1309v124.308h60.6084zM828.399 483.872c0 9.49878 0.360099 25.4826 0.360099 28.905
l-0.318652 61.3747l-8.69455 54.78l-24.0577 41.7601l-29.8355 19.1251l-33.9409 8.02542l-47.9505 1.85133v0.765382l-107.704 8.96128l-161.614 -4.8437l-135.511 -48.0118l4.97421 -24.8711l90.1513 34.2037l168.519 13.9909l163.859 -8.05849l72.0585 -32.0852
l24.6852 -76.5829c-11.2968 -92.7231 -11.5388 -94.7093 -10.6225 -98.1968c0.272553 -1.03738 0.408327 -1.98777 0.495372 -2.92219c0.487753 -0.641757 1.13403 -1.58506 1.4862 -2.05622l30.4464 -40.7334l38.0432 -60.0682l23.93 -33.502l-96.7113 -80.2498
l-3.19974 -219.288c0.962733 -7.56244 2.78458 -22.0112 5.01798 -45.877c-0.12894 -0.269919 -9.65147 -20.9678 -12.8349 -27.02c-1.80565 -3.43278 -3.36365 -6.39475 -8.94453 -11.1259c-28.726 -6.87192 -37.6748 -9.01268 -53.7943 -9.01268
c-3.38415 0 -6.77838 0.14333 -10.1737 0.446144l-127.95 -3.2205l-189.706 31.9736l-119.91 72.0259l-21.8729 31.5454c-0.18608 0.126152 -14.9542 10.3475 -18.5829 12.6523v-31.4635c5.41685 -3.87145 13.5068 -7.36272 24.4398 -17.2503
c7.32645 -6.62591 2.09556 -4.45645 10.6241 -11.9264c1.03002 -0.902171 1.03002 -0.902171 17.2005 -21.8062l70.2643 -41.1391l123.979 -35.7692l40.8353 -3.74581c52.8258 -4.90757 59.0669 -6.73248 83.0467 -7.42728l68.08 -1.97257l89.7606 0.254271l51.1066 12.4914
l15.1376 25.2075l6.27671 34.16l-0.268638 82.9487l0.0291888 84.2282l-0.00582149 87.5189l84.7837 67.8016l7.68593 8.96692l1.11464 7.19504c0.44913 7.61262 -1.52476 12.8022 -3.31214 18.1783l-23.3304 38.8443l-33.0243 43.448l-34.3179 48.9016
c-0.202711 16.1296 -0.202711 16.1296 -0.202711 17.6951zM48.3545 723.521h55.5146l17.1611 52.2256l17.1602 -52.2256h55.5156l-44.8672 -32.2959l17.1611 -52.2246l-44.9697 32.2959l-44.9707 -32.2959l17.1611 52.2246z" />
  </g>

</svg>
