<?xml version="1.0" standalone="no"?>
<!DOCTYPE svg PUBLIC "-//W3C//DTD SVG 1.1//EN" "http://www.w3.org/Graphics/SVG/1.1/DTD/svg11.dtd" >
<svg xmlns="http://www.w3.org/2000/svg" xmlns:xlink="http://www.w3.org/1999/xlink" version="1.1" viewBox="-10 0 1223 1000">
  <g transform="matrix(1 0 0 -1 0 800)">
   <path fill="currentColor"
d="M624 353.474h-192.094v-353.474h192.094v353.474zM404.077 387.067h247.752v-420.661h-247.752v420.661zM458.556 161.946c0.0517578 45.1631 54.3789 69.3154 83.8936 39.8018c7.97266 -7.97266 12.9189 -18.9805 12.9355 -31.1377l0.0107422 -6.87109h-18.9707
c-0.00390625 2.2832 -0.0078125 4.56641 -0.0117188 6.85059c-0.0224609 13.8291 -11.2803 25.0996 -25.1113 25.1221c-18.3945 0 -33.7734 -14.8408 -33.7734 -33.8789c0 -24.5713 19.9541 -44.5918 44.5303 -44.6416c32.9912 0.0273438 58.2842 27.2539 58.0869 58.2393
c0 41.3652 -33.583 74.9863 -74.9434 75.0391l-6.85156 0.00976563v18.9707c2.29004 -0.00292969 4.58008 -0.00585937 6.86914 -0.00878906c51.5771 -0.0615234 93.8984 -41.8564 93.8984 -94.1162c0 -42.5479 -34.5234 -77.0732 -77.0674 -77.1055
c-34.7998 0.0634766 -63.4951 28.2422 -63.4951 63.7266zM711.257 652.282h196.858v-745.557h-767.779v745.557h196.651l0.495203 -222.822l371.108 -1.92284zM945.891 709.501h-272.494l0.105443 -218.946l-292.798 -2.10646l-6.00143 221.053h-272.143v-859.998h843.332
v859.998z" />
  </g>

</svg>
