<?xml version="1.0" standalone="no"?>
<!DOCTYPE svg PUBLIC "-//W3C//DTD SVG 1.1//EN" "http://www.w3.org/Graphics/SVG/1.1/DTD/svg11.dtd" >
<svg xmlns="http://www.w3.org/2000/svg" xmlns:xlink="http://www.w3.org/1999/xlink" version="1.1" viewBox="-10 0 1008 1000">
  <g transform="matrix(1 0 0 -1 0 800)">
   <path fill="currentColor"
d="M348.481 97.6934l-82.2217 148.848l24.0225 10.1475l58.4395 -100.383l53.3027 101.418l27.2285 -11.0254zM265.568 -67.707v34.6641h38.626v22.0713h-38.626v34.6641h38.626v33.7148h31.3828v-33.7148h23.2197v31.2539h31.3828v-31.2539h41.292v-34.6641h-41.292
v-22.0713h41.292v-34.6641h-41.292v-36.1855h-31.3828v36.1855h-23.2197v-33.7246h-31.3828v33.7246h-38.626zM335.577 -33.043h23.2197v22.0713h-23.2197v-22.0713zM780.659 223.904c-0.529297 0 -0.985352 0.173828 -1.32227 0.358398l-214.094 -88.2627v-37.8242
c12.126 5.10742 24.251 10.2148 36.376 15.3213v-3.77051l-0.21875 -161.659h318.305l0.646484 155.446c10.9619 -6.48535 21.9238 -12.9697 32.8867 -19.4551l-0.677734 40.7051l-136.33 79.1182l1.46387 0.616211c-22.6963 11.7715 -24.457 12.7314 -36.2109 19.5508
c-0.288086 -0.102539 -0.56543 -0.144531 -0.824219 -0.144531zM884.594 -16.7148h-248.003l-0.665039 144.662l142.009 59.8174l107.859 -63.8086zM63.3545 -23.4795h55.5146l17.1611 52.2256l17.1602 -52.2256h55.5156l-44.8672 -32.2959l17.1611 -52.2246
l-44.9697 32.2959l-44.9707 -32.2959l17.1611 52.2246zM431.479 500.348h-158.604l-50.8164 269.652h256.94zM462.117 758.232l-222.972 -1.2793l44.5605 -245.478l136.774 1.2793zM334.114 600.703c13.0664 0 17.833 0.0136719 22.9268 -0.570312
c6.31543 -0.725586 12.1777 3.56055 12.7119 4.09473c0.211914 0.211914 11.3057 11.6865 10.8262 27.9717c-0.220703 5.73535 -4.88184 15.21 -10.8672 19.1611c-5.25 2.9707 -16.041 5.85059 -21.9521 5.85059c-9.54785 0 -37.3711 -5.69043 -37.3711 -29.9834
c0 -5.67285 3.98438 -15.748 8.31934 -20.083c3.15625 -3.15625 11.0586 -6.44141 15.4062 -6.44141zM371.828 601.48c0 0 -2.34766 2.47949 -2.37012 2.45801zM334.829 584.222c-8.08105 -0.31543 -20.6025 3.8916 -28.1055 11.6729
c-7.10547 7.2002 -13.1631 20.4141 -12.9463 32.3486c0.410156 21.5195 16.4922 39.834 43.2969 44.4346c0.305664 13.0576 2.28125 33.4277 15.0479 46.1943c5.41797 5.41797 15.5508 10.4658 25.5977 10.1865l5.83203 -0.163086v-16.4609
c-8.80078 0.264648 -9.0625 0.272461 -12.8359 -1.14258c-2.87012 -1.07715 -5.64551 -2.75391 -6.96484 -4.07324c-4.81836 -4.81738 -9.41309 -15.0664 -10.1406 -33.748c9.57422 -0.96875 19.5674 -4.71289 24.7871 -8.07227
c1.95117 -1.25684 3.79785 -2.78516 5.52637 -4.51367c5.93164 -5.93164 13.6045 -16.7871 13.0439 -32.9287c-0.663086 -15.3408 -10.415 -30.8096 -16.4834 -36.1191c-5.03809 -4.41992 -13.5547 -8.08691 -21.6299 -8.10742
c-4.05371 -0.126953 -11.5928 0.977539 -24.0254 0.492188zM787 496h-158.604l-50.8164 269.652h256.94zM817.638 753.885l-222.972 -1.2793l44.5605 -245.478l136.774 1.2793zM689.635 596.355c13.0664 0 17.833 0.0136719 22.9268 -0.570312
c6.31543 -0.725586 12.1777 3.56055 12.7119 4.09473c0.211914 0.211914 11.3057 11.6865 10.8262 27.9717c-0.220703 5.73535 -4.88184 15.21 -10.8672 19.1611c-5.25 2.9707 -16.041 5.85059 -21.9521 5.85059c-9.54785 0 -37.3711 -5.69043 -37.3711 -29.9834
c0 -5.67285 3.98438 -15.748 8.31934 -20.083c3.15625 -3.15625 11.0586 -6.44141 15.4062 -6.44141zM727.349 597.133c0 0 -2.34766 2.47949 -2.37012 2.45801zM690.35 579.874c-8.08105 -0.31543 -20.6025 3.8916 -28.1055 11.6729
c-7.10547 7.2002 -13.1631 20.4141 -12.9463 32.3486c0.410156 21.5195 16.4922 39.834 43.2969 44.4346c0.305664 13.0576 2.28125 33.4277 15.0479 46.1943c5.41797 5.41797 15.5508 10.4658 25.5977 10.1865l5.83203 -0.163086v-16.4609
c-8.80078 0.264648 -9.0625 0.272461 -12.8359 -1.14258c-2.87012 -1.07715 -5.64551 -2.75391 -6.96484 -4.07324c-4.81836 -4.81738 -9.41309 -15.0664 -10.1406 -33.748c9.57422 -0.96875 19.5674 -4.71289 24.7871 -8.07227
c1.95117 -1.25684 3.79785 -2.78516 5.52637 -4.51367c5.93164 -5.93164 13.6045 -16.7871 13.0439 -32.9287c-0.663086 -15.3408 -10.415 -30.8096 -16.4834 -36.1191c-5.03809 -4.41992 -13.5547 -8.08691 -21.6299 -8.10742
c-4.05371 -0.126953 -11.5928 0.977539 -24.0254 0.492188z" />
  </g>

</svg>
