<?xml version="1.0" standalone="no"?>
<!DOCTYPE svg PUBLIC "-//W3C//DTD SVG 1.1//EN" "http://www.w3.org/Graphics/SVG/1.1/DTD/svg11.dtd" >
<svg xmlns="http://www.w3.org/2000/svg" xmlns:xlink="http://www.w3.org/1999/xlink" version="1.1" viewBox="-10 0 1008 1000">
  <g transform="matrix(1 0 0 -1 0 800)">
   <path fill="currentColor"
d="M467.75 352.669h-247.818l-79.3994 421.331h401.468zM515.621 755.613l-348.394 -2l69.627 -383.559l213.71 2zM315.615 509.473c20.417 0 27.8662 0.0224609 35.8252 -0.891602c9.86719 -1.13184 19.0264 5.56543 19.8613 6.39941
c0.331055 0.331055 17.665 18.2607 16.917 43.7051c-0.345703 8.96289 -7.62891 23.7656 -16.9814 29.9404c-8.20215 4.64062 -25.0635 9.14062 -34.2988 9.14062c-14.918 0 -58.3926 -8.89062 -58.3926 -46.8486c0 -8.86523 6.22559 -24.6064 12.998 -31.3789
c4.93164 -4.93164 17.2793 -10.0664 24.0713 -10.0664zM374.544 510.688c0 0 -3.66797 3.87402 -3.70312 3.84082zM316.732 483.722c-12.625 -0.492188 -32.1904 6.08105 -43.915 18.2393c-11.1016 11.25 -20.5664 31.8965 -20.2275 50.5449
c0.641602 33.623 25.7686 62.2393 67.6523 69.4287c0.476562 20.4023 3.56348 52.2305 23.5117 72.1777c8.46582 8.4668 24.2979 16.3525 39.9971 15.916l9.11035 -0.253906v-25.7197c-13.751 0.414062 -14.1592 0.425781 -20.0537 -1.78711
c-4.48535 -1.68262 -8.82227 -4.30176 -10.8838 -6.3623c-7.52832 -7.52832 -14.708 -23.542 -15.8447 -52.7324c14.96 -1.51367 30.5752 -7.36328 38.7295 -12.6123c3.05078 -1.96387 5.93457 -4.35156 8.63574 -7.05371
c9.26758 -9.26758 21.2559 -26.2295 20.3809 -51.4502c-1.03711 -23.9707 -16.2734 -48.1406 -25.7559 -56.4365c-7.87207 -6.90723 -21.1787 -12.6357 -33.7969 -12.668c-6.33398 -0.198242 -18.1133 1.52637 -37.54 0.769531zM348.481 97.6934l-82.2217 148.848
l24.0225 10.1475l58.4395 -100.383l53.3027 101.418l27.2285 -11.0254zM265.568 -67.707v34.6641h38.626v22.0713h-38.626v34.6641h38.626v33.7148h31.3828v-33.7148h23.2197v31.2539h31.3828v-31.2539h41.292v-34.6641h-41.292v-22.0713h41.292v-34.6641h-41.292v-36.1855
h-31.3828v36.1855h-23.2197v-33.7246h-31.3828v33.7246h-38.626zM335.577 -33.043h23.2197v22.0713h-23.2197v-22.0713zM780.659 223.904c-0.529297 0 -0.985352 0.173828 -1.32227 0.358398l-214.094 -88.2627v-37.8242c12.126 5.10742 24.251 10.2148 36.376 15.3213
v-3.77051l-0.21875 -161.659h318.305l0.646484 155.446c10.9619 -6.48535 21.9238 -12.9697 32.8867 -19.4551l-0.677734 40.7051l-136.33 79.1182l1.46387 0.616211c-22.6963 11.7715 -24.457 12.7314 -36.2109 19.5508
c-0.288086 -0.102539 -0.56543 -0.144531 -0.824219 -0.144531zM884.594 -16.7148h-248.003l-0.665039 144.662l142.009 59.8174l107.859 -63.8086zM63.3545 -23.4795h55.5146l17.1611 52.2256l17.1602 -52.2256h55.5156l-44.8672 -32.2959l17.1611 -52.2246
l-44.9697 32.2959l-44.9707 -32.2959l17.1611 52.2246zM792.468 614.725h-0.142578c-11.5391 0 -27.54 6.6084 -35.7148 14.752c-16.6953 16.748 -19.7402 42.998 -7.82324 67.043c4.04297 8.1377 8.82031 16.0654 13.4404 23.7295
c2.4668 4.04297 4.93457 8.1377 7.24512 12.2334l16.6953 29.2422l0.787109 1.52246c3.6748 7.19238 4.62012 8.97754 6.71973 8.97754h0.99707c1.78516 -0.735352 2.94043 -2.99219 4.46387 -6.35254c0.261719 -0.577148 0.47168 -1.10254 0.629883 -1.3125
l25.8828 -45.4121c1.83691 -3.20312 3.83203 -6.2998 5.82617 -9.4502c3.70996 -5.41992 8.83691 -14.71 11.4453 -20.7373c0.629883 -1.54004 1.17285 -3.11523 1.62793 -4.72559c1.23633 -4.15039 2.23926 -11.0332 2.23926 -15.3633
c0 -24.6416 -19.6543 -48.335 -43.8721 -52.8867c-2.84961 -0.628906 -7.5293 -1.19336 -10.4473 -1.25977zM793.675 764.665c-0.787109 -1.41797 -1.5752 -3.0459 -1.99414 -3.9375l-0.946289 -1.83789l-16.6943 -29.1377
c-2.3623 -4.14746 -4.8291 -8.24219 -7.34961 -12.3369c-4.56738 -7.56055 -9.29199 -15.3838 -13.2295 -23.3105c-10.9209 -22.1543 -8.29688 -46.043 6.77148 -60.9004c7.39062 -7.33887 21.8438 -13.2959 32.2588 -13.2959c2.60059 0 6.77539 0.429688 9.32129 0.958984
c22.002 4.00781 39.8574 25.4121 39.8574 47.7764c0 4.04492 -0.96875 10.4658 -2.16309 14.3311c-0.418945 1.46973 -0.90918 2.9043 -1.46973 4.30469c-2.50879 5.76465 -7.42383 14.6553 -10.9717 19.8447c-2.04785 3.20312 -4.0957 6.40527 -5.98535 9.66113
l-25.8818 44.9395c0 0.367188 -0.526367 0.998047 -0.84082 1.78516zM795.685 551.499c0.0869141 0.000976562 0.228516 0.000976562 0.31543 0.000976562c43.4707 0 78.75 -35.2793 78.75 -78.75c0 -43.4697 -35.2803 -78.75 -78.75 -78.75s-78.75 35.2803 -78.75 78.75
c0 43.2969 35.1396 78.5762 78.4346 78.749zM795.685 399.249h0.31543c40.5723 0 73.5 32.9277 73.5 73.499v0.00195312c0 40.5713 -32.9287 73.499 -73.5 73.499c-40.5723 0 -73.5 -32.9287 -73.5 -73.501c0 -40.3975 32.7861 -73.3252 73.1846 -73.499zM824.561 472.75
c-0.731445 -36.1982 -57.0195 -36.2256 -57.75 0c0.730469 36.1973 57.0186 36.2246 57.75 0zM772.06 472.75c0.727539 -29.4141 46.5234 -29.3916 47.25 0c-0.726562 29.4131 -46.5234 29.3906 -47.25 0z" />
  </g>

</svg>
