<?xml version="1.0" standalone="no"?>
<!DOCTYPE svg PUBLIC "-//W3C//DTD SVG 1.1//EN" "http://www.w3.org/Graphics/SVG/1.1/DTD/svg11.dtd" >
<svg xmlns="http://www.w3.org/2000/svg" xmlns:xlink="http://www.w3.org/1999/xlink" version="1.1" viewBox="-10 0 1053 1000">
  <g transform="matrix(1 0 0 -1 0 800)">
   <path fill="currentColor"
d="M348.481 97.6934l-82.2217 148.848l24.0225 10.1475l58.4395 -100.383l53.3027 101.418l27.2285 -11.0254zM265.568 -67.707v34.6641h38.626v22.0713h-38.626v34.6641h38.626v33.7148h31.3828v-33.7148h23.2197v31.2539h31.3828v-31.2539h41.292v-34.6641h-41.292
v-22.0713h41.292v-34.6641h-41.292v-36.1855h-31.3828v36.1855h-23.2197v-33.7246h-31.3828v33.7246h-38.626zM335.577 -33.043h23.2197v22.0713h-23.2197v-22.0713zM780.659 223.904c-0.529297 0 -0.985352 0.173828 -1.32227 0.358398l-214.094 -88.2627v-37.8242
c12.126 5.10742 24.251 10.2148 36.376 15.3213v-3.77051l-0.21875 -161.659h318.305l0.646484 155.446c10.9619 -6.48535 21.9238 -12.9697 32.8867 -19.4551l-0.677734 40.7051l-136.33 79.1182l1.46387 0.616211c-22.6963 11.7715 -24.457 12.7314 -36.2109 19.5508
c-0.288086 -0.102539 -0.56543 -0.144531 -0.824219 -0.144531zM884.594 -16.7148h-248.003l-0.665039 144.662l142.009 59.8174l107.859 -63.8086zM63.3545 -23.4795h55.5146l17.1611 52.2256l17.1602 -52.2256h55.5156l-44.8672 -32.2959l17.1611 -52.2246
l-44.9697 32.2959l-44.9707 -32.2959l17.1611 52.2246zM183.513 465.645l24.0596 0.395508l336.74 0.80957v-22.2324l-125.601 -0.957031v-108.54l-208.399 112.125l-7.59961 4.7998c-2.09473 0 -17.1055 13.5996 -19.2002 13.5996zM906.162 313.151
c0.402344 0.015625 25.8164 0.00195312 25.8242 0.0146484c-7.82812 32.834 -5.62891 43.4053 -2.77441 52.6182c0.0263672 0.0830078 2.23633 7.7207 2.53711 8.32227l18.4629 36.9258c-9.44922 146.475 -9.44922 146.475 -9.39551 147.104
c3.10352 36.8506 5.81055 79.8359 2.64551 107.371c-8.22852 32.6807 -28.6445 25.7842 -33.4141 15.3311c-1.68555 -3.69434 -3.58398 -4.12891 -8.48633 -5.25195c-3.80957 -3.4082 -9.80371 -2.66211 -12.6533 1.62988
c-3.57324 5.37988 -20.1016 30.9756 -20.5371 31.8262c-5.97656 11.707 -29.0352 18.9082 -33.4414 -4.26562c-0.15918 -0.837891 -0.15918 -0.837891 -8.03027 -20.0225c-2.93164 -7.14648 -13.2695 -6.84863 -15.7812 0.458008l-14.8057 43.0693
c-3.95801 11.5137 -28.6523 20.709 -41.6982 -1.0957c-0.240234 -0.717773 -2.00293 -6.05859 -11.5225 -35.915c-2.06836 -6.49023 -10.7061 -7.97363 -14.8105 -2.45801c-12.1777 16.3623 -12.1777 16.3623 -12.3926 16.5771
c-0.0800781 0.0810547 -13.9082 13.8857 -21.7422 6.05176c-4.29004 -4.29004 -6.7168 -14.7627 -7.78516 -21.1855c0.0302734 -0.962891 0.22168 -6.64648 1.27734 -34.2139c0.626953 -17.167 1.39062 -53.8525 1.40625 -54.3965
c5.02148 -35.7871 2.69922 -36.9043 5.31055 -56.0518c0.19043 -0.737305 1.6377 -6.31641 9.15723 -34.7822c0.0732422 -0.279297 0.760742 -16.2158 -1.41895 -19.9229c-5.36133 -9.11133 -5.73242 -9.74414 -9.26953 -10.5537
c-13.9951 -3.20703 -18.4248 -0.388672 -23.1562 6.17871c-2.43457 3.37793 -18.9902 19.9697 -20.6553 21.8906l-34.6943 40.0322c-0.938477 0.621094 -5.75195 3.77441 -20.2373 12.9492c-0.845703 0.257812 -4.90039 1.46777 -17.1436 4.89551
c-3.42285 -1.87793 -7.50293 -0.745117 -10.5996 -3.84082c-2.24512 -2.24512 -4.83594 -9.76855 -4.01172 -14.0293l19.1406 -25.7432c3.68848 -3.45605 23.2822 -20.5361 24.2432 -21.6963c28.6025 -34.5898 28.6025 -34.5898 28.7402 -34.7773
c20.7871 -28.1631 20.7871 -28.1631 20.9434 -28.4062c18.7441 -29.457 18.7441 -29.457 19.0088 -30.0703l14.4775 -33.5596c3.99902 -6.2002 19.4609 -29.5283 19.874 -30.3154c6.51465 -12.376 6.51465 -12.376 6.75977 -13.4053
c4.84668 -20.3105 39.1738 -21.3223 39.624 -21.3301l37.5479 -0.670898zM931.987 296.286h-25.2959c-113.805 -4.72656 -113.805 -4.72656 -114.058 -4.72266l-37.8174 0.675781c-6.00391 0.112305 -46.9961 2.03027 -55.4336 33.1719l-5.37207 10.207
c-19.6611 29.8242 -19.3271 28.8369 -20.5166 31.5947l-14.3193 33.1963l-17.8701 28.0811l-20.3047 27.5098l-27.8848 33.7207c-23.9531 21.2148 -26.2734 26.1475 -27.1152 27.2793l-17.4658 21.6758c-7.00223 8.69004 -2.1084 27.7168 5.87305 35.6982
c4.67871 4.67871 9.0918 6.1084 15.6338 7.3125c3.61816 1.61816 7.69043 1.89844 11.4668 0.84082c17.8096 -4.98633 18.1963 -4.72266 21.3271 -6.70605c19.1104 -12.1025 20.5596 -12.5596 23.2979 -15.2969c0.318359 -0.319336 -0.411133 -0.987305 35.4922 -40.9043
c18.707 -20.7979 19.4365 -20.1309 22.123 -23.7705c0.443359 0.0390625 1.05273 0.114258 1.82227 0.240234l0.90332 1.53711l0.404297 10.0869c-8.99902 34.0498 -8.89844 33.1094 -9.2041 35.333c-2.81152 20.4727 -0.338867 20.7646 -5.39258 56.6416
c-0.0761719 0.551758 -1.08691 44.3623 -1.50293 55.7041c-1.34863 35.249 -1.67188 33.8604 -1.14551 37.1211c1.64258 10.1797 5.42871 33.6436 25.252 37.8242c16.4824 3.47656 32.46 -11.9971 34.6514 -14.9434l2.45508 -3.29785
c6.58594 20.8994 6.375 20.7607 7.91895 23.3857c20.4023 34.7002 63.7725 23.2744 72.3574 -1.69531l7.24219 -21.0713c10.1045 33.9531 50.7451 28.8975 63.6777 4.41895c0.151367 -0.234375 14.5273 -22.5693 15.0693 -23.4033
c14.1846 18.333 50.1055 21.4248 61.5654 -24.083c0.181641 -0.724609 0.316406 -1.46094 0.401367 -2.20117c3.45508 -30.0635 0.570312 -73.0576 -2.54395 -110.107l9.36914 -145.213c0.19043 -2.95117 -0.389648 -5.94336 -1.74219 -8.64648l-18.0537 -36.1074
c-0.518555 -2.01172 -1.12598 -4.02148 -1.92676 -6.60547c-2.24707 -7.25 -4.61914 -11.4277 3.07031 -43.6758c2.5293 -10.6006 -5.50586 -20.8057 -16.4092 -20.8057zM447.611 572.077l-180 0.600586v11.8779h161.389v67.4443h-161.389v11.8779l178.4 -1z" />
  </g>

</svg>
