<?xml version="1.0" standalone="no"?>
<!DOCTYPE svg PUBLIC "-//W3C//DTD SVG 1.1//EN" "http://www.w3.org/Graphics/SVG/1.1/DTD/svg11.dtd" >
<svg xmlns="http://www.w3.org/2000/svg" xmlns:xlink="http://www.w3.org/1999/xlink" version="1.1" viewBox="-10 0 1051 1000">
  <g transform="matrix(1 0 0 -1 0 800)">
   <path fill="currentColor"
d="M828.399 483.872c0 9.49878 0.360099 25.4826 0.360099 28.905l-0.318652 61.3747l-8.69455 54.78l-24.0577 41.7601l-29.8355 19.1251l-33.9409 8.02542l-47.9505 1.85133v0.765382l-107.704 8.96128l-161.614 -4.8437l-135.511 -48.0118l4.97421 -24.8711
l90.1513 34.2037l168.519 13.9909l163.859 -8.05849l72.0585 -32.0852l24.6852 -76.5829c-11.2968 -92.7231 -11.5388 -94.7093 -10.6225 -98.1968c0.272553 -1.03738 0.408327 -1.98777 0.495372 -2.92219c0.487753 -0.641757 1.13403 -1.58506 1.4862 -2.05622
l30.4464 -40.7334l38.0432 -60.0682l23.93 -33.502l-96.7113 -80.2498l-3.19974 -219.288c0.962733 -7.56244 2.78458 -22.0112 5.01798 -45.877c-0.12894 -0.269919 -9.65147 -20.9678 -12.8349 -27.02c-1.80565 -3.43278 -3.36365 -6.39475 -8.94453 -11.1259
c-28.726 -6.87192 -37.6748 -9.01268 -53.7943 -9.01268c-3.38415 0 -6.77838 0.14333 -10.1737 0.446144l-127.95 -3.2205l-189.706 31.9736l-119.91 72.0259l-21.8729 31.5454c-0.18608 0.126152 -14.9542 10.3475 -18.5829 12.6523v-31.4635
c5.41685 -3.87145 13.5068 -7.36272 24.4398 -17.2503c7.32645 -6.62591 2.09556 -4.45645 10.6241 -11.9264c1.03002 -0.902171 1.03002 -0.902171 17.2005 -21.8062l70.2643 -41.1391l123.979 -35.7692l40.8353 -3.74581
c52.8258 -4.90757 59.0669 -6.73248 83.0467 -7.42728l68.08 -1.97257l89.7606 0.254271l51.1066 12.4914l15.1376 25.2075l6.27671 34.16l-0.268638 82.9487l0.0291888 84.2282l-0.00582149 87.5189l84.7837 67.8016l7.68593 8.96692l1.11464 7.19504
c0.44913 7.61262 -1.52476 12.8022 -3.31214 18.1783l-23.3304 38.8443l-33.0243 43.448l-34.3179 48.9016c-0.202711 16.1296 -0.202711 16.1296 -0.202711 17.6951zM33.2949 712.521h55.5146l17.1611 52.2256l17.1602 -52.2256h55.5156l-44.8672 -32.2959
l17.1611 -52.2246l-44.9697 32.2959l-44.9707 -32.2959l17.1611 52.2246zM346.002 130.344h7.80078c0.192383 -5.37598 0.384766 -10.752 0.576172 -16.1279c29.7188 1.04004 56.5859 13.5576 76.2803 33.252c7.15918 7.15918 13.3701 15.2666 18.4268 24.1152
l-12.4805 6.62305l-1.53613 -2.43164l-76.5479 36.1172c-2.49707 -1.36719 -5.36328 -2.14453 -8.41211 -2.14453c-9.68359 0 -17.5322 7.84863 -17.5322 17.5332c0 7.40039 4.58398 13.7285 11.0684 16.3027v81.7607h1.7998v14.9404
c-15.3008 -0.720703 -58.8682 -6.62988 -88.0127 -49.1924c4.38477 -2.53027 8.76855 -5.06152 13.1523 -7.59277l-4.50098 -7.79492c-4.47949 2.58789 -8.95996 5.17383 -13.4395 7.75977c-9.50098 -16.5586 -14.9326 -35.7402 -14.9326 -56.1865
c0 -19.9404 5.19922 -38.7041 14.3174 -55.0049l13.9043 8.02734l4.5 -7.79492c-4.56641 -2.63672 -9.13379 -5.27344 -13.7002 -7.91016c19.585 -29.292 52.4414 -48.9727 89.8438 -50.3711c-0.191406 5.37305 -0.383789 10.7471 -0.575195 16.1201zM474.545 227.278
c0 -68.2793 -55.417 -123.697 -123.7 -123.697c-68.2822 0 -123.699 55.418 -123.699 123.701c0 67.8799 55.0869 123.289 122.963 123.697h0.24707c68.292 0 123.918 -55.4219 124.189 -123.701zM354.445 340.354v-15.0107h1.17871l2.9541 -82.708
c4.79395 -2.64844 8.21484 -7.47656 8.92773 -13.1484l75.3877 -41.3242l-2.11328 -3.3457l11.9395 -6.33594c7.14648 14.7793 11.1846 31.3301 11.2588 48.8027c0 21.1045 -5.78906 40.8594 -15.8643 57.7754c-4.3623 -2.73047 -8.72461 -5.46289 -13.0869 -8.19336
l-3.90039 6.75781c4.25586 2.66406 8.5127 5.32812 12.7686 7.99219c-8.72852 12.5957 -37.3193 47.1055 -89.4502 48.7383zM632 252l-99.7988 180.667l11.5195 4.86621l89.2803 -153.359l81.3594 154.8l15.5732 -6.30664zM452.542 418.17l-216.588 0.789062v15.6221
h200.891v88.709h-200.891v15.6221l214.348 -0.789062z" />
  </g>

</svg>
