<?xml version="1.0" standalone="no"?>
<!DOCTYPE svg PUBLIC "-//W3C//DTD SVG 1.1//EN" "http://www.w3.org/Graphics/SVG/1.1/DTD/svg11.dtd" >
<svg xmlns="http://www.w3.org/2000/svg" xmlns:xlink="http://www.w3.org/1999/xlink" version="1.1" viewBox="-10 0 1020 1000">
  <g transform="matrix(1 0 0 -1 0 800)">
   <path fill="currentColor"
d="M30.3242 741.553h55.5146l17.1611 52.2256l17.1602 -52.2256h55.5156l-44.8672 -32.2959l17.1611 -52.2246l-44.9697 32.2959l-44.9707 -32.2959l17.1611 52.2246zM271 608l-12 60c128.725 89.7881 355.203 55.3633 442.457 48.5605
c0 -0.0107422 0.000976562 -0.0214844 0.000976562 -0.0322266c27.4463 0.582031 75.1855 -1.32129 107.268 -33.4033c40.1396 -40.1396 38.6152 -108.841 37.5254 -169.365c-0.395508 -21.9258 -0.433594 -33.2402 -0.22168 -41.9463
c26.3789 -43.8281 72.168 -89.959 89.3252 -129.607c6.95117 -16.0635 5.49219 -24.7637 2.64551 -40.2051l-12 -14l-79.501 -63.5771v-212.431c1.93945 -31.0869 1.82422 -79.2412 -27.416 -108.48c-26.0322 -26.0322 -182.507 -12.0195 -220.584 -13.0049
l-2.90137 0.0126953c-103.732 -7.2998 -296.108 50.6025 -326.603 92.1719c-18.5059 25.2275 -31.4014 41.2529 -57.9951 55.3086v70.0371c25.8174 -16.2627 49.624 -17.8066 70.1904 -60.6357c44.2188 -92.082 349.455 -105.734 451.309 -108.438l-0.499023 -0.962891
c50 12 34.1514 4.48145 42.5352 13.5361c19.1768 20.7119 3.97852 41.9688 5.50781 57.9648h-0.541992v2.14941c-0.253906 0.990234 -0.500977 1.94141 -0.738281 2.84863h0.738281v207.174v3.4873v1.33887h1.58203l104 88h1.13281
c4.9834 45.8955 -62.8379 92.1289 -94.2158 139.501l-3 4l-1 1c-2.02051 3.99219 0.0439453 4.02539 -2.08398 11.5605c-0.0371094 0.130859 -0.189453 0.24707 -0.174805 0.367188l0.258789 2.07227l0.0644531 1.49902
c0.00976562 0.226562 0.150391 3.89551 0.242188 6.24414c3.11426 79.1523 5.19727 173.389 -83.8154 173.771c-136.35 16.7461 -373.536 9.53418 -431.49 -46.5137zM634.093 243.129zM353.562 431.859zM301.173 335.413zM505.294 209.313zM504.927 197.602z
M348.965 241.151zM438.878 212.865zM684.133 357.22zM301.173 335.413zM684.133 357.22zM559.91 481.042c-19.7764 0 -36.5176 -7.69043 -45.0098 -16.1836c-3.23047 -3.23047 -2.40625 -3.39844 -3.74121 -3.88477c-6.00391 -2.18945 -11.8867 -2.98242 -17.2559 -2.98242
c-5.06836 0 -14.2783 0.749023 -24.251 5.22949c-6.77539 8.24805 -18.2354 15.7539 -37.5029 15.7539c-28.9268 0 -61.9131 -17.9033 -73.3848 -44.7295l-0.566406 -1.3252h-1.99609l-52.2617 -71.0107h-2.50098v-3.39648
c-0.338867 -0.459961 -0.677734 -0.918945 -1.01562 -1.38086h0.545898l-5.78809 -21.7051l-0.650391 0.00976563c-0.117188 -2.22266 -0.326172 -3.5 -1.02832 -6.26172h0.841797c-0.0195312 -2.4541 -0.0195312 -2.4541 -0.0195312 -2.70312
c0 -15.8682 6.84766 -47.9834 52.4883 -85.7305c48.2012 -39.8682 102.714 -44.2637 147.905 -44.2637c74.0703 0 104.269 9.28125 148.591 44.3066c54.1445 42.7832 55.0576 55.3809 56.5469 86.6514l-1.51562 0.0244141
c-0.0917969 0.348633 -6.74219 27.4863 -9.10156 34.791l-38.6973 66.127c-4.36133 4.55273 -4.36133 4.55273 -4.80078 5.30566h-0.287109c-13.6064 13.9248 -42.1279 39.9834 -69.9756 45.7568c-5.32812 1.10547 -10.5479 1.60156 -15.5684 1.60156zM431.394 461.917
c4.16309 0 13.416 0 23.9658 -7.25977l-0.0820312 -1.00684c0.608398 -0.249023 1.58496 -0.707031 2.53223 -1.60742c8.93848 -8.49414 22.6768 -12.4814 35.7188 -12.4814c12.1494 0 23.6963 3.45898 30.1963 9.95996c1.26367 1.26562 3.30762 3.30664 4.88477 8.0625
c6.69824 4.57031 17.3379 9.55859 31.8604 9.55859c19.2715 0 28.2812 -8.39258 35.1904 -14.8262c5.36914 -5.00098 12.4395 -11.6016 27.6465 -21.6631c0.581055 -0.126953 1.05762 -0.40625 1.44043 -0.838867l0.333008 0.0136719l43.4893 -68.5947
c0 -0.117188 -0.00292969 -0.234375 -0.00292969 -0.351562c3.11914 -11.6855 5.9668 -23.6436 8.9707 -35.4443c1.0498 -4.19434 1.63965 -8.08203 1.63965 -11.8457c0 -18.0596 -13.4355 -32.6904 -52.1396 -64.3184
c-35.6641 -29.1416 -61.4902 -39.1387 -139.324 -39.1387c-42.1357 0 -76.1006 5.17676 -115.768 32.9434c-48.8975 34.2285 -55.4727 59.4365 -55.4727 81.8828c0 1.48145 0.0273438 2.93945 0.0693359 4.375c2.44043 9.68262 5.08984 19.1562 7.6084 28.7588
l47.6553 67.4688c0.675781 -0.259766 1.35059 -0.521484 2.02637 -0.78125c1.60645 3.78027 4.33887 10.2217 11.7559 17.6387c11.9531 11.9521 29.6436 19.4961 45.8057 19.4961zM493.672 258.183l-72.7705 131.736l8.39941 3.54883l65.1006 -111.825l59.3252 112.875
l11.3555 -4.59863z" />
  </g>

</svg>
