<?xml version="1.0" standalone="no"?>
<!DOCTYPE svg PUBLIC "-//W3C//DTD SVG 1.1//EN" "http://www.w3.org/Graphics/SVG/1.1/DTD/svg11.dtd" >
<svg xmlns="http://www.w3.org/2000/svg" xmlns:xlink="http://www.w3.org/1999/xlink" version="1.1" viewBox="-10 0 1011 1000">
  <g transform="matrix(1 0 0 -1 0 800)">
   <path fill="currentColor"
d="M30.3242 741.553h55.5146l17.1611 52.2256l17.1602 -52.2256h55.5156l-44.8672 -32.2959l17.1611 -52.2246l-44.9697 32.2959l-44.9707 -32.2959l17.1611 52.2246zM271 608l-12 60c128.725 89.7881 355.203 55.3633 442.457 48.5605
c0 -0.0107422 0.000976562 -0.0214844 0.000976562 -0.0322266c27.4463 0.582031 75.1855 -1.32129 107.268 -33.4033c40.1396 -40.1396 38.6152 -108.841 37.5254 -169.365c-0.395508 -21.9258 -0.433594 -33.2402 -0.22168 -41.9463
c26.3789 -43.8281 72.168 -89.959 89.3252 -129.607c6.95117 -16.0635 5.49219 -24.7637 2.64551 -40.2051l-12 -14l-79.501 -63.5771v-212.431c1.93945 -31.0869 1.82422 -79.2412 -27.416 -108.48c-26.0322 -26.0322 -182.507 -12.0195 -220.584 -13.0049
l-2.90137 0.0126953c-103.732 -7.2998 -296.108 50.6025 -326.603 92.1719c-18.5059 25.2275 -31.4014 41.2529 -57.9951 55.3086v70.0371c25.8174 -16.2627 49.624 -17.8066 70.1904 -60.6357c44.2188 -92.082 349.455 -105.734 451.309 -108.438l-0.499023 -0.962891
c50 12 34.1514 4.48145 42.5352 13.5361c19.1768 20.7119 3.97852 41.9688 5.50781 57.9648h-0.541992v2.14941c-0.253906 0.990234 -0.500977 1.94141 -0.738281 2.84863h0.738281v207.174v3.4873v1.33887h1.58203l104 88h1.13281
c4.9834 45.8955 -62.8379 92.1289 -94.2158 139.501l-3 4l-1 1c-2.02051 3.99219 0.0439453 4.02539 -2.08398 11.5605c-0.0371094 0.130859 -0.189453 0.24707 -0.174805 0.367188l0.258789 2.07227l0.0644531 1.49902
c0.00976562 0.226562 0.150391 3.89551 0.242188 6.24414c3.11426 79.1523 5.19727 173.389 -83.8154 173.771c-136.35 16.7461 -373.536 9.53418 -431.49 -46.5137zM578.957 341.485l-103.957 188.195l12 5.06934l93 -159.75l84.75 161.25l16.2207 -6.56934zM692 71
h-7.1123c-3.63184 0 -6 3.4248 -6 6c0 112.067 -4.09961 164.666 -45.3418 164.666c-30.2471 0 -38.7461 -64.875 -39.043 -67.8428c-0.313477 -3.12207 -3.12109 -5.40137 -5.96973 -5.40137h-7.1123c-3.45996 0 -5.7041 2.00781 -6.08789 6.88672
c-0.381836 4.71973 -8.90039 66.3574 -37.0762 66.3574c-19.4238 0 -31.0039 -10.1885 -37.5957 -39.4795c-6.35938 -28.1729 -6.4668 -69.8037 -6.4668 -118.573v-6.61328c0 -3.63184 -3.4248 -6 -6 -6h-7.11035c-3.63184 0 -6 3.4248 -6 6v6.61328
c0 49.0566 -0.105469 91.6367 7.26465 122.81c7.99023 35.3652 26.1934 54.4268 56.2637 54.4268c26.0176 0 39.5518 -22.8047 46.916 -42.6162c7.50586 20.0586 21.7793 42.5439 48.0176 42.5439c66.2178 0 64.4541 -87.3076 64.4541 -183.777c0 -3.63184 -3.4248 -6 -6 -6
z" />
  </g>

</svg>
