<?xml version="1.0" standalone="no"?>
<!DOCTYPE svg PUBLIC "-//W3C//DTD SVG 1.1//EN" "http://www.w3.org/Graphics/SVG/1.1/DTD/svg11.dtd" >
<svg xmlns="http://www.w3.org/2000/svg" xmlns:xlink="http://www.w3.org/1999/xlink" version="1.1" viewBox="-10 0 974 1000">
  <g transform="matrix(1 0 0 -1 0 800)">
   <path fill="currentColor"
d="M47.6885 -117.984h42.7031l13.2012 40.1738l13.2002 -40.1738h42.7041l-34.5127 -24.8428l13.2002 -40.1729l-34.5918 24.8428l-34.5928 -24.8428l13.2012 40.1729zM315.674 -113.815c0 -3.43652 2.87988 -5.95312 5.95215 -5.95312l473.987 -1.91309
c3.29004 0 5.97168 2.69336 5.9707 5.89453l-2.42383 206.006c7.72266 -1.10352 15.3779 -2.88672 23.167 -3.30859l37.9199 -2.05469l-58.6631 68.3047v111.494c0 3.29883 -2.68945 5.95703 -5.69434 5.95703l-272.715 -5.94238l-2.78125 51.4277l-2.23438 17.4053
l-67.9756 -61.5l-1.89062 0.0078125s-126.629 0.511719 -126.649 0.511719c-3.44336 0 -5.96973 -2.86914 -5.96973 -5.9541v-380.383zM340.261 -95.2012v343.117l109.17 -0.46875l73.7305 -62.1758c1.25098 20.8828 1.70312 42.5654 2.44336 63.958l251.396 -3.22949
v-90.915l-64.0654 -70.2617l31.543 -4.18262l38.0596 5.85547l-5.68652 -183.573zM613.144 528.432h-172.319l-36.7207 154.56l66.6406 -48.5596l52.7207 108.8l52.5596 -108.8l66.2402 48zM455.943 547.983l134.785 -0.864258l23.3281 91.584l-46.6562 -34.5596
l-43.2002 98.4961l-44.9287 -94.1758l-48.3828 35.4238zM349 634c0 -77.7607 80.6396 -141.121 180 -141.121s180 63.3604 180 141.121c0 77.7598 -80.6396 141.119 -180 141.119s-180 -63.3594 -180 -141.119zM330.279 635.439c0 86.8799 88.8008 156.96 198.721 156.96
s198.721 -70.0801 198.721 -156.96s-88.8008 -156.96 -198.721 -156.96s-198.721 70.0801 -198.721 156.96z" />
  </g>

</svg>
