<?xml version="1.0" standalone="no"?>
<!DOCTYPE svg PUBLIC "-//W3C//DTD SVG 1.1//EN" "http://www.w3.org/Graphics/SVG/1.1/DTD/svg11.dtd" >
<svg xmlns="http://www.w3.org/2000/svg" xmlns:xlink="http://www.w3.org/1999/xlink" version="1.1" viewBox="-10 0 774 1000">
  <g transform="matrix(1 0 0 -1 0 800)">
   <path fill="currentColor"
d="M615.469 157.775c4.8877 0 5.40039 -3.91211 5.40039 -4.68848c0 -4.3584 -6.94727 -5.96582 -20.2275 -8.92578c-27.3281 -6.09277 -58.7979 -10.1836 -93.4004 -12.1504c-7.48926 -0.426758 -24.582 -0.635742 -42.6367 -0.635742
c-120.171 0 -171.626 12.3623 -222.604 27.625c-22.4766 6.72852 -36.6172 10.6426 -55.3994 15.333c-41.1504 10.2783 -58.1006 15.9502 -61.3789 19.3379c-2.06348 0.271484 -9.92969 6.21777 -12.8525 9.91016c-5.52832 6.98535 -13.1846 22.4346 -13.1846 28.5596
c0 0.724609 0.0917969 0.844727 0.0917969 1.27148c0 5.96191 -19.123 31.3809 -24.9824 100.68c-0.493164 5.84863 -0.730469 17.5342 -0.730469 29.9521c0 6.75781 0.112305 44.9551 2.64453 52.2168c-0.359375 0.529297 -0.46875 1.04492 -0.46875 1.5498
c0 1.22461 4.80371 50.8574 22.2578 120.515c7.48145 29.8574 27.5176 99.9453 30.5 103.248c0.262695 0.290039 8.76562 15.5752 25.0107 30.0488c11.168 9.9502 28.5859 21.9277 49.0146 33.7559c5.95312 3.44629 17.4277 10.2061 25.4717 15.0049
c14.5225 8.66211 29.1504 17.3135 41.4668 17.3135c13.0459 0 27.5752 -10.2979 40.1338 -25.751c3.28027 -4.03711 9.34277 -11.3623 13.4492 -16.2529c15.6172 -18.5977 23.5459 -28.9971 23.5459 -42.8721c0 -10.9238 -3.26074 -7.82324 -3.51758 -20.0176
c-0.355469 -16.7734 -9.92188 -21.2021 -15.2275 -39.457c-1.25391 -4.31348 -8.34668 -7.87012 -14.9756 -7.87012c-8.81934 0 -10.8047 3.61133 -14.5469 10.415c-2.04883 -3.08203 -8.39844 -8.91797 -13.498 -8.91797c-0.929688 0 -1.15332 0 -1.79883 -1.0918
c-0.0771484 -0.129883 -5.55664 -9.31934 -20.25 -9.31934c-7.45215 0 -17.4219 2.11719 -22.2461 2.1543c-4.86523 0.0380859 -7.54883 2.80859 -7.54883 6.10547c0 1.33301 0.426758 2.72266 1.19922 4.01562c-1.08301 -0.0556641 -1.08301 -0.0556641 -6.38379 -0.456055
c-3.97168 -14.2051 -9.99512 -35.7539 -9.99512 -59.4473c0 -17.4297 3.37988 -32.5293 10.082 -45.9424c12.2959 -24.6025 64.3271 -60.668 64.3271 -100.635c0 -4.39941 -0.498047 -8.69238 -1.50977 -11.9521c6.25 3.96777 9.83691 6.03906 11.4014 6.64062
c0 0 0.486328 0.424805 1.21094 0.424805c0.0986328 0 0.200195 -0.0078125 0.305664 -0.0244141c2.96191 2.43945 26.7324 14.4502 54.1279 14.4502c38.3809 0 66.5684 -20.2812 89.9072 -37.6045c15.9434 -11.835 27.4453 -19.332 36.7363 -24
c6.25391 -3.14062 8.90039 -4.6543 11.292 -4.6543c2.26367 0 4.30078 1.3584 8.95605 3.97363c16.9424 9.51953 38.6562 18.6465 47.1113 19.4053c1.77051 0.160156 6.38867 2.69141 23.2324 2.69141c23.9307 -0.00683594 43.1807 -9.88281 46.8779 -13.5791
c0.90332 -0.904297 1.75684 -2.25879 1.75684 -3.67383c0 -1.91016 -1.89941 -4.08398 -4.57227 -4.08398c-6.88574 0 -15.75 10.3057 -41.9336 10.3057c-23.8027 0 -37.3301 -5.97949 -60.1348 -17.2793c27.1592 -0.80957 27.1768 -0.827148 29.4863 -3.13672
c0.768555 -0.768555 1.0332 -1.62988 1.0332 -2.46191c0 -1.37402 -0.811523 -3.13477 -1.62109 -3.94434c-1.24707 -1.24707 -1.87207 -1.87207 -22.7656 -1.87207c-5.77344 0 -22.5459 0.795898 -22.7744 0.795898c-5.37402 0 -4.91602 -2.67188 -8.73438 -2.68066
c-2.93555 0 -5.54395 3.2002 -5.54395 5.7627c0 0.254883 0.0224609 0.516602 0.0703125 0.780273c-0.500977 0.288086 -1.55176 0.836914 -3.20703 1.54102c-25.1836 10.7021 -56.502 40.9922 -83.3789 52.8125c-13.1572 5.78613 -27.2236 8.69141 -41.3096 8.69141
c-7.93945 0 -31.6211 0 -63.9326 -20.8613c-9.27344 -5.9873 -9.27344 -5.9873 -9.30664 -6.00684c-2.66895 -1.54199 -20.4775 -16.0205 -37.3936 -30.5977c-12.5254 -10.792 -15.1846 -13.5303 -18.1963 -13.5303c-3.63965 0 -5.73633 3.53809 -5.73633 5.85254
c0 1.68262 0.977539 2.66309 1.26562 2.95215c2.85352 2.85254 28.9326 25.2285 37.8516 32.4922c13.7129 11.166 16.4014 14.6631 18.8223 21.8486c0.924805 2.74414 1.39062 4.70508 1.39062 6.88867c0 2.13281 -0.444336 4.47852 -1.33984 7.97852
c-8.56445 33.4883 -43.7852 60.333 -58.3613 80.5986c-11.8447 16.4688 -17.7236 36.8027 -17.7236 60.667c0 3.40723 0.342773 30.5996 10.2607 63.1074c0.567383 1.85938 0.993164 3.51367 1.20508 4.37207c-0.922852 0.688477 -12.9902 7.40625 -17.3359 11.751
c-1.2959 1.29688 -1.9668 2.76855 -1.9668 4.2959c0 0.458984 0.123047 5.12012 5.12988 5.12012c3.0459 0 5.02441 -4.23828 13.0508 -9.22852c8.62305 -5.35938 12.8828 -8.15527 13.7441 -10.04c2.22559 0.280273 13.2451 1.77344 13.2451 3.88086
c0 0.751953 -0.851562 2.02051 -0.851562 3.8457c0 2.83496 2.46094 4.72461 4.83887 4.72461c3.69824 0 3.2793 -2.89941 7.38281 -3.78809c4.20898 -0.90918 9.98828 -2.40918 9.98828 -6.64648c0 -1.97656 -1.71289 -5.27441 -4.78809 -5.27441
c-1.6543 0 -2.66309 0.751953 -3.29297 0.751953c-1.03809 0 -4.84961 -2.13281 -7.44336 -4.98828c0.167969 -0.0341797 10.6875 -1.98242 17.0273 -1.98242c5.31641 0 6.65137 1.40234 10.416 5.35938c-6.19531 14.8379 -14.0176 30.3252 -23.0459 41.5098
c-2.2041 2.73242 -4.21582 5.2041 -4.21582 7.42676c0 2.29395 2.45703 4.15527 4.33203 4.15527c2.05566 0 3.34277 -1.48242 4.43457 -2.74316c5.81348 -6.69629 18.6162 -24.625 18.6162 -28.626c0 -0.102539 -0.00488281 -0.202148 -0.0126953 -0.301758
c2.58691 -2.40332 6.41602 -12.8232 8.43652 -15.7666c5.31055 0.874023 6.37109 8.07617 6.37109 11.8799c0 16.8584 -19.958 33.2471 -19.958 51.9395c0 3.44238 0 3.44238 5.12402 13.2217c3.11914 -18.4785 3.33105 -19.7422 12.4824 -34.3203
c3.10938 -4.95215 5.0332 -9.07715 5.10645 -9.15039c1.31934 -1.32129 7.53223 -11.2686 7.53223 -22.4043c0 -0.703125 -0.0175781 -1.4209 -0.0546875 -2.15625c4.0957 3.18652 7.5459 3.75684 10.9912 7.20215c15.5996 15.5996 -18.6895 59.6846 -24.1875 66.5312
c-4.08789 5.0918 -5.95898 7.94238 -5.95898 9.8418c0 0.841797 0.540039 2.97168 3.39844 2.97168c2.09863 0 2.61914 -1.41309 3.63672 -2.42969c0.318359 -0.318359 22.665 -24.4736 27.1924 -35.9473c3.81934 -3.09766 9.34961 -20.2188 9.44922 -20.4219
c0.162109 0.111328 9.58008 7.21191 9.58008 17.0859c0 7.81055 -6.55859 17.8506 -6.67676 18.001c-0.00585938 0.00488281 -7.20996 8.96973 -7.20996 8.96973c-21.8887 27.2178 -25.3457 31.5146 -31.4639 37.123c-7.15234 6.55176 -13.7061 9.62012 -20.9922 9.62012
c-5.62891 0 -12.1299 -0.959961 -31.1113 -12.6699c-19.9805 -12.3271 -53.7568 -29.5723 -56.2891 -33.4375c-2.65625 -4.05273 -17.501 -12.9854 -32.0811 -27.5654c-6.94727 -6.94824 -11.127 -12.8662 -11.7373 -15.7275
c-3.81445 -17.9404 -40.7051 -122.458 -51.2354 -220.893c-2.06152 -19.2744 -2.49023 -26.7285 -2.49023 -48.8086c0 -17.4287 0.451172 -36.3281 1.27246 -43.6846c6.21094 -55.6523 20.4385 -85.7969 21.0518 -86.4404
c2.83008 -0.129883 4.15234 -3.10938 5.2334 -5.54492c6.96094 -15.6934 9.85352 -19.5801 12.3242 -22.0508c6.59082 -6.59082 19.3398 -11.3037 65.4893 -23.3311c12.8057 -3.33691 34.0186 -9.38379 47.2324 -13.4639c68.2158 -21.0586 85.8887 -23.499 163.778 -28.8281
c15.3262 -1.04883 44.1338 -1.6748 68.6875 -1.6748c30.3574 0 84.209 1.77539 131.62 12.626c7.44727 1.70508 11.7842 2.83008 14.6357 2.83008zM352.417 142.477c-1.05176 -0.170898 -2.78223 0.335938 -2.93652 -0.731445
c0.131836 -1 1.58008 -0.683594 2.47852 -0.917969l0.257812 0.205078s0.145508 1.04492 0.200195 1.44434zM616.76 153.706c-0.875 0.0771484 -1.15527 -0.441406 -1.33203 -1.06348c0.768555 0.0302734 1.47852 0.119141 1.33203 1.06348zM297.582 367.41
c-0.179688 0.618164 -0.450195 1.14453 -1.33203 1.0625c-0.139648 -0.938477 0.55957 -1.03809 1.33203 -1.0625zM393.762 378.201c-0.875977 0.0771484 -1.15625 -0.441406 -1.33105 -1.06348c0.767578 0.0302734 1.47754 0.119141 1.33105 1.06348zM82.457 420.614
c0.00488281 0.133789 -0.141602 0.119141 -0.220703 0.170898c-0.00488281 -0.135742 0.143555 -0.119141 0.220703 -0.170898zM329.141 625.467c-0.707031 0 -1.14355 0.0693359 -2.21094 0.240234c-1.09375 -13.6289 -5.67676 -19.7646 -17.165 -25.8613
c0.65918 -1.38379 1.22363 -2.56641 3.79688 -3.33496c1.9043 0.398438 4.39258 0.917969 4.97656 1.50195c1.09668 1.09473 3.11719 6.67578 9.47852 17.2285c4.85449 8.05469 5.86816 9.73633 6.83691 13.0752c-2.1377 -2.00879 -3.6582 -2.84961 -5.71289 -2.84961z
M474.375 251.92c2.63867 0 4.43457 -2.65137 4.43457 -5.1709c0 -2.99414 -2.98047 -4.38281 -7.75879 -6.61133c-40.2568 -18.7705 -62.0977 -20.2734 -83.7393 -20.2734c-12.5 0 -31.168 1.5791 -60.0049 11.1113c-10.6816 3.5332 -14.6855 4.85645 -14.6855 8.50391
c0 1.36719 0.920898 3.74512 3.95312 3.74512c2.53613 0 6.45605 -1.46973 13.5752 -3.44922c28.6094 -7.95605 38.8623 -9.62109 59.8857 -9.62109c18.4336 0 34.9492 0 78.0918 19.6426c2.6543 1.20703 4.60254 2.12305 6.24805 2.12305zM461.472 478.356
c-23.0518 0 -41.7588 20.3115 -41.7588 42.1143c0 10.6885 6.52148 23.8203 10.9561 28.3525c1.17578 1.22852 1.7666 2.79883 1.7666 4.36719c0 1.56445 -0.587891 3.125 -1.77441 4.34668c-5.79883 5.80469 -10.5059 17.1719 -10.5127 25.3076
c0 0.607422 1.27832 10.3281 2.2793 12.5537c5.16797 11.8701 19.8447 21.7256 32.7676 22.0361l0.0898438 0.000976563l0.0908203 -0.00195312c11.3555 -0.401367 26.1035 -8.87988 31.7754 -21.7646c0.932617 -1.94434 3.21777 -3.6543 5.80664 -3.6543
c1.77637 0 2.86816 0.72168 3.63379 1.22754c6.88672 4.55273 19.2002 8.26758 27.4316 8.26758c0.629883 0 1.6875 -0.0273438 2.01953 -0.0361328c0.0185547 0 0.0351562 -0.000976562 0.0488281 -0.000976562c2.62207 0.0146484 5.01465 1.92871 5.84473 4.0293
c5.91602 14.3447 23.3555 26 38.832 26c-0.277344 0.126953 -0.407227 0.208984 -0.407227 0.248047c0 0.0166016 0.0263672 0.0253906 0.078125 0.0253906c1.38672 0 21.0625 -6.26172 27.7432 -12.9404c2.52734 -2.52832 9.89844 -10.6387 11.7617 -20.9297
c0.666992 -3.35645 3.58594 -5.08984 5.93359 -5.16504c21.6113 -0.579102 39.1562 -18.6035 39.1562 -40.2207c0 -0.293945 -0.359375 -16.835 -10.9111 -27.3848c-6.29395 -6.29492 -13.8428 -9.59375 -14.3916 -9.81152
c-5.76074 -2.27246 -12.5713 -3.14062 -15.7812 -3.14062h-0.0693359c-4.94043 0.112305 -8.89551 2.5791 -14.498 2.5791c-2.81348 0 -4.4082 -0.754883 -5.2666 -1.61523c-0.103516 -0.111328 -0.549805 -0.615234 -2.28613 -2.58789
c1.23633 -2.85352 2.96875 -6.85254 2.96875 -12.1035c0 -7.60938 -4.47656 -14.7217 -4.7002 -14.7578c-1.12988 -1.5625 -2.48047 -3.09766 -3.96289 -4.58008c-4.38184 -4.38184 -9.86816 -8.30762 -14.4531 -10.165
c-10.9629 -4.43359 -20.3418 -4.49512 -21.0977 -4.49512c-7.80469 0 -17.9102 2.95996 -18.5088 3.43164c-9.36816 3.88867 -20.6064 14.8779 -24.5537 25.7139c-0.695312 1.80762 -2.64355 3.66406 -4.85059 4.09766
c-0.53125 0.0341797 -1.13086 0.0439453 -1.76855 0.0439453c-0.0576172 0 -3.25195 -0.452148 -5.04004 -2.6377c-9.16992 -11.2129 -24.8896 -16.75 -34.3916 -16.75zM532.333 467.783l-0.0273438 0.0126953zM430.61 548.761v0zM410.543 519.709
c0 -28.2373 24.7627 -51.9404 50.5137 -51.9404c19.2979 0 34.2832 11.9092 36.7178 13.9893l2.6416 2.25586c3.08301 -4.83008 5.08984 -7.97656 10.0713 -12.957c5.51074 -5.51074 12.2451 -10.3867 18.4443 -12.8311c5.74316 -2.23926 15.1084 -4.00195 21.2744 -4.00195
c7.91113 0 16.4326 1.83887 25.8057 5.45801c8.43555 3.25488 18.9883 11.7344 23.8779 18.8975c2.51172 3.67578 5.33887 12.9277 5.33887 19.5381c0 0.480469 0 0.480469 -0.189453 4.79492c5.07031 -1.02441 6.9209 -1.39746 9.08105 -1.39746
c2.52637 0 12.2129 1.23047 19.1445 4.18555c7.55762 3.07422 17.1484 10.7266 21.7188 17.0459c5.33594 7.45605 9.55859 20.6045 9.55859 29.7754c0 6.64355 -2.29004 16.5283 -5.20898 22.4922c-5.00684 10.2295 -21.208 24.4043 -38.5938 27.1621l-1.85352 0.294922
c-1.35645 4.37207 -4.21777 13.5967 -14.0947 23.4736c-5.60938 5.60938 -17.8506 15.54 -34.2324 15.54c-21.1475 0 -39.2334 -15.4814 -46.1074 -28.5605l-0.791016 -1.50781c-6.6748 -0.40332 -16.7549 -1.91895 -26.7607 -6.84961l-2.37891 -1.17285
c-2.43164 3.6377 -3.68848 5.51562 -6.80859 8.63477c-8.36426 8.36523 -20.8545 14.6992 -32.124 15.0664c-0.138672 0.00195313 -0.27832 0.00488281 -0.416992 0.00488281c-13.6562 0 -34.4355 -11.1416 -41.4004 -28.9365
c-1.65234 -4.44238 -2.7666 -15.3018 -2.91504 -16.1211c0 -8.73633 4.10156 -20.5908 9.66895 -28.1582l1.27734 -1.73926l-1.23047 -1.77344c-5.75488 -8.2959 -10.0283 -21.2559 -10.0283 -30.6621z" />
  </g>

</svg>
