<?xml version="1.0" standalone="no"?>
<!DOCTYPE svg PUBLIC "-//W3C//DTD SVG 1.1//EN" "http://www.w3.org/Graphics/SVG/1.1/DTD/svg11.dtd" >
<svg xmlns="http://www.w3.org/2000/svg" xmlns:xlink="http://www.w3.org/1999/xlink" version="1.1" viewBox="-10 0 1010 1000">
  <g transform="matrix(1 0 0 -1 0 800)">
   <path fill="currentColor"
d="M30.3242 741.553h55.5146l17.1611 52.2256l17.1602 -52.2256h55.5156l-44.8672 -32.2959l17.1611 -52.2246l-44.9697 32.2959l-44.9707 -32.2959l17.1611 52.2246zM271 608l-12 60c128.725 89.7881 355.203 55.3633 442.457 48.5605
c0 -0.0107422 0.000976562 -0.0214844 0.000976562 -0.0322266c27.4463 0.582031 75.1855 -1.32129 107.268 -33.4033c40.1396 -40.1396 38.6152 -108.841 37.5254 -169.365c-0.395508 -21.9258 -0.433594 -33.2402 -0.22168 -41.9463
c26.3789 -43.8281 72.168 -89.959 89.3252 -129.607c6.95117 -16.0635 5.49219 -24.7637 2.64551 -40.2051l-12 -14l-79.501 -63.5771v-212.431c1.93945 -31.0869 1.82422 -79.2412 -27.416 -108.48c-26.0322 -26.0322 -182.507 -12.0195 -220.584 -13.0049
l-2.90137 0.0126953c-103.732 -7.2998 -296.108 50.6025 -326.603 92.1719c-18.5059 25.2275 -31.4014 41.2529 -57.9951 55.3086v70.0371c25.8174 -16.2627 49.624 -17.8066 70.1904 -60.6357c44.2188 -92.082 349.455 -105.734 451.309 -108.438l-0.499023 -0.962891
c50 12 34.1514 4.48145 42.5352 13.5361c19.1768 20.7119 3.97852 41.9688 5.50781 57.9648h-0.541992v2.14941c-0.253906 0.990234 -0.500977 1.94141 -0.738281 2.84863h0.738281v207.174v3.4873v1.33887h1.58203l104 88h1.13281
c4.9834 45.8955 -62.8379 92.1289 -94.2158 139.501l-3 4l-1 1c-2.02051 3.99219 0.0439453 4.02539 -2.08398 11.5605c-0.0371094 0.130859 -0.189453 0.24707 -0.174805 0.367188l0.258789 2.07227l0.0644531 1.49902
c0.00976562 0.226562 0.150391 3.89551 0.242188 6.24414c3.11426 79.1523 5.19727 173.389 -83.8154 173.771c-136.35 16.7461 -373.536 9.53418 -431.49 -46.5137zM456.727 112.115c-1.66211 0 -3.00195 1.34961 -3.00195 3l2.87891 82.834
c-8.36719 10.0156 -16.9492 19.3906 -25.4023 28.623c-37.2598 40.6953 -72.1309 78.8711 -72.252 155.877c-0.101562 64.1738 23.2441 97.0039 36.3164 110.303c41.3203 40.3926 95.8711 50.5469 124.221 50.5469c2.57812 0 5.83984 2.18555 9.23633 2.02539
c83.7969 -3.94141 101.68 -10.5703 144.373 -47.7051c5.51172 -4.79297 7.11523 -8.70117 7.83008 -12.3906c0.130859 -0.666016 0.203125 -0.925781 0.228516 -1.00781c19.5625 -22.5742 33.291 -81.9023 34.3535 -99.1562
c0.0722656 -1.16797 0.248047 -2.52734 0.451172 -4.06445c0.570312 -4.3457 1.32812 -10.0859 0.0625 -17.3105c-17.4082 -99.4219 -64.7188 -128.035 -70.2812 -143.621c-0.304688 -0.851562 -0.583984 -0.990234 -0.705078 -1.11133
c-1.32617 -1.32617 -12.8203 -7.1875 -22.0547 -11.5293c-1.16016 -3.30273 -1.16016 -3.30273 -1.74805 -3.91406c-0.271484 -1.04492 -0.519531 -2.89648 -0.519531 -2.89648l-1.71289 -84.6172c-0.0332031 -1.625 -1.35352 -2.92773 -2.98047 -2.9375zM681.027 484.352
l-0.197266 0.173828l-1.8125 -2.36914zM672.604 495.053l-1.98438 0.818359l-1.98828 -4.98047zM542.857 522.398c-48.1094 0 -79.4805 -8.49414 -119.48 -38.1523c-10.5488 -10.5469 -39.9082 -42.2031 -40.0469 -97.123
c-0.183594 -72.2969 31.3262 -106.332 48.25 -123.258c8.43359 -8.43164 8.43359 -8.43164 9.83008 -10.5195c2.76172 -4.125 2.76172 -4.125 20.6816 -23.5488c4.11523 -1.01172 10.4062 -3.60547 16.7852 -10.2383c3.49023 -3.62695 2.08008 -17.0898 1.43555 -23.25
l-0.574219 -70.0449l111.154 -0.570312l5.22852 85.9688c0.0488281 0.814453 0.425781 1.57227 1.05469 2.10742c3.69336 3.14648 3.79102 3.23047 5.70312 5.14453c1.89062 1.88867 7.37305 7.24219 12.1934 8.64453c1.74805 0.507812 4.18555 5.33984 9.24805 9.125
c24.2227 18.1074 60.0762 63.6875 64.5273 129.379c0.652344 9.61133 -0.832031 20.0957 -2.72852 31.3438c-4.01172 23.8027 -9.89258 57.6309 -27.9902 78.7207c-2.81445 2.31836 -3.66797 3.08789 -16.623 16.043c-23.1777 23.1758 -61.5508 30.2285 -98.6484 30.2285z
M635.975 431.236c0 -3.02734 0.150391 -3.51172 0.150391 -5.86328c0 -8.64453 -2.33984 -25.4238 -2.33984 -35.5332c0 -1.25586 0 -1.25586 0.630859 -1.5918l0.189453 -2.04883c2.14453 -23.0391 21.1602 -46.0273 28.5137 -53.3809
c1.39648 -1.39648 2.12695 -1.98242 2.12695 -1.98242l-4.5332 -0.607422l-1.10938 -2.55273l5.94141 -3.31445c-2.58594 -1.72461 -5.17383 -3.44922 -7.76172 -5.17383c-15.3672 16.7617 -23.9961 26.1719 -32.584 49.4453
c-4.09961 -11.5176 -10.8262 -22.5742 -17.0625 -30.4961c-7.10547 -9.02344 -4.09375 -8.08008 -14.084 -19.1758l-11.5332 9.13086c9.36719 12.1426 13.502 18.2188 16.6836 22.4004c19.8887 26.125 21.8398 60.5488 21.8398 80.9473
c0 1.46875 0 1.46875 -0.0488281 7.03125c12.0879 -0.265625 12.0879 -0.265625 13.4668 -1.64648c1.35547 -1.35547 1.55859 -2.75 1.55859 -3.44336c0 -0.220703 -0.0214844 -0.371094 -0.03125 -0.423828v-0.185547
c0 -0.191406 -0.0136719 -0.644531 -0.0136719 -1.53516zM475.539 395.605l47.6777 45.6035l10.9141 -9.43945l-47.4102 -47.8809l51.7949 -47.6094l-12.6367 -10.5273l-51.2988 47.2227l-46.8633 -47.6973l-10.041 10.9785l45.9746 46.7539l-45.3379 47.1621
l11.4492 10.9512zM475.539 395.605l47.6777 45.6035l10.9141 -9.43945l-47.4102 -47.8809l51.7949 -47.6094l-12.6367 -10.5273l-51.2988 47.2227l-46.8633 -47.6973l-10.041 10.9785l45.9746 46.7539l-45.3379 47.1621l11.4492 10.9512z" />
  </g>

</svg>
