<?xml version="1.0" standalone="no"?>
<!DOCTYPE svg PUBLIC "-//W3C//DTD SVG 1.1//EN" "http://www.w3.org/Graphics/SVG/1.1/DTD/svg11.dtd" >
<svg xmlns="http://www.w3.org/2000/svg" xmlns:xlink="http://www.w3.org/1999/xlink" version="1.1" viewBox="-10 0 1022 1000">
  <g transform="matrix(1 0 0 -1 0 800)">
   <path fill="currentColor"
d="M414.238 434.724c40.207 0.140625 80.4131 0.140625 120.619 0c2.64551 0.0517578 5.28906 0.103516 7.93066 0.161133c9.74316 -0.150391 17.7773 4.4541 23.3613 14.248c5.03125 8.82422 7.6084 20.1191 6.53809 25.3877
c-0.486328 2.4541 -4.19531 13.4502 -5.40918 18.2812c-4.60352 18.2734 -9.11035 36.5859 -13.5234 54.9346c-2.62109 10.5605 -5.5127 20.998 -8.66797 31.3135c-3.29004 10.6426 -7.25 20.8643 -11.875 30.6641c-4.0791 8.4248 -9.00488 16.0264 -14.7812 22.8086
c-9.87793 11.0322 -21.4639 17.2803 -34.7588 18.7451c-9.07227 1.08984 -17.9717 0.00683594 -26.7002 -3.25098c-7.99219 -3.25488 -15.0986 -8.3457 -21.3232 -15.2783c-5.64844 -6.49609 -10.458 -13.8096 -14.4326 -21.9385
c-3.60742 -7.39355 -6.7832 -15.0859 -9.53418 -23.0811c-2.74121 -8 -5.22559 -16.125 -7.45605 -24.3799c-1.66992 -6.22949 -3.28809 -12.4775 -4.85352 -18.7451c-3.15234 -13.0859 -6.33105 -26.1592 -9.53516 -39.2246
c-1.63086 -5.9668 -3.18945 -11.9629 -4.68066 -17.9863c-0.874023 -3.6875 -1.65625 -7.41016 -2.34082 -11.1611c-1.83984 -13.292 1.26855 -24.3984 9.31836 -33.3184c2.70312 -2.8291 5.73535 -4.95801 9.10156 -6.39355
c1.84473 -0.655273 3.72363 -1.08789 5.63672 -1.30078c2.46582 -0.244141 4.91895 -0.40918 7.36621 -0.485352v0zM414.238 445.667c-1.98047 0.0839844 -3.97656 0.210938 -5.98145 0.379883c-1.43652 0.135742 -2.85059 0.423828 -4.24707 0.864258
c-2.48535 1.10156 -4.70801 2.72852 -6.67578 4.87598c-5.30469 6.20996 -7.25488 13.7773 -5.84863 22.7012c0.743164 3.89746 1.5791 7.76172 2.5127 11.5928c1.71094 6.41406 3.38672 12.8438 5.02734 19.2881c3.13672 12.9727 6.28516 25.9375 9.44922 38.8984
c1.54883 6.16797 3.16602 12.3076 4.85352 18.4219c3.02344 11.0156 6.60742 21.7432 10.749 32.1777c3.09277 7.66895 6.79199 14.8223 11.0928 21.4561c11.9395 17.7939 27.2393 25.8662 45.9004 24.2158c12.6611 -0.873047 23.5547 -6.72656 32.6816 -17.5518
c5.01953 -6.27344 9.31055 -13.2275 12.8711 -20.8584c3.94043 -8.63379 7.35059 -17.5898 10.2285 -26.874c2.95508 -9.6377 5.67188 -19.3896 8.14844 -29.2549c3.26172 -13.2793 6.5 -26.5723 9.70703 -39.8711c1.21484 -4.76758 2.42773 -9.53516 3.6416 -14.3047
c1.33594 -5.41016 2.5498 -10.8633 3.6416 -16.3613c0.539062 -2.55957 0.771484 -5.1582 0.694336 -7.7998c-0.801758 -8.30957 -4.05273 -14.6113 -9.75293 -18.9092c-1.84375 -1.39258 -3.83691 -2.22559 -5.98242 -2.49219
c-3.05273 -0.405273 -6.11328 -0.583008 -9.18848 -0.541016c-41.1738 -0.0537109 -82.3486 -0.0742188 -123.522 -0.0537109v0zM776.736 551.118l-0.755859 10.7637l32.8564 0.288086l-0.419922 -11.7715c-9.21582 0.544922 -18.6924 1.03125 -31.6807 0.719727z
M914.421 711.17h-153.674v-282.781h153.674v282.781zM738.483 738.044h198.202v-336.529h-198.202v336.529zM302.481 97.6934l-82.2217 148.848l24.0225 10.1475l58.4395 -100.383l53.3027 101.418l27.2285 -11.0254zM219.568 -67.707v34.6641h38.626v22.0713h-38.626
v34.6641h38.626v33.7148h31.3828v-33.7148h23.2197v31.2539h31.3828v-31.2539h41.292v-34.6641h-41.292v-22.0713h41.292v-34.6641h-41.292v-36.1855h-31.3828v36.1855h-23.2197v-33.7246h-31.3828v33.7246h-38.626zM289.577 -33.043h23.2197v22.0713h-23.2197v-22.0713z
M734.659 223.904c-0.529297 0 -0.985352 0.173828 -1.32227 0.358398l-214.094 -88.2627v-37.8242c12.126 5.10742 24.251 10.2148 36.376 15.3213v-3.77051l-0.21875 -161.659h318.305l0.646484 155.446c10.9619 -6.48535 21.9238 -12.9697 32.8867 -19.4551
l-0.677734 40.7051l-136.33 79.1182l1.46387 0.616211c-22.6963 11.7715 -24.457 12.7314 -36.2109 19.5508c-0.288086 -0.102539 -0.56543 -0.144531 -0.824219 -0.144531zM838.594 -16.7148h-248.003l-0.665039 144.662l142.009 59.8174l107.859 -63.8086z
M37.3545 -55.4795h55.5146l17.1611 52.2256l17.1602 -52.2256h55.5156l-44.8672 -32.2959l17.1611 -52.2246l-44.9697 32.2959l-44.9707 -32.2959l17.1611 52.2246z" />
  </g>

</svg>
