<?xml version="1.0" standalone="no"?>
<!DOCTYPE svg PUBLIC "-//W3C//DTD SVG 1.1//EN" "http://www.w3.org/Graphics/SVG/1.1/DTD/svg11.dtd" >
<svg xmlns="http://www.w3.org/2000/svg" xmlns:xlink="http://www.w3.org/1999/xlink" version="1.1" viewBox="-10 0 1055 1000">
  <g transform="matrix(1 0 0 -1 0 800)">
   <path fill="currentColor"
d="M828.399 483.872c0 9.49878 0.360099 25.4826 0.360099 28.905l-0.318652 61.3747l-8.69455 54.78l-24.0577 41.7601l-29.8355 19.1251l-33.9409 8.02542l-47.9505 1.85133v0.765382l-107.704 8.96128l-161.614 -4.8437l-135.511 -48.0118l4.97421 -24.8711
l90.1513 34.2037l168.519 13.9909l163.859 -8.05849l72.0585 -32.0852l24.6852 -76.5829c-11.2968 -92.7231 -11.5388 -94.7093 -10.6225 -98.1968c0.272553 -1.03738 0.408327 -1.98777 0.495372 -2.92219c0.487753 -0.641757 1.13403 -1.58506 1.4862 -2.05622
l30.4464 -40.7334l38.0432 -60.0682l23.93 -33.502l-96.7113 -80.2498l-3.19974 -219.288c0.962733 -7.56244 2.78458 -22.0112 5.01798 -45.877c-0.12894 -0.269919 -9.65147 -20.9678 -12.8349 -27.02c-1.80565 -3.43278 -3.36365 -6.39475 -8.94453 -11.1259
c-28.726 -6.87192 -37.6748 -9.01268 -53.7943 -9.01268c-3.38415 0 -6.77838 0.14333 -10.1737 0.446144l-127.95 -3.2205l-189.706 31.9736l-119.91 72.0259l-21.8729 31.5454c-0.18608 0.126152 -14.9542 10.3475 -18.5829 12.6523v-31.4635
c5.41685 -3.87145 13.5068 -7.36272 24.4398 -17.2503c7.32645 -6.62591 2.09556 -4.45645 10.6241 -11.9264c1.03002 -0.902171 1.03002 -0.902171 17.2005 -21.8062l70.2643 -41.1391l123.979 -35.7692l40.8353 -3.74581
c52.8258 -4.90757 59.0669 -6.73248 83.0467 -7.42728l68.08 -1.97257l89.7606 0.254271l51.1066 12.4914l15.1376 25.2075l6.27671 34.16l-0.268638 82.9487l0.0291888 84.2282l-0.00582149 87.5189l84.7837 67.8016l7.68593 8.96692l1.11464 7.19504
c0.44913 7.61262 -1.52476 12.8022 -3.31214 18.1783l-23.3304 38.8443l-33.0243 43.448l-34.3179 48.9016c-0.202711 16.1296 -0.202711 16.1296 -0.202711 17.6951zM33.2949 712.521h55.5146l17.1611 52.2256l17.1602 -52.2256h55.5156l-44.8672 -32.2959
l17.1611 -52.2246l-44.9697 32.2959l-44.9707 -32.2959l17.1611 52.2246zM528 444v134.658l13.1016 0.761719v-148.615l-99.6953 0.265625l2.88281 148.483l12.0127 0.266602l-0.93457 -135.82h72.6328zM479.64 204.15c-21.4502 0 -38.6104 18.7207 -38.6104 39
c0 9.75 5.84961 22.2305 10.1406 26.5205c1.16992 1.1709 1.55957 2.33984 1.55957 3.90039c0 1.55957 -0.389648 3.12012 -1.55957 4.28906c-5.45996 5.46094 -9.75 15.9902 -9.75 23.4004c0 0.389648 1.16992 9.75 1.9502 11.7002
c4.67969 10.9199 18.3291 19.8896 30.4189 20.2803v0h0.389648c10.5312 -0.390625 23.791 -7.7998 29.25 -19.8906c0.78125 -1.9502 3.12109 -3.50879 5.46094 -3.50879c1.55957 0 2.73047 0.779297 3.50977 1.16895c6.24023 4.29004 17.5498 7.41016 25.3506 7.41016
h1.94922v0c2.33984 0 4.67969 1.9502 5.46094 3.90039c5.45996 13.2598 21.4502 24.1787 35.8789 24.1787h-0.389648v0c1.1709 0 19.8896 -5.45898 26.1299 -11.6992c2.34082 -2.33984 9.36035 -9.75 10.9199 -19.5c0.780273 -3.11914 3.12109 -4.67969 5.46094 -4.67969
c19.8896 -0.389648 36.2686 -17.5498 36.2686 -37.4395c0 -0.390625 -0.389648 -15.6006 -10.1396 -25.3506c-5.84961 -5.84961 -12.8691 -8.9707 -13.2598 -9.36035c-5.45898 -1.9502 -11.7002 -2.72949 -14.8193 -2.72949v0c-4.68066 0 -8.58105 2.33984 -13.6504 2.33984
c-2.73047 0 -3.89941 -0.780273 -4.68066 -1.56055c0 0 -0.779297 -0.389648 -2.33984 -2.33887c1.1709 -2.73145 2.73145 -6.24023 2.73145 -11.3105c0 -7.02051 -3.90039 -13.6504 -4.29102 -13.6504c-1.16992 -1.55957 -1.9502 -2.72949 -3.50977 -4.28906
c-3.89941 -3.90039 -9.35938 -7.80078 -13.6494 -9.36035c-10.1416 -4.29004 -18.7207 -4.29004 -19.5 -4.29004c-7.41016 0 -16.7705 2.72949 -17.1602 3.11914c-8.58105 3.51074 -19.1104 14.041 -22.6211 24.1807c-0.779297 1.56055 -2.72949 3.11914 -4.67871 3.51074
h-1.56055c0 0 -3.12109 -0.391602 -4.67969 -2.3418c-8.58105 -10.5293 -23.0098 -15.5996 -31.9805 -15.5996zM545.55 194.4v0v0zM451.17 269.671v0zM432.449 242.761c0 -26.1299 23.0107 -48.3604 46.8008 -48.3604c17.9395 0 31.5898 10.9209 33.9287 12.8701
l2.73145 2.33984c2.72949 -4.67871 4.67969 -7.41016 9.36035 -12.0898c5.06934 -5.07031 11.3086 -9.75 17.1582 -12.0889c5.46094 -1.9502 13.6504 -3.51074 19.5 -3.51074c7.41113 0 15.6006 1.56055 24.1816 5.07031c7.7998 3.11914 17.5498 10.9199 22.2295 17.5498
c2.33887 3.50977 4.68066 11.7002 4.68066 17.9404v4.67969c4.67871 -0.780273 6.23926 -1.56055 8.18945 -1.56055c2.33984 0 11.3105 1.16992 17.9395 3.89941c7.02051 2.73145 15.9902 10.1416 20.2793 15.9912c5.07129 7.01953 8.9707 19.1094 8.9707 27.6904
c0 6.23926 -2.33984 15.21 -5.07031 20.6689c-4.67969 9.36035 -19.8896 22.6201 -35.8799 25.3496l-1.55957 0.391602c-1.16992 3.89941 -3.90039 12.4795 -13.2607 21.8398c-5.06934 5.06836 -16.3789 14.4287 -31.5898 14.4287
c-19.5 0 -36.6602 -14.4287 -42.8994 -26.5186l-0.779297 -1.56055c-6.24023 -0.389648 -15.6006 -1.56055 -24.9609 -6.24023l-1.9502 -1.16992c-2.33887 3.50977 -3.50977 5.07031 -6.23926 7.7998c-7.7998 7.7998 -19.5 13.6504 -30.0312 14.04h-0.389648
c-12.8691 0 -31.9795 -10.5293 -38.6104 -26.9102c-1.55859 -4.29004 -2.33887 -14.04 -2.33887 -14.8193c0 -8.19043 3.89941 -19.1104 8.96973 -26.1309l1.16992 -1.55957l-1.16992 -1.55957c-5.45996 -7.7998 -9.36035 -19.8896 -9.36035 -28.4707zM582.6 246.661
c0 -7.01953 -4.67969 -13.2607 -11.7002 -13.2607h-0.389648h-28.0811h-9.3584c-2.34082 0 -5.85059 0 -8.9707 3.51074c-0.779297 0.780273 -3.50977 4.68066 -3.50977 10.1396c0 2.34082 0.780273 6.24023 2.33887 11.3096
c4.68164 18.7207 5.85059 24.1807 9.36035 31.2002c1.56055 3.51074 7.41016 14.04 19.1104 14.04c16.7705 0 21.8398 -18.3301 25.7402 -33.1504c1.16992 -5.45898 2.73047 -10.5293 3.89941 -15.9893c0.78125 -2.72949 1.56055 -5.06934 1.56055 -7.7998zM551.399 293.071
c-8.18945 0 -12.0898 -8.9707 -16.3789 -25.3506c-3.12109 -12.8701 -3.12109 -12.4795 -4.29102 -16.7705c-0.389648 -1.55859 -0.780273 -3.11914 -0.780273 -4.28906c0 -1.16992 0.390625 -1.56055 1.1709 -2.33984v0v0v0l0.389648 -0.389648v0v0h0.389648v0v0v-0.390625
h1.56055c36.6602 0 37.0498 0.390625 37.8291 0.390625c0.389648 0 1.56055 1.16895 1.56055 3.11914c0 1.55957 -5.45996 22.6201 -7.41016 29.6406c-4.67969 15.209 -10.1396 15.9902 -12.8691 16.3799v0h-1.1709zM530.34 247.831v0.389648h-1.9502zM531.12 244.321v0v0v0
zM531.12 244.321v0v0zM580.26 31.7705c1.56055 0 5.06934 0.390625 6.62988 0.780273c14.8203 2.73047 27.6895 17.1602 27.6895 33.1494c0 4.29102 -1.16895 10.1416 -2.33984 13.2607c-1.9502 4.28906 -5.84961 10.9199 -8.18945 14.4307
c-1.56055 2.33984 -2.72949 4.67969 -4.29004 7.01953l-18.7207 32.3701c0 -0.389648 -0.389648 -0.389648 -0.389648 -0.78125c-5.84961 -10.1396 -11.7002 -21.0586 -17.9395 -31.1992c-3.51074 -5.45898 -6.63086 -11.3096 -9.36035 -17.1592
c-7.7998 -15.9912 -6.23926 -32.3711 4.29004 -42.5107c5.07031 -5.07031 15.5996 -9.36035 22.6201 -9.36035zM588.449 24.75c-2.33887 -0.389648 -5.84961 -1.16895 -8.18945 -1.16895c-9.36035 0 -21.4502 5.06934 -28.0811 11.7002
c-13.2588 13.2598 -15.5996 33.9297 -6.23926 52.2598c4.68066 9.35938 10.1396 17.9404 15.21 26.9092c4.29004 7.41016 8.9707 14.8203 13.2607 22.6211c1.55957 3.50977 2.72949 5.45996 3.89941 6.62891c1.16992 1.1709 1.9502 1.1709 3.51074 1.1709
c1.16895 0 1.9502 -0.779297 2.33984 -1.1709c1.55957 -1.55859 2.33984 -3.50879 3.50977 -5.45898l19.1094 -33.9307c1.16992 -2.33984 2.73047 -4.67969 4.29102 -7.01953c2.72949 -4.29102 6.62891 -10.9199 8.5791 -15.5996
c1.56055 -3.90039 3.12109 -10.5303 3.12109 -15.5996c0 -19.8916 -15.9912 -37.8311 -34.3213 -41.3418zM579.87 139.021c0.779297 0.390625 1.9502 0.390625 2.72949 -0.389648c-0.389648 1.16992 -1.1709 2.33984 -1.56055 1.9502
c0 0 -0.779297 -0.780273 -1.16895 -1.56055z" />
  </g>

</svg>
