<?xml version="1.0" standalone="no"?>
<!DOCTYPE svg PUBLIC "-//W3C//DTD SVG 1.1//EN" "http://www.w3.org/Graphics/SVG/1.1/DTD/svg11.dtd" >
<svg xmlns="http://www.w3.org/2000/svg" xmlns:xlink="http://www.w3.org/1999/xlink" version="1.1" viewBox="-10 0 996 1000">
  <g transform="matrix(1 0 0 -1 0 800)">
   <path fill="currentColor"
d="M715.288 376.112c0 -26.7441 9.58984 -51.8545 28.3311 -70.6553c15.5547 -15.4932 45.4238 -27.832 67.3809 -27.832c4.9873 0 11.6328 0.794922 20 2.375c45.5986 8.60547 82.6035 53.1338 82.6035 99.6436c0 8.27441 -1.85156 20.9863 -4.21191 28.9248
c-5.19336 18.3516 -23.0537 45.626 -24.4307 47.6416c-6.39355 10.0938 -8.02832 12.6895 -10.7363 17.4082c-16.2188 28.5312 -32.4639 57.0371 -48.666 85.584c-4.49902 10.1855 -6.37793 12.0508 -9.88086 13.5879c-3.80078 0 -5.04297 -0.0322266 -7.15137 -2.14062
c-1.30273 -1.30273 -1.37793 -1.48633 -3.67676 -5.79199c-1.34961 -2.52832 -32.2266 -58.7646 -47.9932 -84.1504c-3.01758 -4.85938 -18.4951 -29.8467 -28.0508 -49.083c-9.05859 -18.2754 -13.5176 -37.2734 -13.5176 -55.5117zM811.306 290.722
c-17.8115 0 -44.5391 10.1475 -58.9082 24.5156c-15.8291 15.8291 -23.9922 37.2695 -23.9922 60.4414c0 16.2324 4.00586 33.3154 12.1875 49.915c7.24902 14.5938 15.9658 29.0293 24.4238 43.0293c7.56445 12.292 7.53223 12.2363 44.5547 76.8506
c0.0751953 0.142578 0.0751953 0.142578 3.89355 7.56641l49.2695 -85.5449c2.05566 -3.54102 3.90918 -6.67285 11.1367 -17.9756c6.51855 -9.54199 15.5234 -25.835 20.127 -36.3662c0.0761719 -0.19043 0.160156 -0.37207 0.240234 -0.558594v-0.046875
c4.63867 -11.874 6.38965 -25.6738 6.38965 -33.3262c0 -40.5234 -32.4297 -79.4736 -72.376 -86.752c-8.68066 -1.58203 -14.6543 -1.74805 -16.9463 -1.74805zM621.237 611.157l26.7676 11.8965l-9.68848 -30.4922l-78.9883 0.283203l-13.9199 31.9512l27.9395 -12.2734
l24.4941 28.6953zM534.543 635.723l19.4629 -49.1533h90.3691l15.3965 48.8496l-37.2324 -15.834l-25.2061 32.6289l-25.6406 -32.0645zM553.581 585.944zM597 546c-51.7559 0 -93.75 33.0049 -93.75 73.5c0 40.4932 41.9902 73.5 93.75 73.5
c51.7559 0 93.75 -33.0049 93.75 -73.5c0 -40.4932 -41.9902 -73.5 -93.75 -73.5zM597 702c-57.2539 0 -103.5 -36.502 -103.5 -81.75c0 -45.2471 46.2441 -81.75 103.5 -81.75c57.2539 0 103.5 36.502 103.5 81.75c0 45.2471 -46.2441 81.75 -103.5 81.75zM587.77 -57.9756
c-3.5791 0 -6.66309 2.91797 -6.66309 6.66309v234.082c0 3.59082 2.92871 6.66309 6.68555 6.66309c0 0 65.6543 -0.265625 77.9385 -0.314453l45.2266 40.918l2.12012 -16.5137l1.56055 -28.8594l164.852 3.59277c3.57031 0.0771484 6.6377 -2.93164 6.6377 -6.66406
v-67.499l39.9551 -46.5215l-30.4854 1.65137l-10.9199 1.55957l1.4502 -123.272c0.0419922 -3.58105 -2.9375 -6.66211 -6.68555 -6.66211zM868.297 68.4434l-20.2793 -3.12012l-25.5264 3.38379l42.5088 46.6211v51.8232l-148.803 1.91211l-0.780273 -24.1807
l-0.94043 -18.3311l-49.1611 41.457l-63.0791 0.270508v-205.15l262.764 -1.12891zM71.5039 -66.9844h42.7031l13.2012 40.1738l13.2002 -40.1738h42.7041l-34.5127 -24.8428l13.2002 -40.1729l-34.5918 24.8428l-34.5928 -24.8428l13.2012 40.1729zM71.5039 -66.9844
h42.7031l13.2012 40.1738l13.2002 -40.1738h42.7041l-34.5127 -24.8428l13.2002 -40.1729l-34.5918 24.8428l-34.5928 -24.8428l13.2012 40.1729zM71.5039 -66.9844h42.7031l13.2012 40.1738l13.2002 -40.1738h42.7041l-34.5127 -24.8428l13.2002 -40.1729l-34.5918 24.8428
l-34.5928 -24.8428l13.2012 40.1729z" />
  </g>

</svg>
