<?xml version="1.0" standalone="no"?>
<!DOCTYPE svg PUBLIC "-//W3C//DTD SVG 1.1//EN" "http://www.w3.org/Graphics/SVG/1.1/DTD/svg11.dtd" >
<svg xmlns="http://www.w3.org/2000/svg" xmlns:xlink="http://www.w3.org/1999/xlink" version="1.1" viewBox="-10 0 1051 1000">
  <g transform="matrix(1 0 0 -1 0 800)">
   <path fill="currentColor"
d="M828.399 483.872c0 9.49878 0.360099 25.4826 0.360099 28.905l-0.318652 61.3747l-8.69455 54.78l-24.0577 41.7601l-29.8355 19.1251l-33.9409 8.02542l-47.9505 1.85133v0.765382l-107.704 8.96128l-161.614 -4.8437l-135.511 -48.0118l4.97421 -24.8711
l90.1513 34.2037l168.519 13.9909l163.859 -8.05849l72.0585 -32.0852l24.6852 -76.5829c-11.2968 -92.7231 -11.5388 -94.7093 -10.6225 -98.1968c0.272553 -1.03738 0.408327 -1.98777 0.495372 -2.92219c0.487753 -0.641757 1.13403 -1.58506 1.4862 -2.05622
l30.4464 -40.7334l38.0432 -60.0682l23.93 -33.502l-96.7113 -80.2498l-3.19974 -219.288c0.962733 -7.56244 2.78458 -22.0112 5.01798 -45.877c-0.12894 -0.269919 -9.65147 -20.9678 -12.8349 -27.02c-1.80565 -3.43278 -3.36365 -6.39475 -8.94453 -11.1259
c-28.726 -6.87192 -37.6748 -9.01268 -53.7943 -9.01268c-3.38415 0 -6.77838 0.14333 -10.1737 0.446144l-127.95 -3.2205l-189.706 31.9736l-119.91 72.0259l-21.8729 31.5454c-0.18608 0.126152 -14.9542 10.3475 -18.5829 12.6523v-31.4635
c5.41685 -3.87145 13.5068 -7.36272 24.4398 -17.2503c7.32645 -6.62591 2.09556 -4.45645 10.6241 -11.9264c1.03002 -0.902171 1.03002 -0.902171 17.2005 -21.8062l70.2643 -41.1391l123.979 -35.7692l40.8353 -3.74581
c52.8258 -4.90757 59.0669 -6.73248 83.0467 -7.42728l68.08 -1.97257l89.7606 0.254271l51.1066 12.4914l15.1376 25.2075l6.27671 34.16l-0.268638 82.9487l0.0291888 84.2282l-0.00582149 87.5189l84.7837 67.8016l7.68593 8.96692l1.11464 7.19504
c0.44913 7.61262 -1.52476 12.8022 -3.31214 18.1783l-23.3304 38.8443l-33.0243 43.448l-34.3179 48.9016c-0.202711 16.1296 -0.202711 16.1296 -0.202711 17.6951zM33.2949 712.521h55.5146l17.1611 52.2256l17.1602 -52.2256h55.5156l-44.8672 -32.2959
l17.1611 -52.2246l-44.9697 32.2959l-44.9707 -32.2959l17.1611 52.2246zM455.218 595.761l76 -0.400391h3.60059l-4.40039 -243.199v-14.4004h-16.3994l-61.6006 0.400391v14.3994l61.6006 -0.399414l5.19922 230.399l-64 0.400391v12.7998zM566 211.31
c12.897 -0.273572 -24.7096 -62.9672 35.3291 -123.006c1.87598 -1.87793 3.09375 -2.81836 3.09375 -2.81836l-0.946289 -0.230469l-0.276367 -0.631836l1.52246 -0.849609c-6.61928 -4.41322 -6.61928 -4.41322 -9.58203 -1.20508
c-12.252 13.2637 -25.6641 27.8301 -36.2061 62.1895c-5.55131 -26.1611 -35.6828 -66.3202 -37.4951 -64.8896c-7.53146 5.96447 -7.53146 5.96447 -6.94238 6.73047c26.6948 34.6003 43.892 56.8903 43.3232 123.881
c-0.00891126 1.01054 -0.00891126 1.01054 8.17969 0.830078zM612.781 25.4531c0.238281 0.00976562 15.2988 0.000976562 15.3027 0.00878906c-1.61453 6.7722 -5.87019 24.6227 -0.140625 36.1133l10.9414 21.8818c-5.59961 86.7998 -5.59961 86.7998 -5.56836 87.1729
c1.83984 21.8379 3.44336 47.3105 1.56836 63.627c-4.87598 19.3662 -16.9746 15.2793 -19.8008 9.08496c-1.09657 -2.40216 -9.35624 -6.91964 -12.5273 -2.14648c-2.11719 3.18945 -11.9121 18.3564 -12.1699 18.8604c-3.54199 6.9375 -17.2061 11.2051 -19.8174 -2.52832
c-0.0947266 -0.496094 -0.0947266 -0.496094 -4.75879 -11.8643c-1.7373 -4.23535 -7.86328 -4.05957 -9.35156 0.271484l-8.77344 25.5225c-2.3457 6.82324 -16.9805 12.2715 -24.7109 -0.649414c-0.142578 -0.424805 -1.18652 -3.58984 -6.82715 -21.2832
c-5.84186 -18.3209 -27 39.1994 -33.6182 -0.601562c0.879506 -29.0483 1.98436 -65.5393 4.73633 -85.7256c5.76115 -22.2003 7.24114 -27.9034 4.58594 -32.417c-5.13467 -8.72877 -9.45511 -14.9973 -31.4551 10.3789l-20.5596 23.7236
c-11.4798 7.58595 -11.4798 7.58595 -22.1514 10.5742c-2.0293 -1.11328 -4.44727 -0.441406 -6.28125 -2.27539c-1.33105 -1.33105 -2.86621 -5.79004 -2.37793 -8.31445l11.3428 -15.2549c2.18555 -2.04785 13.8213 -12.1514 14.3662 -12.8574
c38.3016 -49.7039 38.3016 -49.7039 40.707 -55.2617l8.5791 -19.8877c15.2339 -23.6233 15.2339 -23.6233 15.7832 -25.9082c2.87207 -12.0361 23.2139 -12.6348 23.4805 -12.6406l22.25 -0.396484zM628.085 15.459h-14.9902
c-67.4404 -2.80078 -67.4404 -2.80078 -67.5898 -2.79883l-22.4102 0.400391c-3.55762 0.0673828 -27.8496 1.20312 -32.8496 19.6582c-8.29965 15.7668 -13.1598 19.7167 -15.3408 24.7705l-8.48633 19.6719l-10.5898 16.6416l-12.0322 16.3018l-16.5244 19.9824
c-14.1943 12.5723 -14.1943 12.5723 -14.8184 13.4102l-11.5996 15.6006c-9.99615 13.4398 11.3701 35.2041 32.1777 22.0117c11.3252 -7.17188 12.1846 -7.44238 13.8066 -9.06543c0.188477 -0.188477 -0.244141 -0.583984 21.0322 -24.2393
c11.085 -12.3242 11.5186 -11.9287 13.1104 -14.0859c0.262695 0.0234375 0.623047 0.0683594 1.0791 0.142578l0.536133 0.910156l0.239258 5.97852c-5.33301 20.1768 -5.27344 19.6201 -5.4541 20.9375c-3.31118 24.1119 -4.90685 87.6966 -4.76562 88.5723
c5.58882 34.6316 28.8631 22.4827 36.9531 11.6055c3.90332 12.3848 3.77832 12.3027 4.69336 13.8584c12.0898 20.5635 37.791 13.793 42.8779 -1.00488l4.29199 -12.4863c5.9873 20.1201 30.0713 17.124 37.7354 2.61816
c0.0888672 -0.138672 8.6084 -13.374 8.92969 -13.8682c12.5458 16.2161 34.5277 3.73105 36.7207 -15.5762c2.04785 -17.8154 0.337891 -43.293 -1.50684 -65.248l5.55176 -86.0527c0.112305 -1.74902 -0.231445 -3.52148 -1.03223 -5.12402l-10.6982 -21.3965
c-3.34052 -12.9485 -3.34052 -12.9485 0.676758 -29.7959c1.49902 -6.28223 -3.26172 -12.3301 -9.72363 -12.3301z" />
  </g>

</svg>
