<?xml version="1.0" standalone="no"?>
<!DOCTYPE svg PUBLIC "-//W3C//DTD SVG 1.1//EN" "http://www.w3.org/Graphics/SVG/1.1/DTD/svg11.dtd" >
<svg xmlns="http://www.w3.org/2000/svg" xmlns:xlink="http://www.w3.org/1999/xlink" version="1.1" viewBox="-10 0 1012 1000">
  <g transform="matrix(1 0 0 -1 0 800)">
   <path fill="currentColor"
d="M573.654 447.261c20.9463 0 51.9785 -11.4111 68.7744 -26.3809l0.152344 -0.163086c14.5664 -15.5352 26.5967 -45.7881 26.5967 -66.9971c0 -2.13477 -0.125977 -4.96875 -0.161133 -5.7666c0 -0.0351562 -0.00390625 -0.0654297 -0.00390625 -0.0898438
c-0.0195312 -17.7988 -5.20312 -53.8066 -50.2119 -97.4424c-86.6729 -84.0312 -134.157 -129.688 -143.575 -138.244c-1.24316 -1.12988 -1.02734 -1.39453 -2.82031 -2.08301l-1.87207 -0.787109c-2.62402 1.15625 -2.87012 1.26367 -3.6543 2.1084
c-11.4033 12.2598 -145.79 140.484 -147.236 141.931c-15.3457 15.3467 -28.4404 35.6836 -30.3994 39.0537c-3.91992 6.78809 -9.14941 18.6553 -11.5166 26.125c-3.97754 12.5488 -5.18164 24.6621 -5.23438 34.6533l-0.00390625 0.861328
c2.35449 6.64062 6.38379 24.8154 13.3008 42.7432c1.65332 4.28516 7.53711 18.8232 13.0986 23.835c16.1797 14.5771 47.3428 26.6123 69.0273 26.6123c10.1787 0 20.3008 -1.45215 32.0156 -5.31836c19.291 -6.36719 43.1934 -22.1074 65.3027 -44.2168
c3.94238 -3.94238 4.49609 -4.2627 4.9707 -4.2627c0.0917969 0 0.180664 0.0126953 0.291016 0.0126953c0.941406 0 0.941406 0 9.79883 8.85645c4.17676 4.17773 31.3877 30.5977 60.9277 40.332c12.8281 4.36816 28.3691 4.62793 32.4326 4.62793zM687.64 353.221
v0.242188c0 29.915 -17.168 65.8623 -32.9746 81.6699c-10.5254 10.5244 -47.9912 31.2607 -81.3711 31.2607c-19.792 0 -34.083 -4.40137 -38.9961 -6.15527c-8.94629 -2.99902 -22.0527 -9.36426 -29.9258 -14.5342
c0.00878906 0.00585938 0.0185547 0.0126953 0.0292969 0.0195312c-0.0107422 -0.00683594 -0.0205078 -0.0136719 -0.0576172 -0.0380859c0.00878906 0.00585938 0.0185547 0.0126953 0.0283203 0.0185547v0c-13.3438 -9.0459 -20.4219 -13.8447 -34.5742 -26.4238
c-49.04 43.875 -79.9473 46.541 -102.819 46.541c-30.7549 0 -68.3496 -18.2109 -82.5205 -32.3818c-10.4502 -10.4502 -31.1182 -46.6133 -31.1182 -79.4893c0 -20.1426 3.07617 -33.71 5.59082 -41.4932c2.78809 -8.78516 8.60547 -21.9512 13.2227 -29.9316
c1.27832 -2.20898 3.36426 -5.11426 14.418 -19.8662l0.115234 -0.955078c-0.0107422 0.0410156 -0.0439453 0.0693359 -0.0439453 0.0693359c0.00488281 -0.0146484 0.0205078 -0.046875 0.0458984 -0.09375c3.27734 -6.05469 17.1104 -20.2236 22.1367 -25.0908
l144.688 -140.112c1.4043 -1.3623 7.55371 -7.03906 16.3994 -7.03906c5.04688 0 10.9717 1.84863 17.3936 7.40039c1.28613 1.11133 11.4805 9.92285 144.208 139.527c56.0391 54.7197 56.126 97.0771 56.126 116.855zM404.412 402.57l62.0938 -61.7402l64.5107 61.7061
l19.9502 -17.2559l-64.3867 -65.0254l70.3672 -64.6807l-19.3613 -16.127l-69.4854 63.9648l-63.7725 -64.9092l-18.2305 19.9346l62.3027 63.3594l-61.5244 63.999zM37.3545 728.521h55.5146l17.1611 52.2256l17.1602 -52.2256h55.5156l-44.8672 -32.2959l17.1611 -52.2246
l-44.9697 32.2959l-44.9707 -32.2959l17.1611 52.2246zM271 608l-12 60c128.725 89.7881 355.203 55.3633 442.457 48.5605c0 -0.0107422 0.000976562 -0.0214844 0.000976562 -0.0322266c27.4463 0.582031 75.1855 -1.32129 107.268 -33.4033
c40.1396 -40.1396 38.6152 -108.841 37.5254 -169.365c-0.395508 -21.9258 -0.433594 -33.2402 -0.22168 -41.9463c26.3789 -43.8281 72.168 -89.959 89.3252 -129.607c6.95117 -16.0635 5.49219 -24.7637 2.64551 -40.2051l-12 -14l-79.501 -63.5771v-212.431
c1.93945 -31.0869 1.82422 -79.2412 -27.416 -108.48c-26.0322 -26.0322 -182.507 -12.0195 -220.584 -13.0049l-2.90137 0.0126953c-103.732 -7.2998 -296.108 50.6025 -326.603 92.1719c-18.5059 25.2275 -31.4014 41.2529 -57.9951 55.3086v70.0371
c25.8174 -16.2627 49.624 -17.8066 70.1904 -60.6357c44.2188 -92.082 349.455 -105.734 451.309 -108.438l-0.499023 -0.962891c50 12 34.1514 4.48145 42.5352 13.5361c19.1768 20.7119 3.97852 41.9688 5.50781 57.9648h-0.541992v2.14941
c-0.253906 0.990234 -0.500977 1.94141 -0.738281 2.84863h0.738281v207.174v3.4873v1.33887h1.58203l104 88h1.13281c4.9834 45.8955 -62.8379 92.1289 -94.2158 139.501l-3 4l-1 1c-2.02051 3.99219 0.0439453 4.02539 -2.08398 11.5605
c-0.0371094 0.130859 -0.189453 0.24707 -0.174805 0.367188l0.258789 2.07227l0.0644531 1.49902c0.00976562 0.226562 0.150391 3.89551 0.242188 6.24414c3.11426 79.1523 5.19727 173.389 -83.8154 173.771c-136.35 16.7461 -373.536 9.53418 -431.49 -46.5137z" />
  </g>

</svg>
