<?xml version="1.0" standalone="no"?>
<!DOCTYPE svg PUBLIC "-//W3C//DTD SVG 1.1//EN" "http://www.w3.org/Graphics/SVG/1.1/DTD/svg11.dtd" >
<svg xmlns="http://www.w3.org/2000/svg" xmlns:xlink="http://www.w3.org/1999/xlink" version="1.1" viewBox="-10 0 1010 1000">
  <g transform="matrix(1 0 0 -1 0 800)">
   <path fill="currentColor"
d="M134.221 -61.2959zM340.548 -55.9424v263.013l80.8701 -0.34668l63.0251 -53.1485c1.23064 24.1913 1.23064 24.1913 2.20835 54.5l190.772 -2.45117v-66.4404l-54.499 -59.7695l32.7266 -4.33887l26 4l-4.22754 -136.465zM695.938 -84.5088
c4.71561 0 8.54759 3.82766 8.57399 8.39457l-1.86111 158.189c12.9088 -1.84411 12.9088 -1.84411 53.0537 -4.0831l-51.1944 59.6085v86.5381c0 4.71977 -3.8161 8.4982 -8.24219 8.54782l-211.617 -4.6113c-2.01115 37.2063 -2.01115 37.2063 -4.71543 58.173
l-57.9857 -52.4621l-3.87834 0.0156927s-96.0008 0.388525 -96.0416 0.388607c-4.71785 0 -8.57227 -3.83432 -8.57227 -8.54297v-300.105c0 -4.69954 3.84858 -8.54199 8.54199 -8.54199c0 0 373.898 -1.50871 373.938 -1.50879zM29.3242 18.2246h55.5146l17.1611 52.2256
l17.1602 -52.2256h55.5156l-44.8672 -32.2959l17.1611 -52.2246l-44.9697 32.2959l-44.9707 -32.2959l17.1611 52.2246zM793.521 422.268c-9.46582 0 -9.46582 0 -62.7129 0.488281l0.0693359 0.374023h-3.7373l3.32031 203.1l-73.6006 40.4473v11.6748l69.252 -39.5293
c3.86816 -0.00878906 7.91504 0.00292969 12.2461 0.0263672l-47.707 89.7383h13.5518l47.6621 -89.6494l1.99609 0.0146484l0.765625 122.99h15.5674l-0.765625 -122.911c1.51758 0 3.03418 0.00195312 4.55176 0.00195312l51.6113 97.9893h13.5479l-51.1143 -97.042
l63.4414 25.5v-11.8926c-17.208 -7.6084 -34.3926 -15.2393 -51.6152 -22.833l-9.51758 -2.26562l1.66602 -55.4893l13.6865 7.95605l2.98828 -19.4297l-16.0381 -9.76074l3.95117 -131.573c-1.02344 0.692383 -2.04492 1.38477 -3.06641 2.0752zM778.375 437.07
l-4.75879 190.31h-2.45703l2.85449 -190.31h4.36133zM751.938 437.53v190.391l-2.83789 0.333984l-0.950195 -191.111zM221.348 658.76l1.51953 -11.9004h5.59961v-0.899414l181.36 -96.2402v96.4795l113.04 0.860352l-2 12.4199
c-74.0088 3.5957 -124.867 0.520508 -299.52 -0.719727z" />
  </g>

</svg>
