<?xml version="1.0" standalone="no"?>
<!DOCTYPE svg PUBLIC "-//W3C//DTD SVG 1.1//EN" "http://www.w3.org/Graphics/SVG/1.1/DTD/svg11.dtd" >
<svg xmlns="http://www.w3.org/2000/svg" xmlns:xlink="http://www.w3.org/1999/xlink" version="1.1" viewBox="-10 0 1047 1000">
  <g transform="matrix(1 0 0 -1 0 800)">
   <path fill="currentColor"
d="M704.627 19.8633c0.686523 0.0283203 44.0605 0.00390625 44.0742 0.0263672c-13.3613 56.0361 -9.6084 74.0801 -4.73438 89.8018c0.0449219 0.141602 3.81543 13.1768 4.3291 14.2041l31.5117 63.0186c-16.1299 249.984 -16.1299 249.984 -16.0371 251.06
c5.29688 62.8906 9.91602 136.255 4.5166 183.246c-14.0449 55.7754 -48.8887 44.0059 -57.0283 26.165c-2.87598 -6.30469 -6.11816 -7.0459 -14.4844 -8.96191c-6.50293 -5.81836 -16.7314 -4.5459 -21.5947 2.78027c-6.09668 9.18262 -34.3066 52.8633 -35.0488 54.3164
c-10.2002 19.9805 -49.5527 32.2715 -57.0752 -7.28027c-0.272461 -1.42871 -0.272461 -1.42871 -13.7041 -34.1699c-5.00488 -12.1973 -22.6465 -11.6904 -26.9336 0.779297l-25.2686 73.5059c-6.75391 19.6523 -48.9004 35.3438 -71.166 -1.86914
c-0.410156 -1.22461 -3.41602 -10.3408 -19.6631 -61.2959c-3.53125 -11.0771 -18.2715 -13.6094 -25.2773 -4.19629c-20.7842 27.9268 -20.7842 27.9268 -21.1494 28.2949c-0.135742 0.135742 -23.7373 23.6973 -37.1064 10.3262
c-7.32227 -7.32227 -11.4629 -25.1963 -13.2881 -36.1572c0.0527344 -1.64258 0.378906 -11.3438 2.18066 -58.3906c1.07129 -29.2969 2.375 -91.9072 2.40234 -92.8359c8.56934 -61.0771 4.60449 -62.9854 9.06055 -95.6631
c0.325195 -1.25684 2.79688 -10.7793 15.6289 -59.3623c0.126953 -0.475586 1.29883 -27.6748 -2.42188 -33.998c-9.14844 -15.5518 -9.78418 -16.6318 -15.8174 -18.0146c-23.8877 -5.47266 -31.4463 -0.660156 -39.5234 10.5459
c-4.15332 5.76367 -32.4092 34.082 -35.25 37.3594l-59.2129 68.3232c-1.60059 1.05762 -9.81641 6.44043 -34.5371 22.1016c-1.44531 0.435547 -8.36426 2.50391 -29.2598 8.35254c-5.84082 -3.20508 -12.8037 -1.27148 -18.0879 -6.55273
c-3.83203 -3.83496 -8.25293 -16.6748 -6.84668 -23.9463l32.668 -43.9336c6.29199 -5.89844 39.7324 -35.0498 41.3721 -37.0293c48.8154 -59.0342 48.8154 -59.0342 49.0508 -59.3525c35.4775 -48.0654 35.4775 -48.0654 35.7432 -48.4814
c31.9902 -50.2715 31.9902 -50.2715 32.4414 -51.3193l24.707 -57.2754c6.82715 -10.5801 33.2139 -50.3945 33.9209 -51.7363c11.1162 -21.125 11.1162 -21.125 11.5342 -22.8799c8.27246 -34.6641 66.8574 -36.3896 67.626 -36.4043l64.083 -1.14355zM748.702 -8.91797
h-43.1719c-194.228 -8.06836 -194.228 -8.06836 -194.659 -8.05957l-64.541 1.15332c-10.248 0.191406 -80.2061 3.46387 -94.6064 56.6133l-9.16895 17.418c-33.5527 50.9004 -32.9834 49.2158 -35.0127 53.9219l-24.4395 56.6543l-30.501 47.9277l-34.6523 46.9492
l-47.5879 57.5498c-40.8838 36.207 -40.8838 36.207 -42.6777 38.623l-33.4092 44.9268c-11.9189 16.0283 -3.59766 47.3037 10.0225 60.9248c7.98633 7.9873 15.5176 10.4258 26.6807 12.4814c6.17676 2.75977 13.1299 3.23828 19.5713 1.43457
c30.3965 -8.51172 31.0566 -8.06152 36.3975 -11.4453c32.6162 -20.6572 35.0908 -21.4375 39.7617 -26.1074c0.545898 -0.545898 -0.699219 -1.68359 60.5752 -69.8096c31.9258 -35.4961 33.1719 -34.3564 37.7559 -40.5703
c0.756836 0.0703125 1.79785 0.198242 3.11035 0.411133l1.54297 2.62305l0.688477 17.2158c-15.3564 58.1123 -15.1855 56.5078 -15.707 60.2998c-4.7998 34.9414 -0.579102 35.4395 -9.20312 96.6699c-0.131836 0.942383 -1.85547 75.7129 -2.56445 95.0703
c-2.30176 60.1553 -2.85547 57.7852 -1.95703 63.3496c2.80469 17.377 9.26562 57.4209 43.0986 64.5557c28.1289 5.93457 55.3975 -20.4756 59.1387 -25.5029l4.18945 -5.62793c11.2412 35.668 10.8799 35.4307 13.5146 39.9102
c34.8203 59.2236 108.839 39.7236 123.487 -2.89453l12.3623 -35.96c17.2441 57.9473 86.6055 49.3174 108.677 7.54102c0.258789 -0.399414 24.7939 -38.5156 25.7197 -39.9414c24.208 31.291 85.5127 36.5664 105.068 -41.0996
c0.3125 -1.24023 0.541016 -2.49609 0.6875 -3.75781c5.89453 -51.3096 0.972656 -124.684 -4.34082 -187.916l15.9902 -247.832c0.323242 -5.03613 -0.667969 -10.1416 -2.97461 -14.7539l-30.8115 -61.626c-0.884766 -3.43262 -1.92188 -6.86328 -3.28906 -11.2705
c-3.83398 -12.375 -7.88281 -19.5029 5.24121 -74.54c4.31348 -18.0928 -9.39746 -35.5098 -28.0059 -35.5098zM666.077 206.911c12.668 12.2812 33.7803 34.1562 33.7803 68.7207c0 13.0811 -8.125 33.5723 -17.1367 43.2441
c-11.5869 10.1748 -40.1963 22.6309 -65.4902 14.0166c-19.085 -6.28809 -38.0469 -24.3516 -40.7637 -27.0674c-5.30469 -5.30469 -6.38379 -7.86523 -10.8057 -7.93359c-3.27832 0 -3.27832 0 -7.96191 4.68457c-7.43848 7.4375 -33.25 33.251 -64.5664 33.251
c-16.0117 0 -38.2109 -10.6641 -44.9746 -17.4297c-5.51172 -5.51172 -11.9863 -27.2188 -14.6445 -36.8193c-0.733398 -2.64844 -1.33691 -4.8584 -1.9209 -6.65625c0.34082 -36.1543 25.2275 -59.9541 40.0225 -74.1016
c62.2236 -59.5068 86.8154 -83.2822 94.0518 -90.627c7.94043 7.32715 41.3076 39.418 100.41 96.7178zM492.473 366.216c16.6631 0 40.1914 -2.76562 72.5234 -29.1836c8.13477 6.6377 22.0459 15.9512 22.2461 15.7305c53.4023 31.7715 104.431 0.288086 116.282 -11.5645
c1.11426 -1.11328 69.2988 -72.873 -16.4268 -156.581c-93.668 -91.4629 -100.686 -97.5498 -102.229 -98.8848c-12.9512 -11.1992 -28.7012 -10.1182 -38.3994 -0.724609l-104.789 101.476c-7.16309 7.16113 -13.6562 13.5527 -16.3926 19.6895
c-10.7324 14.3379 -24.4814 33.4746 -24.4814 69.6201c0 27.4863 15.4766 54.3701 25.3203 64.2119c12.6689 12.6709 40.7441 26.2109 66.3467 26.2109z" />
  </g>

</svg>
