<?xml version="1.0" standalone="no"?>
<!DOCTYPE svg PUBLIC "-//W3C//DTD SVG 1.1//EN" "http://www.w3.org/Graphics/SVG/1.1/DTD/svg11.dtd" >
<svg xmlns="http://www.w3.org/2000/svg" xmlns:xlink="http://www.w3.org/1999/xlink" version="1.1" viewBox="-10 0 961 1000">
  <g transform="matrix(1 0 0 -1 0 800)">
   <path fill="currentColor"
d="M30.3242 741.553h55.5146l17.1611 52.2256l17.1602 -52.2256h55.5156l-44.8672 -32.2959l17.1611 -52.2246l-44.9697 32.2959l-44.9707 -32.2959l17.1611 52.2246zM271 608l-12 60c128.725 89.7881 355.203 55.3633 442.457 48.5605
c0 -0.0107422 0.000976562 -0.0214844 0.000976562 -0.0322266c27.4463 0.582031 75.1855 -1.32129 107.268 -33.4033c40.1396 -40.1396 38.6152 -108.841 37.5254 -169.365c-0.395508 -21.9258 -0.433594 -33.2402 -0.22168 -41.9463
c26.3789 -43.8281 72.168 -89.959 89.3252 -129.607c6.95117 -16.0635 5.49219 -24.7637 2.64551 -40.2051l-12 -14l-79.501 -63.5771v-212.431c1.93945 -31.0869 1.82422 -79.2412 -27.416 -108.48c-26.0322 -26.0322 -182.507 -12.0195 -220.584 -13.0049
l-2.90137 0.0126953c-103.732 -7.2998 -296.108 50.6025 -326.603 92.1719c-18.5059 25.2275 -31.4014 41.2529 -57.9951 55.3086v70.0371c25.8174 -16.2627 49.624 -17.8066 70.1904 -60.6357c44.2188 -92.082 349.455 -105.734 451.309 -108.438l-0.499023 -0.962891
c50 12 34.1514 4.48145 42.5352 13.5361c19.1768 20.7119 3.97852 41.9688 5.50781 57.9648h-0.541992v2.14941c-0.253906 0.990234 -0.500977 1.94141 -0.738281 2.84863h0.738281v207.174v3.4873v1.33887h1.58203l104 88h1.13281
c4.9834 45.8955 -62.8379 92.1289 -94.2158 139.501l-3 4l-1 1c-2.02051 3.99219 0.0439453 4.02539 -2.08398 11.5605c-0.0371094 0.130859 -0.189453 0.24707 -0.174805 0.367188l0.258789 2.07227l0.0644531 1.49902
c0.00976562 0.226562 0.150391 3.89551 0.242188 6.24414c3.11426 79.1523 5.19727 173.389 -83.8154 173.771c-136.35 16.7461 -373.536 9.53418 -431.49 -46.5137zM409.743 174.031c0 -17.1152 6.1377 -33.1875 18.1328 -45.2188
c9.95508 -9.91602 29.0713 -17.8125 43.124 -17.8125c3.19043 0 7.44531 0.507812 12.7998 1.51953c29.1826 5.50781 52.8662 34.0059 52.8662 63.7715c0 5.29688 -1.18457 13.4326 -2.69629 18.5117c-3.32324 11.7451 -14.7539 29.2012 -15.6348 30.4912
c-4.0918 6.45996 -5.13867 8.12207 -6.87109 11.1416c-10.3809 18.2598 -20.7773 36.5029 -31.1465 54.7734c-2.87988 6.51953 -4.08203 7.71289 -6.32422 8.69629c-2.43262 0 -3.22754 -0.0205078 -4.57715 -1.36914
c-0.833008 -0.834961 -0.881836 -0.952148 -2.35254 -3.70801c-0.863281 -1.61719 -20.625 -37.6094 -30.7148 -53.8564c-1.93262 -3.10938 -11.8379 -19.1006 -17.9531 -31.4121c-5.79688 -11.6963 -8.65234 -23.8564 -8.65234 -35.5283zM471.195 119.382
c-11.3994 0 -28.5049 6.49316 -37.7021 15.6904c-10.1289 10.1299 -15.3545 23.8516 -15.3545 38.6816c0 10.3887 2.56445 21.3213 7.7998 31.9463c4.63965 9.33887 10.2188 18.5781 15.6318 27.5381c4.84082 7.86719 4.82031 7.83105 28.5156 49.1846
c0.0478516 0.0908203 0.0478516 0.0908203 2.49121 4.84277l31.5322 -54.75c1.31543 -2.26562 2.50195 -4.26953 7.12793 -11.5029c4.17188 -6.10742 9.93457 -16.5342 12.8809 -23.2744c0.0488281 -0.123047 0.102539 -0.238281 0.154297 -0.358398v-0.0292969
c2.96875 -7.60059 4.08887 -16.4316 4.08887 -21.3291c0 -25.9355 -20.7549 -50.8633 -46.3203 -55.5215c-5.55566 -1.01172 -9.37891 -1.11816 -10.8457 -1.11816zM463.628 411.192h6.86426c0.169922 -4.73047 0.338867 -9.46094 0.507812 -14.1924
c26.1523 0.916016 49.7949 11.9307 67.127 29.2627c6.2998 6.29883 11.7656 13.4336 16.2148 21.2207l-10.9824 5.82812l-1.35156 -2.13965l-67.3623 31.7832c-2.19727 -1.20312 -4.71973 -1.8877 -7.40234 -1.8877c-8.52246 0 -15.4287 6.90723 -15.4287 15.4287
c0 6.51367 4.03418 12.082 9.74023 14.3467v71.9492h1.58398v13.1484c-13.4648 -0.633789 -51.8047 -5.83398 -77.4512 -43.2891c3.85742 -2.22754 7.71582 -4.45508 11.5732 -6.68262l-3.95996 -6.8584c-3.94336 2.27637 -7.88477 4.55273 -11.8271 6.8291
c-8.36035 -14.5723 -13.1406 -31.4521 -13.1406 -49.4443c0 -17.5479 4.5752 -34.0596 12.5996 -48.4062c4.07812 2.35547 8.15625 4.70996 12.2354 7.06641l3.95996 -6.86035l-12.0557 -6.96094c17.2344 -25.7764 46.1484 -43.0957 79.0625 -44.3271
c-0.168945 4.72949 -0.337891 9.45703 -0.506836 14.1855zM576.746 496.495c0 -60.0859 -48.7666 -108.853 -108.856 -108.853c-60.0879 0 -108.855 48.7666 -108.855 108.856c0 59.7344 48.4766 108.494 108.208 108.853h0.216797
c60.0977 0 109.048 -48.7705 109.287 -108.856zM471.058 596.003v-13.2109h1.03809l2.59961 -72.7812c4.21875 -2.33105 7.22852 -6.58105 7.85645 -11.5713l66.3408 -36.3652l-1.85938 -2.94434l10.5068 -5.57617c6.28906 13.0068 9.8418 27.5703 9.90723 42.9473
c0 18.5723 -5.09375 35.9561 -13.96 50.8418l-11.5166 -7.20996l-3.43262 5.94629c3.74512 2.34473 7.49121 4.68945 11.2373 7.03418c-7.68262 11.084 -32.8418 41.4521 -78.7178 42.8896z" />
  </g>

</svg>
