<?xml version="1.0" standalone="no"?>
<!DOCTYPE svg PUBLIC "-//W3C//DTD SVG 1.1//EN" "http://www.w3.org/Graphics/SVG/1.1/DTD/svg11.dtd" >
<svg xmlns="http://www.w3.org/2000/svg" xmlns:xlink="http://www.w3.org/1999/xlink" version="1.1" viewBox="-10 0 1008 1000">
  <g transform="matrix(1 0 0 -1 0 800)">
   <path fill="currentColor"
d="M348.481 97.6934l-82.2217 148.848l24.0225 10.1475l58.4395 -100.383l53.3027 101.418l27.2285 -11.0254zM265.568 -67.707v34.6641h38.626v22.0713h-38.626v34.6641h38.626v33.7148h31.3828v-33.7148h23.2197v31.2539h31.3828v-31.2539h41.292v-34.6641h-41.292
v-22.0713h41.292v-34.6641h-41.292v-36.1855h-31.3828v36.1855h-23.2197v-33.7246h-31.3828v33.7246h-38.626zM335.577 -33.043h23.2197v22.0713h-23.2197v-22.0713zM780.659 223.904c-0.529297 0 -0.985352 0.173828 -1.32227 0.358398l-214.094 -88.2627v-37.8242
c12.126 5.10742 24.251 10.2148 36.376 15.3213v-3.77051l-0.21875 -161.659h318.305l0.646484 155.446c10.9619 -6.48535 21.9238 -12.9697 32.8867 -19.4551l-0.677734 40.7051l-136.33 79.1182l1.46387 0.616211c-22.6963 11.7715 -24.457 12.7314 -36.2109 19.5508
c-0.288086 -0.102539 -0.56543 -0.144531 -0.824219 -0.144531zM884.594 -16.7148h-248.003l-0.665039 144.662l142.009 59.8174l107.859 -63.8086zM63.3545 -23.4795h55.5146l17.1611 52.2256l17.1602 -52.2256h55.5156l-44.8672 -32.2959l17.1611 -52.2246
l-44.9697 32.2959l-44.9707 -32.2959l17.1611 52.2246zM754.338 470.619c53.6094 0.1875 107.217 0.1875 160.825 0c3.52734 0.0683594 7.05273 0.137695 10.5752 0.214844c12.9902 -0.200195 23.7031 5.93848 31.1484 18.998
c6.70703 11.7656 10.1436 26.8252 8.7168 33.8496c-0.648438 3.27246 -5.59375 17.9336 -7.21289 24.375c-6.13672 24.3643 -12.1465 48.7822 -18.0312 73.2461c-3.49414 14.0811 -7.34961 27.998 -11.5566 41.751c-4.38672 14.1904 -9.66602 27.8193 -15.834 40.8867
c-5.43848 11.2324 -12.0059 21.3682 -19.707 30.4102c-13.1709 14.71 -28.6191 23.041 -46.3457 24.9941c-12.0967 1.45312 -23.9629 0.00976563 -35.5996 -4.33398c-10.6572 -4.34082 -20.1318 -11.1289 -28.4316 -20.3721
c-7.53125 -8.66113 -13.9443 -18.4131 -19.2441 -29.251c-4.80957 -9.8584 -9.04395 -20.1152 -12.7119 -30.7744c-3.65527 -10.667 -6.96777 -21.5 -9.94141 -32.5068c-2.22656 -8.30566 -4.38379 -16.6367 -6.47168 -24.9932
c-4.20312 -17.4482 -8.44043 -34.8799 -12.7129 -52.2998c-2.1748 -7.95605 -4.25293 -15.9502 -6.24121 -23.9814c-1.16504 -4.91699 -2.20801 -9.88086 -3.12109 -14.8818c-2.45312 -17.7227 1.69141 -32.5312 12.4248 -44.4248
c3.60352 -3.77148 7.64746 -6.61035 12.1348 -8.52539c2.45996 -0.873047 4.96582 -1.44922 7.51562 -1.7334c3.28809 -0.325195 6.55957 -0.545898 9.82227 -0.647461v0zM754.338 485.21c-2.64062 0.112305 -5.30176 0.28125 -7.97559 0.506836
c-1.91504 0.180664 -3.80078 0.56543 -5.66211 1.15234c-3.31445 1.46875 -6.27832 3.6377 -8.90137 6.50195c-7.07324 8.2793 -9.67383 18.3691 -7.79883 30.2676c0.991211 5.19629 2.10645 10.3496 3.35059 15.457c2.28125 8.55176 4.51562 17.125 6.70312 25.7178
c4.18262 17.2969 8.38086 34.583 12.5996 51.8643c2.06445 8.22461 4.2207 16.4111 6.4707 24.5625c4.03125 14.6875 8.81055 28.9912 14.332 42.9043c4.12402 10.2256 9.05664 19.7627 14.791 28.6084c15.9189 23.7246 36.3193 34.4873 61.2002 32.2871
c16.8809 -1.16406 31.4062 -8.96875 43.5752 -23.4023c6.69336 -8.36523 12.4141 -17.6367 17.1621 -27.8115c5.25293 -11.5107 9.7998 -23.4531 13.6377 -35.8311c3.94043 -12.8506 7.5625 -25.8535 10.8643 -39.0068c4.34961 -17.7061 8.66699 -35.4297 12.9434 -53.1621
c1.61914 -6.35645 3.23633 -12.7129 4.85449 -19.0723c1.78125 -7.21387 3.40039 -14.4844 4.85645 -21.8154c0.71875 -3.41309 1.02832 -6.87793 0.924805 -10.4004c-1.06836 -11.0791 -5.40234 -19.4814 -13.0029 -25.2119
c-2.45898 -1.85645 -5.11621 -2.96777 -7.97656 -3.32227c-4.07031 -0.541016 -8.15137 -0.77832 -12.251 -0.722656c-54.8984 -0.0712891 -109.799 -0.0976562 -164.697 -0.0712891v0zM379.154 749.565l-0.735352 13.9648l205.311 0.980469l-0.40918 -14.9453h-204.166z
M380.204 688.315l-1.22461 15.9795l205.309 -0.980469l0.0820312 -14.999h-204.166zM470.381 437.009c-9.62012 6.27148 -21.5254 14.0254 -26.4551 17.2334c-4.93066 3.20703 -10.5889 6.92969 -12.5732 8.27246l-3.60938 2.44238l-9.97656 30.0186l-9.97754 30.0186
l3.31934 33.1084c1.8252 18.209 3.5166 33.4258 3.75781 33.8174c0.240234 0.389648 13.1328 6.97266 28.6494 14.627l28.2119 13.9199l7.33984 0.776367c4.03711 0.426758 12.25 1.30176 18.2539 1.94727c22.4336 2.4082 17.3926 3.33984 40.9229 -7.56738
l20.6562 -9.57617l15.7852 -25.2168c8.68164 -13.8672 -2.74219 -42.2412 -2.74219 -43.0732c0 -0.831055 37.041 -28.3213 31.5 -46.1992c-5.54102 -17.8799 -18.3145 -39.7695 -20.2998 -46.2002c-1.98633 -6.43066 -17.5488 -4.93262 -18.2002 -6.2998
c-0.915039 -1.92285 -0.914062 -1.00488 -30.0996 2.7998c-8.88379 1.1582 -18.3291 -3.61523 -21.5439 -5.12695c-11.2617 -5.29297 -24.293 -11.1221 -24.8574 -11.1221c-0.313477 0 -8.44141 5.13086 -18.0615 11.4004z" />
  </g>

</svg>
