<?xml version="1.0" standalone="no"?>
<!DOCTYPE svg PUBLIC "-//W3C//DTD SVG 1.1//EN" "http://www.w3.org/Graphics/SVG/1.1/DTD/svg11.dtd" >
<svg xmlns="http://www.w3.org/2000/svg" xmlns:xlink="http://www.w3.org/1999/xlink" version="1.1" viewBox="-10 0 1008 1000">
  <g transform="matrix(1 0 0 -1 0 800)">
   <path fill="currentColor"
d="M494.916 474.19zM246.826 641.096zM200.496 555.804zM381.012 444.286zM380.688 433.929zM242.762 472.442zM322.276 447.428zM539.168 575.088zM200.496 555.804zM539.168 575.088zM429.312 684.591c-17.4893 0 -32.2949 -6.80176 -39.8037 -14.3115
c-2.85742 -2.85742 -2.12793 -3.00586 -3.30957 -3.43652c-5.30957 -1.93555 -10.5117 -2.63672 -15.2598 -2.63672c-4.48242 0 -12.6279 0.661133 -21.4463 4.62402c-5.99219 7.29492 -16.127 13.9326 -33.167 13.9326c-25.5811 0 -54.752 -15.833 -64.8965 -39.5566
l-0.501953 -1.17188h-1.76465l-46.2188 -62.7988h-2.21094v-3.00391c-0.299805 -0.407227 -0.599609 -0.813477 -0.899414 -1.22168h0.484375l-5.11914 -19.1953l-0.576172 0.00976562c-0.102539 -1.96582 -0.288086 -3.0957 -0.90918 -5.53809h0.745117
c-0.0175781 -2.16992 -0.0175781 -2.16992 -0.0175781 -2.39062c0 -14.0332 6.05566 -42.4336 46.418 -75.8154c42.6279 -35.2588 90.8359 -39.1455 130.801 -39.1455c65.5039 0 92.21 8.20898 131.407 39.1826c47.8828 37.8359 48.6904 48.9775 50.0078 76.6318
l-1.34082 0.0214844c-0.0810547 0.306641 -5.96289 24.3066 -8.04883 30.7666l-34.2227 58.4795c-3.85645 4.02637 -3.85645 4.02637 -4.24512 4.69238h-0.253906c-12.0332 12.3145 -37.2559 35.3594 -61.8838 40.4648c-4.71191 0.977539 -9.32715 1.41699 -13.7676 1.41699
zM315.658 667.677c3.68164 0 11.8633 0 21.1934 -6.41992l-0.0722656 -0.889648c0.538086 -0.220703 1.40137 -0.625977 2.23926 -1.42188c7.90527 -7.51172 20.0537 -11.0391 31.5889 -11.0391c10.7432 0 20.9541 3.05957 26.7031 8.80957
c1.11816 1.11816 2.9248 2.92383 4.32031 7.12988c5.92285 4.04199 15.333 8.45215 28.1758 8.45215c17.043 0 25.0107 -7.4209 31.1211 -13.1113c4.74805 -4.42188 11.001 -10.2588 24.4482 -19.1572c0.514648 -0.111328 0.936523 -0.359375 1.27344 -0.741211
l0.295898 0.0107422l38.459 -60.6611c0 -0.103516 -0.00195312 -0.207031 -0.00195312 -0.311523c2.75879 -10.334 5.27734 -20.9082 7.93359 -31.3447c0.927734 -3.70996 1.44922 -7.14746 1.44922 -10.4766c0 -15.9707 -11.8818 -28.9092 -46.1094 -56.8799
c-31.54 -25.7715 -54.3789 -34.6123 -123.212 -34.6123c-37.2627 0 -67.2998 4.57812 -102.38 29.1328c-43.2432 30.2715 -49.0576 52.5625 -49.0576 72.4141c0 1.30957 0.0244141 2.59961 0.0615234 3.86914c2.1582 8.56348 4.50195 16.9404 6.72949 25.4336
l42.1436 59.665c0.597656 -0.229492 1.19434 -0.460938 1.79297 -0.69043c1.41895 3.34375 3.83594 9.03906 10.3955 15.5986c10.5703 10.5703 26.2148 17.2412 40.5088 17.2412zM232.481 97.6934l-82.2217 148.848l24.0225 10.1475l58.4395 -100.383l53.3027 101.418
l27.2285 -11.0254zM149.568 -67.707v34.6641h38.626v22.0713h-38.626v34.6641h38.626v33.7148h31.3828v-33.7148h23.2197v31.2539h31.3828v-31.2539h41.292v-34.6641h-41.292v-22.0713h41.292v-34.6641h-41.292v-36.1855h-31.3828v36.1855h-23.2197v-33.7246h-31.3828
v33.7246h-38.626zM219.577 -33.043h23.2197v22.0713h-23.2197v-22.0713zM664.659 223.905c-0.528664 0 -0.985482 0.173609 -1.32195 0.35837l-214.093 -88.2633v-37.8236l36.3751 15.3214v-3.77139l-0.218472 -161.658h318.305l0.646464 155.446l32.8863 -19.4552
l-0.67749 40.7048l-136.33 79.1188l1.46379 0.61569c-22.6968 11.7717 -24.4573 12.7314 -36.2113 19.5513c-0.288261 -0.102785 -0.564955 -0.144581 -0.824352 -0.144581zM768.594 -16.7153h-248.002l-0.665609 144.662l142.009 59.8176l107.859 -63.8083z
M38.3242 728.225h55.5146l17.1611 52.2256l17.1602 -52.2256h55.5156l-44.8672 -32.2959l17.1611 -52.2246l-44.9697 32.2959l-44.9707 -32.2959l17.1611 52.2246zM722.811 439.266c-8.67773 0 -8.67773 0 -57.499 0.448242l0.0634766 0.342773h-3.42773l3.04492 186.218
l-67.4844 37.0859v10.7041l63.4961 -36.2432c3.54688 -0.00878906 7.25781 0.00292969 11.2295 0.0234375l-43.7432 82.2803h12.4258l43.7012 -82.1982l1.8291 0.0136719l0.703125 112.767h14.2734l-0.702148 -112.694c1.39062 0 2.78223 0.00195313 4.17285 0.00195313
l47.3223 89.8438h12.4219l-46.8652 -88.9756l58.168 23.3799v-10.9033c-15.7783 -6.97559 -31.5352 -13.9727 -47.3262 -20.9355l-8.72559 -2.07812l1.52734 -50.877l12.5479 7.2959l2.74121 -17.8145l-14.7051 -8.9502l3.62207 -120.637
c-0.9375 0.634766 -1.87402 1.26855 -2.81152 1.90234zM708.923 452.837l-4.3623 174.493h-2.25391l2.61719 -174.493h3.99902zM684.684 453.26v174.565l-2.60254 0.305664l-0.87207 -175.225z" />
  </g>

</svg>
