<?xml version="1.0" standalone="no"?>
<!DOCTYPE svg PUBLIC "-//W3C//DTD SVG 1.1//EN" "http://www.w3.org/Graphics/SVG/1.1/DTD/svg11.dtd" >
<svg xmlns="http://www.w3.org/2000/svg" xmlns:xlink="http://www.w3.org/1999/xlink" version="1.1" viewBox="-10 0 1012 1000">
  <g transform="matrix(1 0 0 -1 0 800)">
   <path fill="currentColor"
d="M488.801 330.073zM714.542 319.575c2.7492 0 4.99356 -2.23958 4.99356 -5.00526c0 -1.48471 -0.668283 -2.9073 -1.81986 -3.85521c-106.989 -88.0643 -106.989 -88.0643 -134.185 -110.461c0.959318 -0.77645 0.959318 -0.77645 19.1046 -20.3987
c49.9769 42.8188 102.892 88.8501 175.642 152.254c-25.8258 22.784 -154.37 137.034 -179.289 159.792c-2.94075 -3.46359 -8.38005 -9.53796 -18.6519 -20.3047c2.23 -1.7556 2.23 -1.7556 137.979 -117.95c0.502292 -0.429927 1.74659 -1.7057 1.74659 -3.79378
c0 -2.73984 -2.20347 -4.96758 -4.92552 -5.00445c0 0 -242.267 -3.28519 -242.334 -3.28565c-1.27649 0 -2.51269 0.489903 -3.43938 1.36495l-127.175 120.088l-10.6171 -11.8033l105.328 -100.542c0.485766 -0.463681 1.54518 -1.69455 1.54518 -3.61102
c0 -2.7588 -2.23867 -5.00097 -4.98892 -5.00453l-40.6436 -0.0527344c-87.2615 0 -174.523 -4.16e-06 -261.785 -4.16e-06l0.144703 -20.5005l302.605 -3.74235c2.72369 -0.0336649 4.93116 -2.26163 4.93116 -5.00463c0 -0.656485 -0.159783 -2.47509 -1.80113 -3.83982
l-113.471 -94.348l11.3553 -12.2806c130.637 112.882 130.637 112.882 131.582 113.194c4.89553 1.61795 4.89553 1.61795 5.2771 1.62184c0 0 242.841 2.4732 242.891 2.47346z" />
  </g>

</svg>
