<?xml version="1.0" standalone="no"?>
<!DOCTYPE svg PUBLIC "-//W3C//DTD SVG 1.1//EN" "http://www.w3.org/Graphics/SVG/1.1/DTD/svg11.dtd" >
<svg xmlns="http://www.w3.org/2000/svg" xmlns:xlink="http://www.w3.org/1999/xlink" version="1.1" viewBox="-10 0 1097 1000">
  <g transform="matrix(1 0 0 -1 0 800)">
   <path fill="currentColor"
d="M241.961 695.813c0 -3.60216 0.587896 -22.4174 0.587896 -22.6439c0 -35.0169 -9.50429 -102.647 -9.50429 -135.741c0 -1.75825 0.0583815 -12.4189 1.45394 -15.461l1.89552 -1.01379l0.248911 -2.67601c10.1274 -108.878 109.34 -212.824 124.38 -224.467
l-4.97593 -1.16741l-1.4281 -3.27422l7.76673 -4.33521l-23.3188 -15.5447c-5.18251 5.65275 -5.53197 6.03391 -10.8583 11.8003c-40.1225 43.4373 -84.2125 91.394 -119.144 201.789c-12.8497 -53.4803 -44.9339 -109.087 -74.1326 -146.168
c-22.5881 -28.6859 -24.1084 -40.6011 -48.5146 -67.718l-30.131 23.8523c18.1672 23.5499 58.8378 79.292 59.4419 80.0856c80.1356 105.265 87.6794 242.455 87.6794 323.022c0 5.97735 -0.0288339 9.37302 -0.100542 17.8179
c9.69323 -0.213612 19.3865 -0.427225 29.0797 -0.640837c2.08189 -0.0444016 9.64614 -0.931124 9.64614 -11.4736c0 -0.0604232 -0.071426 -1.97986 -0.071426 -6.04189zM614.594 623.08c3.43848 -61.0859 -25.5898 -235.091 -8.5127 -244.225
c16.7637 -180.238 191.267 -348.641 191.487 -342.145l-29.5684 -19.7109c-66.5244 72.5615 -140.753 144.372 -197.316 340.991c-12.5938 -86.5742 -66.6699 -183.541 -115.259 -245.248c-29.5654 -37.5459 -42.2412 -67.583 -67.585 -95.7432l-33.792 26.751
c38.0166 49.2803 59.3545 81.043 84.4805 114.049c128.286 168.514 133.652 389.767 132.657 506.979c11.9375 -0.263672 23.875 -0.526367 35.8135 -0.790039c6.71582 -0.144531 6.98926 -6.67188 7.10547 -9.46094
c0.0136719 -0.313477 -0.4375 -14.9805 0.489258 -31.4473zM926.396 729.145c-40.497 -56.696 -175.396 -177.145 -248.835 -280.771l26.6035 -25.9805l211.969 246.287c17.6074 -29.1953 42.7334 -63.7109 51.0986 -86.3682l59.4824 84.8145zM380.467 523.534
c0 -1.15153 0.440291 -2.30585 1.31649 -3.18205l53.79 -52.8295c0.87304 -0.857313 2.01218 -1.28679 3.15279 -1.28679c0.677819 0 1.34354 -0.0901725 1.98385 -0.243179c0.725532 1.26023 64.9833 80.6244 89.3886 114.698
c0.842586 1.17611 1.1261 2.22516 1.1261 3.00408c0 0.764093 -0.207137 2.49943 -1.93291 3.69706c-8.78564 6.1015 -12.5164 8.48064 -13.1743 8.79321l-0.910889 0.00827143c-1.15233 -9.99989e-10 -2.30383 -0.439248 -3.18025 -1.31566
c-0.195121 -0.195162 -33.9095 -42.9 -74.1477 -93.8684l-39.6307 36.4007c-0.857143 0.787664 -1.95133 1.18372 -3.04139 1.18372c-1.90426 9.99989e-10 -1.90426 9.99989e-10 -13.4724 -11.9279c-0.845404 -0.871778 -1.26734 -2.00129 -1.26734 -3.13122z" />
  </g>

</svg>
