<?xml version="1.0" standalone="no"?>
<!DOCTYPE svg PUBLIC "-//W3C//DTD SVG 1.1//EN" "http://www.w3.org/Graphics/SVG/1.1/DTD/svg11.dtd" >
<svg xmlns="http://www.w3.org/2000/svg" xmlns:xlink="http://www.w3.org/1999/xlink" version="1.1" viewBox="-10 0 955 1000">
  <g transform="matrix(1 0 0 -1 0 800)">
   <path fill="currentColor"
d="M63.5039 -21.9844h42.7031l13.2012 40.1738l13.2002 -40.1738h42.7041l-34.5127 -24.8428l13.2002 -40.1729l-34.5918 24.8428l-34.5928 -24.8428l13.2012 40.1729zM551.77 130.024c-3.5791 0 -6.66309 2.91797 -6.66309 6.66309v234.082
c0 3.59082 2.92871 6.66309 6.68555 6.66309c0 0 65.6543 -0.265625 77.9385 -0.314453l45.2266 40.918l2.12012 -16.5137l1.56055 -28.8594l164.852 3.59277c3.57031 0.0771484 6.6377 -2.93164 6.6377 -6.66406v-67.499l39.9551 -46.5215l-30.4854 1.65137
l-10.9199 1.55957l1.4502 -123.272c0.0419922 -3.58105 -2.9375 -6.66211 -6.68555 -6.66211zM832.297 256.443l-20.2793 -3.12012l-25.5264 3.38379l42.5088 46.6211v51.8232l-148.803 1.91211l-0.780273 -24.1807l-0.94043 -18.3311l-49.1611 41.457l-63.0791 0.270508
v-205.15l262.764 -1.12891zM771.354 564.782zM772.576 595.652zM562.811 567.897zM563.723 596.455zM508.515 614.099l-1.47656 2.88086l-1.41309 2.90527l-1.2793 2.94141l-0.441406 23.0967l14.4043 14.6641l19.9434 5.62598l19.4531 -4.5332l9.00781 -10.1904
l2.38965 -6.81055l-0.0244141 -12.7363l-2.48828 -15.6875l-1.97754 -20.6025h207.965l0.117188 -3.76465l0.00585937 -3.77734v0l-0.496094 -10.2529l-0.449219 -6.62305l-0.400391 -6.45215h-205.353l0.213867 -7.55859l-0.174805 -7.54883l-0.722656 -7.4834
l-5.98828 -20.3291l-8.25781 -11.2695l-6.71777 -4.6709l-16.1104 -1.08984l-12.2783 8.05176l-7.47949 8.80566l-9.24316 16.3672l-0.75 13.9229l6.59766 14.1475l8.63379 15.2236l1.71484 14.1064zM564.052 595.652v0.629883
c-0.233398 -0.287109 -1.05273 -0.770508 0 -0.629883zM771.354 564.782l1.22266 30.8701v0c-0.272461 6.66016 -1.03711 13.2949 -2.09277 19.876c-0.802734 5.00684 -1.78711 9.9873 -2.37402 15.0234c-0.482422 4.1416 -0.652344 8.3584 0.0722656 12.4648
c1.02832 5.83887 4.04688 11.3291 8.54883 15.1875c4.50098 3.85938 10.2539 6.08887 16.1221 6.93262c6.13965 0.883789 12.458 0.365234 18.4346 -1.2959c5.97559 -1.66211 11.6631 -4.51074 16.3301 -8.59863c4.79883 -4.2041 8.43848 -9.8252 9.81348 -16.0557
c1.37598 -6.23047 0.327148 -12.8145 -2.08594 -18.7207c-1.02539 -2.51074 -2.25391 -4.93164 -3.49512 -7.34277c-1.37402 -2.67188 -2.76074 -5.34082 -3.97266 -8.08984c-1.20801 -2.73926 -2.24805 -5.56055 -2.92871 -8.47656
c-0.856445 -3.67188 -1.09668 -7.50879 -0.460938 -11.2246c0.591797 -3.45801 1.91309 -6.75586 3.54688 -9.86035c1.91992 -3.64844 4.24023 -7.06934 6.4541 -10.5479c2.90527 -4.56543 5.64355 -9.3584 6.79102 -14.6465
c1.03418 -4.75977 0.692383 -9.77832 -0.776367 -14.4219c-1.94824 -6.1582 -5.58105 -11.6436 -9.45703 -16.8105c-2.37305 -3.16211 -4.88281 -6.23242 -7.68652 -9.01855c-3.64551 -3.62598 -7.91602 -6.75781 -12.8125 -8.32715
c-5.51855 -1.76953 -11.6963 -1.31641 -16.9189 1.19434c-2.56934 1.23535 -4.91406 2.91211 -7.00098 4.85156c-3.5293 3.28125 -6.3418 7.28809 -8.52344 11.584c-3.28711 6.47363 -5.14746 13.6025 -6.14648 20.7949
c-0.376953 2.71875 -0.626953 5.45508 -0.766602 8.19727c-0.138672 2.74414 -0.168945 5.49316 -0.131836 8.24023c0.0351562 2.74219 0.137695 5.48242 0.294922 8.2207v0v0zM564.052 564.782c0.139648 -1.05176 -0.342773 -0.233398 -0.629883 0h0.629883z
M275.994 533.17c-20.1709 0.0117188 -37.7744 16.6143 -37.7744 37.9678c0 20.9512 17.0146 37.9678 37.9688 37.9678c20.9277 0 37.9678 -16.9961 37.9678 -37.9297c-0.0898438 -20.9648 -17.1982 -38.0059 -38.1621 -38.0059zM288.684 498.271
c0 0.108398 -0.277344 8.88379 -0.277344 10.8682c0 0.416992 0 0.416992 0.0214844 4.46387c7.4834 2.07812 18.3154 5.08594 29.2617 16.0332c10.627 10.627 17.1963 25.3027 17.1963 41.501c-0.128906 32.4072 -26.4775 58.6992 -58.8975 58.6992
c-31.6182 0 -58.498 -25.9033 -58.498 -58.6982c0 -25.9014 16.7852 -47.8545 40.0029 -55.6562l3.25879 -1.09473l0.00585938 -3.44434c0.000976562 -0.417969 0.00195312 -0.837891 0.00195312 -1.26172c0 -41.1768 -3.84766 -110.996 -44.2949 -164.127
c-14.8359 -20.1924 -24.0693 -32.7598 -29.0059 -39.1582c-0.894531 -1.16113 -1.3418 -2.55664 -1.3418 -3.95312c0 -3.15625 0.80957 -3.7959 6.77734 -8.50977c1.72266 -1.36133 4.07129 -3.21582 7.29492 -5.76855c1.17188 -0.926758 2.59375 -1.3916 4.0166 -1.3916
c3.73926 0 6.30664 2.36133 16.7783 18.6465c3.46875 5.39453 7.20801 11.2227 11.543 16.7275c10.9658 13.9277 22.6826 32.7109 30.9326 52.666l4.5 10.8848l4.38867 -10.9307c16.4688 -41.0166 34.7314 -60.8916 57.7256 -85.9033
c0.633789 -0.691406 2.23242 -2.09277 4.77539 -2.09277c1.24219 0 2.49219 0.354492 3.58594 1.08301c5.55859 3.70703 11.1182 7.41309 16.6787 11.1201c0.379883 0.0927734 0.760742 0.18457 1.1416 0.277344c-9.59766 7.44238 -10.2812 8.07129 -12.7432 10.5332
c-14.9365 14.9355 -53.4863 61.3975 -57.8594 108.417c-0.400391 4.28516 -1.82422 0.112305 -1.82422 8.68066c0 14.377 4.85449 52.9717 4.85449 71.3887z" />
  </g>

</svg>
