<?xml version="1.0" standalone="no"?>
<!DOCTYPE svg PUBLIC "-//W3C//DTD SVG 1.1//EN" "http://www.w3.org/Graphics/SVG/1.1/DTD/svg11.dtd" >
<svg xmlns="http://www.w3.org/2000/svg" xmlns:xlink="http://www.w3.org/1999/xlink" version="1.1" viewBox="-10 0 998 1000">
  <g transform="matrix(1 0 0 -1 0 800)">
   <path fill="currentColor"
d="M456.482 290.133c-4.78418 0 -8.57227 -3.90234 -8.57227 -8.54297v-300.105c0 -4.7666 3.91797 -8.54199 8.54199 -8.54199l373.938 -1.50879c4.70996 0 8.57227 3.82617 8.57227 8.54199l-0.804688 155.248l12.9453 0.793945
c13.0273 -0.706055 26.0557 -1.41113 39.083 -2.11719l-51.2236 59.6426v86.5381c0 4.73145 -3.87012 8.54199 -8.50977 8.54199l-212.295 -0.399414c-0.348633 10.8555 -0.698242 21.7109 -1.04688 32.5664c-0.757812 6.1377 -1.30957 10.4131 -2.72656 21.3975
l-57.9824 -52.459l-1.93945 0.0078125s-97.96 0.396484 -97.9805 0.396484zM475 0v263.013l80.8701 -0.34668l63.0283 -53.1514c-0.633789 23.9238 -0.811523 31.8213 -0.811523 39.3877c0 2.90234 0.00488281 3.61035 0.12207 15.3203l193.667 -2.65625v-66.4404
l-54.499 -59.7695c38.1592 1.01172 38.1592 1.01172 54.7812 1.91309l-0.282227 -138.717zM41.3545 -62.4795h55.5146l17.1611 52.2256l17.1602 -52.2256h55.5156l-44.8672 -32.2959l17.1611 -52.2246l-44.9697 32.2959l-44.9707 -32.2959l17.1611 52.2246zM821.349 597.717
c0 82.5537 -67.0068 149.557 -149.557 149.557c-82.5518 0 -149.557 -67.0059 -149.557 -149.557c0 -69.5898 47.9678 -128.845 113.42 -145.131c-9.68164 7.54883 -22.8398 22.6738 -22.8398 49.1318c-0.000976563 64.8086 79.5781 81.0049 116.422 44.1621
c22.7344 -22.7334 23.4609 -61.0693 3.11133 -84.9385c16.9473 7.52148 32.2432 18.1035 45.1768 31.0371c27.0732 27.0732 43.8232 64.4648 43.8232 105.738zM844.457 597.72c0 -95.3262 -77.3604 -172.666 -172.665 -172.666
c-95.3096 0 -172.665 77.3457 -172.665 172.666c0 95.208 77.459 172.664 172.665 172.664c95.3213 0 172.665 -77.3535 172.665 -172.664zM723.983 501.64l1.87402 0.0341797l0.00683594 0.00683594l-0.955078 0.918945l-0.929688 -0.956055
c0.000976562 0 0.00195312 -0.00390625 0.00390625 -0.00390625zM723.832 503.637l-0.94043 0.905273l0.888672 0.0107422c-0.628906 9.30176 -4.35938 18.3945 -11.1875 25.2217c-22.8037 22.8047 -76.667 15.1504 -76.667 -28.0732
c0.0146484 -43.1943 53.8496 -50.8447 76.666 -28.0273c6.7793 6.77832 10.502 15.7812 11.1729 25.0039c-0.460938 -0.00585938 -0.78418 -0.00878906 -0.800781 -0.00878906l0.855469 0.887695c0.0703125 1.35938 0.0742188 2.7207 0.0126953 4.08008zM414 420
l-167.808 0.783203l2.35156 335.553l19.5137 -0.522461v-315.561h126.311v315.561l19.6318 -0.260742v-335.553z" />
  </g>

</svg>
