<?xml version="1.0" standalone="no"?>
<!DOCTYPE svg PUBLIC "-//W3C//DTD SVG 1.1//EN" "http://www.w3.org/Graphics/SVG/1.1/DTD/svg11.dtd" >
<svg xmlns="http://www.w3.org/2000/svg" xmlns:xlink="http://www.w3.org/1999/xlink" version="1.1" viewBox="-10 0 1008 1000">
  <g transform="matrix(1 0 0 -1 0 800)">
   <path fill="currentColor"
d="M332.481 97.6934l-82.2217 148.848l24.0225 10.1475l58.4395 -100.383l53.3027 101.418l27.2285 -11.0254zM249.568 -67.707v34.6641h38.626v22.0713h-38.626v34.6641h38.626v33.7148h31.3828v-33.7148h23.2197v31.2539h31.3828v-31.2539h41.292v-34.6641h-41.292
v-22.0713h41.292v-34.6641h-41.292v-36.1855h-31.3828v36.1855h-23.2197v-33.7246h-31.3828v33.7246h-38.626zM319.577 -33.043h23.2197v22.0713h-23.2197v-22.0713zM764.659 223.904c-0.529297 0 -0.985352 0.173828 -1.32227 0.358398l-214.094 -88.2627v-37.8242
c12.126 5.10742 24.251 10.2148 36.376 15.3213v-3.77051l-0.21875 -161.659h318.305l0.646484 155.446c10.9619 -6.48535 21.9238 -12.9697 32.8867 -19.4551l-0.677734 40.7051l-136.33 79.1182l1.46387 0.616211c-22.6963 11.7715 -24.457 12.7314 -36.2109 19.5508
c-0.288086 -0.102539 -0.56543 -0.144531 -0.824219 -0.144531zM868.594 -16.7148h-248.003l-0.665039 144.662l142.009 59.8174l107.859 -63.8086zM38.3545 -39.4795h55.5146l17.1611 52.2256l17.1602 -52.2256h55.5156l-44.8672 -32.2959l17.1611 -52.2246
l-44.9697 32.2959l-44.9707 -32.2959l17.1611 52.2246zM652.242 466.822c-3.33984 0 -6.21777 2.72363 -6.21777 6.21777v218.477c0 3.35254 2.73242 6.21973 6.24023 6.21973c0 0 61.2773 -0.24707 72.7412 -0.293945l42.2119 38.1914l1.97852 -15.4131l1.45605 -26.9355
l153.862 3.35254c3.33203 0.0732422 6.19531 -2.73633 6.19531 -6.21875v-63l37.29 -43.4189l-28.4512 1.54004l-10.1924 1.45703l1.35352 -115.055c0.0390625 -3.34375 -2.74219 -6.21875 -6.24023 -6.21875zM914.068 584.812l-18.9287 -2.91211l-23.8242 3.15918
l39.6758 43.5117v48.3691l-138.883 1.78418l-0.727539 -22.5684l-0.87793 -17.1084l-45.8838 38.6924l-58.874 0.25293v-191.474l245.246 -1.05371zM297.56 720.857l-0.839844 15.96l234.64 1.12012l-0.466797 -17.0801h-233.333zM298.76 650.857l-1.40039 18.2627
l234.641 -1.12012l0.0927734 -17.1426h-233.333zM396.021 410.117c-10.9941 7.16699 -24.5996 16.0293 -30.2344 19.6943c-5.63477 3.66504 -12.1006 7.91992 -14.3691 9.45508l-4.12402 2.79102l-11.4023 34.3066l-11.4023 34.3066l3.79297 37.8379
c2.08594 20.8105 4.01855 38.2021 4.29395 38.6484c0.275391 0.445312 15.0098 7.96875 32.7422 16.7178l32.2422 15.9082l8.38867 0.886719c4.61426 0.487305 14.001 1.48828 20.8613 2.22461c25.6396 2.75293 19.8779 3.81836 46.7695 -8.64746l23.6074 -10.9443
l18.04 -28.8184c9.92188 -15.8496 -3.13379 -48.2764 -3.13379 -49.2266s42.333 -32.3682 36 -52.7998c-6.33301 -20.4336 -20.9307 -45.4512 -23.2002 -52.8008c-2.26953 -7.34961 -20.0547 -5.63672 -20.7998 -7.19922
c-1.0459 -2.19727 -1.04395 -1.14844 -34.3994 3.19922c-10.1533 1.32422 -20.9473 -4.13184 -24.6221 -5.8584c-12.8711 -6.04883 -27.7627 -12.7109 -28.4082 -12.7109c-0.358398 0 -9.64746 5.86328 -20.6426 13.0293z" />
  </g>

</svg>
