<?xml version="1.0" standalone="no"?>
<!DOCTYPE svg PUBLIC "-//W3C//DTD SVG 1.1//EN" "http://www.w3.org/Graphics/SVG/1.1/DTD/svg11.dtd" >
<svg xmlns="http://www.w3.org/2000/svg" xmlns:xlink="http://www.w3.org/1999/xlink" version="1.1" viewBox="-10 0 1216 1000">
  <g transform="matrix(1 0 0 -1 0 800)">
   <path fill="currentColor"
d="M460.207 401.356l-17.3232 -19.3574c-36.4453 37.0449 -72.4531 73.4209 -107.917 108.967l-108.967 -108.966l-18.6787 18.6787l108.976 108.976c-36.5127 36.4941 -72.4258 72.0703 -107.622 106.554l17.3252 19.3564l108.104 -108.104l107.425 107.426
l18.6797 -18.6797l-107.425 -107.426zM787.306 709.066v0.000976562c-9.29004 0 -44.2793 -0.499023 -73.8965 -10.584c-67.3535 -22.1953 -128.193 -81.5684 -137.702 -91.0781c-9.33105 -9.33105 -15.96 -15.8545 -18.4023 -17.9834
c-1.03613 0.887695 -3.37695 3.00586 -8.08789 7.7168c-49.7031 49.7041 -103.414 85.2031 -147.495 99.752c-26.5654 8.7666 -49.749 12.1025 -72.9229 12.1025c-49.8936 0 -119.98 -27.0771 -157.177 -60.5898c-14.2197 -12.8096 -27.4365 -47.0586 -30.5117 -55.0273
c-15.5254 -40.2441 -23.8906 -78.7539 -29.9775 -96.21v-0.879883c0.152344 -28.5459 3.6084 -54.4414 11.9082 -80.6338c5.44043 -17.1641 17.0938 -43.6094 26.0986 -59.207c4.60938 -7.92676 33.7842 -53.3066 68.5469 -88.0684
c10.958 -10.9629 300.02 -286.093 327.996 -316.172c2.45801 -2.63867 3.00879 -2.88184 11.7617 -6.73828c9.93066 4.17188 9.93066 4.17188 11.6885 5.93066c3.16406 3.16406 18.4326 15.8359 322.265 310.405c81.2646 78.7861 113.301 155.007 113.419 220.605
c0 0.0507812 0.00683594 0.117188 0.00683594 0.195312c0 0.0517578 0.0078125 0.105469 0.0078125 0.163086c0.0898438 2.06641 0.355469 8.0957 0.355469 12.8359c0 45.8125 -22.8789 115.847 -61.1152 153.251c-37.5947 36.7764 -109.176 60.2129 -156.766 60.2129z
M1036.33 494.489l-0.00097656 -0.000976562v-0.56543c0 -43.3984 -0.0820312 -135.69 -123.573 -256.274c-295.625 -288.668 -318.545 -308.486 -321.152 -310.742c-13.5654 -11.7285 -25.542 -15.2773 -35.4951 -15.2773c-17.5322 0 -30.1963 11.4941 -33.0703 14.2803
l-322.448 312.251c-14.04 13.5967 -41.165 42.2539 -47.9648 53.9072c-0.101562 0.842773 -0.203125 1.68555 -0.304688 2.5293c-22.7148 30.3135 -29.6855 39.8008 -32.6045 44.8467c-10.0293 17.3389 -22.9834 46.6621 -29.0391 65.7461
c-5.44727 16.8584 -12.2168 46.5498 -12.2168 90.9248c0 71.3682 45.6963 151.424 67.8848 173.613c30.3984 30.3984 113.558 70.7002 180.367 70.7002c66.334 0 127.969 -14.9111 229.131 -105.418c31.7793 28.5146 49.4746 41.0176 79.8623 61.4424
c17.1133 11.2148 46.2588 25.3496 65.5771 31.8252c10.5586 3.77051 41.8604 13.4268 85.2168 13.4268c72.5322 0 155.517 -45.9121 177.81 -68.207c34.1152 -34.1143 72.0215 -113.503 72.0215 -178.466v-0.541992zM149.692 290.57l-5.3125 -3.63574
c-0.607422 0.666992 -0.954102 1.59473 -1.45117 2.37207zM635.134 697.075l0.432617 -0.710938c0.03125 0.0205078 -0.432617 0.710938 -0.432617 0.710938zM260.8 337.543l36.0908 0.59375l505.109 1.21387v-33.3496l-188.399 -1.43359v-162.812l-312.601 168.188
l-11.3994 7.2002c-3.14258 0 -25.6582 20.3994 -28.8008 20.3994z" />
  </g>

</svg>
