<?xml version="1.0" standalone="no"?>
<!DOCTYPE svg PUBLIC "-//W3C//DTD SVG 1.1//EN" "http://www.w3.org/Graphics/SVG/1.1/DTD/svg11.dtd" >
<svg xmlns="http://www.w3.org/2000/svg" xmlns:xlink="http://www.w3.org/1999/xlink" version="1.1" viewBox="-10 0 1044 1000">
  <g transform="matrix(1 0 0 -1 0 800)">
   <path fill="currentColor"
d="M114.527 726h403.473v-173.608h-403.473v-24.7041l433.956 0.516602l-3.91211 222.006l-430.044 0.472656v-24.6826zM647.541 35.3857c12.4268 0 31.7764 -0.910156 44.1475 -2.07715c5.48633 -0.486328 6.875 -0.498047 8.55273 -0.498047
c14.9414 0 39.8496 9.66895 49.5898 19.4092c17.4775 17.4775 44.4961 62.7314 44.4961 106.136c0 2 -0.111328 5.7373 -0.230469 7.73438l-0.00585938 0.105469v0.104492c-1.05859 27.4697 -21.5312 65.7881 -46.7295 82.1836l0.213867 -0.123047l-0.213867 0.123047
c-22.1309 12.7051 -63.4619 23.7598 -88.8408 23.7598c-1.61426 0 -74.2891 -0.256836 -120.283 -46.251c-13.5332 -13.5332 -32.3545 -38.6533 -32.3545 -78.6816c0 -25.3828 15.5732 -64.8672 34.8555 -84.1494c14.7734 -14.7725 46.0254 -27.8174 66.6084 -27.8174
c0.307617 0 0.935547 0.00976562 1.39648 0.00976562h33.2725c1.57715 0.0185547 3.98047 0.0322266 5.52539 0.0322266zM748.648 51.0596l-0.152344 -0.146484zM695.76 -3.38281c-0.607422 0 -40.375 2.4082 -60.7402 2.4082
c-6.91797 0 -18.4707 -0.224609 -25.3848 -0.494141l-0.129883 -0.00488281h-0.128906c-0.510742 -0.00683594 -1.23047 -0.0126953 -1.74316 -0.0126953c-31.9287 0 -72.3721 17.5088 -94.0508 40.0283c-25.5332 25.834 -45.0264 73.2471 -45.0264 109.573
c0 37.708 14.0059 74.917 43.6309 104.542c24.1777 24.1777 61.4678 46.6182 118.582 54.3232c0.286133 41.9668 4.03418 126.242 52.9463 175.156c19.7754 19.7754 55.5 34.5928 83.4736 34.5928c1.68555 0 1.68555 0 13.0518 -0.316406v-36.6895
c-11.5322 0.341797 -11.5322 0.341797 -12.75 0.341797c-17.7256 0 -45.293 -11.4072 -57.8428 -23.9473c-33.2412 -33.2422 -41.2305 -97.9541 -41.999 -147.063c37.0508 -1.1709 80.2031 -17.0176 99.002 -29.1191c32.7939 -21.1104 61.873 -69.2588 63.5762 -111.181
c0.258789 -3.57617 0.444336 -8.67773 0.444336 -12.2119c0 -55.9736 -37.1299 -114.517 -57.6709 -132.543c-17.8896 -15.6992 -48.7383 -27.3115 -72.5732 -27.3115c0 0 -0.310547 0.000976562 -0.520508 0.000976562
c-1.26074 -0.0429688 -4.14648 -0.0722656 -4.14648 -0.0722656zM642.016 35.3535h-0.0625h0.0625z" />
  </g>

</svg>
