<?xml version="1.0" standalone="no"?>
<!DOCTYPE svg PUBLIC "-//W3C//DTD SVG 1.1//EN" "http://www.w3.org/Graphics/SVG/1.1/DTD/svg11.dtd" >
<svg xmlns="http://www.w3.org/2000/svg" xmlns:xlink="http://www.w3.org/1999/xlink" version="1.1" viewBox="-10 0 915 1000">
  <g transform="matrix(1 0 0 -1 0 800)">
   <path fill="currentColor"
d="M657.642 240.567c-6.24121 0 -11.2617 5.05664 -11.2617 11.2334v140.479h-38.2812c0 -46.8223 -0.00976562 -93.6445 -0.00976562 -140.467c0 -6.28125 -5.11133 -11.2607 -11.2373 -11.2607l-138.432 0.0117188c-6.2373 0 -11.2559 5.04883 -11.2559 11.2363v147.538
h-31.5303c0 -49.1748 -0.00976562 -98.3506 -0.00976562 -147.525c0 -6.2832 -5.11133 -11.2607 -11.2373 -11.2607h-124.055c-6.18359 0 -11.2139 5.00391 -11.2471 11.1875l-0.820312 154.653h-31.5273s0.842773 -154.53 0.842773 -154.562
c0 -6.22461 -5.01953 -11.2617 -11.2168 -11.2783h-123.221l-5.78125 -32.0332h676.089l5.78125 32.0342c-40.5303 0 -81.0596 0.0136719 -121.59 0.0136719z" />
  </g>

</svg>
