<?xml version="1.0" standalone="no"?>
<!DOCTYPE svg PUBLIC "-//W3C//DTD SVG 1.1//EN" "http://www.w3.org/Graphics/SVG/1.1/DTD/svg11.dtd" >
<svg xmlns="http://www.w3.org/2000/svg" xmlns:xlink="http://www.w3.org/1999/xlink" version="1.1" viewBox="-10 0 741 1000">
  <g transform="matrix(1 0 0 -1 0 800)">
   <path fill="currentColor"
d="M464.982 -26.6445c0.363281 0.0166016 23.333 0.00292969 23.3408 0.015625c-7.07617 33.0107 -5.08887 43.6406 -2.50781 52.9023c0.0244141 0.0839844 2.02051 7.7627 2.29297 8.36816l16.6875 37.124c-8.54199 147.267 -8.54199 147.267 -8.49219 147.9
c2.80469 37.0488 5.25098 80.2676 2.3916 107.95c-7.4375 32.8574 -25.8906 25.9238 -30.2012 15.4141c-1.52344 -3.71387 -3.24023 -4.15039 -7.6709 -5.2793c-3.44336 -3.42773 -8.86035 -2.67773 -11.4355 1.6377c-3.22949 5.40918 -18.1689 31.1416 -18.5615 31.998
c-5.40234 11.7705 -26.2422 19.0117 -30.2266 -4.28906c-0.143555 -0.841797 -0.143555 -0.841797 -7.25684 -20.1289c-2.65039 -7.18555 -11.9932 -6.8877 -14.2637 0.458984l-13.3818 43.3018c-3.57715 11.5781 -25.8965 20.8213 -37.6885 -1.10059
c-0.216797 -0.72168 -1.80859 -6.0918 -10.4131 -36.1094c-1.87012 -6.52637 -9.67578 -8.01758 -13.3867 -2.47266c-11.0068 16.4521 -11.0068 16.4521 -11.2002 16.6689c-0.0712891 0.0800781 -12.5703 13.96 -19.6504 6.08301
c-3.87793 -4.31348 -6.07031 -14.8428 -7.03711 -21.2998c0.0273438 -0.967773 0.200195 -6.68262 1.1543 -34.3984c0.567383 -17.2588 1.25781 -54.1426 1.27246 -54.6904c4.53809 -35.9805 2.43848 -37.1045 4.79883 -56.3545
c0.171875 -0.741211 1.48047 -6.35059 8.27637 -34.9707c0.0673828 -0.280273 0.6875 -16.3037 -1.28223 -20.0283c-4.8457 -9.16211 -5.18164 -9.79785 -8.37695 -10.6123c-12.6504 -3.22461 -16.6533 -0.389648 -20.9307 6.21191
c-2.2002 3.39551 -17.1641 20.0781 -18.668 22.0088l-31.3584 40.249c-0.847656 0.623047 -5.19824 3.79395 -18.29 13.0205c-0.765625 0.256836 -4.42969 1.47461 -15.4951 4.9209c-3.09375 -1.88867 -6.78125 -0.749023 -9.5791 -3.86035
c-2.0293 -2.25977 -4.37109 -9.82324 -3.62598 -14.1074l17.2998 -25.8809c3.33301 -3.47461 21.042 -20.6484 21.9102 -21.8145c25.8516 -34.7773 25.8516 -34.7773 25.9766 -34.9648c18.7881 -28.3154 18.7881 -28.3154 18.9287 -28.5605
c16.9414 -29.6152 16.9414 -29.6152 17.1807 -30.2324l13.084 -33.7412c3.61621 -6.23242 17.5898 -29.6875 17.9639 -30.4775c5.8877 -12.4453 5.8877 -12.4453 6.1084 -13.4785c4.38086 -20.4209 35.4072 -21.4375 35.8135 -21.4463l33.9375 -0.673828zM488.323 -43.5996
h-22.8633c-102.859 -4.75293 -102.859 -4.75293 -103.088 -4.74805l-34.1797 0.679688c-5.42676 0.112305 -42.4756 2.04102 -50.1016 33.3506l-4.85547 10.2617c-17.7695 29.9854 -17.4678 28.9932 -18.542 31.7656l-12.9434 33.375l-16.1523 28.2344l-18.3516 27.6582
l-25.2012 33.9023c-21.6514 21.3301 -21.6514 21.3301 -22.6016 22.7529l-17.6934 26.4668c-6.31152 9.44238 -1.90527 27.8662 5.30762 35.8906c4.22949 4.70508 8.21777 6.1416 14.1299 7.35254c3.27148 1.62598 6.95312 1.9082 10.3652 0.845703
c16.0967 -5.01465 16.4463 -4.74902 19.2754 -6.74316c17.2725 -12.1689 18.583 -12.6289 21.0566 -15.3799c0.289062 -0.321289 -0.370117 -0.991211 32.0791 -41.125c16.9082 -20.9102 17.5674 -20.2393 19.9951 -23.8994
c0.401367 0.0410156 0.952148 0.116211 1.64746 0.242188l0.817383 1.54492l0.364258 10.1416c-8.13281 34.2344 -8.04199 33.2891 -8.31836 35.5234c-2.54199 20.584 -0.306641 20.877 -4.87402 56.9482c-0.0693359 0.554688 -0.982422 44.6025 -1.35742 56.0059
c-1.21973 35.4375 -1.5127 34.042 -1.03711 37.3193c1.48535 10.2373 4.90723 33.8271 22.8242 38.0303c14.8975 3.49609 29.3379 -12.0625 31.3193 -15.0234l2.21875 -3.31543c5.95312 21.0117 5.76172 20.8721 7.15723 23.5107
c18.4395 34.8887 57.6387 23.4014 65.3965 -1.70508l6.54688 -21.1846c9.13184 34.1377 45.8643 29.0537 57.5527 4.44336c0.137695 -0.235352 13.1309 -22.6904 13.6211 -23.5303c12.8203 18.4336 45.2861 21.542 55.6426 -24.2119
c0.165039 -0.730469 0.286133 -1.4707 0.364258 -2.21387c3.12109 -30.2266 0.514648 -73.4512 -2.29883 -110.701l8.46777 -145.999c0.170898 -2.9668 -0.353516 -5.97461 -1.5752 -8.69141l-16.3174 -36.3037c-0.46875 -2.02246 -1.01758 -4.04395 -1.74219 -6.63965
c-2.03027 -7.29004 -4.17383 -11.4893 2.77637 -43.9121c2.28418 -10.6582 -4.97754 -20.9189 -14.832 -20.9189zM444.566 83.5459c6.70898 7.23535 17.8896 20.1221 17.8896 40.4834c0 7.70605 -4.30273 19.7783 -9.0752 25.4756
c-6.13574 5.99414 -21.2871 13.332 -34.6826 8.25684c-10.1064 -3.7041 -20.1484 -14.3447 -21.5879 -15.9453c-2.80859 -3.125 -3.37988 -4.63281 -5.72168 -4.67383c-1.73633 0 -1.73633 0 -4.2168 2.75977c-3.93945 4.38184 -17.6084 19.5889 -34.1934 19.5889
c-8.47949 0 -20.2354 -6.28223 -23.8174 -10.2686c-2.91895 -3.24707 -6.34766 -16.0342 -7.75586 -21.6904c-0.388672 -1.55957 -0.708008 -2.86133 -1.01758 -3.9209c0.180664 -21.2988 13.3604 -35.3193 21.1953 -43.6533
c32.9531 -35.0557 45.9766 -49.0615 49.8086 -53.3887c4.20508 4.31641 21.876 23.2217 53.1748 56.9766zM352.629 177.393c8.82422 0 21.2852 -1.62891 38.4072 -17.1914c4.30762 3.91016 11.6748 9.39648 11.7812 9.2666
c28.2803 18.7168 55.3047 0.169922 61.5811 -6.8125c0.589844 -0.65625 36.6992 -42.9297 -8.69922 -92.2422c-49.6055 -53.8818 -53.3213 -57.4678 -54.1396 -58.2539c-6.8584 -6.59766 -15.1992 -5.96094 -20.335 -0.426758l-55.4951 59.7793
c-3.79297 4.21875 -7.23145 7.98438 -8.68066 11.5996c-5.68359 8.44629 -12.9648 19.7197 -12.9648 41.0137c0 16.1914 8.19629 32.0293 13.4092 37.8271c6.70898 7.46387 21.5771 15.4404 35.1357 15.4404zM371.805 572.947c33.9521 0 68.7939 18.9492 79.4053 56.6904
l1.41699 5.04004l21.665 -6.10059c-3.25684 -11.7773 -8.13184 -29.4102 -25.5947 -46.9727c-20.2598 -20.377 -48.8467 -30.8232 -77.2139 -30.8232c-26.9766 0 -53.7549 9.44824 -72.9824 28.7871c-17.9043 18.0078 -22.5371 36.9893 -25.5391 49.2891l21.7422 5.0293
c2.79492 -10.8252 6.42871 -24.8994 20.0557 -38.6055c14.8838 -14.9688 35.8652 -22.334 57.0449 -22.334zM194.12 636.434c0 82.0625 80.6748 148.979 180.187 148.979c99.5195 0 180.187 -66.8047 180.187 -148.861c0 -82.0615 -80.6748 -148.978 -180.187 -148.978
c-99.5186 0 -180.187 66.8037 -180.187 148.86zM216.191 636.551c0 -69.9463 71.1885 -126.779 158.115 -126.779c86.9229 0 158.116 56.7139 158.116 126.662c0 69.9463 -71.1885 126.779 -158.116 126.779c-86.9219 0 -158.115 -56.7139 -158.115 -126.662z
M415.154 692.356c0 8.83398 6.27344 15.9844 14.2197 15.9844s14.2197 -7.15039 14.2197 -15.9844s-6.27344 -15.9844 -14.2197 -15.9844s-14.2197 7.15039 -14.2197 15.9844zM313.942 693.197c0 8.41309 6.27344 15.1436 14.2197 15.1436
s14.2197 -6.73047 14.2197 -15.1436c0 -8.41211 -6.27344 -15.1426 -14.2197 -15.1426s-14.2197 6.73047 -14.2197 15.1426z" />
  </g>

</svg>
