<?xml version="1.0" standalone="no"?>
<!DOCTYPE svg PUBLIC "-//W3C//DTD SVG 1.1//EN" "http://www.w3.org/Graphics/SVG/1.1/DTD/svg11.dtd" >
<svg xmlns="http://www.w3.org/2000/svg" xmlns:xlink="http://www.w3.org/1999/xlink" version="1.1" viewBox="-10 0 871 1000">
  <g transform="matrix(1 0 0 -1 0 800)">
   <path fill="currentColor"
d="M306.9 153.6c0 25.9004 -21 46.2002 -46.9004 46.2002s-47.5996 -20.2998 -47.5996 -46.2002c0 -30.0996 23.7998 -44.7998 47.5996 -44.7998c13.2998 0 25.9004 4.2002 35 13.2998c7 7 11.9004 17.5 11.9004 31.5zM327.9 141.699
c-2.10059 -9.7998 -6.30078 -21 -11.9004 -29.3994l58.0996 -58.1006c18.2002 21.7002 33.6006 59.5 36.4004 87.5h-82.5996zM299.9 97.5996c-8.40039 -5.59961 -18.9004 -9.7998 -28.7002 -11.9004v-83.2998c28 2.7998 65.7998 18.2002 87.5 36.4004zM219.4 97.5996
l-58.1006 -58.7998c21.7002 -18.2002 59.5 -33.6006 87.5 -36.4004v83.2998c-9.7998 2.10059 -21 6.30078 -29.3994 11.9004zM204 112.3c-5.59961 8.39941 -10.5 19.5996 -12.5996 29.3994h-82.6006c2.7998 -28 18.2002 -65.7998 36.4004 -87.5zM191.4 164.1
c2.09961 9.7998 7 21 12.5996 29.4004l-58.7998 58.7998c-18.2002 -21.7002 -33.6006 -59.5 -36.4004 -88.2002h82.6006zM219.4 208.899c8.39941 5.60059 19.5996 9.7998 29.3994 11.9004v83.2998c-28 -2.7998 -65.7998 -18.2002 -87.5 -36.4004zM299.9 208.899
l58.7998 58.7998c-21.7002 18.2002 -59.5 33.6006 -87.5 36.4004v-83.2998c9.7998 -2.10059 20.2998 -6.2998 28.7002 -11.9004zM316 193.5c5.59961 -8.40039 9.7998 -19.6006 11.9004 -29.4004h82.5996c-2.7998 28 -18.2002 65.7998 -36.4004 87.5zM260 327.199
c95.9004 0 173.6 -77.6992 173.6 -173.6c0 -94.5 -77 -173.6 -173.6 -173.6c-95.9004 0 -173.6 77.6992 -173.6 173.6s77.6992 173.6 173.6 173.6zM427.621 364.604c-0.136719 0 -0.744141 0.258789 -0.744141 0.828125c0 0.0888672 0.0126953 0.176758 0.0351562 0.256836
c-0.341797 6.65527 -0.682617 13.3105 -1.02441 19.9658l245.224 25.1514c-2.36719 0.225586 -4.54004 0.432617 -4.56445 0.436523c-25.2979 4.30664 -34.6709 16.208 -34.6709 41.1602c0 56.2324 47.2803 149.828 56.8359 199.844
c0.44043 2.30273 3.46094 4.0127 3.46094 5.73535c0 0.120117 0.62207 1.60547 0.5 2.5l1 -1c0.0244141 -0.796875 0.616211 -1.33691 0.641602 -2.13379v0c11.3164 -54.4404 68.1426 -128.561 54.0967 -178.398c-12.7383 -45.1982 -5.05078 -29.6406 -12.7383 -45.1982
c-1.77441 -3.59082 -3.95605 -8.00488 -6.82129 -14.0898c-0.234375 -0.498047 -2.30469 -2.69434 -12.041 -11.0498l-6.74121 2.80859l-0.758789 2.27734c0.199219 0.188477 13.5352 13.4395 14.2598 23.4258c0.350586 4.81641 0.514648 9.43262 0.514648 13.8633
c0 44.8252 -16.8691 70.5205 -29.5957 89.9316c-4.02148 6.13477 -7.63965 11.6445 -10.1787 16.9561c-10.9307 -34.2637 -35.1377 -69.6045 -35.1377 -103.393c0 -16.7373 9.2998 -29.7998 9.5 -30c4.75488 -4.75488 7.93359 -8.07617 19.25 -11.4404v-1.53711
l0.701172 0.0722656c2.45605 5.99316 8.42578 11.6807 15.5 11.6807c10.6084 0 15.8105 -9.33008 15.8105 -16.8428c0 -7.80371 -6.02051 -16.6826 -13.7617 -16.6826c-3.58984 0 -7.78125 1.70703 -11.2891 4.31543c-51.2764 -7.9248 -174.746 -21.8818 -253.033 -28.9873
c-2.16211 -0.196289 -3.54395 -0.313477 -4.02832 -0.34082c0 0 -0.0527344 -0.115234 -0.201172 -0.115234zM578.687 495.651c0.161133 0.212891 0.161133 0.212891 0.40332 0.101562zM588.332 516.607c-0.334961 0.186523 -3.8916 1.35742 -3.6582 1.66309z
M578.687 518.271l0.161133 -22.4062c-46.668 21.2324 -39.9062 13.3428 -91.4072 5.75391l-1.57812 -0.232422c0.246094 -0.0488281 -0.250977 0.046875 0 0c-8.92969 -1.29785 -17.7783 -3.91895 -22.7422 -3.20996l-4.65625 0.665039
c-9.31348 1.33105 -16.1982 7.60059 -20.291 12.6406c-31.5986 38.918 111.472 198.853 147.166 271.561l2.66113 -31.9316c-24.3721 -64.0615 -117.701 -164.744 -114.9 -216.013c49.1221 -1.73242 49.792 13.8047 105.587 -16.8271v0v0zM578.348 775.226
l-0.327148 0.428711l0.564453 0.0556641c-0.0791016 -0.161133 -0.158203 -0.322266 -0.237305 -0.484375v0zM487.439 501.618c-0.52832 0.0869141 -1.06543 -0.329102 -1.57812 -0.232422c0.521484 0.0751953 1.04785 0.15332 1.57812 0.232422z" />
  </g>

</svg>
