<?xml version="1.0" standalone="no"?>
<!DOCTYPE svg PUBLIC "-//W3C//DTD SVG 1.1//EN" "http://www.w3.org/Graphics/SVG/1.1/DTD/svg11.dtd" >
<svg xmlns="http://www.w3.org/2000/svg" xmlns:xlink="http://www.w3.org/1999/xlink" version="1.1" viewBox="-10 0 1005 1000">
  <g transform="matrix(1 0 0 -1 0 800)">
   <path fill="currentColor"
d="M769.953 -49.1748c10.6426 -18.0391 6.98926 -36.9238 -4.62988 -48.543c-24.7568 -24.7568 -74.2725 -16.002 -71.1602 30.2451c0.387695 5.75781 1.47363 12.1465 5.04492 18.0488c1.1875 6.79492 0.881836 43.793 -0.328125 106.91
c-58.7031 -7.98242 -69.1465 0.780273 -74.8799 6.51367c-13.3457 13.3457 -13.5977 45.123 0.503906 59.2256c9.95996 9.95898 26.6494 10.5029 41.4316 -6.58398c3.02637 -3.02637 24.8633 -9.22168 28.3467 0.738281c4.84961 518.714 4.84961 518.714 5.00098 520.268
c0.0966797 0.991211 10.4043 82.8291 24.2324 96.6562c6.56055 6.56152 16.7275 6.06738 22.5547 0.240234c5.05957 -5.05957 6.8252 -11.3779 23.9326 -77.124v-0.629883c2.31641 -434.834 2.87012 -538.819 5.46875 -541.418
c0.991211 -0.990234 3.62695 -2.80176 13.1982 -2.94629c18.6729 -0.28125 16.8057 12.1357 32.3125 17.1816c12.9004 4.19824 33.9355 -3.46191 34.8467 -33.1445c0.181641 -5.9248 0.0478516 -23.1953 -12.5205 -34.5693
c-3.6416 -3.29688 -13.877 -12.0498 -72.9209 -4.43848c1.28711 -36.9756 1.49805 -49.3887 -1.53613 -81.9092c-1.59375 -17.0713 -1.45996 -20.3799 1.10156 -24.7207zM735.211 -49.0615c-1.0791 -17.4121 -13.5938 -19.5029 -6.8877 -26.209
c3.2168 -3.2168 9.02246 -3.9209 12.4658 -0.477539c6.37695 6.37695 -3.2959 8.55566 -5.57812 26.6865zM821.308 88.1621c-0.107422 -0.0722656 -0.698242 -0.144531 -0.806641 -0.216797c0.30957 0.0683594 0.581055 0.140625 0.806641 0.216797zM718.505 93.1152
c2.96777 -0.90625 9.32715 -3.81836 11.6621 -13.5342c3.82129 -15.8984 -0.119141 -79.4453 4.58398 -118.425c0.347656 17.4795 5.35645 40.6094 3.39648 82.5117c-1.47949 31.6426 -1.82715 39.0898 4.19922 45.1162c2.32031 2.32129 5.02246 3.50293 8.06152 3.98242
c-3.4834 3.64941 -6.3291 8.41309 -7.26465 14.3428c-1.90625 12.0742 -3.07324 19.8047 -4.68555 338.368c0 2.06152 -0.00390625 168.639 -3.51172 206.176c-5.50195 -42.165 -5.69727 -108.675 -5.72461 -290.029
c-0.0175781 -105.777 -0.325195 -142.325 -1.06836 -209.149c-0.279297 -25.0908 -0.194336 -38.1953 -2.15039 -45.2412c-1.00391 -3.61328 -3.0957 -8.96484 -7.49805 -14.1182zM647.686 88.2598c0.0263672 -0.148438 0.0527344 -0.280273 0.0791016 -0.394531
c-0.0263672 0.0175781 -0.0527344 0.376953 -0.0791016 0.394531zM210.827 597.75zM210.522 594.149zM430.629 556.673c0 -27.916 -9.09766 -55.1445 -32.7559 -78.8018c-10.5928 -10.5938 -19.5215 -17.9502 -27.7207 -23.0244
c48.2373 8.5957 111.058 30.9189 152.159 102.271c-8.92676 15.4648 -19.6758 29.4941 -32.332 42.1504c-27.7256 27.7266 -66.4531 50.4941 -117.685 59.9307c-0.641602 0.118164 -0.416992 -0.77832 -2.47168 -0.165039
c-1.36035 0.40625 -5.40625 1.61523 -11.2002 2.61719c12.4619 -4.9082 25.7266 -12.9785 38.7744 -26.0254c23.0928 -23.0938 33.2314 -49.8184 33.2314 -78.9531zM315.851 475.687c31.3926 0 49.5361 15.0654 59.29 24.8184
c20.5645 20.5645 23.4873 42.2051 23.4873 56.4883c-0.0712891 20.4609 -6.96875 39.3965 -23.4824 55.9082c-33.5166 33.5176 -73.46 25.959 -91.541 18.1475c-0.172852 0 -25.4463 -16.6748 -25.7031 -16.8438c-6.58691 -9.58691 -13.0605 -19.2871 -19.6035 -28.918
l-0.0654297 0.0244141c-10.6104 -29.373 -5.48145 -61.3828 18.502 -85.3682c16.5459 -16.5459 36.3076 -24.2568 59.1162 -24.2568zM321 416v-0.000976562c-29.9844 0 -129.284 1.43262 -209.368 81.5176c-17.8584 17.8574 -31.9531 37.166 -44.5664 59.6016
c-0.0439453 0.0761719 -0.0859375 0.152344 -0.128906 0.230469l0.128906 -0.230469c14.2861 25.4121 28.8906 44.0781 45.8145 61.002c38.8213 38.8213 104.279 80.4473 208.12 80.4473c26.751 0 127.969 -0.47168 208.057 -80.5586
c18.2686 -18.2695 32.6143 -38.0078 45.3213 -60.8887c0.0429688 -0.0761719 0.0839844 -0.152344 0.125977 -0.226562l-0.125977 0.226562c-6.78906 -12.2324 -20.585 -35.8896 -44.4619 -59.7666c-79.3779 -79.3779 -177.316 -81.3535 -208.916 -81.3535zM269.908 659.436
c-83.5322 -15.1885 -126.478 -60.2158 -150.77 -102.315c10.3799 -17.9121 22.0957 -31.7695 32.3535 -42.0283c24.1104 -24.1104 60.1279 -48.1895 112.411 -58.9014c-9.92871 4.87109 -20.2686 11.8047 -30.1621 21.6982
c-38.1523 38.1523 -37.583 86.1904 -25.3975 118.062c0.185547 0.27832 0.106445 0.457031 -0.179688 0.556641c-0.461914 2.45508 6.68457 14.5898 7.85742 17.5781c1.46094 3.72461 3.19727 5.53125 5.98828 8.05273c1.9541 1.76172 1.9873 1.79785 3.31641 4.01562
c1.99121 3.32227 2.08105 3.5127 10.79 12.2207c6.85156 6.85156 22.8926 16.9629 33.792 21.0615z" />
  </g>

</svg>
