<?xml version="1.0" standalone="no"?>
<!DOCTYPE svg PUBLIC "-//W3C//DTD SVG 1.1//EN" "http://www.w3.org/Graphics/SVG/1.1/DTD/svg11.dtd" >
<svg xmlns="http://www.w3.org/2000/svg" xmlns:xlink="http://www.w3.org/1999/xlink" version="1.1" viewBox="-10 0 1051 1000">
  <g transform="matrix(1 0 0 -1 0 800)">
   <path fill="currentColor"
d="M828.399 483.872c0 9.49878 0.360099 25.4826 0.360099 28.905l-0.318652 61.3747l-8.69455 54.78l-24.0577 41.7601l-29.8355 19.1251l-33.9409 8.02542l-47.9505 1.85133v0.765382l-107.704 8.96128l-161.614 -4.8437l-135.511 -48.0118l4.97421 -24.8711
l90.1513 34.2037l168.519 13.9909l163.859 -8.05849l72.0585 -32.0852l24.6852 -76.5829c-11.2968 -92.7231 -11.5388 -94.7093 -10.6225 -98.1968c0.272553 -1.03738 0.408327 -1.98777 0.495372 -2.92219c0.487753 -0.641757 1.13403 -1.58506 1.4862 -2.05622
l30.4464 -40.7334l38.0432 -60.0682l23.93 -33.502l-96.7113 -80.2498l-3.19974 -219.288c0.962733 -7.56244 2.78458 -22.0112 5.01798 -45.877c-0.12894 -0.269919 -9.65147 -20.9678 -12.8349 -27.02c-1.80565 -3.43278 -3.36365 -6.39475 -8.94453 -11.1259
c-28.726 -6.87192 -37.6748 -9.01268 -53.7943 -9.01268c-3.38415 0 -6.77838 0.14333 -10.1737 0.446144l-127.95 -3.2205l-189.706 31.9736l-119.91 72.0259l-21.8729 31.5454c-0.18608 0.126152 -14.9542 10.3475 -18.5829 12.6523v-31.4635
c5.41685 -3.87145 13.5068 -7.36272 24.4398 -17.2503c7.32645 -6.62591 2.09556 -4.45645 10.6241 -11.9264c1.03002 -0.902171 1.03002 -0.902171 17.2005 -21.8062l70.2643 -41.1391l123.979 -35.7692l40.8353 -3.74581
c52.8258 -4.90757 59.0669 -6.73248 83.0467 -7.42728l68.08 -1.97257l89.7606 0.254271l51.1066 12.4914l15.1376 25.2075l6.27671 34.16l-0.268638 82.9487l0.0291888 84.2282l-0.00582149 87.5189l84.7837 67.8016l7.68593 8.96692l1.11464 7.19504
c0.44913 7.61262 -1.52476 12.8022 -3.31214 18.1783l-23.3304 38.8443l-33.0243 43.448l-34.3179 48.9016c-0.202711 16.1296 -0.202711 16.1296 -0.202711 17.6951zM33.2949 712.521h55.5146l17.1611 52.2256l17.1602 -52.2256h55.5156l-44.8672 -32.2959
l17.1611 -52.2246l-44.9697 32.2959l-44.9707 -32.2959l17.1611 52.2246zM433.519 409.661c-5.84668 10.6504 -7.73535 24.709 -4.99219 37.1758c5.01367 22.7861 21.7793 43.7139 43.7236 54.5781c16.5986 8.2168 35.2295 9.18457 50.3457 2.61328
c5.28223 -2.29785 7.21289 -3.68652 12.6602 -9.1084c5.61426 -5.58789 6.75684 -7.19336 9.03711 -12.6963c1.43555 -3.46484 3.0332 -8.8916 3.55078 -12.0596c1.19629 -7.33008 0.134766 -20.0898 -2.28223 -27.4316
c-1.03125 -3.13086 -1.72266 -5.84375 -1.53809 -6.0293c0.18457 -0.183594 3.33887 -0.410156 7.00977 -0.501953c7.96387 -0.198242 9.55371 -0.802734 10.4219 -3.96094c0.901367 -3.27441 -0.543945 -6.41211 -5.02734 -10.915l-3.79102 -3.80859l34.5859 -34.5869
l41.6357 -41.5742l1.12598 -4.51367c1.39941 -5.61035 -5.94336 -6.67871 -7.68066 -10.2822l-1.31445 -2.72656l-15.1768 -0.907227c-8.34668 -0.498047 -15.6729 -0.818359 -16.2812 -0.712891s-3.17773 1.86328 -5.71094 3.9043l-4.60547 3.71289l-0.113281 6.38867
l-0.111328 6.38867l-9.32422 -0.763672l-3.90918 5.1084l-3.41602 3.41602l-3.41602 3.41504l-4.97168 2.86133l0.443359 8.73047l-9.65039 -0.845703c-5.30859 -0.46582 -4.45117 5.24121 -4.71582 5.50586c-0.263672 0.263672 -0.364258 3.93164 -0.22168 8.15137
l-5.15625 1.80078l-4.61914 4.61816l-4.61816 4.62012l-6.5791 -6.71582c-5.43359 -5.54688 -6.97266 -6.76855 -8.84277 -7.01953c-3.39258 -0.454102 -4.44238 1.26074 -6.1123 9.98633l-1.52148 7.94629l-5.00977 -1.75293
c-27.5176 -9.63574 -52.5352 -2.58398 -63.8301 17.9902zM451.571 395.854c5.11816 -3.22656 16.165 -5.80176 23.9414 -5.5791c7.23242 0.206055 17.1377 2.38477 24.0625 5.29297c2.43164 1.02148 4.61719 1.66211 4.85742 1.42188
c0.239258 -0.239258 1.24414 -4.49707 2.2334 -9.45996c1.33203 -6.69238 2.16406 -9.02832 3.21484 -9.03711c0.959961 -0.0078125 3.84961 2.31836 8.94629 7.20312l7.52832 7.21289l5.59668 -6.08105l5.5957 -6.08105l-0.241211 -6.90918l5.17285 -1.03906
l4.38867 -5.06445c3.06055 -3.53027 10.0332 0.578125 10.3115 0.299805c0.277344 -0.27832 0.208984 -4.66992 -0.15332 -9.75879c-0.633789 -8.87598 4.8623 -3.49121 7.39551 -6.02441c2.55176 -2.55176 -2.43555 -8.4873 7.21289 -7.78516
c6.79297 0.494141 10.0537 0.324219 10.2012 -0.533203c0.119141 -0.694336 0.226562 -3.54199 0.240234 -6.32715c0.0224609 -4.80371 0.224609 -5.2666 3.90723 -8.94824l3.88281 -3.88379l7.8877 0.704102l7.8877 0.703125l-7.24414 7.2207
c-3.9834 3.97168 -22.0547 21.4482 -40.1572 38.8389l-32.9141 31.6182l-3.45605 7.61719c-1.90137 4.1875 -3.03906 7.63086 -2.52832 7.65039c0.508789 0.0185547 22.3555 -20.8076 48.5469 -46.2793c47.8799 -46.5664 49.3965 -47.9111 51.5449 -45.7617
c1.43652 1.4375 8.78516 3.60449 7.55566 8.50586l-1.35547 5.40234l-41.877 41.2959l-34.8281 34.3086l4.72949 5.84375c2.60059 3.21484 4.89844 6.41992 5.10449 7.12207c0.75 2.55566 -2.13477 3.62402 -9.97949 3.70215
c-4.40527 0.0439453 -8.25 0.317383 -8.54102 0.610352c-0.291992 0.291016 0.50293 3.51172 1.76562 7.15527c3.55957 10.2676 4.31641 23.3955 1.87012 32.4023c-2.53125 9.31738 -4.74902 13.292 -10.7822 19.3252c-6.09277 6.09277 -9.9668 8.22656 -19.96 10.999
c-19.7793 5.48828 -42.5703 -2.13086 -60.9287 -20.3672c-17.3408 -17.2246 -25.3193 -40.0928 -20.6953 -59.3184c3.17188 -13.1895 8.81836 -21.1318 20.0596 -28.2178v0zM459.04 459.406c-1.85547 6.29102 0.584961 13.0186 6.33984 17.4814
c4.35254 3.37402 12.3164 4.30371 16.125 1.88086c8.35547 -5.31543 6.88672 -18.6016 -2.72461 -24.6553c-4.26172 -2.68359 -10.3252 -3.25098 -14.1436 -1.32422c-3.8877 1.96387 -4.40234 2.57227 -5.59668 6.61719zM468.239 454.7
c3.50879 -0.87793 8.8252 0.984375 12.0703 4.23145c5.15625 5.15625 4.80859 14.376 -0.643555 17.0625c-5.40527 2.66211 -9.54102 1.74414 -14.5039 -3.21875c-3.17969 -3.17969 -4.76562 -8.43945 -3.56836 -11.8398
c0.901367 -2.5625 4.15137 -5.61133 6.64551 -6.23535zM594.66 339.329c12.6221 -11.874 14.2031 -13.1328 16.4521 -13.0977c2.4541 0.0380859 2.12402 0.392578 -23.8018 25.6016c-14.459 14.0596 -35.0166 33.8965 -45.6836 44.0811l-19.3945 18.5195l1.84961 -4.2832
c1.72559 -3.99512 3.68848 -6.0752 29.2314 -30.9844c15.0596 -14.6865 33.666 -32.6123 41.3467 -39.8369zM516.061 261.756c9.55469 -35.083 35.2373 -63.1621 81.9395 -86.7559l-2.94238 -7.12891c-45.6826 23.1465 -73.4893 50.8887 -84.8691 84.7949
c-10.7168 -30.1025 -40.9229 -67.7627 -67.4238 -84.0654l-4.77832 7.20703c52.3926 33.626 77.5693 83.9756 75.3691 154.143l7.62305 -0.167969c0.102539 -0.00195312 0.189453 -6.58301 0.189453 -9.09375c0 -17.0859 -5.10742 -58.9326 -5.10742 -58.9326z" />
  </g>

</svg>
