<?xml version="1.0" standalone="no"?>
<!DOCTYPE svg PUBLIC "-//W3C//DTD SVG 1.1//EN" "http://www.w3.org/Graphics/SVG/1.1/DTD/svg11.dtd" >
<svg xmlns="http://www.w3.org/2000/svg" xmlns:xlink="http://www.w3.org/1999/xlink" version="1.1" viewBox="-10 0 1008 1000">
  <g transform="matrix(1 0 0 -1 0 800)">
   <path fill="currentColor"
d="M232.481 97.6934l-82.2217 148.848l24.0225 10.1475l58.4395 -100.383l53.3027 101.418l27.2285 -11.0254zM149.568 -67.707v34.6641h38.626v22.0713h-38.626v34.6641h38.626v33.7148h31.3828v-33.7148h23.2197v31.2539h31.3828v-31.2539h41.292v-34.6641h-41.292
v-22.0713h41.292v-34.6641h-41.292v-36.1855h-31.3828v36.1855h-23.2197v-33.7246h-31.3828v33.7246h-38.626zM219.577 -33.043h23.2197v22.0713h-23.2197v-22.0713zM664.659 223.905c-0.528664 0 -0.985482 0.173609 -1.32195 0.35837l-214.093 -88.2633v-37.8236
l36.3751 15.3214v-3.77139l-0.218472 -161.658h318.305l0.646464 155.446l32.8863 -19.4552l-0.67749 40.7048l-136.33 79.1188l1.46379 0.61569c-22.6968 11.7717 -24.4573 12.7314 -36.2113 19.5513c-0.288261 -0.102785 -0.564955 -0.144581 -0.824352 -0.144581z
M768.594 -16.7153h-248.002l-0.665609 144.662l142.009 59.8176l107.859 -63.8083zM38.3242 728.225h55.5146l17.1611 52.2256l17.1602 -52.2256h55.5156l-44.8672 -32.2959l17.1611 -52.2246l-44.9697 32.2959l-44.9707 -32.2959l17.1611 52.2246zM314.726 453.433v21.3877
h32.1885v25.8906h-32.1885v21.3887h32.1885v28.0957h18.6533v-28.0957h26.8486v26.0449h18.6533v-26.0449h34.4102v-21.3887h-34.4102v-25.8906h34.4102v-21.3877h-34.4102v-30.1553h-18.6533v30.1553h-26.8486v-28.1045h-18.6533v28.1045h-32.1885zM378.868 574.696
l-63.1895 114.393l13.1396 5.55078l50.4482 -86.6562l45.9922 87.5068l15.6523 -6.33887zM392.416 500.711h-26.8486v-25.8906h26.8486v25.8906zM561.736 604.163l31.6777 -0.00585938l350.21 0.841797v-23.1221l-130.624 -0.994141v-112.883l-213.73 113.418v0.211914
c-2.17871 0 -35.3555 22.5332 -37.5332 22.5332zM694.413 440.916l-2.83887 39.9688l-64.3047 -91.6328l-13.2178 8.5625l66.8623 90.9131l-37.3936 -9.35254l-2.55566 13.4834l61.2197 13.8096l5.62988 -64.4688z" />
  </g>

</svg>
