<?xml version="1.0" standalone="no"?>
<!DOCTYPE svg PUBLIC "-//W3C//DTD SVG 1.1//EN" "http://www.w3.org/Graphics/SVG/1.1/DTD/svg11.dtd" >
<svg xmlns="http://www.w3.org/2000/svg" xmlns:xlink="http://www.w3.org/1999/xlink" version="1.1" viewBox="-10 0 1008 1000">
  <g transform="matrix(1 0 0 -1 0 800)">
   <path fill="currentColor"
d="M310.481 97.6934l-82.2217 148.848l24.0225 10.1475l58.4395 -100.383l53.3027 101.418l27.2285 -11.0254zM227.568 -67.707v34.6641h38.626v22.0713h-38.626v34.6641h38.626v33.7148h31.3828v-33.7148h23.2197v31.2539h31.3828v-31.2539h41.292v-34.6641h-41.292
v-22.0713h41.292v-34.6641h-41.292v-36.1855h-31.3828v36.1855h-23.2197v-33.7246h-31.3828v33.7246h-38.626zM297.577 -33.043h23.2197v22.0713h-23.2197v-22.0713zM742.659 223.904c-0.529297 0 -0.985352 0.173828 -1.32227 0.358398l-214.094 -88.2627v-37.8242
c12.126 5.10742 24.251 10.2148 36.376 15.3213v-3.77051l-0.21875 -161.659h318.305l0.646484 155.446c10.9619 -6.48535 21.9238 -12.9697 32.8867 -19.4551l-0.677734 40.7051l-136.33 79.1182l1.46387 0.616211c-22.6963 11.7715 -24.457 12.7314 -36.2109 19.5508
c-0.288086 -0.102539 -0.56543 -0.144531 -0.824219 -0.144531zM846.594 -16.7148h-248.003l-0.665039 144.662l142.009 59.8174l107.859 -63.8086zM35.3545 -98.4795h55.5146l17.1611 52.2256l17.1602 -52.2256h55.5156l-44.8672 -32.2959l17.1611 -52.2246
l-44.9697 32.2959l-44.9707 -32.2959l17.1611 52.2246zM319 687.069c80.6943 0 146.417 -53.5693 146.417 -119.486c0 -65.917 -65.7227 -119.583 -146.417 -119.583s-146.417 53.5693 -146.417 119.486c0 65.916 65.7227 119.583 146.417 119.583zM319 457.722
c75.3467 0 136.694 49.1943 136.694 109.765c0 60.5693 -61.3477 109.86 -136.694 109.86s-136.694 -49.1943 -136.694 -109.764c0 -60.5693 61.3477 -109.861 136.694 -109.861zM249.875 561.652l-9.72168 -2.23633c19.1504 -78.0234 137.021 -74.6865 157.791 0
l-9.72266 2.72266c-18.5449 -65.584 -120.656 -68.6084 -138.347 -0.486328zM349.333 626.967c0 7.34961 5.25 13.2998 11.9004 13.2998c6.65039 0 11.9004 -5.9502 11.9004 -13.2998c0 -7.35059 -5.25 -13.3008 -11.9004 -13.3008
c-6.65039 0 -11.9004 5.9502 -11.9004 13.3008zM264.634 627.666c0 7 5.25 12.6006 11.8994 12.6006c6.65039 0 11.9004 -5.60059 11.9004 -12.6006s-5.25 -12.5996 -11.9004 -12.5996c-6.64941 0 -11.8994 5.59961 -11.8994 12.5996zM776.222 422.777
c-0.124023 0 -0.325195 -0.000976562 -0.449219 -0.000976562c-7.93652 0 -20.3779 2.33984 -27.7725 5.22363c-14.25 5.62012 -31.1748 21.3994 -37.7783 35.2217c-11.4463 -12.4639 -34.4697 -22.5791 -51.3926 -22.5791c-1.95117 0 -5.11035 0.160156 -7.05176 0.357422
c-32.9785 3.98438 -59.7451 34.1797 -59.7451 67.3984c0 13.3555 6.85449 32.5898 15.3008 42.9346c-8.21777 9.35938 -14.8867 27.0625 -14.8867 39.5166c0 5.96387 1.69141 15.3398 3.77539 20.9287c8.00293 20.4834 32.3438 37.3584 54.334 37.666
c19.2158 -0.612305 42.1133 -14.8994 51.1104 -31.8887c10.1064 6.07324 27.877 11.0508 39.667 11.1104c9.99707 21.9326 37.6719 39.7324 61.7744 39.7324c1.35254 0 3.54395 -0.0791016 4.89258 -0.176758c25.708 -3.18066 51.5928 -26.1777 57.7773 -51.333
c20.1191 -1.85645 44.0615 -17.8848 53.4443 -35.7773c3.74707 -7.65625 6.78906 -20.7861 6.78906 -29.3096c0 -11.8125 -5.58008 -29.1963 -12.4551 -38.8018c-6.05859 -8.37891 -18.752 -18.335 -28.334 -22.2217c-6.64062 -2.83887 -17.8906 -5.27832 -25.1104 -5.44531
c-3.15039 0.0888672 -8.12793 0.984375 -11.1113 2h-2.11133c0.375977 -2.20215 0.681641 -5.80371 0.681641 -8.03906c0 -7.35938 -3.09277 -18.4424 -6.9043 -24.7383c-6.48828 -9.50293 -20.4756 -20.5537 -31.2217 -24.667
c-8.76172 -3.86621 -23.6455 -7.05273 -33.2227 -7.11133zM711.333 478.333h1.22266c2.44629 -0.413086 5.08398 -2.65332 5.88867 -5c4.93262 -13.6533 19.8662 -29.1348 33.333 -34.5557c6.53711 -2.46387 17.5117 -4.46387 24.4971 -4.46387
c8.15918 0 20.8291 2.69629 28.2812 6.01953c9.02344 3.65039 20.6221 13.2578 25.8887 21.4443c2.93262 4.6875 5.31348 12.9785 5.31348 18.5078c0 3.56641 -1.03711 9.16309 -2.31348 12.4932l-1.44434 3.33301l2.44434 2.77734c4 4.33301 17.2217 0 17.333 0
c2.20703 -0.756836 5.89062 -1.4043 8.22266 -1.44434h0.0888672c6.09473 0 15.6123 1.8916 21.2441 4.22266c7.91309 3.12012 18.4658 11.1836 23.5557 17.999c5.82129 7.91309 10.5449 22.3076 10.5449 32.1309c0 29.1387 -23.6396 53.4209 -52.7676 54.2031
c-3.25293 0.103516 -6.33887 2.79102 -6.88867 6c-4.37109 22.1699 -26.124 42.3799 -48.5557 45.1113c-1.1709 0.0878906 -3.07422 0.15918 -4.24902 0.15918c-20.918 0 -44.3516 -15.7021 -52.3066 -35.0488c-1.00391 -2.5791 -4.06543 -4.67188 -6.83301 -4.67188
c-0.0761719 0 -0.201172 0.00292969 -0.277344 0.00585937c-0.666992 0.0244141 -1.74902 0.0439453 -2.41602 0.0439453c-11.1201 0 -27.6592 -4.99805 -36.918 -11.1553c-1.06152 -0.768555 -2.98828 -1.39258 -4.2998 -1.39258
c-2.74316 0 -5.79395 2.06738 -6.81055 4.61426c-6.77734 15.4883 -25.9922 28.4795 -42.8896 29c-17.5811 -0.345703 -37.4922 -13.7354 -44.4443 -29.8877c-1.67188 -4.49805 -3.02832 -12.042 -3.02832 -16.8408c0 -11.043 6.33496 -26.3467 14.1396 -34.1592
c1.14551 -1.17871 2.07422 -3.46875 2.07422 -5.1123c0 -1.64258 -0.928711 -3.93262 -2.07422 -5.11035c-8.12891 -8.96094 -14.7266 -26.0518 -14.7266 -38.1504c0 -27.9395 22.5264 -53.209 50.2822 -56.4053c1.63965 -0.166992 4.30762 -0.302734 5.95605 -0.302734
c15.7959 0 36.5234 10.0908 46.2656 22.5244c1.27051 1.55273 3.92871 2.81348 5.93457 2.81348c0.203125 0 0.53125 -0.015625 0.732422 -0.0351562v0.333008zM609.444 549.444v0zM609.444 554.666v0zM866.889 613.889v0zM863.222 617v0zM741 626.222v0zM744.666 628.666v0
z" />
  </g>

</svg>
