<?xml version="1.0" standalone="no"?>
<!DOCTYPE svg PUBLIC "-//W3C//DTD SVG 1.1//EN" "http://www.w3.org/Graphics/SVG/1.1/DTD/svg11.dtd" >
<svg xmlns="http://www.w3.org/2000/svg" xmlns:xlink="http://www.w3.org/1999/xlink" version="1.1" viewBox="-10 0 1079 1000">
  <g transform="matrix(1 0 0 -1 0 800)">
   <path fill="currentColor"
d="M823 762c68.123 0 123.551 -37.252 123.551 -82.9502c0 -11.3223 -3.32617 -22.1377 -9.94141 -32.5781l30.3223 -144.872h-17.5098l-29.0732 126.436c-10.0361 -8.41699 -19.2559 -13.7197 -29.7979 -18.4033v-110.133h-17.5v103.715
c-6.58203 -1.9248 -24.6504 -7.11426 -50.0508 -7.11426c-13.5547 0 -25.3594 1.37598 -37.4766 3.89941l12.6748 -99.0996h-16.1055l-13.2529 103.606c-21.2793 7.06836 -33.3223 15.7588 -39.9375 20.8535l-14.7939 -114.66h-16.1064l16.5947 128.603
c-3.69824 4.56055 -11.3496 14.7109 -14.1182 29.0312c-0.107422 0 -0.214844 -0.00195312 -0.322266 -0.00195312c-7.42188 0 -15.6768 2.15723 -24.5117 7.12988c-22.9277 12.8994 -47.2559 31.251 -47.2559 51.0391c0 24.7822 15.2461 35.8496 56.7129 35.8496
c26.8887 0 41.5898 -10.1279 48.1719 -26.4824c16.4873 11.6719 45.7812 26.1328 89.7266 26.1328zM698.002 510.699h-0.794922l0.693359 -0.790039zM714.108 510.699l-0.0791016 -0.609375l0.694336 0.609375h-0.615234zM782.093 500.899h-0.616211l0.693359 -0.610352z
M798.198 500.899l0.100586 -0.790039l0.694336 0.790039h-0.794922zM873.051 499.499h-0.701172l0.701172 -0.699219v0.699219zM890.551 499.499v-0.699219l0.699219 0.699219h-0.699219zM949.422 501.6h-0.556641l0.681641 -0.541992zM966.932 501.6l0.177734 -0.844727
l0.683594 0.844727h-0.861328zM135 -158zM594.124 -130.553v263.013l80.8701 -0.34668l63.0254 -53.1484c1.23047 24.1914 1.23047 24.1914 2.20801 54.5l190.772 -2.45117v-66.4404l-54.499 -59.7695l32.7266 -4.33887c8.66699 1.33301 17.333 2.66699 26 4
l-4.22754 -136.465zM949.515 -159.119c4.71582 0 8.54785 3.82812 8.57422 8.39453l-1.86133 158.189c12.9092 -1.84375 12.9092 -1.84375 53.0537 -4.08301l-51.1943 59.6084v86.5381c0 4.71973 -3.81641 8.49805 -8.24219 8.54785l-211.617 -4.61133
c-2.01074 37.2061 -2.01074 37.2061 -4.71582 58.1729l-57.9854 -52.4619l-3.87793 0.015625s-96.001 0.388672 -96.042 0.388672c-4.71777 0 -8.57227 -3.83398 -8.57227 -8.54297v-300.105c0 -4.69922 3.84863 -8.54199 8.54199 -8.54199
c0 0 373.897 -1.50879 373.938 -1.50879zM30.1035 -78.4795h55.5146l17.1611 52.2256l17.1602 -52.2256h55.5156l-44.8672 -32.2959l17.1611 -52.2246l-44.9697 32.2959l-44.9707 -32.2959l17.1611 52.2246zM409 167l-360 1.2002l6 29.7549h322.777v134.89h-322.777v23.7549
l356.8 -2zM205 421l-127.468 236.354l20.4678 8.64648l108.777 -187.834l81.5527 181.039l27.6699 -11.2051z" />
  </g>

</svg>
