<?xml version="1.0" standalone="no"?>
<!DOCTYPE svg PUBLIC "-//W3C//DTD SVG 1.1//EN" "http://www.w3.org/Graphics/SVG/1.1/DTD/svg11.dtd" >
<svg xmlns="http://www.w3.org/2000/svg" xmlns:xlink="http://www.w3.org/1999/xlink" version="1.1" viewBox="-10 0 1046 1000">
  <g transform="matrix(1 0 0 -1 0 800)">
   <path fill="currentColor"
d="M30.3242 741.553h55.5146l17.1611 52.2256l17.1602 -52.2256h55.5156l-44.8672 -32.2959l17.1611 -52.2246l-44.9697 32.2959l-44.9707 -32.2959l17.1611 52.2246zM804 631c0 -96.6865 68.0879 -173.199 99.375 -191.775l11.1992 -6.64941
c-16.9434 -0.478516 1.18945 0.900391 -34.5742 -3.5752l-1.0752 1.36426c-22.0068 27.9238 -93.998 110.011 -106.903 207.233c-0.657227 4.95117 0.0224609 9.79688 0.582031 18.2783c-1.38379 0.708984 -2.88672 1.4873 -4.52246 2.34082
c-0.0283203 -1.83984 -0.322266 -3.81641 -0.0449219 -5.88867c33.3789 -249.661 97.5459 -216.742 97.5459 -216.742s6.91211 -4.29004 10.2793 -6.58594h-32.8613c-44.1455 16.1279 -101.697 151.17 -101.697 222.331c0 8.73535 0.302734 15.3135 0.785156 20.6846
c-60.6641 32.3369 -181.179 64.7012 -284.885 64.7012c-23.0527 0 -45.5234 -2.04883 -73.3945 -6.17773c-32.3232 -4.78906 -32.3232 -4.78906 -70.6152 -21.2002c-18.916 -8.10645 -50.2139 -47.4062 -58.166 -66.7188
c-7.02734 -17.0664 -9.0791 -30.2676 -9.0791 -45.8906c0 -22.332 3.62891 -44.376 3.62891 -77.1553c0 -8.99219 1.14648 -13.8564 1.14648 -20.1924c0 -4.57031 -0.613281 -9.64551 -2.73242 -16.6025c-19.9492 -65.4795 -40.3174 -87.0479 -63.832 -110.183
c-6.25977 -6.16016 -27.0508 -26.6172 -27.0508 -37.7881c0 -4.45605 0.882812 -6.9082 38.3447 -19.4531c55.9199 -18.7266 60.0254 -24.4102 60.0254 -90.9766c0 -43.0117 2.70801 -110.013 2.70801 -151.731c0 -5.5 0.0820312 -11.3867 0.267578 -17.7666
c0.50293 -17.292 16.4512 -45.3398 23.8975 -57.5352c1.19629 -0.303711 1.95996 -1.18164 1.95996 -1.18164c1.1543 -0.666992 2.48438 -1.60059 4.13477 -2.74414c16.0508 -11.1162 22.0049 -13.1846 40.8428 -13.1846c24.0361 0 22.3457 4.21484 79.0615 4.21484
c0.316406 0 6.94531 -0.00390625 7.01562 -0.00390625c14.7988 0 25.668 0.226562 52.1025 3.80078c20.2021 2.73242 38.8271 4.61572 56.5088 6.4043c120.938 12.2334 201.711 24.1475 280.178 80.1953c2.23438 1.5957 5.14355 3.85352 8.45703 6.42773
c12.6104 9.7959 33.0303 26.8994 48.1416 26.8994c8.16699 0 13.834 -4.95996 13.834 -14.165c0 -15.4473 -17.4082 -42.8486 -33.0938 -42.8486c-1.16406 0 -1.56543 0.129883 -3.01758 0.129883c-22.6426 0 -44.3604 -36.5264 -79.4766 -51.29
c-52.8857 -22.2344 -138.298 -27.127 -175.459 -33.71c-17.2549 -3.05664 -36.6504 -6.49316 -61.8809 -12.2393c-34.7246 -7.90918 -51.6299 -8.61133 -86.7539 -8.61133c-0.251953 0 -22.7891 0.03125 -25.0811 0.03125c-11.3115 0 -32.6182 -0.123047 -32.9473 -0.123047
c-40.7773 0 -82.5049 2.86621 -120.91 24.8125c-26.0957 14.9121 -27.9092 36.1035 -30.0449 61.0586c-0.477539 5.59082 -0.976562 11.3994 -1.75781 17.3906c-1.96484 15.7158 -2.63672 29.7119 -2.63672 42.8916c0 28.6572 -4.27441 100.664 -4.27441 131.409
c0 46.4277 -4.59863 49 -29.7539 58.8145c-27.3184 10.6582 -57.2148 13.2568 -70.834 26.876c-4.33008 4.33008 -6.66504 9.68945 -6.66504 16.1094c0 4.7959 1.30371 10.1846 4.05176 16.1768c36.4951 79.5967 68.6367 70.0742 91.3711 139.761
c5.20312 15.9443 6.93652 32.2529 6.93652 48.6797c0 32.5635 -6.77832 65.1611 -6.77832 95.8125c0 47.6494 17.2412 68.3838 35.0508 86.1934c66.2422 66.2412 143.674 66.3555 238.901 66.3555h0.988281c82.8154 0 190.135 -23.3467 246.021 -49.8477
c43.5547 -20.6533 21.8506 -15.7109 32.4561 -16.8408c11.3984 -1.2168 39 -13 47.5039 -30.4053c4.31641 -8.83496 -4.12305 -21.668 -4.50391 -29.5947c-0.257812 -5.36523 2 -14.3428 2 -20zM504.902 479.173c22.832 0 46.2617 12.6689 53.3975 37.9043l0.953125 3.37012
l14.5693 -4.0791c-2.19043 -7.875 -5.46875 -19.6641 -17.2119 -31.4072c-13.624 -13.623 -32.8486 -20.6084 -51.9238 -20.6084c-18.1416 0 -36.1494 6.31738 -49.0801 19.248c-12.04 12.0391 -15.1543 24.7305 -17.1738 32.9541l14.6211 3.36328
c1.87891 -7.2373 4.32324 -16.6475 13.4863 -25.8115c10.0098 -10.0098 24.1191 -14.9336 38.3623 -14.9336zM385.413 521.621c0 54.8682 54.252 99.6084 121.172 99.6084c66.9238 0 121.171 -44.666 121.171 -99.5303c0 -54.8672 -54.252 -99.6084 -121.171 -99.6084
c-66.9238 0 -121.172 44.666 -121.172 99.5303zM400.256 521.699c0 -46.7676 47.8721 -84.7666 106.329 -84.7666c58.4531 0 106.328 37.9209 106.328 84.6885s-47.8721 84.7666 -106.328 84.7666c-58.4531 0 -106.329 -37.9199 -106.329 -84.6885zM534.054 559.012
c0 5.90625 4.21875 10.6875 9.5625 10.6875s9.5625 -4.78125 9.5625 -10.6875s-4.21875 -10.6875 -9.5625 -10.6875s-9.5625 4.78125 -9.5625 10.6875zM465.991 559.574c0 5.625 4.21875 10.125 9.5625 10.125s9.5625 -4.5 9.5625 -10.125s-4.21875 -10.125 -9.5625 -10.125
s-9.5625 4.5 -9.5625 10.125zM553.019 141.391l-0.00292969 -0.15625c0.00195312 0.0527344 0.00292969 0.104492 0.00292969 0.15625zM525.405 229.13l0.0380859 -0.0458984c-0.0117188 0.015625 -0.0380859 0.0458984 -0.0380859 0.0458984zM486.932 225.592
l0.0410156 0.0605469c-0.00683594 -0.00976562 -0.0136719 -0.0195312 -0.0410156 -0.0605469zM462.057 144.283l0.0107422 0.0722656c-0.00390625 -0.0244141 -0.0107422 -0.0478516 -0.0107422 -0.0722656zM464.372 134.919l-0.0517578 0.0566406
c0.0185547 -0.0185547 0.0351562 -0.0371094 0.0517578 -0.0566406zM466.425 133.362l-0.255859 0.0751953c0.0859375 -0.0263672 0.170898 -0.0517578 0.255859 -0.0751953zM467.685 133.128l-0.0546875 0.00390625
c0.00976563 0 0.0195312 -0.00390625 0.0546875 -0.00390625zM509.578 237.702c-20.9346 1.89648 -29.54 -20.6787 -37.6387 -52.8672c-6.23242 -25.6592 -6.23242 -25.6592 -8.48828 -34.1182l0.0126953 0.0498047
c-0.00390625 -0.0166016 -0.0126953 -0.0498047 -0.0126953 -0.0498047c-1.59082 -6.55078 -2.90918 -11.9746 1.13379 -16.0186c1.48535 -1.48535 2.03027 -1.58594 6.25391 -1.77148c74.9756 0.0332031 74.9756 0.0332031 77.0518 0.307617
c1.79297 0.223633 6.30469 4.39648 4.80762 11.5059c-0.117188 0.586914 -9.31641 40.7422 -14.6162 58.0225c-9.30371 30 -20.3867 34.3779 -28.5039 34.9395zM546.096 117.159c-5.82617 -0.119141 -74.7578 -0.116211 -75.5127 -0.0908203
c-4.55664 0.146484 -10.8926 0.350586 -16.3105 6.35156c-1.58301 1.75391 -8.94141 10.7207 -6.59863 23.5449c0.864258 4.72852 2.02539 9.48926 4.1875 17.4141c9.2666 38.125 11.7793 48.458 18.7197 62.6816c5.67773 11.6152 18.2002 29.1074 41.3936 26.334
c27.5156 -3.0498 37.7725 -34.6484 45.1221 -64.2598c2.58301 -10.7363 5.2207 -21.4531 7.92676 -32.1992c2.37012 -9.87305 4.66406 -19.4277 -1.20801 -29.1436c-2.91992 -4.83203 -8.40137 -10.7354 -17.7197 -10.6328zM616.856 118.857zM383.706 275.713z
M340.166 195.557zM509.812 90.7549zM379.886 117.215zM454.612 93.7061zM658.443 213.679zM340.166 195.557zM658.443 213.679zM664.184 219.142c3.00684 -9.10645 4.94238 -18.96 7.4707 -28.4004l1.7627 -0.0292969c-1.34082 -28.2852 -1.8457 -38.9365 -47.7754 -75.2295
c-34.1768 -27.0059 -58.9277 -42.9326 -115.804 -43.8486c-39.1221 -0.629883 -89.2178 7.71289 -132.897 43.8389c-17.2119 14.2354 -44.5342 41.7852 -44.2803 73.0811h-1.22461c1.33789 5.0166 1.33789 5.0166 1.46582 8.86914l0.895508 -0.015625l3.83594 14.3828
h-1.68457c0.874023 1.1875 1.74902 2.375 2.62402 3.56152v4.04199h2.97461l43.4355 59.0176h1.37793c15.0283 35.1416 72.6016 52.0693 94.9639 24.8486c3.17383 -1.42578 17.5752 -7.17188 32.7373 -1.64355c7.81055 10.4541 29.7568 20.542 54.4512 15.4209
c23.8857 -4.95215 47.9795 -27.1729 58.5518 -37.9902h0.506836c0.37207 -0.548828 0.626953 -1.17969 1.09668 -1.66016l3.32031 -3.46484l31.7158 -54.1953c0.473633 0.0400391 0.84668 0.0107422 0.773438 -0.333008zM354.756 190.452
c-0.526367 -18.0361 1.46875 -39.4854 45.2705 -70.1465c37.1689 -26.0176 67.9668 -27.8867 110.249 -26.8389c49.2646 1.26758 69.8213 7.59961 99.5693 31.9072c39.5586 32.3271 46.1133 42.457 41.3555 61.4473l-6.29004 25.1123l-0.231445 -0.412109
c0.0136719 1.51953 -1.00293 3.45215 -0.990234 4.97168l-35.2969 55.6748c-0.948242 -0.0371094 -0.191406 0.824219 -1.13867 0.785156c-21.8486 14.4062 -24.1787 20.6465 -32.3408 25.46c-12.5664 7.41113 -31.8896 5.9209 -44.1914 -2.47559
c-6.12402 -18.4473 -44.1182 -21.4033 -61.626 -4.76855c-1.63086 1.55078 -2.83496 0.6875 -2.67969 2.58984c-18.7148 12.8779 -53.7686 -0.0966797 -63.6738 -23.4258l-1.20117 -2.8291l-2.00293 0.770508l-38.6016 -54.6494z" />
  </g>

</svg>
