<?xml version="1.0" standalone="no"?>
<!DOCTYPE svg PUBLIC "-//W3C//DTD SVG 1.1//EN" "http://www.w3.org/Graphics/SVG/1.1/DTD/svg11.dtd" >
<svg xmlns="http://www.w3.org/2000/svg" xmlns:xlink="http://www.w3.org/1999/xlink" version="1.1" viewBox="-10 0 1051 1000">
  <g transform="matrix(1 0 0 -1 0 800)">
   <path fill="currentColor"
d="M828.399 483.872c0 9.49878 0.360099 25.4826 0.360099 28.905l-0.318652 61.3747l-8.69455 54.78l-24.0577 41.7601l-29.8355 19.1251l-33.9409 8.02542l-47.9505 1.85133v0.765382l-107.704 8.96128l-161.614 -4.8437l-135.511 -48.0118l4.97421 -24.8711
l90.1513 34.2037l168.519 13.9909l163.859 -8.05849l72.0585 -32.0852l24.6852 -76.5829c-11.2968 -92.7231 -11.5388 -94.7093 -10.6225 -98.1968c0.272553 -1.03738 0.408327 -1.98777 0.495372 -2.92219c0.487753 -0.641757 1.13403 -1.58506 1.4862 -2.05622
l30.4464 -40.7334l38.0432 -60.0682l23.93 -33.502l-96.7113 -80.2498l-3.19974 -219.288c0.962733 -7.56244 2.78458 -22.0112 5.01798 -45.877c-0.12894 -0.269919 -9.65147 -20.9678 -12.8349 -27.02c-1.80565 -3.43278 -3.36365 -6.39475 -8.94453 -11.1259
c-28.726 -6.87192 -37.6748 -9.01268 -53.7943 -9.01268c-3.38415 0 -6.77838 0.14333 -10.1737 0.446144l-127.95 -3.2205l-189.706 31.9736l-119.91 72.0259l-21.8729 31.5454c-0.18608 0.126152 -14.9542 10.3475 -18.5829 12.6523v-31.4635
c5.41685 -3.87145 13.5068 -7.36272 24.4398 -17.2503c7.32645 -6.62591 2.09556 -4.45645 10.6241 -11.9264c1.03002 -0.902171 1.03002 -0.902171 17.2005 -21.8062l70.2643 -41.1391l123.979 -35.7692l40.8353 -3.74581
c52.8258 -4.90757 59.0669 -6.73248 83.0467 -7.42728l68.08 -1.97257l89.7606 0.254271l51.1066 12.4914l15.1376 25.2075l6.27671 34.16l-0.268638 82.9487l0.0291888 84.2282l-0.00582149 87.5189l84.7837 67.8016l7.68593 8.96692l1.11464 7.19504
c0.44913 7.61262 -1.52476 12.8022 -3.31214 18.1783l-23.3304 38.8443l-33.0243 43.448l-34.3179 48.9016c-0.202711 16.1296 -0.202711 16.1296 -0.202711 17.6951zM33.2949 712.521h55.5146l17.1611 52.2256l17.1602 -52.2256h55.5156l-44.8672 -32.2959
l17.1611 -52.2246l-44.9697 32.2959l-44.9707 -32.2959l17.1611 52.2246zM492 106v80.0654l1.04395 0.464844c1.82129 0.246094 6.95117 2.94629 9.71777 6.65918c0.0498047 0.0654297 2.44043 4.27832 3.69922 7.3877h79.9678l-0.313477 -2.98438
c-1.9375 -18.4111 -11.6855 -42.0205 -23.3018 -56.4395c-3.65137 -4.53125 -2.14648 -3.36621 -4.41602 -5.63574c-1.70312 -1.70312 -3.46387 -2.85156 -4.7793 -3.71777l0.150391 -0.150391l-2.33203 -1.88867c-14.4033 -11.6621 -38.0186 -21.4688 -56.4473 -23.4404z
M586.582 210.701h-80.0459c-0.338867 0.928711 0.232422 -1.29785 0 0c-0.578125 3.23145 -1.7041 4.79297 -5.46191 8.1582c-0.0429688 0.0380859 -1.87793 1.72852 -4.0332 4.18164c-1.23145 0.655273 -1.66406 0.885742 -5.04102 2.15234v80.0098l2.98926 -0.319336
c17.373 -1.86035 39.3242 -10.6875 53.8516 -21.4443c2.92188 -2.16309 2.82227 -1.25391 5.89648 -4.16113c0.96582 -0.914062 1.09766 -1.03906 1.55273 -1.21094c0.929688 -0.351562 1.56152 -0.589844 2.10938 -1.6582
c0.761719 -1.4834 0.785156 -0.646484 1.94727 -2.94629c3.07617 -2.06641 3.34668 -2.63086 5.34082 -6.79004l-0.0556641 -0.0849609c11.6436 -16.3789 19.0459 -37.7344 20.6377 -52.9033zM481.801 305.354v-80.0645l-1.34375 -0.59668
c-0.441406 -0.385742 -0.989258 -0.637695 -2.06152 -1.46582c-0.947266 -0.731445 -0.0917969 0.553711 -1.88965 -1.61914l-1.89062 -1.89062c-0.268555 -0.268555 0.270508 0.270508 -1.34961 -1.08008c-3.24023 -2.96973 -2.43066 -2.16016 -3.03027 -2.88379
c-0.357422 -0.431641 -0.538086 -1.5625 -1.29004 -2.78613c-0.104492 -0.170898 -0.794922 0.200195 -1.26465 -2.19043h-80.3086l0.313477 2.98438c1.9375 18.4111 11.6855 42.0205 23.3018 56.4395c1.59277 1.97656 0.71875 1.08691 2.60742 3.24609
c0.754883 0.862305 1.08105 1.08008 1.29004 1.44043c0.046875 0.0810547 5.11816 4.03027 7.61621 6.19824c9.20996 6.40527 29.2461 21.0518 56.3105 23.9482zM486.902 315.701c-60.7334 0 -110.026 -49.29 -110.026 -110.024
c0 -60.7363 49.2949 -110.024 110.024 -110.024c60.7373 0 110.024 49.2949 110.024 110.024c-0.0839844 60.6553 -49.377 109.941 -110.022 110.024zM387.224 200.577h80.04c0.363281 -0.996094 -0.793945 -0.261719 1.41211 -4.62012
c1.60742 -3.17969 5.68066 -6.70996 6.75293 -7.3457c0.195312 -0.115234 -0.873047 0.636719 -0.542969 0.595703c0.555664 -0.0693359 1.21094 -1.00879 2.32422 -1.48633h0.533203c0.458008 -0.203125 0.458008 -0.203125 4.05762 -1.41797v-80.1533l-2.98633 0.316406
c-18.4199 1.95605 -42.0303 11.7314 -56.4414 23.3701l-2.33789 1.88867l0.286133 0.286133c-2.35645 2.95801 -2.49121 3.12695 -3.87695 4.1582c-0.970703 0.72168 -1.85449 1.43164 -3.23047 2.9834l-0.341797 -0.342773l-1.8916 2.33691
c-11.6602 14.4033 -21.4648 38.0156 -23.4365 56.4414zM483 420l-69.7432 68.498l13.2832 13.6992l56.043 -51.4756l79.0498 113.479l14.9463 -10.3779z" />
  </g>

</svg>
