<?xml version="1.0" standalone="no"?>
<!DOCTYPE svg PUBLIC "-//W3C//DTD SVG 1.1//EN" "http://www.w3.org/Graphics/SVG/1.1/DTD/svg11.dtd" >
<svg xmlns="http://www.w3.org/2000/svg" xmlns:xlink="http://www.w3.org/1999/xlink" version="1.1" viewBox="-10 0 1051 1000">
  <g transform="matrix(1 0 0 -1 0 800)">
   <path fill="currentColor"
d="M828.399 483.872c0 9.49878 0.360099 25.4826 0.360099 28.905l-0.318652 61.3747l-8.69455 54.78l-24.0577 41.7601l-29.8355 19.1251l-33.9409 8.02542l-47.9505 1.85133v0.765382l-107.704 8.96128l-161.614 -4.8437l-135.511 -48.0118l4.97421 -24.8711
l90.1513 34.2037l168.519 13.9909l163.859 -8.05849l72.0585 -32.0852l24.6852 -76.5829c-11.2968 -92.7231 -11.5388 -94.7093 -10.6225 -98.1968c0.272553 -1.03738 0.408327 -1.98777 0.495372 -2.92219c0.487753 -0.641757 1.13403 -1.58506 1.4862 -2.05622
l30.4464 -40.7334l38.0432 -60.0682l23.93 -33.502l-96.7113 -80.2498l-3.19974 -219.288c0.962733 -7.56244 2.78458 -22.0112 5.01798 -45.877c-0.12894 -0.269919 -9.65147 -20.9678 -12.8349 -27.02c-1.80565 -3.43278 -3.36365 -6.39475 -8.94453 -11.1259
c-28.726 -6.87192 -37.6748 -9.01268 -53.7943 -9.01268c-3.38415 0 -6.77838 0.14333 -10.1737 0.446144l-127.95 -3.2205l-189.706 31.9736l-119.91 72.0259l-21.8729 31.5454c-0.18608 0.126152 -14.9542 10.3475 -18.5829 12.6523v-31.4635
c5.41685 -3.87145 13.5068 -7.36272 24.4398 -17.2503c7.32645 -6.62591 2.09556 -4.45645 10.6241 -11.9264c1.03002 -0.902171 1.03002 -0.902171 17.2005 -21.8062l70.2643 -41.1391l123.979 -35.7692l40.8353 -3.74581
c52.8258 -4.90757 59.0669 -6.73248 83.0467 -7.42728l68.08 -1.97257l89.7606 0.254271l51.1066 12.4914l15.1376 25.2075l6.27671 34.16l-0.268638 82.9487l0.0291888 84.2282l-0.00582149 87.5189l84.7837 67.8016l7.68593 8.96692l1.11464 7.19504
c0.44913 7.61262 -1.52476 12.8022 -3.31214 18.1783l-23.3304 38.8443l-33.0243 43.448l-34.3179 48.9016c-0.202711 16.1296 -0.202711 16.1296 -0.202711 17.6951zM30.3242 741.553h55.5146l17.1611 52.2256l17.1602 -52.2256h55.5156l-44.8672 -32.2959
l17.1611 -52.2246l-44.9697 32.2959l-44.9707 -32.2959l17.1611 52.2246zM588.812 244.601c1.7627 0.0341797 3.52539 0.0693359 5.28711 0.107422c17.0783 -0.261914 20.8108 22.1038 19.9326 26.4238c-0.0979656 0.494549 -1.14134 1.07353 -12.6211 48.8105
c-24.3978 98.2729 -78.2939 89.5667 -99.6865 10.4014c-15.454 -57.6406 -20.5459 -76.6327 -1.99316 -84.5527c2.48513 -0.880354 5.18406 -1.07986 8.66797 -1.19043c26.8047 0.09375 53.6094 0.09375 80.4131 0zM590.748 251.932
c-89.8098 -0.115026 -89.8098 -0.115026 -93.6182 4.04492c-9.93341 11.6315 12.9078 90.6876 25.2246 109.691c0.484412 0.721982 46.0048 61.5101 73.2197 -46.8828c14.2642 -58.0626 14.2642 -58.0626 5.28809 -64.8311
c-1.09385 -0.825383 -2.81396 -2.12332 -10.1143 -2.02246zM590.412 51.7041c1.76367 0.0341797 3.52637 0.0693359 5.28809 0.108398c17.0776 -0.26447 20.8094 22.1038 19.9326 26.4229c-0.0979679 0.494561 -1.11084 0.955655 -12.6221 48.8115
c-24.4125 98.3184 -78.3164 89.5178 -99.6855 10.4014c-15.4405 -57.5905 -20.5463 -76.6339 -1.99414 -84.5537c2.47685 -0.877423 5.17783 -1.0797 8.66895 -1.19043c26.8037 0.09375 53.6084 0.09375 80.4121 0zM592.349 59.0352
c-89.8118 -0.115029 -89.8118 -0.115029 -93.6182 4.0459c-9.94079 11.6342 12.9119 90.6945 25.2236 109.69c0.48445 0.72195 46.0193 61.5013 73.2197 -46.8818c14.2638 -58.067 14.2638 -58.067 5.28809 -64.8311
c-1.09751 -0.829016 -2.80784 -2.12094 -10.1133 -2.02344zM546 587.61c46.1113 0 83.667 -30.6104 83.667 -68.2773c0 -37.667 -37.5557 -68.333 -83.667 -68.333s-83.667 30.6104 -83.667 68.2773s37.5557 68.333 83.667 68.333zM546 456.555
c43.0557 0 78.1113 28.1113 78.1113 62.7227s-35.0557 62.7773 -78.1113 62.7773s-78.1113 -28.1104 -78.1113 -62.7217c0 -34.6113 35.0557 -62.7783 78.1113 -62.7783zM506.5 515.944l-5.55566 -1.27832c10.9434 -44.585 78.2979 -42.6777 90.167 0l-5.55566 1.55566
c-10.5977 -37.4766 -68.9463 -39.2051 -79.0557 -0.277344zM563.333 553.267c0 4.19922 3 7.59961 6.80078 7.59961c3.7998 0 6.7998 -3.40039 6.7998 -7.59961c0 -4.2002 -3 -7.60059 -6.7998 -7.60059c-3.80078 0 -6.80078 3.40039 -6.80078 7.60059zM514.934 553.666
c0 4 3 7.2002 6.7998 7.2002c3.7998 0 6.7998 -3.2002 6.7998 -7.2002s-3 -7.2002 -6.7998 -7.2002c-3.7998 0 -6.7998 3.2002 -6.7998 7.2002zM245.708 691.432z" />
  </g>

</svg>
