<?xml version="1.0" standalone="no"?>
<!DOCTYPE svg PUBLIC "-//W3C//DTD SVG 1.1//EN" "http://www.w3.org/Graphics/SVG/1.1/DTD/svg11.dtd" >
<svg xmlns="http://www.w3.org/2000/svg" xmlns:xlink="http://www.w3.org/1999/xlink" version="1.1" viewBox="-10 0 1004 1000">
  <g transform="matrix(1 0 0 -1 0 800)">
   <path fill="currentColor"
d="M30.3242 741.553h55.5146l17.1611 52.2256l17.1602 -52.2256h55.5156l-44.8672 -32.2959l17.1611 -52.2246l-44.9697 32.2959l-44.9707 -32.2959l17.1611 52.2246zM271 608l-12 60c128.725 89.7881 355.203 55.3633 442.457 48.5605
c0 -0.0107422 0.000976562 -0.0214844 0.000976562 -0.0322266c27.4463 0.582031 75.1855 -1.32129 107.268 -33.4033c40.1396 -40.1396 38.6152 -108.841 37.5254 -169.365c-0.395508 -21.9258 -0.433594 -33.2402 -0.22168 -41.9463
c26.3789 -43.8281 72.168 -89.959 89.3252 -129.607c6.95117 -16.0635 5.49219 -24.7637 2.64551 -40.2051l-12 -14l-79.501 -63.5771v-212.431c1.93945 -31.0869 1.82422 -79.2412 -27.416 -108.48c-26.0322 -26.0322 -182.507 -12.0195 -220.584 -13.0049
l-2.90137 0.0126953c-103.732 -7.2998 -296.108 50.6025 -326.603 92.1719c-18.5059 25.2275 -31.4014 41.2529 -57.9951 55.3086v70.0371c25.8174 -16.2627 49.624 -17.8066 70.1904 -60.6357c44.2188 -92.082 349.455 -105.734 451.309 -108.438l-0.499023 -0.962891
c50 12 34.1514 4.48145 42.5352 13.5361c19.1768 20.7119 3.97852 41.9688 5.50781 57.9648h-0.541992v2.14941c-0.253906 0.990234 -0.500977 1.94141 -0.738281 2.84863h0.738281v207.174v3.4873v1.33887h1.58203l104 88h1.13281
c4.9834 45.8955 -62.8379 92.1289 -94.2158 139.501l-3 4l-1 1c-2.02051 3.99219 0.0439453 4.02539 -2.08398 11.5605c-0.0371094 0.130859 -0.189453 0.24707 -0.174805 0.367188l0.258789 2.07227l0.0644531 1.49902
c0.00976562 0.226562 0.150391 3.89551 0.242188 6.24414c3.11426 79.1523 5.19727 173.389 -83.8154 173.771c-136.35 16.7461 -373.536 9.53418 -431.49 -46.5137zM499.205 421.473c24.3545 0 49.3467 13.5146 56.958 40.4307l1.0166 3.5957l15.54 -4.35156
c-2.33594 -8.39941 -5.83301 -20.9746 -18.3594 -33.501c-14.5322 -14.5322 -35.0371 -21.9824 -55.3857 -21.9824c-19.3506 0 -38.5586 6.73828 -52.3506 20.5303c-12.8438 12.8438 -16.166 26.3809 -18.3193 35.1533l15.5957 3.58594
c2.00488 -7.71973 4.61133 -17.7568 14.3857 -27.5322c10.6768 -10.6758 25.7266 -15.9287 40.9189 -15.9287zM371.751 466.751c0 58.5254 57.8682 106.249 129.249 106.249c71.3857 0 129.249 -47.6436 129.249 -106.166c0 -58.5254 -57.8682 -106.249 -129.249 -106.249
c-71.3857 0 -129.249 47.6436 -129.249 106.166zM387.583 466.834c0 -49.8848 51.0635 -90.417 113.417 -90.417c62.3506 0 113.417 40.4473 113.417 90.334c0 49.8848 -51.0635 90.417 -113.417 90.417c-62.3506 0 -113.417 -40.4473 -113.417 -90.334zM530.3 506.634
c0 6.2998 4.5 11.4004 10.2002 11.4004s10.2002 -5.10059 10.2002 -11.4004c0 -6.2998 -4.5 -11.3994 -10.2002 -11.3994s-10.2002 5.09961 -10.2002 11.3994zM457.7 507.234c0 6 4.5 10.7998 10.2002 10.7998s10.2002 -4.7998 10.2002 -10.7998
s-4.5 -10.8008 -10.2002 -10.8008s-10.2002 4.80078 -10.2002 10.8008zM531.212 81.9863l-0.00390625 -0.131836c0.00195313 0.0429688 0.00390625 0.0878906 0.00390625 0.131836zM507.943 155.914l0.0332031 -0.0380859
c-0.0117188 0.0126953 -0.0332031 0.0380859 -0.0332031 0.0380859zM475.527 152.934l0.0332031 0.0507812c-0.00488281 -0.0078125 -0.0117188 -0.0166016 -0.0332031 -0.0507812zM454.566 84.4229l0.00976562 0.0605469
c-0.00390625 -0.0195312 -0.00976562 -0.0400391 -0.00976562 -0.0605469zM456.519 76.5332l-0.0439453 0.0478516c0.0136719 -0.0166016 0.0292969 -0.0322266 0.0439453 -0.0478516zM458.248 75.2217l-0.21582 0.0634766
c0.0722656 -0.0234375 0.143555 -0.0449219 0.21582 -0.0634766zM459.31 75.0234l-0.0458984 0.00390625c0.00878906 0 0.0166016 -0.00390625 0.0458984 -0.00390625zM494.608 163.138c-17.6387 1.59668 -24.8916 -17.4248 -31.7139 -44.5469
c-5.25195 -21.6182 -5.25195 -21.6182 -7.15234 -28.7471l0.0107422 0.0419922c-0.00390625 -0.0136719 -0.0107422 -0.0419922 -0.0107422 -0.0419922c-1.34082 -5.51953 -2.45215 -10.0889 0.955078 -13.4961c1.25195 -1.25195 1.71094 -1.33691 5.26855 -1.49316
c63.1748 0.0283203 63.1748 0.0283203 64.9258 0.258789c1.50879 0.189453 5.31055 3.70508 4.04785 9.69531c-0.0976562 0.494141 -7.84863 34.3281 -12.3145 48.8887c-7.83887 25.2773 -17.1777 28.9668 -24.0166 29.4404zM525.378 61.5684
c-4.90918 -0.0996094 -62.9902 -0.0986328 -63.626 -0.0771484c-3.83887 0.123047 -9.17871 0.295898 -13.7441 5.35254c-1.33301 1.47754 -7.5332 9.03223 -5.56055 19.8389c0.728516 3.9834 1.70605 7.99512 3.5293 14.6729
c7.80859 32.123 9.9248 40.8301 15.7725 52.8145c4.78516 9.78809 15.3359 24.5254 34.8779 22.1895c23.1855 -2.57031 31.8271 -29.1953 38.0195 -54.1455c2.17773 -9.0459 4.39941 -18.0752 6.67969 -27.1299c1.99707 -8.31836 3.93066 -16.3701 -1.01855 -24.5557
c-2.45996 -4.07227 -7.0791 -9.0459 -14.9297 -8.95996zM585 63zM388.549 195.164zM351.862 127.625zM494.806 39.3203zM385.331 61.6162zM448.295 41.8076zM620.042 142.895zM351.862 127.625zM620.042 142.895zM624.878 147.498
c2.53223 -7.67285 4.16406 -15.9756 6.29395 -23.9307l1.48535 -0.0234375c-1.12891 -23.833 -1.55469 -32.8076 -40.2559 -63.3877c-28.7969 -22.7559 -49.6514 -36.1748 -97.5742 -36.9473c-32.9648 -0.53125 -75.1748 6.49805 -111.979 36.9395
c-14.5029 11.9932 -37.5244 35.2061 -37.3096 61.5771h-1.03223c1.12695 4.22656 1.12695 4.22656 1.23535 7.47266l0.753906 -0.0126953l3.23242 12.1191h-1.41992c0.738281 1 1.47461 2 2.21094 3.00098v3.4043h2.50684l36.5986 49.7275h1.16113
c12.6621 29.6113 61.1738 43.874 80.0146 20.9385c2.67676 -1.20215 14.8096 -6.04395 27.5859 -1.38477c6.58105 8.80762 25.0723 17.3076 45.8799 12.9932c20.125 -4.17383 40.4277 -22.8955 49.335 -32.0107h0.426758
c0.313477 -0.461914 0.529297 -0.993164 0.922852 -1.39746l2.79883 -2.91992l26.7236 -45.665c0.398438 0.0341797 0.713867 0.00878906 0.651367 -0.28125zM364.155 123.325c-0.443359 -15.1973 1.2373 -33.2695 38.1455 -59.1055
c31.3184 -21.9229 57.2686 -23.4971 92.8955 -22.6143c41.5098 1.06738 58.8301 6.40332 83.8955 26.8848c33.332 27.2383 38.8545 35.7744 34.8467 51.7754l-5.30078 21.1592l-0.194336 -0.347656c0.0117188 1.28125 -0.845703 2.90918 -0.833984 4.19043l-29.7422 46.9092
c-0.797852 -0.0302734 -0.160156 0.694336 -0.958984 0.663086c-18.4102 12.1377 -20.373 17.3965 -27.249 21.4521c-10.5908 6.24512 -26.8711 4.98828 -37.2363 -2.08691c-5.16016 -15.543 -37.1738 -18.0342 -51.9258 -4.0166
c-1.375 1.30566 -2.38867 0.579102 -2.25781 2.18164c-15.7695 10.8516 -45.3047 -0.0810547 -53.6504 -19.7383l-1.01367 -2.38379l-1.68652 0.648438l-32.5254 -46.0469z" />
  </g>

</svg>
