<?xml version="1.0" standalone="no"?>
<!DOCTYPE svg PUBLIC "-//W3C//DTD SVG 1.1//EN" "http://www.w3.org/Graphics/SVG/1.1/DTD/svg11.dtd" >
<svg xmlns="http://www.w3.org/2000/svg" xmlns:xlink="http://www.w3.org/1999/xlink" version="1.1" viewBox="-10 0 1204 1000">
  <g transform="matrix(1 0 0 -1 0 800)">
   <path fill="currentColor"
d="M651.944 84.4434c0 -51.8545 -45.6963 -97.4434 -97.9443 -97.4434c-22.0459 0 -49.2305 11.25 -64.8369 26.7949c-18.0596 18.1152 -27.2002 42.2744 -27.2002 67.6211c0 29.9805 10.4834 52.0234 37.1299 94.9248c0.436523 0.703125 24.5898 41.1758 41.0234 71.9619
c2.24414 4.2041 6.31836 11.7129 16.1953 11.7129c0.617188 0 1.17773 -0.0214844 1.69824 -0.0214844h2.10449c7.77441 -3.4082 10.2334 -5.68359 15.3066 -17.1367c43.5352 -76.5596 43.5352 -76.5596 50.3369 -87.2979
c24.8906 -36.6016 26.1865 -59.1934 26.1865 -71.1162zM554.263 18.2217c38.3379 0 66.5635 33.9766 66.5635 65.8594c0 3.74609 -0.953125 15.0918 -4.9043 25.2041c-4.19922 9.56055 -9.5 18.7793 -16.4619 29.6689c-6.90234 10.7939 -6.90234 10.7939 -43.1348 73.7061
c-26.5771 -46.3828 -27.0312 -47.1328 -33.2188 -57.1875c-19.334 -32 -29.9033 -49.7344 -29.9033 -74.4287c0 -17.4873 6.10645 -33.2041 17.6377 -44.7354c9.94727 -9.94824 31.3066 -18.0869 43.4219 -18.0869zM702.566 680.5l-1.4707 27.9307l410.621 1.95996
l-0.817383 -29.8906h-408.333zM704.667 558l-2.4502 31.959l410.619 -1.95996l0.164062 -29.999h-408.333zM874.873 136.705c-19.2393 12.541 -43.0488 28.0498 -52.9102 34.4639c-9.86035 6.41504 -21.1758 13.8604 -25.1455 16.5469l-7.21777 4.88379l-19.9541 60.0371
l-19.9541 60.0361l6.6377 66.2168c3.65039 36.418 7.0332 66.8545 7.51465 67.6348c0.482422 0.779297 26.2676 13.9453 57.2988 29.2568l56.4238 27.8379l14.6807 1.55176c8.07422 0.853516 24.501 2.60449 36.5068 3.89453
c44.8691 4.81641 34.7861 6.68066 81.8467 -15.1338l41.3135 -19.1533l31.5693 -50.4307c17.3633 -27.7383 -5.4834 -84.4844 -5.4834 -86.1475c0 -1.66309 74.082 -56.6445 63 -92.4004c-11.084 -35.7588 -36.6289 -79.5391 -40.6006 -92.3994
c-3.97168 -12.8623 -35.0967 -9.86426 -36.3994 -12.6006c-1.83105 -3.84375 -1.82812 -2.00781 -60.2002 5.60059c-17.7686 2.31543 -36.6572 -7.23242 -43.0879 -10.2539c-22.5244 -10.584 -48.585 -22.2441 -49.7139 -22.2441
c-0.62793 0 -16.8838 10.2607 -36.125 22.8027zM83.8418 389.873c0 -49.0752 42.2549 -95.2754 94.4307 -95.2754c20.5361 0 57.0029 12.3594 78.0107 38.0459c4.85547 5.93848 12.499 8.11719 15.8691 8.11719c4.48242 0 9.71094 0 15.7412 -6.03027
c6.81738 -6.81738 6.87305 -21.0469 29.1387 -43.3135c17.3467 -17.3467 30.9395 -21.6318 32.4307 -22.8047c0 0 22.7842 -7.10547 40.9824 -7.10547c1.43262 0 23.1367 0.139648 48.3516 10.3398c6.16211 2.49316 27.2979 13.5127 42.7979 34.9541
c2.00391 3.50684 9.12207 16.9326 9.12207 30.6562c0 6.58203 0 11.46 -7.91895 29.7393c7.3584 8.35547 7.51074 8.5293 7.75586 8.77441c3.25586 3.25586 8.51172 5.30762 16.0781 5.30762c14.1133 0 23.7891 -5.875 34.5762 -6.13574h0.104492
c6.89746 0 22.8477 2.04297 35.7383 7.12598c0.759766 0.299805 18.3887 8.06543 32.5693 22.2451c2.97461 2.97461 23.8213 24.2363 24.5146 61.666c0.902344 48.7314 -39.6162 89.459 -88.3672 90.7686c-8.32812 0.264648 -16.917 6.3623 -18.8926 16.3145
c-4.12012 22.748 -20.9072 41.543 -26.6377 47.2734c-12.168 12.168 -48.6289 25.4697 -60.1416 28.6973h-1.59277c-34.3184 0 -74.3721 -26.167 -87.8369 -58.8154c-2.57324 -6.50488 -9.87109 -12.6309 -18.5078 -12.6826
c-0.238281 0 -3.28613 0.0888672 -4.95508 0.0888672c-18.3018 0 -47.2197 -8.71973 -62.5596 -18.8604c-1.87109 -1.23633 -5.72949 -3.74902 -11.4043 -3.74902c-7.96094 0 -15.1807 4.94824 -18.4014 11.6826c-12.8838 29.2646 -46.6357 47.9766 -71.375 48.8438
c-28.2646 -0.676758 -61.8623 -22.5781 -73.5703 -49.4688c-1.34473 -2.98633 -4.41797 -22.4805 -4.93359 -27.2051c0 0 -0.078125 -0.679688 -0.078125 -0.68457c0.015625 -17.7363 10.9082 -44.0479 23.5693 -56.7236c3.75195 -3.8584 5.6875 -8.8877 5.6875 -13.8809
c0 -5.00684 -1.8916 -9.98438 -5.59375 -13.8535c-9.40234 -9.61035 -24.7021 -40.3789 -24.7021 -64.0518zM177.282 259.395c-64.1523 0 -125.271 58.7197 -125.271 128.667c0 16.7549 6.02148 48.8301 25.6621 77.1416c-2.82422 3.84082 -24.917 35.0361 -24.917 71.2705
v0.451172c0.115234 0.636719 0.133789 0.785156 0.414062 3.05469c3.44727 27.9023 5.85352 47.3809 30.541 72.0684c23.168 23.167 55.1064 36.7002 79.5557 36.7002c20.3262 0 66.3311 -12.0986 95.4043 -55.0195c7.90234 3.89258 30.1924 14.873 64.5371 17.4785
c6.26367 11.9189 13.75 21.6084 23.0635 30.9219c22.1367 22.1367 54.832 40.8711 91.7275 40.8711c49.9668 0 101.562 -39.3369 118.908 -93.4365c47.5029 -7.54492 85.3682 -43.9639 96.9502 -67.627c7.39648 -15.1104 12.9111 -38.9082 12.9111 -55.75
c0 -0.924805 -0.371094 -52.1006 -34.1963 -85.9268c-12.3193 -12.3184 -28.8369 -24.2637 -43.3105 -30.1533c-17.5391 -7.47656 -40.5615 -10.3662 -47.5449 -10.3662c-4.70801 0 -8.71289 0.650391 -16.3467 2.16504
c0.172852 -3.99316 0.176758 -4.30176 0.176758 -5.25391c0 -16.9844 -6.7041 -39.2725 -13.5771 -49.3379c-3.39551 -4.97266 -7.74902 -10.0488 -12.7148 -15.0146c-13.2744 -13.2744 -30.8887 -25.8135 -46.4639 -31.8252
c-22.7285 -8.77344 -43.626 -13.3281 -63.249 -13.3281c-15.5439 0 -38.0186 4.23047 -52.4902 9.875c-8.02246 3.16211 -40.9746 18.0879 -67.1689 58.5244c-11.7109 -10.002 -46.7188 -36.1504 -92.6016 -36.1504zM441.889 402.396
c0 -20.6826 -14.8281 -38.7725 -34.9072 -38.7725c-0.0732422 0 -0.162109 0.000976563 -0.254883 0.000976563c-5.66504 -0.104492 -45.333 -0.120117 -71.9521 -0.120117c0 0 -24.0781 0.00488281 -24.2393 0.0078125
c-6.05469 0.195312 -17.2334 0.555664 -26.3955 10.7051c-2.29688 2.54492 -11.0205 13.0049 -11.0205 28.877c0 7.53418 2.52148 17.1729 6.1582 30.499c14.082 57.9395 20.3604 83.7686 39.5889 102.997c8.62793 8.62695 21.2646 16.4014 38.374 16.4014
c48.5498 0 62.8018 -54.3018 71.1895 -88.0898c5.4375 -22.6045 10.04 -40.7881 10.1387 -41.2002c1.55859 -6.48828 3.32031 -13.6279 3.32031 -21.3057zM357.189 516.839c-14.2217 0 -24.6797 -12.5977 -36.917 -61.2402
c-7.88086 -32.4453 -7.93164 -32.6523 -10.7842 -43.3496c-1.05762 -4.36133 -1.69336 -7.59961 -1.69336 -9.5625c0 -1.40234 0.180664 -2.0459 0.578125 -2.59961h4.49219l-0.121094 -0.442383c74.5596 0.0341797 90.0586 0.129883 93.792 0.235352
c0.420898 0.589844 0.915039 1.63086 0.915039 3.21387c0 1.42383 -13.4082 57.9834 -18.5889 74.876c-5.67969 18.3125 -11.6953 27.917 -16.6162 32.8379c-3.21094 3.20996 -6.7998 6.03125 -15.0566 6.03125zM406.079 399.361c0 0 0.00292969 0.00195312 0 0z
M298.362 406.119l0.0498047 0.430664l-0.249023 -0.193359zM310.068 396.256l-8.5332 -3.53613v7.07031z" />
  </g>

</svg>
