<?xml version="1.0" standalone="no"?>
<!DOCTYPE svg PUBLIC "-//W3C//DTD SVG 1.1//EN" "http://www.w3.org/Graphics/SVG/1.1/DTD/svg11.dtd" >
<svg xmlns="http://www.w3.org/2000/svg" xmlns:xlink="http://www.w3.org/1999/xlink" version="1.1" viewBox="-10 0 1002 1000">
  <g transform="matrix(1 0 0 -1 0 800)">
   <path fill="currentColor"
d="M682.406 36.0518l26.5059 68.2842c62.9561 -102.438 62.4795 -142.953 90.0215 -184.836h87.0664v-43.5h-520.5v43.5h61.75l71.8213 190.713c20.3232 -33.0684 34.0498 -59.7168 44.2461 -82.0459l69.8027 168.227c31.5908 -51.4033 52.543 -109.279 69.2861 -160.342z
M57.5039 -16.9844h42.7031l13.2012 40.1738l13.2002 -40.1738h42.7041l-34.5127 -24.8428l13.2002 -40.1729l-34.5918 24.8428l-34.5928 -24.8428l13.2012 40.1729zM690.6 297.746l-345.6 1.15039v22.8057h309.867v129.493h-309.867v22.8047l342.527 -1.91895z
M707.148 748.46c0.0644531 0 0.168945 0.000976562 0.234375 0.000976562c64.4004 0 116.876 -52.2676 117.133 -116.668c-0.00195312 -64.3984 -52.2686 -116.664 -116.668 -116.664s-116.666 52.2666 -116.666 116.667c0 64.0146 51.9531 116.28 115.967 116.664z
M707.148 522.904h0.234375c60.1074 0 109.098 48.7822 109.354 108.889c-0.000976563 60.1055 -48.7842 108.887 -108.89 108.887s-108.888 -48.7822 -108.888 -108.889c0 -59.7207 48.4678 -108.502 108.188 -108.887zM691.593 631.793
c0 8.5918 6.96484 15.5557 15.5557 15.5557s15.5557 -6.96387 15.5557 -15.5557c0 -8.59082 -6.96484 -15.5547 -15.5557 -15.5547s-15.5557 6.96387 -15.5557 15.5547zM513 729l-91.7002 -92.6094l99.792 -91.7285l-12.9922 -10.8223l-99.9033 91.9668l-90.3564 -91.9668
l-9.43652 10.3184l89.209 90.7197l-87.6963 91.2236l11.5918 11.0889l88.7041 -88.2002l92.7363 88.7041zM101.557 637.267z" />
  </g>

</svg>
