<?xml version="1.0" standalone="no"?>
<!DOCTYPE svg PUBLIC "-//W3C//DTD SVG 1.1//EN" "http://www.w3.org/Graphics/SVG/1.1/DTD/svg11.dtd" >
<svg xmlns="http://www.w3.org/2000/svg" xmlns:xlink="http://www.w3.org/1999/xlink" version="1.1" viewBox="-10 0 755 1000">
  <g transform="matrix(1 0 0 -1 0 800)">
   <path fill="currentColor"
d="M126.003 713.001c-7.80222 0 -7.91901 -0.876329 -16.7252 -1.64202c0.44476 -8.41859 0.575142 -15.3371 0.575142 -20.5785c0 -6.36946 -0.192547 -10.2621 -0.247434 -11.3599c0 -0.054882 -0.00682101 -0.102882 -0.00682101 -0.13815v-300.781h-0.599609v-139.939
l0.599609 -0.300781v-301.26h-2.59961v-33.5853c4.36448 -0.116724 8.7006 -0.174591 13.0081 -0.174591c255.848 0 410.99 204.237 410.99 404.761c-0.300011 223.275 -181.717 404.697 -404.994 404.999zM142.399 378.202v300.855l5.3616 -0.387014
c70.7255 -5.10515 164.757 -43.5628 220.471 -89.5801c8.11967 -2.43714 14.6455 -11.3628 23.2177 -23.0871c4.53334 -5.20643 5.8608 -6.84647 7.48001 -8.90435l1.73562 1.73562l3.51919 -4.07079c47.6751 -55.1478 87.9606 -152.735 93.0138 -225.413l0.371861 -5.34834
h-300.847c-0.766864 2.49231 -4.91431 0.751698 -11.0294 15.0895c-9.1594 5.09078 -2.93752 10.0336 -16.941 23.1338c-6.12606 5.73094 -7.88665 8.56675 -7.99 8.62276c-7.03128 3.81008 -12.3064 5.47328 -18.3627 7.35444zM363.855 22.393
c-0.151731 0 -0.302929 0.00307417 -0.453449 0.00913569c-33.5781 -26.4386 -120.523 -78.8013 -221.004 -86.0544v301.454c5.75892 1.78049 9.60241 2.96879 15.8918 6.10792c6.77077 12.0785 26.3716 10.5332 36.8179 44.1823l1.08991 3.51077h300.958
l-0.379838 -5.35335c-5.15349 -72.6593 -45.477 -170.226 -93.0913 -225.307l-3.51917 -4.07104l-0.258092 0.258092c-7.88001 -9.42642 -16.9835 -12.7858 -19.7221 -19.2794c-8.17478 -12.459 -10.1419 -15.4571 -16.3297 -15.4571z" />
  </g>

</svg>
