<?xml version="1.0" standalone="no"?>
<!DOCTYPE svg PUBLIC "-//W3C//DTD SVG 1.1//EN" "http://www.w3.org/Graphics/SVG/1.1/DTD/svg11.dtd" >
<svg xmlns="http://www.w3.org/2000/svg" xmlns:xlink="http://www.w3.org/1999/xlink" version="1.1" viewBox="-10 0 1008 1000">
  <g transform="matrix(1 0 0 -1 0 800)">
   <path fill="currentColor"
d="M348.481 97.6934l-82.2217 148.848l24.0225 10.1475l58.4395 -100.383l53.3027 101.418l27.2285 -11.0254zM265.568 -67.707v34.6641h38.626v22.0713h-38.626v34.6641h38.626v33.7148h31.3828v-33.7148h23.2197v31.2539h31.3828v-31.2539h41.292v-34.6641h-41.292
v-22.0713h41.292v-34.6641h-41.292v-36.1855h-31.3828v36.1855h-23.2197v-33.7246h-31.3828v33.7246h-38.626zM335.577 -33.043h23.2197v22.0713h-23.2197v-22.0713zM780.659 223.904c-0.529297 0 -0.985352 0.173828 -1.32227 0.358398l-214.094 -88.2627v-37.8242
c12.126 5.10742 24.251 10.2148 36.376 15.3213v-3.77051l-0.21875 -161.659h318.305l0.646484 155.446c10.9619 -6.48535 21.9238 -12.9697 32.8867 -19.4551l-0.677734 40.7051l-136.33 79.1182l1.46387 0.616211c-22.6963 11.7715 -24.457 12.7314 -36.2109 19.5508
c-0.288086 -0.102539 -0.56543 -0.144531 -0.824219 -0.144531zM884.594 -16.7148h-248.003l-0.665039 144.662l142.009 59.8174l107.859 -63.8086zM63.3545 -23.4795h55.5146l17.1611 52.2256l17.1602 -52.2256h55.5156l-44.8672 -32.2959l17.1611 -52.2246
l-44.9697 32.2959l-44.9707 -32.2959l17.1611 52.2246zM861.55 603.65l45.1504 -29.4004l27.2998 36.75l12.5996 2.09961l-39.8994 -51.4492l-46.2002 28.3496zM585.4 563.75l42 45.1504l39.8994 -44.1006l-14.7002 1.0498l-25.1992 30.4502l-30.4502 -31.5zM629.5 574.25
c0 -71.0498 59.8496 -128.45 133.35 -128.45s133.351 57.4004 133.351 128.45s-59.8506 128.45 -133.351 128.45s-133.35 -57.4004 -133.35 -128.45zM619 574.25c0 77 64.4004 139.65 143.85 139.65c79.4502 0 143.851 -62.6504 143.851 -139.65
s-64.4004 -139.65 -143.851 -139.65c-79.4492 0 -143.85 62.6504 -143.85 139.65zM459.25 607.851l45.1504 -29.4004l27.2998 36.75l12.5996 2.09961l-39.8994 -51.4492l-46.2002 28.3496zM183.101 567.95l42 45.1504l39.8994 -44.1006l-14.7002 1.0498l-25.1992 30.4502
l-30.4502 -31.5zM227.2 578.45c0 -71.0498 59.8496 -128.45 133.35 -128.45s133.351 57.4004 133.351 128.45c0 71.0498 -59.8506 128.45 -133.351 128.45s-133.35 -57.4004 -133.35 -128.45zM216.7 578.45c0 77 64.4004 139.65 143.85 139.65
c79.4502 0 143.851 -62.6504 143.851 -139.65s-64.4004 -139.65 -143.851 -139.65c-79.4492 0 -143.85 62.6504 -143.85 139.65z" />
  </g>

</svg>
