<?xml version="1.0" standalone="no"?>
<!DOCTYPE svg PUBLIC "-//W3C//DTD SVG 1.1//EN" "http://www.w3.org/Graphics/SVG/1.1/DTD/svg11.dtd" >
<svg xmlns="http://www.w3.org/2000/svg" xmlns:xlink="http://www.w3.org/1999/xlink" version="1.1" viewBox="-10 0 1020 1000">
  <g transform="matrix(1 0 0 -1 0 800)">
   <path fill="currentColor"
d="M266.333 34.5h110.167c4.54004 0 7.5 -4.28125 7.5 -7.5v-8.33301c0 -4.54004 -4.28125 -7.5 -7.5 -7.5h-246.834c-4.54004 0 -7.5 4.28125 -7.5 7.5v8.33301c0 4.54004 4.28125 7.5 7.5 7.5h113.334v162.75h-80c-4.54004 0 -7.5 4.28125 -7.5 7.5v8.33398
c0 4.54004 4.28125 7.5 7.5 7.5h80v50.833c0 4.54004 4.28125 7.5 7.5 7.5h8.33301c4.54004 0 7.5 -4.28125 7.5 -7.5v-50.833h80c4.54004 0 7.5 -4.28125 7.5 -7.5v-8.33398c0 -4.54004 -4.28125 -7.5 -7.5 -7.5h-80v-162.75zM560.916 367.51
c15.1855 -50.2158 52.5967 -87.1133 128.606 -124.021c4.07812 -1.98047 4.8916 -7.11621 3.46191 -10.041l-3.66602 -7.5c-1.87305 -3.83203 -6.66406 -5.08301 -10.0195 -3.4502c-67.3887 32.7852 -109.503 68.7275 -131.295 113.753
c-22.1309 -42.8135 -64.1885 -89.6328 -102.445 -112.218c-3.47656 -2.05176 -8.07227 -0.883789 -10.1768 2.49121l-4.41602 7.08301c-2.39648 3.84375 -0.365234 8.62695 2.42285 10.3486c82.2725 50.8232 122.041 128.9 118.611 235.044
c-0.143555 4.45312 3.8291 7.74219 7.49609 7.74219h8.33398c4.09082 0 7.32324 -3.4668 7.49219 -7.15625c0.193359 -4.21973 0.344727 -10.79 0.344727 -15.0156c0 -27.707 -6.81738 -70.876 -14.751 -97.0605zM496.523 370.249
c-23.3691 18.9424 -50.8125 54.9316 -62.8955 82.4805c-1.82031 4.15039 0.884766 8.58984 3.87793 9.89062l7.66699 3.33301c3.91602 1.70215 8.36719 -0.46582 9.8584 -3.86523c10.3232 -23.5312 36.2285 -57.5029 56.1885 -73.6875
c3.31348 -2.68652 3.45508 -7.63477 1.11133 -10.5381l-5.25 -6.5c-2.85059 -3.52832 -8.03809 -3.15527 -10.5576 -1.11328zM688.948 452.646c-12.082 -27.5488 -39.5264 -63.5391 -62.8955 -82.4805c-3.52344 -2.85645 -8.51953 -1.40918 -10.5576 1.11328l-5.25 6.5
c-2.67969 3.31836 -1.78711 8.18848 1.1123 10.5391c19.9609 16.1816 45.8662 50.1533 56.1875 73.6865c1.71484 3.91016 6.45312 5.3457 9.8584 3.86523l7.66699 -3.33301c4.15625 -1.80664 5.18945 -6.90137 3.87793 -9.89062zM80.1865 762.21l37.1855 54.043
c2.29785 3.33789 7.27246 3.3457 9.66113 0.306641l45.2246 -57.543c2.13086 -2.71191 1.47852 -6.79004 -1.3916 -8.70215c-0.647461 -0.430664 -1.41797 -0.741211 -2.13965 -0.887695l-7.70508 -1.55469c-2.23438 -0.450195 -4.58496 0.498047 -5.90234 2.17188
l-24.293 30.8799l1.17383 -123.924c0.0332031 -3.49219 -3.05469 -6.2207 -6.31641 -6.04785l-7.37012 0.388672c-3.27148 0.171875 -5.69727 3.08691 -5.68359 6.01953l0.578125 122.085l-19.7871 -28.707c-1.95801 -2.83984 -6.04492 -3.42676 -8.72266 -1.25293
c-0.408203 0.332031 -1.05078 1.10254 -1.09082 1.1582l-3.35059 4.66504c-1.54883 2.15527 -1.26855 5.15918 -0.0703125 6.90137zM800.667 422.444l110.333 -104.444l-110.333 -99.7227l5.33301 -327.277l-561 3l-6 63h507v306l77 55l-77 65l-6 294h-477l6 61.5557
h531.667v-316.111z" />
  </g>

</svg>
