<?xml version="1.0" standalone="no"?>
<!DOCTYPE svg PUBLIC "-//W3C//DTD SVG 1.1//EN" "http://www.w3.org/Graphics/SVG/1.1/DTD/svg11.dtd" >
<svg xmlns="http://www.w3.org/2000/svg" xmlns:xlink="http://www.w3.org/1999/xlink" version="1.1" viewBox="-10 0 1039 1000">
  <g transform="matrix(1 0 0 -1 0 800)">
   <path fill="currentColor"
d="M348.481 97.6934l-82.2217 148.848l24.0225 10.1475l58.4395 -100.383l53.3027 101.418l27.2285 -11.0254zM265.568 -67.707v34.6641h38.626v22.0713h-38.626v34.6641h38.626v33.7148h31.3828v-33.7148h23.2197v31.2539h31.3828v-31.2539h41.292v-34.6641h-41.292
v-22.0713h41.292v-34.6641h-41.292v-36.1855h-31.3828v36.1855h-23.2197v-33.7246h-31.3828v33.7246h-38.626zM335.577 -33.043h23.2197v22.0713h-23.2197v-22.0713zM780.659 223.904c-0.529297 0 -0.985352 0.173828 -1.32227 0.358398l-214.094 -88.2627v-37.8242
c12.126 5.10742 24.251 10.2148 36.376 15.3213v-3.77051l-0.21875 -161.659h318.305l0.646484 155.446c10.9619 -6.48535 21.9238 -12.9697 32.8867 -19.4551l-0.677734 40.7051l-136.33 79.1182l1.46387 0.616211c-22.6963 11.7715 -24.457 12.7314 -36.2109 19.5508
c-0.288086 -0.102539 -0.56543 -0.144531 -0.824219 -0.144531zM884.594 -16.7148h-248.003l-0.665039 144.662l142.009 59.8174l107.859 -63.8086zM63.3545 -23.4795h55.5146l17.1611 52.2256l17.1602 -52.2256h55.5156l-44.8672 -32.2959l17.1611 -52.2246
l-44.9697 32.2959l-44.9707 -32.2959l17.1611 52.2246zM638.956 441.134c-3.5791 0 -6.66211 2.91797 -6.66211 6.66309v234.082c0 3.59082 2.92773 6.66309 6.68555 6.66309c0 0 65.6543 -0.265625 77.9375 -0.314453l45.2266 40.918l2.12012 -16.5137l1.56055 -28.8594
l164.853 3.59277c3.56934 0.078125 6.63672 -2.93164 6.63672 -6.66406v-67.499l39.9551 -46.5205l-30.4844 1.65039l-10.9209 1.56055l1.4502 -123.273c0.0429688 -3.58105 -2.9375 -6.66211 -6.68555 -6.66211zM919.483 567.553l-20.2793 -3.12012l-25.5264 3.38379
l42.5088 46.6211v51.8232l-148.803 1.91211l-0.780273 -24.1807l-0.94043 -18.3311l-49.1611 41.457l-63.0791 0.270508v-205.15l262.764 -1.12891zM252 456c-0.109375 0 -0.595703 0.207031 -0.595703 0.663086c0 0.0712891 0.0107422 0.141602 0.0283203 0.205078
c-0.273438 5.32422 -0.546875 10.6484 -0.819336 15.9727l196.179 20.1211c-1.89355 0.180664 -3.63184 0.34668 -3.65234 0.349609c-20.2373 3.44531 -27.7363 12.9668 -27.7363 32.9277c0 44.9863 37.8252 119.862 45.4697 159.875
c0.351562 1.84277 2.76855 3.21094 2.76855 4.58789c0 0.0966797 0.49707 1.28516 0.399414 2l0.800781 -0.799805c0.0195312 -0.637695 0.492188 -1.06934 0.512695 -1.70703v0c9.05273 -43.5518 43.2773 -101.295 43.2773 -142.718
c0 -13.6152 -4.04102 -23.7129 -10.1904 -36.1592c-1.41992 -2.87305 -3.16504 -6.4043 -5.45703 -11.2715c-0.1875 -0.398438 -1.84375 -2.15625 -9.63281 -8.83984l-5.39258 2.24707l-0.607422 1.82129c0.15918 0.150391 10.8281 10.751 11.4082 18.7412
c0.279297 3.85254 0.411133 7.5459 0.411133 11.0898c0 35.8604 -13.4951 56.417 -23.6768 71.9453c-3.2168 4.9082 -6.11133 9.31543 -8.14355 13.5654c-8.74316 -27.4111 -28.1094 -55.6836 -28.1094 -82.7148c0 -13.3896 7.43945 -23.8389 7.60059 -24
c3.80273 -3.80371 6.34668 -6.45996 15.3994 -9.15234v-1.22852l0.560547 0.0566406c1.96484 4.79492 6.74121 9.34473 12.4004 9.34473c8.4873 0 12.6484 -7.46387 12.6484 -13.4746c0 -6.24219 -4.81641 -13.3457 -11.0088 -13.3457
c-2.87305 0 -6.22559 1.36621 -9.03223 3.45215c-41.0205 -6.33984 -139.797 -17.5049 -202.426 -23.1895c-1.73047 -0.157227 -2.83594 -0.250977 -3.22266 -0.272461c0 0 -0.0419922 -0.0927734 -0.161133 -0.0927734z" />
  </g>

</svg>
