<?xml version="1.0" standalone="no"?>
<!DOCTYPE svg PUBLIC "-//W3C//DTD SVG 1.1//EN" "http://www.w3.org/Graphics/SVG/1.1/DTD/svg11.dtd" >
<svg xmlns="http://www.w3.org/2000/svg" xmlns:xlink="http://www.w3.org/1999/xlink" version="1.1" viewBox="-10 0 1046 1000">
  <g transform="matrix(1 0 0 -1 0 800)">
   <path fill="currentColor"
d="M591 611c0 7.50195 6.7168 13.8496 15.502 13.8496s15.5039 -6.34766 15.5039 -13.8496s-6.71875 -13.8496 -15.5039 -13.8496s-15.502 6.34766 -15.502 13.8496zM598.095 419.209zM625.752 546.47l0.0195312 -0.0244141
c-0.00585938 0.0078125 -0.0195312 0.0244141 -0.0195312 0.0244141zM547.21 446.893l0.00683594 0.0400391c-0.00292969 -0.0126953 -0.00683594 -0.0263672 -0.00683594 -0.0400391zM554.132 430.961l-0.133789 0.0410156
c0.0449219 -0.0146484 0.0888672 -0.0283203 0.133789 -0.0410156zM556.365 430.518l-0.0292969 0.00292969c0.00488281 0 0.00976562 -0.00292969 0.0292969 -0.00292969zM641.994 417.85c-44.9541 0.158203 -81.8857 0.000976563 -81.8926 0.000976563
c-5.06445 0.163086 -11.3477 0.366211 -16.7705 6.37402c-8.99316 9.96289 -7.41016 22.0586 -6.92285 24.7266c0.991211 5.4248 2.54297 10.8721 4.80176 19.9473c9.46191 38.0273 10.5703 43.4844 14.874 56.0488c9.80957 28.5176 21.6904 38.1465 32.1758 42.416
c6.41797 2.39453 27.2529 8.04883 44.4844 -11.1973c8.87598 -10.4209 16.0586 -24.5312 24.5059 -58.5684c2.99219 -12.4375 6.04883 -24.8496 9.17383 -37.2656c0.796875 -3.31641 1.52734 -6.64551 2.19531 -10.0088
c3.29102 -16.2031 -6.10938 -32.5635 -21.2285 -32.3643zM550.572 433.603c0.0078125 -0.0078125 0.0185547 -0.0146484 0.0185547 -0.0224609c2.77051 -3.01074 4.6084 -3.08984 9.64551 -3.30762c0 0 83.7344 0.0361328 83.7715 0.0361328
c1.96191 -0.0273438 3.91602 0.0869141 5.86621 0.345703c4.04395 0.504883 10.1074 7.23633 8.08105 16.8408c-0.935547 4.71582 -0.935547 4.71582 -4.91602 20.6963c-9.8916 40.627 -12.1455 49.8848 -18.8965 64.6758c-1.2373 2.65234 -5.20898 10.6221 -10.623 16.0371
c-5.29883 5.29785 -11.2852 8.08789 -18.2246 8.56836c-8.63184 0.762695 -24.4268 -0.441406 -36.1211 -29.4277c-4.57715 -11.5352 -7.38477 -21.6777 -10.4775 -33.999c-7.20996 -29.6826 -7.20996 -29.6826 -9.82129 -39.4785l0.00585938 0.0263672
c-0.00195312 -0.00878906 -0.00585938 -0.0263672 -0.00585938 -0.0263672c-2.05859 -8.46191 -3.58398 -14.7354 1.69727 -20.9648zM30.3242 741.553h55.5146l17.1611 52.2256l17.1602 -52.2256h55.5156l-44.8672 -32.2959l17.1611 -52.2246l-44.9697 32.2959
l-44.9707 -32.2959l17.1611 52.2246zM804 631c0 -96.6865 68.0879 -173.199 99.375 -191.775l11.1992 -6.64941c-16.9434 -0.478516 1.18945 0.900391 -34.5742 -3.5752l-1.0752 1.36426c-22.0068 27.9238 -93.998 110.011 -106.903 207.233
c-0.657227 4.95117 0.0224609 9.79688 0.582031 18.2783c-1.38379 0.708984 -2.88672 1.4873 -4.52246 2.34082c-0.0283203 -1.83984 -0.322266 -3.81641 -0.0449219 -5.88867c33.3789 -249.661 97.5459 -216.742 97.5459 -216.742s6.91211 -4.29004 10.2793 -6.58594
h-32.8613c-44.1455 16.1279 -101.697 151.17 -101.697 222.331c0 8.73535 0.302734 15.3135 0.785156 20.6846c-60.6641 32.3369 -181.179 64.7012 -284.885 64.7012c-23.0527 0 -45.5234 -2.04883 -73.3945 -6.17773
c-32.3232 -4.78906 -32.3232 -4.78906 -70.6152 -21.2002c-18.916 -8.10645 -50.2139 -47.4062 -58.166 -66.7188c-7.02734 -17.0664 -9.0791 -30.2676 -9.0791 -45.8906c0 -22.332 3.62891 -44.376 3.62891 -77.1553c0 -8.99219 1.14648 -13.8564 1.14648 -20.1924
c0 -4.57031 -0.613281 -9.64551 -2.73242 -16.6025c-19.9492 -65.4795 -40.3174 -87.0479 -63.832 -110.183c-6.25977 -6.16016 -27.0508 -26.6172 -27.0508 -37.7881c0 -4.45605 0.882812 -6.9082 38.3447 -19.4531c55.9199 -18.7266 60.0254 -24.4102 60.0254 -90.9766
c0 -43.0117 2.70801 -110.013 2.70801 -151.731c0 -5.5 0.0820312 -11.3867 0.267578 -17.7666c0.50293 -17.292 16.4512 -45.3398 23.8975 -57.5352c1.19629 -0.303711 1.95996 -1.18164 1.95996 -1.18164c1.1543 -0.666992 2.48438 -1.60059 4.13477 -2.74414
c16.0508 -11.1162 22.0049 -13.1846 40.8428 -13.1846c24.0361 0 22.3457 4.21484 79.0615 4.21484c0.316406 0 6.94531 -0.00390625 7.01562 -0.00390625c14.7988 0 25.668 0.226562 52.1025 3.80078c20.2021 2.73242 38.8271 4.61572 56.5088 6.4043
c120.938 12.2334 201.711 24.1475 280.178 80.1953c2.23438 1.5957 5.14355 3.85352 8.45703 6.42773c12.6104 9.7959 33.0303 26.8994 48.1416 26.8994c8.16699 0 13.834 -4.95996 13.834 -14.165c0 -15.4473 -17.4082 -42.8486 -33.0938 -42.8486
c-1.16406 0 -1.56543 0.129883 -3.01758 0.129883c-22.6426 0 -44.3604 -36.5264 -79.4766 -51.29c-52.8857 -22.2344 -138.298 -27.127 -175.459 -33.71c-17.2549 -3.05664 -36.6504 -6.49316 -61.8809 -12.2393c-34.7246 -7.90918 -51.6299 -8.61133 -86.7539 -8.61133
c-0.251953 0 -22.7891 0.03125 -25.0811 0.03125c-11.3115 0 -32.6182 -0.123047 -32.9473 -0.123047c-40.7773 0 -82.5049 2.86621 -120.91 24.8125c-26.0957 14.9121 -27.9092 36.1035 -30.0449 61.0586c-0.477539 5.59082 -0.976562 11.3994 -1.75781 17.3906
c-1.96484 15.7158 -2.63672 29.7119 -2.63672 42.8916c0 28.6572 -4.27441 100.664 -4.27441 131.409c0 46.4277 -4.59863 49 -29.7539 58.8145c-27.3184 10.6582 -57.2148 13.2568 -70.834 26.876c-4.33008 4.33008 -6.66504 9.68945 -6.66504 16.1094
c0 4.7959 1.30371 10.1846 4.05176 16.1768c36.4951 79.5967 68.6367 70.0742 91.3711 139.761c5.20312 15.9443 6.93652 32.2529 6.93652 48.6797c0 32.5635 -6.77832 65.1611 -6.77832 95.8125c0 47.6494 17.2412 68.3838 35.0508 86.1934
c66.2422 66.2412 143.674 66.3555 238.901 66.3555h0.988281c82.8154 0 190.135 -23.3467 246.021 -49.8477c43.5547 -20.6533 21.8506 -15.7109 32.4561 -16.8408c11.3984 -1.2168 39 -13 47.5039 -30.4053c4.31641 -8.83496 -4.12305 -21.668 -4.50391 -29.5947
c-0.257812 -5.36523 2 -14.3428 2 -20zM603 338c0 7.50195 6.7168 13.8496 15.502 13.8496s15.5039 -6.34766 15.5039 -13.8496s-6.71875 -13.8496 -15.5039 -13.8496s-15.502 6.34766 -15.502 13.8496zM610.095 146.209zM637.752 273.47l0.0195312 -0.0244141
c-0.00585938 0.0078125 -0.0195312 0.0244141 -0.0195312 0.0244141zM559.21 173.893l0.00683594 0.0400391c-0.00292969 -0.0126953 -0.00683594 -0.0263672 -0.00683594 -0.0400391zM566.132 157.961l-0.133789 0.0410156
c0.0449219 -0.0146484 0.0888672 -0.0283203 0.133789 -0.0410156zM568.365 157.518l-0.0292969 0.00292969c0.00488281 0 0.00976562 -0.00292969 0.0292969 -0.00292969zM653.994 144.85c-44.9541 0.158203 -81.8857 0.000976563 -81.8926 0.000976563
c-5.06445 0.163086 -11.3477 0.366211 -16.7705 6.37402c-8.99316 9.96289 -7.41016 22.0586 -6.92285 24.7266c0.991211 5.4248 2.54297 10.8721 4.80176 19.9473c9.46191 38.0273 10.5703 43.4844 14.874 56.0488c9.80957 28.5176 21.6904 38.1465 32.1758 42.416
c6.41797 2.39453 27.2529 8.04883 44.4844 -11.1973c8.87598 -10.4209 16.0586 -24.5312 24.5059 -58.5684c2.99219 -12.4375 6.04883 -24.8496 9.17383 -37.2656c0.796875 -3.31641 1.52734 -6.64551 2.19531 -10.0088
c3.29102 -16.2031 -6.10938 -32.5635 -21.2285 -32.3643zM562.572 160.603c0.0078125 -0.0078125 0.0185547 -0.0146484 0.0185547 -0.0224609c2.77051 -3.01074 4.6084 -3.08984 9.64551 -3.30762c0 0 83.7344 0.0361328 83.7715 0.0361328
c1.96191 -0.0273438 3.91602 0.0869141 5.86621 0.345703c4.04395 0.504883 10.1074 7.23633 8.08105 16.8408c-0.935547 4.71582 -0.935547 4.71582 -4.91602 20.6963c-9.8916 40.627 -12.1455 49.8848 -18.8965 64.6758c-1.2373 2.65234 -5.20898 10.6221 -10.623 16.0371
c-5.29883 5.29785 -11.2852 8.08789 -18.2246 8.56836c-8.63184 0.762695 -24.4268 -0.441406 -36.1211 -29.4277c-4.57715 -11.5352 -7.38477 -21.6777 -10.4775 -33.999c-7.20996 -29.6826 -7.20996 -29.6826 -9.82129 -39.4785l0.00585938 0.0263672
c-0.00195312 -0.00878906 -0.00585938 -0.0263672 -0.00585938 -0.0263672c-2.05859 -8.46191 -3.58398 -14.7354 1.69727 -20.9648z" />
  </g>

</svg>
