<?xml version="1.0" standalone="no"?>
<!DOCTYPE svg PUBLIC "-//W3C//DTD SVG 1.1//EN" "http://www.w3.org/Graphics/SVG/1.1/DTD/svg11.dtd" >
<svg xmlns="http://www.w3.org/2000/svg" xmlns:xlink="http://www.w3.org/1999/xlink" version="1.1" viewBox="-10 0 1046 1000">
  <g transform="matrix(1 0 0 -1 0 800)">
   <path fill="currentColor"
d="M30.3242 741.553h55.5146l17.1611 52.2256l17.1602 -52.2256h55.5156l-44.8672 -32.2959l17.1611 -52.2246l-44.9697 32.2959l-44.9707 -32.2959l17.1611 52.2246zM804 631c0 -96.6865 68.0879 -173.199 99.375 -191.775l11.1992 -6.64941
c-16.9434 -0.478516 1.18945 0.900391 -34.5742 -3.5752l-1.0752 1.36426c-22.0068 27.9238 -93.998 110.011 -106.903 207.233c-0.657227 4.95117 0.0224609 9.79688 0.582031 18.2783c-1.38379 0.708984 -2.88672 1.4873 -4.52246 2.34082
c-0.0283203 -1.83984 -0.322266 -3.81641 -0.0449219 -5.88867c33.3789 -249.661 97.5459 -216.742 97.5459 -216.742s6.91211 -4.29004 10.2793 -6.58594h-32.8613c-44.1455 16.1279 -101.697 151.17 -101.697 222.331c0 8.73535 0.302734 15.3135 0.785156 20.6846
c-60.6641 32.3369 -181.179 64.7012 -284.885 64.7012c-23.0527 0 -45.5234 -2.04883 -73.3945 -6.17773c-32.3232 -4.78906 -32.3232 -4.78906 -70.6152 -21.2002c-18.916 -8.10645 -50.2139 -47.4062 -58.166 -66.7188
c-7.02734 -17.0664 -9.0791 -30.2676 -9.0791 -45.8906c0 -22.332 3.62891 -44.376 3.62891 -77.1553c0 -8.99219 1.14648 -13.8564 1.14648 -20.1924c0 -4.57031 -0.613281 -9.64551 -2.73242 -16.6025c-19.9492 -65.4795 -40.3174 -87.0479 -63.832 -110.183
c-6.25977 -6.16016 -27.0508 -26.6172 -27.0508 -37.7881c0 -4.45605 0.882812 -6.9082 38.3447 -19.4531c55.9199 -18.7266 60.0254 -24.4102 60.0254 -90.9766c0 -43.0117 2.70801 -110.013 2.70801 -151.731c0 -5.5 0.0820312 -11.3867 0.267578 -17.7666
c0.50293 -17.292 16.4512 -45.3398 23.8975 -57.5352c1.19629 -0.303711 1.95996 -1.18164 1.95996 -1.18164c1.1543 -0.666992 2.48438 -1.60059 4.13477 -2.74414c16.0508 -11.1162 22.0049 -13.1846 40.8428 -13.1846c24.0361 0 22.3457 4.21484 79.0615 4.21484
c0.316406 0 6.94531 -0.00390625 7.01562 -0.00390625c14.7988 0 25.668 0.226562 52.1025 3.80078c20.2021 2.73242 38.8271 4.61572 56.5088 6.4043c120.938 12.2334 201.711 24.1475 280.178 80.1953c2.23438 1.5957 5.14355 3.85352 8.45703 6.42773
c12.6104 9.7959 33.0303 26.8994 48.1416 26.8994c8.16699 0 13.834 -4.95996 13.834 -14.165c0 -15.4473 -17.4082 -42.8486 -33.0938 -42.8486c-1.16406 0 -1.56543 0.129883 -3.01758 0.129883c-22.6426 0 -44.3604 -36.5264 -79.4766 -51.29
c-52.8857 -22.2344 -138.298 -27.127 -175.459 -33.71c-17.2549 -3.05664 -36.6504 -6.49316 -61.8809 -12.2393c-34.7246 -7.90918 -51.6299 -8.61133 -86.7539 -8.61133c-0.251953 0 -22.7891 0.03125 -25.0811 0.03125c-11.3115 0 -32.6182 -0.123047 -32.9473 -0.123047
c-40.7773 0 -82.5049 2.86621 -120.91 24.8125c-26.0957 14.9121 -27.9092 36.1035 -30.0449 61.0586c-0.477539 5.59082 -0.976562 11.3994 -1.75781 17.3906c-1.96484 15.7158 -2.63672 29.7119 -2.63672 42.8916c0 28.6572 -4.27441 100.664 -4.27441 131.409
c0 46.4277 -4.59863 49 -29.7539 58.8145c-27.3184 10.6582 -57.2148 13.2568 -70.834 26.876c-4.33008 4.33008 -6.66504 9.68945 -6.66504 16.1094c0 4.7959 1.30371 10.1846 4.05176 16.1768c36.4951 79.5967 68.6367 70.0742 91.3711 139.761
c5.20312 15.9443 6.93652 32.2529 6.93652 48.6797c0 32.5635 -6.77832 65.1611 -6.77832 95.8125c0 47.6494 17.2412 68.3838 35.0508 86.1934c66.2422 66.2412 143.674 66.3555 238.901 66.3555h0.988281c82.8154 0 190.135 -23.3467 246.021 -49.8477
c43.5547 -20.6533 21.8506 -15.7109 32.4561 -16.8408c11.3984 -1.2168 39 -13 47.5039 -30.4053c4.31641 -8.83496 -4.12305 -21.668 -4.50391 -29.5947c-0.257812 -5.36523 2 -14.3428 2 -20zM434.63 576.236c-2.39258 -3.39746 -3.63184 -4.95508 -5.96777 -7.04688
c9.71191 -8.2041 15.501 -13.1777 25.4727 -22.083c-4.69629 -7.03809 -14.4902 -21.7148 -14.4902 -44.8789c0 -11.3779 2.48242 -22.1758 6.93457 -31.8887l1.40723 -3.06836c-8.32812 -4.19629 -15.3184 -7.7627 -31.2148 -16.6201
c2.74316 -3.78125 3.93457 -5.76953 5.04297 -8.54688c12.0635 7.2959 19.1699 11.3828 30.7783 17.3916c3.16602 -4.33398 5.3916 -7.37988 9.62695 -11.6152c16.4639 -16.4639 35.916 -20.7109 45.1006 -21.7832l3.23047 -0.376953
c-1.33789 -34.5898 -1.12695 -27.1699 -1.33789 -34.5898c5.71875 -0.418945 7.62109 -0.529297 10.2031 -0.557617c-0.0488281 5.08887 -0.0751953 9.6875 -0.0751953 13.8613c0 7.85645 0.0439453 12.0859 0.335938 21.1533
c9.51562 0.797852 30.8955 2.59082 50.8682 22.5645c2.81348 2.8125 4.59277 4.5918 10.1895 12.4199c11.1816 -8.07617 16.8887 -12.1729 24.8613 -17.8428c2.48535 3.47754 3.59277 5.14258 5.54688 8.55762c-8.69531 6.76953 -14.4375 10.9941 -25.5713 17.9717
c2.92676 6.81348 7.39355 17.21 7.39355 32.5068c0 17.042 -5.85645 30.3369 -9.06836 36.3438l-1.53125 2.8623c0.261719 0.166992 17.0518 10.8027 26.2822 16.4521c-1.84473 3.01074 -2.90918 4.59082 -4.8291 7.17383
c-14.3125 -8.29102 -17.1611 -9.94238 -26.375 -16.2871c-3.27246 3.9707 -4.50488 5.4668 -7.19531 8.15723c-17.5352 17.5352 -38.208 21.3906 -48.1729 22.1729l-3.06641 0.240234c-0.625 12.5684 -0.818359 19.0098 -0.818359 26.2988
c0 2.28223 0.0253906 4.24707 0.0605469 5.98633l-9.02441 -0.214844c-0.148438 -5.38672 -0.205078 -10.3223 -0.205078 -15.1016c0 -3.47461 0 -5.95312 0.186523 -17.2148c-8.47656 -1.12793 -28.5332 -3.7959 -46.9961 -22.1816l-2.41211 -2.40137
c-12.5762 11.9443 -17.8281 16.4434 -25.1699 22.1855zM516 435c-36.0156 0.0214844 -66.9307 29.5947 -66.9307 67.2246c0 37.1064 30.1201 67.2256 67.2266 67.2256c37.1006 0 67.2246 -30.1143 67.2246 -67.2139c-0.15918 -37.1133 -30.4131 -67.2363 -67.5205 -67.2363z
M508.865 105.444h-0.149414c-12.2109 0 -29.1748 6.96289 -37.7949 15.6113c-17.666 17.7227 -20.9102 45.5107 -8.27734 70.9443c4.27734 8.61133 9.28711 17.0283 14.2217 25.1113c2.61133 4.27734 5.2002 8.62402 7.66699 12.9443l17.667 30.9443l0.833008 1.61133
c3.9248 7.59277 4.88867 9.5 7.11133 9.5h1.05566c1.88867 0 3.10156 -3.1709 4.72168 -6.72266c0.27832 -0.610352 0.530273 -1.14844 0.666992 -1.38867l27.3887 -48.0557c1.93457 -3.39453 3.93848 -6.74316 6.16699 -10
c3.9248 -5.73535 9.35059 -15.5664 12.1113 -21.9443c0.666016 -1.62988 1.21582 -3.30273 1.72168 -5c1.30859 -4.3916 2.37012 -11.6748 2.37012 -16.2578c0 -26.0752 -20.9639 -50.3408 -46.4258 -55.9639c-3.01562 -0.666016 -7.9668 -1.33398 -11.0557 -1.33398z
M510.144 264.111c0 0 -1.63477 -3.23926 -2.11133 -4.16699l-1 -1.94434l-17.667 -30.833c-2.51074 -4.38281 -5.14648 -8.7002 -7.77734 -13.0557c-4.83301 -8 -9.85938 -16.2656 -14 -24.667c-11.5557 -23.4443 -8.72168 -48.665 7.16699 -64.4443
c7.82031 -7.7666 23.1133 -14.0703 34.1357 -14.0703c2.75098 0 7.15723 0.521484 9.86426 1.01465c23.2812 4.24219 42.1768 26.8916 42.1768 50.5566c0 4.28125 -1.1123 11.0488 -2.28809 15.166c-0.444336 1.55566 -0.962891 3.07422 -1.55566 4.55566
c-2.6543 6.09961 -8.02734 15.3945 -11.6113 21c-2.16699 3.38867 -4.3457 6.77051 -6.33301 10.2217l-27.3887 47.5557c-0.167969 0.291992 -0.438477 1.125 -0.889648 1.88867zM406.199 348h199.801v-6h-199.801v6z" />
  </g>

</svg>
