<?xml version="1.0" standalone="no"?>
<!DOCTYPE svg PUBLIC "-//W3C//DTD SVG 1.1//EN" "http://www.w3.org/Graphics/SVG/1.1/DTD/svg11.dtd" >
<svg xmlns="http://www.w3.org/2000/svg" xmlns:xlink="http://www.w3.org/1999/xlink" version="1.1" viewBox="-10 0 1051 1000">
  <g transform="matrix(1 0 0 -1 0 800)">
   <path fill="currentColor"
d="M271 608l-12 60c128.725 89.7881 355.203 55.3633 442.457 48.5605c0 -0.0107422 0.000976562 -0.0214844 0.000976562 -0.0322266c27.4463 0.582031 75.1855 -1.32129 107.268 -33.4033c40.1396 -40.1396 38.6152 -108.841 37.5254 -169.365
c-0.395508 -21.9258 -0.433594 -33.2402 -0.22168 -41.9463c26.3789 -43.8281 72.168 -89.959 89.3252 -129.607c6.95117 -16.0635 5.49219 -24.7637 2.64551 -40.2051l-12 -14l-79.501 -63.5771v-212.431c1.93945 -31.0869 1.82422 -79.2412 -27.416 -108.48
c-26.0322 -26.0322 -182.507 -12.0195 -220.584 -13.0049l-2.90137 0.0126953c-103.732 -7.2998 -296.108 50.6025 -326.603 92.1719c-18.5059 25.2275 -31.4014 41.2529 -57.9951 55.3086v70.0371c25.8174 -16.2627 49.624 -17.8066 70.1904 -60.6357
c44.2188 -92.082 349.455 -105.734 451.309 -108.438l-0.499023 -0.962891c50 12 34.1514 4.48145 42.5352 13.5361c19.1768 20.7119 3.97852 41.9688 5.50781 57.9648h-0.541992v2.14941c-0.253906 0.990234 -0.500977 1.94141 -0.738281 2.84863h0.738281v207.174v3.4873
v1.33887h1.58203l104 88h1.13281c4.9834 45.8955 -62.8379 92.1289 -94.2158 139.501l-3 4l-1 1c-2.02051 3.99219 0.0439453 4.02539 -2.08398 11.5605c-0.0371094 0.130859 -0.189453 0.24707 -0.174805 0.367188l0.258789 2.07227l0.0644531 1.49902
c0.00976562 0.226562 0.150391 3.89551 0.242188 6.24414c3.11426 79.1523 14.1973 176.389 -74.8154 176.771c-136.35 16.7461 -373.536 9.53418 -431.49 -46.5137zM30.3545 728.521h55.5146l17.1611 52.2256l17.1602 -52.2256h55.5156l-44.8672 -32.2959l17.1611 -52.2246
l-44.9697 32.2959l-44.9707 -32.2959l17.1611 52.2246zM526.205 417.889c24.3545 0 49.3467 13.5137 56.958 40.4307l1.0166 3.5957l15.54 -4.35156c-2.33594 -8.39941 -5.83301 -20.9746 -18.3584 -33.501c-14.5322 -14.5322 -35.0381 -21.9824 -55.3857 -21.9824
c-19.3516 0 -38.5596 6.73828 -52.3516 20.5303c-12.8428 12.8438 -16.166 26.3799 -18.3193 35.1533l15.5957 3.58594c2.00488 -7.71973 4.61133 -17.7568 14.3867 -27.5322c10.6758 -10.6758 25.7266 -15.9287 40.9189 -15.9287h-0.000976563zM398.751 463.166
c0 58.5264 57.8691 106.25 129.249 106.25c71.3857 0 129.25 -47.6436 129.25 -106.166c0 -58.5254 -57.8691 -106.25 -129.25 -106.25c-71.3857 0 -129.249 47.6445 -129.249 106.166zM414.583 463.25c0 -49.8848 51.0635 -90.418 113.417 -90.418
c62.3506 0 113.418 40.4473 113.418 90.334c0 49.8848 -51.0635 90.418 -113.418 90.418c-62.3496 0 -113.417 -40.4482 -113.417 -90.334zM182.2 501.25l57 -0.299805v0h2.7002l-3.30078 -182.4v-10.7998h-12.2998l-46.2002 0.299805v10.7998l46.2002 -0.299805
l3.90039 172.8l-48 0.300781v9.59961zM449.42 82.8477v18.333h27.5898v22.1914h-27.5898v18.333h27.5898v24.082h15.9883v-24.082h23.0137v22.3242h15.9883v-22.3242h29.4941v-18.333h-29.4941v-22.1914h29.4941v-18.333h-29.4941v-25.8477h-15.9883v25.8477h-23.0137
v-24.0898h-15.9883v24.0898h-27.5898zM504.399 186.788l-54.1631 98.0508l11.2627 4.75781l43.2412 -74.2773l39.4219 75.0068l13.417 -5.43359zM516.012 123.372h-23.0137v-22.1914h23.0137v22.1914z" />
  </g>

</svg>
