<?xml version="1.0" standalone="no"?>
<!DOCTYPE svg PUBLIC "-//W3C//DTD SVG 1.1//EN" "http://www.w3.org/Graphics/SVG/1.1/DTD/svg11.dtd" >
<svg xmlns="http://www.w3.org/2000/svg" xmlns:xlink="http://www.w3.org/1999/xlink" version="1.1" viewBox="-10 0 1008 1000">
  <g transform="matrix(1 0 0 -1 0 800)">
   <path fill="currentColor"
d="M332.481 97.6934l-82.2217 148.848l24.0225 10.1475l58.4395 -100.383l53.3027 101.418l27.2285 -11.0254zM249.568 -67.707v34.6641h38.626v22.0713h-38.626v34.6641h38.626v33.7148h31.3828v-33.7148h23.2197v31.2539h31.3828v-31.2539h41.292v-34.6641h-41.292
v-22.0713h41.292v-34.6641h-41.292v-36.1855h-31.3828v36.1855h-23.2197v-33.7246h-31.3828v33.7246h-38.626zM319.577 -33.043h23.2197v22.0713h-23.2197v-22.0713zM764.659 223.904c-0.529297 0 -0.985352 0.173828 -1.32227 0.358398l-214.094 -88.2627v-37.8242
c12.126 5.10742 24.251 10.2148 36.376 15.3213v-3.77051l-0.21875 -161.659h318.305l0.646484 155.446c10.9619 -6.48535 21.9238 -12.9697 32.8867 -19.4551l-0.677734 40.7051l-136.33 79.1182l1.46387 0.616211c-22.6963 11.7715 -24.457 12.7314 -36.2109 19.5508
c-0.288086 -0.102539 -0.56543 -0.144531 -0.824219 -0.144531zM868.594 -16.7148h-248.003l-0.665039 144.662l142.009 59.8174l107.859 -63.8086zM38.3545 -39.4795h55.5146l17.1611 52.2256l17.1602 -52.2256h55.5156l-44.8672 -32.2959l17.1611 -52.2246
l-44.9697 32.2959l-44.9707 -32.2959l17.1611 52.2246zM432.724 624c0 72.2344 -58.6309 130.862 -130.861 130.862c-72.2334 0 -130.862 -58.6309 -130.862 -130.862c0 -60.8916 41.9717 -112.739 99.2422 -126.989c-8.47168 6.60449 -19.9854 19.8398 -19.9854 42.9902
c-0.000976563 56.708 69.6318 70.8789 101.87 38.6416c19.8916 -19.8916 20.5273 -53.4355 2.72168 -74.3213c14.8291 6.58203 28.2129 15.8418 39.5293 27.1582c23.6895 23.6885 38.3457 56.4072 38.3457 92.5205zM452.944 624.003
c0 -83.4102 -67.6904 -151.083 -151.082 -151.083c-83.3965 0 -151.083 67.6777 -151.083 151.083c0 83.3076 67.7773 151.081 151.083 151.081c83.4062 0 151.082 -67.6846 151.082 -151.081zM347.529 539.933l1.63965 0.0292969l0.00585938 0.00683594l-0.834961 0.803711
l-0.814453 -0.835938c0.00195312 0 0.00195312 -0.00390625 0.00390625 -0.00390625zM347.397 541.68l-0.823242 0.792969l0.777344 0.00976562c-0.549805 8.13867 -3.81445 16.0938 -9.78906 22.0684c-19.9531 19.9541 -67.083 13.2568 -67.083 -24.5645
c0.0117188 -37.7949 47.1172 -44.4893 67.082 -24.5244c5.93262 5.93164 9.18945 13.8096 9.77637 21.8789c-0.40332 -0.00488281 -0.685547 -0.0078125 -0.700195 -0.0078125l0.748047 0.777344c0.0615234 1.18848 0.0654297 2.37988 0.0117188 3.56934zM804.724 630
c0 72.2344 -58.6309 130.862 -130.861 130.862c-72.2334 0 -130.862 -58.6309 -130.862 -130.862c0 -60.8916 41.9717 -112.739 99.2422 -126.989c-8.47168 6.60449 -19.9854 19.8398 -19.9854 42.9902c-0.000976563 56.708 69.6318 70.8789 101.87 38.6416
c19.8916 -19.8916 20.5273 -53.4355 2.72168 -74.3213c14.8291 6.58203 28.2129 15.8418 39.5293 27.1582c23.6895 23.6885 38.3457 56.4072 38.3457 92.5205zM824.944 630.003c0 -83.4102 -67.6904 -151.083 -151.082 -151.083
c-83.3965 0 -151.083 67.6777 -151.083 151.083c0 83.3076 67.7773 151.081 151.083 151.081c83.4062 0 151.082 -67.6846 151.082 -151.081zM719.529 545.933l1.63965 0.0292969l0.00585938 0.00683594l-0.834961 0.803711l-0.814453 -0.835938
c0.00195312 0 0.00195312 -0.00390625 0.00390625 -0.00390625zM719.397 547.68l-0.823242 0.792969l0.777344 0.00976562c-0.549805 8.13867 -3.81445 16.0938 -9.78906 22.0684c-19.9531 19.9541 -67.083 13.2568 -67.083 -24.5645
c0.0117188 -37.7949 47.1172 -44.4893 67.082 -24.5244c5.93262 5.93164 9.18945 13.8096 9.77637 21.8789c-0.40332 -0.00488281 -0.685547 -0.0078125 -0.700195 -0.0078125l0.748047 0.777344c0.0615234 1.18848 0.0654297 2.37988 0.0117188 3.56934z" />
  </g>

</svg>
