<?xml version="1.0" standalone="no"?>
<!DOCTYPE svg PUBLIC "-//W3C//DTD SVG 1.1//EN" "http://www.w3.org/Graphics/SVG/1.1/DTD/svg11.dtd" >
<svg xmlns="http://www.w3.org/2000/svg" xmlns:xlink="http://www.w3.org/1999/xlink" version="1.1" viewBox="-10 0 1020 1000">
  <g transform="matrix(1 0 0 -1 0 800)">
   <path fill="currentColor"
d="M30.3242 741.553h55.5146l17.1611 52.2256l17.1602 -52.2256h55.5156l-44.8672 -32.2959l17.1611 -52.2246l-44.9697 32.2959l-44.9707 -32.2959l17.1611 52.2246zM271 608l-12 60c128.725 89.7881 355.203 55.3633 442.457 48.5605
c0 -0.0107422 0.000976562 -0.0214844 0.000976562 -0.0322266c27.4463 0.582031 75.1855 -1.32129 107.268 -33.4033c40.1396 -40.1396 38.6152 -108.841 37.5254 -169.365c-0.395508 -21.9258 -0.433594 -33.2402 -0.22168 -41.9463
c26.3789 -43.8281 72.168 -89.959 89.3252 -129.607c6.95117 -16.0635 5.49219 -24.7637 2.64551 -40.2051l-12 -14l-79.501 -63.5771v-212.431c1.93945 -31.0869 1.82422 -79.2412 -27.416 -108.48c-26.0322 -26.0322 -182.507 -12.0195 -220.584 -13.0049
l-2.90137 0.0126953c-103.732 -7.2998 -296.108 50.6025 -326.603 92.1719c-18.5059 25.2275 -31.4014 41.2529 -57.9951 55.3086v70.0371c25.8174 -16.2627 49.624 -17.8066 70.1904 -60.6357c44.2188 -92.082 349.455 -105.734 451.309 -108.438l-0.499023 -0.962891
c50 12 34.1514 4.48145 42.5352 13.5361c19.1768 20.7119 3.97852 41.9688 5.50781 57.9648h-0.541992v2.14941c-0.253906 0.990234 -0.500977 1.94141 -0.738281 2.84863h0.738281v207.174v3.4873v1.33887h1.58203l104 88h1.13281
c4.9834 45.8955 -62.8379 92.1289 -94.2158 139.501l-3 4l-1 1c-2.02051 3.99219 0.0439453 4.02539 -2.08398 11.5605c-0.0371094 0.130859 -0.189453 0.24707 -0.174805 0.367188l0.258789 2.07227l0.0644531 1.49902
c0.00976562 0.226562 0.150391 3.89551 0.242188 6.24414c3.11426 79.1523 5.19727 173.389 -83.8154 173.771c-136.35 16.7461 -373.536 9.53418 -431.49 -46.5137zM631.416 142.338c4.55176 -7.71387 2.98926 -15.7891 -1.97949 -20.7578
c-10.5859 -10.5859 -31.7607 -6.8418 -30.4287 12.9336c0.166016 2.46289 0.629883 5.19336 2.15723 7.71777c0.507812 2.90527 0.37793 18.7256 -0.140625 45.7158c-25.1016 -3.41406 -29.5674 0.333984 -32.0186 2.78516
c-5.70703 5.70703 -5.81445 19.2949 0.21582 25.3262c4.25879 4.25781 11.3955 4.49023 17.7158 -2.81641c1.29492 -1.29395 10.6328 -3.94238 12.1211 0.316406c2.07422 221.807 2.07422 221.807 2.13867 222.472c0.0410156 0.423828 4.44922 35.4189 10.3613 41.3311
c2.80566 2.80566 7.1543 2.59375 9.64551 0.102539c2.16309 -2.16309 2.91797 -4.86523 10.2334 -32.9785v-0.270508c0.991211 -185.939 1.22754 -230.404 2.33887 -231.516c0.423828 -0.422852 1.55176 -1.19727 5.64453 -1.25879
c7.98438 -0.120117 7.18555 5.18848 13.8164 7.34668c5.5166 1.79492 14.5117 -1.48047 14.9004 -14.1738c0.078125 -2.53223 0.0214844 -9.91797 -5.35352 -14.7812c-1.55762 -1.41016 -5.93359 -5.15234 -31.1816 -1.89844
c0.549805 -15.8105 0.639648 -21.1182 -0.657227 -35.0254c-0.681641 -7.29883 -0.624023 -8.71387 0.470703 -10.5703v0zM616.561 142.387c-0.461914 -7.44531 -5.81348 -8.33984 -2.94531 -11.207c1.375 -1.37598 3.85742 -1.67676 5.33008 -0.204102
c2.72656 2.72656 -1.40918 3.65723 -2.38477 11.4111v0zM653.376 201.064c-0.0458984 -0.03125 -0.298828 -0.0615234 -0.344727 -0.0917969c0.132812 0.0283203 0.249023 0.0595703 0.344727 0.0917969zM609.417 203.184
c1.26953 -0.387695 3.98828 -1.63281 4.98633 -5.78809c1.63477 -6.79785 -0.0517578 -33.9717 1.95996 -50.6396c0.149414 7.47461 2.29102 17.3652 1.45312 35.2832c-0.632812 13.5303 -0.78125 16.7148 1.79492 19.292
c0.993164 0.992188 2.14746 1.49707 3.44727 1.70215c-1.48828 1.56055 -2.70605 3.59766 -3.10547 6.13379c-0.816406 5.16309 -1.31445 8.46875 -2.00391 144.689c0 0.881836 -0.00195312 72.1113 -1.50195 88.1621
c-2.35254 -18.0293 -2.43555 -46.4697 -2.44727 -124.019c-0.0078125 -45.2314 -0.139648 -60.8594 -0.457031 -89.4336c-0.119141 -10.7305 -0.0839844 -16.333 -0.919922 -19.3457c-0.428711 -1.5459 -1.32422 -3.83398 -3.20605 -6.03711v0zM579.133 201.106
c0.0117188 -0.0634766 0.0234375 -0.120117 0.0351562 -0.168945c-0.0117188 0.0078125 -0.0234375 0.160156 -0.0351562 0.168945zM424.416 133.338c4.55176 -7.71387 2.98926 -15.7891 -1.97949 -20.7578c-10.5859 -10.5859 -31.7607 -6.8418 -30.4287 12.9336
c0.166016 2.46289 0.629883 5.19336 2.15723 7.71777c0.507812 2.90527 0.37793 18.7256 -0.140625 45.7158c-25.1016 -3.41406 -29.5674 0.333984 -32.0186 2.78516c-5.70703 5.70703 -5.81445 19.2949 0.21582 25.3262c4.25879 4.25781 11.3955 4.49023 17.7158 -2.81641
c1.29492 -1.29395 10.6328 -3.94238 12.1211 0.316406c2.07422 221.807 2.07422 221.807 2.13867 222.472c0.0410156 0.423828 4.44922 35.4189 10.3613 41.3311c2.80566 2.80566 7.1543 2.59375 9.64551 0.102539c2.16309 -2.16309 2.91797 -4.86523 10.2334 -32.9785
v-0.270508c0.991211 -185.939 1.22754 -230.404 2.33887 -231.516c0.423828 -0.422852 1.55176 -1.19727 5.64453 -1.25879c7.98438 -0.120117 7.18555 5.18848 13.8164 7.34668c5.5166 1.79492 14.5117 -1.48047 14.9004 -14.1738
c0.078125 -2.53223 0.0214844 -9.91797 -5.35352 -14.7812c-1.55762 -1.41016 -5.93359 -5.15234 -31.1816 -1.89844c0.549805 -15.8105 0.639648 -21.1182 -0.657227 -35.0254c-0.681641 -7.29883 -0.624023 -8.71387 0.470703 -10.5703v0zM409.561 133.387
c-0.461914 -7.44531 -5.81348 -8.33984 -2.94531 -11.207c1.375 -1.37598 3.85742 -1.67676 5.33008 -0.204102c2.72656 2.72656 -1.40918 3.65723 -2.38477 11.4111v0zM446.376 192.064c-0.0458984 -0.03125 -0.298828 -0.0615234 -0.344727 -0.0917969
c0.132812 0.0283203 0.249023 0.0595703 0.344727 0.0917969zM402.417 194.184c1.26953 -0.387695 3.98828 -1.63281 4.98633 -5.78809c1.63477 -6.79785 -0.0517578 -33.9717 1.95996 -50.6396c0.149414 7.47461 2.29102 17.3652 1.45312 35.2832
c-0.632812 13.5303 -0.78125 16.7148 1.79492 19.292c0.993164 0.992188 2.14746 1.49707 3.44727 1.70215c-1.48828 1.56055 -2.70605 3.59766 -3.10547 6.13379c-0.816406 5.16309 -1.31445 8.46875 -2.00391 144.689c0 0.881836 -0.00195312 72.1113 -1.50195 88.1621
c-2.35254 -18.0293 -2.43555 -46.4697 -2.44727 -124.019c-0.0078125 -45.2314 -0.139648 -60.8594 -0.457031 -89.4336c-0.119141 -10.7305 -0.0839844 -16.333 -0.919922 -19.3457c-0.428711 -1.5459 -1.32422 -3.83398 -3.20605 -6.03711v0zM372.133 192.106
c0.0117188 -0.0634766 0.0234375 -0.120117 0.0351562 -0.168945c-0.0117188 0.0078125 -0.0234375 0.160156 -0.0351562 0.168945z" />
  </g>

</svg>
