<?xml version="1.0" standalone="no"?>
<!DOCTYPE svg PUBLIC "-//W3C//DTD SVG 1.1//EN" "http://www.w3.org/Graphics/SVG/1.1/DTD/svg11.dtd" >
<svg xmlns="http://www.w3.org/2000/svg" xmlns:xlink="http://www.w3.org/1999/xlink" version="1.1" viewBox="-10 0 914 1000">
  <g transform="matrix(1 0 0 -1 0 800)">
   <path fill="currentColor"
d="M164.282 -84.7871zM370.609 -79.4336v263.013l80.8701 -0.34668l63.0254 -53.1484c1.23047 24.1914 1.23047 24.1914 2.20801 54.5l190.772 -2.45117v-66.4404l-54.499 -59.7695l32.7266 -4.33887c8.66699 1.33301 17.333 2.66699 26 4l-4.22754 -136.465zM726 -108
c4.71582 0 8.54785 3.82812 8.57422 8.39453l-1.86133 158.189c12.9092 -1.84375 12.9092 -1.84375 53.0537 -4.08301l-51.1943 59.6084v86.5381c0 4.71973 -3.81641 8.49805 -8.24219 8.54785l-211.617 -4.61133c-2.01074 37.2061 -2.01074 37.2061 -4.71582 58.1729
l-57.9854 -52.4619l-3.87793 0.015625s-96.001 0.388672 -96.042 0.388672c-4.71777 0 -8.57227 -3.83398 -8.57227 -8.54297v-300.105c0 -4.69922 3.84863 -8.54199 8.54199 -8.54199c0 0 373.897 -1.50879 373.938 -1.50879zM59.3857 -5.2666h55.5146l17.1611 52.2256
l17.1602 -52.2256h55.5156l-44.8672 -32.2959l17.1611 -52.2246l-44.9697 32.2959l-44.9707 -32.2959l17.1611 52.2246zM649.521 419.268c-9.46582 0 -9.46582 0 -62.7129 0.488281l0.0693359 0.374023h-3.7373l3.32031 203.1l-73.6006 40.4473v11.6748l69.252 -39.5293
c3.86816 -0.00878906 7.91504 0.00292969 12.2461 0.0263672l-47.707 89.7383h13.5518l47.6621 -89.6494l1.99609 0.0146484l0.765625 122.99h15.5674l-0.765625 -122.911c1.51758 0 3.03418 0.00195312 4.55176 0.00195312l51.6113 97.9893h13.5479l-51.1143 -97.042
l63.4414 25.5v-11.8926c-17.208 -7.6084 -34.3926 -15.2393 -51.6152 -22.833l-9.51758 -2.26562l1.66602 -55.4893l13.6865 7.95605l2.98828 -19.4297l-16.0381 -9.76074l3.95117 -131.573c-1.02344 0.692383 -2.04492 1.38477 -3.06641 2.0752zM634.375 434.07
l-4.75879 190.31h-2.45703l2.85449 -190.31h4.36133zM607.938 434.53v190.391l-2.83789 0.333984l-0.950195 -191.111zM165.893 478.463v24.4443h36.7871v29.5889h-36.7871v24.4443h36.7871v32.1094h21.3184v-32.1094h30.6836v29.7656h21.3184v-29.7656h39.3262v-24.4443
h-39.3262v-29.5889h39.3262v-24.4443h-39.3262v-34.4629h-21.3184v34.4629h-30.6836v-32.1191h-21.3184v32.1191h-36.7871zM239.199 617.051l-72.2178 130.734l15.0176 6.34375l57.6543 -99.0361l52.5625 100.009l17.8896 -7.24414zM254.682 532.496h-30.6836v-29.5889
h30.6836v29.5889z" />
  </g>

</svg>
