<?xml version="1.0" standalone="no"?>
<!DOCTYPE svg PUBLIC "-//W3C//DTD SVG 1.1//EN" "http://www.w3.org/Graphics/SVG/1.1/DTD/svg11.dtd" >
<svg xmlns="http://www.w3.org/2000/svg" xmlns:xlink="http://www.w3.org/1999/xlink" version="1.1" viewBox="-10 0 1010 1000">
  <g transform="matrix(1 0 0 -1 0 800)">
   <path fill="currentColor"
d="M209 323v23h99v26h-99v23h125l1 -73zM134 292c32 0 82 -11 134 -63c15 15 71 71 142 67c13 -1 30 -5 44 -11v210c-24 13 -93 38 -173 -52c-4 -4 -5 -7 -9 -11c-14 15 -16 16 -21 21c-79 79 -148 52 -168 42v-212c16 5 36 9 51 9zM65 514c21 12 110 53 206 -44
c16 16 75 74 154 61c10 -2 33 -7 52 -21l3 -2v-271c-7 6 -14 10 -21 16c-5 4 -82 59 -181 -51c0 0 0 -1 -10 -11c-14 15 -14 17 -19 22c-88 88 -167 42 -172 39c-6 -4 -14 -9 -20 -13v270l7 5h1zM803 353c0 3 -2 10 -4 13c-3 2 -11 5 -14 5c-10 0 -18 -7 -25 -14
c-3 -3 -6 -5 -10 -5c-6 0 -10 3 -13 6c-1 1 -10 10 -16 12c-3 1 -4 1 -6 1c-3 0 -11 -3 -14 -5c-1 -2 -2 -3 -5 -15c0 -4 3 -13 13 -23l41 -40l41 40c4 4 12 13 12 25zM697 438c1 -9 0 -22 -1 -36c13 5 32 6 53 -9c14 10 25 13 36 13c15 0 31 -9 38 -16
c15 -15 28 -51 -8 -87c-43 -42 -49 -47 -50 -48c-9 -8 -22 -8 -31 0l-46 45c-2 -18 -4 -36 -4 -50c0 -6 -1 -31 4 -33c1 0 1 0 1 -1c15 -158 165 -307 173 -310h-1h-1v-1l3 -1l-28 -19c-3 3 -5 5 -12 13c-57 62 -119 129 -167 292c-13 -77 -61 -162 -104 -217
c-28 -35 -38 -60 -63 -88l-33 26c20 25 33 42 50 66c10 13 18 26 28 39c118 154 121 359 120 462l34 -1c3 0 8 -2 8 -11c0 -3 0 -15 1 -28zM967 717v-38l-154 -1v-136c-88 47 -175 94 -263 141c-1 0 -13 8 -13 8c-3 2 -18 14 -19 14h2l-14 10c30 0 43 1 461 2z" />
  </g>

</svg>
