<?xml version="1.0" standalone="no"?>
<!DOCTYPE svg PUBLIC "-//W3C//DTD SVG 1.1//EN" "http://www.w3.org/Graphics/SVG/1.1/DTD/svg11.dtd" >
<svg xmlns="http://www.w3.org/2000/svg" xmlns:xlink="http://www.w3.org/1999/xlink" version="1.1" viewBox="-10 0 1051 1000">
  <g transform="matrix(1 0 0 -1 0 800)">
   <path fill="currentColor"
d="M828.399 483.872c0 9.49878 0.360099 25.4826 0.360099 28.905l-0.318652 61.3747l-8.69455 54.78l-24.0577 41.7601l-29.8355 19.1251l-33.9409 8.02542l-47.9505 1.85133v0.765382l-107.704 8.96128l-161.614 -4.8437l-135.511 -48.0118l4.97421 -24.8711
l90.1513 34.2037l168.519 13.9909l163.859 -8.05849l72.0585 -32.0852l24.6852 -76.5829c-11.2968 -92.7231 -11.5388 -94.7093 -10.6225 -98.1968c0.272553 -1.03738 0.408327 -1.98777 0.495372 -2.92219c0.487753 -0.641757 1.13403 -1.58506 1.4862 -2.05622
l30.4464 -40.7334l38.0432 -60.0682l23.93 -33.502l-96.7113 -80.2498l-3.19974 -219.288c0.962733 -7.56244 2.78458 -22.0112 5.01798 -45.877c-0.12894 -0.269919 -9.65147 -20.9678 -12.8349 -27.02c-1.80565 -3.43278 -3.36365 -6.39475 -8.94453 -11.1259
c-28.726 -6.87192 -37.6748 -9.01268 -53.7943 -9.01268c-3.38415 0 -6.77838 0.14333 -10.1737 0.446144l-127.95 -3.2205l-189.706 31.9736l-119.91 72.0259l-21.8729 31.5454c-0.18608 0.126152 -14.9542 10.3475 -18.5829 12.6523v-31.4635
c5.41685 -3.87145 13.5068 -7.36272 24.4398 -17.2503c7.32645 -6.62591 2.09556 -4.45645 10.6241 -11.9264c1.03002 -0.902171 1.03002 -0.902171 17.2005 -21.8062l70.2643 -41.1391l123.979 -35.7692l40.8353 -3.74581
c52.8258 -4.90757 59.0669 -6.73248 83.0467 -7.42728l68.08 -1.97257l89.7606 0.254271l51.1066 12.4914l15.1376 25.2075l6.27671 34.16l-0.268638 82.9487l0.0291888 84.2282l-0.00582149 87.5189l84.7837 67.8016l7.68593 8.96692l1.11464 7.19504
c0.44913 7.61262 -1.52476 12.8022 -3.31214 18.1783l-23.3304 38.8443l-33.0243 43.448l-34.3179 48.9016c-0.202711 16.1296 -0.202711 16.1296 -0.202711 17.6951zM33.2949 712.521h55.5146l17.1611 52.2256l17.1602 -52.2256h55.5156l-44.8672 -32.2959
l17.1611 -52.2246l-44.9697 32.2959l-44.9707 -32.2959l17.1611 52.2246zM111.349 217.317v23.832h35.8672v28.8496h-35.8672v23.833h35.8672v31.3066h20.7842v-31.3066h29.918v29.0215h20.7852v-29.0215h38.3418v-23.833h-38.3418v-28.8496h38.3418v-23.832h-38.3418
v-33.6025h-20.7852v33.6025h-29.918v-31.3174h-20.7842v31.3174h-35.8672zM182.822 352.439l-70.4121 127.466l14.6416 6.18555l56.2139 -96.5605l51.248 97.5088l17.4424 -7.06348zM197.918 269.999h-29.918v-28.8496h29.918v28.8496zM485.158 406.204l49.4219 -49.1396
l51.3447 49.1133l15.8799 -13.7354l-51.2461 -51.7549l56.0049 -51.4795l-15.4092 -12.8359l-55.3047 50.9102l-50.7588 -51.6621l-14.5088 15.8662l49.5879 50.4287l-48.9688 50.9385zM653.21 257.605zM412.658 419.44zM367.735 336.739zM542.768 228.61zM542.451 218.567z
M408.716 255.911zM485.814 231.656zM696.118 355.438zM367.735 336.739zM696.118 355.438zM702.039 361.073c3.10254 -9.39453 5.09961 -19.5615 7.70801 -29.3018l1.81836 -0.0292969c-1.38281 -29.1836 -1.90332 -40.1729 -49.292 -77.6191
c-35.2617 -27.8633 -61.0771 -37.6768 -119.758 -38.3389c-40.3643 -0.455078 -91.7715 1.05566 -136.839 38.3291c-17.7578 14.6865 -45.9463 43.1113 -45.6855 75.4014h-1.2627c1.37988 5.17578 1.37988 5.17578 1.51172 9.15039l0.924805 -0.015625l3.95703 14.8398
h-1.7373c0.901367 1.22363 1.80469 2.44922 2.70605 3.67383v4.1709h3.06934l44.8145 60.8906h1.42188c15.5049 36.2578 74.9062 53.7236 97.9785 25.6377c3.27539 -1.4707 18.1328 -7.39941 33.7773 -1.69629c8.05762 10.7861 30.6992 21.1943 56.1787 15.9102
c24.6445 -5.10938 49.5029 -28.0352 60.4111 -39.1963h0.521484c0.384766 -0.56543 0.647461 -1.21582 1.13184 -1.71191l3.42773 -3.5752l32.7217 -55.915c0.487305 0.0410156 0.873047 0.0107422 0.796875 -0.34375zM382.788 331.474
c-0.542969 -18.6084 1.51465 -40.7383 46.708 -72.373c38.3486 -26.8438 70.125 -28.7725 113.75 -27.6914c50.8281 1.30762 72.0371 7.83984 102.729 32.9209c40.8145 33.3516 47.5771 43.8057 42.6689 63.3984l-6.48926 25.9082l-0.239258 -0.425781
c0.0146484 1.56836 -1.03418 3.5625 -1.02051 5.13086l-36.4189 57.4414c-0.977539 -0.0380859 -0.196289 0.848633 -1.17383 0.810547c-22.543 14.8623 -24.9463 21.3018 -33.3672 26.2686c-12.9668 7.64551 -32.9023 6.10742 -45.5957 -2.55469
c-6.31738 -19.0332 -45.5176 -22.084 -63.582 -4.91992c-1.68262 1.59961 -2.9248 0.709961 -2.76465 2.67188c-19.3086 13.2861 -55.4746 -0.0996094 -65.6943 -24.1699l-1.24023 -2.91797l-2.06543 0.793945l-39.8281 -56.3848z" />
  </g>

</svg>
