<?xml version="1.0" standalone="no"?>
<!DOCTYPE svg PUBLIC "-//W3C//DTD SVG 1.1//EN" "http://www.w3.org/Graphics/SVG/1.1/DTD/svg11.dtd" >
<svg xmlns="http://www.w3.org/2000/svg" xmlns:xlink="http://www.w3.org/1999/xlink" version="1.1" viewBox="-10 0 971 1000">
  <g transform="matrix(1 0 0 -1 0 800)">
   <path fill="currentColor"
d="M723.06 -6.01855c0.714844 0.0292969 45.8965 0.00390625 45.9092 0.0263672c-13.917 58.3721 -10.0068 77.166 -4.93066 93.5439c0.046875 0.147461 3.97461 13.7256 4.50977 14.7959l32.8232 65.6465c-16.7998 260.398 -16.7998 260.398 -16.7051 261.518
c5.51855 65.5137 10.3311 141.932 4.70508 190.882c-14.6289 58.0996 -50.9248 45.8389 -59.4033 27.2559c-2.99609 -6.56738 -6.37207 -7.34082 -15.0879 -9.33691c-6.77246 -6.05957 -17.4277 -4.7334 -22.4951 2.89746
c-6.35156 9.56543 -35.7354 55.0674 -36.5088 56.5791c-10.626 20.8125 -51.6182 33.6162 -59.4521 -7.58301c-0.283203 -1.48926 -0.283203 -1.48926 -14.2754 -35.5947c-5.21289 -12.7051 -23.5908 -12.1768 -28.0566 0.814453l-26.3203 76.5684
c-7.03711 20.4688 -50.9385 36.8145 -74.1309 -1.94824c-0.427734 -1.27637 -3.55957 -10.7705 -20.4834 -63.8506c-3.67871 -11.5381 -19.0332 -14.1748 -26.3301 -4.37012c-21.6494 29.0898 -21.6494 29.0898 -22.0312 29.4717
c-0.142578 0.144531 -24.7256 24.6865 -38.6533 10.7588c-7.62695 -7.62695 -11.9404 -26.2461 -13.8408 -37.6641c0.0546875 -1.71191 0.394531 -11.8164 2.27051 -60.8242c1.11621 -30.5186 2.47363 -95.7373 2.50195 -96.7041
c8.92676 -63.6221 4.79785 -65.6084 9.43945 -99.6484c0.338867 -1.30957 2.91211 -11.2295 16.2803 -61.835c0.130859 -0.496094 1.35254 -28.8281 -2.52344 -35.417c-9.5293 -16.1992 -10.1904 -17.3242 -16.4775 -18.7637
c-24.8818 -5.70117 -32.7549 -0.689453 -41.168 10.9844c-4.32715 6.00488 -33.7607 35.5029 -36.7197 38.917l-61.6787 71.1689c-1.66797 1.10254 -10.2266 6.70996 -35.9775 23.0215c-1.50488 0.456055 -8.71289 2.60938 -30.4775 8.70312
c-6.08496 -3.33887 -13.3389 -1.32617 -18.8428 -6.82812c-3.99219 -3.99316 -8.59766 -17.3682 -7.13281 -24.9424l34.0283 -45.7646c6.55566 -6.14453 41.3906 -36.5098 43.0977 -38.5723c50.8496 -61.4932 50.8496 -61.4932 51.0947 -61.8252
c36.9551 -50.0674 36.9551 -50.0674 37.2324 -50.502c33.3223 -52.3662 33.3223 -52.3662 33.7939 -53.458l25.7363 -59.6611c7.11035 -11.0225 34.5977 -52.4951 35.333 -53.8936c11.5801 -22.0029 11.5801 -22.0029 12.0166 -23.832
c8.61719 -36.1084 69.6426 -37.9062 70.4424 -37.9209l66.751 -1.19141zM768.972 -36h-44.9717c-202.319 -8.40332 -202.319 -8.40332 -202.769 -8.39551l-67.2305 1.20117c-10.6748 0.200195 -83.5498 3.6084 -98.5498 58.9717l-9.55078 18.1455
c-34.9512 53.0215 -34.3574 51.2656 -36.4717 56.168l-25.458 59.0156l-31.7695 49.9238l-36.0977 48.9053l-49.5713 59.9482c-42.585 37.7158 -42.585 37.7158 -44.4561 40.2314l-34.7998 46.7998c-12.415 16.6953 -3.74805 49.2744 10.4404 63.4629
c8.31836 8.31934 16.1631 10.8604 27.793 13.001c6.43359 2.87598 13.6738 3.37402 20.3867 1.49512c31.6611 -8.86523 32.3496 -8.39746 37.9141 -11.9219c33.9746 -21.5176 36.5518 -22.3301 41.418 -27.1953c0.567383 -0.568359 -0.729492 -1.75488 63.0986 -72.7188
c33.2559 -36.9746 34.5537 -35.7881 39.3291 -42.2598c0.789062 0.0712891 1.87207 0.205078 3.23926 0.427734l1.60742 2.73242l0.717773 17.9326c-15.998 60.5342 -15.8203 58.8613 -16.3623 62.8135c-4.99902 36.3965 -0.602539 36.916 -9.58594 100.697
c-0.137695 0.981445 -1.93457 78.8662 -2.67188 99.0303c-2.39941 62.6641 -2.97363 60.1943 -2.03809 65.9912c2.9209 18.0986 9.65137 59.8115 44.8936 67.2441c29.3018 6.18066 57.7051 -21.3281 61.6025 -26.5654l4.36328 -5.86328
c11.71 37.1543 11.334 36.9072 14.0791 41.5742c36.2705 61.6904 113.373 41.3779 128.634 -3.01465l12.876 -37.459c17.9629 60.3604 90.2148 51.373 113.205 7.85547c0.269531 -0.415039 25.8271 -40.1221 26.79 -41.6055
c25.2168 32.5928 89.0762 38.0889 109.449 -42.8135c0.323242 -1.29004 0.5625 -2.59766 0.713867 -3.91309c6.1416 -53.4473 1.01367 -129.88 -4.52148 -195.747l16.6553 -258.157c0.338867 -5.24609 -0.693359 -10.5645 -3.09668 -15.3701l-32.0957 -64.1914
c-0.922852 -3.57715 -2.00293 -7.15039 -3.42578 -11.7422c-3.99512 -12.8896 -8.21191 -20.3164 5.45898 -77.6465c4.49512 -18.8457 -9.78809 -36.9883 -29.1719 -36.9883zM593.999 128.334h-21.1094v33.5938l-148.319 148.319l15.0098 14.7988l133.31 -133.309v111.191
l-89.0947 89.21l15.0078 14.7969l74.0869 -74.0879v138.818h21.1094v-141.151l75.001 75.001l14.96 -14.96l-89.9609 -89.9609v-108.857l133.31 133.309l15.0098 -14.7988l-148.319 -148.319v-33.5938z" />
  </g>

</svg>
