<?xml version="1.0" standalone="no"?>
<!DOCTYPE svg PUBLIC "-//W3C//DTD SVG 1.1//EN" "http://www.w3.org/Graphics/SVG/1.1/DTD/svg11.dtd" >
<svg xmlns="http://www.w3.org/2000/svg" xmlns:xlink="http://www.w3.org/1999/xlink" version="1.1" viewBox="-10 0 1051 1000">
  <g transform="matrix(1 0 0 -1 0 800)">
   <path fill="currentColor"
d="M271 608l-12 60c128.725 89.7881 355.203 55.3633 442.457 48.5605c0 -0.0107422 0.000976562 -0.0214844 0.000976562 -0.0322266c27.4463 0.582031 75.1855 -1.32129 107.268 -33.4033c40.1396 -40.1396 38.6152 -108.841 37.5254 -169.365
c-0.395508 -21.9258 -0.433594 -33.2402 -0.22168 -41.9463c26.3789 -43.8281 72.168 -89.959 89.3252 -129.607c6.95117 -16.0635 5.49219 -24.7637 2.64551 -40.2051l-12 -14l-79.501 -63.5771v-212.431c1.93945 -31.0869 1.82422 -79.2412 -27.416 -108.48
c-26.0322 -26.0322 -182.507 -12.0195 -220.584 -13.0049l-2.90137 0.0126953c-103.732 -7.2998 -296.108 50.6025 -326.603 92.1719c-18.5059 25.2275 -31.4014 41.2529 -57.9951 55.3086v70.0371c25.8174 -16.2627 49.624 -17.8066 70.1904 -60.6357
c44.2188 -92.082 349.455 -105.734 451.309 -108.438l-0.499023 -0.962891c50 12 34.1514 4.48145 42.5352 13.5361c19.1768 20.7119 3.97852 41.9688 5.50781 57.9648h-0.541992v2.14941c-0.253906 0.990234 -0.500977 1.94141 -0.738281 2.84863h0.738281v207.174v3.4873
v1.33887h1.58203l104 88h1.13281c4.9834 45.8955 -62.8379 92.1289 -94.2158 139.501l-3 4l-1 1c-2.02051 3.99219 0.0439453 4.02539 -2.08398 11.5605c-0.0371094 0.130859 -0.189453 0.24707 -0.174805 0.367188l0.258789 2.07227l0.0644531 1.49902
c0.00976562 0.226562 0.150391 3.89551 0.242188 6.24414c3.11426 79.1523 14.1973 176.389 -74.8154 176.771c-136.35 16.7461 -373.536 9.53418 -431.49 -46.5137zM30.3545 728.521h55.5146l17.1611 52.2256l17.1602 -52.2256h55.5156l-44.8672 -32.2959l17.1611 -52.2246
l-44.9697 32.2959l-44.9707 -32.2959l17.1611 52.2246zM614.449 341.675c1 -17.7549 -6.99219 -72.0732 -3.77148 -78.1221c0.297852 -0.21875 0.890625 -0.766602 0.978516 -1.71777c4.31641 -46.3975 41.7012 -91.0791 56.1914 -105.568
c1.6582 -1.65918 3.02832 -3.0293 6.29102 -5.55273c-2.1543 -0.522461 -2.77539 -0.672852 -2.77734 -0.677734c0.998047 -0.556641 1.99609 -1.11426 2.99414 -1.6709c-3.58887 -2.39258 -7.17676 -4.78516 -10.7666 -7.17871
c-0.96875 -0.645508 -2.29004 -0.504883 -3.09766 0.376953c-0.00195313 0.000976563 -3.90039 4.23145 -3.90039 4.23145c-19.6709 21.2969 -41.2881 44.8037 -58.4004 98.9883c-6.26758 -26.2334 -22.0107 -53.5469 -36.3418 -71.7461
c-8.81152 -11.1914 -16.1533 -25.3945 -22.3086 -31.5479c-0.870117 -0.871094 -2.24316 -0.932617 -3.18457 -0.1875c-11.167 8.84082 -11.167 8.84082 -11.2686 8.94238c-0.862305 0.862305 -0.930664 2.21973 -0.204102 3.16016
c6.41992 8.32422 27.3564 36.9434 27.6377 37.3125c19.3428 25.4092 30.0527 54.6133 35.9404 82.4248l-154.171 -0.84668c-0.0751953 -4.22363 0.126953 -7.24023 0.754883 -8.4209c0.296875 -0.217773 0.890625 -0.766602 0.978516 -1.7168
c4.31543 -46.3975 41.7012 -91.0801 56.1914 -105.569c1.6582 -1.6582 3.02832 -3.02832 6.29004 -5.55176c-2.15332 -0.522461 -2.77441 -0.673828 -2.77637 -0.678711c0.998047 -0.555664 1.99609 -1.11328 2.99414 -1.6709
c-3.58887 -2.3916 -7.17773 -4.78516 -10.7666 -7.17773c-0.96875 -0.645508 -2.29004 -0.505859 -3.09863 0.375977c-0.000976563 0.000976563 -3.90039 4.23242 -3.90039 4.23242c-19.6709 21.2969 -41.2871 44.8027 -58.3994 98.9883
c-6.26758 -26.2334 -22.0107 -53.5469 -36.3418 -71.7471c-8.81152 -11.1904 -16.1543 -25.3945 -22.3086 -31.5479c-0.870117 -0.871094 -2.24316 -0.931641 -3.18457 -0.1875c-11.168 8.84082 -11.168 8.84082 -11.2686 8.94238
c-0.862305 0.862305 -0.930664 2.2207 -0.205078 3.16113c6.4209 8.32324 27.3574 36.9434 27.6387 37.3125c41.4023 54.3857 43.252 126.16 42.9268 164.448c-0.0107422 1.35449 1.09766 2.44922 2.45215 2.41992l11.7197 -0.258789
c0.931641 -0.0205078 4.77637 -0.423828 4.66992 -5.74707c-0.0185547 -0.916992 -0.0957031 -4.83301 0.125 -9.25098l156.669 0.808594c0.0390625 4.17285 0.0283203 8.08984 -0.00195312 11.707c-0.0117188 1.35449 1.09668 2.44922 2.45215 2.41895l11.7197 -0.258789
c0.930664 -0.0195312 4.77539 -0.423828 4.66895 -5.74609c-0.0195312 -0.962891 -0.103516 -5.22461 0.160156 -9.90527zM435.613 292.998l156.332 0.0351562c1.51465 10.7539 2.40137 21.083 2.90723 30.6523h-156.618
c-0.683594 -9.54395 -1.76172 -20.6357 -2.62109 -30.6875zM554 488l-62.8027 100.896l9.67676 9.97949l52.8242 -88.4971l59.499 94.5176l10.8867 -7.55957z" />
  </g>

</svg>
