<?xml version="1.0" standalone="no"?>
<!DOCTYPE svg PUBLIC "-//W3C//DTD SVG 1.1//EN" "http://www.w3.org/Graphics/SVG/1.1/DTD/svg11.dtd" >
<svg xmlns="http://www.w3.org/2000/svg" xmlns:xlink="http://www.w3.org/1999/xlink" version="1.1" viewBox="-10 0 1020 1000">
  <g transform="matrix(1 0 0 -1 0 800)">
   <path fill="currentColor"
d="M30.3242 741.553h55.5146l17.1611 52.2256l17.1602 -52.2256h55.5156l-44.8672 -32.2959l17.1611 -52.2246l-44.9697 32.2959l-44.9707 -32.2959l17.1611 52.2246zM271 608l-12 60c128.725 89.7881 355.203 55.3633 442.457 48.5605
c0 -0.0107422 0.000976562 -0.0214844 0.000976562 -0.0322266c27.4463 0.582031 75.1855 -1.32129 107.268 -33.4033c40.1396 -40.1396 38.6152 -108.841 37.5254 -169.365c-0.395508 -21.9258 -0.433594 -33.2402 -0.22168 -41.9463
c26.3789 -43.8281 72.168 -89.959 89.3252 -129.607c6.95117 -16.0635 5.49219 -24.7637 2.64551 -40.2051l-12 -14l-79.501 -63.5771v-212.431c1.93945 -31.0869 1.82422 -79.2412 -27.416 -108.48c-26.0322 -26.0322 -182.507 -12.0195 -220.584 -13.0049
l-2.90137 0.0126953c-103.732 -7.2998 -296.108 50.6025 -326.603 92.1719c-18.5059 25.2275 -31.4014 41.2529 -57.9951 55.3086v70.0371c25.8174 -16.2627 49.624 -17.8066 70.1904 -60.6357c44.2188 -92.082 349.455 -105.734 451.309 -108.438l-0.499023 -0.962891
c50 12 34.1514 4.48145 42.5352 13.5361c19.1768 20.7119 3.97852 41.9688 5.50781 57.9648h-0.541992v2.14941c-0.253906 0.990234 -0.500977 1.94141 -0.738281 2.84863h0.738281v207.174v3.4873v1.33887h1.58203l104 88h1.13281
c4.9834 45.8955 -62.8379 92.1289 -94.2158 139.501l-3 4l-1 1c-2.02051 3.99219 0.0439453 4.02539 -2.08398 11.5605c-0.0371094 0.130859 -0.189453 0.24707 -0.174805 0.367188l0.258789 2.07227l0.0644531 1.49902
c0.00976562 0.226562 0.150391 3.89551 0.242188 6.24414c3.11426 79.1523 5.19727 173.389 -83.8154 173.771c-136.35 16.7461 -373.536 9.53418 -431.49 -46.5137zM521 45c-0.970703 0 -1.75098 0.788086 -1.75098 1.75l1.67871 48.3203
c-4.88086 5.84277 -9.8877 11.3115 -14.8174 16.6963c-21.7354 23.7393 -42.0762 46.0088 -42.1475 90.9277c-0.0585938 37.4355 13.5586 56.5869 21.1846 64.3438c24.1035 23.5625 55.9238 29.4854 72.4619 29.4854c1.50391 0 3.40625 1.27539 5.3877 1.18262
c48.8809 -2.2998 59.3125 -6.16602 84.2178 -27.8281c3.21484 -2.79688 4.15039 -5.07617 4.56836 -7.22852c0.0751953 -0.388672 0.118164 -0.540039 0.132812 -0.587891c11.4111 -13.168 19.4189 -47.7754 20.04 -57.8398
c0.0419922 -0.682617 0.144531 -1.47559 0.261719 -2.37207c0.333984 -2.53418 0.775391 -5.88281 0.0371094 -10.0977c-10.1543 -57.9961 -37.752 -74.6865 -40.998 -83.7793c-0.176758 -0.496094 -0.339844 -0.578125 -0.410156 -0.648438
c-0.774414 -0.773438 -7.47949 -4.19141 -12.8662 -6.72559c-0.675781 -1.92578 -0.675781 -1.92578 -1.01855 -2.28223c-0.15918 -0.610352 -0.302734 -1.68945 -0.302734 -1.68945l-1 -49.3604c-0.0195312 -0.948242 -0.790039 -1.70801 -1.73926 -1.71387z
M651.842 262.139l-0.115234 0.100586l-1.05762 -1.38184zM646.928 268.381l-1.15723 0.477539l-1.16016 -2.90625zM571.242 284.332c-28.0625 0 -46.3633 -4.9541 -69.6973 -22.2549c-6.15234 -6.15332 -23.2793 -24.6191 -23.3594 -56.6562
c-0.107422 -42.1719 18.2725 -62.0264 28.1445 -71.8994c4.91992 -4.91895 4.91992 -4.91895 5.73438 -6.13672c1.61133 -2.40527 1.61133 -2.40527 12.0645 -13.7363c2.40039 -0.59082 6.07031 -2.10352 9.79199 -5.97266
c2.03613 -2.11621 1.21387 -9.96973 0.837891 -13.5625l-0.334961 -40.8604l64.8398 -0.332031l3.0498 50.1484c0.0283203 0.475586 0.248047 0.916992 0.615234 1.22949c2.1543 1.83594 2.21094 1.88379 3.32715 3c1.10156 1.10254 4.2998 4.22461 7.1123 5.04395
c1.01953 0.295898 2.44043 3.11426 5.39453 5.32324c14.1299 10.5625 35.0439 37.1504 37.6416 75.4707c0.379883 5.60547 -0.486328 11.7217 -1.59277 18.2832c-2.33984 13.8857 -5.77051 33.6191 -16.3281 45.9199c-1.64062 1.35254 -2.13965 1.80176 -9.69629 9.35938
c-13.5195 13.5195 -35.9043 17.6328 -57.5449 17.6328zM551.2 624.15l66.5 -0.349609v0h3.14941l-3.84961 -212.801v-12.5996h-14.3506l-53.8994 0.349609v12.6006l53.8994 -0.350586l4.55078 201.601l-56 0.349609v11.2002z" />
  </g>

</svg>
