<?xml version="1.0" standalone="no"?>
<!DOCTYPE svg PUBLIC "-//W3C//DTD SVG 1.1//EN" "http://www.w3.org/Graphics/SVG/1.1/DTD/svg11.dtd" >
<svg xmlns="http://www.w3.org/2000/svg" xmlns:xlink="http://www.w3.org/1999/xlink" version="1.1" viewBox="-10 0 1051 1000">
  <g transform="matrix(1 0 0 -1 0 800)">
   <path fill="currentColor"
d="M828.399 483.872c0 9.49878 0.360099 25.4826 0.360099 28.905l-0.318652 61.3747l-8.69455 54.78l-24.0577 41.7601l-29.8355 19.1251l-33.9409 8.02542l-47.9505 1.85133v0.765382l-107.704 8.96128l-161.614 -4.8437l-135.511 -48.0118l4.97421 -24.8711
l90.1513 34.2037l168.519 13.9909l163.859 -8.05849l72.0585 -32.0852l24.6852 -76.5829c-11.2968 -92.7231 -11.5388 -94.7093 -10.6225 -98.1968c0.272553 -1.03738 0.408327 -1.98777 0.495372 -2.92219c0.487753 -0.641757 1.13403 -1.58506 1.4862 -2.05622
l30.4464 -40.7334l38.0432 -60.0682l23.93 -33.502l-96.7113 -80.2498l-3.19974 -219.288c0.962733 -7.56244 2.78458 -22.0112 5.01798 -45.877c-0.12894 -0.269919 -9.65147 -20.9678 -12.8349 -27.02c-1.80565 -3.43278 -3.36365 -6.39475 -8.94453 -11.1259
c-28.726 -6.87192 -37.6748 -9.01268 -53.7943 -9.01268c-3.38415 0 -6.77838 0.14333 -10.1737 0.446144l-127.95 -3.2205l-189.706 31.9736l-119.91 72.0259l-21.8729 31.5454c-0.18608 0.126152 -14.9542 10.3475 -18.5829 12.6523v-31.4635
c5.41685 -3.87145 13.5068 -7.36272 24.4398 -17.2503c7.32645 -6.62591 2.09556 -4.45645 10.6241 -11.9264c1.03002 -0.902171 1.03002 -0.902171 17.2005 -21.8062l70.2643 -41.1391l123.979 -35.7692l40.8353 -3.74581
c52.8258 -4.90757 59.0669 -6.73248 83.0467 -7.42728l68.08 -1.97257l89.7606 0.254271l51.1066 12.4914l15.1376 25.2075l6.27671 34.16l-0.268638 82.9487l0.0291888 84.2282l-0.00582149 87.5189l84.7837 67.8016l7.68593 8.96692l1.11464 7.19504
c0.44913 7.61262 -1.52476 12.8022 -3.31214 18.1783l-23.3304 38.8443l-33.0243 43.448l-34.3179 48.9016c-0.202711 16.1296 -0.202711 16.1296 -0.202711 17.6951zM33.2949 712.521h55.5146l17.1611 52.2256l17.1602 -52.2256h55.5156l-44.8672 -32.2959
l17.1611 -52.2246l-44.9697 32.2959l-44.9707 -32.2959l17.1611 52.2246zM478.863 111.058c-0.831055 0 -1.50098 0.674805 -1.50098 1.5l1.43945 41.417c-4.18359 5.00781 -8.47461 9.69531 -12.7012 14.3115c-18.6299 20.3477 -36.0654 39.4355 -36.126 77.9385
c-0.0507812 32.0869 11.6221 48.502 18.1582 55.1514c20.6602 20.1963 47.9355 25.2734 62.1104 25.2734c1.28906 0 2.91992 1.09277 4.61816 1.0127c41.8984 -1.9707 50.8398 -5.28516 72.1865 -23.8525c2.75586 -2.39648 3.55762 -4.35059 3.91504 -6.19531
c0.0654297 -0.333008 0.101562 -0.462891 0.114258 -0.503906c9.78125 -11.2871 16.6455 -40.9512 17.1768 -49.5781c0.0361328 -0.583984 0.124023 -1.26367 0.225586 -2.03223c0.285156 -2.17285 0.664062 -5.04297 0.03125 -8.65527
c-8.7041 -49.7109 -32.3594 -64.0176 -35.1406 -71.8105c-0.152344 -0.425781 -0.291992 -0.495117 -0.352539 -0.555664c-0.663086 -0.663086 -6.41016 -3.59375 -11.0273 -5.76465c-0.580078 -1.65137 -0.580078 -1.65137 -0.874023 -1.95703
c-0.135742 -0.522461 -0.259766 -1.44824 -0.259766 -1.44824l-0.856445 -42.3086c-0.0166016 -0.8125 -0.676758 -1.46387 -1.49023 -1.46875zM591.014 297.176l-0.0986328 0.0869141l-0.90625 -1.18457zM586.802 302.526l-0.992188 0.40918l-0.994141 -2.49023z
M521.929 316.199c-24.0547 0 -39.7402 -4.24707 -59.7402 -19.0762c-5.27441 -5.27344 -19.9541 -21.1016 -20.0234 -48.5615c-0.0917969 -36.1484 15.6631 -53.166 24.125 -61.6289c4.2168 -4.21582 4.2168 -4.21582 4.91504 -5.25977
c1.38086 -2.0625 1.38086 -2.0625 10.3408 -11.7744c2.05762 -0.505859 5.20312 -1.80273 8.39258 -5.11914c1.74512 -1.81348 1.04004 -8.54492 0.717773 -11.625l-0.287109 -35.0225l55.5771 -0.285156l2.61426 42.9844
c0.0244141 0.407227 0.212891 0.786133 0.527344 1.05371c1.84668 1.57324 1.89551 1.61523 2.85156 2.57227c0.945312 0.944336 3.68652 3.62109 6.09668 4.32227c0.874023 0.253906 2.09277 2.66992 4.62402 4.5625c12.1113 9.05371 30.0381 31.8438 32.2637 64.6895
c0.326172 4.80566 -0.416016 10.0479 -1.36426 15.6719c-2.00586 11.9014 -4.94629 28.8154 -13.9951 39.3604c-1.40723 1.15918 -1.83398 1.54395 -8.31152 8.02148c-11.5889 11.5879 -30.7754 15.1143 -49.3242 15.1143zM507.5 395l-84 82.5l16 16.5l67.5 -62l120 152
l18 -12.5z" />
  </g>

</svg>
