<?xml version="1.0" standalone="no"?>
<!DOCTYPE svg PUBLIC "-//W3C//DTD SVG 1.1//EN" "http://www.w3.org/Graphics/SVG/1.1/DTD/svg11.dtd" >
<svg xmlns="http://www.w3.org/2000/svg" xmlns:xlink="http://www.w3.org/1999/xlink" version="1.1" viewBox="-10 0 1051 1000">
  <g transform="matrix(1 0 0 -1 0 800)">
   <path fill="currentColor"
d="M828.399 483.872c0 9.49878 0.360099 25.4826 0.360099 28.905l-0.318652 61.3747l-8.69455 54.78l-24.0577 41.7601l-29.8355 19.1251l-33.9409 8.02542l-47.9505 1.85133v0.765382l-107.704 8.96128l-161.614 -4.8437l-135.511 -48.0118l4.97421 -24.8711
l90.1513 34.2037l168.519 13.9909l163.859 -8.05849l72.0585 -32.0852l24.6852 -76.5829c-11.2968 -92.7231 -11.5388 -94.7093 -10.6225 -98.1968c0.272553 -1.03738 0.408327 -1.98777 0.495372 -2.92219c0.487753 -0.641757 1.13403 -1.58506 1.4862 -2.05622
l30.4464 -40.7334l38.0432 -60.0682l23.93 -33.502l-96.7113 -80.2498l-3.19974 -219.288c0.962733 -7.56244 2.78458 -22.0112 5.01798 -45.877c-0.12894 -0.269919 -9.65147 -20.9678 -12.8349 -27.02c-1.80565 -3.43278 -3.36365 -6.39475 -8.94453 -11.1259
c-28.726 -6.87192 -37.6748 -9.01268 -53.7943 -9.01268c-3.38415 0 -6.77838 0.14333 -10.1737 0.446144l-127.95 -3.2205l-189.706 31.9736l-119.91 72.0259l-21.8729 31.5454c-0.18608 0.126152 -14.9542 10.3475 -18.5829 12.6523v-31.4635
c5.41685 -3.87145 13.5068 -7.36272 24.4398 -17.2503c7.32645 -6.62591 2.09556 -4.45645 10.6241 -11.9264c1.03002 -0.902171 1.03002 -0.902171 17.2005 -21.8062l70.2643 -41.1391l123.979 -35.7692l40.8353 -3.74581
c52.8258 -4.90757 59.0669 -6.73248 83.0467 -7.42728l68.08 -1.97257l89.7606 0.254271l51.1066 12.4914l15.1376 25.2075l6.27671 34.16l-0.268638 82.9487l0.0291888 84.2282l-0.00582149 87.5189l84.7837 67.8016l7.68593 8.96692l1.11464 7.19504
c0.44913 7.61262 -1.52476 12.8022 -3.31214 18.1783l-23.3304 38.8443l-33.0243 43.448l-34.3179 48.9016c-0.202711 16.1296 -0.202711 16.1296 -0.202711 17.6951zM33.2949 712.521h55.5146l17.1611 52.2256l17.1602 -52.2256h55.5156l-44.8672 -32.2959
l17.1611 -52.2246l-44.9697 32.2959l-44.9707 -32.2959l17.1611 52.2246zM582.605 113.667v182.389h59.625v-182.501l-30.2305 -80.5547zM634.355 118.892v161.666h-43.875l0.0410156 -161.692l21.6055 -59.251zM590.48 280.558h-1.875l1.875 3.75098v-3.75098z
M493.016 231.877c0.988281 -17.5508 -6.94629 -68.2197 -3.3457 -73.7266c0.170898 -0.101562 0.664062 -0.451172 0.729492 -1.15137c4.07617 -43.8242 39.2549 -85.79 52.8955 -99.4316c2.87207 -2.87207 4.73535 -4.31348 4.73535 -4.31348l-1.44824 -0.351562
l-0.422852 -0.967773l2.33008 -1.30078l-9.07227 -6.04785c-0.601562 -0.401367 -1.42773 -0.320312 -1.9375 0.236328c-1.20996 1.31934 -2.42871 2.63965 -3.65625 3.96777c-18.7529 20.3027 -39.2822 42.5977 -55.418 95.1885
c-5.35742 -25.2471 -20.667 -52.0713 -34.5439 -69.6943c-8.24023 -10.4648 -15.2031 -23.8584 -20.8545 -29.5098c-0.543945 -0.543945 -1.40234 -0.582031 -1.99121 -0.116211c-6.12109 4.8457 -10.4033 8.22949 -10.498 8.32422
c-0.539062 0.539062 -0.582031 1.3877 -0.12793 1.97559c8.68066 11.2539 22.0479 29.9062 25.9141 34.9844c38.9971 51.2256 40.7012 118.712 40.3965 154.63c-0.0078125 0.84668 0.685547 1.53125 1.53223 1.5127l10.9883 -0.242188
c0.985352 -0.0214844 3.72754 -0.454102 3.64355 -4.62305c-0.0175781 -0.901367 -0.0976562 -4.91797 0.151367 -9.34277zM636 414l-291.6 0.972656v19.2412h261.45v109.261h-261.45v19.2422l289.008 -1.62109z" />
  </g>

</svg>
