<?xml version="1.0" standalone="no"?>
<!DOCTYPE svg PUBLIC "-//W3C//DTD SVG 1.1//EN" "http://www.w3.org/Graphics/SVG/1.1/DTD/svg11.dtd" >
<svg xmlns="http://www.w3.org/2000/svg" xmlns:xlink="http://www.w3.org/1999/xlink" version="1.1" viewBox="-10 0 1026 1000">
  <g transform="matrix(1 0 0 -1 0 800)">
   <path fill="currentColor"
d="M30.3242 741.553h55.5146l17.1611 52.2256l17.1602 -52.2256h55.5156l-44.8672 -32.2959l17.1611 -52.2246l-44.9697 32.2959l-44.9707 -32.2959l17.1611 52.2246zM271 608l-12 60c128.725 89.7881 355.203 55.3633 442.457 48.5605
c0 -0.0107422 0.000976562 -0.0214844 0.000976562 -0.0322266c27.4463 0.582031 75.1855 -1.32129 107.268 -33.4033c40.1396 -40.1396 38.6152 -108.841 37.5254 -169.365c-0.395508 -21.9258 -0.433594 -33.2402 -0.22168 -41.9463
c26.3789 -43.8281 72.168 -89.959 89.3252 -129.607c6.95117 -16.0635 5.49219 -24.7637 2.64551 -40.2051l-12 -14l-79.501 -63.5771v-212.431c1.93945 -31.0869 1.82422 -79.2412 -27.416 -108.48c-26.0322 -26.0322 -182.507 -12.0195 -220.584 -13.0049
l-2.90137 0.0126953c-103.732 -7.2998 -296.108 50.6025 -326.603 92.1719c-18.5059 25.2275 -31.4014 41.2529 -57.9951 55.3086v70.0371c25.8174 -16.2627 49.624 -17.8066 70.1904 -60.6357c44.2188 -92.082 349.455 -105.734 451.309 -108.438l-0.499023 -0.962891
c50 12 34.1514 4.48145 42.5352 13.5361c19.1768 20.7119 3.97852 41.9688 5.50781 57.9648h-0.541992v2.14941c-0.253906 0.990234 -0.500977 1.94141 -0.738281 2.84863h0.738281v207.174v3.4873v1.33887h1.58203l104 88h1.13281
c4.9834 45.8955 -62.8379 92.1289 -94.2158 139.501l-3 4l-1 1c-2.02051 3.99219 0.0439453 4.02539 -2.08398 11.5605c-0.0371094 0.130859 -0.189453 0.24707 -0.174805 0.367188l0.258789 2.07227l0.0644531 1.49902
c0.00976562 0.226562 0.150391 3.89551 0.242188 6.24414c3.11426 79.1523 5.19727 173.389 -83.8154 173.771c-136.35 16.7461 -373.536 9.53418 -431.49 -46.5137zM582.529 239.756c0 1.08984 -1.09473 4.07715 -2.03516 5.29883
c-1.30176 0.96582 -4.43066 2.08008 -5.62402 2.08008c-4.31738 0 -7.40723 -2.99609 -10.2051 -5.79395c-1.20508 -1.20508 -2.79004 -1.81055 -4.37305 -1.81055c-2.55371 0 -3.96191 1.39941 -5.10938 2.5459c-0.237305 0.238281 -4.30664 3.80859 -6.69922 4.59766
c-1.09375 0.360352 -1.80664 0.457031 -2.6875 0.457031c-1.13965 0 -4.13965 -1.03125 -5.55859 -2.03711c-0.605469 -0.955078 -0.625977 -1.02539 -2.06738 -5.98242c0.119141 -1.84473 0.990234 -5.61035 5.14844 -9.61914l16.9863 -16.3867l16.8662 16.2344
c1.8252 1.82715 5.3584 5.41797 5.3584 10.416zM538.475 274.997c0.21875 -3.88672 0.0859375 -9.01855 -0.253906 -14.8701c5.53027 1.95703 13.3057 2.44727 21.9824 -3.63086c5.9082 4.19922 10.0889 4.93359 14.6162 5.02148
c6.21973 0 12.918 -3.30176 15.7637 -6.26465c6.11133 -6.3584 11.5977 -21.5605 -3.44727 -36.2529c-17.7871 -17.3682 -19.9062 -19.3145 -20.5117 -19.8447c-3.58203 -3.43945 -9.18262 -3.44922 -12.7969 0.0527344l-19.2139 18.6055
c-0.65625 -7.61621 -1.17676 -14.6895 -1.32812 -20.3916c-0.0615234 -2.30859 -0.234375 -12.6689 1.64062 -13.6719c0.214844 -0.0742188 0.385742 -0.193359 0.345703 -0.521484c6.0918 -65.4863 67.9238 -126.821 71.3633 -128.081
c0.113281 -0.0410156 -0.212891 0.00878906 -0.212891 0.00878906l-0.324219 -0.167969l-0.172852 -0.394531l1.02637 -0.572266l-11.583 -7.72363c-1.29004 1.40527 -1.91016 2.08203 -4.86621 5.28223c-23.4941 25.4355 -49.0908 53.1787 -69.0039 120.726
c-5.50098 -31.9551 -26.3799 -66.124 -42.9893 -89.5674c-25.8447 -36.4795 -15.3457 -24.8154 -25.8447 -36.4795l-13.6992 10.8457c8.07812 10.4727 13.2588 17.5732 20.4199 27.4551c4.03418 5.56934 7.75391 10.7031 11.7285 15.9229
c48.627 63.876 50.0811 148.051 49.7178 190.824l14.1426 -0.311523c1.25586 -0.0273438 3.38965 -0.633789 3.3125 -4.46094c-0.0224609 -1.1084 -0.121094 -6.0625 0.188477 -11.5371v0zM634.663 373.413zM434.283 508.22zM396.863 439.33zM542.664 349.259z
M542.401 340.894zM431 372zM495.224 351.796zM670.405 454.906zM396.863 439.33zM670.405 454.906zM581.675 543.352c-14.125 0 -26.084 -5.49414 -32.1494 -11.5596c-2.30762 -2.30859 -1.71777 -2.42871 -2.67285 -2.77539
c-4.28809 -1.56445 -8.49023 -2.13086 -12.3252 -2.13086c-3.62012 0 -10.1992 0.535156 -17.3223 3.73535c-4.83984 5.8916 -13.0244 11.2539 -26.7881 11.2539c-20.6611 0 -44.2227 -12.7891 -52.417 -31.9502l-0.404297 -0.946289h-1.42578l-37.3301 -50.7227h-1.78613
v-2.42578c-0.242188 -0.329102 -0.484375 -0.657227 -0.726562 -0.986328h0.390625l-4.13379 -15.5039l-0.464844 0.00683594c-0.0839844 -1.58789 -0.233398 -2.49902 -0.734375 -4.47266h0.601562c-0.0146484 -1.75195 -0.0146484 -1.75195 -0.0146484 -1.93066
c0 -11.335 4.8916 -34.2734 37.4922 -61.2354c34.4297 -28.4785 73.3672 -31.6182 105.646 -31.6182c52.9072 0 74.4775 6.63086 106.136 31.6484c38.6748 30.5586 39.3271 39.5576 40.3906 61.8945l-1.08203 0.0166016
c-0.0664062 0.249023 -4.81641 19.6328 -6.50098 24.8506l-27.6416 47.2334c-3.11523 3.25195 -3.11523 3.25195 -3.42871 3.79004h-0.205078c-9.71875 9.94629 -30.0908 28.5596 -49.9824 32.6836c-3.80664 0.789062 -7.53418 1.14453 -11.1211 1.14453zM489.878 529.69
c2.97363 0 9.58301 0 17.1182 -5.18555l-0.0585938 -0.719727c0.435547 -0.177734 1.13281 -0.504883 1.80957 -1.14844c6.38477 -6.06641 16.1963 -8.91504 25.5127 -8.91504c8.67773 0 16.9258 2.4707 21.5684 7.11426c0.90332 0.904297 2.36328 2.3623 3.48926 5.75879
c4.78418 3.26465 12.3848 6.82812 22.7578 6.82812c13.7656 0 20.2012 -5.99512 25.1367 -10.5908c3.83496 -3.57129 8.88477 -8.28613 19.7461 -15.4736c0.415039 -0.0898438 0.755859 -0.290039 1.0293 -0.598633l0.238281 0.00976562l31.0635 -48.9961
c0 -0.0830078 -0.00195312 -0.166992 -0.00195312 -0.251953c2.22754 -8.34668 4.26172 -16.8867 6.40723 -25.3164c0.75 -2.99609 1.17188 -5.77344 1.17188 -8.46191c0 -12.8994 -9.59766 -23.3496 -37.2422 -45.9414
c-25.4746 -20.8154 -43.9229 -27.9561 -99.5176 -27.9561c-30.0977 0 -54.3584 3.69727 -82.6914 23.5303c-34.9277 24.4502 -39.624 42.4551 -39.624 58.4883c0 1.05762 0.0205078 2.09961 0.0498047 3.125c1.74316 6.91699 3.63574 13.6826 5.43555 20.542
l34.0381 48.1924c0.483398 -0.186523 0.96582 -0.373047 1.44824 -0.558594c1.14746 2.7002 3.09961 7.30078 8.39746 12.5986c8.53711 8.53809 21.1738 13.9268 32.7178 13.9268z" />
  </g>

</svg>
