<?xml version="1.0" standalone="no"?>
<!DOCTYPE svg PUBLIC "-//W3C//DTD SVG 1.1//EN" "http://www.w3.org/Graphics/SVG/1.1/DTD/svg11.dtd" >
<svg xmlns="http://www.w3.org/2000/svg" xmlns:xlink="http://www.w3.org/1999/xlink" version="1.1" viewBox="-10 0 1051 1000">
  <g transform="matrix(1 0 0 -1 0 800)">
   <path fill="currentColor"
d="M828.399 483.872c0 9.49878 0.360099 25.4826 0.360099 28.905l-0.318652 61.3747l-8.69455 54.78l-24.0577 41.7601l-29.8355 19.1251l-33.9409 8.02542l-47.9505 1.85133v0.765382l-107.704 8.96128l-161.614 -4.8437l-135.511 -48.0118l4.97421 -24.8711
l90.1513 34.2037l168.519 13.9909l163.859 -8.05849l72.0585 -32.0852l24.6852 -76.5829c-12.0195 -98.6551 -12.0195 -98.6551 -8.64097 -103.175l30.4464 -40.7334l38.0432 -60.0682l23.93 -33.502l-96.7113 -80.2498l-3.19974 -219.288
c0.962733 -7.56244 2.78458 -22.0112 5.01798 -45.877c-15.8013 -33.078 -15.8013 -33.078 -21.7795 -38.1459c-28.726 -6.87192 -37.6748 -9.01268 -53.7943 -9.01268c-3.38415 0 -6.77838 0.14333 -10.1737 0.446144l-127.95 -3.2205l-189.706 31.9736l-119.91 72.0259
l-21.8729 31.5454c-0.18608 0.126152 -14.9542 10.3475 -18.5829 12.6523v-31.4635c5.41685 -3.87145 13.5068 -7.36272 24.4398 -17.2503c0.324316 -0.293306 6.03353 -5.56267 27.8246 -33.7326l70.2643 -41.1391l123.979 -35.7692l40.8353 -3.74581
c52.8258 -4.90757 59.0669 -6.73248 83.0467 -7.42728l68.08 -1.97257l89.7606 0.254271l51.1066 12.4914l15.1376 25.2075l6.27671 34.16l-0.268638 82.9487l0.0291888 84.2282l-0.00582149 87.5189l84.7837 67.8016l7.68593 8.96692
c1.77472 11.4559 1.98289 12.7996 -2.19749 25.3734l-23.3304 38.8443c-23.3118 29.9188 -45.6511 60.8101 -67.3422 92.3496c-0.202711 16.1296 -0.202711 16.1296 -0.202711 17.6951zM33.2949 712.521h55.5146l17.1611 52.2256l17.1602 -52.2256h55.5156
l-44.8672 -32.2959l17.1611 -52.2246l-44.9697 32.2959l-44.9707 -32.2959l17.1611 52.2246zM393.547 421.995c-0.0498047 0.0439453 -0.0976562 0.0820312 -0.141602 0.116211zM342.158 434.232c0.157227 -0.175781 0.269531 -0.298828 0.330078 -0.361328z
M529.639 514.565c0.92764 1.59574 12.3404 20.8647 21.6602 19.3125c2.74512 -1.70605 4.94141 -5.36035 5.0332 -5.55078c4.52832 -9.3877 -1.14453 -66.1035 -1.20117 -75.6309c-1.63184 -5.42383 -0.916016 -14.6914 -0.547852 -16.9629
c0 -12.2344 1.99414 -33.4922 2.24316 -35.2734c-2.21973 -4.0918 3.41309 -20.9043 2.02246 -33.1777c-0.358398 -3.16797 -10.9756 -28.2832 -10.9756 -28.2832c-0.974609 -1.52539 0.139648 0.375 -1.34961 -0.754883c1.99059 -1.2755 -1.45586 -6.5814 0.289062 -14.877
c0.637695 -3.02832 2.28223 -2.81445 2.29297 -5.30078c0.0833157 -20.1624 -93.3479 -13.4415 -98.6895 -16.7773c-10.8516 2.39355 -29.1377 13.7744 -30.9248 19.9648l0.0214844 1.65234c-1.6943 4.25987 -20.0527 30.3144 -20.0527 33.8535
c0 13.3915 -31.9021 54.6619 -53.4102 72.6504c-4.69108 3.93042 -10.0515 15.1054 -10.1533 15.2578c0.221643 6.50454 9.64853 14.4781 19.0996 12.3145c10.6693 -2.43413 43.1627 -47.013 53.6689 -43.9893c0.523438 -0.0898438 0.523438 -0.0898438 4.93066 -0.972656
c1.79836 1.95238 1.79836 1.95238 -2.88086 18.4258c0.516039 1.00315 -5.49514 69.5756 -5.76953 70.2246c0.623047 4.69727 0.125977 20.4717 0.5625 26.4092c0 0.208547 2.5733 14.5761 11.3145 17.5186c10.0718 -0.56505 13.0672 -8.7274 16.3037 -40.6641
l6.36523 11.9326c6.69805 18.8276 3.7359 21.0254 8.41992 32.3398c2.37988 5.75098 3.96191 7.41895 9.41406 9.50293c4.68848 -0.191406 4.8877 -0.453125 5.98828 -1.38086c0.0673828 -0.235352 8.26367 -15.8408 10.1396 -22.2793l-0.536133 -3.43262l1.35156 0.0488281
c0.0258266 -0.13369 2.08961 -12.2261 1.9248 -13.4795c0.21875 -0.0361328 0.572266 0.03125 0.493164 -0.235352c3.9707 0.220703 5.42773 -21.2402 8.1543 -20.0557c4.77732 2.07733 0.771107 9.27886 3.77051 33.8467c0.78012 6.34546 12.6205 26.9229 18.6475 22.2861
c8.50684 -9.50488 13.2793 -32.6963 12.9854 -48.1768c1.81836 -0.0205078 2.22266 -5.95117 2.38672 -7.34375c3.29297 -27.9346 5.08398 20.1729 7.00781 17.0576zM410.889 540.696c-0.00488281 -0.0361328 -0.00488281 -0.00585937 0 0zM548.688 541.732
l-0.739258 -4.28809l2.46484 0.683594zM462.003 557.247l0.290039 -0.0322266c-0.0751953 0.0117188 -0.172852 0.0166016 -0.290039 0.0322266zM516.027 536.522c-0.0253906 0.0410156 0 0.000976562 0 0zM401.942 350.162c-0.0439453 0.0351562 -0.00195312 0.0175781 0 0
zM429.943 312.378zM523.307 550.816l0.0517578 -0.100586c-0.0107422 0.0244141 -0.0283203 0.0585938 -0.0517578 0.100586zM445.243 561.224c-0.0117188 -0.0078125 -0.0234375 -0.0175781 0 0zM392.341 438.153c-0.0146484 0.0146484 -0.0419922 0.0429688 0 0z
M349.68 466.623l0.119141 -0.0263672c-0.0234375 0.00390625 -0.119141 0.0263672 -0.119141 0.0263672zM342.188 419.112c0.00683594 -0.00585938 0.0146484 -0.0195312 0 0zM399.098 431.084c-34.2837 35.8659 -50.9803 46.716 -72.291 23.0459
c-9.02795 -10.0284 3.75422 -22.8055 19.9531 -38.998c1.60969 -1.60969 1.60969 -1.60969 23.0537 -28.2617c14.0693 -17.4951 21.374 -44.8213 32.0938 -56.208c0.0579214 -0.124925 -0.715659 0.0893577 4.41504 -13.043
c-5.6859 -5.91858 0.951599 -16.0879 5.10742 -17.3828c19.1963 -13.666 120.646 -4.95605 134.133 0.112305c5.64258 0.078125 12.4443 6.38281 15.1689 11.8809c3.78223 7.62695 -2.54395 13.4482 -0.219727 25.1143c-2.17492 4.21792 6.19372 12.9648 7.10449 18.415
c3.91797 4.93262 3.60547 11.8379 1.54688 34.8916c0.416578 0.826347 -5.24298 48.6754 -0.158203 92.541c0.0632242 0.545575 3.74697 50.0938 -6.5127 54.5352c-20.0276 7.05734 -20.5926 6.47518 -33.2051 -6.51953c-4.8282 20.4816 -4.8282 20.4816 -15.3076 27.9404
c-13.0146 9.26959 -24.9337 -5.45815 -33.3262 -15.8281c-6.13538 27.202 -14.4425 16.5799 -18.3643 23.0186c-6.64867 10.879 -25.1679 -12.2365 -28.2773 -18.251c-29.4523 16.2807 -36.5815 -9.5178 -36.6631 -9.88867
c0.0691609 -0.815285 -8.95821 -14.8411 -0.0917969 -81.8213c-0.0221999 -0.252625 1.30234 0.100355 1.84082 -25.293zM407.883 302.982l-3.70508 0.746094c0.777344 0.254883 2.2832 0.492188 3.70508 -0.746094zM330.816 432.086c-0.193359 0.293945 0 0 0 0z
M561.338 340.507c-0.136233 -3.40186 2.58437 -3.94688 6.19531 -3.60156c-3.41992 -3.2666 -6.20508 -1.14746 -7.02148 0.438477c0.192383 0.964844 0.192383 0.964844 0.826172 3.16309zM511.929 352.659c-4.71582 -0.0976562 -60.5176 -0.0947266 -61.1289 -0.0751953
c-25.3828 0.819884 -18.1831 27.2053 -15.1553 38.3018c10.7908 44.3951 18.3948 75.6796 48.6631 72.0586c23.9563 -2.6541 28.9602 -22.5338 42.9434 -78.0859c7.55934 -31.4838 -12.7869 -32.2271 -15.3223 -32.1992zM482.367 450.241
c-16.9473 1.53418 -23.9131 -16.7412 -30.4688 -42.7969c-10.1071 -41.6161 -10.1071 -41.6161 -0.891602 -42.0215c60.6953 0.0263672 60.6953 0.0263672 62.375 0.25c7.83586 0.969602 -5.18168 82.7794 -31.0146 84.5684zM448.409 365.589
c0.0078125 0 0.0166016 -0.00390625 0 0zM447.434 365.776l-0.207031 0.0605469c0.0693359 -0.0214844 0.138672 -0.0429688 0.207031 -0.0605469zM445.73 367.081c0.0136719 -0.0146484 0.0283203 -0.0302734 0 0zM443.906 374.675
c-0.00390625 -0.0205078 -0.00976562 -0.0390625 0 0zM464.067 440.487c-0.00585937 -0.00878906 -0.0107422 -0.0166016 0 0zM495.211 443.265c-0.0107422 0.0126953 -0.03125 0.0361328 0 0zM517.534 372.274l-0.00292969 -0.125977
c0.000976562 0.0419922 0.00292969 0.0839844 0.00292969 0.125977zM308.126 209.935h255.334c43.6611 -2.8252 79.0957 -40.627 79.0957 -84.3789c0 -46.6748 -37.8809 -84.5557 -84.5557 -84.5557s-84.5557 37.8809 -84.5557 84.5557
c0 26.9775 18.9727 59.8018 42.3486 73.2676h-207.667v11.1113zM557.793 52.2676h-0.22168h0.22168c40.542 0 73.4443 32.9033 73.4443 73.4453c0 40.541 -32.9023 73.4443 -73.4443 73.4443c-40.541 0 -73.4443 -32.9033 -73.4443 -73.4443
c0 -40.542 32.9033 -73.4453 73.4443 -73.4453z" />
  </g>

</svg>
