<?xml version="1.0" standalone="no"?>
<!DOCTYPE svg PUBLIC "-//W3C//DTD SVG 1.1//EN" "http://www.w3.org/Graphics/SVG/1.1/DTD/svg11.dtd" >
<svg xmlns="http://www.w3.org/2000/svg" xmlns:xlink="http://www.w3.org/1999/xlink" version="1.1" viewBox="-10 0 1019 1000">
  <g transform="matrix(1 0 0 -1 0 800)">
   <path fill="currentColor"
d="M526.973 257.807c0 -6.58008 2.51465 -16.4102 2.51465 -16.5771c0 -0.681641 -0.552734 -1.24902 -1.25098 -1.25l-11.9277 -0.00585938c-52.5371 -2.18164 -52.5371 -2.18164 -52.5859 -2.18164l-17.3828 0.310547
c-0.169922 0.00292969 -17.0332 0.345703 -19.5361 10.832c-0.0449219 0.1875 0.0126953 0.154297 -3.02051 5.91699l-0.0527344 0.0800781c-0.414062 0.65332 -9.09082 13.8105 -9.19141 14.042l-6.7002 15.5342s0.858398 0.764648 -8.68652 13.7119l-9.64941 13.0898
c-13.2705 16.0576 -13.2705 16.0576 -13.292 16.0781c-0.976562 0.976562 -10.9531 9.68457 -11.2559 10.0918c-9.03027 12.1455 -9.03027 12.1455 -9.08398 12.4258c-0.0742188 0.37793 -0.107422 0.78125 -0.107422 1.19922c0 2.36523 1.08594 5.19238 2.30859 6.41602
c1.75 1.75 3.9248 1.2959 5.18945 1.99023c0.185547 0.101562 0.392578 0.154297 0.602539 0.154297c0.616211 0 8.53027 -2.41309 8.60645 -2.46094c4.14453 -2.62598 9.40625 -5.95801 9.64551 -6.23535l16.0596 -18.5312
c0.855469 -0.985352 8.33203 -8.41699 9.63281 -10.2227c1.50879 -2.09375 2.71191 -2.97363 5.13477 -2.97363c1.02832 0 4.6543 0.390625 5.31934 1.05566c0.381836 0.381836 1.0752 1.48535 2.46484 3.84766c0.469727 0.798828 0.538086 4.6709 0.538086 6.82129
c0 0.862305 -0.0117188 1.44824 -0.0117188 1.44824c-4.25879 16.1768 -4.25879 16.1768 -4.26953 16.2539c-1.19727 8.78613 -0.15625 9.55176 -2.45703 25.9434c-0.0576172 0.408203 0.109375 4.61914 -1.25586 41.1992c0 0.113281 0.957031 7.67871 3.9707 10.6914
c1.07617 1.07617 2.36523 1.4707 3.61914 1.4707c3.24316 0 6.6748 -2.73145 8.21484 -4.27148c0.538086 -0.539062 5.67383 -7.67383 6.12305 -8.12305c0.511719 -0.511719 1.18359 -0.755859 1.85156 -0.755859c1.04688 0 2.15137 0.604492 2.54492 1.83887
c5.10742 16.0176 5.36133 16.7373 5.45312 16.8896c1.50781 2.52051 4.92578 6.72949 10.9297 6.72949c4.83984 0 9.40234 -2.8916 10.6289 -6.45801l6.85352 -19.9395c0.115234 -0.333984 0.712891 -1.76953 2.5166 -1.76953c0.894531 0 1.95996 0.424805 2.45215 1.625
c3.64258 8.87793 3.63184 8.95215 3.64648 9.0293c0.417969 2.19629 2.11035 8.08398 8.25586 8.08398c3.54297 0 7.77637 -2.1709 9.83691 -6.20508c0.0927734 -0.147461 8.98535 -14.0771 9.50488 -14.5957c0.507812 -0.509766 1.19141 -0.773438 1.87891 -0.773438
c1.3291 0 1.6875 0.814453 2.32129 0.959961c2.33691 0.535156 2.59863 0.699219 3.06934 1.73242c1.23047 2.69531 4.16309 4.72754 7.34766 4.72754c8.02246 0 10.4824 -12.043 10.501 -12.2031c0.47168 -4.10254 0.666992 -8.90625 0.666992 -14.0977
c0 -11.1611 -0.900391 -24.1172 -1.88086 -35.7666c4.34766 -68.0498 4.34766 -68.0498 4.34766 -68.0908c0 -0.195312 -0.0458984 -0.387695 -0.132812 -0.561523c0 0 -8.54688 -17.0928 -8.54883 -17.1123c-0.660156 -1.91309 -2.27148 -6.57715 -2.27148 -11.0586z
M420.692 433.344c-11.5967 0 -12.7783 -17.5557 -12.7783 -17.7744c0 -0.335938 0.488281 -8.26562 1.125 -33.6025c0.0996094 -3.95117 0.179688 -7.16797 0.206055 -7.88281c-0.0791016 -0.580078 1.17871 -6.03711 1.71387 -17.3516
c0.360352 -7.62305 0.637695 -8.66406 2.02734 -13.876c2.62402 -9.84375 3.02441 -11.3457 3.02441 -11.5566c0 -0.0537109 -0.100586 -4.86426 -0.358398 -5.30371c-0.625 -1.06445 -0.845703 -1.43945 -2.33887 -1.43945
c-0.394531 0 -0.771484 0.188477 -1.00879 0.508789c-0.451172 0.613281 -0.722656 0.882812 -1.55176 1.71289c-1.20996 1.21191 -3.44629 3.45312 -8.6123 9.19824c-14.377 15.9834 -16.0791 18.3623 -16.4707 18.9727
c-0.713867 0.700195 -1.26172 1.0498 -4.45703 3.04004c-1.42188 0.886719 -3.35254 2.08984 -6.0293 3.78516c-1.125 0.711914 -9.77148 3.20117 -11.3193 3.20117c-1.66113 0 -2.61621 -0.59375 -2.9668 -0.658203
c-2.96191 -0.545898 -4.63379 -1.09375 -6.58105 -3.04102c-2.27148 -2.27148 -3.86523 -6.57715 -3.86523 -10.251c0 -1.80859 0.385742 -3.46289 1.26562 -4.64746c9.2334 -12.416 9.2334 -12.416 9.44824 -12.6309c0.982422 -0.982422 11.0566 -9.86719 11.1514 -9.98242
c12.9316 -15.6377 12.9316 -15.6377 12.9521 -15.665c9.42578 -12.7705 9.42578 -12.7705 9.44922 -12.8066c3.78418 -5.94727 8.30371 -13.0332 8.36523 -13.1758l6.62988 -15.3691c0.44043 -1.02051 9.20898 -14.0703 9.45703 -14.54
c2.55078 -4.8457 2.55078 -4.8457 2.58691 -4.97949c3.69043 -13.624 22.1924 -14.3936 24.4814 -14.4365l17.4688 -0.311523l52.8203 2.18652l11.7109 -0.000976563c3.71875 0 6.56348 3.04785 6.56348 6.55273c0 1.89844 -2.63184 10.3486 -2.63184 16.5859
c0 2.4502 0.330078 3.51465 1.0498 5.83594c0.316406 1.02051 0.952148 3.21484 0.967773 3.24512l8.35742 16.7168c0.460938 0.921875 0.691406 1.92871 0.691406 2.93652c0 0.930664 -4.35352 67.0557 -4.35352 67.7344c0 0.767578 1.90039 19.9873 1.90039 35.9609
c0 0.158203 -0.0810547 12.5879 -0.871094 15.7285c-1.19336 4.74219 -5.125 16.0293 -15.498 16.0293c-1.34961 0 -6.91797 -0.318359 -10.8008 -5.33789c-0.106445 -0.137695 -0.431641 -0.486328 -0.990234 -0.486328c-0.160156 0 -0.708984 0.0410156 -1.05273 0.574219
c-7.00488 10.8789 -7.00488 10.8789 -7.03027 10.9268c-0.713867 1.35156 -1.62793 2.56738 -2.6875 3.62695c-3.09473 3.09473 -7.36719 4.82227 -11.5146 4.82227c-2.87891 0 -10.2031 -0.953125 -12.9766 -10.2686
c-0.154297 -0.520508 -0.634766 -0.891602 -1.19727 -0.891602c-0.542969 0 -1.01172 0.347656 -1.18164 0.841797l-3.35254 9.75488c-2.01074 5.84863 -8.62793 10.0303 -15.6689 10.0303c-1.93164 0 -10.1094 -0.182617 -15.5703 -9.4707
c-0.983398 -1.67285 -3.31152 -10.3369 -3.72461 -10.9189c-0.244141 -0.341797 -0.628906 -0.524414 -1.01953 -0.524414c-0.162109 0 -0.658203 0.0410156 -1.00293 0.504883c-1.34082 1.80176 -1.34082 1.80176 -1.84863 2.30957
c-2.01562 2.01465 -6.98828 5.8584 -12.1025 5.8584zM469.883 319.774c-6.76953 0 -12.25 4.33496 -12.25 9.75c0 5.41504 5.48047 9.75 12.25 9.75s12.25 -4.33496 12.25 -9.75c0 -5.41504 -5.48047 -9.75 -12.25 -9.75z" />
  </g>

</svg>
