<?xml version="1.0" standalone="no"?>
<!DOCTYPE svg PUBLIC "-//W3C//DTD SVG 1.1//EN" "http://www.w3.org/Graphics/SVG/1.1/DTD/svg11.dtd" >
<svg xmlns="http://www.w3.org/2000/svg" xmlns:xlink="http://www.w3.org/1999/xlink" version="1.1" viewBox="-10 0 1008 1000">
  <g transform="matrix(1 0 0 -1 0 800)">
   <path fill="currentColor"
d="M348.481 97.6934l-82.2217 148.848l24.0225 10.1475l58.4395 -100.383l53.3027 101.418l27.2285 -11.0254zM265.568 -67.707v34.6641h38.626v22.0713h-38.626v34.6641h38.626v33.7148h31.3828v-33.7148h23.2197v31.2539h31.3828v-31.2539h41.292v-34.6641h-41.292
v-22.0713h41.292v-34.6641h-41.292v-36.1855h-31.3828v36.1855h-23.2197v-33.7246h-31.3828v33.7246h-38.626zM335.577 -33.043h23.2197v22.0713h-23.2197v-22.0713zM780.659 223.904c-0.529297 0 -0.985352 0.173828 -1.32227 0.358398l-214.094 -88.2627v-37.8242
c12.126 5.10742 24.251 10.2148 36.376 15.3213v-3.77051l-0.21875 -161.659h318.305l0.646484 155.446c10.9619 -6.48535 21.9238 -12.9697 32.8867 -19.4551l-0.677734 40.7051l-136.33 79.1182l1.46387 0.616211c-22.6963 11.7715 -24.457 12.7314 -36.2109 19.5508
c-0.288086 -0.102539 -0.56543 -0.144531 -0.824219 -0.144531zM884.594 -16.7148h-248.003l-0.665039 144.662l142.009 59.8174l107.859 -63.8086zM63.3545 -23.4795h55.5146l17.1611 52.2256l17.1602 -52.2256h55.5156l-44.8672 -32.2959l17.1611 -52.2246
l-44.9697 32.2959l-44.9707 -32.2959l17.1611 52.2246zM718.855 692.32c54.498 0 98.8398 -29.8018 98.8398 -66.3604c0 -9.05762 -2.66016 -17.71 -7.95312 -26.0625l24.2578 -115.897h-14.0078l-23.2578 101.148c-8.0293 -6.7334 -15.4053 -10.9756 -23.8389 -14.7227
v-88.1064h-14v82.9727c-5.26562 -1.54004 -19.7197 -5.69238 -40.04 -5.69238c-10.8447 0 -20.2881 1.10059 -29.9824 3.12012l10.1406 -79.2803h-12.8848l-10.6016 82.8857c-17.0234 5.6543 -26.6582 12.6064 -31.9502 16.6826l-11.835 -91.7275h-12.8848l13.2754 102.882
c-2.95898 3.64746 -9.08008 11.7686 -11.2949 23.2246c-0.0859375 0 -0.171875 -0.000976562 -0.257812 -0.000976562c-5.9375 0 -12.541 1.72559 -19.6094 5.70312c-18.3418 10.3203 -37.8047 25.001 -37.8047 40.8311c0 19.8262 12.1963 28.6807 45.3701 28.6807
c21.5107 0 33.2715 -8.10254 38.5371 -21.1865c13.1904 9.33789 36.626 20.9062 71.7822 20.9062zM618.857 491.28h-0.636719l0.554688 -0.632812zM631.742 491.28l-0.0634766 -0.488281l0.555664 0.488281h-0.492188zM686.129 483.439h-0.492188l0.554688 -0.488281z
M699.014 483.439l0.0800781 -0.631836l0.555664 0.631836h-0.635742zM758.896 482.319h-0.560547l0.560547 -0.55957v0.55957zM772.896 482.319v-0.55957l0.55957 0.55957h-0.55957zM819.992 484h-0.445312l0.544922 -0.433594zM834 484l0.142578 -0.675781
l0.546875 0.675781h-0.689453zM298.21 539.54l-90.7197 89.1006l17.2793 17.8193l72.9004 -66.96l129.6 164.16l19.4404 -13.5z" />
  </g>

</svg>
