<?xml version="1.0" standalone="no"?>
<!DOCTYPE svg PUBLIC "-//W3C//DTD SVG 1.1//EN" "http://www.w3.org/Graphics/SVG/1.1/DTD/svg11.dtd" >
<svg xmlns="http://www.w3.org/2000/svg" xmlns:xlink="http://www.w3.org/1999/xlink" version="1.1" viewBox="-10 0 1051 1000">
  <g transform="matrix(1 0 0 -1 0 800)">
   <path fill="currentColor"
d="M828.399 483.872c0 9.49878 0.360099 25.4826 0.360099 28.905l-0.318652 61.3747l-8.69455 54.78l-24.0577 41.7601l-29.8355 19.1251l-33.9409 8.02542l-47.9505 1.85133v0.765382l-107.704 8.96128l-161.614 -4.8437l-135.511 -48.0118l4.97421 -24.8711
l90.1513 34.2037l168.519 13.9909l163.859 -8.05849l72.0585 -32.0852l24.6852 -76.5829c-11.2968 -92.7231 -11.5388 -94.7093 -10.6225 -98.1968c0.272553 -1.03738 0.408327 -1.98777 0.495372 -2.92219c0.487753 -0.641757 1.13403 -1.58506 1.4862 -2.05622
l30.4464 -40.7334l38.0432 -60.0682l23.93 -33.502l-96.7113 -80.2498l-3.19974 -219.288c0.962733 -7.56244 2.78458 -22.0112 5.01798 -45.877c-0.12894 -0.269919 -9.65147 -20.9678 -12.8349 -27.02c-1.80565 -3.43278 -3.36365 -6.39475 -8.94453 -11.1259
c-28.726 -6.87192 -37.6748 -9.01268 -53.7943 -9.01268c-3.38415 0 -6.77838 0.14333 -10.1737 0.446144l-127.95 -3.2205l-189.706 31.9736l-119.91 72.0259l-21.8729 31.5454c-0.18608 0.126152 -14.9542 10.3475 -18.5829 12.6523v-31.4635
c5.41685 -3.87145 13.5068 -7.36272 24.4398 -17.2503c7.32645 -6.62591 2.09556 -4.45645 10.6241 -11.9264c1.03002 -0.902171 1.03002 -0.902171 17.2005 -21.8062l70.2643 -41.1391l123.979 -35.7692l40.8353 -3.74581
c52.8258 -4.90757 59.0669 -6.73248 83.0467 -7.42728l68.08 -1.97257l89.7606 0.254271l51.1066 12.4914l15.1376 25.2075l6.27671 34.16l-0.268638 82.9487l0.0291888 84.2282l-0.00582149 87.5189l84.7837 67.8016l7.68593 8.96692l1.11464 7.19504
c0.44913 7.61262 -1.52476 12.8022 -3.31214 18.1783l-23.3304 38.8443l-33.0243 43.448l-34.3179 48.9016c-0.202711 16.1296 -0.202711 16.1296 -0.202711 17.6951zM33.2949 712.521h55.5146l17.1611 52.2256l17.1602 -52.2256h55.5156l-44.8672 -32.2959
l17.1611 -52.2246l-44.9697 32.2959l-44.9707 -32.2959l17.1611 52.2246zM610.933 375.846h5.2002c0.12793 -3.58398 0.256836 -7.16797 0.383789 -10.752c19.8125 0.693359 37.7246 9.03906 50.8545 22.1689c4.77246 4.77246 8.91309 10.1768 12.2842 16.0762
l-8.32031 4.41602l-1.02441 -1.62109l-51.0312 24.0781c-1.66504 -0.912109 -3.57617 -1.43066 -5.6084 -1.43066c-6.45605 0 -11.6885 5.23242 -11.6885 11.6885c0 4.93457 3.05664 9.15332 7.37891 10.8691v54.5068h1.2002v9.96094
c-10.2002 -0.480469 -39.2451 -4.41992 -58.6748 -32.7949c2.92285 -1.6875 5.84473 -3.375 8.76758 -5.0625l-3 -5.19629c-2.9873 1.72461 -5.97363 3.44922 -8.95996 5.17383c-6.33398 -11.04 -9.95508 -23.8281 -9.95508 -37.458
c0 -13.2939 3.46582 -25.8027 9.54492 -36.6709l9.26953 5.35254l3 -5.19727c-3.04492 -1.75781 -6.08887 -3.51562 -9.13379 -5.27344c13.0566 -19.5273 34.9609 -32.6475 59.8965 -33.5801zM696.628 440.47c0 -45.5205 -36.9443 -82.4648 -82.4668 -82.4648
c-45.5215 0 -82.4668 36.9443 -82.4668 82.4668c0 45.2529 36.7246 82.1934 81.9756 82.4648h0.165039c45.5283 0 82.6113 -36.9482 82.793 -82.4668zM616.562 515.854v-10.0078h0.785156l1.96973 -55.1377c3.19629 -1.7666 5.47656 -4.98535 5.95215 -8.7666
l50.2578 -27.5488l-1.4082 -2.23047l7.95898 -4.22461c4.76465 9.85352 7.45703 20.8867 7.50684 32.5352c0 14.0703 -3.85938 27.2402 -10.5762 38.5166l-8.72461 -5.46094l-2.60059 4.50391c2.83691 1.77637 5.6748 3.55273 8.5127 5.3291
c-5.81934 8.39648 -24.8799 31.4033 -59.6338 32.4922zM352.046 373.459l52.5391 -45.4453l9.28516 10.5547l-33.7959 28.2891l122.926 0.142578l-0.759766 14.4639l-122.058 -0.986328l32.2256 27.126l-9.85059 10.418zM498.275 138.469zM498.107 136.488zM617.104 115.876
c0 15.5166 -5.34277 29.6357 -17.6738 41.9658c-6.97754 6.97754 -14.0244 11.2539 -20.625 13.8535l-18.7344 7.37891c23.1406 -3.99707 23.1406 -3.99707 26.1797 -4.90332c0.333008 0.113281 0.770508 0.204102 1.20801 0.123047
c28.585 -5.26562 50.2744 -17.9961 65.8086 -33.5312c8.04883 -8.04883 13.5684 -15.7402 18.7061 -24.6406c-13.3916 -23.2471 -36.2881 -49.4736 -85.7051 -58.2793l-10.623 -1.89355c9.60156 5.89355 14.9561 8.78125 24.0479 18.0459
c12.6133 12.6123 17.4111 26.9971 17.4111 41.8809zM556.039 69.2715c-13.0381 0 -24.4951 4.4668 -33.9727 13.9453c-13.7793 13.7803 -16.7354 32.2881 -10.6572 49.1143l0.706055 1.95312l0.469727 -0.173828c9.55273 14.0986 9.55273 14.0986 10.1113 14.9121
c14.9297 9.77344 14.9297 9.77344 15.127 9.79883c10.543 4.43359 33.2559 8.46973 52.2852 -10.5605c9.46191 -9.46094 13.4795 -20.4688 13.5195 -32.208c0 -8.15625 -1.72656 -20.7324 -13.5215 -32.5273c-5.53613 -5.53516 -16.0752 -14.2539 -34.0674 -14.2539z
M695.865 116.121c-7.33301 13.0166 -43.0137 75.7354 -136.995 75.7354c-56.5176 0 -91.9639 -22.5996 -113.007 -43.6426c-8.96191 -8.96191 -16.6943 -18.7783 -24.2861 -32.0918c6.71484 -11.7725 14.1934 -21.917 23.5986 -31.3223
c34.9014 -34.9014 77.8135 -44.2314 113.694 -44.2314c17.2549 0 70.4033 1.09863 113.446 44.1406c12.3105 12.3115 19.6797 24.5195 23.5488 31.4121zM531.498 170.466c-5.62402 -2.11426 -14.4297 -7.68652 -17.8545 -11.1123
c-4.57617 -4.57617 -4.57617 -4.57617 -5.62305 -6.32227c-0.87793 -1.46387 -1.06836 -1.64844 -2.21289 -2.68066c-1.61035 -1.4541 -2.15137 -2.1123 -2.75586 -3.65332c-0.473633 -1.20703 -3.3125 -6.34766 -4.1084 -8.55859
c0.106445 -0.518555 0.0322266 -1.03418 -0.107422 -1.39844c-6.47754 -16.9609 -6.79395 -42.4424 13.501 -62.7373c5.27051 -5.27051 10.7646 -8.95215 16.04 -11.54l14.502 -7.11426l-15.8281 3.24219c-29.1797 5.97852 -49.3613 19.4512 -62.8682 32.958
c-8.01367 8.01465 -13.585 15.7119 -18.7188 24.5723c9.63672 16.6992 31.1191 48.5176 84.9346 58.3037z" />
  </g>

</svg>
