<?xml version="1.0" standalone="no"?>
<!DOCTYPE svg PUBLIC "-//W3C//DTD SVG 1.1//EN" "http://www.w3.org/Graphics/SVG/1.1/DTD/svg11.dtd" >
<svg xmlns="http://www.w3.org/2000/svg" xmlns:xlink="http://www.w3.org/1999/xlink" version="1.1" viewBox="-10 0 1008 1000">
  <g transform="matrix(1 0 0 -1 0 800)">
   <path fill="currentColor"
d="M347.535 553.392c0 12.6045 11.2852 23.2676 26.0449 23.2676c14.7578 0 26.0449 -10.6631 26.0449 -23.2676c0 -12.6025 -11.2871 -23.2666 -26.0449 -23.2666c-14.7598 0 -26.0449 10.6641 -26.0449 23.2666zM292.941 724.917h23.9385v-325.917h-23.9385v325.917z
M437 724.917h21.418v-325.917h-21.418v325.917zM335.081 149.626l-82.2217 148.848l24.0225 10.1475l58.4395 -100.383l53.3027 101.418l27.2285 -11.0254zM252.168 -15.7744v34.6641h38.626v22.0713h-38.626v34.6641h38.626v33.7148h31.3828v-33.7148h23.2197v31.2539
h31.3828v-31.2539h41.292v-34.6641h-41.292v-22.0713h41.292v-34.6641h-41.292v-36.1855h-31.3828v36.1855h-23.2197v-33.7246h-31.3828v33.7246h-38.626zM322.177 18.8896h23.2197v22.0713h-23.2197v-22.0713zM767.259 275.837
c-0.529297 0 -0.985352 0.173828 -1.32227 0.358398l-214.094 -88.2627v-37.8242c12.126 5.10742 24.251 10.2148 36.376 15.3213v-3.77051l-0.21875 -161.659h318.305l0.646484 155.446c10.9619 -6.48535 21.9238 -12.9697 32.8867 -19.4551l-0.677734 40.7051
l-136.33 79.1182l1.46387 0.616211c-22.6963 11.7715 -24.457 12.7314 -36.2109 19.5508c-0.288086 -0.102539 -0.56543 -0.144531 -0.824219 -0.144531zM871.193 35.2178h-248.003l-0.665039 144.662l142.009 59.8174l107.859 -63.8086zM44.2949 -65.4795h55.5146
l17.1611 52.2256l17.1602 -52.2256h55.5156l-44.8672 -32.2959l17.1611 -52.2246l-44.9697 32.2959l-44.9707 -32.2959l17.1611 52.2246zM747.808 606.72c-11.2822 0 -19.8633 -7.87207 -19.8633 -17.0703c0 -9.19531 8.58008 -17.0693 19.8633 -17.0693
c11.2822 0 19.8643 7.87402 19.8643 17.0693c0 9.19824 -8.58301 17.0703 -19.8643 17.0703zM694.14 750.033h-3.09473c-4.4834 -0.386719 -4.4834 -0.386719 -10.8291 -0.541992l-0.177734 -0.00488281c-2.23828 0.0683594 -4.47559 0.137695 -6.71387 0.207031
l-1.32422 -229.693l264.488 0.393555c-0.248047 3.33008 -0.248047 3.33008 -0.25293 3.43262c0 0 -0.310547 7.29492 -0.3125 7.36035c-0.130859 4.05469 -0.130859 4.05469 -0.248047 10.9502l-241.969 -0.40332z" />
  </g>

</svg>
