<?xml version="1.0" standalone="no"?>
<!DOCTYPE svg PUBLIC "-//W3C//DTD SVG 1.1//EN" "http://www.w3.org/Graphics/SVG/1.1/DTD/svg11.dtd" >
<svg xmlns="http://www.w3.org/2000/svg" xmlns:xlink="http://www.w3.org/1999/xlink" version="1.1" viewBox="-10 0 1043 1000">
  <g transform="matrix(1 0 0 -1 0 800)">
   <path fill="currentColor"
d="M851.795 333.569c-11.043 0 -11.043 0 -73.1641 0.570312l0.0800781 0.436523h-4.36035l3.87402 236.949l-85.8682 47.1885v13.6201l80.7939 -46.1172c4.51367 -0.0107422 9.23535 0.00390625 14.2881 0.0302734l-55.6592 104.696h15.8105l55.6064 -104.592
l2.3291 0.0166016l0.893555 143.488h18.1611l-0.893555 -143.396c1.77051 0 3.54102 0.00195312 5.31055 0.00195312l60.2139 114.32h15.8057l-59.6328 -113.215l74.0146 29.75v-13.875c-20.0771 -8.87598 -40.125 -17.7793 -60.2188 -26.6387l-11.1035 -2.64355
l1.94336 -64.7373l15.9678 9.2832l3.48633 -22.668l-18.71 -11.3887l4.6084 -153.501c-1.19336 0.806641 -2.38477 1.61426 -3.57715 2.41992zM834.124 350.84l-5.55176 222.028h-2.86719l3.33105 -222.028h5.08789zM803.28 351.376v222.122l-3.31055 0.389648
l-1.10938 -222.962zM348.481 97.6934l-82.2217 148.848l24.0225 10.1475l58.4395 -100.383l53.3027 101.418l27.2285 -11.0254zM265.568 -67.707v34.6641h38.626v22.0713h-38.626v34.6641h38.626v33.7148h31.3828v-33.7148h23.2197v31.2539h31.3828v-31.2539h41.292
v-34.6641h-41.292v-22.0713h41.292v-34.6641h-41.292v-36.1855h-31.3828v36.1855h-23.2197v-33.7246h-31.3828v33.7246h-38.626zM335.577 -33.043h23.2197v22.0713h-23.2197v-22.0713zM780.659 223.904c-0.529297 0 -0.985352 0.173828 -1.32227 0.358398l-214.094 -88.2627
v-37.8242c12.126 5.10742 24.251 10.2148 36.376 15.3213v-3.77051l-0.21875 -161.659h318.305l0.646484 155.446c10.9619 -6.48535 21.9238 -12.9697 32.8867 -19.4551l-0.677734 40.7051l-136.33 79.1182l1.46387 0.616211
c-22.6963 11.7715 -24.457 12.7314 -36.2109 19.5508c-0.288086 -0.102539 -0.56543 -0.144531 -0.824219 -0.144531zM884.594 -16.7148h-248.003l-0.665039 144.662l142.009 59.8174l107.859 -63.8086zM63.3545 -23.4795h55.5146l17.1611 52.2256l17.1602 -52.2256h55.5156
l-44.8672 -32.2959l17.1611 -52.2246l-44.9697 32.2959l-44.9707 -32.2959l17.1611 52.2246zM123.959 586.643l-0.65332 -21.6426h7.62207v-1.22461l246.852 -130.993v131.32l153.859 1.16992v22.3496z" />
  </g>

</svg>
