<?xml version="1.0" standalone="no"?>
<!DOCTYPE svg PUBLIC "-//W3C//DTD SVG 1.1//EN" "http://www.w3.org/Graphics/SVG/1.1/DTD/svg11.dtd" >
<svg xmlns="http://www.w3.org/2000/svg" xmlns:xlink="http://www.w3.org/1999/xlink" version="1.1" viewBox="-10 0 1008 1000">
  <g transform="matrix(1 0 0 -1 0 800)">
   <path fill="currentColor"
d="M30.3242 741.553h55.5146l17.1611 52.2256l17.1602 -52.2256h55.5156l-44.8672 -32.2959l17.1611 -52.2246l-44.9697 32.2959l-44.9707 -32.2959l17.1611 52.2246zM271 608l-12 60c128.725 89.7881 355.203 55.3633 442.457 48.5605
c0 -0.0107422 0.000976562 -0.0214844 0.000976562 -0.0322266c27.4463 0.582031 75.1855 -1.32129 107.268 -33.4033c40.1396 -40.1396 38.6152 -108.841 37.5254 -169.365c-0.395508 -21.9258 -0.433594 -33.2402 -0.22168 -41.9463
c26.3789 -43.8281 72.168 -89.959 89.3252 -129.607c6.95117 -16.0635 5.49219 -24.7637 2.64551 -40.2051l-12 -14l-79.501 -63.5771v-212.431c1.93945 -31.0869 1.82422 -79.2412 -27.416 -108.48c-26.0322 -26.0322 -182.507 -12.0195 -220.584 -13.0049
l-2.90137 0.0126953c-103.732 -7.2998 -296.108 50.6025 -326.603 92.1719c-18.5059 25.2275 -31.4014 41.2529 -57.9951 55.3086v70.0371c25.8174 -16.2627 49.624 -17.8066 70.1904 -60.6357c44.2188 -92.082 349.455 -105.734 451.309 -108.438l-0.499023 -0.962891
c50 12 34.1514 4.48145 42.5352 13.5361c19.1768 20.7119 3.97852 41.9688 5.50781 57.9648h-0.541992v2.14941c-0.253906 0.990234 -0.500977 1.94141 -0.738281 2.84863h0.738281v207.174v3.4873v1.33887h1.58203l104 88h1.13281
c4.9834 45.8955 -62.8379 92.1289 -94.2158 139.501l-3 4l-1 1c-2.02051 3.99219 0.0439453 4.02539 -2.08398 11.5605c-0.0371094 0.130859 -0.189453 0.24707 -0.174805 0.367188l0.258789 2.07227l0.0644531 1.49902
c0.00976562 0.226562 0.150391 3.89551 0.242188 6.24414c3.11426 79.1523 5.19727 173.389 -83.8154 173.771c-136.35 16.7461 -373.536 9.53418 -431.49 -46.5137zM372.086 383.375c0 0.126953 -0.327148 10.166 -0.327148 12.6211
c0 1.81738 0.0361328 3.50391 0.0361328 3.53906c0 1.38867 -0.210938 12.4248 -1.75879 12.459l-12.7705 0.28125c0.015625 -2.0957 0.00390625 -14.0127 -0.0214844 -16.2715c-0.513672 -46.3691 -11.9883 -86.6035 -45.8867 -150.582
c-0.250977 -0.473633 -24.4561 -33.4043 -31.8379 -43.0098c1.00977 -0.804688 1.00977 -0.804688 11.5664 -9.16211c6.64941 7.10938 15.2676 23.3398 25.2676 36.0371c17.127 21.752 36.0791 55.0469 42.6406 85.9668l2.25391 10.6211l3.18457 -10.3789
c20.0361 -65.3066 45.2432 -92.5645 68.6514 -117.906l4.0332 -4.37695l6.8418 4.56055l-1.12207 0.626953c0.450195 1.03125 2.16113 2.31055 1.35254 3.09375c-11.7227 11.3359 -48.0605 64.8398 -70.207 128.711c-0.167969 0.484375 -2.15039 1.68555 -2.15039 11.3125
c0 18.6328 0.253906 22.0586 0.253906 41.8574zM444.189 201.494c0.251953 0.578125 0.503906 1.1543 0.757812 1.73242c1.05273 0.255859 2.10742 0.511719 3.16016 0.768555l-0.851562 -4.02344l0.535156 0.356445l0.1875 -4.79688
c-1.33984 0.748047 -2.67969 1.49512 -4.01953 2.24219l2.55176 1.70215c-0.486328 0.400391 -1.28027 1.07324 -2.32129 2.01855zM437.117 193.213l0.516602 -0.5625l-1.18262 0.119141zM291.086 193.25c0.219727 -0.173828 0.442383 -0.348633 0.666016 -0.525391
l-1.24512 -0.0742188c0.19043 0.191406 0.383789 0.390625 0.579102 0.599609zM279.52 202.412c-0.19043 -0.248047 -0.378906 -0.493164 -0.566406 -0.736328c0 0 -0.0761719 1.23242 -0.0791016 1.23633c0.142578 -0.115234 0.373047 -0.283203 0.645508 -0.5z
M357.266 412.275l-0.96582 0.0214844c0.526367 0.109375 0.852539 0.416016 0.958008 0.945312c0.00195312 -0.320312 0.0078125 -0.642578 0.0078125 -0.966797zM539.068 314.831zM538.916 316.631zM648.969 335.369c0 13.959 -4.54883 27.5723 -16.377 39.4014
c-5.29688 5.29688 -9.76172 8.97559 -13.8613 11.5127c24.1191 -4.29883 55.5293 -15.46 76.0801 -51.1367c-4.46289 -7.73242 -9.83789 -14.7461 -16.166 -21.0742c-13.8633 -13.8633 -33.2266 -25.248 -58.8418 -29.9658
c-0.321289 -0.0595703 -0.208984 0.389648 -1.23633 0.0830078c-0.679688 -0.203125 -2.70312 -0.808594 -5.59961 -1.30859c6.23047 2.45312 12.8633 6.48828 19.3867 13.0117c11.5469 11.5469 16.6152 24.9102 16.6152 39.4766zM591.58 375.863
c15.6963 0 24.7676 -7.5332 29.6445 -12.4102c10.2832 -10.2812 11.7441 -21.1016 11.7441 -28.2441c-0.0351562 -10.2305 -3.48438 -19.6973 -11.7412 -27.9531c-16.7588 -16.7598 -36.7295 -12.9805 -45.7705 -9.07422c-0.0859375 0 -12.7227 8.33789 -12.8516 8.42188
c-3.29297 4.79297 -6.53027 9.64355 -9.80176 14.459l-0.0322266 -0.0117188c-5.30566 14.6855 -2.74121 30.6914 9.25 42.6836c8.27344 8.27344 18.1543 12.1289 29.5586 12.1289zM594.154 405.706v0.000976562c-14.9922 0 -64.6416 -0.716797 -104.684 -40.7598
c-8.92969 -8.92773 -15.9766 -18.582 -22.2832 -29.8008c-0.0214844 -0.0371094 -0.0429688 -0.0761719 -0.0644531 -0.115234l0.0644531 0.115234c7.14258 -12.7051 14.4453 -22.0391 22.9072 -30.5c19.4111 -19.4111 52.1396 -40.2246 104.06 -40.2246
c13.376 0 63.9844 0.236328 104.029 40.2793c9.13379 9.13477 16.3066 19.0039 22.6602 30.4453c0.0214844 0.0371094 0.0419922 0.0761719 0.0625 0.113281l-0.0625 -0.113281c-3.39453 6.11523 -9.45312 18.8477 -22.2305 29.8828
c-39.6895 34.2725 -88.6582 41.0166 -104.459 40.6768zM568.609 283.988c-41.7666 7.59375 -63.2393 30.1074 -75.3848 51.1582c5.18945 8.95508 11.0469 15.8848 16.1758 21.0137c12.0557 12.0547 30.0645 24.0947 56.2061 29.4512
c-4.96387 -2.43555 -10.1338 -5.90234 -15.0811 -10.8496c-19.0762 -19.0762 -18.791 -43.0957 -12.6992 -59.0312c0.09375 -0.138672 0.0537109 -0.228516 -0.0898438 -0.277344c-0.230469 -1.22852 3.34277 -7.29492 3.92969 -8.78906
c0.730469 -1.86328 1.59766 -2.76562 2.99414 -4.02734c0.976562 -0.880859 0.993164 -0.898438 1.6582 -2.00781c0.995117 -1.66016 1.04004 -1.75586 5.39453 -6.10938c3.42578 -3.42578 11.4463 -8.48242 16.8965 -10.5312zM684.303 137.541l48.7793 42.1914
l-46.9717 41.4395l-11.9209 -12.6094l24.043 -20.2383l-145.232 2.67578l-0.916016 -17.4102l146.289 -1.99023l-25.3594 -21.2266zM506.041 573.716l-48.2852 -54.8486l52.5469 -54.3262l-6.8418 -6.41016l-52.6055 54.4678l-47.5781 -54.4678l-4.96875 6.11133
l46.9736 53.7295l-46.1768 54.0273l6.10352 6.56738l46.708 -52.2373l48.8311 52.5361z" />
  </g>

</svg>
