<?xml version="1.0" standalone="no"?>
<!DOCTYPE svg PUBLIC "-//W3C//DTD SVG 1.1//EN" "http://www.w3.org/Graphics/SVG/1.1/DTD/svg11.dtd" >
<svg xmlns="http://www.w3.org/2000/svg" xmlns:xlink="http://www.w3.org/1999/xlink" version="1.1" viewBox="-10 0 1051 1000">
  <g transform="matrix(1 0 0 -1 0 800)">
   <path fill="currentColor"
d="M271 608l-12 60c128.725 89.7881 355.203 55.3633 442.457 48.5605c0 -0.0107422 0.000976562 -0.0214844 0.000976562 -0.0322266c27.4463 0.582031 75.1855 -1.32129 107.268 -33.4033c40.1396 -40.1396 38.6152 -108.841 37.5254 -169.365
c-0.395508 -21.9258 -0.433594 -33.2402 -0.22168 -41.9463c26.3789 -43.8281 72.168 -89.959 89.3252 -129.607c6.95117 -16.0635 5.49219 -24.7637 2.64551 -40.2051l-12 -14l-79.501 -63.5771v-212.431c1.93945 -31.0869 1.82422 -79.2412 -27.416 -108.48
c-26.0322 -26.0322 -182.507 -12.0195 -220.584 -13.0049l-2.90137 0.0126953c-103.732 -7.2998 -296.108 50.6025 -326.603 92.1719c-18.5059 25.2275 -31.4014 41.2529 -57.9951 55.3086v70.0371c25.8174 -16.2627 49.624 -17.8066 70.1904 -60.6357
c44.2188 -92.082 349.455 -105.734 451.309 -108.438l-0.499023 -0.962891c50 12 34.1514 4.48145 42.5352 13.5361c19.1768 20.7119 3.97852 41.9688 5.50781 57.9648h-0.541992v2.14941c-0.253906 0.990234 -0.500977 1.94141 -0.738281 2.84863h0.738281v207.174v3.4873
v1.33887h1.58203l104 88h1.13281c4.9834 45.8955 -62.8379 92.1289 -94.2158 139.501l-3 4l-1 1c-2.02051 3.99219 0.0439453 4.02539 -2.08398 11.5605c-0.0371094 0.130859 -0.189453 0.24707 -0.174805 0.367188l0.258789 2.07227l0.0644531 1.49902
c0.00976562 0.226562 0.150391 3.89551 0.242188 6.24414c3.11426 79.1523 14.1973 176.389 -74.8154 176.771c-136.35 16.7461 -373.536 9.53418 -431.49 -46.5137zM30.3545 728.521h55.5146l17.1611 52.2256l17.1602 -52.2256h55.5156l-44.8672 -32.2959l17.1611 -52.2246
l-44.9697 32.2959l-44.9707 -32.2959l17.1611 52.2246zM714.521 206.751c3.55566 -6.02637 2.33496 -12.335 -1.54688 -16.2168c-8.27051 -8.27051 -24.8125 -5.34473 -23.7725 10.1045c0.129883 1.92383 0.492188 4.05762 1.68555 6.0293
c0.396484 2.27051 0.294922 14.6299 -0.109375 35.7158c-19.6113 -2.66699 -23.0996 0.260742 -25.0146 2.17578c-4.45898 4.45898 -4.54297 15.0742 0.167969 19.7852c3.32715 3.32715 8.90332 3.50879 13.8408 -2.19922
c1.01172 -1.01074 8.30664 -3.08008 9.46973 0.24707c1.62012 173.286 1.62012 173.286 1.6709 173.806c0.0322266 0.331055 3.47559 27.6709 8.09473 32.29c2.19238 2.19141 5.58887 2.02637 7.53516 0.0800781c1.69043 -1.69043 2.28027 -3.80176 7.99512 -25.7646
v-0.210938c0.774414 -145.266 0.958984 -180.003 1.82715 -180.871c0.331055 -0.331055 1.21191 -0.935547 4.40918 -0.984375c6.23828 -0.09375 5.61426 4.05469 10.7949 5.74023c4.30957 1.40234 11.3369 -1.15723 11.6406 -11.0732
c0.0615234 -1.97852 0.0166016 -7.74805 -4.18262 -11.5488c-1.21582 -1.10059 -4.63574 -4.02539 -24.3604 -1.48242c0.429688 -12.3525 0.5 -16.499 -0.513672 -27.3633c-0.532227 -5.70312 -0.487305 -6.80859 0.368164 -8.25879v0zM702.915 206.789
c-0.360352 -5.81641 -4.54102 -6.51562 -2.30078 -8.75586c1.07422 -1.07422 3.01367 -1.30957 4.16504 -0.15918c2.12988 2.13086 -1.10156 2.8584 -1.86426 8.91504v0zM731.678 252.632c-0.0361328 -0.0244141 -0.233398 -0.0488281 -0.269531 -0.0722656
c0.103516 0.0224609 0.194336 0.046875 0.269531 0.0722656zM697.334 254.286c0.992188 -0.302734 3.11621 -1.27539 3.89648 -4.52148c1.27637 -5.31055 -0.0400391 -26.54 1.53125 -39.5615c0.116211 5.83887 1.78906 13.5664 1.13477 27.5645
c-0.494141 10.5703 -0.610352 13.0586 1.40234 15.0723c0.775391 0.774414 1.67773 1.16992 2.69336 1.33008c-1.16309 1.21875 -2.11426 2.81055 -2.42676 4.79102c-0.636719 4.03418 -1.02637 6.61719 -1.56543 113.039c0 0.688477 -0.000976562 56.3369 -1.17285 68.877
c-1.83789 -14.0859 -1.90332 -36.3047 -1.91211 -96.8896c-0.00585937 -35.3369 -0.109375 -47.5469 -0.357422 -69.8701c-0.0927734 -8.38281 -0.0654297 -12.7607 -0.71875 -15.1143c-0.334961 -1.20703 -1.03418 -2.99512 -2.50488 -4.7168v0zM673.676 252.664
c0.00878906 -0.0498047 0.0175781 -0.09375 0.0263672 -0.131836c-0.00878906 0.00683594 -0.0175781 0.125977 -0.0263672 0.131836zM477.42 233.848v18.333h27.5898v22.1914h-27.5898v18.333h27.5898v24.082h15.9883v-24.082h23.0137v22.3242h15.9883v-22.3242h29.4941
v-18.333h-29.4941v-22.1914h29.4941v-18.333h-29.4941v-25.8477h-15.9883v25.8477h-23.0137v-24.0898h-15.9883v24.0898h-27.5898zM532.399 337.788l-54.1631 98.0508l11.2627 4.75781l43.2412 -74.2773l39.4219 75.0068l13.417 -5.43359zM544.012 274.372h-23.0137
v-22.1914h23.0137v22.1914z" />
  </g>

</svg>
