<?xml version="1.0" standalone="no"?>
<!DOCTYPE svg PUBLIC "-//W3C//DTD SVG 1.1//EN" "http://www.w3.org/Graphics/SVG/1.1/DTD/svg11.dtd" >
<svg xmlns="http://www.w3.org/2000/svg" xmlns:xlink="http://www.w3.org/1999/xlink" version="1.1" viewBox="-10 0 1046 1000">
  <g transform="matrix(1 0 0 -1 0 800)">
   <path fill="currentColor"
d="M30.3242 741.553h55.5146l17.1611 52.2256l17.1602 -52.2256h55.5156l-44.8672 -32.2959l17.1611 -52.2246l-44.9697 32.2959l-44.9707 -32.2959l17.1611 52.2246zM804 631c0 -96.6865 68.0879 -173.199 99.375 -191.775l11.1992 -6.64941
c-16.9434 -0.478516 1.18945 0.900391 -34.5742 -3.5752l-1.0752 1.36426c-22.0068 27.9238 -93.998 110.011 -106.903 207.233c-0.657227 4.95117 0.0224609 9.79688 0.582031 18.2783c-1.38379 0.708984 -2.88672 1.4873 -4.52246 2.34082
c-0.0283203 -1.83984 -0.322266 -3.81641 -0.0449219 -5.88867c33.3789 -249.661 97.5459 -216.742 97.5459 -216.742s6.91211 -4.29004 10.2793 -6.58594h-32.8613c-44.1455 16.1279 -101.697 151.17 -101.697 222.331c0 8.73535 0.302734 15.3135 0.785156 20.6846
c-60.6641 32.3369 -181.179 64.7012 -284.885 64.7012c-23.0527 0 -45.5234 -2.04883 -73.3945 -6.17773c-32.3232 -4.78906 -32.3232 -4.78906 -70.6152 -21.2002c-18.916 -8.10645 -50.2139 -47.4062 -58.166 -66.7188
c-7.02734 -17.0664 -9.0791 -30.2676 -9.0791 -45.8906c0 -22.332 3.62891 -44.376 3.62891 -77.1553c0 -8.99219 1.14648 -13.8564 1.14648 -20.1924c0 -4.57031 -0.613281 -9.64551 -2.73242 -16.6025c-19.9492 -65.4795 -40.3174 -87.0479 -63.832 -110.183
c-6.25977 -6.16016 -27.0508 -26.6172 -27.0508 -37.7881c0 -4.45605 0.882812 -6.9082 38.3447 -19.4531c55.9199 -18.7266 60.0254 -24.4102 60.0254 -90.9766c0 -43.0117 2.70801 -110.013 2.70801 -151.731c0 -5.5 0.0820312 -11.3867 0.267578 -17.7666
c0.50293 -17.292 16.4512 -45.3398 23.8975 -57.5352c1.19629 -0.303711 1.95996 -1.18164 1.95996 -1.18164c1.1543 -0.666992 2.48438 -1.60059 4.13477 -2.74414c16.0508 -11.1162 22.0049 -13.1846 40.8428 -13.1846c24.0361 0 22.3457 4.21484 79.0615 4.21484
c0.316406 0 6.94531 -0.00390625 7.01562 -0.00390625c14.7988 0 25.668 0.226562 52.1025 3.80078c20.2021 2.73242 38.8271 4.61572 56.5088 6.4043c120.938 12.2334 201.711 24.1475 280.178 80.1953c2.23438 1.5957 5.14355 3.85352 8.45703 6.42773
c12.6104 9.7959 33.0303 26.8994 48.1416 26.8994c8.16699 0 13.834 -4.95996 13.834 -14.165c0 -15.4473 -17.4082 -42.8486 -33.0938 -42.8486c-1.16406 0 -1.56543 0.129883 -3.01758 0.129883c-22.6426 0 -44.3604 -36.5264 -79.4766 -51.29
c-52.8857 -22.2344 -138.298 -27.127 -175.459 -33.71c-17.2549 -3.05664 -36.6504 -6.49316 -61.8809 -12.2393c-34.7246 -7.90918 -51.6299 -8.61133 -86.7539 -8.61133c-0.251953 0 -22.7891 0.03125 -25.0811 0.03125c-11.3115 0 -32.6182 -0.123047 -32.9473 -0.123047
c-40.7773 0 -82.5049 2.86621 -120.91 24.8125c-26.0957 14.9121 -27.9092 36.1035 -30.0449 61.0586c-0.477539 5.59082 -0.976562 11.3994 -1.75781 17.3906c-1.96484 15.7158 -2.63672 29.7119 -2.63672 42.8916c0 28.6572 -4.27441 100.664 -4.27441 131.409
c0 46.4277 -4.59863 49 -29.7539 58.8145c-27.3184 10.6582 -57.2148 13.2568 -70.834 26.876c-4.33008 4.33008 -6.66504 9.68945 -6.66504 16.1094c0 4.7959 1.30371 10.1846 4.05176 16.1768c36.4951 79.5967 68.6367 70.0742 91.3711 139.761
c5.20312 15.9443 6.93652 32.2529 6.93652 48.6797c0 32.5635 -6.77832 65.1611 -6.77832 95.8125c0 47.6494 17.2412 68.3838 35.0508 86.1934c66.2422 66.2412 143.674 66.3555 238.901 66.3555h0.988281c82.8154 0 190.135 -23.3467 246.021 -49.8477
c43.5547 -20.6533 21.8506 -15.7109 32.4561 -16.8408c11.3984 -1.2168 39 -13 47.5039 -30.4053c4.31641 -8.83496 -4.12305 -21.668 -4.50391 -29.5947c-0.257812 -5.36523 2 -14.3428 2 -20zM516.317 370.957c-5.77051 0.672852 -18.9688 3.63867 -28.4785 16.6543
c-4.1123 -2.12793 -8.77832 -4.77246 -16.2402 -9.32129c-1.11621 3.35254 -1.1377 3.41699 -4.30078 7.65625c5.66211 3.1709 11.0977 6.15039 16.3555 8.7998c-2.39355 5.22168 -3.72949 11.0342 -3.72949 17.1514c0 8.48047 2.55957 16.2949 6.88672 22.7783
c-3.92383 3.50488 -7.93457 6.94922 -13.5205 11.6523c2.71289 2.2666 2.72266 2.28027 5.45898 6.20898c5.06348 -3.85156 8.93945 -7.32617 13.3105 -11.4775c6.29883 6.27246 14.5586 10.5 23.6133 11.7041c-0.0888672 5.38965 -0.123047 10.4668 0.0888672 16.8066
l8.2334 0.195312c-0.0849609 -3.08789 -0.198242 -7.5 0.262695 -16.7773c5.90527 -0.462891 18.7344 -2.91113 28.6719 -14.9727c3.46094 2.38281 6.40137 4.08594 13.7051 8.31445c1.74121 -2.29785 2.35645 -3.16602 3.70703 -5.37988
c0.958984 -1.57324 0.0820312 -1.66895 -0.822266 -2.24023c-0.49707 -0.313477 -7.30176 -4.50879 -12.0225 -7.51074c2.64258 -4.94141 8.62207 -19.0615 1.53711 -35.5518c4.43359 -2.77832 8.48242 -5.76172 13.2168 -9.48535
c-1.84961 -3.31152 -2.3252 -3.97949 -4.76367 -7.37012c-2.79395 1.98438 -6.5918 4.68555 -12.791 9.16309c-3.3584 -4.69727 -12.9658 -15.6992 -30.0664 -17.1328c-0.139648 -4.34277 -0.15332 -10.1211 -0.0625 -18.1533c-3.02148 0 -3.19922 0 -8.91113 0.423828
c0.144531 5.64844 0.365234 11.1406 0.661133 17.8643zM553.917 411.909c0 18.0811 -14.6914 32.7598 -32.7734 32.7598c-18.0889 0 -32.7734 -14.6846 -32.7734 -32.7734c0 -18.374 15.1113 -32.7627 32.623 -32.7725c18.0918 0 32.8467 14.6914 32.9238 32.7861z
M434.686 429.303c-0.0488281 0.0439453 -0.0957031 0.0820312 -0.138672 0.115234zM384.304 441.301c0.154297 -0.171875 0.264648 -0.291992 0.324219 -0.353516zM585.985 347.936c-0.955078 -1.49609 0.136719 0.367188 -1.32324 -0.740234l0.850586 -0.544922
c0.0517578 -0.0332031 -1.90625 -7.67285 -0.567383 -14.041c0.625 -2.96875 2.23828 -2.75879 2.24805 -5.19629c0.0117188 -2.78027 -0.619141 -1.36816 -1.12109 -3.63672c-4.59473 -5.84863 -6.38086 -6.13867 -11.7305 -7.00391
c-8.75195 -1.41699 -23.1699 -0.573242 -36.4053 -3.8623c-3.8916 -0.327148 -36.998 -2.40137 -41.2402 -1.28711c-2.14551 0.563477 -4.5918 0.381836 -6.25684 -0.658203c-10.6387 2.3457 -28.5664 13.5039 -30.3184 19.5732l0.0205078 1.62012l-0.571289 1.4375
l-0.932617 1.16992c-7.9082 13.5107 -15.5449 24.0371 -15.7412 24.251c-0.581055 3.97266 -2.41406 5.88477 -2.41406 6.33008c0 5.4668 -15.6797 33.2354 -18.8574 35.6797c-0.199219 0.15332 -13.0977 14.8271 -16.7324 18.7207
c-0.115234 0.207031 -4.69727 6.72656 -16.7734 16.8271c-2.08398 1.74414 -1.28027 3.13672 -3.81543 4.72656c-6.26562 7.01758 -3.76758 6.67969 -6.13867 10.2314c0.28125 8.25977 12.3076 12.376 12.4766 12.4258
c1.46191 0.0400391 5.4082 -0.160156 6.24902 -0.352539c3.89844 -0.889648 6.93457 -4.89746 10.2051 -6.48047c4.40234 -5.97852 24.1104 -24.2969 24.2998 -24.5859c0.87207 -1.9541 2.54492 -2.90527 3.29004 -3.23633
c2.71289 -2.3877 3.4541 -5.72656 7.59863 -7.22168c1.67871 -1.7168 4.6084 -2.35449 7.22266 -1.60254c0.513672 -0.0898438 0.513672 -0.0898438 4.83398 -0.953125l1.20703 1.31055c0.780273 2.50195 -0.498047 10.583 -3.05176 11.5352
c-0.6875 3.88184 -0.910156 4.97168 -0.979492 5.21875c0.751953 1.45996 1.49023 3.70508 0.0253906 5.88379c-0.109375 0.552734 -4.28613 50.8691 -5.68652 56.0049c-0.0195312 1.30664 0.924805 4.78223 0.00488281 6.95703
c0.610352 4.60742 0.123047 20.0723 0.551758 25.8926c0 2.59473 2.61621 6.53711 5.24512 13.2773c1.8623 2.55566 1.8623 2.55566 5.84668 3.89844c2.91797 -0.165039 2.9873 -0.518555 3.40137 -0.816406c1 -0.717773 1 -0.717773 4.75391 -2.77148
c0.473633 -0.621094 2.36719 -3.83301 2.3916 -3.87109c2.58789 -7.92285 4.37988 -21.9775 5.4375 -32.4092l6.24023 11.7002l1.77246 4.98145c2.31934 6.51562 2.98535 18.2744 6.48242 26.7236c2.33301 5.63867 3.88379 7.27344 9.22949 9.31641
c4.59668 -0.1875 4.79199 -0.443359 5.87109 -1.35352c0.0654297 -0.230469 8.10156 -15.5303 9.94043 -21.8418l-0.525391 -3.36621l1.3252 0.0478516c0.015625 -0.0839844 0.425781 -4.62988 1.09863 -8.38867l0.832031 -0.0878906
c0.196289 -2.91113 0.196289 -2.91113 -0.0439453 -4.73828c0.214844 -0.0361328 0.561523 0.0302734 0.483398 -0.230469c3.89355 0.216797 5.32129 -20.8242 7.99414 -19.6631c5.17871 2.25098 1.14453 29.8213 3.18164 29.7012
c1.47461 -0.0869141 0.410156 2.61914 0.515625 3.48242c0.307617 2.5 1.17773 1.61035 1.93164 5.16895c1.06348 5.0293 8.29688 13.9424 8.36035 14.0938c2.80176 2.7207 6.50391 3.72852 7.99023 2.58594c8.33984 -9.31836 13.0186 -32.0547 12.7305 -47.2314
c1.78223 -0.0205078 2.17871 -5.83496 2.33984 -7.2002c3.22852 -27.3877 4.98438 19.7754 6.87012 16.7236l1.59082 2.7373c1.7041 2.93457 11.418 13.6543 14.6406 16.1328c0.850586 0.655273 1.02637 0.725586 5.00391 0.0634766
c2.69141 -1.67383 4.84473 -5.25586 4.93457 -5.44336c4.43945 -9.2041 -1.12207 -64.8057 -1.17773 -74.1465c-1.59961 -5.31836 -0.897461 -14.4043 -0.537109 -16.6309c0 -11.9941 1.95508 -32.835 2.19922 -34.583c-2.17578 -4.00977 3.34668 -20.4922 1.9834 -32.5264
c-0.351562 -3.10449 -10.7607 -27.7275 -10.7607 -27.7275zM451.657 545.605c0.0253906 0.0371094 0.0253906 0.0654297 0.0292969 0.0722656c-0.000976563 -0.00195312 -0.0117188 -0.0273438 -0.0292969 -0.0722656zM586.785 546.693l-0.724609 -4.20508l2.41602 0.671875
zM501.799 561.903l0.28418 -0.03125c-0.0732422 0.0107422 -0.168945 0.0166016 -0.28418 0.03125zM554.739 541.663c0 -0.0380859 0.0244141 -0.0771484 0.0244141 -0.078125c-0.00683594 0.0244141 -0.0244141 0.0507812 -0.0244141 0.078125zM442.873 358.93
c0 -0.0166016 0.0410156 -0.0332031 0.0429688 -0.0507812zM470.368 321.836zM561.9 555.6l0.0507812 -0.0986328c-0.0107422 0.0234375 -0.0273438 0.0566406 -0.0507812 0.0986328zM485.333 565.774l0.0351562 0.0283203
c-0.0117188 -0.00878906 -0.0234375 -0.0175781 -0.0351562 -0.0283203zM433.462 445.188l0.0410156 -0.0419922c-0.0146484 0.0146484 -0.0410156 0.0419922 -0.0410156 0.0419922zM391.678 473.056l0.117188 -0.0253906
c-0.0234375 0.00390625 -0.117188 0.0253906 -0.117188 0.0253906zM384.358 426.458l-0.0244141 0.0195312c0.00683594 -0.00488281 0.0136719 -0.0195312 0.0244141 -0.0195312zM383.984 426.815c0.702148 -0.702148 2.39844 -1.80762 4.83105 -4.24023
c5.00098 -5 6.02832 -8.64258 12.1221 -14.4854c4.4502 -4.2666 3.70312 -4.7998 10.4795 -13.2217c13.7939 -17.1533 20.9551 -43.9443 31.4648 -55.1074c2.49121 -5.37207 -0.414062 -3.77539 2.34961 -7.68457c0.0654297 -0.207031 0.0654297 -0.207031 1.97852 -5.10254
l-1.66113 -1.72852c-0.0234375 -0.0244141 -0.716797 -1.61133 -0.386719 -4.29199c0.390625 -3.1709 1.94824 -6.71191 3.37109 -8.13574c2.10352 -1.49805 0.206055 -1.80078 3.68457 -2.88477c18.8193 -13.3984 118.28 -4.85938 131.502 0.110352
c5.53223 0.0761719 12.2002 6.25781 14.8721 11.6475c3.70801 7.47754 -2.49414 13.1846 -0.21582 24.6211c-1.10449 2.14258 -0.197266 3.79199 3.02246 9.63672c2.37109 4.30664 3.6416 6.61328 3.94238 8.41797c3.8418 4.83496 3.53516 11.6055 1.51758 34.207
c0.643555 1.2793 0.643555 1.2793 0.44043 2.12305c-2.63477 10.9404 -2.94531 29.1846 -2.61426 46.4814c0.142578 7.43652 1.17676 34.8623 2.01855 42.123c1.21875 10.5166 0.0849609 36.8643 -0.356445 40.2324c-0.594727 4.53223 -2.13379 11.5469 -6.0293 13.2334
c-0.0996094 0.0351562 -4.19141 2.85547 -9.71875 4.25293c-1.24707 0.31543 -4.88086 1.23438 -7.49121 -0.00683594c-4.44531 -0.556641 -9.54785 -4.66699 -10.5742 -5.72461l-4.76953 -4.91504l-1.57031 6.66113c-2.27344 9.64355 -1.84473 8.40332 -3.91016 11.7568
c-1.2168 2.16602 -1.97266 3.51074 -4.04395 5.58203c-3.18262 3.18164 -3.74902 2.16016 -5.48242 3.39453c-4.42578 3.15137 -12.0742 2.8125 -15.4785 0.741211c-4.67773 -2.09961 -5.47949 -2.45898 -7.12891 -4.10938
c-1.21777 -1.2168 -1.48438 -1.54688 -10.0654 -12.1494l-1.70215 7.54688c-0.509766 2.25977 -0.547852 3.0127 -3.93652 6.82715c-4.37598 4.92676 -4.55371 5.12695 -9.33301 6.27637c-0.970703 0.233398 -2.18555 0.525391 -3.0332 1.91602
c-3.40039 5.56445 -6.79688 4.52832 -14.1777 -2.74219c-3.73145 -3.67676 -3.75684 -2.91602 -8.06152 -7.2207c-2.8623 -2.86328 -3.12305 -3.36621 -5.4834 -7.92969l-3.37402 1.86426c-12.8584 7.10449 -21.4082 2.86621 -26.8506 -2.57617
c-3.21289 -3.21289 -5.35156 -7.3125 -5.71973 -8.9834c0.0820312 -0.958984 -0.267578 -1.48535 -0.672852 -1.95703c-5.8457 -8.3252 -2.47168 -55.1797 0.583008 -78.2607c0 0 -0.129883 -1.4707 0.240234 -1.81934c1.07617 -4.96191 1.19434 -5.50488 1.56445 -22.9775
l-6.63867 6.94629c-0.681641 0.675781 -12.9521 12.624 -21.3799 19.2305c-4.7793 3.74805 -8.22266 5.79883 -10.9033 6.93164c-4.95312 2.09473 -8.01562 1.37402 -9.43359 1.71191c-0.37207 0.0537109 -10.1777 1.48047 -22.5176 -12.2266
c-7.19727 -7.99316 2.98145 -20.5889 3.20898 -20.792c0.256836 -0.270508 0.625 -0.431641 0.741211 -0.842773v0v0c1.50488 -1.83203 8.5 -10.0771 10.7803 -12.3574zM448.74 312.625l-3.63281 0.731445c0.762695 0.25 2.23828 0.482422 3.63281 -0.731445z
M373.204 439.173c-0.208984 0.3125 -0.0195312 0.0244141 -0.0195312 0.0244141c0.00683594 -0.0078125 0.0195312 -0.0244141 0.0195312 -0.0244141zM598.376 346.312c0.188477 0.947266 0.188477 0.947266 0.810547 3.10254l1.00098 -3.36816l5.07227 -0.163086
c-3.35254 -3.20312 -6.08301 -1.12598 -6.88379 0.428711zM594 232.765c57.6387 0 104.583 -38.2646 104.583 -85.3477c0 -47.083 -46.9443 -85.417 -104.583 -85.417s-104.583 38.2646 -104.583 85.3477s46.9443 85.417 104.583 85.417zM594 68.9443
c53.8193 0 97.6387 35.1396 97.6387 78.4033s-43.8193 78.4717 -97.6387 78.4717s-97.6387 -35.1387 -97.6387 -78.4023c0 -43.2637 43.8193 -78.4727 97.6387 -78.4727zM544.625 143.181l-6.94434 -1.59668c13.6787 -55.7314 97.8721 -53.3477 112.708 0l-6.94434 1.94434
c-13.2461 -46.8467 -86.1826 -49.0068 -98.8193 -0.347656z" />
  </g>

</svg>
