<?xml version="1.0" standalone="no"?>
<!DOCTYPE svg PUBLIC "-//W3C//DTD SVG 1.1//EN" "http://www.w3.org/Graphics/SVG/1.1/DTD/svg11.dtd" >
<svg xmlns="http://www.w3.org/2000/svg" xmlns:xlink="http://www.w3.org/1999/xlink" version="1.1" viewBox="-10 0 1107 1000">
  <g transform="matrix(1 0 0 -1 0 800)">
   <path fill="currentColor"
d="M750 400c57 0 115 32 133 95l2 8l36 -10c-5 -20 -14 -49 -43 -78c-34 -34 -82 -51 -129 -51c-45 0 -90 15 -122 47c-30 30 -38 62 -43 82l37 9c5 -18 10 -41 33 -64c25 -25 61 -38 96 -38zM452 506c0 137 135 248 302 248s302 -111 302 -248s-135 -248 -302 -248
s-302 111 -302 248zM489 506c0 -116 120 -211 265 -211s265 95 265 211s-120 211 -265 211s-265 -95 -265 -211zM-35 510zM-16 510zM822 599c0 15 11 27 24 27s24 -12 24 -27s-11 -27 -24 -27s-24 12 -24 27zM653 600c0 14 11 26 24 26s24 -12 24 -26s-11 -25 -24 -25
s-24 11 -24 25zM381 339c0 3 -3 10 -5 13c-3 2 -11 5 -14 5c-10 0 -17 -7 -24 -14c-3 -3 -7 -4 -11 -4c-6 0 -9 3 -12 6c-1 1 -10 9 -16 11c-3 1 -5 1 -7 1c-3 0 -10 -3 -13 -5c-1 -2 -2 -2 -5 -14c0 -4 2 -13 12 -23l41 -40l41 39c4 4 13 13 13 25zM274 425
c1 -9 1 -22 0 -36c13 5 32 6 53 -9c14 10 24 12 35 12c15 0 31 -8 38 -15c15 -15 28 -52 -8 -88c-43 -42 -49 -47 -50 -48c-9 -8 -22 -8 -31 0l-46 45c-2 -18 -3 -35 -3 -49c0 -6 -1 -31 4 -33c1 0 1 0 1 -1c15 -158 164 -307 172 -310v0l-1 -1h-1l3 -2l-28 -19
c-3 3 -5 5 -12 13c-57 62 -119 129 -167 292c-13 -77 -61 -161 -104 -216c-28 -35 -37 -61 -62 -89l-33 27c20 25 32 42 49 66c10 13 18 26 28 39c118 154 122 358 121 461l34 -1c3 0 8 -1 8 -10c0 -3 -1 -15 0 -28v0zM-10 559zM-26 559z" />
  </g>

</svg>
