<?xml version="1.0" standalone="no"?>
<!DOCTYPE svg PUBLIC "-//W3C//DTD SVG 1.1//EN" "http://www.w3.org/Graphics/SVG/1.1/DTD/svg11.dtd" >
<svg xmlns="http://www.w3.org/2000/svg" xmlns:xlink="http://www.w3.org/1999/xlink" version="1.1" viewBox="-10 0 1023 1000">
  <g transform="matrix(1 0 0 -1 0 800)">
   <path fill="currentColor"
d="M288.519 221.501h-188.778l-1.76043 39.1426h149.986v446.657h-153.65v37.7432h192.781zM611.042 309.757zM570.896 289.688c-7.36523 6.40918 -11.1602 24.4277 -5.72852 30.0801c-0.015625 0.0429688 -1.43164 3.44824 -1.68164 4.23535
c-4.05957 5.74121 -1.50879 7.78613 -3.50195 12.084c-0.235352 0.25 -12.7529 14.7188 -17.1953 27.8613c-0.339844 0.936523 -27.4043 61.6729 -51.7891 85.0518c-7.52734 7.21582 -15.9062 21.1289 -31.8184 35.0371
c-0.490234 0.428711 -41.9688 38.5732 -21.3115 61.5176c10.1074 11.2275 36.6152 40.6709 79.9238 6.7168c14.8936 -11.6758 35.9209 -32.2598 36.2578 -32.6123c-0.0927734 4.35156 -13.2002 103.194 -7.89746 139.431
c0.0292969 0.203125 2.60645 16.0205 5.38672 19.9805c0.411133 7.90039 22.7578 46.9502 63.5469 24.4121c3.66699 7.08789 17.082 17.8242 17.293 17.957c4.35742 2.7002 23.2275 28.8301 36.8506 6.53613c0.201172 -0.331055 23.0811 -5.41211 27.9277 -26.9014
c10.8896 13.4766 10.8896 13.4766 22.4834 18.6807c18.5078 11.2598 47.1328 -7.14551 49.915 -18.4639c3.59961 -5.84473 3.59961 -5.84473 7.27344 -21.4287c16.8721 17.3838 61.2139 21.25 67.0361 -23.124c0.869141 -6.62695 2.78125 -49.833 0.606445 -68.5977
c-0.139648 -1.44824 -8.32129 -107.351 0.859375 -145.478c0.235352 -0.976562 0.948242 -3.50488 -0.424805 -6.2334c2.63379 -29.4814 4.38574 -49.0996 -3.01367 -58.4141c-1.57324 -9.44336 -27.1816 -26.751 -15.1133 -45.2979
c18.2324 -28.0127 -14.666 -48.6992 -25.6367 -48.8486c-13.9512 -5.24512 -72.5967 -9.60449 -73.3223 -9.74805c-1.47363 -0.291992 -122.29 -9.48438 -149.846 10.126c-5.94824 1.85449 -6.61328 5.59375 -7.08008 5.44043zM565.217 371.58
c0 -0.0283203 0.0683594 -0.0556641 0.0722656 -0.0839844zM751.66 676.136c0 -0.0634766 0.0410156 -0.12793 0.0410156 -0.129883c-0.0117188 0.0400391 -0.0410156 0.0830078 -0.0410156 0.129883zM663.426 709.87l0.474609 -0.0527344
c-0.12207 0.0185547 -0.283203 0.0263672 -0.474609 0.0527344zM805.07 684.519l-1.20801 -7.00684l4.02637 1.11914zM579.857 682.706c0.0410156 0.0625 0.0419922 0.109375 0.0488281 0.120117c-0.00292969 -0.00390625 -0.0195312 -0.0458984 -0.0488281 -0.120117z
M721.746 695.882c-11.123 -14.9424 -14.8018 -28.9941 -14.8418 -29.3203c-4.89746 -40.0508 1.64453 -51.9141 -6.16211 -55.3047c-4.45508 -1.93652 -6.83496 33.1328 -13.3242 32.7705c0.130859 0.43457 -0.447266 0.324219 -0.804688 0.383789
c0.399414 3.0459 0.399414 3.0459 0.0722656 7.89844l-1.38672 0.145508c-1.12012 6.26465 -1.80371 13.8418 -1.83008 13.9805l-2.20898 -0.0791016l0.875 5.61035c-3.06445 10.5176 -16.457 36.0186 -16.5674 36.4033c-1.79688 1.5166 -2.12305 1.94238 -9.78516 2.25586
c-8.62012 -3.35742 -11.2998 -5.66406 -15.3818 -15.5283c-7.64648 -18.4736 -2.8252 -22.1279 -13.7578 -52.8408l-10.4004 -19.5c-1.94531 19.1777 -5.07227 50.002 -13.0488 60.4668c-10.6221 5.81152 -10.6221 5.81152 -13.5918 5.97949
c-6.64355 -2.2373 -6.64355 -2.2373 -9.74414 -6.49707c-4.37891 -11.2266 -8.74316 -17.8037 -8.74316 -22.1279c-0.713867 -9.70215 0.0986328 -35.4766 -0.918945 -43.1543c0.119141 -0.283203 -0.578125 -2.19922 2.41504 -30.6201
c6.33203 -60.2969 6.90918 -73.584 7.05371 -74.3164c2.44336 -3.63184 1.21191 -7.37305 -0.0410156 -9.80664c0.115234 -0.413086 0.486328 -2.22852 1.63086 -8.69922c4.25781 -1.58594 6.38672 -15.0537 5.08789 -19.2246
c0 0.170898 -2.01172 -2.18457 -2.01172 -2.18457c-7.20117 1.43945 -7.20117 1.43945 -8.05762 1.58887c-4.35742 -1.25293 -9.23926 -0.191406 -12.0361 2.6709c-3.89453 1.40527 -58.1582 57.7402 -58.6484 58.4072c-5.44824 2.63574 -10.5117 9.31543 -17.0078 10.8008
c-15.4883 3.5332 -30.8555 -9.5293 -31.209 -20.1221c3.95117 -5.91992 -0.212891 -5.35742 10.2305 -17.0527c4.22461 -2.64941 2.88477 -4.9707 6.3584 -7.87793c25.918 -21.6777 60.4277 -65.5361 61.0391 -66.1973c3.69238 -3.99707 26.2334 -44.0215 26.2334 -52.5156
c0 -5.18848 17.8887 -29.8359 30.2588 -50.9678l3.30957 -0.400391l-0.802734 -3.94629l1.29102 -2.24902l-1.32617 -0.450195c2.91992 -10.1162 32.8008 -28.7119 50.5303 -32.6221c2.77637 1.7334 6.85254 2.03613 10.4287 1.09668
c12.667 -3.32715 128.13 8.37598 129.41 8.58301c17.3682 2.80957 27.4229 15.6875 17.6719 26.3945c-3.5166 3.86426 -5.77344 22.8086 -5.76562 23.043l-1.41797 0.908203c2.43262 1.8457 4.03223 4.33203 5.62305 6.82617l0.869141 -0.34375
c0.69043 1.79199 6.92578 11.7666 6.92578 11.9043c0.860352 5.19238 6.56543 8.09082 11.1211 23.584c7.01953 23.9033 -4.62695 53.3467 -0.994141 60.0449c-0.40918 2.93555 -3.66406 37.6406 -3.66406 57.6377c-2.625 16.1963 11.7051 132.959 2.85742 151.297
c-0.150391 0.310547 -3.73926 6.28125 -8.22461 9.07129c0.416016 -0.118164 1.01465 -0.169922 1.01465 -0.169922c-7.62012 1.28027 -7.86719 1.20996 -9.35449 0.0644531c-0.329102 -0.25293 -17.5195 -15.0439 -27.0527 -31.4512
c-3.14258 5.08789 -6.06836 -73.5186 -11.4492 -27.8721c-0.268555 2.27539 -0.929688 11.9658 -3.90039 12c0.160156 8.37891 -2.2041 42.5205 -9.63281 57.9014c-12.8945 26.71 -12.8945 26.71 -27.2129 13.7236zM467.602 508.865
c0.256836 -0.287109 0.441406 -0.487305 0.541016 -0.589844zM551.57 488.869c-0.0820312 0.0712891 -0.158203 0.135742 -0.230469 0.19043zM110.133 172.458h776.365v-284.956h-776.365v284.956zM150.41 -82.2232h695.838l0.709425 224.405h-141.954v-140.097h-40.2744
v140.097h-149.813v-140.097h-40.2754v140.097h-149.814v-140.097h-40.2744v140.097h-134.142v-224.405z" />
  </g>

</svg>
