<?xml version="1.0" standalone="no"?>
<!DOCTYPE svg PUBLIC "-//W3C//DTD SVG 1.1//EN" "http://www.w3.org/Graphics/SVG/1.1/DTD/svg11.dtd" >
<svg xmlns="http://www.w3.org/2000/svg" xmlns:xlink="http://www.w3.org/1999/xlink" version="1.1" viewBox="-10 0 1140 1000">
  <g transform="matrix(1 0 0 -1 0 800)">
   <path fill="currentColor"
d="M631 722c0 36 30 66 66 66s66 -30 66 -66s-30 -66 -66 -66s-66 30 -66 66zM683.219 325.499h313.313l0.654235 157.319c10.9313 -6.46662 21.8625 -12.9332 32.7938 -19.3999l-0.579429 34.8228l-139.465 80.9373l1.17797 0.497505
c-17.363 9.02605 -21.2029 11.1384 -31.5928 17.1546l-212.462 -87.5743v-32.3844l36.3812 15.3247zM966.389 355.716h-252.97l-0.684291 148.819l144.707 60.9528l110.181 -65.1816zM138.776 360.089c42.5779 33.3673 160.916 36.2488 202.283 36.2488
c36.6091 0 55.5502 0 134.285 -9.67032l-11.0335 -3.67784c34.8768 -15.924 38.169 -60.7694 38.169 -91.6171c0 -3.34567 0 -12.1538 -1.0834 -37.4811c-0.00672001 -0.169893 -0.011394 -0.341832 -0.0364446 -0.493395
c0.528598 -2.24101 0.690448 -4.13901 0.730379 -5.29654c2.15004 -2.86705 2.15004 -2.86705 2.2704 -3.04876c21.7836 -32.886 67.3902 -62.7504 67.3902 -98.1598c0 -2.23088 0 -2.23088 -0.966022 -11.1279h-4.77212l-69.1583 -58.5183v-139.982h1.1301
c-0.819872 -8.57724 -0.819872 -8.57724 -0.819872 -9.01494c0 -5.26167 2.98771 -12.9433 2.98771 -21.7565c0 -7.04594 -1.87655 -14.953 -8.76664 -22.3945c-1.70973 -1.84657 -0.939055 -1.80689 -2.70274 -3.57057
c-3.24801 -3.24801 -5.7354 -2.76114 -7.82015 -3.14352c-8.95272 -1.6421 -10.2254 -1.89449 -38.9817 -8.79552l2.41701 4.65848c-121.152 3.97389 -282.096 20.6076 -310.521 79.7991c-9.75646 20.3177 -19.1621 25.0603 -34.8743 32.9828v-31.8932
c17.7005 -10.2728 27.1211 -22.3072 39.1506 -38.706c17.1884 -23.4314 133.729 -61.8849 209.529 -61.8849c4.36287 0 8.54399 0.13446 12.509 0.41351l0.281142 0.0197861h0.281897c0.639833 0 1.27967 -0.00952528 1.9195 -0.00952528
c1.01249 0.0249818 2.11413 0.0365792 3.29951 0.0365792c0.791938 0 62.4565 -2.05889 79.1671 -2.05889c17.5578 0 58.6654 0.878237 66.7174 8.93019c14.2155 14.2141 17.4483 37.1817 17.4483 56.9079c0 4.65054 -0.179682 9.12092 -0.4375 13.254l-0.0146543 0.234923
v152.545l57.9145 46.3145l6.62801 7.73217c0.765049 4.13859 1.28606 7.10586 1.28606 9.91968c0 22.5198 -42.9238 64.9096 -66.107 103.427c-0.123819 5.08309 -0.140111 6.85061 -0.140111 10.4896c0 5.17667 0.0772375 11.8121 0.245935 21.181l0.0159301 0.883827
c0.114673 6.35832 0.211669 12.7614 0.211669 19.1369c0 63.0997 -9.74801 114.332 -89.5286 114.332c-2.13743 0 -2.13743 0 -12.0557 -0.210223v0.784905c-87.587 7.74864 -87.587 7.74864 -122.139 7.74864c-59.9744 0 -125.193 -7.90408 -171.749 -38.2702z
M480.632 632.738l-40.1261 -94.5197l-231.693 0.890411l-43.0976 98.9761l83.201 -36.5497l77.2291 97.1289l74.2568 -101.584zM119.775 678.314l63.0838 -159.317h296.139l50.0292 158.741l-113.817 -49.4847l-90.3309 112.191l-90.6052 -112.191zM239.07 195.811
c-20.6178 0 -41.8645 -11.1177 -50.8618 -20.115c-8.0834 -8.0834 -19.4034 -30.268 -19.4034 -49.2068c0 -1.09528 0.0323745 -2.3826 0.0864104 -3.5333l0.00774715 -0.164976v-0.165173c0.109665 -34.1712 27.39 -61.3872 32.6937 -65.9315l77.0252 -74.5902
c4.11904 -3.98807 9.55796 -6.42104 15.6093 -6.42104c8.24866 0 12.8467 4.02964 15.6621 6.49695c0.821836 0.720239 58.3619 55.847 78.5181 76.0033c30.0957 30.0957 31.4961 55.5227 31.4961 68.0491v0.166016c0 19.0184 -9.87088 39.6781 -20.429 50.2362
c-8.26392 8.26392 -31.2035 19.4536 -50.1418 19.482c-23.8219 -0.477851 -33.7521 -5.99234 -55.2977 -21.997c-14.1458 10.4978 -29.8826 21.6914 -54.965 21.6914zM390.9 126.366c0 -0.525424 -0.0877604 -3.04348 -0.0888672 -3.07422
c0 -13.0193 -6.7188 -28.6766 -23.9938 -45.303l-72.4188 -69.7c-73.214 70.6241 -73.214 70.6241 -73.5721 70.9822c-5.52056 5.52056 -21.6857 21.6857 -22.6515 46.1787c5.3209 18.2974 7.9196 27.2337 12.0459 30.4581c7.80163 6.09653 20.4095 10.8287 29.3496 10.8287
c18.6639 0 35.6134 -14.06 44.3189 -22.7655c4.51129 -4.51129 5.87108 -5.96004 10.4672 -5.96004c1.28724 0 4.50904 0 8.09113 3.58209c10.2773 10.2773 24.8398 25.1601 47.0056 25.1601c12.3772 0 27.5421 -8.35978 30.5487 -11.9702
c6.01336 -7.22115 10.8981 -19.5141 10.8981 -28.417z" />
  </g>

</svg>
