<?xml version="1.0" standalone="no"?>
<!DOCTYPE svg PUBLIC "-//W3C//DTD SVG 1.1//EN" "http://www.w3.org/Graphics/SVG/1.1/DTD/svg11.dtd" >
<svg xmlns="http://www.w3.org/2000/svg" xmlns:xlink="http://www.w3.org/1999/xlink" version="1.1" viewBox="-10 0 1012 1000">
  <g transform="matrix(1 0 0 -1 0 800)">
   <path fill="currentColor"
d="M659.034 706.66c0 2.82715 -0.180664 3.37695 -0.180664 7.00586c0 0.867188 0.0185547 1.84375 0.0185547 1.86328c0 3.67969 -2.25 7.5127 -6.94824 7.61328c-7.47656 0.165039 -7.47656 0.165039 -7.54004 0.165039c-3.02539 0 -5.59766 -2.42188 -5.59668 -5.64648
c0.00976562 -1.1875 0.0166016 -2.42383 0.0166016 -3.70605c0 -24.7471 -2.37793 -66.3643 -26.3516 -97.8545c-2.41211 -3.16992 -11.8535 -16.3066 -17.4736 -23.5918c-0.774414 -1.00391 -1.16113 -2.20996 -1.16113 -3.41602
c0 -1.43359 0.545898 -2.86719 1.63867 -3.95996c0.0957031 -0.0957031 0.118164 -0.142578 7.4873 -5.97559c1.01367 -0.802734 2.24219 -1.2041 3.4707 -1.2041c3.23145 0 5.18457 2.10742 11.5312 12.0029c2.06348 3.21582 4.27441 6.66992 6.86914 9.96484
c6.18652 7.85645 12.7588 18.1934 17.6943 29.3408c0.0849609 0.191406 0.71582 1.48633 2.28516 1.48633c1.0293 0 1.91895 -0.62207 2.30078 -1.51953c9.95215 -23.4111 20.3564 -34.6973 33.9297 -49.4668c0.547852 -0.597656 1.92773 -1.80762 4.12695 -1.80762
c1.69531 0 1.69531 0 9.22168 5.01758c0.495117 0.330078 2.04492 1.5459 2.04492 3.82324c0 0.0517578 -0.104492 3.39844 -1.58691 4.94238c-8.71777 7.31445 -34.8721 37.4736 -37.6436 67.2793c-0.282227 3.03516 -1.06934 0.25 -1.06934 5.54102
c0 10.8223 2.91602 30.4902 2.91602 42.1025zM741.034 545.659c0 2.8252 -0.180664 3.37891 -0.180664 7.01367c0 0.866211 0.0185547 1.83789 0.0185547 1.85645c0 3.67969 -2.25 7.51367 -6.94824 7.61426c-7.47754 0.164062 -7.47754 0.164062 -7.54102 0.164062
c-3.02539 0 -5.5957 -2.42285 -5.5957 -5.64551c0.00976562 -1.1875 0.0166016 -2.4248 0.0166016 -3.70703c0 -24.7461 -2.37793 -66.3643 -26.3506 -97.8545c-0.177734 -0.233398 -13.4932 -18.4307 -17.4746 -23.5918
c-0.774414 -1.00293 -1.16113 -2.20898 -1.16113 -3.41504c0 -1.43359 0.546875 -2.86719 1.65723 -3.97754c0.0634766 -0.0634766 0.240234 -0.236328 7.46875 -5.95898c1.01367 -0.802734 2.24219 -1.2041 3.4707 -1.2041c3.23145 0 5.18457 2.1084 11.5312 12.002
c2.0625 3.21582 4.27441 6.6709 6.86914 9.96582c6.18652 7.85645 12.7588 18.1934 17.6943 29.3418c0.0849609 0.19043 0.71582 1.48535 2.28516 1.48535c1.0293 0 1.91895 -0.62207 2.30078 -1.51953c9.95312 -23.4121 20.3574 -34.6982 33.9316 -49.4688
c0.541016 -0.589844 1.92285 -1.80566 4.125 -1.80566c1.69531 0 1.69531 0 9.22266 5.01758c0.493164 0.330078 2.04395 1.54492 2.04395 3.82422c0 0.0517578 -0.103516 3.39648 -1.58594 4.94141c-8.70508 7.30176 -34.8721 37.4648 -37.6445 67.2793
c-0.283203 3.03613 -1.06836 0.251953 -1.06836 5.54199c0 10.8213 2.91504 30.4893 2.91504 42.1006zM554.034 550.66c0 2.82812 -0.180664 3.38184 -0.180664 7.0166c0 0.864258 0.0175781 1.83398 0.0175781 1.85254c0 3.67969 -2.24902 7.5127 -6.94727 7.61328
c-7.47656 0.165039 -7.47656 0.165039 -7.54004 0.165039c-3.02637 0 -5.59766 -2.42285 -5.59766 -5.64648c0.0107422 -1.1875 0.0166016 -2.42383 0.0166016 -3.70605c0 -24.7461 -2.37695 -66.3643 -26.3506 -97.8545
c-2.42676 -3.18848 -11.8428 -16.292 -17.4746 -23.5918c-0.774414 -1.00391 -1.16113 -2.20996 -1.16113 -3.41602c0 -1.43359 0.546875 -2.86719 1.63965 -3.95996c0.0957031 -0.0957031 0.118164 -0.142578 7.4873 -5.97559
c1.01367 -0.802734 2.24219 -1.2041 3.4707 -1.2041c3.23145 0 5.18262 2.10547 11.5303 12.001c2.06348 3.2168 4.27539 6.6709 6.87012 9.9668c6.18652 7.85645 12.7578 18.1934 17.6943 29.3418c0.0849609 0.191406 0.71582 1.48535 2.28516 1.48535
c1.0293 0 1.91895 -0.62207 2.30078 -1.51953c9.95117 -23.4102 20.3555 -34.6963 33.9277 -49.4648c0.553711 -0.604492 1.93359 -1.80957 4.12793 -1.80957c1.69629 0 1.69629 0 9.22266 5.01758c0.495117 0.331055 2.04492 1.5459 2.04492 3.82324
c0 0.0527344 -0.104492 3.39844 -1.58691 4.94238c-8.71777 7.31543 -34.8721 37.4707 -37.6436 67.2793c-0.282227 3.03516 -1.06934 0.25 -1.06934 5.54297c0 10.8223 2.91602 30.4893 2.91602 42.1006zM410 548c0 109.967 100.394 199.251 224.251 199.251
c123.852 0 224.251 -89.2803 224.251 -199.251c0 -109.967 -100.394 -199.251 -224.251 -199.251c-123.852 0 -224.251 89.2803 -224.251 199.251zM386.502 551c0 -122.024 111.095 -220.749 247.749 -220.749c136.653 0 247.749 98.7236 247.749 220.749
c0 122.024 -111.095 220.749 -247.749 220.749c-136.653 0 -247.749 -98.7236 -247.749 -220.749zM348.481 97.6934l-82.2217 148.848l24.0225 10.1475l58.4395 -100.383l53.3027 101.418l27.2285 -11.0254zM265.568 -67.707v34.6641h38.626v22.0713h-38.626v34.6641h38.626
v33.7148h31.3828v-33.7148h23.2197v31.2539h31.3828v-31.2539h41.292v-34.6641h-41.292v-22.0713h41.292v-34.6641h-41.292v-36.1855h-31.3828v36.1855h-23.2197v-33.7246h-31.3828v33.7246h-38.626zM335.577 -33.043h23.2197v22.0713h-23.2197v-22.0713zM780.659 223.904
c-0.529297 0 -0.985352 0.173828 -1.32227 0.358398l-214.094 -88.2627v-37.8242c12.126 5.10742 24.251 10.2148 36.376 15.3213v-3.77051l-0.21875 -161.659h318.305l0.646484 155.446c10.9619 -6.48535 21.9238 -12.9697 32.8867 -19.4551l-0.677734 40.7051
l-136.33 79.1182l1.46387 0.616211c-22.6963 11.7715 -24.457 12.7314 -36.2109 19.5508c-0.288086 -0.102539 -0.56543 -0.144531 -0.824219 -0.144531zM884.594 -16.7148h-248.003l-0.665039 144.662l142.009 59.8174l107.859 -63.8086zM63.3545 -23.4795h55.5146
l17.1611 52.2256l17.1602 -52.2256h55.5156l-44.8672 -32.2959l17.1611 -52.2246l-44.9697 32.2959l-44.9707 -32.2959l17.1611 52.2246z" />
  </g>

</svg>
