<?xml version="1.0" standalone="no"?>
<!DOCTYPE svg PUBLIC "-//W3C//DTD SVG 1.1//EN" "http://www.w3.org/Graphics/SVG/1.1/DTD/svg11.dtd" >
<svg xmlns="http://www.w3.org/2000/svg" xmlns:xlink="http://www.w3.org/1999/xlink" version="1.1" viewBox="-10 0 1253 1000">
  <g transform="matrix(1 0 0 -1 0 800)">
   <path fill="currentColor"
d="M801.698 194.017c5.91211 0 16.5811 0 34.5449 -13.1875c15.9912 -11.7393 15.9365 -15.541 19.5225 -15.541c0.212891 0 0.449219 0.00292969 0.71875 0.00292969c2.43652 0 3.76074 1.32422 4.55566 2.11914c10.1748 10.1748 25.9375 26.623 50.541 26.623
c12.1182 0 29.8311 -8.29297 34.3945 -13.7725c6.40723 -7.69531 12.0508 -22.0205 12.0508 -31.6133c0 -8.41992 0 -26.3105 -25.4287 -51.8018l-76.0752 -73.2188c-76.7129 73.999 -76.7129 73.999 -77.1035 74.3896c-6.69043 6.69043 -23.0684 23.0684 -24.1436 50.333
c5.95117 20.4648 8.59668 29.5615 13.998 33.7832c8.15332 6.37109 22.7031 11.8838 32.4248 11.8838v0zM801.198 213.093v0c24.0811 0 37.8311 -10.2041 54.9668 -22.9199c23.5508 17.4941 31.3545 22.7422 55.3408 23.2256
c17.2891 -0.0488281 39.4453 -10.9023 46.5615 -18.0186c9.68066 -9.68066 18.9648 -29.3574 18.9648 -46.7002v-0.166016c0 -11.7998 -1.00293 -35.4844 -30.0322 -64.5137c-19.5693 -19.5693 -77.4561 -75.0576 -78.2754 -75.7754
c-2.60156 -2.28027 -6.00293 -5.26172 -12.3691 -5.26172c-4.6582 0 -8.87012 1.85742 -12.1318 5.01562l-77.1377 74.6982c-6.20605 5.31152 -30.9609 31.3125 -31.0605 62.2461v0.275391l-0.0126953 0.275391c-0.0498047 1.07227 -0.0810547 2.2959 -0.0810547 3.29688
c0 17.2422 10.9375 38.6689 17.9404 45.6709c8.2207 8.22168 28.5078 18.6514 47.3262 18.6514zM801.698 194.017v0c-9.72168 0 -24.2715 -5.5127 -32.4248 -11.8838c-5.40137 -4.22168 -8.04688 -13.3184 -13.998 -33.7832
c1.0752 -27.2646 17.4531 -43.6426 24.1436 -50.333c0.390625 -0.390625 0.390625 -0.390625 77.1035 -74.3896l76.0752 73.2188c25.4287 25.4912 25.4287 43.3818 25.4287 51.8018c0 9.59277 -5.64355 23.918 -12.0508 31.6133
c-4.56348 5.47949 -22.2764 13.7725 -34.3945 13.7725c-24.6035 0 -40.3662 -16.4482 -50.541 -26.623c-0.794922 -0.794922 -2.11914 -2.11914 -4.55566 -2.11914c-0.269531 0 -0.505859 -0.00292969 -0.71875 -0.00292969c-3.58594 0 -3.53125 3.80176 -19.5225 15.541
c-17.9639 13.1875 -28.6328 13.1875 -34.5449 13.1875zM801.198 213.093c-18.8184 0 -39.1055 -10.4297 -47.3262 -18.6514c-7.00293 -7.00195 -17.9404 -28.4287 -17.9404 -45.6709c0 -1.00098 0.03125 -2.22461 0.0810547 -3.29688l0.0126953 -0.275391v-0.275391
c0.0996094 -30.9336 24.8545 -56.9346 31.0605 -62.2461l77.1377 -74.6982c3.26172 -3.1582 7.47363 -5.01562 12.1318 -5.01562c6.36621 0 9.76758 2.98145 12.3691 5.26172c0.819336 0.717773 58.7061 56.2061 78.2754 75.7754
c29.0293 29.0293 30.0322 52.7139 30.0322 64.5137v0.166016c0 17.3428 -9.28418 37.0195 -18.9648 46.7002c-7.11621 7.11621 -29.2725 17.9697 -46.5615 18.0186c-23.9863 -0.483398 -31.79 -5.73145 -55.3408 -23.2256
c-17.1357 12.7158 -30.8857 22.9199 -54.9668 22.9199v0zM123.231 138.457v0v17.2783l301.03 -0.331055l2.73828 -155.404l-303.769 -0.361328v17.293h282.431v121.525h-282.431zM1103.39 476.55h0.00097656c0 -1.56543 0 -1.56543 0.203125 -17.6953l34.3184 -48.9014
l33.0234 -43.4482l23.3311 -38.8438c1.78711 -5.37598 3.76074 -10.5664 3.31152 -18.1787l-1.11426 -7.19531l-7.68555 -8.9668l-84.7842 -67.8018l0.00585938 -87.5186l-0.0292969 -84.2285l0.268555 -82.9482l-6.27637 -34.1602l-15.1377 -25.207l-51.1064 -12.4922
l-89.7607 -0.253906l-68.0801 1.97266c-23.9795 0.694336 -30.2207 2.51953 -83.0469 7.42676l-40.835 3.74609l-123.979 35.7695l-70.2637 41.1387c-16.1709 20.9043 -16.1709 20.9043 -17.2002 21.8066c-8.5293 7.46973 -3.29785 5.2998 -10.625 11.9258
c-10.9326 9.8877 -19.0225 13.3789 -24.4395 17.251v31.4629c3.62891 -2.30469 18.3965 -12.5254 18.583 -12.6523c7.29102 -10.5146 14.582 -21.0303 21.873 -31.5449l119.909 -72.0264l189.706 -31.9736l127.95 3.2207
c3.39551 -0.302734 6.79004 -0.446289 10.1738 -0.446289c16.1191 0 25.0684 2.14062 53.7939 9.0127c5.58105 4.73145 7.13965 7.69336 8.94531 11.126c3.18262 6.05273 12.7061 26.75 12.835 27.0205c-2.2334 23.8652 -4.05566 38.3145 -5.01855 45.877l3.2002 219.288
l96.7109 80.249c-7.97656 11.168 -15.9531 22.335 -23.9297 33.502l-38.0439 60.0684l-30.4463 40.7334c-0.351562 0.47168 -0.998047 1.41504 -1.48633 2.05664c-0.0869141 0.93457 -0.222656 1.88477 -0.495117 2.92188
c-0.916016 3.4873 -0.673828 5.47363 10.623 98.1973l-24.6855 76.583l-72.0586 32.085l-163.858 8.05859l-168.52 -13.9912l-90.1514 -34.2041l-4.97461 24.8711l135.512 48.0127l161.614 4.84277l107.702 -8.96094v-0.765625
c15.9834 -0.617188 31.9668 -1.2334 47.9502 -1.85059l33.9414 -8.02539l29.8359 -19.125l24.0576 -41.7607l8.69434 -54.7803l0.318359 -61.374c0 -3.42285 -0.360352 -19.4062 -0.360352 -28.9053zM402.17 406.378l-56.1504 72.1445l-58.7861 -68.8682l-67.0537 29.4541
l33.4082 -76.6797l189.57 -0.679688l23.2539 73.1816zM194.104 465.335l89.1592 -37.377l61.5371 76.9561l60.4961 -78.3125l89.3555 38.002l-36.9492 -117.238h-216.888zM239.795 345.866zM344 250c124.224 0 225 79.2168 225 176.4
c0 97.1885 -100.785 176.398 -225 176.398c-124.224 0 -225 -79.2148 -225 -176.398c0 -97.1904 100.785 -176.4 225 -176.4zM344 624.4c137.413 0 248.4 -87.6084 248.4 -196.2c0 -108.596 -110.992 -196.2 -248.4 -196.2c-137.413 0 -248.4 87.6084 -248.4 196.2
c0 108.596 110.992 196.2 248.4 196.2z" />
  </g>

</svg>
