<?xml version="1.0" standalone="no"?>
<!DOCTYPE svg PUBLIC "-//W3C//DTD SVG 1.1//EN" "http://www.w3.org/Graphics/SVG/1.1/DTD/svg11.dtd" >
<svg xmlns="http://www.w3.org/2000/svg" xmlns:xlink="http://www.w3.org/1999/xlink" version="1.1" viewBox="-10 0 1008 1000">
  <g transform="matrix(1 0 0 -1 0 800)">
   <path fill="currentColor"
d="M232.481 97.6934l-82.2217 148.848l24.0225 10.1475l58.4395 -100.383l53.3027 101.418l27.2285 -11.0254zM149.568 -67.707v34.6641h38.626v22.0713h-38.626v34.6641h38.626v33.7148h31.3828v-33.7148h23.2197v31.2539h31.3828v-31.2539h41.292v-34.6641h-41.292
v-22.0713h41.292v-34.6641h-41.292v-36.1855h-31.3828v36.1855h-23.2197v-33.7246h-31.3828v33.7246h-38.626zM219.577 -33.043h23.2197v22.0713h-23.2197v-22.0713zM664.659 223.905c-0.528664 0 -0.985482 0.173609 -1.32195 0.35837l-214.093 -88.2633v-37.8236
l36.3751 15.3214v-3.77139l-0.218472 -161.658h318.305l0.646464 155.446l32.8863 -19.4552l-0.67749 40.7048l-136.33 79.1188l1.46379 0.61569c-22.6968 11.7717 -24.4573 12.7314 -36.2113 19.5513c-0.288261 -0.102785 -0.564955 -0.144581 -0.824352 -0.144581z
M768.594 -16.7153h-248.002l-0.665609 144.662l142.009 59.8176l107.859 -63.8083zM38.3242 728.225h55.5146l17.1611 52.2256l17.1602 -52.2256h55.5156l-44.8672 -32.2959l17.1611 -52.2246l-44.9697 32.2959l-44.9707 -32.2959l17.1611 52.2246zM722.811 439.266
c-8.67773 0 -8.67773 0 -57.499 0.448242l0.0634766 0.342773h-3.42773l3.04492 186.218l-67.4844 37.0859v10.7041l63.4961 -36.2432c3.54688 -0.00878906 7.25781 0.00292969 11.2295 0.0234375l-43.7432 82.2803h12.4258l43.7012 -82.1982l1.8291 0.0136719
l0.703125 112.767h14.2734l-0.702148 -112.694c1.39062 0 2.78223 0.00195313 4.17285 0.00195313l47.3223 89.8438h12.4219l-46.8652 -88.9756l58.168 23.3799v-10.9033c-15.7783 -6.97559 -31.5352 -13.9727 -47.3262 -20.9355l-8.72559 -2.07812l1.52734 -50.877
l12.5479 7.2959l2.74121 -17.8145l-14.7051 -8.9502l3.62207 -120.637c-0.9375 0.634766 -1.87402 1.26855 -2.81152 1.90234zM708.923 452.837l-4.3623 174.493h-2.25391l2.61719 -174.493h3.99902zM684.684 453.26v174.565l-2.60254 0.305664l-0.87207 -175.225z
M343.899 414.59c-4.00876 0 -10.8445 -0.205078 -10.9541 -0.205078c-13.3601 0 -29.6724 7.29687 -38.3098 16.2866c-10.451 10.5584 -18.3211 29.6889 -18.3211 44.5542c0 24.6904 16.5816 57.4531 64.8905 64.4183c0.150699 17.0941 1.8683 50.2992 21.4447 69.8766
c8.1595 8.15952 22.6008 14.1504 34.1179 14.1504c0.72281 0 0.72281 0 6.21972 -0.159794v-16.6691c-5.64396 0.163857 -5.64396 0.163857 -6.09961 0.163857c-6.76364 0 -17.6396 -4.49975 -22.4302 -9.28641c-13.5601 -13.5609 -16.0879 -41.7285 -16.4745 -57.1591
c0.499836 -0.02457 30.3372 -1.60238 46.7059 -17.971c7.30306 -7.30306 18.4713 -22.0565 18.4713 -43.9926c0 -22.828 -15.0277 -46.4129 -23.4091 -53.7687c-7.38274 -6.47937 -19.8391 -11.1727 -29.6778 -11.1727
c-0.0525824 0 -0.132445 0.000336346 -0.211716 0.000336346c-0.522832 -0.0178883 -1.66621 -0.0286567 -1.66621 -0.0286567c-0.24315 0 -16.2602 0.962891 -24.2959 0.962891zM353.3 523.877c-19.1594 0 -60.0547 -11.4396 -60.0547 -48.9736
c0 -9.82424 6.16287 -25.466 13.6493 -32.9525c5.68382 -5.68382 18.0316 -10.8337 25.9357 -10.8337c0.115718 -2.99997e-09 0.366338 0.00187619 0.494835 0.00350273c21.1427 0.00012746 15.4275 0.0130988 15.5833 0.0130988
c8.04784 0 20.869 -1.03027 21.0801 -1.03027c5.63943 0 15.4503 3.79284 19.1301 7.47268c6.81228 6.81228 17.5046 24.762 17.5046 41.7451c0 14.3595 -8.69765 28.9285 -18.3088 35.1975c-8.65836 4.96117 -25.1078 9.3582 -35.0145 9.3582zM436.6 660.311l-180 0.600586
v11.877h161.389v67.4453h-161.389v11.877l178.4 -1z" />
  </g>

</svg>
