<?xml version="1.0" standalone="no"?>
<!DOCTYPE svg PUBLIC "-//W3C//DTD SVG 1.1//EN" "http://www.w3.org/Graphics/SVG/1.1/DTD/svg11.dtd" >
<svg xmlns="http://www.w3.org/2000/svg" xmlns:xlink="http://www.w3.org/1999/xlink" version="1.1" viewBox="-10 0 1008 1000">
  <g transform="matrix(1 0 0 -1 0 800)">
   <path fill="currentColor"
d="M348.481 97.6934l-82.2217 148.848l24.0225 10.1475l58.4395 -100.383l53.3027 101.418l27.2285 -11.0254zM265.568 -67.707v34.6641h38.626v22.0713h-38.626v34.6641h38.626v33.7148h31.3828v-33.7148h23.2197v31.2539h31.3828v-31.2539h41.292v-34.6641h-41.292
v-22.0713h41.292v-34.6641h-41.292v-36.1855h-31.3828v36.1855h-23.2197v-33.7246h-31.3828v33.7246h-38.626zM335.577 -33.043h23.2197v22.0713h-23.2197v-22.0713zM347 572l-82.2217 148.848l24.0225 10.1475l58.4395 -100.383l53.3027 101.418l27.2285 -11.0254z
M264.087 406.6v34.6641h38.626v22.0713h-38.626v34.6641h38.626v33.7148h31.3828v-33.7148h23.2197v31.2539h31.3828v-31.2539h41.292v-34.6641h-41.292v-22.0713h41.292v-34.6641h-41.292v-36.1855h-31.3828v36.1855h-23.2197v-33.7246h-31.3828v33.7246h-38.626z
M334.096 441.264h23.2197v22.0713h-23.2197v-22.0713zM780.659 223.904c-0.529297 0 -0.985352 0.173828 -1.32227 0.358398l-214.094 -88.2627v-37.8242c12.126 5.10742 24.251 10.2148 36.376 15.3213v-3.77051l-0.21875 -161.659h318.305l0.646484 155.446
c10.9619 -6.48535 21.9238 -12.9697 32.8867 -19.4551l-0.677734 40.7051l-136.33 79.1182l1.46387 0.616211c-22.6963 11.7715 -24.457 12.7314 -36.2109 19.5508c-0.288086 -0.102539 -0.56543 -0.144531 -0.824219 -0.144531zM884.594 -16.7148h-248.003
l-0.665039 144.662l142.009 59.8174l107.859 -63.8086zM63.3545 -23.4795h55.5146l17.1611 52.2256l17.1602 -52.2256h55.5156l-44.8672 -32.2959l17.1611 -52.2246l-44.9697 32.2959l-44.9707 -32.2959l17.1611 52.2246zM809.921 385.106
c-9.85938 0 -9.85938 0 -65.3252 0.508789l0.0722656 0.389648h-3.89355l3.45898 211.562l-76.668 42.1328v12.1611l72.1377 -41.1758c4.0293 -0.00976562 8.24512 0.00292969 12.7568 0.0263672l-49.6953 93.4785h14.1162l49.6484 -93.3848l2.0791 0.0146484
l0.797852 128.114h16.2158l-0.797852 -128.031c1.58105 0 3.16113 0.00195312 4.74121 0.00195312l53.7627 102.071h14.1123l-53.2441 -101.085l66.085 26.5625v-12.3877c-17.9258 -7.92578 -35.8262 -15.875 -53.7666 -23.7852l-9.91406 -2.36035l1.73535 -57.8008
l14.2568 8.28809l3.11328 -20.2393l-16.7061 -10.168l4.11523 -137.055c-1.06543 0.720703 -2.12988 1.44141 -3.19434 2.16113zM794.144 400.525l-4.95703 198.24h-2.55957l2.97363 -198.24h4.54297zM766.604 401.005v198.323l-2.95605 0.347656l-0.990234 -199.073z" />
  </g>

</svg>
