<?xml version="1.0" standalone="no"?>
<!DOCTYPE svg PUBLIC "-//W3C//DTD SVG 1.1//EN" "http://www.w3.org/Graphics/SVG/1.1/DTD/svg11.dtd" >
<svg xmlns="http://www.w3.org/2000/svg" xmlns:xlink="http://www.w3.org/1999/xlink" version="1.1" viewBox="-10 0 1008 1000">
  <g transform="matrix(1 0 0 -1 0 800)">
   <path fill="currentColor"
d="M317.401 752.339c1.47754 -26.2393 -10.9922 -100.982 -3.65723 -104.905c7.20117 -77.4209 82.1582 -149.758 82.2539 -146.966l-12.7021 -8.46777c-28.5752 31.168 -60.46 62.0146 -84.7568 146.472c-5.4082 -37.1885 -28.6367 -78.8398 -49.5078 -105.346
c-12.7002 -16.1279 -18.1445 -29.0303 -29.0312 -41.126l-14.5156 11.4912c16.3301 21.168 25.4961 34.8115 36.2891 48.9883c55.1045 72.3848 57.4092 167.422 56.9824 217.771c5.12695 -0.112305 10.2549 -0.225586 15.3828 -0.338867
c2.88477 -0.0625 3.00195 -2.86719 3.05273 -4.06348c0.00585938 -0.135742 -0.1875 -6.43652 0.209961 -13.5088zM332.481 97.6934l-82.2217 148.848l24.0225 10.1475l58.4395 -100.383l53.3027 101.418l27.2285 -11.0254zM249.568 -67.707v34.6641h38.626v22.0713h-38.626
v34.6641h38.626v33.7148h31.3828v-33.7148h23.2197v31.2539h31.3828v-31.2539h41.292v-34.6641h-41.292v-22.0713h41.292v-34.6641h-41.292v-36.1855h-31.3828v36.1855h-23.2197v-33.7246h-31.3828v33.7246h-38.626zM319.577 -33.043h23.2197v22.0713h-23.2197v-22.0713z
M764.659 223.904c-0.529297 0 -0.985352 0.173828 -1.32227 0.358398l-214.094 -88.2627v-37.8242c12.126 5.10742 24.251 10.2148 36.376 15.3213v-3.77051l-0.21875 -161.659h318.305l0.646484 155.446c10.9619 -6.48535 21.9238 -12.9697 32.8867 -19.4551
l-0.677734 40.7051l-136.33 79.1182l1.46387 0.616211c-22.6963 11.7715 -24.457 12.7314 -36.2109 19.5508c-0.288086 -0.102539 -0.56543 -0.144531 -0.824219 -0.144531zM868.594 -16.7148h-248.003l-0.665039 144.662l142.009 59.8174l107.859 -63.8086z
M38.3545 -39.4795h55.5146l17.1611 52.2256l17.1602 -52.2256h55.5156l-44.8672 -32.2959l17.1611 -52.2246l-44.9697 32.2959l-44.9707 -32.2959l17.1611 52.2246zM528.6 480l2.90918 32.2988h399.4l-2.90918 -32.2988h-399.4zM606.758 512.3v94.7656h30.8721v-94.7656
h-30.8721zM709.021 512.299v90.7354h30.8711v-90.7354h-30.8711zM819 510.283v88.7168h34.7295v-88.7168h-34.7295zM69.3994 373.28l0.200195 -25.2666h500.001l-0.200195 25.2666h-500.001z" />
  </g>

</svg>
