<?xml version="1.0" standalone="no"?>
<!DOCTYPE svg PUBLIC "-//W3C//DTD SVG 1.1//EN" "http://www.w3.org/Graphics/SVG/1.1/DTD/svg11.dtd" >
<svg xmlns="http://www.w3.org/2000/svg" xmlns:xlink="http://www.w3.org/1999/xlink" version="1.1" viewBox="-10 0 1051 1000">
  <g transform="matrix(1 0 0 -1 0 800)">
   <path fill="currentColor"
d="M271 608l-12 60c128.725 89.7881 355.203 55.3633 442.457 48.5605c0 -0.0107422 0.000976562 -0.0214844 0.000976562 -0.0322266c27.4463 0.582031 75.1855 -1.32129 107.268 -33.4033c40.1396 -40.1396 38.6152 -108.841 37.5254 -169.365
c-0.395508 -21.9258 -0.433594 -33.2402 -0.22168 -41.9463c26.3789 -43.8281 72.168 -89.959 89.3252 -129.607c6.95117 -16.0635 5.49219 -24.7637 2.64551 -40.2051l-12 -14l-79.501 -63.5771v-212.431c1.93945 -31.0869 1.82422 -79.2412 -27.416 -108.48
c-26.0322 -26.0322 -182.507 -12.0195 -220.584 -13.0049l-2.90137 0.0126953c-103.732 -7.2998 -296.108 50.6025 -326.603 92.1719c-18.5059 25.2275 -31.4014 41.2529 -57.9951 55.3086v70.0371c25.8174 -16.2627 49.624 -17.8066 70.1904 -60.6357
c44.2188 -92.082 349.455 -105.734 451.309 -108.438l-0.499023 -0.962891c50 12 34.1514 4.48145 42.5352 13.5361c19.1768 20.7119 3.97852 41.9688 5.50781 57.9648h-0.541992v2.14941c-0.253906 0.990234 -0.500977 1.94141 -0.738281 2.84863h0.738281v207.174v3.4873
v1.33887h1.58203l104 88h1.13281c4.9834 45.8955 -62.8379 92.1289 -94.2158 139.501l-3 4l-1 1c-2.02051 3.99219 0.0439453 4.02539 -2.08398 11.5605c-0.0371094 0.130859 -0.189453 0.24707 -0.174805 0.367188l0.258789 2.07227l0.0644531 1.49902
c0.00976562 0.226562 0.150391 3.89551 0.242188 6.24414c3.11426 79.1523 14.1973 176.389 -74.8154 176.771c-136.35 16.7461 -373.536 9.53418 -431.49 -46.5137zM30.3545 728.521h55.5146l17.1611 52.2256l17.1602 -52.2256h55.5156l-44.8672 -32.2959l17.1611 -52.2246
l-44.9697 32.2959l-44.9707 -32.2959l17.1611 52.2246zM352.205 358.058l-49.7842 45.0967l8.06738 5.94238l38.5732 -35.4297l68.7793 87.1221l10.959 -5.03613zM368.585 296.102c-66.3193 0.0390625 -123.115 54.4756 -123.115 123.643
c0 68.25 55.3916 123.645 123.645 123.645c68.252 0 123.645 -55.3936 123.645 -123.639c-0.291016 -68.2539 -55.9248 -123.648 -124.174 -123.648zM503.248 419.746c-0.295898 74.0459 -60.624 134.134 -134.666 134.134c-71.7178 0 -133.602 -58.8516 -133.602 -134.13
c0 -74.0479 60.0967 -134.134 134.134 -134.134c74.0459 0 134.134 60.0947 134.134 134.13zM636.475 272.964c0 1.31738 -1.3252 4.93066 -2.46289 6.4082c-1.57422 1.16797 -5.35742 2.51562 -6.80078 2.51562c-5.2207 0 -8.95801 -3.62305 -12.3408 -7.00684
c-1.45898 -1.45898 -3.375 -2.18945 -5.29004 -2.18945c-3.08789 0 -4.79102 1.69043 -6.17871 3.07715c-0.287109 0.288086 -5.20898 4.60645 -8.10254 5.56152c-1.32031 0.435547 -2.18359 0.552734 -3.25 0.552734c-1.37695 0 -5.00586 -1.24707 -6.72266 -2.46387
c-0.730469 -1.15527 -0.755859 -1.23926 -2.5 -7.23438c0.144531 -2.23145 1.19922 -6.78516 6.22656 -11.6348l20.543 -19.8164l20.3984 19.6328c2.20605 2.20996 6.48047 6.55273 6.48047 12.5977zM583.194 315.583
c0.264648 -4.70117 0.104492 -10.9062 -0.305664 -17.9834c6.68652 2.36621 16.0898 2.95996 26.584 -4.39062c7.14648 5.07812 12.2012 5.96582 17.6768 6.07324c7.52246 0 15.6221 -3.99414 19.0645 -7.57715c7.39062 -7.68848 14.0254 -26.0752 -4.16992 -43.8438
c-21.5098 -21.0039 -24.0742 -23.3574 -24.8057 -23.998c-4.33203 -4.16016 -11.1035 -4.17285 -15.4766 0.0625l-23.2354 22.501c-0.794922 -9.21094 -1.42285 -17.7646 -1.60742 -24.6611c-0.0751953 -2.79199 -0.283203 -15.3213 1.98438 -16.5342
c0.258789 -0.0908203 0.46582 -0.233398 0.418945 -0.630859c7.36719 -79.1973 82.1445 -153.374 86.3047 -154.897c0.135742 -0.0507812 -0.257812 0.0107422 -0.257812 0.0107422l-0.390625 -0.203125l-0.211914 -0.477539l1.24316 -0.693359l-14.0098 -9.33984
c-1.55957 1.69922 -2.30957 2.51758 -5.88574 6.38867c-28.4131 30.7607 -59.3682 64.3125 -83.4482 146.003c-6.65527 -38.6465 -30.4961 -81.0225 -51.9912 -108.32c-13.8643 -17.6074 -18.5605 -30.0127 -31.2568 -44.1182l-16.5684 13.1162
c9.77051 12.665 16.0361 21.2529 24.6953 33.2041c4.87988 6.73535 9.37891 12.9434 14.1836 19.2559c58.8086 77.25 60.5684 179.049 60.1289 230.778l17.1035 -0.376953c1.51855 -0.0322266 4.09961 -0.765625 4.00684 -5.39453
c-0.0273438 -1.3418 -0.145508 -7.33203 0.225586 -13.9531h0.000976563z" />
  </g>

</svg>
