<?xml version="1.0" standalone="no"?>
<!DOCTYPE svg PUBLIC "-//W3C//DTD SVG 1.1//EN" "http://www.w3.org/Graphics/SVG/1.1/DTD/svg11.dtd" >
<svg xmlns="http://www.w3.org/2000/svg" xmlns:xlink="http://www.w3.org/1999/xlink" version="1.1" viewBox="-10 0 1013 1000">
  <g transform="matrix(1 0 0 -1 0 800)">
   <path fill="currentColor"
d="M30.3242 741.553h55.5146l17.1611 52.2256l17.1602 -52.2256h55.5156l-44.8672 -32.2959l17.1611 -52.2246l-44.9697 32.2959l-44.9707 -32.2959l17.1611 52.2246zM271 608l-12 60c128.725 89.7881 355.203 55.3633 442.457 48.5605
c0 -0.0107422 0.000976562 -0.0214844 0.000976562 -0.0322266c27.4463 0.582031 75.1855 -1.32129 107.268 -33.4033c40.1396 -40.1396 38.6152 -108.841 37.5254 -169.365c-0.395508 -21.9258 -0.433594 -33.2402 -0.22168 -41.9463
c26.3789 -43.8281 72.168 -89.959 89.3252 -129.607c6.95117 -16.0635 5.49219 -24.7637 2.64551 -40.2051l-12 -14l-79.501 -63.5771v-212.431c1.93945 -31.0869 1.82422 -79.2412 -27.416 -108.48c-26.0322 -26.0322 -182.507 -12.0195 -220.584 -13.0049
l-2.90137 0.0126953c-103.732 -7.2998 -296.108 50.6025 -326.603 92.1719c-18.5059 25.2275 -31.4014 41.2529 -57.9951 55.3086v70.0371c25.8174 -16.2627 49.624 -17.8066 70.1904 -60.6357c44.2188 -92.082 349.455 -105.734 451.309 -108.438l-0.499023 -0.962891
c50 12 34.1514 4.48145 42.5352 13.5361c19.1768 20.7119 3.97852 41.9688 5.50781 57.9648h-0.541992v2.14941c-0.253906 0.990234 -0.500977 1.94141 -0.738281 2.84863h0.738281v207.174v3.4873v1.33887h1.58203l104 88h1.13281
c4.9834 45.8955 -62.8379 92.1289 -94.2158 139.501l-3 4l-1 1c-2.02051 3.99219 0.0439453 4.02539 -2.08398 11.5605c-0.0371094 0.130859 -0.189453 0.24707 -0.174805 0.367188l0.258789 2.07227l0.0644531 1.49902
c0.00976562 0.226562 0.150391 3.89551 0.242188 6.24414c3.11426 79.1523 5.19727 173.389 -83.8154 173.771c-136.35 16.7461 -373.536 9.53418 -431.49 -46.5137zM744.322 98.8975c2.32812 0 2.57227 -1.86328 2.57227 -2.23242
c0 -2.07617 -3.30957 -2.8418 -9.63281 -4.25098c-13.0137 -2.90137 -27.999 -4.84863 -44.4766 -5.78613c-3.56641 -0.203125 -11.7061 -0.302734 -20.3027 -0.302734c-57.2236 0 -81.7266 5.88672 -106.002 13.1553c-10.7041 3.2041 -17.4375 5.06738 -26.3809 7.30176
c-19.5947 4.89355 -27.667 7.59473 -29.2285 9.20801c-0.981445 0.129883 -4.72852 2.96094 -6.12012 4.71973c-2.63184 3.32617 -6.27832 10.6826 -6.27832 13.5996c0 0.344727 0.0439453 0.402344 0.0439453 0.605469c0 2.83887 -9.10645 14.9434 -11.8965 47.9424
c-0.235352 2.78516 -0.347656 8.34961 -0.347656 14.2627c0 3.21875 0.0537109 21.4072 1.25977 24.8652c-0.171875 0.251953 -0.223633 0.498047 -0.223633 0.738281c0 0.583008 2.28809 24.2178 10.5986 57.3877c3.5625 14.2178 13.1035 47.5938 14.5244 49.166
c0.125 0.138672 4.17383 7.41699 11.9092 14.3086c5.31836 4.73828 13.6133 10.4424 23.3408 16.0742c2.83398 1.6416 8.29785 4.86035 12.1289 7.14551c6.91602 4.125 13.8809 8.24414 19.7461 8.24414c6.21289 0 13.1309 -4.90332 19.1113 -12.2627
c1.5625 -1.92188 4.44922 -5.41016 6.4043 -7.73926c7.4375 -8.85645 11.2119 -13.8076 11.2119 -20.415c0 -5.20215 -1.55176 -3.72559 -1.6748 -9.53223c-0.168945 -7.9873 -4.72461 -10.0967 -7.25098 -18.7881c-0.59668 -2.05469 -3.97461 -3.74902 -7.13086 -3.74902
c-4.19922 0 -5.14551 1.71973 -6.92676 4.95996c-0.976562 -1.46777 -3.99902 -4.24707 -6.42871 -4.24707c-0.441406 0 -0.548828 0 -0.856445 -0.519531c-0.0361328 -0.0615234 -2.64551 -4.43848 -9.64258 -4.43848c-3.54883 0 -8.2959 1.00879 -10.5938 1.02734
c-2.31543 0.0175781 -3.59375 1.33691 -3.59375 2.90723c0 0.634766 0.203125 1.2959 0.570312 1.91211c-0.515625 -0.0263672 -0.515625 -0.0263672 -3.03906 -0.217773c-1.8916 -6.76465 -4.75977 -17.0254 -4.75977 -28.3076
c0 -8.30078 1.60938 -15.4912 4.80078 -21.8779c5.85547 -11.7158 30.6318 -28.8896 30.6318 -47.9209c0 -2.09473 -0.237305 -4.13965 -0.71875 -5.69238c2.97656 1.88965 4.68457 2.87598 5.42871 3.16211c0 0 0.232422 0.203125 0.577148 0.203125
c0.046875 0 0.0947266 -0.00390625 0.145508 -0.0117188c1.41016 1.16113 12.7295 6.88086 25.7754 6.88086c18.2764 0 31.6992 -9.6582 42.8125 -17.9072c7.59277 -5.63477 13.0693 -9.20508 17.4941 -11.4277c2.97754 -1.49609 4.23828 -2.2168 5.37695 -2.2168
c1.07812 0 2.04785 0.646484 4.26465 1.89258c8.06738 4.5332 18.4072 8.87891 22.4336 9.24023c0.84375 0.0761719 3.04199 1.28125 11.0635 1.28125c11.3955 -0.00292969 20.5625 -4.70508 22.3232 -6.46582c0.429688 -0.429688 0.835938 -1.0752 0.835938 -1.74902
c0 -0.910156 -0.904297 -1.94434 -2.17676 -1.94434c-3.28027 0 -7.5 4.90723 -19.9697 4.90723c-11.334 0 -17.7754 -2.84766 -28.6348 -8.22852c12.9326 -0.385742 12.9414 -0.394531 14.041 -1.49414c0.366211 -0.365234 0.492188 -0.775391 0.492188 -1.17188
c0 -0.655273 -0.386719 -1.49316 -0.772461 -1.87891c-0.592773 -0.592773 -0.890625 -0.891602 -10.8398 -0.891602c-2.75 0 -10.7373 0.378906 -10.8457 0.378906c-2.55859 0 -2.34082 -1.27148 -4.15918 -1.27637c-1.39844 0 -2.63965 1.52441 -2.63965 2.74414
c0 0.12207 0.0107422 0.246094 0.0341797 0.37207c-0.239258 0.136719 -0.740234 0.398438 -1.52832 0.733398c-11.9922 5.09668 -26.9053 19.5205 -39.7041 25.1494c-6.26465 2.75586 -12.9639 4.13867 -19.6709 4.13867c-3.78125 0 -15.0576 0 -30.4443 -9.93457
c-4.41602 -2.85059 -4.41602 -2.85059 -4.43164 -2.85938c-1.27148 -0.734375 -9.75098 -7.62891 -17.8066 -14.5703c-5.96387 -5.13965 -7.23047 -6.44336 -8.66504 -6.44336c-1.73242 0 -2.73145 1.68457 -2.73145 2.78711c0 0.801758 0.46582 1.26758 0.602539 1.40527
c1.35938 1.3584 13.7773 12.0137 18.0254 15.4727c6.5293 5.31738 7.80957 6.98242 8.96289 10.4043c0.439453 1.30664 0.662109 2.24023 0.662109 3.28027c0 1.01562 -0.211914 2.13281 -0.638672 3.7998c-4.07812 15.9463 -20.8496 28.7295 -27.791 38.3789
c-5.64062 7.84277 -8.44043 17.5264 -8.44043 28.8896c0 1.62305 0.164062 14.5713 4.88672 30.0508c0.269531 0.885742 0.473633 1.67383 0.574219 2.08203c-0.439453 0.328125 -6.18652 3.52734 -8.25488 5.5957c-0.618164 0.618164 -0.9375 1.31836 -0.9375 2.0459
c0 0.21875 0.0595703 2.43848 2.44238 2.43848c1.45117 0 2.39355 -2.01855 6.21582 -4.39453c4.10547 -2.55273 6.13477 -3.88379 6.54492 -4.78125c1.05957 0.133789 6.30762 0.844727 6.30762 1.84863c0 0.357422 -0.40625 0.961914 -0.40625 1.83008
c0 1.35059 1.17188 2.25098 2.30469 2.25098c1.76074 0 1.56055 -1.38184 3.51465 -1.80469c2.00488 -0.432617 4.75684 -1.14648 4.75684 -3.16406c0 -0.941406 -0.81543 -2.5127 -2.28027 -2.5127c-0.787109 0 -1.26758 0.359375 -1.56836 0.359375
c-0.494141 0 -2.30859 -1.0166 -3.54395 -2.37598c0.0800781 -0.0166016 5.08984 -0.944336 8.1084 -0.944336c2.53125 0 3.16699 0.667969 4.95996 2.55176c-2.95117 7.06641 -6.6748 14.4414 -10.9746 19.7676c-1.0498 1.30078 -2.00684 2.47754 -2.00684 3.53613
c0 1.09277 1.16895 1.97852 2.0625 1.97852c0.978516 0 1.59082 -0.706055 2.1123 -1.30566c2.76758 -3.18945 8.86426 -11.7266 8.86426 -13.6318c0 -0.0488281 -0.00195312 -0.0966797 -0.00585938 -0.144531c1.23145 -1.14355 3.05469 -6.10547 4.01758 -7.50781
c2.52832 0.416992 3.0332 3.84668 3.0332 5.65723c0 8.02832 -9.50391 15.832 -9.50391 24.7334c0 1.63965 0 1.63965 2.44043 6.2959c1.48438 -8.7998 1.58594 -9.40039 5.94434 -16.3428c1.48047 -2.3584 2.39551 -4.32227 2.43164 -4.35742
c0.62793 -0.628906 3.58594 -5.36621 3.58594 -10.6689c0 -0.333984 -0.00878906 -0.676758 -0.0263672 -1.02637c1.95117 1.51758 3.59375 1.78906 5.23438 3.42969c7.42871 7.42871 -8.89941 28.4209 -11.5176 31.6816c-1.94629 2.4248 -2.83789 3.78125 -2.83789 4.68652
c0 0.400391 0.256836 1.41504 1.61914 1.41504c0.998047 0 1.24707 -0.672852 1.73145 -1.15723c0.151367 -0.151367 10.793 -11.6533 12.9482 -17.1172c1.81934 -1.47559 4.45215 -9.62891 4.5 -9.72461c0.0771484 0.0527344 4.5625 3.43359 4.5625 8.13574
c0 3.71973 -3.12402 8.5 -3.18066 8.57129c-0.00195312 0.00292969 -3.43262 4.27246 -3.43262 4.27246c-10.4238 12.96 -12.0693 15.0068 -14.9834 17.6768c-3.40527 3.12012 -6.52637 4.58105 -9.99609 4.58105c-2.67969 0 -5.77539 -0.457031 -14.8145 -6.0332
c-9.51465 -5.87012 -25.5986 -14.082 -26.8047 -15.9229c-1.26465 -1.92871 -8.33398 -6.18359 -15.2764 -13.126c-3.30859 -3.30859 -5.29883 -6.12695 -5.58887 -7.49023c-1.81641 -8.54297 -19.3838 -58.3125 -24.3975 -105.187
c-0.982422 -9.17773 -1.18652 -12.7275 -1.18652 -23.2412c0 -8.30078 0.214844 -17.2998 0.605469 -20.8027c2.95801 -26.501 9.73242 -40.8555 10.0254 -41.1621c1.34766 -0.0615234 1.97656 -1.48047 2.49121 -2.64062c3.31445 -7.47266 4.69238 -9.32324 5.86914 -10.5
c3.13867 -3.13867 9.20996 -5.38281 31.1855 -11.1104c6.09766 -1.58887 16.1992 -4.46875 22.4922 -6.41113c32.4834 -10.0273 40.8984 -11.1904 77.9893 -13.7275c7.29785 -0.5 21.0156 -0.797852 32.708 -0.797852c14.4561 0 40.0996 0.845703 62.6768 6.0127
c3.5459 0.811523 5.61133 1.34766 6.96875 1.34766zM619.06 91.6123c-0.5 -0.0820312 -1.3252 0.160156 -1.39844 -0.348633c0.0634766 -0.476562 0.75293 -0.325195 1.17969 -0.436523l0.124023 0.0976562s0.0683594 0.49707 0.0947266 0.6875zM744.938 96.96
c-0.416992 0.0361328 -0.550781 -0.210938 -0.633789 -0.506836c0.365234 0.0146484 0.703125 0.0566406 0.633789 0.506836zM592.948 198.723c-0.0859375 0.294922 -0.214844 0.545898 -0.634766 0.505859c-0.0664062 -0.446289 0.266602 -0.493164 0.634766 -0.505859z
M638.748 203.861c-0.416992 0.0371094 -0.550781 -0.208984 -0.634766 -0.505859c0.366211 0.0146484 0.704102 0.0566406 0.634766 0.505859zM490.508 224.059c0.00195312 0.0634766 -0.0683594 0.0566406 -0.105469 0.0810547
c-0.00195312 -0.0634766 0.0683594 -0.0566406 0.105469 -0.0810547zM607.976 321.607c-0.336914 0 -0.543945 0.0332031 -1.05273 0.114258c-0.520508 -6.49023 -2.70312 -9.41211 -8.17383 -12.3154c0.314453 -0.658203 0.583008 -1.22168 1.80762 -1.58691
c0.907227 0.189453 2.09277 0.436523 2.37012 0.714844c0.522461 0.521484 1.48438 3.17871 4.51367 8.2041c2.31152 3.83496 2.79395 4.63574 3.25586 6.22656c-1.01758 -0.957031 -1.74219 -1.35742 -2.7207 -1.35742zM677.136 143.729
c1.25586 0 2.11035 -1.2627 2.11035 -2.46289c0 -1.42578 -1.41895 -2.08789 -3.69434 -3.14844c-19.1699 -8.93848 -29.5703 -9.65332 -39.876 -9.65332c-5.95215 0 -14.8418 0.751953 -28.5732 5.29102c-5.08691 1.68164 -6.99316 2.3125 -6.99316 4.0498
c0 0.650391 0.438477 1.7832 1.88281 1.7832c1.20801 0 3.07422 -0.701172 6.46387 -1.64355c13.624 -3.78809 18.5059 -4.58105 28.5166 -4.58105c8.77832 0 16.6426 0 37.1875 9.35352c1.26367 0.575195 2.19043 1.01172 2.97559 1.01172zM402.835 468.448
l-69.8662 -70.5605l76.0312 -69.8877l-9.89746 -8.24512l-76.1182 70.0693l-68.8418 -70.0693l-7.18945 7.86133l67.9668 69.1201l-66.8154 69.5029l8.83203 8.44922l67.584 -67.2002l70.6562 67.583zM402.835 468.448l-69.8662 -70.5605l76.0312 -69.8877
l-9.89746 -8.24512l-76.1182 70.0693l-68.8418 -70.0693l-7.18945 7.86133l67.9668 69.1201l-66.8154 69.5029l8.83203 8.44922l67.584 -67.2002l70.6562 67.583zM595.103 489.755l1.64062 3.02148c-0.669922 -0.0917969 -1.98047 -0.15918 -3.62012 0.560547z
M589.903 474.356l-66.5303 120.443c-1.83008 3.30566 0.109375 7.24414 2.91016 8.42871l7.67969 3.24414c2.91992 1.2334 6.21973 -0.270508 7.51953 -2.50879l54.0703 -92.8721l49.2002 93.6064c1.45996 2.77637 4.91016 3.8418 7.55957 2.76855l10.3809 -4.2041
c3.48926 -1.41113 4.50977 -5.67676 3.0293 -8.4209l-65.29 -120.444c-1.64941 -3.03223 -5.64941 -4.05078 -8.54004 -2.17383c-0.839844 0.540039 -1.7998 1.78125 -1.98926 2.13281z" />
  </g>

</svg>
