<?xml version="1.0" standalone="no"?>
<!DOCTYPE svg PUBLIC "-//W3C//DTD SVG 1.1//EN" "http://www.w3.org/Graphics/SVG/1.1/DTD/svg11.dtd" >
<svg xmlns="http://www.w3.org/2000/svg" xmlns:xlink="http://www.w3.org/1999/xlink" version="1.1" viewBox="-10 0 1051 1000">
  <g transform="matrix(1 0 0 -1 0 800)">
   <path fill="currentColor"
d="M828.399 483.872c0 9.49878 0.360099 25.4826 0.360099 28.905l-0.318652 61.3747l-8.69455 54.78l-24.0577 41.7601l-29.8355 19.1251l-33.9409 8.02542l-47.9505 1.85133v0.765382l-107.704 8.96128l-161.614 -4.8437l-135.511 -48.0118l4.97421 -24.8711
l90.1513 34.2037l168.519 13.9909l163.859 -8.05849l72.0585 -32.0852l24.6852 -76.5829c-11.2968 -92.7231 -11.5388 -94.7093 -10.6225 -98.1968c0.272553 -1.03738 0.408327 -1.98777 0.495372 -2.92219c0.487753 -0.641757 1.13403 -1.58506 1.4862 -2.05622
l30.4464 -40.7334l38.0432 -60.0682l23.93 -33.502l-96.7113 -80.2498l-3.19974 -219.288c0.962733 -7.56244 2.78458 -22.0112 5.01798 -45.877c-0.12894 -0.269919 -9.65147 -20.9678 -12.8349 -27.02c-1.80565 -3.43278 -3.36365 -6.39475 -8.94453 -11.1259
c-28.726 -6.87192 -37.6748 -9.01268 -53.7943 -9.01268c-3.38415 0 -6.77838 0.14333 -10.1737 0.446144l-127.95 -3.2205l-189.706 31.9736l-119.91 72.0259l-21.8729 31.5454c-0.18608 0.126152 -14.9542 10.3475 -18.5829 12.6523v-31.4635
c5.41685 -3.87145 13.5068 -7.36272 24.4398 -17.2503c7.32645 -6.62591 2.09556 -4.45645 10.6241 -11.9264c1.03002 -0.902171 1.03002 -0.902171 17.2005 -21.8062l70.2643 -41.1391l123.979 -35.7692l40.8353 -3.74581
c52.8258 -4.90757 59.0669 -6.73248 83.0467 -7.42728l68.08 -1.97257l89.7606 0.254271l51.1066 12.4914l15.1376 25.2075l6.27671 34.16l-0.268638 82.9487l0.0291888 84.2282l-0.00582149 87.5189l84.7837 67.8016l7.68593 8.96692l1.11464 7.19504
c0.44913 7.61262 -1.52476 12.8022 -3.31214 18.1783l-23.3304 38.8443l-33.0243 43.448l-34.3179 48.9016c-0.202711 16.1296 -0.202711 16.1296 -0.202711 17.6951zM33.2949 712.521h55.5146l17.1611 52.2256l17.1602 -52.2256h55.5156l-44.8672 -32.2959
l17.1611 -52.2246l-44.9697 32.2959l-44.9707 -32.2959l17.1611 52.2246zM473.953 195.743c0 0 -0.0419922 0.0429688 -0.0595703 0.0605469c-0.522461 0.509766 -1.98242 0.480469 -2.03516 0.660156c0 0 -0.03125 0.114258 -0.0498047 0.169922
c-0.395508 1.1709 -2.87109 1.55859 -2.87109 1.55859l6.52344 2.78711zM466.325 151.902l15.1465 52.6064c0.381836 1.32617 -0.473633 2.73926 -1.8252 3.01562c-0.482422 0.0986328 -1.05664 0.0126953 -1.42383 -0.144531l-54.9258 -23.4717
c-1.47949 -0.632812 -1.72754 -2.48633 -1.07715 -3.50195l2.59863 -4.05859c0.647461 -1.01074 1.98047 -1.33301 2.96387 -0.913086l33.3369 14.2305l-78.2363 -92.1318c-0.988281 -1.16309 -0.488281 -2.85449 0.442383 -3.5127l3.60352 -2.55078
c1.01465 -0.717773 2.44727 -0.517578 3.23047 0.421875l76.6055 91.9053l-9.36035 -32.5928c-0.380859 -1.3252 0.475586 -2.7373 1.82715 -3.01367c0.524414 -0.107422 1.26367 0.0683594 1.5 0.179688l4.30859 2.02441
c0.629883 0.295898 1.10938 0.897461 1.28516 1.50781zM387.534 284.667l-0.53418 -17.667h6.22266v-1l201.511 -106.933v107.2l125.601 0.955078v18.2451c-103.656 2.17578 -208.225 4.04492 -332.8 -0.800781zM512.883 368.713l-84 82.5l16 16.5l67.5 -62l120 152
l18 -12.5z" />
  </g>

</svg>
