<?xml version="1.0" standalone="no"?>
<!DOCTYPE svg PUBLIC "-//W3C//DTD SVG 1.1//EN" "http://www.w3.org/Graphics/SVG/1.1/DTD/svg11.dtd" >
<svg xmlns="http://www.w3.org/2000/svg" xmlns:xlink="http://www.w3.org/1999/xlink" version="1.1" viewBox="-10 0 1008 1000">
  <g transform="matrix(1 0 0 -1 0 800)">
   <path fill="currentColor"
d="M783.475 619.963c0 1.31836 -1.3252 4.93066 -2.46289 6.40918c-1.57422 1.16797 -5.35742 2.51562 -6.80078 2.51562c-5.2207 0 -8.95703 -3.62305 -12.3398 -7.00684c-1.45996 -1.45898 -3.37598 -2.19043 -5.29102 -2.19043
c-3.08789 0 -4.79102 1.69043 -6.17871 3.07812c-0.287109 0.288086 -5.20898 4.60645 -8.10254 5.56152c-1.32129 0.435547 -2.18359 0.552734 -3.25098 0.552734c-1.37598 0 -5.00488 -1.24805 -6.72168 -2.46387c-0.731445 -1.15527 -0.755859 -1.23926 -2.5 -7.23438
c0.144531 -2.23145 1.19922 -6.78516 6.22656 -11.6348l20.543 -19.8164l20.3984 19.6318c2.20508 2.21094 6.48047 6.55371 6.48047 12.5977zM730.194 662.582c0.264648 -4.7002 0.104492 -10.9053 -0.305664 -17.9824c6.68555 2.36621 16.0898 2.95996 26.584 -4.39062
c7.14551 5.07812 12.2012 5.96484 17.6768 6.07324c7.52246 0 15.6221 -3.99512 19.0654 -7.57715c7.38965 -7.68848 14.0244 -26.0752 -4.17188 -43.8438c-21.5088 -21.0039 -24.0732 -23.3574 -24.8047 -23.998c-4.33203 -4.16113 -11.1035 -4.17285 -15.4766 0.0615234
l-23.2344 22.502c-0.795898 -9.21094 -1.42383 -17.7646 -1.60938 -24.6611c-0.0742188 -2.79199 -0.28125 -15.3213 1.98535 -16.5342c0.258789 -0.0908203 0.46582 -0.233398 0.418945 -0.630859c7.36621 -79.1973 82.1455 -153.374 86.3037 -154.898
c0.136719 -0.0498047 -0.257812 0.0117188 -0.257812 0.0117188l-0.389648 -0.203125l-0.211914 -0.477539l1.24316 -0.693359l-14.0098 -9.33984c-1.55859 1.69922 -2.30859 2.51758 -5.88574 6.38965c-28.4121 30.7598 -59.3682 64.3125 -83.4482 146.002
c-6.65527 -38.6465 -30.4961 -81.0225 -51.9912 -108.32c-13.8643 -17.6064 -18.5615 -30.0127 -31.2568 -44.1191l-16.5684 13.1162c9.77051 12.666 16.0371 21.2539 24.6953 33.2041c4.87988 6.73633 9.37793 12.9443 14.1836 19.2568
c58.8086 77.25 60.5684 179.049 60.1289 230.779l17.1035 -0.37793c1.51953 -0.0322266 4.10059 -0.765625 4.00684 -5.39453c-0.0263672 -1.34277 -0.146484 -7.33203 0.226562 -13.9541v0zM365 395.202c-86.2988 0 -156.199 68.4893 -156.199 152.599
c0 84.1113 69.9033 152.599 156.199 152.599c86.2988 0 156.199 -68.4893 156.199 -152.599c0 -84.1113 -69.9033 -152.599 -156.199 -152.599zM365 681.042c-76.0508 0 -137.562 -59.3008 -137.562 -132.521c0 -73.2178 61.5088 -132.521 137.562 -132.521
c76.0498 0 137.562 59.3008 137.562 132.521c0 73.2188 -61.5088 132.521 -137.562 132.521zM291.434 462.043c-4.19629 0 -7.84082 3.80469 -7.84082 10.0869c0 1.02734 0.251953 5.05859 4.09863 6.78418c8.14551 3.79102 15.3457 7.75781 22.2559 11.5684
c18.1445 10.0039 34.7207 19.1396 59.7939 19.1396c27.3379 0 44.1436 -10.626 62.624 -22.3105c5.90527 -3.73438 12.0439 -7.61328 18.8838 -11.4258c1.04004 -0.548828 3.65527 -2.33203 3.65527 -6.37012c0 -5.52637 -4.40918 -10.4697 -8.89648 -10.4697
c-1.77539 0 -2.67578 0 -20.3936 11.957c-18.3027 12.3525 -32.1992 21.4238 -55.3848 21.4238c-23.082 0 -37.0381 -7.95508 -56.416 -18.9746c-5.95215 -3.38574 -12.3701 -7.03613 -19.6143 -10.7432c-0.924805 -0.472656 -1.86426 -0.666016 -2.76562 -0.666016z
M298.68 588.761c-10.4492 0 -17.959 6.31836 -17.959 13.6387c0 7.32129 7.50977 13.6396 17.959 13.6396s17.959 -6.31836 17.959 -13.6396c0 -7.32031 -7.50879 -13.6387 -17.959 -13.6387zM425.4 590.201c-9.98047 0 -17.2393 6.31445 -17.2393 13.6387
s7.25977 13.6387 17.2393 13.6387s17.2383 -6.31445 17.2383 -13.6387s-7.25977 -13.6387 -17.2383 -13.6387zM332.481 97.6934l-82.2217 148.848l24.0225 10.1475l58.4395 -100.383l53.3027 101.418l27.2285 -11.0254zM249.568 -67.707v34.6641h38.626v22.0713h-38.626
v34.6641h38.626v33.7148h31.3828v-33.7148h23.2197v31.2539h31.3828v-31.2539h41.292v-34.6641h-41.292v-22.0713h41.292v-34.6641h-41.292v-36.1855h-31.3828v36.1855h-23.2197v-33.7246h-31.3828v33.7246h-38.626zM319.577 -33.043h23.2197v22.0713h-23.2197v-22.0713z
M764.659 223.904c-0.529297 0 -0.985352 0.173828 -1.32227 0.358398l-214.094 -88.2627v-37.8242c12.126 5.10742 24.251 10.2148 36.376 15.3213v-3.77051l-0.21875 -161.659h318.305l0.646484 155.446c10.9619 -6.48535 21.9238 -12.9697 32.8867 -19.4551
l-0.677734 40.7051l-136.33 79.1182l1.46387 0.616211c-22.6963 11.7715 -24.457 12.7314 -36.2109 19.5508c-0.288086 -0.102539 -0.56543 -0.144531 -0.824219 -0.144531zM868.594 -16.7148h-248.003l-0.665039 144.662l142.009 59.8174l107.859 -63.8086z
M38.3545 -39.4795h55.5146l17.1611 52.2256l17.1602 -52.2256h55.5156l-44.8672 -32.2959l17.1611 -52.2246l-44.9697 32.2959l-44.9707 -32.2959l17.1611 52.2246z" />
  </g>

</svg>
