<?xml version="1.0" standalone="no"?>
<!DOCTYPE svg PUBLIC "-//W3C//DTD SVG 1.1//EN" "http://www.w3.org/Graphics/SVG/1.1/DTD/svg11.dtd" >
<svg xmlns="http://www.w3.org/2000/svg" xmlns:xlink="http://www.w3.org/1999/xlink" version="1.1" viewBox="-10 0 984 1000">
  <g transform="matrix(1 0 0 -1 0 800)">
   <path fill="currentColor"
d="M13.8232 752.879h55.5146l17.1611 52.2256l17.1602 -52.2256h55.5156l-44.8672 -32.2959l17.1611 -52.2246l-44.9697 32.2959l-44.9707 -32.2959l17.1611 52.2246zM254.499 619.326l-12 60c128.725 89.7881 355.203 55.3633 442.457 48.5605
c0 -0.0107422 0.000976562 -0.0214844 0.000976562 -0.0322266c27.4463 0.582031 75.1855 -1.32129 107.268 -33.4033c40.1396 -40.1396 38.6152 -108.841 37.5254 -169.365c-0.395508 -21.9258 -0.433594 -33.2402 -0.22168 -41.9463
c26.3789 -43.8281 72.168 -89.959 89.3252 -129.607c6.95117 -16.0635 5.49219 -24.7637 2.64551 -40.2051l-12 -14l-79.501 -63.5771v-212.431c1.93945 -31.0869 1.82422 -79.2412 -27.416 -108.48c-26.0322 -26.0322 -182.507 -12.0195 -220.584 -13.0049
l-2.90137 0.0126953c-103.732 -7.2998 -296.108 50.6025 -326.603 92.1719c-18.5059 25.2275 -31.4014 41.2529 -57.9951 55.3086v70.0371c25.8174 -16.2627 49.624 -17.8066 70.1904 -60.6357c44.2188 -92.082 349.455 -105.734 451.309 -108.438l-0.499023 -0.962891
c50 12 34.1514 4.48145 42.5352 13.5361c19.1768 20.7119 3.97852 41.9688 5.50781 57.9648h-0.541992v2.14941c-0.253906 0.990234 -0.500977 1.94141 -0.738281 2.84863h0.738281v207.174v3.4873v1.33887h1.58203l104 88h1.13281
c4.9834 45.8955 -62.8379 92.1289 -94.2158 139.501l-3 4l-1 1c-2.02051 3.99219 0.0439453 4.02539 -2.08398 11.5605c-0.0371094 0.130859 -0.189453 0.24707 -0.174805 0.367188l0.258789 2.07227l0.0644531 1.49902
c0.00976563 0.226562 0.150391 3.89551 0.242188 6.24414c3.11426 79.1523 5.19727 173.389 -83.8154 173.771c-136.35 16.7461 -373.536 9.53418 -431.49 -46.5137zM634.861 158.138c0 72.2344 -58.6309 130.862 -130.861 130.862
c-72.2334 0 -130.862 -58.6309 -130.862 -130.862c0 -60.8906 41.9717 -112.739 99.2412 -126.989c-8.4707 6.60547 -19.9844 19.8398 -19.9844 42.9902c-0.000976562 56.708 69.6318 70.8799 101.87 38.6416c19.8916 -19.8916 20.5273 -53.4355 2.72168 -74.3203
c14.8281 6.58105 28.2129 15.8398 39.5293 27.1572c23.6895 23.6885 38.3457 56.4062 38.3457 92.5205zM655.082 158.14c0 -83.4092 -67.6904 -151.082 -151.082 -151.082c-83.3965 0 -151.083 67.6768 -151.083 151.082c0 83.3086 67.7773 151.082 151.083 151.082
c83.4053 0 151.082 -67.6846 151.082 -151.082zM549.667 74.0713l1.63965 0.0283203l0.00585938 0.00585938l-0.834961 0.804688l-0.814453 -0.835938c0.000976562 0 0.00195312 -0.00292969 0.00390625 -0.00292969zM549.534 75.8174l-0.823242 0.792969
l0.77832 0.00976562c-0.549805 8.13867 -3.81445 16.0938 -9.78809 22.0684c-19.9541 19.9541 -67.084 13.2568 -67.084 -24.5645c0.0117188 -37.7949 47.1172 -44.4893 67.082 -24.5244c5.93262 5.93164 9.18945 13.8096 9.77637 21.8789
c-0.40332 -0.00488281 -0.685547 -0.0078125 -0.700195 -0.0078125l0.748047 0.777344c0.0615234 1.18848 0.0654297 2.38086 0.0107422 3.56934zM508.665 367.528c3.83691 0.0888672 10.4219 0.882812 14.2852 1.73438c32.9932 6.20312 59.9521 38.7549 59.9521 72.2012
c0 5.66113 -1.43555 15.5225 -3.06738 21.001c-0.625 2.21484 -1.36426 4.35645 -2.18164 6.35449c-3.58887 8.28906 -10.9707 21.6826 -16.1914 29.3086c-2.97656 4.70215 -5.82227 9.1084 -8.58496 13.9268l-37.8828 66.4678s-0.264648 0.599609 -0.71582 1.59375
c-1.47949 3.26367 -2.20117 4.83301 -3.60742 6.55469c-0.375977 -0.432617 -2.5127 -3.84863 -5.93457 -10.543l-1.19238 -2.30664l-24.2295 -42.4424c-3.36328 -5.96289 -6.98828 -11.9766 -10.5625 -17.833c-6.66113 -11.0527 -13.541 -22.4814 -19.2803 -34.0332
c-16.5596 -33.4121 -12.1309 -69.2451 10.4883 -91.9365c10.8291 -10.7852 33.1357 -20.0479 48.7051 -20.0479zM508.769 358.528c-18.6855 0 -42.2373 9.80078 -55.1816 22.6943c-25.748 25.8281 -30.1416 66.0459 -12.1758 102.294
c5.97363 12.0244 12.9375 23.5645 19.6592 34.7168c3.57227 5.85449 7.09766 11.7041 10.4277 17.6084l24.1377 42.2783l1.08691 2.10352c4.75977 9.3125 6.87598 15.4551 13.7432 15.4551h1.44336c0.581055 0 1.23926 -0.143555 1.71191 -0.338867
c4.94824 -2.03613 6.7627 -6.8916 8.85059 -11.501c0.547852 -1.20605 0.581055 -1.29688 0.581055 -1.29688c0.0380859 -0.0576172 0.125977 -0.204102 0.144531 -0.237305l37.4883 -65.7734c2.55566 -4.45898 5.49121 -9.02539 8.29395 -13.4521
c5.52734 -8.0752 12.999 -21.5957 16.9688 -30.7676c1.00879 -2.4668 1.83984 -4.88965 2.53125 -7.33887c1.9502 -6.54688 3.42285 -16.625 3.42285 -23.5088c0 -37.9443 -29.9824 -74.0332 -67.1514 -81.0195c-4.39648 -0.970703 -11.3535 -1.80859 -15.9824 -1.91602z
M506.534 582.417c0.235352 0.422852 0.793945 1.10645 1.34375 1.49316c2.11719 1.4873 5.14453 0.834961 6.46094 -1.39062l0.989258 -1.67285c0.0869141 -0.147461 0.225586 -0.419922 0.308594 -0.62793c0.369141 -0.928711 0.481445 -1.0498 0.973633 -1.91992
c12.5449 -21.7822 24.9463 -43.4678 37.4521 -65.1826c2.63184 -4.53223 5.65039 -9.25977 8.52539 -13.7559c5.31152 -7.77051 12.4443 -20.6572 16.291 -29.4951c0.914062 -2.28125 1.66211 -4.48145 2.29102 -6.69043c1.8877 -6.1123 3.32031 -15.5586 3.32031 -22.041
c0 -34.6504 -27.3848 -67.4316 -61.375 -73.623c-4.01074 -0.835938 -10.1768 -1.47266 -14.3643 -1.47266c-16.5371 0 -38.166 8.91504 -49.9004 20.5684c-23.4473 23.1182 -27.1611 59.9541 -10.6748 93.3994c5.83105 11.7383 12.7266 23.1426 19.3486 34.1045
c3.68066 5.98047 7.19043 11.8066 10.5889 17.7715l24.1377 42.1299l1.28711 2.5c0.55957 1.19043 1.78418 3.72852 2.99609 5.90527zM510.596 570.558c0 0 -0.185547 -0.410156 -0.485352 -0.932617l-24.1768 -42.1982
c-3.45312 -6.06055 -7.07324 -12.0684 -10.7158 -17.9863c-6.58789 -10.9062 -13.3975 -22.1963 -18.9697 -33.4131c-15.1523 -30.7383 -11.2646 -63.1094 8.94434 -83.0342c9.67773 -9.61035 29.9199 -17.9551 43.5586 -17.9551c3.3457 0 9.27539 0.605469 12.6396 1.30664
c29.752 5.41992 54.0996 34.6465 54.0996 64.7891c0 5.23828 -1.37793 14.3955 -2.94922 19.4805c-0.583984 2.05078 -1.25586 4.00488 -1.9668 5.78027c-3.42285 7.86523 -10.5283 20.7344 -15.4941 28.001c-3.05859 4.78125 -5.97168 9.33105 -8.81641 14.2285z" />
  </g>

</svg>
