<?xml version="1.0" standalone="no"?>
<!DOCTYPE svg PUBLIC "-//W3C//DTD SVG 1.1//EN" "http://www.w3.org/Graphics/SVG/1.1/DTD/svg11.dtd" >
<svg xmlns="http://www.w3.org/2000/svg" xmlns:xlink="http://www.w3.org/1999/xlink" version="1.1" viewBox="-10 0 606 1000">
  <g transform="matrix(1 0 0 -1 0 800)">
   <path fill="currentColor"
d="M157.438 715.064l20.626 7.79883l101.598 -178.312l98.4814 186.705l21.1787 -14.2861l-120.321 -221.97zM108.047 76.5463v258.014l77.4523 -0.332051l66.1826 -55.8114c1.47739 28.9023 1.47739 28.9023 2.38852 57.1279l185.854 -2.38782v-63.004l-57.0691 -62.5881
s37.4654 -4.96759 37.4744 -4.96881c-1.00698 -0.258723 18.9682 2.81196 23.7307 3.5521l-4.05909 -131.027zM87.0407 366.69c-6.10584 0 -11.0822 -4.9479 -11.0822 -11.0425v-300.105c0 -6.08059 4.96591 -11.0415 11.0415 -11.0415l373.928 -1.50885
c6.10477 0 11.0833 4.94952 11.0833 10.9438l-1.82611 155.255c10.2226 -1.46251 10.2226 -1.46251 56.2398 -4.02043l-54.4147 63.358v85.6109c0 6.09674 -4.94214 11.0463 -10.8364 11.0463l-209.157 -4.55771l-1.85516 34.3235
c-1.0308 8.32716 -2.0235 16.0183 -3.35813 26.3586l-60.8127 -55.0198l-2.90876 0.0117716s-96.0104 0.38861 -96.041 0.388672z" />
  </g>

</svg>
