<?xml version="1.0" standalone="no"?>
<!DOCTYPE svg PUBLIC "-//W3C//DTD SVG 1.1//EN" "http://www.w3.org/Graphics/SVG/1.1/DTD/svg11.dtd" >
<svg xmlns="http://www.w3.org/2000/svg" xmlns:xlink="http://www.w3.org/1999/xlink" version="1.1" viewBox="-10 0 954 1000">
  <g transform="matrix(1 0 0 -1 0 800)">
   <path fill="currentColor"
d="M539.965 119.08l-26.0576 11.4473l10.9375 -25.1055l88.542 -0.317383l7.59473 23.9004l-26.1885 -11.6396l-26.8477 34.4951zM592.411 123.226l0.185547 0.529297l7.07812 -2.4834l-0.185547 -0.529297zM627.248 88.9023h-114.803l-28.418 71.7676l51.3076 -21.5078
l32.2227 40.2959l31.623 -40.9365l50.4697 21.4648zM515.014 92.6865l-2.5625 -2.05762l1.59766 -1.08496zM567.097 216.62c-59.4131 0 -108.001 -37.5566 -108.001 -83.7012c0 -46.1475 48.5928 -83.7012 108.001 -83.7012c59.4141 0 108.001 37.5566 108.001 83.7012
c0 46.1475 -48.5918 83.7012 -108.001 83.7012zM567.097 31.2197c-71.4189 0 -128.698 45.8877 -128.698 102.599c0 56.7139 57.2812 102.6 128.698 102.6c71.4199 0 128.699 -45.8877 128.699 -102.6c0 -56.7129 -57.2822 -102.599 -128.699 -102.599zM880.243 329.004
l-57.6748 46.8066l-11.6064 -13.1924l34.2031 -25.3271l-258.116 -1.2002l0.951172 -18.0908l257.079 2.2373l-31.2891 -23.9131l12.3125 -13.0234zM799.085 504.989l26.0576 11.4473l-10.9385 -25.1055l-88.542 -0.317383l-7.59473 23.9004l26.1895 -11.6396
l26.8467 34.4951zM746.638 509.135l-0.18457 0.529297l-7.07812 -2.4834l0.18457 -0.529297zM711.802 474.812h114.803l28.417 71.7676l-51.3076 -21.5078l-32.2217 40.2959l-31.624 -40.9365l-50.4697 21.4648zM824.036 478.596l2.5625 -2.05762l-1.59863 -1.08496z
M771.952 602.529c59.4141 0 108.001 -37.5566 108.001 -83.7012c0 -46.1475 -48.5918 -83.7012 -108.001 -83.7012c-59.4131 0 -108.001 37.5566 -108.001 83.7012c0 46.1475 48.5928 83.7012 108.001 83.7012zM771.952 417.129c71.4199 0 128.699 45.8877 128.699 102.599
c0 56.7139 -57.2822 102.6 -128.699 102.6c-71.4189 0 -128.698 -45.8877 -128.698 -102.6c0 -56.7129 57.2812 -102.599 128.698 -102.599zM458.807 714.913l57.6738 46.8066l11.6064 -13.1924l-34.2021 -25.3271l258.115 -1.2002l-0.951172 -18.0908l-257.079 2.2373
l31.2891 -23.9131l-12.3125 -13.0234zM319.615 356.234zM115.146 493.794zM76.9619 423.497zM225.739 331.589zM225.471 323.052zM111.796 354.793zM177.33 334.177zM356.086 439.392zM76.9619 423.497zM356.086 439.392zM265.546 529.642
c-14.4131 0 -26.6162 -5.60645 -32.8047 -11.7949c-2.35547 -2.35547 -1.75391 -2.47852 -2.72754 -2.83301c-4.375 -1.5957 -8.66406 -2.17285 -12.5781 -2.17285c-3.69336 0 -10.4062 0.544922 -17.6738 3.81055c-4.93945 6.01172 -13.293 11.4834 -27.3359 11.4834
c-21.083 0 -45.125 -13.0498 -53.4863 -32.6025l-0.413086 -0.96582h-1.4541l-38.0938 -51.7568h-1.82227v-2.47559c-0.246094 -0.334961 -0.492188 -0.670898 -0.740234 -1.00586h0.398438l-4.21875 -15.8203l-0.474609 0.00683594
c-0.0859375 -1.61914 -0.238281 -2.55078 -0.75 -4.56445h0.615234c-0.015625 -1.78809 -0.015625 -1.78809 -0.015625 -1.96973c0 -11.5664 4.99121 -34.9736 38.2559 -62.4854c35.1348 -29.0586 74.8662 -32.2627 107.805 -32.2627
c53.9863 0 75.9961 6.76562 108.301 32.293c39.4648 31.1836 40.1299 40.3662 41.2168 63.1582l-1.10547 0.0175781c-0.0673828 0.25293 -4.91406 20.0322 -6.63281 25.3574l-28.2061 48.1982c-3.17871 3.31738 -3.17871 3.31738 -3.49902 3.86719h-0.208984
c-9.91797 10.1484 -30.7051 29.1416 -51.0029 33.3496c-3.88379 0.805664 -7.68652 1.16797 -11.3477 1.16797zM171.875 515.702c3.03516 0 9.77832 0 17.4668 -5.29102l-0.0585938 -0.734375c0.443359 -0.181641 1.1543 -0.515625 1.8457 -1.17188
c6.51562 -6.19141 16.5273 -9.09766 26.0342 -9.09766c8.85547 0 17.2705 2.52148 22.0088 7.26074c0.921875 0.921875 2.41016 2.41016 3.56055 5.87598c4.88281 3.33105 12.6367 6.96582 23.2227 6.96582c14.0449 0 20.6133 -6.11719 25.6484 -10.8057
c3.91309 -3.64551 9.06641 -8.45605 20.1504 -15.7891c0.422852 -0.0927734 0.771484 -0.295898 1.04883 -0.611328l0.244141 0.00878906l31.6973 -49.9951c0 -0.0859375 -0.00195312 -0.170898 -0.00195312 -0.256836c2.27344 -8.51758 4.34961 -17.2324 6.53711 -25.834
c0.765625 -3.05664 1.19531 -5.88965 1.19531 -8.63379c0 -13.1621 -9.79199 -23.8262 -38.002 -46.8789c-25.9941 -21.2412 -44.8184 -28.5273 -101.549 -28.5273c-30.7109 0 -55.4668 3.77344 -84.3779 24.0117c-35.6396 24.9473 -40.4326 43.3193 -40.4326 59.6816
c0 1.0791 0.0205078 2.1416 0.0507812 3.18848c1.77832 7.05762 3.70996 13.9619 5.5459 20.9609l34.7344 49.1748l1.47656 -0.568359c1.16992 2.75488 3.16309 7.44922 8.56934 12.8555c8.71094 8.71191 21.6055 14.2109 33.3848 14.2109zM291.2 106.297
c0 -0.150391 -0.00488281 -0.255859 -0.0078125 -0.339844l-7.49512 0.231445l0.00585938 0.207031zM253.778 224.786c0 0 0.0332031 -0.0380859 0.0849609 -0.101562l-5.75488 -4.80957l-0.0507812 0.0605469zM163.38 110.122
c0 0.30957 0.0332031 0.52832 0.0566406 0.661133l7.41309 -1.13574l-0.0146484 -0.0957031zM171.897 92.0645c-0.158203 0.0449219 -0.310547 0.0898438 -0.458008 0.136719l2.20215 7.16895l0.338867 -0.100586zM226.882 237.585
c15.5801 0 31.5596 -7.61523 44.3945 -49.0049c7.11621 -23.2031 19.207 -76.0127 19.417 -77.0752c0.328125 -1.55469 0.474609 -3.03516 0.474609 -4.43555c0 -8.36035 -5.44531 -14.709 -10.0039 -15.2773c-3.45605 -0.458008 -3.18359 -0.396484 -102.416 -0.439453
h-0.0839844l-0.0839844 0.00292969c-5.70996 0.250977 -7.65625 0.335938 -10.7578 3.4375c-3.53809 3.53809 -4.6709 7.62598 -4.6709 11.8496c0 3.95996 0.908203 7.67578 2.19824 12.9512l0.00292969 0.00976562c2.97949 11.1729 2.96484 11.1152 11.2139 45.0781
c9.46387 37.6191 20.5693 72.9033 50.3154 72.9033zM165.333 119.527v0zM278.613 77.9922c14.6533 0 24.2754 14.1201 24.2754 28.2637c0 6.21777 -1.5127 12.6729 -3.20508 19.7217c-3.58203 14.2285 -7.06445 28.376 -10.4844 42.5908
c-11.6436 46.9141 -26.2227 82.5205 -62.4492 82.5205c-12.1709 0 -31.292 -5.12695 -44.9756 -33.1211c-8.54688 -17.5156 -11.3789 -28.2227 -24.5 -82.2041c-5.41504 -19.8379 -6.01758 -24.9502 -6.01758 -28.6348c0 -1.41504 0.255859 -14.0312 9.19531 -22.9707
c5.86523 -5.86523 12.3105 -6.10254 18.0771 -6.28809c0.213867 -0.00683594 8.88574 -0.0126953 21.0459 -0.0126953c27.6797 0 73.4355 0.0292969 78.6396 0.135742h0.119141c0.103516 -0.000976562 0.186523 -0.000976562 0.279297 -0.000976562zM258 456
l-33.0332 -35.8672l34.7666 -32.6914l-7.7334 -6.44141l-34.833 32.833l-38.167 -34.833l-5.61621 6.1416l37.4834 34.0918l-31.8672 33.7666l6.90039 6.59961l32.4668 -31.9668l33.6504 33.542zM28.2754 756.736h55.5146l17.1611 52.2256l17.1602 -52.2256h55.5156
l-44.8672 -32.2959l17.1611 -52.2246l-44.9697 32.2959l-44.9707 -32.2959l17.1611 52.2246z" />
  </g>

</svg>
