<?xml version="1.0" standalone="no"?>
<!DOCTYPE svg PUBLIC "-//W3C//DTD SVG 1.1//EN" "http://www.w3.org/Graphics/SVG/1.1/DTD/svg11.dtd" >
<svg xmlns="http://www.w3.org/2000/svg" xmlns:xlink="http://www.w3.org/1999/xlink" version="1.1" viewBox="-10 0 1092 1000">
  <g transform="matrix(1 0 0 -1 0 800)">
   <path fill="currentColor"
d="M667.896 324.801zM667.714 322.64zM797.528 300.154c0 16.9268 -5.8291 32.3291 -19.2803 45.7803c-7.6123 7.6123 -15.2998 12.2773 -22.501 15.1133l-20.4375 8.0498c25.2441 -4.36035 25.2441 -4.36035 28.5596 -5.34961
c0.364258 0.124023 0.84082 0.222656 1.31836 0.134766c31.1836 -5.74414 54.8447 -19.6328 71.792 -36.5801c8.7793 -8.78027 14.8008 -17.1699 20.4053 -26.8799c-14.6084 -25.3613 -39.5869 -53.9717 -93.4961 -63.5781l-11.5889 -2.06543
c10.4746 6.42969 16.3154 9.58008 26.2344 19.6865c13.7598 13.7598 18.9941 29.4521 18.9941 45.6885zM730.911 249.312c-14.2236 0 -26.7217 4.87305 -37.0615 15.2129c-15.0312 15.0332 -18.2559 35.2246 -11.626 53.5791l0.770508 2.13086l0.512695 -0.189453
c10.4209 15.3799 10.4209 15.3799 11.0303 16.2676c16.2871 10.6621 16.2871 10.6621 16.5029 10.6895c11.501 4.83691 36.2783 9.24023 57.0381 -11.5205c10.3213 -10.3203 14.7041 -22.3291 14.748 -35.1357c0 -8.89746 -1.88379 -22.6172 -14.751 -35.4844
c-6.03906 -6.03906 -17.5361 -15.5498 -37.1641 -15.5498zM883.449 300.421c-8.00098 14.2002 -46.9238 82.6211 -149.449 82.6211c-61.6562 0 -100.325 -24.6543 -123.281 -47.6104c-9.77637 -9.77637 -18.2119 -20.4854 -26.4932 -35.0098
c7.3252 -12.8428 15.4844 -23.9092 25.7432 -34.1689c38.0742 -38.0742 84.8887 -48.2529 124.031 -48.2529c18.8223 0 76.8037 1.19824 123.759 48.1543c13.4297 13.4297 21.4688 26.7471 25.6904 34.2666zM704.139 359.707
c-6.13477 -2.30762 -15.7412 -8.38574 -19.4775 -12.1221c-4.99219 -4.99219 -4.99219 -4.99219 -6.13477 -6.89746c-0.957031 -1.59766 -1.16406 -1.79883 -2.41309 -2.92578c-1.75684 -1.58594 -2.34668 -2.30371 -3.00586 -3.98438
c-0.517578 -1.31738 -3.61426 -6.9248 -4.48242 -9.33691c0.115234 -0.566406 0.0341797 -1.12793 -0.117188 -1.52539c-7.06641 -18.502 -7.41113 -46.3008 14.7285 -68.4404c5.74902 -5.74902 11.7432 -9.7666 17.498 -12.5898l15.8203 -7.76074l-17.2666 3.53711
c-31.833 6.52246 -53.8496 21.2197 -68.584 35.9541c-8.74219 8.74316 -14.8193 17.1406 -20.4199 26.8057c10.5117 18.2178 33.9473 52.9287 92.6562 63.6045zM813 655c0 -96.6865 78.0879 -230.199 109.375 -248.775l11.1992 -6.64941
c-16.9434 -0.478516 1.18945 0.900391 -34.5742 -3.5752l-1.0752 1.36426c-22.0068 27.9238 -104.004 167.01 -116.903 264.233c-0.657227 4.95117 0.0224609 9.79688 0.582031 18.2783c-1.38379 0.708984 -2.88672 1.4873 -4.52246 2.34082
c-0.0283203 -1.83984 -0.322266 -3.81641 -0.0449219 -5.88867c33.3789 -249.661 107.546 -273.742 107.546 -273.742s6.91211 -4.29004 10.2793 -6.58594h-32.8613c-44.1455 16.1279 -111.697 208.17 -111.697 279.331c0 8.73535 0.302734 15.3135 0.785156 20.6846
c-60.6641 32.3369 -167.179 40.7012 -270.885 40.7012c-23.0527 0 -45.5234 -2.04883 -73.3945 -6.17773c-32.3232 -4.78906 -32.3232 -4.78906 -70.6152 -21.2002c-18.916 -8.10645 -50.2139 -47.4062 -58.166 -66.7188
c-7.02734 -17.0664 -9.0791 -30.2676 -9.0791 -45.8906c0 -22.332 3.62891 -44.376 3.62891 -77.1553c0 -8.99219 1.14648 -13.8564 1.14648 -20.1924c0 -4.57031 -0.613281 -9.64551 -2.73242 -16.6025c-19.9492 -65.4795 -40.3174 -87.0479 -63.832 -110.183
c-6.25977 -6.16016 -27.0508 -26.6172 -27.0508 -37.7881c0 -4.45605 0.882812 -6.9082 38.3447 -19.4531c55.9199 -18.7266 60.0254 -24.4102 60.0254 -90.9766c0 -43.0117 -4.74121 -62.7734 -4.74121 -104.492c0 -5.5 0.0820312 -11.3867 0.267578 -17.7666
c0.50293 -17.292 16.4512 -45.3398 23.8975 -57.5352c1.19629 -0.303711 1.95996 -1.18164 1.95996 -1.18164c1.1543 -0.666992 2.48438 -1.60059 4.13477 -2.74414c16.0508 -11.1162 22.0049 -13.1846 40.8428 -13.1846c24.0361 0 22.3457 4.21484 79.0615 4.21484
c0.316406 0 6.94531 -0.00390625 7.01562 -0.00390625c14.7988 0 25.668 0.226562 52.1025 3.80078c20.2021 2.73242 38.8271 4.61523 56.5088 6.4043c120.938 12.2334 143.711 24.1475 222.178 80.1953c2.23438 1.5957 5.14355 3.85352 8.45703 6.42773
c12.6104 9.7959 33.0303 26.8994 48.1416 26.8994c8.16699 0 13.834 -4.95996 13.834 -14.165c0 -15.4473 -17.4082 -42.8486 -33.0938 -42.8486c-1.16406 0 -1.56543 0.129883 -3.01758 0.129883c-22.6426 0 -44.3604 -36.5264 -79.4766 -51.29
c-52.8857 -22.2344 -80.2979 -27.1279 -117.459 -33.71c-17.2549 -3.05664 -36.6504 -6.49316 -61.8809 -12.2393c-34.7246 -7.90918 -51.6299 -8.61133 -86.7539 -8.61133c-0.251953 0 -22.7891 0.03125 -25.0811 0.03125
c-11.3115 0 -32.6182 -0.123047 -32.9473 -0.123047c-40.7773 0 -82.5049 2.86621 -120.91 24.8125c-26.0957 14.9121 -27.9092 36.1035 -30.0449 61.0586c-0.477539 5.59082 -0.976562 11.3994 -1.75781 17.3906c-1.96484 15.7158 -2.63672 29.7119 -2.63672 42.8916
c0 28.6572 3.1748 53.4248 3.1748 84.1699c0 46.4277 -4.59863 49 -29.7539 58.8145c-27.3184 10.6582 -57.2148 13.2568 -70.834 26.876c-4.33008 4.33008 -6.66504 9.68945 -6.66504 16.1094c0 4.7959 1.30371 10.1846 4.05176 16.1768
c36.4951 79.5967 68.6367 70.0742 91.3711 139.761c5.20312 15.9443 6.93652 32.2529 6.93652 48.6797c0 32.5635 -6.77832 65.1611 -6.77832 95.8125c0 47.6494 17.2412 68.3838 35.0508 86.1934c66.2422 66.2412 143.674 66.3555 238.901 66.3555h0.988281
c82.8154 0 176.135 0.65332 232.021 -25.8477c43.5547 -20.6533 21.8506 -15.7109 32.4561 -16.8408c11.3984 -1.2168 39 -13 47.5039 -30.4053c4.31641 -8.83496 -4.12305 -21.668 -4.50391 -29.5947c-0.257812 -5.36523 2 -14.3428 2 -20zM47.5039 749.016h42.7031
l13.2012 40.1738l13.2002 -40.1738h42.7041l-34.5127 -24.8428l13.2002 -40.1729l-34.5918 24.8428l-34.5928 -24.8428l13.2012 40.1729zM387 153l-60.1006 59.0254l11.4473 11.8066l48.293 -44.3584l85.8584 108.753l12.8789 -8.94336zM455.956 454.161l-54.2393 -54.7783
l59.0254 -54.2578l-7.68457 -6.40039l-59.0918 54.3975l-53.4463 -54.3975l-5.58203 6.10254l52.7666 53.6621l-51.8711 53.958l6.85547 6.55762l52.4697 -52.168l54.8535 52.4668z" />
  </g>

</svg>
