<?xml version="1.0" standalone="no"?>
<!DOCTYPE svg PUBLIC "-//W3C//DTD SVG 1.1//EN" "http://www.w3.org/Graphics/SVG/1.1/DTD/svg11.dtd" >
<svg xmlns="http://www.w3.org/2000/svg" xmlns:xlink="http://www.w3.org/1999/xlink" version="1.1" viewBox="-10 0 1052 1000">
  <g transform="matrix(1 0 0 -1 0 800)">
   <path fill="currentColor"
d="M828.399 483.872c0 9.49878 0.360099 25.4826 0.360099 28.905l-0.318652 61.3747l-8.69455 54.78l-24.0577 41.7601l-29.8355 19.1251l-33.9409 8.02542l-47.9505 1.85133v0.765382l-107.704 8.96128l-161.614 -4.8437l-135.511 -48.0118l4.97421 -24.8711
l90.1513 34.2037l168.519 13.9909l163.859 -8.05849l72.0585 -32.0852l24.6852 -76.5829c-11.2968 -92.7231 -11.5388 -94.7093 -10.6225 -98.1968c0.272553 -1.03738 0.408327 -1.98777 0.495372 -2.92219c0.487753 -0.641757 1.13403 -1.58506 1.4862 -2.05622
l30.4464 -40.7334l38.0432 -60.0682l23.93 -33.502l-96.7113 -80.2498l-3.19974 -219.288c0.962733 -7.56244 2.78458 -22.0112 5.01798 -45.877c-0.12894 -0.269919 -9.65147 -20.9678 -12.8349 -27.02c-1.80565 -3.43278 -3.36365 -6.39475 -8.94453 -11.1259
c-28.726 -6.87192 -37.6748 -9.01268 -53.7943 -9.01268c-3.38415 0 -6.77838 0.14333 -10.1737 0.446144l-127.95 -3.2205l-189.706 31.9736l-119.91 72.0259l-21.8729 31.5454c-0.18608 0.126152 -14.9542 10.3475 -18.5829 12.6523v-31.4635
c5.41685 -3.87145 13.5068 -7.36272 24.4398 -17.2503c7.32645 -6.62591 2.09556 -4.45645 10.6241 -11.9264c1.03002 -0.902171 1.03002 -0.902171 17.2005 -21.8062l70.2643 -41.1391l123.979 -35.7692l40.8353 -3.74581
c52.8258 -4.90757 59.0669 -6.73248 83.0467 -7.42728l68.08 -1.97257l89.7606 0.254271l51.1066 12.4914l15.1376 25.2075l6.27671 34.16l-0.268638 82.9487l0.0291888 84.2282l-0.00582149 87.5189l84.7837 67.8016l7.68593 8.96692l1.11464 7.19504
c0.44913 7.61262 -1.52476 12.8022 -3.31214 18.1783l-23.3304 38.8443l-33.0243 43.448l-34.3179 48.9016c-0.202711 16.1296 -0.202711 16.1296 -0.202711 17.6951zM30.3242 741.553h55.5146l17.1611 52.2256l17.1602 -52.2256h55.5156l-44.8672 -32.2959
l17.1611 -52.2246l-44.9697 32.2959l-44.9707 -32.2959l17.1611 52.2246zM606.301 193.11c0 -0.420898 -0.0703125 -2.43359 -0.0712891 -2.45801c0 -10.417 -5.375 -22.9424 -19.1953 -36.2432l-57.9346 -55.7607c-58.5713 56.5 -58.5713 56.5 -58.8584 56.7861
c-4.41602 4.41602 -17.3486 17.3486 -18.1211 36.9434c4.25684 14.6377 6.33594 21.7861 9.63672 24.3662c6.24121 4.87695 16.3281 8.66309 23.4795 8.66309c14.9316 0 28.4912 -11.248 35.4561 -18.2129c3.6084 -3.6084 4.69629 -4.76758 8.37305 -4.76758
c1.03027 0 3.60742 0 6.47363 2.86523c8.22168 8.22168 19.8711 20.1279 37.6035 20.1279c9.90234 0 22.0342 -6.6875 24.4395 -9.57617c4.81055 -5.77637 8.71875 -15.6113 8.71875 -22.7334zM484.837 248.666c-16.4941 0 -33.4922 -8.89355 -40.6895 -16.0918
c-6.4668 -6.4668 -15.5225 -24.2139 -15.5225 -39.3652c0 -0.875977 0.0253906 -1.90625 0.0683594 -2.82617l0.00683594 -0.132812v-0.131836c0.0878906 -27.3369 21.9121 -49.1094 26.1543 -52.7451l61.6211 -59.6719c3.29492 -3.19043 7.64551 -5.13672 12.4873 -5.13672
c6.59863 0 10.2773 3.22363 12.5293 5.19727c0.657227 0.576172 46.6895 44.6777 62.8145 60.8027c24.0771 24.0762 25.1973 44.418 25.1973 54.4395v0.132812c0 15.2148 -7.89746 31.7422 -16.3438 40.1885c-6.61133 6.61133 -24.9629 15.5635 -40.1133 15.5859
c-19.0576 -0.382812 -27.002 -4.79395 -44.2383 -17.5977c-11.3164 8.39844 -23.9062 17.3525 -43.9717 17.3525zM429.279 348.18h250.65l0.523438 125.855c8.74512 -5.17383 17.4902 -10.3467 26.2354 -15.5205l-0.463867 27.8584l-111.572 64.75l0.942383 0.398438
c-13.8896 7.2207 -16.9619 8.91016 -25.2734 13.7236l-169.97 -70.0596v-25.9072c9.70117 4.08594 19.4033 8.17285 29.1045 12.2598zM655.815 372.354h-202.377l-0.546875 119.056l115.766 48.7627l88.1445 -52.1455z" />
  </g>

</svg>
