<?xml version="1.0" standalone="no"?>
<!DOCTYPE svg PUBLIC "-//W3C//DTD SVG 1.1//EN" "http://www.w3.org/Graphics/SVG/1.1/DTD/svg11.dtd" >
<svg xmlns="http://www.w3.org/2000/svg" xmlns:xlink="http://www.w3.org/1999/xlink" version="1.1" viewBox="-10 0 1043 1000">
  <g transform="matrix(1 0 0 -1 0 800)">
   <path fill="currentColor"
d="M498 7c0 -2 3 -5 5 -5l367 -2c2 0 5 3 5 5l-1 157c6 -1 12 2 18 2c26 2 25 -1 25 -1l-42 51l-1 84c0 2 -3 5 -5 5h-210l-3 36l-1 14l-53 -47h-2h-97c-2 0 -5 -3 -5 -5v-294zM517 21v266h85l57 -48c1 16 -1 31 0 48l197 -1v-71l-48 -52l25 1h24l-1 -145zM30.3242 741.553
h55.5146l17.1611 52.2256l17.1602 -52.2256h55.5156l-44.8672 -32.2959l17.1611 -52.2246l-44.9697 32.2959l-44.9707 -32.2959l17.1611 52.2246zM234.714 583.35zM234.896 585.511zM233.358 597.142c1.8584 4.73242 5.09668 6.56055 5.97266 8.02344
c0.884766 1.47656 1.58496 2.44824 3.44043 4.41895c-27.624 -10.9893 -45.2627 -28.9404 -57.0723 -48.4404c10.1865 -16.6084 27.9053 -35.957 56.3242 -47.8213c-20.9502 23.4639 -20.8018 51.9805 -13.7793 71.5645c-0.123047 1.58398 -0.15918 2.05762 3.82422 9.69922
c0.606445 1.16211 1.14258 2.2168 1.29004 2.55566zM457.4 558.707c-17.3164 -31.2041 -61.6133 -87.2461 -156.4 -87.2461c-39.8721 0 -113.97 11.1719 -156.697 87.1807c-0.140625 0.245117 -0.140625 0.245117 8.37305 4.93457
c-2.79785 0 -5.59668 0.00585938 -8.39551 0.00585938c18.958 33.7197 63.7451 87.418 156.72 87.418c41.2861 0 114.366 -11.7539 156.462 -87.5537l-8.49707 -4.72363zM255.786 575.622c-15.4229 -44.7656 40.5215 -78.5654 74.1631 -44.9238
c17.1074 17.1074 17.0273 43.3438 0.00488281 60.3662c-17.9736 17.9736 -39.1787 14.1426 -49.1172 9.95312c-1.98926 -1.27246 -11.2588 -7.37988 -14.127 -9.27051l0.554688 0.808594c-0.18457 -0.269531 -0.370117 -0.539062 -0.554688 -0.808594
c-2.50586 -3.6582 -10.8145 -15.9639 -10.9238 -16.125zM231.104 580.233c0.166016 -0.0820312 0.349609 -0.146484 0.552734 -0.191406zM415.977 561.125c-6.84766 11.2256 -25.8799 38.4863 -66.6758 51.7021c30.583 -29.5439 29.3467 -74.792 1.34863 -102.789
c22.0703 7.08594 46.8955 20.6299 65.3271 51.0869zM371.31 26.0039zM623.107 605.124l-0.720703 13.6797c-0.1392 2.64216 2.14203 4.72558 4.47229 4.7367l201.12 0.959961c2.6735 0.0127608 4.57976 -2.42512 4.5198 -4.62268l-0.399414 -14.6396
c-0.0661959 -2.42627 -2.13661 -4.37727 -4.49833 -4.37727h-200c-2.46351 0 -4.37996 2.10302 -4.49377 4.26325zM623.114 527.683l-1.2002 15.6523c-0.219677 2.86492 2.42584 4.85392 4.50829 4.84399l201.12 -0.958984
c2.57285 -0.0122679 4.46665 -2.30523 4.47848 -4.47542l0.0800781 -14.6934c0.014801 -2.71581 -2.52318 -4.52452 -4.49993 -4.52452h-200c-2.32744 0 -4.31036 1.85451 -4.48683 4.15596z" />
  </g>

</svg>
