<?xml version="1.0" standalone="no"?>
<!DOCTYPE svg PUBLIC "-//W3C//DTD SVG 1.1//EN" "http://www.w3.org/Graphics/SVG/1.1/DTD/svg11.dtd" >
<svg xmlns="http://www.w3.org/2000/svg" xmlns:xlink="http://www.w3.org/1999/xlink" version="1.1" viewBox="-10 0 1010 1000">
  <g transform="matrix(1 0 0 -1 0 800)">
   <path fill="currentColor"
d="M330 342c0 -7.31641 -5.91992 -35.0859 -28.8184 -35.0859c-0.145508 0 -0.291992 0.000976562 -0.439453 0.00390625c-0.0898438 -0.000976562 -7.11035 -0.145508 -7.11035 -0.145508c-17.957 0.0625 -35.9365 0.0947266 -53.915 0.0947266
c-17.7988 0 -35.5967 -0.03125 -53.373 -0.09375c-7.50586 0.239258 -14.1592 0.496094 -21.4258 8.09668c-6.26172 6.9375 -9.375 15.3545 -9.375 24.9619c0 7.57812 2.80762 18.3545 6.7627 32.8301c0.0175781 0.0683594 8.47852 34.8818 8.47852 34.8818
c10.7754 43.1123 25.4697 97.0771 71.3223 97.0771c42.875 0 58.8271 -46.2207 70.7627 -94.3057c15.2227 -63.2861 16.7168 -64.5078 16.8477 -65.168c0.191406 -0.939453 0.283203 -1.99805 0.283203 -3.14746zM296.959 321.541c5.5293 0 17.2236 0 18.9199 17.168
c0.00683594 0.244141 0.00976562 0.487305 0.00976562 0.729492c0 5.09082 -2.30859 14.1621 -7.02441 32.6855c-14.7314 60.5029 -21.6484 88.9072 -38.8936 106.153c-8.5127 8.5127 -17.7334 11.6289 -28.2988 11.6289c-33.5645 0 -46.7207 -39.1631 -57.9473 -83.873
c-15.4375 -63.5547 -15.4375 -63.5547 -15.4375 -66.3545c0 -6.06934 3.49414 -16.9453 13.0586 -17.8525c1.72949 -0.146484 3.42383 -0.25293 5.13086 -0.326172l109.744 0.0458984c0.246094 -0.00292969 0.492188 -0.00488281 0.738281 -0.00488281zM339.993 -162.333
c-6.48633 0 -11.833 5.2793 -11.833 11.833v240.084c0 6.50684 5.29688 11.833 11.877 11.833c0 0 65.7803 -0.266602 77.9971 -0.31543l52.0459 47.0879c3.43555 -26.9775 3.43555 -26.9775 4.76465 -51.5605l164.489 3.58496c6.35254 0 11.666 -5.28613 11.666 -11.8369
v-67.377l47.4023 -55.1924c-43.6182 2.40039 -43.6182 2.40039 -48.8213 3.14355l1.41992 -120.739c0 -6.43457 -5.30762 -11.752 -11.8779 -11.752zM619.486 -131.826l3.04492 98.2959c-5.18848 -0.797852 -10.376 -1.5957 -15.5645 -2.39453l-36.374 4.82227
l48.7402 53.4541v46.2783l-142.78 1.83496c-0.43457 -15.876 -0.43457 -15.876 -2.12695 -48.8555l-56.7363 47.8438l-57.8594 0.248047v-200.412zM50.3545 720.521h55.5146l17.1611 52.2256l17.1602 -52.2256h55.5156l-44.8672 -32.2959l17.1611 -52.2246l-44.9697 32.2959
l-44.9707 -32.2959l17.1611 52.2246zM764.7 469.851l45.1504 -29.4004l27.2998 36.75l12.5996 2.09961l-39.8994 -51.4492l-46.2002 28.3496zM488.551 429.95l42 45.1504l39.8994 -44.1006l-14.7002 1.0498l-25.1992 30.4502l-30.4502 -31.5zM532.65 440.45
c0 -71.0498 59.8496 -128.45 133.35 -128.45s133.351 57.4004 133.351 128.45c0 71.0498 -59.8506 128.45 -133.351 128.45s-133.35 -57.4004 -133.35 -128.45zM522.15 440.45c0 77 64.4004 139.65 143.85 139.65c79.4502 0 143.851 -62.6504 143.851 -139.65
s-64.4004 -139.65 -143.851 -139.65c-79.4492 0 -143.85 62.6504 -143.85 139.65z" />
  </g>

</svg>
