<?xml version="1.0" standalone="no"?>
<!DOCTYPE svg PUBLIC "-//W3C//DTD SVG 1.1//EN" "http://www.w3.org/Graphics/SVG/1.1/DTD/svg11.dtd" >
<svg xmlns="http://www.w3.org/2000/svg" xmlns:xlink="http://www.w3.org/1999/xlink" version="1.1" viewBox="-10 0 1051 1000">
  <g transform="matrix(1 0 0 -1 0 800)">
   <path fill="currentColor"
d="M485.213 424.298c-30.0873 1.27589 -24.8935 21.677 -15.2129 59.7021c20.9491 86.64 33.7168 139.444 82.0449 135.17c41.9206 -2.89063 53.9513 -52.7791 73.6367 -134.41c9.17384 -36.0022 11.9776 -47.0055 -1.77539 -57.375
c-1.6478 -1.24458 -4.214 -3.18282 -15.1709 -3.0332c-41.1738 -0.0537109 -82.3486 -0.0537109 -123.522 -0.0537109zM485.213 413.354c40.207 0.140625 80.4131 0.140625 120.619 0c2.64551 0.0517578 5.28906 0.103516 7.93066 0.161133
c25.6159 -0.395394 31.2161 33.1545 29.8994 39.6357c-0.147005 0.741815 -1.70146 1.5725 -18.9326 73.2158c-8.84758 35.6474 -30.9846 124.839 -96.7832 100.28c-34.5806 -14.0832 -43.2801 -45.3711 -71.8154 -160.634
c-4.18164 -17.6423 -7.40616 -51.5235 29.082 -52.6592zM30.3545 728.521h55.5146l17.1611 52.2256l17.1602 -52.2256h55.5156l-44.8672 -32.2959l17.1611 -52.2246l-44.9697 32.2959l-44.9707 -32.2959l17.1611 52.2246zM701.458 716.528
c147.757 3.13337 146.528 -106.431 144.793 -202.769c-0.395508 -21.9258 -0.433594 -33.2402 -0.22168 -41.9463c26.3789 -43.8281 72.168 -89.959 89.3252 -129.607c6.95117 -16.0635 5.49219 -24.7637 2.64551 -40.2051l-12 -14l-79.501 -63.5771v-212.431
c1.93945 -31.0869 1.82422 -79.2412 -27.416 -108.48c-26.0322 -26.0322 -182.507 -12.0195 -220.584 -13.0049l-2.90137 0.0126953c-103.732 -7.2998 -296.108 50.6025 -326.603 92.1719c-18.5059 25.2275 -31.4014 41.2529 -57.9951 55.3086v70.0371
c25.8174 -16.2627 49.624 -17.8066 70.1904 -60.6357c44.2188 -92.082 349.455 -105.734 451.309 -108.438l-0.499023 -0.962891c50 12 34.1514 4.48145 42.5352 13.5361c19.1768 20.7119 3.97852 41.9688 5.50781 57.9648h-0.541992v2.14941
c-0.253906 0.990234 -0.500977 1.94141 -0.738281 2.84863h0.738281v212h1.58203l104 88h1.13281c4.9834 45.8955 -62.8379 92.1289 -94.2158 139.501l-3 4c-16.5064 16.5064 41.0034 199.005 -77.5088 199.515c-136.35 16.7461 -373.536 9.53418 -431.49 -46.5137
l-9.00098 -3.00195l-12 60c128.725 89.7881 355.203 55.3633 442.458 48.5283zM495.82 311.814c0.244476 0 22.1865 -9.90593 22.1865 -10.2686c0 -3.6369 -4.85022 0.77057 -27.2734 -15.7637c-0.0703125 -0.0517578 -0.398438 -0.291992 -0.888672 -0.291992
c-0.823242 0 -1.5 0.669922 -1.5 1.54297c0.451448 15.7856 7.21674 24.7812 7.47559 24.7812zM604.059 310.802c0.593013 0 8.30859 -12.0521 8.30859 -25.3984c0 -0.830078 -0.676758 -1.50098 -1.5 -1.50098c-2.51275 0 -5.3736 6.67531 -26.5684 15.3135
c-0.549805 0.224609 -0.931641 0.764648 -0.931641 1.38867c0 3.41337 8.42266 1.60824 19.8086 9.90918c0.105469 0.0761719 0.420898 0.288086 0.882812 0.288086zM635.043 218.509c0.398438 -46.3652 -40.3301 -80.9668 -85.4609 -80.9668
c-43.1523 0 -85.7529 31.9209 -85.7529 81.0898v0.117188c0 45.6689 41.0137 81.8418 87.2529 81.8428l13.1992 -1.2002s70.2002 -15.6006 70.7617 -80.8828zM526.487 132.713c0 -0.556068 -0.206159 -8.71484 -12.3037 -8.71484
c-1.37891 0 -7.43945 2.09766 -7.43945 14.666c0 0.836914 0.680664 1.50195 1.49902 1.50195c0.197078 0 18.2441 -6.55043 18.2441 -7.45312zM568.385 131.783c0 1.10082 18.2208 6.74805 18.417 6.74805c0.817383 0 1.5 -0.665039 1.5 -1.50293
c0 -7.16016 -3.29199 -14.3506 -7.62598 -14.3506c-12.2292 0 -12.291 8.9248 -12.291 9.10547zM560.22 131.761c2.50582 0 3.48847 -14.0332 11.3047 -14.0332c2.40137 0 3.94629 -1.28809 8.46582 -1.28809c10.9863 0 14.9043 10.8564 14.9043 19.832
c0 3.72852 -0.208984 5.18262 -0.208984 5.23535c0 1.27216 47.0742 24.2061 47.0742 76.2314c0 39.7792 -23.2217 55.3558 -23.2217 59.2021c0 0.0830078 0.499023 3.0625 0.499023 8.24121c0 10.9429 -6.7425 33.1475 -13.4229 33.1475
c-5.22212 0 -30.8542 -15.8242 -31.2041 -15.8242c-1.05566 0 -9.32324 3.78613 -22.1289 3.78613c-13.4316 0 -18.0615 -1.7998 -18.2998 -1.7998c-0.450195 0 -7.7998 -1.7998 -8.92285 -0.756836c-13.5548 12.5895 -14.0626 5.51074 -24.0332 12.7012
c-2.63965 1.9043 -4.84961 2.86816 -6.9541 2.86816c-7.03619 0 -12.3496 -23.027 -12.3496 -31.835c0 -5.59668 0.592773 -8.36621 0.592773 -8.4502c0 -3.00365 -25.2969 -20.3559 -25.2969 -61.3594c0 -48.9417 43.4111 -73.2844 43.4111 -74.1436
c0 -0.667969 -0.37793 -1.53516 -0.37793 -5.66113c0 -12.5342 6.78223 -20.2861 14.4102 -20.2861c2.87891 0 7.31738 1.37793 9.36621 1.52148c7.08663 0 8.24034 13.1836 10.7236 13.1836c0.15332 0 6.88184 -1.0918 15.2637 -1.0918
c6.05469 0 10.3008 0.579102 10.4053 0.579102zM544.093 245.574c0 1.11813 6.47182 7.8125 13.5273 7.8125c4.35742 0 6.79199 -2.51562 6.79199 -5.6377c0 -1.38133 0 -6.15332 -9.64941 -6.15332c-4.26943 0 -10.6699 1.97198 -10.6699 3.97852zM556.936 262.697
c-11.7566 0 -17.4251 -8.38086 -19.0332 -8.38086c-2.16547 0 -2.65213 5.97454 -2.74316 7.56152c-1.30387 22.7431 26.4639 14.4994 26.4639 23.7998c0 8.11446 -50.1039 -5.32472 -30.4482 -39.7246c0.0800781 -0.139648 6.15137 -11.7939 6.15137 -14.8232
c0 -0.0537109 -0.0136719 -0.445312 -0.015625 -0.611328c0 -3.45508 1.73145 -16.498 1.73145 -22.2344c0 -0.926758 -0.0419922 -1.80078 -0.0419922 -2.63574v-0.648438c3.82617 -0.576172 4.97559 -0.823242 8.18164 -1.9082
c0.335938 2.51758 0.400391 3.29688 0.400391 5.22559c0 10.959 -2.5 23.9308 -2.5 24.1738c0 3.12435 12.8972 1.40005 18.5996 3.2998c10.236 3.41283 12.4809 26.9062 -6.74609 26.9062z" />
  </g>

</svg>
