<?xml version="1.0" standalone="no"?>
<!DOCTYPE svg PUBLIC "-//W3C//DTD SVG 1.1//EN" "http://www.w3.org/Graphics/SVG/1.1/DTD/svg11.dtd" >
<svg xmlns="http://www.w3.org/2000/svg" xmlns:xlink="http://www.w3.org/1999/xlink" version="1.1" viewBox="-10 0 1086 1000">
  <g transform="matrix(1 0 0 -1 0 800)">
   <path fill="currentColor"
d="M296.794 701.68c2.06836 -36.7363 -15.3896 -141.376 -5.12012 -146.868c10.082 -108.389 115.021 -209.66 115.155 -205.752l-17.7822 -11.8555c-40.0059 43.6357 -84.6445 86.8203 -118.66 205.06c-7.57129 -52.0625 -40.0918 -110.375 -69.3115 -147.483
c-17.7803 -22.5791 -25.4014 -40.6416 -40.6436 -57.5762l-20.3213 16.0879c22.8623 29.6348 35.6943 48.7363 50.8047 68.584c77.1455 101.339 80.3721 234.392 79.7754 304.878c7.17871 -0.157227 14.3564 -0.31543 21.5361 -0.473633
c4.03809 -0.0878906 4.20215 -4.01465 4.27344 -5.68848c0.0078125 -0.19043 -0.262695 -9.01172 0.293945 -18.9121zM729.711 356.349c67.0107 0.234375 134.021 0.234375 201.031 0c4.40918 0.0859375 8.81543 0.172852 13.2188 0.268555
c16.2383 -0.25 29.6289 7.42383 38.9355 23.748c8.38477 14.707 12.6797 33.5312 10.8965 42.3115c-0.810547 4.09082 -6.99219 22.417 -9.0166 30.4688c-7.6709 30.4561 -15.1826 60.9775 -22.5381 91.5576c-4.36816 17.6016 -9.1875 34.998 -14.4463 52.1895
c-5.4834 17.7373 -12.083 34.7734 -19.792 51.1074c-6.79883 14.041 -15.0078 26.7109 -24.6348 38.0137c-16.4629 18.3867 -35.7734 28.8008 -57.9326 31.2422c-15.1201 1.81641 -29.9531 0.0117188 -44.499 -5.41797
c-13.3213 -5.42578 -25.1641 -13.9111 -35.5391 -25.4648c-9.41406 -10.8262 -17.4307 -23.0166 -24.0547 -36.5635c-6.01172 -12.3232 -11.3057 -25.1436 -15.8906 -38.4678c-4.56836 -13.334 -8.70898 -26.876 -12.4258 -40.6338
c-2.7832 -10.3818 -5.48047 -20.7959 -8.09082 -31.2422c-5.25293 -21.8096 -10.5498 -43.5986 -15.8906 -65.374c-2.71777 -9.94531 -5.31543 -19.9375 -7.80176 -29.9766c-1.45605 -6.14648 -2.75977 -12.3516 -3.90137 -18.6025
c-3.06543 -22.1533 2.11426 -40.6641 15.5312 -55.5303c4.50488 -4.71484 9.55957 -8.26367 15.1689 -10.6572c3.07422 -1.09082 6.20605 -1.81152 9.39355 -2.16699c4.11035 -0.40625 8.2002 -0.681641 12.2783 -0.80957v0zM729.711 374.588
c-3.30176 0.140625 -6.62695 0.351562 -9.96875 0.632812c-2.39453 0.226562 -4.75195 0.707031 -7.07812 1.44141c-4.14258 1.83496 -7.84863 4.5459 -11.127 8.12695c-8.8418 10.3496 -12.0918 22.9609 -9.74805 37.834c1.23828 6.49609 2.63281 12.9375 4.1875 19.3223
c2.85156 10.6895 5.64453 21.4062 8.37891 32.1465c5.22852 21.6211 10.4766 43.2285 15.749 64.8301c2.58105 10.2812 5.27637 20.5137 8.08887 30.7031c5.03906 18.3594 11.0137 36.2393 17.916 53.6309c5.1543 12.7812 11.3203 24.7021 18.4883 35.7598
c19.8984 29.6562 45.3984 43.1094 76.5 40.3594c21.1006 -1.45508 39.2568 -11.2109 54.4688 -29.2529c8.36719 -10.4561 15.5176 -22.0459 21.4521 -34.7646c6.56738 -14.3887 12.251 -29.3164 17.0479 -44.7891c4.92578 -16.0635 9.45312 -32.3164 13.5801 -48.7578
c5.4375 -22.1328 10.834 -44.2871 16.1797 -66.4531c2.02344 -7.94531 4.04492 -15.8916 6.06836 -23.8398c2.22656 -9.01758 4.24902 -18.1055 6.06934 -27.2695c0.899414 -4.26562 1.28613 -8.59766 1.15625 -13.001
c-1.33496 -13.8486 -6.75293 -24.3516 -16.2529 -31.5146c-3.07422 -2.32031 -6.39551 -3.70898 -9.9707 -4.15234c-5.08887 -0.675781 -10.1904 -0.973633 -15.3145 -0.90332c-68.623 -0.0888672 -137.248 -0.12207 -205.871 -0.0888672v0zM780.659 223.904
c-0.529297 0 -0.985352 0.173828 -1.32227 0.358398l-214.094 -88.2627v-37.8242c12.126 5.10742 24.251 10.2148 36.376 15.3213v-3.77051l-0.21875 -161.659h318.305l0.646484 155.446c10.9619 -6.48535 21.9238 -12.9697 32.8867 -19.4551l-0.677734 40.7051
l-136.33 79.1182l1.46387 0.616211c-22.6963 11.7715 -24.457 12.7314 -36.2109 19.5508c-0.288086 -0.102539 -0.56543 -0.144531 -0.824219 -0.144531zM884.594 -16.7148h-248.003l-0.665039 144.662l142.009 59.8174l107.859 -63.8086zM348.481 97.6934l-82.2217 148.848
l24.0225 10.1475l58.4395 -100.383l53.3027 101.418l27.2285 -11.0254zM265.568 -67.707v34.6641h38.626v22.0713h-38.626v34.6641h38.626v33.7148h31.3828v-33.7148h23.2197v31.2539h31.3828v-31.2539h41.292v-34.6641h-41.292v-22.0713h41.292v-34.6641h-41.292v-36.1855
h-31.3828v36.1855h-23.2197v-33.7246h-31.3828v33.7246h-38.626zM335.577 -33.043h23.2197v22.0713h-23.2197v-22.0713zM63.3545 -23.4795h55.5146l17.1611 52.2256l17.1602 -52.2256h55.5156l-44.8672 -32.2959l17.1611 -52.2246l-44.9697 32.2959l-44.9707 -32.2959
l17.1611 52.2246z" />
  </g>

</svg>
