<?xml version="1.0" standalone="no"?>
<!DOCTYPE svg PUBLIC "-//W3C//DTD SVG 1.1//EN" "http://www.w3.org/Graphics/SVG/1.1/DTD/svg11.dtd" >
<svg xmlns="http://www.w3.org/2000/svg" xmlns:xlink="http://www.w3.org/1999/xlink" version="1.1" viewBox="-10 0 790 1000">
  <g transform="matrix(1 0 0 -1 0 800)">
   <path fill="currentColor"
d="M51.3545 703.521h55.5146l17.1611 52.2256l17.1602 -52.2256h55.5156l-44.8672 -32.2959l17.1611 -52.2246l-44.9697 32.2959l-44.9707 -32.2959l17.1611 52.2246zM51.3545 703.521h55.5146l17.1611 52.2256l17.1602 -52.2256h55.5156l-44.8672 -32.2959
l17.1611 -52.2246l-44.9697 32.2959l-44.9707 -32.2959l17.1611 52.2246zM649.177 263.219c1.2627 -22.4336 -7.74219 -81.3936 -5.23047 -95.668c0.770508 -0.875977 1.56445 -2.23145 1.72852 -3.98535c5.23145 -56.2568 51.2754 -111.696 69.0869 -129.507
c3.60547 -3.60547 3.60547 -3.60547 14.0586 -11.6914c-1.22754 -0.802734 -1.22754 -0.802734 -19.9932 -13.3145c-2.84668 -1.90039 -6.69922 -1.45703 -9.03418 1.08984c-30.0791 32.7197 -53.7002 58.416 -74.6094 118.096
c-9.44629 -29.4131 -26.6836 -58.2959 -42.6045 -78.5156c-11.126 -14.1289 -19.8799 -31.4688 -28.2031 -39.793c-2.53711 -2.53711 -6.54395 -2.71484 -9.28906 -0.542969c-14.1436 11.1963 -14.1436 11.1963 -14.4336 11.4873
c-2.5166 2.51562 -2.71289 6.47656 -0.598633 9.21973c7.94727 10.3027 34.1816 46.1582 34.5322 46.6201c50.7832 66.708 53.252 155.368 52.8457 203.106c-0.0341797 3.9502 3.20312 7.14551 7.1543 7.05664c18.7012 -0.416016 18.7012 -0.416016 21.4033 -3.11816
c2.02734 -2.02734 3.06055 -5.03613 2.99219 -8.46777c-0.0234375 -1.15625 -0.125977 -6.3916 0.194336 -12.0723zM346.598 263.496c1.2627 -22.4336 -7.74219 -81.3936 -5.23047 -95.668c0.770508 -0.875977 1.56445 -2.23145 1.72852 -3.98535
c5.23145 -56.2568 51.2754 -111.696 69.0869 -129.507c3.60547 -3.60547 3.60547 -3.60547 14.0586 -11.6914c-1.22754 -0.802734 -1.22754 -0.802734 -19.9932 -13.3145c-2.84668 -1.90039 -6.69922 -1.45703 -9.03418 1.08984
c-30.0791 32.7197 -53.7002 58.416 -74.6094 118.096c-9.44629 -29.4131 -26.6836 -58.2959 -42.6045 -78.5156c-11.126 -14.1289 -19.8799 -31.4688 -28.2031 -39.793c-2.53711 -2.53711 -6.54395 -2.71484 -9.28906 -0.542969
c-14.1436 11.1963 -14.1436 11.1963 -14.4336 11.4873c-2.5166 2.51562 -2.71289 6.47656 -0.598633 9.21973c7.94727 10.3027 34.1816 46.1582 34.5322 46.6201c50.7832 66.708 53.252 155.368 52.8457 203.106c-0.0341797 3.9502 3.20312 7.14551 7.1543 7.05664
c18.7012 -0.416016 18.7012 -0.416016 21.4033 -3.11816c2.02734 -2.02734 3.06055 -5.03613 2.99219 -8.46777c-0.0234375 -1.15625 -0.125977 -6.3916 0.194336 -12.0723zM482.42 556h20.5801c1.28027 0 2.59266 -0.456158 3.53809 -1.46191
c69.1982 -73.6143 59.4619 -64.5381 59.4619 -64.5381c0.816406 -1.0293 1.35352 -2.19141 1.35352 -3.42285c0 -2.32031 -1.58398 -4.2998 -3.78027 -4.84863c-18.2393 -4.56055 -18.2393 -4.56055 -18.8594 -4.56055c-1.2793 0 -2.7041 0.373047 -3.53516 1.46387
c0 0 -34.7207 38.9102 -47.1787 51.3682l-60 -53c-0.881437 -0.778603 -2.03711 -1.12305 -3.1582 -1.12305c-0.595703 0 -2.92285 0.152344 -4.28906 2.42773c-9.53027 15.8828 -12.4834 13.7578 -12.4834 15.1455c0 0.738281 0.0878906 2.51953 1.6709 3.73145
l63.3516 57.5508c0.936963 0.85117 2.13672 1.26758 3.32812 1.26758zM591.856 709.192c0.735352 0 2.43066 -0.182617 3.7666 -1.70898c11.5225 -13.1689 11.5225 -13.1689 11.5225 -15.0498c0 -1.2793 -0.487305 -2.55957 -1.5 -3.57227l-72.0293 -70.5596
c-0.97168 -0.951172 -2.23535 -1.42676 -3.49902 -1.42676c-0.693359 0 -2.63281 0.175781 -4.00293 2.00293c-9.81641 13.0869 -9.81641 13.0869 -9.81641 14.7559c0 1.28027 0.488281 2.56055 1.46387 3.53613l70.5596 70.5596
c0.975586 0.975586 2.25586 1.46289 3.53516 1.46289zM463.086 636.573c0 -2.50098 -10.1445 -16.626 -10.2832 -16.7646c-0.975586 -0.975586 -2.25586 -1.46387 -3.53613 -1.46387zM463.086 636.573c0 -2.50098 -10.1445 -16.626 -10.2832 -16.7646
c-0.975586 -0.975586 -2.25586 -1.46387 -3.53613 -1.46387c-1.06055 0 -2.12109 0.334961 -3.00781 1.00488c-76.2295 57.541 -76.2295 57.541 -76.4775 57.7891c-0.975586 0.975586 -1.46387 2.25586 -1.46387 3.53516c0 2.5332 11.2227 19.6641 11.2646 19.7061
c0.975586 0.975586 2.25586 1.46289 3.53516 1.46289c1.10938 0 2.21875 -0.366211 3.12988 -1.09863c75.1816 -60.4414 75.1816 -60.4414 75.376 -60.6348c0.975586 -0.975586 1.46289 -2.25586 1.46289 -3.53613zM285.018 603.281
c0 94.9795 94.0518 172.416 209.982 172.416c115.928 0 209.982 -77.2969 209.982 -172.28c0 -94.9785 -94.0508 -172.416 -209.982 -172.416c-115.927 0 -209.982 77.2979 -209.982 172.28zM308.627 603.417c0 -82.0918 83.8633 -148.807 186.373 -148.807
c102.515 0 186.373 66.584 186.373 148.671c0 82.0908 -83.8623 148.806 -186.373 148.806c-102.513 0 -186.373 -66.582 -186.373 -148.67z" />
  </g>

</svg>
