<?xml version="1.0" standalone="no"?>
<!DOCTYPE svg PUBLIC "-//W3C//DTD SVG 1.1//EN" "http://www.w3.org/Graphics/SVG/1.1/DTD/svg11.dtd" >
<svg xmlns="http://www.w3.org/2000/svg" xmlns:xlink="http://www.w3.org/1999/xlink" version="1.1" viewBox="-10 0 1009 1000">
  <g transform="matrix(1 0 0 -1 0 800)">
   <path fill="currentColor"
d="M30.3242 741.553h55.5146l17.1611 52.2256l17.1602 -52.2256h55.5156l-44.8672 -32.2959l17.1611 -52.2246l-44.9697 32.2959l-44.9707 -32.2959l17.1611 52.2246zM271 608l-12 60c128.725 89.7881 355.203 55.3633 442.457 48.5605
c0 -0.0107422 0.000976562 -0.0214844 0.000976562 -0.0322266c27.4463 0.582031 75.1855 -1.32129 107.268 -33.4033c40.1396 -40.1396 38.6152 -108.841 37.5254 -169.365c-0.395508 -21.9258 -0.433594 -33.2402 -0.22168 -41.9463
c26.3789 -43.8281 72.168 -89.959 89.3252 -129.607c6.95117 -16.0635 5.49219 -24.7637 2.64551 -40.2051l-12 -14l-79.501 -63.5771v-212.431c1.93945 -31.0869 1.82422 -79.2412 -27.416 -108.48c-26.0322 -26.0322 -182.507 -12.0195 -220.584 -13.0049
l-2.90137 0.0126953c-103.732 -7.2998 -296.108 50.6025 -326.603 92.1719c-18.5059 25.2275 -31.4014 41.2529 -57.9951 55.3086v70.0371c25.8174 -16.2627 49.624 -17.8066 70.1904 -60.6357c44.2188 -92.082 349.455 -105.734 451.309 -108.438l-0.499023 -0.962891
c50 12 34.1514 4.48145 42.5352 13.5361c19.1768 20.7119 3.97852 41.9688 5.50781 57.9648h-0.541992v2.14941c-0.253906 0.990234 -0.500977 1.94141 -0.738281 2.84863h0.738281v207.174v3.4873v1.33887h1.58203l104 88h1.13281
c4.9834 45.8955 -62.8379 92.1289 -94.2158 139.501l-3 4l-1 1c-2.02051 3.99219 0.0439453 4.02539 -2.08398 11.5605c-0.0371094 0.130859 -0.189453 0.24707 -0.174805 0.367188l0.258789 2.07227l0.0644531 1.49902
c0.00976562 0.226562 0.150391 3.89551 0.242188 6.24414c3.11426 79.1523 5.19727 173.389 -83.8154 173.771c-136.35 16.7461 -373.536 9.53418 -431.49 -46.5137zM613.056 463.982c1.28906 -22.9072 -9.59668 -88.1592 -3.19336 -91.584
c6.28711 -67.5898 71.7256 -130.74 71.8086 -128.305l-11.0879 -7.3916c-24.9473 27.2109 -52.7832 54.1396 -73.9941 127.872c-4.72266 -32.4658 -25.001 -68.8281 -43.2227 -91.9678c-11.0869 -14.0801 -15.8398 -25.3447 -25.3438 -35.9043l-12.6719 10.0322
c14.2559 18.4795 22.2578 30.3906 31.6797 42.7676c48.1074 63.1934 50.1201 146.162 49.7471 190.117c4.47656 -0.0986328 8.95312 -0.197266 13.4297 -0.296875c2.51855 -0.0537109 2.62109 -2.50195 2.66406 -3.54785
c0.00585938 -0.117188 -0.164062 -5.61719 0.18457 -11.792zM725.087 477.031l-93.3135 -105.289l12.2266 -9.74219l79.4883 92.3574c6.60254 -10.9482 16.0254 -23.8916 19.1621 -32.3887l22.3057 31.8057zM390.295 510.183
c56.7998 -0.0791016 102.962 -46.6611 103.04 -103.979c0 -57.3955 -46.1611 -103.979 -103.04 -103.979c-56.8779 0 -103.041 46.583 -103.041 103.979c0 57.3965 46.1631 103.979 103.041 103.979zM486.082 409.721v0.0712891
c-0.693359 19.7939 -12.0996 47.6338 -25.458 62.1436l-55.3955 -55.9004c1.06445 -1.59863 2.24414 -4.42773 2.63086 -6.31445h78.2227zM400.108 421.13l55.3955 55.7568c-14.3789 13.541 -42 25.1143 -61.6533 25.833v-78.9346
c1.87012 -0.390625 4.67285 -1.58008 6.25781 -2.65527zM386.74 423.785v79.0781c-19.6543 -0.71875 -47.2754 -12.292 -61.6543 -25.833l55.3965 -55.9004c1.58398 1.0752 4.38672 2.26465 6.25781 2.65527zM380.482 391.278l-55.3965 -55.8281
c14.3867 -13.5176 42.0078 -25.0596 61.6543 -25.7617v78.9346c-1.87109 0.391602 -6.25781 2.65527 -6.25781 2.65527zM393.851 388.623v-79.0781c19.6533 0.719727 47.2744 12.293 61.6533 25.833l-55.3955 55.9004c-1.58496 -1.07422 -4.3877 -2.26367 -6.25781 -2.65527
zM320.108 472.008c-13.373 -14.5273 -24.7783 -42.3994 -25.458 -62.2158h78.2227c0.386719 1.88672 1.56641 4.71582 2.63086 6.31543zM294.509 402.616c0.711914 -19.833 12.1807 -47.7051 25.5996 -62.2148l55.2529 55.9004
c-1.06445 1.59863 -2.24316 4.42773 -2.63086 6.31445h-78.2217zM460.482 340.401c13.373 14.5273 24.7773 42.3994 25.457 62.2148h-78.2227c-0.386719 -1.88672 -1.56641 -4.71582 -2.63086 -6.31445z" />
  </g>

</svg>
