<?xml version="1.0" standalone="no"?>
<!DOCTYPE svg PUBLIC "-//W3C//DTD SVG 1.1//EN" "http://www.w3.org/Graphics/SVG/1.1/DTD/svg11.dtd" >
<svg xmlns="http://www.w3.org/2000/svg" xmlns:xlink="http://www.w3.org/1999/xlink" version="1.1" viewBox="-10 0 1046 1000">
  <g transform="matrix(1 0 0 -1 0 800)">
   <path fill="currentColor"
d="M30.3242 741.553h55.5146l17.1611 52.2256l17.1602 -52.2256h55.5156l-44.8672 -32.2959l17.1611 -52.2246l-44.9697 32.2959l-44.9707 -32.2959l17.1611 52.2246zM746 631c0 -96.6865 68.0879 -173.199 99.375 -191.775l11.1992 -6.64941
c-16.9434 -0.478516 1.18945 0.900391 -34.5742 -3.5752l-1.0752 1.36426c-22.0068 27.9238 -93.9978 110.011 -106.903 207.233c-0.657227 4.95117 0.0224609 9.79688 0.582031 18.2783c-1.38379 0.708984 -2.88672 1.4873 -4.52246 2.34082
c-0.0283203 -1.83984 -0.321982 -3.81637 -0.0449219 -5.88867c33.3789 -249.661 97.5459 -216.742 97.5459 -216.742s6.91211 -4.29004 10.2793 -6.58594h-32.8613c-44.1455 16.1279 -101.697 151.17 -101.697 222.331c0 8.73535 0.302734 15.3135 0.785156 20.6846
c-60.6641 32.3369 -123.179 64.7012 -226.885 64.7012c-23.0527 0 -45.5234 -2.04883 -73.3945 -6.17773c-32.3232 -4.78906 -32.3232 -4.78906 -70.6152 -21.2002c-18.916 -8.10645 -50.2139 -47.4062 -58.166 -66.7188
c-7.02734 -17.0664 -9.0791 -30.2676 -9.0791 -45.8906c0 -22.332 3.62891 -44.376 3.62891 -77.1553c0 -8.99219 1.14648 -13.8564 1.14648 -20.1924c0 -4.57031 -0.613281 -9.64551 -2.73242 -16.6025c-19.9492 -65.4795 -40.3174 -87.0479 -63.832 -110.183
c-6.25977 -6.16016 -27.0508 -26.6172 -27.0508 -37.7881c0 -4.45605 0.882812 -6.9082 38.3447 -19.4531c55.9199 -18.7266 60.0254 -24.4102 60.0254 -90.9766c0 -43.0117 2.70801 -110.013 2.70801 -151.731c0 -5.5 0.0820312 -11.3867 0.267578 -17.7666
c0.50293 -17.292 16.4512 -45.3398 23.8975 -57.5352c1.19629 -0.303711 1.95996 -1.18164 1.95996 -1.18164c1.1543 -0.666992 2.48438 -1.60059 4.13477 -2.74414c16.0508 -11.1162 22.0049 -13.1846 40.8428 -13.1846c24.0361 0 22.3457 4.21484 79.0615 4.21484
c0.316406 0 6.94531 -0.00390625 7.01562 -0.00390625c14.7988 0 25.668 0.226562 52.1025 3.80078c20.2021 2.73242 38.8271 4.61523 56.5088 6.4043c120.938 12.2334 143.711 24.1475 222.178 80.1953c2.23438 1.5957 5.14355 3.85352 8.45703 6.42773
c12.6104 9.7959 33.0303 26.8994 48.1416 26.8994c8.16699 0 13.834 -4.95996 13.834 -14.165c0 -15.4473 -17.4082 -42.8486 -33.0938 -42.8486c-1.16406 0 -1.56543 0.129883 -3.01758 0.129883c-22.6426 0 -44.3604 -36.5264 -79.4766 -51.29
c-52.8857 -22.2344 -80.2979 -27.1279 -117.459 -33.71c-17.2549 -3.05664 -36.6504 -6.49316 -61.8809 -12.2393c-34.7246 -7.90918 -51.6299 -8.61133 -86.7539 -8.61133c-0.251953 0 -22.7891 0.03125 -25.0811 0.03125
c-11.3115 0 -32.6182 -0.123047 -32.9473 -0.123047c-40.7773 0 -82.5049 2.86621 -120.91 24.8125c-26.0957 14.9121 -27.9092 36.1035 -30.0449 61.0586c-0.477539 5.59082 -0.976562 11.3994 -1.75781 17.3906c-1.96484 15.7158 -2.63672 29.7119 -2.63672 42.8916
c0 28.6572 -4.27441 100.664 -4.27441 131.409c0 46.4277 -4.59863 49 -29.7539 58.8145c-27.3184 10.6582 -57.2148 13.2568 -70.834 26.876c-4.33008 4.33008 -6.66504 9.68945 -6.66504 16.1094c0 4.7959 1.30371 10.1846 4.05176 16.1768
c36.4951 79.5967 68.6367 70.0742 91.3711 139.761c5.20312 15.9443 6.93652 32.2529 6.93652 48.6797c0 32.5635 -6.77832 65.1611 -6.77832 95.8125c0 47.6494 17.2412 68.3838 35.0508 86.1934c66.2422 66.2412 143.674 66.3555 238.901 66.3555h0.988281
c82.8154 0 132.135 -23.3467 188.021 -49.8477c43.5547 -20.6533 21.8506 -15.7109 32.4561 -16.8408c11.3984 -1.2168 39 -13 47.5039 -30.4053c4.31641 -8.83496 -4.12305 -21.668 -4.50391 -29.5947c-0.257812 -5.36523 2 -14.3428 2 -20zM520.14 257.167v-0.25
c0 -23.25 13.6406 -54.6943 30.5459 -70.4307c10.6396 -9.93262 4.26172 -28.2373 -9.16699 -29.583c-3.71387 -0.499023 -9.77051 -0.90332 -13.5186 -0.90332h-0.370117c-55.748 0.539062 -102.104 46.21 -103.472 101.944
c-0.0107422 0.543945 -0.0185547 1.42578 -0.0185547 1.96973c0 57.5 46.666 104.166 104.166 104.166c5.61719 0 14.6475 -0.881836 20.1582 -1.96875c12.9189 -2.72168 18.3428 -20.8799 7.36035 -29.792c-19.7412 -16.0049 -35.7637 -49.6211 -35.7637 -75.0352
c0 -0.0283203 0.0791016 -0.117188 0.0791016 -0.117188zM548.464 170.515c0.300781 0.90625 0.544922 2.41602 0.544922 3.37109c0 2.59473 -1.55078 6.12402 -3.46191 7.87891c-17.9277 17.0059 -32.4775 50.8633 -32.4775 75.5732
c0 27.2041 17.0693 63.2842 38.1025 80.5371c1.99023 1.60059 3.60547 4.9707 3.60547 7.52441c0 5.10547 -3.93848 9.27344 -8.18848 10.1152c-5.18262 1.0293 -13.6758 1.86914 -18.959 1.875h-2.36133c-52.5605 -1.92676 -95.3301 -46.2842 -94.8604 -99.3057
c1.14941 -53.624 45.2275 -95.1572 99.0693 -95.1572c3.06543 0 8.02441 0.288086 11.0693 0.642578c3.47168 0.449219 7.01855 3.56055 7.91699 6.94531zM454.019 260.098c0 9.58789 7.77344 17.3613 17.3613 17.3613c9.58887 0 17.3613 -7.77344 17.3613 -17.3613
c0 -9.58887 -7.77246 -17.3613 -17.3613 -17.3613c-9.58789 0 -17.3613 7.77246 -17.3613 17.3613zM475.14 419.167c-78.8604 0 -143.036 27.668 -143.036 61.6855c0 34.0176 64.1758 61.6855 143.036 61.6855c78.8594 0 143.035 -27.668 143.035 -61.6855
c0 -34.0176 -64.1758 -61.6855 -143.035 -61.6855zM475.14 535.799c-73.6162 0.259766 -133.5 -24.4922 -133.5 -54.9463c0 -30.4541 59.8838 -55.2061 133.5 -55.2061c73.6152 0 133.499 24.752 133.499 55.2061c0 30.4541 -59.8838 55.2061 -133.499 55.2061v-0.259766z
" />
  </g>

</svg>
