<?xml version="1.0" standalone="no"?>
<!DOCTYPE svg PUBLIC "-//W3C//DTD SVG 1.1//EN" "http://www.w3.org/Graphics/SVG/1.1/DTD/svg11.dtd" >
<svg xmlns="http://www.w3.org/2000/svg" xmlns:xlink="http://www.w3.org/1999/xlink" version="1.1" viewBox="-10 0 667 1000">
  <g transform="matrix(1 0 0 -1 0 800)">
   <path fill="currentColor"
d="M547 413l27 29l17 -16l-28 -28zM508 367l27.8584 32.1426l15.1416 -14.1426l-29 -31zM468 329l27 29l17 -16l-28 -28zM427 283l27.8584 32.1426l15.1416 -14.1426l-29 -31zM234 176l29 -27l-16 -17l-28 28zM180 223l32.1426 -27.8584l-14.1426 -15.1416l-31 29zM137 265
l29 -27l-16 -17l-28 28zM386 241l27 29l17 -16l-28 -28zM347 195l27.8584 32.1426l15.1416 -14.1426l-29 -31zM307 157l27 29l17 -16l-28 -28zM266 111l27.8584 32.1426l15.1416 -14.1426l-29 -31zM499 683l27 29l17 -16l-28 -28zM460 637l27.8584 32.1426l15.1416 -14.1426
l-29 -31zM420 599l27 29l17 -16l-28 -28zM379 553l27.8584 32.1426l15.1416 -14.1426l-29 -31zM186 446l29 -27l-16 -17l-28 28zM132 493l32.1426 -27.8584l-14.1426 -15.1416l-31 29zM89 535l29 -27l-16 -17l-28 28zM338 511l27 29l17 -16l-28 -28zM299 465
l27.8584 32.1426l15.1416 -14.1426l-29 -31zM259 427l27 29l17 -16l-28 -28zM218 381l27.8584 32.1426l15.1416 -14.1426l-29 -31z" />
  </g>

</svg>
