<?xml version="1.0" standalone="no"?>
<!DOCTYPE svg PUBLIC "-//W3C//DTD SVG 1.1//EN" "http://www.w3.org/Graphics/SVG/1.1/DTD/svg11.dtd" >
<svg xmlns="http://www.w3.org/2000/svg" xmlns:xlink="http://www.w3.org/1999/xlink" version="1.1" viewBox="-10 0 1043 1000">
  <g transform="matrix(1 0 0 -1 0 800)">
   <path fill="currentColor"
d="M599.655 328.164zM414.106 341.462v-10.0293l-120.015 -66.7588v142.047zM721.052 407.005v-143.432l-120.017 65.2588v11.5625zM507.571 428.105c-37.5166 0 -75.0977 -27.4707 -88.0488 -62.3164l-2.22266 -5.98145l-141.318 77.1943v-202.955l141.142 77.9512
c4.21191 -11.7061 8.95117 -24.877 24.2656 -40.1914c17.6445 -17.6455 41.9912 -29.1035 66.2861 -29.1035c37.1162 0 74.5723 27.1035 87.7412 61.4609l2.25391 5.87891l141.802 -76.8994l-0.314453 204.791l-141.314 -78.1152
c-4.27637 11.4873 -9 24.1768 -23.916 39.0938c-17.6709 17.6709 -42.0967 29.1924 -66.3555 29.1924zM434.365 335.523c0 41.0029 33.2803 74.2803 74.2803 74.2803c40.874 0 74.249 -33.1064 74.2803 -74.3066c-0.600586 -40.8525 -34.1699 -74.2197 -75.3877 -74.2471
c-40.3945 0.602539 -73.1729 33.873 -73.1729 74.2734zM739.157 437.935l-0.0136719 9.35156l8.19629 -4.8291zM739.472 233.144l8.17188 -4.43164l-8.15723 -4.86621zM275.981 234.047v-9.36426l-8.19434 4.83789zM275.981 437.002l-8.17285 4.46387l8.17285 4.85059
v-9.31445zM787.69 156.43zM215.177 541.594zM108.261 344.766zM524.835 87.4199zM524.085 63.5176zM205.796 152.395zM389.292 94.668zM889.812 389.27zM108.261 344.766zM889.812 389.27zM636.296 641.969c-40.3594 0 -74.5254 -15.6973 -91.8555 -33.0273
c-6.59375 -6.59375 -4.91016 -6.9375 -7.63672 -7.92969c-12.252 -4.46875 -24.2578 -6.08594 -35.2148 -6.08594c-10.3438 0 -29.1406 1.52734 -49.4922 10.6719c-13.8281 16.832 -37.2148 32.1523 -76.5371 32.1523c-59.0332 0 -126.352 -36.5391 -149.764 -91.2852
l-1.15625 -2.70508h-4.07227l-106.658 -144.92h-5.10352v-6.93164c-0.691406 -0.939453 -1.38281 -1.87695 -2.07422 -2.81836h1.11523l-11.8125 -44.2969l-1.32812 0.0195312c-0.238281 -4.53516 -0.666016 -7.14062 -2.09766 -12.7773h1.71875
c-0.0410156 -5.00781 -0.0410156 -5.00781 -0.0410156 -5.51758c0 -32.3848 13.9746 -97.9238 107.119 -174.959c98.3711 -81.3652 209.621 -90.3359 301.848 -90.3359c151.164 0 212.793 18.9434 303.246 90.4219c110.5 87.3125 112.363 113.023 115.402 176.842
l-3.09375 0.0488281c-0.1875 0.710938 -13.7598 56.0938 -18.5742 71.002l-78.9746 134.953c-8.90039 9.29102 -8.90039 9.29102 -9.79688 10.8281h-0.585938c-27.7676 28.418 -85.9746 81.5977 -142.807 93.3809c-10.875 2.25586 -21.5254 3.26953 -31.7734 3.26953z
M374.019 602.938c8.49609 0 27.3789 0 48.9082 -14.8164l-0.166016 -2.05469c1.24219 -0.507812 3.23438 -1.44336 5.16797 -3.28125c18.2422 -17.334 46.2773 -25.4727 72.8945 -25.4727c24.7949 0 48.3594 7.06055 61.625 20.3281
c2.58008 2.58203 6.75 6.74805 9.96875 16.4531c13.6699 9.32812 35.3848 19.5078 65.0215 19.5078c39.3301 0 57.7168 -17.1289 71.8184 -30.2578c10.957 -10.2051 25.3867 -23.6758 56.4199 -44.2109c1.18555 -0.257812 2.1582 -0.828125 2.93945 -1.71094
l0.681641 0.0273438l88.752 -139.988c0 -0.238281 -0.00585938 -0.478516 -0.00585938 -0.71875c6.36523 -23.8477 12.1777 -48.25 18.3066 -72.334c2.14258 -8.56055 3.34766 -16.4941 3.34766 -24.1758c0 -36.8555 -27.4199 -66.7148 -106.406 -131.262
c-72.7852 -59.4727 -125.492 -79.875 -284.336 -79.875c-85.9922 0 -155.309 10.5645 -236.262 67.2305c-99.791 69.8555 -113.209 121.299 -113.209 167.109c0 3.02148 0.0566406 5.99805 0.140625 8.92773c4.98047 19.7617 10.3887 39.0938 15.5293 58.6914
l97.2539 137.691c1.38086 -0.53125 2.75781 -1.06445 4.13672 -1.59375c3.27734 7.71484 8.85547 20.8594 23.9922 35.9961c24.3926 24.3926 60.4961 39.7891 93.4805 39.7891z" />
  </g>

</svg>
