<?xml version="1.0" standalone="no"?>
<!DOCTYPE svg PUBLIC "-//W3C//DTD SVG 1.1//EN" "http://www.w3.org/Graphics/SVG/1.1/DTD/svg11.dtd" >
<svg xmlns="http://www.w3.org/2000/svg" xmlns:xlink="http://www.w3.org/1999/xlink" version="1.1" viewBox="-10 0 582 1000">
  <g transform="matrix(1 0 0 -1 0 800)">
   <path fill="currentColor"
d="M307.896 -44.791c6.38672 -10.8232 4.19434 -22.1543 -2.77734 -29.126c-14.8545 -14.8545 -44.5635 -9.60059 -42.6963 18.1475c0.232422 3.4541 0.883789 7.28809 3.02734 10.8291c0.711914 4.07715 0.52832 26.2754 -0.197266 64.1455
c-35.2217 -4.78906 -41.4873 0.46875 -44.9277 3.9082c-8.00684 8.00781 -8.15918 27.0742 0.302734 35.5352c5.97559 5.97656 15.9893 6.30273 24.8584 -3.94922c1.81641 -1.81641 14.918 -5.5332 17.0078 0.442383c2.91016 311.229 2.91016 311.229 3.00098 312.16
c0.0576172 0.595703 6.24219 49.6982 14.5391 57.9941c3.93652 3.9375 10.0371 3.64062 13.5332 0.144531c3.03516 -3.03613 4.09473 -6.82715 14.3594 -46.2744v-0.37793c1.38965 -260.901 1.72266 -323.292 3.28125 -324.851
c0.594727 -0.594727 2.17676 -1.68164 7.91895 -1.76758c11.2041 -0.168945 10.083 7.28125 19.3877 10.3086c7.74023 2.51855 20.3613 -2.07715 20.9072 -19.8867c0.109375 -3.55469 0.0292969 -13.918 -7.51172 -20.7422
c-2.18457 -1.97754 -8.32617 -7.22949 -43.752 -2.66309c0.771484 -22.1855 0.898438 -29.6328 -0.921875 -49.1455c-0.956055 -10.2422 -0.875977 -12.2275 0.660156 -14.832zM287.052 -44.7227c-0.647461 -10.4482 -8.15625 -11.7021 -4.13281 -15.7266
c1.92969 -1.92969 5.41406 -2.35156 7.47949 -0.286133c3.82617 3.82617 -1.97754 5.13379 -3.34668 16.0127zM338.71 37.6113c-0.0644531 -0.0439453 -0.418945 -0.0869141 -0.484375 -0.129883c0.185547 0.0400391 0.348633 0.0839844 0.484375 0.129883zM277.028 40.583
c1.78027 -0.543945 5.59668 -2.29102 6.99707 -8.12012c2.29297 -9.54004 -0.0722656 -47.668 2.75 -71.0557c0.208984 10.4883 3.21387 24.3662 2.03809 49.5078c-0.887695 18.9844 -1.09668 23.4531 2.51953 27.0693c1.39258 1.39258 3.01367 2.10156 4.83691 2.38965
c-2.08984 2.18945 -3.79688 5.04688 -4.3584 8.60547c-1.14355 7.24414 -1.84375 11.8828 -2.81152 203.021c0 1.2373 -0.00292969 101.184 -2.10742 123.706c-3.30078 -25.2988 -3.41797 -65.2051 -3.43457 -174.018
c-0.00976562 -63.4668 -0.194336 -85.3955 -0.640625 -125.49c-0.167969 -15.0547 -0.117188 -22.917 -1.29004 -27.1445c-0.602539 -2.16797 -1.85742 -5.37891 -4.49902 -8.4707zM234.536 37.6699c0.0166016 -0.0888672 0.0322266 -0.167969 0.0478516 -0.237305
c-0.015625 0.0107422 -0.03125 0.226562 -0.0478516 0.237305zM455 493h-332.97l-77.6455 196.094l143.49 -60.1504l93.9102 117.438l92.2334 -119.396l142.277 60.5098zM198.032 584.137l-87.7773 38.5605l40.4492 -92.8379l272.064 -0.975586l28.124 88.5059
l-86.0664 -38.252l-81.583 104.823z" />
  </g>

</svg>
