<?xml version="1.0" standalone="no"?>
<!DOCTYPE svg PUBLIC "-//W3C//DTD SVG 1.1//EN" "http://www.w3.org/Graphics/SVG/1.1/DTD/svg11.dtd" >
<svg xmlns="http://www.w3.org/2000/svg" xmlns:xlink="http://www.w3.org/1999/xlink" version="1.1" viewBox="-10 0 1072 1000">
  <g transform="matrix(1 0 0 -1 0 800)">
   <path fill="currentColor"
d="M243.849 460.123l-105.902 191.716l27.7793 10.5039l78.3994 -137.6l76.8008 145.6l27.0029 -18.2139zM725.77 414.878c28.3652 0 70.5029 -15.5615 93.1055 -35.7051l0.186523 -0.199219c19.6719 -20.9805 36.0059 -62.0615 36.0059 -90.6963
c0 -2.87891 -0.171875 -6.73047 -0.219727 -7.81641c0 -0.0537109 -0.00585938 -0.101562 -0.00585938 -0.137695c-0.0244141 -24.0781 -7.0293 -72.8906 -68.1104 -132.109c-117.979 -114.382 -182.529 -176.446 -195.326 -188.072
c-2.41699 -2.19629 -2.41699 -2.19629 -5.9248 -3.66992c-3.22461 1.41309 -3.51758 1.54102 -4.49707 2.59375c-15.626 16.7891 -198.37 191.152 -200.338 193.12c-20.8008 20.8018 -38.6221 48.4707 -41.2539 52.9951c-5.29297 9.1709 -12.4131 25.3203 -15.6104 35.4121
c-5.38477 16.9922 -7.01758 33.4072 -7.08984 46.9492l-0.00585938 1.05469c1.0332 2.91016 1.17285 3.33984 3.86426 13.166c6.79102 24.7988 16.7793 60.6543 31.6162 76.8408l0.21582 0.194336c21.8574 19.6934 64.1816 36.0361 93.4697 36.0361
c13.7852 0 27.4717 -1.96191 43.3496 -7.20215c26.875 -8.86914 59.457 -30.8691 88.5459 -59.958c5.71582 -5.71484 6.3623 -6.02051 7.30664 -6.02051c0.113281 0 0.231445 0.00390625 0.362305 0.00390625c1.55762 0 1.55762 0 13.7988 12.2412
c5.63574 5.63672 42.5889 41.5176 82.6436 54.7168c17.3115 5.89453 38.4189 6.2627 43.9111 6.2627zM881.518 287.621v0.305664c0 41.1865 -23.6533 90.1807 -44.9756 111.503c-14.2412 14.2412 -67.9199 41.6104 -113.796 41.6104
c-27.1973 0 -44.1465 -4.85742 -50.625 -7.1709c-12.335 -4.4043 -30.2949 -12.8623 -41.0186 -19.9111c-17.7383 -12.0264 -27.7822 -18.8359 -46.6328 -35.5908c-63.6221 56.9414 -106.423 61.8945 -142.425 61.8945c-43.2002 0 -91.5195 -24.3594 -110.212 -43.0518
c-14.3604 -14.3594 -42.5322 -63.6426 -42.5322 -108.621c0 -27.4717 4.19629 -46.0049 7.63867 -56.6562c3.8125 -12.0195 11.7295 -29.9365 18.0469 -40.8516c1.76953 -3.05957 4.57031 -6.95605 19.5527 -26.9551c0.704102 -5.8584 23.707 -30.0244 30.4697 -35.7061
l196.838 -190.614c1.94238 -1.88184 10.5127 -9.75879 22.8027 -9.75879c6.99805 0 15.2021 2.55469 24.0752 10.2256c1.78418 1.54199 15.6436 13.5254 196.231 189.86c76.375 74.5791 76.5615 132.453 76.5615 159.488zM602.479 287.813
c0 -0.282227 0.189453 -16.8936 0.189453 -17.0635c4.21094 0.34082 9.08594 -0.422852 14.1396 -3.29492c12.4893 7.3125 24.3818 1.44434 28.7744 -3.12695c6.44238 -6.70312 11.5508 -22.3818 -3.01562 -36.6064c-14.6211 -14.2783 -16.6953 -16.2158 -17.4629 -16.8936
c-4.6543 -4.39648 -11.9434 -4.37305 -16.5879 0.125977l-9.85645 9.5459c-0.365234 -5.34082 -0.651367 -12.4229 0.000976562 -16.8115c0.780273 -0.80957 1.16016 -1.91113 1.24902 -2.85156c4.50977 -48.4814 47.6221 -96.1309 57.9863 -104.931
c0.0263672 -0.00683594 1.14941 -0.418945 1.83594 -1.88574l4.73047 -2.6377l-18.5156 -12.3438c-2.18359 2.36914 -4.36719 4.73926 -6.55078 7.11035c-18.2041 19.707 -38.4219 41.7832 -54.7744 89.457c-7.1582 -23.4473 -20.9502 -46.707 -33.6436 -62.8271
c-12.0332 -15.2822 -9.56738 -17.2168 -24.6982 -34.0283l-17.9404 14.2031c11.0088 14.2705 29.4268 39.5859 29.7295 39.9824c40.1367 52.7236 41.542 122.86 41.2363 158.968l-0.0371094 4.33008c5.43164 -0.120117 10.8652 -0.240234 16.2969 -0.360352
c3.91016 -0.0820312 7.01562 -3.01465 6.91406 -8.06055zM603.361 250.379v0v0zM630.954 249.641c-0.616211 0.248047 -1.5625 0.619141 -1.85938 0.702148l0.155273 0.00390625c-0.0507812 0 -0.103516 -0.00390625 -0.155273 -0.00390625
c-3.91211 -0.200195 -5.55176 -6.43359 -12.1865 -6.43359c-6.21191 0 -9.20117 6.46973 -12.0938 6.43555c-0.234375 -0.0595703 -1.0332 -0.355469 -1.66016 -0.605469c-0.134766 -0.433594 -0.351562 -1.14941 -0.696289 -2.32324l-0.0869141 0.609375
c0.00878906 -0.133789 0.03125 -0.34082 0.0869141 -0.609375c0.147461 -0.697266 0.674805 -2.54297 2.99707 -4.78223l11.4678 -11.0635l11.332 10.9072c3.99121 4.00977 3.33789 5.60547 2.69922 7.16309z" />
  </g>

</svg>
