<?xml version="1.0" standalone="no"?>
<!DOCTYPE svg PUBLIC "-//W3C//DTD SVG 1.1//EN" "http://www.w3.org/Graphics/SVG/1.1/DTD/svg11.dtd" >
<svg xmlns="http://www.w3.org/2000/svg" xmlns:xlink="http://www.w3.org/1999/xlink" version="1.1" viewBox="-10 0 1010 1000">
  <g transform="matrix(1 0 0 -1 0 800)">
   <path fill="currentColor"
d="M818 617v-126h-311v-27h350l-3 178l-347 1v-26h311zM783 -190c-10 0 -10 -1 -69 0v1h-4l3 225l-81 44v13l77 -43h13l-53 99h15l53 -99h2l1 136h17v-136h5l57 108h15l-57 -107l70 28v-13c-19 -8 -38 -17 -57 -25l-10 -3l2 -61l15 9l3 -22l-18 -11l5 -145c-1 1 -3 1 -4 2z
M766 -174l-5 211h-3l4 -211h4zM737 -173v210l-3 1l-1 -212zM73 -215c-6 0 -12 5 -12 12v240c0 7 5 12 12 12h78l52 47c3 -27 4 -27 5 -52l164 4c6 0 12 -5 12 -12v-67l47 -55c-44 2 -43 2 -48 3l1 -121c0 -6 -5 -12 -12 -12zM352 -184l4 98c-5 -1 -11 -1 -16 -2l-36 5l48 53
v46l-142 2c0 -16 -1 -16 -3 -49l-56 48h-58v-200zM50 721h56l17 52l17 -52h56l-45 -33l17 -52l-45 32l-45 -32l17 52zM379 516l-139 -140l152 -140l-20 -16l-152 140l-137 -140l-15 16l136 137l-133 139l18 17l134 -134l141 135zM379 516l-139 -140l152 -140l-20 -16
l-152 140l-137 -140l-15 16l136 137l-133 139l18 17l134 -134l141 135z" />
  </g>

</svg>
