<?xml version="1.0" standalone="no"?>
<!DOCTYPE svg PUBLIC "-//W3C//DTD SVG 1.1//EN" "http://www.w3.org/Graphics/SVG/1.1/DTD/svg11.dtd" >
<svg xmlns="http://www.w3.org/2000/svg" xmlns:xlink="http://www.w3.org/1999/xlink" version="1.1" viewBox="-10 0 1008 1000">
  <g transform="matrix(1 0 0 -1 0 800)">
   <path fill="currentColor"
d="M44.624 740.199h55.5146l17.1611 52.2256l17.1602 -52.2256h55.5156l-44.8672 -32.2959l17.1611 -52.2246l-44.9697 32.2959l-44.9707 -32.2959l17.1611 52.2246zM285.3 606.646l-12 60c128.725 89.7881 355.203 55.3633 442.457 48.5605
c0 -0.0107422 0.000976562 -0.0214844 0.000976562 -0.0322266c27.4463 0.582031 75.1855 -1.32129 107.268 -33.4033c40.1396 -40.1396 38.6152 -108.841 37.5254 -169.365c-0.395508 -21.9258 -0.433594 -33.2402 -0.22168 -41.9463
c26.3789 -43.8281 72.168 -89.959 89.3252 -129.607c6.95117 -16.0635 5.49219 -24.7637 2.64551 -40.2051l-12 -14l-79.501 -63.5771v-212.431c1.93945 -31.0869 1.82422 -79.2412 -27.416 -108.48c-26.0322 -26.0322 -182.507 -12.0195 -220.584 -13.0049
l-2.90137 0.0126953c-103.732 -7.2998 -296.108 50.6025 -326.603 92.1719c-18.5059 25.2275 -31.4014 41.2529 -57.9951 55.3086v70.0371c25.8174 -16.2627 49.624 -17.8066 70.1904 -60.6357c44.2188 -92.082 349.455 -105.734 451.309 -108.438l-0.499023 -0.962891
c50 12 34.1514 4.48145 42.5352 13.5361c19.1768 20.7119 3.97852 41.9688 5.50781 57.9648h-0.541992v2.14941c-0.253906 0.990234 -0.500977 1.94141 -0.738281 2.84863h0.738281v207.174v3.4873v1.33887h1.58203l104 88h1.13281
c4.9834 45.8955 -62.8379 92.1289 -94.2158 139.501l-3 4l-1 1c-2.02051 3.99219 0.0439453 4.02539 -2.08398 11.5605c-0.0371094 0.130859 -0.189453 0.24707 -0.174805 0.367188l0.258789 2.07227l0.0644531 1.49902
c0.00976563 0.226562 0.150391 3.89551 0.242188 6.24414c3.11426 79.1523 5.19727 173.389 -83.8154 173.771c-136.35 16.7461 -373.536 9.53418 -431.49 -46.5137zM589.531 143.51l15.2656 39.3311c36.2637 -59.0039 35.9893 -82.3408 51.8535 -106.466h50.1504v-25.0547
h-299.809v25.0547h35.5684l41.3691 109.852c11.707 -19.0469 19.6133 -34.3965 25.4854 -47.2578l40.207 96.8975c18.1963 -29.6084 30.2646 -62.9443 39.9092 -92.3564zM661.681 448.316c0 59.4385 -48.2451 107.682 -107.681 107.682
c-59.4375 0 -107.681 -48.2441 -107.681 -107.682c0 -50.1045 34.5371 -92.7676 81.6611 -104.493c-6.96973 5.43457 -16.4443 16.3252 -16.4443 35.375c-0.000976562 46.6621 57.2969 58.3232 83.8242 31.7959c16.3691 -16.3682 16.8916 -43.9707 2.24121 -61.1553
c12.2002 5.41504 23.2148 13.0342 32.5264 22.3467c19.4922 19.4932 31.5527 46.415 31.5527 76.1309zM678.319 448.318c0 -68.6348 -55.6992 -124.318 -124.319 -124.318c-68.624 0 -124.319 55.6885 -124.319 124.318c0 68.5508 55.7715 124.318 124.319 124.318
c68.6318 0 124.319 -55.6943 124.319 -124.318zM591.578 379.142l1.34766 0.0234375l0.00585938 0.00585938l-0.686523 0.661133l-0.670898 -0.6875c0.000976562 0 0.00195312 -0.00292969 0.00390625 -0.00292969zM591.469 380.579l-0.676758 0.652344l0.639648 0.00683594
c-0.452148 6.69824 -3.13867 13.2441 -8.05469 18.1602c-16.4199 16.4189 -55.2012 10.9082 -55.2012 -20.2129c0.0107422 -31.0996 38.7725 -36.6084 55.2002 -20.1797c4.88184 4.88086 7.56152 11.3633 8.04395 18.0029
c-0.331055 -0.00488281 -0.564453 -0.00683594 -0.576172 -0.00683594l0.616211 0.639648c0.0507812 0.978516 0.0537109 1.95996 0.00878906 2.9375z" />
  </g>

</svg>
