<?xml version="1.0" standalone="no"?>
<!DOCTYPE svg PUBLIC "-//W3C//DTD SVG 1.1//EN" "http://www.w3.org/Graphics/SVG/1.1/DTD/svg11.dtd" >
<svg xmlns="http://www.w3.org/2000/svg" xmlns:xlink="http://www.w3.org/1999/xlink" version="1.1" viewBox="-10 0 999 1000">
  <g transform="matrix(1 0 0 -1 0 800)">
   <path fill="currentColor"
d="M34.3545 -40.4795h55.5146l17.1611 52.2256l17.1602 -52.2256h55.5156l-44.8672 -32.2959l17.1611 -52.2246l-44.9697 32.2959l-44.9707 -32.2959l17.1611 52.2246zM435.911 303.59c0 7.42841 6.0471 13.5419 13.5917 13.5419
c-0.0186957 0 84.0667 -0.340158 97.9808 -0.396451l63.6425 57.58c1.31783 -10.3854 2.6902 -20.7163 3.97386 -31.1358l0.898828 -27.9477l207.445 0.390289c7.38455 0.0141859 13.5185 -6.02991 13.5185 -13.541v-84.6842l57.647 -67.1216l-50.4873 2.73498
l-7.93986 -0.486957l0.780191 -150.522c0.0378545 -7.4179 -6.04061 -13.5667 -13.5915 -13.5667c0.0203248 -4.10037e-05 -373.918 1.50875 -373.918 1.50875c-7.40362 0 -13.541 6.02741 -13.541 13.541v300.105zM472.999 26.9776l326.888 -1.40436l0.261361 128.418
c-11.49 -0.623344 -11.49 -0.623344 -61.3779 -1.94307l61.1064 67.0159v59.571l-183.72 2.52008c-0.154819 -15.4527 -0.159257 -15.8957 1.03468 -60.6456l-70.1594 59.1648l-74.0335 0.317372v-253.015zM766.962 721.751v-29.9819l-113.04 -0.860352v-101.095
c-200.906 108.122 -200.906 108.122 -205.031 111.079c-1.81149 1.29831 -3.97086 3.02065 -6.11499 4.72535c-3.44886 2.74202 -7.0298 5.30882 -7.0298 5.30882l1.49752 -0.270424l-0.0826791 9.99736l21.7249 0.356133c0 0.000169539 303.065 0.728516 303.065 0.728516z
M404.627 735.859c0 -2.64834 0.442957 -16.9794 0.442957 -17.151c0 -26.2732 -7.2442 -81.1385 -7.2442 -102.628c0 -15.731 2.28107 -11.1276 2.71518 -15.7555c6.59064 -70.8645 64.3597 -140.293 86.7173 -162.65c4.7065 -4.7065 7.41146 -6.76557 7.41146 -6.76557
l8.22642 -6.36325l-2.62616 -0.637933l1.69409 -0.945232c-23.8153 -15.8769 -23.8153 -15.8769 -26.089 -15.8769c-3.28147 0 -3.32145 0 -11.6136 9.03403c-29.3085 31.7297 -61.8623 67.2576 -88.1541 144.163c-11.4633 -37.8019 -33.7019 -75.3711 -54.1755 -101.371
c-18.3527 -23.3079 -30.8724 -51.8243 -40.4571 -51.8243c-2.61316 0 -2.61316 0 -10.8757 6.53937c-6.99914 5.53946 -10.7172 8.34517 -11.7077 9.33567c-1.46349 1.46349 -2.19586 3.3837 -2.19586 5.30402c0 1.61506 0.518038 3.2302 1.55486 4.57379
c9.96085 12.9129 42.7318 57.7053 43.1711 58.2824c60.5422 79.5267 66.3526 183.72 66.3526 245.165c0 3.28757 -0.0166334 6.45277 -0.0426717 9.54894c0 4.14694 3.36098 7.49833 7.49652 7.49833c0.0844621 0 0.0844621 0 18.4785 -0.406099
c6.16848 -0.132025 10.9664 -4.63426 10.9664 -12.4176c0 -0.473717 -0.0458955 -1.97176 -0.0458955 -4.65118z" />
  </g>

</svg>
