<?xml version="1.0" standalone="no"?>
<!DOCTYPE svg PUBLIC "-//W3C//DTD SVG 1.1//EN" "http://www.w3.org/Graphics/SVG/1.1/DTD/svg11.dtd" >
<svg xmlns="http://www.w3.org/2000/svg" xmlns:xlink="http://www.w3.org/1999/xlink" version="1.1" viewBox="-10 0 1008 1000">
  <g transform="matrix(1 0 0 -1 0 800)">
   <path fill="currentColor"
d="M348.481 97.6934l-82.2217 148.848l24.0225 10.1475l58.4395 -100.383l53.3027 101.418l27.2285 -11.0254zM348 532l-82.2217 148.848l24.0225 10.1475l58.4395 -100.383l53.3027 101.418l27.2285 -11.0254zM265.568 -67.707v34.6641h38.626v22.0713h-38.626v34.6641
h38.626v33.7148h31.3828v-33.7148h23.2197v31.2539h31.3828v-31.2539h41.292v-34.6641h-41.292v-22.0713h41.292v-34.6641h-41.292v-36.1855h-31.3828v36.1855h-23.2197v-33.7246h-31.3828v33.7246h-38.626zM335.577 -33.043h23.2197v22.0713h-23.2197v-22.0713z
M780.659 223.904c-0.529297 0 -0.985352 0.173828 -1.32227 0.358398l-214.094 -88.2627v-37.8242c12.126 5.10742 24.251 10.2148 36.376 15.3213v-3.77051l-0.21875 -161.659h318.305l0.646484 155.446c10.9619 -6.48535 21.9238 -12.9697 32.8867 -19.4551
l-0.677734 40.7051l-136.33 79.1182l1.46387 0.616211c-22.6963 11.7715 -24.457 12.7314 -36.2109 19.5508c-0.288086 -0.102539 -0.56543 -0.144531 -0.824219 -0.144531zM884.594 -16.7148h-248.003l-0.665039 144.662l142.009 59.8174l107.859 -63.8086z
M63.3545 -23.4795h55.5146l17.1611 52.2256l17.1602 -52.2256h55.5156l-44.8672 -32.2959l17.1611 -52.2246l-44.9697 32.2959l-44.9707 -32.2959l17.1611 52.2246zM799.02 523.441c0 -0.174657 0 -0.174657 -0.095935 -2.99515l-9.97527 0.31191l0.140676 5.28316
l9.93052 -0.133882v-2.46604zM596.507 529.562c0 0.801058 0 0.801058 0.879769 3.24911l9.45443 -1.34104l-0.728005 -4.93777l-9.6062 0.707448v2.32225zM604.588 505.492c-1.08144 0 -1.31612 0.260949 -3.66445 2.87215l7.35799 6.71774l3.49678 -3.77528
c-1.28957 -1.18947 -4.17128 -3.87142 -4.86133 -4.47675c0 0 -0.964002 -1.33785 -2.32899 -1.33785zM611.798 500.966c-2.75978 0.77017 -2.75978 0.77017 -5.44981 1.61487l2.90366 9.52587l5.29933 -1.56593zM596.167 523.976
c0 7.78883 3.36395 20.1529 3.36225 20.3592c-0.0553307 0 -0.124649 0.0170052 -0.124649 0.102222c0 0.108806 0.113008 0.328816 0.512431 0.766617c0.837218 2.97072 4.35271 16.6302 17.6588 71.4093c15.208 60.4503 32.9274 115.897 79.4139 115.897
c23.9829 0 49.5396 -11.0984 70.197 -77.7099c11.3562 -37.0313 30.7227 -121.61 31.0444 -123.233c0.509436 -2.4172 0.740515 -4.72679 0.740515 -6.91104c0 -13.2911 -8.71962 -22.6317 -15.1437 -23.4318c-5.01672 -0.664332 -4.99507 -0.627732 -136.978 -0.681558
c-38.311 -0.0158468 -38.311 -0.0158468 -43.526 5.19915c-5.34936 5.34936 -7.15655 11.7151 -7.15655 18.2336zM779.312 477.156c16.3692 2.73504 20.2918 3.34375 20.6881 3.34375c17.5401 0 19.8285 9.88626 19.8285 29.8757
c0 4.43509 -0.108234 8.27132 -0.108234 13.0222c0 10.0897 -2.46905 20.5845 -5.15428 31.7688c-5.73068 22.7606 -11.3034 45.4045 -16.7741 68.1444c-18.3638 73.9858 -41.6681 132.798 -100.872 132.798c-17.1793 0 -49.7761 -6.21441 -72.8782 -53.5539
c-10.4072 -21.3259 -10.4072 -21.3259 -16.1343 -43.309c-2.63093 -10.0987 -6.43164 -24.6873 -12.4964 -46.9073c-8.94054 -32.756 -9.9115 -45.7145 -9.9115 -51.3387c0 -0.394567 -2.96297 -21.3912 -2.96297 -39.3453c0 -14.3309 1.68865 -28.4518 7.57937 -34.3425
c9.67556 -9.67465 20.368 -10.0558 29.5987 -10.3521c0 0 35.8425 -0.024106 35.8487 -0.0240949zM686.771 433.661c0 10.6689 9.55469 19.6973 22.0488 19.6973s22.0498 -9.02832 22.0498 -19.6973c0 -10.6699 -9.55566 -19.6973 -22.0498 -19.6973
s-22.0488 9.02734 -22.0488 19.6973z" />
  </g>

</svg>
