<?xml version="1.0" standalone="no"?>
<!DOCTYPE svg PUBLIC "-//W3C//DTD SVG 1.1//EN" "http://www.w3.org/Graphics/SVG/1.1/DTD/svg11.dtd" >
<svg xmlns="http://www.w3.org/2000/svg" xmlns:xlink="http://www.w3.org/1999/xlink" version="1.1" viewBox="-10 0 971 1000">
  <g transform="matrix(1 0 0 -1 0 800)">
   <path fill="currentColor"
d="M514.526 348.333l9.97754 7.35059l71.4277 -65.6064l126.914 160.756l14.6494 -6.73047l-136.495 -174.103zM189.461 548.199zM82.5449 351.371zM498.369 70.123zM180.08 159zM864.096 395.875zM82.5449 351.371zM864.096 395.875zM641.333 640.41v0.000976562
c65.0508 -13.4873 130.952 -82.2695 150.189 -102.346l78.4014 -133.975c4.50488 -14.2285 19.1045 -73.1504 19.2998 -73.8887l1.72168 -0.0273438c-2.79785 -57.4951 -5.36328 -82.7441 -113.259 -167.998c-89.7217 -70.9014 -149.399 -89.3496 -300.149 -89.3496
c-91.9492 0 -201.661 8.95898 -298.665 89.1934c-85.4355 70.6592 -105.303 132.927 -105.303 171.065l0.078125 10.5537h-0.509766c0.168945 0.926758 0.308594 1.81738 0.424805 2.71191c0.194336 0 0.388672 -0.00878906 0.582031 -0.00878906
c13.293 49.8467 13.293 49.8467 13.9443 50.5273c0 1.5166 0 1.5166 0.483398 3.57617h2.15039l106.658 144.92h4.84473c0.817383 1.91113 1.63379 3.82324 2.45117 5.73438c33.2002 77.6377 164.99 122.26 218.586 57.0215
c40.8701 -18.3643 74.2373 -10.7842 89.54 -5.20215c2.83594 1.03223 3.83594 2.42188 4.7627 3.71094c13.7412 19.1074 63.4961 46.2822 123.768 33.7793zM228.157 540.146l-3.30078 1.27051l-100.023 -141.611c-0.157227 -0.601562 -12.3281 -45.9551 -15.9043 -60.1426
c-1.41602 -49.4072 6.41504 -104.69 115.186 -180.832c81.9053 -57.332 152.71 -68.1299 239.126 -68.1299c159.215 0 213.945 20.9014 287.496 80.999c95.0654 77.6865 118.123 107.091 104.747 160.532c-0.182617 0.717773 -13.4443 54.0859 -18.1504 71.752v1.53613
l-91.0703 143.645l-1.63379 -0.0654297c-0.793945 0.527344 -1.65723 0.944336 -2.55859 1.24023c-30.252 20.0703 -44.167 33.0645 -55.002 43.1553c-14.2549 13.2783 -34.2627 31.7109 -75.3457 31.7109c-37.9795 0 -61.6318 -16.1396 -69.2354 -21.3281
c-2.78809 -8.4082 -4.47656 -11.2803 -9.29199 -16.0986c-25.3535 -25.3574 -94.1348 -26.5049 -127.54 5.23633c-1.1416 1.08496 -2.29492 1.92969 -3.3584 2.58691l0.129883 1.60449c-15.1074 10.3965 -29.5186 17.334 -54.124 17.334
c-44.1875 0 -98.7363 -27.0596 -120.146 -74.3945zM234.527 322.333l9.97754 7.35059l71.4268 -65.6074l126.914 160.757l14.6504 -6.73242l-136.496 -174.101z" />
  </g>

</svg>
