<?xml version="1.0" standalone="no"?>
<!DOCTYPE svg PUBLIC "-//W3C//DTD SVG 1.1//EN" "http://www.w3.org/Graphics/SVG/1.1/DTD/svg11.dtd" >
<svg xmlns="http://www.w3.org/2000/svg" xmlns:xlink="http://www.w3.org/1999/xlink" version="1.1" viewBox="-10 0 1034 1000">
  <g transform="matrix(1 0 0 -1 0 800)">
   <path fill="currentColor"
d="M630.373 50.9883c0.476562 0.0195312 30.5967 0.00292969 30.6064 0.0175781c-9.2793 38.9141 -6.67188 51.4443 -3.28809 62.3623c0.03125 0.0986328 2.65039 9.15039 3.00684 9.86426l21.8828 43.7637c-11.2002 173.6 -11.2002 173.6 -11.1377 174.346
c3.67969 43.6758 6.8877 94.6211 3.1377 127.255c-9.75293 38.7324 -33.9512 30.5586 -39.6025 18.1699c-1.99805 -4.37793 -4.24805 -4.89355 -10.0586 -6.22461c-4.51562 -4.03906 -11.6182 -3.15527 -14.9971 1.93164
c-4.23438 6.37695 -23.8242 36.7119 -24.3389 37.7197c-7.08398 13.875 -34.4121 22.4111 -39.6357 -5.05566c-0.188477 -0.992188 -0.188477 -0.992188 -9.5166 -23.7295c-3.47461 -8.4707 -15.7266 -8.11816 -18.7041 0.542969l-17.5469 51.0449
c-4.69141 13.6465 -33.959 24.543 -49.4209 -1.29785c-0.285156 -0.851562 -2.37305 -7.18066 -13.6553 -42.5674c-2.45312 -7.69238 -12.6885 -9.4502 -17.5537 -2.91406c-14.4326 19.3936 -14.4326 19.3936 -14.6865 19.6484
c-0.0957031 0.0957031 -16.4844 16.457 -25.7695 7.17285c-5.08496 -5.08496 -7.96094 -17.498 -9.22656 -25.1094c0.0351562 -1.1416 0.261719 -7.87793 1.51367 -40.5498c0.743164 -20.3457 1.64844 -63.8252 1.66797 -64.4697
c5.95117 -42.4141 3.19824 -43.7383 6.29199 -66.4316c0.225586 -0.873047 1.94238 -7.4873 10.8545 -41.2236c0.0869141 -0.331055 0.901367 -19.2188 -1.68262 -23.6113c-6.35352 -10.7998 -6.79395 -11.5498 -10.9854 -12.5098
c-16.5879 -3.80078 -21.8369 -0.458984 -27.4453 7.32324c-2.88477 4.00391 -22.5068 23.6689 -24.4805 25.9453l-41.1191 47.4453c-1.11133 0.735352 -6.81738 4.47363 -23.9844 15.3477c-1.00293 0.304688 -5.80859 1.73926 -20.3184 5.80176
c-4.05664 -2.22559 -8.89258 -0.883789 -12.5615 -4.55176c-2.66211 -2.66211 -5.73242 -11.5781 -4.75488 -16.6279l22.6855 -30.5098c4.37012 -4.09668 27.5928 -24.3398 28.7305 -25.7148c33.9004 -40.9951 33.9004 -40.9951 34.0635 -41.2168
c24.6367 -33.3789 24.6367 -33.3789 24.8213 -33.668c22.2158 -34.9111 22.2158 -34.9111 22.5303 -35.6387l17.1572 -39.7744c4.74023 -7.34766 23.0645 -34.9971 23.5557 -35.9287c7.71973 -14.6689 7.71973 -14.6689 8.01074 -15.8887
c5.74512 -24.0713 46.4277 -25.2705 46.9619 -25.2803l44.501 -0.793945zM660.98 31h-29.9805c-134.88 -5.60156 -134.88 -5.60156 -135.18 -5.59668l-44.8193 0.800781c-7.11719 0.133789 -55.7002 2.40527 -65.7002 39.3145l-6.36719 12.0977
c-23.3008 35.3477 -22.9053 34.1768 -24.3145 37.4453l-16.9717 39.3438l-21.1807 33.2822l-24.0645 32.6035l-33.0479 39.9648c-28.3896 25.1445 -28.3896 25.1445 -29.6367 26.8213l-23.2002 31.2002c-8.27734 11.1299 -2.49902 32.8496 6.95996 42.3086
c5.5459 5.5459 10.7754 7.24023 18.5283 8.66699c4.28906 1.91797 9.11621 2.25 13.5918 0.99707c21.1074 -5.91016 21.5664 -5.59863 25.2754 -7.94824c22.6504 -14.3447 24.3682 -14.8867 27.6123 -18.1299c0.378906 -0.378906 -0.486328 -1.16992 42.0654 -48.4795
c22.1709 -24.6494 23.0361 -23.8584 26.2197 -28.1729c0.526367 0.046875 1.24805 0.136719 2.16016 0.285156l1.07031 1.82129l0.478516 11.9551c-10.6641 40.3564 -10.5459 39.2412 -10.9072 41.876c-3.33301 24.2637 -0.402344 24.6104 -6.39062 67.1309
c-0.0917969 0.655273 -1.29004 52.5781 -1.78223 66.0205c-1.59863 41.7764 -1.98242 40.1299 -1.3584 43.9941c1.94727 12.0654 6.43457 39.875 29.9287 44.8301c19.5352 4.12012 38.4707 -14.2197 41.0693 -17.7109l2.90918 -3.9082
c7.80566 24.7695 7.55566 24.6045 9.38477 27.7158c24.1816 41.127 75.583 27.585 85.7568 -2.00977l8.58398 -24.9727c11.9746 40.2402 60.1426 34.249 75.4697 5.23633c0.179688 -0.276367 17.2178 -26.748 17.8604 -27.7363
c16.8115 21.7285 59.3838 25.3926 72.9658 -28.543c0.21582 -0.859375 0.375 -1.73145 0.475586 -2.6084c4.09473 -35.6309 0.675781 -86.5859 -3.01465 -130.498l11.1045 -172.104c0.225586 -3.49707 -0.462891 -7.04297 -2.06543 -10.2471l-21.3965 -42.7939
c-0.615234 -2.38574 -1.33496 -4.7666 -2.28418 -7.82812c-2.66309 -8.59277 -5.47363 -13.5439 3.63965 -51.7646c2.99707 -12.5635 -6.52539 -24.6592 -19.4482 -24.6592zM460.579 216zM460.426 214.185zM571.359 195.297c0 -14.0693 -4.58496 -27.793 -16.5088 -39.7158
c-5.33887 -5.33887 -9.83984 -9.04688 -13.9717 -11.6035c24.3115 4.33105 55.9736 15.582 76.6885 51.5449c-4.49902 7.79297 -9.91602 14.8643 -16.2949 21.2432c-13.9746 13.9736 -33.4932 25.4492 -59.3135 30.2051
c-0.323242 0.0595703 -0.210938 -0.392578 -1.24609 -0.0839844c-0.68457 0.205078 -2.72363 0.81543 -5.64453 1.32031c6.28027 -2.47363 12.9658 -6.54199 19.542 -13.1172c11.6387 -11.6387 16.749 -25.1094 16.749 -39.793zM513.511 154.479
c15.8223 0 24.9668 7.59375 29.8828 12.5088c10.3643 10.3652 11.8379 21.2725 11.8379 28.4707c-0.0361328 10.3115 -3.5127 19.8555 -11.8359 28.1777c-16.8916 16.8936 -37.0234 13.083 -46.1367 9.14551c-0.0869141 0 -12.8242 -8.40332 -12.9541 -8.48828
c-3.31934 -4.83203 -6.58301 -9.7207 -9.88086 -14.5752l-0.0322266 0.0126953c-5.34766 -14.8047 -2.7627 -30.9375 9.32422 -43.0254c8.33984 -8.33984 18.2998 -12.2266 29.7949 -12.2266zM516.106 124.397v0c-15.1123 0 -65.1602 0.722656 -105.521 41.085
c-9.00098 9.00098 -16.1045 18.7314 -22.4619 30.04c-0.0214844 0.0380859 -0.0429688 0.0761719 -0.0644531 0.115234l0.0644531 -0.115234c7.2002 12.8066 14.5615 22.2148 23.0898 30.7441c19.5674 19.5654 52.5576 40.5459 104.894 40.5459
c13.4824 0 64.4961 -0.238281 104.86 -40.6016c9.20703 -9.20703 16.4375 -19.1562 22.8428 -30.6885c0.0205078 -0.0390625 0.0410156 -0.0761719 0.0625 -0.114258l-0.0625 0.114258c-3.42188 -6.16504 -10.375 -18.0889 -22.4102 -30.1221
c-40.0059 -40.0068 -89.3672 -41.0029 -105.293 -41.0029zM490.356 247.09c-42.1006 -7.65625 -63.7451 -30.3486 -75.9883 -51.5674c5.23145 -9.02734 11.1367 -16.0117 16.3066 -21.1826c12.1504 -12.1514 30.3047 -24.2871 56.6543 -29.6855
c-5.00391 2.4541 -10.2148 5.94922 -15.2012 10.9355c-19.2285 19.2295 -18.9424 43.4404 -12.7998 59.5029c0.0927734 0.140625 0.0527344 0.231445 -0.0917969 0.280273c-0.231445 1.23828 3.37012 7.35352 3.95996 8.85938
c0.737305 1.87695 1.6123 2.78906 3.01953 4.05859c0.984375 0.888672 1.00098 0.90625 1.6709 2.02441c1.00391 1.67383 1.04883 1.77051 5.43848 6.15918c3.45312 3.45312 11.5381 8.54883 17.0312 10.6152zM371.291 173.419zM645.795 137.566zM828.399 483.872
c0 9.49878 0.360099 25.4826 0.360099 28.905l-0.318652 61.3747l-8.69455 54.78l-24.0577 41.7601l-29.8355 19.1251l-33.9409 8.02542l-47.9505 1.85133v0.765382l-107.704 8.96128l-161.614 -4.8437l-135.511 -48.0118l4.97421 -24.8711l90.1513 34.2037l168.519 13.9909
l163.859 -8.05849l72.0585 -32.0852l24.6852 -76.5829c-11.2968 -92.7231 -11.5388 -94.7093 -10.6225 -98.1968c0.272553 -1.03738 0.408327 -1.98777 0.495372 -2.92219c0.487753 -0.641757 1.13403 -1.58506 1.4862 -2.05622l30.4464 -40.7334l38.0432 -60.0682
l23.93 -33.502l-96.7113 -80.2498l-3.19974 -219.288c0.962733 -7.56244 2.78458 -22.0112 5.01798 -45.877c-0.12894 -0.269919 -9.65147 -20.9678 -12.8349 -27.02c-1.80565 -3.43278 -3.36365 -6.39475 -8.94453 -11.1259
c-28.726 -6.87192 -37.6748 -9.01268 -53.7943 -9.01268c-3.38415 0 -6.77838 0.14333 -10.1737 0.446144l-127.95 -3.2205l-189.706 31.9736l-119.91 72.0259l-21.8729 31.5454c-0.18608 0.126152 -14.9542 10.3475 -18.5829 12.6523v-31.4635
c5.41685 -3.87145 13.5068 -7.36272 24.4398 -17.2503c7.32645 -6.62591 2.09556 -4.45645 10.6241 -11.9264c1.03002 -0.902171 1.03002 -0.902171 17.2005 -21.8062l70.2643 -41.1391l123.979 -35.7692l40.8353 -3.74581
c52.8258 -4.90757 59.0669 -6.73248 83.0467 -7.42728l68.08 -1.97257l89.7606 0.254271l51.1066 12.4914l15.1376 25.2075l6.27671 34.16l-0.268638 82.9487l0.0291888 84.2282l-0.00582149 87.5189l84.7837 67.8016l7.68593 8.96692l1.11464 7.19504
c0.44913 7.61262 -1.52476 12.8022 -3.31214 18.1783l-23.3304 38.8443l-33.0243 43.448l-34.3179 48.9016c-0.202711 16.1296 -0.202711 16.1296 -0.202711 17.6951zM236.052 282.628zM37.3545 728.521h55.5146l17.1611 52.2256l17.1602 -52.2256h55.5156
l-44.8672 -32.2959l17.1611 -52.2246l-44.9697 32.2959l-44.9707 -32.2959l17.1611 52.2246z" />
  </g>

</svg>
