<?xml version="1.0" standalone="no"?>
<!DOCTYPE svg PUBLIC "-//W3C//DTD SVG 1.1//EN" "http://www.w3.org/Graphics/SVG/1.1/DTD/svg11.dtd" >
<svg xmlns="http://www.w3.org/2000/svg" xmlns:xlink="http://www.w3.org/1999/xlink" version="1.1" viewBox="-10 0 1223 1000">
  <g transform="matrix(1 0 0 -1 0 800)">
   <path fill="currentColor"
d="M644.3 -99h-3.2002v-4.7998h3.2002v0v4.7998v0zM256.3 253.8c0 226.4 148 308 254.4 350.4c3.2002 -48 2.39941 -48 5.59961 -125.601l131.2 125.601c105.6 -31.2002 310.4 -121.601 310.4 -350.4c0 -106.4 -36 -192 -98.4004 -254.4
c-53.5996 -53.5996 -128 -86.3994 -215.2 -103.199v0v0v0h-7.2002v44.7998c3.2002 22.3994 0.800781 44.7998 4 67.2002l-116.8 -107.2c-163.2 42.3994 -268 189.6 -268 352.8zM648.3 -152.601c219.2 0 352.8 180 352.8 406.4c0 208 -152.8 371.2 -353.6 407.2l-144.8 123.2
c6.39941 -73.6006 4.7998 -72.8008 8 -123.2c-31.2002 -6.40039 -114.4 -20 -188 -93.6006c-73.6006 -73.5996 -112.8 -184 -112.8 -313.6c0 -191.2 125.6 -357.6 309.6 -400l124.8 -98.4004c-3.2002 20 -6.39941 21.6006 -3.2002 41.6006l3.2002 39.2002v0v3.19922
c0 6.40039 -2.39941 8 4 8zM644.3 -163.8h3.2002l-3.2002 -2.40039v2.40039zM502.7 784.2l-9.60059 5.59961l6.40039 2.40039s3.2002 -1.60059 3.2002 -8zM818.7 341.8zM769.1 325.8l44 25.5996l5.60059 -9.59961l-44 -25.5996
c-2.40039 3.19922 -4 6.39941 -5.60059 9.59961v0zM813.1 351.399zM845.1 248.2c0 103.199 -83.1992 186.399 -186.399 186.399c-103.2 0 -186.4 -83.2002 -186.4 -186.399c0 -102.4 83.2002 -186.4 186.4 -186.4c103.2 0 186.399 83.2002 186.399 186.4v0zM871.5 248.2
c0 -117.601 -95.2002 -212 -212.8 -212c-117.601 0 -212.8 94.3994 -212.8 212c0 116.8 96 212.8 212.8 212.8c117.6 0 212.8 -95.2002 212.8 -212.8zM674.7 272.2l-4.7998 118.399h-16l4.7998 -118.399h16zM677.1 239.399l10.4004 19.2002l93.5996 -51.2002l-8.7998 -20z
M688.3 255.399c0 -11.1992 -9.59961 -20.7998 -20.7998 -20.7998s-20.7998 9.60059 -20.7998 20.7998c0 11.2002 9.59961 20.8008 20.7998 20.8008s20.7998 -9.60059 20.7998 -20.8008zM771.5 193.8zM537.9 189zM547.5 321.8zM497.9 153zM653.9 59.3994v-0.799805h10.3994z
M654.7 437.8l11.2002 -0.799805l1.59961 -47.2002h-11.2002zM831.5 171.399v0c-1.59961 -3.19922 -3.2002 -5.59961 -4.7998 -8.7998l-55.2002 31.2002l5.59961 8.7998zM777.1 202.6zM497.9 153l45.5996 26.3994l-5.59961 9.60059l-45.6006 -26.4004
c1.60059 -3.2002 4 -6.39941 5.60059 -9.59961v0zM543.5 179.399zM664.3 113zM653.9 113zM653.9 113v-54.4004h10.3994v54.4004h-10.3994zM497.9 337.8v0c1.59961 3.2002 4 6.40039 5.59961 9.59961l44 -25.5996l-4.7998 -9.59961zM542.7 312.2zM656.3 389.8zM667.5 389.8z
M673.1 426.6l-5.59961 -0.799805v0.799805h5.59961zM656.3 426.6h-5.59961h5.59961zM433.1 137z" />
  </g>

</svg>
