<?xml version="1.0" standalone="no"?>
<!DOCTYPE svg PUBLIC "-//W3C//DTD SVG 1.1//EN" "http://www.w3.org/Graphics/SVG/1.1/DTD/svg11.dtd" >
<svg xmlns="http://www.w3.org/2000/svg" xmlns:xlink="http://www.w3.org/1999/xlink" version="1.1" viewBox="-10 0 1065 1000">
  <g transform="matrix(1 0 0 -1 0 800)">
   <path fill="currentColor"
d="M939 67zM508 358zM427 209zM741 15zM741 -3zM500 64zM639 21zM1016 243zM427 209zM1016 243zM1027 253c6 -17 9 -36 14 -53h3c-2 -52 -3 -72 -88 -139c-63 -50 -110 -68 -215 -69c-72 -1 -165 2 -246 69c-32 26 -82 77 -82 135h-2c2 9 2 10 2 17h2l7 26h-3c2 2 3 5 5 7v7
h5l81 110h2c28 65 135 96 176 46c6 -3 33 -13 61 -3c14 19 55 37 101 28c44 -9 88 -50 108 -70h1c1 -1 1 -2 2 -3l6 -7l59 -100c1 0 2 0 2 -1h-1zM454 200c-1 -33 3 -73 84 -130c69 -48 126 -52 204 -50c91 2 129 14 184 59c73 60 86 79 77 114l-12 47v-1c0 3 -2 6 -2 9
l-65 103c-2 0 0 2 -2 2c-40 27 -45 38 -60 47c-23 14 -59 11 -82 -5c-11 -34 -82 -40 -114 -9c-3 3 -5 1 -5 5c-35 24 -100 0 -118 -43l-2 -5l-4 1l-72 -101zM716 135v9c0 11 2 21 5 29c2 6 6 12 11 18c4 5 11 11 21 20s17 16 20 21s4 11 4 17c0 11 -4 21 -13 29
s-19 12 -32 12c-12 0 -23 -3 -31 -11s-13 -20 -16 -36l-30 4c3 22 11 38 24 49s30 18 52 18c23 0 41 -7 55 -19s21 -27 21 -44c0 -10 -2 -19 -7 -28s-14 -19 -28 -31c-9 -8 -16 -15 -19 -19s-5 -8 -6 -13s-3 -14 -3 -25h-28zM715 79v32h33v-32h-33zM244 364h13
c0 -9 1 -18 1 -27c50 2 94 22 127 55c12 12 23 25 31 40l-21 11l-3 -4l-127 61c-4 -2 -9 -4 -14 -4c-16 0 -29 13 -29 29c0 12 7 23 18 27v137h3v25c-26 -1 -98 -11 -147 -82c7 -4 15 -9 22 -13l-7 -13c-7 4 -16 9 -23 13c-16 -28 -25 -60 -25 -94c0 -33 9 -65 24 -92
c8 4 15 10 23 14l8 -13c-8 -4 -15 -9 -23 -13c33 -49 88 -82 150 -84c0 9 -1 18 -1 27zM458 525c0 -114 -92 -206 -206 -206s-206 92 -206 206c0 113 92 205 205 206v0c114 0 207 -92 207 -206zM258 714v-25h2l5 -138c8 -4 14 -13 15 -22l125 -69l-3 -6l20 -10
c12 25 19 52 19 81c0 35 -10 68 -27 96c-7 -5 -15 -8 -22 -13l-6 11c7 4 14 9 21 13c-15 21 -62 79 -149 82z" />
  </g>

</svg>
