<?xml version="1.0" standalone="no"?>
<!DOCTYPE svg PUBLIC "-//W3C//DTD SVG 1.1//EN" "http://www.w3.org/Graphics/SVG/1.1/DTD/svg11.dtd" >
<svg xmlns="http://www.w3.org/2000/svg" xmlns:xlink="http://www.w3.org/1999/xlink" version="1.1" viewBox="-10 0 2024 1000">
  <g transform="matrix(1 0 0 -1 0 800)">
   <path fill="currentColor"
d="M481.419 492.341zM481.207 489.83zM632.116 463.689c0 19.6777 -6.77637 37.583 -22.4141 53.2207c-8.84863 8.84863 -17.7852 14.2715 -26.1562 17.5684l-23.7588 9.35742c29.3467 -5.06836 29.3467 -5.06836 33.2002 -6.21875
c0.423828 0.144531 0.977539 0.258789 1.5332 0.15625c36.251 -6.67773 63.7568 -22.8223 83.457 -42.5244c10.207 -10.2061 17.207 -19.96 23.7217 -31.2471c-16.9824 -29.4824 -46.0195 -62.7432 -108.688 -73.9102l-13.4727 -2.40039
c12.1768 7.47363 18.9668 11.1367 30.4971 22.8848c15.9961 15.9951 22.0811 34.2383 22.0811 53.1133zM554.674 404.586c-16.5352 0 -31.0645 5.66504 -43.084 17.6855c-17.4736 17.4756 -21.2227 40.9473 -13.5146 62.2852l0.895508 2.47754l0.595703 -0.220703
c12.1143 17.8799 12.1143 17.8799 12.8232 18.9111c18.9336 12.3955 18.9336 12.3955 19.1836 12.4268c13.3701 5.62305 42.1738 10.7412 66.3076 -13.3926c11.998 -11.998 17.0938 -25.958 17.1455 -40.8457c0 -10.3428 -2.19141 -26.292 -17.1484 -41.25
c-7.02148 -7.02051 -20.3867 -18.0771 -43.2041 -18.0771zM732 464c-9.30078 16.5068 -54.5498 96.0469 -173.735 96.0469c-71.6748 0 -116.628 -28.6611 -143.313 -55.3467c-11.3662 -11.3662 -21.1719 -23.8145 -30.7998 -40.6992
c8.51562 -14.9297 18.001 -27.7949 29.9277 -39.7217c44.2607 -44.2617 98.6816 -56.0947 144.186 -56.0947c21.8818 0 89.2842 1.39453 143.87 55.9795c15.6123 15.6123 24.957 31.0938 29.8652 39.8359zM523.551 532.919
c-7.13184 -2.68164 -18.2988 -9.74805 -22.6426 -14.0918c-5.80371 -5.80371 -5.80371 -5.80371 -7.13086 -8.01758c-1.11328 -1.85742 -1.35449 -2.09082 -2.80664 -3.40039c-2.04199 -1.84473 -2.72754 -2.67969 -3.49414 -4.63281
c-0.600586 -1.53027 -4.20117 -8.0498 -5.20996 -10.8545c0.133789 -0.658203 0.0400391 -1.31055 -0.136719 -1.77246c-8.21484 -21.5098 -8.61523 -53.8252 17.1221 -79.5625c6.68359 -6.68359 13.6504 -11.3535 20.3408 -14.6348l18.3916 -9.02344l-20.0723 4.11328
c-37.0059 7.58105 -62.5996 24.666 -79.7285 41.7949c-10.1631 10.165 -17.2285 19.9258 -23.7383 31.1631c12.2197 21.1777 39.4639 61.5293 107.712 73.9395zM271 608l-12 60c128.725 89.7881 355.203 55.3633 442.457 48.5605
c0 -0.0107422 0.000976562 -0.0214844 0.000976562 -0.0322266c27.4463 0.582031 75.1855 -1.32129 107.268 -33.4033c40.1396 -40.1396 38.6152 -108.841 37.5254 -169.365c-0.395508 -21.9258 -0.433594 -33.2402 -0.22168 -41.9463
c26.3789 -43.8281 72.168 -89.959 89.3252 -129.607c6.95117 -16.0635 5.49219 -24.7637 2.64551 -40.2051l-12 -14l-79.501 -63.5771v-212.431c1.93945 -31.0869 1.82422 -79.2412 -27.416 -108.48c-26.0322 -26.0322 -182.507 -12.0195 -220.584 -13.0049
l-2.90137 0.0126953c-103.732 -7.2998 -296.108 50.6025 -326.603 92.1719c-18.5059 25.2275 -31.4014 41.2529 -57.9951 55.3086v70.0371c25.8174 -16.2627 49.624 -17.8066 70.1904 -60.6357c44.2188 -92.082 349.455 -105.734 451.309 -108.438l-0.499023 -0.962891
c50 12 34.1514 4.48145 42.5352 13.5361c19.1768 20.7119 3.97852 41.9688 5.50781 57.9648h-0.541992v2.14941c-0.253906 0.990234 -0.500977 1.94141 -0.738281 2.84863h0.738281v207.174v3.4873v1.33887h1.58203l104 88h1.13281
c4.9834 45.8955 -62.8379 92.1289 -94.2158 139.501l-3 4l-1 1c-2.02051 3.99219 0.0439453 4.02539 -2.08398 11.5605c-0.0371094 0.130859 -0.189453 0.24707 -0.174805 0.367188l0.258789 2.07227l0.0644531 1.49902
c0.00976562 0.226562 0.150391 3.89551 0.242188 6.24414c3.11426 79.1523 14.1973 176.389 -74.8154 176.771c-136.35 16.7461 -373.536 9.53418 -431.49 -46.5137zM30.3545 728.521h55.5146l17.1611 52.2256l17.1602 -52.2256h55.5156l-44.8672 -32.2959l17.1611 -52.2246
l-44.9697 32.2959l-44.9707 -32.2959l17.1611 52.2246zM575.933 123.846h5.2002c0.12793 -3.58398 0.256836 -7.16797 0.383789 -10.752c19.8125 0.693359 37.7246 9.03906 50.8545 22.1689c4.77246 4.77246 8.91309 10.1768 12.2842 16.0762l-8.32031 4.41602
l-1.02441 -1.62109l-51.0312 24.0781c-1.66504 -0.912109 -3.57617 -1.43066 -5.6084 -1.43066c-6.45605 0 -11.6885 5.23242 -11.6885 11.6885c0 4.93457 3.05664 9.15332 7.37891 10.8691v54.5068h1.2002v9.96094c-10.2002 -0.480469 -39.2451 -4.41992 -58.6748 -32.7949
c2.92285 -1.6875 5.84473 -3.375 8.76758 -5.0625l-3 -5.19629c-2.9873 1.72461 -5.97363 3.44922 -8.95996 5.17383c-6.33398 -11.04 -9.95508 -23.8281 -9.95508 -37.458c0 -13.2939 3.46582 -25.8027 9.54492 -36.6709l9.26953 5.35254l3 -5.19727
c-3.04492 -1.75781 -6.08887 -3.51562 -9.13379 -5.27344c13.0566 -19.5273 34.9609 -32.6475 59.8965 -33.5801zM661.628 188.47c0 -45.5205 -36.9443 -82.4648 -82.4668 -82.4648c-45.5215 0 -82.4668 36.9443 -82.4668 82.4668
c0 45.2529 36.7246 82.1934 81.9756 82.4648h0.165039c45.5283 0 82.6113 -36.9482 82.793 -82.4668zM581.562 263.854v-10.0078h0.785156l1.96973 -55.1377c3.19629 -1.7666 5.47656 -4.98535 5.95215 -8.7666l50.2578 -27.5488l-1.4082 -2.23047l7.95898 -4.22461
c4.76465 9.85352 7.45703 20.8867 7.50684 32.5352c0 14.0703 -3.85938 27.2402 -10.5762 38.5166l-8.72461 -5.46094l-2.60059 4.50391c2.83691 1.77637 5.6748 3.55273 8.5127 5.3291c-5.81934 8.39648 -24.8799 31.4033 -59.6338 32.4922zM303.111 429.265
l-70.1113 -62.2646l67 -63l-12.8887 -10.7354l-67.1113 63.2354l-68.8887 -67.2354l-9.36133 10.2354l67.75 66l-60.3887 61.7646l11.5 11l61.3887 -58.7646l71.1387 58.3896zM1608.9 272.985v-7.70898h-16.3203h0.347656l-84.792 -97.2217l88.4033 -98.542h12.3613
v-6.94434h-208.334v6.94434h12.5l85.7637 98.75l-87.5 97.7783h-10.7637v6.94434h208.334zM1587.17 69.5127l-83.6807 93.2637l-81.3887 -93.2637h165.069zM1503.42 173.68l80.5557 92.3613h-163.334zM1294.15 760.739l30.1201 43.7754
c1.86035 2.70312 5.88965 2.70996 7.8252 0.248047l36.6318 -46.6094c1.72559 -2.19629 1.19727 -5.5 -1.12695 -7.04883c-0.524414 -0.348633 -1.14844 -0.599609 -1.7334 -0.71875l-6.24121 -1.25879c-1.80957 -0.365234 -3.71387 0.40332 -4.78125 1.75879
l-19.6768 25.0127l0.950195 -100.379c0.0273438 -2.8291 -2.47363 -5.03906 -5.11523 -4.89844l-5.96973 0.314453c-2.65039 0.138672 -4.61523 2.5 -4.60449 4.87598l0.46875 98.8887l-16.0283 -23.2529c-1.58496 -2.2998 -4.89648 -2.77539 -7.06543 -1.01367
c-0.330078 0.267578 -0.850586 0.891602 -0.882812 0.9375l-2.71387 3.77832c-1.25488 1.74609 -1.02832 4.17871 -0.0566406 5.58984zM1904.1 482.835l99.8994 -104.285l-99.8994 -99.5693l4.8291 -326.776l-507.948 2.99414l-5.43359 62.9043h459.056v305.532
l69.7178 54.915l-69.7178 64.9014l-5.43262 293.549h-431.893l5.43262 61.4619h481.39v-315.628v0.000976563zM1540.46 397.013c-43.0088 0 -79.0625 25.8799 -117.718 63.0508l0.173828 0.161133c-0.547852 0.489258 -1.09668 0.979492 -1.64453 1.46875
c1.77832 1.2998 3.55664 2.59863 5.33496 3.89746c39.7119 38.6191 74.9346 57.9688 112.848 57.9688c37.001 0 70.8887 -16.6738 115.955 -59.0146l2.43262 -5.21387c-0.485352 -0.450195 -3.69141 -4.00195 -8.8125 -9.09277
c-20.5957 -20.4805 -59.6494 -53.2256 -108.569 -53.2256zM1539.7 512.786c-39.4805 0 -64.4629 -16.4365 -100.202 -51.8008v-1.5332c27.0049 -24.8877 61.7393 -50.665 100.705 -50.665c32.7764 0 71.3086 16.8906 101.354 49.7529
c0.207031 0.225586 0.482422 0.526367 1.10156 1.13672c-0.0107422 0.0107422 -0.788086 0.791016 -1.08203 1.08203c-34.1611 32.2803 -68.6445 52.0273 -101.876 52.0273zM1538.32 514.32c28.8926 0 53.3496 -25.9893 53.3496 -54.7314
c0 -28.7275 -23.4473 -52.0449 -52.3438 -52.0449c-28.8926 0 -52.3428 23.3145 -52.3428 52.0459c0 29.2021 23.3184 54.7305 51.3369 54.7305zM1539.13 414.95c24.7783 0 45.0928 20 45.0928 44.6436c0 24.6143 -19.5986 46.9531 -44.3906 46.9531
c-24.7881 0 -45.3975 -22.332 -45.3975 -46.959c0 -24.998 20.6592 -44.624 44.6953 -44.6377zM1308.19 400.068l-44.5566 46.1416l3.55762 3.68359l44.5576 -46.1406l44.6689 46.2578l3.58789 -3.3252c-10.5869 -10.7939 -24.1768 -24.6689 -45.0605 -46.2432
c15.2715 -15.8154 30.543 -31.6299 45.8145 -47.4453c0.443359 -0.212891 0.885742 -0.425781 1.32812 -0.639648c-1.99609 -1.85547 -1.99609 -1.85547 -4.87598 -3.66113l-45.8223 48.0674c-12.6133 -13.0703 -26.4346 -27.4346 -44.332 -46.3281l-3.58594 3.32324
c0.916016 0.948242 44.2725 45.8467 44.7188 46.3096z" />
  </g>

</svg>
