<?xml version="1.0" standalone="no"?>
<!DOCTYPE svg PUBLIC "-//W3C//DTD SVG 1.1//EN" "http://www.w3.org/Graphics/SVG/1.1/DTD/svg11.dtd" >
<svg xmlns="http://www.w3.org/2000/svg" xmlns:xlink="http://www.w3.org/1999/xlink" version="1.1" viewBox="-10 0 881 1000">
  <g transform="matrix(1 0 0 -1 0 800)">
   <path fill="currentColor"
d="M206.527 731h403.473v-173.608h-403.473v-24.7041l433.956 0.516602l-3.91211 222.006l-430.044 0.472656v-24.6826zM568.473 563.11zM511.847 130.794c30.8896 0 55.9482 25.0908 55.9482 55.9473c0 30.8721 -25.0762 55.9492 -55.9482 55.9492
c-30.8701 0 -55.9482 -25.0752 -55.9482 -55.9482c0 -30.792 24.957 -55.8506 55.7754 -55.9482h0.172852zM614.105 186.585c0 -56.3418 -45.7061 -102.052 -102.052 -102.052c-56.3428 0 -102.052 45.7061 -102.052 102.052c0 19.2744 6.9541 39.0508 17.9033 55.7725
h-170.725c-6.90625 0 -12.4971 5.59082 -12.4971 12.4971v21.1084c0 5.47168 4.00195 12.498 12.9502 12.498c57.6582 0 115.456 0.866211 173.19 0.866211c29.0811 0 58.1846 -0.219727 87.2998 -0.879883c53.0195 -1.20215 95.9814 -48.4766 95.9814 -101.862z
M467.2 254.259c6.24902 4.14258 13.1055 7.44043 20.4062 9.73047c-8.20605 0.108398 -16.416 0.186523 -24.6289 0.241211c1.38086 -1.21973 4.22852 -4.3457 4.22852 -9.37598c0 -0.204102 -0.00585938 -0.402344 -0.00585938 -0.595703zM645.895 43.7412z
M152.454 375.709zM60.3057 206.065zM419.347 -15.7363zM144.37 40.2637zM302.521 -9.49023zM733.91 244.422zM60.3057 206.065zM733.91 244.422zM746.058 255.982c6.3623 -19.2715 10.46 -40.1279 15.8115 -60.1074l3.73047 -0.0605469
c-2.83691 -59.8633 -3.90527 -82.4053 -101.112 -159.217c-72.3311 -57.1562 -124.716 -90.8623 -245.087 -92.8008c-82.7988 -1.33301 -188.819 16.3232 -281.265 92.7803c-36.4277 30.127 -94.252 88.4346 -93.7148 154.669h-2.5918
c2.83203 10.6172 2.83203 10.6172 3.10156 18.7695l1.89648 -0.03125l8.11719 30.4395h-3.56348c1.85059 2.5127 3.70117 5.02539 5.55078 7.53809v8.55371h6.2959l91.9277 124.904h2.91602c31.8066 74.374 153.655 110.202 200.981 52.5918
c6.71973 -3.01953 37.1963 -15.1807 69.2871 -3.48047c16.5303 22.125 62.9756 43.4756 115.241 32.6367c50.5508 -10.4814 101.545 -57.5078 123.917 -80.4033h1.07324c0.788086 -1.16113 1.32812 -2.49414 2.31934 -3.51074l7.0293 -7.33496l67.123 -114.698
c1.00195 0.0849609 1.79297 0.0214844 1.63477 -0.705078zM91.1836 195.264c-1.11328 -38.1699 3.1084 -83.5645 95.8115 -148.457c78.6641 -55.0645 143.846 -59.0205 233.332 -56.8037c104.263 2.68359 147.769 16.084 210.727 67.5303
c83.7227 68.416 97.5947 89.8574 87.5264 130.047l-13.3125 53.1475l-0.489258 -0.87207c0.0283203 3.21582 -2.12305 7.30566 -2.09473 10.5234l-74.7051 117.828c-2.00488 -0.078125 -0.404297 1.74219 -2.40918 1.66406
c-46.2412 30.4873 -51.1719 43.6953 -68.4453 53.8828c-26.5986 15.6846 -67.4932 12.5273 -93.5273 -5.24121c-12.96 -39.041 -93.3721 -45.2979 -130.424 -10.0908c-3.45312 3.28125 -6.00098 1.45508 -5.6748 5.48047
c-39.6064 27.2549 -113.794 -0.203125 -134.758 -49.5781l-2.54199 -5.98828l-4.2373 1.63086l-81.6982 -115.662z" />
  </g>

</svg>
