<?xml version="1.0" standalone="no"?>
<!DOCTYPE svg PUBLIC "-//W3C//DTD SVG 1.1//EN" "http://www.w3.org/Graphics/SVG/1.1/DTD/svg11.dtd" >
<svg xmlns="http://www.w3.org/2000/svg" xmlns:xlink="http://www.w3.org/1999/xlink" version="1.1" viewBox="-10 0 1006 1000">
  <g transform="matrix(1 0 0 -1 0 800)">
   <path fill="currentColor"
d="M30.3242 741.553h55.5146l17.1611 52.2256l17.1602 -52.2256h55.5156l-44.8672 -32.2959l17.1611 -52.2246l-44.9697 32.2959l-44.9707 -32.2959l17.1611 52.2246zM271 608l-12 60c128.725 89.7881 355.203 55.3633 442.457 48.5605
c0 -0.0107422 0.000976562 -0.0214844 0.000976562 -0.0322266c27.4463 0.582031 75.1855 -1.32129 107.268 -33.4033c40.1396 -40.1396 38.6152 -108.841 37.5254 -169.365c-0.395508 -21.9258 -0.433594 -33.2402 -0.22168 -41.9463
c26.3789 -43.8281 72.168 -89.959 89.3252 -129.607c6.95117 -16.0635 5.49219 -24.7637 2.64551 -40.2051l-12 -14l-79.501 -63.5771v-212.431c1.93945 -31.0869 1.82422 -79.2412 -27.416 -108.48c-26.0322 -26.0322 -182.507 -12.0195 -220.584 -13.0049
l-2.90137 0.0126953c-103.732 -7.2998 -296.108 50.6025 -326.603 92.1719c-18.5059 25.2275 -31.4014 41.2529 -57.9951 55.3086v70.0371c25.8174 -16.2627 49.624 -17.8066 70.1904 -60.6357c44.2188 -92.082 349.455 -105.734 451.309 -108.438l-0.499023 -0.962891
c50 12 34.1514 4.48145 42.5352 13.5361c19.1768 20.7119 3.97852 41.9688 5.50781 57.9648h-0.541992v2.14941c-0.253906 0.990234 -0.500977 1.94141 -0.738281 2.84863h0.738281v207.174v3.4873v1.33887h1.58203l104 88h1.13281
c4.9834 45.8955 -62.8379 92.1289 -94.2158 139.501l-3 4l-1 1c-2.02051 3.99219 0.0439453 4.02539 -2.08398 11.5605c-0.0371094 0.130859 -0.189453 0.24707 -0.174805 0.367188l0.258789 2.07227l0.0644531 1.49902
c0.00976562 0.226562 0.150391 3.89551 0.242188 6.24414c3.11426 79.1523 5.19727 173.389 -83.8154 173.771c-136.35 16.7461 -373.536 9.53418 -431.49 -46.5137zM460 232l-27 21l2.80566 2.66699l23.1611 -17.1387l42.5928 54.0234l4.44043 -2.55176zM306.82 319.314
c-0.0976562 0.0859375 -0.191406 0.161133 -0.279297 0.229492zM205.498 343.441c0.30957 -0.345703 0.533203 -0.588867 0.651367 -0.711914zM611.1 155.673c-1.9209 -3.00879 0.275391 0.740234 -2.66016 -1.4873l1.70898 -1.09766
c0.104492 -0.0654297 -3.83398 -15.4307 -1.13965 -28.2354c1.25781 -5.96875 4.5 -5.54883 4.52051 -10.4502c0.0224609 -5.5918 -1.24414 -2.75293 -2.25488 -7.3125c-9.24023 -11.7656 -12.832 -12.3457 -23.5898 -14.0869
c-17.6025 -2.84863 -46.5977 -1.15527 -73.2158 -7.76855c-7.8252 -0.65918 -74.4072 -4.8291 -82.9385 -2.58984c-4.31348 1.13672 -9.23438 0.768555 -12.582 -1.32324c-21.3955 4.7207 -57.4502 27.1592 -60.9746 39.3652l0.0419922 3.25879l-1.14844 2.88867
l-1.87695 2.35547c-15.9033 27.1719 -31.2617 48.3398 -31.6553 48.7686c-1.16895 7.98926 -4.85645 11.8379 -4.85645 12.7334c0 10.9922 -31.5332 66.8389 -37.9248 71.7559c-0.398438 0.304688 -26.3398 29.8213 -33.6484 37.6465
c-0.233398 0.416016 -9.44824 13.5283 -33.7324 33.8418c-4.19238 3.51074 -2.57617 6.30664 -7.6748 9.50586c-12.6016 14.1123 -7.57617 13.4346 -12.3447 20.5762c0.566406 16.6123 24.751 24.8887 25.0908 24.9873
c2.94043 0.0820312 10.876 -0.320312 12.5674 -0.708008c7.83887 -1.78906 13.9453 -9.84766 20.5234 -13.0332c8.85352 -12.0225 48.4883 -48.8623 48.8691 -49.4434c1.75391 -3.92969 5.11719 -5.84473 6.61621 -6.50586
c5.45703 -4.80371 6.94629 -11.5156 15.2832 -14.5244c3.37402 -3.45508 9.2666 -4.7373 14.5244 -3.22461c1.0332 -0.177734 1.0332 -0.177734 9.7207 -1.91699l2.42773 2.63477c1.57031 5.03418 -1.00195 21.2852 -6.13672 23.1982
c-1.38184 7.80762 -1.83008 10 -1.96973 10.4951c1.5127 2.93848 2.99805 7.45508 0.0507812 11.835c-0.219727 1.1123 -8.62012 102.303 -11.4365 112.632c-0.0380859 2.62598 1.85938 9.61816 0.00976562 13.9922c1.22754 9.2627 0.249023 40.3643 1.11133 52.0723
c0 5.2168 5.26074 13.1436 10.5469 26.7002c3.74609 5.1416 3.74609 5.1416 11.7598 7.83887c5.86719 -0.328125 6.00684 -1.04102 6.83984 -1.63965c2.00977 -1.44531 2.00977 -1.44531 9.56152 -5.57617c0.952148 -1.24902 4.75879 -7.70898 4.80859 -7.78516
c5.20508 -15.9307 8.80762 -44.1982 10.9355 -65.1748l12.5498 23.5283l3.56445 10.0176c4.66406 13.1045 6.00488 36.7559 13.0371 53.7441c4.69238 11.3389 7.81152 14.6279 18.5615 18.7363c9.24316 -0.375977 9.63672 -0.891602 11.8066 -2.72168
c0.131836 -0.463867 16.293 -31.2334 19.9912 -43.9277l-1.05566 -6.76758l2.66309 0.0966797c0.0332031 -0.169922 0.856445 -9.31055 2.20996 -16.8711l1.67383 -0.176758c0.395508 -5.85352 0.395508 -5.85352 -0.0878906 -9.52832
c0.431641 -0.0712891 1.12891 0.0605469 0.972656 -0.464844c7.8291 0.436523 10.7002 -41.8799 16.0762 -39.5439c10.416 4.53027 2.30273 59.9727 6.39844 59.7334c2.96484 -0.176758 0.825195 5.2666 1.03711 7.00098c0.618164 5.0293 2.36719 3.24219 3.88477 10.3965
c2.13867 10.1143 16.6865 28.041 16.8135 28.3438c5.63574 5.47266 13.0801 7.5 16.0684 5.2002c16.7734 -18.7402 26.1816 -64.4648 25.6025 -94.9863c3.58496 -0.0419922 4.38281 -11.7344 4.70508 -14.4805c6.49512 -55.0791 10.0254 39.7744 13.8174 33.6318
l3.2002 5.50488c3.42578 5.90234 22.9629 27.4609 29.4434 32.4473c1.71094 1.31836 2.06445 1.45801 10.0635 0.125c5.41211 -3.36426 9.74219 -10.5674 9.92383 -10.9443c8.92871 -18.5088 -2.25684 -130.333 -2.36914 -149.119
c-3.21777 -10.6934 -1.80469 -28.9658 -1.08008 -33.4443c0 -24.123 3.93359 -66.0361 4.42285 -69.5479c-4.37402 -8.06738 6.73047 -41.2148 3.98926 -65.415c-0.708008 -6.24512 -21.6416 -55.7656 -21.6416 -55.7656zM340.952 553.208
c0.0507812 0.0742188 0.0507812 0.132812 0.0595703 0.144531c-0.000976562 -0.00292969 -0.0224609 -0.0537109 -0.0595703 -0.144531zM612.709 555.396l-1.45703 -8.45508l4.8584 1.34863zM441.792 585.985l0.571289 -0.0634766
c-0.147461 0.0234375 -0.339844 0.0332031 -0.571289 0.0634766zM548.262 545.281c0 -0.0761719 0.0488281 -0.155273 0.0488281 -0.15625c-0.0146484 0.0449219 -0.0488281 0.101562 -0.0488281 0.15625zM323.286 177.783
c0 -0.0302734 0.0830078 -0.0664062 0.0878906 -0.100586zM378.582 103.185zM562.662 573.306l0.102539 -0.198242c-0.0214844 0.0488281 -0.0546875 0.116211 -0.102539 0.198242zM408.678 593.771l0.0712891 0.0546875
c-0.0234375 -0.0136719 -0.046875 -0.0341797 -0.0712891 -0.0546875zM304.359 351.259l0.0820312 -0.0869141c-0.0292969 0.0292969 -0.0820312 0.0869141 -0.0820312 0.0869141zM220.329 407.306l0.233398 -0.0517578
c-0.0458984 0.00585938 -0.233398 0.0517578 -0.233398 0.0517578zM205.608 313.593l-0.0488281 0.0371094c0.0126953 -0.0107422 0.0273438 -0.0371094 0.0488281 -0.0371094zM204.855 314.31c1.41309 -1.41406 4.82324 -3.63672 9.71582 -8.52832
c10.0576 -10.0557 12.124 -17.3789 24.3789 -29.1309c8.94922 -8.5791 7.44727 -9.65332 21.0752 -26.5918c27.7412 -34.4941 42.1426 -88.3721 63.2793 -110.823c5.01074 -10.8047 -0.832031 -7.59473 4.72461 -15.4551
c0.131836 -0.415039 0.131836 -0.415039 3.97852 -10.2607l-3.33984 -3.47852c-0.0478516 -0.0498047 -1.44238 -3.24121 -0.776367 -8.63184c0.785156 -6.37695 3.91699 -13.4971 6.77734 -16.3584c4.23145 -3.01465 0.416992 -3.625 7.41016 -5.80371
c37.8486 -26.9453 237.875 -9.77246 264.465 0.220703c11.125 0.154297 24.5352 12.584 29.9092 23.4248c7.45605 15.0371 -5.01562 26.5156 -0.433594 49.5176c-2.22168 4.30762 -0.396484 7.62402 6.07812 19.3799c4.7666 8.65918 7.32227 13.2998 7.92773 16.9287
c7.72559 9.72656 7.10938 23.3408 3.05273 68.7939c1.29492 2.57031 1.29492 2.57031 0.885742 4.26758c-5.2998 22.0029 -5.92383 58.6934 -5.25879 93.4834c0.287109 14.9541 2.36719 70.1084 4.06055 84.71c2.4502 21.1484 0.169922 74.1406 -0.71582 80.9141
c-1.19727 9.11426 -4.29102 23.2197 -12.126 26.6094c-0.201172 0.0712891 -8.43066 5.74414 -19.5449 8.55469c-2.50879 0.634766 -9.81738 2.48145 -15.0674 -0.0126953c-8.93945 -1.12012 -19.2002 -9.38672 -21.2646 -11.5127l-9.59277 -9.88184l-3.15723 13.3936
c-4.57227 19.3926 -3.70898 16.8984 -7.86328 23.6465c-2.44727 4.35352 -3.96875 7.05566 -8.13379 11.2227c-6.39941 6.39941 -7.54102 4.34277 -11.0264 6.8252c-8.90039 6.33984 -24.2822 5.6582 -31.127 1.49316c-9.40723 -4.22266 -11.0215 -4.94531 -14.3379 -8.2666
c-2.44922 -2.44531 -2.98535 -3.11035 -20.2432 -24.4336l-3.42383 15.1787c-1.02441 4.54395 -1.10059 6.05859 -7.91699 13.7314c-8.79883 9.90723 -9.15527 10.3096 -18.7676 12.6201c-1.95215 0.46875 -4.39648 1.05664 -6.09961 3.85352
c-6.83887 11.1924 -13.6709 9.10742 -28.5127 -5.51465c-7.50586 -7.39258 -7.55762 -5.86426 -16.2148 -14.5215c-5.75391 -5.75977 -6.28027 -6.76758 -11.0264 -15.9473l-6.78613 3.75c-25.8594 14.291 -43.0537 5.76367 -53.999 -5.18262
c-6.46094 -6.45898 -10.7617 -14.7031 -11.502 -18.0654c0.163086 -1.92773 -0.540039 -2.98828 -1.35449 -3.93555c-11.7559 -16.7432 -4.96973 -110.972 1.17285 -157.388c0 0 -0.258789 -2.95898 0.483398 -3.66016c2.16602 -9.97949 2.40234 -11.0703 3.14551 -46.2109
l-13.3516 13.9678c-1.36914 1.3623 -26.0469 25.3906 -42.9961 38.6777c-9.61133 7.53613 -16.5371 11.6592 -21.9258 13.9414c-9.96191 4.21191 -16.1221 2.76074 -18.9736 3.43945c-0.748047 0.112305 -20.4688 2.97852 -45.2852 -24.5869
c-14.4736 -16.0781 5.99609 -41.4082 6.45312 -41.8145c0.516602 -0.545898 1.25781 -0.866211 1.49414 -1.69727v0v0c3.02246 -3.68457 17.0898 -20.2656 21.6768 -24.8516zM335.087 84.6602l-7.30664 1.47168c1.5332 0.50293 4.50195 0.97168 7.30664 -1.47168z
M183.179 339.161c-0.422852 0.62793 -0.0419922 0.0498047 -0.0419922 0.0498047c0.0136719 -0.015625 0.0380859 -0.0478516 0.0419922 -0.0498047zM636.02 152.41c0.378906 1.90234 0.378906 1.90234 1.62988 6.2373l2.01172 -6.77246l10.2012 -0.329102
c-6.74121 -6.44043 -12.2324 -2.2627 -13.8428 0.864258zM540.23 182.606c-9.29785 -0.192383 -119.32 -0.186523 -120.526 -0.147461c-7.27344 0.234375 -17.3857 0.55957 -26.0352 10.1396c-2.52441 2.79785 -14.2695 17.1094 -10.5293 37.5791
c1.37793 7.54688 3.22949 15.1455 6.68164 27.7979c14.791 60.8486 18.8018 77.3428 29.8809 100.046c9.06055 18.5391 29.0488 46.458 66.0684 42.0303c43.916 -4.86523 60.2881 -55.3037 72.0205 -102.567c4.12207 -17.1348 8.33301 -34.2402 12.6494 -51.3916
c3.78418 -15.7588 7.44531 -31.0078 -1.92773 -46.5176c-4.66309 -7.71191 -13.4102 -17.1328 -28.2822 -16.9688zM481.943 375.005c-33.4121 3.02637 -47.1484 -33.0049 -60.0742 -84.3809c-9.94629 -40.9551 -9.94629 -40.9551 -13.5479 -54.4561l0.0205078 0.078125
c-0.0078125 -0.0273438 -0.0205078 -0.078125 -0.0205078 -0.078125c-2.54102 -10.4551 -4.64453 -19.1133 1.81055 -25.5684c2.37012 -2.36914 3.23926 -2.53125 9.97949 -2.8291c119.672 0.0537109 119.672 0.0537109 122.984 0.494141
c2.86133 0.354492 10.0635 7.01758 7.6748 18.3643c-0.1875 0.936523 -14.8701 65.0283 -23.3291 92.6084c-14.8496 47.8828 -32.541 54.8711 -45.498 55.7676zM415.076 208.091l-0.0859375 0.00878906c0.0146484 0 0.0322266 -0.00878906 0.0859375 -0.00878906z
M413.067 208.469l-0.40918 0.120117c0.136719 -0.0419922 0.273438 -0.0859375 0.40918 -0.120117zM409.791 210.951l-0.0820312 0.0908203c0.0273438 -0.0273438 0.0566406 -0.0595703 0.0820312 -0.0908203zM406.093 225.897l0.0175781 0.115234
c-0.00585937 -0.0390625 -0.0175781 -0.0761719 -0.0175781 -0.115234zM445.8 355.677l0.0634766 0.0957031c-0.0107422 -0.0136719 -0.0195312 -0.0302734 -0.0634766 -0.0957031zM507.206 361.322l0.0605469 -0.0722656
c-0.0195312 0.0263672 -0.0605469 0.0722656 -0.0605469 0.0722656zM551.281 221.281l-0.00488281 -0.249023c0.00195312 0.0839844 0.00488281 0.166016 0.00488281 0.249023z" />
  </g>

</svg>
