<?xml version="1.0" standalone="no"?>
<!DOCTYPE svg PUBLIC "-//W3C//DTD SVG 1.1//EN" "http://www.w3.org/Graphics/SVG/1.1/DTD/svg11.dtd" >
<svg xmlns="http://www.w3.org/2000/svg" xmlns:xlink="http://www.w3.org/1999/xlink" version="1.1" viewBox="-10 0 1051 1000">
  <g transform="matrix(1 0 0 -1 0 800)">
   <path fill="currentColor"
d="M271 608l-12 60c128.725 89.7881 355.203 55.3633 442.457 48.5605c0 -0.0107422 0.000976562 -0.0214844 0.000976562 -0.0322266c27.4463 0.582031 75.1855 -1.32129 107.268 -33.4033c40.1396 -40.1396 38.6152 -108.841 37.5254 -169.365
c-0.395508 -21.9258 -0.433594 -33.2402 -0.22168 -41.9463c26.3789 -43.8281 72.168 -89.959 89.3252 -129.607c6.95117 -16.0635 5.49219 -24.7637 2.64551 -40.2051l-12 -14l-79.501 -63.5771v-212.431c1.93945 -31.0869 1.82422 -79.2412 -27.416 -108.48
c-26.0322 -26.0322 -182.507 -12.0195 -220.584 -13.0049l-2.90137 0.0126953c-103.732 -7.2998 -296.108 50.6025 -326.603 92.1719c-18.5059 25.2275 -31.4014 41.2529 -57.9951 55.3086v70.0371c25.8174 -16.2627 49.624 -17.8066 70.1904 -60.6357
c44.2188 -92.082 349.455 -105.734 451.309 -108.438l-0.499023 -0.962891c50 12 34.1514 4.48145 42.5352 13.5361c19.1768 20.7119 3.97852 41.9688 5.50781 57.9648h-0.541992v2.14941c-0.253906 0.990234 -0.500977 1.94141 -0.738281 2.84863h0.738281v207.174v3.4873
v1.33887h1.58203l104 88h1.13281c4.9834 45.8955 -62.8379 92.1289 -94.2158 139.501l-3 4l-1 1c-2.02051 3.99219 0.0439453 4.02539 -2.08398 11.5605c-0.0371094 0.130859 -0.189453 0.24707 -0.174805 0.367188l0.258789 2.07227l0.0644531 1.49902
c0.00976562 0.226562 0.150391 3.89551 0.242188 6.24414c3.11426 79.1523 14.1973 176.389 -74.8154 176.771c-136.35 16.7461 -373.536 9.53418 -431.49 -46.5137zM30.3545 728.521h55.5146l17.1611 52.2256l17.1602 -52.2256h55.5156l-44.8672 -32.2959l17.1611 -52.2246
l-44.9697 32.2959l-44.9707 -32.2959l17.1611 52.2246zM399.405 481.697c60.9209 -39.374 174.1 24.0703 198.3 0.900391c10.623 -10.1709 10.918 -16.4443 12.4824 -29.2949c5.04297 -41.4287 -28.334 -64.4131 -56.6484 -72.5156
c-38.3203 -10.9668 -90.3057 -10.7979 -134.263 -22.4639l26.7236 -27.3232l-23.4434 -1.56348l-22.5039 23.1035c-2.75 -0.0957031 -6.26562 1.41504 -6.99902 6.99902l-4.47461 4.47461l29.1309 46.0947l23.1436 1.54395l-19.1182 -29.3809
c58.0557 15.6025 130.986 3.4043 158.771 31.1895c7.33496 7.33496 14.9072 39.5928 5.62109 51.8105c-5.57031 7.32715 -60.0293 -5.22461 -100.322 -13.5742c-29.5107 -6.11523 -55.2393 -5.40527 -83.4004 9.60059c-1.61426 0.859375 -7.75488 3.42871 -8.04785 9.57129
c-0.100586 2.12012 -0.0751953 4.80762 2.06055 6.94336c1.58789 1.58789 1.24512 5.01074 2.9873 3.88477zM584.224 277.264l91.3438 -79.0088l-87.5674 -77.2549l-7.87305 8.3252l75.6104 63.6436l-259.576 -2.09766l-0.625 11.875l260.259 0.302734l-78.8184 65.9775z
" />
  </g>

</svg>
