<?xml version="1.0" standalone="no"?>
<!DOCTYPE svg PUBLIC "-//W3C//DTD SVG 1.1//EN" "http://www.w3.org/Graphics/SVG/1.1/DTD/svg11.dtd" >
<svg xmlns="http://www.w3.org/2000/svg" xmlns:xlink="http://www.w3.org/1999/xlink" version="1.1" viewBox="-10 0 1063 1000">
  <g transform="matrix(1 0 0 -1 0 800)">
   <path fill="currentColor"
d="M886.395 471.694c0 9.49902 0.360352 25.4824 0.360352 28.9053l-0.318359 61.375l-8.69434 54.7793l-24.0586 41.7607l-29.835 19.125l-33.9414 8.02539c-15.9834 0.617188 -31.9668 1.23438 -47.9502 1.85059v0.765625l-107.704 8.96191l-161.613 -4.84375
l-135.512 -48.0117l4.97461 -24.8711l90.1514 34.2031l168.52 13.9912l163.858 -8.05859l72.0586 -32.085l24.6855 -76.583c-11.2969 -92.7236 -11.5391 -94.709 -10.623 -98.1973c0.272461 -1.03711 0.408203 -1.9873 0.495117 -2.92188
c0.488281 -0.641602 1.13477 -1.58496 1.48633 -2.05664l30.4463 -40.7334l38.0439 -60.0674c7.97656 -11.168 15.9531 -22.335 23.9297 -33.502l-96.7109 -80.25l-3.2002 -219.288c0.962891 -7.5625 2.78418 -22.0117 5.01758 -45.877
c-0.128906 -0.270508 -9.65137 -20.9678 -12.835 -27.0205c-1.80566 -3.43262 -3.36328 -6.39453 -8.94434 -11.126c-28.7256 -6.87109 -37.6748 -9.0127 -53.7939 -9.0127c-3.38379 0 -6.77832 0.143555 -10.1738 0.446289l-127.95 -3.2207l-189.706 31.9736
l-119.909 72.0264c-7.29102 10.5146 -14.582 21.0303 -21.873 31.5449c-0.186523 0.126953 -14.9541 10.3477 -18.583 12.6523v-31.4629c5.41699 -3.87207 13.5068 -7.36328 24.4395 -17.251c7.32715 -6.625 2.0957 -4.45605 10.624 -11.9258
c1.03027 -0.902344 1.03027 -0.902344 17.2012 -21.8066l70.2637 -41.1387l123.979 -35.7695l40.835 -3.74512c52.8262 -4.9082 59.0674 -6.7334 83.0469 -7.42773l68.0801 -1.97266l89.7607 0.253906l51.1064 12.4922l15.1377 25.207l6.27637 34.1602l-0.268555 82.9482
l0.0292969 84.2285l-0.00585938 87.5186l84.7832 67.8018l7.68652 8.9668l1.11426 7.19531c0.449219 7.6123 -1.52441 12.8027 -3.31152 18.1787l-23.3311 38.8438l-33.0244 43.4482l-34.3174 48.9014c-0.203125 16.1299 -0.203125 16.1299 -0.203125 17.6953z
M88.3203 729.375h55.5146l17.1611 52.2256l17.1602 -52.2256h55.5156l-44.8672 -32.2959l17.1611 -52.2246l-44.9697 32.2959l-44.9707 -32.2959l17.1611 52.2246zM500.247 234.969c8.72949 5.00684 45.7598 22.2744 85.3867 -17.8281
c42.166 42.8477 79.7852 20.4443 84.0957 17.2119c0.75 -0.5625 1.50098 -1.12598 2.25098 -1.68848v-112.908c-3.02344 2.35156 -6.0459 4.70215 -9.06836 7.05371c-2.12402 1.61426 -33.5596 24.1875 -74.2852 -21.1289
c0.00195312 0.00195313 -4.12988 -4.5752 -4.1709 -4.62207c-6.15234 6.81738 -6.2832 6.96289 -8.32617 9.00488c-36.2852 36.2852 -68.6777 17.4824 -70.6533 16.3545c-2.84766 -1.83594 -5.69629 -3.67285 -8.54492 -5.50879v111.891l3.18066 2.16895h0.134766z
M508.181 139.745c6.56152 2.08301 14.9463 3.53613 21.0146 3.53613c12.6494 0 33.4258 -3.7002 55.249 -25.5967c12.627 12.8682 33.3955 28.6592 58.3369 27.2236c5.29883 -0.256836 12.3496 -1.91016 18.0059 -4.1084v85.9268
c-10.1895 5.69336 -38.1064 14.9121 -70.9209 -21.5381l-4.17188 -4.62305c-6.06348 6.71582 -6.26562 6.94043 -8.35645 9.03125c-32.2754 32.2754 -60.7959 21.3291 -69.1572 17.0078v-86.8594zM693.5 101.5zM462.2 257.109zM419.005 177.59zM587.306 73.6191z
M587.002 63.9629zM458.41 99.8691zM532.543 76.5479zM734.758 195.569zM419.005 177.59zM734.758 195.569zM740.451 200.988c2.98242 -9.0332 4.90332 -18.8105 7.41113 -28.1758l1.74902 -0.0283203c-1.33008 -28.0615 -1.83008 -38.6279 -47.3965 -74.6328
c-33.9053 -26.792 -58.7275 -36.2285 -115.151 -36.8652c-38.8125 -0.4375 -88.2422 1.01562 -131.575 36.8555c-17.0752 14.1221 -44.1807 41.4541 -43.9287 72.501h-1.21484c1.32715 4.97656 1.32715 4.97656 1.45312 8.79883l0.889648 -0.015625l3.80469 14.2695h-1.6709
c0.867188 1.17773 1.73535 2.35547 2.60254 3.5332v4.00977h2.95117l43.0908 58.5479h1.36719c14.9092 34.8633 72.0254 51.6582 94.21 24.6533c3.15039 -1.41602 17.4355 -7.11621 32.4785 -1.63184c7.74805 10.3711 29.5195 20.3789 54.0186 15.2988
c23.6963 -4.91309 47.5996 -26.957 58.0869 -37.6895h0.50293c0.369141 -0.543945 0.62207 -1.16895 1.08691 -1.64551l3.29492 -3.43848l31.4639 -53.7646c0.469727 0.0400391 0.84082 0.0107422 0.766602 -0.330078zM433.479 172.525
c-0.522461 -17.8916 1.45703 -39.1699 44.9111 -69.5889c36.874 -25.8115 67.4287 -27.665 109.375 -26.627c48.873 1.25879 69.2656 7.54004 98.7783 31.6553c39.2441 32.0703 45.7471 42.1201 41.0273 60.96l-6.24023 24.9121l-0.229492 -0.408203
c0.0126953 1.50684 -0.995117 3.4248 -0.981445 4.93262l-35.0186 55.2314c-0.939453 -0.0361328 -0.189453 0.817383 -1.12891 0.780273c-21.6758 14.291 -23.9863 20.4824 -32.084 25.2578c-12.4678 7.35156 -31.6377 5.87207 -43.8408 -2.45703
c-6.0752 -18.3008 -43.7686 -21.2334 -61.1357 -4.73047c-1.61914 1.53809 -2.81348 0.682617 -2.66016 2.56934c-18.5654 12.7754 -53.3408 -0.0947266 -63.168 -23.2393l-1.19141 -2.80664l-1.98633 0.764648l-38.2969 -54.2168zM781.812 484.896l-60.75 -66.4453
l66.9385 -60.4512l-16.3135 -13.5879l-67.0781 60.75l-62.0156 -63.2812l-11.8467 12.9551l60.5732 61.7168l-63.9141 67.0781l14.5547 13.9219l65.1797 -63.2812l62.0518 61.541zM781.812 484.896l-60.75 -66.4453l66.9385 -60.4512l-16.3135 -13.5879l-67.0781 60.75
l-62.0156 -63.2812l-11.8467 12.9551l60.5732 61.7168l-63.9141 67.0781l14.5547 13.9219l65.1797 -63.2812l62.0518 61.541zM440.604 371.899l-102 90l10.5195 10.002l87.6055 -75.5225l128.224 153.088l16.6514 -9.56738z" />
  </g>

</svg>
