<?xml version="1.0" standalone="no"?>
<!DOCTYPE svg PUBLIC "-//W3C//DTD SVG 1.1//EN" "http://www.w3.org/Graphics/SVG/1.1/DTD/svg11.dtd" >
<svg xmlns="http://www.w3.org/2000/svg" xmlns:xlink="http://www.w3.org/1999/xlink" version="1.1" viewBox="-10 0 1281 1000">
  <g transform="matrix(1 0 0 -1 0 800)">
   <path fill="currentColor"
d="M1057.35 220.376zM525.732 578.031zM426.453 395.262zM813.274 156.298zM812.576 134.103zM517.021 216.631zM687.409 163.026zM1152.18 436.585zM426.453 395.262zM1152.18 436.585zM916.771 671.235c-37.4746 0 -69.2002 -14.5742 -85.292 -30.666
c-6.12402 -6.12402 -4.56055 -6.44336 -7.09277 -7.36523c-11.375 -4.14746 -22.5244 -5.64844 -32.7002 -5.64844c-9.60547 0 -27.0596 1.41699 -45.9551 9.90625c-12.8408 15.6309 -34.5586 29.8555 -71.0723 29.8555c-54.8154 0 -117.325 -33.9277 -139.065 -84.7656
l-1.07324 -2.51074h-3.78125l-99.041 -134.569h-4.73828v-6.43457c-0.641602 -0.873047 -1.28223 -1.74316 -1.92578 -2.61523h1.03613l-10.9688 -41.1348l-1.23535 0.0205078c-0.220703 -4.21191 -0.617188 -6.63281 -1.94727 -11.8691h1.59668
c-0.0380859 -4.64844 -0.0380859 -4.64844 -0.0380859 -5.12207c0 -30.0713 12.9756 -90.9307 99.4648 -162.462c91.3486 -75.5508 194.651 -83.8818 280.29 -83.8818c140.365 0 197.591 17.5889 281.585 83.9619c102.605 81.0771 104.336 104.95 107.161 164.21
l-2.87207 0.046875c-0.176758 0.65918 -12.7793 52.084 -17.248 65.9297l-73.334 125.315c-8.26465 8.62305 -8.26465 8.62305 -9.09863 10.0527h-0.543945c-25.7842 26.3877 -79.833 75.7695 -132.606 86.7119c-10.0977 2.09473 -19.9863 3.03418 -29.5039 3.03418z
M673.229 634.992c7.89062 0 25.4229 0 45.4141 -13.7559l-0.154297 -1.90723c1.15332 -0.473633 3.00293 -1.34277 4.79883 -3.0498c16.9395 -16.0957 42.9727 -23.6533 67.6895 -23.6533c23.0244 0 44.9033 6.55664 57.2227 18.8779
c2.39648 2.39648 6.2666 6.2666 9.25879 15.2773c12.6924 8.66211 32.8555 18.1123 60.376 18.1123c36.5195 0 53.5947 -15.9043 66.6865 -28.0957c10.1748 -9.47754 23.5732 -21.9844 52.3906 -41.0518c1.10059 -0.240234 2.00586 -0.769531 2.72949 -1.58984
l0.632812 0.0253906l82.415 -129.989c0 -0.222656 -0.00683594 -0.444336 -0.00683594 -0.666992c5.91113 -22.1445 11.3086 -44.8037 16.998 -67.168c1.99121 -7.94727 3.10645 -15.3145 3.10645 -22.4482c0 -34.2207 -25.459 -61.9492 -98.8037 -121.885
c-67.5869 -55.2275 -116.527 -74.1709 -264.026 -74.1709c-79.8506 0 -144.214 9.81055 -219.385 62.4287c-92.6631 64.8652 -105.123 112.633 -105.123 155.173c0 2.80566 0.0517578 5.56934 0.130859 8.29004c4.62305 18.3496 9.64551 36.3018 14.4189 54.501
l90.3096 127.853c1.2793 -0.492188 2.55957 -0.984375 3.83887 -1.47754c3.04199 7.16309 8.22266 19.3682 22.2793 33.4248c22.6514 22.6494 56.1738 36.9463 86.8027 36.9463zM828.424 115.613zM329.052 511.501v-28.4873h-119.053v-394.013h-21.4551v394.013h-119.053
v28.4873h119.053v146.253h21.4551v-146.253h119.053z" />
  </g>

</svg>
