<?xml version="1.0" standalone="no"?>
<!DOCTYPE svg PUBLIC "-//W3C//DTD SVG 1.1//EN" "http://www.w3.org/Graphics/SVG/1.1/DTD/svg11.dtd" >
<svg xmlns="http://www.w3.org/2000/svg" xmlns:xlink="http://www.w3.org/1999/xlink" version="1.1" viewBox="-10 0 1051 1000">
  <g transform="matrix(1 0 0 -1 0 800)">
   <path fill="currentColor"
d="M271 608l-12 60c128.725 89.7881 355.203 55.3633 442.457 48.5605c0 -0.0107422 0.000976562 -0.0214844 0.000976562 -0.0322266c27.4463 0.582031 75.1855 -1.32129 107.268 -33.4033c40.1396 -40.1396 38.6152 -108.841 37.5254 -169.365
c-0.395508 -21.9258 -0.433594 -33.2402 -0.22168 -41.9463c26.3789 -43.8281 72.168 -89.959 89.3252 -129.607c6.95117 -16.0635 5.49219 -24.7637 2.64551 -40.2051l-12 -14l-79.501 -63.5771v-212.431c1.93945 -31.0869 1.82422 -79.2412 -27.416 -108.48
c-26.0322 -26.0322 -182.507 -12.0195 -220.584 -13.0049l-2.90137 0.0126953c-103.732 -7.2998 -296.108 50.6025 -326.603 92.1719c-18.5059 25.2275 -31.4014 41.2529 -57.9951 55.3086v70.0371c25.8174 -16.2627 49.624 -17.8066 70.1904 -60.6357
c44.2188 -92.082 349.455 -105.734 451.309 -108.438l-0.499023 -0.962891c50 12 34.1514 4.48145 42.5352 13.5361c19.1768 20.7119 3.97852 41.9688 5.50781 57.9648h-0.541992v2.14941c-0.253906 0.990234 -0.500977 1.94141 -0.738281 2.84863h0.738281v207.174v3.4873
v1.33887h1.58203l104 88h1.13281c4.9834 45.8955 -62.8379 92.1289 -94.2158 139.501l-3 4l-1 1c-2.02051 3.99219 0.0439453 4.02539 -2.08398 11.5605c-0.0371094 0.130859 -0.189453 0.24707 -0.174805 0.367188l0.258789 2.07227l0.0644531 1.49902
c0.00976562 0.226562 0.150391 3.89551 0.242188 6.24414c3.11426 79.1523 14.1973 176.389 -74.8154 176.771c-136.35 16.7461 -373.536 9.53418 -431.49 -46.5137zM30.3545 728.521h55.5146l17.1611 52.2256l17.1602 -52.2256h55.5156l-44.8672 -32.2959l17.1611 -52.2246
l-44.9697 32.2959l-44.9707 -32.2959l17.1611 52.2246zM494.46 94.6006l-3.33008 3.69043c-63.3594 70.3789 -122.67 35.5488 -125.37 34.0195l-6.83984 -4.41016v168.39l1.98047 1.35059c0.628906 0 65.3389 43.8301 135.449 -30.5098
c70.1104 74.5195 131.22 30.8691 131.851 30.4199l1.7998 -1.34961v-169.201l-7.29004 5.66992c-2.25 1.71094 -56.25 42.0312 -124.92 -34.3789zM406.08 150.94c24.3906 0 56.1602 -9 88.3799 -42.9297c37.4404 39.7803 71.1895 46.7998 93.0596 45.54
c9.80371 -0.474609 24.8438 -4.50781 33.5693 -9v146.97c-10.3496 6.47949 -61.1992 32.7598 -121.319 -34.0205l-3.3291 -3.68945l-3.33008 3.68945c-59.6699 66.1514 -114.39 40.1406 -125.19 33.9307v-148.05c10.1084 4.17285 27.1865 7.55957 38.123 7.55957h0.0371094z
M492.96 512.037c13.6504 -50.1191 50.3389 -90.2314 117.057 -123.938l-4.20312 -10.1836c-65.2607 33.0654 -104.985 72.6973 -121.242 121.135c-15.3096 -43.0029 -58.4609 -96.8037 -96.3193 -120.094l-6.82617 10.2959c74.8467 48.0381 110.813 119.966 107.67 220.204
l10.8896 -0.240234c0.147461 -0.00292969 0.271484 -9.40332 0.271484 -12.9902c0 -24.4092 -7.29688 -84.1895 -7.29688 -84.1895z" />
  </g>

</svg>
