<?xml version="1.0" standalone="no"?>
<!DOCTYPE svg PUBLIC "-//W3C//DTD SVG 1.1//EN" "http://www.w3.org/Graphics/SVG/1.1/DTD/svg11.dtd" >
<svg xmlns="http://www.w3.org/2000/svg" xmlns:xlink="http://www.w3.org/1999/xlink" version="1.1" viewBox="-10 0 1073 1000">
  <g transform="matrix(1 0 0 -1 0 800)">
   <path fill="currentColor"
d="M271 608l-12 60c128.725 89.7881 355.203 55.3633 442.457 48.5605c0 -0.0107422 0.000976562 -0.0214844 0.000976562 -0.0322266c27.4463 0.582031 75.1855 -1.32129 107.268 -33.4033c40.1396 -40.1396 38.6152 -108.841 37.5254 -169.365
c-0.395508 -21.9258 -0.433594 -33.2402 -0.22168 -41.9463c26.3789 -43.8281 72.168 -89.959 89.3252 -129.607c6.95117 -16.0635 5.49219 -24.7637 2.64551 -40.2051l-12 -14l-79.501 -63.5771v-212.431c1.93945 -31.0869 1.82422 -79.2412 -27.416 -108.48
c-26.0322 -26.0322 -182.507 -12.0195 -220.584 -13.0049l-2.90137 0.0126953c-103.732 -7.2998 -296.108 50.6025 -326.603 92.1719c-18.5059 25.2275 -31.4014 41.2529 -57.9951 55.3086v70.0371c25.8174 -16.2627 49.624 -17.8066 70.1904 -60.6357
c44.2188 -92.082 349.455 -105.734 451.309 -108.438l-0.499023 -0.962891c50 12 34.1514 4.48145 42.5352 13.5361c19.1768 20.7119 3.97852 41.9688 5.50781 57.9648h-0.541992v2.14941c-0.253906 0.990234 -0.500977 1.94141 -0.738281 2.84863h0.738281v207.174v3.4873
v1.33887h1.58203l104 88h1.13281c4.9834 45.8955 -62.8379 92.1289 -94.2158 139.501l-3 4l-1 1c-2.02051 3.99219 0.0439453 4.02539 -2.08398 11.5605c-0.0371094 0.130859 -0.189453 0.24707 -0.174805 0.367188l0.258789 2.07227l0.0644531 1.49902
c0.00976562 0.226562 0.150391 3.89551 0.242188 6.24414c3.11426 79.1523 14.1973 176.389 -74.8154 176.771c-136.35 16.7461 -373.536 9.53418 -431.49 -46.5137zM30.3545 728.521h55.5146l17.1611 52.2256l17.1602 -52.2256h55.5156l-44.8672 -32.2959l17.1611 -52.2246
l-44.9697 32.2959l-44.9707 -32.2959l17.1611 52.2246zM449.512 469.646c0 -1.41016 1.05469 -2.44141 2.18262 -2.44141l173.77 -0.78418c1.20605 0 2.18945 1.10547 2.18848 2.41699l-0.887695 84.5098c2.83105 -0.453125 5.63672 -1.18457 8.49316 -1.35742
l13.9014 -0.84375l-21.5068 28.0215v45.7363c0 1.35449 -0.985352 2.44434 -2.08789 2.44434l-99.9805 -2.43848l-1.01953 21.0977l-0.818359 7.13965l-24.9209 -25.2285l-0.694336 0.00292969s-46.4238 0.210938 -46.4307 0.210938
c-1.2627 0 -2.18848 -1.17871 -2.18848 -2.44238v-156.044zM458.524 477.281v140.756l40.0244 -0.191406l27.0303 -25.5068c0.458984 8.56738 0.624023 17.4609 0.895508 26.2373l92.165 -1.3252v-37.2949l-23.4873 -28.8232l11.5635 -1.71582l13.9541 2.40234
l-2.08496 -75.3066zM646.614 191.501zM449.484 352.207zM412.671 270.083zM556.108 162.708zM555.849 152.735zM446.255 189.817zM509.436 165.731zM681.776 288.65zM412.671 270.083zM681.776 288.65zM686.629 294.247c2.54199 -9.3291 4.17871 -19.4268 6.31641 -29.0986
l1.49121 -0.0283203c-1.13379 -28.9805 -1.56055 -39.8926 -40.3955 -77.0771c-28.8955 -27.6689 -50.0508 -37.4141 -98.1396 -38.0713c-33.0791 -0.452148 -75.2051 1.04785 -112.137 38.0615c-14.5537 14.585 -37.6543 42.8115 -37.4404 74.875h-1.03516
c1.13184 5.13965 1.13184 5.13965 1.23926 9.08691l0.757812 -0.015625l3.24316 14.7363h-1.42285c0.738281 1.21484 1.47754 2.43262 2.2168 3.64941v4.14062h2.51465l36.7256 60.4648h1.16504c12.7061 36.0059 61.3857 53.3496 80.292 25.46
c2.68457 -1.46094 14.8594 -7.34766 27.6797 -1.68457c6.60449 10.7109 25.1592 21.0469 46.0391 15.7998c20.1953 -5.0752 40.5674 -27.8398 49.5049 -38.9238h0.428711c0.31543 -0.561523 0.53125 -1.20605 0.926758 -1.69922l2.80859 -3.5498l26.8154 -55.5264
c0.400391 0.0419922 0.71582 0.0107422 0.65332 -0.34082zM425.007 264.854c-0.444336 -18.4785 1.24121 -40.4531 38.2764 -71.8682c31.4268 -26.6572 57.4668 -28.5713 93.2168 -27.499c41.6533 1.29883 59.0322 7.78711 84.1846 32.6924
c33.4473 33.1191 38.9893 43.499 34.9668 62.9551l-5.31934 25.7285l-0.194336 -0.421875c0.0117188 1.55664 -0.848633 3.53711 -0.835938 5.09473l-29.8447 57.04c-0.801758 -0.0380859 -0.162109 0.842773 -0.962891 0.805664
c-18.4736 14.7578 -20.4434 21.1523 -27.3447 26.085c-10.626 7.59375 -26.9629 6.06445 -37.3643 -2.53711c-5.17676 -18.9004 -37.3008 -21.9297 -52.1035 -4.88574c-1.37988 1.58887 -2.39746 0.705078 -2.26758 2.65332
c-15.8223 13.1943 -45.4609 -0.0986328 -53.835 -24.001l-1.0166 -2.89844l-1.69238 0.789062l-32.6387 -55.9922zM544.794 229.224c-0.0498047 2.09277 -0.0742188 3.66211 -0.0742188 4.70801c0 6.16309 0.734375 11.4805 2.2041 15.958
c1.07715 3.37109 2.81543 6.77246 5.2168 10.2031c1.7627 2.49902 4.9209 6.13281 9.47656 10.8994c4.60352 4.8252 7.59082 8.66309 8.96289 11.5107c1.37109 2.84863 2.05762 5.95996 2.05762 9.33105c0 6.10449 -2.00879 11.4531 -6.02441 16.0449
c-4.0166 4.65137 -8.93945 6.97656 -14.7666 6.97656c-5.63281 0 -10.335 -2.09375 -14.1064 -6.2793s-6.24512 -10.7256 -7.41992 -19.6201l-13.5908 1.91895c1.22363 11.918 4.84766 21.0439 10.873 27.3799c6.07227 6.33887 14.0801 9.50586 24.0225 9.50586
c10.5312 0 18.9316 -3.40137 25.2002 -10.2021c6.26953 -6.80176 9.40332 -15.0273 9.40332 -24.6787c0 -5.58008 -1.10156 -10.7256 -3.30566 -15.4336c-2.20508 -4.70996 -6.51367 -10.4346 -12.9307 -17.1797c-4.31055 -4.53418 -7.12598 -7.87695 -8.44824 -10.0273
c-1.32422 -2.15137 -2.30273 -4.62207 -2.93848 -7.41309c-0.636719 -2.78906 -1.00391 -7.3252 -1.10254 -13.6025h-12.709zM543.984 197.743v17.876h15.0625v-17.876h-15.0625z" />
  </g>

</svg>
