<?xml version="1.0" standalone="no"?>
<!DOCTYPE svg PUBLIC "-//W3C//DTD SVG 1.1//EN" "http://www.w3.org/Graphics/SVG/1.1/DTD/svg11.dtd" >
<svg xmlns="http://www.w3.org/2000/svg" xmlns:xlink="http://www.w3.org/1999/xlink" version="1.1" viewBox="-10 0 830 1000">
  <g transform="matrix(1 0 0 -1 0 800)">
   <path fill="currentColor"
d="M357.201 568.079c25.0076 0 57.9936 -7.30362 86.4086 -37.8372c22.7026 -24.0873 34.6236 -53.3967 34.6236 -85.9665c0 -43.7125 -21.4775 -71.2386 -59.6104 -108.32c-50.694 -49.2357 -76.0566 -76.9175 -76.0566 -152.775
c0 -0.391325 0.0027336 -0.803519 0.0027336 -1.23634h22.7012c2.87504 66.2204 15.691 85.0472 66.147 134.301c55.8347 54.46 72.8708 86.3711 72.8708 132.749c0 34.0472 -9.97913 67.2713 -40.2114 97.5035c-26.2066 26.2066 -61.0286 39.7846 -107.947 39.7846
c-57.7839 0 -127.9 -23.2033 -146.914 -129.135l26.9802 -3.53359c8.86591 42.3858 24.4666 66.4659 39.3995 81.3989c21.8785 21.8785 49.979 33.0662 81.6059 33.0662zM372.192 80.6104h-33.1963v-40.6143h33.1963v40.6143zM723.555 684.573l0.571631 16.0057
l-633.98 -0.940623l-0.571631 -16.0057z" />
  </g>

</svg>
