<?xml version="1.0" standalone="no"?>
<!DOCTYPE svg PUBLIC "-//W3C//DTD SVG 1.1//EN" "http://www.w3.org/Graphics/SVG/1.1/DTD/svg11.dtd" >
<svg xmlns="http://www.w3.org/2000/svg" xmlns:xlink="http://www.w3.org/1999/xlink" version="1.1" viewBox="-10 0 1010 1000">
  <g transform="matrix(1 0 0 -1 0 800)">
   <path fill="currentColor"
d="M421 -140c0 -3 3 -6 6 -6l459 -2c3 0 6 3 6 6l-1 196c7 -1 14 3 22 3c32 2 32 -1 32 -1l-53 63l-1 105c0 3 -3 6 -6 6h-263l-3 46l-2 17l-66 -59h-2h-122c-3 0 -6 -3 -6 -6v-368zM445 -122v332h106l71 -60c1 20 -1 39 0 60l246 -1v-89l-59 -64l31 1h30l-2 -181z
M34.3545 -40.4795h55.5146l17.1611 52.2256l17.1602 -52.2256h55.5156l-44.8672 -32.2959l17.1611 -52.2246l-44.9697 32.2959l-44.9707 -32.2959l17.1611 52.2246zM776.53 558.072zM355.527 534.1zM776.53 558.072zM506.911 399.377zM408.067 430.474zM579.522 382.598z
M579.928 395.474zM355.527 534.1zM413.12 640.127zM721.521 432.646zM760.407 557.99c0.0662504 -0.252573 0.112967 -0.44322 0.154865 -0.629956l-24.3113 -5.81658l-0.0490099 0.194786zM355.918 563.131v-3.66865l-7.06087 -9.58672
c-0.389254 -11.8066 -0.511869 -15.5257 -1.93567 -22.5386h0.382025l1.24263 -11.0969c3.06383 -27.3604 21.966 -52.4683 40.1056 -70.608c56.9712 -56.9712 118.907 -64.1682 180.26 -64.1682c81.0747 0 114.413 10.5407 162.68 48.6806
c56.7248 44.8233 59.7881 57.0592 62.065 95.0912l-1.68744 0.0268521c-8.98365 36.3996 -9.96223 39.0395 -9.97512 39.4462l-1.12482 0.886116l-41.3564 70.6676c-2.02309 2.1451 -3.46402 3.79925 -4.97305 5.77469h-0.511208
c-36.337 36.145 -64.4225 52.0745 -94.1474 52.0745c-22.8331 0 -42.0156 -9.36215 -50.8393 -19.3848l-2.41197 -2.73971c-6.30421 -1.82854 -11.0754 -3.21244 -19.2348 -3.21244c-11.7927 0 -20.256 3.19302 -26.3822 5.50428
c-5.16035 5.69304 -15.9691 17.6175 -41.3234 17.6175c-22.7247 0 -48.6493 -10.3454 -65.7197 -27.4158c-7.78619 -7.78619 -10.4046 -12.6417 -16.1438 -23.2844h-1.75343l-57.4551 -78.0654h-2.69993zM372.208 520.964c0 1.8548 0.0396778 3.70199 0.12011 6.45777
l15.0436 -0.430908l-14.6576 2.13849l7.98623 29.9479l52.4427 74.2444l2.21022 -0.850836c1.74309 4.10541 4.76179 11.2152 12.8366 19.29c3.84586 3.84586 22.8559 21.3125 50.9024 21.3125c5.81592 0 11.6881 0 23.9487 -6.21705
c0.858799 -1.21451 1.2567 -2.88991 3.18401 -3.03591c4.11459 -3.7887 16.5867 -15.273 40.9059 -15.273c2.25472 0 29.2949 0.348321 37.2085 16.9542l1.67924 3.52372c6.77799 3.88204 17.5118 10.0297 34.6341 10.0297c21.0478 0 30.9754 -9.20985 38.8339 -16.5003
c9.15774 -8.49567 15.7082 -14.0422 31.0714 -24.2318l0.938263 -0.961968c3.82255 -3.91913 1.9736 -2.21692 46.3944 -72.2783c0.545249 -0.869476 1.1078 -1.72165 1.63417 -2.61001c11.7176 -46.7742 11.7176 -46.7742 11.7176 -52.4894
c0 -19.1886 -13.2297 -34.5448 -57.4169 -70.6536c-39.2812 -32.0984 -65.4947 -43.0473 -153.1 -43.0473c-46.3551 0 -83.8394 5.70362 -127.449 36.2302c-54.1456 37.9028 -61.0683 65.6995 -61.0683 88.4515z" />
  </g>

</svg>
