<?xml version="1.0" standalone="no"?>
<!DOCTYPE svg PUBLIC "-//W3C//DTD SVG 1.1//EN" "http://www.w3.org/Graphics/SVG/1.1/DTD/svg11.dtd" >
<svg xmlns="http://www.w3.org/2000/svg" xmlns:xlink="http://www.w3.org/1999/xlink" version="1.1" viewBox="-10 0 1051 1000">
  <g transform="matrix(1 0 0 -1 0 800)">
   <path fill="currentColor"
d="M271 608l-12 60c128.725 89.7881 355.203 55.3633 442.457 48.5605c0 -0.0107422 0.000976562 -0.0214844 0.000976562 -0.0322266c27.4463 0.582031 75.1855 -1.32129 107.268 -33.4033c40.1396 -40.1396 38.6152 -108.841 37.5254 -169.365
c-0.395508 -21.9258 -0.433594 -33.2402 -0.22168 -41.9463c26.3789 -43.8281 72.168 -89.959 89.3252 -129.607c6.95117 -16.0635 5.49219 -24.7637 2.64551 -40.2051l-12 -14l-79.501 -63.5771v-212.431c1.93945 -31.0869 1.82422 -79.2412 -27.416 -108.48
c-26.0322 -26.0322 -182.507 -12.0195 -220.584 -13.0049l-2.90137 0.0126953c-103.732 -7.2998 -296.108 50.6025 -326.603 92.1719c-18.5059 25.2275 -31.4014 41.2529 -57.9951 55.3086v70.0371c25.8174 -16.2627 49.624 -17.8066 70.1904 -60.6357
c44.2188 -92.082 349.455 -105.734 451.309 -108.438l-0.499023 -0.962891c50 12 34.1514 4.48145 42.5352 13.5361c19.1768 20.7119 3.97852 41.9688 5.50781 57.9648h-0.541992v2.14941c-0.253906 0.990234 -0.500977 1.94141 -0.738281 2.84863h0.738281v207.174v3.4873
v1.33887h1.58203l104 88h1.13281c4.9834 45.8955 -62.8379 92.1289 -94.2158 139.501l-3 4l-1 1c-2.02051 3.99219 0.0439453 4.02539 -2.08398 11.5605c-0.0371094 0.130859 -0.189453 0.24707 -0.174805 0.367188l0.258789 2.07227l0.0644531 1.49902
c0.00976562 0.226562 0.150391 3.89551 0.242188 6.24414c3.11426 79.1523 14.1973 176.389 -74.8154 176.771c-136.35 16.7461 -373.536 9.53418 -431.49 -46.5137zM30.3545 728.521h55.5146l17.1611 52.2256l17.1602 -52.2256h55.5156l-44.8672 -32.2959l17.1611 -52.2246
l-44.9697 32.2959l-44.9707 -32.2959l17.1611 52.2246zM512.92 323.43c0 9.00391 8.06055 16.6201 18.6035 16.6201c10.541 0 18.6035 -7.61621 18.6035 -16.6201c0 -9.00098 -8.0625 -16.6191 -18.6035 -16.6191c-10.543 0 -18.6035 7.61816 -18.6035 16.6191z
M512.92 268.469c0 9.00391 8.06055 16.6201 18.6035 16.6201c10.541 0 18.6035 -7.61621 18.6035 -16.6201c0 -9.00098 -8.0625 -16.6191 -18.6035 -16.6191c-10.543 0 -18.6035 7.61816 -18.6035 16.6191zM510.52 216.869c0 9.00293 8.06152 16.6201 18.6035 16.6201
s18.6035 -7.61719 18.6035 -16.6201c0 -9.00195 -8.06152 -16.6191 -18.6035 -16.6191s-18.6035 7.61719 -18.6035 16.6191zM512.92 162.27c0 9.00293 8.06055 16.6191 18.6035 16.6191c10.541 0 18.6035 -7.61621 18.6035 -16.6191
c0 -9.00195 -8.0625 -16.6191 -18.6035 -16.6191c-10.543 0 -18.6035 7.61719 -18.6035 16.6191zM586.836 155.279zM578 99h-84.3057l-7.57715 40.1953c-1.46875 0.00390625 1.45996 0 0 0l-0.847656 4.50098c1.17871 0 -1.18555 0.00195313 0 0l-23.4102 124.194
l-12.2539 -0.0605469l33.6279 -181.412h105.339v0h1.89355l-2.2168 -1.8623l0.323242 1.8623l31.4551 181.455l-13.4102 0.286133l-21.0938 -124.009c0.314453 0.00195312 0.299805 -0.600586 0.299805 -0.600586s-1.13281 -5.95312 -1.12695 -4.96387
c-0.581055 -0.00488281 0.0175781 0.100586 0 0zM461.513 269.73l2.22168 -1.83008l-1.875 -0.00976562zM483.523 147.15zM587.623 152.55zM586.423 150.15l-1.72656 -11.5645c-4.24121 -0.0322266 -8.53125 -0.046875 -12.8594 -0.046875
c-28.0391 0 -57.6787 0.59668 -85.7197 0.65625l-1.99414 11.5547c28.3223 -0.0488281 60.9189 -0.211914 89.2207 -0.211914c4.58789 0 8.59473 -0.425781 13.0791 -0.387695zM606.617 268.159l-1.94238 0.0419922l2.2666 1.87109zM620.027 267.873l0.446289 2.58008
l2.16797 -2.63574zM483.233 86.418l0.34082 -1.83691l-2.21191 1.83691h1.87109zM449.605 267.83l-2.69141 -0.0136719l2.2002 2.66211zM538 396l-83.166 150.556l9.59961 4.05566l74.4004 -127.8l67.7998 129l12.9775 -5.25586z" />
  </g>

</svg>
