<?xml version="1.0" standalone="no"?>
<!DOCTYPE svg PUBLIC "-//W3C//DTD SVG 1.1//EN" "http://www.w3.org/Graphics/SVG/1.1/DTD/svg11.dtd" >
<svg xmlns="http://www.w3.org/2000/svg" xmlns:xlink="http://www.w3.org/1999/xlink" version="1.1" viewBox="-10 0 1020 1000">
  <g transform="matrix(1 0 0 -1 0 800)">
   <path fill="currentColor"
d="M570.71 500.375v-117.802h-290.5v-24.9727l327.632 -1.0918l-2.94336 167.035l-324.688 1.82031v-24.9893h290.5zM552.456 91.6318l14.6875 5.75977l-2.72266 -43.1992l-9.37207 -24.1924h-14.9766l9.79199 26.4961zM447.843 101.256
c5.39941 0.0761719 10.7988 0.972656 16.1973 2.75977l10.9443 -41.1836l-5.76074 -40.8955l-9.21582 -3.45703l3.07324 42.0488zM433.512 103.729c2.96875 -1.14844 5.90332 -2.32129 10.3682 -2.30469c0.240234 -28.6729 1.82422 -52.2881 0.576172 -74.8799h-9.79199z
M570.601 100.271l12.1094 11.4854l16.6904 -81.7568h-14.4004zM548.05 191.889v0c14.2588 -33.2988 -12.3799 -39.1904 -23.9883 -44.1396l-1.0625 0.425781c21.0732 12.5264 29.2734 17.332 25.0508 43.7139zM453.496 206.191v0
c35.9668 -4.30078 27.749 -30.3154 26.2324 -42.8438l-0.901367 -0.708008c-0.30957 24.5137 -0.37207 34.0176 -25.3311 43.5518zM448.247 111.54c-22.3945 0 -40.5674 19.7334 -40.5674 40.9121c0 10.3828 6.33594 23.1406 10.6436 27.542
c1.1416 1.19434 1.7168 2.71973 1.7168 4.24316c0 1.51953 -0.571289 3.03613 -1.72461 4.22168c-5.63184 5.64062 -10.2041 16.6816 -10.2119 24.585c0 0.589844 1.24121 10.0342 2.21387 12.1953c5.02051 11.5312 19.2783 21.1055 31.8311 21.4062l0.0878906 0.00195313
l0.0878906 -0.00292969c11.0322 -0.389648 25.3564 -8.62598 30.8682 -21.1436c0.90625 -1.88867 3.12402 -3.54883 5.64062 -3.54883c1.72461 0 2.78613 0.701172 3.5293 1.19238c6.69043 4.42188 18.6514 8.03125 26.6475 8.03125
c0.612305 0 1.63965 -0.0263672 1.96191 -0.0351562c0.0185547 0 0.0351562 -0.000976562 0.0478516 -0.000976562c2.54785 0.0146484 4.87109 1.87402 5.67871 3.91406c5.74609 13.9346 22.6875 25.2568 37.7227 25.2568
c-0.269531 0.124023 -0.396484 0.204102 -0.396484 0.241211c0 0.0166016 0.0263672 0.0253906 0.0751953 0.0253906c1.34668 0 20.4619 -6.08301 26.9512 -12.5723c2.45508 -2.4541 9.61523 -10.332 11.4258 -20.3301c0.647461 -3.26172 3.4834 -4.94434 5.76367 -5.01758
c20.9932 -0.563477 38.0381 -18.0723 38.0381 -39.0723c0 -0.286133 -0.349609 -16.3525 -10.5996 -26.6016c-6.11426 -6.11523 -13.4463 -9.32129 -13.9805 -9.53125c-5.59668 -2.20703 -12.2119 -3.0498 -15.3311 -3.0498h-0.0664062
c-4.79883 0.107422 -8.6416 2.50391 -14.084 2.50391c-2.7334 0 -4.28125 -0.733398 -5.11621 -1.56836c-0.101562 -0.110352 -0.533203 -0.597656 -2.2207 -2.51465c1.20117 -2.77148 2.88379 -6.65625 2.88379 -11.7568c0 -7.39258 -4.34766 -14.3018 -4.56543 -14.3359
c-1.09766 -1.51855 -2.41016 -3.00977 -3.84961 -4.4502c-4.25684 -4.25586 -9.58594 -8.07129 -14.041 -9.87402c-10.6494 -4.30762 -19.7607 -4.36719 -20.4941 -4.36719c-7.58203 0 -17.3984 2.87598 -17.9805 3.33398
c-9.09961 3.77637 -20.0166 14.4521 -23.8516 24.9785c-0.676758 1.75488 -2.56836 3.55957 -4.71191 3.98145c-0.517578 0.0322266 -1.09863 0.0419922 -1.71973 0.0419922c-0.0556641 0 -3.1582 -0.439453 -4.89355 -2.5625
c-8.90918 -10.8926 -24.1807 -16.2725 -33.4092 -16.2725zM517.083 101.271l-0.0273438 0.0117188zM418.267 179.935v0zM398.771 151.713c0 -27.4307 24.0557 -50.457 49.0713 -50.457c18.7461 0 33.3037 11.5693 35.6699 13.5898l2.56641 2.19141
c2.99316 -4.69336 4.94336 -7.74902 9.78223 -12.5869c5.35254 -5.35352 11.8955 -10.0908 17.918 -12.4648c5.5791 -2.17676 14.6768 -3.88672 20.666 -3.88672c7.68457 0 15.9629 1.78613 25.0693 5.30176c8.19336 3.16211 18.4443 11.3984 23.1953 18.3564
c2.43945 3.57227 5.18555 12.5586 5.18555 18.9805c0 0.46582 0 0.46582 -0.183594 4.6582c4.92578 -0.995117 6.72266 -1.3584 8.82031 -1.3584c2.4541 0 11.8643 1.19629 18.5967 4.06641c7.34277 2.9873 16.6611 10.4199 21.0996 16.5596
c5.18457 7.24316 9.28613 20.0156 9.28613 28.9248c0 6.45215 -2.22559 16.0547 -5.06152 21.8477c-4.86328 9.9375 -20.6016 23.708 -37.4893 26.3877l-1.80176 0.286133c-1.31738 4.24609 -4.0957 13.208 -13.6904 22.8027
c-5.44922 5.44922 -17.3428 15.0967 -33.2559 15.0967c-20.5439 0 -38.1113 -15.0391 -44.7891 -27.7451l-0.769531 -1.46484c-6.4834 -0.391602 -16.2754 -1.86426 -25.9971 -6.6543l-2.30957 -1.1377c-2.36328 3.5332 -3.58301 5.35742 -6.61328 8.38672
c-8.12598 8.12695 -20.2598 14.2803 -31.208 14.6367c-0.133789 0.00195312 -0.268555 0.00292969 -0.404297 0.00292969c-13.2656 0 -33.4512 -10.8213 -40.2168 -28.1094c-1.60547 -4.31445 -2.68945 -14.8643 -2.83203 -15.6592
c0 -8.48633 3.98438 -20.0029 9.3916 -27.3545l1.24219 -1.68848l-1.19531 -1.72266c-5.5918 -8.05957 -9.74316 -20.6484 -9.74316 -29.7861zM52.7012 763.544h41.6357l12.8711 39.1699l12.8701 -39.1699h41.6367l-33.6504 -24.2217l12.8711 -39.168l-33.7275 24.2217
l-33.7275 -24.2217l12.8701 39.168zM264.521 609.221l-12.6758 63.3936c136.002 94.8662 375.292 58.4941 467.481 51.3066v-0.0322266c29.001 0.613281 79.4395 -1.39844 113.337 -35.2939c42.4092 -42.4102 40.7979 -114.996 39.6455 -178.943
c-0.416016 -23.167 -0.457031 -35.123 -0.233398 -44.3203c27.873 -46.3066 76.252 -95.0469 94.3799 -136.938c7.34277 -16.9707 5.80176 -26.1641 2.79395 -42.4785l-12.6807 -14.791l-83.9961 -67.1738v-224.448c2.04785 -32.8447 1.92871 -83.7236 -28.9658 -114.614
c-27.5059 -27.5059 -192.831 -12.7002 -233.062 -13.7412l-3.06641 0.0136719c-109.601 -7.71484 -312.854 53.4648 -345.075 97.3857c-19.5508 26.6543 -33.1758 43.585 -61.2744 58.4365v73.998c27.2783 -17.1826 52.4307 -18.8125 74.1611 -64.0645
c46.7197 -97.292 369.22 -111.715 476.835 -114.573l-0.527344 -1.0166c52.8281 12.6768 36.083 4.73438 44.9424 14.3018c20.2598 21.8828 4.2041 44.3428 5.81836 61.2441h-0.571289v2.27051c-0.269531 1.04492 -0.530273 2.05176 -0.78125 3.00781h0.78125v218.894
v3.68359v1.41504h1.6709l109.881 92.9756h1.19727c5.26562 48.4922 -66.3906 97.3398 -99.5449 147.394l-3.16895 4.22559l-1.05762 1.05664c-2.13379 4.2168 0.0449219 4.25195 -2.20117 12.2139c-0.0390625 0.138672 -0.200195 0.261719 -0.18457 0.386719
l0.273438 2.19141l0.0683594 1.58203c0.00976562 0.242188 0.15918 4.11719 0.255859 6.59766c3.29004 83.6279 5.49121 183.196 -88.5566 183.601l9.05664 11.0186c-144.061 17.6953 -394.666 10.0771 -455.897 -49.1416z" />
  </g>

</svg>
