<?xml version="1.0" standalone="no"?>
<!DOCTYPE svg PUBLIC "-//W3C//DTD SVG 1.1//EN" "http://www.w3.org/Graphics/SVG/1.1/DTD/svg11.dtd" >
<svg xmlns="http://www.w3.org/2000/svg" xmlns:xlink="http://www.w3.org/1999/xlink" version="1.1" viewBox="-10 0 1051 1000">
  <g transform="matrix(1 0 0 -1 0 800)">
   <path fill="currentColor"
d="M271 608l-12 60c128.725 89.7881 355.203 55.3633 442.457 48.5605c0 -0.0107422 0.000976562 -0.0214844 0.000976562 -0.0322266c27.4463 0.582031 75.1855 -1.32129 107.268 -33.4033c40.1396 -40.1396 38.6152 -108.841 37.5254 -169.365
c-0.395508 -21.9258 -0.433594 -33.2402 -0.22168 -41.9463c26.3789 -43.8281 72.168 -89.959 89.3252 -129.607c6.95117 -16.0635 5.49219 -24.7637 2.64551 -40.2051l-12 -14l-79.501 -63.5771v-212.431c1.93945 -31.0869 1.82422 -79.2412 -27.416 -108.48
c-26.0322 -26.0322 -182.507 -12.0195 -220.584 -13.0049l-2.90137 0.0126953c-103.732 -7.2998 -296.108 50.6025 -326.603 92.1719c-18.5059 25.2275 -31.4014 41.2529 -57.9951 55.3086v70.0371c25.8174 -16.2627 49.624 -17.8066 70.1904 -60.6357
c44.2188 -92.082 349.455 -105.734 451.309 -108.438l-0.499023 -0.962891c50 12 34.1514 4.48145 42.5352 13.5361c19.1768 20.7119 3.97852 41.9688 5.50781 57.9648h-0.541992v2.14941c-0.253906 0.990234 -0.500977 1.94141 -0.738281 2.84863h0.738281v207.174v3.4873
v1.33887h1.58203l104 88h1.13281c4.9834 45.8955 -62.8379 92.1289 -94.2158 139.501l-3 4l-1 1c-2.02051 3.99219 0.0439453 4.02539 -2.08398 11.5605c-0.0371094 0.130859 -0.189453 0.24707 -0.174805 0.367188l0.258789 2.07227l0.0644531 1.49902
c0.00976562 0.226562 0.150391 3.89551 0.242188 6.24414c3.11426 79.1523 14.1973 176.389 -74.8154 176.771c-136.35 16.7461 -373.536 9.53418 -431.49 -46.5137zM30.3545 728.521h55.5146l17.1611 52.2256l17.1602 -52.2256h55.5156l-44.8672 -32.2959l17.1611 -52.2246
l-44.9697 32.2959l-44.9707 -32.2959l17.1611 52.2246zM386.243 302.279c81.2285 -52.499 232.133 32.0938 264.4 1.2002c14.1641 -13.5615 14.5566 -21.9268 16.6426 -39.0605c6.72461 -55.2383 -37.7783 -85.8838 -75.5312 -96.6875
c-51.0938 -14.6211 -120.407 -14.3965 -179.018 -29.9512l35.6318 -36.4316l-31.2578 -2.08398l-30.0049 30.8047c-3.66602 -0.12793 -8.35352 1.88574 -9.33203 9.33203l-5.96582 5.96582l38.8408 61.46l30.8584 2.05762l-25.4902 -39.1729
c77.4062 20.8027 174.647 4.53809 211.694 41.585c9.78027 9.78027 19.876 52.79 7.49414 69.0801c-7.42578 9.77051 -80.0381 -6.96484 -133.763 -18.0977c-39.3477 -8.15332 -73.6514 -7.20801 -111.2 12.7998c-2.15234 1.14648 -10.3398 4.57227 -10.7305 12.7617
c-0.134766 2.82715 -0.100586 6.41016 2.74805 9.25879c2.11621 2.11621 1.65918 6.68066 3.98242 5.17969zM573.111 515.265l-62.5 -71l53.3887 -54.2646l-12.8887 -10.7354l-53.5 54.5l-64.5 -60.5l-9.36133 10.2354l63.3613 59.2646l-60 66.5l11.5 11l61 -63.5
l63.5273 67.125z" />
  </g>

</svg>
