<?xml version="1.0" standalone="no"?>
<!DOCTYPE svg PUBLIC "-//W3C//DTD SVG 1.1//EN" "http://www.w3.org/Graphics/SVG/1.1/DTD/svg11.dtd" >
<svg xmlns="http://www.w3.org/2000/svg" xmlns:xlink="http://www.w3.org/1999/xlink" version="1.1" viewBox="-10 0 1050 1000">
  <g transform="matrix(1 0 0 -1 0 800)">
   <path fill="currentColor"
d="M380.492 32.8965c0 34.1191 30.1523 62.8975 69.5078 62.8975c39.3525 0 69.5117 -28.7783 69.5117 -62.8975c0 -34.1133 -30.1592 -62.8965 -69.5117 -62.8965c-39.3564 0 -69.5078 28.7842 -69.5078 62.8965zM556.109 74.6343
c0 14.4165 -4.10889 15.3657 -4.10889 15.3657l-2.71853 5.86745c-20.4856 49.1838 -45.4672 85.0294 -93.3085 87.6782c-60.606 4.28597 -88.1457 -39.2512 -109.618 -94.0159l6.64465 13.4702c-7.78711 -12.333 -10.3748 -25.8038 -11.2802 -28.5181
c-0.0408785 -0.122543 -1.52742 -3.71591 -4.57615 -12.0804c-0.823838 -2.36572 -1.83919 -4.56615 -2.55527 -6.47517c-0.54013 -2.23741 -0.54013 -2.23741 -2.45072 -6.77433l-0.109876 0.0406994c-0.379706 -1.2506 -0.753028 -2.48017 -1.12011 -3.68917
l0.0416597 -0.0122732c-0.0117628 -0.0372935 -0.112051 -0.230779 -1.17755 -3.72895l-3.85e-05 5.20326e-05c-20.2657 -66.7434 -20.584 -67.6985 -27.7715 -89.2659c-6.37857 -20.9918 -7.8334 -26.8477 1.33431 -36.0154
c5.25364 -5.25364 8.70202 -5.41751 22.9462 -5.90629c251.59 0.087843 252.054 0.170506 258.433 0.847325c0.309886 0.0309572 21.1404 4.59591 14.6273 27.494c-2.95834 10.3415 -13.3404 46.5979 -29.4572 97.5483l-1.88419 4.53564
c-4 11 -7.13286 13.3069 -7.13286 13.3069l3.48833 -16.9651c-6.10547 52.7412 2.64453 5.6582 -0.900391 13.8662c-1.22559 2.83887 -5.61453 21.6566 -5.59051 21.663l6.68817 1.76499c-1.15949 0 -2.29411 -0.0010158 -3.39886 -0.0010158
c-3.42094 -1.37607 -3.48034 -1.29351 -3.63948 -1.07231c-0.311643 0.433175 -0.554185 0.770302 -0.742948 1.07165c-0.222643 0 -0.443511 -1.39214e-05 -0.66255 -1.39214e-05zM309.456 739.614c18.8545 21.0011 76.5453 78.7819 173.939 67.0855
c60.6532 -6.68248 100.977 -39.8432 126.153 -67.988c20.581 -24.166 38.143 -51.2972 52.6276 -81.2221c30.3085 -64.1846 50.9662 -132.203 72.1758 -217.657c15.3923 -63.9795 31.1292 -127.919 47.1745 -191.649c4.08066 -16.9905 7.82874 -34.0662 11.2468 -51.2899
c7.78759 -38.3309 2.48769 -74.1722 -16.0454 -106.684c-5.93097 -9.81179 -12.4792 -18.3468 -19.6984 -25.566c-18.7286 -18.7286 -41.8075 -28.1355 -68.1994 -27.7629c-24.6657 -0.50491 -27.3047 -0.55893 -66.3145 -0.496429
c7.91846 -26.0682 13.4787 -44.1178 19.5931 -63.5477c8.25637 -27.5033 18.4091 -61.1222 -12.1551 -91.6853c-21.3056 -21.3056 -44.8227 -20.7817 -62.6072 -20.3856c-16.2346 0.361603 -56.9262 1.27119 -241.516 -0.364001
c-0.981443 -0.00869413 -57.7988 0.0661009 -82.7445 52.7864c6.4336 26.523 12.1865 53.2515 19.2908 79.5788c4.33778 16.075 8.27289 27.9984 13.2636 43.6155c-50.5064 -0.0386307 -68.8687 0.491368 -83.5983 6.76942
c-3.49107 1.48796 -21.0871 9.45707 -34.377 24.1797c-33.185 36.7626 -40.1801 80.2762 -34.3437 122.452c5.09771 27.899 13.0001 55.5921 24.6405 102.371c48.6626 195.556 54.3227 223.465 76.3754 287.846c9.69025 28.1722 20.8976 55.2969 33.6154 81.3604
c14.1296 28.9092 31.3509 55.0724 51.5033 78.2551zM292.977 89.5118c12.1011 34.7942 28.1485 74.845 57.4004 104.097c24.0233 24.0233 60.825 44.7146 113.331 39.6672c87.2295 -7.68986 121.648 -86.9439 141.706 -143.651
c77.3668 -0.0816661 82.9558 0.0251511 96.976 1.88611c24.1094 3.00659 57.0299 40.9378 46.0471 92.9607c-3.78728 19.0645 -7.98335 37.9245 -12.6131 56.689c-40.8059 162.819 -46.0943 187.136 -46.5744 189.022c-46.2443 184.24 -98.9653 316.045 -216.414 324.17
c-47.9392 4.23632 -130.642 -4.53603 -191.193 -154.63c-23.6356 -59.561 -38.1521 -111.934 -54.1157 -175.534c-0.0137127 -0.0555281 -32.9829 -135.78 -32.9829 -135.78c-5.72479 -22.4812 -11.5705 -44.9097 -17.5372 -67.2875
c-10.6657 -43.8376 -19.1311 -78.6315 9.9991 -112.813c6.73605 -7.34296 13.7101 -11.961 20.3241 -14.9455c9.0703 -2.79958 19.7758 -3.29892 33.1806 -3.87524z" />
  </g>

</svg>
