<?xml version="1.0" standalone="no"?>
<!DOCTYPE svg PUBLIC "-//W3C//DTD SVG 1.1//EN" "http://www.w3.org/Graphics/SVG/1.1/DTD/svg11.dtd" >
<svg xmlns="http://www.w3.org/2000/svg" xmlns:xlink="http://www.w3.org/1999/xlink" version="1.1" viewBox="-10 0 1043 1000">
  <g transform="matrix(1 0 0 -1 0 800)">
   <path fill="currentColor"
d="M655.556 294.723c0 -76.6723 -62.2268 -138.89 -138.889 -138.89c-76.6718 0 -138.889 62.2273 -138.889 138.89c0 76.6713 62.2268 138.889 138.889 138.889c76.6713 0 138.889 -62.2269 138.889 -138.889zM620.42 423.889l-3.23914 2.30504
c-27.6118 19.6492 -69.7396 34.025 -100.514 34.025c-8.33277 0 -54.9937 -1.63186 -103.753 -36.3301h-312.914v-27.7773h283.391c-23.6603 -42.3675 -27.232 -51.1798 -33.8293 -88.0557h-249.562v-27.7783h249.557c6.9648 -40.4937 12.7058 -50.9645 33.0419 -88.0547
h-282.599v-27.7783h312.914l3.23913 -2.30501c27.6118 -19.649 69.7396 -34.0241 100.514 -34.0241c8.33331 0 54.9947 1.63194 103.753 36.3291h312.914v27.7783h-283.391c23.6602 42.3668 27.2318 51.1787 33.8291 88.0547h249.562v27.7783h-249.557
c-6.96486 40.4944 -12.7061 50.9657 -33.0419 88.0557h282.599v27.7773h-312.914z" />
  </g>

</svg>
