<?xml version="1.0" standalone="no"?>
<!DOCTYPE svg PUBLIC "-//W3C//DTD SVG 1.1//EN" "http://www.w3.org/Graphics/SVG/1.1/DTD/svg11.dtd" >
<svg xmlns="http://www.w3.org/2000/svg" xmlns:xlink="http://www.w3.org/1999/xlink" version="1.1" viewBox="-10 0 1014 1000">
  <g transform="matrix(1 0 0 -1 0 800)">
   <path fill="currentColor"
d="M30.3242 741.553h55.5146l17.1611 52.2256l17.1602 -52.2256h55.5156l-44.8672 -32.2959l17.1611 -52.2246l-44.9697 32.2959l-44.9707 -32.2959l17.1611 52.2246zM271 608l-12 60c128.725 89.7881 355.203 55.3633 442.457 48.5605
c0 -0.0107422 0.000976562 -0.0214844 0.000976562 -0.0322266c27.4463 0.582031 75.1855 -1.32129 107.268 -33.4033c40.1396 -40.1396 38.6152 -108.841 37.5254 -169.365c-0.395508 -21.9258 -0.433594 -33.2402 -0.22168 -41.9463
c26.3789 -43.8281 72.168 -89.959 89.3252 -129.607c6.95117 -16.0635 5.49219 -24.7637 2.64551 -40.2051l-12 -14l-79.501 -63.5771v-212.431c1.93945 -31.0869 1.82422 -79.2412 -27.416 -108.48c-26.0322 -26.0322 -182.507 -12.0195 -220.584 -13.0049
l-2.90137 0.0126953c-103.732 -7.2998 -296.108 50.6025 -326.603 92.1719c-18.5059 25.2275 -31.4014 41.2529 -57.9951 55.3086v70.0371c25.8174 -16.2627 49.624 -17.8066 70.1904 -60.6357c44.2188 -92.082 349.455 -105.734 451.309 -108.438l-0.499023 -0.962891
c50 12 34.1514 4.48145 42.5352 13.5361c19.1768 20.7119 3.97852 41.9688 5.50781 57.9648h-0.541992v2.14941c-0.253906 0.990234 -0.500977 1.94141 -0.738281 2.84863h0.738281v207.174v3.4873v1.33887h1.58203l104 88h1.13281
c4.9834 45.8955 -62.8379 92.1289 -94.2158 139.501l-3 4l-1 1c-2.02051 3.99219 0.0439453 4.02539 -2.08398 11.5605c-0.0371094 0.130859 -0.189453 0.24707 -0.174805 0.367188l0.258789 2.07227l0.0644531 1.49902
c0.00976562 0.226562 0.150391 3.89551 0.242188 6.24414c3.11426 79.1523 5.19727 173.389 -83.8154 173.771c-136.35 16.7461 -373.536 9.53418 -431.49 -46.5137zM551.794 195.571zM654 198c-61.5176 54.3633 -61.5176 54.3633 -61.75 54.5967
c-0.400391 0.399414 -1.16895 1.19336 -2.08203 2.18652c-0.879883 -0.762695 -1.44629 -1.72461 -2.00488 -2.36523c-4.97754 -5.69043 -4.97754 -5.69043 -5.50781 -6.0293c-0.34082 -0.34668 -0.799805 -0.819336 -1.40332 -1.44727
c0.310547 -0.279297 0.310547 -0.279297 2.24609 -1.80176l47.4893 -40.6484l-84.7959 -1.14844l-45.8145 43.2617l-6.05078 -6.72754l38.0947 -36.3633c-4.74219 -0.00585938 -9.48438 -0.0117188 -14.2256 -0.0175781h-93.3848l0.0751953 -10.6533
c1.52051 0.0205078 1.52051 0.0205078 107.627 -1.33008l-41.1338 -34.2031l6.375 -6.89453l46.7412 40.3877c0.682617 0.225586 0.682617 0.225586 1.31348 0.478516l84.9941 0.867188c-15.3223 -12.6133 -30.6533 -25.2178 -45.9795 -37.8271l-0.25293 -0.228516
l0.25293 0.228516v0l-0.25293 -0.228516v0v0l-2.21777 -1.82617c0.948242 -1.34863 1.17871 -1.08496 1.95605 -1.92578l5.14062 -5.55957v0v0v0c-0.00683594 -0.0888672 0.0107422 -0.188477 0 0v0l2.04492 -2.21191c0.856445 0.733398 1.78223 1.52539 2.14062 1.88281
c60.0547 51.8193 60.0547 51.8193 61.0234 52.7881c0.310547 0.310547 0.674805 0.670898 1.11328 1.03613c-0.186523 0.148438 -0.186523 0.148438 -1.77148 1.72363zM422.99 475.638c71.0742 -45.9375 203.116 28.082 231.35 1.0498
c12.3936 -11.8662 12.7373 -19.1855 14.5625 -34.1777c5.88477 -48.334 -33.0557 -75.1484 -66.0898 -84.6016c-44.707 -12.7939 -105.356 -12.5967 -156.64 -26.207l31.1777 -31.8779l-27.3506 -1.82324l-26.2549 26.9541
c-3.20703 -0.111328 -7.30957 1.64941 -8.16504 8.16504l-5.21973 5.2207l33.9854 53.7773l27.001 1.80078l-22.3047 -34.2773c67.7314 18.2031 152.817 3.97168 185.233 36.3877c8.55762 8.55664 17.3916 46.1914 6.55762 60.4453
c-6.49805 8.54883 -70.0342 -6.09473 -117.043 -15.8359c-34.4287 -7.13477 -64.4453 -6.30762 -97.2998 11.1992c-1.88379 1.00391 -9.04688 4.00195 -9.38867 11.167c-0.118164 2.47363 -0.0888672 5.6084 2.40332 8.10156
c1.85254 1.85156 1.45215 5.8457 3.48535 4.53223z" />
  </g>

</svg>
