<?xml version="1.0" standalone="no"?>
<!DOCTYPE svg PUBLIC "-//W3C//DTD SVG 1.1//EN" "http://www.w3.org/Graphics/SVG/1.1/DTD/svg11.dtd" >
<svg xmlns="http://www.w3.org/2000/svg" xmlns:xlink="http://www.w3.org/1999/xlink" version="1.1" viewBox="-10 0 1051 1000">
  <g transform="matrix(1 0 0 -1 0 800)">
   <path fill="currentColor"
d="M271 608l-12 60c128.725 89.7881 355.203 55.3633 442.457 48.5605c0 -0.0107422 0.000976562 -0.0214844 0.000976562 -0.0322266c27.4463 0.582031 75.1855 -1.32129 107.268 -33.4033c40.1396 -40.1396 38.6152 -108.841 37.5254 -169.365
c-0.395508 -21.9258 -0.433594 -33.2402 -0.22168 -41.9463c26.3789 -43.8281 72.168 -89.959 89.3252 -129.607c6.95117 -16.0635 5.49219 -24.7637 2.64551 -40.2051l-12 -14l-79.501 -63.5771v-212.431c1.93945 -31.0869 1.82422 -79.2412 -27.416 -108.48
c-26.0322 -26.0322 -182.507 -12.0195 -220.584 -13.0049l-2.90137 0.0126953c-103.732 -7.2998 -296.108 50.6025 -326.603 92.1719c-18.5059 25.2275 -31.4014 41.2529 -57.9951 55.3086v70.0371c25.8174 -16.2627 49.624 -17.8066 70.1904 -60.6357
c44.2188 -92.082 349.455 -105.734 451.309 -108.438l-0.499023 -0.962891c50 12 34.1514 4.48145 42.5352 13.5361c19.1768 20.7119 3.97852 41.9688 5.50781 57.9648h-0.541992v2.14941c-0.253906 0.990234 -0.500977 1.94141 -0.738281 2.84863h0.738281v207.174v3.4873
v1.33887h1.58203l104 88h1.13281c4.9834 45.8955 -62.8379 92.1289 -94.2158 139.501l-3 4l-1 1c-2.02051 3.99219 0.0439453 4.02539 -2.08398 11.5605c-0.0371094 0.130859 -0.189453 0.24707 -0.174805 0.367188l0.258789 2.07227l0.0644531 1.49902
c0.00976562 0.226562 0.150391 3.89551 0.242188 6.24414c3.11426 79.1523 14.1973 176.389 -74.8154 176.771c-136.35 16.7461 -373.536 9.53418 -431.49 -46.5137zM30.3545 728.521h55.5146l17.1611 52.2256l17.1602 -52.2256h55.5156l-44.8672 -32.2959l17.1611 -52.2246
l-44.9697 32.2959l-44.9707 -32.2959l17.1611 52.2246zM559.417 399.176h4.67969c0.116211 -3.22559 0.231445 -6.45117 0.345703 -9.67676c17.832 0.624023 33.9521 8.13477 45.7686 19.9512c4.2959 4.2959 8.02246 9.16016 11.0566 14.4697l-7.48926 3.97363
l-0.920898 -1.45898l-45.9287 21.6699c-1.49805 -0.820312 -3.21875 -1.28711 -5.04688 -1.28711c-5.81055 0 -10.5205 4.70996 -10.5205 10.5205c0 4.44043 2.75098 8.2373 6.6416 9.78125v49.0566h1.08008v8.96484
c-9.18066 -0.432617 -35.3213 -3.97852 -52.8076 -29.5156c2.63086 -1.51855 5.26074 -3.03711 7.89062 -4.55566l-2.7002 -4.67676c-2.6875 1.55176 -5.37598 3.10352 -8.06348 4.65527c-5.7002 -9.93457 -8.95996 -21.4443 -8.95996 -33.7119
c0 -11.9639 3.12012 -23.2227 8.59082 -33.0029c2.78125 1.60547 5.56152 3.21094 8.34277 4.81641l2.7002 -4.67676l-8.2207 -4.74609c11.751 -17.5752 31.4648 -29.3838 53.9062 -30.2227c-0.115234 3.22363 -0.229492 6.44824 -0.344727 9.67188zM636.543 457.337
c0 -40.9678 -33.25 -74.2188 -74.2207 -74.2188c-40.9697 0 -74.2197 33.251 -74.2197 74.2207c0 40.7285 33.0527 73.9736 73.7783 74.2188h0.148438c40.9746 0 74.3506 -33.2539 74.5137 -74.2207zM564.482 525.183v-9.00684h0.707031l1.77246 -49.624
c2.87695 -1.58984 4.92969 -4.48633 5.35742 -7.88965l45.2324 -24.7939l-1.26758 -2.00781l7.16309 -3.80176c4.28809 8.86816 6.71094 18.7979 6.75586 29.2812c0 12.6631 -3.47363 24.5166 -9.51855 34.665c-2.61719 -1.6377 -5.23535 -3.27734 -7.85254 -4.91504
l-2.34082 4.05371c2.55371 1.59863 5.1084 3.19727 7.66211 4.7959c-5.2373 7.55762 -22.3916 28.2637 -53.6709 29.2432zM578.442 83.499c-0.610352 -0.0126953 -1.60059 -0.0234375 -2.21094 -0.0234375c-17.3193 0 -43.1543 7.66895 -57.5605 17.2813
c-15.3428 10.2383 -27.7939 33.5146 -27.7939 51.959c0 0.254883 0.00683594 0.669922 0.00683594 0.924805v167.359h7.91602v-167.28c0 -42.6699 41.2461 -62.3037 79.6426 -62.3037c38.3945 0 79.6406 19.4746 79.6406 62.2246v167.359h7.91699v-167.28
c0 -48.1338 -45.3711 -69.3877 -87.5576 -70.2207z" />
  </g>

</svg>
