<?xml version="1.0" standalone="no"?>
<!DOCTYPE svg PUBLIC "-//W3C//DTD SVG 1.1//EN" "http://www.w3.org/Graphics/SVG/1.1/DTD/svg11.dtd" >
<svg xmlns="http://www.w3.org/2000/svg" xmlns:xlink="http://www.w3.org/1999/xlink" version="1.1" viewBox="-10 0 809 1000">
  <g transform="matrix(1 0 0 -1 0 800)">
   <path fill="currentColor"
d="M181.605 743.027l-1.36523 25.9355l381.291 1.81934l-0.758789 -27.7549h-379.167zM183.556 629.277l-2.27441 29.6768l381.289 -1.82031l0.152344 -27.8564h-379.167zM341.604 238.074c-17.8652 11.6465 -39.9736 26.0469 -49.1309 32.0029
c-9.15625 5.95605 -19.6631 12.8701 -23.3496 15.3643l-6.70215 4.53613l-18.5283 55.748l-18.5293 55.748l6.16406 61.4873c3.38965 33.8164 6.53027 62.0781 6.97754 62.8037c0.448242 0.723633 24.3916 12.9492 53.2061 27.166l52.3936 25.8506l13.6318 1.44043
c7.49805 0.792969 22.751 2.41895 33.8994 3.61621c41.665 4.47266 32.3018 6.2041 76.001 -14.0527l38.3623 -17.7852l29.3145 -46.8291c16.123 -25.7559 -5.0918 -78.4492 -5.0918 -79.9932s68.79 -52.5986 58.5 -85.8008
c-10.292 -33.2041 -34.0127 -73.8574 -37.7002 -85.7998c-3.68848 -11.9434 -32.5898 -9.15918 -33.7998 -11.7002c-1.7002 -3.56934 -1.69727 -1.86426 -55.9004 5.2002c-16.499 2.15039 -34.0391 -6.71484 -40.0098 -9.52051
c-20.916 -9.8291 -45.1152 -20.6553 -46.1631 -20.6553c-0.583008 0 -15.6777 9.52734 -33.5449 21.1729zM472.271 -166.871h-193.064v331.997h193.064v-154.129l152 -3l3.04004 -41h-155.04v-133.868z" />
  </g>

</svg>
