<?xml version="1.0" standalone="no"?>
<!DOCTYPE svg PUBLIC "-//W3C//DTD SVG 1.1//EN" "http://www.w3.org/Graphics/SVG/1.1/DTD/svg11.dtd" >
<svg xmlns="http://www.w3.org/2000/svg" xmlns:xlink="http://www.w3.org/1999/xlink" version="1.1" viewBox="-10 0 1008 1000">
  <g transform="matrix(1 0 0 -1 0 800)">
   <path fill="currentColor"
d="M865.474 356.717c0.357422 0.0146484 22.9482 0.00195312 22.9541 0.0136719c-6.95801 29.1855 -5.00293 38.583 -2.46484 46.7715c0.0234375 0.0742188 1.9873 6.86328 2.25488 7.39844l16.4111 32.8232c-8.39941 130.199 -8.39941 130.199 -8.35254 130.759
c2.75977 32.7568 5.16602 70.9658 2.35254 95.4404c-7.31445 29.0498 -25.4619 22.9199 -29.7012 13.6279c-1.49805 -3.2832 -3.18652 -3.66992 -7.54395 -4.66797c-3.38672 -3.03027 -8.71387 -2.36719 -11.248 1.44824c-3.17578 4.7832 -17.8672 27.5342 -18.2539 28.29
c-5.31348 10.4062 -25.8096 16.8076 -29.7266 -3.79199c-0.141602 -0.744141 -0.141602 -0.744141 -7.1377 -17.7969c-2.60645 -6.35254 -11.7949 -6.08887 -14.0283 0.407227l-13.1602 38.2842c-3.51855 10.2344 -25.4688 18.4072 -37.0654 -0.974609
c-0.213867 -0.637695 -1.7793 -5.38477 -10.2412 -31.9248c-1.83984 -5.76953 -9.5166 -7.08789 -13.165 -2.18555c-10.8252 14.5449 -10.8252 14.5449 -11.0156 14.7363c-0.0712891 0.0722656 -12.3633 12.3428 -19.3271 5.37891
c-3.81348 -3.81348 -5.96973 -13.123 -6.91992 -18.832c0.0273438 -0.855469 0.197266 -5.9082 1.13477 -30.4121c0.558594 -15.2588 1.2373 -47.8682 1.25098 -48.3516c4.46387 -31.8115 2.39941 -32.8047 4.71973 -49.8242
c0.169922 -0.655273 1.45605 -5.61523 8.14062 -30.918c0.0654297 -0.248047 0.675781 -14.4141 -1.26172 -17.708c-4.76465 -8.09961 -5.0957 -8.66211 -8.23926 -9.38184c-12.4404 -2.85059 -16.377 -0.344727 -20.584 5.49219
c-2.16309 3.00195 -16.8799 17.751 -18.3594 19.458l-30.8398 35.585c-0.833984 0.550781 -5.11328 3.35449 -17.9883 11.5107c-0.75293 0.227539 -4.35645 1.30469 -15.2393 4.35156c-3.04199 -1.66992 -6.66895 -0.663086 -9.4209 -3.41406
c-1.99609 -1.99707 -4.29883 -8.68457 -3.56641 -12.4717l17.0137 -22.8818c3.27832 -3.07227 20.6953 -18.2549 21.5488 -19.2861c25.4248 -30.7471 25.4248 -30.7471 25.5479 -30.9131c18.4775 -25.0332 18.4775 -25.0332 18.6162 -25.251
c16.6611 -26.1826 16.6611 -26.1826 16.8965 -26.7285l12.8682 -29.8311c3.55566 -5.51074 17.2988 -26.2471 17.667 -26.9463c5.79004 -11.002 5.79004 -11.002 6.00781 -11.916c4.30859 -18.0547 34.8213 -18.9531 35.2217 -18.9609l33.375 -0.595703zM888.43 341.727
h-22.4863c-101.159 -4.20215 -101.159 -4.20215 -101.384 -4.19824l-33.6152 0.600586c-5.33789 0.100586 -41.7754 1.80469 -49.2754 29.4863l-4.77539 9.07227c-17.4756 26.5107 -17.1787 25.6328 -18.2354 28.084l-12.7295 29.5078l-15.8848 24.9619l-18.0488 24.4531
l-24.7852 29.9736c-21.293 18.8584 -21.293 18.8584 -22.2285 20.1162l-17.3994 23.3994c-6.20801 8.34766 -1.87402 24.6377 5.21973 31.7314c4.15918 4.16016 8.08203 5.43066 13.8965 6.50098c3.2168 1.4375 6.83691 1.68652 10.1934 0.74707
c15.8311 -4.43262 16.1748 -4.19824 18.957 -5.96094c16.9873 -10.7588 18.2764 -11.165 20.709 -13.5977c0.28418 -0.28418 -0.364258 -0.876953 31.5498 -36.3594c16.6279 -18.4873 17.2764 -17.8936 19.6641 -21.1299
c0.394531 0.0361328 0.936523 0.102539 1.62012 0.213867l0.803711 1.36621l0.358398 8.9668c-7.99902 30.2666 -7.91016 29.4307 -8.18066 31.4062c-2.5 18.1982 -0.301758 18.458 -4.79297 50.3486c-0.0693359 0.491211 -0.967773 39.4336 -1.33594 49.5156
c-1.2002 31.332 -1.4873 30.0967 -1.01953 32.9951c1.46094 9.0498 4.82617 29.9062 22.4473 33.6221c14.6504 3.09082 28.8525 -10.6641 30.8008 -13.2822l2.18164 -2.93164c5.85547 18.5771 5.66699 18.4531 7.04004 20.7871
c18.1348 30.8447 56.6865 20.6885 64.3164 -1.50781l6.43848 -18.7295c8.98145 30.1807 45.1074 25.6865 56.6025 3.92773c0.134766 -0.207031 12.9131 -20.0605 13.3945 -20.8027c12.6084 16.2969 44.5381 19.0449 54.7246 -21.4062
c0.162109 -0.645508 0.28125 -1.29883 0.357422 -1.95703c3.07031 -26.7236 0.506836 -64.9395 -2.26074 -97.873l8.32715 -129.079c0.169922 -2.62305 -0.34668 -5.28223 -1.54785 -7.68457l-16.0479 -32.0957c-0.461914 -1.78906 -1.00195 -3.5752 -1.71289 -5.87109
c-1.99805 -6.44531 -4.10645 -10.1582 2.72949 -38.8232c2.24707 -9.42285 -4.89453 -18.4941 -14.5859 -18.4941zM332.481 97.6934l-82.2217 148.848l24.0225 10.1475l58.4395 -100.383l53.3027 101.418l27.2285 -11.0254zM249.568 -67.707v34.6641h38.626v22.0713h-38.626
v34.6641h38.626v33.7148h31.3828v-33.7148h23.2197v31.2539h31.3828v-31.2539h41.292v-34.6641h-41.292v-22.0713h41.292v-34.6641h-41.292v-36.1855h-31.3828v36.1855h-23.2197v-33.7246h-31.3828v33.7246h-38.626zM319.577 -33.043h23.2197v22.0713h-23.2197v-22.0713z
M764.659 223.904c-0.529297 0 -0.985352 0.173828 -1.32227 0.358398l-214.094 -88.2627v-37.8242c12.126 5.10742 24.251 10.2148 36.376 15.3213v-3.77051l-0.21875 -161.659h318.305l0.646484 155.446c10.9619 -6.48535 21.9238 -12.9697 32.8867 -19.4551
l-0.677734 40.7051l-136.33 79.1182l1.46387 0.616211c-22.6963 11.7715 -24.457 12.7314 -36.2109 19.5508c-0.288086 -0.102539 -0.56543 -0.144531 -0.824219 -0.144531zM868.594 -16.7148h-248.003l-0.665039 144.662l142.009 59.8174l107.859 -63.8086z
M38.3545 -39.4795h55.5146l17.1611 52.2256l17.1602 -52.2256h55.5156l-44.8672 -32.2959l17.1611 -52.2246l-44.9697 32.2959l-44.9707 -32.2959l17.1611 52.2246zM256 687.866c110.666 0 200.8 -73.4658 200.8 -163.867c0 -90.3994 -90.1338 -163.999 -200.8 -163.999
s-200.8 73.4668 -200.8 163.866c0 90.4004 90.1338 164 200.8 164zM256 373.333c103.333 0 187.467 67.4668 187.467 150.533s-84.1338 150.667 -187.467 150.667s-187.467 -67.4668 -187.467 -150.534c0 -83.0664 84.1338 -150.666 187.467 -150.666zM161.2 515.866
l-13.333 -3.06641c26.2637 -107.005 187.915 -102.428 216.399 0l-13.334 3.7334c-25.4326 -89.9453 -165.471 -94.0918 -189.732 -0.666992zM297.6 605.439c0 10.0801 7.2002 18.2402 16.3203 18.2402s16.3203 -8.16016 16.3203 -18.2402
s-7.2002 -18.2393 -16.3203 -18.2393s-16.3203 8.15918 -16.3203 18.2393zM181.439 606.4c0 9.59961 7.2002 17.2793 16.3203 17.2793c9.12109 0 16.3203 -7.67969 16.3203 -17.2793c0 -9.60059 -7.19922 -17.2812 -16.3203 -17.2812
c-9.12012 0 -16.3203 7.68066 -16.3203 17.2812z" />
  </g>

</svg>
