<?xml version="1.0" standalone="no"?>
<!DOCTYPE svg PUBLIC "-//W3C//DTD SVG 1.1//EN" "http://www.w3.org/Graphics/SVG/1.1/DTD/svg11.dtd" >
<svg xmlns="http://www.w3.org/2000/svg" xmlns:xlink="http://www.w3.org/1999/xlink" version="1.1" viewBox="-10 0 1051 1000">
  <g transform="matrix(1 0 0 -1 0 800)">
   <path fill="currentColor"
d="M271 608l-12 60c128.725 89.7881 355.203 55.3633 442.457 48.5605c0 -0.0107422 0.000976562 -0.0214844 0.000976562 -0.0322266c27.4463 0.582031 75.1855 -1.32129 107.268 -33.4033c40.1396 -40.1396 38.6152 -108.841 37.5254 -169.365
c-0.395508 -21.9258 -0.433594 -33.2402 -0.22168 -41.9463c26.3789 -43.8281 72.168 -89.959 89.3252 -129.607c6.95117 -16.0635 5.49219 -24.7637 2.64551 -40.2051l-12 -14l-79.501 -63.5771v-212.431c1.93945 -31.0869 1.82422 -79.2412 -27.416 -108.48
c-26.0322 -26.0322 -182.507 -12.0195 -220.584 -13.0049l-2.90137 0.0126953c-103.732 -7.2998 -296.108 50.6025 -326.603 92.1719c-18.5059 25.2275 -31.4014 41.2529 -57.9951 55.3086v70.0371c25.8174 -16.2627 49.624 -17.8066 70.1904 -60.6357
c44.2188 -92.082 349.455 -105.734 451.309 -108.438l-0.499023 -0.962891c50 12 34.1514 4.48145 42.5352 13.5361c19.1768 20.7119 3.97852 41.9688 5.50781 57.9648h-0.541992v2.14941c-0.253906 0.990234 -0.500977 1.94141 -0.738281 2.84863h0.738281v207.174v3.4873
v1.33887h1.58203l104 88h1.13281c4.9834 45.8955 -62.8379 92.1289 -94.2158 139.501l-3 4l-1 1c-2.02051 3.99219 0.0439453 4.02539 -2.08398 11.5605c-0.0371094 0.130859 -0.189453 0.24707 -0.174805 0.367188l0.258789 2.07227l0.0644531 1.49902
c0.00976562 0.226562 0.150391 3.89551 0.242188 6.24414c3.11426 79.1523 14.1973 176.389 -74.8154 176.771c-136.35 16.7461 -373.536 9.53418 -431.49 -46.5137zM30.3545 728.521h55.5146l17.1611 52.2256l17.1602 -52.2256h55.5156l-44.8672 -32.2959l17.1611 -52.2246
l-44.9697 32.2959l-44.9707 -32.2959l17.1611 52.2246zM550 83c-0.484375 -0.0107422 -1.27051 -0.0195312 -1.75488 -0.0195312c-13.752 0 -34.2695 6.51465 -45.7051 14.6709c-12.1826 8.68945 -22.0693 28.4502 -22.0693 44.1074
c0 0.216797 0.00488281 0.568359 0.00488281 0.785156v142.071h6.28613v-142.004c0 -36.2236 32.75 -52.8896 63.2383 -52.8896c30.4873 0 63.2383 16.5313 63.2383 52.8223v142.071h6.28613v-142.004c0 -40.8604 -36.0273 -58.8682 -69.5244 -59.6113zM647.56 322.403
l-206.1 0.579102v11.4619h184.79v65.084h-184.79v11.4619l204.268 -0.964844zM544.763 458.509c-70.9746 0 -128.731 24.9004 -128.731 55.5166s57.7568 55.5166 128.731 55.5166c70.9746 0 128.731 -24.9004 128.731 -55.5166s-57.7568 -55.5166 -128.731 -55.5166z
M544.763 563.477c-66.2539 0.234375 -120.15 -22.043 -120.15 -49.4512s53.8965 -49.6855 120.15 -49.6855s120.149 22.2773 120.149 49.6855s-53.8955 49.6855 -120.149 49.6855v-0.234375z" />
  </g>

</svg>
