<?xml version="1.0" standalone="no"?>
<!DOCTYPE svg PUBLIC "-//W3C//DTD SVG 1.1//EN" "http://www.w3.org/Graphics/SVG/1.1/DTD/svg11.dtd" >
<svg xmlns="http://www.w3.org/2000/svg" xmlns:xlink="http://www.w3.org/1999/xlink" version="1.1" viewBox="-10 0 1030 1000">
  <g transform="matrix(1 0 0 -1 0 800)">
   <path fill="currentColor"
d="M828.399 483.872c0 9.49878 0.360099 25.4826 0.360099 28.905l-0.318652 61.3747l-8.69455 54.78l-24.0577 41.7601l-29.8355 19.1251l-33.9409 8.02542l-47.9505 1.85133v0.765382l-107.704 8.96128l-161.614 -4.8437l-135.511 -48.0118l4.97421 -24.8711
l90.1513 34.2037l168.519 13.9909l163.859 -8.05849l72.0585 -32.0852l24.6852 -76.5829c-11.2968 -92.7231 -11.5388 -94.7093 -10.6225 -98.1968c0.272553 -1.03738 0.408327 -1.98777 0.495372 -2.92219c0.487753 -0.641757 1.13403 -1.58506 1.4862 -2.05622
l30.4464 -40.7334l38.0432 -60.0682l23.93 -33.502l-96.7113 -80.2498l-3.19974 -219.288c0.962733 -7.56244 2.78458 -22.0112 5.01798 -45.877c-0.12894 -0.269919 -9.65147 -20.9678 -12.8349 -27.02c-1.80565 -3.43278 -3.36365 -6.39475 -8.94453 -11.1259
c-28.726 -6.87192 -37.6748 -9.01268 -53.7943 -9.01268c-3.38415 0 -6.77838 0.14333 -10.1737 0.446144l-127.95 -3.2205l-189.706 31.9736l-119.91 72.0259l-21.8729 31.5454c-0.18608 0.126152 -14.9542 10.3475 -18.5829 12.6523v-31.4635
c5.41685 -3.87145 13.5068 -7.36272 24.4398 -17.2503c7.32645 -6.62591 2.09556 -4.45645 10.6241 -11.9264c1.03002 -0.902171 1.03002 -0.902171 17.2005 -21.8062l70.2643 -41.1391l123.979 -35.7692l40.8353 -3.74581
c52.8258 -4.90757 59.0669 -6.73248 83.0467 -7.42728l68.08 -1.97257l89.7606 0.254271l51.1066 12.4914l15.1376 25.2075l6.27671 34.16l-0.268638 82.9487l0.0291888 84.2282l-0.00582149 87.5189l84.7837 67.8016l7.68593 8.96692l1.11464 7.19504
c0.44913 7.61262 -1.52476 12.8022 -3.31214 18.1783l-23.3304 38.8443l-33.0243 43.448l-34.3179 48.9016c-0.202711 16.1296 -0.202711 16.1296 -0.202711 17.6951zM33.2949 712.521h55.5146l17.1611 52.2256l17.1602 -52.2256h55.5156l-44.8672 -32.2959
l17.1611 -52.2246l-44.9697 32.2959l-44.9707 -32.2959l17.1611 52.2246zM621.734 274.906c0 15.4341 3.48523 25.4152 3.48523 53.2249c0 12.2123 0 12.2123 -3.76217 13.0494c-2.28186 0.507747 -3.90613 2.53197 -3.90613 4.87107
c0 2.75925 2.22439 4.98576 4.96317 5.00458l85.4958 0.587683l-0.832383 23.3176l-421.554 -3.49093v-22.7313s115.757 0.795985 115.792 0.796105c5.02073 0 5.02073 -3.78575 5.02073 -10.6061c0 -84.6944 -15.608 -107.893 -56.5575 -161.066l14.4442 -11.4342
c26.239 30.8567 42.5422 65.5568 43.1032 66.1119c0.973886 0.963604 2.24523 1.44462 3.5161 1.44462c0.373944 0 3.3865 -0.0941657 4.62115 -3.08881c11.6753 -28.3184 21.8753 -39.9831 44.1306 -64.2774c4.65766 3.19121 9.57865 6.1191 13.8808 9.66586
c-0.0808095 0.0769148 -6.75069 6.3457 -8.08852 7.68352c-10.0422 10.0422 -37.8233 41.0334 -42.537 82.4766c-1.12657 1.41855 -1.135 2.49811 -1.135 6.08627c0 15.4318 3.48422 25.4148 3.48422 53.2269c0 4.05497 -0.0936378 8.35666 -0.0936378 8.44108
c0 1.72734 0 1.72734 0.902443 7.50075c-0.555911 0.114545 -1.36166 0.239244 -2.45741 0.315462c-2.61979 0.182226 -4.6487 2.35784 -4.6487 4.98303c0 2.72167 2.18209 5.001 5.02904 5.00078l177.344 -1.09005c4.98281 -0.0306102 4.98281 -4.02963 4.98281 -9.64631
c0 -84.6526 -15.6177 -107.862 -56.5586 -161.02l14.4446 -11.434c26.2478 30.87 42.5435 65.5578 43.1046 66.1129c0.973879 0.963555 2.24519 1.44454 3.51602 1.44454c0.373941 0 3.38654 -0.0941689 4.62117 -3.08886
c11.6804 -28.3318 21.9276 -40.0482 44.126 -64.2733c3.37353 2.2641 5.95448 4.0211 7.87375 5.34697c0.231197 1.13988 0.37354 1.84167 4.86954 4.87389c-1.71991 1.89534 -1.71991 1.89534 -6.9444 7.11983c-10.0384 10.0384 -37.8252 41.0334 -42.5398 82.4789
c-1.12658 1.41749 -1.13598 2.49312 -1.13598 6.08245zM500.981 448.646c-0.56582 0 -2.98999 0.143791 -4.34663 2.52488l-56.1931 98.6262l-11.2629 -4.25933l71.5544 -129.535l70.8917 130.779l-11.7006 7.89218c-4.93868 -9.36325 -54.527 -103.657 -55.3496 -104.506
c-0.980153 -1.01244 -2.28591 -1.52127 -3.59325 -1.52127z" />
  </g>

</svg>
