<?xml version="1.0" standalone="no"?>
<!DOCTYPE svg PUBLIC "-//W3C//DTD SVG 1.1//EN" "http://www.w3.org/Graphics/SVG/1.1/DTD/svg11.dtd" >
<svg xmlns="http://www.w3.org/2000/svg" xmlns:xlink="http://www.w3.org/1999/xlink" version="1.1" viewBox="-10 0 1051 1000">
  <g transform="matrix(1 0 0 -1 0 800)">
   <path fill="currentColor"
d="M30.3242 741.553h55.5146l17.1611 52.2256l17.1602 -52.2256h55.5156l-44.8672 -32.2959l17.1611 -52.2246l-44.9697 32.2959l-44.9707 -32.2959l17.1611 52.2246zM271 608l-12 60c128.725 89.7881 355.203 55.3633 442.457 48.5605
c0 -0.0107422 0.000976562 -0.0214844 0.000976562 -0.0322266c27.4463 0.582031 75.1855 -1.32129 107.268 -33.4033c40.1396 -40.1396 38.6152 -108.841 37.5254 -169.365c-0.395508 -21.9258 -0.433594 -33.2402 -0.22168 -41.9463
c26.3789 -43.8281 72.168 -89.959 89.3252 -129.607c6.95117 -16.0635 5.49219 -24.7637 2.64551 -40.2051l-12 -14l-79.501 -63.5771v-212.431c1.93945 -31.0869 1.82422 -79.2412 -27.416 -108.48c-26.0322 -26.0322 -182.507 -12.0195 -220.584 -13.0049
l-2.90137 0.0126953c-103.732 -7.2998 -296.108 50.6025 -326.603 92.1719c-18.5059 25.2275 -31.4014 41.2529 -57.9951 55.3086v70.0371c25.8174 -16.2627 49.624 -17.8066 70.1904 -60.6357c44.2188 -92.082 349.455 -105.734 451.309 -108.438l-0.499023 -0.962891
c50 12 34.1514 4.48145 42.5352 13.5361c19.1768 20.7119 3.97852 41.9688 5.50781 57.9648h-0.541992v2.14941c-0.253906 0.990234 -0.500977 1.94141 -0.738281 2.84863h0.738281v207.174v3.4873v1.33887h1.58203l104 88h1.13281
c4.9834 45.8955 -62.8379 92.1289 -94.2158 139.501l-3 4l-1 1c-2.02051 3.99219 0.0439453 4.02539 -2.08398 11.5605c-0.0371094 0.130859 -0.189453 0.24707 -0.174805 0.367188l0.258789 2.07227l0.0644531 1.49902
c0.00976562 0.226562 0.150391 3.89551 0.242188 6.24414c3.11426 79.1523 5.19727 173.389 -83.8154 173.771c-136.35 16.7461 -373.536 9.53418 -431.49 -46.5137zM451.534 513.065zM451.357 510.973zM577.115 489.189c0 16.3984 -5.64746 31.3184 -18.6787 44.3496
c-7.37402 7.37402 -14.8213 11.8936 -21.7969 14.6406l-19.7988 7.79883c24.4551 -4.22461 24.4551 -4.22461 27.667 -5.18262c0.352539 0.120117 0.814453 0.21582 1.27734 0.129883c30.209 -5.56445 53.1309 -19.0186 69.5479 -35.4365
c8.50586 -8.50488 14.3389 -16.6338 19.7686 -26.04c-14.1533 -24.5684 -38.3496 -52.2852 -90.5752 -61.5918l-11.2266 -2c10.1475 6.22754 15.8057 9.28027 25.415 19.0703c13.3291 13.3301 18.4004 28.5322 18.4004 44.2617zM512.579 439.937
c-13.7783 0 -25.8867 4.7207 -35.9023 14.7383c-14.5625 14.5625 -17.6855 34.1221 -11.2627 51.9033l0.746094 2.06543l0.496094 -0.18457c10.0957 14.8994 10.0957 14.8994 10.6865 15.7598c15.7773 10.3291 15.7773 10.3291 15.9863 10.3555
c11.1416 4.68555 35.1455 8.95117 55.2559 -11.1602c9.99902 -9.99902 14.2451 -21.6318 14.2881 -34.0391c0 -8.61914 -1.8252 -21.9092 -14.29 -34.374c-5.85156 -5.85059 -16.9883 -15.0645 -36.0039 -15.0645zM660.352 489.447
c-7.75098 13.7568 -45.459 80.0391 -144.779 80.0391c-59.7295 0 -97.1895 -23.8838 -119.429 -46.1221c-9.4707 -9.4707 -17.6426 -19.8447 -25.666 -33.916c7.09668 -12.4404 15.001 -23.1621 24.9395 -33.1006c36.8848 -36.8848 82.2354 -46.7451 120.155 -46.7451
c18.2344 0 74.4033 1.16113 119.892 46.6484c13.0098 13.0107 20.7979 25.9121 24.8877 33.1963zM486.645 546.881c-5.94336 -2.23535 -15.25 -8.12402 -18.8691 -11.7441c-4.83691 -4.83594 -4.83691 -4.83594 -5.94238 -6.68066
c-0.927734 -1.54785 -1.12891 -1.74219 -2.33887 -2.83398c-1.70215 -1.53711 -2.27344 -2.23242 -2.91211 -3.86035c-0.500977 -1.27539 -3.50098 -6.70801 -4.3418 -9.0459c0.112305 -0.547852 0.0332031 -1.0918 -0.113281 -1.47656
c-6.84668 -17.9248 -7.17969 -44.8545 14.2676 -66.3018c5.57031 -5.57031 11.376 -9.46094 16.9512 -12.1963l15.3262 -7.51855l-16.7266 3.42676c-30.8389 6.31836 -52.167 20.5557 -66.4404 34.8301c-8.46973 8.46973 -14.3574 16.6045 -19.7822 25.9678
c10.1836 17.6494 32.8857 51.2754 89.7598 61.6172zM507.417 296.348c57.6387 0 104.583 -38.2646 104.583 -85.3477s-46.9443 -85.417 -104.583 -85.417c-57.6387 0 -104.583 38.2646 -104.583 85.3477c0 47.083 46.9443 85.417 104.583 85.417zM507.417 132.527
c53.8193 0 97.6387 35.1396 97.6387 78.4033c0 43.2637 -43.8193 78.4717 -97.6387 78.4717c-53.8193 0 -97.6387 -35.1387 -97.6387 -78.4023s43.8193 -78.4727 97.6387 -78.4727zM458.042 206.764l-6.94434 -1.59668c13.6787 -55.7314 97.8721 -53.3477 112.708 0
l-6.94434 1.94434c-13.2461 -46.8467 -86.1826 -49.0068 -98.8193 -0.347656z" />
  </g>

</svg>
