<?xml version="1.0" standalone="no"?>
<!DOCTYPE svg PUBLIC "-//W3C//DTD SVG 1.1//EN" "http://www.w3.org/Graphics/SVG/1.1/DTD/svg11.dtd" >
<svg xmlns="http://www.w3.org/2000/svg" xmlns:xlink="http://www.w3.org/1999/xlink" version="1.1" viewBox="-10 0 1051 1000">
  <g transform="matrix(1 0 0 -1 0 800)">
   <path fill="currentColor"
d="M828.399 483.872c0 9.49878 0.360099 25.4826 0.360099 28.905l-0.318652 61.3747l-8.69455 54.78l-24.0577 41.7601l-29.8355 19.1251l-33.9409 8.02542l-47.9505 1.85133v0.765382l-107.704 8.96128l-161.614 -4.8437l-135.511 -48.0118l4.97421 -24.8711
l90.1513 34.2037l168.519 13.9909l163.859 -8.05849l72.0585 -32.0852l24.6852 -76.5829c-11.2968 -92.7231 -11.5388 -94.7093 -10.6225 -98.1968c0.272553 -1.03738 0.408327 -1.98777 0.495372 -2.92219c0.487753 -0.641757 1.13403 -1.58506 1.4862 -2.05622
l30.4464 -40.7334l38.0432 -60.0682l23.93 -33.502l-96.7113 -80.2498l-3.19974 -219.288c0.962733 -7.56244 2.78458 -22.0112 5.01798 -45.877c-0.12894 -0.269919 -9.65147 -20.9678 -12.8349 -27.02c-1.80565 -3.43278 -3.36365 -6.39475 -8.94453 -11.1259
c-28.726 -6.87192 -37.6748 -9.01268 -53.7943 -9.01268c-3.38415 0 -6.77838 0.14333 -10.1737 0.446144l-127.95 -3.2205l-189.706 31.9736l-119.91 72.0259l-21.8729 31.5454c-0.18608 0.126152 -14.9542 10.3475 -18.5829 12.6523v-31.4635
c5.41685 -3.87145 13.5068 -7.36272 24.4398 -17.2503c7.32645 -6.62591 2.09556 -4.45645 10.6241 -11.9264c1.03002 -0.902171 1.03002 -0.902171 17.2005 -21.8062l70.2643 -41.1391l123.979 -35.7692l40.8353 -3.74581
c52.8258 -4.90757 59.0669 -6.73248 83.0467 -7.42728l68.08 -1.97257l89.7606 0.254271l51.1066 12.4914l15.1376 25.2075l6.27671 34.16l-0.268638 82.9487l0.0291888 84.2282l-0.00582149 87.5189l84.7837 67.8016l7.68593 8.96692l1.11464 7.19504
c0.44913 7.61262 -1.52476 12.8022 -3.31214 18.1783l-23.3304 38.8443l-33.0243 43.448l-34.3179 48.9016c-0.202711 16.1296 -0.202711 16.1296 -0.202711 17.6951zM30.3242 741.553h55.5146l17.1611 52.2256l17.1602 -52.2256h55.5156l-44.8672 -32.2959
l17.1611 -52.2246l-44.9697 32.2959l-44.9707 -32.2959l17.1611 52.2246zM632.798 403.503l-58.9502 -59.5361l64.1523 -58.9668l-8.35254 -6.95703l-64.2236 59.1211l-58.0859 -59.1211l-6.06641 6.63281l57.3486 58.3193l-56.376 58.6445l7.45215 7.12793
l57.0244 -56.7002l59.6152 57.0234zM606.702 226.451v-46.9795h5.54395v46.9795h-5.54395zM562.566 227.64v-36.1797h4.85938v36.1797h-4.85938zM524.244 227.64l5.93945 -0.288086v-45.3604l-5.93945 0.288086v45.3604zM567.75 193.205
c41.5078 0 75.2939 -27.5576 75.2939 -61.4512c0 -33.8945 -33.8047 -61.5068 -75.2939 -61.5068s-75.2939 27.5576 -75.2939 61.4707c0 33.9121 33.8047 61.4873 75.2939 61.4873zM638.059 131.699c0 31.1406 -31.5557 56.4775 -70.3086 56.1416
c-37.2539 -0.322266 -70.0625 -25.3389 -70.29 -56.4473c-0.228516 -31.1572 31.5537 -56.1426 70.29 -56.1426c38.7539 0 70.3086 25.3086 70.3086 56.4482zM532.2 128.712c9.1084 -35.0293 61.6143 -33.4805 71.1357 0.250977l5.00391 -1.40332
c-10.6738 -38.4121 -71.2979 -40.1221 -81.1436 0zM563.093 456.14l-74.8486 135.5l8.63965 3.64941l66.96 -115.02l61.0195 116.1l11.6797 -4.72949z" />
  </g>

</svg>
