<?xml version="1.0" standalone="no"?>
<!DOCTYPE svg PUBLIC "-//W3C//DTD SVG 1.1//EN" "http://www.w3.org/Graphics/SVG/1.1/DTD/svg11.dtd" >
<svg xmlns="http://www.w3.org/2000/svg" xmlns:xlink="http://www.w3.org/1999/xlink" version="1.1" viewBox="-10 0 1046 1000">
  <g transform="matrix(1 0 0 -1 0 800)">
   <path fill="currentColor"
d="M509.213 348.987zM508.93 345.64zM710.143 310.786c0 26.2373 -9.03516 50.1104 -29.8857 70.96c-11.7988 11.7988 -23.7139 19.0293 -34.875 23.4248l-31.6787 12.4775c39.1289 -6.75879 39.1289 -6.75879 44.2676 -8.29297
c0.564453 0.193359 1.30371 0.345703 2.04297 0.208984c48.335 -8.9043 85.0098 -30.4297 111.277 -56.6992c13.6084 -13.6074 22.9414 -26.6133 31.6289 -41.6631c-22.6436 -39.3105 -61.3594 -83.6572 -144.919 -98.5469l-17.9629 -3.2002
c16.2354 9.96387 25.2891 14.8486 40.6631 30.5127c21.3271 21.3271 29.4414 45.6504 29.4414 70.8184zM606.886 231.98c-22.0469 0 -41.4189 7.55371 -57.4453 23.582c-23.2988 23.2998 -28.2969 54.5957 -18.0195 83.0459l1.19336 3.30371l0.794922 -0.294922
c16.1523 23.8398 16.1523 23.8398 17.0977 25.2158c25.2441 16.5264 25.2441 16.5264 25.5771 16.5684c17.8271 7.49707 56.2334 14.3223 88.4111 -17.8564c15.998 -15.998 22.791 -34.6104 22.8604 -54.4609c0 -13.791 -2.9209 -35.0557 -22.8652 -55
c-9.36133 -9.36133 -27.1807 -24.1035 -57.6045 -24.1035zM843.32 311.199c-12.4014 22.0098 -72.7334 128.062 -231.646 128.062c-95.5674 0 -155.504 -38.2148 -191.085 -73.7949c-15.1553 -15.1543 -28.2295 -31.7529 -41.0664 -54.2656
c11.3545 -19.9062 24.001 -37.0605 39.9033 -52.9629c59.0146 -59.0146 131.576 -74.792 192.248 -74.792c29.1748 0 119.046 1.8584 191.826 74.6387c20.8164 20.8164 33.2764 41.459 39.8203 53.1143zM565.389 403.092
c-9.50977 -3.5752 -24.3994 -12.998 -30.1904 -18.7891c-7.73828 -7.73828 -7.73828 -7.73828 -9.50781 -10.6904c-1.48438 -2.47656 -1.80566 -2.78809 -3.74219 -4.53418c-2.72266 -2.45898 -3.6377 -3.57227 -4.65918 -6.17676
c-0.800781 -2.04004 -5.60156 -10.7334 -6.94727 -14.4727c0.179688 -0.876953 0.0546875 -1.74707 -0.181641 -2.36328c-10.9531 -28.6797 -11.4873 -71.7666 22.8291 -106.083c8.91211 -8.91211 18.2012 -15.1377 27.1221 -19.5137l24.5215 -12.0303l-26.7627 5.4834
c-49.3418 10.1084 -83.4668 32.8887 -106.305 55.7275c-13.5518 13.5527 -22.9717 26.5674 -31.6514 41.5498c16.293 28.2383 52.6182 82.04 143.616 98.5859zM30.3242 741.553h55.5146l17.1611 52.2256l17.1602 -52.2256h55.5156l-44.8672 -32.2959l17.1611 -52.2246
l-44.9697 32.2959l-44.9707 -32.2959l17.1611 52.2246zM804 631c0 -96.6865 68.0879 -173.199 99.375 -191.775l11.1992 -6.64941c-16.9434 -0.478516 1.18945 0.900391 -34.5742 -3.5752l-1.0752 1.36426c-22.0068 27.9238 -93.998 110.011 -106.903 207.233
c-0.657227 4.95117 0.0224609 9.79688 0.582031 18.2783c-1.38379 0.708984 -2.88672 1.4873 -4.52246 2.34082c-0.0283203 -1.83984 -0.322266 -3.81641 -0.0449219 -5.88867c33.3789 -249.661 97.5459 -216.742 97.5459 -216.742s6.91211 -4.29004 10.2793 -6.58594
h-32.8613c-44.1455 16.1279 -101.697 151.17 -101.697 222.331c0 8.73535 0.302734 15.3135 0.785156 20.6846c-60.6641 32.3369 -181.179 64.7012 -284.885 64.7012c-23.0527 0 -45.5234 -2.04883 -73.3945 -6.17773
c-32.3232 -4.78906 -32.3232 -4.78906 -70.6152 -21.2002c-18.916 -8.10645 -50.2139 -47.4062 -58.166 -66.7188c-7.02734 -17.0664 -9.0791 -30.2676 -9.0791 -45.8906c0 -22.332 3.62891 -44.376 3.62891 -77.1553c0 -8.99219 1.14648 -13.8564 1.14648 -20.1924
c0 -4.57031 -0.613281 -9.64551 -2.73242 -16.6025c-19.9492 -65.4795 -40.3174 -87.0479 -63.832 -110.183c-6.25977 -6.16016 -27.0508 -26.6172 -27.0508 -37.7881c0 -4.45605 0.882812 -6.9082 38.3447 -19.4531c55.9199 -18.7266 60.0254 -24.4102 60.0254 -90.9766
c0 -43.0117 2.70801 -110.013 2.70801 -151.731c0 -5.5 0.0820312 -11.3867 0.267578 -17.7666c0.50293 -17.292 16.4512 -45.3398 23.8975 -57.5352c1.19629 -0.303711 1.95996 -1.18164 1.95996 -1.18164c1.1543 -0.666992 2.48438 -1.60059 4.13477 -2.74414
c16.0508 -11.1162 22.0049 -13.1846 40.8428 -13.1846c24.0361 0 22.3457 4.21484 79.0615 4.21484c0.316406 0 6.94531 -0.00390625 7.01562 -0.00390625c14.7988 0 25.668 0.226562 52.1025 3.80078c20.2021 2.73242 38.8271 4.61572 56.5088 6.4043
c120.938 12.2334 201.711 24.1475 280.178 80.1953c2.23438 1.5957 5.14355 3.85352 8.45703 6.42773c12.6104 9.7959 33.0303 26.8994 48.1416 26.8994c8.16699 0 13.834 -4.95996 13.834 -14.165c0 -15.4473 -17.4082 -42.8486 -33.0938 -42.8486
c-1.16406 0 -1.56543 0.129883 -3.01758 0.129883c-22.6426 0 -44.3604 -36.5264 -79.4766 -51.29c-52.8857 -22.2344 -138.298 -27.127 -175.459 -33.71c-17.2549 -3.05664 -36.6504 -6.49316 -61.8809 -12.2393c-34.7246 -7.90918 -51.6299 -8.61133 -86.7539 -8.61133
c-0.251953 0 -22.7891 0.03125 -25.0811 0.03125c-11.3115 0 -32.6182 -0.123047 -32.9473 -0.123047c-40.7773 0 -82.5049 2.86621 -120.91 24.8125c-26.0957 14.9121 -27.9092 36.1035 -30.0449 61.0586c-0.477539 5.59082 -0.976562 11.3994 -1.75781 17.3906
c-1.96484 15.7158 -2.63672 29.7119 -2.63672 42.8916c0 28.6572 -4.27441 100.664 -4.27441 131.409c0 46.4277 -4.59863 49 -29.7539 58.8145c-27.3184 10.6582 -57.2148 13.2568 -70.834 26.876c-4.33008 4.33008 -6.66504 9.68945 -6.66504 16.1094
c0 4.7959 1.30371 10.1846 4.05176 16.1768c36.4951 79.5967 68.6367 70.0742 91.3711 139.761c5.20312 15.9443 6.93652 32.2529 6.93652 48.6797c0 32.5635 -6.77832 65.1611 -6.77832 95.8125c0 47.6494 17.2412 68.3838 35.0508 86.1934
c66.2422 66.2412 143.674 66.3555 238.901 66.3555h0.988281c82.8154 0 190.135 -23.3467 246.021 -49.8477c43.5547 -20.6533 21.8506 -15.7109 32.4561 -16.8408c11.3984 -1.2168 39 -13 47.5039 -30.4053c4.31641 -8.83496 -4.12305 -21.668 -4.50391 -29.5947
c-0.257812 -5.36523 2 -14.3428 2 -20z" />
  </g>

</svg>
