<?xml version="1.0" standalone="no"?>
<!DOCTYPE svg PUBLIC "-//W3C//DTD SVG 1.1//EN" "http://www.w3.org/Graphics/SVG/1.1/DTD/svg11.dtd" >
<svg xmlns="http://www.w3.org/2000/svg" xmlns:xlink="http://www.w3.org/1999/xlink" version="1.1" viewBox="-10 0 1022 1000">
  <g transform="matrix(1 0 0 -1 0 800)">
   <path fill="currentColor"
d="M624.216 674l20.7842 -12l-133 -222l-20.7842 12zM583.97 441.57c-11.2529 0.382812 -20.7754 7.52148 -20.7754 22.0723c0 4.03711 0.275391 4.36133 7.3877 33.6191c5.0127 20.0752 12.666 50.7266 40.0088 50.7266c27.4844 0 35.3457 -31.6709 39.7666 -49.4766
c7.37891 -30.6689 7.63086 -30.8496 7.63086 -34.8594c0 -13.4033 -9.53906 -22.0166 -19.6504 -22.0166h-0.149414s-3.24609 -0.0664062 -3.40039 -0.0654297l-33.5537 0.0253906c-0.0175781 0 -16.6514 -0.0253906 -16.7393 -0.0253906h-0.525391zM584.495 441.57v0z
M582.467 463.847c0 -1.73047 0.0439453 -1.97852 2.10059 -2.09863l51.8848 0.0214844c1.59082 0 1.99219 0.319336 2.00586 0.329102c0 0 0.263672 0.52832 0.263672 1.47266c0 0.166016 -0.00195313 0.233398 -0.00195313 0.241211
c-0.115234 0.626953 -9.82617 50.5947 -19.8164 60.585c-2.47168 2.47168 -4.73633 3.41797 -8.44824 3.41797c-9.92383 0 -14.4434 -7.7666 -24.8672 -50.6846c-2.28809 -9.02539 -3.0332 -12.1436 -3.12012 -12.6211c0 0 -0.000976563 -0.0507812 -0.000976563 -0.223633
v-0.439453zM484.427 568.001c-3.37012 0.118164 -20.7568 1.71777 -20.7568 22.0732c0 4.03613 0.274414 4.36035 7.3877 33.6182c5.0127 20.0752 12.666 50.7266 40.0088 50.7266c27.4834 0 35.3457 -31.6689 39.7666 -49.4756
c7.37891 -30.6738 7.63086 -30.8525 7.63086 -34.8604c0 -13.4004 -9.53711 -22.0156 -19.6504 -22.0156h-0.147461s-3.24609 -0.0673828 -3.40332 -0.0664062l-33.5518 0.0263672c-0.0175781 0 -16.6504 -0.0263672 -16.7393 -0.0263672h-0.544922zM484.972 568.001v0z
M482.942 590.278c0 -1.72559 0.0361328 -1.97852 2.12207 -2.09961l51.8633 0.0214844c1.59082 0 1.99219 0.319336 2.00488 0.329102c0 0 0.264648 0.52832 0.264648 1.47363c0 0.166016 -0.00195312 0.233398 -0.00195312 0.241211
c-0.115234 0.626953 -9.82617 50.5938 -19.8164 60.584c-2.47168 2.47168 -4.73633 3.41797 -8.44824 3.41797c-9.92383 0 -14.4434 -7.76758 -24.8672 -50.6846c-2.28809 -9.02344 -3.0332 -12.1426 -3.12012 -12.6201c0 0 -0.000976563 -0.0507812 -0.000976563 -0.223633
v-0.439453zM574.939 696.829c4.39934 0 8.91771 1.19944 13.304 5.58575c5.65451 5.65451 42.1659 41.0914 81.78 54.1459c17.1874 5.85266 37.9278 6.19481 43.4432 6.19481c37.482 0 81.8592 -24.3615 92.3555 -35.5845
c19.4851 -20.8341 35.5591 -61.2787 35.5591 -89.6611c0 -2.64298 -0.167538 -6.65462 -0.216141 -7.85773c0 -0.065002 -0.00676012 -0.123313 -0.00676012 -0.168585c-0.114628 -50.3839 -30.8575 -95.1406 -67.4042 -130.572
c-178.164 -172.734 -197.196 -189.889 -199.182 -191.814c-28.6576 29.8911 -200.721 193.752 -202.714 195.745c-20.6146 20.6146 -38.1995 47.926 -40.8283 52.4475c-17.2673 29.914 -22.3079 58.578 -22.4596 81.2457l-0.00828521 1.23819
c4.0192 12.1769 8.85531 34.1165 17.8663 57.4678c2.27562 5.89876 9.46303 23.8671 16.7828 31.1883c15.3303 15.3281 58.7529 36.2817 93.1349 36.2817c14.6979 0 63.0067 0 128.666 -64.6287c7.64012 -1.25386 7.64012 -1.25386 9.92689 -1.25386zM435.085 789.253
c-41.7526 0 -92.3589 -24.5138 -111.679 -43.8339c-14.305 -14.3059 -42.135 -62.9553 -42.135 -107.6c0 -15.5166 0 -52.6118 25.4407 -96.5788c4.06248 -7.02276 18.0253 -24.1404 19.0131 -26.6803c2.48652 -6.39343 19.1259 -24.0162 27.3695 -32.2598l198.027 -191.821
c2.00864 -1.94674 10.2857 -9.69175 22.6104 -9.69175c6.94393 0 15.1878 2.6014 23.9164 10.1498c1.77945 1.53723 15.4892 13.3883 194.276 187.967c75.5148 73.7383 75.8231 131.097 75.8231 157.933v0.327148c0 40.6066 -23.1331 89.03 -44.6359 110.534
c-14.4168 14.4186 -64.8121 42.3271 -110.132 42.3271c-36.8937 0 -66.1523 -11.6284 -86.8944 -24.0117c0.279757 -0.432831 0.582279 -0.90142 0.91533 -1.41768l-12.5379 -8.23749l-0.966095 1.43957c-16.7034 -11.3901 -22.4619 -15.8171 -39.9118 -30.9176
c-52.2277 45.2194 -87.7032 62.3734 -138.499 62.3734zM721.379 215.329c0 -1.8418 0.356445 -13.6094 0.356445 -13.7471c0 -20.3545 -5.53613 -60.1377 -5.53613 -83.1494c0 -1.87793 0.0527344 -3.38379 0.164062 -4.43164
c1.98535 -0.209961 1.51074 -2.87988 1.80469 -4.78027c5.10352 -54.8594 50.1055 -109.108 67.5186 -126.522c3.17969 -3.17871 5.26465 -4.87305 5.26465 -4.87305l-8.80273 -1.22266l-2.1709 -4.99219l11.6504 -6.50195
c-5.73242 -3.82227 -11.4639 -7.64355 -17.1963 -11.4648c-35.5889 38.8184 -56.5869 61.7217 -76.9473 118.893c-9.39551 -28.3105 -25.9746 -55.8945 -41.2842 -75.3359c-15.9551 -20.2637 -10.8262 -20.333 -32.1289 -44.002l-24.874 19.6934
c15.3457 19.8926 37.9697 51.0322 38.3594 51.543c47.123 61.9004 51.6904 143.236 51.6904 191.316c0 3.48438 -0.00292969 3.86133 -0.0976562 15.0654c7.36035 -0.162109 14.7217 -0.324219 22.083 -0.486328c5.74316 -0.123047 10.1963 -4.8584 10.1963 -10.1758
c0 -0.358398 -0.0185547 -0.619141 -0.0195312 -0.763672c0 0 0.00488281 -0.239258 0.00488281 -0.493164c0 -0.0361328 -0.0351562 -1.85059 -0.0351562 -3.56836zM368.116 155.773c0 -1.82812 0.356445 -13.6045 0.356445 -13.7422
c0 -20.4395 0.526367 2.29785 0.526367 -20.7988c0 -1.87793 0.0527344 -3.38379 0.164062 -4.43164c1.98535 -0.209961 1.51074 -2.87988 1.80469 -4.78027c5.10352 -54.8594 50.1055 -109.108 67.5195 -126.521c3.17969 -3.17969 5.26465 -4.87402 5.26465 -4.87402
l-8.80273 -1.22266l-2.1709 -4.99219l11.6494 -6.50293c-5.73145 -3.82031 -11.4639 -7.6416 -17.1963 -11.4619c-35.5859 38.8145 -56.5859 61.7197 -76.9473 118.891c-9.39551 -28.3105 -25.9746 -55.8936 -41.2842 -75.3359
c-15.9502 -20.2578 -10.8311 -20.3389 -32.1289 -44.001l-24.874 19.6924c15.3457 19.8926 37.9703 51.0318 38.3594 51.543c47.123 61.9004 45.627 80.8809 45.627 128.961c0 3.48438 9.11133 61.6006 9.0166 72.8047
c7.36035 -0.162109 14.7217 -0.324219 22.083 -0.486328c5.74414 -0.123047 1.08203 -62.6006 1.08203 -67.9082c0 -0.355469 -0.0185547 -0.614258 -0.015625 -0.830078c0 0 0.00195313 -0.177734 0.00195313 -0.379883
c0 -0.426758 -0.0351562 -1.52148 -0.0351562 -3.62207zM41.3545 731.521h55.5146l17.1611 52.2256l17.1602 -52.2256h55.5156l-44.8672 -32.2959l17.1611 -52.2246l-44.9697 32.2959l-44.9707 -32.2959l17.1611 52.2246z" />
  </g>

</svg>
