<?xml version="1.0" standalone="no"?>
<!DOCTYPE svg PUBLIC "-//W3C//DTD SVG 1.1//EN" "http://www.w3.org/Graphics/SVG/1.1/DTD/svg11.dtd" >
<svg xmlns="http://www.w3.org/2000/svg" xmlns:xlink="http://www.w3.org/1999/xlink" version="1.1" viewBox="-10 0 1051 1000">
  <g transform="matrix(1 0 0 -1 0 800)">
   <path fill="currentColor"
d="M271 608l-12 60c128.725 89.7881 355.203 55.3633 442.457 48.5605c0 -0.0107422 0.000976562 -0.0214844 0.000976562 -0.0322266c27.4463 0.582031 75.1855 -1.32129 107.268 -33.4033c40.1396 -40.1396 38.6152 -108.841 37.5254 -169.365
c-0.395508 -21.9258 -0.433594 -33.2402 -0.22168 -41.9463c26.3789 -43.8281 72.168 -89.959 89.3252 -129.607c6.95117 -16.0635 5.49219 -24.7637 2.64551 -40.2051l-12 -14l-79.501 -63.5771v-212.431c1.93945 -31.0869 1.82422 -79.2412 -27.416 -108.48
c-26.0322 -26.0322 -182.507 -12.0195 -220.584 -13.0049l-2.90137 0.0126953c-103.732 -7.2998 -296.108 50.6025 -326.603 92.1719c-18.5059 25.2275 -31.4014 41.2529 -57.9951 55.3086v70.0371c25.8174 -16.2627 49.624 -17.8066 70.1904 -60.6357
c44.2188 -92.082 349.455 -105.734 451.309 -108.438l-0.499023 -0.962891c50 12 34.1514 4.48145 42.5352 13.5361c19.1768 20.7119 3.97852 41.9688 5.50781 57.9648h-0.541992v2.14941c-0.253906 0.990234 -0.500977 1.94141 -0.738281 2.84863h0.738281v207.174v3.4873
v1.33887h1.58203l104 88h1.13281c4.9834 45.8955 -62.8379 92.1289 -94.2158 139.501l-3 4l-1 1c-2.02051 3.99219 0.0439453 4.02539 -2.08398 11.5605c-0.0371094 0.130859 -0.189453 0.24707 -0.174805 0.367188l0.258789 2.07227l0.0644531 1.49902
c0.00976562 0.226562 0.150391 3.89551 0.242188 6.24414c3.11426 79.1523 14.1973 176.389 -74.8154 176.771c-136.35 16.7461 -373.536 9.53418 -431.49 -46.5137zM30.3545 728.521h55.5146l17.1611 52.2256l17.1602 -52.2256h55.5156l-44.8672 -32.2959l17.1611 -52.2246
l-44.9697 32.2959l-44.9707 -32.2959l17.1611 52.2246zM575.933 123.846h5.2002c0.12793 -3.58398 0.256836 -7.16797 0.383789 -10.752c19.8125 0.693359 37.7246 9.03906 50.8545 22.1689c4.77246 4.77246 8.91309 10.1768 12.2842 16.0762l-8.32031 4.41602
l-1.02441 -1.62109l-51.0312 24.0781c-1.66504 -0.912109 -3.57617 -1.43066 -5.6084 -1.43066c-6.45605 0 -11.6885 5.23242 -11.6885 11.6885c0 4.93457 3.05664 9.15332 7.37891 10.8691v54.5068h1.2002v9.96094c-10.2002 -0.480469 -39.2451 -4.41992 -58.6748 -32.7949
c2.92285 -1.6875 5.84473 -3.375 8.76758 -5.0625l-3 -5.19629c-2.9873 1.72461 -5.97363 3.44922 -8.95996 5.17383c-6.33398 -11.04 -9.95508 -23.8281 -9.95508 -37.458c0 -13.2939 3.46582 -25.8027 9.54492 -36.6709l9.26953 5.35254l3 -5.19727
c-3.04492 -1.75781 -6.08887 -3.51562 -9.13379 -5.27344c13.0566 -19.5273 34.9609 -32.6475 59.8965 -33.5801zM661.628 188.47c0 -45.5205 -36.9443 -82.4648 -82.4668 -82.4648c-45.5215 0 -82.4668 36.9443 -82.4668 82.4668
c0 45.2529 36.7246 82.1934 81.9756 82.4648h0.165039c45.5283 0 82.6113 -36.9482 82.793 -82.4668zM581.562 263.854v-10.0078h0.785156l1.96973 -55.1377c3.19629 -1.7666 5.47656 -4.98535 5.95215 -8.7666l50.2578 -27.5488l-1.4082 -2.23047l7.95898 -4.22461
c4.76465 9.85352 7.45703 20.8867 7.50684 32.5352c0 14.0703 -3.85938 27.2402 -10.5762 38.5166l-8.72461 -5.46094l-2.60059 4.50391c2.83691 1.77637 5.6748 3.55273 8.5127 5.3291c-5.81934 8.39648 -24.8799 31.4033 -59.6338 32.4922zM392.965 196.494
l-45.4453 -52.5391l10.5547 -9.28516l28.2891 33.7969l0.142578 -122.926l14.4639 0.759766l-0.986328 122.057l27.126 -32.2246l10.418 9.84961zM568 493l-70.1113 -62.2646l67 -63l-12.8887 -10.7354l-67.1113 63.2354l-68.8887 -67.2354l-9.36133 10.2354l67.75 66
l-60.3887 61.7646l11.5 11l61.3887 -58.7646l71.1387 58.3896z" />
  </g>

</svg>
