<?xml version="1.0" standalone="no"?>
<!DOCTYPE svg PUBLIC "-//W3C//DTD SVG 1.1//EN" "http://www.w3.org/Graphics/SVG/1.1/DTD/svg11.dtd" >
<svg xmlns="http://www.w3.org/2000/svg" xmlns:xlink="http://www.w3.org/1999/xlink" version="1.1" viewBox="-10 0 1094 1000">
  <g transform="matrix(1 0 0 -1 0 800)">
   <path fill="currentColor"
d="M425 -128c0 -3 3 -6 6 -6l459 -2c3 0 6 3 6 6l-1 196c7 -1 14 3 22 3c32 2 32 -1 32 -1l-53 63l-1 105c0 3 -3 6 -6 6h-263l-3 46l-2 17l-66 -59h-2h-122c-3 0 -6 -3 -6 -6v-368zM449 -110v332h106l71 -60c1 20 -1 39 0 60l246 -1v-89l-59 -64l31 1h30l-2 -181zM620 410z
M682 695v0v0zM506 472v0v0zM522 437v0v0zM527 436v0v0zM719 407h-184c-11 0 -25 2 -37 15c-20 22 -17 49 -16 55c2 12 6 25 11 45c21 85 23 97 33 125c22 64 49 85 72 95c14 5 61 18 100 -25c20 -23 36 -55 55 -131c7 -28 13 -56 20 -84c2 -7 4 -14 5 -22
c7 -36 -13 -72 -47 -72c-12 0 -12 -1 -12 -1zM514 443v0c6 -7 11 -8 22 -8h187c4 0 9 0 13 1c9 1 24 16 19 38c-2 11 -2 10 -11 46c-22 91 -28 112 -43 145c-3 6 -12 24 -24 36s-24 18 -40 19c-19 2 -55 -1 -81 -66c-10 -26 -17 -48 -24 -76c-16 -66 -16 -66 -22 -88v0v0
c-5 -19 -8 -33 4 -47zM807 686l81 -69l-78 -69l-19 21l39 33l-353 -2l1 31l353 -1l-42 35zM100 -40h56l17 52l17 -52h56l-45 -33l17 -52l-45 32l-45 -32l17 52z" />
  </g>

</svg>
