<?xml version="1.0" standalone="no"?>
<!DOCTYPE svg PUBLIC "-//W3C//DTD SVG 1.1//EN" "http://www.w3.org/Graphics/SVG/1.1/DTD/svg11.dtd" >
<svg xmlns="http://www.w3.org/2000/svg" xmlns:xlink="http://www.w3.org/1999/xlink" version="1.1" viewBox="-10 0 1051 1000">
  <g transform="matrix(1 0 0 -1 0 800)">
   <path fill="currentColor"
d="M271 608l-12 60c128.725 89.7881 355.203 55.3633 442.457 48.5605c0 -0.0107422 0.000976562 -0.0214844 0.000976562 -0.0322266c27.4463 0.582031 75.1855 -1.32129 107.268 -33.4033c40.1396 -40.1396 38.6152 -108.841 37.5254 -169.365
c-0.395508 -21.9258 -0.433594 -33.2402 -0.22168 -41.9463c26.3789 -43.8281 72.168 -89.959 89.3252 -129.607c6.95117 -16.0635 5.49219 -24.7637 2.64551 -40.2051l-12 -14l-79.501 -63.5771v-212.431c1.93945 -31.0869 1.82422 -79.2412 -27.416 -108.48
c-26.0322 -26.0322 -182.507 -12.0195 -220.584 -13.0049l-2.90137 0.0126953c-103.732 -7.2998 -296.108 50.6025 -326.603 92.1719c-18.5059 25.2275 -31.4014 41.2529 -57.9951 55.3086v70.0371c25.8174 -16.2627 49.624 -17.8066 70.1904 -60.6357
c44.2188 -92.082 349.455 -105.734 451.309 -108.438l-0.499023 -0.962891c50 12 34.1514 4.48145 42.5352 13.5361c19.1768 20.7119 3.97852 41.9688 5.50781 57.9648h-0.541992v2.14941c-0.253906 0.990234 -0.500977 1.94141 -0.738281 2.84863h0.738281v207.174v3.4873
v1.33887h1.58203l104 88h1.13281c4.9834 45.8955 -62.8379 92.1289 -94.2158 139.501l-3 4l-1 1c-2.02051 3.99219 0.0439453 4.02539 -2.08398 11.5605c-0.0371094 0.130859 -0.189453 0.24707 -0.174805 0.367188l0.258789 2.07227l0.0644531 1.49902
c0.00976562 0.226562 0.150391 3.89551 0.242188 6.24414c3.11426 79.1523 14.1973 176.389 -74.8154 176.771c-136.35 16.7461 -373.536 9.53418 -431.49 -46.5137zM30.3545 728.521h55.5146l17.1611 52.2256l17.1602 -52.2256h55.5156l-44.8672 -32.2959l17.1611 -52.2246
l-44.9697 32.2959l-44.9707 -32.2959l17.1611 52.2246zM583.948 417.257l-66.166 122.556l9.59961 4.05566l57.4004 -99.7998l56.0225 105l12.9775 -5.25586zM580 121l-3.05566 4.04883c-10.2041 15.0723 -32.7578 31.1221 -50.3398 35.8262
c-24.3682 7.63965 -37.125 15.2783 -37.125 87.8477v97.625l4.88867 -1.375l15.2783 -4.35449c31.625 -9.39551 39.1104 -11.6113 68.75 4.04883l1.83301 0.993164l1.83301 -1.06934c30.5557 -17.6465 36.0557 -15.7363 76.9238 -1.52832l10.3887 3.59082v-97.9307
c0 -72.875 -12.6035 -80.3613 -36.666 -88.1533c-17.2764 -4.74512 -39.418 -20.6592 -49.4238 -35.5205zM497.118 336.188v-87.4648c0 -70.4307 11.3057 -74.0205 31.7783 -80.5908c17.4414 -4.75098 40.3359 -20.3906 51.1035 -34.9092
c10.6016 14.1729 33.0518 29.5039 50.1113 34.2217c20.2432 6.57031 31.3955 10.2363 31.3955 80.8965v87.541c-40.1035 -13.9785 -49.041 -17.1104 -81.4307 1.07031c-31.3193 -16.042 -41.25 -12.7578 -73.0273 -3.66699z" />
  </g>

</svg>
