<?xml version="1.0" standalone="no"?>
<!DOCTYPE svg PUBLIC "-//W3C//DTD SVG 1.1//EN" "http://www.w3.org/Graphics/SVG/1.1/DTD/svg11.dtd" >
<svg xmlns="http://www.w3.org/2000/svg" xmlns:xlink="http://www.w3.org/1999/xlink" version="1.1" viewBox="-10 0 1051 1000">
  <g transform="matrix(1 0 0 -1 0 800)">
   <path fill="currentColor"
d="M291.566 614.258l-12 60c128.725 89.7881 355.203 55.3633 442.457 48.5605c0 -0.0107422 0.000976562 -0.0214844 0.000976562 -0.0322266c27.4463 0.582031 75.1855 -1.32129 107.268 -33.4033c40.1396 -40.1396 38.6152 -108.841 37.5254 -169.365
c-0.395508 -21.9258 -0.433594 -33.2402 -0.22168 -41.9463c26.3789 -43.8281 72.168 -89.959 89.3252 -129.607c6.95117 -16.0635 5.49219 -24.7637 2.64551 -40.2051l-12 -14l-79.501 -63.5771v-212.431c1.93945 -31.0869 1.82422 -79.2412 -27.416 -108.48
c-26.0322 -26.0322 -182.507 -12.0195 -220.584 -13.0049l-2.90137 0.0126953c-103.732 -7.2998 -296.108 50.6025 -326.603 92.1719c-18.5059 25.2275 -31.4014 41.2529 -57.9951 55.3086v70.0371c25.8174 -16.2627 49.624 -17.8066 70.1904 -60.6357
c44.2188 -92.082 349.455 -105.734 451.309 -108.438l-0.499023 -0.962891c50 12 34.1514 4.48145 42.5352 13.5361c19.1768 20.7119 3.97852 41.9688 5.50781 57.9648h-0.541992v2.14941c-0.253906 0.990234 -0.500977 1.94141 -0.738281 2.84863h0.738281v207.174v3.4873
v1.33887h1.58203l104 88h1.13281c4.9834 45.8955 -62.8379 92.1289 -94.2158 139.501l-3 4l-1 1c-2.02051 3.99219 0.0439453 4.02539 -2.08398 11.5605c-0.0371094 0.130859 -0.189453 0.24707 -0.174805 0.367188l0.258789 2.07227l0.0644531 1.49902
c0.00976562 0.226562 0.150391 3.89551 0.242188 6.24414c3.11426 79.1523 14.1973 176.389 -74.8154 176.771c-136.35 16.7461 -373.536 9.53418 -431.49 -46.5137zM50.9209 734.778h55.5146l17.1611 52.2256l17.1602 -52.2256h55.5156l-44.8672 -32.2959l17.1611 -52.2246
l-44.9697 32.2959l-44.9707 -32.2959l17.1611 52.2246zM615.509 196.954l-0.00195312 -0.104492c0.000976562 0.0341797 0.00195312 0.0693359 0.00195312 0.104492zM597.1 255.446l0.0263672 -0.0302734c-0.00878906 0.00976562 -0.0263672 0.0302734 -0.0263672 0.0302734
zM571.451 253.088l0.0273438 0.0400391c-0.00488281 -0.00585938 -0.00878906 -0.0136719 -0.0273438 -0.0400391zM554.867 198.882l0.0078125 0.0478516c-0.00292969 -0.015625 -0.0078125 -0.0322266 -0.0078125 -0.0478516zM556.411 192.639l-0.0341797 0.0380859
c0.0117188 -0.0126953 0.0234375 -0.0253906 0.0341797 -0.0380859zM557.779 191.602l-0.169922 0.0498047c0.0566406 -0.0175781 0.113281 -0.0351562 0.169922 -0.0498047zM558.619 191.444l-0.0361328 0.00390625
c0.00683594 0 0.0136719 -0.00390625 0.0361328 -0.00390625zM586.549 261.161c-13.9561 1.26465 -19.6934 -13.7861 -25.0928 -35.2451c-4.1543 -17.1055 -4.1543 -17.1055 -5.6582 -22.7451l0.0078125 0.0332031
c-0.00292969 -0.0117188 -0.0078125 -0.0332031 -0.0078125 -0.0332031c-1.06152 -4.36719 -1.94043 -7.9834 0.755859 -10.6787c0.989258 -0.990234 1.35352 -1.05762 4.16895 -1.18066c49.9834 0.0214844 49.9834 0.0214844 51.3682 0.205078
c1.19531 0.148438 4.20215 2.93066 3.2041 7.66992c-0.0771484 0.391602 -6.20996 27.1611 -9.74414 38.6816c-6.20215 20 -13.5908 22.918 -19.002 23.293zM610.894 180.799c-3.88379 -0.0791016 -49.8379 -0.0771484 -50.3418 -0.0605469
c-3.03711 0.0976562 -7.26172 0.233398 -10.874 4.23438c-1.05469 1.16895 -5.96094 7.14746 -4.39844 15.6973c0.576172 3.15137 1.34961 6.32617 2.79199 11.6094c6.17773 25.416 7.85254 32.3047 12.4795 41.7871c3.78516 7.74414 12.1338 19.4053 27.5957 17.5566
c18.3438 -2.0332 25.1816 -23.0996 30.0811 -42.8398c1.72266 -7.1582 3.48047 -14.3027 5.28418 -21.4668c1.58008 -6.58203 3.11035 -12.9521 -0.804688 -19.4287c-1.94727 -3.2207 -5.60156 -7.15625 -11.8135 -7.08887zM658.067 181.932zM502.634 286.501z
M473.607 233.063zM586.705 163.196zM500.087 180.836zM549.904 165.164zM685.792 245.146zM473.607 233.063zM685.792 245.146zM689.619 248.787c2.00391 -6.07031 3.29492 -12.6396 4.98047 -18.9336l1.1748 -0.0195312
c-0.893555 -18.8564 -1.23047 -25.957 -31.8506 -50.1533c-22.7842 -18.0029 -39.2852 -28.6211 -77.2021 -29.2324c-26.0811 -0.418945 -59.4785 5.14258 -88.5986 29.2266c-11.4736 9.49023 -29.6885 27.8564 -29.5195 48.7207h-0.816406
c0.891602 3.34473 0.891602 3.34473 0.976562 5.91211l0.597656 -0.00976563l2.55664 9.58887h-1.12207c0.582031 0.791016 1.16602 1.58301 1.74902 2.37402v2.69531h1.98242l28.957 39.3438h0.918945c10.0186 23.4277 48.4014 34.7139 63.3096 16.5664
c2.11621 -0.951172 11.7168 -4.78125 21.8252 -1.0957c5.20703 6.96875 19.8369 13.6943 36.3008 10.2803c15.9229 -3.30176 31.9863 -18.1143 39.0342 -25.3271h0.337891c0.248047 -0.365234 0.417969 -0.785156 0.730469 -1.10547l2.21387 -2.31055l21.1436 -36.1299
c0.316406 0.0263672 0.56543 0.00683594 0.515625 -0.22168zM483.334 229.661c-0.350586 -12.0234 0.978516 -26.3232 30.1807 -46.7637c24.7783 -17.3457 45.3105 -18.5918 73.499 -17.8936c32.8428 0.845703 46.5469 5.06641 66.3789 21.2715
c26.373 21.5518 30.7422 28.3057 27.5713 40.9658l-4.19434 16.7412l-0.15332 -0.275391c0.00878906 1.01367 -0.668945 2.30176 -0.660156 3.31543l-23.5322 37.1152c-0.631836 -0.0244141 -0.126953 0.549805 -0.758789 0.524414
c-14.5654 9.60352 -16.1191 13.7646 -21.5605 16.9727c-8.37793 4.94141 -21.2598 3.94727 -29.4609 -1.65039c-4.08203 -12.2979 -29.4121 -14.2686 -41.084 -3.17871c-1.08691 1.0332 -1.88965 0.458008 -1.78613 1.72656
c-12.4766 8.58496 -35.8457 -0.0644531 -42.4492 -15.6172l-0.800781 -1.88574l-1.33496 0.513672l-25.7354 -36.4336zM488.2 375l0.134766 101.845l-21.835 -9.19727v2.25977v8.33301v0.950195l110.168 52.0752c1.33789 -0.693359 2.6748 -1.38672 4.01172 -2.08008
l0.0605469 0.121094c2.43359 -1.41211 2.43359 -1.41211 107.999 -56.3096l0.208008 -12.4697l-19.5439 11.5615l-0.40332 -97.0889h-180.8zM498.695 481.282l0.438477 -95.3506h158.934l0.787109 92.3379l-82.3252 42.3506z" />
  </g>

</svg>
