<?xml version="1.0" standalone="no"?>
<!DOCTYPE svg PUBLIC "-//W3C//DTD SVG 1.1//EN" "http://www.w3.org/Graphics/SVG/1.1/DTD/svg11.dtd" >
<svg xmlns="http://www.w3.org/2000/svg" xmlns:xlink="http://www.w3.org/1999/xlink" version="1.1" viewBox="-10 0 1020 1000">
  <g transform="matrix(1 0 0 -1 0 800)">
   <path fill="currentColor"
d="M30.3242 741.553h55.5146l17.1611 52.2256l17.1602 -52.2256h55.5156l-44.8672 -32.2959l17.1611 -52.2246l-44.9697 32.2959l-44.9707 -32.2959l17.1611 52.2246zM271 608l-12 60c128.725 89.7881 355.203 55.3633 442.457 48.5605
c0 -0.0107422 0.000976562 -0.0214844 0.000976562 -0.0322266c27.4463 0.582031 75.1855 -1.32129 107.268 -33.4033c40.1396 -40.1396 38.6152 -108.841 37.5254 -169.365c-0.395508 -21.9258 -0.433594 -33.2402 -0.22168 -41.9463
c26.3789 -43.8281 72.168 -89.959 89.3252 -129.607c6.95117 -16.0635 5.49219 -24.7637 2.64551 -40.2051l-12 -14l-79.501 -63.5771v-212.431c1.93945 -31.0869 1.82422 -79.2412 -27.416 -108.48c-26.0322 -26.0322 -182.507 -12.0195 -220.584 -13.0049
l-2.90137 0.0126953c-103.732 -7.2998 -296.108 50.6025 -326.603 92.1719c-18.5059 25.2275 -31.4014 41.2529 -57.9951 55.3086v70.0371c25.8174 -16.2627 49.624 -17.8066 70.1904 -60.6357c44.2188 -92.082 349.455 -105.734 451.309 -108.438l-0.499023 -0.962891
c50 12 34.1514 4.48145 42.5352 13.5361c19.1768 20.7119 3.97852 41.9688 5.50781 57.9648h-0.541992v2.14941c-0.253906 0.990234 -0.500977 1.94141 -0.738281 2.84863h0.738281v207.174v3.4873v1.33887h1.58203l104 88h1.13281
c4.9834 45.8955 -62.8379 92.1289 -94.2158 139.501l-3 4l-1 1c-2.02051 3.99219 0.0439453 4.02539 -2.08398 11.5605c-0.0371094 0.130859 -0.189453 0.24707 -0.174805 0.367188l0.258789 2.07227l0.0644531 1.49902
c0.00976562 0.226562 0.150391 3.89551 0.242188 6.24414c3.11426 79.1523 5.19727 173.389 -83.8154 173.771c-136.35 16.7461 -373.536 9.53418 -431.49 -46.5137zM615.151 398.864zM386.146 552.93zM343.38 474.198zM510.01 371.261zM509.71 361.699zM382.394 397.25z
M455.792 374.159zM656 492zM343.38 474.198zM656 492zM554.594 593.08c-16.1436 0 -29.8096 -6.2793 -36.7422 -13.2109c-2.6377 -2.6377 -1.96387 -2.77539 -3.05469 -3.17188c-4.90039 -1.78809 -9.70312 -2.43457 -14.0859 -2.43457
c-4.1377 0 -11.6562 0.611328 -19.7969 4.26855c-5.53125 6.7334 -14.8857 12.8613 -30.6143 12.8613c-23.6133 0 -50.541 -14.6162 -59.9062 -36.5146l-0.461914 -1.08203h-1.62891l-42.6631 -57.9678h-2.04199v-2.77246
c-0.276367 -0.375977 -0.552734 -0.750977 -0.829102 -1.12695h0.445312l-4.72461 -17.7188l-0.53125 0.0078125c-0.0957031 -1.81445 -0.266602 -2.85645 -0.838867 -5.11133h0.6875c-0.0166016 -2.00293 -0.0166016 -2.00293 -0.0166016 -2.20703
c0 -12.9541 5.58984 -39.1699 42.8477 -69.9834c39.3486 -32.5459 83.8486 -36.1348 120.739 -36.1348c60.4658 0 85.1172 7.57715 121.298 36.1689c44.2002 34.9248 44.9453 45.209 46.1611 70.7363l-1.2373 0.0195312
c-0.0751953 0.285156 -5.50391 22.4375 -7.42969 28.4014l-31.5898 53.9814c-3.56055 3.71582 -3.56055 3.71582 -3.91895 4.33105h-0.234375c-11.1064 11.3672 -34.3896 32.6387 -57.1221 37.3525c-4.35059 0.902344 -8.61035 1.30762 -12.71 1.30762zM449.683 577.468
c3.39844 0 10.9521 0 19.5635 -5.92676l-0.0664062 -0.822266c0.49707 -0.203125 1.29395 -0.577148 2.06738 -1.3125c7.29688 -6.93359 18.5107 -10.1885 29.1582 -10.1885c9.91797 0 19.3438 2.82422 24.6494 8.13086c1.03223 1.0332 2.7002 2.69922 3.9873 6.58105
c5.46875 3.73145 14.1543 7.80371 26.0088 7.80371c15.7324 0 23.0869 -6.85156 28.7275 -12.1035c4.38281 -4.08203 10.1543 -9.4707 22.5684 -17.6846c0.473633 -0.102539 0.863281 -0.331055 1.17578 -0.68457l0.272461 0.0117188l35.501 -55.9961
c0 -0.0947266 -0.00292969 -0.191406 -0.00292969 -0.287109c2.5459 -9.53906 4.87109 -19.2998 7.32324 -28.9336c0.856445 -3.42383 1.33887 -6.59766 1.33887 -9.66992c0 -14.7422 -10.9678 -26.6865 -42.5625 -52.5049
c-29.1143 -23.7891 -50.1973 -31.9502 -113.734 -31.9502c-34.3975 0 -62.124 4.22559 -94.5049 26.8926c-39.916 27.9414 -45.2832 48.5195 -45.2832 66.8438c0 1.20801 0.0224609 2.39844 0.0556641 3.57031c1.99219 7.90527 4.15527 15.6377 6.21191 23.4766
l38.9014 55.0771c0.552734 -0.212891 1.10352 -0.425781 1.65527 -0.637695c1.31055 3.08594 3.54199 8.34375 9.59668 14.3984c9.75684 9.75684 24.1982 15.916 37.3916 15.916zM472.817 -2.58984c-1.1084 0 -2 0.900391 -2 2l1.91797 55.2227
c-5.57812 6.67773 -11.2998 12.9277 -16.9336 19.082c-24.8408 27.1309 -48.0879 52.5811 -48.1689 103.917c-0.0673828 42.7832 15.4961 64.6709 24.2119 73.5361c27.5459 26.9277 63.9121 33.6973 82.8125 33.6973c1.71875 0 3.89355 1.45703 6.1582 1.35059
c55.8633 -2.62793 67.7861 -7.0459 96.248 -31.8027c3.6748 -3.19629 4.74414 -5.80078 5.2207 -8.26074c0.0859375 -0.444336 0.135742 -0.618164 0.152344 -0.671875c13.042 -15.0488 22.1934 -54.6006 22.9023 -66.1035
c0.0488281 -0.780273 0.165039 -1.68555 0.299805 -2.71094c0.380859 -2.89648 0.885742 -6.72363 0.0429688 -11.5391c-11.6055 -66.2822 -43.1465 -85.3574 -46.8555 -95.748c-0.202148 -0.567383 -0.388672 -0.661133 -0.469727 -0.741211
c-0.883789 -0.883789 -8.54688 -4.79102 -14.7031 -7.68652c-0.772461 -2.20117 -0.772461 -2.20117 -1.16406 -2.6084c-0.181641 -0.697266 -0.34668 -1.93066 -0.34668 -1.93066l-1.14258 -56.4121c-0.0224609 -1.08398 -0.902344 -1.95215 -1.9873 -1.95898z
M622.353 245.568l-0.132812 0.115234l-1.20801 -1.58008zM616.736 252.701l-1.32324 0.546875l-1.3252 -3.32129zM530.238 270.932c-32.0723 0 -52.9863 -5.66211 -79.6543 -25.4336c-7.03125 -7.03223 -26.6045 -28.1367 -26.6973 -64.75
c-0.12207 -48.1973 20.8838 -70.8877 32.167 -82.1709c5.62109 -5.62207 5.62109 -5.62207 6.55273 -7.0127c1.84082 -2.75 1.84082 -2.75 13.7881 -15.7002c2.74316 -0.674805 6.9375 -2.4043 11.1904 -6.82617c2.32617 -2.41699 1.38672 -11.3926 0.957031 -15.499
l-0.382812 -46.6973l74.1035 -0.379883l3.48438 57.3135c0.0332031 0.542969 0.28418 1.04785 0.704102 1.40332c2.46191 2.09863 2.52637 2.1543 3.80176 3.42969c1.25977 1.25977 4.91504 4.82812 8.12891 5.76367c1.16504 0.338867 2.78906 3.56055 6.16602 6.08398
c16.1475 12.0713 40.0498 42.457 43.0176 86.252c0.43457 6.40723 -0.554688 13.3975 -1.81934 20.8955c-2.6748 15.8691 -6.59473 38.4219 -18.6611 52.4805c-1.875 1.5459 -2.44531 2.05957 -11.082 10.6963c-15.4502 15.4502 -41.0332 20.1514 -65.7646 20.1514z
M523.176 119.005l-52.9512 95.8574l13.8896 5.25195l39.1992 -68.7998l38.4004 72.7998l13.502 -9.10742z" />
  </g>

</svg>
