<?xml version="1.0" standalone="no"?>
<!DOCTYPE svg PUBLIC "-//W3C//DTD SVG 1.1//EN" "http://www.w3.org/Graphics/SVG/1.1/DTD/svg11.dtd" >
<svg xmlns="http://www.w3.org/2000/svg" xmlns:xlink="http://www.w3.org/1999/xlink" version="1.1" viewBox="-10 0 1037 1000">
  <g transform="matrix(1 0 0 -1 0 800)">
   <path fill="currentColor"
d="M828.399 483.872c0 9.49878 0.360099 25.4826 0.360099 28.905l-0.318652 61.3747l-8.69455 54.78l-24.0577 41.7601l-29.8355 19.1251l-33.9409 8.02542l-47.9505 1.85133v0.765382l-107.704 8.96128l-161.614 -4.8437l-135.511 -48.0118l4.97421 -24.8711
l90.1513 34.2037l168.519 13.9909l163.859 -8.05849l72.0585 -32.0852l24.6852 -76.5829c-11.2968 -92.7231 -11.5388 -94.7093 -10.6225 -98.1968c0.272553 -1.03738 0.408327 -1.98777 0.495372 -2.92219c0.487753 -0.641757 1.13403 -1.58506 1.4862 -2.05622
l30.4464 -40.7334l38.0432 -60.0682l23.93 -33.502l-96.7113 -80.2498l-3.19974 -219.288c0.962733 -7.56244 2.78458 -22.0112 5.01798 -45.877c-0.12894 -0.269919 -9.65147 -20.9678 -12.8349 -27.02c-1.80565 -3.43278 -3.36365 -6.39475 -8.94453 -11.1259
c-28.726 -6.87192 -37.6748 -9.01268 -53.7943 -9.01268c-3.38415 0 -6.77838 0.14333 -10.1737 0.446144l-127.95 -3.2205l-189.706 31.9736l-119.91 72.0259l-21.8729 31.5454c-0.18608 0.126152 -14.9542 10.3475 -18.5829 12.6523v-31.4635
c5.41685 -3.87145 13.5068 -7.36272 24.4398 -17.2503c7.32645 -6.62591 2.09556 -4.45645 10.6241 -11.9264c1.03002 -0.902171 1.03002 -0.902171 17.2005 -21.8062l70.2643 -41.1391l123.979 -35.7692l40.8353 -3.74581
c52.8258 -4.90757 59.0669 -6.73248 83.0467 -7.42728l68.08 -1.97257l89.7606 0.254271l51.1066 12.4914l15.1376 25.2075l6.27671 34.16l-0.268638 82.9487l0.0291888 84.2282l-0.00582149 87.5189l84.7837 67.8016l7.68593 8.96692l1.11464 7.19504
c0.44913 7.61262 -1.52476 12.8022 -3.31214 18.1783l-23.3304 38.8443l-33.0243 43.448l-34.3179 48.9016c-0.202711 16.1296 -0.202711 16.1296 -0.202711 17.6951zM33.2949 712.521h55.5146l17.1611 52.2256l17.1602 -52.2256h55.5156l-44.8672 -32.2959
l17.1611 -52.2246l-44.9697 32.2959l-44.9707 -32.2959l17.1611 52.2246zM489.046 513.111c-2.73438 -3.88379 -4.15039 -5.66309 -6.82129 -8.05469c11.1006 -9.37598 17.7158 -15.0596 29.1123 -25.2373c-5.36719 -8.04297 -16.5605 -24.8174 -16.5605 -51.29
c0 -13.0039 2.83691 -25.3447 7.92578 -36.4443l1.60742 -3.50684c-9.51758 -4.7959 -17.5068 -8.87109 -35.6738 -18.9941c3.13477 -4.32129 4.49707 -6.59375 5.76367 -9.76758c13.7871 8.33789 21.9092 13.0088 35.1748 19.875
c3.61816 -4.95215 6.16211 -8.43359 11.002 -13.2734c18.8164 -18.8164 41.0479 -23.6699 51.5439 -24.8955l3.69141 -0.430664c-1.03809 -23.5889 -1.28711 -31.0518 -1.52832 -39.5322c6.53516 -0.477539 8.70996 -0.603516 11.6611 -0.636719
c-0.0566406 5.81543 -0.0859375 11.0723 -0.0859375 15.8408c0 8.97949 0.0498047 13.8135 0.383789 24.1758c10.874 0.912109 35.3086 2.96094 58.1357 25.7881c3.21484 3.21484 5.24805 5.24805 11.6445 14.1943c12.7783 -9.22949 19.3008 -13.9111 28.4131 -20.3916
c2.83984 3.97461 4.10547 5.87793 6.33887 9.78027c-9.9375 7.73633 -16.5 12.5645 -29.2246 20.5391c3.3457 7.78711 8.4502 19.668 8.4502 37.1504c0 19.4766 -6.69238 34.6709 -10.3643 41.5352l-1.75 3.27246c0.298828 0.189453 19.4873 12.3457 30.0371 18.8018
c-2.1084 3.44043 -3.32422 5.24707 -5.51953 8.19824c-16.3564 -9.47559 -19.6123 -11.3623 -30.1426 -18.6133c-3.74023 4.53809 -5.14844 6.24805 -8.22266 9.32227c-20.041 20.04 -43.667 24.4473 -55.0547 25.3408l-3.50488 0.274414
c-0.714844 14.3643 -0.93457 21.7246 -0.93457 30.0557c0 2.6084 0.0283203 4.85449 0.0683594 6.8418l-10.3135 -0.245117c-0.168945 -6.15625 -0.234375 -11.7969 -0.234375 -17.2598c0 -3.9707 0 -6.80371 0.212891 -19.6738
c-9.68652 -1.28906 -32.6094 -4.33789 -53.71 -25.3506l-2.75586 -2.74414c-14.373 13.6504 -20.375 18.793 -28.7656 25.3555zM582.04 351.698c-41.1602 0.0244141 -76.4922 33.8213 -76.4922 76.8281c0 42.4072 34.4229 76.8281 76.8301 76.8281
c42.4014 0 76.8281 -34.416 76.8281 -76.8154c-0.181641 -42.415 -34.7578 -76.8408 -77.166 -76.8408zM360 48c40.207 0.140625 80.4131 0.140625 120.619 0c2.64551 0.0517578 5.28906 0.103516 7.93066 0.161133c9.74316 -0.150391 17.7773 4.4541 23.3613 14.248
c5.03125 8.82422 7.6084 20.1191 6.53809 25.3877c-0.486328 2.4541 -4.19531 13.4502 -5.40918 18.2812c-4.60352 18.2734 -9.11035 36.5859 -13.5234 54.9346c-2.62109 10.5605 -5.5127 20.998 -8.66797 31.3135c-3.29004 10.6426 -7.25 20.8643 -11.875 30.6641
c-4.0791 8.4248 -9.00488 16.0264 -14.7812 22.8086c-9.87793 11.0322 -21.4639 17.2803 -34.7588 18.7451c-9.07227 1.08984 -17.9717 0.00683594 -26.7002 -3.25098c-7.99219 -3.25488 -15.0986 -8.3457 -21.3232 -15.2783
c-5.64844 -6.49609 -10.458 -13.8096 -14.4326 -21.9385c-3.60742 -7.39355 -6.7832 -15.0859 -9.53418 -23.0811c-2.74121 -8 -5.22559 -16.125 -7.45605 -24.3799c-1.66992 -6.22949 -3.28809 -12.4775 -4.85352 -18.7451
c-3.15234 -13.0859 -6.33105 -26.1592 -9.53516 -39.2246c-1.63086 -5.9668 -3.18945 -11.9629 -4.68066 -17.9863c-0.874023 -3.6875 -1.65625 -7.41016 -2.34082 -11.1611c-1.83984 -13.292 1.26855 -24.3984 9.31836 -33.3184
c2.70312 -2.8291 5.73535 -4.95801 9.10156 -6.39355c1.84473 -0.655273 3.72363 -1.08789 5.63672 -1.30078c2.46582 -0.244141 4.91895 -0.40918 7.36621 -0.485352v0zM360 58.9434c-1.98047 0.0839844 -3.97656 0.210938 -5.98145 0.379883
c-1.43652 0.135742 -2.85059 0.423828 -4.24707 0.864258c-2.48535 1.10156 -4.70801 2.72852 -6.67578 4.87598c-5.30469 6.20996 -7.25488 13.7773 -5.84863 22.7012c0.743164 3.89746 1.5791 7.76172 2.5127 11.5928c1.71094 6.41406 3.38672 12.8438 5.02734 19.2881
c3.13672 12.9727 6.28516 25.9375 9.44922 38.8984c1.54883 6.16797 3.16602 12.3076 4.85352 18.4219c3.02344 11.0156 6.60742 21.7432 10.749 32.1777c3.09277 7.66895 6.79199 14.8223 11.0928 21.4561c11.9395 17.7939 27.2393 25.8662 45.9004 24.2158
c12.6611 -0.873047 23.5547 -6.72656 32.6816 -17.5518c5.01953 -6.27344 9.31055 -13.2275 12.8711 -20.8584c3.94043 -8.63379 7.35059 -17.5898 10.2285 -26.874c2.95508 -9.6377 5.67188 -19.3896 8.14844 -29.2549c3.26172 -13.2793 6.5 -26.5723 9.70703 -39.8711
c1.21484 -4.76758 2.42773 -9.53516 3.6416 -14.3047c1.33594 -5.41016 2.5498 -10.8633 3.6416 -16.3613c0.539062 -2.55957 0.771484 -5.1582 0.694336 -7.7998c-0.801758 -8.30957 -4.05273 -14.6113 -9.75293 -18.9092
c-1.84375 -1.39258 -3.83691 -2.22559 -5.98242 -2.49219c-3.05273 -0.405273 -6.11328 -0.583008 -9.18848 -0.541016c-41.1738 -0.0537109 -82.3486 -0.0742188 -123.522 -0.0537109v0zM159.597 454.021zM159.414 451.86zM289.229 429.375
c0 16.9268 -5.8291 32.3291 -19.2803 45.7803c-7.6123 7.6123 -15.2998 12.2773 -22.501 15.1133l-20.4375 8.0498c25.2441 -4.36035 25.2441 -4.36035 28.5596 -5.34961c0.364258 0.124023 0.84082 0.222656 1.31836 0.134766
c31.1836 -5.74414 54.8447 -19.6328 71.792 -36.5801c8.7793 -8.78027 14.8008 -17.1699 20.4053 -26.8799c-14.6084 -25.3613 -39.5869 -53.9717 -93.4961 -63.5781l-11.5889 -2.06543c10.4746 6.42969 16.3154 9.58008 26.2344 19.6865
c13.7598 13.7598 18.9941 29.4521 18.9941 45.6885zM222.611 378.533c-14.2236 0 -26.7217 4.87305 -37.0615 15.2129c-15.0312 15.0332 -18.2559 35.2246 -11.626 53.5791l0.770508 2.13086l0.512695 -0.189453c10.4209 15.3799 10.4209 15.3799 11.0303 16.2676
c16.2871 10.6621 16.2871 10.6621 16.5029 10.6895c11.501 4.83691 36.2783 9.24023 57.0381 -11.5205c10.3213 -10.3203 14.7041 -22.3291 14.748 -35.1357c0 -8.89746 -1.88379 -22.6172 -14.751 -35.4844c-6.03906 -6.03906 -17.5361 -15.5498 -37.1641 -15.5498z
M375.149 429.642c-8.00098 14.2002 -46.9238 82.6211 -149.449 82.6211c-61.6562 0 -100.325 -24.6543 -123.281 -47.6104c-9.77637 -9.77637 -18.2119 -20.4854 -26.4932 -35.0098c7.3252 -12.8428 15.4844 -23.9092 25.7432 -34.1689
c38.0742 -38.0742 84.8887 -48.2529 124.031 -48.2529c18.8223 0 76.8037 1.19824 123.759 48.1543c13.4297 13.4297 21.4688 26.7471 25.6904 34.2666zM195.839 488.928c-6.13477 -2.30762 -15.7412 -8.38574 -19.4775 -12.1221
c-4.99219 -4.99219 -4.99219 -4.99219 -6.13477 -6.89746c-0.957031 -1.59766 -1.16406 -1.79883 -2.41309 -2.92578c-1.75684 -1.58594 -2.34668 -2.30371 -3.00586 -3.98438c-0.517578 -1.31738 -3.61426 -6.9248 -4.48242 -9.33691
c0.115234 -0.566406 0.0341797 -1.12793 -0.117188 -1.52539c-7.06641 -18.502 -7.41113 -46.3008 14.7285 -68.4404c5.74902 -5.74902 11.7432 -9.7666 17.498 -12.5898l15.8203 -7.76074l-17.2666 3.53711c-31.833 6.52246 -53.8496 21.2197 -68.584 35.9541
c-8.74219 8.74316 -14.8193 17.1406 -20.4199 26.8057c10.5117 18.2178 33.9473 52.9287 92.6562 63.6045z" />
  </g>

</svg>
