<?xml version="1.0" standalone="no"?>
<!DOCTYPE svg PUBLIC "-//W3C//DTD SVG 1.1//EN" "http://www.w3.org/Graphics/SVG/1.1/DTD/svg11.dtd" >
<svg xmlns="http://www.w3.org/2000/svg" xmlns:xlink="http://www.w3.org/1999/xlink" version="1.1" viewBox="-10 0 1009 1000">
  <g transform="matrix(1 0 0 -1 0 800)">
   <path fill="currentColor"
d="M30.3242 741.553h55.5146l17.1611 52.2256l17.1602 -52.2256h55.5156l-44.8672 -32.2959l17.1611 -52.2246l-44.9697 32.2959l-44.9707 -32.2959l17.1611 52.2246zM271 608l-12 60c128.725 89.7881 355.203 55.3633 442.457 48.5605
c0 -0.0107422 0.000976562 -0.0214844 0.000976562 -0.0322266c27.4463 0.582031 75.1855 -1.32129 107.268 -33.4033c40.1396 -40.1396 38.6152 -108.841 37.5254 -169.365c-0.395508 -21.9258 -0.433594 -33.2402 -0.22168 -41.9463
c26.3789 -43.8281 72.168 -89.959 89.3252 -129.607c6.95117 -16.0635 5.49219 -24.7637 2.64551 -40.2051l-12 -14l-79.501 -63.5771v-212.431c1.93945 -31.0869 1.82422 -79.2412 -27.416 -108.48c-26.0322 -26.0322 -182.507 -12.0195 -220.584 -13.0049
l-2.90137 0.0126953c-103.732 -7.2998 -296.108 50.6025 -326.603 92.1719c-18.5059 25.2275 -31.4014 41.2529 -57.9951 55.3086v70.0371c25.8174 -16.2627 49.624 -17.8066 70.1904 -60.6357c44.2188 -92.082 349.455 -105.734 451.309 -108.438l-0.499023 -0.962891
c50 12 34.1514 4.48145 42.5352 13.5361c19.1768 20.7119 3.97852 41.9688 5.50781 57.9648h-0.541992v2.14941c-0.253906 0.990234 -0.500977 1.94141 -0.738281 2.84863h0.738281v207.174v3.4873v1.33887h1.58203l104 88h1.13281
c4.9834 45.8955 -62.8379 92.1289 -94.2158 139.501l-3 4l-1 1c-2.02051 3.99219 0.0439453 4.02539 -2.08398 11.5605c-0.0371094 0.130859 -0.189453 0.24707 -0.174805 0.367188l0.258789 2.07227l0.0644531 1.49902
c0.00976562 0.226562 0.150391 3.89551 0.242188 6.24414c3.11426 79.1523 5.19727 173.389 -83.8154 173.771c-136.35 16.7461 -373.536 9.53418 -431.49 -46.5137zM534.8 296.303h6.8252c0.168945 -4.7041 0.336914 -9.4082 0.503906 -14.1123
c26.0039 0.910156 49.5127 11.8633 66.7461 29.0957c6.26367 6.26465 11.6992 13.3584 16.123 21.1016l-10.9209 5.79492l-1.34375 -2.12793l-66.9785 31.6025c-2.18555 -1.19727 -4.69336 -1.87695 -7.36133 -1.87695c-8.47363 0 -15.3408 6.86816 -15.3408 15.3418
c0 6.47559 4.01172 12.0127 9.68457 14.2646v71.541h1.5752v13.0723c-13.3877 -0.629883 -51.5088 -5.80078 -77.0107 -43.043c3.83594 -2.21387 7.67188 -4.42871 11.5078 -6.64355l-3.9375 -6.82031c-3.91992 2.26367 -7.83984 4.52637 -11.7607 6.79004
c-8.3125 -14.4893 -13.0654 -31.2734 -13.0654 -49.1641c0 -17.4473 4.54883 -33.8662 12.5283 -48.1289c4.05469 2.34082 8.11035 4.68262 12.165 7.02344l3.93848 -6.82031c-3.99609 -2.30664 -7.99219 -4.61426 -11.9883 -6.9209
c17.1367 -25.6309 45.8867 -42.8506 78.6143 -44.0752c-0.167969 4.70215 -0.335938 9.4043 -0.503906 14.1055zM647.275 381.121c0 -59.7451 -48.4902 -108.235 -108.238 -108.235c-59.7471 0 -108.237 48.4902 -108.237 108.237
c0 59.3955 48.2012 107.879 107.593 108.235h0.216797c59.7559 0 108.428 -48.4941 108.666 -108.237zM542.188 480.062v-13.1338h1.03125l2.58496 -72.3691c4.19434 -2.31836 7.1875 -6.54297 7.81152 -11.5059l65.9648 -36.1582l-1.84863 -2.92676l10.4463 -5.54492
c6.25293 12.9326 9.78613 27.4141 9.85156 42.7021c0 18.4668 -5.06543 35.7529 -13.8809 50.5537c-3.81738 -2.38965 -7.63379 -4.7793 -11.4512 -7.16895l-3.41309 5.91309c3.72363 2.33105 7.44824 4.66211 11.1729 6.99316
c-7.6377 11.0215 -32.6543 41.2178 -78.2695 42.6455zM285.454 492.133c1.44727 -25.7158 -10.7734 -98.9639 -3.58398 -102.808c7.05664 -75.8721 80.5146 -146.763 80.6084 -144.026l-12.4473 -8.29883c-28.0049 30.5449 -59.252 60.7734 -83.0625 143.541
c-5.2998 -36.4434 -28.0645 -77.2617 -48.5176 -103.238c-12.4463 -15.8047 -17.7812 -28.4492 -28.4512 -40.3027l-14.2246 11.2607c16.0039 20.7451 24.9863 34.1162 35.5635 48.0088c54.002 70.9385 56.2598 164.074 55.8428 213.415
c5.02441 -0.110352 10.0488 -0.220703 15.0752 -0.332031c2.82617 -0.0615234 2.94141 -2.80957 2.99121 -3.98145c0.00585938 -0.133789 -0.183594 -6.30859 0.206055 -13.2383zM140.307 181.19l0.109375 -19.1904h273.584l-0.110352 19.1904h-273.583z" />
  </g>

</svg>
