<?xml version="1.0" standalone="no"?>
<!DOCTYPE svg PUBLIC "-//W3C//DTD SVG 1.1//EN" "http://www.w3.org/Graphics/SVG/1.1/DTD/svg11.dtd" >
<svg xmlns="http://www.w3.org/2000/svg" xmlns:xlink="http://www.w3.org/1999/xlink" version="1.1" viewBox="-10 0 1051 1000">
  <g transform="matrix(1 0 0 -1 0 800)">
   <path fill="currentColor"
d="M269.499 652.326l-12 60c128.725 89.7881 355.203 55.3633 442.457 48.5605c0 -0.0107422 0.000976562 -0.0214844 0.000976562 -0.0322266c27.4463 0.582031 75.1855 -1.32129 107.268 -33.4033c40.1396 -40.1396 38.6152 -108.841 37.5254 -169.365
c-0.395508 -21.9258 -0.433594 -33.2402 -0.22168 -41.9463c26.3789 -43.8281 72.168 -89.959 89.3252 -129.607c6.95117 -16.0635 5.49219 -24.7637 2.64551 -40.2051l-12 -14l-79.501 -63.5771v-212.431c1.93945 -31.0869 1.82422 -79.2412 -27.416 -108.48
c-26.0322 -26.0322 -182.507 -12.0195 -220.584 -13.0049l-2.90137 0.0126953c-103.732 -7.2998 -296.108 50.6025 -326.603 92.1719c-18.5059 25.2275 -31.4014 41.2529 -57.9951 55.3086v70.0371c25.8174 -16.2627 49.624 -17.8066 70.1904 -60.6357
c44.2188 -92.082 349.455 -105.734 451.309 -108.438l-0.499023 -0.962891c50 12 34.1514 4.48145 42.5352 13.5361c19.1768 20.7119 3.97852 41.9688 5.50781 57.9648h-0.541992v2.14941c-0.253906 0.990234 -0.500977 1.94141 -0.738281 2.84863h0.738281v207.174v3.4873
v1.33887h1.58203l104 88h1.13281c4.9834 45.8955 -62.8379 92.1289 -94.2158 139.501l-3 4l-1 1c-2.02051 3.99219 0.0439453 4.02539 -2.08398 11.5605c-0.0371094 0.130859 -0.189453 0.24707 -0.174805 0.367188l0.258789 2.07227l0.0644531 1.49902
c0.00976563 0.226562 0.150391 3.89551 0.242188 6.24414c3.11426 79.1523 14.1973 176.389 -74.8154 176.771c-136.35 16.7461 -373.536 9.53418 -431.49 -46.5137zM28.8535 772.847h55.5146l17.1611 52.2256l17.1602 -52.2256h55.5156l-44.8672 -32.2959l17.1611 -52.2246
l-44.9697 32.2959l-44.9707 -32.2959l17.1611 52.2246zM474.552 113.795c0 -1.44434 1.20801 -2.5 2.5 -2.5l199.075 -0.803711c1.38086 0 2.50684 1.13086 2.50684 2.47559l-1.01855 86.5225c3.24414 -0.463867 6.45898 -1.21289 9.73047 -1.39062l15.9258 -0.861328
l-24.6377 28.6875v46.8281c0 1.38477 -1.12988 2.50195 -2.3916 2.50195l-114.541 -2.49609l-1.16797 21.5986l-0.938477 7.31152l-28.5488 -25.8301l-0.794922 0.00195312s-53.1846 0.21582 -53.1924 0.21582c-1.44727 0 -2.50684 -1.20605 -2.50684 -2.50098v-159.761z
M484.878 121.612v144.109l45.8516 -0.196289l30.9668 -26.1143c0.525391 8.77051 0.714844 17.877 1.02539 26.8633l105.586 -1.35742v-38.1836l-26.9062 -29.5107l13.2471 -1.75586l15.9863 2.45996l-2.38965 -77.1016zM586.394 471.471h6.08398
c0.150391 -4.19336 0.300781 -8.38672 0.449219 -12.5791c23.1816 0.810547 44.1377 10.5752 59.499 25.9365c5.58496 5.58398 10.4287 11.9082 14.373 18.8105l-9.73535 5.16504l-1.19727 -1.89648l-59.707 28.1709c-1.94824 -1.06641 -4.18457 -1.67285 -6.56152 -1.67285
c-7.55371 0 -13.6768 6.12305 -13.6768 13.6768c0 5.77246 3.57617 10.708 8.63477 12.7158v63.7734h1.40332v11.6543c-11.9346 -0.5625 -45.917 -5.17188 -68.6494 -38.3701c3.41992 -1.97461 6.83887 -3.94824 10.2578 -5.92285l-3.51074 -6.08008
c-3.49316 2.01758 -6.98828 4.03516 -10.4824 6.05176c-7.41016 -12.9141 -11.6475 -27.877 -11.6475 -43.8252c0 -15.5527 4.05566 -30.1895 11.168 -42.9033c3.61523 2.08691 7.22949 4.17383 10.8457 6.26074l3.50977 -6.08008
c-3.5625 -2.05664 -7.12402 -4.11328 -10.6865 -6.16992c15.2764 -22.8477 40.9043 -38.1982 70.0781 -39.2891c-0.150391 4.19043 -0.298828 8.38281 -0.448242 12.5732zM686.657 547.08c0 -53.2578 -43.2246 -96.4844 -96.4873 -96.4844
c-53.2598 0 -96.4854 43.2266 -96.4854 96.4873c0 52.9473 42.9688 96.166 95.9121 96.4844h0.192383c53.2676 0 96.6562 -43.2305 96.8682 -96.4873zM592.979 635.28v-11.709h0.918945l2.30469 -64.5117c3.74023 -2.06641 6.4082 -5.83203 6.96484 -10.2568
l58.8018 -32.2314l-1.64746 -2.61035l9.31152 -4.94238c5.57422 11.5283 8.72461 24.4375 8.78223 38.0654c0 16.4619 -4.51562 31.8721 -12.374 45.0645c-3.40234 -2.12891 -6.80566 -4.25977 -10.208 -6.38867l-3.04297 5.26953
c3.31934 2.07812 6.64062 4.15625 9.96094 6.23438c-6.80859 9.8252 -29.1094 36.7432 -69.7725 38.0166zM292 288l-74.958 144.195l12 5.06934l64 -115.75l56.7354 117.055l16.2227 -6.56934z" />
  </g>

</svg>
