<?xml version="1.0" standalone="no"?>
<!DOCTYPE svg PUBLIC "-//W3C//DTD SVG 1.1//EN" "http://www.w3.org/Graphics/SVG/1.1/DTD/svg11.dtd" >
<svg xmlns="http://www.w3.org/2000/svg" xmlns:xlink="http://www.w3.org/1999/xlink" version="1.1" viewBox="-10 0 1015 1000">
  <g transform="matrix(1 0 0 -1 0 800)">
   <path fill="currentColor"
d="M828.399 483.872c0 9.49878 0.360099 25.4826 0.360099 28.905l-0.318652 61.3747l-8.69455 54.78l-24.0577 41.7601l-29.8355 19.1251l-33.9409 8.02542l-47.9505 1.85133v0.765382l-107.704 8.96128l-161.614 -4.8437l-135.511 -48.0118l4.97421 -24.8711
l90.1513 34.2037l168.519 13.9909l163.859 -8.05849l72.0585 -32.0852l24.6852 -76.5829c-11.2968 -92.7231 -11.5388 -94.7093 -10.6225 -98.1968c0.272553 -1.03738 0.408327 -1.98777 0.495372 -2.92219c0.487753 -0.641757 1.13403 -1.58506 1.4862 -2.05622
l30.4464 -40.7334l38.0432 -60.0682l23.93 -33.502l-96.7113 -80.2498l-3.19974 -219.288c0.962733 -7.56244 2.78458 -22.0112 5.01798 -45.877c-0.12894 -0.269919 -9.65147 -20.9678 -12.8349 -27.02c-1.80565 -3.43278 -3.36365 -6.39475 -8.94453 -11.1259
c-28.726 -6.87192 -37.6748 -9.01268 -53.7943 -9.01268c-3.38415 0 -6.77838 0.14333 -10.1737 0.446144l-127.95 -3.2205l-189.706 31.9736l-119.91 72.0259l-21.8729 31.5454c-0.18608 0.126152 -14.9542 10.3475 -18.5829 12.6523v-31.4635
c5.41685 -3.87145 13.5068 -7.36272 24.4398 -17.2503c7.32645 -6.62591 2.09556 -4.45645 10.6241 -11.9264c1.03002 -0.902171 1.03002 -0.902171 17.2005 -21.8062l70.2643 -41.1391l123.979 -35.7692l40.8353 -3.74581
c52.8258 -4.90757 59.0669 -6.73248 83.0467 -7.42728l68.08 -1.97257l89.7606 0.254271l51.1066 12.4914l15.1376 25.2075l6.27671 34.16l-0.268638 82.9487l0.0291888 84.2282l-0.00582149 87.5189l84.7837 67.8016l7.68593 8.96692l1.11464 7.19504
c0.44913 7.61262 -1.52476 12.8022 -3.31214 18.1783l-23.3304 38.8443l-33.0243 43.448l-34.3179 48.9016c-0.202711 16.1296 -0.202711 16.1296 -0.202711 17.6951zM33.2949 712.521h55.5146l17.1611 52.2256l17.1602 -52.2256h55.5156l-44.8672 -32.2959
l17.1611 -52.2246l-44.9697 32.2959l-44.9707 -32.2959l17.1611 52.2246zM417.896 538.801zM417.714 536.64zM502.3 448.779c17.2114 10.565 45.2285 27.7629 45.2285 65.375c0 35.927 -27.288 55.1859 -41.7812 60.8936l-20.4375 8.0498
c25.2441 -4.36035 25.2441 -4.36035 28.5596 -5.34961c1.06912 0.364017 60.4506 -6.03905 93.5156 -63.3252c-14.6084 -25.3613 -39.5869 -53.9717 -93.4961 -63.5781zM532.826 514.347c0 -28.6757 -23.4606 -51.0342 -51.915 -51.0342
c-31.1962 0 -63.1612 28.7647 -47.917 70.9229l0.512695 -0.189453c10.4209 15.3799 10.4209 15.3799 11.0303 16.2676c16.2871 10.6621 16.2871 10.6621 16.5029 10.6895c33.3427 14.0228 71.6605 -10.0582 71.7861 -46.6562zM334.226 514.422
c17.6227 -30.8968 60.4073 -82.4219 149.774 -82.4219c36.2935 0 108.704 9.84625 149.449 82.4209c-8.00098 14.2002 -46.9238 82.6211 -149.449 82.6211c-18.5997 0 -102.955 -0.504439 -149.774 -82.6201zM454.139 573.707
c-16.3385 -6.14579 -30.6031 -21.623 -35.5137 -35.2666c0.115234 -0.566406 0.0341797 -1.12793 -0.117188 -1.52539c-12.5295 -32.8061 3.38109 -66.8792 32.2266 -81.0303l15.8203 -7.76074l-17.2666 3.53711c-28.4546 5.83023 -65.1549 21.6031 -89.0039 62.7598
c10.5117 18.2178 33.9473 52.9287 92.6562 63.6045zM563.982 201.867zM471.208 208.517v-5.01562l-60.0068 -33.3789v71.0234zM624.681 241.288v-71.7168l-60.0078 32.6299v5.78125zM563.076 217.694c-1.9389 5.20996 -14.1034 34.1436 -45.1357 34.1436
c-4.89358 0 -32.9876 -1.45197 -45.1357 -34.1494l-70.6592 38.5977v-101.478l70.5713 38.9756c1.89773 -5.27597 13.8725 -34.6475 45.2754 -34.6475c4.83487 0 32.6377 1.43014 44.998 33.6699l70.9004 -38.4502l-0.157227 102.396zM481.338 205.547
c0 20.501 16.6396 37.1396 37.1396 37.1396c20.4375 0 37.125 -16.5527 37.1406 -37.1523c-0.300781 -20.4268 -17.085 -37.1104 -37.6943 -37.124c-20.1973 0.301758 -36.5859 16.9365 -36.5859 37.1367zM633.733 256.753l-0.00683594 4.67578l4.09863 -2.41504z
M633.891 154.356l4.08594 -2.21484l-4.07812 -2.43359zM402.146 154.809v-4.68262l-4.09668 2.41992zM402.146 256.286l-4.08594 2.23242l4.08594 2.4248v-4.65723zM658 116zM371.743 308.582zM318.285 210.168zM526.572 81.4951zM526.197 69.5439zM367.053 113.982z
M458.801 85.1191zM709.061 232.42zM318.285 210.168zM709.061 232.42zM669.593 310.444c-11.2767 11.5408 -47.2192 48.3252 -87.29 48.3252c-34.2722 0 -49.2406 -20.2946 -49.7461 -20.4785c-6.12598 -2.23438 -12.1289 -3.04297 -17.6074 -3.04297
c-5.17188 0 -14.5703 0.763672 -24.7461 5.33594c-6.91406 8.41602 -18.6074 16.0762 -38.2686 16.0762c-23.3325 0 -60.9175 -12.9727 -75.46 -46.9951h-2.03613l-53.3291 -72.46h-2.55176v-3.46582c-0.345703 -0.469727 -0.691406 -0.938477 -1.03711 -1.40918h0.557617
l-5.90625 -22.1484l-0.664062 0.00976562c-0.119141 -2.26758 -0.333008 -3.57031 -1.04883 -6.38867h0.859375c-0.0205078 -2.50391 -0.0205078 -2.50391 -0.0205078 -2.75879c0 -16.1924 6.9873 -48.9619 53.5596 -87.4795
c49.1855 -40.6826 104.811 -45.168 150.924 -45.168c75.582 0 106.395 9.47359 151.623 45.2109c55.25 43.6562 54.6348 56.5361 56.1543 88.4453c0 0 -6.87988 28.0469 -9.28711 35.501l-39.4873 67.4766c-4.4502 4.64551 -4.4502 4.64551 -4.89844 5.41406h-0.292969z
M392.428 301.361c12.5193 29.4703 43.3431 37.8926 58.7363 37.8926c4.24805 0 13.6895 0 24.4541 -7.4082l-0.0830078 -1.02734c0.621094 -0.253906 1.61719 -0.72168 2.58398 -1.64062c9.12109 -8.66699 23.1387 -12.7363 36.4473 -12.7363
c6.21165 0 30.0758 1.14069 35.7969 18.3906c6.83496 4.66406 17.6924 9.75391 32.5107 9.75391c19.665 0 28.8584 -8.56445 35.9092 -15.1289c18.6748 -17.3932 28.6131 -21.7556 29.6797 -22.9609l0.34082 0.0136719l44.376 -69.9941
c0 -0.119141 -0.00292969 -0.239258 -0.00292969 -0.359375c3.86596 -14.484 10.8271 -40.5644 10.8271 -48.2549c0 -18.4277 -13.71 -33.3574 -53.2031 -65.6309c-36.3926 -29.7363 -62.7461 -39.9375 -142.168 -39.9375c-42.9961 0 -77.6543 5.28223 -118.131 33.6152
c-49.8955 34.9277 -56.6045 60.6494 -56.6045 83.5547c0 3.94027 0 3.94027 7.83496 33.8096l48.627 68.8457c0.69043 -0.265625 1.37891 -0.532227 2.06836 -0.796875z" />
  </g>

</svg>
