<?xml version="1.0" standalone="no"?>
<!DOCTYPE svg PUBLIC "-//W3C//DTD SVG 1.1//EN" "http://www.w3.org/Graphics/SVG/1.1/DTD/svg11.dtd" >
<svg xmlns="http://www.w3.org/2000/svg" xmlns:xlink="http://www.w3.org/1999/xlink" version="1.1" viewBox="-10 0 1022 1000">
  <g transform="matrix(1 0 0 -1 0 800)">
   <path fill="currentColor"
d="M837.296 505.727c0 9.49902 0.360352 25.4824 0.360352 28.9053l-0.318359 61.375l-8.69531 54.7793l-24.0576 41.7607l-29.835 19.125l-33.9414 8.02539c-15.9834 0.617188 -31.9668 1.23438 -47.9502 1.85059v0.765625l-107.704 8.96191l-161.613 -4.84375
l-135.512 -48.0117l4.97461 -24.8711l90.1514 34.2031l168.52 13.9912l163.858 -8.05859l72.0586 -32.085l24.6846 -76.583c-11.2959 -92.7236 -11.5381 -94.709 -10.6221 -98.1973c0.272461 -1.03711 0.408203 -1.9873 0.495117 -2.92188
c0.488281 -0.641602 1.13379 -1.58496 1.48633 -2.05664l30.4463 -40.7334l38.0439 -60.0674c7.97656 -11.168 15.9531 -22.335 23.9297 -33.502l-96.7119 -80.25l-3.19922 -219.288c0.962891 -7.5625 2.78418 -22.0117 5.01758 -45.877
c-0.128906 -0.270508 -9.65137 -20.9678 -12.835 -27.0205c-1.80566 -3.43262 -3.36328 -6.39453 -8.94434 -11.126c-28.7256 -6.87109 -37.6748 -9.0127 -53.7939 -9.0127c-3.38477 0 -6.77832 0.143555 -10.1738 0.446289l-127.95 -3.2207l-189.706 31.9736
l-119.909 72.0264c-7.29102 10.5146 -14.582 21.0303 -21.873 31.5449c-0.186523 0.126953 -14.9541 10.3477 -18.583 12.6523v-31.4629c5.41699 -3.87207 13.5068 -7.36328 24.4395 -17.251c7.32715 -6.625 2.0957 -4.45605 10.624 -11.9258
c1.03027 -0.902344 1.03027 -0.902344 17.2012 -21.8066l70.2637 -41.1387l123.979 -35.7695l40.835 -3.74512c52.8262 -4.9082 59.0674 -6.7334 83.0469 -7.42773l68.0801 -1.97266l89.7607 0.253906l51.1064 12.4922l15.1377 25.207l6.27637 34.1602l-0.268555 82.9482
l0.0292969 84.2285l-0.00585938 87.5186l84.7832 67.8018l7.68652 8.9668l1.11426 7.19531c0.449219 7.6123 -1.52441 12.8027 -3.31152 18.1787l-23.3311 38.8438l-33.0244 43.4482l-34.3174 48.9014c-0.203125 16.1299 -0.203125 16.1299 -0.203125 17.6953z
M42.1914 734.375h55.5146l17.1611 52.2256l17.1602 -52.2256h55.5156l-44.8672 -32.2959l17.1611 -52.2246l-44.9697 32.2959l-44.9707 -32.2959l17.1611 52.2246zM426.205 225.233l-62.2305 56.3711l10.084 7.42773l48.2148 -44.2871l85.9766 108.902l13.6973 -6.29395z
M573.121 200.698zM326.4 366.683zM280.326 281.861zM459.848 170.96zM459.522 160.659zM322.359 198.96zM401.434 174.083zM617.129 301.039zM280.326 281.861zM617.129 301.039zM623.203 306.819c3.18066 -9.63574 5.22852 -20.0645 7.90527 -30.0537l1.86523 -0.0302734
c-1.41895 -29.9316 -1.95215 -41.2031 -50.5557 -79.6084c-36.166 -28.5781 -62.6436 -38.6436 -122.83 -39.3223c-41.3984 -0.466797 -94.124 1.08301 -140.346 39.3115c-18.2148 15.0645 -47.127 44.2178 -46.8574 77.335h-1.29688
c1.41602 5.30859 1.41602 5.30859 1.55078 9.38477l0.949219 -0.015625l4.05859 15.2197h-1.78223c0.924805 1.25586 1.85059 2.5127 2.77539 3.76953v4.27637h3.14746l45.9648 62.4521h1.45801c15.9033 37.1875 76.8271 55.1016 100.49 26.2959
c3.36035 -1.50977 18.5986 -7.58984 34.6436 -1.74023c8.26562 11.0625 31.4883 21.7373 57.6211 16.3184c25.2754 -5.24121 50.7715 -28.7539 61.958 -40.2021h0.536133c0.394531 -0.580078 0.664062 -1.24609 1.16016 -1.75488l3.51465 -3.66699l33.5615 -57.3496
c0.500977 0.0429688 0.896484 0.0107422 0.817383 -0.352539zM295.766 276.46c-0.556641 -19.085 1.55469 -41.7822 47.9062 -74.2285c39.332 -27.5322 71.9219 -29.5098 116.666 -28.4023c52.1309 1.3418 73.8828 8.04297 105.363 33.7656
c41.8613 34.208 48.7969 44.9287 43.7627 65.0234l-6.65723 26.5742l-0.244141 -0.436523c0.0146484 1.6084 -1.06055 3.65332 -1.04688 5.26172l-37.3525 58.9141c-1.00293 -0.0390625 -0.202148 0.871094 -1.2041 0.832031
c-23.1211 15.2432 -25.5859 21.8477 -34.2227 26.9414c-13.2998 7.84277 -33.7471 6.26367 -46.7637 -2.62012c-6.48047 -19.5215 -46.6865 -22.6494 -65.2129 -5.0459c-1.72656 1.64062 -3 0.727539 -2.83691 2.74023
c-19.8037 13.6279 -56.8975 -0.101562 -67.3789 -24.7891l-1.27051 -2.99414l-2.11914 0.81543l-40.8496 -57.8311zM729.145 44h-164.145l0.108398 81.4463c-6.06152 -2.55273 -12.1221 -5.10645 -18.1826 -7.66016v24.3535
c109.732 45.2383 109.732 45.2383 109.742 45.2344l0.199219 0.398438c8.13965 -4.72266 8.13965 -4.72266 24.6504 -13.2832l-1.01953 -0.429688l65.0605 -37.7578l0.4375 -26.2344c-5.51172 3.25977 -11.0234 6.52148 -16.5352 9.78125zM587.586 66.6074h119.036
l0.566406 66.417l-51.6074 30.5303l-68.3076 -28.7725zM-2131.07 657.899zM-867.938 697.485zM-2131.07 657.899zM-867.938 697.485zM-2131.07 657.899zM-867.938 697.485zM-2131.07 657.899zM-867.938 697.485zM487.152 469.48h-137.855l-29.375 123.648l53.3105 -38.8477
l42.1768 87.0391l42.0479 -87.0391l52.9922 38.3994zM361.394 485.122l107.827 -0.691406l18.6621 73.2676l-37.3242 -27.6484l-34.5605 78.7969l-35.9424 -75.3408l-38.708 28.3389z" />
  </g>

</svg>
