<?xml version="1.0" standalone="no"?>
<!DOCTYPE svg PUBLIC "-//W3C//DTD SVG 1.1//EN" "http://www.w3.org/Graphics/SVG/1.1/DTD/svg11.dtd" >
<svg xmlns="http://www.w3.org/2000/svg" xmlns:xlink="http://www.w3.org/1999/xlink" version="1.1" viewBox="-10 0 1051 1000">
  <g transform="matrix(1 0 0 -1 0 800)">
   <path fill="currentColor"
d="M828.399 483.872c0 9.49878 0.360099 25.4826 0.360099 28.905l-0.318652 61.3747l-8.69455 54.78l-24.0577 41.7601l-29.8355 19.1251l-33.9409 8.02542l-47.9505 1.85133v0.765382l-107.704 8.96128l-161.614 -4.8437l-135.511 -48.0118l4.97421 -24.8711
l90.1513 34.2037l168.519 13.9909l163.859 -8.05849l72.0585 -32.0852l24.6852 -76.5829c-12.0195 -98.6551 -12.0195 -98.6551 -8.64097 -103.175l30.4464 -40.7334l38.0432 -60.0682l23.93 -33.502l-96.7113 -80.2498l-3.19974 -219.288
c0.962733 -7.56244 2.78458 -22.0112 5.01798 -45.877c-15.8013 -33.078 -15.8013 -33.078 -21.7795 -38.1459c-28.726 -6.87192 -37.6748 -9.01268 -53.7943 -9.01268c-3.38415 0 -6.77838 0.14333 -10.1737 0.446144l-127.95 -3.2205l-189.706 31.9736l-119.91 72.0259
l-21.8729 31.5454c-0.18608 0.126152 -14.9542 10.3475 -18.5829 12.6523v-31.4635c5.41685 -3.87145 13.5068 -7.36272 24.4398 -17.2503c0.324316 -0.293306 6.03353 -5.56267 27.8246 -33.7326l70.2643 -41.1391l123.979 -35.7692l40.8353 -3.74581
c52.8258 -4.90757 59.0669 -6.73248 83.0467 -7.42728l68.08 -1.97257l89.7606 0.254271l51.1066 12.4914l15.1376 25.2075l6.27671 34.16l-0.268638 82.9487l0.0291888 84.2282l-0.00582149 87.5189l84.7837 67.8016l7.68593 8.96692
c1.77472 11.4559 1.98289 12.7996 -2.19749 25.3734l-23.3304 38.8443c-23.3118 29.9188 -45.6511 60.8101 -67.3422 92.3496c-0.202711 16.1296 -0.202711 16.1296 -0.202711 17.6951zM30.3242 741.553h55.5146l17.1611 52.2256l17.1602 -52.2256h55.5156
l-44.8672 -32.2959l17.1611 -52.2246l-44.9697 32.2959l-44.9707 -32.2959l17.1611 52.2246zM427.868 358.131c24.9199 32.3003 40.9492 53.1307 40.418 115.595c7.91091 -0.173866 7.91091 -0.173866 7.98926 -1.90723c0.783732 -23.9038 -4.88579 -49.5 -1.49414 -51.3125
c3.12012 -33.5488 35.6426 -63.6865 35.6426 -63.6865l-5.50391 -3.66797c-12.3818 13.5059 -26.2002 26.8721 -36.7275 63.4707c-3.89764 -26.7979 -33.5524 -62.9354 -34.0342 -63.4707zM326.172 491.211v20.5811l291.458 1.9502v-20.5811zM448.771 599.567l27.5361 32.21
l27.3281 -30.6172l-4.83203 -4.62109l-19.1982 22.541l1.13477 -81.8486l-8.10645 0.368164l0.680664 81.416l-19.627 -23.7236zM526.283 54.4619c0.213867 0.00878906 13.7686 0.000976562 13.7725 0.0078125c-1.43618 6.02424 -5.29253 22.2002 -0.125977 32.502
l9.84668 19.6934c-5.04004 78.1201 -5.04004 78.1201 -5.01172 78.4551c1.65527 19.6543 3.09961 42.5801 1.41211 57.2646c-4.38867 17.4307 -15.2783 13.752 -17.8213 8.17676c-0.987658 -2.16298 -8.42225 -6.22692 -11.2754 -1.93164
c-1.90527 2.87012 -10.7207 16.5205 -10.9521 16.9736c-3.1875 6.24414 -15.4854 10.085 -17.8359 -2.27441c-0.0849609 -0.447266 -0.0849609 -0.447266 -4.28223 -10.6787c-1.56445 -3.81152 -7.07715 -3.65332 -8.41699 0.244141l-7.89648 22.9707
c-2.11133 6.14062 -15.2812 11.0439 -22.2393 -0.583984c-0.12793 -0.383789 -1.06738 -3.23145 -6.14453 -19.1553c-1.10352 -3.46191 -5.70996 -4.25293 -7.89941 -1.31152c-7.32475 9.84233 -18.3743 24.6897 -22.3574 0.770508
c4.27056 -132.136 1.41732 -46.7862 1.43164 -47.2588c2.67773 -19.0869 1.43945 -19.6826 2.83203 -29.8945c4.81808 -18.6237 8.45516 -32.6825 -0.816406 -34.8047c-6.43323 -1.47449 -8.6713 -1.98746 -23.3662 14.9707l-18.5039 21.3506
c-10.3497 6.8324 -10.3497 6.8324 -19.9365 9.5166c-1.8252 -1.00098 -4.00195 -0.397461 -5.65234 -2.04785c-1.19824 -1.19824 -2.58008 -5.21094 -2.14062 -7.48242l10.209 -13.7295c0.575167 -0.539183 39.3351 -37.672 49.5654 -61.3076l7.7207 -17.8984
c13.7118 -21.2486 13.7118 -21.2486 14.2051 -23.3174c2.58496 -10.833 20.8926 -11.3721 21.1328 -11.376l20.0254 -0.357422zM540.057 45.4668h-13.4912c-60.6963 -2.52051 -60.6963 -2.52051 -60.8311 -2.51855l-20.1689 0.360352
c-3.20215 0.0605469 -25.0654 1.08301 -29.5654 17.6914c-7.46458 14.1837 -11.8448 17.7485 -13.8066 22.2939l-7.63672 17.7051l-9.53125 14.9775l-10.8291 14.6709l-14.8721 17.9844c-12.7754 11.3154 -12.7754 11.3154 -13.3359 12.0693l-10.4404 14.04
c-11.9986 16.1355 18.0958 34.9277 41.3857 11.6533c0.169922 -0.170898 -0.21875 -0.527344 18.9297 -21.8164c9.97656 -11.0918 10.3662 -10.7363 11.7988 -12.6777c0.236328 0.0214844 0.561523 0.0615234 0.97168 0.128906l0.482422 0.819336l0.214844 5.37988
c-4.79883 18.1602 -4.74609 17.6582 -4.9082 18.8438c-2.98035 21.6949 -4.41607 78.9277 -4.28906 79.7158c5.02719 31.1607 25.9693 20.2403 33.2578 10.4443c3.5127 11.1465 3.40039 11.0723 4.22363 12.4727c10.8809 18.5068 34.0117 12.4131 38.5898 -0.904297
l3.86328 -11.2383c5.38867 18.1084 27.0645 15.4121 33.9609 2.35742c0.0810547 -0.125 7.74902 -12.0371 8.03711 -12.4824c11.2874 14.589 31.069 3.37018 33.0488 -14.0176c1.84277 -16.0342 0.304688 -38.9639 -1.35645 -58.7246l4.99707 -77.4463
c0.101562 -1.57422 -0.208008 -3.16992 -0.928711 -4.61133l-9.62891 -19.2578c-3.00847 -11.6419 -3.00847 -11.6419 0.609375 -26.8164c1.34863 -5.65332 -2.93555 -11.0967 -8.75098 -11.0967z" />
  </g>

</svg>
