<?xml version="1.0" standalone="no"?>
<!DOCTYPE svg PUBLIC "-//W3C//DTD SVG 1.1//EN" "http://www.w3.org/Graphics/SVG/1.1/DTD/svg11.dtd" >
<svg xmlns="http://www.w3.org/2000/svg" xmlns:xlink="http://www.w3.org/1999/xlink" version="1.1" viewBox="-10 0 1009 1000">
  <g transform="matrix(1 0 0 -1 0 800)">
   <path fill="currentColor"
d="M828.399 483.872c0 9.49878 0.360099 25.4826 0.360099 28.905l-0.318652 61.3747l-8.69455 54.78l-24.0577 41.7601l-29.8355 19.1251l-33.9409 8.02542l-47.9505 1.85133v0.765382l-107.704 8.96128l-161.614 -4.8437l-135.511 -48.0118l4.97421 -24.8711
l90.1513 34.2037l168.519 13.9909l163.859 -8.05849l72.0585 -32.0852l24.6852 -76.5829c-11.2968 -92.7231 -11.5388 -94.7093 -10.6225 -98.1968c0.272553 -1.03738 0.408327 -1.98777 0.495372 -2.92219c0.487753 -0.641757 1.13403 -1.58506 1.4862 -2.05622
l30.4464 -40.7334l38.0432 -60.0682l23.93 -33.502l-96.7113 -80.2498l-3.19974 -219.288c0.962733 -7.56244 2.78458 -22.0112 5.01798 -45.877c-0.12894 -0.269919 -9.65147 -20.9678 -12.8349 -27.02c-1.80565 -3.43278 -3.36365 -6.39475 -8.94453 -11.1259
c-28.726 -6.87192 -37.6748 -9.01268 -53.7943 -9.01268c-3.38415 0 -6.77838 0.14333 -10.1737 0.446144l-127.95 -3.2205l-189.706 31.9736l-119.91 72.0259l-21.8729 31.5454c-0.18608 0.126152 -14.9542 10.3475 -18.5829 12.6523v-31.4635
c5.41685 -3.87145 13.5068 -7.36272 24.4398 -17.2503c7.32645 -6.62591 2.09556 -4.45645 10.6241 -11.9264c1.03002 -0.902171 1.03002 -0.902171 17.2005 -21.8062l70.2643 -41.1391l123.979 -35.7692l40.8353 -3.74581
c52.8258 -4.90757 59.0669 -6.73248 83.0467 -7.42728l68.08 -1.97257l89.7606 0.254271l51.1066 12.4914l15.1376 25.2075l6.27671 34.16l-0.268638 82.9487l0.0291888 84.2282l-0.00582149 87.5189l84.7837 67.8016l7.68593 8.96692l1.11464 7.19504
c0.44913 7.61262 -1.52476 12.8022 -3.31214 18.1783l-23.3304 38.8443l-33.0243 43.448l-34.3179 48.9016c-0.202711 16.1296 -0.202711 16.1296 -0.202711 17.6951zM30.3242 741.553h55.5146l17.1611 52.2256l17.1602 -52.2256h55.5156l-44.8672 -32.2959
l17.1611 -52.2246l-44.9697 32.2959l-44.9707 -32.2959l17.1611 52.2246zM-2149.21 682.149zM-886.08 721.735zM-2149.21 682.149zM-886.08 721.735zM564.384 550.396c0 -3.5127 0.523438 -20.0068 0.523438 -20.21c0 -31.5293 -8.62012 -94.8857 -8.62012 -125.102
c0 -6.90039 0.470703 -11.7832 1.62402 -13.7227c0.231445 -0.155273 1.47266 -0.998047 1.63281 -2.72363c7.08398 -76.1602 61.792 -149.652 93.252 -184.64c5.45996 13.6348 22.0244 25.6992 39.29 25.6992c13.25 0 22.4443 -7.37793 22.4443 -18.6113
c0 -16.8896 -20.0625 -34.9219 -41.1699 -34.9219c-0.101562 0 -0.203125 0.000976563 -0.304688 0.000976563c-2.05469 -1.43164 -6.59082 -4.45508 -16.6016 -11.1289c-0.615234 -0.410156 -1.32617 -0.614258 -2.03613 -0.614258c-1.65234 0 -1.65234 0 -9.96191 9.06152
c-36.8994 39.9473 -77.3652 83.9219 -109.281 186.518c-11.1377 -49.4619 -40.9766 -101.496 -68.0771 -135.913c-18.1025 -22.9902 -37.3564 -59.666 -44.0166 -59.666c-1.27734 0 -1.27734 0 -9.85254 6.78613c-7.99023 6.32324 -13.0371 10.2979 -13.3086 10.5693
c-0.716797 0.716797 -1.0752 1.6582 -1.0752 2.59863c0 0.791016 0.253906 1.58301 0.760742 2.24121c11.9619 15.5049 50.8711 68.6953 51.3945 69.3818c73.167 96.1104 80.0283 221.243 80.0283 294.669c0 4.02051 -0.0205078 7.88672 -0.0517578 11.6172
c0 2.03125 1.64551 3.67383 3.67285 3.67383c0.0410156 0 0.0410156 0 21.875 -0.481445c3.3291 -0.0712891 7.91504 -2.01855 7.91504 -9.50488c0 -0.491211 -0.0556641 -2.35156 -0.0556641 -5.57715z" />
  </g>

</svg>
