<?xml version="1.0" standalone="no"?>
<!DOCTYPE svg PUBLIC "-//W3C//DTD SVG 1.1//EN" "http://www.w3.org/Graphics/SVG/1.1/DTD/svg11.dtd" >
<svg xmlns="http://www.w3.org/2000/svg" xmlns:xlink="http://www.w3.org/1999/xlink" version="1.1" viewBox="-10 0 1008 1000">
  <g transform="matrix(1 0 0 -1 0 800)">
   <path fill="currentColor"
d="M30.3242 741.553h55.5146l17.1611 52.2256l17.1602 -52.2256h55.5156l-44.8672 -32.2959l17.1611 -52.2246l-44.9697 32.2959l-44.9707 -32.2959l17.1611 52.2246zM271 608l-12 60c128.725 89.7881 355.203 55.3633 442.457 48.5605
c0 -0.0107422 0.000976562 -0.0214844 0.000976562 -0.0322266c27.4463 0.582031 75.1855 -1.32129 107.268 -33.4033c40.1396 -40.1396 38.6152 -108.841 37.5254 -169.365c-0.395508 -21.9258 -0.433594 -33.2402 -0.22168 -41.9463
c26.3789 -43.8281 72.168 -89.959 89.3252 -129.607c6.95117 -16.0635 5.49219 -24.7637 2.64551 -40.2051l-12 -14l-79.501 -63.5771v-212.431c1.93945 -31.0869 1.82422 -79.2412 -27.416 -108.48c-26.0322 -26.0322 -182.507 -12.0195 -220.584 -13.0049
l-2.90137 0.0126953c-103.732 -7.2998 -296.108 50.6025 -326.603 92.1719c-18.5059 25.2275 -31.4014 41.2529 -57.9951 55.3086v70.0371c25.8174 -16.2627 49.624 -17.8066 70.1904 -60.6357c44.2188 -92.082 349.455 -105.734 451.309 -108.438l-0.499023 -0.962891
c50 12 34.1514 4.48145 42.5352 13.5361c19.1768 20.7119 3.97852 41.9688 5.50781 57.9648h-0.541992v2.14941c-0.253906 0.990234 -0.500977 1.94141 -0.738281 2.84863h0.738281v207.174v3.4873v1.33887h1.58203l104 88h1.13281
c4.9834 45.8955 -62.8379 92.1289 -94.2158 139.501l-3 4l-1 1c-2.02051 3.99219 0.0439453 4.02539 -2.08398 11.5605c-0.0371094 0.130859 -0.189453 0.24707 -0.174805 0.367188l0.258789 2.07227l0.0644531 1.49902
c0.00976562 0.226562 0.150391 3.89551 0.242188 6.24414c3.11426 79.1523 5.19727 173.389 -83.8154 173.771c-136.35 16.7461 -373.536 9.53418 -431.49 -46.5137zM622 48c0.25 0.0107422 16.0635 0.00195312 16.0684 0.00976562
c-4.87109 20.4297 -3.50293 27.0078 -1.72656 32.7402c0.0166016 0.0517578 1.3916 4.80371 1.5791 5.17871l11.4883 22.9756c-5.88086 91.1396 -5.88086 91.1396 -5.84766 91.5312c1.93164 22.9297 3.61621 49.6768 1.64746 66.8086
c-5.12012 20.335 -17.8242 16.0439 -20.791 9.54004c-1.04883 -2.29883 -2.23047 -2.56934 -5.28125 -3.26855c-2.37012 -2.12012 -6.09961 -1.65625 -7.87305 1.01465c-2.22363 3.34766 -12.5078 19.2734 -12.7783 19.8027
c-3.71875 7.28418 -18.0664 11.7656 -20.8086 -2.6543c-0.0986328 -0.521484 -0.0986328 -0.521484 -4.99609 -12.458c-1.82422 -4.44727 -8.25684 -4.26172 -9.81934 0.285156l-9.21289 26.7988c-2.46289 7.16406 -17.8281 12.8848 -25.9453 -0.681641
c-0.149414 -0.447266 -1.24609 -3.76953 -7.16895 -22.3477c-1.28809 -4.03906 -6.66211 -4.96191 -9.21582 -1.53027c-7.57715 10.1816 -7.57715 10.1816 -7.71094 10.3154c-0.0498047 0.0507812 -8.6543 8.64062 -13.5283 3.76562
c-2.66992 -2.66895 -4.17969 -9.18652 -4.84473 -13.1826c0.0195312 -0.598633 0.137695 -4.13574 0.794922 -21.2881c0.390625 -10.6816 0.865234 -33.5078 0.875977 -33.8467c3.12402 -22.2676 1.67871 -22.9629 3.30371 -34.877
c0.118164 -0.458008 1.01855 -3.93066 5.69727 -21.6426c0.0458984 -0.172852 0.473633 -10.0898 -0.882812 -12.3955c-3.33496 -5.66992 -3.56641 -6.06348 -5.7666 -6.56738c-8.70898 -1.99512 -11.4648 -0.241211 -14.4092 3.84473
c-1.51465 2.10156 -11.8164 12.4258 -12.8516 13.6211l-21.5879 24.9092c-0.583984 0.385742 -3.5791 2.34863 -12.5918 8.05762c-0.527344 0.15918 -3.0498 0.913086 -10.668 3.0459c-2.12891 -1.16895 -4.66797 -0.464844 -6.59473 -2.38965
c-1.39746 -1.39844 -3.00879 -6.0791 -2.49609 -8.73047l11.9102 -16.0176c2.29395 -2.15039 14.4863 -12.7783 15.084 -13.5c17.7969 -21.5225 17.7969 -21.5225 17.8828 -21.6387c12.9346 -17.5234 12.9346 -17.5234 13.0312 -17.6758
c11.6631 -18.3281 11.6631 -18.3281 11.8281 -18.7109l9.00781 -20.8809c2.48828 -3.8584 12.1094 -18.373 12.3662 -18.8633c4.05273 -7.7002 4.05273 -7.7002 4.20605 -8.34082c3.01562 -12.6377 24.375 -13.2676 24.6543 -13.2725l23.3633 -0.416992zM638.069 37.5068
h-15.7402c-70.8125 -2.94141 -70.8125 -2.94141 -70.9697 -2.93848l-23.5303 0.419922c-3.73633 0.0703125 -29.2422 1.26367 -34.4922 20.6406l-3.34277 6.35059c-12.2334 18.5576 -12.0254 17.9434 -12.7656 19.6592l-8.91016 20.6553l-11.1191 17.4736l-12.6338 17.1162
l-17.3506 20.9824c-14.9043 13.2002 -14.9043 13.2002 -15.5596 14.0811l-12.1797 16.3799c-4.3457 5.84277 -1.31152 17.2461 3.6543 22.2119c2.91113 2.91211 5.65723 3.80078 9.72754 4.5498c2.25195 1.00684 4.78613 1.18164 7.13477 0.523438
c11.082 -3.10254 11.3232 -2.93848 13.2705 -4.17188c11.8906 -7.53125 12.793 -7.81641 14.4961 -9.51855c0.198242 -0.199219 -0.254883 -0.614258 22.085 -25.4521c11.6387 -12.9404 12.0938 -12.5254 13.7646 -14.791
c0.276367 0.0253906 0.655273 0.0722656 1.13379 0.150391l0.5625 0.956055l0.250977 6.27637c-5.59863 21.1875 -5.53711 20.6016 -5.72656 21.9844c-1.74902 12.7393 -0.210938 12.9209 -3.35449 35.2441c-0.0488281 0.34375 -0.677734 27.6035 -0.935547 34.6611
c-0.839844 21.9326 -1.04102 21.0674 -0.712891 23.0967c1.02148 6.33496 3.37793 20.9336 15.7119 23.5352c10.2559 2.16309 20.1973 -7.46484 21.5615 -9.29785l1.52734 -2.05176c4.09766 13.0039 3.9668 12.917 4.92676 14.5508
c12.6953 21.5918 39.6807 14.4824 45.0225 -1.05469l4.50684 -13.1113c6.28613 21.126 31.5752 17.9805 39.6211 2.75c0.0947266 -0.145508 9.04004 -14.043 9.37695 -14.5625c8.82617 11.4082 31.1768 13.3311 38.3066 -14.9844
c0.113281 -0.451172 0.197266 -0.90918 0.25 -1.36914c2.14941 -18.707 0.355469 -45.458 -1.58203 -68.5117l5.8291 -90.3555c0.118164 -1.83594 -0.242188 -3.69727 -1.08398 -5.37891l-11.2334 -22.4678c-0.323242 -1.25195 -0.701172 -2.50195 -1.19922 -4.10938
c-1.39844 -4.51172 -2.87402 -7.11035 1.91113 -27.1768c1.57324 -6.5957 -3.42578 -12.9453 -10.21 -12.9453zM519.308 384l-0.348633 17.6367l96.4229 -0.898438l0.618164 -16.7383h-96.6924zM492.965 379.297h-16.9346l1.32422 205.129l14.6689 0.90625z" />
  </g>

</svg>
