<?xml version="1.0" standalone="no"?>
<!DOCTYPE svg PUBLIC "-//W3C//DTD SVG 1.1//EN" "http://www.w3.org/Graphics/SVG/1.1/DTD/svg11.dtd" >
<svg xmlns="http://www.w3.org/2000/svg" xmlns:xlink="http://www.w3.org/1999/xlink" version="1.1" viewBox="-10 0 1051 1000">
  <g transform="matrix(1 0 0 -1 0 800)">
   <path fill="currentColor"
d="M319.499 614.326l-12 60c128.725 89.7881 355.203 55.3633 442.457 48.5605c0 -0.0107422 0.000976562 -0.0214844 0.000976562 -0.0322266c27.4463 0.582031 75.1855 -1.32129 107.268 -33.4033c40.1396 -40.1396 38.6152 -108.841 37.5254 -169.365
c-0.395508 -21.9258 -0.433594 -33.2402 -0.22168 -41.9463c26.3789 -43.8281 72.168 -89.959 89.3252 -129.607c6.95117 -16.0635 5.49219 -24.7637 2.64551 -40.2051l-12 -14l-79.501 -63.5771v-212.431c1.93945 -31.0869 1.82422 -79.2412 -27.416 -108.48
c-26.0322 -26.0322 -182.507 -12.0195 -220.584 -13.0049l-2.90137 0.0126953c-103.732 -7.2998 -296.108 50.6025 -326.603 92.1719c-18.5059 25.2275 -31.4014 41.2529 -57.9951 55.3086v70.0371c25.8174 -16.2627 49.624 -17.8066 70.1904 -60.6357
c44.2188 -92.082 349.455 -105.734 451.309 -108.438l-0.499023 -0.962891c50 12 34.1514 4.48145 42.5352 13.5361c19.1768 20.7119 3.97852 41.9688 5.50781 57.9648h-0.541992v2.14941c-0.253906 0.990234 -0.500977 1.94141 -0.738281 2.84863h0.738281v207.174v3.4873
v1.33887h1.58203l104 88h1.13281c4.9834 45.8955 -62.8379 92.1289 -94.2158 139.501l-3 4l-1 1c-2.02051 3.99219 0.0439453 4.02539 -2.08398 11.5605c-0.0371094 0.130859 -0.189453 0.24707 -0.174805 0.367188l0.258789 2.07227l0.0644531 1.49902
c0.00976563 0.226562 0.150391 3.89551 0.242188 6.24414c3.11426 79.1523 14.1973 176.389 -74.8154 176.771c-136.35 16.7461 -373.536 9.53418 -431.49 -46.5137zM78.8535 734.847h55.5146l17.1611 52.2256l17.1602 -52.2256h55.5156l-44.8672 -32.2959l17.1611 -52.2246
l-44.9697 32.2959l-44.9707 -32.2959l17.1611 52.2246zM694.739 392.512c0.178711 0.00683594 11.4736 0.000976562 11.4775 0.00683594c-3.47949 14.5928 -2.50195 19.291 -1.23242 23.3857c0.0117188 0.0371094 0.993164 3.43164 1.12695 3.69922l8.20605 16.4111
c-4.2002 65.0996 -4.2002 65.0996 -4.17676 65.3799c1.37988 16.3779 2.58301 35.4824 1.17676 47.7197c-3.65723 14.5254 -12.7314 11.46 -14.8516 6.81445c-0.749023 -1.6416 -1.59277 -1.83496 -3.77148 -2.33496c-1.69336 -1.51465 -4.35645 -1.18262 -5.62402 0.724609
c-1.58789 2.3916 -8.93359 13.7676 -9.12695 14.1455c-2.65625 5.20312 -12.9043 8.40332 -14.8633 -1.89648c-0.0703125 -0.37207 -0.0703125 -0.37207 -3.56836 -8.89844c-1.30371 -3.17578 -5.89844 -3.04395 -7.01465 0.204102l-6.58008 19.1416
c-1.75879 5.11719 -12.7344 9.2041 -18.5322 -0.487305c-0.107422 -0.319336 -0.889648 -2.69238 -5.12109 -15.9619c-0.919922 -2.88477 -4.75879 -3.54395 -6.58203 -1.09277c-5.41309 7.27246 -5.41309 7.27246 -5.50781 7.36816
c-0.0361328 0.0361328 -6.18164 6.1709 -9.66406 2.68945c-1.90625 -1.90625 -2.98535 -6.56152 -3.45996 -9.41602c0.0136719 -0.427734 0.0986328 -2.9541 0.567383 -15.2061c0.279297 -7.62988 0.618164 -23.9346 0.625977 -24.1768
c2.23145 -15.9053 1.19922 -16.4014 2.35938 -24.9111c0.0849609 -0.328125 0.728516 -2.80762 4.07031 -15.459c0.0322266 -0.124023 0.337891 -7.20703 -0.630859 -8.85449c-2.38184 -4.0498 -2.54785 -4.33105 -4.11914 -4.69043
c-6.2207 -1.42578 -8.18848 -0.172852 -10.292 2.74609c-1.08203 1.50098 -8.44043 8.87598 -9.18066 9.72852l-15.4189 17.792c-0.416992 0.276367 -2.55664 1.67871 -8.99512 5.75586c-0.375977 0.114258 -2.17773 0.652344 -7.61914 2.17578
c-1.52148 -0.834961 -3.33496 -0.332031 -4.70996 -1.70703c-0.998047 -0.998047 -2.14941 -4.3418 -1.7832 -6.23535l8.50684 -11.4414c1.63867 -1.53613 10.3477 -9.12695 10.7734 -9.64258c12.7129 -15.374 12.7129 -15.374 12.7744 -15.457
c9.23828 -12.5166 9.23828 -12.5166 9.30762 -12.625c8.33105 -13.0918 8.33105 -13.0918 8.44922 -13.3643l6.43359 -14.916c1.77734 -2.75488 8.64941 -13.123 8.83301 -13.4727c2.89551 -5.50098 2.89551 -5.50098 3.00488 -5.95801
c2.1543 -9.02734 17.4102 -9.47656 17.6104 -9.48047l16.6875 -0.297852zM706.217 385.017h-11.2422c-50.5801 -2.10156 -50.5801 -2.10156 -50.6924 -2.09961l-16.8076 0.300781c-2.66895 0.0498047 -20.8877 0.902344 -24.6377 14.7432l-2.3877 4.53613
c-8.7373 13.2549 -8.58887 12.8164 -9.11719 14.042l-6.36523 14.7539l-7.94238 12.4814l-9.02441 12.2256l-12.3926 14.9873c-10.6465 9.42871 -10.6465 9.42871 -11.1143 10.0576l-8.69922 11.7002c-3.10449 4.17383 -0.9375 12.3184 2.60938 15.8662
c2.08008 2.0791 4.04102 2.71484 6.94824 3.25c1.6084 0.71875 3.41895 0.842773 5.09668 0.373047c7.91504 -2.21582 8.08789 -2.09863 9.47852 -2.98047c8.49414 -5.37891 9.1377 -5.58203 10.3545 -6.79883c0.142578 -0.141602 -0.182617 -0.438477 15.7754 -18.1797
c8.31348 -9.24316 8.6377 -8.94629 9.83203 -10.5645c0.197266 0.0175781 0.467773 0.0517578 0.80957 0.106445l0.401367 0.683594l0.179688 4.48242c-3.99902 15.1338 -3.95508 14.7158 -4.09082 15.7041c-1.24902 9.09863 -0.150391 9.22852 -2.39648 25.1738
c-0.0341797 0.246094 -0.483398 19.7168 -0.667969 24.7578c-0.599609 15.666 -0.743164 15.0488 -0.508789 16.498c0.730469 4.52441 2.41211 14.9531 11.2227 16.8105c7.32617 1.5459 14.4268 -5.33203 15.4014 -6.64062l1.09082 -1.46582
c2.92773 9.28809 2.83301 9.22656 3.51953 10.3936c9.06738 15.4229 28.3428 10.3438 32.1582 -0.753906l3.21875 -9.36523c4.49121 15.0908 22.5547 12.8438 28.3018 1.96387c0.0673828 -0.103516 6.45703 -10.0303 6.69727 -10.4014
c6.30469 8.14844 22.2695 9.52246 27.3623 -10.7031c0.0810547 -0.322266 0.140625 -0.649414 0.178711 -0.978516c1.53516 -13.3613 0.253906 -32.4697 -1.13086 -48.9365l4.16406 -64.5391c0.0849609 -1.31152 -0.172852 -2.6416 -0.774414 -3.84277l-8.02344 -16.0479
c-0.230469 -0.894531 -0.500977 -1.78711 -0.856445 -2.93555c-0.999023 -3.22266 -2.05273 -5.0791 1.36426 -19.4111c1.12402 -4.71191 -2.44629 -9.24707 -7.29297 -9.24707zM664.199 492.164c0.378906 -6.72949 -2.32324 -24.418 -1.56934 -28.7002
c0.231445 -0.262695 1.06934 1.73047 1.11816 1.2041c1.56934 -16.877 15.3828 -33.5088 20.7266 -38.8516c1.08105 -1.08203 0.481445 -3.48145 3.61719 -5.90723c-0.368164 -0.241211 -0.368164 -0.241211 -5.99805 -3.99512
c-0.853516 -0.569336 -2.00977 -0.436523 -2.70996 0.327148c-9.02344 9.81641 -16.1104 17.5254 -22.3828 35.4287c-2.83398 -8.82422 -8.00488 -17.4883 -12.7812 -23.5547c-3.33789 -4.23828 -5.96387 -9.44043 -8.46094 -11.9375
c-0.761719 -0.761719 -1.96289 -0.814453 -2.78711 -0.163086c-4.24316 3.3584 -4.24316 3.3584 -4.33008 3.44629c-0.754883 0.754883 -0.813477 1.94238 -0.179688 2.76562c2.38477 3.09082 10.2549 13.8477 10.3604 13.9863
c15.2344 20.0127 15.9756 46.6104 15.8535 60.9316c-0.0107422 1.18555 0.960938 2.14355 2.14648 2.11719c5.61035 -0.125 5.61035 -0.125 6.4209 -0.935547c0.608398 -0.608398 0.917969 -1.51074 0.897461 -2.54004
c-0.00683594 -0.34668 -0.0380859 -1.91797 0.0585938 -3.62207zM597.7 247.699l65.3994 76.5l64.7998 -72.5996l-6.89941 -6.59961l-53.4004 62.6992l3 -216.3s-8.5 0.799805 -13.2002 0.600586l1.80078 215.699l-54.6006 -66z" />
  </g>

</svg>
