<?xml version="1.0" standalone="no"?>
<!DOCTYPE svg PUBLIC "-//W3C//DTD SVG 1.1//EN" "http://www.w3.org/Graphics/SVG/1.1/DTD/svg11.dtd" >
<svg xmlns="http://www.w3.org/2000/svg" xmlns:xlink="http://www.w3.org/1999/xlink" version="1.1" viewBox="-10 0 1071 1000">
  <g transform="matrix(1 0 0 -1 0 800)">
   <path fill="currentColor"
d="M863.395 472.694c0 9.49902 0.360352 25.4824 0.360352 28.9053l-0.318359 61.375l-8.69434 54.7793l-24.0586 41.7607l-29.835 19.125l-33.9414 8.02539c-15.9834 0.617188 -31.9668 1.23438 -47.9502 1.85059v0.765625l-107.704 8.96191l-161.613 -4.84375
l-135.512 -48.0117l4.97461 -24.8711l90.1514 34.2031l168.52 13.9912l163.858 -8.05859l72.0586 -32.085l24.6855 -76.583c-11.2969 -92.7236 -11.5391 -94.709 -10.623 -98.1973c0.272461 -1.03711 0.408203 -1.9873 0.495117 -2.92188
c0.488281 -0.641602 1.13477 -1.58496 1.48633 -2.05664l30.4463 -40.7334l38.0439 -60.0674c7.97656 -11.168 15.9531 -22.335 23.9297 -33.502l-96.7109 -80.25l-3.2002 -219.288c0.962891 -7.5625 2.78418 -22.0117 5.01758 -45.877
c-0.128906 -0.270508 -9.65137 -20.9678 -12.835 -27.0205c-1.80566 -3.43262 -3.36328 -6.39453 -8.94434 -11.126c-28.7256 -6.87109 -37.6748 -9.0127 -53.7939 -9.0127c-3.38379 0 -6.77832 0.143555 -10.1738 0.446289l-127.95 -3.2207l-189.706 31.9736
l-119.909 72.0264c-7.29102 10.5146 -14.582 21.0303 -21.873 31.5449c-0.186523 0.126953 -14.9541 10.3477 -18.583 12.6523v-31.4629c5.41699 -3.87207 13.5068 -7.36328 24.4395 -17.251c7.32715 -6.625 2.0957 -4.45605 10.624 -11.9258
c1.03027 -0.902344 1.03027 -0.902344 17.2012 -21.8066l70.2637 -41.1387l123.979 -35.7695l40.835 -3.74512c52.8262 -4.9082 59.0674 -6.7334 83.0469 -7.42773l68.0801 -1.97266l89.7607 0.253906l51.1064 12.4922l15.1377 25.207l6.27637 34.1602l-0.268555 82.9482
l0.0292969 84.2285l-0.00585938 87.5186l84.7832 67.8018l7.68652 8.9668l1.11426 7.19531c0.449219 7.6123 -1.52441 12.8027 -3.31152 18.1787l-23.3311 38.8438l-33.0244 43.4482l-34.3174 48.9014c-0.203125 16.1299 -0.203125 16.1299 -0.203125 17.6953z
M65.3203 730.375h55.5146l17.1611 52.2256l17.1602 -52.2256h55.5156l-44.8672 -32.2959l17.1611 -52.2246l-44.9697 32.2959l-44.9707 -32.2959l17.1611 52.2246zM343.841 399.394l-31.2695 13.7363l13.126 -30.126l106.25 -0.380859l9.11328 28.6797l-31.4268 -13.9668
l-32.2158 41.3936zM406.776 404.368l0.222656 0.634766l8.49316 -2.97949l-0.22168 -0.634766zM448.58 363.181h-137.763l-34.1016 86.1211l61.5693 -25.8096l38.667 48.3555l37.9482 -49.124l60.5635 25.7568zM313.899 367.722l-3.0752 -2.46973l1.91797 -1.30176z
M376.399 516.441c-71.2969 0 -129.602 -45.0684 -129.602 -100.441c0 -55.377 58.3105 -100.44 129.602 -100.44c71.2959 0 129.601 45.0674 129.601 100.44c0 55.3779 -58.3105 100.441 -129.601 100.441zM376.399 293.962c-85.7031 0 -154.438 55.0645 -154.438 123.118
c0 68.0566 68.7383 123.119 154.438 123.119c85.7031 0 154.438 -55.0654 154.438 -123.119c0 -68.0566 -68.7383 -123.118 -154.438 -123.118zM605.328 67.876c-15.3877 1.7959 -50.582 9.70508 -75.9414 44.4131c-10.9688 -5.67676 -23.4111 -12.7266 -43.3096 -24.8584
c-2.97461 8.93945 -3.03223 9.1123 -11.4678 20.418c15.0986 8.45508 29.5947 16.4004 43.6152 23.4658c-6.38379 13.9248 -9.94629 29.4238 -9.94629 45.7354c0 22.6152 6.82617 43.4531 18.3643 60.7451c-10.4639 9.34473 -21.1592 18.5303 -36.0527 31.0713
c7.23242 6.04395 7.25879 6.08203 14.5566 16.5566c13.5029 -10.2715 23.8369 -19.5352 35.4932 -30.6064c16.7959 16.7256 38.8223 28.001 62.9697 31.2129c-0.237305 14.3721 -0.328125 27.9082 0.236328 44.8154l21.9551 0.522461
c-0.225586 -8.23535 -0.52832 -20.002 0.703125 -44.7402c15.7471 -1.23535 49.957 -7.76367 76.458 -39.9277c9.22754 6.35352 17.0693 10.8945 36.5449 22.1729c4.64355 -6.12695 6.28613 -8.44238 9.88574 -14.3467c2.55664 -4.19531 0.220703 -4.4502 -2.19238 -5.97363
c-1.3252 -0.836914 -19.4707 -12.0254 -32.0586 -20.0303c7.04688 -13.1748 22.9912 -50.8301 4.09766 -94.8037c11.8242 -7.41016 22.6211 -15.3652 35.2441 -25.2939c-4.93262 -8.83105 -6.19922 -10.6123 -12.7021 -19.6543
c-7.4502 5.29199 -17.5771 12.4951 -34.1094 24.4346c-8.95703 -12.5254 -34.5742 -41.8633 -80.1768 -45.6865c-0.373047 -11.5801 -14.4092 13.0098 -14.166 -8.40918c-8.05859 0 5.46777 -40 -9.76465 -38.8711c0.385742 15.0645 0.974609 29.709 1.76367 47.6387z
M705.594 177.082c0 48.2168 -39.1787 87.3594 -87.3945 87.3594c-48.2383 0 -87.3965 -39.1592 -87.3965 -87.3945c0 -48.998 40.2969 -87.3672 86.9941 -87.3955c48.2441 0 87.5908 39.1787 87.7969 87.4307z" />
  </g>

</svg>
