<?xml version="1.0" standalone="no"?>
<!DOCTYPE svg PUBLIC "-//W3C//DTD SVG 1.1//EN" "http://www.w3.org/Graphics/SVG/1.1/DTD/svg11.dtd" >
<svg xmlns="http://www.w3.org/2000/svg" xmlns:xlink="http://www.w3.org/1999/xlink" version="1.1" viewBox="-10 0 1107 1000">
  <g transform="matrix(1 0 0 -1 0 800)">
   <path fill="currentColor"
d="M348.481 97.6934l-82.2217 148.848l24.0225 10.1475l58.4395 -100.383l53.3027 101.418l27.2285 -11.0254zM265.568 -67.707v34.6641h38.626v22.0713h-38.626v34.6641h38.626v33.7148h31.3828v-33.7148h23.2197v31.2539h31.3828v-31.2539h41.292v-34.6641h-41.292
v-22.0713h41.292v-34.6641h-41.292v-36.1855h-31.3828v36.1855h-23.2197v-33.7246h-31.3828v33.7246h-38.626zM335.577 -33.043h23.2197v22.0713h-23.2197v-22.0713zM780.659 223.904c-0.529297 0 -0.985352 0.173828 -1.32227 0.358398l-214.094 -88.2627v-37.8242
c12.126 5.10742 24.251 10.2148 36.376 15.3213v-3.77051l-0.21875 -161.659h318.305l0.646484 155.446c10.9619 -6.48535 21.9238 -12.9697 32.8867 -19.4551l-0.677734 40.7051l-136.33 79.1182l1.46387 0.616211c-22.6963 11.7715 -24.457 12.7314 -36.2109 19.5508
c-0.288086 -0.102539 -0.56543 -0.144531 -0.824219 -0.144531zM884.594 -16.7148h-248.003l-0.665039 144.662l142.009 59.8174l107.859 -63.8086zM63.3545 -23.4795h55.5146l17.1611 52.2256l17.1602 -52.2256h55.5156l-44.8672 -32.2959l17.1611 -52.2246
l-44.9697 32.2959l-44.9707 -32.2959l17.1611 52.2246zM679.176 619.121h5.89746c0.144531 -4.06543 0.290039 -8.12891 0.435547 -12.1943c22.4668 0.787109 42.7783 10.25 57.668 25.1396c5.41113 5.41113 10.1084 11.541 13.9307 18.2305l-9.43555 5.00781
l-1.16211 -1.83887l-57.8691 27.3047c-1.8877 -1.03418 -4.05469 -1.62207 -6.35938 -1.62207c-7.32129 0 -13.2559 5.93457 -13.2559 13.2549c0 5.59473 3.4668 10.3799 8.36816 12.3252v61.8115h1.36133v11.2949c-11.5664 -0.543945 -44.5039 -5.01172 -66.5381 -37.1895
c3.31445 -1.91406 6.62891 -3.82715 9.94336 -5.74023l-3.40137 -5.89258c-3.38867 1.95605 -6.77539 3.91113 -10.1621 5.86621c-7.18164 -12.5186 -11.2891 -27.0195 -11.2891 -42.4766c0 -15.0752 3.93164 -29.2617 10.8252 -41.585
c3.50391 2.02246 7.00684 4.0459 10.5107 6.06934l3.40234 -5.89258c-3.45215 -1.99414 -6.90527 -3.98633 -10.3574 -5.98047c14.8066 -22.1445 39.6455 -37.0225 67.9229 -38.0801c-0.146484 4.0625 -0.290039 8.125 -0.435547 12.1875zM776.354 692.402
c0 -51.6201 -41.8955 -93.5146 -93.5176 -93.5146c-51.6211 0 -93.5176 41.8945 -93.5176 93.5176c0 51.3174 41.6465 93.207 92.96 93.5146h0.1875c51.6289 0 93.6816 -41.8984 93.8877 -93.5176zM685.559 777.888v-11.3477h0.890625l2.2334 -62.5264
c3.62402 -2.00293 6.21094 -5.6543 6.74902 -9.94141l56.9932 -31.2402l-1.59668 -2.5293l9.02539 -4.79102c5.40332 11.1738 8.45605 23.6865 8.5127 36.8955c0 15.9551 -4.37598 30.8896 -11.9932 43.6777l-9.89355 -6.19336l-2.9502 5.1084
c3.21875 2.01367 6.43652 4.02734 9.6543 6.04297c-6.59961 9.52148 -28.2129 35.6104 -67.625 36.8447zM513.266 747.192c0 -10.3359 0.504883 -12.2598 0.504883 -19.4482c0 -29.8066 -8.19824 -89.123 -8.19824 -116.695c0 -2.84961 0.135742 -15.3232 2.4834 -16.5791
c0.388672 -0.136719 0.700195 -0.350586 0.628906 -0.946289c8.04785 -86.5205 79.5088 -168.32 102.572 -190.644h76.3184v-23.999h-375.359v23.999h50.5088c11.2529 14.6582 18.8477 25.0801 29.0635 39.1797c6.19824 8.55371 11.9121 16.4404 18.0166 24.46
c69.9053 91.8262 76.3906 211.051 76.3906 280.84c0 4.30469 -0.0205078 7.625 -0.0605469 12.3438c7.30371 -0.160156 14.6074 -0.321289 21.9102 -0.482422c4.67871 -0.101562 5.27832 -4.48242 5.27832 -6.72363c0 -0.0371094 -0.0576172 -2.19141 -0.0576172 -5.30469z
M582.444 402.88c-32.917 36.2627 -67.5107 80.0068 -95.0518 173.044c-8.64258 -48.9238 -38.7646 -102.377 -65.9346 -136.884c-11.043 -14.0244 -17.3984 -25.2705 -24.5771 -36.1602h185.563z" />
  </g>

</svg>
