<?xml version="1.0" standalone="no"?>
<!DOCTYPE svg PUBLIC "-//W3C//DTD SVG 1.1//EN" "http://www.w3.org/Graphics/SVG/1.1/DTD/svg11.dtd" >
<svg xmlns="http://www.w3.org/2000/svg" xmlns:xlink="http://www.w3.org/1999/xlink" version="1.1" viewBox="-10 0 1020 1000">
  <g transform="matrix(1 0 0 -1 0 800)">
   <path fill="currentColor"
d="M30.3242 741.553h55.5146l17.1611 52.2256l17.1602 -52.2256h55.5156l-44.8672 -32.2959l17.1611 -52.2246l-44.9697 32.2959l-44.9707 -32.2959l17.1611 52.2246zM271 608l-12 60c128.725 89.7881 355.203 55.3633 442.457 48.5605
c0 -0.0107422 0.000976562 -0.0214844 0.000976562 -0.0322266c27.4463 0.582031 75.1855 -1.32129 107.268 -33.4033c40.1396 -40.1396 38.6152 -108.841 37.5254 -169.365c-0.395508 -21.9258 -0.433594 -33.2402 -0.22168 -41.9463
c26.3789 -43.8281 72.168 -89.959 89.3252 -129.607c6.95117 -16.0635 5.49219 -24.7637 2.64551 -40.2051l-12 -14l-79.501 -63.5771v-212.431c1.93945 -31.0869 1.82422 -79.2412 -27.416 -108.48c-26.0322 -26.0322 -182.507 -12.0195 -220.584 -13.0049
l-2.90137 0.0126953c-103.732 -7.2998 -296.108 50.6025 -326.603 92.1719c-18.5059 25.2275 -31.4014 41.2529 -57.9951 55.3086v70.0371c25.8174 -16.2627 49.624 -17.8066 70.1904 -60.6357c44.2188 -92.082 349.455 -105.734 451.309 -108.438l-0.499023 -0.962891
c50 12 34.1514 4.48145 42.5352 13.5361c19.1768 20.7119 3.97852 41.9688 5.50781 57.9648h-0.541992v2.14941c-0.253906 0.990234 -0.500977 1.94141 -0.738281 2.84863h0.738281v207.174v3.4873v1.33887h1.58203l104 88h1.13281
c4.9834 45.8955 -62.8379 92.1289 -94.2158 139.501l-3 4l-1 1c-2.02051 3.99219 0.0439453 4.02539 -2.08398 11.5605c-0.0371094 0.130859 -0.189453 0.24707 -0.174805 0.367188l0.258789 2.07227l0.0644531 1.49902
c0.00976562 0.226562 0.150391 3.89551 0.242188 6.24414c3.11426 79.1523 5.19727 173.389 -83.8154 173.771c-136.35 16.7461 -373.536 9.53418 -431.49 -46.5137zM458.926 537.589c-2.73438 -3.88379 -4.15039 -5.66309 -6.82129 -8.05469
c11.1006 -9.37598 17.7158 -15.0596 29.1123 -25.2373c-5.36719 -8.04297 -16.5605 -24.8174 -16.5605 -51.29c0 -13.0039 2.83691 -25.3447 7.92578 -36.4443l1.60742 -3.50684c-9.51758 -4.7959 -17.5068 -8.87109 -35.6738 -18.9941
c3.13477 -4.32129 4.49707 -6.59375 5.76367 -9.76758c13.7871 8.33789 21.9092 13.0088 35.1748 19.875c3.61816 -4.95215 6.16211 -8.43359 11.002 -13.2734c18.8164 -18.8164 41.0479 -23.6699 51.5439 -24.8955l3.69141 -0.430664
c-1.03809 -23.5889 -1.28711 -31.0518 -1.52832 -39.5322c6.53516 -0.477539 8.70996 -0.603516 11.6611 -0.636719c-0.0566406 5.81543 -0.0859375 11.0723 -0.0859375 15.8408c0 8.97949 0.0498047 13.8135 0.383789 24.1758
c10.874 0.912109 35.3086 2.96094 58.1357 25.7881c3.21484 3.21484 5.24805 5.24805 11.6445 14.1943c12.7783 -9.22949 19.3008 -13.9111 28.4131 -20.3916c2.83984 3.97461 4.10547 5.87793 6.33887 9.78027c-9.9375 7.73633 -16.5 12.5645 -29.2246 20.5391
c3.3457 7.78711 8.4502 19.668 8.4502 37.1504c0 19.4766 -6.69238 34.6709 -10.3643 41.5352l-1.75 3.27246c0.298828 0.189453 19.4873 12.3457 30.0371 18.8018c-2.1084 3.44043 -3.32422 5.24707 -5.51953 8.19824
c-16.3564 -9.47559 -19.6123 -11.3623 -30.1426 -18.6133c-3.74023 4.53809 -5.14844 6.24805 -8.22266 9.32227c-20.041 20.04 -43.667 24.4473 -55.0547 25.3408l-3.50488 0.274414c-0.714844 14.3643 -0.93457 21.7246 -0.93457 30.0557
c0 2.6084 0.0283203 4.85449 0.0683594 6.8418l-10.3135 -0.245117c-0.168945 -6.15625 -0.234375 -11.7969 -0.234375 -17.2598c0 -3.9707 0 -6.80371 0.212891 -19.6738c-9.68652 -1.28906 -32.6094 -4.33789 -53.71 -25.3506l-2.75586 -2.74414
c-14.373 13.6504 -20.375 18.793 -28.7656 25.3555zM551.92 376.176c-41.1602 0.0244141 -76.4922 33.8213 -76.4922 76.8281c0 42.4072 34.4229 76.8281 76.8301 76.8281c42.4014 0 76.8281 -34.416 76.8281 -76.8154
c-0.181641 -42.415 -34.7578 -76.8408 -77.166 -76.8408zM472.313 195.643zM472.496 197.804zM470.959 209.435c1.85742 4.73242 5.0957 6.56055 5.97168 8.02344c0.885742 1.47656 1.58496 2.44824 3.44141 4.41895c-27.624 -10.9893 -45.2627 -28.9404 -57.0732 -48.4404
c10.1875 -16.6084 27.9053 -35.9561 56.3242 -47.8213c-20.9502 23.4648 -20.8008 51.9805 -13.7793 71.5654c-0.12207 1.58301 -0.15918 2.05762 3.8252 9.69922c0.605469 1.16113 1.14258 2.21582 1.29004 2.55469zM695 171
c-17.3164 -31.2041 -61.6123 -87.2461 -156.4 -87.2461c-39.8711 0 -113.97 11.1719 -156.697 87.1807c-0.139648 0.245117 -0.139648 0.245117 8.37402 4.93457c-2.79883 0 -5.59766 0.00585938 -8.39648 0.00585938c18.958 33.7197 63.7451 87.418 156.72 87.418
c41.2871 0 114.367 -11.7539 156.463 -87.5537l-8.49707 -4.72363zM493.387 187.915c-15.4238 -44.7646 40.5205 -78.5645 74.1621 -44.9229c17.1074 17.1074 17.0273 43.3428 0.00488281 60.3652c-17.9727 17.9736 -39.1777 14.1426 -49.1172 9.95312
c-1.98926 -1.27148 -11.2578 -7.37988 -14.127 -9.27051l0.555664 0.808594c-0.185547 -0.269531 -0.370117 -0.539062 -0.555664 -0.808594c-2.50586 -3.6582 -10.8135 -15.9639 -10.9229 -16.125zM468.703 192.526
c0.166992 -0.0820312 0.350586 -0.146484 0.552734 -0.191406zM653.576 173.419c-6.84766 11.2246 -25.8789 38.4863 -66.6748 51.7012c30.583 -29.5439 29.3457 -74.792 1.34863 -102.789c22.0693 7.08691 46.8945 20.6299 65.3262 51.0879z" />
  </g>

</svg>
