<?xml version="1.0" standalone="no"?>
<!DOCTYPE svg PUBLIC "-//W3C//DTD SVG 1.1//EN" "http://www.w3.org/Graphics/SVG/1.1/DTD/svg11.dtd" >
<svg xmlns="http://www.w3.org/2000/svg" xmlns:xlink="http://www.w3.org/1999/xlink" version="1.1" viewBox="-10 0 1020 1000">
  <g transform="matrix(1 0 0 -1 0 800)">
   <path fill="currentColor"
d="M55.2783 726.558h55.5146l17.1611 52.2256l17.1602 -52.2256h55.5156l-44.8672 -32.2959l17.1611 -52.2246l-44.9697 32.2959l-44.9707 -32.2959l17.1611 52.2246zM295.954 593.005l-12 60c128.725 89.7881 355.203 55.3633 442.457 48.5605
c0 -0.0107422 0.000976563 -0.0214844 0.000976563 -0.0322266c27.4463 0.582031 75.1855 -1.32129 107.268 -33.4033c40.1396 -40.1396 38.6152 -108.841 37.5254 -169.365c-0.395508 -21.9258 -0.433594 -33.2402 -0.22168 -41.9463
c26.3789 -43.8281 72.168 -89.959 89.3252 -129.607c6.95117 -16.0635 5.49219 -24.7637 2.64551 -40.2051l-12 -14l-79.501 -63.5771v-212.431c1.93945 -31.0869 1.82422 -79.2412 -27.416 -108.48c-26.0322 -26.0322 -182.507 -12.0195 -220.584 -13.0049
l-2.90137 0.0126953c-103.732 -7.2998 -296.108 50.6025 -326.603 92.1719c-18.5059 25.2275 -31.4014 41.2529 -57.9951 55.3086v70.0371c25.8174 -16.2627 49.624 -17.8066 70.1904 -60.6357c44.2188 -92.082 349.455 -105.734 451.309 -108.438l-0.499023 -0.962891
c50 12 34.1514 4.48145 42.5352 13.5361c19.1768 20.7119 3.97852 41.9688 5.50781 57.9648h-0.541992v2.14941c-0.253906 0.990234 -0.500977 1.94141 -0.738281 2.84863h0.738281v207.174v3.4873v1.33887h1.58203l104 88h1.13281
c4.9834 45.8955 -62.8379 92.1289 -94.2158 139.501l-3 4l-1 1c-2.02051 3.99219 0.0439453 4.02539 -2.08398 11.5605c-0.0371094 0.130859 -0.189453 0.24707 -0.174805 0.367188l0.258789 2.07227l0.0644531 1.49902
c0.00976562 0.226562 0.150391 3.89551 0.242188 6.24414c3.11426 79.1523 5.19727 173.389 -83.8154 173.771c-136.35 16.7461 -373.536 9.53418 -431.49 -46.5137zM413.307 297.647c-0.0546875 0.046875 -0.106445 0.0898438 -0.154297 0.12793zM356.88 311.085
c0.172852 -0.194336 0.295898 -0.328125 0.363281 -0.398438zM582.762 206.515c-1.06836 -1.67578 0.15332 0.411133 -1.48047 -0.829102l0.952148 -0.610352c0.0585938 -0.0380859 -2.13477 -8.59375 -0.634766 -15.7246
c0.700195 -3.32617 2.50684 -3.08984 2.51758 -5.82031c0.0126953 -3.11328 -0.693359 -1.5332 -1.25684 -4.07422c-5.14453 -6.55078 -7.14453 -6.875 -13.1367 -7.84277c-9.80273 -1.58691 -25.9512 -0.644531 -40.7734 -4.32617
c-4.35938 -0.366211 -41.4385 -2.69043 -46.1904 -1.44141c-2.40234 0.630859 -5.1416 0.425781 -7.00879 -0.737305c-11.9141 2.62695 -31.9922 15.123 -33.9551 21.9209l0.0234375 1.81543l-0.639648 1.60938l-1.04492 1.31055
c-8.85742 15.1318 -17.4111 26.9219 -17.6289 27.1602c-0.652344 4.4502 -2.70508 6.5918 -2.70508 7.08887c0 6.12402 -17.5615 37.2256 -21.1201 39.9639c-0.222656 0.170898 -14.6689 16.6064 -18.7402 20.9668c-0.129883 0.230469 -5.26172 7.5332 -18.7861 18.8457
c-2.33496 1.95312 -1.43457 3.51367 -4.27344 5.29492c-7.01855 7.8584 -4.21875 7.48145 -6.875 11.459c0.31543 9.25 13.7842 13.8594 13.9736 13.916c1.6377 0.0449219 6.05664 -0.179688 6.99902 -0.393555c4.36523 -0.99707 7.7666 -5.48535 11.4297 -7.25977
c4.93066 -6.69531 27.0029 -27.2129 27.2158 -27.5352c0.976562 -2.19043 2.85156 -3.25586 3.68359 -3.62402c3.03809 -2.6748 3.86914 -6.41504 8.51172 -8.08984c1.87988 -1.92383 5.16016 -2.63672 8.08887 -1.7959
c0.575195 -0.0986328 0.575195 -0.0986328 5.41309 -1.06641l1.35352 1.4668c0.873047 2.80371 -0.558594 11.8545 -3.41797 12.9199c-0.770508 4.34863 -1.02148 5.56934 -1.09766 5.84668c0.84375 1.63379 1.66992 4.14844 0.0273438 6.58887
c-0.121094 0.619141 -4.79883 56.9727 -6.36719 62.7246c-0.0224609 1.46484 1.03516 5.35645 0.00390625 7.79297c0.685547 5.16016 0.139648 22.4805 0.618164 28.999c0 2.90625 2.93164 7.32227 5.87598 14.8711c2.08496 2.86328 2.08496 2.86328 6.54785 4.36621
c3.26855 -0.18457 3.34668 -0.580078 3.80957 -0.915039c1.12012 -0.802734 1.12012 -0.802734 5.32227 -3.10254c0.533203 -0.697266 2.65234 -4.29395 2.68164 -4.33691c2.89746 -8.87207 4.9043 -24.6143 6.08789 -36.2979l6.98926 13.1025l1.98535 5.58008
c2.59766 7.29883 3.3457 20.4678 7.26172 29.9307c2.61133 6.31543 4.34863 8.14551 10.335 10.4346c5.14941 -0.209961 5.36816 -0.49707 6.57617 -1.51562c0.0742188 -0.257812 9.0752 -17.3955 11.1328 -24.4629l-0.588867 -3.77148l1.48438 0.0546875
c0.0195312 -0.09375 0.478516 -5.18555 1.23047 -9.39551l0.933594 -0.0976562c0.21875 -3.26172 0.21875 -3.26172 -0.0488281 -5.30859c0.238281 -0.0390625 0.62793 0.0351562 0.540039 -0.257812c4.3623 0.243164 5.95996 -23.3223 8.95312 -22.0215
c5.80078 2.52246 1.28223 33.3994 3.56445 33.2646c1.65137 -0.0966797 0.458984 2.93457 0.577148 3.90137c0.34375 2.79883 1.31836 1.80273 2.16406 5.78809c1.19043 5.63379 9.29199 15.6172 9.36426 15.7852c3.1377 3.04785 7.28418 4.17773 8.94824 2.89551
c9.33984 -10.4355 14.5811 -35.9014 14.2578 -52.8975c1.99609 -0.0234375 2.44141 -6.53613 2.62012 -8.06445c3.61621 -30.6738 5.58301 22.1484 7.69434 18.7305l1.78125 3.06641c1.91016 3.28613 12.7891 15.292 16.3984 18.0674
c0.952148 0.733398 1.14844 0.813477 5.60449 0.0712891c3.01367 -1.875 5.42578 -5.88672 5.52734 -6.09668c4.97168 -10.3086 -1.25684 -72.5811 -1.31934 -83.0439c-1.79199 -5.95605 -1.00586 -16.1318 -0.601562 -18.627c0 -13.4326 2.19043 -36.7754 2.46191 -38.7314
c-2.43555 -4.49219 3.74902 -22.9531 2.22266 -36.4297c-0.394531 -3.47754 -12.0537 -31.0557 -12.0537 -31.0557zM432.316 427.905c0.0273438 0.0410156 0.0283203 0.0742188 0.0322266 0.0800781c-0.000976562 -0.00195312 -0.0126953 -0.0292969 -0.0322266 -0.0800781z
M583.659 429.123l-0.811523 -4.70801l2.70508 0.751953zM488.474 446.159l0.319336 -0.0351562c-0.0820312 0.0117188 -0.191406 0.0175781 -0.319336 0.0351562zM547.768 423.489c0 -0.0410156 0.0263672 -0.0849609 0.0273438 -0.0878906
c-0.0078125 0.0273438 -0.0273438 0.0576172 -0.0273438 0.0878906zM422.478 218.827c0 -0.0175781 0.0458984 -0.0361328 0.0478516 -0.0556641zM453.272 177.282zM555.788 439.099l0.0566406 -0.111328c-0.0107422 0.0273438 -0.0302734 0.0634766 -0.0566406 0.111328z
M470.033 450.495l0.0390625 0.0302734c-0.0126953 -0.00878906 -0.0263672 -0.0195312 -0.0390625 -0.0302734zM411.938 315.437l0.0458984 -0.0478516c-0.0166016 0.0175781 -0.0458984 0.0478516 -0.0458984 0.0478516zM365.138 346.649l0.132812 -0.0292969
c-0.0283203 0.00390625 -0.132812 0.0292969 -0.132812 0.0292969zM356.94 294.46l-0.0263672 0.0214844c0.00683594 -0.00683594 0.0146484 -0.0214844 0.0263672 -0.0214844zM356.521 294.86c0.787109 -0.787109 2.68555 -2.02539 5.41016 -4.74805
c5.60156 -5.60254 6.75391 -9.68066 13.5771 -16.2246c4.98438 -4.7793 4.14746 -5.37598 11.7383 -14.8086c15.4492 -19.2109 23.4697 -49.2178 35.2402 -61.7197c2.79004 -6.0166 -0.463867 -4.22754 2.63086 -8.60742
c0.0742188 -0.230469 0.0742188 -0.230469 2.2168 -5.71387l-1.86035 -1.9375c-0.0273438 -0.0283203 -0.802734 -1.80469 -0.433594 -4.80566c0.4375 -3.55273 2.18164 -7.51855 3.77539 -9.1123c2.35645 -1.67773 0.231445 -2.01758 4.12695 -3.23047
c21.0771 -15.0078 132.474 -5.44434 147.283 0.123047c6.19531 0.0839844 13.6641 7.00781 16.6562 13.0449c4.15332 8.375 -2.79395 14.7666 -0.242188 27.5752c-1.23633 2.40137 -0.220703 4.24707 3.38477 10.7939c2.65625 4.82227 4.08008 7.40723 4.41602 9.42773
c4.30273 5.41602 3.96094 12.999 1.69922 38.3125c0.720703 1.43164 0.720703 1.43164 0.494141 2.37793c-2.95117 12.252 -3.29883 32.6855 -2.92773 52.0596c0.158203 8.32812 1.31738 39.0439 2.25977 47.1758c1.36523 11.7803 0.0957031 41.2881 -0.399414 45.0615
c-0.666992 5.0752 -2.38965 12.9336 -6.75195 14.8203c-0.112305 0.0390625 -4.69434 3.19824 -10.8857 4.76465c-1.39648 0.352539 -5.4668 1.38184 -8.39062 -0.00878906c-4.97852 -0.62207 -10.6934 -5.22559 -11.8428 -6.41113l-5.3418 -5.50391l-1.75879 7.46094
c-2.54492 10.7998 -2.06543 9.40918 -4.37891 13.168c-1.36328 2.42383 -2.20898 3.93066 -4.5293 6.25c-3.56445 3.56543 -4.19922 2.41895 -6.14062 3.80273c-4.95605 3.52832 -13.5215 3.15039 -17.3359 0.830078c-5.23828 -2.35156 -6.13672 -2.75391 -7.98438 -4.60254
c-1.36328 -1.3623 -1.66406 -1.7334 -11.2734 -13.6084l-1.90527 8.45215c-0.571289 2.53223 -0.614258 3.375 -4.40918 7.64648c-4.90234 5.51855 -5.10156 5.74219 -10.4531 7.03027c-1.08691 0.260742 -2.44824 0.589844 -3.39844 2.14551
c-3.80859 6.2334 -7.61133 5.07227 -15.8789 -3.07129c-4.17969 -4.11719 -4.20703 -3.2666 -9.02734 -8.08691c-3.20703 -3.20703 -3.49902 -3.76953 -6.1416 -8.88184l-3.7793 2.08984c-14.4014 7.95703 -23.9756 3.20898 -30.0723 -2.88672
c-3.59863 -3.59766 -5.99316 -8.18848 -6.40625 -10.0615c0.0917969 -1.07324 -0.299805 -1.66309 -0.754883 -2.19043c-6.5459 -9.32422 -2.76758 -61.8027 0.65332 -87.6533c0 0 -0.145508 -1.64648 0.270508 -2.03711
c1.20508 -5.55762 1.33789 -6.16602 1.75098 -25.7354l-7.43457 7.78027c-0.763672 0.757812 -14.5059 14.1396 -23.9453 21.5391c-5.35352 4.19629 -9.20898 6.49414 -12.2129 7.76367c-5.54688 2.34473 -8.97754 1.53809 -10.5664 1.91504
c-0.414062 0.0625 -11.3975 1.65918 -25.2178 -13.6924c-8.06152 -8.95215 3.33887 -23.0605 3.59375 -23.2861c0.288086 -0.303711 0.699219 -0.483398 0.830078 -0.945312v0v0c1.68555 -2.05176 9.52051 -11.2861 12.0732 -13.8398zM429.048 166.968l-4.06738 0.817383
c0.853516 0.280273 2.50586 0.541992 4.06738 -0.817383zM344.448 308.7c-0.234375 0.349609 -0.0205078 0.0273438 -0.0205078 0.0273438c0.00585938 -0.00976562 0.0205078 -0.0253906 0.0205078 -0.0273438zM596.641 204.695
c0.210938 1.06152 0.210938 1.06152 0.908203 3.47559l1.12109 -3.77344l5.68066 -0.181641c-3.75684 -3.58789 -6.81348 -1.26074 -7.70996 0.479492zM727.837 508.581l35.5195 -32.6387l-28.7998 -36.4805l-11.1016 10.2168l16.6641 18.9717l-135.119 -0.650391
l-1.29297 14.0186l136.61 -0.317383l-23.3213 15.5693zM339.123 74.6787v13.8887h333.332v-13.8887h-333.332z" />
  </g>

</svg>
