<?xml version="1.0" standalone="no"?>
<!DOCTYPE svg PUBLIC "-//W3C//DTD SVG 1.1//EN" "http://www.w3.org/Graphics/SVG/1.1/DTD/svg11.dtd" >
<svg xmlns="http://www.w3.org/2000/svg" xmlns:xlink="http://www.w3.org/1999/xlink" version="1.1" viewBox="-10 0 1083 1000">
  <g transform="matrix(1 0 0 -1 0 800)">
   <path fill="currentColor"
d="M30.3242 741.553h55.5146l17.1611 52.2256l17.1602 -52.2256h55.5156l-44.8672 -32.2959l17.1611 -52.2246l-44.9697 32.2959l-44.9707 -32.2959l17.1611 52.2246zM271 608l-12 60c128.725 89.7881 355.203 55.3633 442.457 48.5605
c0 -0.0107422 0.000976562 -0.0214844 0.000976562 -0.0322266c27.4463 0.582031 75.1855 -1.32129 107.268 -33.4033c40.1396 -40.1396 38.6152 -108.841 37.5254 -169.365c-0.395508 -21.9258 -0.433594 -33.2402 -0.22168 -41.9463
c26.3789 -43.8281 72.168 -89.959 89.3252 -129.607c6.95117 -16.0635 5.49219 -24.7637 2.64551 -40.2051l-12 -14l-79.501 -63.5771v-212.431c1.93945 -31.0869 1.82422 -79.2412 -27.416 -108.48c-26.0322 -26.0322 -182.507 -12.0195 -220.584 -13.0049
l-2.90137 0.0126953c-103.732 -7.2998 -296.108 50.6025 -326.603 92.1719c-18.5059 25.2275 -31.4014 41.2529 -57.9951 55.3086v70.0371c25.8174 -16.2627 49.624 -17.8066 70.1904 -60.6357c44.2188 -92.082 349.455 -105.734 451.309 -108.438l-0.499023 -0.962891
c50 12 34.1514 4.48145 42.5352 13.5361c19.1768 20.7119 3.97852 41.9688 5.50781 57.9648h-0.541992v2.14941c-0.253906 0.990234 -0.500977 1.94141 -0.738281 2.84863h0.738281v207.174v3.4873v1.33887h1.58203l104 88h1.13281
c4.9834 45.8955 -62.8379 92.1289 -94.2158 139.501l-3 4l-1 1c-2.02051 3.99219 0.0439453 4.02539 -2.08398 11.5605c-0.0371094 0.130859 -0.189453 0.24707 -0.174805 0.367188l0.258789 2.07227l0.0644531 1.49902
c0.00976562 0.226562 0.150391 3.89551 0.242188 6.24414c3.11426 79.1523 5.19727 173.389 -83.8154 173.771c-136.35 16.7461 -373.536 9.53418 -431.49 -46.5137zM510.285 192.233c0 -1.48047 1.24023 -2.56348 2.56445 -2.56348l204.179 -0.824219
c1.41699 0 2.57227 1.16016 2.57129 2.53906l-1.04395 88.7412c3.32715 -0.475586 6.62402 -1.24414 9.98047 -1.42578l16.334 -0.884766l-25.2705 29.4238v48.0273c0 1.42188 -1.1582 2.56738 -2.45312 2.56738l-117.477 -2.56055l-1.19824 22.1533l-0.961914 7.49805
l-29.2822 -26.4922l-0.814453 0.00292969s-54.5479 0.220703 -54.5566 0.220703c-1.4834 0 -2.57129 -1.23633 -2.57129 -2.56445v-163.858zM520.876 200.252v147.805l47.0273 -0.202148l31.7607 -26.7832c0.539062 8.99609 0.733398 18.3359 1.05273 27.5518
l108.293 -1.3916v-39.1631l-27.5977 -30.2666l13.5879 -1.80176l16.3955 2.52246l-2.4502 -79.0781zM309.426 413.515zM363.479 425.661zM431.412 502.802zM421.784 513.619zM332.664 460.1zM317.18 464.114zM261.299 382.39
c0.155273 1.93652 0.505859 4.15332 0.891602 6.19727zM382.869 348.212c0.0292969 0 -0.0322266 0 -0.0322266 0h0.0322266zM272.874 364.509l0.358398 -0.0761719zM273.232 364.433l0.0292969 -0.00683594s-0.00683594 0.00683594 -0.0292969 0.00683594zM362.35 410.986z
M278.121 364.114c-4.15234 0.179688 -4.96387 0.271484 -4.96387 0.271484l0.0751953 0.046875c-1.7959 0.743164 -3.45703 1.04004 -5.28223 1.75391l-0.240234 0.369141c-1.94922 1.59082 -6.49512 6.13672 -6.49512 13.9336
c0 0.586914 0.235352 1.83398 0.0839844 1.90039v0l0.891602 6.19727v0c0.674805 3.58008 1.45508 6.62891 1.47754 6.71094c3.31934 12.4512 3.34082 12.54 12.5479 50.4443c10.7314 42.752 23.2686 81.3535 55.9053 81.3535c9.23828 0 26.6875 -1.70117 40.666 -31.6631
c2.57617 -5.64258 4.64062 -10.6572 6.60547 -16.293l-52.918 -43.04c2.06348 8 4.12695 16 6.18945 24l-15.4844 4.01465l-7.75391 -50.5996l52.9238 -2.52832l1.12891 14.6748c-9.3877 0.0253906 -18.7764 0.0517578 -28.1641 0.078125l48.5586 38.9395
c3.27148 -11.6514 7.08301 -27.3066 13.1074 -52.0488c5.77148 -23.1826 6.80469 -27.334 6.80469 -31.3096c0 -9.35352 -6.14258 -16.1299 -10.8613 -16.7188c-2.25391 -0.299805 -4.50977 -0.448242 -6.77344 -0.448242
c-0.237305 0 -0.474609 0.00195313 -0.711914 0.00488281l-107.252 -0.046875zM390.098 348.349c16.6172 0 27.6621 15.6582 27.6621 33.0762c0 5.49805 -1.51367 12.2559 -3.65234 21.1631c-4.00098 15.8926 -7.91211 31.7812 -11.7422 47.7002
c-1.98926 8.01562 -4.12988 16.1055 -6.5293 23.9844l35.5762 28.5293l-9.62793 10.8174l-30.7373 -25c-5.81445 15.8037 -13.0723 29.8877 -22.7773 39.5928c-9.2002 9.2002 -21.8828 14.79 -35.6396 14.79c-34.3135 0 -50.4385 -30.6143 -59.7568 -57.7061
c-4.5791 -13.3662 -6.33301 -20.4502 -13.748 -50.4072c-11 -44.4385 -10.9961 -44.4551 -11.4375 -46.8672c-0.199219 -1.0918 -0.541016 -3.41016 -0.541016 -6.47461c0 -5.15234 1.11328 -16.9365 10.3379 -26.1621c6.67773 -6.67676 14.2012 -6.96777 20.4746 -7.1709
c16.5771 0.0664062 33.5762 0.0878906 48.9355 0.0878906c4.26562 0 4.26562 0 55.9746 -0.0898438l6.82617 0.138672h0.0957031c0.102539 -0.000976563 0.205078 -0.00195313 0.306641 -0.00195313zM314.057 539.589l0.0410156 0.015625
c-0.0136719 -0.00488281 -0.0410156 -0.015625 -0.0410156 -0.015625zM331.434 290.745c0.527344 -9.37695 -2.62695 -28.9199 -2.24121 -37.6504c0.398438 -0.707031 0.719727 -1.57422 0.8125 -2.57617c0.868164 -9.33301 4.79492 -18.9697 9.66016 -27.3994
c6.06543 -10.5088 13.5176 -19.0625 17.2686 -22.8125c1.29297 -1.29395 2.53223 -2.30566 2.55664 -2.3291c1.03809 -1.03809 1.58887 -2.37988 1.65332 -3.74023c0.740234 -2.38867 -0.163086 -4.99902 -2.27246 -6.40527l-4.89746 -3.26562
c-2.64551 -1.76367 -6.21094 -1.33887 -8.3623 1.00781c-10.8486 11.8057 -19.4375 21.1504 -27.5117 40.1436c-4.02832 -9.09766 -9.36328 -17.4863 -14.4111 -23.8975c-4.57227 -5.80762 -7.7793 -12.5098 -11.7109 -16.4414
c-2.34766 -2.34766 -6.05566 -2.5166 -8.59863 -0.50293c-5.89355 4.66504 -5.89355 4.66504 -6.16406 4.93555c-2.32715 2.32812 -2.51465 5.99316 -0.552734 8.53516c5.04297 6.53809 11.2598 15.3008 13.9707 18.8633c19.6826 25.8535 20.8242 60.7998 20.6611 80.0215
c-0.0302734 3.6582 2.96582 6.61328 6.62305 6.53223l5.92871 -0.130859c4.76172 -0.102539 7.59961 -3.97168 7.51367 -8.27832c-0.00878906 -0.436523 -0.046875 -2.46875 0.0742188 -4.60938zM326.646 349.95z" />
  </g>

</svg>
