<?xml version="1.0" standalone="no"?>
<!DOCTYPE svg PUBLIC "-//W3C//DTD SVG 1.1//EN" "http://www.w3.org/Graphics/SVG/1.1/DTD/svg11.dtd" >
<svg xmlns="http://www.w3.org/2000/svg" xmlns:xlink="http://www.w3.org/1999/xlink" version="1.1" viewBox="-10 0 1008 1000">
  <g transform="matrix(1 0 0 -1 0 800)">
   <path fill="currentColor"
d="M348.481 97.6934l-82.2217 148.848l24.0225 10.1475l58.4395 -100.383l53.3027 101.418l27.2285 -11.0254zM265.568 -67.707v34.6641h38.626v22.0713h-38.626v34.6641h38.626v33.7148h31.3828v-33.7148h23.2197v31.2539h31.3828v-31.2539h41.292v-34.6641h-41.292
v-22.0713h41.292v-34.6641h-41.292v-36.1855h-31.3828v36.1855h-23.2197v-33.7246h-31.3828v33.7246h-38.626zM335.577 -33.043h23.2197v22.0713h-23.2197v-22.0713zM780.659 223.904c-0.529297 0 -0.985352 0.173828 -1.32227 0.358398l-214.094 -88.2627v-37.8242
c12.126 5.10742 24.251 10.2148 36.376 15.3213v-3.77051l-0.21875 -161.659h318.305l0.646484 155.446c10.9619 -6.48535 21.9238 -12.9697 32.8867 -19.4551l-0.677734 40.7051l-136.33 79.1182l1.46387 0.616211c-22.6963 11.7715 -24.457 12.7314 -36.2109 19.5508
c-0.288086 -0.102539 -0.56543 -0.144531 -0.824219 -0.144531zM884.594 -16.7148h-248.003l-0.665039 144.662l142.009 59.8174l107.859 -63.8086zM63.3545 -23.4795h55.5146l17.1611 52.2256l17.1602 -52.2256h55.5156l-44.8672 -32.2959l17.1611 -52.2246
l-44.9697 32.2959l-44.9707 -32.2959l17.1611 52.2246zM431.427 566.507c-2.86328 0 -5.33008 2.33496 -5.33008 5.33105v187.266c0 2.87207 2.34277 5.33008 5.34863 5.33008c0 0 52.5234 -0.211914 62.3496 -0.250977l36.1816 32.7344l1.69629 -13.2109l1.24805 -23.0879
l131.882 2.87305c2.85547 0.0625 5.31055 -2.34375 5.31055 -5.33008v-53.999l31.9629 -37.2178l-24.3867 1.32129l-8.7373 1.24805l1.16113 -98.6182c0.0332031 -2.86523 -2.35059 -5.33008 -5.34863 -5.33008zM655.85 667.642l-16.2246 -2.49512l-20.4209 2.70703
l34.0068 37.2969v41.458l-119.042 1.53027l-0.624023 -19.3447l-0.751953 -14.665l-39.3301 33.166l-50.4629 0.21582v-164.12l210.211 -0.90332zM207.8 564.991l88 102.399l86.4004 -96.7998l-9.60059 -8.7998l-71.1992 83.2002l4 -288.001l-17.6006 0.800781
l2.40039 287.2l-72.7998 -88zM426.2 454.591c30.3994 25.5996 47.2002 53.5996 87.2002 52.7998c36 -0.799805 37.5996 -56.7998 73.5996 -56.7998c34.4004 0 32.7998 56.7998 67.2002 57.5996c43.2002 0.799805 61.5996 -28.7998 96 -55.2002
c4.7998 -3.19922 -3.2002 -14.3994 -8 -12c-36 16 -46.4004 56 -85.6006 53.6006c-35.1992 -1.60059 -28.7998 -60.7998 -64 -62.4004c-39.1992 -1.59961 -43.1992 56 -82.3994 57.6006c-36 1.59961 -44.7998 -35.2002 -78.4004 -49.6006
c-5.59961 -2.39941 -10.3994 10.4004 -5.59961 14.4004z" />
  </g>

</svg>
