<?xml version="1.0" standalone="no"?>
<!DOCTYPE svg PUBLIC "-//W3C//DTD SVG 1.1//EN" "http://www.w3.org/Graphics/SVG/1.1/DTD/svg11.dtd" >
<svg xmlns="http://www.w3.org/2000/svg" xmlns:xlink="http://www.w3.org/1999/xlink" version="1.1" viewBox="-10 0 1051 1000">
  <g transform="matrix(1 0 0 -1 0 800)">
   <path fill="currentColor"
d="M271 608l-12 60c128.725 89.7881 355.203 55.3633 442.457 48.5605c0 -0.0107422 0.000976562 -0.0214844 0.000976562 -0.0322266c27.4463 0.582031 75.1855 -1.32129 107.268 -33.4033c40.1396 -40.1396 38.6152 -108.841 37.5254 -169.365
c-0.395508 -21.9258 -0.433594 -33.2402 -0.22168 -41.9463c26.3789 -43.8281 72.168 -89.959 89.3252 -129.607c6.95117 -16.0635 5.49219 -24.7637 2.64551 -40.2051l-12 -14l-79.501 -63.5771v-212.431c1.93945 -31.0869 1.82422 -79.2412 -27.416 -108.48
c-26.0322 -26.0322 -182.507 -12.0195 -220.584 -13.0049l-2.90137 0.0126953c-103.732 -7.2998 -296.108 50.6025 -326.603 92.1719c-18.5059 25.2275 -31.4014 41.2529 -57.9951 55.3086v70.0371c25.8174 -16.2627 49.624 -17.8066 70.1904 -60.6357
c44.2188 -92.082 349.455 -105.734 451.309 -108.438l-0.499023 -0.962891c50 12 34.1514 4.48145 42.5352 13.5361c19.1768 20.7119 3.97852 41.9688 5.50781 57.9648h-0.541992v2.14941c-0.253906 0.990234 -0.500977 1.94141 -0.738281 2.84863h0.738281v207.174v3.4873
v1.33887h1.58203l104 88h1.13281c4.9834 45.8955 -62.8379 92.1289 -94.2158 139.501l-3 4l-1 1c-2.02051 3.99219 0.0439453 4.02539 -2.08398 11.5605c-0.0371094 0.130859 -0.189453 0.24707 -0.174805 0.367188l0.258789 2.07227l0.0644531 1.49902
c0.00976562 0.226562 0.150391 3.89551 0.242188 6.24414c3.11426 79.1523 14.1973 176.389 -74.8154 176.771c-136.35 16.7461 -373.536 9.53418 -431.49 -46.5137zM30.3545 728.521h55.5146l17.1611 52.2256l17.1602 -52.2256h55.5156l-44.8672 -32.2959l17.1611 -52.2246
l-44.9697 32.2959l-44.9707 -32.2959l17.1611 52.2246zM424.298 295.745c64.9834 -42 185.707 25.6748 211.521 0.959961c11.3311 -10.8496 11.6455 -17.541 13.3145 -31.249c5.37891 -44.1904 -30.2227 -68.707 -60.4258 -77.3496
c-40.875 -11.6973 -96.3262 -11.5166 -143.214 -23.96l28.5068 -29.1465l-25.0078 -1.66602l-24.0039 24.6436c-2.93262 -0.103516 -6.68262 1.50879 -7.46484 7.46484l-4.77344 4.77246l31.0732 49.1689l24.6865 1.64648l-20.3926 -31.3398
c61.9258 16.6436 139.719 3.63086 169.355 33.2686c7.82422 7.82422 15.9014 42.2324 5.99609 55.2646c-5.94141 7.81641 -64.0312 -5.57227 -107.011 -14.4785c-31.4775 -6.52344 -58.9209 -5.7666 -88.96 10.2393c-1.72168 0.917969 -8.27148 3.65918 -8.58398 10.21
c-0.108398 2.26172 -0.0810547 5.12793 2.19824 7.40625c1.69336 1.69434 1.32812 5.3457 3.18555 4.14453zM599.809 512.87c0.953125 -16.9268 -7.09082 -65.1455 -2.35938 -67.6758c4.64648 -49.9453 53.002 -96.6123 53.0635 -94.8105l-8.19336 -5.46289
c-18.4355 20.1064 -39.0039 40.0068 -54.6787 94.4912c-3.48828 -23.9912 -18.4746 -50.8623 -31.9385 -67.9609c-8.19336 -10.4053 -11.7061 -18.7275 -18.7295 -26.5303l-9.36328 7.41309c10.5352 13.6553 16.4482 22.458 23.4102 31.6025
c35.5488 46.6973 37.0361 108.008 36.7617 140.488c3.30762 -0.0722656 6.61523 -0.145508 9.92285 -0.21875c1.86133 -0.0400391 1.93652 -1.84961 1.96875 -2.62109c0.00488281 -0.0878906 -0.120117 -4.15234 0.135742 -8.71484zM452.995 519.271
c0.954102 -16.9277 -7.0918 -65.1465 -2.3584 -67.6768c4.64453 -49.9453 53 -96.6113 53.0625 -94.8096l-8.19336 -5.46387c-18.4355 20.1074 -39.0049 40.0068 -54.6787 94.4912c-3.48926 -23.9902 -18.4746 -50.8613 -31.9395 -67.9609
c-8.19238 -10.4043 -11.7041 -18.7266 -18.7285 -26.5303l-9.36328 7.41309c10.5352 13.6562 16.4473 22.458 23.4102 31.6035c35.5488 46.6973 37.0361 108.007 36.7607 140.487c3.30762 -0.0712891 6.61523 -0.145508 9.92383 -0.217773
c1.86133 -0.0410156 1.93652 -1.84961 1.96875 -2.62109c0.00390625 -0.0878906 -0.121094 -4.15332 0.135742 -8.71484z" />
  </g>

</svg>
