<?xml version="1.0" standalone="no"?>
<!DOCTYPE svg PUBLIC "-//W3C//DTD SVG 1.1//EN" "http://www.w3.org/Graphics/SVG/1.1/DTD/svg11.dtd" >
<svg xmlns="http://www.w3.org/2000/svg" xmlns:xlink="http://www.w3.org/1999/xlink" version="1.1" viewBox="-10 0 1010 1000">
  <g transform="matrix(1 0 0 -1 0 800)">
   <path fill="currentColor"
d="M338.331 -4.53613l-28.7988 -29.7002l151.468 -148.764l234.699 284.992l-32.4346 22.5244l-203.775 -240.339zM634.575 713.942c35.457 0 88.1299 -19.4521 116.382 -44.6318l0.233398 -0.249023c24.5898 -26.2246 45.0068 -77.5771 45.0068 -113.37
c0 -3.59766 -0.213867 -8.41309 -0.273438 -9.76953c0 -0.0683594 -0.0078125 -0.126953 -0.0078125 -0.173828c-0.0302734 -30.0967 -8.78613 -91.1123 -85.1387 -165.136c-147.473 -142.977 -228.161 -220.558 -244.156 -235.091
c-3.02148 -2.74512 -3.02148 -2.74512 -7.40625 -4.58691c-4.03125 1.76562 -4.39746 1.92676 -5.62109 3.24219c-19.5332 20.9873 -247.963 238.94 -250.423 241.4c-26.001 26.001 -48.2783 60.5879 -51.5674 66.2432c-6.61719 11.4639 -15.5166 31.6514 -19.5137 44.2656
c-6.73047 21.2402 -8.77148 41.7588 -8.86133 58.6865l-0.0078125 1.31836c1.29102 3.6377 1.4668 4.1748 4.83008 16.458c8.48926 30.998 20.9736 75.8164 39.5205 96.0508l0.270508 0.243164c27.3213 24.6152 80.2266 45.0449 116.836 45.0449
c17.2324 0 34.3398 -2.45312 54.1875 -9.00293c33.5938 -11.0869 74.3213 -38.5859 110.683 -74.9473c7.14453 -7.14453 7.95215 -7.52637 9.13379 -7.52637c0.141602 0 0.288086 0.00585938 0.452148 0.00585938c1.94629 0 1.94629 0 17.248 15.3008
c7.0459 7.0459 53.2373 51.8975 103.305 68.3955c21.6396 7.36816 48.0244 7.8291 54.8887 7.8291zM829.262 554.871v0.382812c0 51.2061 -29.3135 112.474 -56.3223 139.482c-18.0859 18.085 -81.9023 53.4102 -138.977 53.4102
c-33.7852 0 -58.1797 -7.51172 -66.5859 -10.5127c-15.3271 -5.13672 -37.667 -15.9893 -51.1348 -24.8418c-22.1729 -15.0322 -34.7285 -23.5439 -58.292 -44.4883c-84.9209 76.0049 -139.215 78.8701 -174.864 78.8701c-52.6152 0 -116.685 -31.0693 -140.932 -55.3174
c-17.9512 -17.9502 -53.165 -79.5527 -53.165 -135.775c0 -34.3398 5.24512 -57.5059 9.54883 -70.8213c4.76563 -15.0234 14.6621 -37.4199 22.5586 -51.0635c2.21191 -3.82422 5.71289 -8.69531 24.4404 -33.6934c0.879883 -7.32422 29.6338 -37.5312 38.0879 -44.6328
l246.047 -238.268c2.42871 -2.35254 13.1416 -12.1992 28.5029 -12.1992c8.74805 0 19.0039 3.19336 30.0947 12.7822c2.22949 1.92773 19.5547 16.9062 245.289 237.325c95.4697 93.2236 95.7031 165.566 95.7031 199.36zM542.223 515.36
c0 11.8535 -8.66113 21.1494 -21.1113 21.1494c-6.05371 0 -9.19531 -1.83984 -15.3564 -5.44727c-6.31055 3.58691 -9.46094 5.37695 -15.335 5.37695c-0.886719 0 -0.886719 0 -9.80469 -0.722656c-0.108398 9.79004 -0.216797 19.5801 -0.325195 29.3691v0.236328
c0.000976563 0.0566406 0.00292969 0.112305 0.00292969 0.166016c0 2.2334 -0.833008 2.25098 -1.30566 2.26074l-12.6514 0.280273c0.0136719 -1.97363 0.0214844 -4.02344 0.0214844 -6.14453c0 -47.3604 -4.16016 -130.549 -53.1094 -194.848
c-16.4453 -22.4775 -24.8057 -33.7383 -32.6973 -44.1377l11.0537 -8.75098c13.2061 15.5137 11.9482 19.1318 25.9102 36.8633c15.3535 19.499 32.2041 48.0049 40.7812 76.0986l6.75586 22.1299l7.50781 -21.8867c19.9873 -58.2734 42.5029 -82.7109 70.7354 -113.354
l8.66699 5.77734c-12.9463 11.1309 -68.5859 71.1807 -74.8086 135.514c-0.634766 0.401367 -2.15332 1.36035 -2.15332 13.3691c0 5.08496 0 5.08984 1.63281 28.9893c7.97266 -7.7207 15.9453 -15.4414 23.917 -23.1631
c1.48047 -1.43359 3.36426 -2.14453 5.24121 -2.14453c2.80273 0 4.38672 1.40039 5.31543 2.22168c0.228516 0.202148 16.2686 15.5713 21.9287 21.2314c6.82129 6.82129 9.1875 13.6426 9.1875 19.5664zM505.825 517.789c4.48242 0 6.1416 7.58691 14.8477 8.03125
c0 0 0.192383 0.0107422 0.272461 0.0107422c0.0654297 0 0.167969 0.00488281 0.307617 0.00488281l0.171875 -13.584l1.6582 13.3018c0.874023 -0.244141 0.874023 -0.244141 6.04004 -2.32617c2.00684 -4.89551 2.35254 -5.74023 2.35254 -8.17969
c0 -5.26367 -3.49805 -9.17285 -6.26758 -11.9531c-6.45703 -6.21484 -12.9131 -12.4297 -19.3701 -18.6436c-19.7158 19.0195 -19.7158 19.0195 -19.8896 19.1934c-1.51172 1.5127 -5.43066 5.9209 -5.77734 11.3057l10.6299 1.10449l-10.2324 0.741211
c0.583984 1.98633 0.583984 1.98633 1.9668 6.4248c5.33984 2.12988 5.33984 2.12988 7.17676 2.60156l0.908203 0.0107422c0.0537109 0.000976563 0.107422 0.000976563 0.161133 0.000976563c8.40234 0 10.5771 -8.04492 15.0439 -8.04492zM797.497 627.996z" />
  </g>

</svg>
