<?xml version="1.0" standalone="no"?>
<!DOCTYPE svg PUBLIC "-//W3C//DTD SVG 1.1//EN" "http://www.w3.org/Graphics/SVG/1.1/DTD/svg11.dtd" >
<svg xmlns="http://www.w3.org/2000/svg" xmlns:xlink="http://www.w3.org/1999/xlink" version="1.1" viewBox="-10 0 1044 1000">
  <g transform="matrix(1 0 0 -1 0 800)">
   <path fill="currentColor"
d="M113.134 421.653l-74.3311 63.5459l70.6553 63.0645l10.666 -11.1504l-52.0215 -44.3057l188.885 2.62012l-0.850586 -18.7051l-187.884 1.56738l54.7471 -45.29zM406.224 379.885h7.02051c0.172852 -4.83887 0.34668 -9.67773 0.518555 -14.5156
c26.7471 0.935547 50.9277 12.2021 68.6523 29.9268c6.44336 6.44238 12.0332 13.7402 16.585 21.7041l-11.2334 5.96094l-1.38281 -2.18848l-68.8926 32.5049c-2.24707 -1.23145 -4.82715 -1.93066 -7.57031 -1.93066c-8.71582 0 -15.7803 7.06348 -15.7803 15.7793
c0 6.66113 4.12598 12.3574 9.96191 14.6729v73.5859h1.62012v13.4453c-13.7705 -0.647461 -52.9814 -5.9668 -79.2109 -44.2734c3.94531 -2.27734 7.89062 -4.55566 11.8359 -6.83301l-4.0498 -7.01465c-4.03223 2.32812 -8.06445 4.65527 -12.0957 6.9834
c-8.55078 -14.9033 -13.4404 -32.167 -13.4404 -50.5674c0 -17.9463 4.67969 -34.834 12.8867 -49.5059c4.17188 2.4082 8.3418 4.81641 12.5137 7.22559l4.05078 -7.01562l-12.3311 -7.11914c17.626 -26.3633 47.1973 -44.0752 80.8594 -45.334
c-0.172852 4.83594 -0.344727 9.67188 -0.517578 14.5088zM521.913 467.126c0 -61.4531 -49.876 -111.328 -111.331 -111.328c-61.4541 0 -111.33 49.875 -111.33 111.33c0 61.0928 49.5791 110.962 110.667 111.328h0.223633c61.4619 0 111.525 -49.8799 111.771 -111.33z
M413.822 568.894v-13.5088h1.06055l2.65918 -74.4375c4.31445 -2.38379 7.39355 -6.72949 8.03516 -11.834l67.8486 -37.1914l-1.90137 -3.01074l10.7451 -5.70312c6.43164 13.3018 10.0664 28.1973 10.1338 43.9229c0 18.9932 -5.21094 36.7734 -14.2783 51.9971
c-3.92578 -2.45801 -7.85254 -4.91602 -11.7783 -7.37305l-3.51074 6.08105c3.83008 2.39746 7.66113 4.7959 11.4922 7.19434c-7.85645 11.335 -33.5869 42.3945 -80.5059 43.8633zM687.82 603.171c7.36328 4.83496 18.3789 9.78516 32.6035 9.78516
c16.0029 0 33.3359 -9.60059 38.6123 -14.877c7.6709 -7.66992 15.6592 -24.3916 15.6592 -38.748v-0.111328c0 -9.36816 -0.27832 -29.4814 -26.2598 -54.8506c-60.6904 -59.2627 -65.3145 -63.2627 -66.0137 -63.8672
c-3.23438 -2.7959 -6.43359 -3.86914 -9.25781 -3.86914c-4.91699 0 -8.14355 3.05762 -8.8877 3.78027c-66.6309 64.5234 -66.6309 64.5234 -67.2334 65.127c-2.22168 2.2207 -8.71484 8.71387 -9.67188 11.585c-4.72754 6.31152 -5.66016 7.5957 -6.34375 8.77539
c-2.21387 3.82715 -4.87695 9.85254 -6.21484 14.0674c-1.21191 3.75098 -2.65234 10.1719 -2.65234 19.585c0 15.7891 9.59375 32.5352 14.8105 37.7529c6.95215 6.95215 24.3867 15.3887 39.1377 15.3887c10.5557 0 25.0361 -1.40234 47.0049 -20.6084
c5.6875 4.96387 9.02344 7.23242 14.6826 11.0684l2.2002 -3.33984c0.000976562 0 0.0859375 0.0585938 0.0957031 0.0644531c-0.760742 1.09375 -1.53711 2.17188 -2.27148 3.29199zM673.748 450.01l-0.0478516 -0.0498047s0.0185547 0.0175781 0.0478516 0.0498047z
M673.478 449.898c0.898438 0.37793 62.4473 59.833 67.6455 65.0312c19.0098 19.0107 21.0586 34.3311 21.0586 41.8438c0 0.00292969 0.000976563 0.0371094 0.00390625 0.0966797c0.0146484 0.37207 0.0722656 1.72168 0.0722656 2.57812
c0 9.05469 -5.38965 22.6152 -11.626 29.2666l0.0673828 -0.0585938c-0.0234375 0.0195312 -0.0449219 0.0390625 -0.0673828 0.0585938c-7.23828 6.40625 -21.1074 11.4951 -30.043 11.4951c-1.76562 0 -8.72754 -0.151367 -14.1797 -2.00879
c-12.8955 -4.24902 -25.2559 -16.1289 -27.085 -17.959c-3.71387 -3.71289 -4.10156 -4.61816 -5.84766 -4.63379h-0.00292969h0.0263672c-0.015625 0 -0.0273438 -0.000976563 -0.0371094 -0.000976563
c-0.0361328 -0.00195312 -0.0908203 -0.00585938 -0.166016 -0.00585938c-1.62109 0 -2.06934 0.917969 -3.68652 2.53516c-9.93359 9.93359 -20.6846 16.9609 -29.0674 19.7285c-5.17188 1.70703 -9.54883 2.33008 -14.0068 2.33008
c-11.0596 0 -25.6807 -7.10938 -30.376 -11.8027c-3.60547 -3.60547 -7.42578 -15.5566 -9.9375 -24.6309c-0.512695 -1.84863 -0.929688 -3.37012 -1.30859 -4.5v-0.0507812c0.0400391 -7.59863 1.72656 -16.9863 7.39062 -26.7959
c0.798828 -1.37305 6.78711 -10.6465 13.5781 -17.4365c0.661133 -0.663086 58.7959 -56.0918 67.4102 -64.9912c0.0273438 -0.0136719 0.0859375 -0.0429688 0.18457 -0.0888672zM660.783 665.194c23.3242 1.31348 89.7617 -9.77051 93.249 -3.25098
c68.8193 6.40137 133.118 73.0293 130.637 73.1143l7.52637 -11.29c-27.7041 -25.4004 -55.123 -53.7432 -130.195 -75.3398c33.0547 -4.80762 70.0781 -25.4551 93.6396 -44.0078c14.3359 -11.2881 25.8047 -16.1279 36.5557 -25.8047l-10.2139 -12.9023
c-18.8164 14.5146 -30.9434 22.6621 -43.5459 32.2559c-64.3418 48.9824 -148.818 51.0312 -193.572 50.6514c0.0996094 4.55762 0.199219 9.11523 0.300781 13.6738c0.0546875 2.56445 2.54785 2.66895 3.6123 2.71387
c0.120117 0.00390625 5.71973 -0.167969 12.0068 0.186523zM943.016 234.313h-75.8916l-0.205078 44.6455l43.4121 18.2861l33.0547 -19.5547zM858.064 225.248h93.9941l0.196289 47.1963c3.2793 -1.94043 6.55859 -3.88086 9.83789 -5.82031l-0.173828 10.4463
l-41.8398 24.2812l0.353516 0.149414c-5.20898 2.70801 -6.36035 3.3418 -9.47754 5.14648l-63.7383 -26.2725v-9.71484c3.6377 1.53223 7.27539 3.06445 10.9141 4.59668zM794.652 236.357h-38.8994l0.959961 96.7129l-10.998 -0.429688
c-0.775391 -36.0645 -1.43262 -72.1289 -1.97461 -108.193l61.2598 0.552734v106.649l-10.3477 0.150391v-95.4424zM604.693 198.093v12.833h19.3125v15.5342h-19.3125v12.833h19.3125v16.8574h11.1924v-16.8574h16.1094v15.627h11.1924v-15.627h20.6455v-12.833h-20.6455
v-15.5342h20.6455v-12.833h-20.6455v-18.0928h-11.1924v18.0928h-16.1094v-16.8623h-11.1924v16.8623h-19.3125zM643.179 270.851l-37.9131 68.6357l7.88379 3.33105l30.2686 -51.9941l27.5957 52.5039l9.39062 -3.80273zM651.308 226.46h-16.1094v-15.5342h16.1094v15.5342
zM36.3545 718.521h55.5146l17.1611 52.2256l17.1602 -52.2256h55.5156l-44.8672 -32.2959l17.1611 -52.2246l-44.9697 32.2959l-44.9707 -32.2959l17.1611 52.2246zM36.3545 718.521h55.5146l17.1611 52.2256l17.1602 -52.2256h55.5156l-44.8672 -32.2959l17.1611 -52.2246
l-44.9697 32.2959l-44.9707 -32.2959l17.1611 52.2246zM690.415 46.1602c1.2627 -22.4336 -7.74219 -81.3936 -5.23047 -95.668c0.770508 -0.875977 1.56445 -2.23145 1.72852 -3.98535c5.23145 -56.2568 51.2754 -111.696 69.0869 -129.507
c3.60547 -3.60547 3.60547 -3.60547 14.0586 -11.6914c-1.22754 -0.802734 -1.22754 -0.802734 -19.9932 -13.3145c-2.84668 -1.90039 -6.69922 -1.45703 -9.03418 1.08984c-30.0791 32.7197 -53.7002 58.416 -74.6094 118.096
c-9.44629 -29.4131 -26.6836 -58.2959 -42.6045 -78.5156c-11.126 -14.1289 -19.8799 -31.4688 -28.2031 -39.793c-2.53711 -2.53711 -6.54395 -2.71484 -9.28906 -0.542969c-14.1436 11.1963 -14.1436 11.1963 -14.4336 11.4873
c-2.5166 2.51562 -2.71289 6.47656 -0.598633 9.21973c7.94727 10.3027 34.1816 46.1582 34.5322 46.6201c50.7832 66.708 53.252 155.368 52.8457 203.106c-0.0341797 3.9502 3.20312 7.14551 7.1543 7.05664c18.7012 -0.416016 18.7012 -0.416016 21.4033 -3.11816
c2.02734 -2.02734 3.06055 -5.03613 2.99219 -8.46777c-0.0234375 -1.15625 -0.125977 -6.3916 0.194336 -12.0723zM387.836 46.4375c1.2627 -22.4336 -7.74219 -81.3936 -5.23047 -95.668c0.770508 -0.875977 1.56445 -2.23145 1.72852 -3.98535
c5.23145 -56.2568 51.2754 -111.696 69.0869 -129.507c3.60547 -3.60547 3.60547 -3.60547 14.0586 -11.6914c-1.22754 -0.802734 -1.22754 -0.802734 -19.9932 -13.3145c-2.84668 -1.90039 -6.69922 -1.45703 -9.03418 1.08984
c-30.0791 32.7197 -53.7002 58.416 -74.6094 118.096c-9.44629 -29.4131 -26.6836 -58.2959 -42.6045 -78.5156c-11.126 -14.1289 -19.8799 -31.4688 -28.2031 -39.793c-2.53711 -2.53711 -6.54395 -2.71484 -9.28906 -0.542969
c-14.1436 11.1963 -14.1436 11.1963 -14.4336 11.4873c-2.5166 2.51562 -2.71289 6.47656 -0.598633 9.21973c7.94727 10.3027 34.1816 46.1582 34.5322 46.6201c50.7832 66.708 53.252 155.368 52.8457 203.106c-0.0341797 3.9502 3.20312 7.14551 7.1543 7.05664
c18.7012 -0.416016 18.7012 -0.416016 21.4033 -3.11816c2.02734 -2.02734 3.06055 -5.03613 2.99219 -8.46777c-0.0234375 -1.15625 -0.125977 -6.3916 0.194336 -12.0723z" />
  </g>

</svg>
