<?xml version="1.0" standalone="no"?>
<!DOCTYPE svg PUBLIC "-//W3C//DTD SVG 1.1//EN" "http://www.w3.org/Graphics/SVG/1.1/DTD/svg11.dtd" >
<svg xmlns="http://www.w3.org/2000/svg" xmlns:xlink="http://www.w3.org/1999/xlink" version="1.1" viewBox="-10 0 1020 1000">
  <g transform="matrix(1 0 0 -1 0 800)">
   <path fill="currentColor"
d="M30.3242 741.553h55.5146l17.1611 52.2256l17.1602 -52.2256h55.5156l-44.8672 -32.2959l17.1611 -52.2246l-44.9697 32.2959l-44.9707 -32.2959l17.1611 52.2246zM271 608l-12 60c128.725 89.7881 355.203 55.3633 442.457 48.5605
c0 -0.0107422 0.000976562 -0.0214844 0.000976562 -0.0322266c27.4463 0.582031 75.1855 -1.32129 107.268 -33.4033c40.1396 -40.1396 38.6152 -108.841 37.5254 -169.365c-0.395508 -21.9258 -0.433594 -33.2402 -0.22168 -41.9463
c26.3789 -43.8281 72.168 -89.959 89.3252 -129.607c6.95117 -16.0635 5.49219 -24.7637 2.64551 -40.2051l-12 -14l-79.501 -63.5771v-212.431c1.93945 -31.0869 1.82422 -79.2412 -27.416 -108.48c-26.0322 -26.0322 -182.507 -12.0195 -220.584 -13.0049
l-2.90137 0.0126953c-103.732 -7.2998 -296.108 50.6025 -326.603 92.1719c-18.5059 25.2275 -31.4014 41.2529 -57.9951 55.3086v70.0371c25.8174 -16.2627 49.624 -17.8066 70.1904 -60.6357c44.2188 -92.082 349.455 -105.734 451.309 -108.438l-0.499023 -0.962891
c50 12 34.1514 4.48145 42.5352 13.5361c19.1768 20.7119 3.97852 41.9688 5.50781 57.9648h-0.541992v2.14941c-0.253906 0.990234 -0.500977 1.94141 -0.738281 2.84863h0.738281v207.174v3.4873v1.33887h1.58203l104 88h1.13281
c4.9834 45.8955 -62.8379 92.1289 -94.2158 139.501l-3 4l-1 1c-2.02051 3.99219 0.0439453 4.02539 -2.08398 11.5605c-0.0371094 0.130859 -0.189453 0.24707 -0.174805 0.367188l0.258789 2.07227l0.0644531 1.49902
c0.00976562 0.226562 0.150391 3.89551 0.242188 6.24414c3.11426 79.1523 5.19727 173.389 -83.8154 173.771c-136.35 16.7461 -373.536 9.53418 -431.49 -46.5137zM628 150zM427.62 284.807zM390.2 215.917zM536.001 125.846zM535.738 117.48zM424.337 148.587z
M488.561 128.383zM663.742 231.493zM390.2 215.917zM663.742 231.493zM575.012 319.938c-14.125 0 -26.084 -5.49414 -32.1494 -11.5596c-2.30762 -2.30859 -1.71777 -2.42871 -2.67285 -2.77539c-4.28809 -1.56445 -8.49023 -2.13086 -12.3252 -2.13086
c-3.62012 0 -10.1992 0.535156 -17.3223 3.73535c-4.83984 5.8916 -13.0244 11.2539 -26.7881 11.2539c-20.6611 0 -44.2227 -12.7891 -52.417 -31.9502l-0.404297 -0.946289h-1.42578l-37.3301 -50.7227h-1.78613v-2.42578
c-0.242188 -0.329102 -0.484375 -0.657227 -0.726562 -0.986328h0.390625l-4.13379 -15.5039l-0.464844 0.00683594c-0.0839844 -1.58789 -0.233398 -2.49902 -0.734375 -4.47266h0.601562c-0.0146484 -1.75195 -0.0146484 -1.75195 -0.0146484 -1.93066
c0 -11.335 4.8916 -34.2734 37.4922 -61.2354c34.4297 -28.4785 73.3672 -31.6182 105.646 -31.6182c52.9072 0 74.4775 6.63086 106.136 31.6484c38.6748 30.5586 39.3271 39.5576 40.3906 61.8945l-1.08203 0.0166016
c-0.0664062 0.249023 -4.81641 19.6328 -6.50098 24.8506l-27.6416 47.2334c-3.11523 3.25195 -3.11523 3.25195 -3.42871 3.79004h-0.205078c-9.71875 9.94629 -30.0908 28.5596 -49.9824 32.6836c-3.80664 0.789062 -7.53418 1.14453 -11.1211 1.14453zM483.215 306.277
c2.97363 0 9.58301 0 17.1182 -5.18555l-0.0585938 -0.719727c0.435547 -0.177734 1.13281 -0.504883 1.80957 -1.14844c6.38477 -6.06641 16.1963 -8.91504 25.5127 -8.91504c8.67773 0 16.9258 2.4707 21.5684 7.11426c0.90332 0.904297 2.36328 2.3623 3.48926 5.75879
c4.78418 3.26465 12.3848 6.82812 22.7578 6.82812c13.7656 0 20.2012 -5.99512 25.1367 -10.5908c3.83496 -3.57129 8.88477 -8.28613 19.7461 -15.4736c0.415039 -0.0898438 0.755859 -0.290039 1.0293 -0.598633l0.238281 0.00976562l31.0635 -48.9961
c0 -0.0830078 -0.00195312 -0.166992 -0.00195312 -0.251953c2.22754 -8.34668 4.26172 -16.8867 6.40723 -25.3164c0.75 -2.99609 1.17188 -5.77344 1.17188 -8.46191c0 -12.8994 -9.59766 -23.3496 -37.2422 -45.9414
c-25.4746 -20.8154 -43.9229 -27.9561 -99.5176 -27.9561c-30.0977 0 -54.3584 3.69727 -82.6914 23.5303c-34.9277 24.4502 -39.624 42.4551 -39.624 58.4883c0 1.05762 0.0205078 2.09961 0.0498047 3.125c1.74316 6.91699 3.63574 13.6826 5.43555 20.542
l34.0381 48.1924c0.483398 -0.186523 0.96582 -0.373047 1.44824 -0.558594c1.14746 2.7002 3.09961 7.30078 8.39746 12.5986c8.53711 8.53809 21.1738 13.9268 32.7178 13.9268zM137.622 437.703zM137.463 435.828zM250.143 416.31
c0 14.6934 -5.05957 28.0625 -16.7354 39.7393c-6.6084 6.60645 -13.2803 10.6562 -19.5312 13.1172l-17.7393 6.9873c21.9121 -3.78516 21.9121 -3.78516 24.79 -4.64453c0.316406 0.109375 0.729492 0.193359 1.14453 0.118164
c27.0674 -4.9873 47.6055 -17.041 62.3145 -31.752c7.62109 -7.62012 12.8477 -14.9043 17.7129 -23.332c-12.6816 -22.0127 -34.3623 -46.8477 -81.1553 -55.1855l-10.0586 -1.79297c9.0918 5.58105 14.1611 8.31543 22.7705 17.0879
c11.9443 11.9434 16.4873 25.5645 16.4873 39.6572zM192.318 372.18c-12.3457 0 -23.1943 4.22949 -32.1689 13.2051c-13.0469 13.0488 -15.8457 30.5732 -10.0908 46.5068l0.667969 1.84863l0.445312 -0.164062c9.04492 13.3506 9.04492 13.3506 9.5752 14.1201
c14.1367 9.25586 14.1367 9.25586 14.3232 9.27832c9.9834 4.19922 31.4902 8.02148 49.5088 -9.99902c8.95996 -8.95898 12.7637 -19.3818 12.8027 -30.498c0 -7.72266 -1.63574 -19.6318 -12.8037 -30.8008c-5.24219 -5.24219 -15.2217 -13.4971 -32.2598 -13.4971z
M324.723 416.542c-6.94434 12.3262 -40.7305 71.7148 -129.723 71.7148c-53.5176 0 -87.082 -21.4004 -107.008 -41.3262c-8.48633 -8.48535 -15.8076 -17.7812 -22.9971 -30.3877c6.3584 -11.1475 13.4404 -20.7529 22.3457 -29.6592
c33.0488 -33.0488 73.6826 -41.8838 107.659 -41.8838c16.3379 0 66.666 1.04102 107.423 41.7988c11.6562 11.6562 18.6348 23.2158 22.2998 29.7432zM169.08 468.002c-5.3252 -2.00293 -13.6631 -7.2793 -16.9072 -10.5225
c-4.33203 -4.33398 -4.33203 -4.33398 -5.32422 -5.98633c-0.831055 -1.38672 -1.01074 -1.56152 -2.09473 -2.53906c-1.52539 -1.37695 -2.03711 -2 -2.60938 -3.45898c-0.448242 -1.14258 -3.13672 -6.01074 -3.88965 -8.10449
c0.0996094 -0.491211 0.0302734 -0.979492 -0.101562 -1.32324c-6.13379 -16.0615 -6.43359 -40.1904 12.7832 -59.4072c4.99023 -4.99121 10.1934 -8.47754 15.1885 -10.9277l13.7314 -6.7373l-14.9873 3.07129c-27.6299 5.66113 -46.7402 18.418 -59.5293 31.208
c-7.58887 7.58887 -12.8643 14.8779 -17.7256 23.2676c9.125 15.8135 29.4668 45.9414 80.4258 55.208zM512.991 481.768c13.7607 -50.5215 50.7412 -90.9541 117.992 -124.929l-4.23535 -10.2656c-65.7842 33.3291 -105.826 73.2773 -122.215 122.104
c-15.4297 -43.3467 -58.9258 -97.5791 -97.0879 -121.055l-6.88086 10.3779c75.4473 48.4229 111.7 120.927 108.531 221.966l10.9756 -0.242188c0.150391 -0.00292969 0.275391 -9.47754 0.275391 -13.0938c0 -24.6035 -7.35547 -84.8623 -7.35547 -84.8623z" />
  </g>

</svg>
