<?xml version="1.0" standalone="no"?>
<!DOCTYPE svg PUBLIC "-//W3C//DTD SVG 1.1//EN" "http://www.w3.org/Graphics/SVG/1.1/DTD/svg11.dtd" >
<svg xmlns="http://www.w3.org/2000/svg" xmlns:xlink="http://www.w3.org/1999/xlink" version="1.1" viewBox="-10 0 1046 1000">
  <g transform="matrix(1 0 0 -1 0 800)">
   <path fill="currentColor"
d="M440.043 176.371c-1.4043 0 -2.53613 1.13965 -2.53613 2.5332l2.43359 69.9961c-7.07129 8.46289 -14.3232 16.3848 -21.4658 24.1855c-31.4844 34.3877 -60.9512 66.6465 -61.0527 131.717c-0.0859375 54.2266 19.6406 81.9688 30.6875 93.2051
c34.915 34.1328 81.0107 42.7119 104.966 42.7119c2.17871 0 4.93457 1.84766 7.80469 1.71094c70.8086 -3.3291 85.9199 -8.93066 121.996 -40.3096c4.65625 -4.0498 6.0127 -7.35352 6.61523 -10.4697c0.111328 -0.563477 0.172852 -0.782227 0.194336 -0.852539
c16.5293 -19.0742 28.1299 -69.207 29.0273 -83.7861c0.0615234 -0.987305 0.209961 -2.13672 0.382812 -3.43555c0.480469 -3.6709 1.12207 -8.52246 0.0517578 -14.627c-14.71 -84.0117 -54.6875 -108.189 -59.3877 -121.36
c-0.257812 -0.719727 -0.493164 -0.835938 -0.594727 -0.939453c-1.12109 -1.11914 -10.835 -6.07324 -18.6367 -9.74023c-0.980469 -2.79199 -0.980469 -2.79199 -1.47656 -3.30859c-0.230469 -0.882812 -0.439453 -2.44824 -0.439453 -2.44824l-1.44727 -71.501
c-0.0283203 -1.37207 -1.14355 -2.47266 -2.51855 -2.48145zM629.577 490.91l-0.166016 0.146484l-1.53223 -2.00195zM622.459 499.952l-1.67676 0.691406l-1.67969 -4.20898zM512.824 523.06c-40.6523 0 -67.1611 -7.17773 -100.961 -32.2383
c-8.91309 -8.91211 -33.7227 -35.6631 -33.8398 -82.0693c-0.154297 -61.0908 26.4697 -89.8506 40.7715 -104.153c7.12598 -7.125 7.12598 -7.125 8.30664 -8.88867c2.33301 -3.48535 2.33301 -3.48535 17.4766 -19.8994
c3.47656 -0.854492 8.79199 -3.0459 14.1826 -8.65039c2.94922 -3.06445 1.75684 -14.4414 1.21289 -19.6465l-0.485352 -59.1875l93.9248 -0.482422l4.41797 72.6436c0.0419922 0.688477 0.360352 1.32812 0.891602 1.78125c3.12207 2.6582 3.2041 2.72949 4.81934 4.34668
c1.59766 1.5957 6.23047 6.11914 10.3027 7.30469c1.47852 0.429688 3.53711 4.51172 7.81543 7.70996c20.4678 15.3018 50.7646 53.8164 54.5254 109.326c0.550781 8.12109 -0.703125 16.9805 -2.30566 26.4844c-3.38965 20.1133 -8.3584 48.6982 -23.6514 66.5195
c-2.37793 1.95898 -3.09961 2.60938 -14.0459 13.5566c-19.5859 19.584 -52.0117 25.543 -83.3584 25.543zM30.3242 741.553h55.5146l17.1611 52.2256l17.1602 -52.2256h55.5156l-44.8672 -32.2959l17.1611 -52.2246l-44.9697 32.2959l-44.9707 -32.2959l17.1611 52.2246z
M804 631c0 -96.6865 68.0879 -173.199 99.375 -191.775l11.1992 -6.64941c-16.9434 -0.478516 1.18945 0.900391 -34.5742 -3.5752l-1.0752 1.36426c-22.0068 27.9238 -93.998 110.011 -106.903 207.233c-0.657227 4.95117 0.0224609 9.79688 0.582031 18.2783
c-1.38379 0.708984 -2.88672 1.4873 -4.52246 2.34082c-0.0283203 -1.83984 -0.322266 -3.81641 -0.0449219 -5.88867c33.3789 -249.661 97.5459 -216.742 97.5459 -216.742s6.91211 -4.29004 10.2793 -6.58594h-32.8613c-44.1455 16.1279 -101.697 151.17 -101.697 222.331
c0 8.73535 0.302734 15.3135 0.785156 20.6846c-60.6641 32.3369 -181.179 64.7012 -284.885 64.7012c-23.0527 0 -45.5234 -2.04883 -73.3945 -6.17773c-32.3232 -4.78906 -32.3232 -4.78906 -70.6152 -21.2002c-18.916 -8.10645 -50.2139 -47.4062 -58.166 -66.7188
c-7.02734 -17.0664 -9.0791 -30.2676 -9.0791 -45.8906c0 -22.332 3.62891 -44.376 3.62891 -77.1553c0 -8.99219 1.14648 -13.8564 1.14648 -20.1924c0 -4.57031 -0.613281 -9.64551 -2.73242 -16.6025c-19.9492 -65.4795 -40.3174 -87.0479 -63.832 -110.183
c-6.25977 -6.16016 -27.0508 -26.6172 -27.0508 -37.7881c0 -4.45605 0.882812 -6.9082 38.3447 -19.4531c55.9199 -18.7266 60.0254 -24.4102 60.0254 -90.9766c0 -43.0117 2.70801 -110.013 2.70801 -151.731c0 -5.5 0.0820312 -11.3867 0.267578 -17.7666
c0.50293 -17.292 16.4512 -45.3398 23.8975 -57.5352c1.19629 -0.303711 1.95996 -1.18164 1.95996 -1.18164c1.1543 -0.666992 2.48438 -1.60059 4.13477 -2.74414c16.0508 -11.1162 22.0049 -13.1846 40.8428 -13.1846c24.0361 0 22.3457 4.21484 79.0615 4.21484
c0.316406 0 6.94531 -0.00390625 7.01562 -0.00390625c14.7988 0 25.668 0.226562 52.1025 3.80078c20.2021 2.73242 38.8271 4.61572 56.5088 6.4043c120.938 12.2334 201.711 24.1475 280.178 80.1953c2.23438 1.5957 5.14355 3.85352 8.45703 6.42773
c12.6104 9.7959 33.0303 26.8994 48.1416 26.8994c8.16699 0 13.834 -4.95996 13.834 -14.165c0 -15.4473 -17.4082 -42.8486 -33.0938 -42.8486c-1.16406 0 -1.56543 0.129883 -3.01758 0.129883c-22.6426 0 -44.3604 -36.5264 -79.4766 -51.29
c-52.8857 -22.2344 -138.298 -27.127 -175.459 -33.71c-17.2549 -3.05664 -36.6504 -6.49316 -61.8809 -12.2393c-34.7246 -7.90918 -51.6299 -8.61133 -86.7539 -8.61133c-0.251953 0 -22.7891 0.03125 -25.0811 0.03125c-11.3115 0 -32.6182 -0.123047 -32.9473 -0.123047
c-40.7773 0 -82.5049 2.86621 -120.91 24.8125c-26.0957 14.9121 -27.9092 36.1035 -30.0449 61.0586c-0.477539 5.59082 -0.976562 11.3994 -1.75781 17.3906c-1.96484 15.7158 -2.63672 29.7119 -2.63672 42.8916c0 28.6572 -4.27441 100.664 -4.27441 131.409
c0 46.4277 -4.59863 49 -29.7539 58.8145c-27.3184 10.6582 -57.2148 13.2568 -70.834 26.876c-4.33008 4.33008 -6.66504 9.68945 -6.66504 16.1094c0 4.7959 1.30371 10.1846 4.05176 16.1768c36.4951 79.5967 68.6367 70.0742 91.3711 139.761
c5.20312 15.9443 6.93652 32.2529 6.93652 48.6797c0 32.5635 -6.77832 65.1611 -6.77832 95.8125c0 47.6494 17.2412 68.3838 35.0508 86.1934c66.2422 66.2412 143.674 66.3555 238.901 66.3555h0.988281c82.8154 0 190.135 -23.3467 246.021 -49.8477
c43.5547 -20.6533 21.8506 -15.7109 32.4561 -16.8408c11.3984 -1.2168 39 -13 47.5039 -30.4053c4.31641 -8.83496 -4.12305 -21.668 -4.50391 -29.5947c-0.257812 -5.36523 2 -14.3428 2 -20z" />
  </g>

</svg>
