<?xml version="1.0" standalone="no"?>
<!DOCTYPE svg PUBLIC "-//W3C//DTD SVG 1.1//EN" "http://www.w3.org/Graphics/SVG/1.1/DTD/svg11.dtd" >
<svg xmlns="http://www.w3.org/2000/svg" xmlns:xlink="http://www.w3.org/1999/xlink" version="1.1" viewBox="-10 0 1051 1000">
  <g transform="matrix(1 0 0 -1 0 800)">
   <path fill="currentColor"
d="M271 608l-12 60c128.725 89.7881 355.203 55.3633 442.457 48.5605c0 -0.0107422 0.000976562 -0.0214844 0.000976562 -0.0322266c27.4463 0.582031 75.1855 -1.32129 107.268 -33.4033c40.1396 -40.1396 38.6152 -108.841 37.5254 -169.365
c-0.395508 -21.9258 -0.433594 -33.2402 -0.22168 -41.9463c26.3789 -43.8281 72.168 -89.959 89.3252 -129.607c6.95117 -16.0635 5.49219 -24.7637 2.64551 -40.2051l-12 -14l-79.501 -63.5771v-212.431c1.93945 -31.0869 1.82422 -79.2412 -27.416 -108.48
c-26.0322 -26.0322 -182.507 -12.0195 -220.584 -13.0049l-2.90137 0.0126953c-103.732 -7.2998 -296.108 50.6025 -326.603 92.1719c-18.5059 25.2275 -31.4014 41.2529 -57.9951 55.3086v70.0371c25.8174 -16.2627 49.624 -17.8066 70.1904 -60.6357
c44.2188 -92.082 349.455 -105.734 451.309 -108.438l-0.499023 -0.962891c50 12 34.1514 4.48145 42.5352 13.5361c19.1768 20.7119 3.97852 41.9688 5.50781 57.9648h-0.541992v2.14941c-0.253906 0.990234 -0.500977 1.94141 -0.738281 2.84863h0.738281v207.174v3.4873
v1.33887h1.58203l104 88h1.13281c4.9834 45.8955 -62.8379 92.1289 -94.2158 139.501l-3 4l-1 1c-2.02051 3.99219 0.0439453 4.02539 -2.08398 11.5605c-0.0371094 0.130859 -0.189453 0.24707 -0.174805 0.367188l0.258789 2.07227l0.0644531 1.49902
c0.00976562 0.226562 0.150391 3.89551 0.242188 6.24414c3.11426 79.1523 14.1973 176.389 -74.8154 176.771c-136.35 16.7461 -373.536 9.53418 -431.49 -46.5137zM30.3545 728.521h55.5146l17.1611 52.2256l17.1602 -52.2256h55.5156l-44.8672 -32.2959l17.1611 -52.2246
l-44.9697 32.2959l-44.9707 -32.2959l17.1611 52.2246zM548.295 248.721v18.333h27.5898v22.1914h-27.5898v18.333h27.5898v24.082h15.9883v-24.082h23.0137v22.3242h15.9883v-22.3242h29.4941v-18.333h-29.4941v-22.1914h29.4941v-18.333h-29.4941v-25.8477h-15.9883
v25.8477h-23.0137v-24.0898h-15.9883v24.0898h-27.5898zM603.274 352.661l-54.1631 98.0508l11.2627 4.75781l43.2412 -74.2773l39.4219 75.0068l13.417 -5.43359zM614.887 289.245h-23.0137v-22.1914h23.0137v22.1914zM272 364l-46.6719 42.2783l7.5625 5.57031
l36.1621 -33.2148l64.4814 81.6768l10.2725 -4.7207zM427.059 397.061c0 0.791016 -0.794922 2.95898 -1.47754 3.8457c-0.944336 0.700195 -3.21484 1.50977 -4.08105 1.50977c-3.13184 0 -5.37402 -2.1748 -7.40332 -4.20508
c-0.875977 -0.875 -2.02539 -1.31348 -3.1748 -1.31348c-1.85254 0 -2.87402 1.01367 -3.70703 1.84668c-0.171875 0.172852 -3.125 2.76367 -4.86133 3.33691c-0.792969 0.260742 -1.31055 0.331055 -1.9502 0.331055c-0.826172 0 -3.00391 -0.748047 -4.0332 -1.47852
c-0.438477 -0.692383 -0.454102 -0.743164 -1.5 -4.33984c0.0859375 -1.33887 0.71875 -4.07129 3.73633 -6.98145l12.3252 -11.8896l12.2393 11.7793c1.32324 1.32617 3.8877 3.93262 3.8877 7.55859zM395.091 422.632
c0.158203 -2.82031 0.0625 -6.54297 -0.183594 -10.7891c4.01172 1.41895 9.6543 1.77637 15.9502 -2.63477c4.28809 3.04688 7.32129 3.5791 10.6064 3.64453c4.51367 0 9.37305 -2.39746 11.4385 -4.54688c4.43457 -4.61328 8.41504 -15.6455 -2.50195 -26.3057
c-12.9062 -12.6025 -14.4443 -14.0146 -14.8838 -14.3994c-2.59863 -2.49609 -6.66211 -2.50391 -9.28516 0.0371094l-13.9414 13.501c-0.476562 -5.52637 -0.853516 -10.6582 -0.964844 -14.7959c-0.0449219 -1.67578 -0.168945 -9.19336 1.19141 -9.9209
c0.155273 -0.0546875 0.279297 -0.140625 0.250977 -0.378906c4.41992 -47.5186 49.2871 -92.0244 51.7822 -92.9385c0.0820312 -0.0302734 -0.154297 0.00683594 -0.154297 0.00683594l-0.234375 -0.12207l-0.126953 -0.286133l0.745117 -0.416016l-8.40527 -5.60449
c-0.935547 1.01953 -1.38574 1.51074 -3.53125 3.83398c-17.0479 18.4561 -35.6211 38.5879 -50.0693 87.6016c-3.99219 -23.1885 -18.2979 -48.6143 -31.1943 -64.9922c-8.31836 -10.5645 -11.1367 -18.0078 -18.7539 -26.4717l-9.94141 7.87012
c5.8623 7.59863 9.62207 12.752 14.8174 19.9219c2.92773 4.04199 5.62695 7.7666 8.51074 11.5547c35.2842 46.3496 36.3398 107.429 36.0771 138.467l10.2617 -0.226562c0.911133 -0.0195312 2.45996 -0.458984 2.4043 -3.2373
c-0.0166016 -0.804688 -0.0878906 -4.39844 0.135742 -8.37207v0z" />
  </g>

</svg>
