<?xml version="1.0" standalone="no"?>
<!DOCTYPE svg PUBLIC "-//W3C//DTD SVG 1.1//EN" "http://www.w3.org/Graphics/SVG/1.1/DTD/svg11.dtd" >
<svg xmlns="http://www.w3.org/2000/svg" xmlns:xlink="http://www.w3.org/1999/xlink" version="1.1" viewBox="-10 0 997 1000">
  <g transform="matrix(1 0 0 -1 0 800)">
   <path fill="currentColor"
d="M618.354 274.819l8.8291 -7.15039c3.15723 -2.55566 2.76758 -6.9873 0.482422 -9.22852l-233.422 -228.801c-2.59375 -2.54297 -7.06055 -2.69824 -9.85938 -0.430664l-8.83301 7.14941c-3.15723 2.55664 -2.77148 6.98633 -0.483398 9.22949l233.423 228.803
c2.5957 2.54199 7.06055 2.69727 9.86328 0.428711zM681.6 335.888h-327.777c-3.1377 0 -5.85547 2.0918 -6.70215 4.40527l-69.8477 190.517c-1.29004 3.51953 1.05078 7.41309 4.99121 8.3125c1.74609 0.396484 4.06152 -0.106445 4.95801 -0.530273l121.203 -57.2324
l96.7539 129.393c2.29102 3.06543 7.10352 3.71484 10.2686 1.38867c0.541992 -0.398438 1.13672 -1.02734 1.41211 -1.39648l96.458 -129.392l120.439 56.5547c3.61426 1.69629 8.18555 0.175781 9.75195 -3.24707c0.62207 -1.35449 0.567383 -3.27539 0.311523 -4.1543
l-55.3906 -189.825c-0.862305 -2.95703 -4.09863 -4.79297 -6.83008 -4.79297zM370.936 358.657h292.744l40.1953 138.929l-95.5771 -45.0137c-3.3125 -1.55859 -7.33105 -0.25 -9.08496 2.10449l-88.2051 118.392l-88.6514 -118.595
c-2.09961 -2.81152 -6.31738 -3.40137 -9.08398 -2.09473l-92.7148 43.7715zM473.63 187.922l-147.632 0.807617c-4.0625 0.0224609 -7.34375 3.30273 -7.00098 6.99902c0.0947266 1.00684 0.464844 2.01172 1.0293 2.84668l73.3135 108.412
c2.13379 3.15527 6.91016 4.00879 10.1875 1.81738c0.729492 -0.487305 1.41211 -1.1875 1.83105 -1.80371l74.3164 -109.217c2.14551 -3.15137 0.853516 -7.43457 -2.75488 -9.13965c-1.02148 -0.483398 -2.9248 -0.722656 -3.29004 -0.722656zM351.496 207.004h96.8252
l-48.8584 71.0049zM693.928 23.9902l-185.516 0.891602c-4.0625 0.0214844 -7.34668 3.29883 -7.00586 6.99609c0.103516 1.1416 0.685547 2.42285 1.25586 3.16406l92.126 120.029c2.33105 3.03906 7.15234 3.63379 10.2852 1.27344
c0.482422 -0.360352 1.22559 -1.19043 1.2793 -1.25781l93.3887 -120.923c2.34082 -3.03027 1.3252 -7.37695 -2.16895 -9.26953c-1.10254 -0.598633 -2.46875 -0.904297 -3.64453 -0.904297zM538.095 43.7314h126.362l-63.7568 81.6406z" />
  </g>

</svg>
