<?xml version="1.0" standalone="no"?>
<!DOCTYPE svg PUBLIC "-//W3C//DTD SVG 1.1//EN" "http://www.w3.org/Graphics/SVG/1.1/DTD/svg11.dtd" >
<svg xmlns="http://www.w3.org/2000/svg" xmlns:xlink="http://www.w3.org/1999/xlink" version="1.1" viewBox="-10 0 996 1000">
  <g transform="matrix(1 0 0 -1 0 800)">
   <path fill="currentColor"
d="M828.399 483.872c0 9.49878 0.360099 25.4826 0.360099 28.905l-0.318652 61.3747l-8.69455 54.78l-24.0577 41.7601l-29.8355 19.1251l-33.9409 8.02542l-47.9505 1.85133v0.765382l-107.704 8.96128l-161.614 -4.8437l-135.511 -48.0118l4.97421 -24.8711
l90.1513 34.2037l168.519 13.9909l163.859 -8.05849l72.0585 -32.0852l24.6852 -76.5829c-11.2968 -92.7231 -11.5388 -94.7093 -10.6225 -98.1968c0.272553 -1.03738 0.408327 -1.98777 0.495372 -2.92219c0.487753 -0.641757 1.13403 -1.58506 1.4862 -2.05622
l30.4464 -40.7334l38.0432 -60.0682l23.93 -33.502l-96.7113 -80.2498l-3.19974 -219.288c0.962733 -7.56244 2.78458 -22.0112 5.01798 -45.877c-0.12894 -0.269919 -9.65147 -20.9678 -12.8349 -27.02c-1.80565 -3.43278 -3.36365 -6.39475 -8.94453 -11.1259
c-28.726 -6.87192 -37.6748 -9.01268 -53.7943 -9.01268c-3.38415 0 -6.77838 0.14333 -10.1737 0.446144l-127.95 -3.2205l-189.706 31.9736l-119.91 72.0259l-21.8729 31.5454c-0.18608 0.126152 -14.9542 10.3475 -18.5829 12.6523v-31.4635
c5.41685 -3.87145 13.5068 -7.36272 24.4398 -17.2503c7.32645 -6.62591 2.09556 -4.45645 10.6241 -11.9264c1.03002 -0.902171 1.03002 -0.902171 17.2005 -21.8062l70.2643 -41.1391l123.979 -35.7692l40.8353 -3.74581
c52.8258 -4.90757 59.0669 -6.73248 83.0467 -7.42728l68.08 -1.97257l89.7606 0.254271l51.1066 12.4914l15.1376 25.2075l6.27671 34.16l-0.268638 82.9487l0.0291888 84.2282l-0.00582149 87.5189l84.7837 67.8016l7.68593 8.96692l1.11464 7.19504
c0.44913 7.61262 -1.52476 12.8022 -3.31214 18.1783l-23.3304 38.8443l-33.0243 43.448l-34.3179 48.9016c-0.202711 16.1296 -0.202711 16.1296 -0.202711 17.6951zM33.2949 712.521h55.5146l17.1611 52.2256l17.1602 -52.2256h55.5156l-44.8672 -32.2959
l17.1611 -52.2246l-44.9697 32.2959l-44.9707 -32.2959l17.1611 52.2246zM495.704 264.151c1.71973 -30.543 -7.4668 -89.0576 1.07129 -93.624c8.38281 -90.1191 73.8984 -151.92 74.0088 -148.672l-14.7842 -9.85547c-33.2627 36.2812 -48.6406 49.7852 -76.9229 148.096
c-6.29688 -43.2871 -33.335 -91.7715 -57.6299 -122.625c-14.7822 -18.7725 -8.77539 -13.3906 -21.4473 -27.4707l-16.8955 13.375c19.0078 24.6406 17.332 20.1211 29.8955 36.625c64.1426 84.2559 61.498 166.395 61 225
c5.96875 -0.130859 11.9375 -0.262695 17.9062 -0.394531c3.3584 -0.0722656 3.49512 -3.33594 3.55273 -4.73047c0.0078125 -0.15625 -0.21875 -7.49023 0.245117 -15.7236zM653.934 345.672l-124.418 -140.386l16.3018 -12.9902l105.984 123.144
c8.80371 -14.5977 21.3662 -31.8555 25.5498 -43.1836l29.7402 42.4062zM633.73 41.5137l42.2695 -41.5137l60.4062 77.5391l-13.1172 8.73633l-47.8545 -60.6143l-30.1748 28.8584zM445.089 357.551c0.228516 0.00976562 14.6865 0.000976562 14.6904 0.00878906
c-4.45312 18.6787 -3.20117 24.6934 -1.57715 29.9336c0.0146484 0.0478516 1.27148 4.39258 1.44336 4.73535l10.5029 21.0068c-5.37598 83.3271 -5.37598 83.3271 -5.3457 83.6855c1.76562 20.9648 3.30664 45.4189 1.50586 61.082
c-4.68066 18.5918 -16.2959 14.6689 -19.0088 8.72168c-0.958984 -2.10059 -2.03906 -2.34863 -4.82812 -2.98828c-2.16797 -1.93848 -5.57715 -1.51367 -7.19824 0.927734c-2.0332 3.06152 -11.4365 17.6221 -11.6826 18.1055
c-3.40039 6.66016 -16.5186 10.7578 -19.0254 -2.42676c-0.0908203 -0.475586 -0.0908203 -0.475586 -4.56836 -11.3896c-1.66797 -4.06641 -7.54883 -3.89746 -8.97754 0.260742l-8.42285 24.501c-2.25195 6.55078 -16.2998 11.7812 -23.7217 -0.623047
c-0.137695 -0.408203 -1.13965 -3.44629 -6.55469 -20.4316c-1.17676 -3.69238 -6.09082 -4.53613 -8.42578 -1.39844c-6.92773 9.30859 -6.92773 9.30859 -7.0498 9.43066c-0.0458984 0.0458984 -7.91309 7.89941 -12.3691 3.44238
c-2.44141 -2.43945 -3.82129 -8.39844 -4.42871 -12.0527c0.0166016 -0.546875 0.125977 -3.78027 0.725586 -19.4639c0.357422 -9.76562 0.791992 -30.6348 0.800781 -30.9453c2.85742 -20.3584 1.53613 -20.9941 3.02051 -31.8867
c0.109375 -0.418945 0.932617 -3.59375 5.20996 -19.7871c0.0419922 -0.15918 0.433594 -9.22559 -0.806641 -11.334c-3.05078 -5.18457 -3.26172 -5.54395 -5.27344 -6.00391c-7.96191 -1.8252 -10.4814 -0.220703 -13.1738 3.51465
c-1.38477 1.92188 -10.8027 11.3613 -11.75 12.4531l-19.7373 22.7734c-0.53418 0.353516 -3.27246 2.14844 -11.5127 7.36816c-0.481445 0.145508 -2.78809 0.834961 -9.75293 2.78418c-1.94727 -1.06836 -4.26855 -0.424805 -6.03027 -2.18457
c-1.27734 -1.27734 -2.75098 -5.55762 -2.28223 -7.98145l10.8887 -14.6445c2.09863 -1.9668 13.2451 -11.6826 13.792 -12.3428c16.2715 -19.6787 16.2832 -19.6709 16.3506 -19.7842c30.9639 -52.3594 11.8252 -16.0215 11.9141 -16.1611
c10.6631 -16.7568 10.6631 -16.7568 10.8135 -17.1064l8.23633 -19.0918c2.27539 -3.52734 11.0713 -16.7979 11.3066 -17.2461c3.70508 -7.04102 3.70508 -7.04102 3.84473 -7.62598c2.75781 -11.5547 22.2852 -12.1299 22.542 -12.1348l21.3594 -0.380859z
M459.781 347.957h-14.3906c-64.7432 -2.68945 -64.7432 -2.68945 -64.8867 -2.6875l-21.5137 0.384766c-3.41504 0.0644531 -26.7354 1.15527 -31.5361 18.8721l-3.05566 5.80566c-11.1846 16.9668 -10.9951 16.4062 -11.6709 17.9736l-8.14746 18.8857l-10.166 15.9766
l-11.5508 15.6484l-15.8633 19.1836c-13.627 12.0693 -13.627 12.0693 -14.2256 12.874l-11.1367 14.9756c-3.97266 5.34277 -1.19922 15.7676 3.34082 20.3086c2.66309 2.66211 5.17285 3.47461 8.89355 4.16016c2.05859 0.919922 4.37695 1.08008 6.52441 0.478516
c10.1318 -2.83691 10.3525 -2.6875 12.1318 -3.81543c10.873 -6.88477 11.6973 -7.14551 13.2549 -8.70215c0.181641 -0.181641 -0.233398 -0.561523 20.1914 -23.2705c10.6416 -11.832 11.0576 -11.4512 12.585 -13.5225
c0.25293 0.0224609 0.599609 0.0654297 1.03711 0.136719l0.513672 0.874023l0.230469 5.73828c-5.12012 19.3711 -5.0625 18.8359 -5.23633 20.1006c-1.59961 11.6475 -0.193359 11.8125 -3.06738 32.2227c-0.0439453 0.31543 -0.618164 25.2383 -0.855469 31.6904
c-0.766602 20.0527 -0.950195 19.2627 -0.652344 21.1172c0.935547 5.79199 3.08887 19.1396 14.3662 21.5176c9.37598 1.97852 18.4658 -6.8252 19.7139 -8.50098l1.39551 -1.875c3.74707 11.8887 3.62695 11.8096 4.50488 13.3037
c11.6064 19.7402 36.2803 13.2402 41.1631 -0.964844l4.12109 -11.9873c5.74707 19.3154 28.8682 16.4395 36.2246 2.51367c0.0869141 -0.133789 8.26465 -12.8389 8.57324 -13.3145c8.06934 10.4307 28.5049 12.1895 35.0234 -13.6992
c0.103516 -0.414062 0.179688 -0.832031 0.228516 -1.25293c1.96582 -17.1025 0.325195 -41.5605 -1.44727 -62.6387l5.33105 -82.6094c0.107422 -1.67969 -0.222656 -3.38184 -0.992188 -4.91992l-10.2695 -20.54c-0.295898 -1.14551 -0.640625 -2.28906 -1.09766 -3.75781
c-1.27734 -4.125 -2.62793 -6.50195 1.74707 -24.8477c1.43945 -6.03027 -3.13184 -11.8359 -9.33398 -11.8359zM405.997 485.106c0.484375 -8.61426 -2.97266 -31.2549 -2.00781 -36.7363c0.294922 -0.336914 1.36816 2.21582 1.43164 1.54102
c2.00879 -21.6025 19.6895 -42.8906 26.5293 -49.7305c1.38379 -1.38379 0.616211 -4.45605 4.62988 -7.56055c-0.470703 -0.30957 -0.470703 -0.30957 -7.67676 -5.11328c-1.09375 -0.729492 -2.57227 -0.55957 -3.46875 0.418945
c-11.5508 12.5635 -20.6211 22.4316 -28.6504 45.3477c-3.62793 -11.2939 -10.2471 -22.3848 -16.3604 -30.1494c-4.27246 -5.42578 -7.63379 -12.085 -10.8301 -15.2803c-0.974609 -0.974609 -2.5127 -1.04297 -3.56641 -0.208984
c-5.43164 4.29883 -5.43164 4.29883 -5.54297 4.41113c-0.966797 0.96582 -1.04199 2.48633 -0.229492 3.54004c3.05078 3.95703 13.125 17.7256 13.2598 17.9023c19.501 25.6172 20.4482 59.6611 20.293 77.9932c-0.0136719 1.51758 1.22949 2.74414 2.74707 2.70996
c7.18066 -0.160156 7.18066 -0.160156 8.21973 -1.19727c0.777344 -0.779297 1.1748 -1.93457 1.14844 -3.25195c-0.00878906 -0.443359 -0.0478516 -2.4541 0.0742188 -4.63574z" />
  </g>

</svg>
