<?xml version="1.0" standalone="no"?>
<!DOCTYPE svg PUBLIC "-//W3C//DTD SVG 1.1//EN" "http://www.w3.org/Graphics/SVG/1.1/DTD/svg11.dtd" >
<svg xmlns="http://www.w3.org/2000/svg" xmlns:xlink="http://www.w3.org/1999/xlink" version="1.1" viewBox="-10 0 1051 1000">
  <g transform="matrix(1 0 0 -1 0 800)">
   <path fill="currentColor"
d="M828.399 483.872c0 9.49878 0.360099 25.4826 0.360099 28.905l-0.318652 61.3747l-8.69455 54.78l-24.0577 41.7601l-29.8355 19.1251l-33.9409 8.02542l-47.9505 1.85133v0.765382l-107.704 8.96128l-161.614 -4.8437l-135.511 -48.0118l4.97421 -24.8711
l90.1513 34.2037l168.519 13.9909l163.859 -8.05849l72.0585 -32.0852l24.6852 -76.5829c-11.2968 -92.7231 -11.5388 -94.7093 -10.6225 -98.1968c0.272553 -1.03738 0.408327 -1.98777 0.495372 -2.92219c0.487753 -0.641757 1.13403 -1.58506 1.4862 -2.05622
l30.4464 -40.7334l38.0432 -60.0682l23.93 -33.502l-96.7113 -80.2498l-3.19974 -219.288c0.962733 -7.56244 2.78458 -22.0112 5.01798 -45.877c-0.12894 -0.269919 -9.65147 -20.9678 -12.8349 -27.02c-1.80565 -3.43278 -3.36365 -6.39475 -8.94453 -11.1259
c-28.726 -6.87192 -37.6748 -9.01268 -53.7943 -9.01268c-3.38415 0 -6.77838 0.14333 -10.1737 0.446144l-127.95 -3.2205l-189.706 31.9736l-119.91 72.0259l-21.8729 31.5454c-0.18608 0.126152 -14.9542 10.3475 -18.5829 12.6523v-31.4635
c5.41685 -3.87145 13.5068 -7.36272 24.4398 -17.2503c7.32645 -6.62591 2.09556 -4.45645 10.6241 -11.9264c1.03002 -0.902171 1.03002 -0.902171 17.2005 -21.8062l70.2643 -41.1391l123.979 -35.7692l40.8353 -3.74581
c52.8258 -4.90757 59.0669 -6.73248 83.0467 -7.42728l68.08 -1.97257l89.7606 0.254271l51.1066 12.4914l15.1376 25.2075l6.27671 34.16l-0.268638 82.9487l0.0291888 84.2282l-0.00582149 87.5189l84.7837 67.8016l7.68593 8.96692l1.11464 7.19504
c0.44913 7.61262 -1.52476 12.8022 -3.31214 18.1783l-23.3304 38.8443l-33.0243 43.448l-34.3179 48.9016c-0.202711 16.1296 -0.202711 16.1296 -0.202711 17.6951zM30.3242 741.553h55.5146l17.1611 52.2256l17.1602 -52.2256h55.5156l-44.8672 -32.2959
l17.1611 -52.2246l-44.9697 32.2959l-44.9707 -32.2959l17.1611 52.2246zM439.25 190.911c-0.0332031 0.0283203 -0.0634766 0.0546875 -0.0927734 0.0771484zM405.394 198.974c0.104492 -0.116211 0.178711 -0.197266 0.21875 -0.238281zM528.91 251.899
c1.38513 2.38536 12.3036 20.0581 17.5869 9.06543c2.9834 -6.18555 -0.754883 -43.5498 -0.791992 -49.8271c-1.0752 -3.57324 -0.603516 -9.67871 -0.360352 -11.1758c0 -8.05957 1.31445 -22.0654 1.47656 -23.2393c-1.46094 -2.69531 2.25 -13.7715 1.33398 -21.8574
c-0.236328 -2.08691 -7.23145 -18.6338 -7.23145 -18.6338c-0.641602 -1.00586 0.0908203 0.24707 -0.888672 -0.49707c0.00560341 -0.00359193 0.98131 -15.5834 0.947266 -15.7373c-7.34104 -9.34694 -62.7195 -7.64475 -64.2656 -8.60938
c-7.14844 1.57617 -19.1963 9.07422 -20.374 13.1533l0.0146484 1.08887c-1.11264 2.79718 -13.2119 19.9738 -13.2119 22.3018c0 14.5392 -27.8245 36.8814 -41.877 57.917c0.145185 4.25378 6.30394 9.53513 12.584 8.11426
c2.61914 -0.598633 4.65918 -3.29199 6.85742 -4.35547c0.22337 -0.303281 22.7631 -26.2756 28.5 -24.627c0.345703 -0.0595703 0.345703 -0.0595703 3.24902 -0.640625c1.1705 1.2705 1.1705 1.2705 -1.89844 12.1396
c0.340572 0.660762 -3.61999 45.8371 -3.80078 46.2646c0.410156 3.0957 0.0830078 13.4883 0.370117 17.3994c0 0.137403 1.6978 9.604 7.45508 11.542c6.63679 -0.373485 8.60711 -5.74897 10.7412 -26.791c14.572 27.3245 3.87644 30.8162 15.9424 35.4287
c3.08887 -0.125977 3.2207 -0.297852 3.94531 -0.910156c0.0449219 -0.154297 5.44434 -10.4365 6.67969 -14.6777l-0.352539 -2.26172l0.890625 0.0322266c0.0169986 -0.0880834 1.376 -8.05426 1.26758 -8.88086
c0.144531 -0.0234375 0.37793 0.0214844 0.325195 -0.154297c2.61621 0.145508 3.5752 -13.9941 5.37109 -13.2129c3.1488 1.36855 0.51441 6.26131 2.48535 22.2988c0.515841 4.18513 8.31691 17.7374 12.2852 14.6816c5.60547 -6.26172 8.74902 -21.541 8.55566 -31.7393
c1.19727 -0.0136719 1.46387 -3.9209 1.57227 -4.83789c2.16895 -18.4043 3.34961 13.2891 4.61621 11.2383zM450.675 269.114c-0.00292969 -0.0234375 -0.00195313 -0.00390625 0 0zM541.462 269.797l-0.487305 -2.8252l1.62305 0.451172zM484.351 280.019
l0.191406 -0.0214844c-0.0498047 0.0078125 -0.114258 0.0107422 -0.191406 0.0214844zM519.943 266.364c-0.0166016 0.0273438 -0.000976563 0.000976563 0 0zM444.781 143.586c-0.0283203 0.0224609 -0.000976562 0.0117188 0 0zM463.229 118.692zM524.772 275.716
c-0.00683594 0.015625 -0.0185547 0.0380859 0 0zM473.309 282.639c-0.00683594 -0.00585938 -0.0146484 -0.0117188 0 0zM438.456 201.557c-0.0107422 0.00976562 -0.0273438 0.0283203 0 0zM410.429 220.295c-0.0166016 0.00292969 -0.0800781 0.0175781 0 0z
M405.414 189.012c0.00488281 -0.00390625 0.00878906 -0.0126953 0 0zM442.907 196.898c-22.5832 23.6261 -33.5845 30.7805 -47.627 15.1836c-4.83691 -5.37207 2.00391 -13.8359 2.15625 -13.9717c2.1454 -2.2666 -8.15122 7.41977 10.9893 -11.7207
c19.4333 -19.4333 31.4556 -50.4705 36.333 -55.6514c0.0381563 -0.0823009 -0.471804 0.0601483 2.9082 -8.59277c-3.74609 -3.90012 0.627076 -10.599 3.36426 -11.4512c12.6475 -9.00488 79.4854 -3.2666 88.3711 0.0742188
c3.7168 0.0498047 8.19824 4.2041 9.99316 7.82617c2.49219 5.02539 -1.67578 8.86035 -0.145508 16.5459c-1.4323 2.77979 4.08198 8.54261 4.68066 12.1318c2.58105 3.25 2.37598 7.7998 1.02051 22.9883c0.273647 0.544817 -3.45462 32.069 -0.105469 60.9678
c0.0416651 0.359442 2.46857 33.0032 -4.29004 35.9297c-13.2393 4.60496 -13.5585 4.27605 -21.877 -4.2959c-8.68739 36.839 -26.8351 14.4125 -32.04 7.98047c-4.04015 17.9167 -9.51569 10.9235 -12.0996 15.165c-4.38058 7.16806 -16.5809 -8.06148 -18.6299 -12.0244
c-19.3985 10.7268 -24.1005 -6.27032 -24.1543 -6.51465c0.0455749 -0.537133 -5.90156 -9.77355 -0.0605469 -53.9062c-0.0146352 -0.166439 0.858321 0.0549433 1.21289 -16.6641zM448.694 112.503l-2.44043 0.491211
c0.512695 0.167969 1.50391 0.325195 2.44043 -0.491211zM397.922 197.56c-0.12793 0.193359 0 0 0 0zM549.795 137.226c-0.0898997 -2.24127 1.70126 -2.60147 4.08105 -2.37305c-2.25293 -2.15234 -4.08789 -0.756836 -4.62598 0.288086
c0.126953 0.635742 0.126953 0.635742 0.544922 2.08496zM627.968 317.472l21.3125 -19.584l-17.2803 -21.8877l-6.66113 6.12988l9.99902 11.3838l-81.0723 -0.390625l-0.775391 8.41113l81.9658 -0.19043l-13.9922 9.34082zM470.951 525.359
c68.7064 0 102.539 -17.9077 102.539 -75.4072v-86.418h-26.6104v78.7256c0 46.7336 -25.5136 58.0635 -80.5264 58.0635c-21.6406 0 -42.6777 -1.40625 -63.1113 -4.22266l-2.22852 24.584c21.083 3.11621 44.3955 4.6748 69.9375 4.6748zM429.296 363.534h-26.6113
v90.1885h26.6113v-90.1885z" />
  </g>

</svg>
