<?xml version="1.0" standalone="no"?>
<!DOCTYPE svg PUBLIC "-//W3C//DTD SVG 1.1//EN" "http://www.w3.org/Graphics/SVG/1.1/DTD/svg11.dtd" >
<svg xmlns="http://www.w3.org/2000/svg" xmlns:xlink="http://www.w3.org/1999/xlink" version="1.1" viewBox="-10 0 1010 1000">
  <g transform="matrix(1 0 0 -1 0 800)">
   <path fill="currentColor"
d="M30.3242 741.553h55.5146l17.1611 52.2256l17.1602 -52.2256h55.5156l-44.8672 -32.2959l17.1611 -52.2246l-44.9697 32.2959l-44.9707 -32.2959l17.1611 52.2246zM746 631c0 -96.6865 68.0879 -173.199 99.375 -191.775l11.1992 -6.64941
c-16.9434 -0.478516 1.18945 0.900391 -34.5742 -3.5752l-1.0752 1.36426c-22.0068 27.9238 -93.9978 110.011 -106.903 207.233c-0.657227 4.95117 0.0224609 9.79688 0.582031 18.2783c-1.38379 0.708984 -2.88672 1.4873 -4.52246 2.34082
c-0.0283203 -1.83984 -0.321982 -3.81637 -0.0449219 -5.88867c33.3789 -249.661 97.5459 -216.742 97.5459 -216.742s6.91211 -4.29004 10.2793 -6.58594h-32.8613c-44.1455 16.1279 -101.697 151.17 -101.697 222.331c0 8.73535 0.302734 15.3135 0.785156 20.6846
c-60.6641 32.3369 -123.179 64.7012 -226.885 64.7012c-23.0527 0 -45.5234 -2.04883 -73.3945 -6.17773c-32.3232 -4.78906 -32.3232 -4.78906 -70.6152 -21.2002c-18.916 -8.10645 -50.2139 -47.4062 -58.166 -66.7188
c-7.02734 -17.0664 -9.0791 -30.2676 -9.0791 -45.8906c0 -22.332 3.62891 -44.376 3.62891 -77.1553c0 -8.99219 1.14648 -13.8564 1.14648 -20.1924c0 -4.57031 -0.613281 -9.64551 -2.73242 -16.6025c-19.9492 -65.4795 -40.3174 -87.0479 -63.832 -110.183
c-6.25977 -6.16016 -27.0508 -26.6172 -27.0508 -37.7881c0 -4.45605 0.882812 -6.9082 38.3447 -19.4531c55.9199 -18.7266 60.0254 -24.4102 60.0254 -90.9766c0 -43.0117 2.70801 -110.013 2.70801 -151.731c0 -5.5 0.0820312 -11.3867 0.267578 -17.7666
c0.50293 -17.292 16.4512 -45.3398 23.8975 -57.5352c1.19629 -0.303711 1.95996 -1.18164 1.95996 -1.18164c1.1543 -0.666992 2.48438 -1.60059 4.13477 -2.74414c16.0508 -11.1162 22.0049 -13.1846 40.8428 -13.1846c24.0361 0 22.3457 4.21484 79.0615 4.21484
c0.316406 0 6.94531 -0.00390625 7.01562 -0.00390625c14.7988 0 25.668 0.226562 52.1025 3.80078c20.2021 2.73242 38.8271 4.61523 56.5088 6.4043c120.938 12.2334 143.711 24.1475 222.178 80.1953c2.23438 1.5957 5.14355 3.85352 8.45703 6.42773
c12.6104 9.7959 33.0303 26.8994 48.1416 26.8994c8.16699 0 13.834 -4.95996 13.834 -14.165c0 -15.4473 -17.4082 -42.8486 -33.0938 -42.8486c-1.16406 0 -1.56543 0.129883 -3.01758 0.129883c-22.6426 0 -44.3604 -36.5264 -79.4766 -51.29
c-52.8857 -22.2344 -80.2979 -27.1279 -117.459 -33.71c-17.2549 -3.05664 -36.6504 -6.49316 -61.8809 -12.2393c-34.7246 -7.90918 -51.6299 -8.61133 -86.7539 -8.61133c-0.251953 0 -22.7891 0.03125 -25.0811 0.03125
c-11.3115 0 -32.6182 -0.123047 -32.9473 -0.123047c-40.7773 0 -82.5049 2.86621 -120.91 24.8125c-26.0957 14.9121 -27.9092 36.1035 -30.0449 61.0586c-0.477539 5.59082 -0.976562 11.3994 -1.75781 17.3906c-1.96484 15.7158 -2.63672 29.7119 -2.63672 42.8916
c0 28.6572 -4.27441 100.664 -4.27441 131.409c0 46.4277 -4.59863 49 -29.7539 58.8145c-27.3184 10.6582 -57.2148 13.2568 -70.834 26.876c-4.33008 4.33008 -6.66504 9.68945 -6.66504 16.1094c0 4.7959 1.30371 10.1846 4.05176 16.1768
c36.4951 79.5967 68.6367 70.0742 91.3711 139.761c5.20312 15.9443 6.93652 32.2529 6.93652 48.6797c0 32.5635 -6.77832 65.1611 -6.77832 95.8125c0 47.6494 17.2412 68.3838 35.0508 86.1934c66.2422 66.2412 143.674 66.3555 238.901 66.3555h0.988281
c82.8154 0 132.135 -23.3467 188.021 -49.8477c43.5547 -20.6533 21.8506 -15.7109 32.4561 -16.8408c11.3984 -1.2168 39 -13 47.5039 -30.4053c4.31641 -8.83496 -4.12305 -21.668 -4.50391 -29.5947c-0.257812 -5.36523 2 -14.3428 2 -20zM585.36 98.1104z
M384.98 232.917zM347.561 164.027zM493.361 73.9561zM493.099 65.5908zM381.697 96.6973zM445.921 76.4932zM621.103 179.604zM347.561 164.027zM621.103 179.604zM532.372 268.049c-14.125 0 -26.084 -5.49414 -32.1494 -11.5596
c-2.30762 -2.30859 -1.71777 -2.42871 -2.67285 -2.77539c-4.28809 -1.56445 -8.49023 -2.13086 -12.3252 -2.13086c-3.62012 0 -10.1992 0.535156 -17.3223 3.73535c-4.83984 5.8916 -13.0244 11.2539 -26.7881 11.2539c-20.6611 0 -44.2227 -12.7891 -52.417 -31.9502
l-0.404297 -0.946289h-1.42578l-37.3301 -50.7227h-1.78613v-2.42578c-0.242188 -0.329102 -0.484375 -0.657227 -0.726562 -0.986328h0.390625l-4.13379 -15.5039l-0.464844 0.00683594c-0.0839844 -1.58789 -0.233398 -2.49902 -0.734375 -4.47266h0.601562
c-0.0146484 -1.75195 -0.0146484 -1.75195 -0.0146484 -1.93066c0 -11.335 4.8916 -34.2734 37.4922 -61.2354c34.4297 -28.4785 73.3672 -31.6182 105.646 -31.6182c52.9072 0 74.4775 6.63086 106.136 31.6484c38.6748 30.5586 39.3271 39.5576 40.3906 61.8945
l-1.08203 0.0166016c-0.0664062 0.249023 -4.81641 19.6328 -6.50098 24.8506l-27.6416 47.2334c-3.11523 3.25195 -3.11523 3.25195 -3.42871 3.79004h-0.205078c-9.71875 9.94629 -30.0908 28.5596 -49.9824 32.6836c-3.80664 0.789062 -7.53418 1.14453 -11.1211 1.14453
zM440.575 254.388c2.97363 0 9.58301 0 17.1182 -5.18555l-0.0585938 -0.719727c0.435547 -0.177734 1.13281 -0.504883 1.80957 -1.14844c6.38477 -6.06641 16.1963 -8.91504 25.5127 -8.91504c8.67773 0 16.9258 2.4707 21.5684 7.11426
c0.90332 0.904297 2.36328 2.3623 3.48926 5.75879c4.78418 3.26465 12.3848 6.82812 22.7578 6.82812c13.7656 0 20.2012 -5.99512 25.1367 -10.5908c3.83496 -3.57129 8.88477 -8.28613 19.7461 -15.4736c0.415039 -0.0898438 0.755859 -0.290039 1.0293 -0.598633
l0.238281 0.00976562l31.0635 -48.9961c0 -0.0830078 -0.00195312 -0.166992 -0.00195312 -0.251953c2.22754 -8.34668 4.26172 -16.8867 6.40723 -25.3164c0.75 -2.99609 1.17188 -5.77344 1.17188 -8.46191c0 -12.8994 -9.59766 -23.3496 -37.2422 -45.9414
c-25.4746 -20.8154 -43.9229 -27.9561 -99.5176 -27.9561c-30.0977 0 -54.3584 3.69727 -82.6914 23.5303c-34.9277 24.4502 -39.624 42.4551 -39.624 58.4883c0 1.05762 0.0205078 2.09961 0.0498047 3.125c1.74316 6.91699 3.63574 13.6826 5.43555 20.542
l34.0381 48.1924c0.483398 -0.186523 0.96582 -0.373047 1.44824 -0.558594c1.14746 2.7002 3.09961 7.30078 8.39746 12.5986c8.53711 8.53809 21.1738 13.9268 32.7178 13.9268zM460.739 608.514c0 10.5039 9.4043 19.3896 21.7031 19.3896
c12.2988 0 21.7051 -8.88574 21.7051 -19.3896c0 -10.502 -9.40625 -19.3887 -21.7051 -19.3887c-12.2988 0 -21.7031 8.88672 -21.7031 19.3887zM460.739 544.393c0 10.5039 9.4043 19.3896 21.7031 19.3896c12.2988 0 21.7051 -8.88574 21.7051 -19.3896
c0 -10.502 -9.40625 -19.3887 -21.7051 -19.3887c-12.2988 0 -21.7031 8.88672 -21.7031 19.3887zM457.938 484.192c0 10.5039 9.4043 19.3906 21.7041 19.3906c12.2988 0 21.7041 -8.88672 21.7041 -19.3906c0 -10.502 -9.40527 -19.3887 -21.7041 -19.3887
c-12.2998 0 -21.7041 8.88672 -21.7041 19.3887zM460.739 420.493c0 10.5029 9.4043 19.3896 21.7031 19.3896c12.2988 0 21.7051 -8.88672 21.7051 -19.3896c0 -10.502 -9.40625 -19.3896 -21.7051 -19.3896c-12.2988 0 -21.7031 8.8877 -21.7031 19.3896zM546.974 412.338
zM536.665 346.679h-98.3564l-8.83887 46.8945c-1.71484 0.00390625 1.70312 0 0 0l-0.990234 5.25098c1.37598 0 -1.38184 0.00292969 0 0l-27.3115 144.895l-14.2959 -0.0712891l39.2324 -211.647h122.896v0h2.20898l-2.58594 -2.17285l0.376953 2.17285l36.6973 211.697
l-15.6445 0.333984l-24.6104 -144.678c0.368164 0.00292969 0.350586 -0.699219 0.350586 -0.700195c0 0 -1.32227 -6.94531 -1.31445 -5.79102c-0.677734 -0.00585938 0.0195312 0.117188 0 0zM400.764 545.864l2.5918 -2.13477l-2.1875 -0.0107422zM426.442 402.854z
M547.893 409.153zM546.492 406.354l-2.01367 -13.4912c-4.94824 -0.0380859 -9.9541 -0.0546875 -15.0039 -0.0546875c-32.7119 0 -67.291 0.696289 -100.005 0.765625l-2.32715 13.4805c33.042 -0.0566406 71.0723 -0.24707 104.091 -0.24707
c5.35156 0 10.0273 -0.496094 15.2588 -0.453125zM570.053 544.031l-2.2666 0.0488281l2.64355 2.18262zM585.697 543.697l0.521484 3.00977l2.5293 -3.0752zM426.104 332l0.397461 -2.14355l-2.58008 2.14355h2.18262zM386.872 543.647l-3.14062 -0.015625l2.56738 3.10547
z" />
  </g>

</svg>
