<?xml version="1.0" standalone="no"?>
<!DOCTYPE svg PUBLIC "-//W3C//DTD SVG 1.1//EN" "http://www.w3.org/Graphics/SVG/1.1/DTD/svg11.dtd" >
<svg xmlns="http://www.w3.org/2000/svg" xmlns:xlink="http://www.w3.org/1999/xlink" version="1.1" viewBox="-10 0 1046 1000">
  <g transform="matrix(1 0 0 -1 0 800)">
   <path fill="currentColor"
d="M506.601 164.6h6.24023c0.154297 -4.30078 0.307617 -8.60156 0.460938 -12.9023c23.7754 0.832031 45.2686 10.8457 61.0244 26.6016c5.72754 5.72656 10.6963 12.2129 14.7412 19.292l-9.98438 5.29883l-1.22852 -1.94531l-61.2383 28.8936
c-1.99707 -1.09473 -4.29102 -1.7168 -6.72949 -1.7168c-7.74707 0 -14.0264 6.2793 -14.0264 14.0273c0 5.91992 3.66797 10.9834 8.85449 13.042v65.4092h1.44043v11.9521c-12.2402 -0.576172 -47.0947 -5.30371 -70.4102 -39.3545
c3.50781 -2.02441 7.01465 -4.04883 10.5215 -6.07422l-3.60059 -6.23535l-10.752 6.20801c-7.59961 -13.2471 -11.9463 -28.5928 -11.9463 -44.9492c0 -15.9521 4.16016 -30.9639 11.4551 -44.0049c3.70703 2.14062 7.41504 4.28125 11.123 6.42285l3.59961 -6.23633
l-10.96 -6.32812c15.668 -23.4336 41.9531 -39.1777 71.875 -40.2969zM609.435 242.147c0 -54.624 -44.333 -98.958 -98.96 -98.958c-54.626 0 -98.96 44.334 -98.96 98.96c0 54.3047 44.0703 98.6318 98.3711 98.958h0.197266c54.6338 0 99.1348 -44.3379 99.3516 -98.96z
M513.354 332.607v-12.0078h0.943359l2.36328 -66.166c3.83496 -2.11914 6.57227 -5.98242 7.14258 -10.5195l60.3096 -33.0586l-1.68945 -2.67676l9.55078 -5.06934c5.7168 11.8242 8.94727 25.0645 9.00684 39.042c0 16.8838 -4.63086 32.6885 -12.6904 46.2197
c-3.49023 -2.18359 -6.98047 -4.36914 -10.4697 -6.55371l-3.12109 5.40527c3.4043 2.13184 6.81055 4.26367 10.2158 6.39453c-6.9834 10.0762 -29.8564 37.6846 -71.5615 38.9902zM50.9248 696.152h55.5146l17.1611 52.2256l17.1602 -52.2256h55.5156l-44.8672 -32.2959
l17.1611 -52.2246l-44.9697 32.2959l-44.9707 -32.2959l17.1611 52.2246zM824.601 585.6c0 -96.6865 68.0879 -173.199 99.375 -191.775l11.1992 -6.64941c-16.9434 -0.478516 1.18945 0.900391 -34.5742 -3.5752l-1.0752 1.36426
c-22.0068 27.9238 -93.998 110.011 -106.903 207.233c-0.657227 4.95117 0.0224609 9.79688 0.582031 18.2783c-1.38379 0.708984 -2.88672 1.4873 -4.52246 2.34082c-0.0283203 -1.83984 -0.322266 -3.81641 -0.0449219 -5.88867
c33.3789 -249.661 97.5459 -216.742 97.5459 -216.742s6.91211 -4.29004 10.2793 -6.58594h-32.8613c-44.1455 16.1279 -101.697 151.17 -101.697 222.331c0 8.73535 0.302734 15.3135 0.785156 20.6846c-60.6641 32.3369 -181.179 64.7012 -284.885 64.7012
c-23.0527 0 -45.5234 -2.04883 -73.3945 -6.17773c-32.3232 -4.78906 -32.3232 -4.78906 -70.6152 -21.2002c-18.916 -8.10645 -50.2139 -47.4062 -58.166 -66.7188c-7.02734 -17.0664 -9.0791 -30.2676 -9.0791 -45.8906c0 -22.332 3.62891 -44.376 3.62891 -77.1553
c0 -8.99219 1.14648 -13.8564 1.14648 -20.1924c0 -4.57031 -0.613281 -9.64551 -2.73242 -16.6025c-19.9492 -65.4795 -40.3174 -87.0479 -63.832 -110.183c-6.25977 -6.16016 -27.0508 -26.6172 -27.0508 -37.7881c0 -4.45605 0.882812 -6.9082 38.3447 -19.4531
c55.9199 -18.7266 60.0254 -24.4102 60.0254 -90.9766c0 -43.0117 2.70801 -110.013 2.70801 -151.731c0 -5.5 0.0820312 -11.3867 0.267578 -17.7666c0.50293 -17.292 16.4512 -45.3398 23.8975 -57.5352c1.19629 -0.303711 1.95996 -1.18164 1.95996 -1.18164
c1.1543 -0.666992 2.48438 -1.60059 4.13477 -2.74414c16.0508 -11.1162 22.0049 -13.1846 40.8428 -13.1846c24.0361 0 22.3457 4.21484 79.0615 4.21484c0.316406 0 6.94531 -0.00390625 7.01562 -0.00390625c14.7988 0 25.668 0.226562 52.1025 3.80078
c20.2021 2.73242 38.8271 4.61621 56.5088 6.4043c120.938 12.2334 201.711 24.1475 280.178 80.1953c2.23438 1.5957 5.14355 3.85352 8.45703 6.42773c12.6104 9.7959 33.0303 26.8994 48.1416 26.8994c8.16699 0 13.834 -4.95996 13.834 -14.165
c0 -15.4473 -17.4082 -42.8486 -33.0938 -42.8486c-1.16406 0 -1.56543 0.129883 -3.01758 0.129883c-22.6426 0 -44.3604 -36.5264 -79.4766 -51.29c-52.8857 -22.2344 -138.298 -27.127 -175.459 -33.71c-17.2549 -3.05664 -36.6504 -6.49316 -61.8809 -12.2393
c-34.7246 -7.90918 -51.6299 -8.61133 -86.7539 -8.61133c-0.251953 0 -22.7891 0.03125 -25.0811 0.03125c-11.3115 0 -32.6182 -0.123047 -32.9473 -0.123047c-40.7773 0 -82.5049 2.86621 -120.91 24.8125c-26.0957 14.9121 -27.9092 36.1035 -30.0449 61.0586
c-0.477539 5.59082 -0.976562 11.3994 -1.75781 17.3906c-1.96484 15.7158 -2.63672 29.7119 -2.63672 42.8916c0 28.6572 -4.27441 100.664 -4.27441 131.409c0 46.4277 -4.59863 49 -29.7539 58.8145c-27.3184 10.6582 -57.2148 13.2568 -70.834 26.876
c-4.33008 4.33008 -6.66504 9.68945 -6.66504 16.1094c0 4.7959 1.30371 10.1846 4.05176 16.1768c36.4951 79.5967 68.6367 70.0742 91.3711 139.761c5.20312 15.9443 6.93652 32.2529 6.93652 48.6797c0 32.5635 -6.77832 65.1611 -6.77832 95.8125
c0 47.6494 17.2412 68.3838 35.0508 86.1934c66.2422 66.2412 143.674 66.3555 238.901 66.3555h0.988281c82.8154 0 190.135 -23.3467 246.021 -49.8477c43.5547 -20.6533 21.8506 -15.7109 32.4561 -16.8408c11.3984 -1.2168 39 -13 47.5039 -30.4053
c4.31641 -8.83496 -4.12305 -21.668 -4.50391 -29.5947c-0.257812 -5.36523 2 -14.3428 2 -20zM498 444l-67.1992 66l12.7998 13.1992l54 -49.5996l96 121.6l14.3994 -10z" />
  </g>

</svg>
