<?xml version="1.0" standalone="no"?>
<!DOCTYPE svg PUBLIC "-//W3C//DTD SVG 1.1//EN" "http://www.w3.org/Graphics/SVG/1.1/DTD/svg11.dtd" >
<svg xmlns="http://www.w3.org/2000/svg" xmlns:xlink="http://www.w3.org/1999/xlink" version="1.1" viewBox="-10 0 1008 1000">
  <g transform="matrix(1 0 0 -1 0 800)">
   <path fill="currentColor"
d="M348.481 97.6934l-82.2217 148.848l24.0225 10.1475l58.4395 -100.383l53.3027 101.418l27.2285 -11.0254zM265.568 -67.707v34.6641h38.626v22.0713h-38.626v34.6641h38.626v33.7148h31.3828v-33.7148h23.2197v31.2539h31.3828v-31.2539h41.292v-34.6641h-41.292
v-22.0713h41.292v-34.6641h-41.292v-36.1855h-31.3828v36.1855h-23.2197v-33.7246h-31.3828v33.7246h-38.626zM335.577 -33.043h23.2197v22.0713h-23.2197v-22.0713zM780.659 223.904c-0.529297 0 -0.985352 0.173828 -1.32227 0.358398l-214.094 -88.2627v-37.8242
c12.126 5.10742 24.251 10.2148 36.376 15.3213v-3.77051l-0.21875 -161.659h318.305l0.646484 155.446c10.9619 -6.48535 21.9238 -12.9697 32.8867 -19.4551l-0.677734 40.7051l-136.33 79.1182l1.46387 0.616211c-22.6963 11.7715 -24.457 12.7314 -36.2109 19.5508
c-0.288086 -0.102539 -0.56543 -0.144531 -0.824219 -0.144531zM884.594 -16.7148h-248.003l-0.665039 144.662l142.009 59.8174l107.859 -63.8086zM63.3545 -23.4795h55.5146l17.1611 52.2256l17.1602 -52.2256h55.5156l-44.8672 -32.2959l17.1611 -52.2246
l-44.9697 32.2959l-44.9707 -32.2959l17.1611 52.2246zM428.576 536.304l-77.7871 70.4639l12.6045 9.28516l60.2695 -55.3594l107.469 136.129l17.1221 -7.86914zM612.222 505.635zM303.821 713.115zM246.229 607.088zM470.629 468.462zM470.224 455.586zM298.769 503.462z
M397.612 472.365zM667.231 631.061zM246.229 607.088zM667.231 631.061zM674.823 638.287c3.97656 -12.0449 6.53711 -25.0811 9.88184 -37.5684l2.33203 -0.0371094c-1.77344 -37.415 -2.44043 -51.5039 -63.1953 -99.5117
c-45.207 -35.7217 -78.3037 -48.3047 -153.536 -49.1523c-51.749 -0.583984 -117.655 1.35352 -175.434 49.1406c-22.7666 18.8291 -58.9072 55.2715 -58.5713 96.668h-1.62012c1.77051 6.63574 1.77051 6.63574 1.93848 11.7305l1.18555 -0.0195312l5.07324 19.0254
h-2.22754c1.15625 1.57031 2.31348 3.14062 3.46973 4.71094v5.3457h3.93457l57.4551 78.0654h1.82227c19.8789 46.4834 96.0342 68.876 125.613 32.8701c4.2002 -1.8877 23.248 -9.48828 43.3047 -2.17578c10.3311 13.8281 39.3594 27.1719 72.0254 20.3984
c31.5947 -6.55078 63.4658 -35.9424 77.4482 -50.252h0.670898c0.492188 -0.726562 0.830078 -1.55859 1.44922 -2.19531l4.39355 -4.58398l41.9521 -71.6855c0.625977 0.0527344 1.12012 0.0136719 1.02148 -0.441406zM265.527 600.337
c-0.696289 -23.8564 1.94238 -52.2275 59.8818 -92.7861c49.165 -34.415 89.9043 -36.8867 145.833 -35.502c65.1641 1.67773 92.3545 10.0527 131.704 42.207c52.3262 42.7598 60.9961 56.1602 54.7041 81.2793l-8.32129 33.2168l-0.305664 -0.544922
c0.0175781 2.00977 -1.32617 4.56641 -1.30859 6.57715l-46.6914 73.6426c-1.25293 -0.0498047 -0.251953 1.08887 -1.50488 1.04004c-28.9014 19.0547 -31.9824 27.3096 -42.7783 33.6758c-16.624 9.80371 -42.1836 7.83008 -58.4551 -3.27539
c-8.09961 -24.4004 -58.3574 -28.3105 -81.5146 -6.30664c-2.1582 2.05078 -3.75098 0.910156 -3.54688 3.42578c-24.7539 17.0342 -71.1211 -0.126953 -84.2236 -30.9863l-1.58887 -3.74219l-2.64844 1.01953l-51.0615 -72.2891z" />
  </g>

</svg>
