<?xml version="1.0" standalone="no"?>
<!DOCTYPE svg PUBLIC "-//W3C//DTD SVG 1.1//EN" "http://www.w3.org/Graphics/SVG/1.1/DTD/svg11.dtd" >
<svg xmlns="http://www.w3.org/2000/svg" xmlns:xlink="http://www.w3.org/1999/xlink" version="1.1" viewBox="-10 0 1018 1000">
  <g transform="matrix(1 0 0 -1 0 800)">
   <path fill="currentColor"
d="M828.399 483.872c0 9.49878 0.360099 25.4826 0.360099 28.905l-0.318652 61.3747l-8.69455 54.78l-24.0577 41.7601l-29.8355 19.1251l-33.9409 8.02542l-47.9505 1.85133v0.765382l-107.704 8.96128l-161.614 -4.8437l-135.511 -48.0118l4.97421 -24.8711
l90.1513 34.2037l168.519 13.9909l163.859 -8.05849l72.0585 -32.0852l24.6852 -76.5829c-11.2968 -92.7231 -11.5388 -94.7093 -10.6225 -98.1968c0.272553 -1.03738 0.408327 -1.98777 0.495372 -2.92219c0.487753 -0.641757 1.13403 -1.58506 1.4862 -2.05622
l30.4464 -40.7334l38.0432 -60.0682l23.93 -33.502l-96.7113 -80.2498l-3.19974 -219.288c0.962733 -7.56244 2.78458 -22.0112 5.01798 -45.877c-0.12894 -0.269919 -9.65147 -20.9678 -12.8349 -27.02c-1.80565 -3.43278 -3.36365 -6.39475 -8.94453 -11.1259
c-28.726 -6.87192 -37.6748 -9.01268 -53.7943 -9.01268c-3.38415 0 -6.77838 0.14333 -10.1737 0.446144l-127.95 -3.2205l-189.706 31.9736l-119.91 72.0259l-21.8729 31.5454c-0.18608 0.126152 -14.9542 10.3475 -18.5829 12.6523v-31.4635
c5.41685 -3.87145 13.5068 -7.36272 24.4398 -17.2503c7.32645 -6.62591 2.09556 -4.45645 10.6241 -11.9264c1.03002 -0.902171 1.03002 -0.902171 17.2005 -21.8062l70.2643 -41.1391l123.979 -35.7692l40.8353 -3.74581
c52.8258 -4.90757 59.0669 -6.73248 83.0467 -7.42728l68.08 -1.97257l89.7606 0.254271l51.1066 12.4914l15.1376 25.2075l6.27671 34.16l-0.268638 82.9487l0.0291888 84.2282l-0.00582149 87.5189l84.7837 67.8016l7.68593 8.96692l1.11464 7.19504
c0.44913 7.61262 -1.52476 12.8022 -3.31214 18.1783l-23.3304 38.8443l-33.0243 43.448l-34.3179 48.9016c-0.202711 16.1296 -0.202711 16.1296 -0.202711 17.6951zM33.2949 712.521h55.5146l17.1611 52.2256l17.1602 -52.2256h55.5156l-44.8672 -32.2959
l17.1611 -52.2246l-44.9697 32.2959l-44.9707 -32.2959l17.1611 52.2246zM532.595 559.792c1.09375 -19.4199 -7.64746 -78.8311 -4.125 -85.4473c1.07255 -0.785891 5.62999 -60.4444 62.5303 -117.345c1.8125 -1.8125 3.3125 -3.3125 6.87891 -6.07129
c-2.35547 -0.572266 -3.03418 -0.737305 -3.03711 -0.742188l3.27539 -1.82812c-13.6449 -9.09548 -13.6449 -9.09548 -15.165 -7.43945c-0.000976563 0.00195313 -4.26465 4.62891 -4.26465 4.62891c-21.5156 23.293 -45.1592 49.0039 -63.876 108.269
c-6.85449 -28.6924 -24.0742 -58.5664 -39.748 -78.4727c-9.63867 -12.2402 -17.6689 -27.7754 -24.4004 -34.5059c-1.99366 -1.99366 -19.0578 9.11076 -16.0322 13.0332c46.1057 59.7688 59.4526 83.3178 69.54 130.962l-168.625 -0.925781
c-0.59199 -32.9495 33.243 -104.002 70.2344 -132.627c-2.35547 -0.572266 -3.03516 -0.736328 -3.03711 -0.741211l3.27539 -1.82812c-13.6439 -9.09822 -13.6439 -9.09822 -15.165 -7.43945c-0.000976563 0.000976563 -4.26562 4.62891 -4.26562 4.62891
c-21.5156 23.293 -45.1582 49.0029 -63.876 108.269c-6.85352 -28.6934 -24.0732 -58.5664 -39.748 -78.4736c-9.6377 -12.2393 -17.668 -27.7744 -24.3994 -34.5059c-1.99443 -1.99239 -19.0575 9.11115 -16.0322 13.0332c47.6239 61.7436 78.1933 101.376 77.1807 220.676
c-0.0126953 1.48242 1.20117 2.67969 2.68262 2.64648l12.8184 -0.283203c4.43008 -0.0934437 4.43008 -0.0934437 5.24414 -16.4043l171.356 0.885742c0.145995 15.5053 0.145995 15.5053 2.67969 15.4502l12.8184 -0.283203
c4.32401 -0.0912064 4.32401 -0.0912064 5.28223 -17.1182zM336.992 506.551l170.989 0.0390625c1.65527 11.7627 2.62598 23.0596 3.17969 33.5254h-171.302c-0.74707 -10.4395 -1.92773 -22.5703 -2.86719 -33.5645zM653.775 143.975
c-70.44 54.3405 -115.817 89.2444 -251.939 88.0898c0.379136 17.2489 0.379136 17.2489 4.1582 17.4121c48.938 1.86786 107.91 -10.5939 111.836 -3.25586c73.1191 6.80176 141.437 77.5938 138.801 77.6836l7.99609 -11.9961
c-29.4355 -26.9873 -58.5684 -57.1016 -138.333 -80.0479c35.1211 -5.1084 74.459 -27.0469 99.4922 -46.7588c15.2324 -11.9932 27.418 -17.1357 38.8408 -27.417zM331.625 112.099l396.1 -0.848633l1.27539 -21.25l-396.95 1.27539z" />
  </g>

</svg>
