<?xml version="1.0" standalone="no"?>
<!DOCTYPE svg PUBLIC "-//W3C//DTD SVG 1.1//EN" "http://www.w3.org/Graphics/SVG/1.1/DTD/svg11.dtd" >
<svg xmlns="http://www.w3.org/2000/svg" xmlns:xlink="http://www.w3.org/1999/xlink" version="1.1" viewBox="-10 0 1051 1000">
  <g transform="matrix(1 0 0 -1 0 800)">
   <path fill="currentColor"
d="M271 608l-12 60c128.725 89.7881 355.203 55.3633 442.457 48.5605c0 -0.0107422 0.000976562 -0.0214844 0.000976562 -0.0322266c27.4463 0.582031 75.1855 -1.32129 107.268 -33.4033c40.1396 -40.1396 38.6152 -108.841 37.5254 -169.365
c-0.395508 -21.9258 -0.433594 -33.2402 -0.22168 -41.9463c26.3789 -43.8281 72.168 -89.959 89.3252 -129.607c6.95117 -16.0635 5.49219 -24.7637 2.64551 -40.2051l-12 -14l-79.501 -63.5771v-212.431c1.93945 -31.0869 1.82422 -79.2412 -27.416 -108.48
c-26.0322 -26.0322 -182.507 -12.0195 -220.584 -13.0049l-2.90137 0.0126953c-103.732 -7.2998 -296.108 50.6025 -326.603 92.1719c-18.5059 25.2275 -31.4014 41.2529 -57.9951 55.3086v70.0371c25.8174 -16.2627 49.624 -17.8066 70.1904 -60.6357
c44.2188 -92.082 349.455 -105.734 451.309 -108.438l-0.499023 -0.962891c50 12 34.1514 4.48145 42.5352 13.5361c19.1768 20.7119 3.97852 41.9688 5.50781 57.9648h-0.541992v2.14941c-0.253906 0.990234 -0.500977 1.94141 -0.738281 2.84863h0.738281v207.174v3.4873
v1.33887h1.58203l104 88h1.13281c4.9834 45.8955 -62.8379 92.1289 -94.2158 139.501l-3 4l-1 1c-2.02051 3.99219 0.0439453 4.02539 -2.08398 11.5605c-0.0371094 0.130859 -0.189453 0.24707 -0.174805 0.367188l0.258789 2.07227l0.0644531 1.49902
c0.00976562 0.226562 0.150391 3.89551 0.242188 6.24414c3.11426 79.1523 14.1973 176.389 -74.8154 176.771c-136.35 16.7461 -373.536 9.53418 -431.49 -46.5137zM30.3545 728.521h55.5146l17.1611 52.2256l17.1602 -52.2256h55.5156l-44.8672 -32.2959l17.1611 -52.2246
l-44.9697 32.2959l-44.9707 -32.2959l17.1611 52.2246zM469.397 286.775c6.9834 4.00586 36.6074 17.8193 68.3096 -14.2627c33.7324 34.2783 63.8281 16.3564 67.2764 13.7695c0.599609 -0.450195 1.2002 -0.900391 1.7998 -1.35059v-90.3262l-7.25391 5.64258
c-1.69922 1.29102 -26.8477 19.3496 -59.4287 -16.9033c0.00195312 0.00195313 -3.30273 -3.66016 -3.33594 -3.69727c-4.92188 5.45312 -5.02637 5.57031 -6.66113 7.2041c-29.0283 29.0283 -54.9424 13.9863 -56.5225 13.084
c-2.27832 -1.46973 -4.55762 -2.93848 -6.83594 -4.4082v89.5127l2.54395 1.73535h0.108398zM475.744 210.597c5.25 1.66699 11.957 2.8291 16.8115 2.8291c10.1201 0 26.7412 -2.95996 44.1992 -20.4775c10.1016 10.2949 26.7168 22.9277 46.6699 21.7793
c4.23926 -0.206055 9.87891 -1.52832 14.4053 -3.28711v68.7412c-8.15234 4.55566 -30.4863 11.9297 -56.7373 -17.2295c-1.1123 -1.2334 -2.22559 -2.4668 -3.33789 -3.69922c-4.84961 5.37305 -5.01172 5.55176 -6.68457 7.22461
c-25.8213 25.8213 -48.6377 17.0645 -55.3262 13.6064v-69.4873zM624 180zM438.96 304.488zM404.404 240.872zM539.044 157.696zM538.801 149.971zM435.928 178.696zM495.234 160.039zM657.006 255.256zM404.404 240.872zM657.006 255.256zM661.561 259.591
c2.38672 -7.22656 3.92285 -15.0479 5.92969 -22.54l1.39844 -0.0224609c-1.06348 -22.4492 -1.46387 -30.9023 -37.917 -59.707c-27.124 -21.4336 -46.9824 -28.9824 -92.1211 -29.4912c-31.0498 -0.350586 -70.5938 0.811523 -105.261 29.4834
c-13.6602 11.2979 -35.3438 33.1631 -35.1426 58.001h-0.97168c1.06152 3.98145 1.06152 3.98145 1.16309 7.03906l0.710938 -0.0117188l3.04395 11.415h-1.33594c0.693359 0.941406 1.3877 1.88379 2.08105 2.82617v3.20801h2.36133l34.4727 46.8389h1.09375
c11.9268 27.8906 57.6201 41.3262 75.3682 19.7217c2.51953 -1.13184 13.9482 -5.69238 25.9824 -1.30469c6.19824 8.29688 23.6152 16.3027 43.2148 12.2383c18.957 -3.93066 38.0791 -21.5654 46.4697 -30.1514h0.401367
c0.295898 -0.43457 0.498047 -0.93457 0.870117 -1.31641l2.63672 -2.75l25.1709 -43.0117c0.375 0.03125 0.671875 0.0078125 0.613281 -0.264648zM415.983 236.821c-0.417969 -14.3135 1.16504 -31.3369 35.9287 -55.6709c29.499 -20.6494 53.9424 -22.1328 87.5 -21.3018
c39.0986 1.00586 55.4131 6.03125 79.0225 25.3242c31.3955 25.6553 36.5977 33.6963 32.8223 48.7676l-4.99219 19.9297l-0.183594 -0.327148c0.0107422 1.20605 -0.795898 2.74023 -0.785156 3.94629l-28.0146 44.1855
c-0.751953 -0.0292969 -0.151367 0.65332 -0.90332 0.624023c-17.3408 11.4326 -19.1895 16.3857 -25.667 20.2061c-9.97461 5.88184 -25.3096 4.69824 -35.0732 -1.96484c-4.85938 -14.6406 -35.0137 -16.9873 -48.9092 -3.78418
c-1.29492 1.23047 -2.25 0.545898 -2.12695 2.05469c-14.8525 10.2207 -42.6729 -0.0761719 -50.5342 -18.5918l-0.954102 -2.24512l-1.58887 0.611328l-30.6367 -43.373zM534 372l-74.958 144.195l12 5.06934l64 -115.75l56.7354 117.055l16.2227 -6.56934z" />
  </g>

</svg>
