<?xml version="1.0" standalone="no"?>
<!DOCTYPE svg PUBLIC "-//W3C//DTD SVG 1.1//EN" "http://www.w3.org/Graphics/SVG/1.1/DTD/svg11.dtd" >
<svg xmlns="http://www.w3.org/2000/svg" xmlns:xlink="http://www.w3.org/1999/xlink" version="1.1" viewBox="-10 0 1007 1000">
  <g transform="matrix(1 0 0 -1 0 800)">
   <path fill="currentColor"
d="M30.3242 741.553h55.5146l17.1611 52.2256l17.1602 -52.2256h55.5156l-44.8672 -32.2959l17.1611 -52.2246l-44.9697 32.2959l-44.9707 -32.2959l17.1611 52.2246zM271 608l-12 60c128.725 89.7881 355.203 55.3633 442.457 48.5605
c0 -0.0107422 0.000976562 -0.0214844 0.000976562 -0.0322266c27.4463 0.582031 75.1855 -1.32129 107.268 -33.4033c40.1396 -40.1396 38.6152 -108.841 37.5254 -169.365c-0.395508 -21.9258 -0.433594 -33.2402 -0.22168 -41.9463
c26.3789 -43.8281 72.168 -89.959 89.3252 -129.607c6.95117 -16.0635 5.49219 -24.7637 2.64551 -40.2051l-12 -14l-79.501 -63.5771v-212.431c1.93945 -31.0869 1.82422 -79.2412 -27.416 -108.48c-26.0322 -26.0322 -182.507 -12.0195 -220.584 -13.0049
l-2.90137 0.0126953c-103.732 -7.2998 -296.108 50.6025 -326.603 92.1719c-18.5059 25.2275 -31.4014 41.2529 -57.9951 55.3086v70.0371c25.8174 -16.2627 49.624 -17.8066 70.1904 -60.6357c44.2188 -92.082 349.455 -105.734 451.309 -108.438l-0.499023 -0.962891
c50 12 34.1514 4.48145 42.5352 13.5361c19.1768 20.7119 3.97852 41.9688 5.50781 57.9648h-0.541992v2.14941c-0.253906 0.990234 -0.500977 1.94141 -0.738281 2.84863h0.738281v207.174v3.4873v1.33887h1.58203l104 88h1.13281
c4.9834 45.8955 -62.8379 92.1289 -94.2158 139.501l-3 4l-1 1c-2.02051 3.99219 0.0439453 4.02539 -2.08398 11.5605c-0.0371094 0.130859 -0.189453 0.24707 -0.174805 0.367188l0.258789 2.07227l0.0644531 1.49902
c0.00976562 0.226562 0.150391 3.89551 0.242188 6.24414c3.11426 79.1523 5.19727 173.389 -83.8154 173.771c-136.35 16.7461 -373.536 9.53418 -431.49 -46.5137zM270 324l-103.957 188.195l12 5.06934l93 -159.75l84.75 161.25l16.2207 -6.56934zM599.942 307.545
c-0.000976562 -0.1875 -0.00195312 -0.490234 -0.00195312 -0.677734c0 -45.2676 24.8672 -111.479 58.002 -142.322c20.8535 -19.4678 10.2734 -50.0244 -15.9424 -53.5449c-7.28027 -0.977539 -19.1504 -1.77051 -26.4961 -1.77051
c-0.201172 0 -0.525391 0 -0.725586 0.000976562c-109.268 1.05664 -200.125 90.5713 -202.806 199.812c-0.0205078 1.06445 -0.0361328 2.79395 -0.0361328 3.85938c0 112.699 91.4658 204.166 204.166 204.166c11.0088 0 28.709 -1.72852 39.5088 -3.85938
c25.3223 -5.33496 35.9531 -40.9258 14.4277 -58.3916c-38.6934 -31.3701 -70.0967 -97.2568 -70.0967 -147.069v-0.202148zM655.611 137.678c0.59082 1.77637 1.06934 4.7373 1.06934 6.6084c0 5.08594 -3.04004 12.0029 -6.78613 15.4414
c-35.1377 33.332 -63.6562 99.6924 -63.6562 148.125c0 53.3193 33.457 124.037 74.6816 157.853c3.90039 3.13574 7.06641 9.74219 7.06641 14.7471c0 10.0068 -7.71875 18.1777 -16.0498 19.8252c-10.1562 2.01953 -26.8037 3.66602 -37.1582 3.67578h-4.62793
c-103.021 -3.77637 -186.849 -90.7168 -185.928 -194.639c2.25293 -105.104 88.6455 -186.508 194.177 -186.508c6.00781 0 15.7275 0.564453 21.6953 1.25977c6.80566 0.880859 13.7568 6.97852 15.5166 13.6113zM470.5 313.262c0 18.792 15.2354 34.0273 34.0283 34.0273
s34.0273 -15.2354 34.0273 -34.0273c0 -18.7939 -15.2344 -34.0283 -34.0273 -34.0283s-34.0283 15.2344 -34.0283 34.0283z" />
  </g>

</svg>
