<?xml version="1.0" standalone="no"?>
<!DOCTYPE svg PUBLIC "-//W3C//DTD SVG 1.1//EN" "http://www.w3.org/Graphics/SVG/1.1/DTD/svg11.dtd" >
<svg xmlns="http://www.w3.org/2000/svg" xmlns:xlink="http://www.w3.org/1999/xlink" version="1.1" viewBox="-10 0 1051 1000">
  <g transform="matrix(1 0 0 -1 0 800)">
   <path fill="currentColor"
d="M744.998 249.028c-2.30371 0.0976562 -4.62305 0.245117 -6.95508 0.44043c-1.66992 0.160156 -3.31641 0.49707 -4.93945 1.00781c-2.88867 1.2793 -5.47559 3.16992 -7.76172 5.66992c-6.16992 7.2207 -8.4375 16.0195 -6.80371 26.3975
c0.864258 4.53223 1.83887 9.02637 2.92285 13.4824c1.98926 7.45898 3.93848 14.9346 5.84668 22.4277c3.64648 15.084 7.30957 30.1621 10.9873 45.2334c1.80078 7.17285 3.68262 14.3125 5.64453 21.4199c3.51758 12.8115 7.68359 25.2861 12.499 37.4219
c3.59766 8.91699 7.89844 17.2334 12.9023 24.9482c13.8818 20.6924 31.6729 30.0791 53.374 28.1611c14.7207 -1.01758 27.3887 -7.82227 38.002 -20.4121c5.83887 -7.29395 10.8281 -15.3789 14.9688 -24.2549c4.58203 -10.04 8.54688 -20.4551 11.8945 -31.248
c3.4375 -11.21 6.59668 -22.5498 9.47461 -34.0195c3.79492 -15.4453 7.55859 -30.9004 11.29 -46.3682l4.2334 -16.6318c1.55273 -6.29199 2.96387 -12.6338 4.2334 -19.0254c0.62793 -2.97656 0.897461 -6.00098 0.806641 -9.07324
c-0.930664 -9.66113 -4.70996 -16.9902 -11.3398 -21.9863c-2.14355 -1.62109 -4.46289 -2.58691 -6.95508 -2.89844c-3.55176 -0.470703 -7.1123 -0.680664 -10.6846 -0.629883c-47.8809 -0.0625 -95.7607 -0.0625 -143.641 -0.0625zM744.998 236.302
c46.7539 0.164062 93.5088 0.164062 140.264 0c3.07422 0.0585938 6.14844 0.12207 9.22266 0.189453c11.3291 -0.174805 20.3838 5.34863 27.166 16.5693c5.84863 10.2607 7.52832 21.5176 5.04004 33.7676c-1.13379 5.70898 -2.37793 11.3789 -3.72949 17.0098
c-5.35156 21.2529 -10.5928 42.5479 -15.7256 63.8828c-3.04785 12.2812 -6.4082 24.418 -10.0801 36.4141c-3.82422 12.376 -8.42773 24.2607 -13.8096 35.6572c-4.74121 9.79688 -10.4697 18.6367 -17.1865 26.5234c-11.4863 12.8291 -24.96 20.0947 -40.4209 21.7979
c-10.5488 1.26758 -20.8984 0.0078125 -31.0459 -3.7793c-9.29492 -3.78418 -17.5605 -9.70605 -24.7969 -17.7666c-6.56836 -7.55566 -12.1631 -16.0605 -16.7832 -25.5146c-4.19434 -8.59473 -7.88965 -17.541 -11.0879 -26.8379
c-3.18652 -9.30273 -6.07617 -18.7529 -8.66895 -28.3506c-1.94238 -7.24219 -3.82422 -14.5088 -5.64551 -21.7979c-3.66406 -15.2158 -7.36035 -30.4199 -11.0869 -45.6123c-1.89551 -6.93848 -3.70996 -13.9102 -5.44336 -20.916
c-1.01758 -4.28906 -1.9248 -8.61523 -2.72168 -12.9775c-2.13965 -15.457 1.47266 -28.373 10.8359 -38.7451c3.14258 -3.28809 6.66992 -5.7666 10.584 -7.43457c2.14551 -0.761719 4.3291 -1.26562 6.55176 -1.51172
c2.86816 -0.286133 5.72461 -0.475586 8.56836 -0.567383zM762.251 311.556l0.00585938 0.0351562c-0.00195313 -0.0117188 -0.00585938 -0.0351562 -0.00585938 -0.0351562zM769.573 294.812l-0.120117 0.0371094
c0.0400391 -0.0126953 0.0800781 -0.0371094 0.120117 -0.0371094zM860.061 281.948c-46.9082 0.165039 -83.3809 0 -84.2227 0c-5.17285 0.166992 -11.5342 0.37207 -17.0215 6.45117c-9.14648 10.1328 -7.54199 22.4287 -7.04297 25.1602
c1.01953 5.57422 2.39844 11.207 4.93359 20.4951c11.0195 45.3311 13.9492 57.3799 22.0508 73.9824c7.45508 15.2529 16.8027 23.2705 26.1494 27.0762c8.86816 3.30859 37.5576 10.3379 56.0469 -27.8594c6.08691 -12.8896 10.2324 -26.5371 14.4863 -43.6758
c3.07715 -12.793 6.22656 -25.5859 9.43457 -38.3301c2.9873 -12.4365 5.12402 -21.335 -1.04688 -32.1582c-2.1123 -3.49609 -7.48438 -11.1729 -18.2188 -11.0283c0 0 -5.49414 -0.113281 -5.54883 -0.113281zM765.805 297.594l-0.0253906 0.0283203
c0.0078125 -0.00976562 0.0253906 -0.0283203 0.0253906 -0.0283203zM765.805 297.594c2.87988 -3.13379 4.75391 -3.27734 10.1543 -3.51074c0 0 86.1348 0.0380859 86.168 0.0371094c6.3291 -0.0898438 8.30957 0.576172 10.7139 2.98047
c2.19141 2.19141 5.57617 7.39062 3.95801 15.0557c-1.1709 5.89355 -1.37598 6.83105 -5.05957 21.3047c-10.1816 41.8164 -12.5059 51.3643 -19.4619 66.6025c-10.9072 23.3779 -24.4434 25.1162 -29.9355 25.4961c-28.3701 2.50684 -39.1348 -29.0879 -48.2715 -65.4805
c-7.41309 -30.5205 -7.41309 -30.5205 -10.1016 -40.6055c-2.12207 -8.7207 -3.73145 -15.3369 1.83594 -21.8799zM593.802 398.987c-47.1846 0 -106.457 10.6709 -162.821 10.6709c-13.0049 0 -19.6035 -0.107422 -44.21 -2.5127l41.0303 44.7539l-29.1113 2.87891
l-57.1973 -64.0762c7.4082 -9.78906 10.4219 -13.7715 12.7725 -19.5811c0.0410156 -0.00488281 0.0410156 -0.00488281 1.74414 -0.228516l29.125 -42.5889l29.124 -2.88086l-35.4668 50.8379c17.8896 1.69141 31.0576 2.65918 55.0488 2.65918
c44.9482 0 91.1133 -4.12305 133.053 -4.12305c15.8008 0 30.9414 0.586914 45.1074 2.20312c44.4785 5.07227 106.641 31.0723 109.682 100.135c0.547852 12.4414 0.547852 12.4414 0.547852 15.3721c0 11.835 -2.05371 20.0918 -12.3027 33.7998
c-9.05078 12.1064 -34.1895 14.2842 -58.833 14.2842c-32.7061 0 -74.2061 -3.91895 -115.267 -3.91895c-55.1914 0 -111.528 7.0127 -149.588 40.1064c-0.44043 -0.796875 -1.52539 -2.69141 -3.35449 -3.99707c-3.60449 -2.5752 -3.82227 -8.23926 -3.82227 -9.57129
c0 -6.09277 4.375 -9.45117 9.24414 -13.1885c37.5996 -28.8662 74.8438 -38.1387 118.583 -38.1387c20.5742 0 78.4756 3.78906 122.522 3.78906c49.3145 0 59.9697 -4.82324 63.0586 -10.6875c2.81641 -5.34668 3.96777 -11.749 3.96777 -18.6094
c0 -24.9756 -15.5713 -60.5605 -28.5459 -69.8271c-18.8389 -13.457 -44.582 -17.5605 -74.0908 -17.5605zM48.3545 723.521h55.5146l17.1611 52.2256l17.1602 -52.2256h55.5156l-44.8672 -32.2959l17.1611 -52.2246l-44.9697 32.2959l-44.9707 -32.2959l17.1611 52.2246z
M286 629l-27 39c128.725 89.7881 355.203 55.3633 442.457 48.5605c0 -0.0107422 0.000976562 -0.0214844 0.000976562 -0.0322266c27.4463 0.582031 75.1855 -1.32129 107.268 -33.4033c40.1396 -40.1396 38.6152 -108.841 37.5254 -169.365
c-0.395508 -21.9258 -0.433594 -33.2402 -0.22168 -41.9463c26.3789 -43.8281 72.168 -89.959 89.3252 -129.607c6.95117 -16.0635 5.49219 -24.7637 2.64551 -40.2051l-12 -14l-79.501 -63.5771v-212.431c1.93945 -31.0869 1.82422 -79.2412 -27.416 -108.48
c-26.0322 -26.0322 -182.507 -12.0195 -220.584 -13.0049l-2.90137 0.0126953c-103.732 -7.2998 -296.108 50.6025 -326.603 92.1719c-18.5059 25.2275 -31.4014 41.2529 -57.9951 55.3086v70.0371c25.8174 -16.2627 49.624 -17.8066 70.1904 -60.6357
c44.2188 -92.082 349.455 -105.734 451.309 -108.438l-0.499023 -0.962891c50 12 34.1514 4.48145 42.5352 13.5361c19.1768 20.7119 3.97852 41.9688 5.50781 57.9648h-0.541992v2.14941c-0.253906 0.990234 -0.500977 1.94141 -0.738281 2.84863h0.738281v207.174v3.4873
v1.33887h1.58203l104 88h1.13281c4.9834 45.8955 -62.8379 92.1289 -94.2158 139.501l-3 4l-1 1c-2.02051 3.99219 0.0439453 4.02539 -2.08398 11.5605c-0.0371094 0.130859 -0.189453 0.24707 -0.174805 0.367188l0.258789 2.07227l0.0644531 1.49902
c0.00976562 0.226562 0.150391 3.89551 0.242188 6.24414c3.11426 79.1523 5.19727 173.389 -83.8154 173.771c-136.35 16.7461 -358.536 30.5342 -416.49 -25.5137zM48.3545 723.521h55.5146l17.1611 52.2256l17.1602 -52.2256h55.5156l-44.8672 -32.2959l17.1611 -52.2246
l-44.9697 32.2959l-44.9707 -32.2959l17.1611 52.2246zM286 629l-27 39c128.725 89.7881 355.203 55.3633 442.457 48.5605c0 -0.0107422 0.000976562 -0.0214844 0.000976562 -0.0322266c27.4463 0.582031 75.1855 -1.32129 107.268 -33.4033
c40.1396 -40.1396 38.6152 -108.841 37.5254 -169.365c-0.395508 -21.9258 -0.433594 -33.2402 -0.22168 -41.9463c26.3789 -43.8281 72.168 -89.959 89.3252 -129.607c6.95117 -16.0635 5.49219 -24.7637 2.64551 -40.2051l-12 -14l-79.501 -63.5771v-212.431
c1.93945 -31.0869 1.82422 -79.2412 -27.416 -108.48c-26.0322 -26.0322 -182.507 -12.0195 -220.584 -13.0049l-2.90137 0.0126953c-103.732 -7.2998 -296.108 50.6025 -326.603 92.1719c-18.5059 25.2275 -31.4014 41.2529 -57.9951 55.3086v70.0371
c25.8174 -16.2627 49.624 -17.8066 70.1904 -60.6357c44.2188 -92.082 349.455 -105.734 451.309 -108.438l-0.499023 -0.962891c50 12 34.1514 4.48145 42.5352 13.5361c19.1768 20.7119 3.97852 41.9688 5.50781 57.9648h-0.541992v2.14941
c-0.253906 0.990234 -0.500977 1.94141 -0.738281 2.84863h0.738281v207.174v3.4873v1.33887h1.58203l104 88h1.13281c4.9834 45.8955 -62.8379 92.1289 -94.2158 139.501l-3 4l-1 1c-2.02051 3.99219 0.0439453 4.02539 -2.08398 11.5605
c-0.0371094 0.130859 -0.189453 0.24707 -0.174805 0.367188l0.258789 2.07227l0.0644531 1.49902c0.00976562 0.226562 0.150391 3.89551 0.242188 6.24414c3.11426 79.1523 5.19727 173.389 -83.8154 173.771c-136.35 16.7461 -358.536 30.5342 -416.49 -25.5137z" />
  </g>

</svg>
