<?xml version="1.0" standalone="no"?>
<!DOCTYPE svg PUBLIC "-//W3C//DTD SVG 1.1//EN" "http://www.w3.org/Graphics/SVG/1.1/DTD/svg11.dtd" >
<svg xmlns="http://www.w3.org/2000/svg" xmlns:xlink="http://www.w3.org/1999/xlink" version="1.1" viewBox="-10 0 1089 1000">
  <g transform="matrix(1 0 0 -1 0 800)">
   <path fill="currentColor"
d="M828.399 483.872c0 9.49878 0.360099 25.4826 0.360099 28.905l-0.318652 61.3747l-8.69455 54.78l-24.0577 41.7601l-29.8355 19.1251l-33.9409 8.02542l-47.9505 1.85133v0.765382l-107.704 8.96128l-161.614 -4.8437l-135.511 -48.0118l4.97421 -24.8711
l90.1513 34.2037l168.519 13.9909l163.859 -8.05849l72.0585 -32.0852l24.6852 -76.5829c-11.2968 -92.7231 -11.5388 -94.7093 -10.6225 -98.1968c0.272553 -1.03738 0.408327 -1.98777 0.495372 -2.92219c0.487753 -0.641757 1.13403 -1.58506 1.4862 -2.05622
l30.4464 -40.7334l38.0432 -60.0682l23.93 -33.502l-96.7113 -80.2498l-3.19974 -219.288c0.962733 -7.56244 2.78458 -22.0112 5.01798 -45.877c-0.12894 -0.269919 -9.65147 -20.9678 -12.8349 -27.02c-1.80565 -3.43278 -3.36365 -6.39475 -8.94453 -11.1259
c-28.726 -6.87192 -37.6748 -9.01268 -53.7943 -9.01268c-3.38415 0 -6.77838 0.14333 -10.1737 0.446144l-127.95 -3.2205l-189.706 31.9736l-119.91 72.0259l-21.8729 31.5454c-0.18608 0.126152 -14.9542 10.3475 -18.5829 12.6523v-31.4635
c5.41685 -3.87145 13.5068 -7.36272 24.4398 -17.2503c7.32645 -6.62591 2.09556 -4.45645 10.6241 -11.9264c1.03002 -0.902171 1.03002 -0.902171 17.2005 -21.8062l70.2643 -41.1391l123.979 -35.7692l40.8353 -3.74581
c52.8258 -4.90757 59.0669 -6.73248 83.0467 -7.42728l68.08 -1.97257l89.7606 0.254271l51.1066 12.4914l15.1376 25.2075l6.27671 34.16l-0.268638 82.9487l0.0291888 84.2282l-0.00582149 87.5189l84.7837 67.8016l7.68593 8.96692l1.11464 7.19504
c0.44913 7.61262 -1.52476 12.8022 -3.31214 18.1783l-23.3304 38.8443l-33.0243 43.448l-34.3179 48.9016c-0.202711 16.1296 -0.202711 16.1296 -0.202711 17.6951zM33.2949 712.521h55.5146l17.1611 52.2256l17.1602 -52.2256h55.5156l-44.8672 -32.2959
l17.1611 -52.2246l-44.9697 32.2959l-44.9707 -32.2959l17.1611 52.2246zM569.319 303.479c1.61133 -28.6338 -11.9961 -110.198 -3.99121 -114.48c7.8584 -84.4863 89.6562 -163.425 89.7598 -160.38l-13.8594 -9.24023
c-31.1836 34.0137 -65.9785 67.6758 -92.4932 159.841c-5.90234 -40.582 -31.251 -86.0352 -54.0273 -114.961c-13.8594 -17.5986 -19.8008 -31.6787 -31.6797 -44.8799l-15.8408 12.54c17.8213 23.0996 27.8232 37.9893 39.6006 53.46
c60.1338 78.9912 62.6494 182.704 62.1826 237.647c5.5957 -0.124023 11.1914 -0.24707 16.7871 -0.371094c3.14941 -0.0673828 3.27734 -3.12695 3.33105 -4.43457c0.00683594 -0.147461 -0.205078 -7.02246 0.230469 -14.7412zM709.358 319.791l-116.642 -131.612
l15.2832 -12.1787l99.3604 115.447c8.25391 -13.6855 20.0312 -29.8643 23.9531 -40.4854l27.8818 39.7578zM291.72 495.7l91.2002 -0.479492v0h4.31934l-5.2793 -291.841v-17.2793h-19.6807l-73.9189 0.479492v17.2803l73.9189 -0.480469l6.24121 276.48l-76.8008 0.479492
v15.3604zM580 400l-67.1992 66l12.7998 13.1992l54 -49.5996l96 121.6l14.3994 -10z" />
  </g>

</svg>
