<?xml version="1.0" standalone="no"?>
<!DOCTYPE svg PUBLIC "-//W3C//DTD SVG 1.1//EN" "http://www.w3.org/Graphics/SVG/1.1/DTD/svg11.dtd" >
<svg xmlns="http://www.w3.org/2000/svg" xmlns:xlink="http://www.w3.org/1999/xlink" version="1.1" viewBox="-10 0 1008 1000">
  <g transform="matrix(1 0 0 -1 0 800)">
   <path fill="currentColor"
d="M255.888 178.408l-82.2217 148.848l24.0225 10.1475l58.4395 -100.383l53.3027 101.418l27.2285 -11.0254zM172.975 13.0078v34.6641h38.626v22.0713h-38.626v34.6641h38.626v33.7148h31.3828v-33.7148h23.2197v31.2539h31.3828v-31.2539h41.292v-34.6641h-41.292
v-22.0713h41.292v-34.6641h-41.292v-36.1855h-31.3828v36.1855h-23.2197v-33.7246h-31.3828v33.7246h-38.626zM242.983 47.6719h23.2197v22.0713h-23.2197v-22.0713zM688.065 304.62c-0.52832 0 -0.985352 0.173828 -1.32227 0.358398l-214.093 -88.2637v-37.8232
c12.125 5.10742 24.25 10.2139 36.375 15.3213v-3.77148l-0.21875 -161.658h318.305l0.646484 155.446c10.9629 -6.48535 21.9248 -12.9707 32.8867 -19.4551l-0.677734 40.7041l-136.329 79.1191l1.46387 0.615234c-22.6973 11.7725 -24.458 12.7314 -36.2119 19.5518
c-0.288086 -0.102539 -0.564453 -0.144531 -0.824219 -0.144531zM792 64h-248.002l-0.666016 144.662l142.009 59.8184l107.859 -63.8086zM38.3242 728.225h55.5146l17.1611 52.2256l17.1602 -52.2256h55.5156l-44.8672 -32.2959l17.1611 -52.2246l-44.9697 32.2959
l-44.9707 -32.2959l17.1611 52.2246zM775.345 414.09h6.59082c0.163086 -4.54297 0.325195 -9.08594 0.487305 -13.6279c25.1123 0.87793 47.8145 11.4561 64.457 28.0977c6.0498 6.0498 11.2979 12.9004 15.5713 20.377l-10.5469 5.59668l-1.29785 -2.05469
l-64.6826 30.5195c-2.11035 -1.15625 -4.53223 -1.81348 -7.1084 -1.81348c-8.18262 0 -14.8154 6.63281 -14.8154 14.8154c0 6.25391 3.87402 11.6016 9.35352 13.7764v69.0879h1.52051v12.625c-12.9287 -0.608398 -49.7432 -5.60254 -74.3701 -41.5674
c3.7041 -2.13867 7.4082 -4.27734 11.1133 -6.41602l-3.80273 -6.58691c-3.78613 2.18652 -7.57129 4.37207 -11.3574 6.55762c-8.02832 -13.9922 -12.6182 -30.2012 -12.6182 -47.4785c0 -16.8486 4.39355 -32.7051 12.0986 -46.4795
c3.91699 2.26172 7.83301 4.52246 11.749 6.78418l3.80273 -6.58691c-3.85938 -2.22852 -7.71777 -4.45605 -11.5762 -6.68457c16.5488 -24.751 44.3125 -41.3809 75.918 -42.5635c-0.162109 4.54102 -0.325195 9.08203 -0.486328 13.6221zM883.964 496
c0 -57.6973 -46.8271 -104.524 -104.527 -104.524c-57.6992 0 -104.526 46.8271 -104.526 104.526c0 57.3594 46.5488 104.181 103.904 104.524h0.208984c57.707 0 104.71 -46.8311 104.94 -104.526zM782.479 591.549v-12.6846h0.995117l2.49609 -69.8877
c4.05176 -2.23828 6.94238 -6.31836 7.54492 -11.1104l63.7021 -34.9189l-1.78613 -2.82715l10.0898 -5.35449c6.03809 12.4893 9.4502 26.4746 9.51367 41.2383c0 17.834 -4.89258 34.5273 -13.4062 48.8203c-3.68555 -2.30762 -7.37207 -4.61523 -11.0576 -6.92285
l-3.29688 5.70996c3.59668 2.25098 7.19336 4.50293 10.79 6.75391c-7.37598 10.6426 -31.5342 39.8037 -75.585 41.1836zM867.44 674.443l-162.44 0.591797v11.7168h150.668v66.5312h-150.668v11.7168l160.761 -0.591797zM556 712l-73.7207 -73.4482l80.1562 -78.5273
l-14.4355 -12.0244l-80.2793 78.791l-75.2363 -74.2559l-10.4844 11.4648l73.96 72.8711l-65.96 69.1289l12.8799 12.3203l67.0801 -65.7686l74.8711 69.1074zM556 712l-73.7207 -73.4482l80.1562 -78.5273l-14.4355 -12.0244l-80.2793 78.791l-75.2363 -74.2559
l-10.4844 11.4648l73.96 72.8711l-65.96 69.1289l12.8799 12.3203l67.0801 -65.7686l74.8711 69.1074z" />
  </g>

</svg>
