<?xml version="1.0" standalone="no"?>
<!DOCTYPE svg PUBLIC "-//W3C//DTD SVG 1.1//EN" "http://www.w3.org/Graphics/SVG/1.1/DTD/svg11.dtd" >
<svg xmlns="http://www.w3.org/2000/svg" xmlns:xlink="http://www.w3.org/1999/xlink" version="1.1" viewBox="-10 0 1041 1000">
  <g transform="matrix(1 0 0 -1 0 800)">
   <path fill="currentColor"
d="M30.3242 741.553h55.5146l17.1611 52.2256l17.1602 -52.2256h55.5156l-44.8672 -32.2959l17.1611 -52.2246l-44.9697 32.2959l-44.9707 -32.2959l17.1611 52.2246zM271 608l-12 60c128.725 89.7881 355.203 55.3633 442.457 48.5605
c0 -0.0107422 0.000976562 -0.0214844 0.000976562 -0.0322266c27.4463 0.582031 75.1855 -1.32129 107.268 -33.4033c40.1396 -40.1396 38.6152 -108.841 37.5254 -169.365c-0.395508 -21.9258 -0.433594 -33.2402 -0.22168 -41.9463
c26.3789 -43.8281 72.168 -89.959 89.3252 -129.607c6.95117 -16.0635 5.49219 -24.7637 2.64551 -40.2051l-12 -14l-79.501 -63.5771v-212.431c1.93945 -31.0869 1.82422 -79.2412 -27.416 -108.48c-26.0322 -26.0322 -182.507 -12.0195 -220.584 -13.0049
l-2.90137 0.0126953c-103.732 -7.2998 -296.108 50.6025 -326.603 92.1719c-18.5059 25.2275 -31.4014 41.2529 -57.9951 55.3086v70.0371c25.8174 -16.2627 49.624 -17.8066 70.1904 -60.6357c44.2188 -92.082 349.455 -105.734 451.309 -108.438l-0.499023 -0.962891
c50 12 34.1514 4.48145 42.5352 13.5361c19.1768 20.7119 3.97852 41.9688 5.50781 57.9648h-0.541992v2.14941c-0.253906 0.990234 -0.500977 1.94141 -0.738281 2.84863h0.738281v207.174v3.4873v1.33887h1.58203l104 88h1.13281
c4.9834 45.8955 -62.8379 92.1289 -94.2158 139.501l-3 4l-1 1c-2.02051 3.99219 0.0439453 4.02539 -2.08398 11.5605c-0.0371094 0.130859 -0.189453 0.24707 -0.174805 0.367188l0.258789 2.07227l0.0644531 1.49902
c0.00976562 0.226562 0.150391 3.89551 0.242188 6.24414c3.11426 79.1523 5.19727 173.389 -83.8154 173.771c-136.35 16.7461 -373.536 9.53418 -431.49 -46.5137zM564.441 79.1787c2.06836 2.00586 5.51758 5.5791 5.51758 11.2246
c0 2.13672 -1.32812 5.4834 -2.79883 7.0625c-1.89355 1.66309 -6.56543 3.69629 -10.6973 2.29004c-3.11719 -1.02734 -6.21484 -3.97754 -6.65723 -4.42188c-0.867188 -0.865234 -1.04297 -1.28418 -1.76562 -1.29492c-0.535156 0 -0.535156 0 -1.30078 0.764648
c-1.21484 1.21582 -5.42969 5.43164 -10.5459 5.43164c-2.61426 0 -6.24121 -1.74219 -7.3457 -2.84766c-0.900391 -0.899414 -1.95801 -4.44531 -2.3916 -6.01367c-0.120117 -0.431641 -0.21875 -0.792969 -0.314453 -1.08691
c0.0566406 -5.90527 4.12109 -9.79199 6.53809 -12.1025c10.1621 -9.71973 14.1797 -13.6035 15.3613 -14.8027c1.2959 1.19727 6.74609 6.43848 16.4004 15.7969zM536.086 105.198c2.7207 0 6.56445 -0.451172 11.8447 -4.76562
c1.3291 1.08398 3.60156 2.60449 3.63379 2.56836c8.72266 5.18945 17.0576 0.0478516 18.9932 -1.88867c0.181641 -0.181641 11.3184 -11.9023 -2.68359 -25.5752c-15.2988 -14.9385 -16.4453 -15.9326 -16.6973 -16.1504
c-2.11523 -1.83008 -4.6875 -1.65234 -6.27148 -0.119141l-17.1152 16.5742c-1.16992 1.1709 -2.23047 2.21387 -2.67773 3.21582c-1.75293 2.3418 -3.99902 5.46777 -3.99902 11.3721c0 4.48926 2.52832 8.87988 4.13574 10.4883
c2.06836 2.06934 6.65527 4.28027 10.8369 4.28027zM497.324 110.916c-0.03125 0.0273438 -0.0605469 0.0517578 -0.0869141 0.0722656zM465.725 118.441c0.0966797 -0.108398 0.166992 -0.183594 0.203125 -0.22168zM592.22 59.8818
c-0.599609 -0.938477 0.0849609 0.230469 -0.830078 -0.463867l0.533203 -0.341797c0.0322266 -0.0214844 -1.19531 -4.8125 -0.355469 -8.80664c0.390625 -1.86133 1.40332 -1.73047 1.41016 -3.25879c0.0078125 -1.74316 -0.388672 -0.858398 -0.703125 -2.28027
c-2.88281 -3.66992 -4.00195 -3.85059 -7.35742 -4.39355c-5.49023 -0.887695 -14.5332 -0.360352 -22.834 -2.42285c-2.44141 -0.204102 -23.2051 -1.50586 -25.8662 -0.806641c-1.34473 0.353516 -2.87988 0.239258 -3.92383 -0.413086
c-6.67188 1.4707 -17.917 8.46973 -19.0156 12.2764l0.0126953 1.0166l-0.358398 0.900391l-0.584961 0.734375c-4.95996 8.47363 -9.75 15.0762 -9.87207 15.2109c-0.365234 2.49121 -1.51465 3.69141 -1.51465 3.96875c0 3.42969 -9.83398 20.8467 -11.8271 22.3789
c-0.125 0.0966797 -8.21484 9.30078 -10.4951 11.7422c-0.0722656 0.128906 -2.94629 4.21875 -10.5195 10.5547c-1.30859 1.09375 -0.803711 1.9668 -2.39355 2.96387c-3.92969 4.40137 -2.3623 4.18945 -3.84961 6.41699
c0.176758 5.18066 7.71875 7.76172 7.82422 7.79297c0.917969 0.0253906 3.39258 -0.100586 3.91992 -0.220703c2.44434 -0.558594 4.34863 -3.07129 6.40137 -4.06445c2.76074 -3.75 15.1211 -15.2393 15.2402 -15.4199
c0.546875 -1.22656 1.5957 -1.82324 2.06348 -2.03027c1.7002 -1.49707 2.16699 -3.59082 4.7666 -4.5293c1.05176 -1.07715 2.88965 -1.47656 4.5293 -1.00586c0.322266 -0.0556641 0.322266 -0.0556641 3.03223 -0.597656l0.756836 0.822266
c0.489258 1.57031 -0.3125 6.6377 -1.91504 7.23535c-0.430664 2.43359 -0.570312 3.11719 -0.614258 3.27344c0.472656 0.915039 0.935547 2.32422 0.0166016 3.69043c-0.0693359 0.345703 -2.68848 31.9043 -3.56641 35.126
c-0.0126953 0.819336 0.580078 2.99902 0.00292969 4.36328c0.382812 2.88965 0.078125 12.5889 0.345703 16.2393c0 1.62793 1.6416 4.10059 3.29102 8.32715c1.16699 1.60449 1.16699 1.60449 3.66602 2.44531c1.83008 -0.102539 1.87305 -0.324219 2.13379 -0.511719
c0.626953 -0.449219 0.626953 -0.449219 2.98145 -1.73828c0.296875 -0.389648 1.48438 -2.4043 1.5 -2.42871c1.62305 -4.96777 2.74707 -13.7832 3.41016 -20.3262l3.91406 7.33789l1.1123 3.125c1.4541 4.08691 1.87207 11.4619 4.06445 16.7607
c1.46387 3.53711 2.43652 4.5625 5.78809 5.84375c2.88379 -0.118164 3.00684 -0.27832 3.68359 -0.849609c0.0410156 -0.144531 5.08105 -9.74023 6.23438 -13.6992l-0.329102 -2.11133l0.831055 0.03125c0.00976562 -0.0527344 0.267578 -2.9043 0.689453 -5.26172
l0.520508 -0.0546875c0.124023 -1.82715 0.124023 -1.82715 -0.0273438 -2.97266c0.135742 -0.0224609 0.352539 0.0195312 0.303711 -0.144531c2.44141 0.135742 3.33691 -13.0615 5.01367 -12.332c3.24805 1.41113 0.71875 18.7031 1.99609 18.627
c0.924805 -0.0537109 0.256836 1.64355 0.323242 2.18555c0.193359 1.56738 0.738281 1.00977 1.21191 3.24219c0.666016 3.1543 5.20312 8.74414 5.24414 8.83887c1.75586 1.70703 4.07812 2.33887 5.00977 1.62207c5.23242 -5.84473 8.16602 -20.1055 7.98535 -29.624
c1.11816 -0.0126953 1.36621 -3.65918 1.4668 -4.51562c2.02539 -17.1768 3.12695 12.4033 4.30957 10.4893l0.99707 1.7168c1.07031 1.83984 7.16211 8.56348 9.18359 10.1182c0.532227 0.411133 0.643555 0.455078 3.1377 0.0390625
c1.6875 -1.0498 3.03906 -3.29492 3.0957 -3.41309c2.78418 -5.77246 -0.705078 -40.6465 -0.739258 -46.5059c-1.00293 -3.33398 -0.563477 -9.0332 -0.336914 -10.4297c0 -7.52344 1.22656 -20.5937 1.37891 -21.6904
c-1.36328 -2.51562 2.09961 -12.8525 1.24512 -20.4004c-0.22168 -1.94824 -6.74902 -17.3916 -6.74902 -17.3916zM507.97 183.86c0.0146484 0.0234375 0.015625 0.0419922 0.0175781 0.0458984c-0.00195313 -0.00195312 -0.00683594 -0.0166016 -0.0175781 -0.0458984z
M592.721 184.544l-0.454102 -2.6377l1.51562 0.420898zM539.417 194.083l0.178711 -0.0195312c-0.0458984 0.0078125 -0.106445 0.0107422 -0.178711 0.0195312zM572.622 181.389c0 -0.0244141 0.0146484 -0.0478516 0.015625 -0.0488281
c-0.00488281 0.0136719 -0.015625 0.03125 -0.015625 0.0488281zM502.459 66.7783c0 -0.0117188 0.0263672 -0.0214844 0.0273438 -0.03125zM519.704 43.5117zM577.113 190.13l0.0322266 -0.0625c-0.0078125 0.0146484 -0.0185547 0.0351562 -0.0322266 0.0625z
M529.09 196.512l0.0214844 0.0166016c-0.00585938 -0.00390625 -0.0136719 -0.0107422 -0.0214844 -0.0166016zM496.557 120.879l0.0263672 -0.0263672c-0.0107422 0.00878906 -0.0263672 0.0263672 -0.0263672 0.0263672zM470.349 138.358l0.0742188 -0.0166016
c-0.0146484 0.00292969 -0.0742188 0.0166016 -0.0742188 0.0166016zM465.759 109.132l-0.015625 0.0126953c0.00390625 -0.00390625 0.00878906 -0.0126953 0.015625 -0.0126953zM465.524 109.356c0.44043 -0.441406 1.50391 -1.13379 3.03027 -2.66016
c3.13574 -3.13672 3.78027 -5.4209 7.60254 -9.08594c2.79102 -2.67578 2.32324 -3.00977 6.57324 -8.29199c8.65137 -10.7588 13.1426 -27.5615 19.7344 -34.5635c1.5625 -3.36914 -0.259766 -2.36719 1.47363 -4.81934
c0.0410156 -0.129883 0.0410156 -0.129883 1.24121 -3.20117l-1.04199 -1.08398c-0.015625 -0.015625 -0.449219 -1.00977 -0.242188 -2.69141c0.244141 -1.98926 1.22168 -4.20996 2.11426 -5.10352c1.31934 -0.938477 0.128906 -1.12891 2.30957 -1.80859
c11.8037 -8.40332 74.1855 -3.04785 82.4795 0.0703125c3.46973 0.046875 7.65137 3.92383 9.32715 7.30371c2.32617 4.69043 -1.56445 8.26953 -0.135742 15.4424c-0.692383 1.34473 -0.123047 2.37891 1.89648 6.04395c1.4873 2.70215 2.2832 4.14844 2.47266 5.28027
c2.4082 3.03223 2.2168 7.2793 0.952148 21.4551c0.40332 0.802734 0.40332 0.802734 0.275391 1.33105c-1.65234 6.8623 -1.84668 18.3047 -1.63867 29.1533c0.0888672 4.66504 0.737305 21.8662 1.26465 26.4199c0.764648 6.5957 0.0537109 23.1211 -0.223633 25.2344
c-0.37207 2.8418 -1.33887 7.24219 -3.78125 8.29883c-0.0625 0.0224609 -2.62891 1.79199 -6.0957 2.66797c-0.782227 0.198242 -3.06055 0.774414 -4.69727 -0.00488281c-2.78906 -0.348633 -5.98828 -2.92578 -6.63281 -3.58984l-2.99219 -3.08203l-0.984375 4.17773
c-1.42578 6.04785 -1.15625 5.26953 -2.45215 7.37305c-0.763672 1.35938 -1.23828 2.20215 -2.53613 3.5c-1.99609 1.99707 -2.35156 1.35547 -3.43945 2.12988c-2.77539 1.97656 -7.57227 1.76465 -9.70801 0.464844
c-2.93457 -1.31641 -3.43652 -1.54199 -4.4707 -2.57617c-0.763672 -0.763672 -0.931641 -0.97168 -6.3125 -7.62109l-1.06836 4.7334c-0.319336 1.41699 -0.34375 1.88965 -2.46875 4.28223c-2.74512 3.09082 -2.85645 3.21582 -5.85352 3.93555
c-0.608398 0.147461 -1.37109 0.331055 -1.90234 1.20215c-2.13281 3.49023 -4.26367 2.83984 -8.89258 -1.71875c-2.34082 -2.30664 -2.35645 -1.83008 -5.05664 -4.5293c-1.7959 -1.7959 -1.95898 -2.11133 -3.43848 -4.97461l-2.11621 1.1709
c-8.06543 4.45508 -13.4277 1.79785 -16.8408 -1.61719c-2.01465 -2.01465 -3.35742 -4.58496 -3.58789 -5.63379c0.0517578 -0.600586 -0.167969 -0.931641 -0.421875 -1.22754c-3.66602 -5.2207 -1.55078 -34.6084 0.365234 -49.085
c0 0 -0.0800781 -0.921875 0.150391 -1.14062c0.675781 -3.11328 0.75 -3.45312 0.981445 -14.4121l-4.16406 4.35645c-0.426758 0.424805 -8.12207 7.91797 -13.4092 12.0615c-2.99707 2.35156 -5.15723 3.63672 -6.83789 4.34766
c-3.10645 1.31445 -5.02734 0.862305 -5.91699 1.07422c-0.233398 0.0341797 -6.38379 0.927734 -14.1221 -7.66797c-4.51562 -5.01465 1.86914 -12.9141 2.01172 -13.041c0.161133 -0.169922 0.391602 -0.271484 0.464844 -0.529297v0v0
c0.944336 -1.14844 5.33203 -6.32031 6.76172 -7.75zM506.139 37.7354l-2.27832 0.458984c0.478516 0.157227 1.4043 0.302734 2.27832 -0.458984zM458.763 117.106c-0.130859 0.195312 -0.0117188 0.015625 -0.0117188 0.015625
c0.00390625 -0.00585937 0.0117188 -0.015625 0.0117188 -0.015625zM599.99 58.8633c0.119141 0.594727 0.119141 0.594727 0.508789 1.94629l0.62793 -2.1123l3.18164 -0.102539c-2.10352 -2.00879 -3.81543 -0.706055 -4.31836 0.268555zM673.461 229.04l19.8906 -18.2783
l-16.1279 -20.4287l-6.2168 5.7207l9.33203 10.625l-75.667 -0.365234l-0.723633 7.85156l76.502 -0.177734l-13.0605 8.71777zM576.813 537.668c1.45215 -25.8086 -10.8125 -99.3262 -3.59766 -103.185c7.08301 -76.1504 80.8105 -147.301 80.9033 -144.557
l-12.4922 -8.32812c-28.1064 30.6582 -59.4678 60.998 -83.3662 144.069c-5.32031 -36.5771 -28.168 -77.5459 -48.6973 -103.617c-12.4912 -15.8633 -17.8467 -28.5537 -28.5547 -40.4521l-14.2764 11.3027c16.0615 20.8203 25.0771 34.2412 35.6934 48.1855
c54.2002 71.1973 56.4678 164.677 56.0469 214.199c5.04395 -0.112305 10.0869 -0.222656 15.1309 -0.333984c2.83887 -0.0605469 2.9541 -2.81934 3.00293 -3.99805c0.00488281 -0.131836 -0.18457 -6.3291 0.207031 -13.2861zM703.036 552.371l-105.133 -118.627
l13.7744 -10.9766l89.5566 104.057c7.43848 -12.335 18.0557 -26.918 21.5898 -36.4912l25.1299 35.835zM362.072 329.775c-27.0723 -20.7754 -59.0723 -19.7754 -86.1602 0c-24.9121 18.2246 -26.9121 47.2246 -18.3594 77.2793
c4.44727 15.9453 19.4473 -31.0547 33.3193 -24.2793c21.1279 10.2246 3.12793 54.2246 26.3604 54.4004c23.7676 -0.175781 5.76758 -44.1758 26.2803 -54.4004c14.4873 -6.77539 27.4873 39.2246 33.1191 24c10.3682 -28.7754 9.36816 -58.7754 -14.5596 -77z
M283.472 339.551c22.5283 -13.5508 44.5283 -13.5508 67.3926 -0.431641c16.1357 8.88086 19.1357 28.8809 11.6641 45.792c-4.52832 10.0889 -14.5283 -23.9111 -23.3281 -17.2793c-17.2002 12.3682 -0.200195 48.3682 -21.6006 49.2471
c-20.5996 1.12109 -5.59961 -35.8789 -22.4639 -47.0879c-10.1357 -5.79102 -20.1357 28.209 -24.1914 17.7129c-6.94434 -18.5039 -3.94434 -37.5039 12.5273 -47.9531zM230 382.559c0 -38.8789 40.3203 -70.5586 90 -70.5586s90 31.6797 90 70.5586
c0 38.8809 -40.3203 70.5605 -90 70.5605s-90 -31.6797 -90 -70.5605zM220.64 383.279c0 43.4395 44.4004 78.4795 99.3604 78.4795s99.3604 -35.04 99.3604 -78.4795s-44.4004 -78.4795 -99.3604 -78.4795s-99.3604 35.04 -99.3604 78.4795z" />
  </g>

</svg>
