<?xml version="1.0" standalone="no"?>
<!DOCTYPE svg PUBLIC "-//W3C//DTD SVG 1.1//EN" "http://www.w3.org/Graphics/SVG/1.1/DTD/svg11.dtd" >
<svg xmlns="http://www.w3.org/2000/svg" xmlns:xlink="http://www.w3.org/1999/xlink" version="1.1" viewBox="-10 0 830 1000">
  <g transform="matrix(1 0 0 -1 0 800)">
   <path fill="currentColor"
d="M71.3545 683.521h55.5146l17.1611 52.2256l17.1602 -52.2256h55.5156l-44.8672 -32.2959l17.1611 -52.2246l-44.9697 32.2959l-44.9707 -32.2959l17.1611 52.2246zM426.455 517.603l-39.8965 91.624l79.1162 -34.7549l76.3877 96.0703l73.5117 -100.565l86.4258 40.0234
l-28 -94zM529.998 -67.002h26.3975v372.924h181.825v26.3984h-181.825v160.159l142.887 0.506836l49.9355 165.302l-117.257 -50.9805l-91.0791 113.12l-91.3535 -113.119l-118.312 51.7275l65.9434 -166.539h132.839v-160.177h-181.826v-26.3984h181.826v-372.924z" />
  </g>

</svg>
