<?xml version="1.0" standalone="no"?>
<!DOCTYPE svg PUBLIC "-//W3C//DTD SVG 1.1//EN" "http://www.w3.org/Graphics/SVG/1.1/DTD/svg11.dtd" >
<svg xmlns="http://www.w3.org/2000/svg" xmlns:xlink="http://www.w3.org/1999/xlink" version="1.1" viewBox="-10 0 961 1000">
  <g transform="matrix(1 0 0 -1 0 800)">
   <path fill="currentColor"
d="M30.3242 741.553h55.5146l17.1611 52.2256l17.1602 -52.2256h55.5156l-44.8672 -32.2959l17.1611 -52.2246l-44.9697 32.2959l-44.9707 -32.2959l17.1611 52.2246zM271 608l-12 60c128.725 89.7881 355.203 55.3633 442.457 48.5605
c0 -0.0107422 0.000976562 -0.0214844 0.000976562 -0.0322266c27.4463 0.582031 75.1855 -1.32129 107.268 -33.4033c40.1396 -40.1396 38.6152 -108.841 37.5254 -169.365c-0.395508 -21.9258 -0.433594 -33.2402 -0.22168 -41.9463
c26.3789 -43.8281 72.168 -89.959 89.3252 -129.607c6.95117 -16.0635 5.49219 -24.7637 2.64551 -40.2051l-12 -14l-79.501 -63.5771v-212.431c1.93945 -31.0869 1.82422 -79.2412 -27.416 -108.48c-26.0322 -26.0322 -182.507 -12.0195 -220.584 -13.0049
l-2.90137 0.0126953c-103.732 -7.2998 -296.108 50.6025 -326.603 92.1719c-18.5059 25.2275 -31.4014 41.2529 -57.9951 55.3086v70.0371c25.8174 -16.2627 49.624 -17.8066 70.1904 -60.6357c44.2188 -92.082 349.455 -105.734 451.309 -108.438l-0.499023 -0.962891
c50 12 34.1514 4.48145 42.5352 13.5361c19.1768 20.7119 3.97852 41.9688 5.50781 57.9648h-0.541992v2.14941c-0.253906 0.990234 -0.500977 1.94141 -0.738281 2.84863h0.738281v207.174v3.4873v1.33887h1.58203l104 88h1.13281
c4.9834 45.8955 -62.8379 92.1289 -94.2158 139.501l-3 4l-1 1c-2.02051 3.99219 0.0439453 4.02539 -2.08398 11.5605c-0.0371094 0.130859 -0.189453 0.24707 -0.174805 0.367188l0.258789 2.07227l0.0644531 1.49902
c0.00976562 0.226562 0.150391 3.89551 0.242188 6.24414c3.11426 79.1523 5.19727 173.389 -83.8154 173.771c-136.35 16.7461 -373.536 9.53418 -431.49 -46.5137zM438.685 391.75c0 -4.46094 -3.52148 -17.0967 -14.6562 -17.0967h-0.15332
c0 0 -2.96875 -0.0595703 -3.04785 -0.0605469c-7.66211 0.0263672 -15.3242 0.0410156 -22.9863 0.0410156c-7.66211 0 -15.3242 -0.0146484 -22.9863 -0.0410156h-0.116211c-2.94238 0.0917969 -7.18164 0.224609 -10.7764 4.20898
c-3.0752 3.4082 -4.58887 7.62012 -4.58887 12.2539c0 3.5332 1.24707 8.2959 2.96973 14.6045c6.99414 28.7715 10.2119 42.0088 19.2725 51.0693c2.70898 2.70801 8.27539 7.19531 17.1152 7.19531c20.0664 0 27.4072 -21.374 32.5176 -42.1445
c5.34375 -21.707 5.34375 -21.707 6.25293 -24.627c1.06641 -3.42383 1.18359 -3.7998 1.18359 -5.40332zM374.914 385.364c41.6279 0.0175781 41.6279 0.0175781 47.3711 0.0175781c1.39844 0 5.87109 0 5.87109 5.45312c0 1.89551 -1.03906 5.97949 -2.94531 13.4688
c-6.22852 25.584 -9.14453 37.5586 -16.1016 44.5156c-2.8125 2.8125 -5.99219 4.34082 -10.6289 4.34082c-12.3848 0 -17.7363 -14.7842 -22.6357 -34.3027c-6.55762 -26.9941 -6.55762 -26.9941 -6.55762 -27.9521c0 -1.90234 1.08398 -5.1748 3.58594 -5.41016
c0.693359 -0.0585938 1.35645 -0.100586 2.04102 -0.130859zM520.451 262.723c0 -4.46191 -3.52246 -17.0977 -14.6572 -17.0977c-0.0507812 0 -0.101562 0.000976562 -0.152344 0.000976562c0 0 -2.96973 -0.0605469 -3.04785 -0.0605469
c-7.66211 0.0263672 -15.3242 0.0400391 -22.9873 0.0400391c-7.66211 0 -15.3242 -0.0136719 -22.9863 -0.0400391h-0.115234c-2.94238 0.0917969 -7.18164 0.224609 -10.7773 4.20898c-3.07422 3.40723 -4.58887 7.61914 -4.58887 12.2529
c0 3.5332 1.24805 8.2959 2.9707 14.6045c6.99414 28.7725 10.2119 42.0098 19.2715 51.0693c2.70898 2.70898 8.27539 7.19531 17.1162 7.19531c20.0654 0 27.4062 -21.374 32.5166 -42.1436c5.34473 -21.707 5.34473 -21.707 6.25391 -24.627
c1.06641 -3.4248 1.18359 -3.7998 1.18359 -5.40332zM456.68 256.337c41.6289 0.0175781 41.6289 0.0175781 47.3721 0.0175781c1.39746 0 5.87109 0 5.87109 5.45312c0 1.89551 -1.04004 5.97852 -2.94531 13.4678c-6.22852 25.585 -9.14453 37.5596 -16.1016 44.5166
c-2.81348 2.8125 -5.99316 4.34082 -10.6299 4.34082c-12.3838 0 -17.7363 -14.7842 -22.6357 -34.3027c-6.55664 -26.9951 -6.55664 -26.9951 -6.55664 -27.9531c0 -1.90234 1.08301 -5.1748 3.58594 -5.41016c0.693359 -0.0585938 1.35645 -0.100586 2.04004 -0.129883z
M590.814 393.245c0 -4.46094 -3.52148 -17.0967 -14.6572 -17.0967c-0.0498047 0 -0.101562 0 -0.152344 0.000976562c0 0 -2.96875 -0.0605469 -3.04785 -0.0615234c-7.66211 0.0263672 -15.3242 0.0410156 -22.9863 0.0410156s-15.3242 -0.0146484 -22.9873 -0.0410156
h-0.115234c-2.94238 0.0927734 -7.18164 0.225586 -10.7773 4.20996c-3.07422 3.40723 -4.58887 7.61914 -4.58887 12.2529c0 3.5332 1.24805 8.2959 2.9707 14.6045c6.99414 28.7715 10.2119 42.0088 19.2715 51.0693c2.70898 2.70801 8.27637 7.19531 17.1162 7.19531
c20.0654 0 27.4062 -21.374 32.5176 -42.1436c5.34375 -21.708 5.34375 -21.708 6.25293 -24.627c1.06641 -3.4248 1.18359 -3.80078 1.18359 -5.4043zM527.043 386.859c41.6289 0.0185547 41.6289 0.0185547 47.3721 0.0185547c1.39746 0 5.87109 0 5.87109 5.45312
c0 1.89453 -1.04004 5.97852 -2.94531 13.4678c-6.22852 25.584 -9.14453 37.5596 -16.1016 44.5166c-2.8125 2.8125 -5.99316 4.33984 -10.6289 4.33984c-12.3848 0 -17.7373 -14.7842 -22.6357 -34.3027c-6.55762 -26.9941 -6.55762 -26.9941 -6.55762 -27.9521
c0 -1.90234 1.08301 -5.1748 3.58594 -5.41016c0.693359 -0.0585938 1.35645 -0.100586 2.04004 -0.130859zM273.001 354.999c0 -95.6113 89.2539 -172.999 198.999 -172.999c109.732 0 198.999 77.377 198.999 172.999c0 95.6113 -89.2539 172.999 -198.999 172.999
c-109.732 0 -198.999 -77.377 -198.999 -172.999zM289.399 356.599c0 86.7803 81.5361 157.001 181.801 157.001c100.266 0 181.801 -70.2217 181.801 -157.001c0 -86.7793 -81.5361 -157 -181.801 -157c-100.266 0 -181.801 70.2217 -181.801 157zM195.738 509.175
l-48.2852 -54.8486l52.5469 -54.3262l-6.8418 -6.41016l-52.6055 54.4678l-47.5781 -54.4678l-4.96875 6.11133l46.9736 53.7295l-46.1768 54.0273l6.10352 6.56738l46.708 -52.2373l48.8311 52.5361z" />
  </g>

</svg>
