<?xml version="1.0" standalone="no"?>
<!DOCTYPE svg PUBLIC "-//W3C//DTD SVG 1.1//EN" "http://www.w3.org/Graphics/SVG/1.1/DTD/svg11.dtd" >
<svg xmlns="http://www.w3.org/2000/svg" xmlns:xlink="http://www.w3.org/1999/xlink" version="1.1" viewBox="-10 0 1051 1000">
  <g transform="matrix(1 0 0 -1 0 800)">
   <path fill="currentColor"
d="M828.399 483.872c0 9.49878 0.360099 25.4826 0.360099 28.905l-0.318652 61.3747l-8.69455 54.78l-24.0577 41.7601l-29.8355 19.1251l-33.9409 8.02542l-47.9505 1.85133v0.765382l-107.704 8.96128l-161.614 -4.8437l-135.511 -48.0118l4.97421 -24.8711
l90.1513 34.2037l168.519 13.9909l163.859 -8.05849l72.0585 -32.0852l24.6852 -76.5829c-11.2968 -92.7231 -11.5388 -94.7093 -10.6225 -98.1968c0.272553 -1.03738 0.408327 -1.98777 0.495372 -2.92219c0.487753 -0.641757 1.13403 -1.58506 1.4862 -2.05622
l30.4464 -40.7334l38.0432 -60.0682l23.93 -33.502l-96.7113 -80.2498l-3.19974 -219.288c0.962733 -7.56244 2.78458 -22.0112 5.01798 -45.877c-0.12894 -0.269919 -9.65147 -20.9678 -12.8349 -27.02c-1.80565 -3.43278 -3.36365 -6.39475 -8.94453 -11.1259
c-28.726 -6.87192 -37.6748 -9.01268 -53.7943 -9.01268c-3.38415 0 -6.77838 0.14333 -10.1737 0.446144l-127.95 -3.2205l-189.706 31.9736l-119.91 72.0259l-21.8729 31.5454c-0.18608 0.126152 -14.9542 10.3475 -18.5829 12.6523v-31.4635
c5.41685 -3.87145 13.5068 -7.36272 24.4398 -17.2503c7.32645 -6.62591 2.09556 -4.45645 10.6241 -11.9264c1.03002 -0.902171 1.03002 -0.902171 17.2005 -21.8062l70.2643 -41.1391l123.979 -35.7692l40.8353 -3.74581
c52.8258 -4.90757 59.0669 -6.73248 83.0467 -7.42728l68.08 -1.97257l89.7606 0.254271l51.1066 12.4914l15.1376 25.2075l6.27671 34.16l-0.268638 82.9487l0.0291888 84.2282l-0.00582149 87.5189l84.7837 67.8016l7.68593 8.96692l1.11464 7.19504
c0.44913 7.61262 -1.52476 12.8022 -3.31214 18.1783l-23.3304 38.8443l-33.0243 43.448l-34.3179 48.9016c-0.202711 16.1296 -0.202711 16.1296 -0.202711 17.6951zM33.2949 712.521h55.5146l17.1611 52.2256l17.1602 -52.2256h55.5156l-44.8672 -32.2959
l17.1611 -52.2246l-44.9697 32.2959l-44.9707 -32.2959l17.1611 52.2246zM239.847 296.552c-0.0585938 0.0507812 -0.115234 0.0966797 -0.166992 0.136719zM179.388 310.949c0.185547 -0.208008 0.318359 -0.351562 0.389648 -0.425781zM421.406 198.909
c-1.14648 -1.79492 0.164062 0.441406 -1.58789 -0.887695l1.02051 -0.654297c0.0625 -0.0400391 -2.28711 -9.20703 -0.680664 -16.8477c0.75 -3.5625 2.68555 -3.31152 2.69727 -6.2373c0.0146484 -3.33594 -0.743164 -1.6416 -1.34473 -4.36328
c-5.51367 -7.01855 -7.65723 -7.36523 -14.0771 -8.40527c-10.502 -1.69922 -27.8037 -0.6875 -43.6865 -4.63477c-4.66992 -0.392578 -44.3975 -2.88184 -49.4883 -1.54395c-2.57422 0.676758 -5.50977 0.458008 -7.50781 -0.790039
c-12.7666 2.81543 -34.2793 16.2041 -36.3818 23.4873l0.0244141 1.94434l-0.685547 1.72559l-1.11914 1.4043c-9.49023 16.2119 -18.6543 28.8438 -18.8896 29.1006c-0.697266 4.7666 -2.89648 7.06152 -2.89648 7.5957c0 6.56055 -18.8154 39.8838 -22.6289 42.8174
c-0.239258 0.182617 -15.7178 17.792 -20.0791 22.4629c-0.138672 0.249023 -5.63672 8.07227 -20.1279 20.1934c-2.50098 2.09375 -1.53613 3.76367 -4.5791 5.67285c-7.51855 8.41992 -4.52051 8.01562 -7.36621 12.2764
c0.337891 9.91211 14.7695 14.8516 14.9717 14.9111c1.75488 0.0478516 6.49023 -0.192383 7.49902 -0.422852c4.67871 -1.06836 8.32129 -5.87598 12.2461 -7.77734c5.2832 -7.17383 28.9326 -29.1562 29.1602 -29.5029c1.0459 -2.34473 3.05371 -3.48633 3.94824 -3.88184
c3.25488 -2.86719 4.14453 -6.87207 9.11816 -8.66797c2.01465 -2.05957 5.53027 -2.8252 8.66699 -1.92285c0.616211 -0.106445 0.616211 -0.106445 5.80078 -1.14355l1.44824 1.57227c0.936523 3.00391 -0.597656 12.7012 -3.66211 13.8428
c-0.825195 4.6582 -1.0918 5.96582 -1.1748 6.2627c0.902344 1.75293 1.78809 4.44727 0.0302734 7.06152c-0.131836 0.662109 -5.14355 61.042 -6.82422 67.2041c-0.0234375 1.56836 1.11035 5.73926 0.00585938 8.34961
c0.732422 5.52832 0.147461 24.0859 0.662109 31.0713c0 3.1123 3.13965 7.84375 6.29395 15.9316c2.23535 3.06836 2.23535 3.06836 7.0166 4.67871c3.50098 -0.197266 3.58496 -0.623047 4.08105 -0.980469c1.2002 -0.861328 1.2002 -0.861328 5.70508 -3.3252
c0.568359 -0.745117 2.84082 -4.59961 2.87012 -4.64551c3.10547 -9.50586 5.25586 -26.373 6.52441 -38.8906l7.48828 14.04l2.12695 5.97754c2.7832 7.81836 3.58301 21.9307 7.7793 32.0684c2.7998 6.7666 4.66016 8.72852 11.0752 11.1797
c5.5166 -0.224609 5.75098 -0.532227 7.0459 -1.62402c0.078125 -0.276367 9.72168 -18.6367 11.9277 -26.21l-0.629883 -4.04004l1.58984 0.0576172c0.0185547 -0.100586 0.510742 -5.55566 1.31836 -10.0664l0.999023 -0.105469
c0.235352 -3.49316 0.235352 -3.49316 -0.0527344 -5.68555c0.257812 -0.0439453 0.673828 0.0361328 0.580078 -0.277344c4.67188 0.260742 6.38477 -24.9883 9.59277 -23.5938c6.21387 2.70117 1.37305 35.7842 3.81738 35.6396
c1.76953 -0.104492 0.492188 3.14453 0.619141 4.17871c0.369141 3 1.41309 1.93359 2.31836 6.20312c1.27539 6.03516 9.95605 16.7324 10.0322 16.9121c3.3623 3.2666 7.80469 4.47559 9.58789 3.10352c10.0078 -11.1816 15.6221 -38.4658 15.2764 -56.6777
c2.13867 -0.0244141 2.61523 -7.00195 2.80859 -8.64062c3.87402 -32.8652 5.98047 23.7324 8.24414 20.0684l1.9082 3.28516c2.04492 3.52148 13.7021 16.3848 17.5693 19.3604c1.02051 0.785156 1.23145 0.870117 6.00488 0.0751953
c3.22949 -2.00879 5.81348 -6.30664 5.9209 -6.53125c5.32715 -11.0449 -1.34668 -77.7676 -1.41309 -88.9766c-1.91992 -6.38086 -1.07715 -17.2852 -0.644531 -19.957c0 -14.3926 2.3457 -39.4023 2.63867 -41.498c-2.61035 -4.81348 4.0166 -24.5918 2.38086 -39.0322
c-0.421875 -3.72656 -12.9131 -33.2744 -12.9131 -33.2744zM260.212 436.113c0.03125 0.0449219 0.03125 0.0800781 0.0351562 0.0869141c-0.000976562 -0.00195312 -0.0136719 -0.0332031 -0.0351562 -0.0869141zM422.366 437.419l-0.870117 -5.04492l2.89941 0.804688z
M320.382 455.672l0.341797 -0.0380859c-0.0878906 0.0136719 -0.203125 0.0195312 -0.341797 0.0380859zM383.911 431.384c0 -0.0458984 0.0292969 -0.0927734 0.0292969 -0.0947266c-0.00878906 0.0292969 -0.0292969 0.0605469 -0.0292969 0.0947266zM249.671 212.103
c0 -0.0195312 0.0498047 -0.0400391 0.0517578 -0.0595703zM282.665 167.59zM392.504 448.106l0.0615234 -0.118164c-0.0136719 0.0283203 -0.0332031 0.0673828 -0.0615234 0.118164zM300.623 460.317l0.0419922 0.0332031
c-0.0136719 -0.00976563 -0.0273438 -0.0214844 -0.0419922 -0.0332031zM238.378 315.612l0.0488281 -0.0507812c-0.0175781 0.0175781 -0.0488281 0.0507812 -0.0488281 0.0507812zM188.237 349.055l0.140625 -0.03125
c-0.0283203 0.00488281 -0.140625 0.03125 -0.140625 0.03125zM179.454 293.138l-0.0292969 0.0224609c0.0078125 -0.00585938 0.015625 -0.0224609 0.0292969 -0.0224609zM179.005 293.565c0.842773 -0.842773 2.87793 -2.16895 5.79688 -5.08789
c6.00195 -6 7.23438 -10.3711 14.5469 -17.3828c5.33984 -5.12012 4.44336 -5.75977 12.5752 -15.8662c16.5527 -20.583 25.1465 -52.7314 37.7578 -66.1289c2.98926 -6.44629 -0.49707 -4.53027 2.81934 -9.22168c0.0791016 -0.24707 0.0791016 -0.24707 2.375 -6.12109
l-1.99414 -2.07617c-0.0273438 -0.0292969 -0.859375 -1.93359 -0.463867 -5.15039c0.46875 -3.80469 2.33789 -8.05371 4.0459 -9.76172c2.52344 -1.79883 0.24707 -2.16211 4.4209 -3.46289c22.583 -16.0781 141.937 -5.83105 157.803 0.132812
c6.63867 0.0917969 14.6396 7.50977 17.8467 13.9766c4.44922 8.97363 -2.99316 15.8223 -0.259766 29.5469c-1.3252 2.57129 -0.236328 4.54883 3.62695 11.5625c2.8457 5.16797 4.37012 7.93652 4.73145 10.1016c4.61035 5.80371 4.24219 13.9268 1.82129 41.0488
c0.771484 1.53516 0.771484 1.53516 0.52832 2.54785c-3.16211 13.1279 -3.53418 35.0215 -3.1377 55.7783c0.171875 8.92383 1.41211 41.834 2.42285 50.5469c1.46191 12.6201 0.101562 44.2383 -0.427734 48.2803c-0.713867 5.4375 -2.56055 13.8545 -7.23535 15.8789
c-0.119141 0.0419922 -5.0293 3.42676 -11.6621 5.10352c-1.49707 0.37793 -5.85742 1.48145 -8.99023 -0.00878906c-5.33398 -0.667969 -11.457 -5.59961 -12.6885 -6.86914l-5.72363 -5.89648l-1.88477 7.99219c-2.72754 11.5723 -2.21289 10.084 -4.69141 14.1094
c-1.46094 2.59766 -2.36719 4.21094 -4.85352 6.69727c-3.81836 3.81836 -4.49805 2.5918 -6.57812 4.07324c-5.31152 3.78125 -14.4893 3.375 -18.5742 0.889648c-5.61328 -2.51953 -6.57617 -2.95117 -8.55469 -4.93164
c-1.46191 -1.45996 -1.78125 -1.85645 -12.0791 -14.5791l-2.04199 9.05566c-0.612305 2.71191 -0.658203 3.61523 -4.72461 8.19336c-5.25098 5.91211 -5.46387 6.15234 -11.1992 7.53125c-1.16504 0.280273 -2.62305 0.630859 -3.63965 2.29883
c-4.08105 6.67773 -8.15625 5.43457 -17.0127 -3.29004c-4.47852 -4.41211 -4.50879 -3.49902 -9.6748 -8.66504c-3.43457 -3.43555 -3.74707 -4.03906 -6.58008 -9.51562l-4.04883 2.2373c-15.4297 8.52637 -25.6895 3.43945 -32.2207 -3.0918
c-3.85547 -3.85547 -6.42188 -8.77344 -6.86328 -10.7803c0.0986328 -1.15039 -0.321289 -1.78223 -0.807617 -2.34766c-7.01465 -9.99023 -2.96582 -66.2158 0.699219 -93.9121c0 0 -0.154297 -1.76465 0.289062 -2.18359
c1.29199 -5.95508 1.43262 -6.60547 1.87695 -27.5742l-7.9668 8.33594c-0.817383 0.8125 -15.542 15.1484 -25.6553 23.0781c-5.73535 4.49609 -9.86719 6.95703 -13.084 8.31738c-5.94434 2.51367 -9.61914 1.64746 -11.3203 2.05371
c-0.446289 0.0654297 -12.2139 1.77637 -27.0215 -14.6719c-8.63672 -9.5918 3.57812 -24.707 3.85059 -24.9492c0.308594 -0.326172 0.75 -0.518555 0.890625 -1.0127v0v0c1.80469 -2.19824 10.1992 -12.0928 12.9355 -14.8291zM256.712 156.537l-4.35938 0.87793
c0.915039 0.299805 2.68555 0.578125 4.35938 -0.87793zM166.069 308.395c-0.251953 0.375 -0.0244141 0.0292969 -0.0244141 0.0292969c0.00878906 -0.00976562 0.0234375 -0.0283203 0.0244141 -0.0292969zM436.274 196.962
c0.226562 1.13574 0.226562 1.13574 0.972656 3.72168l1.20117 -4.04199l6.08691 -0.195312c-4.02246 -3.84277 -7.2998 -1.35156 -8.26074 0.515625zM379.119 214.979c-5.54883 -0.113281 -71.1973 -0.111328 -71.917 -0.0878906
c-4.33984 0.139648 -10.373 0.333984 -15.5342 6.05078c-1.50684 1.66992 -8.51465 10.209 -6.28418 22.4238c0.823242 4.50195 1.92773 9.03711 3.98828 16.585c8.8252 36.3086 11.2188 46.1494 17.8291 59.6953c5.40723 11.0625 17.333 27.7217 39.4219 25.0811
c26.2051 -2.9043 35.9736 -32.999 42.9736 -61.2002c2.45996 -10.2256 4.97266 -20.4316 7.54785 -30.666c2.25879 -9.40332 4.44238 -18.5029 -1.14941 -27.7559c-2.78223 -4.60156 -8.00195 -10.2236 -16.876 -10.126zM344.34 329.782
c-19.9365 1.80566 -28.1328 -19.6943 -35.8447 -50.3496c-5.93555 -24.4375 -5.93555 -24.4375 -8.08496 -32.4941l0.0117188 0.046875c-0.00390625 -0.0146484 -0.0117188 -0.046875 -0.0117188 -0.046875c-1.51562 -6.23828 -2.77148 -11.4043 1.08008 -15.2549
c1.41504 -1.41504 1.93359 -1.51074 5.95605 -1.6875c71.4053 0.03125 71.4053 0.03125 73.3828 0.293945c1.70703 0.211914 6.00391 4.1875 4.57812 10.957c-0.111328 0.558594 -8.87207 38.8018 -13.9199 55.2588c-8.86035 28.5713 -19.416 32.7422 -27.1475 33.2764z
M304.441 230.187l-0.0517578 0.00488281c0.00976562 0 0.0195312 -0.00488281 0.0517578 -0.00488281zM303.242 230.411l-0.243164 0.0722656c0.0800781 -0.0253906 0.162109 -0.0507812 0.243164 -0.0722656zM301.288 231.894l-0.0498047 0.0537109
c0.0166016 -0.0175781 0.0332031 -0.0351562 0.0498047 -0.0537109zM299.081 240.812l0.0107422 0.0683594c-0.00390625 -0.0234375 -0.0107422 -0.0449219 -0.0107422 -0.0683594zM322.772 318.249l0.0390625 0.0566406
c-0.00683594 -0.00878906 -0.0126953 -0.0185547 -0.0390625 -0.0566406zM359.414 321.618l0.0361328 -0.0439453c-0.0117188 0.015625 -0.0361328 0.0439453 -0.0361328 0.0439453zM385.713 238.058l-0.00292969 -0.149414
c0.000976562 0.0498047 0.00292969 0.0996094 0.00292969 0.149414zM684 124l-148.4 0.700195l2.10059 299.601l17.4219 -0.466797v-281.75h112.777v281.75l16.1006 -0.233398v-299.601z" />
  </g>

</svg>
