<?xml version="1.0" standalone="no"?>
<!DOCTYPE svg PUBLIC "-//W3C//DTD SVG 1.1//EN" "http://www.w3.org/Graphics/SVG/1.1/DTD/svg11.dtd" >
<svg xmlns="http://www.w3.org/2000/svg" xmlns:xlink="http://www.w3.org/1999/xlink" version="1.1" viewBox="-10 0 997 1000">
  <g transform="matrix(1 0 0 -1 0 800)">
   <path fill="currentColor"
d="M828.399 483.872c0 9.49878 0.360099 25.4826 0.360099 28.905l-0.318652 61.3747l-8.69455 54.78l-24.0577 41.7601l-29.8355 19.1251l-33.9409 8.02542l-47.9505 1.85133v0.765382l-107.704 8.96128l-161.614 -4.8437l-135.511 -48.0118l4.97421 -24.8711
l90.1513 34.2037l168.519 13.9909l163.859 -8.05849l72.0585 -32.0852l24.6852 -76.5829c-11.2968 -92.7231 -11.5388 -94.7093 -10.6225 -98.1968c0.272553 -1.03738 0.408327 -1.98777 0.495372 -2.92219c0.487753 -0.641757 1.13403 -1.58506 1.4862 -2.05622
l30.4464 -40.7334l38.0432 -60.0682l23.93 -33.502l-96.7113 -80.2498l-3.19974 -219.288c0.962733 -7.56244 2.78458 -22.0112 5.01798 -45.877c-0.12894 -0.269919 -9.65147 -20.9678 -12.8349 -27.02c-1.80565 -3.43278 -3.36365 -6.39475 -8.94453 -11.1259
c-28.726 -6.87192 -37.6748 -9.01268 -53.7943 -9.01268c-3.38415 0 -6.77838 0.14333 -10.1737 0.446144l-127.95 -3.2205l-189.706 31.9736l-119.91 72.0259l-21.8729 31.5454c-0.18608 0.126152 -14.9542 10.3475 -18.5829 12.6523v-31.4635
c5.41685 -3.87145 13.5068 -7.36272 24.4398 -17.2503c7.32645 -6.62591 2.09556 -4.45645 10.6241 -11.9264c1.03002 -0.902171 1.03002 -0.902171 17.2005 -21.8062l70.2643 -41.1391l123.979 -35.7692l40.8353 -3.74581
c52.8258 -4.90757 59.0669 -6.73248 83.0467 -7.42728l68.08 -1.97257l89.7606 0.254271l51.1066 12.4914l15.1376 25.2075l6.27671 34.16l-0.268638 82.9487l0.0291888 84.2282l-0.00582149 87.5189l84.7837 67.8016l7.68593 8.96692l1.11464 7.19504
c0.44913 7.61262 -1.52476 12.8022 -3.31214 18.1783l-23.3304 38.8443l-33.0243 43.448l-34.3179 48.9016c-0.202711 16.1296 -0.202711 16.1296 -0.202711 17.6951zM33.2949 712.521h55.5146l17.1611 52.2256l17.1602 -52.2256h55.5156l-44.8672 -32.2959
l17.1611 -52.2246l-44.9697 32.2959l-44.9707 -32.2959l17.1611 52.2246zM364.801 167.382zM364.681 165.964zM512.037 189.402c0 -22.1289 -12.8721 -50.9873 -28.8535 -65.6572c-33.6836 -31.0049 -68.5703 -31.0049 -136.325 -31.0049v12.8916
c19.0537 0 35.3564 0.72168 49.6553 0.72168c-6.56836 1.63184 -15.2109 5.27832 -23.208 13.2764c-15.2373 15.2373 -15.0576 34.4336 -10.2188 47.1973c-0.359375 1.46875 2.41797 5.60156 3.06934 7.26367c0.636719 1.62109 1.4248 2.43164 2.55371 3.45215
c0.696289 0.62793 0.696289 0.62793 1.11719 1.33008c1.00391 1.67188 2.62793 3.29883 4.65527 5.32617c1.55664 1.55566 8.76758 6.78809 14.3105 8.52051c4.10254 1.2832 4.67285 2.03223 7.37402 2.35059c1.23438 0.144531 1.93848 0.302734 2.70508 0.474609
c1.34473 0.300781 22.5391 4.71191 40.1982 -12.9473c8.68555 -8.68555 13.0791 -19.2236 13.0791 -31.4004c0 -7.5127 -1.84473 -21.4229 -13.7285 -33.0684c-3.64844 -3.53027 -7.61719 -6.34863 -11.8906 -8.4502c18.5391 3.63086 33.4629 10.5195 47.7891 23.5859
c12.958 11.876 24.9443 37.4648 24.6973 57.1221c-0.170898 17.7979 -11.5049 43.1309 -25.3428 55.2959c-30.04 26.7354 -63.4062 26.7354 -125.081 26.7354v12.8916c62.0684 0 99.624 0 133.663 -29.959c15.2412 -13.373 29.7812 -41.5156 29.7812 -65.9482z
M406.182 120.029c12.1104 0 19.0537 5.7793 22.8359 9.56055c7.93164 7.93066 9.03906 16.2119 9.03906 21.7334c-0.0273438 7.84473 -2.63281 15.293 -9.42871 21.8916c-11.4824 11.2979 -26.1191 10.416 -34.9268 6.57617l-9.85059 -6.4834l-7.62402 -11.2715
l0.0224609 0.0634766c-0.00683594 -0.0205078 -0.0146484 -0.0419922 -0.0224609 -0.0634766c-1.52148 -4.16309 -5.92285 -19.7314 7.36328 -32.8398c6.21875 -6.13672 13.6729 -9.16699 22.5918 -9.16699zM702.193 89.668l-121.095 0.571289l1.71289 244.474
l14.2158 -0.380859v-229.908h92.0283v229.908l13.1377 -0.189453v-244.475zM710.893 480.67l-60.3145 -60.9131l65.6377 -60.333l-8.54492 -7.11816l-65.7109 60.4902l-59.4307 -60.4902l-6.20703 6.78711l58.6748 59.6699l-57.6807 60.002l7.625 7.29297l58.3438 -58.0127
l60.9961 58.3438zM493.008 373.791h-26.3174v73.167c0 21.4932 -6.75098 36.165 -20.2539 44.0137c-11.3896 6.63574 -31.1846 9.95215 -59.3848 9.95215c-21.4023 0 -42.207 -1.30762 -62.4141 -3.9248l-2.20508 22.8486c20.8506 2.89453 43.9062 4.34473 69.167 4.34473
c34.7207 0 59.752 -4.7207 75.0908 -14.1582c17.5459 -10.6523 26.3174 -29.2939 26.3174 -55.9268v-80.3164zM350.402 373.791h-26.3164v83.8213h26.3164v-83.8213z" />
  </g>

</svg>
