<?xml version="1.0" standalone="no"?>
<!DOCTYPE svg PUBLIC "-//W3C//DTD SVG 1.1//EN" "http://www.w3.org/Graphics/SVG/1.1/DTD/svg11.dtd" >
<svg xmlns="http://www.w3.org/2000/svg" xmlns:xlink="http://www.w3.org/1999/xlink" version="1.1" viewBox="-10 0 1051 1000">
  <g transform="matrix(1 0 0 -1 0 800)">
   <path fill="currentColor"
d="M828.399 483.872c0 9.49878 0.360099 25.4826 0.360099 28.905l-0.318652 61.3747l-8.69455 54.78l-24.0577 41.7601l-29.8355 19.1251l-33.9409 8.02542l-47.9505 1.85133v0.765382l-107.704 8.96128l-161.614 -4.8437l-135.511 -48.0118l4.97421 -24.8711
l90.1513 34.2037l168.519 13.9909l163.859 -8.05849l72.0585 -32.0852l24.6852 -76.5829c-12.0195 -98.6551 -12.0195 -98.6551 -8.64097 -103.175l30.4464 -40.7334l38.0432 -60.0682l23.93 -33.502l-96.7113 -80.2498l-3.19974 -219.288
c0.962733 -7.56244 2.78458 -22.0112 5.01798 -45.877c-15.8013 -33.078 -15.8013 -33.078 -21.7795 -38.1459c-28.726 -6.87192 -37.6748 -9.01268 -53.7943 -9.01268c-3.38415 0 -6.77838 0.14333 -10.1737 0.446144l-127.95 -3.2205l-189.706 31.9736l-119.91 72.0259
l-21.8729 31.5454c-0.18608 0.126152 -14.9542 10.3475 -18.5829 12.6523v-31.4635c5.41685 -3.87145 13.5068 -7.36272 24.4398 -17.2503c0.324316 -0.293306 6.03353 -5.56267 27.8246 -33.7326l70.2643 -41.1391l123.979 -35.7692l40.8353 -3.74581
c52.8258 -4.90757 59.0669 -6.73248 83.0467 -7.42728l68.08 -1.97257l89.7606 0.254271l51.1066 12.4914l15.1376 25.2075l6.27671 34.16l-0.268638 82.9487l0.0291888 84.2282l-0.00582149 87.5189l84.7837 67.8016l7.68593 8.96692
c1.77472 11.4559 1.98289 12.7996 -2.19749 25.3734l-23.3304 38.8443c-23.3118 29.9188 -45.6511 60.8101 -67.3422 92.3496c-0.202711 16.1296 -0.202711 16.1296 -0.202711 17.6951zM33.2949 712.521h55.5146l17.1611 52.2256l17.1602 -52.2256h55.5156
l-44.8672 -32.2959l17.1611 -52.2246l-44.9697 32.2959l-44.9707 -32.2959l17.1611 52.2246zM428.45 590.3c9.06256 -1.44432 10.8161 -4.07435 16.5 -12.5996l11.4004 10.1992c12.9532 11.0604 13.4548 12.8162 16.8496 24.7002l20 -0.399414
c-0.599609 0 1.60059 -207.2 1.60059 -207.2h-24.8008v165.6l-19.5996 -14.3994c-4.30469 -4.14062 -9.2002 -7.2002 -14.7998 -11.2002c-4.40723 -2.73145 -10.8486 -7.1123 -16 -8.7998c0 0 -0.150391 5.19922 -0.75 14.5
c-3.91699 2.49707 -7.62598 3.84766 -12.2998 10.5c-0.839844 5.05078 -3.44531 8.79297 -0.300781 16.7998c2.03027 4.02051 4.89941 7.47559 9.30078 9.89941c4.19922 1.2998 8.69922 2.30078 12.8994 2.40039zM570.222 135.613
c0 -40.6339 -34.4937 -84.7682 -86.2217 -85.9463c-0.0615234 0 -0.163086 -0.000976562 -0.224609 -0.000976562c-53.5214 0 -104.323 58.7849 -69.1084 129.834c7.72186 15.546 32.5094 56.5095 32.833 57.083l26.5 46.417c7.98654 15.4427 8.6197 16.667 11.917 16.667
h1.58301c4.39595 -1.81081 7.00732 -10.7341 8.08301 -12.167l41.084 -72.083c2.91602 -5.08398 6.08301 -10 9.25 -15c5.88592 -8.60091 24.3047 -35.5157 24.3047 -64.8037zM484.038 57.8945c44.6004 0 78.0615 38.9439 78.0615 77.3574
c0 6.32708 0 27.1734 -23.1826 61.0811c-3.25 5.08398 -6.5 10.167 -9.5 15.334l-41.084 71.333c0 0.528578 -1.95458 3.88559 -2.41602 4.66699c-0.844093 -1.51937 -4.61995 -9.07551 -4.66699 -9.16699l-26.5 -46.25
c-10.2666 -18.0227 -22.7279 -36.5728 -32.667 -56.583c-32.5328 -66.006 14.3041 -117.772 61.9551 -117.772z" />
  </g>

</svg>
