<?xml version="1.0" standalone="no"?>
<!DOCTYPE svg PUBLIC "-//W3C//DTD SVG 1.1//EN" "http://www.w3.org/Graphics/SVG/1.1/DTD/svg11.dtd" >
<svg xmlns="http://www.w3.org/2000/svg" xmlns:xlink="http://www.w3.org/1999/xlink" version="1.1" viewBox="-10 0 1004 1000">
  <g transform="matrix(1 0 0 -1 0 800)">
   <path fill="currentColor"
d="M614.509 361.626l-282.24 0.94043v18.624h253.058v105.753h-253.058v18.625l279.731 -1.56836zM264.521 609.221l-12.6758 63.3936c136.002 94.8662 375.292 58.4941 467.481 51.3066c29.001 0.581055 79.4395 -1.43066 113.337 -35.3262
c42.4092 -42.4102 40.7979 -114.996 39.6455 -178.943c-0.416016 -23.167 -0.457031 -35.123 -0.233398 -44.3203c27.873 -46.3066 76.252 -95.0469 94.3799 -136.938c7.34277 -16.9707 5.80176 -26.1641 2.79395 -42.4785l-12.6807 -14.791l-83.9961 -67.1738v-224.448
c2.04785 -32.8447 1.92871 -83.7236 -28.9658 -114.614c-27.5059 -27.5059 -192.831 -12.7002 -233.062 -13.7412l-3.06641 0.0136719c-109.601 -7.71484 -312.854 53.4648 -345.075 97.3857c-19.5508 26.6543 -33.1758 43.585 -61.2744 58.4365v73.998
c27.2783 -17.1826 52.4307 -18.8125 74.1611 -64.0645c46.7197 -97.292 369.22 -111.715 476.835 -114.573l-0.527344 -1.0166c52.8281 12.6768 36.083 4.73438 44.9424 14.3018c20.2598 21.8828 4.2041 44.3428 5.81836 61.2441h-0.571289v2.27051
c-0.269531 1.04492 -0.530273 2.05176 -0.78125 3.00781h0.78125v218.894v3.68359v1.41504h1.6709l109.881 92.9756h1.19727c5.26562 48.4922 -66.3906 97.3398 -99.5449 147.394l-3.16895 4.22559l-1.05762 1.05664c-2.13379 4.2168 0.0449219 4.25195 -2.20117 12.2139
c-0.0390625 0.138672 -0.200195 0.261719 -0.18457 0.386719l0.273438 2.19141l0.0683594 1.58203c0.00976562 0.242188 0.15918 4.11719 0.255859 6.59766c3.29004 83.6279 5.49121 183.196 -88.5566 183.601l9.05664 11.0186
c-144.061 17.6953 -394.666 10.0771 -455.897 -49.1416zM52.7012 763.544h41.6357l12.8711 39.1699l12.8701 -39.1699h41.6367l-33.6504 -24.2217l12.8711 -39.168l-33.7275 24.2217l-33.7275 -24.2217l12.8701 39.168zM484.698 -7.09863
c-87.6846 0 -158.698 69.6123 -158.698 155.099c0 85.4805 71.0088 155.098 158.698 155.098c87.6846 0 158.698 -69.6123 158.698 -155.098c0 -85.4814 -71.0088 -155.099 -158.698 -155.099zM484.698 278.741c-74.6553 0 -135.062 -58.1709 -135.062 -130.021
c0 -71.8486 60.4033 -130.021 135.062 -130.021c74.6553 0 135.062 58.1709 135.062 130.021c0 71.8477 -60.4033 130.021 -135.062 130.021zM400.771 50.4033c-4.94824 0 -10.4307 3.96387 -10.4307 12.7031c0 1.06348 0.264648 6.52344 5.56641 8.91895
c8.04883 3.74609 15.1865 7.67773 22.0947 11.4863c18.1143 9.98828 35.2852 19.4482 61.0195 19.4482c28.042 0 45.498 -11.0361 63.9375 -22.6953c0.208008 -0.131836 20.6377 -12.667 20.9346 -12.9639c2.28906 -2.28906 2.77051 -5.01074 2.77051 -6.94336
c0 -7.35547 -5.88184 -12.9824 -11.4258 -12.9824c-3.39941 0 -8.51074 3.44922 -21.7627 12.3936c-18.3496 12.3838 -31.6094 20.998 -54.0127 20.998c-22.4102 0 -35.7461 -7.61328 -55.1533 -18.6494c-15.1787 -8.63184 -20.5986 -11.7139 -23.5381 -11.7139z
M412.698 204.581c-12.1006 0 -20.458 7.58203 -20.458 16.1387c0 8.55566 8.35645 16.1387 20.458 16.1387c12.1006 0 20.458 -7.58301 20.458 -16.1387c0 -8.55566 -8.35645 -16.1387 -20.458 -16.1387zM539.418 206.021c-11.5576 0 -19.7373 7.54688 -19.7373 16.1396
c0 8.59082 8.17773 16.1377 19.7373 16.1377c11.5586 0 19.7383 -7.5459 19.7383 -16.1377s-8.17969 -16.1396 -19.7383 -16.1396z" />
  </g>

</svg>
