<?xml version="1.0" standalone="no"?>
<!DOCTYPE svg PUBLIC "-//W3C//DTD SVG 1.1//EN" "http://www.w3.org/Graphics/SVG/1.1/DTD/svg11.dtd" >
<svg xmlns="http://www.w3.org/2000/svg" xmlns:xlink="http://www.w3.org/1999/xlink" version="1.1" viewBox="-10 0 1051 1000">
  <g transform="matrix(1 0 0 -1 0 800)">
   <path fill="currentColor"
d="M613.707 247.112v212.787h69.5615v-212.919l-35.2686 -93.9805zM674.082 253.207v188.61h-51.1875l0.0478516 -188.641l25.2061 -69.127zM622.895 441.817h-2.1875l2.18652 4.37695c0 -1.45898 0.000976562 -2.91797 0.000976562 -4.37695zM509.186 385.023
c1.15234 -20.4756 -8.10352 -79.5889 -3.90332 -86.0146c0.199219 -0.118164 0.774414 -0.526367 0.850586 -1.34277c4.75586 -51.1279 45.7969 -100.089 61.7119 -116.003c3.35059 -3.35156 5.52441 -5.03223 5.52441 -5.03223l-1.68945 -0.410156l-0.493164 -1.12988
l2.71777 -1.51758l-10.584 -7.05566c-0.702148 -0.467773 -1.66602 -0.373047 -2.25977 0.275391c-1.41211 1.53906 -2.83398 3.08008 -4.2666 4.62988c-21.8789 23.6855 -45.8291 49.6963 -64.6543 111.053c-6.25 -29.4551 -24.1113 -60.75 -40.3008 -81.3105
c-9.61328 -12.209 -17.7373 -27.834 -24.3311 -34.4277c-0.633789 -0.634766 -1.63574 -0.679688 -2.32227 -0.135742c-7.1416 5.65332 -12.1377 9.60156 -12.248 9.71191c-0.628906 0.628906 -0.678711 1.61914 -0.149414 2.30469
c10.1279 13.1299 25.7227 34.8906 30.2334 40.8154c45.4961 59.7627 47.4844 138.497 47.1289 180.401c-0.00878906 0.988281 0.799805 1.78613 1.78809 1.76465l12.8193 -0.283203c1.15039 -0.0244141 4.34863 -0.529297 4.25098 -5.39258
c-0.0205078 -1.05176 -0.114258 -5.73828 0.176758 -10.9004zM59.8252 745.129h55.5146l17.1611 52.2256l17.1602 -52.2256h55.5156l-44.8672 -32.2959l17.1611 -52.2246l-44.9697 32.2959l-44.9707 -32.2959l17.1611 52.2246zM300.501 611.576l-12 60
c128.725 89.7881 355.203 55.3633 442.457 48.5605c0 -0.0107422 0.000976563 -0.0214844 0.000976563 -0.0322266c27.4463 0.582031 75.1855 -1.32129 107.268 -33.4033c40.1396 -40.1396 38.6152 -108.841 37.5254 -169.365
c-0.395508 -21.9258 -0.433594 -33.2402 -0.22168 -41.9463c26.3789 -43.8281 72.168 -89.959 89.3252 -129.607c6.95117 -16.0635 5.49219 -24.7637 2.64551 -40.2051l-12 -14l-79.501 -63.5771v-212.431c1.93945 -31.0869 1.82422 -79.2412 -27.416 -108.48
c-26.0322 -26.0322 -182.507 -12.0195 -220.584 -13.0049l-2.90137 0.0126953c-103.732 -7.2998 -296.108 50.6025 -326.603 92.1719c-18.5059 25.2275 -31.4014 41.2529 -57.9951 55.3086v70.0371c25.8174 -16.2627 49.624 -17.8066 70.1904 -60.6357
c44.2188 -92.082 349.455 -105.734 451.309 -108.438l-0.499023 -0.962891c50 12 34.1514 4.48145 42.5352 13.5361c19.1768 20.7119 3.97852 41.9688 5.50781 57.9648h-0.541992v2.14941c-0.253906 0.990234 -0.500977 1.94141 -0.738281 2.84863h0.738281v207.174v3.4873
v1.33887h1.58203l104 88h1.13281c4.9834 45.8955 -62.8379 92.1289 -94.2158 139.501l-3 4l-1 1c-2.02051 3.99219 0.0439453 4.02539 -2.08398 11.5605c-0.0371094 0.130859 -0.189453 0.24707 -0.174805 0.367188l0.258789 2.07227l0.0644531 1.49902
c0.00976562 0.226562 0.150391 3.89551 0.242188 6.24414c3.11426 79.1523 5.19727 173.389 -83.8154 173.771c-136.35 16.7461 -373.536 9.53418 -431.49 -46.5137z" />
  </g>

</svg>
