<?xml version="1.0" standalone="no"?>
<!DOCTYPE svg PUBLIC "-//W3C//DTD SVG 1.1//EN" "http://www.w3.org/Graphics/SVG/1.1/DTD/svg11.dtd" >
<svg xmlns="http://www.w3.org/2000/svg" xmlns:xlink="http://www.w3.org/1999/xlink" version="1.1" viewBox="-10 0 1020 1000">
  <g transform="matrix(1 0 0 -1 0 800)">
   <path fill="currentColor"
d="M30.3242 741.553h55.5146l17.1611 52.2256l17.1602 -52.2256h55.5156l-44.8672 -32.2959l17.1611 -52.2246l-44.9697 32.2959l-44.9707 -32.2959l17.1611 52.2246zM271 608l-12 60c128.725 89.7881 355.203 55.3633 442.457 48.5605
c0 -0.0107422 0.000976562 -0.0214844 0.000976562 -0.0322266c27.4463 0.582031 75.1855 -1.32129 107.268 -33.4033c40.1396 -40.1396 38.6152 -108.841 37.5254 -169.365c-0.395508 -21.9258 -0.433594 -33.2402 -0.22168 -41.9463
c26.3789 -43.8281 72.168 -89.959 89.3252 -129.607c6.95117 -16.0635 5.49219 -24.7637 2.64551 -40.2051l-12 -14l-79.501 -63.5771v-212.431c1.93945 -31.0869 1.82422 -79.2412 -27.416 -108.48c-26.0322 -26.0322 -182.507 -12.0195 -220.584 -13.0049
l-2.90137 0.0126953c-103.732 -7.2998 -296.108 50.6025 -326.603 92.1719c-18.5059 25.2275 -31.4014 41.2529 -57.9951 55.3086v70.0371c25.8174 -16.2627 49.624 -17.8066 70.1904 -60.6357c44.2188 -92.082 349.455 -105.734 451.309 -108.438l-0.499023 -0.962891
c50 12 34.1514 4.48145 42.5352 13.5361c19.1768 20.7119 3.97852 41.9688 5.50781 57.9648h-0.541992v2.14941c-0.253906 0.990234 -0.500977 1.94141 -0.738281 2.84863h0.738281v207.174v3.4873v1.33887h1.58203l104 88h1.13281
c4.9834 45.8955 -62.8379 92.1289 -94.2158 139.501l-3 4l-1 1c-2.02051 3.99219 0.0439453 4.02539 -2.08398 11.5605c-0.0371094 0.130859 -0.189453 0.24707 -0.174805 0.367188l0.258789 2.07227l0.0644531 1.49902
c0.00976562 0.226562 0.150391 3.89551 0.242188 6.24414c3.11426 79.1523 5.19727 173.389 -83.8154 173.771c-136.35 16.7461 -373.536 9.53418 -431.49 -46.5137zM562.242 199.883zM432.714 287.024zM408.525 242.493zM502.773 184.27zM502.603 178.862zM430.592 198.97z
M472.106 185.909zM585.347 252.562zM408.525 242.493zM585.347 252.562zM588.535 255.596c1.66992 -5.05859 2.74512 -10.5332 4.15039 -15.7783l0.979492 -0.015625c-0.745117 -15.7139 -1.02539 -21.6318 -26.542 -41.7949
c-18.9873 -15.0029 -32.8877 -20.2881 -64.4854 -20.6436c-21.7344 -0.245117 -49.416 0.568359 -73.6826 20.6387c-9.56152 7.9082 -24.7402 23.2139 -24.5996 40.6006h-0.680664c0.744141 2.78711 0.744141 2.78711 0.814453 4.92676l0.498047 -0.0078125l2.13086 7.99023
h-0.935547c0.485352 0.65918 0.97168 1.31934 1.45703 1.97852v2.24609h1.65234l24.1309 32.7871h0.765625c8.34961 19.5225 40.335 28.9277 52.7578 13.8047c1.76367 -0.791992 9.76367 -3.98438 18.1875 -0.913086c4.33984 5.80762 16.5312 11.4121 30.251 8.56738
c13.2695 -2.75195 26.6553 -15.0957 32.5283 -21.1064h0.28125c0.207031 -0.304688 0.348633 -0.654297 0.609375 -0.921875l1.8457 -1.9248l17.6191 -30.1084c0.262695 0.0224609 0.470703 0.00585937 0.429688 -0.18457zM416.631 239.657
c-0.292969 -10.0195 0.81543 -21.9355 25.1504 -38.9697c20.6494 -14.4551 37.7598 -15.4932 61.25 -14.9111c27.3682 0.704102 38.7891 4.22168 55.3154 17.7266c21.9766 17.959 25.6182 23.5869 22.9756 34.1367l-3.49512 13.9521l-0.12793 -0.229492
c0.0078125 0.844727 -0.557617 1.91797 -0.549805 2.7627l-19.6104 30.9297c-0.526367 -0.0205078 -0.105469 0.458008 -0.631836 0.4375c-12.1387 8.00195 -13.4326 11.4697 -17.9668 14.1436c-6.98242 4.11719 -17.7178 3.28906 -24.5518 -1.37598
c-3.40137 -10.248 -24.5098 -11.8906 -34.2363 -2.64844c-0.90625 0.861328 -1.5752 0.381836 -1.48926 1.43848c-10.3965 7.1543 -29.8711 -0.0537109 -35.374 -13.0146l-0.666992 -1.57129l-1.1123 0.427734l-21.4463 -30.3613zM628.955 198.77
c-0.132812 -6.50977 0.374023 -7.02051 0.104492 -13.8213c3.32715 0.482422 7.33691 0.0244141 11.5469 -2.51074c9.48926 5.88672 18.2236 0.888672 20.9268 -1.92383c4.55762 -4.74316 8.29297 -15.9004 -2.24121 -26.1875
c-11.0322 -10.7725 -12.5498 -12.1846 -13.0752 -12.6484c-3.14355 -2.98047 -8.06445 -2.96973 -11.209 0.0761719l-8.77734 8.5c-0.0117188 -0.151367 -1.05176 -14.0557 0.0859375 -15.1943c0.456055 -0.456055 0.670898 -1.09082 0.714844 -1.625
c3.50293 -37.6562 37.4375 -74.1289 43.9688 -79.4346c0.015625 -0.00390625 0.731445 -0.210938 1.12402 -1.25098l2.49121 -1.39062l-12.0195 -8.0127c-1.46387 1.58887 -2.92773 3.17871 -4.3916 4.76758c-13.9844 15.1396 -29.4375 31.9795 -41.8076 69.4961
c-5.04199 -18.3418 -15.918 -36.9316 -25.875 -49.5771c-8.49805 -10.793 -7.93262 -13.751 -17.9199 -24.8477l-12.0967 9.57617c7.35645 9.53613 21.5371 28.998 21.7588 29.2881c31.7461 41.7021 31.2969 97.6748 31.0898 122.098
c3.76562 -0.0830078 7.53125 -0.166016 11.2959 -0.249023c2.38965 -0.0507812 4.37305 -1.79199 4.30566 -5.12793zM649.933 171.552c-3.54785 0 -4.58398 -4.8291 -9.25586 -4.8291c-2.56152 0 -4.1123 1.55273 -4.83398 2.27441
c-3.42188 2.75391 -3.82812 2.97266 -6.18262 1.89355c-0.0117188 -0.0117188 -0.0244141 -0.0185547 -0.0390625 -0.0185547c-0.101562 -0.290039 -0.277344 -0.895508 -0.706055 -2.36816l-0.0390625 0.349609
c0.00585938 -0.0947266 0.0175781 -0.211914 0.0390625 -0.349609c0.133789 -0.845703 0.647461 -2.45312 2.54688 -4.28516l9.22559 -8.89941l9.12988 8.78809c1.15332 1.15723 2.69922 2.9043 2.72949 4.94727c-0.0527344 0.27832 -0.447266 1.27051 -0.680664 1.77344
l0.298828 -0.157227c-0.046875 0.0351562 -0.154297 0.0908203 -0.298828 0.157227c-0.536133 0.24707 -1.5791 0.654297 -1.93359 0.723633zM533 360l-103.958 188.195l12 5.06934l93 -159.75l84.75 161.25l16.2227 -6.56934z" />
  </g>

</svg>
