<?xml version="1.0" standalone="no"?>
<!DOCTYPE svg PUBLIC "-//W3C//DTD SVG 1.1//EN" "http://www.w3.org/Graphics/SVG/1.1/DTD/svg11.dtd" >
<svg xmlns="http://www.w3.org/2000/svg" xmlns:xlink="http://www.w3.org/1999/xlink" version="1.1" viewBox="-10 0 1072 1000">
  <g transform="matrix(1 0 0 -1 0 800)">
   <path fill="currentColor"
d="M393.049 452.193l24.3965 0.400391l341.454 0.820312v-22.5449l-127.358 -0.96875l-1.52051 -79.5322l-209.797 83.167l-7.70703 4.86719c-2.12402 0 -17.3447 13.791 -19.4678 13.791zM497.668 300.467c-0.141602 4.39844 -0.402344 13.6016 -0.402344 15.4805
c0 2.42578 0.0419922 3.89648 0.0419922 4.19824c0 2 -0.556641 5.16602 -4.06543 5.24023l-17.3428 0.382812c0.0302734 -3.79297 0.0439453 -6.05176 0.0439453 -9.39062c0 -54.668 -4.75 -150.711 -61.0137 -224.619
c-0.401367 -0.527344 -28.8711 -39.4834 -39.4248 -53.1953l16.7803 -13.2832c15.9199 18.252 16.0449 24.8184 31.7148 44.7197c19.2354 24.4277 40.3652 60.7773 49.6689 95.9473l3.29785 12.4678l3.99219 -12.2637c23.7656 -73.0107 53.2002 -104.938 80.377 -134.361
l5.96777 -6.47852l14.1699 9.49121c-0.216797 0.827148 -0.501953 1.58496 -1.21289 1.91895c-11.208 8.8291 -79.5518 80.4541 -86.6553 156.55c-0.0244141 0.358398 -0.0244141 0.358398 -1.15137 1.25781c-0.773438 2.70996 -1.29492 4.61133 -1.29492 14.8877
c0 5.41113 0.712891 14.6758 1.60449 26.2617c7.86621 -7.61719 15.7324 -15.2354 23.5986 -22.8525c2.22754 -2.1582 5.06641 -3.21777 7.88867 -3.21777c1.38477 0 4.22754 0 7.85938 3.20215c0.266602 0.235352 18.7227 17.9062 25.5576 24.7402
c8.70703 8.70801 11.3584 17.2412 11.3584 24.4297c0 8.94336 -4.2627 16.252 -7.78125 19.7695c-3.54883 3.5498 -11.4814 7.47461 -19.1025 7.4873c-8.61426 -0.173828 -12.6152 -2.70117 -17.9551 -6.07422c-4.39453 2.69531 -9.70703 5.9541 -17.7842 5.9541
c-2.18555 0 -2.25293 0 -9.11719 -1.14551c0.304688 7.2334 0.381836 9.05273 0.381836 12.4951zM524.29 262.274c6.7959 0 8.76172 9.32617 17.877 9.32617h0.295898c3.55371 -0.552734 6.53711 -2.50488 6.59473 -2.54688l-2.9043 -4.48926l3.57324 3.3916
c0.694336 -1.39746 1.20801 -2.91699 1.83496 -4.7793v-0.626953c0 -6.16992 -4.25977 -10.4531 -6.59961 -12.7998c-6.88574 -6.62695 -13.7695 -13.2539 -20.6553 -19.8809c-21.0195 20.2764 -21.0195 20.2764 -21.2041 20.46
c-1.83691 1.83789 -5.60254 6.20605 -5.94141 11.4307l4.17676 0.359375l-3.96875 0.353516c1.32129 4.54688 1.32129 4.54688 2.13086 6.6416c2.75781 1.30762 3.18066 1.47852 6.4375 2.48047h0.575195c3.3291 0 5.09082 -1.29785 7.7832 -3.28027
c1.7666 -1.30078 3.2959 -2.42676 3.86133 -3.05176c1.34668 -1.33789 3.16113 -2.98828 6.13281 -2.98828zM874.672 464.586c0 9.49902 0.360352 25.4824 0.360352 28.9053l-0.318359 61.375l-8.69434 54.7793l-24.0586 41.7607l-29.835 19.125l-33.9414 8.02539
c-15.9834 0.617188 -31.9668 1.23438 -47.9502 1.85059v0.765625l-107.704 8.96191l-161.613 -4.84375l-135.512 -48.0117l4.97461 -24.8711l90.1514 34.2031l168.52 13.9912l163.858 -8.05859l72.0586 -32.085l24.6855 -76.583
c-11.2969 -92.7236 -11.5391 -94.709 -10.623 -98.1973c0.272461 -1.03711 0.408203 -1.9873 0.495117 -2.92188c0.488281 -0.641602 1.13477 -1.58496 1.48633 -2.05664l30.4463 -40.7334l38.0439 -60.0674c7.97656 -11.168 15.9531 -22.335 23.9297 -33.502
l-96.7109 -80.25l-3.2002 -219.288c0.962891 -7.5625 2.78418 -22.0117 5.01758 -45.877c-0.128906 -0.270508 -9.65137 -20.9678 -12.835 -27.0205c-1.80566 -3.43262 -3.36328 -6.39453 -8.94434 -11.126c-28.7256 -6.87109 -37.6748 -9.0127 -53.7939 -9.0127
c-3.38379 0 -6.77832 0.143555 -10.1738 0.446289l-127.95 -3.2207l-189.706 31.9736l-119.909 72.0264c-7.29102 10.5146 -14.582 21.0303 -21.873 31.5449c-0.186523 0.126953 -14.9541 10.3477 -18.583 12.6523v-31.4629
c5.41699 -3.87207 13.5068 -7.36328 24.4395 -17.251c7.32715 -6.625 2.0957 -4.45605 10.624 -11.9258c1.03027 -0.902344 1.03027 -0.902344 17.2012 -21.8066l70.2637 -41.1387l123.979 -35.7695l40.835 -3.74512c52.8262 -4.9082 59.0674 -6.7334 83.0469 -7.42773
l68.0801 -1.97266l89.7607 0.253906l51.1064 12.4922l15.1377 25.207l6.27637 34.1602l-0.268555 82.9482l0.0292969 84.2285l-0.00585938 87.5186l84.7832 67.8018l7.68652 8.9668l1.11426 7.19531c0.449219 7.6123 -1.52441 12.8027 -3.31152 18.1787l-23.3311 38.8438
l-33.0244 43.4482l-34.3174 48.9014c-0.203125 16.1299 -0.203125 16.1299 -0.203125 17.6953zM76.5977 722.267h55.5146l17.1611 52.2256l17.1602 -52.2256h55.5156l-44.8672 -32.2959l17.1611 -52.2246l-44.9697 32.2959l-44.9707 -32.2959l17.1611 52.2246zM286 356
l-96.0049 173.798l19.5371 8.25391l77.0889 -132.42l70.2793 133.717l23.3574 -9.45996z" />
  </g>

</svg>
