<?xml version="1.0" standalone="no"?>
<!DOCTYPE svg PUBLIC "-//W3C//DTD SVG 1.1//EN" "http://www.w3.org/Graphics/SVG/1.1/DTD/svg11.dtd" >
<svg xmlns="http://www.w3.org/2000/svg" xmlns:xlink="http://www.w3.org/1999/xlink" version="1.1" viewBox="-10 0 1051 1000">
  <g transform="matrix(1 0 0 -1 0 800)">
   <path fill="currentColor"
d="M828.399 483.872c0 9.49878 0.360099 25.4826 0.360099 28.905l-0.318652 61.3747l-8.69455 54.78l-24.0577 41.7601l-29.8355 19.1251l-33.9409 8.02542l-47.9505 1.85133v0.765382l-107.704 8.96128l-161.614 -4.8437l-135.511 -48.0118l4.97421 -24.8711
l90.1513 34.2037l168.519 13.9909l163.859 -8.05849l72.0585 -32.0852l24.6852 -76.5829c-11.2968 -92.7231 -11.5388 -94.7093 -10.6225 -98.1968c0.272553 -1.03738 0.408327 -1.98777 0.495372 -2.92219c0.487753 -0.641757 1.13403 -1.58506 1.4862 -2.05622
l30.4464 -40.7334l38.0432 -60.0682l23.93 -33.502l-96.7113 -80.2498l-3.19974 -219.288c0.962733 -7.56244 2.78458 -22.0112 5.01798 -45.877c-0.12894 -0.269919 -9.65147 -20.9678 -12.8349 -27.02c-1.80565 -3.43278 -3.36365 -6.39475 -8.94453 -11.1259
c-28.726 -6.87192 -37.6748 -9.01268 -53.7943 -9.01268c-3.38415 0 -6.77838 0.14333 -10.1737 0.446144l-127.95 -3.2205l-189.706 31.9736l-119.91 72.0259l-21.8729 31.5454c-0.18608 0.126152 -14.9542 10.3475 -18.5829 12.6523v-31.4635
c5.41685 -3.87145 13.5068 -7.36272 24.4398 -17.2503c7.32645 -6.62591 2.09556 -4.45645 10.6241 -11.9264c1.03002 -0.902171 1.03002 -0.902171 17.2005 -21.8062l70.2643 -41.1391l123.979 -35.7692l40.8353 -3.74581
c52.8258 -4.90757 59.0669 -6.73248 83.0467 -7.42728l68.08 -1.97257l89.7606 0.254271l51.1066 12.4914l15.1376 25.2075l6.27671 34.16l-0.268638 82.9487l0.0291888 84.2282l-0.00582149 87.5189l84.7837 67.8016l7.68593 8.96692l1.11464 7.19504
c0.44913 7.61262 -1.52476 12.8022 -3.31214 18.1783l-23.3304 38.8443l-33.0243 43.448l-34.3179 48.9016c-0.202711 16.1296 -0.202711 16.1296 -0.202711 17.6951zM33.2949 712.521h55.5146l17.1611 52.2256l17.1602 -52.2256h55.5156l-44.8672 -32.2959
l17.1611 -52.2246l-44.9697 32.2959l-44.9707 -32.2959l17.1611 52.2246zM650.625 179.471zM268.949 436.248zM197.672 305.029zM475.389 133.465zM474.889 117.529zM262.695 176.781zM385.025 138.297zM718.705 334.697zM197.672 305.029zM718.705 334.697z
M549.695 503.164c-26.9062 0 -49.6836 -10.4648 -61.2363 -22.0176c-4.39648 -4.39648 -3.27344 -4.625 -5.0918 -5.28711c-8.16797 -2.97852 -16.1719 -4.05664 -23.4766 -4.05664c-6.89648 0 -19.4277 1.01758 -32.9941 7.11328
c-9.21875 11.2227 -24.8105 21.4355 -51.0254 21.4355c-39.3555 0 -84.2344 -24.3594 -99.8418 -60.8574l-0.771484 -1.80273h-2.71484l-71.1055 -96.6133h-3.40234v-4.62109c-0.460938 -0.626953 -0.921875 -1.25195 -1.38281 -1.87891h0.744141l-7.875 -29.5312
l-0.886719 0.0136719c-0.158203 -3.02344 -0.443359 -4.76172 -1.39844 -8.51953h1.14648c-0.0273438 -3.33789 -0.0273438 -3.33789 -0.0273438 -3.67773c0 -21.5898 9.31641 -65.2832 71.4121 -116.639c65.582 -54.2441 139.748 -60.2246 201.232 -60.2246
c100.775 0 141.861 12.6289 202.164 60.2812c73.666 58.209 74.9082 75.3496 76.9355 117.895l-2.0625 0.0332031c-0.125 0.472656 -9.17383 37.3945 -12.3828 47.334l-52.6504 89.9688c-5.93359 6.19336 -5.93359 6.19336 -6.53125 7.21875h-0.390625
c-18.5117 18.9453 -57.3164 54.3984 -95.2051 62.2539c-7.25 1.50391 -14.3496 2.17969 -21.1816 2.17969zM374.844 477.143c5.66406 0 18.252 0 32.6055 -9.87695l-0.111328 -1.36914c0.828125 -0.339844 2.15625 -0.962891 3.44531 -2.1875
c12.1621 -11.5566 30.8516 -16.9824 48.5977 -16.9824c16.5293 0 32.2383 4.70703 41.082 13.5527c1.7207 1.7207 4.5 4.49805 6.64648 10.9688c9.11328 6.21875 23.5898 13.0039 43.3477 13.0039c26.2207 0 38.4785 -11.418 47.8789 -20.1719
c7.30469 -6.80273 16.9238 -15.7832 37.6133 -29.4727c0.791016 -0.171875 1.43945 -0.552734 1.95898 -1.14062l0.455078 0.0175781l59.168 -93.3262c0 -0.158203 -0.00390625 -0.318359 -0.00390625 -0.478516c4.24414 -15.8984 8.11914 -32.166 12.2051 -48.2227
c1.42773 -5.70703 2.23047 -10.9961 2.23047 -16.1172c0 -24.5703 -18.2793 -44.4766 -70.9375 -87.5078c-48.5234 -39.6484 -83.6602 -53.25 -189.557 -53.25c-57.3281 0 -103.539 7.04297 -157.508 44.8203c-66.5273 46.5703 -75.4727 80.8652 -75.4727 111.406
c0 2.01367 0.0371094 3.99805 0.09375 5.95117c3.32031 13.1758 6.92578 26.0625 10.3535 39.1289l64.8359 91.793c0.919922 -0.353516 1.83789 -0.708984 2.75781 -1.0625c2.18359 5.14453 5.90234 13.9062 15.9941 23.998
c16.2617 16.2617 40.3301 26.5254 62.3203 26.5254zM416.5 215l-84 82.5l16 16.5l67.5 -62l120 152l18 -12.5z" />
  </g>

</svg>
