<?xml version="1.0" standalone="no"?>
<!DOCTYPE svg PUBLIC "-//W3C//DTD SVG 1.1//EN" "http://www.w3.org/Graphics/SVG/1.1/DTD/svg11.dtd" >
<svg xmlns="http://www.w3.org/2000/svg" xmlns:xlink="http://www.w3.org/1999/xlink" version="1.1" viewBox="-10 0 1051 1000">
  <g transform="matrix(1 0 0 -1 0 800)">
   <path fill="currentColor"
d="M828.399 483.872c0 9.49878 0.360099 25.4826 0.360099 28.905l-0.318652 61.3747l-8.69455 54.78l-24.0577 41.7601l-29.8355 19.1251l-33.9409 8.02542l-47.9505 1.85133v0.765382l-107.704 8.96128l-161.614 -4.8437l-135.511 -48.0118l4.97421 -24.8711
l90.1513 34.2037l168.519 13.9909l163.859 -8.05849l72.0585 -32.0852l24.6852 -76.5829c-11.2968 -92.7231 -11.5388 -94.7093 -10.6225 -98.1968c0.272553 -1.03738 0.408327 -1.98777 0.495372 -2.92219c0.487753 -0.641757 1.13403 -1.58506 1.4862 -2.05622
l30.4464 -40.7334l38.0432 -60.0682l23.93 -33.502l-96.7113 -80.2498l-3.19974 -219.288c0.962733 -7.56244 2.78458 -22.0112 5.01798 -45.877c-0.12894 -0.269919 -9.65147 -20.9678 -12.8349 -27.02c-1.80565 -3.43278 -3.36365 -6.39475 -8.94453 -11.1259
c-28.726 -6.87192 -37.6748 -9.01268 -53.7943 -9.01268c-3.38415 0 -6.77838 0.14333 -10.1737 0.446144l-127.95 -3.2205l-189.706 31.9736l-119.91 72.0259l-21.8729 31.5454c-0.18608 0.126152 -14.9542 10.3475 -18.5829 12.6523v-31.4635
c5.41685 -3.87145 13.5068 -7.36272 24.4398 -17.2503c7.32645 -6.62591 2.09556 -4.45645 10.6241 -11.9264c1.03002 -0.902171 1.03002 -0.902171 17.2005 -21.8062l70.2643 -41.1391l123.979 -35.7692l40.8353 -3.74581
c52.8258 -4.90757 59.0669 -6.73248 83.0467 -7.42728l68.08 -1.97257l89.7606 0.254271l51.1066 12.4914l15.1376 25.2075l6.27671 34.16l-0.268638 82.9487l0.0291888 84.2282l-0.00582149 87.5189l84.7837 67.8016l7.68593 8.96692l1.11464 7.19504
c0.44913 7.61262 -1.52476 12.8022 -3.31214 18.1783l-23.3304 38.8443l-33.0243 43.448l-34.3179 48.9016c-0.202711 16.1296 -0.202711 16.1296 -0.202711 17.6951zM33.2949 712.521h55.5146l17.1611 52.2256l17.1602 -52.2256h55.5156l-44.8672 -32.2959
l17.1611 -52.2246l-44.9697 32.2959l-44.9707 -32.2959l17.1611 52.2246zM569.8 121.6l20.4004 8l-3.78223 -60l-13.0186 -33.5996h-20.7998l13.6006 36.7998zM424.504 134.967c7.49902 0.105469 14.9971 1.35059 22.4961 3.83301l15.2002 -57.2002l-8 -56.7998
l-12.8008 -4.7998l4.26855 58.4004zM404.6 138.4c4.12305 -1.59375 8.19824 -3.22461 14.4004 -3.2002c0.333008 -39.8242 2.53223 -72.623 0.799805 -104h-13.5996zM595 133.6l16.8193 15.9512l23.1807 -113.551h-20zM563.679 260.845v0
c19.8047 -46.248 -17.1924 -54.4297 -33.3154 -61.3047l-1.47656 0.592773c29.2695 17.3955 40.6572 24.0703 34.792 60.7119zM432.355 280.71v0c49.9541 -5.97266 38.54 -42.1045 36.4336 -59.5049l-1.25195 -0.983398
c-0.430664 34.0469 -0.516602 47.2471 -35.1816 60.4883zM425.064 149.25c-31.1035 0 -56.3438 27.4072 -56.3438 56.8223c0 14.4219 8.80078 32.1396 14.7832 38.2539c1.58594 1.65723 2.38477 3.77637 2.38477 5.89258c0 2.10938 -0.793945 4.2168 -2.39453 5.86328
c-7.82324 7.83301 -14.1738 23.1689 -14.1846 34.1465c0 0.818359 1.72461 13.9355 3.07617 16.9365c6.97266 16.0156 26.7744 29.3135 44.209 29.7314l0.12207 0.00292969l0.12207 -0.00488281c15.3223 -0.540039 35.2178 -11.9805 42.8721 -29.3652
c1.25879 -2.62305 4.33984 -4.92969 7.83496 -4.92969c2.39453 0 3.86914 0.973633 4.90137 1.65625c9.29199 6.14258 25.9043 11.1553 37.0107 11.1553c0.850586 0 2.27734 -0.0371094 2.72461 -0.0488281c0.0263672 0 0.0488281 -0.000976563 0.0664062 -0.000976563
c3.53809 0.0205078 6.76562 2.60156 7.88672 5.43555c7.98145 19.3535 31.5107 35.0791 52.3926 35.0791c-0.374023 0.172852 -0.549805 0.283203 -0.549805 0.334961c0 0.0234375 0.0361328 0.0341797 0.104492 0.0341797c1.87012 0 28.4189 -8.44727 37.4316 -17.4609
c3.40918 -3.40918 13.3545 -14.3506 15.8691 -28.2354c0.899414 -4.53027 4.83789 -6.86816 8.00488 -6.96875c29.1582 -0.783203 52.8311 -25.1016 52.8311 -54.2676c0 -0.397461 -0.485352 -22.7119 -14.7217 -36.9473
c-8.49219 -8.49219 -18.6758 -12.9453 -19.417 -13.2373c-7.77344 -3.06543 -16.9619 -4.23535 -21.2939 -4.23535h-0.0927734c-6.66406 0.149414 -12.001 3.47656 -19.5596 3.47656c-3.79688 0 -5.94824 -1.01855 -7.10742 -2.17773
c-0.139648 -0.152344 -0.739258 -0.830078 -3.08398 -3.49219c1.66895 -3.84961 4.00586 -9.24512 4.00586 -16.3291c0 -10.2676 -6.03809 -19.8643 -6.34082 -19.9111c-1.52539 -2.10938 -3.34766 -4.18066 -5.34766 -6.18066
c-5.91113 -5.91113 -13.3135 -11.21 -19.501 -13.7139c-14.79 -5.9834 -27.4443 -6.06543 -28.4639 -6.06543c-10.5312 0 -24.1641 3.99414 -24.9727 4.62988c-12.6387 5.24512 -27.8008 20.0732 -33.127 34.6934c-0.94043 2.4375 -3.56738 4.94336 -6.54395 5.5293
c-0.71875 0.0449219 -1.52734 0.0576172 -2.38867 0.0576172c-0.0771484 0 -4.38672 -0.610352 -6.79785 -3.55859c-12.373 -15.1289 -33.583 -22.6006 -46.4014 -22.6006zM520.671 134.986l-0.0380859 0.0166016zM383.425 244.242v0zM356.35 205.046
c0 -38.0986 33.4092 -70.0791 68.1543 -70.0791c26.0361 0 46.2549 16.0684 49.541 18.874l3.56348 3.04395c4.1582 -6.51758 6.86719 -10.7617 13.5869 -17.4814c7.43555 -7.43652 16.5225 -14.0146 24.8857 -17.3125c7.75 -3.02246 20.3848 -5.39746 28.7031 -5.39746
c10.6738 0 22.1719 2.47949 34.8184 7.3623c11.3799 4.3916 25.6172 15.8311 32.2168 25.4951c3.38672 4.96094 7.20215 17.4434 7.20215 26.3633c0 0.646484 0 0.646484 -0.255859 6.46875c6.84082 -1.38184 9.33691 -1.88672 12.251 -1.88672
c3.40918 0 16.4775 1.66211 25.8301 5.64746c10.1973 4.14941 23.1387 14.4727 29.3037 22.999c7.2002 10.0605 12.8965 27.7998 12.8965 40.1738c0 8.96191 -3.08984 22.2988 -7.02832 30.3447c-6.75586 13.8018 -28.6143 32.9277 -52.0693 36.6494l-2.50195 0.396484
c-1.8291 5.89844 -5.68945 18.3457 -19.0156 31.6709c-7.56738 7.56836 -24.0859 20.9668 -46.1885 20.9668c-28.5312 0 -52.9316 -20.8877 -62.2061 -38.5332l-1.06934 -2.03516c-9.00488 -0.543945 -22.6045 -2.58984 -36.1055 -9.24219l-3.20898 -1.58105
c-3.28223 4.9082 -4.97656 7.44141 -9.18555 11.6494c-11.2861 11.2871 -28.1377 19.833 -43.3438 20.3281c-0.185547 0.00292969 -0.373047 0.00488281 -0.5625 0.00488281c-18.4238 0 -46.459 -15.0303 -55.8574 -39.042
c-2.22852 -5.99219 -3.7334 -20.6445 -3.93262 -21.748c0 -11.7871 5.53516 -27.7822 13.0449 -37.9932l1.72461 -2.34473l-1.65918 -2.3916c-7.7666 -11.1943 -13.5322 -28.6797 -13.5322 -41.3701zM589.699 529.594l16.9639 43.7021
c40.292 -65.5596 39.9873 -91.4893 57.6143 -118.296h55.7227v-27.8389h-333.121v27.8389h39.5205l45.9658 122.058c13.0068 -21.1641 21.792 -38.2188 28.3174 -52.5088l44.6738 107.664c20.2178 -32.8975 33.6279 -69.9375 44.3428 -102.619z" />
  </g>

</svg>
