<?xml version="1.0" standalone="no"?>
<!DOCTYPE svg PUBLIC "-//W3C//DTD SVG 1.1//EN" "http://www.w3.org/Graphics/SVG/1.1/DTD/svg11.dtd" >
<svg xmlns="http://www.w3.org/2000/svg" xmlns:xlink="http://www.w3.org/1999/xlink" version="1.1" viewBox="-10 0 1019 1000">
  <g transform="matrix(1 0 0 -1 0 800)">
   <path fill="currentColor"
d="M657.627 9.95215c-2.98242 0 -5.55273 2.43164 -5.55273 5.55176v195.068c0 2.99316 2.44043 5.55273 5.57129 5.55273c0 0 54.7119 -0.220703 64.9482 -0.261719l37.6895 34.0986l1.7666 -13.7617l1.2998 -24.0498l137.377 2.99414
c2.97461 0.0644531 5.53125 -2.44336 5.53125 -5.55273v-53.25l33.2959 -38.7676l-25.4043 -1.62402l-9.09961 1.2998l1.20801 -102.727c0.0351562 -2.98535 -2.44824 -5.55273 -5.57129 -5.55273zM891.399 115.301l-16.8994 -2.60059l-21.2725 2.82031l35.4248 38.8506
v43.1865l-124.003 1.59277l-0.649414 -20.1504l-0.78418 -15.2754l-40.9678 34.5469l-52.5654 0.225586v-170.958l218.97 -0.94043zM728.894 651.173c2.14844 -38.1787 -15.9941 -146.932 -5.32129 -152.641c10.4775 -112.648 119.542 -217.9 119.68 -213.84
l-18.4795 -12.3203c-41.5781 45.3516 -87.9707 90.2334 -123.324 213.12c-7.87012 -54.1094 -41.668 -114.713 -72.0361 -153.28c-18.4785 -23.4658 -26.4004 -42.2393 -42.2402 -59.8398l-21.1201 16.7197c23.7607 30.7998 37.0967 50.6523 52.8008 71.2803
c80.1777 105.321 83.5322 243.604 82.9102 316.862c7.46094 -0.165039 14.9219 -0.329102 22.3828 -0.494141c4.19824 -0.0898438 4.36914 -4.16992 4.44141 -5.91309c0.00878906 -0.196289 -0.273438 -9.36328 0.306641 -19.6543zM915.612 672.922l-155.521 -175.482
l23.377 -22.2383l132.48 153.93c11.0049 -18.2471 23.709 -33.8193 28.9375 -47.9805l37.1758 53.0098zM403.754 361.817zM453.536 590.887l0.0371094 -0.0429688c-0.0126953 0.0146484 -0.0371094 0.0429688 -0.0371094 0.0429688zM312.161 411.649l0.0117188 0.0703125
c-0.00390625 -0.0234375 -0.0117188 -0.046875 -0.0117188 -0.0703125zM324.621 382.971l-0.241211 0.0742188c0.0800781 -0.0253906 0.160156 -0.0507812 0.241211 -0.0742188zM328.641 382.174l-0.0527344 0.00488281
c0.00976562 0 0.0185547 -0.00488281 0.0527344 -0.00488281zM500.772 356.372c-93.1445 0.248047 -202.544 -0.157227 -147.407 0.000976563c9.11914 0.0263672 -38.4238 3.6582 -48.1855 14.4727c-16.1875 17.9326 -13.3379 39.7051 -12.4609 44.5088
c1.78418 9.76367 4.57812 19.5693 8.64258 35.9053c17.0312 68.4473 19.0264 78.2705 26.7744 100.888c17.6562 51.332 39.042 68.6641 57.915 76.3477c11.5527 4.31152 49.0557 14.4883 80.0732 -20.1533c15.9766 -18.7588 28.9053 -44.1592 44.1113 -105.425
c5.38477 -22.3867 10.8848 -44.7305 16.5117 -67.0781c1.43359 -5.96973 2.74902 -11.9619 3.9502 -18.0156c5.9248 -29.166 -10.9971 -58.6152 -38.2109 -58.2549c-9.71387 -0.196289 8.28613 -3.19629 8.28613 -3.19629zM318.213 387.727
c0.0166016 -0.0136719 0.0341797 -0.0273438 0.0341797 -0.0410156c4.98633 -5.41895 8.29492 -5.56152 17.3613 -5.9541c0 0 150.724 0.0664062 150.79 0.0654297c3.53027 -0.0498047 7.04785 0.157227 10.5586 0.623047c7.27832 0.908203 18.1934 13.0254 14.5469 30.3135
c-1.68652 8.4873 -1.68652 8.4873 -8.84863 37.252c-17.8057 73.1299 -21.8633 89.793 -34.0146 116.417c-2.22754 4.77441 -9.37695 19.1201 -19.123 28.8662c-9.53711 9.53711 -20.3135 14.5586 -32.8027 15.4238c-15.5371 1.37305 -43.9688 -0.794922 -65.0176 -52.9707
c-8.23926 -20.7627 -13.293 -39.0186 -18.8604 -61.1973c-12.9775 -53.4287 -12.9775 -53.4287 -17.6797 -71.0615l0.0117188 0.0478516c-0.00292969 -0.015625 -0.0117188 -0.0478516 -0.0117188 -0.0478516c-3.7041 -15.2324 -6.4502 -26.5244 3.05566 -37.7363z
M140.03 416.296l-64.5605 55.8428l62.168 54.8457l15.7793 -16.6885l-31.8232 -26.7861l131.175 1.05957l1.21094 -23.042l-132.571 -0.15332l33.5635 -28.0947zM49.3545 732.521h55.5146l17.1611 52.2256l17.1602 -52.2256h55.5156l-44.8672 -32.2959l17.1611 -52.2246
l-44.9697 32.2959l-44.9707 -32.2959l17.1611 52.2246z" />
  </g>

</svg>
