<?xml version="1.0" standalone="no"?>
<!DOCTYPE svg PUBLIC "-//W3C//DTD SVG 1.1//EN" "http://www.w3.org/Graphics/SVG/1.1/DTD/svg11.dtd" >
<svg xmlns="http://www.w3.org/2000/svg" xmlns:xlink="http://www.w3.org/1999/xlink" version="1.1" viewBox="-10 0 1026 1000">
  <g transform="matrix(1 0 0 -1 0 800)">
   <path fill="currentColor"
d="M30.3242 741.553h55.5146l17.1611 52.2256l17.1602 -52.2256h55.5156l-44.8672 -32.2959l17.1611 -52.2246l-44.9697 32.2959l-44.9707 -32.2959l17.1611 52.2246zM271 608l-12 60c128.725 89.7881 355.203 55.3633 442.457 48.5605
c0 -0.0107422 0.000976562 -0.0214844 0.000976562 -0.0322266c27.4463 0.582031 75.1855 -1.32129 107.268 -33.4033c40.1396 -40.1396 38.6152 -108.841 37.5254 -169.365c-0.395508 -21.9258 -0.433594 -33.2402 -0.22168 -41.9463
c26.3789 -43.8281 72.168 -89.959 89.3252 -129.607c6.95117 -16.0635 5.49219 -24.7637 2.64551 -40.2051l-12 -14l-79.501 -63.5771v-212.431c1.93945 -31.0869 1.82422 -79.2412 -27.416 -108.48c-26.0322 -26.0322 -182.507 -12.0195 -220.584 -13.0049
l-2.90137 0.0126953c-103.732 -7.2998 -296.108 50.6025 -326.603 92.1719c-18.5059 25.2275 -31.4014 41.2529 -57.9951 55.3086v70.0371c25.8174 -16.2627 49.624 -17.8066 70.1904 -60.6357c44.2188 -92.082 349.455 -105.734 451.309 -108.438l-0.499023 -0.962891
c50 12 34.1514 4.48145 42.5352 13.5361c19.1768 20.7119 3.97852 41.9688 5.50781 57.9648h-0.541992v2.14941c-0.253906 0.990234 -0.500977 1.94141 -0.738281 2.84863h0.738281v207.174v3.4873v1.33887h1.58203l104 88h1.13281
c4.9834 45.8955 -62.8379 92.1289 -94.2158 139.501l-3 4l-1 1c-2.02051 3.99219 0.0439453 4.02539 -2.08398 11.5605c-0.0371094 0.130859 -0.189453 0.24707 -0.174805 0.367188l0.258789 2.07227l0.0644531 1.49902
c0.00976562 0.226562 0.150391 3.89551 0.242188 6.24414c3.11426 79.1523 5.19727 173.389 -83.8154 173.771c-136.35 16.7461 -373.536 9.53418 -431.49 -46.5137zM479.389 217.973zM463.933 210.246c-2.83594 2.4668 -4.29688 9.4043 -2.20508 11.5801
c-0.00683594 0.0166016 -0.551758 1.32812 -0.647461 1.63086c-1.56348 2.20996 -0.581055 2.99805 -1.34863 4.65234c-0.0908203 0.0957031 -4.91016 5.66699 -6.62012 10.7266c-0.415039 1.14355 -1.94141 4.33789 -2.3418 5.13965
c-0.84082 1.00098 -0.777344 1.64258 -1.06055 2.05371c-0.614258 0.889648 -1.02734 1.83789 -1.35547 2.56641c-0.834961 1.85059 -0.59668 0.683594 -1.13086 2.31055c-0.586914 1.79395 -1.48047 1.95215 -1.68164 3.58008
c-0.796875 0.916016 -1.14941 1.83887 -1.32422 2.29688c-1.12305 1.2959 -0.478516 1.25684 -1.47559 2.41992c-1.80957 2.11523 -0.731445 1.2334 -3.05664 4.125c-4.39844 5.4668 -3.84082 5.69141 -6.51172 8.25293c-1.0459 1.00195 -2.25391 2.125 -3.07324 3.33008
c-0.293945 0.431641 -1.56836 2.23633 -1.93262 2.62793c-0.827148 0.658203 -1.11816 1.27441 -1.54492 1.89648c-0.325195 0.473633 -0.65332 0.902344 -0.71875 0.986328c-0.322266 0.249023 -0.916016 1.04102 -3.18555 2.78711
c-1.09961 0.844727 -0.819336 1.00781 -1.79492 1.86133c-1.98145 1.73145 -2.45703 3.18652 -4.10449 4.81738c-0.629883 0.624023 -1.65723 1.68164 -1.85156 2.11914c-1.62109 1.44434 -2.64551 3.60938 -3.72559 6.61133
c-1.09082 3.04199 -1.44727 6.88867 1.47656 10.1367c3.55273 3.94629 5.30566 5.16797 6.32324 5.50586c0.911133 0.55957 3.89258 2.38672 7.17969 2.85645c1.10547 0.474609 2.3125 0.448242 3.23535 0.227539c3.78027 -0.106445 6.9043 -0.416016 14.0322 -6.00391
c9.69824 -7.60352 3.98828 -3.63281 13.6309 -12.2646c0.199219 -0.178711 0.176758 -0.132812 0.328125 -0.291016c-0.0722656 3.41797 -0.327148 5.83203 -0.745117 7.75879c-0.797852 1.46777 -0.113281 1.8291 -1.35254 11.0234
c-0.0576172 0.425781 -0.0576172 0.425781 -0.714844 9.78516c-0.739258 4.46094 -0.882812 20.6348 -0.227539 25.1133c0.0107422 0.078125 1.00293 6.16797 2.07324 7.69238c0.141602 2.71582 2.5625 4.68164 2.95801 5.53711
c1.21289 2.63281 5.69238 5.79004 10.085 6.12598c1.91992 0.860352 5.80469 0.362305 7.51953 -0.604492c1.3125 -0.228516 2.94434 -1.12988 3.90332 -1.66016c0.930664 1.79883 2.62988 3.50195 4.33496 4.86621c1.33594 1.06738 2.29688 2.03125 2.32324 2.04688
c1.67773 1.04004 8.94238 11.0996 14.1875 2.5166c0.0322266 -0.0537109 0.367188 -0.115234 0.804688 -0.228516c3.50098 -0.90332 4.08789 -1.5459 6.875 -4.68359c2.30762 -2.59766 2.69824 -3.78809 3.07227 -5.44434
c0.217773 0.269531 0.40918 0.517578 0.575195 0.763672c0.861328 1.27734 4 4.95215 7.15527 6.04004c0.212891 0.0732422 0.755859 0.311523 0.925781 0.387695c2.40723 1.46484 7.14062 1.7207 9.66016 0.65332c0.751953 -0.163086 1.75 -0.561523 2.78809 -1.30078
c3.44434 -0.833984 6.59863 -5.76758 6.76855 -6.46094c1.38574 -2.25 1.38574 -2.25 2.80078 -8.25c1.81055 1.86621 5.41211 4.03516 7.82617 4.33691c3.52051 1.67383 10.7002 -1.33789 12.6865 -2.85645c4.06543 -1.75977 4.95703 -7.80176 5.2959 -10.3828
c0.334961 -2.55176 1.07129 -19.1855 0.233398 -26.4102c-0.0166016 -0.174805 -0.791992 -8.97363 -1.12695 -17.4951c-0.405273 -19.5654 -0.0351562 -27.6191 0.819336 -34.9316c0.304688 -0.955078 0.368164 -2.46094 0.638672 -3.58203
c0.0908203 -0.375977 0.365234 -1.34961 -0.164062 -2.40039c0.046875 -0.517578 0.176758 -1.5791 0.445312 -3.15527c0.0322266 -0.192383 1.55664 -15.3545 -1.60547 -19.334c-0.351562 -2.1123 -3.18066 -4.95996 -4.60742 -7.41211
c-0.234375 -0.40332 -0.55957 -0.936523 -0.924805 -1.51367c-1.56152 -2.46973 -1.56152 -2.46973 -1.55176 -4.42285c0.00878906 -1.86816 -0.161133 -1.89746 1.26562 -4.09082c2.20801 -3.39258 2.96582 -6.79102 1.37305 -10.0029
c-1.08008 -2.18066 -3.5293 -5.05762 -5.29395 -6.33301c-0.444336 -0.321289 -3.46582 -2.4375 -5.94922 -2.4707c-2.58594 -0.972656 -4.12109 -0.864258 -6.80664 -1.43652c-5.6123 -1.19434 -13.5049 -1.30957 -16.4023 -1.80762
c-1.92188 -0.637695 -3.90625 -0.288086 -5.02051 -0.508789c-3.19043 -0.633789 -8.04199 -0.426758 -10.7773 -0.683594c-3.87305 -0.364258 -22.8486 -0.311523 -27.3008 0.260742c-1.40625 0.179688 -4.07129 0.260742 -6.05078 0.59082
c-1.25879 0.0390625 -7.32324 0.749023 -8.99121 1.88867c-0.977539 0.152344 -2.78516 0.571289 -4.57031 1.8418c-2.29004 0.713867 -2.5459 2.15332 -2.72559 2.09473zM461.746 241.774c0 -0.0107422 0.0263672 -0.0214844 0.0273438 -0.0322266zM533.526 359.028
c0 -0.0244141 0.015625 -0.0488281 0.015625 -0.0498047c-0.00390625 0.015625 -0.015625 0.03125 -0.015625 0.0498047zM499.557 372.016l0.182617 -0.0195312c-0.046875 0.00683594 -0.109375 0.00976562 -0.182617 0.0195312zM554.09 362.256l-0.46582 -2.69824
l1.55078 0.430664zM467.383 361.558c0.015625 0.0244141 0.015625 0.0419922 0.0185547 0.046875c-0.000976563 -0.00195313 -0.0078125 -0.0185547 -0.0185547 -0.046875zM469.879 281.497c0 0.0664062 -0.774414 -0.84082 -0.774414 -0.84082
c-2.77246 0.553711 -2.77246 0.553711 -3.10254 0.612305c-1.67676 -0.483398 -3.55664 -0.0742188 -4.63379 1.02734c-2.65918 0.959961 -3.13477 3.10254 -4.87598 4.63477c-0.491211 0.217773 -1.66016 0.856445 -2.20215 2.18262l0.0908203 -0.106445
c-0.0126953 0.0195312 -0.0429688 0.0556641 -0.0908203 0.106445c-1.94824 2.0957 -8.69824 7.78027 -9.38281 9.08203c-1.20215 1.02832 -3.44824 3.81348 -4.62109 5.0127c-0.734375 0.582031 -1.20898 1.18359 -1.49707 1.5752
c-0.852539 0.412109 -1.6123 1.02637 -2.55371 1.79004c-1.13086 0.917969 -2.49414 2.02539 -3.99512 2.36816c-0.580078 0.131836 -3.46094 0.209961 -4.19141 0.166016l0.181641 0.0595703s-0.0634766 -0.0185547 -0.181641 -0.0595703
c-1.3877 -0.483398 -3.56934 -1.62891 -5.54492 -3.33984c-0.514648 -0.90332 -1.52246 -0.845703 -2.15527 -3.58008c-0.0830078 -0.358398 -0.114258 -0.733398 -0.123047 -0.993164c1.52051 -2.2793 -0.0820312 -2.0625 3.93848 -6.56543
c1.62695 -1.01953 1.11035 -1.91406 2.44824 -3.03223c5.49121 -4.59375 6.62891 -5.79004 7.00781 -6.58594l-0.142578 0.175781c0.0380859 -0.0498047 0.0859375 -0.108398 0.142578 -0.175781c1.02832 -1.21289 3.21777 -3.24902 3.75488 -4.21191
c5.65137 -6.05273 6.05371 -6.96387 6.13086 -7.02441c0.3125 -0.245117 1.40723 -1.13867 1.76074 -1.875c1.00684 -0.862305 2.39258 -2.76562 2.84473 -3.11328c1.18652 -0.912109 1.04492 -1.6416 2.00098 -2.67578c2.00977 -2.1748 0.482422 -1.08398 3.18164 -5.22363
c1.21777 -1.86816 2.10156 -3.22461 2.22852 -3.90137l-0.0927734 0.141602s0.0273438 -0.046875 0.0927734 -0.141602c0.961914 -1.39941 0.983398 -1.42969 1.1377 -2.16504c0.753906 -0.979492 0.652344 -1.86523 1.0293 -2.42578
c0.0400391 -0.0595703 2.52246 -4.46387 2.52246 -6.50293c0 -0.101562 0.379883 -0.504883 0.520508 -1.11133c0.664062 -0.855469 0.94043 -2.34668 1.02832 -2.95117c0.848633 -0.924805 1.86621 -2.58594 3.5 -5.05566
c2.10059 -3.17578 4.69141 -7.24219 6.60059 -10.5049l1.27441 -0.15332l-0.30957 -1.51953l0.49707 -0.866211l-0.509766 -0.172852c1.12402 -3.89453 12.6279 -11.0547 19.4541 -12.5596c1.06836 0.666992 2.6377 0.78418 4.01465 0.421875
c2.56934 -0.674805 11.5889 0.217773 18.3965 0.279297c0.693359 0.00683594 6.55078 0.418945 8.06641 0.546875c8.49219 2.11035 17.7441 1.56934 23.3604 2.47852c3.4707 0.561523 3.88184 0.62793 6.26367 2.93555c0.30957 0.668945 0.709961 0.855469 1.2627 1.55859
c0.322266 1.45508 0.727539 0.549805 0.719727 2.33301c-0.00683594 1.56445 -0.131836 1.89551 -1.44238 3.33496c-1.35449 1.4873 -2.22266 8.78125 -2.21973 8.87109v0l-0.545898 0.349609c0.936523 0.710938 1.55176 1.66797 2.16406 2.62793l0.334961 -0.131836
c0.287109 0.746094 2.6377 4.53809 2.66602 4.58301l-0.00878906 -0.0556641c0.00390625 0.0166016 0.00878906 0.0351562 0.00878906 0.0556641c0.0595703 0.355469 0.228516 1.19727 0.998047 1.9873c0.257812 0.788086 1.91016 2.41895 3.28418 7.09277
c0.311523 1.06152 0.614258 1.7666 0.890625 2.24609l-0.0361328 -0.237305c0.0126953 0.0585938 0.0244141 0.138672 0.0361328 0.237305c0.150391 1.32617 0.183594 6.08691 0.0351562 6.73926c-1.00098 4.38965 -1.52832 11.4229 -1.54785 11.5371
c-0.115234 0.521484 -0.333008 1.54004 0.239258 2.59473c-0.861328 6.18359 -0.0908203 5.22363 -0.800781 9.51562c-0.384766 2.32324 -0.384766 2.32324 -0.610352 12.6748c0 -0.0546875 0.0224609 -0.123047 0.0224609 -0.124023
c-0.0078125 0.0371094 -0.0224609 0.078125 -0.0224609 0.124023c-0.230469 1.42871 -0.681641 7.25879 0.344727 10.6719c0.0185547 3.00488 0.433594 11.8037 0.676758 14.1533c0.426758 4.1377 0.739258 8.0957 1.08691 12.9707
c0.297852 4.19336 0.0429688 15.0293 -0.177734 15.9688c-0.598633 2.53125 -0.530273 3.8623 -0.830078 4.48438c-0.0576172 0.120117 -1.43945 2.41797 -3.16602 3.49219c0.160156 -0.0449219 0.390625 -0.0644531 0.390625 -0.0644531
c-0.136719 0.0224609 -0.266602 0.0439453 -0.390625 0.0644531c-2.56738 0.427734 -2.6709 0.375977 -3.21094 -0.0400391c-2.06836 -1.59082 -8.30078 -8.46875 -9.39453 -10.3516l-1.02148 -1.75684c-1.20898 1.95898 -2.33594 -28.3057 -4.40723 -10.7314
c-0.103516 0.875977 -0.358398 4.60742 -1.50195 4.62012c0.0644531 3.38965 -0.838867 12.0322 -1.21973 13.3701c-1.39844 4.91797 -0.503906 4.81152 -2.48926 8.92188c-0.441406 0.916016 -0.896484 1.64551 -1.1123 2.4502
c-0.34668 0.424805 -0.560547 0.892578 -0.652344 1.34375l0.0507812 -0.0898438s-0.0175781 0.03125 -0.0507812 0.0898438c-0.90918 1.60156 -2.02637 3.47461 -2.69531 4.22168c-0.953125 0.732422 -3.3291 0.0859375 -5.12695 -1.65918
c-0.124023 -0.294922 -0.400391 -0.810547 -1.06055 -1.30566l0.170898 0.233398s-0.0625 -0.0839844 -0.170898 -0.233398c-0.539062 -0.738281 -2.2207 -3.08203 -3.13184 -4.80273c-0.217773 -1.24707 -0.891602 -1.61328 -1.1709 -2.93555
c-0.484375 -2.2832 -1.04297 -1.71289 -1.24023 -3.31738c-0.0683594 -0.552734 0.614258 -2.29004 -0.331055 -2.23438c-1.20508 0.0712891 1.12402 -18.3389 -2.04199 -19.0576c-0.920898 -0.208984 0.836914 0.363281 0 0
c-1.71484 -0.745117 -2.63086 12.7559 -5.12988 12.6172c0.0507812 0.166992 -0.171875 0.124023 -0.30957 0.147461c0.154297 1.17285 0.154297 1.17285 0.0283203 3.04102l-0.53418 0.0556641c-0.431641 2.41211 -0.694336 5.3291 -0.705078 5.38281l-0.849609 -0.03125
l0.335938 2.16016c-1.29004 4.42969 -2.48145 5.5166 -3.625 8.39551c-1.58984 4.00391 -2.31543 4.09375 -2.75293 5.62012c-0.702148 0.592773 -0.820312 0.692383 -3.89746 0.81543l0.129883 0.0527344s-0.0351562 -0.0136719 -0.129883 -0.0527344
c-2.87012 -1.19531 -4.03516 -1.67969 -5.79199 -5.9248c-2.24316 -5.4209 -2.6709 -12.9668 -4.15918 -17.1484l-1.1377 -3.19531l-4.00391 -7.50781c-0.441406 4.35547 -2.17773 17.0332 -2.68945 18.3867c-0.0927734 0.243164 -0.0927734 0.243164 -0.799805 2.40918
c-0.015625 0.0244141 -1.23047 2.08496 -1.53418 2.4834c-2.40918 1.31836 -2.40918 1.31836 -3.05078 1.77832c-0.265625 0.191406 -0.30957 0.417969 -2.18262 0.524414c-0.543945 -0.183594 -1.03809 -0.258789 -1.35254 -0.301758
c-0.670898 -0.37207 -1.3584 -0.817383 -1.80176 -1.26562c0.015625 0.0244141 0.0380859 0.0654297 0.0380859 0.0664062c-0.0126953 -0.0224609 -0.0253906 -0.0439453 -0.0380859 -0.0664062c-0.177734 -0.311523 -0.376953 -0.631836 -0.59668 -0.93457
c-1.18555 -3.03809 -1.18555 -3.03809 -1.75879 -3.94922c-0.669922 -1.0625 -0.800781 -1.53027 -1.60742 -4.56934l0.00976563 0.129883c-0.00292969 -0.0419922 -0.00976563 -0.0859375 -0.00976563 -0.129883c-0.275391 -3.73633 0.0380859 -13.6592 -0.353516 -16.6152
c0.589844 -1.39551 -0.015625 -3.62598 -0.00390625 -4.46387c0.342773 -1.25391 0.666992 -4.7998 0.933594 -7.32422c0.0078125 -0.0830078 0.59668 -2.71289 0.911133 -8.24316c0.178711 -3.12988 1.76465 -20.167 1.80371 -20.3691
c0.941406 -1.39844 0.466797 -2.83887 -0.015625 -3.77539c0.0449219 -0.15918 0.1875 -0.858398 0.62793 -3.34961c1.63965 -0.610352 2.45898 -5.79492 1.95898 -7.40137zM424.164 294.629c0.0986328 -0.110352 0.169922 -0.1875 0.208008 -0.226562zM456.492 286.931
c-0.0322266 0.0273438 -0.0615234 0.0527344 -0.0888672 0.0732422zM467.276 292.218v-0.000976563c0 -0.000976563 0 0.000976563 0 0.000976563zM743.518 303.675l-37.5723 32.7646l-8.125 -9.23438l21.1719 -17.7539l-107.561 -0.125l0.666016 -12.6553l106.8 0.863281
l-21.8975 -19.5342l8.61914 -9.11719zM550.161 456.847l-90.2246 163.334l10.4141 4.40039l80.7148 -138.646l73.5537 139.948l14.0801 -5.70215z" />
  </g>

</svg>
