<?xml version="1.0" standalone="no"?>
<!DOCTYPE svg PUBLIC "-//W3C//DTD SVG 1.1//EN" "http://www.w3.org/Graphics/SVG/1.1/DTD/svg11.dtd" >
<svg xmlns="http://www.w3.org/2000/svg" xmlns:xlink="http://www.w3.org/1999/xlink" version="1.1" viewBox="-10 0 1051 1000">
  <g transform="matrix(1 0 0 -1 0 800)">
   <path fill="currentColor"
d="M828.399 483.872c0 9.49878 0.360099 25.4826 0.360099 28.905l-0.318652 61.3747l-8.69455 54.78l-24.0577 41.7601l-29.8355 19.1251l-33.9409 8.02542l-47.9505 1.85133v0.765382l-107.704 8.96128l-161.614 -4.8437l-135.511 -48.0118l4.97421 -24.8711
l90.1513 34.2037l168.519 13.9909l163.859 -8.05849l72.0585 -32.0852l24.6852 -76.5829c-11.2968 -92.7231 -11.5388 -94.7093 -10.6225 -98.1968c0.272553 -1.03738 0.408327 -1.98777 0.495372 -2.92219c0.487753 -0.641757 1.13403 -1.58506 1.4862 -2.05622
l30.4464 -40.7334l38.0432 -60.0682l23.93 -33.502l-96.7113 -80.2498l-3.19974 -219.288c0.962733 -7.56244 2.78458 -22.0112 5.01798 -45.877c-0.12894 -0.269919 -9.65147 -20.9678 -12.8349 -27.02c-1.80565 -3.43278 -3.36365 -6.39475 -8.94453 -11.1259
c-28.726 -6.87192 -37.6748 -9.01268 -53.7943 -9.01268c-3.38415 0 -6.77838 0.14333 -10.1737 0.446144l-127.95 -3.2205l-189.706 31.9736l-119.91 72.0259l-21.8729 31.5454c-0.18608 0.126152 -14.9542 10.3475 -18.5829 12.6523v-31.4635
c5.41685 -3.87145 13.5068 -7.36272 24.4398 -17.2503c7.32645 -6.62591 2.09556 -4.45645 10.6241 -11.9264c1.03002 -0.902171 1.03002 -0.902171 17.2005 -21.8062l70.2643 -41.1391l123.979 -35.7692l40.8353 -3.74581
c52.8258 -4.90757 59.0669 -6.73248 83.0467 -7.42728l68.08 -1.97257l89.7606 0.254271l51.1066 12.4914l15.1376 25.2075l6.27671 34.16l-0.268638 82.9487l0.0291888 84.2282l-0.00582149 87.5189l84.7837 67.8016l7.68593 8.96692l1.11464 7.19504
c0.44913 7.61262 -1.52476 12.8022 -3.31214 18.1783l-23.3304 38.8443l-33.0243 43.448l-34.3179 48.9016c-0.202711 16.1296 -0.202711 16.1296 -0.202711 17.6951zM33.2949 712.521h55.5146l17.1611 52.2256l17.1602 -52.2256h55.5156l-44.8672 -32.2959
l17.1611 -52.2246l-44.9697 32.2959l-44.9707 -32.2959l17.1611 52.2246zM607.288 262.772c0.821289 -14.582 -5.03223 -52.9062 -3.39941 -62.1846c0.500977 -0.569336 1.0166 -1.4502 1.12305 -2.59082c3.40039 -36.5664 33.3291 -72.6025 44.9072 -84.1787
c2.34277 -2.34375 2.34277 -2.34375 9.1377 -7.59961c-0.797852 -0.522461 -0.797852 -0.522461 -12.9951 -8.6543c-1.85059 -1.23535 -4.35449 -0.947266 -5.87305 0.708008c-19.5508 21.2676 -34.9043 37.9707 -48.4961 76.7627
c-6.13965 -19.1191 -17.3438 -37.8926 -27.6924 -51.0352c-7.23242 -9.18457 -12.9219 -20.4551 -18.332 -25.8662c-1.64941 -1.64844 -4.25391 -1.76465 -6.03809 -0.352539c-9.19336 7.27734 -9.19336 7.27734 -9.38184 7.4668
c-1.63574 1.63477 -1.76367 4.20996 -0.388672 5.99316c5.16504 6.69629 22.2178 30.002 22.4453 30.3027c33.0098 43.3604 34.6143 100.989 34.3496 132.02c-0.0214844 2.56738 2.08203 4.64453 4.65039 4.58594c12.1562 -0.269531 12.1562 -0.269531 13.9121 -2.02637
c1.31836 -1.31738 1.98926 -3.27344 1.94531 -5.50391c-0.015625 -0.751953 -0.0820312 -4.1543 0.125977 -7.84668zM410.612 262.952c0.820312 -14.582 -5.0332 -52.9053 -3.40039 -62.1836c0.500977 -0.570312 1.01758 -1.45117 1.12402 -2.59082
c3.40039 -36.5674 33.3291 -72.6025 44.9062 -84.1797c2.34375 -2.34375 2.34375 -2.34375 9.1377 -7.59961c-0.797852 -0.521484 -0.797852 -0.521484 -12.9951 -8.6543c-1.85059 -1.23535 -4.35449 -0.947266 -5.87207 0.708984
c-19.5518 21.2676 -34.9053 37.9697 -48.4961 76.7617c-6.14062 -19.1182 -17.3447 -37.8926 -27.6934 -51.0352c-7.23145 -9.18359 -12.9219 -20.4541 -18.332 -25.8652c-1.64844 -1.64941 -4.25293 -1.76465 -6.03809 -0.352539
c-9.19336 7.27734 -9.19336 7.27734 -9.38184 7.46582c-1.63574 1.63574 -1.7627 4.20996 -0.388672 5.99316c5.16602 6.69727 22.2178 30.0029 22.4463 30.3027c33.0088 43.3604 34.6133 100.99 34.3496 132.02c-0.0224609 2.56738 2.08203 4.64453 4.65039 4.58691
c12.1553 -0.270508 12.1553 -0.270508 13.9121 -2.02637c1.31738 -1.31836 1.98926 -3.27344 1.94434 -5.50488c-0.0146484 -0.750977 -0.0820312 -4.1543 0.126953 -7.84668zM481 441l-80.6406 79.2002l15.3604 15.8408l64.7998 -59.5205l115.2 145.921l17.2803 -12z" />
  </g>

</svg>
