<?xml version="1.0" standalone="no"?>
<!DOCTYPE svg PUBLIC "-//W3C//DTD SVG 1.1//EN" "http://www.w3.org/Graphics/SVG/1.1/DTD/svg11.dtd" >
<svg xmlns="http://www.w3.org/2000/svg" xmlns:xlink="http://www.w3.org/1999/xlink" version="1.1" viewBox="-10 0 1051 1000">
  <g transform="matrix(1 0 0 -1 0 800)">
   <path fill="currentColor"
d="M828.399 483.872c0 9.49878 0.360099 25.4826 0.360099 28.905l-0.318652 61.3747l-8.69455 54.78l-24.0577 41.7601l-29.8355 19.1251l-33.9409 8.02542l-47.9505 1.85133v0.765382l-107.704 8.96128l-161.614 -4.8437l-135.511 -48.0118l4.97421 -24.8711
l90.1513 34.2037l168.519 13.9909l163.859 -8.05849l72.0585 -32.0852l24.6852 -76.5829c-11.2968 -92.7231 -11.5388 -94.7093 -10.6225 -98.1968c0.272553 -1.03738 0.408327 -1.98777 0.495372 -2.92219c0.487753 -0.641757 1.13403 -1.58506 1.4862 -2.05622
l30.4464 -40.7334l38.0432 -60.0682l23.93 -33.502l-96.7113 -80.2498l-3.19974 -219.288c0.962733 -7.56244 2.78458 -22.0112 5.01798 -45.877c-0.12894 -0.269919 -9.65147 -20.9678 -12.8349 -27.02c-1.80565 -3.43278 -3.36365 -6.39475 -8.94453 -11.1259
c-28.726 -6.87192 -37.6748 -9.01268 -53.7943 -9.01268c-3.38415 0 -6.77838 0.14333 -10.1737 0.446144l-127.95 -3.2205l-189.706 31.9736l-119.91 72.0259l-21.8729 31.5454c-0.18608 0.126152 -14.9542 10.3475 -18.5829 12.6523v-31.4635
c5.41685 -3.87145 13.5068 -7.36272 24.4398 -17.2503c7.32645 -6.62591 2.09556 -4.45645 10.6241 -11.9264c1.03002 -0.902171 1.03002 -0.902171 17.2005 -21.8062l70.2643 -41.1391l123.979 -35.7692l40.8353 -3.74581
c52.8258 -4.90757 59.0669 -6.73248 83.0467 -7.42728l68.08 -1.97257l89.7606 0.254271l51.1066 12.4914l15.1376 25.2075l6.27671 34.16l-0.268638 82.9487l0.0291888 84.2282l-0.00582149 87.5189l84.7837 67.8016l7.68593 8.96692l1.11464 7.19504
c0.44913 7.61262 -1.52476 12.8022 -3.31214 18.1783l-23.3304 38.8443l-33.0243 43.448l-34.3179 48.9016c-0.202711 16.1296 -0.202711 16.1296 -0.202711 17.6951zM33.2949 712.521h55.5146l17.1611 52.2256l17.1602 -52.2256h55.5156l-44.8672 -32.2959
l17.1611 -52.2246l-44.9697 32.2959l-44.9707 -32.2959l17.1611 52.2246zM499.857 581.961c1.05957 -18.8096 -7.87891 -72.3848 -2.62109 -75.1973c5.16211 -55.4941 58.8906 -107.346 58.96 -105.345l-9.10449 -6.07031
c-20.4834 22.3418 -43.3379 44.4521 -60.7539 104.991c-3.87695 -26.6562 -20.5273 -56.5127 -35.4883 -75.5117c-9.10352 -11.5615 -13.0049 -20.8086 -20.8086 -29.4795l-10.4053 8.2373c11.7061 15.1729 18.2754 24.9531 26.0127 35.1152
c39.498 51.8848 41.1504 120.009 40.8447 156.097c3.67578 -0.0800781 7.35059 -0.161133 11.0264 -0.242188c2.06738 -0.0449219 2.15137 -2.05566 2.18848 -2.91211c0.00292969 -0.0976562 -0.134766 -4.61426 0.149414 -9.68262zM516.536 143.936v-0.422852
l-0.422852 0.422852h0.422852zM523.579 143.936h0.422852l-0.422852 -0.422852v0.422852zM472.521 145.92v-0.422852l-0.422852 0.422852h0.422852zM479.564 145.92h0.422852l-0.422852 -0.422852v0.422852zM441.385 182.794h-0.423828l0.423828 0.422852v-0.422852z
M441.385 182.794v-9.68848h31.1367v-27.1855h7.04297v27.1855h36.9717v-29.1699h7.04297v29.1699h33.2852v9.68848h-33.2852v36.0449h33.2852v9.68848h-33.2852v25.1934h-7.04297v-25.1934h-36.9717v27.1768h-7.04297v-27.1768h-31.1367v-9.68848h31.1367v-36.0449h-31.1367
zM556.864 182.794v0.422852l0.422852 -0.422852h-0.422852zM441.385 173.105v-0.422852l-0.423828 0.422852h0.423828zM556.864 173.105h0.422852l-0.422852 -0.422852v0.422852zM441.385 228.527h-0.423828l0.423828 0.422852v-0.422852zM556.864 228.527v0.422852
l0.422852 -0.422852h-0.422852zM441.385 218.839v-0.422852l-0.423828 0.422852h0.423828zM556.864 218.839h0.422852l-0.422852 -0.422852v0.422852zM516.536 218.839v-36.0449h-36.9717v36.0449h36.9717zM523.579 253.721v0.423828l0.422852 -0.423828h-0.422852z
M516.536 253.721h-0.422852l0.422852 0.423828v-0.423828zM479.564 255.704v0.423828l0.422852 -0.423828h-0.422852zM472.521 255.704h-0.422852l0.422852 0.423828v-0.423828zM494 66.0889l-4.26172 4.72266c-81.1016 90.0869 -157.018 45.5039 -160.475 43.5459
l-8.75488 -5.64551v215.539l2.53418 1.72852c0.806641 0 83.6357 56.1025 173.376 -39.0527c89.7412 95.3857 167.962 39.5127 168.768 38.9375l2.30469 -1.72754v-216.576l-9.33105 7.25684c-2.88086 2.18945 -72 53.7998 -159.898 -44.0059zM380.873 138.203
c31.2197 0 71.8857 -11.5195 113.127 -54.9502c47.9238 50.9189 91.123 59.9043 119.117 58.292c12.5488 -0.607422 31.7988 -5.76855 42.9688 -11.5205v188.121c-13.2471 8.29395 -78.335 41.9326 -155.29 -43.5459l-4.26172 -4.72266l-4.2627 4.72266
c-76.377 84.6729 -146.419 51.3799 -160.242 43.4316v-189.504c12.9375 5.34082 34.7988 9.67578 48.7969 9.67578h0.046875z" />
  </g>

</svg>
