<?xml version="1.0" standalone="no"?>
<!DOCTYPE svg PUBLIC "-//W3C//DTD SVG 1.1//EN" "http://www.w3.org/Graphics/SVG/1.1/DTD/svg11.dtd" >
<svg xmlns="http://www.w3.org/2000/svg" xmlns:xlink="http://www.w3.org/1999/xlink" version="1.1" viewBox="-10 0 1008 1000">
  <g transform="matrix(1 0 0 -1 0 800)">
   <path fill="currentColor"
d="M348.481 97.6934l-82.2217 148.848l24.0225 10.1475l58.4395 -100.383l53.3027 101.418l27.2285 -11.0254zM265.568 -67.707v34.6641h38.626v22.0713h-38.626v34.6641h38.626v33.7148h31.3828v-33.7148h23.2197v31.2539h31.3828v-31.2539h41.292v-34.6641h-41.292
v-22.0713h41.292v-34.6641h-41.292v-36.1855h-31.3828v36.1855h-23.2197v-33.7246h-31.3828v33.7246h-38.626zM335.577 -33.043h23.2197v22.0713h-23.2197v-22.0713zM780.659 223.904c-0.529297 0 -0.985352 0.173828 -1.32227 0.358398l-214.094 -88.2627v-37.8242
c12.126 5.10742 24.251 10.2148 36.376 15.3213v-3.77051l-0.21875 -161.659h318.305l0.646484 155.446c10.9619 -6.48535 21.9238 -12.9697 32.8867 -19.4551l-0.677734 40.7051l-136.33 79.1182l1.46387 0.616211c-22.6963 11.7715 -24.457 12.7314 -36.2109 19.5508
c-0.288086 -0.102539 -0.56543 -0.144531 -0.824219 -0.144531zM884.594 -16.7148h-248.003l-0.665039 144.662l142.009 59.8174l107.859 -63.8086zM63.3545 -23.4795h55.5146l17.1611 52.2256l17.1602 -52.2256h55.5156l-44.8672 -32.2959l17.1611 -52.2246
l-44.9697 32.2959l-44.9707 -32.2959l17.1611 52.2246zM753.575 717.519c1.65527 -29.3887 -12.3115 -113.101 -4.0957 -117.494c8.06543 -86.7109 92.0166 -167.729 92.124 -164.602l-14.2266 -9.48438c-32.0039 34.9082 -67.7148 69.4561 -94.9268 164.048
c-6.05762 -41.6504 -32.0742 -88.2998 -55.4502 -117.986c-14.2236 -18.0635 -20.3213 -32.5137 -32.5137 -46.0615l-16.2578 12.8701c18.2891 23.708 28.5557 38.9893 40.6436 54.8672c61.7168 81.0713 64.2979 187.513 63.8203 243.903
c5.74316 -0.126953 11.4854 -0.25293 17.2285 -0.379883c3.23145 -0.0703125 3.3623 -3.21094 3.41895 -4.55078c0.00683594 -0.152344 -0.209961 -7.20898 0.235352 -15.1299zM275.02 580.811c-0.0644531 0.0576172 -0.126953 0.108398 -0.183594 0.152344z
M207.845 596.808c0.206055 -0.230469 0.352539 -0.389648 0.432617 -0.472656zM476.753 472.32c-1.27246 -1.99512 0.182617 0.489258 -1.76465 -0.987305l1.13477 -0.726562c0.0693359 -0.0449219 -2.54102 -10.2305 -0.755859 -18.7207
c0.832031 -3.95801 2.9834 -3.67871 2.99707 -6.92871c0.015625 -3.70703 -0.825195 -1.82422 -1.49512 -4.84961c-6.12598 -7.79785 -8.50781 -8.18359 -15.6406 -9.33789c-11.6699 -1.88867 -30.8936 -0.764648 -48.54 -5.15039
c-5.18945 -0.435547 -49.3311 -3.20215 -54.9873 -1.71582c-2.86035 0.751953 -6.12207 0.509766 -8.34277 -0.876953c-14.1846 3.12793 -38.0879 18.0049 -40.4248 26.0977l0.0283203 2.15918l-0.761719 1.91699l-1.24316 1.56055
c-10.5449 18.0137 -20.7275 32.0488 -20.9883 32.334c-0.775391 5.29688 -3.21973 7.84668 -3.21973 8.43945c0 7.29004 -20.9062 44.3154 -25.1426 47.5742c-0.265625 0.204102 -17.4639 19.7695 -22.3096 24.96c-0.154297 0.277344 -6.26367 8.96875 -22.3652 22.4365
c-2.7793 2.32617 -1.70703 4.18262 -5.08691 6.30273c-8.35449 9.35645 -5.02344 8.90625 -8.18457 13.6416c0.375 11.0127 16.4092 16.501 16.6348 16.5674c1.94922 0.0537109 7.21094 -0.212891 8.33203 -0.469727c5.19727 -1.18652 9.24609 -6.5293 13.6074 -8.64062
c5.86914 -7.97168 32.1465 -32.3955 32.3994 -32.7812c1.16309 -2.60547 3.39355 -3.87402 4.38574 -4.31445c3.61719 -3.18359 4.60645 -7.63574 10.1328 -9.62891c2.23828 -2.29004 6.14355 -3.13965 9.62891 -2.1377
c0.685547 -0.119141 0.685547 -0.119141 6.44629 -1.27051l1.60938 1.74707c1.04004 3.33691 -0.664062 14.1113 -4.06934 15.3799c-0.916016 5.17676 -1.21387 6.62891 -1.30566 6.95898c1.00293 1.94727 1.9873 4.94043 0.0332031 7.8457
c-0.145508 0.736328 -5.71387 67.8242 -7.58105 74.6729c-0.0263672 1.74219 1.23242 6.375 0.00585938 9.27637c0.813477 6.1416 0.164062 26.7617 0.735352 34.5234c0 3.45898 3.48926 8.71582 6.99414 17.7021c2.48242 3.4082 2.48242 3.4082 7.7959 5.19727
c3.89062 -0.21875 3.98242 -0.691406 4.53516 -1.08789c1.33301 -0.957031 1.33301 -0.957031 6.33789 -3.69531c0.631836 -0.828125 3.15625 -5.11035 3.18848 -5.16113c3.4502 -10.5635 5.83984 -29.3037 7.25 -43.2119l8.32031 15.5996l2.36426 6.6416
c3.0918 8.68848 3.98047 24.3672 8.64258 35.6318c3.11133 7.51855 5.17773 9.69727 12.3057 12.4219c6.12988 -0.25 6.38965 -0.59082 7.82812 -1.80469c0.0878906 -0.306641 10.8027 -20.707 13.2539 -29.123l-0.700195 -4.4873l1.76758 0.0634766
c0.0205078 -0.111328 0.567383 -6.17285 1.46387 -11.1855l1.10938 -0.116211c0.261719 -3.88184 0.261719 -3.88184 -0.0576172 -6.31836c0.285156 -0.046875 0.748047 0.0410156 0.643555 -0.307617c5.19141 0.290039 7.09473 -27.7656 10.6592 -26.2158
c6.90527 3.00098 1.52637 39.7607 4.24219 39.6006c1.96582 -0.116211 0.546875 3.49316 0.6875 4.64258c0.410156 3.33398 1.57031 2.14844 2.57617 6.89258c1.41699 6.70605 11.0625 18.5908 11.1465 18.792c3.73535 3.62793 8.67188 4.97168 10.6533 3.44824
c11.1201 -12.4258 17.3584 -42.7402 16.9736 -62.9766c2.37695 -0.0263672 2.90625 -7.7793 3.12012 -9.59961c4.30566 -36.5166 6.64551 26.3682 9.16016 22.2979l2.12109 3.65039c2.27246 3.91309 15.2236 18.2051 19.5215 21.5107
c1.13379 0.873047 1.36816 0.966797 6.6709 0.0849609c3.58887 -2.23242 6.45996 -7.00879 6.58008 -7.25781c5.91895 -12.2725 -1.49609 -86.4082 -1.57031 -98.8623c-2.13281 -7.09082 -1.19727 -19.2061 -0.71582 -22.1748c0 -15.9922 2.60645 -43.7803 2.93164 -46.1104
c-2.90039 -5.34668 4.46289 -27.3232 2.64551 -43.3682c-0.469727 -4.13965 -14.3486 -36.9707 -14.3486 -36.9707zM297.649 735.88c0.0332031 0.0498047 0.0341797 0.0878906 0.0390625 0.0966797c-0.00195312 -0.00292969 -0.015625 -0.0371094 -0.0390625 -0.0966797z
M477.82 737.33l-0.966797 -5.60547l3.2207 0.895508zM364.504 757.611l0.379883 -0.0419922c-0.0976562 0.0146484 -0.225586 0.0214844 -0.379883 0.0419922zM435.092 730.624c0 -0.0507812 0.0322266 -0.102539 0.0332031 -0.104492
c-0.00976562 0.0322266 -0.0332031 0.0673828 -0.0332031 0.104492zM285.938 486.979c0 -0.0224609 0.0537109 -0.0449219 0.0566406 -0.0673828zM322.598 437.521zM444.641 749.205l0.0673828 -0.131836c-0.0146484 0.03125 -0.0371094 0.0761719 -0.0673828 0.131836z
M342.55 762.772l0.046875 0.0371094c-0.0146484 -0.0107422 -0.0302734 -0.0234375 -0.046875 -0.0371094zM273.389 601.989l0.0546875 -0.0566406c-0.0195312 0.0195312 -0.0546875 0.0566406 -0.0546875 0.0566406zM217.676 639.147l0.157227 -0.0341797
c-0.0322266 0.00488281 -0.157227 0.0341797 -0.157227 0.0341797zM207.917 577.018c0 0 -0.0322266 0.0244141 -0.0322266 0.0253906c0.00878906 -0.00683594 0.0175781 -0.0253906 0.0322266 -0.0253906zM207.419 577.493
c0.936523 -0.936523 3.19824 -2.41016 6.44141 -5.65332c6.66699 -6.66699 8.03711 -11.5244 16.1621 -19.3135c5.93359 -5.68945 4.9375 -6.40039 13.9736 -17.6299c18.3916 -22.8701 27.9404 -58.5918 41.9521 -73.4756
c3.32227 -7.16309 -0.551758 -5.03418 3.13281 -10.2461c0.0878906 -0.275391 0.0878906 -0.275391 2.63867 -6.80273l-2.21484 -2.30566c-0.0322266 -0.0332031 -0.956055 -2.14941 -0.515625 -5.72266c0.520508 -4.22852 2.59668 -8.9502 4.49512 -10.8477
c2.80371 -1.99805 0.274414 -2.40137 4.91211 -3.84668c25.0928 -17.8643 157.707 -6.47949 175.336 0.147461c7.37598 0.100586 16.2676 8.34277 19.8301 15.5303c4.94336 9.96875 -3.32617 17.5791 -0.289062 32.8281c-1.47266 2.85742 -0.261719 5.05469 4.03027 12.8486
c3.16211 5.74219 4.85645 8.81738 5.25684 11.2236c5.12207 6.44727 4.71387 15.4746 2.02344 45.6104c0.858398 1.7041 0.858398 1.7041 0.586914 2.8291c-3.5127 14.5879 -3.92676 38.9141 -3.48438 61.9766c0.189453 9.91602 1.56836 46.4824 2.69043 56.1641
c1.625 14.0225 0.113281 49.1523 -0.475586 53.6436c-0.792969 6.04297 -2.84473 15.3955 -8.03809 17.6436c-0.133789 0.0478516 -5.58887 3.80762 -12.959 5.6709c-1.66211 0.420898 -6.50781 1.64551 -9.98828 -0.00976562
c-5.92773 -0.741211 -12.7305 -6.22168 -14.0986 -7.63184l-6.36035 -6.55273l-2.09375 8.88086c-3.03125 12.8574 -2.45898 11.2041 -5.21289 15.6758c-1.62305 2.8877 -2.63086 4.68066 -5.39258 7.44238c-4.24219 4.24316 -4.99805 2.87988 -7.30957 4.52637
c-5.90039 4.20117 -16.0986 3.75 -20.6377 0.988281c-6.2373 -2.7998 -7.30566 -3.2793 -9.50586 -5.47949c-1.62305 -1.62305 -1.97852 -2.06348 -13.4199 -16.1992l-2.26953 10.0625c-0.679688 3.0127 -0.730469 4.0166 -5.24805 9.10254
c-5.83594 6.56934 -6.07227 6.83594 -12.4443 8.36816c-1.29492 0.311523 -2.91504 0.701172 -4.04492 2.55469c-4.53418 7.41992 -9.0625 6.03809 -18.9023 -3.65527c-4.97656 -4.90234 -5.00977 -3.88867 -10.749 -9.62793
c-3.81738 -3.81738 -4.16504 -4.48828 -7.31152 -10.5732l-4.49902 2.48633c-17.1445 9.47266 -28.5439 3.82129 -35.8008 -3.43555c-4.2832 -4.28418 -7.13574 -9.74902 -7.62598 -11.9785c0.109375 -1.27734 -0.357422 -1.98047 -0.897461 -2.6084
c-7.79492 -11.0996 -3.2959 -73.5732 0.777344 -104.348c0 0 -0.172852 -1.96094 0.320312 -2.42578c1.43555 -6.61621 1.59277 -7.33887 2.08594 -30.6377l-8.85156 9.26172c-0.90918 0.902344 -17.2695 16.832 -28.5059 25.6426
c-6.37305 4.99609 -10.9648 7.73047 -14.5391 9.24219c-6.60352 2.79297 -10.6875 1.83008 -12.5781 2.28125c-0.495117 0.0722656 -13.5693 1.97363 -30.0225 -16.3018c-9.59668 -10.6582 3.97559 -27.4521 4.27832 -27.7217
c0.342773 -0.362305 0.833008 -0.576172 0.989258 -1.125v0.000976563v-0.000976563c2.00488 -2.44238 11.333 -13.4365 14.373 -16.4766zM293.76 425.239l-4.84375 0.974609c1.0166 0.333984 2.98438 0.644531 4.84375 -0.974609zM193.046 593.971
c-0.279297 0.416016 -0.0273438 0.0322266 -0.0273438 0.0322266c0.00878906 -0.0107422 0.0263672 -0.0322266 0.0273438 -0.0322266zM493.273 470.155c0.251953 1.2627 0.251953 1.2627 1.08203 4.13574l1.33398 -4.49121l6.7627 -0.216797
c-4.4707 -4.27051 -8.11035 -1.50098 -9.17871 0.572266zM288.546 445.209zM463.184 413.507zM361.4 557.601c0 -7.60059 8 -13.6006 17.5996 -13.6006s17.5996 6 17.5996 13.6006c0 7.59961 -8 13.5996 -17.5996 13.5996s-17.5996 -6 -17.5996 -13.5996z" />
  </g>

</svg>
