<?xml version="1.0" standalone="no"?>
<!DOCTYPE svg PUBLIC "-//W3C//DTD SVG 1.1//EN" "http://www.w3.org/Graphics/SVG/1.1/DTD/svg11.dtd" >
<svg xmlns="http://www.w3.org/2000/svg" xmlns:xlink="http://www.w3.org/1999/xlink" version="1.1" viewBox="-10 0 1051 1000">
  <g transform="matrix(1 0 0 -1 0 800)">
   <path fill="currentColor"
d="M30.3242 741.553h55.5146l17.1611 52.2256l17.1602 -52.2256h55.5156l-44.8672 -32.2959l17.1611 -52.2246l-44.9697 32.2959l-44.9707 -32.2959l17.1611 52.2246zM271 608l-12 60c128.725 89.7881 355.203 55.3633 442.457 48.5605
c0 -0.0107422 0.000976562 -0.0214844 0.000976562 -0.0322266c27.4463 0.582031 75.1855 -1.32129 107.268 -33.4033c40.1396 -40.1396 38.6152 -108.841 37.5254 -169.365c-0.395508 -21.9258 -0.433594 -33.2402 -0.22168 -41.9463
c26.3789 -43.8281 72.168 -89.959 89.3252 -129.607c6.95117 -16.0635 5.49219 -24.7637 2.64551 -40.2051l-12 -14l-79.501 -63.5771v-212.431c1.93945 -31.0869 1.82422 -79.2412 -27.416 -108.48c-26.0322 -26.0322 -182.507 -12.0195 -220.584 -13.0049
l-2.90137 0.0126953c-103.732 -7.2998 -296.108 50.6025 -326.603 92.1719c-18.5059 25.2275 -31.4014 41.2529 -57.9951 55.3086v70.0371c25.8174 -16.2627 49.624 -17.8066 70.1904 -60.6357c44.2188 -92.082 349.455 -105.734 451.309 -108.438l-0.499023 -0.962891
c50 12 34.1514 4.48145 42.5352 13.5361c19.1768 20.7119 3.97852 41.9688 5.50781 57.9648h-0.541992v2.14941c-0.253906 0.990234 -0.500977 1.94141 -0.738281 2.84863h0.738281v207.174v3.4873v1.33887h1.58203l104 88h1.13281
c4.9834 45.8955 -62.8379 92.1289 -94.2158 139.501l-3 4l-1 1c-2.02051 3.99219 0.0439453 4.02539 -2.08398 11.5605c-0.0371094 0.130859 -0.189453 0.24707 -0.174805 0.367188l0.258789 2.07227l0.0644531 1.49902
c0.00976562 0.226562 0.150391 3.89551 0.242188 6.24414c3.11426 79.1523 5.19727 173.389 -83.8154 173.771c-136.35 16.7461 -373.536 9.53418 -431.49 -46.5137zM527.981 137.818c-11.542 1.34766 -37.9375 7.2793 -56.957 33.3105
c-8.22559 -4.25781 -17.5576 -9.54492 -32.4814 -18.6436c-2.23145 6.7041 -2.27441 6.83398 -8.60156 15.3125c11.3242 6.3418 22.1963 12.3008 32.7119 17.5996c-4.78809 10.4443 -7.45996 22.0684 -7.45996 34.3018c0 16.9619 5.11914 32.5898 13.7734 45.5586
c-7.84766 7.00879 -15.8701 13.8984 -27.04 23.3037c5.4248 4.53223 5.44434 4.56152 10.918 12.418c10.127 -7.7041 17.8779 -14.6514 26.6201 -22.9551c12.5967 12.5439 29.1162 21 47.2266 23.4092c-0.177734 10.7793 -0.246094 20.9316 0.177734 33.6123
l16.4668 0.391602c-0.169922 -6.17676 -0.396484 -15.001 0.526367 -33.5547c11.8105 -0.927734 37.4678 -5.82324 57.3438 -29.9463c6.9209 4.76562 12.8018 8.1709 27.4082 16.6289c3.4834 -4.59473 4.71484 -6.33105 7.41504 -10.7598
c1.91797 -3.14648 0.165039 -3.33789 -1.64453 -4.48047c-0.994141 -0.626953 -14.6025 -9.01855 -24.0439 -15.0225c5.28516 -9.88086 17.2441 -38.1221 3.07324 -71.1025c8.86816 -5.55762 16.9658 -11.5244 26.4336 -18.9707
c-3.69922 -6.62305 -4.64941 -7.95898 -9.52734 -14.7402c-5.58691 3.96875 -13.1826 9.37109 -25.582 18.3262c-6.7168 -9.39453 -25.9307 -31.3975 -60.1318 -34.2656c-0.280273 -8.68457 -0.306641 -20.2422 -0.125 -36.3066c-6.04395 0 -6.39941 0 -17.8232 0.84668
c0.289062 11.2979 0.731445 22.2812 1.32324 35.7285zM603.18 219.723c0 36.1631 -29.3838 65.5205 -65.5459 65.5205c-36.1777 0 -65.5469 -29.3701 -65.5469 -65.5469c0 -36.748 30.2227 -65.5244 65.2451 -65.5459c36.1836 0 65.6934 29.3838 65.8477 65.5723z
M525.183 392.199c15.1357 0 27.5615 11.8809 27.5615 26.6172c0 8.68066 -3.9082 14.585 -7.70605 18.3828c-2.74121 2.74121 -4.33496 3.66016 -8.87598 6.27637c1.69727 5.55176 5.95508 19.4883 20.1777 33.71c22.8262 22.8271 56.001 30.9004 75.0752 30.9004
c2.2793 0 13.1406 -0.19043 16.6455 -3.7627l2.6377 -2.68945l11.8057 11.6396c-7.16797 7.17871 -9.67676 9.15234 -21.6123 10.8311c-3.07617 0.432617 -6.44238 0.654297 -10.0332 0.654297c-30.7031 0 -79.5938 -16.3096 -102.62 -57.208l-3.52246 -6.25586
c-6.76074 9.72949 -10.3389 14.8799 -18.8799 23.4209c-13.5449 13.5449 -31.0732 25.6904 -48.2178 30.9658c-7.16211 2.41406 -23.4639 7.12207 -41.5771 7.12207c-10.5615 0 -19.8848 -1.67969 -26.1289 -5.38086l-3.38965 -2.00977l8.48535 -14.3076
c5.76172 3.43359 8.46387 5.04492 21.0381 5.04492c9.50586 0 22.0947 -1.58203 36.3281 -6.26953c22.8721 -7.53223 49.832 -30.3584 60.5039 -52.3389l1.83105 -3.77051c-5.57812 -3.21973 -6.93066 -4.00098 -9.45508 -6.52441
c-7.02051 -7.02051 -7.63281 -15.9531 -7.63281 -18.4307c0 -14.7344 12.4219 -26.6172 27.5615 -26.6172z" />
  </g>

</svg>
