<?xml version="1.0" standalone="no"?>
<!DOCTYPE svg PUBLIC "-//W3C//DTD SVG 1.1//EN" "http://www.w3.org/Graphics/SVG/1.1/DTD/svg11.dtd" >
<svg xmlns="http://www.w3.org/2000/svg" xmlns:xlink="http://www.w3.org/1999/xlink" version="1.1" viewBox="-10 0 1006 1000">
  <g transform="matrix(1 0 0 -1 0 800)">
   <path fill="currentColor"
d="M828.399 483.872c0 9.49878 0.360099 25.4826 0.360099 28.905l-0.318652 61.3747l-8.69455 54.78l-24.0577 41.7601l-29.8355 19.1251l-33.9409 8.02542l-47.9505 1.85133v0.765382l-107.704 8.96128l-161.614 -4.8437l-135.511 -48.0118l4.97421 -24.8711
l90.1513 34.2037l168.519 13.9909l163.859 -8.05849l72.0585 -32.0852l24.6852 -76.5829c-11.2968 -92.7231 -11.5388 -94.7093 -10.6225 -98.1968c0.272553 -1.03738 0.408327 -1.98777 0.495372 -2.92219c0.487753 -0.641757 1.13403 -1.58506 1.4862 -2.05622
l30.4464 -40.7334l38.0432 -60.0682l23.93 -33.502l-96.7113 -80.2498l-3.19974 -219.288c0.962733 -7.56244 2.78458 -22.0112 5.01798 -45.877c-0.12894 -0.269919 -9.65147 -20.9678 -12.8349 -27.02c-1.80565 -3.43278 -3.36365 -6.39475 -8.94453 -11.1259
c-28.726 -6.87192 -37.6748 -9.01268 -53.7943 -9.01268c-3.38415 0 -6.77838 0.14333 -10.1737 0.446144l-127.95 -3.2205l-189.706 31.9736l-119.91 72.0259l-21.8729 31.5454c-0.18608 0.126152 -14.9542 10.3475 -18.5829 12.6523v-31.4635
c5.41685 -3.87145 13.5068 -7.36272 24.4398 -17.2503c7.32645 -6.62591 2.09556 -4.45645 10.6241 -11.9264c1.03002 -0.902171 1.03002 -0.902171 17.2005 -21.8062l70.2643 -41.1391l123.979 -35.7692l40.8353 -3.74581
c52.8258 -4.90757 59.0669 -6.73248 83.0467 -7.42728l68.08 -1.97257l89.7606 0.254271l51.1066 12.4914l15.1376 25.2075l6.27671 34.16l-0.268638 82.9487l0.0291888 84.2282l-0.00582149 87.5189l84.7837 67.8016l7.68593 8.96692l1.11464 7.19504
c0.44913 7.61262 -1.52476 12.8022 -3.31214 18.1783l-23.3304 38.8443l-33.0243 43.448l-34.3179 48.9016c-0.202711 16.1296 -0.202711 16.1296 -0.202711 17.6951zM48.3545 723.521h55.5146l17.1611 52.2256l17.1602 -52.2256h55.5156l-44.8672 -32.2959
l17.1611 -52.2246l-44.9697 32.2959l-44.9707 -32.2959l17.1611 52.2246zM460.284 358.906c47.46 0 85.9727 38.5117 85.9727 85.9727c0 21.873 -11.6719 46.4209 -28.0537 62.8018c-0.938477 0.939453 -1.89551 1.85254 -2.86719 2.7373h189.627v20.2646
c-83.4072 -0.00683594 -166.901 1.87988 -250.231 -0.0107422c-44.4873 -1.00781 -80.4189 -41.2354 -80.4189 -85.793c0 -47.458 38.5107 -85.9727 85.9717 -85.9727zM460.483 379.321h-0.0078125c-36.2637 0 -65.6992 29.4453 -65.6992 65.708
c0 36.2676 29.4385 65.708 65.707 65.708c36.2666 0 65.708 -29.4395 65.708 -65.707c0 -36.1797 -29.3057 -65.5928 -65.5029 -65.708v0s-0.165039 -0.000976563 -0.205078 -0.000976563v0zM510 78l-105.504 96.1611l20.0957 19.2324l84.7803 -72.2666l150.721 177.17
l22.6074 -14.5703z" />
  </g>

</svg>
