<?xml version="1.0" standalone="no"?>
<!DOCTYPE svg PUBLIC "-//W3C//DTD SVG 1.1//EN" "http://www.w3.org/Graphics/SVG/1.1/DTD/svg11.dtd" >
<svg xmlns="http://www.w3.org/2000/svg" xmlns:xlink="http://www.w3.org/1999/xlink" version="1.1" viewBox="-10 0 1102 1000">
  <g transform="matrix(1 0 0 -1 0 800)">
   <path fill="currentColor"
d="M311 580l-93.3447 84.5566l15.126 11.1416l72.3232 -66.4307l128.963 163.354l20.5469 -9.44141zM485.693 447.815zM485.511 445.654zM617.574 423.169c0 -16.75 -5.45898 -33.0869 -19.6533 -47.2812c-6.35547 -6.35645 -11.7129 -10.7705 -16.6328 -13.8145
c28.9424 5.15723 66.6348 18.5508 91.2959 61.3623c-5.35645 9.2793 -11.8057 17.6973 -19.3994 25.291c-16.6357 16.6357 -39.8721 30.2959 -70.6104 35.958c-0.385742 0.0712891 -0.250977 -0.466797 -1.4834 -0.0986328
c-0.816406 0.243164 -3.24414 0.96875 -6.71973 1.57031c7.47656 -2.94531 15.4355 -7.78711 23.2646 -15.6152c13.8555 -13.8564 19.9385 -29.8916 19.9385 -47.3721zM548.707 374.577c18.8359 0 29.7217 9.03906 35.5742 14.8906
c12.3389 12.3389 14.0928 25.3232 14.0928 33.8936c-0.0429688 12.2764 -4.18164 23.6377 -14.0898 33.5449c-20.1104 20.1104 -44.0762 15.5752 -54.9248 10.8877c-0.103516 0 -15.2676 -10.0049 -15.4219 -10.1055c-3.95215 -5.75293 -7.83594 -11.5723 -11.7617 -17.3516
l-0.0390625 0.0146484c-6.36621 -17.623 -3.28906 -36.8291 11.1006 -51.2207c9.92773 -9.92773 21.7852 -14.5537 35.4697 -14.5537zM551.797 338.765v0c-17.9902 0 -77.5703 0.859375 -125.621 48.9102c-10.7148 10.7148 -19.1719 22.2998 -26.7393 35.7607
c-0.0263672 0.0458984 -0.0517578 0.0917969 -0.078125 0.138672l0.078125 -0.138672c8.57129 15.248 17.334 26.4473 27.4883 36.6016c23.293 23.293 62.5674 48.2686 124.872 48.2686c16.0508 0 76.7812 -0.283203 124.834 -48.335
c10.9609 -10.9619 19.5684 -22.8047 27.1924 -36.5332c0.0263672 -0.0458984 0.0507812 -0.0917969 0.0761719 -0.136719l-0.0761719 0.136719c-4.07324 -7.33984 -12.3506 -21.5342 -26.6768 -35.8604c-47.627 -47.627 -106.39 -48.8125 -125.35 -48.8125zM521.142 484.826
c-50.1191 -9.11328 -75.8867 -36.1289 -90.4619 -61.3887c6.22852 -10.748 13.2578 -19.0625 19.4121 -25.2178c14.4668 -14.4658 36.0771 -28.9131 67.4473 -35.3408c-5.95703 2.92285 -12.1611 7.08301 -18.0977 13.0195
c-22.8916 22.8916 -22.5498 51.7139 -15.2383 70.8369c0.111328 0.166992 0.0634766 0.274414 -0.107422 0.333984c-0.277344 1.47266 4.01074 8.75391 4.71387 10.5469c0.876953 2.23438 1.91895 3.31836 3.59277 4.83105c1.17285 1.05762 1.19238 1.0791 1.99023 2.41016
c1.19434 1.99316 1.24902 2.10742 6.47363 7.33203c4.11133 4.11133 13.7363 10.1777 20.2754 12.6367zM348.481 97.6934l-82.2217 148.848l24.0225 10.1475l58.4395 -100.383l53.3027 101.418l27.2285 -11.0254zM265.568 -67.707v34.6641h38.626v22.0713h-38.626v34.6641
h38.626v33.7148h31.3828v-33.7148h23.2197v31.2539h31.3828v-31.2539h41.292v-34.6641h-41.292v-22.0713h41.292v-34.6641h-41.292v-36.1855h-31.3828v36.1855h-23.2197v-33.7246h-31.3828v33.7246h-38.626zM335.577 -33.043h23.2197v22.0713h-23.2197v-22.0713z
M780.659 223.904c-0.529297 0 -0.985352 0.173828 -1.32227 0.358398l-214.094 -88.2627v-37.8242c12.126 5.10742 24.251 10.2148 36.376 15.3213v-3.77051l-0.21875 -161.659h318.305l0.646484 155.446c10.9619 -6.48535 21.9238 -12.9697 32.8867 -19.4551
l-0.677734 40.7051l-136.33 79.1182l1.46387 0.616211c-22.6963 11.7715 -24.457 12.7314 -36.2109 19.5508c-0.288086 -0.102539 -0.56543 -0.144531 -0.824219 -0.144531zM884.594 -16.7148h-248.003l-0.665039 144.662l142.009 59.8174l107.859 -63.8086z
M63.3545 -23.4795h55.5146l17.1611 52.2256l17.1602 -52.2256h55.5156l-44.8672 -32.2959l17.1611 -52.2246l-44.9697 32.2959l-44.9707 -32.2959l17.1611 52.2246z" />
  </g>

</svg>
