<?xml version="1.0" standalone="no"?>
<!DOCTYPE svg PUBLIC "-//W3C//DTD SVG 1.1//EN" "http://www.w3.org/Graphics/SVG/1.1/DTD/svg11.dtd" >
<svg xmlns="http://www.w3.org/2000/svg" xmlns:xlink="http://www.w3.org/1999/xlink" version="1.1" viewBox="-10 0 1390 1000">
  <g transform="matrix(1 0 0 -1 0 800)">
   <path fill="currentColor"
d="M799.631 252.104c0 -11.5166 -2.91602 -31.1826 -2.91602 -42.1094c0 -6.64062 0.833008 -3.16113 1.08105 -5.83789c2.87305 -30.8887 29.7148 -61.5371 38.4023 -68.8574c0.519531 -0.600586 0.816406 -3.09668 0.816406 -3.12988
c0 -0.548828 -0.21582 -1.08691 -0.608398 -1.48047c-0.0664062 -0.0664062 -6.65918 -4.86035 -8.15918 -4.86035c-1.21289 0 -1.97168 0.658203 -2.2832 0.99707c-23.2676 25.3174 -25.9883 31.1543 -37.9785 59.3604l-4.66504 -10.5361
c-4.83594 -10.9238 -11.3125 -21.1123 -17.374 -28.8105c-7.46582 -9.48145 -12.4863 -21.0127 -16.4346 -21.0127c-0.679688 0 -1.36035 0.22168 -1.9209 0.666016c-6.36133 5.03613 -7.19922 5.72168 -7.25391 5.7666
c-0.620117 0.620117 -0.922852 1.41406 -0.922852 2.20703c0 0.667969 0.214844 1.33594 0.642578 1.89062c5.64258 7.31348 15.1094 20.4844 17.4844 23.6045c24.5117 32.1973 26.8604 74.3398 26.8604 99.2373c0 1.33691 -0.00683594 2.62402 -0.0175781 3.85742
c0 1.78613 1.4248 3.12598 3.09863 3.12598c0.0341797 0 0.0341797 0 7.48535 -0.165039c4.38281 -0.09375 4.50195 -4.625 4.50195 -5.11621c0 -0.0195312 -0.0185547 -0.947266 -0.0185547 -1.86914c0 -1.04004 0.179688 -6.8584 0.179688 -6.92773zM719.58 393.706
c0 13.5391 3.30371 27.5957 9.9707 41.0459c10.3379 20.8105 31.2012 51.8818 54.3584 95.248c3.46973 6.49609 4.99512 7.20703 11.1152 7.30957c4.08398 -1.79102 5.51465 -3.02441 9.26758 -11.5c36.4365 -64.0576 36.4365 -64.0576 42.165 -73.1016
c8.6543 -13.6641 14.8496 -24.2979 17.8711 -34.9014c1.83008 -6.17383 3.14453 -15.2061 3.14453 -21.5742c0 -34.8018 -27.5391 -67.7881 -61.4727 -74.2324c-5.83887 -1.1084 -10.501 -1.76367 -14.9414 -1.76367c-16.7334 0 -38.4883 8.99219 -50.3418 20.7988
c-14.0293 14.0752 -21.1367 32.8154 -21.1367 52.6709zM854.559 384.986c0.15625 0.933594 0.651367 -0.172852 1.5 7.5c0.046875 0.418945 0.0185547 1.9541 0 2c-0.00292969 0.00878906 -0.996094 9.99316 -1 10l-7.56934 14.4023
c-3.81934 7.2666 -7.68066 15.4424 -14.1416 25.5479c-5.7002 8.91602 -5.7002 8.91602 -40.3623 69.1006c-26.6982 -46.5947 -26.6982 -46.5947 -32.1084 -55.3857c-16.1475 -26.7275 -25.6982 -42.6084 -25.6982 -64.7383c0 -15.8135 5.58301 -30.3281 16.2324 -40.9775
c9.43652 -9.43652 28.5977 -16.5957 39.8672 -16.5957c30.1543 0 56.7949 19.5928 61.7949 43.5928c1.5 5 0.985352 2.55371 1.48535 5.55371zM847.35 418.928c0.155273 -0.0419922 0.173828 -0.046875 0.724609 -1.5918zM73.5039 -174.984h42.7031l13.2012 40.1738
l13.2002 -40.1738h42.7041l-34.5127 -24.8428l13.2002 -40.1729l-34.5918 24.8428l-34.5928 -24.8428l13.2012 40.1729zM1368.86 550.277l0.720703 -35.75c-4.87695 0.107422 -12.7939 0.193359 -17.6719 0.193359c-44.2891 0 -115.481 -7.04199 -158.912 -15.7207
c-47.6455 -9.70801 -112.356 -47.2402 -144.444 -83.7773c-25.4355 -34.5059 -47.4355 -97.2754 -49.1113 -140.11c-0.121094 -4.8877 -0.22168 -12.8242 -0.22168 -17.7129c0 -30.377 3.82031 -79.3887 8.52734 -109.399
c12.6396 -102.193 28.2373 -210.478 -64.2764 -292.5c-33.6211 -29.8086 -82.5117 -53.5068 -126.891 -60.5273c-23.9893 -3.79492 -63.168 -6.87402 -87.457 -6.87402c-1.07617 0 -2.82715 0.00585938 -3.9043 0.0136719c-25.2783 0 -49.832 2.8877 -72.2217 2.8877
l2.5293 36.1123c17.0381 -1.5498 44.7529 -2.80859 61.8643 -2.80859c25.9033 0 53.0654 -1.44434 78.7461 1.94629c38.5352 5.08789 93.5371 30.0029 122.777 55.6123c76.5566 72.2217 65 164.305 53.083 261.805c-4.75977 30.7432 -8.62305 80.9414 -8.62305 112.052
c0 5.95117 0.142578 15.6104 0.317383 21.5586c1.75781 49.0762 27.1553 120.744 56.6953 159.973c36.25 41.915 109.695 85.1094 163.944 96.417c45.6475 9.26855 120.499 16.792 167.078 16.792c4.81641 0 12.6348 -0.0810547 17.4512 -0.181641zM579.306 362
c13 -105.445 26.3604 -213.778 -65.3623 -299c-34.3164 -30.4043 -99.0273 -60.1709 -144.443 -66.4453c-24.9072 -3.99219 -65.5928 -7.23242 -90.8174 -7.23242c-0.948242 0 -2.48535 0.00488281 -3.43262 0.00976562c-24.1943 0 -49.1104 2.88965 -72.2207 2.88965
l2.52637 36.1104c17.5176 -1.59375 46.0127 -2.8877 63.6055 -2.8877c26.4189 0 69.1084 2.91113 95.2822 6.5c39.4404 5.27246 95.7393 30.833 125.667 57.0557c78.7227 74.0273 66.8057 168.277 54.5293 268.305c-4.95117 31.7295 -8.96777 83.543 -8.96777 115.655
c0 5.85449 0.134766 15.3545 0.299805 21.2051c1.76172 50.3154 27.8076 123.764 58.1387 163.945c37.0176 42.8945 112.082 87.0605 167.556 98.584c46.6709 9.47363 123.199 17.1611 170.822 17.1611c4.97949 0 13.0605 -0.0849609 18.041 -0.19043v-36.1104
c-4.94141 0.106445 -12.9648 0.193359 -17.9053 0.193359c-45.3311 0 -118.199 -7.20508 -162.652 -16.083c-48.7686 -9.96387 -114.934 -48.4678 -147.692 -85.9434c-26.4814 -35.2695 -49.4531 -99.6562 -51.2793 -143.722
c-0.140625 -5.28125 -0.253906 -13.8574 -0.253906 -19.1396c0 -30.7803 3.83398 -80.4453 8.55957 -110.86z" />
  </g>

</svg>
