<?xml version="1.0" standalone="no"?>
<!DOCTYPE svg PUBLIC "-//W3C//DTD SVG 1.1//EN" "http://www.w3.org/Graphics/SVG/1.1/DTD/svg11.dtd" >
<svg xmlns="http://www.w3.org/2000/svg" xmlns:xlink="http://www.w3.org/1999/xlink" version="1.1" viewBox="-10 0 1009 1000">
  <g transform="matrix(1 0 0 -1 0 800)">
   <path fill="currentColor"
d="M828.399 483.872c0 9.49878 0.360099 25.4826 0.360099 28.905l-0.318652 61.3747l-8.69455 54.78l-24.0577 41.7601l-29.8355 19.1251l-33.9409 8.02542l-47.9505 1.85133v0.765382l-107.704 8.96128l-161.614 -4.8437l-135.511 -48.0118l4.97421 -24.8711
l90.1513 34.2037l168.519 13.9909l163.859 -8.05849l72.0585 -32.0852l24.6852 -76.5829c-11.2968 -92.7231 -11.5388 -94.7093 -10.6225 -98.1968c0.272553 -1.03738 0.408327 -1.98777 0.495372 -2.92219c0.487753 -0.641757 1.13403 -1.58506 1.4862 -2.05622
l30.4464 -40.7334l38.0432 -60.0682l23.93 -33.502l-96.7113 -80.2498l-3.19974 -219.288c0.962733 -7.56244 2.78458 -22.0112 5.01798 -45.877c-0.12894 -0.269919 -9.65147 -20.9678 -12.8349 -27.02c-1.80565 -3.43278 -3.36365 -6.39475 -8.94453 -11.1259
c-28.726 -6.87192 -37.6748 -9.01268 -53.7943 -9.01268c-3.38415 0 -6.77838 0.14333 -10.1737 0.446144l-127.95 -3.2205l-189.706 31.9736l-119.91 72.0259l-21.8729 31.5454c-0.18608 0.126152 -14.9542 10.3475 -18.5829 12.6523v-31.4635
c5.41685 -3.87145 13.5068 -7.36272 24.4398 -17.2503c7.32645 -6.62591 2.09556 -4.45645 10.6241 -11.9264c1.03002 -0.902171 1.03002 -0.902171 17.2005 -21.8062l70.2643 -41.1391l123.979 -35.7692l40.8353 -3.74581
c52.8258 -4.90757 59.0669 -6.73248 83.0467 -7.42728l68.08 -1.97257l89.7606 0.254271l51.1066 12.4914l15.1376 25.2075l6.27671 34.16l-0.268638 82.9487l0.0291888 84.2282l-0.00582149 87.5189l84.7837 67.8016l7.68593 8.96692l1.11464 7.19504
c0.44913 7.61262 -1.52476 12.8022 -3.31214 18.1783l-23.3304 38.8443l-33.0243 43.448l-34.3179 48.9016c-0.202711 16.1296 -0.202711 16.1296 -0.202711 17.6951zM492.007 114.266l-56.0068 50.7344l9.0752 6.68457l43.3945 -39.8584l77.377 98.0127l12.3281 -5.66602z
M624.231 92.1846zM402.184 241.569zM360.717 165.23zM522.285 65.4189zM521.993 56.1494zM398.546 90.6191zM469.713 68.2305zM663.839 182.491zM360.717 165.23zM663.839 182.491zM669.305 187.693c2.86328 -8.67285 4.70703 -18.0576 7.11523 -27.0488l1.67871 -0.0273438
c-1.27637 -26.9385 -1.75684 -37.082 -45.5 -71.6475c-32.5488 -25.7197 -56.3789 -34.7803 -110.546 -35.3906c-37.2598 -0.419922 -84.7119 0.974609 -126.312 35.3818c-16.3926 13.5566 -42.4131 39.7949 -42.1719 69.6006h-1.16602
c1.27441 4.77832 1.27441 4.77832 1.39551 8.44629l0.853516 -0.0146484l3.65234 13.6982h-1.60254c0.832031 1.13086 1.66504 2.26172 2.49707 3.3916v3.84961h2.83301l41.3672 56.207h1.3125c14.3135 33.4678 69.1455 49.5908 90.4424 23.666
c3.02344 -1.3584 16.7373 -6.83105 31.1787 -1.56543c7.43848 9.95508 28.3389 19.5635 51.8584 14.6865c22.748 -4.7168 45.6953 -25.8789 55.7627 -36.1816h0.482422c0.355469 -0.522461 0.597656 -1.12305 1.04395 -1.58008l3.16406 -3.30078l30.2051 -51.6143
c0.450195 0.0380859 0.806641 0.00976562 0.735352 -0.317383zM374.611 160.369c-0.500977 -17.1768 1.39941 -37.6045 43.1152 -66.8057c35.3994 -24.7793 64.7314 -26.5596 105 -25.5615c46.918 1.20801 66.4951 7.2373 94.8262 30.3887
c37.6758 30.7871 43.918 40.4355 39.3877 58.5215l-5.99121 23.916l-0.220703 -0.392578c0.0136719 1.44727 -0.955078 3.28809 -0.941406 4.73633l-33.6182 53.0225c-0.902344 -0.0361328 -0.181641 0.78418 -1.08398 0.749023
c-20.8086 13.7188 -23.0273 19.6621 -30.7998 24.2461c-11.9697 7.05859 -30.3721 5.6377 -42.0879 -2.3584c-5.83203 -17.5684 -42.0166 -20.3838 -58.6904 -4.54102c-1.55469 1.47656 -2.7002 0.655273 -2.55371 2.4668
c-17.8223 12.2646 -51.207 -0.0917969 -60.6406 -22.3105l-1.14453 -2.69434l-1.90625 0.734375l-36.7646 -52.0479zM48.3545 723.521h55.5146l17.1611 52.2256l17.1602 -52.2256h55.5156l-44.8672 -32.2959l17.1611 -52.2246l-44.9697 32.2959l-44.9707 -32.2959
l17.1611 52.2246zM528 352l-102 181l14.04 5.92871l89.1787 -147.73l80.8018 154.485l18.9795 -7.68359z" />
  </g>

</svg>
