<?xml version="1.0" standalone="no"?>
<!DOCTYPE svg PUBLIC "-//W3C//DTD SVG 1.1//EN" "http://www.w3.org/Graphics/SVG/1.1/DTD/svg11.dtd" >
<svg xmlns="http://www.w3.org/2000/svg" xmlns:xlink="http://www.w3.org/1999/xlink" version="1.1" viewBox="-10 0 1051 1000">
  <g transform="matrix(1 0 0 -1 0 800)">
   <path fill="currentColor"
d="M828.399 483.872c0 9.49878 0.360099 25.4826 0.360099 28.905l-0.318652 61.3747l-8.69455 54.78l-24.0577 41.7601l-29.8355 19.1251l-33.9409 8.02542l-47.9505 1.85133v0.765382l-107.704 8.96128l-161.614 -4.8437l-135.511 -48.0118l4.97421 -24.8711
l90.1513 34.2037l168.519 13.9909l163.859 -8.05849l72.0585 -32.0852l24.6852 -76.5829c-11.2968 -92.7231 -11.5388 -94.7093 -10.6225 -98.1968c0.272553 -1.03738 0.408327 -1.98777 0.495372 -2.92219c0.487753 -0.641757 1.13403 -1.58506 1.4862 -2.05622
l30.4464 -40.7334l38.0432 -60.0682l23.93 -33.502l-96.7113 -80.2498l-3.19974 -219.288c0.962733 -7.56244 2.78458 -22.0112 5.01798 -45.877c-0.12894 -0.269919 -9.65147 -20.9678 -12.8349 -27.02c-1.80565 -3.43278 -3.36365 -6.39475 -8.94453 -11.1259
c-28.726 -6.87192 -37.6748 -9.01268 -53.7943 -9.01268c-3.38415 0 -6.77838 0.14333 -10.1737 0.446144l-127.95 -3.2205l-189.706 31.9736l-119.91 72.0259l-21.8729 31.5454c-0.18608 0.126152 -14.9542 10.3475 -18.5829 12.6523v-31.4635
c5.41685 -3.87145 13.5068 -7.36272 24.4398 -17.2503c7.32645 -6.62591 2.09556 -4.45645 10.6241 -11.9264c1.03002 -0.902171 1.03002 -0.902171 17.2005 -21.8062l70.2643 -41.1391l123.979 -35.7692l40.8353 -3.74581
c52.8258 -4.90757 59.0669 -6.73248 83.0467 -7.42728l68.08 -1.97257l89.7606 0.254271l51.1066 12.4914l15.1376 25.2075l6.27671 34.16l-0.268638 82.9487l0.0291888 84.2282l-0.00582149 87.5189l84.7837 67.8016l7.68593 8.96692l1.11464 7.19504
c0.44913 7.61262 -1.52476 12.8022 -3.31214 18.1783l-23.3304 38.8443l-33.0243 43.448l-34.3179 48.9016c-0.202711 16.1296 -0.202711 16.1296 -0.202711 17.6951zM33.2949 712.521h55.5146l17.1611 52.2256l17.1602 -52.2256h55.5156l-44.8672 -32.2959
l17.1611 -52.2246l-44.9697 32.2959l-44.9707 -32.2959l17.1611 52.2246zM443.349 324.154l14.4785 -12.1494l-132.3 -151.2l-14.4785 12.1494zM435.448 144.713h0.243164c3.00879 0 4.02734 4.57129 4.02734 6.1416c0 1.0791 -0.480469 3.63184 -1.35156 7.2627
c-1.6875 6.70508 -3.34082 13.4238 -4.96094 20.1543c-6.34375 25.5566 -12.623 33.2559 -22.0371 33.2559c-11.4473 0 -16.7988 -12.5127 -22.2793 -34.46c-4.5 -18.5137 -5.04297 -20.4492 -5.22168 -21.0156c-0.446289 -1.88965 -0.849609 -3.75781 -0.849609 -5.20508
c0 -1.85645 1.15234 -5.7793 3.38086 -6.0498c0.713867 -0.0693359 1.42285 -0.117188 2.125 -0.141602l14.6367 0.0224609l29.3887 -0.0224609l2.83398 0.0576172h0.0644531zM373.639 151.011c0 2.59277 0.144531 3.14062 3.10156 14.752
c5.84082 24.0449 7.99609 33.1846 14.1182 42.6201c2.08398 3.10742 8.41699 11.7373 20.3906 11.7373c20.5146 0 26.9033 -22.4102 31.1943 -39.5049c6.55078 -26.9072 6.66113 -27.0146 6.66113 -29.832c0 -6.82422 -4.83203 -13.6465 -11.2344 -14.4443
c-1.2832 -0.170898 -2.57617 -0.254883 -3.87012 -0.254883c-0.123047 0 -0.246094 0.000976563 -0.369141 0.000976563l-45.3389 -0.0195312c-0.0449219 0.00195312 -0.0898438 0.00390625 -0.134766 0.00683594c-2.99902 0.125977 -7.20508 0.335938 -10.7168 4.44629
c-2.54883 2.98242 -3.80176 6.67383 -3.80176 10.4922zM348.365 255.34c0.125 0.000976562 0.239258 0 0.242188 0c3.00879 0 4.02734 4.57227 4.02734 6.14258c0 1.07812 -0.480469 3.63184 -1.35059 7.26172c-1.68848 6.70605 -3.3418 13.4238 -4.96094 20.1543
c-6.34473 25.5576 -12.624 33.2559 -22.0381 33.2559c-11.4473 0 -16.7988 -12.5127 -22.2793 -34.459c-4.5 -18.5137 -5.04297 -20.4502 -5.22168 -21.0166c-0.447266 -1.88867 -0.849609 -3.75781 -0.849609 -5.20508c0 -1.85645 1.15234 -5.7793 3.37988 -6.04883
c0.714844 -0.0703125 1.42383 -0.118164 2.12598 -0.142578l14.6367 0.0224609l29.3896 -0.0224609l2.83301 0.0576172h0.0654297zM286.555 261.638c0 2.59277 0.145508 3.14062 3.10156 14.752c5.8418 24.0459 7.99707 33.1855 14.1182 42.6211
c2.08496 3.10645 8.41699 11.7363 20.3916 11.7363c20.5146 0 26.9023 -22.4102 31.1924 -39.5039c6.55176 -26.9082 6.66211 -27.0156 6.66211 -29.832c0 -6.8252 -4.83301 -13.6475 -11.2334 -14.4443c-1.28418 -0.170898 -2.57715 -0.255859 -3.87109 -0.255859
c-0.123047 0 -0.246094 0.000976562 -0.369141 0.000976562l-45.3389 -0.0185547c-0.0449219 0.000976563 -0.0908203 0.00292969 -0.135742 0.00585938c-2.99805 0.126953 -7.2041 0.335938 -10.7158 4.44727c-2.54883 2.98145 -3.80176 6.67383 -3.80176 10.4912z
M718.448 110.713l-142.464 0.671875l2.01562 287.615l16.7246 -0.447266v-270.48h108.268v270.48l15.4561 -0.223633v-287.616zM455.448 518.713l-66 -67l64.8887 -60.2646l-12.8887 -10.7354l-65 60.5l-61 -60.5l-9.36133 10.2354l59.8613 59.2646l-60.5 66.5l11.5 11
l61.5 -63.5l67.0273 63.125z" />
  </g>

</svg>
