<?xml version="1.0" standalone="no"?>
<!DOCTYPE svg PUBLIC "-//W3C//DTD SVG 1.1//EN" "http://www.w3.org/Graphics/SVG/1.1/DTD/svg11.dtd" >
<svg xmlns="http://www.w3.org/2000/svg" xmlns:xlink="http://www.w3.org/1999/xlink" version="1.1" viewBox="-10 0 997 1000">
  <g transform="matrix(1 0 0 -1 0 800)">
   <path fill="currentColor"
d="M669.896 396.875c1.19629 -21.2539 -8.90332 -81.7969 -2.96191 -84.9736c5.83203 -62.7109 66.5479 -121.304 66.625 -119.043l-10.2891 -6.8584c-23.1455 25.2461 -48.9717 50.2314 -68.6523 118.643c-4.38184 -30.123 -23.1963 -63.8604 -40.1016 -85.3301
c-10.2871 -13.0635 -14.6973 -23.5146 -23.5156 -33.3125l-11.7578 9.30859c13.2275 17.1455 20.6523 28.1963 29.3945 39.6797c44.6348 58.6318 46.502 135.611 46.1553 176.395c4.15332 -0.0908203 8.30664 -0.182617 12.46 -0.274414
c2.33691 -0.0507812 2.43262 -2.32227 2.47363 -3.29199c0.00390625 -0.109375 -0.152344 -5.21289 0.169922 -10.9414zM35.7939 756.847h55.5146l17.1611 52.2256l17.1602 -52.2256h55.5156l-44.8672 -32.2959l17.1611 -52.2246l-44.9697 32.2959l-44.9707 -32.2959
l17.1611 52.2246zM275.499 652.326l-12 60c128.725 89.7881 355.203 55.3633 442.457 48.5605c0 -0.0107422 0.000976562 -0.0214844 0.000976562 -0.0322266c27.4463 0.582031 75.1855 -1.32129 107.268 -33.4033c40.1396 -40.1396 38.6152 -108.841 37.5254 -169.365
c-0.395508 -21.9258 -0.433594 -33.2402 -0.22168 -41.9463c26.3789 -43.8281 72.168 -89.959 89.3252 -129.607c6.95117 -16.0635 5.49219 -24.7637 2.64551 -40.2051l-12 -14l-79.501 -63.5771v-212.431c1.93945 -31.0869 1.82422 -79.2412 -27.416 -108.479
c-26.0322 -26.0322 -182.507 -12.0195 -220.584 -13.0049l-2.90137 0.0126953c-103.73 -7.2998 -296.106 50.6025 -326.603 92.1719c-18.5059 25.2275 -31.4014 41.2529 -57.9951 55.3086v70.0371c25.8174 -16.2627 49.624 -17.8066 70.1904 -60.6357
c44.2188 -92.082 349.455 -105.734 451.309 -108.438l-0.499023 -0.962891c50 12 34.1514 4.48145 42.5352 13.5361c19.1768 20.7119 3.97852 41.9688 5.50781 57.9648h-0.541992v2.14941c-0.253906 0.990234 -0.500977 1.94141 -0.738281 2.84863h0.738281v207.174v3.4873
v1.33887h1.58203l104 88h1.13281c4.9834 45.8955 -94.2158 139.501 -94.2158 139.501v0l-1 1c-3.00586 3.00684 1.63715 51.1381 -0.499023 58.6709c-0.0371094 0.130859 2.81055 -3.75293 2.8252 -3.63281l-2.74121 6.07227l0.0644531 1.49902
c0.00976562 0.226562 0.150391 3.89551 0.242188 6.24414c3.11426 79.1523 0.612305 130.28 -88.4004 130.661c-136.35 16.7461 -373.534 9.53418 -431.488 -46.5137zM294.151 382.35h179.331c0.115234 0.0556641 0.115234 0.0556641 30.4072 160.251
c-0.00488281 0.0322266 -0.0117188 0.0839844 -0.0185547 0.134766l-68.9502 -49.9697c-54.7031 113.235 -54.7031 113.235 -54.7637 113.305l-54.9023 -113.302l-69.4092 50.543c38.2275 -160.905 38.2275 -160.905 38.3057 -160.962zM309.836 402.717l-26.0986 99.9004
l11.3418 -8.30371s38.9629 -28.5264 38.9883 -28.5273c0.101562 0 0.101562 0 46.8701 98.0322l4.3877 -10.0029s40.5898 -92.5449 40.6543 -92.5664c1.3418 0.993164 37.2725 27.6084 37.2725 27.6084l11.2852 8.35938l-24.2998 -95.4004zM275.071 331.562
c-0.256836 0 -3.00781 -0.262695 -3.00781 -3.00098v-14.6084c0 -0.0322266 0.142578 -3.00098 3.00098 -3.00098h192.936v-76.9521h-192.936c-0.0283203 0 -3.00098 -0.141602 -3.00098 -3.00098v-14.6094c0 -1.14844 0.871094 -2.99414 2.99121 -3.00098l218.54 -0.737305
c0.373047 0 3.00391 0.322266 3.00195 3.05273l-1.94238 111.679c-0.0283203 1.60059 -1.31543 2.94043 -2.98438 2.9502z" />
  </g>

</svg>
