<?xml version="1.0" standalone="no"?>
<!DOCTYPE svg PUBLIC "-//W3C//DTD SVG 1.1//EN" "http://www.w3.org/Graphics/SVG/1.1/DTD/svg11.dtd" >
<svg xmlns="http://www.w3.org/2000/svg" xmlns:xlink="http://www.w3.org/1999/xlink" version="1.1" viewBox="-10 0 1013 1000">
  <g transform="matrix(1 0 0 -1 0 800)">
   <path fill="currentColor"
d="M444 389l-116.681 105.696l18.9072 13.9258l90.4043 -83.0371l161.203 204.191l25.6836 -11.8018zM34.3545 -40.4795h55.5146l17.1611 52.2256l17.1602 -52.2256h55.5156l-44.8672 -32.2959l17.1611 -52.2246l-44.9697 32.2959l-44.9707 -32.2959l17.1611 52.2246z
M283.002 194.105c0 10.2529 8.34154 18.5409 18.6111 18.5409c-0.0359334 0 77.6333 -0.314138 96.0416 -0.388607l69.3016 62.7c1.73204 -13.6351 3.52909 -27.2052 5.22048 -40.8809l1.47768 -27.3371l201.669 4.39453c10.212 0.222332 18.7271 -8.15937 18.7271 -18.5376
v-82.8304l64.0703 -74.6007c-63.7929 3.53371 -63.7929 3.53371 -65.7931 3.81945l1.72212 -146.376c0.119854 -10.2486 -8.26645 -18.6578 -18.6103 -18.6578c0.0406496 -8.2007e-05 -373.898 1.50871 -373.898 1.50871c-10.2206 0 -18.54 8.31549 -18.54 18.54v300.105z
M330.088 -77.5292l317.186 -1.36268l3.55372 114.714c-15.5284 -2.38898 -15.5284 -2.38898 -16.9574 -2.19952l-51.682 6.85197l64.7795 71.0442v52.693l-171.098 2.19838c-0.687012 -21.2974 -0.687012 -21.2974 -2.93023 -65.0101l-75.6552 63.7993l-67.1968 0.288064
v-243.017z" />
  </g>

</svg>
