<?xml version="1.0" standalone="no"?>
<!DOCTYPE svg PUBLIC "-//W3C//DTD SVG 1.1//EN" "http://www.w3.org/Graphics/SVG/1.1/DTD/svg11.dtd" >
<svg xmlns="http://www.w3.org/2000/svg" xmlns:xlink="http://www.w3.org/1999/xlink" version="1.1" viewBox="-10 0 1012 1000">
  <g transform="matrix(1 0 0 -1 0 800)">
   <path fill="currentColor"
d="M828.399 483.872c0 9.49878 0.360099 25.4826 0.360099 28.905l-0.318652 61.3747l-8.69455 54.78l-24.0577 41.7601l-29.8355 19.1251l-33.9409 8.02542l-47.9505 1.85133v0.765382l-107.704 8.96128l-161.614 -4.8437l-135.511 -48.0118l4.97421 -24.8711
l90.1513 34.2037l168.519 13.9909l163.859 -8.05849l72.0585 -32.0852l24.6852 -76.5829c-11.2968 -92.7231 -11.5388 -94.7093 -10.6225 -98.1968c0.272553 -1.03738 0.408327 -1.98777 0.495372 -2.92219c0.487753 -0.641757 1.13403 -1.58506 1.4862 -2.05622
l30.4464 -40.7334l38.0432 -60.0682l23.93 -33.502l-96.7113 -80.2498l-3.19974 -219.288c0.962733 -7.56244 2.78458 -22.0112 5.01798 -45.877c-0.12894 -0.269919 -9.65147 -20.9678 -12.8349 -27.02c-1.80565 -3.43278 -3.36365 -6.39475 -8.94453 -11.1259
c-28.726 -6.87192 -37.6748 -9.01268 -53.7943 -9.01268c-3.38415 0 -6.77838 0.14333 -10.1737 0.446144l-127.95 -3.2205l-189.706 31.9736l-119.91 72.0259l-21.8729 31.5454c-0.18608 0.126152 -14.9542 10.3475 -18.5829 12.6523v-31.4635
c5.41685 -3.87145 13.5068 -7.36272 24.4398 -17.2503c7.32645 -6.62591 2.09556 -4.45645 10.6241 -11.9264c1.03002 -0.902171 1.03002 -0.902171 17.2005 -21.8062l70.2643 -41.1391l123.979 -35.7692l40.8353 -3.74581
c52.8258 -4.90757 59.0669 -6.73248 83.0467 -7.42728l68.08 -1.97257l89.7606 0.254271l51.1066 12.4914l15.1376 25.2075l6.27671 34.16l-0.268638 82.9487l0.0291888 84.2282l-0.00582149 87.5189l84.7837 67.8016l7.68593 8.96692l1.11464 7.19504
c0.44913 7.61262 -1.52476 12.8022 -3.31214 18.1783l-23.3304 38.8443l-33.0243 43.448l-34.3179 48.9016c-0.202711 16.1296 -0.202711 16.1296 -0.202711 17.6951zM497.015 485.494c-116.622 0 -211.262 -94.629 -211.262 -211.248
c0 -116.615 94.6376 -211.247 211.247 -211.247c116.614 0 211.247 94.6376 211.247 211.247c-0.159309 116.463 -94.7815 211.088 -211.233 211.248zM480.058 232.15v-133.969c-20.7857 3.5914 -62.6447 13.76 -96.784 40.6123
c-7.44306 6.91088 -5.27915 7.35481 -12.6069 13.0652c-3.21331 2.50414 -3.9709 3.27541 -9.55481 10.3932l-0.689263 -0.69065c-9.8959 14.0036 -30.6625 43.3901 -39.7581 95.7428c131.278 0 131.278 0 136.275 -0.112
c1.2481 -1.69731 2.76204 -3.12878 3.82667 -5.00955c6.63428 -14.6797 7.75466 -17.1587 12.2936 -17.1587c3.01024 0 2.43096 -0.590994 4.2357 -1.49291zM480.058 450.582v-133.721c-1.5645 -4.00387 -1.5645 -4.00387 -3.17348 -5.29809
c-0.450799 -0.362608 -0.963 -0.767555 -1.84762 -1.65217c-2.42603 -2.42603 -2.35638 -1.13045 -5.1123 -3.88574c-4.96097 -4.96097 -4.79801 -1.70184 -9.6456 -8.66203c-0.947471 -1.36012 -1.85033 -2.43361 -3.39332 -3.40989
c-0.240262 -0.154115 -0.240262 -0.154115 -2.23788 -2.76363h-133.723c4.32687 25.1867 14.085 59.5298 36.0686 90.8224c9.58684 14.3723 9.66726 14.4929 12.2194 14.7919c1.73054 2.34241 2.77457 5.23059 4.8352 7.29122
c2.86434 2.86434 5.89918 3.02918 7.06678 4.19637c2.04295 2.04295 2.04295 2.04295 3.17937 2.31309c14.8588 11.5074 46.4714 31.4009 95.7634 39.9777zM513.942 318.026v132.276c13.7135 -2.38142 60.0271 -12.0679 94.4055 -38.9349
c4.52072 -3.53298 3.42745 -0.866611 9.41989 -6.54134c5.40863 -5.12187 3.31559 -1.60577 5.26952 -4.44577c4.18108 -6.07712 7.68206 -8.27366 12.2477 -11.1382l-1.60419 -2.47622c9.41254 -13.0822 30.4676 -42.346 39.6804 -95.7166h-134.746
c-0.00393825 1.32839 -1.28984 0.683776 -2.24113 0.554127c-3.34897 8.06906 -6.2254 10.7833 -6.27721 10.8979c-12.2401 12.2419 -15.9966 15.3657 -16.1546 15.5246zM464.365 243.51c-2.98562 -1.33496 -6.17081 -3.32004 -9.03243 -4.25108l-15.8955 26.2762
c24.4272 -20.7401 24.4272 -20.7401 24.9279 -22.0252zM537.432 257.304h135.643c-5.47151 -31.8496 -15.6037 -58.1276 -30.3918 -82.1741l2.48966 0.205597c-9.22285 -15.4743 -12.1757 -20.4287 -18.5587 -22.2966
c-2.12531 -2.34339 -5.31797 -6.06799 -5.37602 -6.12519c-4.32797 -4.26419 -6.11954 -2.24717 -10.1823 -7.50297c-0.645942 -0.83551 -32.9769 -30.3569 -97.1135 -41.4988v135.073c1.17628 0.0656071 1.49905 0.984722 1.27832 2.44734
c3.93617 1.44161 11.7585 4.56955 14.8859 7.69696c0.112824 0.112824 4.52656 5.21934 7.32514 14.1748zM33.2949 712.521h55.5146l17.1611 52.2256l17.1602 -52.2256h55.5156l-44.8672 -32.2959l17.1611 -52.2246l-44.9697 32.2959l-44.9707 -32.2959l17.1611 52.2246z
" />
  </g>

</svg>
