<?xml version="1.0" standalone="no"?>
<!DOCTYPE svg PUBLIC "-//W3C//DTD SVG 1.1//EN" "http://www.w3.org/Graphics/SVG/1.1/DTD/svg11.dtd" >
<svg xmlns="http://www.w3.org/2000/svg" xmlns:xlink="http://www.w3.org/1999/xlink" version="1.1" viewBox="-10 0 1022 1000">
  <g transform="matrix(1 0 0 -1 0 800)">
   <path fill="currentColor"
d="M63.3545 -23.4795h55.5146l17.1611 52.2256l17.1602 -52.2256h55.5156l-44.8672 -32.2959l17.1611 -52.2246l-44.9697 32.2959l-44.9707 -32.2959l17.1611 52.2246zM884 430zM654.995 584.066zM612.229 505.335zM778.858 402.396zM778.559 392.835zM651.242 428.386z
M724.641 405.295zM924.849 523.136zM612.229 505.335zM924.849 523.136zM823.442 624.216c-16.1436 0 -29.8096 -6.2793 -36.7412 -13.2109c-2.63867 -2.6377 -1.96484 -2.77441 -3.05566 -3.17188c-4.90039 -1.78711 -9.70312 -2.43457 -14.0859 -2.43457
c-4.1377 0 -11.6562 0.611328 -19.7959 4.26855c-5.53125 6.7334 -14.8867 12.8613 -30.6152 12.8613c-23.6133 0 -50.541 -14.6162 -59.9053 -36.5146l-0.462891 -1.08203h-1.62891l-42.6631 -57.9678h-2.04199v-2.77246
c-0.276367 -0.375977 -0.552734 -0.750977 -0.829102 -1.12695h0.446289l-4.72559 -17.7188l-0.53125 0.0078125c-0.0957031 -1.81445 -0.266602 -2.85742 -0.839844 -5.11133h0.688477c-0.0166016 -2.00293 -0.0166016 -2.00293 -0.0166016 -2.20703
c0 -12.9541 5.58984 -39.1699 42.8477 -69.9834c39.3486 -32.5459 83.8486 -36.1348 120.739 -36.1348c60.4648 0 85.1162 7.57715 121.298 36.1689c44.2002 34.9258 44.9453 45.21 46.1621 70.7363l-1.23828 0.0205078
c-0.0742188 0.283203 -5.50391 22.4365 -7.42969 28.4004l-31.5898 53.9814c-3.56055 3.71582 -3.56055 3.71582 -3.91895 4.33105h-0.234375c-11.1064 11.3672 -34.3896 32.6387 -57.123 37.3525c-4.34961 0.902344 -8.60938 1.30762 -12.709 1.30762zM718.531 608.603
c3.39844 0 10.9512 0 19.5635 -5.92578l-0.0664062 -0.821289c0.49707 -0.204102 1.29395 -0.578125 2.06738 -1.3125c7.29688 -6.93457 18.5107 -10.1895 29.1582 -10.1895c9.91797 0 19.3428 2.82422 24.6494 8.13086c1.03223 1.0332 2.7002 2.69922 3.9873 6.58203
c5.46875 3.73047 14.1543 7.80176 26.0088 7.80176c15.7324 0 23.0869 -6.85059 28.7275 -12.1025c4.38281 -4.08203 10.1543 -9.4707 22.5684 -17.6836c0.474609 -0.103516 0.863281 -0.332031 1.1748 -0.68457l0.273438 0.0107422l35.501 -55.9961
c0 -0.0947266 -0.00292969 -0.191406 -0.00292969 -0.287109c2.54688 -9.53906 4.87207 -19.2998 7.32324 -28.9336c0.856445 -3.42383 1.33789 -6.59766 1.33789 -9.66992c0 -14.7422 -10.9668 -26.6865 -42.5625 -52.5049
c-29.1133 -23.7891 -50.1953 -31.9502 -113.733 -31.9502c-34.3975 0 -62.124 4.22559 -94.5049 26.8926c-39.916 27.9414 -45.2832 48.5186 -45.2832 66.8438c0 1.20801 0.0214844 2.39844 0.0556641 3.57031c1.99219 7.90527 4.15527 15.6377 6.21191 23.4775
l38.9023 55.0752c0.551758 -0.211914 1.10254 -0.424805 1.6543 -0.636719c1.31055 3.08594 3.54102 8.34375 9.59668 14.3984c9.75684 9.75684 24.1982 15.915 37.3916 15.915zM358.172 -31.1982c-3.5791 0 -6.66211 2.91797 -6.66211 6.66309v234.082
c0 3.59082 2.92773 6.66309 6.68555 6.66309c0 0 65.6543 -0.265625 77.9375 -0.314453l45.2266 40.918l2.12012 -16.5137l1.56055 -28.8594l164.853 3.59277c3.56934 0.078125 6.63672 -2.93164 6.63672 -6.66406v-67.499l39.9551 -46.5205l-30.4844 1.65039
l-10.9209 1.56055l1.4502 -123.273c0.0429688 -3.58105 -2.9375 -6.66211 -6.68555 -6.66211zM638.699 95.2207l-20.2793 -3.12012l-25.5264 3.38379l42.5088 46.6211v51.8232l-148.803 1.91211l-0.780273 -24.1807l-0.94043 -18.3311l-49.1611 41.457l-63.0791 0.270508
v-205.15l262.764 -1.12891zM752 450l-53.2236 52.2725l10.1377 10.4551l42.7686 -39.2842l76.0312 96.3076l11.4053 -7.91992zM424 378l-126.413 228.845l14.5918 6.16309l113.089 -194.255l103.056 196.08l19.7266 -7.98828z" />
  </g>

</svg>
