<?xml version="1.0" standalone="no"?>
<!DOCTYPE svg PUBLIC "-//W3C//DTD SVG 1.1//EN" "http://www.w3.org/Graphics/SVG/1.1/DTD/svg11.dtd" >
<svg xmlns="http://www.w3.org/2000/svg" xmlns:xlink="http://www.w3.org/1999/xlink" version="1.1" viewBox="-10 0 778 1000">
  <g transform="matrix(1 0 0 -1 0 800)">
   <path fill="currentColor"
d="M631.704 498.505h-332.97l-77.6465 196.094l143.49 -60.1504l93.9111 117.438l92.2334 -119.396l142.277 60.5098zM374.736 589.643l-87.7773 38.5605l40.4492 -92.8389l272.063 -0.974609l28.124 88.5049l-86.0654 -38.252l-81.583 104.823zM269.348 277.148
l-0.00683594 -0.289062c0.00292969 0.0966797 0.00683594 0.193359 0.00683594 0.289062zM218.21 439.628l0.0712891 -0.0839844c-0.0234375 0.0283203 -0.0712891 0.0839844 -0.0712891 0.0839844zM146.964 433.076l0.0751953 0.112305
c-0.0126953 -0.0185547 -0.0253906 -0.0371094 -0.0751953 -0.112305zM100.897 282.504l0.0205078 0.133789c-0.00683594 -0.0449219 -0.0205078 -0.0888672 -0.0205078 -0.133789zM105.188 265.164l-0.0966797 0.104492
c0.0322266 -0.0351562 0.0644531 -0.0693359 0.0966797 -0.104492zM108.987 262.28l-0.473633 0.140625c0.158203 -0.0498047 0.316406 -0.0976562 0.473633 -0.140625zM111.32 261.846l-0.100586 0.00976562c0.0185547 0 0.0371094 -0.00976562 0.100586 -0.00976562z
M188.9 455.502c-38.7656 3.5127 -54.7041 -38.2949 -69.7002 -97.9014c-11.541 -47.5156 -11.541 -47.5156 -15.7188 -63.1826l0.0224609 0.0927734c-0.0078125 -0.03125 -0.0224609 -0.0927734 -0.0224609 -0.0927734
c-2.94727 -12.1318 -5.38867 -22.1748 2.09961 -29.6631c2.75 -2.75 3.75977 -2.9375 11.5801 -3.28027c138.845 0.0605469 138.845 0.0605469 142.69 0.570312c3.31934 0.413086 11.6738 8.1416 8.90137 21.3057c-0.21582 1.08691 -17.252 75.4482 -27.0664 107.448
c-17.2285 55.5557 -37.7539 63.6641 -52.7861 64.7031zM256.526 232.274c-10.7891 -0.220703 -138.439 -0.214844 -139.838 -0.169922c-8.43848 0.271484 -20.1719 0.649414 -30.2061 11.7637c-2.93066 3.24707 -16.5576 19.8535 -12.2188 43.6035
c1.59961 8.75391 3.74902 17.5713 7.75488 32.248c17.1611 70.5996 21.8125 89.7354 34.666 116.074c10.5146 21.5117 33.7051 53.9043 76.6543 48.7686c50.9551 -5.64746 69.9502 -64.165 83.5605 -119c4.7832 -19.8828 9.66797 -39.7275 14.6777 -59.627
c4.38965 -18.2842 8.6377 -35.9785 -2.23633 -53.9697c-5.40918 -8.94824 -15.5586 -19.8799 -32.8145 -19.6914zM552.148 19.5488l-0.0078125 -0.289062c0.00292969 0.0957031 0.0078125 0.192383 0.0078125 0.289062zM501.011 182.028l0.0703125 -0.0839844
c-0.0224609 0.0273438 -0.0703125 0.0839844 -0.0703125 0.0839844zM429.765 175.476l0.0742188 0.113281c-0.0126953 -0.0185547 -0.0244141 -0.0380859 -0.0742188 -0.113281zM383.697 24.9043l0.0205078 0.133789
c-0.00683594 -0.0449219 -0.0205078 -0.0898438 -0.0205078 -0.133789zM387.987 7.56348l-0.0966797 0.105469zM391.787 4.67969l-0.473633 0.140625c0.158203 -0.0498047 0.316406 -0.0966797 0.473633 -0.140625zM394.12 4.24609l-0.100586 0.00878906
c0.0185547 0 0.0371094 -0.00878906 0.100586 -0.00878906zM471.7 197.902c-38.7656 3.5127 -54.7041 -38.2949 -69.7002 -97.9023c-11.541 -47.5146 -11.541 -47.5146 -15.7188 -63.1816l0.0224609 0.0917969
c-0.00683594 -0.0302734 -0.0224609 -0.0917969 -0.0224609 -0.0917969c-2.94727 -12.1318 -5.38867 -22.1748 2.10059 -29.6631c2.74902 -2.75 3.75977 -2.9375 11.5801 -3.28027c138.844 0.0595703 138.844 0.0595703 142.689 0.569336
c3.31934 0.414062 11.6738 8.1416 8.90137 21.3066c-0.21582 1.08691 -17.252 75.4473 -27.0664 107.448c-17.2275 55.5557 -37.7539 63.6631 -52.7861 64.7031zM539.326 -25.3252c-10.7891 -0.220703 -138.439 -0.214844 -139.838 -0.169922
c-8.43848 0.271484 -20.1719 0.649414 -30.2061 11.7637c-2.93066 3.24707 -16.5566 19.8525 -12.2188 43.6035c1.59961 8.75391 3.74902 17.5713 7.75488 32.248c17.1611 70.5986 21.8135 89.7354 34.666 116.074c10.5146 21.5117 33.7051 53.9033 76.6543 48.7686
c50.9561 -5.64844 69.9502 -64.165 83.5605 -119c4.7832 -19.8828 9.66797 -39.7275 14.6777 -59.627c4.38965 -18.2842 8.6377 -35.9795 -2.23633 -53.9697c-5.40918 -8.94824 -15.5586 -19.8809 -32.8145 -19.6914zM671.909 346.226zM493.465 409.727
c2.24023 0 4.48047 -0.853516 6.1875 -2.56055l14.7002 -14.7002c1.70703 -1.70801 2.56055 -3.94727 2.56055 -6.1875c0 -1.97754 -0.655273 -3.96191 -1.99512 -5.56543c-306.191 -366.247 -305.804 -365.124 -306.191 -366.247
c-0.788086 -2.28223 -3.94727 -2.56152 -6.1875 -2.56152c-2.23926 0 -4.47949 0.853516 -6.1875 2.56152l-14.6992 14.7002c-1.70801 1.70703 -2.56152 3.94727 -2.56152 6.18652c0 1.97754 0.645508 3.9707 1.99609 5.56543
c312.378 368.809 305.893 365.949 306.191 366.248c1.70703 1.70703 3.94727 2.56055 6.18652 2.56055zM1024.94 850.167z" />
  </g>

</svg>
