<?xml version="1.0" standalone="no"?>
<!DOCTYPE svg PUBLIC "-//W3C//DTD SVG 1.1//EN" "http://www.w3.org/Graphics/SVG/1.1/DTD/svg11.dtd" >
<svg xmlns="http://www.w3.org/2000/svg" xmlns:xlink="http://www.w3.org/1999/xlink" version="1.1" viewBox="-10 0 1001 1000">
  <g transform="matrix(1 0 0 -1 0 800)">
   <path fill="currentColor"
d="M524.354 233.668l-77.7871 70.4648l12.6045 9.28418l60.2695 -55.3584l107.469 136.128l17.1221 -7.86816zM708 203zM399.6 410.479zM342.007 304.453zM566.407 165.826zM566.002 152.951zM394.547 200.826zM493.391 169.73zM763.01 328.426zM342.007 304.453z
M763.01 328.426zM770.602 335.651c3.97656 -12.0449 6.53711 -25.0811 9.88184 -37.5674l2.33203 -0.0380859c-1.77344 -37.415 -2.44043 -51.5039 -63.1953 -99.5107c-45.207 -35.7227 -78.3037 -48.3047 -153.536 -49.1533
c-51.749 -0.583008 -117.655 1.35352 -175.434 49.1406c-22.7666 18.8291 -58.9072 55.2715 -58.5713 96.668h-1.62012c1.77051 6.63574 1.77051 6.63574 1.93848 11.7314l1.18555 -0.0205078l5.07324 19.0254h-2.22754c1.15625 1.57031 2.31348 3.14062 3.46973 4.71094
v5.34668h3.93457l57.4551 78.0645h1.82227c19.8789 46.4844 96.0342 68.877 125.613 32.8701c4.2002 -1.8877 23.248 -9.4873 43.3047 -2.1748c10.3311 13.8271 39.3594 27.1719 72.0254 20.3975c31.5947 -6.55078 63.4658 -35.9424 77.4482 -50.252h0.670898
c0.492188 -0.725586 0.830078 -1.55859 1.44922 -2.19434l4.39355 -4.58398l41.9521 -71.6865c0.625977 0.0527344 1.12012 0.0136719 1.02148 -0.44043zM361.306 297.701c-0.696289 -23.8564 1.94238 -52.2275 59.8818 -92.7852
c49.165 -34.416 89.9043 -36.8877 145.833 -35.5029c65.1641 1.67773 92.3545 10.0527 131.704 42.207c52.3262 42.7598 60.9961 56.1602 54.7041 81.2793l-8.32129 33.2168l-0.305664 -0.544922c0.0175781 2.00977 -1.32617 4.56641 -1.30859 6.57715l-46.6914 73.6426
c-1.25293 -0.0488281 -0.251953 1.08887 -1.50488 1.04004c-28.9014 19.0547 -31.9824 27.3096 -42.7783 33.6768c-16.624 9.80273 -42.1836 7.83008 -58.4551 -3.27539c-8.09961 -24.4014 -58.3574 -28.3115 -81.5146 -6.30762
c-2.1582 2.05078 -3.75098 0.910156 -3.54688 3.42578c-24.7539 17.0342 -71.1211 -0.126953 -84.2236 -30.9863l-1.58887 -3.74219l-2.64844 1.01953l-51.0615 -72.2891zM30.3242 741.553h55.5146l17.1611 52.2256l17.1602 -52.2256h55.5156l-44.8672 -32.2959
l17.1611 -52.2246l-44.9697 32.2959l-44.9707 -32.2959l17.1611 52.2246zM804 631c0 -96.6865 68.0879 -173.199 99.375 -191.775l11.1992 -6.64941c-16.9434 -0.478516 1.18945 0.900391 -34.5742 -3.5752l-1.0752 1.36426
c-22.0068 27.9238 -93.998 110.011 -106.903 207.233c-0.657227 4.95117 0.0224609 9.79688 0.582031 18.2783c-1.38379 0.708984 -2.88672 1.4873 -4.52246 2.34082c-0.0283203 -1.83984 -0.322266 -3.81641 -0.0449219 -5.88867
c33.3789 -249.661 97.5459 -216.742 97.5459 -216.742s6.91211 -4.29004 10.2793 -6.58594h-32.8613c-44.1455 16.1279 -101.697 151.17 -101.697 222.331c0 8.73535 0.302734 15.3135 0.785156 20.6846c-60.6641 32.3369 -181.179 64.7012 -284.885 64.7012
c-23.0527 0 -45.5234 -2.04883 -73.3945 -6.17773c-32.3232 -4.78906 -32.3232 -4.78906 -70.6152 -21.2002c-18.916 -8.10645 -50.2139 -47.4062 -58.166 -66.7188c-7.02734 -17.0664 -9.0791 -30.2676 -9.0791 -45.8906c0 -22.332 3.62891 -44.376 3.62891 -77.1553
c0 -8.99219 1.14648 -13.8564 1.14648 -20.1924c0 -4.57031 -0.613281 -9.64551 -2.73242 -16.6025c-19.9492 -65.4795 -40.3174 -87.0479 -63.832 -110.183c-6.25977 -6.16016 -27.0508 -26.6172 -27.0508 -37.7881c0 -4.45605 0.882812 -6.9082 38.3447 -19.4531
c55.9199 -18.7266 60.0254 -24.4102 60.0254 -90.9766c0 -43.0117 2.70801 -110.013 2.70801 -151.731c0 -5.5 0.0820312 -11.3867 0.267578 -17.7666c0.50293 -17.292 16.4512 -45.3398 23.8975 -57.5352c1.19629 -0.303711 1.95996 -1.18164 1.95996 -1.18164
c1.1543 -0.666992 2.48438 -1.60059 4.13477 -2.74414c16.0508 -11.1162 22.0049 -13.1846 40.8428 -13.1846c24.0361 0 22.3457 4.21484 79.0615 4.21484c0.316406 0 6.94531 -0.00390625 7.01562 -0.00390625c14.7988 0 25.668 0.226562 52.1025 3.80078
c20.2021 2.73242 38.8271 4.61572 56.5088 6.4043c120.938 12.2334 201.711 24.1475 280.178 80.1953c2.23438 1.5957 5.14355 3.85352 8.45703 6.42773c12.6104 9.7959 33.0303 26.8994 48.1416 26.8994c8.16699 0 13.834 -4.95996 13.834 -14.165
c0 -15.4473 -17.4082 -42.8486 -33.0938 -42.8486c-1.16406 0 -1.56543 0.129883 -3.01758 0.129883c-22.6426 0 -44.3604 -36.5264 -79.4766 -51.29c-52.8857 -22.2344 -138.298 -27.127 -175.459 -33.71c-17.2549 -3.05664 -36.6504 -6.49316 -61.8809 -12.2393
c-34.7246 -7.90918 -51.6299 -8.61133 -86.7539 -8.61133c-0.251953 0 -22.7891 0.03125 -25.0811 0.03125c-11.3115 0 -32.6182 -0.123047 -32.9473 -0.123047c-40.7773 0 -82.5049 2.86621 -120.91 24.8125c-26.0957 14.9121 -27.9092 36.1035 -30.0449 61.0586
c-0.477539 5.59082 -0.976562 11.3994 -1.75781 17.3906c-1.96484 15.7158 -2.63672 29.7119 -2.63672 42.8916c0 28.6572 -4.27441 100.664 -4.27441 131.409c0 46.4277 -4.59863 49 -29.7539 58.8145c-27.3184 10.6582 -57.2148 13.2568 -70.834 26.876
c-4.33008 4.33008 -6.66504 9.68945 -6.66504 16.1094c0 4.7959 1.30371 10.1846 4.05176 16.1768c36.4951 79.5967 68.6367 70.0742 91.3711 139.761c5.20312 15.9443 6.93652 32.2529 6.93652 48.6797c0 32.5635 -6.77832 65.1611 -6.77832 95.8125
c0 47.6494 17.2412 68.3838 35.0508 86.1934c66.2422 66.2412 143.674 66.3555 238.901 66.3555h0.988281c82.8154 0 190.135 -23.3467 246.021 -49.8477c43.5547 -20.6533 21.8506 -15.7109 32.4561 -16.8408c11.3984 -1.2168 39 -13 47.5039 -30.4053
c4.31641 -8.83496 -4.12305 -21.668 -4.50391 -29.5947c-0.257812 -5.36523 2 -14.3428 2 -20z" />
  </g>

</svg>
