<?xml version="1.0" standalone="no"?>
<!DOCTYPE svg PUBLIC "-//W3C//DTD SVG 1.1//EN" "http://www.w3.org/Graphics/SVG/1.1/DTD/svg11.dtd" >
<svg xmlns="http://www.w3.org/2000/svg" xmlns:xlink="http://www.w3.org/1999/xlink" version="1.1" viewBox="-10 0 1006 1000">
  <g transform="matrix(1 0 0 -1 0 800)">
   <path fill="currentColor"
d="M42.5107 742.134h55.5146l17.1611 52.2256l17.1602 -52.2256h55.5156l-44.8672 -32.2959l17.1611 -52.2246l-44.9697 32.2959l-44.9707 -32.2959l17.1611 52.2246zM265.156 626.613l-12 60c128.725 89.7881 355.203 55.3633 442.457 48.5605
c0 -0.0107422 0.000976562 -0.0214844 0.000976562 -0.0322266c27.4463 0.582031 75.1855 -1.32129 107.268 -33.4033c40.1396 -40.1396 38.6152 -108.841 37.5254 -169.365c-0.395508 -21.9258 -0.433594 -33.2402 -0.22168 -41.9463
c26.3789 -43.8281 72.168 -89.959 89.3252 -129.607c6.95117 -16.0635 5.49219 -24.7637 2.64551 -40.2051l-12 -14l-79.501 -63.5771v-212.431c1.93945 -31.0869 1.82422 -79.2412 -27.416 -108.48c-26.0322 -26.0322 -182.507 -12.0195 -220.584 -13.0049
l-2.90137 0.0126953c-103.732 -7.2998 -296.108 50.6025 -326.603 92.1719c-18.5059 25.2275 -31.4014 41.2529 -57.9951 55.3086v70.0371c25.8174 -16.2627 49.624 -17.8066 70.1904 -60.6357c44.2188 -92.082 349.455 -105.734 451.309 -108.438l-0.499023 -0.962891
c50 12 34.1514 4.48145 42.5352 13.5361c19.1768 20.7119 3.97852 41.9688 5.50781 57.9648h-0.541992v2.14941c-0.253906 0.990234 -0.500977 1.94141 -0.738281 2.84863h0.738281v207.174v3.4873v1.33887h1.58203l104 88h1.13281
c4.9834 45.8955 -62.8379 92.1289 -94.2158 139.501l-3 4l-1 1c-2.02051 3.99219 0.0439453 4.02539 -2.08398 11.5605c-0.0371094 0.130859 -0.189453 0.24707 -0.174805 0.367188l0.258789 2.07227l0.0644531 1.49902
c0.00976562 0.226562 0.150391 3.89551 0.242188 6.24414c3.11426 79.1523 5.19727 173.389 -83.8154 173.771c-136.35 16.7461 -373.536 9.53418 -431.49 -46.5137zM561.92 299.988l61.0801 -59.9883l87.2881 112.046l-18.9561 12.624l-69.1494 -87.5879l-43.6035 41.7002z
M433.752 568.94c2.48438 -44.1348 -18.4883 -169.854 -6.15137 -176.452c12.1123 -130.223 138.19 -251.894 138.351 -247.2l-21.3633 -14.2402c-48.0645 52.4248 -101.694 104.309 -142.561 246.365c-9.09961 -62.5498 -48.1699 -132.608 -83.2754 -177.191
c-21.3604 -27.127 -30.5186 -48.8291 -48.8301 -69.1738l-24.4141 19.3271c27.4658 35.6045 42.8828 58.5537 61.0371 82.4004c92.6865 121.751 96.5635 281.606 95.8438 366.292c8.62598 -0.191406 17.25 -0.379883 25.875 -0.571289
c4.85254 -0.104492 5.05078 -4.82031 5.13477 -6.83594c0.00976562 -0.225586 -0.316406 -10.8232 0.353516 -22.7197zM654.693 645.571l-179.783 -202.856l23.5557 -18.7715l153.148 177.942c12.7207 -21.0938 30.874 -46.0303 36.918 -62.4004l42.9756 61.2773z" />
  </g>

</svg>
