<?xml version="1.0" standalone="no"?>
<!DOCTYPE svg PUBLIC "-//W3C//DTD SVG 1.1//EN" "http://www.w3.org/Graphics/SVG/1.1/DTD/svg11.dtd" >
<svg xmlns="http://www.w3.org/2000/svg" xmlns:xlink="http://www.w3.org/1999/xlink" version="1.1" viewBox="-10 0 1051 1000">
  <g transform="matrix(1 0 0 -1 0 800)">
   <path fill="currentColor"
d="M828.399 483.872c0 9.49878 0.360099 25.4826 0.360099 28.905l-0.318652 61.3747l-8.69455 54.78l-24.0577 41.7601l-29.8355 19.1251l-33.9409 8.02542l-47.9505 1.85133v0.765382l-107.704 8.96128l-161.614 -4.8437l-135.511 -48.0118l4.97421 -24.8711
l90.1513 34.2037l168.519 13.9909l163.859 -8.05849l72.0585 -32.0852l24.6852 -76.5829c-11.2968 -92.7231 -11.5388 -94.7093 -10.6225 -98.1968c0.272553 -1.03738 0.408327 -1.98777 0.495372 -2.92219c0.487753 -0.641757 1.13403 -1.58506 1.4862 -2.05622
l30.4464 -40.7334l38.0432 -60.0682l23.93 -33.502l-96.7113 -80.2498l-3.19974 -219.288c0.962733 -7.56244 2.78458 -22.0112 5.01798 -45.877c-0.12894 -0.269919 -9.65147 -20.9678 -12.8349 -27.02c-1.80565 -3.43278 -3.36365 -6.39475 -8.94453 -11.1259
c-28.726 -6.87192 -37.6748 -9.01268 -53.7943 -9.01268c-3.38415 0 -6.77838 0.14333 -10.1737 0.446144l-127.95 -3.2205l-189.706 31.9736l-119.91 72.0259l-21.8729 31.5454c-0.18608 0.126152 -14.9542 10.3475 -18.5829 12.6523v-31.4635
c5.41685 -3.87145 13.5068 -7.36272 24.4398 -17.2503c7.32645 -6.62591 2.09556 -4.45645 10.6241 -11.9264c1.03002 -0.902171 1.03002 -0.902171 17.2005 -21.8062l70.2643 -41.1391l123.979 -35.7692l40.8353 -3.74581
c52.8258 -4.90757 59.0669 -6.73248 83.0467 -7.42728l68.08 -1.97257l89.7606 0.254271l51.1066 12.4914l15.1376 25.2075l6.27671 34.16l-0.268638 82.9487l0.0291888 84.2282l-0.00582149 87.5189l84.7837 67.8016l7.68593 8.96692l1.11464 7.19504
c0.44913 7.61262 -1.52476 12.8022 -3.31214 18.1783l-23.3304 38.8443l-33.0243 43.448l-34.3179 48.9016c-0.202711 16.1296 -0.202711 16.1296 -0.202711 17.6951zM33.2949 712.521h55.5146l17.1611 52.2256l17.1602 -52.2256h55.5156l-44.8672 -32.2959
l17.1611 -52.2246l-44.9697 32.2959l-44.9707 -32.2959l17.1611 52.2246zM479.129 468.747zM627.669 469.755c-0.983028 0.781381 -91.6901 81.3727 -93.7197 83.5801c-0.143376 -0.124214 -0.648899 -1.47836 -12.7363 -14.0586
c0.443359 -0.399414 0.443359 -0.399414 3.20801 -2.5752l67.8418 -58.0674l-121.137 -1.6416l-65.4492 61.8018l-8.64453 -9.61035l54.4209 -51.9463c-6.77344 -0.00878906 -13.5479 -0.0175781 -20.3213 -0.0263672h-133.406l0.107422 -15.2188
c2.17188 0.0292969 2.17188 0.0292969 153.753 -1.90039l-58.7637 -48.8604l9.10742 -9.85059l66.7734 57.6963c0.974609 0.322266 0.974609 0.322266 1.87695 0.68457l121.42 1.23828c-0.660461 -0.543661 -65.5414 -53.9076 -66.0469 -54.3652l0.361328 0.327148
c-1.14578 -1.00917 -2.35702 -1.95287 -3.5293 -2.93555c1.35449 -1.92676 1.68457 -1.55078 2.79492 -2.75098l7.34375 -7.94238c-0.0107422 -0.126953 0.0136719 -0.269531 0 0l2.9209 -3.15918c35.4464 30.3261 90.8913 78.8024 91.8242 79.5811zM404.4 252.453z
M404.232 250.473zM481.771 169.934c15.7763 9.68368 41.459 25.448 41.459 59.9268c0 32.9558 -25.042 50.5982 -38.2988 55.8193l-18.7344 7.37891c23.1406 -3.99707 23.1406 -3.99707 26.1797 -4.90332c0.980122 0.333414 55.4091 -5.5345 85.7227 -58.0488
c-13.3916 -23.2471 -36.2881 -49.4736 -85.7051 -58.2793zM509.753 230.037c0 -26.2924 -21.5119 -46.7812 -47.5889 -46.7812c-28.5802 0 -57.9008 26.349 -43.9238 65.0127l0.469727 -0.173828c9.55273 14.0986 9.55273 14.0986 10.1113 14.9121
c14.9297 9.77344 14.9297 9.77344 15.127 9.79883c30.5675 12.8544 65.6903 -9.22341 65.8047 -42.7686zM327.702 230.106c16.1654 -28.3412 55.3889 -75.5537 137.293 -75.5537c33.2464 0 99.6445 9.01549 136.995 75.5527
c-7.33301 13.0166 -43.0137 75.7354 -136.995 75.7354c-17.1146 0 -94.3854 -0.488825 -137.293 -75.7344zM437.623 284.45c-14.9405 -5.61664 -28.0409 -19.7882 -32.5547 -32.3271c0.106445 -0.518555 0.0322266 -1.03418 -0.107422 -1.39844
c-11.4843 -30.0707 3.09549 -61.3043 29.541 -74.2773l14.502 -7.11426l-15.8281 3.24219c-26.0291 5.333 -59.7087 19.7709 -81.5869 57.5303c9.63672 16.6992 31.1191 48.5176 84.9346 58.3037z" />
  </g>

</svg>
