<?xml version="1.0" standalone="no"?>
<!DOCTYPE svg PUBLIC "-//W3C//DTD SVG 1.1//EN" "http://www.w3.org/Graphics/SVG/1.1/DTD/svg11.dtd" >
<svg xmlns="http://www.w3.org/2000/svg" xmlns:xlink="http://www.w3.org/1999/xlink" version="1.1" viewBox="-10 0 1020 1000">
  <g transform="matrix(1 0 0 -1 0 800)">
   <path fill="currentColor"
d="M56.5039 -102.984h42.7031l13.2012 40.1738l13.2002 -40.1738h42.7041l-34.5127 -24.8428l13.2002 -40.1729l-34.5918 24.8428l-34.5928 -24.8428l13.2012 40.1729zM767.406 257.387l0.351562 -17.4639c-2.38379 0.0517578 -6.25 0.0947266 -8.63184 0.0947266
c-21.6357 0 -25.4121 2.56055 -46.6279 -1.67969c-23.2744 -4.74219 -54.8857 -23.0762 -70.5596 -40.9248c-12.4248 -16.8555 -23.1729 -47.5186 -23.9902 -68.4434c-0.0615234 -2.3877 -0.108398 -6.26465 -0.108398 -8.65234
c0 -14.8379 1.86523 -38.7803 4.16504 -53.4395c6.1748 -49.9219 12.5244 -101.431 -31.3994 -142.885c-16.4229 -14.5605 -47.4004 -28.7871 -69.1484 -31.752c-11.7188 -1.85449 -30.8574 -3.3584 -42.7227 -3.3584c-0.524414 0 -1.38086 0.00292969 -1.90723 0.00683594
c-12.3467 0 -24.3418 1.41113 -35.2793 1.41113l1.23535 17.6406c8.32227 -0.758789 21.8623 -1.37207 30.2207 -1.37207c12.6533 0 33.0957 1.4043 45.6309 3.13574c18.8232 2.48535 45.6924 14.6553 59.9756 27.166c37.3975 35.2793 31.752 80.2607 25.9316 127.889
c-2.32617 15.0176 -4.21289 39.5391 -4.21289 54.7373c0 2.90723 0.0703125 7.625 0.154297 10.5312c0.858398 23.9736 13.2656 58.9824 27.6963 78.1445c17.708 20.4756 53.584 41.5762 80.085 47.0996c22.2988 4.52734 27.8623 2.20312 50.6162 2.20312
c2.35352 0 6.17285 -0.0888672 8.52539 -0.0888672zM467.831 163.897c6.35156 -51.5098 12.8779 -104.429 -31.9297 -146.06c-16.7617 -14.8525 -48.373 -29.3926 -70.5586 -32.458c-12.167 -1.9502 -32.041 -3.53223 -44.3633 -3.53223
c-0.462891 0 -1.21387 0.00195312 -1.67676 0.00488281c-11.8193 0 -23.9902 1.41113 -35.2793 1.41113l1.2334 17.6406c8.55859 -0.779297 22.4785 -1.41113 31.0713 -1.41113c12.9062 0 33.7598 1.4209 46.5449 3.1748c19.2666 2.5752 46.7666 15.0615 61.3877 27.8701
c38.4551 36.1631 32.6348 82.2031 26.6367 131.066c-2.41895 15.499 -4.38086 40.8105 -4.38086 56.4961c0 2.86035 0.0664062 7.5 0.145508 10.3584c0.862305 24.5791 13.584 60.457 28.4014 80.085c18.083 20.9541 54.752 42.5303 81.8506 48.1592
c22.7969 4.62695 60.1807 8.38281 83.4453 8.38281c2.43164 0 6.37988 -0.0410156 8.81152 -0.0927734v-17.6396c-2.41309 0.0517578 -6.33203 0.09375 -8.74609 0.09375c-22.1436 0 -57.7393 -3.51953 -79.4551 -7.85547
c-23.8223 -4.86719 -56.1436 -23.6777 -72.1455 -41.9834c-12.9355 -17.2295 -24.1582 -48.6807 -25.0488 -70.207c-0.0703125 -2.58105 -0.125 -6.76953 -0.125 -9.34961c0 -15.0361 1.87207 -39.2969 4.18066 -54.1543zM518.817 730.081h4.96777l0.605469 -95.2715
h77.4746v91.0361h41.4648v-91.0361h81.0381v-55.8096h-424.368v55.8096h76.6562l2.41504 99.5049h37.4277l-2.85742 -99.5049h72.7832l-0.0390625 95.2715h5.00098h27.4307z" />
  </g>

</svg>
