<?xml version="1.0" standalone="no"?>
<!DOCTYPE svg PUBLIC "-//W3C//DTD SVG 1.1//EN" "http://www.w3.org/Graphics/SVG/1.1/DTD/svg11.dtd" >
<svg xmlns="http://www.w3.org/2000/svg" xmlns:xlink="http://www.w3.org/1999/xlink" version="1.1" viewBox="-10 0 1051 1000">
  <g transform="matrix(1 0 0 -1 0 800)">
   <path fill="currentColor"
d="M271 608l-12 60c128.725 89.7881 355.203 55.3633 442.457 48.5605c0 -0.0107422 0.000976562 -0.0214844 0.000976562 -0.0322266c27.4463 0.582031 75.1855 -1.32129 107.268 -33.4033c40.1396 -40.1396 38.6152 -108.841 37.5254 -169.365
c-0.395508 -21.9258 -0.433594 -33.2402 -0.22168 -41.9463c26.3789 -43.8281 72.168 -89.959 89.3252 -129.607c6.95117 -16.0635 5.49219 -24.7637 2.64551 -40.2051l-12 -14l-79.501 -63.5771v-212.431c1.93945 -31.0869 1.82422 -79.2412 -27.416 -108.48
c-26.0322 -26.0322 -182.507 -12.0195 -220.584 -13.0049l-2.90137 0.0126953c-103.732 -7.2998 -296.108 50.6025 -326.603 92.1719c-18.5059 25.2275 -31.4014 41.2529 -57.9951 55.3086v70.0371c25.8174 -16.2627 49.624 -17.8066 70.1904 -60.6357
c44.2188 -92.082 349.455 -105.734 451.309 -108.438l-0.499023 -0.962891c50 12 34.1514 4.48145 42.5352 13.5361c19.1768 20.7119 3.97852 41.9688 5.50781 57.9648h-0.541992v2.14941c-0.253906 0.990234 -0.500977 1.94141 -0.738281 2.84863h0.738281v207.174v3.4873
v1.33887h1.58203l104 88h1.13281c4.9834 45.8955 -62.8379 92.1289 -94.2158 139.501l-3 4l-1 1c-2.02051 3.99219 0.0439453 4.02539 -2.08398 11.5605c-0.0371094 0.130859 -0.189453 0.24707 -0.174805 0.367188l0.258789 2.07227l0.0644531 1.49902
c0.00976562 0.226562 0.150391 3.89551 0.242188 6.24414c3.11426 79.1523 14.1973 176.389 -74.8154 176.771c-136.35 16.7461 -373.536 9.53418 -431.49 -46.5137zM30.3545 728.521h55.5146l17.1611 52.2256l17.1602 -52.2256h55.5156l-44.8672 -32.2959l17.1611 -52.2246
l-44.9697 32.2959l-44.9707 -32.2959l17.1611 52.2246zM489.238 59.7236c40.207 0.140625 80.4131 0.140625 120.619 0c2.64551 0.0517578 5.28906 0.103516 7.93066 0.161133c9.74316 -0.150391 17.7773 4.4541 23.3613 14.248
c5.03125 8.82422 7.6084 20.1191 6.53809 25.3877c-0.486328 2.4541 -4.19531 13.4502 -5.40918 18.2812c-4.60352 18.2734 -9.11035 36.5859 -13.5234 54.9346c-2.62109 10.5605 -5.5127 20.998 -8.66797 31.3135c-3.29004 10.6426 -7.25 20.8643 -11.875 30.6641
c-4.0791 8.4248 -9.00488 16.0264 -14.7812 22.8086c-9.87793 11.0322 -21.4639 17.2803 -34.7588 18.7451c-9.07227 1.08984 -17.9717 0.00683594 -26.7002 -3.25098c-7.99219 -3.25488 -15.0986 -8.3457 -21.3232 -15.2783
c-5.64844 -6.49609 -10.458 -13.8096 -14.4326 -21.9385c-3.60742 -7.39355 -6.7832 -15.0859 -9.53418 -23.0811c-2.74121 -8 -5.22559 -16.125 -7.45605 -24.3799c-1.66992 -6.22949 -3.28809 -12.4775 -4.85352 -18.7451
c-3.15234 -13.0859 -6.33105 -26.1592 -9.53516 -39.2246c-1.63086 -5.9668 -3.18945 -11.9629 -4.68066 -17.9863c-0.874023 -3.6875 -1.65625 -7.41016 -2.34082 -11.1611c-1.83984 -13.292 1.26855 -24.3984 9.31836 -33.3184
c2.70312 -2.8291 5.73535 -4.95801 9.10156 -6.39355c1.84473 -0.655273 3.72363 -1.08789 5.63672 -1.30078c2.46582 -0.244141 4.91895 -0.40918 7.36621 -0.485352v0zM489.238 70.667c-1.98047 0.0839844 -3.97656 0.210938 -5.98145 0.379883
c-1.43652 0.135742 -2.85059 0.423828 -4.24707 0.864258c-2.48535 1.10156 -4.70801 2.72852 -6.67578 4.87598c-5.30469 6.20996 -7.25488 13.7773 -5.84863 22.7012c0.743164 3.89746 1.5791 7.76172 2.5127 11.5928c1.71094 6.41406 3.38672 12.8438 5.02734 19.2881
c3.13672 12.9727 6.28516 25.9375 9.44922 38.8984c1.54883 6.16797 3.16602 12.3076 4.85352 18.4219c3.02344 11.0156 6.60742 21.7432 10.749 32.1777c3.09277 7.66895 6.79199 14.8223 11.0928 21.4561c11.9395 17.7939 27.2393 25.8662 45.9004 24.2158
c12.6611 -0.873047 23.5547 -6.72656 32.6816 -17.5518c5.01953 -6.27344 9.31055 -13.2275 12.8711 -20.8584c3.94043 -8.63379 7.35059 -17.5898 10.2285 -26.874c2.95508 -9.6377 5.67188 -19.3896 8.14844 -29.2549c3.26172 -13.2793 6.5 -26.5723 9.70703 -39.8711
c1.21484 -4.76758 2.42773 -9.53516 3.6416 -14.3047c1.33594 -5.41016 2.5498 -10.8633 3.6416 -16.3613c0.539062 -2.55957 0.771484 -5.1582 0.694336 -7.7998c-0.801758 -8.30957 -4.05273 -14.6113 -9.75293 -18.9092
c-1.84375 -1.39258 -3.83691 -2.22559 -5.98242 -2.49219c-3.05273 -0.405273 -6.11328 -0.583008 -9.18848 -0.541016c-41.1738 -0.0537109 -82.3486 -0.0742188 -123.522 -0.0537109v0zM605.61 598.48v-78.3008h9.24023v78.3008h-9.24023zM532.051 600.46v-60.2998
h8.09961v60.2998h-8.09961zM468.181 600.46l9.89941 -0.479492v-75.6006l-9.89941 0.479492v75.6006zM540.69 543.07c69.1807 0 125.49 -45.9307 125.49 -102.421c0 -56.4893 -56.3398 -102.51 -125.49 -102.51c-69.1504 0 -125.49 45.9307 -125.49 102.45
s56.3398 102.48 125.49 102.48zM657.871 440.56c0 51.9004 -52.5928 94.1299 -117.181 93.5703c-62.0898 -0.537109 -116.771 -42.2314 -117.15 -94.0801c-0.379883 -51.9287 52.5908 -93.5693 117.15 -93.5693c64.5898 0 117.181 42.1797 117.181 94.0791zM481.44 435.58
c15.1807 -58.3799 102.69 -55.7998 118.56 0.419922l8.34082 -2.33984c-17.79 -64.0205 -118.83 -66.8701 -135.24 0z" />
  </g>

</svg>
