<?xml version="1.0" standalone="no"?>
<!DOCTYPE svg PUBLIC "-//W3C//DTD SVG 1.1//EN" "http://www.w3.org/Graphics/SVG/1.1/DTD/svg11.dtd" >
<svg xmlns="http://www.w3.org/2000/svg" xmlns:xlink="http://www.w3.org/1999/xlink" version="1.1" viewBox="-10 0 1008 1000">
  <g transform="matrix(1 0 0 -1 0 800)">
   <path fill="currentColor"
d="M332.481 97.6934l-82.2217 148.848l24.0225 10.1475l58.4395 -100.383l53.3027 101.418l27.2285 -11.0254zM249.568 -67.707v34.6641h38.626v22.0713h-38.626v34.6641h38.626v33.7148h31.3828v-33.7148h23.2197v31.2539h31.3828v-31.2539h41.292v-34.6641h-41.292
v-22.0713h41.292v-34.6641h-41.292v-36.1855h-31.3828v36.1855h-23.2197v-33.7246h-31.3828v33.7246h-38.626zM319.577 -33.043h23.2197v22.0713h-23.2197v-22.0713zM764.659 223.904c-0.529297 0 -0.985352 0.173828 -1.32227 0.358398l-214.094 -88.2627v-37.8242
c12.126 5.10742 24.251 10.2148 36.376 15.3213v-3.77051l-0.21875 -161.659h318.305l0.646484 155.446c10.9619 -6.48535 21.9238 -12.9697 32.8867 -19.4551l-0.677734 40.7051l-136.33 79.1182l1.46387 0.616211c-22.6963 11.7715 -24.457 12.7314 -36.2109 19.5508
c-0.288086 -0.102539 -0.56543 -0.144531 -0.824219 -0.144531zM868.594 -16.7148h-248.003l-0.665039 144.662l142.009 59.8174l107.859 -63.8086zM38.3545 -39.4795h55.5146l17.1611 52.2256l17.1602 -52.2256h55.5156l-44.8672 -32.2959l17.1611 -52.2246
l-44.9697 32.2959l-44.9707 -32.2959l17.1611 52.2246zM733.109 653.342c0 2.40234 -0.15332 2.87012 -0.15332 5.9541c0 0.737305 0.015625 1.56738 0.015625 1.58398c0 3.12793 -1.91211 6.38574 -5.90625 6.47168c-6.35449 0.140625 -6.35449 0.140625 -6.4082 0.140625
c-2.57227 0 -4.75879 -2.05859 -4.75781 -4.7998c0.00878906 -1.00977 0.0146484 -2.06055 0.0146484 -3.15039c0 -21.0352 -2.02148 -56.4092 -22.3994 -83.1758c-2.0498 -2.69531 -10.0752 -13.8613 -14.8525 -20.0537
c-0.658203 -0.853516 -0.986328 -1.87793 -0.986328 -2.90332c0 -1.21875 0.463867 -2.4375 1.39258 -3.36621c0.0810547 -0.0810547 0.100586 -0.121094 6.36426 -5.0791c0.861328 -0.682617 1.90527 -1.02344 2.9502 -1.02344c2.74609 0 4.40625 1.79102 9.80176 10.2021
c1.75391 2.7334 3.63281 5.66992 5.83789 8.4707c5.25879 6.67773 10.8457 15.4639 15.041 24.9395c0.0722656 0.163086 0.608398 1.26367 1.94238 1.26367c0.874023 0 1.63086 -0.529297 1.95508 -1.29199c8.45996 -19.8994 17.3027 -29.4922 28.8408 -42.0469
c0.464844 -0.507812 1.6377 -1.53613 3.50781 -1.53613c1.44043 0 1.44043 0 7.83789 4.26465c0.420898 0.280273 1.73828 1.31445 1.73828 3.25c0 0.0439453 -0.0888672 2.88867 -1.34863 4.20117c-7.41016 6.2168 -29.6416 31.8525 -31.9971 57.1875
c-0.240234 2.5791 -0.90918 0.211914 -0.90918 4.70996c0 9.19824 2.47852 25.916 2.47852 35.7871zM802.81 516.49c0 2.40137 -0.15332 2.87207 -0.15332 5.96191c0 0.736328 0.015625 1.5625 0.015625 1.57812c0 3.12793 -1.91211 6.38672 -5.90625 6.47168
c-6.35547 0.139648 -6.35547 0.139648 -6.40918 0.139648c-2.57227 0 -4.75684 -2.05957 -4.75684 -4.79883c0.00878906 -1.00879 0.0136719 -2.06055 0.0136719 -3.15039c0 -21.0342 -2.02051 -56.4102 -22.3975 -83.1768
c-0.151367 -0.198242 -11.4697 -15.666 -14.8535 -20.0527c-0.658203 -0.852539 -0.987305 -1.87793 -0.987305 -2.90332c0 -1.21777 0.464844 -2.43652 1.40918 -3.38086c0.0537109 -0.0537109 0.204102 -0.200195 6.34863 -5.06445
c0.861328 -0.682617 1.90527 -1.02344 2.9502 -1.02344c2.74609 0 4.40625 1.79199 9.80078 10.2012c1.75391 2.7334 3.63379 5.66992 5.83887 8.4707c5.25879 6.67871 10.8447 15.4648 15.04 24.9404c0.0722656 0.162109 0.608398 1.2627 1.94238 1.2627
c0.875 0 1.63184 -0.52832 1.95605 -1.29102c8.45996 -19.9004 17.3037 -29.4941 28.8418 -42.0488c0.459961 -0.500977 1.63477 -1.53516 3.50586 -1.53516c1.44141 0 1.44141 0 7.83984 4.26562c0.418945 0.280273 1.7373 1.3125 1.7373 3.25
c0 0.0439453 -0.0878906 2.8877 -1.34766 4.2002c-7.39941 6.20703 -29.6416 31.8457 -31.998 57.1875c-0.241211 2.58105 -0.908203 0.214844 -0.908203 4.71094c0 9.19824 2.47754 25.916 2.47754 35.7852zM643.859 520.741c0 2.4043 -0.15332 2.875 -0.15332 5.96387
c0 0.735352 0.0146484 1.55957 0.0146484 1.5752c0 3.12793 -1.91113 6.38574 -5.90527 6.4707c-6.35449 0.140625 -6.35449 0.140625 -6.4082 0.140625c-2.57324 0 -4.75879 -2.05957 -4.75879 -4.7998c0.00976562 -1.00879 0.0146484 -2.05957 0.0146484 -3.14941
c0 -21.0342 -2.02051 -56.4102 -22.3984 -83.1768c-2.0625 -2.70996 -10.0664 -13.8477 -14.8535 -20.0527c-0.658203 -0.853516 -0.986328 -1.87891 -0.986328 -2.90332c0 -1.21875 0.464844 -2.4375 1.39355 -3.36621
c0.0810547 -0.0820312 0.100586 -0.121094 6.36426 -5.0791c0.861328 -0.682617 1.90527 -1.02344 2.9502 -1.02344c2.74609 0 4.40527 1.78906 9.80078 10.2002c1.75391 2.73438 3.63379 5.6709 5.83887 8.47168c5.25879 6.67871 10.8447 15.4648 15.041 24.9404
c0.0722656 0.163086 0.608398 1.2627 1.94238 1.2627c0.874023 0 1.63086 -0.52832 1.95508 -1.29102c8.45898 -19.8994 17.3027 -29.4922 28.8389 -42.0459c0.470703 -0.513672 1.64355 -1.53809 3.50879 -1.53809c1.44141 0 1.44141 0 7.83887 4.26562
c0.420898 0.28125 1.73828 1.31348 1.73828 3.24902c0 0.0449219 -0.0888672 2.88867 -1.34863 4.20117c-7.41016 6.21875 -29.6416 31.8506 -31.9971 57.1875c-0.240234 2.58008 -0.90918 0.212891 -0.90918 4.71191c0 9.19922 2.47852 25.916 2.47852 35.7852z
M521.431 518.48c0 93.4717 85.334 169.363 190.613 169.363c105.273 0 190.613 -75.8887 190.613 -169.363c0 -93.4717 -85.335 -169.363 -190.613 -169.363c-105.273 0 -190.613 75.8877 -190.613 169.363zM501.457 521.03c0 -103.721 102.431 -191.637 218.587 -191.637
c116.155 0 210.587 83.915 210.587 187.637c0 103.721 -102.431 191.637 -218.587 191.637c-116.155 0 -210.587 -83.915 -210.587 -187.637zM314 618l-83.8008 -86.3008l79.8447 -72.6689l-18.0439 -15.0303l-80 73l-80 -83l-13.1064 14.3301l78.4062 81.2695
l-77.2998 80.4004l16.0996 15.3994l78.7002 -76.2002l85.2393 80.876z" />
  </g>

</svg>
