<?xml version="1.0" standalone="no"?>
<!DOCTYPE svg PUBLIC "-//W3C//DTD SVG 1.1//EN" "http://www.w3.org/Graphics/SVG/1.1/DTD/svg11.dtd" >
<svg xmlns="http://www.w3.org/2000/svg" xmlns:xlink="http://www.w3.org/1999/xlink" version="1.1" viewBox="-10 0 834 1000">
  <g transform="matrix(1 0 0 -1 0 800)">
   <path fill="currentColor"
d="M291.004 771.186l119.244 -215.865l117.04 215.918l-23.4307 9.49023l-92.6123 -176.205l-101.606 174.535zM228.635 214.936c-0.0986328 0.0859375 -0.19043 0.162109 -0.277344 0.228516zM127.872 238.931c0.307617 -0.344727 0.529297 -0.583984 0.648438 -0.708008z
M531.233 52.2002c-1.9082 -2.99316 0.273438 0.733398 -2.64551 -1.48145l1.70117 -1.08984c0.104492 -0.0664062 -3.8125 -15.3457 -1.13379 -28.0811c1.24902 -5.93652 4.47559 -5.51758 4.49512 -10.3926c0.0244141 -5.56055 -1.23828 -2.73633 -2.24219 -7.27441
c-9.18848 -11.6973 -12.7607 -12.2754 -23.46 -14.0068c-17.5049 -2.83301 -46.3418 -1.14746 -72.8105 -7.72559c-7.78418 -0.65332 -73.9961 -4.80273 -82.4814 -2.57324c-4.29102 1.12695 -9.18359 0.763672 -12.5146 -1.31641
c-21.2754 4.69238 -57.1318 27.0078 -60.6357 39.1465l0.0419922 3.23926l-1.14355 2.875l-1.86523 2.34082c-15.8164 27.0205 -31.0908 48.0742 -31.4814 48.501c-1.16309 7.94531 -4.8291 11.7705 -4.8291 12.6602c0 10.9346 -31.3594 66.4727 -37.7148 71.3604
c-0.397461 0.306641 -26.1943 29.6543 -33.4639 37.4404c-0.231445 0.415039 -9.39648 13.4531 -33.5479 33.6553c-4.16797 3.48828 -2.56152 6.27344 -7.62988 9.45312c-12.5312 14.0352 -7.53516 13.3594 -12.2773 20.4629c0.5625 16.5186 24.6143 24.751 24.9512 24.8506
c2.92578 0.0810547 10.8174 -0.319336 12.5 -0.704102c7.7959 -1.78027 13.8682 -9.79395 20.4092 -12.9609c8.80566 -11.958 48.2207 -48.5938 48.6006 -49.1719c1.74414 -3.9082 5.08887 -5.81152 6.5791 -6.47168c5.42578 -4.77637 6.90918 -11.4541 15.1982 -14.4443
c3.35645 -3.43457 9.21484 -4.70898 14.4443 -3.20605c1.02832 -0.178711 1.02832 -0.178711 9.66895 -1.90527l2.41406 2.62012c1.55859 5.00586 -0.99707 21.167 -6.10547 23.0703c-1.37402 7.76465 -1.81934 9.94336 -1.95801 10.4385
c1.50391 2.9209 2.98145 7.41016 0.0507812 11.7686c-0.219727 1.10449 -8.57227 101.736 -11.3721 112.009c-0.0400391 2.61328 1.84863 9.56348 0.0078125 13.915c1.22168 9.21289 0.248047 40.1426 1.10352 51.7852c0 5.18848 5.2334 13.0732 10.4922 26.5537
c3.72363 5.11133 3.72363 5.11133 11.6924 7.7959c5.83594 -0.329102 5.97461 -1.03711 6.80273 -1.63184c2 -1.43652 2 -1.43652 9.50781 -5.54297c0.947266 -1.24219 4.7334 -7.66602 4.7832 -7.74219c5.17578 -15.8457 8.75977 -43.9561 10.875 -64.8184l12.4805 23.3994
l3.5459 9.96289c4.63867 13.0322 5.9707 36.5508 12.9629 53.4473c4.66699 11.2783 7.76855 14.5469 18.459 18.6328c9.19434 -0.375 9.58496 -0.885742 11.7422 -2.70605c0.132812 -0.460938 16.2041 -31.0615 19.8809 -43.6846l-1.05078 -6.73145l2.65137 0.0947266
c0.0322266 -0.166992 0.852539 -9.25879 2.19727 -16.7773l1.66309 -0.174805c0.392578 -5.82324 0.392578 -5.82324 -0.0859375 -9.47754c0.428711 -0.0712891 1.12207 0.0615234 0.964844 -0.460938c7.78711 0.43457 10.6436 -41.6484 15.9883 -39.3242
c10.3584 4.50098 2.29102 59.6416 6.36523 59.4004c2.94824 -0.173828 0.819336 5.24023 1.0293 6.96484c0.616211 5 2.35547 3.22168 3.86523 10.3389c2.12598 10.0586 16.5928 27.8857 16.7207 28.1875c5.60254 5.44141 13.0078 7.45703 15.9785 5.17188
c16.6816 -18.6377 26.0391 -64.1104 25.4619 -94.4639c3.56348 -0.0400391 4.35742 -11.6699 4.67969 -14.4004c6.45703 -54.7744 9.96875 39.5527 13.7402 33.4473l3.18066 5.47559c3.41016 5.86914 22.8369 27.3076 29.2822 32.2656
c1.70117 1.30957 2.05273 1.4502 10.0078 0.126953c5.38184 -3.34766 9.68945 -10.5127 9.86914 -10.8857c8.87891 -18.4092 -2.24414 -129.612 -2.35449 -148.294c-3.2002 -10.6357 -1.7959 -28.8086 -1.0752 -33.2617c0 -23.9883 3.91113 -65.6699 4.39746 -69.166
c-4.34961 -8.01953 6.69434 -40.9844 3.96777 -65.0518c-0.703125 -6.20996 -21.5225 -55.4561 -21.5225 -55.4561zM262.579 447.54c0.0498047 0.0742188 0.0498047 0.130859 0.0576172 0.144531c-0.00292969 -0.00488281 -0.0234375 -0.0556641 -0.0576172 -0.144531z
M532.834 449.715l-1.44922 -8.4082l4.83203 1.34277zM362.861 480.137l0.568359 -0.0634766c-0.145508 0.0224609 -0.338867 0.0322266 -0.568359 0.0634766zM468.742 439.655c0 -0.0761719 0.0488281 -0.15332 0.0498047 -0.15625
c-0.0146484 0.0478516 -0.0498047 0.100586 -0.0498047 0.15625zM245.011 74.1885c0 -0.0332031 0.0810547 -0.0673828 0.0859375 -0.100586zM300 0zM483.064 467.527l0.101562 -0.197266c-0.0205078 0.046875 -0.0546875 0.113281 -0.101562 0.197266zM329.929 487.878
l0.0703125 0.0566406c-0.0214844 -0.0166016 -0.0449219 -0.0361328 -0.0703125 -0.0566406zM226.188 246.703l0.0820312 -0.0839844c-0.0302734 0.0292969 -0.0820312 0.0839844 -0.0820312 0.0839844zM142.619 302.44l0.235352 -0.0507812
c-0.0478516 0.00683594 -0.235352 0.0507812 -0.235352 0.0507812zM127.98 209.246c0 0 -0.0478516 0.0371094 -0.0488281 0.0380859c0.0136719 -0.0107422 0.0273438 -0.0380859 0.0488281 -0.0380859zM127.233 209.959c1.4043 -1.4043 4.7959 -3.61426 9.66113 -8.47949
c10.001 -10.001 12.0566 -17.2861 24.2432 -28.9707c8.90039 -8.53418 7.40625 -9.60059 20.96 -26.4443c27.5879 -34.3057 41.9111 -87.8877 62.9297 -110.214c4.98242 -10.7441 -0.829102 -7.55078 4.69922 -15.3691
c0.131836 -0.413086 0.131836 -0.413086 3.95801 -10.2041l-3.32227 -3.45801c-0.0478516 -0.0498047 -1.43359 -3.22363 -0.773438 -8.58398c0.780273 -6.34277 3.89551 -13.4248 6.74219 -16.2715c4.20605 -2.99707 0.412109 -3.60254 7.36719 -5.77051
c37.6396 -26.7959 236.562 -9.71875 263.006 0.22168c11.0635 0.151367 24.3994 12.5146 29.7432 23.2949c7.41699 14.9541 -4.98828 26.3691 -0.432617 49.2422c-2.20801 4.28613 -0.392578 7.58301 6.04492 19.2734c4.74414 8.61328 7.28418 13.2266 7.88574 16.835
c7.68359 9.67188 7.07129 23.2119 3.03516 68.415c1.28711 2.55762 1.28711 2.55762 0.880859 4.24512c-5.26855 21.8809 -5.89062 58.3701 -5.22754 92.9639c0.285156 14.874 2.35352 69.7236 4.03613 84.2461c2.4375 21.0332 0.170898 73.7285 -0.712891 80.4658
c-1.19043 9.06348 -4.26855 23.0928 -12.0586 26.4648c-0.199219 0.0712891 -8.38184 5.71191 -19.4385 8.50684c-2.49219 0.630859 -9.76074 2.46777 -14.9814 -0.0146484c-8.8916 -1.1123 -19.0947 -9.33301 -21.1484 -11.4482l-9.54004 -9.8291l-3.14062 13.3213
c-4.5459 19.2861 -3.68848 16.8066 -7.81934 23.5137c-2.43457 4.33203 -3.94531 7.02148 -8.08789 11.1641c-6.36523 6.36426 -7.49902 4.32031 -10.9648 6.78906c-8.85156 6.30176 -24.1484 5.625 -30.958 1.48242c-9.35547 -4.19922 -10.957 -4.91895 -14.2568 -8.21875
c-2.43457 -2.43457 -2.96973 -3.09473 -20.1309 -24.2988l-3.4043 15.0938c-1.01953 4.51953 -1.0957 6.02441 -7.87305 13.6533c-8.75293 9.85449 -9.10742 10.2539 -18.666 12.5527c-1.94141 0.466797 -4.37109 1.05176 -6.06738 3.83203
c-6.7998 11.1299 -13.5938 9.05664 -28.3535 -5.4834c-7.46484 -7.35352 -7.51465 -5.83301 -16.123 -14.4414c-5.72656 -5.72656 -6.24707 -6.73242 -10.9668 -15.8604l-6.74805 3.72949c-25.7178 14.209 -42.8164 5.73242 -53.7012 -5.15332
c-6.42578 -6.42578 -10.7041 -14.623 -11.4404 -17.9668c0.164062 -1.91699 -0.535156 -2.9707 -1.3457 -3.91309c-11.6924 -16.6504 -4.94336 -110.359 1.16504 -156.521c0 0 -0.257812 -2.94141 0.480469 -3.63867c2.1543 -9.9248 2.38965 -11.0088 3.12891 -45.9561
l-13.2764 13.8926c-1.36328 1.35254 -25.9033 25.248 -42.7598 38.4629c-9.55859 7.49414 -16.4453 11.5957 -21.8066 13.8633c-9.90723 4.18945 -16.0312 2.74609 -18.8672 3.42188c-0.743164 0.108398 -20.3545 2.96094 -45.0352 -24.4521
c-14.3936 -15.9873 5.96289 -41.1787 6.41797 -41.583c0.514648 -0.542969 1.25 -0.864258 1.4834 -1.6875v0.000976563v-0.000976563c3.00879 -3.66309 16.999 -20.1543 21.5605 -24.7148zM256.745 -18.4209l-7.26562 1.46191
c1.52441 0.5 4.47559 0.96582 7.26562 -1.46191zM105.673 234.675c-0.418945 0.625 -0.0400391 0.0488281 -0.0400391 0.0488281c0.0126953 -0.015625 0.0390625 -0.0478516 0.0400391 -0.0488281zM556.015 48.9521c0.376953 1.89453 0.376953 1.89453 1.62207 6.2041
l2.00293 -6.73633l10.1426 -0.326172c-6.70508 -6.40527 -12.1641 -2.25098 -13.7676 0.858398zM248.923 11.5332zM510.879 -36.0205zM358.204 180.12c0 -11.4004 12 -20.4004 26.4004 -20.4004c14.4004 0 26.4004 9 26.4004 20.4004
c0 11.3994 -12 20.3994 -26.4004 20.3994c-14.4004 0 -26.4004 -9 -26.4004 -20.3994z" />
  </g>

</svg>
