<?xml version="1.0" standalone="no"?>
<!DOCTYPE svg PUBLIC "-//W3C//DTD SVG 1.1//EN" "http://www.w3.org/Graphics/SVG/1.1/DTD/svg11.dtd" >
<svg xmlns="http://www.w3.org/2000/svg" xmlns:xlink="http://www.w3.org/1999/xlink" version="1.1" viewBox="-10 0 1008 1000">
  <g transform="matrix(1 0 0 -1 0 800)">
   <path fill="currentColor"
d="M348.481 97.6934l-82.2217 148.848l24.0225 10.1475l58.4395 -100.383l53.3027 101.418l27.2285 -11.0254zM265.568 -67.707v34.6641h38.626v22.0713h-38.626v34.6641h38.626v33.7148h31.3828v-33.7148h23.2197v31.2539h31.3828v-31.2539h41.292v-34.6641h-41.292
v-22.0713h41.292v-34.6641h-41.292v-36.1855h-31.3828v36.1855h-23.2197v-33.7246h-31.3828v33.7246h-38.626zM335.577 -33.043h23.2197v22.0713h-23.2197v-22.0713zM780.659 223.904c-0.529297 0 -0.985352 0.173828 -1.32227 0.358398l-214.094 -88.2627v-37.8242
c12.126 5.10742 24.251 10.2148 36.376 15.3213v-3.77051l-0.21875 -161.659h318.305l0.646484 155.446c10.9619 -6.48535 21.9238 -12.9697 32.8867 -19.4551l-0.677734 40.7051l-136.33 79.1182l1.46387 0.616211c-22.6963 11.7715 -24.457 12.7314 -36.2109 19.5508
c-0.288086 -0.102539 -0.56543 -0.144531 -0.824219 -0.144531zM884.594 -16.7148h-248.003l-0.665039 144.662l142.009 59.8174l107.859 -63.8086zM63.3545 -23.4795h55.5146l17.1611 52.2256l17.1602 -52.2256h55.5156l-44.8672 -32.2959l17.1611 -52.2246
l-44.9697 32.2959l-44.9707 -32.2959l17.1611 52.2246zM815.979 392.737c4.2666 -7.23145 2.80273 -14.8018 -1.85547 -19.46c-9.9248 -9.9248 -29.7754 -6.41504 -28.5273 12.124c0.15625 2.30859 0.59082 4.87012 2.02246 7.23633
c0.475586 2.72363 0.353516 17.5557 -0.131836 42.8584c-23.5332 -3.2002 -27.7197 0.3125 -30.0176 2.61035c-5.34961 5.35156 -5.45117 18.0898 0.202148 23.7432c3.99316 3.99219 10.6836 4.21094 16.6094 -2.63867c1.21289 -1.21387 9.9668 -3.69727 11.3633 0.295898
c1.94434 207.943 1.94434 207.943 2.00488 208.566c0.0380859 0.397461 4.1709 33.2051 9.71387 38.748c2.63086 2.62988 6.70703 2.43164 9.04199 0.0957031c2.02832 -2.02734 2.73633 -4.56152 9.59473 -30.917v-0.25293
c0.928711 -174.318 1.15039 -216.004 2.19238 -217.046c0.397461 -0.397461 1.4541 -1.12207 5.29102 -1.18066c7.48535 -0.112305 6.7373 4.86523 12.9531 6.8877c5.17188 1.68262 13.6045 -1.3877 13.9697 -13.2871
c0.0732422 -2.375 0.0195312 -9.29785 -5.01953 -13.8584c-1.45898 -1.32129 -5.5625 -4.83105 -29.2324 -1.7793c0.515625 -14.8232 0.600586 -19.7988 -0.616211 -32.8359c-0.638672 -6.84375 -0.584961 -8.16992 0.441406 -9.91016v0zM802.052 392.783
c-0.431641 -6.98047 -5.44922 -7.81934 -2.76074 -10.5078c1.28906 -1.28906 3.61621 -1.57129 4.99805 -0.19043c2.55566 2.55664 -1.32129 3.42969 -2.2373 10.6982v0zM836.566 447.794c-0.0429688 -0.0292969 -0.279297 -0.0585938 -0.322266 -0.0869141
c0.123047 0.0263672 0.232422 0.0556641 0.322266 0.0869141zM795.354 449.779c1.19043 -0.363281 3.74023 -1.53027 4.67578 -5.42578c1.53223 -6.37305 -0.0478516 -31.8477 1.83691 -47.4746c0.140625 7.00781 2.14746 16.2803 1.3623 33.0781
c-0.592773 12.6846 -0.732422 15.6699 1.68359 18.0859c0.929688 0.929688 2.0127 1.4043 3.23145 1.59668c-1.39648 1.46289 -2.53711 3.37207 -2.91211 5.74902c-0.764648 4.8418 -1.23242 7.94043 -1.87891 135.646c0 0.827148 -0.000976563 67.6045 -1.40723 82.6523
c-2.20605 -16.9023 -2.28418 -43.5654 -2.29492 -116.268c-0.00585938 -42.4043 -0.130859 -57.0557 -0.428711 -83.8438c-0.111328 -10.0586 -0.078125 -15.3125 -0.862305 -18.1367c-0.401367 -1.44922 -1.24023 -3.59375 -3.00586 -5.66016v0zM766.965 447.833
c0.00976562 -0.0595703 0.0205078 -0.112305 0.03125 -0.158203c-0.0107422 0.0078125 -0.0214844 0.150391 -0.03125 0.158203zM367.779 641.684zM367.523 638.659zM549.264 607.179c0 23.6973 -8.15918 45.2607 -26.9922 64.0928
c-10.6572 10.6572 -21.4189 17.1875 -31.5 21.1592l-28.6133 11.2686c35.3418 -6.10547 35.3418 -6.10547 39.9834 -7.49023c0.509766 0.174805 1.17773 0.3125 1.8457 0.188477c43.6562 -8.04102 76.7822 -27.4844 100.509 -51.2109
c12.291 -12.292 20.7217 -24.0391 28.5674 -37.6318c-20.4521 -35.5059 -55.4209 -75.5605 -130.895 -89.0098l-16.2236 -2.8916c14.6631 9.00098 22.8408 13.4121 36.7275 27.5605c19.2637 19.2637 26.5908 41.2334 26.5908 63.9648zM456 536
c-19.9121 0 -37.4102 6.82227 -51.8857 21.2988c-21.0439 21.0459 -25.5586 49.3135 -16.2764 75.0098l1.07812 2.98438l0.71875 -0.266602c14.5889 21.5322 14.5889 21.5322 15.4424 22.7754c22.8008 14.9268 22.8008 14.9268 23.1035 14.9648
c16.1016 6.77148 50.79 12.9365 79.8535 -16.1279c14.4502 -14.4502 20.585 -31.2617 20.6475 -49.1904c0 -12.457 -2.63672 -31.6641 -20.6514 -49.6787c-8.4541 -8.4541 -24.5508 -21.7695 -52.0303 -21.7695zM669.554 607.553
c-11.2012 19.8789 -65.6934 115.668 -209.229 115.668c-86.3184 0 -140.455 -34.5156 -172.594 -66.6533c-13.6865 -13.6885 -25.4971 -28.6797 -37.0908 -49.0137c10.2549 -17.9805 21.6768 -33.4736 36.041 -47.8369c53.3037 -53.3047 118.843 -67.5547 173.644 -67.5547
c26.3516 0.000976563 107.524 1.67871 173.263 67.416c18.8008 18.8018 30.0547 37.4473 35.9658 47.9746zM418.52 690.552c-8.58887 -3.22949 -22.0381 -11.7402 -27.2695 -16.9707c-6.98926 -6.98926 -6.98926 -6.98926 -8.58789 -9.65625
c-1.33984 -2.2373 -1.63086 -2.51758 -3.37891 -4.09473c-2.45898 -2.22168 -3.28516 -3.22656 -4.20801 -5.5791c-0.724609 -1.84375 -5.06055 -9.69531 -6.27539 -13.0713c0.162109 -0.792969 0.0478516 -1.5791 -0.164062 -2.13574
c-9.89355 -25.9033 -10.376 -64.8213 20.6191 -95.8164c8.0498 -8.0498 16.4404 -13.6729 24.498 -17.626l22.1484 -10.8662l-24.1738 4.95312c-44.5664 9.13086 -75.3887 29.707 -96.0166 50.335c-12.2402 12.2412 -20.748 23.9971 -28.5889 37.5273
c14.7178 25.5059 47.5273 74.1016 129.719 89.0469z" />
  </g>

</svg>
