<?xml version="1.0" standalone="no"?>
<!DOCTYPE svg PUBLIC "-//W3C//DTD SVG 1.1//EN" "http://www.w3.org/Graphics/SVG/1.1/DTD/svg11.dtd" >
<svg xmlns="http://www.w3.org/2000/svg" xmlns:xlink="http://www.w3.org/1999/xlink" version="1.1" viewBox="-10 0 1051 1000">
  <g transform="matrix(1 0 0 -1 0 800)">
   <path fill="currentColor"
d="M828.399 483.872c0 9.49878 0.360099 25.4826 0.360099 28.905l-0.318652 61.3747l-8.69455 54.78l-24.0577 41.7601l-29.8355 19.1251l-33.9409 8.02542l-47.9505 1.85133v0.765382l-107.704 8.96128l-161.614 -4.8437l-135.511 -48.0118l4.97421 -24.8711
l90.1513 34.2037l168.519 13.9909l163.859 -8.05849l72.0585 -32.0852l24.6852 -76.5829c-11.2968 -92.7231 -11.5388 -94.7093 -10.6225 -98.1968c0.272553 -1.03738 0.408327 -1.98777 0.495372 -2.92219c0.487753 -0.641757 1.13403 -1.58506 1.4862 -2.05622
l30.4464 -40.7334l38.0432 -60.0682l23.93 -33.502l-96.7113 -80.2498l-3.19974 -219.288c0.962733 -7.56244 2.78458 -22.0112 5.01798 -45.877c-0.12894 -0.269919 -9.65147 -20.9678 -12.8349 -27.02c-1.80565 -3.43278 -3.36365 -6.39475 -8.94453 -11.1259
c-28.726 -6.87192 -37.6748 -9.01268 -53.7943 -9.01268c-3.38415 0 -6.77838 0.14333 -10.1737 0.446144l-127.95 -3.2205l-189.706 31.9736l-119.91 72.0259l-21.8729 31.5454c-0.18608 0.126152 -14.9542 10.3475 -18.5829 12.6523v-31.4635
c5.41685 -3.87145 13.5068 -7.36272 24.4398 -17.2503c7.32645 -6.62591 2.09556 -4.45645 10.6241 -11.9264c1.03002 -0.902171 1.03002 -0.902171 17.2005 -21.8062l70.2643 -41.1391l123.979 -35.7692l40.8353 -3.74581
c52.8258 -4.90757 59.0669 -6.73248 83.0467 -7.42728l68.08 -1.97257l89.7606 0.254271l51.1066 12.4914l15.1376 25.2075l6.27671 34.16l-0.268638 82.9487l0.0291888 84.2282l-0.00582149 87.5189l84.7837 67.8016l7.68593 8.96692l1.11464 7.19504
c0.44913 7.61262 -1.52476 12.8022 -3.31214 18.1783l-23.3304 38.8443l-33.0243 43.448l-34.3179 48.9016c-0.202711 16.1296 -0.202711 16.1296 -0.202711 17.6951zM33.2949 712.521h55.5146l17.1611 52.2256l17.1602 -52.2256h55.5156l-44.8672 -32.2959
l17.1611 -52.2246l-44.9697 32.2959l-44.9707 -32.2959l17.1611 52.2246zM684.4 159.333l-169.6 0.799805l2.39941 342.4l19.9111 -0.533203v-322h128.889v322l18.4004 -0.267578v-342.399zM393.086 357.836l-82.333 149.05l9.50293 4.01465l73.6572 -126.521
l67.1221 127.71l12.8457 -5.20312zM378.309 296.695c52.7168 -0.0732422 95.6338 -42.917 95.6338 -95.6348c0 -52.7891 -42.8447 -95.6338 -95.6338 -95.6338s-95.6348 42.8447 -95.6348 95.6338s42.8457 95.6348 95.6348 95.6348zM467.211 204.295v0.0664062
c-0.644531 18.2041 -11.2305 43.8105 -23.6289 57.1562l-51.4141 -51.415c0.988281 -1.4707 2.08301 -4.07227 2.44238 -5.80762h72.6006zM387.416 214.789l51.4141 51.2812c-13.3447 12.4551 -38.9805 23.0996 -57.2207 23.7598v-72.5996
c1.73438 -0.359375 4.33594 -1.45312 5.80664 -2.44141zM375.008 217.23v72.7324c-18.2412 -0.661133 -43.877 -11.3057 -57.2217 -23.7607l51.4141 -51.4131s4.07324 2.08203 5.80762 2.44141zM369.2 187.333l-51.4141 -51.3486
c13.3525 -12.4316 38.9883 -23.0479 57.2217 -23.6934v72.5996c-1.73438 0.360352 -5.80762 2.44238 -5.80762 2.44238zM381.609 184.891v-72.7324c18.2402 0.662109 43.876 11.3066 57.2207 23.7607l-51.4141 51.4141
c-1.4707 -0.988281 -4.07227 -2.08203 -5.80664 -2.44238zM313.166 261.583c-12.4121 -13.3604 -22.998 -38.9961 -23.627 -57.2217h72.5986c0.360352 1.73438 1.4541 4.33594 2.44238 5.80762zM289.406 197.76c0.661133 -18.2402 11.3057 -43.876 23.7598 -57.2207
l51.2832 51.4131c-0.988281 1.47168 -2.08398 4.07324 -2.44336 5.80762h-72.5996zM443.451 140.539c12.4111 13.3604 22.9971 38.9961 23.627 57.2207h-72.5996c-0.360352 -1.73438 -1.4541 -4.33594 -2.44238 -5.80762zM393.086 357.836l-82.333 149.05l9.50293 4.01465
l73.6572 -126.521l67.1221 127.71l12.8457 -5.20312zM378.309 296.695c52.7168 -0.0732422 95.5625 -42.917 95.6338 -95.6348c0 -52.7891 -42.8447 -95.6338 -95.6338 -95.6338s-95.6348 42.8447 -95.6348 95.6338s42.8457 95.6348 95.6348 95.6348zM467.211 204.295
v0.0664062c-0.644531 18.2041 -11.2305 43.8105 -23.6289 57.1562l-51.4141 -51.415c0.988281 -1.4707 2.08301 -4.07227 2.44238 -5.80762h72.6006zM387.416 214.789l51.4141 51.2812c-13.3447 12.4551 -38.9805 23.0996 -57.2207 23.7598v-72.5996
c1.73438 -0.359375 4.33594 -1.45312 5.80664 -2.44141zM375.008 217.23v72.7324c-18.2412 -0.661133 -43.877 -11.3057 -57.2217 -23.7607l51.4141 -51.4131s4.07324 2.08203 5.80762 2.44141zM369.2 187.333l-51.4141 -51.3486
c13.3525 -12.4316 38.9883 -23.0479 57.2217 -23.6934v72.5996c-1.73438 0.360352 -5.80762 2.44238 -5.80762 2.44238zM381.609 184.891v-72.7324c18.2402 0.662109 43.876 11.3066 57.2207 23.7607l-51.4141 51.4141
c-1.4707 -0.988281 -4.07227 -2.08203 -5.80664 -2.44238zM313.166 261.583c-12.4121 -13.3604 -22.998 -38.9961 -23.627 -57.2217h72.5986c0.360352 1.73438 1.4541 4.33594 2.44238 5.80762zM289.406 197.76c0.661133 -18.2402 11.3057 -43.876 23.7598 -57.2207
l51.2832 51.4131c-0.988281 1.47168 -2.08398 4.07324 -2.44336 5.80762h-72.5996zM443.451 140.539c12.4111 13.3604 22.9971 38.9961 23.627 57.2207h-72.5996c-0.360352 -1.73438 -1.4541 -4.33594 -2.44238 -5.80762z" />
  </g>

</svg>
