<?xml version="1.0" standalone="no"?>
<!DOCTYPE svg PUBLIC "-//W3C//DTD SVG 1.1//EN" "http://www.w3.org/Graphics/SVG/1.1/DTD/svg11.dtd" >
<svg xmlns="http://www.w3.org/2000/svg" xmlns:xlink="http://www.w3.org/1999/xlink" version="1.1" viewBox="-10 0 1051 1000">
  <g transform="matrix(1 0 0 -1 0 800)">
   <path fill="currentColor"
d="M828.399 483.872c0 9.49878 0.360099 25.4826 0.360099 28.905l-0.318652 61.3747l-8.69455 54.78l-24.0577 41.7601l-29.8355 19.1251l-33.9409 8.02542l-47.9505 1.85133v0.765382l-107.704 8.96128l-161.614 -4.8437l-135.511 -48.0118l4.97421 -24.8711
l90.1513 34.2037l168.519 13.9909l163.859 -8.05849l72.0585 -32.0852l24.6852 -76.5829c-11.2968 -92.7231 -11.5388 -94.7093 -10.6225 -98.1968c0.272553 -1.03738 0.408327 -1.98777 0.495372 -2.92219c0.487753 -0.641757 1.13403 -1.58506 1.4862 -2.05622
l30.4464 -40.7334l38.0432 -60.0682l23.93 -33.502l-96.7113 -80.2498l-3.19974 -219.288c0.962733 -7.56244 2.78458 -22.0112 5.01798 -45.877c-0.12894 -0.269919 -9.65147 -20.9678 -12.8349 -27.02c-1.80565 -3.43278 -3.36365 -6.39475 -8.94453 -11.1259
c-28.726 -6.87192 -37.6748 -9.01268 -53.7943 -9.01268c-3.38415 0 -6.77838 0.14333 -10.1737 0.446144l-127.95 -3.2205l-189.706 31.9736l-119.91 72.0259l-21.8729 31.5454c-0.18608 0.126152 -14.9542 10.3475 -18.5829 12.6523v-31.4635
c5.41685 -3.87145 13.5068 -7.36272 24.4398 -17.2503c7.32645 -6.62591 2.09556 -4.45645 10.6241 -11.9264c1.03002 -0.902171 1.03002 -0.902171 17.2005 -21.8062l70.2643 -41.1391l123.979 -35.7692l40.8353 -3.74581
c52.8258 -4.90757 59.0669 -6.73248 83.0467 -7.42728l68.08 -1.97257l89.7606 0.254271l51.1066 12.4914l15.1376 25.2075l6.27671 34.16l-0.268638 82.9487l0.0291888 84.2282l-0.00582149 87.5189l84.7837 67.8016l7.68593 8.96692l1.11464 7.19504
c0.44913 7.61262 -1.52476 12.8022 -3.31214 18.1783l-23.3304 38.8443l-33.0243 43.448l-34.3179 48.9016c-0.202711 16.1296 -0.202711 16.1296 -0.202711 17.6951zM33.2949 712.521h55.5146l17.1611 52.2256l17.1602 -52.2256h55.5156l-44.8672 -32.2959
l17.1611 -52.2246l-44.9697 32.2959l-44.9707 -32.2959l17.1611 52.2246zM577.552 480.638c13.4473 0 16.5967 0 16.5967 -5.56445c0 -0.274414 -0.0302734 -1.31055 -0.0302734 -3.10645c0 -1.95801 0.291992 -11.1484 0.291992 -11.2607
c0 -17.5664 -4.80273 -52.8652 -4.80273 -69.6992c0 -60.834 65.4971 -122.437 65.4971 -123.837c0 -0.947266 -1.30469 0.200195 -1.95703 -1.29102c2.46484 -1.37695 2.46484 -1.37695 2.46484 -1.60547c0 -0.146484 -10.0674 -7.35059 -11.333 -7.35059
c-1.27637 0 -43.6074 35.5859 -66.4355 108.966c-10.7354 -47.6816 -61.1963 -108.966 -62.4521 -108.966c-0.767578 0 -13.5029 9.21777 -13.5029 11.1172c0 0.461914 0 0.461914 14.2695 19.7939c-0.766602 -0.154297 -1.55762 -0.235352 -2.36719 -0.235352
c-6.67578 0 -12.167 5.49219 -12.167 12.1689c0 6.6748 5.49121 12.167 12.167 12.167c6.24121 0 11.4473 -4.79883 12.0996 -10.8789c11.5518 15.7354 12.1807 16.5908 16.6104 24.0654c-0.461914 -0.0537109 -0.932617 -0.0810547 -1.41016 -0.0810547
c-6.6748 0 -12.167 5.49023 -12.167 12.167s5.49219 12.167 12.167 12.167c4.62109 0 8.67383 -2.62988 10.7314 -6.46191c21.3086 46.2344 23.7119 96.7725 23.7119 129.205c0 2.24121 -0.0107422 4.39453 -0.0292969 6.47363c0 1.13086 0.916992 2.04688 2.04688 2.04688z
M325.386 139.675l-67.7373 66.5273l12.9023 13.3057l54.4316 -49.9961l96.7676 122.572l14.5156 -10.0801zM403.107 479.107l-61.1338 -61.7402l66.5273 -61.1523l-8.66113 -7.21484l-66.6025 61.3115l-60.2373 -61.3115l-6.29004 6.87891l59.4717 60.4805l-58.4639 60.8154
l7.72754 7.39258l59.1357 -58.8008l61.8242 59.1367z" />
  </g>

</svg>
