<?xml version="1.0" standalone="no"?>
<!DOCTYPE svg PUBLIC "-//W3C//DTD SVG 1.1//EN" "http://www.w3.org/Graphics/SVG/1.1/DTD/svg11.dtd" >
<svg xmlns="http://www.w3.org/2000/svg" xmlns:xlink="http://www.w3.org/1999/xlink" version="1.1" viewBox="-10 0 1051 1000">
  <g transform="matrix(1 0 0 -1 0 800)">
   <path fill="currentColor"
d="M828.399 483.872c0 9.49878 0.360099 25.4826 0.360099 28.905l-0.318652 61.3747l-8.69455 54.78l-24.0577 41.7601l-29.8355 19.1251l-33.9409 8.02542l-47.9505 1.85133v0.765382l-107.704 8.96128l-161.614 -4.8437l-135.511 -48.0118l4.97421 -24.8711
l90.1513 34.2037l168.519 13.9909l163.859 -8.05849l72.0585 -32.0852l24.6852 -76.5829c-11.2968 -92.7231 -11.5388 -94.7093 -10.6225 -98.1968c0.272553 -1.03738 0.408327 -1.98777 0.495372 -2.92219c0.487753 -0.641757 1.13403 -1.58506 1.4862 -2.05622
l30.4464 -40.7334l38.0432 -60.0682l23.93 -33.502l-96.7113 -80.2498l-3.19974 -219.288c0.962733 -7.56244 2.78458 -22.0112 5.01798 -45.877c-0.12894 -0.269919 -9.65147 -20.9678 -12.8349 -27.02c-1.80565 -3.43278 -3.36365 -6.39475 -8.94453 -11.1259
c-28.726 -6.87192 -37.6748 -9.01268 -53.7943 -9.01268c-3.38415 0 -6.77838 0.14333 -10.1737 0.446144l-127.95 -3.2205l-189.706 31.9736l-119.91 72.0259l-21.8729 31.5454c-0.18608 0.126152 -14.9542 10.3475 -18.5829 12.6523v-31.4635
c5.41685 -3.87145 13.5068 -7.36272 24.4398 -17.2503c7.32645 -6.62591 2.09556 -4.45645 10.6241 -11.9264c1.03002 -0.902171 1.03002 -0.902171 17.2005 -21.8062l70.2643 -41.1391l123.979 -35.7692l40.8353 -3.74581
c52.8258 -4.90757 59.0669 -6.73248 83.0467 -7.42728l68.08 -1.97257l89.7606 0.254271l51.1066 12.4914l15.1376 25.2075l6.27671 34.16l-0.268638 82.9487l0.0291888 84.2282l-0.00582149 87.5189l84.7837 67.8016l7.68593 8.96692l1.11464 7.19504
c0.44913 7.61262 -1.52476 12.8022 -3.31214 18.1783l-23.3304 38.8443l-33.0243 43.448l-34.3179 48.9016c-0.202711 16.1296 -0.202711 16.1296 -0.202711 17.6951zM33.2949 712.521h55.5146l17.1611 52.2256l17.1602 -52.2256h55.5156l-44.8672 -32.2959
l17.1611 -52.2246l-44.9697 32.2959l-44.9707 -32.2959l17.1611 52.2246zM540.727 249.125l-0.00585938 -0.24707c0.00292969 0.0820312 0.00585938 0.165039 0.00585938 0.24707zM496.956 388.321c-0.0205078 0.0244141 -0.0615234 0.0722656 0 0zM435.826 382.777
l0.0644531 0.0966797c-0.0107422 -0.015625 -0.0214844 -0.0322266 -0.0644531 -0.0966797zM396.341 253.716l0.0175781 0.114258c-0.00585938 -0.0380859 -0.0175781 -0.0761719 -0.0175781 -0.114258zM400.018 238.853l-0.0830078 0.0898438
c0.0283203 -0.0302734 0.0556641 -0.0595703 0.0830078 -0.0898438zM403.274 236.381l-0.405273 0.120117c0.135742 -0.0419922 0.270508 -0.0830078 0.405273 -0.120117zM405.188 236.017c0.015625 0 0.03125 -0.0078125 0 0zM471.772 402
c-33.2285 3.01074 -46.8896 -32.8242 -59.7441 -83.916c-17.832 -73.4229 -17.832 -73.4229 -11.6729 -79.582c2.35645 -2.35645 3.22266 -2.51758 9.92578 -2.81152c119.01 0.0517578 119.01 0.0517578 122.306 0.488281c2.8457 0.354492 10.0059 6.97852 7.62988 18.2627
c-0.18457 0.931641 -14.7871 64.6699 -23.2002 92.0986c-14.7666 47.6191 -32.3594 54.5684 -45.2441 55.46zM529.737 210.662c-9.24805 -0.189453 -118.663 -0.18457 -119.861 -0.145508c-49.7773 1.59961 -35.6484 53.3652 -29.7168 75.0986
c14.709 60.5137 18.6963 76.916 29.7129 99.4922c9.0127 18.4385 28.8906 46.2031 65.7041 41.8018c43.6758 -4.8418 59.957 -54.999 71.623 -102c19.793 -82.2656 19.793 -82.2656 10.6641 -97.3691c-4.63574 -7.66992 -13.3359 -17.04 -28.126 -16.8779zM642.056 213.358z
M271.976 462.334zM202.864 335.102zM472.145 168.75zM265.912 210.75zM384.524 173.435zM708.067 363.868zM202.864 335.102zM708.067 363.868zM717.178 372.539c4.77246 -14.4541 7.84473 -30.0957 11.8584 -45.0801l2.79785 -0.0458984
c-2.12793 -44.8975 -2.92871 -61.8037 -75.834 -119.413c-54.248 -42.8662 -93.5361 -68.1465 -183.814 -69.6006c-176.225 -2.83496 -281.8 115.944 -281.235 185.588h-1.94336c2.12402 7.96289 2.12402 7.96289 2.32617 14.0771l1.42188 -0.0244141l6.08789 22.8301
h-2.67188c1.38672 1.88477 2.77539 3.76953 4.16309 5.65332v6.41602h4.72168l68.9453 93.6777h2.1875c23.8545 55.7803 115.241 82.6514 150.736 39.4434c5.03906 -2.26465 27.8965 -11.3848 51.9648 -2.60938c1.09473 1.46484 66.874 79.2949 179.369 -35.8252h0.803711
c1.90918 -2.80957 1.90918 -2.80957 7.0127 -8.13477l50.3418 -86.0234c0.750977 0.0634766 1.34473 0.0166016 1.22656 -0.52832zM226.022 327c-0.834961 -28.6279 2.33105 -62.6738 71.8584 -111.343c58.998 -41.2988 107.885 -44.2656 174.999 -42.6025
c78.1973 2.0127 110.826 12.0625 158.045 50.6475c62.792 51.3115 73.1963 67.3926 65.6455 97.5352l-9.98535 39.8604c-0.220703 2.29492 -1.95703 5.03809 -1.9375 7.23828l-56.0293 88.3711c-1.50391 -0.0585938 -0.302734 1.30762 -1.80664 1.24805
c-34.6807 22.8662 -38.3789 32.7715 -51.334 40.4121c-19.9482 11.7637 -50.6191 9.39648 -70.1455 -3.93066c-9.71973 -29.2803 -70.0283 -33.9727 -97.8184 -7.56836c-2.58984 2.46094 -4.5 1.0918 -4.25488 4.11133c-23.3398 16.0605 -81.0137 10.0312 -102.976 -41.6748
l-3.17773 1.22266l-61.2744 -86.7461z" />
  </g>

</svg>
