<?xml version="1.0" standalone="no"?>
<!DOCTYPE svg PUBLIC "-//W3C//DTD SVG 1.1//EN" "http://www.w3.org/Graphics/SVG/1.1/DTD/svg11.dtd" >
<svg xmlns="http://www.w3.org/2000/svg" xmlns:xlink="http://www.w3.org/1999/xlink" version="1.1" viewBox="-10 0 1012 1000">
  <g transform="matrix(1 0 0 -1 0 800)">
   <path fill="currentColor"
d="M30.3242 741.553h55.5146l17.1611 52.2256l17.1602 -52.2256h55.5156l-44.8672 -32.2959l17.1611 -52.2246l-44.9697 32.2959l-44.9707 -32.2959l17.1611 52.2246zM271 608l-12 60c128.725 89.7881 355.203 55.3633 442.457 48.5605
c0 -0.0107422 0.000976562 -0.0214844 0.000976562 -0.0322266c27.4463 0.582031 75.1855 -1.32129 107.268 -33.4033c40.1396 -40.1396 38.6152 -108.841 37.5254 -169.365c-0.395508 -21.9258 -0.433594 -33.2402 -0.22168 -41.9463
c26.3789 -43.8281 72.168 -89.959 89.3252 -129.607c6.95117 -16.0635 5.49219 -24.7637 2.64551 -40.2051l-12 -14l-79.501 -63.5771v-212.431c1.93945 -31.0869 1.82422 -79.2412 -27.416 -108.48c-26.0322 -26.0322 -182.507 -12.0195 -220.584 -13.0049
l-2.90137 0.0126953c-103.732 -7.2998 -296.108 50.6025 -326.603 92.1719c-18.5059 25.2275 -31.4014 41.2529 -57.9951 55.3086v70.0371c25.8174 -16.2627 49.624 -17.8066 70.1904 -60.6357c44.2188 -92.082 349.455 -105.734 451.309 -108.438l-0.499023 -0.962891
c50 12 34.1514 4.48145 42.5352 13.5361c19.1768 20.7119 3.97852 41.9688 5.50781 57.9648h-0.541992v2.14941c-0.253906 0.990234 -0.500977 1.94141 -0.738281 2.84863h0.738281v207.174v3.4873v1.33887h1.58203l104 88h1.13281
c4.9834 45.8955 -62.8379 92.1289 -94.2158 139.501l-3 4l-1 1c-2.02051 3.99219 0.0439453 4.02539 -2.08398 11.5605c-0.0371094 0.130859 -0.189453 0.24707 -0.174805 0.367188l0.258789 2.07227l0.0644531 1.49902
c0.00976562 0.226562 0.150391 3.89551 0.242188 6.24414c3.11426 79.1523 5.19727 173.389 -83.8154 173.771c-136.35 16.7461 -373.536 9.53418 -431.49 -46.5137zM504.68 474.825c0 -3.12207 -2.46582 -11.9678 -10.2598 -11.9678
c-0.0351562 0 -0.0712891 0 -0.107422 0.000976563c0 0 -2.07812 -0.0419922 -2.13379 -0.0429688c-5.36328 0.0185547 -10.7275 0.0283203 -16.0908 0.0283203s-10.7266 -0.00976562 -16.0898 -0.0283203h-0.0810547
c-2.05957 0.0644531 -5.02734 0.157227 -7.54395 2.94629c-2.15234 2.38574 -3.21191 5.33398 -3.21191 8.57812c0 2.47266 0.873047 5.80664 2.0791 10.2227c4.89551 20.1406 7.14844 29.4062 13.4902 35.748c1.89648 1.89648 5.79297 5.03711 11.9814 5.03711
c14.0459 0 19.1846 -14.9619 22.7617 -29.501c3.74121 -15.1953 3.74121 -15.1953 4.37695 -17.2383c0.746094 -2.39746 0.829102 -2.66016 0.829102 -3.7832zM460.04 470.355c29.1396 0.0117188 29.1396 0.0117188 33.1602 0.0117188c0.978516 0 4.10938 0 4.10938 3.81738
c0 1.32715 -0.727539 4.18652 -2.06152 9.42871c-4.35938 17.9082 -6.40137 26.291 -11.2715 31.1602c-1.96875 1.96875 -4.19434 3.03906 -7.43945 3.03906c-8.66992 0 -12.417 -10.3486 -15.8457 -24.0117c-4.58984 -18.8955 -4.58984 -18.8955 -4.58984 -19.5664
c0 -1.33203 0.757812 -3.62305 2.50977 -3.78809c0.485352 -0.0400391 0.949219 -0.0703125 1.42871 -0.0908203zM561.916 384.506c0 -3.12305 -2.46582 -11.9678 -10.2598 -11.9678c-0.0361328 0 -0.0722656 0 -0.107422 0.000976562
c0 0 -2.07812 -0.0429688 -2.13281 -0.0429688c-5.36426 0.0185547 -10.7275 0.0273438 -16.0908 0.0273438c-5.36426 0 -10.7275 -0.00878906 -16.0908 -0.0273438h-0.0810547c-2.05957 0.0634766 -5.02637 0.15625 -7.54395 2.94531
c-2.15234 2.38574 -3.21289 5.33496 -3.21289 8.57812c0 2.47266 0.874023 5.80762 2.08008 10.2227c4.89551 20.1406 7.14844 29.4062 13.4902 35.749c1.89648 1.89551 5.79297 5.03613 11.9805 5.03613c14.0469 0 19.1855 -14.9609 22.7627 -29.5
c3.74121 -15.1953 3.74121 -15.1953 4.37793 -17.2393c0.746094 -2.39746 0.828125 -2.65918 0.828125 -3.78223zM517.275 380.035c29.1406 0.0136719 29.1406 0.0136719 33.1602 0.0136719c0.979492 0 4.11035 0 4.11035 3.81738
c0 1.32617 -0.727539 4.18457 -2.06152 9.42676c-4.36035 17.9092 -6.40137 26.292 -11.2715 31.1621c-1.96875 1.96875 -4.19531 3.03809 -7.44043 3.03809c-8.66895 0 -12.415 -10.3486 -15.8447 -24.0127c-4.58984 -18.8955 -4.58984 -18.8955 -4.58984 -19.5664
c0 -1.33203 0.757812 -3.62207 2.50977 -3.78711c0.485352 -0.0410156 0.950195 -0.0703125 1.42773 -0.0917969zM611.17 475.872c0 -3.12305 -2.46484 -11.9678 -10.2598 -11.9678h-0.106445c0 0 -2.0791 -0.0419922 -2.13379 -0.0419922
c-5.36328 0.0185547 -10.7266 0.0283203 -16.0908 0.0283203c-5.36328 0 -10.7266 -0.00976562 -16.0908 -0.0283203h-0.0800781c-2.05957 0.0634766 -5.02734 0.157227 -7.54395 2.94629c-2.15234 2.38477 -3.21289 5.33301 -3.21289 8.57812
c0 2.47266 0.874023 5.80566 2.08008 10.2227c4.89551 20.1406 7.14746 29.4062 13.4893 35.748c1.89648 1.89648 5.79297 5.03711 11.9814 5.03711c14.0459 0 19.1846 -14.9619 22.7617 -29.501c3.74121 -15.1953 3.74121 -15.1953 4.37793 -17.2393
c0.746094 -2.39648 0.828125 -2.65918 0.828125 -3.78223zM566.53 471.402c29.1396 0.0117188 29.1396 0.0117188 33.1602 0.0117188c0.978516 0 4.10938 0 4.10938 3.81738c0 1.32715 -0.727539 4.18652 -2.06055 9.42871
c-4.36133 17.9082 -6.40137 26.291 -11.2715 31.1602c-1.96973 1.96875 -4.19531 3.03906 -7.44043 3.03906c-8.66992 0 -12.416 -10.3486 -15.8457 -24.0117c-4.58984 -18.8965 -4.58984 -18.8965 -4.58984 -19.5664c0 -1.33203 0.757812 -3.62305 2.50977 -3.78809
c0.486328 -0.0410156 0.950195 -0.0703125 1.42871 -0.0908203zM388.701 449.1c0 -66.9277 62.4766 -121.1 139.299 -121.1c76.8125 0 139.299 54.1641 139.299 121.1c0 66.9277 -62.4766 121.1 -139.299 121.1c-76.8125 0 -139.299 -54.1641 -139.299 -121.1z
M400.18 450.22c0 60.7451 57.0752 109.9 127.26 109.9c70.1865 0 127.262 -49.1553 127.262 -109.9c0 -60.7461 -57.0762 -109.9 -127.262 -109.9s-127.26 49.1553 -127.26 109.9zM504.68 190.825c0 -3.12207 -2.46582 -11.9678 -10.2598 -11.9678
c-0.0351562 0 -0.0712891 0 -0.107422 0.000976563c0 0 -2.07812 -0.0419922 -2.13379 -0.0429688c-5.36328 0.0185547 -10.7275 0.0283203 -16.0908 0.0283203s-10.7266 -0.00976562 -16.0898 -0.0283203h-0.0810547
c-2.05957 0.0644531 -5.02734 0.157227 -7.54395 2.94629c-2.15234 2.38574 -3.21191 5.33398 -3.21191 8.57812c0 2.47266 0.873047 5.80664 2.0791 10.2227c4.89551 20.1406 7.14844 29.4062 13.4902 35.748c1.89648 1.89648 5.79297 5.03711 11.9814 5.03711
c14.0459 0 19.1846 -14.9619 22.7617 -29.501c3.74121 -15.1953 3.74121 -15.1953 4.37695 -17.2383c0.746094 -2.39746 0.829102 -2.66016 0.829102 -3.7832zM460.04 186.355c29.1396 0.0117188 29.1396 0.0117188 33.1602 0.0117188c0.978516 0 4.10938 0 4.10938 3.81738
c0 1.32715 -0.727539 4.18652 -2.06152 9.42871c-4.35938 17.9082 -6.40137 26.291 -11.2715 31.1602c-1.96875 1.96875 -4.19434 3.03906 -7.43945 3.03906c-8.66992 0 -12.417 -10.3486 -15.8457 -24.0117c-4.58984 -18.8955 -4.58984 -18.8955 -4.58984 -19.5664
c0 -1.33203 0.757812 -3.62305 2.50977 -3.78809c0.485352 -0.0400391 0.949219 -0.0703125 1.42871 -0.0908203zM561.916 100.506c0 -3.12305 -2.46582 -11.9678 -10.2598 -11.9678c-0.0361328 0 -0.0722656 0 -0.107422 0.000976562
c0 0 -2.07812 -0.0429688 -2.13281 -0.0429688c-5.36426 0.0185547 -10.7275 0.0273438 -16.0908 0.0273438c-5.36426 0 -10.7275 -0.00878906 -16.0908 -0.0273438h-0.0810547c-2.05957 0.0634766 -5.02637 0.15625 -7.54395 2.94531
c-2.15234 2.38574 -3.21289 5.33496 -3.21289 8.57812c0 2.47266 0.874023 5.80762 2.08008 10.2227c4.89551 20.1406 7.14844 29.4062 13.4902 35.749c1.89648 1.89551 5.79297 5.03613 11.9805 5.03613c14.0469 0 19.1855 -14.9609 22.7627 -29.5
c3.74121 -15.1953 3.74121 -15.1953 4.37793 -17.2393c0.746094 -2.39746 0.828125 -2.65918 0.828125 -3.78223zM517.275 96.0352c29.1406 0.0136719 29.1406 0.0136719 33.1602 0.0136719c0.979492 0 4.11035 0 4.11035 3.81738
c0 1.32617 -0.727539 4.18457 -2.06152 9.42676c-4.36035 17.9092 -6.40137 26.292 -11.2715 31.1621c-1.96875 1.96875 -4.19531 3.03809 -7.44043 3.03809c-8.66895 0 -12.415 -10.3486 -15.8447 -24.0127c-4.58984 -18.8955 -4.58984 -18.8955 -4.58984 -19.5664
c0 -1.33203 0.757812 -3.62207 2.50977 -3.78711c0.485352 -0.0410156 0.950195 -0.0703125 1.42773 -0.0917969zM611.17 191.872c0 -3.12305 -2.46484 -11.9678 -10.2598 -11.9678h-0.106445c0 0 -2.0791 -0.0419922 -2.13379 -0.0419922
c-5.36328 0.0185547 -10.7266 0.0283203 -16.0908 0.0283203c-5.36328 0 -10.7266 -0.00976562 -16.0908 -0.0283203h-0.0800781c-2.05957 0.0634766 -5.02734 0.157227 -7.54395 2.94629c-2.15234 2.38477 -3.21289 5.33301 -3.21289 8.57812
c0 2.47266 0.874023 5.80566 2.08008 10.2227c4.89551 20.1406 7.14746 29.4062 13.4893 35.748c1.89648 1.89648 5.79297 5.03711 11.9814 5.03711c14.0459 0 19.1846 -14.9619 22.7617 -29.501c3.74121 -15.1953 3.74121 -15.1953 4.37793 -17.2393
c0.746094 -2.39648 0.828125 -2.65918 0.828125 -3.78223zM566.53 187.402c29.1396 0.0117188 29.1396 0.0117188 33.1602 0.0117188c0.978516 0 4.10938 0 4.10938 3.81738c0 1.32715 -0.727539 4.18652 -2.06055 9.42871
c-4.36133 17.9082 -6.40137 26.291 -11.2715 31.1602c-1.96973 1.96875 -4.19531 3.03906 -7.44043 3.03906c-8.66992 0 -12.416 -10.3486 -15.8457 -24.0117c-4.58984 -18.8965 -4.58984 -18.8965 -4.58984 -19.5664c0 -1.33203 0.757812 -3.62305 2.50977 -3.78809
c0.486328 -0.0410156 0.950195 -0.0703125 1.42871 -0.0908203zM388.701 165.1c0 -66.9277 62.4766 -121.1 139.299 -121.1c76.8125 0 139.299 54.1641 139.299 121.1c0 66.9277 -62.4766 121.1 -139.299 121.1c-76.8125 0 -139.299 -54.1641 -139.299 -121.1z
M400.18 166.22c0 60.7451 57.0752 109.9 127.26 109.9c70.1865 0 127.262 -49.1553 127.262 -109.9c0 -60.7461 -57.0762 -109.9 -127.262 -109.9s-127.26 49.1553 -127.26 109.9z" />
  </g>

</svg>
