<?xml version="1.0" standalone="no"?>
<!DOCTYPE svg PUBLIC "-//W3C//DTD SVG 1.1//EN" "http://www.w3.org/Graphics/SVG/1.1/DTD/svg11.dtd" >
<svg xmlns="http://www.w3.org/2000/svg" xmlns:xlink="http://www.w3.org/1999/xlink" version="1.1" viewBox="-10 0 1006 1000">
  <g transform="matrix(1 0 0 -1 0 800)">
   <path fill="currentColor"
d="M30.3242 741.553h55.5146l17.1611 52.2256l17.1602 -52.2256h55.5156l-44.8672 -32.2959l17.1611 -52.2246l-44.9697 32.2959l-44.9707 -32.2959l17.1611 52.2246zM271 608l-12 60c128.725 89.7881 355.203 55.3633 442.457 48.5605
c0 -0.0107422 0.000976562 -0.0214844 0.000976562 -0.0322266c27.4463 0.582031 75.1855 -1.32129 107.268 -33.4033c40.1396 -40.1396 38.6152 -108.841 37.5254 -169.365c-0.395508 -21.9258 -0.433594 -33.2402 -0.22168 -41.9463
c26.3789 -43.8281 72.168 -89.959 89.3252 -129.607c6.95117 -16.0635 5.49219 -24.7637 2.64551 -40.2051l-12 -14l-79.501 -63.5771v-212.431c1.93945 -31.0869 1.82422 -79.2412 -27.416 -108.48c-26.0322 -26.0322 -182.507 -12.0195 -220.584 -13.0049
l-2.90137 0.0126953c-103.732 -7.2998 -296.108 50.6025 -326.603 92.1719c-18.5059 25.2275 -31.4014 41.2529 -57.9951 55.3086v70.0371c25.8174 -16.2627 49.624 -17.8066 70.1904 -60.6357c44.2188 -92.082 349.455 -105.734 451.309 -108.438l-0.499023 -0.962891
c50 12 34.1514 4.48145 42.5352 13.5361c19.1768 20.7119 3.97852 41.9688 5.50781 57.9648h-0.541992v2.14941c-0.253906 0.990234 -0.500977 1.94141 -0.738281 2.84863h0.738281v207.174v3.4873v1.33887h1.58203l104 88h1.13281
c4.9834 45.8955 -62.8379 92.1289 -94.2158 139.501l-3 4l-1 1c-2.02051 3.99219 0.0439453 4.02539 -2.08398 11.5605c-0.0371094 0.130859 -0.189453 0.24707 -0.174805 0.367188l0.258789 2.07227l0.0644531 1.49902
c0.00976562 0.226562 0.150391 3.89551 0.242188 6.24414c3.11426 79.1523 5.19727 173.389 -83.8154 173.771c-136.35 16.7461 -373.536 9.53418 -431.49 -46.5137zM513 405l-64.4707 59.0645l4.90918 4.66797l57.7529 -52.3086l100.8 127.68l7.77051 -4.46484z
M520.237 169.085zM520.162 168.202zM574.088 159.021c0 -6.83887 -2.22852 -13.5098 -8.02441 -19.3057c-2.5957 -2.5957 -4.7832 -4.39746 -6.79199 -5.64062c11.8184 2.10547 27.209 7.57422 37.2793 25.0557c-2.1875 3.78906 -4.82031 7.22656 -7.9209 10.3271
c-6.79297 6.79297 -16.2812 12.3711 -28.833 14.6826c-0.157227 0.0292969 -0.102539 -0.19043 -0.606445 -0.0400391c-0.333008 0.0996094 -1.32422 0.395508 -2.74316 0.641602c3.05273 -1.20312 6.30273 -3.18066 9.49902 -6.37695
c5.6582 -5.65723 8.1416 -12.2051 8.1416 -19.3438zM545.968 139.18c7.69141 0 12.1367 3.69043 14.5264 6.08008c5.03809 5.03809 5.75391 10.3408 5.75391 13.8398c-0.0175781 5.0127 -1.70703 9.65234 -5.75293 13.6973
c-8.21191 8.21191 -17.998 6.36035 -22.4277 4.44629c-0.0419922 0 -6.23438 -4.08594 -6.29688 -4.12695c-1.61426 -2.34863 -3.2002 -4.72461 -4.80371 -7.08496l-0.015625 0.00683594c-2.59961 -7.19727 -1.34277 -15.0391 4.5332 -20.916
c4.05371 -4.05371 8.89551 -5.94238 14.4834 -5.94238zM547.229 124.556v0c-7.34668 0 -31.6748 0.351562 -51.2949 19.9717c-4.37598 4.37598 -7.8291 9.10645 -10.9189 14.6025c-0.0107422 0.0195312 -0.0214844 0.0380859 -0.0322266 0.0566406l0.0322266 -0.0566406
c3.5 6.22656 7.07812 10.7998 11.2236 14.9453c9.51172 9.51172 25.5488 19.71 50.9902 19.71c6.55371 0 31.3525 -0.115234 50.9736 -19.7373c4.47559 -4.47559 7.99023 -9.31152 11.1035 -14.917c0.0107422 -0.0195312 0.0205078 -0.0371094 0.03125 -0.0556641
l-0.03125 0.0556641c-1.66309 -2.99707 -5.04297 -8.79297 -10.8926 -14.6436c-19.4482 -19.4473 -43.4424 -19.9316 -51.1846 -19.9316zM534.712 184.198c-20.4658 -3.72168 -30.9873 -14.7529 -36.9385 -25.0674c2.54297 -4.38867 5.41309 -7.78418 7.92676 -10.2969
c5.90625 -5.90723 14.7314 -11.8066 27.54 -14.4307c-2.43262 1.19238 -4.96484 2.8916 -7.38965 5.31543c-9.34668 9.34766 -9.20801 21.1172 -6.22168 28.9248c0.0449219 0.0683594 0.0253906 0.112305 -0.0449219 0.136719
c-0.112305 0.601562 1.63867 3.57422 1.92578 4.30664c0.357422 0.912109 0.783203 1.35547 1.4668 1.97266c0.478516 0.432617 0.487305 0.44043 0.8125 0.984375c0.488281 0.813477 0.509766 0.860352 2.64355 2.99414c1.67871 1.67871 5.60938 4.15527 8.2793 5.16016z
M597.005 99.3506c0.208984 0.00878906 13.3867 0.000976562 13.3906 0.0078125c-4.05957 17.0254 -2.91895 22.5068 -1.43848 27.2842c0.0136719 0.0429688 1.15918 4.00293 1.31543 4.31543l9.57324 19.1465c-4.89941 75.9492 -4.89941 75.9492 -4.87207 76.2764
c1.60938 19.1074 3.0127 41.3965 1.37207 55.6738c-4.2666 16.9453 -14.8535 13.3691 -17.3262 7.94922c-0.874023 -1.91504 -1.8584 -2.14062 -4.40039 -2.72363c-1.97559 -1.7666 -5.08301 -1.37988 -6.56055 0.845703c-1.85254 2.79004 -10.4238 16.0605 -10.6484 16.502
c-3.09961 6.07031 -15.0557 9.80469 -17.3408 -2.21191c-0.0830078 -0.433594 -0.0830078 -0.433594 -4.16309 -10.3818c-1.52051 -3.70508 -6.88086 -3.55176 -8.18359 0.237305l-7.67676 22.333c-2.05273 5.96973 -14.8574 10.7373 -21.6221 -0.568359
c-0.124023 -0.37207 -1.03809 -3.1416 -5.97363 -18.623c-1.07324 -3.36523 -5.55176 -4.13379 -7.67969 -1.27441c-6.31445 8.48438 -6.31445 8.48438 -6.42578 8.5957c-0.0419922 0.0419922 -7.21191 7.2002 -11.2734 3.13867
c-2.22461 -2.22461 -3.4834 -7.65527 -4.03711 -10.9863c0.015625 -0.499023 0.114258 -3.44629 0.662109 -17.7402c0.325195 -8.90137 0.72168 -27.9229 0.729492 -28.2051c2.60352 -18.5566 1.39941 -19.1357 2.75293 -29.0645
c0.0986328 -0.381836 0.849609 -3.27539 4.74902 -18.0352c0.0380859 -0.144531 0.394531 -8.4082 -0.736328 -10.3301c-2.7793 -4.72461 -2.97168 -5.05273 -4.80566 -5.47266c-7.25781 -1.66309 -9.55371 -0.201172 -12.0078 3.2041
c-1.26172 1.75098 -9.84668 10.3555 -10.71 11.3506l-17.9893 20.7578c-0.486328 0.321289 -2.98242 1.95703 -10.4932 6.71484c-0.439453 0.132812 -2.54199 0.760742 -8.88965 2.53809c-1.77441 -0.973633 -3.89062 -0.386719 -5.49609 -1.99121
c-1.16406 -1.16504 -2.50781 -5.06641 -2.08008 -7.27539l9.9248 -13.3477c1.91211 -1.79199 12.0723 -10.6484 12.5703 -11.25c14.8311 -17.9355 14.8311 -17.9355 14.9023 -18.0332c10.7783 -14.6025 10.7783 -14.6025 10.8594 -14.7295
c9.71973 -15.2734 9.71973 -15.2734 9.85645 -15.5918l7.50684 -17.4014c2.07422 -3.21484 10.0908 -15.3105 10.3057 -15.7188c3.37695 -6.41699 3.37695 -6.41699 3.50488 -6.95117c2.5127 -10.5312 20.3125 -11.0557 20.5459 -11.0596l19.4688 -0.347656z
M610.396 90.6064h-13.1162c-59.0098 -2.45117 -59.0098 -2.45117 -59.1406 -2.44922l-19.6094 0.350586c-3.11328 0.0585938 -24.3682 1.05273 -28.7432 17.2002l-2.78613 5.29199c-10.1943 15.4648 -10.0205 14.9531 -10.6377 16.3828l-7.4248 17.2129l-9.2666 14.5615
l-10.5283 14.2637l-14.458 17.4844c-12.4209 11.001 -12.4209 11.001 -12.9668 11.7344l-10.1494 13.6504c-3.62109 4.86914 -1.09375 14.3711 3.04492 18.5098c2.42578 2.42676 4.71387 3.16797 8.10645 3.79199c1.87598 0.838867 3.98828 0.984375 5.94629 0.435547
c9.23438 -2.58496 9.43457 -2.44922 11.0576 -3.47656c9.90918 -6.27637 10.6611 -6.5127 12.0811 -7.93262c0.165039 -0.165039 -0.212891 -0.511719 18.4033 -21.209c9.69922 -10.7842 10.0781 -10.4385 11.4707 -12.3262
c0.230469 0.0205078 0.545898 0.0605469 0.945312 0.125l0.46875 0.796875l0.208984 5.23047c-4.66602 17.6553 -4.61426 17.168 -4.77246 18.3203c-1.45801 10.6162 -0.175781 10.7676 -2.7959 29.3701c-0.0400391 0.286133 -0.563477 23.0029 -0.779297 28.8838
c-0.699219 18.2773 -0.867188 17.5566 -0.59375 19.248c0.851562 5.27832 2.81445 17.4443 13.0938 19.6123c8.5459 1.80273 16.8301 -6.2207 17.9678 -7.74805l1.27246 -1.70996c3.41504 10.8369 3.30566 10.7646 4.10547 12.126
c10.5791 17.9932 33.0674 12.0684 37.5186 -0.879883l3.75586 -10.9258c5.23926 17.6055 26.3125 14.9844 33.0176 2.29199c0.0791016 -0.121094 7.5332 -11.7031 7.81445 -12.1357c7.35449 9.50684 25.9805 11.1094 31.9219 -12.4873
c0.0947266 -0.375977 0.164062 -0.756836 0.208984 -1.14062c1.79102 -15.5889 0.294922 -37.8818 -1.31934 -57.0928l4.8584 -75.2959c0.0986328 -1.53027 -0.202148 -3.08203 -0.90332 -4.4834l-9.36133 -18.7227
c-0.269531 -1.04297 -0.583984 -2.08496 -0.999023 -3.4248c-1.16504 -3.75879 -2.39551 -5.9248 1.5918 -22.6465c1.31152 -5.49707 -2.85449 -10.7881 -8.50879 -10.7881z" />
  </g>

</svg>
