<?xml version="1.0" standalone="no"?>
<!DOCTYPE svg PUBLIC "-//W3C//DTD SVG 1.1//EN" "http://www.w3.org/Graphics/SVG/1.1/DTD/svg11.dtd" >
<svg xmlns="http://www.w3.org/2000/svg" xmlns:xlink="http://www.w3.org/1999/xlink" version="1.1" viewBox="-10 0 1044 1000">
  <g transform="matrix(1 0 0 -1 0 800)">
   <path fill="currentColor"
d="M828.399 483.872c0 9.49878 0.360099 25.4826 0.360099 28.905l-0.318652 61.3747l-8.69455 54.78l-24.0577 41.7601l-29.8355 19.1251l-33.9409 8.02542l-47.9505 1.85133v0.765382l-107.704 8.96128l-161.614 -4.8437l-135.511 -48.0118l4.97421 -24.8711
l90.1513 34.2037l168.519 13.9909l163.859 -8.05849l72.0585 -32.0852l24.6852 -76.5829c-11.2968 -92.7231 -11.5388 -94.7093 -10.6225 -98.1968c0.272553 -1.03738 0.408327 -1.98777 0.495372 -2.92219c0.487753 -0.641757 1.13403 -1.58506 1.4862 -2.05622
l30.4464 -40.7334l38.0432 -60.0682l23.93 -33.502l-96.7113 -80.2498l-3.19974 -219.288c0.962733 -7.56244 2.78458 -22.0112 5.01798 -45.877c-0.12894 -0.269919 -9.65147 -20.9678 -12.8349 -27.02c-1.80565 -3.43278 -3.36365 -6.39475 -8.94453 -11.1259
c-28.726 -6.87192 -37.6748 -9.01268 -53.7943 -9.01268c-3.38415 0 -6.77838 0.14333 -10.1737 0.446144l-127.95 -3.2205l-189.706 31.9736l-119.91 72.0259l-21.8729 31.5454c-0.18608 0.126152 -14.9542 10.3475 -18.5829 12.6523v-31.4635
c5.41685 -3.87145 13.5068 -7.36272 24.4398 -17.2503c7.32645 -6.62591 2.09556 -4.45645 10.6241 -11.9264c1.03002 -0.902171 1.03002 -0.902171 17.2005 -21.8062l70.2643 -41.1391l123.979 -35.7692l40.8353 -3.74581
c52.8258 -4.90757 59.0669 -6.73248 83.0467 -7.42728l68.08 -1.97257l89.7606 0.254271l51.1066 12.4914l15.1376 25.2075l6.27671 34.16l-0.268638 82.9487l0.0291888 84.2282l-0.00582149 87.5189l84.7837 67.8016l7.68593 8.96692l1.11464 7.19504
c0.44913 7.61262 -1.52476 12.8022 -3.31214 18.1783l-23.3304 38.8443l-33.0243 43.448l-34.3179 48.9016c-0.202711 16.1296 -0.202711 16.1296 -0.202711 17.6951zM33.2949 712.521h55.5146l17.1611 52.2256l17.1602 -52.2256h55.5156l-44.8672 -32.2959
l17.1611 -52.2246l-44.9697 32.2959l-44.9707 -32.2959l17.1611 52.2246zM574.071 116.786c0 -6.02246 1.08984 -13.2715 1.18164 -23.8564h4.47559c48.334 8.61328 89.0615 27.9404 119.586 58.4648c34.291 34.291 54.6855 82.5254 54.6855 141.605
c0 54.1709 -20.8906 97.0098 -53.0654 129.186c-43.4199 43.4189 -100.558 61.3037 -119.647 66.9404l-71.2295 -66.8125c-0.0322266 0.667969 -2.56445 63.4883 -2.74023 66.9248c-50.7207 -19.96 -144.28 -62.4727 -144.28 -196.238
c0 -96.5918 65.583 -176.59 150.552 -197.239l62.3867 56.8164c-1.9043 -34.9082 -1.9043 -34.9082 -1.9043 -35.791zM776.679 293c0 -123.462 -77.3906 -221.671 -197.91 -221.671c-1.87598 0 -3.03613 -0.685547 -3.03613 -3.08691
c0 -0.40918 0.0390625 -0.695312 0.0390625 -0.695312l0.0263672 -0.131836v-0.135742c0 -3.57715 -0.112305 -6.60742 -0.112305 -6.6748c0 -4.16211 0.492188 -7.61621 0.492188 -12.4541c0 -2.14551 -0.0966797 -4.55566 -0.37793 -7.39258
c0 -0.0605469 2.43262 -27.8779 2.45703 -28.1592l-65.4834 61.0068c-104.603 24.0205 -172.415 117.323 -172.415 219.395c0 71.5479 21.6846 131.322 61.9561 171.594c39.9648 39.9658 85.6855 48.6182 105.354 52.0088l-5.01172 65.7197l77.252 -65.5811
c114.432 -21.3066 196.77 -111.999 196.77 -223.741zM467.882 386.534c-2.73438 -3.88379 -4.15039 -5.66309 -6.82129 -8.05469c11.1006 -9.37598 17.7158 -15.0596 29.1123 -25.2373c-5.36719 -8.04297 -16.5605 -24.8174 -16.5605 -51.29
c0 -13.0039 2.83691 -25.3447 7.92578 -36.4443l1.60742 -3.50684c-9.51758 -4.7959 -17.5068 -8.87109 -35.6738 -18.9941c3.13477 -4.32129 4.49707 -6.59375 5.76367 -9.76758c13.7871 8.33789 21.9092 13.0088 35.1748 19.875
c3.61816 -4.95215 6.16211 -8.43359 11.002 -13.2734c18.8164 -18.8164 41.0479 -23.6699 51.5439 -24.8955l3.69141 -0.430664c-1.03809 -23.5889 -1.28711 -31.0518 -1.52832 -39.5322c6.53516 -0.477539 8.70996 -0.603516 11.6611 -0.636719
c-0.0566406 5.81543 -0.0859375 11.0723 -0.0859375 15.8408c0 8.97949 0.0498047 13.8135 0.383789 24.1758c10.874 0.912109 35.3086 2.96094 58.1357 25.7881c3.21484 3.21484 5.24805 5.24805 11.6445 14.1943c12.7783 -9.22949 19.3008 -13.9111 28.4131 -20.3916
c2.83984 3.97461 4.10547 5.87793 6.33887 9.78027c-9.9375 7.73633 -16.5 12.5645 -29.2246 20.5391c3.3457 7.78711 8.4502 19.668 8.4502 37.1504c0 19.4766 -6.69238 34.6709 -10.3643 41.5352l-1.75 3.27246c0.298828 0.189453 19.4873 12.3457 30.0371 18.8018
c-2.1084 3.44043 -3.32422 5.24707 -5.51953 8.19824c-16.3564 -9.47559 -19.6123 -11.3623 -30.1426 -18.6133c-3.74023 4.53809 -5.14844 6.24805 -8.22266 9.32227c-20.041 20.04 -43.667 24.4473 -55.0547 25.3408l-3.50488 0.274414
c-0.714844 14.3643 -0.93457 21.7246 -0.93457 30.0557c0 2.6084 0.0283203 4.85449 0.0683594 6.8418l-10.3135 -0.245117c-0.168945 -6.15625 -0.234375 -11.7969 -0.234375 -17.2598c0 -3.9707 0 -6.80371 0.212891 -19.6738
c-9.68652 -1.28906 -32.6094 -4.33789 -53.71 -25.3506l-2.75586 -2.74414c-14.373 13.6504 -20.375 18.793 -28.7656 25.3555zM560.876 225.121c-41.1602 0.0244141 -76.4922 33.8213 -76.4922 76.8281c0 42.4072 34.4229 76.8281 76.8301 76.8281
c42.4014 0 76.8281 -34.416 76.8281 -76.8154c-0.181641 -42.415 -34.7578 -76.8408 -77.166 -76.8408z" />
  </g>

</svg>
