<?xml version="1.0" standalone="no"?>
<!DOCTYPE svg PUBLIC "-//W3C//DTD SVG 1.1//EN" "http://www.w3.org/Graphics/SVG/1.1/DTD/svg11.dtd" >
<svg xmlns="http://www.w3.org/2000/svg" xmlns:xlink="http://www.w3.org/1999/xlink" version="1.1" viewBox="-10 0 1008 1000">
  <g transform="matrix(1 0 0 -1 0 800)">
   <path fill="currentColor"
d="M814 622c54.498 0 98.8398 -29.8018 98.8398 -66.3604c0 -9.05762 -2.66016 -17.71 -7.95312 -26.0625l24.2578 -115.897h-14.0078l-23.2578 101.148c-8.0293 -6.7334 -15.4053 -10.9756 -23.8389 -14.7227v-88.1064h-14v82.9727
c-5.26562 -1.54004 -19.7197 -5.69238 -40.04 -5.69238c-10.8447 0 -20.2881 1.10059 -29.9824 3.12012l10.1406 -79.2803h-12.8848l-10.6016 82.8857c-17.0234 5.6543 -26.6582 12.6064 -31.9502 16.6826l-11.835 -91.7275h-12.8848l13.2754 102.882
c-2.95898 3.64746 -9.08008 11.7686 -11.2949 23.2246c-0.0859375 0 -0.171875 -0.000976562 -0.257812 -0.000976562c-5.9375 0 -12.541 1.72559 -19.6094 5.70312c-18.3418 10.3203 -37.8047 25.001 -37.8047 40.8311c0 19.8262 12.1963 28.6807 45.3701 28.6807
c21.5107 0 33.2715 -8.10254 38.5371 -21.1865c13.1904 9.33789 36.626 20.9062 71.7822 20.9062zM714.002 420.96h-0.636719l0.554688 -0.632812zM726.887 420.96l-0.0634766 -0.488281l0.555664 0.488281h-0.492188zM781.273 413.119h-0.492188l0.554688 -0.488281z
M794.158 413.119l0.0800781 -0.631836l0.555664 0.631836h-0.635742zM854.04 411.999h-0.560547l0.560547 -0.55957v0.55957zM868.04 411.999v-0.55957l0.55957 0.55957h-0.55957zM915.137 413.68h-0.445312l0.544922 -0.433594zM929.145 413.68l0.142578 -0.675781
l0.546875 0.675781h-0.689453zM348.481 97.6934l-82.2217 148.848l24.0225 10.1475l58.4395 -100.383l53.3027 101.418l27.2285 -11.0254zM265.568 -67.707v34.6641h38.626v22.0713h-38.626v34.6641h38.626v33.7148h31.3828v-33.7148h23.2197v31.2539h31.3828v-31.2539
h41.292v-34.6641h-41.292v-22.0713h41.292v-34.6641h-41.292v-36.1855h-31.3828v36.1855h-23.2197v-33.7246h-31.3828v33.7246h-38.626zM335.577 -33.043h23.2197v22.0713h-23.2197v-22.0713zM780.659 223.904c-0.529297 0 -0.985352 0.173828 -1.32227 0.358398
l-214.094 -88.2627v-37.8242c12.126 5.10742 24.251 10.2148 36.376 15.3213v-3.77051l-0.21875 -161.659h318.305l0.646484 155.446c10.9619 -6.48535 21.9238 -12.9697 32.8867 -19.4551l-0.677734 40.7051l-136.33 79.1182l1.46387 0.616211
c-22.6963 11.7715 -24.457 12.7314 -36.2109 19.5508c-0.288086 -0.102539 -0.56543 -0.144531 -0.824219 -0.144531zM884.594 -16.7148h-248.003l-0.665039 144.662l142.009 59.8174l107.859 -63.8086zM63.3545 -23.4795h55.5146l17.1611 52.2256l17.1602 -52.2256h55.5156
l-44.8672 -32.2959l17.1611 -52.2246l-44.9697 32.2959l-44.9707 -32.2959l17.1611 52.2246zM402.497 717.553v-86.8193h10.2441v86.8193h-10.2441zM320.932 719.748v-66.8613h8.98145v66.8613h-8.98145zM250.113 719.748l10.9785 -0.532227v-83.8262l-10.9785 0.533203
v83.8252zM330.512 656.114c76.708 0 139.145 -50.9277 139.145 -113.564s-62.4697 -113.662 -139.145 -113.662c-76.6729 0 -139.143 50.9268 -139.143 113.596c0 62.6699 62.4697 113.631 139.143 113.631zM460.442 542.45c0 57.5469 -58.3145 104.372 -129.931 103.751
c-68.8438 -0.59668 -129.473 -46.8272 -129.895 -104.317c-0.421875 -57.5771 58.3125 -103.749 129.895 -103.749c71.6172 0 129.931 46.7695 129.931 104.315zM264.815 536.929c16.832 -64.7334 113.863 -61.8721 131.46 0.464844l9.24805 -2.59473
c-19.7256 -70.9854 -131.76 -74.1455 -149.954 0z" />
  </g>

</svg>
