<?xml version="1.0" standalone="no"?>
<!DOCTYPE svg PUBLIC "-//W3C//DTD SVG 1.1//EN" "http://www.w3.org/Graphics/SVG/1.1/DTD/svg11.dtd" >
<svg xmlns="http://www.w3.org/2000/svg" xmlns:xlink="http://www.w3.org/1999/xlink" version="1.1" viewBox="-10 0 1012 1000">
  <g transform="matrix(1 0 0 -1 0 800)">
   <path fill="currentColor"
d="M37.8232 730.879h55.5146l17.1611 52.2256l17.1602 -52.2256h55.5156l-44.8672 -32.2959l17.1611 -52.2246l-44.9697 32.2959l-44.9707 -32.2959l17.1611 52.2246zM278.499 597.326l-12 60c128.725 89.7881 355.203 55.3633 442.457 48.5605
c0 -0.0107422 0.000976562 -0.0214844 0.000976562 -0.0322266c27.4463 0.582031 75.1855 -1.32129 107.268 -33.4033c40.1396 -40.1396 38.6152 -108.841 37.5254 -169.365c-0.395508 -21.9258 -0.433594 -33.2402 -0.22168 -41.9463
c26.3789 -43.8281 72.168 -89.959 89.3252 -129.607c6.95117 -16.0635 5.49219 -24.7637 2.64551 -40.2051l-12 -14l-79.501 -63.5771v-212.431c1.93945 -31.0869 1.82422 -79.2412 -27.416 -108.48c-26.0322 -26.0322 -182.507 -12.0195 -220.584 -13.0049
l-2.90137 0.0126953c-103.732 -7.2998 -296.108 50.6025 -326.603 92.1719c-18.5059 25.2275 -31.4014 41.2529 -57.9951 55.3086v70.0371c25.8174 -16.2627 49.624 -17.8066 70.1904 -60.6357c44.2188 -92.082 349.455 -105.734 451.309 -108.438l-0.499023 -0.962891
c50 12 34.1514 4.48145 42.5352 13.5361c19.1768 20.7119 3.97852 41.9688 5.50781 57.9648h-0.541992v2.14941c-0.253906 0.990234 -0.500977 1.94141 -0.738281 2.84863h0.738281v207.174v3.4873v1.33887h1.58203l104 88h1.13281
c4.9834 45.8955 -62.8379 92.1289 -94.2158 139.501l-3 4l-1 1c-2.02051 3.99219 0.0439453 4.02539 -2.08398 11.5605c-0.0371094 0.130859 -0.189453 0.24707 -0.174805 0.367188l0.258789 2.07227l0.0644531 1.49902
c0.00976563 0.226562 0.150391 3.89551 0.242188 6.24414c3.11426 79.1523 5.19727 173.389 -83.8154 173.771c-136.35 16.7461 -373.536 9.53418 -431.49 -46.5137zM761.049 355.98l2.10059 -18.2812l-75.0732 23.9717l-1.13574 -76.123h0.608398v-18.5479h-158.549
v81.5088l-59.5 -56v19.4551l59.5 56v2.28418h2.42676l5.62207 5.29102v-5.29102h7.69922v-84.7002h124.343l1.36914 91.7002h9.74023v1.2793c1.52637 -0.426758 3.05273 -0.853516 4.5791 -1.2793h3.47754v-0.969727zM337.4 191.758l13.5039 11.4248
c0.757812 -29.1064 2.85645 -51.4111 6.2959 -66.916c3.48926 -15.5049 8.34473 -23.2578 14.5654 -23.2578c6.27051 0 10.9229 6.80078 13.957 20.4014c3.03418 13.8721 4.55176 30.0576 4.55176 48.5547c0 16.5928 -1.29492 29.6631 -4.02051 39.1709
c0 0 2.05566 32.4609 -5.36328 42.5371c-10.0127 13.6006 -3.09961 10.7354 -6.85938 20.5801c-3.84375 10.0645 -27.457 30.6025 -29.4004 48.0205c-1.97266 17.6807 -4.9541 27.1816 -4.9541 48.3994c0 19.3135 0.808594 37.1309 2.42676 53.4512
c1.66992 16.5928 3.91992 30.3301 6.75195 41.21c2.12402 8.43359 5.00684 15.5059 8.64844 21.2178c3.69141 5.98438 7.63672 8.97656 11.834 8.97656c6.32129 0 11.8584 -4.89648 16.6133 -14.6895c4.80371 -9.79199 8.34375 -23.1211 10.6201 -39.9863
c2.27539 -16.5928 3.84277 -38.8984 4.70312 -66.916l-13.3516 -9.79199c-0.606445 22.3047 -2.37695 39.7148 -5.30957 52.2275c-2.88281 12.5127 -6.97949 18.7686 -12.2891 18.7686c-6.27148 0 -10.7471 -5.57617 -13.4277 -16.7295
c-2.67969 -11.1523 -4.02051 -24.209 -4.02051 -39.1699c0 -9.52051 0.556641 -18.0889 1.66895 -25.7051c1.1123 -7.88867 2.85742 -14.417 5.23438 -19.5859c1.36523 -2.71973 5.38574 -8.97559 12.0615 -18.7686c9.66016 -13.873 16.3857 -25.2979 20.1787 -34.2744
c3.84375 -8.7041 6.85254 -21.4883 9.02734 -38.3545c2.1748 -16.8652 3.26172 -37.8096 3.26172 -62.835c0 -24.4814 -1.33984 -47.6035 -4.02051 -69.3643c-2.62988 -21.4893 -6.44824 -38.2188 -11.4551 -50.1865c-5.00586 -11.6973 -10.6709 -17.5459 -16.9922 -17.5459
c-10.4688 0 -18.459 11.6973 -23.9717 35.0898c-5.46191 23.3936 -8.95117 58.0762 -10.4688 104.047z" />
  </g>

</svg>
