<?xml version="1.0" standalone="no"?>
<!DOCTYPE svg PUBLIC "-//W3C//DTD SVG 1.1//EN" "http://www.w3.org/Graphics/SVG/1.1/DTD/svg11.dtd" >
<svg xmlns="http://www.w3.org/2000/svg" xmlns:xlink="http://www.w3.org/1999/xlink" version="1.1" viewBox="-10 0 1010 1000">
  <g transform="matrix(1 0 0 -1 0 800)">
   <path fill="currentColor"
d="M125.876 374.817c-20.8809 38.0391 -27.625 88.248 -17.8281 132.769c17.9043 81.3799 77.7842 156.125 156.156 194.923c59.2793 29.3486 125.82 32.8018 179.803 9.33301c18.8682 -8.20508 25.7617 -13.165 45.2168 -32.5293
c20.0508 -19.9551 24.1318 -25.6895 32.2764 -45.3418c5.12695 -12.375 10.834 -31.7568 12.6807 -43.0713c4.27344 -26.1797 0.482422 -71.749 -8.15137 -97.9688c-3.68164 -11.1826 -6.15234 -20.8721 -5.49219 -21.5332
c0.658203 -0.657227 11.9258 -1.46582 25.0342 -1.79297c28.4443 -0.709961 34.1191 -2.86621 37.2217 -14.1455c3.21875 -11.6953 -1.94238 -22.9023 -17.9541 -38.9824l-13.541 -13.6035l123.524 -123.523l148.696 -148.48l4.02051 -16.1191
c5 -20.0371 -21.2266 -23.8535 -27.4307 -36.7227l-4.69336 -9.74023l-54.2031 -3.23633c-29.8086 -1.78125 -55.9746 -2.92578 -58.1455 -2.54883c-2.17285 0.376953 -11.3496 6.6543 -20.3984 13.9443l-16.4482 13.2588l-0.401367 22.8174l-0.400391 22.8193
l-33.3018 -2.72754l-13.9609 18.2412l-12.1992 12.1992l-12.1992 12.1992l-17.7559 10.2178l1.58105 31.1836l-34.4639 -3.02246c-18.958 -1.66406 -15.8975 18.7168 -16.8428 19.6621c-0.941406 0.941406 -1.30078 14.043 -0.791992 29.1133l-18.415 6.43164
l-16.4941 16.4941l-16.4971 16.498l-23.4961 -23.9844c-19.4043 -19.8086 -24.9033 -24.1729 -31.5791 -25.0693c-12.1172 -1.62305 -15.8682 4.50293 -21.832 35.666l-5.43555 28.3818l-17.8906 -6.26367c-98.2764 -34.4121 -187.626 -9.22754 -227.966 64.2539z
M190.352 325.506c18.2783 -11.5205 57.7324 -20.7168 85.5059 -19.9229c25.8291 0.735352 61.2041 8.51855 85.9365 18.9033c8.68457 3.64844 16.4893 5.93457 17.3467 5.0791c0.855469 -0.856445 4.44238 -16.0635 7.97559 -33.7881
c4.75781 -23.8984 7.72852 -32.2441 11.4844 -32.2754c3.42676 -0.0273438 13.7461 8.28125 31.9512 25.7246l26.8848 25.7637l19.9893 -21.7168l19.9844 -21.7207l-0.862305 -24.6748l18.4727 -3.70996l15.6768 -18.0879c10.9268 -12.6094 35.832 2.06445 36.8262 1.07031
c0.992188 -0.992188 0.746094 -16.6787 -0.548828 -34.8535c-2.26172 -31.6992 17.3672 -12.4688 26.4141 -21.5156c9.1123 -9.11328 -8.7002 -30.3125 25.7588 -27.8047c24.2637 1.76562 35.9092 1.15625 36.4336 -1.9043
c0.423828 -2.47754 0.808594 -12.6484 0.858398 -22.5986c0.0810547 -17.1553 0.802734 -18.8076 13.9541 -31.958l13.8662 -13.8682l28.1709 2.51367l28.1699 2.5127l-25.8701 25.7881c-14.2266 14.1855 -78.7666 76.6025 -143.42 138.71l-117.551 112.922
l-12.3428 27.2031c-6.78809 14.957 -10.8535 27.2539 -9.03125 27.3223c1.81934 0.0654297 79.8418 -74.3105 173.382 -165.279c171.003 -166.309 176.416 -171.112 184.092 -163.436c5.13086 5.13184 31.374 12.873 26.9824 30.377l-4.83984 19.293l-149.56 147.485
l-124.387 122.531l16.8906 20.8721c9.29004 11.4824 17.4951 22.9268 18.2314 25.4355c2.67773 9.125 -7.62402 12.9434 -35.6426 13.2227c-15.7354 0.15625 -29.4609 1.13281 -30.5039 2.17578c-1.04102 1.04199 1.79785 12.5439 6.30664 25.5576
c12.7119 36.6689 15.416 83.5537 6.67969 115.724c-9.04004 33.2744 -16.9619 47.4707 -38.5107 69.0176c-21.7578 21.7578 -35.5918 29.3809 -71.2822 39.2832c-70.6396 19.5977 -152.038 -7.61133 -217.604 -72.7412
c-61.9316 -61.5176 -90.4248 -143.19 -73.9102 -211.853c11.3291 -47.1035 31.4912 -75.4678 71.6416 -100.779v0zM217.026 552.48c-6.62891 22.4639 2.08594 46.4941 22.6416 62.4336c15.5439 12.0508 43.9854 15.3691 57.5879 6.71484
c29.8418 -18.9824 24.5977 -66.4355 -9.73145 -88.0527c-15.2197 -9.58594 -36.873 -11.6113 -50.5107 -4.72852c-13.8848 7.00977 -15.7236 9.18359 -19.9873 23.6328zM249.88 535.67c12.5312 -3.13477 31.5156 3.51953 43.1084 15.1133
c18.415 18.4141 17.1729 51.3438 -2.30078 60.9375c-19.3037 9.50977 -34.0752 6.23047 -51.7998 -11.4941c-11.3545 -11.3545 -17.0176 -30.1426 -12.7432 -42.2861c3.21973 -9.15137 14.8271 -20.04 23.7354 -22.2705zM701.381 123.631
c45.082 -42.4062 50.7275 -46.9023 58.7598 -46.7754c8.76367 0.135742 7.58496 1.40234 -85.0068 91.4316c-51.6396 50.2129 -125.06 121.06 -163.157 157.434l-69.2646 66.1416l6.60645 -15.2979c6.16211 -14.2686 13.1748 -21.6982 104.396 -110.658
c53.7842 -52.4492 120.234 -116.471 147.666 -142.275z" />
  </g>

</svg>
