<?xml version="1.0" standalone="no"?>
<!DOCTYPE svg PUBLIC "-//W3C//DTD SVG 1.1//EN" "http://www.w3.org/Graphics/SVG/1.1/DTD/svg11.dtd" >
<svg xmlns="http://www.w3.org/2000/svg" xmlns:xlink="http://www.w3.org/1999/xlink" version="1.1" viewBox="-10 0 1046 1000">
  <g transform="matrix(1 0 0 -1 0 800)">
   <path fill="currentColor"
d="M549.297 340.935zM464.873 346.984v-4.5625l-54.6074 -30.376v64.6318zM604.533 376.808v-65.2617l-54.6084 29.6914v5.26172zM507.398 386.407c-17.0703 0 -34.1699 -12.498 -40.0615 -28.3535l-1.01172 -2.72168l-64.2988 35.124v-92.3447l64.2188 35.4668
c1.91602 -5.3252 4.07324 -11.3184 11.041 -18.2861c8.02734 -8.0293 19.1055 -13.2422 30.1602 -13.2422c16.8877 0 33.9297 12.332 39.9219 27.9639l1.02637 2.6748l64.5195 -34.9883l-0.143555 93.1797l-64.2979 -35.543
c-1.94629 5.22656 -4.0957 11.001 -10.8818 17.7891c-8.04004 8.04004 -19.1543 13.2812 -30.1924 13.2812zM474.09 344.283c0 18.6562 15.1426 33.7979 33.7969 33.7979c18.5986 0 33.7842 -15.0645 33.7979 -33.8105
c-0.272461 -18.5869 -15.5469 -33.7695 -34.2998 -33.7822c-18.3809 0.274414 -33.2949 15.4121 -33.2949 33.7949zM612.771 390.88l-0.00585937 4.25488l3.72852 -2.19629zM612.914 297.7l3.71777 -2.01758l-3.71094 -2.21387zM402.026 298.111v-4.26172l-3.72852 2.20117z
M402.026 390.456l-3.71973 2.03027l3.71973 2.20703v-4.2373zM634.853 262.796zM374.359 438.045zM325.713 348.488zM515.254 231.396zM514.913 220.521zM370.091 260.959zM453.582 234.693zM681.317 368.737zM325.713 348.488zM681.317 368.737zM565.968 483.716
c-18.3623 0 -33.9092 -7.14258 -41.7939 -15.0273c-3 -3.00098 -2.2334 -3.15723 -3.47461 -3.6084c-5.57422 -2.0332 -11.0371 -2.76953 -16.0225 -2.76953c-4.70605 0 -13.2588 0.695312 -22.5195 4.85547c-6.29102 7.65918 -16.9316 14.6299 -34.8242 14.6299
c-26.8594 0 -57.4893 -16.625 -68.1416 -41.5352l-0.526367 -1.22949h-1.85352l-48.5283 -65.9395h-2.32227v-3.1543c-0.31543 -0.427734 -0.629883 -0.853516 -0.944336 -1.28223h0.507812l-5.37402 -20.1543l-0.604492 0.00878906
c-0.109375 -2.06445 -0.303711 -3.24902 -0.955078 -5.81445h0.782227c-0.0185547 -2.27734 -0.0185547 -2.27734 -0.0185547 -2.50977c0 -14.7354 6.3584 -44.5557 48.7393 -79.6064c44.7588 -37.0225 95.3779 -41.1035 137.341 -41.1035
c68.7793 0 96.8203 8.62012 137.977 41.1426c50.2773 39.7266 51.125 51.4258 52.5078 80.4629l-1.40723 0.0224609c-0.0859375 0.323242 -6.26074 25.5225 -8.45117 32.3057l-35.9336 61.4033c-4.0498 4.22754 -4.0498 4.22754 -4.45801 4.92676h-0.266602
c-12.6338 12.9307 -39.1172 37.1279 -64.9766 42.4883c-4.94922 1.02637 -9.79492 1.48828 -14.458 1.48828zM446.632 465.956c3.86621 0 12.458 0 22.2539 -6.74121l-0.0761719 -0.935547c0.566406 -0.230469 1.47266 -0.65625 2.35254 -1.49316
c8.2998 -7.88574 21.0557 -11.5889 33.167 -11.5889c11.2803 0 22.0029 3.21191 28.0381 9.24805c1.1748 1.17578 3.07227 3.07129 4.53613 7.48633c6.21973 4.24414 16.1006 8.87695 29.585 8.87695c17.8955 0 26.2617 -7.79395 32.6777 -13.7686
c4.98633 -4.64258 11.5508 -10.7715 25.6699 -20.1152c0.540039 -0.117188 0.983398 -0.376953 1.33887 -0.77832l0.30957 0.0126953l40.3828 -63.6953c0 -0.107422 -0.00292969 -0.216797 -0.00292969 -0.327148c2.89551 -10.8506 5.54004 -21.9531 8.3291 -32.9111
c0.975586 -3.89551 1.52344 -7.50586 1.52344 -11.001c0 -16.7686 -12.4766 -30.3545 -48.415 -59.7236c-33.1162 -27.0596 -57.0996 -36.3428 -129.372 -36.3428c-39.127 0 -70.666 4.80664 -107.499 30.5898c-45.4062 31.7852 -51.5117 55.1914 -51.5117 76.0342
c0 1.375 0.0273438 2.72949 0.0654297 4.0625c2.26562 8.99219 4.72656 17.7871 7.06543 26.7051l44.25 62.6494c0.62793 -0.242188 1.25586 -0.484375 1.88281 -0.725586c1.49121 3.50977 4.0293 9.49121 10.917 16.3779c11.0977 11.0996 27.5254 18.1045 42.5322 18.1045z
M30.3242 741.553h55.5146l17.1611 52.2256l17.1602 -52.2256h55.5156l-44.8672 -32.2959l17.1611 -52.2246l-44.9697 32.2959l-44.9707 -32.2959l17.1611 52.2246zM746 631c0 -96.6865 68.0879 -173.199 99.375 -191.775l11.1992 -6.64941
c-16.9434 -0.478516 1.18945 0.900391 -34.5742 -3.5752l-1.0752 1.36426c-22.0068 27.9238 -93.9978 110.011 -106.903 207.233c-0.657227 4.95117 0.0224609 9.79688 0.582031 18.2783c-1.38379 0.708984 -2.88672 1.4873 -4.52246 2.34082
c-0.0283203 -1.83984 -0.321982 -3.81637 -0.0449219 -5.88867c33.3789 -249.661 97.5459 -216.742 97.5459 -216.742s6.91211 -4.29004 10.2793 -6.58594h-32.8613c-44.1455 16.1279 -101.697 151.17 -101.697 222.331c0 8.73535 0.302734 15.3135 0.785156 20.6846
c-60.6641 32.3369 -123.179 64.7012 -226.885 64.7012c-23.0527 0 -45.5234 -2.04883 -73.3945 -6.17773c-32.3232 -4.78906 -32.3232 -4.78906 -70.6152 -21.2002c-18.916 -8.10645 -50.2139 -47.4062 -58.166 -66.7188
c-7.02734 -17.0664 -9.0791 -30.2676 -9.0791 -45.8906c0 -22.332 3.62891 -44.376 3.62891 -77.1553c0 -8.99219 1.14648 -13.8564 1.14648 -20.1924c0 -4.57031 -0.613281 -9.64551 -2.73242 -16.6025c-19.9492 -65.4795 -40.3174 -87.0479 -63.832 -110.183
c-6.25977 -6.16016 -27.0508 -26.6172 -27.0508 -37.7881c0 -4.45605 0.882812 -6.9082 38.3447 -19.4531c55.9199 -18.7266 60.0254 -24.4102 60.0254 -90.9766c0 -43.0117 2.70801 -110.013 2.70801 -151.731c0 -5.5 0.0820312 -11.3867 0.267578 -17.7666
c0.50293 -17.292 16.4512 -45.3398 23.8975 -57.5352c1.19629 -0.303711 1.95996 -1.18164 1.95996 -1.18164c1.1543 -0.666992 2.48438 -1.60059 4.13477 -2.74414c16.0508 -11.1162 22.0049 -13.1846 40.8428 -13.1846c24.0361 0 22.3457 4.21484 79.0615 4.21484
c0.316406 0 6.94531 -0.00390625 7.01562 -0.00390625c14.7988 0 25.668 0.226562 52.1025 3.80078c20.2021 2.73242 38.8271 4.61523 56.5088 6.4043c120.938 12.2334 143.711 24.1475 222.178 80.1953c2.23438 1.5957 5.14355 3.85352 8.45703 6.42773
c12.6104 9.7959 33.0303 26.8994 48.1416 26.8994c8.16699 0 13.834 -4.95996 13.834 -14.165c0 -15.4473 -17.4082 -42.8486 -33.0938 -42.8486c-1.16406 0 -1.56543 0.129883 -3.01758 0.129883c-22.6426 0 -44.3604 -36.5264 -79.4766 -51.29
c-52.8857 -22.2344 -80.2979 -27.1279 -117.459 -33.71c-17.2549 -3.05664 -36.6504 -6.49316 -61.8809 -12.2393c-34.7246 -7.90918 -51.6299 -8.61133 -86.7539 -8.61133c-0.251953 0 -22.7891 0.03125 -25.0811 0.03125
c-11.3115 0 -32.6182 -0.123047 -32.9473 -0.123047c-40.7773 0 -82.5049 2.86621 -120.91 24.8125c-26.0957 14.9121 -27.9092 36.1035 -30.0449 61.0586c-0.477539 5.59082 -0.976562 11.3994 -1.75781 17.3906c-1.96484 15.7158 -2.63672 29.7119 -2.63672 42.8916
c0 28.6572 -4.27441 100.664 -4.27441 131.409c0 46.4277 -4.59863 49 -29.7539 58.8145c-27.3184 10.6582 -57.2148 13.2568 -70.834 26.876c-4.33008 4.33008 -6.66504 9.68945 -6.66504 16.1094c0 4.7959 1.30371 10.1846 4.05176 16.1768
c36.4951 79.5967 68.6367 70.0742 91.3711 139.761c5.20312 15.9443 6.93652 32.2529 6.93652 48.6797c0 32.5635 -6.77832 65.1611 -6.77832 95.8125c0 47.6494 17.2412 68.3838 35.0508 86.1934c66.2422 66.2412 143.674 66.3555 238.901 66.3555h0.988281
c82.8154 0 132.135 -23.3467 188.021 -49.8477c43.5547 -20.6533 21.8506 -15.7109 32.4561 -16.8408c11.3984 -1.2168 39 -13 47.5039 -30.4053c4.31641 -8.83496 -4.12305 -21.668 -4.50391 -29.5947c-0.257812 -5.36523 2 -14.3428 2 -20z" />
  </g>

</svg>
