<?xml version="1.0" standalone="no"?>
<!DOCTYPE svg PUBLIC "-//W3C//DTD SVG 1.1//EN" "http://www.w3.org/Graphics/SVG/1.1/DTD/svg11.dtd" >
<svg xmlns="http://www.w3.org/2000/svg" xmlns:xlink="http://www.w3.org/1999/xlink" version="1.1" viewBox="-24 0 1025 1000">
  <g transform="matrix(1 0 0 -1 0 800)">
   <path fill="currentColor"
d="M-13.416 -112.528h55.5146l17.1611 52.2256l17.1602 -52.2256h55.5156l-44.8672 -32.2959l17.1611 -52.2246l-44.9697 32.2959l-44.9707 -32.2959l17.1611 52.2246zM401.712 240.084c-4.78443 0 -8.57239 -3.90243 -8.57239 -8.54301v-300.105
c0 -4.76659 3.91845 -8.542 8.542 -8.542l373.938 -1.50883c4.70918 0 8.57274 3.82634 8.57252 8.54254l-0.804772 155.248l12.9448 0.794521l39.0831 -2.11748l-51.2232 59.643v86.5374c0 4.7315 -3.86913 8.54204 -8.50954 8.54201l-212.295 -0.398759l-1.04805 32.5657
c-0.752936 6.10711 -1.28959 10.2651 -2.72635 21.3972l-57.982 -52.4587l-1.93917 0.00784698s-97.9601 0.396443 -97.9805 0.396484zM420.229 -50.0489v263.013l80.8699 -0.346692l63.0281 -53.1514c-0.632969 23.9201 -0.811271 31.8191 -0.811271 39.3847
c0 2.90082 0.00435341 3.5988 0.122172 15.3244l193.667 -2.65698v-66.4407l-54.499 -59.7692c38.1589 1.01122 38.1589 1.01122 54.7812 1.91396l-0.282708 -138.718zM308.593 657.454c0 1.64746 -1.65625 6.16309 -3.07812 8.01074
c-1.96777 1.45996 -6.69629 3.14453 -8.50098 3.14453c-6.52637 0 -11.1973 -4.5293 -15.4258 -8.75879c-1.82422 -1.82324 -4.21875 -2.7373 -6.61328 -2.7373c-3.85938 0 -5.98828 2.11328 -7.72266 3.84668c-0.359375 0.360352 -6.51172 5.75879 -10.1289 6.95215
c-1.65039 0.544922 -2.72949 0.691406 -4.0625 0.691406c-1.7207 0 -6.25684 -1.55957 -8.40234 -3.08105c-0.914062 -1.44336 -0.945312 -1.54785 -3.125 -9.04199c0.179688 -2.78906 1.49805 -8.48145 7.7832 -14.5439l25.6787 -24.7705l25.4971 24.541
c2.75781 2.7627 8.10059 8.19141 8.10059 15.7471zM241.993 710.728c0.331055 -5.87598 0.129883 -13.6318 -0.382812 -22.4785c8.3584 2.95703 20.1133 3.7002 33.2305 -5.48828c8.93262 6.34766 15.252 7.45703 22.0957 7.5918
c9.40332 0 19.5283 -4.99316 23.8311 -9.47168c9.23828 -9.61035 17.5312 -32.5947 -5.21289 -54.8047c-26.8867 -26.2549 -30.0928 -29.1973 -31.0068 -29.998c-5.41504 -5.2002 -13.8799 -5.21582 -19.3457 0.078125l-29.0439 28.127
c-0.994141 -11.5137 -1.7793 -22.2061 -2.00977 -30.8262c-0.09375 -3.49023 -0.353516 -19.1523 2.48047 -20.668c0.324219 -0.113281 0.583008 -0.291992 0.523438 -0.789062c9.20898 -98.9971 102.682 -191.717 107.881 -193.622
c0.169922 -0.0625 -0.322266 0.0136719 -0.322266 0.0136719l-0.488281 -0.25293l-0.264648 -0.597656l1.55371 -0.866211l-17.5117 -11.6748c-1.94922 2.12402 -2.88672 3.14648 -7.35742 7.98633c-35.5156 38.4502 -74.21 80.3906 -104.311 182.503
c-8.31836 -48.3086 -38.1201 -101.278 -64.9883 -135.4c-17.3301 -22.0088 -23.2012 -37.5156 -39.0713 -55.1484l-20.71 16.3955c12.2129 15.832 20.0449 26.5664 30.8691 41.5049c6.09961 8.41992 11.7227 16.1807 17.7295 24.0713
c73.5107 96.5615 75.71 223.811 75.1611 288.473l21.3789 -0.47168c1.89844 -0.0400391 5.125 -0.957031 5.00879 -6.74414c-0.0341797 -1.67676 -0.182617 -9.16406 0.282227 -17.4414h0.000976562zM632 571.499c1.31445 0 2.6289 -0.342993 3.79687 -1.02898
c-0.25032 0.761737 -0.375479 1.55576 -0.375479 2.34978c0 1.18879 0.280547 2.37757 0.841641 3.45801c-0.832257 -0.304358 -1.7078 -0.456536 -2.58335 -0.456536c-1.91317 0 -3.82634 0.726617 -5.28788 2.17985l-22.6738 22.545l22.8703 -23.7902
c1.39327 -1.44931 2.08991 -3.3226 2.08991 -5.19589c0 -0.0593392 -0.00209702 -0.118678 -0.00209702 -0.178004c0.437551 0.0779754 0.880716 0.116963 1.32388 0.116963zM565.048 662.138l68.7335 -68.343l71.9967 68.8661
c1.4474 1.38446 3.31475 2.07669 5.1821 2.07669c1.74873 0 3.49746 -0.607077 4.90129 -1.82123c2.90764 -2.51478 6.0623 -4.90245 8.77896 -7.61911c1.46349 -1.46349 2.19523 -3.38339 2.19523 -5.3033c0 -1.90824 -0.722876 -3.81648 -2.16863 -5.27657
l-70.9406 -71.6441l77.4259 -71.1695c1.6035 -1.47393 2.37741 -3.49014 2.37741 -5.49778c0 -2.17529 -0.908554 -4.34054 -2.65483 -5.79509l-10.8262 -9.01758c-1.38521 -1.1538 -3.08992 -1.7307 -4.79463 -1.7307c-1.82209 0 -3.64418 0.659079 -5.07612 1.97724
l-77.916 71.7249s-70.2079 -71.459 -70.2554 -71.5069c-1.46999 -1.46999 -3.38154 -2.17856 -5.28206 -2.17856c-2.05744 0 -4.10197 0.830398 -5.5594 2.42413l-7.86328 8.59863c-1.30691 1.42913 -1.96037 3.24343 -1.96037 5.05773
c0 1.90004 0.716676 3.80008 2.15003 5.25772l69.2279 70.401l-68.0282 70.7645c-1.39627 1.45243 -2.08167 3.32208 -2.08167 5.18604c0 1.98804 0.779685 3.96962 2.30815 5.43165l9.66016 9.24023c1.4474 1.38448 3.31477 2.07672 5.18214 2.07672
c1.91317 0 3.82634 -0.726617 5.28788 -2.17985zM442 717.39c-4.03462 0 -7.49853 3.46189 -7.49853 7.49853v11.1113c0 4.03462 3.46189 7.49853 7.49853 7.49853h333.334c4.03462 0 7.49853 -3.46189 7.49853 -7.49853v-11.1113
c0 -4.03462 -3.46189 -7.49853 -7.49853 -7.49853h-333.334z" />
  </g>

</svg>
