<?xml version="1.0" standalone="no"?>
<!DOCTYPE svg PUBLIC "-//W3C//DTD SVG 1.1//EN" "http://www.w3.org/Graphics/SVG/1.1/DTD/svg11.dtd" >
<svg xmlns="http://www.w3.org/2000/svg" xmlns:xlink="http://www.w3.org/1999/xlink" version="1.1" viewBox="-10 0 1020 1000">
  <g transform="matrix(1 0 0 -1 0 800)">
   <path fill="currentColor"
d="M30.3242 741.553h55.5146l17.1611 52.2256l17.1602 -52.2256h55.5156l-44.8672 -32.2959l17.1611 -52.2246l-44.9697 32.2959l-44.9707 -32.2959l17.1611 52.2246zM271 608l-12 60c128.725 89.7881 355.203 55.3633 442.457 48.5605
c0 -0.0107422 0.000976562 -0.0214844 0.000976562 -0.0322266c27.4463 0.582031 75.1855 -1.32129 107.268 -33.4033c40.1396 -40.1396 38.6152 -108.841 37.5254 -169.365c-0.395508 -21.9258 -0.433594 -33.2402 -0.22168 -41.9463
c26.3789 -43.8281 72.168 -89.959 89.3252 -129.607c6.95117 -16.0635 5.49219 -24.7637 2.64551 -40.2051l-12 -14l-79.501 -63.5771v-212.431c1.93945 -31.0869 1.82422 -79.2412 -27.416 -108.48c-26.0322 -26.0322 -182.507 -12.0195 -220.584 -13.0049
l-2.90137 0.0126953c-103.732 -7.2998 -296.108 50.6025 -326.603 92.1719c-18.5059 25.2275 -31.4014 41.2529 -57.9951 55.3086v70.0371c25.8174 -16.2627 49.624 -17.8066 70.1904 -60.6357c44.2188 -92.082 349.455 -105.734 451.309 -108.438l-0.499023 -0.962891
c50 12 34.1514 4.48145 42.5352 13.5361c19.1768 20.7119 3.97852 41.9688 5.50781 57.9648h-0.541992v2.14941c-0.253906 0.990234 -0.500977 1.94141 -0.738281 2.84863h0.738281v207.174v3.4873v1.33887h1.58203l104 88h1.13281
c4.9834 45.8955 -62.8379 92.1289 -94.2158 139.501l-3 4l-1 1c-2.02051 3.99219 0.0439453 4.02539 -2.08398 11.5605c-0.0371094 0.130859 -0.189453 0.24707 -0.174805 0.367188l0.258789 2.07227l0.0644531 1.49902
c0.00976562 0.226562 0.150391 3.89551 0.242188 6.24414c3.11426 79.1523 5.19727 173.389 -83.8154 173.771c-136.35 16.7461 -373.536 9.53418 -431.49 -46.5137zM300 344c-60.4092 0 -109.339 47.9424 -109.339 106.819c0 58.8779 48.9316 106.819 109.339 106.819
c60.4092 0 109.339 -47.9424 109.339 -106.819c0 -58.8779 -48.9316 -106.819 -109.339 -106.819zM300 544.088c-53.2354 0 -96.293 -41.5107 -96.293 -92.7646c0 -51.252 43.0566 -92.7646 96.293 -92.7646c53.2354 0 96.293 41.5107 96.293 92.7646
c0 51.2529 -43.0566 92.7646 -96.293 92.7646zM248.504 390.789c-2.93848 0 -5.48926 2.66309 -5.48926 7.06055c0 0.719727 0.176758 3.54102 2.86914 4.74902c5.70215 2.65332 10.7422 5.43066 15.5791 8.09766c12.7012 7.00391 24.3047 13.3984 41.8555 13.3984
c19.1367 0 30.9014 -7.43848 43.8369 -15.6172c4.13477 -2.61426 8.43066 -5.33008 13.2188 -7.99902c0.728516 -0.383789 2.55957 -1.63184 2.55957 -4.45898c0 -3.86816 -3.08691 -7.3291 -6.22852 -7.3291c-1.24219 0 -1.87207 0 -14.2754 8.37012
c-12.8115 8.64746 -22.5391 14.9971 -38.7686 14.9971c-16.1582 0 -25.9268 -5.56836 -39.4912 -13.2832c-4.16699 -2.36914 -8.66016 -4.9248 -13.7305 -7.51953c-0.647461 -0.331055 -1.30469 -0.46582 -1.93555 -0.46582zM253.576 479.491
c-7.31445 0 -12.5713 4.42285 -12.5713 9.54785c0 5.12402 5.25586 9.54785 12.5713 9.54785c7.31348 0 12.5713 -4.42285 12.5713 -9.54785c0 -5.12402 -5.25586 -9.54785 -12.5713 -9.54785zM342.279 480.499c-6.98438 0 -12.0664 4.4209 -12.0664 9.54785
s5.08203 9.54785 12.0664 9.54785c6.98633 0 12.0684 -4.4209 12.0684 -9.54785c0 -5.12793 -5.08203 -9.54785 -12.0684 -9.54785zM588.674 354.819c-60.4092 0 -109.339 47.9424 -109.339 106.819c0 58.8779 48.9316 106.819 109.339 106.819
c60.4092 0 109.339 -47.9424 109.339 -106.819c0 -58.8779 -48.9316 -106.819 -109.339 -106.819zM588.674 554.907c-53.2354 0 -96.293 -41.5107 -96.293 -92.7646c0 -51.252 43.0566 -92.7646 96.293 -92.7646c53.2354 0 96.293 41.5107 96.293 92.7646
c0 51.2529 -43.0566 92.7646 -96.293 92.7646zM537.178 401.608c-2.93848 0 -5.48926 2.66309 -5.48926 7.06055c0 0.719727 0.176758 3.54102 2.86914 4.74902c5.70215 2.65332 10.7422 5.43066 15.5791 8.09766c12.7012 7.00391 24.3047 13.3984 41.8555 13.3984
c19.1367 0 30.9014 -7.43848 43.8369 -15.6172c4.13477 -2.61426 8.43066 -5.33008 13.2188 -7.99902c0.728516 -0.383789 2.55957 -1.63184 2.55957 -4.45898c0 -3.86816 -3.08691 -7.3291 -6.22852 -7.3291c-1.24219 0 -1.87207 0 -14.2754 8.37012
c-12.8115 8.64746 -22.5391 14.9971 -38.7686 14.9971c-16.1582 0 -25.9268 -5.56836 -39.4912 -13.2832c-4.16699 -2.36914 -8.66016 -4.9248 -13.7305 -7.51953c-0.647461 -0.331055 -1.30469 -0.46582 -1.93555 -0.46582zM542.25 490.311
c-7.31445 0 -12.5713 4.42285 -12.5713 9.54785c0 5.12402 5.25586 9.54785 12.5713 9.54785c7.31348 0 12.5713 -4.42285 12.5713 -9.54785c0 -5.12402 -5.25586 -9.54785 -12.5713 -9.54785zM630.953 491.318c-6.98438 0 -12.0664 4.4209 -12.0664 9.54785
c0 5.12695 5.08203 9.54785 12.0664 9.54785c6.98633 0 12.0684 -4.4209 12.0684 -9.54785c0 -5.12793 -5.08203 -9.54785 -12.0684 -9.54785zM529.891 248.433c0 0.87207 -0.875977 3.26172 -1.62793 4.23926c-1.04199 0.772461 -3.54492 1.66406 -4.49902 1.66406
c-3.4541 0 -5.92578 -2.39648 -8.16406 -4.63477c-0.964844 -0.963867 -2.23242 -1.44824 -3.49902 -1.44824c-2.04297 0 -3.16895 1.11914 -4.08691 2.03613c-0.19043 0.19043 -3.44531 3.04688 -5.35938 3.67871c-0.875 0.288086 -1.44531 0.365234 -2.15039 0.365234
c-0.912109 0 -3.31152 -0.825195 -4.44727 -1.62988c-0.484375 -0.763672 -0.5 -0.820312 -1.65332 -4.78613c0.0947266 -1.47559 0.791992 -4.48828 4.11816 -7.69531l13.5898 -13.1094l13.4922 12.9883c1.46094 1.46094 4.28711 4.33398 4.28711 8.33203zM494.646 276.626
c0.175781 -3.10938 0.0693359 -7.21484 -0.203125 -11.8965c4.4248 1.56641 10.6445 1.95801 17.5859 -2.9043c4.72656 3.35938 8.07129 3.94727 11.6934 4.01758c4.97559 0 10.334 -2.6416 12.6113 -5.01172c4.88867 -5.08691 9.27734 -17.249 -2.75781 -29.0029
c-14.2305 -13.8945 -15.9258 -15.4512 -16.4102 -15.876c-2.86523 -2.75098 -7.3457 -2.75879 -10.2373 0.0429688l-15.3711 14.8838c-0.524414 -6.09277 -0.941406 -11.751 -1.0625 -16.3135c-0.0488281 -1.84668 -0.1875 -10.1348 1.3125 -10.9375
c0.171875 -0.0585938 0.308594 -0.154297 0.276367 -0.416992c4.87402 -52.3887 54.3398 -101.457 57.0908 -102.465c0.0908203 -0.0322266 -0.169922 0.00683594 -0.169922 0.00683594l-0.259766 -0.133789l-0.137695 -0.31543l0.820312 -0.458008l-9.26562 -6.17871
c-1.03223 1.12402 -1.52832 1.66504 -3.89355 4.22559c-18.7949 20.3486 -39.2725 42.543 -55.2031 96.5801c-4.40039 -25.5635 -20.1719 -53.5947 -34.3916 -71.6533c-9.16992 -11.6475 -12.2764 -19.8525 -20.6758 -29.1836l-10.959 8.67578
c6.46289 8.37891 10.6074 14.0586 16.3359 21.9648c3.22754 4.45508 6.20312 8.5625 9.38281 12.7383c38.9014 51.1006 40.0645 118.44 39.7744 152.659l11.3135 -0.249023c1.00488 -0.0224609 2.71191 -0.507812 2.65039 -3.56934
c-0.0175781 -0.886719 -0.0966797 -4.84961 0.150391 -9.22949v0z" />
  </g>

</svg>
