<?xml version="1.0" standalone="no"?>
<!DOCTYPE svg PUBLIC "-//W3C//DTD SVG 1.1//EN" "http://www.w3.org/Graphics/SVG/1.1/DTD/svg11.dtd" >
<svg xmlns="http://www.w3.org/2000/svg" xmlns:xlink="http://www.w3.org/1999/xlink" version="1.1" viewBox="-10 0 1093 1000">
  <g transform="matrix(1 0 0 -1 0 800)">
   <path fill="currentColor"
d="M388.641 605.571l43.3066 0.710938l606.132 1.45703v-40.0195l-226.079 -1.71973v-195.375l-375.12 201.827l-13.6797 8.63965c-3.76953 0 -30.79 24.4795 -34.5596 24.4795zM312.323 669.738c0 12.1032 -0.874401 15.6125 -0.874401 33.7428
c0 4.79908 0.094917 9.32161 0.094917 9.41577c0 5.67509 -1.92187 9.65801 -7.26156 9.77223c0 0 -36.6278 0.808655 -36.6288 0.807006c0.0537793 -6.3277 0.0894345 -12.9518 0.0894345 -19.8488c0 -123.769 -11.4823 -335.402 -135.761 -498.652
c-9.79599 -12.8671 -59.6683 -81.9861 -86.3994 -116.639c0.00548174 -0.00549016 0.00548174 -0.00549016 34.5588 -27.3604c18.0239 18.0237 41.8555 63.2951 69.1203 97.9202c45.8669 58.2504 96.571 147.247 114.189 230.268l4.00673 18.8812l5.66147 -18.4525
c53.5491 -174.533 121.172 -247.766 183.622 -315.375c0 0 12.1936 -13.233 12.2021 -13.2417l23.426 15.6178l-4.58287 2.55737l3.41945 7.82333c-2.66407 2.37789 -6.09348 5.56656 -10.092 9.56511c-45.8578 45.8568 -163.978 186.257 -177.796 334.532
c-1.50004 0.653908 -5.68532 4.40323 -5.68532 25.8437c0 52.0453 14.6911 159.601 14.6911 212.823zM267.652 723.474c0 0 0.000195331 0.000368664 0 0z" />
  </g>

</svg>
