<?xml version="1.0" standalone="no"?>
<!DOCTYPE svg PUBLIC "-//W3C//DTD SVG 1.1//EN" "http://www.w3.org/Graphics/SVG/1.1/DTD/svg11.dtd" >
<svg xmlns="http://www.w3.org/2000/svg" xmlns:xlink="http://www.w3.org/1999/xlink" version="1.1" viewBox="-10 0 1051 1000">
  <g transform="matrix(1 0 0 -1 0 800)">
   <path fill="currentColor"
d="M271 608l-12 60c128.725 89.7881 355.203 55.3633 442.457 48.5605c0 -0.0107422 0.000976562 -0.0214844 0.000976562 -0.0322266c27.4463 0.582031 75.1855 -1.32129 107.268 -33.4033c40.1396 -40.1396 38.6152 -108.841 37.5254 -169.365
c-0.395508 -21.9258 -0.433594 -33.2402 -0.22168 -41.9463c26.3789 -43.8281 72.168 -89.959 89.3252 -129.607c6.95117 -16.0635 5.49219 -24.7637 2.64551 -40.2051l-12 -14l-79.501 -63.5771v-212.431c1.93945 -31.0869 1.82422 -79.2412 -27.416 -108.48
c-26.0322 -26.0322 -182.507 -12.0195 -220.584 -13.0049l-2.90137 0.0126953c-103.732 -7.2998 -296.108 50.6025 -326.603 92.1719c-18.5059 25.2275 -31.4014 41.2529 -57.9951 55.3086v70.0371c25.8174 -16.2627 49.624 -17.8066 70.1904 -60.6357
c44.2188 -92.082 349.455 -105.734 451.309 -108.438l-0.499023 -0.962891c50 12 34.1514 4.48145 42.5352 13.5361c19.1768 20.7119 3.97852 41.9688 5.50781 57.9648h-0.541992v2.14941c-0.253906 0.990234 -0.500977 1.94141 -0.738281 2.84863h0.738281v207.174v3.4873
v1.33887h1.58203l104 88h1.13281c4.9834 45.8955 -62.8379 92.1289 -94.2158 139.501l-3 4l-1 1c-2.02051 3.99219 0.0439453 4.02539 -2.08398 11.5605c-0.0371094 0.130859 -0.189453 0.24707 -0.174805 0.367188l0.258789 2.07227l0.0644531 1.49902
c0.00976562 0.226562 0.150391 3.89551 0.242188 6.24414c3.11426 79.1523 14.1973 176.389 -74.8154 176.771c-136.35 16.7461 -373.536 9.53418 -431.49 -46.5137zM30.3545 728.521h55.5146l17.1611 52.2256l17.1602 -52.2256h55.5156l-44.8672 -32.2959l17.1611 -52.2246
l-44.9697 32.2959l-44.9707 -32.2959l17.1611 52.2246zM562.281 214.24c0 15.54 -12.6006 27.7197 -28.1406 27.7197s-28.5596 -12.1797 -28.5596 -27.7197c0 -18.0596 14.2793 -26.8799 28.5596 -26.8799c7.98047 0 15.54 2.52051 21 7.97949
c4.2002 4.2002 7.14062 10.5 7.14062 18.9004zM574.881 207.1c-1.25977 -5.87891 -3.78027 -12.5996 -7.14062 -17.6396l34.8604 -34.8604c10.9199 13.0205 20.1602 35.7002 21.8398 52.5h-49.5596zM558.081 180.641c-5.04004 -3.36035 -11.3408 -5.88086 -17.2207 -7.14062
v-49.9795c16.7998 1.67969 39.4805 10.9199 52.5 21.8398zM509.781 180.641l-34.8604 -35.2803c13.0195 -10.9199 35.7002 -20.1602 52.5 -21.8398v49.9795c-5.87988 1.25977 -12.6006 3.78027 -17.6396 7.14062zM500.541 189.46
c-3.36035 5.04004 -6.30078 11.7607 -7.56055 17.6396h-49.5596c1.67969 -16.7998 10.9199 -39.4795 21.8398 -52.5zM492.98 220.54c1.25977 5.87988 4.2002 12.6006 7.56055 17.6406l-35.2803 35.2793c-10.9199 -13.0195 -20.1602 -35.7002 -21.8398 -52.9199h49.5596z
M509.781 247.42c5.03906 3.36035 11.7598 5.87988 17.6396 7.14062v49.9795c-16.7998 -1.67969 -39.4805 -10.9199 -52.5 -21.8398zM558.081 247.42l35.2793 35.2803c-13.0195 10.9199 -35.7002 20.1602 -52.5 21.8398v-49.9795
c5.87988 -1.26074 12.1807 -3.78027 17.2207 -7.14062zM567.74 238.181c3.36035 -5.04004 5.88086 -11.7607 7.14062 -17.6406h49.5596c-1.67969 16.7998 -10.9199 39.4805 -21.8398 52.5zM534.141 318.4c57.54 0 104.16 -46.6201 104.16 -104.16
c0 -56.7002 -46.2002 -104.16 -104.16 -104.16c-57.54 0 -104.16 46.6201 -104.16 104.16s46.6201 104.16 104.16 104.16zM344.601 420.6l-52.2002 -55.1992l56.5117 -50.2129l-10.3115 -8.58789l-56.6006 50.4004l-51.3994 -46.4004l-7.48926 8.18848l50.4893 45.4121
l-55 54.3994l9.2002 8.80078l55.7998 -52l53.0215 52.0986zM621.061 487.805c0 46.5371 -46.0723 84.4326 -102.899 84.4326c-56.8232 0 -102.898 -37.96 -102.898 -84.499c0 -46.5371 46.0713 -84.4326 102.898 -84.4326c56.8213 0 102.899 37.957 102.899 84.499z
M609.396 487.738c0 -40.168 -41.0391 -72.7686 -91.2354 -72.7686c-50.1963 0 -91.2344 32.668 -91.2344 72.835c0 40.166 41.0391 72.7666 91.2344 72.7666c50.1963 0 91.2354 -32.667 91.2354 -72.833zM574.783 482.13c0 3.58984 -9.27539 4.15625 -9.37793 4.15625
c-1.36621 0 -1.84473 -0.339844 -2.18262 -1.53223c-6.14258 -21.7227 -26.3154 -32.7178 -46.0479 -32.7178c-19.0439 0 -38.2588 10.2471 -43.9941 32.334c-0.25293 0.973633 -1.30176 1.85938 -2.48633 1.85938c-0.0986328 0 -9.16602 -1.25977 -9.16602 -3.68262
c0 -0.293945 2.33105 -14.2656 13.9355 -25.8701c10.9326 -10.9326 26.1738 -16.2764 41.5303 -16.2764c3.54688 0 46.502 0.836914 57.709 41.1309c0.0537109 0.195312 0.0800781 0.396484 0.0800781 0.598633z" />
  </g>

</svg>
