<?xml version="1.0" standalone="no"?>
<!DOCTYPE svg PUBLIC "-//W3C//DTD SVG 1.1//EN" "http://www.w3.org/Graphics/SVG/1.1/DTD/svg11.dtd" >
<svg xmlns="http://www.w3.org/2000/svg" xmlns:xlink="http://www.w3.org/1999/xlink" version="1.1" viewBox="-10 0 756 1000">
  <g transform="matrix(1 0 0 -1 0 800)">
   <path fill="currentColor"
d="M39 -151h42l13 40l14 -40h42l-34 -25l13 -40l-35 25l-34 -25l13 40zM621 247l1 -18h-9c-22 0 -26 2 -47 -2c-23 -5 -54 -22 -70 -40c-12 -17 -23 -48 -24 -69v-9c0 -15 2 -38 4 -53c6 -50 13 -102 -31 -143c-16 -15 -48 -29 -70 -32c-12 -2 -30 -3 -42 -3h-2
c-12 0 -24 1 -35 1l1 18c8 -1 22 -1 30 -1c13 0 33 1 46 3c19 2 46 14 60 27c37 35 32 80 26 128c-2 15 -5 40 -5 55v10c1 24 14 59 28 78c18 20 53 41 80 47c22 5 28 3 51 3h8zM322 153c6 -52 13 -104 -32 -146c-17 -15 -49 -29 -71 -32c-12 -2 -32 -4 -44 -4h-2
c-12 0 -24 1 -35 1l1 18c9 -1 22 -1 31 -1c13 0 34 1 47 3c19 3 46 15 61 28c38 36 33 82 27 131c-2 15 -4 40 -4 56v11c1 25 13 60 28 80c18 21 55 42 82 48c23 5 60 8 83 8h9v-18c-2 0 -7 1 -9 1c-22 0 -57 -4 -79 -8c-24 -5 -56 -24 -72 -42c-13 -17 -24 -48 -25 -70v-10
c0 -15 2 -39 4 -54zM410 698l25 38l-32 24l-2 10l45 -34l-25 -39zM444 461l-39 36l38 34l-1 -13l-26 -21l27 -26zM435 499c61 0 110 51 110 114s-49 114 -110 114s-110 -51 -110 -114s49 -114 110 -114zM435 490c-66 0 -120 55 -120 123s54 123 120 123s119 -55 119 -123
s-53 -123 -119 -123z" />
  </g>

</svg>
