<?xml version="1.0" standalone="no"?>
<!DOCTYPE svg PUBLIC "-//W3C//DTD SVG 1.1//EN" "http://www.w3.org/Graphics/SVG/1.1/DTD/svg11.dtd" >
<svg xmlns="http://www.w3.org/2000/svg" xmlns:xlink="http://www.w3.org/1999/xlink" version="1.1" viewBox="-10 0 1008 1000">
  <g transform="matrix(1 0 0 -1 0 800)">
   <path fill="currentColor"
d="M348.481 97.6934l-82.2217 148.848l24.0225 10.1475l58.4395 -100.383l53.3027 101.418l27.2285 -11.0254zM265.568 -67.707v34.6641h38.626v22.0713h-38.626v34.6641h38.626v33.7148h31.3828v-33.7148h23.2197v31.2539h31.3828v-31.2539h41.292v-34.6641h-41.292
v-22.0713h41.292v-34.6641h-41.292v-36.1855h-31.3828v36.1855h-23.2197v-33.7246h-31.3828v33.7246h-38.626zM335.577 -33.043h23.2197v22.0713h-23.2197v-22.0713zM780.659 223.904c-0.529297 0 -0.985352 0.173828 -1.32227 0.358398l-214.094 -88.2627v-37.8242
c12.126 5.10742 24.251 10.2148 36.376 15.3213v-3.77051l-0.21875 -161.659h318.305l0.646484 155.446c10.9619 -6.48535 21.9238 -12.9697 32.8867 -19.4551l-0.677734 40.7051l-136.33 79.1182l1.46387 0.616211c-22.6963 11.7715 -24.457 12.7314 -36.2109 19.5508
c-0.288086 -0.102539 -0.56543 -0.144531 -0.824219 -0.144531zM884.594 -16.7148h-248.003l-0.665039 144.662l142.009 59.8174l107.859 -63.8086zM63.3545 -23.4795h55.5146l17.1611 52.2256l17.1602 -52.2256h55.5156l-44.8672 -32.2959l17.1611 -52.2246
l-44.9697 32.2959l-44.9707 -32.2959l17.1611 52.2246zM579.987 582.944zM717.487 689.889l0.305664 -199.223l-140.861 76.3887c-10.0898 -37.4316 -49.7412 -67.8105 -88.5088 -67.8105c-39.6729 0 -79.5537 31.2695 -89.0205 69.7969l-140.25 -77.459v197.391
l140.404 -76.6953c9.78906 37.9668 49.5547 68.7812 88.7637 68.7812s78.9746 -30.8145 88.7637 -68.7812zM488.32 514.957h0.00683594c41.5801 0 75.7998 33.7441 76.3818 75.3203c-0.00390625 41.5723 -33.7471 75.3115 -75.3193 75.3115
c-41.5762 0 -75.3193 -33.7432 -75.3193 -75.3193c0 -40.9902 33.2637 -74.7295 74.25 -75.3125zM274.432 517.402l122.221 67.9863v5.04102v6.57031l-122.221 66.457v-146.055zM702.209 516.332v147.432l-122.222 -67.834v-5.80469v-7.33398z" />
  </g>

</svg>
