<?xml version="1.0" standalone="no"?>
<!DOCTYPE svg PUBLIC "-//W3C//DTD SVG 1.1//EN" "http://www.w3.org/Graphics/SVG/1.1/DTD/svg11.dtd" >
<svg xmlns="http://www.w3.org/2000/svg" xmlns:xlink="http://www.w3.org/1999/xlink" version="1.1" viewBox="-10 0 677 1000">
  <g transform="matrix(1 0 0 -1 0 800)">
   <path fill="currentColor"
d="M351.131 424.962zM339.594 260.962zM341.508 437.208zM124.952 166.589l0.300781 2.04395l2.27344 -0.422852l1.67969 -3.45703l-3.4668 0.706055l3.54199 -5.08105l-5.42969 -1.27441c0.320312 2.18164 0.641602 4.36328 0.961914 6.54492
c-2.64746 0.539062 -2.64746 0.539062 -6.47754 1.35254l3.08984 4.64746zM359.871 555.12c-0.348633 11.4004 -0.711914 23.3086 -0.711914 27.3506c0 1.53613 0.00976562 2.92578 0.0234375 4.08496c-3.18262 -0.385742 -6.42285 -0.584961 -9.70703 -0.584961
c-4.64062 0 -9.19238 0.396484 -13.6211 1.1582c0 -0.0263672 -0.00390625 -0.0537109 -0.00390625 -0.0800781c-0.00195313 0 -0.00390625 0.00195312 -0.00683594 0.00195312c-1.1875 -22.6934 -5.375 -94.0156 -5.88379 -97.5928
c-7.6416 -53.7676 -9.80469 -100.595 -9.80469 -139.888c0 -29.8428 1.23438 -54.8125 2.26074 -75.5664c0.726562 -14.6943 1.35059 -27.2734 1.35059 -38.0088c0 -19.0742 -1.68848 -29.2354 -9.5625 -32.0137l0.446289 0.368164
c-0.148438 -0.123047 -0.296875 -0.245117 -0.446289 -0.368164c-14.4229 -11.8486 -37.1641 -24.9316 -73.7764 -24.9316c-3.75781 0 -7.62207 0.135742 -11.5967 0.414062c-80.4424 5.61719 -85.7471 5.99121 -111.311 9.3418
c3.33594 -6.86523 6.6709 -13.7305 10.0059 -20.5957c5.74512 -1.05566 10.3545 -2.05273 17.498 -3.59766c20.2344 -4.37598 44.8779 -9.69531 73.7656 -9.69531c8.71484 0 17.8164 0.483398 27.2998 1.625c42.2656 5.08594 70.5186 14.2314 89.4932 25.1377
c11.6699 6.70703 22.2314 19.6445 22.2314 46.4121c0 33.1191 -16.0342 71.0293 -16.4375 82.7266c-0.512695 14.8594 -1.02539 29.7188 -1.53711 44.5771c4.49512 -12.8066 4.49512 -12.8066 15.3887 -43.0674c13.7822 -38.2881 51.791 -73.9033 72.6309 -93.251
c1.35352 -1.25684 7.56152 -7.02051 8.92676 -8.38574c6.04688 -6.0459 7.66309 -13.083 7.66309 -18.6104c0 -4.99902 -1.25391 -8.76562 -1.66211 -9.86035c0.0361328 -0.838867 0.0390625 -1.21191 0.0390625 -1.56641c0 -11.8135 -7.31055 -16.0811 -79.9199 -58.4639
l-31.7383 -18.5625l4.83203 -13.6279c23.8408 15.0537 80.9111 30.0283 112.336 61.4541c16.2822 16.2812 18.2246 29.4141 18.2246 35.0352c0 43.0342 -85.3877 100.548 -114.378 173.023c-0.863281 2.1582 -1.07031 4.42578 -1.75293 10.5107
c-0.452148 4.02344 -1.09082 9.7168 -2.18066 18.083c-0.737305 5.66113 -1.04785 12.0527 -1.04785 19.001c0 44.3359 12.6699 111.598 12.6699 148.013zM349.176 745.868c44.1426 0 80.0732 -35.8135 80.249 -79.9492c0 -39.5918 -28.832 -72.5244 -66.6895 -78.8516v0
l-3.3252 -0.555664c0 0.0234375 -0.00292969 0.0478516 -0.00292969 0.0712891c-0.0751953 -0.00976562 -0.149414 -0.0185547 -0.224609 -0.0273438c0.00195312 0.193359 0.00390625 0.380859 0.00683594 0.561523
c-0.0351562 0 -0.0703125 0.00488281 -0.105469 0.00488281l0.106445 0.0976562c0.0166016 1.26074 0.0361328 2.17188 0.0449219 2.5918c-0.0654297 1.00098 -0.118164 1.2832 -0.248047 1.98828c-1.28027 0.0527344 -5.10449 0.146484 -22.8809 0.539062
c-0.015625 -0.365234 -0.0214844 -0.499023 -0.0830078 -1.75195h0.000976562c-0.00585937 -0.103516 -0.0107422 -0.209961 -0.015625 -0.317383c-0.0351562 -0.702148 -0.0830078 -1.69727 -0.154297 -3.14062
c-0.00195313 0 -0.00390625 0.000976562 -0.00683594 0.000976562c0 -0.0263672 -0.00390625 -0.0527344 -0.00390625 -0.0791016c-0.740234 0.161133 -1.54004 0.335938 -2.39453 0.529297c-0.355469 0.0722656 -0.709961 0.147461 -1.06348 0.224609l0.0205078 0.015625
c-9.48633 2.22461 -24.7812 6.89941 -39.4561 21.5752c-14.4678 14.4678 -23.4238 34.4531 -23.4238 56.5244c0 44.792 36.7793 79.9482 79.6494 79.9482zM284.425 665.917c0 -36.4893 30.0283 -65.0488 64.7549 -65.0488c35.9102 0 65.1934 29.1602 65.3467 65.0723
c0 35.8926 -29.1592 65.0283 -65.0508 65.0283c-35.9043 0 -65.0508 -29.1455 -65.0508 -65.0518zM360.812 588.7l1.42676 1.30273l-1.37891 1.35645zM336 90l1.29492 -3.65332l-4.5957 1.41797c1.02832 0.751953 2.13086 1.49609 3.30078 2.23535zM331.168 103.628
l-2.14355 -1.25293l1.3125 3.5957zM442.787 182.221c-0.0664062 -0.179688 -0.110352 -0.287109 -0.123047 -0.317383zM117.521 188.806c-1.73926 0.227539 -3.57227 0.469727 -5.5293 0.727539l3.09375 4.28516z" />
  </g>

</svg>
