<?xml version="1.0" standalone="no"?>
<!DOCTYPE svg PUBLIC "-//W3C//DTD SVG 1.1//EN" "http://www.w3.org/Graphics/SVG/1.1/DTD/svg11.dtd" >
<svg xmlns="http://www.w3.org/2000/svg" xmlns:xlink="http://www.w3.org/1999/xlink" version="1.1" viewBox="-10 0 1010 1000">
  <g transform="matrix(1 0 0 -1 0 800)">
   <path fill="currentColor"
d="M30.3242 741.553h55.5146l17.1611 52.2256l17.1602 -52.2256h55.5156l-44.8672 -32.2959l17.1611 -52.2246l-44.9697 32.2959l-44.9707 -32.2959l17.1611 52.2246zM271 608l-12 60c128.725 89.7881 355.203 55.3633 442.457 48.5605
c0 -0.0107422 0.000976562 -0.0214844 0.000976562 -0.0322266c27.4463 0.582031 75.1855 -1.32129 107.268 -33.4033c40.1396 -40.1396 38.6152 -108.841 37.5254 -169.365c-0.395508 -21.9258 -0.433594 -33.2402 -0.22168 -41.9463
c26.3789 -43.8281 72.168 -89.959 89.3252 -129.607c6.95117 -16.0635 5.49219 -24.7637 2.64551 -40.2051l-12 -14l-79.501 -63.5771v-212.431c1.93945 -31.0869 1.82422 -79.2412 -27.416 -108.48c-26.0322 -26.0322 -182.507 -12.0195 -220.584 -13.0049
l-2.90137 0.0126953c-103.732 -7.2998 -296.108 50.6025 -326.603 92.1719c-18.5059 25.2275 -31.4014 41.2529 -57.9951 55.3086v70.0371c25.8174 -16.2627 49.624 -17.8066 70.1904 -60.6357c44.2188 -92.082 349.455 -105.734 451.309 -108.438l-0.499023 -0.962891
c50 12 34.1514 4.48145 42.5352 13.5361c19.1768 20.7119 3.97852 41.9688 5.50781 57.9648h-0.541992v2.14941c-0.253906 0.990234 -0.500977 1.94141 -0.738281 2.84863h0.738281v207.174v3.4873v1.33887h1.58203l104 88h1.13281
c4.9834 45.8955 -62.8379 92.1289 -94.2158 139.501l-3 4l-1 1c-2.02051 3.99219 0.0439453 4.02539 -2.08398 11.5605c-0.0371094 0.130859 -0.189453 0.24707 -0.174805 0.367188l0.258789 2.07227l0.0644531 1.49902
c0.00976562 0.226562 0.150391 3.89551 0.242188 6.24414c3.11426 79.1523 5.19727 173.389 -83.8154 173.771c-136.35 16.7461 -373.536 9.53418 -431.49 -46.5137zM336.636 390.783c0 -1.54785 0.270508 -10.3213 0.270508 -10.4248
c0 -15.7217 -4.34277 -47.7725 -4.34277 -61.2051c0 -3.55762 0.323242 -6.19727 0.483398 -7.13184l0.962891 -0.514648l0.181641 -1.9668c4.70898 -50.6152 52.248 -99.1934 56.5439 -101.917l-4.17285 -0.649414l-1.05762 -2.43164l5.70801 -3.18555
c-3.88965 -2.59375 -7.78125 -5.18848 -11.6719 -7.78223c-3.33594 3.6377 -3.33594 3.6377 -5.77539 6.2793c-17.8535 19.3291 -37.5977 40.8604 -53.4453 88.498c-6.57227 -23.332 -20.3848 -46.8574 -33.0361 -62.9219
c-11.0576 -14.0439 -9.95508 -17.3984 -23.1621 -32.0742l-15.9004 12.5879c9.69336 12.5645 27.7881 37.4043 28.0723 37.7793c36.4336 47.8584 39.9043 110.436 39.9043 147.283c0 2.70801 -0.00878906 3.75586 -0.0576172 9.5127
c4.91797 -0.109375 9.83496 -0.217773 14.7529 -0.325195c3.28516 -0.0712891 5.7793 -2.73633 5.7793 -5.82324c0 -0.0078125 -0.00292969 6.28125 -0.00292969 -0.850586c0 -0.0273438 -0.0341797 -0.69043 -0.0341797 -2.73633zM457.193 375.655l-17.9805 -25.6377
c-4.12598 7.41504 -4.12598 7.41504 -15.833 26.1748l-64.9678 -75.4863l-9.98438 7.95508l76.2061 85.9863zM536.534 191.103zM222.212 402.565zM163.513 294.503zM392.223 153.215zM391.809 140.093zM217.062 188.888zM317.805 157.193zM592.6 318.936zM163.513 294.503z
M592.6 318.936zM453.416 457.673c-22.1582 0 -40.916 -8.61816 -50.4307 -18.1318c-3.62012 -3.62012 -2.69629 -3.80957 -4.19336 -4.35449c-6.72656 -2.45312 -13.3174 -3.33887 -19.334 -3.33887c-5.67871 0 -15.998 0.836914 -27.1709 5.85742
c-7.5918 9.24219 -20.4336 17.6514 -42.0215 17.6514c-32.4092 0 -69.3682 -20.0605 -82.2227 -50.1182l-0.634766 -1.48535h-2.23633l-58.5576 -79.5635h-2.80078v-3.80469c-0.379883 -0.515625 -0.759766 -1.03027 -1.13867 -1.5459h0.612305l-6.48535 -24.3213
l-0.730469 0.0126953c-0.130859 -2.49023 -0.365234 -3.92285 -1.15234 -7.01758h0.944336c-0.0214844 -2.75 -0.0214844 -2.75 -0.0214844 -3.02832c0 -17.7803 7.6709 -53.7637 58.8096 -96.0566c54.0078 -44.6699 115.087 -49.5947 165.721 -49.5947
c82.9912 0 116.826 10.4004 166.488 49.6426c60.665 47.9365 61.6885 62.0518 63.3594 97.0898l-1.69922 0.0273438c-0.104492 0.388672 -7.55566 30.7949 -10.1963 38.9795l-43.3604 74.0938c-4.88672 5.09961 -4.88672 5.09961 -5.37891 5.94434h-0.322266
c-15.2441 15.6016 -47.2012 44.7988 -78.4033 51.2686c-5.9707 1.23828 -11.8164 1.79395 -17.4434 1.79395zM309.419 436.244c4.66504 0 15.0322 0 26.8516 -8.13281l-0.0908203 -1.12793c0.681641 -0.280273 1.77539 -0.794922 2.83789 -1.80371
c10.0146 -9.5166 25.4082 -13.9844 40.0215 -13.9844c13.6123 0 26.5479 3.87695 33.833 11.1611c1.41699 1.41699 3.70508 3.70508 5.47363 9.0332c7.50488 5.12109 19.4248 10.709 35.6973 10.709c21.5918 0 31.6885 -9.40332 39.4287 -16.6123
c6.01562 -5.60254 13.9385 -12.998 30.9766 -24.2715c0.650391 -0.141602 1.18652 -0.456055 1.61328 -0.939453l0.374023 0.0136719l48.7285 -76.8555c0 -0.130859 -0.00292969 -0.262695 -0.00292969 -0.394531c3.49316 -13.0928 6.68359 -26.4893 10.0488 -39.7129
c1.17676 -4.69922 1.83691 -9.05469 1.83691 -13.2725c0 -20.2334 -15.0537 -36.627 -58.418 -72.0645c-39.96 -32.6533 -68.8965 -43.8545 -156.105 -43.8545c-47.2119 0 -85.2676 5.7998 -129.712 36.9111c-54.7871 38.3516 -62.1553 66.5947 -62.1553 91.7451
c0 1.66016 0.03125 3.29395 0.078125 4.90332c2.73438 10.8486 5.70215 21.4629 8.52539 32.2227l53.3955 75.5938c0.755859 -0.291016 1.51367 -0.583008 2.26953 -0.874023c1.79785 4.23535 4.8623 11.4521 13.1729 19.7627
c13.3916 13.3916 33.2129 21.8447 51.3213 21.8447zM401.18 129.16z" />
  </g>

</svg>
