<?xml version="1.0" standalone="no"?>
<!DOCTYPE svg PUBLIC "-//W3C//DTD SVG 1.1//EN" "http://www.w3.org/Graphics/SVG/1.1/DTD/svg11.dtd" >
<svg xmlns="http://www.w3.org/2000/svg" xmlns:xlink="http://www.w3.org/1999/xlink" version="1.1" viewBox="-10 0 1051 1000">
  <g transform="matrix(1 0 0 -1 0 800)">
   <path fill="currentColor"
d="M279.499 609.326l-12 60c128.725 89.7881 355.203 55.3633 442.457 48.5605c0 -0.0107422 0.000976562 -0.0214844 0.000976562 -0.0322266c27.4463 0.582031 75.1855 -1.32129 107.268 -33.4033c40.1396 -40.1396 38.6152 -108.841 37.5254 -169.365
c-0.395508 -21.9258 -0.433594 -33.2402 -0.22168 -41.9463c26.3789 -43.8281 72.168 -89.959 89.3252 -129.607c6.95117 -16.0635 5.49219 -24.7637 2.64551 -40.2051l-12 -14l-79.501 -63.5771v-212.431c1.93945 -31.0869 1.82422 -79.2412 -27.416 -108.48
c-26.0322 -26.0322 -182.507 -12.0195 -220.584 -13.0049l-2.90137 0.0126953c-103.732 -7.2998 -296.108 50.6025 -326.603 92.1719c-18.5059 25.2275 -31.4014 41.2529 -57.9951 55.3086v70.0371c25.8174 -16.2627 49.624 -17.8066 70.1904 -60.6357
c44.2188 -92.082 349.455 -105.734 451.309 -108.438l-0.499023 -0.962891c50 12 34.1514 4.48145 42.5352 13.5361c19.1768 20.7119 3.97852 41.9688 5.50781 57.9648h-0.541992v2.14941c-0.253906 0.990234 -0.500977 1.94141 -0.738281 2.84863h0.738281v207.174v3.4873
v1.33887h1.58203l104 88h1.13281c4.9834 45.8955 -62.8379 92.1289 -94.2158 139.501l-3 4l-1 1c-2.02051 3.99219 0.0439453 4.02539 -2.08398 11.5605c-0.0371094 0.130859 -0.189453 0.24707 -0.174805 0.367188l0.258789 2.07227l0.0644531 1.49902
c0.00976563 0.226562 0.150391 3.89551 0.242188 6.24414c3.11426 79.1523 14.1973 176.389 -74.8154 176.771c-136.35 16.7461 -373.536 9.53418 -431.49 -46.5137zM38.8535 729.847h55.5146l17.1611 52.2256l17.1602 -52.2256h55.5156l-44.8672 -32.2959l17.1611 -52.2246
l-44.9697 32.2959l-44.9707 -32.2959l17.1611 52.2246zM596.975 212.677h4.67969c0.116211 -3.22559 0.231445 -6.45117 0.345703 -9.67676c17.832 0.624023 33.9521 8.13477 45.7686 19.9512c4.2959 4.2959 8.02246 9.16016 11.0566 14.4697l-7.48926 3.97363
l-0.920898 -1.45898l-45.9287 21.6699c-1.49805 -0.820312 -3.21875 -1.28711 -5.04688 -1.28711c-5.81055 0 -10.5205 4.70996 -10.5205 10.5205c0 4.44043 2.75098 8.2373 6.6416 9.78125v49.0566h1.08008v8.96484
c-9.18066 -0.432617 -35.3213 -3.97852 -52.8076 -29.5156c2.63086 -1.51855 5.26074 -3.03711 7.89062 -4.55566l-2.7002 -4.67676c-2.6875 1.55176 -5.37598 3.10352 -8.06348 4.65527c-5.7002 -9.93457 -8.95996 -21.4443 -8.95996 -33.7119
c0 -11.9639 3.12012 -23.2227 8.59082 -33.0029c2.78125 1.60547 5.56152 3.21094 8.34277 4.81641l2.7002 -4.67676l-8.2207 -4.74609c11.751 -17.5752 31.4648 -29.3838 53.9062 -30.2227c-0.115234 3.22363 -0.229492 6.44824 -0.344727 9.67188zM674.101 270.838
c0 -40.9678 -33.25 -74.2188 -74.2207 -74.2188c-40.9697 0 -74.2197 33.251 -74.2197 74.2207c0 40.7285 33.0527 73.9736 73.7783 74.2188h0.148438c40.9746 0 74.3506 -33.2539 74.5137 -74.2207zM602.04 338.684v-9.00684h0.707031l1.77246 -49.624
c2.87695 -1.58984 4.92969 -4.48633 5.35742 -7.88965l45.2324 -24.7939l-1.26758 -2.00781l7.16309 -3.80176c4.28809 8.86816 6.71094 18.7979 6.75586 29.2812c0 12.6631 -3.47363 24.5166 -9.51855 34.665c-2.61719 -1.6377 -5.23535 -3.27734 -7.85254 -4.91504
l-2.34082 4.05371c2.55371 1.59863 5.1084 3.19727 7.66211 4.7959c-5.2373 7.55762 -22.3916 28.2637 -53.6709 29.2432zM589.075 387.323v80.0654l1.04395 0.464844c1.82129 0.246094 6.95117 2.94629 9.71777 6.65918
c0.0498047 0.0654297 2.44043 4.27832 3.69922 7.3877h79.9678l-0.313477 -2.98438c-1.9375 -18.4111 -11.6855 -42.0205 -23.3018 -56.4395c-3.65137 -4.53125 -2.14648 -3.36621 -4.41602 -5.63574c-1.70312 -1.70312 -3.46387 -2.85156 -4.7793 -3.71777
l0.150391 -0.150391l-2.33203 -1.88867c-14.4033 -11.6621 -38.0186 -21.4688 -56.4473 -23.4404zM683.657 492.024h-80.0459c-0.338867 0.928711 0.232422 -1.29785 0 0c-0.578125 3.23145 -1.7041 4.79297 -5.46191 8.1582
c-0.0429688 0.0380859 -1.87793 1.72852 -4.0332 4.18164c-1.23145 0.655273 -1.66406 0.885742 -5.04102 2.15234v80.0098l2.98926 -0.319336c17.373 -1.86035 39.3242 -10.6875 53.8516 -21.4443c2.92188 -2.16309 2.82227 -1.25391 5.89648 -4.16113
c0.96582 -0.914062 1.09766 -1.03906 1.55273 -1.21094c0.929688 -0.351562 1.56152 -0.589844 2.10938 -1.6582c0.761719 -1.4834 0.785156 -0.646484 1.94727 -2.94629c3.07617 -2.06641 3.34668 -2.63086 5.34082 -6.79004l-0.0556641 -0.0849609
c11.6436 -16.3789 19.0459 -37.7344 20.6377 -52.9033zM578.876 586.677v-80.0645l-1.34375 -0.59668c-0.441406 -0.385742 -0.989258 -0.637695 -2.06152 -1.46582c-0.947266 -0.731445 -0.0917969 0.553711 -1.88965 -1.61914l-1.89062 -1.89062
c-0.268555 -0.268555 0.270508 0.270508 -1.34961 -1.08008c-3.24023 -2.96973 -2.43066 -2.16016 -3.03027 -2.88379c-0.357422 -0.431641 -0.538086 -1.5625 -1.29004 -2.78613c-0.104492 -0.170898 -0.794922 0.200195 -1.26465 -2.19043h-80.3086l0.313477 2.98438
c1.9375 18.4111 11.6855 42.0205 23.3018 56.4395c1.59277 1.97656 0.71875 1.08691 2.60742 3.24609c0.754883 0.862305 1.08105 1.08008 1.29004 1.44043c0.046875 0.0810547 5.11816 4.03027 7.61621 6.19824c9.20996 6.40527 29.2461 21.0518 56.3105 23.9482z
M583.978 597.024c-60.7334 0 -110.026 -49.29 -110.026 -110.024c0 -60.7363 49.2949 -110.024 110.024 -110.024c60.7373 0 110.024 49.2949 110.024 110.024c-0.0839844 60.6553 -49.377 109.941 -110.022 110.024zM484.299 481.9h80.04
c0.363281 -0.996094 -0.793945 -0.261719 1.41211 -4.62012c1.60742 -3.17969 5.68066 -6.70996 6.75293 -7.3457c0.195312 -0.115234 -0.873047 0.636719 -0.542969 0.595703c0.555664 -0.0693359 1.21094 -1.00879 2.32422 -1.48633h0.533203
c0.458008 -0.203125 0.458008 -0.203125 4.05762 -1.41797v-80.1533l-2.98633 0.316406c-18.4199 1.95605 -42.0303 11.7314 -56.4414 23.3701l-2.33789 1.88867l0.286133 0.286133c-2.35645 2.95801 -2.49121 3.12695 -3.87695 4.1582
c-0.970703 0.72168 -1.85449 1.43164 -3.23047 2.9834l-0.341797 -0.342773l-1.8916 2.33691c-11.6602 14.4033 -21.4648 38.0156 -23.4365 56.4414zM504.714 80.0449c17.6348 0.992188 67.8613 -7.3877 70.4971 -2.45801c52.0264 4.83887 100.638 55.2109 98.7607 55.2754
l5.69043 -8.53613c-20.9453 -19.2031 -41.6729 -40.6299 -98.4277 -56.9561c24.9902 -3.63477 52.9795 -19.2451 70.792 -33.2705c10.8379 -8.53418 19.5078 -12.1924 27.6357 -19.5098l-7.72168 -9.75293c-14.2246 10.9736 -23.3936 17.1328 -32.9199 24.3857
c-48.6426 37.0303 -112.508 38.5781 -146.341 38.293c0.0751953 3.44531 0.151367 6.89062 0.226562 10.3369c0.0419922 1.9375 1.92676 2.01758 2.73145 2.05176c0.0898438 0.00292969 4.32422 -0.126953 9.07617 0.140625z" />
  </g>

</svg>
