<?xml version="1.0" standalone="no"?>
<!DOCTYPE svg PUBLIC "-//W3C//DTD SVG 1.1//EN" "http://www.w3.org/Graphics/SVG/1.1/DTD/svg11.dtd" >
<svg xmlns="http://www.w3.org/2000/svg" xmlns:xlink="http://www.w3.org/1999/xlink" version="1.1" viewBox="-10 0 1008 1000">
  <g transform="matrix(1 0 0 -1 0 800)">
   <path fill="currentColor"
d="M348.481 97.6934l-82.2217 148.848l24.0225 10.1475l58.4395 -100.383l53.3027 101.418l27.2285 -11.0254zM265.568 -67.707v34.6641h38.626v22.0713h-38.626v34.6641h38.626v33.7148h31.3828v-33.7148h23.2197v31.2539h31.3828v-31.2539h41.292v-34.6641h-41.292
v-22.0713h41.292v-34.6641h-41.292v-36.1855h-31.3828v36.1855h-23.2197v-33.7246h-31.3828v33.7246h-38.626zM335.577 -33.043h23.2197v22.0713h-23.2197v-22.0713zM780.659 223.904c-0.529297 0 -0.985352 0.173828 -1.32227 0.358398l-214.094 -88.2627v-37.8242
c12.126 5.10742 24.251 10.2148 36.376 15.3213v-3.77051l-0.21875 -161.659h318.305l0.646484 155.446c10.9619 -6.48535 21.9238 -12.9697 32.8867 -19.4551l-0.677734 40.7051l-136.33 79.1182l1.46387 0.616211c-22.6963 11.7715 -24.457 12.7314 -36.2109 19.5508
c-0.288086 -0.102539 -0.56543 -0.144531 -0.824219 -0.144531zM884.594 -16.7148h-248.003l-0.665039 144.662l142.009 59.8174l107.859 -63.8086zM63.3545 -23.4795h55.5146l17.1611 52.2256l17.1602 -52.2256h55.5156l-44.8672 -32.2959l17.1611 -52.2246
l-44.9697 32.2959l-44.9707 -32.2959l17.1611 52.2246zM414.777 435.503c-1.99609 -10.2793 -9.62305 -16.1387 -17.8242 -16.6367c-17.4736 -1.0625 -33.1074 18.6279 -16.6133 34.9082c2.05371 2.02734 4.57812 4.05859 7.87109 5.08496
c2.69629 2.15039 14.8457 16.1016 35.3125 40.1309c-24.6211 16.4688 -25.627 23.21 -25.8721 27.2578c-0.573242 9.41797 9.86621 21.3984 19.8193 22.0039c7.0293 0.425781 13.457 -4.90234 13.3281 -16.1973c0.128906 -2.13672 6.25 -11.6934 10.8555 -9.12012
c173.746 192.573 173.746 192.573 174.318 193.104c0.364258 0.338867 31.3486 27.5586 41.1074 28.1514c4.63086 0.282227 8.27344 -3.27344 8.52344 -7.38574c0.216797 -3.57129 -1.21582 -6.52148 -16.6035 -36.8047l-0.208984 -0.235352
c-143.262 -163.548 -177.52 -202.658 -177.408 -204.492c0.0429688 -0.699219 0.428711 -2.25098 3.96387 -5.47754c6.89746 -6.29492 10.3135 -1.02734 17.791 -4.27832c6.2207 -2.7041 11.5557 -12.5439 2.05957 -23.957
c-1.89648 -2.2793 -7.67188 -8.7002 -16.1465 -8.79102c-2.45508 -0.0273438 -9.1875 0.0878906 -28.7686 22.5078c-11.7744 -14.2695 -15.8096 -18.9854 -27.7246 -30.1543c-6.25488 -5.86133 -7.30176 -7.14453 -7.78027 -9.61914zM401.809 447.062
c-6.17578 -6.16016 -11.5527 -2.79492 -11.2656 -7.5293c0.138672 -2.26953 2.07812 -4.45703 4.50781 -4.30957c4.50195 0.273438 1.60254 4.29492 6.75781 11.8389zM479.522 469.894c-0.0644531 0.00878906 -0.30957 0.177734 -0.374023 0.186523
c0.138672 -0.0771484 0.263672 -0.139648 0.374023 -0.186523zM442.68 505.822c0.810547 -1.32227 2.22656 -4.52051 -0.120117 -8.93164c-3.83887 -7.21875 -26.3779 -29.7002 -37.5361 -45.8516c5.92383 6.42871 15.4648 13.4268 28.6201 29.7617
c9.93457 12.3359 12.2725 15.2402 16.5264 15.498c1.6377 0.0996094 3.04102 -0.353516 4.33789 -1.18164c-0.0957031 2.52148 0.418945 5.24805 2.0332 7.77734c3.28906 5.15234 5.41406 8.43262 110.4 128.221c0.683594 0.771484 55.8945 63.1309 67.0234 78.3457
c-16.0352 -13.9609 -38.1543 -38.793 -98.2744 -106.674c-35.0674 -39.5918 -47.2959 -53.1719 -69.7236 -77.9414c-8.4209 -9.30078 -12.7324 -14.2344 -15.8008 -16.2227c-1.57324 -1.02051 -4.12988 -2.33008 -7.48633 -2.80078zM414.559 527.479
c-0.0390625 -0.0644531 -0.0722656 -0.123047 -0.100586 -0.173828c-0.00390625 0.015625 0.105469 0.158203 0.100586 0.173828zM739.324 470.944c10.1797 -2.45898 15.6855 -10.3438 15.8125 -18.5586c0.269531 -17.5049 -20.1084 -32.2305 -35.625 -15.0156
c-1.93164 2.14258 -3.84766 4.75684 -4.72266 8.09375c-2.02637 2.79102 -15.4121 15.5586 -38.4902 37.0947c-17.5674 -23.8506 -24.3477 -24.5498 -28.4014 -24.6123c-9.43555 -0.144531 -20.9307 10.8262 -21.083 20.7959
c-0.109375 7.04199 5.50586 13.2227 16.7832 12.5801c2.14062 0.0332031 11.9648 5.71484 9.60254 10.4316c-184.505 182.292 -184.505 182.292 -185.01 182.887c-0.321289 0.380859 -26.1104 32.5654 -26.2607 42.3418c-0.0703125 4.63867 3.64551 8.11719 7.76562 8.17969
c3.57617 0.0546875 6.45898 -1.50977 36.0137 -18.2539l2.22656 -0.21875c156.89 -150.523 194.408 -186.519 196.245 -186.49c0.700195 0.0107422 0.268555 0.326172 3.65137 3.71191c6.60059 6.60449 1.49414 10.2568 5.08008 17.5791
c2.9834 6.0918 13.0547 10.9766 24.0264 0.970703c2.19043 -1.99609 8.34277 -8.05664 8.0498 -16.5264c-0.0839844 -2.4541 -0.503906 -9.1748 -23.7881 -27.7197c13.7207 -12.4082 18.249 -16.6533 28.8662 -29.0625c5.57422 -6.51367 6.80762 -7.61719 9.25781 -8.20801z
M727.19 458.513c5.87402 -6.44824 2.26855 -11.668 7.01074 -11.5957c2.27344 0.0351562 4.54688 1.875 4.50977 4.30859c-0.0693359 4.50879 -4.21875 1.79492 -11.5205 7.28711zM707.902 537.181c-0.0117188 -0.0634766 -0.191406 -0.300781 -0.203125 -0.364258
c0.0830078 0.134766 0.151367 0.256836 0.203125 0.364258zM670.342 502.004c1.35742 0.75 4.61621 2.01855 8.91602 -0.525391c7.03711 -4.16211 28.4756 -27.6953 44.1055 -39.5752c-6.1543 6.20898 -12.7129 16.0576 -28.4355 29.9404
c-11.873 10.4824 -14.668 12.9492 -14.7334 17.2109c-0.0253906 1.64062 0.491211 3.02148 1.37598 4.2793c-2.52148 0.0195312 -5.22266 0.65625 -7.67578 2.38477c-4.99805 3.51855 -8.17969 5.79102 -123.088 116.095
c-0.740234 0.717773 -60.5352 58.6973 -75.2305 70.5039c13.2207 -16.6514 37.0254 -39.8721 102.113 -103.007c37.9629 -36.8242 50.9746 -49.6562 74.7031 -73.1816c8.90918 -8.83398 13.6426 -13.3652 15.4902 -16.5195
c0.947266 -1.61816 2.14062 -4.23145 2.45898 -7.60547zM647.434 474.894c0.0625 -0.0429688 0.119141 -0.0791016 0.169922 -0.109375c-0.015625 -0.00390625 -0.154297 0.112305 -0.169922 0.109375z" />
  </g>

</svg>
