<?xml version="1.0" standalone="no"?>
<!DOCTYPE svg PUBLIC "-//W3C//DTD SVG 1.1//EN" "http://www.w3.org/Graphics/SVG/1.1/DTD/svg11.dtd" >
<svg xmlns="http://www.w3.org/2000/svg" xmlns:xlink="http://www.w3.org/1999/xlink" version="1.1" viewBox="-10 0 1051 1000">
  <g transform="matrix(1 0 0 -1 0 800)">
   <path fill="currentColor"
d="M271 608l-12 60c128.725 89.7881 355.203 55.3633 442.457 48.5605c0 -0.0107422 0.000976562 -0.0214844 0.000976562 -0.0322266c27.4463 0.582031 75.1855 -1.32129 107.268 -33.4033c40.1396 -40.1396 38.6152 -108.841 37.5254 -169.365
c-0.395508 -21.9258 -0.433594 -33.2402 -0.22168 -41.9463c26.3789 -43.8281 72.168 -89.959 89.3252 -129.607c6.95117 -16.0635 5.49219 -24.7637 2.64551 -40.2051l-12 -14l-79.501 -63.5771v-212.431c1.93945 -31.0869 1.82422 -79.2412 -27.416 -108.48
c-26.0322 -26.0322 -182.507 -12.0195 -220.584 -13.0049l-2.90137 0.0126953c-103.732 -7.2998 -296.108 50.6025 -326.603 92.1719c-18.5059 25.2275 -31.4014 41.2529 -57.9951 55.3086v70.0371c25.8174 -16.2627 49.624 -17.8066 70.1904 -60.6357
c44.2188 -92.082 349.455 -105.734 451.309 -108.438l-0.499023 -0.962891c50 12 34.1514 4.48145 42.5352 13.5361c19.1768 20.7119 3.97852 41.9688 5.50781 57.9648h-0.541992v2.14941c-0.253906 0.990234 -0.500977 1.94141 -0.738281 2.84863h0.738281v207.174v3.4873
v1.33887h1.58203l104 88h1.13281c4.9834 45.8955 -62.8379 92.1289 -94.2158 139.501l-3 4l-1 1c-2.02051 3.99219 0.0439453 4.02539 -2.08398 11.5605c-0.0371094 0.130859 -0.189453 0.24707 -0.174805 0.367188l0.258789 2.07227l0.0644531 1.49902
c0.00976562 0.226562 0.150391 3.89551 0.242188 6.24414c3.11426 79.1523 14.1973 176.389 -74.8154 176.771c-136.35 16.7461 -373.536 9.53418 -431.49 -46.5137zM30.3545 728.521h55.5146l17.1611 52.2256l17.1602 -52.2256h55.5156l-44.8672 -32.2959l17.1611 -52.2246
l-44.9697 32.2959l-44.9707 -32.2959l17.1611 52.2246zM588.646 409.485zM417.759 524.453zM385.846 465.701zM510.188 388.887zM509.964 381.753zM414.959 408.281zM469.729 391.05zM619.129 478.985zM385.846 465.701zM619.129 478.985zM543.491 553.076
c-13.0391 0 -23.8926 -5.66309 -28.0518 -11.2295l-1.2207 -0.910156c-3.83691 -1.39941 -7.58203 -1.9043 -10.9922 -1.9043c-7.42578 0 -13.2637 2.39648 -15.0117 3.18164l-0.966797 0.740234c-1.45508 1.77148 -7.50879 8.90039 -21.5508 8.90039
c-16.752 0 -36.6719 -10.4033 -43.5439 -26.4736l-1.79297 -1.18164l-31.3555 -42.6035l-1.66406 -0.841797v-0.542969c-0.276367 -1.03027 -0.65332 -1.96191 -1.29199 -2.63086l0.513672 -0.669922l-2.81152 -10.541l-0.610352 -0.460938
c-0.0849609 -1.66699 -0.243164 -2.63477 -0.774414 -4.71289l0.641602 -0.647461c-0.000976562 -0.0976562 -0.000976562 -0.194336 -0.000976562 -0.291016c0 -9.11035 3.91504 -28.3936 31.4893 -51.1973c29.0049 -23.9902 61.8145 -26.6602 89.2676 -26.6602
c45.1465 0 62.9902 5.62012 89.6729 26.7041c32.2109 25.4521 33.0146 32.9238 33.9258 51.501l-1.12305 0.875c-1.77246 6.61523 -3.27734 14.0908 -5.37695 20.501l-0.178711 0.0917969l-23.0879 39.4521c-2.67383 2.79102 -2.67383 2.79102 -2.99609 3.35156
c-0.352539 0.148438 -0.352539 0.148438 -1.58105 1.37695c-8.16797 8.16797 -24.7451 22.6455 -40.3486 25.8809c-3.1416 0.651367 -6.21875 0.942383 -9.17871 0.942383zM621.587 481.605l0.0429688 -0.142578zM621.512 484.686l-0.563477 -0.941406l0.15625 -0.522461z
M465.153 544.12c5.34961 0 10.4736 -1.31152 14.7354 -4.24414l0.459961 -0.96875c0.446289 -0.195312 1.16992 -0.56543 1.83105 -1.19336c5.06152 -4.80957 13.1191 -7.28027 20.8809 -7.28027c0.880859 0 16.7549 0.133789 19.9258 9.68457l1.02734 1.35938
c5.52051 3.76855 12.7119 5.81641 19.7764 5.81641c12.2549 0 18.1006 -5.44434 22.3525 -9.40527c3.24121 -3.01855 7.41113 -6.91992 16.4941 -12.9443c0.364258 -0.114258 1.25488 -0.488281 1.76172 -1.50977l0.294922 -0.155273l25.8721 -40.8057
c0.0117188 -0.0410156 0.972656 -3.45703 1.06836 -4.09668l0.158203 -0.0205078l4.61133 -18.4062c0.658203 -2.63086 1.05859 -5.15723 1.05859 -7.6543c0 -11.3789 -8.1875 -20.418 -32.2705 -40.0986c-22.0254 -17.998 -38.3379 -24.1396 -85.6172 -24.1396
c-25.8281 0 -46.9238 3.18555 -71.3789 20.3057c-29.585 20.709 -34.3584 36.3291 -34.3584 51.0781c0 1.51074 0 2.31836 0.129883 3.20898l4.5293 16.9844l0.395508 0.844727l28.2939 40.0566l1.88379 0.571289c6.62793 15.6094 23.8799 23.0127 36.084 23.0127z
M480.756 538.049c0 0 -0.303711 0.660156 -0.318359 0.670898zM515.059 375.81zM501.952 417.414h7.08008v8.08984l0.780273 1.88281l38.0801 38.0801l-5.03711 4.9668l-29.2754 -29.2754l-4.54785 1.88281v18.4795l0.780273 1.88379l22.918 22.918l-5.0166 5.01562
l-14.1338 -14.1338l-4.54785 1.88281v29.1025h-7.08008v-28.4961l-4.54688 -1.88379l-13.8945 13.8936l-5.03516 -4.96484l22.6982 -22.7275l0.77832 -1.88184v-19.0879l-4.54688 -1.88281l-29.2764 29.2754l-5.03711 -4.9668l38.0801 -38.0801l0.780273 -1.88281v-8.08984z
M560.262 281.7h-0.166016c32.7451 -2.11816 59.3213 -30.4697 59.3213 -63.2842c0 -35.0059 -28.4111 -63.416 -63.417 -63.416s-63.416 28.4102 -63.416 63.416c0 20.2334 14.2285 44.8516 31.7607 54.9512h-155.75v8.33301h191.667zM555.845 163.45h-0.166016h0.166016
c30.4062 0 55.084 24.6777 55.084 55.083v0.000976563c0 30.4062 -24.6777 55.083 -55.084 55.083c-30.4053 0 -55.083 -24.6768 -55.083 -55.083s24.6777 -55.084 55.083 -55.084z" />
  </g>

</svg>
