<?xml version="1.0" standalone="no"?>
<!DOCTYPE svg PUBLIC "-//W3C//DTD SVG 1.1//EN" "http://www.w3.org/Graphics/SVG/1.1/DTD/svg11.dtd" >
<svg xmlns="http://www.w3.org/2000/svg" xmlns:xlink="http://www.w3.org/1999/xlink" version="1.1" viewBox="-10 0 1008 1000">
  <g transform="matrix(1 0 0 -1 0 800)">
   <path fill="currentColor"
d="M348.481 97.6934l-82.2217 148.848l24.0225 10.1475l58.4395 -100.383l53.3027 101.418l27.2285 -11.0254zM265.568 -67.707v34.6641h38.626v22.0713h-38.626v34.6641h38.626v33.7148h31.3828v-33.7148h23.2197v31.2539h31.3828v-31.2539h41.292v-34.6641h-41.292
v-22.0713h41.292v-34.6641h-41.292v-36.1855h-31.3828v36.1855h-23.2197v-33.7246h-31.3828v33.7246h-38.626zM335.577 -33.043h23.2197v22.0713h-23.2197v-22.0713zM780.659 223.904c-0.529297 0 -0.985352 0.173828 -1.32227 0.358398l-214.094 -88.2627v-37.8242
c12.126 5.10742 24.251 10.2148 36.376 15.3213v-3.77051l-0.21875 -161.659h318.305l0.646484 155.446c10.9619 -6.48535 21.9238 -12.9697 32.8867 -19.4551l-0.677734 40.7051l-136.33 79.1182l1.46387 0.616211c-22.6963 11.7715 -24.457 12.7314 -36.2109 19.5508
c-0.288086 -0.102539 -0.56543 -0.144531 -0.824219 -0.144531zM884.594 -16.7148h-248.003l-0.665039 144.662l142.009 59.8174l107.859 -63.8086zM63.3545 -23.4795h55.5146l17.1611 52.2256l17.1602 -52.2256h55.5156l-44.8672 -32.2959l17.1611 -52.2246
l-44.9697 32.2959l-44.9707 -32.2959l17.1611 52.2246zM495.417 632.973zM626.825 636.096c-79.0938 69.8955 -79.0938 69.8955 -79.3936 70.1953c-0.513672 0.513672 -1.50195 1.53418 -2.67676 2.81055c-1.13086 -0.979492 -1.8584 -2.2168 -2.57715 -3.04004
c-6.39941 -7.31641 -6.39941 -7.31641 -7.08105 -7.75293c-0.438477 -0.445312 -1.02832 -1.05176 -1.80469 -1.85938c0.399414 -0.360352 0.399414 -0.360352 2.8877 -2.31738l61.0576 -52.2617l-109.023 -1.47656l-58.9043 55.6211l-7.7793 -8.64941l48.9785 -46.752
l-18.29 -0.0234375h-120.065l0.0966797 -13.6973c1.95508 0.0273438 1.95508 0.0273438 138.378 -1.70996l-52.8877 -43.9746l8.19727 -8.86523l60.0957 51.9268c0.87793 0.290039 0.87793 0.290039 1.68945 0.616211l109.277 1.11426
c-19.7002 -16.2168 -39.4111 -32.4229 -59.1162 -48.6338l-0.325195 -0.294922l0.325195 0.294922v0l-0.325195 -0.294922v0v0l-2.85156 -2.34668c1.21973 -1.73535 1.51562 -1.39648 2.51562 -2.47656l6.60938 -7.14844v0v0v0
c-0.00976562 -0.114258 0.0126953 -0.242188 0 0v0l2.62891 -2.84277c1.10059 0.941406 2.29102 1.95996 2.75195 2.41992c77.2129 66.625 77.2129 66.625 78.459 67.8711c0.399414 0.399414 0.867188 0.861328 1.43066 1.33203
c-0.240234 0.19043 -0.240234 0.19043 -2.27734 2.21582zM740.7 661.86l76.2998 89.25l75.6006 -84.6992l-8.0498 -7.7002l-62.3008 73.1494l3.5 -252.35l-15.3994 0.700195l2.09961 251.649l-63.7002 -77zM327.076 499.038z" />
  </g>

</svg>
