<?xml version="1.0" standalone="no"?>
<!DOCTYPE svg PUBLIC "-//W3C//DTD SVG 1.1//EN" "http://www.w3.org/Graphics/SVG/1.1/DTD/svg11.dtd" >
<svg xmlns="http://www.w3.org/2000/svg" xmlns:xlink="http://www.w3.org/1999/xlink" version="1.1" viewBox="-10 0 1025 1000">
  <g transform="matrix(1 0 0 -1 0 800)">
   <path fill="currentColor"
d="M828.399 483.872c0 9.49878 0.360099 25.4826 0.360099 28.905l-0.318652 61.3747l-8.69455 54.78l-24.0577 41.7601l-29.8355 19.1251l-33.9409 8.02542l-47.9505 1.85133v0.765382l-107.704 8.96128l-161.614 -4.8437l-135.511 -48.0118l4.97421 -24.8711
l90.1513 34.2037l168.519 13.9909l163.859 -8.05849l72.0585 -32.0852l24.6852 -76.5829c-11.2968 -92.7231 -11.5388 -94.7093 -10.6225 -98.1968c0.272553 -1.03738 0.408327 -1.98777 0.495372 -2.92219c0.487753 -0.641757 1.13403 -1.58506 1.4862 -2.05622
l30.4464 -40.7334l38.0432 -60.0682l23.93 -33.502l-96.7113 -80.2498l-3.19974 -219.288c0.962733 -7.56244 2.78458 -22.0112 5.01798 -45.877c-0.12894 -0.269919 -9.65147 -20.9678 -12.8349 -27.02c-1.80565 -3.43278 -3.36365 -6.39475 -8.94453 -11.1259
c-28.726 -6.87192 -37.6748 -9.01268 -53.7943 -9.01268c-3.38415 0 -6.77838 0.14333 -10.1737 0.446144l-127.95 -3.2205l-189.706 31.9736l-119.91 72.0259l-21.8729 31.5454c-0.18608 0.126152 -14.9542 10.3475 -18.5829 12.6523v-31.4635
c5.41685 -3.87145 13.5068 -7.36272 24.4398 -17.2503c7.32645 -6.62591 2.09556 -4.45645 10.6241 -11.9264c1.03002 -0.902171 1.03002 -0.902171 17.2005 -21.8062l70.2643 -41.1391l123.979 -35.7692l40.8353 -3.74581
c52.8258 -4.90757 59.0669 -6.73248 83.0467 -7.42728l68.08 -1.97257l89.7606 0.254271l51.1066 12.4914l15.1376 25.2075l6.27671 34.16l-0.268638 82.9487l0.0291888 84.2282l-0.00582149 87.5189l84.7837 67.8016l7.68593 8.96692l1.11464 7.19504
c0.44913 7.61262 -1.52476 12.8022 -3.31214 18.1783l-23.3304 38.8443l-33.0243 43.448l-34.3179 48.9016c-0.202711 16.1296 -0.202711 16.1296 -0.202711 17.6951zM319.384 434.294c-0.0253906 0 -0.0351562 0.0166016 -0.0351562 0.0419922
c0 0.0292969 0.0126953 0.0693359 0.0283203 0.110352h-0.912109l2.87793 2.1543c-0.126953 -0.436523 -0.308594 -0.744141 -0.478516 -0.964844v-1.18945h-1.22168c-0.140625 -0.111328 -0.219727 -0.152344 -0.258789 -0.152344zM320.864 413.191v-2.39941
l-0.702148 1.69727l-1.69727 0.702148h2.39941zM526.233 485.517c-0.456055 15.1602 -0.551758 19.5078 -0.551758 21.2998c0 3.35059 0.0576172 5.35156 0.0576172 5.7959c0 3.03711 -0.891602 6.9375 -5.44727 7.03516l-23.668 0.522461
c0.0302734 -3.99805 0.0527344 -8.21191 0.0527344 -12.6738c0 -18.1123 -0.230469 -41.1621 -2.80371 -73.0498h-173.009v-21.2549h170.878c-5.31348 -43.5469 -19.1729 -135.851 -78.8574 -214.251c-11.9531 -15.7021 -34.5889 -47.8467 -54.0439 -72.9326
c15.3525 -12.1904 20.1426 -15.9463 22.876 -18.0518c19.6299 22.2705 23.0879 35.4805 43.4033 61.2793c27.8623 35.3857 58.5928 89 70.1328 139.658l2.47266 10.8525l3.31445 -10.625c32.8818 -105.398 73.4971 -150.473 120.96 -201.121
c2.55371 1.67578 2.55371 1.67578 18.584 12.3633c0.0751953 0.3125 0.174805 0.725586 0.271484 1.12793c-12.6377 10.3818 -109.423 108.56 -120.239 217.356c-2.10059 1.12793 -3.36914 5.00293 -3.36914 17.7686c0 10.2441 0.698242 22.917 3.81055 56.5752h2.73438
c56.2617 0 112.524 0.000976562 168.786 0.000976562v21.2539h-71.2998c4.10449 6.79785 4.99512 8.27441 4.99512 12.5986c0 8.6123 -7.10742 15.7207 -15.7188 15.7207c-8.6123 0 -15.7207 -7.10938 -15.7207 -15.7207c0 -4.32422 0.891602 -5.7998 4.99707 -12.5986
h-76.8018c2.7373 30.7002 3.2041 41.9336 3.2041 51.0703zM692.578 434.446v2.39941c0.582031 -1.01758 1.03125 -2.16797 2.39941 -2.39941h-2.39941zM692.578 413.192h2.39941l-1.69629 -0.702148l-0.703125 -1.69824v2.40039zM520.616 338.848
c-0.0429688 0.428711 -0.0839844 0.857422 -0.124023 1.28613l0.750977 -1.54492c-0.139648 0.0771484 -0.342773 0.106445 -0.626953 0.258789zM640.855 121.491c0.0830078 0.350586 0.229492 0.694336 0.291016 0.959961l0.701172 -1.69531
c-0.293945 0.21582 -0.625 0.433594 -0.992188 0.735352zM640.584 120.363c0.125977 0.0849609 0.25293 0.102539 0.380859 0.1875zM622 108c0.53418 -0.570312 0.881836 -0.933594 1.09961 -1.15137c-1.31152 0.382812 -1.31152 0.382812 -1.47656 0.388672
l-1.22754 -0.274414c0.0507812 0.0263672 0.530273 0.333008 1.60449 1.03711zM381.717 107.956c0.571289 -0.44043 1.03711 -0.794922 1.375 -1.04688l-1.11816 0.126953l-1.69629 -0.701172c0.491211 0.545898 0.967773 1.08594 1.43945 1.62109zM358.841 126.008
c-0.613281 -0.791016 -1.21191 -1.56348 -1.31445 -1.71191c0.114258 0.442383 0.311523 0.802734 0.366211 1.30566l-0.702148 1.69531c0.389648 -0.308594 0.951172 -0.733398 1.65039 -1.28906zM496.624 520.17l-2.41504 0.0537109l1.69434 0.702148l0.701172 1.6709
c0.00683594 -0.799805 0.0195312 -1.60938 0.0195312 -2.42676zM48.3545 723.521h55.5146l17.1611 52.2256l17.1602 -52.2256h55.5156l-44.8672 -32.2959l17.1611 -52.2246l-44.9697 32.2959l-44.9707 -32.2959l17.1611 52.2246z" />
  </g>

</svg>
