<?xml version="1.0" standalone="no"?>
<!DOCTYPE svg PUBLIC "-//W3C//DTD SVG 1.1//EN" "http://www.w3.org/Graphics/SVG/1.1/DTD/svg11.dtd" >
<svg xmlns="http://www.w3.org/2000/svg" xmlns:xlink="http://www.w3.org/1999/xlink" version="1.1" viewBox="-10 0 718 1000">
  <g transform="matrix(1 0 0 -1 0 800)">
   <path fill="currentColor"
d="M623.613 25.1836l-0.0107422 -0.413086c0.00488281 0.137695 0.0107422 0.275391 0.0107422 0.413086zM550.56 257.297l0.101562 -0.120117c-0.0332031 0.0400391 -0.101562 0.120117 -0.101562 0.120117zM448.779 247.937l0.106445 0.161133
c-0.0175781 -0.0263672 -0.0351562 -0.0537109 -0.106445 -0.161133zM382.97 32.834l0.0292969 0.191406c-0.00976563 -0.0644531 -0.0292969 -0.12793 -0.0292969 -0.191406zM389.098 8.0625l-0.137695 0.149414zM394.526 3.94238l-0.676758 0.201172
c0.226562 -0.0712891 0.452148 -0.138672 0.676758 -0.201172zM397.859 3.32227l-0.143555 0.0136719c0.0263672 0 0.0527344 -0.0136719 0.143555 -0.0136719zM508.688 279.975c-55.3799 5.01758 -78.1494 -54.707 -99.5723 -139.86
c-16.4873 -67.8789 -16.4873 -67.8789 -22.4551 -90.2598l0.0322266 0.131836c-0.0107422 -0.0439453 -0.0322266 -0.131836 -0.0322266 -0.131836c-4.21094 -17.3311 -7.69824 -31.6787 3 -42.376c3.92773 -3.92871 5.37109 -4.19629 16.543 -4.68652
c198.349 0.0859375 198.349 0.0859375 203.843 0.814453c4.74219 0.59082 16.6768 11.6309 12.7158 30.4375c-0.307617 1.55273 -24.6455 107.782 -38.666 153.497c-24.6113 79.3652 -53.9336 90.9482 -75.4082 92.4336zM605.297 -38.9219
c-15.4131 -0.31543 -197.771 -0.307617 -199.769 -0.243164c-12.0547 0.387695 -28.8174 0.927734 -43.1514 16.8057c-4.18652 4.63867 -23.6533 28.3613 -17.4561 62.29c2.28516 12.5059 5.35645 25.1025 11.0791 46.0693c24.5156 100.855 31.1611 128.193 49.5225 165.82
c15.0205 30.7305 48.1504 77.0049 109.506 69.6689c72.7939 -8.06836 99.9287 -91.6641 119.372 -170c6.83398 -28.4043 13.8115 -56.7539 20.9688 -85.1816c6.27051 -26.1201 12.3398 -51.3984 -3.19531 -77.0996c-7.72656 -12.7832 -22.2266 -28.4004 -46.877 -28.1299z
M281.751 341.043c-25.6475 2.99414 -84.3047 16.1748 -126.57 74.0225c-18.2803 -9.46191 -39.0176 -21.2109 -72.1816 -41.4307c-4.95801 14.8994 -5.05371 15.1875 -19.1133 34.0293c25.1641 14.0918 49.3242 27.335 72.6924 39.1094
c-10.6406 23.209 -16.5781 49.04 -16.5781 76.2266c0 37.6924 11.377 72.4219 30.6084 101.241c-17.4404 15.5752 -35.2666 30.8848 -60.0889 51.7852c12.0537 10.0732 12.0986 10.1367 24.2607 27.5957c22.5059 -17.1201 39.7285 -32.5586 59.1562 -51.0107
c27.9932 27.876 64.7041 46.667 104.949 52.0205c-0.395508 23.9531 -0.546875 46.5146 0.394531 74.6934l36.5918 0.870117c-0.375977 -13.7256 -0.880859 -33.3359 1.1709 -74.5664c26.2461 -2.05957 83.2617 -12.9404 127.431 -66.5469
c15.3789 10.5898 28.4482 18.1582 60.9072 36.9541c7.73926 -10.2109 10.4775 -14.0693 16.4766 -23.9111c4.26172 -6.99219 0.368164 -7.41699 -3.65332 -9.95605c-2.20898 -1.39355 -32.4512 -20.041 -53.4307 -33.3828c11.7441 -21.959 38.3184 -84.7168 6.8291 -158.007
c19.707 -12.3496 37.7021 -25.6084 58.7402 -42.1562c-8.2207 -14.7188 -10.332 -17.6865 -21.1709 -32.7568c-12.417 8.81934 -29.2949 20.8252 -56.8486 40.7246c-14.9277 -20.876 -57.624 -69.7725 -133.628 -76.1455
c-0.621094 -19.2988 -0.681641 -44.9834 -0.277344 -80.6807c-13.4307 0 -14.2197 0 -39.6074 1.88086c0.642578 25.1074 1.625 49.5146 2.94043 79.3975zM448.859 523.053c0 80.3623 -65.2969 145.6 -145.657 145.6c-80.3965 0 -145.661 -65.2656 -145.661 -145.658
c0 -81.6631 67.1611 -145.611 144.99 -145.658c80.4072 0 145.984 65.2979 146.328 145.717z" />
  </g>

</svg>
