<?xml version="1.0" standalone="no"?>
<!DOCTYPE svg PUBLIC "-//W3C//DTD SVG 1.1//EN" "http://www.w3.org/Graphics/SVG/1.1/DTD/svg11.dtd" >
<svg xmlns="http://www.w3.org/2000/svg" xmlns:xlink="http://www.w3.org/1999/xlink" version="1.1" viewBox="-10 0 1021 1000">
  <g transform="matrix(1 0 0 -1 0 800)">
   <path fill="currentColor"
d="M252 217c0 -3 3 -6 6 -6l459 -2c3 0 6 3 6 6l-1 196c7 -1 14 3 22 3c32 2 32 -1 32 -1l-53 63l-1 105c0 3 -3 6 -6 6h-263l-3 46l-2 17l-66 -59h-2h-122c-3 0 -6 -3 -6 -6v-368zM276 235v332h106l71 -60c1 20 -1 39 0 60l246 -1v-89l-59 -64l31 1h30l-2 -181z" />
  </g>

</svg>
