<?xml version="1.0" standalone="no"?>
<!DOCTYPE svg PUBLIC "-//W3C//DTD SVG 1.1//EN" "http://www.w3.org/Graphics/SVG/1.1/DTD/svg11.dtd" >
<svg xmlns="http://www.w3.org/2000/svg" xmlns:xlink="http://www.w3.org/1999/xlink" version="1.1" viewBox="-10 0 1115 1000">
  <g transform="matrix(1 0 0 -1 0 800)">
   <path fill="currentColor"
d="M270.024 151.927v148.269l1.93262 0.859375c3.37305 0.458008 12.873 5.45801 17.9961 12.333c0.0917969 0.12207 4.51855 7.92285 6.84961 13.6807h148.09l-0.582031 -5.52539c-3.58789 -34.0957 -21.6387 -77.8174 -43.1504 -104.518
c-6.76172 -8.39258 -3.97559 -6.23535 -8.17871 -10.4375c-3.15234 -3.15234 -6.41406 -5.2793 -8.84961 -6.88379l0.279297 -0.279297l-4.32031 -3.49805c-26.6729 -21.5957 -70.4043 -39.7559 -104.532 -43.4082zM445.176 345.817h-148.233
c-0.625977 1.71973 0.430664 -2.4043 0 0c-1.07031 5.98438 -3.15625 8.875 -10.1143 15.1064c-0.0800781 0.0722656 -3.47754 3.20312 -7.46973 7.74512c-2.28027 1.21289 -3.08105 1.63965 -9.33398 3.98535v148.166l5.53418 -0.591797
c32.1738 -3.44336 72.8232 -19.792 99.7256 -39.71c5.41113 -4.00684 5.22754 -2.32227 10.9189 -7.70703c1.78906 -1.69238 2.0332 -1.92285 2.87598 -2.24219c1.72266 -0.650391 2.8916 -1.0918 3.90723 -3.07129c1.41016 -2.74512 1.45215 -1.19824 3.60547 -5.45605
c5.69629 -3.82617 6.19727 -4.87109 9.88965 -12.5723l-0.102539 -0.158203c21.5625 -30.3311 35.2705 -69.8799 38.2178 -97.9697zM251.136 521.099v-148.267l-2.4873 -1.10449c-0.818359 -0.714844 -1.83301 -1.18164 -3.81836 -2.71484
c-1.75391 -1.35449 -0.169922 1.02539 -3.5 -3l-3.5 -3.5c-0.498047 -0.498047 0.5 0.5 -2.5 -2c-6 -5.5 -4.5 -4 -5.61133 -5.34082c-0.663086 -0.798828 -0.996094 -2.89355 -2.38867 -5.15918c-0.195312 -0.317383 -1.47266 0.371094 -2.3418 -4.05566h-148.721
l0.582031 5.52539c3.58789 34.0957 21.6387 77.8174 43.1504 104.518c2.9502 3.66211 1.33008 2.0127 4.83008 6.0127c1.39648 1.59668 2 2 2.3877 2.66602c0.0869141 0.150391 9.47852 7.46387 14.1045 11.4785c17.0547 11.8613 54.1582 38.9844 104.279 44.3496z
M260.584 540.262c-112.47 0 -203.753 -91.2783 -203.753 -203.749c0 -112.476 91.2871 -203.749 203.749 -203.749c112.476 0 203.749 91.2871 203.749 203.749c-0.154297 112.323 -91.4395 203.595 -203.745 203.749zM75.9941 327.068h148.221
c0.673828 -1.84473 -1.46875 -0.483398 2.61523 -8.55566c2.97852 -5.88672 10.5215 -12.4248 12.5059 -13.6016c0.361328 -0.214844 -1.61621 1.17773 -1.00586 1.10156c1.0293 -0.128906 2.24414 -1.86816 4.30566 -2.75098h0.986328
c0.847656 -0.376953 0.847656 -0.376953 7.51367 -2.62598v-148.434l-5.53027 0.587891c-34.1104 3.62012 -77.833 21.7227 -104.521 43.2764l-4.33008 3.49707l0.53125 0.53125c-4.36426 5.47656 -4.61426 5.79004 -7.18066 7.69922
c-1.79785 1.33691 -3.43359 2.65039 -5.98047 5.52539l-0.633789 -0.635742l-3.50391 4.32812c-21.5938 26.6738 -39.749 70.3984 -43.4014 104.522zM525.587 -105.39c-5.36816 0 -9.99414 4.37695 -9.99414 9.99316v351.123c0 5.3877 4.3916 9.99512 10.0283 9.99512
c0 0 98.4814 -0.397461 116.906 -0.47168l67.8408 61.3779l3.17969 -24.7705l2.34082 -43.29l247.278 5.38867c5.35449 0.117188 9.95605 -4.39746 9.95605 -9.99512v-101.249l59.9316 -69.7812l-45.7266 2.47656l-16.3799 2.33984l2.1748 -184.909
c0.0634766 -5.37207 -4.40723 -9.99414 -10.0283 -9.99414zM946.378 84.2373l-30.4199 -4.67969l-38.2891 5.07617l63.7637 69.9307v77.7354l-223.205 2.86816l-1.16895 -36.2715l-1.41113 -27.4961l-73.7422 62.1855l-94.6182 0.405273v-307.725l394.146 -1.69336z
M901.185 465.517zM546.771 703.952zM480.585 582.106zM738.467 422.797zM738 408zM540.964 463.019zM654.556 427.283zM964.401 609.655zM480.585 582.106zM964.401 609.655zM807.464 766.089c-24.9834 0 -46.1328 -9.7168 -56.8604 -20.4443
c-4.08301 -4.08301 -3.04102 -4.29492 -4.72852 -4.91016c-7.58496 -2.76562 -15.0166 -3.76562 -21.8018 -3.76562c-6.40234 0 -18.0381 0.944336 -30.6357 6.60449c-8.56055 10.4209 -23.04 19.9043 -47.3818 19.9043c-36.543 0 -78.2158 -22.6201 -92.71 -56.5107
l-0.714844 -1.67383h-2.52148l-66.0283 -89.7129h-3.15723v-4.29102c-0.427734 -0.581055 -0.856445 -1.16211 -1.28418 -1.74316h0.69043l-7.3125 -27.4229l-0.823242 0.0136719c-0.148438 -2.80762 -0.412109 -4.42188 -1.29883 -7.91211h1.06543
c-0.0253906 -3.09961 -0.0253906 -3.09961 -0.0253906 -3.41504c0 -20.0479 8.64941 -60.6201 66.3096 -108.308c60.8984 -50.3682 129.768 -55.9219 186.86 -55.9219c93.5762 0 131.727 11.7266 187.722 55.9746c68.4043 54.0518 69.5576 69.9678 71.4414 109.474
l-1.91406 0.0302734c-0.118164 0.439453 -8.52051 34.7236 -11.499 43.9531l-48.8896 83.5439c-5.50977 5.75 -5.50977 5.75 -6.06543 6.70215h-0.363281c-17.1885 17.5918 -53.2217 50.5127 -88.4033 57.8076c-6.73145 1.39648 -13.3242 2.02344 -19.6699 2.02344z
M645.102 741.927c5.26074 0 16.9492 0 30.2764 -9.1709l-0.102539 -1.27148c0.768555 -0.31543 2.00195 -0.895508 3.19922 -2.03223c11.293 -10.7314 28.6484 -15.7695 45.126 -15.7695c15.3496 0 29.9355 4.37109 38.1494 12.585
c1.59766 1.59766 4.17676 4.17773 6.1709 10.1846c8.46289 5.77539 21.9043 12.0752 40.252 12.0752c24.3457 0 35.7295 -10.6025 44.457 -18.7305c6.7832 -6.31738 15.7158 -14.6562 34.9268 -27.3682c0.734375 -0.15918 1.33789 -0.512695 1.82031 -1.05859
l0.421875 0.015625l54.9424 -86.6592c0 -0.147461 -0.00292969 -0.295898 -0.00292969 -0.444336c3.94043 -14.7637 7.53809 -29.8691 11.3311 -44.7783c1.32812 -5.29883 2.07129 -10.21 2.07129 -14.9658c0 -22.8145 -16.9727 -41.2998 -65.8691 -81.2568
c-45.0576 -36.8174 -77.6855 -49.4473 -176.018 -49.4473c-53.2334 0 -96.1426 6.54004 -146.256 41.6191c-61.7754 43.2432 -70.083 75.0889 -70.083 103.448c0 1.87109 0.0351562 3.71289 0.0878906 5.52734c3.08203 12.2334 6.42969 24.2012 9.6123 36.333
l60.207 85.2363c0.852539 -0.328125 1.70605 -0.657227 2.55859 -0.985352c2.02734 4.77539 5.48145 12.9111 14.8535 22.2822c15.0996 15.1006 37.4492 24.6318 57.8672 24.6318zM748.566 395.674z" />
  </g>

</svg>
