<?xml version="1.0" standalone="no"?>
<!DOCTYPE svg PUBLIC "-//W3C//DTD SVG 1.1//EN" "http://www.w3.org/Graphics/SVG/1.1/DTD/svg11.dtd" >
<svg xmlns="http://www.w3.org/2000/svg" xmlns:xlink="http://www.w3.org/1999/xlink" version="1.1" viewBox="-10 0 1046 1000">
  <g transform="matrix(1 0 0 -1 0 800)">
   <path fill="currentColor"
d="M348.481 97.6934l-82.2217 148.848l24.0225 10.1475l58.4395 -100.383l53.3027 101.418l27.2285 -11.0254zM265.568 -67.707v34.6641h38.626v22.0713h-38.626v34.6641h38.626v33.7148h31.3828v-33.7148h23.2197v31.2539h31.3828v-31.2539h41.292v-34.6641h-41.292
v-22.0713h41.292v-34.6641h-41.292v-36.1855h-31.3828v36.1855h-23.2197v-33.7246h-31.3828v33.7246h-38.626zM335.577 -33.043h23.2197v22.0713h-23.2197v-22.0713zM780.659 223.904c-0.529297 0 -0.985352 0.173828 -1.32227 0.358398l-214.094 -88.2627v-37.8242
c12.126 5.10742 24.251 10.2148 36.376 15.3213v-3.77051l-0.21875 -161.659h318.305l0.646484 155.446c10.9619 -6.48535 21.9238 -12.9697 32.8867 -19.4551l-0.677734 40.7051l-136.33 79.1182l1.46387 0.616211c-22.6963 11.7715 -24.457 12.7314 -36.2109 19.5508
c-0.288086 -0.102539 -0.56543 -0.144531 -0.824219 -0.144531zM884.594 -16.7148h-248.003l-0.665039 144.662l142.009 59.8174l107.859 -63.8086zM63.3545 -23.4795h55.5146l17.1611 52.2256l17.1602 -52.2256h55.5156l-44.8672 -32.2959l17.1611 -52.2246
l-44.9697 32.2959l-44.9707 -32.2959l17.1611 52.2246zM426.754 761.332v-108.314h12.0889v108.314h-12.0889zM330.514 764.071v-83.415h10.5967v83.415h-10.5967zM246.95 764.071l12.9521 -0.664062v-104.58l-12.9521 0.664062v104.58zM341.817 684.682
c90.5107 0 164.183 -63.5371 164.183 -141.682s-73.7119 -141.806 -164.183 -141.806c-90.4717 0 -164.183 63.5371 -164.183 141.723c0 78.1865 73.7109 141.765 164.183 141.765zM495.128 542.876c0 71.7949 -68.8086 130.212 -153.311 129.438
c-81.2344 -0.743164 -152.774 -58.4209 -153.271 -130.145c-0.498047 -71.834 68.8047 -129.438 153.271 -129.438c84.5049 0 153.311 58.3486 153.311 130.144zM264.299 535.987c19.8604 -80.7598 134.353 -77.1904 155.115 0.580078l10.9121 -3.23633
c-23.2754 -88.5615 -155.47 -92.5039 -176.939 0z" />
  </g>

</svg>
