<?xml version="1.0" standalone="no"?>
<!DOCTYPE svg PUBLIC "-//W3C//DTD SVG 1.1//EN" "http://www.w3.org/Graphics/SVG/1.1/DTD/svg11.dtd" >
<svg xmlns="http://www.w3.org/2000/svg" xmlns:xlink="http://www.w3.org/1999/xlink" version="1.1" viewBox="-10 0 1168 1000">
  <g transform="matrix(1 0 0 -1 0 800)">
   <path fill="currentColor"
d="M541.031 463.611c78.1104 0 141.745 -63.46 141.745 -141.777c0 -78.4736 -63.6875 -141.834 -141.776 -141.834c-69.3076 0 -129.013 52.834 -140.004 119.295c-0.569336 3.44922 -1.13965 6.89844 -1.70898 10.3477l-312.354 2.88477l0.249023 26.9443l312.354 -2.8877
c3.98535 21.6172 9.78516 53.0811 41.4824 84.7783c26.0586 26.0586 61.8184 42.249 100.013 42.249zM540.477 207.043c60.0439 0 115.106 47.7598 115.106 114.783c0 63.4746 -51.5957 114.843 -114.797 114.843c-51.0596 0 -96.9902 -36.2051 -110.742 -84.5439
l-4.48926 -15.7783l64.0254 -0.595703c5.52051 11.7363 7.30176 15.5234 14.1172 22.3398c9.76953 9.76855 23.2432 16.0771 37.084 16.0771c28.666 0 52.3027 -23.3145 52.3027 -52.3496c0 -31.3662 -26.0371 -52.3691 -52.293 -52.3691
c-14.957 0 -27.7041 6.68066 -36.8457 15.8223c-7.37207 7.37207 -9.53613 12.2002 -14.6172 23.54l-64.0225 0.589844c7.04395 -26.4053 12.1738 -45.6338 34.6807 -68.1426c23.6533 -23.6514 52.4287 -34.2158 80.4902 -34.2158zM535.555 164.845zM710.13 440.825
l173.167 -13.194l2.96608 35.0215l-109.991 6.59129l246.819 183.092l-23.035 27.9307l-243.82 -183.495l24.4233 102.436l-35.2899 6.29101z" />
  </g>

</svg>
