<?xml version="1.0" standalone="no"?>
<!DOCTYPE svg PUBLIC "-//W3C//DTD SVG 1.1//EN" "http://www.w3.org/Graphics/SVG/1.1/DTD/svg11.dtd" >
<svg xmlns="http://www.w3.org/2000/svg" xmlns:xlink="http://www.w3.org/1999/xlink" version="1.1" viewBox="-10 0 978 1000">
  <g transform="matrix(1 0 0 -1 0 800)">
   <path fill="currentColor"
d="M752.663 88.8096c3.32422 2.84473 58.4248 41.5068 59.0195 41.9229c18.5664 12.9971 47.7197 64.2568 52.875 78.1807c-0.0224609 1.91797 0.0224609 4.2002 0.0732422 6.8623c0.463867 24.5234 1.47656 82.0771 -40.2607 139.956
c-3.59082 4.97852 -6.7666 5.82227 -16.9043 19.1768c-31.6699 41.7178 -87.2012 98.0898 -171.592 51.6504c-3.02344 -1.66309 -11.9473 -11.0869 -22.2822 -18.3213c-8.33887 -5.83691 -19.127 -11.6602 -32.4805 -11.4961
c-20.9717 0.258789 -37.2539 8.08984 -49.1748 16.4346c-13.9688 9.77832 -22.0107 20.1309 -26.9854 23.6123c-19.0811 13.3574 -48.8691 9.90039 -92.0645 -15.5127c-12.9814 -7.63672 -21.6426 -36.7178 -38.3301 -49.2539
c-10.4033 -7.81543 -56.0215 -78.5537 -66.9482 -120.273c-2.52246 -9.63086 -2.4668 -16.9209 -0.984375 -19.6426l14.2559 -26.1729l-7.83691 6.07031c2.84375 -6.43359 31.9277 -70.8975 65.1846 -92.9951c27.5117 -18.2803 46.3936 -29.5781 57.8936 -35.6621
c-11.0293 12.7959 -30.1846 28.1055 -30.4502 28.4082c-12.0059 13.6924 4.65332 31.1387 69.3291 37.2461c33.6611 3.17773 71.5527 2.06543 92.7139 -7.71191c2.32617 -1.07422 4.16895 -2.00781 5.60156 -2.76855c42.2666 25.6328 116.27 7.15039 128.23 -19.9365
l20.4873 -46.3896zM582.169 -71.1641c-14.1348 2.14648 -39.2832 10.7129 -50.9795 18.9004c-14.9805 10.4854 -29.4961 30.9805 -36.7988 50.9141c-5.5498 15.1494 -6.95996 15.541 -10.9141 16.6387c-2.36719 0.657227 -130.521 39.4639 -181.336 125.193
c-11.5596 19.501 -11.1025 18.8193 -19.6338 29.5684c-0.947266 1.19434 -38.9404 49.9561 -15.5684 100.082c31.0898 66.6797 101.601 158.509 152.653 194.246c11.7617 8.2334 18.126 12.6885 48.8418 12.3828c9.11328 -0.0908203 42.1455 -0.743164 57.7256 -13.4346
c0.375977 -0.305664 29.8584 -23.332 39.2275 -29.5156c12.9746 -8.56445 18.1484 -9.29199 31.9805 -3.95508c7.61328 3.83203 24.4658 35.9395 82.6924 42.417c21.8779 2.43359 51.7451 4.20117 70.9131 -3.99219c139.442 -59.6025 163.931 -183.46 161.584 -243.462
c-0.292969 -7.48047 -18.4053 -54.3008 -20.3086 -63.7539c-1.23242 -6.12305 -3.83008 -4.65332 -18.5068 -22.499c-36.7295 -44.6631 -98.001 -77.5283 -145.906 -103.225l-1.16113 -21.1777c-1.24707 -22.7148 -6.48242 -45.668 -31.4072 -63.1152
c-26.6152 -18.6309 -74.4385 -28.083 -113.098 -22.2129zM454.83 119.894c0.686523 -1.01172 2.7207 -3.50879 7.63965 -7.04883c83.3232 -59.9727 35.71 -143.906 122.575 -161.692c14.1416 -2.89453 92.3809 -5.63379 109.114 41.0107
c9.66113 26.9316 -0.203125 91.9961 -17.3379 114.513c-15.8008 20.7627 -62.4512 28.1826 -83.6943 15.6953c0.691406 -0.630859 1.63086 -1.46387 2.85938 -2.50293c19.1758 -16.2197 16.251 -20.7715 12.6982 -23.2578c-8.1875 -5.73145 -17.71 0.93457 -44.165 19.4531
c-13.7373 9.61621 -14.7158 9.98047 -85.9277 6.49902c-12.2637 -0.599609 -20.998 -1.73438 -23.7617 -2.66895zM601 495l-132.378 239.645l34.7236 13.1299l98 -172l96 182l33.7539 -22.7676zM408.901 605.195l-109.901 -0.836914v-103.358l-172 107l-72.1992 40.5977
l34.8291 0.213867l319.271 0.766602v-44.3828z" />
  </g>

</svg>
