<?xml version="1.0" standalone="no"?>
<!DOCTYPE svg PUBLIC "-//W3C//DTD SVG 1.1//EN" "http://www.w3.org/Graphics/SVG/1.1/DTD/svg11.dtd" >
<svg xmlns="http://www.w3.org/2000/svg" xmlns:xlink="http://www.w3.org/1999/xlink" version="1.1" viewBox="-10 0 860 1000">
  <g transform="matrix(1 0 0 -1 0 800)">
   <path fill="currentColor"
d="M443.373 114.897c52.7686 0 106.919 29.2812 123.409 87.6006l2.20215 7.78906l33.6709 -9.42676c-5.06055 -18.2002 -12.6387 -45.4463 -39.7773 -72.5859c-31.4873 -31.4863 -75.916 -47.6289 -120.003 -47.6289c-41.9268 0 -83.5449 14.5996 -113.428 44.4834
c-27.8262 27.8262 -35.0254 57.1562 -39.6904 76.1631l33.7891 7.77148c4.34375 -16.7266 9.99121 -38.4746 31.1709 -59.6533c23.1318 -23.1318 55.7412 -34.5127 88.6562 -34.5127zM167.223 213c0 126.806 125.383 230.207 280.04 230.207
c154.669 0 280.04 -103.229 280.04 -230.027c0 -126.805 -125.383 -230.206 -280.04 -230.206c-154.669 0 -280.04 103.229 -280.04 230.026zM201.525 213.18c0 -108.083 110.638 -195.903 245.737 -195.903c135.092 0 245.737 87.6367 245.737 195.724
c0 108.083 -110.638 195.904 -245.737 195.904c-135.092 0 -245.737 -87.6367 -245.737 -195.725zM510.746 299.414c0 13.6494 9.75 24.6992 22.1006 24.6992c12.3496 0 22.0996 -11.0498 22.0996 -24.6992c0 -13.6504 -9.75 -24.7002 -22.0996 -24.7002
c-12.3506 0 -22.1006 11.0498 -22.1006 24.7002zM353.446 300.714c0 13 9.75 23.3994 22.0996 23.3994c12.3506 0 22.1006 -10.3994 22.1006 -23.3994s-9.75 -23.4004 -22.1006 -23.4004c-12.3496 0 -22.0996 10.4004 -22.0996 23.4004zM454 489l-132.378 239.645
l34.7236 13.1299l98 -172l96 182l33.7539 -22.7676z" />
  </g>

</svg>
