<?xml version="1.0" standalone="no"?>
<!DOCTYPE svg PUBLIC "-//W3C//DTD SVG 1.1//EN" "http://www.w3.org/Graphics/SVG/1.1/DTD/svg11.dtd" >
<svg xmlns="http://www.w3.org/2000/svg" xmlns:xlink="http://www.w3.org/1999/xlink" version="1.1" viewBox="-10 0 1050 1000">
  <g transform="matrix(1 0 0 -1 0 800)">
   <path fill="currentColor"
d="M826.958 528.138l-0.00878906 -0.330078c0.00390625 0.110352 0.00878906 0.220703 0.00878906 0.330078zM768.515 713.829l0.0810547 -0.0966797c-0.0263672 0.0322266 -0.0810547 0.0966797 -0.0810547 0.0966797zM687.091 706.341l0.0849609 0.128906
c-0.0136719 -0.0214844 -0.0283203 -0.0429688 -0.0849609 -0.128906zM634.443 534.259l0.0234375 0.152344c-0.0078125 -0.0507812 -0.0234375 -0.101562 -0.0234375 -0.152344zM639.235 514.561zM643.688 511.146l-0.541992 0.160156
c0.181641 -0.0566406 0.362305 -0.110352 0.541992 -0.160156zM646.354 510.649l-0.114258 0.0107422c0.0205078 0 0.0419922 -0.0107422 0.114258 -0.0107422zM735.018 731.971c-44.3037 4.01465 -62.5195 -43.7656 -79.6572 -111.888
c-13.1904 -54.3037 -13.1904 -54.3037 -17.9639 -72.208l0.0253906 0.105469c-0.00878906 -0.0351562 -0.0253906 -0.105469 -0.0253906 -0.105469c-3.36914 -13.8652 -6.15918 -25.3428 2.39941 -33.9014c3.14258 -3.14258 4.29688 -3.35645 13.2344 -3.74902
c158.679 0.0693359 158.679 0.0693359 163.074 0.651367c3.79395 0.472656 13.3418 9.30469 10.1729 24.3506c-0.246094 1.24219 -19.7168 86.2256 -30.9326 122.798c-19.6895 63.4922 -43.1475 72.7578 -60.3271 73.9463zM812.305 476.854
c-12.3301 -0.251953 -158.217 -0.246094 -159.814 -0.194336c-9.64453 0.310547 -23.0547 0.742188 -34.5215 13.4443c-3.34961 3.71094 -18.9229 22.6895 -13.9648 49.832c1.82812 10.0049 4.28516 20.082 8.86328 36.8555
c19.6123 80.6846 24.9287 102.555 39.6182 132.656c12.0166 24.585 38.5205 61.6045 87.6045 55.7354c58.2354 -6.45508 79.9434 -73.3311 95.498 -136c5.4668 -22.7236 11.0488 -45.4033 16.7744 -68.1455c5.0166 -20.8955 9.87207 -41.1182 -2.55566 -61.6797
c-6.18164 -10.2266 -17.7812 -22.7197 -37.502 -22.5039zM517.093 -110.06c-20.5381 0 -20.5381 0 -136.093 1.05957l0.151367 0.8125h-8.11328l7.20801 440.752l-159.727 87.7773v25.335l150.287 -85.7822c8.39453 -0.0214844 17.1768 0.00488281 26.5781 0.0556641
l-103.534 194.746h29.4092l103.435 -194.552l4.33105 0.0302734l1.66406 266.905h33.7822l-1.66309 -266.731c3.29297 0 6.58594 0.00390625 9.87793 0.00390625l112.005 212.647h29.4004l-110.924 -210.594l137.677 55.3389v-25.8076
c-37.3447 -16.5117 -74.6387 -33.0732 -112.015 -49.5527l-20.6533 -4.91699l3.61523 -120.419l29.7002 17.2676l6.4873 -42.1641l-34.8037 -21.1846l8.57227 -285.53c-2.21875 1.50098 -4.43652 3.00195 -6.65527 4.50293zM484.223 -77.9375l-10.3242 413.001h-5.33398
l6.19434 -413.001h9.46387zM426.853 -76.9385v413.174l-6.15918 0.723633l-2.06445 -414.734z" />
  </g>

</svg>
