<?xml version="1.0" standalone="no"?>
<!DOCTYPE svg PUBLIC "-//W3C//DTD SVG 1.1//EN" "http://www.w3.org/Graphics/SVG/1.1/DTD/svg11.dtd" >
<svg xmlns="http://www.w3.org/2000/svg" xmlns:xlink="http://www.w3.org/1999/xlink" version="1.1" viewBox="-10 0 1001 1000">
  <g transform="matrix(1 0 0 -1 0 800)">
   <path fill="currentColor"
d="M37.0283 734.918h55.5146l17.1611 52.2256l17.1602 -52.2256h55.5156l-44.8672 -32.2959l17.1611 -52.2246l-44.9697 32.2959l-44.9707 -32.2959l17.1611 52.2246zM810.704 624.365c0 -96.6865 68.0879 -173.199 99.375 -191.775l11.1992 -6.64941
c-16.9434 -0.478516 1.18945 0.900391 -34.5742 -3.5752l-1.0752 1.36426c-22.0068 27.9238 -93.998 110.011 -106.903 207.233c-0.657227 4.95117 0.0224609 9.79688 0.582031 18.2783c-1.38379 0.708984 -2.88672 1.4873 -4.52246 2.34082
c-0.0283203 -1.83984 -0.322266 -3.81641 -0.0449219 -5.88867c33.3789 -249.661 97.5459 -216.742 97.5459 -216.742s6.91211 -4.29004 10.2793 -6.58594h-32.8613c-44.1455 16.1279 -101.697 151.17 -101.697 222.331c0 8.73535 0.302734 15.3135 0.785156 20.6846
c-60.6641 32.3369 -181.179 64.7012 -284.885 64.7012c-23.0527 0 -45.5234 -2.04883 -73.3945 -6.17773c-32.3232 -4.78906 -32.3232 -4.78906 -70.6152 -21.2002c-18.916 -8.10645 -50.2139 -47.4062 -58.166 -66.7188
c-7.02734 -17.0664 -9.0791 -30.2676 -9.0791 -45.8906c0 -22.332 3.62891 -44.376 3.62891 -77.1553c0 -8.99219 1.14648 -13.8564 1.14648 -20.1924c0 -4.57031 -0.613281 -9.64551 -2.73242 -16.6025c-19.9492 -65.4795 -40.3174 -87.0479 -63.832 -110.183
c-6.25977 -6.16016 -27.0508 -26.6172 -27.0508 -37.7881c0 -4.45605 0.882812 -6.9082 38.3447 -19.4531c55.9199 -18.7266 60.0254 -24.4102 60.0254 -90.9766c0 -43.0117 2.70801 -110.013 2.70801 -151.731c0 -5.5 0.0820312 -11.3867 0.267578 -17.7666
c0.50293 -17.292 16.4512 -45.3398 23.8975 -57.5352c1.19629 -0.303711 1.95996 -1.18164 1.95996 -1.18164c1.1543 -0.666992 2.48438 -1.60059 4.13477 -2.74414c16.0508 -11.1162 22.0049 -13.1846 40.8428 -13.1846c24.0361 0 22.3457 4.21484 79.0615 4.21484
c0.316406 0 6.94531 -0.00390625 7.01562 -0.00390625c14.7988 0 25.668 0.226562 52.1025 3.80078c20.2021 2.73242 38.8271 4.61621 56.5088 6.4043c120.938 12.2334 201.711 24.1475 280.178 80.1953c2.23438 1.5957 5.14355 3.85352 8.45703 6.42773
c12.6104 9.7959 33.0303 26.8994 48.1416 26.8994c8.16699 0 13.834 -4.95996 13.834 -14.165c0 -15.4473 -17.4082 -42.8486 -33.0938 -42.8486c-1.16406 0 -1.56543 0.129883 -3.01758 0.129883c-22.6426 0 -44.3604 -36.5264 -79.4766 -51.29
c-52.8857 -22.2344 -138.298 -27.127 -175.459 -33.71c-17.2549 -3.05664 -36.6504 -6.49316 -61.8809 -12.2393c-34.7246 -7.90918 -51.6299 -8.61133 -86.7539 -8.61133c-0.251953 0 -22.7891 0.03125 -25.0811 0.03125c-11.3115 0 -32.6182 -0.123047 -32.9473 -0.123047
c-40.7773 0 -82.5049 2.86621 -120.91 24.8125c-26.0957 14.9121 -27.9092 36.1035 -30.0449 61.0586c-0.477539 5.59082 -0.976562 11.3994 -1.75781 17.3906c-1.96484 15.7158 -2.63672 29.7119 -2.63672 42.8916c0 28.6572 -4.27441 100.664 -4.27441 131.409
c0 46.4277 -4.59863 49 -29.7539 58.8145c-27.3184 10.6582 -57.2148 13.2568 -70.834 26.876c-4.33008 4.33008 -6.66504 9.68945 -6.66504 16.1094c0 4.7959 1.30371 10.1846 4.05176 16.1768c36.4951 79.5967 68.6367 70.0742 91.3711 139.761
c5.20312 15.9443 6.93652 32.2529 6.93652 48.6797c0 32.5635 -6.77832 65.1611 -6.77832 95.8125c0 47.6494 17.2412 68.3838 35.0508 86.1934c66.2422 66.2412 143.674 66.3555 238.901 66.3555h0.988281c82.8154 0 190.135 -23.3467 246.021 -49.8477
c43.5547 -20.6533 21.8506 -15.7109 32.4561 -16.8408c11.3984 -1.2168 39 -13 47.5039 -30.4053c4.31641 -8.83496 -4.12305 -21.668 -4.50391 -29.5947c-0.257812 -5.36523 2 -14.3428 2 -20zM594.865 248.823c0 1.08984 -1.09473 4.07715 -2.03516 5.29883
c-1.30176 0.96582 -4.43066 2.08008 -5.62402 2.08008c-4.31738 0 -7.40723 -2.99609 -10.2051 -5.79395c-1.20508 -1.20508 -2.79004 -1.81055 -4.37305 -1.81055c-2.55371 0 -3.96191 1.39941 -5.10938 2.5459c-0.237305 0.238281 -4.30664 3.80859 -6.69922 4.59766
c-1.09375 0.360352 -1.80664 0.457031 -2.6875 0.457031c-1.13965 0 -4.13965 -1.03125 -5.55859 -2.03711c-0.605469 -0.955078 -0.625977 -1.02539 -2.06738 -5.98242c0.119141 -1.84473 0.990234 -5.61035 5.14844 -9.61914l16.9863 -16.3867l16.8662 16.2344
c1.8252 1.82715 5.3584 5.41797 5.3584 10.416zM550.811 284.064c0.21875 -3.88672 0.0859375 -9.01855 -0.253906 -14.8701c5.53027 1.95703 13.3057 2.44727 21.9824 -3.63086c5.9082 4.19922 10.0889 4.93359 14.6162 5.02148
c6.21973 0 12.918 -3.30176 15.7637 -6.26465c6.11133 -6.3584 11.5977 -21.5605 -3.44727 -36.2529c-17.7871 -17.3682 -19.9062 -19.3145 -20.5117 -19.8447c-3.58203 -3.43945 -9.18262 -3.44922 -12.7969 0.0527344l-19.2139 18.6055
c-0.65625 -7.61621 -1.17676 -14.6895 -1.32812 -20.3916c-0.0615234 -2.30859 -0.234375 -12.6689 1.64062 -13.6719c0.214844 -0.0742188 0.385742 -0.193359 0.345703 -0.521484c6.0918 -65.4863 67.9238 -126.821 71.3633 -128.081
c0.113281 -0.0410156 -0.212891 0.00878906 -0.212891 0.00878906l-0.324219 -0.167969l-0.172852 -0.394531l1.02637 -0.572266l-11.583 -7.72363c-1.29004 1.40527 -1.91016 2.08203 -4.86621 5.28223c-23.4941 25.4355 -49.0908 53.1787 -69.0039 120.726
c-5.50098 -31.9551 -25.2148 -66.9941 -42.9893 -89.5674c-11.4629 -14.5586 -15.3457 -24.8154 -25.8447 -36.4795l-13.6992 10.8457c8.07812 10.4727 13.2588 17.5732 20.4199 27.4551c4.03418 5.56934 7.75391 10.7031 11.7285 15.9229
c48.627 63.876 50.0811 148.051 49.7178 190.824l14.1426 -0.311523c1.25586 -0.0273438 3.38965 -0.633789 3.3125 -4.46094c-0.0224609 -1.1084 -0.121094 -6.0625 0.188477 -11.5371v0zM545 331.802c-75.5117 0 -136.674 59.9287 -136.674 133.524
c0 73.5977 61.165 133.524 136.674 133.524c75.5117 0 136.674 -59.9287 136.674 -133.524c0 -73.5977 -61.165 -133.524 -136.674 -133.524zM545 581.912c-66.5439 0 -120.366 -51.8887 -120.366 -115.956c0 -64.0654 53.8203 -115.956 120.366 -115.956
c66.5439 0 120.366 51.8887 120.366 115.956c0 64.0664 -53.8203 115.956 -120.366 115.956zM480.63 390.288c-3.67285 0 -6.86133 3.3291 -6.86133 8.82617c0 0.899414 0.220703 4.42578 3.58594 5.93555c7.12793 3.31738 13.4277 6.78906 19.4746 10.123
c15.876 8.75391 30.3799 16.7471 52.3193 16.7471c23.9209 0 38.626 -9.29785 54.7959 -19.5215c5.16797 -3.26758 10.5381 -6.66211 16.5234 -9.99805c0.910156 -0.480469 3.19922 -2.04004 3.19922 -5.57422c0 -4.83496 -3.8584 -9.16113 -7.78516 -9.16113
c-1.55371 0 -2.34082 0 -17.8447 10.4629c-16.0146 10.8086 -28.1738 18.7461 -48.4609 18.7461c-20.1973 0 -32.4082 -6.96094 -49.3643 -16.6035c-5.20801 -2.96191 -10.8242 -6.15625 -17.1631 -9.39941c-0.808594 -0.414062 -1.63086 -0.583008 -2.41895 -0.583008z
M486.97 501.166c-9.14258 0 -15.7139 5.52832 -15.7139 11.9346c0 6.40527 6.57031 11.9346 15.7139 11.9346c9.14258 0 15.7148 -5.52832 15.7148 -11.9346c0 -6.40527 -6.57031 -11.9346 -15.7148 -11.9346zM597.85 502.426c-8.73145 0 -15.083 5.52637 -15.083 11.9346
c0 6.40918 6.35156 11.9346 15.083 11.9346c8.73242 0 15.085 -5.52539 15.085 -11.9346c0 -6.40918 -6.35254 -11.9346 -15.085 -11.9346z" />
  </g>

</svg>
