<?xml version="1.0" standalone="no"?>
<!DOCTYPE svg PUBLIC "-//W3C//DTD SVG 1.1//EN" "http://www.w3.org/Graphics/SVG/1.1/DTD/svg11.dtd" >
<svg xmlns="http://www.w3.org/2000/svg" xmlns:xlink="http://www.w3.org/1999/xlink" version="1.1" viewBox="-10 0 1088 1000">
  <g transform="matrix(1 0 0 -1 0 800)">
   <path fill="currentColor"
d="M599.282 676.48c81.7471 0 148.26 -44.7031 148.26 -99.54c0 -13.5869 -3.99121 -26.5654 -11.9287 -39.0947l36.3867 -173.846h-21.0117l-34.8887 151.723c-12.043 -10.1006 -23.1064 -16.4639 -35.7578 -22.084v-132.159h-21v124.458
c-7.89746 -2.30957 -29.5801 -8.53809 -60.0596 -8.53809c-16.2666 0 -30.4326 1.65137 -44.9727 4.67969l15.21 -118.92h-19.3262l-15.9033 124.328c-25.5352 8.48242 -39.9873 18.9102 -47.9248 25.0244l-17.7539 -137.592h-19.3271l19.9131 154.323
c-4.4375 5.47168 -13.6191 17.6523 -16.9414 34.8369c-0.128906 0 -0.258789 -0.00195312 -0.387695 -0.00195312c-8.90625 0 -18.8115 2.58887 -29.4141 8.55469c-27.5117 15.4805 -56.707 37.502 -56.707 61.2471c0 29.7393 18.2959 43.0205 68.0557 43.0205
c32.2676 0 49.9082 -12.1533 57.8066 -31.7793c19.7852 14.0068 54.9375 31.3594 107.673 31.3594zM449.284 374.92h-0.955078l0.833008 -0.949219zM468.611 374.92l-0.0947266 -0.732422l0.833008 0.732422h-0.738281zM550.193 363.159h-0.740234l0.833008 -0.732422z
M569.52 363.159l0.121094 -0.947266l0.833008 0.947266h-0.954102zM659.342 361.479h-0.839844l0.839844 -0.839844v0.839844zM680.342 361.479v-0.839844l0.84082 0.839844h-0.84082zM750.988 364h-0.668945l0.818359 -0.650391zM772 364l0.211914 -1.01367
l0.822266 1.01367h-1.03418zM810.91 531.376c0 0 -0.173828 0.0429688 -0.173828 0.0439453c0.0390625 -0.00976562 0.173828 -0.0439453 0.173828 -0.0439453zM953.258 456.741c-6.33789 0 -123.928 34.1758 -125.175 34.5381
c0.558594 -6.41406 1.2002 -13.4229 2.1582 -23.8789c0.00195312 0 8.09375 -89.1895 8.09375 -89.1895c34.3467 -378.487 27.8877 -303.629 27.8877 -307.533v-17.0332h-546.026c2.24805 29.2178 2.44434 31.7822 5.31738 84.9521
c0.00195312 0 5.73145 102.51 5.73145 102.51c0.000976562 0 5.76172 100.749 5.76172 100.749c7.78516 137.378 7.78516 137.378 8.67969 155.163c-13.0039 -6.2959 -76.5283 -37.918 -88.499 -42.9805c-3.43359 -1.45215 -4.625 -1.95508 -7.48438 -1.95508
c-1.59961 0 -6.51855 0.121094 -10.3564 4.875c-2.80762 3.47168 -70.6377 101.866 -81.2402 116.356c-5.19629 7.09961 -8.1123 11.083 -8.1123 16.5166c0 5.78027 1.93555 9.37793 14.082 17.6523c2.47461 1.68555 230.592 158.704 246.191 170.494h59.6484
c53.1963 0 58.4033 -0.201172 64.8398 -2.92285c0.655273 -0.27832 30.6543 -12.1396 70.1465 -12.1396c18.168 0 35.4111 0 68.6309 15.0625h111.842c2.63672 -1.80957 233.149 -160.671 262.46 -182.635c-46.1035 -69.625 -75.1104 -124.346 -85.0146 -134.251
c-4.32031 -4.32031 -9.41797 -4.35059 -9.5625 -4.35059v0zM420.952 743.138l1.34375 0.894531s-0.477539 -0.31543 -1.34375 -0.894531zM420.952 743.138c-21.041 -14.0498 -227.01 -156.553 -229.272 -158.178c7.34082 -10.1748 64.3252 -92.5439 64.9961 -93.4609
c1.07227 0.507812 103.312 50.3818 106.704 51.6553c0.606445 0.227539 -0.107422 0.884766 4.7666 0.884766c2.23145 0 13.6729 -0.766602 13.6729 -16.4883c0 -3.97656 -0.266602 -0.515625 -3.81934 -65.5508c-10.8936 -192.089 -21.0791 -372.803 -21.1465 -373.858
c0.182617 0 0.368164 -0.00488281 0.556641 -0.00488281c31.0654 -0.262695 110.469 -0.384766 196.34 -0.384766c109.351 0 243.23 7.58887 273.058 0.558594l3.77539 -1.58887c-4.0918 51.4766 -38.7812 421.405 -38.7812 429.171
c0 15.8408 12.6924 16.3174 14.2188 16.3174c5.54199 0 90.1562 -25.5947 138.288 -38.2197c0.545898 0.841797 32.9189 53.4346 52.7607 85.3613c1.61523 2.5957 3.15332 5.11523 4.51465 7.37305c-7.84375 5.45117 -19.6699 13.6543 -29.5752 20.4482
c0 0 -104.101 72.3252 -104.122 72.3398c-31.8447 22.0303 -90.9834 63.0557 -91.918 63.6689l0.378906 -0.0332031c-0.0214844 0.00683594 -0.143555 0.0332031 -0.378906 0.0332031c-2.17676 0.147461 -14.0957 0.6875 -47.1846 0.689453
c-15.7764 0 -31.5518 0.00488281 -47.3281 0.00488281c-21.4502 -8.19922 -38.9023 -14.8711 -73.7783 -14.8711c-22.3223 0 -40.959 0 -88.0078 14.8711h-49.4355c-27.7881 0 -44.3281 -0.441406 -49.2822 -0.738281v0z" />
  </g>

</svg>
