<?xml version="1.0" standalone="no"?>
<!DOCTYPE svg PUBLIC "-//W3C//DTD SVG 1.1//EN" "http://www.w3.org/Graphics/SVG/1.1/DTD/svg11.dtd" >
<svg xmlns="http://www.w3.org/2000/svg" xmlns:xlink="http://www.w3.org/1999/xlink" version="1.1" viewBox="-10 0 940 1000">
  <g transform="matrix(1 0 0 -1 0 800)">
   <path fill="currentColor"
d="M383.574 676.67l84.7275 99.1074l84.0859 -94.207l-14.8672 -14.2207l-59.0742 69.3613l3.49414 -251.845l-24.9404 1.13379l2.08984 250.512l-60.3877 -72.9971zM481 64h-15.832v25.1953l-111.239 111.239l11.2568 11.0986l99.9824 -99.9814v83.3936l-66.8213 66.9072
l11.2559 11.0977l55.5654 -55.5654v104.113h15.832v-105.863l56.251 56.251l11.2197 -11.2197l-67.4707 -67.4717v-81.6426l99.9824 99.9814l11.2568 -11.0986l-111.239 -111.239v-25.1953zM686.476 67.8457zM250.273 361.306zM168.814 211.341zM486.207 15.2686z
M485.633 -2.94336zM243.127 64.7725zM382.933 20.7891zM764.281 245.248zM168.814 211.341zM764.281 245.248zM571.127 437.781c-30.749 0 -56.7793 -11.959 -69.9824 -25.1621c-5.02539 -5.02539 -3.74219 -5.28711 -5.82031 -6.04395
c-9.33398 -3.40332 -18.4814 -4.63379 -26.832 -4.63379c-7.87988 0 -22.2012 1.16211 -37.7061 8.12891c-10.5361 12.8242 -28.3564 24.4961 -58.3154 24.4961c-44.9766 0 -96.2666 -27.8389 -114.104 -69.5508l-0.880859 -2.06055h-3.10254l-81.2656 -110.416h-3.88672
v-5.28027c-0.526367 -0.71582 -1.05273 -1.43066 -1.58008 -2.14551h0.849609l-9 -33.751l-1.0127 0.0166016c-0.182617 -3.45605 -0.506836 -5.44238 -1.59863 -9.73828h1.31055c-0.03125 -3.81543 -0.03125 -3.81543 -0.03125 -4.20312
c0 -24.6738 10.6465 -74.6094 81.6133 -133.302c74.9512 -61.9912 159.713 -68.8271 229.98 -68.8271c115.172 0 162.126 14.4336 231.043 68.8926c84.1904 66.5254 85.6094 86.1133 87.9277 134.736l-2.35645 0.0380859
c-0.144531 0.540039 -10.4854 42.7354 -14.1514 54.0957l-60.1729 102.823c-6.78125 7.07617 -6.78125 7.07617 -7.46484 8.24902h-0.446289c-21.1562 21.6514 -65.5039 62.1689 -108.805 71.1475c-8.28516 1.71875 -16.3994 2.49023 -24.209 2.49023zM371.297 408.043
c6.47363 0 20.8594 0 37.2627 -11.2871l-0.125977 -1.56445c0.945312 -0.388672 2.46387 -1.10156 3.9375 -2.50195c13.8984 -13.208 35.2598 -19.4082 55.5391 -19.4082c18.8916 0 36.8438 5.37988 46.9531 15.4893c1.96582 1.9668 5.14062 5.1416 7.5957 12.5352
c10.415 7.1084 26.959 14.8623 49.54 14.8623c29.9648 0 43.9756 -13.0508 54.7168 -23.0537c8.34863 -7.77539 19.3428 -18.0381 42.9873 -33.6836c0.90332 -0.196289 1.64551 -0.630859 2.23926 -1.30371l0.519531 0.0205078l67.6221 -106.658
c0 -0.181641 -0.00488281 -0.364258 -0.00488281 -0.546875c4.85059 -18.1699 9.27832 -36.7627 13.9473 -55.1123c1.63379 -6.52148 2.54883 -12.5654 2.54883 -18.4189c0 -28.0791 -20.8896 -50.8301 -81.0703 -100.009
c-55.4551 -45.3135 -95.6123 -60.8574 -216.637 -60.8574c-65.5176 0 -118.329 8.04883 -180.008 51.2236c-76.0312 53.2227 -86.2549 92.416 -86.2549 127.321c0 2.30176 0.0429688 4.56934 0.107422 6.80176c3.79395 15.0566 7.91406 29.7861 11.8311 44.7178
l74.1006 104.906l3.14941 -1.21289c2.49512 5.87695 6.74609 15.8916 18.2803 27.4248c18.585 18.585 46.0918 30.3154 71.2227 30.3154z" />
  </g>

</svg>
