<?xml version="1.0" standalone="no"?>
<!DOCTYPE svg PUBLIC "-//W3C//DTD SVG 1.1//EN" "http://www.w3.org/Graphics/SVG/1.1/DTD/svg11.dtd" >
<svg xmlns="http://www.w3.org/2000/svg" xmlns:xlink="http://www.w3.org/1999/xlink" version="1.1" viewBox="-10 0 1051 1000">
  <g transform="matrix(1 0 0 -1 0 800)">
   <path fill="currentColor"
d="M828.399 483.872c0 9.49878 0.360099 25.4826 0.360099 28.905l-0.318652 61.3747l-8.69455 54.78l-24.0577 41.7601l-29.8355 19.1251l-33.9409 8.02542l-47.9505 1.85133v0.765382l-107.704 8.96128l-161.614 -4.8437l-135.511 -48.0118l4.97421 -24.8711
l90.1513 34.2037l168.519 13.9909l163.859 -8.05849l72.0585 -32.0852l24.6852 -76.5829c-11.2968 -92.7231 -11.5388 -94.7093 -10.6225 -98.1968c0.272553 -1.03738 0.408327 -1.98777 0.495372 -2.92219c0.487753 -0.641757 1.13403 -1.58506 1.4862 -2.05622
l30.4464 -40.7334l38.0432 -60.0682l23.93 -33.502l-96.7113 -80.2498l-3.19974 -219.288c0.962733 -7.56244 2.78458 -22.0112 5.01798 -45.877c-0.12894 -0.269919 -9.65147 -20.9678 -12.8349 -27.02c-1.80565 -3.43278 -3.36365 -6.39475 -8.94453 -11.1259
c-28.726 -6.87192 -37.6748 -9.01268 -53.7943 -9.01268c-3.38415 0 -6.77838 0.14333 -10.1737 0.446144l-127.95 -3.2205l-189.706 31.9736l-119.91 72.0259l-21.8729 31.5454c-0.18608 0.126152 -14.9542 10.3475 -18.5829 12.6523v-31.4635
c5.41685 -3.87145 13.5068 -7.36272 24.4398 -17.2503c7.32645 -6.62591 2.09556 -4.45645 10.6241 -11.9264c1.03002 -0.902171 1.03002 -0.902171 17.2005 -21.8062l70.2643 -41.1391l123.979 -35.7692l40.8353 -3.74581
c52.8258 -4.90757 59.0669 -6.73248 83.0467 -7.42728l68.08 -1.97257l89.7606 0.254271l51.1066 12.4914l15.1376 25.2075l6.27671 34.16l-0.268638 82.9487l0.0291888 84.2282l-0.00582149 87.5189l84.7837 67.8016l7.68593 8.96692l1.11464 7.19504
c0.44913 7.61262 -1.52476 12.8022 -3.31214 18.1783l-23.3304 38.8443l-33.0243 43.448l-34.3179 48.9016c-0.202711 16.1296 -0.202711 16.1296 -0.202711 17.6951zM33.2949 712.521h55.5146l17.1611 52.2256l17.1602 -52.2256h55.5156l-44.8672 -32.2959
l17.1611 -52.2246l-44.9697 32.2959l-44.9707 -32.2959l17.1611 52.2246zM445.712 558.671l57 -0.299805v0h2.7002l-3.30078 -182.4v-10.7998h-12.2998l-46.2002 0.299805v10.7998l46.2002 -0.299805l3.90039 172.8l-48 0.300781v9.59961zM497.774 274.566
c58.5459 -0.0810547 106.061 -47.6621 106.061 -106.207v-0.0732422c-0.12207 -58.4248 -47.6367 -105.841 -106.061 -105.841c-58.5439 0 -106.061 47.5156 -106.061 106.062c0 58.5439 47.5156 106.06 106.061 106.06zM596.338 171.666
c-0.727539 20.2188 -12.5166 48.6348 -26.3135 63.4316l-41.3799 -41.3818c4.51367 -5.26367 8.69531 -15.1426 9.33496 -22.0498h58.3584zM501.45 266.774l-0.0732422 -58.7988c6.83887 -0.585938 16.7168 -4.57031 22.0488 -8.89258l41.3809 41.3799
c-14.7783 13.7812 -43.1631 25.5703 -63.3564 26.3115zM494.1 266.774c-20.1846 -0.725586 -48.5684 -12.4805 -63.3555 -26.2383l41.3057 -41.4531c5.33203 4.32227 15.21 8.30664 22.0498 8.89258v58.7988zM425.525 235.317
c-13.8428 -14.8477 -25.6318 -43.3643 -26.3145 -63.6514h58.3594c0.638672 6.90723 4.82129 16.7861 9.33398 22.0498zM399.211 164.317c0.788086 -20.124 12.5771 -48.4102 26.3145 -63.1377l41.3057 41.0859c-4.51465 5.2666 -8.69531 15.1455 -9.33398 22.0518h-58.2861
zM494.1 69.7227l0.0742188 58.7988c-6.84082 0.586914 -16.7178 4.57031 -22.0498 8.89453l-41.3799 -41.3809c14.7773 -13.7822 43.1621 -25.5703 63.3555 -26.3125zM501.45 69.7227c20.2168 0.727539 48.6338 12.5166 63.4287 26.3125l-41.3789 41.3809
c-5.33203 -4.32422 -15.21 -8.30762 -22.0498 -8.89453v-58.7988zM570.024 101.18c13.7139 14.7363 25.4697 43.0215 26.2412 63.1377h-58.2861c-0.639648 -6.90625 -4.82129 -16.7852 -9.33496 -22.0518zM464.7 168.286c0 -42.1436 66.1494 -41.9268 66.1494 0
c0 17.9814 -14.8076 32.5596 -33.0752 32.5596c-18.2666 0 -33.0742 -14.5781 -33.0742 -32.5596zM638.361 393.445l48.9111 -48.6328l51.2363 49.0098c1.08594 1.03809 2.48633 1.55762 3.88672 1.55762c1.31152 0 2.62305 -0.456055 3.67578 -1.36621
c1.87988 -1.62598 8.05176 -5.39648 8.05176 -9.66113c0 -1.21582 -0.501953 -2.47168 -1.74707 -3.72852l-50.4756 -50.9775l55.0996 -50.6465c1.20215 -1.10547 1.7832 -2.61719 1.7832 -4.12305c0 -1.63184 -0.681641 -3.25586 -1.99121 -4.34668l-7.7334 -6.44141
c-1.03906 -0.865234 -2.31738 -1.29785 -3.59668 -1.29785c-1.36621 0 -2.73242 0.494141 -3.80664 1.48242l-55.4639 51.0557s-49.9658 -50.8564 -50.002 -50.8916c-1.10254 -1.10254 -2.53613 -1.63477 -3.96094 -1.63477c-1.54297 0 -3.07617 0.623047 -4.16992 1.81836
l-5.61621 6.1416c-0.980469 1.07129 -1.4707 2.43262 -1.4707 3.79297c0 1.42578 0.537109 2.85059 1.6123 3.94336l49.2666 50.1016l-48.4111 50.3584c-1.04785 1.08984 -1.56152 2.49219 -1.56152 3.88965c0 1.49121 0.584961 2.97754 1.73145 4.07422l6.89941 6.59961
c1.08594 1.03809 2.48633 1.55762 3.88672 1.55762c1.43457 0 2.87012 -0.544922 3.96582 -1.63477zM685.995 328.779c0.785156 0 1.56934 -0.162109 2.29785 -0.488281c-0.0810547 0.383789 -0.121094 0.774414 -0.121094 1.16504
c0 0.693359 0.126953 1.38672 0.381836 2.04102c-0.445312 -0.109375 -0.907227 -0.165039 -1.37109 -0.165039c-1.20898 0 -2.43457 0.374023 -3.43066 1.12109c1 -1.04004 1.52148 -2.37109 1.56543 -3.71387c0.224609 0.0273438 0.451172 0.0400391 0.677734 0.0400391z
" />
  </g>

</svg>
