<?xml version="1.0" standalone="no"?>
<!DOCTYPE svg PUBLIC "-//W3C//DTD SVG 1.1//EN" "http://www.w3.org/Graphics/SVG/1.1/DTD/svg11.dtd" >
<svg xmlns="http://www.w3.org/2000/svg" xmlns:xlink="http://www.w3.org/1999/xlink" version="1.1" viewBox="-10 0 1008 1000">
  <g transform="matrix(1 0 0 -1 0 800)">
   <path fill="currentColor"
d="M474 447zM187.743 639.582zM134.285 541.168zM342.572 412.495zM342.197 400.544zM183.053 444.982zM274.801 416.119zM525.061 563.42zM134.285 541.168zM525.061 563.42zM398.303 689.77c-20.1797 0 -37.2627 -7.84863 -45.9277 -16.5137
c-3.29688 -3.29688 -2.45508 -3.46875 -3.81836 -3.96484c-6.12598 -2.23438 -12.1289 -3.04297 -17.6074 -3.04297c-5.17188 0 -14.5703 0.763672 -24.7461 5.33594c-6.91406 8.41602 -18.6074 16.0762 -38.2686 16.0762c-29.5166 0 -63.1758 -18.2695 -74.8818 -45.6426
l-0.578125 -1.35254h-2.03613l-53.3291 -72.46h-2.55176v-3.46582c-0.345703 -0.469727 -0.691406 -0.938477 -1.03711 -1.40918h0.557617l-5.90625 -22.1484l-0.664062 0.00976562c-0.119141 -2.26758 -0.333008 -3.57031 -1.04883 -6.38867h0.859375
c-0.0205078 -2.50391 -0.0205078 -2.50391 -0.0205078 -2.75879c0 -16.1924 6.9873 -48.9619 53.5596 -87.4795c49.1855 -40.6826 104.811 -45.168 150.924 -45.168c75.582 0 106.396 9.47168 151.623 45.2109c55.25 43.6562 56.1816 56.5117 57.7012 88.4209
l-1.54688 0.0244141c-0.09375 0.355469 -6.87988 28.0469 -9.28711 35.501l-39.4873 67.4766c-4.4502 4.64551 -4.4502 4.64551 -4.89844 5.41406h-0.292969c-13.8838 14.209 -42.9873 40.7988 -71.4033 46.6904c-5.4375 1.12793 -10.7627 1.63477 -15.8867 1.63477z
M267.164 670.254c4.24805 0 13.6895 0 24.4541 -7.4082l-0.0830078 -1.02734c0.621094 -0.253906 1.61719 -0.72168 2.58398 -1.64062c9.12109 -8.66699 23.1387 -12.7363 36.4473 -12.7363c12.3975 0 24.1797 3.53027 30.8125 10.1641
c1.29004 1.29102 3.375 3.37402 4.98438 8.22656c6.83496 4.66406 17.6924 9.75391 32.5107 9.75391c19.665 0 28.8584 -8.56445 35.9092 -15.1289c5.47852 -5.10254 12.6934 -11.8379 28.21 -22.1055c0.592773 -0.128906 1.0791 -0.414062 1.46973 -0.855469
l0.34082 0.0136719l44.376 -69.9941c0 -0.119141 -0.00292969 -0.239258 -0.00292969 -0.359375c3.18262 -11.9238 6.08887 -24.125 9.15332 -36.167c1.07129 -4.28027 1.67383 -8.24707 1.67383 -12.0879c0 -18.4277 -13.71 -33.3574 -53.2031 -65.6309
c-36.3926 -29.7363 -62.7461 -39.9375 -142.168 -39.9375c-42.9961 0 -77.6543 5.28223 -118.131 33.6152c-49.8955 34.9277 -56.6045 60.6494 -56.6045 83.5547c0 1.51074 0.0283203 2.99902 0.0703125 4.46387c2.49023 9.88086 5.19434 19.5469 7.76465 29.3457
l48.627 68.8457c0.69043 -0.265625 1.37891 -0.532227 2.06836 -0.796875c1.63867 3.85742 4.42773 10.4297 11.9961 17.998c12.1963 12.1963 30.248 19.8945 46.7402 19.8945zM814.446 530.658zM815.318 552.708zM665.485 532.883zM666.138 553.281zM626.702 565.884
l-1.05469 2.05762l-1.00781 2.07617l-0.914062 2.10059l-0.31543 16.4971l10.2881 10.4746l14.2461 4.01855l13.8955 -3.2373l6.43359 -7.2793l1.70605 -4.86523l-0.0175781 -9.09766l-1.77637 -11.2051l-1.41211 -14.7158h148.545l0.0849609 -2.68848l0.00390625 -2.69824
v0l-0.355469 -7.32324l-0.320312 -4.73145l-0.285156 -4.6084h-146.682l0.15332 -5.39941l-0.125 -5.3916l-0.516602 -5.3457l-4.27637 -14.5215l-5.89844 -8.04883l-4.79785 -3.33594l-11.5088 -0.77832l-8.76953 5.75098l-5.3418 6.28906l-6.60254 11.6914
l-0.536133 9.94434l4.71289 10.1055l6.16699 10.874l1.22461 10.0762zM666.372 552.708v0.450195c-0.166016 -0.205078 -0.750977 -0.550781 0 -0.450195zM814.446 530.658l0.87207 22.0498v0c-0.193359 4.75684 -0.740234 9.49609 -1.49414 14.1973
c-0.573242 3.57617 -1.27637 7.13379 -1.69629 10.7305c-0.34375 2.95898 -0.46582 5.9707 0.0517578 8.90332c0.735352 4.1709 2.8916 8.09277 6.10645 10.8486c3.21582 2.75684 7.32422 4.34961 11.5166 4.95215c4.38477 0.630859 8.89746 0.260742 13.167 -0.925781
c4.26855 -1.1875 8.33105 -3.22266 11.6641 -6.1416c3.42773 -3.00293 6.02734 -7.01855 7.01074 -11.4688c0.981445 -4.4502 0.232422 -9.15332 -1.49023 -13.3721c-0.732422 -1.79297 -1.61035 -3.52246 -2.49707 -5.24512
c-0.981445 -1.9082 -1.97168 -3.81348 -2.83789 -5.77734c-0.862305 -1.95703 -1.60547 -3.97266 -2.0918 -6.05566c-0.612305 -2.62207 -0.783203 -5.36328 -0.329102 -8.01758c0.422852 -2.46973 1.36621 -4.8252 2.5332 -7.04297
c1.37109 -2.60547 3.02832 -5.04883 4.61035 -7.53418c2.0752 -3.26074 4.03125 -6.68457 4.85059 -10.4619c0.738281 -3.39941 0.495117 -6.9834 -0.553711 -10.3008c-1.39258 -4.39941 -3.9873 -8.31641 -6.75586 -12.0078
c-1.69531 -2.25879 -3.4873 -4.45117 -5.49023 -6.44238c-2.60449 -2.58984 -5.6543 -4.82617 -9.15137 -5.94727c-3.94238 -1.26367 -8.35547 -0.94043 -12.0859 0.853516c-1.83496 0.881836 -3.50977 2.0791 -5 3.46582
c-2.52051 2.34277 -4.53027 5.2041 -6.08789 8.27344c-2.34863 4.62402 -3.67773 9.71582 -4.39062 14.8535c-0.269531 1.94238 -0.448242 3.89648 -0.546875 5.85547c-0.100586 1.95996 -0.12207 3.92285 -0.0957031 5.88574
c0.0263672 1.95801 0.0986328 3.91602 0.211914 5.87207v0v0zM666.372 530.658c0.100586 -0.751953 -0.245117 -0.166992 -0.450195 0h0.450195zM348.481 97.6934l-82.2217 148.848l24.0225 10.1475l58.4395 -100.383l53.3027 101.418l27.2285 -11.0254zM265.568 -67.707
v34.6641h38.626v22.0713h-38.626v34.6641h38.626v33.7148h31.3828v-33.7148h23.2197v31.2539h31.3828v-31.2539h41.292v-34.6641h-41.292v-22.0713h41.292v-34.6641h-41.292v-36.1855h-31.3828v36.1855h-23.2197v-33.7246h-31.3828v33.7246h-38.626zM335.577 -33.043
h23.2197v22.0713h-23.2197v-22.0713zM780.659 223.904c-0.529297 0 -0.985352 0.173828 -1.32227 0.358398l-214.094 -88.2627v-37.8242c12.126 5.10742 24.251 10.2148 36.376 15.3213v-3.77051l-0.21875 -161.659h318.305l0.646484 155.446
c10.9619 -6.48535 21.9238 -12.9697 32.8867 -19.4551l-0.677734 40.7051l-136.33 79.1182l1.46387 0.616211c-22.6963 11.7715 -24.457 12.7314 -36.2109 19.5508c-0.288086 -0.102539 -0.56543 -0.144531 -0.824219 -0.144531zM884.594 -16.7148h-248.003
l-0.665039 144.662l142.009 59.8174l107.859 -63.8086zM63.3545 -23.4795h55.5146l17.1611 52.2256l17.1602 -52.2256h55.5156l-44.8672 -32.2959l17.1611 -52.2246l-44.9697 32.2959l-44.9707 -32.2959l17.1611 52.2246z" />
  </g>

</svg>
