<?xml version="1.0" standalone="no"?>
<!DOCTYPE svg PUBLIC "-//W3C//DTD SVG 1.1//EN" "http://www.w3.org/Graphics/SVG/1.1/DTD/svg11.dtd" >
<svg xmlns="http://www.w3.org/2000/svg" xmlns:xlink="http://www.w3.org/1999/xlink" version="1.1" viewBox="-10 0 1051 1000">
  <g transform="matrix(1 0 0 -1 0 800)">
   <path fill="currentColor"
d="M271 608l-12 60c128.725 89.7881 355.203 55.3633 442.457 48.5605c0 -0.0107422 0.000976562 -0.0214844 0.000976562 -0.0322266c27.4463 0.582031 75.1855 -1.32129 107.268 -33.4033c40.1396 -40.1396 38.6152 -108.841 37.5254 -169.365
c-0.395508 -21.9258 -0.433594 -33.2402 -0.22168 -41.9463c26.3789 -43.8281 72.168 -89.959 89.3252 -129.607c6.95117 -16.0635 5.49219 -24.7637 2.64551 -40.2051l-12 -14l-79.501 -63.5771v-212.431c1.93945 -31.0869 1.82422 -79.2412 -27.416 -108.48
c-26.0322 -26.0322 -182.507 -12.0195 -220.584 -13.0049l-2.90137 0.0126953c-103.732 -7.2998 -296.108 50.6025 -326.603 92.1719c-18.5059 25.2275 -31.4014 41.2529 -57.9951 55.3086v70.0371c25.8174 -16.2627 49.624 -17.8066 70.1904 -60.6357
c44.2188 -92.082 349.455 -105.734 451.309 -108.438l-0.499023 -0.962891c50 12 34.1514 4.48145 42.5352 13.5361c19.1768 20.7119 3.97852 41.9688 5.50781 57.9648h-0.541992v2.14941c-0.253906 0.990234 -0.500977 1.94141 -0.738281 2.84863h0.738281v207.174v3.4873
v1.33887h1.58203l104 88h1.13281c4.9834 45.8955 -62.8379 92.1289 -94.2158 139.501l-3 4l-1 1c-2.02051 3.99219 0.0439453 4.02539 -2.08398 11.5605c-0.0371094 0.130859 -0.189453 0.24707 -0.174805 0.367188l0.258789 2.07227l0.0644531 1.49902
c0.00976562 0.226562 0.150391 3.89551 0.242188 6.24414c3.11426 79.1523 14.1973 176.389 -74.8154 176.771c-136.35 16.7461 -373.536 9.53418 -431.49 -46.5137zM30.3545 728.521h55.5146l17.1611 52.2256l17.1602 -52.2256h55.5156l-44.8672 -32.2959l17.1611 -52.2246
l-44.9697 32.2959l-44.9707 -32.2959l17.1611 52.2246zM513 215l44.5977 38.127l-42.3936 37.8379l-6.39844 -6.69141l31.2119 -26.582l-113.329 1.57129l0.509766 -11.2236l112.729 0.942383l-32.8477 -27.1758zM608.975 289.107
c0 -0.995117 0.192383 -7.34961 0.192383 -7.42383c0 -10.9912 -2.99023 -32.4736 -2.99023 -44.9014c0 -1.01367 0.0292969 -1.82617 0.0898438 -2.39258c1.07227 -0.114258 0.81543 -1.55566 0.973633 -2.58203c2.75586 -29.6221 27.0576 -58.918 36.46 -68.3203
c1.71777 -1.71777 2.84277 -2.63184 2.84277 -2.63184l-4.75293 -0.661133l-1.17285 -2.69434l6.29102 -3.5127c-3.09473 -2.06348 -6.19043 -4.12695 -9.28613 -6.19043c-19.2168 20.9619 -30.5557 33.3301 -41.5508 64.2021
c-5.07324 -15.2881 -14.0264 -30.1836 -22.293 -40.6807c-8.61719 -10.9424 -5.84668 -10.9814 -17.3496 -23.7627l-13.4336 10.6348c8.28809 10.7422 20.5049 27.5576 20.7148 27.833c25.4473 33.4268 27.9141 77.3477 27.9141 103.312
c0 1.88086 -0.00195313 2.08496 -0.0527344 8.13477c3.97363 -0.0878906 7.94824 -0.175781 11.9248 -0.263672c3.10059 -0.0664062 5.50488 -2.62207 5.50488 -5.49512c0 -0.193359 -0.00976562 -0.333984 -0.00976562 -0.411133
c0 0 0.000976562 -0.129883 0.000976562 -0.266602c0 -0.0195312 -0.0175781 -0.999023 -0.0175781 -1.92676zM391.113 254.085c0 -0.988281 0.191406 -7.34668 0.191406 -7.42188c0 -11.0371 0.285156 1.24121 0.285156 -11.2305
c0 -1.01465 0.0283203 -1.82617 0.0878906 -2.39258c1.07227 -0.114258 0.81543 -1.55566 0.975586 -2.58203c2.75488 -29.625 27.0566 -58.9189 36.4609 -68.3213c1.71484 -1.7168 2.8418 -2.63281 2.8418 -2.63281l-4.75293 -0.65918l-1.17285 -2.69629l6.29199 -3.51074
c-3.0957 -2.06348 -6.19141 -4.12695 -9.28711 -6.19141c-19.2158 20.9609 -30.5557 33.3301 -41.5508 64.2031c-5.0752 -15.2881 -14.0273 -30.1836 -22.2949 -40.6836c-8.61328 -10.9385 -5.84766 -10.9824 -17.3496 -23.7598l-13.4307 10.6348
c8.28613 10.7422 20.5029 27.5566 20.7139 27.833c25.4463 33.4268 24.6377 43.6748 24.6377 69.6396c0 1.88086 4.91992 33.2627 4.86914 39.3135c3.97363 -0.0878906 7.9502 -0.174805 11.9248 -0.262695c3.10254 -0.0664062 0.584961 -33.8037 0.584961 -36.6709
c0 -0.191406 -0.0107422 -0.331055 -0.00878906 -0.448242v-0.204102c0 -0.230469 -0.0175781 -0.822266 -0.0175781 -1.95605zM489 399l-83.166 150.556l9.59961 4.05566l74.4004 -127.8l67.7998 129l12.9775 -5.25586z" />
  </g>

</svg>
