<?xml version="1.0" standalone="no"?>
<!DOCTYPE svg PUBLIC "-//W3C//DTD SVG 1.1//EN" "http://www.w3.org/Graphics/SVG/1.1/DTD/svg11.dtd" >
<svg xmlns="http://www.w3.org/2000/svg" xmlns:xlink="http://www.w3.org/1999/xlink" version="1.1" viewBox="-10 0 1043 1000">
  <g transform="matrix(1 0 0 -1 0 800)">
   <path fill="currentColor"
d="M155.544 716.716c-31.542 0 -64.2451 -18.1328 -64.2451 -52.4258c0 -4.93457 0.571289 -8.50977 1.36035 -12.6592c-0.463867 -3.48145 -0.84668 -6.62695 -0.84668 -11.1318c0 -45.4258 43.3057 -58.8154 84.0898 -70.3086
c7.22266 -2.03516 9.66016 -2.57227 11.2061 -3.32227c4.48145 -2.1709 8.57031 -2.91406 12.3174 -2.91406c8.98535 0 13.4639 3.65625 22.6992 6.14258c3.52734 -0.47168 4.65234 -0.574219 7.43652 -0.574219c11.6777 0 22.8154 3.53125 30.0039 3.53125
c9.65625 -0.0722656 10.7637 -4.15039 21.9912 -7.68555c5.25781 -1.65625 9.36816 -5.77539 16.748 -13.8994c9.64258 -10.6172 20.5977 -22.4502 38.6406 -23.1973c0.668945 -0.00683594 6.90723 -1.12305 13.3398 -1.12305c7.39355 0 14.9033 1.30957 21.5742 5.24902
c1.93359 1.1416 3.50586 2.06836 12.0215 6.77637c13.6045 7.52148 29.334 16.3203 41.8115 28.7979c19.6777 19.6777 21.5586 40.9727 21.5586 48.4824c0 30.8467 -27.8936 58.1992 -56.4502 58.1992c-10.7598 0 -14.5889 1.47656 -19.374 1.60938
c-2.32617 0.0400391 -19.8047 2.90625 -30.9805 14.082c-7.79688 7.79688 -10.4561 17.8242 -10.4561 28.54c0 6.24902 0.774414 8.83203 0.774414 15.5117c0 14.6572 -4.84277 44.2568 -43.9639 44.2568c-16.6826 0 -27.501 -16.0586 -36.9688 -30.1113
c-2.60156 -3.86133 -4.88867 -7.33203 -7.65332 -10.0967c-15.499 -15.499 -15.499 -15.499 -17.3086 -18.9922h-5.66895v-5.11719c-7.99902 -2.32715 -9.9541 -2.89551 -15.6016 -2.89551c-6.31738 0 -29.3789 3.16113 -29.6699 3.22754
c-6.06641 1.37891 -12.2578 2.04785 -18.3857 2.04785zM433.601 618.052v-0.356445c-0.303711 -34.9482 -29.9131 -51.7109 -57.4053 -67.1592c-3.8418 -2.15918 -7.62207 -4.28418 -11.252 -6.42676c-4.12891 -2.43945 -9.84668 -3.17676 -15.791 -3.17676
c-4.97559 0 -11.0391 0.919922 -11.1514 0.919922c-11.3193 0 -17.9727 7.58691 -25.3701 16.0234c-7.10059 8.09766 -14.623 16.5703 -26.9854 20.4629c-6.67676 2.10254 -12.2637 8.21094 -26.0264 8.31445c-9.35742 0 -23.1582 -3.48438 -30.9141 -3.48438
c-3.31055 0 -4.18652 0.546875 -7.99414 0.546875c-11.9502 0 -17.2422 -6.08496 -22.833 -6.08496c-1.51758 0 -3.50879 0.703125 -5.30859 1.72949c-7.49023 4.27148 -54.6328 11.1396 -75.5146 32.0205c-9.55859 9.55957 -11.6943 19.7949 -11.6943 27.9023
c0 5.47168 0.907227 9.83887 0.907227 13.1396c0 1.91211 -1.44629 5.50293 -1.44629 12.0312c0 29.5693 31.6729 38.6162 49.1289 38.6162c14.6514 0 35.084 -5.69336 49.7217 -5.69336h0.600586c9.91992 0 18.6953 2.54102 25.0498 8.94434l22.6553 22.6875
c14.5557 14.5557 22.542 36.0449 34.8232 36.0449c11.7129 0 30.4453 -1.95117 30.4453 -29.375c0 -6.41699 -0.81543 -9.25 -0.81543 -16.1318c0 -51.2256 52.6035 -56.7275 54.1172 -56.875h0.235352c3.69727 -0.0224609 8.78906 -1.82422 16.3887 -1.82422
c1.06836 0 1.97461 0.0078125 4.17578 0.205078c18.4463 -0.695312 40.2578 -16.624 42.2529 -43.001zM626.731 649.217c-31.542 0 -64.2451 -18.1328 -64.2451 -52.4258c0 -4.93457 0.571289 -8.50977 1.36035 -12.6592
c-0.463867 -3.48145 -0.84668 -6.62695 -0.84668 -11.1318c0 -45.4258 43.3057 -58.8154 84.0898 -70.3086c7.22266 -2.03516 9.66016 -2.57227 11.2061 -3.32227c4.48145 -2.1709 8.57031 -2.91406 12.3174 -2.91406c8.98535 0 13.4639 3.65625 22.6992 6.14258
c3.52734 -0.47168 4.65234 -0.574219 7.43652 -0.574219c11.6777 0 22.8154 3.53125 30.0039 3.53125c9.65625 -0.0722656 10.7637 -4.15039 21.9912 -7.68555c5.25781 -1.65625 9.36816 -5.77539 16.748 -13.8994c9.64258 -10.6172 20.5977 -22.4502 38.6406 -23.1973
c0.668945 -0.00683594 6.90723 -1.12305 13.3398 -1.12305c7.39355 0 14.9033 1.30957 21.5742 5.24902c1.93359 1.1416 3.50586 2.06836 12.0215 6.77637c13.6045 7.52148 29.334 16.3203 41.8115 28.7979c19.6777 19.6777 21.5586 40.9727 21.5586 48.4824
c0 30.8467 -27.8936 58.1992 -56.4502 58.1992c-10.7598 0 -14.5889 1.47656 -19.374 1.60938c-2.32617 0.0400391 -19.8047 2.90625 -30.9805 14.082c-7.79688 7.79688 -10.4561 17.8242 -10.4561 28.54c0 6.24902 0.774414 8.83203 0.774414 15.5117
c0 14.6572 -4.84277 44.2568 -43.9639 44.2568c-16.6826 0 -27.501 -16.0586 -36.9688 -30.1113c-2.60156 -3.86133 -4.88867 -7.33203 -7.65332 -10.0967c-15.499 -15.499 -15.499 -15.499 -17.3086 -18.9922h-5.66895v-5.11719
c-7.99902 -2.32715 -9.9541 -2.89551 -15.6016 -2.89551c-6.31738 0 -29.3789 3.16113 -29.6699 3.22754c-6.06641 1.37891 -12.2578 2.04785 -18.3857 2.04785zM904.788 550.553v-0.356445c-0.303711 -34.9482 -29.9131 -51.7109 -57.4053 -67.1592
c-3.8418 -2.15918 -7.62207 -4.28418 -11.252 -6.42676c-4.12891 -2.43945 -9.84668 -3.17676 -15.791 -3.17676c-4.97559 0 -11.0391 0.919922 -11.1514 0.919922c-11.3193 0 -17.9727 7.58691 -25.3701 16.0234c-7.10059 8.09766 -14.623 16.5703 -26.9854 20.4629
c-6.67676 2.10254 -12.2637 8.21094 -26.0264 8.31445c-9.35742 0 -23.1582 -3.48438 -30.9141 -3.48438c-3.31055 0 -4.18652 0.546875 -7.99414 0.546875c-11.9502 0 -17.2422 -6.08496 -22.833 -6.08496c-1.51758 0 -3.50879 0.703125 -5.30859 1.72949
c-7.49023 4.27148 -54.6328 11.1396 -75.5146 32.0205c-9.55859 9.55957 -11.6943 19.7949 -11.6943 27.9023c0 5.47168 0.907227 9.83887 0.907227 13.1396c0 1.91211 -1.44629 5.50293 -1.44629 12.0312c0 29.5693 31.6729 38.6162 49.1289 38.6162
c14.6514 0 35.084 -5.69336 49.7217 -5.69336h0.600586c9.91992 0 18.6953 2.54102 25.0498 8.94434l22.6553 22.6875c14.5557 14.5557 22.542 36.0449 34.8232 36.0449c11.7129 0 30.4453 -1.95117 30.4453 -29.375c0 -6.41699 -0.81543 -9.25 -0.81543 -16.1318
c0 -51.2256 52.6035 -56.7275 54.1172 -56.875h0.235352c3.69727 -0.0224609 8.78906 -1.82422 16.3887 -1.82422c1.06836 0 1.97461 0.0078125 4.17578 0.205078c18.4463 -0.695312 40.2578 -16.624 42.2529 -43.001zM508 377.5c0 27.7354 -6.54297 77.5 -53.5 77.5
c-25.5127 0 -51.2178 -0.447266 -67.4453 -59.0986c-21.7959 -78.7803 48.0742 -151.938 87.8037 -121.089c-1.22461 -5.6543 -1.8584 -11.4346 -1.8584 -17.3125c0 -20.6523 7.82617 -40.1055 21.5908 -57.0801l-23.7969 -184.42h25.0244l21.0254 162.945
c15.3887 -11.8545 34.1924 -21.6514 55.373 -28.6875l18.9629 -148.258h25.0244l-18.0742 141.306c16.5566 -3.44824 34.1445 -5.30566 52.3701 -5.30566c25.0439 0 48.8848 3.50781 70.5 9.8291v-147.829h27v157.681c15.5234 6.89648 29.3496 15.3877 40.96 25.125
l41.3457 -179.806h27.041l-43.4863 207.766c9.10156 14.3652 14.1396 30.1641 14.1396 46.7344c0 65.8428 -79.542 119.5 -177.5 119.5c-62.6426 0 -117.756 -21.9434 -149.352 -54.9844c4.33887 15.9795 6.85156 34.7891 6.85156 55.4844z" />
  </g>

</svg>
