<?xml version="1.0" standalone="no"?>
<!DOCTYPE svg PUBLIC "-//W3C//DTD SVG 1.1//EN" "http://www.w3.org/Graphics/SVG/1.1/DTD/svg11.dtd" >
<svg xmlns="http://www.w3.org/2000/svg" xmlns:xlink="http://www.w3.org/1999/xlink" version="1.1" viewBox="-10 0 1046 1000">
  <g transform="matrix(1 0 0 -1 0 800)">
   <path fill="currentColor"
d="M546.568 407.035c40.0703 44.3975 144.116 159.679 287.315 159.679c54.7354 0 96.9932 -17.1699 121.724 -30.9902l8.95996 -5.00684v-494.124c-45.958 17.8613 -81.1826 30.4541 -129.744 30.4541c-66.7598 0 -168.947 -24.7754 -282.427 -140.415l-12.3965 -12.6328
c-43.0127 43.1602 -143.419 143.908 -294.753 143.908c-29.7236 0 -73.5957 -7.50781 -106.766 -18.0381l-22.8115 -7.24219v497.826c21.6465 11.1895 67.5078 34.8945 137.188 34.8945c71.6523 0 164.128 -26.499 261.654 -124.021
c9.46484 -9.46484 12.2383 -12.3662 32.0557 -34.292zM91.8604 546.826c-0.899414 0 -0.899414 0 -21.585 3.31543l63.0381 21.5957c-33.5967 -21.9775 -33.5967 -21.9775 -34.0664 -22.3252c-1.19727 -0.885742 -3.82617 -2.58594 -7.38672 -2.58594zM990.72 540.099
c-0.628906 2.19043 -1.25781 4.38086 -1.8877 6.57129l9.6084 2.77344c0.716797 -2.49316 1.43359 -4.98535 2.14941 -7.47852zM539.968 -123.666c41.9512 46.4746 150.047 166.225 294.676 166.225c12.2656 0 23.8779 -0.891602 34.7734 -2.43945
c57.5078 -8.16992 93.2607 -33.832 99.5625 -38.6221l20.29 -15.7803v557.64l-4.99707 3.74805c-1.46777 1.10156 -60.7275 43.3164 -151.404 43.3164c-72.5352 0 -169.467 -27.0059 -274.143 -133.373c-4.14844 -4.21582 -8.29785 -8.43164 -12.4463 -12.6484
c-44.248 44.7178 -143.968 145.494 -291.246 145.494c-69.6738 0 -125.092 -23.25 -155.592 -40.7432c-2.02344 -1.01562 -2.31445 -1.17188 -8.77148 -5.56738v-555.4c19.457 12.5205 19.457 12.5205 19.5713 12.5859c7.4248 4.24316 59.3193 33.168 135.174 33.168
c71.8281 0 165.141 -25.9355 262.524 -123.319c9.36816 -9.36816 11.7725 -11.8643 32.0283 -34.2832zM539.968 -123.665c3.7959 -4.20312 3.81055 -4.21973 4.27148 -4.74023h-1.66406l0.0107422 0.382812c-1.30273 -0.288086 -2.60547 -0.576172 -3.9082 -0.865234
l-3.48926 -0.771484l0.164062 0.535156l-0.344727 0.0224609c0.491211 0.458008 0.491211 0.458008 0.848633 1.62598l0.463867 -0.231445zM541.677 -130.389l0.624023 -3.08789h-5.31152l0.149414 4.23438c1.22949 0.289062 2.47266 0.5625 3.7168 0.836914h1.71973
l-0.0673828 -2.39941zM542.508 -130.805l2.16895 -1.08594c-1.79688 -2.45801 -1.95703 -2.68652 -2.0918 -2.99414l-0.28418 1.4082h0.132812zM536.989 -133.477l-0.0615234 -1.74316c-0.501953 0.556641 -1.56543 1.74316 -1.56543 1.74316h1.62695zM420 758.994v24.8135
l267.938 -0.294922l2.52344 -143.19l-270.461 -0.322266v24.8271h242.084v94.167h-242.084z" />
  </g>

</svg>
