<?xml version="1.0" standalone="no"?>
<!DOCTYPE svg PUBLIC "-//W3C//DTD SVG 1.1//EN" "http://www.w3.org/Graphics/SVG/1.1/DTD/svg11.dtd" >
<svg xmlns="http://www.w3.org/2000/svg" xmlns:xlink="http://www.w3.org/1999/xlink" version="1.1" viewBox="-10 0 998 1000">
  <g transform="matrix(1 0 0 -1 0 800)">
   <path fill="currentColor"
d="M525.354 469.415zM703.746 541.157l-17.8281 12.3809l-103.918 -127.538l-56.6465 43.415l-16.1699 -16.6758v-0.000976562l72.4688 -65.0127zM685.918 553.538zM703.746 541.157zM509.184 452.739v-0.000976562zM581.652 387.726v0zM354.019 223.773
c1.2627 -22.4336 -7.74219 -81.3936 -5.23047 -95.668c0.770508 -0.875977 1.56445 -2.23145 1.72852 -3.98535c5.23145 -56.2568 51.2754 -111.696 69.0869 -129.507c3.60547 -3.60547 3.60547 -3.60547 14.0586 -11.6914
c-1.22754 -0.802734 -1.22754 -0.802734 -19.9932 -13.3145c-2.84668 -1.90039 -6.69922 -1.45703 -9.03418 1.08984c-30.0791 32.7197 -53.7002 58.416 -74.6094 118.096c-9.44629 -29.4131 -26.6836 -58.2959 -42.6045 -78.5156
c-11.126 -14.1289 -19.8799 -31.4688 -28.2031 -39.793c-2.53711 -2.53711 -6.54395 -2.71484 -9.28906 -0.542969c-14.1436 11.1963 -14.1436 11.1963 -14.4336 11.4873c-2.5166 2.51562 -2.71289 6.47656 -0.598633 9.21973
c7.94727 10.3027 34.1816 46.1582 34.5322 46.6201c50.7832 66.708 53.252 155.368 52.8457 203.106c-0.0341797 3.9502 3.20312 7.14551 7.1543 7.05664c18.7012 -0.416016 18.7012 -0.416016 21.4033 -3.11816c2.02734 -2.02734 3.06055 -5.03613 2.99219 -8.46777
c-0.0234375 -1.15625 -0.125977 -6.3916 0.194336 -12.0723zM656.598 223.496c1.2627 -22.4336 -7.74219 -81.3936 -5.23047 -95.668c0.770508 -0.875977 1.56445 -2.23145 1.72852 -3.98535c5.23145 -56.2568 51.2754 -111.696 69.0869 -129.507
c3.60547 -3.60547 3.60547 -3.60547 14.0586 -11.6914c-1.22754 -0.802734 -1.22754 -0.802734 -19.9932 -13.3145c-2.84668 -1.90039 -6.69922 -1.45703 -9.03418 1.08984c-30.0791 32.7197 -53.7002 58.416 -74.6094 118.096
c-9.44629 -29.4131 -26.6836 -58.2959 -42.6045 -78.5156c-11.126 -14.1289 -19.8799 -31.4688 -28.2031 -39.793c-2.53711 -2.53711 -6.54395 -2.71484 -9.28906 -0.542969c-14.1436 11.1963 -14.1436 11.1963 -14.4336 11.4873
c-2.5166 2.51562 -2.71289 6.47656 -0.598633 9.21973c7.94727 10.3027 34.1816 46.1582 34.5322 46.6201c50.7832 66.708 53.252 155.368 52.8457 203.106c-0.0341797 3.9502 3.20312 7.14551 7.1543 7.05664c18.7012 -0.416016 18.7012 -0.416016 21.4033 -3.11816
c2.02734 -2.02734 3.06055 -5.03613 2.99219 -8.46777c-0.0234375 -1.15625 -0.125977 -6.3916 0.194336 -12.0723zM51.3545 703.521h55.5146l17.1611 52.2256l17.1602 -52.2256h55.5156l-44.8672 -32.2959l17.1611 -52.2246l-44.9697 32.2959l-44.9707 -32.2959
l17.1611 52.2246zM618.092 301.071zM888.544 569.199zM282.3 534.68zM888.544 569.199zM500.293 340.679zM357.958 385.457zM604.853 316.517zM282.3 534.68zM365.233 687.358zM809.33 388.587zM488.426 736.51c7.59709 0 21.6938 0 39.5645 -12.2973l-0.113761 -1.40217
c0.993285 -0.492231 2.24827 -1.24656 3.446 -2.38482c13.8413 -13.1522 35.2157 -19.2886 55.4745 -19.2886c4.42385 0 45.214 0.698802 53.7207 26.3243c0.207842 1.28554 0.915112 2.07166 1.92826 2.5519c14.021 9.56981 32.3534 14.7572 50.3256 14.7572
c31.1027 0 45.7785 -13.669 56.7642 -23.9011c26.8719 -25.0285 45.1705 -34.8066 45.6048 -35.185l0.74765 0.029145l68.1011 -107.411l0.564177 1.008c0.3157 -1.08944 0.493028 -2.31724 0.899248 -3.31616c0 -0.0879917 -0.00240463 -0.175983 -0.00240463 -0.263975
c16.7575 -66.8948 16.7575 -66.8948 16.7575 -75.4707c0 -29.6712 -22.193 -53.3838 -83.0751 -103.135c-56.813 -46.4243 -98.3728 -62.3034 -221.417 -62.3034c-66.8918 0 -121.126 8.23258 -184.26 52.4251c-77.2026 54.0423 -88.4712 94.2574 -88.4712 131.012
c0 2.31894 0.0424682 4.60026 0.107952 6.84542c-0.0173854 0.476908 0.432954 2.14376 12.1683 46.1451l76.2905 108.007l2.93718 -1.13049c16.4602 38.7653 59.9391 58.3846 91.9368 58.3846zM274.268 570.601h9.71494
c-0.0489454 -0.306488 -0.0489454 -0.306488 -5.68549 -7.96034zM691.934 763.674c-30.933 0 -57.0864 -12.0461 -70.2033 -25.163c-5.80185 -5.80185 -3.45351 -5.4048 -6.48318 -6.50931c-9.71174 -3.54056 -19.2108 -4.8203 -27.8726 -4.8203
c-9.86052 0 -23.9045 1.64137 -39.3217 8.56702c-12.346 15.0292 -30.9769 24.618 -58.4332 24.618c-45.3524 0 -96.8619 -28.047 -114.734 -69.8381l-1.29554 -3.02949h-3.39734l-82.7344 -112.414h-3.19674v-4.34396
c-0.457234 -0.804389 -0.457234 -0.804389 -10.2692 -37.5981l-0.774849 0.012855c-0.179997 -2.28209 -0.481349 -4.14569 -1.10614 -6.81493h0.931086c-0.0440077 -5.4269 -0.0440077 -5.4269 -0.0440077 -5.81441c0 -24.4888 10.552 -75.0025 82.53 -134.53
c75.893 -62.7699 161.729 -69.7204 233.179 -69.7204c117.27 0 164.445 14.6409 234.259 69.809c84.9104 67.0945 86.5732 86.8837 88.8594 134.454l-1.97338 0.0321435c-0.149693 0.558746 -11.1013 44.9829 -14.6351 55.963l-61.0863 104.382l0.409213 -0.427045
s-0.152132 0.158762 -0.409213 0.427045c-6.67195 6.96267 -6.67195 6.96267 -7.22329 7.79279h-0.241033c-22.1498 22.6676 -66.9742 63.455 -110.44 72.4679c-8.31482 1.72431 -16.4572 2.49727 -24.2928 2.49727zM895.84 575.472
c-0.607235 1.03762 -0.607235 1.03762 -2.16156 5.7454l2.54498 2.18459l-1.07345 -2.25415l1.25317 -4.14687l2.58456 -1.26296zM826.909 688.709c-0.516853 0.778198 -0.962443 1.68288 -1.30965 2.19461l4.14039 -2.19461h-2.83074zM911.827 520.539
c0.0806968 1.67909 0.161123 3.3952 0.24437 5.15151l4.9114 -5.23549c-1.71859 0.0279933 -3.43718 0.0839799 -5.15577 0.0839799zM272.113 526.341c-0.392798 -1.67811 -0.913435 -3.67465 -1.61212 -6.2938l-4.82952 6.2938h6.44164zM273.219 533.156
c-1.61344 0 -3.22689 0.0535353 -4.84033 0.080303l5.07984 4.83217c-0.0652567 -1.97717 -0.12987 -3.52245 -0.239505 -4.91247zM284.263 575.085h-4.99902l4.99902 4.99902v-4.99902zM370.194 687.499h-2.52974l4.03032 2.03888zM516.664 658.879v0zM515.098 527.562v0v0
zM619.589 658.744v0zM619.589 658.744l-52.3896 -50.1123l-50.5352 50.2471l-14.1299 -14.3242l50.6924 -52.7324l-51.085 -48.1768l12.9561 -16.084l52.0928 49.3594l56.1006 -46.2129v0v0l16.2207 13.6836l-56.1064 47.8662l52.7637 53.2861zM636.169 645.544v0v0z
M639.512 544.392zM623.291 530.708v0v0zM502.142 543.646h-0.000976562h0.000976562zM502.534 644.555z" />
  </g>

</svg>
