<?xml version="1.0" standalone="no"?>
<!DOCTYPE svg PUBLIC "-//W3C//DTD SVG 1.1//EN" "http://www.w3.org/Graphics/SVG/1.1/DTD/svg11.dtd" >
<svg xmlns="http://www.w3.org/2000/svg" xmlns:xlink="http://www.w3.org/1999/xlink" version="1.1" viewBox="-10 0 1036 1000">
  <g transform="matrix(1 0 0 -1 0 800)">
   <path fill="currentColor"
d="M828.399 483.872c0 9.49878 0.360099 25.4826 0.360099 28.905l-0.318652 61.3747l-8.69455 54.78l-24.0577 41.7601l-29.8355 19.1251l-33.9409 8.02542l-47.9505 1.85133v0.765382l-107.704 8.96128l-161.614 -4.8437l-135.511 -48.0118l4.97421 -24.8711
l90.1513 34.2037l168.519 13.9909l163.859 -8.05849l72.0585 -32.0852l24.6852 -76.5829c-11.2968 -92.7231 -11.5388 -94.7093 -10.6225 -98.1968c0.272553 -1.03738 0.408327 -1.98777 0.495372 -2.92219c0.487753 -0.641757 1.13403 -1.58506 1.4862 -2.05622
l30.4464 -40.7334l38.0432 -60.0682l23.93 -33.502l-96.7113 -80.2498l-3.19974 -219.288c0.962733 -7.56244 2.78458 -22.0112 5.01798 -45.877c-0.12894 -0.269919 -9.65147 -20.9678 -12.8349 -27.02c-1.80565 -3.43278 -3.36365 -6.39475 -8.94453 -11.1259
c-28.726 -6.87192 -37.6748 -9.01268 -53.7943 -9.01268c-3.38415 0 -6.77838 0.14333 -10.1737 0.446144l-127.95 -3.2205l-189.706 31.9736l-119.91 72.0259l-21.8729 31.5454c-0.18608 0.126152 -14.9542 10.3475 -18.5829 12.6523v-31.4635
c5.41685 -3.87145 13.5068 -7.36272 24.4398 -17.2503c7.32645 -6.62591 2.09556 -4.45645 10.6241 -11.9264c1.03002 -0.902171 1.03002 -0.902171 17.2005 -21.8062l70.2643 -41.1391l123.979 -35.7692l40.8353 -3.74581
c52.8258 -4.90757 59.0669 -6.73248 83.0467 -7.42728l68.08 -1.97257l89.7606 0.254271l51.1066 12.4914l15.1376 25.2075l6.27671 34.16l-0.268638 82.9487l0.0291888 84.2282l-0.00582149 87.5189l84.7837 67.8016l7.68593 8.96692l1.11464 7.19504
c0.44913 7.61262 -1.52476 12.8022 -3.31214 18.1783l-23.3304 38.8443l-33.0243 43.448l-34.3179 48.9016c-0.202711 16.1296 -0.202711 16.1296 -0.202711 17.6951zM605.428 518.442c1.875 -33.29 -13.1094 -135.139 -7.07129 -146.479
c0.558594 -0.40918 1.66992 -1.43652 1.83496 -3.21973c8.0918 -86.9961 78.1904 -170.773 105.359 -197.941c3.1084 -3.11035 5.67871 -5.67871 11.7939 -10.4102c-4.03906 -0.980469 -5.20312 -1.26367 -5.20703 -1.27246
c1.87207 -1.04395 3.74414 -2.08887 5.61523 -3.13281c-6.72852 -4.48633 -13.458 -8.97266 -20.1875 -13.459c-1.81641 -1.21094 -4.29395 -0.948242 -5.80957 0.705078c-0.00292969 0.00292969 -7.3125 7.93555 -7.3125 7.93555
c-36.8838 39.9316 -77.415 84.0068 -109.502 185.604c-11.749 -49.1885 -41.2686 -100.4 -68.1387 -134.525c-16.5225 -20.9834 -30.2891 -47.6143 -41.8291 -59.1533c-1.63184 -1.63184 -4.20605 -1.74707 -5.97168 -0.349609
c-20.9375 16.5752 -20.9375 16.5752 -21.1279 16.7656c-1.61621 1.61719 -1.74512 4.16211 -0.384766 5.92676c12.04 15.6064 51.2959 69.2676 51.8232 69.9609c36.2676 47.6416 56.3486 102.398 67.3887 154.545l-289.071 -1.58691
c-0.141602 -7.91895 0.236328 -13.5762 1.41504 -15.7881c0.557617 -0.40918 1.66895 -1.43652 1.83496 -3.21973c8.09082 -86.9961 78.1895 -170.773 105.358 -197.941c3.10938 -3.10938 5.67871 -5.67871 11.7939 -10.4092
c-4.03809 -0.980469 -5.20215 -1.26367 -5.20605 -1.27246c1.87109 -1.04395 3.74316 -2.08887 5.61523 -3.13281c-6.72949 -4.48633 -13.459 -8.97266 -20.1875 -13.459c-1.81738 -1.21094 -4.29492 -0.948242 -5.80957 0.705078
c-0.00292969 0.00292969 -7.3125 7.93555 -7.3125 7.93555c-36.8838 39.9307 -77.415 84.0059 -109.502 185.604c-11.75 -49.1885 -41.2695 -100.399 -68.1396 -134.524c-16.5225 -20.9834 -30.2891 -47.6143 -41.8281 -59.1533
c-1.63184 -1.63184 -4.20703 -1.74707 -5.97168 -0.349609c-20.9385 16.5752 -20.9385 16.5752 -21.1279 16.7656c-1.61719 1.61719 -1.74609 4.16211 -0.384766 5.92676c12.0391 15.6064 51.2949 69.2676 51.8223 69.9609c77.6299 101.974 81.0977 236.55 80.4873 308.341
c-0.0205078 2.54004 2.05957 4.59277 4.59961 4.53613l21.9736 -0.485352c1.74609 -0.0371094 8.95508 -0.794922 8.75488 -10.7734c-0.0341797 -1.7207 -0.178711 -9.06348 0.235352 -17.3477l293.754 1.51758c0.0742188 7.82324 0.0527344 15.166 -0.00488281 21.9492
c-0.0214844 2.54004 2.05859 4.59277 4.59961 4.53613l21.9736 -0.485352c1.74512 -0.0371094 8.95508 -0.794922 8.75488 -10.7734c-0.0361328 -1.80566 -0.193359 -9.7959 0.299805 -18.5723v-0.00292969zM270.109 427.173l293.125 0.0664062
c2.83789 20.1641 4.50098 39.5303 5.4502 57.4727h-293.659c-1.28125 -17.8955 -3.30469 -38.6914 -4.91602 -57.5391v0zM33.2949 712.521h55.5146l17.1611 52.2256l17.1602 -52.2256h55.5156l-44.8672 -32.2959l17.1611 -52.2246l-44.9697 32.2959l-44.9707 -32.2959
l17.1611 52.2246z" />
  </g>

</svg>
