<?xml version="1.0" standalone="no"?>
<!DOCTYPE svg PUBLIC "-//W3C//DTD SVG 1.1//EN" "http://www.w3.org/Graphics/SVG/1.1/DTD/svg11.dtd" >
<svg xmlns="http://www.w3.org/2000/svg" xmlns:xlink="http://www.w3.org/1999/xlink" version="1.1" viewBox="-10 0 1023 1000">
  <g transform="matrix(1 0 0 -1 0 800)">
   <path fill="currentColor"
d="M429.198 406.632l112.971 132.144l112.112 -125.609l-19.8213 -18.9609l-78.7656 92.4814l4.65723 -335.793l-33.2529 1.51172l2.78711 334.016l-80.5186 -97.3301zM662.425 76.8584c0.572266 0.0234375 36.7158 0.00292969 36.7266 0.0214844
c-11.1328 46.6973 -8.00586 61.7324 -3.94336 74.834c0.0371094 0.119141 3.17969 10.9805 3.60742 11.8379l26.2578 52.5176c-13.4404 208.318 -13.4404 208.318 -13.3633 209.214c4.41406 52.4111 8.26367 113.544 3.76367 152.704
c-11.7031 46.4805 -40.7402 36.6719 -47.5234 21.8047c-2.39648 -5.25391 -5.09863 -5.87305 -12.0703 -7.46875c-5.41895 -4.84766 -13.9424 -3.78711 -17.9971 2.31934c-5.0791 7.65137 -28.5869 44.0518 -29.2061 45.2607
c-8.5 16.6504 -41.2949 26.8955 -47.5605 -6.06543c-0.226562 -1.19043 -0.226562 -1.19043 -11.4219 -28.4756c-4.1709 -10.1641 -18.8711 -9.74219 -22.4443 0.650391l-21.0557 61.2559c-5.63184 16.375 -40.752 29.4521 -59.3047 -1.55859
c-0.342773 -1.02051 -2.84766 -8.61719 -16.3867 -51.0801c-2.94336 -9.22949 -15.2266 -11.3389 -21.0654 -3.49512c-17.3203 23.2705 -17.3203 23.2705 -17.625 23.5752c-0.112305 0.115234 -19.7812 19.75 -30.9219 8.60742
c-6.10254 -6.10156 -9.55176 -20.9951 -11.0732 -30.1309c0.0449219 -1.36914 0.31543 -9.45312 1.81543 -48.6602c0.895508 -24.4141 1.98145 -76.5898 2.00293 -77.3633c7.14258 -50.8955 3.83789 -52.4863 7.55176 -79.7188
c0.270508 -1.04688 2.32812 -8.98145 13.0234 -49.4658c0.106445 -0.398438 1.08301 -23.0625 -2.01855 -28.335c-7.62305 -12.959 -8.15332 -13.8594 -13.1816 -15.0117c-19.9043 -4.55957 -26.2031 -0.550781 -32.9336 8.78711
c-3.46289 4.80469 -27.0098 28.4033 -29.377 31.1348l-49.3418 56.9355c-1.33594 0.880859 -8.18164 5.36719 -28.7832 18.416c-1.20312 0.365234 -6.96875 2.08887 -24.3809 6.96387c-4.86914 -2.67188 -10.6719 -1.06152 -15.0742 -5.46387
c-3.19336 -3.19238 -6.87891 -13.8945 -5.70703 -19.9531l27.2227 -36.6113c5.24414 -4.91602 33.1133 -29.209 34.4785 -30.8594c40.6797 -49.1934 40.6797 -49.1934 40.875 -49.459c29.5645 -40.0547 29.5645 -40.0547 29.7871 -40.4023
c26.6582 -41.8916 26.6582 -41.8916 27.0352 -42.7656l20.5869 -47.7275c5.69043 -8.81934 27.6797 -41.9971 28.2686 -43.1162c9.2627 -17.6025 9.2627 -17.6025 9.61328 -19.0664c6.8916 -28.8867 55.7119 -30.3242 56.3525 -30.3359l53.4014 -0.953125zM699.153 52.8721
h-35.9766c-161.856 -6.72168 -161.856 -6.72168 -162.216 -6.71387l-53.7842 0.960938c-8.53906 0.15918 -66.8408 2.88574 -78.8408 47.1748l-7.64062 14.5176c-27.9609 42.417 -27.4854 41.0117 -29.1748 44.9336l-20.3672 47.2129l-25.416 39.9395l-28.8779 39.125
l-39.6572 47.957c-34.0693 30.1738 -34.0693 30.1738 -35.5645 32.1865l-27.8408 37.4385c-9.93066 13.3584 -2.99707 39.4209 8.35156 50.7725c6.65625 6.65332 12.9326 8.6875 22.2344 10.3994c5.14844 2.30078 10.9404 2.69922 16.3115 1.19531
c25.3281 -7.0918 25.8789 -6.7168 30.3291 -9.53711c27.1797 -17.2139 29.2422 -17.8623 33.1357 -21.7559c0.455078 -0.455078 -0.583984 -1.40332 50.4785 -58.1758c26.6045 -29.5791 27.6436 -28.6309 31.4629 -33.8057
c0.632812 0.0556641 1.49805 0.164062 2.5918 0.34082l1.28711 2.18555l0.574219 14.3457c-12.7988 48.4277 -12.6562 47.0898 -13.0898 50.2529c-4 29.1172 -0.482422 29.5312 -7.66992 80.5557c-0.109375 0.785156 -1.54688 63.0938 -2.1377 79.2256
c-1.91895 50.1299 -2.37793 48.1562 -1.62988 52.792c2.33789 14.4785 7.7207 47.8496 35.916 53.7949c23.4395 4.94531 46.1641 -17.0625 49.2812 -21.251l3.49023 -4.69238c9.36914 29.7246 9.06738 29.5283 11.2627 33.2598
c29.0156 49.3545 90.7002 33.1045 102.906 -2.41113l10.3018 -29.9678c14.3701 48.2891 72.1719 41.1006 90.5645 6.28516c0.216797 -0.332031 20.6621 -32.0977 21.4307 -33.2852c20.1748 26.0742 71.2627 30.4727 87.5615 -34.25
c0.257812 -1.03223 0.449219 -2.07812 0.570312 -3.13086c4.91406 -42.7578 0.810547 -103.904 -3.61719 -156.597l13.3242 -206.526c0.270508 -4.19727 -0.554688 -8.4502 -2.47656 -12.2969l-25.6777 -51.3516c-0.739258 -2.86328 -1.60156 -5.7207 -2.74023 -9.39453
c-3.19531 -10.3125 -6.57031 -16.2539 4.36719 -62.1172c3.59473 -15.0762 -7.83008 -29.5918 -23.3379 -29.5918z" />
  </g>

</svg>
