<?xml version="1.0" standalone="no"?>
<!DOCTYPE svg PUBLIC "-//W3C//DTD SVG 1.1//EN" "http://www.w3.org/Graphics/SVG/1.1/DTD/svg11.dtd" >
<svg xmlns="http://www.w3.org/2000/svg" xmlns:xlink="http://www.w3.org/1999/xlink" version="1.1" viewBox="-10 0 1091 1000">
  <g transform="matrix(1 0 0 -1 0 800)">
   <path fill="currentColor"
d="M762.22 -30.293c-25.6475 2.99414 -84.3047 16.1748 -126.57 74.0225c-18.2803 -9.46191 -39.0176 -21.2109 -72.1816 -41.4307c-4.95801 14.8994 -5.05371 15.1875 -19.1133 34.0293c25.1641 14.0918 49.3242 27.335 72.6924 39.1094
c-10.6406 23.209 -16.5781 49.04 -16.5781 76.2266c0 37.6924 11.377 72.4219 30.6084 101.241c-17.4404 15.5752 -35.2666 30.8848 -60.0889 51.7852c12.0537 10.0732 12.0986 10.1367 24.2607 27.5957c22.5059 -17.1201 39.7285 -32.5586 59.1562 -51.0107
c27.9932 27.876 64.7041 46.667 104.949 52.0205c-0.395508 23.9531 -0.546875 46.5146 0.394531 74.6934l36.5918 0.870117c-0.375977 -13.7256 -0.880859 -33.3359 1.1709 -74.5664c26.2461 -2.05957 83.2617 -12.9404 127.431 -66.5469
c15.3789 10.5898 28.4482 18.1582 60.9072 36.9541c7.73926 -10.2109 10.4775 -14.0693 16.4766 -23.9111c4.26172 -6.99219 0.368164 -7.41699 -3.65332 -9.95605c-2.20898 -1.39355 -32.4512 -20.041 -53.4307 -33.3828c11.7441 -21.959 38.3184 -84.7168 6.8291 -158.007
c19.707 -12.3496 37.7021 -25.6084 58.7402 -42.1562c-8.2207 -14.7188 -10.332 -17.6865 -21.1709 -32.7568c-12.417 8.81934 -29.2949 20.8252 -56.8486 40.7246c-14.9277 -20.876 -57.624 -69.7725 -133.628 -76.1455
c-0.621094 -19.2988 -0.681641 -44.9834 -0.277344 -80.6807c-13.4307 0 -14.2197 0 -39.6074 1.88086c0.642578 25.1074 1.625 49.5146 2.94043 79.3975zM929.328 151.717c0 80.3623 -65.2969 145.6 -145.657 145.6c-80.3965 0 -145.661 -65.2656 -145.661 -145.658
c0 -81.6631 67.1611 -145.611 144.99 -145.658c80.4072 0 145.984 65.2979 146.328 145.717zM210.827 597.75zM210.522 594.149zM430.629 556.673c0 -27.916 -9.09766 -55.1445 -32.7559 -78.8018c-10.5928 -10.5938 -19.5215 -17.9502 -27.7207 -23.0244
c48.2373 8.5957 111.058 30.9189 152.159 102.271c-8.92676 15.4648 -19.6758 29.4941 -32.332 42.1504c-27.7256 27.7266 -66.4531 50.4941 -117.685 59.9307c-0.641602 0.118164 -0.416992 -0.77832 -2.47168 -0.165039
c-1.36035 0.40625 -5.40625 1.61523 -11.2002 2.61719c12.4619 -4.9082 25.7266 -12.9785 38.7744 -26.0254c23.0928 -23.0938 33.2314 -49.8184 33.2314 -78.9531zM315.851 475.687c31.3926 0 49.5361 15.0654 59.29 24.8184
c20.5645 20.5645 23.4873 42.2051 23.4873 56.4883c-0.0712891 20.4609 -6.96875 39.3965 -23.4824 55.9082c-33.5166 33.5176 -73.46 25.959 -91.541 18.1475c-0.172852 0 -25.4463 -16.6748 -25.7031 -16.8438c-6.58691 -9.58691 -13.0605 -19.2871 -19.6035 -28.918
l-0.0654297 0.0244141c-10.6104 -29.373 -5.48145 -61.3828 18.502 -85.3682c16.5459 -16.5459 36.3076 -24.2568 59.1162 -24.2568zM321 416v-0.000976562c-29.9844 0 -129.284 1.43262 -209.368 81.5176c-17.8584 17.8574 -31.9531 37.166 -44.5664 59.6016
c-0.0439453 0.0761719 -0.0859375 0.152344 -0.128906 0.230469l0.128906 -0.230469c14.2861 25.4121 28.8906 44.0781 45.8145 61.002c38.8213 38.8213 104.279 80.4473 208.12 80.4473c26.751 0 127.969 -0.47168 208.057 -80.5586
c18.2686 -18.2695 32.6143 -38.0078 45.3213 -60.8887c0.0429688 -0.0761719 0.0839844 -0.152344 0.125977 -0.226562l-0.125977 0.226562c-6.78906 -12.2324 -20.585 -35.8896 -44.4619 -59.7666c-79.3779 -79.3779 -177.316 -81.3535 -208.916 -81.3535zM269.908 659.436
c-83.5322 -15.1885 -126.478 -60.2158 -150.77 -102.315c10.3799 -17.9121 22.0957 -31.7695 32.3535 -42.0283c24.1104 -24.1104 60.1279 -48.1895 112.411 -58.9014c-9.92871 4.87109 -20.2686 11.8047 -30.1621 21.6982
c-38.1523 38.1523 -37.583 86.1904 -25.3975 118.062c0.185547 0.27832 0.106445 0.457031 -0.179688 0.556641c-0.461914 2.45508 6.68457 14.5898 7.85742 17.5781c1.46094 3.72461 3.19727 5.53125 5.98828 8.05273c1.9541 1.76172 1.9873 1.79785 3.31641 4.01562
c1.99121 3.32227 2.08105 3.5127 10.79 12.2207c6.85156 6.85156 22.8926 16.9629 33.792 21.0615z" />
  </g>

</svg>
