<?xml version="1.0" standalone="no"?>
<!DOCTYPE svg PUBLIC "-//W3C//DTD SVG 1.1//EN" "http://www.w3.org/Graphics/SVG/1.1/DTD/svg11.dtd" >
<svg xmlns="http://www.w3.org/2000/svg" xmlns:xlink="http://www.w3.org/1999/xlink" version="1.1" viewBox="-14 0 1023 1000">
  <g transform="matrix(1 0 0 -1 0 800)">
   <path fill="currentColor"
d="M237.499 687.326l-12 60c128.725 89.7881 355.203 55.3633 442.457 48.5605c0 -0.0107422 0.000976562 -0.0214844 0.000976562 -0.0322266c27.4463 0.582031 75.1855 -1.32129 107.268 -33.4033c40.1396 -40.1396 38.6152 -108.841 37.5254 -169.365
c-0.395508 -21.9258 -0.433594 -33.2402 -0.22168 -41.9463c26.3789 -43.8281 72.168 -89.959 89.3252 -129.607c6.95117 -16.0635 5.49219 -24.7637 2.64551 -40.2051l-12 -14l-79.501 -63.5771v-212.431c1.93945 -31.0869 1.82422 -79.2412 -27.416 -108.48
c-26.0322 -26.0322 -182.507 -12.0195 -220.584 -13.0049l-2.90137 0.0126953c-103.732 -7.2998 -296.108 50.6025 -326.603 92.1719c-18.5059 25.2275 -31.4014 41.2529 -57.9951 55.3086v70.0371c25.8174 -16.2627 49.624 -17.8066 70.1904 -60.6357
c44.2188 -92.082 349.455 -105.734 451.309 -108.438l-0.499023 -0.962891c50 12 34.1514 4.48145 42.5352 13.5361c19.1768 20.7119 3.97852 41.9688 5.50781 57.9648h-0.541992v2.14941c-0.253906 0.990234 -0.500977 1.94141 -0.738281 2.84863h0.738281v207.174v3.4873
v1.33887h1.58203l104 88h1.13281c4.9834 45.8955 -62.8379 92.1289 -94.2158 139.501l-3 4l-1 1c-2.02051 3.99219 0.0439453 4.02539 -2.08398 11.5605c-0.0371094 0.130859 -0.189453 0.24707 -0.174805 0.367188l0.258789 2.07227l0.0644531 1.49902
c0.00976563 0.226562 0.150391 3.89551 0.242188 6.24414c3.11426 79.1523 14.1973 176.389 -74.8154 176.771c-136.35 16.7461 -373.536 9.53418 -431.49 -46.5137zM-3.14648 807.847h55.5146l17.1611 52.2256l17.1602 -52.2256h55.5156l-44.8672 -32.2959
l17.1611 -52.2246l-44.9697 32.2959l-44.9707 -32.2959l17.1611 52.2246zM500.016 522.608c-0.0488281 0.0429688 -0.0957031 0.0810547 -0.138672 0.114258zM449.634 534.605c0.154297 -0.171875 0.264648 -0.291992 0.324219 -0.353516zM651.315 441.24
c-0.955078 -1.49609 0.136719 0.367188 -1.32324 -0.740234l0.850586 -0.544922c0.0517578 -0.0332031 -1.90625 -7.67285 -0.567383 -14.041c0.625 -2.96777 2.23828 -2.75879 2.24805 -5.19629c0.0117188 -2.78027 -3.43262 -3.40137 -1.12109 -3.63672
c8.62695 -0.878906 -6.38086 -6.1377 -11.7305 -7.00391c-8.75195 -1.41602 -23.1699 -0.573242 -36.4053 -3.8623c-3.8916 -0.327148 -36.998 -2.40137 -41.2402 -1.28711c-2.14551 0.563477 -4.5918 0.381836 -6.25684 -0.658203
c-10.6387 2.34668 -28.5664 13.5039 -30.3184 19.5732l0.0205078 1.62012l-0.571289 1.4375l-0.932617 1.16992c-7.9082 13.5107 -15.5449 24.0371 -15.7412 24.251c-0.581055 3.97266 -2.41406 5.88477 -2.41406 6.33008c0 5.4668 -15.6797 33.2363 -18.8574 35.6797
c-0.199219 0.15332 -13.0977 14.8271 -16.7324 18.7207c-0.115234 0.207031 -4.69727 6.72656 -16.7734 16.8271c-2.08398 1.74414 -1.28027 3.13672 -3.81543 4.72656c-6.26562 7.01758 -3.76758 6.67969 -6.13867 10.2314c0.28125 8.25977 12.3076 12.376 12.4766 12.4258
c1.46191 0.0400391 5.4082 -0.160156 6.24902 -0.352539c3.89844 -0.889648 6.93457 -4.89648 10.2051 -6.48047c4.40234 -5.97852 24.1104 -24.2969 24.2998 -24.5859c0.87207 -1.9541 2.54492 -2.90527 3.29004 -3.23535
c2.71289 -2.38867 3.4541 -5.72754 7.59863 -7.22266c1.67871 -1.7168 4.6084 -2.35449 7.22266 -1.60254c0.513672 -0.0898438 0.513672 -0.0898438 4.83398 -0.953125l1.20703 1.31055c0.780273 2.50293 -0.498047 10.583 -3.05176 11.5352
c-0.6875 3.88184 -0.910156 4.97168 -0.979492 5.21875c0.751953 1.46094 1.49023 3.70508 0.0253906 5.88477c-0.109375 0.551758 -4.28613 50.8682 -5.68652 56.0039c-0.0195312 1.30664 0.924805 4.78223 0.00488281 6.95801
c0.610352 4.60645 0.123047 20.0713 0.551758 25.8926c0 2.59375 2.61621 6.53613 5.24512 13.2764c1.8623 2.55566 1.8623 2.55566 5.84668 3.89844c2.91797 -0.165039 2.9873 -0.518555 3.40137 -0.816406c1 -0.717773 1 -0.717773 4.75391 -2.77148
c0.473633 -0.621094 2.36719 -3.83301 2.3916 -3.87109c2.58789 -7.92285 4.37988 -21.9775 5.4375 -32.4092l6.24023 11.7002l1.77246 4.98145c2.31934 6.51562 2.98535 18.2754 6.48242 26.7236c2.33301 5.63867 3.88379 7.27344 9.22949 9.31641
c4.59668 -0.1875 4.79199 -0.443359 5.87109 -1.35352c0.0654297 -0.230469 8.10156 -15.5303 9.94043 -21.8418l-0.525391 -3.36621l1.3252 0.0478516c0.015625 -0.0839844 0.425781 -4.62988 1.09863 -8.38867l0.832031 -0.0878906
c0.196289 -2.91113 0.196289 -2.91113 -0.0439453 -4.73828c0.214844 -0.0361328 0.561523 0.0302734 0.483398 -0.230469c3.89355 0.216797 5.32129 -20.8242 7.99414 -19.6621c5.17871 2.25 1.14453 29.8203 3.18164 29.7002
c1.47461 -0.0869141 0.410156 2.62012 0.515625 3.48242c0.307617 2.5 1.17773 1.61035 1.93164 5.16895c1.06348 5.0293 8.29688 13.9434 8.36035 14.0938c2.80176 2.7207 6.50391 3.72852 7.99023 2.58594c8.33984 -9.31836 13.0186 -32.0547 12.7305 -47.2314
c1.78223 -0.0205078 2.17871 -5.83496 2.33984 -7.2002c3.22852 -27.3877 4.98438 19.7764 6.87012 16.7236l1.59082 2.7373c1.7041 2.93457 11.418 13.6543 14.6406 16.1328c0.850586 0.655273 1.02637 0.725586 5.00391 0.0634766
c2.69141 -1.67383 4.84473 -5.25586 4.93457 -5.44238c4.43945 -9.20508 -1.12207 -64.8066 -1.17773 -74.1475c-1.59961 -5.31738 -0.897461 -14.4043 -0.537109 -16.6309c0 -11.9941 1.95508 -32.835 2.19922 -34.583c-2.17578 -4.00977 3.34668 -20.4922 1.9834 -32.5254
c-0.351562 -3.10547 -10.7607 -27.7285 -10.7607 -27.7285zM516.987 638.91c0.0253906 0.0371094 0.0253906 0.0654297 0.0292969 0.0722656c-0.000976562 -0.00195312 -0.0117188 -0.0273438 -0.0292969 -0.0722656zM652.115 639.998l-0.724609 -4.2041l2.41602 0.670898z
M567.129 655.209l0.28418 -0.0322266c-0.0732422 0.0117188 -0.168945 0.0166016 -0.28418 0.0322266zM620.069 634.968c0 -0.0380859 0.0244141 -0.0761719 0.0244141 -0.078125c-0.00683594 0.0244141 -0.0244141 0.0507812 -0.0244141 0.078125zM508.203 452.234
c0 -0.0166016 0.0410156 -0.0332031 0.0429688 -0.0498047zM535.698 415.141zM627.23 648.904l0.0507812 -0.0986328c-0.0107422 0.0234375 -0.0273438 0.0566406 -0.0507812 0.0986328zM550.663 659.079l0.0351562 0.0283203
c-0.0117188 -0.0078125 -0.0234375 -0.0175781 -0.0351562 -0.0283203zM498.792 538.492l0.0410156 -0.0419922c-0.0146484 0.0146484 -0.0410156 0.0419922 -0.0410156 0.0419922zM457.008 566.36l0.117188 -0.0253906
c-0.0234375 0.00390625 -0.117188 0.0253906 -0.117188 0.0253906zM449.688 519.764l-0.0244141 0.0185547c0.00683594 -0.00488281 0.0136719 -0.0185547 0.0244141 -0.0185547zM449.314 520.12c0.702148 -0.702148 2.39844 -1.80762 4.83105 -4.24023
c5 -5 6.02832 -8.64258 12.1221 -14.4854c4.4502 -4.2666 3.70312 -4.7998 10.4795 -13.2217c13.7939 -17.1533 20.9561 -43.9443 31.4648 -55.1074c2.49121 -5.37207 -0.414062 -3.77539 2.34961 -7.68457c0.0654297 -0.206055 0.0654297 -0.206055 1.97852 -5.10156
l-1.66113 -1.72949c-0.0234375 -0.0244141 -0.716797 -1.61133 -0.386719 -4.29199c0.390625 -3.1709 1.94824 -6.71191 3.37109 -8.13574c2.10352 -1.49805 0.206055 -1.80078 3.68457 -2.88477c18.8193 -13.3984 131.502 0.110352 131.502 0.110352
c5.53223 0.0761719 12.2002 6.25781 14.8721 11.6475c3.70801 7.47754 -2.49414 13.1846 -0.216797 24.6211c-1.10352 2.14355 -0.196289 3.79199 3.02344 9.63672c2.37109 4.30664 3.6416 6.61328 3.94238 8.41797c3.8418 4.83594 3.53516 11.6055 1.51758 34.207
c0.643555 1.2793 0.643555 1.2793 0.44043 2.12305c-2.63477 10.9404 -2.94531 29.1846 -2.61328 46.4814c0.141602 7.4375 1.17578 34.8623 2.01758 42.123c1.21875 10.5166 0.0849609 36.8643 -0.356445 40.2334c-0.594727 4.53125 -2.13379 11.5459 -6.0293 13.2324
c-0.0996094 0.0351562 -4.19141 2.85547 -9.71875 4.25293c-1.24707 0.31543 -4.88086 1.23438 -7.49121 -0.00683594c-4.44629 -0.556641 -9.54785 -4.66699 -10.5742 -5.72461l-4.77051 -4.91406l-1.57031 6.66016c-2.27246 9.64355 -1.84375 8.40332 -3.90918 11.7568
c-1.21777 2.16602 -1.97266 3.51074 -4.04395 5.58203c-3.18262 3.18262 -3.74902 2.16016 -5.48242 3.39453c-4.42578 3.15137 -12.0742 2.8125 -15.4785 0.741211c-4.67773 -2.09961 -5.47949 -2.45898 -7.12891 -4.10938
c-1.21777 -1.2168 -1.48438 -1.54688 -10.0654 -12.1494l-1.70215 7.54688c-0.509766 2.25977 -0.547852 3.0127 -3.93652 6.82715c-4.37695 4.92676 -4.55371 5.12695 -9.33301 6.27637c-0.970703 0.233398 -2.18555 0.525391 -3.0332 1.91602
c-3.40039 5.56445 -6.79688 4.52832 -14.1768 -2.74219c-3.73242 -3.67676 -3.75781 -2.91602 -8.0625 -7.2207c-2.8623 -2.86328 -3.12305 -3.36621 -5.4834 -7.92969l-3.37402 1.86426c-12.8584 7.10449 -21.4082 2.86621 -26.8506 -2.57617
c-3.21289 -3.21289 -5.35156 -7.31152 -5.71973 -8.9834c0.0820312 -0.958984 -0.267578 -1.48535 -0.672852 -1.95703c-5.84668 -8.3252 -2.47168 -55.1797 0.583008 -78.2607c0 0 -0.129883 -1.4707 0.240234 -1.81934
c1.07617 -4.96191 1.19434 -5.50391 1.56445 -22.9775l-6.63867 6.94629c-0.681641 0.675781 -12.9521 12.624 -21.3799 19.2314c-4.7793 3.74707 -8.22266 5.79785 -10.9033 6.93164c-4.95312 2.09473 -8.01562 1.37305 -9.43359 1.71094
c-0.37207 0.0537109 -10.1777 1.48047 -22.5176 -12.2266c-7.19727 -7.99316 2.98145 -20.5889 3.20898 -20.791c0.256836 -0.271484 0.625 -0.432617 0.742188 -0.84375v0v0c1.50391 -1.83203 8.49902 -10.0771 10.7793 -12.3574zM514.07 405.93l-3.63281 0.731445
c0.762695 0.25 2.23828 0.482422 3.63281 -0.731445zM438.535 532.478c-0.209961 0.3125 -0.0205078 0.0244141 -0.0205078 0.0244141c0.00585937 -0.0078125 0.0195312 -0.0234375 0.0205078 -0.0244141zM663.705 439.616
c0.189453 0.947266 0.189453 0.947266 0.811523 3.10254l1.00098 -3.36816l5.07227 -0.163086c-3.35352 -3.20312 -6.08301 -1.12598 -6.88477 0.428711zM510.16 420.907zM641.138 397.13zM564.801 505.2c0 -5.7002 6 -10.2002 13.1992 -10.2002
c7.2002 0 13.2002 4.5 13.2002 10.2002c0 5.7002 -6 10.2002 -13.2002 10.2002c-7.19922 0 -13.1992 -4.5 -13.1992 -10.2002zM494.878 196.479c-0.0488281 0.0429688 -0.0957031 0.0810547 -0.138672 0.114258zM444.496 208.476
c0.154297 -0.171875 0.264648 -0.291992 0.324219 -0.353516zM646.178 115.11c-0.955078 -1.49609 0.136719 0.367188 -1.32324 -0.740234l0.850586 -0.544922c0.0517578 -0.0332031 -1.90625 -7.67285 -0.567383 -14.041c0.625 -2.96777 2.23828 -2.75879 2.24805 -5.19629
c0.0117188 -2.78027 -3.43262 -3.40137 -1.12109 -3.63672c8.62695 -0.878906 -6.38086 -6.1377 -11.7305 -7.00391c-8.75195 -1.41602 -23.1699 -0.573242 -36.4053 -3.8623c-3.8916 -0.327148 -36.998 -2.40137 -41.2402 -1.28711
c-2.14551 0.563477 -4.5918 0.381836 -6.25684 -0.658203c-10.6387 2.34668 -28.5664 13.5039 -30.3184 19.5732l0.0205078 1.62012l-0.571289 1.4375l-0.932617 1.16992c-7.9082 13.5107 -15.5449 24.0371 -15.7412 24.251
c-0.581055 3.97266 -2.41406 5.88477 -2.41406 6.33008c0 5.4668 -15.6797 33.2363 -18.8574 35.6797c-0.199219 0.15332 -13.0977 14.8271 -16.7324 18.7207c-0.115234 0.207031 -4.69727 6.72656 -16.7734 16.8271c-2.08398 1.74414 -1.28027 3.13672 -3.81543 4.72656
c-6.26562 7.01758 -3.76758 6.67969 -6.13867 10.2314c0.28125 8.25977 12.3076 12.376 12.4766 12.4258c1.46191 0.0400391 5.4082 -0.160156 6.24902 -0.352539c3.89844 -0.889648 6.93457 -4.89648 10.2051 -6.48047c4.40234 -5.97852 24.1104 -24.2969 24.2998 -24.5859
c0.87207 -1.9541 2.54492 -2.90527 3.29004 -3.23535c2.71289 -2.38867 3.4541 -5.72754 7.59863 -7.22266c1.67871 -1.7168 4.6084 -2.35449 7.22266 -1.60254c0.513672 -0.0898438 0.513672 -0.0898438 4.83398 -0.953125l1.20703 1.31055
c0.780273 2.50293 -0.498047 10.583 -3.05176 11.5352c-0.6875 3.88184 -0.910156 4.97168 -0.979492 5.21875c0.751953 1.46094 1.49023 3.70508 0.0253906 5.88477c-0.109375 0.551758 -4.28613 50.8682 -5.68652 56.0039
c-0.0195312 1.30664 0.924805 4.78223 0.00488281 6.95801c0.610352 4.60645 0.123047 20.0713 0.551758 25.8926c0 2.59375 2.61621 6.53613 5.24512 13.2764c1.8623 2.55566 1.8623 2.55566 5.84668 3.89844c2.91797 -0.165039 2.9873 -0.518555 3.40137 -0.816406
c1 -0.717773 1 -0.717773 4.75391 -2.77148c0.473633 -0.621094 2.36719 -3.83301 2.3916 -3.87109c2.58789 -7.92285 4.37988 -21.9775 5.4375 -32.4092l6.24023 11.7002l1.77246 4.98145c2.31934 6.51562 2.98535 18.2754 6.48242 26.7236
c2.33301 5.63867 3.88379 7.27344 9.22949 9.31641c4.59668 -0.1875 4.79199 -0.443359 5.87109 -1.35352c0.0654297 -0.230469 8.10156 -15.5303 9.94043 -21.8418l-0.525391 -3.36621l1.3252 0.0478516c0.015625 -0.0839844 0.425781 -4.62988 1.09863 -8.38867
l0.832031 -0.0878906c0.196289 -2.91113 0.196289 -2.91113 -0.0439453 -4.73828c0.214844 -0.0361328 0.561523 0.0302734 0.483398 -0.230469c3.89355 0.216797 5.32129 -20.8242 7.99414 -19.6621c5.17871 2.25 1.14453 29.8203 3.18164 29.7002
c1.47461 -0.0869141 0.410156 2.62012 0.515625 3.48242c0.307617 2.5 1.17773 1.61035 1.93164 5.16895c1.06348 5.0293 8.29688 13.9434 8.36035 14.0938c2.80176 2.7207 6.50391 3.72852 7.99023 2.58594c8.33984 -9.31836 13.0186 -32.0547 12.7305 -47.2314
c1.78223 -0.0205078 2.17871 -5.83496 2.33984 -7.2002c3.22852 -27.3877 4.98438 19.7764 6.87012 16.7236l1.59082 2.7373c1.7041 2.93457 11.418 13.6543 14.6406 16.1328c0.850586 0.655273 1.02637 0.725586 5.00391 0.0634766
c2.69141 -1.67383 4.84473 -5.25586 4.93457 -5.44238c4.43945 -9.20508 -1.12207 -64.8066 -1.17773 -74.1475c-1.59961 -5.31738 -0.897461 -14.4043 -0.537109 -16.6309c0 -11.9941 1.95508 -32.835 2.19922 -34.583c-2.17578 -4.00977 3.34668 -20.4922 1.9834 -32.5254
c-0.351562 -3.10547 -10.7607 -27.7285 -10.7607 -27.7285zM511.85 312.78c0.0253906 0.0371094 0.0253906 0.0654297 0.0292969 0.0722656c-0.000976562 -0.00195312 -0.0117188 -0.0273438 -0.0292969 -0.0722656zM646.978 313.868l-0.724609 -4.2041l2.41602 0.670898z
M561.991 329.079l0.28418 -0.0322266c-0.0732422 0.0117188 -0.168945 0.0166016 -0.28418 0.0322266zM614.932 308.838c0 -0.0380859 0.0244141 -0.0761719 0.0244141 -0.078125c-0.00683594 0.0244141 -0.0244141 0.0507812 -0.0244141 0.078125zM503.065 126.104
c0 -0.0166016 0.0410156 -0.0332031 0.0429688 -0.0498047zM530.561 89.0107zM622.093 322.774l0.0507812 -0.0986328c-0.0107422 0.0234375 -0.0273438 0.0566406 -0.0507812 0.0986328zM545.525 332.949l0.0351562 0.0283203
c-0.0117188 -0.0078125 -0.0234375 -0.0175781 -0.0351562 -0.0283203zM493.654 212.362l0.0410156 -0.0419922c-0.0146484 0.0146484 -0.0410156 0.0419922 -0.0410156 0.0419922zM451.87 240.23l0.117188 -0.0253906
c-0.0234375 0.00390625 -0.117188 0.0253906 -0.117188 0.0253906zM444.551 193.634l-0.0244141 0.0185547c0.00683594 -0.00488281 0.0136719 -0.0185547 0.0244141 -0.0185547zM444.177 193.99c0.702148 -0.702148 2.39844 -1.80762 4.83105 -4.24023
c5 -5 6.02832 -8.64258 12.1221 -14.4854c4.4502 -4.2666 3.70312 -4.7998 10.4795 -13.2217c13.7939 -17.1533 20.9561 -43.9443 31.4648 -55.1074c2.49121 -5.37207 -0.414062 -3.77539 2.34961 -7.68457c0.0654297 -0.206055 0.0654297 -0.206055 1.97852 -5.10156
l-1.66113 -1.72949c-0.0234375 -0.0244141 -0.716797 -1.61133 -0.386719 -4.29199c0.390625 -3.1709 1.94824 -6.71191 3.37109 -8.13574c2.10352 -1.49805 0.206055 -1.80078 3.68457 -2.88477c18.8193 -13.3984 131.502 0.110352 131.502 0.110352
c5.53223 0.0761719 12.2002 6.25781 14.8721 11.6475c3.70801 7.47754 -2.49414 13.1846 -0.216797 24.6211c-1.10352 2.14355 -0.196289 3.79199 3.02344 9.63672c2.37109 4.30664 3.6416 6.61328 3.94238 8.41797c3.8418 4.83594 3.53516 11.6055 1.51758 34.207
c0.643555 1.2793 0.643555 1.2793 0.44043 2.12305c-2.63477 10.9404 -2.94531 29.1846 -2.61328 46.4814c0.141602 7.4375 1.17578 34.8623 2.01758 42.123c1.21875 10.5166 0.0849609 36.8643 -0.356445 40.2334c-0.594727 4.53125 -2.13379 11.5459 -6.0293 13.2324
c-0.0996094 0.0351562 -4.19141 2.85547 -9.71875 4.25293c-1.24707 0.31543 -4.88086 1.23438 -7.49121 -0.00683594c-4.44629 -0.556641 -9.54785 -4.66699 -10.5742 -5.72461l-4.77051 -4.91406l-1.57031 6.66016c-2.27246 9.64355 -1.84375 8.40332 -3.90918 11.7568
c-1.21777 2.16602 -1.97266 3.51074 -4.04395 5.58203c-3.18262 3.18262 -3.74902 2.16016 -5.48242 3.39453c-4.42578 3.15137 -12.0742 2.8125 -15.4785 0.741211c-4.67773 -2.09961 -5.47949 -2.45898 -7.12891 -4.10938
c-1.21777 -1.2168 -1.48438 -1.54688 -10.0654 -12.1494l-1.70215 7.54688c-0.509766 2.25977 -0.547852 3.0127 -3.93652 6.82715c-4.37695 4.92676 -4.55371 5.12695 -9.33301 6.27637c-0.970703 0.233398 -2.18555 0.525391 -3.0332 1.91602
c-3.40039 5.56445 -6.79688 4.52832 -14.1768 -2.74219c-3.73242 -3.67676 -3.75781 -2.91602 -8.0625 -7.2207c-2.8623 -2.86328 -3.12305 -3.36621 -5.4834 -7.92969l-3.37402 1.86426c-12.8584 7.10449 -21.4082 2.86621 -26.8506 -2.57617
c-3.21289 -3.21289 -5.35156 -7.31152 -5.71973 -8.9834c0.0820312 -0.958984 -0.267578 -1.48535 -0.672852 -1.95703c-5.84668 -8.3252 -2.47168 -55.1797 0.583008 -78.2607c0 0 -0.129883 -1.4707 0.240234 -1.81934
c1.07617 -4.96191 1.19434 -5.50391 1.56445 -22.9775l-6.63867 6.94629c-0.681641 0.675781 -12.9521 12.624 -21.3799 19.2314c-4.7793 3.74707 -8.22266 5.79785 -10.9033 6.93164c-4.95312 2.09473 -8.01562 1.37305 -9.43359 1.71094
c-0.37207 0.0537109 -10.1777 1.48047 -22.5176 -12.2266c-7.19727 -7.99316 2.98145 -20.5889 3.20898 -20.791c0.256836 -0.271484 0.625 -0.432617 0.742188 -0.84375v0v0c1.50391 -1.83203 8.49902 -10.0771 10.7793 -12.3574zM508.933 79.7998l-3.63281 0.731445
c0.762695 0.25 2.23828 0.482422 3.63281 -0.731445zM433.397 206.348c-0.209961 0.3125 -0.0205078 0.0244141 -0.0205078 0.0244141c0.00585938 -0.0078125 0.0195312 -0.0234375 0.0205078 -0.0244141zM658.567 113.486
c0.189453 0.947266 0.189453 0.947266 0.811523 3.10254l1.00098 -3.36816l5.07227 -0.163086c-3.35352 -3.20312 -6.08301 -1.12598 -6.88477 0.428711zM505.022 94.7773zM636 71zM559.663 179.07c0 -5.7002 6 -10.2002 13.1992 -10.2002
c7.2002 0 13.2002 4.5 13.2002 10.2002s-6 10.2002 -13.2002 10.2002c-7.19922 0 -13.1992 -4.5 -13.1992 -10.2002z" />
  </g>

</svg>
