<?xml version="1.0" standalone="no"?>
<!DOCTYPE svg PUBLIC "-//W3C//DTD SVG 1.1//EN" "http://www.w3.org/Graphics/SVG/1.1/DTD/svg11.dtd" >
<svg xmlns="http://www.w3.org/2000/svg" xmlns:xlink="http://www.w3.org/1999/xlink" version="1.1" viewBox="-10 0 1090 1000">
  <g transform="matrix(1 0 0 -1 0 800)">
   <path fill="currentColor"
d="M680.571 483.902c-36.0918 -17.792 -36.4746 -17.9482 -40.2529 -17.9482c-2.23242 0 -6.69531 0.585938 -10.0781 4.77832c-0.442383 0.544922 -38.7559 55.5762 -40.1846 57.5283c-2.33398 3.18945 -5.22461 6.56836 -5.22461 11.9062
c0 7.38281 4.86523 10.6963 13.9326 16.8711c48.7871 33.582 110.802 76.3711 118.451 82.1533h31.5156c5.03809 0 9.2207 0.00976562 12.7285 0.00976562c14.5176 0 17.4795 -0.173828 21.6973 -1.95605c0.000976562 0 0.349609 -0.131836 0.349609 -0.131836
c2.58594 -0.954102 15.5342 -5.33691 31.6797 -5.33691h1.63281c10.6816 0 16.5127 0.953125 30.7656 7.41504h58.4375c1.36523 -0.9375 112.776 -77.4873 135.894 -94.8096c-11.0137 -16.6338 -16.1934 -24.6748 -31.0156 -49.2373
c-6.97754 -11.5674 -11.1904 -19.0879 -14.9824 -22.8818c-3.96094 -3.95996 -8.39844 -4.0166 -9.2334 -4.0166c-3.12598 0 -22.6855 5.51074 -54.4092 14.6543c17.96 -197.925 17.96 -197.925 17.96 -198.316v-14.7842h-282.122
c1.72754 22.4541 1.72754 22.4541 3.13867 48.582c0.00195313 0 2.82227 50.4746 2.82227 50.4746l2.83594 49.5898c0 0.00585938 2.48145 44.3418 3.66211 65.4561zM919.262 299.652c-0.175781 2.04199 -18.4639 201.771 -18.4639 204.114
c0 7.17383 3.96777 12.2002 9.32227 13.8467v2.03809c2.69238 -0.6875 5.38379 -1.375 8.07617 -2.06348l-0.0361328 -0.143555c11.7754 -2.80664 45.0879 -12.7129 61.1709 -17.0527l22.5215 36.4375c-9.55469 6.59375 -6.50781 4.50293 -9.55469 6.59375
c-51.2871 35.6338 -51.2871 35.6338 -95.0283 65.9316c-2.77637 0.0966797 -9.10742 0.248047 -21.0967 0.248047c-7.37207 0 -14.7432 0.00390625 -22.1143 0.00390625c-10.1523 -3.86523 -20.1211 -7.32227 -37.5078 -7.32227
c-10.9336 0 -21.4414 0.175781 -44.3135 7.32227h-23.3506c-11.1572 0 -18.6777 -0.154297 -22.1729 -0.277344c-13.7656 -9.33398 -85.7881 -59.1348 -106.018 -73.1455c5.49707 -7.86426 12.9268 -18.5859 25.1846 -36.2705
c12.1035 5.90234 41.2783 20.1846 47.2246 22.8682c1.6582 1.04395 4.70703 1.25684 5.39746 1.25684c0.0917969 0 0.125 -0.0166016 0.125 -0.0166016c7.30176 0 13.1309 -5.52734 13.1309 -14.5146c0 -0.328125 -1.04395 -17.1357 -1.89062 -32.625l-10.0312 -177.348
c18.2002 -0.0986328 52.9814 -0.145508 90.166 -0.145508zM345.333 -19.0049v177.923l2.31934 1.03223c4.04785 0.548828 15.4473 6.54883 21.5957 14.7979c0.109375 0.147461 5.42188 9.50879 8.21973 16.418h177.707l-0.698242 -6.63086
c-4.30566 -40.915 -25.9668 -93.3799 -51.7812 -125.421c-8.11328 -10.0703 -4.76953 -7.48145 -9.81348 -12.5254c-3.7832 -3.7832 -7.69727 -6.33496 -10.6201 -8.26074l0.334961 -0.334961l-5.18359 -4.19727c-32.0078 -25.915 -84.4854 -47.707 -125.438 -52.0898z
M555.516 213.664h-177.881c-0.751953 2.06445 0.516602 -2.88477 0 0.000976562c-1.28418 7.18066 -3.78711 10.6494 -12.1367 18.1279c-0.0966797 0.0859375 -4.17285 3.84277 -8.96387 9.29395c-2.73633 1.45605 -3.69727 1.9668 -11.2012 4.78223v177.8l6.6416 -0.710938
c38.6074 -4.13281 87.3877 -23.75 119.671 -47.6523c6.49316 -4.80762 6.27246 -2.78613 13.1025 -9.24805c2.14648 -2.03125 2.43945 -2.30762 3.45117 -2.69043c2.06738 -0.78125 3.46973 -1.31055 4.68848 -3.68555c1.69141 -3.29492 1.74316 -1.4375 4.32617 -6.54688
c6.83594 -4.5918 7.4375 -5.8457 11.8682 -15.0879l-0.123047 -0.189453c25.874 -36.3975 42.3242 -83.8555 45.8604 -117.563zM322.667 424.003v-177.921l-2.98535 -1.3252c-0.981445 -0.857422 -2.19922 -1.41797 -4.58203 -3.25781
c-2.10449 -1.625 -0.204102 1.23047 -4.19922 -3.59961l-4.2002 -4.2002c-0.597656 -0.597656 0.599609 0.599609 -3 -2.40039c-7.2002 -6.59961 -5.40039 -4.7998 -6.73438 -6.4082c-0.794922 -0.958984 -1.19434 -3.47266 -2.86621 -6.19141
c-0.233398 -0.380859 -1.7666 0.444336 -2.80957 -4.86719h-178.465l0.698242 6.63086c4.30566 40.915 25.9668 93.3799 51.7812 125.421c3.54004 4.39355 1.5957 2.41504 5.79492 7.21484c1.67676 1.91602 2.40039 2.40039 2.86523 3.2002
c0.105469 0.180664 11.375 8.95605 16.9248 13.7734c20.4668 14.2334 64.9912 46.7822 125.136 53.2197zM334.004 446.998c-134.963 0 -244.503 -109.534 -244.503 -244.499c0 -134.971 109.545 -244.499 244.499 -244.499c134.971 0 244.499 109.545 244.499 244.499
c-0.185547 134.788 -109.728 244.313 -244.495 244.499zM112.496 191.166h177.866c0.807617 -2.21387 -1.7627 -0.580078 3.1377 -10.2666c3.57324 -7.06543 12.626 -14.9102 15.0068 -16.3232c0.433594 -0.256836 -1.93945 1.41406 -1.20703 1.32324
c1.23633 -0.154297 2.69336 -2.24219 5.16699 -3.30176h1.18457c1.0166 -0.452148 1.0166 -0.452148 9.01562 -3.15137v-178.119l-6.63672 0.704102c-40.9326 4.34473 -93.3994 26.0684 -125.425 51.9326l-5.19531 4.19629l0.637695 0.636719
c-5.2373 6.57227 -5.53809 6.94922 -8.61719 9.23926c-2.15723 1.60547 -4.12012 3.18164 -7.17773 6.63086l-0.759766 -0.762695l-4.2041 5.19336c-25.9121 32.0088 -47.6992 84.4785 -52.082 125.427zM434 738l-98.333 -102.381
c49.9699 -48.4806 78.8486 -83.7314 85.6914 -88.4453l-17.3584 -15.1738l-85.8408 88.7783l-96.1592 -96.7783l-12.6074 14.4678l94.625 95.0322l-86.0176 90.5l15.4883 15.5479l87.3643 -86.2607l99.7178 96.9023z" />
  </g>

</svg>
