<?xml version="1.0" standalone="no"?>
<!DOCTYPE svg PUBLIC "-//W3C//DTD SVG 1.1//EN" "http://www.w3.org/Graphics/SVG/1.1/DTD/svg11.dtd" >
<svg xmlns="http://www.w3.org/2000/svg" xmlns:xlink="http://www.w3.org/1999/xlink" version="1.1" viewBox="-10 0 1064 1000">
  <g transform="matrix(1 0 0 -1 0 800)">
   <path fill="currentColor"
d="M854.395 460.694c0 9.49902 0.360352 25.4824 0.360352 28.9053l-0.318359 61.375l-8.69434 54.7793l-24.0586 41.7607l-29.835 19.125l-33.9414 8.02539c-15.9834 0.617188 -31.9668 1.23438 -47.9502 1.85059v0.765625l-107.704 8.96191l-161.613 -4.84375
l-135.512 -48.0117l4.97461 -24.8711l90.1514 34.2031l168.52 13.9912l163.858 -8.05859l72.0586 -32.085l24.6855 -76.583c-11.2969 -92.7236 -11.5391 -94.709 -10.623 -98.1973c0.272461 -1.03711 0.408203 -1.9873 0.495117 -2.92188
c0.488281 -0.641602 1.13477 -1.58496 1.48633 -2.05664l30.4463 -40.7334l38.0439 -60.0674c7.97656 -11.168 15.9531 -22.335 23.9297 -33.502l-96.7109 -80.25l-3.2002 -219.288c0.962891 -7.5625 2.78418 -22.0117 5.01758 -45.877
c-0.128906 -0.270508 -9.65137 -20.9678 -12.835 -27.0205c-1.80566 -3.43262 -3.36328 -6.39453 -8.94434 -11.126c-28.7256 -6.87109 -37.6748 -9.0127 -53.7939 -9.0127c-3.38379 0 -6.77832 0.143555 -10.1738 0.446289l-127.95 -3.2207l-189.706 31.9736
l-119.909 72.0264c-7.29102 10.5146 -14.582 21.0303 -21.873 31.5449c-0.186523 0.126953 -14.9541 10.3477 -18.583 12.6523v-31.4629c5.41699 -3.87207 13.5068 -7.36328 24.4395 -17.251c7.32715 -6.625 2.0957 -4.45605 10.624 -11.9258
c1.03027 -0.902344 1.03027 -0.902344 17.2012 -21.8066l70.2637 -41.1387l123.979 -35.7695l40.835 -3.74512c52.8262 -4.9082 59.0674 -6.7334 83.0469 -7.42773l68.0801 -1.97266l89.7607 0.253906l51.1064 12.4922l15.1377 25.207l6.27637 34.1602l-0.268555 82.9482
l0.0292969 84.2285l-0.00585938 87.5186l84.7832 67.8018l7.68652 8.9668l1.11426 7.19531c0.449219 7.6123 -1.52441 12.8027 -3.31152 18.1787l-23.3311 38.8438l-33.0244 43.4482l-34.3174 48.9014c-0.203125 16.1299 -0.203125 16.1299 -0.203125 17.6953z
M56.3203 718.375h55.5146l17.1611 52.2256l17.1602 -52.2256h55.5156l-44.8672 -32.2959l17.1611 -52.2246l-44.9697 32.2959l-44.9707 -32.2959l17.1611 52.2246zM397.95 391.223c-31.5811 -15.5684 -31.916 -15.7051 -35.2217 -15.7051
c-1.9541 0 -5.8584 0.512695 -8.81836 4.18066c-0.386719 0.477539 -33.9121 48.6299 -35.1611 50.3369c-2.04297 2.79102 -4.57227 5.74805 -4.57227 10.418c0 6.46094 4.25781 9.36035 12.1914 14.7627c42.6895 29.3838 96.9512 66.8242 103.646 71.8848h27.5762
c4.40723 0 8.06738 0.0078125 11.1367 0.0078125c12.7021 0 15.2949 -0.151367 18.9844 -1.71191c0.00195312 0 0.306641 -0.114258 0.306641 -0.114258c2.2627 -0.835938 13.5928 -4.6709 27.7197 -4.6709h1.42871c9.3457 0 14.4482 0.833984 26.9199 6.48926h51.1328
c1.19531 -0.820312 98.6797 -67.8018 118.907 -82.959c-9.6377 -14.5547 -14.1699 -21.5898 -27.1387 -43.082c-6.10645 -10.1221 -9.79199 -16.7021 -13.1104 -20.0225c-3.46582 -3.46484 -7.34863 -3.51367 -8.07812 -3.51367
c-2.73633 0 -19.8506 4.82129 -47.6084 12.8223c15.7139 -173.185 15.7139 -173.185 15.7139 -173.527v-12.9355h-246.856c1.5127 19.6475 1.5127 19.6475 2.74707 42.5088c0.000976563 0 2.46875 44.165 2.46875 44.165l2.48145 43.3916
c0 0.00488281 2.1709 38.7988 3.20508 57.2744zM606.805 230.004c-0.155273 1.78613 -16.1562 176.549 -16.1562 178.6c0 6.27637 3.4707 10.6748 8.15625 12.1162v1.78223c2.35547 -0.601562 4.71191 -1.20312 7.06738 -1.80469l-0.03125 -0.125977
c10.3027 -2.45605 39.4512 -11.124 53.5234 -14.9209l19.707 31.8828c-2.69629 1.86914 -5.69434 3.94043 -8.36035 5.76953c-44.877 31.1797 -44.877 31.1797 -83.1494 57.6895c-2.42969 0.0849609 -7.96973 0.217773 -18.46 0.217773
c-6.4502 0 -12.9014 0.00292969 -19.3496 0.00292969c-8.88477 -3.38184 -17.6074 -6.40723 -32.8193 -6.40723c-9.56836 0 -18.7627 0.154297 -38.7754 6.40723h-20.4307c-9.76367 0 -16.3438 -0.134766 -19.4023 -0.242188
c-12.0449 -8.16797 -75.0635 -51.7432 -92.7646 -64.002c4.80957 -6.88184 11.3105 -16.2627 22.0361 -31.7373c10.5898 5.16406 36.1182 17.6621 41.3223 20.0098c1.4502 0.913086 4.11719 1.09961 4.72168 1.09961c0.0810547 0 0.109375 -0.0146484 0.109375 -0.0146484
c6.38867 0 11.4902 -4.83594 11.4902 -12.7002c0 -0.287109 -0.913086 -14.9932 -1.6543 -28.5469l-8.77734 -155.18c15.9248 -0.0859375 46.3584 -0.126953 78.8945 -0.126953z" />
  </g>

</svg>
