<?xml version="1.0" standalone="no"?>
<!DOCTYPE svg PUBLIC "-//W3C//DTD SVG 1.1//EN" "http://www.w3.org/Graphics/SVG/1.1/DTD/svg11.dtd" >
<svg xmlns="http://www.w3.org/2000/svg" xmlns:xlink="http://www.w3.org/1999/xlink" version="1.1" viewBox="-10 0 1008 1000">
  <g transform="matrix(1 0 0 -1 0 800)">
   <path fill="currentColor"
d="M348.481 97.6934l-82.2217 148.848l24.0225 10.1475l58.4395 -100.383l53.3027 101.418l27.2285 -11.0254zM265.568 -67.707v34.6641h38.626v22.0713h-38.626v34.6641h38.626v33.7148h31.3828v-33.7148h23.2197v31.2539h31.3828v-31.2539h41.292v-34.6641h-41.292
v-22.0713h41.292v-34.6641h-41.292v-36.1855h-31.3828v36.1855h-23.2197v-33.7246h-31.3828v33.7246h-38.626zM335.577 -33.043h23.2197v22.0713h-23.2197v-22.0713zM780.659 223.904c-0.529297 0 -0.985352 0.173828 -1.32227 0.358398l-214.094 -88.2627v-37.8242
c12.126 5.10742 24.251 10.2148 36.376 15.3213v-3.77051l-0.21875 -161.659h318.305l0.646484 155.446c10.9619 -6.48535 21.9238 -12.9697 32.8867 -19.4551l-0.677734 40.7051l-136.33 79.1182l1.46387 0.616211c-22.6963 11.7715 -24.457 12.7314 -36.2109 19.5508
c-0.288086 -0.102539 -0.56543 -0.144531 -0.824219 -0.144531zM884.594 -16.7148h-248.003l-0.665039 144.662l142.009 59.8174l107.859 -63.8086zM63.3545 -23.4795h55.5146l17.1611 52.2256l17.1602 -52.2256h55.5156l-44.8672 -32.2959l17.1611 -52.2246
l-44.9697 32.2959l-44.9707 -32.2959l17.1611 52.2246zM475 368.4l-5.85742 6.49219c-111.468 123.816 -215.809 62.541 -220.56 59.8496l-12.0332 -7.75879v296.241l3.4834 2.37598c1.10938 0 114.95 77.1084 238.292 -53.6758
c123.342 131.101 230.85 54.3086 231.958 53.5176l3.16699 -2.375v-297.667l-12.8252 9.97461c-3.95898 3.00879 -98.958 73.9424 -219.768 -60.4824zM319.518 467.518c42.9072 0 98.7988 -15.834 155.482 -75.5254c65.8662 69.9834 125.242 82.333 163.717 80.1162
c17.248 -0.834961 43.7061 -7.92773 59.0586 -15.832v258.558c-18.209 11.3994 -107.667 57.6338 -213.434 -59.8506l-5.8584 -6.49121l-5.8584 6.49121c-104.975 116.375 -201.242 70.6172 -220.241 59.6914v-260.457c17.7822 7.34082 47.8281 13.2998 67.0664 13.2998
h0.0673828zM616.74 498.36l-263.899 0.879883v17.4141h236.614v98.8809h-236.614v17.4141l261.554 -1.46582z" />
  </g>

</svg>
