<?xml version="1.0" standalone="no"?>
<!DOCTYPE svg PUBLIC "-//W3C//DTD SVG 1.1//EN" "http://www.w3.org/Graphics/SVG/1.1/DTD/svg11.dtd" >
<svg xmlns="http://www.w3.org/2000/svg" xmlns:xlink="http://www.w3.org/1999/xlink" version="1.1" viewBox="-10 0 1043 1000">
  <g transform="matrix(1 0 0 -1 0 800)">
   <path fill="currentColor"
d="M624.353 340.27l-1.94349 1.38305c-28.5093 20.2881 -71.2553 34.947 -103.409 34.947c-21.0437 0 -64.9148 -7.55312 -105.353 -36.3301h-316.313v-37.7754h279.87c-19.5025 -34.9238 -24.3559 -49.3401 -29.4936 -78.0576h-250.376v-37.7764h250.343
c2.03055 -11.8053 6.39362 -37.1714 22.7222 -66.9522l6.08849 -11.1045h-279.153v-37.7764h316.313l1.94345 -1.38295c28.5093 -20.2871 71.2564 -34.9461 103.41 -34.9461c21.0408 0 64.9132 7.55229 105.353 36.3291h316.313v37.7764h-279.87
c19.5036 34.9209 24.3563 49.3366 29.4945 78.0566h250.376v37.7764h-250.343c-2.03057 11.806 -6.39345 37.1722 -22.7221 66.9531l-6.08849 11.1045h279.153v37.7754h-316.313zM519 72.2144c-73.9055 0 -133.89 59.9877 -133.89 133.89
c0 73.905 59.9872 133.89 133.89 133.89c73.9055 0 133.89 -59.9877 133.89 -133.89c0 -73.905 -59.9872 -133.89 -133.89 -133.89zM705.869 565.58v146.082h-47.8838v-145.939l-141.846 0.420428v152.241h-41.4541v-152.118l-128.981 0.382347v158.454h-41.4551v-158.331
l-125.415 0.37207l-0.501459 -38.1755l663.668 -1.96973l0.501471 38.175z" />
  </g>

</svg>
