<?xml version="1.0" standalone="no"?>
<!DOCTYPE svg PUBLIC "-//W3C//DTD SVG 1.1//EN" "http://www.w3.org/Graphics/SVG/1.1/DTD/svg11.dtd" >
<svg xmlns="http://www.w3.org/2000/svg" xmlns:xlink="http://www.w3.org/1999/xlink" version="1.1" viewBox="-10 0 1002 1000">
  <g transform="matrix(1 0 0 -1 0 800)">
   <path fill="currentColor"
d="M631.219 365.604zM344.962 558.186zM291.504 459.771zM499.791 331.099zM499.416 319.147zM340.271 363.586zM432.02 334.723zM682.279 482.023zM291.504 459.771zM682.279 482.023zM555.521 608.373c-20.1797 0 -37.2627 -7.84863 -45.9277 -16.5137
c-3.29688 -3.29688 -2.45508 -3.46875 -3.81836 -3.96484c-6.12598 -2.23438 -12.1289 -3.04297 -17.6074 -3.04297c-5.17188 0 -14.5703 0.763672 -24.7461 5.33594c-6.91406 8.41602 -18.6074 16.0762 -38.2686 16.0762c-29.5166 0 -63.1758 -18.2695 -74.8818 -45.6426
l-0.578125 -1.35254h-2.03613l-53.3291 -72.46h-2.55176v-3.46582c-0.345703 -0.469727 -0.691406 -0.938477 -1.03711 -1.40918h0.557617l-5.90625 -22.1484l-0.664062 0.00976562c-0.119141 -2.26758 -0.333008 -3.57031 -1.04883 -6.38867h0.859375
c-0.0205078 -2.50391 -0.0205078 -2.50391 -0.0205078 -2.75879c0 -16.1924 6.9873 -48.9619 53.5596 -87.4795c49.1855 -40.6826 104.811 -45.168 150.924 -45.168c75.582 0 106.396 9.47168 151.623 45.2109c55.25 43.6562 56.1816 56.5117 57.7012 88.4209
l-1.54688 0.0244141c-0.09375 0.355469 -6.87988 28.0469 -9.28711 35.501l-39.4873 67.4766c-4.4502 4.64551 -4.4502 4.64551 -4.89844 5.41406h-0.292969c-13.8838 14.209 -42.9873 40.7988 -71.4033 46.6904c-5.4375 1.12793 -10.7627 1.63477 -15.8867 1.63477z
M424.383 588.857c4.24805 0 13.6895 0 24.4541 -7.4082l-0.0830078 -1.02734c0.621094 -0.253906 1.61719 -0.72168 2.58398 -1.64062c9.12109 -8.66699 23.1387 -12.7363 36.4473 -12.7363c12.3975 0 24.1797 3.53027 30.8125 10.1641
c1.29004 1.29102 3.375 3.37402 4.98438 8.22656c6.83496 4.66406 17.6924 9.75391 32.5107 9.75391c19.665 0 28.8584 -8.56445 35.9092 -15.1289c5.47852 -5.10254 12.6934 -11.8379 28.21 -22.1055c0.592773 -0.128906 1.0791 -0.414062 1.46973 -0.855469
l0.34082 0.0136719l44.376 -69.9941c0 -0.119141 -0.00292969 -0.239258 -0.00292969 -0.359375c3.18262 -11.9238 6.08887 -24.125 9.15332 -36.167c1.07129 -4.28027 1.67383 -8.24707 1.67383 -12.0879c0 -18.4277 -13.71 -33.3574 -53.2031 -65.6309
c-36.3926 -29.7363 -62.7461 -39.9375 -142.168 -39.9375c-42.9961 0 -77.6543 5.28223 -118.131 33.6152c-49.8955 34.9277 -56.6045 60.6494 -56.6045 83.5547c0 1.51074 0.0283203 2.99902 0.0703125 4.46387c2.49023 9.88086 5.19434 19.5469 7.76465 29.3457
l48.627 68.8457c0.69043 -0.265625 1.37891 -0.532227 2.06836 -0.796875c1.63867 3.85742 4.42773 10.4297 11.9961 17.998c12.1963 12.1963 30.248 19.8945 46.7402 19.8945zM30.3242 741.553h55.5146l17.1611 52.2256l17.1602 -52.2256h55.5156l-44.8672 -32.2959
l17.1611 -52.2246l-44.9697 32.2959l-44.9707 -32.2959l17.1611 52.2246zM746 631c0 -96.6865 78.0879 -230.199 109.375 -248.775l11.1992 -6.64941c-16.9434 -0.478516 1.18945 0.900391 -34.5742 -3.5752l-1.0752 1.36426
c-22.0068 27.9238 -104.004 167.01 -116.903 264.233c-0.657227 4.95117 0.0224609 9.79688 0.582031 18.2783c-1.38379 0.708984 -2.88672 1.4873 -4.52246 2.34082c-0.0283203 -1.83984 -0.322266 -3.81641 -0.0449219 -5.88867
c33.3789 -249.661 107.546 -273.742 107.546 -273.742s6.91211 -4.29004 10.2793 -6.58594h-32.8613c-44.1455 16.1279 -111.697 208.17 -111.697 279.331c0 8.73535 0.302734 15.3135 0.785156 20.6846c-60.6641 32.3369 -123.179 64.7012 -226.885 64.7012
c-23.0527 0 -45.5234 -2.04883 -73.3945 -6.17773c-32.3232 -4.78906 -32.3232 -4.78906 -70.6152 -21.2002c-18.916 -8.10645 -50.2139 -47.4062 -58.166 -66.7188c-7.02734 -17.0664 -9.0791 -30.2676 -9.0791 -45.8906c0 -22.332 3.62891 -44.376 3.62891 -77.1553
c0 -8.99219 1.14648 -13.8564 1.14648 -20.1924c0 -4.57031 -0.613281 -9.64551 -2.73242 -16.6025c-19.9492 -65.4795 -40.3174 -87.0479 -63.832 -110.183c-6.25977 -6.16016 -27.0508 -26.6172 -27.0508 -37.7881c0 -4.45605 0.882812 -6.9082 38.3447 -19.4531
c55.9199 -18.7266 60.0254 -24.4102 60.0254 -90.9766c0 -43.0117 -4.74121 -62.7734 -4.74121 -104.492c0 -5.5 0.0820312 -11.3867 0.267578 -17.7666c0.50293 -17.292 16.4512 -45.3398 23.8975 -57.5352c1.19629 -0.303711 1.95996 -1.18164 1.95996 -1.18164
c1.1543 -0.666992 2.48438 -1.60059 4.13477 -2.74414c16.0508 -11.1162 22.0049 -13.1846 40.8428 -13.1846c24.0361 0 22.3457 4.21484 79.0615 4.21484c0.316406 0 6.94531 -0.00390625 7.01562 -0.00390625c14.7988 0 25.668 0.226562 52.1025 3.80078
c20.2021 2.73242 38.8271 4.61523 56.5088 6.4043c120.938 12.2334 143.711 24.1475 222.178 80.1953c2.23438 1.5957 5.14355 3.85352 8.45703 6.42773c12.6104 9.7959 33.0303 26.8994 48.1416 26.8994c8.16699 0 13.834 -4.95996 13.834 -14.165
c0 -15.4473 -17.4082 -42.8486 -33.0938 -42.8486c-1.16406 0 -1.56543 0.129883 -3.01758 0.129883c-22.6426 0 -44.3604 -36.5264 -79.4766 -51.29c-52.8857 -22.2344 -80.2979 -27.1279 -117.459 -33.71c-17.2549 -3.05664 -36.6504 -6.49316 -61.8809 -12.2393
c-34.7246 -7.90918 -51.6299 -8.61133 -86.7539 -8.61133c-0.251953 0 -22.7891 0.03125 -25.0811 0.03125c-11.3115 0 -32.6182 -0.123047 -32.9473 -0.123047c-40.7773 0 -82.5049 2.86621 -120.91 24.8125c-26.0957 14.9121 -27.9092 36.1035 -30.0449 61.0586
c-0.477539 5.59082 -0.976562 11.3994 -1.75781 17.3906c-1.96484 15.7158 -2.63672 29.7119 -2.63672 42.8916c0 28.6572 3.1748 53.4248 3.1748 84.1699c0 46.4277 -4.59863 49 -29.7539 58.8145c-27.3184 10.6582 -57.2148 13.2568 -70.834 26.876
c-4.33008 4.33008 -6.66504 9.68945 -6.66504 16.1094c0 4.7959 1.30371 10.1846 4.05176 16.1768c36.4951 79.5967 68.6367 70.0742 91.3711 139.761c5.20312 15.9443 6.93652 32.2529 6.93652 48.6797c0 32.5635 -6.77832 65.1611 -6.77832 95.8125
c0 47.6494 17.2412 68.3838 35.0508 86.1934c66.2422 66.2412 143.674 66.3555 238.901 66.3555h0.988281c82.8154 0 132.135 -23.3467 188.021 -49.8477c43.5547 -20.6533 21.8506 -15.7109 32.4561 -16.8408c11.3984 -1.2168 39 -13 47.5039 -30.4053
c4.31641 -8.83496 -4.12305 -21.668 -4.50391 -29.5947c-0.257812 -5.36523 2 -14.3428 2 -20zM359.858 237.268l-0.979492 18.6221l273.774 1.30859l-0.543945 -19.9307h-272.251zM359.858 131.999l-1.63281 21.3076l273.774 -1.30664l0.109375 -20.001h-272.251z" />
  </g>

</svg>
