<?xml version="1.0" standalone="no"?>
<!DOCTYPE svg PUBLIC "-//W3C//DTD SVG 1.1//EN" "http://www.w3.org/Graphics/SVG/1.1/DTD/svg11.dtd" >
<svg xmlns="http://www.w3.org/2000/svg" xmlns:xlink="http://www.w3.org/1999/xlink" version="1.1" viewBox="-10 0 1008 1000">
  <g transform="matrix(1 0 0 -1 0 800)">
   <path fill="currentColor"
d="M30.3242 741.553h55.5146l17.1611 52.2256l17.1602 -52.2256h55.5156l-44.8672 -32.2959l17.1611 -52.2246l-44.9697 32.2959l-44.9707 -32.2959l17.1611 52.2246zM271 608l-12 60c128.725 89.7881 355.203 55.3633 442.457 48.5605
c0 -0.0107422 0.000976562 -0.0214844 0.000976562 -0.0322266c27.4463 0.582031 75.1855 -1.32129 107.268 -33.4033c40.1396 -40.1396 38.6152 -108.841 37.5254 -169.365c-0.395508 -21.9258 -0.433594 -33.2402 -0.22168 -41.9463
c26.3789 -43.8281 72.168 -89.959 89.3252 -129.607c6.95117 -16.0635 5.49219 -24.7637 2.64551 -40.2051l-12 -14l-79.501 -63.5771v-212.431c1.93945 -31.0869 1.82422 -79.2412 -27.416 -108.48c-26.0322 -26.0322 -182.507 -12.0195 -220.584 -13.0049
l-2.90137 0.0126953c-103.732 -7.2998 -296.108 50.6025 -326.603 92.1719c-18.5059 25.2275 -31.4014 41.2529 -57.9951 55.3086v70.0371c25.8174 -16.2627 49.624 -17.8066 70.1904 -60.6357c44.2188 -92.082 349.455 -105.734 451.309 -108.438l-0.499023 -0.962891
c50 12 34.1514 4.48145 42.5352 13.5361c19.1768 20.7119 3.97852 41.9688 5.50781 57.9648h-0.541992v2.14941c-0.253906 0.990234 -0.500977 1.94141 -0.738281 2.84863h0.738281v207.174v3.4873v1.33887h1.58203l104 88h1.13281
c4.9834 45.8955 -62.8379 92.1289 -94.2158 139.501l-3 4l-1 1c-2.02051 3.99219 0.0439453 4.02539 -2.08398 11.5605c-0.0371094 0.130859 -0.189453 0.24707 -0.174805 0.367188l0.258789 2.07227l0.0644531 1.49902
c0.00976562 0.226562 0.150391 3.89551 0.242188 6.24414c3.11426 79.1523 5.19727 173.389 -83.8154 173.771c-136.35 16.7461 -373.536 9.53418 -431.49 -46.5137zM389.343 179.62c46.9082 0.164062 93.8154 0.164062 140.723 0
c3.08691 0.0595703 6.1709 0.120117 9.25293 0.1875c11.3662 -0.175781 20.7402 5.19629 27.2549 16.623c5.86914 10.2949 8.87598 23.4717 7.62695 29.6191c-0.567383 2.8623 -4.89453 15.6914 -6.31055 21.3281c-5.37012 21.3184 -10.6289 42.6836 -15.7773 64.0898
c-3.05762 12.3203 -6.43164 24.498 -10.1123 36.5322c-3.83887 12.417 -8.45801 24.3418 -13.8545 35.7754c-4.75879 9.82812 -10.5059 18.6973 -17.2441 26.6094c-11.5244 12.8711 -25.042 20.1602 -40.5527 21.8691
c-10.584 1.27148 -20.9668 0.00878906 -31.1494 -3.79199c-9.32422 -3.79785 -17.6152 -9.7373 -24.8779 -17.8252c-6.58984 -7.5791 -12.2002 -16.1113 -16.8379 -25.5947c-4.20801 -8.62598 -7.91309 -17.6006 -11.123 -26.9277
c-3.19824 -9.33398 -6.09668 -18.8125 -8.69824 -28.4434c-1.94824 -7.26758 -3.83691 -14.5576 -5.66309 -21.8691c-3.67773 -15.2676 -7.38574 -30.5195 -11.124 -45.7627c-1.90234 -6.96094 -3.7207 -13.9561 -5.46094 -20.9834
c-1.01953 -4.30273 -1.93262 -8.64551 -2.73047 -13.0215c-2.14648 -15.5078 1.47949 -28.4648 10.8711 -38.8711c3.15332 -3.30078 6.69141 -5.78516 10.6182 -7.45996c2.15234 -0.763672 4.34473 -1.26855 6.57617 -1.51758
c2.87695 -0.28418 5.73926 -0.476562 8.59375 -0.56543v0zM389.343 192.387c-2.31055 0.0986328 -4.63867 0.246094 -6.97754 0.443359c-1.67676 0.158203 -3.32617 0.494141 -4.95508 1.00879c-2.89941 1.28516 -5.49316 3.18262 -7.78906 5.68848
c-6.18848 7.24512 -8.46387 16.0732 -6.82324 26.4844c0.867188 4.54688 1.84277 9.05566 2.93164 13.5254c1.99609 7.48242 3.95117 14.9844 5.86523 22.502c3.65918 15.1348 7.33301 30.2607 11.0244 45.3818c1.80664 7.19629 3.69336 14.3594 5.66211 21.4922
c3.52734 12.8516 7.70898 25.3672 12.541 37.541c3.60742 8.94727 7.92383 17.292 12.9414 25.0322c13.9287 20.7588 31.7793 30.1768 53.5498 28.251c14.7715 -1.01855 27.4805 -7.84766 38.1289 -20.4766c5.85645 -7.31934 10.8623 -15.4326 15.0166 -24.335
c4.59668 -10.0723 8.5752 -20.5215 11.9326 -31.3525c3.44824 -11.2441 6.61719 -22.6221 9.50684 -34.1309c3.80566 -15.4932 7.58301 -31.001 11.3252 -46.5166c1.41699 -5.5625 2.83203 -11.124 4.24805 -16.6885c1.55859 -6.3125 2.97461 -12.6738 4.24902 -19.0889
c0.628906 -2.98535 0.899414 -6.01758 0.80957 -9.09961c-0.935547 -9.69434 -4.72754 -17.0459 -11.3779 -22.0605c-2.15137 -1.625 -4.47656 -2.59668 -6.97949 -2.90723c-3.56152 -0.472656 -7.13281 -0.680664 -10.7197 -0.631836
c-48.0361 -0.0625 -96.0742 -0.0859375 -144.11 -0.0625v0zM255.666 498.81v-14.8096h408.334v14.8096h-408.334z" />
  </g>

</svg>
