<?xml version="1.0" standalone="no"?>
<!DOCTYPE svg PUBLIC "-//W3C//DTD SVG 1.1//EN" "http://www.w3.org/Graphics/SVG/1.1/DTD/svg11.dtd" >
<svg xmlns="http://www.w3.org/2000/svg" xmlns:xlink="http://www.w3.org/1999/xlink" version="1.1" viewBox="-10 0 1043 1000">
  <g transform="matrix(1 0 0 -1 0 800)">
   <path fill="currentColor"
d="M451.348 400.148l-0.00683594 -0.289062c0.00292969 0.0957031 0.00683594 0.192383 0.00683594 0.289062zM400.21 562.628l0.0712891 -0.0849609c-0.0234375 0.0283203 -0.0712891 0.0849609 -0.0712891 0.0849609zM328.964 556.075l0.0751953 0.113281
c-0.0126953 -0.0185547 -0.0253906 -0.0380859 -0.0751953 -0.113281zM282.897 405.504l0.0205078 0.133789c-0.00683594 -0.0449219 -0.0205078 -0.0898438 -0.0205078 -0.133789zM287.188 388.163l-0.0966797 0.104492
c0.0322266 -0.0341797 0.0644531 -0.0693359 0.0966797 -0.104492zM290.987 385.279l-0.473633 0.140625c0.158203 -0.0498047 0.316406 -0.0966797 0.473633 -0.140625zM293.32 384.846l-0.100586 0.00878906c0.0185547 0 0.0371094 -0.00878906 0.100586 -0.00878906z
M370.9 578.502c-38.7656 3.5127 -54.7041 -38.2949 -69.7002 -97.9023c-11.541 -47.5156 -11.541 -47.5156 -15.7188 -63.1816l0.0224609 0.0917969c-0.0078125 -0.0302734 -0.0224609 -0.0917969 -0.0224609 -0.0917969
c-2.94727 -12.1318 -5.38867 -22.1748 2.09961 -29.6631c2.75 -2.75 3.75977 -2.9375 11.5801 -3.28027c138.845 0.0595703 138.845 0.0595703 142.69 0.569336c3.31934 0.414062 11.6738 8.1416 8.90137 21.3066c-0.21582 1.08691 -17.252 75.4473 -27.0664 107.448
c-17.2285 55.5557 -37.7539 63.6631 -52.7861 64.7031zM438.526 355.274c-10.7891 -0.220703 -138.439 -0.21582 -139.838 -0.169922c-8.43848 0.271484 -20.1719 0.649414 -30.2061 11.7637c-2.93066 3.24707 -16.5576 19.8525 -12.2188 43.6025
c1.59961 8.75488 3.74902 17.5723 7.75488 32.249c17.1611 70.5986 21.8125 89.7354 34.666 116.074c10.5146 21.5117 33.7051 53.9033 76.6543 48.7686c50.9551 -5.64844 69.9502 -64.165 83.5605 -119c4.7832 -19.8828 9.66797 -39.7285 14.6777 -59.627
c4.38965 -18.2842 8.6377 -35.9795 -2.23633 -53.9707c-5.40918 -8.94727 -15.5586 -19.8799 -32.8145 -19.6904zM734.148 142.548l-0.0078125 -0.289062c0.00292969 0.0966797 0.0078125 0.193359 0.0078125 0.289062zM683.011 305.027l0.0703125 -0.0839844
c-0.0224609 0.0283203 -0.0703125 0.0839844 -0.0703125 0.0839844zM611.765 298.476l0.0742188 0.112305c-0.0126953 -0.0185547 -0.0244141 -0.0371094 -0.0742188 -0.112305zM565.697 147.903l0.0205078 0.133789
c-0.00683594 -0.0449219 -0.0205078 -0.0888672 -0.0205078 -0.133789zM569.987 130.563l-0.0966797 0.104492c0.0322266 -0.0351562 0.0644531 -0.0693359 0.0966797 -0.104492zM573.787 127.68l-0.473633 0.140625
c0.158203 -0.0498047 0.316406 -0.0976562 0.473633 -0.140625zM576.12 127.245l-0.100586 0.00976562c0.0185547 0 0.0371094 -0.00976562 0.100586 -0.00976562zM653.7 320.902c-38.7656 3.51172 -54.7041 -38.2949 -69.7002 -97.9023
c-11.541 -47.5156 -11.541 -47.5156 -15.7188 -63.1816l0.0224609 0.0917969c-0.00683594 -0.03125 -0.0224609 -0.0917969 -0.0224609 -0.0917969c-2.94727 -12.1318 -5.38867 -22.1758 2.10059 -29.6641c2.74902 -2.75 3.75977 -2.9375 11.5801 -3.28027
c138.844 0.0605469 138.844 0.0605469 142.689 0.570312c3.31934 0.413086 11.6738 8.1416 8.90137 21.3057c-0.21582 1.08789 -17.252 75.4482 -27.0664 107.448c-17.2275 55.5557 -37.7539 63.6641 -52.7861 64.7041zM721.326 97.6748
c-10.7891 -0.22168 -138.439 -0.21582 -139.838 -0.170898c-8.43848 0.271484 -20.1719 0.649414 -30.2061 11.7646c-2.93066 3.24707 -16.5566 19.8525 -12.2188 43.6025c1.59961 8.75391 3.74902 17.5723 7.75488 32.249c17.1611 70.5986 21.8135 89.7354 34.666 116.074
c10.5146 21.5107 33.7051 53.9033 76.6543 48.7676c50.9561 -5.64746 69.9502 -64.165 83.5605 -119c4.7832 -19.8828 9.66797 -39.7275 14.6777 -59.627c4.38965 -18.2842 8.6377 -35.9785 -2.23633 -53.9697c-5.40918 -8.94824 -15.5586 -19.8799 -32.8145 -19.6904z
M853.909 469.226zM640.995 492.63c2.24023 0 4.47949 -0.854492 6.1875 -2.56152l14.7002 -14.7002c1.70703 -1.70801 2.56152 -3.94727 2.56152 -6.1875c0 -1.97656 2.93457 6.9082 1.61719 5.28613c-210.792 -259.26 -198.47 -241.129 -233.191 -283.646
c-1.52734 -1.87012 -7.56055 -13.4141 -9.80078 -13.4141c-2.23926 0 -4.47949 0.854492 -6.18652 2.56152l-14.7002 14.7002c-1.70801 1.70801 -2.56152 3.94727 -2.56152 6.1875c0 1.97656 0.655273 3.96289 1.99609 5.56543
c239.378 286.209 190.028 227.408 233.191 283.647c1.46973 1.91504 3.94629 2.56152 6.18652 2.56152zM1425 486zM514.5 749.326c0.230469 0 0.605469 0.000976563 0.836914 0.000976563c230.002 0 417.414 -186.668 418.33 -416.668
c-0.00488281 -229.996 -186.671 -416.659 -416.667 -416.659c-230 0 -416.667 186.667 -416.667 416.667c0 228.624 185.547 415.287 414.167 416.659zM514.5 -56.2295c0.231445 -0.000976562 0.605469 -0.000976562 0.836914 -0.000976562
c214.669 0 389.637 174.223 390.552 388.89c-0.00390625 214.662 -174.227 388.881 -388.889 388.881c-214.667 0 -388.889 -174.223 -388.889 -388.889c0 -213.291 173.102 -387.51 386.389 -388.881z" />
  </g>

</svg>
