<?xml version="1.0" standalone="no"?>
<!DOCTYPE svg PUBLIC "-//W3C//DTD SVG 1.1//EN" "http://www.w3.org/Graphics/SVG/1.1/DTD/svg11.dtd" >
<svg xmlns="http://www.w3.org/2000/svg" xmlns:xlink="http://www.w3.org/1999/xlink" version="1.1" viewBox="-10 0 1006 1000">
  <g transform="matrix(1 0 0 -1 0 800)">
   <path fill="currentColor"
d="M363.872 737.203l121.72 -220.351l119.568 220.578l-39.6796 16.0682l-79.5082 -151.277l-87.1719 149.738zM356.853 93.5176zM357.136 96.8555zM454.504 -14.5635c-19.9663 0 -38.0903 6.49678 -53.5688 21.9752c-16.8157 16.8157 -21.4829 35.7122 -21.4829 50.7047
c0 14.3494 4.12461 25.5078 5.09343 26.9401l17.4124 25.7423c7.96977 5.14644 15.7024 10.5301 23.8194 15.5292c8.2641 3.49912 18.3847 5.83606 29.3771 5.83606c15.739 0 35.307 -4.71522 53.1134 -22.5216c15.7403 -15.7403 21.1727 -33.293 21.233 -50.5722
c0 -12.9398 -2.63654 -32.5086 -21.2666 -51.1377c-8.86349 -8.86349 -25.2789 -22.4961 -53.7305 -22.4961zM314.917 -48.4404v-30.3311h3.06661c157.423 0 238.955 0.471812 317.698 72.9512c37.5823 34.4972 67.8916 102.336 67.8916 154.488
c0 57.5837 -34.2515 123.743 -70.0742 155.172c-79.4223 69.9037 -166.969 70.4912 -310.862 70.4912h-3.63696v-30.3311c145.114 0 223.624 0 294.309 -62.9092c1.75466 -1.54256 3.45051 -3.13981 5.15615 -4.84545c30.2549 -30.2549 54.4811 -85.8861 54.4811 -126.617
c0 -44.3593 -25.8221 -100.893 -54.7257 -129.797c-29.5125 -29.5125 -64.5839 -43.7751 -77.1047 -48.2683l-29.7538 -10.6774l21.7755 22.9006c25.4682 26.7841 29.5229 57.9149 29.5229 74.986c0 28.6344 -10.3511 53.4614 -30.7715 73.8828
c-27.1525 27.1518 -57.5844 32.1285 -76.6383 32.1285c-2.18308 0 -10.9879 -0.103202 -18.1497 -1.70914c-1.67673 -0.375984 -3.42028 -0.749809 -6.16123 -1.07168c-6.12381 -0.72067 -8.19296 -2.66669 -17.3525 -5.53027
c-15.7129 -4.91174 -37.3394 -20.439 -44.624 -32.5801c-2.44653 -4.07754 -5.93754 -4.37308 -8.6377 -11.2529c-1.1394 -2.90584 -6.83037 -12.3355 -7.34682 -15.684c-0.029297 -0.268882 -0.029297 -0.268882 -0.00217742 -1.7171
c-4.83294 -13.4476 -6.70626 -25.2824 -6.70626 -37.4543c0 -34.1583 15.6182 -58.0004 30.9896 -73.3717c9.53237 -9.53237 10.328 -10.328 44.3189 -31.0772c-86.3604 -1.77577 -86.3604 -1.77577 -106.661 -1.77577z" />
  </g>

</svg>
