<?xml version="1.0" standalone="no"?>
<!DOCTYPE svg PUBLIC "-//W3C//DTD SVG 1.1//EN" "http://www.w3.org/Graphics/SVG/1.1/DTD/svg11.dtd" >
<svg xmlns="http://www.w3.org/2000/svg" xmlns:xlink="http://www.w3.org/1999/xlink" version="1.1" viewBox="-10 0 1113 1000">
  <g transform="matrix(1 0 0 -1 0 800)">
   <path fill="currentColor"
d="M787.306 709.066c47.5894 0 119.171 -23.4369 156.765 -60.213c38.2365 -37.4047 61.115 -107.437 61.115 -153.251c0 -4.74017 -0.265716 -10.7697 -0.355817 -12.8356c0 -0.0576942 -0.00710897 -0.112125 -0.00710897 -0.163107
c0 -0.0785202 -0.0073966 -0.144524 -0.0073966 -0.195526c-0.117896 -65.5989 -32.1544 -141.819 -113.419 -220.606c-303.831 -294.57 -319.099 -307.242 -322.263 -310.406c-1.75841 -1.75841 -1.75841 -1.75841 -11.6892 -5.93013
c-8.7527 3.85616 -9.30325 4.09871 -11.7616 6.73801c-27.976 30.079 -317.038 305.209 -327.996 316.171c-34.7626 34.7626 -63.9366 80.1421 -68.5462 88.0685c-9.00496 15.5979 -20.6588 42.0435 -26.0993 59.2077c-8.29998 26.1915 -11.7557 52.0876 -11.9078 80.6335
v0.879328c6.08708 17.4561 14.4518 55.9661 29.9778 96.2102c3.07488 7.96878 16.292 42.2183 30.5111 55.028c37.1965 33.5125 107.284 60.5894 157.176 60.5894c23.1742 0 46.3578 -3.3359 72.9232 -12.1029c44.0806 -14.5487 97.7915 -50.0475 147.495 -99.7514
c4.71126 -4.71126 7.05251 -6.82904 8.08864 -7.71655c2.4418 2.12828 9.07053 8.65196 18.4016 17.9833c9.50951 9.50951 70.3493 68.8827 137.703 91.0781c29.6172 10.0849 64.6061 10.5836 73.8964 10.5836zM1036.33 494.489v0.541992
c0 64.9633 -37.9066 144.351 -72.0214 178.466c-22.2926 22.2945 -105.277 68.2069 -177.809 68.2069c-43.3572 0 -74.6583 -9.65668 -85.2166 -13.4272c-19.3184 -6.4748 -48.4652 -20.6102 -65.5782 -31.8246c-30.3882 -20.4247 -48.0828 -32.9274 -79.8626 -61.4427
c-101.162 90.507 -162.796 105.418 -229.13 105.418c-66.8094 0 -149.969 -40.302 -180.368 -70.7005c-22.1888 -22.1888 -67.8852 -102.245 -67.8852 -173.613c0 -44.3752 6.76937 -74.0665 12.2164 -90.9249c6.05625 -19.0844 19.0098 -48.4074 29.0408 -65.7458
c2.91865 -5.04658 9.88974 -14.5334 32.6043 -44.8471l0.305005 -2.52934c6.79812 -11.6526 33.9245 -40.3103 47.9643 -53.907l322.448 -312.251c2.87449 -2.78659 15.5381 -14.2804 33.0706 -14.2804c9.95352 0 21.9296 3.54884 35.4948 15.2776
c2.60806 2.25604 25.5272 22.0737 321.152 310.742c123.491 120.584 123.573 212.876 123.573 256.275c0 0.189495 -4.98e-06 0.378084 -4.98e-06 0.565768zM149.692 290.571l-6.76399 -1.26426c0.497504 -0.776878 0.843824 -1.70494 1.45166 -2.37149zM635.134 697.076
l0.432234 -0.710832c0.0314906 0.019942 -0.432234 0.710832 -0.432234 0.710832z" />
  </g>

</svg>
