<?xml version="1.0" standalone="no"?>
<!DOCTYPE svg PUBLIC "-//W3C//DTD SVG 1.1//EN" "http://www.w3.org/Graphics/SVG/1.1/DTD/svg11.dtd" >
<svg xmlns="http://www.w3.org/2000/svg" xmlns:xlink="http://www.w3.org/1999/xlink" version="1.1" viewBox="-10 0 1050 1000">
  <g transform="matrix(1 0 0 -1 0 800)">
   <path fill="currentColor"
d="M348.481 97.6934l-82.2217 148.848l24.0225 10.1475l58.4395 -100.383l53.3027 101.418l27.2285 -11.0254zM265.568 -67.707v34.6641h38.626v22.0713h-38.626v34.6641h38.626v33.7148h31.3828v-33.7148h23.2197v31.2539h31.3828v-31.2539h41.292v-34.6641h-41.292
v-22.0713h41.292v-34.6641h-41.292v-36.1855h-31.3828v36.1855h-23.2197v-33.7246h-31.3828v33.7246h-38.626zM335.577 -33.043h23.2197v22.0713h-23.2197v-22.0713zM780.659 223.904c-0.529297 0 -0.985352 0.173828 -1.32227 0.358398l-214.094 -88.2627v-37.8242
c12.126 5.10742 24.251 10.2148 36.376 15.3213v-3.77051l-0.21875 -161.659h318.305l0.646484 155.446c10.9619 -6.48535 21.9238 -12.9697 32.8867 -19.4551l-0.677734 40.7051l-136.33 79.1182l1.46387 0.616211c-22.6963 11.7715 -24.457 12.7314 -36.2109 19.5508
c-0.288086 -0.102539 -0.56543 -0.144531 -0.824219 -0.144531zM884.594 -16.7148h-248.003l-0.665039 144.662l142.009 59.8174l107.859 -63.8086zM63.3545 -23.4795h55.5146l17.1611 52.2256l17.1602 -52.2256h55.5156l-44.8672 -32.2959l17.1611 -52.2246
l-44.9697 32.2959l-44.9707 -32.2959l17.1611 52.2246zM376.737 428.085c-7.8877 0 -7.8877 0 -52.2607 0.407227l0.0576172 0.311523h-3.11426l2.76758 169.249l-61.335 33.7061v9.72949l57.71 -32.9414c3.22363 -0.0078125 6.59668 0.00292969 10.2061 0.0214844
l-39.7568 74.7832h11.293l39.7188 -74.708l1.66406 0.0117188l0.637695 102.491h12.9727l-0.638672 -102.425c1.26562 0 2.5293 0.000976562 3.79395 0.000976562l43.0098 81.6572h11.29l-42.5957 -80.8682l52.8682 21.25v-9.91016
c-14.3408 -6.33984 -28.6611 -12.6992 -43.0137 -19.0273l-7.93066 -1.88867l1.3877 -46.2402l11.4062 6.62988l2.49023 -16.1914l-13.3652 -8.13379l3.29199 -109.645c-0.851562 0.577148 -1.70312 1.15332 -2.55469 1.72949zM364.115 440.42l-3.96582 158.592h-2.04785
l2.37891 -158.592h3.63477zM342.084 440.804v158.658l-2.36523 0.27832l-0.791992 -159.259zM912 505.101l-270 0.899414v17.8164h242.083v101.167h-242.083v17.8164l267.6 -1.5z" />
  </g>

</svg>
