<?xml version="1.0" standalone="no"?>
<!DOCTYPE svg PUBLIC "-//W3C//DTD SVG 1.1//EN" "http://www.w3.org/Graphics/SVG/1.1/DTD/svg11.dtd" >
<svg xmlns="http://www.w3.org/2000/svg" xmlns:xlink="http://www.w3.org/1999/xlink" version="1.1" viewBox="-10 0 1001 1000">
  <g transform="matrix(1 0 0 -1 0 800)">
   <path fill="currentColor"
d="M304.494 33.8096c0 0 -0.299805 1.23438 0.458008 1h0.541992zM306.488 249.576c-5.70215 -0.307617 2.30469 0.231445 -4.71973 0.231445c2.18555 2.60645 2.95215 3.51953 4.11816 5.36914zM280.178 463.592l-0.0703125 -0.139648
c0.0244141 0.046875 0.0703125 0.09375 0.0703125 0.139648zM382.5 679.822l-0.119141 -0.0078125c0.0195312 0 0.0390625 0.0078125 0.119141 0.0078125zM303.957 33.7139h-0.000976562c1.48926 -15.5811 -15.6855 -37.1172 1.23438 -60.3027
c2.89551 -3.96777 3.69922 -6.30859 4.2959 -8.00977c1.50195 -4.28809 1.50195 -4.28809 19.7227 -8.63281c4.97656 -1.1875 11.3506 -2.70703 19.5479 -4.73926c91.2168 -7.69141 299.802 -1.93457 355.178 53.4404c4.64062 4.6416 17.3262 20.582 29.6055 36.1309
c21.0596 26.668 41.5264 52.5811 59.459 64.5938v-67.5938c-26.3828 -14.1807 -33.54 -35.667 -57.623 -55.1309c-38.4785 -31.0986 -94.8203 -74.2793 -186.979 -72.9502c-40.1572 0.579102 -40.1641 -0.182617 -41.1191 -0.193359
c-74.791 -0.886719 -220.227 -2.23047 -240.659 18.2012c-28.8486 28.8486 -28.4229 76.6113 -27.124 107.732l9.53027 228.322l-89.3916 48.5176l-11.7041 13.6553c-2.81641 15.2832 -4.19531 23.5918 2.62891 39.3613c17.0566 39.415 55.748 62.6963 82.1855 106.621
c0.658203 1.09473 -0.0439453 40.5283 -0.0791016 42.4805c-1.08984 60.5195 4.60352 151.8 44.3115 191.509c31.7393 31.7383 79.1318 33.6924 106.539 33.1104c0.0253906 0 0.375977 0.0273438 0.953125 0.0732422c0 0.0078125 0.00390625 0.0195312 0.00390625 0.0332031
c0.0214844 0 0.0429688 0.000976563 0.0644531 0.000976563c-0.0126953 -0.0136719 -0.0234375 -0.0234375 -0.0322266 -0.03125c3.25781 0.261719 13.4385 1.1123 13.5615 1.12305c85.2715 6.9707 193.8 11.9893 315.257 -72.7295
c18.2812 -11.752 48.54 -27.1582 22.04 -33.6455l-10.4697 2.17676c0.56543 -4.76367 1.14062 -9.57227 1.72559 -14.418c-3.29492 -3.375 -7.23047 -6.35449 -11.3799 -8.83887c-2.10645 10.1543 -4.56641 19.999 -7.50391 29.4189h-23.1211
c2.0625 -6.20996 3.90234 -12.666 5.55566 -19.3242c-64.3984 46.9736 -183.55 71.3848 -307.729 56.1465c-118.337 -0.577148 -100.527 -202.459 -100.212 -204.717c-1.92578 -3.63867 0.186523 -9.27637 -2.93555 -12.3984
c-8.4834 -9.77637 -2.84082 -9.08496 -40.2861 -47.7754c-26.4775 -27.3584 -44.4092 -46.873 -41.125 -77.124h1.67969c25.248 -20.0713 80.5254 -35.9766 101.444 -56.2275l3.50293 -243.772h0.431641c-0.148438 -0.573242 -0.297852 -1.14648 -0.446289 -1.7207
c0 -3.53711 -0.841797 0.811523 -0.537109 -2.37305zM384.473 739.943c-0.286133 -0.00585938 -0.571289 -0.0488281 -0.856445 -0.0712891c1.58691 1.7168 0.912109 0.34668 0.856445 0.0712891zM303.31 279.172l-0.31543 2.93555l-1.99414 -0.12207
c0 -0.186523 0 -0.186523 2.30957 -2.81348zM303.31 279.172c6.40234 -7.28613 8.16309 -15.1387 2.57715 -23.9951zM793 106.194v1.84277l1.53223 -0.84668c-0.507812 -0.320312 -1.01855 -0.652344 -1.53223 -0.996094zM793 38.6006
c0.176758 0.0947266 0.354492 0.189453 0.532227 0.283203zM282.229 475.105c0.0527344 0.0986328 0.100586 0.154297 0.120117 0.182617c0 0 -0.120117 -0.125 -0.120117 -0.182617zM304.94 37.8076l0.324219 1.25195l0.967773 -1.25195h-1.29199zM707.214 609.486
c2.68848 1.14941 5.39941 2.52246 8.02539 4.09473c19.4395 -93.7012 8.76465 -213.769 64.5156 -269.519c6.12891 -6.12891 13.6035 -13.6035 36.2295 -23.0635c-8.74121 0.0263672 -17.585 -0.0517578 -26.2617 0.0390625
c-95.5869 27.4453 -72.2461 192.693 -99.5527 302.637c6.20508 -4.52441 11.9004 -9.25977 17.0439 -14.1895v0.000976563zM707.214 609.486l-0.603516 -0.254883c0.201172 0.0839844 0.402344 0.168945 0.603516 0.254883zM726.619 622.42
c4.58105 4.69141 19.3809 9.58008 8.88086 16.0928l10.3633 1.63574c15.9238 -126.497 38.2812 -285.146 98.3809 -300.179l4.7627 -1.19141c-8.0791 -1.2207 -16.2031 -2.66895 -24.2549 -3.74707c-60.9346 15.5029 -83.1553 163.48 -98.1328 287.389zM388.425 98.6514
c-0.131836 0 -0.713867 0.248047 -0.713867 0.795898c0 0.0849609 0.0117188 0.168945 0.0322266 0.246094c-0.327148 6.38867 -0.655273 12.7783 -0.982422 19.167l235.415 24.1455c-2.27344 0.21582 -4.35938 0.415039 -4.38281 0.418945
c-24.2852 4.13379 -33.2842 15.5596 -33.2842 39.5127c0 53.9834 45.3896 143.835 54.5635 191.851c0.421875 2.21094 3.32227 3.85254 3.32227 5.50586c0 0.115234 0.597656 1.54102 0.480469 2.40039l0.959961 -0.959961
c0.0234375 -0.765625 0.59082 -1.2832 0.615234 -2.04785v0c10.8633 -52.2637 51.9326 -121.555 51.9326 -171.263c0 -16.3389 -4.84863 -28.4551 -12.2285 -43.3896c-1.70312 -3.44824 -3.79785 -7.68652 -6.54883 -13.5273
c-0.224609 -0.477539 -2.21094 -2.58691 -11.5586 -10.6084l-6.47168 2.69727l-0.728516 2.18555c0.191406 0.181641 12.9932 12.9014 13.6895 22.4893c0.335938 4.62305 0.494141 9.05566 0.494141 13.3086c0 43.0322 -16.1943 67.7002 -28.4121 86.334
c-3.86035 5.88965 -7.33398 11.1787 -9.77148 16.2783c-10.4932 -32.8936 -33.7324 -66.8203 -33.7324 -99.2568c0 -16.0684 8.92773 -28.6074 9.12012 -28.7998c4.56445 -4.56543 7.61621 -7.75293 18.4805 -10.9834v-1.47559l0.671875 0.0693359
c2.3584 5.75391 8.08984 11.2139 14.8809 11.2139c10.1846 0 15.1777 -8.95703 15.1777 -16.1699c0 -7.49023 -5.7793 -16.0146 -13.2109 -16.0146c-3.44629 0 -7.46973 1.63867 -10.8379 4.14258c-49.2246 -7.6084 -167.756 -21.0068 -242.912 -27.8281
c-2.0752 -0.1875 -3.40234 -0.300781 -3.86719 -0.327148c0 0 -0.0498047 -0.110352 -0.192383 -0.110352zM58.3545 736.521h55.5146l17.1611 52.2256l17.1602 -52.2256h55.5156l-44.8672 -32.2959l17.1611 -52.2246l-44.9697 32.2959l-44.9707 -32.2959l17.1611 52.2246z
M58.3545 736.521h55.5146l17.1611 52.2256l17.1602 -52.2256h55.5156l-44.8672 -32.2959l17.1611 -52.2246l-44.9697 32.2959l-44.9707 -32.2959l17.1611 52.2246z" />
  </g>

</svg>
