<?xml version="1.0" standalone="no"?>
<!DOCTYPE svg PUBLIC "-//W3C//DTD SVG 1.1//EN" "http://www.w3.org/Graphics/SVG/1.1/DTD/svg11.dtd" >
<svg xmlns="http://www.w3.org/2000/svg" xmlns:xlink="http://www.w3.org/1999/xlink" version="1.1" viewBox="-10 0 1051 1000">
  <g transform="matrix(1 0 0 -1 0 800)">
   <path fill="currentColor"
d="M828.399 483.872c0 9.49878 0.360099 25.4826 0.360099 28.905l-0.318652 61.3747l-8.69455 54.78l-24.0577 41.7601l-29.8355 19.1251l-33.9409 8.02542l-47.9505 1.85133v0.765382l-107.704 8.96128l-161.614 -4.8437l-135.511 -48.0118l4.97421 -24.8711
l90.1513 34.2037l168.519 13.9909l163.859 -8.05849l72.0585 -32.0852l24.6852 -76.5829c-12.0195 -98.6551 -12.0195 -98.6551 -8.64097 -103.175l30.4464 -40.7334l38.0432 -60.0682l23.93 -33.502l-96.7113 -80.2498l-3.19974 -219.288
c0.962733 -7.56244 2.78458 -22.0112 5.01798 -45.877c-15.8013 -33.078 -15.8013 -33.078 -21.7795 -38.1459c-28.726 -6.87192 -37.6748 -9.01268 -53.7943 -9.01268c-3.38415 0 -6.77838 0.14333 -10.1737 0.446144l-127.95 -3.2205l-189.706 31.9736l-119.91 72.0259
l-21.8729 31.5454c-0.18608 0.126152 -14.9542 10.3475 -18.5829 12.6523v-31.4635c5.41685 -3.87145 13.5068 -7.36272 24.4398 -17.2503c0.324316 -0.293306 6.03353 -5.56267 27.8246 -33.7326l70.2643 -41.1391l123.979 -35.7692l40.8353 -3.74581
c52.8258 -4.90757 59.0669 -6.73248 83.0467 -7.42728l68.08 -1.97257l89.7606 0.254271l51.1066 12.4914l15.1376 25.2075l6.27671 34.16l-0.268638 82.9487l0.0291888 84.2282l-0.00582149 87.5189l84.7837 67.8016l7.68593 8.96692
c1.77472 11.4559 1.98289 12.7996 -2.19749 25.3734l-23.3304 38.8443c-23.3118 29.9188 -45.6511 60.8101 -67.3422 92.3496c-0.202711 16.1296 -0.202711 16.1296 -0.202711 17.6951zM33.2949 712.521h55.5146l17.1611 52.2256l17.1602 -52.2256h55.5156
l-44.8672 -32.2959l17.1611 -52.2246l-44.9697 32.2959l-44.9707 -32.2959l17.1611 52.2246zM414.907 216.648c0 8.05167 44.3197 32.9259 73.4736 54.959h17.4902c2.79688 0 5.11816 0.00585938 7.06445 0.00585938c8.05762 0 9.70117 -0.0966797 12.042 -1.08594
c0.000976563 0 0.194336 -0.0732422 0.194336 -0.0732422c1.43555 -0.529297 8.62109 -2.96191 17.582 -2.96191h0.90625c5.92773 0 9.16406 0.529297 17.0752 4.11523h32.4326c0.757812 -0.519531 62.5908 -43.0049 75.4209 -52.6191
c-0.262095 -0.395843 -24.7534 -39.2501 -25.5293 -40.0264c-2.19824 -2.19727 -4.66113 -2.22852 -5.12402 -2.22852c-1.73535 0 -12.5908 3.05859 -30.1973 8.13184c9.96777 -109.848 9.96777 -109.848 9.96777 -110.064v-8.20508h-156.578
c0.959961 12.4619 0.959961 12.4619 1.74219 26.9619c0.000976562 0 1.56641 28.0137 1.56641 28.0137l1.57422 27.5225c0 0.00390625 1.37695 24.6094 2.03223 36.3281c-20.0312 -9.87402 -20.2432 -9.96094 -22.3398 -9.96094
c-1.23926 0 -3.7168 0.325195 -5.59375 2.65234c-0.289745 0.357853 -25.2021 34.5776 -25.2021 38.5352zM448.79 194.309c27.5082 13.4141 27.5082 13.4141 29.2744 13.3799c4.05273 0 7.28809 -3.06836 7.28809 -8.05664c0 -0.180664 -0.579102 -9.50879 -1.0498 -18.1055
l-5.56738 -98.4287c10.1016 -0.0546875 29.4053 -0.0800781 50.042 -0.0800781l71.7393 0.146484c-0.0986328 1.13281 -10.248 111.982 -10.248 113.283c0 3.98047 2.20215 6.77051 5.17383 7.68457v1.13086c7.88268 -2.01446 38.0272 -10.5846 38.4121 -10.6885
l12.5 20.2227c-0.580477 0.402455 -47.3757 32.8614 -58.0439 40.251c-1.54102 0.0537109 -5.05469 0.137695 -11.709 0.137695c-4.09082 0 -8.18262 0.00195312 -12.2725 0.00195312c-5.63574 -2.14453 -11.168 -4.06348 -20.8174 -4.06348
c-6.06836 0 -11.9004 0.0976562 -24.5938 4.06348h-12.96c-6.19238 0 -10.3662 -0.0849609 -12.3057 -0.15332c-7.64062 -5.18066 -47.6123 -32.8203 -58.8398 -40.5957c3.05078 -4.36523 7.17383 -10.3154 13.9775 -20.1299zM613.23 518.512l37.6172 -24.4941
l22.7441 30.6172l10.498 1.75l-33.2422 -42.8652l-38.4912 23.6201zM383.158 485.27l34.9912 37.6152l33.2441 -36.7402l-12.2471 0.875l-20.9971 25.3701l-25.3682 -26.2451zM419.899 494.018c0 -59.1953 49.8643 -107.018 111.101 -107.018
c61.2354 0 111.1 47.8223 111.1 107.018s-49.8643 107.018 -111.1 107.018c-61.2363 0 -111.101 -47.8223 -111.101 -107.018zM411.152 494.018c0 64.1523 53.6543 116.348 119.848 116.348s119.848 -52.1953 119.848 -116.348s-53.6543 -116.348 -119.848 -116.348
s-119.848 52.1953 -119.848 116.348z" />
  </g>

</svg>
