<?xml version="1.0" standalone="no"?>
<!DOCTYPE svg PUBLIC "-//W3C//DTD SVG 1.1//EN" "http://www.w3.org/Graphics/SVG/1.1/DTD/svg11.dtd" >
<svg xmlns="http://www.w3.org/2000/svg" xmlns:xlink="http://www.w3.org/1999/xlink" version="1.1" viewBox="-10 0 1002 1000">
  <g transform="matrix(1 0 0 -1 0 800)">
   <path fill="currentColor"
d="M30.3242 741.553h55.5146l17.1611 52.2256l17.1602 -52.2256h55.5156l-44.8672 -32.2959l17.1611 -52.2246l-44.9697 32.2959l-44.9707 -32.2959l17.1611 52.2246zM271 608l-12 60c128.725 89.7881 355.203 55.3633 442.457 48.5605
c0 -0.0107422 0.000976562 -0.0214844 0.000976562 -0.0322266c27.4463 0.582031 75.1855 -1.32129 107.268 -33.4033c40.1396 -40.1396 38.6152 -108.841 37.5254 -169.365c-0.395508 -21.9258 -0.433594 -33.2402 -0.22168 -41.9463
c26.3789 -43.8281 72.168 -89.959 89.3252 -129.607c6.95117 -16.0635 5.49219 -24.7637 2.64551 -40.2051l-12 -14l-79.501 -63.5771v-212.431c1.93945 -31.0869 1.82422 -79.2412 -27.416 -108.48c-26.0322 -26.0322 -182.507 -12.0195 -220.584 -13.0049
l-2.90137 0.0126953c-103.732 -7.2998 -296.108 50.6025 -326.603 92.1719c-18.5059 25.2275 -31.4014 41.2529 -57.9951 55.3086v70.0371c25.8174 -16.2627 49.624 -17.8066 70.1904 -60.6357c44.2188 -92.082 349.455 -105.734 451.309 -108.438l-0.499023 -0.962891
c50 12 34.1514 4.48145 42.5352 13.5361c19.1768 20.7119 3.97852 41.9688 5.50781 57.9648h-0.541992v2.14941c-0.253906 0.990234 -0.500977 1.94141 -0.738281 2.84863h0.738281v207.174v3.4873v1.33887h1.58203l104 88h1.13281
c4.9834 45.8955 -62.8379 92.1289 -94.2158 139.501l-3 4l-1 1c-2.02051 3.99219 0.0439453 4.02539 -2.08398 11.5605c-0.0371094 0.130859 -0.189453 0.24707 -0.174805 0.367188l0.258789 2.07227l0.0644531 1.49902
c0.00976562 0.226562 0.150391 3.89551 0.242188 6.24414c3.11426 79.1523 5.19727 173.389 -83.8154 173.771c-136.35 16.7461 -373.536 9.53418 -431.49 -46.5137zM619.129 447.177l-0.00683594 -0.248047c0.00292969 0.0830078 0.00683594 0.166016 0.00683594 0.248047z
M575.297 586.445l0.0605469 -0.0722656c-0.0195312 0.0234375 -0.0605469 0.0722656 -0.0605469 0.0722656zM514.229 580.829l0.0634766 0.0966797c-0.0107422 -0.0166016 -0.0205078 -0.0322266 -0.0634766 -0.0966797zM474.742 451.768l0.0175781 0.114258
c-0.00585938 -0.0380859 -0.0175781 -0.0761719 -0.0175781 -0.114258zM478.419 436.904l-0.0820312 0.0898438c0.0273438 -0.0302734 0.0546875 -0.0595703 0.0820312 -0.0898438zM481.677 434.433l-0.40625 0.120117
c0.135742 -0.0429688 0.271484 -0.0830078 0.40625 -0.120117zM483.677 434.061l-0.0869141 0.0078125c0.0166016 0 0.0322266 -0.0078125 0.0869141 -0.0078125zM550.174 600.052c-33.2275 3.01074 -46.8896 -32.8242 -59.7432 -83.916
c-9.89258 -40.7275 -9.89258 -40.7275 -13.4736 -54.1562l0.0195312 0.0791016c-0.00585938 -0.0263672 -0.0195312 -0.0791016 -0.0195312 -0.0791016c-2.52637 -10.3984 -4.61816 -19.0068 1.80078 -25.4258c2.35645 -2.35742 3.22266 -2.51758 9.92578 -2.81152
c119.009 0.0517578 119.009 0.0517578 122.306 0.488281c2.84473 0.354492 10.0059 6.97852 7.62891 18.2627c-0.18457 0.931641 -14.7871 64.6689 -23.1992 92.0986c-14.7666 47.6191 -32.3604 54.5684 -45.2451 55.46zM608.139 408.714
c-9.24805 -0.189453 -118.663 -0.18457 -119.861 -0.146484c-7.23242 0.233398 -17.29 0.556641 -25.8906 10.084c-2.51172 2.7832 -14.1914 17.0166 -10.4736 37.374c1.37109 7.50293 3.21387 15.0615 6.64746 27.6416c14.71 60.5127 18.6973 76.916 29.7139 99.4922
c9.01172 18.4385 28.8896 46.2031 65.7031 41.8008c43.6768 -4.84082 59.957 -54.998 71.623 -102c4.10059 -17.042 8.28711 -34.0518 12.582 -51.1084c3.76172 -15.6719 7.40332 -30.8389 -1.91797 -46.2598c-4.63574 -7.66992 -13.3359 -17.04 -28.126 -16.8779z
M504.869 236.612v0zM488.062 228.373c-0.0498047 0.0419922 -0.0957031 0.0810547 -0.138672 0.114258zM437.681 240.37c0.154297 -0.171875 0.264648 -0.291992 0.325195 -0.353516zM508.925 219.905c0 0.102539 -1.20703 -1.31055 -1.20703 -1.31055
c-4.32031 0.863281 -4.32031 0.863281 -4.83398 0.953125c-2.61523 -0.751953 -5.54395 -0.115234 -7.22168 1.60254c-4.14551 1.49512 -4.88672 4.83398 -7.59961 7.22266c-0.765625 0.338867 -2.58691 1.33398 -3.43164 3.40137l0.141602 -0.166016
c-0.0195312 0.0302734 -0.0673828 0.0859375 -0.141602 0.166016c-3.03711 3.26562 -13.5566 12.125 -14.623 14.1533c-1.87305 1.60254 -5.37402 5.94434 -7.20215 7.81348c-1.14453 0.90625 -1.88379 1.84375 -2.33301 2.45312
c-1.32812 0.643555 -2.5127 1.59961 -3.97949 2.79004c-1.7627 1.43164 -3.8877 3.15625 -6.22559 3.69043c-0.90332 0.207031 -5.39355 0.327148 -6.5332 0.258789l0.28418 0.09375s-0.0996094 -0.0292969 -0.28418 -0.09375
c-2.16211 -0.753906 -5.56152 -2.53809 -8.64062 -5.20508c-0.801758 -1.40723 -2.37305 -1.31738 -3.35938 -5.5791c-0.128906 -0.558594 -0.178711 -1.14355 -0.191406 -1.54785c2.37012 -3.55176 -0.12793 -3.21387 6.1377 -10.2314
c2.53516 -1.58984 1.73145 -2.98242 3.81543 -4.72656c8.55762 -7.1582 10.3301 -9.02344 10.9209 -10.2617l-0.22168 0.272461c0.0585938 -0.0771484 0.133789 -0.168945 0.22168 -0.272461c1.60254 -1.8916 5.01465 -5.06445 5.85254 -6.56543
c8.80664 -9.43262 9.43457 -10.8535 9.55469 -10.9473c0.486328 -0.381836 2.19336 -1.77539 2.74316 -2.92188c1.56934 -1.34375 3.72949 -4.30957 4.43457 -4.85156c1.84863 -1.42188 1.62793 -2.55957 3.11719 -4.1709
c3.13184 -3.38965 0.75293 -1.68848 4.95898 -8.13965c1.89746 -2.91211 3.27539 -5.02539 3.47363 -6.08008l-0.145508 0.219727s0.0429688 -0.0722656 0.145508 -0.219727c1.49902 -2.18066 1.53223 -2.22852 1.77246 -3.37402
c1.1748 -1.52734 1.0166 -2.90723 1.60449 -3.78027c0.0625 -0.09375 3.93066 -6.95801 3.93066 -10.1348c0 -0.158203 0.591797 -0.787109 0.810547 -1.73242c1.03516 -1.33203 1.4668 -3.6582 1.60352 -4.59863c1.32227 -1.44141 2.9082 -4.03027 5.4541 -7.87891
c3.27441 -4.94922 7.31055 -11.2861 10.2871 -16.3711l1.98535 -0.240234l-0.481445 -2.36719l0.774414 -1.34961l-0.794922 -0.270508c1.75195 -6.06934 19.6797 -17.2266 30.3174 -19.5732c1.66602 1.04004 4.1123 1.22168 6.25781 0.658203
c4.00391 -1.05176 18.0605 0.338867 28.6689 0.435547c1.08105 0.00976562 10.209 0.65332 12.5713 0.851562c13.2344 3.28906 27.6533 2.44629 36.4053 3.8623c5.40918 0.875 6.0498 0.978516 9.76172 4.5752c0.482422 1.04297 1.10742 1.33301 1.96875 2.42871
c0.501953 2.26855 1.13281 0.856445 1.12109 3.63672c-0.00976562 2.4375 -0.205078 2.95312 -2.24805 5.19629c-2.11035 2.31836 -3.46387 13.6855 -3.45898 13.8262l-0.851562 0.544922c1.45996 1.10742 2.41992 2.59863 3.37402 4.0957l0.521484 -0.206055
c0.448242 1.16211 4.11133 7.07227 4.15527 7.14258l-0.0136719 -0.0878906c0.00488281 0.0263672 0.0136719 0.0556641 0.0136719 0.0878906c0.0927734 0.554688 0.356445 1.86621 1.55566 3.09668c0.400391 1.22852 2.97559 3.76953 5.11719 11.0537
c0.486328 1.65332 0.958008 2.75195 1.3877 3.50098l-0.0556641 -0.369141c0.0195312 0.0888672 0.0380859 0.213867 0.0556641 0.369141c0.234375 2.06543 0.287109 9.48633 0.0556641 10.5029c-1.56055 6.83984 -2.38281 17.8008 -2.41211 17.9795
c-0.179688 0.8125 -0.519531 2.39941 0.37207 4.04297c-1.3418 9.63672 -0.141602 8.1416 -1.24805 14.8301c-0.598633 3.62012 -0.598633 3.62012 -0.950195 19.7529c0 -0.0859375 0.0332031 -0.192383 0.0332031 -0.193359
c-0.0107422 0.0576172 -0.0332031 0.12207 -0.0332031 0.193359c-0.360352 2.22656 -1.0625 11.3135 0.537109 16.6309c0.0283203 4.68359 0.675781 18.3955 1.05469 22.0586c0.665039 6.44824 1.15137 12.6162 1.69336 20.2139
c0.464844 6.53418 0.0673828 23.4209 -0.277344 24.8857c-0.932617 3.94531 -0.825195 6.01953 -1.29297 6.98926c-0.0908203 0.185547 -2.24414 3.76855 -4.93457 5.44238c0.249023 -0.0712891 0.608398 -0.101562 0.608398 -0.101562
c-0.212891 0.0351562 -0.415039 0.0693359 -0.608398 0.101562c-4.00098 0.666016 -4.16211 0.584961 -5.00391 -0.0634766c-3.22266 -2.47852 -12.9365 -13.1982 -14.6416 -16.1328l-1.59082 -2.7373c-1.88477 3.05273 -3.64062 -44.1113 -6.86914 -16.7236
c-0.161133 1.36523 -0.557617 7.17969 -2.33984 7.2002c0.100586 5.28223 -1.30859 18.752 -1.90137 20.8359c-2.17871 7.66504 -0.78418 7.49805 -3.87891 13.9043c-0.688477 1.42773 -1.39844 2.56445 -1.73438 3.81836
c-0.539062 0.663086 -0.873047 1.3916 -1.0166 2.09375l0.0800781 -0.140625s-0.0283203 0.0498047 -0.0800781 0.140625c-1.41602 2.49609 -3.1582 5.41504 -4.2002 6.5791c-1.48535 1.14258 -5.18848 0.134766 -7.98926 -2.58594
c-0.193359 -0.458984 -0.624023 -1.2627 -1.65332 -2.0332l0.266602 0.362305s-0.0976562 -0.130859 -0.266602 -0.362305c-0.84082 -1.15137 -3.45996 -4.80273 -4.88086 -7.48535c-0.338867 -1.94336 -1.39062 -2.51367 -1.8252 -4.5752
c-0.754883 -3.55859 -1.625 -2.66992 -1.93262 -5.16895c0 0 1.07812 -3.57715 -0.515625 -3.48242c-1.87793 0.110352 1.75195 -28.5801 -3.18164 -29.7002c-1.43555 -0.326172 1.30273 0.56543 0 0c-2.67285 -1.16211 -4.10156 19.8789 -7.99512 19.6621
c0.0791016 0.260742 -0.267578 0.194336 -0.482422 0.230469c0.239258 1.82715 0.239258 1.82715 0.0429688 4.73828l-0.832031 0.0878906c-0.671875 3.75879 -1.08203 8.30469 -1.09766 8.3877l-1.3252 -0.046875l0.524414 3.36621
c-2.01074 6.90234 -3.86816 8.5957 -5.65039 13.084c-2.47656 6.23828 -3.6084 6.37793 -4.29004 8.75781c-1.09375 0.923828 -1.27832 1.0791 -6.07324 1.27051l0.202148 0.0830078s-0.0556641 -0.0214844 -0.202148 -0.0830078
c-4.47363 -1.8623 -6.28906 -2.61816 -9.02637 -9.23438c-3.49707 -8.44727 -4.16309 -20.207 -6.48145 -26.7227l-1.77344 -4.98145l-6.24023 -11.7002c-0.688477 6.78809 -3.39453 26.5459 -4.19141 28.6553c-0.144531 0.378906 -0.144531 0.378906 -1.24609 3.75391
c-0.0244141 0.0380859 -1.91797 3.25 -2.3916 3.87109c-3.75391 2.05371 -3.75391 2.05371 -4.75391 2.77148c-0.414062 0.297852 -0.483398 0.651367 -3.40137 0.816406c-0.847656 -0.285156 -1.61816 -0.40332 -2.1084 -0.469727
c-1.04492 -0.580078 -2.11719 -1.27344 -2.80762 -1.97266c0.0244141 0.0390625 0.0585938 0.102539 0.0585938 0.103516c-0.0195312 -0.0341797 -0.0390625 -0.0693359 -0.0585938 -0.103516c-0.276367 -0.485352 -0.586914 -0.984375 -0.930664 -1.45605
c-1.84668 -4.73535 -1.84668 -4.73535 -2.74121 -6.1543c-1.04297 -1.65723 -1.24707 -2.38574 -2.50488 -7.12207l0.0166016 0.202148c-0.00585938 -0.0654297 -0.0166016 -0.132812 -0.0166016 -0.202148c-0.427734 -5.82129 0.0595703 -21.2861 -0.550781 -25.8926
c0.919922 -2.17578 -0.0244141 -5.65137 -0.00488281 -6.95801c0.533203 -1.9541 1.03906 -7.48047 1.4541 -11.4141c0.0126953 -0.128906 0.929688 -4.22754 1.4209 -12.8467c0.27832 -4.87695 2.74902 -31.4297 2.81055 -31.7432
c1.4668 -2.17969 0.727539 -4.42383 -0.0244141 -5.88477c0.0693359 -0.24707 0.291992 -1.33691 0.978516 -5.21875c2.55469 -0.952148 3.83203 -9.03223 3.05273 -11.5352zM505.034 344.675c0 0.0371094 0.0253906 0.0654297 0.0292969 0.0722656
c-0.00195312 -0.00292969 -0.0292969 -0.0273438 -0.0292969 -0.0722656zM640.162 345.763l-0.724609 -4.2041l2.41602 0.670898zM555.176 360.974l0.28418 -0.0322266c-0.0732422 0.0117188 -0.169922 0.0322266 -0.28418 0.0322266zM608.116 340.732
c0 -0.0380859 0.0244141 -0.0761719 0.0244141 -0.078125c-0.00683594 0.0244141 -0.0244141 0.078125 -0.0244141 0.078125zM496.25 157.999c0 0 0.0410156 -0.0332031 0.0429688 -0.0498047zM499.658 108.863c-4.41992 3.8457 -6.69629 14.6572 -3.4375 18.0488
c-0.00976562 0.0253906 -0.859375 2.06836 -1.00879 2.54102c-2.43555 3.44434 -0.905273 4.67188 -2.10156 7.25c-0.140625 0.150391 -7.65137 8.83105 -10.3174 16.7168c-0.645508 1.78223 -3.02441 6.75977 -3.64941 8.00977
c-1.30957 1.55957 -1.21094 2.56055 -1.65332 3.2002c-0.956055 1.38574 -1.59961 2.86523 -2.11133 3.99902c-1.30176 2.88477 -0.930664 1.06641 -1.76172 3.60254c-0.916016 2.79492 -2.30859 3.04199 -2.62207 5.57812
c-1.24023 1.42773 -1.79102 2.86621 -2.0625 3.58008c-1.75098 2.01953 -0.74707 1.95801 -2.2998 3.77148c-2.82129 3.2959 -1.13965 1.92285 -4.76367 6.42773c-6.85547 8.52051 -5.98535 8.87012 -10.1494 12.8623c-1.62891 1.5625 -3.51172 3.31152 -4.78906 5.18945
c-0.457031 0.671875 -2.44336 3.48633 -3.01074 4.0957c-1.29004 1.02539 -1.74414 1.98633 -2.4082 2.95508c-0.507812 0.739258 -1.01855 1.40723 -1.12012 1.53809c-0.501953 0.387695 -1.42773 1.62207 -4.96387 4.34277
c-1.71387 1.31738 -1.27734 1.57129 -2.79883 2.90137c-3.08789 2.69824 -3.82812 4.96582 -6.39551 7.50781c-0.981445 0.972656 -2.58301 2.62012 -2.88574 3.30176c-2.52734 2.25098 -4.12305 5.625 -5.80566 10.3047c-1.70117 4.73926 -2.25684 10.7344 2.2998 15.7959
c5.53809 6.15137 8.26953 8.05469 9.85547 8.58203c1.41992 0.870117 6.06641 3.71875 11.1885 4.45117c1.72363 0.739258 3.60449 0.698242 5.04199 0.355469c5.89258 -0.167969 10.7598 -0.649414 21.8682 -9.3584c15.1143 -11.8486 6.21582 -5.66113 21.2432 -19.1143
c0.310547 -0.277344 0.275391 -0.206055 0.511719 -0.453125c-0.113281 5.32812 -0.509766 9.08984 -1.16211 12.0928c-1.24219 2.28613 -0.175781 2.85059 -2.10742 17.1797c-0.0888672 0.662109 -0.0888672 0.662109 -1.11328 15.249
c-1.15137 6.95215 -1.37695 32.1582 -0.355469 39.1367c0.0175781 0.12207 1.56348 9.6123 3.23242 11.9883c0.219727 4.2334 3.99316 7.29688 4.6084 8.62891c1.8916 4.10352 8.87109 9.02344 15.7178 9.54785c2.99219 1.34082 9.04688 0.564453 11.7188 -0.941406
c2.04492 -0.356445 4.58887 -1.7627 6.08301 -2.58789c1.4502 2.80273 4.09766 5.45801 6.75586 7.58301c2.08203 1.66406 3.5791 3.16504 3.62012 3.19141c2.61426 1.62012 13.9365 17.2979 22.1104 3.92188c0.0507812 -0.0839844 0.572266 -0.180664 1.25391 -0.356445
c5.45605 -1.40723 6.37207 -2.40918 10.7148 -7.29883c3.59668 -4.04883 4.20508 -5.90332 4.78711 -8.48633c0.34082 0.421875 0.638672 0.808594 0.896484 1.19043c1.34277 1.99121 6.23438 7.71777 11.1514 9.41309c0.332031 0.115234 1.17871 0.487305 1.44238 0.605469
c3.75293 2.28223 11.1299 2.68066 15.0557 1.01758c1.17188 -0.253906 2.72754 -0.875977 4.34473 -2.02832c5.36816 -1.29883 10.2832 -8.98828 10.5488 -10.0674c2.16016 -3.50684 2.16016 -3.50684 4.36426 -12.8574c2.82227 2.9082 8.43457 6.28711 12.1963 6.75781
c5.4873 2.60938 16.6758 -2.08398 19.7715 -4.4502c6.33691 -2.74219 7.72559 -12.1582 8.25391 -16.1826c0.521484 -3.97559 1.66895 -29.8994 0.363281 -41.1582c-0.0263672 -0.272461 -1.2334 -13.9844 -1.75586 -27.2646
c-0.631836 -30.4922 -0.0546875 -43.043 1.27637 -54.4385c0.475586 -1.48926 0.575195 -3.83594 0.995117 -5.58301c0.141602 -0.585938 0.569336 -2.10352 -0.254883 -3.74023c0.0722656 -0.806641 0.275391 -2.46191 0.694336 -4.91797
c0.0498047 -0.299805 2.4248 -23.9287 -2.50195 -30.1309c-0.548828 -3.29199 -4.95703 -7.73047 -7.18066 -11.5518c-0.366211 -0.628906 -0.873047 -1.45898 -1.44141 -2.35742c-2.43359 -3.85059 -2.43359 -3.85059 -2.41797 -6.89355
c0.0136719 -2.91211 -0.251953 -2.95703 1.97168 -6.37598c3.44043 -5.28613 4.62305 -10.583 2.13965 -15.5889c-1.68359 -3.39746 -5.49902 -7.88184 -8.25 -9.86914c-0.692383 -0.500977 -5.40039 -3.79785 -9.27148 -3.85059
c-4.03027 -1.51562 -6.42285 -1.34668 -10.6074 -2.23828c-8.74707 -1.86133 -21.0469 -2.04102 -25.5635 -2.81738c-2.99414 -0.993164 -6.08594 -0.449219 -7.82227 -0.793945c-4.97266 -0.986328 -12.5342 -0.665039 -16.7959 -1.06445
c-6.03711 -0.567383 -35.6084 -0.485352 -42.5479 0.40625c-2.19141 0.280273 -6.34375 0.40625 -9.42871 0.920898c-1.96289 0.0595703 -11.4131 1.16699 -14.0127 2.94434c-1.52441 0.236328 -4.34082 0.888672 -7.12207 2.86914
c-3.56934 1.1123 -3.96875 3.35645 -4.24805 3.26367zM523.745 120.905zM112.438 496.064l121.562 -220.064l120.322 221.97l-21.1787 14.2852l-98.4824 -186.705l-101.598 178.314z" />
  </g>

</svg>
