<?xml version="1.0" standalone="no"?>
<!DOCTYPE svg PUBLIC "-//W3C//DTD SVG 1.1//EN" "http://www.w3.org/Graphics/SVG/1.1/DTD/svg11.dtd" >
<svg xmlns="http://www.w3.org/2000/svg" xmlns:xlink="http://www.w3.org/1999/xlink" version="1.1" viewBox="-10 0 1021 1000">
  <g transform="matrix(1 0 0 -1 0 800)">
   <path fill="currentColor"
d="M30.3242 741.553h55.5146l17.1611 52.2256l17.1602 -52.2256h55.5156l-44.8672 -32.2959l17.1611 -52.2246l-44.9697 32.2959l-44.9707 -32.2959l17.1611 52.2246zM804 631c0 -96.6865 68.0879 -173.199 99.375 -191.775l11.1992 -6.64941
c-16.9434 -0.478516 1.18945 0.900391 -34.5742 -3.5752l-1.0752 1.36426c-22.0068 27.9238 -93.998 110.011 -106.903 207.233c-0.657227 4.95117 0.0224609 9.79688 0.582031 18.2783c-1.38379 0.708984 -2.88672 1.4873 -4.52246 2.34082
c-0.0283203 -1.83984 -0.322266 -3.81641 -0.0449219 -5.88867c33.3789 -249.661 97.5459 -216.742 97.5459 -216.742s6.91211 -4.29004 10.2793 -6.58594h-32.8613c-44.1455 16.1279 -101.697 151.17 -101.697 222.331c0 8.73535 0.302734 15.3135 0.785156 20.6846
c-60.6641 32.3369 -181.179 64.7012 -284.885 64.7012c-23.0527 0 -45.5234 -2.04883 -73.3945 -6.17773c-32.3232 -4.78906 -32.3232 -4.78906 -70.6152 -21.2002c-18.916 -8.10645 -50.2139 -47.4062 -58.166 -66.7188
c-7.02734 -17.0664 -9.0791 -30.2676 -9.0791 -45.8906c0 -22.332 3.62891 -44.376 3.62891 -77.1553c0 -8.99219 1.14648 -13.8564 1.14648 -20.1924c0 -4.57031 -0.613281 -9.64551 -2.73242 -16.6025c-19.9492 -65.4795 -40.3174 -87.0479 -63.832 -110.183
c-6.25977 -6.16016 -27.0508 -26.6172 -27.0508 -37.7881c0 -4.45605 0.882812 -6.9082 38.3447 -19.4531c55.9199 -18.7266 60.0254 -24.4102 60.0254 -90.9766c0 -43.0117 2.70801 -110.013 2.70801 -151.731c0 -5.5 0.0820312 -11.3867 0.267578 -17.7666
c0.50293 -17.292 16.4512 -45.3398 23.8975 -57.5352c1.19629 -0.303711 1.95996 -1.18164 1.95996 -1.18164c1.1543 -0.666992 2.48438 -1.60059 4.13477 -2.74414c16.0508 -11.1162 22.0049 -13.1846 40.8428 -13.1846c24.0361 0 22.3457 4.21484 79.0615 4.21484
c0.316406 0 6.94531 -0.00390625 7.01562 -0.00390625c14.7988 0 25.668 0.226562 52.1025 3.80078c20.2021 2.73242 38.8271 4.61572 56.5088 6.4043c120.938 12.2334 201.711 24.1475 280.178 80.1953c2.23438 1.5957 5.14355 3.85352 8.45703 6.42773
c12.6104 9.7959 33.0303 26.8994 48.1416 26.8994c8.16699 0 13.834 -4.95996 13.834 -14.165c0 -15.4473 -17.4082 -42.8486 -33.0938 -42.8486c-1.16406 0 -1.56543 0.129883 -3.01758 0.129883c-22.6426 0 -44.3604 -36.5264 -79.4766 -51.29
c-52.8857 -22.2344 -138.298 -27.127 -175.459 -33.71c-17.2549 -3.05664 -36.6504 -6.49316 -61.8809 -12.2393c-34.7246 -7.90918 -51.6299 -8.61133 -86.7539 -8.61133c-0.251953 0 -22.7891 0.03125 -25.0811 0.03125c-11.3115 0 -32.6182 -0.123047 -32.9473 -0.123047
c-40.7773 0 -82.5049 2.86621 -120.91 24.8125c-26.0957 14.9121 -27.9092 36.1035 -30.0449 61.0586c-0.477539 5.59082 -0.976562 11.3994 -1.75781 17.3906c-1.96484 15.7158 -2.63672 29.7119 -2.63672 42.8916c0 28.6572 -4.27441 100.664 -4.27441 131.409
c0 46.4277 -4.59863 49 -29.7539 58.8145c-27.3184 10.6582 -57.2148 13.2568 -70.834 26.876c-4.33008 4.33008 -6.66504 9.68945 -6.66504 16.1094c0 4.7959 1.30371 10.1846 4.05176 16.1768c36.4951 79.5967 68.6367 70.0742 91.3711 139.761
c5.20312 15.9443 6.93652 32.2529 6.93652 48.6797c0 32.5635 -6.77832 65.1611 -6.77832 95.8125c0 47.6494 17.2412 68.3838 35.0508 86.1934c66.2422 66.2412 143.674 66.3555 238.901 66.3555h0.988281c82.8154 0 190.135 -23.3467 246.021 -49.8477
c43.5547 -20.6533 21.8506 -15.7109 32.4561 -16.8408c11.3984 -1.2168 39 -13 47.5039 -30.4053c4.31641 -8.83496 -4.12305 -21.668 -4.50391 -29.5947c-0.257812 -5.36523 2 -14.3428 2 -20zM336.363 613.096l111.637 -202.096l109.575 202.146l-21.9365 8.88379
l-86.7041 -164.966l-95.126 163.402zM643.074 372.131l-0.00390625 -0.144531c0.00195312 0.0478516 0.00390625 0.0966797 0.00390625 0.144531zM617.506 453.37l0.0351562 -0.0419922c-0.0117188 0.0146484 -0.0351562 0.0419922 -0.0351562 0.0419922zM581.883 450.095
l0.0371094 0.0556641c-0.00683594 -0.00878906 -0.0126953 -0.0185547 -0.0371094 -0.0556641zM558.849 374.809l0.0107422 0.0673828c-0.00390625 -0.0234375 -0.0107422 -0.0449219 -0.0107422 -0.0673828zM560.994 366.139l-0.0488281 0.0517578
c0.0166016 -0.0166016 0.0322266 -0.0341797 0.0488281 -0.0517578zM562.894 364.696l-0.236328 0.0703125c0.0791016 -0.0244141 0.158203 -0.0478516 0.236328 -0.0703125zM564.061 364.479l-0.0507812 0.00488281
c0.00976562 0 0.0185547 -0.00488281 0.0507812 -0.00488281zM602.851 461.308c-19.3828 1.75586 -27.3525 -19.1475 -34.8506 -48.9512c-5.77051 -23.7578 -5.77051 -23.7578 -7.85938 -31.5908l0.0117188 0.0458984
c-0.00390625 -0.0146484 -0.0117188 -0.0458984 -0.0117188 -0.0458984c-1.47363 -6.06543 -2.69434 -11.0879 1.05078 -14.8311c1.37402 -1.375 1.87988 -1.46875 5.79004 -1.64062c69.4219 0.0302734 69.4219 0.0302734 71.3447 0.285156
c1.65918 0.207031 5.83691 4.07031 4.4502 10.6533c-0.107422 0.542969 -8.62598 37.7236 -13.5332 53.7236c-8.61328 27.7773 -18.877 31.832 -26.3926 32.3516zM636.663 349.694c-5.39453 -0.110352 -69.2197 -0.108398 -69.9189 -0.0849609
c-4.21875 0.134766 -10.0859 0.324219 -15.1025 5.88184c-1.46582 1.62305 -8.27832 9.92578 -6.10938 21.8008c0.799805 4.37793 1.87402 8.78613 3.87695 16.125c8.58105 35.2988 10.9072 44.8672 17.333 58.0371c5.25781 10.7549 16.8525 26.9512 38.3271 24.3838
c25.4785 -2.82422 34.9756 -32.082 41.7803 -59.5c2.3916 -9.94141 4.83398 -19.8643 7.33887 -29.8135c2.19531 -9.14258 4.31934 -17.9893 -1.11816 -26.9854c-2.7041 -4.47363 -7.7793 -9.93945 -16.4072 -9.84473zM576.423 249.302v0zM566.619 244.495
c-0.0292969 0.0253906 -0.0556641 0.0478516 -0.0810547 0.0664062zM537.229 251.494c0.0898438 -0.100586 0.154297 -0.170898 0.189453 -0.207031zM578.789 239.556c0 0.0595703 -0.704102 -0.764648 -0.704102 -0.764648
c-2.52051 0.503906 -2.52051 0.503906 -2.82031 0.556641c-1.52539 -0.438477 -3.23438 -0.0673828 -4.21289 0.93457c-2.41797 0.87207 -2.85059 2.81934 -4.43262 4.21289c-0.447266 0.198242 -1.50879 0.77832 -2.00195 1.98438l0.0830078 -0.0966797
c-0.0117188 0.0175781 -0.0400391 0.0498047 -0.0830078 0.0966797c-1.77148 1.90527 -7.9082 7.07324 -8.53027 8.25586c-1.09277 0.935547 -3.13477 3.46777 -4.20117 4.55762c-0.667969 0.529297 -1.09863 1.07617 -1.36133 1.43164
c-0.774414 0.375 -1.46484 0.933594 -2.32031 1.62695c-1.0293 0.834961 -2.26855 1.8418 -3.63184 2.15332c-0.527344 0.120117 -3.14648 0.19043 -3.81152 0.150391l0.166016 0.0546875s-0.0576172 -0.0166016 -0.166016 -0.0546875
c-1.26074 -0.439453 -3.24414 -1.47949 -5.04004 -3.03613c-0.467773 -0.820312 -1.38477 -0.768555 -1.95996 -3.25391c-0.0751953 -0.326172 -0.103516 -0.666992 -0.111328 -0.90332c1.38281 -2.07129 -0.0751953 -1.875 3.58008 -5.96777
c1.47852 -0.927734 1.00977 -1.74023 2.22559 -2.75781c4.99219 -4.1748 6.02637 -5.26367 6.37109 -5.98633l-0.129883 0.15918c0.0341797 -0.0449219 0.078125 -0.0976562 0.129883 -0.15918c0.93457 -1.10352 2.9248 -2.95312 3.41309 -3.83008
c5.1377 -5.50195 5.50391 -6.33008 5.57422 -6.38477c0.283203 -0.222656 1.2793 -1.03613 1.59961 -1.70508c0.916016 -0.78418 2.17578 -2.51367 2.58691 -2.83008c1.0791 -0.829102 0.950195 -1.49219 1.81836 -2.43262
c1.82715 -1.97754 0.439453 -0.985352 2.89258 -4.74902c1.10742 -1.69824 1.91113 -2.93066 2.02637 -3.5459l-0.0849609 0.12793s0.0253906 -0.0419922 0.0849609 -0.12793c0.875 -1.27246 0.894531 -1.30078 1.03418 -1.96777
c0.685547 -0.891602 0.592773 -1.69629 0.935547 -2.20605c0.0371094 -0.0546875 2.29297 -4.05859 2.29297 -5.91211c0 -0.0917969 0.345703 -0.458984 0.473633 -1.01074c0.603516 -0.776367 0.855469 -2.13281 0.93457 -2.68164
c0.771484 -0.84082 1.69727 -2.35156 3.18164 -4.5957c1.91016 -2.8877 4.26465 -6.58398 6.00098 -9.5498l1.1582 -0.140625l-0.280273 -1.38086l0.451172 -0.787109l-0.463867 -0.158203c1.02246 -3.54004 11.4805 -10.0488 17.6855 -11.417
c0.97168 0.606445 2.39844 0.711914 3.65039 0.383789c2.33496 -0.614258 10.5352 0.197266 16.7236 0.253906c0.629883 0.00585938 5.95508 0.380859 7.33301 0.496094c7.7207 1.91895 16.1309 1.42676 21.2363 2.25391c3.15527 0.509766 3.5293 0.570312 5.69434 2.66895
c0.28125 0.608398 0.646484 0.777344 1.14844 1.41602c0.292969 1.32324 0.661133 0.5 0.654297 2.12109c-0.00585938 1.42285 -0.120117 1.72363 -1.31152 3.03223c-1.23047 1.35254 -2.02051 7.98242 -2.01758 8.06445l-0.49707 0.318359
c0.851562 0.645508 1.41211 1.51562 1.96875 2.38867l0.303711 -0.120117c0.261719 0.677734 2.39844 4.125 2.42383 4.16602l-0.0078125 -0.0507812c0.00292969 0.015625 0.0078125 0.0332031 0.0078125 0.0507812c0.0537109 0.324219 0.208008 1.08887 0.907227 1.80762
c0.234375 0.716797 1.73633 2.19824 2.98535 6.44727c0.283203 0.964844 0.558594 1.60547 0.80957 2.04199l-0.0322266 -0.214844c0.0107422 0.0517578 0.0214844 0.125 0.0322266 0.214844c0.136719 1.20508 0.166992 5.53418 0.0322266 6.12695
c-0.910156 3.99023 -1.38965 10.3838 -1.40723 10.4883c-0.104492 0.474609 -0.302734 1.39941 0.217773 2.3584c-0.783203 5.62109 -0.0830078 4.74902 -0.728516 8.65137c-0.348633 2.11133 -0.348633 2.11133 -0.553711 11.5215
c0 -0.0498047 0.0195312 -0.111328 0.0195312 -0.112305c-0.00683594 0.0341797 -0.0195312 0.0712891 -0.0195312 0.112305c-0.210938 1.2998 -0.620117 6.59961 0.3125 9.70215c0.0166016 2.73145 0.394531 10.7305 0.615234 12.8672
c0.388672 3.76172 0.671875 7.35938 0.988281 11.791c0.271484 3.81152 0.0390625 13.6631 -0.162109 14.5166c-0.543945 2.30176 -0.481445 3.51172 -0.753906 4.07715c-0.0527344 0.109375 -1.30859 2.19824 -2.87891 3.1748
c0.145508 -0.0410156 0.355469 -0.0595703 0.355469 -0.0595703c-0.124023 0.0214844 -0.242188 0.0410156 -0.355469 0.0595703c-2.33398 0.388672 -2.42773 0.341797 -2.91895 -0.0361328c-1.87988 -1.44629 -7.5459 -7.69922 -8.54004 -9.41113l-0.928711 -1.59766
c-1.09961 1.78125 -2.12402 -25.7314 -4.00684 -9.75488c-0.09375 0.796875 -0.325195 4.18848 -1.36523 4.2002c0.0585938 3.08105 -0.762695 10.9385 -1.1084 12.1543c-1.27148 4.47168 -0.458008 4.37402 -2.2627 8.11133
c-0.402344 0.832031 -0.816406 1.49512 -1.01172 2.22656c-0.31543 0.386719 -0.509766 0.8125 -0.59375 1.22168l0.046875 -0.0820312s-0.0166016 0.0292969 -0.046875 0.0820312c-0.826172 1.45605 -1.8418 3.15918 -2.44922 3.83789
c-0.867188 0.666992 -3.02734 0.0791016 -4.66113 -1.50781c-0.112305 -0.268555 -0.364258 -0.737305 -0.964844 -1.18652l0.15625 0.210938s-0.0576172 -0.0761719 -0.15625 -0.210938c-0.490234 -0.671875 -2.01758 -2.80176 -2.84668 -4.36719
c-0.197266 -1.13379 -0.810547 -1.46582 -1.06445 -2.66797c-0.44043 -2.07617 -0.948242 -1.55762 -1.12793 -3.01562c0 0 0.629883 -2.08594 -0.300781 -2.03125c-1.09473 0.0644531 1.02246 -16.6719 -1.85547 -17.3252c-0.837891 -0.19043 0.759766 0.330078 0 0
c-1.55957 -0.677734 -2.39258 11.5967 -4.66406 11.4697c0.0458984 0.151367 -0.15625 0.113281 -0.28125 0.133789c0.139648 1.06641 0.139648 1.06641 0.0253906 2.76465l-0.485352 0.0507812c-0.392578 2.19238 -0.631836 4.84473 -0.640625 4.89355
l-0.773438 -0.0283203l0.306641 1.96387c-1.17285 4.02734 -2.25684 5.01465 -3.29688 7.63281c-1.44434 3.63867 -2.10449 3.7207 -2.50195 5.1084c-0.637695 0.539062 -0.746094 0.629883 -3.54297 0.741211l0.118164 0.0488281
s-0.0322266 -0.0126953 -0.118164 -0.0488281c-2.60938 -1.08594 -3.66895 -1.52734 -5.26562 -5.38672c-2.04004 -4.92773 -2.42773 -11.7871 -3.78027 -15.5889l-1.03516 -2.90527l-3.63965 -6.8252c-0.401367 3.95996 -1.98047 15.4854 -2.44531 16.7158
c-0.0839844 0.22168 -0.0839844 0.22168 -0.726562 2.18945c-0.0146484 0.0224609 -1.11914 1.89648 -1.39551 2.25879c-2.18945 1.19727 -2.18945 1.19727 -2.77246 1.61621c-0.242188 0.173828 -0.282227 0.379883 -1.98438 0.476562
c-0.494141 -0.166992 -0.943359 -0.235352 -1.22949 -0.274414c-0.610352 -0.338867 -1.23535 -0.743164 -1.63867 -1.15039c0.0146484 0.0224609 0.0341797 0.0595703 0.0341797 0.0595703c-0.0107422 -0.0195312 -0.0224609 -0.0390625 -0.0341797 -0.0595703
c-0.161133 -0.283203 -0.341797 -0.574219 -0.541992 -0.849609c-1.07812 -2.76172 -1.07812 -2.76172 -1.59961 -3.58984c-0.608398 -0.966797 -0.727539 -1.3916 -1.46094 -4.15527l0.00976562 0.119141
c-0.00390625 -0.0390625 -0.00976562 -0.078125 -0.00976562 -0.119141c-0.25 -3.39551 0.0341797 -12.416 -0.321289 -15.1035c0.536133 -1.26953 -0.0146484 -3.2959 -0.00292969 -4.05859c0.310547 -1.13965 0.606445 -4.36328 0.847656 -6.6582
c0.0078125 -0.0751953 0.542969 -2.4668 0.829102 -7.49414c0.162109 -2.84473 1.60352 -18.334 1.63965 -18.5166c0.855469 -1.27148 0.424805 -2.58105 -0.0136719 -3.43262c0.0400391 -0.144531 0.169922 -0.780273 0.570312 -3.04492
c1.49023 -0.554688 2.23535 -5.26855 1.78125 -6.72852zM576.52 312.338c0 0.0224609 0.0146484 0.0380859 0.0166016 0.0419922c-0.000976562 -0.000976562 -0.0166016 -0.015625 -0.0166016 -0.0419922zM655.344 312.973l-0.422852 -2.45312l1.40918 0.392578z
M605.769 321.846l0.166016 -0.0185547c-0.0429688 0.00585937 -0.0996094 0.0185547 -0.166016 0.0185547zM636.65 310.038c0 -0.0214844 0.0136719 -0.0449219 0.0136719 -0.0449219c-0.00390625 0.0136719 -0.0136719 0.0449219 -0.0136719 0.0449219zM571.395 203.444
c0 0 0.0244141 -0.0195312 0.0253906 -0.0302734zM573.383 174.781c-2.57812 2.24316 -3.90625 8.5498 -2.00488 10.5283c-0.00585938 0.0146484 -0.500977 1.20703 -0.588867 1.48242c-1.4209 2.00977 -0.527344 2.72461 -1.22559 4.22949
c-0.0820312 0.0869141 -4.46289 5.15137 -6.01855 9.75098c-0.376953 1.04004 -1.76367 3.94336 -2.12891 4.67285c-0.763672 0.90918 -0.706055 1.49316 -0.963867 1.86719c-0.557617 0.807617 -0.933594 1.6709 -1.23242 2.33203
c-0.758789 1.68262 -0.541992 0.62207 -1.02734 2.10156c-0.53418 1.63086 -1.34668 1.77441 -1.5293 3.25391c-0.723633 0.833008 -1.04492 1.67188 -1.20312 2.08887c-1.02148 1.17773 -0.435547 1.1416 -1.3418 2.2002
c-1.64551 1.92188 -0.665039 1.12109 -2.77832 3.74902c-3.99902 4.96973 -3.49219 5.17383 -5.9209 7.50293c-0.950195 0.911133 -2.04883 1.93164 -2.79395 3.02734c-0.266602 0.391602 -1.4248 2.0332 -1.75586 2.38867
c-0.75293 0.598633 -1.01758 1.1582 -1.40527 1.72363c-0.295898 0.431641 -0.59375 0.821289 -0.65332 0.897461c-0.291992 0.226562 -0.833008 0.946289 -2.89551 2.5332c-0.999023 0.768555 -0.745117 0.916992 -1.63281 1.69238
c-1.80078 1.57422 -2.23242 2.89648 -3.73047 4.37988c-0.572266 0.567383 -1.50684 1.52832 -1.68359 1.92578c-1.47363 1.31348 -2.4043 3.28125 -3.38574 6.01074c-0.993164 2.76562 -1.31738 6.2627 1.34082 9.21484c3.23047 3.58789 4.82422 4.69824 5.74902 5.00586
c0.828125 0.507812 3.53906 2.16992 6.52734 2.59668c1.00488 0.431641 2.10254 0.407227 2.94043 0.207031c3.4375 -0.0976562 6.27637 -0.37793 12.7568 -5.45898c8.81641 -6.91113 3.62598 -3.30176 12.3916 -11.1494
c0.181641 -0.162109 0.161133 -0.120117 0.298828 -0.264648c-0.0664062 3.1084 -0.297852 5.30273 -0.677734 7.05371c-0.724609 1.33398 -0.102539 1.66309 -1.22949 10.0215c-0.0517578 0.386719 -0.0517578 0.386719 -0.649414 8.89648
c-0.671875 4.05469 -0.803711 18.7588 -0.208008 22.8291c0.0107422 0.0712891 0.913086 5.60742 1.88574 6.99316c0.128906 2.46875 2.33008 4.25684 2.68848 5.03418c1.10352 2.39355 5.1748 5.26367 9.16895 5.56934c1.74512 0.78125 5.27734 0.328125 6.83594 -0.549805
c1.19238 -0.208008 2.67676 -1.02734 3.54785 -1.50977c0.84668 1.63574 2.39062 3.18457 3.94141 4.42383c1.21387 0.970703 2.08789 1.84668 2.11133 1.86133c1.52539 0.945312 8.12988 10.0908 12.8975 2.28809
c0.0302734 -0.0488281 0.334961 -0.105469 0.732422 -0.208008c3.18262 -0.821289 3.7168 -1.40527 6.25 -4.25781c2.09766 -2.36133 2.45312 -3.44336 2.79297 -4.9502c0.198242 0.246094 0.37207 0.47168 0.522461 0.694336
c0.783203 1.16211 3.63672 4.50195 6.50488 5.49121c0.193359 0.0664062 0.6875 0.28418 0.841797 0.352539c2.18848 1.33203 6.49219 1.56445 8.78223 0.59375c0.683594 -0.148438 1.59082 -0.510742 2.53418 -1.18262
c3.13184 -0.757812 5.99902 -5.24316 6.15332 -5.87305c1.25977 -2.0459 1.25977 -2.0459 2.5459 -7.5c1.64648 1.69629 4.9209 3.66797 7.11523 3.94238c3.2002 1.52148 9.72656 -1.21582 11.5332 -2.5957c3.69629 -1.60059 4.50586 -7.09277 4.81445 -9.44043
c0.303711 -2.31934 0.973633 -17.4414 0.211914 -24.0088c-0.015625 -0.15918 -0.719727 -8.15723 -1.02441 -15.9043c-0.368164 -17.7871 -0.0322266 -25.1084 0.744141 -31.7559c0.27832 -0.869141 0.335938 -2.23828 0.581055 -3.25684
c0.0820312 -0.341797 0.332031 -1.22656 -0.148438 -2.18164c0.0419922 -0.470703 0.160156 -1.43652 0.404297 -2.86914c0.0292969 -0.174805 1.41504 -13.958 -1.45898 -17.5762c-0.320312 -1.91992 -2.8916 -4.50879 -4.18848 -6.73828
c-0.213867 -0.367188 -0.509766 -0.851562 -0.84082 -1.37598c-1.41992 -2.24512 -1.41992 -2.24512 -1.41113 -4.02051c0.0078125 -1.69824 -0.146484 -1.72559 1.15039 -3.71973c2.00684 -3.08301 2.69629 -6.17285 1.24805 -9.09277
c-0.982422 -1.98242 -3.20801 -4.59863 -4.8125 -5.75781c-0.40332 -0.291992 -3.15039 -2.21582 -5.4082 -2.24609c-2.35059 -0.883789 -3.74707 -0.785156 -6.1875 -1.30566c-5.10254 -1.08594 -12.2773 -1.19043 -14.9121 -1.64258
c-1.74707 -0.580078 -3.5498 -0.262695 -4.56348 -0.463867c-2.90039 -0.575195 -7.31152 -0.387695 -9.79688 -0.621094c-3.52246 -0.331055 -20.7715 -0.282227 -24.8203 0.237305c-1.27734 0.164062 -3.7002 0.237305 -5.5 0.537109
c-1.14453 0.0351562 -6.65723 0.680664 -8.17383 1.7168c-0.889648 0.138672 -2.53223 0.519531 -4.1543 1.67383c-2.08203 0.649414 -2.31543 1.95801 -2.47852 1.9043zM587.434 181.806z" />
  </g>

</svg>
