<?xml version="1.0" standalone="no"?>
<!DOCTYPE svg PUBLIC "-//W3C//DTD SVG 1.1//EN" "http://www.w3.org/Graphics/SVG/1.1/DTD/svg11.dtd" >
<svg xmlns="http://www.w3.org/2000/svg" xmlns:xlink="http://www.w3.org/1999/xlink" version="1.1" viewBox="-10 0 1002 1000">
  <g transform="matrix(1 0 0 -1 0 800)">
   <path fill="currentColor"
d="M828.399 483.872c0 9.49878 0.360099 25.4826 0.360099 28.905l-0.318652 61.3747l-8.69455 54.78l-24.0577 41.7601l-29.8355 19.1251l-33.9409 8.02542l-47.9505 1.85133v0.765382l-107.704 8.96128l-161.614 -4.8437l-135.511 -48.0118l4.97421 -24.8711
l90.1513 34.2037l168.519 13.9909l163.859 -8.05849l72.0585 -32.0852l24.6852 -76.5829c-11.2968 -92.7231 -11.5388 -94.7093 -10.6225 -98.1968c0.272553 -1.03738 0.408327 -1.98777 0.495372 -2.92219c0.487753 -0.641757 1.13403 -1.58506 1.4862 -2.05622
l30.4464 -40.7334l38.0432 -60.0682l23.93 -33.502l-96.7113 -80.2498l-3.19974 -219.288c0.962733 -7.56244 2.78458 -22.0112 5.01798 -45.877c-0.12894 -0.269919 -9.65147 -20.9678 -12.8349 -27.02c-1.80565 -3.43278 -3.36365 -6.39475 -8.94453 -11.1259
c-28.726 -6.87192 -37.6748 -9.01268 -53.7943 -9.01268c-3.38415 0 -6.77838 0.14333 -10.1737 0.446144l-127.95 -3.2205l-189.706 31.9736l-119.91 72.0259l-21.8729 31.5454c-0.18608 0.126152 -14.9542 10.3475 -18.5829 12.6523v-31.4635
c5.41685 -3.87145 13.5068 -7.36272 24.4398 -17.2503c7.32645 -6.62591 2.09556 -4.45645 10.6241 -11.9264c1.03002 -0.902171 1.03002 -0.902171 17.2005 -21.8062l70.2643 -41.1391l123.979 -35.7692l40.8353 -3.74581
c52.8258 -4.90757 59.0669 -6.73248 83.0467 -7.42728l68.08 -1.97257l89.7606 0.254271l51.1066 12.4914l15.1376 25.2075l6.27671 34.16l-0.268638 82.9487l0.0291888 84.2282l-0.00582149 87.5189l84.7837 67.8016l7.68593 8.96692l1.11464 7.19504
c0.44913 7.61262 -1.52476 12.8022 -3.31214 18.1783l-23.3304 38.8443l-33.0243 43.448l-34.3179 48.9016c-0.202711 16.1296 -0.202711 16.1296 -0.202711 17.6951zM483.769 160.295h12.4814c0.307617 -8.60156 0.615234 -17.2031 0.921875 -25.8047
c47.5498 1.66406 90.5371 21.6924 122.049 53.2041c11.4541 11.4541 21.3926 24.4258 29.4834 38.584l-19.9697 10.5977l-2.45801 -3.89062l-122.476 57.7871c-3.99512 -2.18945 -8.58203 -3.43262 -13.46 -3.43262c-15.4941 0 -28.0518 12.5586 -28.0518 28.0527
c0 11.8418 7.33496 21.9678 17.709 26.085v130.817h2.88086v23.9053c-24.4814 -1.15234 -94.1895 -10.6084 -140.82 -78.708c7.01465 -4.0498 14.0283 -8.09961 21.043 -12.1494l-7.20117 -12.4707c-7.16797 4.13965 -14.3359 8.27734 -21.5039 12.416
c-15.2002 -26.4941 -23.8916 -57.1855 -23.8916 -89.8994c0 -31.9033 8.31836 -61.9268 22.9082 -88.0088c7.41602 4.28125 14.8301 8.5625 22.2461 12.8447l7.20117 -12.4717c-7.30762 -4.21875 -14.6143 -8.4375 -21.9219 -12.6562
c31.3359 -46.8672 83.9062 -78.3555 143.751 -80.5938c-0.306641 8.59766 -0.614258 17.1953 -0.920898 25.792zM689.438 315.392c0 -109.249 -88.668 -197.916 -197.921 -197.916c-109.252 0 -197.919 88.667 -197.919 197.92c0 108.609 88.1387 197.265 196.74 197.916
h0.396484c109.267 0 198.268 -88.6748 198.703 -197.92zM497.278 496.312v-24.0176h1.88574l4.72656 -132.332c7.66992 -4.23828 13.1436 -11.9639 14.2842 -21.0381l120.62 -66.1182l-3.37988 -5.35254l19.1016 -10.1387c11.4346 23.6475 17.8955 50.1279 18.0156 78.084
c0 33.7676 -9.2627 65.376 -25.3828 92.4404c-6.98047 -4.36914 -13.96 -8.73926 -20.9395 -13.1084l-6.24121 10.8115c6.80957 4.2627 13.6201 8.52637 20.4307 12.7891c-13.9668 20.1523 -59.7109 75.3682 -143.121 77.9805zM48.3545 723.521h55.5146l17.1611 52.2256
l17.1602 -52.2256h55.5156l-44.8672 -32.2959l17.1611 -52.2246l-44.9697 32.2959l-44.9707 -32.2959l17.1611 52.2246z" />
  </g>

</svg>
