<?xml version="1.0" standalone="no"?>
<!DOCTYPE svg PUBLIC "-//W3C//DTD SVG 1.1//EN" "http://www.w3.org/Graphics/SVG/1.1/DTD/svg11.dtd" >
<svg xmlns="http://www.w3.org/2000/svg" xmlns:xlink="http://www.w3.org/1999/xlink" version="1.1" viewBox="-10 0 906 1000">
  <g transform="matrix(1 0 0 -1 0 800)">
   <path fill="currentColor"
d="M452.105 273.776c-4.78418 0 -8.57227 -3.90234 -8.57227 -8.54297v-300.105c0 -4.7666 3.91797 -8.54199 8.54199 -8.54199l373.938 -1.50879c4.70996 0 8.57227 3.82617 8.57227 8.54199l-0.804688 155.248l12.9453 0.793945
c13.0273 -0.706055 26.0547 -1.41211 39.083 -2.11719l-51.2236 59.6426v86.5381c0 4.73145 -3.87012 8.54199 -8.50977 8.54199l-212.295 -0.399414c-0.349609 10.8555 -0.698242 21.7109 -1.04785 32.5654c-0.756836 6.13867 -1.30859 10.4141 -2.72656 21.3984
l-57.9814 -52.459l-1.93945 0.0078125s-97.96 0.396484 -97.9805 0.396484zM470.623 -16.3564v263.013l80.8701 -0.34668l63.0283 -53.1514c-0.633789 23.9238 -0.811523 31.8213 -0.811523 39.3877c0 2.90234 0.00390625 3.60938 0.12207 15.3203l193.667 -2.65625
v-66.4404l-54.499 -59.7695c38.1592 1.01172 38.1592 1.01172 54.7812 1.91309l-0.282227 -138.717zM36.9775 -78.8359h55.5146l17.1611 52.2256l17.1602 -52.2256h55.5156l-44.8672 -32.2959l17.1611 -52.2246l-44.9697 32.2959l-44.9707 -32.2959l17.1611 52.2246z
M552.997 469.069c0 -0.179267 -0.00597906 -0.327867 -0.0123242 -0.502339l-4.99659 0.154727l0.0107422 0.413086zM479.346 702.804c0 0 0.0677052 -0.0788882 0.124642 -0.147547l-3.83679 -3.20642l-0.101562 0.120117zM307.354 476.72
c0 0.384014 0.0576766 0.568343 0.0576766 0.568343l4.94169 -0.757625l-0.0292969 -0.191406zM320.737 445.42c-0.255176 0.0710055 -0.507316 0.146392 -0.7568 0.224893l1.46852 4.77962l0.676758 -0.201172zM552.937 470.583
c0 -15.1322 -9.92956 -24.8529 -15.6751 -25.5687c-5.9666 -0.791162 -5.78466 -0.750328 -204.284 -0.833861c-10.9912 0.482308 -13.803 1.01855 -18.2012 5.41672c-5.86559 5.86559 -7.84172 12.6864 -7.84172 20.1367c0 7.65424 2.08581 15.9729 4.18262 24.6028
c0 0 0.0322415 0.131897 0.034461 0.131352c5.9431 22.2883 5.95335 22.3317 22.4247 90.1448c19.9537 79.3136 41.9001 142.042 95.6325 142.042c26.049 0 57.9595 -9.99945 84.161 -94.4925c14.091 -45.9448 38.3768 -151.971 38.7222 -153.715
c0.584015 -2.77292 0.844485 -5.39771 0.844485 -7.86461zM311.117 494.337c0 0 -1.4926e-05 -6.1451e-05 0 0zM532.735 407.46c32.014 0 53.634 30.1802 53.634 61.5587c0 13.217 -3.19441 26.6248 -6.54581 40.5853c-7.16017 28.4396 -14.1332 56.771 -20.9692 85.1837
c-21.9735 88.5296 -51.0839 168.865 -129.729 168.865c-24.9445 0 -65.7344 -10.2487 -94.4728 -69.0447c-18.2173 -37.3319 -24.8099 -64.3997 -49.3401 -165.315c-11.2257 -41.1291 -12.2111 -51.1161 -12.2111 -58.6328c0 -3.73854 0.693978 -30.2346 19.8637 -49.4043
c13.1678 -13.1678 28.0065 -13.6657 39.5282 -14.0363c0.571052 -0.01843 19.4027 -0.0320696 45.3202 -0.0320696c55.6282 0 143.899 0.0628359 154.316 0.276008c0.202811 -0.0022256 0.404896 -0.00333283 0.606258 -0.00333283zM73.7217 691.973l37.1855 54.043
c2.29785 3.33789 7.27246 3.3457 9.66113 0.306641l45.2246 -57.542c2.13086 -2.71191 1.47852 -6.79004 -1.3916 -8.70215c-0.647461 -0.430664 -1.41797 -0.741211 -2.13965 -0.887695l-7.70508 -1.55469c-2.23438 -0.450195 -4.58496 0.498047 -5.90234 2.17188
l-24.293 30.8799l1.17383 -123.925c0.0332031 -3.49219 -3.05469 -6.2207 -6.31641 -6.04785l-7.37012 0.388672c-3.27148 0.171875 -5.69727 3.08691 -5.68359 6.01953l0.578125 122.085l-19.7871 -28.708c-1.95801 -2.83984 -6.04492 -3.42676 -8.72266 -1.25293
c-0.408203 0.332031 -1.05078 1.10156 -1.0918 1.1582l-3.35059 4.66602c-1.54785 2.15625 -1.2666 5.16016 -0.0693359 6.90137z" />
  </g>

</svg>
