<?xml version="1.0" standalone="no"?>
<!DOCTYPE svg PUBLIC "-//W3C//DTD SVG 1.1//EN" "http://www.w3.org/Graphics/SVG/1.1/DTD/svg11.dtd" >
<svg xmlns="http://www.w3.org/2000/svg" xmlns:xlink="http://www.w3.org/1999/xlink" version="1.1" viewBox="-10 0 998 1000">
  <g transform="matrix(1 0 0 -1 0 800)">
   <path fill="currentColor"
d="M283.499 620.326l-12 60c128.725 89.7881 355.203 55.3633 442.457 48.5605c0 -0.0107422 0.000976562 -0.0214844 0.000976562 -0.0322266c27.4463 0.582031 75.1855 -1.32129 107.268 -33.4033c40.1396 -40.1396 38.6152 -108.841 37.5254 -169.365
c-0.395508 -21.9258 -0.433594 -33.2402 -0.22168 -41.9463c26.3789 -43.8281 72.168 -89.959 89.3252 -129.607c6.95117 -16.0635 5.49219 -24.7637 2.64551 -40.2051l-12 -14l-79.501 -63.5771v-212.431c1.93945 -31.0869 1.82422 -79.2412 -27.416 -108.48
c-26.0322 -26.0322 -182.507 -12.0195 -220.584 -13.0049l-2.90137 0.0126953c-103.732 -7.2998 -296.108 50.6025 -326.603 92.1719c-18.5059 25.2275 -31.4014 41.2529 -57.9951 55.3086v70.0371c25.8174 -16.2627 49.624 -17.8066 70.1904 -60.6357
c44.2188 -92.082 349.455 -105.734 451.309 -108.438l-0.499023 -0.962891c50 12 34.1514 4.48145 42.5352 13.5361c19.1768 20.7119 3.97852 41.9688 5.50781 57.9648h-0.541992v2.14941c-0.253906 0.990234 -0.500977 1.94141 -0.738281 2.84863h0.738281v207.174v3.4873
v1.33887h1.58203l104 88h1.13281c4.9834 45.8955 -62.8379 92.1289 -94.2158 139.501l-3 4l-1 1c-2.02051 3.99219 0.0439453 4.02539 -2.08398 11.5605c-0.0371094 0.130859 -0.189453 0.24707 -0.174805 0.367188l0.258789 2.07227l0.0644531 1.49902
c0.00976563 0.226562 0.150391 3.89551 0.242188 6.24414c3.11426 79.1523 14.1973 176.389 -74.8154 176.771c-136.35 16.7461 -373.536 9.53418 -431.49 -46.5137zM42.8535 740.847h55.5146l17.1611 52.2256l17.1602 -52.2256h55.5156l-44.8672 -32.2959l17.1611 -52.2246
l-44.9697 32.2959l-44.9707 -32.2959l17.1611 52.2246zM636.195 576.918l-72.25 -71.4004l56.4961 -53.6494l-13.1455 -10.9502l-56.6104 53.8896l-65.79 -58.9902l-9.54883 10.4414l64.6289 57.7295l-63.75 63.75l11.7295 11.2197l64.7705 -60.6904l73.2979 67.4473z
M636.195 576.918l-72.25 -71.4004l56.4961 -53.6494l-13.1455 -10.9502l-56.6104 53.8896l-65.79 -58.9902l-9.54883 10.4414l64.6289 57.7295l-63.75 63.75l11.7295 11.2197l64.7705 -60.6904l73.2979 67.4473zM587.322 269.364
c0 0.537109 -0.540039 2.01074 -1.00488 2.61426c-0.641602 0.475586 -2.18555 1.02637 -2.77441 1.02637c-2.12988 0 -3.65527 -1.47852 -5.03516 -2.85938c-0.595703 -0.59375 -1.37695 -0.892578 -2.1582 -0.892578c-1.26074 0 -1.95508 0.689453 -2.52148 1.25488
c-0.117188 0.118164 -2.125 1.87988 -3.30469 2.26953c-0.540039 0.177734 -0.891602 0.224609 -1.32715 0.224609c-0.561523 0 -2.04199 -0.507812 -2.74219 -1.00391c-0.297852 -0.47168 -0.308594 -0.506836 -1.02051 -2.95215
c0.0595703 -0.910156 0.489258 -2.76855 2.54102 -4.74707l8.38184 -8.08496l8.32129 8.00977c0.900391 0.901367 2.64453 2.67383 2.64453 5.14062zM565.584 286.752c0.108398 -1.91699 0.0419922 -4.4502 -0.124023 -7.33691
c2.72852 0.96582 6.56348 1.20703 10.8457 -1.79199c2.91602 2.07227 4.97852 2.43457 7.21191 2.47852c3.06934 0 6.375 -1.62891 7.77832 -3.0918c3.01562 -3.13672 5.72363 -10.6387 -1.70117 -17.8877c-8.77637 -8.56934 -9.82227 -9.53027 -10.1201 -9.79102
c-1.76758 -1.69824 -4.53125 -1.70312 -6.31543 0.0244141l-9.47949 9.18066c-0.324219 -3.75781 -0.581055 -7.24707 -0.655273 -10.0615c-0.0322266 -1.13965 -0.116211 -6.25098 0.808594 -6.74609c0.105469 -0.0361328 0.19043 -0.0947266 0.171875 -0.256836
c3.00488 -32.3135 33.5146 -62.5771 35.2119 -63.1992c0.0556641 -0.0195312 -0.105469 0.00488281 -0.105469 0.00488281l-0.160156 -0.0830078l-0.0859375 -0.194336l0.506836 -0.282227l-5.71582 -3.81152c-0.635742 0.694336 -0.941406 1.02734 -2.40137 2.60645
c-11.5918 12.5508 -24.2217 26.2402 -34.0459 59.5703c-2.7168 -15.7686 -12.4434 -33.0576 -21.2129 -44.1953c-5.65625 -7.18359 -7.57227 -12.2451 -12.7529 -18.001l-6.75879 5.35254c3.98535 5.16699 6.54199 8.6709 10.0742 13.5469
c1.99121 2.74805 3.82715 5.28027 5.78711 7.85645c23.9951 31.5176 24.7129 73.0527 24.5332 94.1572l6.97754 -0.15332c0.620117 -0.0136719 1.67285 -0.3125 1.63574 -2.20117c-0.0117188 -0.547852 -0.0595703 -2.99219 0.0917969 -5.69336v0zM643.871 377.798
c17.4414 0 43.2793 -9.50195 57.2646 -21.9668l0.126953 -0.135742c12.1289 -12.9355 22.1465 -38.126 22.1465 -55.7852c0 -1.77734 -0.106445 -4.13867 -0.134766 -4.80273c0 -0.0283203 -0.00390625 -0.0537109 -0.00390625 -0.0732422
c-0.0166016 -14.8213 -4.33203 -44.8027 -41.8086 -81.1357c-72.168 -69.9697 -111.706 -107.985 -119.549 -115.11c-1.03516 -0.94043 -0.854492 -1.16211 -2.34766 -1.73438l-1.55957 -0.655273c-2.18555 0.962891 -2.38867 1.05273 -3.04297 1.75488
c-9.49414 10.209 -121.392 116.976 -122.596 118.18c-12.7783 12.7773 -23.6807 29.7109 -25.3135 32.5176c-3.26367 5.65332 -7.61719 15.5332 -9.58887 21.7539c-3.31055 10.4482 -4.31348 20.5352 -4.35742 28.8535l-0.00488281 0.717773
c1.96094 5.5293 5.31641 20.6631 11.0762 35.5898c1.37598 3.56836 6.27539 15.6738 10.9062 19.8457c13.4727 12.1387 39.4209 22.1592 57.4756 22.1592c8.47656 0 16.9043 -1.20898 26.6592 -4.42773c16.0625 -5.30176 35.9648 -18.4082 54.374 -36.8174
c3.2832 -3.2832 3.74316 -3.5498 4.13867 -3.5498c0.0761719 0 0.150391 0.0107422 0.242188 0.0107422c0.78418 0 0.78418 0 8.15918 7.375c3.47754 3.47754 26.1348 25.4766 50.7314 33.582c10.6816 3.6377 23.6221 3.85449 27.0059 3.85449zM738.78 299.494v0.202148
c0 24.9092 -14.2939 54.8408 -27.4561 68.002c-8.7627 8.76367 -39.96 26.0293 -67.7539 26.0293c-16.4795 0 -28.3789 -3.66504 -32.4697 -5.12598c-7.4502 -2.49609 -18.3633 -7.79688 -24.9189 -12.1006c0.00878906 0.00488281 0.0166016 0.00976563 0.0253906 0.015625
c-0.00878906 -0.00585937 -0.0166016 -0.0107422 -0.0488281 -0.0322266c0.00878906 0.00585938 0.015625 0.0107422 0.0234375 0.0166016v-0.000976562c-11.1094 -7.53223 -17.0029 -11.5273 -28.7871 -22.001c-40.834 36.5322 -66.5693 38.752 -85.6133 38.752
c-25.6074 0 -56.9111 -15.1621 -68.7119 -26.9619c-8.7002 -8.70215 -25.9092 -38.8135 -25.9092 -66.1875c0 -16.7715 2.56152 -28.0693 4.6543 -34.5488c2.32227 -7.31641 7.16602 -18.2773 11.0107 -24.9229c1.06348 -1.83984 2.80078 -4.25879 12.0039 -16.542
l0.0966797 -0.794922c-0.00878906 0.0341797 -0.0361328 0.0576172 -0.0361328 0.0576172c0.00390625 -0.0117188 0.0166016 -0.0390625 0.0380859 -0.078125c2.72949 -5.04102 14.2461 -16.8398 18.4316 -20.8916l120.475 -116.665
c1.16992 -1.13379 6.29004 -5.86133 13.6562 -5.86133c4.20117 0 9.13477 1.53809 14.4824 6.16211c1.07031 0.924805 9.55762 8.26172 120.074 116.178c46.6611 45.5625 46.7334 80.832 46.7334 97.2998z" />
  </g>

</svg>
