<?xml version="1.0" standalone="no"?>
<!DOCTYPE svg PUBLIC "-//W3C//DTD SVG 1.1//EN" "http://www.w3.org/Graphics/SVG/1.1/DTD/svg11.dtd" >
<svg xmlns="http://www.w3.org/2000/svg" xmlns:xlink="http://www.w3.org/1999/xlink" version="1.1" viewBox="-10 0 1008 1000">
  <g transform="matrix(1 0 0 -1 0 800)">
   <path fill="currentColor"
d="M349.776 107.626l-82.2217 148.848l24.0225 10.1475l58.4395 -100.383l53.3027 101.418l27.2285 -11.0254zM266.863 -57.7744v34.6641h38.626v22.0713h-38.626v34.6641h38.626v33.7148h31.3828v-33.7148h23.2197v31.2539h31.3828v-31.2539h41.292v-34.6641h-41.292
v-22.0713h41.292v-34.6641h-41.292v-36.1855h-31.3828v36.1855h-23.2197v-33.7246h-31.3828v33.7246h-38.626zM336.872 -23.1104h23.2197v22.0713h-23.2197v-22.0713zM781.954 233.837c-0.529297 0 -0.985352 0.173828 -1.32227 0.358398l-214.094 -88.2627v-37.8242
c12.126 5.10742 24.251 10.2148 36.376 15.3213v-3.77051l-0.21875 -161.659h318.305l0.646484 155.446c10.9619 -6.48535 21.9238 -12.9697 32.8867 -19.4551l-0.677734 40.7051l-136.33 79.1182l1.46387 0.616211c-22.6963 11.7715 -24.457 12.7314 -36.2109 19.5508
c-0.288086 -0.102539 -0.56543 -0.144531 -0.824219 -0.144531zM885.889 -6.78223h-248.003l-0.665039 144.662l142.009 59.8174l107.859 -63.8086zM26.6494 -82.0967h55.5146l17.1611 52.2256l17.1602 -52.2256h55.5156l-44.8672 -32.2959l17.1611 -52.2246
l-44.9697 32.2959l-44.9707 -32.2959l17.1611 52.2246zM299.607 588.188c0 -5.57715 -4.40234 -21.3721 -18.3213 -21.3721c-0.0634766 0 -0.126953 0.000976562 -0.19043 0.000976562c0 0 -3.71191 -0.0751953 -3.81055 -0.0761719
c-9.57715 0.0332031 -19.1553 0.0507812 -28.7334 0.0507812c-9.57715 0 -19.1553 -0.0175781 -28.7324 -0.0507812h-0.144531c-3.67871 0.115234 -8.97754 0.28125 -13.4717 5.26172c-3.84277 4.25977 -5.73633 9.52441 -5.73633 15.3164
c0 4.41699 1.55957 10.3701 3.71289 18.2559c8.74316 35.9648 12.7656 52.5117 24.0898 63.8359c3.38672 3.38672 10.3447 8.99414 21.3945 8.99414c25.083 0 34.2588 -26.7168 40.6475 -52.6797c6.67969 -27.1338 6.67969 -27.1338 7.81641 -30.7832
c1.33203 -4.28027 1.47949 -4.75 1.47949 -6.75391zM219.894 580.206c52.0352 0.0214844 52.0352 0.0214844 59.2148 0.0214844c1.74707 0 7.33887 0 7.33887 6.81641c0 2.36914 -1.2998 7.47461 -3.68164 16.8359c-7.78613 31.9805 -11.4307 46.9492 -20.127 55.6445
c-3.5166 3.51562 -7.49121 5.42578 -13.2871 5.42578c-15.4805 0 -22.1709 -18.4805 -28.2949 -42.8779c-8.19629 -33.7432 -8.19629 -33.7432 -8.19629 -34.9404c0 -2.37891 1.35449 -6.46875 4.48242 -6.76367c0.867188 -0.0722656 1.69531 -0.125 2.55078 -0.162109z
M401.814 426.903c0 -5.57617 -4.40234 -21.3711 -18.3203 -21.3711h-0.191406c0 0 -3.71094 -0.0742188 -3.80957 -0.0761719c-9.57812 0.0332031 -19.1553 0.0507812 -28.7334 0.0507812s-19.1553 -0.0175781 -28.7334 -0.0507812h-0.144531
c-3.67773 0.115234 -8.97656 0.28125 -13.4707 5.26172c-3.84375 4.25977 -5.73633 9.52539 -5.73633 15.3164c0 4.41699 1.55957 10.3711 3.71289 18.2559c8.74219 35.9648 12.7646 52.5117 24.0898 63.8359c3.38672 3.38672 10.3447 8.99512 21.3945 8.99512
c25.082 0 34.2588 -26.7178 40.6465 -52.6797c6.68066 -27.1338 6.68066 -27.1338 7.81738 -30.7842c1.33203 -4.28027 1.47852 -4.75 1.47852 -6.75391zM322.102 418.921c52.0352 0.0224609 52.0352 0.0224609 59.2139 0.0224609c1.74805 0 7.33887 0 7.33887 6.81641
c0 2.36914 -1.29883 7.47363 -3.68164 16.835c-7.78516 31.9805 -11.4307 46.9492 -20.127 55.6455c-3.51562 3.51562 -7.49121 5.42578 -13.2861 5.42578c-15.4805 0 -22.1709 -18.4805 -28.2949 -42.8779c-8.19629 -33.7441 -8.19629 -33.7441 -8.19629 -34.9414
c0 -2.37891 1.35352 -6.46875 4.48242 -6.7627c0.866211 -0.0732422 1.69531 -0.125977 2.55078 -0.163086zM489.769 590.058c0 -5.57715 -4.40137 -21.3721 -18.3203 -21.3721c-0.0634766 0 -0.126953 0.000976563 -0.19043 0.000976563
c0 0 -3.71191 -0.0751953 -3.81055 -0.0761719c-9.57812 0.0332031 -19.1553 0.0507812 -28.7334 0.0507812c-9.57715 0 -19.1553 -0.0175781 -28.7334 -0.0507812h-0.144531c-3.67773 0.115234 -8.97656 0.28125 -13.4707 5.26172
c-3.84277 4.25977 -5.73633 9.52441 -5.73633 15.3164c0 4.41699 1.55957 10.3701 3.71289 18.2559c8.74219 35.9648 12.7646 52.5117 24.0898 63.8359c3.38672 3.38672 10.3447 8.99414 21.3945 8.99414c25.083 0 34.2588 -26.7168 40.6475 -52.6797
c6.67969 -27.1338 6.67969 -27.1338 7.81641 -30.7832c1.33203 -4.28027 1.47852 -4.75 1.47852 -6.75391zM410.056 582.075c52.0352 0.0214844 52.0352 0.0214844 59.2148 0.0214844c1.74707 0 7.33789 0 7.33789 6.81641c0 2.36914 -1.29883 7.47461 -3.68066 16.8359
c-7.78613 31.9805 -11.4307 46.9492 -20.127 55.6445c-3.5166 3.51562 -7.49121 5.42578 -13.2871 5.42578c-15.4805 0 -22.1709 -18.4805 -28.2949 -42.8779c-8.19629 -33.7432 -8.19629 -33.7432 -8.19629 -34.9404c0 -2.37891 1.35449 -6.46875 4.48242 -6.76367
c0.867188 -0.0722656 1.69531 -0.125 2.55078 -0.162109zM92.502 542.249c0 -119.514 111.567 -216.249 248.749 -216.249c137.165 0 248.749 96.7207 248.749 216.249c0 119.514 -111.567 216.249 -248.749 216.249c-137.165 0 -248.749 -96.7207 -248.749 -216.249z
M113 544.249c0 108.475 101.92 196.251 227.251 196.251c125.332 0 227.251 -87.7773 227.251 -196.251c0 -108.475 -101.92 -196.251 -227.251 -196.251c-125.332 0 -227.251 87.7773 -227.251 196.251zM890 640l-75.6396 -82.8789l84.1377 -77.3789l-16.498 -13.7422
l-84.2803 77.6807l-77.7197 -73.6807l-11.9824 13.1016l76.2627 72.0996l-72.2803 78.7988l14.7197 14.0801l73.5605 -74.959l76.9561 77.9189zM890 640l-75.6396 -82.8789l84.1377 -77.3789l-16.498 -13.7422l-84.2803 77.6807l-77.7197 -73.6807l-11.9824 13.1016
l76.2627 72.0996l-72.2803 78.7988l14.7197 14.0801l73.5605 -74.959l76.9561 77.9189z" />
  </g>

</svg>
