<?xml version="1.0" standalone="no"?>
<!DOCTYPE svg PUBLIC "-//W3C//DTD SVG 1.1//EN" "http://www.w3.org/Graphics/SVG/1.1/DTD/svg11.dtd" >
<svg xmlns="http://www.w3.org/2000/svg" xmlns:xlink="http://www.w3.org/1999/xlink" version="1.1" viewBox="-10 0 1015 1000">
  <g transform="matrix(1 0 0 -1 0 800)">
   <path fill="currentColor"
d="M828.399 483.872c0 9.49878 0.360099 25.4826 0.360099 28.905l-0.318652 61.3747l-8.69455 54.78l-24.0577 41.7601l-29.8355 19.1251l-33.9409 8.02542l-47.9505 1.85133v0.765382l-107.704 8.96128l-161.614 -4.8437l-135.511 -48.0118l4.97421 -24.8711
l90.1513 34.2037l168.519 13.9909l163.859 -8.05849l72.0585 -32.0852l24.6852 -76.5829c-11.2968 -92.7231 -11.5388 -94.7093 -10.6225 -98.1968c0.272553 -1.03738 0.408327 -1.98777 0.495372 -2.92219c0.487753 -0.641757 1.13403 -1.58506 1.4862 -2.05622
l30.4464 -40.7334l38.0432 -60.0682l23.93 -33.502l-96.7113 -80.2498l-3.19974 -219.288c0.962733 -7.56244 2.78458 -22.0112 5.01798 -45.877c-0.12894 -0.269919 -9.65147 -20.9678 -12.8349 -27.02c-1.80565 -3.43278 -3.36365 -6.39475 -8.94453 -11.1259
c-28.726 -6.87192 -37.6748 -9.01268 -53.7943 -9.01268c-3.38415 0 -6.77838 0.14333 -10.1737 0.446144l-127.95 -3.2205l-189.706 31.9736l-119.91 72.0259l-21.8729 31.5454c-0.18608 0.126152 -14.9542 10.3475 -18.5829 12.6523v-31.4635
c5.41685 -3.87145 13.5068 -7.36272 24.4398 -17.2503c7.32645 -6.62591 2.09556 -4.45645 10.6241 -11.9264c1.03002 -0.902171 1.03002 -0.902171 17.2005 -21.8062l70.2643 -41.1391l123.979 -35.7692l40.8353 -3.74581
c52.8258 -4.90757 59.0669 -6.73248 83.0467 -7.42728l68.08 -1.97257l89.7606 0.254271l51.1066 12.4914l15.1376 25.2075l6.27671 34.16l-0.268638 82.9487l0.0291888 84.2282l-0.00582149 87.5189l84.7837 67.8016l7.68593 8.96692l1.11464 7.19504
c0.44913 7.61262 -1.52476 12.8022 -3.31214 18.1783l-23.3304 38.8443l-33.0243 43.448l-34.3179 48.9016c-0.202711 16.1296 -0.202711 16.1296 -0.202711 17.6951zM33.2949 712.521h55.5146l17.1611 52.2256l17.1602 -52.2256h55.5156l-44.8672 -32.2959
l17.1611 -52.2246l-44.9697 32.2959l-44.9707 -32.2959l17.1611 52.2246zM622.677 588.979l-41.0596 -39.2734l-39.4238 39.1992l-8.13281 -7.7793l39.0195 -40.5889l-39.5928 -40.2637l8.73633 -9.55273l40.3623 41.082l44.2598 -40.7422l9.03516 7.52637l-44.5146 40.917
l40.833 41.2383zM630.959 459.31l-41.0586 -39.2744l-39.4248 39.2002l-8.13281 -7.7793l39.0195 -40.5889l-39.5918 -40.2637l8.73535 -9.55273l40.3623 41.082l44.2607 -40.7432l9.03516 7.52637l-44.5156 40.917l40.833 41.2393zM440.5 232.75h258.5v-154.75h-258.5
v154.75zM683.41 216.918h-44.2441v-76.417h-15.832v76.417h-46.835v-76.417h-15.832v76.417h-46.834v-76.417h-15.832v76.417h-41.668v-123.086h226.842zM176.237 382.365zM176.025 379.854zM326.935 353.714c0 19.6777 -6.77637 37.583 -22.4141 53.2207
c-8.84863 8.84863 -17.7852 14.2715 -26.1562 17.5684l-23.7588 9.35742c29.3467 -5.06836 29.3467 -5.06836 33.2002 -6.21875c0.423828 0.144531 0.977539 0.258789 1.5332 0.15625c36.251 -6.67773 63.7568 -22.8223 83.457 -42.5244
c10.207 -10.2061 17.207 -19.96 23.7217 -31.2471c-16.9824 -29.4824 -46.0195 -62.7432 -108.688 -73.9102l-13.4727 -2.40039c12.1768 7.47363 18.9668 11.1367 30.4971 22.8848c15.9961 15.9951 22.0811 34.2383 22.0811 53.1133zM249.492 294.61
c-16.5352 0 -31.0645 5.66504 -43.084 17.6855c-17.4736 17.4756 -21.2227 40.9473 -13.5146 62.2852l0.895508 2.47754l0.595703 -0.220703c12.1143 17.8799 12.1143 17.8799 12.8232 18.9111c18.9336 12.3955 18.9336 12.3955 19.1836 12.4268
c13.3701 5.62305 42.1738 10.7412 66.3076 -13.3926c11.998 -11.998 17.0938 -25.958 17.1455 -40.8457c0 -10.3428 -2.19141 -26.292 -17.1484 -41.25c-7.02148 -7.02051 -20.3867 -18.0771 -43.2041 -18.0771zM426.818 354.024
c-9.30078 16.5068 -54.5498 96.0469 -173.735 96.0469c-71.6748 0 -116.628 -28.6611 -143.313 -55.3467c-11.3662 -11.3662 -21.1719 -23.8145 -30.7998 -40.6992c8.51562 -14.9297 18.001 -27.7949 29.9277 -39.7217c44.2607 -44.2617 98.6816 -56.0947 144.186 -56.0947
c21.8818 0 89.2842 1.39453 143.87 55.9795c15.6123 15.6123 24.957 31.0938 29.8652 39.8359zM218.369 422.943c-7.13184 -2.68164 -18.2988 -9.74805 -22.6426 -14.0918c-5.80371 -5.80371 -5.80371 -5.80371 -7.13086 -8.01758
c-1.11328 -1.85742 -1.35449 -2.09082 -2.80664 -3.40039c-2.04199 -1.84473 -2.72754 -2.67969 -3.49414 -4.63281c-0.600586 -1.53027 -4.20117 -8.0498 -5.20996 -10.8545c0.133789 -0.658203 0.0400391 -1.31055 -0.136719 -1.77246
c-8.21484 -21.5098 -8.61523 -53.8252 17.1221 -79.5625c6.68359 -6.68359 13.6504 -11.3535 20.3408 -14.6348l18.3916 -9.02344l-20.0723 4.11328c-37.0059 7.58105 -62.5996 24.666 -79.7285 41.7949c-10.1631 10.165 -17.2285 19.9258 -23.7383 31.1631
c12.2197 21.1777 39.4639 61.5293 107.712 73.9395z" />
  </g>

</svg>
