<?xml version="1.0" standalone="no"?>
<!DOCTYPE svg PUBLIC "-//W3C//DTD SVG 1.1//EN" "http://www.w3.org/Graphics/SVG/1.1/DTD/svg11.dtd" >
<svg xmlns="http://www.w3.org/2000/svg" xmlns:xlink="http://www.w3.org/1999/xlink" version="1.1" viewBox="-10 0 1032 1000">
  <g transform="matrix(1 0 0 -1 0 800)">
   <path fill="currentColor"
d="M704.984 545.209l70.6055 82.5898l70.0713 -78.5059l-12.3887 -11.8506l-49.2285 57.8008l2.91113 -209.871l-20.7832 0.945312l1.74219 208.76l-50.3232 -60.8311zM61.3555 -195.457h55.5146l17.1611 52.2256l17.1602 -52.2256h55.5156l-44.8672 -32.2959
l17.1611 -52.2246l-44.9697 32.2959l-44.9707 -32.2959l17.1611 52.2246zM462.912 148.612c0 7.42871 6.04688 13.542 13.5918 13.542c-0.0185547 0 84.0664 -0.339844 97.9805 -0.396484l63.6426 57.5801c1.31836 -10.3857 2.69043 -20.7168 3.97363 -31.1357
l0.899414 -27.9482l207.444 0.390625c7.38477 0.0136719 13.5186 -6.03027 13.5186 -13.541v-84.6846l57.6465 -67.1211c-16.8291 0.911133 -33.6582 1.82324 -50.4873 2.73438l-7.93945 -0.486328l0.780273 -150.522
c0.0380859 -7.41797 -6.04102 -13.5664 -13.5918 -13.5664c0.0205078 0 -373.918 1.50879 -373.918 1.50879c-7.40332 0 -13.541 6.02734 -13.541 13.541v300.105zM500 -128l326.888 -1.4043l0.261719 128.418c-11.4902 -0.623047 -11.4902 -0.623047 -61.3779 -1.94238
l61.1064 67.0156v59.5713l-183.72 2.51953c-0.155273 -15.4521 -0.15918 -15.8955 1.03516 -60.6455l-70.1602 59.165l-74.0332 0.317383v-253.015zM233.01 449.4l-82.2217 148.848l24.0225 10.1475l58.4395 -100.383l53.3027 101.418l27.2285 -11.0254zM150.097 284
v34.6641h38.626v22.0713h-38.626v34.6641h38.626v33.7148h31.3828v-33.7148h23.2197v31.2539h31.3828v-31.2539h41.292v-34.6641h-41.292v-22.0713h41.292v-34.6641h-41.292v-36.1855h-31.3828v36.1855h-23.2197v-33.7246h-31.3828v33.7246h-38.626zM220.105 318.664
h23.2197v22.0713h-23.2197v-22.0713z" />
  </g>

</svg>
