<?xml version="1.0" standalone="no"?>
<!DOCTYPE svg PUBLIC "-//W3C//DTD SVG 1.1//EN" "http://www.w3.org/Graphics/SVG/1.1/DTD/svg11.dtd" >
<svg xmlns="http://www.w3.org/2000/svg" xmlns:xlink="http://www.w3.org/1999/xlink" version="1.1" viewBox="-10 0 1001 1000">
  <g transform="matrix(1 0 0 -1 0 800)">
   <path fill="currentColor"
d="M44.1211 730.836h55.5146l17.1611 52.2256l17.1602 -52.2256h55.5156l-44.8672 -32.2959l17.1611 -52.2246l-44.9697 32.2959l-44.9707 -32.2959l17.1611 52.2246zM817.797 620.283c0 -96.6865 68.0879 -173.199 99.375 -191.775l11.1992 -6.64941
c-16.9434 -0.478516 1.18945 0.900391 -34.5742 -3.5752l-1.0752 1.36426c-22.0068 27.9238 -93.998 110.011 -106.903 207.233c-0.657227 4.95117 0.0224609 9.79688 0.582031 18.2783c-1.38379 0.708984 -2.88672 1.4873 -4.52246 2.34082
c-0.0283203 -1.83984 -0.322266 -3.81641 -0.0449219 -5.88867c33.3789 -249.661 97.5459 -216.742 97.5459 -216.742s6.91211 -4.29004 10.2793 -6.58594h-32.8613c-44.1455 16.1279 -101.697 151.17 -101.697 222.331c0 8.73535 0.302734 15.3135 0.785156 20.6846
c-60.6641 32.3369 -181.179 64.7012 -284.885 64.7012c-23.0527 0 -45.5234 -2.04883 -73.3945 -6.17773c-32.3232 -4.78906 -32.3232 -4.78906 -70.6152 -21.2002c-18.916 -8.10645 -50.2139 -47.4062 -58.166 -66.7188
c-7.02734 -17.0664 -9.0791 -30.2676 -9.0791 -45.8906c0 -22.332 3.62891 -44.376 3.62891 -77.1553c0 -8.99219 1.14648 -13.8564 1.14648 -20.1924c0 -4.57031 -0.613281 -9.64551 -2.73242 -16.6025c-19.9492 -65.4795 -40.3174 -87.0479 -63.832 -110.183
c-6.25977 -6.16016 -27.0508 -26.6172 -27.0508 -37.7881c0 -4.45605 0.882812 -6.9082 38.3447 -19.4531c55.9199 -18.7266 60.0254 -24.4102 60.0254 -90.9766c0 -43.0117 2.70801 -110.013 2.70801 -151.731c0 -5.5 0.0820312 -11.3867 0.267578 -17.7666
c0.50293 -17.292 16.4512 -45.3398 23.8975 -57.5352c1.19629 -0.303711 1.95996 -1.18164 1.95996 -1.18164c1.1543 -0.666992 2.48438 -1.60059 4.13477 -2.74414c16.0508 -11.1162 22.0049 -13.1846 40.8428 -13.1846c24.0361 0 22.3457 4.21484 79.0615 4.21484
c0.316406 0 6.94531 -0.00390625 7.01562 -0.00390625c14.7988 0 25.668 0.226562 52.1025 3.80078c20.2021 2.73242 38.8271 4.61621 56.5088 6.4043c120.938 12.2334 201.711 24.1475 280.178 80.1953c2.23438 1.5957 5.14355 3.85352 8.45703 6.42773
c12.6104 9.7959 33.0303 26.8994 48.1416 26.8994c8.16699 0 13.834 -4.95996 13.834 -14.165c0 -15.4473 -17.4082 -42.8486 -33.0938 -42.8486c-1.16406 0 -1.56543 0.129883 -3.01758 0.129883c-22.6426 0 -44.3604 -36.5264 -79.4766 -51.29
c-52.8857 -22.2344 -138.298 -27.127 -175.459 -33.71c-17.2549 -3.05664 -36.6504 -6.49316 -61.8809 -12.2393c-34.7246 -7.90918 -51.6299 -8.61133 -86.7539 -8.61133c-0.251953 0 -22.7891 0.03125 -25.0811 0.03125c-11.3115 0 -32.6182 -0.123047 -32.9473 -0.123047
c-40.7773 0 -82.5049 2.86621 -120.91 24.8125c-26.0957 14.9121 -27.9092 36.1035 -30.0449 61.0586c-0.477539 5.59082 -0.976562 11.3994 -1.75781 17.3906c-1.96484 15.7158 -2.63672 29.7119 -2.63672 42.8916c0 28.6572 -4.27441 100.664 -4.27441 131.409
c0 46.4277 -4.59863 49 -29.7539 58.8145c-27.3184 10.6582 -57.2148 13.2568 -70.834 26.876c-4.33008 4.33008 -6.66504 9.68945 -6.66504 16.1094c0 4.7959 1.30371 10.1846 4.05176 16.1768c36.4951 79.5967 68.6367 70.0742 91.3711 139.761
c5.20312 15.9443 6.93652 32.2529 6.93652 48.6797c0 32.5635 -6.77832 65.1611 -6.77832 95.8125c0 47.6494 17.2412 68.3838 35.0508 86.1934c66.2422 66.2412 143.674 66.3555 238.901 66.3555h0.988281c82.8154 0 190.135 -23.3467 246.021 -49.8477
c43.5547 -20.6533 21.8506 -15.7109 32.4561 -16.8408c11.3984 -1.2168 39 -13 47.5039 -30.4053c4.31641 -8.83496 -4.12305 -21.668 -4.50391 -29.5947c-0.257812 -5.36523 2 -14.3428 2 -20zM439.863 188.879c14.3213 0 29.0166 7.94629 33.4912 23.7734
l0.598633 2.11328l9.13672 -2.55762c-1.37402 -4.93848 -3.42969 -12.333 -10.7949 -19.6982c-8.54492 -8.54492 -20.6025 -12.9258 -32.5674 -12.9258c-11.3779 0 -22.6719 3.96191 -30.7822 12.0723c-7.55176 7.55078 -9.50488 15.5117 -10.7715 20.6689l9.1709 2.10938
c1.17871 -4.54004 2.71094 -10.4414 8.45801 -16.1885c6.27832 -6.27832 15.1279 -9.36719 24.0605 -9.36719zM364.92 215.503c0 34.4131 34.0264 62.4736 75.999 62.4736c41.9746 0 75.998 -28.0137 75.998 -62.4248c0 -34.4131 -34.0264 -62.4746 -75.998 -62.4746
c-41.9756 0 -75.999 28.0146 -75.999 62.4258zM374.229 215.552c0 -29.333 30.0254 -53.165 66.6895 -53.165c36.6621 0 66.6895 23.7822 66.6895 53.1162c0 29.332 -30.0254 53.165 -66.6895 53.165c-36.6621 0 -66.6895 -23.7832 -66.6895 -53.1162zM458.147 238.954
c0 3.7041 2.64648 6.70312 5.99707 6.70312c3.35254 0 5.99707 -2.99902 5.99707 -6.70312c0 -3.7041 -2.64453 -6.70312 -5.99707 -6.70312c-3.35059 0 -5.99707 2.99902 -5.99707 6.70312zM415.458 239.307c0 3.52832 2.64648 6.35059 5.99805 6.35059
s5.99805 -2.82227 5.99805 -6.35059s-2.64648 -6.34961 -5.99805 -6.34961s-5.99805 2.82129 -5.99805 6.34961zM590.042 275.775c0 1.85645 -0.0341797 3.23242 -0.0341797 3.26465c0.0361328 0.705078 0.216797 1.31152 0.28125 1.37695
c0 0.0576172 0 0.0576172 11.0254 0.300781c-0.00976562 -1.61133 -0.0166016 -3.27344 -0.0166016 -4.98438c0 -43.0371 3.96484 -116.858 47.4795 -174.018c5.98242 -7.8584 18.2627 -25.2129 28.7969 -38.9355l-9.0166 -7.13867
c-7.96387 9.45215 -11.9404 20.3359 -22.7568 32.5654c-19.1328 21.6309 -37.8018 55.7812 -40.4004 85.8623l-0.958984 11.1025l-2.86816 -10.7676c-6.6543 -24.9785 -20.5566 -31.1064 -30.7812 -35.5928c-6.83301 -2.99902 -12.3242 -5.40918 -12.3242 -12.4072
c0 -5.96582 1.39258 -10.543 33.4697 -49.2129c0.910156 -1.09766 1.66602 -2.01074 2.20996 -2.67188l-4.8457 -5.87402c-6.63672 9.90527 -40.3281 32.0635 -40.3281 55.1582c0 21.1084 27.2266 23.7471 43.792 56.5273
c0.433594 0.856445 2.01172 2.32129 2.01172 11.2725c0 17.9443 -5.04395 53.9512 -5.04395 72.3154c0 4.23633 0.308594 5.48926 0.308594 11.8564zM590.007 279.07c0 -0.00683594 0.000976562 -0.0166016 0.000976562 -0.0302734
c0.000976562 0.0166016 -0.000976562 0.0302734 -0.000976562 0.0302734zM601.314 280.718zM677.574 62.7803l1.51074 1.19629l-0.336914 -2.72168c-0.395508 0.513672 -0.787109 1.02246 -1.17383 1.52539zM668.558 55.6416
c0.390625 -0.463867 0.791016 -0.923828 1.20215 -1.38184l-2.66016 0.227539zM594.147 74.5195zM565.802 53.9971zM589.728 265.973zM483.122 405.854c0 0.0625 -0.259766 0.113281 -0.578125 0.113281c-0.570312 -0.000976563 -2.22656 0.366211 -2.76074 0.611328
c-0.149414 0.0673828 -0.748047 0.378906 -1.3291 0.689453c-1.78906 0.958008 -3.61426 3.23828 -4.32812 5.40625c-0.178711 0.544922 -0.396484 1.05957 -0.484375 1.14258c-0.0878906 0.0839844 -0.228516 0.558594 -0.3125 1.05469
c-0.62793 3.66016 0.87793 8.05176 4.06738 11.8691c3.23535 3.87109 8.80078 7.40918 13.4014 8.51953c1.17578 0.28418 1.81543 0.335938 4.18262 0.335938c2.42285 0 2.93066 -0.0419922 3.8252 -0.321289c0.863281 -0.267578 2.76758 -1.03125 3.7041 -1.48438
c0.227539 -0.109375 0.239258 2.19824 0.239258 47.2324v47.3467l1.78223 -0.0419922l1.78223 -0.0419922l0.0400391 -2.74414c0.0292969 -1.96777 0.124023 -3.25977 0.333984 -4.57227c1.23535 -7.71191 2.88281 -10.8701 10.9746 -21.0342
c9.39746 -11.8047 12.8818 -18.5215 14.0762 -27.1309c0.369141 -2.66602 0.332031 -7.66406 -0.0771484 -10.2109c-0.410156 -2.55371 -1.46094 -7.17383 -2.27148 -9.98438c-2.16309 -7.50195 -5.3457 -15.2461 -6.66406 -16.2109
c-0.237305 -0.174805 -0.350586 -0.198242 -0.350586 -0.0742188c0 0.101562 0.897461 2.76074 1.99512 5.91016c4.04688 11.6133 4.87793 15.0732 4.87207 20.2822c-0.00488281 4.09375 -0.514648 7.55469 -1.70605 11.584
c-1.8916 6.39746 -4.47168 10.8613 -8.03125 13.8975c-3.39941 2.90137 -9.88477 6.45117 -12.3896 6.7832l-0.686523 0.0908203l-0.0185547 -12.1768c-0.00976562 -6.69727 -0.0576172 -22.5342 -0.106445 -35.1924l-0.0878906 -23.0156l-0.445312 -1.44629
c-0.59082 -1.91797 -1.72559 -4.50098 -2.67969 -6.09863c-0.790039 -1.32227 -2.05273 -2.89551 -2.32324 -2.89551c-0.0830078 0 -0.275391 -0.155273 -0.427734 -0.342773c-0.243164 -0.300781 -0.701172 -0.757812 -1.93945 -1.9375
c-0.180664 -0.171875 -0.368164 -0.311523 -0.416992 -0.311523c-0.0488281 0 -0.211914 -0.125977 -0.361328 -0.282227c-0.563477 -0.587891 -4.50391 -3.07129 -4.87305 -3.07129c-0.0439453 0 -0.480469 -0.206055 -0.97168 -0.456055
c-0.491211 -0.251953 -0.945312 -0.458008 -1.01074 -0.458008c-0.147461 0 -1.48828 -0.448242 -1.85156 -0.618164c-0.376953 -0.177734 -2.00781 -0.478516 -3.03223 -0.55957c-0.46875 -0.0361328 -0.851562 -0.113281 -0.851562 -0.168945
s-0.429688 -0.101562 -0.954102 -0.101562c-0.524414 0 -0.954102 0.0517578 -0.955078 0.114258v0.000976563zM607.36 398.922zM380.536 551.521zM338.177 473.539zM376.819 397.324zM449.519 374.453zM647.819 491.172zM338.177 473.539zM647.819 491.172zM547.38 591.288
c-15.9893 0 -29.5254 -6.21777 -36.3906 -13.084c-2.61328 -2.61328 -1.94629 -2.74902 -3.02637 -3.14258c-4.85449 -1.76953 -9.61035 -2.40918 -13.9531 -2.40918c-4.09766 0 -11.5439 0.604492 -19.6064 4.22656c-5.47949 6.66797 -14.7461 12.7383 -30.3242 12.7383
c-23.3877 0 -50.0586 -14.4766 -59.335 -36.167l-0.458008 -1.07129h-1.61328l-42.2578 -57.416h-2.02051v-2.74609c-0.274414 -0.37207 -0.548828 -0.744141 -0.822266 -1.11523h0.441406l-4.67969 -17.5508l-0.527344 0.00878906
c-0.0947266 -1.79688 -0.262695 -2.83008 -0.831055 -5.06445h0.681641c-0.015625 -1.9834 -0.015625 -1.9834 -0.015625 -2.18555c0 -12.8301 5.53516 -38.7969 42.4375 -69.3174c38.9756 -32.2344 83.0518 -35.7891 119.591 -35.7891
c59.8896 0 84.3057 7.50488 120.143 35.8242c43.7783 34.5928 44.5166 44.7783 45.7227 70.0625l-1.22559 0.0195312c-0.0751953 0.28125 -5.45312 22.2227 -7.35938 28.1299l-31.2891 53.4678c-3.52637 3.67969 -3.52637 3.67969 -3.88281 4.29004h-0.231445
c-11.001 11.2588 -34.0615 32.3281 -56.5781 36.9971c-4.30859 0.893555 -8.52734 1.29395 -12.5889 1.29395zM443.468 575.825c3.36719 0 10.8477 0 19.377 -5.86914l-0.0664062 -0.814453c0.492188 -0.201172 1.28125 -0.572266 2.04785 -1.30078
c7.22754 -6.86816 18.335 -10.0928 28.8809 -10.0928c9.82422 0 19.1592 2.79883 24.415 8.05566c1.02344 1.02148 2.67383 2.67285 3.9502 6.51758c5.41602 3.69629 14.0186 7.72852 25.7607 7.72852c15.582 0 22.8672 -6.78711 28.4531 -11.9873
c4.34082 -4.04395 10.0586 -9.38086 22.3525 -17.5156c0.470703 -0.102539 0.856445 -0.328125 1.16504 -0.678711l0.270508 0.0107422l35.1631 -55.4619c0 -0.0947266 -0.00195313 -0.19043 -0.00195313 -0.28418c2.52148 -9.44922 4.82422 -19.1172 7.25195 -28.6592
c0.849609 -3.39062 1.32617 -6.5332 1.32617 -9.57715c0 -14.6016 -10.8633 -26.4316 -42.1562 -52.0049c-28.8379 -23.5635 -49.7188 -31.6455 -112.652 -31.6455c-34.0693 0 -61.5312 4.18555 -93.6035 26.6357c-39.5361 27.6758 -44.8535 48.0557 -44.8535 66.207
c0 1.19727 0.0234375 2.37598 0.0566406 3.53711c1.97266 7.8291 4.11523 15.4893 6.15234 23.2529l38.5322 54.5508c0.545898 -0.209961 1.0918 -0.419922 1.6377 -0.628906c1.29688 3.05469 3.50781 8.26172 9.50586 14.2598
c9.66406 9.66406 23.9678 15.7646 37.0352 15.7646z" />
  </g>

</svg>
