<?xml version="1.0" standalone="no"?>
<!DOCTYPE svg PUBLIC "-//W3C//DTD SVG 1.1//EN" "http://www.w3.org/Graphics/SVG/1.1/DTD/svg11.dtd" >
<svg xmlns="http://www.w3.org/2000/svg" xmlns:xlink="http://www.w3.org/1999/xlink" version="1.1" viewBox="-10 0 1040 1000">
  <g transform="matrix(1 0 0 -1 0 800)">
   <path fill="currentColor"
d="M461.283 761.6c30.2646 0 44.9668 -32.2041 44.9668 -66.0693c0 -34.6133 -14.2344 -59.2529 -41.4629 -97.6436c-17.7881 -24.9092 -22.085 -32.3174 -26.0195 -42.2715l66.2324 2.84863v-30.4639l-93.6963 -2.97461
c-0.0400391 2.1543 -0.0439453 2.35156 -0.0439453 3.13281c-1.06348 -0.183594 -2.15723 -0.280273 -3.27344 -0.280273c-10.5488 0 -19.0996 8.55176 -19.0996 19.0996c0 10.5498 8.55078 19.1006 19.0996 19.1006c3.73828 0 7.22461 -1.07324 10.1699 -2.92969
c7.79199 20.7129 20.5049 38.5996 29.0742 50.2949c26.1572 35.7793 38.4238 58.6689 38.4238 82.7227c0 20.3496 -9.1377 38.7959 -24.751 38.7959c-15.0908 0 -25.6719 -15.7969 -25.7988 -45.1494l-0.0078125 -1.77051l-14.6113 2.50293
c-2.96387 -1.89062 -6.4834 -2.98535 -10.2588 -2.98535c-10.5488 0 -19.0996 8.55078 -19.0996 19.0996c0 10.5488 8.55078 19.0996 19.0996 19.0996c3.26074 0 6.33105 -0.817383 9.0166 -2.25781c2.8291 9.7832 7.37891 19.6309 14.7969 27.0488
c7.34961 7.34961 16.502 11.0498 27.2432 11.0498zM348.481 97.6934l-82.2217 148.848l24.0225 10.1475l58.4395 -100.383l53.3027 101.418l27.2285 -11.0254zM265.568 -67.707v34.6641h38.626v22.0713h-38.626v34.6641h38.626v33.7148h31.3828v-33.7148h23.2197v31.2539
h31.3828v-31.2539h41.292v-34.6641h-41.292v-22.0713h41.292v-34.6641h-41.292v-36.1855h-31.3828v36.1855h-23.2197v-33.7246h-31.3828v33.7246h-38.626zM335.577 -33.043h23.2197v22.0713h-23.2197v-22.0713zM780.659 223.904
c-0.529297 0 -0.985352 0.173828 -1.32227 0.358398l-214.094 -88.2627v-37.8242c12.126 5.10742 24.251 10.2148 36.376 15.3213v-3.77051l-0.21875 -161.659h318.305l0.646484 155.446c10.9619 -6.48535 21.9238 -12.9697 32.8867 -19.4551l-0.677734 40.7051
l-136.33 79.1182l1.46387 0.616211c-22.6963 11.7715 -24.457 12.7314 -36.2109 19.5508c-0.288086 -0.102539 -0.56543 -0.144531 -0.824219 -0.144531zM884.594 -16.7148h-248.003l-0.665039 144.662l142.009 59.8174l107.859 -63.8086zM63.3545 -23.4795h55.5146
l17.1611 52.2256l17.1602 -52.2256h55.5156l-44.8672 -32.2959l17.1611 -52.2246l-44.9697 32.2959l-44.9707 -32.2959l17.1611 52.2246z" />
  </g>

</svg>
