<?xml version="1.0" standalone="no"?>
<!DOCTYPE svg PUBLIC "-//W3C//DTD SVG 1.1//EN" "http://www.w3.org/Graphics/SVG/1.1/DTD/svg11.dtd" >
<svg xmlns="http://www.w3.org/2000/svg" xmlns:xlink="http://www.w3.org/1999/xlink" version="1.1" viewBox="-10 0 978 1000">
  <g transform="matrix(1 0 0 -1 0 800)">
   <path fill="currentColor"
d="M30.3242 741.553h55.5146l17.1611 52.2256l17.1602 -52.2256h55.5156l-44.8672 -32.2959l17.1611 -52.2246l-44.9697 32.2959l-44.9707 -32.2959l17.1611 52.2246zM804 631c0 -96.6865 68.0879 -173.199 99.375 -191.775l11.1992 -6.64941
c-16.9434 -0.478516 1.18945 0.900391 -34.5742 -3.5752l-1.0752 1.36426c-22.0068 27.9238 -93.998 110.011 -106.903 207.233c-0.657227 4.95117 0.0224609 9.79688 0.582031 18.2783c-1.38379 0.708984 -2.88672 1.4873 -4.52246 2.34082
c-0.0283203 -1.83984 -0.322266 -3.81641 -0.0449219 -5.88867c33.3789 -249.661 97.5459 -216.742 97.5459 -216.742s6.91211 -4.29004 10.2793 -6.58594h-32.8613c-44.1455 16.1279 -101.697 151.17 -101.697 222.331c0 8.73535 0.302734 15.3135 0.785156 20.6846
c-60.6641 32.3369 -181.179 64.7012 -284.885 64.7012c-23.0527 0 -45.5234 -2.04883 -73.3945 -6.17773c-32.3232 -4.78906 -32.3232 -4.78906 -70.6152 -21.2002c-18.916 -8.10645 -50.2139 -47.4062 -58.166 -66.7188
c-7.02734 -17.0664 -9.0791 -30.2676 -9.0791 -45.8906c0 -22.332 3.62891 -44.376 3.62891 -77.1553c0 -8.99219 1.14648 -13.8564 1.14648 -20.1924c0 -4.57031 -0.613281 -9.64551 -2.73242 -16.6025c-19.9492 -65.4795 -40.3174 -87.0479 -63.832 -110.183
c-6.25977 -6.16016 -27.0508 -26.6172 -27.0508 -37.7881c0 -4.45605 0.882812 -6.9082 38.3447 -19.4531c55.9199 -18.7266 60.0254 -24.4102 60.0254 -90.9766c0 -43.0117 2.70801 -110.013 2.70801 -151.731c0 -5.5 0.0820312 -11.3867 0.267578 -17.7666
c0.50293 -17.292 16.4512 -45.3398 23.8975 -57.5352c1.19629 -0.303711 1.95996 -1.18164 1.95996 -1.18164c1.1543 -0.666992 2.48438 -1.60059 4.13477 -2.74414c16.0508 -11.1162 22.0049 -13.1846 40.8428 -13.1846c24.0361 0 22.3457 4.21484 79.0615 4.21484
c0.316406 0 6.94531 -0.00390625 7.01562 -0.00390625c14.7988 0 25.668 0.226562 52.1025 3.80078c20.2021 2.73242 38.8271 4.61572 56.5088 6.4043c120.938 12.2334 201.711 24.1475 280.178 80.1953c2.23438 1.5957 5.14355 3.85352 8.45703 6.42773
c12.6104 9.7959 33.0303 26.8994 48.1416 26.8994c8.16699 0 13.834 -4.95996 13.834 -14.165c0 -15.4473 -17.4082 -42.8486 -33.0938 -42.8486c-1.16406 0 -1.56543 0.129883 -3.01758 0.129883c-22.6426 0 -44.3604 -36.5264 -79.4766 -51.29
c-52.8857 -22.2344 -138.298 -27.127 -175.459 -33.71c-17.2549 -3.05664 -36.6504 -6.49316 -61.8809 -12.2393c-34.7246 -7.90918 -51.6299 -8.61133 -86.7539 -8.61133c-0.251953 0 -22.7891 0.03125 -25.0811 0.03125c-11.3115 0 -32.6182 -0.123047 -32.9473 -0.123047
c-40.7773 0 -82.5049 2.86621 -120.91 24.8125c-26.0957 14.9121 -27.9092 36.1035 -30.0449 61.0586c-0.477539 5.59082 -0.976562 11.3994 -1.75781 17.3906c-1.96484 15.7158 -2.63672 29.7119 -2.63672 42.8916c0 28.6572 -4.27441 100.664 -4.27441 131.409
c0 46.4277 -4.59863 49 -29.7539 58.8145c-27.3184 10.6582 -57.2148 13.2568 -70.834 26.876c-4.33008 4.33008 -6.66504 9.68945 -6.66504 16.1094c0 4.7959 1.30371 10.1846 4.05176 16.1768c36.4951 79.5967 68.6367 70.0742 91.3711 139.761
c5.20312 15.9443 6.93652 32.2529 6.93652 48.6797c0 32.5635 -6.77832 65.1611 -6.77832 95.8125c0 47.6494 17.2412 68.3838 35.0508 86.1934c66.2422 66.2412 143.674 66.3555 238.901 66.3555h0.988281c82.8154 0 190.135 -23.3467 246.021 -49.8477
c43.5547 -20.6533 21.8506 -15.7109 32.4561 -16.8408c11.3984 -1.2168 39 -13 47.5039 -30.4053c4.31641 -8.83496 -4.12305 -21.668 -4.50391 -29.5947c-0.257812 -5.36523 2 -14.3428 2 -20zM504.271 215.457c0 1.12109 -1.12598 4.19336 -2.09375 5.4502
c-1.33984 0.993164 -4.55762 2.13965 -5.78516 2.13965c-4.43945 0 -7.61816 -3.08203 -10.4961 -5.95898c-1.24023 -1.24121 -2.87012 -1.86328 -4.49805 -1.86328c-2.62695 0 -4.0752 1.43945 -5.25586 2.61816c-0.243164 0.245117 -4.42969 3.91797 -6.89062 4.72949
c-1.125 0.371094 -1.85742 0.470703 -2.76465 0.470703c-1.1709 0 -4.25684 -1.06055 -5.7168 -2.0957c-0.62207 -0.982422 -0.643555 -1.05469 -2.12598 -6.15234c0.12207 -1.89844 1.01855 -5.77148 5.2959 -9.89551l17.4717 -16.8545l17.3477 16.6992
c1.87695 1.87891 5.51172 5.57227 5.51172 10.7129zM458.957 251.705c0.225586 -3.99805 0.0888672 -9.27637 -0.260742 -15.2959c5.68848 2.01367 13.6855 2.51855 22.6104 -3.7334c6.07812 4.31836 10.3779 5.07422 15.0342 5.16504
c6.39746 0 13.2871 -3.39648 16.2139 -6.44434c6.28613 -6.53906 11.9297 -22.1768 -3.5459 -37.2891c-18.2949 -17.8633 -20.4756 -19.8662 -21.0977 -20.4102c-3.68359 -3.53906 -9.44434 -3.54883 -13.1631 0.0527344l-19.7617 19.1377
c-0.675781 -7.83496 -1.21094 -15.1084 -1.36621 -20.9746c-0.0634766 -2.375 -0.241211 -13.0303 1.6875 -14.0625c0.22168 -0.0761719 0.396484 -0.198242 0.354492 -0.536133c6.26758 -67.3574 69.8652 -130.445 73.4033 -131.741
c0.116211 -0.0419922 -0.219727 0.0107422 -0.219727 0.0107422l-0.332031 -0.173828l-0.178711 -0.40625l1.05566 -0.587891l-11.9141 -7.94434c-1.32715 1.44434 -1.96484 2.14062 -5.00586 5.43262c-24.165 26.1621 -50.4922 54.6982 -70.9736 124.176
c-5.65918 -32.8691 -27.1338 -68.0146 -44.2178 -92.127c-26.584 -37.5215 -15.7852 -25.5254 -26.584 -37.5215l-14.0908 11.1553c8.30859 10.7715 13.6377 18.0752 21.0029 28.2393c4.14941 5.72852 7.97656 11.0088 12.0635 16.3779
c50.0176 65.7002 51.5127 152.281 51.1396 196.276l14.5459 -0.321289c1.29199 -0.0273438 3.48633 -0.650391 3.40723 -4.58691c-0.0234375 -1.14062 -0.125 -6.23633 0.193359 -11.8672v0zM432 336c-77.6689 0 -140.579 61.6416 -140.579 137.339
c0 75.7012 62.9131 137.339 140.579 137.339c77.6689 0 140.579 -61.6406 140.579 -137.339c0 -75.7002 -62.9131 -137.339 -140.579 -137.339zM432 593.256c-68.4453 0 -123.805 -53.3711 -123.805 -119.27c0 -65.8955 55.3574 -119.269 123.805 -119.269
c68.4453 0 123.805 53.3711 123.805 119.269s-55.3574 119.27 -123.805 119.27zM365.791 396.156c-3.77734 0 -7.05762 3.4248 -7.05762 9.0791c0 0.924805 0.226562 4.55273 3.68848 6.10547c7.33203 3.41211 13.8105 6.98242 20.0312 10.4111
c16.3301 9.00391 31.248 17.2266 53.8145 17.2266c24.6035 0 39.7285 -9.56348 56.3604 -20.0801c5.31543 -3.36035 10.8398 -6.85156 16.9961 -10.2832c0.936523 -0.494141 3.29004 -2.09766 3.29004 -5.7334c0 -4.97266 -3.96777 -9.42285 -8.00684 -9.42285
c-1.59766 0 -2.4082 0 -18.3545 10.7617c-16.4727 11.1172 -28.9795 19.2812 -49.8457 19.2812c-20.7754 0 -33.334 -7.16016 -50.7754 -17.0771c-5.35645 -3.04688 -11.1328 -6.33203 -17.6523 -9.66797c-0.832031 -0.425781 -1.67773 -0.600586 -2.48828 -0.600586z
M372.312 510.203c-9.40332 0 -16.1621 5.68555 -16.1621 12.2754c0 6.58789 6.75781 12.2754 16.1621 12.2754c9.4043 0 16.1631 -5.68652 16.1631 -12.2754s-6.75781 -12.2754 -16.1631 -12.2754zM486.36 511.499c-8.98242 0 -15.5146 5.68359 -15.5146 12.2754
c0 6.5918 6.5332 12.2744 15.5146 12.2744c8.98145 0 15.5146 -5.68262 15.5146 -12.2744c0 -6.59277 -6.5332 -12.2754 -15.5146 -12.2754z" />
  </g>

</svg>
