<?xml version="1.0" standalone="no"?>
<!DOCTYPE svg PUBLIC "-//W3C//DTD SVG 1.1//EN" "http://www.w3.org/Graphics/SVG/1.1/DTD/svg11.dtd" >
<svg xmlns="http://www.w3.org/2000/svg" xmlns:xlink="http://www.w3.org/1999/xlink" version="1.1" viewBox="-10 0 1051 1000">
  <g transform="matrix(1 0 0 -1 0 800)">
   <path fill="currentColor"
d="M828.399 483.872c0 9.49878 0.360099 25.4826 0.360099 28.905l-0.318652 61.3747l-8.69455 54.78l-24.0577 41.7601l-29.8355 19.1251l-33.9409 8.02542l-47.9505 1.85133v0.765382l-107.704 8.96128l-161.614 -4.8437l-135.511 -48.0118l4.97421 -24.8711
l90.1513 34.2037l168.519 13.9909l163.859 -8.05849l72.0585 -32.0852l24.6852 -76.5829c-11.2968 -92.7231 -11.5388 -94.7093 -10.6225 -98.1968c0.272553 -1.03738 0.408327 -1.98777 0.495372 -2.92219c0.487753 -0.641757 1.13403 -1.58506 1.4862 -2.05622
l30.4464 -40.7334l38.0432 -60.0682l23.93 -33.502l-96.7113 -80.2498l-3.19974 -219.288c0.962733 -7.56244 2.78458 -22.0112 5.01798 -45.877c-0.12894 -0.269919 -9.65147 -20.9678 -12.8349 -27.02c-1.80565 -3.43278 -3.36365 -6.39475 -8.94453 -11.1259
c-28.726 -6.87192 -37.6748 -9.01268 -53.7943 -9.01268c-3.38415 0 -6.77838 0.14333 -10.1737 0.446144l-127.95 -3.2205l-189.706 31.9736l-119.91 72.0259l-21.8729 31.5454c-0.18608 0.126152 -14.9542 10.3475 -18.5829 12.6523v-31.4635
c5.41685 -3.87145 13.5068 -7.36272 24.4398 -17.2503c7.32645 -6.62591 2.09556 -4.45645 10.6241 -11.9264c1.03002 -0.902171 1.03002 -0.902171 17.2005 -21.8062l70.2643 -41.1391l123.979 -35.7692l40.8353 -3.74581
c52.8258 -4.90757 59.0669 -6.73248 83.0467 -7.42728l68.08 -1.97257l89.7606 0.254271l51.1066 12.4914l15.1376 25.2075l6.27671 34.16l-0.268638 82.9487l0.0291888 84.2282l-0.00582149 87.5189l84.7837 67.8016l7.68593 8.96692l1.11464 7.19504
c0.44913 7.61262 -1.52476 12.8022 -3.31214 18.1783l-23.3304 38.8443l-33.0243 43.448l-34.3179 48.9016c-0.202711 16.1296 -0.202711 16.1296 -0.202711 17.6951zM33.2949 712.521h55.5146l17.1611 52.2256l17.1602 -52.2256h55.5156l-44.8672 -32.2959
l17.1611 -52.2246l-44.9697 32.2959l-44.9707 -32.2959l17.1611 52.2246zM565.251 324.457c0 2.85352 -0.0537109 4.9707 -0.0537109 5.02148c0.0556641 1.08203 0.334961 2.01562 0.433594 2.11719c0 0.0878906 0 0.0878906 16.9551 0.461914
c-0.015625 -2.47754 -0.0244141 -5.03418 -0.0244141 -7.66602c0 -66.1846 6.09766 -179.713 73.0166 -267.616c9.2002 -12.085 28.0859 -38.7744 44.2861 -59.877l-13.8672 -10.9785c-12.248 14.5361 -18.3633 31.2734 -34.9971 50.0801
c-29.4229 33.2666 -58.1338 85.7842 -62.1299 132.046l-1.47461 17.0742l-4.41211 -16.5586c-10.2324 -38.4131 -31.6123 -47.8369 -47.3359 -54.7383c-10.5088 -4.61133 -18.9541 -8.31738 -18.9541 -19.0791c0 -9.1748 2.14355 -16.2139 51.4717 -75.6846
c1.39941 -1.68848 2.56348 -3.0918 3.39941 -4.1084l-7.45312 -9.0332c-10.2051 15.2324 -62.0176 49.3096 -62.0176 84.8262c0 32.4619 46.9023 33.0029 67.8799 85.4463c0.799805 2 2.55957 5.05469 2.55957 18.8203c0 27.5967 -7.75684 82.9717 -7.75684 111.213
c0 6.51367 0.474609 8.44141 0.474609 18.2334zM565.197 329.524v-0.0458984c0.000976563 0.0244141 0 0.0458984 0 0.0458984zM582.586 332.058zM699.864 -3.10156l2.32227 1.83789l-0.517578 -4.18359c-0.609375 0.789062 -1.21094 1.57129 -1.80469 2.3457z
M685.997 -14.0801c0.601562 -0.713867 1.2168 -1.42188 1.84961 -2.125l-4.0918 0.349609zM571.564 14.9512zM564.767 309.381zM243 240l-76.8037 139.038l15.6299 6.60254l61.6709 -105.936l56.2246 106.974l18.6855 -7.56738zM501 579.917
c69.167 0 125.5 -45.917 125.5 -102.417s-56.333 -102.5 -125.5 -102.5s-125.5 45.917 -125.5 102.417s56.333 102.5 125.5 102.5zM501 383.333c64.583 0 117.167 42.167 117.167 94.084c0 51.916 -52.584 94.166 -117.167 94.166s-117.167 -42.166 -117.167 -94.083
s52.584 -94.167 117.167 -94.167zM441.75 472.417l-8.33301 -1.91699c16.4141 -66.8779 117.446 -64.0176 135.25 0l-8.33398 2.33301c-15.8955 -56.2148 -103.42 -58.8066 -118.583 -0.416016zM527 528.4c0 6.2998 4.5 11.3994 10.2002 11.3994
c5.7002 0 10.2002 -5.09961 10.2002 -11.3994c0 -6.30078 -4.5 -11.4004 -10.2002 -11.4004c-5.7002 0 -10.2002 5.09961 -10.2002 11.4004zM454.4 529c0 6 4.5 10.7998 10.2002 10.7998c5.69922 0 10.1992 -4.7998 10.1992 -10.7998s-4.5 -10.7998 -10.1992 -10.7998
c-5.7002 0 -10.2002 4.7998 -10.2002 10.7998z" />
  </g>

</svg>
