<?xml version="1.0" standalone="no"?>
<!DOCTYPE svg PUBLIC "-//W3C//DTD SVG 1.1//EN" "http://www.w3.org/Graphics/SVG/1.1/DTD/svg11.dtd" >
<svg xmlns="http://www.w3.org/2000/svg" xmlns:xlink="http://www.w3.org/1999/xlink" version="1.1" viewBox="-10 0 1051 1000">
  <g transform="matrix(1 0 0 -1 0 800)">
   <path fill="currentColor"
d="M828.399 483.872c0 9.49878 0.360099 25.4826 0.360099 28.905l-0.318652 61.3747l-8.69455 54.78l-24.0577 41.7601l-29.8355 19.1251l-33.9409 8.02542l-47.9505 1.85133v0.765382l-107.704 8.96128l-161.614 -4.8437l-135.511 -48.0118l4.97421 -24.8711
l90.1513 34.2037l168.519 13.9909l163.859 -8.05849l72.0585 -32.0852l24.6852 -76.5829c-12.0195 -98.6551 -12.0195 -98.6551 -8.64097 -103.175l30.4464 -40.7334l38.0432 -60.0682l23.93 -33.502l-96.7113 -80.2498l-3.19974 -219.288
c0.962733 -7.56244 2.78458 -22.0112 5.01798 -45.877c-15.8013 -33.078 -15.8013 -33.078 -21.7795 -38.1459c-28.726 -6.87192 -37.6748 -9.01268 -53.7943 -9.01268c-3.38415 0 -6.77838 0.14333 -10.1737 0.446144l-127.95 -3.2205l-189.706 31.9736l-119.91 72.0259
l-21.8729 31.5454c-0.18608 0.126152 -14.9542 10.3475 -18.5829 12.6523v-31.4635c5.41685 -3.87145 13.5068 -7.36272 24.4398 -17.2503c0.324316 -0.293306 6.03353 -5.56267 27.8246 -33.7326l70.2643 -41.1391l123.979 -35.7692l40.8353 -3.74581
c52.8258 -4.90757 59.0669 -6.73248 83.0467 -7.42728l68.08 -1.97257l89.7606 0.254271l51.1066 12.4914l15.1376 25.2075l6.27671 34.16l-0.268638 82.9487l0.0291888 84.2282l-0.00582149 87.5189l84.7837 67.8016l7.68593 8.96692
c1.77472 11.4559 1.98289 12.7996 -2.19749 25.3734l-23.3304 38.8443c-23.3118 29.9188 -45.6511 60.8101 -67.3422 92.3496c-0.202711 16.1296 -0.202711 16.1296 -0.202711 17.6951zM33.2949 712.521h55.5146l17.1611 52.2256l17.1602 -52.2256h55.5156
l-44.8672 -32.2959l17.1611 -52.2246l-44.9697 32.2959l-44.9707 -32.2959l17.1611 52.2246zM741.279 72.0225h-366.668v220h115.257v-74.7998h135.911v74.7998h115.5v-220zM386.834 84.2451h342.223v195.555h-91.0566v-74.7998h-160.232v74.7998h-90.9336v-195.555z
M500.634 564.658c88.0666 0 131.234 -21.6247 131.234 -90.6973v-103.938h-34.0576v94.6865c0 56.1408 -32.5419 69.8379 -103.062 69.8379c-27.6973 0 -54.6211 -1.69238 -80.7715 -5.07812l-2.85352 29.5674c26.9824 3.74707 56.8203 5.62207 89.5098 5.62207z
M447.32 370.022h-34.0576v108.475h34.0576v-108.475z" />
  </g>

</svg>
