<?xml version="1.0" standalone="no"?>
<!DOCTYPE svg PUBLIC "-//W3C//DTD SVG 1.1//EN" "http://www.w3.org/Graphics/SVG/1.1/DTD/svg11.dtd" >
<svg xmlns="http://www.w3.org/2000/svg" xmlns:xlink="http://www.w3.org/1999/xlink" version="1.1" viewBox="-10 0 1008 1000">
  <g transform="matrix(1 0 0 -1 0 800)">
   <path fill="currentColor"
d="M859.554 554.137c0 79.6569 -64.6408 144.304 -144.303 144.304c-65.071 0 -133.079 -48.249 -143.431 -128.334h-313.004v-31.9404h313.004c10.2702 -79.4599 77.6943 -128.334 143.431 -128.334c79.6563 0 144.303 64.6412 144.303 144.304zM827.363 554.137
c0 -62.0311 -50.3592 -112.363 -112.357 -112.363c-53.5723 0.0759806 -101.382 41.0798 -110.721 93.4515l-0.524438 2.94106h58.7528c10.6011 -29.7718 36.7968 -38.8896 52.486 -38.8896c30.2889 0 54.8589 24.5746 54.8589 54.8599
c0 30.2861 -24.5718 54.8599 -54.8589 54.8599c-15.5442 0 -41.8441 -9.00506 -52.486 -38.8896h-58.7631c1.77034 10.0298 6.5714 37.2301 32.1184 62.7772c20.6431 20.6431 48.9382 33.6154 79.1307 33.6154c62.0185 0 112.363 -50.3421 112.363 -112.363z
M232.481 97.6934l-82.2217 148.848l24.0225 10.1475l58.4395 -100.383l53.3027 101.418l27.2285 -11.0254zM149.568 -67.707v34.6641h38.626v22.0713h-38.626v34.6641h38.626v33.7148h31.3828v-33.7148h23.2197v31.2539h31.3828v-31.2539h41.292v-34.6641h-41.292v-22.0713
h41.292v-34.6641h-41.292v-36.1855h-31.3828v36.1855h-23.2197v-33.7246h-31.3828v33.7246h-38.626zM219.577 -33.043h23.2197v22.0713h-23.2197v-22.0713zM806.194 -54.4316h-323.297l0.216797 164.161c-12.123 -5.10645 -24.2471 -10.2129 -36.3701 -15.3193v43.2637
l216.847 89.3984c0.620117 -0.28125 1.39551 -1.04395 1.56934 0.0556641c14.0449 -8.15234 14.0449 -8.15234 42.4219 -22.8662l-1.75293 -0.737305l133.207 -77.3066l0.775391 -46.5869c-10.9932 6.50293 -21.9854 13.0059 -32.9785 19.5098zM523.079 -14.2158h243.036
l1.16699 136.753l-105.537 62.4346l-139.312 -58.6816zM38.3242 728.225h55.5146l17.1611 52.2256l17.1602 -52.2256h55.5156l-44.8672 -32.2959l17.1611 -52.2246l-44.9697 32.2959l-44.9707 -32.2959l17.1611 52.2246z" />
  </g>

</svg>
