<?xml version="1.0" standalone="no"?>
<!DOCTYPE svg PUBLIC "-//W3C//DTD SVG 1.1//EN" "http://www.w3.org/Graphics/SVG/1.1/DTD/svg11.dtd" >
<svg xmlns="http://www.w3.org/2000/svg" xmlns:xlink="http://www.w3.org/1999/xlink" version="1.1" viewBox="-10 0 1051 1000">
  <g transform="matrix(1 0 0 -1 0 800)">
   <path fill="currentColor"
d="M828.399 483.872c0 9.49878 0.360099 25.4826 0.360099 28.905l-0.318652 61.3747l-8.69455 54.78l-24.0577 41.7601l-29.8355 19.1251l-33.9409 8.02542l-47.9505 1.85133v0.765382l-107.704 8.96128l-161.614 -4.8437l-135.511 -48.0118l4.97421 -24.8711
l90.1513 34.2037l168.519 13.9909l163.859 -8.05849l72.0585 -32.0852l24.6852 -76.5829c-11.2968 -92.7231 -11.5388 -94.7093 -10.6225 -98.1968c0.272553 -1.03738 0.408327 -1.98777 0.495372 -2.92219c0.487753 -0.641757 1.13403 -1.58506 1.4862 -2.05622
l30.4464 -40.7334l38.0432 -60.0682l23.93 -33.502l-96.7113 -80.2498l-3.19974 -219.288c0.962733 -7.56244 2.78458 -22.0112 5.01798 -45.877c-0.12894 -0.269919 -9.65147 -20.9678 -12.8349 -27.02c-1.80565 -3.43278 -3.36365 -6.39475 -8.94453 -11.1259
c-28.726 -6.87192 -37.6748 -9.01268 -53.7943 -9.01268c-3.38415 0 -6.77838 0.14333 -10.1737 0.446144l-127.95 -3.2205l-189.706 31.9736l-119.91 72.0259l-21.8729 31.5454c-0.18608 0.126152 -14.9542 10.3475 -18.5829 12.6523v-31.4635
c5.41685 -3.87145 13.5068 -7.36272 24.4398 -17.2503c7.32645 -6.62591 2.09556 -4.45645 10.6241 -11.9264c1.03002 -0.902171 1.03002 -0.902171 17.2005 -21.8062l70.2643 -41.1391l123.979 -35.7692l40.8353 -3.74581
c52.8258 -4.90757 59.0669 -6.73248 83.0467 -7.42728l68.08 -1.97257l89.7606 0.254271l51.1066 12.4914l15.1376 25.2075l6.27671 34.16l-0.268638 82.9487l0.0291888 84.2282l-0.00582149 87.5189l84.7837 67.8016l7.68593 8.96692l1.11464 7.19504
c0.44913 7.61262 -1.52476 12.8022 -3.31214 18.1783l-23.3304 38.8443l-33.0243 43.448l-34.3179 48.9016c-0.202711 16.1296 -0.202711 16.1296 -0.202711 17.6951zM33.2949 712.521h55.5146l17.1611 52.2256l17.1602 -52.2256h55.5156l-44.8672 -32.2959
l17.1611 -52.2246l-44.9697 32.2959l-44.9707 -32.2959l17.1611 52.2246zM210.34 196c42.8877 0.149414 85.7734 0.149414 128.66 0c2.82227 0.0546875 5.64258 0.109375 8.46094 0.171875c10.3916 -0.160156 18.9619 4.75 24.918 15.1982
c5.36621 9.41211 8.11523 21.46 6.97363 27.0791c-0.518555 2.61816 -4.47461 14.3477 -5.77051 19.5c-4.90918 19.4922 -9.7168 39.0264 -14.4248 58.5977c-2.79492 11.2646 -5.87988 22.3984 -9.24512 33.4004c-3.50977 11.3525 -7.73242 22.2559 -12.667 32.709
c-4.35059 8.98633 -9.60449 17.0947 -15.7656 24.3281c-10.5371 11.7686 -22.8955 18.4336 -37.0771 19.9961c-9.67676 1.16211 -19.1699 0.0078125 -28.4795 -3.46777c-8.52539 -3.47266 -16.1055 -8.90332 -22.7451 -16.2979
c-6.02539 -6.92871 -11.1553 -14.7305 -15.3955 -23.4004c-3.84766 -7.88672 -7.23535 -16.0918 -10.1689 -24.6191c-2.9248 -8.53418 -5.57422 -17.2002 -7.95312 -26.0059c-1.78125 -6.64453 -3.50781 -13.3096 -5.17773 -19.9941
c-3.3623 -13.959 -6.75195 -27.9043 -10.1699 -41.8398c-1.74023 -6.36523 -3.40234 -12.7607 -4.99316 -19.1855c-0.932617 -3.93359 -1.7666 -7.9043 -2.49707 -11.9053c-1.96289 -14.1787 1.35352 -26.0254 9.93945 -35.54
c2.88281 -3.01758 6.11816 -5.28809 9.70801 -6.82031c1.96777 -0.698242 3.97266 -1.15918 6.0127 -1.38672c2.63086 -0.259766 5.24805 -0.436523 7.85742 -0.517578v0zM210.34 207.672c-2.1123 0.0898438 -4.24121 0.225586 -6.37988 0.40625
c-1.53223 0.144531 -3.04102 0.452148 -4.53027 0.921875c-2.65137 1.1748 -5.02246 2.91016 -7.12109 5.20117c-5.6582 6.62305 -7.73828 14.6953 -6.23828 24.2139c0.792969 4.15723 1.68457 8.28027 2.67969 12.3662c1.8252 6.84082 3.61328 13.6992 5.36328 20.5742
c3.3457 13.8369 6.7041 27.666 10.0791 41.4912c1.65137 6.5791 3.37695 13.1289 5.17676 19.6494c3.22461 11.75 7.04883 23.1934 11.4658 34.3242c3.29883 8.17969 7.24512 15.8096 11.833 22.8867c12.7344 18.9795 29.0547 27.5898 48.96 25.8291
c13.5049 -0.930664 25.125 -7.1748 34.8604 -18.7217c5.35449 -6.69238 9.93066 -14.1094 13.7295 -22.249c4.20215 -9.20898 7.83984 -18.7627 10.9102 -28.665c3.15234 -10.2803 6.0498 -20.6826 8.69141 -31.2051c3.47949 -14.165 6.93359 -28.3438 10.3545 -42.5303
c1.29492 -5.08496 2.58887 -10.1699 3.88379 -15.2578c1.4248 -5.77051 2.71973 -11.5869 3.88477 -17.4521c0.575195 -2.73047 0.823242 -5.50195 0.740234 -8.32031c-0.854492 -8.86328 -4.32227 -15.585 -10.4023 -20.1699
c-1.96777 -1.48438 -4.09277 -2.37402 -6.38184 -2.65723c-3.25586 -0.432617 -6.52051 -0.623047 -9.80078 -0.578125c-43.918 -0.0576172 -87.8389 -0.078125 -131.758 -0.0576172v0zM425.199 605l76 -0.400391v0h3.60059l-4.40039 -243.199v-14.4004h-16.3994
l-61.6006 0.400391v14.3994l61.6006 -0.399414l5.19922 230.399l-64 0.400391v12.7998zM586.667 268.822c0 4.60254 3.73047 8.33301 8.33301 8.33301s8.33301 -3.73047 8.33301 -8.33301s-3.73047 -8.33398 -8.33301 -8.33398s-8.33301 3.73145 -8.33301 8.33398z
M630.601 267.4c-0.000976563 -0.0878906 -0.000976563 -0.229492 -0.000976563 -0.316406c0 -21.1562 10.0986 -50.0254 22.541 -64.4404c7.83008 -9.09863 3.13574 -25.8652 -6.74707 -27.0986c-2.73438 -0.456055 -7.19141 -0.827148 -9.9502 -0.827148
c-0.0751953 0 -0.196289 0.000976562 -0.272461 0.000976562c-41.0303 0.493164 -75.1484 42.3281 -76.1553 93.3809c-0.00683594 0.498047 -0.0136719 1.30566 -0.0136719 1.80371c0 52.6699 34.3467 95.417 76.667 95.417c4.13379 0 10.7803 -0.808594 14.8359 -1.80371
c9.50879 -2.49316 13.5 -19.127 5.41797 -27.2891c-14.5303 -14.6611 -26.3223 -45.4531 -26.3223 -68.7334v-0.09375zM651.505 188.014c0.22168 0.830078 0.401367 2.21387 0.401367 3.08789c0 2.37695 -1.1416 5.60938 -2.54785 7.2168
c-13.1953 15.5771 -23.9043 46.5908 -23.9043 69.2256c0 24.9189 12.5645 57.9678 28.0439 73.7725c1.46484 1.46484 2.65332 4.55273 2.65332 6.8916c0 4.67676 -2.89844 8.49512 -6.02637 9.26465c-3.81445 0.944336 -10.0654 1.71387 -13.9541 1.71777h-1.7373
c-38.6846 -1.76465 -70.1631 -42.3955 -69.8174 -90.9639c0.845703 -49.1191 33.2871 -87.1631 72.915 -87.1631c2.25586 0 5.90527 0.263672 8.14648 0.588867c2.55566 0.411133 5.16602 3.26074 5.82715 6.36133zM495.603 194.918
c52.6602 -0.0703125 95.3975 -41.249 95.3975 -91.918v-0.0634766c-0.108398 -50.5635 -42.8467 -91.6006 -95.3975 -91.6006c-52.6602 0 -95.3984 41.123 -95.3984 91.791c0 50.6689 42.7383 91.791 95.3984 91.791zM584.257 105.862
c-0.655273 17.4971 -11.2578 42.0908 -23.668 54.8965l-37.2197 -35.8135c4.05957 -4.55664 7.82129 -13.1064 8.39551 -19.083h52.4922zM498.908 188.175l-0.0664062 -50.8887c6.15234 -0.506836 15.0371 -3.95508 19.833 -7.69629l37.2207 35.8125
c-13.293 11.9277 -38.8242 22.1299 -56.9873 22.7725zM492.297 188.175c-18.1562 -0.62793 -43.6865 -10.8018 -56.9873 -22.709l37.1543 -35.876c4.7959 3.74121 13.6807 7.18945 19.833 7.69629v50.8887zM430.615 160.949
c-12.4502 -12.8496 -23.0537 -37.5293 -23.668 -55.0869h52.4922c0.575195 5.97656 4.33691 14.5264 8.39551 19.083zM406.947 99.502c0.708008 -17.417 11.3115 -41.8965 23.668 -54.6426l37.1543 35.5586c-4.05957 4.55664 -7.82129 13.1064 -8.39648 19.084h-52.4258z
M492.297 17.6338l0.0654297 50.8887c-6.15137 0.506836 -15.0371 3.95508 -19.833 7.69727l-37.2197 -35.8135c13.293 -11.9268 38.8232 -22.1289 56.9873 -22.7725zM498.908 17.6338c18.1846 0.629883 43.7451 10.833 57.0537 22.7725l-37.2207 35.8135
c-4.7959 -3.74219 -13.6816 -7.19043 -19.833 -7.69727v-50.8887zM560.589 44.8594c12.3359 12.7539 22.9092 37.2334 23.6025 54.6426h-52.4268c-0.574219 -5.97754 -4.33594 -14.5273 -8.39551 -19.084zM465.853 102.937c0 -36.4727 59.5 -36.2861 59.5 0
c0 15.5635 -13.3203 28.1797 -29.75 28.1797c-16.4307 0 -29.75 -12.6162 -29.75 -28.1797z" />
  </g>

</svg>
