<?xml version="1.0" standalone="no"?>
<!DOCTYPE svg PUBLIC "-//W3C//DTD SVG 1.1//EN" "http://www.w3.org/Graphics/SVG/1.1/DTD/svg11.dtd" >
<svg xmlns="http://www.w3.org/2000/svg" xmlns:xlink="http://www.w3.org/1999/xlink" version="1.1" viewBox="-10 0 1010 1000">
  <g transform="matrix(1 0 0 -1 0 800)">
   <path fill="currentColor"
d="M784.09 495.49c0.556641 -9.89355 -3.41406 -35.8945 -2.30566 -42.1895c0.338867 -0.386719 0.689453 -0.984375 0.761719 -1.75781c2.30762 -24.8086 22.6123 -49.2578 30.4678 -57.1123c1.58984 -1.58984 1.58984 -1.58984 6.19922 -5.15527
c-0.541016 -0.355469 -0.541016 -0.355469 -8.81738 -5.87207c-1.25488 -0.838867 -2.9541 -0.643555 -3.9834 0.480469c-13.2646 14.4287 -23.6826 25.7617 -32.9033 52.0801c-4.16504 -12.9717 -11.7676 -25.709 -18.7881 -34.626
c-4.90625 -6.23047 -8.7666 -13.8779 -12.4375 -17.5488c-1.11914 -1.11816 -2.88574 -1.19727 -4.09668 -0.239258c-6.2373 4.9375 -6.2373 4.9375 -6.36523 5.06641c-1.10938 1.1084 -1.19531 2.85645 -0.263672 4.06543c3.50488 4.54395 15.0732 20.3555 15.2285 20.5596
c22.3955 29.4189 23.4844 68.5176 23.3047 89.5703c-0.0146484 1.74219 1.41309 3.15039 3.15527 3.1123c8.24707 -0.183594 8.24707 -0.183594 9.43848 -1.37598c0.894531 -0.893555 1.35059 -2.2207 1.32031 -3.73438
c-0.0107422 -0.508789 -0.0556641 -2.81836 0.0849609 -5.32324zM650.653 495.612c0.555664 -9.89355 -3.41504 -35.8945 -2.30762 -42.1895c0.339844 -0.386719 0.69043 -0.984375 0.762695 -1.75781c2.30762 -24.8096 22.6123 -49.2578 30.4678 -57.1123
c1.58984 -1.59082 1.58984 -1.59082 6.19922 -5.15625c-0.541016 -0.353516 -0.541016 -0.353516 -8.81641 -5.87109c-1.25586 -0.838867 -2.9541 -0.642578 -3.98438 0.480469c-13.2656 14.4287 -23.6816 25.7607 -32.9023 52.0811
c-4.16602 -12.9727 -11.7686 -25.709 -18.7891 -34.626c-4.90625 -6.23145 -8.7666 -13.8779 -12.4375 -17.5488c-1.11914 -1.11914 -2.88574 -1.19727 -4.09668 -0.240234c-6.2373 4.9375 -6.2373 4.9375 -6.36426 5.06641
c-1.11035 1.10938 -1.19727 2.85645 -0.264648 4.06641c3.50488 4.54297 15.0742 20.3555 15.2285 20.5586c22.3955 29.4189 23.4844 68.5176 23.3047 89.5703c-0.0146484 1.74219 1.41309 3.15137 3.15527 3.1123c8.24707 -0.183594 8.24707 -0.183594 9.43945 -1.37598
c0.893555 -0.893555 1.34961 -2.2207 1.31836 -3.73438c-0.00976562 -0.509766 -0.0546875 -2.81738 0.0869141 -5.32324zM719.448 649.521c0.557617 -9.89258 -3.41406 -35.8945 -2.30566 -42.1885c0.338867 -0.386719 0.689453 -0.983398 0.761719 -1.75781
c2.30664 -24.8096 22.6123 -49.2578 30.4668 -57.1123c1.59082 -1.58984 1.59082 -1.58984 6.20117 -5.15625c-0.541016 -0.353516 -0.541016 -0.353516 -8.81836 -5.87207c-1.25488 -0.836914 -2.9541 -0.641602 -3.9834 0.481445
c-13.2646 14.4287 -23.6816 25.7617 -32.9023 52.0801c-4.16602 -12.9707 -11.7676 -25.709 -18.7891 -34.625c-4.90625 -6.23145 -8.76758 -13.8779 -12.4375 -17.5498c-1.11914 -1.11816 -2.88574 -1.19629 -4.09668 -0.238281
c-6.2373 4.9375 -6.2373 4.9375 -6.36523 5.06445c-1.10938 1.10938 -1.19629 2.85645 -0.264648 4.06738c3.50586 4.54297 15.0752 20.3555 15.2305 20.5586c22.3945 29.418 23.4834 68.5176 23.3047 89.5693c-0.015625 1.74219 1.41211 3.15234 3.1543 3.1123
c8.24805 -0.183594 8.24805 -0.183594 9.43945 -1.37402c0.893555 -0.894531 1.34961 -2.22168 1.31934 -3.73438c-0.0107422 -0.509766 -0.0566406 -2.81934 0.0849609 -5.3252zM34.3545 -40.4795h55.5146l17.1611 52.2256l17.1602 -52.2256h55.5156l-44.8672 -32.2959
l17.1611 -52.2246l-44.9697 32.2959l-44.9707 -32.2959l17.1611 52.2246zM321.29 217.798c-4.78418 0 -8.57227 -3.90234 -8.57227 -8.54297v-300.105c0 -4.7666 3.91797 -8.54199 8.54199 -8.54199l373.938 -1.50879c4.70996 0 8.57227 3.82617 8.57227 8.54199
c0 0 -0.780273 150.521 -0.780273 150.548c0 2.64648 2.05762 4.82812 4.69043 4.98926c8.09375 0.496094 8.09375 0.496094 8.24805 0.496094c0.136719 0 0.136719 0 39.0654 -2.1084l-50.0205 58.2422c-0.801758 0.933594 -1.20312 2.09375 -1.20312 3.25391v84.6846
c0 4.73145 -3.87012 8.54199 -8.50977 8.54199l-207.454 -0.390625c-2.70117 0 -4.91016 2.1416 -4.99707 4.83789l-0.890625 27.7197c-0.757812 6.1377 -1.30957 10.4131 -2.72656 21.3975l-56.5488 -51.1621c-0.950195 -0.859375 -2.15137 -1.28906 -3.37305 -1.28906
c0 0 -97.96 0.396484 -97.9805 0.396484zM671.956 64.6553c2.74902 0 4.99902 -2.21777 4.99902 -5.00879l-0.261719 -128.419c-0.00488281 -2.72852 -2.20215 -4.98828 -5.02051 -4.98828l-326.888 1.4043c-2.75391 0.0117188 -4.97754 2.24512 -4.97754 4.99902v253.015
c0 2.7334 2.19922 4.99902 5.02051 4.99902l74.0332 -0.317383c1.13965 -0.00488281 2.27637 -0.396484 3.19824 -1.17383l61.6465 -51.9854c-0.633789 23.9238 -0.811523 31.8213 -0.811523 39.3877c0 12.1748 0 12.2539 1.53516 13.7891
c0.975586 0.975586 2.25488 1.46289 3.60449 1.46289l183.72 -2.52051c2.73438 -0.0371094 4.92969 -2.26172 4.92969 -4.99805v-59.5713c0 -1.20703 -0.433594 -2.41406 -1.30176 -3.36621l-53.1973 -58.3418c56.7559 1.50488 49.2734 1.63379 49.7715 1.63379z
M510.365 506.553c0 95.7305 87.3203 173.478 195.105 173.478s195.105 -77.7471 195.105 -173.478c0 -95.7295 -87.3203 -173.475 -195.105 -173.475c-107.786 0 -195.105 77.7461 -195.105 173.475zM492.224 509.149c0 -104.971 95.6426 -189.887 213.247 -189.887
c117.603 0 213.247 84.9131 213.247 189.887c0 104.972 -95.6426 189.888 -213.247 189.888c-117.601 0 -213.247 -84.9131 -213.247 -189.888zM252 450l-125.79 227.716l14.5205 6.13379l112.529 -193.298l102.548 195.113l19.6289 -7.94922z" />
  </g>

</svg>
