<?xml version="1.0" standalone="no"?>
<!DOCTYPE svg PUBLIC "-//W3C//DTD SVG 1.1//EN" "http://www.w3.org/Graphics/SVG/1.1/DTD/svg11.dtd" >
<svg xmlns="http://www.w3.org/2000/svg" xmlns:xlink="http://www.w3.org/1999/xlink" version="1.1" viewBox="-10 0 1051 1000">
  <g transform="matrix(1 0 0 -1 0 800)">
   <path fill="currentColor"
d="M828.399 483.872c0 9.49878 0.360099 25.4826 0.360099 28.905l-0.318652 61.3747l-8.69455 54.78l-24.0577 41.7601l-29.8355 19.1251l-33.9409 8.02542l-47.9505 1.85133v0.765382l-107.704 8.96128l-161.614 -4.8437l-135.511 -48.0118l4.97421 -24.8711
l90.1513 34.2037l168.519 13.9909l163.859 -8.05849l72.0585 -32.0852l24.6852 -76.5829c-11.2968 -92.7231 -11.5388 -94.7093 -10.6225 -98.1968c0.272553 -1.03738 0.408327 -1.98777 0.495372 -2.92219c0.487753 -0.641757 1.13403 -1.58506 1.4862 -2.05622
l30.4464 -40.7334l38.0432 -60.0682l23.93 -33.502l-96.7113 -80.2498l-3.19974 -219.288c0.962733 -7.56244 2.78458 -22.0112 5.01798 -45.877c-0.12894 -0.269919 -9.65147 -20.9678 -12.8349 -27.02c-1.80565 -3.43278 -3.36365 -6.39475 -8.94453 -11.1259
c-28.726 -6.87192 -37.6748 -9.01268 -53.7943 -9.01268c-3.38415 0 -6.77838 0.14333 -10.1737 0.446144l-127.95 -3.2205l-189.706 31.9736l-119.91 72.0259l-21.8729 31.5454c-0.18608 0.126152 -14.9542 10.3475 -18.5829 12.6523v-31.4635
c5.41685 -3.87145 13.5068 -7.36272 24.4398 -17.2503c7.32645 -6.62591 2.09556 -4.45645 10.6241 -11.9264c1.03002 -0.902171 1.03002 -0.902171 17.2005 -21.8062l70.2643 -41.1391l123.979 -35.7692l40.8353 -3.74581
c52.8258 -4.90757 59.0669 -6.73248 83.0467 -7.42728l68.08 -1.97257l89.7606 0.254271l51.1066 12.4914l15.1376 25.2075l6.27671 34.16l-0.268638 82.9487l0.0291888 84.2282l-0.00582149 87.5189l84.7837 67.8016l7.68593 8.96692l1.11464 7.19504
c0.44913 7.61262 -1.52476 12.8022 -3.31214 18.1783l-23.3304 38.8443l-33.0243 43.448l-34.3179 48.9016c-0.202711 16.1296 -0.202711 16.1296 -0.202711 17.6951zM33.2949 712.521h55.5146l17.1611 52.2256l17.1602 -52.2256h55.5156l-44.8672 -32.2959
l17.1611 -52.2246l-44.9697 32.2959l-44.9707 -32.2959l17.1611 52.2246zM438.707 356.562v20.7773h31.2686v25.1504h-31.2686v20.7773h31.2686v27.293h18.1211v-27.293h26.0811v25.3008h18.1201v-25.3008h33.4277v-20.7773h-33.4277v-25.1504h33.4277v-20.7773h-33.4277
v-29.2939h-18.1201v29.2939h-26.0811v-27.3018h-18.1211v27.3018h-31.2686zM501.018 474.36l-61.3848 111.125l12.7646 5.3916l49.0059 -84.1807l44.6787 85.0078l15.2061 -6.15723zM514.178 402.489h-26.0811v-25.1504h26.0811v25.1504zM553.729 125.975
c-9.00781 0 -15.5371 -0.540039 -22.6289 -1.38281c-3.14941 4.61035 -5.23633 7.02051 -8.96387 10.6152c-6.69824 6.46387 -25.4697 11.4297 -43.4551 11.4297c-12.1504 0 -24.998 -2.11035 -36.2773 -7.44727c-2.66113 -1.25977 -7.76758 -3.67578 -14.3984 -12.9746
c-8.92578 0.890625 -14.7275 1.08789 -20.6602 1.08789c-12.0361 0 -24.8027 -1.12207 -36.0303 -3.94922c-4.41895 -1.1123 -11.3203 -3.66992 -16.4258 -8.77637c-2.15527 -2.1543 -2.89746 -4.28906 -2.89746 -6.49902c0 -5.08301 4.44141 -10.4307 5.58496 -11.5742
c2.34277 -2.34277 6.03125 -4.15625 8.66602 -5.4043c8.69824 -4.125 25.2686 -6.0459 41.2549 -6.0459c9.56543 0 17.1182 0.564453 24.8096 1.54688c2.26172 -2.41992 3.0752 -3.19434 4.93457 -4.85059c12.2061 -10.8779 37.5254 -11.3037 42.4453 -11.3037
c14.0674 0 27.6084 2.58496 35.0273 6.9541c4.52148 2.66211 7.54492 5.27246 10.8643 8.47266c9.78418 -1.60156 18.6631 -2.16699 28.3867 -2.16699c13.957 0 27.4941 1.43066 34.8564 3.73828c17.8115 5.58008 22.9414 14.1914 22.9932 17.4297v0.0410156
c0 1.92578 -3.16602 5.9707 -5.03418 7.83887c-2.54395 2.54395 -5.78223 4.68555 -10.5869 7.15234c-6.05078 3.10547 -23.3564 6.06836 -42.4648 6.06836zM596.15 105.105c0 -6.53223 -22.1523 -12.7295 -46.0664 -12.7295c-4.71582 0 -7.77344 0 -17.9873 1.35352
c3.46289 6.65723 4.41797 8.75684 5.21582 14.207c0.631836 0.892578 0.424805 0.758789 0.429688 0.765625c-0.00488281 0.0869141 -0.0507812 0.181641 -0.0507812 0.181641c-0.0136719 -0.75 -1.83301 5.57031 -2.19531 6.64062
c8.5166 0.816406 13.6152 1.14746 21.5215 1.14746c12.6445 0 24.2217 -1.00195 29.7461 -3.76367c7.44336 -3.72168 9.0957 -5.41895 9.38672 -7.63379v-0.168945zM426.025 98.0801v-2.64844c-10.2725 -1.46387 -15.873 -1.66699 -21.6094 -1.66699
c-11.1045 0 -21.7783 1.2959 -28.9844 4.56641c-7.9502 3.6084 -9.77051 6.15723 -9.77051 8.4082c0 4.14355 3.625 5.55273 7.63867 6.85254c12.7549 4.12891 32.123 4.5 38.5078 4.5c3.30078 0 5.0752 -0.0107422 12.0645 -0.393555
c-0.50293 -3.97949 -0.545898 -4.31055 -0.545898 -5.98926c0 -4.36035 0.960938 -8.66406 2.69922 -13.6289zM511.521 105.38c0 2.56543 2.3584 3.51367 10.4551 6.24023c1.7959 0.604492 3.3457 1.18457 3.3457 1.18457l-0.438477 -0.34082l-1.13574 -3.53418
l-1.36035 -1.7002c-0.397461 -0.0224609 1.36035 1.7002 0 0c-1.35938 -3.39941 -2.34277 -5.02051 -4.63867 -8.64551c-4.1875 2.78906 -6.22754 4.14648 -6.22754 6.7959zM498.192 106.718c0 -3.89258 6.76367 -12.4385 10.2559 -15.4688l7.03418 3.06055
l-10.9854 -4.87988c-8.39062 -3.72754 -18.6875 -5.75098 -28.6104 -5.75098c-13.5498 0 -19.5781 3.00684 -27.3711 6.89355c7.14746 3.67871 10.0049 5.14941 13.335 8.47852c3.92969 3.93066 4.10645 6.68945 4.10645 7.1543
c0 0.0458984 -0.000976562 0.0693359 -0.000976562 0.0693359c0 1.54883 -2.62598 5.45215 -4.99219 7.81738c-4.2627 4.26172 -11.5752 7.62109 -11.5752 7.62109l-5.31348 2.31738l5.2998 2.35059c8.86719 3.92969 21.498 6.03418 33.3691 6.03418
c12.9697 0 24.1641 -2.43066 29.1572 -7.12207c0.452148 -0.424805 0.452148 -0.424805 3.68848 -3.54297c-6.29785 -2.49707 -17.3975 -7.03516 -17.3975 -15.0322zM450.291 106.466c0 -3.78516 -7.69727 -6.6748 -7.79492 -6.70898
c-0.116211 -0.0429688 -0.0078125 -0.0078125 -0.887695 -0.158203l-2.18066 -0.529297l-0.369141 2.41504c-1.31152 2.45703 -2.00586 5.07324 -2.00586 7.92969c0 1.39551 0 1.39648 0.702148 6.42969c10.207 -5.10742 12.1162 -6.30664 12.5361 -9.37793z
M631.663 374.763l11.001 -0.293945zM713.875 374.469l10.166 -0.147461zM631.663 374.763l11.001 -0.293945zM713.875 374.469l10.166 -0.147461zM631.663 374.763l11.001 -0.293945zM713.875 374.469l10.166 -0.147461zM723.269 218.443l-93.7041 0.441406l2.09863 155.878
l11.001 -0.293945l-0.773438 -144.607h71.2119l0.772461 144.607l10.166 -0.147461zM477.988 285.496l-39.333 -44.6777l42.8037 -44.2539l-5.57324 -5.2207l-42.8516 44.3691l-38.7568 -44.3691l-4.04688 4.97852l38.2646 43.7656l-37.6152 44.0107l4.97168 5.34863
l38.0479 -42.5498l39.7773 42.7939z" />
  </g>

</svg>
