<?xml version="1.0" standalone="no"?>
<!DOCTYPE svg PUBLIC "-//W3C//DTD SVG 1.1//EN" "http://www.w3.org/Graphics/SVG/1.1/DTD/svg11.dtd" >
<svg xmlns="http://www.w3.org/2000/svg" xmlns:xlink="http://www.w3.org/1999/xlink" version="1.1" viewBox="-10 0 1051 1000">
  <g transform="matrix(1 0 0 -1 0 800)">
   <path fill="currentColor"
d="M828.399 483.872c0 9.49878 0.360099 25.4826 0.360099 28.905l-0.318652 61.3747l-8.69455 54.78l-24.0577 41.7601l-29.8355 19.1251l-33.9409 8.02542l-47.9505 1.85133v0.765382l-107.704 8.96128l-161.614 -4.8437l-135.511 -48.0118l4.97421 -24.8711
l90.1513 34.2037l168.519 13.9909l163.859 -8.05849l72.0585 -32.0852l24.6852 -76.5829c-11.2968 -92.7231 -11.5388 -94.7093 -10.6225 -98.1968c0.272553 -1.03738 0.408327 -1.98777 0.495372 -2.92219c0.487753 -0.641757 1.13403 -1.58506 1.4862 -2.05622
l30.4464 -40.7334l38.0432 -60.0682l23.93 -33.502l-96.7113 -80.2498l-3.19974 -219.288c0.962733 -7.56244 2.78458 -22.0112 5.01798 -45.877c-0.12894 -0.269919 -9.65147 -20.9678 -12.8349 -27.02c-1.80565 -3.43278 -3.36365 -6.39475 -8.94453 -11.1259
c-28.726 -6.87192 -37.6748 -9.01268 -53.7943 -9.01268c-3.38415 0 -6.77838 0.14333 -10.1737 0.446144l-127.95 -3.2205l-189.706 31.9736l-119.91 72.0259l-21.8729 31.5454c-0.18608 0.126152 -14.9542 10.3475 -18.5829 12.6523v-31.4635
c5.41685 -3.87145 13.5068 -7.36272 24.4398 -17.2503c7.32645 -6.62591 2.09556 -4.45645 10.6241 -11.9264c1.03002 -0.902171 1.03002 -0.902171 17.2005 -21.8062l70.2643 -41.1391l123.979 -35.7692l40.8353 -3.74581
c52.8258 -4.90757 59.0669 -6.73248 83.0467 -7.42728l68.08 -1.97257l89.7606 0.254271l51.1066 12.4914l15.1376 25.2075l6.27671 34.16l-0.268638 82.9487l0.0291888 84.2282l-0.00582149 87.5189l84.7837 67.8016l7.68593 8.96692l1.11464 7.19504
c0.44913 7.61262 -1.52476 12.8022 -3.31214 18.1783l-23.3304 38.8443l-33.0243 43.448l-34.3179 48.9016c-0.202711 16.1296 -0.202711 16.1296 -0.202711 17.6951zM33.2949 712.521h55.5146l17.1611 52.2256l17.1602 -52.2256h55.5156l-44.8672 -32.2959
l17.1611 -52.2246l-44.9697 32.2959l-44.9707 -32.2959l17.1611 52.2246zM502.559 182.616l-0.00390625 -0.166016c0.00195312 0.0556641 0.00390625 0.110352 0.00390625 0.166016zM473.337 275.461l0.0410156 -0.0478516
c-0.0136719 0.015625 -0.0410156 0.0478516 -0.0410156 0.0478516zM432.625 271.717l0.0419922 0.0644531c-0.00683594 -0.0107422 -0.0136719 -0.0214844 -0.0419922 -0.0644531zM406.301 185.676l0.0117188 0.0771484
c-0.00390625 -0.0263672 -0.0117188 -0.0517578 -0.0117188 -0.0771484zM408.752 175.768l-0.0546875 0.0595703c0.0185547 -0.0195312 0.0371094 -0.0400391 0.0546875 -0.0595703zM410.924 174.119l-0.270508 0.0810547
c0.0908203 -0.0292969 0.180664 -0.0556641 0.270508 -0.0810547zM412.257 173.871l-0.0576172 0.00585938c0.0107422 0 0.0214844 -0.00585938 0.0576172 -0.00585938zM456.589 284.532c-22.1523 2.00684 -31.2598 -21.8828 -39.8291 -55.9443
c-6.59473 -27.1514 -6.59473 -27.1514 -8.98242 -36.1035l0.0136719 0.0527344c-0.00488281 -0.0175781 -0.0136719 -0.0527344 -0.0136719 -0.0527344c-1.68359 -6.93262 -3.0791 -12.6719 1.2002 -16.9502c1.57129 -1.57227 2.14844 -1.67871 6.61719 -1.875
c79.3398 0.0341797 79.3398 0.0341797 81.5371 0.326172c1.89746 0.236328 6.6709 4.65234 5.08691 12.1748c-0.123047 0.621094 -9.8584 43.1123 -15.4668 61.3984c-9.84473 31.7461 -21.5732 36.3799 -30.1631 36.9736zM495.232 156.974
c-6.16602 -0.125977 -79.1094 -0.123047 -79.9082 -0.0976562c-4.82129 0.155273 -11.5264 0.371094 -17.2598 6.72266c-1.6748 1.85547 -9.46191 11.3447 -6.98242 24.916c0.914062 5.00195 2.14258 10.041 4.43164 18.4277
c9.80566 40.3418 12.4639 51.2773 19.8086 66.3281c6.00781 12.292 19.2598 30.8018 43.8027 27.8672c29.1172 -3.22656 39.9707 -36.665 47.748 -68c2.73438 -11.3613 5.52539 -22.7012 8.3877 -34.0723c2.50781 -10.4482 4.93652 -20.5596 -1.27832 -30.8398
c-3.08984 -5.11328 -8.89062 -11.3604 -18.75 -11.252zM664.158 35.416l-0.00390625 -0.165039c0.00195312 0.0546875 0.00390625 0.109375 0.00390625 0.165039zM634.938 128.261l0.0400391 -0.0478516c-0.0136719 0.0166016 -0.0400391 0.0478516 -0.0400391 0.0478516z
M594.225 124.517l0.0429688 0.0644531c-0.00683594 -0.00976563 -0.0146484 -0.0214844 -0.0429688 -0.0644531zM567.901 38.4756l0.0117188 0.0771484c-0.00390625 -0.0263672 -0.0117188 -0.0517578 -0.0117188 -0.0771484zM570.353 28.5674l-0.0556641 0.0595703
c0.0185547 -0.0195312 0.0371094 -0.0400391 0.0556641 -0.0595703zM572.523 26.9189l-0.270508 0.0810547c0.0908203 -0.0283203 0.180664 -0.0556641 0.270508 -0.0810547zM573.857 26.6709l-0.0576172 0.00585938
c0.0107422 0 0.0205078 -0.00585938 0.0576172 -0.00585938zM618.188 137.332c-22.1514 2.00684 -31.2598 -21.8828 -39.8291 -55.9443c-6.59473 -27.1514 -6.59473 -27.1514 -8.98145 -36.1035l0.0126953 0.0527344
c-0.00488281 -0.0175781 -0.0126953 -0.0527344 -0.0126953 -0.0527344c-1.68457 -6.93262 -3.0791 -12.6719 1.2002 -16.9502c1.57031 -1.57129 2.14844 -1.67871 6.61719 -1.875c79.3389 0.0341797 79.3389 0.0341797 81.5371 0.326172
c1.89648 0.236328 6.66992 4.65234 5.08594 12.1748c-0.123047 0.621094 -9.8584 43.1133 -15.4668 61.3984c-9.84375 31.7461 -21.5732 36.3799 -30.1631 36.9736zM656.832 9.77344c-6.16504 -0.125977 -79.1084 -0.123047 -79.9072 -0.0966797
c-4.82227 0.154297 -11.5273 0.371094 -17.2607 6.72168c-1.6748 1.85547 -9.46094 11.3447 -6.98242 24.916c0.914062 5.00293 2.14258 10.041 4.43164 18.4277c9.80664 40.3428 12.4648 51.2773 19.8086 66.3281c6.00879 12.292 19.2607 30.8018 43.8027 27.8682
c29.1172 -3.22754 39.9717 -36.666 47.749 -68c2.7334 -11.3623 5.52441 -22.7021 8.3877 -34.0732c2.50781 -10.4482 4.93555 -20.5596 -1.27832 -30.8398c-3.09082 -5.11328 -8.89062 -11.3604 -18.751 -11.252zM610.929 235.462
c1.28027 0 2.55957 -0.487305 3.53516 -1.46289l8.40039 -8.40039c0.975586 -0.975586 1.46387 -2.25586 1.46387 -3.53516c0 -1.12988 1.67676 3.94727 0.923828 3.02051c-120.452 -148.149 -113.411 -137.788 -133.252 -162.084
c-0.873047 -1.06934 -4.32031 -7.66504 -5.60059 -7.66504c-1.28027 0 -2.55957 0.488281 -3.53516 1.46387l-8.40039 8.39941c-0.975586 0.976562 -1.46387 2.25586 -1.46387 3.53613c0 1.12988 0.375 2.26465 1.14062 3.18066
c136.788 163.547 108.588 129.947 133.252 162.084c0.84082 1.09375 2.25586 1.46289 3.53613 1.46289zM555 447l-198 0.660156v13.0664h177.527v74.1885h-177.527v13.0654l196.24 -1.09961z" />
  </g>

</svg>
