<?xml version="1.0" standalone="no"?>
<!DOCTYPE svg PUBLIC "-//W3C//DTD SVG 1.1//EN" "http://www.w3.org/Graphics/SVG/1.1/DTD/svg11.dtd" >
<svg xmlns="http://www.w3.org/2000/svg" xmlns:xlink="http://www.w3.org/1999/xlink" version="1.1" viewBox="-10 0 1051 1000">
  <g transform="matrix(1 0 0 -1 0 800)">
   <path fill="currentColor"
d="M828.399 483.872c0 9.49878 0.360099 25.4826 0.360099 28.905l-0.318652 61.3747l-8.69455 54.78l-24.0577 41.7601l-29.8355 19.1251l-33.9409 8.02542l-47.9505 1.85133v0.765382l-107.704 8.96128l-161.614 -4.8437l-135.511 -48.0118l4.97421 -24.8711
l90.1513 34.2037l168.519 13.9909l163.859 -8.05849l72.0585 -32.0852l24.6852 -76.5829c-11.2968 -92.7231 -11.5388 -94.7093 -10.6225 -98.1968c0.272553 -1.03738 0.408327 -1.98777 0.495372 -2.92219c0.487753 -0.641757 1.13403 -1.58506 1.4862 -2.05622
l30.4464 -40.7334l38.0432 -60.0682l23.93 -33.502l-96.7113 -80.2498l-3.19974 -219.288c0.962733 -7.56244 2.78458 -22.0112 5.01798 -45.877c-0.12894 -0.269919 -9.65147 -20.9678 -12.8349 -27.02c-1.80565 -3.43278 -3.36365 -6.39475 -8.94453 -11.1259
c-28.726 -6.87192 -37.6748 -9.01268 -53.7943 -9.01268c-3.38415 0 -6.77838 0.14333 -10.1737 0.446144l-127.95 -3.2205l-189.706 31.9736l-119.91 72.0259l-21.8729 31.5454c-0.18608 0.126152 -14.9542 10.3475 -18.5829 12.6523v-31.4635
c5.41685 -3.87145 13.5068 -7.36272 24.4398 -17.2503c7.32645 -6.62591 2.09556 -4.45645 10.6241 -11.9264c1.03002 -0.902171 1.03002 -0.902171 17.2005 -21.8062l70.2643 -41.1391l123.979 -35.7692l40.8353 -3.74581
c52.8258 -4.90757 59.0669 -6.73248 83.0467 -7.42728l68.08 -1.97257l89.7606 0.254271l51.1066 12.4914l15.1376 25.2075l6.27671 34.16l-0.268638 82.9487l0.0291888 84.2282l-0.00582149 87.5189l84.7837 67.8016l7.68593 8.96692l1.11464 7.19504
c0.44913 7.61262 -1.52476 12.8022 -3.31214 18.1783l-23.3304 38.8443l-33.0243 43.448l-34.3179 48.9016c-0.202711 16.1296 -0.202711 16.1296 -0.202711 17.6951zM33.2949 712.521h55.5146l17.1611 52.2256l17.1602 -52.2256h55.5156l-44.8672 -32.2959
l17.1611 -52.2246l-44.9697 32.2959l-44.9707 -32.2959l17.1611 52.2246zM664 128zM434.995 282.065zM392.229 203.334zM558.858 100.396zM558.559 90.835zM431.242 126.386zM504.641 103.295zM704.849 221.136zM392.229 203.334zM704.849 221.136zM603.442 322.216
c-16.1436 0 -29.8096 -6.2793 -36.7422 -13.2109c-2.6377 -2.6377 -1.96387 -2.77539 -3.05469 -3.17188c-4.90039 -1.78809 -9.70312 -2.43457 -14.0859 -2.43457c-4.1377 0 -11.6562 0.611328 -19.7969 4.26855c-5.53125 6.7334 -14.8857 12.8613 -30.6143 12.8613
c-23.6133 0 -50.541 -14.6162 -59.9062 -36.5146l-0.461914 -1.08203h-1.62891l-42.6631 -57.9678h-2.04199v-2.77246c-0.276367 -0.375977 -0.552734 -0.750977 -0.829102 -1.12695h0.445312l-4.72461 -17.7188l-0.53125 0.0078125
c-0.0957031 -1.81445 -0.266602 -2.85645 -0.838867 -5.11133h0.6875c-0.0166016 -2.00293 -0.0166016 -2.00293 -0.0166016 -2.20703c0 -12.9541 5.58984 -39.1699 42.8477 -69.9834c39.3486 -32.5459 83.8486 -36.1348 120.739 -36.1348
c60.4658 0 85.1172 7.57715 121.298 36.1689c44.2002 34.9248 44.9453 45.209 46.1611 70.7363l-1.2373 0.0195312c-0.0751953 0.285156 -5.50391 22.4375 -7.42969 28.4014l-31.5898 53.9814c-3.56055 3.71582 -3.56055 3.71582 -3.91895 4.33105h-0.234375
c-11.1064 11.3672 -34.3896 32.6387 -57.1221 37.3525c-4.35059 0.902344 -8.61035 1.30762 -12.71 1.30762zM498.531 306.604c3.39844 0 10.9521 0 19.5635 -5.92676l-0.0664062 -0.822266c0.49707 -0.203125 1.29395 -0.577148 2.06738 -1.3125
c7.29688 -6.93359 18.5107 -10.1885 29.1582 -10.1885c9.91797 0 19.3438 2.82422 24.6494 8.13086c1.03223 1.0332 2.7002 2.69922 3.9873 6.58105c5.46875 3.73145 14.1543 7.80371 26.0088 7.80371c15.7324 0 23.0869 -6.85156 28.7275 -12.1035
c4.38281 -4.08203 10.1543 -9.4707 22.5684 -17.6846c0.473633 -0.102539 0.863281 -0.331055 1.17578 -0.68457l0.272461 0.0117188l35.501 -55.9961c0 -0.0947266 -0.00292969 -0.191406 -0.00292969 -0.287109c2.5459 -9.53906 4.87109 -19.2998 7.32324 -28.9336
c0.856445 -3.42383 1.33887 -6.59766 1.33887 -9.66992c0 -14.7422 -10.9678 -26.6865 -42.5625 -52.5049c-29.1143 -23.7891 -50.1973 -31.9502 -113.734 -31.9502c-34.3975 0 -62.124 4.22559 -94.5049 26.8926c-39.916 27.9414 -45.2832 48.5195 -45.2832 66.8438
c0 1.20801 0.0224609 2.39844 0.0556641 3.57031c1.99219 7.90527 4.15527 15.6377 6.21191 23.4766l38.9014 55.0771c0.552734 -0.212891 1.10352 -0.425781 1.65527 -0.637695c1.31055 3.08594 3.54199 8.34375 9.59668 14.3984
c9.75684 9.75684 24.1982 15.916 37.3916 15.916zM577.035 426.047h5.2002c0.12793 -3.58398 0.256836 -7.16797 0.383789 -10.752c19.8125 0.693359 37.7246 9.03906 50.8545 22.1689c4.77246 4.77246 8.91309 10.1768 12.2842 16.0762l-8.32031 4.41602l-1.02441 -1.62109
l-51.0312 24.0781c-1.66504 -0.912109 -3.57617 -1.43066 -5.6084 -1.43066c-6.45605 0 -11.6885 5.23242 -11.6885 11.6885c0 4.93457 3.05664 9.15332 7.37891 10.8691v54.5068h1.2002v9.96094c-10.2002 -0.480469 -39.2451 -4.41992 -58.6748 -32.7949
c2.92285 -1.6875 5.84473 -3.375 8.76758 -5.0625l-3 -5.19629c-2.9873 1.72461 -5.97363 3.44922 -8.95996 5.17383c-6.33398 -11.04 -9.95508 -23.8281 -9.95508 -37.458c0 -13.2939 3.46582 -25.8027 9.54492 -36.6709l9.26953 5.35254l3 -5.19727
c-3.04492 -1.75781 -6.08887 -3.51562 -9.13379 -5.27344c13.0566 -19.5273 34.9609 -32.6475 59.8965 -33.5801zM662.73 490.671c0 -45.5205 -36.9443 -82.4648 -82.4668 -82.4648c-45.5215 0 -82.4668 36.9443 -82.4668 82.4668
c0 45.2529 36.7246 82.1934 81.9756 82.4648h0.165039c45.5283 0 82.6113 -36.9482 82.793 -82.4668zM582.664 566.055v-10.0078h0.785156l1.96973 -55.1377c3.19629 -1.7666 5.47656 -4.98535 5.95215 -8.7666l50.2578 -27.5488l-1.4082 -2.23047l7.95898 -4.22461
c4.76465 9.85352 7.45703 20.8867 7.50684 32.5352c0 14.0703 -3.85938 27.2402 -10.5762 38.5166l-8.72461 -5.46094l-2.60059 4.50391c2.83691 1.77637 5.6748 3.55273 8.5127 5.3291c-5.81934 8.39648 -24.8799 31.4033 -59.6338 32.4922zM318.148 423.66
l52.5391 -45.4453l9.28516 10.5547l-33.7959 28.2891l122.926 0.142578l-0.759766 14.4639l-122.058 -0.986328l32.2256 27.126l-9.85059 10.418z" />
  </g>

</svg>
