<?xml version="1.0" standalone="no"?>
<!DOCTYPE svg PUBLIC "-//W3C//DTD SVG 1.1//EN" "http://www.w3.org/Graphics/SVG/1.1/DTD/svg11.dtd" >
<svg xmlns="http://www.w3.org/2000/svg" xmlns:xlink="http://www.w3.org/1999/xlink" version="1.1" viewBox="-10 0 1010 1000">
  <g transform="matrix(1 0 0 -1 0 800)">
   <path fill="currentColor"
d="M857.421 497.104zM610.7 663.088zM564.626 578.268zM744.146 467.365zM743.822 457.065zM606.658 495.365zM685.733 470.488zM901.429 597.445zM564.626 578.268zM901.429 597.445zM907.502 603.226c3.18164 -9.63574 5.22949 -20.0645 7.90625 -30.0537
l1.86523 -0.03125c-1.41895 -29.9316 -1.95312 -41.2021 -50.5566 -79.6074c-36.165 -28.5781 -62.6426 -38.6445 -122.829 -39.3223c-41.3994 -0.466797 -94.124 1.08203 -140.347 39.3115c-18.2139 15.0635 -47.126 44.2178 -46.8574 77.335h-1.2959
c1.41602 5.30859 1.41602 5.30859 1.55078 9.38477l0.948242 -0.015625l4.05859 15.2188h-1.78125c0.924805 1.25684 1.85059 2.51367 2.77539 3.76953v4.27734h3.14746l45.9639 62.4512h1.45898c15.9023 37.1875 76.8271 55.1016 100.49 26.2969
c3.35938 -1.50977 18.5977 -7.58984 34.6436 -1.74023c8.26465 11.0625 31.4873 21.7373 57.6201 16.3184c25.2754 -5.24121 50.7725 -28.7539 61.959 -40.2021h0.536133c0.394531 -0.581055 0.664062 -1.24707 1.16016 -1.75488l3.51465 -3.66797l33.5615 -57.3496
c0.500977 0.0429688 0.896484 0.0117188 0.817383 -0.351562zM580.065 572.865c-0.556641 -19.084 1.55371 -41.7812 47.9053 -74.2285c39.332 -27.5312 71.9229 -29.5098 116.666 -28.4014c52.1318 1.3418 73.8838 8.04199 105.363 33.7646
c41.8613 34.209 48.7979 44.9297 43.7637 65.0234l-6.65723 26.5742l-0.244141 -0.435547c0.0146484 1.60742 -1.06152 3.65234 -1.04688 5.26172l-37.3525 58.9141c-1.00293 -0.0390625 -0.202148 0.871094 -1.20508 0.832031
c-23.1201 15.2432 -25.5859 21.8477 -34.2227 26.9414c-13.2988 7.8418 -33.7461 6.26367 -46.7637 -2.62109c-6.47949 -19.5205 -46.6855 -22.6484 -65.2119 -5.04492c-1.72656 1.64062 -3 0.726562 -2.83691 2.74023
c-19.8037 13.627 -56.8975 -0.101562 -67.3789 -24.7891l-1.27148 -2.99414l-2.11816 0.81543l-40.8496 -57.8311zM756.119 521.689l-1 91.4883l15.8701 -0.974609l1.63965 -106.781l-85.9609 -0.742188l1.43066 102.17l16.5518 1.28125l-0.767578 -86.4414h52.2363z
M751.178 448.484zM134.221 -61.2959zM340.548 -55.9424v263.013l80.8701 -0.34668l63.0251 -53.1485c1.23064 24.1913 1.23064 24.1913 2.20835 54.5l190.772 -2.45117v-66.4404l-54.499 -59.7695l32.7266 -4.33887l26 4l-4.22754 -136.465zM695.938 -84.5088
c4.71561 0 8.54759 3.82766 8.57399 8.39457l-1.86111 158.189c12.9088 -1.84411 12.9088 -1.84411 53.0537 -4.0831l-51.1944 59.6085v86.5381c0 4.71977 -3.8161 8.4982 -8.24219 8.54782l-211.617 -4.6113c-2.01115 37.2063 -2.01115 37.2063 -4.71543 58.173
l-57.9857 -52.4621l-3.87834 0.0156927s-96.0008 0.388525 -96.0416 0.388607c-4.71785 0 -8.57227 -3.83432 -8.57227 -8.54297v-300.105c0 -4.69954 3.84858 -8.54199 8.54199 -8.54199c0 0 373.898 -1.50871 373.938 -1.50879zM29.3242 18.2246h55.5146l17.1611 52.2256
l17.1602 -52.2256h55.5156l-44.8672 -32.2959l17.1611 -52.2246l-44.9697 32.2959l-44.9707 -32.2959l17.1611 52.2246zM470 676l-79.3008 -89.5996l85.3457 -83.3701l-18.0449 -15.0303l-85.5 83.7002l-86.5 -81.7002l-13.1055 14.3301l84.9053 79.9697l-79.7998 85.7002
l16.0996 15.4004l81.2002 -81.5l80.7393 84.1738z" />
  </g>

</svg>
