<?xml version="1.0" standalone="no"?>
<!DOCTYPE svg PUBLIC "-//W3C//DTD SVG 1.1//EN" "http://www.w3.org/Graphics/SVG/1.1/DTD/svg11.dtd" >
<svg xmlns="http://www.w3.org/2000/svg" xmlns:xlink="http://www.w3.org/1999/xlink" version="1.1" viewBox="-10 0 1128 1000">
  <g transform="matrix(1 0 0 -1 0 800)">
   <path fill="currentColor"
d="M239.476 102.104c-91.4824 0 -165.717 80.6084 -165.717 167.123c0 42.417 25.8828 94.5273 43.4785 112.512c4.66406 4.87402 7.01465 11.1064 7.01465 17.3311c0 6.20508 -2.33496 12.4033 -7.04199 17.2461c-23.0117 23.0371 -41.6895 68.1416 -41.7188 100.428
c0 2.40723 5.07129 40.9873 9.04492 49.8145c20.5088 47.1045 78.749 86.2168 130.029 87.4453l0.358398 0.00878906l0.357422 -0.0126953c45.0645 -1.58887 103.583 -35.2363 126.096 -86.3691c3.7002 -7.71484 12.7646 -14.501 23.043 -14.501
c7.04395 0 11.3799 2.86523 14.416 4.87207c27.3291 18.0664 76.1885 32.8096 108.856 32.8096c2.5 0 6.69727 -0.109375 8.01367 -0.143555c0.0751953 0 0.141602 -0.00390625 0.194336 -0.00390625c10.4053 0.0615234 19.8975 7.6543 23.1963 15.9883
c23.4736 56.9219 92.6787 103.174 154.097 103.174c-1.10156 0.507812 -1.61816 0.833008 -1.61816 0.985352c0 0.0673828 0.104492 0.101562 0.306641 0.101562c5.50195 0 83.5859 -24.8467 110.094 -51.3545c10.0273 -10.0283 39.2783 -42.208 46.6738 -83.0488
c2.64551 -13.3223 14.2295 -20.1982 23.543 -20.4951c85.7607 -2.30273 155.385 -73.8271 155.385 -159.609c0 -1.1709 -1.42676 -66.7998 -43.2969 -108.67c-24.9785 -24.9775 -54.9307 -38.0732 -57.1094 -38.9326c-22.8633 -9.01562 -49.8877 -12.458 -62.6289 -12.458
h-0.272461c-19.6025 0.44043 -35.2969 10.2275 -57.5293 10.2275c-11.166 0 -17.4932 -2.99609 -20.9033 -6.40625c-0.411133 -0.448242 -2.1748 -2.44141 -9.07031 -10.2715c4.90625 -11.3223 11.7812 -27.1904 11.7812 -48.0273
c0 -30.1982 -17.7607 -58.4238 -18.6514 -58.5615c-4.4834 -6.2041 -9.84375 -12.2959 -15.7256 -18.1777c-17.3857 -17.3857 -39.1582 -32.9717 -57.3574 -40.335c-43.5 -17.5967 -80.7188 -17.8398 -83.7168 -17.8398c-30.9727 0 -71.0703 11.7471 -73.4492 13.6172
c-37.1719 15.4277 -81.7676 59.0391 -97.4307 102.041c-2.7666 7.16797 -10.4932 14.5391 -19.248 16.2627c-2.11426 0.129883 -4.49121 0.168945 -7.02637 0.168945c-0.226562 0 -12.9004 -1.79492 -19.9922 -10.4678
c-36.3926 -44.4961 -98.7734 -66.4707 -136.475 -66.4707zM520.669 60.1514l-0.111328 0.0488281zM117.007 381.49v0zM37.373 266.208c0 -112.057 98.2627 -206.114 200.452 -206.114c76.5781 0 136.045 47.2588 145.709 55.5117l10.4824 8.95215
c12.2305 -19.1699 20.1953 -31.6523 39.9609 -51.417c21.8682 -21.8701 48.5957 -41.2178 73.1943 -50.918c22.792 -8.88965 59.9541 -15.877 84.4209 -15.877c31.3926 0 65.209 7.29492 102.407 21.6543c33.4688 12.9189 75.3438 46.5645 94.7529 74.9883
c9.96289 14.5908 21.1836 51.3037 21.1836 77.5361c0 1.9043 0 1.9043 -0.75293 19.0254c20.1221 -4.06348 27.4629 -5.5459 36.0332 -5.5459c10.0264 0 48.4639 4.88672 75.9697 16.6094c29.9932 12.2051 68.0557 42.5654 86.1875 67.6426
c21.1787 29.5898 37.9307 81.7656 37.9307 118.16c0 26.3564 -9.08691 65.584 -20.6709 89.249c-19.8691 40.5938 -84.1602 96.8447 -153.145 107.79l-7.35938 1.16895c-5.38086 17.3477 -16.7334 53.9561 -55.9277 93.1504
c-22.2588 22.2588 -70.8418 61.666 -135.848 61.666c-83.918 0 -155.684 -61.4346 -182.96 -113.335l-3.14453 -5.9834c-26.4863 -1.60156 -66.4854 -7.61816 -106.194 -27.1836l-9.43555 -4.64941c-9.65527 14.4346 -14.6387 21.8848 -27.0176 34.2627
c-33.1953 33.1953 -82.7588 58.332 -127.48 59.7871c-0.547852 0.00976562 -1.09961 0.0146484 -1.6543 0.0146484c-54.1895 0 -136.646 -44.207 -164.287 -114.827c-6.55664 -17.625 -10.9805 -60.7207 -11.5664 -63.9658c0 -34.6689 16.2783 -81.7129 38.3652 -111.744
l5.07324 -6.89746l-4.88086 -7.03613c-22.8408 -32.9229 -39.7988 -84.3506 -39.7988 -121.675zM673.586 386.484c10.002 -9.8623 10.0293 -9.88867 10.0293 -13.7285c0 -2.62891 -1.12891 -5.14258 -2.88086 -6.89453l-128.789 -128.791v-23.623
c0 -4.72461 -3.77148 -9.59863 -9.59863 -9.59863h-10c-4.72559 0 -9.59863 3.77246 -9.59863 9.59863v23.623l-128.785 128.786c-2.03516 2.03613 -2.88281 4.40332 -2.88281 6.68066c0 2.63867 1.1377 5.15723 2.92871 6.94727
c0 0.000976562 7.09766 6.99902 7.09766 6.99902c1.96191 1.93555 4.3457 2.80664 6.67969 2.80664c2.54395 0 5.0293 -1.03418 6.84863 -2.85352l108.113 -108.113v85.6494l-75.4902 75.5889c-2.03418 2.03418 -2.87988 4.39844 -2.87988 6.67285
c0 2.6416 1.14062 5.16211 2.92969 6.95117c0.000976562 0 7.09863 6.99805 7.09863 6.99805c1.96191 1.93555 4.3457 2.80664 6.67969 2.80664c2.54395 0 5.0293 -1.03418 6.84863 -2.85352l54.8135 -54.8135v108.126c0 4.72461 3.77148 9.59863 9.59863 9.59863h10
c4.72559 0 9.59863 -3.77148 9.59863 -9.59863v-110.227l55.6104 55.6104c2.04785 2.04785 4.40918 2.8916 6.6748 2.8916c4.01465 0 4.16602 -0.151367 14.001 -9.98438c1.95508 -1.95508 2.85156 -4.36914 2.85156 -6.74219
c0 -2.52539 -1.01465 -5.00391 -2.84766 -6.83691l-76.29 -76.292v-83.5459l108.11 108.109c1.96973 1.9707 4.37402 2.85547 6.72852 2.85547c2.52344 0 4.98926 -1.01562 6.80176 -2.80371z" />
  </g>

</svg>
