<?xml version="1.0" standalone="no"?>
<!DOCTYPE svg PUBLIC "-//W3C//DTD SVG 1.1//EN" "http://www.w3.org/Graphics/SVG/1.1/DTD/svg11.dtd" >
<svg xmlns="http://www.w3.org/2000/svg" xmlns:xlink="http://www.w3.org/1999/xlink" version="1.1" viewBox="-10 0 1008 1000">
  <g transform="matrix(1 0 0 -1 0 800)">
   <path fill="currentColor"
d="M348.481 97.6934l-82.2217 148.848l24.0225 10.1475l58.4395 -100.383l53.3027 101.418l27.2285 -11.0254zM265.568 -67.707v34.6641h38.626v22.0713h-38.626v34.6641h38.626v33.7148h31.3828v-33.7148h23.2197v31.2539h31.3828v-31.2539h41.292v-34.6641h-41.292
v-22.0713h41.292v-34.6641h-41.292v-36.1855h-31.3828v36.1855h-23.2197v-33.7246h-31.3828v33.7246h-38.626zM335.577 -33.043h23.2197v22.0713h-23.2197v-22.0713zM780.659 223.904c-0.529297 0 -0.985352 0.173828 -1.32227 0.358398l-214.094 -88.2627v-37.8242
c12.126 5.10742 24.251 10.2148 36.376 15.3213v-3.77051l-0.21875 -161.659h318.305l0.646484 155.446c10.9619 -6.48535 21.9238 -12.9697 32.8867 -19.4551l-0.677734 40.7051l-136.33 79.1182l1.46387 0.616211c-22.6963 11.7715 -24.457 12.7314 -36.2109 19.5508
c-0.288086 -0.102539 -0.56543 -0.144531 -0.824219 -0.144531zM884.594 -16.7148h-248.003l-0.665039 144.662l142.009 59.8174l107.859 -63.8086zM63.3545 -23.4795h55.5146l17.1611 52.2256l17.1602 -52.2256h55.5156l-44.8672 -32.2959l17.1611 -52.2246
l-44.9697 32.2959l-44.9707 -32.2959l17.1611 52.2246zM726.426 735.972c2.14844 -38.1787 -15.9941 -146.932 -5.32129 -152.641c10.4775 -112.648 119.542 -217.9 119.68 -213.84l-18.4795 -12.3203c-41.5781 45.3516 -87.9707 90.2334 -123.324 213.12
c-7.87012 -54.1094 -41.668 -114.713 -72.0361 -153.28c-18.4785 -23.4658 -26.4004 -42.2393 -42.2402 -59.8398l-21.1201 16.7197c23.7607 30.7998 37.0967 50.6523 52.8008 71.2803c80.1777 105.321 83.5322 243.604 82.9102 316.862
c7.46094 -0.165039 14.9219 -0.329102 22.3828 -0.494141c4.19824 -0.0898438 4.36914 -4.16992 4.44141 -5.91309c0.00878906 -0.196289 -0.273438 -9.36328 0.306641 -19.6543zM913.145 757.721l-155.521 -175.482l20.377 -16.2383l132.48 153.93
c11.0049 -18.2471 26.709 -39.8193 31.9375 -53.9805l37.1758 53.0098zM493 720l-78.4844 -80.5996l81.5391 -83.5273l-19.0547 -15.873l-81.7051 83.8789l-84.2949 -83.8789l-13.8379 15.1348l82.6113 82.0488l-74.7734 82.8164l17 16.2637l76.252 -78.3848l80.0039 74.873
z" />
  </g>

</svg>
