<?xml version="1.0" standalone="no"?>
<!DOCTYPE svg PUBLIC "-//W3C//DTD SVG 1.1//EN" "http://www.w3.org/Graphics/SVG/1.1/DTD/svg11.dtd" >
<svg xmlns="http://www.w3.org/2000/svg" xmlns:xlink="http://www.w3.org/1999/xlink" version="1.1" viewBox="-10 0 1051 1000">
  <g transform="matrix(1 0 0 -1 0 800)">
   <path fill="currentColor"
d="M271 608l-12 60c128.725 89.7881 355.203 55.3633 442.457 48.5605c0 -0.0107422 0.000976562 -0.0214844 0.000976562 -0.0322266c27.4463 0.582031 75.1855 -1.32129 107.268 -33.4033c40.1396 -40.1396 38.6152 -108.841 37.5254 -169.365
c-0.395508 -21.9258 -0.433594 -33.2402 -0.22168 -41.9463c26.3789 -43.8281 72.168 -89.959 89.3252 -129.607c6.95117 -16.0635 5.49219 -24.7637 2.64551 -40.2051l-12 -14l-79.501 -63.5771v-212.431c1.93945 -31.0869 1.82422 -79.2412 -27.416 -108.48
c-26.0322 -26.0322 -182.507 -12.0195 -220.584 -13.0049l-2.90137 0.0126953c-103.732 -7.2998 -296.108 50.6025 -326.603 92.1719c-18.5059 25.2275 -31.4014 41.2529 -57.9951 55.3086v70.0371c25.8174 -16.2627 49.624 -17.8066 70.1904 -60.6357
c44.2188 -92.082 349.455 -105.734 451.309 -108.438l-0.499023 -0.962891c50 12 34.1514 4.48145 42.5352 13.5361c19.1768 20.7119 3.97852 41.9688 5.50781 57.9648h-0.541992v2.14941c-0.253906 0.990234 -0.500977 1.94141 -0.738281 2.84863h0.738281v207.174v3.4873
v1.33887h1.58203l104 88h1.13281c4.9834 45.8955 -62.8379 92.1289 -94.2158 139.501l-3 4l-1 1c-2.02051 3.99219 0.0439453 4.02539 -2.08398 11.5605c-0.0371094 0.130859 -0.189453 0.24707 -0.174805 0.367188l0.258789 2.07227l0.0644531 1.49902
c0.00976562 0.226562 0.150391 3.89551 0.242188 6.24414c3.11426 79.1523 14.1973 176.389 -74.8154 176.771c-136.35 16.7461 -373.536 9.53418 -431.49 -46.5137zM30.3545 728.521h55.5146l17.1611 52.2256l17.1602 -52.2256h55.5156l-44.8672 -32.2959l17.1611 -52.2246
l-44.9697 32.2959l-44.9707 -32.2959l17.1611 52.2246zM443.851 590.1l-0.700195 11.2002l164.5 0.700195l-0.349609 -11.9004h-163.45zM444.551 541.1l-0.700195 12.6006l164.149 -0.700195v-11.9004h-163.449zM517 340.2c-7.69922 4.89941 -17.5 11.2002 -21.3496 13.6494
c-3.84961 2.4502 -8.40039 5.60059 -10.1504 6.65039l-2.7998 1.75l-8.0498 24.1504l-8.0498 24.1494l2.7998 26.25c1.40039 14.7002 2.7998 26.9502 3.15039 27.2998c0.349609 0.350586 10.5 5.60059 22.75 11.5508l22.75 11.1992l5.59961 0.700195
c3.15039 0.350586 9.7998 1.0498 14.7002 1.40039c17.8496 2.09961 14 2.7998 32.8994 -5.9502l16.4502 -7.7002l12.6006 -20.2998c7 -11.2002 -2.10059 -33.5996 -2.10059 -34.2998c0 -0.700195 29.75 -22.75 25.2002 -37.1006
c-4.5498 -14.3496 -14.7002 -31.5 -16.4502 -36.75s-14 -4.19922 -14.3496 -5.25c-0.700195 -1.39941 -0.700195 -0.699219 -24.1504 2.4502c-7 1.0498 -14.7002 -3.14941 -17.1494 -4.2002c-9.10059 -4.19922 -19.6006 -9.09961 -19.9502 -9.09961
c-0.350586 0 -6.65039 4.5498 -14.3506 9.4502zM605.821 258.35l14.4785 -12.1494l-132.3 -151.2l-14.4785 12.1494zM597.921 78.9082h0.243164c3.00879 0 4.02734 4.57129 4.02734 6.1416c0 1.0791 -0.480469 3.63184 -1.35156 7.2627
c-1.6875 6.70508 -3.34082 13.4238 -4.96094 20.1543c-6.34375 25.5566 -12.623 33.2559 -22.0371 33.2559c-11.4473 0 -16.7988 -12.5127 -22.2793 -34.46c-4.5 -18.5137 -5.04297 -20.4492 -5.22168 -21.0156c-0.446289 -1.88965 -0.849609 -3.75781 -0.849609 -5.20508
c0 -1.85645 1.15234 -5.7793 3.38086 -6.0498c0.713867 -0.0693359 1.42285 -0.117188 2.125 -0.141602l14.6367 0.0224609l29.3887 -0.0224609l2.83398 0.0576172h0.0644531zM536.111 85.2061c0 2.59277 0.144531 3.14062 3.10156 14.752
c5.84082 24.0449 7.99609 33.1846 14.1182 42.6201c2.08398 3.10742 8.41699 11.7373 20.3906 11.7373c20.5146 0 26.9033 -22.4102 31.1943 -39.5049c6.55078 -26.9072 6.66113 -27.0146 6.66113 -29.832c0 -6.82422 -4.83203 -13.6465 -11.2344 -14.4443
c-1.2832 -0.170898 -2.57617 -0.254883 -3.87012 -0.254883c-0.123047 0 -0.246094 0.000976562 -0.369141 0.000976562l-45.3389 -0.0195312c-0.0449219 0.00195312 -0.0898438 0.00390625 -0.134766 0.00683594c-2.99902 0.125977 -7.20508 0.335938 -10.7168 4.44629
c-2.54883 2.98242 -3.80176 6.67383 -3.80176 10.4922zM510.838 189.535c0.125 0.000976562 0.239258 0 0.242188 0c3.00879 0 4.02734 4.57227 4.02734 6.14258c0 1.07812 -0.480469 3.63184 -1.35059 7.26172c-1.68848 6.70605 -3.3418 13.4238 -4.96094 20.1543
c-6.34473 25.5576 -12.624 33.2559 -22.0381 33.2559c-11.4473 0 -16.7988 -12.5127 -22.2793 -34.459c-4.5 -18.5137 -5.04297 -20.4502 -5.22168 -21.0166c-0.447266 -1.88867 -0.849609 -3.75781 -0.849609 -5.20508c0 -1.85645 1.15234 -5.7793 3.37988 -6.04883
c0.714844 -0.0703125 1.42383 -0.118164 2.12598 -0.142578l14.6367 0.0224609l29.3896 -0.0224609l2.83301 0.0576172h0.0654297zM448 193c0 2.59277 1.30078 5.94238 4.12891 17.585c5.8418 24.0459 7.99707 33.1855 14.1182 42.6211
c2.08496 3.10645 8.41699 11.7363 20.3916 11.7363c20.5146 0 26.9023 -22.4102 31.1924 -39.5039c6.55176 -26.9082 6.66211 -27.0156 6.66211 -29.832c0 -6.8252 -4.83301 -13.6475 -11.2334 -14.4443c-1.28418 -0.170898 -2.57715 -0.255859 -3.87109 -0.255859
c-0.123047 0 -0.246094 0.000976562 -0.369141 0.000976562l-45.3389 -0.0185547c-0.0449219 0.000976563 -0.0908203 0.00292969 -0.135742 0.00585938c-2.99805 0.126953 -7.20215 0.337891 -10.7158 4.44727c-2.54883 2.98145 -4.8291 3.84082 -4.8291 7.6582z
M280.84 224.253l-50.8027 49.8955l9.67676 9.97949l40.8242 -37.4971l72.5752 91.9287l10.8867 -7.55957zM339.131 478.827l-45.8496 -46.3047l49.8955 -45.8643l-6.49609 -5.41113l-49.9521 45.9834l-45.1777 -45.9834l-4.71777 5.15918l44.6035 45.3604l-43.8477 45.6113
l5.7959 5.54395l44.3516 -44.0996l46.3682 44.3516z" />
  </g>

</svg>
