<?xml version="1.0" standalone="no"?>
<!DOCTYPE svg PUBLIC "-//W3C//DTD SVG 1.1//EN" "http://www.w3.org/Graphics/SVG/1.1/DTD/svg11.dtd" >
<svg xmlns="http://www.w3.org/2000/svg" xmlns:xlink="http://www.w3.org/1999/xlink" version="1.1" viewBox="-10 0 1007 1000">
  <g transform="matrix(1 0 0 -1 0 800)">
   <path fill="currentColor"
d="M786.521 573.621c0 -96.6865 68.0879 -173.199 99.375 -191.775l11.1992 -6.64941c-16.9434 -0.478516 1.18945 0.900391 -34.5742 -3.5752l-1.0752 1.36426c-22.0068 27.9238 -93.998 110.011 -106.903 207.233c-0.657227 4.95117 0.0224609 9.79688 0.582031 18.2783
c-1.38379 0.708984 -2.88672 1.4873 -4.52246 2.34082c-0.0283203 -1.83984 -0.322266 -3.81641 -0.0449219 -5.88867c33.3789 -249.661 97.5459 -216.742 97.5459 -216.742s6.91211 -4.29004 10.2793 -6.58594h-32.8613c-44.1455 16.1279 -101.697 151.17 -101.697 222.331
c0 8.73535 0.302734 15.3135 0.785156 20.6846c-60.6641 32.3369 -181.179 64.7012 -284.885 64.7012c-23.0527 0 -45.5234 -2.04883 -73.3945 -6.17773c-32.3232 -4.78906 -32.3232 -4.78906 -70.6152 -21.2002c-18.916 -8.10645 -50.2139 -47.4062 -58.166 -66.7188
c-7.02734 -17.0664 -9.0791 -30.2676 -9.0791 -45.8906c0 -22.332 3.62891 -44.376 3.62891 -77.1553c0 -8.99219 1.14648 -13.8564 1.14648 -20.1924c0 -4.57031 -0.613281 -9.64551 -2.73242 -16.6025c-19.9492 -65.4795 -40.3174 -87.0479 -63.832 -110.183
c-6.25977 -6.16016 -27.0508 -26.6172 -27.0508 -37.7881c0 -4.45605 0.882812 -6.9082 38.3447 -19.4531c55.9199 -18.7266 60.0254 -24.4102 60.0254 -90.9766c0 -43.0117 2.70801 -110.013 2.70801 -151.731c0 -5.5 0.0820312 -11.3867 0.267578 -17.7666
c0.50293 -17.292 16.4512 -45.3398 23.8975 -57.5352c1.19629 -0.303711 1.95996 -1.18164 1.95996 -1.18164c1.1543 -0.666992 2.48438 -1.60059 4.13477 -2.74414c16.0508 -11.1162 22.0049 -13.1846 40.8428 -13.1846c24.0361 0 22.3457 4.21484 79.0615 4.21484
c0.316406 0 6.94531 -0.00390625 7.01562 -0.00390625c14.7988 0 25.668 0.226562 52.1025 3.80078c20.2021 2.73242 38.8271 4.61621 56.5088 6.4043c120.938 12.2334 201.711 24.1475 280.178 80.1953c2.23438 1.5957 5.14355 3.85352 8.45703 6.42773
c12.6104 9.7959 33.0303 26.8994 48.1416 26.8994c8.16699 0 13.834 -4.95996 13.834 -14.165c0 -15.4473 -17.4082 -42.8486 -33.0938 -42.8486c-1.16406 0 -1.56543 0.129883 -3.01758 0.129883c-22.6426 0 -44.3604 -36.5264 -79.4766 -51.29
c-52.8857 -22.2344 -138.298 -27.127 -175.459 -33.71c-17.2549 -3.05664 -36.6504 -6.49316 -61.8809 -12.2393c-34.7246 -7.90918 -51.6299 -8.61133 -86.7539 -8.61133c-0.251953 0 -22.7891 0.03125 -25.0811 0.03125c-11.3115 0 -32.6182 -0.123047 -32.9473 -0.123047
c-40.7773 0 -82.5049 2.86621 -120.91 24.8125c-26.0957 14.9121 -27.9092 36.1035 -30.0449 61.0586c-0.477539 5.59082 -0.976562 11.3994 -1.75781 17.3906c-1.96484 15.7158 -2.63672 29.7119 -2.63672 42.8916c0 28.6572 -4.27441 100.664 -4.27441 131.409
c0 46.4277 -4.59863 49 -29.7539 58.8145c-27.3184 10.6582 -57.2148 13.2568 -70.834 26.876c-4.33008 4.33008 -6.66504 9.68945 -6.66504 16.1094c0 4.7959 1.30371 10.1846 4.05176 16.1768c36.4951 79.5967 68.6367 70.0742 91.3711 139.761
c5.20312 15.9443 6.93652 32.2529 6.93652 48.6797c0 32.5635 -6.77832 65.1611 -6.77832 95.8125c0 47.6494 17.2412 68.3838 35.0508 86.1934c66.2422 66.2412 143.674 66.3555 238.901 66.3555h0.988281c82.8154 0 190.135 -23.3467 246.021 -49.8477
c43.5547 -20.6533 21.8506 -15.7109 32.4561 -16.8408c11.3984 -1.2168 39 -13 47.5039 -30.4053c4.31641 -8.83496 -4.12305 -21.668 -4.50391 -29.5947c-0.257812 -5.36523 2 -14.3428 2 -20zM503.502 294.498v321.196h-110.597v-29.9961h80.6006v-261.204h-78.4004
v-29.9961h108.397zM30.3242 741.553h55.5146l17.1611 52.2256l17.1602 -52.2256h55.5156l-44.8672 -32.2959l17.1611 -52.2246l-44.9697 32.2959l-44.9707 -32.2959l17.1611 52.2246zM531.947 41.1826c-4.62402 -6.91113 -17.0034 -22.7672 -44.527 -22.7672
c-16.6335 0 -32.7354 8.40519 -40.3592 16.029c-10.3758 10.3758 -15.8586 24.587 -15.8586 40.1187c0 21.7662 9.4073 37.4213 25.5046 64.0592c5.27325 8.57059 5.27325 8.57059 31.0474 53.5266c33.5978 -58.3337 33.5978 -58.3337 39.3052 -67.2594
c6.24123 -9.76067 10.8816 -18.1245 14.0429 -25.3624c23.191 -53.0967 10.9465 -23.7764 14.8995 -35.0545c0.677126 -1.93192 0.649414 -1.94141 0.649414 -4.21875c0 -6.9707 -6.04785 -12.2539 -12.6514 -12.2539c-5.03418 0 -6.94678 1.9126 -8.6875 3.65332
c-3.47754 3.47754 0 -0.311523 0 0c0 0.0625 0.62207 -7.65332 0.6875 -7.65332c0.314453 0 -2.19336 -0.0410156 -2 0c-0.111885 1.41402 -1.1878 -1.79675 -2.05273 -2.81738zM485.824 0.112783c40.5284 0 77.6495 35.1037 77.6495 77.6129
c0 7.00661 -1.00608 14.2033 -3.17311 21.5288l-0.0177512 0.0623829c-3.40943 11.9818 -9.94924 22.4682 -18.1025 35.3404c-0.453322 0.715695 -39.5072 67.1679 -42.2635 73.4235c-3.89341 8.83617 -5.56712 9.64056 -9.94138 11.6041
c-6.01318 -0.0510707 -8.18571 -0.0695224 -12.4057 -7.97309c-9.85614 -18.4572 -22.3194 -39.6386 -33.0708 -57.9201c-23.9298 -40.6898 -31.3942 -53.3821 -31.3942 -78.9507c0 -20.1638 7.21001 -39.235 21.4924 -53.5621
c12.3091 -12.2599 33.8605 -21.1661 51.2272 -21.1661zM540.682 100.363c1.11295 -2.67207 1.11295 -2.67207 1.45878 -3.75217l-0.14038 1.38908l-1.02539 2.59863l-0.488312 -0.316548s-0.0098708 0.0123576 -0.0098708 0.0185364
c0.0116803 -0.0177859 0.205178 0.0624712 0.205178 0.0624712z" />
  </g>

</svg>
