<?xml version="1.0" standalone="no"?>
<!DOCTYPE svg PUBLIC "-//W3C//DTD SVG 1.1//EN" "http://www.w3.org/Graphics/SVG/1.1/DTD/svg11.dtd" >
<svg xmlns="http://www.w3.org/2000/svg" xmlns:xlink="http://www.w3.org/1999/xlink" version="1.1" viewBox="-10 0 869 1000">
  <g transform="matrix(1 0 0 -1 0 800)">
   <path fill="currentColor"
d="M170 365.999c42.5537 0 57.624 0 73.0225 -1.76758c24.3213 -2.79199 46.8291 11.8613 51.9961 17.0283c12.3906 12.3906 41.7451 54.2285 38.9893 100.417l-0.00195312 0.0683594c-0.957031 24.8408 -19.2422 58.5234 -41.5293 72.9912l0.137695 -0.0800781
c-0.0458984 0.0273438 -0.0917969 0.0537109 -0.137695 0.0800781c-19.6025 11.2744 -55.6006 20.9082 -78.126 20.9082c-15.3662 0 -41.2432 -4.72949 -55.8975 -10.3291c-29.6943 -10.6699 -78.5547 -38.5146 -78.5547 -100.112
c0 -22.6953 13.6289 -57.249 30.8418 -74.4609c13.291 -13.291 40.708 -24.7432 59.2598 -24.7432zM293.925 380.188l-0.0976562 -0.09375c0.0322266 0.03125 0.0654297 0.0625 0.0976562 0.09375zM250.183 336.832c-11.5635 -0.402344 -37.6943 3.17578 -78.3682 1.59082
c-0.0166016 0 -1.03027 -0.0107422 -1.56641 -0.0107422c-26.8857 0 -61.6094 14.9668 -79.959 34.0371c-20.3906 20.623 -39.0117 61.4023 -38.3877 95.8066c0.636719 33.3809 13.8994 63.458 37.1572 86.7158c19.0928 19.0918 51.3584 40.2275 103.402 46.7061
c0.260742 40.8438 4.70801 111.627 45.2588 152.178c14.9775 14.9775 45.5742 30.0869 73.6387 29.3057l6.31641 -0.176758v-27.4619c-7.79492 0.234375 -7.79492 0.234375 -8.88477 0.234375c-16.0684 0 -40.2881 -10.0234 -51.6621 -21.3887
c-34.7607 -34.7607 -36.792 -107.111 -37.0625 -131.105c31.3232 -0.387695 70.1006 -14.1738 86.8262 -24.9404c28.0781 -18.0752 52.6904 -59.4062 54.1084 -94.6562c0.0849609 -1.17969 0.561523 -7.74219 0.291992 -15.5293
c-1.5459 -35.7217 -22.8877 -83.0713 -49.0498 -108.08l-0.104492 -0.0927734c-13.7725 -12.0859 -39.5928 -23.1318 -61.9551 -23.1318zM27.4766 56.8242h55.5146l17.1611 52.2256l17.1602 -52.2256h55.5156l-44.8672 -32.2959l17.1611 -52.2246l-44.9697 32.2959
l-44.9707 -32.2959l17.1611 52.2246zM724.502 -20.7623c6.11711 0 11.0843 4.96472 11.0843 10.942l-1.82708 155.257c10.2227 -1.46251 10.2227 -1.46251 56.2398 -4.02043l-54.4147 63.358v85.6109c0 6.10457 -4.94041 11.0082 -10.7575 11.0481l-209.236 -4.5595
l-1.85516 34.3235c-1.03198 8.33668 -2.0279 16.0528 -3.35808 26.3586l-60.8128 -55.0199l-2.90876 0.0117716s-96.0104 0.38861 -96.041 0.388672c-6.10584 0 -11.0822 -4.9479 -11.0822 -11.0425v-300.105c0 -6.08059 4.96591 -11.0415 11.0415 -11.0415z
M371.622 12.7924v258.014l77.4523 -0.332051l66.1826 -55.8114c1.47741 28.9033 1.47741 28.9033 2.38855 57.1279l185.854 -2.38782v-63.004l-57.0689 -62.5878l37.822 -5.01419l23.3829 3.59669l-4.05907 -131.027z" />
  </g>

</svg>
