<?xml version="1.0" standalone="no"?>
<!DOCTYPE svg PUBLIC "-//W3C//DTD SVG 1.1//EN" "http://www.w3.org/Graphics/SVG/1.1/DTD/svg11.dtd" >
<svg xmlns="http://www.w3.org/2000/svg" xmlns:xlink="http://www.w3.org/1999/xlink" version="1.1" viewBox="-10 0 1033 1000">
  <g transform="matrix(1 0 0 -1 0 800)">
   <path fill="currentColor"
d="M828.399 483.872c0 9.49878 0.360099 25.4826 0.360099 28.905l-0.318652 61.3747l-8.69455 54.78l-24.0577 41.7601l-29.8355 19.1251l-33.9409 8.02542l-47.9505 1.85133v0.765382l-107.704 8.96128l-161.614 -4.8437l-135.511 -48.0118l4.97421 -24.8711
l90.1513 34.2037l168.519 13.9909l163.859 -8.05849l72.0585 -32.0852l24.6852 -76.5829c-11.2968 -92.7231 -11.5388 -94.7093 -10.6225 -98.1968c0.272553 -1.03738 0.408327 -1.98777 0.495372 -2.92219c0.487753 -0.641757 1.13403 -1.58506 1.4862 -2.05622
l30.4464 -40.7334l38.0432 -60.0682l23.93 -33.502l-96.7113 -80.2498l-3.19974 -219.288c0.962733 -7.56244 2.78458 -22.0112 5.01798 -45.877c-0.12894 -0.269919 -9.65147 -20.9678 -12.8349 -27.02c-1.80565 -3.43278 -3.36365 -6.39475 -8.94453 -11.1259
c-28.726 -6.87192 -37.6748 -9.01268 -53.7943 -9.01268c-3.38415 0 -6.77838 0.14333 -10.1737 0.446144l-127.95 -3.2205l-189.706 31.9736l-119.91 72.0259l-21.8729 31.5454c-0.18608 0.126152 -14.9542 10.3475 -18.5829 12.6523v-31.4635
c5.41685 -3.87145 13.5068 -7.36272 24.4398 -17.2503c7.32645 -6.62591 2.09556 -4.45645 10.6241 -11.9264c1.03002 -0.902171 1.03002 -0.902171 17.2005 -21.8062l70.2643 -41.1391l123.979 -35.7692l40.8353 -3.74581
c52.8258 -4.90757 59.0669 -6.73248 83.0467 -7.42728l68.08 -1.97257l89.7606 0.254271l51.1066 12.4914l15.1376 25.2075l6.27671 34.16l-0.268638 82.9487l0.0291888 84.2282l-0.00582149 87.5189l84.7837 67.8016l7.68593 8.96692l1.11464 7.19504
c0.44913 7.61262 -1.52476 12.8022 -3.31214 18.1783l-23.3304 38.8443l-33.0243 43.448l-34.3179 48.9016c-0.202711 16.1296 -0.202711 16.1296 -0.202711 17.6951zM486.369 261.18c0 -1.81348 1.51953 -3.1416 3.14062 -3.1416l250.119 -1.00977
c1.73633 0 3.15137 1.42188 3.15137 3.11035l-1.2793 108.708c4.0752 -0.582031 8.11426 -1.52344 12.2246 -1.74609l20.0098 -1.08301l-30.9551 36.043v58.835c0 1.74023 -1.41992 3.14355 -3.00586 3.14355l-143.909 -3.13574l-1.46777 27.1377l-1.17871 9.18555
l-35.8701 -32.4541l-0.998047 0.00390625s-66.8213 0.270508 -66.8311 0.270508c-1.81738 0 -3.15039 -1.51465 -3.15039 -3.1416v-200.726zM499.344 271.002v181.061l57.6074 -0.24707l38.9072 -32.8096c0.660156 11.0195 0.897461 22.4609 1.28906 33.75l132.659 -1.70508
v-47.9746l-33.8066 -37.0762l16.6455 -2.20703l20.084 3.08984l-3.00098 -96.8701zM277.968 243.53c0 11.0059 2.69141 22.4375 8.12598 33.4043c5.67676 11.4258 14.7881 26.127 16.5732 29.002c9.58887 15.4385 28.0381 49.1475 28.3076 49.6514
c2.14355 4.01758 3.18945 5.30371 7.73633 5.30371h0.361328c2.9209 -1.28125 4.11914 -2.46094 6.98242 -8.93164l28.5693 -50.2432c1.57227 -2.73828 2.50879 -4.22559 6.25977 -10.1484c0.989258 -1.4541 11.2627 -17.323 14.5742 -28.4629
c1.4541 -4.8916 -1.61036 7.10595 0 0c9.54199 -42.1055 -19.8325 -72.5658 -47.417 -77.7744c-4.98047 -0.94043 -8.96875 -1.42578 -12.0811 -1.42578c-13.4639 0 -31.2979 7.37012 -40.833 16.8682c-11.3633 11.3984 -17.1592 26.6152 -17.1592 42.7568zM336.141 195.035
c29.084 0 50.8066 25.5127 50.8066 50.3232c0 4.93457 -1.27734 13.1426 -3.76465 19.2861c-2.64844 6.05176 -7.93164 15.6104 -11.6992 21.126c-4.25098 6.64844 -5.36816 8.53418 -6.58691 10.6309l-27.4014 47.5781
c-1.5332 -2.97852 -20.6943 -36.5244 -27.1104 -46.9512c-13.2881 -21.9912 -21.2744 -35.2373 -21.2744 -53.7529c0 -13.2188 4.64648 -25.3691 13.6045 -34.3271c8.04297 -8.04199 23.4932 -13.9131 33.4258 -13.9131zM379.453 482.528l-45.2793 -43.3105
l-43.4658 43.2188l-8.59863 -8.22559l43.0137 -44.7432l-43.6543 -44.3945l9.2832 -10.1514l44.4834 45.2764l48.8145 -44.9365l9.5625 7.96582l-49.0576 45.0938l45.0127 45.459zM48.3545 723.521h55.5146l17.1611 52.2256l17.1602 -52.2256h55.5156l-44.8672 -32.2959
l17.1611 -52.2246l-44.9697 32.2959l-44.9707 -32.2959l17.1611 52.2246zM48.3545 723.521h55.5146l17.1611 52.2256l17.1602 -52.2256h55.5156l-44.8672 -32.2959l17.1611 -52.2246l-44.9697 32.2959l-44.9707 -32.2959l17.1611 52.2246z" />
  </g>

</svg>
