<?xml version="1.0" standalone="no"?>
<!DOCTYPE svg PUBLIC "-//W3C//DTD SVG 1.1//EN" "http://www.w3.org/Graphics/SVG/1.1/DTD/svg11.dtd" >
<svg xmlns="http://www.w3.org/2000/svg" xmlns:xlink="http://www.w3.org/1999/xlink" version="1.1" viewBox="-10 0 1122 1000">
  <g transform="matrix(1 0 0 -1 0 800)">
   <path fill="currentColor"
d="M590.706 57.4053c0.256836 0.0107422 16.5225 0.000976562 16.5264 0.00878906c-5.00977 21.0146 -3.60156 27.7803 -1.77441 33.6758c0.0166016 0.0537109 1.43066 4.94141 1.62402 5.32715l11.8154 23.6328c-6.04688 93.7432 -6.04688 93.7432 -6.01367 94.1455
c1.98633 23.585 3.71973 51.0957 1.69434 68.7178c-5.2666 20.916 -18.333 16.502 -21.3857 9.8125c-1.07812 -2.36426 -2.29395 -2.64258 -5.43164 -3.36133c-2.4375 -2.18164 -6.27344 -1.7041 -8.09766 1.04297c-2.28711 3.44336 -12.8652 19.8242 -13.1436 20.3682
c-3.8252 7.49219 -18.582 12.1025 -21.4023 -2.72949c-0.102539 -0.536133 -0.102539 -0.536133 -5.13965 -12.8145c-1.87695 -4.57324 -8.49219 -4.38379 -10.1006 0.292969l-9.47461 27.5654c-2.53418 7.36816 -18.3379 13.2529 -26.6875 -0.701172
c-0.154297 -0.459961 -1.28125 -3.87793 -7.37402 -22.9863c-1.32422 -4.1543 -6.85156 -5.10352 -9.47852 -1.57324c-7.79395 10.4717 -7.79395 10.4717 -7.93164 10.6094c-0.0507812 0.0517578 -8.90137 8.8877 -13.915 3.87305
c-2.74609 -2.74609 -4.29883 -9.44824 -4.98242 -13.5586c0.0195312 -0.616211 0.141602 -4.25391 0.817383 -21.8975c0.401367 -10.9863 0.890625 -34.4648 0.900391 -34.8135c3.21387 -22.9033 1.72754 -23.6191 3.39844 -35.873
c0.12207 -0.47168 1.04785 -4.04297 5.86133 -22.2607c0.046875 -0.178711 0.486328 -10.3779 -0.90918 -12.75c-3.43066 -5.83203 -3.66895 -6.23633 -5.93164 -6.75488c-8.95801 -2.05273 -11.792 -0.248047 -14.8203 3.9541
c-1.55859 2.16211 -12.1543 12.7812 -13.2197 14.0107l-22.2041 25.6201c-0.600586 0.397461 -3.68164 2.41602 -12.9521 8.28809c-0.541016 0.164062 -3.13672 0.939453 -10.9717 3.13281c-2.19043 -1.20215 -4.80176 -0.476562 -6.7832 -2.45801
c-1.4375 -1.4375 -3.0957 -6.25293 -2.56836 -8.97852l12.25 -16.4756c2.36035 -2.21191 14.9014 -13.1436 15.5156 -13.8867c18.3066 -22.1367 18.3066 -22.1367 18.3945 -22.2568c13.4033 -18.1807 13.3037 -18.0244 13.4033 -18.1807
c12.0957 -19.0078 11.9961 -18.8516 12.166 -19.2441l9.26465 -21.4785c2.56055 -3.96777 12.4551 -18.8984 12.7207 -19.4014c4.16895 -7.92188 4.16895 -7.92188 4.3252 -8.58008c3.10254 -12.999 25.0713 -13.6455 25.3594 -13.6514l24.0303 -0.428711zM607.234 46.6113
h-16.1895c-72.835 -3.02539 -72.835 -3.02539 -72.9971 -3.02246l-24.2031 0.432617c-3.84277 0.0722656 -30.0781 1.29883 -35.4785 21.2295l-3.4375 6.5332c-12.583 19.0869 -12.3691 18.4551 -13.1299 20.2197l-9.16504 21.2461l-11.4375 17.9727l-12.9951 17.6055
l-17.8457 21.5811c-15.3301 13.5781 -15.3301 13.5781 -16.0039 14.4834l-12.5273 16.8486c-4.46973 6.00977 -1.34961 17.7383 3.75781 22.8467c2.99512 2.99414 5.81934 3.90918 10.0059 4.68066c2.31641 1.03516 4.92188 1.21387 7.33887 0.537109
c11.3984 -3.19141 11.6455 -3.02246 13.6494 -4.29199c12.2305 -7.74609 13.1592 -8.03809 14.9102 -9.78906c0.204102 -0.205078 -0.262695 -0.632812 22.7158 -26.1797c11.9727 -13.3105 12.4395 -12.8838 14.1582 -15.2129
c0.28418 0.0253906 0.673828 0.0732422 1.16602 0.154297l0.579102 0.982422l0.258789 6.45605c-5.75977 21.792 -5.69531 21.1904 -5.89062 22.6133c-1.7998 13.1025 -0.216797 13.29 -3.45117 36.251c-0.0498047 0.353516 -0.696289 28.3916 -0.961914 35.6504
c-0.864258 22.5596 -1.07031 21.6709 -0.734375 23.7568c1.05176 6.51562 3.47461 21.5332 16.1621 24.208c10.5488 2.22559 20.7744 -7.67773 22.1777 -9.56348l1.57031 -2.11035c4.21582 13.376 4.08008 13.2861 5.06836 14.9668
c13.0576 22.208 40.8145 14.8955 46.3076 -1.08594l4.63574 -13.4854c6.4668 21.7305 32.4775 18.4951 40.7539 2.8291c0.0966797 -0.149414 9.29785 -14.4443 9.64453 -14.9785c9.07812 11.7334 32.0674 13.7119 39.4014 -15.4131
c0.116211 -0.463867 0.202148 -0.93457 0.256836 -1.40918c2.21191 -19.2402 0.365234 -46.7559 -1.62793 -70.4688l5.99609 -92.9355c0.123047 -1.88965 -0.249023 -3.80371 -1.11426 -5.53418l-11.5547 -23.1084c-0.332031 -1.28809 -0.720703 -2.57422 -1.2334 -4.22754
c-1.4375 -4.64062 -2.95605 -7.31348 1.96484 -27.9521c1.61914 -6.78516 -3.52246 -13.3164 -10.501 -13.3164zM636.35 391.25h-259.716l-60.5635 152.953l111.923 -46.917l73.25 91.6006l71.9414 -93.1279l110.977 47.1973zM435.915 462.337l-68.4658 30.0771
l31.5508 -72.4141l212.21 -0.760742l21.9365 69.0342l-67.1318 -29.8359l-63.6348 81.7617zM37.3545 728.521h55.5146l17.1611 52.2256l17.1602 -52.2256h55.5156l-44.8672 -32.2959l17.1611 -52.2246l-44.9697 32.2959l-44.9707 -32.2959l17.1611 52.2246zM271 608l-12 60
c128.725 89.7881 355.203 55.3633 442.457 48.5605c0 -0.0107422 0.000976562 -0.0214844 0.000976562 -0.0322266c27.4463 0.582031 75.1855 -1.32129 107.268 -33.4033c40.1396 -40.1396 38.6152 -108.841 37.5254 -169.365
c-0.395508 -21.9258 -0.433594 -33.2402 -0.22168 -41.9463c26.3789 -43.8281 72.168 -89.959 89.3252 -129.607c6.95117 -16.0635 5.49219 -24.7637 2.64551 -40.2051l-12 -14l-79.501 -63.5771v-212.431c1.93945 -31.0869 1.82422 -79.2412 -27.416 -108.48
c-26.0322 -26.0322 -182.507 -12.0195 -220.584 -13.0049l-2.90137 0.0126953c-103.732 -7.2998 -296.108 50.6025 -326.603 92.1719c-18.5059 25.2275 -31.4014 41.2529 -57.9951 55.3086v70.0371c25.8174 -16.2627 49.624 -17.8066 70.1904 -60.6357
c44.2188 -92.082 349.455 -105.734 451.309 -108.438l-0.499023 -0.962891c50 12 34.1514 4.48145 42.5352 13.5361c19.1768 20.7119 3.97852 41.9688 5.50781 57.9648h-0.541992v2.14941c-0.253906 0.990234 -0.500977 1.94141 -0.738281 2.84863h0.738281v207.174v3.4873
v1.33887h1.58203l104 88h1.13281c4.9834 45.8955 -62.8379 92.1289 -94.2158 139.501l-3 4l-1 1c-2.02051 3.99219 0.0439453 4.02539 -2.08398 11.5605c-0.0371094 0.130859 -0.189453 0.24707 -0.174805 0.367188l0.258789 2.07227l0.0644531 1.49902
c0.00976562 0.226562 0.150391 3.89551 0.242188 6.24414c3.11426 79.1523 5.19727 173.389 -83.8154 173.771c-136.35 16.7461 -373.536 9.53418 -431.49 -46.5137z" />
  </g>

</svg>
