<?xml version="1.0" standalone="no"?>
<!DOCTYPE svg PUBLIC "-//W3C//DTD SVG 1.1//EN" "http://www.w3.org/Graphics/SVG/1.1/DTD/svg11.dtd" >
<svg xmlns="http://www.w3.org/2000/svg" xmlns:xlink="http://www.w3.org/1999/xlink" version="1.1" viewBox="-10 0 1051 1000">
  <g transform="matrix(1 0 0 -1 0 800)">
   <path fill="currentColor"
d="M30.3242 741.553h55.5146l17.1611 52.2256l17.1602 -52.2256h55.5156l-44.8672 -32.2959l17.1611 -52.2246l-44.9697 32.2959l-44.9707 -32.2959l17.1611 52.2246zM271 608l-12 60c128.725 89.7881 355.203 55.3633 442.457 48.5605
c0 -0.0107422 0.000976562 -0.0214844 0.000976562 -0.0322266c27.4463 0.582031 75.1855 -1.32129 107.268 -33.4033c40.1396 -40.1396 38.6152 -108.841 37.5254 -169.365c-0.395508 -21.9258 -0.433594 -33.2402 -0.22168 -41.9463
c26.3789 -43.8281 72.168 -89.959 89.3252 -129.607c6.95117 -16.0635 5.49219 -24.7637 2.64551 -40.2051l-12 -14l-79.501 -63.5771v-212.431c1.93945 -31.0869 1.82422 -79.2412 -27.416 -108.48c-26.0322 -26.0322 -182.507 -12.0195 -220.584 -13.0049
l-2.90137 0.0126953c-103.732 -7.2998 -296.108 50.6025 -326.603 92.1719c-18.5059 25.2275 -31.4014 41.2529 -57.9951 55.3086v70.0371c25.8174 -16.2627 49.624 -17.8066 70.1904 -60.6357c44.2188 -92.082 349.455 -105.734 451.309 -108.438l-0.499023 -0.962891
c50 12 34.1514 4.48145 42.5352 13.5361c19.1768 20.7119 3.97852 41.9688 5.50781 57.9648h-0.541992v2.14941c-0.253906 0.990234 -0.500977 1.94141 -0.738281 2.84863h0.738281v207.174v3.4873v1.33887h1.58203l104 88h1.13281
c4.9834 45.8955 -62.8379 92.1289 -94.2158 139.501l-3 4l-1 1c-2.02051 3.99219 0.0439453 4.02539 -2.08398 11.5605c-0.0371094 0.130859 -0.189453 0.24707 -0.174805 0.367188l0.258789 2.07227l0.0644531 1.49902
c0.00976562 0.226562 0.150391 3.89551 0.242188 6.24414c3.11426 79.1523 5.19727 173.389 -83.8154 173.771c-136.35 16.7461 -373.536 9.53418 -431.49 -46.5137zM555.493 429.342c-15.0234 -7.40625 -15.1826 -7.4707 -16.7559 -7.4707
c-0.928711 0 -2.78711 0.243164 -4.19531 1.98828c-0.183594 0.227539 -16.1318 23.1338 -16.7266 23.9463c-0.97168 1.32715 -2.1748 2.73438 -2.1748 4.95605c0 3.07324 2.02539 4.45215 5.7998 7.02246c20.3076 13.9785 46.1211 31.79 49.3057 34.1963h13.1182
c2.09668 0 3.83789 0.00390625 5.29785 0.00390625c6.04297 0 7.27637 -0.0722656 9.03125 -0.813477c0.000976563 0 0.145508 -0.0556641 0.145508 -0.0556641c1.07715 -0.396484 6.4668 -2.2207 13.1865 -2.2207h0.679688c4.44629 0 6.87402 0.396484 12.8066 3.08594
h24.3242c0.568359 -0.389648 46.9434 -32.2539 56.5664 -39.4648c-4.58496 -6.92285 -6.74121 -10.2705 -12.9102 -20.4941c-2.90527 -4.81445 -4.6582 -7.94629 -6.2373 -9.52539c-1.64844 -1.64746 -3.49512 -1.6709 -3.84277 -1.6709
c-1.30176 0 -9.44336 2.29395 -22.6484 6.09863c7.47656 -82.3857 7.47656 -82.3857 7.47656 -82.5488v-6.15332h-117.434c0.719727 9.34668 0.719727 9.34668 1.30664 20.2217l1.1748 21.0098l1.18066 20.6426c0 0.00292969 1.03223 18.457 1.52441 27.2461z
M654.848 352.647c-0.0732422 0.850586 -7.68555 83.9873 -7.68555 84.9629c0 2.98535 1.65137 5.07812 3.87988 5.76367v0.847656c1.12109 -0.286133 2.24121 -0.572266 3.3623 -0.858398l-0.0146484 -0.0605469c4.90137 -1.16797 18.7676 -5.29102 25.4619 -7.09766
l9.375 15.167c-1.2832 0.889648 -2.70898 1.875 -3.97754 2.74512c-21.3486 14.832 -21.3486 14.832 -39.5557 27.4434c-1.15527 0.0410156 -3.79102 0.103516 -8.78125 0.103516c-3.06836 0 -6.1377 0.00195312 -9.20508 0.00195312
c-4.22656 -1.6084 -8.37598 -3.04785 -15.6133 -3.04785c-4.55078 0 -8.9248 0.0732422 -18.4453 3.04785h-9.71973c-4.64453 0 -7.77441 -0.0644531 -9.22949 -0.115234c-5.72949 -3.88574 -35.709 -24.6152 -44.1299 -30.4473
c2.28809 -3.27344 5.38086 -7.73633 10.4834 -15.0967c5.03809 2.45605 17.1816 8.40137 19.6572 9.51758c0.69043 0.43457 1.95898 0.523438 2.24707 0.523438c0.0380859 0 0.0517578 -0.00683594 0.0517578 -0.00683594c3.03906 0 5.46582 -2.30078 5.46582 -6.04199
c0 -0.135742 -0.43457 -7.13184 -0.787109 -13.5791l-4.17578 -73.8213c7.57617 -0.0410156 22.0537 -0.0605469 37.5312 -0.0605469zM563.187 230.12c-15.0234 -7.40625 -15.1826 -7.4707 -16.7559 -7.4707c-0.928711 0 -2.78711 0.243164 -4.19531 1.98828
c-0.183594 0.227539 -16.1318 23.1338 -16.7266 23.9463c-0.97168 1.32715 -2.1748 2.73438 -2.1748 4.95605c0 3.07324 2.02539 4.45215 5.7998 7.02246c20.3076 13.9785 46.1211 31.79 49.3057 34.1963h13.1182c2.09668 0 3.83789 0.00390625 5.29785 0.00390625
c6.04297 0 7.27637 -0.0722656 9.03125 -0.813477c0.000976562 0 0.145508 -0.0556641 0.145508 -0.0556641c1.07715 -0.396484 6.4668 -2.2207 13.1865 -2.2207h0.679688c4.44629 0 6.87402 0.396484 12.8066 3.08594h24.3242
c0.568359 -0.389648 46.9434 -32.2539 56.5664 -39.4648c-4.58496 -6.92285 -6.74121 -10.2705 -12.9102 -20.4941c-2.90527 -4.81445 -4.6582 -7.94629 -6.2373 -9.52539c-1.64844 -1.64746 -3.49512 -1.6709 -3.84277 -1.6709
c-1.30176 0 -9.44336 2.29395 -22.6484 6.09863c7.47656 -82.3857 7.47656 -82.3857 7.47656 -82.5488v-6.15332h-117.434c0.719727 9.34668 0.719727 9.34668 1.30664 20.2217l1.1748 21.0098l1.18066 20.6426c0 0.00292969 1.03223 18.457 1.52441 27.2461z
M662.541 153.426c-0.0732422 0.850586 -7.68555 83.9873 -7.68555 84.9629c0 2.98535 1.65137 5.07812 3.87988 5.76367v0.847656c1.12109 -0.286133 2.24121 -0.572266 3.3623 -0.858398l-0.0146484 -0.0605469c4.90137 -1.16797 18.7676 -5.29102 25.4619 -7.09766
l9.375 15.167c-1.2832 0.889648 -2.70898 1.875 -3.97754 2.74512c-21.3486 14.832 -21.3486 14.832 -39.5557 27.4434c-1.15527 0.0410156 -3.79102 0.103516 -8.78125 0.103516c-3.06836 0 -6.1377 0.00195313 -9.20508 0.00195313
c-4.22656 -1.6084 -8.37598 -3.04785 -15.6133 -3.04785c-4.55078 0 -8.9248 0.0732422 -18.4453 3.04785h-9.71973c-4.64453 0 -7.77441 -0.0644531 -9.22949 -0.115234c-5.72949 -3.88574 -35.709 -24.6152 -44.1299 -30.4473
c2.28809 -3.27344 5.38086 -7.73633 10.4834 -15.0967c5.03809 2.45605 17.1816 8.40137 19.6572 9.51758c0.69043 0.43457 1.95898 0.523438 2.24707 0.523438c0.0380859 0 0.0517578 -0.00683594 0.0517578 -0.00683594c3.03906 0 5.46582 -2.30078 5.46582 -6.04199
c0 -0.135742 -0.43457 -7.13184 -0.787109 -13.5791l-4.17578 -73.8213c7.57617 -0.0410156 22.0537 -0.0605469 37.5312 -0.0605469z" />
  </g>

</svg>
