<?xml version="1.0" standalone="no"?>
<!DOCTYPE svg PUBLIC "-//W3C//DTD SVG 1.1//EN" "http://www.w3.org/Graphics/SVG/1.1/DTD/svg11.dtd" >
<svg xmlns="http://www.w3.org/2000/svg" xmlns:xlink="http://www.w3.org/1999/xlink" version="1.1" viewBox="-10 0 997 1000">
  <g transform="matrix(1 0 0 -1 0 800)">
   <path fill="currentColor"
d="M828.399 483.872c0 9.49878 0.360099 25.4826 0.360099 28.905l-0.318652 61.3747l-8.69455 54.78l-24.0577 41.7601l-29.8355 19.1251l-33.9409 8.02542l-47.9505 1.85133v0.765382l-107.704 8.96128l-161.614 -4.8437l-135.511 -48.0118l4.97421 -24.8711
l90.1513 34.2037l168.519 13.9909l163.859 -8.05849l72.0585 -32.0852l24.6852 -76.5829c-11.2968 -92.7231 -11.5388 -94.7093 -10.6225 -98.1968c0.272553 -1.03738 0.408327 -1.98777 0.495372 -2.92219c0.487753 -0.641757 1.13403 -1.58506 1.4862 -2.05622
l30.4464 -40.7334l38.0432 -60.0682l23.93 -33.502l-96.7113 -80.2498l-3.19974 -219.288c0.962733 -7.56244 2.78458 -22.0112 5.01798 -45.877c-0.12894 -0.269919 -9.65147 -20.9678 -12.8349 -27.02c-1.80565 -3.43278 -3.36365 -6.39475 -8.94453 -11.1259
c-28.726 -6.87192 -37.6748 -9.01268 -53.7943 -9.01268c-3.38415 0 -6.77838 0.14333 -10.1737 0.446144l-127.95 -3.2205l-189.706 31.9736l-119.91 72.0259l-21.8729 31.5454c-0.18608 0.126152 -14.9542 10.3475 -18.5829 12.6523v-31.4635
c5.41685 -3.87145 13.5068 -7.36272 24.4398 -17.2503c7.32645 -6.62591 2.09556 -4.45645 10.6241 -11.9264c1.03002 -0.902171 1.03002 -0.902171 17.2005 -21.8062l70.2643 -41.1391l123.979 -35.7692l40.8353 -3.74581
c52.8258 -4.90757 59.0669 -6.73248 83.0467 -7.42728l68.08 -1.97257l89.7606 0.254271l51.1066 12.4914l15.1376 25.2075l6.27671 34.16l-0.268638 82.9487l0.0291888 84.2282l-0.00582149 87.5189l84.7837 67.8016l7.68593 8.96692l1.11464 7.19504
c0.44913 7.61262 -1.52476 12.8022 -3.31214 18.1783l-23.3304 38.8443l-33.0243 43.448l-34.3179 48.9016c-0.202711 16.1296 -0.202711 16.1296 -0.202711 17.6951zM392.56 269.69c52.4268 0.835938 61.3154 -5.52539 85.5898 -4.33496
c0.498047 2.02441 3.97559 1.06934 5.9502 1.61719c48.0439 4.46875 97.0674 47.8428 106.678 58.9258l3.22266 2.10156l8 7l5.66602 -8.46582c3.77734 -5.66699 7.55469 -11.334 11.333 -17c-33.9541 -31.1309 -51.1455 -46.8926 -93.1621 -63.4697
c20.6299 -8.2168 39.9883 -20.2627 54.2803 -31.5156c12.1523 -9.56934 22.1846 -13.7266 32.4922 -23.0059l6.9834 -6.28516l-20.8945 -26.3916c-21.4189 16.5225 -45.4082 33.8633 -45.8633 34.21c-53.1143 40.4355 -124.382 42.6162 -163.24 42.2861l-10.3086 -0.0878906
c0.163086 7.42188 0.327148 14.8428 0.490234 22.2646c0.176758 8.25195 8.05566 12.917 12.7832 12.1514zM478.127 599.307c76.498 -0.402344 76.498 -0.402344 89.8281 -0.402344c-0.0400391 -2.4541 -4.03223 -210.254 -4.03223 -245.396
c-24.3809 0 -24.3809 0 -88.2461 0.414062v32.5977c18.041 -0.117188 36.083 -0.234375 54.124 -0.352539l4.09961 181.604c-18.5908 0.116211 -37.1826 0.232422 -55.7734 0.348633v31.1865zM33.2949 712.521h55.5146l17.1611 52.2256l17.1602 -52.2256h55.5156
l-44.8672 -32.2959l17.1611 -52.2246l-44.9697 32.2959l-44.9707 -32.2959l17.1611 52.2246zM346.643 109.998h299.355v-28.6357h-299.355v28.6357z" />
  </g>

</svg>
