<?xml version="1.0" standalone="no"?>
<!DOCTYPE svg PUBLIC "-//W3C//DTD SVG 1.1//EN" "http://www.w3.org/Graphics/SVG/1.1/DTD/svg11.dtd" >
<svg xmlns="http://www.w3.org/2000/svg" xmlns:xlink="http://www.w3.org/1999/xlink" version="1.1" viewBox="-10 0 1114 1000">
  <g transform="matrix(1 0 0 -1 0 800)">
   <path fill="currentColor"
d="M637.612 668.486c78.1104 0 141.745 -63.46 141.745 -141.777c0 -78.4736 -63.6875 -141.834 -141.776 -141.834c-69.3076 0 -129.013 52.834 -140.004 119.295c-0.569336 3.44922 -1.13965 6.89844 -1.70898 10.3477l-312.354 2.88477l0.249023 26.9443l312.354 -2.8877
c3.98535 21.6172 9.78516 53.0811 41.4824 84.7783c26.0586 26.0586 61.8184 42.249 100.013 42.249zM637.058 411.918c60.0439 0 115.106 47.7598 115.106 114.783c0 63.4746 -51.5957 114.843 -114.797 114.843c-51.0596 0 -96.9902 -36.2051 -110.742 -84.5439
l-4.48926 -15.7783l64.0254 -0.595703c5.52051 11.7363 7.30176 15.5234 14.1172 22.3398c9.76953 9.76855 23.2432 16.0771 37.084 16.0771c28.666 0 52.3027 -23.3145 52.3027 -52.3496c0 -31.3662 -26.0371 -52.3691 -52.293 -52.3691
c-14.957 0 -27.7041 6.68066 -36.8457 15.8223c-7.37207 7.37207 -9.53613 12.2002 -14.6172 23.54l-64.0225 0.589844c7.04395 -26.4053 12.1738 -45.6338 34.6807 -68.1426c23.6533 -23.6514 52.4287 -34.2158 80.4902 -34.2158zM864.981 612.166l38.6729 49.7197
c2.44238 3.13867 7.08496 2.70605 9.22168 0.300781l47.0332 -52.9375c2.29102 -2.57812 1.88574 -6.68945 -0.864258 -8.77051c-0.75293 -0.568359 -1.63867 -0.957031 -2.56641 -1.12207l-8.0127 -1.42969c-2.04199 -0.366211 -4.17871 0.391602 -5.53809 1.91797
l-25.9277 29.1553l2.2793 -167.941c0.0371094 -3.50488 -3.07129 -6.20801 -6.2793 -6.05859l-7.66504 0.358398c-3.26074 0.151367 -5.73633 3.02344 -5.7207 6.02539l-0.454102 166.358l-21.2256 -27.2393c-2.36426 -3.03516 -7.04688 -2.98242 -9.39062 -0.09375
l-3.48438 4.29199c-1.79004 2.20508 -1.65918 5.43262 -0.078125 7.46484zM1002.01 -89.65c4.74893 0 8.57254 3.86562 8.57254 8.54157v172.911l29.8094 -37.9153l21.4143 18.9302l-51.2238 59.6424v86.5376c0 4.72109 -3.86506 8.52243 -8.50981 8.54256
l-233.571 0.942143c12.4327 10.7344 24.8655 21.4688 37.2982 32.2032l-19.7944 20.4201l-57.9834 -52.46l-2.90876 0.011771s-96.9802 0.392516 -97.0107 0.392578c-4.75336 0 -8.57246 -3.87115 -8.57246 -8.54352v-300.105c0 -4.7353 3.88568 -8.54151 8.54151 -8.54151z
M646.623 -61.0836v263.013l80.8702 -0.346699l63.0269 -53.1505l18.2503 21.2687l-38.8468 31.6982l213.575 -0.915887v-66.4406l-54.4987 -59.7693l20.3699 -19.1704l34.1288 38.1097v-155.743z" />
  </g>

</svg>
