<?xml version="1.0" standalone="no"?>
<!DOCTYPE svg PUBLIC "-//W3C//DTD SVG 1.1//EN" "http://www.w3.org/Graphics/SVG/1.1/DTD/svg11.dtd" >
<svg xmlns="http://www.w3.org/2000/svg" xmlns:xlink="http://www.w3.org/1999/xlink" version="1.1" viewBox="-10 0 1008 1000">
  <g transform="matrix(1 0 0 -1 0 800)">
   <path fill="currentColor"
d="M332.481 97.6934l-82.2217 148.848l24.0225 10.1475l58.4395 -100.383l53.3027 101.418l27.2285 -11.0254zM249.568 -67.707v34.6641h38.626v22.0713h-38.626v34.6641h38.626v33.7148h31.3828v-33.7148h23.2197v31.2539h31.3828v-31.2539h41.292v-34.6641h-41.292
v-22.0713h41.292v-34.6641h-41.292v-36.1855h-31.3828v36.1855h-23.2197v-33.7246h-31.3828v33.7246h-38.626zM319.577 -33.043h23.2197v22.0713h-23.2197v-22.0713zM764.659 223.904c-0.529297 0 -0.985352 0.173828 -1.32227 0.358398l-214.094 -88.2627v-37.8242
c12.126 5.10742 24.251 10.2148 36.376 15.3213v-3.77051l-0.21875 -161.659h318.305l0.646484 155.446c10.9619 -6.48535 21.9238 -12.9697 32.8867 -19.4551l-0.677734 40.7051l-136.33 79.1182l1.46387 0.616211c-22.6963 11.7715 -24.457 12.7314 -36.2109 19.5508
c-0.288086 -0.102539 -0.56543 -0.144531 -0.824219 -0.144531zM868.594 -16.7148h-248.003l-0.665039 144.662l142.009 59.8174l107.859 -63.8086zM38.3545 -39.4795h55.5146l17.1611 52.2256l17.1602 -52.2256h55.5156l-44.8672 -32.2959l17.1611 -52.2246
l-44.9697 32.2959l-44.9707 -32.2959l17.1611 52.2246zM244.718 626l0.569336 16.7783h256.282l-0.569336 -16.7783h-256.282zM293.572 642.779v60.8076h19.8096v-60.8076h-19.8096zM359.19 642.778v58.2217h19.8096v-58.2217h-19.8096zM429.761 641.485v56.9268h22.2852
v-56.9268h-22.2852zM736.709 748.486c77.4414 -0.107422 140.291 -63.0449 140.291 -140.486c0 -0.0263672 5.6664e-05 -0.0703141 0 -0.0976562c-0.160156 -77.2803 -63.0107 -140 -140.291 -140c-77.4404 0 -140.291 62.8516 -140.291 140.292
c0 77.4414 62.8497 140.399 140.291 140.292zM867.084 612.375l-34.8057 83.9023l-54.7354 -54.7363c-0.497612 -0.497621 11.502 -29.166 12.3467 -29.166h77.1943zM741.57 738.181l-0.0976562 -77.7783c-0.000958069 -0.763054 28.4996 -12.4311 29.167 -11.7637
l54.7354 54.7363zM731.848 738.181l-83.8047 -34.709l54.6387 -54.833c0.65449 -0.656818 29.166 10.9893 29.166 11.7637v77.7783zM641.14 696.569l-34.8057 -84.1943h77.1943c0.844727 0 12.8601 28.6498 12.3467 29.166zM606.334 602.652l34.8057 -83.5137
l54.6387 54.3477c0.481078 0.478515 -11.501 29.166 -12.3467 29.166h-77.0977zM731.848 477.527l0.0976562 77.7783c0.000958067 0.763053 -28.4996 12.4311 -29.167 11.7637l-54.7354 -54.7363zM741.57 477.527l83.9023 34.8057l-54.7363 54.7363
c-0.666992 0.666992 -29.166 -10.9893 -29.166 -11.7637v-77.7783zM832.278 519.139l34.708 83.5137h-77.0967c-0.844727 0 -12.8229 -28.6931 -12.3467 -29.166zM692.959 607.902c0 -55.7441 87.5 -55.458 87.5 0c0 23.7871 -19.5879 43.0693 -43.75 43.0693
s-43.75 -19.2822 -43.75 -43.0693z" />
  </g>

</svg>
