<?xml version="1.0" standalone="no"?>
<!DOCTYPE svg PUBLIC "-//W3C//DTD SVG 1.1//EN" "http://www.w3.org/Graphics/SVG/1.1/DTD/svg11.dtd" >
<svg xmlns="http://www.w3.org/2000/svg" xmlns:xlink="http://www.w3.org/1999/xlink" version="1.1" viewBox="-10 0 1021 1000">
  <g transform="matrix(1 0 0 -1 0 800)">
   <path fill="currentColor"
d="M423.962 572.826c0.823242 -14.625 -5.78809 -56.8486 -2.78809 -61.4385c0.142578 -0.0839844 0.553711 -0.375977 0.607422 -0.958984c3.39648 -36.5195 32.7119 -71.4922 44.0801 -82.8594c2.39355 -2.39355 3.94531 -3.59473 3.94531 -3.59473l-1.20605 -0.292969
l-0.352539 -0.806641l1.94141 -1.08398l-7.55957 -5.04004c-0.501953 -0.333984 -1.19043 -0.266602 -1.61426 0.196289c-1.00879 1.10059 -2.02441 2.2002 -3.04785 3.30762c-15.6279 16.9189 -32.7354 35.4971 -46.1816 79.3232
c-4.46387 -21.0391 -17.2227 -43.3926 -28.7861 -58.0781c-6.86719 -8.7207 -12.6689 -19.8818 -17.3789 -24.5918c-0.453125 -0.453125 -1.16895 -0.485352 -1.65918 -0.0976562c-5.10156 4.03906 -8.66992 6.8584 -8.74902 6.9375
c-0.449219 0.449219 -0.484375 1.15625 -0.106445 1.64648c7.23438 9.37793 18.373 24.9219 21.5947 29.1533c32.498 42.6885 33.918 98.9268 33.6641 128.858c-0.00585938 0.706055 0.571289 1.27637 1.27734 1.26074l9.15625 -0.202148
c0.822266 -0.0175781 3.10645 -0.378906 3.03711 -3.85254c-0.015625 -0.750977 -0.0820312 -4.09863 0.125977 -7.78613zM296.962 575.326c0.823242 -14.625 -5.78809 -56.8486 -2.78809 -61.4385c0.142578 -0.0839844 0.553711 -0.375977 0.607422 -0.958984
c3.39648 -36.5195 32.7119 -71.4922 44.0801 -82.8594c2.39355 -2.39355 3.94531 -3.59473 3.94531 -3.59473l-1.20605 -0.292969l-0.352539 -0.806641l1.94141 -1.08398l-7.55957 -5.04004c-0.501953 -0.333984 -1.19043 -0.266602 -1.61426 0.196289
c-1.00879 1.10059 -2.02441 2.2002 -3.04785 3.30762c-15.6279 16.9189 -32.7354 35.4971 -46.1816 79.3232c-4.46387 -21.0391 -17.2227 -43.3926 -28.7861 -58.0781c-6.86719 -8.7207 -12.6689 -19.8818 -17.3789 -24.5918
c-0.453125 -0.453125 -1.16895 -0.485352 -1.65918 -0.0976562c-5.10156 4.03906 -8.66992 6.8584 -8.74902 6.9375c-0.449219 0.449219 -0.484375 1.15625 -0.106445 1.64648c7.23438 9.37793 18.373 24.9219 21.5947 29.1533
c32.498 42.6885 33.918 98.9268 33.6641 128.858c-0.00585938 0.706055 0.571289 1.27637 1.27734 1.26074l9.15625 -0.202148c0.822266 -0.0175781 3.10645 -0.378906 3.03711 -3.85254c-0.015625 -0.750977 -0.0820312 -4.09863 0.125977 -7.78613zM430.823 755.396
c0.823242 -14.625 -5.78809 -56.8486 -2.78809 -61.4385c0.142578 -0.0839844 0.553711 -0.375977 0.607422 -0.958984c3.39648 -36.5195 32.7119 -71.4922 44.0801 -82.8594c2.39355 -2.39355 3.94531 -3.59473 3.94531 -3.59473l-1.20605 -0.292969l-0.352539 -0.806641
l1.94141 -1.08398l-7.55957 -5.04004c-0.501953 -0.333984 -1.19043 -0.266602 -1.61426 0.196289c-1.00879 1.10059 -2.02441 2.2002 -3.04785 3.30762c-15.6279 16.9189 -32.7354 35.4971 -46.1816 79.3232c-4.46387 -21.0391 -17.2227 -43.3926 -28.7861 -58.0781
c-6.86719 -8.7207 -12.6689 -19.8818 -17.3789 -24.5918c-0.453125 -0.453125 -1.16895 -0.485352 -1.65918 -0.0976562c-5.10156 4.03906 -8.66992 6.8584 -8.74902 6.9375c-0.449219 0.449219 -0.484375 1.15625 -0.106445 1.64648
c7.23438 9.37793 18.373 24.9219 21.5947 29.1533c32.498 42.6885 33.918 98.9268 33.6641 128.858c-0.00585938 0.706055 0.571289 1.27637 1.27734 1.26074l9.15625 -0.202148c0.822266 -0.0175781 3.10645 -0.378906 3.03711 -3.85254
c-0.015625 -0.750977 -0.0820312 -4.09863 0.125977 -7.78613zM303.823 757.896c0.823242 -14.625 -5.78809 -56.8486 -2.78809 -61.4385c0.142578 -0.0839844 0.553711 -0.375977 0.607422 -0.958984c3.39648 -36.5195 32.7119 -71.4922 44.0801 -82.8594
c2.39355 -2.39355 3.94531 -3.59473 3.94531 -3.59473l-1.20605 -0.292969l-0.352539 -0.806641l1.94141 -1.08398l-7.55957 -5.04004c-0.501953 -0.333984 -1.19043 -0.266602 -1.61426 0.196289c-1.00879 1.10059 -2.02441 2.2002 -3.04785 3.30762
c-15.6279 16.9189 -32.7354 35.4971 -46.1816 79.3232c-4.46387 -21.0391 -17.2227 -43.3926 -28.7861 -58.0781c-6.86719 -8.7207 -12.6689 -19.8818 -17.3789 -24.5918c-0.453125 -0.453125 -1.16895 -0.485352 -1.65918 -0.0976562
c-5.10156 4.03906 -8.66992 6.8584 -8.74902 6.9375c-0.449219 0.449219 -0.484375 1.15625 -0.106445 1.64648c7.23438 9.37793 18.373 24.9219 21.5947 29.1533c32.498 42.6885 33.918 98.9268 33.6641 128.858c-0.00585938 0.706055 0.571289 1.27637 1.27734 1.26074
l9.15625 -0.202148c0.822266 -0.0175781 3.10645 -0.378906 3.03711 -3.85254c-0.015625 -0.750977 -0.0820312 -4.09863 0.125977 -7.78613zM34.3545 -40.4795h55.5146l17.1611 52.2256l17.1602 -52.2256h55.5156l-44.8672 -32.2959l17.1611 -52.2246l-44.9697 32.2959
l-44.9707 -32.2959l17.1611 52.2246zM435.911 303.59c0 7.42841 6.0471 13.5419 13.5917 13.5419c-0.0186957 0 84.0667 -0.340158 97.9808 -0.396451l63.6425 57.58c1.31783 -10.3854 2.6902 -20.7163 3.97386 -31.1358l0.898828 -27.9477l207.445 0.390289
c7.38455 0.0141859 13.5185 -6.02991 13.5185 -13.541v-84.6842l57.647 -67.1216l-50.4873 2.73498l-7.93986 -0.486957l0.780191 -150.522c0.0378545 -7.4179 -6.04061 -13.5667 -13.5915 -13.5667c0.0203248 -4.10037e-05 -373.918 1.50875 -373.918 1.50875
c-7.40362 0 -13.541 6.02741 -13.541 13.541v300.105zM472.999 26.9776l326.888 -1.40436l0.261361 128.418c-11.49 -0.623344 -11.49 -0.623344 -61.3779 -1.94307l61.1064 67.0159v59.571l-183.72 2.52008c-0.154819 -15.4527 -0.159257 -15.8957 1.03468 -60.6456
l-70.1594 59.1648l-74.0335 0.317372v-253.015zM34.3545 -40.4795h55.5146l17.1611 52.2256l17.1602 -52.2256h55.5156l-44.8672 -32.2959l17.1611 -52.2246l-44.9697 32.2959l-44.9707 -32.2959l17.1611 52.2246zM435.911 303.59c0 7.42841 6.0471 13.5419 13.5917 13.5419
c-0.0186957 0 84.0667 -0.340158 97.9808 -0.396451l63.6425 57.58c1.31783 -10.3854 2.6902 -20.7163 3.97386 -31.1358l0.898828 -27.9477l207.445 0.390289c7.38455 0.0141859 13.5185 -6.02991 13.5185 -13.541v-84.6842l57.647 -67.1216l-50.4873 2.73498
l-7.93986 -0.486957l0.780191 -150.522c0.0378545 -7.4179 -6.04061 -13.5667 -13.5915 -13.5667c0.0203248 -4.10037e-05 -373.918 1.50875 -373.918 1.50875c-7.40362 0 -13.541 6.02741 -13.541 13.541v300.105zM472.999 26.9776l326.888 -1.40436l0.261361 128.418
c-11.49 -0.623344 -11.49 -0.623344 -61.3779 -1.94307l61.1064 67.0159v59.571l-183.72 2.52008c-0.154819 -15.4527 -0.159257 -15.8957 1.03468 -60.6456l-70.1594 59.1648l-74.0335 0.317372v-253.015z" />
  </g>

</svg>
