<?xml version="1.0" standalone="no"?>
<!DOCTYPE svg PUBLIC "-//W3C//DTD SVG 1.1//EN" "http://www.w3.org/Graphics/SVG/1.1/DTD/svg11.dtd" >
<svg xmlns="http://www.w3.org/2000/svg" xmlns:xlink="http://www.w3.org/1999/xlink" version="1.1" viewBox="-10 0 1011 1000">
  <g transform="matrix(1 0 0 -1 0 800)">
   <path fill="currentColor"
d="M30.3242 741.553h55.5146l17.1611 52.2256l17.1602 -52.2256h55.5156l-44.8672 -32.2959l17.1611 -52.2246l-44.9697 32.2959l-44.9707 -32.2959l17.1611 52.2246zM271 608l-12 60c128.725 89.7881 355.203 55.3633 442.457 48.5605
c0 -0.0107422 0.000976562 -0.0214844 0.000976562 -0.0322266c27.4463 0.582031 75.1855 -1.32129 107.268 -33.4033c40.1396 -40.1396 38.6152 -108.841 37.5254 -169.365c-0.395508 -21.9258 -0.433594 -33.2402 -0.22168 -41.9463
c26.3789 -43.8281 72.168 -89.959 89.3252 -129.607c6.95117 -16.0635 5.49219 -24.7637 2.64551 -40.2051l-12 -14l-79.501 -63.5771v-212.431c1.93945 -31.0869 1.82422 -79.2412 -27.416 -108.48c-26.0322 -26.0322 -182.507 -12.0195 -220.584 -13.0049
l-2.90137 0.0126953c-103.732 -7.2998 -296.108 50.6025 -326.603 92.1719c-18.5059 25.2275 -31.4014 41.2529 -57.9951 55.3086v70.0371c25.8174 -16.2627 49.624 -17.8066 70.1904 -60.6357c44.2188 -92.082 349.455 -105.734 451.309 -108.438l-0.499023 -0.962891
c50 12 34.1514 4.48145 42.5352 13.5361c19.1768 20.7119 3.97852 41.9688 5.50781 57.9648h-0.541992v2.14941c-0.253906 0.990234 -0.500977 1.94141 -0.738281 2.84863h0.738281v207.174v3.4873v1.33887h1.58203l104 88h1.13281
c4.9834 45.8955 -62.8379 92.1289 -94.2158 139.501l-3 4l-1 1c-2.02051 3.99219 0.0439453 4.02539 -2.08398 11.5605c-0.0371094 0.130859 -0.189453 0.24707 -0.174805 0.367188l0.258789 2.07227l0.0644531 1.49902
c0.00976562 0.226562 0.150391 3.89551 0.242188 6.24414c3.11426 79.1523 5.19727 173.389 -83.8154 173.771c-136.35 16.7461 -373.536 9.53418 -431.49 -46.5137zM423.738 457.175l-48.2852 -54.8486l52.5469 -54.3262l-6.8418 -6.41016l-52.6055 54.4678
l-47.5781 -54.4678l-4.96875 6.11133l46.9736 53.7295l-46.1768 54.0273l6.10352 6.56738l46.708 -52.2373l48.8311 52.5361zM560 336l-53.7598 52.7998l10.2402 10.5596l43.2002 -39.6797l76.7998 97.2803l11.5195 -8zM522.66 228.2zM522.522 226.579zM621.57 209.715
c0 -12.5625 -4.09375 -24.8145 -14.7402 -35.4609c-4.7666 -4.7666 -8.78418 -8.07715 -12.4736 -10.3604c21.7061 3.86816 49.9756 13.9131 68.4717 46.0215c-4.01758 6.95996 -8.85449 13.2725 -14.5498 18.9678c-12.4766 12.4775 -29.9043 22.7227 -52.958 26.9688
c-0.289062 0.0537109 -0.1875 -0.349609 -1.1123 -0.0742188c-0.612305 0.182617 -2.43262 0.727539 -5.04004 1.17773c5.60742 -2.20801 11.5771 -5.83984 17.4482 -11.7109c10.3916 -10.3926 14.9541 -22.4189 14.9541 -35.5293zM569.92 173.271
c14.127 0 22.292 6.7793 26.6807 11.168c9.25391 9.25391 10.5693 18.9922 10.5693 25.4199c-0.0322266 9.20703 -3.13574 17.7285 -10.5664 25.1582c-15.083 15.083 -33.0576 11.6816 -41.1943 8.16699c-0.0771484 0 -11.4502 -7.50391 -11.5664 -7.58008
c-2.96387 -4.31445 -5.87695 -8.67871 -8.82129 -13.0127l-0.0292969 0.0107422c-4.77441 -13.2178 -2.4668 -27.6221 8.32617 -38.416c7.44531 -7.44531 16.3379 -10.915 26.6016 -10.915zM572.237 146.412v0c-13.4932 0 -58.1777 0.644531 -94.2158 36.6826
c-8.03613 8.03613 -14.3789 16.7246 -20.0547 26.8203c-0.0195312 0.0341797 -0.0380859 0.0693359 -0.0576172 0.104492l0.0576172 -0.104492c6.42871 11.4355 13.001 19.8359 20.6172 27.4512c17.4688 17.4697 46.9248 36.2012 93.6533 36.2012
c12.0381 0 57.5859 -0.211914 93.626 -36.251c8.2207 -8.22168 14.6758 -17.1035 20.3945 -27.4004c0.0195312 -0.0341797 0.0380859 -0.0683594 0.0566406 -0.101562l-0.0566406 0.101562c-3.05566 -5.50391 -9.26367 -16.1504 -20.0078 -26.8945
c-35.7207 -35.7207 -79.793 -36.6094 -94.0127 -36.6094zM549.246 255.958c-37.5889 -6.83496 -56.915 -27.0967 -67.8457 -46.042c4.6709 -8.06055 9.94238 -14.2959 14.5586 -18.9121c10.8496 -10.8496 27.0576 -21.6855 50.585 -26.5059
c-4.46777 2.19141 -9.12109 5.31152 -13.5732 9.76367c-17.168 17.1689 -16.9121 38.7861 -11.4287 53.1279c0.0839844 0.125 0.0478516 0.206055 -0.0810547 0.250977c-0.207031 1.10449 3.00879 6.56543 3.53613 7.91016
c0.657227 1.67578 1.43848 2.48828 2.69531 3.62305c0.878906 0.792969 0.893555 0.80957 1.49219 1.80762c0.895508 1.49512 0.936523 1.58008 4.85547 5.49902c3.08301 3.08301 10.3018 7.63379 15.2061 9.47754zM309.503 212.998l87.7549 -42.9951l-51.7832 -73.9766
l14.7754 -12.0049l65.0088 93.3076l-85.1094 42.5547c11.1465 14.3301 22.6494 29.167 40.6025 52.7568l-13.2617 15.9609z" />
  </g>

</svg>
