<?xml version="1.0" standalone="no"?>
<!DOCTYPE svg PUBLIC "-//W3C//DTD SVG 1.1//EN" "http://www.w3.org/Graphics/SVG/1.1/DTD/svg11.dtd" >
<svg xmlns="http://www.w3.org/2000/svg" xmlns:xlink="http://www.w3.org/1999/xlink" version="1.1" viewBox="-10 0 1025 1000">
  <g transform="matrix(1 0 0 -1 0 800)">
   <path fill="currentColor"
d="M482.866 326.379c1.54688 -27.4883 -11.5166 -105.79 -3.83105 -109.9c7.54395 -81.1074 86.0693 -156.889 86.1689 -153.966l-13.3057 -8.87012c-29.9355 32.6533 -63.3379 64.9678 -88.793 153.446c-5.66602 -38.958 -30.001 -82.5928 -51.8652 -110.361
c-13.3057 -16.8955 -19.0088 -30.4131 -30.4131 -43.085l-15.207 12.0391c17.1074 22.1748 26.71 36.4688 38.0166 51.3213c57.7285 75.8311 60.1436 175.395 59.6953 228.141c5.37207 -0.119141 10.7441 -0.237305 16.1162 -0.356445
c3.02246 -0.0644531 3.14551 -3.00195 3.19727 -4.25684c0.00683594 -0.140625 -0.196289 -6.74121 0.220703 -14.1514zM617.304 342.038l-111.976 -126.347l14.6719 -11.6914l95.3857 110.829c7.92383 -13.1377 19.2295 -28.6699 22.9941 -38.8662l26.7676 38.167z
M629.14 404.011h-259.716l-60.5635 152.953l111.923 -46.917l73.25 91.6006l71.9414 -93.1279l110.977 47.1973zM428.705 475.098l-68.4658 30.0771l31.5508 -72.4141l212.21 -0.760742l21.9365 69.0342l-67.1318 -29.8359l-63.6348 81.7617zM37.3545 728.521h55.5146
l17.1611 52.2256l17.1602 -52.2256h55.5156l-44.8672 -32.2959l17.1611 -52.2246l-44.9697 32.2959l-44.9707 -32.2959l17.1611 52.2246zM271 608l-12 60c128.725 89.7881 355.203 55.3633 442.457 48.5605c0 -0.0107422 0.000976562 -0.0214844 0.000976562 -0.0322266
c27.4463 0.582031 75.1855 -1.32129 107.268 -33.4033c40.1396 -40.1396 38.6152 -108.841 37.5254 -169.365c-0.395508 -21.9258 -0.433594 -33.2402 -0.22168 -41.9463c26.3789 -43.8281 72.168 -89.959 89.3252 -129.607
c6.95117 -16.0635 5.49219 -24.7637 2.64551 -40.2051l-12 -14l-79.501 -63.5771v-212.431c1.93945 -31.0869 1.82422 -79.2412 -27.416 -108.48c-26.0322 -26.0322 -182.507 -12.0195 -220.584 -13.0049l-2.90137 0.0126953
c-103.732 -7.2998 -296.108 50.6025 -326.603 92.1719c-18.5059 25.2275 -31.4014 41.2529 -57.9951 55.3086v70.0371c25.8174 -16.2627 49.624 -17.8066 70.1904 -60.6357c44.2188 -92.082 349.455 -105.734 451.309 -108.438l-0.499023 -0.962891
c50 12 34.1514 4.48145 42.5352 13.5361c19.1768 20.7119 3.97852 41.9688 5.50781 57.9648h-0.541992v2.14941c-0.253906 0.990234 -0.500977 1.94141 -0.738281 2.84863h0.738281v207.174v3.4873v1.33887h1.58203l104 88h1.13281
c4.9834 45.8955 -62.8379 92.1289 -94.2158 139.501l-3 4l-1 1c-2.02051 3.99219 0.0439453 4.02539 -2.08398 11.5605c-0.0371094 0.130859 -0.189453 0.24707 -0.174805 0.367188l0.258789 2.07227l0.0644531 1.49902
c0.00976562 0.226562 0.150391 3.89551 0.242188 6.24414c3.11426 79.1523 5.19727 173.389 -83.8154 173.771c-136.35 16.7461 -373.536 9.53418 -431.49 -46.5137z" />
  </g>

</svg>
