<?xml version="1.0" standalone="no"?>
<!DOCTYPE svg PUBLIC "-//W3C//DTD SVG 1.1//EN" "http://www.w3.org/Graphics/SVG/1.1/DTD/svg11.dtd" >
<svg xmlns="http://www.w3.org/2000/svg" xmlns:xlink="http://www.w3.org/1999/xlink" version="1.1" viewBox="-10 0 1051 1000">
  <g transform="matrix(1 0 0 -1 0 800)">
   <path fill="currentColor"
d="M53.1729 734.91h55.5146l17.1611 52.2256l17.1602 -52.2256h55.5156l-44.8672 -32.2959l17.1611 -52.2246l-44.9697 32.2959l-44.9707 -32.2959l17.1611 52.2246zM293.849 601.357l-12 60c128.725 89.7881 355.203 55.3633 442.457 48.5605
c0 -0.0107422 0.000976563 -0.0214844 0.000976563 -0.0322266c27.4463 0.582031 75.1855 -1.32129 107.268 -33.4033c40.1396 -40.1396 38.6152 -108.841 37.5254 -169.365c-0.395508 -21.9258 -0.433594 -33.2402 -0.22168 -41.9463
c26.3789 -43.8281 72.168 -89.959 89.3252 -129.607c6.95117 -16.0635 5.49219 -24.7637 2.64551 -40.2051l-12 -14l-79.501 -63.5771v-212.431c1.93945 -31.0869 1.82422 -79.2412 -27.416 -108.48c-26.0322 -26.0322 -182.507 -12.0195 -220.584 -13.0049
l-2.90137 0.0126953c-103.732 -7.2998 -296.108 50.6025 -326.603 92.1719c-18.5059 25.2275 -31.4014 41.2529 -57.9951 55.3086v70.0371c25.8174 -16.2627 49.624 -17.8066 70.1904 -60.6357c44.2188 -92.082 349.455 -105.734 451.309 -108.438l-0.499023 -0.962891
c50 12 34.1514 4.48145 42.5352 13.5361c19.1768 20.7119 3.97852 41.9688 5.50781 57.9648h-0.541992v2.14941c-0.253906 0.990234 -0.500977 1.94141 -0.738281 2.84863h0.738281v207.174v3.4873v1.33887h1.58203l104 88h1.13281
c4.9834 45.8955 -62.8379 92.1289 -94.2158 139.501l-3 4l-1 1c-2.02051 3.99219 0.0439453 4.02539 -2.08398 11.5605c-0.0371094 0.130859 -0.189453 0.24707 -0.174805 0.367188l0.258789 2.07227l0.0644531 1.49902
c0.00976562 0.226562 0.150391 3.89551 0.242188 6.24414c3.11426 79.1523 5.19727 173.389 -83.8154 173.771c-136.35 16.7461 -373.536 9.53418 -431.49 -46.5137zM595.405 301.014c1.28906 -22.9072 -9.59668 -88.1592 -3.19336 -91.584
c6.28711 -67.5898 71.7256 -130.74 71.8086 -128.305l-11.0879 -7.3916c-24.9473 27.2109 -52.7832 54.1396 -73.9941 127.872c-4.72266 -32.4658 -25.001 -68.8281 -43.2227 -91.9678c-11.0869 -14.0801 -15.8398 -25.3447 -25.3438 -35.9043l-12.6719 10.0322
c14.2559 18.4795 22.2578 30.3906 31.6797 42.7676c48.1074 63.1934 50.1201 146.162 49.7471 190.117c4.47656 -0.0986328 8.95312 -0.197266 13.4297 -0.296875c2.51855 -0.0537109 2.62109 -2.50195 2.66406 -3.54785
c0.00585938 -0.117188 -0.164062 -5.61719 0.18457 -11.792zM707.437 314.062l-93.3135 -105.289l12.2266 -9.74219l79.4883 92.3574c6.60254 -10.9482 16.0254 -23.8916 19.1621 -32.3887l22.3057 31.8057zM691.206 425.734zM519.452 541.283zM487.377 482.235z
M612.35 405.031zM612.124 397.86zM516.638 424.523zM571.687 407.206zM721.842 495.586zM487.377 482.235zM721.842 495.586zM645.787 571.396c-12.1074 0 -22.3574 -4.70996 -27.5566 -9.9082c-1.97754 -1.97852 -1.47266 -2.08203 -2.29102 -2.37891
c-3.6748 -1.34082 -7.27734 -1.82617 -10.5645 -1.82617c-3.10254 0 -8.74219 0.458008 -14.8477 3.20117c-4.14844 5.0498 -11.1641 9.64648 -22.9609 9.64648c-17.71 0 -37.9053 -10.9619 -44.9287 -27.3857l-0.34668 -0.811523h-1.22168l-31.998 -43.4766h-1.53125
v-2.0791c-0.207031 -0.282227 -0.414062 -0.563477 -0.62207 -0.845703h0.334961l-3.54395 -13.2891l-0.398438 0.00585938c-0.0712891 -1.36035 -0.200195 -2.1416 -0.628906 -3.83301h0.515625c-0.0126953 -1.50195 -0.0126953 -1.50195 -0.0126953 -1.65527
c0 -9.71582 4.19238 -29.377 32.1357 -52.4873c29.5117 -24.4102 62.8867 -27.1016 90.5547 -27.1016c45.3486 0 63.8379 5.68359 90.9736 27.127c33.1494 26.1934 33.709 33.9072 34.6201 53.0527l-0.927734 0.0146484
c-0.0566406 0.212891 -4.12793 16.8281 -5.57227 21.3008l-23.6924 40.4854c-2.66992 2.78711 -2.66992 2.78711 -2.93945 3.24902h-0.175781c-8.33008 8.52539 -25.792 24.4785 -42.8418 28.0137c-3.2627 0.676758 -6.45703 0.981445 -9.53223 0.981445zM567.104 559.687
c2.54883 0 8.21387 0 14.6719 -4.44434l-0.0498047 -0.617188c0.373047 -0.152344 0.970703 -0.432617 1.55078 -0.984375c5.47266 -5.2002 13.8828 -7.6416 21.8682 -7.6416c7.43848 0 14.5078 2.11816 18.4873 6.09863c0.774414 0.774414 2.02539 2.02441 2.99121 4.93555
c4.10059 2.79883 10.6152 5.85254 19.5059 5.85254c11.7998 0 17.3154 -5.13867 21.5459 -9.07715c3.28711 -3.06152 7.61621 -7.10254 16.9258 -13.2637c0.355469 -0.0771484 0.647461 -0.248047 0.881836 -0.512695l0.205078 0.0078125l26.625 -41.9961
c0 -0.0712891 -0.00195312 -0.143555 -0.00195312 -0.21582c1.91016 -7.1543 3.65332 -14.4746 5.49219 -21.7002c0.642578 -2.56836 1.00488 -4.94824 1.00488 -7.25293c0 -11.0566 -8.22656 -20.0146 -31.9219 -39.3779
c-21.8359 -17.8418 -37.6484 -23.9629 -85.3008 -23.9629c-25.7979 0 -46.5928 3.16895 -70.8789 20.1689c-29.9375 20.957 -33.9629 36.3896 -33.9629 50.1328c0 0.90625 0.0175781 1.7998 0.0419922 2.67871c1.49414 5.92871 3.11719 11.7275 4.65918 17.6074
l29.1758 41.3076c0.415039 -0.160156 0.828125 -0.319336 1.24121 -0.478516c0.983398 2.31445 2.65723 6.25781 7.19824 10.7988c7.31738 7.31738 18.1484 11.9365 28.0439 11.9365zM370.409 359.102l-65.499 -66.1504l71.2793 -65.5195l-9.28027 -7.72949
l-71.3604 65.6895l-64.5391 -65.6895l-6.74023 7.36914l63.7207 64.7998l-62.6406 65.1602l8.28027 7.91992l63.3604 -63l66.2393 63.3594z" />
  </g>

</svg>
