<?xml version="1.0" standalone="no"?>
<!DOCTYPE svg PUBLIC "-//W3C//DTD SVG 1.1//EN" "http://www.w3.org/Graphics/SVG/1.1/DTD/svg11.dtd" >
<svg xmlns="http://www.w3.org/2000/svg" xmlns:xlink="http://www.w3.org/1999/xlink" version="1.1" viewBox="-10 0 1016 1000">
  <g transform="matrix(1 0 0 -1 0 800)">
   <path fill="currentColor"
d="M34.3545 -40.4795h55.5146l17.1611 52.2256l17.1602 -52.2256h55.5156l-44.8672 -32.2959l17.1611 -52.2246l-44.9697 32.2959l-44.9707 -32.2959l17.1611 52.2246zM435.911 303.59c0 7.42841 6.0471 13.5419 13.5917 13.5419
c-0.0186957 0 84.0667 -0.340158 97.9808 -0.396451l63.6425 57.58c1.31783 -10.3854 2.6902 -20.7163 3.97386 -31.1358l0.898828 -27.9477l207.445 0.390289c7.38455 0.0141859 13.5185 -6.02991 13.5185 -13.541v-84.6842l57.647 -67.1216l-50.4873 2.73498
l-7.93986 -0.486957l0.780191 -150.522c0.0378545 -7.4179 -6.04061 -13.5667 -13.5915 -13.5667c0.0203248 -4.10037e-05 -373.918 1.50875 -373.918 1.50875c-7.40362 0 -13.541 6.02741 -13.541 13.541v300.105zM472.999 26.9776l326.888 -1.40436l0.261361 128.418
c-11.49 -0.623344 -11.49 -0.623344 -61.3779 -1.94307l61.1064 67.0159v59.571l-183.72 2.52008c-0.154819 -15.4527 -0.159257 -15.8957 1.03468 -60.6456l-70.1594 59.1648l-74.0335 0.317372v-253.015zM520.562 616.081c0 -83.1406 85.1064 -150.695 189.029 -150.695
c103.917 0 189.029 67.4131 189.029 150.557c0 83.1416 -85.1064 150.696 -189.029 150.696c-103.917 0 -189.029 -67.4131 -189.029 -150.558zM494.176 615.942c0 97.543 96.4473 177.082 215.415 177.082c118.977 0 215.415 -79.4062 215.415 -176.943
c0 -97.542 -96.4473 -177.081 -215.415 -177.081c-118.976 0 -215.415 79.4062 -215.415 176.942zM593.777 720.759l86.5195 -69.5547l-3.16895 -4.75293l-9 -13.5l-3.67871 -5.51855l-87.2969 65.8945zM728.172 647.501l80.5566 80.5576l18.79 -21.4746l-82.8154 -81.125z
M701.425 576.663h21h2.70312l79.6455 -84.7285l-31.7666 -7.94141l-60.0068 60.0068l-74.7197 -60.9961l-15.375 25.627l76.1318 68.0322h2.3877z" />
  </g>

</svg>
