<?xml version="1.0" standalone="no"?>
<!DOCTYPE svg PUBLIC "-//W3C//DTD SVG 1.1//EN" "http://www.w3.org/Graphics/SVG/1.1/DTD/svg11.dtd" >
<svg xmlns="http://www.w3.org/2000/svg" xmlns:xlink="http://www.w3.org/1999/xlink" version="1.1" viewBox="-10 0 1016 1000">
  <g transform="matrix(1 0 0 -1 0 800)">
   <path fill="currentColor"
d="M597.912 465.278c-13.2461 0 -22.8486 -0.792969 -33.2783 -2.03418c-4.63086 6.78027 -7.70117 10.3262 -13.1816 15.6133c-9.85156 9.50391 -37.4561 16.8066 -63.9053 16.8066c-17.8672 0 -36.7607 -3.10254 -53.3496 -10.9512
c-3.91309 -1.85254 -11.4209 -5.40625 -21.1738 -19.0811c-13.125 1.31055 -21.6572 1.59961 -30.3818 1.59961c-17.7002 0 -36.4756 -1.65039 -52.9863 -5.80762c-6.49805 -1.63574 -16.6455 -5.39746 -24.1543 -12.9053
c-3.16895 -3.16895 -4.2627 -6.30859 -4.2627 -9.55859c0 -7.47559 6.5332 -15.3398 8.21484 -17.0215c3.44434 -3.44434 8.86914 -6.11035 12.7432 -7.94727c12.792 -6.06445 37.1602 -8.88965 60.6699 -8.88965c14.0654 0 25.1729 0.828125 36.4844 2.27344
c3.3252 -3.55762 4.52148 -4.69727 7.25586 -7.13379c17.9502 -15.9961 55.1836 -16.6211 62.4199 -16.6211c20.6875 0 40.6016 3.80078 51.5107 10.2256c6.64941 3.91602 11.0967 7.75391 15.9766 12.4609c14.3887 -2.35645 27.4453 -3.1875 41.7461 -3.1875
c20.5234 0 40.4326 2.10352 51.2588 5.49609c26.1934 8.20801 33.7373 20.8711 33.8135 25.6328c0 0.0205078 0.000976562 0.0400391 0.000976562 0.0605469c-0.000976562 2.83203 -4.65625 8.78027 -7.4043 11.5283c-3.74121 3.74023 -8.50391 6.89062 -15.5693 10.5176
c-8.89746 4.56738 -34.3477 8.92383 -62.4473 8.92383zM660.296 434.589c0 -9.60645 -32.5781 -18.7197 -67.7441 -18.7197c-6.93555 0 -11.4326 0 -26.4531 1.99023c5.0918 9.79004 6.49707 12.8789 7.6709 20.8926c0.928711 1.31348 0.625 1.11621 0.632812 1.12695
c-0.00878906 0.125977 -0.0761719 0.267578 -0.0761719 0.267578c-0.0195312 -1.10449 -2.69629 8.18945 -3.22949 9.76465c12.5254 1.2002 20.0234 1.6875 31.6514 1.6875c18.5938 0 35.6201 -1.47363 43.7432 -5.53516c10.9463 -5.47363 13.376 -7.96875 13.8047 -11.2275
v-0.24707zM410.11 424.257v-3.89355c-15.1055 -2.1543 -23.3418 -2.45117 -31.7773 -2.45117c-16.3301 0 -32.0273 1.90527 -42.624 6.71484c-11.6914 5.30566 -14.3682 9.05371 -14.3682 12.3652c0 6.09277 5.33105 8.16504 11.2334 10.0762
c18.7568 6.07129 47.2402 6.61816 56.6289 6.61816c4.85352 0 7.46387 -0.0146484 17.7432 -0.579102c-0.741211 -5.85254 -0.803711 -6.33984 -0.803711 -8.80859c0 -6.41211 1.41406 -12.7393 3.96777 -20.042zM535.841 434.992c0 3.77246 3.46777 5.16699 15.375 9.17676
c2.64062 0.889648 4.9209 1.74219 4.9209 1.74219l-0.645508 -0.500977l-1.66992 -5.19824l-2 -2.5c-0.584961 -0.0322266 2 2.5 0 0c-2 -5 -3.44629 -7.38379 -6.82129 -12.7119c-6.1582 4.09863 -9.15918 6.09668 -9.15918 9.99219zM516.238 436.96
c0 -5.72461 9.94824 -18.292 15.083 -22.748l10.3447 4.5l-16.1553 -7.17578c-12.3389 -5.48145 -27.4814 -8.45801 -42.0732 -8.45801c-19.9277 0 -28.792 4.42188 -40.252 10.1387c10.5107 5.40918 14.7139 7.57227 19.6104 12.4688
c5.7793 5.7793 6.03906 9.83691 6.03906 10.5205c0 0.0673828 -0.00195313 0.102539 -0.00195313 0.102539c0 2.27637 -3.86133 8.01758 -7.3418 11.4951c-6.26855 6.26855 -17.0215 11.207 -17.0215 11.207l-7.81445 3.40918l7.79395 3.45605
c13.0391 5.78027 31.6152 8.87402 49.0723 8.87402c19.0732 0 35.5361 -3.57422 42.8779 -10.4727c0.664062 -0.625 0.664062 -0.625 5.42383 -5.21094c-9.26172 -3.67285 -25.585 -10.3457 -25.585 -22.1064zM445.796 436.589
c0 -5.56543 -11.3203 -9.81445 -11.4619 -9.86621c-0.171875 -0.0625 -0.0126953 -0.0107422 -1.30566 -0.232422l-3.20703 -0.77832l-0.541992 3.55078c-1.92969 3.61328 -2.95117 7.46094 -2.95117 11.6631c0 2.05176 0 2.05273 1.03223 9.45508
c15.0107 -7.51172 17.8184 -9.27539 18.4355 -13.792zM36.1621 -95.9893h55.5146l17.1611 52.2256l17.1602 -52.2256h55.5156l-44.8672 -32.2959l17.1611 -52.2246l-44.9697 32.2959l-44.9707 -32.2959l17.1611 52.2246zM437.719 248.08
c0 7.42773 6.04785 13.542 13.5918 13.542c-0.0185547 0 84.0674 -0.34082 97.9814 -0.396484l63.6426 57.5801c1.31738 -10.3857 2.68945 -20.7168 3.97363 -31.1357l0.898438 -27.9482l207.445 0.390625c7.38379 0.0136719 13.5176 -6.03027 13.5176 -13.541v-84.6846
l57.6475 -67.1211c-16.8291 0.911133 -33.6582 1.82324 -50.4873 2.73438l-7.93945 -0.486328l0.779297 -150.522c0.0380859 -7.41797 -6.04004 -13.5664 -13.5908 -13.5664c0.0195312 0 -373.919 1.50879 -373.919 1.50879c-7.40332 0 -13.541 6.02734 -13.541 13.541
v300.105zM474.807 -28.5322l326.889 -1.4043l0.261719 128.418c-11.4902 -0.623047 -11.4902 -0.623047 -61.3779 -1.94238l61.1055 67.0156v59.5703l-183.72 2.52051c-0.154297 -15.4531 -0.15918 -15.8955 1.03516 -60.6455l-70.1592 59.165l-74.0342 0.317383v-253.015z
M57.3604 732.396l37.1855 54.043c2.29785 3.33789 7.27246 3.3457 9.66113 0.306641l45.2246 -57.542c2.13086 -2.71191 1.47852 -6.79004 -1.3916 -8.70215c-0.647461 -0.430664 -1.41797 -0.741211 -2.13965 -0.887695l-7.70508 -1.55469
c-2.23438 -0.450195 -4.58496 0.498047 -5.90234 2.17188l-24.293 30.8799l1.17383 -123.925c0.0332031 -3.49219 -3.05469 -6.2207 -6.31641 -6.04785l-7.37012 0.388672c-3.27148 0.171875 -5.69727 3.08691 -5.68359 6.01953l0.578125 122.085l-19.7871 -28.708
c-1.95801 -2.83984 -6.04492 -3.42676 -8.72266 -1.25293c-0.408203 0.332031 -1.05078 1.10156 -1.0918 1.1582l-3.35059 4.66602c-1.54785 2.15625 -1.2666 5.16016 -0.0693359 6.90137zM542.114 743.188l-65.7227 -74.6553l71.5225 -73.9443l-9.31152 -8.72363
l-71.6025 74.1357l-64.7588 -74.1357l-6.7627 8.31738l63.9365 73.1318l-62.8525 73.5371l8.30762 8.93848l63.5752 -71.0996l66.4648 71.5068z" />
  </g>

</svg>
