<?xml version="1.0" standalone="no"?>
<!DOCTYPE svg PUBLIC "-//W3C//DTD SVG 1.1//EN" "http://www.w3.org/Graphics/SVG/1.1/DTD/svg11.dtd" >
<svg xmlns="http://www.w3.org/2000/svg" xmlns:xlink="http://www.w3.org/1999/xlink" version="1.1" viewBox="-10 0 985 1000">
  <g transform="matrix(1 0 0 -1 0 800)">
   <path fill="currentColor"
d="M774 651c2 -41 -17 -157 -6 -163c11 -120 128 -232 128 -228l-20 -14c-44 48 -94 97 -132 228c-8 -58 -45 -123 -77 -164c-20 -25 -28 -45 -45 -64l-22 18c25 33 39 54 56 76c86 113 90 261 89 339h24c4 0 5 -5 5 -7c0 0 -1 -10 0 -21zM369 638c14 5 34 -3 34 -23
c0 -12 -20 -24 -20 -25c0 0 1 -22 -2 -110l101 -1c6 15 26 22 40 8c16 -16 4 -41 -17 -41c-9 0 -18 5 -22 13h-2h-100l1 -97c25 -10 16 -46 -10 -46s-34 35 -9 46l-1 97l-110 -1c-13 -22 -46 -13 -46 12c0 27 39 35 48 9l108 1l-1 112s-38 36 8 46c7 3 -3 -1 0 0zM340 -162
c-6 0 -12 5 -12 12v240c0 7 5 11 12 11h78l52 47c3 -27 4 -26 5 -51l164 3c6 0 12 -5 12 -12v-67l47 -55c-44 2 -43 2 -48 3l1 -121c0 -6 -5 -12 -12 -12zM619 -132l4 98c-5 -1 -11 -1 -16 -2l-36 5l48 53v47l-142 1c0 -16 -1 -15 -3 -48l-56 47l-58 1v-201zM50 721h56
l17 52l17 -52h56l-45 -33l17 -52l-45 32l-45 -32l17 52z" />
  </g>

</svg>
