<?xml version="1.0" standalone="no"?>
<!DOCTYPE svg PUBLIC "-//W3C//DTD SVG 1.1//EN" "http://www.w3.org/Graphics/SVG/1.1/DTD/svg11.dtd" >
<svg xmlns="http://www.w3.org/2000/svg" xmlns:xlink="http://www.w3.org/1999/xlink" version="1.1" viewBox="-10 0 1020 1000">
  <g transform="matrix(1 0 0 -1 0 800)">
   <path fill="currentColor"
d="M539.085 96.1885l32.1211 14.2764l-11.627 -36.5908l-94.7852 0.339844l-16.7041 38.3398l33.5264 -14.7275l29.3936 34.4346zM435.052 125.667l23.3555 -58.9844h108.443l18.4746 58.6191l-44.6777 -19.001l-30.248 39.1562l-30.7686 -38.4785zM457.897 65.9326zM510 18
c-62.1074 0 -112.5 39.6045 -112.5 88.1992c0 48.5918 50.3887 88.2002 112.5 88.2002c62.1074 0 112.5 -39.6055 112.5 -88.2002c0 -48.5918 -50.3887 -88.1992 -112.5 -88.1992zM510 205.199c-68.7041 0 -124.2 -43.8018 -124.2 -98.0996
c0 -54.2959 55.4941 -98.0996 124.2 -98.0996c68.7041 0 124.2 43.8018 124.2 98.0996c0 54.2959 -55.4941 98.0996 -124.2 98.0996zM591.224 359.134l68.8643 -59.5645l-66.3125 -58.5029l-16.8301 17.8008l33.9434 28.5732l-240.239 -2.09082l-1.29199 24.5771
l241.729 1.125l-35.8008 29.9668zM52.7012 763.544h41.6357l12.8711 39.1699l12.8701 -39.1699h41.6367l-33.6504 -24.2217l12.8711 -39.168l-33.7275 24.2217l-33.7275 -24.2217l12.8701 39.168zM264.521 609.221l-12.6758 63.3936
c136.002 94.8662 375.292 58.4941 467.481 51.3066v-0.0322266c29.001 0.613281 79.4395 -1.39844 113.337 -35.2939c42.4092 -42.4102 40.7979 -114.996 39.6455 -178.943c-0.416016 -23.167 -0.457031 -35.123 -0.233398 -44.3203
c27.873 -46.3066 76.252 -95.0469 94.3799 -136.938c7.34277 -16.9707 5.80176 -26.1641 2.79395 -42.4785l-12.6807 -14.791l-83.9961 -67.1738v-224.448c2.04785 -32.8447 1.92871 -83.7236 -28.9658 -114.614c-27.5059 -27.5059 -192.831 -12.7002 -233.062 -13.7412
l-3.06641 0.0136719c-109.601 -7.71484 -312.854 53.4648 -345.075 97.3857c-19.5508 26.6543 -33.1758 43.585 -61.2744 58.4365v73.998c27.2783 -17.1826 52.4307 -18.8125 74.1611 -64.0645c46.7197 -97.292 369.22 -111.715 476.835 -114.573l-0.527344 -1.0166
c52.8281 12.6768 36.083 4.73438 44.9424 14.3018c20.2598 21.8828 4.2041 44.3428 5.81836 61.2441h-0.571289v2.27051c-0.269531 1.04492 -0.530273 2.05176 -0.78125 3.00781h0.78125v218.894v3.68359v1.41504h1.6709l109.881 92.9756h1.19727
c5.26562 48.4922 -66.3906 97.3398 -99.5449 147.394l-3.16895 4.22559l-1.05762 1.05664c-2.13379 4.2168 0.0449219 4.25195 -2.20117 12.2139c-0.0390625 0.138672 -0.200195 0.261719 -0.18457 0.386719l0.273438 2.19141l0.0683594 1.58203
c0.00976562 0.242188 0.15918 4.11719 0.255859 6.59766c3.29004 83.6279 5.49121 183.196 -88.5566 183.601l9.05664 11.0186c-144.061 17.6953 -394.666 10.0771 -455.897 -49.1416zM564.889 559.889l-72.7773 -73.5l79.2002 -72.7998l-10.3115 -8.58887l-79.2891 72.9883
l-71.7109 -72.9883l-7.48926 8.18848l70.8008 72l-69.6006 72.4004l9.2002 8.7998l70.4004 -70l73.5996 70.3994z" />
  </g>

</svg>
