<?xml version="1.0" standalone="no"?>
<!DOCTYPE svg PUBLIC "-//W3C//DTD SVG 1.1//EN" "http://www.w3.org/Graphics/SVG/1.1/DTD/svg11.dtd" >
<svg xmlns="http://www.w3.org/2000/svg" xmlns:xlink="http://www.w3.org/1999/xlink" version="1.1" viewBox="-10 0 1008 1000">
  <g transform="matrix(1 0 0 -1 0 800)">
   <path fill="currentColor"
d="M259.763 697.552c-2.73438 -3.88379 -4.15039 -5.66309 -6.82129 -8.05469c11.1006 -9.375 17.7158 -15.0596 29.1133 -25.2373c-5.36816 -8.04297 -16.5615 -24.8174 -16.5615 -51.29c0 -13.0039 2.83691 -25.3447 7.92578 -36.4443l1.60742 -3.50684
c-9.51758 -4.7959 -17.5059 -8.87109 -35.6738 -18.9941c3.13574 -4.32129 4.49805 -6.59375 5.76367 -9.76758c13.7871 8.33789 21.9092 13.0088 35.1748 19.875c3.61914 -4.95215 6.16211 -8.43262 11.002 -13.2734c18.8164 -18.8164 41.0479 -23.6699 51.5439 -24.8955
l3.69141 -0.430664c-1.03809 -23.5889 -1.28711 -31.0518 -1.52832 -39.5322c6.53613 -0.477539 8.70996 -0.603516 11.6611 -0.636719c-0.0566406 5.81543 -0.0859375 11.0723 -0.0859375 15.8408c0 8.97949 0.0507812 13.8135 0.383789 24.1758
c10.874 0.912109 35.3086 2.96094 58.1357 25.7881c3.21484 3.21484 5.24805 5.24805 11.6445 14.1943c12.7793 -9.22949 19.3008 -13.9111 28.4131 -20.3916c2.84082 3.97461 4.10547 5.87793 6.33887 9.78027c-9.9375 7.73633 -16.499 12.5645 -29.2246 20.5391
c3.3457 7.78711 8.4502 19.668 8.4502 37.1504c0 19.4766 -6.69238 34.6709 -10.3643 41.5352l-1.75 3.27246c0.299805 0.189453 19.4873 12.3457 30.0381 18.8018c-2.10938 3.44043 -3.3252 5.24707 -5.51953 8.19922
c-16.3574 -9.47656 -19.6133 -11.3633 -30.1436 -18.6143c-3.73926 4.53809 -5.14844 6.24805 -8.22266 9.32227c-20.04 20.04 -43.667 24.4473 -55.0547 25.3408l-3.50488 0.274414c-0.714844 14.3643 -0.93457 21.7246 -0.93457 30.0557
c0 2.6084 0.0292969 4.85449 0.0683594 6.8418l-10.3135 -0.245117c-0.168945 -6.15625 -0.233398 -11.7969 -0.233398 -17.2598c0 -3.9707 0 -6.80371 0.211914 -19.6738c-9.68652 -1.28906 -32.6084 -4.33789 -53.709 -25.3496l-2.75684 -2.74512
c-14.373 13.6514 -20.375 18.793 -28.7656 25.3555zM352.758 536.139c-41.1611 0.0244141 -76.4922 33.8213 -76.4922 76.8281c0 42.4072 34.4219 76.8281 76.8291 76.8281c42.4014 0 76.8281 -34.416 76.8281 -76.8154
c-0.180664 -42.415 -34.7568 -76.8408 -77.165 -76.8408zM804 597l21.2041 54.627c50.3652 -81.9502 49.9844 -114.362 72.0176 -147.869h69.6533v-34.7998h-416.4v34.7998h49.4004l57.457 152.571c16.2588 -26.4551 27.2402 -47.7734 35.3965 -65.6367l55.8428 134.581
c25.2725 -41.123 42.0342 -87.4229 55.4287 -128.273zM349.776 107.626l-82.2217 148.848l24.0225 10.1475l58.4395 -100.383l53.3027 101.418l27.2285 -11.0254zM266.863 -57.7744v34.6641h38.626v22.0713h-38.626v34.6641h38.626v33.7148h31.3828v-33.7148h23.2197
v31.2539h31.3828v-31.2539h41.292v-34.6641h-41.292v-22.0713h41.292v-34.6641h-41.292v-36.1855h-31.3828v36.1855h-23.2197v-33.7246h-31.3828v33.7246h-38.626zM336.872 -23.1104h23.2197v22.0713h-23.2197v-22.0713zM781.954 233.837
c-0.529297 0 -0.985352 0.173828 -1.32227 0.358398l-214.094 -88.2627v-37.8242c12.126 5.10742 24.251 10.2148 36.376 15.3213v-3.77051l-0.21875 -161.659h318.305l0.646484 155.446c10.9619 -6.48535 21.9238 -12.9697 32.8867 -19.4551l-0.677734 40.7051
l-136.33 79.1182l1.46387 0.616211c-22.6963 11.7715 -24.457 12.7314 -36.2109 19.5508c-0.288086 -0.102539 -0.56543 -0.144531 -0.824219 -0.144531zM885.889 -6.78223h-248.003l-0.665039 144.662l142.009 59.8174l107.859 -63.8086zM26.6494 -82.0967h55.5146
l17.1611 52.2256l17.1602 -52.2256h55.5156l-44.8672 -32.2959l17.1611 -52.2246l-44.9697 32.2959l-44.9707 -32.2959l17.1611 52.2246z" />
  </g>

</svg>
