<?xml version="1.0" standalone="no"?>
<!DOCTYPE svg PUBLIC "-//W3C//DTD SVG 1.1//EN" "http://www.w3.org/Graphics/SVG/1.1/DTD/svg11.dtd" >
<svg xmlns="http://www.w3.org/2000/svg" xmlns:xlink="http://www.w3.org/1999/xlink" version="1.1" viewBox="-10 0 1020 1000">
  <g transform="matrix(1 0 0 -1 0 800)">
   <path fill="currentColor"
d="M30.3242 741.553h55.5146l17.1611 52.2256l17.1602 -52.2256h55.5156l-44.8672 -32.2959l17.1611 -52.2246l-44.9697 32.2959l-44.9707 -32.2959l17.1611 52.2246zM271 608l-12 60c128.725 89.7881 355.203 55.3633 442.457 48.5605
c0 -0.0107422 0.000976562 -0.0214844 0.000976562 -0.0322266c27.4463 0.582031 75.1855 -1.32129 107.268 -33.4033c40.1396 -40.1396 38.6152 -108.841 37.5254 -169.365c-0.395508 -21.9258 -0.433594 -33.2402 -0.22168 -41.9463
c26.3789 -43.8281 72.168 -89.959 89.3252 -129.607c6.95117 -16.0635 5.49219 -24.7637 2.64551 -40.2051l-12 -14l-79.501 -63.5771v-212.431c1.93945 -31.0869 1.82422 -79.2412 -27.416 -108.48c-26.0322 -26.0322 -182.507 -12.0195 -220.584 -13.0049
l-2.90137 0.0126953c-103.732 -7.2998 -296.108 50.6025 -326.603 92.1719c-18.5059 25.2275 -31.4014 41.2529 -57.9951 55.3086v70.0371c25.8174 -16.2627 49.624 -17.8066 70.1904 -60.6357c44.2188 -92.082 349.455 -105.734 451.309 -108.438l-0.499023 -0.962891
c50 12 34.1514 4.48145 42.5352 13.5361c19.1768 20.7119 3.97852 41.9688 5.50781 57.9648h-0.541992v2.14941c-0.253906 0.990234 -0.500977 1.94141 -0.738281 2.84863h0.738281v207.174v3.4873v1.33887h1.58203l104 88h1.13281
c4.9834 45.8955 -62.8379 92.1289 -94.2158 139.501l-3 4l-1 1c-2.02051 3.99219 0.0439453 4.02539 -2.08398 11.5605c-0.0371094 0.130859 -0.189453 0.24707 -0.174805 0.367188l0.258789 2.07227l0.0644531 1.49902
c0.00976562 0.226562 0.150391 3.89551 0.242188 6.24414c3.11426 79.1523 5.19727 173.389 -83.8154 173.771c-136.35 16.7461 -373.536 9.53418 -431.49 -46.5137zM639.582 367.63zM392.861 533.614zM346.787 448.793zM526.308 337.892zM525.983 327.591zM388.819 365.892
zM467.895 341.015zM683.59 467.971zM346.787 448.793zM683.59 467.971zM689.663 473.751c3.18164 -9.63574 5.22949 -20.0645 7.90625 -30.0537l1.86523 -0.0302734c-1.41895 -29.9316 -1.95312 -41.2031 -50.5566 -79.6084
c-36.165 -28.5781 -62.6426 -38.6436 -122.829 -39.3223c-41.3994 -0.466797 -94.124 1.08301 -140.347 39.3115c-18.2139 15.0645 -47.126 44.2178 -46.8574 77.335h-1.2959c1.41602 5.30859 1.41602 5.30859 1.55078 9.38477l0.948242 -0.015625l4.05859 15.2197h-1.78125
c0.924805 1.25586 1.85059 2.5127 2.77539 3.76953v4.27637h3.14746l45.9639 62.4521h1.45898c15.9023 37.1875 76.8271 55.1016 100.49 26.2959c3.35938 -1.50977 18.5977 -7.58984 34.6436 -1.74023c8.26465 11.0625 31.4873 21.7373 57.6201 16.3184
c25.2754 -5.24121 50.7725 -28.7539 61.959 -40.2021h0.536133c0.394531 -0.580078 0.664062 -1.24609 1.16016 -1.75488l3.51465 -3.66699l33.5615 -57.3496c0.500977 0.0429688 0.896484 0.0107422 0.817383 -0.352539zM362.227 443.392
c-0.556641 -19.085 1.55371 -41.7822 47.9053 -74.2285c39.332 -27.5322 71.9229 -29.5098 116.666 -28.4023c52.1318 1.3418 73.8838 8.04297 105.363 33.7656c41.8613 34.208 48.7979 44.9287 43.7637 65.0234l-6.65723 26.5742l-0.244141 -0.436523
c0.0146484 1.6084 -1.06152 3.65332 -1.04688 5.26172l-37.3525 58.9141c-1.00293 -0.0390625 -0.202148 0.871094 -1.20508 0.832031c-23.1201 15.2432 -25.5859 21.8477 -34.2227 26.9414c-13.2988 7.84277 -33.7461 6.26367 -46.7637 -2.62012
c-6.47949 -19.5215 -46.6855 -22.6494 -65.2119 -5.0459c-1.72656 1.64062 -3 0.727539 -2.83691 2.74023c-19.8037 13.6279 -56.8975 -0.101562 -67.3789 -24.7891l-1.27148 -2.99414l-2.11816 0.81543l-40.8496 -57.8311zM512.147 406.591
c-0.0625 2.16211 -0.0927734 3.7832 -0.0927734 4.86328c0 6.36523 0.918945 11.8584 2.75879 16.4824c1.34863 3.48242 3.52441 6.99512 6.52832 10.5381c2.20703 2.58105 6.16016 6.33398 11.8613 11.2578c5.76172 4.9834 9.50098 8.94727 11.2178 11.8887
c1.7168 2.94238 2.57422 6.15527 2.57422 9.6377c0 6.30469 -2.5127 11.8281 -7.53906 16.5723c-5.02734 4.80371 -11.1875 7.20508 -18.4814 7.20508c-7.05078 0 -12.9346 -2.16211 -17.6553 -6.48535c-4.71973 -4.32324 -7.81543 -11.0781 -9.28613 -20.2646
l-17.0107 1.98145c1.53223 12.3096 6.06836 21.7363 13.6084 28.2803c7.60059 6.5459 17.623 9.81738 30.0664 9.81738c13.1807 0 23.6934 -3.5127 31.5391 -10.5371c7.84668 -7.02539 11.7695 -15.5215 11.7695 -25.4893c0 -5.76367 -1.37891 -11.0781 -4.1377 -15.9414
c-2.75879 -4.86328 -8.15234 -10.7773 -16.1826 -17.7432c-5.39453 -4.68359 -8.91895 -8.13574 -10.5742 -10.3564c-1.65625 -2.22266 -2.88184 -4.77441 -3.67773 -7.65625c-0.796875 -2.88184 -1.25684 -7.56641 -1.37988 -14.0508h-15.9062zM511.135 374.077v18.4629
h18.8506v-18.4629h-18.8506zM400.1 210.3l-0.900391 17.0996l251.4 1.2002l-0.5 -18.2998h-250zM400.1 113.633l-1.5 19.5664l251.4 -1.19922l0.0996094 -18.3672h-250z" />
  </g>

</svg>
