<?xml version="1.0" standalone="no"?>
<!DOCTYPE svg PUBLIC "-//W3C//DTD SVG 1.1//EN" "http://www.w3.org/Graphics/SVG/1.1/DTD/svg11.dtd" >
<svg xmlns="http://www.w3.org/2000/svg" xmlns:xlink="http://www.w3.org/1999/xlink" version="1.1" viewBox="-10 0 1051 1000">
  <g transform="matrix(1 0 0 -1 0 800)">
   <path fill="currentColor"
d="M828.399 483.872c0 9.49878 0.360099 25.4826 0.360099 28.905l-0.318652 61.3747l-8.69455 54.78l-24.0577 41.7601l-29.8355 19.1251l-33.9409 8.02542l-47.9505 1.85133v0.765382l-107.704 8.96128l-161.614 -4.8437l-135.511 -48.0118l4.97421 -24.8711
l90.1513 34.2037l168.519 13.9909l163.859 -8.05849l72.0585 -32.0852l24.6852 -76.5829c-11.2968 -92.7231 -11.5388 -94.7093 -10.6225 -98.1968c0.272553 -1.03738 0.408327 -1.98777 0.495372 -2.92219c0.487753 -0.641757 1.13403 -1.58506 1.4862 -2.05622
l30.4464 -40.7334l38.0432 -60.0682l23.93 -33.502l-96.7113 -80.2498l-3.19974 -219.288c0.962733 -7.56244 2.78458 -22.0112 5.01798 -45.877c-0.12894 -0.269919 -9.65147 -20.9678 -12.8349 -27.02c-1.80565 -3.43278 -3.36365 -6.39475 -8.94453 -11.1259
c-28.726 -6.87192 -37.6748 -9.01268 -53.7943 -9.01268c-3.38415 0 -6.77838 0.14333 -10.1737 0.446144l-127.95 -3.2205l-189.706 31.9736l-119.91 72.0259l-21.8729 31.5454c-0.18608 0.126152 -14.9542 10.3475 -18.5829 12.6523v-31.4635
c5.41685 -3.87145 13.5068 -7.36272 24.4398 -17.2503c7.32645 -6.62591 2.09556 -4.45645 10.6241 -11.9264c1.03002 -0.902171 1.03002 -0.902171 17.2005 -21.8062l70.2643 -41.1391l123.979 -35.7692l40.8353 -3.74581
c52.8258 -4.90757 59.0669 -6.73248 83.0467 -7.42728l68.08 -1.97257l89.7606 0.254271l51.1066 12.4914l15.1376 25.2075l6.27671 34.16l-0.268638 82.9487l0.0291888 84.2282l-0.00582149 87.5189l84.7837 67.8016l7.68593 8.96692l1.11464 7.19504
c0.44913 7.61262 -1.52476 12.8022 -3.31214 18.1783l-23.3304 38.8443l-33.0243 43.448l-34.3179 48.9016c-0.202711 16.1296 -0.202711 16.1296 -0.202711 17.6951zM33.2949 712.521h55.5146l17.1611 52.2256l17.1602 -52.2256h55.5156l-44.8672 -32.2959
l17.1611 -52.2246l-44.9697 32.2959l-44.9707 -32.2959l17.1611 52.2246zM355.32 472.173c9.31152 5.34082 48.8105 23.7598 91.0791 -19.0166c44.9775 45.7041 85.1045 21.8076 89.7021 18.3594c0.799805 -0.600586 1.60059 -1.2002 2.40039 -1.80078v-120.436
c-3.22363 2.50781 -6.44824 5.01562 -9.67188 7.52344c-2.2666 1.72168 -35.7979 25.7998 -79.2383 -22.5371c0.00292969 0.00195312 -4.4043 -4.88086 -4.44922 -4.93066c-6.56152 7.27148 -6.70117 7.42773 -8.88086 9.60547
c-38.7041 38.7051 -73.2559 18.6484 -75.3633 17.4453l-9.11426 -5.87695v119.351l3.3916 2.31348h0.144531zM363.782 370.601c7 2.22266 15.9434 3.77246 22.416 3.77246c13.4932 0 35.6543 -3.94629 58.9316 -27.3037c13.4697 13.7266 35.623 30.5703 62.2266 29.0391
c5.65234 -0.273438 13.1729 -2.03711 19.207 -4.38184v91.6543c-10.8691 6.07422 -40.6475 15.9072 -75.6494 -22.9727c-1.4834 -1.64453 -2.9668 -3.28809 -4.4502 -4.93262c-6.4668 7.16406 -6.68262 7.40332 -8.91309 9.63379
c-34.4277 34.4277 -64.8496 22.752 -73.7686 18.1416v-92.6504zM561.457 329.806zM314.736 495.79zM268.662 410.969zM448.183 300.067zM447.858 289.767zM310.694 328.067zM389.77 303.19zM605.465 430.146zM268.662 410.969zM605.465 430.146zM611.538 435.927
c3.18164 -9.63574 5.22949 -20.0645 7.90625 -30.0537l1.86523 -0.0302734c-1.41895 -29.9316 -1.95312 -41.2031 -50.5566 -79.6084c-36.165 -28.5781 -62.6426 -38.6436 -122.829 -39.3223c-41.3994 -0.466797 -94.124 1.08301 -140.347 39.3115
c-18.2139 15.0645 -47.126 44.2178 -46.8574 77.335h-1.2959c1.41602 5.30859 1.41602 5.30859 1.55078 9.38477l0.948242 -0.015625l4.05859 15.2197h-1.78125c0.924805 1.25586 1.85059 2.5127 2.77539 3.76953v4.27637h3.14746l45.9639 62.4521h1.45898
c15.9023 37.1875 76.8271 55.1016 100.49 26.2959c3.35938 -1.50977 18.5977 -7.58984 34.6436 -1.74023c8.26465 11.0625 31.4873 21.7373 57.6201 16.3184c25.2754 -5.24121 50.7725 -28.7539 61.959 -40.2021h0.536133
c0.394531 -0.580078 0.664062 -1.24609 1.16016 -1.75488l3.51465 -3.66699l33.5615 -57.3496c0.500977 0.0429688 0.896484 0.0107422 0.817383 -0.352539zM284.102 405.567c-0.556641 -19.085 1.55371 -41.7822 47.9053 -74.2285
c39.332 -27.5322 71.9229 -29.5098 116.666 -28.4023c52.1318 1.3418 73.8838 8.04297 105.363 33.7656c41.8613 34.208 48.7979 44.9287 43.7637 65.0234l-6.65723 26.5742l-0.244141 -0.436523c0.0146484 1.6084 -1.06152 3.65332 -1.04688 5.26172l-37.3525 58.9141
c-1.00293 -0.0390625 -0.202148 0.871094 -1.20508 0.832031c-23.1201 15.2432 -25.5859 21.8477 -34.2227 26.9414c-13.2988 7.84277 -33.7461 6.26367 -46.7637 -2.62012c-6.47949 -19.5215 -46.6855 -22.6494 -65.2119 -5.0459
c-1.72656 1.64062 -3 0.727539 -2.83691 2.74023c-19.8037 13.6279 -56.8975 -0.101562 -67.3789 -24.7891l-1.27148 -2.99414l-2.11816 0.81543l-40.8496 -57.8311zM440 55l-90.7207 89.1006l17.2803 17.8203l72.9004 -66.96l129.6 164.16l19.4404 -13.5z" />
  </g>

</svg>
