<?xml version="1.0" standalone="no"?>
<!DOCTYPE svg PUBLIC "-//W3C//DTD SVG 1.1//EN" "http://www.w3.org/Graphics/SVG/1.1/DTD/svg11.dtd" >
<svg xmlns="http://www.w3.org/2000/svg" xmlns:xlink="http://www.w3.org/1999/xlink" version="1.1" viewBox="-10 0 1026 1000">
  <g transform="matrix(1 0 0 -1 0 800)">
   <path fill="currentColor"
d="M421.219 596.904c2.88379 0 5.2793 -2.38379 5.2793 -5.33887v-22.8857l18.0146 -20.9766c-18.1729 1.00781 -18.1729 1.00781 -18.4893 1.05371c0 0 -0.205078 -43.6992 -0.0234375 -43.7568c1.7998 -4.5625 -1.90234 -1.96094 -4.85938 -1.96094l-103.644 0.418945
c-2.94434 0 -5.33691 2.39551 -5.33691 5.33691v83.1885c0 2.9541 2.40234 5.33789 5.35742 5.33789c0 0 21.3076 -0.0859375 26.5459 -0.107422l19.4346 17.583c1.50195 -11.834 1.50195 -11.834 1.89648 -19.1084zM413.142 516.508l0.97168 31.3682
c-1.36523 -0.209961 -2.73047 -0.419922 -4.09766 -0.630859l-15.125 2.00586l18.1602 19.917v14.334l-47.0391 0.604492c-0.183594 -5.71191 -0.183594 -5.71191 -0.826172 -18.2295l-21.2217 17.8975l-18.3564 0.0771484v-66.9678zM258.097 533.621
c0 -30.2598 10.8506 -58.6699 32.0557 -79.9424c17.5996 -17.5293 51.3926 -31.4902 76.2363 -31.4902c5.64258 0 13.1611 0.901367 22.6279 2.6875c51.5918 9.7373 93.4609 60.1172 93.4609 112.741c0 9.36133 -2.0957 23.7432 -4.7666 32.7256
c-5.875 20.7627 -26.083 51.623 -27.6416 53.9023c-7.23242 11.4209 -9.08203 14.3574 -12.1465 19.6973c-18.3506 32.2803 -36.7305 64.5322 -55.0635 96.8311c-5.08984 11.5244 -7.21387 13.6348 -11.1777 15.374c-4.30176 0 -5.70508 -0.0361328 -8.0918 -2.42188
c-1.47363 -1.47363 -1.55762 -1.68262 -4.16113 -6.55273c-1.52637 -2.86035 -36.4609 -66.4893 -54.2998 -95.21c-3.41406 -5.49805 -20.9268 -33.7705 -31.7373 -55.5332c-10.249 -20.6787 -15.2949 -42.1738 -15.2949 -62.8086zM366.734 437.008
c-20.1523 0 -50.3936 11.4805 -66.6504 27.7373c-17.9092 17.9102 -27.1445 42.167 -27.1445 68.3848c0 18.3662 4.53125 37.6934 13.7881 56.4756c8.20215 16.5117 18.0645 32.8447 27.6348 48.6846c8.55859 13.9062 8.52148 13.8447 50.4102 86.9512
c0.0859375 0.161133 0.0859375 0.161133 4.40527 8.56055l55.7441 -96.7881c2.32617 -4.00684 4.42383 -7.54883 12.6006 -20.3379c7.37598 -10.7959 17.5635 -29.2295 22.7725 -41.1465c0.0859375 -0.214844 0.181641 -0.419922 0.271484 -0.629883v-0.0546875
c5.24902 -13.4346 7.23047 -29.0479 7.23047 -37.7051c0 -45.8496 -36.6924 -89.9199 -81.8887 -98.1553c-9.82227 -1.78906 -16.5801 -1.97656 -19.1738 -1.97656zM768.082 517.763c8.04297 -26.5107 28.5957 -47.5518 67.2441 -65.8418
c1.7832 -0.84375 2.5293 -2.94922 1.75586 -4.70508l-2.49023 -5.6543c-0.896484 -2.0332 -3.21094 -2.57324 -4.83789 -1.80078c-35.623 16.9072 -58.8613 37.4834 -70.4004 61.3477c-12.0391 -24.0977 -34.1875 -48.5312 -55.1953 -60.6367
c-1.66211 -0.958008 -3.70508 -0.418945 -4.73633 1.04004l-4.04492 5.71582c-1.2168 1.71777 -0.691406 4.09766 1.08398 5.16406c43.2891 26.0264 63.8926 64.4863 62.0664 119.039c-0.0722656 2.15723 1.7207 3.75977 3.67188 3.71973l6.45117 -0.133789
c6.15234 -0.123047 3.69141 -10.9014 3.69141 -10.9014c-0.105469 -14.2627 -3.70117 -41.9873 -4.25977 -46.3525zM808.283 356.924c-10.1465 0 -24.3613 3.05371 -33.5801 7.13086c-16.1855 7.2373 -33.9805 25.9619 -42.9316 42.8086
c-15.7305 -15.9482 -39.0527 -26.626 -58.2168 -26.626c-2.47266 0 -6.04297 0.203125 -8.56445 0.493164c-40.1758 5.50488 -71.9062 46.6416 -71.9062 91.5156c0 17.6699 7.83203 41.9541 16.8008 55.9502c-9.85156 14.4229 -16.3242 35.252 -16.3242 51.6318
c0 8.33398 1.94531 20.5918 4.5332 28.458c9.68359 28.1035 38.7207 51.167 65.8828 51.5977c0.0859375 0.00195313 0.185547 -0.00195312 0.185547 -0.00195312c22.9883 -0.830078 48.375 -19.1641 60.1055 -40.0635c12.8262 7.40039 28.9551 12.0283 41.8164 12.8799
c13.2656 29.5869 44.7715 51.9189 73.5078 51.9189c1.70117 0 4.22656 -0.103516 5.92383 -0.243164c0.0957031 -0.0078125 0.205078 -0.0234375 0.205078 -0.0234375c31.0898 -4.35938 60.2773 -34.4316 68.9258 -67.3027
c25.1035 -4.19922 50.9043 -24.7754 61.8574 -48.4561c4.625 -10.7129 8.125 -27.9043 8.125 -39.7129c0 -16.2812 -6.47656 -39.2246 -14.8984 -52.5645c-7.41992 -11.6348 -22.2891 -24.8809 -34.1035 -30.3164c-8.19336 -3.96973 -21.3379 -7.21094 -30.3418 -7.44727
c-0.0976562 -0.00195312 -0.208984 0.000976562 -0.208984 0.000976562c-3.08594 0.0986328 -8.53906 1.23535 -11.0039 1.9043c0.212891 -2.54297 0.287109 -4.24219 0.287109 -6.18652c0 -10.374 -3.60156 -25.0439 -8.36914 -33.9746
c-0.0410156 -0.0761719 -0.0917969 -0.161133 -0.0917969 -0.161133c-7.91602 -13.1426 -24.2051 -27.79 -37.4922 -33.5928c-10.752 -5.35449 -28.2715 -9.53516 -40.123 -9.61719zM733.977 436.616h1.40625c0.201172 0 0.513672 0 0.677734 -0.0644531
c4.43555 -0.850586 8.25586 -4.75098 9.53711 -8.99219c5.31836 -16.6924 22.1816 -36.3838 36.377 -42.8633c6.80859 -2.91113 19.416 -5.51758 26.7363 -5.51758c8.62891 0 22.957 3.44043 30.9824 7.49707c9.56445 4.3877 22.6094 16.6182 28.2148 26.4971
c2.93945 5.3252 5.65625 15.9971 5.65625 22.3896c0 4.04492 -1.2168 11.4365 -2.45117 15.0811l-1.63672 4.28418c-0.449219 1.17969 -0.25 2.50098 0.519531 3.49219l2.83789 3.65723c6.9668 8.55664 23.8379 1.19336 23.8379 1.19336
c0.119141 -0.0410156 0.232422 -0.078125 0.232422 -0.078125c1.94531 -0.756836 6.2207 -1.60156 8.19336 -1.63965c6.43359 0 17.0938 2.40332 23.0176 5.18164c8.28516 3.70508 20.2188 14.0244 25.5859 22.1738c6.18555 9.5332 11.5547 28.0176 11.5547 39.9648
c0 36.4336 -26.0254 66.1768 -57.2559 67.127c-5.83203 0.210938 -10.5059 5.26367 -11.3496 10.8496c-4.76758 27.4131 -28.8535 52.5068 -52.7246 55.8594c-1.20898 0.0986328 -3.32617 0.1875 -4.49023 0.1875c-22.2109 0 -48.1484 -19.4727 -56.8008 -43.3301
c-1.5957 -4.64746 -6.05469 -8.49805 -11.4805 -8.49805c-1.22461 0.0507812 -2.04688 0.0644531 -2.87695 0.0644531c-11.752 0 -30.4551 -6.39258 -40.2578 -13.7842c-1.85156 -1.52051 -4.64453 -2.58789 -7.17578 -2.58789c-5.00195 0 -9.61328 3.82129 -11.2168 8.375
c-7.25195 18.791 -28.3555 34.8096 -46.002 35.4844c-18.3828 -0.46875 -40.2031 -16.8779 -47.7285 -36.5977c-1.73828 -5.35254 -3.28125 -15.0898 -3.28125 -20.7734c0 -13.3857 7.12695 -32.833 15.3906 -42.2109c2.05469 -2.39844 3.26953 -5.90723 3.26953 -9.03027
c0 -3.10547 -1.26172 -6.68945 -3.21484 -8.96582c-8.59375 -10.7412 -16.1211 -32.7129 -16.1211 -47.4834c0 -34.9209 24.9785 -66.1436 54.7051 -70.0254c1.61523 -0.186523 4.74805 -0.367188 6.41602 -0.367188c16.6973 0 39.7617 12.6152 50.3027 27.8672
c2.24219 3.10938 6.35156 4.97559 9.36133 5.18848l0.498047 0.228516c0.234375 0.108398 0.517578 0.166016 0.753906 0.166016zM615.896 602.022c-0.00390625 -0.0126953 -0.00976562 -0.0263672 -0.015625 -0.0400391l0.0292969 0.0810547
c-0.00390625 -0.0136719 -0.0078125 -0.0263672 -0.0136719 -0.0410156zM663.625 638.62c-0.0175781 0 -0.0371094 0.00292969 -0.0546875 0.00292969l0.109375 -0.000976563c-0.0175781 0 -0.0371094 -0.00195312 -0.0546875 -0.00195312zM843.926 662.709
c-0.015625 0 -0.0332031 0.00683594 -0.0488281 0.00683594l0.0976562 -0.0107422c-0.015625 0 -0.03125 0.00390625 -0.0488281 0.00390625zM616.721 525.803zM616.721 532.617zM912.99 609.892zM908.771 613.951zM768.117 625.984zM772.338 629.174zM22.3545 -75.4795
h55.5146l17.1611 52.2256l17.1602 -52.2256h55.5156l-44.8672 -32.2959l17.1611 -52.2246l-44.9697 32.2959l-44.9707 -32.2959l17.1611 52.2246zM335.287 152.125l-82.2217 148.848l24.0225 10.1475l58.4395 -100.383l53.3027 101.418l27.2285 -11.0254zM252.374 -13.2754
v34.6641h38.626v22.0713h-38.626v34.6641h38.626v33.7148h31.3828v-33.7148h23.2197v31.2539h31.3828v-31.2539h41.292v-34.6641h-41.292v-22.0713h41.292v-34.6641h-41.292v-36.1855h-31.3828v36.1855h-23.2197v-33.7246h-31.3828v33.7246h-38.626zM322.383 21.3887
h23.2197v22.0713h-23.2197v-22.0713zM909 0h-323.297l0.216797 164.161c-12.123 -5.10645 -24.2471 -10.2129 -36.3701 -15.3193v43.2637l216.847 89.3984c0.620117 -0.28125 1.39551 -1.04395 1.56934 0.0556641c14.0449 -8.15234 14.0449 -8.15234 42.4219 -22.8662
l-1.75293 -0.737305l133.207 -77.3066l0.775391 -46.5869c-10.9932 6.50293 -21.9854 13.0059 -32.9785 19.5098zM625.885 40.2158h243.036l1.16699 136.753l-105.537 62.4346l-139.312 -58.6816z" />
  </g>

</svg>
