<?xml version="1.0" standalone="no"?>
<!DOCTYPE svg PUBLIC "-//W3C//DTD SVG 1.1//EN" "http://www.w3.org/Graphics/SVG/1.1/DTD/svg11.dtd" >
<svg xmlns="http://www.w3.org/2000/svg" xmlns:xlink="http://www.w3.org/1999/xlink" version="1.1" viewBox="-10 0 999 1000">
  <g transform="matrix(1 0 0 -1 0 800)">
   <path fill="currentColor"
d="M30.3242 741.553h55.5146l17.1611 52.2256l17.1602 -52.2256h55.5156l-44.8672 -32.2959l17.1611 -52.2246l-44.9697 32.2959l-44.9707 -32.2959l17.1611 52.2246zM804 631c0 -96.6865 68.0879 -173.199 99.375 -191.775l11.1992 -6.64941
c-16.9434 -0.478516 1.18945 0.900391 -34.5742 -3.5752l-1.0752 1.36426c-22.0068 27.9238 -93.998 110.011 -106.903 207.233c-0.657227 4.95117 0.0224609 9.79688 0.582031 18.2783c-1.38379 0.708984 -2.88672 1.4873 -4.52246 2.34082
c-0.0283203 -1.83984 -0.322266 -3.81641 -0.0449219 -5.88867c33.3789 -249.661 97.5459 -216.742 97.5459 -216.742s6.91211 -4.29004 10.2793 -6.58594h-32.8613c-44.1455 16.1279 -101.697 151.17 -101.697 222.331c0 8.73535 0.302734 15.3135 0.785156 20.6846
c-60.6641 32.3369 -181.179 64.7012 -284.885 64.7012c-23.0527 0 -45.5234 -2.04883 -73.3945 -6.17773c-32.3232 -4.78906 -32.3232 -4.78906 -70.6152 -21.2002c-18.916 -8.10645 -50.2139 -47.4062 -58.166 -66.7188
c-7.02734 -17.0664 -9.0791 -30.2676 -9.0791 -45.8906c0 -22.332 3.62891 -44.376 3.62891 -77.1553c0 -8.99219 1.14648 -13.8564 1.14648 -20.1924c0 -4.57031 -0.613281 -9.64551 -2.73242 -16.6025c-19.9492 -65.4795 -40.3174 -87.0479 -63.832 -110.183
c-6.25977 -6.16016 -27.0508 -26.6172 -27.0508 -37.7881c0 -4.45605 0.882812 -6.9082 38.3447 -19.4531c55.9199 -18.7266 60.0254 -24.4102 60.0254 -90.9766c0 -43.0117 2.70801 -110.013 2.70801 -151.731c0 -5.5 0.0820312 -11.3867 0.267578 -17.7666
c0.50293 -17.292 16.4512 -45.3398 23.8975 -57.5352c1.19629 -0.303711 1.95996 -1.18164 1.95996 -1.18164c1.1543 -0.666992 2.48438 -1.60059 4.13477 -2.74414c16.0508 -11.1162 22.0049 -13.1846 40.8428 -13.1846c24.0361 0 22.3457 4.21484 79.0615 4.21484
c0.316406 0 6.94531 -0.00390625 7.01562 -0.00390625c14.7988 0 25.668 0.226562 52.1025 3.80078c20.2021 2.73242 38.8271 4.61572 56.5088 6.4043c120.938 12.2334 201.711 24.1475 280.178 80.1953c2.23438 1.5957 5.14355 3.85352 8.45703 6.42773
c12.6104 9.7959 33.0303 26.8994 48.1416 26.8994c8.16699 0 13.834 -4.95996 13.834 -14.165c0 -15.4473 -17.4082 -42.8486 -33.0938 -42.8486c-1.16406 0 -1.56543 0.129883 -3.01758 0.129883c-22.6426 0 -44.3604 -36.5264 -79.4766 -51.29
c-52.8857 -22.2344 -138.298 -27.127 -175.459 -33.71c-17.2549 -3.05664 -36.6504 -6.49316 -61.8809 -12.2393c-34.7246 -7.90918 -51.6299 -8.61133 -86.7539 -8.61133c-0.251953 0 -22.7891 0.03125 -25.0811 0.03125c-11.3115 0 -32.6182 -0.123047 -32.9473 -0.123047
c-40.7773 0 -82.5049 2.86621 -120.91 24.8125c-26.0957 14.9121 -27.9092 36.1035 -30.0449 61.0586c-0.477539 5.59082 -0.976562 11.3994 -1.75781 17.3906c-1.96484 15.7158 -2.63672 29.7119 -2.63672 42.8916c0 28.6572 -4.27441 100.664 -4.27441 131.409
c0 46.4277 -4.59863 49 -29.7539 58.8145c-27.3184 10.6582 -57.2148 13.2568 -70.834 26.876c-4.33008 4.33008 -6.66504 9.68945 -6.66504 16.1094c0 4.7959 1.30371 10.1846 4.05176 16.1768c36.4951 79.5967 68.6367 70.0742 91.3711 139.761
c5.20312 15.9443 6.93652 32.2529 6.93652 48.6797c0 32.5635 -6.77832 65.1611 -6.77832 95.8125c0 47.6494 17.2412 68.3838 35.0508 86.1934c66.2422 66.2412 143.674 66.3555 238.901 66.3555h0.988281c82.8154 0 190.135 -23.3467 246.021 -49.8477
c43.5547 -20.6533 21.8506 -15.7109 32.4561 -16.8408c11.3984 -1.2168 39 -13 47.5039 -30.4053c4.31641 -8.83496 -4.12305 -21.668 -4.50391 -29.5947c-0.257812 -5.36523 2 -14.3428 2 -20zM528.6 196.532l-0.00292969 -0.124023
c0.000976562 0.0410156 0.00292969 0.0830078 0.00292969 0.124023zM506.684 266.166l0.0302734 -0.0361328c-0.00976563 0.0126953 -0.0302734 0.0361328 -0.0302734 0.0361328zM476.149 263.358l0.0322266 0.0478516
c-0.00488281 -0.0078125 -0.0107422 -0.015625 -0.0322266 -0.0478516zM456.407 198.827l0.00878906 0.0576172c-0.00292969 -0.0195312 -0.00878906 -0.0380859 -0.00878906 -0.0576172zM458.245 191.396l-0.0410156 0.0449219
c0.0136719 -0.0146484 0.0273438 -0.0292969 0.0410156 -0.0449219zM459.874 190.16l-0.203125 0.0595703c0.0673828 -0.0205078 0.135742 -0.0410156 0.203125 -0.0595703zM460.874 189.974l-0.0429688 0.00390625c0.0078125 0 0.015625 -0.00390625 0.0429688 -0.00390625
zM494.122 272.97c-16.6133 1.50488 -23.4443 -16.4121 -29.8711 -41.958c-4.94629 -20.3643 -4.94629 -20.3643 -6.73633 -27.0781l0.00878906 0.0390625c-0.00292969 -0.0126953 -0.00878906 -0.0390625 -0.00878906 -0.0390625
c-1.26367 -5.19922 -2.30957 -9.50391 0.899414 -12.7129c1.17871 -1.17871 1.61133 -1.25879 4.96289 -1.40625c59.5049 0.0263672 59.5049 0.0263672 61.1533 0.244141c1.42188 0.177734 5.00293 3.48926 3.81445 9.13184
c-0.0927734 0.46582 -7.39355 32.335 -11.5996 46.0488c-7.38379 23.8096 -16.1807 27.2842 -22.623 27.7305zM523.104 177.301c-4.62305 -0.0947266 -59.3311 -0.0927734 -59.9297 -0.0732422c-3.61719 0.116211 -8.64551 0.27832 -12.9463 5.04199
c-1.25586 1.3916 -7.0957 8.50781 -5.23633 18.6865c0.685547 3.75195 1.60645 7.53125 3.32324 13.8213c7.35547 30.2568 9.34863 38.458 14.8574 49.7461c4.50586 9.21875 14.4453 23.1016 32.8516 20.9004c21.8379 -2.4209 29.9785 -27.499 35.8115 -51
c2.0498 -8.52148 4.14355 -17.0264 6.29102 -25.5547c1.88086 -7.83594 3.70117 -15.4189 -0.958984 -23.1299c-2.31836 -3.83496 -6.66797 -8.51953 -14.0635 -8.43848zM649.8 86.1318l-0.00292969 -0.124023
c0.000976562 0.0419922 0.00292969 0.0830078 0.00292969 0.124023zM627.884 155.767l0.0302734 -0.0361328c-0.00976562 0.0117188 -0.0302734 0.0361328 -0.0302734 0.0361328zM597.35 152.958l0.0322266 0.0488281
c-0.00585938 -0.00878906 -0.0107422 -0.0166016 -0.0322266 -0.0488281zM577.606 88.4277l0.00878906 0.0566406c-0.00292969 -0.0185547 -0.00878906 -0.0380859 -0.00878906 -0.0566406zM579.445 80.9961l-0.0410156 0.0449219
c0.0136719 -0.015625 0.0273438 -0.0302734 0.0410156 -0.0449219zM581.074 79.7598l-0.203125 0.0605469c0.0673828 -0.0214844 0.135742 -0.0419922 0.203125 -0.0605469zM582.073 79.5742l-0.0429688 0.00390625
c0.0078125 0 0.0166016 -0.00390625 0.0429688 -0.00390625zM615.322 162.569c-16.6143 1.50586 -23.4443 -16.4121 -29.8711 -41.958c-4.94629 -20.3633 -4.94629 -20.3633 -6.7373 -27.0781l0.00976562 0.0400391
c-0.00292969 -0.0136719 -0.00976562 -0.0400391 -0.00976562 -0.0400391c-1.2627 -5.19922 -2.30957 -9.50293 0.900391 -12.7129c1.17871 -1.17871 1.61133 -1.25879 4.96289 -1.40527c59.5049 0.0253906 59.5049 0.0253906 61.1523 0.244141
c1.42285 0.176758 5.00391 3.48926 3.81543 9.13086c-0.0927734 0.46582 -7.39355 32.335 -11.5996 46.0498c-7.38379 23.8096 -16.1807 27.2842 -22.623 27.7295zM644.305 66.9004c-4.62402 -0.0947266 -59.3311 -0.0917969 -59.9307 -0.0732422
c-3.61621 0.117188 -8.64453 0.27832 -12.9453 5.04199c-1.25586 1.3916 -7.0957 8.50879 -5.23633 18.6875c0.685547 3.75098 1.60645 7.53027 3.32324 13.8203c7.35449 30.2568 9.34863 38.458 14.8574 49.7461c4.50586 9.21973 14.4443 23.1016 32.8516 20.9004
c21.8379 -2.41992 29.9785 -27.499 35.8115 -51c2.0498 -8.52051 4.14355 -17.0254 6.29004 -25.5537c1.88184 -7.83594 3.70215 -15.4199 -0.958008 -23.1299c-2.31836 -3.83496 -6.66797 -8.52051 -14.0635 -8.43945zM609.877 236.167
c0.959961 0 32.8203 37.1338 33.5518 36.4023l8.20215 -7.84863c0.729492 -0.697266 1.09766 -1.69141 1.09766 -2.65137c0 -0.847656 1.29004 2.93359 0.693359 2.26562c-96.9932 -108.766 -183.212 -206.295 -198.093 -224.517
c-0.654297 -0.801758 -3.24023 -5.74902 -4.2002 -5.74902s-1.91992 0.366211 -2.65137 1.09766l-6.2998 6.2998c-0.732422 0.732422 -1.09863 1.69141 -1.09863 2.65234c0 0.84668 0.254883 1.7207 0.855469 2.38477c107.895 119.266 133.793 147.965 152.294 172.065
c0.630859 0.821289 14.6885 17.5977 15.6484 17.5977zM586.713 542.912l-189 0.628906v12.4717h169.458v70.8174h-169.458v12.4707l188.583 4.83887zM568.848 426.606c-1.63574 0 -3.2627 0.904297 -4.13672 2.18945l-38.4424 56.5068l-38.6406 -56.6104
c-0.875 -1.28125 -2.50098 -2.18359 -4.13281 -2.18359c-0.790039 0 -1.5791 0.186523 -2.29785 0.557617l-38.0293 19.6621l20.9873 -62.7285h129.845l16.8076 63.6201l-39.667 -20.459c-0.716797 -0.369141 -1.50488 -0.554688 -2.29297 -0.554688zM628.575 473.222
c2.68945 0 4.99902 -2.30762 4.99902 -4.99902c0 -0.43457 -0.0566406 -0.870117 -0.168945 -1.29297l-25.0762 -94.1113c-0.541016 -2.0293 -2.54297 -3.70605 -4.83008 -3.70605h-148.387c-2.17383 0 -4.1123 1.53223 -4.74023 3.40625l-31.6201 94.4541
c-0.172852 0.516602 -0.258789 1.05469 -0.258789 1.59277c0 2.69043 2.30762 4.99902 4.99902 4.99902c0.790039 0 1.5791 -0.185547 2.29785 -0.556641l53.4531 -27.6426l42.9004 62.8301c0.874023 1.28125 2.5 2.18262 4.13184 2.18262
c1.63477 0 3.26172 -0.90332 4.13574 -2.18848l42.7695 -62.8301l53.1064 27.3105c0.71582 0.368164 1.50195 0.551758 2.28809 0.551758z" />
  </g>

</svg>
