<?xml version="1.0" standalone="no"?>
<!DOCTYPE svg PUBLIC "-//W3C//DTD SVG 1.1//EN" "http://www.w3.org/Graphics/SVG/1.1/DTD/svg11.dtd" >
<svg xmlns="http://www.w3.org/2000/svg" xmlns:xlink="http://www.w3.org/1999/xlink" version="1.1" viewBox="-10 0 1051 1000">
  <g transform="matrix(1 0 0 -1 0 800)">
   <path fill="currentColor"
d="M828.399 483.872c0 9.49878 0.360099 25.4826 0.360099 28.905l-0.318652 61.3747l-8.69455 54.78l-24.0577 41.7601l-29.8355 19.1251l-33.9409 8.02542l-47.9505 1.85133v0.765382l-107.704 8.96128l-161.614 -4.8437l-135.511 -48.0118l4.97421 -24.8711
l90.1513 34.2037l168.519 13.9909l163.859 -8.05849l72.0585 -32.0852l24.6852 -76.5829c-12.0195 -98.6551 -12.0195 -98.6551 -8.64097 -103.175l30.4464 -40.7334l38.0432 -60.0682l23.93 -33.502l-96.7113 -80.2498l-3.19974 -219.288
c0.962733 -7.56244 2.78458 -22.0112 5.01798 -45.877c-15.8013 -33.078 -15.8013 -33.078 -21.7795 -38.1459c-28.726 -6.87192 -37.6748 -9.01268 -53.7943 -9.01268c-3.38415 0 -6.77838 0.14333 -10.1737 0.446144l-127.95 -3.2205l-189.706 31.9736l-119.91 72.0259
l-21.8729 31.5454c-0.18608 0.126152 -14.9542 10.3475 -18.5829 12.6523v-31.4635c5.41685 -3.87145 13.5068 -7.36272 24.4398 -17.2503c0.324316 -0.293306 6.03353 -5.56267 27.8246 -33.7326l70.2643 -41.1391l123.979 -35.7692l40.8353 -3.74581
c52.8258 -4.90757 59.0669 -6.73248 83.0467 -7.42728l68.08 -1.97257l89.7606 0.254271l51.1066 12.4914l15.1376 25.2075l6.27671 34.16l-0.268638 82.9487l0.0291888 84.2282l-0.00582149 87.5189l84.7837 67.8016l7.68593 8.96692
c1.77472 11.4559 1.98289 12.7996 -2.19749 25.3734l-23.3304 38.8443c-23.3118 29.9188 -45.6511 60.8101 -67.3422 92.3496c-0.202711 16.1296 -0.202711 16.1296 -0.202711 17.6951zM33.2949 712.521h55.5146l17.1611 52.2256l17.1602 -52.2256h55.5156
l-44.8672 -32.2959l17.1611 -52.2246l-44.9697 32.2959l-44.9707 -32.2959l17.1611 52.2246zM638 245l14.4785 -12.1494l-132.3 -151.2l-14.4785 12.1494zM577.67 71.6924c0 -5.99996 4.02349 -6.13986 5.50586 -6.19141l14.6367 0.0224609l29.3887 -0.0224609
l2.83398 0.0576172h0.307617c3.00879 0 4.02734 4.57129 4.02734 6.1416c0 1.19291 0 1.19291 -6.3125 27.417c-6.34375 25.5566 -12.623 33.2559 -22.0371 33.2559c-11.4473 0 -16.7988 -12.5127 -22.2793 -34.46c-6.07129 -24.9782 -6.07129 -24.9782 -6.07129 -26.2207z
M582.943 56.9111c-3.7294 0.162148 -14.6533 1.76227 -14.6533 14.9453c0 0.599005 7.37781 42.2034 17.2197 57.3721c2.08398 3.10742 8.41699 11.7373 20.3906 11.7373c20.5146 0 26.9033 -22.4102 31.1943 -39.5049c6.55078 -26.9072 6.66113 -27.0146 6.66113 -29.832
c0 -1.43056 -0.396429 -14.6992 -15.1045 -14.6992c-0.123047 0 -0.246094 0.000976562 -0.369141 0.000976562zM540.118 176.128c2.83301 0.0576172 2.83301 0.0576172 3.14062 0.0576172c3.00879 0 4.02734 4.57227 4.02734 6.14258c0 1.18018 0 1.18018 -6.31152 27.416
c-6.34473 25.5576 -12.624 33.2559 -22.0381 33.2559c-11.4473 0 -16.7988 -12.5127 -22.2793 -34.459c-6.07129 -24.9782 -6.07129 -24.9782 -6.07129 -26.2217c0 -5.99996 4.02439 -6.13989 5.50586 -6.19141l14.6367 0.0224609zM495.859 167.539
c-14.04 0.305217 -14.6533 12.7686 -14.6533 14.9443c0 0.599015 7.37919 42.204 17.2197 57.373c2.08496 3.10645 8.41699 11.7363 20.3916 11.7363c20.5146 0 26.9023 -22.4102 31.1924 -39.5039c6.55176 -26.9082 6.66211 -27.0156 6.66211 -29.832
c0 -1.42561 -0.394934 -14.7002 -15.1045 -14.7002c-0.123047 0 -0.246094 0.000976563 -0.369141 0.000976563zM524.512 345.355l-0.444336 22.4961l122.988 -1.14648l0.789062 -21.3496h-123.333zM490.911 339.355h-21.5996l1.68848 261.645l18.7109 1.15625z" />
  </g>

</svg>
