<?xml version="1.0" standalone="no"?>
<!DOCTYPE svg PUBLIC "-//W3C//DTD SVG 1.1//EN" "http://www.w3.org/Graphics/SVG/1.1/DTD/svg11.dtd" >
<svg xmlns="http://www.w3.org/2000/svg" xmlns:xlink="http://www.w3.org/1999/xlink" version="1.1" viewBox="-10 0 1010 1000">
  <g transform="matrix(1 0 0 -1 0 800)">
   <path fill="currentColor"
d="M348.481 97.6934l-82.2217 148.848l24.0225 10.1475l58.4395 -100.383l53.3027 101.418l27.2285 -11.0254zM265.568 -67.707v34.6641h38.626v22.0713h-38.626v34.6641h38.626v33.7148h31.3828v-33.7148h23.2197v31.2539h31.3828v-31.2539h41.292v-34.6641h-41.292
v-22.0713h41.292v-34.6641h-41.292v-36.1855h-31.3828v36.1855h-23.2197v-33.7246h-31.3828v33.7246h-38.626zM335.577 -33.043h23.2197v22.0713h-23.2197v-22.0713zM780.659 223.904c-0.529297 0 -0.985352 0.173828 -1.32227 0.358398l-214.094 -88.2627v-37.8242
c12.126 5.10742 24.251 10.2148 36.376 15.3213v-3.77051l-0.21875 -161.659h318.305l0.646484 155.446c10.9619 -6.48535 21.9238 -12.9697 32.8867 -19.4551l-0.677734 40.7051l-136.33 79.1182l1.46387 0.616211c-22.6963 11.7715 -24.457 12.7314 -36.2109 19.5508
c-0.288086 -0.102539 -0.56543 -0.144531 -0.824219 -0.144531zM884.594 -16.7148h-248.003l-0.665039 144.662l142.009 59.8174l107.859 -63.8086zM63.3545 -23.4795h55.5146l17.1611 52.2256l17.1602 -52.2256h55.5156l-44.8672 -32.2959l17.1611 -52.2246
l-44.9697 32.2959l-44.9707 -32.2959l17.1611 52.2246zM718.74 725.978c1.71875 -30.543 -12.7949 -117.546 -4.25684 -122.113c8.38184 -90.1182 95.6338 -174.32 95.7441 -171.071l-14.7842 -9.85645c-33.2617 36.2812 -70.376 72.1865 -98.6592 170.496
c-6.2959 -43.2871 -33.334 -91.7705 -57.6289 -122.624c-14.7822 -18.7725 -21.1201 -33.792 -33.792 -47.8721l-16.8965 13.376c19.0088 24.6396 29.6777 40.5215 42.2412 57.0244c64.1416 84.2568 66.8252 194.883 66.3281 253.489
c5.96875 -0.131836 11.9375 -0.262695 17.9062 -0.395508c3.3584 -0.0712891 3.49512 -3.33594 3.55273 -4.73047c0.00683594 -0.15625 -0.21875 -7.49023 0.245117 -15.7227zM868.115 743.376l-124.417 -140.386l16.3018 -12.9902l105.984 123.144
c8.80371 -14.5977 21.3672 -31.8555 25.5498 -43.1846l29.7412 42.4082zM354.979 496.418zM394.806 679.673l0.0292969 -0.0351562c-0.0107422 0.0117188 -0.0292969 0.0351562 -0.0292969 0.0351562zM281.705 536.282l0.00976562 0.0576172
c-0.00390625 -0.0195312 -0.00976562 -0.0380859 -0.00976562 -0.0576172zM291.673 513.34l-0.193359 0.0595703c0.0644531 -0.0205078 0.128906 -0.0400391 0.193359 -0.0595703zM294.889 512.703l-0.0419922 0.00390625
c0.0078125 0 0.0146484 -0.00390625 0.0419922 -0.00390625zM418.194 494.461c-64.7344 0.227539 -117.915 0 -117.926 0.000976562c-7.29199 0.235352 -16.3389 0.526367 -24.1484 9.17773c-12.9502 14.3467 -10.6709 31.7646 -9.96875 35.6074
c1.42676 7.81055 3.66211 15.6553 6.91406 28.7246c13.625 54.7568 15.2207 62.6162 21.4189 80.71c14.125 41.0654 31.2334 54.9307 46.333 61.0781c9.24121 3.44922 39.2441 11.5908 64.0576 -16.123c12.7812 -15.0068 23.125 -35.3271 35.2891 -84.3389
c4.30859 -17.9092 8.70898 -35.7852 13.21 -53.6631c1.14648 -4.77637 2.19922 -9.57031 3.16016 -14.4131c4.73926 -23.332 -8.79785 -46.8916 -30.5684 -46.6035zM286.546 517.145c0.0136719 -0.0107422 0.0283203 -0.0214844 0.0283203 -0.0322266
c3.98828 -4.33496 6.63574 -4.44922 13.8877 -4.76367c0 0 120.58 0.0527344 120.633 0.0527344c2.82422 -0.0400391 5.63867 0.125 8.44727 0.498047c5.82227 0.726562 14.5547 10.4209 11.6367 24.25c-1.34863 6.79102 -1.34863 6.79102 -7.0791 29.8027
c-14.2441 58.5039 -17.4902 71.834 -27.2109 93.1328c-1.78223 3.81934 -7.50195 15.2959 -15.2988 23.0938c-7.62988 7.62891 -16.25 11.6465 -26.2412 12.3379c-12.4307 1.09863 -35.1758 -0.634766 -52.0146 -42.376
c-6.5918 -16.6104 -10.6348 -31.2148 -15.0879 -48.958c-10.3828 -42.7422 -10.3828 -42.7422 -14.1436 -56.8486l0.00878906 0.0380859c-0.00292969 -0.0126953 -0.00878906 -0.0380859 -0.00878906 -0.0380859c-2.96387 -12.1865 -5.16016 -21.2197 2.44336 -30.1895z
M144 540l-51.6484 44.6738l49.7344 43.877l12.623 -13.3506l-25.458 -21.4297l104.94 0.848633l0.967773 -18.4336l-106.057 -0.123047l26.8506 -22.4756z" />
  </g>

</svg>
