<?xml version="1.0" standalone="no"?>
<!DOCTYPE svg PUBLIC "-//W3C//DTD SVG 1.1//EN" "http://www.w3.org/Graphics/SVG/1.1/DTD/svg11.dtd" >
<svg xmlns="http://www.w3.org/2000/svg" xmlns:xlink="http://www.w3.org/1999/xlink" version="1.1" viewBox="-10 0 1865 1000">
  <g transform="matrix(1 0 0 -1 0 800)">
   <path fill="currentColor"
d="M339.993 -162.333c-6.48633 0 -11.833 5.2793 -11.833 11.833v240.084c0 6.50684 5.29688 11.833 11.877 11.833c0 0 65.7803 -0.266602 77.9971 -0.31543l52.0459 47.0879c3.43555 -26.9775 3.43555 -26.9775 4.76465 -51.5605l164.489 3.58496
c6.35254 0 11.666 -5.28613 11.666 -11.8369v-67.377l47.4023 -55.1924c-43.6182 2.40039 -43.6182 2.40039 -48.8213 3.14355l1.41992 -120.739c0 -6.43457 -5.30762 -11.752 -11.8779 -11.752zM619.486 -131.826l3.04492 98.2959
c-5.18848 -0.797852 -10.376 -1.5957 -15.5645 -2.39453l-36.374 4.82227l48.7402 53.4541v46.2783l-142.78 1.83496c-0.43457 -15.876 -0.43457 -15.876 -2.12695 -48.8555l-56.7363 47.8438l-57.8594 0.248047v-200.412zM50.3545 720.521h55.5146l17.1611 52.2256
l17.1602 -52.2256h55.5156l-44.8672 -32.2959l17.1611 -52.2246l-44.9697 32.2959l-44.9707 -32.2959l17.1611 52.2246zM901.223 282h-322.223v333.333h6.22266c0.307617 0.000976563 0.805664 0.00195313 1.11328 0.00195313c173.637 0 315.104 -140.922 315.775 -314.558
v-8.22168v-4.77832zM590.111 293.111h300v7.33301c-0.399414 164.978 -134.601 301.07 -299.556 303.777zM1593.16 -126.465h251.022v-15.2773h-526.578v15.2773h257.777v325.875h-186.666v15.2783h186.666v106.944h17.7783v-106.944h186.666v-15.2783h-186.666v-325.875z
M1093.36 675.285l37.1855 54.043c2.29688 3.33887 7.27148 3.3457 9.66016 0.306641l45.2246 -57.542c2.13086 -2.71289 1.47852 -6.78906 -1.39062 -8.70215c-0.647461 -0.430664 -1.41797 -0.741211 -2.13965 -0.886719l-7.70605 -1.55469
c-2.2334 -0.451172 -4.58496 0.49707 -5.90137 2.1709l-24.293 30.8799l1.17285 -123.925c0.0332031 -3.49121 -3.05371 -6.21973 -6.31543 -6.04785l-7.37012 0.388672c-3.27148 0.171875 -5.69727 3.08789 -5.68359 6.01855l0.578125 122.085l-19.7881 -28.7061
c-1.95703 -2.83984 -6.04004 -3.42188 -8.72168 -1.25293c-0.40918 0.331055 -1.05176 1.10254 -1.0918 1.1582l-3.35059 4.66504c-1.54883 2.15527 -1.26758 5.16016 -0.0693359 6.90137z" />
  </g>

</svg>
