<?xml version="1.0" standalone="no"?>
<!DOCTYPE svg PUBLIC "-//W3C//DTD SVG 1.1//EN" "http://www.w3.org/Graphics/SVG/1.1/DTD/svg11.dtd" >
<svg xmlns="http://www.w3.org/2000/svg" xmlns:xlink="http://www.w3.org/1999/xlink" version="1.1" viewBox="-10 0 1020 1000">
  <g transform="matrix(1 0 0 -1 0 800)">
   <path fill="currentColor"
d="M30.3242 741.553h55.5146l17.1611 52.2256l17.1602 -52.2256h55.5156l-44.8672 -32.2959l17.1611 -52.2246l-44.9697 32.2959l-44.9707 -32.2959l17.1611 52.2246zM271 608l-12 60c128.725 89.7881 355.203 55.3633 442.457 48.5605
c0 -0.0107422 0.000976562 -0.0214844 0.000976562 -0.0322266c27.4463 0.582031 75.1855 -1.32129 107.268 -33.4033c40.1396 -40.1396 38.6152 -108.841 37.5254 -169.365c-0.395508 -21.9258 -0.433594 -33.2402 -0.22168 -41.9463
c26.3789 -43.8281 72.168 -89.959 89.3252 -129.607c6.95117 -16.0635 5.49219 -24.7637 2.64551 -40.2051l-12 -14l-79.501 -63.5771v-212.431c1.93945 -31.0869 1.82422 -79.2412 -27.416 -108.48c-26.0322 -26.0322 -182.507 -12.0195 -220.584 -13.0049
l-2.90137 0.0126953c-103.732 -7.2998 -296.108 50.6025 -326.603 92.1719c-18.5059 25.2275 -31.4014 41.2529 -57.9951 55.3086v70.0371c25.8174 -16.2627 49.624 -17.8066 70.1904 -60.6357c44.2188 -92.082 349.455 -105.734 451.309 -108.438l-0.499023 -0.962891
c50 12 34.1514 4.48145 42.5352 13.5361c19.1768 20.7119 3.97852 41.9688 5.50781 57.9648h-0.541992v2.14941c-0.253906 0.990234 -0.500977 1.94141 -0.738281 2.84863h0.738281v207.174v3.4873v1.33887h1.58203l104 88h1.13281
c4.9834 45.8955 -62.8379 92.1289 -94.2158 139.501l-3 4l-1 1c-2.02051 3.99219 0.0439453 4.02539 -2.08398 11.5605c-0.0371094 0.130859 -0.189453 0.24707 -0.174805 0.367188l0.258789 2.07227l0.0644531 1.49902
c0.00976562 0.226562 0.150391 3.89551 0.242188 6.24414c3.11426 79.1523 5.19727 173.389 -83.8154 173.771c-136.35 16.7461 -373.536 9.53418 -431.49 -46.5137zM591.545 93.0645zM394.168 225.852zM357.309 157.995zM500.925 69.2734zM500.666 61.0332z
M390.935 91.6738zM454.194 71.7725zM626.751 173.337zM357.309 157.995zM626.751 173.337zM631.609 177.961c2.5459 -7.70801 4.18359 -16.0508 6.3252 -24.043l1.49219 -0.0234375c-1.13477 -23.9453 -1.5625 -32.9629 -40.4453 -63.6875
c-28.9316 -22.8623 -50.1143 -30.9141 -98.2637 -31.457c-33.1191 -0.374023 -75.2988 0.866211 -112.277 31.4492c-14.5703 12.0508 -37.7002 35.374 -37.4854 61.8672h-1.03711c1.13281 4.24707 1.13281 4.24707 1.24121 7.50781l0.757812 -0.0117188l3.24707 12.1758
h-1.4248c0.740234 1.00391 1.48047 2.00977 2.2207 3.01562v3.4209h2.51758l36.7715 49.9619h1.16699c12.7217 29.75 61.4619 44.0811 80.3916 21.0361c2.6875 -1.20801 14.8789 -6.07129 27.7148 -1.3916c6.6123 8.84961 25.1904 17.3896 46.0967 13.0547
c20.2197 -4.19336 40.6182 -23.0039 49.5674 -32.1621h0.428711c0.31543 -0.463867 0.53125 -0.99707 0.927734 -1.4043l2.81152 -2.93359l26.8496 -45.8789c0.400391 0.0341797 0.716797 0.0078125 0.654297 -0.282227zM369.66 153.674
c-0.445312 -15.2676 1.24316 -33.4258 38.3242 -59.3828c31.4658 -22.0254 57.5381 -23.6074 93.333 -22.7217c41.7051 1.07324 59.1074 6.43457 84.291 27.0127c33.4883 27.3662 39.0381 35.9424 35.0107 52.0186l-5.32617 21.2588l-0.195312 -0.348633
c0.0117188 1.28613 -0.848633 2.92285 -0.836914 4.20898l-29.8828 47.1318c-0.801758 -0.03125 -0.161133 0.696289 -0.963867 0.665039c-18.4961 12.1943 -20.4688 17.4785 -27.3779 21.5537c-10.6387 6.27344 -26.9971 5.01074 -37.4111 -2.09668
c-5.18359 -15.6172 -37.3486 -18.1191 -52.1689 -4.03613c-1.38184 1.3125 -2.40039 0.582031 -2.26953 2.19141c-15.8438 10.9023 -45.5186 -0.0810547 -53.9033 -19.8311l-1.01758 -2.39551l-1.69434 0.652344l-32.6797 -46.2646zM489.597 124.233
c-0.0498047 1.72949 -0.0742188 3.02637 -0.0742188 3.89062c0 5.0918 0.735352 9.48633 2.20703 13.1855c1.0791 2.78613 2.82031 5.59668 5.22266 8.43066c1.76562 2.06445 4.92871 5.06738 9.48926 9.00586c4.60938 3.9873 7.60059 7.1582 8.97461 9.51172
c1.37305 2.35352 2.05957 4.92383 2.05957 7.70996c0 5.04395 -2.01074 9.46191 -6.03125 13.2578c-4.02246 3.84277 -8.9502 5.76367 -14.7852 5.76367c-5.64062 0 -10.3477 -1.72949 -14.125 -5.18848c-3.77539 -3.45801 -6.25195 -8.8623 -7.42871 -16.2109
l-13.6084 1.58496c1.22559 9.84766 4.85449 17.3887 10.8867 22.624c6.08008 5.23633 14.0986 7.85352 24.0527 7.85352c10.5449 0 18.9551 -2.80957 25.2314 -8.42969c6.27734 -5.62012 9.41602 -12.417 9.41602 -20.3906c0 -4.61133 -1.10352 -8.86328 -3.31055 -12.7539
s-6.52148 -8.62109 -12.9463 -14.1943c-4.31543 -3.74707 -7.13477 -6.50879 -8.45898 -8.28516c-1.3252 -1.77832 -2.30566 -3.81934 -2.94238 -6.125c-0.637695 -2.30566 -1.00488 -6.05273 -1.10352 -11.2402h-12.7256zM488.787 98.2227v14.7695h15.0801v-14.7695
h-15.0801zM511.522 553.941c1.32422 -23.5117 -9.84961 -90.4805 -3.27734 -93.9961c6.45312 -69.3682 73.6133 -134.183 73.6992 -131.681l-11.3799 -7.58789c-25.6045 27.9268 -54.1729 55.5654 -75.9434 131.237c-4.84473 -33.3193 -25.6582 -70.6396 -44.3594 -94.3887
c-11.3789 -14.4512 -16.2559 -26.0107 -26.0117 -36.8486l-13.0049 10.2959c14.6318 18.9668 22.8438 31.1914 32.5146 43.8945c49.373 64.8564 51.4385 150.01 51.0557 195.121c4.59473 -0.100586 9.18848 -0.202148 13.7842 -0.302734
c2.58398 -0.0566406 2.68848 -2.56934 2.73438 -3.64062c0.00488281 -0.12207 -0.167969 -5.76758 0.188477 -12.1035z" />
  </g>

</svg>
