<?xml version="1.0" standalone="no"?>
<!DOCTYPE svg PUBLIC "-//W3C//DTD SVG 1.1//EN" "http://www.w3.org/Graphics/SVG/1.1/DTD/svg11.dtd" >
<svg xmlns="http://www.w3.org/2000/svg" xmlns:xlink="http://www.w3.org/1999/xlink" version="1.1" viewBox="-10 0 1051 1000">
  <g transform="matrix(1 0 0 -1 0 800)">
   <path fill="currentColor"
d="M828.399 483.872c0 9.49878 0.360099 25.4826 0.360099 28.905l-0.318652 61.3747l-8.69455 54.78l-24.0577 41.7601l-29.8355 19.1251l-33.9409 8.02542l-47.9505 1.85133v0.765382l-107.704 8.96128l-161.614 -4.8437l-135.511 -48.0118l4.97421 -24.8711
l90.1513 34.2037l168.519 13.9909l163.859 -8.05849l72.0585 -32.0852l24.6852 -76.5829c-11.2968 -92.7231 -11.5388 -94.7093 -10.6225 -98.1968c0.272553 -1.03738 0.408327 -1.98777 0.495372 -2.92219c0.487753 -0.641757 1.13403 -1.58506 1.4862 -2.05622
l30.4464 -40.7334l38.0432 -60.0682l23.93 -33.502l-96.7113 -80.2498l-3.19974 -219.288c0.962733 -7.56244 2.78458 -22.0112 5.01798 -45.877c-0.12894 -0.269919 -9.65147 -20.9678 -12.8349 -27.02c-1.80565 -3.43278 -3.36365 -6.39475 -8.94453 -11.1259
c-28.726 -6.87192 -37.6748 -9.01268 -53.7943 -9.01268c-3.38415 0 -6.77838 0.14333 -10.1737 0.446144l-127.95 -3.2205l-189.706 31.9736l-119.91 72.0259l-21.8729 31.5454c-0.18608 0.126152 -14.9542 10.3475 -18.5829 12.6523v-31.4635
c5.41685 -3.87145 13.5068 -7.36272 24.4398 -17.2503c7.32645 -6.62591 2.09556 -4.45645 10.6241 -11.9264c1.03002 -0.902171 1.03002 -0.902171 17.2005 -21.8062l70.2643 -41.1391l123.979 -35.7692l40.8353 -3.74581
c52.8258 -4.90757 59.0669 -6.73248 83.0467 -7.42728l68.08 -1.97257l89.7606 0.254271l51.1066 12.4914l15.1376 25.2075l6.27671 34.16l-0.268638 82.9487l0.0291888 84.2282l-0.00582149 87.5189l84.7837 67.8016l7.68593 8.96692l1.11464 7.19504
c0.44913 7.61262 -1.52476 12.8022 -3.31214 18.1783l-23.3304 38.8443l-33.0243 43.448l-34.3179 48.9016c-0.202711 16.1296 -0.202711 16.1296 -0.202711 17.6951zM33.2949 712.521h55.5146l17.1611 52.2256l17.1602 -52.2256h55.5156l-44.8672 -32.2959
l17.1611 -52.2246l-44.9697 32.2959l-44.9707 -32.2959l17.1611 52.2246zM375.439 165.715zM375.333 164.454zM427.168 188.08c1.53047 -0.602798 25.2021 -10.3529 25.2021 -36.7432c0 -6.21222 -1.83898 -23.6721 -21.167 -35.6387
c16.8828 3.00879 38.8711 10.8213 53.2559 35.7949c-3.69774 6.40718 -17.8657 29.3483 -52.5059 35.7285c-3.20651 0.585537 -3.20651 0.585537 -4.78516 0.858398zM441.17 151.449c-0.073098 20.6164 -21.7905 33.8968 -40.2578 25.9199
c-4.23684 0 -11.7629 -10.0204 -15.8809 -16.0078c-7.00665 -19.4019 7.16676 -38.3691 27.166 -38.3691c15.8735 0 28.9727 12.4281 28.9727 28.457zM502.683 151.494c-9.92767 -17.8886 -35.0289 -49.3926 -88.6826 -49.3926
c-49.2118 0 -77.0376 27.2888 -88.9219 49.4727l0.0449219 -0.0810547c4.75996 8.46752 27.8687 49.5068 88.877 49.5068c13.9532 0 59.3423 0 88.7266 -49.5859zM396.117 187.305c-29.2354 -5.31641 -44.2666 -21.0762 -52.7686 -35.8105
c7.9891 -13.7876 23.6121 -29.7822 50.667 -35.3252c-34.9638 17.1478 -23.798 61.3952 2.10156 71.1357zM485.108 66.0938c0.297852 0.0126953 19.124 0.00195312 19.1289 0.0117188c-2.01624 8.45505 -7.34027 30.7812 -0.175781 45.1416l13.6768 27.3525
c-7 108.499 -7 108.499 -6.96094 108.966c2.2998 27.2969 4.30469 59.1377 1.96094 79.5342c-6.0957 24.208 -21.2188 19.0996 -24.752 11.3564c-1.37079 -3.00544 -11.6979 -8.6493 -15.6592 -2.68359c-2.64648 3.98535 -14.8896 22.9443 -15.2119 23.5752
c-4.42773 8.67188 -21.5078 14.0068 -24.7715 -3.16016c-0.119141 -0.620117 -0.119141 -0.620117 -5.94922 -14.8311c-2.17188 -5.29395 -9.82812 -5.07324 -11.6895 0.338867l-10.9668 31.9043c-2.93164 8.52832 -21.2246 15.3389 -30.8887 -0.811523
c-0.177734 -0.532227 -1.48242 -4.48828 -8.5332 -26.6045c-1.5332 -4.80762 -7.93164 -5.90625 -10.9717 -1.82129c-10.1603 13.6526 -25.5268 34.301 -31.0518 1.06934c2.96017 -94.0818 3.0299 -96.298 12.7051 -132.921
c0.713386 -2.70067 0.536689 -20.6382 -7.91797 -22.5762c-10.3672 -2.375 -13.6475 -0.287109 -17.1523 4.57715c-1.80371 2.50195 -14.0674 14.793 -15.3008 16.2158l-25.6992 29.6533c-14.3795 9.49207 -14.3795 9.49207 -27.6895 13.2188
c-2.53516 -1.3916 -5.55859 -0.552734 -7.85156 -2.8457c-1.66309 -1.66309 -3.58203 -7.23633 -2.97168 -10.3926l14.1787 -19.0684c30.1595 -28.2725 43.8803 -45.726 54.7598 -62.875c13.8848 -21.8184 13.8848 -21.8184 14.0811 -22.2734l10.7236 -24.8594
c19.0472 -29.5251 19.0472 -29.5251 19.7285 -32.3857c3.59082 -15.0449 29.0176 -15.7939 29.3516 -15.7998l27.8125 -0.49707zM504.238 53.6016h-18.7383c-84.2998 -3.50098 -84.2998 -3.50098 -84.4863 -3.49805l-28.0137 0.500977
c-4.44727 0.0830078 -34.8125 1.50293 -41.0625 24.5713c-10.3698 19.7063 -16.452 24.6497 -19.1758 30.9639l-10.6074 24.5898l-13.2373 20.8018l-15.04 20.377l-20.6553 24.9785c-17.7432 15.7148 -17.7432 15.7148 -18.5225 16.7627l-14.5 19.5
c-9.65353 12.9807 7.41504 37.2463 24.4238 32.4834c13.097 -3.66736 25.6534 -8.89657 33.0557 -16.2988c0.236328 -0.236328 -0.303711 -0.731445 26.291 -30.2998c13.8564 -15.4062 14.3975 -14.9111 16.3877 -17.6084
c0.328125 0.0302734 0.779297 0.0859375 1.34961 0.178711l0.668945 1.13867l0.299805 7.47168c-6.66602 25.2227 -6.5918 24.5254 -6.81836 26.1729c-4.14046 30.1581 -6.13259 109.621 -5.95605 110.716c6.98523 43.2905 36.0801 28.0999 46.1914 14.5059
c4.87891 15.4814 4.72266 15.3779 5.86621 17.3232c15.1133 25.7041 47.2383 17.2402 53.5977 -1.25684l5.36523 -15.6074c7.48438 25.1494 37.5889 21.4053 47.168 3.27246c0.112305 -0.172852 10.7617 -16.7168 11.1631 -17.335
c15.6203 20.1893 43.0866 4.82425 45.9014 -19.4697c2.55859 -22.2695 0.421875 -54.1162 -1.88477 -81.5605l6.93945 -107.565c0.141602 -2.18652 -0.288086 -4.40234 -1.28906 -6.40527l-13.373 -26.7461c-4.17708 -16.1782 -4.17708 -16.1782 0.845703 -37.2451
c1.87305 -7.85254 -4.07812 -15.4121 -12.1543 -15.4121zM707.87 201.939l-109.412 0.515625l1.54785 220.889l12.8447 -0.34375v-207.729h83.1494v207.729l11.8701 -0.171875v-220.889zM720.67 569.14l-56.4688 -52.5586l62.8691 -54.6416l-11.2842 -6.30176
l-59.3721 54.6533l-53.6973 -54.6533l-5.60742 6.13184l53.0137 53.9131l-52.1152 54.2139l6.88867 6.58887l52.7148 -52.416l55.1123 52.7148zM445.47 432.34l-79.8389 144.533l9.21582 3.89355l71.4238 -122.688l65.0879 123.84l12.459 -5.0459z" />
  </g>

</svg>
