<?xml version="1.0" standalone="no"?>
<!DOCTYPE svg PUBLIC "-//W3C//DTD SVG 1.1//EN" "http://www.w3.org/Graphics/SVG/1.1/DTD/svg11.dtd" >
<svg xmlns="http://www.w3.org/2000/svg" xmlns:xlink="http://www.w3.org/1999/xlink" version="1.1" viewBox="-10 0 1008 1000">
  <g transform="matrix(1 0 0 -1 0 800)">
   <path fill="currentColor"
d="M348.481 97.6934l-82.2217 148.848l24.0225 10.1475l58.4395 -100.383l53.3027 101.418l27.2285 -11.0254zM265.568 -67.707v34.6641h38.626v22.0713h-38.626v34.6641h38.626v33.7148h31.3828v-33.7148h23.2197v31.2539h31.3828v-31.2539h41.292v-34.6641h-41.292
v-22.0713h41.292v-34.6641h-41.292v-36.1855h-31.3828v36.1855h-23.2197v-33.7246h-31.3828v33.7246h-38.626zM335.577 -33.043h23.2197v22.0713h-23.2197v-22.0713zM780.659 223.904c-0.529297 0 -0.985352 0.173828 -1.32227 0.358398l-214.094 -88.2627v-37.8242
c12.126 5.10742 24.251 10.2148 36.376 15.3213v-3.77051l-0.21875 -161.659h318.305l0.646484 155.446c10.9619 -6.48535 21.9238 -12.9697 32.8867 -19.4551l-0.677734 40.7051l-136.33 79.1182l1.46387 0.616211c-22.6963 11.7715 -24.457 12.7314 -36.2109 19.5508
c-0.288086 -0.102539 -0.56543 -0.144531 -0.824219 -0.144531zM884.594 -16.7148h-248.003l-0.665039 144.662l142.009 59.8174l107.859 -63.8086zM63.3545 -23.4795h55.5146l17.1611 52.2256l17.1602 -52.2256h55.5156l-44.8672 -32.2959l17.1611 -52.2246
l-44.9697 32.2959l-44.9707 -32.2959l17.1611 52.2246zM752.399 445.5l-3.7002 4.10059c-70.3994 78.1992 -136.3 39.499 -139.3 37.7998l-7.59961 -4.90039v187.1l2.2002 1.50098c0.699219 0 72.5986 48.7002 150.499 -33.9004
c77.9004 82.7998 145.8 34.2998 146.501 33.7998l1.99902 -1.49902v-188.001l-8.09961 6.2998c-2.5 1.90039 -62.5 46.7012 -138.8 -38.1992zM654.199 508.101c27.1006 0 62.4004 -10.001 98.2002 -47.7002c41.6006 44.2002 79.0996 52 103.399 50.6006
c10.8936 -0.527344 27.6045 -5.00879 37.2998 -10.001v163.3c-11.5 7.2002 -68 36.4004 -134.8 -37.7998l-3.69922 -4.09961l-3.7002 4.09961c-66.2998 73.501 -127.1 44.6006 -139.101 37.7002v-164.5c11.2324 4.63672 30.208 8.40039 42.3594 8.40039h0.0410156z
M367.6 449.9l-3.7002 4.10059c-70.3994 78.1992 -136.3 39.499 -139.3 37.7998l-7.59961 -4.90039v187.1l2.2002 1.50098c0.699219 0 72.5986 48.7002 150.499 -33.9004c77.9004 82.7998 145.8 34.2998 146.501 33.7998l1.99902 -1.49902v-188.001l-8.09961 6.2998
c-2.5 1.90039 -62.5 46.7012 -138.8 -38.1992zM269.399 512.501c27.1006 0 62.4004 -10.001 98.2002 -47.7002c41.6006 44.2002 79.0996 52 103.399 50.6006c10.8936 -0.527344 27.6045 -5.00879 37.2998 -10.001v163.3c-11.5 7.2002 -68 36.4004 -134.8 -37.7998
l-3.69922 -4.09961l-3.7002 4.09961c-66.2998 73.501 -127.1 44.6006 -139.101 37.7002v-164.5c11.2324 4.63672 30.208 8.40039 42.3594 8.40039h0.0410156z" />
  </g>

</svg>
