<?xml version="1.0" standalone="no"?>
<!DOCTYPE svg PUBLIC "-//W3C//DTD SVG 1.1//EN" "http://www.w3.org/Graphics/SVG/1.1/DTD/svg11.dtd" >
<svg xmlns="http://www.w3.org/2000/svg" xmlns:xlink="http://www.w3.org/1999/xlink" version="1.1" viewBox="-10 0 1010 1000">
  <g transform="matrix(1 0 0 -1 0 800)">
   <path fill="currentColor"
d="M164.211 425.653c-0.137695 0 -0.745117 0.258789 -0.745117 0.829102c0 0.0888672 0.0136719 0.176758 0.0351562 0.255859c-0.341797 6.65527 -0.682617 13.3105 -1.02441 19.9658l245.224 25.1523c-2.36719 0.225586 -4.53906 0.432617 -4.56445 0.435547
c-25.2979 4.30664 -34.6709 16.209 -34.6709 41.1602c0 56.2324 47.2812 149.828 56.8369 199.845c0.439453 2.30273 3.46094 4.0127 3.46094 5.73438c0 0.120117 0.62207 1.60547 0.5 2.5l1 -1c0.0244141 -0.796875 0.616211 -1.33691 0.640625 -2.13379v0
c11.3164 -54.4404 54.0967 -126.619 54.0967 -178.397c0 -17.0195 -5.05078 -29.6406 -12.7383 -45.1982c-1.77441 -3.59082 -3.95508 -8.00586 -6.82129 -14.0898c-0.234375 -0.498047 -2.30371 -2.69531 -12.04 -11.0508l-6.74121 2.80957l-0.759766 2.27637
c0.199219 0.189453 13.5352 13.4395 14.2607 23.4268c0.349609 4.81641 0.514648 9.43262 0.514648 13.8623c0 44.8262 -16.8701 70.5215 -29.5957 89.9316c-4.02246 6.13477 -7.63965 11.6445 -10.1797 16.957c-10.9297 -34.2646 -35.1367 -69.6045 -35.1367 -103.394
c0 -16.7373 9.29883 -29.7988 9.5 -30c4.75391 -4.75391 7.93262 -8.0752 19.25 -11.4404v-1.53613l0.700195 0.0722656c2.45605 5.99316 8.42676 11.6807 15.5 11.6807c10.6094 0 15.8105 -9.33008 15.8105 -16.8438c0 -7.80273 -6.01953 -16.6816 -13.7607 -16.6816
c-3.59082 0 -7.78125 1.70703 -11.29 4.31445c-51.2764 -7.9248 -174.746 -21.8818 -253.032 -28.9873c-2.16309 -0.196289 -3.54492 -0.313477 -4.0293 -0.34082c0 0 -0.0517578 -0.115234 -0.200195 -0.115234zM134.221 -61.2959zM340.548 -55.9424v263.013
l80.8701 -0.34668l63.0251 -53.1485c1.23064 24.1913 1.23064 24.1913 2.20835 54.5l190.772 -2.45117v-66.4404l-54.499 -59.7695l32.7266 -4.33887l26 4l-4.22754 -136.465zM695.938 -84.5088c4.71561 0 8.54759 3.82766 8.57399 8.39457l-1.86111 158.189
c12.9088 -1.84411 12.9088 -1.84411 53.0537 -4.0831l-51.1944 59.6085v86.5381c0 4.71977 -3.8161 8.4982 -8.24219 8.54782l-211.617 -4.6113c-2.01115 37.2063 -2.01115 37.2063 -4.71543 58.173l-57.9857 -52.4621l-3.87834 0.0156927
s-96.0008 0.388525 -96.0416 0.388607c-4.71785 0 -8.57227 -3.83432 -8.57227 -8.54297v-300.105c0 -4.69954 3.84858 -8.54199 8.54199 -8.54199c0 0 373.898 -1.50871 373.938 -1.50879zM29.3242 18.2246h55.5146l17.1611 52.2256l17.1602 -52.2256h55.5156
l-44.8672 -32.2959l17.1611 -52.2246l-44.9697 32.2959l-44.9707 -32.2959l17.1611 52.2246zM730.801 443.101c-0.0751953 0 -0.196289 -0.000976563 -0.269531 -0.000976563c-21.9805 0 -52.458 12.5889 -68.0312 28.1006
c-31.7998 31.9004 -37.5996 81.9004 -14.8994 127.7c7.69922 15.5 16.7998 30.5996 25.5996 45.2002c4.7002 7.69922 9.40039 15.5 13.7998 23.2988l31.7998 55.7012l1.50098 2.90039c6.99902 13.6992 8.79883 17.0996 12.7998 17.0996h1.89941
c3.40039 -1.40039 5.60059 -5.7002 8.5 -12.1006c0.5 -1.09961 0.900391 -2.09961 1.2002 -2.5l49.2998 -86.5c3.5 -6.10059 7.30078 -11.999 11.1006 -18c7.06445 -10.3232 16.8311 -28.0195 21.7998 -39.5c1.2002 -2.93359 2.2334 -5.93262 3.09961 -9
c2.35547 -7.90527 4.2666 -21.0146 4.2666 -29.2637c0 -46.9365 -37.4385 -92.0664 -83.5664 -100.735c-5.42773 -1.19922 -14.3428 -2.27441 -19.8994 -2.40039zM733.101 728.701c-1.5 -2.7002 -3 -5.80078 -3.7998 -7.50098l-1.80078 -3.5l-31.7998 -55.5
c-4.5 -7.89941 -9.2002 -15.7002 -14 -23.499c-8.7002 -14.4004 -17.7002 -29.3018 -25.1992 -44.4014c-20.8008 -42.1992 -15.8008 -87.6992 12.8994 -115.999c14.0771 -13.9814 41.6055 -25.3271 61.4453 -25.3271c4.95215 0 12.9062 0.818359 17.7549 1.82617
c41.9082 7.63574 75.9199 48.4043 75.9199 91.002c0 7.70605 -1.8457 19.9355 -4.12012 27.2988c-0.799805 2.7998 -1.73242 5.5332 -2.7998 8.2002c-4.77734 10.9795 -14.1416 27.9141 -20.9004 37.7998c-3.89941 6.10059 -7.7998 12.2002 -11.3994 18.3994
l-49.3008 85.6006c0 0.699219 -1 1.89941 -1.59961 3.39941z" />
  </g>

</svg>
