<?xml version="1.0" standalone="no"?>
<!DOCTYPE svg PUBLIC "-//W3C//DTD SVG 1.1//EN" "http://www.w3.org/Graphics/SVG/1.1/DTD/svg11.dtd" >
<svg xmlns="http://www.w3.org/2000/svg" xmlns:xlink="http://www.w3.org/1999/xlink" version="1.1" viewBox="-10 0 1010 1000">
  <g transform="matrix(1 0 0 -1 0 800)">
   <path fill="currentColor"
d="M677.723 532.233zM378.555 545.553c0 74.2139 60.2359 134.445 134.445 134.445c73.979 0 134.386 -59.9208 134.443 -134.492c-1.08629 -73.9411 -61.8458 -134.334 -136.449 -134.383c-73.1137 1.09032 -132.44 61.308 -132.44 134.43zM511.056 713.123
c-67.9042 0 -135.924 -49.7211 -159.365 -112.79l-4.02321 -10.8247l-255.779 139.718v-367.34l255.461 141.088c7.62231 -21.1857 16.1995 -45.0254 43.9184 -72.7444c31.9366 -31.9366 76.0024 -52.6758 119.975 -52.6758c67.1787 0 134.97 49.0574 158.807 111.243
l4.07862 10.6403l256.656 -139.183l-0.569254 370.661l-255.773 -141.386c-7.73909 20.7912 -16.2888 43.7603 -43.2864 70.7579c-31.9851 31.9851 -76.1927 52.8373 -120.1 52.8373zM897.445 674.931v-259.603l-217.224 118.115v5.94853v9.08984v5.8902zM341.889 550.354
v-6.32031v-5.88377l-217.223 -120.831v257.099l217.223 -118.115v-5.94851zM58.3545 20.5205h55.5146l17.1611 52.2256l17.1602 -52.2256h55.5156l-44.8672 -32.2959l17.1611 -52.2246l-44.9697 32.2959l-44.9707 -32.2959l17.1611 52.2246zM695.938 -84.5088
c4.71561 0 8.54759 3.82766 8.57399 8.39457l-1.86111 158.189c12.9088 -1.84411 12.9088 -1.84411 53.0537 -4.0831l-51.1944 59.6085v86.5381c0 4.71977 -3.8161 8.4982 -8.24219 8.54782l-211.617 -4.6113c-2.01115 37.2063 -2.01115 37.2063 -4.71543 58.173
l-57.9857 -52.4621l-3.87834 0.0156927s-96.0008 0.388525 -96.0416 0.388607c-4.71785 0 -8.57227 -3.83432 -8.57227 -8.54297v-300.105c0 -4.69954 3.84858 -8.54199 8.54199 -8.54199c0 0 373.898 -1.50871 373.938 -1.50879zM340.548 -55.9424v263.013
l80.8701 -0.34668l63.0251 -53.1485c1.23064 24.1913 1.23064 24.1913 2.20835 54.5l190.772 -2.45117v-66.4404l-54.499 -59.7695l32.7266 -4.33887l26 4l-4.22754 -136.465z" />
  </g>

</svg>
