<?xml version="1.0" standalone="no"?>
<!DOCTYPE svg PUBLIC "-//W3C//DTD SVG 1.1//EN" "http://www.w3.org/Graphics/SVG/1.1/DTD/svg11.dtd" >
<svg xmlns="http://www.w3.org/2000/svg" xmlns:xlink="http://www.w3.org/1999/xlink" version="1.1" viewBox="-10 0 1018 1000">
  <g transform="matrix(1 0 0 -1 0 800)">
   <path fill="currentColor"
d="M828.399 483.872c0 9.49878 0.360099 25.4826 0.360099 28.905l-0.318652 61.3747l-8.69455 54.78l-24.0577 41.7601l-29.8355 19.1251l-33.9409 8.02542l-47.9505 1.85133v0.765382l-107.704 8.96128l-161.614 -4.8437l-135.511 -48.0118l4.97421 -24.8711
l90.1513 34.2037l168.519 13.9909l163.859 -8.05849l72.0585 -32.0852l24.6852 -76.5829c-11.2968 -92.7231 -11.5388 -94.7093 -10.6225 -98.1968c0.272553 -1.03738 0.408327 -1.98777 0.495372 -2.92219c0.487753 -0.641757 1.13403 -1.58506 1.4862 -2.05622
l30.4464 -40.7334l38.0432 -60.0682l23.93 -33.502l-96.7113 -80.2498l-3.19974 -219.288c0.962733 -7.56244 2.78458 -22.0112 5.01798 -45.877c-0.12894 -0.269919 -9.65147 -20.9678 -12.8349 -27.02c-1.80565 -3.43278 -3.36365 -6.39475 -8.94453 -11.1259
c-28.726 -6.87192 -37.6748 -9.01268 -53.7943 -9.01268c-3.38415 0 -6.77838 0.14333 -10.1737 0.446144l-127.95 -3.2205l-189.706 31.9736l-119.91 72.0259l-21.8729 31.5454c-0.18608 0.126152 -14.9542 10.3475 -18.5829 12.6523v-31.4635
c5.41685 -3.87145 13.5068 -7.36272 24.4398 -17.2503c7.32645 -6.62591 2.09556 -4.45645 10.6241 -11.9264c1.03002 -0.902171 1.03002 -0.902171 17.2005 -21.8062l70.2643 -41.1391l123.979 -35.7692l40.8353 -3.74581
c52.8258 -4.90757 59.0669 -6.73248 83.0467 -7.42728l68.08 -1.97257l89.7606 0.254271l51.1066 12.4914l15.1376 25.2075l6.27671 34.16l-0.268638 82.9487l0.0291888 84.2282l-0.00582149 87.5189l84.7837 67.8016l7.68593 8.96692l1.11464 7.19504
c0.44913 7.61262 -1.52476 12.8022 -3.31214 18.1783l-23.3304 38.8443l-33.0243 43.448l-34.3179 48.9016c-0.202711 16.1296 -0.202711 16.1296 -0.202711 17.6951zM33.2949 712.521h55.5146l17.1611 52.2256l17.1602 -52.2256h55.5156l-44.8672 -32.2959
l17.1611 -52.2246l-44.9697 32.2959l-44.9707 -32.2959l17.1611 52.2246zM408.844 312.201zM408.569 308.961zM603.292 275.231c0 25.3906 -8.74414 48.4941 -28.9209 68.6719c-11.4189 11.418 -22.9492 18.415 -33.751 22.6689l-30.6562 12.0742
c37.8662 -6.54102 37.8662 -6.54102 42.8389 -8.02441c0.545898 0.186523 1.26172 0.333984 1.97754 0.202148c46.7754 -8.61621 82.2666 -29.4482 107.688 -54.8691c13.1699 -13.1699 22.2021 -25.7559 30.6084 -40.3203
c-21.9131 -38.042 -59.3799 -80.958 -140.244 -95.3672l-17.3828 -3.09766c15.7109 9.64355 24.4727 14.3691 39.3516 29.5283c20.6396 20.6396 28.4912 44.1787 28.4912 68.5332zM503.365 198.97c-21.335 0 -40.082 7.30957 -55.5918 22.8193
c-22.5469 22.5488 -27.3838 52.8359 -17.4385 80.3682l1.15527 3.19629l0.769531 -0.28418c15.6309 23.0703 15.6309 23.0703 16.5459 24.4014c24.4297 15.9932 24.4297 15.9932 24.7529 16.0342c17.252 7.25586 54.418 13.8604 85.5586 -17.2803
c15.4814 -15.4814 22.0557 -33.4941 22.1221 -52.7041c0 -13.3467 -2.82617 -33.9258 -22.127 -53.2266c-9.05859 -9.05859 -26.3047 -23.3242 -55.7471 -23.3242zM732.173 275.632c-12.001 21.2998 -70.3857 123.931 -224.173 123.931
c-92.4844 0 -150.488 -36.9814 -184.922 -71.4141c-14.665 -14.665 -27.3184 -30.7285 -39.7402 -52.5146c10.9873 -19.2646 23.2256 -35.8643 38.6152 -51.2539c57.1113 -57.1113 127.332 -72.3799 186.047 -72.3799c28.2334 0 115.205 1.79883 185.638 72.2314
c20.1445 20.1445 32.2031 40.1221 38.5352 51.4004zM463.208 364.561c-9.20312 -3.46094 -23.6123 -12.5781 -29.2178 -18.1836c-7.48828 -7.48828 -7.48828 -7.48828 -9.20117 -10.3457c-1.43555 -2.39648 -1.74707 -2.69727 -3.62012 -4.3877
c-2.63477 -2.37891 -3.52051 -3.45605 -4.50879 -5.97754c-0.775391 -1.97461 -5.42188 -10.3867 -6.72266 -14.0049c0.172852 -0.849609 0.0507812 -1.69141 -0.176758 -2.28809c-10.5996 -27.7539 -11.1162 -69.4512 22.0928 -102.66
c8.62402 -8.625 17.6143 -14.6504 26.2471 -18.8848l23.7305 -11.6416l-25.8994 5.30566c-47.75 9.7832 -80.7744 31.8291 -102.876 53.9307c-13.1143 13.1152 -22.2295 25.7109 -30.6309 40.209c15.7686 27.3271 50.9219 79.3936 138.984 95.4062z" />
  </g>

</svg>
