<?xml version="1.0" standalone="no"?>
<!DOCTYPE svg PUBLIC "-//W3C//DTD SVG 1.1//EN" "http://www.w3.org/Graphics/SVG/1.1/DTD/svg11.dtd" >
<svg xmlns="http://www.w3.org/2000/svg" xmlns:xlink="http://www.w3.org/1999/xlink" version="1.1" viewBox="-10 0 788 1000">
  <g transform="matrix(1 0 0 -1 0 800)">
   <path fill="currentColor"
d="M339.993 -162.333c-6.48633 0 -11.833 5.2793 -11.833 11.833v240.084c0 6.50684 5.29688 11.833 11.877 11.833c0 0 65.7803 -0.266602 77.9971 -0.31543l52.0459 47.0879c3.43555 -26.9775 3.43555 -26.9775 4.76465 -51.5605l164.489 3.58496
c6.35254 0 11.666 -5.28613 11.666 -11.8369v-67.377l47.4023 -55.1924c-43.6182 2.40039 -43.6182 2.40039 -48.8213 3.14355l1.41992 -120.739c0 -6.43457 -5.30762 -11.752 -11.8779 -11.752zM619.486 -131.826l3.04492 98.2959
c-5.18848 -0.797852 -10.376 -1.5957 -15.5645 -2.39453l-36.374 4.82227l48.7402 53.4541v46.2783l-142.78 1.83496c-0.43457 -15.876 -0.43457 -15.876 -2.12695 -48.8555l-56.7363 47.8438l-57.8594 0.248047v-200.412zM50.3545 720.521h55.5146l17.1611 52.2256
l17.1602 -52.2256h55.5156l-44.8672 -32.2959l17.1611 -52.2246l-44.9697 32.2959l-44.9707 -32.2959l17.1611 52.2246zM478.577 217.616c-21.2744 0 -47.4902 10.8994 -62.2715 25.6221c-29.1074 29.1992 -33.9111 74.5156 -13.8213 115.048
c6.60547 13.2988 14.2773 26.0098 21.6377 38.2207c3.93359 6.44336 7.76465 12.8037 11.3896 19.2285l26.4316 46.2979l1.1709 2.2627c4.87598 9.54297 7.63086 18.3213 17.3369 18.3213h1.58301c0.969727 0 2.06738 -0.240234 2.85645 -0.56543
c6.76465 -2.78613 8.83496 -9.0166 11.0527 -13.9111l0.56543 -1.26562c0.0439453 -0.0722656 0.124023 -0.209961 0.124023 -0.210938l41.0742 -72.0654c2.74512 -4.78613 5.98535 -9.83301 9.00879 -14.6055c6.14355 -8.97754 14.3574 -23.832 18.8145 -34.1328
c1.15918 -2.83203 2.0957 -5.56641 2.87402 -8.31934c2.22754 -7.48242 3.85156 -18.583 3.85156 -26.4775c0 -42.8604 -33.7217 -83.418 -75.6367 -91.2949c-4.96582 -1.09766 -12.7246 -2.03125 -18.042 -2.15234zM480.626 447.314l-24.8252 -43.3262
c-3.80078 -6.67285 -7.79297 -13.2969 -11.7803 -19.7754c-7.2041 -11.9238 -14.6465 -24.2725 -20.6758 -36.4111c-16.2197 -32.9092 -11.9014 -67.1172 9.30762 -88.0303c10.0186 -9.94922 31.7959 -18.9268 45.9199 -18.9268c3.42383 0 9.85645 0.655273 13.3584 1.38379
c31.3906 5.71875 57.2031 36.7158 57.2031 68.4736c0 5.38184 -1.49512 15.3408 -3.12207 20.6104c-0.628906 2.2002 -1.34766 4.28613 -2.06543 6.08008c-3.62891 8.33887 -11.4062 22.4346 -16.752 30.2529c-3.40332 5.32422 -6.56543 10.2568 -9.74219 15.7285z
M590.367 765.45l-109.167 -110.25l118.8 -109.2l-15.4658 -12.8828l-118.934 109.483l-107.566 -109.483l-11.2334 12.2832l106.199 108l-104.399 108.6l13.7998 13.2002l105.6 -105l110.4 105.6z" />
  </g>

</svg>
