<?xml version="1.0" standalone="no"?>
<!DOCTYPE svg PUBLIC "-//W3C//DTD SVG 1.1//EN" "http://www.w3.org/Graphics/SVG/1.1/DTD/svg11.dtd" >
<svg xmlns="http://www.w3.org/2000/svg" xmlns:xlink="http://www.w3.org/1999/xlink" version="1.1" viewBox="-10 0 760 1000">
  <g transform="matrix(1 0 0 -1 0 800)">
   <path fill="currentColor"
d="M519.71 -86.552c-204.043 0 -387.312 158.249 -392.133 378.075c0 0.0189303 -0.00451312 0.074688 -0.00451312 0.247054c-0.00968844 1.12009 -0.0145226 2.2392 -0.0145226 3.3573c0 209.117 169.16 383.516 376.817 391.254
c0.0995996 0.00585395 0.300976 0.015656 0.604537 0.0154653c42.2359 -0.0265355 72.3919 -5.08787 84.3291 -7.46068c14.9671 -2.96092 30.5344 -17.86 30.5344 -36.5065c0 -12.9408 -7.20661 -24.767 -13.2971 -29.6628
c-84.5487 -69.3544 -153.327 -214.059 -153.327 -324.083c0 -99.7946 58.424 -235.559 130.691 -304.11c3.29758 -3.12805 12.9432 -14.6492 12.9432 -30.319c0 -21.655 -16.7322 -36.1002 -31.5379 -38.1651c-0.0172639 0 -0.0345278 -0.00484112 -0.0517917 -0.00484112
c-0.00942975 0 -0.0188595 -0.00328247 -0.0282893 -0.00328247c-15.2441 -1.7688 -30.4404 -2.63388 -45.5251 -2.63388zM516.666 718.153c-231.399 0 -419.166 -187.801 -419.166 -419.166c0 -226.514 191.543 -418.123 418.455 -418.123
c17.7136 0 35.6398 1.16787 53.7039 3.57734c0.0971204 0.013768 0.196168 0.025609 0.297487 0.0351784c36.4619 3.76202 60.1249 37.4274 60.1249 71.433c0 17.7733 -6.44803 36.4987 -22.1915 51.1963c-67.1162 62.4754 -121.391 187.763 -121.391 279.894
c0 1.36251 -0.00709434 2.40629 -0.00709434 3.14369l-0.30909 0.612115l0.049672 2.49579c1.99176 100.077 64.8421 230.797 142.081 293.416c9.49007 7.70041 24.5515 24.2936 24.5515 52.0468c0 32.1746 -21.3811 64.3813 -54.9886 71.4955
c-22.4809 4.42835 -79.0092 7.72761 -81.2107 7.94292z" />
  </g>

</svg>
