<?xml version="1.0" standalone="no"?>
<!DOCTYPE svg PUBLIC "-//W3C//DTD SVG 1.1//EN" "http://www.w3.org/Graphics/SVG/1.1/DTD/svg11.dtd" >
<svg xmlns="http://www.w3.org/2000/svg" xmlns:xlink="http://www.w3.org/1999/xlink" version="1.1" viewBox="-10 0 778 1000">
  <g transform="matrix(1 0 0 -1 0 800)">
   <path fill="currentColor"
d="M445.645 667.868l-104.926 117.555l-102.654 -120.078l18.8432 -16.386l75.3693 91.1045l-2.67163 -249.513l28.2864 -1.28593l-4.52446 255.031l77.2958 -90.758zM336.517 257.965l93.4023 177.713l26.1079 -10.572l-118.12 -217.906l-121.636 220.199l17.343 7.32612z
M212.492 16.4305h64.376v-64.5289h-64.376v-30.0296h64.376v-56.208h24.5609v56.208h66.443v-60.3096h24.5619v60.3096h68.8193v30.0296h-68.8193v64.5289h68.8193v30.0296h-68.8193v52.0898h-24.5619v-52.0898h-66.443v56.1914h-24.5609v-56.1914h-64.376v-30.0296z
M301.429 -48.0985v64.5289h66.443v-64.5289h-66.443z" />
  </g>

</svg>
