<?xml version="1.0" standalone="no"?>
<!DOCTYPE svg PUBLIC "-//W3C//DTD SVG 1.1//EN" "http://www.w3.org/Graphics/SVG/1.1/DTD/svg11.dtd" >
<svg xmlns="http://www.w3.org/2000/svg" xmlns:xlink="http://www.w3.org/1999/xlink" version="1.1" viewBox="-10 0 1020 1000">
  <g transform="matrix(1 0 0 -1 0 800)">
   <path fill="currentColor"
d="M654.847 622.881l13.4443 -11.2803l-122.851 -140.4l-13.4443 11.2812zM647.511 456.257c0.116211 0.000976562 0.222656 0 0.224609 0c2.79492 0 3.74023 4.24609 3.74023 5.7041c0 1.00098 -0.446289 3.37207 -1.25488 6.74316
c-1.56738 6.22656 -3.10254 12.4648 -4.60645 18.7148c-5.8916 23.7314 -11.7217 30.8799 -20.4639 30.8799c-10.6289 0 -15.5986 -11.6182 -20.6875 -31.9971c-4.17871 -17.1914 -4.68262 -18.9893 -4.84766 -19.5156
c-0.416016 -1.75391 -0.790039 -3.48926 -0.790039 -4.83301c0 -1.72461 1.07031 -5.36621 3.13965 -5.61719c0.662109 -0.0644531 1.32129 -0.109375 1.97363 -0.131836l13.5908 0.0205078l27.29 -0.0205078l2.63184 0.0527344h0.0595703zM590.115 462.105
c0 2.40723 0.134766 2.91602 2.87988 13.6982c5.4248 22.3281 7.42578 30.8145 13.1104 39.5762c1.93555 2.88477 7.81543 10.8984 18.9346 10.8984c19.0488 0 24.9805 -20.8096 28.9648 -36.6826c6.08301 -24.9854 6.18652 -25.085 6.18652 -27.7012
c0 -6.33789 -4.4873 -12.6729 -10.4316 -13.4121c-1.19238 -0.15918 -2.39258 -0.238281 -3.59473 -0.238281c-0.114258 0 -0.228516 0.00195312 -0.342773 0.00195312l-42.0996 -0.0175781c-0.0419922 0.000976563 -0.0839844 0.00292969 -0.125977 0.00488281
c-2.78418 0.118164 -6.69043 0.3125 -9.95117 4.12988c-2.36621 2.76855 -3.53027 6.19727 -3.53027 9.74219zM566.646 558.982c0.117188 0.000976563 0.223633 0 0.225586 0c2.79492 0 3.74023 4.24512 3.74023 5.70312c0 1.00195 -0.446289 3.37305 -1.25488 6.74414
c-1.56738 6.22656 -3.10254 12.4648 -4.60645 18.7148c-5.8916 23.7314 -11.7217 30.8799 -20.4639 30.8799c-10.6299 0 -15.5986 -11.6182 -20.6875 -31.998c-4.17871 -17.1914 -4.68359 -18.9883 -4.84863 -19.5146
c-0.415039 -1.75391 -0.789062 -3.48926 -0.789062 -4.83301c0 -1.72461 1.07031 -5.36621 3.13867 -5.61719c0.663086 -0.0644531 1.32129 -0.109375 1.97461 -0.131836l13.5908 0.0205078l27.2891 -0.0205078l2.63184 0.0527344h0.0595703zM509.252 564.831
c0 2.40723 0.134766 2.91602 2.87988 13.6982c5.42383 22.3271 7.42578 30.8145 13.1104 39.5762c1.93457 2.88477 7.81543 10.8984 18.9336 10.8984c19.0498 0 24.9814 -20.8096 28.9658 -36.6826c6.08301 -24.9854 6.18652 -25.085 6.18652 -27.7012
c0 -6.33789 -4.48828 -12.6729 -10.4326 -13.4131c-1.19141 -0.158203 -2.3916 -0.237305 -3.59473 -0.237305c-0.114258 0 -0.227539 0.00195313 -0.341797 0.00195313l-42.1006 -0.0185547c-0.0410156 0.00195312 -0.0839844 0.00390625 -0.125977 0.00585938
c-2.78418 0.117188 -6.68945 0.3125 -9.9502 4.12891c-2.36621 2.76953 -3.53027 6.19727 -3.53027 9.74316zM717.489 700.032c20.8389 0 51.7129 -11.3535 68.4229 -26.2471l0.151367 -0.162109c14.4932 -15.4561 26.4609 -45.5547 26.4609 -66.6553
c0 -2.12402 -0.125 -4.94434 -0.160156 -5.7373c0 -0.0341797 -0.00390625 -0.0644531 -0.00390625 -0.0888672c-0.0205078 -17.708 -5.17578 -53.5322 -49.9551 -96.9453c-86.2324 -83.6025 -133.474 -129.026 -142.843 -137.539
c-1.2373 -1.12402 -1.02246 -1.3877 -2.80566 -2.07324l-1.86426 -0.782227c-2.61035 1.15039 -2.85449 1.25781 -3.63477 2.09766c-11.3447 12.1963 -145.047 139.768 -146.485 141.206c-15.2676 15.2686 -28.2949 35.502 -30.2441 38.8545
c-3.89941 6.75391 -9.10352 18.5605 -11.458 25.9932c-3.95703 12.4834 -5.15527 24.5361 -5.20703 34.4756l-0.00488281 0.856445c2.34277 6.60742 6.35156 24.6895 13.2334 42.5254c1.64453 4.2627 7.49805 18.7266 13.0312 23.7129
c16.0977 14.5029 47.1016 26.4766 68.6758 26.4766c10.127 0 20.1982 -1.44434 31.8525 -5.29102c19.1924 -6.33398 42.9736 -21.9951 64.9688 -43.9902c3.92285 -3.92285 4.47363 -4.24121 4.94531 -4.24121c0.0917969 0 0.180664 0.0117188 0.289062 0.0117188
c0.9375 0 0.9375 0 9.74902 8.8125c4.15625 4.15625 31.2285 30.4404 60.6172 40.126c12.7627 4.3457 28.2256 4.60449 32.2686 4.60449zM830.893 606.472v0.241211c0 29.7617 -17.0811 65.5264 -32.8076 81.252c-10.4707 10.4717 -47.7451 31.1016 -80.9551 31.1016
c-19.6914 0 -33.9092 -4.37891 -38.7969 -6.12402c-8.90137 -2.9834 -21.9414 -9.31543 -29.7744 -14.46c0.00976562 0.00683594 0.0205078 0.0126953 0.0292969 0.0195312c-0.00878906 -0.00683594 -0.0195312 -0.0126953 -0.0566406 -0.0380859
c0.00976562 0.00683594 0.0185547 0.0126953 0.0273438 0.0185547v0c-13.2754 -9 -20.3164 -13.7744 -34.3965 -26.2891c-48.79 43.6523 -79.54 46.3037 -102.296 46.3037c-30.5967 0 -68 -18.1172 -82.0986 -32.2158c-10.3965 -10.3975 -30.96 -46.376 -30.96 -79.084
c0 -20.04 3.06152 -33.5381 5.5625 -41.2812c2.77344 -8.74121 8.56152 -21.8389 13.1562 -29.7793c1.27051 -2.19727 3.34668 -5.08789 14.3438 -19.7646l0.114258 -0.951172c-0.0107422 0.0419922 -0.0429688 0.0693359 -0.0429688 0.0693359
c0.00488281 -0.0146484 0.0205078 -0.0458984 0.0458984 -0.0927734c3.25977 -6.02344 17.0225 -20.1201 22.0234 -24.9629l143.949 -139.398c1.39746 -1.35352 7.51562 -7.00195 16.3164 -7.00195c5.02148 0 10.915 1.83887 17.3037 7.3623
c1.2793 1.10547 11.4219 9.87207 143.473 138.816c55.7529 54.4395 55.8398 96.582 55.8398 116.259zM101.901 -39.542h55.5146l17.1611 52.2256l17.1602 -52.2256h55.5156l-44.8672 -32.2959l17.1611 -52.2246l-44.9697 32.2959l-44.9707 -32.2959l17.1611 52.2246z
M798.927 -117.129c6.11719 0 11.084 4.96484 11.084 10.9424l-1.82715 155.256c10.2227 -1.46191 10.2227 -1.46191 56.2402 -4.02051l-54.415 63.3584v85.6113c0 6.10449 -4.94043 11.0078 -10.7578 11.0479l-209.235 -4.55957
c-0.619141 11.4414 -1.2373 22.8818 -1.85547 34.3232c-1.03223 8.33691 -2.02832 16.0527 -3.3584 26.3584l-60.8125 -55.0195l-2.90918 0.0117188s-96.0098 0.388672 -96.041 0.388672c-6.10547 0 -11.082 -4.94824 -11.082 -11.042v-300.105
c0 -6.08105 4.96582 -11.042 11.042 -11.042zM446.046 -83.5742v258.014l77.4521 -0.332031l66.1826 -55.8115c1.47754 28.9033 1.47754 28.9033 2.38867 57.1279l185.854 -2.3877v-63.0039l-57.0684 -62.5879l37.8213 -5.01465
c7.79492 1.19922 15.5889 2.39844 23.3828 3.59668l-4.05859 -131.026z" />
  </g>

</svg>
