<?xml version="1.0" standalone="no"?>
<!DOCTYPE svg PUBLIC "-//W3C//DTD SVG 1.1//EN" "http://www.w3.org/Graphics/SVG/1.1/DTD/svg11.dtd" >
<svg xmlns="http://www.w3.org/2000/svg" xmlns:xlink="http://www.w3.org/1999/xlink" version="1.1" viewBox="-10 0 1010 1000">
  <g transform="matrix(1 0 0 -1 0 800)">
   <path fill="currentColor"
d="M134.221 -61.2959zM340.548 -55.9424v263.013l80.8701 -0.34668l63.0251 -53.1485c1.23064 24.1913 1.23064 24.1913 2.20835 54.5l190.772 -2.45117v-66.4404l-54.499 -59.7695l32.7266 -4.33887l26 4l-4.22754 -136.465zM695.938 -84.5088
c4.71561 0 8.54759 3.82766 8.57399 8.39457l-1.86111 158.189c12.9088 -1.84411 12.9088 -1.84411 53.0537 -4.0831l-51.1944 59.6085v86.5381c0 4.71977 -3.8161 8.4982 -8.24219 8.54782l-211.617 -4.6113c-2.01115 37.2063 -2.01115 37.2063 -4.71543 58.173
l-57.9857 -52.4621l-3.87834 0.0156927s-96.0008 0.388525 -96.0416 0.388607c-4.71785 0 -8.57227 -3.83432 -8.57227 -8.54297v-300.105c0 -4.69954 3.84858 -8.54199 8.54199 -8.54199c0 0 373.898 -1.50871 373.938 -1.50879zM29.3242 18.2246h55.5146l17.1611 52.2256
l17.1602 -52.2256h55.5156l-44.8672 -32.2959l17.1611 -52.2246l-44.9697 32.2959l-44.9707 -32.2959l17.1611 52.2246zM541.008 723.471c2.24316 -34.3848 -14.2021 -131.56 -4.48438 -136.793c9.71777 -100.912 106.893 -195.845 106.893 -192.107l-16.4453 -11.2119
c-37.375 40.3652 -79.2344 81.4775 -110.629 191.36c-6.72852 -48.5879 -37.375 -103.155 -64.2861 -137.541c-16.4443 -20.9287 -23.9199 -38.1211 -38.123 -53.8193l-18.6875 14.9502c21.6787 27.6572 32.8906 45.5977 47.0928 64.2852
c71.7607 94.1846 75.498 218.27 74.75 284.05c6.72852 0 12.708 -0.748047 19.4355 -0.748047c3.7373 0 4.48438 -3.7373 4.48438 -5.23242c0 0 -0.74707 -8.22266 0 -17.1924zM708.448 742.906l-139.035 -157.723l17.9404 -14.2021l118.853 138.287
c9.71777 -16.4443 23.9199 -35.8799 28.4053 -48.5869l33.6377 47.0918zM185.423 567.682l-61.4609 111.264l17.958 7.58594l43.6826 -75.0361l39.8438 75.8105l20.3535 -8.24316zM123.444 444.044v25.9121h28.874v16.499h-28.874v25.9111h28.874v25.2021h23.459v-25.2021
h17.3584v23.3623h23.458v-23.3623h30.8643v-25.9111h-30.8643v-16.499h30.8643v-25.9121h-30.8643v-27.0479h-23.458v27.0479h-17.3584v-25.209h-23.459v25.209h-28.874zM175.777 469.956h17.3584v16.499h-17.3584v-16.499z" />
  </g>

</svg>
