<?xml version="1.0" standalone="no"?>
<!DOCTYPE svg PUBLIC "-//W3C//DTD SVG 1.1//EN" "http://www.w3.org/Graphics/SVG/1.1/DTD/svg11.dtd" >
<svg xmlns="http://www.w3.org/2000/svg" xmlns:xlink="http://www.w3.org/1999/xlink" version="1.1" viewBox="-10 0 1156 1000">
  <g transform="matrix(1 0 0 -1 0 800)">
   <path fill="currentColor"
d="M120.66 121.891c0 -26.7441 9.58984 -51.8545 28.3311 -70.6553c15.5547 -15.4932 45.4238 -27.832 67.3809 -27.832c4.9873 0 11.6328 0.794922 20 2.375c45.5986 8.60547 82.6035 53.1338 82.6035 99.6436c0 8.27441 -1.85156 20.9863 -4.21191 28.9248
c-5.19336 18.3516 -23.0537 45.626 -24.4307 47.6416c-6.39355 10.0938 -8.02832 12.6895 -10.7363 17.4082c-16.2188 28.5312 -32.4639 57.0371 -48.666 85.584c-4.49902 10.1855 -6.37793 12.0508 -9.88086 13.5879c-3.80078 0 -5.04297 -0.0322266 -7.15137 -2.14062
c-1.30273 -1.30273 -1.37793 -1.48633 -3.67676 -5.79199c-1.34961 -2.52832 -32.2266 -58.7646 -47.9932 -84.1504c-3.01758 -4.85938 -18.4951 -29.8467 -28.0508 -49.083c-9.05859 -18.2754 -13.5176 -37.2734 -13.5176 -55.5117zM216.678 36.5
c-17.8115 0 -44.5391 10.1475 -58.9082 24.5156c-15.8291 15.8291 -23.9922 37.2695 -23.9922 60.4414c0 16.2324 4.00586 33.3154 12.1875 49.915c7.24902 14.5938 15.9658 29.0293 24.4238 43.0293c7.56445 12.292 7.53223 12.2363 44.5547 76.8506
c0.0751953 0.142578 0.0751953 0.142578 3.89355 7.56641l49.2695 -85.5449c2.05566 -3.54102 3.90918 -6.67285 11.1367 -17.9756c6.51855 -9.54199 15.5234 -25.835 20.127 -36.3662c0.0761719 -0.19043 0.160156 -0.37207 0.240234 -0.558594v-0.046875
c4.63867 -11.874 6.38965 -25.6738 6.38965 -33.3262c0 -40.5234 -32.4297 -79.4736 -72.376 -86.752c-8.68066 -1.58203 -14.6543 -1.74805 -16.9463 -1.74805zM11.5039 -66.9844h42.7031l13.2012 40.1738l13.2002 -40.1738h42.7041l-34.5127 -24.8428l13.2002 -40.1729
l-34.5918 24.8428l-34.5928 -24.8428l13.2012 40.1729zM729.406 46.0518l26.5059 68.2842c62.9561 -102.438 62.4795 -142.953 90.0215 -184.836h87.0664v-43.5h-520.5v43.5h61.75l71.8213 190.713c20.3232 -33.0684 34.0498 -59.7168 44.2461 -82.0459l69.8027 168.227
c31.5908 -51.4033 52.543 -109.279 69.2861 -160.342zM903.719 236.651c0.222988 0 12.3661 0.435673 22.2945 0.435673c15.9215 0 52.7625 -1.95441 53.2958 -1.95441c0.660253 0 1.28064 0.00857516 1.86053 0.0267693h0.217647
c23.5576 0.0601658 50.9516 11.5801 65.716 26.3445c17.1199 17.1199 46.0034 63.8717 46.0034 109.633c0 45.0182 -21.6485 75.3227 -38.6596 92.3338c-5.07321 5.07321 -10.4385 9.50424 -16.0241 13.0995c-11.0458 7.11056 -36.8249 20.2978 -81.1713 24.7834
c0.946952 24.3073 3.37939 86.7455 34.1534 117.52c5.40327 5.39944 14.5646 10.7406 24.4285 14.4424c8.99142 3.37523 13.4342 4.4107 25.5889 4.4107c2.77165 0 5.9443 -0.0538431 9.66334 -0.146064v36.4364c-12.0404 0.335566 -12.0404 0.335566 -13.165 0.335566
c-28.1574 0 -57.1623 -14.5839 -72.249 -29.6706c-37.3769 -37.3769 -43.8834 -98.7335 -44.8303 -139.23l-0.144275 -6.17031c-18.9589 -3.25438 -62.9564 -10.8067 -97.8862 -45.7365c-13.8609 -13.8609 -37.2895 -43.9132 -37.2895 -88.6854
c0 -31.7751 15.8122 -71.4293 39.437 -95.0541c21.0697 -21.0697 56.1703 -33.1541 78.7602 -33.1541zM822.456 363.595c0 78.3257 85.6738 101.196 124.283 101.196c25.916 0 63.1013 -13.1611 72.7262 -19.5159c17.1371 -11.3147 37.3809 -41.0046 37.3809 -69.4083
c0 -42.2173 -22.5285 -73.577 -31.9969 -84.8867c0.765447 -0.804917 1.61129 -1.69815 2.54994 -2.6894l-10.8488 -10.3587l-3.02466 3.13671c-7.27735 -4.50027 -19.1192 -9.92579 -32.8348 -9.92579c-1.90287 0 -3.8418 0.10443 -5.80962 0.33025
c-14.6777 1.68569 -28.757 1.73301 -66.1735 1.73301c-0.556899 0 -1.11897 -1.0483e-05 -1.68629 -2.6202e-05h-2.92804c-16.3843 0 -41.6588 10.5421 -53.4469 22.329c-15.4778 15.4778 -28.1903 47.6881 -28.1903 68.0601zM388.74 561.688l43.3079 54.4661
l41.8751 -57.2849l33.9113 15.0735l-12.819 -30.1928l-10.0682 0.0382719l0.000127372 -0.000174245l-4.25513 0.0163487l-40.316 0.153252l0.00367204 0.00163222l-72.52 0.278629l-14.3359 32.9208zM536.162 514.197l-7.15099 -5.23556l1.65003 5.23556h5.50096z
M434 375.504c141.94 0 255.898 91.083 255.898 203.698c0 112.617 -113.959 203.699 -255.898 203.699c-141.94 0 -255.898 -91.0834 -255.898 -203.699c0 -112.616 113.959 -203.698 255.898 -203.698zM434 746.304c119.731 0 217.502 -75.7983 217.502 -168.902
c0 -93.0987 -97.7671 -168.901 -217.502 -168.901c-119.732 0 -217.502 75.7978 -217.502 168.901c0 93.0997 97.7671 168.902 217.502 168.902zM1051.09 674.016v7.29248l7.28803 -7.4956zM1051.09 637.58c2.34578 -0.0581683 4.90893 -0.131605 7.72594 -0.216429
l-7.72594 -7.49511v7.71154zM1013.52 281.068l-9.64124 9.99842c7.675 7.24861 7.675 7.24861 10.6679 7.24861c3.02201 0 3.32082 -7.33567 10.2968 -7.33567c-2.31241 -2.76209 -3.84585 -4.32829 -4.0819 -4.5647
c-0.961088 -0.960526 -3.49712 -3.03112 -7.24157 -5.34666zM440.38 543.959l33.5432 14.9099l11.0241 -15.081l-4.255 0.0161744zM292.115 635.785l-16.6867 7.29577l9.9813 9.63871zM292.115 635.785l48.144 -121.588h190.402l37.9361 120.372l-80.1037 -34.8269
l-56.8939 70.661l-57.06 -70.6553zM431.6 670.403l-5.83827 7.25101l11.6871 -0.00855882zM568.597 634.568l4.94902 15.7033l10.1464 -9.14022zM340.259 514.197l1.87326 -4.73094l-6.97184 4.73094h5.09858z" />
  </g>

</svg>
