<?xml version="1.0" standalone="no"?>
<!DOCTYPE svg PUBLIC "-//W3C//DTD SVG 1.1//EN" "http://www.w3.org/Graphics/SVG/1.1/DTD/svg11.dtd" >
<svg xmlns="http://www.w3.org/2000/svg" xmlns:xlink="http://www.w3.org/1999/xlink" version="1.1" viewBox="-10 0 1002 1000">
  <g transform="matrix(1 0 0 -1 0 800)">
   <path fill="currentColor"
d="M679.201 492.432zM352.051 712.527zM290.957 600.054zM529 453zM528.57 439.34zM346.691 490.127zM451.545 457.14zM737.556 625.484zM290.957 600.054zM737.556 625.484zM592.691 769.884c-23.0625 0 -42.5859 -8.96973 -52.4883 -18.8721
c-3.76953 -3.76855 -2.80566 -3.96387 -4.36426 -4.53223c-7.00098 -2.55273 -13.8613 -3.47559 -20.124 -3.47559c-5.91016 0 -16.6523 0.871094 -28.2793 6.09668c-7.90332 9.61914 -21.2676 18.373 -43.7363 18.373c-33.7344 0 -72.2012 -20.8799 -85.5801 -52.1641
l-0.660156 -1.5459h-2.32715l-60.9482 -82.8115h-2.91504v-3.95996c-0.395508 -0.536133 -0.790039 -1.07324 -1.18652 -1.60938h0.637695l-6.75 -25.3125l-0.758789 0.0117188c-0.136719 -2.5918 -0.379883 -4.08203 -1.19922 -7.30371h0.983398
c-0.0234375 -2.86133 -0.0234375 -2.86133 -0.0234375 -3.15234c0 -18.5049 7.98535 -55.957 61.209 -99.9756c56.2139 -46.4941 119.784 -51.6201 172.486 -51.6201c86.3789 0 121.594 10.8242 173.282 51.6689c63.1426 49.8936 64.207 64.584 65.9453 101.052
l-1.76758 0.0283203c-0.108398 0.405273 -7.86426 32.0518 -10.6133 40.5723l-45.1289 77.1172c-5.08594 5.30664 -5.08594 5.30664 -5.59961 6.1875h-0.334961c-15.8672 16.2383 -49.127 46.626 -81.6035 53.3594c-6.21387 1.28906 -12.2988 1.86816 -18.1553 1.86816z
M442.817 747.581c4.85645 0 15.6445 0 27.9473 -8.46582l-0.09375 -1.17383c0.708984 -0.291016 1.84668 -0.826172 2.95312 -1.87695c10.4238 -9.90527 26.4443 -14.5557 41.6543 -14.5557c14.1689 0 27.6328 4.03516 35.2139 11.6172
c1.47461 1.47559 3.85645 3.85645 5.69727 9.40137c7.81152 5.33105 20.2197 11.1465 37.1553 11.1465c22.4736 0 32.9814 -9.78809 41.0371 -17.29c6.2627 -5.83105 14.5078 -13.5283 32.2402 -25.2627c0.677734 -0.147461 1.23535 -0.472656 1.68066 -0.978516
l0.388672 0.015625l50.7168 -79.9932c0 -0.135742 -0.00390625 -0.273438 -0.00390625 -0.410156c3.6377 -13.6279 6.95898 -27.5723 10.4609 -41.335c1.22461 -4.88965 1.91113 -9.42383 1.91113 -13.8135c0 -21.0596 -15.667 -38.1221 -60.8018 -75.0059
c-41.5918 -33.9854 -71.709 -45.6436 -162.479 -45.6436c-49.1387 0 -88.7471 6.03613 -135.006 38.418c-57.0234 39.916 -64.6904 69.3115 -64.6904 95.4902c0 1.72656 0.03125 3.42773 0.0791016 5.10156c2.8457 11.293 5.9375 22.3398 8.87402 33.5381l55.5752 78.6797
c0.787109 -0.303711 1.57422 -0.606445 2.3623 -0.90918c1.87207 4.40723 5.05957 11.918 13.7109 20.5684c13.9385 13.9385 34.5674 22.7373 53.416 22.7373zM538.323 427.963zM682.406 36.0518l26.5059 68.2842c62.9561 -102.438 62.4795 -142.953 90.0215 -184.836
h87.0664v-43.5h-520.5v43.5h61.75l71.8213 190.713c20.3232 -33.0684 34.0498 -59.7168 44.2461 -82.0459l69.8027 168.227c31.5908 -51.4033 52.543 -109.279 69.2861 -160.342zM57.5039 -16.9844h42.7031l13.2012 40.1738l13.2002 -40.1738h42.7041l-34.5127 -24.8428
l13.2002 -40.1729l-34.5918 24.8428l-34.5928 -24.8428l13.2012 40.1729zM501.436 527.889c-0.0986328 0 -0.147461 6.06738 -0.147461 7.80176c0 10.21 1.54199 18.9961 4.4248 26.4404c2.16406 5.58594 5.63184 11.2402 10.4727 16.9043
c3.53906 4.14062 9.88867 10.1553 19.0273 18.0596c9.24414 7.99414 15.2432 14.3525 17.9961 19.0713c2.75293 4.7207 4.12988 9.87305 4.12988 15.46c0 10.1133 -4.0791 18.9248 -12.0947 26.584c-8.06543 7.70605 -17.9473 11.5596 -29.6484 11.5596
c-11.3096 0 -20.748 -3.46875 -28.3203 -10.4033c-7.57227 -6.93555 -12.5371 -17.7725 -14.8975 -32.5088l-27.2871 3.17871c2.45801 19.7471 9.69238 34.917 21.8291 45.3672c12.1934 10.499 28.2715 15.749 48.2334 15.749c21.1426 0 38.0059 -5.63574 50.5928 -16.9053
c12.5859 -11.2695 18.8799 -24.8984 18.8799 -40.8867c0 -9.24707 -2.21191 -17.7725 -6.6377 -25.5742c-4.42578 -7.80176 -13.083 -17.2842 -25.959 -28.4619c-8.6543 -7.51367 -14.3086 -13.0527 -16.9629 -16.6152
c-2.65625 -3.56445 -4.62207 -7.6582 -5.90039 -12.2803c-1.27832 -4.62402 -2.0166 -22.54 -2.21387 -22.54h-25.5166zM499.812 475.73v29.6182h30.2383v-29.6182h-30.2383zM107.278 631.241z" />
  </g>

</svg>
