<?xml version="1.0" standalone="no"?>
<!DOCTYPE svg PUBLIC "-//W3C//DTD SVG 1.1//EN" "http://www.w3.org/Graphics/SVG/1.1/DTD/svg11.dtd" >
<svg xmlns="http://www.w3.org/2000/svg" xmlns:xlink="http://www.w3.org/1999/xlink" version="1.1" viewBox="-10 0 1002 1000">
  <g transform="matrix(1 0 0 -1 0 800)">
   <path fill="currentColor"
d="M682.406 36.0518l26.5059 68.2842c62.9561 -102.438 62.4795 -142.953 90.0215 -184.836h87.0664v-43.5h-520.5v43.5h61.75l71.8213 190.713c20.3232 -33.0684 34.0498 -59.7168 44.2461 -82.0459l69.8027 168.227c31.5908 -51.4033 52.543 -109.279 69.2861 -160.342z
M57.5039 -16.9844h42.7031l13.2012 40.1738l13.2002 -40.1738h42.7041l-34.5127 -24.8428l13.2002 -40.1729l-34.5918 24.8428l-34.5928 -24.8428l13.2012 40.1729zM702.498 34.7456zM504 476l-137.625 135.169l26.214 27.032l110.592 -101.58l196.608 249.037l29.49 -20.48
z" />
  </g>

</svg>
