<?xml version="1.0" standalone="no"?>
<!DOCTYPE svg PUBLIC "-//W3C//DTD SVG 1.1//EN" "http://www.w3.org/Graphics/SVG/1.1/DTD/svg11.dtd" >
<svg xmlns="http://www.w3.org/2000/svg" xmlns:xlink="http://www.w3.org/1999/xlink" version="1.1" viewBox="-10 0 1020 1000">
  <g transform="matrix(1 0 0 -1 0 800)">
   <path fill="currentColor"
d="M135.8 665.989l-0.899414 17.0996l251.399 1.2002l-0.5 -18.2998h-250zM135.8 569.322l-1.5 19.5664l251.4 -1.19922l0.0996094 -18.3672h-250zM243.13 263.753c-10.9941 7.16699 -24.5996 16.0293 -30.2344 19.6943c-5.63477 3.66504 -12.1006 7.91992 -14.3691 9.45508
l-4.12402 2.79102l-11.4023 34.3066l-11.4023 34.3066l3.79297 37.8379c2.08594 20.8105 4.01855 38.2021 4.29395 38.6484c0.275391 0.445312 15.0098 7.96875 32.7422 16.7178l32.2422 15.9082l8.38867 0.886719c4.61426 0.487305 14.001 1.48828 20.8613 2.22461
c25.6396 2.75293 19.8779 3.81836 46.7695 -8.64746l23.6074 -10.9443l18.04 -28.8184c9.92188 -15.8496 -3.13379 -48.2764 -3.13379 -49.2266c0 -0.950195 42.333 -32.3682 36 -52.7998c-6.33301 -20.4336 -20.9297 -45.4512 -23.1992 -52.8008
s-20.0557 -5.63672 -20.8008 -7.19922c-1.0459 -2.19727 -1.04395 -1.14844 -34.3994 3.19922c-10.1533 1.32422 -20.9473 -4.13184 -24.6221 -5.8584c-12.8711 -6.04883 -27.7627 -12.7109 -28.4082 -12.7109c-0.358398 0 -9.64746 5.86328 -20.6426 13.0293z
M899.613 450.184l-0.0107422 -0.413086c0.00488281 0.137695 0.0107422 0.275391 0.0107422 0.413086zM826.56 682.297l0.101562 -0.120117c-0.0332031 0.0400391 -0.101562 0.120117 -0.101562 0.120117zM724.779 672.937l0.106445 0.161133
c-0.0175781 -0.0263672 -0.0351562 -0.0537109 -0.106445 -0.161133zM658.97 457.834l0.0292969 0.191406c-0.00976563 -0.0644531 -0.0292969 -0.12793 -0.0292969 -0.191406zM665.098 433.062l-0.137695 0.149414zM670.526 428.942l-0.676758 0.201172
c0.226562 -0.0712891 0.452148 -0.138672 0.676758 -0.201172zM673.859 428.322l-0.143555 0.0136719c0.0263672 0 0.0527344 -0.0136719 0.143555 -0.0136719zM784.688 704.975c-55.3799 5.01758 -78.1494 -54.707 -99.5723 -139.86
c-16.4873 -67.8789 -16.4873 -67.8789 -22.4551 -90.2598l0.0322266 0.131836c-0.0107422 -0.0439453 -0.0322266 -0.131836 -0.0322266 -0.131836c-4.21094 -17.3311 -7.69824 -31.6787 3 -42.376c3.92773 -3.92871 5.37109 -4.19629 16.543 -4.68652
c198.349 0.0859375 198.349 0.0859375 203.843 0.814453c4.74219 0.59082 16.6768 11.6309 12.7158 30.4375c-0.307617 1.55273 -24.6455 107.782 -38.666 153.497c-24.6113 79.3652 -53.9336 90.9482 -75.4082 92.4336zM881.297 386.078
c-15.4131 -0.31543 -197.771 -0.307617 -199.769 -0.243164c-12.0547 0.387695 -28.8174 0.927734 -43.1514 16.8057c-4.18652 4.63867 -23.6533 28.3613 -17.4561 62.29c2.28516 12.5059 5.35645 25.1025 11.0791 46.0693c24.5156 100.855 31.1611 128.193 49.5225 165.82
c15.0205 30.7305 48.1504 77.0049 109.506 69.6689c72.7939 -8.06836 99.9287 -91.6641 119.372 -170c6.83398 -28.4043 13.8115 -56.7539 20.9688 -85.1816c6.27051 -26.1201 12.3398 -51.3984 -3.19531 -77.0996c-7.72656 -12.7832 -22.2266 -28.4004 -46.877 -28.1299z
M35.4766 75.3242h55.5146l17.1611 52.2256l17.1602 -52.2256h55.5156l-44.8672 -32.2959l17.1611 -52.2246l-44.9697 32.2959l-44.9707 -32.2959l17.1611 52.2246zM758.906 178.552l26.5059 68.2842c62.9561 -102.438 62.4795 -142.953 90.0215 -184.836h87.0664v-43.5
h-520.5v43.5h61.75l71.8213 190.713c20.3232 -33.0684 34.0498 -59.7168 44.2461 -82.0459l69.8027 168.227c31.5908 -51.4033 52.543 -109.279 69.2861 -160.342z" />
  </g>

</svg>
