<?xml version="1.0" standalone="no"?>
<!DOCTYPE svg PUBLIC "-//W3C//DTD SVG 1.1//EN" "http://www.w3.org/Graphics/SVG/1.1/DTD/svg11.dtd" >
<svg xmlns="http://www.w3.org/2000/svg" xmlns:xlink="http://www.w3.org/1999/xlink" version="1.1" viewBox="-10 0 941 1000">
  <g transform="matrix(1 0 0 -1 0 800)">
   <path fill="currentColor"
d="M307.047 403.459c-1.38477 0 -2.5 1.125 -2.5 2.49902l2.39746 69.0293c-6.97168 8.34668 -14.124 16.1592 -21.167 23.8516c-31.0508 33.9141 -60.1094 65.7266 -60.2109 129.897c-0.0839844 53.4785 19.3691 80.8379 30.2637 91.9199
c34.4336 33.6602 79.8916 42.1211 103.517 42.1211c2.14941 0 4.86621 1.82227 7.69824 1.68848c69.8291 -3.28516 84.7314 -8.80762 120.31 -39.7539c4.59277 -3.99512 5.92969 -7.25098 6.52637 -10.3252c0.107422 -0.555664 0.167969 -0.772461 0.189453 -0.839844
c16.3027 -18.8115 27.7422 -68.251 28.6289 -82.6299c0.0605469 -0.974609 0.206055 -2.10742 0.375 -3.3877c0.475586 -3.62012 1.10742 -8.40527 0.0527344 -14.4248c-14.5068 -82.8525 -53.9326 -106.696 -58.5684 -119.686
c-0.253906 -0.708008 -0.486328 -0.825195 -0.587891 -0.925781c-1.10547 -1.10547 -10.6836 -5.98926 -18.3789 -9.6084c-0.96582 -2.75098 -0.96582 -2.75098 -1.45508 -3.25977c-0.226562 -0.87207 -0.433594 -2.41406 -0.433594 -2.41406l-1.42773 -70.5146
c-0.0273438 -1.35547 -1.12891 -2.44043 -2.48438 -2.44824zM493.965 713.656l-0.164062 0.143555l-1.51172 -1.97363zM486.945 722.573l-1.6543 0.682617l-1.65625 -4.15137zM378.823 745.36c-40.0908 0 -66.2334 -7.07715 -99.5674 -31.792
c-8.79102 -8.79004 -33.2559 -35.1709 -33.3721 -80.9375c-0.15332 -60.2461 26.1045 -88.6094 40.208 -102.713c7.02734 -7.02832 7.02734 -7.02832 8.19141 -8.7666c2.30078 -3.4375 2.30078 -3.4375 17.2344 -19.625c3.42969 -0.84375 8.67188 -3.00488 13.9893 -8.53223
c2.90723 -3.02148 1.7334 -14.2412 1.19629 -19.374l-0.478516 -58.3711l92.6289 -0.475586l4.35547 71.6416c0.0410156 0.678711 0.355469 1.30957 0.879883 1.75488c3.07715 2.62305 3.1582 2.69238 4.75293 4.28711c1.57422 1.57422 6.14258 6.03516 10.1602 7.20508
c1.45703 0.423828 3.4873 4.44922 7.70703 7.60352c20.1855 15.0898 50.0625 53.0723 53.7734 107.815c0.542969 8.00879 -0.694336 16.7471 -2.27441 26.1201c-3.34375 19.8359 -8.24414 48.0264 -23.3262 65.6006c-2.34473 1.93164 -3.05664 2.57324 -13.8525 13.3691
c-19.3135 19.3135 -51.291 25.1895 -82.2061 25.1895zM351.133 644.802l-0.00195312 -0.104492c0.000976563 0.0351562 0.00195312 0.0703125 0.00195312 0.104492zM332.504 703.991l0.0273438 -0.0302734
c-0.00976562 0.00976562 -0.0273438 0.0302734 -0.0273438 0.0302734zM306.551 701.604l0.0273438 0.0410156c-0.00488281 -0.00683594 -0.00976562 -0.0136719 -0.0273438 -0.0410156zM289.77 646.753l0.0078125 0.0488281
c-0.00390625 -0.0166016 -0.0078125 -0.0322266 -0.0078125 -0.0488281zM291.332 640.437l-0.0351562 0.0380859zM292.717 639.386l-0.173828 0.0507812c0.0585938 -0.0175781 0.116211 -0.0351562 0.173828 -0.0507812zM293.566 639.228l-0.0371094 0.00390625
c0.00683594 0 0.0136719 -0.00390625 0.0371094 -0.00390625zM321.828 709.774c-14.123 1.2793 -19.9287 -13.9512 -25.3916 -35.665c-4.2041 -17.3086 -4.2041 -17.3086 -5.72559 -23.0166l0.0078125 0.0341797
c-0.00292969 -0.0117188 -0.0078125 -0.0341797 -0.0078125 -0.0341797c-1.07422 -4.41895 -1.96289 -8.07715 0.764648 -10.8057c1.00098 -1.00098 1.37012 -1.06934 4.21777 -1.19434c50.5801 0.0214844 50.5801 0.0214844 51.9805 0.207031
c1.20898 0.150391 4.25293 2.96582 3.24219 7.76172c-0.078125 0.395508 -6.28418 27.4844 -9.85938 39.1416c-6.27539 20.2383 -13.7529 23.1924 -19.2285 23.5713zM346.463 628.455c-3.93066 -0.0800781 -50.4316 -0.078125 -50.9414 -0.0615234
c-3.07422 0.0986328 -7.34766 0.236328 -11.0039 4.28516c-1.06641 1.18262 -6.03125 7.23242 -4.45117 15.8838c0.583008 3.18945 1.36621 6.40137 2.82617 11.748c6.25 25.7178 7.94531 32.6895 12.6279 42.2842c3.8291 7.83594 12.2783 19.6357 27.9238 17.7656
c18.5625 -2.05762 25.4814 -23.375 30.4395 -43.3496c1.74316 -7.24316 3.52246 -14.4727 5.34668 -21.7217c1.59961 -6.66113 3.14746 -13.1064 -0.814453 -19.6602c-1.9707 -3.25977 -5.66797 -7.24219 -11.9531 -7.17383zM454.153 550.962l-0.00292969 -0.105469
c0.00195312 0.0351562 0.00292969 0.0712891 0.00292969 0.105469zM435.524 610.151l0.0263672 -0.03125c-0.00878906 0.0107422 -0.0263672 0.03125 -0.0263672 0.03125zM409.57 607.765l0.0273438 0.0410156
c-0.00390625 -0.00683594 -0.00878906 -0.0136719 -0.0273438 -0.0410156zM392.789 552.913l0.0078125 0.0488281c-0.00195312 -0.0166016 -0.0078125 -0.0322266 -0.0078125 -0.0488281zM394.352 546.597l-0.0351562 0.0380859zM395.736 545.546l-0.172852 0.0507812
c0.0576172 -0.0175781 0.115234 -0.0351562 0.172852 -0.0507812zM396.586 545.388l-0.0361328 0.00292969c0.00683594 0 0.0126953 -0.00292969 0.0361328 -0.00292969zM424.848 615.934c-14.1221 1.28027 -19.9277 -13.9502 -25.3906 -35.6641
c-4.20508 -17.3086 -4.20508 -17.3086 -5.72656 -23.0166l0.0078125 0.0341797c-0.00195312 -0.0117188 -0.0078125 -0.0341797 -0.0078125 -0.0341797c-1.07422 -4.41895 -1.96289 -8.07715 0.765625 -10.8057c1.00098 -1.00195 1.36914 -1.07031 4.21777 -1.19434
c50.5791 0.0214844 50.5791 0.0214844 51.9795 0.207031c1.20996 0.150391 4.25293 2.96582 3.24316 7.76172c-0.078125 0.395508 -6.28418 27.4844 -9.86035 39.1416c-6.27539 20.2383 -13.7529 23.1914 -19.2285 23.5703zM449.482 534.615
c-3.92969 -0.0800781 -50.4316 -0.078125 -50.9404 -0.0625c-3.07422 0.0996094 -7.34863 0.237305 -11.0039 4.28613c-1.06738 1.18262 -6.03223 7.23242 -4.45117 15.8838c0.583008 3.18848 1.36621 6.40137 2.8252 11.748
c6.25195 25.7178 7.94531 32.6895 12.6279 42.2842c3.83105 7.83594 12.2783 19.6357 27.9248 17.7656c18.5615 -2.05762 25.4814 -23.375 30.4395 -43.3506c1.74219 -7.24316 3.52148 -14.4717 5.34668 -21.7207c1.59863 -6.66113 3.14746 -13.1064 -0.814453 -19.6611
c-1.96973 -3.25879 -5.66797 -7.24121 -11.9541 -7.17285zM420.219 678.492c0.816406 0 1.63281 -0.311523 2.25391 -0.933594l5.35547 -5.35449c0.62207 -0.62207 0.933594 -1.43848 0.933594 -2.25391c0 -0.720703 1.06836 2.51562 0.588867 1.92578
c-76.7881 -94.4453 -72.2998 -87.8398 -84.9482 -103.329c-0.556641 -0.680664 -2.75391 -4.88574 -3.57031 -4.88574s-1.63184 0.310547 -2.25391 0.932617l-5.35547 5.35547c-0.621094 0.621094 -0.932617 1.4375 -0.932617 2.25293
c0 0.720703 0.239258 1.44434 0.727539 2.02832c87.2012 104.262 69.2246 82.8408 84.9473 103.328c0.536133 0.698242 1.43848 0.933594 2.25391 0.933594zM682.406 36.0518l26.5059 68.2842c62.9561 -102.438 62.4795 -142.953 90.0215 -184.836h87.0664v-43.5h-520.5
v43.5h61.75l71.8213 190.713c20.3232 -33.0684 34.0498 -59.7168 44.2461 -82.0459l69.8027 168.227c31.5908 -51.4033 52.543 -109.279 69.2861 -160.342zM57.5039 -16.9844h42.7031l13.2012 40.1738l13.2002 -40.1738h42.7041l-34.5127 -24.8428l13.2002 -40.1729
l-34.5918 24.8428l-34.5928 -24.8428l13.2012 40.1729z" />
  </g>

</svg>
