<?xml version="1.0" standalone="no"?>
<!DOCTYPE svg PUBLIC "-//W3C//DTD SVG 1.1//EN" "http://www.w3.org/Graphics/SVG/1.1/DTD/svg11.dtd" >
<svg xmlns="http://www.w3.org/2000/svg" xmlns:xlink="http://www.w3.org/1999/xlink" version="1.1" viewBox="-10 0 1023 1000">
  <g transform="matrix(1 0 0 -1 0 800)">
   <path fill="currentColor"
d="M841 302l0.0976562 -26.4424l-429.161 -1.5957l-0.0986328 26.4414l201.997 0.751953l2.36133 299.088l-88.5352 -92.4521l-36.3682 5.84668l137.931 144.173l111.535 -131.188l-17.5625 -20.0938l-79.3564 93.1719l2.8418 -298.423zM826.455 736.715v-26.3867
c-168.535 1.84766 -289.012 0.209961 -429.165 0v26.3867h429.165zM682.406 36.0518l26.5059 68.2842c62.9561 -102.438 62.4795 -142.953 90.0215 -184.836h87.0664v-43.5h-520.5v43.5h61.75l71.8213 190.713c20.3232 -33.0684 34.0498 -59.7168 44.2461 -82.0459
l69.8027 168.227c31.5908 -51.4033 52.543 -109.279 69.2861 -160.342zM57.5039 -16.9844h42.7031l13.2012 40.1738l13.2002 -40.1738h42.7041l-34.5127 -24.8428l13.2002 -40.1729l-34.5918 24.8428l-34.5928 -24.8428l13.2012 40.1729z" />
  </g>

</svg>
