<?xml version="1.0" standalone="no"?>
<!DOCTYPE svg PUBLIC "-//W3C//DTD SVG 1.1//EN" "http://www.w3.org/Graphics/SVG/1.1/DTD/svg11.dtd" >
<svg xmlns="http://www.w3.org/2000/svg" xmlns:xlink="http://www.w3.org/1999/xlink" version="1.1" viewBox="-10 0 1002 1000">
  <g transform="matrix(1 0 0 -1 0 800)">
   <path fill="currentColor"
d="M451.977 393.056c10.3535 6.79785 25.8467 13.7588 45.8496 13.7588c22.5039 0 46.8779 -13.499 54.2979 -20.9189c10.7861 -10.7871 22.0215 -34.3027 22.0215 -54.4902v-0.157227c0 -13.1748 -0.391602 -41.458 -36.9277 -77.1328
c-85.3467 -83.3379 -91.8486 -88.9629 -92.832 -89.8125c-4.54883 -3.93359 -9.04688 -5.44043 -13.0195 -5.44043c-6.91406 0 -11.4512 4.2998 -12.498 5.31543c-93.6992 90.7363 -93.6992 90.7363 -94.5479 91.584c-3.12207 3.12305 -12.2539 12.2549 -13.5986 16.292
c-6.64941 8.875 -7.96094 10.6816 -8.92188 12.3398c-3.11328 5.38184 -6.85938 13.8545 -8.74023 19.7822c-1.70508 5.27539 -3.73047 14.3047 -3.73047 27.541c0 22.2031 13.4912 45.7529 20.8271 53.0898c9.77734 9.77637 34.2949 21.6406 55.0381 21.6406
c14.8438 0 35.207 -1.97266 66.1016 -28.9795c7.99805 6.97949 12.6885 10.1689 20.6455 15.5645l3.0957 -4.69727c0.000976563 0.000976562 0.121094 0.0820312 0.133789 0.0908203c-1.06934 1.53906 -2.16211 3.05371 -3.19434 4.62988zM432.188 177.672
l-0.0664062 -0.0703125s0.0244141 0.0253906 0.0664062 0.0703125zM431.808 177.516c1.26367 0.53125 87.8164 84.1406 95.127 91.4502c26.7324 26.7334 29.6123 48.2773 29.6123 58.8418c0 0.00488281 0.00195312 0.0537109 0.00585938 0.135742
c0.0214844 0.523438 0.101562 2.42188 0.101562 3.62598c0 12.7334 -7.5791 31.8027 -16.3486 41.1572l0.09375 -0.0839844c-0.03125 0.0283203 -0.0625 0.0556641 -0.09375 0.0839844c-10.1787 9.00879 -29.6816 16.165 -42.248 16.165
c-2.48242 0 -12.2725 -0.213867 -19.9395 -2.8252c-18.1348 -5.97559 -35.5166 -22.6816 -38.0898 -25.2549c-5.22168 -5.22168 -5.76562 -6.49512 -8.22266 -6.51562l-0.00390625 -0.000976563h0.0361328c-0.0205078 0 -0.0380859 -0.00195312 -0.0517578 -0.00195312
c-0.0498047 -0.00292969 -0.126953 -0.00585938 -0.232422 -0.00585938c-2.2793 0 -2.90918 1.28906 -5.18359 3.5625c-13.9707 13.9697 -29.0879 23.8535 -40.877 27.7441c-7.27148 2.40039 -13.4277 3.27734 -19.6963 3.27734
c-15.5527 0 -36.1152 -9.99707 -42.7158 -16.5986c-5.07031 -5.07031 -10.4434 -21.877 -13.9766 -34.6367c-0.720703 -2.59961 -1.30664 -4.73828 -1.83984 -6.32812v-0.0722656c0.0576172 -10.6846 2.42871 -23.8857 10.3936 -37.6807
c1.12305 -1.93164 9.54492 -14.9727 19.0938 -24.5205c0.930664 -0.931641 82.6816 -78.8779 94.7959 -91.3926c0.0380859 -0.0195312 0.12207 -0.0605469 0.259766 -0.125977zM413.955 480.275c32.8008 1.8457 126.229 -13.7402 131.133 -4.57129
c96.7764 9.00098 187.196 102.697 183.708 102.815l10.583 -15.876c-38.959 -35.7188 -77.5166 -75.5752 -183.088 -105.946c46.4844 -6.76074 98.5488 -35.7959 131.681 -61.8857c20.1602 -15.874 36.2881 -22.6797 51.4072 -36.2881l-14.3633 -18.1436
c-26.459 20.4111 -43.5146 31.8691 -61.2354 45.3604c-90.4814 68.8799 -209.277 71.7617 -272.213 71.2266c0.140625 6.41016 0.282227 12.8203 0.423828 19.2305c0.0771484 3.60645 3.58301 3.75293 5.08008 3.81445
c0.168945 0.0078125 8.04395 -0.234375 16.8838 0.263672zM682.406 36.0518l26.5059 68.2842c62.9561 -102.438 62.4795 -142.953 90.0215 -184.836h87.0664v-43.5h-520.5v43.5h61.75l71.8213 190.713c20.3232 -33.0684 34.0498 -59.7168 44.2461 -82.0459l69.8027 168.227
c31.5908 -51.4033 52.543 -109.279 69.2861 -160.342zM57.5039 -16.9844h42.7031l13.2012 40.1738l13.2002 -40.1738h42.7041l-34.5127 -24.8428l13.2002 -40.1729l-34.5918 24.8428l-34.5928 -24.8428l13.2012 40.1729zM549.973 740.875l-90.9727 -91.875l99 -91
l-12.8887 -10.7354l-99.1113 91.2354l-89.6387 -91.2354l-9.36133 10.2354l88.5 90l-87 90.5l11.5 11l88 -87.5l92 88z" />
  </g>

</svg>
