<?xml version="1.0" standalone="no"?>
<!DOCTYPE svg PUBLIC "-//W3C//DTD SVG 1.1//EN" "http://www.w3.org/Graphics/SVG/1.1/DTD/svg11.dtd" >
<svg xmlns="http://www.w3.org/2000/svg" xmlns:xlink="http://www.w3.org/1999/xlink" version="1.1" viewBox="-10 0 1008 1000">
  <g transform="matrix(1 0 0 -1 0 800)">
   <path fill="currentColor"
d="M481.177 433.662zM160.44 649.441zM100.544 539.174zM333.921 395.002zM333.499 381.611zM155.186 431.402zM257.983 399.062zM538.387 564.104zM100.544 539.174zM538.387 564.104zM396.426 703.166c-24.4727 0 -44.8447 -10.6309 -52.6504 -21.0791l-2.29102 -1.70703
c-7.20215 -2.62598 -14.2305 -3.57422 -20.6309 -3.57422c-13.9365 0 -24.8945 4.49805 -28.1758 5.97168l-1.81445 1.39062c-2.73047 3.32422 -14.0918 16.7031 -40.4482 16.7031c-31.4424 0 -68.8281 -19.5254 -81.7256 -49.6865l-3.36621 -2.21875l-58.8496 -79.96
l-3.12402 -1.58008v-1.01953c-0.519531 -1.93457 -1.22559 -3.68262 -2.4248 -4.93848l0.963867 -1.25586l-5.27637 -19.7861l-1.14648 -0.864258c-0.158203 -3.12793 -0.456055 -4.94531 -1.4541 -8.8457l1.20605 -1.21582
c-0.000976562 -0.182617 -0.00195312 -0.364258 -0.00195312 -0.545898c0 -17.0996 7.34668 -53.2891 59.1006 -96.0918c54.4395 -45.0254 116.02 -50.0361 167.544 -50.0361c84.7363 0 118.226 10.5469 168.306 50.1191c60.4551 47.7705 61.9639 61.7949 63.6748 96.6611
l-2.1084 1.64258c-3.32617 12.417 -6.14941 26.4463 -10.0908 38.4775l-0.334961 0.172852l-43.334 74.0479c-5.01855 5.2373 -5.01855 5.2373 -5.62305 6.28906c-0.662109 0.27832 -0.662109 0.27832 -2.96875 2.58496c-15.3291 15.3301 -46.4434 42.502 -75.7285 48.5742
c-5.89648 1.22266 -11.6709 1.77051 -17.2266 1.77051zM543.001 569.023l0.0800781 -0.266602zM542.859 574.805l-1.05664 -1.76758l0.292969 -0.980469zM249.395 686.356c10.042 0 19.6562 -2.46191 27.6562 -7.9668l0.863281 -1.81836
c0.837891 -0.366211 2.19531 -1.06055 3.43652 -2.24023c9.5 -9.02734 24.624 -13.6631 39.1914 -13.6631c1.65332 0 31.4463 0.25 37.3975 18.1768l1.92871 2.55176c10.3613 7.07227 23.8594 10.916 37.1182 10.916c23 0 33.9717 -10.2188 41.9531 -17.6514
c6.08398 -5.66699 13.9092 -12.9883 30.957 -24.2959c0.683594 -0.214844 2.35449 -0.916992 3.30664 -2.83398l0.553711 -0.291016l48.5576 -76.5879c0.0224609 -0.0761719 1.82617 -6.48828 2.00488 -7.68848l0.297852 -0.0390625l8.6543 -34.5459
c1.23633 -4.9375 1.98926 -9.67871 1.98926 -14.3672c0 -21.3555 -15.3682 -38.3213 -60.5703 -75.2598c-41.3389 -33.7793 -71.9551 -45.3066 -160.691 -45.3066c-48.4775 0 -88.0693 5.97949 -133.971 38.1104c-55.5273 38.8701 -64.4863 68.1865 -64.4863 95.8682
c0 2.83594 0 4.35059 0.243164 6.02246l8.50098 31.877l0.743164 1.58691l53.1035 75.1807l3.53711 1.07227c12.4385 29.2979 44.8193 43.1934 67.7246 43.1934zM278.68 674.96c0 0 -0.570312 1.23926 -0.598633 1.25977zM343.061 370.457zM318.461 448.543h13.29v15.1836
l1.46289 3.53516l71.4727 71.4717l-9.45508 9.32031l-54.9463 -54.9463l-8.53418 3.53613v34.6826l1.46289 3.53516l43.0146 43.0146l-9.41406 9.41504l-26.5293 -26.5293l-8.53418 3.53516v54.6201h-13.29v-53.4824l-8.53516 -3.53516l-26.0752 26.0752l-9.45117 -9.31934
l42.6006 -42.6553l1.46094 -3.5332v-35.8232l-8.53516 -3.53613l-54.9463 54.9463l-9.45312 -9.32031l71.4707 -71.4717l1.46387 -3.53516v-15.1836zM332.481 97.6934l-82.2217 148.848l24.0225 10.1475l58.4395 -100.383l53.3027 101.418l27.2285 -11.0254z
M249.568 -67.707v34.6641h38.626v22.0713h-38.626v34.6641h38.626v33.7148h31.3828v-33.7148h23.2197v31.2539h31.3828v-31.2539h41.292v-34.6641h-41.292v-22.0713h41.292v-34.6641h-41.292v-36.1855h-31.3828v36.1855h-23.2197v-33.7246h-31.3828v33.7246h-38.626z
M319.577 -33.043h23.2197v22.0713h-23.2197v-22.0713zM764.659 223.904c-0.529297 0 -0.985352 0.173828 -1.32227 0.358398l-214.094 -88.2627v-37.8242c12.126 5.10742 24.251 10.2148 36.376 15.3213v-3.77051l-0.21875 -161.659h318.305l0.646484 155.446
c10.9619 -6.48535 21.9238 -12.9697 32.8867 -19.4551l-0.677734 40.7051l-136.33 79.1182l1.46387 0.616211c-22.6963 11.7715 -24.457 12.7314 -36.2109 19.5508c-0.288086 -0.102539 -0.56543 -0.144531 -0.824219 -0.144531zM868.594 -16.7148h-248.003
l-0.665039 144.662l142.009 59.8174l107.859 -63.8086zM38.3545 -39.4795h55.5146l17.1611 52.2256l17.1602 -52.2256h55.5156l-44.8672 -32.2959l17.1611 -52.2246l-44.9697 32.2959l-44.9707 -32.2959l17.1611 52.2246zM877.228 505.654l-85.2275 -103.654
l-88.2422 95.125l9.03125 8.97461l72.79 -82.2188l-9.5332 288.27l13.1738 1.02441l7.55762 -289.078l71.0986 89.3799z" />
  </g>

</svg>
