<?xml version="1.0" standalone="no"?>
<!DOCTYPE svg PUBLIC "-//W3C//DTD SVG 1.1//EN" "http://www.w3.org/Graphics/SVG/1.1/DTD/svg11.dtd" >
<svg xmlns="http://www.w3.org/2000/svg" xmlns:xlink="http://www.w3.org/1999/xlink" version="1.1" viewBox="-10 0 1051 1000">
  <g transform="matrix(1 0 0 -1 0 800)">
   <path fill="currentColor"
d="M30.3242 741.553h55.5146l17.1611 52.2256l17.1602 -52.2256h55.5156l-44.8672 -32.2959l17.1611 -52.2246l-44.9697 32.2959l-44.9707 -32.2959l17.1611 52.2246zM271 608l-12 60c128.725 89.7881 355.203 55.3633 442.457 48.5605
c0 -0.0107422 0.000976562 -0.0214844 0.000976562 -0.0322266c27.4463 0.582031 75.1855 -1.32129 107.268 -33.4033c40.1396 -40.1396 38.6152 -108.841 37.5254 -169.365c-0.395508 -21.9258 -0.433594 -33.2402 -0.22168 -41.9463
c26.3789 -43.8281 72.168 -89.959 89.3252 -129.607c6.95117 -16.0635 5.49219 -24.7637 2.64551 -40.2051l-12 -14l-79.501 -63.5771v-212.431c1.93945 -31.0869 1.82422 -79.2412 -27.416 -108.48c-26.0322 -26.0322 -182.507 -12.0195 -220.584 -13.0049
l-2.90137 0.0126953c-103.732 -7.2998 -296.108 50.6025 -326.603 92.1719c-18.5059 25.2275 -31.4014 41.2529 -57.9951 55.3086v70.0371c25.8174 -16.2627 49.624 -17.8066 70.1904 -60.6357c44.2188 -92.082 349.455 -105.734 451.309 -108.438l-0.499023 -0.962891
c50 12 34.1514 4.48145 42.5352 13.5361c19.1768 20.7119 3.97852 41.9688 5.50781 57.9648h-0.541992v2.14941c-0.253906 0.990234 -0.500977 1.94141 -0.738281 2.84863h0.738281v207.174v3.4873v1.33887h1.58203l104 88h1.13281
c4.9834 45.8955 -62.8379 92.1289 -94.2158 139.501l-3 4l-1 1c-2.02051 3.99219 0.0439453 4.02539 -2.08398 11.5605c-0.0371094 0.130859 -0.189453 0.24707 -0.174805 0.367188l0.258789 2.07227l0.0644531 1.49902
c0.00976562 0.226562 0.150391 3.89551 0.242188 6.24414c3.11426 79.1523 5.19727 173.389 -83.8154 173.771c-136.35 16.7461 -373.536 9.53418 -431.49 -46.5137zM393.273 391.329zM426.462 544.042l0.0244141 -0.0292969
c-0.0078125 0.00976563 -0.0244141 0.0292969 -0.0244141 0.0292969zM332.212 424.55l0.0078125 0.046875c-0.00292969 -0.0146484 -0.0078125 -0.03125 -0.0078125 -0.046875zM340.519 405.431l-0.161133 0.0498047
c0.0537109 -0.0175781 0.107422 -0.0332031 0.161133 -0.0498047zM343.198 404.9l-0.0351562 0.00292969c0.00585937 0 0.0126953 -0.00292969 0.0351562 -0.00292969zM445.953 389.698c-53.9453 0.189453 -98.2627 0.000976562 -98.2715 0.000976562
c-6.07715 0.196289 -13.6162 0.438477 -20.124 7.64844c-10.792 11.9551 -8.89258 26.4697 -8.30762 29.6729c1.18945 6.50879 3.05176 13.0459 5.76172 23.9365c11.3545 45.6309 12.6846 52.1807 17.8496 67.2578c11.7715 34.2217 26.0283 45.7764 38.6104 50.8994
c7.70117 2.87402 32.7031 9.6582 53.3818 -13.4355c10.6514 -12.5059 19.2705 -29.4395 29.4072 -70.2832c3.59082 -14.9248 7.25684 -29.8203 11.0078 -44.7188c0.956055 -3.98047 1.83301 -7.97461 2.63379 -12.0107c3.9502 -19.4443 -7.33105 -39.0762 -25.4736 -38.8359
zM336.246 408.602c0.0107422 -0.00976562 0.0224609 -0.0185547 0.0224609 -0.0273438c3.32422 -3.6123 5.53027 -3.70801 11.5742 -3.96973c0 0 100.483 0.0439453 100.527 0.0439453c2.35352 -0.0332031 4.69824 0.104492 7.03906 0.415039
c4.85254 0.605469 12.1289 8.68457 9.69727 20.209c-1.12402 5.6582 -1.12402 5.6582 -5.89844 24.835c-11.8711 48.7539 -14.5752 59.8623 -22.6768 77.6113c-1.48535 3.18262 -6.25098 12.7471 -12.748 19.2441c-6.3584 6.3584 -13.543 9.70605 -21.8691 10.2822
c-10.3584 0.916016 -29.3125 -0.529297 -43.3447 -35.3135c-5.57129 -13.8105 -8.8623 -26.0127 -12.5742 -40.7979c-8.65137 -35.6191 -8.65137 -35.6191 -11.7861 -47.374l0.0078125 0.03125c-0.00195312 -0.0107422 -0.0078125 -0.03125 -0.0078125 -0.03125
c-2.46875 -10.1553 -4.2998 -17.6836 2.03711 -25.1582zM613.503 466.552l-40.6162 35.1318l-7.96289 -9.05078l24.3564 -20.3887l-90.9238 -0.105469l0.649414 -12.3516l90.1787 0.728516l-23.1846 -19.5156l8.43164 -8.91797zM421.32 228.416
c6.35254 -22.6982 18.207 -42.9434 36.6797 -61.416c16.1494 -16.1494 37.4346 -30.9707 64.5439 -44.667c2.12891 -1.0752 3.38184 -3.90918 2.36523 -6.37402l-3.73535 -9.05273c-0.998047 -2.41895 -4.19238 -3.91211 -6.88184 -2.54883
c-29.3984 14.8945 -53.2012 31.3447 -71.5791 49.7217c-14.9893 14.9893 -26.332 31.251 -34.0566 48.8682c-11.1777 -24.5049 -30.1807 -50.7637 -50.8096 -71.3926c-10.4844 -10.4844 -21.3984 -19.5117 -32.0645 -26.0732
c-2.33887 -1.43848 -5.40723 -0.582031 -6.78809 1.50098l-6.06738 9.15234c-1.58105 2.38477 -0.686523 5.58496 1.47168 6.9707c13.8242 8.87207 26.083 18.6514 36.7969 29.3652c39.7803 39.7803 58.7812 92.8086 56.6104 162.003
c-0.208984 6.68945 8.5459 5.08008 14.7891 4.94238c1.73535 -0.0390625 2.88379 -0.921875 3.42578 -1.46387c2.96973 -2.96973 1.53906 -1.58398 1.5332 -4.25098c0.960938 -23.0117 -4.92969 -74.4922 -6.2334 -85.2852zM411.415 226.717
c-0.732422 2.68848 1.375 14.0117 3.2666 32.9385c-2.17188 -13.9297 -5.10742 -27.1357 -9.43555 -39.627c2.89062 2.89062 7.29492 0.976562 8.27344 -1.93945c6.50195 -19.3691 17.375 -37.124 32.9551 -53.542c-17.3447 18.6553 -28.832 39.3047 -35.0596 62.1699z
M324.604 116.62c7.30176 4.92188 14.8662 11.1377 22.3066 18.2314c-7.10352 -6.13672 -14.7285 -11.9277 -22.8691 -17.3828z" />
  </g>

</svg>
