<?xml version="1.0" standalone="no"?>
<!DOCTYPE svg PUBLIC "-//W3C//DTD SVG 1.1//EN" "http://www.w3.org/Graphics/SVG/1.1/DTD/svg11.dtd" >
<svg xmlns="http://www.w3.org/2000/svg" xmlns:xlink="http://www.w3.org/1999/xlink" version="1.1" viewBox="-10 0 1050 1000">
  <g transform="matrix(1 0 0 -1 0 800)">
   <path fill="currentColor"
d="M348.481 97.6934l-82.2217 148.848l24.0225 10.1475l58.4395 -100.383l53.3027 101.418l27.2285 -11.0254zM265.568 -67.707v34.6641h38.626v22.0713h-38.626v34.6641h38.626v33.7148h31.3828v-33.7148h23.2197v31.2539h31.3828v-31.2539h41.292v-34.6641h-41.292
v-22.0713h41.292v-34.6641h-41.292v-36.1855h-31.3828v36.1855h-23.2197v-33.7246h-31.3828v33.7246h-38.626zM335.577 -33.043h23.2197v22.0713h-23.2197v-22.0713zM780.659 223.904c-0.529297 0 -0.985352 0.173828 -1.32227 0.358398l-214.094 -88.2627v-37.8242
c12.126 5.10742 24.251 10.2148 36.376 15.3213v-3.77051l-0.21875 -161.659h318.305l0.646484 155.446c10.9619 -6.48535 21.9238 -12.9697 32.8867 -19.4551l-0.677734 40.7051l-136.33 79.1182l1.46387 0.616211c-22.6963 11.7715 -24.457 12.7314 -36.2109 19.5508
c-0.288086 -0.102539 -0.56543 -0.144531 -0.824219 -0.144531zM884.594 -16.7148h-248.003l-0.665039 144.662l142.009 59.8174l107.859 -63.8086zM63.3545 -23.4795h55.5146l17.1611 52.2256l17.1602 -52.2256h55.5156l-44.8672 -32.2959l17.1611 -52.2246
l-44.9697 32.2959l-44.9707 -32.2959l17.1611 52.2246zM615.104 350.127c-11.8311 0 -11.8311 0 -78.3896 0.611328l0.0859375 0.466797h-4.67188l4.15137 253.874l-92.002 50.5596v14.5938l86.5654 -49.4111c4.83496 -0.0117188 9.89355 0.00292969 15.3076 0.03125
l-59.6338 112.175h16.9395l59.5781 -112.062l2.49512 0.0175781l0.957031 153.737h19.459l-0.958008 -153.638c1.89746 0 3.79395 0.00292969 5.69043 0.00292969l64.5146 122.485h16.9346l-63.8926 -121.302l79.3018 31.875v-14.8652
c-21.5107 -9.51074 -42.9912 -19.0498 -64.5195 -28.542l-11.8975 -2.83301l2.08301 -69.3604l17.1084 9.94531l3.73535 -24.2871l-20.0469 -12.2012l4.9375 -164.466c-1.27832 0.864258 -2.55566 1.72949 -3.83301 2.59277zM596.172 368.63l-5.94824 237.889h-3.07129
l3.56836 -237.889h5.45117zM563.125 369.205v237.988l-3.54688 0.416992l-1.18848 -238.888z" />
  </g>

</svg>
