<?xml version="1.0" standalone="no"?>
<!DOCTYPE svg PUBLIC "-//W3C//DTD SVG 1.1//EN" "http://www.w3.org/Graphics/SVG/1.1/DTD/svg11.dtd" >
<svg xmlns="http://www.w3.org/2000/svg" xmlns:xlink="http://www.w3.org/1999/xlink" version="1.1" viewBox="-10 0 1016 1000">
  <g transform="matrix(1 0 0 -1 0 800)">
   <path fill="currentColor"
d="M666.819 -43.9434l-0.0859375 0.0410156c0.0234375 -0.0107422 0.046875 -0.0410156 0.0859375 -0.0410156zM698.475 -53.377c2.34473 0.90332 2.34473 0.90332 4.84766 0.59082zM873.283 27.0059h-9.62207l9.99023 9.6123zM873.283 27.0059
c-0.862305 -22.4619 -11.9238 -29.2871 -54.8486 -29.2871c-0.414062 0 -39.8232 0.515625 -41.4111 0.515625c-50.0918 0 -72.4287 -7.23633 -90.7158 -13.8701c-10.4902 5.55371 -26.6777 14.126 -26.6777 40.5137c0 54.7861 70.6553 142.814 144.37 233.122
c59.376 72.7422 85.2119 104.879 97.6953 137.513c-7.34082 20.6543 -14.1582 28.0283 -23.918 28.0283c-9.60352 0 -21.5957 -11.79 -31.3789 -33.3262l2.06348 -2.2959c-0.886719 -10.7139 -1.46777 -17.7305 -20.9434 -44.9502
c-0.128906 -0.536133 -0.210938 -0.87793 -0.807617 -1.15137c-36.418 -51.7051 -116.658 -137.035 -163.139 -212.85c-49.8379 -81.291 -39.5361 -117.73 -27.1572 -136.895c0.254883 -0.396484 21.8916 -30.9111 30.3887 -36.0068
c10.0947 -4.50488 27.6895 -7.51367 34.1113 -8.50098c5.49219 2.12695 7.22559 2.85938 13.7666 5.61133c10.5342 4.43164 35.2861 14.3008 44.4941 13.2773c23.6328 -2.625 23.6748 -5.3418 44.75 -5.3418c23.2686 0 53.1992 5.7373 77.1631 29.7012
c26.2236 26.2236 33.0186 62.1055 36.3438 87.752c-3.57617 1.3877 -5.86816 2.30469 -9.7002 4.12305c-17.5195 8.31055 -19.8428 0.00390625 -34.0049 -55.6826h-0.444336zM917.433 78.5654c0.348633 2.69336 0.660156 5.27441 0.951172 7.71875l6.3418 -10.5225
c-3.16211 1.21094 -5.48828 2.10352 -7.29297 2.80371zM826.711 341.817c-1.05469 -0.483398 -3.71582 -0.750977 -11.0801 -1.49121l6.95508 15.999c2.47656 -3.25195 4.95312 -6.50391 7.42871 -9.75586c-0.449219 -0.650391 -0.449219 -0.650391 -2.49609 -3.60059
c-0.267578 -0.381836 -0.536133 -0.765625 -0.807617 -1.15137zM846.398 390.215l-2.08984 -4.59961l-6.55566 0.376953l3.30469 1.7373c0.603516 2.29102 2.5957 4.05469 1.92285 6.83105c0.44043 -0.93457 1.61523 -2.33984 3.41797 -4.3457zM901.695 395.513
c0.415039 1.08398 0.814453 2.16797 1.2002 3.25391l-0.0458984 -6.58105c-0.366211 1.07812 -0.75 2.19141 -1.1543 3.32715zM251.76 63.1201v413.174l-6.15918 0.723633l-2.06445 -414.734zM309.13 62.1211l-10.3242 413.001h-5.33398l6.19434 -413.001h9.46387zM342 30
c-20.5381 0 -20.5381 0 -136.093 1.05859l0.151367 0.8125h-8.11328l7.20801 440.752l-159.727 87.7773v25.3359l150.287 -85.7832c8.39453 -0.0205078 17.1768 0.00585938 26.5781 0.0556641l-103.534 194.746h29.4092l103.435 -194.552l4.33105 0.0302734l1.66406 266.905
h33.7822l-1.66309 -266.731c3.29297 0 6.58594 0.00390625 9.87793 0.00390625l112.005 212.647h29.4004l-110.924 -210.594l137.677 55.3389v-25.8076c-37.3447 -16.5117 -74.6387 -33.0723 -112.015 -49.5527l-20.6533 -4.91602l3.61523 -120.419l29.7002 17.2676
l6.4873 -42.1641l-34.8037 -21.1855l8.57227 -285.529c-2.21875 1.50098 -4.43652 3.00195 -6.65527 4.50293zM694.435 347.717l-144 150l34.0645 24.9717l109.936 -112.972l222 272l32.2334 -24.8213z" />
  </g>

</svg>
