<?xml version="1.0" standalone="no"?>
<!DOCTYPE svg PUBLIC "-//W3C//DTD SVG 1.1//EN" "http://www.w3.org/Graphics/SVG/1.1/DTD/svg11.dtd" >
<svg xmlns="http://www.w3.org/2000/svg" xmlns:xlink="http://www.w3.org/1999/xlink" version="1.1" viewBox="-10 0 890 1000">
  <g transform="matrix(1 0 0 -1 0 800)">
   <path fill="currentColor"
d="M577.656 88.8848l3.04492 98.2959c-5.1875 -0.797852 -10.376 -1.5957 -15.5635 -2.39453l-36.374 4.82227l48.7393 53.4541v46.2783l-142.78 1.83496c-0.43457 -15.876 -0.43457 -15.876 -2.12695 -48.8555l-56.7354 47.8438l-57.8604 0.248047v-200.412z
M298.163 58.3779c-6.48633 0 -11.833 5.2793 -11.833 11.833v240.084c0 6.50684 5.29688 11.833 11.877 11.833c0 0 65.7812 -0.266602 77.9971 -0.31543l52.0469 47.0879c3.43457 -26.9775 3.43457 -26.9775 4.76367 -51.5605l164.49 3.58496
c6.35156 0 11.665 -5.28613 11.665 -11.8369v-67.377l47.4033 -55.1924c-43.6191 2.40039 -43.6191 2.40039 -48.8223 3.14355l1.4209 -120.739c0 -6.43457 -5.30859 -11.752 -11.8789 -11.752zM27.3545 28.5205h55.5146l17.1611 52.2256l17.1602 -52.2256h55.5156
l-44.8672 -32.2959l17.1611 -52.2246l-44.9697 32.2959l-44.9707 -32.2959l17.1611 52.2246zM348 684h223.195c3.57227 50.6006 47.6396 91.667 98.3662 91.667c54.4326 0 98.6104 -44.1777 98.6104 -98.6113s-44.1777 -98.6113 -98.6104 -98.6113
c-50.7266 0 -94.7939 41.0664 -98.3662 91.667h-223.195v13.8887zM669.39 592.333c46.7627 0.00390625 84.7148 37.96 84.7148 84.7227c0 46.7666 -37.9561 84.7227 -84.7227 84.7227c-43.0781 0 -80.9062 -34.8447 -84.4365 -77.7783h50.416
c3.12988 15.333 18.3711 27.7783 34.0205 27.7783c19.167 0 34.7227 -15.5566 34.7227 -34.7227c0 -19.166 -15.5557 -34.7227 -34.7227 -34.7227c-15.6494 0 -30.8906 12.4453 -34.0205 27.7783h-50.416c3.59082 -42.8721 41.4219 -77.7168 84.4443 -77.7783z" />
  </g>

</svg>
