<?xml version="1.0" standalone="no"?>
<!DOCTYPE svg PUBLIC "-//W3C//DTD SVG 1.1//EN" "http://www.w3.org/Graphics/SVG/1.1/DTD/svg11.dtd" >
<svg xmlns="http://www.w3.org/2000/svg" xmlns:xlink="http://www.w3.org/1999/xlink" version="1.1" viewBox="-10 0 1008 1000">
  <g transform="matrix(1 0 0 -1 0 800)">
   <path fill="currentColor"
d="M348.481 97.6934l-82.2217 148.848l24.0225 10.1475l58.4395 -100.383l53.3027 101.418l27.2285 -11.0254zM265.568 -67.707v34.6641h38.626v22.0713h-38.626v34.6641h38.626v33.7148h31.3828v-33.7148h23.2197v31.2539h31.3828v-31.2539h41.292v-34.6641h-41.292
v-22.0713h41.292v-34.6641h-41.292v-36.1855h-31.3828v36.1855h-23.2197v-33.7246h-31.3828v33.7246h-38.626zM335.577 -33.043h23.2197v22.0713h-23.2197v-22.0713zM780.659 223.904c-0.529297 0 -0.985352 0.173828 -1.32227 0.358398l-214.094 -88.2627v-37.8242
c12.126 5.10742 24.251 10.2148 36.376 15.3213v-3.77051l-0.21875 -161.659h318.305l0.646484 155.446c10.9619 -6.48535 21.9238 -12.9697 32.8867 -19.4551l-0.677734 40.7051l-136.33 79.1182l1.46387 0.616211c-22.6963 11.7715 -24.457 12.7314 -36.2109 19.5508
c-0.288086 -0.102539 -0.56543 -0.144531 -0.824219 -0.144531zM884.594 -16.7148h-248.003l-0.665039 144.662l142.009 59.8174l107.859 -63.8086zM63.3545 -23.4795h55.5146l17.1611 52.2256l17.1602 -52.2256h55.5156l-44.8672 -32.2959l17.1611 -52.2246
l-44.9697 32.2959l-44.9707 -32.2959l17.1611 52.2246zM457 734c103.75 0 188.25 -68.876 188.25 -153.626s-84.5 -153.75 -188.25 -153.75s-188.25 68.876 -188.25 153.625c0 84.75 84.5 153.751 188.25 153.751zM457 439.124c96.875 0 175.75 63.25 175.75 141.125
s-78.875 141.25 -175.75 141.25s-175.75 -63.25 -175.75 -141.125s78.875 -141.25 175.75 -141.25zM368.125 572.749l-12.5 -2.875c24.6221 -100.316 176.17 -96.0254 202.875 0l-12.5 3.5c-23.8438 -84.3223 -155.13 -88.2109 -177.875 -0.625zM496 656.725
c0 9.4502 6.75 17.0996 15.2998 17.0996c8.55078 0 15.3008 -7.64941 15.3008 -17.0996s-6.75 -17.1006 -15.3008 -17.1006c-8.5498 0 -15.2998 7.65039 -15.2998 17.1006zM387.101 657.624c0 9 6.75 16.2002 15.2998 16.2002s15.2998 -7.2002 15.2998 -16.2002
s-6.75 -16.1992 -15.2998 -16.1992s-15.2998 7.19922 -15.2998 16.1992z" />
  </g>

</svg>
