<?xml version="1.0" standalone="no"?>
<!DOCTYPE svg PUBLIC "-//W3C//DTD SVG 1.1//EN" "http://www.w3.org/Graphics/SVG/1.1/DTD/svg11.dtd" >
<svg xmlns="http://www.w3.org/2000/svg" xmlns:xlink="http://www.w3.org/1999/xlink" version="1.1" viewBox="-10 0 1051 1000">
  <g transform="matrix(1 0 0 -1 0 800)">
   <path fill="currentColor"
d="M828.399 483.872c0 9.49878 0.360099 25.4826 0.360099 28.905l-0.318652 61.3747l-8.69455 54.78l-24.0577 41.7601l-29.8355 19.1251l-33.9409 8.02542l-47.9505 1.85133v0.765382l-107.704 8.96128l-161.614 -4.8437l-135.511 -48.0118l4.97421 -24.8711
l90.1513 34.2037l168.519 13.9909l163.859 -8.05849l72.0585 -32.0852l24.6852 -76.5829c-11.2968 -92.7231 -11.5388 -94.7093 -10.6225 -98.1968c0.272553 -1.03738 0.408327 -1.98777 0.495372 -2.92219c0.487753 -0.641757 1.13403 -1.58506 1.4862 -2.05622
l30.4464 -40.7334l38.0432 -60.0682l23.93 -33.502l-96.7113 -80.2498l-3.19974 -219.288c0.962733 -7.56244 2.78458 -22.0112 5.01798 -45.877c-0.12894 -0.269919 -9.65147 -20.9678 -12.8349 -27.02c-1.80565 -3.43278 -3.36365 -6.39475 -8.94453 -11.1259
c-28.726 -6.87192 -37.6748 -9.01268 -53.7943 -9.01268c-3.38415 0 -6.77838 0.14333 -10.1737 0.446144l-127.95 -3.2205l-189.706 31.9736l-119.91 72.0259l-21.8729 31.5454c-0.18608 0.126152 -14.9542 10.3475 -18.5829 12.6523v-31.4635
c5.41685 -3.87145 13.5068 -7.36272 24.4398 -17.2503c7.32645 -6.62591 2.09556 -4.45645 10.6241 -11.9264c1.03002 -0.902171 1.03002 -0.902171 17.2005 -21.8062l70.2643 -41.1391l123.979 -35.7692l40.8353 -3.74581
c52.8258 -4.90757 59.0669 -6.73248 83.0467 -7.42728l68.08 -1.97257l89.7606 0.254271l51.1066 12.4914l15.1376 25.2075l6.27671 34.16l-0.268638 82.9487l0.0291888 84.2282l-0.00582149 87.5189l84.7837 67.8016l7.68593 8.96692l1.11464 7.19504
c0.44913 7.61262 -1.52476 12.8022 -3.31214 18.1783l-23.3304 38.8443l-33.0243 43.448l-34.3179 48.9016c-0.202711 16.1296 -0.202711 16.1296 -0.202711 17.6951zM33.2949 712.521h55.5146l17.1611 52.2256l17.1602 -52.2256h55.5156l-44.8672 -32.2959
l17.1611 -52.2246l-44.9697 32.2959l-44.9707 -32.2959l17.1611 52.2246zM636.562 241.946c1.09961 -19.5479 -8.18945 -75.2285 -2.72559 -78.1514c5.36523 -57.6768 61.2061 -111.565 61.2764 -109.486l-9.46094 -6.30859
c-21.2891 23.2207 -45.042 46.1992 -63.1416 109.118c-4.03027 -27.7041 -21.335 -58.7334 -36.8828 -78.4795c-9.46094 -12.0146 -13.5176 -21.627 -21.6279 -30.6387l-10.8125 8.56152c12.165 15.7695 18.9932 25.9336 27.0332 36.4951
c41.0518 53.9248 42.7686 124.725 42.4512 162.233c3.81934 -0.0839844 7.63965 -0.168945 11.459 -0.25293c2.15039 -0.0458984 2.2373 -2.13574 2.27441 -3.02734c0.00390625 -0.100586 -0.139648 -4.79395 0.157227 -10.0635zM732.162 253.081l-79.627 -89.8467
l10.4336 -8.31348l67.8291 78.8125c5.63477 -9.34277 13.6748 -20.3877 16.3516 -27.6387l19.0342 27.1416zM424.939 435.829h-19.6582v62.6113h19.6582v-62.6113zM531.461 435.829h-19.6582v54.6543c0 16.0537 -5.04883 27.0039 -15.1289 32.876
c-8.50781 4.95605 -23.2939 7.43359 -44.3584 7.43359c-15.9863 0 -31.5264 -0.976562 -46.6211 -2.93164l-1.64746 17.0664c15.5752 2.16309 32.7969 3.24609 51.665 3.24609c25.9365 0 44.5918 -3.59277 56.0908 -10.5752
c13.1055 -7.95801 19.6582 -21.8818 19.6582 -41.7754v-59.9941zM630.986 469.851c0.726562 -17.3428 -3.58301 -55.0576 -4.65234 -63.9199c4.7207 -16.7178 13.4707 -31.625 27.1221 -45.2754c11.9922 -11.9922 27.8438 -23.041 48.0879 -33.2686
c5.28223 -2.66797 1.13965 -9.34473 -0.436523 -13.1641c-0.998047 -2.41895 -4.19238 -3.91211 -6.88281 -2.5498c-22.1348 11.2168 -40.0986 23.6211 -54.0029 37.5244c-10.6328 10.6338 -18.8594 22.1357 -24.6748 34.5469
c-8.57324 -17.8311 -22.3203 -36.5547 -37.2051 -51.4404c-7.91797 -7.91797 -16.1689 -14.7471 -24.2793 -19.7363c-2.33887 -1.43848 -5.40723 -0.582031 -6.78809 1.50098l-4.5498 6.86426c-1.58105 2.38477 -0.686523 5.58496 1.47168 6.96973
c10.2998 6.61133 19.4229 13.8906 27.3877 21.8555c29.5596 29.5596 43.7139 68.9395 42.0938 120.579c-0.19043 6.06543 6.5957 5.12305 12.3555 4.99609c1.74121 -0.0341797 2.89551 -0.920898 3.43848 -1.46387c2.91699 -2.91699 1.51465 -1.61426 1.51465 -4.01855z
M408.755 349.137c-3.93262 2.96777 -8.21582 5.87891 -14.8252 5.87891c-3.88379 0 -10.8135 -2.65527 -13.833 -5.2832c-6.2002 -6.97168 -6.05859 -18.2793 -1.60254 -26.002c1.87305 -3.21973 4.97754 -6.95117 7.1875 -9.08301l33.3701 -32.1875l33.2295 31.9805
c8.32812 8.33008 10.9668 14.6934 10.9668 22.0957c0 3.74121 -2.63574 10.4199 -5.2207 13.2764c-6.82422 5.88086 -18.1172 6.62598 -25.5566 1.77539c-4.1084 -2.69141 -6.56445 -4.92773 -9.90332 -8.27051c-4.45117 -4.45215 -8.27734 1.88086 -10.9355 3.88965
c-1.83398 0.785156 -1.77539 1.09766 -2.87695 1.92969zM418.856 358.379c6.14453 5.00488 14.2451 10.1328 25.332 10.1328c7.58203 0 17.8926 -3.59375 23.1807 -9.09668c5.79102 -6.02539 9.59277 -15.6279 9.16211 -24.5254
c-0.0458984 -10.5928 -5.41309 -20.9326 -15.0342 -30.2373c-11.7627 -11.3779 -23.7314 -22.5811 -35.3037 -34.1523c-3.87891 -3.87891 -22.4297 5.9834 -26.415 9.95605c-12.2148 11.8281 -24.6875 23.4375 -36.7109 35.4609
c-7.33008 7.33008 -1.57812 6.43652 -1.57812 20.6758c0 7.5293 3.65625 17.8223 9.28027 22.9258c5.73438 5.20508 15.1699 8.85254 22.9316 8.85254c11.0947 0 19.0254 -4.69043 25.1553 -9.99219z" />
  </g>

</svg>
