<?xml version="1.0" standalone="no"?>
<!DOCTYPE svg PUBLIC "-//W3C//DTD SVG 1.1//EN" "http://www.w3.org/Graphics/SVG/1.1/DTD/svg11.dtd" >
<svg xmlns="http://www.w3.org/2000/svg" xmlns:xlink="http://www.w3.org/1999/xlink" version="1.1" viewBox="-10 0 1020 1000">
  <g transform="matrix(1 0 0 -1 0 800)">
   <path fill="currentColor"
d="M27.7754 732.616h55.5146l17.1611 52.2256l17.1602 -52.2256h55.5156l-44.8672 -32.2959l17.1611 -52.2246l-44.9697 32.2959l-44.9707 -32.2959l17.1611 52.2246zM268.451 599.063l-12 60c128.725 89.7881 355.203 55.3633 442.457 48.5605
c0 -0.0107422 0.000976563 -0.0214844 0.000976563 -0.0322266c27.4463 0.582031 75.1855 -1.32129 107.268 -33.4033c40.1396 -40.1396 38.6152 -108.841 37.5254 -169.365c-0.395508 -21.9258 -0.433594 -33.2402 -0.22168 -41.9463
c26.3789 -43.8281 72.168 -89.959 89.3252 -129.607c6.95117 -16.0635 5.49219 -24.7637 2.64551 -40.2051l-12 -14l-79.501 -63.5771v-212.431c1.93945 -31.0869 1.82422 -79.2412 -27.416 -108.48c-26.0322 -26.0322 -182.507 -12.0195 -220.584 -13.0049
l-2.90137 0.0126953c-103.732 -7.2998 -296.108 50.6025 -326.603 92.1719c-18.5059 25.2275 -31.4014 41.2529 -57.9951 55.3086v70.0371c25.8174 -16.2627 49.624 -17.8066 70.1904 -60.6357c44.2188 -92.082 349.455 -105.734 451.309 -108.438l-0.499023 -0.962891
c50 12 34.1514 4.48145 42.5352 13.5361c19.1768 20.7119 3.97852 41.9688 5.50781 57.9648h-0.541992v2.14941c-0.253906 0.990234 -0.500977 1.94141 -0.738281 2.84863h0.738281v207.174v3.4873v1.33887h1.58203l104 88h1.13281
c4.9834 45.8955 -62.8379 92.1289 -94.2158 139.501l-3 4l-1 1c-2.02051 3.99219 0.0439453 4.02539 -2.08398 11.5605c-0.0371094 0.130859 -0.189453 0.24707 -0.174805 0.367188l0.258789 2.07227l0.0644531 1.49902
c0.00976562 0.226562 0.150391 3.89551 0.242188 6.24414c3.11426 79.1523 5.19727 173.389 -83.8154 173.771c-136.35 16.7461 -373.536 9.53418 -431.49 -46.5137zM508.729 -2.75098c-1.38574 0 -2.50098 1.125 -2.50098 2.49902l2.39844 69.0293
c-6.97266 8.34668 -14.125 16.1592 -21.168 23.8516c-31.0508 33.9141 -60.1094 65.7266 -60.21 129.897c-0.0849609 53.4785 19.3691 80.8379 30.2637 91.9199c34.4336 33.6602 79.8916 42.1211 103.517 42.1211c2.14844 0 4.86621 1.82227 7.69727 1.68848
c69.8301 -3.28516 84.7324 -8.80762 120.311 -39.7539c4.59277 -3.99512 5.92969 -7.25098 6.52637 -10.3252c0.107422 -0.555664 0.167969 -0.772461 0.189453 -0.839844c16.3027 -18.8115 27.7412 -68.251 28.6289 -82.6299
c0.0595703 -0.974609 0.206055 -2.10742 0.374023 -3.3877c0.476562 -3.62012 1.10742 -8.40527 0.0537109 -14.4248c-14.5068 -82.8525 -53.9326 -106.696 -58.5693 -119.686c-0.25293 -0.708008 -0.486328 -0.825195 -0.586914 -0.925781
c-1.10547 -1.10547 -10.6836 -5.98926 -18.3789 -9.6084c-0.96582 -2.75098 -0.96582 -2.75098 -1.45605 -3.25977c-0.226562 -0.87207 -0.432617 -2.41406 -0.432617 -2.41406l-1.42871 -70.5146c-0.0273438 -1.35547 -1.12793 -2.44043 -2.4834 -2.44824zM695.646 307.446
l-0.165039 0.143555l-1.51074 -1.97363zM688.627 316.363l-1.6543 0.682617l-1.65625 -4.15137zM580.505 339.15c-40.0908 0 -66.2334 -7.07715 -99.5684 -31.792c-8.79004 -8.79004 -33.2559 -35.1709 -33.3711 -80.9375
c-0.15332 -60.2461 26.1045 -88.6094 40.208 -102.713c7.02734 -7.02832 7.02734 -7.02832 8.19141 -8.7666c2.30078 -3.4375 2.30078 -3.4375 17.2344 -19.625c3.42969 -0.84375 8.67188 -3.00488 13.9893 -8.53223c2.90723 -3.02148 1.7334 -14.2412 1.19531 -19.374
l-0.478516 -58.3711l92.6289 -0.475586l4.35645 71.6416c0.0410156 0.678711 0.354492 1.30957 0.879883 1.75488c3.07715 2.62305 3.1582 2.69238 4.75293 4.28711c1.57422 1.57422 6.14258 6.03516 10.1602 7.20508c1.45605 0.423828 3.4873 4.44922 7.70703 7.60352
c20.1855 15.0898 50.0625 53.0723 53.7725 107.815c0.542969 8.00879 -0.693359 16.7471 -2.27344 26.1201c-3.34375 19.8359 -8.24414 48.0264 -23.3262 65.6006c-2.34473 1.93164 -3.05664 2.57324 -13.8525 13.3691c-19.3135 19.3135 -51.292 25.1895 -82.2061 25.1895z
M552.814 238.592l-0.00292969 -0.104492c0.00195312 0.0351562 0.00292969 0.0703125 0.00292969 0.104492zM534.186 297.781l0.0263672 -0.0302734c-0.00878906 0.00976563 -0.0263672 0.0302734 -0.0263672 0.0302734zM508.232 295.395l0.0263672 0.0410156
c-0.00390625 -0.00683594 -0.00878906 -0.0136719 -0.0263672 -0.0410156zM491.45 240.543l0.0078125 0.0488281c-0.00292969 -0.0166016 -0.0078125 -0.0322266 -0.0078125 -0.0488281zM493.013 234.227l-0.0341797 0.0380859
c0.0117188 -0.0126953 0.0234375 -0.0253906 0.0341797 -0.0380859zM494.397 233.176l-0.172852 0.0507812c0.0585938 -0.0175781 0.116211 -0.0351562 0.172852 -0.0507812zM495.247 233.018l-0.0361328 0.00390625
c0.00683594 0 0.0136719 -0.00390625 0.0361328 -0.00390625zM523.509 303.564c-14.1221 1.2793 -19.9277 -13.9512 -25.3906 -35.665c-4.2041 -17.3086 -4.2041 -17.3086 -5.72656 -23.0166l0.00878906 0.0341797
c-0.00292969 -0.0117188 -0.00878906 -0.0341797 -0.00878906 -0.0341797c-1.07324 -4.41895 -1.96289 -8.07715 0.765625 -10.8057c1.00098 -1.00098 1.36914 -1.06934 4.21777 -1.19434c50.5791 0.0214844 50.5791 0.0214844 51.9805 0.207031
c1.20898 0.150391 4.25293 2.96582 3.24219 7.76172c-0.078125 0.395508 -6.28418 27.4844 -9.85938 39.1416c-6.27637 20.2383 -13.7529 23.1924 -19.2295 23.5713zM548.145 222.245c-3.93066 -0.0800781 -50.4326 -0.078125 -50.9414 -0.0615234
c-3.07422 0.0986328 -7.34863 0.236328 -11.0039 4.28516c-1.06738 1.18262 -6.03125 7.23242 -4.45117 15.8838c0.583008 3.18945 1.36621 6.40137 2.8252 11.748c6.25098 25.7178 7.94629 32.6895 12.6289 42.2842c3.8291 7.83594 12.2773 19.6357 27.9238 17.7656
c18.5625 -2.05762 25.4814 -23.375 30.4395 -43.3496c1.74316 -7.24316 3.52148 -14.4727 5.34668 -21.7217c1.59961 -6.66113 3.14746 -13.1064 -0.814453 -19.6602c-1.9707 -3.25977 -5.66797 -7.24219 -11.9531 -7.17383zM655.835 144.752l-0.00292969 -0.105469
c0.000976562 0.0351562 0.00292969 0.0712891 0.00292969 0.105469zM637.206 203.941l0.0253906 -0.03125c-0.0078125 0.0107422 -0.0253906 0.03125 -0.0253906 0.03125zM611.252 201.555l0.0273438 0.0410156
c-0.00488281 -0.00683594 -0.00878906 -0.0136719 -0.0273438 -0.0410156zM594.471 146.703l0.0078125 0.0488281c-0.00292969 -0.0166016 -0.0078125 -0.0322266 -0.0078125 -0.0488281zM596.033 140.387l-0.0351562 0.0380859zM597.418 139.336l-0.172852 0.0507812
c0.0576172 -0.0175781 0.115234 -0.0351562 0.172852 -0.0507812zM598.268 139.178l-0.0361328 0.00292969c0.00585938 0 0.0126953 -0.00292969 0.0361328 -0.00292969zM626.528 209.724c-14.1211 1.28027 -19.9277 -13.9502 -25.3906 -35.6641
c-4.2041 -17.3086 -4.2041 -17.3086 -5.72559 -23.0166l0.0078125 0.0341797c-0.00292969 -0.0117188 -0.0078125 -0.0341797 -0.0078125 -0.0341797c-1.07422 -4.41895 -1.96289 -8.07715 0.764648 -10.8057c1.00195 -1.00195 1.37012 -1.07031 4.21875 -1.19434
c50.5791 0.0214844 50.5791 0.0214844 51.9795 0.207031c1.20996 0.150391 4.25293 2.96582 3.24316 7.76172c-0.078125 0.395508 -6.28516 27.4844 -9.86035 39.1416c-6.27539 20.2383 -13.7529 23.1914 -19.2295 23.5703zM651.164 128.405
c-3.93066 -0.0800781 -50.4316 -0.078125 -50.9404 -0.0625c-3.07422 0.0996094 -7.34961 0.237305 -11.0039 4.28613c-1.06836 1.18262 -6.03223 7.23242 -4.45117 15.8838c0.582031 3.18848 1.36523 6.40137 2.8252 11.748
c6.25098 25.7178 7.94531 32.6895 12.6279 42.2842c3.83008 7.83594 12.2783 19.6357 27.9238 17.7656c18.5625 -2.05762 25.4824 -23.375 30.4404 -43.3506c1.74219 -7.24316 3.52148 -14.4717 5.34668 -21.7207c1.59863 -6.66113 3.14648 -13.1064 -0.814453 -19.6611
c-1.9707 -3.25879 -5.66797 -7.24121 -11.9541 -7.17285zM621.9 272.282c0.816406 0 1.63184 -0.311523 2.25391 -0.933594l5.35547 -5.35449c0.62207 -0.62207 0.932617 -1.43848 0.932617 -2.25391c0 -0.720703 1.06934 2.51562 0.589844 1.92578
c-76.7891 -94.4453 -72.2998 -87.8398 -84.9482 -103.329c-0.556641 -0.680664 -2.75391 -4.88574 -3.57031 -4.88574s-1.63184 0.310547 -2.25391 0.932617l-5.35547 5.35547c-0.62207 0.621094 -0.932617 1.4375 -0.932617 2.25293
c0 0.720703 0.238281 1.44434 0.726562 2.02832c87.2021 104.262 69.2246 82.8408 84.9482 103.328c0.536133 0.698242 1.43848 0.933594 2.25391 0.933594zM398.35 555.477l-81.416 -81.8457l88.6006 -81.0674l-11.5342 -9.56348l-88.7012 81.2773l-80.2227 -81.2773
l-8.37891 9.11816l79.2051 80.1758l-77.8623 80.6211l10.293 9.7998l78.7559 -77.9492l82.3369 78.3945z" />
  </g>

</svg>
