<?xml version="1.0" standalone="no"?>
<!DOCTYPE svg PUBLIC "-//W3C//DTD SVG 1.1//EN" "http://www.w3.org/Graphics/SVG/1.1/DTD/svg11.dtd" >
<svg xmlns="http://www.w3.org/2000/svg" xmlns:xlink="http://www.w3.org/1999/xlink" version="1.1" viewBox="-10 0 1020 1000">
  <g transform="matrix(1 0 0 -1 0 800)">
   <path fill="currentColor"
d="M30.3242 741.553h55.5146l17.1611 52.2256l17.1602 -52.2256h55.5156l-44.8672 -32.2959l17.1611 -52.2246l-44.9697 32.2959l-44.9707 -32.2959l17.1611 52.2246zM271 608l-12 60c128.725 89.7881 355.203 55.3633 442.457 48.5605
c0 -0.0107422 0.000976562 -0.0214844 0.000976562 -0.0322266c27.4463 0.582031 75.1855 -1.32129 107.268 -33.4033c40.1396 -40.1396 38.6152 -108.841 37.5254 -169.365c-0.395508 -21.9258 -0.433594 -33.2402 -0.22168 -41.9463
c26.3789 -43.8281 72.168 -89.959 89.3252 -129.607c6.95117 -16.0635 5.49219 -24.7637 2.64551 -40.2051l-12 -14l-79.501 -63.5771v-212.431c1.93945 -31.0869 1.82422 -79.2412 -27.416 -108.48c-26.0322 -26.0322 -182.507 -12.0195 -220.584 -13.0049
l-2.90137 0.0126953c-103.732 -7.2998 -296.108 50.6025 -326.603 92.1719c-18.5059 25.2275 -31.4014 41.2529 -57.9951 55.3086v70.0371c25.8174 -16.2627 49.624 -17.8066 70.1904 -60.6357c44.2188 -92.082 349.455 -105.734 451.309 -108.438l-0.499023 -0.962891
c50 12 34.1514 4.48145 42.5352 13.5361c19.1768 20.7119 3.97852 41.9688 5.50781 57.9648h-0.541992v2.14941c-0.253906 0.990234 -0.500977 1.94141 -0.738281 2.84863h0.738281v207.174v3.4873v1.33887h1.58203l104 88h1.13281
c4.9834 45.8955 -62.8379 92.1289 -94.2158 139.501l-3 4l-1 1c-2.02051 3.99219 0.0439453 4.02539 -2.08398 11.5605c-0.0371094 0.130859 -0.189453 0.24707 -0.174805 0.367188l0.258789 2.07227l0.0644531 1.49902
c0.00976562 0.226562 0.150391 3.89551 0.242188 6.24414c3.11426 79.1523 5.19727 173.389 -83.8154 173.771c-136.35 16.7461 -373.536 9.53418 -431.49 -46.5137zM450.89 502.92c0 22.916 1.40039 41.3369 4.20117 55.2617
c2.85254 14.0137 7.05371 24.8105 12.6025 32.3906c5.60059 7.58008 12.6289 11.3691 21.084 11.3691c6.23535 0 11.7041 -2.11523 16.4072 -6.3457c4.70215 -4.14258 8.58594 -10.1797 11.6514 -18.1113c3.06445 -7.84473 5.46875 -17.4512 7.21289 -28.8213
c1.74316 -11.2812 2.61523 -26.5293 2.61523 -45.7432c0 -22.7393 -1.40039 -41.1152 -4.20117 -55.1289c-2.80078 -13.9258 -7.00098 -24.7227 -12.6025 -32.3906c-5.54785 -7.58008 -12.5762 -11.3691 -21.083 -11.3691c-11.2031 0 -20.001 6.69824 -26.3945 20.0947
c-7.66211 16.1289 -11.4932 42.3936 -11.4932 78.7939v0zM465.553 502.92c0 -31.8174 2.21973 -53.0137 6.6582 -63.5898c4.49219 -10.4883 10.0137 -15.7324 16.5664 -15.7324c6.55176 0 12.0479 5.28809 16.4863 15.8643c4.49121 10.5762 6.73633 31.7295 6.73633 63.458
c0 31.9062 -2.24512 53.1025 -6.73633 63.5908c-4.43848 10.4883 -9.9873 15.7324 -16.6455 15.7324c-6.55176 0 -11.7832 -4.62695 -15.6934 -13.8818c-4.91504 -11.8105 -7.37207 -33.623 -7.37207 -65.4414v0zM338 202.561c0 -71.2803 73.9199 -129.36 165 -129.36
s165 58.0801 165 129.36s-73.9199 129.359 -165 129.359s-165 -58.0791 -165 -129.359zM320.84 203.881c0 79.6387 81.4004 143.879 182.16 143.879s182.16 -64.2402 182.16 -143.879c0 -79.6406 -81.4004 -143.881 -182.16 -143.881s-182.16 64.2402 -182.16 143.881z
M577.822 120.72h-148.992l-31.749 122.525l57.6182 -38.4951l45.584 86.25l45.4443 -86.25l57.2725 38.0518zM441.903 136.22l116.537 -0.68457l20.1709 72.6016l-40.3408 -27.3965l-37.3516 78.0811l-38.8457 -74.6572l-41.834 28.082z" />
  </g>

</svg>
