<?xml version="1.0" standalone="no"?>
<!DOCTYPE svg PUBLIC "-//W3C//DTD SVG 1.1//EN" "http://www.w3.org/Graphics/SVG/1.1/DTD/svg11.dtd" >
<svg xmlns="http://www.w3.org/2000/svg" xmlns:xlink="http://www.w3.org/1999/xlink" version="1.1" viewBox="-10 0 1051 1000">
  <g transform="matrix(1 0 0 -1 0 800)">
   <path fill="currentColor"
d="M271 608l-12 60c128.725 89.7881 355.203 55.3633 442.457 48.5605c0 -0.0107422 0.000976562 -0.0214844 0.000976562 -0.0322266c27.4463 0.582031 75.1855 -1.32129 107.268 -33.4033c40.1396 -40.1396 38.6152 -108.841 37.5254 -169.365
c-0.395508 -21.9258 -0.433594 -33.2402 -0.22168 -41.9463c26.3789 -43.8281 72.168 -89.959 89.3252 -129.607c6.95117 -16.0635 5.49219 -24.7637 2.64551 -40.2051l-12 -14l-79.501 -63.5771v-212.431c1.93945 -31.0869 1.82422 -79.2412 -27.416 -108.48
c-26.0322 -26.0322 -182.507 -12.0195 -220.584 -13.0049l-2.90137 0.0126953c-103.732 -7.2998 -296.108 50.6025 -326.603 92.1719c-18.5059 25.2275 -31.4014 41.2529 -57.9951 55.3086v70.0371c25.8174 -16.2627 49.624 -17.8066 70.1904 -60.6357
c44.2188 -92.082 349.455 -105.734 451.309 -108.438l-0.499023 -0.962891c50 12 34.1514 4.48145 42.5352 13.5361c19.1768 20.7119 3.97852 41.9688 5.50781 57.9648h-0.541992v2.14941c-0.253906 0.990234 -0.500977 1.94141 -0.738281 2.84863h0.738281v207.174v3.4873
v1.33887h1.58203l104 88h1.13281c4.9834 45.8955 -62.8379 92.1289 -94.2158 139.501l-3 4l-1 1c-2.02051 3.99219 0.0439453 4.02539 -2.08398 11.5605c-0.0371094 0.130859 -0.189453 0.24707 -0.174805 0.367188l0.258789 2.07227l0.0644531 1.49902
c0.00976562 0.226562 0.150391 3.89551 0.242188 6.24414c3.11426 79.1523 14.1973 176.389 -74.8154 176.771c-136.35 16.7461 -373.536 9.53418 -431.49 -46.5137zM30.3545 728.521h55.5146l17.1611 52.2256l17.1602 -52.2256h55.5156l-44.8672 -32.2959l17.1611 -52.2246
l-44.9697 32.2959l-44.9707 -32.2959l17.1611 52.2246zM477.892 579.512l80.2754 -0.421875v0h3.80273l-4.64746 -256.88v-15.21h-17.3223l-65.0654 0.421875v15.21l65.0654 -0.421875l5.49219 243.359l-67.6006 0.422852v13.5195zM500.669 148.048l1.58301 -1.25z
M648.752 171.548c5.84082 -4.46777 14.3535 -12.7178 19 -18.417l-6.33301 -5.41699c-4.23828 5.14062 -11.9668 12.6074 -17.25 16.667c-4.57129 3.63379 -13.0088 6.91895 -18.833 7.33301c-15.584 0.75 -24.167 -10.916 -33.334 -23
c-3.45312 -4.83887 -9.72559 -12.1191 -14 -16.25c-5.8252 -5.55078 -17.0254 -10.9268 -25 -12h-4.08301c-7.6709 0.298828 -19.0576 4.03223 -25.417 8.33398c-3.9707 2.60742 -9.98047 7.38574 -13.416 10.666c-4.14648 -19.6826 -23.8369 -35.6582 -43.9521 -35.6582
c-24.7939 0 -44.917 20.123 -44.917 44.917c0 24.3125 19.7275 44.4307 44.0352 44.9082c0.103516 0.000976563 0.270508 0.00195312 0.374023 0.00195312c24.0342 0 44.3623 -19.4893 45.376 -43.502c4.1875 -4.41602 11.6533 -10.8008 16.667 -14.25
c5.41504 -3.72363 15.1445 -6.74512 21.7168 -6.74512c0.676758 0 1.77441 0.0351562 2.4502 0.078125c6.40527 0.990234 15.4023 5.43262 20.083 9.91699c3.94141 3.84082 9.72852 10.5977 12.917 15.083c10 13.25 20.5 26.334 40.416 26.334
c7.25781 -0.469727 17.7852 -4.50195 23.5 -9zM464.919 112.214c0.0908203 0 0.238281 -0.000976563 0.329102 -0.000976563c19.1309 0 35.6719 15.4941 36.9209 34.585l-1.33301 1.33301l1.5 1.41699c-0.709961 19.7344 -17.3125 35.751 -37.0596 35.751
c-0.0986328 0 -0.258789 -0.000976563 -0.357422 -0.000976563c-0.481445 0.0224609 -1.26367 0.0410156 -1.74609 0.0410156c-20.1934 0 -36.583 -16.3887 -36.583 -36.583s16.3896 -36.583 36.583 -36.583c0.482422 0 1.26465 0.0185547 1.74609 0.0410156z" />
  </g>

</svg>
