<?xml version="1.0" standalone="no"?>
<!DOCTYPE svg PUBLIC "-//W3C//DTD SVG 1.1//EN" "http://www.w3.org/Graphics/SVG/1.1/DTD/svg11.dtd" >
<svg xmlns="http://www.w3.org/2000/svg" xmlns:xlink="http://www.w3.org/1999/xlink" version="1.1" viewBox="-10 0 1014 1000">
  <g transform="matrix(1 0 0 -1 0 800)">
   <path fill="currentColor"
d="M34.2471 745.35h55.5146l17.1611 52.2256l17.1602 -52.2256h55.5156l-44.8672 -32.2959l17.1611 -52.2246l-44.9697 32.2959l-44.9707 -32.2959l17.1611 52.2246zM274.923 611.797l-12 60c128.725 89.7881 355.203 55.3633 442.457 48.5605
c0 -0.0107422 0.000976563 -0.0214844 0.000976563 -0.0322266c27.4463 0.582031 75.1855 -1.32129 107.268 -33.4033c40.1396 -40.1396 38.6152 -108.841 37.5254 -169.365c-0.395508 -21.9258 -0.433594 -33.2402 -0.22168 -41.9463
c26.3789 -43.8281 72.168 -89.959 89.3252 -129.607c6.95117 -16.0635 5.49219 -24.7637 2.64551 -40.2051l-12 -14l-79.501 -63.5771v-212.431c1.93945 -31.0869 1.82422 -79.2412 -27.416 -108.48c-26.0322 -26.0322 -182.507 -12.0195 -220.584 -13.0049
l-2.90137 0.0126953c-103.732 -7.2998 -296.108 50.6025 -326.603 92.1719c-18.5059 25.2275 -31.4014 41.2529 -57.9951 55.3086v70.0371c25.8174 -16.2627 49.624 -17.8066 70.1904 -60.6357c44.2188 -92.082 349.455 -105.734 451.309 -108.438l-0.499023 -0.962891
c50 12 34.1514 4.48145 42.5352 13.5361c19.1768 20.7119 3.97852 41.9688 5.50781 57.9648h-0.541992v2.14941c-0.253906 0.990234 -0.500977 1.94141 -0.738281 2.84863h0.738281v207.174v3.4873v1.33887h1.58203l104 88h1.13281
c4.9834 45.8955 -62.8379 92.1289 -94.2158 139.501l-3 4l-1 1c-2.02051 3.99219 0.0439453 4.02539 -2.08398 11.5605c-0.0371094 0.130859 -0.189453 0.24707 -0.174805 0.367188l0.258789 2.07227l0.0644531 1.49902
c0.00976562 0.226562 0.150391 3.89551 0.242188 6.24414c3.11426 79.1523 5.19727 173.389 -83.8154 173.771c-136.35 16.7461 -373.536 9.53418 -431.49 -46.5137zM521.084 159.074zM520.955 157.548zM679.456 182.759c0 -23.8018 -13.8457 -54.8438 -31.0361 -70.6221
c-36.2314 -33.3496 -73.7559 -33.3496 -146.636 -33.3496v13.8652c20.4951 0 38.0312 0.777344 53.4111 0.777344c-7.06543 1.75488 -16.3613 5.67676 -24.9639 14.2803c-16.3896 16.3887 -16.1953 37.0371 -10.9902 50.7666
c-0.387695 1.5791 2.59961 6.02539 3.30176 7.8125c0.68457 1.74316 1.53125 2.61621 2.74609 3.71387c0.749023 0.675781 0.749023 0.675781 1.20215 1.43066c1.0791 1.79883 2.82617 3.54785 5.00684 5.72852c1.67383 1.67383 9.42969 7.30078 15.3926 9.16504
c4.41406 1.37988 5.02734 2.18555 7.93262 2.52832c1.32617 0.155273 2.08398 0.325195 2.90918 0.510742c1.44629 0.323242 24.2432 5.06836 43.2393 -13.9277c9.34082 -9.34082 14.0674 -20.6758 14.0674 -33.7744c0 -8.08105 -1.98438 -23.043 -14.7676 -35.5684
c-3.92285 -3.79883 -8.19238 -6.83008 -12.7891 -9.08887c19.9414 3.90527 35.9922 11.3135 51.4033 25.3682c13.9385 12.7754 26.8311 40.2998 26.5645 61.4434c-0.183594 19.1426 -12.375 46.3926 -27.2578 59.4766c-32.3135 28.7588 -68.2031 28.7588 -134.542 28.7588
v13.8652c66.7627 0 107.159 0 143.771 -32.2236c16.3955 -14.3848 32.0342 -44.6562 32.0342 -70.9365zM565.595 108.139c13.0273 0 20.4961 6.2168 24.5625 10.2842c8.53125 8.53125 9.72266 17.4375 9.72266 23.3779c-0.0292969 8.4375 -2.83203 16.4482 -10.1406 23.5469
c-12.3516 12.1523 -28.0947 11.2031 -37.5693 7.07324l-10.5947 -6.97363l-8.20117 -12.124l0.0253906 0.0673828c-0.00878906 -0.0224609 -0.0166016 -0.0449219 -0.0253906 -0.0673828c-1.63574 -4.47754 -6.37109 -21.2246 7.91992 -35.3242
c6.69043 -6.60059 14.707 -9.86035 24.3008 -9.86035zM570.146 487.788l40.5508 -40.3193l42.1289 40.2979l13.0303 -11.2686l-42.0488 -42.4658l45.9531 -42.2412l-12.6436 -10.5312l-45.3789 41.7725l-41.6475 -42.3896l-11.9043 13.0195l40.6865 41.376l-40.1787 41.7959
zM708.034 365.861zM510.657 498.649zM473.798 430.792zM617.414 342.071zM617.155 333.83zM507.424 364.471zM570.684 344.569zM743.24 446.135zM473.798 430.792zM743.24 446.135zM748.099 450.759c2.5459 -7.70898 4.18359 -16.0518 6.3252 -24.043l1.49219 -0.0244141
c-1.13477 -23.9453 -1.5625 -32.9629 -40.4453 -63.6865c-28.9316 -22.8623 -50.1143 -30.915 -98.2637 -31.458c-33.1191 -0.373047 -75.2988 0.866211 -112.277 31.4492c-14.5713 12.0518 -37.7002 35.374 -37.4854 61.8682h-1.03711
c1.13281 4.24707 1.13281 4.24707 1.24023 7.50781l0.758789 -0.0126953l3.24707 12.1758h-1.4248c0.739258 1.00488 1.48047 2.00977 2.21973 3.01562v3.4209h2.51855l36.7705 49.9619h1.16797c12.7217 29.75 61.4609 44.0811 80.3916 21.0371
c2.6875 -1.20801 14.8779 -6.07227 27.7148 -1.39258c6.6123 8.84961 25.1904 17.3896 46.0967 13.0547c20.2197 -4.19336 40.6182 -23.0029 49.5674 -32.1621h0.428711c0.31543 -0.463867 0.53125 -0.996094 0.927734 -1.40332l2.81152 -2.93359l26.8496 -45.8799
c0.400391 0.0341797 0.716797 0.00878906 0.654297 -0.282227zM486.149 426.471c-0.445312 -15.2676 1.24316 -33.4258 38.3242 -59.3828c31.4658 -22.0254 57.5381 -23.6074 93.333 -22.7217c41.7051 1.07324 59.1074 6.43457 84.291 27.0127
c33.4883 27.3662 39.0381 35.9434 35.0107 52.0186l-5.32617 21.2598l-0.195312 -0.349609c0.0117188 1.28711 -0.848633 2.92285 -0.836914 4.20996l-29.8828 47.1309c-0.801758 -0.03125 -0.161133 0.697266 -0.963867 0.666016
c-18.4961 12.1943 -20.4688 17.4775 -27.3779 21.5527c-10.6387 6.27441 -26.9971 5.01074 -37.4111 -2.0957c-5.18359 -15.6172 -37.3486 -18.1201 -52.1699 -4.03711c-1.38086 1.3125 -2.39941 0.582031 -2.26953 2.19238
c-15.8428 10.9023 -45.5176 -0.0810547 -53.9023 -19.8311l-1.01758 -2.39551l-1.69434 0.652344l-32.6797 -46.2646zM243.589 389.608zM297.642 401.755zM365.575 478.896zM355.947 489.713zM266.827 436.193zM251.343 440.208zM195.462 358.483
c0.155273 1.93652 0.505859 4.15332 0.891602 6.19727zM317.032 324.306c0.0292969 0 -0.0322266 0 -0.0322266 0h0.0322266zM207.037 340.603l0.358398 -0.0761719zM207.396 340.526l0.0292969 -0.00683594s-0.00683594 0.00683594 -0.0292969 0.00683594zM296.513 387.08z
M212.284 340.208c-4.15234 0.179688 -4.96387 0.271484 -4.96387 0.271484l0.0751953 0.046875c-1.7959 0.743164 -3.45703 1.04004 -5.28223 1.75391l-0.240234 0.369141c-1.94922 1.59082 -6.49512 6.13672 -6.49512 13.9336
c0 0.586914 0.235352 1.83398 0.0839844 1.90039v0l0.891602 6.19727v0c0.674805 3.58008 1.45508 6.62891 1.47754 6.71094c3.31934 12.4512 3.34082 12.54 12.5479 50.4443c10.7314 42.752 23.2686 81.3535 55.9053 81.3535c9.23828 0 26.6875 -1.70117 40.666 -31.6631
c2.57617 -5.64258 4.64062 -10.6572 6.60547 -16.293l-52.918 -43.04c2.06348 8 4.12695 16 6.18945 24l-15.4844 4.01465l-7.75391 -50.5996l52.9238 -2.52832l1.12891 14.6748c-9.3877 0.0253906 -18.7764 0.0517578 -28.1641 0.078125l48.5586 38.9395
c3.27148 -11.6514 7.08301 -27.3066 13.1074 -52.0488c5.77148 -23.1826 6.80469 -27.334 6.80469 -31.3096c0 -9.35352 -6.14258 -16.1299 -10.8613 -16.7188c-2.25391 -0.299805 -4.50977 -0.448242 -6.77344 -0.448242
c-0.237305 0 -0.474609 0.00195313 -0.711914 0.00488281l-107.252 -0.046875zM324.261 324.442c16.6172 0 27.6621 15.6582 27.6621 33.0762c0 5.49805 -1.51367 12.2559 -3.65234 21.1631c-4.00098 15.8926 -7.91211 31.7812 -11.7422 47.7002
c-1.98926 8.01562 -4.12988 16.1055 -6.5293 23.9844l35.5762 28.5293l-9.62793 10.8174l-30.7373 -25c-5.81445 15.8037 -13.0723 29.8877 -22.7773 39.5928c-9.2002 9.2002 -21.8828 14.79 -35.6396 14.79c-34.3135 0 -50.4385 -30.6143 -59.7568 -57.7061
c-4.5791 -13.3662 -6.33301 -20.4502 -13.748 -50.4072c-11 -44.4385 -10.9961 -44.4551 -11.4375 -46.8672c-0.199219 -1.0918 -0.541016 -3.41016 -0.541016 -6.47461c0 -5.15234 1.11328 -16.9365 10.3379 -26.1621c6.67773 -6.67676 14.2012 -6.96777 20.4746 -7.1709
c16.5771 0.0664062 33.5762 0.0878906 48.9355 0.0878906c4.26562 0 4.26562 0 55.9746 -0.0898438l6.82617 0.138672h0.0957031c0.102539 -0.000976563 0.205078 -0.00195313 0.306641 -0.00195313zM248.22 515.683l0.0410156 0.015625
c-0.0136719 -0.00488281 -0.0410156 -0.015625 -0.0410156 -0.015625zM265.597 266.839c0.527344 -9.37695 -2.62695 -28.9199 -2.24121 -37.6504c0.398438 -0.707031 0.719727 -1.57422 0.8125 -2.57617c0.868164 -9.33301 4.79492 -18.9697 9.66016 -27.3994
c6.06543 -10.5088 13.5176 -19.0625 17.2686 -22.8125c1.29297 -1.29395 2.53223 -2.30566 2.55664 -2.3291c1.03809 -1.03809 1.58887 -2.37988 1.65332 -3.74023c0.740234 -2.38867 -0.163086 -4.99902 -2.27246 -6.40527l-4.89746 -3.26562
c-2.64551 -1.76367 -6.21094 -1.33887 -8.3623 1.00781c-10.8486 11.8057 -19.4375 21.1504 -27.5117 40.1436c-4.02832 -9.09766 -9.36328 -17.4863 -14.4111 -23.8975c-4.57227 -5.80762 -7.7793 -12.5098 -11.7109 -16.4414
c-2.34766 -2.34766 -6.05566 -2.5166 -8.59863 -0.50293c-5.89355 4.66504 -5.89355 4.66504 -6.16406 4.93555c-2.32715 2.32812 -2.51465 5.99316 -0.552734 8.53516c5.04297 6.53809 11.2598 15.3008 13.9707 18.8633c19.6826 25.8535 20.8242 60.7998 20.6611 80.0215
c-0.0302734 3.6582 2.96582 6.61328 6.62305 6.53223l5.92871 -0.130859c4.76172 -0.102539 7.59961 -3.97168 7.51367 -8.27832c-0.00878906 -0.436523 -0.046875 -2.46875 0.0742188 -4.60938zM260.809 326.044z" />
  </g>

</svg>
