<?xml version="1.0" standalone="no"?>
<!DOCTYPE svg PUBLIC "-//W3C//DTD SVG 1.1//EN" "http://www.w3.org/Graphics/SVG/1.1/DTD/svg11.dtd" >
<svg xmlns="http://www.w3.org/2000/svg" xmlns:xlink="http://www.w3.org/1999/xlink" version="1.1" viewBox="-10 0 1010 1000">
  <g transform="matrix(1 0 0 -1 0 800)">
   <path fill="currentColor"
d="M274.729 377.087zM274.547 374.927zM406.611 352.44c0 -16.75 -5.45898 -33.0869 -19.6543 -47.2812c-6.35547 -6.35645 -11.7129 -10.7695 -16.6318 -13.8145c28.9424 5.15723 66.6348 18.5518 91.2949 61.3633c-5.35547 9.27832 -11.8047 17.6963 -19.3984 25.29
c-16.6357 16.6357 -39.8721 30.2959 -70.6113 35.958c-0.384766 0.0712891 -0.25 -0.466797 -1.48242 -0.0986328c-0.816406 0.243164 -3.24414 0.96875 -6.7207 1.57031c7.47754 -2.94531 15.4365 -7.78711 23.2646 -15.6152
c13.8555 -13.8564 19.9395 -29.8916 19.9395 -47.3721zM337.744 303.849c18.835 0 29.7217 9.03906 35.5742 14.8906c12.3379 12.3389 14.0918 25.3232 14.0918 33.8936c-0.0429688 12.2764 -4.18066 23.6377 -14.0889 33.5449
c-20.1104 20.1104 -44.0762 15.5752 -54.9248 10.8887c-0.103516 0 -15.2676 -10.0049 -15.4219 -10.1064c-3.95215 -5.75195 -7.83691 -11.5723 -11.7627 -17.3506l-0.0390625 0.0146484c-6.36621 -17.624 -3.28906 -36.8301 11.1016 -51.2217
c9.92773 -9.92676 21.7842 -14.5537 35.4697 -14.5537zM340.834 268.037v-0.000976563c-17.9912 0 -77.5713 0.859375 -125.621 48.9102c-10.7148 10.7148 -19.1719 22.2998 -26.7402 35.7617c-0.0263672 0.0449219 -0.0517578 0.0908203 -0.0771484 0.137695
l0.0771484 -0.137695c8.57227 15.2471 17.335 26.4463 27.4893 36.6006c23.292 23.293 62.5674 48.2686 124.872 48.2686c16.0498 0 76.7812 -0.283203 124.834 -48.335c10.9609 -10.9619 19.5684 -22.8047 27.1924 -36.5332
c0.0253906 -0.0458984 0.0507812 -0.0917969 0.0751953 -0.135742l-0.0751953 0.135742c-4.07324 -7.33984 -12.3506 -21.5342 -26.6768 -35.8604c-47.627 -47.627 -106.391 -48.8115 -125.35 -48.8115zM310.179 414.098
c-50.1191 -9.1123 -75.8867 -36.1289 -90.4619 -61.3887c6.22754 -10.7471 13.2578 -19.0615 19.4121 -25.2168c14.4658 -14.4668 36.0771 -28.9141 67.4463 -35.3408c-5.95703 2.92188 -12.1611 7.08203 -18.0967 13.0186
c-22.8916 22.8916 -22.5498 51.7139 -15.2383 70.8369c0.111328 0.166992 0.0634766 0.274414 -0.108398 0.333984c-0.277344 1.47266 4.01074 8.75391 4.71484 10.5469c0.875977 2.23438 1.91797 3.31836 3.59277 4.83203c1.17285 1.05664 1.19238 1.07812 1.99023 2.40918
c1.19434 1.99316 1.24805 2.10742 6.47363 7.33203c4.11133 4.11133 13.7354 10.1777 20.2754 12.6367zM685.543 208.216l-78.8096 68.166l-13.9277 -15.8301l50.6953 -42.4346l-184.39 -0.214844l1.14062 -21.6943l183.086 1.47852l-48.3379 -40.6865l14.7744 -15.6289z
M37.3545 728.521h55.5146l17.1611 52.2256l17.1602 -52.2256h55.5156l-44.8672 -32.2959l17.1611 -52.2246l-44.9697 32.2959l-44.9707 -32.2959l17.1611 52.2246zM271 608l-12 60c128.725 89.7881 355.203 55.3633 442.457 48.5605
c0 -0.0107422 0.000976562 -0.0214844 0.000976562 -0.0322266c27.4463 0.582031 75.1855 -1.32129 107.268 -33.4033c40.1396 -40.1396 38.6152 -108.841 37.5254 -169.365c-0.395508 -21.9258 -0.433594 -33.2402 -0.22168 -41.9463
c26.3789 -43.8281 72.168 -89.959 89.3252 -129.607c6.95117 -16.0635 5.49219 -24.7637 2.64551 -40.2051l-12 -14l-79.501 -63.5771v-212.431c1.93945 -31.0869 1.82422 -79.2412 -27.416 -108.48c-26.0322 -26.0322 -182.507 -12.0195 -220.584 -13.0049
l-2.90137 0.0126953c-103.732 -7.2998 -296.108 50.6025 -326.603 92.1719c-18.5059 25.2275 -31.4014 41.2529 -57.9951 55.3086v70.0371c25.8174 -16.2627 49.624 -17.8066 70.1904 -60.6357c44.2188 -92.082 349.455 -105.734 451.309 -108.438l-0.499023 -0.962891
c50 12 34.1514 4.48145 42.5352 13.5361c19.1768 20.7119 3.97852 41.9688 5.50781 57.9648h-0.541992v2.14941c-0.253906 0.990234 -0.500977 1.94141 -0.738281 2.84863h0.738281v207.174v3.4873v1.33887h1.58203l104 88h1.13281
c4.9834 45.8955 -62.8379 92.1289 -94.2158 139.501l-3 4l-1 1c-2.02051 3.99219 0.0439453 4.02539 -2.08398 11.5605c-0.0371094 0.130859 -0.189453 0.24707 -0.174805 0.367188l0.258789 2.07227l0.0644531 1.49902
c0.00976562 0.226562 0.150391 3.89551 0.242188 6.24414c3.11426 79.1523 5.19727 173.389 -83.8154 173.771c-136.35 16.7461 -373.536 9.53418 -431.49 -46.5137z" />
  </g>

</svg>
