<?xml version="1.0" standalone="no"?>
<!DOCTYPE svg PUBLIC "-//W3C//DTD SVG 1.1//EN" "http://www.w3.org/Graphics/SVG/1.1/DTD/svg11.dtd" >
<svg xmlns="http://www.w3.org/2000/svg" xmlns:xlink="http://www.w3.org/1999/xlink" version="1.1" viewBox="-10 0 1008 1000">
  <g transform="matrix(1 0 0 -1 0 800)">
   <path fill="currentColor"
d="M828.399 483.872c0 9.49878 0.360099 25.4826 0.360099 28.905l-0.318652 61.3747l-8.69455 54.78l-24.0577 41.7601l-29.8355 19.1251l-33.9409 8.02542l-47.9505 1.85133v0.765382l-107.704 8.96128l-161.614 -4.8437l-135.511 -48.0118l4.97421 -24.8711
l90.1513 34.2037l168.519 13.9909l163.859 -8.05849l72.0585 -32.0852l24.6852 -76.5829c-11.2968 -92.7231 -11.5388 -94.7093 -10.6225 -98.1968c0.272553 -1.03738 0.408327 -1.98777 0.495372 -2.92219c0.487753 -0.641757 1.13403 -1.58506 1.4862 -2.05622
l30.4464 -40.7334l38.0432 -60.0682l23.93 -33.502l-96.7113 -80.2498l-3.19974 -219.288c0.962733 -7.56244 2.78458 -22.0112 5.01798 -45.877c-0.12894 -0.269919 -9.65147 -20.9678 -12.8349 -27.02c-1.80565 -3.43278 -3.36365 -6.39475 -8.94453 -11.1259
c-28.726 -6.87192 -37.6748 -9.01268 -53.7943 -9.01268c-3.38415 0 -6.77838 0.14333 -10.1737 0.446144l-127.95 -3.2205l-189.706 31.9736l-119.91 72.0259l-21.8729 31.5454c-0.18608 0.126152 -14.9542 10.3475 -18.5829 12.6523v-31.4635
c5.41685 -3.87145 13.5068 -7.36272 24.4398 -17.2503c7.32645 -6.62591 2.09556 -4.45645 10.6241 -11.9264c1.03002 -0.902171 1.03002 -0.902171 17.2005 -21.8062l70.2643 -41.1391l123.979 -35.7692l40.8353 -3.74581
c52.8258 -4.90757 59.0669 -6.73248 83.0467 -7.42728l68.08 -1.97257l89.7606 0.254271l51.1066 12.4914l15.1376 25.2075l6.27671 34.16l-0.268638 82.9487l0.0291888 84.2282l-0.00582149 87.5189l84.7837 67.8016l7.68593 8.96692l1.11464 7.19504
c0.44913 7.61262 -1.52476 12.8022 -3.31214 18.1783l-23.3304 38.8443l-33.0243 43.448l-34.3179 48.9016c-0.202711 16.1296 -0.202711 16.1296 -0.202711 17.6951zM48.3545 723.521h55.5146l17.1611 52.2256l17.1602 -52.2256h55.5156l-44.8672 -32.2959
l17.1611 -52.2246l-44.9697 32.2959l-44.9707 -32.2959l17.1611 52.2246zM48.3545 723.521h55.5146l17.1611 52.2256l17.1602 -52.2256h55.5156l-44.8672 -32.2959l17.1611 -52.2246l-44.9697 32.2959l-44.9707 -32.2959l17.1611 52.2246zM306.004 429.643
c0 0.126953 -0.327148 10.166 -0.327148 12.6211c0 1.81738 0.0361328 3.50391 0.0361328 3.53906c0 1.38867 -0.210938 12.4248 -1.75879 12.459l-12.7705 0.28125c0.015625 -2.0957 0.00390625 -14.0127 -0.0214844 -16.2715
c-0.513672 -46.3691 -11.9883 -86.6035 -45.8867 -150.582c-0.250977 -0.473633 -24.4561 -33.4043 -31.8379 -43.0098c1.00977 -0.804688 1.00977 -0.804688 11.5664 -9.16211c6.64941 7.10938 15.2676 23.3398 25.2676 36.0371
c17.127 21.752 36.0791 55.0469 42.6406 85.9668l2.25391 10.6211l3.18457 -10.3789c20.0361 -65.3066 45.2432 -92.5645 68.6514 -117.906l4.0332 -4.37695l6.8418 4.56055l-1.12207 0.626953c0.450195 1.03125 2.16113 2.31055 1.35254 3.09375
c-11.7227 11.3359 -48.0605 64.8398 -70.207 128.711c-0.167969 0.484375 -2.15039 1.68555 -2.15039 11.3125c0 18.6328 0.253906 22.0586 0.253906 41.8574zM378.107 247.762c0.251953 0.578125 0.503906 1.1543 0.757812 1.73242
c1.05273 0.255859 2.10742 0.511719 3.16016 0.768555l-0.851562 -4.02344l0.535156 0.356445l0.1875 -4.79688c-1.33984 0.748047 -2.67969 1.49512 -4.01953 2.24219l2.55176 1.70215c-0.486328 0.400391 -1.28027 1.07324 -2.32129 2.01855zM371.035 239.48
l0.516602 -0.5625l-1.18262 0.119141zM225.004 239.518c0.219727 -0.173828 0.442383 -0.348633 0.666016 -0.525391l-1.24512 -0.0742188c0.19043 0.191406 0.383789 0.390625 0.579102 0.599609zM213.438 248.68
c-0.19043 -0.248047 -0.378906 -0.493164 -0.566406 -0.736328c0 0 -0.0761719 1.23242 -0.0791016 1.23633c0.142578 -0.115234 0.373047 -0.283203 0.645508 -0.5zM291.184 458.543l-0.96582 0.0214844c0.526367 0.109375 0.852539 0.416016 0.958008 0.945312
c0.00195312 -0.320312 0.0078125 -0.642578 0.0078125 -0.966797zM472.986 361.099zM472.834 362.898zM582.887 381.637c0 13.959 -4.54883 27.5723 -16.377 39.4014c-5.29688 5.29688 -9.76172 8.97559 -13.8613 11.5127c24.1191 -4.29883 55.5293 -15.46 76.0801 -51.1367
c-4.46289 -7.73242 -9.83789 -14.7461 -16.166 -21.0742c-13.8633 -13.8633 -33.2266 -25.248 -58.8418 -29.9658c-0.321289 -0.0595703 -0.208984 0.389648 -1.23633 0.0830078c-0.679688 -0.203125 -2.70312 -0.808594 -5.59961 -1.30859
c6.23047 2.45312 12.8633 6.48828 19.3867 13.0117c11.5469 11.5469 16.6152 24.9102 16.6152 39.4766zM525.498 422.131c15.6963 0 24.7676 -7.5332 29.6445 -12.4102c10.2832 -10.2812 11.7441 -21.1016 11.7441 -28.2441
c-0.0351562 -10.2305 -3.48438 -19.6973 -11.7412 -27.9531c-16.7588 -16.7598 -36.7295 -12.9805 -45.7705 -9.07422c-0.0859375 0 -12.7227 8.33789 -12.8516 8.42188c-3.29297 4.79297 -6.53027 9.64355 -9.80176 14.459l-0.0322266 -0.0117188
c-5.30566 14.6855 -2.74121 30.6914 9.25 42.6836c8.27344 8.27344 18.1543 12.1289 29.5586 12.1289zM528.072 451.974v0.000976563c-14.9922 0 -64.6416 -0.716797 -104.684 -40.7598c-8.92969 -8.92773 -15.9766 -18.582 -22.2832 -29.8008
c-0.0214844 -0.0371094 -0.0429688 -0.0761719 -0.0644531 -0.115234l0.0644531 0.115234c7.14258 -12.7051 14.4453 -22.0391 22.9072 -30.5c19.4111 -19.4111 52.1396 -40.2246 104.06 -40.2246c13.376 0 63.9844 0.236328 104.029 40.2793
c9.13379 9.13477 16.3066 19.0039 22.6602 30.4453c0.0214844 0.0371094 0.0419922 0.0761719 0.0625 0.113281l-0.0625 -0.113281c-3.39453 6.11523 -9.45312 18.8477 -22.2305 29.8828c-39.6895 34.2725 -88.6582 41.0166 -104.459 40.6768zM502.527 330.256
c-41.7666 7.59375 -63.2393 30.1074 -75.3848 51.1582c5.18945 8.95508 11.0469 15.8848 16.1758 21.0137c12.0557 12.0547 30.0645 24.0947 56.2061 29.4512c-4.96387 -2.43555 -10.1338 -5.90234 -15.0811 -10.8496c-19.0762 -19.0762 -18.791 -43.0957 -12.6992 -59.0312
c0.09375 -0.138672 0.0537109 -0.228516 -0.0898438 -0.277344c-0.230469 -1.22852 3.34277 -7.29492 3.92969 -8.78906c0.730469 -1.86328 1.59766 -2.76562 2.99414 -4.02734c0.976562 -0.880859 0.993164 -0.898438 1.6582 -2.00781
c0.995117 -1.66016 1.04004 -1.75586 5.39453 -6.10938c3.42578 -3.42578 11.4463 -8.48242 16.8965 -10.5312zM618.221 183.809l48.7793 42.1914l-46.9717 41.4395l-11.9209 -12.6094l24.043 -20.2383l-145.232 2.67578l-0.916016 -17.4102l146.289 -1.99023
l-25.3594 -21.2266z" />
  </g>

</svg>
