<?xml version="1.0" standalone="no"?>
<!DOCTYPE svg PUBLIC "-//W3C//DTD SVG 1.1//EN" "http://www.w3.org/Graphics/SVG/1.1/DTD/svg11.dtd" >
<svg xmlns="http://www.w3.org/2000/svg" xmlns:xlink="http://www.w3.org/1999/xlink" version="1.1" viewBox="-10 0 1028 1000">
  <g transform="matrix(1 0 0 -1 0 800)">
   <path fill="currentColor"
d="M395.124 631.023l-28.0586 29.1875l13.6367 13.8252l28.1602 -27.999l28.7979 27.5459l15.6904 -12.4912l-29.4229 -29.7139l31.4922 -26.8672l-15.4199 -13.0107l-31.0059 25.542l-29.5459 -27.9951l-12.4482 15.4531zM367.6 563.395
c1.57129 0 12.8291 -10.2002 14.4004 -10.2002l5.7002 -3.59961l156.3 -84.0947v81.4062l94.2002 0.716797v16.6748l-252.556 -0.607422zM616.959 715.2c21.374 0 53.0391 -11.6445 70.1777 -26.9199l0.15625 -0.166016c14.8633 -15.8535 27.1396 -46.7227 27.1396 -68.3652
c0 -2.17773 -0.129883 -5.07031 -0.165039 -5.88477c0 -0.0351562 -0.00390625 -0.0654297 -0.00390625 -0.0908203c-0.0205078 -18.1621 -5.30859 -54.9053 -51.2363 -99.4307c-88.4424 -85.7471 -136.896 -132.335 -146.505 -141.066
c-1.26953 -1.15234 -1.04883 -1.42285 -2.87793 -2.125l-1.91113 -0.802734c-2.67773 1.17969 -2.92871 1.28906 -3.72949 2.15039c-11.6348 12.5098 -148.765 143.353 -150.24 144.828c-15.6592 15.6592 -29.0205 36.4111 -31.0205 39.8496
c-3.99902 6.92773 -9.33594 19.0361 -11.752 26.6592c-4.05762 12.8037 -5.28613 25.166 -5.33984 35.3604l-0.00488281 0.87793c2.40234 6.77734 6.51367 25.3232 13.5723 43.6162c1.6875 4.37305 7.69043 19.207 13.3662 24.3213
c16.5098 14.875 48.3096 27.1553 70.4355 27.1553c10.3877 0 20.7158 -1.48242 32.6699 -5.42676c19.6846 -6.49707 44.0752 -22.5586 66.6348 -45.1191c4.02344 -4.02246 4.58789 -4.34961 5.07227 -4.34961c0.09375 0 0.18457 0.0126953 0.296875 0.0126953
c0.959961 0 0.959961 0 9.99902 9.03809c4.2627 4.2627 32.0283 31.2217 62.1709 41.1553c13.0908 4.45605 28.9482 4.72266 33.0947 4.72266zM733.271 619.24v0.24707c0 30.5254 -17.5186 67.207 -33.6484 83.3359c-10.7393 10.7393 -48.9697 31.8994 -83.0312 31.8994
c-20.1953 0 -34.7773 -4.49219 -39.791 -6.28125c-9.12988 -3.06055 -22.5029 -9.55469 -30.5371 -14.8311l0.0292969 0.0205078c-0.00976563 -0.00683594 -0.0195312 -0.0136719 -0.0585938 -0.0390625c0.00976562 0.00585938 0.0195312 0.0126953 0.0292969 0.0185547v0
c-13.6162 -9.23047 -20.8389 -14.127 -35.2793 -26.9629c-50.041 44.7705 -81.5791 47.4912 -104.918 47.4912c-31.3818 0 -69.7441 -18.582 -84.2051 -33.043c-10.6631 -10.6631 -31.7529 -47.5645 -31.7529 -81.1113c0 -20.5537 3.13867 -34.3984 5.70508 -42.3398
c2.84473 -8.96484 8.78027 -22.3984 13.4922 -30.542c1.30371 -2.25488 3.43359 -5.21875 14.7129 -20.2725l0.116211 -0.974609c-0.00976562 0.0419922 -0.0439453 0.0712891 -0.0439453 0.0712891c0.00585938 -0.015625 0.0214844 -0.0478516 0.046875 -0.0957031
c3.34473 -6.17871 17.46 -20.6367 22.5879 -25.6025l147.642 -142.973c1.43262 -1.38867 7.70801 -7.18262 16.7344 -7.18262c5.14941 0 11.1953 1.88574 17.748 7.55176c1.31152 1.13379 11.7139 10.126 147.151 142.375c57.1816 55.8359 57.2705 99.0586 57.2705 119.24z
M33.5039 -94.9844h42.7031l13.2012 40.1738l13.2002 -40.1738h42.7041l-34.5127 -24.8428l13.2002 -40.1729l-34.5918 24.8428l-34.5928 -24.8428l13.2012 40.1729zM305.302 115.586l-82.2217 148.848l24.0225 10.1475l58.4395 -100.383l53.3027 101.418l27.2285 -11.0254z
M222.389 -49.8145v34.6641h38.626v22.0713h-38.626v34.6641h38.626v33.7148h31.3828v-33.7148h23.2197v31.2539h31.3828v-31.2539h41.292v-34.6641h-41.292v-22.0713h41.292v-34.6641h-41.292v-36.1855h-31.3828v36.1855h-23.2197v-33.7246h-31.3828v33.7246h-38.626z
M292.397 -15.1504h23.2197v22.0713h-23.2197v-22.0713zM836 0h-323.297l0.216797 164.161c-12.123 -5.10645 -24.2471 -10.2129 -36.3701 -15.3193v43.2637l196.607 82.8945c0.270508 0.114258 24.2031 7.23242 21.8086 6.55957
c14.0449 -8.15234 9.19141 -4.55957 37.1914 -21.5596l3.47754 -2.04395l133.207 -77.3066l0.775391 -46.5869c-10.9932 6.50293 -21.9854 13.0059 -32.9785 19.5098zM552.885 40.2158h243.036l1.16699 136.753l-105.537 62.4346l-139.312 -58.6816z" />
  </g>

</svg>
