<?xml version="1.0" standalone="no"?>
<!DOCTYPE svg PUBLIC "-//W3C//DTD SVG 1.1//EN" "http://www.w3.org/Graphics/SVG/1.1/DTD/svg11.dtd" >
<svg xmlns="http://www.w3.org/2000/svg" xmlns:xlink="http://www.w3.org/1999/xlink" version="1.1" viewBox="-10 0 1008 1000">
  <g transform="matrix(1 0 0 -1 0 800)">
   <path fill="currentColor"
d="M159.433 110.205l-82.2217 148.848l24.0225 10.1475l58.4395 -100.383l53.3027 101.418l27.2285 -11.0254zM76.5195 -55.1953v34.6641h38.626v22.0713h-38.626v34.6641h38.626v33.7148h31.3828v-33.7148h23.2197v31.2539h31.3828v-31.2539h41.292v-34.6641h-41.292
v-22.0713h41.292v-34.6641h-41.292v-36.1855h-31.3828v36.1855h-23.2197v-33.7246h-31.3828v33.7246h-38.626zM146.528 -20.5312h23.2197v22.0713h-23.2197v-22.0713zM414.854 -36.9209h313.313l0.654256 157.32l32.7941 -19.4007l-0.579589 34.8228l-139.452 80.931
l1.17635 0.494788c-18.304 9.50355 -20.6963 10.8366 -31.6203 17.1747l-212.445 -87.584v-32.3836l36.3801 15.3235zM445.054 -6.70312l-0.684734 148.819l144.706 60.9536l110.181 -65.182l-1.23388 -144.591h-252.969zM5.35449 740.521h55.5146l17.1611 52.2256
l17.1602 -52.2256h55.5156l-44.8672 -32.2959l17.1611 -52.2246l-44.9697 32.2959l-44.9707 -32.2959l17.1611 52.2246zM331 258c-0.0654297 0 -0.169922 -0.000976562 -0.235352 -0.000976562c-4.74121 0 -11.2939 2.73828 -14.626 6.1123l-140.556 136.111
c-1.86035 1.54492 -4.72168 4.2207 -6.38965 5.97168c-2.91602 2.91699 -7.08203 7.91699 -12.916 15.2783c-4.79199 5.99316 -11.8848 16.1982 -15.834 22.7773c-4.34961 7.5166 -10.0117 20.334 -12.6387 28.6113c-2.83789 8.78223 -5.14062 23.4004 -5.14062 32.6289
c0 0.194336 0.000976562 0.509766 0.00195312 0.704102c-0.0957031 1.71777 -0.173828 4.50781 -0.173828 6.22852c0 24.376 13.5801 58.5459 30.3125 76.2715c18.2402 16.5605 53.0391 30 77.6748 30c1.5625 0 4.09863 -0.0615234 5.65918 -0.138672
c8.70117 -0.0449219 22.4531 -2.34668 30.6943 -5.13867c8.39551 -2.80664 21.2129 -9.02832 28.6104 -13.8887c8.47266 -5.55566 15.834 -10.834 22.084 -15.834s8.61133 -7.22168 12.7773 -11.1104c4.16699 3.88867 8.33398 7.5 12.7783 11.1104
c4.44434 3.61133 13.8887 10.2783 22.083 15.834c7.39746 4.8623 20.2148 11.084 28.6113 13.8887c8.40234 3.0127 22.4639 5.56348 31.3887 5.69434c1.56055 0.0771484 4.0957 0.138672 5.65918 0.138672c24.6357 0 59.4346 -13.4395 77.6748 -30
c17.1113 -17.8047 30.998 -52.2969 30.998 -76.9912c0 -1.6748 -0.0742188 -4.3916 -0.165039 -6.06445c0 -35 -18.0557 -70.6943 -53.6113 -106.25l-140 -135.416c-3.29004 -3.5459 -9.88574 -6.4707 -14.7217 -6.52832zM236.833 605.223
c-1.50195 0.0800781 -3.94238 0.145508 -5.44629 0.145508c-21.8564 0 -52.7051 -11.9502 -68.8594 -26.6738c-14.4434 -15.4658 -26.166 -45.1943 -26.166 -66.3564c0 -1.69727 0.0859375 -4.44922 0.193359 -6.14355c0.0986328 -8.19434 2.33887 -21.1367 5 -28.8887
c2.36816 -7.47168 7.4707 -19.0449 11.3887 -25.833c3.56152 -6.12598 9.9707 -15.6455 14.3066 -21.25c5.55469 -6.94434 9.58301 -11.667 12.083 -13.8887c1.44824 -1.5459 3.9375 -3.91016 5.55566 -5.27832l141.111 -136.111
c1.13574 -1.21289 3.40625 -2.19824 5.06836 -2.19824c1.66309 0 3.93359 0.985352 5.07031 2.19824l140.555 135.278c32.7783 32.7773 49.4453 65.2773 49.4453 96.3887c0.0878906 1.54102 0.160156 4.04492 0.160156 5.58887c0 21.4053 -11.9561 51.3818 -26.6875 66.9111
c-16.1016 14.5107 -46.7607 26.2881 -68.4355 26.2881c-1.66016 0 -4.35254 -0.0791016 -6.00977 -0.176758c-7.44336 -0.0546875 -19.2031 -2.0459 -26.25 -4.44434c-7.45508 -2.45703 -18.8418 -7.93262 -25.416 -12.2227
c-8.05664 -5.27734 -15.1387 -10.416 -20.9727 -15c-4.84375 -4.03223 -12.3105 -11.001 -16.666 -15.5557l-4.86133 -4.86035l-4.86133 4.86035c-4.33398 4.35547 -11.7383 11.0137 -16.5273 14.8613c-5.83398 4.72266 -12.918 9.72266 -20.9727 15
c-6.57617 4.28711 -17.9629 9.7627 -25.417 12.2227c-7.05176 2.6084 -18.874 4.91113 -26.3887 5.13867zM935.88 530.561l-324 1.08008v21.3799h290.5v121.4h-290.5v21.3799l321.12 -1.80078z" />
  </g>

</svg>
