<?xml version="1.0" standalone="no"?>
<!DOCTYPE svg PUBLIC "-//W3C//DTD SVG 1.1//EN" "http://www.w3.org/Graphics/SVG/1.1/DTD/svg11.dtd" >
<svg xmlns="http://www.w3.org/2000/svg" xmlns:xlink="http://www.w3.org/1999/xlink" version="1.1" viewBox="-10 0 1043 1000">
  <g transform="matrix(1 0 0 -1 0 800)">
   <path fill="currentColor"
d="M30.3242 741.553h55.5146l17.1611 52.2256l17.1602 -52.2256h55.5156l-44.8672 -32.2959l17.1611 -52.2246l-44.9697 32.2959l-44.9707 -32.2959l17.1611 52.2246zM271 608l-12 60c128.725 89.7881 355.203 55.3633 442.457 48.5605
c0 -0.0107422 0.000976562 -0.0214844 0.000976562 -0.0322266c27.4463 0.582031 75.1855 -1.32129 107.268 -33.4033c40.1396 -40.1396 38.6152 -108.841 37.5254 -169.365c-0.395508 -21.9258 -0.433594 -33.2402 -0.22168 -41.9463
c26.3789 -43.8281 72.168 -89.959 89.3252 -129.607c6.95117 -16.0635 5.49219 -24.7637 2.64551 -40.2051l-12 -14l-79.501 -63.5771v-212.431c1.93945 -31.0869 1.82422 -79.2412 -27.416 -108.48c-26.0322 -26.0322 -182.507 -12.0195 -220.584 -13.0049
l-2.90137 0.0126953c-103.732 -7.2998 -296.108 50.6025 -326.603 92.1719c-18.5059 25.2275 -31.4014 41.2529 -57.9951 55.3086v70.0371c25.8174 -16.2627 49.624 -17.8066 70.1904 -60.6357c44.2188 -92.082 349.455 -105.734 451.309 -108.438l-0.499023 -0.962891
c50 12 34.1514 4.48145 42.5352 13.5361c19.1768 20.7119 3.97852 41.9688 5.50781 57.9648h-0.541992v2.14941c-0.253906 0.990234 -0.500977 1.94141 -0.738281 2.84863h0.738281v207.174v3.4873v1.33887h1.58203l104 88h1.13281
c4.9834 45.8955 -62.8379 92.1289 -94.2158 139.501l-3 4l-1 1c-2.02051 3.99219 0.0439453 4.02539 -2.08398 11.5605c-0.0371094 0.130859 -0.189453 0.24707 -0.174805 0.367188l0.258789 2.07227l0.0644531 1.49902
c0.00976562 0.226562 0.150391 3.89551 0.242188 6.24414c3.11426 79.1523 5.19727 173.389 -83.8154 173.771c-136.35 16.7461 -373.536 9.53418 -431.49 -46.5137zM656.314 441.146h-282.294l1.5 -282.293h282.294zM677.604 139.063h-321.873v321.873h321.873v-321.873z
M484.539 340.504v0c-45.0791 -0.0527344 -81.6992 -36.6582 -81.75 -81.7393c-0.0644531 -55.8936 45.457 -101.539 100.127 -101.64c67.7578 0.0507812 122.506 56.4512 122.506 124.213c0 84.1875 -66.2959 161.003 -149.267 161.104
c-1.4541 0.00195312 -2.90723 0.00390625 -4.36426 0.00390625v-17.5703c1.45312 -0.00195312 2.90234 -0.00390625 4.35352 -0.00585938c73.7441 -0.09375 131.706 -69.6211 131.706 -143.354c0 -56.3262 -45.6377 -105.386 -105.171 -105.434
c-45.4385 0.0917969 -82.3203 37.0664 -82.3203 82.5c0 36.0547 29.126 64.3506 64.1738 64.3506c27.3076 -0.0439453 49.5176 -22.2617 49.5625 -49.5713c0.00195312 -1.44922 0.00585938 -2.89844 0.0078125 -4.34961h17.5693c0 0.375 0 0.375 -0.00585937 4.36426
c-0.0517578 37.0049 -30.1182 67.0752 -67.1279 67.1279z" />
  </g>

</svg>
