<?xml version="1.0" standalone="no"?>
<!DOCTYPE svg PUBLIC "-//W3C//DTD SVG 1.1//EN" "http://www.w3.org/Graphics/SVG/1.1/DTD/svg11.dtd" >
<svg xmlns="http://www.w3.org/2000/svg" xmlns:xlink="http://www.w3.org/1999/xlink" version="1.1" viewBox="-10 0 1014 1000">
  <g transform="matrix(1 0 0 -1 0 800)">
   <path fill="currentColor"
d="M828.399 483.872c0 9.49878 0.360099 25.4826 0.360099 28.905l-0.318652 61.3747l-8.69455 54.78l-24.0577 41.7601l-29.8355 19.1251l-33.9409 8.02542l-47.9505 1.85133v0.765382l-107.704 8.96128l-161.614 -4.8437l-135.511 -48.0118l4.97421 -24.8711
l90.1513 34.2037l168.519 13.9909l163.859 -8.05849l72.0585 -32.0852l24.6852 -76.5829c-11.2968 -92.7231 -11.5388 -94.7093 -10.6225 -98.1968c0.272553 -1.03738 0.408327 -1.98777 0.495372 -2.92219c0.487753 -0.641757 1.13403 -1.58506 1.4862 -2.05622
l30.4464 -40.7334l38.0432 -60.0682l23.93 -33.502l-96.7113 -80.2498l-3.19974 -219.288c0.962733 -7.56244 2.78458 -22.0112 5.01798 -45.877c-0.12894 -0.269919 -9.65147 -20.9678 -12.8349 -27.02c-1.80565 -3.43278 -3.36365 -6.39475 -8.94453 -11.1259
c-28.726 -6.87192 -37.6748 -9.01268 -53.7943 -9.01268c-3.38415 0 -6.77838 0.14333 -10.1737 0.446144l-127.95 -3.2205l-189.706 31.9736l-119.91 72.0259l-21.8729 31.5454c-0.18608 0.126152 -14.9542 10.3475 -18.5829 12.6523v-31.4635
c5.41685 -3.87145 13.5068 -7.36272 24.4398 -17.2503c7.32645 -6.62591 2.09556 -4.45645 10.6241 -11.9264c1.03002 -0.902171 1.03002 -0.902171 17.2005 -21.8062l70.2643 -41.1391l123.979 -35.7692l40.8353 -3.74581
c52.8258 -4.90757 59.0669 -6.73248 83.0467 -7.42728l68.08 -1.97257l89.7606 0.254271l51.1066 12.4914l15.1376 25.2075l6.27671 34.16l-0.268638 82.9487l0.0291888 84.2282l-0.00582149 87.5189l84.7837 67.8016l7.68593 8.96692l1.11464 7.19504
c0.44913 7.61262 -1.52476 12.8022 -3.31214 18.1783l-23.3304 38.8443l-33.0243 43.448l-34.3179 48.9016c-0.202711 16.1296 -0.202711 16.1296 -0.202711 17.6951zM33.2949 712.521h55.5146l17.1611 52.2256l17.1602 -52.2256h55.5156l-44.8672 -32.2959
l17.1611 -52.2246l-44.9697 32.2959l-44.9707 -32.2959l17.1611 52.2246zM445.088 63.9111c-20.2363 9.29785 -57.9766 40.3945 -66.4688 55.0615c-15.3428 26.4932 -16.082 31.6904 -16.6191 112.027c-0.557617 83.4268 -0.0546875 80.4209 -21.1025 128.796
c-11.0771 25.4648 -25.3496 44.7549 -28.9932 44.7549c-3.63867 0 -8.04688 4.62402 -11.374 9.35352c-6.03809 8.5918 -5.91504 10.8877 0.876953 19.6309c6.01953 7.74805 12.5342 9.5752 30.5596 9.8125c19.5439 0.25293 25.791 -1.80078 42.8711 -14.0527
c10.792 -7.74023 21.3037 -15.7754 23.8633 -18.3555c0.835938 -0.842773 2.04883 -1.74316 2.17969 -1.83496c0.902344 2.1123 2.21875 5.23145 3.65625 8.66309c2.23145 5.32715 12.915 17.8193 24.1592 28.8574c22.6182 22.1992 36.417 25.8896 55.7578 13.375
c15.1738 -9.81934 38.8877 -39.6406 38.8877 -50.7041c0 -0.355469 0.00390625 -0.785156 0.00390625 -0.785156c1.19922 1.81152 1.67285 2.58984 2.81641 4.46191c10.8896 17.8193 45.6172 30.5693 73.7627 27.9746c21.2686 -1.95605 37.0088 -10.1787 37.0088 -22.7236
c0 -3.78125 -8.33594 -14.3711 -17.9502 -25.7852c-10.4072 -12.3545 -21.8721 -31.7705 -28.9062 -49.001l-11.5664 -28.335l3.61914 -42.7314c5.62109 -66.3945 1.92676 -101.969 -14.4883 -136.159c-2.19531 -4.57129 -8.13867 -17.2686 -13.1924 -28.1758
c-4.88965 -10.5586 -10.835 -21.0029 -15.6104 -21.0029c-1.80176 0 -6.2959 -1.61523 -9.09668 -3.56543c-35.1787 -24.4854 -60.4492 -30.6777 -84.6543 -19.5566zM481.993 76.9014c1.51758 3.16016 6.81445 5.96387 11.9414 7.58105
c4.55078 1.43457 16.208 7.27051 25.3193 12.7754c13.9463 8.42676 18.2656 13.9238 30.8926 40.0029c19.9033 41.1094 22.9131 63.002 17.9404 132.173l-3.81934 53.1201c-0.0224609 0.30957 0.0371094 0.642578 0.148438 0.912109l11.793 28.3467
c7.1416 17.168 18.7031 36.4629 28.9922 48.3086c7.58008 8.72754 13.3467 17.4189 14.2666 19.877c-2.6123 1.27637 -10.0742 3.08789 -18.0986 4.15332c-24.2607 3.22461 -57.8418 -11.501 -64.7754 -27.3555c-2.7959 -6.3916 -6.28418 -10.5654 -10.4258 -11.8027
c-6.69336 -2.00195 -12.0479 4.26562 -14.7773 14.2988c-7.21289 26.5049 -38.4141 54.2988 -51.8633 49.7783c-11.6709 -3.92188 -38.5566 -33.1133 -44.2461 -48.585c-2.93359 -7.97656 -5.90137 -13.2588 -9.70996 -15.4375
c-5.05371 -2.89258 -9.65625 0.932617 -13.1787 7.27441c-1.93848 3.48828 -12.5752 13.3535 -23.1279 20.8955c-15.5566 11.1152 -22.0693 13.4658 -35.7188 13.1914c-9.54199 -0.191406 -18.4268 -2.81934 -19.3945 -4.06543
c-0.404297 -0.519531 -0.866211 -1.23828 -0.866211 -1.23828l0.660156 -0.0205078c9.46289 0 29.1123 -29.5967 40.3721 -55.5156c21.6191 -49.7656 21.1807 -47.0352 21.5938 -130.925c0.375 -76.2441 0.556641 -77.8701 8.69141 -95.7393
c12.6299 -27.7441 62.1885 -63.4551 88.7402 -64.3047c4.65527 -0.149414 8.37695 1.72852 8.65039 2.30078z" />
  </g>

</svg>
