<?xml version="1.0" standalone="no"?>
<!DOCTYPE svg PUBLIC "-//W3C//DTD SVG 1.1//EN" "http://www.w3.org/Graphics/SVG/1.1/DTD/svg11.dtd" >
<svg xmlns="http://www.w3.org/2000/svg" xmlns:xlink="http://www.w3.org/1999/xlink" version="1.1" viewBox="-10 0 1016 1000">
  <g transform="matrix(1 0 0 -1 0 800)">
   <path fill="currentColor"
d="M303 137l-82.2217 148.848l24.0225 10.1475l58.4395 -100.383l53.3027 101.418l27.2285 -11.0254zM220.087 -28.4004v34.6641h38.626v22.0713h-38.626v34.6641h38.626v33.7148h31.3828v-33.7148h23.2197v31.2539h31.3828v-31.2539h41.292v-34.6641h-41.292v-22.0713
h41.292v-34.6641h-41.292v-36.1855h-31.3828v36.1855h-23.2197v-33.7246h-31.3828v33.7246h-38.626zM290.096 6.26367h23.2197v22.0713h-23.2197v-22.0713zM547.621 -1.96973h313.312l0.654297 157.319c10.9316 -6.4668 21.8633 -12.9336 32.7939 -19.4004
l-0.579102 34.8232l-139.452 80.9307l1.17578 0.495117c-17.96 9.3252 -20.6006 10.7832 -31.0918 16.8213c-0.114258 0 -0.225586 0.00683594 -0.333008 0.00683594c-0.302734 0.0185547 -0.574219 0.0498047 -0.818359 0.0898438l-211.822 -87.3281v-32.3828
c12.127 5.10742 24.2529 10.2158 36.3799 15.3232zM830.79 28.248h-252.969l-0.685547 148.819l144.706 60.9531l110.182 -65.1816zM62.5039 -39.9844h42.7031l13.2012 40.1738l13.2002 -40.1738h42.7041l-34.5127 -24.8428l13.2002 -40.1729l-34.5918 24.8428
l-34.5928 -24.8428l13.2012 40.1729zM717.449 301.016c-12.3223 0 -12.3223 0 -81.6553 0.635742l0.0898438 0.487305h-4.86719l4.32422 264.451l-95.8359 52.666v15.2021l90.1729 -51.4697c5.03711 -0.0126953 10.3057 0.00292969 15.9463 0.0332031l-62.1201 116.848
h17.6455l62.0605 -116.731l2.59863 0.0185547l0.998047 160.143h20.2695l-0.99707 -160.038c1.97559 0 3.95117 0.00195312 5.92676 0.00195312l67.2031 127.589h17.6396l-66.5547 -126.356l82.6064 33.2031v-15.4844c-22.4072 -9.90723 -44.7832 -19.8438 -67.209 -29.7314
l-12.3916 -2.9502l2.16895 -72.251l17.8203 10.3604l3.8916 -25.2988l-20.8818 -12.7109l5.14355 -171.317zM697.728 320.289l-6.19531 247.801h-3.2002l3.7168 -247.801h5.67871zM663.305 320.889v247.904l-3.69531 0.433594l-1.23828 -248.841zM906 667l-70.0771 -6.83691
l2.55859 68.1406l11.1084 -0.0351562l-2.98633 -49.1055l92.7686 99.1133l8.58789 -7.34961l-93.9111 -98.9531l50.9912 5.80957z" />
  </g>

</svg>
