<?xml version="1.0" standalone="no"?>
<!DOCTYPE svg PUBLIC "-//W3C//DTD SVG 1.1//EN" "http://www.w3.org/Graphics/SVG/1.1/DTD/svg11.dtd" >
<svg xmlns="http://www.w3.org/2000/svg" xmlns:xlink="http://www.w3.org/1999/xlink" version="1.1" viewBox="-10 0 1051 1000">
  <g transform="matrix(1 0 0 -1 0 800)">
   <path fill="currentColor"
d="M30.3242 741.553h55.5146l17.1611 52.2256l17.1602 -52.2256h55.5156l-44.8672 -32.2959l17.1611 -52.2246l-44.9697 32.2959l-44.9707 -32.2959l17.1611 52.2246zM271 608l-12 60c128.725 89.7881 355.203 55.3633 442.457 48.5605
c0 -0.0107422 0.000976562 -0.0214844 0.000976562 -0.0322266c27.4463 0.582031 75.1855 -1.32129 107.268 -33.4033c40.1396 -40.1396 38.6152 -108.841 37.5254 -169.365c-0.395508 -21.9258 -0.433594 -33.2402 -0.22168 -41.9463
c26.3789 -43.8281 72.168 -89.959 89.3252 -129.607c6.95117 -16.0635 5.49219 -24.7637 2.64551 -40.2051l-12 -14l-79.501 -63.5771v-212.431c1.93945 -31.0869 1.82422 -79.2412 -27.416 -108.48c-26.0322 -26.0322 -182.507 -12.0195 -220.584 -13.0049
l-2.90137 0.0126953c-103.732 -7.2998 -296.108 50.6025 -326.603 92.1719c-18.5059 25.2275 -31.4014 41.2529 -57.9951 55.3086v70.0371c25.8174 -16.2627 49.624 -17.8066 70.1904 -60.6357c44.2188 -92.082 349.455 -105.734 451.309 -108.438l-0.499023 -0.962891
c50 12 34.1514 4.48145 42.5352 13.5361c19.1768 20.7119 3.97852 41.9688 5.50781 57.9648h-0.541992v2.14941c-0.253906 0.990234 -0.500977 1.94141 -0.738281 2.84863h0.738281v207.174v3.4873v1.33887h1.58203l104 88h1.13281
c4.9834 45.8955 -62.8379 92.1289 -94.2158 139.501l-3 4l-1 1c-2.02051 3.99219 0.0439453 4.02539 -2.08398 11.5605c-0.0371094 0.130859 -0.189453 0.24707 -0.174805 0.367188l0.258789 2.07227l0.0644531 1.49902
c0.00976562 0.226562 0.150391 3.89551 0.242188 6.24414c3.11426 79.1523 5.19727 173.389 -83.8154 173.771c-136.35 16.7461 -373.536 9.53418 -431.49 -46.5137zM467.021 405.06v18.333h27.5898v22.1914h-27.5898v18.333h27.5898v24.082h15.9883v-24.082h23.0137
v22.3242h15.9883v-22.3242h29.4941v-18.333h-29.4941v-22.1914h29.4941v-18.333h-29.4941v-25.8477h-15.9883v25.8477h-23.0137v-24.0898h-15.9883v24.0898h-27.5898zM522 509l-54.1631 98.0508l11.2627 4.75781l43.2412 -74.2773l39.4219 75.0068l13.417 -5.43359z
M533.612 445.584h-23.0137v-22.1914h23.0137v22.1914zM474.917 237.095zM474.769 235.337zM580.405 217.039c0 13.7744 -4.74316 26.3076 -15.6904 37.2539c-6.19434 6.19434 -12.4492 9.99023 -18.3086 12.2988l-16.6318 6.5498
c20.543 -3.54785 20.543 -3.54785 23.2412 -4.35352c0.295898 0.101562 0.683594 0.181641 1.07227 0.109375c25.375 -4.67383 44.6299 -15.9756 58.4209 -29.7666c7.14355 -7.14453 12.0439 -13.9717 16.6045 -21.873
c-11.8877 -20.6377 -32.2139 -43.9199 -76.082 -51.7373l-9.43066 -1.67969c8.52344 5.23047 13.2764 7.79492 21.3477 16.0195c11.1973 11.1963 15.457 23.9658 15.457 37.1787zM526.195 175.666c-11.5752 0 -21.7451 3.96582 -30.1582 12.3809
c-12.2324 12.2324 -14.8564 28.6631 -9.46094 43.5996l0.626953 1.7334l0.416992 -0.154297c8.48047 12.5156 8.48047 12.5156 8.97656 13.2383c13.2529 8.67676 13.2529 8.67676 13.4287 8.69824c9.3584 3.93555 29.5215 7.51953 46.415 -9.37402
c8.39844 -8.39941 11.9648 -18.1709 12.001 -28.5928c0 -7.24023 -1.5332 -18.4043 -12.0029 -28.875c-4.91504 -4.91406 -14.2705 -12.6543 -30.2432 -12.6543zM650.323 217.256c-6.50977 11.5557 -38.1846 67.2334 -121.614 67.2334
c-50.1719 0 -81.6396 -20.0635 -100.319 -38.7432c-7.95605 -7.95605 -14.8203 -16.6699 -21.5596 -28.4893c5.96094 -10.4512 12.6006 -19.4561 20.9492 -27.8047c30.9824 -30.9834 69.0771 -39.2666 100.93 -39.2666c15.3164 0 62.499 0.976562 100.709 39.1855
c10.9287 10.9287 17.4697 21.7666 20.9053 27.8848zM504.409 265.5c-4.99219 -1.87695 -12.8086 -6.82422 -15.8496 -9.86523c-4.0625 -4.06152 -4.0625 -4.06152 -4.99219 -5.61133c-0.779297 -1.30078 -0.947266 -1.46387 -1.96387 -2.38086
c-1.42969 -1.29102 -1.90918 -1.875 -2.44629 -3.24316c-0.420898 -1.07031 -2.94043 -5.63477 -3.64648 -7.59766c0.09375 -0.459961 0.0273438 -0.916992 -0.0957031 -1.24121c-5.75098 -15.0566 -6.03125 -37.6768 11.9844 -55.6934
c4.67871 -4.67871 9.55664 -7.94727 14.2393 -10.2441l12.874 -6.31641l-14.0508 2.87891c-25.9033 5.30762 -43.8193 17.2666 -55.8096 29.2568c-7.11426 7.11523 -12.0605 13.9482 -16.6172 21.8135c8.55469 14.8252 27.625 43.0713 75.3984 51.7578z" />
  </g>

</svg>
