<?xml version="1.0" standalone="no"?>
<!DOCTYPE svg PUBLIC "-//W3C//DTD SVG 1.1//EN" "http://www.w3.org/Graphics/SVG/1.1/DTD/svg11.dtd" >
<svg xmlns="http://www.w3.org/2000/svg" xmlns:xlink="http://www.w3.org/1999/xlink" version="1.1" viewBox="-10 0 1029 1000">
  <g transform="matrix(1 0 0 -1 0 800)">
   <path fill="currentColor"
d="M966 735l-181.944 -183.75l198 -182l-25.7783 -21.4717l-198.222 182.472l-179.278 -182.472l-18.7217 20.4717l177 180l-174 181l23 22l176 -175l184 176zM966 735l-181.944 -183.75l198 -182l-25.7783 -21.4717l-198.222 182.472l-179.278 -182.472l-18.7217 20.4717
l177 180l-174 181l23 22l176 -175l184 176zM923.614 450.191zM615.214 657.672zM557.621 551.645zM782.021 413.019zM781.616 400.143zM610.161 448.019zM709.005 416.922zM978.624 575.617zM557.621 551.645zM978.624 575.617zM986.216 582.843
c3.97656 -12.0449 6.53711 -25.0801 9.88184 -37.5674l2.33203 -0.0380859c-1.77344 -37.4141 -2.44043 -51.5029 -63.1953 -99.5107c-45.207 -35.7217 -78.3037 -48.3047 -153.536 -49.1523c-51.749 -0.583984 -117.655 1.35352 -175.434 49.1396
c-22.7666 18.8301 -58.9072 55.2725 -58.5713 96.6689h-1.62012c1.77051 6.63574 1.77051 6.63574 1.93848 11.7305l1.18555 -0.0195312l5.07324 19.0244h-2.22754c1.15625 1.57031 2.31348 3.1416 3.46973 4.71191v5.3457h3.93457l57.4551 78.0654h1.82227
c19.8789 46.4834 96.0342 68.876 125.613 32.8691c4.2002 -1.88672 23.248 -9.4873 43.3047 -2.1748c10.3311 13.8281 39.3594 27.1719 72.0254 20.3984c31.5947 -6.55176 63.4658 -35.9424 77.4482 -50.2529h0.670898
c0.492188 -0.725586 0.830078 -1.55859 1.44922 -2.19434l4.39355 -4.58398l41.9521 -71.6865c0.625977 0.0537109 1.12012 0.0136719 1.02148 -0.44043zM576.92 544.894c-0.696289 -23.8564 1.94238 -52.2285 59.8818 -92.7861
c49.165 -34.415 89.9043 -36.8877 145.833 -35.502c65.1641 1.67676 92.3545 10.0527 131.704 42.2061c52.3262 42.7598 60.9961 56.1611 54.7041 81.2793l-8.32129 33.2178l-0.305664 -0.545898c0.0175781 2.01074 -1.32617 4.56738 -1.30859 6.57812l-46.6914 73.6426
c-1.25293 -0.0498047 -0.251953 1.08887 -1.50488 1.04004c-28.9014 19.0537 -31.9824 27.3096 -42.7783 33.6758c-16.624 9.80371 -42.1836 7.83008 -58.4551 -3.27539c-8.09961 -24.4004 -58.3574 -28.3105 -81.5146 -6.30664
c-2.1582 2.05078 -3.75098 0.90918 -3.54688 3.42578c-24.7539 17.0342 -71.1211 -0.12793 -84.2236 -30.9873l-1.58887 -3.74219l-2.64844 1.01953l-51.0615 -72.2891zM899.735 -34.457c0 -0.301753 -0.00932748 -0.511503 -0.0154881 -0.680847l-14.9898 0.464181
l0.0107422 0.413086zM824.892 202.521c0 0 0.066397 -0.0765084 0.170801 -0.202407l-11.5104 -9.61927l-0.101562 0.120117zM644.094 -26.8066c0 0.61778 0.0673742 1.05613 0.114436 1.32222l14.8251 -2.27288l-0.0292969 -0.191406zM661.13 -62.9214
c-0.31631 0.0880166 -0.621557 0.17941 -0.916883 0.272336l4.40556 14.3389l0.676758 -0.201172zM771.099 228.118c31.1592 0 63.1187 -15.2312 88.7887 -98.0102c14.2321 -46.4048 38.4135 -152.025 38.8346 -154.151c0.654707 -3.10857 0.94876 -6.07043 0.94876 -8.8707
c0 -16.7205 -10.8905 -29.4182 -20.0089 -30.5542c-6.9115 -0.916456 -6.3657 -0.793952 -204.832 -0.87994h-0.167334l-0.167159 0.00726261c-11.4199 0.501117 -15.3125 0.671929 -21.5159 6.87537c-7.07608 7.07608 -9.34229 15.2515 -9.34229 23.6982
c0 7.91995 1.81685 15.3527 4.39551 25.902l0.00647274 0.0196208c5.95839 22.3457 5.92951 22.2302 22.4285 90.1573c18.9282 75.2375 41.1376 145.806 100.631 145.806zM648.001 -7.9962c0 0 -0.000124147 -0.00051106 0 0zM874.561 -91.0675
c29.3074 0 48.5522 28.24 48.5522 56.5284c0 12.4344 -3.0264 25.3462 -6.41056 39.4431c-7.16448 28.4567 -14.1286 56.7516 -20.9687 85.1813c-23.2884 93.8275 -52.4455 165.041 -124.899 165.041c-24.3425 0 -62.5844 -10.2537 -89.951 -66.2431
c-17.0944 -35.0308 -22.7573 -56.4454 -49.0002 -164.407c-10.8294 -39.677 -12.0354 -49.9019 -12.0354 -57.2697c0 -2.83011 0.511209 -28.0626 18.3913 -45.9427c11.7295 -11.7295 24.6212 -12.2045 36.1546 -12.5754
c0.426111 -0.0137522 17.7698 -0.0248038 42.0902 -0.0248038c55.3607 0 146.872 0.0572645 157.281 0.270291h0.237512c0.206277 -0.00226363 0.37276 -0.00194217 0.558041 -0.00194217zM26.5156 719.296h55.5146l17.1611 52.2256l17.1602 -52.2256h55.5156
l-44.8672 -32.2959l17.1611 -52.2246l-44.9697 32.2959l-44.9707 -32.2959l17.1611 52.2246zM288 144.832h-0.375c-30.5273 0 -72.8574 17.4844 -94.4863 39.0283c-44.167 44.3057 -52.2227 113.75 -20.6953 177.361c10.6953 21.5283 23.334 42.5 35.5566 62.7783
c6.52734 10.6934 13.0547 21.5273 19.166 32.3604l44.166 77.3613l2.08398 4.02832c9.72266 19.0273 12.2227 23.75 17.7773 23.75h2.63867c4.72266 -1.94531 7.77832 -7.91797 11.8066 -16.8066c0.693359 -1.52734 1.25 -2.91602 1.66602 -3.47168l68.4727 -120.14
c4.86133 -8.47168 10.1387 -16.666 15.416 -25c9.81348 -14.3379 23.3779 -38.915 30.2783 -54.8604c1.66699 -4.07422 3.10254 -8.24121 4.30566 -12.5c3.27051 -10.9795 5.92578 -29.1885 5.92578 -40.6445c0 -65.1885 -51.998 -127.87 -116.064 -139.911
c-7.53906 -1.66406 -19.9219 -3.1582 -27.6387 -3.33398zM291.193 541.5c-2.08301 -3.75 -4.16602 -8.05664 -5.27734 -10.418l-2.5 -4.86035l-44.166 -77.083c-6.25 -10.9727 -12.7783 -21.8066 -19.4453 -32.6387c-12.083 -20 -24.583 -40.6953 -35 -61.668
c-28.8887 -58.6104 -21.9443 -121.805 17.917 -161.11c19.5518 -19.417 57.7852 -35.1758 85.3408 -35.1758c6.87793 0 17.9258 1.13574 24.6592 2.53613c58.2051 10.6055 105.444 67.2285 105.444 126.393c0 10.7021 -2.56348 27.6875 -5.72266 37.9141
c-1.11035 3.88867 -2.40625 7.68555 -3.88867 11.3887c-6.63574 15.25 -19.6406 38.7705 -29.0273 52.5c-5.41699 8.47266 -10.834 16.9443 -15.834 25.5547l-68.4717 118.89c0 0.97168 -1.38965 2.63867 -2.22168 4.72168z" />
  </g>

</svg>
