<?xml version="1.0" standalone="no"?>
<!DOCTYPE svg PUBLIC "-//W3C//DTD SVG 1.1//EN" "http://www.w3.org/Graphics/SVG/1.1/DTD/svg11.dtd" >
<svg xmlns="http://www.w3.org/2000/svg" xmlns:xlink="http://www.w3.org/1999/xlink" version="1.1" viewBox="-10 0 1001 1000">
  <g transform="matrix(1 0 0 -1 0 800)">
   <path fill="currentColor"
d="M271 608l-12 60c128.725 89.7881 355.203 55.3633 442.457 48.5605c0 -0.0107422 0.000976562 -0.0214844 0.000976562 -0.0322266c27.4463 0.582031 75.1855 -1.32129 107.268 -33.4033c40.1396 -40.1396 38.6152 -108.841 37.5254 -169.365
c-0.395508 -21.9258 -0.433594 -33.2402 -0.22168 -41.9463c26.3789 -43.8281 72.168 -89.959 89.3252 -129.607c6.95117 -16.0635 5.49219 -24.7637 2.64551 -40.2051l-12 -14l-79.501 -63.5771v-212.431c1.93945 -31.0869 1.82422 -79.2412 -27.416 -108.48
c-26.0322 -26.0322 -182.507 -12.0195 -220.584 -13.0049l-2.90137 0.0126953c-103.732 -7.2998 -296.108 50.6025 -326.603 92.1719c-18.5059 25.2275 -31.4014 41.2529 -57.9951 55.3086v70.0371c25.8174 -16.2627 49.624 -17.8066 70.1904 -60.6357
c44.2188 -92.082 349.455 -105.734 451.309 -108.438l-0.499023 -0.962891c50 12 34.1514 4.48145 42.5352 13.5361c19.1768 20.7119 3.97852 41.9688 5.50781 57.9648h-0.541992v2.14941c-0.253906 0.990234 -0.500977 1.94141 -0.738281 2.84863h0.738281v207.174v3.4873
v1.33887h1.58203l104 88h1.13281c4.9834 45.8955 -62.8379 92.1289 -94.2158 139.501l-3 4l-1 1c-2.02051 3.99219 0.0439453 4.02539 -2.08398 11.5605c-0.0371094 0.130859 -0.189453 0.24707 -0.174805 0.367188l0.258789 2.07227l0.0644531 1.49902
c0.00976562 0.226562 0.150391 3.89551 0.242188 6.24414c3.11426 79.1523 14.1973 176.389 -74.8154 176.771c-136.35 16.7461 -373.536 9.53418 -431.49 -46.5137zM30.3545 728.521h55.5146l17.1611 52.2256l17.1602 -52.2256h55.5156l-44.8672 -32.2959l17.1611 -52.2246
l-44.9697 32.2959l-44.9707 -32.2959l17.1611 52.2246zM524 312c1 -23 -9 -89 -3 -92c6 -68 72 -130 72 -128l-11 -7c-25 27 -53 54 -74 128c-5 -32 -26 -69 -44 -92c-11 -14 -15 -25 -25 -36l-13 10c14 18 23 31 32 43c48 63 50 146 50 190c4 0 9 -1 13 -1c3 0 3 -2 3 -3
v-12zM636 325l-93 -105l12 -10l80 92c7 -11 16 -24 19 -32l22 32zM476 477zM476 475zM624 499c0 -22 -13 -51 -29 -66c-34 -31 -69 -32 -137 -32v13c19 0 36 1 50 1c-7 2 -15 5 -23 13c-15 15 -16 35 -11 48c0 1 2 5 3 7s2 3 3 4s1 0 1 1c1 2 3 4 5 6s8 6 14 8c4 1 5 3 8 3
h2s23 5 41 -13c9 -9 13 -20 13 -32c0 -8 -2 -21 -14 -33c-4 -4 -8 -7 -12 -9c19 4 34 11 48 24c13 12 25 38 25 58c0 18 -11 44 -25 56c-30 27 -64 27 -126 27v13c63 0 100 -1 134 -31c15 -13 30 -41 30 -66zM518 429c12 0 19 5 23 9c8 8 9 16 9 22c0 8 -3 15 -10 22
c-12 11 -26 11 -35 7l-10 -6l-7 -12v0v0c-2 -4 -6 -20 7 -33c6 -6 14 -9 23 -9z" />
  </g>

</svg>
