<?xml version="1.0" standalone="no"?>
<!DOCTYPE svg PUBLIC "-//W3C//DTD SVG 1.1//EN" "http://www.w3.org/Graphics/SVG/1.1/DTD/svg11.dtd" >
<svg xmlns="http://www.w3.org/2000/svg" xmlns:xlink="http://www.w3.org/1999/xlink" version="1.1" viewBox="-10 0 1010 1000">
  <g transform="matrix(1 0 0 -1 0 800)">
   <path fill="currentColor"
d="M73.7852 -203.855c0.258789 0.577148 65.2705 137.67 144.471 304.65c79.2002 166.979 145.732 307.617 147.849 312.528c4.9707 11.5342 8.43848 20.5996 17.4805 45.6982c9.97266 27.6836 13.6553 37.124 20.3848 52.2627
c11.8076 26.5615 22.7217 44.4102 35.9707 58.8291c13.8691 15.0928 26.5586 21.3252 36.5039 17.9277c14.375 -4.90918 17.2588 -29.5928 7.16895 -61.377c-2.1543 -6.78906 -5.78809 -16.417 -6.19824 -16.4248c-0.295898 -0.00488281 -7.9502 6.45215 -13.3877 11.2969
c-2.23926 1.99414 -2.88672 2.86719 -2.71875 3.66797c0.12207 0.577148 1.29883 4.20117 2.61719 8.05273c3.50391 10.2393 4.33398 14.1094 4.3916 20.4854c0.0478516 5.3252 0.0234375 5.45117 -1.26172 6.69727c-1.70117 1.64941 -2.38281 1.60352 -5.93457 -0.391602
c-2.1377 -1.20215 -4.3291 -3.20312 -7.90625 -7.22266c-18.2197 -20.4707 -39.5762 -65.3369 -40.54 -85.168c-0.277344 -5.72168 0.400391 -8.10645 2.4707 -8.69141c2.85547 -0.805664 8.5957 3.34277 14.4883 10.4707c3.84766 4.6543 12.2197 16.918 14.9678 21.9248
c0.94043 1.71289 1.875 3.11523 2.0752 3.11523c0.200195 0 0.958984 -0.554688 1.68555 -1.23242c0.725586 -0.677734 4.31836 -3.76855 7.98242 -6.86816c4.18164 -3.53711 6.54297 -5.86523 6.34277 -6.25293c-0.174805 -0.338867 -2.21094 -3.80762 -4.52441 -7.70801
c-7.1709 -12.0879 -13.0059 -20.9336 -28.7236 -43.5459c-21.3311 -30.6885 -25.0117 -36.627 -44.4658 -71.748c-7.52051 -13.5781 -24.6055 -44.4238 -37.9648 -68.5469c-13.3604 -24.1221 -28.8086 -52.0137 -34.3301 -61.9805
c-5.52148 -9.9668 -19.4004 -35.0215 -30.8418 -55.6768c-11.4424 -20.6562 -28.4678 -51.3838 -37.8359 -68.2842c-9.36816 -16.9004 -24.2266 -43.7275 -33.0195 -59.6172c-8.79297 -15.8887 -23.7158 -42.835 -33.1631 -59.8789
c-25.9463 -46.8145 -63.5107 -114.635 -84.6602 -152.851c-16.8594 -30.4619 -20.9844 -37.7324 -19.373 -34.1416zM581.874 429.868c-41.7686 4.02734 -89.376 30.7227 -141.208 79.1807l-5.28027 4.93652l1.27246 2.45801c2.7793 5.36816 7.76953 13.75 8.18555 13.75
c0.243164 0 2.37695 -1.85156 4.74219 -4.11523c16.1201 -15.4258 36.4482 -32.0508 52.8799 -43.2471c40.5996 -27.665 77.1797 -38.5713 106.967 -31.8916c5.69043 1.27637 14.416 4.49121 19.5498 7.20312c26.0078 13.7402 46.6611 45.6904 58.0039 89.7295
c4.7793 18.5557 7.75 36.8467 9.83984 60.585c1.01367 11.5146 1.42578 48.2324 0.700195 62.3447c-1.9248 37.4248 -7.41406 76.29 -15.9629 113.022c-1.03223 4.43848 -1.79492 8.16406 -1.69336 8.27832c0.101562 0.114258 1.88965 -5.52637 3.97266 -12.5361
c21.4111 -72.0381 30.1797 -144.98 24.5771 -204.463c-2.63867 -28.0273 -7.89355 -48.5654 -18.4111 -71.9609c-19.0498 -42.376 -48.2773 -67.5234 -84.5459 -72.7441c-5.49512 -0.791016 -17.9766 -1.07129 -23.5889 -0.530273zM4.2959 453.137
c0.128906 0.137695 3.9248 1.80176 8.4375 3.69922c34.9648 14.6992 61.7695 30.8379 83.8164 50.4639c20.8672 18.5762 37.4326 38.6162 74.2813 89.8643c20.2197 28.1221 27.1846 37.2539 36.0176 47.2285c19.0137 21.4707 34.6729 31.291 53.3467 33.4551
c21.1631 2.45215 46.5 -8.75879 75.8467 -33.5596c18.4561 -15.5977 30.9443 -28.502 64.8291 -66.9883c14.5391 -16.5137 19.2285 -22.1416 18.8936 -22.6768c-0.244141 -0.390625 -2.43359 -4.02832 -4.86621 -8.08301l-4.42188 -7.37207l-2.88379 2.99805
c-1.58594 1.64844 -11.8799 13.2256 -22.875 25.7256c-25.0156 28.4385 -36.6592 40.6855 -50.8779 53.5117c-20.4258 18.4268 -37.4932 29.1768 -53.8174 33.8965c-5.64062 1.63086 -6.41309 1.72559 -13.9131 1.69727
c-7.00781 -0.0253906 -8.46484 -0.1875 -12.4023 -1.37891c-18.4824 -5.5918 -31.9492 -18.7393 -62.0273 -60.5547c-29.1328 -40.5029 -44.0361 -58.7402 -62.9404 -77.0215c-33.2744 -32.1768 -71.2891 -53.1133 -114.167 -62.8779
c-8.46387 -1.92773 -10.5723 -2.34375 -10.2764 -2.02734z" />
  </g>

</svg>
