<?xml version="1.0" standalone="no"?>
<!DOCTYPE svg PUBLIC "-//W3C//DTD SVG 1.1//EN" "http://www.w3.org/Graphics/SVG/1.1/DTD/svg11.dtd" >
<svg xmlns="http://www.w3.org/2000/svg" xmlns:xlink="http://www.w3.org/1999/xlink" version="1.1" viewBox="-10 0 1020 1000">
  <g transform="matrix(1 0 0 -1 0 800)">
   <path fill="currentColor"
d="M30.3242 741.553h55.5146l17.1611 52.2256l17.1602 -52.2256h55.5156l-44.8672 -32.2959l17.1611 -52.2246l-44.9697 32.2959l-44.9707 -32.2959l17.1611 52.2246zM271 608l-12 60c128.725 89.7881 355.203 55.3633 442.457 48.5605
c0 -0.0107422 0.000976562 -0.0214844 0.000976562 -0.0322266c27.4463 0.582031 75.1855 -1.32129 107.268 -33.4033c40.1396 -40.1396 38.6152 -108.841 37.5254 -169.365c-0.395508 -21.9258 -0.433594 -33.2402 -0.22168 -41.9463
c26.3789 -43.8281 72.168 -89.959 89.3252 -129.607c6.95117 -16.0635 5.49219 -24.7637 2.64551 -40.2051l-12 -14l-79.501 -63.5771v-212.431c1.93945 -31.0869 1.82422 -79.2412 -27.416 -108.48c-26.0322 -26.0322 -182.507 -12.0195 -220.584 -13.0049
l-2.90137 0.0126953c-103.732 -7.2998 -296.108 50.6025 -326.603 92.1719c-18.5059 25.2275 -31.4014 41.2529 -57.9951 55.3086v70.0371c25.8174 -16.2627 49.624 -17.8066 70.1904 -60.6357c44.2188 -92.082 349.455 -105.734 451.309 -108.438l-0.499023 -0.962891
c50 12 34.1514 4.48145 42.5352 13.5361c19.1768 20.7119 3.97852 41.9688 5.50781 57.9648h-0.541992v2.14941c-0.253906 0.990234 -0.500977 1.94141 -0.738281 2.84863h0.738281v207.174v3.4873v1.33887h1.58203l104 88h1.13281
c4.9834 45.8955 -62.8379 92.1289 -94.2158 139.501l-3 4l-1 1c-2.02051 3.99219 0.0439453 4.02539 -2.08398 11.5605c-0.0371094 0.130859 -0.189453 0.24707 -0.174805 0.367188l0.258789 2.07227l0.0644531 1.49902
c0.00976562 0.226562 0.150391 3.89551 0.242188 6.24414c3.11426 79.1523 5.19727 173.389 -83.8154 173.771c-136.35 16.7461 -373.536 9.53418 -431.49 -46.5137zM593.96 111.793c1.5127 1.29492 26.584 18.8857 26.8535 19.0742
c8.44824 5.91504 21.7129 29.2373 24.0576 35.5723c-0.00976562 0.874023 0.0107422 1.91211 0.0351562 3.12305c0.209961 11.1582 0.670898 37.3447 -18.3193 63.6797c-1.63477 2.26562 -3.0791 2.64941 -7.69141 8.72559
c-14.4102 18.9824 -39.6768 44.6309 -78.0752 23.501c-1.37402 -0.756836 -5.43555 -5.04395 -10.1377 -8.33594c-3.79395 -2.65625 -8.70312 -5.30566 -14.7793 -5.23047c-9.54102 0.118164 -16.9502 3.67969 -22.374 7.47754
c-6.35547 4.44922 -10.0156 9.15918 -12.2783 10.7441c-8.68164 6.07715 -22.2354 4.50391 -41.8887 -7.05859c-5.90723 -3.47461 -9.84766 -16.707 -17.4404 -22.4111c-4.7334 -3.55664 -25.4902 -35.7412 -30.4619 -54.7246
c-1.14746 -4.38086 -1.12207 -7.69824 -0.447266 -8.9375l6.48535 -11.9082l-3.56445 2.7627c1.29395 -2.92773 14.5254 -32.2588 29.6582 -42.3135c12.5176 -8.31738 21.1094 -13.459 26.3418 -16.2266c-5.01855 5.82227 -13.7334 12.7881 -13.8555 12.9258
c-5.46191 6.23047 2.11719 14.1689 31.5449 16.9463c15.3164 1.44629 32.5566 0.941406 42.1855 -3.50684c1.05762 -0.489258 1.89648 -0.914062 2.54785 -1.26074c19.2324 11.6631 52.9023 3.25391 58.3457 -9.07129l9.32129 -21.1074zM516.385 39.0059
c-6.43164 0.975586 -17.874 4.87305 -23.1953 8.59961c-6.81641 4.77051 -13.4209 14.0957 -16.7432 23.165c-2.52441 6.89355 -3.16699 7.07129 -4.96582 7.57031c-1.07715 0.299805 -59.3877 17.9561 -82.5088 56.9639c-5.25879 8.87305 -5.05078 8.5625 -8.93359 13.4531
c-0.429688 0.542969 -17.7168 22.7295 -7.08203 45.5371c14.1445 30.3389 46.2275 72.1221 69.457 88.3818c5.35059 3.74609 8.24707 5.77344 22.2227 5.63379c4.14648 -0.0400391 19.1768 -0.336914 26.2646 -6.1123c0.170898 -0.138672 13.5859 -10.6162 17.8496 -13.4287
c5.90332 -3.89746 8.25684 -4.22754 14.5498 -1.80078c3.46484 1.74414 11.1328 16.3525 37.625 19.3008c9.95508 1.10742 23.5449 1.91113 32.2666 -1.81641c63.4463 -27.1201 74.5879 -83.4746 73.5195 -110.775c-0.132812 -3.4043 -8.37305 -24.707 -9.23926 -29.0078
c-0.561523 -2.78711 -1.74316 -2.11719 -8.4209 -10.2373c-16.7119 -20.3213 -44.5908 -35.2754 -66.3877 -46.9678l-0.52832 -9.63574c-0.567383 -10.335 -2.94922 -20.7783 -14.2891 -28.7168c-12.1104 -8.47754 -33.8701 -12.7783 -51.4609 -10.1064zM458.446 125.937
c0.311523 -0.460938 1.2373 -1.59668 3.47559 -3.20801c37.9121 -27.2871 16.249 -65.4775 55.7715 -73.5693c6.43457 -1.31738 42.0332 -2.56348 49.6475 18.6592c4.39551 12.2539 -0.0917969 41.8594 -7.88867 52.1035c-7.18945 9.44727 -28.416 12.8232 -38.0811 7.14258
c0.314453 -0.287109 0.742188 -0.666992 1.30078 -1.13965c8.72559 -7.38086 7.39453 -9.45117 5.77832 -10.582c-3.72559 -2.6084 -8.05859 0.424805 -20.0947 8.85059c-6.25195 4.375 -6.69629 4.54102 -39.0986 2.95703
c-5.5791 -0.273438 -9.55273 -0.788086 -10.8105 -1.21387zM584 405h-112.757l-36.127 191.705h182.669zM605.781 588.339l-158.519 -0.910156l31.6797 -174.519l97.2383 0.910156zM532.302 472.458c-0.166016 0 -1.27148 0.475586 -16.624 0.475586h-0.246094h-0.652344
c-4.36426 0 -10.2451 2.45898 -13.3662 5.58008c-3.96094 3.96094 -6.91211 11.4531 -6.91211 16.6895c0 18.3477 19.2979 24.7275 29.9795 24.7275c2.7041 0 14.5117 -1.31152 19.9814 -6.78027c2.3584 -2.35938 6.77539 -8.17773 6.77539 -15.1699
c0 -12.7109 -8.30664 -21.1406 -8.70898 -21.543c-0.933594 -0.932617 -4.86328 -3.97949 -10.2266 -3.97949zM539.91 482.058c1.45312 0 3.24121 -1.36914 3.2373 -1.40332c-0.0449219 0 -0.669922 0.331055 -0.729492 0.313477
c0.449219 -0.450195 1.63672 -1.70703 1.65234 -1.72461l-4.93555 -4.71191c-1.35938 1.40918 -2.71973 2.81934 -4.07812 4.22852c3.49121 3.29785 3.49121 3.29785 4.85352 3.29785zM514.712 468.029c0.551758 0 2.20215 0.0996094 5.04688 0.0996094
c3.73242 0 12.0332 -0.444336 12.1553 -0.444336c0.125 0 0.241211 0.000976563 0.34668 0.00488281h0.0986328c4.79492 0.0117188 10.6953 2.44238 13.749 5.49414c3.51562 3.51562 9.96582 13.8662 9.96582 23.751c0 9.65723 -4.62598 16.1143 -8.29688 19.7842
c-1.08008 1.08008 -2.20703 2.00879 -3.36133 2.75098c-1.8916 1.21777 -6.60547 4.25195 -19.3096 5.53809c0.490234 12.585 1.6875 34.2529 21.3018 34.2529h0.106445v4.9043c-1.05078 0.0292969 -1.05078 0.0292969 -1.27734 0.0292969
c-5.85449 0 -12.1279 -3.13574 -15.2422 -6.25c-9.20215 -9.20312 -9.57227 -25.0566 -9.76465 -33.3164c-6.05176 -1.03809 -15.1729 -2.60352 -22.7363 -10.168c-2.99316 -2.99316 -7.98438 -9.41602 -7.98438 -18.9619c0 -6.72852 3.46973 -15.4229 8.47363 -20.4248
c4.41504 -4.41699 12.1055 -7.04395 16.7285 -7.04395z" />
  </g>

</svg>
