<?xml version="1.0" standalone="no"?>
<!DOCTYPE svg PUBLIC "-//W3C//DTD SVG 1.1//EN" "http://www.w3.org/Graphics/SVG/1.1/DTD/svg11.dtd" >
<svg xmlns="http://www.w3.org/2000/svg" xmlns:xlink="http://www.w3.org/1999/xlink" version="1.1" viewBox="-10 0 1046 1000">
  <g transform="matrix(1 0 0 -1 0 800)">
   <path fill="currentColor"
d="M332.481 97.6934l-82.2217 148.848l24.0225 10.1475l58.4395 -100.383l53.3027 101.418l27.2285 -11.0254zM249.568 -67.707v34.6641h38.626v22.0713h-38.626v34.6641h38.626v33.7148h31.3828v-33.7148h23.2197v31.2539h31.3828v-31.2539h41.292v-34.6641h-41.292
v-22.0713h41.292v-34.6641h-41.292v-36.1855h-31.3828v36.1855h-23.2197v-33.7246h-31.3828v33.7246h-38.626zM319.577 -33.043h23.2197v22.0713h-23.2197v-22.0713zM764.659 223.904c-0.529297 0 -0.985352 0.173828 -1.32227 0.358398l-214.094 -88.2627v-37.8242
c12.126 5.10742 24.251 10.2148 36.376 15.3213v-3.77051l-0.21875 -161.659h318.305l0.646484 155.446c10.9619 -6.48535 21.9238 -12.9697 32.8867 -19.4551l-0.677734 40.7051l-136.33 79.1182l1.46387 0.616211c-22.6963 11.7715 -24.457 12.7314 -36.2109 19.5508
c-0.288086 -0.102539 -0.56543 -0.144531 -0.824219 -0.144531zM868.594 -16.7148h-248.003l-0.665039 144.662l142.009 59.8174l107.859 -63.8086zM38.3545 -39.4795h55.5146l17.1611 52.2256l17.1602 -52.2256h55.5156l-44.8672 -32.2959l17.1611 -52.2246
l-44.9697 32.2959l-44.9707 -32.2959l17.1611 52.2246zM402.205 573.233l-62.2305 56.3711l10.084 7.42773l48.2148 -44.2871l85.9766 108.902l13.6973 -6.29395zM549.121 548.698zM302.4 714.683zM256.326 629.861zM435.848 518.96zM435.522 508.659zM298.359 546.96z
M377.434 522.083zM593.129 649.039zM256.326 629.861zM593.129 649.039zM599.203 654.819c3.18066 -9.63574 5.22852 -20.0645 7.90527 -30.0537l1.86523 -0.0302734c-1.41895 -29.9316 -1.95215 -41.2031 -50.5557 -79.6084
c-36.166 -28.5781 -62.6436 -38.6436 -122.83 -39.3223c-41.3984 -0.466797 -94.124 1.08301 -140.346 39.3115c-18.2148 15.0645 -47.127 44.2178 -46.8574 77.335h-1.29688c1.41602 5.30859 1.41602 5.30859 1.55078 9.38477l0.949219 -0.015625l4.05859 15.2197h-1.78223
c0.924805 1.25586 1.85059 2.5127 2.77539 3.76953v4.27637h3.14746l45.9648 62.4521h1.45801c15.9033 37.1875 76.8271 55.1016 100.49 26.2959c3.36035 -1.50977 18.5986 -7.58984 34.6436 -1.74023c8.26562 11.0625 31.4883 21.7373 57.6211 16.3184
c25.2754 -5.24121 50.7715 -28.7539 61.958 -40.2021h0.536133c0.394531 -0.580078 0.664062 -1.24609 1.16016 -1.75488l3.51465 -3.66699l33.5615 -57.3496c0.500977 0.0429688 0.896484 0.0107422 0.817383 -0.352539zM271.766 624.46
c-0.556641 -19.085 1.55469 -41.7822 47.9062 -74.2285c39.332 -27.5322 71.9219 -29.5098 116.666 -28.4023c52.1309 1.3418 73.8828 8.04297 105.363 33.7656c41.8613 34.208 48.7969 44.9287 43.7627 65.0234l-6.65723 26.5742l-0.244141 -0.436523
c0.0146484 1.6084 -1.06055 3.65332 -1.04688 5.26172l-37.3525 58.9141c-1.00293 -0.0390625 -0.202148 0.871094 -1.2041 0.832031c-23.1211 15.2432 -25.5859 21.8477 -34.2227 26.9414c-13.2998 7.84277 -33.7471 6.26367 -46.7637 -2.62012
c-6.48047 -19.5215 -46.6865 -22.6494 -65.2129 -5.0459c-1.72656 1.64062 -3 0.727539 -2.83691 2.74023c-19.8037 13.6279 -56.8975 -0.101562 -67.3789 -24.7891l-1.27051 -2.99414l-2.11914 0.81543l-40.8496 -57.8311zM705.145 392h-164.145l0.108398 81.4463
c-6.06152 -2.55273 -12.1221 -5.10645 -18.1826 -7.66016v24.3535c109.732 45.2383 109.732 45.2383 109.742 45.2344l0.199219 0.398438c8.13965 -4.72266 8.13965 -4.72266 24.6504 -13.2832l-1.01953 -0.429688l65.0605 -37.7578l0.4375 -26.2344
c-5.51172 3.25977 -11.0234 6.52148 -16.5352 9.78125zM563.586 414.607h119.036l0.566406 66.417l-51.6074 30.5303l-68.3076 -28.7725z" />
  </g>

</svg>
