<?xml version="1.0" standalone="no"?>
<!DOCTYPE svg PUBLIC "-//W3C//DTD SVG 1.1//EN" "http://www.w3.org/Graphics/SVG/1.1/DTD/svg11.dtd" >
<svg xmlns="http://www.w3.org/2000/svg" xmlns:xlink="http://www.w3.org/1999/xlink" version="1.1" viewBox="-10 0 832 1000">
  <g transform="matrix(1 0 0 -1 0 800)">
   <path fill="currentColor"
d="M720.856 37.2178h-252.971l-0.683594 148.819l144.706 60.9531l110.182 -65.1816zM437.687 7h313.313l0.654297 157.319c10.9316 -6.4668 21.8623 -12.9336 32.7939 -19.4004l-0.580078 34.8232l-139.465 80.9375l1.17773 0.49707
c-17.3623 9.02637 -21.2021 11.1387 -31.5928 17.1543l-212.462 -87.5742v-32.3838c12.127 5.1084 24.2539 10.2158 36.3809 15.3242zM226.312 44.0322h-129.663l3.19824 322.375l-36.6592 -1.43262c-2.58398 -120.215 -4.77637 -240.43 -6.58301 -360.646l204.2 1.84375
v355.498l-34.4932 0.500977v-318.14z" />
  </g>

</svg>
