<?xml version="1.0" standalone="no"?>
<!DOCTYPE svg PUBLIC "-//W3C//DTD SVG 1.1//EN" "http://www.w3.org/Graphics/SVG/1.1/DTD/svg11.dtd" >
<svg xmlns="http://www.w3.org/2000/svg" xmlns:xlink="http://www.w3.org/1999/xlink" version="1.1" viewBox="-10 0 1000 1000">
  <g transform="matrix(1 0 0 -1 0 800)">
   <path fill="currentColor"
d="M30.3242 741.553h55.5146l17.1611 52.2256l17.1602 -52.2256h55.5156l-44.8672 -32.2959l17.1611 -52.2246l-44.9697 32.2959l-44.9707 -32.2959l17.1611 52.2246zM271 608l-12 60c128.725 89.7881 355.203 55.3633 442.457 48.5605
c0 -0.0107422 0.000976562 -0.0214844 0.000976562 -0.0322266c27.4463 0.582031 75.1855 -1.32129 107.268 -33.4033c40.1396 -40.1396 38.6152 -108.841 37.5254 -169.365c-0.395508 -21.9258 -0.433594 -33.2402 -0.22168 -41.9463
c26.3789 -43.8281 72.168 -89.959 89.3252 -129.607c6.95117 -16.0635 5.49219 -24.7637 2.64551 -40.2051l-12 -14l-79.501 -63.5771v-212.431c1.93945 -31.0869 1.82422 -79.2412 -27.416 -108.48c-26.0322 -26.0322 -182.507 -12.0195 -220.584 -13.0049
l-2.90137 0.0126953c-103.732 -7.2998 -296.108 50.6025 -326.603 92.1719c-18.5059 25.2275 -31.4014 41.2529 -57.9951 55.3086v70.0371c25.8174 -16.2627 49.624 -17.8066 70.1904 -60.6357c44.2188 -92.082 349.455 -105.734 451.309 -108.438l-0.499023 -0.962891
c50 12 34.1514 4.48145 42.5352 13.5361c19.1768 20.7119 3.97852 41.9688 5.50781 57.9648h-0.541992v2.14941c-0.253906 0.990234 -0.500977 1.94141 -0.738281 2.84863h0.738281v207.174v3.4873v1.33887h1.58203l104 88h1.13281
c4.9834 45.8955 -62.8379 92.1289 -94.2158 139.501l-3 4l-1 1c-2.02051 3.99219 0.0439453 4.02539 -2.08398 11.5605c-0.0371094 0.130859 -0.189453 0.24707 -0.174805 0.367188l0.258789 2.07227l0.0644531 1.49902
c0.00976562 0.226562 0.150391 3.89551 0.242188 6.24414c3.11426 79.1523 5.19727 173.389 -83.8154 173.771c-136.35 16.7461 -373.536 9.53418 -431.49 -46.5137zM529.862 297.322c5.91406 -21.7188 21.8125 -39.0996 50.7227 -53.7051l-1.82031 -4.41406
c-28.2793 14.3281 -45.4941 31.502 -52.5391 52.4922c-6.63379 -18.6348 -25.332 -41.9482 -41.7383 -52.041l-2.95703 4.46289c32.4336 20.8145 48.0195 51.9844 46.6562 95.4209l4.71875 -0.104492c0.0644531 -0.00195312 0.118164 -4.07422 0.118164 -5.62891
c0 -10.5762 -3.16113 -36.4824 -3.16113 -36.4824zM565.103 147.101c-0.140625 -0.000976563 -0.369141 -0.000976563 -0.511719 -0.000976563c-9.02734 0 -23.1797 2.66211 -31.5908 5.94141c-16.21 6.39258 -35.4619 24.3418 -42.9727 40.0645
c-13.0205 -14.1768 -39.21 -25.6836 -58.46 -25.6836c-2.21875 0 -5.8125 0.182617 -8.01953 0.40625c-37.5146 4.5332 -67.9609 38.8789 -67.9609 76.666c0 15.1914 7.79688 37.0703 17.4043 48.8379c-9.34668 10.6465 -16.9336 30.7832 -16.9336 44.9502
c0 6.78418 1.9248 17.4502 4.29492 23.8057c9.10254 23.3008 36.791 42.4961 61.8047 42.8457c21.8574 -0.697266 47.9043 -16.9473 58.1387 -36.2734c11.4951 6.9082 31.709 12.5703 45.1211 12.6387c11.3711 24.9473 42.8516 45.1953 70.2686 45.1953
c1.53809 0 4.03027 -0.0898438 5.56445 -0.201172c29.2432 -3.61719 58.6865 -29.7773 65.7217 -58.3906c22.8848 -2.1123 50.1211 -20.3438 60.793 -40.6973c4.2627 -8.70898 7.72266 -23.6445 7.72266 -33.3398c0 -13.4375 -6.34766 -33.2109 -14.168 -44.1367
c-6.8916 -9.53125 -21.3301 -20.8564 -32.2295 -25.2773c-7.55371 -3.22949 -20.3506 -6.00391 -28.5635 -6.19336c-3.58398 0.100586 -9.24609 1.11914 -12.6387 2.27441h-2.40234c0.428711 -2.50488 0.775391 -6.60254 0.775391 -9.14355
c0 -8.37305 -3.51758 -20.9785 -7.85254 -28.1406c-7.38086 -10.8086 -23.292 -23.3789 -35.5156 -28.0586c-9.96582 -4.39844 -26.8955 -8.02148 -37.79 -8.08887zM491.292 210.295h1.39062c2.78125 -0.469727 5.7832 -3.01758 6.69727 -5.6875
c5.61133 -15.5312 22.5977 -33.1406 37.918 -39.3066c7.43457 -2.80371 19.918 -5.07812 27.8643 -5.07812c9.28223 0 23.6934 3.06738 32.1699 6.84766c10.2646 4.15234 23.458 15.0801 29.4482 24.3926c3.33691 5.33105 6.04395 14.7637 6.04395 21.0518
c0 4.05664 -1.17871 10.4229 -2.63184 14.2109l-1.64258 3.79199l2.78027 3.16016c4.5498 4.92773 19.5908 0 19.7178 0c2.50977 -0.861328 6.69922 -1.59766 9.35156 -1.64453h0.101562c6.93359 0 17.7598 2.15234 24.166 4.80273
c9.00098 3.5498 14.4746 28.0645 20.209 35.8584c6.62207 9.00098 18.5801 9.99121 18.5801 21.166c0 33.1445 -26.8896 60.7666 -60.0225 61.6553c-3.70215 0.118164 -7.21191 3.17578 -7.83691 6.8252c-4.97266 25.2188 -29.7158 48.2061 -55.2324 51.3135
c-1.33105 0.100586 -3.49609 0.181641 -4.83203 0.181641c-23.7949 0 -50.4502 -17.8613 -59.499 -39.8672c-1.14258 -2.93359 -4.62402 -5.31445 -7.77246 -5.31445c-0.0878906 0 -0.228516 0.00195312 -0.316406 0.00585938
c-0.757812 0.0273438 -1.99023 0.0498047 -2.74805 0.0498047c-12.6484 0 -31.4619 -5.68457 -41.9941 -12.6885c-1.20703 -0.875 -3.39941 -1.58398 -4.89062 -1.58398c-3.12109 0 -6.5918 2.35156 -7.74805 5.24902c-7.70898 17.6172 -29.5645 32.3955 -48.7861 32.9873
c-19.999 -0.392578 -42.6475 -15.625 -50.5557 -33.998c-1.90137 -5.11621 -3.44434 -13.6973 -3.44434 -19.1562c0 -12.5615 7.20508 -29.9697 16.083 -38.8564c1.30273 -1.34082 2.36133 -3.94434 2.36133 -5.81445c0 -1.86816 -1.05859 -4.47363 -2.36133 -5.81348
c-9.24609 -10.1924 -16.752 -29.6348 -16.752 -43.3965c0 -31.7812 25.625 -60.5254 57.1973 -64.1602c1.86523 -0.19043 4.90039 -0.34375 6.77539 -0.34375c17.9678 0 41.5449 11.4785 52.627 25.6211c1.44434 1.76562 4.46875 3.19922 6.75 3.19922
c0.230469 0 0.603516 -0.0175781 0.833984 -0.0390625v0.378906zM375.393 291.184v0zM375.393 297.124v0zM668.235 364.49v0zM664.065 368.028v0zM525.038 378.519v0zM529.208 381.299v0zM420.385 586.969l-0.416016 -13.7803h4.85352v-0.780273l157.178 -83.4082v83.6172
l97.9688 0.744141v14.2305z" />
  </g>

</svg>
