<?xml version="1.0" standalone="no"?>
<!DOCTYPE svg PUBLIC "-//W3C//DTD SVG 1.1//EN" "http://www.w3.org/Graphics/SVG/1.1/DTD/svg11.dtd" >
<svg xmlns="http://www.w3.org/2000/svg" xmlns:xlink="http://www.w3.org/1999/xlink" version="1.1" viewBox="-10 0 1020 1000">
  <g transform="matrix(1 0 0 -1 0 800)">
   <path fill="currentColor"
d="M30.3242 741.553h55.5146l17.1611 52.2256l17.1602 -52.2256h55.5156l-44.8672 -32.2959l17.1611 -52.2246l-44.9697 32.2959l-44.9707 -32.2959l17.1611 52.2246zM271 608l-12 60c128.725 89.7881 355.203 55.3633 442.457 48.5605
c0 -0.0107422 0.000976562 -0.0214844 0.000976562 -0.0322266c27.4463 0.582031 75.1855 -1.32129 107.268 -33.4033c40.1396 -40.1396 38.6152 -108.841 37.5254 -169.365c-0.395508 -21.9258 -0.433594 -33.2402 -0.22168 -41.9463
c26.3789 -43.8281 72.168 -89.959 89.3252 -129.607c6.95117 -16.0635 5.49219 -24.7637 2.64551 -40.2051l-12 -14l-79.501 -63.5771v-212.431c1.93945 -31.0869 1.82422 -79.2412 -27.416 -108.48c-26.0322 -26.0322 -182.507 -12.0195 -220.584 -13.0049
l-2.90137 0.0126953c-103.732 -7.2998 -296.108 50.6025 -326.603 92.1719c-18.5059 25.2275 -31.4014 41.2529 -57.9951 55.3086v70.0371c25.8174 -16.2627 49.624 -17.8066 70.1904 -60.6357c44.2188 -92.082 349.455 -105.734 451.309 -108.438l-0.499023 -0.962891
c50 12 34.1514 4.48145 42.5352 13.5361c19.1768 20.7119 3.97852 41.9688 5.50781 57.9648h-0.541992v2.14941c-0.253906 0.990234 -0.500977 1.94141 -0.738281 2.84863h0.738281v207.174v3.4873v1.33887h1.58203l104 88h1.13281
c4.9834 45.8955 -62.8379 92.1289 -94.2158 139.501l-3 4l-1 1c-2.02051 3.99219 0.0439453 4.02539 -2.08398 11.5605c-0.0371094 0.130859 -0.189453 0.24707 -0.174805 0.367188l0.258789 2.07227l0.0644531 1.49902
c0.00976562 0.226562 0.150391 3.89551 0.242188 6.24414c3.11426 79.1523 5.19727 173.389 -83.8154 173.771c-136.35 16.7461 -373.536 9.53418 -431.49 -46.5137zM566.551 77.5059c10.2646 -4.7168 21.1299 -2.57324 38.3721 9.42773
c1.81445 1.2627 2.95312 1.85059 6.04102 2.47559c0 0 3.02832 4.01855 4.96875 8.20703c2.5332 5.46875 5.49805 11.8047 6.61914 14.1377c7.77637 16.1982 9.6582 33.0068 6.86426 66.0098l-1.83008 21.6055c-0.0371094 0.442383 0.0332031 0.950195 0.211914 1.38672
l5.87402 14.3896c3.68848 9.03711 9.52441 18.9502 15.0967 25.5664c3.7959 4.50586 6.95703 8.80859 8.01367 10.7393c-0.46875 2.0918 -4.55859 6.00781 -14.8496 6.95508c-12.9785 1.19727 -28.9346 -5.27246 -33.1016 -12.0898
c-2.57031 -4.20605 -8.82324 -6.47559 -8.82324 0.24707c0 2.4375 -10.8145 17.5918 -17.6172 21.9941c-7.86523 5.08984 -12.0176 4.50098 -22.9033 -6.18457c-5.37207 -5.27246 -10.6895 -11.916 -11.1934 -13.1191
c-0.97168 -2.31934 -1.90137 -4.52148 -2.14551 -5.06641c-2.40332 -5.36328 -7.30273 0.383789 -7.30273 0.383789c-0.707031 0.712891 -6.18945 4.99023 -11.4209 8.74121c-8.3457 5.98633 -9.63477 6.39941 -19.0527 6.27832
c-9.01172 -0.118164 -10.167 -0.780273 -12.1729 -3.36133c-0.989258 -1.27441 -1.33008 -1.68164 -1.88281 -2.63672c0 0 0.49707 -0.916016 1.55762 -2.4248c0.921875 -1.31055 2.07129 -2.4502 2.80371 -2.95312c5.9834 -1.35742 12.1777 -11.9346 17.7754 -24.8047
c10.5332 -24.2109 10.6074 -24.5801 10.8838 -65.9678c0.271484 -40.5459 0.430664 -41.3604 7.77148 -54.0361c3.39258 -5.86035 22.335 -21.7148 31.4424 -25.9004zM564.045 72.0537c-10.625 4.88281 -29.4561 20.2744 -34.1289 28.3457
c-7.83594 13.5312 -8.31152 17.0254 -8.5791 57.0029c-0.280273 41.876 0.131836 39.4385 -10.3857 63.6143c-4.70703 10.8223 -12.0889 20.543 -12.0889 20.543c-6.69629 2.91113 -5.84082 3.23633 -7.89648 6.1582c-3.23926 4.60938 -3.0752 7.5957 0.495117 12.1924
c3.51172 4.52051 7.81934 5.56152 16.833 5.67969c9.94727 0.128906 13.9932 -1.20801 22.627 -7.40137c4.5293 -3.24707 9.41016 -7.01758 11.0889 -8.40332c0.387695 0.921875 0.364258 0.865234 0.750977 1.78809c1.42188 3.39258 6.77637 9.44043 12.5234 15.082
c11.5205 11.3066 19.7939 13.7803 30.3662 6.93945c7.02832 -4.54785 16.1309 -16.2783 19.1543 -22.5518c8.0293 9.61035 23.8662 14.6123 37.6777 13.3389c10.6152 -0.977539 20.3213 -5.12012 20.3213 -13.3545c0 -3.59863 -4.64355 -8.48047 -9.44531 -14.1797
c-5.01953 -5.95996 -10.7012 -15.5645 -14.1318 -23.9697l-5.60156 -13.7207l1.76953 -20.8867c2.81934 -33.2959 0.990234 -51.5654 -7.43457 -69.1152c-1.08594 -2.26074 -4.06055 -8.61621 -6.58301 -14.0615c-2.28223 -4.9248 -4.99219 -11.6611 -9.62109 -11.6611
c-0.174805 0 -2.30176 -0.655273 -3.40527 -1.42383c-17.7637 -12.3643 -31.2832 -15.9375 -44.3057 -9.95508zM588.494 79.5078c-6.99023 -6.03027 -5.45898 -4.42383 -9.61523 -4.29004c-15.4766 0.495117 -40.8584 19.0664 -47.8818 34.4941
c-4.36523 9.58887 -4.51855 11.7607 -4.70508 49.5059c-0.208008 42.3076 0.355469 38.9814 -10.4658 63.8887c-4.96484 11.4307 -14.7402 24.3203 -16.2002 25.0635c-4.31641 1.04004 -5.54688 4.57324 -3.37207 7.37207c2.37988 3.06348 7.89941 3.47949 12.7754 3.57715
c7.57617 0.152344 12.293 -1.64355 20.2646 -7.33984c5.58984 -3.99414 10.9775 -8.59473 12.7354 -11.7598c0.512695 -0.923828 0.817383 -1.35352 1.35547 -1.91211c0.393555 0.431641 1.6875 2.30273 2.83887 5.43262c3.33887 9.08008 16.6758 24.0391 24.6035 26.7031
c11.0703 3.7207 27.3076 -13.8262 31.0645 -27.6309c0.874023 -3.21191 2.09668 -4.26758 2.34961 -4.37598c0 0 1.26758 0.34375 2.72754 3.68066c4.59766 10.5137 23.124 17.8281 36.5801 16.041c4.82422 -0.641602 9.80664 -0.931641 11.9229 -3.7334
c3.20605 -4.25586 -3.86621 -10.6709 -7.51465 -14.8711c-4.73633 -5.45215 -10.4297 -14.9102 -13.8232 -23.0664l-5.62305 -13.5166l1.8584 -25.8506c2.49219 -34.6533 0.849609 -47.0303 -9.35938 -68.1162c-6.30566 -13.0244 -9.36816 -17.085 -16.9775 -21.6826
c-4.80957 -2.90527 -10.501 -5.8252 -13.5254 -6.77832c-0.68457 -0.216797 -1.39453 -0.520508 -2.0127 -0.834961zM581.523 81.5586c3.32422 3.50684 4.2998 3.59668 7.17871 4.50586c1.90234 0.599609 7.79785 3.51562 12.2266 6.19238
c6.65723 4.02148 8.36328 6.11328 14.6807 19.1611c9.82324 20.2891 11.2598 30.5176 8.77539 65.0713l-1.90918 26.5605c-0.0332031 0.464844 0.0546875 0.964844 0.222656 1.36719l5.89648 14.1738c3.65918 8.79688 9.4834 18.54 14.833 24.6973
c2.49121 2.86914 5.47754 7.04883 5.76465 7.49512c-2.09375 0.541992 -4 0.90332 -6.43359 1.22656c-11.4707 1.52344 -27.3916 -5.86133 -30.293 -12.498c-1.43848 -3.28809 -3.31836 -5.88867 -6.12891 -6.90234c-5.32715 -1.9209 -8.82324 3.23926 -10.2344 8.42773
c-3.53027 12.9727 -18.8145 25.0488 -23.3643 23.5186c-4.79004 -1.60938 -18.2871 -16.0264 -20.8838 -23.0869c-1.41992 -3.8623 -2.84082 -6.76172 -5.22363 -8.43652c-4.1543 -2.9209 -7.94824 0.65625 -9.84766 4.07422
c-0.574219 1.03418 -5.85645 6.13086 -10.9775 9.79102c-7.68066 5.48926 -10.2061 6.35254 -16.6572 6.22266c-1.94238 -0.0390625 -4.11523 -0.338867 -5.47656 -0.564453c6.47656 -5.7793 12.834 -15.9541 17.6582 -27.0576
c10.8018 -24.8662 10.7559 -24.4912 10.9619 -66.25c0.188477 -38.3115 0.246094 -38.4404 4.16602 -47.0508c5.96289 -13.0977 30.4287 -30.5928 42.6143 -30.9824c1.16113 -0.0371094 2.45117 0.34375 2.45117 0.34375zM560.214 316.063
c10.2646 -4.7168 21.1299 -2.57324 38.3721 9.42773c1.81445 1.2627 2.95312 1.85059 6.04102 2.47559c0 0 3.02832 4.01855 4.96875 8.20703c2.5332 5.46875 5.49805 11.8047 6.61914 14.1377c7.77637 16.1982 9.6582 33.0068 6.86426 66.0098l-1.83008 21.6055
c-0.0371094 0.442383 0.0332031 0.950195 0.211914 1.38672l5.87402 14.3896c3.68848 9.03711 9.52441 18.9502 15.0967 25.5664c3.7959 4.50586 6.95703 8.80859 8.01367 10.7393c-0.46875 2.0918 -4.55859 6.00781 -14.8496 6.95508
c-12.9785 1.19727 -28.9346 -5.27246 -33.1016 -12.0898c-2.57031 -4.20605 -8.82324 -6.47559 -8.82324 0.24707c0 2.4375 -10.8145 17.5918 -17.6172 21.9941c-7.86523 5.08984 -12.0176 4.50098 -22.9033 -6.18457c-5.37207 -5.27246 -10.6895 -11.916 -11.1934 -13.1191
c-0.97168 -2.31934 -1.90137 -4.52148 -2.14551 -5.06641c-2.40332 -5.36328 -7.30273 0.383789 -7.30273 0.383789c-0.707031 0.712891 -6.18945 4.99023 -11.4209 8.74121c-8.3457 5.98633 -9.63477 6.39941 -19.0527 6.27832
c-9.01172 -0.118164 -10.167 -0.780273 -12.1729 -3.36133c-0.989258 -1.27441 -1.33008 -1.68164 -1.88281 -2.63672c0 0 0.49707 -0.916016 1.55762 -2.4248c0.921875 -1.31055 2.07129 -2.4502 2.80371 -2.95312c5.9834 -1.35742 12.1777 -11.9346 17.7754 -24.8047
c10.5332 -24.2109 10.6074 -24.5801 10.8838 -65.9678c0.271484 -40.5459 0.430664 -41.3604 7.77148 -54.0361c3.39258 -5.86035 22.335 -21.7148 31.4424 -25.9004zM557.708 310.611c-10.625 4.88281 -29.4561 20.2744 -34.1289 28.3457
c-7.83594 13.5312 -8.31152 17.0254 -8.5791 57.0029c-0.280273 41.876 0.131836 39.4385 -10.3857 63.6143c-4.70703 10.8223 -12.0889 20.543 -12.0889 20.543c-6.69629 2.91113 -5.84082 3.23633 -7.89648 6.1582c-3.23926 4.60938 -3.0752 7.5957 0.495117 12.1924
c3.51172 4.52051 7.81934 5.56152 16.833 5.67969c9.94727 0.128906 13.9932 -1.20801 22.627 -7.40137c4.5293 -3.24707 9.41016 -7.01758 11.0889 -8.40332c0.387695 0.921875 0.364258 0.865234 0.750977 1.78809c1.42188 3.39258 6.77637 9.44043 12.5234 15.082
c11.5205 11.3066 19.7939 13.7803 30.3662 6.93945c7.02832 -4.54785 16.1309 -16.2783 19.1543 -22.5518c8.0293 9.61035 23.8662 14.6123 37.6777 13.3389c10.6152 -0.977539 20.3213 -5.12012 20.3213 -13.3545c0 -3.59863 -4.64355 -8.48047 -9.44531 -14.1797
c-5.01953 -5.95996 -10.7012 -15.5645 -14.1318 -23.9697l-5.60156 -13.7207l1.76953 -20.8867c2.81934 -33.2959 0.990234 -51.5654 -7.43457 -69.1152c-1.08594 -2.26074 -4.06055 -8.61621 -6.58301 -14.0615c-2.28223 -4.9248 -4.99219 -11.6611 -9.62109 -11.6611
c-0.174805 0 -2.30176 -0.655273 -3.40527 -1.42383c-17.7637 -12.3643 -31.2832 -15.9375 -44.3057 -9.95508zM582.157 318.065c-6.99023 -6.03027 -5.45898 -4.42383 -9.61523 -4.29004c-15.4766 0.495117 -40.8584 19.0664 -47.8818 34.4941
c-4.36523 9.58887 -4.51855 11.7607 -4.70508 49.5059c-0.208008 42.3076 0.355469 38.9814 -10.4658 63.8887c-4.96484 11.4307 -14.7402 24.3203 -16.2002 25.0635c-4.31641 1.04004 -5.54688 4.57324 -3.37207 7.37207c2.37988 3.06348 7.89941 3.47949 12.7754 3.57715
c7.57617 0.152344 12.293 -1.64355 20.2646 -7.33984c5.58984 -3.99414 10.9775 -8.59473 12.7354 -11.7598c0.512695 -0.923828 0.817383 -1.35352 1.35547 -1.91211c0.393555 0.431641 1.6875 2.30273 2.83887 5.43262c3.33887 9.08008 16.6758 24.0391 24.6035 26.7031
c11.0703 3.7207 27.3076 -13.8262 31.0645 -27.6309c0.874023 -3.21191 2.09668 -4.26758 2.34961 -4.37598c0 0 1.26758 0.34375 2.72754 3.68066c4.59766 10.5137 23.124 17.8281 36.5801 16.041c4.82422 -0.641602 9.80664 -0.931641 11.9229 -3.7334
c3.20605 -4.25586 -3.86621 -10.6709 -7.51465 -14.8711c-4.73633 -5.45215 -10.4297 -14.9102 -13.8232 -23.0664l-5.62305 -13.5166l1.8584 -25.8506c2.49219 -34.6533 0.849609 -47.0303 -9.35938 -68.1162c-6.30566 -13.0244 -9.36816 -17.085 -16.9775 -21.6826
c-4.80957 -2.90527 -10.501 -5.8252 -13.5254 -6.77832c-0.68457 -0.216797 -1.39453 -0.520508 -2.0127 -0.834961zM575.187 320.116c3.32422 3.50684 4.2998 3.59668 7.17871 4.50586c1.90234 0.599609 7.79785 3.51562 12.2266 6.19238
c6.65723 4.02148 8.36328 6.11328 14.6807 19.1611c9.82324 20.2891 11.2598 30.5176 8.77539 65.0713l-1.90918 26.5605c-0.0332031 0.464844 0.0546875 0.964844 0.222656 1.36719l5.89648 14.1738c3.65918 8.79688 9.4834 18.54 14.833 24.6973
c2.49121 2.86914 5.47754 7.04883 5.76465 7.49512c-2.09375 0.541992 -4 0.90332 -6.43359 1.22656c-11.4707 1.52344 -27.3916 -5.86133 -30.293 -12.498c-1.43848 -3.28809 -3.31836 -5.88867 -6.12891 -6.90234c-5.32715 -1.9209 -8.82324 3.23926 -10.2344 8.42773
c-3.53027 12.9727 -18.8145 25.0488 -23.3643 23.5186c-4.79004 -1.60938 -18.2871 -16.0264 -20.8838 -23.0869c-1.41992 -3.8623 -2.84082 -6.76172 -5.22363 -8.43652c-4.1543 -2.9209 -7.94824 0.65625 -9.84766 4.07422
c-0.574219 1.03418 -5.85645 6.13086 -10.9775 9.79102c-7.68066 5.48926 -10.2061 6.35254 -16.6572 6.22266c-1.94238 -0.0390625 -4.11523 -0.338867 -5.47656 -0.564453c6.47656 -5.7793 12.834 -15.9541 17.6582 -27.0576
c10.8018 -24.8662 10.7559 -24.4912 10.9619 -66.25c0.188477 -38.3115 0.246094 -38.4404 4.16602 -47.0508c5.96289 -13.0977 30.4287 -30.5928 42.6143 -30.9824c1.16113 -0.0371094 2.45117 0.34375 2.45117 0.34375z" />
  </g>

</svg>
