<?xml version="1.0" standalone="no"?>
<!DOCTYPE svg PUBLIC "-//W3C//DTD SVG 1.1//EN" "http://www.w3.org/Graphics/SVG/1.1/DTD/svg11.dtd" >
<svg xmlns="http://www.w3.org/2000/svg" xmlns:xlink="http://www.w3.org/1999/xlink" version="1.1" viewBox="-10 0 1134 1000">
  <g transform="matrix(1 0 0 -1 0 800)">
   <path fill="currentColor"
d="M762.511 555.111c-14.4375 -7.11719 -14.5908 -7.17969 -16.1016 -7.17969c-0.893555 0 -2.67871 0.234375 -4.03125 1.91113c-0.176758 0.21875 -15.5029 22.2314 -16.0732 23.0117c-0.93457 1.27539 -2.09082 2.62695 -2.09082 4.7627
c0 2.95312 1.94629 4.27832 5.57324 6.74805c19.5146 13.4326 44.3203 30.5488 47.3809 32.8623h12.6055c2.01562 0 3.68848 0.00292969 5.0918 0.00292969c5.80664 0 6.99219 -0.0693359 8.67871 -0.782227c0.000976563 0 0.139648 -0.0527344 0.139648 -0.0527344
c1.03516 -0.381836 6.21484 -2.13477 12.6719 -2.13477h0.65332c4.27246 0 6.60449 0.380859 12.3066 2.9668h23.375c0.545898 -0.375 45.1104 -30.9961 54.3574 -37.9258c-4.40625 -6.65234 -6.47754 -9.86816 -12.4062 -19.6934
c-2.79102 -4.62695 -4.47656 -7.63574 -5.99316 -9.15332c-1.58496 -1.58398 -3.35938 -1.60645 -3.69336 -1.60645c-1.25098 0 -9.07422 2.2041 -21.7637 5.86133c7.18359 -79.3271 7.18359 -79.1709 7.18359 -79.3271v-5.91309h-112.849
c0.691406 8.98242 0.691406 8.98242 1.25586 19.4326l1.12793 20.1904l1.13477 19.8359c0 0.00195312 0.993164 17.7363 1.46582 26.1826zM857.986 481.411c-0.0703125 0.816406 -7.38477 80.708 -7.38477 81.6455c0 2.87012 1.58594 4.87988 3.72754 5.53906v0.81543
l3.23145 -0.826172l-0.0146484 -0.0576172c4.70996 -1.12207 18.0352 -5.08496 24.4678 -6.82031l9.00977 14.5752c-1.2334 0.854492 -2.60352 1.80078 -3.82227 2.63672c-20.5156 14.2539 -20.5156 14.2539 -38.0117 26.373
c-1.11035 0.0380859 -3.64258 0.0996094 -8.43848 0.0996094c-2.94922 0 -5.89746 0.000976563 -8.8457 0.000976563c-4.06152 -1.5459 -8.04883 -2.92871 -15.0029 -2.92871c-4.37402 0 -8.57715 0.0703125 -17.7266 2.92871h-9.33984
c-4.46289 0 -7.4707 -0.0615234 -8.86914 -0.110352c-5.50586 -3.73438 -34.3145 -23.6553 -42.4062 -29.2578c2.19824 -3.14746 5.16992 -7.43457 10.0732 -14.5088c4.8418 2.36035 16.5107 8.07422 18.8896 9.14648c0.664062 0.417969 1.88281 0.50293 2.15918 0.50293
c0.0371094 0 0.0498047 -0.00683594 0.0498047 -0.00683594c2.9209 0 5.25293 -2.21094 5.25293 -5.80566c0 -0.130859 -0.417969 -6.85352 -0.755859 -13.0498l-4.0127 -70.9395c7.2793 -0.0390625 21.1924 -0.0585938 36.0654 -0.0585938zM988.627 398.087z
M634.214 636.522zM568.028 514.677zM825.908 355.367zM825.442 340.571zM628.407 395.589zM741.998 359.854zM1051.84 542.226zM568.028 514.677zM1051.84 542.226zM894.907 698.659c-24.9844 0 -46.1348 -9.7168 -56.8613 -20.4443
c-4.08301 -4.08301 -3.04102 -4.29492 -4.72949 -4.91016c-7.58398 -2.76562 -15.0156 -3.76562 -21.8008 -3.76562c-6.40234 0 -18.0381 0.944336 -30.6357 6.60449c-8.56055 10.4209 -23.0391 19.9043 -47.3818 19.9043c-36.543 0 -78.2168 -22.6201 -92.71 -56.5107
l-0.71582 -1.6748h-2.52148l-66.0273 -89.7119h-3.15723v-4.29004c-0.427734 -0.582031 -0.856445 -1.16309 -1.28418 -1.74414h0.69043l-7.31348 -27.4219l-0.822266 0.0126953c-0.148438 -2.80762 -0.412109 -4.42188 -1.29883 -7.91211h1.06445
c-0.0244141 -3.10059 -0.0244141 -3.10059 -0.0244141 -3.41602c0 -20.0459 8.64941 -60.6191 66.3096 -108.307c60.8984 -50.3682 129.768 -55.9219 186.86 -55.9219c93.5762 0 131.728 11.7266 187.723 55.9746c68.4033 54.0527 69.5576 69.9678 71.4404 109.474
l-1.91504 0.03125c-0.117188 0.438477 -8.51953 34.7227 -11.4971 43.9531l-48.8906 83.543c-5.50977 5.74902 -5.50977 5.74902 -6.06543 6.70312h-0.363281c-17.1885 17.5908 -53.2217 50.5127 -88.4033 57.8076c-6.73145 1.39551 -13.3242 2.02246 -19.6689 2.02246z
M732.544 674.497c5.26074 0 16.9492 0 30.2773 -9.1709l-0.103516 -1.27148c0.768555 -0.31543 2.00195 -0.895508 3.19922 -2.03223c11.293 -10.7314 28.6494 -15.7695 45.126 -15.7695c15.3496 0 29.9355 4.37109 38.1494 12.585
c1.59766 1.59766 4.17676 4.17773 6.1709 10.1846c8.46191 5.77637 21.9043 12.0752 40.252 12.0752c24.3457 0 35.7305 -10.6025 44.457 -18.7305c6.7832 -6.31738 15.7158 -14.6553 34.9277 -27.3672c0.733398 -0.160156 1.33691 -0.513672 1.81934 -1.06055
l0.421875 0.0166016l54.9434 -86.6592c0 -0.147461 -0.00390625 -0.295898 -0.00390625 -0.444336c3.94043 -14.7637 7.53809 -29.8691 11.332 -44.7793c1.32715 -5.29785 2.07031 -10.209 2.07031 -14.9648c0 -22.8145 -16.9727 -41.2998 -65.8691 -81.2568
c-45.0576 -36.8174 -77.6855 -49.4473 -176.018 -49.4473c-53.2334 0 -96.1426 6.54102 -146.257 41.6201c-61.7744 43.2422 -70.082 75.0879 -70.082 103.447c0 1.87109 0.0351562 3.71289 0.0878906 5.52734c3.08203 12.2334 6.42969 24.2012 9.61328 36.333
l60.2051 85.2363c0.853516 -0.329102 1.70703 -0.657227 2.56055 -0.985352c2.02637 4.77539 5.48047 12.9121 14.8525 22.2822c15.0996 15.1006 37.4482 24.6318 57.8672 24.6318zM836.009 328.245zM795.375 433.31c0 12.1553 13.2598 22.1006 29.835 22.1006
c16.5742 0 27.625 -12.1553 27.625 -24.3105s-13.2598 -22.0996 -29.835 -22.0996s-27.625 12.1553 -27.625 24.3096zM51.3545 703.521h55.5146l17.1611 52.2256l17.1602 -52.2256h55.5156l-44.8672 -32.2959l17.1611 -52.2246l-44.9697 32.2959l-44.9707 -32.2959
l17.1611 52.2246zM656.598 223.496c1.2627 -22.4336 -7.74219 -81.3936 -5.23047 -95.668c0.770508 -0.875977 1.56445 -2.23145 1.72852 -3.98535c5.23145 -56.2568 51.2754 -111.696 69.0869 -129.507c3.60547 -3.60547 3.60547 -3.60547 14.0586 -11.6914
c-1.22754 -0.802734 -1.22754 -0.802734 -19.9932 -13.3145c-2.84668 -1.90039 -6.69922 -1.45703 -9.03418 1.08984c-30.0791 32.7197 -53.7002 58.416 -74.6094 118.096c-9.44629 -29.4131 -26.6836 -58.2959 -42.6045 -78.5156
c-11.126 -14.1289 -19.8799 -31.4688 -28.2031 -39.793c-2.53711 -2.53711 -6.54395 -2.71484 -9.28906 -0.542969c-14.1436 11.1963 -14.1436 11.1963 -14.4336 11.4873c-2.5166 2.51562 -2.71289 6.47656 -0.598633 9.21973
c7.94727 10.3027 34.1816 46.1582 34.5322 46.6201c50.7832 66.708 53.252 155.368 52.8457 203.106c-0.0341797 3.9502 3.20312 7.14551 7.1543 7.05664c18.7012 -0.416016 18.7012 -0.416016 21.4033 -3.11816c2.02734 -2.02734 3.06055 -5.03613 2.99219 -8.46777
c-0.0234375 -1.15625 -0.125977 -6.3916 0.194336 -12.0723zM354.019 223.773c1.2627 -22.4336 -7.74219 -81.3936 -5.23047 -95.668c0.770508 -0.875977 1.56445 -2.23145 1.72852 -3.98535c5.23145 -56.2568 51.2754 -111.696 69.0869 -129.507
c3.60547 -3.60547 3.60547 -3.60547 14.0586 -11.6914c-1.22754 -0.802734 -1.22754 -0.802734 -19.9932 -13.3145c-2.84668 -1.90039 -6.69922 -1.45703 -9.03418 1.08984c-30.0791 32.7197 -53.7002 58.416 -74.6094 118.096
c-9.44629 -29.4131 -26.6836 -58.2959 -42.6045 -78.5156c-11.126 -14.1289 -19.8799 -31.4688 -28.2031 -39.793c-2.53711 -2.53711 -6.54395 -2.71484 -9.28906 -0.542969c-14.1436 11.1963 -14.1436 11.1963 -14.4336 11.4873
c-2.5166 2.51562 -2.71289 6.47656 -0.598633 9.21973c7.94727 10.3027 34.1816 46.1582 34.5322 46.6201c50.7832 66.708 53.252 155.368 52.8457 203.106c-0.0341797 3.9502 3.20312 7.14551 7.1543 7.05664c18.7012 -0.416016 18.7012 -0.416016 21.4033 -3.11816
c2.02734 -2.02734 3.06055 -5.03613 2.99219 -8.46777c-0.0234375 -1.15625 -0.125977 -6.3916 0.194336 -12.0723zM408.48 440.479l-80.6406 79.2002l15.3604 15.8398l64.7998 -59.5195l115.2 145.92l17.2803 -12z" />
  </g>

</svg>
