<?xml version="1.0" standalone="no"?>
<!DOCTYPE svg PUBLIC "-//W3C//DTD SVG 1.1//EN" "http://www.w3.org/Graphics/SVG/1.1/DTD/svg11.dtd" >
<svg xmlns="http://www.w3.org/2000/svg" xmlns:xlink="http://www.w3.org/1999/xlink" version="1.1" viewBox="-10 0 961 1000">
  <g transform="matrix(1 0 0 -1 0 800)">
   <path fill="currentColor"
d="M30.3242 741.553h55.5146l17.1611 52.2256l17.1602 -52.2256h55.5156l-44.8672 -32.2959l17.1611 -52.2246l-44.9697 32.2959l-44.9707 -32.2959l17.1611 52.2246zM271 608l-12 60c128.725 89.7881 355.203 55.3633 442.457 48.5605
c0 -0.0107422 0.000976562 -0.0214844 0.000976562 -0.0322266c27.4463 0.582031 75.1855 -1.32129 107.268 -33.4033c40.1396 -40.1396 38.6152 -108.841 37.5254 -169.365c-0.395508 -21.9258 -0.433594 -33.2402 -0.22168 -41.9463
c26.3789 -43.8281 72.168 -89.959 89.3252 -129.607c6.95117 -16.0635 5.49219 -24.7637 2.64551 -40.2051l-12 -14l-79.501 -63.5771v-212.431c1.93945 -31.0869 1.82422 -79.2412 -27.416 -108.48c-26.0322 -26.0322 -182.507 -12.0195 -220.584 -13.0049
l-2.90137 0.0126953c-103.732 -7.2998 -296.108 50.6025 -326.603 92.1719c-18.5059 25.2275 -31.4014 41.2529 -57.9951 55.3086v70.0371c25.8174 -16.2627 49.624 -17.8066 70.1904 -60.6357c44.2188 -92.082 349.455 -105.734 451.309 -108.438l-0.499023 -0.962891
c50 12 34.1514 4.48145 42.5352 13.5361c19.1768 20.7119 3.97852 41.9688 5.50781 57.9648h-0.541992v2.14941c-0.253906 0.990234 -0.500977 1.94141 -0.738281 2.84863h0.738281v207.174v3.4873v1.33887h1.58203l104 88h1.13281
c4.9834 45.8955 -62.8379 92.1289 -94.2158 139.501l-3 4l-1 1c-2.02051 3.99219 0.0439453 4.02539 -2.08398 11.5605c-0.0371094 0.130859 -0.189453 0.24707 -0.174805 0.367188l0.258789 2.07227l0.0644531 1.49902
c0.00976562 0.226562 0.150391 3.89551 0.242188 6.24414c3.11426 79.1523 5.19727 173.389 -83.8154 173.771c-136.35 16.7461 -373.536 9.53418 -431.49 -46.5137zM461.268 499.106l-61.1338 -61.7402l66.5273 -61.1523l-8.66113 -7.21387l-66.6025 61.3105
l-60.2373 -61.3105l-6.29004 6.87891l59.4707 60.4805l-58.4629 60.8145l7.72656 7.39258l59.1367 -58.7998l61.8242 59.1367zM461.268 499.106l-61.1338 -61.7402l66.5273 -61.1523l-8.66113 -7.21387l-66.6025 61.3105l-60.2373 -61.3105l-6.29004 6.87891
l59.4707 60.4805l-58.4629 60.8145l7.72656 7.39258l59.1367 -58.7998l61.8242 59.1367zM456.862 195.447c0 14.5039 -11.7607 25.8711 -26.2646 25.8711c-14.5049 0 -26.6562 -11.3672 -26.6562 -25.8711c0 -16.8564 13.3281 -25.0879 26.6562 -25.0879
c7.44824 0 14.5039 2.35156 19.5996 7.44629c3.91992 3.92188 6.66504 9.80078 6.66504 17.6416zM468.621 188.782c-1.17578 -5.48828 -3.52832 -11.7598 -6.66309 -16.4639l32.5352 -32.5361c10.1924 12.1523 18.8164 33.3203 20.3848 49h-46.2568zM452.941 164.086
c-4.70312 -3.13477 -10.584 -5.4873 -16.0713 -6.66309v-46.6484c15.6797 1.56836 36.8467 10.1924 49 20.3848zM407.862 164.086l-32.5361 -32.9268c12.1514 -10.1924 33.3193 -18.8164 49 -20.3848v46.6484c-5.48828 1.17578 -11.7607 3.52832 -16.4639 6.66309z
M399.238 172.318c-3.13672 4.7041 -5.88086 10.9756 -7.05664 16.4639h-46.2559c1.56738 -15.6797 10.1914 -36.8477 20.3838 -49zM392.182 201.327c1.17578 5.48633 3.91992 11.7588 7.05664 16.4639l-32.9287 32.9268
c-10.1924 -12.1514 -18.8164 -33.3193 -20.3838 -49.3906h46.2559zM407.862 226.414c4.70312 3.1377 10.9756 5.48926 16.4639 6.66504v46.6484c-15.6807 -1.56836 -36.8486 -10.1924 -49 -20.3848zM452.941 226.414l32.9287 32.9287
c-12.1533 10.1924 -33.3203 18.8164 -49 20.3848v-46.6484c5.4873 -1.17578 11.3682 -3.52734 16.0713 -6.66504zM461.958 217.791c3.13477 -4.70508 5.4873 -10.9775 6.66309 -16.4639h46.2568c-1.56836 15.6787 -10.1924 36.8467 -20.3848 49zM430.598 292.662
c53.7041 0 97.2158 -43.5107 97.2158 -97.2148c0 -52.9199 -43.1211 -97.2168 -97.2158 -97.2168c-53.7051 0 -97.2158 43.5117 -97.2158 97.2168c0 53.7041 43.5107 97.2148 97.2158 97.2148zM626.598 419.671v-0.442383c0 -29.6191 14.1367 -70.0361 31.5557 -90.2168
c10.9639 -12.7373 4.3916 -36.2119 -9.44434 -37.9365c-3.82812 -0.640625 -10.0684 -1.16016 -13.9307 -1.16016c-0.105469 0 -0.276367 0.00195313 -0.380859 0.00195313c-57.4443 0.69043 -105.208 59.2588 -106.618 130.733
c-0.0107422 0.697266 -0.0185547 1.82715 -0.0185547 2.52441c0 73.7383 48.085 133.584 107.332 133.584c5.78711 0 15.0928 -1.13184 20.7715 -2.52539c13.3115 -3.49023 18.9004 -26.7773 7.58398 -38.2041c-20.3408 -20.5254 -36.8506 -63.6348 -36.8506 -96.2256
v-0.132812zM655.864 308.529c0.30957 1.16211 0.560547 3.09961 0.560547 4.32324c0 3.32812 -1.59668 7.85352 -3.56641 10.1035c-18.4727 21.8086 -33.4648 65.2275 -33.4648 96.916c0 34.8867 17.5889 81.1562 39.2598 103.281
c2.05078 2.05078 3.7168 6.37402 3.7168 9.64844c0 6.54785 -4.05859 11.8936 -8.43848 12.9717c-5.33887 1.32129 -14.0908 2.39844 -19.5342 2.40332h-2.43359c-54.1592 -2.46875 -98.2285 -59.3535 -97.7451 -127.349
c1.18555 -68.7676 46.6035 -122.028 102.081 -122.028c3.16016 0 8.26953 0.369141 11.4072 0.824219c3.57715 0.575195 7.23242 4.56445 8.15723 8.90527z" />
  </g>

</svg>
