<?xml version="1.0" standalone="no"?>
<!DOCTYPE svg PUBLIC "-//W3C//DTD SVG 1.1//EN" "http://www.w3.org/Graphics/SVG/1.1/DTD/svg11.dtd" >
<svg xmlns="http://www.w3.org/2000/svg" xmlns:xlink="http://www.w3.org/1999/xlink" version="1.1" viewBox="-10 0 1021 1000">
  <g transform="matrix(1 0 0 -1 0 800)">
   <path fill="currentColor"
d="M828.399 483.872c0 9.49878 0.360099 25.4826 0.360099 28.905l-0.318652 61.3747l-8.69455 54.78l-24.0577 41.7601l-29.8355 19.1251l-33.9409 8.02542l-47.9505 1.85133v0.765382l-107.704 8.96128l-161.614 -4.8437l-135.511 -48.0118l4.97421 -24.8711
l90.1513 34.2037l168.519 13.9909l163.859 -8.05849l72.0585 -32.0852l24.6852 -76.5829c-11.2968 -92.7231 -11.5388 -94.7093 -10.6225 -98.1968c0.272553 -1.03738 0.408327 -1.98777 0.495372 -2.92219c0.487753 -0.641757 1.13403 -1.58506 1.4862 -2.05622
l30.4464 -40.7334l38.0432 -60.0682l23.93 -33.502l-96.7113 -80.2498l-3.19974 -219.288c0.962733 -7.56244 2.78458 -22.0112 5.01798 -45.877c-0.12894 -0.269919 -9.65147 -20.9678 -12.8349 -27.02c-1.80565 -3.43278 -3.36365 -6.39475 -8.94453 -11.1259
c-28.726 -6.87192 -37.6748 -9.01268 -53.7943 -9.01268c-3.38415 0 -6.77838 0.14333 -10.1737 0.446144l-127.95 -3.2205l-189.706 31.9736l-119.91 72.0259l-21.8729 31.5454c-0.18608 0.126152 -14.9542 10.3475 -18.5829 12.6523v-31.4635
c5.41685 -3.87145 13.5068 -7.36272 24.4398 -17.2503c7.32645 -6.62591 2.09556 -4.45645 10.6241 -11.9264c1.03002 -0.902171 1.03002 -0.902171 17.2005 -21.8062l70.2643 -41.1391l123.979 -35.7692l40.8353 -3.74581
c52.8258 -4.90757 59.0669 -6.73248 83.0467 -7.42728l68.08 -1.97257l89.7606 0.254271l51.1066 12.4914l15.1376 25.2075l6.27671 34.16l-0.268638 82.9487l0.0291888 84.2282l-0.00582149 87.5189l84.7837 67.8016l7.68593 8.96692l1.11464 7.19504
c0.44913 7.61262 -1.52476 12.8022 -3.31214 18.1783l-23.3304 38.8443l-33.0243 43.448l-34.3179 48.9016c-0.202711 16.1296 -0.202711 16.1296 -0.202711 17.6951zM334.827 473.001zM334.522 469.4zM550.881 431.924c0 28.2119 -9.71582 53.8818 -32.1348 76.3008
c-12.6875 12.6875 -25.499 20.4619 -37.5 25.1895l-34.0635 13.415c42.0742 -7.26758 42.0742 -7.26758 47.5996 -8.91602c0.606445 0.207031 1.40137 0.371094 2.19727 0.224609c51.9727 -9.57422 91.4072 -32.7207 119.652 -60.9668
c14.6328 -14.6328 24.6689 -28.6172 34.0098 -44.7998c-24.3486 -42.2686 -65.9775 -89.9531 -155.827 -105.964l-19.3145 -3.44141c17.457 10.7158 27.1924 15.9658 43.7236 32.8096c22.9326 22.9326 31.6572 49.0869 31.6572 76.1484zM439.852 347.188
c-23.7061 0 -44.5361 8.12109 -61.7686 25.3545c-25.0527 25.0547 -30.4268 58.707 -19.376 89.2979l1.2832 3.55176l0.854492 -0.316406c17.3682 25.6338 17.3682 25.6338 18.3838 27.1133c27.1455 17.7705 27.1455 17.7705 27.5039 17.8154
c19.1689 8.06152 60.4648 15.4014 95.0645 -19.2002c17.2021 -17.2021 24.5068 -37.2148 24.5801 -58.5605c0 -14.8291 -3.13965 -37.6943 -24.585 -59.1396c-10.0654 -10.0654 -29.2275 -25.916 -61.9404 -25.916zM694.082 432.369
c-13.334 23.666 -78.207 137.7 -249.082 137.7c-102.76 0 -167.208 -41.0898 -205.468 -79.3496c-16.2949 -16.2949 -30.3535 -34.1426 -44.1562 -58.3496c12.208 -21.4043 25.8066 -39.8496 42.9053 -56.9482c63.458 -63.458 141.48 -80.4219 206.719 -80.4219
c31.3711 0 128.006 1.99805 206.265 80.2568c22.3838 22.3828 35.7812 44.5791 42.8174 57.1123zM395.231 531.178c-10.2246 -3.84473 -26.2354 -13.9756 -32.4629 -20.2041c-8.32031 -8.31934 -8.32031 -8.31934 -10.2236 -11.4951
c-1.5957 -2.66211 -1.94141 -2.99707 -4.02344 -4.875c-2.92773 -2.64355 -3.91113 -3.84082 -5.00977 -6.6416c-0.861328 -2.19434 -6.02344 -11.541 -7.46973 -15.5615c0.192383 -0.943359 0.0576172 -1.87891 -0.195312 -2.54199
c-11.7783 -30.8369 -12.3525 -77.168 24.5469 -114.066c9.58203 -9.58301 19.5713 -16.2783 29.1631 -20.9834l26.3672 -12.9355l-28.7773 5.89648c-53.0547 10.8701 -89.748 35.3643 -114.306 59.9219c-14.5713 14.5723 -24.7002 28.5684 -34.0342 44.6768
c17.5205 30.3633 56.5791 88.2148 154.427 106.007zM37.3545 728.521h55.5146l17.1611 52.2256l17.1602 -52.2256h55.5156l-44.8672 -32.2959l17.1611 -52.2246l-44.9697 32.2959l-44.9707 -32.2959l17.1611 52.2246zM488 30l-74 185l13.9199 7.9082l61.2881 -140.626
l55.9746 141.966l18.8174 -10.248z" />
  </g>

</svg>
