<?xml version="1.0" standalone="no"?>
<!DOCTYPE svg PUBLIC "-//W3C//DTD SVG 1.1//EN" "http://www.w3.org/Graphics/SVG/1.1/DTD/svg11.dtd" >
<svg xmlns="http://www.w3.org/2000/svg" xmlns:xlink="http://www.w3.org/1999/xlink" version="1.1" viewBox="-10 0 1010 1000">
  <g transform="matrix(1 0 0 -1 0 800)">
   <path fill="currentColor"
d="M456.862 324.286c-10.4756 0 -10.4756 0 -69.4082 0.540039l0.0771484 0.414062h-4.13672l3.6748 224.784l-81.46 44.7666v12.9209l76.6465 -43.749c4.28125 -0.0107422 8.75977 0.00195312 13.5547 0.0283203l-52.8018 99.3203h14.998l52.752 -99.2207
l2.20898 0.0146484l0.847656 136.121h17.2295l-0.847656 -136.032c1.67969 0 3.3584 0.00195312 5.03809 0.00195312l57.1211 108.45h14.9951l-56.5713 -107.403l70.2148 28.2227v-13.1611c-19.0459 -8.4209 -38.0654 -16.8672 -57.127 -25.2715l-10.5332 -2.50781
l1.84375 -61.4141l15.1475 8.80664l3.30762 -21.5039l-17.75 -10.8047l4.37207 -145.619c-1.13086 0.764648 -2.2627 1.53027 -3.39355 2.2959zM440.099 340.668l-5.2666 210.631h-2.71973l3.15918 -210.631h4.82715zM410.839 341.178v210.719l-3.14062 0.369141
l-1.05273 -211.515zM761.684 333.175c-10.4756 0 -10.4756 0 -69.4082 0.540039l0.0771484 0.414062h-4.13672l3.6748 224.784l-81.46 44.7666v12.9209l76.6465 -43.749c4.28125 -0.0107422 8.75977 0.00195312 13.5547 0.0283203l-52.8018 99.3203h14.998l52.752 -99.2207
l2.20898 0.0146484l0.847656 136.121h17.2295l-0.847656 -136.032c1.67969 0 3.3584 0.00195313 5.03809 0.00195313l57.1211 108.45h14.9951l-56.5713 -107.403l70.2148 28.2227v-13.1611c-19.0459 -8.4209 -38.0654 -16.8672 -57.127 -25.2715l-10.5332 -2.50781
l1.84375 -61.4141l15.1475 8.80664l3.30762 -21.5039l-17.75 -10.8047l4.37207 -145.619c-1.13086 0.764648 -2.2627 1.53027 -3.39355 2.2959zM744.92 349.557l-5.2666 210.631h-2.71973l3.15918 -210.631h4.82715zM715.66 350.066v210.719l-3.14062 0.369141
l-1.05273 -211.515zM339.993 -162.333c-6.48633 0 -11.833 5.2793 -11.833 11.833v240.084c0 6.50684 5.29688 11.833 11.877 11.833c0 0 65.7803 -0.266602 77.9971 -0.31543l52.0459 47.0879c3.43555 -26.9775 3.43555 -26.9775 4.76465 -51.5605l164.489 3.58496
c6.35254 0 11.666 -5.28613 11.666 -11.8369v-67.377l47.4023 -55.1924c-43.6182 2.40039 -43.6182 2.40039 -48.8213 3.14355l1.41992 -120.739c0 -6.43457 -5.30762 -11.752 -11.8779 -11.752zM619.486 -131.826l3.04492 98.2959
c-5.18848 -0.797852 -10.376 -1.5957 -15.5645 -2.39453l-36.374 4.82227l48.7402 53.4541v46.2783l-142.78 1.83496c-0.43457 -15.876 -0.43457 -15.876 -2.12695 -48.8555l-56.7363 47.8438l-57.8594 0.248047v-200.412zM50.3545 720.521h55.5146l17.1611 52.2256
l17.1602 -52.2256h55.5156l-44.8672 -32.2959l17.1611 -52.2246l-44.9697 32.2959l-44.9707 -32.2959l17.1611 52.2246z" />
  </g>

</svg>
