<?xml version="1.0" standalone="no"?>
<!DOCTYPE svg PUBLIC "-//W3C//DTD SVG 1.1//EN" "http://www.w3.org/Graphics/SVG/1.1/DTD/svg11.dtd" >
<svg xmlns="http://www.w3.org/2000/svg" xmlns:xlink="http://www.w3.org/1999/xlink" version="1.1" viewBox="-10 0 1042 1000">
  <g transform="matrix(1 0 0 -1 0 800)">
   <path fill="currentColor"
d="M348.481 97.6934l-82.2217 148.848l24.0225 10.1475l58.4395 -100.383l53.3027 101.418l27.2285 -11.0254zM265.568 -67.707v34.6641h38.626v22.0713h-38.626v34.6641h38.626v33.7148h31.3828v-33.7148h23.2197v31.2539h31.3828v-31.2539h41.292v-34.6641h-41.292
v-22.0713h41.292v-34.6641h-41.292v-36.1855h-31.3828v36.1855h-23.2197v-33.7246h-31.3828v33.7246h-38.626zM335.577 -33.043h23.2197v22.0713h-23.2197v-22.0713zM780.659 223.904c-0.529297 0 -0.985352 0.173828 -1.32227 0.358398l-214.094 -88.2627v-37.8242
c12.126 5.10742 24.251 10.2148 36.376 15.3213v-3.77051l-0.21875 -161.659h318.305l0.646484 155.446c10.9619 -6.48535 21.9238 -12.9697 32.8867 -19.4551l-0.677734 40.7051l-136.33 79.1182l1.46387 0.616211c-22.6963 11.7715 -24.457 12.7314 -36.2109 19.5508
c-0.288086 -0.102539 -0.56543 -0.144531 -0.824219 -0.144531zM884.594 -16.7148h-248.003l-0.665039 144.662l142.009 59.8174l107.859 -63.8086zM63.3545 -23.4795h55.5146l17.1611 52.2256l17.1602 -52.2256h55.5156l-44.8672 -32.2959l17.1611 -52.2246
l-44.9697 32.2959l-44.9707 -32.2959l17.1611 52.2246zM744.008 623.956zM743.825 621.795zM873.64 599.31c0 16.9268 -5.8291 32.3291 -19.2803 45.7803c-7.6123 7.6123 -15.2998 12.2773 -22.501 15.1133l-20.4375 8.0498
c25.2441 -4.36035 25.2441 -4.36035 28.5596 -5.34961c0.364258 0.124023 0.84082 0.222656 1.31836 0.134766c31.1836 -5.74414 54.8447 -19.6328 71.792 -36.5801c8.7793 -8.78027 14.8008 -17.1699 20.4053 -26.8799
c-14.6084 -25.3613 -39.5869 -53.9717 -93.4961 -63.5781l-11.5889 -2.06543c10.4746 6.42969 16.3154 9.58008 26.2344 19.6865c13.7598 13.7598 18.9941 29.4521 18.9941 45.6885zM807.022 548.468c-14.2236 0 -26.7217 4.87305 -37.0615 15.2129
c-15.0312 15.0332 -18.2559 35.2246 -11.626 53.5791l0.770508 2.13086l0.512695 -0.189453c10.4209 15.3799 10.4209 15.3799 11.0303 16.2676c16.2871 10.6621 16.2871 10.6621 16.5029 10.6895c11.501 4.83691 36.2783 9.24023 57.0381 -11.5205
c10.3213 -10.3203 14.7041 -22.3291 14.748 -35.1357c0 -8.89746 -1.88379 -22.6172 -14.751 -35.4844c-6.03906 -6.03906 -17.5361 -15.5498 -37.1641 -15.5498zM959.561 599.576c-8.00098 14.2002 -46.9238 82.6211 -149.449 82.6211
c-61.6562 0 -100.325 -24.6543 -123.281 -47.6104c-9.77637 -9.77637 -18.2119 -20.4854 -26.4932 -35.0098c7.3252 -12.8428 15.4844 -23.9092 25.7432 -34.1689c38.0742 -38.0742 84.8887 -48.2529 124.031 -48.2529c18.8223 0 76.8037 1.19824 123.759 48.1543
c13.4297 13.4297 21.4688 26.7471 25.6904 34.2666zM780.25 658.862c-6.13477 -2.30762 -15.7412 -8.38574 -19.4775 -12.1221c-4.99219 -4.99219 -4.99219 -4.99219 -6.13477 -6.89746c-0.957031 -1.59766 -1.16406 -1.79883 -2.41309 -2.92578
c-1.75684 -1.58594 -2.34668 -2.30371 -3.00586 -3.98438c-0.517578 -1.31738 -3.61426 -6.9248 -4.48242 -9.33691c0.115234 -0.566406 0.0341797 -1.12793 -0.117188 -1.52539c-7.06641 -18.502 -7.41113 -46.3008 14.7285 -68.4404
c5.74902 -5.74902 11.7432 -9.7666 17.498 -12.5898l15.8203 -7.76074l-17.2666 3.53711c-31.833 6.52246 -53.8496 21.2197 -68.584 35.9541c-8.74219 8.74316 -14.8193 17.1406 -20.4199 26.8057c10.5117 18.2178 33.9473 52.9287 92.6562 63.6045zM547.076 718.294
c1.48828 -26.4502 -11.0801 -101.791 -3.68652 -105.745c7.25879 -78.04 82.8154 -150.955 82.9111 -148.142l-12.8027 -8.53516c-28.8047 31.417 -60.9443 62.5098 -85.4355 147.643c-5.45117 -37.4854 -28.8662 -79.4707 -49.9043 -106.188
c-12.8018 -16.2568 -18.2891 -29.2627 -29.2637 -41.4541l-14.6309 11.582c16.4609 21.3379 25.7002 35.0908 36.5791 49.3809c55.5449 72.9629 57.8682 168.762 57.4385 219.512c5.16797 -0.112305 10.3369 -0.226562 15.5059 -0.34082
c2.90723 -0.0634766 3.02539 -2.89062 3.07715 -4.0957c0.00585938 -0.136719 -0.189453 -6.48828 0.211914 -13.6162zM313.812 706.84c1.48828 -26.4502 -11.0801 -101.791 -3.68652 -105.745c7.25879 -78.04 82.8154 -150.955 82.9111 -148.142l-12.8027 -8.53516
c-28.8047 31.417 -60.9443 62.5098 -85.4355 147.643c-5.45117 -37.4854 -28.8662 -79.4707 -49.9043 -106.188c-12.8018 -16.2568 -18.2891 -29.2627 -29.2637 -41.4541l-14.6309 11.582c16.4609 21.3379 25.7002 35.0908 36.5791 49.3809
c55.5449 72.9629 57.8682 168.762 57.4385 219.512c5.16797 -0.112305 10.3369 -0.226562 15.5059 -0.34082c2.90723 -0.0634766 3.02539 -2.89062 3.07715 -4.0957c0.00585937 -0.136719 -0.189453 -6.48828 0.211914 -13.6162z" />
  </g>

</svg>
