<?xml version="1.0" standalone="no"?>
<!DOCTYPE svg PUBLIC "-//W3C//DTD SVG 1.1//EN" "http://www.w3.org/Graphics/SVG/1.1/DTD/svg11.dtd" >
<svg xmlns="http://www.w3.org/2000/svg" xmlns:xlink="http://www.w3.org/1999/xlink" version="1.1" viewBox="-10 0 997 1000">
  <g transform="matrix(1 0 0 -1 0 800)">
   <path fill="currentColor"
d="M30.3242 741.553h55.5146l17.1611 52.2256l17.1602 -52.2256h55.5156l-44.8672 -32.2959l17.1611 -52.2246l-44.9697 32.2959l-44.9707 -32.2959l17.1611 52.2246zM271 608l-12 60c128.725 89.7881 355.203 55.3633 442.457 48.5605
c0 -0.0107422 0.000976562 -0.0214844 0.000976562 -0.0322266c27.4463 0.582031 75.1855 -1.32129 107.268 -33.4033c40.1396 -40.1396 38.6152 -108.841 37.5254 -169.365c-0.395508 -21.9258 -0.433594 -33.2402 -0.22168 -41.9463
c26.3789 -43.8281 72.168 -89.959 89.3252 -129.607c6.95117 -16.0635 5.49219 -24.7637 2.64551 -40.2051l-12 -14l-79.501 -63.5771v-212.431c1.93945 -31.0869 1.82422 -79.2412 -27.416 -108.48c-26.0322 -26.0322 -182.507 -12.0195 -220.584 -13.0049
l-2.90137 0.0126953c-103.732 -7.2998 -296.108 50.6025 -326.603 92.1719c-18.5059 25.2275 -31.4014 41.2529 -57.9951 55.3086v70.0371c25.8174 -16.2627 49.624 -17.8066 70.1904 -60.6357c44.2188 -92.082 349.455 -105.734 451.309 -108.438l-0.499023 -0.962891
c50 12 34.1514 4.48145 42.5352 13.5361c19.1768 20.7119 3.97852 41.9688 5.50781 57.9648h-0.541992v2.14941c-0.253906 0.990234 -0.500977 1.94141 -0.738281 2.84863h0.738281v207.174v3.4873v1.33887h1.58203l104 88h1.13281
c4.9834 45.8955 -62.8379 92.1289 -94.2158 139.501l-3 4l-1 1c-2.02051 3.99219 0.0439453 4.02539 -2.08398 11.5605c-0.0371094 0.130859 -0.189453 0.24707 -0.174805 0.367188l0.258789 2.07227l0.0644531 1.49902
c0.00976562 0.226562 0.150391 3.89551 0.242188 6.24414c3.11426 79.1523 5.19727 173.389 -83.8154 173.771c-136.35 16.7461 -373.536 9.53418 -431.49 -46.5137zM631 290h-242.116l-51.5947 164.688l93.6328 -51.7422l74.0742 115.93l73.8486 -115.93l93.0703 51.1455z
M410.128 310.834l189.376 -0.920898l32.7773 97.584l-65.5547 -36.8232l-60.6973 104.949l-63.125 -100.347l-67.9814 37.7451zM705.775 83.2217c7.32617 -1.31934 11.4863 -6.29395 11.8232 -11.6318c0.71875 -11.3721 -13.3564 -21.5049 -24.9277 -10.7393
c-1.44141 1.34082 -2.88477 2.9873 -3.6084 5.13184c-1.52734 1.75879 -11.4482 9.69238 -28.5361 23.0596c-11.7979 -15.9873 -16.6084 -16.6279 -19.4932 -16.7793c-6.71875 -0.353516 -15.2373 6.46289 -15.6465 12.9414
c-0.289062 4.5752 3.52441 8.74707 11.5791 8.63965c1.52344 0.0800781 8.35156 4.04395 6.52637 7.04492c-136.927 113.449 -136.927 113.449 -137.305 113.821c-0.241211 0.238281 -19.5811 20.4561 -19.9814 26.8076c-0.191406 3.01367 2.35254 5.37695 5.28516 5.53125
c2.54688 0.133789 4.64746 -0.805664 26.2061 -10.8799l0.167969 -0.136719c116.299 -93.5527 144.11 -115.924 145.418 -115.855c0.499023 0.0263672 1.60645 0.275391 3.91406 2.56934c4.50391 4.47461 0.755859 6.70898 3.09082 11.5674
c1.94238 4.04199 8.96973 7.49414 17.0869 1.29102c1.62109 -1.23828 6.18652 -5.00781 6.2334 -10.5234c0.0136719 -1.59863 -0.0839844 -5.97949 -16.1143 -18.6748c10.1484 -7.69043 13.502 -10.3252 21.4395 -18.1016c4.16602 -4.08203 5.0791 -4.76562 6.8418 -5.08301
v0zM697.505 74.8066c4.37891 -4.03027 1.96777 -7.52344 5.34375 -7.3457c1.61914 0.0849609 3.18262 1.34277 3.08301 2.9248c-0.185547 2.92871 -3.05859 1.05078 -8.42676 4.4209v0zM681.397 125.422c-0.00683594 -0.0419922 -0.12793 -0.201172 -0.133789 -0.242188
c0.0556641 0.0888672 0.100586 0.170898 0.133789 0.242188zM655.696 101.521c0.945312 0.524414 3.22852 1.43945 6.36816 -0.0966797c5.13867 -2.5127 21.1191 -17.2236 32.6113 -24.5186c-4.57031 3.86816 -9.53906 10.0908 -21.1582 18.6846
c-8.77344 6.48926 -10.8389 8.0166 -11.0137 10.7852c-0.0673828 1.06543 0.258789 1.97754 0.852539 2.81934c-1.79785 -0.0556641 -3.74023 0.28418 -5.54102 1.33984c-3.66699 2.15039 -6.00098 3.54004 -91.1826 72.0977
c-0.548828 0.447266 -44.8906 36.5 -55.7148 43.7725c9.91797 -10.4629 27.5771 -24.9053 75.8457 -64.1641c28.1533 -22.8984 37.8086 -30.8838 55.4199 -45.5283c6.61328 -5.49805 10.1211 -8.31445 11.5322 -10.3145
c0.724609 -1.02539 1.65234 -2.69238 1.98047 -4.87695v0zM640.191 83.2666c0.0458984 -0.0253906 0.0878906 -0.0478516 0.124023 -0.0654297c-0.0107422 -0.00292969 -0.112305 0.0683594 -0.124023 0.0654297zM344.724 42.8926
c-1.94434 -6.93262 -7.86914 -10.6133 -13.9785 -10.6133c-13.0176 0 -23.7344 14.083 -10.7568 24.5078c1.61621 1.29785 3.58105 2.58008 6.07129 3.14258c2.09863 1.35547 11.7451 10.3711 28.0215 25.918c-17.5332 12.2588 -17.9746 16.9004 -17.9746 19.6719
c0.000976562 6.45117 8.28906 14.1924 15.7041 14.1914c5.2373 0 9.76758 -3.90234 9.16211 -11.6035c-0.000976562 -1.46387 4.1123 -8.23828 7.64648 -6.67285c137.649 124.193 137.649 124.193 138.097 124.532c0.286133 0.21582 24.5127 17.5039 31.7832 17.5039
c3.4502 0 5.99316 -2.57715 5.99316 -5.39355c0 -2.44531 -1.19727 -4.39941 -13.9844 -24.4238l-0.166016 -0.152344c-113.713 -105.652 -140.905 -130.918 -140.905 -132.175c0 -0.478516 0.217773 -1.55273 2.69531 -3.90137
c4.83496 -4.58008 7.60938 -1.12891 13.0117 -3.65625c4.49609 -2.10352 8.0127 -9.03906 0.448242 -16.4326c-1.50977 -1.47559 -6.08496 -5.61816 -12.3809 -5.3291c-1.82422 0.0830078 -6.81641 0.441406 -20.3379 16.5508
c-9.38281 -9.24707 -12.5908 -12.2979 -21.9395 -19.4248c-4.90625 -3.74023 -5.74121 -4.57227 -6.20996 -6.24023v0zM335.62 51.3164c-4.86133 -3.94727 -8.70117 -1.42773 -8.70117 -4.66992c0 -1.55469 1.34082 -3.12793 3.15234 -3.12793
c3.35254 0 1.38281 2.86426 5.54883 7.79785v0zM394.333 63.6729c-0.0478516 0.00878906 -0.22168 0.133789 -0.268555 0.142578c0.0986328 -0.0585938 0.189453 -0.106445 0.268555 -0.142578zM368.607 89.7158c0.541992 -0.936523 1.44922 -3.17676 -0.492188 -6.08887
c-3.1748 -4.7666 -20.918 -19.1719 -29.9297 -29.7295c4.6875 4.13965 12.085 8.51953 22.5869 19.1211c7.92969 8.00488 9.7959 9.88867 12.9648 9.88867c1.21973 0 2.24121 -0.367188 3.16602 -0.986328c0.0439453 1.72363 0.548828 3.5625 1.86133 5.22168
c2.67383 3.37988 4.39941 5.53027 87.7275 82.9121c0.541992 0.498047 44.3359 40.7578 53.2822 50.6777c-12.5312 -8.86035 -30.0693 -24.8877 -77.7559 -68.7119c-27.8135 -25.5615 -37.5039 -34.3193 -55.2676 -50.29
c-6.66992 -5.99707 -10.0938 -9.18457 -12.46 -10.4141c-1.21387 -0.631836 -3.1709 -1.41895 -5.68359 -1.60059v0zM348.712 105.659c-0.0322266 -0.0429688 -0.0595703 -0.0810547 -0.0830078 -0.115234c-0.00195312 0.0107422 0.0849609 0.103516 0.0830078 0.115234z
" />
  </g>

</svg>
