<?xml version="1.0" standalone="no"?>
<!DOCTYPE svg PUBLIC "-//W3C//DTD SVG 1.1//EN" "http://www.w3.org/Graphics/SVG/1.1/DTD/svg11.dtd" >
<svg xmlns="http://www.w3.org/2000/svg" xmlns:xlink="http://www.w3.org/1999/xlink" version="1.1" viewBox="-10 0 1086 1000">
  <g transform="matrix(1 0 0 -1 0 800)">
   <path fill="currentColor"
d="M635.708 735.785c21.374 0 53.0391 -11.6445 70.1777 -26.9199l0.15625 -0.166016c14.8633 -15.8535 27.1396 -46.7227 27.1396 -68.3652c0 -2.17773 -0.129883 -5.07031 -0.165039 -5.88477c0 -0.0351562 -0.00390625 -0.0654297 -0.00390625 -0.0908203
c-0.0205078 -18.1621 -5.30957 -54.9053 -51.2363 -99.4307c-88.4424 -85.7471 -136.896 -132.335 -146.505 -141.066c-1.26953 -1.15234 -1.04883 -1.42285 -2.87891 -2.125l-1.91016 -0.802734c-2.67871 1.17969 -2.92871 1.28906 -3.72949 2.15039
c-11.6357 12.5098 -148.765 143.353 -150.24 144.828c-15.6592 15.6592 -29.0205 36.4111 -31.0205 39.8496c-4 6.92773 -9.33594 19.0361 -11.752 26.6592c-4.05762 12.8037 -5.28711 25.166 -5.34082 35.3604l-0.00390625 0.87793
c2.40234 6.77734 6.51367 25.3232 13.5723 43.6162c1.6875 4.37305 7.69043 19.207 13.3662 24.3213c16.5098 14.875 48.3086 27.1553 70.4355 27.1553c10.3877 0 20.7158 -1.48242 32.6699 -5.42676c19.6846 -6.49707 44.0752 -22.5586 66.6348 -45.1191
c4.02344 -4.02246 4.58789 -4.34961 5.07227 -4.34961c0.09375 0 0.18457 0.0126953 0.296875 0.0126953c0.959961 0 0.959961 0 9.99805 9.03809c4.26367 4.2627 32.0293 31.2217 62.1719 41.1553c13.0898 4.45605 28.9482 4.72266 33.0947 4.72266zM752.02 639.825
v0.24707c0 30.5254 -17.5186 67.207 -33.6484 83.3359c-10.7393 10.7393 -48.9697 31.8994 -83.0312 31.8994c-20.1953 0 -34.7773 -4.49219 -39.791 -6.28125c-9.12988 -3.06055 -22.5039 -9.55469 -30.5371 -14.8311l0.0292969 0.0205078
c-0.00976562 -0.00683594 -0.0195312 -0.0136719 -0.0585938 -0.0390625c0.00976562 0.00585938 0.0195312 0.0126953 0.0292969 0.0185547v0c-13.6162 -9.23047 -20.8389 -14.127 -35.2793 -26.9629c-50.041 44.7705 -81.5791 47.4912 -104.918 47.4912
c-31.3818 0 -69.7441 -18.582 -84.2051 -33.043c-10.6631 -10.6631 -31.7529 -47.5645 -31.7529 -81.1113c0 -20.5537 3.13867 -34.3984 5.70508 -42.3398c2.84473 -8.96484 8.78027 -22.3984 13.4922 -30.542c1.30371 -2.25488 3.43359 -5.21875 14.7119 -20.2725
l0.117188 -0.974609c-0.00976562 0.0419922 -0.0439453 0.0712891 -0.0439453 0.0712891c0.00488281 -0.015625 0.0214844 -0.0478516 0.046875 -0.0957031c3.34375 -6.17871 17.46 -20.6367 22.5879 -25.6025l147.641 -142.973
c1.43359 -1.38867 7.70898 -7.18262 16.7344 -7.18262c5.15039 0 11.1953 1.88574 17.748 7.55176c1.3125 1.13379 11.7148 10.126 147.152 142.375c57.1816 55.8359 57.2705 99.0586 57.2705 119.24zM463.013 690.182l63.3594 -63l65.8271 62.9648l20.3584 -17.6074
l-65.7002 -66.3525l71.8018 -66l-19.7559 -16.457l-70.9033 65.2705l-65.0742 -66.2334l-18.6016 20.3408l63.5732 64.6514l-62.7803 65.3066zM780.659 223.904c-0.529297 0 -0.985352 0.173828 -1.32227 0.358398l-214.094 -88.2627v-37.8242
c12.126 5.10742 24.251 10.2148 36.376 15.3213v-3.77051l-0.21875 -161.659h318.305l0.646484 155.446c10.9619 -6.48535 21.9238 -12.9697 32.8867 -19.4551l-0.677734 40.7051l-136.33 79.1182l1.46387 0.616211c-22.6963 11.7715 -24.457 12.7314 -36.2109 19.5508
c-0.288086 -0.102539 -0.56543 -0.144531 -0.824219 -0.144531zM884.594 -16.7148h-248.003l-0.665039 144.662l142.009 59.8174l107.859 -63.8086zM348.481 97.6934l-82.2217 148.848l24.0225 10.1475l58.4395 -100.383l53.3027 101.418l27.2285 -11.0254zM265.568 -67.707
v34.6641h38.626v22.0713h-38.626v34.6641h38.626v33.7148h31.3828v-33.7148h23.2197v31.2539h31.3828v-31.2539h41.292v-34.6641h-41.292v-22.0713h41.292v-34.6641h-41.292v-36.1855h-31.3828v36.1855h-23.2197v-33.7246h-31.3828v33.7246h-38.626zM335.577 -33.043
h23.2197v22.0713h-23.2197v-22.0713zM63.3545 -23.4795h55.5146l17.1611 52.2256l17.1602 -52.2256h55.5156l-44.8672 -32.2959l17.1611 -52.2246l-44.9697 32.2959l-44.9707 -32.2959l17.1611 52.2246z" />
  </g>

</svg>
