<?xml version="1.0" standalone="no"?>
<!DOCTYPE svg PUBLIC "-//W3C//DTD SVG 1.1//EN" "http://www.w3.org/Graphics/SVG/1.1/DTD/svg11.dtd" >
<svg xmlns="http://www.w3.org/2000/svg" xmlns:xlink="http://www.w3.org/1999/xlink" version="1.1" viewBox="-10 0 1118 1000">
  <g transform="matrix(1 0 0 -1 0 800)">
   <path fill="currentColor"
d="M348.481 97.6934l-82.2217 148.848l24.0225 10.1475l58.4395 -100.383l53.3027 101.418l27.2285 -11.0254zM265.568 -67.707v34.6641h38.626v22.0713h-38.626v34.6641h38.626v33.7148h31.3828v-33.7148h23.2197v31.2539h31.3828v-31.2539h41.292v-34.6641h-41.292
v-22.0713h41.292v-34.6641h-41.292v-36.1855h-31.3828v36.1855h-23.2197v-33.7246h-31.3828v33.7246h-38.626zM335.577 -33.043h23.2197v22.0713h-23.2197v-22.0713zM780.659 223.904c-0.529297 0 -0.985352 0.173828 -1.32227 0.358398l-214.094 -88.2627v-37.8242
c12.126 5.10742 24.251 10.2148 36.376 15.3213v-3.77051l-0.21875 -161.659h318.305l0.646484 155.446c10.9619 -6.48535 21.9238 -12.9697 32.8867 -19.4551l-0.677734 40.7051l-136.33 79.1182l1.46387 0.616211c-22.6963 11.7715 -24.457 12.7314 -36.2109 19.5508
c-0.288086 -0.102539 -0.56543 -0.144531 -0.824219 -0.144531zM884.594 -16.7148h-248.003l-0.665039 144.662l142.009 59.8174l107.859 -63.8086zM63.3545 -23.4795h55.5146l17.1611 52.2256l17.1602 -52.2256h55.5156l-44.8672 -32.2959l17.1611 -52.2246
l-44.9697 32.2959l-44.9707 -32.2959l17.1611 52.2246zM155.544 716.716c-31.542 0 -64.2451 -18.1328 -64.2451 -52.4258c0 -4.93457 0.571289 -8.50977 1.36035 -12.6592c-0.463867 -3.48145 -0.84668 -6.62695 -0.84668 -11.1318
c0 -45.4258 43.3057 -58.8154 84.0898 -70.3086c7.22266 -2.03516 9.66016 -2.57227 11.2061 -3.32227c4.48145 -2.1709 8.57031 -2.91406 12.3174 -2.91406c8.98535 0 13.4639 3.65625 22.6992 6.14258c3.52734 -0.47168 4.65234 -0.574219 7.43652 -0.574219
c11.6777 0 22.8154 3.53125 30.0039 3.53125c9.65625 -0.0722656 10.7637 -4.15039 21.9912 -7.68555c5.25781 -1.65625 9.36816 -5.77539 16.748 -13.8994c9.64258 -10.6172 20.5977 -22.4502 38.6406 -23.1973c0.668945 -0.00683594 6.90723 -1.12305 13.3398 -1.12305
c7.39355 0 14.9033 1.30957 21.5742 5.24902c1.93359 1.1416 3.50586 2.06836 12.0215 6.77637c13.6045 7.52148 29.334 16.3203 41.8115 28.7979c19.6777 19.6777 21.5586 40.9727 21.5586 48.4824c0 30.8467 -27.8936 58.1992 -56.4502 58.1992
c-10.7598 0 -14.5889 1.47656 -19.374 1.60938c-2.32617 0.0400391 -19.8047 2.90625 -30.9805 14.082c-7.79688 7.79688 -10.4561 17.8242 -10.4561 28.54c0 6.24902 0.774414 8.83203 0.774414 15.5117c0 14.6572 -4.84277 44.2568 -43.9639 44.2568
c-16.6826 0 -27.501 -16.0586 -36.9688 -30.1113c-2.60156 -3.86133 -4.88867 -7.33203 -7.65332 -10.0967c-15.499 -15.499 -15.499 -15.499 -17.3086 -18.9922h-5.66895v-5.11719c-7.99902 -2.32715 -9.9541 -2.89551 -15.6016 -2.89551
c-6.31738 0 -29.3789 3.16113 -29.6699 3.22754c-6.06641 1.37891 -12.2578 2.04785 -18.3857 2.04785zM433.601 618.052v-0.356445c-0.303711 -34.9482 -29.9131 -51.7109 -57.4053 -67.1592c-3.8418 -2.15918 -7.62207 -4.28418 -11.252 -6.42676
c-4.12891 -2.43945 -9.84668 -3.17676 -15.791 -3.17676c-4.97559 0 -11.0391 0.919922 -11.1514 0.919922c-11.3193 0 -17.9727 7.58691 -25.3701 16.0234c-7.10059 8.09766 -14.623 16.5703 -26.9854 20.4629c-6.67676 2.10254 -12.2637 8.21094 -26.0264 8.31445
c-9.35742 0 -23.1582 -3.48438 -30.9141 -3.48438c-3.31055 0 -4.18652 0.546875 -7.99414 0.546875c-11.9502 0 -17.2422 -6.08496 -22.833 -6.08496c-1.51758 0 -3.50879 0.703125 -5.30859 1.72949c-7.49023 4.27148 -54.6328 11.1396 -75.5146 32.0205
c-9.55859 9.55957 -11.6943 19.7949 -11.6943 27.9023c0 5.47168 0.907227 9.83887 0.907227 13.1396c0 1.91211 -1.44629 5.50293 -1.44629 12.0312c0 29.5693 31.6729 38.6162 49.1289 38.6162c14.6514 0 35.084 -5.69336 49.7217 -5.69336h0.600586
c9.91992 0 18.6953 2.54102 25.0498 8.94434l22.6553 22.6875c14.5557 14.5557 22.542 36.0449 34.8232 36.0449c11.7129 0 30.4453 -1.95117 30.4453 -29.375c0 -6.41699 -0.81543 -9.25 -0.81543 -16.1318c0 -51.2256 52.6035 -56.7275 54.1172 -56.875h0.235352
c3.69727 -0.0224609 8.78906 -1.82422 16.3887 -1.82422c1.06836 0 1.97461 0.0078125 4.17578 0.205078c18.4463 -0.695312 40.2578 -16.624 42.2529 -43.001zM626.731 649.217c-31.542 0 -64.2451 -18.1328 -64.2451 -52.4258
c0 -4.93457 0.571289 -8.50977 1.36035 -12.6592c-0.463867 -3.48145 -0.84668 -6.62695 -0.84668 -11.1318c0 -45.4258 43.3057 -58.8154 84.0898 -70.3086c7.22266 -2.03516 9.66016 -2.57227 11.2061 -3.32227c4.48145 -2.1709 8.57031 -2.91406 12.3174 -2.91406
c8.98535 0 13.4639 3.65625 22.6992 6.14258c3.52734 -0.47168 4.65234 -0.574219 7.43652 -0.574219c11.6777 0 22.8154 3.53125 30.0039 3.53125c9.65625 -0.0722656 10.7637 -4.15039 21.9912 -7.68555c5.25781 -1.65625 9.36905 -5.77459 16.748 -13.8994
c9.64258 -10.6172 39.4863 -27.5957 48.5078 -27.9697c0.333984 -0.00292969 3.45312 -0.561523 6.66992 -0.561523c3.69629 0 11.7056 5.5212 18.377 9.45996c1.93359 1.1416 3.50586 2.06836 12.0215 6.77637c13.6045 7.52148 29.334 16.3203 41.8115 28.7979
c19.6777 19.6777 21.5586 40.9727 21.5586 48.4824c0 30.8467 -27.8936 58.1992 -56.4502 58.1992c-10.7598 0 -14.5889 1.47656 -19.374 1.60938c-2.32617 0.0400391 -19.8047 2.90625 -30.9805 14.082c-7.79688 7.79688 -10.4561 17.8242 -10.4561 28.54
c0 6.24902 0.774414 8.83203 0.774414 15.5117c0 14.6572 -4.84277 44.2568 -43.9639 44.2568c-16.6826 0 -27.501 -16.0586 -36.9688 -30.1113c-2.60156 -3.86133 -4.88867 -7.33203 -7.65332 -10.0967c-15.499 -15.499 -15.499 -15.499 -17.3086 -18.9922h-5.66895
v-5.11719c-7.99902 -2.32715 -9.9541 -2.89551 -15.6016 -2.89551c-6.31738 0 -29.3789 3.16113 -29.6699 3.22754c-6.06641 1.37891 -12.2578 2.04785 -18.3857 2.04785zM904.788 550.553v-0.356445c-0.303711 -34.9482 -29.9131 -51.7109 -57.4053 -67.1592
c-3.8418 -2.15918 -7.62207 -4.28418 -11.252 -6.42676c-4.12891 -2.43945 -9.84668 -3.17676 -15.791 -3.17676c-4.97559 0 -11.0391 0.919922 -11.1514 0.919922c-11.3193 0 -17.9727 7.58691 -25.3701 16.0234c-7.10059 8.09766 -14.623 16.5703 -26.9854 20.4629
c-6.67676 2.10254 -12.2637 8.21094 -26.0264 8.31445c-9.35742 0 -23.1582 -3.48438 -30.9141 -3.48438c-3.31055 0 -4.18652 0.546875 -7.99414 0.546875c-11.9502 0 -17.2422 -6.08496 -22.833 -6.08496c-1.51758 0 -3.50879 0.703125 -5.30859 1.72949
c-7.49023 4.27148 -54.6328 11.1396 -75.5146 32.0205c-9.55859 9.55957 -11.6943 19.7949 -11.6943 27.9023c0 5.47168 0.907227 9.83887 0.907227 13.1396c0 1.91211 -1.44629 5.50293 -1.44629 12.0312c0 29.5693 31.6729 38.6162 49.1289 38.6162
c14.6514 0 35.084 -5.69336 49.7217 -5.69336h0.600586c9.91992 0 18.6953 2.54102 25.0498 8.94434l22.6553 22.6875c14.5557 14.5557 22.542 36.0449 34.8232 36.0449c11.7129 0 30.4453 -1.95117 30.4453 -29.375c0 -6.41699 -0.81543 -9.25 -0.81543 -16.1318
c0 -51.2256 52.6035 -56.7275 54.1172 -56.875h0.235352c3.69727 -0.0224609 8.78906 -1.82422 16.3887 -1.82422c1.06836 0 1.97461 0.0078125 4.17578 0.205078c18.4463 -0.695312 40.2578 -16.624 42.2529 -43.001zM511.5 436.75c0 13.8672 -3.27148 38.75 -26.75 38.75
c-12.7568 0 -25.6094 -0.223633 -33.7227 -29.5498c-10.8984 -39.3896 24.0371 -75.9688 43.9014 -60.5439c-0.612305 -2.82715 -0.928711 -5.71777 -0.928711 -8.65625c0 -10.3262 3.91309 -20.0527 10.7949 -28.54l-11.8984 -92.21h12.5127l10.5127 81.4727
c7.69434 -5.92773 17.0957 -10.8262 27.6865 -14.3438l9.48145 -74.1289h12.5117l-9.03711 70.6523c8.27832 -1.72363 17.0723 -2.65234 26.1855 -2.65234c12.5215 0 24.4424 1.75391 35.25 4.91406v-73.9141h13.5v78.8398c7.76172 3.44824 14.6748 7.69434 20.4795 12.5625
l20.6729 -89.9023h13.5205l-21.7432 103.883c4.55078 7.18262 7.07031 15.082 7.07031 23.3672c0 32.9209 -39.7715 59.75 -88.75 59.75c-31.3213 0 -58.8779 -10.9717 -74.6758 -27.4922c2.16895 7.98926 3.42578 17.3945 3.42578 27.7422z" />
  </g>

</svg>
