<?xml version="1.0" standalone="no"?>
<!DOCTYPE svg PUBLIC "-//W3C//DTD SVG 1.1//EN" "http://www.w3.org/Graphics/SVG/1.1/DTD/svg11.dtd" >
<svg xmlns="http://www.w3.org/2000/svg" xmlns:xlink="http://www.w3.org/1999/xlink" version="1.1" viewBox="-10 0 1051 1000">
  <g transform="matrix(1 0 0 -1 0 800)">
   <path fill="currentColor"
d="M828.399 483.872c0 9.49878 0.360099 25.4826 0.360099 28.905l-0.318652 61.3747l-8.69455 54.78l-24.0577 41.7601l-29.8355 19.1251l-33.9409 8.02542l-47.9505 1.85133v0.765382l-107.704 8.96128l-161.614 -4.8437l-135.511 -48.0118l4.97421 -24.8711
l90.1513 34.2037l168.519 13.9909l163.859 -8.05849l72.0585 -32.0852l24.6852 -76.5829c-11.2968 -92.7231 -11.5388 -94.7093 -10.6225 -98.1968c0.272553 -1.03738 0.408327 -1.98777 0.495372 -2.92219c0.487753 -0.641757 1.13403 -1.58506 1.4862 -2.05622
l30.4464 -40.7334l38.0432 -60.0682l23.93 -33.502l-96.7113 -80.2498l-3.19974 -219.288c0.962733 -7.56244 2.78458 -22.0112 5.01798 -45.877c-0.12894 -0.269919 -9.65147 -20.9678 -12.8349 -27.02c-1.80565 -3.43278 -3.36365 -6.39475 -8.94453 -11.1259
c-28.726 -6.87192 -37.6748 -9.01268 -53.7943 -9.01268c-3.38415 0 -6.77838 0.14333 -10.1737 0.446144l-127.95 -3.2205l-189.706 31.9736l-119.91 72.0259l-21.8729 31.5454c-0.18608 0.126152 -14.9542 10.3475 -18.5829 12.6523v-31.4635
c5.41685 -3.87145 13.5068 -7.36272 24.4398 -17.2503c7.32645 -6.62591 2.09556 -4.45645 10.6241 -11.9264c1.03002 -0.902171 1.03002 -0.902171 17.2005 -21.8062l70.2643 -41.1391l123.979 -35.7692l40.8353 -3.74581
c52.8258 -4.90757 59.0669 -6.73248 83.0467 -7.42728l68.08 -1.97257l89.7606 0.254271l51.1066 12.4914l15.1376 25.2075l6.27671 34.16l-0.268638 82.9487l0.0291888 84.2282l-0.00582149 87.5189l84.7837 67.8016l7.68593 8.96692l1.11464 7.19504
c0.44913 7.61262 -1.52476 12.8022 -3.31214 18.1783l-23.3304 38.8443l-33.0243 43.448l-34.3179 48.9016c-0.202711 16.1296 -0.202711 16.1296 -0.202711 17.6951zM33.2949 712.521h55.5146l17.1611 52.2256l17.1602 -52.2256h55.5156l-44.8672 -32.2959
l17.1611 -52.2246l-44.9697 32.2959l-44.9707 -32.2959l17.1611 52.2246zM529.628 313.329c0.43457 -7.70117 -2.65723 -27.9404 -1.79395 -32.8408c0.263672 -0.300781 0.536133 -0.766602 0.592773 -1.36816c1.79492 -19.3115 17.6016 -38.3438 23.7158 -44.457
c1.23828 -1.2373 1.23828 -1.2373 4.82617 -4.01367c-0.421875 -0.275391 -0.421875 -0.275391 -6.86328 -4.57031c-0.976562 -0.652344 -2.2998 -0.5 -3.10059 0.374023c-10.3262 11.2314 -18.4346 20.0527 -25.6123 40.5391
c-3.24219 -10.0957 -9.15918 -20.0107 -14.626 -26.9512c-3.81934 -4.85156 -6.82324 -10.8037 -9.68066 -13.6611c-0.87207 -0.870117 -2.24805 -0.932617 -3.18848 -0.186523c-4.85645 3.84375 -4.85645 3.84375 -4.95508 3.94336
c-0.864258 0.863281 -0.932617 2.22363 -0.205078 3.16602c2.72852 3.53613 11.7334 15.8447 11.8525 16.0029c17.4346 22.8994 18.2812 53.335 18.1416 69.7227c-0.0117188 1.35547 1.09961 2.45312 2.45703 2.42188c6.41992 -0.141602 6.41992 -0.141602 7.34766 -1.07031
c0.695312 -0.695312 1.0498 -1.72852 1.02637 -2.90625c-0.00878906 -0.398438 -0.0429688 -2.19336 0.0654297 -4.14453zM425.76 313.425c0.433594 -7.70215 -2.6582 -27.9414 -1.7959 -32.8408c0.263672 -0.301758 0.537109 -0.766602 0.59375 -1.36816
c1.7959 -19.3115 17.6025 -38.3438 23.7158 -44.457c1.2373 -1.23828 1.2373 -1.23828 4.8252 -4.01367c-0.420898 -0.276367 -0.420898 -0.276367 -6.8623 -4.57129c-0.978516 -0.652344 -2.2998 -0.5 -3.10254 0.374023c-10.3242 11.2324 -18.4336 20.0527 -25.6113 40.54
c-3.24219 -10.0967 -9.16016 -20.0127 -14.625 -26.9521c-3.81934 -4.85059 -6.82422 -10.8018 -9.68164 -13.6611c-0.870117 -0.870117 -2.24609 -0.932617 -3.18848 -0.186523c-4.85547 3.84375 -4.85547 3.84375 -4.95605 3.94336
c-0.863281 0.864258 -0.929688 2.22363 -0.204102 3.16602c2.72754 3.53613 11.7334 15.8447 11.8545 16.0039c17.4326 22.8984 18.2793 53.335 18.1406 69.7217c-0.0117188 1.35547 1.10059 2.45312 2.45508 2.42285c6.4209 -0.142578 6.4209 -0.142578 7.34766 -1.06934
c0.695312 -0.697266 1.05078 -1.72949 1.02637 -2.90918c-0.00585938 -0.395508 -0.0429688 -2.19336 0.0683594 -4.14258zM479.311 433.229c0.433594 -7.7002 -2.65723 -27.9414 -1.79395 -32.8408c0.263672 -0.301758 0.536133 -0.765625 0.591797 -1.36816
c1.7959 -19.3115 17.6025 -38.3428 23.7168 -44.457c1.23828 -1.23828 1.23828 -1.23828 4.82617 -4.01367c-0.421875 -0.276367 -0.421875 -0.276367 -6.86328 -4.57031c-0.977539 -0.652344 -2.2998 -0.499023 -3.10156 0.373047
c-10.3252 11.2334 -18.4336 20.0537 -25.6113 40.541c-3.24414 -10.0977 -9.16016 -20.0117 -14.626 -26.9531c-3.81934 -4.85059 -6.82422 -10.8018 -9.68066 -13.6611c-0.87207 -0.870117 -2.24609 -0.930664 -3.19043 -0.185547
c-4.85449 3.84277 -4.85449 3.84277 -4.9541 3.94336c-0.863281 0.863281 -0.930664 2.22266 -0.205078 3.16504c2.72754 3.53613 11.7344 15.8447 11.8535 16.0039c17.4346 22.8984 18.2812 53.335 18.1416 69.7227c-0.0117188 1.35645 1.09961 2.45215 2.45605 2.42188
c6.41895 -0.141602 6.41895 -0.141602 7.34668 -1.06934c0.696289 -0.696289 1.05176 -1.72852 1.02734 -2.9082c-0.0078125 -0.396484 -0.0429688 -2.19336 0.0664062 -4.14355zM252.551 315.389c0 -107.801 98.1738 -195.389 219.449 -195.389
s219.449 87.5879 219.449 195.389c0 107.799 -98.1738 195.387 -219.449 195.387s-219.449 -87.5879 -219.449 -195.387zM237.15 318.275c0 115.501 105.393 208.863 234.85 208.863s234.85 -93.3623 234.85 -208.863c0 -115.5 -105.393 -208.863 -234.85 -208.863
s-234.85 93.3633 -234.85 208.863z" />
  </g>

</svg>
