<?xml version="1.0" standalone="no"?>
<!DOCTYPE svg PUBLIC "-//W3C//DTD SVG 1.1//EN" "http://www.w3.org/Graphics/SVG/1.1/DTD/svg11.dtd" >
<svg xmlns="http://www.w3.org/2000/svg" xmlns:xlink="http://www.w3.org/1999/xlink" version="1.1" viewBox="-10 0 1008 1000">
  <g transform="matrix(1 0 0 -1 0 800)">
   <path fill="currentColor"
d="M354.547 181.929l-82.2217 148.848l24.0225 10.1475l58.4395 -100.383l53.3027 101.418l27.2285 -11.0254zM271.634 16.5283v34.6641h38.626v22.0713h-38.626v34.6641h38.626v33.7148h31.3828v-33.7148h23.2197v31.2539h31.3828v-31.2539h41.292v-34.6641h-41.292
v-22.0713h41.292v-34.6641h-41.292v-36.1855h-31.3828v36.1855h-23.2197v-33.7246h-31.3828v33.7246h-38.626zM341.643 51.1924h23.2197v22.0713h-23.2197v-22.0713zM786.725 308.14c-0.529297 0 -0.985352 0.173828 -1.32227 0.358398l-214.094 -88.2627v-37.8242
c12.126 5.10742 24.251 10.2148 36.376 15.3213v-3.77051l-0.21875 -161.659h318.305l0.646484 155.446c10.9619 -6.48535 21.9238 -12.9697 32.8867 -19.4551l-0.677734 40.7051l-136.33 79.1182l1.46387 0.616211c-22.6963 11.7715 -24.457 12.7314 -36.2109 19.5508
c-0.288086 -0.102539 -0.56543 -0.144531 -0.824219 -0.144531zM890.659 67.5205h-248.003l-0.665039 144.662l142.009 59.8174l107.859 -63.8086zM69.4199 60.7559h55.5146l17.1611 52.2256l17.1602 -52.2256h55.5156l-44.8672 -32.2959l17.1611 -52.2246l-44.9697 32.2959
l-44.9707 -32.2959l17.1611 52.2246zM469.356 703.126zM469.204 701.325zM579.257 682.587c0 -13.957 -4.54883 -27.5723 -16.3779 -39.4004c-5.2959 -5.29688 -9.76074 -8.97461 -13.8604 -11.5117c24.1191 4.29688 55.5293 15.459 76.0801 51.1348
c-4.46387 7.73242 -9.83789 14.748 -16.166 21.0762c-13.8633 13.8633 -33.2266 25.2461 -58.8428 29.9648c-0.320312 0.0585938 -0.208008 -0.388672 -1.23535 -0.0820312c-0.680664 0.203125 -2.70312 0.806641 -5.60059 1.30859
c6.23145 -2.45508 12.8633 -6.49023 19.3877 -13.0137c11.5459 -11.5469 16.6152 -24.9082 16.6152 -39.4766zM521.868 642.095c15.6963 0 24.7676 7.53223 29.6445 12.4082c10.2822 10.2832 11.7441 21.1035 11.7441 28.2441
c-0.0361328 10.2305 -3.48438 19.6992 -11.7412 27.9551c-16.7588 16.7578 -36.7305 12.9785 -45.7705 9.07324c-0.0869141 0 -12.7236 -8.33691 -12.8516 -8.42188c-3.29395 -4.79395 -6.53027 -9.64355 -9.80176 -14.459l-0.0332031 0.0126953
c-5.30469 -14.6875 -2.74023 -30.6914 9.25098 -42.6846c8.27344 -8.27246 18.1543 -12.1279 29.5586 -12.1279zM524.442 612.251v0c-14.9922 0 -64.6416 0.71582 -104.684 40.7578c-8.92969 8.92969 -15.9766 18.584 -22.2832 29.8008
c-0.0224609 0.0390625 -0.0429688 0.0761719 -0.0644531 0.115234l0.0644531 -0.115234c7.14258 12.707 14.4453 22.0391 22.9072 30.502c19.4102 19.4102 52.1396 40.2227 104.06 40.2227c13.376 0 63.9844 -0.235352 104.028 -40.2793
c9.13477 -9.13477 16.3076 -19.0039 22.6611 -30.4434c0.0214844 -0.0390625 0.0419922 -0.0761719 0.0625 -0.113281l-0.0625 0.113281c-3.39453 -6.11719 -10.293 -17.9453 -22.2314 -29.8838c-39.6885 -39.6885 -88.6582 -40.6768 -104.458 -40.6768zM498.896 733.969
c-41.7656 -7.59473 -63.2383 -30.1084 -75.3848 -51.1572c5.19043 -8.95703 11.0479 -15.8848 16.1768 -21.0146c12.0557 -12.0557 30.0645 -24.0947 56.2061 -29.4502c-4.96484 2.43555 -10.1348 5.90234 -15.0811 10.8486
c-19.0762 19.0762 -18.792 43.0947 -12.6992 59.0303c0.0927734 0.139648 0.0537109 0.228516 -0.0898438 0.279297c-0.230469 1.22656 3.34277 7.29492 3.92871 8.78906c0.730469 1.86133 1.59863 2.76562 2.99414 4.02539
c0.977539 0.880859 0.994141 0.899414 1.6582 2.00781c0.996094 1.66211 1.04102 1.75684 5.39551 6.11133c3.42578 3.42578 11.4463 8.48047 16.8955 10.5303zM885.742 684.007l-65.6738 56.8057l-11.6064 -13.1924l42.2451 -35.3613l-153.658 -0.179688l0.951172 -18.0791
l152.571 1.2334l-40.2812 -33.9062l12.3125 -13.0234z" />
  </g>

</svg>
