<?xml version="1.0" standalone="no"?>
<!DOCTYPE svg PUBLIC "-//W3C//DTD SVG 1.1//EN" "http://www.w3.org/Graphics/SVG/1.1/DTD/svg11.dtd" >
<svg xmlns="http://www.w3.org/2000/svg" xmlns:xlink="http://www.w3.org/1999/xlink" version="1.1" viewBox="-10 0 1051 1000">
  <g transform="matrix(1 0 0 -1 0 800)">
   <path fill="currentColor"
d="M828.399 483.872c0 9.49878 0.360099 25.4826 0.360099 28.905l-0.318652 61.3747l-8.69455 54.78l-24.0577 41.7601l-29.8355 19.1251l-33.9409 8.02542l-47.9505 1.85133v0.765382l-107.704 8.96128l-161.614 -4.8437l-135.511 -48.0118l4.97421 -24.8711
l90.1513 34.2037l168.519 13.9909l163.859 -8.05849l72.0585 -32.0852l24.6852 -76.5829c-11.2968 -92.7231 -11.5388 -94.7093 -10.6225 -98.1968c0.272553 -1.03738 0.408327 -1.98777 0.495372 -2.92219c0.487753 -0.641757 1.13403 -1.58506 1.4862 -2.05622
l30.4464 -40.7334l38.0432 -60.0682l23.93 -33.502l-96.7113 -80.2498l-3.19974 -219.288c0.962733 -7.56244 2.78458 -22.0112 5.01798 -45.877c-0.12894 -0.269919 -9.65147 -20.9678 -12.8349 -27.02c-1.80565 -3.43278 -3.36365 -6.39475 -8.94453 -11.1259
c-28.726 -6.87192 -37.6748 -9.01268 -53.7943 -9.01268c-3.38415 0 -6.77838 0.14333 -10.1737 0.446144l-127.95 -3.2205l-189.706 31.9736l-119.91 72.0259l-21.8729 31.5454c-0.18608 0.126152 -14.9542 10.3475 -18.5829 12.6523v-31.4635
c5.41685 -3.87145 13.5068 -7.36272 24.4398 -17.2503c7.32645 -6.62591 2.09556 -4.45645 10.6241 -11.9264c1.03002 -0.902171 1.03002 -0.902171 17.2005 -21.8062l70.2643 -41.1391l123.979 -35.7692l40.8353 -3.74581
c52.8258 -4.90757 59.0669 -6.73248 83.0467 -7.42728l68.08 -1.97257l89.7606 0.254271l51.1066 12.4914l15.1376 25.2075l6.27671 34.16l-0.268638 82.9487l0.0291888 84.2282l-0.00582149 87.5189l84.7837 67.8016l7.68593 8.96692l1.11464 7.19504
c0.44913 7.61262 -1.52476 12.8022 -3.31214 18.1783l-23.3304 38.8443l-33.0243 43.448l-34.3179 48.9016c-0.202711 16.1296 -0.202711 16.1296 -0.202711 17.6951zM33.2949 712.521h55.5146l17.1611 52.2256l17.1602 -52.2256h55.5156l-44.8672 -32.2959
l17.1611 -52.2246l-44.9697 32.2959l-44.9707 -32.2959l17.1611 52.2246zM346.426 446.489l76.0322 -75.6006l78.9922 75.5586l24.4297 -21.1299l-78.8398 -79.623l86.1621 -79.1992l-23.707 -19.748l-85.084 78.3242l-78.0889 -79.4805l-22.3223 24.4092l76.2881 77.582
l-75.3359 78.3672zM604.966 217.877zM234.886 466.853zM165.774 339.62zM435.055 173.269zM434.568 157.818zM228.822 215.269zM347.435 177.953zM670.978 368.388zM165.774 339.62zM670.978 368.388zM680.088 377.059c4.77246 -14.4541 7.84473 -30.0967 11.8584 -45.0811
l2.79785 -0.0458984c-2.12793 -44.8975 -2.92871 -61.8037 -75.834 -119.413c-54.248 -42.8662 -93.9648 -57.9658 -184.243 -58.9834c-62.0996 -0.700195 -141.187 1.62402 -210.521 58.9688c-27.3203 22.5947 -70.6885 66.3262 -70.2861 116.002h-1.94336
c2.12402 7.96289 2.12402 7.96289 2.32617 14.0771l1.42188 -0.0244141l6.08789 22.8301h-2.67188c1.38672 1.88477 2.77539 3.76953 4.16309 5.65332v6.41602h4.72168l68.9453 93.6777h2.1875c23.8545 55.7803 115.241 82.6514 150.736 39.4434
c5.03906 -2.26465 27.8965 -11.3848 51.9648 -2.60938c12.3975 16.5928 47.2314 32.6064 86.4307 24.4775c37.9131 -7.86133 76.1582 -43.1309 92.9385 -60.3027h0.803711c0.591797 -0.871094 0.996094 -1.87109 1.74023 -2.63379l5.27246 -5.50098l50.3418 -86.0234
c0.750977 0.0634766 1.34473 0.0166016 1.22656 -0.52832zM188.933 331.519c-0.834961 -28.6279 2.33105 -62.6738 71.8584 -111.343c58.998 -41.2988 107.885 -44.2656 174.999 -42.6025c78.1973 2.0127 110.826 12.0625 158.045 50.6475
c62.792 51.3115 73.1963 67.3926 65.6455 97.5352l-9.98535 39.8604l-0.367188 -0.654297c0.0214844 2.41211 -1.5918 5.48047 -1.57031 7.89355l-56.0293 88.3711c-1.50391 -0.0595703 -0.302734 1.30664 -1.80664 1.24805
c-34.6807 22.8652 -38.3789 32.7715 -51.334 40.4111c-19.9482 11.7637 -50.6191 9.39648 -70.1455 -3.93066c-9.71973 -29.2803 -70.0283 -33.9727 -97.8184 -7.56836c-2.58984 2.46094 -4.5 1.0918 -4.25488 4.11133
c-29.7051 20.4404 -85.3457 -0.15332 -101.068 -37.1846l-1.90723 -4.49023l-3.17773 1.22363l-61.2744 -86.7471z" />
  </g>

</svg>
