<?xml version="1.0" standalone="no"?>
<!DOCTYPE svg PUBLIC "-//W3C//DTD SVG 1.1//EN" "http://www.w3.org/Graphics/SVG/1.1/DTD/svg11.dtd" >
<svg xmlns="http://www.w3.org/2000/svg" xmlns:xlink="http://www.w3.org/1999/xlink" version="1.1" viewBox="-10 0 674 1000">
  <g transform="matrix(1 0 0 -1 0 800)">
   <path fill="currentColor"
d="M470.82 178.397c25.7998 102.855 24.9326 86.6826 55.7998 74.8564c-24.6484 -207.021 -206 -156 -206 -156l-18 2c-31.3867 -3.82324 -55.584 -16.9775 -82.0605 -27.1738c-23.0391 2.87988 -46.667 11.3877 -47.5195 12.2402l-12.2402 12.2402
s-21.1748 25.6348 -28.7998 37.4395c-95.3984 147.696 334.604 503.558 301.271 567.656c-1.19141 -2.67188 41.3203 94.1182 70.9678 6.7373c-45.9697 -129.426 -480.972 -516.187 -303.619 -591.141c121.591 48.5459 267.187 -17.3594 270.199 61.1445h0.000976562z
M417.827 628.279l-0.707031 0.928711l1.2207 0.12207c-0.170898 -0.349609 -0.34082 -0.699219 -0.513672 -1.05078v0z" />
  </g>

</svg>
