<?xml version="1.0" standalone="no"?>
<!DOCTYPE svg PUBLIC "-//W3C//DTD SVG 1.1//EN" "http://www.w3.org/Graphics/SVG/1.1/DTD/svg11.dtd" >
<svg xmlns="http://www.w3.org/2000/svg" xmlns:xlink="http://www.w3.org/1999/xlink" version="1.1" viewBox="-10 0 1020 1000">
  <g transform="matrix(1 0 0 -1 0 800)">
   <path fill="currentColor"
d="M30.3242 741.553h55.5146l17.1611 52.2256l17.1602 -52.2256h55.5156l-44.8672 -32.2959l17.1611 -52.2246l-44.9697 32.2959l-44.9707 -32.2959l17.1611 52.2246zM271 608l-12 60c128.725 89.7881 355.203 55.3633 442.457 48.5605
c0 -0.0107422 0.000976562 -0.0214844 0.000976562 -0.0322266c27.4463 0.582031 75.1855 -1.32129 107.268 -33.4033c40.1396 -40.1396 38.6152 -108.841 37.5254 -169.365c-0.395508 -21.9258 -0.433594 -33.2402 -0.22168 -41.9463
c26.3789 -43.8281 72.168 -89.959 89.3252 -129.607c6.95117 -16.0635 5.49219 -24.7637 2.64551 -40.2051l-12 -14l-79.501 -63.5771v-212.431c1.93945 -31.0869 1.82422 -79.2412 -27.416 -108.48c-26.0322 -26.0322 -182.507 -12.0195 -220.584 -13.0049
l-2.90137 0.0126953c-103.732 -7.2998 -296.108 50.6025 -326.603 92.1719c-18.5059 25.2275 -31.4014 41.2529 -57.9951 55.3086v70.0371c25.8174 -16.2627 49.624 -17.8066 70.1904 -60.6357c44.2188 -92.082 349.455 -105.734 451.309 -108.438l-0.499023 -0.962891
c50 12 34.1514 4.48145 42.5352 13.5361c19.1768 20.7119 3.97852 41.9688 5.50781 57.9648h-0.541992v2.14941c-0.253906 0.990234 -0.500977 1.94141 -0.738281 2.84863h0.738281v207.174v3.4873v1.33887h1.58203l104 88h1.13281
c4.9834 45.8955 -62.8379 92.1289 -94.2158 139.501l-3 4l-1 1c-2.02051 3.99219 0.0439453 4.02539 -2.08398 11.5605c-0.0371094 0.130859 -0.189453 0.24707 -0.174805 0.367188l0.258789 2.07227l0.0644531 1.49902
c0.00976562 0.226562 0.150391 3.89551 0.242188 6.24414c3.11426 79.1523 5.19727 173.389 -83.8154 173.771c-136.35 16.7461 -373.536 9.53418 -431.49 -46.5137zM457.213 229.093c-43.8652 0 -81.9082 -34.1025 -81.9082 -76.9229
c0 -42.8438 38.1699 -76.9014 81.8818 -76.9014c1.16699 0 2.18359 0.0273438 2.20508 0.0273438c39.3877 0.0488281 108.914 54.4082 124.519 67.2021c0.550781 0.451172 1.22461 0.676758 1.89941 0.676758c0.654297 0 1.30859 -0.211914 1.85059 -0.636719
l101.34 -79.5381v178.362l-101.374 -79.5645c-0.541992 -0.424805 -1.19629 -0.637695 -1.85059 -0.637695c-0.666016 0 -1.33203 0.220703 -1.87891 0.661133c-28.2158 22.7139 -88.9229 67.2012 -124.506 67.2451c-0.0214844 0 -1.02441 0.0263672 -2.17773 0.0263672z
M675.691 96.0312c0 -1.6582 -1.3418 -3 -2.99902 -3c-0.65332 0 -1.30664 0.211914 -1.84766 0.635742c-71.7266 56.1816 -71.7266 56.1816 -71.792 56.2471c-0.584961 0.584961 -0.87793 1.35352 -0.87793 2.12109c0 0.946289 0.4375 1.80371 1.15039 2.36328
l71.5176 56.0889c0.541992 0.423828 1.19531 0.636719 1.84961 0.636719c1.65723 0 2.99902 -1.3418 2.99902 -3v-112.093zM457.229 88.2217c-37.0195 0 -68.6104 28.8691 -68.6104 63.8115c0 34.8438 31.4717 63.8096 68.6416 63.8096
c6.93945 0 21.418 -0.135742 56.6865 -20.9365c24.3633 -14.3682 47.8311 -32.2754 58.2637 -40.5068c0.337891 -0.266602 1.14355 -1.04004 1.14355 -2.35742c0 -0.428711 -0.108398 -1.54395 -1.14746 -2.36133c-46.5996 -36.625 -89 -61.3965 -112.894 -61.4287
c-0.696289 -0.0205078 -2.08398 -0.0302734 -2.08398 -0.0302734zM529.8 561l76 -0.400391v0h3.60059l-4.40039 -243.199v-14.4004h-16.3994l-61.6006 0.400391v14.3994l61.6006 -0.399414l5.19922 230.399l-64 0.400391v12.7998z" />
  </g>

</svg>
