<?xml version="1.0" standalone="no"?>
<!DOCTYPE svg PUBLIC "-//W3C//DTD SVG 1.1//EN" "http://www.w3.org/Graphics/SVG/1.1/DTD/svg11.dtd" >
<svg xmlns="http://www.w3.org/2000/svg" xmlns:xlink="http://www.w3.org/1999/xlink" version="1.1" viewBox="-10 0 1020 1000">
  <g transform="matrix(1 0 0 -1 0 800)">
   <path fill="currentColor"
d="M30.3242 741.553h55.5146l17.1611 52.2256l17.1602 -52.2256h55.5156l-44.8672 -32.2959l17.1611 -52.2246l-44.9697 32.2959l-44.9707 -32.2959l17.1611 52.2246zM271 608l-12 60c128.725 89.7881 355.203 55.3633 442.457 48.5605
c0 -0.0107422 0.000976562 -0.0214844 0.000976562 -0.0322266c27.4463 0.582031 75.1855 -1.32129 107.268 -33.4033c40.1396 -40.1396 38.6152 -108.841 37.5254 -169.365c-0.395508 -21.9258 -0.433594 -33.2402 -0.22168 -41.9463
c26.3789 -43.8281 72.168 -89.959 89.3252 -129.607c6.95117 -16.0635 5.49219 -24.7637 2.64551 -40.2051l-12 -14l-79.501 -63.5771v-212.431c1.93945 -31.0869 1.82422 -79.2412 -27.416 -108.48c-26.0322 -26.0322 -182.507 -12.0195 -220.584 -13.0049
l-2.90137 0.0126953c-103.732 -7.2998 -296.108 50.6025 -326.603 92.1719c-18.5059 25.2275 -31.4014 41.2529 -57.9951 55.3086v70.0371c25.8174 -16.2627 49.624 -17.8066 70.1904 -60.6357c44.2188 -92.082 349.455 -105.734 451.309 -108.438l-0.499023 -0.962891
c50 12 34.1514 4.48145 42.5352 13.5361c19.1768 20.7119 3.97852 41.9688 5.50781 57.9648h-0.541992v2.14941c-0.253906 0.990234 -0.500977 1.94141 -0.738281 2.84863h0.738281v207.174v3.4873v1.33887h1.58203l104 88h1.13281
c4.9834 45.8955 -62.8379 92.1289 -94.2158 139.501l-3 4l-1 1c-2.02051 3.99219 0.0439453 4.02539 -2.08398 11.5605c-0.0371094 0.130859 -0.189453 0.24707 -0.174805 0.367188l0.258789 2.07227l0.0644531 1.49902
c0.00976562 0.226562 0.150391 3.89551 0.242188 6.24414c3.11426 79.1523 5.19727 173.389 -83.8154 173.771c-136.35 16.7461 -373.536 9.53418 -431.49 -46.5137zM301.926 331.438c0 13.5049 12.0908 24.9287 27.9053 24.9287
c15.8115 0 27.9053 -11.4238 27.9053 -24.9287c0 -13.5029 -12.0938 -24.9287 -27.9053 -24.9287c-15.8145 0 -27.9053 11.4258 -27.9053 24.9287zM571.428 186.008zM621.211 415.076l0.0361328 -0.0429688c-0.0126953 0.0136719 -0.0361328 0.0429688 -0.0361328 0.0429688
zM479.836 235.838l0.0117188 0.0703125c-0.00488281 -0.0234375 -0.0117188 -0.046875 -0.0117188 -0.0703125zM492.294 207.16l-0.240234 0.0742188c0.0810547 -0.0263672 0.15918 -0.0498047 0.240234 -0.0742188zM496.314 206.363l-0.0527344 0.00585938
c0.00976562 0 0.0175781 -0.00585938 0.0527344 -0.00585938zM650.445 183.561c-80.916 0.285156 -147.394 0.00195312 -147.406 0.00195312c-9.11523 0.294922 -20.4238 0.658203 -30.1855 11.4727c-16.1875 17.9326 -13.3379 39.7051 -12.4609 44.5098
c1.78418 9.7627 4.57812 19.5684 8.64258 35.9043c17.0312 68.4463 19.0273 78.2715 26.7744 100.887c17.6553 51.332 39.041 68.6641 57.915 76.3496c11.5527 4.31055 49.0547 14.4863 80.0732 -20.1543c15.9756 -18.7578 28.9053 -44.1582 44.1104 -105.424
c5.38477 -22.3877 10.8857 -44.7305 16.5117 -67.0781c1.43457 -5.9707 2.75 -11.9629 3.95117 -18.0166c5.92383 -29.167 -10.9961 -58.6162 -38.2109 -58.2549zM485.887 211.916c0.015625 -0.0146484 0.0332031 -0.0273438 0.0332031 -0.0410156
c4.98633 -5.41797 8.2959 -5.5625 17.3613 -5.95508c0 0 150.725 0.0664062 150.791 0.0664062c3.53125 -0.0498047 7.04785 0.15625 10.5586 0.623047c7.27734 0.908203 18.1934 13.0254 14.5469 30.3125c-1.68652 8.48828 -1.68652 8.48828 -8.84961 37.2529
c-17.8047 73.1299 -21.8633 89.7939 -34.0137 116.417c-2.22852 4.77344 -9.37793 19.1211 -19.123 28.8662c-9.53809 9.53809 -20.3135 14.5596 -32.8027 15.4229c-15.5371 1.375 -43.9688 -0.792969 -65.0176 -52.9697
c-8.23926 -20.7627 -13.293 -39.0186 -18.8613 -61.1963c-12.9766 -53.4297 -12.9766 -53.4297 -17.6787 -71.0615l0.0117188 0.046875c-0.00292969 -0.0166016 -0.0117188 -0.046875 -0.0117188 -0.046875c-3.7041 -15.2334 -6.4502 -26.5254 3.05566 -37.7373z
M390.125 333.238c0 13.5049 12.0928 24.9297 27.9062 24.9297c15.8125 0 27.9043 -11.4248 27.9043 -24.9297c0 -13.502 -12.0918 -24.9297 -27.9043 -24.9297c-15.8135 0 -27.9062 11.4277 -27.9062 24.9297z" />
  </g>

</svg>
