<?xml version="1.0" standalone="no"?>
<!DOCTYPE svg PUBLIC "-//W3C//DTD SVG 1.1//EN" "http://www.w3.org/Graphics/SVG/1.1/DTD/svg11.dtd" >
<svg xmlns="http://www.w3.org/2000/svg" xmlns:xlink="http://www.w3.org/1999/xlink" version="1.1" viewBox="-10 0 1006 1000">
  <g transform="matrix(1 0 0 -1 0 800)">
   <path fill="currentColor"
d="M30.3242 741.553h55.5146l17.1611 52.2256l17.1602 -52.2256h55.5156l-44.8672 -32.2959l17.1611 -52.2246l-44.9697 32.2959l-44.9707 -32.2959l17.1611 52.2246zM271 608l-12 60c128.725 89.7881 355.203 55.3633 442.457 48.5605
c0 -0.0107422 0.000976562 -0.0214844 0.000976562 -0.0322266c27.4463 0.582031 75.1855 -1.32129 107.268 -33.4033c40.1396 -40.1396 38.6152 -108.841 37.5254 -169.365c-0.395508 -21.9258 -0.433594 -33.2402 -0.22168 -41.9463
c26.3789 -43.8281 72.168 -89.959 89.3252 -129.607c6.95117 -16.0635 5.49219 -24.7637 2.64551 -40.2051l-12 -14l-79.501 -63.5771v-212.431c1.93945 -31.0869 1.82422 -79.2412 -27.416 -108.48c-26.0322 -26.0322 -182.507 -12.0195 -220.584 -13.0049
l-2.90137 0.0126953c-103.732 -7.2998 -296.108 50.6025 -326.603 92.1719c-18.5059 25.2275 -31.4014 41.2529 -57.9951 55.3086v70.0371c25.8174 -16.2627 49.624 -17.8066 70.1904 -60.6357c44.2188 -92.082 349.455 -105.734 451.309 -108.438l-0.499023 -0.962891
c50 12 34.1514 4.48145 42.5352 13.5361c19.1768 20.7119 3.97852 41.9688 5.50781 57.9648h-0.541992v2.14941c-0.253906 0.990234 -0.500977 1.94141 -0.738281 2.84863h0.738281v207.174v3.4873v1.33887h1.58203l104 88h1.13281
c4.9834 45.8955 -62.8379 92.1289 -94.2158 139.501l-3 4l-1 1c-2.02051 3.99219 0.0439453 4.02539 -2.08398 11.5605c-0.0371094 0.130859 -0.189453 0.24707 -0.174805 0.367188l0.258789 2.07227l0.0644531 1.49902
c0.00976562 0.226562 0.150391 3.89551 0.242188 6.24414c3.11426 79.1523 5.19727 173.389 -83.8154 173.771c-136.35 16.7461 -373.536 9.53418 -431.49 -46.5137zM463.971 267.063c-24.5381 -12.0967 -24.7988 -12.2031 -27.3672 -12.2031
c-1.51758 0 -4.55176 0.398438 -6.85156 3.24902c-0.300781 0.371094 -26.3496 37.7842 -27.3203 39.1113c-1.58691 2.16895 -3.55273 4.4668 -3.55273 8.0957c0 5.01953 3.30859 7.27148 9.47266 11.4707c33.1699 22.8301 75.3311 51.9219 80.5322 55.8535h21.4268
c3.42578 0 6.26953 0.00585938 8.6543 0.00585938c9.86914 0 11.8838 -0.117188 14.75 -1.3291c0.00195312 0 0.238281 -0.0898438 0.238281 -0.0898438c1.75781 -0.648438 10.5615 -3.62891 21.5381 -3.62891h1.11035c7.2627 0 11.2266 0.648438 20.917 5.04199h39.7295
c0.928711 -0.637695 76.6748 -52.6816 92.3916 -64.46c-7.48828 -11.3076 -11.0098 -16.7744 -21.0869 -33.4736c-4.74414 -7.86426 -7.6084 -12.9785 -10.1865 -15.5586c-2.69336 -2.69141 -5.70996 -2.72949 -6.27734 -2.72949
c-2.125 0 -15.4229 3.74707 -36.9922 9.96191c12.2109 -134.563 12.2109 -134.563 12.2109 -134.83v-10.0508h-191.808c1.1748 15.2666 1.1748 15.2666 2.13379 33.0293c0.000976563 0 1.91895 34.3164 1.91895 34.3164l1.92773 33.7158
c0 0.00390625 1.6875 30.1455 2.49023 44.502zM626.251 141.796c-0.121094 1.38867 -12.5537 137.179 -12.5537 138.772c0 4.87695 2.69727 8.29492 6.33789 9.41504v1.38477c1.83008 -0.467773 3.66113 -0.935547 5.49121 -1.40332l-0.0253906 -0.0976562
c8.00586 -1.9082 30.6543 -8.64355 41.5889 -11.5938l15.3115 24.7734c-2.09375 1.45215 -4.42383 3.06152 -6.49512 4.4834c-34.8691 24.2246 -34.8691 24.2246 -64.6074 44.8242c-1.8877 0.0664062 -6.19238 0.168945 -14.3438 0.168945
c-5.01172 0 -10.0234 0.00195312 -15.0342 0.00195312c-6.90332 -2.62695 -13.6807 -4.97754 -25.501 -4.97754c-7.43359 0 -14.5781 0.120117 -30.1279 4.97754h-15.875c-7.58691 0 -12.6982 -0.103516 -15.0752 -0.1875
c-9.35938 -6.34668 -58.3252 -40.2051 -72.0791 -49.7295c3.7373 -5.34766 8.78906 -12.6367 17.123 -24.6592c8.22852 4.01172 28.0635 13.7227 32.1064 15.5459c1.12793 0.709961 3.2002 0.855469 3.66895 0.855469
c0.0634766 0 0.0859375 -0.0117188 0.0859375 -0.0117188c4.96387 0 8.92773 -3.75781 8.92773 -9.86816c0 -0.222656 -0.709961 -11.6494 -1.28516 -22.1797l-6.82031 -120.575c12.374 -0.0673828 36.0205 -0.0986328 61.3008 -0.0986328zM607.381 554.013
l-63.6807 -64.3125l69.2998 -63.7002l-9.02246 -7.51465l-69.3779 63.8652l-62.7471 -63.8652l-6.55273 7.16504l61.9502 63l-60.9004 63.3496l8.0498 7.7002l61.6006 -61.25l64.3994 61.6006z" />
  </g>

</svg>
