<?xml version="1.0" standalone="no"?>
<!DOCTYPE svg PUBLIC "-//W3C//DTD SVG 1.1//EN" "http://www.w3.org/Graphics/SVG/1.1/DTD/svg11.dtd" >
<svg xmlns="http://www.w3.org/2000/svg" xmlns:xlink="http://www.w3.org/1999/xlink" version="1.1" viewBox="-10 0 1009 1000">
  <g transform="matrix(1 0 0 -1 0 800)">
   <path fill="currentColor"
d="M414.367 445.667zM128.11 638.249zM74.6523 539.835zM282.939 411.162zM282.564 399.211zM123.42 443.649zM215.168 414.786zM465.428 562.087zM74.6523 539.835zM465.428 562.087zM338.67 688.437c-20.1797 0 -37.2627 -7.84863 -45.9277 -16.5137
c-3.29688 -3.29688 -2.45508 -3.46875 -3.81836 -3.96484c-6.12598 -2.23438 -12.1289 -3.04297 -17.6074 -3.04297c-5.17188 0 -14.5703 0.763672 -24.7461 5.33594c-6.91406 8.41602 -18.6074 16.0762 -38.2686 16.0762c-29.5166 0 -63.1758 -18.2695 -74.8818 -45.6426
l-0.578125 -1.35254h-2.03613l-53.3291 -72.46h-2.55176v-3.46582c-0.345703 -0.469727 -0.691406 -0.938477 -1.03711 -1.40918h0.557617l-5.90625 -22.1484l-0.664062 0.00976563c-0.119141 -2.26758 -0.333008 -3.57031 -1.04883 -6.38867h0.859375
c-0.0205078 -2.50391 -0.0205078 -2.50391 -0.0205078 -2.75879c0 -16.1924 6.9873 -48.9619 53.5596 -87.4795c49.1855 -40.6826 104.811 -45.168 150.924 -45.168c75.582 0 106.396 9.47168 151.623 45.2109c55.25 43.6562 56.1816 56.5117 57.7012 88.4209
l-1.54688 0.0244141c-0.09375 0.355469 -6.87988 28.0469 -9.28711 35.501l-39.4873 67.4766c-4.4502 4.64551 -4.4502 4.64551 -4.89844 5.41406h-0.292969c-13.8838 14.209 -42.9873 40.7988 -71.4033 46.6904c-5.4375 1.12793 -10.7627 1.63477 -15.8867 1.63477z
M207.531 668.921c4.24805 0 13.6895 0 24.4541 -7.4082l-0.0830078 -1.02734c0.621094 -0.253906 1.61719 -0.72168 2.58398 -1.64062c9.12109 -8.66699 23.1387 -12.7363 36.4473 -12.7363c12.3975 0 24.1797 3.53027 30.8125 10.1641
c1.29004 1.29102 3.375 3.37402 4.98438 8.22656c6.83496 4.66406 17.6924 9.75391 32.5107 9.75391c19.665 0 28.8584 -8.56445 35.9092 -15.1289c5.47852 -5.10254 12.6934 -11.8379 28.21 -22.1055c0.592773 -0.128906 1.0791 -0.414062 1.46973 -0.855469
l0.34082 0.0136719l44.376 -69.9941c0 -0.119141 -0.00292969 -0.239258 -0.00292969 -0.359375c3.18262 -11.9238 6.08887 -24.125 9.15332 -36.167c1.07129 -4.28027 1.67383 -8.24707 1.67383 -12.0879c0 -18.4277 -13.71 -33.3574 -53.2031 -65.6309
c-36.3926 -29.7363 -62.7461 -39.9375 -142.168 -39.9375c-42.9961 0 -77.6543 5.28223 -118.131 33.6152c-49.8955 34.9277 -56.6045 60.6494 -56.6045 83.5547c0 1.51074 0.0283203 2.99902 0.0703125 4.46387c2.49023 9.88086 5.19434 19.5469 7.76465 29.3457
l48.627 68.8457c0.69043 -0.265625 1.37891 -0.532227 2.06836 -0.796875c1.63867 3.85742 4.42773 10.4297 11.9961 17.998c12.1963 12.1963 30.248 19.8945 46.7402 19.8945zM912.516 676.945c0 1.64746 -1.65625 6.16309 -3.07812 8.01074
c-1.96777 1.45996 -6.69727 3.14453 -8.50195 3.14453c-6.52539 0 -11.1963 -4.5293 -15.4248 -8.75879c-1.82422 -1.82324 -4.21875 -2.7373 -6.61328 -2.7373c-3.86035 0 -5.98828 2.11328 -7.72266 3.84668c-0.359375 0.360352 -6.51172 5.75879 -10.1289 6.95215
c-1.65137 0.544922 -2.72949 0.691406 -4.06348 0.691406c-1.71973 0 -6.25586 -1.55957 -8.40137 -3.08105c-0.915039 -1.44336 -0.946289 -1.54785 -3.12598 -9.04199c0.180664 -2.78906 1.49902 -8.48145 7.78418 -14.5439l25.6787 -24.7705l25.4971 24.541
c2.75684 2.7627 8.10059 8.19141 8.10059 15.7471zM845.916 730.219c0.330078 -5.87598 0.129883 -13.6318 -0.382812 -22.4785c8.35742 2.95703 20.1133 3.7002 33.2305 -5.48828c8.93164 6.34766 15.252 7.45703 22.0957 7.5918
c9.40332 0 19.5283 -4.99316 23.8311 -9.47168c9.2373 -9.61035 17.5312 -32.5947 -5.21387 -54.8047c-26.8867 -26.2549 -30.0918 -29.1973 -31.0059 -29.998c-5.41504 -5.2002 -13.8799 -5.21582 -19.3457 0.078125l-29.0439 28.127
c-0.994141 -11.5137 -1.7793 -22.2061 -2.01074 -30.8262c-0.0927734 -3.49023 -0.352539 -19.1523 2.48145 -20.668c0.324219 -0.113281 0.583008 -0.291992 0.523438 -0.789062c9.20801 -98.9971 102.682 -191.717 107.88 -193.622
c0.170898 -0.0625 -0.322266 0.0136719 -0.322266 0.0136719l-0.487305 -0.25293l-0.264648 -0.597656l1.55371 -0.866211l-17.5127 -11.6748c-1.94824 2.12402 -2.88574 3.14648 -7.35645 7.98633c-35.5156 38.4502 -74.21 80.3906 -104.311 182.503
c-8.31836 -48.3086 -38.1201 -101.278 -64.9883 -135.4c-17.3301 -22.0088 -23.2021 -37.5156 -39.0713 -55.1484l-20.71 16.3955c12.2129 15.832 20.0449 26.5664 30.8682 41.5049c6.10059 8.41992 11.7227 16.1807 17.7305 24.0713
c73.5098 96.5615 75.71 223.811 75.1611 288.473l21.3779 -0.47168c1.89941 -0.0400391 5.12598 -0.957031 5.00977 -6.74414c-0.0341797 -1.67676 -0.183594 -9.16406 0.282227 -17.4414h0.000976563zM543.353 765.995l63.3604 -63l65.8271 62.9658l20.3574 -17.6084
l-65.7002 -66.3525l71.8027 -66l-19.7559 -16.4561l-70.9043 65.2695l-65.0732 -66.2334l-18.6025 20.3418l63.5742 64.6514l-62.7803 65.3057zM34.3545 -40.4795h55.5146l17.1611 52.2256l17.1602 -52.2256h55.5156l-44.8672 -32.2959l17.1611 -52.2246l-44.9697 32.2959
l-44.9707 -32.2959l17.1611 52.2246zM335.287 152.125l-82.2217 148.848l24.0225 10.1475l58.4395 -100.383l53.3027 101.418l27.2285 -11.0254zM252.374 -13.2754v34.6641h38.626v22.0713h-38.626v34.6641h38.626v33.7148h31.3828v-33.7148h23.2197v31.2539h31.3828
v-31.2539h41.292v-34.6641h-41.292v-22.0713h41.292v-34.6641h-41.292v-36.1855h-31.3828v36.1855h-23.2197v-33.7246h-31.3828v33.7246h-38.626zM322.383 21.3887h23.2197v22.0713h-23.2197v-22.0713zM909 0h-323.297l0.216797 164.161
c-12.123 -5.10645 -24.2471 -10.2129 -36.3701 -15.3193v43.2637l216.847 89.3984c0.620117 -0.28125 1.39551 -1.04395 1.56934 0.0556641c14.0449 -8.15234 14.0449 -8.15234 42.4219 -22.8662l-1.75293 -0.737305l133.207 -77.3066l0.775391 -46.5869
c-10.9932 6.50293 -21.9854 13.0059 -32.9785 19.5098zM625.885 40.2158h243.036l1.16699 136.753l-105.537 62.4346l-139.312 -58.6816z" />
  </g>

</svg>
