<?xml version="1.0" standalone="no"?>
<!DOCTYPE svg PUBLIC "-//W3C//DTD SVG 1.1//EN" "http://www.w3.org/Graphics/SVG/1.1/DTD/svg11.dtd" >
<svg xmlns="http://www.w3.org/2000/svg" xmlns:xlink="http://www.w3.org/1999/xlink" version="1.1" viewBox="-10 0 775 1000">
  <g transform="matrix(1 0 0 -1 0 800)">
   <path fill="currentColor"
d="M327.188 140.499l-1.28223 472.221h-165.104v-21.1211h142.676v-428.68h-138.952l1.00879 -22.4199h161.654zM420.783 223.748c0 28.3604 12.3691 48.8555 33.1797 83.2998c7.03027 11.4229 7.03027 11.4229 40.3604 69.5898
c43.6699 -75.8252 43.6699 -75.8252 51.0977 -87.4424c8.27832 -12.9482 13.7217 -22.8291 17.5518 -31.376l0.0625 0.0253906c0.208008 -0.518555 0.40918 -1.04492 0.62207 -1.55957l1.27246 -0.558594l-0.498047 -1.17773l0.746094 -1.67383l-0.152344 -0.0576172
l10.1895 -25.75l-5.89551 -2.3418c-1.82227 -39.1201 -35.5098 -74.207 -77.2197 -74.207c-14.9365 0 -38.7266 9.14746 -50.6777 21.0986c-13.4912 13.4912 -20.6387 31.957 -20.6387 52.1309zM491.815 126.984c54.376 0 100.962 47.7168 100.962 100.419
c0 8.49023 -1.7168 20.2852 -4.13379 28.4385c-3.9873 14.0479 -12.1201 28.0039 -23.4648 45.8916c-7.2832 11.4854 -7.31445 11.5342 -54.708 94.8525c-5.14258 11.5938 -7.12402 13.1885 -13.1846 15.8467l0.351562 0.00390625
c-0.118164 0 -0.235352 -0.00390625 -0.351562 -0.00390625c-9.04102 -0.114258 -11.4404 -1.45312 -16.1992 -10.3652c-15.4326 -28.8994 -30.7988 -54.7529 -43.7402 -76.5293c-11.4346 -19.2402 -20.9834 -35.3271 -26.9482 -47.335
c-8.76758 -17.6895 -13.1221 -36.2246 -13.1221 -54.0908c0 -26.1992 9.3584 -50.9678 27.9434 -69.6123c15.7695 -15.707 44.3281 -27.5156 66.5957 -27.5156z" />
  </g>

</svg>
