<?xml version="1.0" standalone="no"?>
<!DOCTYPE svg PUBLIC "-//W3C//DTD SVG 1.1//EN" "http://www.w3.org/Graphics/SVG/1.1/DTD/svg11.dtd" >
<svg xmlns="http://www.w3.org/2000/svg" xmlns:xlink="http://www.w3.org/1999/xlink" version="1.1" viewBox="-10 0 1015 1000">
  <g transform="matrix(1 0 0 -1 0 800)">
   <path fill="currentColor"
d="M30.3242 741.553h55.5146l17.1611 52.2256l17.1602 -52.2256h55.5156l-44.8672 -32.2959l17.1611 -52.2246l-44.9697 32.2959l-44.9707 -32.2959l17.1611 52.2246zM271 608l-12 60c128.725 89.7881 355.203 55.3633 442.457 48.5605
c0 -0.0107422 0.000976562 -0.0214844 0.000976562 -0.0322266c27.4463 0.582031 75.1855 -1.32129 107.268 -33.4033c40.1396 -40.1396 38.6152 -108.841 37.5254 -169.365c-0.395508 -21.9258 -0.433594 -33.2402 -0.22168 -41.9463
c26.3789 -43.8281 72.168 -89.959 89.3252 -129.607c6.95117 -16.0635 5.49219 -24.7637 2.64551 -40.2051l-12 -14l-79.501 -63.5771v-212.431c1.93945 -31.0869 1.82422 -79.2412 -27.416 -108.48c-26.0322 -26.0322 -182.507 -12.0195 -220.584 -13.0049
l-2.90137 0.0126953c-103.732 -7.2998 -296.108 50.6025 -326.603 92.1719c-18.5059 25.2275 -31.4014 41.2529 -57.9951 55.3086v70.0371c25.8174 -16.2627 49.624 -17.8066 70.1904 -60.6357c44.2188 -92.082 349.455 -105.734 451.309 -108.438l-0.499023 -0.962891
c50 12 34.1514 4.48145 42.5352 13.5361c19.1768 20.7119 3.97852 41.9688 5.50781 57.9648h-0.541992v2.14941c-0.253906 0.990234 -0.500977 1.94141 -0.738281 2.84863h0.738281v207.174v3.4873v1.33887h1.58203l104 88h1.13281
c4.9834 45.8955 -62.8379 92.1289 -94.2158 139.501l-3 4l-1 1c-2.02051 3.99219 0.0439453 4.02539 -2.08398 11.5605c-0.0371094 0.130859 -0.189453 0.24707 -0.174805 0.367188l0.258789 2.07227l0.0644531 1.49902
c0.00976562 0.226562 0.150391 3.89551 0.242188 6.24414c3.11426 79.1523 5.19727 173.389 -83.8154 173.771c-136.35 16.7461 -373.536 9.53418 -431.49 -46.5137zM557.415 504.262zM659.621 506.69c-61.5176 54.3633 -61.5176 54.3633 -61.75 54.5967
c-0.400391 0.399414 -1.16895 1.19336 -2.08203 2.18652c-0.879883 -0.762695 -1.44629 -1.72461 -2.00488 -2.36523c-4.97754 -5.69043 -4.97754 -5.69043 -5.50781 -6.0293c-0.34082 -0.34668 -0.799805 -0.819336 -1.40332 -1.44727
c0.310547 -0.279297 0.310547 -0.279297 2.24609 -1.80176l47.4893 -40.6484l-84.7959 -1.14844l-45.8145 43.2617l-6.05078 -6.72754l38.0947 -36.3633c-4.74219 -0.00585937 -9.48438 -0.0117188 -14.2256 -0.0175781h-93.3848l0.0751953 -10.6533
c1.52051 0.0205078 1.52051 0.0205078 107.627 -1.33008l-41.1338 -34.2031l6.375 -6.89453l46.7412 40.3877c0.682617 0.225586 0.682617 0.225586 1.31348 0.478516l84.9941 0.867188c-15.3223 -12.6133 -30.6533 -25.2178 -45.9795 -37.8271l-0.25293 -0.228516
l0.25293 0.228516v0l-0.25293 -0.228516v0v0l-2.21777 -1.82617c0.948242 -1.34863 1.17871 -1.08496 1.95605 -1.92578l5.14062 -5.55957v0v0v0c-0.00683594 -0.0888672 0.0107422 -0.188477 0 0v0l2.04492 -2.21191c0.856445 0.733398 1.78223 1.52539 2.14062 1.88281
c60.0547 51.8193 60.0547 51.8193 61.0234 52.7881c0.310547 0.310547 0.674805 0.670898 1.11328 1.03613c-0.186523 0.148438 -0.186523 0.148438 -1.77148 1.72363zM658.793 116.862c0.176758 0.00683594 11.3779 0.000976562 11.3809 0.00585937
c-3.4502 14.4717 -2.48047 19.1318 -1.22168 23.1914c0.0117188 0.0371094 0.985352 3.40332 1.11816 3.66895l8.1377 16.2744c-4.16602 64.5566 -4.16602 64.5566 -4.1416 64.835c1.36816 16.2412 2.56055 35.1865 1.16602 47.3223
c-3.62695 14.4033 -12.625 11.3643 -14.7266 6.75684c-0.743164 -1.62793 -1.58008 -1.81934 -3.74121 -2.31445c-1.67871 -1.50195 -4.32031 -1.17285 -5.57715 0.71875c-1.57422 2.37109 -8.85938 13.6514 -9.05078 14.0264
c-2.63379 5.16016 -12.7969 8.33398 -14.7393 -1.87988c-0.0703125 -0.369141 -0.0703125 -0.369141 -3.53906 -8.82422c-1.29199 -3.14941 -5.84863 -3.01855 -6.95508 0.202148l-6.52539 18.9824c-1.74512 5.07422 -12.6289 9.12695 -18.3789 -0.483398
c-0.105469 -0.316406 -0.882812 -2.66992 -5.07812 -15.8301c-0.912109 -2.86035 -4.71875 -3.51367 -6.52734 -1.08301c-5.36719 7.21191 -5.36719 7.21191 -5.46191 7.30664c-0.0351562 0.0361328 -6.12988 6.12012 -9.58301 2.66699
c-1.89062 -1.89062 -2.95996 -6.50684 -3.43164 -9.33691c0.0136719 -0.424805 0.0976562 -2.92969 0.563477 -15.0801c0.276367 -7.56543 0.613281 -23.7344 0.620117 -23.9746c2.21289 -15.7725 1.18945 -16.2646 2.33984 -24.7041
c0.0839844 -0.324219 0.722656 -2.78418 4.03613 -15.3301c0.0332031 -0.123047 0.335938 -7.14648 -0.625 -8.78027c-2.3623 -4.01562 -2.52637 -4.29492 -4.08496 -4.65137c-6.16895 -1.41406 -8.12109 -0.170898 -10.2061 2.72266
c-1.07324 1.48926 -8.37012 8.80176 -9.10449 9.64844l-15.291 17.6436c-0.413086 0.273438 -2.53516 1.66406 -8.91895 5.70801c-0.373047 0.113281 -2.16016 0.646484 -7.55566 2.15723c-1.50879 -0.827148 -3.30762 -0.329102 -4.67188 -1.69238
c-0.989258 -0.990234 -2.13184 -4.30664 -1.76855 -6.18359l8.43652 -11.3457c1.625 -1.52344 10.2617 -9.05176 10.6846 -9.56348c12.6064 -15.2451 12.6064 -15.2451 12.667 -15.3271c9.16211 -12.4131 9.16211 -12.4131 9.23047 -12.5205
c8.26172 -12.9824 8.26172 -12.9824 8.37793 -13.2529l6.38086 -14.791c1.7627 -2.73242 8.57715 -13.0146 8.75977 -13.3613c2.87109 -5.45508 2.87109 -5.45508 2.97949 -5.9082c2.13574 -8.95117 17.2646 -9.39746 17.4629 -9.40137l16.5488 -0.294922zM670.175 109.429
h-11.1484c-50.1592 -2.08301 -50.1592 -2.08301 -50.2705 -2.08105l-16.667 0.297852c-2.64648 0.0498047 -20.7139 0.894531 -24.4326 14.6201l-2.36719 4.49902c-8.66504 13.1445 -8.51855 12.709 -9.04199 13.9248l-6.31152 14.6309l-7.87695 12.377l-8.94824 12.124
l-12.29 14.8623c-10.5576 9.35059 -10.5576 9.35059 -11.0215 9.97461l-8.62695 11.6025c-3.07812 4.13867 -0.929688 12.2158 2.58789 15.7334c2.0625 2.0625 4.00684 2.69238 6.89062 3.22266c1.59473 0.712891 3.38965 0.836914 5.05371 0.371094
c7.84961 -2.19824 8.02051 -2.08203 9.40039 -2.95605c8.42188 -5.33398 9.06152 -5.53613 10.2676 -6.74219c0.140625 -0.140625 -0.180664 -0.43457 15.6436 -18.0283c8.24414 -9.16602 8.56641 -8.87207 9.75 -10.4766
c0.195312 0.0175781 0.463867 0.0507812 0.802734 0.105469l0.398438 0.677734l0.177734 4.44629c-3.96582 15.0068 -3.9209 14.5918 -4.05566 15.5723c-1.23926 9.02344 -0.149414 9.15234 -2.37695 24.9648c-0.0341797 0.243164 -0.479492 19.5518 -0.662109 24.5508
c-0.594727 15.5352 -0.737305 14.9229 -0.505859 16.3604c0.724609 4.4873 2.39355 14.8281 11.1309 16.6709c7.26367 1.53223 14.3057 -5.28711 15.2725 -6.58594l1.08105 -1.45312c2.90332 9.21094 2.80957 9.14941 3.49023 10.3066
c8.99219 15.2939 28.1074 10.2588 31.8906 -0.74707l3.19238 -9.28711c4.45312 14.9639 22.3652 12.7363 28.0654 1.94727c0.0664062 -0.102539 6.40234 -9.94629 6.6416 -10.3145c6.25195 8.08008 22.083 9.44238 27.1338 -10.6143
c0.0810547 -0.319336 0.139648 -0.644531 0.177734 -0.970703c1.52246 -13.25 0.250977 -32.1992 -1.12109 -48.5283l4.12891 -64.001c0.0839844 -1.30078 -0.171875 -2.61914 -0.767578 -3.81152l-7.95703 -15.9141
c-0.228516 -0.886719 -0.49707 -1.77246 -0.849609 -2.91016c-0.990234 -3.19629 -2.03516 -5.03711 1.35352 -19.25c1.11426 -4.67285 -2.42676 -9.1709 -7.23242 -9.1709zM627.278 194.864c0.255859 -4.53809 -1.56641 -16.4658 -1.05762 -19.3535
c0.155273 -0.176758 0.316406 -0.451172 0.349609 -0.805664c1.05859 -11.3809 10.373 -22.5967 13.9756 -26.2002c0.729492 -0.728516 0.729492 -0.728516 2.84473 -2.36523c-0.248047 -0.162109 -0.248047 -0.162109 -4.04492 -2.69336
c-0.576172 -0.383789 -1.35547 -0.293945 -1.82715 0.220703c-6.08496 6.61914 -10.8643 11.8174 -15.0938 23.8906c-1.91113 -5.9502 -5.39844 -11.793 -8.61914 -15.8838c-2.25098 -2.85742 -4.02148 -6.36523 -5.70508 -8.0498
c-0.513672 -0.512695 -1.32422 -0.548828 -1.87988 -0.110352c-2.86133 2.26562 -2.86133 2.26562 -2.91895 2.32422c-0.509766 0.509766 -0.548828 1.31055 -0.12207 1.86523c1.6084 2.08398 6.91602 9.33789 6.98633 9.43164
c10.2734 13.4951 10.7725 31.4307 10.6904 41.0879c-0.00683594 0.798828 0.648438 1.44629 1.44824 1.42773c3.78223 -0.0839844 3.78223 -0.0839844 4.3291 -0.629883c0.410156 -0.411133 0.619141 -1.01953 0.605469 -1.71387
c-0.00488281 -0.233398 -0.0253906 -1.29297 0.0390625 -2.44238zM400.756 265.262h109.659l0.229492 55.0615c3.8252 -2.26367 7.65137 -4.52637 11.4775 -6.79004l-0.203125 12.1885l-48.8125 28.3281l0.412109 0.173828
c-6.07715 3.15918 -7.4209 3.89844 -11.0576 6.00391l-74.3613 -30.6514v-11.334c4.24414 1.78809 8.48926 3.5752 12.7334 5.36328zM411.325 275.838l-0.239258 52.0869l50.6475 21.333l38.5635 -22.8135l-0.431641 -50.6064h-88.54z" />
  </g>

</svg>
