<?xml version="1.0" standalone="no"?>
<!DOCTYPE svg PUBLIC "-//W3C//DTD SVG 1.1//EN" "http://www.w3.org/Graphics/SVG/1.1/DTD/svg11.dtd" >
<svg xmlns="http://www.w3.org/2000/svg" xmlns:xlink="http://www.w3.org/1999/xlink" version="1.1" viewBox="-10 0 871 1000">
  <g transform="matrix(1 0 0 -1 0 800)">
   <path fill="currentColor"
d="M704.066 75.8516c0 -59.6436 -50.3799 -123.147 -125.05 -124.843h-0.0732422c-0.0742188 0 -0.404297 -0.00292969 -0.404297 -0.00292969c-27.4502 0 -63.2754 14.8135 -82.7158 34.1758c-23.0576 23.1309 -34.7285 53.918 -34.7285 86.5273
c0 43.3867 18.1465 73.4951 45.8105 119.396c5.33301 8.73535 10.6553 17.5732 15.5908 26.3232c36.1055 63.2402 36.1055 63.2402 37.7236 66.3682c8.86621 17.3535 12.0293 23.542 21.2432 23.542h3.65234c8.14648 -3.35547 8.76074 -7.31348 15.8271 -19.9814
c58.3496 -104.606 59.3311 -104.102 68.71 -118.907c0.362305 -0.530273 22.6328 -33.7822 29.2617 -57.2031c2.97168 -10 5.15234 -24.9707 5.15234 -35.3945zM578.897 -22.7627c56.7217 0 99.082 49.8447 99.082 98.1201c0 0.381836 -0.125977 19.4941 -7.29492 37.4951
c-6.08301 13.9434 -13.4961 26.7207 -23.1807 41.8643c-9.26855 14.4932 -9.26855 14.4932 -65.8184 112.642l-0.0849609 -0.147461c-43.333 -75.6299 -43.333 -75.6299 -52.2275 -90.0859c-26.4326 -43.7402 -42.0596 -69.7354 -42.0596 -105.895
c0 -7.8623 0.336914 -41.1035 26.9385 -67.334c14.2949 -14.1973 44.5117 -26.6592 64.6455 -26.6592zM359.163 495.369l55.6735 24.744l-17.4297 -54.8508l-180.552 0.647197l-25.0795 57.5637l56.2645 -24.7163l56.7466 66.4789zM195.396 437.865h226.072l42.6233 135.242
l-97.7216 -41.5602l-62.4829 80.8838l-63.6365 -79.5816l-98.8774 41.4488zM203.61 449.977l-5.30817 -17.2979l-8.79679 5.96934zM84.4985 523.397c0 93.6415 98.1608 169.902 218.501 169.902c120.325 0 218.501 -76.2489 218.501 -169.902
c0 -93.6405 -98.1607 -169.901 -218.501 -169.901c-120.325 0 -218.501 76.2485 -218.501 169.901zM48.102 525.197c0 -112.077 113.558 -202.698 254.898 -202.698c141.334 0 254.898 90.6163 254.898 202.698c0 112.078 -113.558 202.699 -254.898 202.699
c-141.335 0 -254.898 -90.6167 -254.898 -202.699z" />
  </g>

</svg>
