<?xml version="1.0" standalone="no"?>
<!DOCTYPE svg PUBLIC "-//W3C//DTD SVG 1.1//EN" "http://www.w3.org/Graphics/SVG/1.1/DTD/svg11.dtd" >
<svg xmlns="http://www.w3.org/2000/svg" xmlns:xlink="http://www.w3.org/1999/xlink" version="1.1" viewBox="-10 0 1124 1000">
  <g transform="matrix(1 0 0 -1 0 800)">
   <path fill="currentColor"
d="M370.836 -6.08203c0 -47.6923 -41.9865 -89.5723 -90.0283 -89.5723c-20.3522 0 -45.2334 10.2975 -59.64 24.6473c-16.6128 16.6649 -25.0143 38.8871 -25.0143 62.1701c0 27.4661 9.57196 47.659 33.9226 86.8565c11.8192 19.03 35.8643 62.739 37.2944 65.4194
c1.95835 3.67056 5.95041 11.1529 15.4882 11.1529c0.591121 0 1.11724 -0.0225286 1.59743 -0.0225286h2.105c7.45204 -3.26792 9.81104 -5.39989 14.5437 -16.0879c39.5858 -69.6134 39.5858 -69.6134 45.7541 -79.354
c22.5579 -33.1466 23.9771 -53.7891 23.9771 -65.2094zM226.381 -9.1748c0 -52.8913 53.8796 -56.2695 54.6641 -56.2695c34.3758 0 59.6738 30.5111 59.6738 59.0332c0 3.4948 -0.925827 13.7124 -4.39099 22.5834c-3.75259 8.53932 -8.57007 16.9511 -14.9104 26.8653
c-6.27375 9.81001 -6.27375 9.81001 -38.4922 65.7494c-23.417 -40.865 -23.8879 -41.6423 -29.4567 -50.6899c-17.584 -29.1073 -27.0876 -45.0665 -27.0876 -67.2719zM332 674.998c121.248 0 220.002 -76.9483 220.002 -171.401
c0 -94.4557 -98.7594 -171.4 -220.002 -171.4c-121.249 0 -220.002 76.9479 -220.002 171.4c0 94.4567 98.7594 171.401 220.002 171.401zM332 304.198c140.437 0 253.398 89.9267 253.398 201.198c0 111.266 -112.952 201.199 -253.398 201.199
c-140.437 0 -253.398 -89.9271 -253.398 -201.199c0 -111.265 112.952 -201.198 253.398 -201.198zM239.958 442.891h186.869l35.7364 113.392l-76.8219 -33.4l-56.1453 69.7313l-56.3108 -69.7276l-78.6122 34.3709zM285.982 490.947l44.1494 55.5245l57.7539 -79.007
l-123.667 0.475142l-17.5374 40.2726zM326.697 467.697l83.9179 37.3014l-15.9468 -37.5598zM726.205 189.821c0 79.1115 85.3517 103.695 126.782 103.695c26.8719 0 64.151 -13.3575 74.1023 -19.9278c17.4658 -11.5317 38.5045 -41.6913 38.5045 -71.5167
c0 -53.6416 -35.424 -89.8096 -36.8114 -91.199c-5.11294 -5.10995 -23.2224 -15.9853 -42.1573 -15.9853c-1.89233 0 -3.82238 0.103276 -5.78318 0.32829c-14.499 1.66516 -28.5126 1.71657 -66.1188 1.71657c-0.480686 0 -0.965227 -8.3985e-06 -1.45367 -2.19327e-05
h-2.92811c-16.0375 0 -43.0164 10.8637 -55.2146 23.0607c-15.2788 15.2788 -28.9221 48.8477 -28.9221 69.8279zM920.803 127.041c4.42765 0 4.61076 -0.193377 14.6603 -10.8061l-14.465 -13.8116l-14.4188 14.953c10.2332 9.66467 10.2332 9.66467 14.2235 9.66467z
M809.995 65.3774c0.222637 0 12.2064 0.434858 22.2595 0.434858c16.08 0 52.8019 -1.95359 53.3356 -1.95359c0.624959 0 1.20855 0.00803369 1.74978 0.0250147h0.290196c0.68893 0.00175951 39.0169 0.676186 63.9546 25.614
c16.5441 16.5441 45.2725 62.8747 45.2725 107.887c0 44.1632 -21.2109 73.8261 -37.9287 90.5439c-4.96317 4.96317 -10.1943 9.27909 -15.6083 12.7639c-14.557 9.37086 -44.9698 20.8494 -73.0655 23.6913l-9.34296 0.94503
c1.09084 28.0008 3.50899 90.072 34.9748 121.538c5.82969 5.82555 15.1535 11.201 25.3155 15.0147c9.25473 3.47407 14.2691 4.54929 27.0299 4.54929c1.9963 0 4.18218 -0.0263143 6.60353 -0.0738753v31.4548c-9.56659 0.266622 -9.56659 0.266622 -10.6468 0.266622
c-27.3525 0 -55.8789 -14.3176 -70.4999 -28.9386c-36.5373 -36.5373 -43.1547 -97.1274 -44.0992 -137.521l-0.192367 -8.22708c-21.5058 -3.69157 -64.2009 -11.0204 -98.5692 -45.3887c-13.6213 -13.6213 -36.5577 -43.0671 -36.5577 -86.906
c0 -31.0454 15.6261 -70.2189 38.7052 -93.298c20.5174 -20.5174 55.1842 -32.4218 77.0194 -32.4218z" />
  </g>

</svg>
