<?xml version="1.0" standalone="no"?>
<!DOCTYPE svg PUBLIC "-//W3C//DTD SVG 1.1//EN" "http://www.w3.org/Graphics/SVG/1.1/DTD/svg11.dtd" >
<svg xmlns="http://www.w3.org/2000/svg" xmlns:xlink="http://www.w3.org/1999/xlink" version="1.1" viewBox="-10 0 1026 1000">
  <g transform="matrix(1 0 0 -1 0 800)">
   <path fill="currentColor"
d="M30.3242 741.553h55.5146l17.1611 52.2256l17.1602 -52.2256h55.5156l-44.8672 -32.2959l17.1611 -52.2246l-44.9697 32.2959l-44.9707 -32.2959l17.1611 52.2246zM271 608l-12 60c128.725 89.7881 355.203 55.3633 442.457 48.5605
c0 -0.0107422 0.000976562 -0.0214844 0.000976562 -0.0322266c27.4463 0.582031 75.1855 -1.32129 107.268 -33.4033c40.1396 -40.1396 38.6152 -108.841 37.5254 -169.365c-0.395508 -21.9258 -0.433594 -33.2402 -0.22168 -41.9463
c26.3789 -43.8281 72.168 -89.959 89.3252 -129.607c6.95117 -16.0635 5.49219 -24.7637 2.64551 -40.2051l-12 -14l-79.501 -63.5771v-212.431c1.93945 -31.0869 1.82422 -79.2412 -27.416 -108.48c-26.0322 -26.0322 -182.507 -12.0195 -220.584 -13.0049
l-2.90137 0.0126953c-103.732 -7.2998 -296.108 50.6025 -326.603 92.1719c-18.5059 25.2275 -31.4014 41.2529 -57.9951 55.3086v70.0371c25.8174 -16.2627 49.624 -17.8066 70.1904 -60.6357c44.2188 -92.082 349.455 -105.734 451.309 -108.438l-0.499023 -0.962891
c50 12 34.1514 4.48145 42.5352 13.5361c19.1768 20.7119 3.97852 41.9688 5.50781 57.9648h-0.541992v2.14941c-0.253906 0.990234 -0.500977 1.94141 -0.738281 2.84863h0.738281v207.174v3.4873v1.33887h1.58203l104 88h1.13281
c4.9834 45.8955 -62.8379 92.1289 -94.2158 139.501l-3 4l-1 1c-2.02051 3.99219 0.0439453 4.02539 -2.08398 11.5605c-0.0371094 0.130859 -0.189453 0.24707 -0.174805 0.367188l0.258789 2.07227l0.0644531 1.49902
c0.00976562 0.226562 0.150391 3.89551 0.242188 6.24414c3.11426 79.1523 5.19727 173.389 -83.8154 173.771c-136.35 16.7461 -373.536 9.53418 -431.49 -46.5137zM568.045 66.6455h6.8252c0.168945 -4.7041 0.336914 -9.4082 0.503906 -14.1123
c26.0039 0.910156 49.5127 11.8633 66.7461 29.0957c6.26367 6.26465 11.6992 13.3584 16.123 21.1016l-10.9209 5.79492l-1.34375 -2.12793l-66.9785 31.6025c-2.18555 -1.19727 -4.69336 -1.87695 -7.36133 -1.87695c-8.47363 0 -15.3408 6.86816 -15.3408 15.3418
c0 6.47559 4.01172 12.0127 9.68457 14.2646v71.541h1.5752v13.0723c-13.3877 -0.629883 -51.5088 -5.80078 -77.0107 -43.043c3.83594 -2.21387 7.67188 -4.42871 11.5078 -6.64355l-3.9375 -6.82031c-3.91992 2.26367 -7.83984 4.52637 -11.7607 6.79004
c-8.3125 -14.4893 -13.0654 -31.2734 -13.0654 -49.1641c0 -17.4473 4.54883 -33.8662 12.5283 -48.1289c4.05469 2.34082 8.11035 4.68262 12.165 7.02344l3.93848 -6.82031c-3.99609 -2.30664 -7.99219 -4.61426 -11.9883 -6.9209
c17.1367 -25.6309 45.8867 -42.8506 78.6143 -44.0752c-0.167969 4.70215 -0.335938 9.4043 -0.503906 14.1055zM680.521 151.464c0 -59.7451 -48.4902 -108.235 -108.238 -108.235c-59.7471 0 -108.237 48.4902 -108.237 108.237
c0 59.3955 48.2012 107.879 107.593 108.235h0.216797c59.7559 0 108.428 -48.4941 108.666 -108.237zM575.433 250.404v-13.1338h1.03125l2.58496 -72.3691c4.19434 -2.31836 7.1875 -6.54297 7.81152 -11.5059l65.9648 -36.1582l-1.84863 -2.92676l10.4463 -5.54492
c6.25293 12.9326 9.78613 27.4141 9.85156 42.7021c0 18.4668 -5.06543 35.7529 -13.8809 50.5537c-3.81738 -2.38965 -7.63379 -4.7793 -11.4512 -7.16895l-3.41309 5.91309c3.72363 2.33105 7.44824 4.66211 11.1729 6.99316
c-7.6377 11.0215 -32.6543 41.2178 -78.2695 42.6455zM546 324v93.4092l1.21777 0.541992c2.125 0.288086 8.11035 3.4375 11.3379 7.76855c0.0576172 0.0771484 2.84668 4.99219 4.31543 8.62012h93.2969l-0.367188 -3.48242
c-2.25977 -21.4795 -13.6328 -49.0234 -27.1846 -65.8457c-4.25977 -5.28613 -2.50488 -3.92773 -5.15234 -6.5752c-1.98633 -1.98633 -4.04102 -3.32617 -5.57617 -4.33691l0.176758 -0.175781l-2.72168 -2.2041c-16.8037 -13.6055 -44.3545 -25.0459 -65.8555 -27.3467z
M656.347 446.15h-93.3877c-0.394531 1.08398 0.271484 -1.51367 0 0.000976563c-0.673828 3.76953 -1.98828 5.59082 -6.37207 9.5166c-0.0498047 0.0449219 -2.19043 2.01758 -4.70508 4.87988c-1.4375 0.763672 -1.94141 1.03223 -5.88184 2.51074v93.3447
l3.4873 -0.373047c20.2686 -2.16992 45.8789 -12.4688 62.8271 -25.0176c3.40918 -2.52441 3.29297 -1.46289 6.87891 -4.85547c1.12695 -1.06641 1.28125 -1.21191 1.81152 -1.41211c1.08594 -0.410156 1.82227 -0.688477 2.46191 -1.93457
c0.887695 -1.73047 0.915039 -0.754883 2.27148 -3.4375c3.58887 -2.41113 3.9043 -3.06934 6.23047 -7.92188l-0.0644531 -0.0986328c13.584 -19.1094 22.2197 -44.0244 24.0771 -61.7207zM534.102 556.579v-93.4092l-1.56836 -0.695312
c-0.514648 -0.450195 -1.1543 -0.744141 -2.40527 -1.71094c-1.10449 -0.852539 -0.107422 0.646484 -2.2041 -1.88965l-2.20605 -2.20508c-0.313477 -0.313477 0.31543 0.31543 -1.57422 -1.25977c-3.78027 -3.46484 -2.83496 -2.52051 -3.53613 -3.36426
c-0.416992 -0.503906 -0.626953 -1.82324 -1.50391 -3.25098c-0.123047 -0.199219 -0.927734 0.233398 -1.47559 -2.55566h-93.6943l0.367188 3.48242c2.25977 21.4795 13.6328 49.0234 27.1846 65.8457c1.8584 2.30566 0.837891 1.26758 3.04297 3.78711
c0.879883 1.00586 1.25977 1.26074 1.50391 1.68066c0.0556641 0.0947266 5.97168 4.70215 8.88574 7.23145c10.7451 7.47168 34.1201 24.5605 65.6963 27.9395zM540.053 568.651c-70.8555 0 -128.364 -57.5059 -128.364 -128.362
c0 -70.8594 57.5117 -128.362 128.362 -128.362c70.8594 0 128.362 57.5117 128.362 128.362c-0.0976562 70.7637 -57.6074 128.265 -128.36 128.362zM423.761 434.34h93.3809c0.423828 -1.16309 -0.925781 -0.305664 1.64648 -5.39062
c1.87598 -3.70898 6.62891 -7.82812 7.87891 -8.56934c0.227539 -0.134766 -1.01855 0.742188 -0.633789 0.694336c0.648438 -0.0810547 1.41406 -1.17676 2.71289 -1.7334h0.62207c0.533203 -0.237305 0.533203 -0.237305 4.7334 -1.6543v-93.5127l-3.48438 0.369141
c-21.4902 2.28125 -49.0352 13.6865 -65.8486 27.2656l-2.72754 2.20215l0.334961 0.334961c-2.75 3.4502 -2.90723 3.64746 -4.52441 4.85059c-1.13184 0.842773 -2.16309 1.66992 -3.76758 3.48145l-0.399414 -0.400391l-2.20703 2.72559
c-13.6035 16.8047 -25.042 44.3516 -27.3428 65.8496zM267.415 295.262zM369.621 297.69c-61.5176 54.3633 -61.5176 54.3633 -61.75 54.5967c-0.400391 0.399414 -1.16895 1.19336 -2.08203 2.18652c-0.879883 -0.762695 -1.44629 -1.72461 -2.00488 -2.36523
c-4.97754 -5.69043 -4.97754 -5.69043 -5.50781 -6.0293c-0.34082 -0.34668 -0.799805 -0.819336 -1.40332 -1.44727c0.310547 -0.279297 0.310547 -0.279297 2.24609 -1.80176l47.4893 -40.6484l-84.7959 -1.14844l-45.8145 43.2617l-6.05078 -6.72754l38.0947 -36.3633
c-4.74219 -0.00585937 -9.48438 -0.0117188 -14.2256 -0.0175781h-93.3848l0.0751953 -10.6533c1.52051 0.0205078 1.52051 0.0205078 107.627 -1.33008l-41.1338 -34.2031l6.375 -6.89453l46.7412 40.3877c0.682617 0.225586 0.682617 0.225586 1.31348 0.478516
l84.9941 0.867188c-15.3223 -12.6133 -30.6533 -25.2178 -45.9795 -37.8271l-0.25293 -0.228516l0.25293 0.228516v0l-0.25293 -0.228516v0v0l-2.21777 -1.82617c0.948242 -1.34863 1.17871 -1.08496 1.95605 -1.92578l5.14062 -5.55957v0v0v0
c-0.00683594 -0.0888672 0.0107422 -0.188477 0 0v0l2.04492 -2.21191c0.856445 0.733398 1.78223 1.52539 2.14062 1.88281c60.0547 51.8193 60.0547 51.8193 61.0234 52.7881c0.310547 0.310547 0.674805 0.670898 1.11328 1.03613
c-0.186523 0.148438 -0.186523 0.148438 -1.77148 1.72363z" />
  </g>

</svg>
