<?xml version="1.0" standalone="no"?>
<!DOCTYPE svg PUBLIC "-//W3C//DTD SVG 1.1//EN" "http://www.w3.org/Graphics/SVG/1.1/DTD/svg11.dtd" >
<svg xmlns="http://www.w3.org/2000/svg" xmlns:xlink="http://www.w3.org/1999/xlink" version="1.1" viewBox="-10 0 1021 1000">
  <g transform="matrix(1 0 0 -1 0 800)">
   <path fill="currentColor"
d="M733.19 629.004h-375.648v-691.24h375.648v691.24zM319.84 664.68l445.28 -3.51953l7.04004 -763.84l-448.8 1.75977zM409.655 254.46c0.101562 88.3184 106.342 135.552 164.058 77.834c15.5908 -15.5908 25.2646 -37.1162 25.2988 -60.8906l0.0195312 -13.4365
h-37.0996c-0.0078125 4.46582 -0.0146484 8.93066 -0.0224609 13.3955c-0.0429688 27.0439 -22.0576 49.084 -49.1064 49.1289c-35.9717 0 -66.0459 -29.0234 -66.0459 -66.2529c0 -48.0508 39.0215 -87.2012 87.083 -87.2979
c64.5166 0.0527344 113.978 53.2959 113.592 113.89c0 80.8916 -65.6748 146.639 -146.557 146.741l-13.3984 0.0205078v37.0986c4.47852 -0.00488281 8.95605 -0.0107422 13.4336 -0.0166016c100.861 -0.12207 183.623 -81.8525 183.623 -184.05
c0 -83.2061 -67.5117 -150.723 -150.708 -150.785c-68.0527 0.125977 -124.17 55.2295 -124.17 124.621z" />
  </g>

</svg>
