<?xml version="1.0" standalone="no"?>
<!DOCTYPE svg PUBLIC "-//W3C//DTD SVG 1.1//EN" "http://www.w3.org/Graphics/SVG/1.1/DTD/svg11.dtd" >
<svg xmlns="http://www.w3.org/2000/svg" xmlns:xlink="http://www.w3.org/1999/xlink" version="1.1" viewBox="-10 0 1027 1000">
  <g transform="matrix(1 0 0 -1 0 800)">
   <path fill="currentColor"
d="M197.02 726.494v0v0v0zM451.027 726.494v0v0v0zM453 0v0v0v0zM453 0l-1.97266 726.494h-254.008v-32.4951h219.501v-659.506h-213.771l1.55078 -34.4932h248.7zM204.3 0v0v0v0zM202.749 34.4932v0v0v0zM197.02 693.999v0v0v0zM803.125 548.151v0v0v0zM710.674 581.623
l31.499 36.9033l30.1113 -38.6875l33.6338 14.9492l-11.835 -37.2451l-101.276 0.362305l-17.0098 39.0381zM710.674 581.623v0v0v0zM772.284 579.839v0l0.201172 0.572266zM684.823 548.151h118.302l20.667 65.5742l-49.3105 -20.9727l-32.9258 42.623l-33.5029 -41.8955
l-49.374 20.6963zM684.823 548.151l0.453125 -1.14453l-1.68652 1.14453h1.2334zM658.679 614.177v0v0v0zM741.556 635.376v0v0v0zM823.792 613.726v0v0v0zM26.7656 -1.61035h41.6357l12.8711 39.1699l12.8701 -39.1699h41.6367l-33.6504 -24.2217l12.8711 -39.168
l-33.7275 24.2217l-33.7275 -24.2217l12.8701 39.168zM926.267 11.7588c0.128906 -6.49707 -5.29297 -11.8711 -11.915 -11.8711c0.0146484 0 -353.215 0 -353.215 0c-6.4668 0 -11.8467 5.26855 -11.8701 11.8711l-1 280
c-0.178711 6.46191 5.28418 11.8711 11.9141 11.8711c-0.0136719 0 91.2842 0.176758 103.086 0.128906l52 52l17.1836 -17.748l-33.1836 -34.252l211.176 1.87109c6.4502 0.0576172 11.6143 -5.35742 11.8242 -11.8711l3 -93l49 -50l-17.4688 -20.2627l-33.5312 32.2627z
M574.859 26.3877l323.141 -1.3877v139.959l-29.7334 -33.2002l-16 21l45 50l0.733398 72.9951l-195.929 0.84082l33.1865 -27.0791l-14.9912 -16.7568l-60 45l-85.4072 -0.617188v-250.754zM583.875 572.151c0 -72.5752 71.7363 -131.712 160.125 -131.712
c88.3896 0 160.125 59.1367 160.125 131.712c0 72.5762 -71.7354 131.713 -160.125 131.713c-88.3887 0 -160.125 -59.1367 -160.125 -131.713zM567.223 573.496c0 81.0879 78.9951 146.496 176.777 146.496c97.7842 0 176.778 -65.4082 176.778 -146.496
s-78.9941 -146.496 -176.778 -146.496c-97.7822 0 -176.777 65.4082 -176.777 146.496z" />
  </g>

</svg>
