<?xml version="1.0" standalone="no"?>
<!DOCTYPE svg PUBLIC "-//W3C//DTD SVG 1.1//EN" "http://www.w3.org/Graphics/SVG/1.1/DTD/svg11.dtd" >
<svg xmlns="http://www.w3.org/2000/svg" xmlns:xlink="http://www.w3.org/1999/xlink" version="1.1" viewBox="-10 0 1008 1000">
  <g transform="matrix(1 0 0 -1 0 800)">
   <path fill="currentColor"
d="M516.308 372.062c-44.8262 0 -81.2012 39.498 -81.2012 81.8896c0 20.7842 12.6826 46.3184 21.3047 55.1309c2.28516 2.3877 3.43652 5.44238 3.43652 8.49219c0 3.04004 -1.14355 6.07715 -3.4502 8.45117c-11.2754 11.2881 -20.4277 33.3887 -20.4424 49.209
c0 1.17969 2.48438 20.084 4.43262 24.4092c10.0488 23.0811 38.5869 42.2461 63.7139 42.8477l0.175781 0.00488281l0.174805 -0.00683594c22.082 -0.77832 50.7559 -17.2656 61.7871 -42.3203c1.81348 -3.78027 6.25488 -7.10547 11.291 -7.10547
c3.45215 0 5.57617 1.40332 7.06445 2.3877c13.3906 8.85254 37.332 16.0762 53.3389 16.0762c1.22559 0 3.28223 -0.0537109 3.92676 -0.0703125c0.0371094 0 0.0693359 -0.00195312 0.0957031 -0.00195312c5.09863 0.0302734 9.74902 3.75098 11.3662 7.83398
c11.502 27.8916 45.4121 50.5547 75.5068 50.5547c-0.539062 0.249023 -0.792969 0.40918 -0.792969 0.483398c0 0.0332031 0.0517578 0.0498047 0.150391 0.0498047c2.69629 0 40.958 -12.1748 53.9463 -25.1631c4.91309 -4.91504 19.2461 -20.6826 22.8701 -40.6943
c1.2959 -6.52832 6.97266 -9.89746 11.5361 -10.043c42.0225 -1.12793 76.1387 -36.1748 76.1387 -78.209c0 -0.573242 -0.699219 -32.7314 -21.2158 -53.2471c-12.2393 -12.2393 -26.916 -18.6562 -27.9834 -19.0771
c-11.2031 -4.41797 -24.4453 -6.10449 -30.6885 -6.10449h-0.132812c-9.60547 0.21582 -17.2959 5.01074 -28.1895 5.01074c-5.47168 0 -8.57227 -1.46777 -10.2432 -3.13867c-0.202148 -0.219727 -1.06543 -1.19629 -4.44434 -5.0332
c2.40332 -5.54785 5.77246 -13.3232 5.77246 -23.5332c0 -14.7969 -8.70312 -28.6279 -9.13867 -28.6943c-2.19727 -3.04102 -4.82324 -6.02539 -7.70605 -8.90723c-8.51855 -8.51953 -19.1875 -16.1562 -28.1045 -19.7646
c-21.3154 -8.62305 -39.5527 -8.74121 -41.0215 -8.74121c-15.1768 0 -34.8242 5.75586 -35.9902 6.67188c-18.2139 7.55957 -40.0654 28.9297 -47.7412 50c-1.35547 3.5127 -5.1416 7.12402 -9.43164 7.96875c-1.03516 0.0634766 -2.2002 0.0830078 -3.44238 0.0830078
c-0.111328 0 -6.32129 -0.879883 -9.79688 -5.12891c-17.832 -21.8037 -48.3984 -32.5703 -66.8721 -32.5703zM654.093 351.505l-0.0546875 0.0244141zM456.298 508.961v0zM417.277 452.474c0 -54.9082 48.1484 -100.996 98.2217 -100.996
c37.5234 0 66.6621 23.1562 71.3975 27.2002l5.13574 4.38672c5.99316 -9.39355 9.89551 -15.5098 19.5811 -25.1943c10.7158 -10.7168 23.8125 -20.1973 35.8652 -24.9502c11.168 -4.35547 29.3779 -7.7793 41.3662 -7.7793c15.3828 0 31.9531 3.57422 50.1797 10.6104
c16.4004 6.33008 36.9189 22.8174 46.4287 36.7441c4.88281 7.14941 10.3809 25.1387 10.3809 37.9932c0 0.933594 0 0.933594 -0.369141 9.32227c9.85938 -1.99121 13.4561 -2.71777 17.6562 -2.71777c4.91309 0 23.7471 2.39551 37.2246 8.13867
c14.6973 5.98047 33.3477 20.8574 42.2324 33.1455c10.377 14.499 18.5859 40.0645 18.5859 57.8984c0 12.9141 -4.45312 32.1357 -10.1289 43.7314c-9.73535 19.8906 -41.2383 47.4541 -75.041 52.8174l-3.60547 0.572266
c-2.63672 8.50098 -8.2002 26.4385 -27.4043 45.6436c-10.9082 10.9072 -34.7129 30.2168 -66.5664 30.2168c-41.1191 0 -76.2842 -30.1035 -89.6504 -55.5342l-1.54102 -2.93164c-12.9775 -0.785156 -32.5771 -3.73242 -52.0352 -13.3203l-4.62305 -2.27832
c-4.73047 7.07324 -7.17285 10.7236 -13.2383 16.7891c-16.2656 16.2656 -40.5518 28.583 -62.4658 29.2959c-0.268555 0.00488281 -0.539062 0.00683594 -0.810547 0.00683594c-26.5527 0 -66.9561 -21.6611 -80.5 -56.2646
c-3.21289 -8.63672 -5.38086 -29.7539 -5.66797 -31.3438c0 -16.9883 7.97559 -40.0391 18.7988 -54.7549l2.48633 -3.37891l-2.39258 -3.44824c-11.1914 -16.1318 -19.501 -41.332 -19.501 -59.6201zM731.485 460.949c0 -14.4102 -10.1328 -27.582 -24.4258 -27.582
c-0.0771484 0 -0.154297 0 -0.231445 0.00195312c-4.26562 -0.0839844 -36.9346 -0.0976562 -58.7363 -0.0976562c-11.0684 0 -19.335 0.00390625 -19.6641 0.00390625c-4.80078 0.154297 -12.3398 0.398438 -18.6562 7.39453
c-1.58008 1.75098 -7.9502 9.4541 -7.9502 20.8496c0 5.22266 1.93457 13.0205 4.89844 23.8828c9.58887 39.4502 12.2471 50.4287 19.584 65.4639c3.50977 7.18066 15.3408 28.9883 40.1338 28.9883c34.8916 0 46.3721 -37.4082 54.1689 -68.8193
c2.67676 -11.126 5.41699 -22.2568 8.21973 -33.3916c1.29199 -5.38184 2.65918 -10.9775 2.65918 -16.6943zM666.396 558.494c-16.9502 0 -25.4297 -18.5977 -34.1074 -53.0938c-6.4541 -26.5693 -6.46973 -26.6309 -8.80469 -35.3906
c-0.879883 -3.625 -1.50977 -6.4873 -1.50977 -8.82227c0 -2.12988 0.523438 -3.82129 1.85645 -5.25293v0v0c0.0605469 -0.0654297 0.124023 -0.130859 0.188477 -0.194336c0.37207 -0.373047 0.524414 -0.598633 0.750977 -0.742188
c0.0283203 -0.00878906 0.0546875 -0.015625 0.0810547 -0.015625l-0.00683594 -0.0273438c0.143555 -0.0742188 0.323242 -0.123047 0.598633 -0.15918c0 0.0126953 0.000976563 0.0244141 0.000976563 0.0371094c0.0195312 0 0.0380859 -0.00488281 0.0566406 -0.00585937
c0 -0.0126953 -0.00292969 -0.0244141 -0.00292969 -0.0380859c0.570312 -0.0683594 1.52539 -0.0908203 3.32715 -0.168945c76.7363 0.0332031 77.8223 0.0732422 79.4697 0.289062c0.867188 0.387695 3.23145 2.57324 3.23145 6.61133
c0 3.01074 -10.9482 47.958 -15.3623 62.3506c-9.86621 31.8154 -21.333 34.0928 -27.415 34.5127h-0.0263672c-0.796875 0.0722656 -1.57129 0.110352 -2.32617 0.110352zM622.085 463.648l0.0283203 0.297852l-3.88867 0.299805zM623.831 455.937v-0.00195313h0.00195312z
M623.831 455.937v0v0zM332.481 97.6934l-82.2217 148.848l24.0225 10.1475l58.4395 -100.383l53.3027 101.418l27.2285 -11.0254zM249.568 -67.707v34.6641h38.626v22.0713h-38.626v34.6641h38.626v33.7148h31.3828v-33.7148h23.2197v31.2539h31.3828v-31.2539h41.292
v-34.6641h-41.292v-22.0713h41.292v-34.6641h-41.292v-36.1855h-31.3828v36.1855h-23.2197v-33.7246h-31.3828v33.7246h-38.626zM319.577 -33.043h23.2197v22.0713h-23.2197v-22.0713zM764.659 223.904c-0.529297 0 -0.985352 0.173828 -1.32227 0.358398l-214.094 -88.2627
v-37.8242c12.126 5.10742 24.251 10.2148 36.376 15.3213v-3.77051l-0.21875 -161.659h318.305l0.646484 155.446c10.9619 -6.48535 21.9238 -12.9697 32.8867 -19.4551l-0.677734 40.7051l-136.33 79.1182l1.46387 0.616211
c-22.6963 11.7715 -24.457 12.7314 -36.2109 19.5508c-0.288086 -0.102539 -0.56543 -0.144531 -0.824219 -0.144531zM868.594 -16.7148h-248.003l-0.665039 144.662l142.009 59.8174l107.859 -63.8086zM38.3545 -39.4795h55.5146l17.1611 52.2256l17.1602 -52.2256h55.5156
l-44.8672 -32.2959l17.1611 -52.2246l-44.9697 32.2959l-44.9707 -32.2959l17.1611 52.2246zM200 376l-166.333 301.111l19.2002 8.11133l148.8 -255.601l135.6 258l25.9551 -10.5107z" />
  </g>

</svg>
