<?xml version="1.0" standalone="no"?>
<!DOCTYPE svg PUBLIC "-//W3C//DTD SVG 1.1//EN" "http://www.w3.org/Graphics/SVG/1.1/DTD/svg11.dtd" >
<svg xmlns="http://www.w3.org/2000/svg" xmlns:xlink="http://www.w3.org/1999/xlink" version="1.1" viewBox="-10 0 717 1000">
  <g transform="matrix(1 0 0 -1 0 800)">
   <path fill="currentColor"
d="M614.305 133.465l-0.0166016 -0.786133l0.0166016 0.786133l0.0117188 0.420898zM537.356 376.836l0.198242 -0.234375l-0.198242 0.234375v0v0zM348.453 141.269l0.145508 1.7334l-0.145508 -1.7334l-0.0302734 -0.195312zM367.692 101.976l-1.01758 0.301758
l1.01758 -0.301758l0.69043 -0.206055zM480.599 403.839c34.7578 0 67.2031 -18.7393 92.9502 -101.767c14.5078 -47.3037 38.9473 -154.019 39.6699 -157.456c0.699219 -3.34277 1.01953 -6.53516 1.01953 -9.56055c0 -17.8359 -11.5762 -32.333 -22.6191 -33.708
c-7.53125 -0.999023 -6.78906 -0.832031 -209.264 -0.919922h-0.228516l-0.228516 0.00878906c-11.9131 0.523438 -16.6074 0.730469 -23.6357 7.75781c-7.83594 7.83594 -10.2939 16.8672 -10.2939 25.9883c0 8.29688 1.75781 15.4912 4.57422 27.0156l0.0205078 0.0703125
c6.07422 22.7812 6.03516 22.625 22.8682 91.9268c18.7793 74.6436 41.5859 150.644 105.167 150.644zM586.082 78.2725c28.5352 0 46.9717 27.7949 46.9717 55.0938c0 12.2676 -2.99414 25.168 -6.45703 39.5977c-7.30371 29.0117 -14.4258 57.9453 -21.4004 86.9346
c-24.4541 98.5225 -54.2666 166.393 -124.935 166.393c-24.5088 0 -62.2285 -10.4619 -89.4424 -66.1396c-17.376 -35.6074 -23.1709 -57.6543 -49.8037 -167.214c-10.9756 -40.2158 -12.1904 -50.501 -12.1904 -57.7373c0 -2.42383 0.431641 -27.5186 18.0088 -45.0967
c11.2305 -11.2305 23.3867 -11.7021 35.1572 -12.082c0.363281 -0.0107422 17.1738 -0.0214844 41.0088 -0.0214844c56.2402 0 151.584 0.0556641 162.215 0.273438h0.322266c0.280273 -0.00390625 0.364258 -0.000976562 0.544922 -0.000976562zM513.22 560.272
c-3.67285 0 -6.80176 2.05664 -8.64551 4.96777l-99.374 156.87l-19.2002 -8.11035l126 -218l118 226l-25.9561 10.5107l-81.9707 -166.895c-0.459961 -0.9375 -3.11035 -5.34375 -8.85352 -5.34375zM124.246 323.047c0 -2.55988 -0.916373 -5.18089 -2.92398 -7.07424
l-49.7319 -46.9016l12.2957 -15.2637l51.2276 48.5388c1.92495 1.82392 4.39986 2.73588 6.87476 2.73588c2.25576 0 4.51151 -0.757607 6.35086 -2.27282l55.5844 -45.7893l15.4592 13.043c-54.3146 46.3371 -54.3146 46.3371 -54.5984 46.6209
c-1.95131 1.95131 -2.92697 4.51119 -2.92697 7.07107c0 2.54433 0.963845 5.08867 2.89154 7.03546l51.0048 51.5102l-15.8305 12.6031l-51.2892 -49.0595c-1.92987 -1.84597 -4.41968 -2.76895 -6.9095 -2.76895c-2.55086 0 -5.10171 0.968794 -7.05042 2.90638
l-49.201 48.9203l-13.3847 -13.5697l49.3711 -51.3575c1.85767 -1.93241 2.78651 -4.43011 2.78651 -6.92781z" />
  </g>

</svg>
