<?xml version="1.0" standalone="no"?>
<!DOCTYPE svg PUBLIC "-//W3C//DTD SVG 1.1//EN" "http://www.w3.org/Graphics/SVG/1.1/DTD/svg11.dtd" >
<svg xmlns="http://www.w3.org/2000/svg" xmlns:xlink="http://www.w3.org/1999/xlink" version="1.1" viewBox="-10 0 1051 1000">
  <g transform="matrix(1 0 0 -1 0 800)">
   <path fill="currentColor"
d="M828.399 483.872c0 9.49878 0.360099 25.4826 0.360099 28.905l-0.318652 61.3747l-8.69455 54.78l-24.0577 41.7601l-29.8355 19.1251l-33.9409 8.02542l-47.9505 1.85133v0.765382l-107.704 8.96128l-161.614 -4.8437l-135.511 -48.0118l4.97421 -24.8711
l90.1513 34.2037l168.519 13.9909l163.859 -8.05849l72.0585 -32.0852l24.6852 -76.5829c-11.2968 -92.7231 -11.5388 -94.7093 -10.6225 -98.1968c0.272553 -1.03738 0.408327 -1.98777 0.495372 -2.92219c0.487753 -0.641757 1.13403 -1.58506 1.4862 -2.05622
l30.4464 -40.7334l38.0432 -60.0682l23.93 -33.502l-96.7113 -80.2498l-3.19974 -219.288c0.962733 -7.56244 2.78458 -22.0112 5.01798 -45.877c-0.12894 -0.269919 -9.65147 -20.9678 -12.8349 -27.02c-1.80565 -3.43278 -3.36365 -6.39475 -8.94453 -11.1259
c-28.726 -6.87192 -37.6748 -9.01268 -53.7943 -9.01268c-3.38415 0 -6.77838 0.14333 -10.1737 0.446144l-127.95 -3.2205l-189.706 31.9736l-119.91 72.0259l-21.8729 31.5454c-0.18608 0.126152 -14.9542 10.3475 -18.5829 12.6523v-31.4635
c5.41685 -3.87145 13.5068 -7.36272 24.4398 -17.2503c7.32645 -6.62591 2.09556 -4.45645 10.6241 -11.9264c1.03002 -0.902171 1.03002 -0.902171 17.2005 -21.8062l70.2643 -41.1391l123.979 -35.7692l40.8353 -3.74581
c52.8258 -4.90757 59.0669 -6.73248 83.0467 -7.42728l68.08 -1.97257l89.7606 0.254271l51.1066 12.4914l15.1376 25.2075l6.27671 34.16l-0.268638 82.9487l0.0291888 84.2282l-0.00582149 87.5189l84.7837 67.8016l7.68593 8.96692l1.11464 7.19504
c0.44913 7.61262 -1.52476 12.8022 -3.31214 18.1783l-23.3304 38.8443l-33.0243 43.448l-34.3179 48.9016c-0.202711 16.1296 -0.202711 16.1296 -0.202711 17.6951zM33.2949 712.521h55.5146l17.1611 52.2256l17.1602 -52.2256h55.5156l-44.8672 -32.2959
l17.1611 -52.2246l-44.9697 32.2959l-44.9707 -32.2959l17.1611 52.2246zM616.618 191.003zM425.78 319.392zM390.142 253.782zM529 168zM528.75 160.032zM422.653 189.658zM483.818 170.416zM650.658 268.616zM390.142 253.782zM650.658 268.616zM566.153 352.85
c-13.4531 0 -24.8418 -5.23242 -30.6182 -11.0088c-2.19824 -2.19824 -1.63672 -2.3125 -2.5459 -2.64355c-4.08398 -1.48926 -8.08594 -2.02832 -11.7383 -2.02832c-3.44824 0 -9.71387 0.508789 -16.4971 3.55664c-4.60938 5.61133 -12.4053 10.7178 -25.5127 10.7178
c-19.6777 0 -42.1172 -12.1797 -49.9209 -30.4287l-0.385742 -0.901367h-1.35742l-35.5527 -48.3066h-1.70117v-2.31055c-0.230469 -0.313477 -0.460938 -0.625977 -0.691406 -0.939453h0.37207l-3.9375 -14.7656l-0.443359 0.00683594
c-0.0791016 -1.51172 -0.22168 -2.38086 -0.699219 -4.25977h0.573242c-0.0136719 -1.66895 -0.0136719 -1.66895 -0.0136719 -1.83887c0 -10.7949 4.6582 -32.6416 35.7061 -58.3193c32.791 -27.1221 69.874 -30.1123 100.616 -30.1123
c50.3877 0 70.9307 6.31445 101.082 30.1406c36.833 29.1045 37.4541 37.6748 38.4678 58.9473l-1.03125 0.0166016c-0.0625 0.236328 -4.58691 18.6973 -6.19141 23.667l-26.3252 44.9844c-2.9668 3.09668 -2.9668 3.09668 -3.26562 3.60938h-0.195312
c-9.25586 9.47266 -28.6582 27.1992 -47.6025 31.127c-3.625 0.751953 -7.1748 1.08984 -10.5908 1.08984zM478.728 339.839c2.83203 0 9.12598 0 16.3027 -4.93848l-0.0556641 -0.68457c0.414062 -0.169922 1.07812 -0.481445 1.72266 -1.09375
c6.08105 -5.77832 15.4258 -8.49121 24.2988 -8.49121c8.26465 0 16.1191 2.35352 20.541 6.77637c0.860352 0.860352 2.25 2.24902 3.32324 5.48438c4.55664 3.10938 11.7949 6.50195 21.6738 6.50195c13.1104 0 19.2393 -5.70898 23.9395 -10.0859
c3.65234 -3.40137 8.46191 -7.8916 18.8066 -14.7363c0.395508 -0.0859375 0.719727 -0.276367 0.979492 -0.570312l0.227539 0.00878906l29.584 -46.6631c0 -0.0791016 -0.00195312 -0.15918 -0.00195312 -0.239258c2.12207 -7.94922 4.05957 -16.083 6.10254 -24.1113
c0.713867 -2.85352 1.11523 -5.49805 1.11523 -8.05859c0 -12.2852 -9.13965 -22.2383 -35.4688 -43.7539c-24.2617 -19.8242 -41.8301 -26.625 -94.7783 -26.625c-28.6641 0 -51.7695 3.52148 -78.7539 22.4102c-33.2637 23.2852 -37.7363 40.4326 -37.7363 55.7031
c0 1.00684 0.0185547 1.99902 0.046875 2.97559c1.66016 6.58789 3.46289 13.0312 5.17676 19.5645l32.418 45.8965c0.459961 -0.176758 0.918945 -0.354492 1.37891 -0.53125c1.0918 2.57227 2.95117 6.95312 7.99707 11.999
c8.13086 8.13086 20.165 13.2627 31.1602 13.2627zM478.601 590.7l57 -0.299805v0h2.7002l-3.30078 -182.4v-10.7998h-12.2998l-46.2002 0.299805v10.7998l46.2002 -0.299805l3.90039 172.8l-48 0.300781v9.59961zM400.601 94.2002l-0.400391 -13.25h4.66699v-0.75
l151.133 -80.2002v80.4004l94.2002 0.716797v13.6836z" />
  </g>

</svg>
