<?xml version="1.0" standalone="no"?>
<!DOCTYPE svg PUBLIC "-//W3C//DTD SVG 1.1//EN" "http://www.w3.org/Graphics/SVG/1.1/DTD/svg11.dtd" >
<svg xmlns="http://www.w3.org/2000/svg" xmlns:xlink="http://www.w3.org/1999/xlink" version="1.1" viewBox="-10 0 1007 1000">
  <g transform="matrix(1 0 0 -1 0 800)">
   <path fill="currentColor"
d="M309.054 7.9375zM419.681 516.98l0.0820312 -0.0966797c-0.0273438 0.0322266 -0.0820312 0.0966797 -0.0820312 0.0966797zM105.515 118.674l0.0253906 0.157227c-0.00878906 -0.0517578 -0.0253906 -0.104492 -0.0253906 -0.157227zM133.202 54.9434
l-0.535156 0.165039c0.177734 -0.0566406 0.356445 -0.111328 0.535156 -0.165039zM142.136 53.1738l-0.117188 0.0107422c0.0205078 0 0.0410156 -0.0107422 0.117188 -0.0107422zM484.65 2.50195c-179.815 0.630859 -327.542 0.00195312 -327.571 0.00292969
c-20.2549 0.65332 -45.3867 1.46289 -67.0791 25.4951c-35.9717 39.8496 -29.6406 88.2334 -27.6904 98.9082c3.96289 21.6973 10.1719 43.4863 19.2051 79.7891c37.8477 152.104 42.2813 173.935 59.498 224.194c39.2373 114.071 86.7598 152.587 128.701 169.663
c25.6719 9.58105 109.012 32.1953 177.939 -44.7861c35.5029 -41.6865 64.2344 -98.1309 98.0244 -234.276c11.9678 -49.748 24.1904 -99.4014 36.6934 -149.062c3.18555 -13.2676 6.1084 -26.583 8.77832 -40.0352c13.166 -64.8135 -24.4375 -130.256 -84.9121 -129.455z
M118.962 65.5117c0.0361328 -0.0302734 0.0761719 -0.0595703 0.0761719 -0.0898438c11.0801 -12.042 18.4336 -12.3594 38.5801 -13.2314c0 0 334.942 0.146484 335.09 0.145508c7.8457 -0.111328 15.6611 0.348633 23.4639 1.38379
c16.1738 2.01855 40.4297 28.9463 32.3252 67.3633c-3.74609 18.8613 -3.74609 18.8613 -19.6631 82.7832c-39.5684 162.511 -48.584 199.539 -75.5889 258.703c-4.94922 10.6094 -20.8369 42.4893 -42.4941 64.1475c-21.1943 21.1934 -45.1406 32.3535 -72.8945 34.2744
c-34.5283 3.05176 -97.709 -1.76465 -144.484 -117.712c-18.3096 -46.1396 -29.541 -86.708 -41.9121 -135.994c-28.8398 -118.729 -28.8398 -118.729 -39.2871 -157.913l0.0253906 0.105469c-0.0078125 -0.0351562 -0.0253906 -0.105469 -0.0253906 -0.105469
c-8.23145 -33.8506 -14.334 -58.9443 6.78906 -83.8604zM801 298c0 30.0107 26.8691 55.3994 62.0107 55.3994c35.1387 0 62.0127 -25.3887 62.0127 -55.3994c0 -30.0059 -26.874 -55.3975 -62.0127 -55.3975c-35.1416 0 -62.0107 25.3916 -62.0107 55.3975z" />
  </g>

</svg>
