<?xml version="1.0" standalone="no"?>
<!DOCTYPE svg PUBLIC "-//W3C//DTD SVG 1.1//EN" "http://www.w3.org/Graphics/SVG/1.1/DTD/svg11.dtd" >
<svg xmlns="http://www.w3.org/2000/svg" xmlns:xlink="http://www.w3.org/1999/xlink" version="1.1" viewBox="-10 0 1013 1000">
  <g transform="matrix(1 0 0 -1 0 800)">
   <path fill="currentColor"
d="M839.408 811.507l-125.177 -127.891l136.224 -126.671l-17.7354 -14.9453l-136.377 127.001l-123.343 -127.001l-12.8809 14.249l121.775 125.28l-119.712 125.976l15.8242 15.3115l121.088 -121.8l126.592 122.496zM170.007 683.216
c0 -64.7998 67.2002 -117.6 150 -117.6c82.7998 0 150 52.7998 150 117.6c0 64.7998 -67.2002 117.601 -150 117.601c-82.7998 0 -150 -52.8008 -150 -117.601zM154.407 684.416c0 72.4004 74 130.8 165.6 130.8c91.5996 0 165.6 -58.3994 165.6 -130.8
s-74 -130.8 -165.6 -130.8c-91.5996 0 -165.6 58.3994 -165.6 130.8zM209.206 354.068l-124.767 -104.239l120.145 -102.38l30.4912 31.1533l-61.498 50.001l435.26 -3.6582l2.34082 43.0107l-437.959 1.96777l64.8623 52.4434zM236.217 623.271h127.966l21.6846 63.085
l-52.5918 -20.5068l-35.709 42.3809l-36.3223 -41.6445l-52.4375 20.1543zM331.542 655.297l38.2227 15.5752l-13.9121 -40.1406l-112.327 0.369141l-19.9863 42.0576l39.9453 -16.0889l34.8125 37.3916z" />
  </g>

</svg>
