<?xml version="1.0" standalone="no"?>
<!DOCTYPE svg PUBLIC "-//W3C//DTD SVG 1.1//EN" "http://www.w3.org/Graphics/SVG/1.1/DTD/svg11.dtd" >
<svg xmlns="http://www.w3.org/2000/svg" xmlns:xlink="http://www.w3.org/1999/xlink" version="1.1" viewBox="-10 0 1051 1000">
  <g transform="matrix(1 0 0 -1 0 800)">
   <path fill="currentColor"
d="M828.399 483.872c0 9.49878 0.360099 25.4826 0.360099 28.905l-0.318652 61.3747l-8.69455 54.78l-24.0577 41.7601l-29.8355 19.1251l-33.9409 8.02542l-47.9505 1.85133v0.765382l-107.704 8.96128l-161.614 -4.8437l-135.511 -48.0118l4.97421 -24.8711
l90.1513 34.2037l168.519 13.9909l163.859 -8.05849l72.0585 -32.0852l24.6852 -76.5829c-11.2968 -92.7231 -11.5388 -94.7093 -10.6225 -98.1968c0.272553 -1.03738 0.408327 -1.98777 0.495372 -2.92219c0.487753 -0.641757 1.13403 -1.58506 1.4862 -2.05622
l30.4464 -40.7334l38.0432 -60.0682l23.93 -33.502l-96.7113 -80.2498l-3.19974 -219.288c0.962733 -7.56244 2.78458 -22.0112 5.01798 -45.877c-0.12894 -0.269919 -9.65147 -20.9678 -12.8349 -27.02c-1.80565 -3.43278 -3.36365 -6.39475 -8.94453 -11.1259
c-28.726 -6.87192 -37.6748 -9.01268 -53.7943 -9.01268c-3.38415 0 -6.77838 0.14333 -10.1737 0.446144l-127.95 -3.2205l-189.706 31.9736l-119.91 72.0259l-21.8729 31.5454c-0.18608 0.126152 -14.9542 10.3475 -18.5829 12.6523v-31.4635
c5.41685 -3.87145 13.5068 -7.36272 24.4398 -17.2503c7.32645 -6.62591 2.09556 -4.45645 10.6241 -11.9264c1.03002 -0.902171 1.03002 -0.902171 17.2005 -21.8062l70.2643 -41.1391l123.979 -35.7692l40.8353 -3.74581
c52.8258 -4.90757 59.0669 -6.73248 83.0467 -7.42728l68.08 -1.97257l89.7606 0.254271l51.1066 12.4914l15.1376 25.2075l6.27671 34.16l-0.268638 82.9487l0.0291888 84.2282l-0.00582149 87.5189l84.7837 67.8016l7.68593 8.96692l1.11464 7.19504
c0.44913 7.61262 -1.52476 12.8022 -3.31214 18.1783l-23.3304 38.8443l-33.0243 43.448l-34.3179 48.9016c-0.202711 16.1296 -0.202711 16.1296 -0.202711 17.6951zM33.2949 712.521h55.5146l17.1611 52.2256l17.1602 -52.2256h55.5156l-44.8672 -32.2959
l17.1611 -52.2246l-44.9697 32.2959l-44.9707 -32.2959l17.1611 52.2246zM508.449 326.501c68.123 0 123.551 -37.252 123.551 -82.9502c0 -11.3223 -3.32617 -22.1377 -9.94141 -32.5781l30.3223 -144.872h-17.5098l-29.0732 126.436
c-10.0361 -8.41699 -19.2559 -13.7197 -29.7979 -18.4033v-110.133h-17.5v103.715c-6.58203 -1.9248 -24.6504 -7.11426 -50.0508 -7.11426c-13.5547 0 -25.3594 1.37598 -37.4766 3.89941l12.6748 -99.0996h-16.1055l-13.2529 103.606
c-21.2793 7.06836 -33.3223 15.7588 -39.9375 20.8535l-14.7939 -114.66h-16.1064l16.5947 128.603c-3.69824 4.56055 -11.3496 14.7109 -14.1182 29.0312c-0.107422 0 -0.214844 -0.00195312 -0.322266 -0.00195312c-7.42188 0 -15.6768 2.15723 -24.5117 7.12988
c-22.9277 12.8994 -47.2559 31.251 -47.2559 51.0391c0 24.7822 15.2461 35.8496 56.7129 35.8496c26.8887 0 41.5898 -10.1279 48.1719 -26.4824c16.4873 11.6719 45.7812 26.1328 89.7266 26.1328zM383.451 75.2002h-0.794922l0.693359 -0.790039zM399.558 75.2002
l-0.0791016 -0.609375l0.694336 0.609375h-0.615234zM467.542 65.4004h-0.616211l0.693359 -0.610352zM483.647 65.4004l0.100586 -0.790039l0.694336 0.790039h-0.794922zM558.5 64h-0.701172l0.701172 -0.699219v0.699219zM576 64v-0.699219l0.699219 0.699219h-0.699219z
M634.871 66.1006h-0.556641l0.681641 -0.541992zM652.381 66.1006l0.177734 -0.844727l0.683594 0.844727h-0.861328zM538.468 459.6c3.55176 0 3.55176 0 23.3291 2.29492c-12.2598 -12.9766 -12.2598 -12.9766 -12.75 -13.4668
c-9.04688 -9.04785 -20.5703 -14.082 -29.0449 -14.082c-7.54883 0 -7.54883 0 -41.0137 12.3809c29.501 8.99805 42.2012 12.873 59.4795 12.873zM352.003 436.852c-2.84668 0 -7.78418 0 -11.2646 4.05664c-3.55957 4.14941 -3.55957 4.14941 -18.3135 17.7031h64.2354
l43.8203 1.45508l-38.5527 -13.498c-14.2871 -5.00195 -29.4355 -9.7168 -39.9248 -9.7168zM520.855 517.744c7.04395 0 20.8926 -2.17285 31.2871 -15.4629l11.709 -14.9727c-23.7822 6.63086 -23.7822 6.63086 -31.833 6.63086
c-17.1943 0 -30.8857 -4.98828 -82.2217 -24.7363c30.7949 1.58984 10.1064 17.0811 10.1064 18.1309c0 0.283203 -0.145508 0.359375 -0.145508 0.591797c-0.394531 0.552734 -0.394531 0.552734 -8.00684 10.9326l11.7549 0.454102
c1.87598 0.0722656 14.3545 4.11914 23.8789 8.92871c12.2285 6.17285 23.2891 9.50293 33.4707 9.50293zM694.537 473zM690.787 469.268zM317.811 492.221c14.2109 12.457 14.2109 12.457 17.4219 15.46c5.35449 5.00488 11.0312 9.90332 26.5146 9.90332
c22.0723 0 34.418 -11.4863 42.1338 -15.6406l20.7109 -11.1504l-30.0488 1.42773h-76.7324zM454.592 429.793c0 -0.0683594 7.13867 -4.28711 7.11719 -4.35254l-0.115234 0.831055s-7.29297 3.92773 -7.00195 3.52148zM462.003 425.642
c6.9541 -4.35254 25.0742 -19.1904 37.6914 -23.3291c3.29199 -1.08203 20.249 -5.83008 28.9951 -5.83008c28.249 0 62.6816 21.1182 71.4043 57.3516l1.15039 4.77734h41.709c18.5586 0 36.0469 0.628906 40.5898 1.35352l0.279297 0.0136719
c2.97461 1.47266 9.15039 11.9473 9.15039 17.8701c0 3.23535 -4.94531 9.33984 -11.4951 17.1553h-71.3857l-12.1367 0.952148v0c-15.5498 29.583 -46.2969 55.6943 -77.4316 55.6943c-6.8125 0 -13.5576 -1.03223 -20.0742 -3.22852
c-13.2207 -4.45703 -61.0312 -28.5117 -69.3574 -33.6289l17.5635 7.66211s0.00683594 -0.0517578 -0.0361328 -0.0986328c-1.19531 -1.31445 -33.3906 -3.50293 -1.58789 -17.2334c-14.9453 16.7324 -19.1572 21.4482 -25.3535 26.0156
c-19.0088 14.0176 -39.7324 20.8652 -59.2178 20.8652c-47.8271 0 -68.2412 -39.8604 -68.5732 -40.585c-2.71973 -5.95117 -5.43945 -11.9014 -8.15918 -17.8525c-7.30273 0.339844 -11.4375 0.533203 -18.5732 0.533203c-19.7637 0 -34.4414 -1.90039 -54.5918 -1.90039
c-0.341797 0 -0.685547 0.000976562 -1.03125 0.000976562c-6.03516 -7.78027 -6.03516 -7.81738 -6.03516 -11.8623c0 -6.36328 3.35352 -13.5977 4.42285 -15.7422l-0.62793 0.648438c0.208984 -0.21582 0.417969 -0.431641 0.62793 -0.648438
c1.07129 -1.09961 1.07129 -1.09961 5.96582 -5.98438h76.4746c-0.607422 -7.13965 -0.607422 -7.13965 -0.607422 -7.51758c0 -5.57812 6.41992 -18.5518 16.4941 -28.626c17.0684 -17.0693 40.1719 -22.2275 50.9473 -22.2275c14.1201 0 31.9531 6.73047 73.1914 26.0889
c10.5391 4.94727 12.4297 5.80762 37.1777 16.4365c-34.3516 -2.87305 -17.3486 -10.998 -7.55957 -17.124zM215.885 458.611c0.442383 -0.441406 1.12695 -1.12598 1.8457 -1.85352l-4.44336 1.85352h2.59766zM211.531 492.2
c-0.895508 0 -1.80273 0.00878906 -2.7207 0.0205078l4.60742 2.39453c-0.681641 -0.869141 -1.31055 -1.67188 -1.88672 -2.41504zM610.092 495.004h-6.25zM681.478 495.004c-0.602539 0.71875 -1.22656 1.46094 -1.87207 2.22852l4.78516 -2.22852h-2.91309z" />
  </g>

</svg>
