<?xml version="1.0" standalone="no"?>
<!DOCTYPE svg PUBLIC "-//W3C//DTD SVG 1.1//EN" "http://www.w3.org/Graphics/SVG/1.1/DTD/svg11.dtd" >
<svg xmlns="http://www.w3.org/2000/svg" xmlns:xlink="http://www.w3.org/1999/xlink" version="1.1" viewBox="-10 0 995 1000">
  <g transform="matrix(1 0 0 -1 0 800)">
   <path fill="currentColor"
d="M673.773 723.739c17.9824 6.54297 45.041 -6.60156 44.5 -32c-0.342773 -16.0664 -26.5693 -29.8848 -26.5 -31.5c0 0 2.5 -29 -2.01562 -144.765l131.803 -0.796875c7.88672 19.917 35.1465 28.4932 52.6914 10.9492c20.584 -20.584 5.19141 -54.6826 -22.4609 -54.8867
c-12.6523 -0.0927734 -23.8223 7.39453 -29.1416 18.1504c-1.14746 0.385742 -1.53613 0.489258 -1.64453 0.420898l-130.964 -0.413086l0.930664 -126.237c32.1865 -13.7607 22.0713 -61.668 -12.1807 -61.9209c-33.8506 -0.249023 -45.5684 47.1895 -13.0664 61.5664
l-0.933594 126.416l-144.444 -1.06641c-16.4854 -29.1025 -59.8379 -16.3457 -60.0732 15.5645c-0.262695 35.5938 50.3018 44.8672 62.5527 11.0527l141.684 1.04688l-0.736328 146.419s-50.0293 48.249 10 62c9.23828 4.70605 -4.23242 -1.53906 0 0v0zM573.049 223.699
c-0.275465 9.08526 -0.628906 21.6176 -0.628906 24.2285c0 3.19547 0.0634766 6.35669 0.0634766 6.4209c0 0.173036 -0.00211423 0.324811 -0.00211423 0.421602c-0.00641991 0.114231 -0.0083665 0.182758 -0.00374515 0.285429
c0 0.0119263 0.0244141 1.1237 0.0244141 1.19238c0 5.27043 -4.29171 9.8612 -9.95187 9.98161l-30.5857 0.675353c0.101994 -12.1427 0.102974 -13.3656 0.102974 -18.3806c0 -85.6063 -7.91415 -231.671 -93.2584 -343.777
c-14.6777 -19.28 -30.448 -42.5259 -62.9972 -84.8776l31.5552 -24.9813c25.4336 28.2591 27.5874 41.5606 51.3554 71.7448c28.2713 35.9047 59.1701 88.1991 74.6998 140.233l4.47963 15.0096l5.04254 -14.8304c36.3232 -106.828 80.8838 -155.33 121.697 -199.516
l11.3531 -12.3471l17.753 11.8353l-12.3422 6.88651l5.79991 13.3323l3.68803 0.548403c-31.2824 30.9128 -114.603 129.035 -124.126 231.404c0 0 -0.248531 2.67573 -0.30495 2.70591l-2.1138 1.13048c-0.77411 4.13283 -1.34801 7.19679 -1.34801 17.9747
c0 34.1912 10.0479 105.717 10.0479 142.698zM287.908 705.338l-91.7002 -92.6104l99.792 -91.7275l-12.9912 -10.8223l-99.9053 91.9658l-90.3545 -91.9658l-9.43652 10.3174l89.208 90.7207l-87.6963 91.2246l11.5918 11.0869l88.7041 -88.2002l92.7363 88.7041z" />
  </g>

</svg>
