<?xml version="1.0" standalone="no"?>
<!DOCTYPE svg PUBLIC "-//W3C//DTD SVG 1.1//EN" "http://www.w3.org/Graphics/SVG/1.1/DTD/svg11.dtd" >
<svg xmlns="http://www.w3.org/2000/svg" xmlns:xlink="http://www.w3.org/1999/xlink" version="1.1" viewBox="-10 0 1030 1000">
  <g transform="matrix(1 0 0 -1 0 800)">
   <path fill="currentColor"
d="M828.399 483.872c0 9.49878 0.360099 25.4826 0.360099 28.905l-0.318652 61.3747l-8.69455 54.78l-24.0577 41.7601l-29.8355 19.1251l-33.9409 8.02542l-47.9505 1.85133v0.765382l-107.704 8.96128l-161.614 -4.8437l-135.511 -48.0118l4.97421 -24.8711
l90.1513 34.2037l168.519 13.9909l163.859 -8.05849l72.0585 -32.0852l24.6852 -76.5829c-11.2968 -92.7231 -11.5388 -94.7093 -10.6225 -98.1968c0.272553 -1.03738 0.408327 -1.98777 0.495372 -2.92219c0.487753 -0.641757 1.13403 -1.58506 1.4862 -2.05622
l30.4464 -40.7334l38.0432 -60.0682l23.93 -33.502l-96.7113 -80.2498l-3.19974 -219.288c0.962733 -7.56244 2.78458 -22.0112 5.01798 -45.877c-0.12894 -0.269919 -9.65147 -20.9678 -12.8349 -27.02c-1.80565 -3.43278 -3.36365 -6.39475 -8.94453 -11.1259
c-28.726 -6.87192 -37.6748 -9.01268 -53.7943 -9.01268c-3.38415 0 -6.77838 0.14333 -10.1737 0.446144l-127.95 -3.2205l-189.706 31.9736l-119.91 72.0259l-21.8729 31.5454c-0.18608 0.126152 -14.9542 10.3475 -18.5829 12.6523v-31.4635
c5.41685 -3.87145 13.5068 -7.36272 24.4398 -17.2503c7.32645 -6.62591 2.09556 -4.45645 10.6241 -11.9264c1.03002 -0.902171 1.03002 -0.902171 17.2005 -21.8062l70.2643 -41.1391l123.979 -35.7692l40.8353 -3.74581
c52.8258 -4.90757 59.0669 -6.73248 83.0467 -7.42728l68.08 -1.97257l89.7606 0.254271l51.1066 12.4914l15.1376 25.2075l6.27671 34.16l-0.268638 82.9487l0.0291888 84.2282l-0.00582149 87.5189l84.7837 67.8016l7.68593 8.96692l1.11464 7.19504
c0.44913 7.61262 -1.52476 12.8022 -3.31214 18.1783l-23.3304 38.8443l-33.0243 43.448l-34.3179 48.9016c-0.202711 16.1296 -0.202711 16.1296 -0.202711 17.6951zM33.2949 712.521h55.5146l17.1611 52.2256l17.1602 -52.2256h55.5156l-44.8672 -32.2959
l17.1611 -52.2246l-44.9697 32.2959l-44.9707 -32.2959l17.1611 52.2246zM306.991 525.162l-0.563477 -18.6611h6.57227v-1.05566l212.847 -112.948v113.229l132.665 1.00977v19.2715zM492 108c-64.8262 0 -117.72 42.3057 -117.72 94.3174
c0 52.0098 52.8926 94.2314 117.72 94.2314c64.8262 0 117.72 -42.3047 117.72 -94.3164c0 -52.0107 -52.8926 -94.2324 -117.72 -94.2324zM633.946 342.194c0 1.46582 -2.84375 4.59863 -4.7002 4.59863c-0.632812 0 -1.28223 -0.216797 -1.87402 -0.808594
l-57.5596 -57.5596c-0.331055 -0.331055 -0.59668 -0.802734 -0.725586 -1.31445c-21.5293 13.1348 -48.2139 20.917 -77.0869 20.917c-29.0127 0 -55.8154 -7.87109 -77.3994 -21.1396c-0.138672 0.296875 -0.321289 0.561523 -0.529297 0.770508l-57.5625 57.5625
c-0.591797 0.59082 -1.23926 0.807617 -1.87109 0.807617c-1.12402 0 -2.87695 -1.34082 -3.89453 -2.72461c-0.488281 -0.664062 -0.807617 -1.33691 -0.807617 -1.87695c0 -0.750977 0.337891 -1.50293 0.807617 -1.97363l57.0508 -57.0498
c-27.5361 -19.4229 -44.9922 -48.1699 -44.9922 -80.1709c0 -58.2988 57.9307 -105.711 129.198 -105.711c71.2734 0 129.199 47.501 129.199 105.796c0 32.1934 -17.667 61.0674 -45.4902 80.4717l57.4297 57.4277c0.469727 0.470703 0.807617 1.22461 0.807617 1.97754z
" />
  </g>

</svg>
