<?xml version="1.0" standalone="no"?>
<!DOCTYPE svg PUBLIC "-//W3C//DTD SVG 1.1//EN" "http://www.w3.org/Graphics/SVG/1.1/DTD/svg11.dtd" >
<svg xmlns="http://www.w3.org/2000/svg" xmlns:xlink="http://www.w3.org/1999/xlink" version="1.1" viewBox="-10 0 849 1000">
  <g transform="matrix(1 0 0 -1 0 800)">
   <path fill="currentColor"
d="M636.365 431.828c2.32715 1.99219 40.8975 29.0557 41.3145 29.3467c12.9961 9.09766 33.4033 44.9795 37.0117 54.7266c-0.015625 1.3418 0.015625 2.93945 0.0517578 4.80371c0.324219 17.166 1.0332 57.4531 -28.1826 97.9688
c-2.51367 3.48535 -4.73633 4.0752 -11.833 13.4238c-22.1689 29.2021 -61.041 68.6631 -120.114 36.1553c-2.11621 -1.16406 -8.36328 -7.76074 -15.5977 -12.8252c-5.83691 -4.08594 -13.3887 -8.16211 -22.7363 -8.04688
c-14.6797 0.180664 -26.0781 5.66309 -34.4219 11.5039c-9.77832 6.84473 -15.4082 14.0918 -18.8906 16.5283c-13.3564 9.35059 -34.208 6.93066 -64.4443 -10.8584c-9.08691 -5.3457 -15.1504 -25.7021 -26.8311 -34.4775
c-7.28223 -5.4707 -39.2158 -54.9883 -46.8643 -84.1914c-1.76562 -6.74219 -1.72656 -11.8447 -0.688477 -13.75l9.97852 -18.3213l-5.48535 4.24902c1.99023 -4.50293 22.3486 -49.6279 45.6289 -65.0957c19.2578 -12.7969 32.4756 -20.7051 40.5254 -24.9639
c-7.7207 8.95703 -21.1289 19.6738 -21.3154 19.8857c-8.40332 9.58496 3.25781 21.7969 48.5303 26.0723c23.5635 2.22461 50.0869 1.44531 64.9004 -5.39844c1.62793 -0.751953 2.91797 -1.40527 3.9209 -1.9375c29.5869 17.9424 81.3887 5.00488 89.7617 -13.9561
l14.3408 -32.4727zM517.02 319.847c-9.89453 1.50293 -27.498 7.49902 -35.6855 13.2305c-10.4863 7.33984 -20.6475 21.6865 -25.7588 35.6396c-3.88477 10.6045 -4.87207 10.8789 -7.64062 11.6475c-1.65625 0.459961 -91.3643 27.625 -126.935 87.6357
c-8.0918 13.6504 -7.77148 13.1729 -13.7441 20.6973c-0.663086 0.835938 -27.2578 34.9697 -10.8975 70.0576c21.7627 46.6758 71.1201 110.956 106.857 135.973c8.2334 5.7627 12.6885 8.88184 34.1895 8.66797c6.37891 -0.0644531 29.502 -0.520508 40.4072 -9.4043
c0.263672 -0.213867 20.9014 -16.333 27.46 -20.6611c9.08203 -5.99512 12.7031 -6.50488 22.3857 -2.76855c5.3291 2.68262 17.126 25.1572 57.8848 29.6914c15.3145 1.7041 36.2217 2.94141 49.6396 -2.79395c97.6094 -41.7217 114.751 -128.422 113.108 -170.424
c-0.205078 -5.23633 -12.8838 -38.0107 -14.2158 -44.6279c-0.863281 -4.28613 -2.68164 -3.25684 -12.9551 -15.749c-25.7109 -31.2637 -68.6006 -54.2695 -102.134 -72.2568l-0.813477 -14.8242c-0.873047 -15.9004 -4.53711 -31.9678 -21.9844 -44.1807
c-18.6309 -13.042 -52.1074 -19.6582 -79.1689 -15.5498zM427.883 453.587c0.480469 -0.708008 1.9043 -2.45605 5.34766 -4.93359c58.3262 -41.9814 24.9971 -100.734 85.8027 -113.185c9.89844 -2.02637 64.666 -3.94434 76.3799 28.707
c6.7627 18.8525 -0.142578 64.3975 -12.1367 80.1592c-11.0605 14.5342 -43.7158 19.7275 -58.5859 10.9863c0.483398 -0.441406 1.1416 -1.02441 2.00098 -1.75195c13.4238 -11.3535 11.376 -14.54 8.88965 -16.2803c-5.73145 -4.01172 -12.3975 0.654297 -30.916 13.6172
c-9.61621 6.73145 -10.3008 6.98633 -60.1494 4.5498c-8.58496 -0.419922 -14.6982 -1.21484 -16.6328 -1.86914zM73.0781 -109.736h36.2979l11.2207 34.1475l11.2207 -34.1475h36.2979l-29.335 -21.1162l11.2197 -34.1475l-29.4033 21.1162l-29.4033 -21.1162
l11.2207 34.1475zM248.506 -184.697c-5.07031 0 -9.43945 4.13379 -9.43945 9.43848v331.616c0 5.08789 4.14844 9.43945 9.47168 9.43945c0 0 93.0098 -0.375977 110.412 -0.445312l64.0713 57.9678l3.00293 -23.3945l2.20996 -40.8848l233.541 5.08984
c5.05664 0.110352 9.40332 -4.15332 9.40332 -9.43945v-95.625l56.6025 -65.9043l-43.1865 2.33887l-15.4707 2.20996l2.05469 -174.636c0.0595703 -5.0752 -4.16211 -9.43945 -9.4707 -9.43945zM645.92 -5.60449l-28.7305 -4.4209l-36.1621 4.79492l60.2217 66.0459v73.416
l-210.805 2.70898l-1.10449 -34.2559l-1.33203 -25.9687l-69.6455 58.7305l-89.3623 0.383789v-290.63l372.249 -1.59863z" />
  </g>

</svg>
