<?xml version="1.0" standalone="no"?>
<!DOCTYPE svg PUBLIC "-//W3C//DTD SVG 1.1//EN" "http://www.w3.org/Graphics/SVG/1.1/DTD/svg11.dtd" >
<svg xmlns="http://www.w3.org/2000/svg" xmlns:xlink="http://www.w3.org/1999/xlink" version="1.1" viewBox="-10 0 1010 1000">
  <g transform="matrix(1 0 0 -1 0 800)">
   <path fill="currentColor"
d="M441 350h-124l-29 74l54 -23l35 44l34 -45l53 23zM345 384l-33 14l15 -34h102l11 33l-32 -15l-31 40zM151 -155c-6 0 -12 5 -12 12v240c0 7 5 12 12 12h78l52 47c3 -27 4 -27 5 -52l164 4c6 0 12 -5 12 -12v-67l47 -55c-44 2 -43 2 -48 3l1 -121c0 -6 -5 -12 -12 -12z
M430 -124l4 98c-5 -1 -11 -1 -16 -2l-36 5l48 53v46l-142 2c0 -16 -1 -16 -3 -49l-56 48h-58v-200zM50 721h56l17 52l17 -52h56l-45 -33l17 -52l-45 32l-45 -32l17 52zM906 -144l-228 1l3 460h27v-433h173v433l25 -1v-460zM929 626l-114 -114l124 -114l-17 -13l-123 113
l-112 -113l-12 12l111 113l-109 113l14 13l110 -109l115 110zM525 531h-297v15h267v85h-267v14l295 -1zM234 387c0 -53 63 -96 141 -96s141 43 141 96s-63 95 -141 95s-141 -42 -141 -95zM220 388c0 59 69 106 155 106s155 -47 155 -106s-69 -107 -155 -107
s-155 48 -155 107z" />
  </g>

</svg>
