<?xml version="1.0" standalone="no"?>
<!DOCTYPE svg PUBLIC "-//W3C//DTD SVG 1.1//EN" "http://www.w3.org/Graphics/SVG/1.1/DTD/svg11.dtd" >
<svg xmlns="http://www.w3.org/2000/svg" xmlns:xlink="http://www.w3.org/1999/xlink" version="1.1" viewBox="-10 0 1011 1000">
  <g transform="matrix(1 0 0 -1 0 800)">
   <path fill="currentColor"
d="M271 608l-12 60c128.725 89.7881 355.203 55.3633 442.457 48.5605c0 -0.0107422 0.000976562 -0.0214844 0.000976562 -0.0322266c27.4463 0.582031 75.1855 -1.32129 107.268 -33.4033c40.1396 -40.1396 38.6152 -108.841 37.5254 -169.365
c-0.395508 -21.9258 -0.433594 -33.2402 -0.22168 -41.9463c26.3789 -43.8281 72.168 -89.959 89.3252 -129.607c6.95117 -16.0635 5.49219 -24.7637 2.64551 -40.2051l-12 -14l-79.501 -63.5771v-212.431c1.93945 -31.0869 1.82422 -79.2412 -27.416 -108.48
c-26.0322 -26.0322 -182.507 -12.0195 -220.584 -13.0049l-2.90137 0.0126953c-103.732 -7.2998 -296.108 50.6025 -326.603 92.1719c-18.5059 25.2275 -31.4014 41.2529 -57.9951 55.3086v70.0371c25.8174 -16.2627 49.624 -17.8066 70.1904 -60.6357
c44.2188 -92.082 349.455 -105.734 451.309 -108.438l-0.499023 -0.962891c50 12 34.1514 4.48145 42.5352 13.5361c19.1768 20.7119 3.97852 41.9688 5.50781 57.9648h-0.541992v2.14941c-0.253906 0.990234 -0.500977 1.94141 -0.738281 2.84863h0.738281v207.174v3.4873
v1.33887h1.58203l104 88h1.13281c4.9834 45.8955 -62.8379 92.1289 -94.2158 139.501l-3 4l-1 1c-2.02051 3.99219 0.0439453 4.02539 -2.08398 11.5605c-0.0371094 0.130859 -0.189453 0.24707 -0.174805 0.367188l0.258789 2.07227l0.0644531 1.49902
c0.00976562 0.226562 0.150391 3.89551 0.242188 6.24414c3.11426 79.1523 14.1973 176.389 -74.8154 176.771c-136.35 16.7461 -373.536 9.53418 -431.49 -46.5137zM30.3545 728.521h55.5146l17.1611 52.2256l17.1602 -52.2256h55.5156l-44.8672 -32.2959l17.1611 -52.2246
l-44.9697 32.2959l-44.9707 -32.2959l17.1611 52.2246zM446.479 553.437l-43.04 -37.2285l41.4463 -36.5645l10.5176 11.126l-21.2139 17.8574l148.35 -1.00684l0.807617 15.3613l-149.281 0.402344l22.375 18.7305zM644.106 607.323l43.04 -37.2285l-41.4463 -36.5645
l-10.5176 11.126l21.2139 17.8584l-150.149 -1.30664l-0.807617 15.3613l151.081 0.702148l-22.375 18.7295zM712.333 255.899l-130.333 -143.072v-28.8271c0 -2.17871 -2.05469 -3.59961 -3.59961 -3.59961h-9.97559c-2.17871 0 -3.59961 2.05469 -3.59961 3.59961v28.8271
l-130.333 143.072c-1.25977 1.38379 -1.19824 3.55273 0.0175781 4.86816l7.08301 7.66406c1.55566 1.68359 4.16211 1.23535 5.30566 -0.0185547l117.926 -129.454v112.826l-77.166 84.8164c-1.25977 1.38477 -1.19336 3.55371 0.0185547 4.86621l7.08105 7.66504
c1.55469 1.68359 4.16113 1.23828 5.30566 -0.0175781l64.7607 -71.0918v134.477c0 2.17871 2.05566 3.59961 3.60059 3.59961h9.97461c2.17969 0 3.60059 -2.05469 3.60059 -3.59961v-136.776l65.5586 71.9668c1.53711 1.6875 4.14746 1.29004 5.32227 0l7.08203 -7.77441
c1.26465 -1.3877 1.17773 -3.55566 0 -4.84863l-76.5088 -83.9863c-0.401367 -0.441406 -1.2334 -0.884766 -1.4541 -0.96875v-111.153l117.927 129.453c1.54395 1.69434 4.15332 1.26465 5.30469 0.0185547l7.08398 -7.66309
c1.26953 -1.37402 1.22363 -3.54297 0.0175781 -4.86816z" />
  </g>

</svg>
