<?xml version="1.0" standalone="no"?>
<!DOCTYPE svg PUBLIC "-//W3C//DTD SVG 1.1//EN" "http://www.w3.org/Graphics/SVG/1.1/DTD/svg11.dtd" >
<svg xmlns="http://www.w3.org/2000/svg" xmlns:xlink="http://www.w3.org/1999/xlink" version="1.1" viewBox="-10 0 1212 1000">
  <g transform="matrix(1 0 0 -1 0 800)">
   <path fill="currentColor"
d="M860.038 391.378c0 1.64746 -1.65625 6.16309 -3.07812 8.01074c-1.96777 1.45996 -6.69629 3.14453 -8.50098 3.14453c-6.52637 0 -11.1973 -4.5293 -15.4258 -8.75879c-1.82422 -1.82324 -4.21875 -2.7373 -6.61328 -2.7373
c-3.85938 0 -5.98828 2.11328 -7.72266 3.84668c-0.359375 0.360352 -6.51172 5.75879 -10.1289 6.95215c-1.65039 0.544922 -2.72949 0.691406 -4.0625 0.691406c-1.7207 0 -6.25684 -1.55957 -8.40234 -3.08105c-0.914062 -1.44336 -0.945312 -1.54785 -3.125 -9.04199
c0.179688 -2.78906 1.49805 -8.48145 7.7832 -14.5439l25.6787 -24.7705l25.4971 24.541c2.75781 2.7627 8.10059 8.19141 8.10059 15.7471zM793.438 444.651c0.331055 -5.87598 0.129883 -13.6318 -0.382812 -22.4785c8.3584 2.95703 20.1133 3.7002 33.2305 -5.48828
c8.93262 6.34766 15.252 7.45703 22.0957 7.5918c9.40332 0 19.5283 -4.99316 23.8311 -9.47168c9.23828 -9.61035 17.5312 -32.5947 -5.21289 -54.8047c-26.8867 -26.2549 -30.0928 -29.1973 -31.0068 -29.998c-5.41504 -5.2002 -13.8799 -5.21582 -19.3457 0.078125
l-29.0439 28.127c-0.994141 -11.5137 -1.7793 -22.2061 -2.00977 -30.8262c-0.09375 -3.49023 -0.353516 -19.1523 2.48047 -20.668c0.324219 -0.113281 0.477539 -0.291016 0.523438 -0.789062c9.20898 -98.9971 55.2441 -136.381 60.4434 -138.286
c0.169922 -0.0625 -0.322266 0.0136719 -0.322266 0.0136719l-0.488281 -0.25293l-0.264648 -0.597656l1.55371 -0.866211l-17.5117 -11.6748c-1.94922 2.12402 -2.88672 3.14648 -7.35742 7.98633c-35.5156 38.4502 -26.7725 25.0547 -56.873 127.167
c-8.31836 -48.3086 0.951172 -46.1299 -25.917 -80.252c-17.3301 -22.0088 -23.2012 -37.5156 -39.0713 -55.1484l-20.71 16.3955c12.2129 15.832 20.0449 26.5664 30.8691 41.5049c6.09961 8.41992 -27.3486 -38.9678 -21.3418 -31.0771
c73.5107 96.5615 75.71 223.811 75.1611 288.473l21.3789 -0.47168c1.89844 -0.0400391 5.125 -0.957031 5.00879 -6.74414c-0.0341797 -1.67676 -0.182617 -9.16406 0.282227 -17.4414h0.000976562zM313 747.492l2 -736.492h-258.492l-2 44.4912h214.001v649.508h-219.501
v42.4932h263.992zM1098.52 451.369c0 0.0986328 0.28125 5.93652 0.28125 9.78906c0 33.3184 -20.0498 83.7852 -42.9824 108.243c-25.4688 22.6982 -77.2441 42.5088 -111.142 42.5088c-6.44629 0 -32.4238 -0.604492 -52.4629 -7.42773
c-11.5342 -3.80078 -31.5645 -13.416 -41.7373 -20.0527c-21.9736 -14.3965 -41.8252 -28.8223 -63.8076 -51.7793c-12.0566 -12.0566 -12.2637 -12.2656 -17.4336 -12.2656c-5.48047 0 -7.86133 2.69141 -17.6631 12.4932
c-6.53516 6.53516 -55.6953 54.0938 -104.964 70.3535c-19.1729 6.32715 -35.3135 8.62402 -51.8291 8.62402c-34.1865 0 -86.2559 -20.0898 -111.82 -43.1221c-16.5195 -18.0225 -30.3135 -66.1924 -37.5752 -92.708
c-1.90723 -6.96484 -3.32324 -12.2725 -4.55566 -15.7461c0.0869141 -16.3545 2.06934 -36.123 8.51074 -56.4521c3.73828 -11.7988 12.6729 -32.0654 18.8643 -42.792c3.03516 -5.21875 27.2988 -42.7402 53.7969 -68.0352
c248.225 -236.954 247.016 -238.277 247.379 -238.437c0.244141 0.102539 1.11719 -0.788086 246.281 236.901c56.9268 55.1914 82.8594 110.127 82.8594 159.904zM803.271 17.9746c-35.1094 -30.3555 -64.4053 -4.46777 -68.7139 -0.294922l-245.854 238.081
c-10.2939 8.64844 -39.415 40.2051 -40.2695 47.3164c-13.4688 17.9785 -20.6299 27.4736 -23.7295 32.8301c-8.27051 14.292 -18.2041 36.7598 -23.1992 52.5049c-4.53906 14.0449 -9.91211 38.0234 -9.91211 73.1357c0 60.8984 38.1328 125.526 57.1826 142.82
c34.7627 31.5605 97.4219 55.7705 144.412 55.7705c43.7119 0 89.9551 -7.79297 160.234 -64.0195c6.45898 -5.16699 10.7598 -8.81934 14.6475 -12.2988c12.8613 11.4316 25.3154 21.1553 54.1582 40.71c14.2031 9.33594 36.7002 20.2637 52.8594 25.6797
c8.85547 3.16211 34.0732 10.9014 68.9775 10.9014c60.583 0 126.188 -36.7656 145.031 -56.3711c31.5801 -32.8604 57.7656 -94.3955 57.7656 -144.02c0.00195313 -34.8809 -0.745117 -110.18 -97.9629 -205.11c-225.787 -220.471 -242.981 -235.35 -245.627 -237.636z" />
  </g>

</svg>
