<?xml version="1.0" standalone="no"?>
<!DOCTYPE svg PUBLIC "-//W3C//DTD SVG 1.1//EN" "http://www.w3.org/Graphics/SVG/1.1/DTD/svg11.dtd" >
<svg xmlns="http://www.w3.org/2000/svg" xmlns:xlink="http://www.w3.org/1999/xlink" version="1.1" viewBox="-10 0 877 1000">
  <g transform="matrix(1 0 0 -1 0 800)">
   <path fill="currentColor"
d="M649.177 263.219c1.2627 -22.4336 -7.74219 -81.3936 -5.23047 -95.668c0.770508 -0.875977 1.56445 -2.23145 1.72852 -3.98535c5.23145 -56.2568 51.2754 -111.696 69.0869 -129.507c3.60547 -3.60547 3.60547 -3.60547 14.0586 -11.6914
c-1.22754 -0.802734 -1.22754 -0.802734 -19.9932 -13.3145c-2.84668 -1.90039 -6.69922 -1.45703 -9.03418 1.08984c-30.0791 32.7197 -53.7002 58.416 -74.6094 118.096c-9.44629 -29.4131 -26.6836 -58.2959 -42.6045 -78.5156
c-11.126 -14.1289 -19.8799 -31.4688 -28.2031 -39.793c-2.53711 -2.53711 -6.54395 -2.71484 -9.28906 -0.542969c-14.1436 11.1963 -14.1436 11.1963 -14.4336 11.4873c-2.5166 2.51562 -2.71289 6.47656 -0.598633 9.21973
c7.94727 10.3027 34.1816 46.1582 34.5322 46.6201c50.7832 66.708 53.252 155.368 52.8457 203.106c-0.0341797 3.9502 3.20312 7.14551 7.1543 7.05664c18.7012 -0.416016 18.7012 -0.416016 21.4033 -3.11816c2.02734 -2.02734 3.06055 -5.03613 2.99219 -8.46777
c-0.0234375 -1.15625 -0.125977 -6.3916 0.194336 -12.0723zM346.598 263.496c1.2627 -22.4336 -7.74219 -81.3936 -5.23047 -95.668c0.770508 -0.875977 1.56445 -2.23145 1.72852 -3.98535c5.23145 -56.2568 51.2754 -111.696 69.0869 -129.507
c3.60547 -3.60547 3.60547 -3.60547 14.0586 -11.6914c-1.22754 -0.802734 -1.22754 -0.802734 -19.9932 -13.3145c-2.84668 -1.90039 -6.69922 -1.45703 -9.03418 1.08984c-30.0791 32.7197 -53.7002 58.416 -74.6094 118.096
c-9.44629 -29.4131 -26.6836 -58.2959 -42.6045 -78.5156c-11.126 -14.1289 -19.8799 -31.4688 -28.2031 -39.793c-2.53711 -2.53711 -6.54395 -2.71484 -9.28906 -0.542969c-14.1436 11.1963 -14.1436 11.1963 -14.4336 11.4873
c-2.5166 2.51562 -2.71289 6.47656 -0.598633 9.21973c7.94727 10.3027 34.1816 46.1582 34.5322 46.6201c50.7832 66.708 53.252 155.368 52.8457 203.106c-0.0341797 3.9502 3.20312 7.14551 7.1543 7.05664c18.7012 -0.416016 18.7012 -0.416016 21.4033 -3.11816
c2.02734 -2.02734 3.06055 -5.03613 2.99219 -8.46777c-0.0234375 -1.15625 -0.125977 -6.3916 0.194336 -12.0723zM51.3545 703.521h55.5146l17.1611 52.2256l17.1602 -52.2256h55.5156l-44.8672 -32.2959l17.1611 -52.2246l-44.9697 32.2959l-44.9707 -32.2959
l17.1611 52.2246zM767.485 535.253c0.206055 -27.8818 -34.1436 -43.6768 -54.8965 -22.9248c-3.62402 3.625 -6.13379 7.66797 -7.65625 11.8721l-141.684 -1.04688l3.875 -93.9805c-0.737305 -0.191406 -1.85059 -0.480469 -3.25684 -0.746094l0.0234375 -0.09375
l-5.78906 -1.50195l-0.24707 0.945312c-1.45996 -0.0361328 -3.02637 0.0166016 -4.66797 0.207031c0.0361328 -0.387695 -5.86035 0.421875 -8.37402 0.277344l-3.55957 -1.81348c0.364258 6.89844 0.364258 6.89844 0.506836 8.52246l-3.75977 88.0303l-131.802 0.795898
c-7.88574 -19.917 -35.1475 -28.4922 -52.6914 -10.9492c-20.583 20.584 -5.19238 54.6836 22.46 54.8877c12.6523 0.0927734 23.8242 -7.39453 29.1426 -18.1504c1.14844 -0.385742 1.53711 -0.489258 1.64453 -0.420898l130.964 0.413086l-0.930664 126.236
c-3.62891 1.55176 -7.11328 3.86816 -10.2803 7.03418c-20.583 20.584 -5.19238 54.6836 22.46 54.8877c17.584 0.128906 32.3066 -14.3818 32.4365 -31.9629c0.102539 -13.8496 -8.32129 -24.7168 -19.3701 -29.6045l0.933594 -126.415l144.445 1.06543
c5.33691 9.42285 15.2588 16.3066 27.6367 16.3984c17.584 0.128906 32.3066 -14.3818 32.4365 -31.9629zM537.403 402.271c0.206055 -27.8818 -34.1436 -43.6768 -54.8965 -22.9248c-20.583 20.584 -5.19238 54.6836 22.46 54.8877
c17.584 0.128906 32.3066 -14.3818 32.4365 -31.9629zM632.403 396.271c0.206055 -27.8818 -34.1436 -43.6768 -54.8965 -22.9248c-20.583 20.584 -5.19238 54.6836 22.46 54.8877c17.584 0.128906 32.3066 -14.3818 32.4365 -31.9629z" />
  </g>

</svg>
