<?xml version="1.0" standalone="no"?>
<!DOCTYPE svg PUBLIC "-//W3C//DTD SVG 1.1//EN" "http://www.w3.org/Graphics/SVG/1.1/DTD/svg11.dtd" >
<svg xmlns="http://www.w3.org/2000/svg" xmlns:xlink="http://www.w3.org/1999/xlink" version="1.1" viewBox="-10 0 1037 1000">
  <g transform="matrix(1 0 0 -1 0 800)">
   <path fill="currentColor"
d="M419 722l39 1l539 1v-36l-201 -1l-7 -143l-327 148l-12 8c-3 0 -28 22 -31 22zM590 507v-25v-12c3 0 5 1 8 1c8 0 18 -3 28 -9c11 7 19 9 28 9c14 0 28 -7 35 -14s14 -20 14 -35c0 -13 -5 -29 -20 -44c-34 -33 -38 -37 -40 -38c-5 -4 -11 -7 -17 -7s-11 2 -16 7l-28 27
c-1 -19 -2 -27 -2 -28c0 -5 0 -17 1 -20c1 -1 3 -2 3 -5c11 -117 116 -229 134 -243c0 0 3 -1 4 -4l6 -3l-35 -24c-4 5 -9 9 -13 14c-43 46 -90 99 -128 215c-15 -57 -48 -115 -79 -154c-26 -32 -25 -43 -54 -75l-36 28c16 21 23 30 43 58c8 11 15 21 23 31
c87 115 95 265 95 351v21c11 0 23 -1 34 -1c7 0 12 -5 12 -14v-7zM655 431c-11 0 -15 -15 -29 -15c-7 0 -12 5 -14 7c0 0 -8 6 -10 7s-3 1 -4 1c0 0 -4 -1 -6 -2c0 -1 -1 -3 -2 -8v1v-1c0 -3 2 -8 8 -14l28 -28l29 28c4 4 8 9 8 16c0 0 -1 3 -2 5h1h-1c-2 1 -5 3 -6 3z
M245 269h13c0 -9 1 -17 1 -26c50 2 94 22 127 55c12 12 23 25 31 40l-21 11l-2 -4l-128 60c-4 -2 -9 -3 -14 -3c-16 0 -29 13 -29 29c0 12 7 23 18 27v136h3v25c-26 -1 -98 -11 -147 -82c7 -4 15 -8 22 -12l-7 -13c-7 4 -16 9 -23 13c-16 -28 -24 -60 -24 -94
c0 -33 8 -65 23 -92c8 4 16 10 24 14l7 -13c-8 -4 -15 -9 -23 -13c33 -49 88 -82 150 -84c0 9 -1 17 -1 26zM459 431c0 -114 -92 -206 -206 -206s-206 92 -206 206c0 113 92 205 205 206v0c114 0 207 -92 207 -206zM259 619v-25h2l5 -137c8 -4 14 -13 15 -22l126 -69l-4 -6
l20 -10c12 25 19 52 19 81c0 35 -10 68 -27 96c-7 -5 -15 -8 -22 -13l-6 11c7 4 14 9 21 13c-15 21 -62 78 -149 81z" />
  </g>

</svg>
