<?xml version="1.0" standalone="no"?>
<!DOCTYPE svg PUBLIC "-//W3C//DTD SVG 1.1//EN" "http://www.w3.org/Graphics/SVG/1.1/DTD/svg11.dtd" >
<svg xmlns="http://www.w3.org/2000/svg" xmlns:xlink="http://www.w3.org/1999/xlink" version="1.1" viewBox="-10 0 1042 1000">
  <g transform="matrix(1 0 0 -1 0 800)">
   <path fill="currentColor"
d="M53.3545 -98.4795h55.5146l17.1611 52.2256l17.1602 -52.2256h55.5156l-44.8672 -32.2959l17.1611 -52.2246l-44.9697 32.2959l-44.9707 -32.2959l17.1611 52.2246zM950 146c3 0 4 -2 4 -5v-21l17 -19l-17 1v-31c2 -4 -1 -10 -4 -10h-95c-3 0 -5 2 -5 5v76c0 3 2 4 5 4
h24l18 16c1 -11 2 -10 2 -17zM942 73l1 28h-4l-13 2l16 18v13h-43c0 -5 1 -5 0 -16l-20 16h-16v-61h79zM801 89c0 -28 10 -54 29 -73c16 -16 47 -29 70 -29c5 0 11 1 20 3c47 9 85 54 85 102c0 9 -2 22 -4 30c-5 19 -24 47 -25 49c-7 10 -8 13 -11 18c-17 29 -33 59 -50 88
c-5 10 -6 12 -10 14c-4 0 -6 0 -8 -2c-1 -1 -2 -2 -4 -6c-1 -3 -33 -61 -49 -87c-3 -5 -19 -30 -29 -50c-9 -19 -14 -38 -14 -57zM900 1c-18 0 -45 10 -60 25c-16 16 -25 38 -25 62c0 17 4 34 12 51c7 15 16 31 25 45c8 13 8 13 46 79c0 0 0 -1 4 7l51 -88c2 -4 4 -6 11 -18
c7 -10 16 -26 21 -37v-1v0c5 -12 7 -26 7 -34c0 -42 -33 -83 -74 -90c-9 -2 -16 -1 -18 -1zM962 645v-98h-242v-21l273 -1l-2 139l-271 2v-21h242zM420 171c-14 9 -30 19 -37 24s-15 10 -18 12l-5 4l-15 42l-14 43l5 48c3 26 5 47 5 48s19 10 41 21l40 20l11 1
c6 1 17 2 26 3c32 3 24 5 58 -11l30 -14l22 -36c12 -20 -3 -60 -3 -61s53 -40 45 -66s-26 -57 -29 -66s-25 -7 -26 -9c-1 -3 -1 -1 -43 4c-13 2 -26 -6 -31 -8c-16 -8 -35 -16 -36 -16c0 0 -12 8 -26 17z" />
  </g>

</svg>
