<?xml version="1.0" standalone="no"?>
<!DOCTYPE svg PUBLIC "-//W3C//DTD SVG 1.1//EN" "http://www.w3.org/Graphics/SVG/1.1/DTD/svg11.dtd" >
<svg xmlns="http://www.w3.org/2000/svg" xmlns:xlink="http://www.w3.org/1999/xlink" version="1.1" viewBox="-10 0 1089 1000">
  <g transform="matrix(1 0 0 -1 0 800)">
   <path fill="currentColor"
d="M828.399 483.872c0 9.49878 0.360099 25.4826 0.360099 28.905l-0.318652 61.3747l-8.69455 54.78l-24.0577 41.7601l-29.8355 19.1251l-33.9409 8.02542l-47.9505 1.85133v0.765382l-107.704 8.96128l-161.614 -4.8437l-135.511 -48.0118l4.97421 -24.8711
l90.1513 34.2037l168.519 13.9909l163.859 -8.05849l72.0585 -32.0852l24.6852 -76.5829c-11.2968 -92.7231 -11.5388 -94.7093 -10.6225 -98.1968c0.272553 -1.03738 0.408327 -1.98777 0.495372 -2.92219c0.487753 -0.641757 1.13403 -1.58506 1.4862 -2.05622
l30.4464 -40.7334l38.0432 -60.0682l23.93 -33.502l-96.7113 -80.2498l-3.19974 -219.288c0.962733 -7.56244 2.78458 -22.0112 5.01798 -45.877c-0.12894 -0.269919 -9.65147 -20.9678 -12.8349 -27.02c-1.80565 -3.43278 -3.36365 -6.39475 -8.94453 -11.1259
c-28.726 -6.87192 -37.6748 -9.01268 -53.7943 -9.01268c-3.38415 0 -6.77838 0.14333 -10.1737 0.446144l-127.95 -3.2205l-189.706 31.9736l-119.91 72.0259l-21.8729 31.5454c-0.18608 0.126152 -14.9542 10.3475 -18.5829 12.6523v-31.4635
c5.41685 -3.87145 13.5068 -7.36272 24.4398 -17.2503c7.32645 -6.62591 2.09556 -4.45645 10.6241 -11.9264c1.03002 -0.902171 1.03002 -0.902171 17.2005 -21.8062l70.2643 -41.1391l123.979 -35.7692l40.8353 -3.74581
c52.8258 -4.90757 59.0669 -6.73248 83.0467 -7.42728l68.08 -1.97257l89.7606 0.254271l51.1066 12.4914l15.1376 25.2075l6.27671 34.16l-0.268638 82.9487l0.0291888 84.2282l-0.00582149 87.5189l84.7837 67.8016l7.68593 8.96692l1.11464 7.19504
c0.44913 7.61262 -1.52476 12.8022 -3.31214 18.1783l-23.3304 38.8443l-33.0243 43.448l-34.3179 48.9016c-0.202711 16.1296 -0.202711 16.1296 -0.202711 17.6951zM33.2949 712.521h55.5146l17.1611 52.2256l17.1602 -52.2256h55.5156l-44.8672 -32.2959
l17.1611 -52.2246l-44.9697 32.2959l-44.9707 -32.2959l17.1611 52.2246zM517.377 549.686c0 4.28027 -0.0800781 7.45605 -0.0800781 7.53125c0.0830078 1.62402 0.501953 3.02441 0.649414 3.17578c0 0.132812 0 0.132812 25.4336 0.693359
c-0.0244141 -3.71582 -0.0380859 -7.55078 -0.0380859 -11.499c0 -99.2764 9.14746 -269.569 109.525 -401.424c13.8008 -18.1279 42.1289 -58.1621 66.4297 -89.8164l-20.8008 -16.4678c-18.3721 21.8047 -27.5449 46.9111 -52.4961 75.1211
c-44.1348 49.8994 -87.2002 128.677 -93.1943 198.068l-2.21289 25.6123l-6.61719 -24.8389c-15.3486 -57.6201 -47.4189 -71.7559 -71.0039 -82.1064c-15.7637 -6.91797 -28.4307 -12.4766 -28.4307 -28.6191c0 -13.7627 3.21484 -24.3213 77.207 -113.527
c2.09961 -2.53223 3.84473 -4.6377 5.09863 -6.16211l-11.1797 -13.5498c-15.3076 22.8486 -93.0264 73.9639 -93.0264 127.238c0 48.6934 70.3535 49.5049 101.82 128.17c1.19922 3 3.83887 7.58203 3.83887 28.2314c0 41.3945 -11.6348 124.457 -11.6348 166.818
c0 9.77148 0.711914 12.6621 0.711914 27.3506zM517.296 557.286c0 -0.0146484 0.000976562 -0.0380859 0.000976562 -0.0693359c0.000976562 0.0371094 -0.000976562 0.0693359 -0.000976562 0.0693359zM543.38 561.086zM719.297 58.3467l3.4834 2.75781
l-0.776367 -6.27637c-0.914062 1.18457 -1.81641 2.35742 -2.70703 3.51855zM698.496 41.8789c0.901367 -1.07031 1.8252 -2.13184 2.77441 -3.18652l-6.1377 0.524414zM526.847 85.4268zM516.65 527.071z" />
  </g>

</svg>
