<?xml version="1.0" standalone="no"?>
<!DOCTYPE svg PUBLIC "-//W3C//DTD SVG 1.1//EN" "http://www.w3.org/Graphics/SVG/1.1/DTD/svg11.dtd" >
<svg xmlns="http://www.w3.org/2000/svg" xmlns:xlink="http://www.w3.org/1999/xlink" version="1.1" viewBox="-10 0 1012 1000">
  <g transform="matrix(1 0 0 -1 0 800)">
   <path fill="currentColor"
d="M325.05 71.626l-82.2217 148.848l24.0225 10.1475l58.4395 -100.383l53.3027 101.418l27.2285 -11.0254zM242.137 -93.7744v34.6641h38.626v22.0713h-38.626v34.6641h38.626v33.7148h31.3828v-33.7148h23.2197v31.2539h31.3828v-31.2539h41.292v-34.6641h-41.292
v-22.0713h41.292v-34.6641h-41.292v-36.1855h-31.3828v36.1855h-23.2197v-33.7246h-31.3828v33.7246h-38.626zM312.146 -59.1104h23.2197v22.0713h-23.2197v-22.0713zM757.228 197.837c-0.529297 0 -0.985352 0.173828 -1.32227 0.358398l-214.094 -88.2627v-37.8242
c12.126 5.10742 24.251 10.2148 36.376 15.3213v-3.77051l-0.21875 -161.659h318.305l0.646484 155.446c10.9619 -6.48535 21.9238 -12.9697 32.8867 -19.4551l-0.677734 40.7051l-136.33 79.1182l1.46387 0.616211c-22.6963 11.7715 -24.457 12.7314 -36.2109 19.5508
c-0.288086 -0.102539 -0.56543 -0.144531 -0.824219 -0.144531zM861.162 -42.7822h-248.003l-0.665039 144.662l142.009 59.8174l107.859 -63.8086zM39.9229 -49.5469h55.5146l17.1611 52.2256l17.1602 -52.2256h55.5156l-44.8672 -32.2959l17.1611 -52.2246
l-44.9697 32.2959l-44.9707 -32.2959l17.1611 52.2246zM809.773 397l25.5 10l-4.72656 -75l-16.2734 -42h-26l17 46zM628.153 413.709c9.37402 0.130859 18.7471 1.6875 28.1201 4.79102l19 -71.5l-10 -71l-16 -6l5.33496 73zM603.273 418
c5.15332 -1.99219 10.248 -4.03027 18 -4c0.416992 -49.7803 3.16602 -90.7783 1 -130h-17zM841.273 412l21.0234 19.9385l28.9766 -141.938h-25zM802.123 571.056v0c24.7549 -57.8096 -21.4922 -68.0371 -41.6455 -76.6309l-1.8457 0.740234
c36.5869 21.7451 50.8223 30.0889 43.4912 75.8906zM637.968 595.888v0c62.4424 -7.4668 48.1758 -52.6309 45.542 -74.3818l-1.56445 -1.22852c-0.538086 42.5586 -0.646484 59.0586 -43.9775 75.6104zM628.854 431.562c-38.8799 0 -70.4297 34.2588 -70.4297 71.0273
c0 18.0273 11.001 40.1748 18.4785 47.8174c1.98242 2.07227 2.98145 4.7207 2.98145 7.36621c0 2.63672 -0.992188 5.27148 -2.99316 7.3291c-9.78027 9.79102 -17.7178 28.9609 -17.7305 42.6826c0 1.02246 2.15527 17.4189 3.84473 21.1709
c8.71582 20.0195 33.4678 36.6416 55.2617 37.1641l0.152344 0.00390625l0.152344 -0.00585938c19.1523 -0.674805 44.0225 -14.9756 53.5898 -36.707c1.57324 -3.27832 5.42578 -6.16211 9.79395 -6.16211c2.99316 0 4.83691 1.21777 6.12598 2.07031
c11.6152 7.67773 32.3809 13.9443 46.2646 13.9443c1.0625 0 2.84668 -0.046875 3.40527 -0.0615234c0.0332031 0 0.0605469 -0.000976563 0.0830078 -0.000976563c4.42285 0.0253906 8.45605 3.25293 9.8584 6.79492c9.97656 24.1914 39.3887 43.8486 65.4912 43.8486
c-0.467773 0.21582 -0.6875 0.353516 -0.6875 0.418945c0 0.0283203 0.0439453 0.0429688 0.129883 0.0429688c2.33789 0 35.5244 -10.5596 46.79 -21.8262c4.26172 -4.26172 16.6934 -17.9385 19.8369 -35.2949c1.12402 -5.66211 6.04688 -8.58496 10.0059 -8.71094
c36.4473 -0.978516 66.0381 -31.376 66.0381 -67.834c0 -0.49707 -0.606445 -28.3896 -18.4014 -46.1846c-10.6152 -10.6152 -23.3457 -16.1816 -24.2715 -16.5469c-9.7168 -3.83105 -21.2021 -5.29395 -26.6172 -5.29395h-0.115234
c-8.33203 0.186523 -15.002 4.34668 -24.4512 4.34668c-4.74512 0 -7.43359 -1.27344 -8.88281 -2.72266c-0.175781 -0.19043 -0.924805 -1.03809 -3.85547 -4.36523c2.08594 -4.8125 5.00781 -11.5566 5.00781 -20.4121c0 -12.834 -7.54883 -24.8301 -7.92773 -24.8887
c-1.90527 -2.63672 -4.18359 -5.22559 -6.68359 -7.72559c-7.38867 -7.38867 -16.6416 -14.0127 -24.377 -17.1426c-18.4863 -7.47852 -34.3047 -7.58105 -35.5791 -7.58105c-13.1631 0 -30.2051 4.99219 -31.2158 5.78711
c-15.7988 6.55664 -34.752 25.0918 -41.4082 43.3672c-1.17578 3.0459 -4.45898 6.17871 -8.17969 6.91113c-0.899414 0.0556641 -1.91016 0.0722656 -2.98633 0.0722656c-0.0966797 0 -5.4834 -0.762695 -8.49707 -4.44922
c-15.4668 -18.9102 -41.9795 -28.25 -58.002 -28.25zM748.361 413.733l-0.046875 0.0205078zM576.805 550.302v0zM542.961 501.308c0 -47.624 41.7617 -87.5986 85.1924 -87.5986c32.5459 0 57.8193 20.085 61.9268 23.5918l4.45508 3.80469
c5.19727 -8.14648 8.58203 -13.4521 16.9824 -21.8516c9.29492 -9.29492 20.6533 -17.5176 31.1074 -21.6406c9.6875 -3.77832 25.4805 -6.74707 35.8789 -6.74707c13.3418 0 27.7148 3.09961 43.5234 9.20312c14.2246 5.49023 32.0215 19.7891 40.2695 31.8691
c4.23438 6.20117 9.00391 21.8047 9.00391 32.9531c0 0.80957 0 0.80957 -0.320312 8.08594c8.55176 -1.72656 11.6719 -2.35742 15.3145 -2.35742c4.26074 0 20.5967 2.07715 32.2871 7.05957c12.7461 5.18652 28.9238 18.0898 36.6289 28.748
c9.00195 12.5752 -0.152344 -7.25 -0.152344 8.21777c0 11.2021 12.4121 69.873 7.48828 79.9307c-8.44434 17.2529 -35.7676 41.1592 -65.0859 45.8115l-3.12891 0.496094c-2.28613 7.37305 -7.11133 22.9316 -23.7686 39.5889
c-9.45996 9.45996 -30.1084 26.208 -57.7354 26.208c-35.665 0 -66.166 -26.1094 -77.7578 -48.167l-1.33594 -2.54297c-11.2578 -0.680664 -28.2568 -3.2373 -45.1328 -11.5527l-4.01074 -1.97656c-4.10352 6.13477 -6.22168 9.30176 -11.4824 14.5615
c-14.1084 14.1084 -35.1729 24.792 -54.1787 25.4102c-0.233398 0.00390625 -0.467773 0.00585937 -0.703125 0.00585937c-23.0312 0 -58.0742 -18.7881 -69.8223 -48.8018c-2.78711 -7.49023 -4.66699 -25.8057 -4.91602 -27.1855
c0 -14.7334 6.91797 -34.7275 16.3057 -47.4912l2.15527 -2.93066l-2.07422 -2.99023c-9.70703 -13.9922 -16.9141 -35.8496 -16.9141 -51.7119zM430.492 455.604zM144.235 648.186zM90.7773 549.771zM299.064 421.099zM298.689 409.147zM139.545 453.586zM231.293 424.723z
M481.553 572.023zM90.7773 549.771zM481.553 572.023zM354.795 698.373c-20.1797 0 -37.2627 -7.84863 -45.9277 -16.5137c-3.29688 -3.29688 -2.45508 -3.46875 -3.81836 -3.96484c-6.12598 -2.23438 -12.1289 -3.04297 -17.6074 -3.04297
c-5.17188 0 -14.5703 0.763672 -24.7461 5.33594c-6.91406 8.41602 -18.6074 16.0762 -38.2686 16.0762c-29.5166 0 -63.1758 -18.2695 -74.8818 -45.6426l-0.578125 -1.35254h-2.03613l-53.3291 -72.46h-2.55176v-3.46582
c-0.345703 -0.469727 -0.691406 -0.938477 -1.03711 -1.40918h0.557617l-5.90625 -22.1484l-0.664062 0.00976562c-0.119141 -2.26758 -0.333008 -3.57031 -1.04883 -6.38867h0.859375c-0.0205078 -2.50391 -0.0205078 -2.50391 -0.0205078 -2.75879
c0 -16.1924 6.9873 -48.9619 53.5596 -87.4795c49.1855 -40.6826 104.811 -45.168 150.924 -45.168c75.582 0 106.396 9.47168 151.623 45.2109c55.25 43.6562 56.1816 56.5117 57.7012 88.4209l-1.54688 0.0244141c-0.09375 0.355469 -6.87988 28.0469 -9.28711 35.501
l-39.4873 67.4766c-4.4502 4.64551 -4.4502 4.64551 -4.89844 5.41406h-0.292969c-13.8838 14.209 -42.9873 40.7988 -71.4033 46.6904c-5.4375 1.12793 -10.7627 1.63477 -15.8867 1.63477zM223.656 678.857c4.24805 0 13.6895 0 24.4541 -7.4082l-0.0830078 -1.02734
c0.621094 -0.253906 1.61719 -0.72168 2.58398 -1.64062c9.12109 -8.66699 23.1387 -12.7363 36.4473 -12.7363c12.3975 0 24.1797 3.53027 30.8125 10.1641c1.29004 1.29102 3.375 3.37402 4.98438 8.22656c6.83496 4.66406 17.6924 9.75391 32.5107 9.75391
c19.665 0 28.8584 -8.56445 35.9092 -15.1289c5.47852 -5.10254 12.6934 -11.8379 28.21 -22.1055c0.592773 -0.128906 1.0791 -0.414062 1.46973 -0.855469l0.34082 0.0136719l44.376 -69.9941c0 -0.119141 -0.00292969 -0.239258 -0.00292969 -0.359375
c3.18262 -11.9238 6.08887 -24.125 9.15332 -36.167c1.07129 -4.28027 1.67383 -8.24707 1.67383 -12.0879c0 -18.4277 -13.71 -33.3574 -53.2031 -65.6309c-36.3926 -29.7363 -62.7461 -39.9375 -142.168 -39.9375c-42.9961 0 -77.6543 5.28223 -118.131 33.6152
c-49.8955 34.9277 -56.6045 60.6494 -56.6045 83.5547c0 1.51074 0.0283203 2.99902 0.0703125 4.46387c2.49023 9.88086 5.19434 19.5469 7.76465 29.3457l48.627 68.8457c0.69043 -0.265625 1.37891 -0.532227 2.06836 -0.796875
c1.63867 3.85742 4.42773 10.4297 11.9961 17.998c12.1963 12.1963 30.248 19.8945 46.7402 19.8945z" />
  </g>

</svg>
