<?xml version="1.0" standalone="no"?>
<!DOCTYPE svg PUBLIC "-//W3C//DTD SVG 1.1//EN" "http://www.w3.org/Graphics/SVG/1.1/DTD/svg11.dtd" >
<svg xmlns="http://www.w3.org/2000/svg" xmlns:xlink="http://www.w3.org/1999/xlink" version="1.1" viewBox="-10 0 1020 1000">
  <g transform="matrix(1 0 0 -1 0 800)">
   <path fill="currentColor"
d="M30.3242 741.553h55.5146l17.1611 52.2256l17.1602 -52.2256h55.5156l-44.8672 -32.2959l17.1611 -52.2246l-44.9697 32.2959l-44.9707 -32.2959l17.1611 52.2246zM271 608l-12 60c128.725 89.7881 355.203 55.3633 442.457 48.5605
c0 -0.0107422 0.000976562 -0.0214844 0.000976562 -0.0322266c27.4463 0.582031 75.1855 -1.32129 107.268 -33.4033c40.1396 -40.1396 38.6152 -108.841 37.5254 -169.365c-0.395508 -21.9258 -0.433594 -33.2402 -0.22168 -41.9463
c26.3789 -43.8281 72.168 -89.959 89.3252 -129.607c6.95117 -16.0635 5.49219 -24.7637 2.64551 -40.2051l-12 -14l-79.501 -63.5771v-212.431c1.93945 -31.0869 1.82422 -79.2412 -27.416 -108.48c-26.0322 -26.0322 -182.507 -12.0195 -220.584 -13.0049
l-2.90137 0.0126953c-103.732 -7.2998 -296.108 50.6025 -326.603 92.1719c-18.5059 25.2275 -31.4014 41.2529 -57.9951 55.3086v70.0371c25.8174 -16.2627 49.624 -17.8066 70.1904 -60.6357c44.2188 -92.082 349.455 -105.734 451.309 -108.438l-0.499023 -0.962891
c50 12 34.1514 4.48145 42.5352 13.5361c19.1768 20.7119 3.97852 41.9688 5.50781 57.9648h-0.541992v2.14941c-0.253906 0.990234 -0.500977 1.94141 -0.738281 2.84863h0.738281v207.174v3.4873v1.33887h1.58203l104 88h1.13281
c4.9834 45.8955 -62.8379 92.1289 -94.2158 139.501l-3 4l-1 1c-2.02051 3.99219 0.0439453 4.02539 -2.08398 11.5605c-0.0371094 0.130859 -0.189453 0.24707 -0.174805 0.367188l0.258789 2.07227l0.0644531 1.49902
c0.00976562 0.226562 0.150391 3.89551 0.242188 6.24414c3.11426 79.1523 5.19727 173.389 -83.8154 173.771c-136.35 16.7461 -373.536 9.53418 -431.49 -46.5137zM393.404 150.82c40.207 0.140625 80.4131 0.140625 120.619 0
c2.64551 0.0517578 5.28906 0.103516 7.93066 0.161133c9.74316 -0.150391 17.7773 4.4541 23.3613 14.248c5.03125 8.82422 7.6084 20.1191 6.53809 25.3877c-0.486328 2.4541 -4.19531 13.4502 -5.40918 18.2812c-4.60352 18.2734 -9.11035 36.5859 -13.5234 54.9346
c-2.62109 10.5605 -5.5127 20.998 -8.66797 31.3135c-3.29004 10.6426 -7.25 20.8643 -11.875 30.6641c-4.0791 8.4248 -9.00488 16.0264 -14.7812 22.8086c-9.87793 11.0322 -21.4639 17.2803 -34.7588 18.7451c-9.07227 1.08984 -17.9717 0.00683594 -26.7002 -3.25098
c-7.99219 -3.25488 -15.0986 -8.3457 -21.3232 -15.2783c-5.64844 -6.49609 -10.458 -13.8096 -14.4326 -21.9385c-3.60742 -7.39355 -6.7832 -15.0859 -9.53418 -23.0811c-2.74121 -8 -5.22559 -16.125 -7.45605 -24.3799
c-1.66992 -6.22949 -3.28809 -12.4775 -4.85352 -18.7451c-3.15234 -13.0859 -6.33105 -26.1592 -9.53516 -39.2246c-1.63086 -5.9668 -3.18945 -11.9629 -4.68066 -17.9863c-0.874023 -3.6875 -1.65625 -7.41016 -2.34082 -11.1611
c-1.83984 -13.292 1.26855 -24.3984 9.31836 -33.3184c2.70312 -2.8291 5.73535 -4.95801 9.10156 -6.39355c1.84473 -0.655273 3.72363 -1.08789 5.63672 -1.30078c2.46582 -0.244141 4.91895 -0.40918 7.36621 -0.485352v0zM393.404 161.764
c-1.98047 0.0839844 -3.97656 0.210938 -5.98145 0.379883c-1.43652 0.135742 -2.85059 0.423828 -4.24707 0.864258c-2.48535 1.10156 -4.70801 2.72852 -6.67578 4.87598c-5.30469 6.20996 -7.25488 13.7773 -5.84863 22.7012
c0.743164 3.89746 1.5791 7.76172 2.5127 11.5928c1.71094 6.41406 3.38672 12.8438 5.02734 19.2881c3.13672 12.9727 6.28516 25.9375 9.44922 38.8984c1.54883 6.16797 3.16602 12.3076 4.85352 18.4219c3.02344 11.0156 6.60742 21.7432 10.749 32.1777
c3.09277 7.66895 6.79199 14.8223 11.0928 21.4561c11.9395 17.7939 27.2393 25.8662 45.9004 24.2158c12.6611 -0.873047 23.5547 -6.72656 32.6816 -17.5518c5.01953 -6.27344 9.31055 -13.2275 12.8711 -20.8584c3.94043 -8.63379 7.35059 -17.5898 10.2285 -26.874
c2.95508 -9.6377 5.67188 -19.3896 8.14844 -29.2549c3.26172 -13.2793 6.5 -26.5723 9.70703 -39.8711c1.21484 -4.76758 2.42773 -9.53516 3.6416 -14.3047c1.33594 -5.41016 2.5498 -10.8633 3.6416 -16.3613c0.539062 -2.55957 0.771484 -5.1582 0.694336 -7.7998
c-0.801758 -8.30957 -4.05273 -14.6113 -9.75293 -18.9092c-1.84375 -1.39258 -3.83691 -2.22559 -5.98242 -2.49219c-3.05273 -0.405273 -6.11328 -0.583008 -9.18848 -0.541016c-41.1738 -0.0537109 -82.3486 -0.0742188 -123.522 -0.0537109v0zM571.6 473.8
l-0.599609 9.60059l141 0.599609l-0.299805 -10.2002h-140.101zM572.2 431.8l-0.600586 10.7998l140.7 -0.599609v-10.2002h-140.1zM634.3 259.6c-6.59961 4.2002 -15 9.60059 -18.2998 11.7002c-3.2998 2.10059 -7.2002 4.7998 -8.7002 5.7002l-2.39941 1.5
l-6.90039 20.7002l-6.90039 20.7002l2.40039 22.5c1.2002 12.5996 2.40039 23.0996 2.7002 23.3994c0.299805 0.299805 9 4.7998 19.5 9.90039l19.5 9.59961l4.7998 0.600586c2.7002 0.299805 8.40039 0.899414 12.5996 1.19922
c15.3008 1.80078 12 2.40039 28.2002 -5.09961l14.1006 -6.59961l10.7998 -17.4004c6 -9.59961 -1.7998 -28.7998 -1.7998 -29.4004c0 -0.599609 25.5 -19.5 21.5996 -31.7998c-3.90039 -12.2998 -12.5996 -27 -14.0996 -31.5s-12 -3.59961 -12.3008 -4.5
c-0.599609 -1.2002 -0.599609 -0.599609 -20.6992 2.10059c-6 0.899414 -12.6006 -2.7002 -14.7002 -3.60059c-7.7998 -3.59961 -16.7998 -7.7998 -17.1006 -7.7998c-0.299805 0 -5.69922 3.90039 -12.2998 8.09961zM467.849 480.663l1.64062 3.02148
c-0.669922 -0.0917969 -1.98047 -0.15918 -3.62012 0.560547zM462.649 465.265l-66.5303 120.443c-1.83008 3.30566 0.109375 7.24414 2.91016 8.42871l7.67969 3.24414c2.91992 1.2334 6.21973 -0.270508 7.51953 -2.50879l54.0703 -92.8721l49.2002 93.6064
c1.45996 2.77637 4.91016 3.8418 7.55957 2.76855l10.3809 -4.2041c3.48926 -1.41113 4.50977 -5.67676 3.0293 -8.4209l-65.29 -120.444c-1.64941 -3.03223 -5.64941 -4.05078 -8.54004 -2.17383c-0.839844 0.540039 -1.7998 1.78125 -1.98926 2.13281z" />
  </g>

</svg>
