<?xml version="1.0" standalone="no"?>
<!DOCTYPE svg PUBLIC "-//W3C//DTD SVG 1.1//EN" "http://www.w3.org/Graphics/SVG/1.1/DTD/svg11.dtd" >
<svg xmlns="http://www.w3.org/2000/svg" xmlns:xlink="http://www.w3.org/1999/xlink" version="1.1" viewBox="-10 0 1051 1000">
  <g transform="matrix(1 0 0 -1 0 800)">
   <path fill="currentColor"
d="M271 608l-12 60c128.725 89.7881 355.203 55.3633 442.457 48.5605c0 -0.0107422 0.000976562 -0.0214844 0.000976562 -0.0322266c27.4463 0.582031 75.1855 -1.32129 107.268 -33.4033c40.1396 -40.1396 38.6152 -108.841 37.5254 -169.365
c-0.395508 -21.9258 -0.433594 -33.2402 -0.22168 -41.9463c26.3789 -43.8281 72.168 -89.959 89.3252 -129.607c6.95117 -16.0635 5.49219 -24.7637 2.64551 -40.2051l-12 -14l-79.501 -63.5771v-212.431c1.93945 -31.0869 1.82422 -79.2412 -27.416 -108.48
c-26.0322 -26.0322 -182.507 -12.0195 -220.584 -13.0049l-2.90137 0.0126953c-103.732 -7.2998 -296.108 50.6025 -326.603 92.1719c-18.5059 25.2275 -31.4014 41.2529 -57.9951 55.3086v70.0371c25.8174 -16.2627 49.624 -17.8066 70.1904 -60.6357
c44.2188 -92.082 349.455 -105.734 451.309 -108.438l-0.499023 -0.962891c50 12 34.1514 4.48145 42.5352 13.5361c19.1768 20.7119 3.97852 41.9688 5.50781 57.9648h-0.541992v2.14941c-0.253906 0.990234 -0.500977 1.94141 -0.738281 2.84863h0.738281v207.174v3.4873
v1.33887h1.58203l104 88h1.13281c4.9834 45.8955 -62.8379 92.1289 -94.2158 139.501l-3 4l-1 1c-2.02051 3.99219 0.0439453 4.02539 -2.08398 11.5605c-0.0371094 0.130859 -0.189453 0.24707 -0.174805 0.367188l0.258789 2.07227l0.0644531 1.49902
c0.00976562 0.226562 0.150391 3.89551 0.242188 6.24414c3.11426 79.1523 14.1973 176.389 -74.8154 176.771c-136.35 16.7461 -373.536 9.53418 -431.49 -46.5137zM30.3545 728.521h55.5146l17.1611 52.2256l17.1602 -52.2256h55.5156l-44.8672 -32.2959l17.1611 -52.2246
l-44.9697 32.2959l-44.9707 -32.2959l17.1611 52.2246zM553.777 254.111zM653.777 331.889l0.222656 -144.889l-102.444 55.5557c-7.33789 -27.2236 -36.1758 -49.3174 -64.3701 -49.3174c-28.8535 0 -57.8574 22.7412 -64.7422 50.7617l-102 -56.333v143.555
l102.112 -55.7773c7.11914 27.6123 36.0391 50.0225 64.5547 50.0225s57.4365 -22.4102 64.5557 -50.0225zM487.11 204.667h0.00585938c30.2402 0 55.127 24.54 55.5498 54.7773c-0.00292969 30.2344 -24.543 54.7725 -54.7773 54.7725
c-30.2373 0 -54.7783 -24.541 -54.7783 -54.7783c0 -29.8105 24.1924 -54.3486 54 -54.7715zM331.556 206.444l88.8877 49.4443v3.66699v4.77734l-88.8877 48.334v-106.223zM642.666 205.667v107.222l-88.8887 -49.333v-4.22266v-5.33301zM551.777 464.111zM651.777 541.889
l0.222656 -144.889l-102.444 55.5557c-7.33789 -27.2236 -36.1758 -49.3174 -64.3701 -49.3174c-28.8535 0 -57.8574 22.7412 -64.7422 50.7617l-102 -56.333v143.555l102.112 -55.7773c7.11914 27.6123 36.0391 50.0225 64.5547 50.0225s57.4365 -22.4102 64.5557 -50.0225
zM485.11 414.667h0.00585938c30.2402 0 55.127 24.54 55.5498 54.7773c-0.00292969 30.2344 -24.543 54.7725 -54.7773 54.7725c-30.2373 0 -54.7783 -24.541 -54.7783 -54.7783c0 -29.8105 24.1924 -54.3486 54 -54.7715zM329.556 416.444l88.8877 49.4443v3.66699v4.77734
l-88.8877 48.334v-106.223zM640.666 415.667v107.222l-88.8887 -49.333v-4.22266v-5.33301z" />
  </g>

</svg>
