<?xml version="1.0" standalone="no"?>
<!DOCTYPE svg PUBLIC "-//W3C//DTD SVG 1.1//EN" "http://www.w3.org/Graphics/SVG/1.1/DTD/svg11.dtd" >
<svg xmlns="http://www.w3.org/2000/svg" xmlns:xlink="http://www.w3.org/1999/xlink" version="1.1" viewBox="-10 0 1008 1000">
  <g transform="matrix(1 0 0 -1 0 800)">
   <path fill="currentColor"
d="M42.9785 733.875l37.1855 54.043c2.29688 3.33887 7.27148 3.3457 9.66016 0.306641l45.2246 -57.542c2.13184 -2.71191 1.47949 -6.79004 -1.39062 -8.70117c-0.647461 -0.431641 -1.41797 -0.742188 -2.13965 -0.887695l-7.70508 -1.55469
c-2.23438 -0.451172 -4.58496 0.49707 -5.90234 2.1709l-24.293 30.8799l1.17285 -123.925c0.0332031 -3.49121 -3.05371 -6.21973 -6.31543 -6.04785l-7.37012 0.388672c-3.27148 0.172852 -5.69727 3.08789 -5.68359 6.01953l0.578125 122.085l-19.7881 -28.707
c-1.95703 -2.83887 -6.04492 -3.42676 -8.72168 -1.25195c-0.40918 0.331055 -1.05176 1.10156 -1.0918 1.15723l-3.35059 4.66504c-1.54785 2.15625 -1.26758 5.16016 -0.0693359 6.90137zM496 753.612c112.973 0 204.983 -74.998 204.983 -167.281
c0 -92.2832 -92.0107 -167.417 -204.983 -167.417s-204.983 74.998 -204.983 167.281s92.0107 167.417 204.983 167.417zM496 432.525c105.486 0 191.372 68.8721 191.372 153.67c0 84.7969 -85.8857 153.805 -191.372 153.805s-191.372 -68.8721 -191.372 -153.669
c0 -84.7979 85.8857 -153.806 191.372 -153.806zM399.225 578.028l-13.6104 -3.13086c26.8105 -109.233 191.829 -104.562 220.908 0l-13.6113 3.81152c-25.9629 -91.8184 -168.919 -96.0527 -193.687 -0.680664zM816.949 0.0273438h-125.086l-0.337891 68.8389
l71.5527 28.1943l54.4805 -30.1504zM676.931 -13.9512h154.923l0.324219 72.7715c5.40527 -2.99219 10.8096 -5.9834 16.2148 -8.97461l-0.286133 16.1084l-68.9609 37.4385l0.582031 0.230469c-8.58496 4.1748 -10.4834 5.15234 -15.6211 7.93457l-105.056 -40.5088
v-14.9795c5.99707 2.36328 11.9932 4.72559 17.9893 7.08887zM572.414 3.17871h-64.1143l1.58105 149.12l-18.126 -0.663086c-1.27832 -55.6064 -2.3623 -111.214 -3.25586 -166.822l100.971 0.853516v164.441l-17.0557 0.231445v-147.161zM303.024 -53.0312h45.0322
v16.5459h-45.0322v37.8174h45.0322v16.5449h-45.0322v32.3057h-16.3057v-32.3057h-47.3516v29.9473h-16.3057v-29.9473h-48.1396v-16.5449h48.1396v-37.8174h-48.1396v-16.5459h48.1396v-34.6738h16.3057v34.6738h47.3516v-32.3154h16.3057v32.3154zM183.334 211.942
l79.9219 -121.18l81.4453 121.18l-10.5117 3.64355l-71.749 -103.243l-67.8018 103.243zM239.367 1.33203h47.3516v-37.8174h-47.3516v37.8174z" />
  </g>

</svg>
