<?xml version="1.0" standalone="no"?>
<!DOCTYPE svg PUBLIC "-//W3C//DTD SVG 1.1//EN" "http://www.w3.org/Graphics/SVG/1.1/DTD/svg11.dtd" >
<svg xmlns="http://www.w3.org/2000/svg" xmlns:xlink="http://www.w3.org/1999/xlink" version="1.1" viewBox="-10 0 1046 1000">
  <g transform="matrix(1 0 0 -1 0 800)">
   <path fill="currentColor"
d="M30.3242 741.553h55.5146l17.1611 52.2256l17.1602 -52.2256h55.5156l-44.8672 -32.2959l17.1611 -52.2246l-44.9697 32.2959l-44.9707 -32.2959l17.1611 52.2246zM804 631c0 -96.6865 68.0879 -173.199 99.375 -191.775l11.1992 -6.64941
c-16.9434 -0.478516 1.18945 0.900391 -34.5742 -3.5752l-1.0752 1.36426c-22.0068 27.9238 -93.998 110.011 -106.903 207.233c-0.657227 4.95117 0.0224609 9.79688 0.582031 18.2783c-1.38379 0.708984 -2.88672 1.4873 -4.52246 2.34082
c-0.0283203 -1.83984 -0.322266 -3.81641 -0.0449219 -5.88867c33.3789 -249.661 97.5459 -216.742 97.5459 -216.742s6.91211 -4.29004 10.2793 -6.58594h-32.8613c-44.1455 16.1279 -101.697 151.17 -101.697 222.331c0 8.73535 0.302734 15.3135 0.785156 20.6846
c-60.6641 32.3369 -181.179 64.7012 -284.885 64.7012c-23.0527 0 -45.5234 -2.04883 -73.3945 -6.17773c-32.3232 -4.78906 -32.3232 -4.78906 -70.6152 -21.2002c-18.916 -8.10645 -50.2139 -47.4062 -58.166 -66.7188
c-7.02734 -17.0664 -9.0791 -30.2676 -9.0791 -45.8906c0 -22.332 3.62891 -44.376 3.62891 -77.1553c0 -8.99219 1.14648 -13.8564 1.14648 -20.1924c0 -4.57031 -0.613281 -9.64551 -2.73242 -16.6025c-19.9492 -65.4795 -40.3174 -87.0479 -63.832 -110.183
c-6.25977 -6.16016 -27.0508 -26.6172 -27.0508 -37.7881c0 -4.45605 0.882812 -6.9082 38.3447 -19.4531c55.9199 -18.7266 60.0254 -24.4102 60.0254 -90.9766c0 -43.0117 2.70801 -110.013 2.70801 -151.731c0 -5.5 0.0820312 -11.3867 0.267578 -17.7666
c0.50293 -17.292 16.4512 -45.3398 23.8975 -57.5352c1.19629 -0.303711 1.95996 -1.18164 1.95996 -1.18164c1.1543 -0.666992 2.48438 -1.60059 4.13477 -2.74414c16.0508 -11.1162 22.0049 -13.1846 40.8428 -13.1846c24.0361 0 22.3457 4.21484 79.0615 4.21484
c0.316406 0 6.94531 -0.00390625 7.01562 -0.00390625c14.7988 0 25.668 0.226562 52.1025 3.80078c20.2021 2.73242 38.8271 4.61572 56.5088 6.4043c120.938 12.2334 201.711 24.1475 280.178 80.1953c2.23438 1.5957 5.14355 3.85352 8.45703 6.42773
c12.6104 9.7959 33.0303 26.8994 48.1416 26.8994c8.16699 0 13.834 -4.95996 13.834 -14.165c0 -15.4473 -17.4082 -42.8486 -33.0938 -42.8486c-1.16406 0 -1.56543 0.129883 -3.01758 0.129883c-22.6426 0 -44.3604 -36.5264 -79.4766 -51.29
c-52.8857 -22.2344 -138.298 -27.127 -175.459 -33.71c-17.2549 -3.05664 -36.6504 -6.49316 -61.8809 -12.2393c-34.7246 -7.90918 -51.6299 -8.61133 -86.7539 -8.61133c-0.251953 0 -22.7891 0.03125 -25.0811 0.03125c-11.3115 0 -32.6182 -0.123047 -32.9473 -0.123047
c-40.7773 0 -82.5049 2.86621 -120.91 24.8125c-26.0957 14.9121 -27.9092 36.1035 -30.0449 61.0586c-0.477539 5.59082 -0.976562 11.3994 -1.75781 17.3906c-1.96484 15.7158 -2.63672 29.7119 -2.63672 42.8916c0 28.6572 -4.27441 100.664 -4.27441 131.409
c0 46.4277 -4.59863 49 -29.7539 58.8145c-27.3184 10.6582 -57.2148 13.2568 -70.834 26.876c-4.33008 4.33008 -6.66504 9.68945 -6.66504 16.1094c0 4.7959 1.30371 10.1846 4.05176 16.1768c36.4951 79.5967 68.6367 70.0742 91.3711 139.761
c5.20312 15.9443 6.93652 32.2529 6.93652 48.6797c0 32.5635 -6.77832 65.1611 -6.77832 95.8125c0 47.6494 17.2412 68.3838 35.0508 86.1934c66.2422 66.2412 143.674 66.3555 238.901 66.3555h0.988281c82.8154 0 190.135 -23.3467 246.021 -49.8477
c43.5547 -20.6533 21.8506 -15.7109 32.4561 -16.8408c11.3984 -1.2168 39 -13 47.5039 -30.4053c4.31641 -8.83496 -4.12305 -21.668 -4.50391 -29.5947c-0.257812 -5.36523 2 -14.3428 2 -20zM441.171 64.0908c40.207 0.140625 80.4131 0.140625 120.619 0
c2.64551 0.0507812 5.28906 0.103516 7.93164 0.161133c9.74219 -0.150391 17.7773 4.4541 23.3613 14.248c5.03027 8.82422 7.60742 20.1191 6.53711 25.3877c-0.486328 2.4541 -4.19531 13.4502 -5.40918 18.2812c-4.60254 18.2734 -9.11035 36.5869 -13.5234 54.9346
c-2.62109 10.5605 -5.5127 20.998 -8.66797 31.3135c-3.29004 10.6426 -7.24902 20.8643 -11.875 30.665c-4.0791 8.42383 -9.00488 16.0254 -14.7803 22.8076c-9.87891 11.0322 -21.4648 17.2803 -34.7598 18.7451c-9.07227 1.08984 -17.9717 0.0078125 -26.6992 -3.25
c-7.99316 -3.25586 -15.0996 -8.34668 -21.3242 -15.2793c-5.64844 -6.49609 -10.458 -13.8096 -14.4326 -21.9385c-3.60742 -7.39355 -6.7832 -15.0859 -9.53418 -23.0811c-2.74121 -8 -5.22559 -16.125 -7.45605 -24.3799
c-1.66992 -6.22949 -3.28809 -12.4775 -4.85352 -18.7451c-3.15234 -13.0859 -6.33105 -26.1592 -9.53516 -39.2246c-1.63086 -5.9668 -3.18945 -11.9629 -4.68066 -17.9863c-0.874023 -3.6875 -1.65625 -7.41016 -2.34082 -11.1611
c-1.83984 -13.292 1.26855 -24.3984 9.31836 -33.3184c2.70312 -2.8291 5.73535 -4.95801 9.10156 -6.39453c1.84473 -0.654297 3.72363 -1.08691 5.63672 -1.2998c2.46582 -0.244141 4.91895 -0.40918 7.36621 -0.485352v0zM441.171 75.0342
c-1.98047 0.0839844 -3.97656 0.210938 -5.98145 0.379883c-1.43652 0.135742 -2.85059 0.423828 -4.24707 0.864258c-2.48535 1.10156 -4.70801 2.72852 -6.67578 4.87598c-5.30469 6.20996 -7.25488 13.7773 -5.84863 22.7012
c0.743164 3.89746 1.5791 7.76172 2.5127 11.5928c1.71094 6.41406 3.38672 12.8438 5.02734 19.2881c3.13672 12.9727 6.28516 25.9375 9.44922 38.8984c1.54883 6.16797 3.16602 12.3086 4.85352 18.4219c3.02344 11.0156 6.60742 21.7432 10.749 32.1777
c3.09277 7.66992 6.79199 14.8223 11.0928 21.457c11.9395 17.793 27.2402 25.8652 45.9004 24.2148c12.6611 -0.873047 23.5547 -6.72656 32.6816 -17.5518c5.01953 -6.27344 9.31055 -13.2275 12.8711 -20.8584c3.94043 -8.63281 7.35059 -17.5898 10.2285 -26.873
c2.95508 -9.63867 5.67188 -19.3906 8.14844 -29.2559c3.26172 -13.2793 6.5 -26.5723 9.70703 -39.8711c1.21484 -4.76758 2.42773 -9.53516 3.6416 -14.3047c1.33594 -5.41016 2.5498 -10.8633 3.6416 -16.3613c0.539062 -2.55957 0.771484 -5.1582 0.694336 -7.7998
c-0.801758 -8.30957 -4.05176 -14.6113 -9.75293 -18.9092c-1.84375 -1.39258 -3.83691 -2.22559 -5.98242 -2.49219c-3.05273 -0.405273 -6.11328 -0.583008 -9.1875 -0.541992c-41.1738 -0.0527344 -82.3496 -0.0732422 -123.523 -0.0527344v0zM416.2 639
l-0.799805 12.7998l188 0.799805l-0.400391 -13.5996h-186.8zM417 583l-0.799805 14.3994l187.601 -0.799805v-13.5996h-186.801zM499.801 353.399c-8.80078 5.60059 -20 12.7998 -24.4004 15.6006c-4.40039 2.7998 -9.59961 6.39941 -11.5996 7.59961l-3.2002 2
l-9.2002 27.5996l-9.2002 27.6006l3.2002 30c1.59961 16.7998 3.2002 30.7998 3.59961 31.2002c0.400391 0.399414 12 6.39941 26 13.1992l26 12.8008l6.40039 0.799805c3.59961 0.399414 11.2002 1.2002 16.7998 1.59961c20.4004 2.40039 16 3.2002 37.6006 -6.7998
l18.7998 -8.7998l14.3994 -23.2002c8 -12.7998 -2.39941 -38.4004 -2.39941 -39.2002c0 -0.799805 34 -26 28.7998 -42.3994c-5.2002 -16.4004 -16.7998 -36 -18.7998 -42s-16 -4.80078 -16.4004 -6c-0.799805 -1.60059 -0.799805 -0.800781 -27.5996 2.7998
c-8 1.2002 -16.7998 -3.60059 -19.6006 -4.7998c-10.3994 -4.80078 -22.3994 -10.4004 -22.7998 -10.4004c-0.399414 0 -7.59961 5.2002 -16.3994 10.7998z" />
  </g>

</svg>
