<?xml version="1.0" standalone="no"?>
<!DOCTYPE svg PUBLIC "-//W3C//DTD SVG 1.1//EN" "http://www.w3.org/Graphics/SVG/1.1/DTD/svg11.dtd" >
<svg xmlns="http://www.w3.org/2000/svg" xmlns:xlink="http://www.w3.org/1999/xlink" version="1.1" viewBox="-10 0 845 1000">
  <g transform="matrix(1 0 0 -1 0 800)">
   <path fill="currentColor"
d="M346.049 351.193l24.3965 0.400391l341.454 0.820312v-22.5449l-127.358 -0.96875l-1.52051 -79.5322l-209.797 83.167l-7.70703 4.86719c-2.12402 0 -17.3447 13.791 -19.4678 13.791zM450.668 199.467c-0.141602 4.39844 -0.402344 13.6016 -0.402344 15.4805
c0 2.42578 0.0419922 3.89648 0.0419922 4.19824c0 2 -0.556641 5.16602 -4.06543 5.24023l-17.3428 0.382812c0.0302734 -3.79297 0.0439453 -6.05176 0.0439453 -9.39062c0 -54.668 -4.75 -150.711 -61.0137 -224.619
c-0.401367 -0.527344 -28.8711 -39.4834 -39.4248 -53.1953l16.7803 -13.2832c15.9199 18.252 16.0449 24.8184 31.7148 44.7197c19.2354 24.4277 40.3652 60.7773 49.6689 95.9473l3.29785 12.4678l3.99219 -12.2637c23.7656 -73.0107 53.2002 -104.938 80.377 -134.361
l5.96777 -6.47852l14.1699 9.49121c-0.216797 0.827148 -0.501953 1.58496 -1.21289 1.91895c-11.208 8.8291 -79.5518 80.4541 -86.6553 156.55c-0.0244141 0.358398 -0.0244141 0.358398 -1.15137 1.25781c-0.773438 2.70996 -1.29492 4.61133 -1.29492 14.8877
c0 5.41113 0.712891 14.6758 1.60449 26.2617c7.86621 -7.61719 15.7324 -15.2354 23.5986 -22.8525c2.22754 -2.1582 5.06641 -3.21777 7.88867 -3.21777c1.38477 0 4.22754 0 7.85938 3.20215c0.266602 0.235352 18.7227 17.9062 25.5576 24.7402
c8.70703 8.70801 11.3584 17.2412 11.3584 24.4297c0 8.94336 -4.2627 16.252 -7.78125 19.7695c-3.54883 3.5498 -11.4814 7.47461 -19.1025 7.4873c-8.61426 -0.173828 -12.6152 -2.70117 -17.9551 -6.07422c-4.39453 2.69531 -9.70703 5.9541 -17.7842 5.9541
c-2.18555 0 -2.25293 0 -9.11719 -1.14551c0.304688 7.2334 0.381836 9.05273 0.381836 12.4951zM477.29 161.274c6.7959 0 8.76172 9.32617 17.877 9.32617h0.295898c3.55371 -0.552734 6.53711 -2.50488 6.59473 -2.54688l-2.9043 -4.48926l3.57324 3.3916
c0.694336 -1.39746 1.20801 -2.91699 1.83496 -4.7793v-0.626953c0 -6.16992 -4.25977 -10.4531 -6.59961 -12.7998c-6.88574 -6.62695 -13.7695 -13.2539 -20.6553 -19.8809c-21.0195 20.2764 -21.0195 20.2764 -21.2041 20.46
c-1.83691 1.83789 -5.60254 6.20605 -5.94141 11.4307l4.17676 0.359375l-3.96875 0.353516c1.32129 4.54688 1.32129 4.54688 2.13086 6.6416c2.75781 1.30762 3.18066 1.47852 6.4375 2.48047h0.575195c3.3291 0 5.09082 -1.29785 7.7832 -3.28027
c1.7666 -1.30078 3.2959 -2.42676 3.86133 -3.05176c1.34668 -1.33789 3.16113 -2.98828 6.13281 -2.98828zM464.415 684.967l127.585 -230.967l125.229 231.023l-25.0703 10.1543l-99.0908 -188.533l-108.715 186.746zM224.108 630.109h115.445v-25.1084h-115.445v-236.777
h-25.1074v236.777h-115.445v25.1084h115.445v87.8887h25.1074v-87.8887z" />
  </g>

</svg>
