<?xml version="1.0" standalone="no"?>
<!DOCTYPE svg PUBLIC "-//W3C//DTD SVG 1.1//EN" "http://www.w3.org/Graphics/SVG/1.1/DTD/svg11.dtd" >
<svg xmlns="http://www.w3.org/2000/svg" xmlns:xlink="http://www.w3.org/1999/xlink" version="1.1" viewBox="-10 0 1009 1000">
  <g transform="matrix(1 0 0 -1 0 800)">
   <path fill="currentColor"
d="M765.869 689.119c1.96973 -34.9863 -14.6562 -134.644 -4.87598 -139.874c9.60156 -103.228 109.544 -199.677 109.671 -195.955l-16.9355 -11.29c-38.1006 41.5576 -80.6133 82.6855 -113.009 195.295c-7.21191 -49.584 -38.1836 -105.119 -66.0117 -140.46
c-16.9326 -21.5039 -24.1924 -38.707 -38.708 -54.835l-19.3535 15.3213c21.7734 28.2246 33.9951 46.416 48.3848 65.3184c73.4727 96.5127 76.5459 223.229 75.9766 290.36c6.83691 -0.150391 13.6738 -0.300781 20.5107 -0.452148
c3.84668 -0.0830078 4.00293 -3.82227 4.07031 -5.41797c0.0078125 -0.180664 -0.25 -8.58105 0.280273 -18.0107zM35.5039 695.016h42.7031l13.2012 40.1738l13.2002 -40.1738h42.7041l-34.5127 -24.8428l13.2002 -40.1729l-34.5918 24.8428l-34.5928 -24.8428
l13.2012 40.1729zM286.308 469.346l61.6924 -55.3457l102.85 129.247l-16.2207 11.2646l-86.5742 -106.253l-47.1533 36.1377zM323.753 611.407l-42.6484 -40.2207l9.22266 -11.4482l43.2295 40.9619l46.7979 -38.5518l11.5947 9.78223l-46.6592 39.8057l43.9375 44.3721
l-11.873 9.45312l-43.75 -41.8496l-42.0869 41.8477l-10.0391 -10.1777zM391.2 -49.0166v243.974l3.37695 1.74609c22.5684 11.665 102.61 42.6084 191.777 -46.5547c4.99316 -4.99219 6.16699 -6.23242 17.7969 -19.1084c10.3516 11.4727 12.7227 14.1006 18.75 20.1279
c46.6328 46.6328 89.8613 60.7041 124.021 60.9395c27.2627 0.1875 48.3057 -8.34668 60.5273 -15.1758l3.2002 -1.78809v-241.94c-12.2881 4.77539 -32.9395 12.8018 -54.6279 13.8516c-33.1182 1.90723 -88.6934 -7.50391 -150.743 -70.7354l-4.42676 -4.51172
c-19.3408 19.4062 -70.6582 70.8984 -147.363 70.8984c-15.2461 0 -37.29 -3.78613 -54.1426 -9.13672zM376.294 207.206l3.15723 1.08203c-0.854492 -0.558594 -1.47461 -1.35156 -3.15723 -1.08203zM828 204.182l-0.31543 1.09961l0.31543 -1.09961v0zM828 204.182
l-3.5 2.625c-1.76562 1.3252 -101.11 71.5244 -216.054 -45.2764l-4.44629 -4.51758c-5.13184 5.19336 -5.13184 5.19336 -5.80957 5.87109c-102.514 102.514 -196.705 57.8135 -218.788 45.1475c-1.13867 -0.571289 -1.41406 -0.741211 -5.70117 -3.66406v-283.604
c13.293 8.57031 13.293 8.57031 13.5254 8.70312c6.88867 3.93652 96.8301 54.3389 195.841 -44.6719c4.93848 -4.9375 5.9082 -5.95312 17.7832 -19.1045c10.877 12.0527 13.415 14.8652 19.8408 21.291c57.8828 57.8828 109.126 66.8877 144.529 61.8574
c28.168 -4.00195 45.6807 -16.5908 48.624 -18.8281l14.1553 -11.0098v285.182zM828 -81v0v0v0zM600.851 -134.311c1.38574 -1.53516 -1.72266 1.9082 0 0l0.333984 1.0918s-2.77734 -3.79883 -0.333984 -1.0918zM373.701 -79.2373v-0.000976562v0v0.000976562z
M373.701 204.367v-0.000976562v0v0.000976562zM676.465 -11.1162zM540.151 80.5908zM514.695 33.7266zM613.881 -27.5459zM613.701 -33.2373zM537.918 -12.0762zM581.607 -25.8213zM700.778 44.3223zM514.695 33.7266zM700.778 44.3223zM640.418 104.489
c-9.60938 0 -17.7432 -3.7373 -21.8691 -7.86328c-1.57031 -1.57031 -1.16992 -1.65234 -1.81934 -1.88867c-2.91699 -1.06348 -5.77539 -1.44824 -8.38477 -1.44824c-2.46289 0 -6.9375 0.363281 -11.7832 2.54004c-3.29199 4.00781 -8.86133 7.65527 -18.2236 7.65527
c-14.0547 0 -30.083 -8.69922 -35.6572 -21.7344l-0.275391 -0.644531h-0.969727l-25.3955 -34.5049h-1.21484v-1.64941c-0.164062 -0.223633 -0.329102 -0.447266 -0.493164 -0.670898h0.265625l-2.8125 -10.5469l-0.317383 0.00488281
c-0.0566406 -1.08008 -0.158203 -1.70117 -0.499023 -3.04297h0.40918c-0.00976563 -1.19238 -0.00976563 -1.19238 -0.00976563 -1.31348c0 -7.71094 3.32715 -23.3154 25.5039 -41.6572c23.4229 -19.3721 49.9111 -21.5078 71.8691 -21.5078
c35.9912 0 50.665 4.50977 72.2012 21.5283c26.3096 20.7891 26.7529 26.9102 27.4775 42.1055l-0.736328 0.0117188c-0.0449219 0.168945 -3.27734 13.3545 -4.42285 16.9053l-18.8037 32.1318c-2.11914 2.21094 -2.11914 2.21094 -2.33301 2.57812h-0.139648
c-6.61035 6.76562 -20.4697 19.4277 -34.001 22.2334c-2.58887 0.537109 -5.125 0.77832 -7.56543 0.77832zM577.971 95.1963c2.02344 0 6.51953 0 11.6455 -3.52734l-0.0400391 -0.489258c0.295898 -0.121094 0.770508 -0.344727 1.23047 -0.782227
c4.34375 -4.12695 11.0186 -6.06445 17.3564 -6.06445c5.90332 0 11.5137 1.68066 14.6729 4.83984c0.614258 0.615234 1.60645 1.60742 2.37305 3.91797c3.25488 2.2207 8.4248 4.64355 15.4814 4.64355c9.36426 0 13.7422 -4.07812 17.0996 -7.2041
c2.6084 -2.42969 6.04395 -5.63672 13.4326 -10.5254c0.283203 -0.0615234 0.514648 -0.197266 0.700195 -0.408203l0.162109 0.00683594l21.1318 -33.3311c0 -0.0566406 -0.000976563 -0.113281 -0.000976563 -0.170898c1.51562 -5.67773 2.89941 -11.4883 4.3584 -17.2227
c0.510742 -2.03711 0.796875 -3.92676 0.796875 -5.75586c0 -8.77441 -6.52832 -15.8838 -25.335 -31.252c-17.3301 -14.1611 -29.8789 -19.0186 -67.6992 -19.0186c-20.4736 0 -36.9775 2.51562 -56.252 16.0078c-23.7598 16.6318 -26.9551 28.8799 -26.9551 39.7871
c0 0.719727 0.0136719 1.42871 0.0341797 2.12598c1.18555 4.70508 2.47266 9.30859 3.69727 13.9746l23.1562 32.7832c0.328125 -0.126953 0.65625 -0.25293 0.984375 -0.378906c0.779297 1.83594 2.10742 4.96582 5.71191 8.57031
c5.80762 5.80762 14.4043 9.47363 22.2568 9.47363zM617.765 -37.9785z" />
  </g>

</svg>
