<?xml version="1.0" standalone="no"?>
<!DOCTYPE svg PUBLIC "-//W3C//DTD SVG 1.1//EN" "http://www.w3.org/Graphics/SVG/1.1/DTD/svg11.dtd" >
<svg xmlns="http://www.w3.org/2000/svg" xmlns:xlink="http://www.w3.org/1999/xlink" version="1.1" viewBox="-10 0 1091 1000">
  <g transform="matrix(1 0 0 -1 0 800)">
   <path fill="currentColor"
d="M898.513 471.867c0 9.49902 0.360352 25.4824 0.360352 28.9053l-0.318359 61.375l-8.69434 54.7793l-24.0586 41.7607l-29.835 19.125l-33.9414 8.02539c-15.9834 0.617188 -31.9668 1.23438 -47.9502 1.85059v0.765625l-107.704 8.96191l-161.613 -4.84375
l-135.512 -48.0117l4.97461 -24.8711l90.1514 34.2031l168.52 13.9912l163.858 -8.05859l72.0586 -32.085l24.6855 -76.583c-11.2969 -92.7236 -11.5391 -94.709 -10.623 -98.1973c0.272461 -1.03711 0.408203 -1.9873 0.495117 -2.92188
c0.488281 -0.641602 1.13477 -1.58496 1.48633 -2.05664l30.4463 -40.7334l38.0439 -60.0674c7.97656 -11.168 15.9531 -22.335 23.9297 -33.502l-96.7109 -80.25l-3.2002 -219.288c0.962891 -7.5625 2.78418 -22.0117 5.01758 -45.877
c-0.128906 -0.270508 -9.65137 -20.9678 -12.835 -27.0205c-1.80566 -3.43262 -3.36328 -6.39453 -8.94434 -11.126c-28.7256 -6.87109 -37.6748 -9.0127 -53.7939 -9.0127c-3.38379 0 -6.77832 0.143555 -10.1738 0.446289l-127.95 -3.2207l-189.706 31.9736
l-119.909 72.0264c-7.29102 10.5146 -14.582 21.0303 -21.873 31.5449c-0.186523 0.126953 -14.9541 10.3477 -18.583 12.6523v-31.4629c5.41699 -3.87207 13.5068 -7.36328 24.4395 -17.251c7.32715 -6.625 2.0957 -4.45605 10.624 -11.9258
c1.03027 -0.902344 1.03027 -0.902344 17.2012 -21.8066l70.2637 -41.1387l123.979 -35.7695l40.835 -3.74512c52.8262 -4.9082 59.0674 -6.7334 83.0469 -7.42773l68.0801 -1.97266l89.7607 0.253906l51.1064 12.4922l15.1377 25.207l6.27637 34.1602l-0.268555 82.9482
l0.0292969 84.2285l-0.00585937 87.5186l84.7832 67.8018l7.68652 8.9668l1.11426 7.19531c0.449219 7.6123 -1.52441 12.8027 -3.31152 18.1787l-23.3311 38.8438l-33.0244 43.4482l-34.3174 48.9014c-0.203125 16.1299 -0.203125 16.1299 -0.203125 17.6953z
M100.438 729.548h55.5146l17.1611 52.2256l17.1602 -52.2256h55.5156l-44.8672 -32.2959l17.1611 -52.2246l-44.9697 32.2959l-44.9707 -32.2959l17.1611 52.2246zM527.981 173.54c9.31152 5.34082 48.8105 23.7598 91.0791 -19.0166
c44.9775 45.7041 85.1045 21.8076 89.7021 18.3594c0.799805 -0.600586 1.60059 -1.2002 2.40039 -1.80078v-120.436c-3.22363 2.50781 -6.44824 5.01562 -9.67188 7.52344c-2.2666 1.72168 -35.7979 25.7998 -79.2383 -22.5371
c0.00292969 0.00195312 -4.4043 -4.88086 -4.44922 -4.93066c-6.56152 7.27148 -6.70117 7.42773 -8.88086 9.60547c-38.7041 38.7051 -73.2559 18.6484 -75.3633 17.4453l-9.11426 -5.87695v119.351l3.3916 2.31348h0.144531zM536.443 71.9678
c7 2.22266 15.9434 3.77246 22.416 3.77246c13.4932 0 35.6543 -3.94629 58.9316 -27.3037c13.4697 13.7266 35.623 30.5703 62.2266 29.0391c5.65234 -0.273438 13.1729 -2.03711 19.207 -4.38184v91.6543c-10.8691 6.07422 -40.6475 15.9072 -75.6494 -22.9727
c-1.4834 -1.64453 -2.9668 -3.28809 -4.4502 -4.93262c-6.4668 7.16406 -6.68262 7.40332 -8.91309 9.63379c-34.4277 34.4277 -64.8496 22.752 -73.7686 18.1416v-92.6504zM734.118 31.1729zM487.397 197.157zM441.323 112.336zM620.844 1.43457zM620.52 -8.86621z
M483.355 29.4346zM562.431 4.55762zM778.126 131.514zM441.323 112.336zM778.126 131.514zM784.199 137.294c3.18164 -9.63574 5.22949 -20.0645 7.90625 -30.0537l1.86523 -0.0302734c-1.41895 -29.9316 -1.95312 -41.2031 -50.5566 -79.6084
c-36.165 -28.5781 -62.6426 -38.6436 -122.829 -39.3223c-41.3994 -0.466797 -94.124 1.08301 -140.347 39.3115c-18.2139 15.0645 -47.126 44.2178 -46.8574 77.335h-1.2959c1.41602 5.30859 1.41602 5.30859 1.55078 9.38477l0.948242 -0.015625l4.05859 15.2197h-1.78125
c0.924805 1.25586 1.85059 2.5127 2.77539 3.76953v4.27637h3.14746l45.9639 62.4521h1.45898c15.9023 37.1875 76.8271 55.1016 100.49 26.2959c3.35938 -1.50977 18.5977 -7.58984 34.6436 -1.74023c8.26465 11.0625 31.4873 21.7373 57.6201 16.3184
c25.2754 -5.24121 50.7725 -28.7539 61.959 -40.2021h0.536133c0.394531 -0.580078 0.664062 -1.24609 1.16016 -1.75488l3.51465 -3.66699l33.5615 -57.3496c0.500977 0.0429688 0.896484 0.0107422 0.817383 -0.352539zM456.763 106.935
c-0.556641 -19.085 1.55371 -41.7822 47.9053 -74.2285c39.332 -27.5322 71.9229 -29.5098 116.666 -28.4023c52.1318 1.3418 73.8838 8.04297 105.363 33.7656c41.8613 34.208 48.7979 44.9287 43.7637 65.0234l-6.65723 26.5742l-0.244141 -0.436523
c0.0146484 1.6084 -1.06152 3.65332 -1.04688 5.26172l-37.3525 58.9141c-1.00293 -0.0390625 -0.202148 0.871094 -1.20508 0.832031c-23.1201 15.2432 -25.5859 21.8477 -34.2227 26.9414c-13.2988 7.84277 -33.7461 6.26367 -46.7637 -2.62012
c-6.47949 -19.5215 -46.6855 -22.6494 -65.2119 -5.0459c-1.72656 1.64062 -3 0.727539 -2.83691 2.74023c-19.8037 13.6279 -56.8975 -0.101562 -67.3789 -24.7891l-1.27148 -2.99414l-2.11816 0.81543l-40.8496 -57.8311zM525.001 506.352l-64.3174 -73.6377
l69.9932 -72.9365l-9.1123 -8.60449l-70.0713 73.125l-63.375 -73.125l-6.61816 8.2041l62.5693 72.1348l-61.5088 72.5361l8.12988 8.81641l62.2168 -70.1318l65.0439 70.5322zM453.489 572.487h0.292969c80.501 0 146.095 -65.334 146.416 -145.834
c-0.00195313 -80.499 -65.335 -145.831 -145.834 -145.831c-80.5 0 -145.834 65.334 -145.834 145.834c0 80.0186 64.9414 145.35 144.959 145.831zM453.489 290.542h0.292969c75.1338 0 136.372 60.9775 136.693 136.111
c-0.00195313 75.1318 -60.9795 136.108 -136.111 136.108c-75.1338 0 -136.111 -60.9785 -136.111 -136.111c0 -74.6523 60.5859 -135.629 135.236 -136.108z" />
  </g>

</svg>
