<?xml version="1.0" standalone="no"?>
<!DOCTYPE svg PUBLIC "-//W3C//DTD SVG 1.1//EN" "http://www.w3.org/Graphics/SVG/1.1/DTD/svg11.dtd" >
<svg xmlns="http://www.w3.org/2000/svg" xmlns:xlink="http://www.w3.org/1999/xlink" version="1.1" viewBox="-10 0 1140 1000">
  <g transform="matrix(1 0 0 -1 0 800)">
   <path fill="currentColor"
d="M728.938 695.3c162.78 0 295.375 -132.185 295.375 -294.954v-12.3213l-1.34961 -8.76367h-305.144v315.954h9.45508c0.00585938 0 1.66309 0.0849609 1.66309 0.0849609zM735.916 677.439l-0.402344 -280.489h270.286v3.08496
c-0.361328 149.434 -120.943 272.946 -269.884 277.404zM467.48 313.073c-4.06641 0 -7.28711 -3.31641 -7.28711 -7.26074v-255.09c0 -4.05176 3.33105 -7.26074 7.26074 -7.26074l317.848 -1.28223c4.00391 0 7.28711 3.25195 7.28711 7.26074l-0.68457 131.96
l11.0039 0.675781c11.0732 -0.600586 22.1465 -1.2002 33.2207 -1.7998l-43.54 50.6963v73.5566c0 4.02246 -3.29004 7.26074 -7.2334 7.26074l-180.451 -0.338867c-0.296875 9.22656 -0.592773 18.4541 -0.889648 27.6807
c-0.643555 5.21777 -1.11328 8.85156 -2.31738 18.1885l-49.2852 -44.5898l-1.64844 0.00585938s-83.2666 0.336914 -83.2832 0.336914zM483.22 66.4609v223.561l68.7402 -0.294922l53.5732 -45.1777c-0.538086 20.335 -0.689453 27.0479 -0.689453 33.4785
c0 2.46777 0.00390625 3.06934 0.103516 13.0225l164.617 -2.25781v-56.4736l-46.3242 -50.8047c32.4355 0.860352 32.4355 0.860352 46.5645 1.62695l-0.240234 -117.91zM114.621 13.3535h47.1875l14.5869 44.3916l14.5869 -44.3916h47.1875l-38.1367 -27.4521
l14.5869 -44.3906l-38.2246 27.4512l-38.2246 -27.4512l14.5869 44.3906zM452.62 527.161l-252.45 0.636719v12.6211h226.349v71.6592h-226.349v12.6201l250.206 -1.0625z" />
  </g>

</svg>
