<?xml version="1.0" standalone="no"?>
<!DOCTYPE svg PUBLIC "-//W3C//DTD SVG 1.1//EN" "http://www.w3.org/Graphics/SVG/1.1/DTD/svg11.dtd" >
<svg xmlns="http://www.w3.org/2000/svg" xmlns:xlink="http://www.w3.org/1999/xlink" version="1.1" viewBox="-10 0 1120 1000">
  <g transform="matrix(1 0 0 -1 0 800)">
   <path fill="currentColor"
d="M34.3545 -40.4795h55.5146l17.1611 52.2256l17.1602 -52.2256h55.5156l-44.8672 -32.2959l17.1611 -52.2246l-44.9697 32.2959l-44.9707 -32.2959l17.1611 52.2246zM335.287 152.125l-82.2217 148.848l24.0225 10.1475l58.4395 -100.383l53.3027 101.418
l27.2285 -11.0254zM252.374 -13.2754v34.6641h38.626v22.0713h-38.626v34.6641h38.626v33.7148h31.3828v-33.7148h23.2197v31.2539h31.3828v-31.2539h41.292v-34.6641h-41.292v-22.0713h41.292v-34.6641h-41.292v-36.1855h-31.3828v36.1855h-23.2197v-33.7246h-31.3828
v33.7246h-38.626zM322.383 21.3887h23.2197v22.0713h-23.2197v-22.0713zM909 0h-323.297l0.216797 164.161c-12.123 -5.10645 -24.2471 -10.2129 -36.3701 -15.3193v43.2637l216.847 89.3984c0.620117 -0.28125 1.39551 -1.04395 1.56934 0.0556641
c14.0449 -8.15234 14.0449 -8.15234 42.4219 -22.8662l-1.75293 -0.737305l133.207 -77.3066l0.775391 -46.5869c-10.9932 6.50293 -21.9854 13.0059 -32.9785 19.5098zM625.885 40.2158h243.036l1.16699 136.753l-105.537 62.4346l-139.312 -58.6816zM781.455 356.832
l-472.282 -3.44531l-156.173 318.613l820.376 -2.35352zM337.397 398.468l417.715 0.699219l141.121 232.849l-673.613 -2.35254c26.8818 -71.3633 117.926 -239.555 114.777 -231.194v-0.000976562z" />
  </g>

</svg>
