<?xml version="1.0" standalone="no"?>
<!DOCTYPE svg PUBLIC "-//W3C//DTD SVG 1.1//EN" "http://www.w3.org/Graphics/SVG/1.1/DTD/svg11.dtd" >
<svg xmlns="http://www.w3.org/2000/svg" xmlns:xlink="http://www.w3.org/1999/xlink" version="1.1" viewBox="-10 0 1014 1000">
  <g transform="matrix(1 0 0 -1 0 800)">
   <path fill="currentColor"
d="M48.8457 732.174h55.5146l17.1611 52.2256l17.1602 -52.2256h55.5156l-44.8672 -32.2959l17.1611 -52.2246l-44.9697 32.2959l-44.9707 -32.2959l17.1611 52.2246zM764.521 621.621c0 -96.6865 78.0879 -230.199 109.375 -248.775l11.1992 -6.64941
c-16.9434 -0.478516 1.18945 0.900391 -34.5742 -3.5752l-1.0752 1.36426c-22.0068 27.9238 -104.004 167.01 -116.903 264.233c-0.657227 4.95117 0.0224609 9.79688 0.582031 18.2783c-1.38379 0.708984 -2.88672 1.4873 -4.52246 2.34082
c-0.0283203 -1.83984 -0.322266 -3.81641 -0.0449219 -5.88867c33.3789 -249.661 107.546 -273.742 107.546 -273.742s6.91211 -4.29004 10.2793 -6.58594h-32.8613c-44.1455 16.1279 -111.697 208.17 -111.697 279.331c0 8.73535 0.302734 15.3135 0.785156 20.6846
c-60.6641 32.3369 -123.179 64.7012 -226.885 64.7012c-23.0527 0 -45.5234 -2.04883 -73.3945 -6.17773c-32.3232 -4.78906 -32.3232 -4.78906 -70.6152 -21.2002c-18.916 -8.10645 -50.2139 -47.4062 -58.166 -66.7188
c-7.02734 -17.0664 -9.0791 -30.2676 -9.0791 -45.8906c0 -22.332 3.62891 -44.376 3.62891 -77.1553c0 -8.99219 1.14648 -13.8564 1.14648 -20.1924c0 -4.57031 -0.613281 -9.64551 -2.73242 -16.6025c-19.9492 -65.4795 -40.3174 -87.0479 -63.832 -110.183
c-6.25977 -6.16016 -27.0508 -26.6172 -27.0508 -37.7881c0 -4.45605 0.882812 -6.9082 38.3447 -19.4531c55.9199 -18.7266 60.0254 -24.4102 60.0254 -90.9766c0 -43.0117 -4.74121 -62.7734 -4.74121 -104.492c0 -5.5 0.0820312 -11.3867 0.267578 -17.7666
c0.50293 -17.292 16.4512 -45.3398 23.8975 -57.5352c1.19629 -0.303711 1.95996 -1.18164 1.95996 -1.18164c1.1543 -0.666992 2.48438 -1.60059 4.13477 -2.74414c16.0508 -11.1162 22.0049 -13.1846 40.8428 -13.1846c24.0361 0 22.3457 4.21484 79.0615 4.21484
c0.316406 0 6.94531 -0.00390625 7.01562 -0.00390625c14.7988 0 25.668 0.226562 52.1025 3.80078c20.2021 2.73242 38.8271 4.61523 56.5088 6.4043c120.938 12.2334 143.711 24.1475 222.178 80.1953c2.23438 1.5957 5.14355 3.85352 8.45703 6.42773
c12.6104 9.7959 33.0303 26.8994 48.1416 26.8994c8.16699 0 13.834 -4.95996 13.834 -14.165c0 -15.4473 -17.4082 -42.8486 -33.0938 -42.8486c-1.16406 0 -1.56543 0.129883 -3.01758 0.129883c-22.6426 0 -44.3604 -36.5264 -79.4766 -51.29
c-52.8857 -22.2344 -80.2979 -27.1279 -117.459 -33.71c-17.2549 -3.05664 -36.6504 -6.49316 -61.8809 -12.2393c-34.7246 -7.90918 -51.6299 -8.61133 -86.7539 -8.61133c-0.251953 0 -22.7891 0.03125 -25.0811 0.03125
c-11.3115 0 -32.6182 -0.123047 -32.9473 -0.123047c-40.7773 0 -82.5049 2.86621 -120.91 24.8125c-26.0957 14.9121 -27.9092 36.1035 -30.0449 61.0586c-0.477539 5.59082 -0.976562 11.3994 -1.75781 17.3906c-1.96484 15.7158 -2.63672 29.7119 -2.63672 42.8916
c0 28.6572 3.1748 53.4248 3.1748 84.1699c0 46.4277 -4.59863 49 -29.7539 58.8145c-27.3184 10.6582 -57.2148 13.2568 -70.834 26.876c-4.33008 4.33008 -6.66504 9.68945 -6.66504 16.1094c0 4.7959 1.30371 10.1846 4.05176 16.1768
c36.4951 79.5967 68.6367 70.0742 91.3711 139.761c5.20312 15.9443 6.93652 32.2529 6.93652 48.6797c0 32.5635 -6.77832 65.1611 -6.77832 95.8125c0 47.6494 17.2412 68.3838 35.0508 86.1934c66.2422 66.2412 143.674 66.3555 238.901 66.3555h0.988281
c82.8154 0 132.135 -23.3467 188.021 -49.8477c43.5547 -20.6533 21.8506 -15.7109 32.4561 -16.8408c11.3984 -1.2168 39 -13 47.5039 -30.4053c4.31641 -8.83496 -4.12305 -21.668 -4.50391 -29.5947c-0.257812 -5.36523 2 -14.3428 2 -20zM552 321
c-0.000976562 -0.19043 -0.000976562 -0.5 -0.000976562 -0.69043c0 -46.1924 27.4404 -109.226 61.251 -140.698c21.2793 -19.8652 8.52344 -56.4746 -18.333 -59.166c-7.42969 -0.998047 -19.542 -1.80664 -27.0381 -1.80664h-0.740234
c-111.497 1.07812 -204.208 92.4199 -206.944 203.89c-0.0205078 1.08691 -0.0371094 2.85059 -0.0371094 3.93848c0 115 93.333 208.332 208.333 208.332c11.2334 0 29.2949 -1.76367 40.3154 -3.9375c25.8389 -5.44336 36.6865 -41.7607 14.7227 -59.583
c-39.4834 -32.0107 -71.5283 -99.2422 -71.5283 -150.071v-0.207031zM608.806 147.667c0.602539 1.8125 1.09082 4.83398 1.09082 6.74316c0 5.18945 -3.10156 12.248 -6.92383 15.7568c-35.8555 34.0127 -64.9561 101.727 -64.9561 151.147
c0 54.4082 34.1406 126.568 76.2061 161.074c3.98047 3.2002 7.21094 9.94141 7.21094 15.0498c0 10.209 -7.87695 18.5469 -16.3779 20.2285c-10.3633 2.05957 -27.3506 3.74023 -37.917 3.75h-4.72168c-105.123 -3.85254 -190.662 -92.5674 -189.723 -198.61
c2.29883 -107.248 90.4551 -190.314 198.14 -190.314c6.13086 0 16.0488 0.576172 22.1387 1.28613c6.94434 0.898438 14.0371 7.12012 15.833 13.8887zM489.361 326.834zM419.917 326.834z" />
  </g>

</svg>
