<?xml version="1.0" standalone="no"?>
<!DOCTYPE svg PUBLIC "-//W3C//DTD SVG 1.1//EN" "http://www.w3.org/Graphics/SVG/1.1/DTD/svg11.dtd" >
<svg xmlns="http://www.w3.org/2000/svg" xmlns:xlink="http://www.w3.org/1999/xlink" version="1.1" viewBox="-10 0 937 1000">
  <g transform="matrix(1 0 0 -1 0 800)">
   <path fill="currentColor"
d="M646.986 400.471c0 -20.0586 7.19238 -38.8916 21.248 -52.9922c11.666 -11.6191 34.0684 -20.874 50.5361 -20.874c3.74023 0 8.72461 0.59668 15 1.78125c34.1982 6.4541 61.9521 39.8506 61.9521 74.7334c0 6.20508 -1.38867 15.7393 -3.1582 21.6934
c-3.89551 13.7637 -17.291 34.2197 -18.3232 35.7314c-4.7959 7.57031 -6.02148 9.5166 -8.05273 13.0557c-12.1641 21.3984 -24.3477 42.7783 -36.499 64.1885c-3.375 7.63867 -4.7832 9.03809 -7.41113 10.1904c-2.85059 0 -3.78223 -0.0244141 -5.36328 -1.60547
c-0.977539 -0.976562 -1.0332 -1.11426 -2.75781 -4.34375c-1.01172 -1.89648 -24.1699 -44.0732 -35.9951 -63.1133c-2.2627 -3.64453 -13.8711 -22.3848 -21.0371 -36.8115c-6.79492 -13.707 -10.1387 -27.9551 -10.1387 -41.6338zM719 336.428
c-13.3594 0 -33.4043 7.61035 -44.1816 18.3867c-11.8721 11.8711 -17.9941 27.9521 -17.9941 45.3311c0 12.1738 3.00391 24.9863 9.14062 37.4355c5.43652 10.9453 11.9746 21.7725 18.3184 32.2725c5.67285 9.21875 5.64844 9.17676 33.416 57.6377
c0.0556641 0.107422 0.0556641 0.107422 2.91992 5.6748l36.9521 -64.1582c1.54199 -2.65625 2.93164 -5.00488 8.35254 -13.4824c4.88867 -7.15625 11.6426 -19.376 15.0947 -27.2744c0.0576172 -0.142578 0.120117 -0.279297 0.180664 -0.418945v-0.0351562
c3.47852 -8.90527 4.79199 -19.2549 4.79199 -24.9941c0 -30.3926 -24.3223 -59.6055 -54.2822 -65.0645c-6.50977 -1.18652 -10.9902 -1.31055 -12.709 -1.31055zM818.75 760.178l-86.25 -86.4277l83.082 -88.7188l-19.332 -16.1035l-83.25 89.0723l-78.75 -77.8223
l-14.043 15.3535l77.043 75.9688l-74.25 81.9277l17.25 16.5l75.75 -77.4277l87.791 80.6152zM818.75 760.178l-86.25 -86.4277l83.082 -88.7188l-19.332 -16.1035l-83.25 89.0723l-78.75 -77.8223l-14.043 15.3535l77.043 75.9688l-74.25 81.9277l17.25 16.5
l75.75 -77.4277l87.791 80.6152zM388.482 180.133c-4.78418 0 -8.57227 -3.90234 -8.57227 -8.54297v-300.105c0 -4.7666 3.91797 -8.54199 8.54199 -8.54199l373.938 -1.50879c4.70996 0 8.57227 3.82617 8.57227 8.54199l-0.804688 155.248l12.9453 0.793945
c13.0273 -0.706055 26.0557 -1.41113 39.083 -2.11719l-51.2236 59.6426v86.5381c0 4.73145 -3.87012 8.54199 -8.50977 8.54199l-212.295 -0.399414c-0.348633 10.8555 -0.698242 21.7109 -1.04688 32.5664c-0.757812 6.1377 -1.30957 10.4131 -2.72656 21.3975
l-57.9824 -52.459l-1.93945 0.0078125s-97.96 0.396484 -97.9805 0.396484zM407 -107v260.013l80.8701 -0.34668l63.0283 -53.1514c-0.633789 23.9238 -0.811523 31.8213 -0.811523 39.3877c0 2.90234 0.00488281 3.61035 0.12207 15.3203l193.667 -2.65625v-66.4404
l-54.499 -59.7695c38.1592 1.01172 38.1592 1.01172 54.7812 1.91309l-0.282227 -135.717zM39.8555 -71.6758h55.5146l17.1611 52.2256l17.1602 -52.2256h55.5156l-44.8672 -32.2959l17.1611 -52.2246l-44.9697 32.2959l-44.9707 -32.2959l17.1611 52.2246zM287 379
l-190.801 0.900391l2.70117 385.201l22.3994 -0.600586v-362.25h144.999v362.25l20.7012 -0.299805v-385.201z" />
  </g>

</svg>
