<?xml version="1.0" standalone="no"?>
<!DOCTYPE svg PUBLIC "-//W3C//DTD SVG 1.1//EN" "http://www.w3.org/Graphics/SVG/1.1/DTD/svg11.dtd" >
<svg xmlns="http://www.w3.org/2000/svg" xmlns:xlink="http://www.w3.org/1999/xlink" version="1.1" viewBox="-10 0 1076 1000">
  <g transform="matrix(1 0 0 -1 0 800)">
   <path fill="currentColor"
d="M870.395 481.694c0 9.49902 0.360352 25.4824 0.360352 28.9053l-0.318359 61.375l-8.69434 54.7793l-24.0586 41.7607l-29.835 19.125l-33.9414 8.02539c-15.9834 0.617188 -31.9668 1.23438 -47.9502 1.85059v0.765625l-107.704 8.96191l-161.613 -4.84375
l-135.512 -48.0117l4.97461 -24.8711l90.1514 34.2031l168.52 13.9912l163.858 -8.05859l72.0586 -32.085l24.6855 -76.583c-11.2969 -92.7236 -11.5391 -94.709 -10.623 -98.1973c0.272461 -1.03711 0.408203 -1.9873 0.495117 -2.92188
c0.488281 -0.641602 1.13477 -1.58496 1.48633 -2.05664l30.4463 -40.7334l38.0439 -60.0674c7.97656 -11.168 15.9531 -22.335 23.9297 -33.502l-96.7109 -80.25l-3.2002 -219.288c0.962891 -7.5625 2.78418 -22.0117 5.01758 -45.877
c-0.128906 -0.270508 -9.65137 -20.9678 -12.835 -27.0205c-1.80566 -3.43262 -3.36328 -6.39453 -8.94434 -11.126c-28.7256 -6.87109 -37.6748 -9.0127 -53.7939 -9.0127c-3.38379 0 -6.77832 0.143555 -10.1738 0.446289l-127.95 -3.2207l-189.706 31.9736
l-119.909 72.0264c-7.29102 10.5146 -14.582 21.0303 -21.873 31.5449c-0.186523 0.126953 -14.9541 10.3477 -18.583 12.6523v-31.4629c5.41699 -3.87207 13.5068 -7.36328 24.4395 -17.251c7.32715 -6.625 2.0957 -4.45605 10.624 -11.9258
c1.03027 -0.902344 1.03027 -0.902344 17.2012 -21.8066l70.2637 -41.1387l123.979 -35.7695l40.835 -3.74512c52.8262 -4.9082 59.0674 -6.7334 83.0469 -7.42773l68.0801 -1.97266l89.7607 0.253906l51.1064 12.4922l15.1377 25.207l6.27637 34.1602l-0.268555 82.9482
l0.0292969 84.2285l-0.00585938 87.5186l84.7832 67.8018l7.68652 8.9668l1.11426 7.19531c0.449219 7.6123 -1.52441 12.8027 -3.31152 18.1787l-23.3311 38.8438l-33.0244 43.4482l-34.3174 48.9014c-0.203125 16.1299 -0.203125 16.1299 -0.203125 17.6953z
M72.3203 739.375h55.5146l17.1611 52.2256l17.1602 -52.2256h55.5156l-44.8672 -32.2959l17.1611 -52.2246l-44.9697 32.2959l-44.9707 -32.2959l17.1611 52.2246zM520.923 443.858l128.077 -231.858l125.711 231.915l-25.167 10.1934l-99.4717 -189.261l-109.135 187.466z
M372.976 470.137c0 -20.5596 -1.6084 -17.9854 -1.6084 -42.7139c0 -48.8926 7.24219 -122.031 7.24219 -139.169c0 -6.5 -1.44531 -31.2314 -22.7275 -52.5137c-9.1875 -9.18848 -19.8203 -16.0244 -29.6533 -22.374
c-19.9766 -12.9033 -33.7793 -22.4092 -33.7793 -41.2314c0 -33.4697 34.2354 -65.2764 57.0146 -86.4395c15.1719 -14.0957 18.2305 -16.9375 24.0029 -25.7568c10.4639 12.6748 10.4639 12.6748 12.7324 15.3994c-23.0332 23.4336 -62.3301 63.8604 -68.9541 85.0723
l-0.974609 5.38086c7.0127 18.4053 10.1514 22.2734 21.1826 28.5166c17.9473 10.1572 28.9229 22.9453 49.8398 48.3848c33.1582 -59.0654 39.3125 -70.0273 65.8535 -109.484c2.44531 -3.63379 6.09277 -5.87598 12.8887 -5.87598
c17.2793 0 46.2998 16.4805 67.249 28.7188c4.05957 2.37207 7.78711 4.56348 11.1221 6.43359v0l11.665 5.8623l0.292969 0.19043c-4.86426 10.7539 -6.34766 14.543 -7.58496 19.6299c-4.21191 -2.36133 -6.38281 -3.6709 -14.0127 -8.27441
c-22.5986 -13.6338 -43.7812 -26.166 -61.0244 -26.166c-7.22656 0 -16.7939 2.39648 -22.6074 13.4102c-48.9043 92.6621 -59.1279 169.414 -59.1279 235.44c0 22.999 0.841797 37.7881 3.30859 79.0371c-2.40039 -0.0175781 -4.80469 -0.0234375 -7.05957 -0.0234375
c-5.46582 0 -10.8643 0.0410156 -11.8799 0.0478516c-0.0332031 0 -0.0615234 0.000976563 -0.0849609 0.000976563c-1.90723 -0.0800781 -3.37988 -0.964844 -3.37988 -5.08301c0 -0.475586 0.0644531 -2.70898 0.0644531 -6.41992zM555.622 160.669l0.106445 0.0136719z
" />
  </g>

</svg>
