<?xml version="1.0" standalone="no"?>
<!DOCTYPE svg PUBLIC "-//W3C//DTD SVG 1.1//EN" "http://www.w3.org/Graphics/SVG/1.1/DTD/svg11.dtd" >
<svg xmlns="http://www.w3.org/2000/svg" xmlns:xlink="http://www.w3.org/1999/xlink" version="1.1" viewBox="-10 0 1174 1000">
  <g transform="matrix(1 0 0 -1 0 800)">
   <path fill="currentColor"
d="M877.96 381.922l-0.232422 22.0996l14.8184 6.28906l11.7988 -27.9521zM777.928 393.818c0 31.2422 24.5234 50.8311 55.04 50.8311c4.81152 0 44.1846 -1.13477 53.5479 -38.0303l2.34277 -9.23438l-1.98535 -0.0244141l3.7168 -3.57812l-3.62402 -3.76367
l1.94043 0.0205078c-4.06543 -15.2959 -5.88965 -22.1592 -14.8545 -31.124c-10.8057 -10.8057 -26.0332 -15.9062 -41.1055 -15.9062c-30.5029 0 -55.0186 19.5762 -55.0186 50.8096zM636.055 513.828c0 103.19 83.7578 186.946 186.945 186.946
c103.19 0 186.945 -83.7578 186.945 -186.946c0 -51.5918 -20.9365 -98.332 -54.7783 -132.172c-9.82324 -9.82324 -20.7354 -18.5586 -32.5371 -26.0127l-19.1523 -12.0947c11.9678 31.0342 13.5381 35.1064 13.5381 50.3359c0 46.165 -36.5957 79.3887 -84.1289 79.3887
c-44.8701 0 -83.6465 -29.8857 -83.6465 -79.3535c0 -15.2012 3.93457 -30.041 11.0508 -41.7998l11.915 -19.6904c-35.2754 14.7715 -55.1602 23.0986 -81.2988 49.2354c-33.9551 33.957 -54.8525 80.8076 -54.8525 132.163zM1038.83 513.832
c0 119.14 -96.6826 215.829 -215.832 215.829c-119.011 0 -215.832 -96.8232 -215.832 -215.829c0 -119.147 96.6914 -215.832 215.832 -215.832c119.119 0 215.832 96.6631 215.832 215.832zM57.5039 -16.9844h42.7031l13.2012 40.1738l13.2002 -40.1738h42.7041
l-34.5127 -24.8428l13.2002 -40.1729l-34.5918 24.8428l-34.5928 -24.8428l13.2012 40.1729zM364.406 335.052l26.5059 68.2842c62.9561 -102.438 62.4795 -142.953 90.0215 -184.836l86.0664 1l1 -44.5h-520.5v43.5h61.75l71.8213 190.713
c20.3232 -33.0684 34.0498 -59.7168 44.2461 -82.0459l69.8027 168.227c31.5908 -51.4033 52.543 -109.279 69.2861 -160.342zM699.482 139.12c-4.75391 0 -8.57227 -3.87109 -8.57227 -8.54297v-300.105c0 -4.73633 3.88672 -8.54199 8.54199 -8.54199l373.938 -1.50879
c4.61035 0 8.57324 3.69336 8.57227 8.54199l-1.85938 158.042c13.2344 -1.89062 13.2344 -1.89062 53.0654 -4.09668l-51.2061 59.6221v86.5381c0 4.71582 -3.82617 8.5459 -8.33691 8.5459l-211.522 -4.60938c-2.00977 37.1768 -2.00977 37.1768 -4.7168 58.1709
l-57.9844 -52.46l-2.90918 0.0117188s-96.9805 0.392578 -97.0107 0.392578zM718 -151.013v263.013l80.8701 -0.34668l63.0264 -53.1494c1.22363 24.0195 1.23828 24.4697 2.20703 54.501l190.772 -2.45117v-66.4404l-54.499 -59.7695l32.4531 -4.30273
c1.65527 0.176758 8.64746 1.25195 26.2734 3.96387l-4.22754 -136.465z" />
  </g>

</svg>
