<?xml version="1.0" standalone="no"?>
<!DOCTYPE svg PUBLIC "-//W3C//DTD SVG 1.1//EN" "http://www.w3.org/Graphics/SVG/1.1/DTD/svg11.dtd" >
<svg xmlns="http://www.w3.org/2000/svg" xmlns:xlink="http://www.w3.org/1999/xlink" version="1.1" viewBox="-10 0 818 1000">
  <g transform="matrix(1 0 0 -1 0 800)">
   <path fill="currentColor"
d="M179.746 657.424zM179.246 620.924zM131.242 625.424v0h48.5039v30.0234l-47.2285 -0.334961zM232.928 625.424l-1.59375 30.3906l-45.5879 -0.324219v-30.0664h47.1816zM233.925 606.4l-103.519 -0.459961l-29.8096 -240.644l167.354 3.0625zM278.359 664.437
l0.834961 -0.754883l-0.834961 -0.371094v1.12598v0zM88.3594 665.398v-1.08789l-0.825195 0.380859zM300 344zM78.2461 340.924l-0.0136719 -0.519531l-0.505859 0.513672zM256.768 681.195l-0.0214844 0.480469l0.501953 -0.478516
c-0.160156 0 -0.320312 -0.00195312 -0.480469 -0.00195312v0zM107.097 680.504l149.671 0.691406l36.4785 -337.271l-215 -3zM107.097 680.504c-0.161133 0 -0.323242 -0.00195312 -0.483398 -0.00195312l0.496094 0.486328zM185.859 765.225v-0.000976563v-0.209961
v0.209961l0.742188 0.416992v0l0.644531 -0.537109v0v-0.0449219l91.6133 -82.748v-19l-92.834 83.8516l-98.166 -82.8398v17.9912l98 82.6992v0.172852v0.0380859v0.000976563zM556.899 407.866l133 -0.700195v0h6.2998l-7.69922 -425.6v-25.2002h-28.7002l-107.8 0.700195
v25.2002l107.8 -0.700195l9.09961 403.2l-112 0.699219v22.4004zM106.945 228.141l30.7959 0.503906l431.026 1.03711v-28.459l-160.767 -1.22266v-138.934l-266.752 143.522l-9.72754 6.14355c-2.68164 0 -21.8955 17.4082 -24.5762 17.4082z" />
  </g>

</svg>
