<?xml version="1.0" standalone="no"?>
<!DOCTYPE svg PUBLIC "-//W3C//DTD SVG 1.1//EN" "http://www.w3.org/Graphics/SVG/1.1/DTD/svg11.dtd" >
<svg xmlns="http://www.w3.org/2000/svg" xmlns:xlink="http://www.w3.org/1999/xlink" version="1.1" viewBox="-10 0 1010 1000">
  <g transform="matrix(1 0 0 -1 0 800)">
   <path fill="currentColor"
d="M274.065 610.28c3.43848 -61.0859 -25.5908 -235.091 -8.51367 -244.224c16.7646 -180.239 191.267 -348.642 191.488 -342.146l-29.5684 -19.7109c-66.5254 72.5615 -140.753 144.372 -197.317 340.991c-12.5928 -86.5742 -66.6689 -183.541 -115.259 -245.248
c-29.5654 -37.5459 -42.2402 -67.583 -67.584 -95.7432l-33.792 26.751c38.0166 49.2803 59.3545 81.043 84.4805 114.049c128.286 168.514 133.652 389.767 132.657 506.979c11.9375 -0.263672 23.875 -0.526367 35.8125 -0.790039
c6.7168 -0.143555 6.99023 -6.67188 7.10547 -9.46094c0.0146484 -0.313477 -0.4375 -14.9805 0.490234 -31.4473zM572.817 645.079l-248.836 -280.772l32.6035 -25.9805l211.969 246.288c17.6074 -29.1963 42.7334 -63.7119 51.0996 -86.3691l59.4814 84.8154z
M536.685 -9.09765c-7.31198 0 -13.3701 5.95146 -13.3701 13.3701v294.103c0 7.33653 5.97185 13.371 13.4198 13.371c0 0 82.342 -0.332587 96.0106 -0.387789l64.4275 57.1577l3.90949 -30.4462v-0.328123l-0.0705751 -28.7119s202.163 1.23769 202.244 1.23794
c7.25793 0 13.2882 -5.96727 13.2882 -13.3712v-82.9537l56.6227 -65.9284c-50.6534 2.78307 -50.6534 2.78307 -58.3767 3.8864l1.75546 -149.203c0 -7.25421 -5.99135 -13.2741 -13.4222 -13.2741zM880.154 26.0199l3.8057 122.859l-20.2436 -3.1144l-42.2648 5.60193
l58.5496 64.2128v58.2376l-177.121 2.27594c-0.572601 -20.6411 -0.590206 -20.9846 -2.52176 -58.6666l-68.0821 57.4128l-72.4163 0.310528v-247.755z" />
  </g>

</svg>
