<?xml version="1.0" standalone="no"?>
<!DOCTYPE svg PUBLIC "-//W3C//DTD SVG 1.1//EN" "http://www.w3.org/Graphics/SVG/1.1/DTD/svg11.dtd" >
<svg xmlns="http://www.w3.org/2000/svg" xmlns:xlink="http://www.w3.org/1999/xlink" version="1.1" viewBox="-10 0 988 1000">
  <g transform="matrix(1 0 0 -1 0 800)">
   <path fill="currentColor"
d="M806.507 30.2044c5.81796 0 6.42841 -4.65721 6.42841 -5.58082c0 -5.18883 -8.27188 -7.10262 -24.0803 -10.6273c-32.5338 -7.25274 -69.9987 -12.1211 -111.191 -14.4643c-8.91624 -0.507268 -29.2652 -0.75628 -50.7591 -0.75628
c-143.059 0 -204.316 14.7165 -265.004 32.8868c-26.7585 8.01027 -43.5925 12.6698 -65.9524 18.2547c-48.9872 12.2349 -69.1672 18.9871 -73.0696 23.0201c-2.45562 0.323961 -11.8216 7.40294 -15.3003 11.7985c-6.58119 8.31593 -15.6955 26.7073 -15.6955 33.9999
c0 0.861586 0.109352 1.00511 0.109352 1.51323c0 7.09761 -22.7663 37.3586 -29.7411 119.856c-0.588437 6.9637 -0.869529 20.8741 -0.869529 35.6585c0 8.04528 0.13322 53.517 3.14797 62.162c-0.428585 0.630523 -0.558272 1.24432 -0.558272 1.84475
c0 1.45896 5.71945 60.546 26.4965 143.47c8.90662 35.5458 32.7585 118.984 36.3114 122.916c0.312065 0.34528 10.4345 18.5411 29.7735 35.7711c13.2961 11.8463 34.0314 26.105 58.3508 40.186c7.08673 4.103 20.7463 12.1497 30.3237 17.8626
c17.289 10.3126 34.7018 20.6112 49.3653 20.6112c15.5305 0 32.8271 -12.2579 47.7785 -30.6559c3.90507 -4.80497 11.1217 -13.5267 16.0105 -19.3479c18.5928 -22.1412 28.0302 -34.5204 28.0302 -51.0382c0 -13.0049 -3.88104 -9.31337 -4.18765 -23.8309
c-0.422404 -19.9688 -11.8119 -25.2407 -18.1283 -46.9714c-1.49218 -5.13612 -9.93534 -9.37133 -17.8267 -9.37133c-10.499 0 -12.8635 4.29987 -17.3173 12.3993c-2.44001 -3.66807 -9.99824 -10.617 -16.0704 -10.617c-1.10572 0 -1.37375 0 -2.14148 -1.29867
c-0.0907619 -0.153673 -6.61475 -11.0955 -24.1061 -11.0955c-8.87284 0 -20.7412 2.5214 -26.4849 2.56614c-5.79031 0.0448294 -8.9852 3.34267 -8.9852 7.26808c0 1.58729 0.507895 3.24089 1.42693 4.78126c-1.28909 -0.0668962 -1.28909 -0.0668962 -7.59938 -0.544769
c-4.72745 -16.9102 -11.8989 -42.5625 -11.8989 -70.7689c0 -20.7515 4.02246 -38.7266 12.0019 -54.694c14.6381 -29.2899 76.5798 -72.2244 76.5798 -119.803c0 -5.23724 -0.59226 -10.3478 -1.79748 -14.2291c7.44112 4.7231 11.7113 7.18869 13.5733 7.90503
c0 0 0.580177 0.506728 1.44258 0.506728c0.11607 0 0.237252 -0.00917895 0.362821 -0.0300076c3.52598 2.90426 31.8247 17.2025 64.4379 17.2025c45.6916 0 79.2486 -24.1442 107.033 -44.7665c18.9804 -14.0882 32.6732 -23.0149 43.7342 -28.5708
c7.44522 -3.7396 10.5956 -5.5404 13.4422 -5.5404c2.69623 0 5.11994 1.61559 10.6626 4.72949c20.1685 11.3327 46.0189 22.1993 56.0831 23.1022c2.10923 0.189579 7.60669 3.20252 27.6586 3.20249c28.4889 -0.00698429 51.4068 -11.7633 55.8077 -16.1642
c1.07587 -1.07587 2.09099 -2.6894 2.09099 -4.37366c0 -2.27371 -2.26059 -4.8614 -5.44208 -4.8614c-8.19939 0 -18.7497 12.2686 -49.9229 12.2686c-28.3362 0 -44.439 -7.11965 -71.5887 -20.5717c32.3323 -0.963002 32.354 -0.984654 35.1033 -3.73396
c0.914232 -0.914232 1.23038 -1.93959 1.23038 -2.93076c0 -1.63681 -0.966849 -3.73287 -1.93069 -4.69671c-1.48317 -1.48317 -2.22799 -2.22799 -27.1006 -2.22799c-6.87394 0 -26.8418 0.947199 -27.1131 0.947199c-6.39775 0 -5.85186 -3.17938 -10.3993 -3.19071
c-3.49419 0 -6.59931 3.81011 -6.59931 6.85939c0 0.304618 0.027096 0.615134 0.085461 0.930337c-0.598304 0.342586 -1.84859 0.995589 -3.81945 1.8331c-29.9805 12.741 -67.2641 48.8016 -99.2609 62.8737c-15.6617 6.88848 -32.4087 10.3457 -49.1782 10.3457
c-9.45128 0 -37.6434 0 -76.1103 -24.8349c-11.0396 -7.12692 -11.0396 -7.12692 -11.0786 -7.14952c-3.17749 -1.83673 -24.3775 -19.0729 -44.5159 -36.4255c-14.911 -12.8495 -18.0761 -16.1092 -21.6622 -16.1092c-4.33291 0 -6.82991 4.21194 -6.82991 6.96833
c0 2.00357 1.16433 3.17038 1.50757 3.51361c3.39647 3.39647 34.4435 30.0336 45.0626 38.6817c16.3234 13.2925 19.5244 17.4551 22.4065 26.0108c1.10034 3.26673 1.65484 5.59967 1.65484 8.19972c0 2.53894 -0.528744 5.33259 -1.5943 9.49915
c-10.1957 39.8659 -52.1253 71.8243 -69.4781 95.9496c-14.101 19.6057 -21.1007 43.8143 -21.1007 72.2233c0 4.0567 0.409908 36.4282 12.2159 75.1276c0.674681 2.21354 1.18293 4.18311 1.43636 5.20511c-1.09892 0.820196 -15.4668 8.81702 -20.6391 13.9894
c-1.54338 1.54338 -2.34166 3.29503 -2.34166 5.11278c0 0.547417 0.146964 6.09619 6.10596 6.09619c3.62617 0 5.98164 -5.0455 15.5385 -10.9865c10.2647 -6.37979 15.3357 -9.70834 16.3611 -11.9522c2.6507 0.333703 15.7692 2.11195 15.7692 4.62056
c0 0.894787 -1.01511 2.40461 -1.01511 4.57718c0 3.37597 2.93042 5.62552 5.76099 5.62552c4.40228 0 3.90352 -3.45286 8.78806 -4.50962c5.01125 -1.08277 11.8924 -2.86837 11.8924 -7.91238c0 -2.35351 -2.03973 -6.27958 -5.7003 -6.27958
c-1.96994 0 -3.17069 0.89621 -3.9213 0.89621c-1.23518 0 -5.772 -2.53925 -8.86038 -5.9398c0.20011 -0.0400012 12.7238 -2.36003 20.2699 -2.36003c6.32963 0 7.9184 1.66952 12.4017 6.38067c-7.3777 17.6642 -16.6878 36.1022 -27.4369 49.4174
c-2.62458 3.25113 -5.01804 6.19415 -5.01804 8.84038c0 2.73199 2.92408 4.94626 5.15638 4.94626c2.44776 0 3.97851 -1.76432 5.28016 -3.26458c6.92058 -7.97267 22.1617 -29.3166 22.1617 -34.0797c0 -0.12087 -0.00495316 -0.240648 -0.0150675 -0.359411
c3.0784 -2.86071 7.6378 -15.264 10.0443 -18.7694c6.32163 1.04112 7.5842 9.61523 7.5842 14.1423c0 20.0704 -23.7602 39.5808 -23.7602 61.8326c0 4.09844 0 4.09844 6.09973 15.7405c3.71266 -21.9989 3.96639 -23.5024 14.8614 -40.8579
c3.70014 -5.89435 5.98981 -10.8054 6.07802 -10.8936c1.5711 -1.5711 8.96711 -13.4143 8.96711 -26.6706c0 -0.837137 -0.0221581 -1.69223 -0.0659578 -2.56693c4.87644 3.79453 8.98344 4.4728 13.0854 8.57478c18.5707 18.5707 -22.2492 71.0518 -28.7944 79.2038
c-4.86684 6.06135 -7.09409 9.45389 -7.09409 11.7154c0 1.00139 0.642145 3.53785 4.04621 3.53785c2.49705 0 3.11828 -1.6821 4.32836 -2.89218c0.379428 -0.379428 26.983 -29.135 32.3723 -42.7942c4.54673 -3.68799 11.1307 -24.0715 11.249 -24.3118
c0.192282 0.131952 11.4059 8.58602 11.4059 20.3407c0 9.29819 -7.80805 21.2492 -7.95059 21.4278c-0.00553611 0.00691413 -8.58241 10.6799 -8.58241 10.6799c-26.058 32.4012 -30.173 37.5178 -37.4576 44.1932c-8.51318 7.80087 -16.3162 11.4532 -24.9904 11.4532
c-6.69974 0 -14.4388 -1.14302 -37.0374 -15.0842c-23.7857 -14.6748 -63.9958 -35.2039 -67.0105 -39.8058c-3.16101 -4.8237 -20.8348 -15.4594 -38.1913 -32.8158c-8.27087 -8.27087 -13.2469 -15.3166 -13.9721 -18.7247
c-4.54126 -21.3573 -48.4598 -145.782 -60.9945 -262.967c-2.45419 -22.9459 -2.96557 -31.8197 -2.96557 -58.1048c0 -20.7498 0.536695 -43.2482 1.51412 -52.0055c7.3946 -66.2535 24.3318 -102.139 25.0627 -102.905
c3.36876 -0.154488 4.94264 -3.70152 6.22964 -6.60201c8.28609 -18.6811 11.7302 -23.3085 14.6724 -26.2506c7.84598 -7.84598 23.0233 -13.4555 77.9631 -27.7748c15.2449 -3.97272 40.4989 -11.1715 56.2299 -16.0284
c81.2083 -25.0691 102.247 -27.9751 194.974 -34.3192c18.2458 -1.24872 52.5405 -1.9935 81.7709 -1.9935c36.1384 0 100.249 2.11318 156.691 15.0308c8.86511 2.02864 14.028 3.36871 17.4236 3.36871zM493.349 11.9921
c-1.25096 -0.20484 -3.31213 0.400531 -3.49541 -0.871984c0.157005 -1.18995 1.88116 -0.812747 2.94964 -1.09122l0.307998 0.244042s0.172575 1.24266 0.237776 1.71916zM808.044 25.3605c-1.04211 0.0916966 -1.37577 -0.525063 -1.585 -1.26625
c0.914384 0.0360327 1.75886 0.14197 1.585 1.26625zM428.07 279.769c-0.214349 0.735676 -0.536614 1.36344 -1.58541 1.26466c-0.166591 -1.11662 0.664956 -1.23509 1.58541 -1.26466zM542.57 292.616c-1.04221 0.091885 -1.376 -0.524651 -1.58513 -1.26585
c0.914226 0.0361004 1.75937 0.141279 1.58513 1.26585zM171.97 343.107c0.00470755 0.160539 -0.169942 0.141722 -0.263294 0.204201c-0.00471773 -0.160549 0.169948 -0.141715 0.263294 -0.204201zM465.64 586.981c-0.841564 0 -1.36109 0.0830533 -2.63127 0.286109
c-1.30259 -16.2259 -6.75912 -23.5311 -20.4355 -30.7885c0.785346 -1.64714 1.45637 -3.0545 4.5194 -3.96896c2.26746 0.473155 5.23082 1.09152 5.92582 1.78653c1.30421 1.30421 3.71021 7.94712 11.2829 20.5114c5.77996 9.58856 6.98644 11.59 8.14055 15.5653
c-2.54532 -2.39122 -4.3564 -3.39194 -6.80195 -3.39194zM649.716 391.922l-101.123 91.6045l16.3857 12.0693l78.3506 -71.9658l139.711 176.967l22.2588 -10.2285z" />
  </g>

</svg>
