<?xml version="1.0" standalone="no"?>
<!DOCTYPE svg PUBLIC "-//W3C//DTD SVG 1.1//EN" "http://www.w3.org/Graphics/SVG/1.1/DTD/svg11.dtd" >
<svg xmlns="http://www.w3.org/2000/svg" xmlns:xlink="http://www.w3.org/1999/xlink" version="1.1" viewBox="-10 0 1043 1000">
  <g transform="matrix(1 0 0 -1 0 800)">
   <path fill="currentColor"
d="M787.69 156.43zM215.177 541.594zM108.261 344.766zM524.835 87.4199zM524.085 63.5176zM205.796 152.395zM389.292 94.668zM889.812 389.27zM108.261 344.766zM889.812 389.27zM667.048 633.805c-60.2715 12.5024 -110.026 -14.6723 -123.767 -33.779
c-0.927186 -1.2893 -1.92682 -2.67934 -4.76317 -3.71148c-15.303 -5.58157 -48.6698 -13.1623 -89.5402 5.20198c-53.5956 65.2382 -185.384 20.6162 -218.586 -57.021c-0.817053 -1.91152 -1.63411 -3.82304 -2.45116 -5.73455h-4.84426l-106.658 -144.92h-2.15052
c-0.483719 -2.05957 -0.483719 -2.05957 -0.483719 -3.57653c-0.651353 -0.67999 -0.651353 -0.67999 -13.9439 -50.5272c-0.19423 0 -0.388459 0.00856895 -0.582689 0.00856895c-0.116136 -0.89386 -0.255698 -1.78508 -0.4246 -2.71152h0.510006l-0.0784548 -10.554
c0 -38.1386 19.8674 -100.405 105.303 -171.065c97.0039 -80.2344 206.715 -89.1933 298.665 -89.1933c150.75 0 210.428 18.4483 300.15 89.3494c107.895 85.2541 110.461 110.503 113.258 167.998l-1.72189 0.0271763
c-0.194751 0.738431 -14.7945 59.6605 -19.2995 73.8891l-78.4014 133.974c-19.2367 20.0772 -85.1383 88.8581 -150.19 102.345zM253.873 533.541c21.4092 47.3349 75.9576 74.3955 120.145 74.3955c24.6053 0 39.0167 -6.93759 54.1241 -17.3345l-0.129605 -1.60405
c1.06283 -0.657442 2.21661 -1.50157 3.35828 -2.58673c33.4049 -31.7418 102.186 -30.5947 127.54 -5.23648c4.8148 4.81843 6.50333 7.6905 9.29154 16.0974c7.60388 5.18876 31.2557 21.3284 69.2356 21.3284c41.0832 0 61.0904 -18.4326 75.3461 -31.7097
c10.8349 -10.0914 24.7494 -23.0852 55.0015 -43.1568c0.901135 -0.295198 1.7648 -0.712157 2.55847 -1.23983l1.63439 0.0655628l91.0699 -143.644s0 -1.4546 -0.000152421 -1.53565c4.70575 -17.6656 17.9682 -71.0344 18.1508 -71.7517
c13.3756 -53.4416 -9.68137 -82.8457 -104.747 -160.533c-73.5502 -60.0978 -128.282 -80.9987 -287.496 -80.9987c-86.4157 0 -157.22 10.7976 -239.126 68.1303c-108.77 76.1411 -116.602 131.425 -115.185 180.831c3.57564 14.1876 15.7465 59.5412 15.9043 60.1429
l100.023 141.612zM294.141 309.749l147.063 -133.218l232.136 296.09l-24.9144 11.449l-215.839 -273.397l-121.475 111.576z" />
  </g>

</svg>
