<?xml version="1.0" standalone="no"?>
<!DOCTYPE svg PUBLIC "-//W3C//DTD SVG 1.1//EN" "http://www.w3.org/Graphics/SVG/1.1/DTD/svg11.dtd" >
<svg xmlns="http://www.w3.org/2000/svg" xmlns:xlink="http://www.w3.org/1999/xlink" version="1.1" viewBox="-10 0 1043 1000">
  <g transform="matrix(1 0 0 -1 0 800)">
   <path fill="currentColor"
d="M521.09 337.58c1.65527 -29.3887 -12.3115 -113.101 -4.0957 -117.494c8.06543 -86.7109 92.0166 -167.729 92.124 -164.602l-14.2256 -9.48438c-32.0049 34.9082 -67.7158 69.4561 -94.9287 164.047c-6.05664 -41.6494 -32.0732 -88.2998 -55.4492 -117.986
c-14.2236 -18.0635 -20.3203 -32.5137 -32.5146 -46.0605l-16.2568 12.8701c18.29 23.708 28.5557 38.9893 40.6436 54.8672c61.7168 81.0713 64.2979 187.513 63.8203 243.902c5.74316 -0.125977 11.4854 -0.25293 17.2295 -0.378906
c3.23047 -0.0703125 3.36133 -3.21191 3.41797 -4.55078c0.00683594 -0.152344 -0.209961 -7.20996 0.235352 -15.1299zM370.231 584.457h282.431v-121.525h-282.431v-17.293l303.769 0.361328l-2.73828 155.404l-301.03 0.331055v-17.2783zM514.167 716.667
c0.230469 0 0.605469 0.000976562 0.836914 0.000976562c230.002 0 417.414 -186.668 418.33 -416.668c-0.00488281 -229.996 -186.671 -416.659 -416.667 -416.659c-230 0 -416.667 186.667 -416.667 416.667c0 228.624 185.547 415.287 414.167 416.659zM514.167 -88.8887
c0.231445 -0.000976562 0.605469 -0.000976562 0.836914 -0.000976562c214.669 0 389.637 174.223 390.552 388.89c-0.00390625 214.662 -174.227 388.881 -388.889 388.881c-214.667 0 -388.889 -174.223 -388.889 -388.889c0 -213.291 173.102 -387.51 386.389 -388.881z
" />
  </g>

</svg>
