<?xml version="1.0" standalone="no"?>
<!DOCTYPE svg PUBLIC "-//W3C//DTD SVG 1.1//EN" "http://www.w3.org/Graphics/SVG/1.1/DTD/svg11.dtd" >
<svg xmlns="http://www.w3.org/2000/svg" xmlns:xlink="http://www.w3.org/1999/xlink" version="1.1" viewBox="-10 0 1095 1000">
  <g transform="matrix(1 0 0 -1 0 800)">
   <path fill="currentColor"
d="M853.461 127.259zM919.838 432.685l0.0488281 -0.0585938c-0.0166016 0.0195312 -0.0488281 0.0585938 -0.0488281 0.0585938zM731.338 193.7l0.015625 0.0947266c-0.00585938 -0.03125 -0.015625 -0.0625 -0.015625 -0.0947266zM747.95 155.462l-0.321289 0.0996094
c0.107422 -0.0341797 0.213867 -0.0673828 0.321289 -0.0996094zM753.311 154.4l-0.0703125 0.00683594c0.0126953 0 0.0244141 -0.00683594 0.0703125 -0.00683594zM958.819 123.997c-107.89 0.378906 -196.525 0.000976563 -196.543 0.00195313
c-12.1523 0.391602 -27.2314 0.87793 -40.2471 15.2969c-21.583 23.9102 -17.7842 52.9404 -16.6143 59.3447c2.37793 13.0186 6.10254 26.0918 11.5225 47.874c22.709 91.2627 25.3691 104.36 35.6992 134.517c23.542 68.4424 52.0557 91.5518 77.2207 101.798
c15.4033 5.74805 65.4072 19.3174 106.764 -26.8721c21.3018 -25.0117 38.541 -58.8779 58.8145 -140.565c7.18066 -29.8486 14.5146 -59.6406 22.0166 -89.4375c1.91113 -7.96094 3.66504 -15.9502 5.2666 -24.0215c7.89941 -38.8877 -14.6621 -78.1533 -50.9473 -77.6729z
M739.406 161.803c0.0214844 -0.0175781 0.0458984 -0.0351562 0.0458984 -0.0537109c6.64746 -7.22461 11.0596 -7.41504 23.1475 -7.93848c0 0 200.966 0.0878906 201.055 0.0869141c4.70703 -0.0664062 9.39648 0.208984 14.0781 0.830078
c9.7041 1.21191 24.2578 17.3682 19.3945 40.418c-2.24707 11.3174 -2.24707 11.3174 -11.7979 49.6699c-23.7402 97.5068 -29.1504 119.724 -45.3525 155.223c-2.96973 6.36523 -12.5029 25.4932 -25.4971 38.4883c-12.7168 12.7158 -27.084 19.4121 -43.7363 20.5645
c-20.7168 1.83105 -58.626 -1.05859 -86.6904 -70.627c-10.9863 -27.6836 -17.7246 -52.0254 -25.1475 -81.5967c-17.3037 -71.2373 -17.3037 -71.2373 -23.5723 -94.748l0.0146484 0.0634766c-0.00390625 -0.0214844 -0.0146484 -0.0634766 -0.0146484 -0.0634766
c-4.93945 -20.3105 -8.60059 -35.3662 4.07324 -50.3164zM501.829 199.896l-86.0801 74.4561l82.8906 73.1279l21.0381 -22.251l-42.4307 -35.7158l174.9 1.41406l1.61426 -30.7227l-176.762 -0.205078l44.751 -37.46zM327.065 611.28
c3.43848 -61.0859 -25.5898 -235.091 -8.5127 -244.225c16.7637 -180.238 191.267 -348.641 191.487 -342.145l-29.5684 -19.7109c-66.5244 72.5615 -140.753 144.372 -197.316 340.991c-12.5938 -86.5742 -66.6699 -183.541 -115.259 -245.248
c-29.5654 -37.5459 -42.2412 -67.583 -67.585 -95.7432l-33.792 26.751c38.0166 49.2803 59.3545 81.043 84.4805 114.049c128.286 168.514 133.652 389.767 132.657 506.979c11.9375 -0.263672 23.875 -0.526367 35.8135 -0.790039
c6.71582 -0.144531 6.98926 -6.67188 7.10547 -9.46094c0.0136719 -0.313477 -0.4375 -14.9805 0.489258 -31.4473zM632.867 717.345l-248.835 -280.771l32.6035 -25.9805l211.969 246.287c17.6074 -29.1953 42.7334 -63.7109 51.0986 -86.3682l59.4824 84.8145z" />
  </g>

</svg>
