<?xml version="1.0" standalone="no"?>
<!DOCTYPE svg PUBLIC "-//W3C//DTD SVG 1.1//EN" "http://www.w3.org/Graphics/SVG/1.1/DTD/svg11.dtd" >
<svg xmlns="http://www.w3.org/2000/svg" xmlns:xlink="http://www.w3.org/1999/xlink" version="1.1" viewBox="-10 0 1007 1000">
  <g transform="matrix(1 0 0 -1 0 800)">
   <path fill="currentColor"
d="M631.15 468.755c3.29395 -58.502 -23.1523 -227.396 -11.1504 -245.755c0.568359 -0.336914 2.21289 -1.50391 2.42969 -3.83594c13.5869 -146.08 130.849 -285.969 176.319 -331.438c9.57422 -9.5752 15.7832 -14.3779 15.7832 -14.3779l-4.8252 -1.17188
l-1.41113 -3.22852l7.7666 -4.33398l-30.2393 -20.1602c-2.00586 -1.33691 -4.75977 -1.06641 -6.45801 0.786133c-4.0332 4.39941 -8.09766 8.7998 -12.1895 13.2285c-62.5107 67.6748 -130.94 141.99 -184.726 317.293
c-17.8584 -84.1553 -68.8916 -173.57 -115.146 -232.313c-27.4678 -34.8828 -50.6768 -79.5273 -69.5166 -98.3662c-1.81152 -1.8125 -4.67285 -1.94141 -6.63477 -0.388672c-20.4053 16.1543 -34.6797 27.4326 -34.9951 27.749
c-1.79688 1.79688 -1.93945 4.625 -0.427734 6.58496c28.9385 37.5137 73.4941 99.6875 86.3809 116.614c129.99 170.753 135.672 395.707 134.654 515.435c-0.0234375 2.82227 2.28711 5.10352 5.11035 5.04102l36.625 -0.808594
c3.28711 -0.0703125 12.4248 -1.51367 12.1465 -15.4082c-0.0595703 -3.00391 -0.326172 -16.3945 0.503906 -31.1445zM654.771 707.315c-24.9845 0 -44.6638 -1.44544 -65.3463 -3.90657c-9.6567 14.1387 -17.1715 22.0037 -25.837 30.3637
c-20.609 19.8819 -76.3215 34.3144 -129.546 34.3144c-36.0185 0 -74.1655 -6.24255 -107.769 -22.1435c-6.93772 -3.28337 -23.4303 -11.0887 -42.4716 -37.7901c-23.5193 2.34945 -41.3793 3.06742 -59.5706 3.06742c-35.5549 0 -73.2845 -3.30578 -106.586 -11.6899
c-13.239 -3.33401 -33.955 -10.96 -49.4627 -26.4677c-6.76482 -6.76482 -9.25624 -13.7329 -9.25624 -20.8854c0 -16.4454 14.251 -32.9 17.1615 -35.8105c7.31277 -7.31277 18.4236 -12.7059 26.1802 -16.3841c26.2789 -12.4595 75.2146 -18.0212 122.413 -18.0212
c26.6477 0 49.5554 1.53522 72.0159 4.40557c4.7234 -5.05316 7.56014 -7.93122 13.8035 -13.4939c36.93 -32.9091 112.035 -33.8746 126.501 -33.8746c41.6469 0 81.8036 7.55408 104.289 20.7955c12.5363 7.38343 21.797 15.0321 31.5189 24.4078
c26.5927 -4.3547 53.3321 -6.20424 82.6579 -6.20424c41.223 0 81.1473 4.17442 103.27 11.1067c28.0723 8.79629 46.0302 20.3242 56.5726 30.8666c9.45593 9.45593 12.7386 18.0603 12.8033 22.7626c0 0.0470422 0.000488282 0.0940844 0.000488282 0.141127
c-0.000973387 7.5939 -11.7276 21.0131 -15.5392 24.8247c-7.74884 7.74884 -17.5272 14.1838 -31.7643 21.4922c-18.5767 9.53605 -69.5908 18.1235 -126.038 18.1235zM777.039 643.437c0 -15.6074 -59.7946 -34.9394 -132.989 -34.9394
c-22.3994 0 -35.0695 1.6386 -49.0421 3.48935c7.89159 15.1724 11.5716 23.1618 13.8641 38.8204c0.794338 1.12278 1.37917 1.94943 1.37917 3.20881c0 2.05243 -0.947307 1.39195 -1.65178 3.92648c-1.13257 4.07469 -1.31609 4.69403 -4.16575 13.9427
c18.2679 1.75161 35.1733 3.0712 60.0089 3.0712c37.0311 0 71.0015 -3.12276 86.3675 -10.8068c22.6155 -11.3078 25.6478 -15.9637 26.2292 -20.3828v-0.329856zM276.669 622.345v-5.19167c-29.8987 -4.26306 -48.0393 -4.57103 -61.0557 -4.57103
c-32.4639 0 -63.6111 3.85581 -84.2138 13.2061c-24.537 11.1367 -27.2715 18.1784 -27.2715 22.454c0 3.01326 0.968391 6.65079 3.78734 9.46974c12.5442 12.5442 70.6657 21.4209 129.437 21.4209c8.45672 0 14.9593 -0.0358703 32.6695 -1.00764
c-1.03711 -8.18677 -1.28864 -10.1723 -1.28864 -15.2687c0 -12.7892 2.77533 -25.7577 7.93555 -40.5117zM533.128 644.243c0 2.47017 1.29711 3.80044 2.00128 4.50461c4.76153 4.76153 17.2935 8.19454 27.0499 11.4806c4.1153 1.38607 7.94332 2.48018 9.51831 3.08337
l0.0463765 -6.88277l2.63029 -1.36093c-1.56463 -0.0872558 -6.92768 -0.897978 -16.6843 -2.68783c-0.547578 -10.5081 -4.49192 -16.7356 -9.48753 -24.6228c-8.93543 5.94774 -15.0744 10.0341 -15.0744 16.4858zM487.925 648.178
c0 -12.9579 9.95286 -30.0188 20.7459 -38.9941h21.8221l-21.54 -9.56807c-24.2984 -10.7933 -54.2873 -16.7005 -83.1305 -16.7005c-24.1091 0 -47.5094 4.11281 -66.1417 13.4073l-8.83047 4.40499c15.2626 7.85472 25.3856 13.0644 35.4556 23.1344
c12.2334 12.2334 12.8129 21.1128 12.8129 22.7438c0 0.170683 -0.00634619 0.261983 -0.00634619 0.269437c0 6.34173 -9.53579 18.8817 -15.4151 24.7591c-13.7504 13.7504 -33.6185 22.4184 -45.2284 27.4835c18.1201 8.03319 49.9429 22.1412 107.521 22.1412
c37.9024 0 70.3013 -7.35506 84.0439 -20.2682c1.31742 -1.23909 1.31742 -1.23909 8.02935 -7.70526c-14.2928 -5.66901 -50.1387 -19.8867 -50.1387 -45.1076zM325.004 629.739h-4.99902v3.67974c-3.88692 7.06983 -5.90137 14.4777 -5.90137 22.6914
c0 3.6709 0.0367046 4.19501 1.55903 15.1152c18.0824 -9.04888 32.3765 -16.2217 32.3765 -23.789c0 -8.64444 -20.3817 -17.6973 -23.0352 -17.6973z" />
  </g>

</svg>
