<?xml version="1.0" standalone="no"?>
<!DOCTYPE svg PUBLIC "-//W3C//DTD SVG 1.1//EN" "http://www.w3.org/Graphics/SVG/1.1/DTD/svg11.dtd" >
<svg xmlns="http://www.w3.org/2000/svg" xmlns:xlink="http://www.w3.org/1999/xlink" version="1.1" viewBox="-10 0 910 1000">
  <g transform="matrix(1 0 0 -1 0 800)">
   <path fill="currentColor"
d="M570.714 6.47168v42.7764h64.377v51.7822h-64.377v42.7754h64.377v56.1914h37.3066v-56.1914h53.6973v52.0898h37.3066v-52.0898h68.8203v-42.7754h-68.8203v-51.7822h68.8203v-42.7764h-68.8203v-60.3096h-37.3066v60.3096h-53.6973v-56.208h-37.3066v56.208h-64.377z
M699 249l-126.38 228.785l26.2793 11.1016l100.896 -173.313l91.9844 175.016l31.3057 -12.6777zM726.095 101.03h-53.6973v-51.7822h53.6973v51.7822zM213.918 543.671l-36.4795 16.0264l15.3125 -35.1475l123.959 -0.444336l10.6318 33.46l-36.665 -16.2949
l-37.585 48.293zM287.344 549.475l0.259766 0.741211l9.90918 -3.47656l-0.259766 -0.741211zM336.114 501.422h-160.724l-39.7842 100.475l71.8311 -30.1104l45.1113 56.4141l44.2725 -57.3115l70.6572 30.0508zM178.986 506.72l-3.58789 -2.87988l2.23828 -1.51953z
M251.903 680.228c-83.1797 0 -151.201 -52.5801 -151.201 -117.182c0 -64.6064 68.0303 -117.182 151.201 -117.182c83.1797 0 151.201 52.5791 151.201 117.182c0 64.6064 -68.0293 117.182 -151.201 117.182zM251.903 420.667
c-99.9873 0 -180.178 64.2422 -180.178 143.638c0 79.3994 80.1943 143.64 180.178 143.64c99.9883 0 180.179 -64.2432 180.179 -143.64c0 -79.3984 -80.1943 -143.638 -180.179 -143.638z" />
  </g>

</svg>
