<?xml version="1.0" standalone="no"?>
<!DOCTYPE svg PUBLIC "-//W3C//DTD SVG 1.1//EN" "http://www.w3.org/Graphics/SVG/1.1/DTD/svg11.dtd" >
<svg xmlns="http://www.w3.org/2000/svg" xmlns:xlink="http://www.w3.org/1999/xlink" version="1.1" viewBox="-10 0 1011 1000">
  <g transform="matrix(1 0 0 -1 0 800)">
   <path fill="currentColor"
d="M246.004 635.571c0 0.25293 -0.654297 20.3301 -0.654297 25.2422c0 3.63379 0.0712891 7.00684 0.0712891 7.07715c0 2.77637 -0.420898 24.8496 -3.5166 24.918l-25.541 0.563477c0.0322266 -4.19141 0.00683594 -28.0264 -0.0439453 -32.543
c-1.02539 -92.7402 -23.9766 -173.209 -91.7734 -301.166c-0.500977 -0.946289 -48.9121 -66.8066 -63.6758 -86.0195c2.02051 -1.60742 2.02051 -1.60742 23.1338 -18.3223c13.2979 14.2188 30.5361 46.6787 50.5342 72.0742
c34.2539 43.5029 72.1592 110.094 85.2822 171.934l4.50781 21.2412l6.36914 -20.7588c40.0732 -130.611 90.4873 -185.129 137.303 -235.812l8.06641 -8.75391l13.6826 9.12207l-2.24316 1.25195c0.901367 2.0625 4.32227 4.62305 2.7041 6.1875
c-23.4443 22.6719 -96.1211 129.68 -140.413 257.422c-0.335938 0.96875 -4.2998 3.37305 -4.2998 22.627c0 37.2656 0.506836 44.1162 0.506836 83.7148zM390.21 271.808c0.505859 1.15625 1.00977 2.31055 1.51562 3.4668
c2.10742 0.511719 4.21484 1.02344 6.32227 1.53613l-1.70508 -8.04688l1.07031 0.713867l0.376953 -9.5957c-2.68066 1.49609 -5.36133 2.99121 -8.04102 4.48633l5.10449 3.40332c-0.972656 0.800781 -2.56152 2.14551 -4.64355 4.03613zM376.066 255.246l1.0332 -1.12402
l-2.36523 0.236328zM84.0039 255.321c0.439453 -0.347656 0.883789 -0.698242 1.33105 -1.05273l-2.48926 -0.146484c0.380859 0.380859 0.767578 0.78125 1.1582 1.19922zM60.8701 273.644c-0.379883 -0.494141 -0.757812 -0.985352 -1.13184 -1.4707
c0 0 -0.15332 2.46484 -0.15918 2.4707c0.285156 -0.230469 0.74707 -0.566406 1.29102 -1zM216.363 693.372l-1.93164 0.0429688c1.05176 0.216797 1.70605 0.830078 1.91602 1.88867c0.00488281 -0.639648 0.015625 -1.2832 0.015625 -1.93164zM579.969 498.482z
M579.664 502.083zM799.771 539.56c0 27.916 -9.09766 55.1445 -32.7559 78.8018c-10.5928 10.5938 -19.5215 17.9502 -27.7207 23.0244c48.2373 -8.5957 111.058 -30.9189 152.159 -102.271c-8.92676 -15.4648 -19.6758 -29.4941 -32.332 -42.1504
c-27.7256 -27.7266 -66.4531 -50.4941 -117.685 -59.9307c-0.641602 -0.118164 -0.416992 0.77832 -2.47168 0.165039c-1.36035 -0.40625 -5.40625 -1.61523 -11.2002 -2.61719c12.4619 4.9082 25.7266 12.9785 38.7744 26.0254
c23.0928 23.0938 33.2314 49.8184 33.2314 78.9531zM684.992 620.546c31.3926 0 49.5361 -15.0654 59.29 -24.8184c20.5645 -20.5645 23.4873 -42.2051 23.4873 -56.4883c-0.0712891 -20.4609 -6.96875 -39.3965 -23.4824 -55.9082
c-33.5166 -33.5176 -73.46 -25.959 -91.541 -18.1475c-0.172852 0 -25.4463 16.6748 -25.7031 16.8438c-6.58691 9.58691 -13.0605 19.2871 -19.6035 28.918l-0.0654297 -0.0244141c-10.6104 29.373 -5.48145 61.3828 18.502 85.3682
c16.5459 16.5459 36.3076 24.2568 59.1162 24.2568zM690.142 680.232v0.000976563c-29.9844 0 -129.284 -1.43262 -209.368 -81.5176c-17.8584 -17.8574 -31.9531 -37.166 -44.5664 -59.6016c-0.0439453 -0.0761719 -0.0859375 -0.152344 -0.128906 -0.230469
l0.128906 0.230469c14.2861 -25.4121 28.8906 -44.0781 45.8145 -61.002c38.8213 -38.8213 104.279 -80.4473 208.12 -80.4473c26.751 0 127.969 0.47168 208.057 80.5586c18.2686 18.2695 32.6143 38.0078 45.3213 60.8887
c0.0429688 0.0761719 0.0839844 0.152344 0.125977 0.226562l-0.125977 -0.226562c-6.78906 12.2324 -18.9053 37.6973 -44.4619 59.7666c-79.377 68.5449 -177.316 82.0332 -208.916 81.3535zM639.05 436.797c-83.5322 15.1885 -126.478 60.2158 -150.77 102.315
c10.3799 17.9121 22.0957 31.7695 32.3535 42.0283c24.1104 24.1104 60.1279 48.1895 112.411 58.9014c-9.92871 -4.87109 -20.2686 -11.8047 -30.1621 -21.6982c-38.1523 -38.1523 -37.583 -86.1904 -25.3975 -118.062
c0.185547 -0.27832 0.106445 -0.457031 -0.179688 -0.556641c-0.461914 -2.45508 6.68457 -14.5898 7.85742 -17.5781c1.46094 -3.72461 3.19727 -5.53125 5.98828 -8.05273c1.9541 -1.76172 1.9873 -1.79785 3.31641 -4.01562
c1.99121 -3.32227 2.08105 -3.5127 10.79 -12.2207c6.85156 -6.85156 22.8926 -16.9629 33.792 -21.0615zM870.438 143.903l97.5576 84.3828l-93.9424 82.8789l-23.8428 -25.2188l48.0869 -40.4766l-290.466 5.34961l-1.83105 -34.8193l292.577 -3.98047l-50.7178 -42.4531z
" />
  </g>

</svg>
