<?xml version="1.0" standalone="no"?>
<!DOCTYPE svg PUBLIC "-//W3C//DTD SVG 1.1//EN" "http://www.w3.org/Graphics/SVG/1.1/DTD/svg11.dtd" >
<svg xmlns="http://www.w3.org/2000/svg" xmlns:xlink="http://www.w3.org/1999/xlink" version="1.1" viewBox="-10 0 961 1000">
  <g transform="matrix(1 0 0 -1 0 800)">
   <path fill="currentColor"
d="M218.911 554.396zM218.606 550.796zM438.713 513.319c0 -27.916 -9.09766 -55.1445 -32.7559 -78.8018c-10.5928 -10.5938 -19.5215 -17.9502 -27.7207 -23.0244c48.2373 8.5957 111.058 30.9189 152.159 102.271c-8.92676 15.4648 -19.6758 29.4941 -32.332 42.1504
c-27.7256 27.7266 -66.4531 50.4941 -117.685 59.9307c-0.641602 0.118164 -0.416992 -0.77832 -2.47168 -0.165039c-1.36035 0.40625 -5.40625 1.61523 -11.2002 2.61719c12.4619 -4.9082 25.7266 -12.9785 38.7744 -26.0254
c23.0928 -23.0938 33.2314 -49.8184 33.2314 -78.9531zM323.935 432.333c31.3926 0 49.5361 15.0654 59.29 24.8184c20.5645 20.5645 23.4873 42.2051 23.4873 56.4883c-0.0712891 20.4609 -6.96875 39.3965 -23.4824 55.9082
c-33.5166 33.5176 -73.46 25.959 -91.541 18.1475c-0.172852 0 -25.4463 -16.6748 -25.7031 -16.8438c-6.58691 -9.58691 -13.0605 -19.2871 -19.6035 -28.918l-0.0654297 0.0244141c-10.6104 -29.373 -5.48145 -61.3828 18.502 -85.3682
c16.5459 -16.5459 36.3076 -24.2568 59.1162 -24.2568zM329.084 372.646v-0.000976563c-29.9844 0 -129.284 1.43262 -209.368 81.5176c-17.8584 17.8574 -31.9531 37.166 -44.5664 59.6016c-0.0439453 0.0761719 -0.0859375 0.152344 -0.128906 0.230469
l0.128906 -0.230469c14.2861 25.4121 28.8906 44.0781 45.8145 61.002c38.8213 38.8213 104.279 80.4473 208.12 80.4473c26.751 0 127.969 -0.47168 208.057 -80.5586c18.2686 -18.2695 32.6143 -38.0078 45.3213 -60.8887
c0.0429688 -0.0761719 0.0839844 -0.152344 0.125977 -0.226562l-0.125977 0.226562c-6.78906 -12.2324 -20.585 -35.8896 -44.4619 -59.7666c-79.3779 -79.3779 -177.316 -81.3535 -208.916 -81.3535zM277.992 616.082
c-83.5322 -15.1885 -126.478 -60.2158 -150.77 -102.315c10.3799 -17.9121 22.0957 -31.7695 32.3535 -42.0283c24.1104 -24.1104 60.1279 -48.1895 112.411 -58.9014c-9.92871 4.87109 -20.2686 11.8047 -30.1621 21.6982
c-38.1523 38.1523 -37.583 86.1904 -25.3975 118.062c0.185547 0.27832 0.106445 0.457031 -0.179688 0.556641c-0.461914 2.45508 6.68457 14.5898 7.85742 17.5781c1.46094 3.72461 3.19727 5.53125 5.98828 8.05273c1.9541 1.76172 1.9873 1.79785 3.31641 4.01562
c1.99121 3.32227 2.08105 3.5127 10.79 12.2207c6.85156 6.85156 22.8926 16.9629 33.792 21.0615zM903.6 272.944l-131.349 113.611l-23.2129 -26.3848l84.4912 -70.7236l-307.316 -0.357422l1.90137 -36.1582l305.144 2.46484l-80.5625 -67.8115l24.624 -26.0479z" />
  </g>

</svg>
