<?xml version="1.0" standalone="no"?>
<!DOCTYPE svg PUBLIC "-//W3C//DTD SVG 1.1//EN" "http://www.w3.org/Graphics/SVG/1.1/DTD/svg11.dtd" >
<svg xmlns="http://www.w3.org/2000/svg" xmlns:xlink="http://www.w3.org/1999/xlink" version="1.1" viewBox="-10 0 1020 1000">
  <g transform="matrix(1 0 0 -1 0 800)">
   <path fill="currentColor"
d="M30.3242 741.553h55.5146l17.1611 52.2256l17.1602 -52.2256h55.5156l-44.8672 -32.2959l17.1611 -52.2246l-44.9697 32.2959l-44.9707 -32.2959l17.1611 52.2246zM271 608l-12 60c128.725 89.7881 355.203 55.3633 442.457 48.5605
c0 -0.0107422 0.000976562 -0.0214844 0.000976562 -0.0322266c27.4463 0.582031 75.1855 -1.32129 107.268 -33.4033c40.1396 -40.1396 38.6152 -108.841 37.5254 -169.365c-0.395508 -21.9258 -0.433594 -33.2402 -0.22168 -41.9463
c26.3789 -43.8281 72.168 -89.959 89.3252 -129.607c6.95117 -16.0635 5.49219 -24.7637 2.64551 -40.2051l-12 -14l-79.501 -63.5771v-212.431c1.93945 -31.0869 1.82422 -79.2412 -27.416 -108.48c-26.0322 -26.0322 -182.507 -12.0195 -220.584 -13.0049
l-2.90137 0.0126953c-103.732 -7.2998 -296.108 50.6025 -326.603 92.1719c-18.5059 25.2275 -31.4014 41.2529 -57.9951 55.3086v70.0371c25.8174 -16.2627 49.624 -17.8066 70.1904 -60.6357c44.2188 -92.082 349.455 -105.734 451.309 -108.438l-0.499023 -0.962891
c50 12 34.1514 4.48145 42.5352 13.5361c19.1768 20.7119 3.97852 41.9688 5.50781 57.9648h-0.541992v2.14941c-0.253906 0.990234 -0.500977 1.94141 -0.738281 2.84863h0.738281v207.174v3.4873v1.33887h1.58203l104 88h1.13281
c4.9834 45.8955 -62.8379 92.1289 -94.2158 139.501l-3 4l-1 1c-2.02051 3.99219 0.0439453 4.02539 -2.08398 11.5605c-0.0371094 0.130859 -0.189453 0.24707 -0.174805 0.367188l0.258789 2.07227l0.0644531 1.49902
c0.00976562 0.226562 0.150391 3.89551 0.242188 6.24414c3.11426 79.1523 5.19727 173.389 -83.8154 173.771c-136.35 16.7461 -373.536 9.53418 -431.49 -46.5137zM509.221 545.67l-65.5 -66.1494l71.2793 -65.5205l-9.2793 -7.72949l-71.3604 65.6895l-64.54 -65.6895
l-6.74023 7.36914l63.7207 64.8008l-62.6406 65.1592l8.28027 7.9209l63.3604 -63l66.2393 63.3594zM293.601 370.565v10h300v-10h-300zM528.602 191.492c-0.249023 -1.24023 -0.676758 -3.36914 -1.4668 -7.0166c0.661133 0.0878906 1.52344 0.176758 2.83594 -0.173828
c-0.186523 0.917969 -0.975586 4.96582 -1.36914 7.19043zM540.379 193.806c9.96777 -56.375 35.7715 -100.468 83.3418 -138.285c1.9248 -1.53027 2.5918 -4.22852 2.07031 -6.21875l-3.0752 -11.7256c-0.875 -3.33594 -4.51953 -5.27832 -7.77637 -4.14355
c-0.628906 0.21875 -1.66406 0.891602 -1.76855 0.974609c-42.3945 33.8008 -70.8301 74.7939 -85.1084 120.88c-14.8965 -46.7998 -41.0098 -94.9521 -66.1641 -119.301c-2.47852 -2.39844 -6.60156 -2.16895 -8.79883 0.489258
c-0.37207 0.450195 -0.759766 1.15039 -0.90332 1.49219l-4.99414 11.8535c-0.961914 2.28223 -0.288086 4.98242 1.26562 6.55176c53.2285 53.7539 79.3271 134.664 77.0439 249.185c-0.0703125 3.51074 3.02539 6.22754 6.20703 6.11621l7.94531 -0.276367
c10.8711 -0.293945 6.01465 -20.9531 6.01465 -20.9531c0 -27.0312 -4.83691 -90.5918 -5.2998 -96.6387z" />
  </g>

</svg>
