<?xml version="1.0" standalone="no"?>
<!DOCTYPE svg PUBLIC "-//W3C//DTD SVG 1.1//EN" "http://www.w3.org/Graphics/SVG/1.1/DTD/svg11.dtd" >
<svg xmlns="http://www.w3.org/2000/svg" xmlns:xlink="http://www.w3.org/1999/xlink" version="1.1" viewBox="-10 0 1033 1000">
  <g transform="matrix(1 0 0 -1 0 800)">
   <path fill="currentColor"
d="M825.672 477.586c0 9.49902 0.360352 25.4824 0.360352 28.9053l-0.318359 61.375l-8.69434 54.7793l-24.0586 41.7607l-29.835 19.125l-33.9414 8.02539c-15.9834 0.617188 -31.9668 1.23438 -47.9502 1.85059v0.765625l-107.704 8.96191l-161.613 -4.84375
l-135.512 -48.0117l4.97461 -24.8711l90.1514 34.2031l168.52 13.9912l163.858 -8.05859l72.0586 -32.085l24.6855 -76.583c-11.2969 -92.7236 -11.5391 -94.709 -10.623 -98.1973c0.272461 -1.03711 0.408203 -1.9873 0.495117 -2.92188
c0.488281 -0.641602 1.13477 -1.58496 1.48633 -2.05664l30.4463 -40.7334l38.0439 -60.0674c7.97656 -11.168 15.9531 -22.335 23.9297 -33.502l-96.7109 -80.25l-3.2002 -219.288c0.962891 -7.5625 2.78418 -22.0117 5.01758 -45.877
c-0.128906 -0.270508 -9.65137 -20.9678 -12.835 -27.0205c-1.80566 -3.43262 -3.36328 -6.39453 -8.94434 -11.126c-28.7256 -6.87109 -37.6748 -9.0127 -53.7939 -9.0127c-3.38379 0 -6.77832 0.143555 -10.1738 0.446289l-127.95 -3.2207l-189.706 31.9736
l-119.909 72.0264c-7.29102 10.5146 -14.582 21.0303 -21.873 31.5449c-0.186523 0.126953 -14.9541 10.3477 -18.583 12.6523v-31.4629c5.41699 -3.87207 13.5068 -7.36328 24.4395 -17.251c7.32715 -6.625 2.0957 -4.45605 10.624 -11.9258
c1.03027 -0.902344 1.03027 -0.902344 17.2012 -21.8066l70.2637 -41.1387l123.979 -35.7695l40.835 -3.74512c52.8262 -4.9082 60.4834 -15.5762 83.0469 -7.42773c16.6016 5.99512 68.0801 -1.97266 68.0801 -1.97266l89.7607 0.253906l51.1064 12.4922l15.1377 25.207
l6.27637 34.1602l-0.268555 82.9482l0.0292969 84.2285l-0.00585938 87.5186l84.7832 67.8018l7.68652 8.9668l1.11426 7.19531c0.449219 7.6123 -1.52441 12.8027 -3.31152 18.1787l-23.3311 38.8438l-33.0244 43.4482l-34.3174 48.9014
c-0.203125 16.1299 -0.203125 16.1299 -0.203125 17.6953zM27.5977 735.267h55.5146l17.1611 52.2256l17.1602 -52.2256h55.5156l-44.8672 -32.2959l17.1611 -52.2246l-44.9697 32.2959l-44.9707 -32.2959l17.1611 52.2246zM574.453 345.366zM444.925 432.508z
M420.736 387.977zM514.984 329.753zM514.813 324.346zM442.803 344.453zM484.317 331.393zM597.557 398.045zM420.736 387.977zM597.557 398.045zM600.746 401.08c1.66992 -5.05957 2.74512 -10.5342 4.15039 -15.7793l0.979492 -0.015625
c-0.745117 -15.7139 -1.02539 -21.6318 -26.542 -41.7939c-18.9873 -15.0039 -32.8887 -20.2881 -64.4854 -20.6445c-21.7354 -0.245117 -49.416 0.568359 -73.6816 20.6387c-9.5625 7.9082 -24.7412 23.2148 -24.6006 40.6006h-0.680664
c0.744141 2.78711 0.744141 2.78711 0.814453 4.92676l0.498047 -0.0078125l2.13086 7.99023h-0.935547c0.485352 0.660156 0.97168 1.31934 1.45703 1.97852v2.24512h1.65234l24.1309 32.7881h0.765625c8.34961 19.5234 40.335 28.9277 52.7578 13.8047
c1.76367 -0.792969 9.76367 -3.98438 18.1875 -0.913086c4.33887 5.80762 16.5312 11.4121 30.251 8.56738c13.2695 -2.75195 26.6553 -15.0957 32.5283 -21.1064h0.28125c0.208008 -0.304688 0.349609 -0.654297 0.609375 -0.920898l1.8457 -1.92578l17.6191 -30.1084
c0.262695 0.0224609 0.470703 0.00585938 0.428711 -0.185547zM428.842 385.141c-0.292969 -10.0195 0.816406 -21.9355 25.1504 -38.9707c20.6494 -14.4541 37.7598 -15.4922 61.25 -14.9102c27.3682 0.704102 38.7891 4.22168 55.3154 17.7266
c21.9766 17.959 25.6182 23.5879 22.9756 34.1377l-3.49512 13.9512l-0.12793 -0.229492c0.0078125 0.844727 -0.557617 1.91797 -0.549805 2.7627l-19.6104 30.9297c-0.526367 -0.0205078 -0.105469 0.458008 -0.631836 0.4375
c-12.1387 8.00293 -13.4326 11.4697 -17.9678 14.1436c-6.98145 4.11719 -17.7158 3.28809 -24.5508 -1.37598c-3.40137 -10.248 -24.5098 -11.8896 -34.2363 -2.64844c-0.90625 0.861328 -1.57422 0.381836 -1.48926 1.43848
c-10.3965 7.1543 -29.8711 -0.0537109 -35.374 -13.0146l-0.666992 -1.57129l-1.1123 0.428711l-21.4463 -30.3623zM641.166 344.253c-0.132812 -6.50977 0.374023 -7.02148 0.104492 -13.8213c3.32715 0.482422 7.33691 0.0244141 11.5469 -2.51074
c9.48926 5.8877 18.2236 0.888672 20.9268 -1.92383c4.55762 -4.74316 8.29297 -15.9004 -2.24121 -26.1875c-11.0322 -10.7725 -12.5488 -12.1846 -13.0752 -12.6494c-3.14258 -2.97949 -8.06445 -2.96875 -11.209 0.0771484l-8.77734 8.5
c-0.0117188 -0.151367 -1.05078 -14.0557 0.0859375 -15.1934c0.457031 -0.457031 0.670898 -1.0918 0.714844 -1.62598c3.50293 -37.6562 37.4375 -74.1289 43.9688 -79.4346c0.015625 -0.00390625 0.732422 -0.210938 1.12402 -1.25098l2.49219 -1.38965
l-12.0205 -8.01367c-1.46484 1.58887 -2.92773 3.17871 -4.3916 4.76758c-13.9844 15.1406 -29.4375 31.9795 -41.8066 69.4961c-5.04297 -18.3418 -15.9189 -36.9316 -25.876 -49.5771c-8.49805 -10.793 -7.93262 -13.751 -17.9199 -24.8477l-12.0967 9.57617
c7.35645 9.53613 21.5381 28.998 21.7588 29.2881c31.7461 41.7031 31.2979 97.6748 31.0898 122.098c3.76562 -0.0830078 7.53125 -0.166016 11.2959 -0.249023c2.38965 -0.0507812 4.37207 -1.79297 4.30566 -5.12793zM662.144 317.034
c-3.54785 0 -4.58398 -4.82812 -9.25488 -4.82812c-2.5625 0 -4.11328 1.55273 -4.83594 2.27441c-3.42188 2.75293 -3.82715 2.97266 -6.18164 1.89355c-0.0117188 -0.0117188 -0.0244141 -0.0185547 -0.0390625 -0.0185547
c-0.101562 -0.290039 -0.277344 -0.895508 -0.706055 -2.36816l-0.0390625 0.348633c0.00683594 -0.09375 0.0185547 -0.210938 0.0390625 -0.348633c0.133789 -0.844727 0.647461 -2.45312 2.54688 -4.28613l9.22559 -8.89844l9.13086 8.78711
c1.15234 1.1582 2.69824 2.90527 2.72852 4.94824c-0.0527344 0.27832 -0.447266 1.27051 -0.680664 1.77441l0.298828 -0.158203c-0.046875 0.0351562 -0.154297 0.0908203 -0.298828 0.158203c-0.535156 0.246094 -1.5791 0.65332 -1.93359 0.72168zM347.452 461.92
l-79.2773 -75.8301l-76.0312 75.5996l-12.8994 -12.3369l75.2109 -78.2363l-76.3887 -77.6846l14.2109 -15.5391l77.7227 79.1074l85.4912 -78.6982l14.4014 11.9971l-85.6992 78.7744l78.7051 79.4863z" />
  </g>

</svg>
