<?xml version="1.0" standalone="no"?>
<!DOCTYPE svg PUBLIC "-//W3C//DTD SVG 1.1//EN" "http://www.w3.org/Graphics/SVG/1.1/DTD/svg11.dtd" >
<svg xmlns="http://www.w3.org/2000/svg" xmlns:xlink="http://www.w3.org/1999/xlink" version="1.1" viewBox="-10 0 1077 1000">
  <g transform="matrix(1 0 0 -1 0 800)">
   <path fill="currentColor"
d="M30.3242 741.553h55.5146l17.1611 52.2256l17.1602 -52.2256h55.5156l-44.8672 -32.2959l17.1611 -52.2246l-44.9697 32.2959l-44.9707 -32.2959l17.1611 52.2246zM271 608l-12 60c128.725 89.7881 355.203 55.3633 442.457 48.5605
c0 -0.0107422 0.000976562 -0.0214844 0.000976562 -0.0322266c27.4463 0.582031 75.1855 -1.32129 107.268 -33.4033c40.1396 -40.1396 38.6152 -108.841 37.5254 -169.365c-0.395508 -21.9258 -0.433594 -33.2402 -0.22168 -41.9463
c26.3789 -43.8281 72.168 -89.959 89.3252 -129.607c6.95117 -16.0635 5.49219 -24.7637 2.64551 -40.2051l-12 -14l-79.501 -63.5771v-212.431c1.93945 -31.0869 1.82422 -79.2412 -27.416 -108.48c-26.0322 -26.0322 -182.507 -12.0195 -220.584 -13.0049
l-2.90137 0.0126953c-103.732 -7.2998 -296.108 50.6025 -326.603 92.1719c-18.5059 25.2275 -31.4014 41.2529 -57.9951 55.3086v70.0371c25.8174 -16.2627 49.624 -17.8066 70.1904 -60.6357c44.2188 -92.082 349.455 -105.734 451.309 -108.438l-0.499023 -0.962891
c50 12 34.1514 4.48145 42.5352 13.5361c19.1768 20.7119 3.97852 41.9688 5.50781 57.9648h-0.541992v2.14941c-0.253906 0.990234 -0.500977 1.94141 -0.738281 2.84863h0.738281v207.174v3.4873v1.33887h1.58203l104 88h1.13281
c4.9834 45.8955 -62.8379 92.1289 -94.2158 139.501l-3 4l-1 1c-2.02051 3.99219 0.0439453 4.02539 -2.08398 11.5605c-0.0371094 0.130859 -0.189453 0.24707 -0.174805 0.367188l0.258789 2.07227l0.0644531 1.49902
c0.00976562 0.226562 0.150391 3.89551 0.242188 6.24414c3.11426 79.1523 5.19727 173.389 -83.8154 173.771c-136.35 16.7461 -373.536 9.53418 -431.49 -46.5137zM473.124 203.451zM472.926 201.107zM613.775 176.71c0 18.3662 -6.3252 35.0771 -20.9199 49.6729
c-8.25977 8.25879 -16.5996 13.3203 -24.4131 16.3975l-22.1748 8.7334c27.3906 -4.73145 27.3906 -4.73145 30.9873 -5.80469c0.395508 0.135742 0.912109 0.241211 1.43066 0.146484c33.834 -6.2334 59.5068 -21.3008 77.8936 -39.6895
c9.52637 -9.52539 16.0596 -18.6299 22.1406 -29.165c-15.8516 -27.5156 -42.9521 -58.5596 -101.443 -68.9814l-12.5742 -2.24121c11.3652 6.97559 17.7021 10.3936 28.4639 21.3594c14.9297 14.9297 20.6094 31.9561 20.6094 49.5723zM541.495 121.547
c-15.4326 0 -28.9932 5.28711 -40.2109 16.5068c-16.3096 16.3105 -19.8076 38.2168 -12.6143 58.1328l0.834961 2.31152l0.556641 -0.205078c11.3066 16.6875 11.3066 16.6875 11.9688 17.6504c17.6709 11.5693 17.6709 11.5693 17.9043 11.5977
c12.4795 5.24805 39.3633 10.0264 61.8867 -12.499c11.1992 -11.1992 15.9541 -24.2275 16.0029 -38.123c0 -9.65332 -2.04492 -24.5391 -16.0049 -38.5c-6.55273 -6.55273 -19.0273 -16.8721 -40.3242 -16.8721zM707 177
c-8.68066 15.4072 -50.9131 89.6436 -162.153 89.6436c-66.8965 0 -108.853 -26.751 -133.76 -51.6572c-10.6074 -10.6074 -19.7598 -22.2266 -28.7461 -37.9854c7.94824 -13.9346 16.8008 -25.9414 27.9326 -37.0742c41.3105 -41.3105 92.1025 -52.3545 134.573 -52.3545
c20.4229 0 83.332 1.30176 134.279 52.248c14.5703 14.5713 23.293 29.0205 27.874 37.1797zM512.447 241.325c-6.65625 -2.50391 -17.0791 -9.09961 -21.1338 -13.1533c-5.41602 -5.41699 -5.41602 -5.41699 -6.65527 -7.4834
c-1.03906 -1.7334 -1.26367 -1.95117 -2.61914 -3.17383c-1.90625 -1.7207 -2.5459 -2.5 -3.26172 -4.32324c-0.560547 -1.42871 -3.9209 -7.51367 -4.8623 -10.1309c0.125 -0.614258 0.0380859 -1.22363 -0.126953 -1.6543
c-7.66699 -20.0762 -8.04199 -50.2373 15.9795 -74.2588c6.23828 -6.23828 12.7412 -10.5967 18.9854 -13.6592l17.165 -8.42188l-18.7344 3.83887c-34.5381 7.07617 -58.4258 23.0225 -74.4121 39.0098c-9.48633 9.48633 -16.0801 18.5977 -22.1562 29.085
c11.4053 19.7666 36.833 57.4268 100.531 69.0098zM460.179 333.238h83.335v176.668h-83.335v-176.668zM451.847 316.573c-2.68945 0 -4.99902 2.30762 -4.99902 4.99902v200c0 2.68945 2.30762 4.99902 4.99902 4.99902h100c2.68945 0 4.99902 -2.30762 4.99902 -4.99902
v-91.4189l74.9277 -0.341797c5.62109 -0.0253906 4.93652 -5.78613 4.61914 -10.9229c-0.155273 -2.52051 -2.36328 -4.67188 -4.95703 -4.68848l-74.5898 -0.481445v-92.1465c0 -2.68945 -2.30762 -4.99902 -4.99902 -4.99902h-100z" />
  </g>

</svg>
