<?xml version="1.0" standalone="no"?>
<!DOCTYPE svg PUBLIC "-//W3C//DTD SVG 1.1//EN" "http://www.w3.org/Graphics/SVG/1.1/DTD/svg11.dtd" >
<svg xmlns="http://www.w3.org/2000/svg" xmlns:xlink="http://www.w3.org/1999/xlink" version="1.1" viewBox="-10 0 794 1000">
  <g transform="matrix(1 0 0 -1 0 800)">
   <path fill="currentColor"
d="M427.621 27.1426c0 -15.1475 -12.2812 -74.9326 -61.6484 -74.9326c-0.28125 0 -0.5625 0.00292969 -0.844727 0.00585938l-15.1533 -0.306641c-38.3252 0.134766 -76.6484 0.201172 -114.973 0.201172s-76.6475 -0.0664062 -114.99 -0.201172
c-26.2236 0 -36.877 7.84277 -45.8643 17.25c-13.3682 14.8125 -20.0205 32.7705 -20.0205 53.2959c0 16.1963 6.00586 39.2793 14.498 70.3447c0.0351562 0.137695 18.1865 74.8193 18.1865 74.8193c23.1309 92.5771 54.6143 207.96 152.637 207.96
c91.6133 0 125.804 -98.7051 151.438 -202.012c12.0654 -50.1602 24.1074 -100.22 31.4443 -123.777c4.94336 -15.8672 5.29004 -16.9814 5.29004 -22.6475zM357.13 -17.126c15.6816 0 21.375 1.28809 28.5723 8.48438c0.603516 0.603516 12.3701 12.5967 12.3701 30.2539
c0 10.9551 -4.89355 30.1807 -15.082 70.207c-31.9775 131.341 -43.5723 178.96 -77.1514 220.928c-22.8516 27.1045 -47.4375 31.9814 -67.3252 31.9814c-72.2666 0 -100.562 -84.2549 -124.638 -180.176c-20.3154 -83.624 -20.3154 -83.624 -27.6211 -111.014
c-2.20215 -9.03809 -5.47852 -22.4883 -5.47852 -31.2812c0 -13.5029 7.68945 -36.8281 28.3037 -38.7725c3.71875 -0.313477 7.36914 -0.545898 11.0381 -0.703125l235.409 0.102539c0.533203 -0.0078125 1.06738 -0.0107422 1.60254 -0.0107422zM706.636 399.652
c0 33.9775 -4.11426 78.002 -4.11426 78.791c0 0.162109 0 0.162109 9.47852 148.557c-21.2471 42.4941 -23.8789 47.7578 -23.8789 64.1455c0 7.56055 1.10449 17.4512 4.14844 31.4072c-6.66211 0 -13.3291 -0.268555 -19.9863 0.0078125l-115.451 4.79492
l-38.0312 -0.678711c-0.397461 -0.0078125 -31.6211 -1.53125 -35.5156 -17.8545c-1.19043 -4.98242 -1.19043 -4.98242 -27.5205 -45.6592l-14.5566 -33.7451c-1.61035 -3.72949 -20.8994 -32.8047 -21.1475 -33.1084c-3.41602 -4.17871 -14.6162 -18.04 -19.0713 -24.1846
c0 -0.0634766 0.00292969 -0.12793 0.00292969 -0.192383c-0.00195312 -1.20703 -0.431641 -2.31445 -1.14453 -3.17871c-29.4336 -35.6143 -29.4336 -35.6143 -29.7422 -35.9219c-2.30469 -2.30469 -20.4639 -18.1826 -24.2539 -21.6738l-18.333 -24.6562
c0.09375 -1.91016 1.25195 -6.90234 2.74414 -8.89551c1.30078 -1.30078 4.20117 -0.928711 7.6084 -2.14355c9.25977 2.59863 13.4062 3.80957 14.9639 4.27344c12.3799 7.84277 17.6006 11.2285 19.3535 12.376c35.4736 40.9326 35.4736 40.9326 40.5508 46.1514
c15.9727 16.4219 18.2197 19.8516 18.4121 20.0439c3.73145 3.7334 8.35645 5.53516 14.5234 5.53516c14.8945 0 17.123 -3.78809 23.4102 -14.4766c2.39844 -4.07812 2.39844 -12.7715 2.39844 -19.0234c0 -3.41699 0 -3.41699 -9.66309 -40.126
c-2.49512 -18.4619 -0.323242 -20.7119 -5.32227 -56.4238c0 -8.68945 -0.892578 -40.8008 -2.70605 -89.3643c0.467773 -2.65137 3.57422 -19.126 8.66406 -19.126c3.34473 0 9.0166 3.34082 12.6895 6.83105c13.3818 17.7656 13.3818 17.7656 13.5645 17.9482
c2.68262 2.68262 6.11328 3.94434 9.5127 3.94434c0.729492 0 10.0547 -0.182617 13.0068 -9.43848c8.44922 -26.499 10.8906 -34.0127 11.5215 -35.9316c1.28711 -2.07324 6.59375 -10.5449 17.1992 -10.5449c7.89453 0 14.4775 4.80762 15.9004 8.94629
c16.0869 46.7988 16.0869 46.7988 18.2705 48.9824c2.62695 2.62793 6.13379 3.95703 9.64453 3.95703c5.39258 0 10.3809 -3.12207 12.5488 -8.40527c8.00879 -19.5215 8.05371 -19.2305 8.45215 -21.3213c1.97852 -10.4102 7.59863 -11.3691 10.7324 -11.3691
c5.9668 0 11.7646 4.18359 13.8994 8.36719c0.19043 0.371094 20.4463 32.5117 22.8916 34.957c2.61426 2.61328 6.10645 3.96875 9.62207 3.96875c2.75977 0 5.53418 -0.833008 7.91016 -2.5498c4.10352 -0.904297 8.25195 -1.93945 10.9688 -7.89355
c1.25684 -2.75586 4.79395 -5.95508 8.9541 -5.95508c6.14062 0 12.0547 6.79492 15.5381 20.374c0.955078 8.47754 1.35254 18.5322 1.35254 29.4824zM444.185 532.368c-23.1699 -23.498 -52.5527 -59.3242 -53.1191 -59.8906
c-1.89453 -1.89453 -1.89453 -1.89453 -24.5537 -16.2461c-3.93164 -2.49121 -24.0322 -8.23047 -29.0098 -8.23047c-0.28418 0 -17.0635 1.00781 -26.4521 10.3936c-6.125 6.12695 -11.0156 17.2275 -11.0156 27.6914c0 5.48926 1.3457 10.8037 4.56445 15.1318
c20.6191 27.7285 20.6191 27.7285 21.4971 28.6064c1.98926 1.98926 6.5918 6.04395 24.2461 21.6807c16.7549 19.9414 33.3066 40.085 48.4805 61.6055l17.8672 28.0771l14.4043 33.3906c3.2666 7.58301 13.3779 17.9404 26.2422 42.3848
c8.01758 28.1807 39.8535 36.4766 60.958 36.873c0 0 38.457 0.696289 38.5469 0.692383l116.088 -4.80566h25.6191c12.4805 0 22.166 -10.2041 22.166 -22.1465c0 -6 -5.9248 -23.9268 -5.9248 -36.3369c0 -3.82129 0.178711 -4.40137 2.10156 -10.6045
c0.753906 -2.43262 1.3584 -4.42383 1.88867 -6.42969c20.4619 -40.9189 20.4619 -40.9189 20.4619 -46.1689c0 -0.717773 0 -0.717773 -9.54883 -148.731c2.13379 -25.4365 4.18066 -53.5977 4.18066 -78.8262c0 -24.0801 -0.267578 -49.1445 -17.6855 -66.5635
c-7.8125 -7.8125 -17.0195 -11.1143 -25.9268 -11.1143c-9.42969 0 -18.5234 3.70117 -25.2666 9.67383c-16.1924 -25.1484 -16.1924 -25.1484 -18.9209 -27.877c-8.10938 -8.10938 -19.5732 -12.9053 -30.9111 -12.9053c-6.56445 0 -20.8086 1.80664 -30.3047 16.167
c-4.97461 -14.4746 -5.98438 -17.4121 -12.1924 -23.6191c-8.21973 -8.2207 -20.3604 -13.3135 -32.9512 -13.3135c-8.73633 0 -27.917 2.72363 -40.8037 24.6416c-1.49902 2.5498 -1.55859 2.65234 -5.79395 16.167c-5.45996 -5.12305 -16.9414 -13.9463 -30.4502 -13.9463
c-31.0996 0 -36.1396 40.2793 -36.1396 46.9189c0 19.2305 0.125 -18.8359 2.45801 73.9873c0.250977 10.0283 0.319336 16.7852 0.516602 18.1992c4.95215 35.1602 2.27441 46.4209 8.41895 69.4678c1.32324 4.96484 3.31543 12.4414 6.34863 23.9131z" />
  </g>

</svg>
