<?xml version="1.0" standalone="no"?>
<!DOCTYPE svg PUBLIC "-//W3C//DTD SVG 1.1//EN" "http://www.w3.org/Graphics/SVG/1.1/DTD/svg11.dtd" >
<svg xmlns="http://www.w3.org/2000/svg" xmlns:xlink="http://www.w3.org/1999/xlink" version="1.1" viewBox="-10 0 974 1000">
  <g transform="matrix(1 0 0 -1 0 800)">
   <path fill="currentColor"
d="M348.481 97.6934l-82.2217 148.848l24.0225 10.1475l58.4395 -100.383l53.3027 101.418l27.2285 -11.0254zM265.568 -67.707v34.6641h38.626v22.0713h-38.626v34.6641h38.626v33.7148h31.3828v-33.7148h23.2197v31.2539h31.3828v-31.2539h41.292v-34.6641h-41.292
v-22.0713h41.292v-34.6641h-41.292v-36.1855h-31.3828v36.1855h-23.2197v-33.7246h-31.3828v33.7246h-38.626zM335.577 -33.043h23.2197v22.0713h-23.2197v-22.0713zM780.659 223.904c-0.529297 0 -0.985352 0.173828 -1.32227 0.358398l-214.094 -88.2627v-37.8242
c12.126 5.10742 24.251 10.2148 36.376 15.3213v-3.77051l-0.21875 -161.659h318.305l0.646484 155.446c10.9619 -6.48535 21.9238 -12.9697 32.8867 -19.4551l-0.677734 40.7051l-136.33 79.1182l1.46387 0.616211c-22.6963 11.7715 -24.457 12.7314 -36.2109 19.5508
c-0.288086 -0.102539 -0.56543 -0.144531 -0.824219 -0.144531zM884.594 -16.7148h-248.003l-0.665039 144.662l142.009 59.8174l107.859 -63.8086zM63.3545 -23.4795h55.5146l17.1611 52.2256l17.1602 -52.2256h55.5156l-44.8672 -32.2959l17.1611 -52.2246
l-44.9697 32.2959l-44.9707 -32.2959l17.1611 52.2246zM588.434 388.926c-0.0810547 0 -0.208984 -0.000976562 -0.288086 -0.000976562c-23.4238 0 -55.9033 15.0479 -72.498 33.5879c-33.8896 38.1309 -40.0703 97.8945 -15.8799 152.639
c8.20605 18.5273 17.9033 36.5762 27.2822 54.0264c5.00781 9.20508 10.0176 18.5273 14.7061 27.8496l33.8887 66.5781l1.59863 3.46777c7.45898 16.374 9.37695 20.4375 13.6396 20.4375h2.02539c3.62305 -1.67285 5.96875 -6.81152 9.05859 -14.4619
c0.532227 -1.31543 0.958984 -2.50977 1.2793 -2.98828l52.5371 -103.393c3.73047 -7.29199 7.7793 -14.3438 11.8291 -21.5156c7.5293 -12.3389 17.9375 -33.4902 23.2324 -47.2129c1.2793 -3.50684 2.37988 -7.09277 3.30273 -10.7578
c2.51074 -9.44922 4.54688 -25.1191 4.54688 -34.9795c0 -56.1016 -39.8965 -110.045 -89.0557 -120.408c-5.7832 -1.43262 -15.2842 -2.71777 -21.2051 -2.86816zM590.883 730.3c-1.59668 -3.22656 -3.19629 -6.93262 -4.04883 -8.96582l-1.91797 -4.18262
l-33.8887 -66.3389c-4.7959 -9.44238 -9.80469 -18.7666 -14.9189 -28.0889c-9.27246 -17.2119 -18.8633 -35.0215 -26.8555 -53.0713c-22.166 -50.4404 -16.8379 -104.826 13.7471 -138.652c15.0029 -16.71 44.3379 -30.2734 65.4805 -30.2734
c5.27734 0 13.7549 0.978516 18.9209 2.18359c44.6611 9.12695 80.9053 57.8574 80.9053 108.773c0 9.21094 -1.96582 23.8281 -4.38867 32.6299c-0.852539 3.3457 -1.84766 6.61426 -2.98438 9.80176c-5.09277 13.123 -15.0703 33.3643 -22.2725 45.1807
c-4.15723 7.29102 -8.3125 14.583 -12.1494 21.9932l-52.5381 102.316c0 0.836914 -1.06543 2.27148 -1.7041 4.06445z" />
  </g>

</svg>
