<?xml version="1.0" standalone="no"?>
<!DOCTYPE svg PUBLIC "-//W3C//DTD SVG 1.1//EN" "http://www.w3.org/Graphics/SVG/1.1/DTD/svg11.dtd" >
<svg xmlns="http://www.w3.org/2000/svg" xmlns:xlink="http://www.w3.org/1999/xlink" version="1.1" viewBox="-10 0 1002 1000">
  <g transform="matrix(1 0 0 -1 0 800)">
   <path fill="currentColor"
d="M828.399 483.872c0 9.49878 0.360099 25.4826 0.360099 28.905l-0.318652 61.3747l-8.69455 54.78l-24.0577 41.7601l-29.8355 19.1251l-33.9409 8.02542l-47.9505 1.85133v0.765382l-107.704 8.96128l-161.614 -4.8437l-135.511 -48.0118l4.97421 -24.8711
l90.1513 34.2037l168.519 13.9909l163.859 -8.05849l72.0585 -32.0852l24.6852 -76.5829c-11.2968 -92.7231 -11.5388 -94.7093 -10.6225 -98.1968c0.272553 -1.03738 0.408327 -1.98777 0.495372 -2.92219c0.487753 -0.641757 1.13403 -1.58506 1.4862 -2.05622
l30.4464 -40.7334l38.0432 -60.0682l23.93 -33.502l-96.7113 -80.2498l-3.19974 -219.288c0.962733 -7.56244 2.78458 -22.0112 5.01798 -45.877c-0.12894 -0.269919 -9.65147 -20.9678 -12.8349 -27.02c-1.80565 -3.43278 -3.36365 -6.39475 -8.94453 -11.1259
c-28.726 -6.87192 -37.6748 -9.01268 -53.7943 -9.01268c-3.38415 0 -6.77838 0.14333 -10.1737 0.446144l-127.95 -3.2205l-189.706 31.9736l-119.91 72.0259l-21.8729 31.5454c-0.18608 0.126152 -14.9542 10.3475 -18.5829 12.6523v-31.4635
c5.41685 -3.87145 13.5068 -7.36272 24.4398 -17.2503c7.32645 -6.62591 2.09556 -4.45645 10.6241 -11.9264c1.03002 -0.902171 1.03002 -0.902171 17.2005 -21.8062l70.2643 -41.1391l123.979 -35.7692l40.8353 -3.74581
c52.8258 -4.90757 59.0669 -6.73248 83.0467 -7.42728l68.08 -1.97257l89.7606 0.254271l51.1066 12.4914l15.1376 25.2075l6.27671 34.16l-0.268638 82.9487l0.0291888 84.2282l-0.00582149 87.5189l84.7837 67.8016l7.68593 8.96692l1.11464 7.19504
c0.44913 7.61262 -1.52476 12.8022 -3.31214 18.1783l-23.3304 38.8443l-33.0243 43.448l-34.3179 48.9016c-0.202711 16.1296 -0.202711 16.1296 -0.202711 17.6951zM30.3242 741.553h55.5146l17.1611 52.2256l17.1602 -52.2256h55.5156l-44.8672 -32.2959
l17.1611 -52.2246l-44.9697 32.2959l-44.9707 -32.2959l17.1611 52.2246zM519.993 160.807c0 0.87207 -0.875977 3.26172 -1.62891 4.23926c-1.04102 0.772461 -3.54395 1.66406 -4.49902 1.66406c-3.45312 0 -5.92578 -2.39746 -8.16309 -4.63477
c-0.964844 -0.964844 -2.23242 -1.44922 -3.49902 -1.44922c-2.04297 0 -3.16992 1.11914 -4.08789 2.03613c-0.189453 0.19043 -3.44531 3.04785 -5.35938 3.67871c-0.875 0.289062 -1.44434 0.365234 -2.15039 0.365234c-0.910156 0 -3.31152 -0.824219 -4.44629 -1.62988
c-0.483398 -0.763672 -0.5 -0.819336 -1.6543 -4.78516c0.0957031 -1.47559 0.792969 -4.48926 4.12012 -7.69531l13.5889 -13.1104l13.4922 12.9883c1.45996 1.46191 4.28711 4.33398 4.28711 8.33301zM484.749 189
c0.174805 -3.11035 0.0683594 -7.21484 -0.203125 -11.8975c4.42383 1.56543 10.6445 1.95801 17.5859 -2.9043c4.72656 3.35938 8.07129 3.94727 11.6934 4.01758c4.97559 0 10.334 -2.6416 12.6104 -5.01172c4.88965 -5.08594 9.2793 -17.249 -2.75781 -29.0029
c-14.2285 -13.8945 -15.9248 -15.4512 -16.4092 -15.875c-2.86523 -2.75195 -7.3457 -2.75977 -10.2373 0.0410156l-15.3711 14.8857c-0.525391 -6.09375 -0.941406 -11.752 -1.0625 -16.3135c-0.0498047 -1.84668 -0.1875 -10.1348 1.3125 -10.9385
c0.172852 -0.0595703 0.308594 -0.15332 0.276367 -0.416016c4.87402 -52.3896 54.3398 -101.458 57.0908 -102.465c0.0908203 -0.0332031 -0.170898 0.00683594 -0.170898 0.00683594l-0.257812 -0.134766l-0.139648 -0.31543l0.821289 -0.458008l-9.2666 -6.17871
c-1.03223 1.12402 -1.52832 1.66504 -3.89355 4.22559c-18.7949 20.3477 -39.2715 42.543 -55.2021 96.5801c-4.40137 -25.5635 -20.1729 -53.5947 -34.3916 -71.6533c-9.1709 -11.6475 -12.2773 -19.8525 -20.6758 -29.1836l-10.959 8.67676
c6.46191 8.37793 10.6074 14.0586 16.3359 21.9639c3.22656 4.45508 6.20312 8.5625 9.38184 12.7373c38.9023 51.1016 40.0654 118.441 39.7754 152.66l11.3135 -0.249023c1.00488 -0.0214844 2.71191 -0.506836 2.65039 -3.56836
c-0.0185547 -0.887695 -0.0966797 -4.85059 0.150391 -9.22949v0zM209.503 334.181l16.623 0.271484l232.649 0.560547v-15.3623l-86.7754 -0.65918v-74.9912l-143.98 77.4668l-5.25195 3.31641c-1.44629 0 -11.8184 9.39746 -13.2646 9.39746zM376 384l-80.7998 136.396
l9.32617 3.67383l72.2832 -115.78l65.8701 116.868l12.6084 -4.76172zM725.604 469.867l-65.7217 -74.6553l71.5225 -73.9434l-9.3125 -8.72363l-71.6016 74.1357l-64.7598 -74.1357l-6.7627 8.31738l63.9365 73.1309l-62.8525 73.5381l8.30762 8.93848l63.5752 -71.0996
l66.4648 71.5059z" />
  </g>

</svg>
