<?xml version="1.0" standalone="no"?>
<!DOCTYPE svg PUBLIC "-//W3C//DTD SVG 1.1//EN" "http://www.w3.org/Graphics/SVG/1.1/DTD/svg11.dtd" >
<svg xmlns="http://www.w3.org/2000/svg" xmlns:xlink="http://www.w3.org/1999/xlink" version="1.1" viewBox="-10 0 2224 1000">
  <g transform="matrix(1 0 0 -1 0 800)">
   <path fill="currentColor"
d="M48.3545 723.521h55.5146l17.1611 52.2256l17.1602 -52.2256h55.5156l-44.8672 -32.2959l17.1611 -52.2246l-44.9697 32.2959l-44.9707 -32.2959l17.1611 52.2246zM271.001 608.002l-12.001 59.998c128.725 89.7881 355.203 55.3633 442.457 48.5605
c27.4473 0.549805 75.1865 -1.35352 107.269 -33.4355c40.1396 -40.1396 38.6152 -108.841 37.5254 -169.365c-0.395508 -21.9258 -0.433594 -33.2402 -0.22168 -41.9463c26.3789 -43.8281 72.168 -89.959 89.3252 -129.607
c6.95117 -16.0635 5.49219 -24.7637 2.64551 -40.2051l-12 -14l-79.501 -63.5771v-212.431c1.93945 -31.0869 1.82422 -79.2412 -27.416 -108.48c-26.0322 -26.0322 -182.507 -12.0195 -220.584 -13.0049l-2.90137 0.0126953
c-103.732 -7.2998 -296.108 50.6025 -326.603 92.1719c-18.5059 25.2275 -31.4014 41.2529 -57.9951 55.3086v70.0371c25.8174 -16.2627 49.624 -17.8066 70.1904 -60.6357c44.2188 -92.082 349.455 -105.734 451.309 -108.438l-0.499023 -0.962891
c50 12 34.1514 4.48145 42.5352 13.5361c19.1768 20.7119 3.97852 41.9688 5.50781 57.9648h-0.541992v2.14941c-0.253906 0.990234 -0.500977 1.94141 -0.738281 2.84863h0.738281v207.174v3.4873v1.33887h1.58203l104 88h1.13281
c4.9834 45.8955 -62.8379 92.1289 -94.2158 139.501l-3 4l-1 1c-2.02051 3.99219 0.0439453 4.02539 -2.08398 11.5605c-0.0371094 0.130859 -0.189453 0.24707 -0.174805 0.367188l0.258789 2.07227l0.0644531 1.49902
c0.00976562 0.226562 0.150391 3.89551 0.242188 6.24414c3.11426 79.1523 5.19727 173.389 -83.8154 173.771c-136.35 16.7461 -373.536 9.53418 -431.49 -46.5137zM1898.59 39.708c14.8047 -3.41016 26.8213 -18.5078 26.8213 -33.7012
c0 -19.0898 -15.4941 -34.583 -34.584 -34.583s-34.582 15.4932 -34.582 34.583c0 7.38965 4.03711 17.8203 9.01074 23.2842l-7.2207 9.16699c-7.73047 9.82617 -21.667 24.4492 -31.1123 32.6387c-5.25098 -4.24609 -14.9932 -7.69141 -21.7461 -7.69141
c-19.0908 0 -34.583 15.4932 -34.583 34.583c0 2.03027 0.345703 5.29102 0.774414 7.27539c-6.70508 2.53125 -17.8438 5.76758 -24.8623 7.22266c-5.38086 -10.0117 -18.9717 -18.1377 -30.3389 -18.1377c-11.8379 0 -25.6875 8.62305 -30.9111 19.248
c-6.40234 -1.15723 -16.6064 -3.77051 -22.7773 -5.83301c0.391602 -1.90234 0.708984 -5.02344 0.708984 -6.9668c0 -19.0908 -15.4941 -34.584 -34.584 -34.584c-7.53711 0 -18.1211 4.17871 -23.625 9.32812c-12.3848 -10.1445 -30.1797 -28.8105 -39.7227 -41.667
c8.18164 -5.77246 14.8213 -18.584 14.8213 -28.5967c0 -19.3193 -15.6807 -35 -35 -35c-19.3213 0 -35 15.6807 -35 35c0 19.3203 15.6787 35.001 35 35.001c1.75 0 4.56738 -0.254883 6.29102 -0.570312c10.7539 14.8047 31.0371 36.1484 45.2764 47.6387
c-1.28516 3.29102 -2.34277 8.82812 -2.35938 12.3613c0 15.6572 12.4434 30.8984 27.7764 34.0283v203.472h13.8906v-203.472c6.92969 -1.53125 16.0146 -7.37891 20.2764 -13.0566c6.84277 2.35449 18.166 5.33984 25.2773 6.66699v1.80664
c0 15.6553 12.4463 30.8965 27.7793 34.0264v224.861h13.8877v-225c15.2754 -3.11719 27.7188 -18.2988 27.7793 -33.8877v-3.19531c7.56738 -1.60742 19.5771 -5.1543 26.8037 -7.91699c4.1084 5.55078 12.8809 11.4004 19.584 13.0557v216.39h13.8887v-215.416
c16.0498 -2.60254 29.1152 -17.9092 29.166 -34.167c-0.0224609 -4.50098 -1.70312 -11.4092 -3.75 -15.417c10.1553 -8.91797 25.0879 -24.8477 33.334 -35.5566l7.63965 -9.58301c1.88281 0.865234 5.05566 1.9248 7.08398 2.36133v223.333h13.8877v-223.333z
M1565.26 5.67969c0 0.116211 0.00390625 0.304688 0.00390625 0.420898c0 11.2744 -9.14746 20.6064 -20.4199 20.8291c-0.114258 0.00292969 -0.298828 0.00390625 -0.412109 0.00390625c-11.5 0 -20.834 -9.33301 -20.834 -20.833s9.33398 -20.833 20.834 -20.833
c11.2705 0 20.6025 9.14453 20.8281 20.4121zM1649.7 99.5703l0.416016 0.137695c-0.0751953 11.4258 -9.40723 20.6992 -20.833 20.6992c-0.115234 0 -0.302734 -0.00195312 -0.416992 -0.00390625c-11.5 0 -20.833 -9.33301 -20.833 -20.833
s9.33301 -20.834 20.833 -20.834s20.834 9.33398 20.834 20.834zM1695.4 129.014l0.416992 0.139648c0 -0.0400391 -0.00097656 -0.104492 -0.00097656 -0.144531c0 -11.2715 9.14746 -20.6025 20.418 -20.8291c11.5 0 20.833 9.33398 20.833 20.834
s-9.33301 20.833 -20.833 20.833s-20.834 -9.33301 -20.834 -20.833zM1805.26 76.5137l0.416992 0.139648c11.1992 0.222656 20.3447 9.49512 20.417 20.6934c0 11.5 -9.33398 20.833 -20.834 20.833s-20.833 -9.33301 -20.833 -20.833
c0 -11.5 9.33301 -20.833 20.833 -20.833zM1870.54 5.67969h0.276367c0.226562 -11.2695 9.55859 -20.416 20.8291 -20.416c11.3496 0.15332 20.5566 9.48535 20.5566 20.8311c0 11.5 -9.33301 20.833 -20.833 20.833s-20.834 -9.33301 -20.834 -20.833
c0 -0.114258 0.00488282 -0.299805 0.00488282 -0.415039zM1313.82 698.424l38.6729 49.7197c2.44141 3.14062 7.08496 2.70605 9.2207 0.301758l47.0342 -52.9385c2.29004 -2.57812 1.88477 -6.6875 -0.865234 -8.76855
c-0.751953 -0.570312 -1.6377 -0.957031 -2.56641 -1.12305l-8.0127 -1.43066c-2.04199 -0.364258 -4.17871 0.391602 -5.53809 1.91895l-25.9268 29.1543l1.22168 -114.169c0.0371094 -3.50391 -3.07031 -6.20703 -6.27832 -6.05762l-7.66504 0.357422
c-3.26172 0.152344 -5.7373 3.02344 -5.72168 6.02539l0.602539 112.586l-21.2246 -27.2393c-2.36523 -3.03516 -7.04688 -2.98145 -9.3916 -0.09375l-3.48438 4.29199c-1.79004 2.20508 -1.6582 5.43262 -0.0771484 7.46484zM2079.66 399.769l123.572 -119.589
l-123.572 -114.183l5.97266 -374.732l-628.32 3.43555l-6.71973 72.1348h567.84v350.369l86.2393 62.9756l-86.2393 74.4258l-6.7207 336.63h-534.239l6.71973 70.4805h595.468v-361.947zM497.871 474.876v-222.972h-111.812zM539.008 553.489l0.0645709 0.123198
c-0.0104898 -0.0207154 -0.0645709 -0.0414186 -0.0645709 -0.123198zM283.968 223.45c0 -20.6411 20.146 -37.4209 45.0742 -37.4209c4.8989 0 17.9073 0 32.2589 11.2363h136.57l2.33535 -57.0921c-6.08555 -2.95889 -25.2826 -12.2928 -25.2826 -33.7516
c0 -20.642 20.1469 -37.4219 45.0762 -37.4219c24.9263 0 45.0752 16.779 45.0752 37.4219c0 21.0121 -18.5486 30.4105 -24.3108 33.3302l-1.21552 57.5136l31.0248 -2.74054c3.39624 -1.96992 12.3038 -7.13655 25.2002 -7.13655c24.7892 0 45.5202 16.435 45.5202 37.423
c0 21.2549 -21.1562 37.4276 -45.6511 37.4276c-4.13647 0 -14.7876 0 -28.7367 -10.196l-25.1884 -0.138832v308.178c-0.511151 -1.77219 -1.14865 -3.47395 -1.90233 -5.10191c-5.47779 -11.8321 -17.0931 -19.7658 -30.9458 -22.5045
c-0.565842 0.00869357 -1.21891 0.0296376 -1.23195 0.0296376c-2.29298 0 -5.21598 -0.842717 -8.65739 -0.842717c-6.9785 0 -13.1243 1.11602 -18.4563 3.04106c-1.02576 0.522065 -1.90834 1.1207 -2.57874 1.80551
c-0.118726 -0.210336 -0.237277 -0.420396 -0.355654 -0.630181c-16.1922 7.1522 -23.9724 22.1018 -23.9724 34.5785c0 20.637 20.1374 37.4229 45.0732 37.4229c21.1922 0 38.3837 -13.3157 43.0273 -30.0291v21.5199l9.83398 -1.27421l-9.00966 -34.3609
c-0.203455 -1.24048 -0.479852 -2.45965 -0.82432 -3.65393v0.5062c-0.483471 -1.80133 -1.11422 -3.69317 -1.90233 -5.60811c-4.47837 -10.8813 -14.0382 -22.5082 -30.5322 -22.5082c-0.123164 0 -0.265374 0.00371338 -0.413566 0.00371338
c-3.5386 -0.699584 -7.22319 -1.06018 -10.9888 -1.06018c-3.74238 0 -12.2938 0.711297 -17.3569 3.28816c-1.00712 0.363604 -1.98521 0.756071 -2.93439 1.17533c-109.212 -193.542 -70.3324 -152.997 -132.056 -273.513
c-0.383557 -0.748896 -2.39637 -4.20803 -6.85227 -4.20803c-3.59919 0 -7.82192 2.71584 -9.63893 2.71584c-24.9252 0 -45.0742 -16.7783 -45.0742 -37.4238z" />
  </g>

</svg>
