<?xml version="1.0" standalone="no"?>
<!DOCTYPE svg PUBLIC "-//W3C//DTD SVG 1.1//EN" "http://www.w3.org/Graphics/SVG/1.1/DTD/svg11.dtd" >
<svg xmlns="http://www.w3.org/2000/svg" xmlns:xlink="http://www.w3.org/1999/xlink" version="1.1" viewBox="-10 0 727 1000">
  <g transform="matrix(1 0 0 -1 0 800)">
   <path fill="currentColor"
d="M356.81 599.48c25.6729 0 52.4399 -8.35726 75.422 -33.0528c20.3082 -21.5469 30.6132 -46.9731 30.6132 -75.7538c0 -36.5393 -16.0653 -59.6363 -55.0679 -97.5631c-50.7355 -49.276 -80.5991 -81.5219 -80.5991 -163.532
c0 -3.79898 0.079293 -9.22069 0.238669 -16.2334h51.982c1.67825 73.7472 10.6814 88.3658 62.1029 138.562c55.5707 54.2026 77.3923 90.4021 77.3923 143.485c0 34.0265 -9.43761 72.9459 -44.6018 108.11c-29.367 29.367 -68.6029 44.1751 -118.553 44.1751
c-30.4056 0 -144.704 -3.49787 -164.038 -157.015l56.2898 -7.37225c7.82334 49.3945 24.1186 73.8132 37.8198 87.5144c19.0695 19.0695 42.9759 28.6758 70.9993 28.6758zM323.607 142.006v-70.6084h63.1904v70.6084h-63.1904z" />
  </g>

</svg>
