<?xml version="1.0" standalone="no"?>
<!DOCTYPE svg PUBLIC "-//W3C//DTD SVG 1.1//EN" "http://www.w3.org/Graphics/SVG/1.1/DTD/svg11.dtd" >
<svg xmlns="http://www.w3.org/2000/svg" xmlns:xlink="http://www.w3.org/1999/xlink" version="1.1" viewBox="-10 0 1073 1000">
  <g transform="matrix(1 0 0 -1 0 800)">
   <path fill="currentColor"
d="M784.855 121.01zM212.342 506.174zM105.426 309.346zM522 52zM521.25 28.0977zM202.961 116.975zM386.457 59.248zM886.977 353.85zM105.426 309.346zM886.977 353.85zM664.214 598.385c-60.2715 12.5029 -110.026 -14.6719 -123.768 -33.7793
c-0.926758 -1.28906 -1.92676 -2.67871 -4.7627 -3.71094c-15.3027 -5.58203 -48.6699 -13.1621 -89.54 5.20215c-53.5957 65.2383 -185.385 20.6162 -218.586 -57.0215c-0.817383 -1.91113 -1.63379 -3.82324 -2.45117 -5.73438h-4.84473l-106.658 -144.92h-2.15039
c-0.483398 -2.05957 -0.483398 -2.05957 -0.483398 -3.57617c-0.651367 -0.680664 -0.651367 -0.680664 -13.9443 -50.5273c-0.193359 0 -0.387695 0.00878906 -0.582031 0.00878906c-0.116211 -0.894531 -0.255859 -1.78516 -0.424805 -2.71191h0.509766
l-0.078125 -10.5537c0 -38.1387 19.8672 -100.406 105.303 -171.065c97.0039 -80.2344 206.716 -89.1934 298.665 -89.1934c150.75 0 210.428 18.4482 300.149 89.3496c107.896 85.2539 110.461 110.503 113.259 167.998l-1.72168 0.0273438
c-0.195312 0.738281 -14.7949 59.6602 -19.2998 73.8887l-78.4014 133.974c-19.2373 20.0771 -85.1387 88.8584 -150.189 102.346zM251.038 498.121c21.4092 47.335 75.958 74.3955 120.146 74.3955c24.6055 0 39.0166 -6.9375 54.124 -17.335l-0.129883 -1.60352
c1.06348 -0.657227 2.2168 -1.50195 3.3584 -2.58691c33.4053 -31.7412 102.186 -30.5947 127.54 -5.23633c4.81543 4.81836 6.50391 7.69043 9.29199 16.0977c7.60352 5.18848 31.2559 21.3281 69.2354 21.3281c41.083 0 61.0908 -18.4326 75.3457 -31.71
c10.835 -10.0908 24.75 -23.085 55.002 -43.1562c0.901367 -0.295898 1.76465 -0.712891 2.55859 -1.24023l1.63379 0.0654297l91.0703 -143.644v-1.53613c4.70605 -17.666 17.9678 -71.0342 18.1504 -71.752c13.376 -53.4414 -9.68164 -82.8457 -104.747 -160.532
c-73.5508 -60.0977 -128.282 -80.999 -287.496 -80.999c-86.416 0 -157.221 10.7979 -239.126 68.1299c-108.771 76.1416 -116.602 131.425 -115.186 180.832c3.57617 14.1875 15.7471 59.541 15.9043 60.1426l100.023 141.611zM490.53 205.284
c-0.154297 5.40527 -0.229492 9.45703 -0.229492 12.1582c0 15.9131 2.29688 29.6465 6.89551 41.2061c3.37207 8.70703 8.81152 17.4883 16.3213 26.3457c5.5166 6.45215 15.4014 15.835 29.6523 28.1445c14.4053 12.459 23.7539 22.3672 28.0459 29.7217
c4.29004 7.35547 6.43555 15.3867 6.43555 24.0928c0 15.7617 -6.2832 29.5723 -18.8486 41.4307c-12.5684 12.0098 -27.9678 18.0137 -46.2041 18.0137c-17.625 0 -32.3359 -5.4043 -44.1367 -16.2129s-19.5381 -27.6963 -23.2168 -50.6621l-42.5254 4.9541
c3.83008 30.7725 15.1709 54.3398 34.0195 70.7012c19.0029 16.3633 44.0586 24.543 75.168 24.543c32.9502 0 59.2314 -8.78125 78.8467 -26.3438c19.6152 -17.5635 29.4229 -38.8037 29.4229 -63.7217c0 -14.4102 -3.44727 -27.6953 -10.3428 -39.8545
c-6.89746 -12.1582 -20.3828 -26.9443 -40.458 -44.3584c-13.4854 -11.708 -22.2979 -20.3389 -26.4355 -25.8916c-4.13867 -5.55566 -7.20312 -11.9355 -9.19434 -19.1396c-1.99219 -7.20508 -3.14258 -18.915 -3.44922 -35.127h-39.7666zM488 124v46.1582h47.125v-46.1582
h-47.125z" />
  </g>

</svg>
