<?xml version="1.0" standalone="no"?>
<!DOCTYPE svg PUBLIC "-//W3C//DTD SVG 1.1//EN" "http://www.w3.org/Graphics/SVG/1.1/DTD/svg11.dtd" >
<svg xmlns="http://www.w3.org/2000/svg" xmlns:xlink="http://www.w3.org/1999/xlink" version="1.1" viewBox="-10 0 192 1000">
  <g transform="matrix(1 0 0 -1 0 800)">
   <path fill="currentColor"
d="M138.336 705.642c8.06925 0 14.9971 -6.92378 14.9971 -14.9971v-117.923c0 -8.06925 -6.92378 -14.9971 -14.9971 -14.9971h-26.6953c-8.06925 0 -14.9971 6.92378 -14.9971 14.9971v117.923c0 8.06925 6.92378 14.9971 14.9971 14.9971h26.6953zM52.6953 709.92
c8.06925 0 14.9971 -6.92378 14.9971 -14.9971v-117.923c0 -8.06925 -6.92378 -14.9971 -14.9971 -14.9971h-26.6953c-8.06925 0 -14.9971 6.92378 -14.9971 14.9971v117.923c0 8.06925 6.92378 14.9971 14.9971 14.9971h26.6953z" />
  </g>

</svg>
