<?xml version="1.0" standalone="no"?>
<!DOCTYPE svg PUBLIC "-//W3C//DTD SVG 1.1//EN" "http://www.w3.org/Graphics/SVG/1.1/DTD/svg11.dtd" >
<svg xmlns="http://www.w3.org/2000/svg" xmlns:xlink="http://www.w3.org/1999/xlink" version="1.1" viewBox="-10 0 1012 1000">
  <g transform="matrix(1 0 0 -1 0 800)">
   <path fill="currentColor"
d="M851.877 510.356zM574.317 697.089zM522.483 601.664zM724.444 476.9zM724.079 465.312zM569.77 508.4zM658.729 480.414zM901.386 623.239zM522.483 601.664zM901.386 623.239zM908.219 629.742c3.5791 -10.8398 5.88379 -22.5723 8.89355 -33.8105l2.09863 -0.0341797
c-1.5957 -33.6729 -2.19629 -46.3525 -56.875 -89.5596c-40.6865 -32.1494 -70.4736 -43.4736 -138.183 -44.2373c-46.5742 -0.525391 -105.891 1.21777 -157.891 44.2256c-20.4902 16.9473 -53.0166 49.7451 -52.7139 87.002h-1.45801
c1.59277 5.97266 1.59277 5.97266 1.74414 10.5576l1.06738 -0.0175781l4.56543 17.1221h-2.00391c1.04004 1.41309 2.08105 2.82715 3.12207 4.24023v4.81152h3.54102l51.71 70.2588h1.63965c17.8916 41.8359 86.4307 61.9893 113.053 29.583
c3.7793 -1.69922 20.9229 -8.53906 38.9736 -1.95801c9.29785 12.4453 35.4238 24.4551 64.8232 18.3584c28.4346 -5.89648 57.1182 -32.3477 69.7031 -45.2275h0.603516c0.443359 -0.652344 0.74707 -1.40234 1.30469 -1.97461l3.9541 -4.125l37.7568 -64.5186
c0.563477 0.0478516 1.00781 0.0126953 0.919922 -0.396484zM539.853 595.588c-0.626953 -21.4707 1.74805 -47.0049 53.8936 -83.5068c44.249 -30.9746 80.9141 -33.1992 131.25 -31.9521c58.6475 1.50879 83.1191 9.04688 118.533 37.9854
c47.0938 38.4844 54.8965 50.5449 49.2334 73.1514l-7.48828 29.8955l-0.275391 -0.490234c0.015625 1.80859 -1.19336 4.11035 -1.17773 5.91992l-42.0225 66.2783c-1.12695 -0.0449219 -0.226562 0.979492 -1.35449 0.935547
c-26.0107 17.1484 -28.7842 24.5791 -38.5 30.3086c-14.9619 8.82324 -37.9648 7.04688 -52.6094 -2.94727c-7.29004 -21.9609 -52.5215 -25.4805 -73.3643 -5.67676c-1.94238 1.8457 -3.375 0.818359 -3.19141 3.08301
c-22.2783 15.3311 -64.0088 -0.114258 -75.8008 -27.8877l-1.43066 -3.36816l-2.38379 0.916992l-45.9551 -65.0596zM684.654 509.219l-9.19141 9.86816l72.4707 67.3008l-66.0654 26.2754l76.9863 69.835l9.05469 -10.001l-60.9355 -55.2725l65.8594 -26.2139z
M324.224 254.746l-82.2217 148.848l24.0225 10.1475l58.4395 -100.383l53.3027 101.418l27.2285 -11.0254zM241.311 89.3457v34.6641h38.626v22.0713h-38.626v34.6641h38.626v33.7148h31.3828v-33.7148h23.2197v31.2539h31.3828v-31.2539h41.292v-34.6641h-41.292v-22.0713
h41.292v-34.6641h-41.292v-36.1855h-31.3828v36.1855h-23.2197v-33.7246h-31.3828v33.7246h-38.626zM311.319 124.01h23.2197v22.0713h-23.2197v-22.0713zM756.401 380.958c-0.52832 0 -0.985352 0.173828 -1.32227 0.358398l-214.093 -88.2637v-37.8232
c12.125 5.10742 24.25 10.2139 36.375 15.3213v-3.77148l-0.21875 -161.658h318.305l0.646484 155.446c10.9629 -6.48535 21.9248 -12.9707 32.8867 -19.4551l-0.677734 40.7041l-136.329 79.1191l1.46387 0.615234c-22.6973 11.7725 -24.458 12.7314 -36.2119 19.5518
c-0.288086 -0.102539 -0.564453 -0.144531 -0.824219 -0.144531zM860.336 140.338h-248.002l-0.666016 144.662l142.009 59.8184l107.859 -63.8086zM73.6904 -2.1416h55.5146l17.1611 52.2256l17.1602 -52.2256h55.5156l-44.8672 -32.2959l17.1611 -52.2246
l-44.9697 32.2959l-44.9707 -32.2959l17.1611 52.2246z" />
  </g>

</svg>
