<?xml version="1.0" standalone="no"?>
<!DOCTYPE svg PUBLIC "-//W3C//DTD SVG 1.1//EN" "http://www.w3.org/Graphics/SVG/1.1/DTD/svg11.dtd" >
<svg xmlns="http://www.w3.org/2000/svg" xmlns:xlink="http://www.w3.org/1999/xlink" version="1.1" viewBox="-10 0 933 1000">
  <g transform="matrix(1 0 0 -1 0 800)">
   <path fill="currentColor"
d="M555.748 249.608l20.3994 8l-3.78125 -60l-13.0186 -33.5996h-20.7998l13.5996 36.7998zM410.451 262.976c7.5 0.105469 14.998 1.35059 22.4961 3.83301l15.2002 -57.2002l-8 -56.7998l-12.7998 -4.7998l4.26758 58.4004zM390.548 266.409
c4.12207 -1.59375 8.19824 -3.22461 14.3994 -3.2002c0.333984 -39.8242 2.5332 -72.623 0.800781 -104h-13.6006zM580.947 261.608l16.8193 15.9512l23.1807 -113.551h-20zM549.627 388.854v0c19.8047 -46.248 -17.1934 -54.4297 -33.3164 -61.3047l-1.47656 0.591797
c29.2695 17.3965 40.6582 24.0713 34.793 60.7129zM418.303 408.719v0c49.9541 -5.97363 38.541 -42.1045 36.4336 -59.5049l-1.25098 -0.983398c-0.430664 34.0469 -0.517578 47.2471 -35.1826 60.4883zM411.013 277.259c-31.1045 0 -56.3438 27.4072 -56.3438 56.8223
c0 14.4219 8.80078 32.1396 14.7822 38.2539c1.58594 1.65723 2.38574 3.77637 2.38574 5.89258c0 2.10938 -0.793945 4.2168 -2.39453 5.86328c-7.82422 7.83301 -14.1748 23.1689 -14.1846 34.1465c0 0.817383 1.72461 13.9346 3.07617 16.9365
c6.97266 16.0156 26.7734 29.3135 44.209 29.7314l0.12207 0.00292969l0.12207 -0.00488281c15.3213 -0.540039 35.2178 -11.9805 42.8711 -29.3652c1.25879 -2.62305 4.34082 -4.92969 7.83594 -4.92969c2.39453 0 3.86914 0.973633 4.90039 1.65625
c9.29199 6.1416 25.9043 11.1553 37.0117 11.1553c0.849609 0 2.27734 -0.0380859 2.72461 -0.0498047h0.0664062c3.53809 0.0195312 6.76465 2.60156 7.88672 5.43555c7.98047 19.3535 31.5107 35.0791 52.3926 35.0791
c-0.374023 0.172852 -0.549805 0.283203 -0.549805 0.334961c0 0.0224609 0.0351562 0.0341797 0.103516 0.0341797c1.87012 0 28.4199 -8.44727 37.4326 -17.4609c3.40918 -3.40918 13.3545 -14.3506 15.8691 -28.2354
c0.899414 -4.53027 4.83789 -6.86816 8.00488 -6.96875c29.1572 -0.783203 52.8301 -25.1016 52.8301 -54.2676c0 -0.397461 -0.485352 -22.7119 -14.7207 -36.9473c-8.49219 -8.49219 -18.6768 -12.9453 -19.417 -13.2383
c-7.77344 -3.06445 -16.9619 -4.23438 -21.2939 -4.23438h-0.0927734c-6.66504 0.148438 -12.001 3.47656 -19.5605 3.47656c-3.7959 0 -5.94727 -1.01855 -7.10645 -2.17773c-0.140625 -0.152344 -0.739258 -0.830078 -3.08398 -3.49219
c1.66895 -3.84961 4.00586 -9.24512 4.00586 -16.3301c0 -10.2666 -6.03906 -19.8633 -6.3418 -19.9102c-1.52441 -2.10938 -3.34668 -4.18066 -5.34668 -6.18066c-5.91113 -5.91113 -13.3135 -11.21 -19.502 -13.7139
c-14.7891 -5.9834 -27.4434 -6.06543 -28.4629 -6.06543c-10.5312 0 -24.1641 3.99414 -24.9727 4.62988c-12.6396 5.24512 -27.8018 20.0732 -33.127 34.6934c-0.94043 2.4375 -3.56738 4.94336 -6.54395 5.5293
c-0.719727 0.0449219 -1.52832 0.0576172 -2.38867 0.0576172c-0.0771484 0 -4.38672 -0.610352 -6.79785 -3.55957c-12.373 -15.1279 -33.584 -22.5996 -46.4014 -22.5996zM506.618 262.995l-0.0380859 0.0166016zM369.373 372.25v0zM342.298 333.055
c0 -38.0986 33.4092 -70.0791 68.1533 -70.0791c26.0371 0 46.2559 16.0684 49.542 18.874l3.56348 3.04395c4.1582 -6.51758 6.86621 -10.7617 13.5859 -17.4814c7.43652 -7.43652 16.5234 -14.0146 24.8867 -17.3125c7.75 -3.02246 20.3838 -5.39746 28.7031 -5.39746
c10.6729 0 22.1719 2.47949 34.8184 7.3623c11.3799 4.3916 25.6172 15.8311 32.2158 25.4951c3.3877 4.96094 7.20312 17.4434 7.20312 26.3623c0 0.647461 0 0.647461 -0.256836 6.46875c6.8418 -1.38086 9.33789 -1.88574 12.252 -1.88574
c3.4082 0 16.4775 1.66211 25.8301 5.64746c10.1963 4.14941 23.1387 14.4717 29.3027 22.999c7.20117 10.0596 12.8965 27.7998 12.8965 40.1738c0 8.96191 -3.08887 22.2988 -7.02734 30.3447c-6.75586 13.8018 -28.6143 32.9268 -52.0693 36.6494l-2.50293 0.396484
c-1.8291 5.89844 -5.68945 18.3457 -19.0146 31.6709c-7.56836 7.56836 -24.0869 20.9668 -46.1885 20.9668c-28.5322 0 -52.9326 -20.8877 -62.2061 -38.5342l-1.06934 -2.03418c-9.00586 -0.543945 -22.6055 -2.58984 -36.1055 -9.24219l-3.20898 -1.58105
c-3.2832 4.9082 -4.97754 7.44141 -9.18555 11.6494c-11.2871 11.2861 -28.1387 19.834 -43.3438 20.3281c-0.186523 0.00292969 -0.374023 0.00488281 -0.5625 0.00488281c-18.4248 0 -46.459 -15.0312 -55.8574 -39.042
c-2.22949 -5.99219 -3.7334 -20.6445 -3.93262 -21.748c0 -11.7871 5.53418 -27.7822 13.0439 -37.9932l1.72461 -2.34473l-1.65918 -2.3916c-7.76562 -11.1943 -13.5312 -28.6797 -13.5312 -41.3701zM30.3242 741.553h55.5146l17.1611 52.2256l17.1602 -52.2256h55.5156
l-44.8672 -32.2959l17.1611 -52.2246l-44.9697 32.2959l-44.9707 -32.2959l17.1611 52.2246zM746 631c0 -96.6865 78.0879 -230.199 109.375 -248.775l11.1992 -6.64941c-16.9434 -0.478516 1.18945 0.900391 -34.5742 -3.5752l-1.0752 1.36426
c-22.0068 27.9238 -104.004 167.01 -116.903 264.233c-0.657227 4.95117 0.0224609 9.79688 0.582031 18.2783c-1.38379 0.708984 -2.88672 1.4873 -4.52246 2.34082c-0.0283203 -1.83984 -0.322266 -3.81641 -0.0449219 -5.88867
c33.3789 -249.661 107.546 -273.742 107.546 -273.742s6.91211 -4.29004 10.2793 -6.58594h-32.8613c-44.1455 16.1279 -111.697 208.17 -111.697 279.331c0 8.73535 0.302734 15.3135 0.785156 20.6846c-60.6641 32.3369 -123.179 64.7012 -226.885 64.7012
c-23.0527 0 -45.5234 -2.04883 -73.3945 -6.17773c-32.3232 -4.78906 -32.3232 -4.78906 -70.6152 -21.2002c-18.916 -8.10645 -50.2139 -47.4062 -58.166 -66.7188c-7.02734 -17.0664 -9.0791 -30.2676 -9.0791 -45.8906c0 -22.332 3.62891 -44.376 3.62891 -77.1553
c0 -8.99219 1.14648 -13.8564 1.14648 -20.1924c0 -4.57031 -0.613281 -9.64551 -2.73242 -16.6025c-19.9492 -65.4795 -40.3174 -87.0479 -63.832 -110.183c-6.25977 -6.16016 -27.0508 -26.6172 -27.0508 -37.7881c0 -4.45605 0.882812 -6.9082 38.3447 -19.4531
c55.9199 -18.7266 60.0254 -24.4102 60.0254 -90.9766c0 -43.0117 -4.74121 -62.7734 -4.74121 -104.492c0 -5.5 0.0820312 -11.3867 0.267578 -17.7666c0.50293 -17.292 16.4512 -45.3398 23.8975 -57.5352c1.19629 -0.303711 1.95996 -1.18164 1.95996 -1.18164
c1.1543 -0.666992 2.48438 -1.60059 4.13477 -2.74414c16.0508 -11.1162 22.0049 -13.1846 40.8428 -13.1846c24.0361 0 22.3457 4.21484 79.0615 4.21484c0.316406 0 6.94531 -0.00390625 7.01562 -0.00390625c14.7988 0 25.668 0.226562 52.1025 3.80078
c20.2021 2.73242 38.8271 4.61523 56.5088 6.4043c120.938 12.2334 143.711 24.1475 222.178 80.1953c2.23438 1.5957 5.14355 3.85352 8.45703 6.42773c12.6104 9.7959 33.0303 26.8994 48.1416 26.8994c8.16699 0 13.834 -4.95996 13.834 -14.165
c0 -15.4473 -17.4082 -42.8486 -33.0938 -42.8486c-1.16406 0 -1.56543 0.129883 -3.01758 0.129883c-22.6426 0 -44.3604 -36.5264 -79.4766 -51.29c-52.8857 -22.2344 -80.2979 -27.1279 -117.459 -33.71c-17.2549 -3.05664 -36.6504 -6.49316 -61.8809 -12.2393
c-34.7246 -7.90918 -51.6299 -8.61133 -86.7539 -8.61133c-0.251953 0 -22.7891 0.03125 -25.0811 0.03125c-11.3115 0 -32.6182 -0.123047 -32.9473 -0.123047c-40.7773 0 -82.5049 2.86621 -120.91 24.8125c-26.0957 14.9121 -27.9092 36.1035 -30.0449 61.0586
c-0.477539 5.59082 -0.976562 11.3994 -1.75781 17.3906c-1.96484 15.7158 -2.63672 29.7119 -2.63672 42.8916c0 28.6572 3.1748 53.4248 3.1748 84.1699c0 46.4277 -4.59863 49 -29.7539 58.8145c-27.3184 10.6582 -57.2148 13.2568 -70.834 26.876
c-4.33008 4.33008 -6.66504 9.68945 -6.66504 16.1094c0 4.7959 1.30371 10.1846 4.05176 16.1768c36.4951 79.5967 68.6367 70.0742 91.3711 139.761c5.20312 15.9443 6.93652 32.2529 6.93652 48.6797c0 32.5635 -6.77832 65.1611 -6.77832 95.8125
c0 47.6494 17.2412 68.3838 35.0508 86.1934c66.2422 66.2412 143.674 66.3555 238.901 66.3555h0.988281c82.8154 0 132.135 -23.3467 188.021 -49.8477c43.5547 -20.6533 21.8506 -15.7109 32.4561 -16.8408c11.3984 -1.2168 39 -13 47.5039 -30.4053
c4.31641 -8.83496 -4.12305 -21.668 -4.50391 -29.5947c-0.257812 -5.36523 2 -14.3428 2 -20z" />
  </g>

</svg>
