<?xml version="1.0" standalone="no"?>
<!DOCTYPE svg PUBLIC "-//W3C//DTD SVG 1.1//EN" "http://www.w3.org/Graphics/SVG/1.1/DTD/svg11.dtd" >
<svg xmlns="http://www.w3.org/2000/svg" xmlns:xlink="http://www.w3.org/1999/xlink" version="1.1" viewBox="-10 0 1223 1000">
  <g transform="matrix(1 0 0 -1 0 800)">
   <path fill="currentColor"
d="M803 0c-21.8896 36.7188 -83.6816 155.712 -212.274 155.712c-119.808 0 -220.762 -100.603 -230.726 -155.712l110.514 0.306641c2.26731 15.8632 15.4863 45.6934 46.1162 69.1299c29.3576 22.4631 62.3828 24.9004 77.3701 24.5635
c63.502 -1.42773 88.3437 -66.5283 95 -94c28.7529 0.333984 72.376 -0.423828 114 0zM579 237c-135.453 0 -212.495 -65.7218 -332 -219c-0.0898438 -0.115234 -8.25684 -13.5947 -12 -18h92c37.1807 120.41 160.478 185.036 259.516 185.036
c48.7305 0 183.111 -19.5527 249.484 -185.036c30.7969 0.304688 48.3682 3.07422 60.5889 3.07422c1.51562 0 14.583 -1.83984 36.4111 -3.07422c-152.522 160.438 -248.674 237 -354 237zM82 0c249.476 417.979 590 546 1026 -3l-48 3c-454 506 -708 336 -927 0h-51z
M509.537 0.015625l0.619141 0.27832v0.891602l-0.69043 0.799805l-0.601562 -0.274414v-1.41406zM1111.1 -9.22949c0.176758 -1.45312 0.896484 -2.625 0.896484 -4.77051v-1.00879l-453.735 4.01562c-0.532227 2.66406 -1.06543 5.3291 -1.59863 7.99316h-0.460938
c-7.13086 65.8438 -59.8154 68.3174 -67.6943 68.3174c-31.5049 0 -69.168 -21.2158 -77.7979 -63.3174h0.279297c-0.837891 -2.02637 -0.946289 -2.28809 -0.946289 -3.22949c0 -0.18457 0 -0.704102 0.212891 -1.25977l0.0146484 -0.0585938
c0.0253906 -0.102539 0.03125 -0.19043 0.03125 -0.264648c0 -0.0546875 -0.00292969 -0.101562 -0.00292969 -0.140625v-0.850586h-0.275391c0.111328 -1.4082 0.842773 -1.43652 0.842773 -3.74316c0 -0.242188 0 -0.242188 -0.0566406 -1.44434l-427.812 -4.01758
v4.29395l0.115234 0.188477c0 0.22168 -0.0917969 0.530273 -0.109375 0.706055l-1.11621 10.8389l118.616 -2.00879c16.7236 27.0771 48.2109 88.125 94.2295 134.144c117.23 117.23 229.957 133.847 274.265 133.847c112.478 0 227.229 -74.2861 321.102 -168.157
c48.751 -48.75 88.0137 -99.959 88.8984 -100.843c0.660156 -0.661133 1.16895 -3.23438 2.51074 -3.28223c23.1504 -0.829102 128.541 3.23535 129.763 2.01367c0.163086 -0.163086 0.25 -0.438477 0.25 -0.713867c0 -2.2041 -0.9375 1.46191 -0.9375 -3.40527
c0 -1.15723 0.0439453 -2.19141 0.0439453 -2.19141l1.16602 -1.69434z" />
  </g>

</svg>
