<?xml version="1.0" standalone="no"?>
<!DOCTYPE svg PUBLIC "-//W3C//DTD SVG 1.1//EN" "http://www.w3.org/Graphics/SVG/1.1/DTD/svg11.dtd" >
<svg xmlns="http://www.w3.org/2000/svg" xmlns:xlink="http://www.w3.org/1999/xlink" version="1.1" viewBox="-10 0 1051 1000">
  <g transform="matrix(1 0 0 -1 0 800)">
   <path fill="currentColor"
d="M271 608l-12 60c128.725 89.7881 355.203 55.3633 442.457 48.5605c0 -0.0107422 0.000976562 -0.0214844 0.000976562 -0.0322266c27.4463 0.582031 75.1855 -1.32129 107.268 -33.4033c40.1396 -40.1396 38.6152 -108.841 37.5254 -169.365
c-0.395508 -21.9258 -0.433594 -33.2402 -0.22168 -41.9463c26.3789 -43.8281 72.168 -89.959 89.3252 -129.607c6.95117 -16.0635 5.49219 -24.7637 2.64551 -40.2051l-12 -14l-79.501 -63.5771v-212.431c1.93945 -31.0869 1.82422 -79.2412 -27.416 -108.48
c-26.0322 -26.0322 -182.507 -12.0195 -220.584 -13.0049l-2.90137 0.0126953c-103.732 -7.2998 -296.108 50.6025 -326.603 92.1719c-18.5059 25.2275 -31.4014 41.2529 -57.9951 55.3086v70.0371c25.8174 -16.2627 49.624 -17.8066 70.1904 -60.6357
c44.2188 -92.082 349.455 -105.734 451.309 -108.438l-0.499023 -0.962891c50 12 34.1514 4.48145 42.5352 13.5361c19.1768 20.7119 3.97852 41.9688 5.50781 57.9648h-0.541992v2.14941c-0.253906 0.990234 -0.500977 1.94141 -0.738281 2.84863h0.738281v207.174v3.4873
v1.33887h1.58203l104 88h1.13281c4.9834 45.8955 -62.8379 92.1289 -94.2158 139.501l-3 4l-1 1c-2.02051 3.99219 0.0439453 4.02539 -2.08398 11.5605c-0.0371094 0.130859 -0.189453 0.24707 -0.174805 0.367188l0.258789 2.07227l0.0644531 1.49902
c0.00976562 0.226562 0.150391 3.89551 0.242188 6.24414c3.11426 79.1523 14.1973 176.389 -74.8154 176.771c-136.35 16.7461 -373.536 9.53418 -431.49 -46.5137zM30.3545 728.521h55.5146l17.1611 52.2256l17.1602 -52.2256h55.5156l-44.8672 -32.2959l17.1611 -52.2246
l-44.9697 32.2959l-44.9707 -32.2959l17.1611 52.2246zM568 294.5c66.3779 -0.0917969 120.25 -54.0381 120.25 -120.417v-0.0830078c-0.137695 -66.2402 -54.0098 -120 -120.25 -120c-66.3779 0 -120.25 53.8721 -120.25 120.25s53.8721 120.25 120.25 120.25z
M679.75 177.833c-0.826172 22.9229 -14.1914 55.1406 -29.834 71.917l-46.916 -46.917c5.11719 -5.96973 9.8584 -17.1699 10.583 -25h66.167zM572.167 285.667l-0.0839844 -66.667c7.75488 -0.664062 18.9551 -5.18164 25 -10.083l46.917 46.916
c-16.7568 15.625 -48.9375 28.9912 -71.833 29.834zM563.833 285.667c-22.8857 -0.823242 -55.0664 -14.1514 -71.833 -29.75l46.833 -47c6.0459 4.90137 17.2451 9.41895 25 10.083v66.667zM486.083 250c-15.6934 -16.835 -29.0586 -49.165 -29.833 -72.167h66.166
c0.725586 7.83008 5.4668 19.0303 10.584 25zM456.25 169.5c0.892578 -22.8164 14.2588 -54.8857 29.833 -71.583l46.833 46.583c-5.11719 5.96973 -9.8584 17.1699 -10.583 25h-66.083zM563.833 62.25l0.0839844 66.667c-7.75488 0.664062 -18.9551 5.18066 -25.001 10.083
l-46.916 -46.917c16.7568 -15.625 48.9375 -28.9902 71.833 -29.833zM572.167 62.25c22.9219 0.825195 55.1406 14.1914 71.916 29.833l-46.916 46.917c-6.0459 -4.90234 -17.2461 -9.41895 -25 -10.083v-66.667zM649.916 97.917
c15.5488 16.707 28.877 48.7764 29.751 71.583h-66.084c-0.724609 -7.83008 -5.46582 -19.0303 -10.583 -25zM530.5 174c0 -47.7803 75 -47.5361 75 0c0 20.3887 -16.7891 36.917 -37.5 36.917s-37.5 -16.5283 -37.5 -36.917zM568 294.5
c66.3779 -0.0917969 120.25 -54.0381 120.25 -120.417v-0.0830078c-0.137695 -66.2402 -54.0098 -120 -120.25 -120c-66.3779 0 -120.25 53.8721 -120.25 120.25s53.8721 120.25 120.25 120.25zM679.75 177.833c-0.826172 22.9229 -14.1914 55.1406 -29.834 71.917
l-46.916 -46.917c5.11719 -5.96973 9.8584 -17.1699 10.583 -25h66.167zM572.167 285.667l-0.0839844 -66.667c7.75488 -0.664062 18.9551 -5.18164 25 -10.083l46.917 46.916c-16.7568 15.625 -48.9375 28.9912 -71.833 29.834zM563.833 285.667
c-22.8857 -0.823242 -55.0664 -14.1514 -71.833 -29.75l46.833 -47c6.0459 4.90137 17.2451 9.41895 25 10.083v66.667zM486.083 250c-15.6934 -16.835 -29.0586 -49.165 -29.833 -72.167h66.166c0.725586 7.83008 5.4668 19.0303 10.584 25zM456.25 169.5
c0.892578 -22.8164 14.2588 -54.8857 29.833 -71.583l46.833 46.583c-5.11719 5.96973 -9.8584 17.1699 -10.583 25h-66.083zM563.833 62.25l0.0839844 66.667c-7.75488 0.664062 -18.9551 5.18066 -25.001 10.083l-46.916 -46.917
c16.7568 -15.625 48.9375 -28.9902 71.833 -29.833zM572.167 62.25c22.9219 0.825195 55.1406 14.1914 71.916 29.833l-46.916 46.917c-6.0459 -4.90234 -17.2461 -9.41895 -25 -10.083v-66.667zM649.916 97.917c15.5488 16.707 28.877 48.7764 29.751 71.583h-66.084
c-0.724609 -7.83008 -5.46582 -19.0303 -10.583 -25zM530.5 174c0 -47.7803 75 -47.5361 75 0c0 20.3887 -16.7891 36.917 -37.5 36.917s-37.5 -16.5283 -37.5 -36.917zM556.416 367.833l-93.5625 169.376l10.7998 4.5625l83.7002 -143.775l76.2744 145.125
l14.6006 -5.91211z" />
  </g>

</svg>
