<?xml version="1.0" standalone="no"?>
<!DOCTYPE svg PUBLIC "-//W3C//DTD SVG 1.1//EN" "http://www.w3.org/Graphics/SVG/1.1/DTD/svg11.dtd" >
<svg xmlns="http://www.w3.org/2000/svg" xmlns:xlink="http://www.w3.org/1999/xlink" version="1.1" viewBox="-10 0 1004 1000">
  <g transform="matrix(1 0 0 -1 0 800)">
   <path fill="currentColor"
d="M707.746 673.424zM707.246 636.924zM659.242 641.424v0h48.5039v30.0234l-47.2285 -0.334961zM760.928 641.424l-1.59375 30.3906l-45.5879 -0.324219v-30.0664h47.1816zM761.925 622.4l-103.519 -0.459961l-29.8096 -240.644l167.354 3.0625zM806.359 680.437
l0.834961 -0.754883l-0.834961 -0.371094v1.12598v0zM616.359 681.398v-1.08789l-0.825195 0.380859zM828 360zM606.246 356.924l-0.0136719 -0.519531l-0.505859 0.513672zM784.768 697.195l-0.0214844 0.480469l0.501953 -0.478516
c-0.160156 0 -0.320312 -0.00195312 -0.480469 -0.00195312v0zM635.097 696.504l149.671 0.691406l36.4785 -337.271l-215 -3zM635.097 696.504c-0.161133 0 -0.323242 -0.00195312 -0.483398 -0.00195312l0.496094 0.486328zM713.859 781.225v-0.000976563v-0.209961
v0.209961l0.742188 0.416992v0l0.644531 -0.537109v0v-0.0449219l91.6133 -82.748v-19l-92.834 83.8516l-98.166 -82.8398v17.9912l98 82.6992v0.172852v0.0380859v0.000976563zM303.746 665.424zM303.246 628.924zM255.242 633.424v0h48.5039v30.0234l-47.2285 -0.334961z
M356.928 633.424l-1.59375 30.3906l-45.5879 -0.324219v-30.0664h47.1816zM357.925 614.4l-103.519 -0.459961l-29.8096 -240.644l167.354 3.0625zM402.359 672.437l0.834961 -0.754883l-0.834961 -0.371094v1.12598v0zM212.359 673.398v-1.08789l-0.825195 0.380859z
M424 352zM202.246 348.924l-0.0136719 -0.519531l-0.505859 0.513672zM380.768 689.195l-0.0214844 0.480469l0.501953 -0.478516c-0.160156 0 -0.320312 -0.00195312 -0.480469 -0.00195312v0zM231.097 688.504l149.671 0.691406l36.4785 -337.271l-215 -3z
M231.097 688.504c-0.161133 0 -0.323242 -0.00195312 -0.483398 -0.00195312l0.496094 0.486328zM309.859 773.225v-0.000976563v-0.209961v0.209961l0.742188 0.416992v0l0.644531 -0.537109v0v-0.0449219l91.6133 -82.748v-19l-92.834 83.8516l-98.166 -82.8398v17.9912
l98 82.6992v0.172852v0.0380859v0.000976563zM358.092 230.699c-4.78418 0 -8.57227 -3.90234 -8.57227 -8.54297v-300.105c0 -4.7666 3.91797 -8.54199 8.54199 -8.54199l373.938 -1.50879c4.70996 0 8.57227 3.82617 8.57227 8.54199l-0.804688 155.248l12.9453 0.793945
c13.0273 -0.706055 26.0557 -1.41113 39.083 -2.11719l-51.2236 59.6426v86.5381c0 4.73145 -3.87012 8.54199 -8.50977 8.54199l-212.295 -0.399414c-0.348633 10.8555 -0.698242 21.7109 -1.04688 32.5664c-0.757812 6.1377 -1.30957 10.4131 -2.72656 21.3975
l-57.9824 -52.459l-1.93945 0.0078125s-97.96 0.396484 -97.9805 0.396484zM376.609 -59.4336v263.013l80.8701 -0.34668l63.0283 -53.1514c-0.633789 23.9238 -0.811523 31.8213 -0.811523 39.3877c0 2.90234 0.00488281 3.61035 0.12207 15.3203l193.667 -2.65625
v-66.4404l-54.499 -59.7695c38.1592 1.01172 38.1592 1.01172 54.7812 1.91309l-0.282227 -138.717zM49.3545 -79.4795h55.5146l17.1611 52.2256l17.1602 -52.2256h55.5156l-44.8672 -32.2959l17.1611 -52.2246l-44.9697 32.2959l-44.9707 -32.2959l17.1611 52.2246z" />
  </g>

</svg>
