<?xml version="1.0" standalone="no"?>
<!DOCTYPE svg PUBLIC "-//W3C//DTD SVG 1.1//EN" "http://www.w3.org/Graphics/SVG/1.1/DTD/svg11.dtd" >
<svg xmlns="http://www.w3.org/2000/svg" xmlns:xlink="http://www.w3.org/1999/xlink" version="1.1" viewBox="-10 0 1043 1000">
  <g transform="matrix(1 0 0 -1 0 800)">
   <path fill="currentColor"
d="M30.3242 741.553h55.5146l17.1611 52.2256l17.1602 -52.2256h55.5156l-44.8672 -32.2959l17.1611 -52.2246l-44.9697 32.2959l-44.9707 -32.2959l17.1611 52.2246zM271 608l-12 60c128.725 89.7881 355.203 55.3633 442.457 48.5605
c0 -0.0107422 0.000976562 -0.0214844 0.000976562 -0.0322266c27.4463 0.582031 75.1855 -1.32129 107.268 -33.4033c40.1396 -40.1396 38.6152 -108.841 37.5254 -169.365c-0.395508 -21.9258 -0.433594 -33.2402 -0.22168 -41.9463
c26.3789 -43.8281 72.168 -89.959 89.3252 -129.607c6.95117 -16.0635 5.49219 -24.7637 2.64551 -40.2051l-12 -14l-79.501 -63.5771v-212.431c1.93945 -31.0869 1.82422 -79.2412 -27.416 -108.48c-26.0322 -26.0322 -182.507 -12.0195 -220.584 -13.0049
l-2.90137 0.0126953c-103.732 -7.2998 -296.108 50.6025 -326.603 92.1719c-18.5059 25.2275 -31.4014 41.2529 -57.9951 55.3086v70.0371c25.8174 -16.2627 49.624 -17.8066 70.1904 -60.6357c44.2188 -92.082 349.455 -105.734 451.309 -108.438l-0.499023 -0.962891
c50 12 34.1514 4.48145 42.5352 13.5361c19.1768 20.7119 3.97852 41.9688 5.50781 57.9648h-0.541992v2.14941c-0.253906 0.990234 -0.500977 1.94141 -0.738281 2.84863h0.738281v207.174v3.4873v1.33887h1.58203l104 88h1.13281
c4.9834 45.8955 -62.8379 92.1289 -94.2158 139.501l-3 4l-1 1c-2.02051 3.99219 0.0439453 4.02539 -2.08398 11.5605c-0.0371094 0.130859 -0.189453 0.24707 -0.174805 0.367188l0.258789 2.07227l0.0644531 1.49902
c0.00976562 0.226562 0.150391 3.89551 0.242188 6.24414c3.11426 79.1523 5.19727 173.389 -83.8154 173.771c-136.35 16.7461 -373.536 9.53418 -431.49 -46.5137zM425.746 295.058zM172.071 465.719zM124.698 378.506zM309.279 264.479zM308.944 253.889z
M167.916 293.269zM249.219 267.691zM470.995 398.227zM124.698 378.506zM470.995 398.227zM174.096 469.975c11.1123 24.8496 41.5391 41.6455 69.041 41.6455c11.375 0 25.708 -2.8623 35.9434 -14.833c8.19336 -3.53223 19.0693 -3.96875 19.8984 -4.13965
c4.43066 0 9.2373 0.636719 14.1406 2.375c5.84277 7.93359 22.6553 18.4688 45.5459 18.4688c9.24707 0 36.4062 0 78.7383 -42.8252h0.771484c1.15527 -1.98047 1.15527 -1.98047 5.09668 -6.09375c11.8086 -20.2793 23.7656 -40.4102 35.4805 -60.7793
c1.81641 -5.63574 6.08594 -22.7783 7.68262 -29.2246l2.23535 -0.0371094c-1.55859 -32.6982 -2.11621 -44.3291 -52.5479 -84.1797c-40.5605 -32.0547 -69.1523 -40.7754 -136.406 -40.7754c-53.0791 0 -103.952 7.51953 -150.443 54.0088
c-28.332 28.333 -33.832 52.4365 -34.0537 65.9863h-1.69531c1.7627 6.93066 1.7627 6.93066 2.04395 12.3037l1.19238 -0.0185547l3.46582 12.9971h-2.72461c1.37891 1.875 2.7627 3.74902 4.14453 5.62598v5.28125h3.88574l47.2598 64.2139h1.30469zM242.452 489.605
c-11.6348 0 -38.3037 -6.34863 -49.0166 -31.5723l-1.24512 -2.93262l-2.40918 0.927734l-41.2676 -58.4268c-0.0673828 -0.248047 -5.09473 -18.9541 -6.63477 -25.0469c-0.0292969 -1.1582 -0.0507812 -2.32324 -0.0507812 -3.49902
c0 -18.001 4.12598 -40.1006 48.7549 -71.3428c35.2412 -24.668 64.9736 -29.1953 102.798 -29.1953c70.1406 0 92.1562 8.70996 123.903 34.6523c35.1221 28.7002 45.9355 40.9912 45.9355 55.6035c0 4.24902 0 4.24902 -4.3125 21.6064
c-3.22168 12.9658 -4.14844 16.4834 -5.1875 20.376l-37.9736 59.8926c-0.358398 0.291992 -0.478516 0.821289 -1.05762 0.892578c-13.3555 8.83984 -19.4951 14.2617 -25.9395 20.2656c-6.17871 5.75488 -13.2539 12.5234 -29.5781 12.5234
c-11.7246 0 -20.3945 -3.80273 -26.0723 -7.48633c-1.58008 -4.12305 -3.68945 -6.3457 -4.82324 -7.47852c-6.80957 -6.80957 -18.0986 -9.97461 -29.6348 -9.97461c-12.4131 0 -25.6494 3.71484 -34.5703 12.1914c-0.506836 0.481445 -0.506836 0.481445 -3.49707 1.70996
l0.108398 1.35742c-7.92969 4.91113 -14.5586 4.95605 -18.0303 4.95605h-0.199219zM316.508 245.067zM612 206c64.6748 0.046875 117.167 52.5479 117.167 117.234c0 79.9434 -64.7451 143.836 -143.592 143.93l-7.00977 0.0078125v-22.2422l6.99219 -0.00683594
c66.9863 -0.0878906 121.367 -54.5342 121.367 -121.523c0 -0.198242 0.00195312 -0.393555 0.00195312 -0.591797c0 -50.5146 -41.3359 -94.5254 -94.9189 -94.5674c-40.6514 0.0839844 -73.6514 33.1758 -73.6514 73.8193c0 31.9238 25.7861 56.9326 56.7676 56.9326
c23.7803 -0.0390625 43.1328 -19.3984 43.1719 -43.1846l0.0107422 -6.98828h22.2402l-0.00878906 7.00879c-0.0517578 36.0625 -29.3438 65.3545 -65.4062 65.4062c-43.5723 -0.0498047 -78.9668 -35.4229 -79.0166 -79c0 -53.6191 43.3672 -96.1387 95.8848 -96.2344z" />
  </g>

</svg>
