<?xml version="1.0" standalone="no"?>
<!DOCTYPE svg PUBLIC "-//W3C//DTD SVG 1.1//EN" "http://www.w3.org/Graphics/SVG/1.1/DTD/svg11.dtd" >
<svg xmlns="http://www.w3.org/2000/svg" xmlns:xlink="http://www.w3.org/1999/xlink" version="1.1" viewBox="-10 0 1349 1000">
  <g transform="matrix(1 0 0 -1 0 800)">
   <path fill="currentColor"
d="M141.779 107.656c-52.0723 -69.076 -69.4649 -94.5307 -84.8952 -114.681c3.30226 -2.62384 11.4611 -9.09722 30.8395 -24.4394c17.6125 18.8406 40.9777 62.5707 67.3786 96.0986c44.0303 55.9179 92.6175 140.455 111.706 220.365l8.38604 35.106l10.8701 -34.4184
c52.9927 -167.793 118.961 -239.153 180.32 -305.581l10.7549 -11.6716l18.2439 12.163l-2.991 1.66906l3.59903 8.23418c-28.5832 25.5938 -171.307 178.521 -187.225 343.393c-17.2283 8.05008 11.9594 191.214 8.59371 250.989
c-0.511374 9.08682 -0.511374 9.08682 -0.511374 41.8432h754.368c0.781599 -107.712 0.34827 -345.59 -136.134 -526.623c-52.0753 -69.0738 -69.4649 -94.5307 -84.8952 -114.681c3.30226 -2.62384 11.4611 -9.09722 30.8395 -24.4394
c17.6125 18.8406 40.9777 62.5707 67.3786 96.0986c44.0303 55.9179 92.6175 140.455 111.706 220.365l8.38604 35.106l10.8701 -34.4184c52.9927 -167.793 118.961 -239.153 180.32 -305.581l10.7549 -11.6716l18.2439 12.163l-2.991 1.66906l3.59903 8.23418
c-28.5832 25.5938 -171.307 178.521 -187.225 343.393c-17.2283 8.05008 11.9594 191.214 8.59371 250.989c-1.29632 23.0349 0.147373 32.6029 -1.04296 36.3825l-4.09839 13.0134h12.3081v37.7754h-843.332v-37.7754h3.48963
c0.433826 -106.263 -1.42617 -340.276 -136.209 -519.07zM390.117 418.664c0 -15.8054 0 -53.7571 26.0149 -98.7186c5.09418 -8.80135 17.5921 -23.1348 18.8869 -26.9271c2.24642 -6.57957 17.4505 -22.2742 24.5126 -29.3378l200.058 -193.771
c3.31809 -3.21378 26.4705 -23.5588 53.9885 0.232916c2.08618 1.80274 15.5836 13.481 192.993 186.714c76.3392 74.5417 76.9733 133.793 76.9705 161.158c0 42.3913 -23.5909 91.3738 -46.0009 113.784c-15.5181 15.5181 -66.1861 43.6648 -113.339 43.6648
c-54.0053 1.4e-08 -91.5819 -21.3751 -138.271 -60.5655c-49.8837 41.6237 -84.8951 59.8019 -137.417 59.8019c-43.7216 0 -94.8403 -25.1287 -114.929 -45.2173c-15.3091 -15.3091 -43.4662 -64.2757 -43.4662 -110.817zM690.971 110.669l4.04533 -4.34941
c-0.444367 -0.424973 -0.444367 -0.424973 -7.85962 -7.5134l-4.61815 4.58682l0.727483 0.627714l-8.91978 10.3693l0.223111 0.19332l8.96975 -10.327zM308.766 333.894l0.603805 -0.409468zM496.03 -9.41064c1.98842 4.54929 3.1296 4.82645 15.4674 7.82288
l-2.38923 -11.2674l0.569634 -14.5242l-14.2946 7.97679l6.85358 4.5692c-2.38139 1.94808 -4.4221 3.7013 -6.20681 5.42266zM477.139 -31.5655l1.38162 -1.50261l-3.15705 0.318947zM87.7237 -31.4644c0.581364 -0.460275 1.17283 -0.928531 1.77456 -1.40491
c0 0 -3.31746 -0.192972 -3.31764 -0.193159c0.506802 0.506776 1.02124 1.03983 1.54309 1.59807zM56.8842 -7.02498c-0.52914 -0.690997 -1.03452 -1.34873 -1.5147 -1.9712l-0.212501 3.29347c0.310427 -0.247288 0.845837 -0.62197 1.7272 -1.32227zM274.499 626.726
v-9.99804l-9.99804 9.99804h9.99804zM274.499 664.501h-9.99804l9.99804 9.99804v-9.99804zM1117.83 664.501v9.99804l9.99804 -9.99804h-9.99804zM1117.83 626.726h9.99804l-9.99804 -9.99804v9.99804zM1102.07 326.341l0.603805 -0.409468zM1289.33 -16.9634
c1.98842 4.5493 3.12961 4.82645 15.4674 7.82288l-2.38923 -11.2674l0.569634 -14.5242c-4.76486 2.65893 -9.52972 5.31786 -14.2946 7.97679l6.85358 4.5692c-2.38139 1.94808 -4.4221 3.7013 -6.20681 5.42266zM1270.44 -39.1182l1.38162 -1.50261l-3.15705 0.318947z
M881.027 -39.0171c0.581364 -0.460275 1.17283 -0.928531 1.77456 -1.40491c0 0 -3.31746 -0.192972 -3.31764 -0.193159c0.506802 0.506776 1.02124 1.03983 1.54309 1.59807zM850.188 -14.5777c-0.52914 -0.690997 -1.03452 -1.34873 -1.5147 -1.9712l-0.212501 3.29347
c0.310427 -0.247288 0.845837 -0.62197 1.7272 -1.32227zM316.849 616.797v-0.0686964s-0.000164434 0.0616836 0 0.0686964zM316.846 616.602v-0.199751c0 0.0448509 -0.00150372 0.0861641 0 0.199751zM945.78 418.357c0 -20.6183 0 -68.0641 -61.581 -129.645
c-27.4526 -27.4526 -168.28 -162.402 -189.182 -182.392l3.66096 -3.93615c-11.0996 -9.59185 -12.1994 -10.5422 -17.6532 -8.67301c-2.83507 0.97168 -2.9424 1.10543 -5.18586 3.90117l6.70031 5.78141c-45.067 44.7612 -189.273 182.092 -192.628 185.448
c-21.2197 21.2197 -38.7677 49.4186 -39.5994 50.8488c-7.08963 12.2802 -21.4993 41.5803 -21.4993 76.7977l17.3739 0.128251l-16.887 2.53085c0.160958 0.500617 7.93213 29.5257 15.5457 50.2353c6.71767 18.2727 12.5321 29.4951 17.5096 33.9002
c20.3286 17.9905 60.5938 33.4803 87.4087 33.4803c12.9455 0 25.6863 -1.81433 40.7221 -6.77593c36.5398 -12.0594 73.1327 -45.9395 82.8359 -55.6428c8.68198 -8.68198 9.8406 -9.45045 13.5142 -9.45045c4.28158 0 3.20096 -0.861139 13.6614 9.59939
c6.25647 6.51753 42.7236 43.2168 82.9642 56.4774c15.8581 5.39879 36.0178 5.83527 41.2221 5.83527c34.339 2.93e-06 77.7905 -23.0553 87.6927 -33.7953c17.9331 -19.4506 33.4045 -58.4932 33.4045 -84.6525zM700.496 474.492l-0.0740824 -0.0772076
c0.0246933 0.0257449 0.0493878 0.0514804 0.0740824 0.0772076zM448.813 416.222l-0.00605259 0.413084zM428.818 416.074v-0.0630504c-0.000426139 0.0206736 0 0.0630504 0 0.0630504zM945.559 410.492v0.17377v-0.17377zM459.588 263.623l-0.115792 0.113959
s0.0585113 -0.0566728 0.115792 -0.113959z" />
  </g>

</svg>
