<?xml version="1.0" standalone="no"?>
<!DOCTYPE svg PUBLIC "-//W3C//DTD SVG 1.1//EN" "http://www.w3.org/Graphics/SVG/1.1/DTD/svg11.dtd" >
<svg xmlns="http://www.w3.org/2000/svg" xmlns:xlink="http://www.w3.org/1999/xlink" version="1.1" viewBox="-10 0 1135 1000">
  <g transform="matrix(1 0 0 -1 0 800)">
   <path fill="currentColor"
d="M779.659 59.4854c-30.5039 0 -50.1953 -1.96582 -72.3057 -4.59473c-9.29004 13.6016 -14.457 20.7412 -28.7285 34.5088c-18.835 18.1699 -75.8867 33.8945 -130.73 33.8945c-36.9541 0 -75.917 -6.44238 -109.894 -22.5186
c-16.6992 -7.90625 -27.9141 -17.9541 -44.2158 -40.8125c-24 2.39746 -41.2588 3.62109 -66.1943 3.62109c-36.8574 0 -75.9297 -3.45215 -110.043 -12.041c-13.1367 -3.30859 -33.6436 -11.0195 -48.416 -25.791c-5.83691 -5.83984 -7.48633 -10.959 -7.48633 -16.5391
c0 -13.082 12.6748 -29.0957 15.7881 -32.2109c6.34473 -6.3418 17.3057 -11.8789 25.3682 -15.7041c25.4492 -12.0645 76.2793 -18.1865 125.264 -18.1865c35.3701 0 58.5791 2.51172 78.5234 5.05957c8.66406 -9.27051 10.373 -10.9307 16.6553 -16.5303
c35.5957 -31.7207 112.608 -33.6406 127.756 -33.6406c42.8721 0 84.084 8.09375 105.637 20.7832c15.2988 9.00977 24.2373 17.377 34.4199 27.1963c19.3955 -3.17383 46.0049 -7.03125 89.335 -7.03125c42.7314 0 84.3633 4.48828 106.142 11.3135
c54.2578 17.001 67.4072 42.4873 67.5117 49.1836c0 2.37695 -6.13086 12.7178 -14.085 20.6768c-7.32324 7.32031 -16.8213 13.665 -31.4443 21.1729c-17.0762 8.76562 -70.3857 18.1904 -128.856 18.1904zM915.665 0.0371094
c0 -26.0303 -73.1631 -44.3125 -147.262 -44.3125c-22.8193 0 -32.2031 1.04199 -63.2812 5.15723c15.041 28.9111 16.4062 31.6367 19.0664 49.8105l0.467773 0.660156c-0.0908203 0.249023 -6.65137 21.042 -8.07227 25.2314
c26.4004 2.53223 43.5127 4.1709 73.2324 4.1709c39.2842 0 75.3555 -2.77832 94.0977 -12.1514c22.6846 -11.3418 30.4014 -17.4512 31.751 -27.7188v-0.847656zM390.275 -20.8096v-13.3672c-26.1348 -3.72754 -44.0537 -5.80957 -71.7314 -5.80957
c-34.6611 0 -68.168 3.92285 -91.5801 14.5469c-20.125 9.13574 -33.1025 18.2373 -33.1025 30.5215c0 17.1621 16.0762 22.3643 27.0459 25.9141c40.5469 13.125 100.534 14.1445 120.465 14.1445c11.8809 0 15.5811 -0.0195312 42.8936 -1.51758
c-2.32227 -18.3496 -2.32227 -18.3496 -2.32227 -23.1953c0 -15.3174 4.12988 -29.2178 8.33203 -41.2373zM644.312 0.883789c0 11.9873 10.4189 15.4971 35.6846 24.0088c5.4834 1.84473 10.1797 3.60156 10.1797 3.60156l30.8164 11.5225
c-8.70996 -6.75293 -17.4199 -13.5068 -26.1299 -20.2598c-3.31445 -10.3184 -3.31445 -10.3184 -3.88574 -11.0322c-10.5439 -13.1855 1.77051 0.0380859 -18.2061 -31.5l-2.73926 -4.32324c-19.0918 12.707 -25.7197 17.1191 -25.7197 27.9824zM613.146 5.01465
c0 -7.67285 14.626 -29.3184 27.6602 -41.8887l18.7422 8.15234l4.03125 -9.15332l-33.9287 -15.0703c-26.6631 -11.8447 -59.0684 -18.1895 -90.3867 -18.1895c-43.0361 0 -60.3271 8.62695 -95.5908 26.2197c33.6436 17.3135 38.9736 20.0566 48.708 29.7871
c10.9248 10.9258 11.2197 17.7197 11.2129 18.5732v0.201172c-0.961914 4.5166 -8.5625 15.2158 -13.9365 20.5889c-12.3252 12.3252 -34.2285 22.5039 -34.2285 22.5039c-0.0869141 0.0380859 -16.4092 7.16016 -16.4092 7.16016l-10.418 4.5459
c8.91992 3.9541 17.8398 7.90918 26.7598 11.8633c28.3232 12.5557 67.8408 19.0645 105.081 19.0645c40.4668 0 76.2295 -7.1543 93.4658 -23.3496c1.41602 -1.33301 1.41602 -1.33301 17.0264 -16.3711c-26.0068 -10.3145 -57.7891 -22.9189 -57.7891 -44.6377z
M465.214 4.23535c0 -13.8545 -22.1191 -24.625 -30.791 -26.1064c-3.95703 -0.958008 -7.91406 -1.91699 -11.8711 -2.87598c-0.612305 4.00293 -1.22461 8.00586 -1.83594 12.0088c-4.14355 8.0293 -6.38086 16.7266 -6.38086 26.082c0 4.65918 0 4.65918 3.17773 27.4434
c39.0674 -19.5518 45.9033 -23.0361 47.7012 -36.21v-0.341797zM459.712 441.972l80.3027 35.6914l-29.0664 -91.4766l-236.963 0.849609l-41.7607 95.8496l83.8174 -36.8184l73.4824 86.0859zM199.629 515.668l58.3887 -147.462h271.108l46.1875 146.549l-111.695 -47.502
l-75.6191 97.8906l-76.9219 -96.1953zM256.743 366.333zM387 246.5c-155.269 0 -281.25 99.0127 -281.25 220.5c0 121.479 125.971 220.5 281.25 220.5c155.269 0 281.25 -99.0127 281.25 -220.5c0 -121.479 -125.971 -220.5 -281.25 -220.5zM387 714.5
c-171.761 0 -310.5 -109.506 -310.5 -245.25c0 -135.739 138.733 -245.25 310.5 -245.25c171.761 0 310.5 109.506 310.5 245.25c0 135.739 -138.733 245.25 -310.5 245.25zM278.696 383.955zM1038 664.39l-121 -137l131 -136l-17 -16l-131 136l-119 -136l-13 15l118 135
l-116 135l16 16l116 -130l122 131z" />
  </g>

</svg>
