<?xml version="1.0" standalone="no"?>
<!DOCTYPE svg PUBLIC "-//W3C//DTD SVG 1.1//EN" "http://www.w3.org/Graphics/SVG/1.1/DTD/svg11.dtd" >
<svg xmlns="http://www.w3.org/2000/svg" xmlns:xlink="http://www.w3.org/1999/xlink" version="1.1" viewBox="-10 0 1051 1000">
  <g transform="matrix(1 0 0 -1 0 800)">
   <path fill="currentColor"
d="M30.3242 741.553h55.5146l17.1611 52.2256l17.1602 -52.2256h55.5156l-44.8672 -32.2959l17.1611 -52.2246l-44.9697 32.2959l-44.9707 -32.2959l17.1611 52.2246zM271 608l-12 60c128.725 89.7881 355.203 55.3633 442.457 48.5605
c0 -0.0107422 0.000976562 -0.0214844 0.000976562 -0.0322266c27.4463 0.582031 75.1855 -1.32129 107.268 -33.4033c40.1396 -40.1396 38.6152 -108.841 37.5254 -169.365c-0.395508 -21.9258 -0.433594 -33.2402 -0.22168 -41.9463
c26.3789 -43.8281 72.168 -89.959 89.3252 -129.607c6.95117 -16.0635 5.49219 -24.7637 2.64551 -40.2051l-12 -14l-79.501 -63.5771v-212.431c1.93945 -31.0869 1.82422 -79.2412 -27.416 -108.48c-26.0322 -26.0322 -182.507 -12.0195 -220.584 -13.0049
l-2.90137 0.0126953c-103.732 -7.2998 -296.108 50.6025 -326.603 92.1719c-18.5059 25.2275 -31.4014 41.2529 -57.9951 55.3086v70.0371c25.8174 -16.2627 49.624 -17.8066 70.1904 -60.6357c44.2188 -92.082 349.455 -105.734 451.309 -108.438l-0.499023 -0.962891
c50 12 34.1514 4.48145 42.5352 13.5361c19.1768 20.7119 3.97852 41.9688 5.50781 57.9648h-0.541992v2.14941c-0.253906 0.990234 -0.500977 1.94141 -0.738281 2.84863h0.738281v207.174v3.4873v1.33887h1.58203l104 88h1.13281
c4.9834 45.8955 -62.8379 92.1289 -94.2158 139.501l-3 4l-1 1c-2.02051 3.99219 0.0439453 4.02539 -2.08398 11.5605c-0.0371094 0.130859 -0.189453 0.24707 -0.174805 0.367188l0.258789 2.07227l0.0644531 1.49902
c0.00976562 0.226562 0.150391 3.89551 0.242188 6.24414c3.11426 79.1523 5.19727 173.389 -83.8154 173.771c-136.35 16.7461 -373.536 9.53418 -431.49 -46.5137zM412.896 220.146c-36.5928 0 -66.2871 32.2432 -66.2871 66.8496
c0 16.9668 10.3535 37.8105 17.3916 45.0049c1.86523 1.94922 2.80566 4.44238 2.80566 6.93164c0 2.48242 -0.933594 4.96191 -2.81641 6.89844c-9.20508 9.21484 -16.6758 27.2568 -16.6875 40.1709c0 0.963867 2.02832 16.3955 3.61816 19.9268
c8.20312 18.8418 31.499 34.4863 52.0117 34.9775l0.142578 0.00390625l0.143555 -0.00488281c18.0254 -0.635742 41.4326 -14.0947 50.4385 -34.5479c1.47949 -3.08594 5.10547 -5.80078 9.2168 -5.80078c2.81738 0 4.55176 1.14648 5.7666 1.94922
c10.9316 7.22656 30.4756 13.124 43.542 13.124c1 0 2.67969 -0.0439453 3.20605 -0.0576172c0.0302734 0 0.0566406 -0.00195312 0.0771484 -0.00195312c4.16211 0.0244141 7.95898 3.06152 9.2793 6.39551c9.38867 22.7686 37.0713 41.2695 61.6387 41.2695
c-0.441406 0.203125 -0.647461 0.333008 -0.647461 0.394531c0 0.0263672 0.0419922 0.0400391 0.12207 0.0400391c2.20117 0 33.4346 -9.93848 44.0381 -20.542c4.01074 -4.01074 15.7109 -16.8828 18.6689 -33.2197c1.05859 -5.32812 5.69238 -8.0791 9.41797 -8.19727
c34.3037 -0.920898 62.1533 -29.5312 62.1533 -63.8438c0 -0.46875 -0.570312 -26.7197 -17.3184 -43.4678c-9.99121 -9.99121 -21.9727 -15.2295 -22.8438 -15.5732c-9.14551 -3.60645 -19.9551 -4.9834 -25.0518 -4.9834h-0.109375
c-7.84082 0.175781 -14.1182 4.09082 -23.0117 4.09082c-4.46582 0 -6.99707 -1.19824 -8.36133 -2.5625c-0.164062 -0.178711 -0.869141 -0.976562 -3.62793 -4.1084c1.96289 -4.5293 4.71289 -10.876 4.71289 -19.2109c0 -12.0791 -7.10449 -23.3701 -7.46094 -23.4248
c-1.79297 -2.48145 -3.9375 -4.91797 -6.29004 -7.27051c-6.9541 -6.95508 -15.6631 -13.1895 -22.9434 -16.1348c-17.3994 -7.03809 -32.2871 -7.13574 -33.4863 -7.13574c-12.3887 0 -28.4277 4.69922 -29.3799 5.44727c-14.8682 6.1709 -32.707 23.6152 -38.9717 40.8164
c-1.10742 2.86719 -4.19727 5.81543 -7.69922 6.50488c-0.845703 0.0517578 -1.79688 0.0673828 -2.81055 0.0673828c-0.0908203 0 -5.16016 -0.717773 -7.99707 -4.18652c-14.5576 -17.7988 -39.5098 -26.5889 -54.5898 -26.5889zM525.373 203.365l-0.0449219 0.0195312z
M363.908 331.9v0zM332.055 285.787c0 -44.8223 39.3047 -82.4453 80.1807 -82.4453c30.6309 0 54.418 18.9033 58.2832 22.2051l4.19336 3.58008c4.8916 -7.66797 8.07812 -12.6602 15.9844 -20.5664c8.74707 -8.74805 19.4385 -16.4873 29.2773 -20.3672
c9.11719 -3.55566 23.9814 -6.35059 33.7686 -6.35059c12.5566 0 26.084 2.91797 40.9629 8.66113c13.3877 5.16797 30.1377 18.626 37.9014 29.9961c3.98535 5.83594 8.47363 20.5215 8.47363 31.0137c0 0.761719 0 0.761719 -0.301758 7.61035
c8.04883 -1.625 10.9854 -2.21777 14.4131 -2.21777c4.01074 0 19.3857 1.9541 30.3887 6.64355c11.9971 4.88184 27.2217 17.0264 34.4746 27.0566c8.47168 11.8359 15.1719 32.7061 15.1719 47.2646c0 10.542 -3.63477 26.2334 -8.26758 35.6992
c-7.94824 16.2373 -33.6641 38.7383 -61.2578 43.1162l-2.94434 0.467773c-2.15234 6.93848 -6.69336 21.582 -22.3711 37.2598c-8.90332 8.90332 -28.3369 24.666 -54.3389 24.666c-33.5674 0 -62.2734 -24.5732 -73.1836 -45.334l-1.25781 -2.39355
c-10.5947 -0.640625 -26.5947 -3.04688 -42.4785 -10.873l-3.77344 -1.85938c-3.8623 5.77344 -5.85547 8.75391 -10.8076 13.7051c-13.2783 13.2773 -33.1035 23.332 -50.9922 23.915c-0.21875 0.00292969 -0.439453 0.00585938 -0.661133 0.00585938
c-21.6758 0 -54.6582 -17.6836 -65.7148 -45.9316c-2.62305 -7.0498 -4.39258 -24.2881 -4.62695 -25.5859c0 -13.8682 6.51172 -32.6855 15.3457 -44.6973l2.0293 -2.75977l-1.95215 -2.81445c-9.13574 -13.1689 -15.9189 -33.7402 -15.9189 -48.6699zM525.27 375.819
c0.504883 -8.97363 -3.09668 -32.5576 -2.0918 -38.2666c0.307617 -0.350586 0.625 -0.892578 0.691406 -1.59473c2.0918 -22.5029 20.5098 -44.6787 27.6348 -51.8027c1.44141 -1.44238 1.44141 -1.44238 5.62305 -4.67676
c-0.491211 -0.321289 -0.491211 -0.321289 -7.99707 -5.3252c-1.13867 -0.760742 -2.67969 -0.583008 -3.61426 0.435547c-12.0312 13.0879 -21.4795 23.3662 -29.8438 47.2383c-3.77832 -11.7646 -10.6729 -23.3184 -17.041 -31.4062
c-4.45117 -5.65137 -7.95215 -12.5869 -11.2812 -15.917c-1.01562 -1.01465 -2.61816 -1.08594 -3.71582 -0.216797c-5.65723 4.47852 -5.65723 4.47852 -5.77344 4.59473c-1.00684 1.00586 -1.08496 2.59082 -0.239258 3.6875
c3.17871 4.12109 13.6719 18.4629 13.8125 18.6484c20.3135 26.6826 21.3008 62.1475 21.1387 81.2422c-0.0136719 1.58008 1.28125 2.8584 2.86133 2.82227c7.48047 -0.166016 7.48047 -0.166016 8.56152 -1.24707c0.810547 -0.810547 1.22363 -2.01367 1.19629 -3.38672
c-0.00878906 -0.462891 -0.0498047 -2.55664 0.078125 -4.8291z" />
  </g>

</svg>
