<?xml version="1.0" standalone="no"?>
<!DOCTYPE svg PUBLIC "-//W3C//DTD SVG 1.1//EN" "http://www.w3.org/Graphics/SVG/1.1/DTD/svg11.dtd" >
<svg xmlns="http://www.w3.org/2000/svg" xmlns:xlink="http://www.w3.org/1999/xlink" version="1.1" viewBox="-10 0 1010 1000">
  <g transform="matrix(1 0 0 -1 0 800)">
   <path fill="currentColor"
d="M449.482 312.133c-4.7838 0 -8.57227 -3.90243 -8.57227 -8.54297v-300.105c0 -4.76644 3.91806 -8.54199 8.54199 -8.54199l373.938 -1.50879c4.70995 0 8.57248 3.82649 8.57227 8.54199l-0.804688 155.248l12.9453 0.793945l39.083 -2.11719l-51.2236 59.6426v86.5381
c0 4.73161 -3.8704 8.54202 -8.50977 8.54199l-212.295 -0.399414l-1.04736 32.5661c-0.757026 6.13794 -1.30885 10.4137 -2.72643 21.3975l-57.9821 -52.4588l-1.93917 0.00784629s-97.9604 0.39641 -97.9808 0.396451zM468 22v263.013l80.8701 -0.34668l63.0282 -53.1511
c-0.633312 23.9234 -0.811447 31.821 -0.811447 39.3873c0 2.90293 0.00450494 3.61011 0.121833 15.3208l193.667 -2.65653v-66.4404l-54.4988 -59.7693c38.1592 1.01151 38.1592 1.01151 54.7812 1.91327l-0.282321 -138.717zM34.3545 -40.4795h55.5146l17.1611 52.2256
l17.1602 -52.2256h55.5156l-44.8672 -32.2959l17.1611 -52.2246l-44.9697 32.2959l-44.9707 -32.2959l17.1611 52.2246zM539.857 437h-129.857l-30.2822 76.4766l55.9619 -23.459l36.625 45.8008l35.9707 -46.5645l55.4883 23.5996zM439.641 472.543l-34.2334 15.0391
l15.7754 -36.207l106.105 -0.380859l10.9678 34.5176l-33.5654 -14.918l-31.8174 40.8809zM621 632l-297 0.75v14.8477h266.292v84.3047h-266.292v14.8477l294.36 -1.25zM330.015 487.91c0 -52.6494 63 -95.5498 140.625 -95.5498s140.625 42.9004 140.625 95.5498
c0 52.6504 -63 95.5498 -140.625 95.5498s-140.625 -42.8994 -140.625 -95.5498zM315.39 488.886c0 58.8242 69.375 106.274 155.25 106.274s155.25 -47.4502 155.25 -106.274c0 -58.8252 -69.375 -106.275 -155.25 -106.275s-155.25 47.4502 -155.25 106.275z" />
  </g>

</svg>
