<?xml version="1.0" standalone="no"?>
<!DOCTYPE svg PUBLIC "-//W3C//DTD SVG 1.1//EN" "http://www.w3.org/Graphics/SVG/1.1/DTD/svg11.dtd" >
<svg xmlns="http://www.w3.org/2000/svg" xmlns:xlink="http://www.w3.org/1999/xlink" version="1.1" viewBox="-10 0 996 1000">
  <g transform="matrix(1 0 0 -1 0 800)">
   <path fill="currentColor"
d="M44.2236 755.162h55.5146l17.1611 52.2256l17.1602 -52.2256h55.5156l-44.8672 -32.2959l17.1611 -52.2246l-44.9697 32.2959l-44.9707 -32.2959l17.1611 52.2246zM284.899 621.609l-12 60c128.725 89.7881 355.203 55.3633 442.457 48.5605
c0 -0.0107422 0.000976563 -0.0214844 0.000976563 -0.0322266c27.4463 0.582031 75.1855 -1.32129 107.268 -33.4033c40.1396 -40.1396 38.6152 -108.841 37.5254 -169.365c-0.395508 -21.9258 -0.433594 -33.2402 -0.22168 -41.9463
c26.3789 -43.8281 72.168 -89.959 89.3252 -129.607c6.95117 -16.0635 5.49219 -24.7637 2.64551 -40.2051l-12 -14l-79.501 -63.5771v-212.431c1.93945 -31.0869 1.82422 -79.2412 -27.416 -108.48c-26.0322 -26.0322 -182.507 -12.0195 -220.584 -13.0049
l-2.90137 0.0126953c-103.732 -7.2998 -296.108 50.6025 -326.603 92.1719c-18.5059 25.2275 -31.4014 41.2529 -57.9951 55.3086v70.0371c25.8174 -16.2627 49.624 -17.8066 70.1904 -60.6357c44.2188 -92.082 349.455 -105.734 451.309 -108.438l-0.499023 -0.962891
c50 12 34.1514 4.48145 42.5352 13.5361c19.1768 20.7119 3.97852 41.9688 5.50781 57.9648h-0.541992v2.14941c-0.253906 0.990234 -0.500977 1.94141 -0.738281 2.84863h0.738281v207.174v3.4873v1.33887h1.58203l104 88h1.13281
c4.9834 45.8955 -62.8379 92.1289 -94.2158 139.501l-3 4l-1 1c-2.02051 3.99219 0.0439453 4.02539 -2.08398 11.5605c-0.0371094 0.130859 -0.189453 0.24707 -0.174805 0.367188l0.258789 2.07227l0.0644531 1.49902
c0.00976562 0.226562 0.150391 3.89551 0.242188 6.24414c3.11426 79.1523 5.19727 173.389 -83.8154 173.771c-136.35 16.7461 -373.536 9.53418 -431.49 -46.5137zM549.012 119.458l-29.1836 12.8203l12.25 -28.1191l99.167 -0.354492l8.50586 26.7686l-29.332 -13.0381
l-30.0684 38.6357zM607.753 124.1l0.207031 0.592773l7.92773 -2.78027l-0.208008 -0.59375zM646.77 85.6582h-128.579l-31.8271 80.3799l57.4639 -24.0889l36.0889 45.1309l35.418 -45.8486l56.5264 24.041zM521.066 89.8965l-2.86914 -2.30469l1.78906 -1.21484z
M579.4 228.701c-66.5439 0 -120.961 -42.0625 -120.961 -93.7451c0 -51.6846 54.4229 -93.7451 120.961 -93.7451c66.5439 0 120.961 42.0645 120.961 93.7451c0 51.6855 -54.4229 93.7451 -120.961 93.7451zM579.4 21.0527c-79.9902 0 -144.143 51.3945 -144.143 114.911
c0 63.5195 64.1553 114.911 144.143 114.911c79.9902 0 144.143 -51.3926 144.143 -114.911c0 -63.5186 -64.1553 -114.911 -144.143 -114.911zM729.4 420.283l-356.4 0.900391v17.8164h319.551v101.166h-319.551v17.8174l353.232 -1.5z" />
  </g>

</svg>
