<?xml version="1.0" standalone="no"?>
<!DOCTYPE svg PUBLIC "-//W3C//DTD SVG 1.1//EN" "http://www.w3.org/Graphics/SVG/1.1/DTD/svg11.dtd" >
<svg xmlns="http://www.w3.org/2000/svg" xmlns:xlink="http://www.w3.org/1999/xlink" version="1.1" viewBox="-10 0 1010 1000">
  <g transform="matrix(1 0 0 -1 0 800)">
   <path fill="currentColor"
d="M339.993 -162.333c-6.48633 0 -11.833 5.2793 -11.833 11.833v240.084c0 6.50684 5.29688 11.833 11.877 11.833c0 0 65.7803 -0.266602 77.9971 -0.31543l52.0459 47.0879c3.43555 -26.9775 3.43555 -26.9775 4.76465 -51.5605l164.489 3.58496
c6.35254 0 11.666 -5.28613 11.666 -11.8369v-67.377l47.4023 -55.1924c-43.6182 2.40039 -43.6182 2.40039 -48.8213 3.14355l1.41992 -120.739c0 -6.43457 -5.30762 -11.752 -11.8779 -11.752zM619.486 -131.826l3.04492 98.2959
c-5.18848 -0.797852 -10.376 -1.5957 -15.5645 -2.39453l-36.374 4.82227l48.7402 53.4541v46.2783l-142.78 1.83496c-0.43457 -15.876 -0.43457 -15.876 -2.12695 -48.8555l-56.7363 47.8438l-57.8594 0.248047v-200.412zM50.3545 720.521h55.5146l17.1611 52.2256
l17.1602 -52.2256h55.5156l-44.8672 -32.2959l17.1611 -52.2246l-44.9697 32.2959l-44.9707 -32.2959l17.1611 52.2246zM765.481 290.826c-0.136719 0 -0.357422 -0.000976563 -0.494141 -0.000976563c-8.73047 0 -22.4287 2.54199 -30.5498 5.74609
c-15.6748 6.18262 -34.292 23.5391 -41.5557 38.7441c-12.5908 -13.7109 -37.917 -24.8369 -56.5322 -24.8369c-2.14648 0 -5.62598 0.134766 -7.75684 0.392578c-36.2764 4.38281 -65.7197 37.5977 -65.7197 74.1387c0 14.6904 26.5234 36.1885 16.8311 47.2275
c-9.04004 10.2959 -16.376 29.7695 -16.376 43.4688c0 6.56055 1.76562 16.9102 4.15332 23.0215c8.80371 22.5312 35.5879 42.2031 59.7676 41.4326c21.1377 -0.673828 46.3242 -16.3896 56.2217 -35.0771c11.1162 6.67969 38.2539 0.419922 43.6328 12.2207
c10.9971 24.126 41.4395 43.7061 67.9521 43.7061c1.48828 0 3.90625 -0.0117188 5.38184 -0.194336c28.2793 -3.49902 35.1807 -53.8496 63.5547 -56.4668c22.1318 -2.04199 49.0195 -19.3936 58.7891 -39.3545c4.12207 -8.42188 7.46777 -22.8652 7.46777 -32.2412
c0 -12.9932 -6.08691 -32.1523 -13.7002 -42.6816c-6.66406 -9.2168 -20.709 -19.9727 -31.167 -24.4434c-7.30469 -3.12305 -19.6807 -6.21484 -27.6221 -5.99023c-3.46484 0.0976562 -8.94043 2.2002 -12.2227 2.2002h-2.32227s0.75 -6.38477 0.75 -8.84277
c0 -8.0957 -3.03027 -20.5273 -7.59473 -27.2129c-7.13672 -10.4531 -22.7637 -22.0254 -34.3438 -27.1338c-9.6377 -4.25195 -26.0098 -7.82227 -36.5449 -7.82227zM694.104 351.938h1.3457c2.69043 0 5.55078 -2.93359 6.47754 -5.5
c5.42578 -15.0186 21.7246 -32.3779 36.666 -38.0107c7.19043 -2.71094 19.2627 -4.91016 26.9463 -4.91016c8.97559 0 22.7891 3.25488 31.1094 6.62109c9.92578 4.01562 22.7979 14.5117 28.4775 23.5889c3.22656 5.15625 5.84473 14.2764 5.84473 20.3584
c0 3.92285 -0.985352 10.1455 -2.54395 13.7422l-1.58887 3.66699l2.68848 3.05469c4.28418 4.86816 18.9502 0.0390625 19.0664 0c2.42773 -0.832031 6.47949 -1.58887 9.04492 -1.58887h0.0976562c6.7041 0 17.1309 2.18652 23.3682 4.64551
c8.70508 3.43164 20.3672 12.2607 25.9121 19.7988c6.40332 8.7041 11.5986 24.5381 11.5986 35.3438c0 32.0527 -26.0029 58.7627 -58.0439 59.623c-3.57812 0.114258 -6.88574 3.08594 -7.57812 6.60059c-4.80762 24.3867 -28.624 47.7607 -53.4111 49.6221
c-1.28809 0.0966797 -3.38086 0.174805 -4.67383 0.174805c-23.0098 0 -49.1885 -17.1113 -57.5371 -38.5537c-1.10449 -2.83691 -4.47168 -5.13867 -7.5166 -5.13867c-0.0830078 0 -0.220703 0.00292969 -0.304688 0.00683594
c-0.733398 0.0263672 -1.92383 0.0478516 -2.65723 0.0478516c-12.2324 0 -30.7041 -5.09766 -40.6104 -12.2705c-1.16797 -0.845703 -3.28711 -1.53223 -4.72949 -1.53223c-3.01758 0 -6.28223 2.3125 -7.49121 5.07617
c-7.45508 17.0371 -28.5869 32.2637 -47.1787 31.8994c-19.3398 -0.379883 -42.1514 -14.7441 -48.8896 -32.876c-1.83887 -4.94824 -3.33105 -13.2461 -3.33105 -18.5254c0 -12.1475 7.08301 -28.8691 15.5537 -37.5752c1.26074 -1.2959 2.28223 -3.81543 2.28223 -5.62305
c0 -1.80664 -1.06836 -4.2832 -2.28223 -5.62109c-8.94141 -9.85742 -16.1992 -28.6572 -16.1992 -41.9658c0 -30.7334 24.7354 -58.9346 55.3105 -62.0459c1.80371 -0.183594 4.73828 -0.333008 6.55176 -0.333008c17.376 0 39.8896 11.3281 50.8926 24.7773
c1.39746 1.70801 4.32129 3.09473 6.52734 3.09473c0.223633 0 0.805664 -0.0390625 0.805664 -0.0390625v0.366211zM582.026 430.16v0zM582.026 435.904v0zM865.215 501.049v0zM861.182 504.472v0zM726.737 514.615v0zM730.771 517.304v0zM336 324l-120.071 217.366
l13.8604 5.85449l107.414 -184.511l97.8857 186.244l18.7383 -7.58789z" />
  </g>

</svg>
