<?xml version="1.0" standalone="no"?>
<!DOCTYPE svg PUBLIC "-//W3C//DTD SVG 1.1//EN" "http://www.w3.org/Graphics/SVG/1.1/DTD/svg11.dtd" >
<svg xmlns="http://www.w3.org/2000/svg" xmlns:xlink="http://www.w3.org/1999/xlink" version="1.1" viewBox="-10 0 1022 1000">
  <g transform="matrix(1 0 0 -1 0 800)">
   <path fill="currentColor"
d="M828.399 483.872c0 9.49878 0.360099 25.4826 0.360099 28.905l-0.318652 61.3747l-8.69455 54.78l-24.0577 41.7601l-29.8355 19.1251l-33.9409 8.02542l-47.9505 1.85133v0.765382l-107.704 8.96128l-161.614 -4.8437l-135.511 -48.0118l4.97421 -24.8711
l90.1513 34.2037l168.519 13.9909l163.859 -8.05849l72.0585 -32.0852l24.6852 -76.5829c-11.2968 -92.7231 -11.5388 -94.7093 -10.6225 -98.1968c0.272553 -1.03738 0.408327 -1.98777 0.495372 -2.92219c0.487753 -0.641757 1.13403 -1.58506 1.4862 -2.05622
l30.4464 -40.7334l38.0432 -60.0682l23.93 -33.502l-96.7113 -80.2498l-3.19974 -219.288c0.962733 -7.56244 2.78458 -22.0112 5.01798 -45.877c-0.12894 -0.269919 -9.65147 -20.9678 -12.8349 -27.02c-1.80565 -3.43278 -3.36365 -6.39475 -8.94453 -11.1259
c-28.726 -6.87192 -37.6748 -9.01268 -53.7943 -9.01268c-3.38415 0 -6.77838 0.14333 -10.1737 0.446144l-127.95 -3.2205l-189.706 31.9736l-119.91 72.0259l-21.8729 31.5454c-0.18608 0.126152 -14.9542 10.3475 -18.5829 12.6523v-31.4635
c5.41685 -3.87145 13.5068 -7.36272 24.4398 -17.2503c7.32645 -6.62591 2.09556 -4.45645 10.6241 -11.9264c1.03002 -0.902171 1.03002 -0.902171 17.2005 -21.8062l70.2643 -41.1391l123.979 -35.7692l40.8353 -3.74581
c52.8258 -4.90757 59.0669 -6.73248 83.0467 -7.42728l68.08 -1.97257l89.7606 0.254271l51.1066 12.4914l15.1376 25.2075l6.27671 34.16l-0.268638 82.9487l0.0291888 84.2282l-0.00582149 87.5189l84.7837 67.8016l7.68593 8.96692l1.11464 7.19504
c0.44913 7.61262 -1.52476 12.8022 -3.31214 18.1783l-23.3304 38.8443l-33.0243 43.448l-34.3179 48.9016c-0.202711 16.1296 -0.202711 16.1296 -0.202711 17.6951zM33.2949 712.521h55.5146l17.1611 52.2256l17.1602 -52.2256h55.5156l-44.8672 -32.2959
l17.1611 -52.2246l-44.9697 32.2959l-44.9707 -32.2959l17.1611 52.2246zM563.235 145.671c12.9111 0 23.3545 -10.1553 23.3545 -23.04c0 -14.3682 -10.5713 -22.4092 -23.3545 -22.4092c-12.3301 0 -23.6689 7.91992 -23.6689 22.4092
c0 12.874 10.7441 23.04 23.6689 23.04zM591.972 119.525h41.4746l-0.248047 -2.47559c-1.31348 -13.1436 -8.32715 -30.3809 -16.8926 -40.5938l-1.58008 -1.88281l-29.1855 29.1865c4.20703 6.31055 5.17285 9.89062 6.43164 15.7656zM566.025 52.1045v41.79
c8.15234 1.74707 10.9463 3.42871 15.4512 6.43164l29.501 -29.501l-1.88281 -1.5791c-3.94531 -3.30957 -19.1318 -14.748 -43.0693 -17.1416zM560.444 93.8945v-41.79l-2.47461 0.248047c-13.1436 1.31445 -30.3809 8.32812 -40.5938 16.8936l-1.87207 1.56934
l29.166 29.5176c6.28906 -4.19336 9.83984 -5.16602 15.7744 -6.43848zM492.709 119.525h41.4756c1.72852 -8.06934 3.84668 -11.416 6.75293 -15.7754l-29.5176 -29.166l-1.56934 1.87207c-3.30957 3.94629 -14.748 19.1318 -17.1416 43.0693zM534.185 125.106h-41.4688
l0.240234 2.46973c1.3125 13.4541 8.32812 30.7012 16.8945 40.9141l1.5791 1.88281l29.501 -29.501c-4.86816 -7.30371 -5.73242 -11.0361 -6.74609 -15.7656zM560.444 192.842v-41.79c-8.85742 -1.89844 -11.7861 -3.77832 -15.7744 -6.4375l-29.166 29.5166
l1.87207 1.57031c3.94531 3.30957 19.1318 14.7471 43.0684 17.1406zM566.025 151.052v41.79l2.47559 -0.248047c13.1436 -1.31348 30.3809 -8.32715 40.5938 -16.8926l1.88281 -1.58008l-29.501 -29.501c-6.42871 4.28613 -9.6377 5.18652 -15.4512 6.43164z
M633.446 125.106h-41.4746c-1.89941 8.86035 -3.78418 11.793 -6.43164 15.7656l29.1855 29.1865l1.58008 -1.88281c3.30957 -3.94629 14.7471 -19.1318 17.1406 -43.0693zM639.105 122.631c0 41.9121 -33.958 75.8701 -75.8701 75.8701
c-41.9121 0 -75.8701 -33.958 -75.8701 -75.8701s33.958 -75.8701 75.8701 -75.8701c42.2363 0 75.8701 34.5986 75.8701 75.8701zM614.188 324.104v21.3877h-32.1885v25.8906h32.1885v21.3887h-32.1885v28.0957h-18.6533v-28.0957h-26.8486v26.0449h-18.6533v-26.0449
h-34.4102v-21.3887h34.4102v-25.8906h-34.4102v-21.3877h34.4102v-30.1553h18.6533v30.1553h26.8486v-28.1045h18.6533v28.1045h32.1885zM550.046 445.368l63.1895 114.393l-13.1396 5.55078l-50.4482 -86.6572l-45.9922 87.5078l-15.6523 -6.33887zM536.498 371.383
h26.8486v-25.8906h-26.8486v25.8906z" />
  </g>

</svg>
