<?xml version="1.0" standalone="no"?>
<!DOCTYPE svg PUBLIC "-//W3C//DTD SVG 1.1//EN" "http://www.w3.org/Graphics/SVG/1.1/DTD/svg11.dtd" >
<svg xmlns="http://www.w3.org/2000/svg" xmlns:xlink="http://www.w3.org/1999/xlink" version="1.1" viewBox="-10 0 1051 1000">
  <g transform="matrix(1 0 0 -1 0 800)">
   <path fill="currentColor"
d="M681.203 99.917v172.637l16.7969 0.977539v-190.531l-127.813 0.338867l3.69531 190.363l15.4014 0.341797l-1.19824 -174.127h93.1182zM365.325 416.393c0 2.49707 -0.046875 4.34961 -0.046875 4.39355c0.0488281 0.947266 0.292969 1.76465 0.378906 1.85254
c0 0.0771484 0 0.0771484 14.8359 0.404297c-0.0136719 -2.16797 -0.0214844 -4.40527 -0.0214844 -6.70703c0 -57.9121 5.33496 -157.25 63.8896 -234.164c8.0498 -10.5752 24.5752 -33.9277 38.75 -52.3936l-12.1328 -9.60645
c-10.7178 12.7197 -16.0684 27.3652 -30.623 43.8213c-25.7451 29.1084 -50.8672 75.0615 -54.3643 115.54l-1.29004 14.9404l-3.86035 -14.4893c-8.95312 -33.6123 -27.6611 -41.8584 -41.4189 -47.8955c-9.19531 -4.03613 -16.584 -7.27832 -16.584 -16.6953
c0 -8.02734 1.875 -14.1865 45.0371 -66.2236c1.22461 -1.47754 2.24219 -2.70508 2.97363 -3.59473l-6.52051 -7.9043c-8.92969 13.3291 -54.2656 43.1465 -54.2656 74.2227c0 28.4043 41.0391 28.8779 59.3945 74.7656c0.700195 1.75 2.23926 4.42285 2.23926 16.4688
c0 24.1465 -6.78613 72.5996 -6.78613 97.3105c0 5.7002 0.415039 7.38672 0.415039 15.9541zM365.277 420.826c0 -0.00878906 0.000976562 -0.0224609 0.000976562 -0.0400391c0.000976563 0.0214844 -0.000976562 0.0400391 -0.000976562 0.0400391zM380.493 423.043z
M483.111 129.778l2.03223 1.60938l-0.452148 -3.66211c-0.533203 0.691406 -1.05957 1.37598 -1.58008 2.05273zM470.979 120.172c0.525391 -0.624023 1.06348 -1.24316 1.61719 -1.8584l-3.5791 0.305664zM370.849 145.575zM364.901 403.201zM271 608l-12 60
c128.725 89.7881 355.203 55.3633 442.457 48.5605c0 -0.0107422 0.000976562 -0.0214844 0.000976562 -0.0322266c27.4463 0.582031 75.1855 -1.32129 107.268 -33.4033c40.1396 -40.1396 38.6152 -108.841 37.5254 -169.365
c-0.395508 -21.9258 -0.433594 -33.2402 -0.22168 -41.9463c26.3789 -43.8281 72.168 -89.959 89.3252 -129.607c6.95117 -16.0635 5.49219 -24.7637 2.64551 -40.2051l-12 -14l-79.501 -63.5771v-212.431c1.93945 -31.0869 1.82422 -79.2412 -27.416 -108.48
c-26.0322 -26.0322 -182.507 -12.0195 -220.584 -13.0049l-2.90137 0.0126953c-103.732 -7.2998 -296.108 50.6025 -326.603 92.1719c-18.5059 25.2275 -31.4014 41.2529 -57.9951 55.3086v70.0371c25.8174 -16.2627 49.624 -17.8066 70.1904 -60.6357
c44.2188 -92.082 349.455 -105.734 451.309 -108.438l-0.499023 -0.962891c50 12 34.1514 4.48145 42.5352 13.5361c19.1768 20.7119 3.97852 41.9688 5.50781 57.9648h-0.541992v2.14941c-0.253906 0.990234 -0.500977 1.94141 -0.738281 2.84863h0.738281v207.174v3.4873
v1.33887h1.58203l104 88h1.13281c4.9834 45.8955 -62.8379 92.1289 -94.2158 139.501l-3 4l-1 1c-2.02051 3.99219 0.0439453 4.02539 -2.08398 11.5605c-0.0371094 0.130859 -0.189453 0.24707 -0.174805 0.367188l0.258789 2.07227l0.0644531 1.49902
c0.00976562 0.226562 0.150391 3.89551 0.242188 6.24414c3.11426 79.1523 14.1973 176.389 -74.8154 176.771c-136.35 16.7461 -373.536 9.53418 -431.49 -46.5137zM30.3545 728.521h55.5146l17.1611 52.2256l17.1602 -52.2256h55.5156l-44.8672 -32.2959l17.1611 -52.2246
l-44.9697 32.2959l-44.9707 -32.2959l17.1611 52.2246zM644 393l-66.5332 120.444c-3.48145 6.30176 6.23828 8.63281 10.1074 10.2676c2.34863 0.992188 5.10254 -0.0791016 6.27246 -2.08984l54.9746 -94.4316l50.0371 95.2031
c1.09863 2.09082 3.88379 3.28906 6.30762 2.30664l10.3818 -4.20508c2.4707 -1 3.99219 -4.29297 2.51562 -7.0166l-65.2891 -120.444c-1.72754 -3.18652 -6.875 -3.47266 -8.77441 -0.0341797z" />
  </g>

</svg>
