<?xml version="1.0" standalone="no"?>
<!DOCTYPE svg PUBLIC "-//W3C//DTD SVG 1.1//EN" "http://www.w3.org/Graphics/SVG/1.1/DTD/svg11.dtd" >
<svg xmlns="http://www.w3.org/2000/svg" xmlns:xlink="http://www.w3.org/1999/xlink" version="1.1" viewBox="-10 0 1427 1000">
  <g transform="matrix(1 0 0 -1 0 800)">
   <path fill="currentColor"
d="M932.979 425.567c56.667 0 102.669 45.999 102.669 102.668c0 56.667 -45.999 102.668 -102.669 102.668c-56.666 0 -102.668 -45.999 -102.668 -102.668c0 -56.667 45.999 -102.668 102.668 -102.668zM932.668 393.668c-74.1543 0 -134.331 60.1738 -134.331 134.332
c0 69.6201 56.1426 132.476 125.654 134.052c130.202 2.95215 260.663 0.00488281 390.986 0.015625v-31.6631h-296.292c1.51855 -1.38281 3.0127 -2.80957 4.48047 -4.27734c25.5957 -25.5957 43.834 -63.9512 43.834 -98.127
c0 -74.1553 -60.1738 -134.332 -134.332 -134.332zM232.646 -179.58c-2.77246 0 -5.00195 2.25 -5.00195 4.99902l4.7959 138.06c-13.9443 16.6914 -28.249 32.3174 -42.335 47.7021c-62.1016 67.8271 -120.219 131.453 -120.421 259.795
c-0.168945 106.958 38.7393 161.675 60.5283 183.839c68.8662 67.3213 159.782 84.2441 207.032 84.2441c4.29785 0 9.7334 3.64258 15.3945 3.37695c139.66 -6.57031 169.465 -17.6172 240.621 -79.5078c9.18652 -7.99023 11.8584 -14.5029 13.0518 -20.6523
c0.21582 -1.11035 0.337891 -1.54395 0.380859 -1.67969c32.6045 -37.623 55.4824 -136.502 57.2559 -165.259c0.120117 -1.94922 0.413086 -4.21484 0.75 -6.77637c0.952148 -7.24023 2.21484 -16.8096 0.106445 -28.8496
c-29.0137 -165.705 -107.865 -213.392 -117.138 -239.37c-0.505859 -1.41699 -0.972656 -1.65039 -1.17383 -1.85156c-2.21094 -2.21094 -21.3682 -11.9775 -36.7588 -19.2168c-1.93262 -5.50293 -1.93262 -5.50293 -2.91113 -6.52051
c-0.453125 -1.74316 -0.866211 -4.82715 -0.866211 -4.82715l-2.85645 -141.03c-0.0546875 -2.70898 -2.25586 -4.87988 -4.96777 -4.89648zM606.482 440.815l-0.330078 0.288086l-3.02246 -3.94922zM592.442 458.649l-3.30859 1.36426l-3.31348 -8.30176zM376.197 504.224
c-80.1807 0 -132.467 -14.1543 -199.135 -63.585c-17.5801 -17.5791 -66.5127 -70.3398 -66.7432 -161.874c-0.305664 -120.492 52.208 -177.22 80.415 -205.427c14.0557 -14.0547 14.0557 -14.0547 16.3838 -17.5322c4.60254 -6.875 4.60254 -6.875 34.4697 -39.249
c6.85742 -1.68848 17.3428 -6.00977 27.9766 -17.0645c5.81641 -6.04492 3.4668 -28.4834 2.39258 -38.75l-0.957031 -116.742l185.257 -0.950195l8.71387 143.282c0.0820312 1.3584 0.708984 2.62109 1.75879 3.51074c6.1543 5.24609 6.31543 5.38477 9.50586 8.57422
c3.14844 3.14844 12.2852 12.0703 20.3213 14.4092c2.91211 0.847656 6.97363 8.89941 15.4131 15.209c40.3701 30.1787 100.126 106.144 107.546 215.63c1.08496 16.0176 -1.3877 33.4932 -4.54883 52.2393c-6.6875 39.6729 -16.4883 96.0537 -46.6514 131.201
c-4.68848 3.86426 -6.11328 5.14746 -27.7051 26.7393c-38.6279 38.6279 -102.583 50.3789 -164.413 50.3789z" />
  </g>

</svg>
