<?xml version="1.0" standalone="no"?>
<!DOCTYPE svg PUBLIC "-//W3C//DTD SVG 1.1//EN" "http://www.w3.org/Graphics/SVG/1.1/DTD/svg11.dtd" >
<svg xmlns="http://www.w3.org/2000/svg" xmlns:xlink="http://www.w3.org/1999/xlink" version="1.1" viewBox="-10 0 1032 1000">
  <g transform="matrix(1 0 0 -1 0 800)">
   <path fill="currentColor"
d="M78.5986 -106.534h55.5146l17.1611 52.2256l17.1602 -52.2256h55.5156l-44.8672 -32.2959l17.1611 -52.2246l-44.9697 32.2959l-44.9707 -32.2959l17.1611 52.2246zM499.719 149.08c0 7.42871 6.04688 13.542 13.5918 13.542
c-0.0185547 0 84.0664 -0.339844 97.9805 -0.396484l60.709 77.7744c1.31836 -10.3857 6.57095 -40.8807 6.90723 -51.3301l0.899414 -27.9482l207.444 0.390625c7.38477 0.0136719 13.5186 -6.03027 13.5186 -13.541v-84.6846l57.6465 -67.1211
c-16.8291 0.911133 -33.6582 1.82324 -50.4873 2.73438l-7.93945 -0.486328l0.780273 -150.522c0.0380859 -7.41797 -6.04102 -13.5664 -13.5918 -13.5664c0.0205078 0 -373.918 1.50879 -373.918 1.50879c-7.40332 0 -13.541 6.02734 -13.541 13.541v300.105z
M536.807 -127.532l326.888 -1.4043l0.261719 128.418c-11.4902 -0.623047 -11.4902 -0.623047 -61.3779 -1.94238l61.1064 67.0156v59.5713l-183.72 2.51953c-0.155273 -15.4521 -0.15918 -15.8955 1.03516 -60.6455l-70.1602 59.165l-74.0332 0.317383v-253.015z
M578.356 592.188c0 -5.57715 -4.40234 -21.3721 -18.3213 -21.3721c-0.0634766 0 -0.126953 0.000976562 -0.19043 0.000976562c0 0 -3.71191 -0.0751953 -3.81055 -0.0761719c-9.57715 0.0332031 -19.1553 0.0507812 -28.7334 0.0507812
c-9.57715 0 -19.1553 -0.0175781 -28.7324 -0.0507812h-0.144531c-3.67871 0.115234 -8.97754 0.28125 -13.4717 5.26172c-3.84277 4.25977 -5.73633 9.52441 -5.73633 15.3164c0 4.41699 1.55957 10.3701 3.71289 18.2559c8.74316 35.9648 12.7656 52.5117 24.0898 63.8359
c3.38672 3.38672 10.3447 8.99414 21.3945 8.99414c25.083 0 34.2588 -26.7168 40.6475 -52.6797c6.67969 -27.1338 6.67969 -27.1338 7.81641 -30.7832c1.33203 -4.28027 1.47949 -4.75 1.47949 -6.75391zM498.643 584.206
c52.0352 0.0214844 52.0352 0.0214844 59.2148 0.0214844c1.74707 0 7.33887 0 7.33887 6.81641c0 2.36914 -1.2998 7.47461 -3.68164 16.8359c-7.78613 31.9805 -11.4307 46.9492 -20.127 55.6445c-3.5166 3.51562 -7.49121 5.42578 -13.2871 5.42578
c-15.4805 0 -22.1709 -18.4805 -28.2949 -42.8779c-8.19629 -33.7432 -8.19629 -33.7432 -8.19629 -34.9404c0 -2.37891 1.35449 -6.46875 4.48242 -6.76367c0.867188 -0.0722656 1.69531 -0.125 2.55078 -0.162109zM680.563 430.903
c0 -5.57617 -4.40234 -21.3711 -18.3203 -21.3711h-0.191406c0 0 -3.71094 -0.0742188 -3.80957 -0.0761719c-9.57812 0.0332031 -19.1553 0.0507812 -28.7334 0.0507812s-19.1553 -0.0175781 -28.7334 -0.0507812h-0.144531
c-3.67773 0.115234 -8.97656 0.28125 -13.4707 5.26172c-3.84375 4.25977 -5.73633 9.52539 -5.73633 15.3164c0 4.41699 1.55957 10.3711 3.71289 18.2559c8.74219 35.9648 12.7646 52.5117 24.0898 63.8359c3.38672 3.38672 10.3447 8.99512 21.3945 8.99512
c25.082 0 34.2588 -26.7178 40.6465 -52.6797c6.68066 -27.1338 6.68066 -27.1338 7.81738 -30.7842c1.33203 -4.28027 1.47852 -4.75 1.47852 -6.75391zM600.851 422.921c52.0352 0.0224609 52.0352 0.0224609 59.2139 0.0224609c1.74805 0 7.33887 0 7.33887 6.81641
c0 2.36914 -1.29883 7.47363 -3.68164 16.835c-7.78516 31.9805 -11.4307 46.9492 -20.127 55.6455c-3.51562 3.51562 -7.49121 5.42578 -13.2861 5.42578c-15.4805 0 -22.1709 -18.4805 -28.2949 -42.8779c-8.19629 -33.7441 -8.19629 -33.7441 -8.19629 -34.9414
c0 -2.37891 1.35352 -6.46875 4.48242 -6.7627c0.866211 -0.0732422 1.69531 -0.125977 2.55078 -0.163086zM768.518 594.058c0 -5.57715 -4.40137 -21.3721 -18.3203 -21.3721c-0.0634766 0 -0.126953 0.000976563 -0.19043 0.000976563
c0 0 -3.71191 -0.0751953 -3.81055 -0.0761719c-9.57812 0.0332031 -19.1553 0.0507812 -28.7334 0.0507812c-9.57715 0 -19.1553 -0.0175781 -28.7334 -0.0507812h-0.144531c-3.67773 0.115234 -8.97656 0.28125 -13.4707 5.26172
c-3.84277 4.25977 -5.73633 9.52441 -5.73633 15.3164c0 4.41699 1.55957 10.3701 3.71289 18.2559c8.74219 35.9648 12.7646 52.5117 24.0898 63.8359c3.38672 3.38672 10.3447 8.99414 21.3945 8.99414c25.083 0 34.2588 -26.7168 40.6475 -52.6797
c6.67969 -27.1338 6.67969 -27.1338 7.81641 -30.7832c1.33203 -4.28027 1.47852 -4.75 1.47852 -6.75391zM688.805 586.075c52.0352 0.0214844 52.0352 0.0214844 59.2148 0.0214844c1.74707 0 7.33789 0 7.33789 6.81641c0 2.36914 -1.29883 7.47461 -3.68066 16.8359
c-7.78613 31.9805 -11.4307 46.9492 -20.127 55.6445c-3.5166 3.51562 -7.49121 5.42578 -13.2871 5.42578c-15.4805 0 -22.1709 -18.4805 -28.2949 -42.8779c-8.19629 -33.7432 -8.19629 -33.7432 -8.19629 -34.9404c0 -2.37891 1.35449 -6.46875 4.48242 -6.76367
c0.867188 -0.0722656 1.69531 -0.125 2.55078 -0.162109zM371.251 546.249c0 -119.514 111.567 -216.249 248.749 -216.249c137.165 0 248.749 96.7207 248.749 216.249c0 119.514 -111.567 216.249 -248.749 216.249c-137.165 0 -248.749 -96.7207 -248.749 -216.249z
M391.749 548.249c0 108.475 101.92 196.251 227.251 196.251c125.332 0 227.251 -87.7773 227.251 -196.251c0 -108.475 -101.92 -196.251 -227.251 -196.251c-125.332 0 -227.251 87.7773 -227.251 196.251z" />
  </g>

</svg>
