<?xml version="1.0" standalone="no"?>
<!DOCTYPE svg PUBLIC "-//W3C//DTD SVG 1.1//EN" "http://www.w3.org/Graphics/SVG/1.1/DTD/svg11.dtd" >
<svg xmlns="http://www.w3.org/2000/svg" xmlns:xlink="http://www.w3.org/1999/xlink" version="1.1" viewBox="-10 0 1002 1000">
  <g transform="matrix(1 0 0 -1 0 800)">
   <path fill="currentColor"
d="M684.357 455.562c0 0.643555 -0.647461 2.40918 -1.2041 3.13184c-0.768555 0.571289 -2.61719 1.22852 -3.32422 1.22852c-2.55078 0 -4.37695 -1.76953 -6.03027 -3.42383c-0.714844 -0.712891 -1.64941 -1.07031 -2.58691 -1.07031
c-1.50781 0 -2.34082 0.827148 -3.01855 1.50391c-0.141602 0.141602 -2.5459 2.25195 -3.96094 2.71875c-0.644531 0.213867 -1.06641 0.270508 -1.58789 0.270508c-0.672852 0 -2.44727 -0.610352 -3.28613 -1.20508
c-0.357422 -0.563477 -0.369141 -0.605469 -1.22168 -3.53516c0.0703125 -1.09082 0.585938 -3.31641 3.04297 -5.68652l10.04 -9.68555l9.9707 9.5957c1.07715 1.08008 3.16699 3.20215 3.16699 6.15723zM658.317 476.393
c0.128906 -2.29785 0.0507812 -5.33105 -0.150391 -8.78906c3.26855 1.15625 7.86426 1.44531 12.9941 -2.14551c3.49219 2.48145 5.96289 2.91504 8.6377 2.9668c3.67676 0 7.63574 -1.95215 9.31934 -3.70312c3.61035 -3.75781 6.85352 -12.7441 -2.03906 -21.4287
c-10.5137 -10.2646 -11.7666 -11.416 -12.124 -11.7275c-2.11621 -2.03516 -5.42578 -2.04102 -7.56348 0.0292969l-11.3564 10.998c-0.388672 -4.50293 -0.695312 -8.68262 -0.786133 -12.0527c-0.0351562 -1.36621 -0.137695 -7.49023 0.970703 -8.08203
c0.126953 -0.0449219 0.227539 -0.114258 0.204102 -0.308594c3.60059 -38.708 40.1494 -74.9609 42.1816 -75.707c0.0664062 -0.0234375 -0.125977 0.00585938 -0.125977 0.00585938l-0.19043 -0.0986328l-0.104492 -0.233398l0.608398 -0.337891l-6.84668 -4.56543
c-0.762695 0.831055 -1.12891 1.23047 -2.87598 3.12207c-13.8877 15.0342 -29.0176 31.4326 -40.7871 71.3584c-3.25293 -18.8887 -14.9043 -39.5986 -25.4102 -52.9414c-6.77637 -8.60352 -9.07227 -14.668 -15.2764 -21.5625l-8.09863 6.41016
c4.77637 6.19141 7.83887 10.3877 12.0703 16.2275c2.38574 3.29297 4.58301 6.32715 6.93164 9.41309c28.7432 37.7568 29.6035 87.5098 29.3887 112.794l8.35938 -0.185547c0.742188 -0.015625 2.00293 -0.375 1.95801 -2.63672
c-0.0136719 -0.65625 -0.0712891 -3.58398 0.110352 -6.81934h0.000976562zM655.374 548.394c18.7471 0 37.9863 10.4023 43.8447 31.1221l0.783203 2.7666l11.9619 -3.34766c-1.79785 -6.46582 -4.48926 -16.1465 -14.1309 -25.7891
c-11.1875 -11.1855 -26.9727 -16.9229 -42.6367 -16.9229c-14.8955 0 -29.6816 5.1875 -40.2979 15.8047c-9.88672 9.88672 -12.4434 20.3076 -14.1025 27.0605l12.0059 2.76074c1.54297 -5.94336 3.5498 -13.6689 11.0742 -21.1943
c8.21875 -8.21777 19.8037 -12.2607 31.498 -12.2607zM557.263 583.247c0 45.0527 44.5469 81.7881 99.4922 81.7881c54.9521 0 99.4941 -36.6738 99.4941 -81.7236c0 -45.0527 -44.5459 -81.7881 -99.4941 -81.7881c-54.9502 0 -99.4922 36.6738 -99.4922 81.7236z
M569.448 583.312c0 -38.4004 39.3076 -69.6025 87.3066 -69.6025c47.9961 0 87.3086 31.1367 87.3086 69.5381c0 38.4004 -39.3076 69.6006 -87.3086 69.6006c-47.9941 0 -87.3066 -31.1348 -87.3066 -69.5361zM679.311 613.949c0 4.84961 3.46484 8.77539 7.85254 8.77539
c4.38672 0 7.84961 -3.92578 7.84961 -8.77539c0 -4.85059 -3.46289 -8.77637 -7.84961 -8.77637c-4.3877 0 -7.85254 3.92578 -7.85254 8.77637zM623.425 614.409c0 4.61914 3.46289 8.31543 7.85156 8.31543c4.38672 0 7.85156 -3.69629 7.85156 -8.31543
c0 -4.61719 -3.46484 -8.31348 -7.85156 -8.31348c-4.38867 0 -7.85156 3.69629 -7.85156 8.31348zM739.646 323.66c0.407227 0.0175781 26.1699 0.00390625 26.1777 0.0166016c-7.93555 33.2832 -5.70605 44.001 -2.81055 53.3389
c0.0253906 0.0839844 2.26465 7.82617 2.57031 8.43652l18.7168 37.4316c-9.58008 148.481 -9.58008 148.481 -9.52539 149.121c3.14648 37.3555 5.8916 80.9297 2.68262 108.842c-8.3418 33.1289 -29.0391 26.1367 -33.873 15.541
c-1.70703 -3.74414 -3.63379 -4.18555 -8.60254 -5.32422c-3.86133 -3.45508 -9.93652 -2.69922 -12.8262 1.65137c-3.62207 5.45508 -20.377 31.4004 -20.8184 32.2637c-6.05859 11.8672 -29.4326 19.168 -33.9004 -4.3252
c-0.163086 -0.849609 -0.163086 -0.849609 -8.13965 -20.2959c-2.97266 -7.24512 -13.4521 -6.94238 -15.998 0.464844l-15.0078 43.6582c-4.0127 11.6719 -29.0469 20.9932 -42.2715 -1.10938c-0.243164 -0.727539 -2.02832 -6.1416 -11.6787 -36.4082
c-2.09766 -6.5791 -10.8535 -8.08203 -15.0127 -2.49121c-12.3457 16.5869 -12.3457 16.5869 -12.5625 16.8047c-0.0820312 0.0820312 -14.1006 14.0762 -22.041 6.13574c-4.34961 -4.34961 -6.80957 -14.9668 -7.8916 -21.4775
c0.0302734 -0.975586 0.223633 -6.73828 1.29492 -34.6826c0.635742 -17.4023 1.40918 -54.5908 1.42578 -55.1416c5.09082 -36.2783 2.73633 -37.4102 5.38281 -56.8213c0.192383 -0.745117 1.66016 -6.40234 9.28223 -35.2578
c0.0742188 -0.283203 0.772461 -16.4385 -1.43848 -20.1953c-5.43359 -9.23633 -5.81055 -9.87891 -9.39551 -10.6992c-14.1875 -3.25195 -18.6777 -0.393555 -23.4756 6.26367c-2.46582 3.4248 -19.25 20.2441 -20.9375 22.1904l-35.1699 40.5811
c-0.951172 0.628906 -5.83008 3.82617 -20.5146 13.1279c-0.857422 0.259766 -4.96777 1.48633 -17.3779 4.96094c-3.46973 -1.90332 -7.60645 -0.755859 -10.7451 -3.89258c-2.27539 -2.27734 -4.90137 -9.90234 -4.06641 -14.2217l19.4043 -26.0967
c3.7373 -3.50293 23.6006 -20.8174 24.5732 -21.9932c28.9961 -35.0645 28.9961 -35.0645 29.1348 -35.2539c21.0732 -28.5488 21.0732 -28.5488 21.2305 -28.7959c19.001 -29.8594 19.001 -29.8594 19.2686 -30.4834l14.6768 -34.0186
c4.05371 -6.28516 19.7275 -29.9326 20.1455 -30.7305c6.60352 -12.5469 6.60352 -12.5469 6.85254 -13.5898c4.91309 -20.5879 39.7109 -21.6133 40.168 -21.6221l38.0615 -0.679688zM765.824 306.564h-25.6426c-115.364 -4.79199 -115.364 -4.79199 -115.621 -4.78613
l-38.334 0.68457c-6.08789 0.113281 -47.6406 2.05762 -56.1934 33.627l-5.44629 10.3457c-19.9307 30.2344 -19.5918 29.2324 -20.7969 32.0283l-14.5156 33.6514l-18.1162 28.4668l-20.583 27.8857l-28.2676 34.1826c-24.2803 21.5059 -24.2803 21.5059 -25.3477 22.9404
l-19.8447 26.6855c-7.07715 9.51953 -2.13672 28.0957 5.95508 36.1875c4.74219 4.74414 9.21582 6.19238 15.8477 7.41309c3.66699 1.63965 7.79688 1.92383 11.625 0.852539c18.0518 -5.05469 18.4453 -4.78711 21.6191 -6.79785
c19.3711 -12.2705 20.8408 -12.7334 23.6162 -15.5078c0.323242 -0.324219 -0.416992 -1.00098 35.9785 -41.4639c18.9629 -21.083 19.7031 -20.4072 22.4258 -24.0977c0.450195 0.0400391 1.06738 0.118164 1.84668 0.244141l0.916992 1.55859l0.410156 10.2246
c-9.12305 34.5176 -9.02051 33.5625 -9.33105 35.8164c-2.84961 20.7539 -0.341797 21.0508 -5.46582 57.4189c-0.078125 0.55957 -1.10254 44.9697 -1.52344 56.4688c-1.36719 35.7305 -1.69531 34.3223 -1.16113 37.6289c1.66504 10.3184 5.50293 34.1045 25.5977 38.3428
c16.708 3.52441 32.9053 -12.1621 35.127 -15.1475l2.48828 -3.34375c6.67773 21.1855 6.46289 21.0449 8.02734 23.7051c20.6816 35.1777 64.6455 23.5957 73.3486 -1.71875l7.34082 -21.3584c10.2432 34.417 51.4424 29.2939 64.5518 4.47852
c0.15332 -0.237305 14.7256 -22.8789 15.2754 -23.7227c14.3789 18.584 50.791 21.7168 62.4092 -24.4141c0.18457 -0.736328 0.320312 -1.48047 0.40625 -2.23047c3.50293 -30.4766 0.579102 -74.0596 -2.57812 -111.617l9.49902 -147.204
c0.19043 -2.99023 -0.396484 -6.02246 -1.76758 -8.76367l-18.3008 -36.6025c-0.526367 -2.03906 -1.1416 -4.0752 -1.9541 -6.69531c-2.27734 -7.34961 -4.68164 -11.585 3.11328 -44.2744c2.5625 -10.7461 -5.58105 -21.0918 -16.6348 -21.0918zM40.3545 728.521h55.5146
l17.1611 52.2256l17.1602 -52.2256h55.5156l-44.8672 -32.2959l17.1611 -52.2246l-44.9697 32.2959l-44.9707 -32.2959l17.1611 52.2246zM40.3545 728.521h55.5146l17.1611 52.2256l17.1602 -52.2256h55.5156l-44.8672 -32.2959l17.1611 -52.2246l-44.9697 32.2959
l-44.9707 -32.2959l17.1611 52.2246zM815.993 203.98c1.2627 -22.4336 -7.74219 -81.3936 -5.23047 -95.668c0.770508 -0.875977 1.56445 -2.23145 1.72852 -3.98535c5.23145 -56.2568 51.2754 -111.696 69.0869 -129.507
c3.60547 -3.60547 3.60547 -3.60547 14.0586 -11.6914c-1.22754 -0.802734 -1.22754 -0.802734 -19.9932 -13.3145c-2.84668 -1.90039 -6.69922 -1.45703 -9.03418 1.08984c-30.0791 32.7197 -53.7002 58.416 -74.6094 118.096
c-9.44629 -29.4131 -26.6836 -58.2959 -42.6045 -78.5156c-11.126 -14.1289 -19.8799 -31.4688 -28.2031 -39.793c-2.53711 -2.53711 -6.54395 -2.71484 -9.28906 -0.542969c-14.1436 11.1963 -14.1436 11.1963 -14.4336 11.4873
c-2.5166 2.51562 -2.71289 6.47656 -0.598633 9.21973c7.94727 10.3027 34.1816 46.1582 34.5322 46.6201c50.7832 66.708 53.252 155.368 52.8457 203.106c-0.0341797 3.9502 3.20312 7.14551 7.1543 7.05664c18.7012 -0.416016 18.7012 -0.416016 21.4033 -3.11816
c2.02734 -2.02734 3.06055 -5.03613 2.99219 -8.46777c-0.0234375 -1.15625 -0.125977 -6.3916 0.194336 -12.0723zM513.414 204.258c1.2627 -22.4336 -7.74219 -81.3936 -5.23047 -95.668c0.770508 -0.875977 1.56445 -2.23145 1.72852 -3.98535
c5.23145 -56.2568 51.2754 -111.696 69.0869 -129.507c3.60547 -3.60547 3.60547 -3.60547 14.0586 -11.6914c-1.22754 -0.802734 -1.22754 -0.802734 -19.9932 -13.3145c-2.84668 -1.90039 -6.69922 -1.45703 -9.03418 1.08984
c-30.0791 32.7197 -53.7002 58.416 -74.6094 118.096c-9.44629 -29.4131 -26.6836 -58.2959 -42.6045 -78.5156c-11.126 -14.1289 -19.8799 -31.4688 -28.2031 -39.793c-2.53711 -2.53711 -6.54395 -2.71484 -9.28906 -0.542969
c-14.1436 11.1963 -14.1436 11.1963 -14.4336 11.4873c-2.5166 2.51562 -2.71289 6.47656 -0.598633 9.21973c7.94727 10.3027 34.1816 46.1582 34.5322 46.6201c50.7832 66.708 53.252 155.368 52.8457 203.106c-0.0341797 3.9502 3.20312 7.14551 7.1543 7.05664
c18.7012 -0.416016 18.7012 -0.416016 21.4033 -3.11816c2.02734 -2.02734 3.06055 -5.03613 2.99219 -8.46777c-0.0234375 -1.15625 -0.125977 -6.3916 0.194336 -12.0723z" />
  </g>

</svg>
