<?xml version="1.0" standalone="no"?>
<!DOCTYPE svg PUBLIC "-//W3C//DTD SVG 1.1//EN" "http://www.w3.org/Graphics/SVG/1.1/DTD/svg11.dtd" >
<svg xmlns="http://www.w3.org/2000/svg" xmlns:xlink="http://www.w3.org/1999/xlink" version="1.1" viewBox="-10 0 1022 1000">
  <g transform="matrix(1 0 0 -1 0 800)">
   <path fill="currentColor"
d="M827.144 632.279c2.84082 0 2.84082 0 18.6641 1.83594c-9.80762 -10.3809 -9.80762 -10.3809 -10.2002 -10.7734c-7.23828 -7.23828 -16.4561 -11.2656 -23.2363 -11.2656c-6.03906 0 -6.03906 0 -32.8105 9.9043c23.6006 7.19922 33.7607 10.2988 47.583 10.2988z
M677.972 614.081c-2.27734 0 -6.22754 0 -9.01172 3.24512c-2.84766 3.31934 -2.84766 3.31934 -14.6504 14.1631h51.3877l35.0566 1.16309l-30.8428 -10.7979c-11.4297 -4.00195 -23.5479 -7.77344 -31.9395 -7.77344zM813.054 678.795
c5.63574 0 16.7148 -1.73828 25.0293 -12.3701l9.36719 -11.9775c-19.0254 5.30371 -19.0254 5.30371 -25.4658 5.30371c-13.7559 0 -24.709 -3.99121 -65.7773 -19.7891c24.6357 1.27246 8.08496 13.665 8.08496 14.5049c0 0.226562 -0.116211 0.287109 -0.116211 0.472656
c-0.31543 0.443359 -0.31543 0.443359 -6.40527 8.74707l9.40332 0.363281c1.50098 0.0576172 11.4844 3.29492 19.1035 7.14258c9.78223 4.93848 18.6309 7.60254 26.7764 7.60254zM952 643zM949 640.014zM650.618 658.376
c11.3691 9.96582 11.3691 9.96582 13.9375 12.3682c4.2832 4.00391 8.8252 7.92188 21.2119 7.92188c17.6572 0 27.5342 -9.18848 33.7061 -12.5117l16.5693 -8.91992l-24.0391 1.1416h-61.3857zM760.043 608.435c0 -0.0556641 5.71094 -3.43066 5.69336 -3.48242
l-0.0917969 0.665039s-5.83398 3.1416 -5.60156 2.81738zM765.972 605.113c5.56348 -3.48242 20.0596 -15.3525 30.1533 -18.6641c2.63281 -0.865234 16.1992 -4.66406 23.1963 -4.66406c22.5986 0 50.1455 16.8945 57.123 45.8809l0.920898 3.82324h33.3672
c14.8467 0 28.8369 0.50293 32.4707 1.08301l0.223633 0.00976562c2.37988 1.17773 7.32129 9.55762 7.32129 14.2969c0 2.58789 -3.95605 7.47168 -9.19629 13.7236h-57.1094l-9.70898 0.761719v0c-12.4395 23.666 -37.0381 44.5557 -61.9453 44.5557
c-5.4502 0 -10.8457 -0.826172 -16.0596 -2.58301c-10.5762 -3.56543 -48.8252 -22.8096 -55.4863 -26.9023l14.0518 6.12891s0.00488281 -0.0410156 -0.0292969 -0.0791016c-0.956055 -1.05078 -26.7129 -2.80176 -1.27051 -13.7871
c-11.9561 13.3867 -15.3252 17.1592 -20.2832 20.8135c-15.2061 11.2139 -31.7852 16.6924 -47.373 16.6924c-38.2617 0 -54.5938 -31.8887 -54.8584 -32.4688c-2.17676 -4.76074 -4.35254 -9.52148 -6.52832 -14.2822
c-5.8418 0.272461 -9.14941 0.426758 -14.8584 0.426758c-15.8105 0 -27.5527 -1.52051 -43.6729 -1.52051c-0.273438 0 -0.548828 0.000976562 -0.825195 0.000976562c-4.8291 -6.22363 -4.8291 -6.25293 -4.8291 -9.49023c0 -5.08984 2.68359 -10.877 3.53906 -12.5928
l-0.501953 0.518555c0.166016 -0.172852 0.333984 -0.345703 0.501953 -0.518555c0.856445 -0.879883 0.856445 -0.879883 4.77246 -4.78711h61.1807c-0.486328 -5.71191 -0.486328 -5.71191 -0.486328 -6.01465c0 -4.46191 5.13574 -14.8418 13.1953 -22.9004
c13.6543 -13.6553 32.1377 -17.7832 40.7568 -17.7832c11.2969 0 25.5635 5.38574 58.5537 20.8721c8.43066 3.95801 9.94434 4.64648 29.7422 13.1494c-27.4814 -2.29883 -13.8789 -8.79883 -6.04785 -13.6992zM569.077 631.489
c0.354492 -0.353516 0.901367 -0.901367 1.47754 -1.4834l-3.55469 1.4834h2.07715zM565.595 658.359c-0.716797 0 -1.44238 0.0078125 -2.17676 0.0166016l3.68652 1.91504c-0.545898 -0.694336 -1.04883 -1.33691 -1.50977 -1.93164zM884.442 660.603h-4.99902z
M941.552 660.603c-0.482422 0.575195 -0.981445 1.16895 -1.49805 1.78223l3.8291 -1.78223h-2.33105zM348.481 97.6934l-82.2217 148.848l24.0225 10.1475l58.4395 -100.383l53.3027 101.418l27.2285 -11.0254zM265.568 -67.707v34.6641h38.626v22.0713h-38.626v34.6641
h38.626v33.7148h31.3828v-33.7148h23.2197v31.2539h31.3828v-31.2539h41.292v-34.6641h-41.292v-22.0713h41.292v-34.6641h-41.292v-36.1855h-31.3828v36.1855h-23.2197v-33.7246h-31.3828v33.7246h-38.626zM335.577 -33.043h23.2197v22.0713h-23.2197v-22.0713z
M780.659 223.904c-0.529297 0 -0.985352 0.173828 -1.32227 0.358398l-214.094 -88.2627v-37.8242c12.126 5.10742 24.251 10.2148 36.376 15.3213v-3.77051l-0.21875 -161.659h318.305l0.646484 155.446c10.9619 -6.48535 21.9238 -12.9697 32.8867 -19.4551
l-0.677734 40.7051l-136.33 79.1182l1.46387 0.616211c-22.6963 11.7715 -24.457 12.7314 -36.2109 19.5508c-0.288086 -0.102539 -0.56543 -0.144531 -0.824219 -0.144531zM884.594 -16.7148h-248.003l-0.665039 144.662l142.009 59.8174l107.859 -63.8086z
M63.3545 -23.4795h55.5146l17.1611 52.2256l17.1602 -52.2256h55.5156l-44.8672 -32.2959l17.1611 -52.2246l-44.9697 32.2959l-44.9707 -32.2959l17.1611 52.2246zM275.072 387.116c-1.04883 -0.0224609 -2.75098 -0.0400391 -3.7998 -0.0400391
c-29.7764 0 -74.1123 13.3105 -98.9648 29.7119c-26.3779 17.6006 -47.7861 57.6211 -47.7861 89.332c0 0.439453 0.00585938 1.15137 0.0117188 1.59082v287.738h13.6113v-287.603c0 -73.3643 70.9131 -107.119 136.928 -107.119
c66.0137 0 136.928 33.4834 136.928 106.983v287.738h13.6113v-287.603c0 -82.7559 -77.9922 -120.73 -150.539 -120.73z" />
  </g>

</svg>
