<?xml version="1.0" standalone="no"?>
<!DOCTYPE svg PUBLIC "-//W3C//DTD SVG 1.1//EN" "http://www.w3.org/Graphics/SVG/1.1/DTD/svg11.dtd" >
<svg xmlns="http://www.w3.org/2000/svg" xmlns:xlink="http://www.w3.org/1999/xlink" version="1.1" viewBox="-10 0 1015 1000">
  <g transform="matrix(1 0 0 -1 0 800)">
   <path fill="currentColor"
d="M828.399 483.872c0 9.49878 0.360099 25.4826 0.360099 28.905l-0.318652 61.3747l-8.69455 54.78l-24.0577 41.7601l-29.8355 19.1251l-33.9409 8.02542l-47.9505 1.85133v0.765382l-107.704 8.96128l-161.614 -4.8437l-135.511 -48.0118l4.97421 -24.8711
l90.1513 34.2037l168.519 13.9909l163.859 -8.05849l72.0585 -32.0852l24.6852 -76.5829c-11.2968 -92.7231 -11.5388 -94.7093 -10.6225 -98.1968c0.272553 -1.03738 0.408327 -1.98777 0.495372 -2.92219c0.487753 -0.641757 1.13403 -1.58506 1.4862 -2.05622
l30.4464 -40.7334l38.0432 -60.0682l23.93 -33.502l-96.7113 -80.2498l-3.19974 -219.288c0.962733 -7.56244 2.78458 -22.0112 5.01798 -45.877c-0.12894 -0.269919 -9.65147 -20.9678 -12.8349 -27.02c-1.80565 -3.43278 -3.36365 -6.39475 -8.94453 -11.1259
c-28.726 -6.87192 -37.6748 -9.01268 -53.7943 -9.01268c-3.38415 0 -6.77838 0.14333 -10.1737 0.446144l-127.95 -3.2205l-189.706 31.9736l-119.91 72.0259l-21.8729 31.5454c-0.18608 0.126152 -14.9542 10.3475 -18.5829 12.6523v-31.4635
c5.41685 -3.87145 13.5068 -7.36272 24.4398 -17.2503c7.32645 -6.62591 2.09556 -4.45645 10.6241 -11.9264c1.03002 -0.902171 1.03002 -0.902171 17.2005 -21.8062l70.2643 -41.1391l123.979 -35.7692l40.8353 -3.74581
c52.8258 -4.90757 59.0669 -6.73248 83.0467 -7.42728l68.08 -1.97257l89.7606 0.254271l51.1066 12.4914l15.1376 25.2075l6.27671 34.16l-0.268638 82.9487l0.0291888 84.2282l-0.00582149 87.5189l84.7837 67.8016l7.68593 8.96692l1.11464 7.19504
c0.44913 7.61262 -1.52476 12.8022 -3.31214 18.1783l-23.3304 38.8443l-33.0243 43.448l-34.3179 48.9016c-0.202711 16.1296 -0.202711 16.1296 -0.202711 17.6951zM524.167 395.815l14.4785 -12.1494l-132.3 -151.2l-14.4785 12.1494zM516.267 216.374h0.243164
c3.00879 0 4.02734 4.57129 4.02734 6.1416c0 1.0791 -0.480469 3.63184 -1.35156 7.2627c-1.6875 6.70508 -3.34082 13.4238 -4.96094 20.1543c-6.34375 25.5566 -12.623 33.2559 -22.0371 33.2559c-11.4473 0 -16.7988 -12.5127 -22.2793 -34.46
c-4.5 -18.5137 -5.04297 -20.4492 -5.22168 -21.0156c-0.446289 -1.88965 -0.849609 -3.75781 -0.849609 -5.20508c0 -1.85645 1.15234 -5.7793 3.38086 -6.0498c0.713867 -0.0693359 1.42285 -0.117188 2.125 -0.141602l14.6367 0.0224609l29.3887 -0.0224609
l2.83398 0.0576172h0.0644531zM454.457 222.672c0 2.59277 0.144531 3.14062 3.10156 14.752c5.84082 24.0449 7.99609 33.1846 14.1182 42.6201c2.08398 3.10742 8.41699 11.7373 20.3906 11.7373c20.5146 0 26.9033 -22.4102 31.1943 -39.5049
c6.55078 -26.9072 6.66113 -27.0146 6.66113 -29.832c0 -6.82422 -4.83203 -13.6465 -11.2344 -14.4443c-1.2832 -0.170898 -2.57617 -0.254883 -3.87012 -0.254883c-0.123047 0 -0.246094 0.000976562 -0.369141 0.000976562l-45.3389 -0.0195312
c-0.0449219 0.00195312 -0.0898438 0.00390625 -0.134766 0.00683594c-2.99902 0.125977 -7.20508 0.335938 -10.7168 4.44629c-2.54883 2.98242 -3.80176 6.67383 -3.80176 10.4922zM429.184 327.001c0.125 0.000976563 0.239258 0 0.242188 0
c3.00879 0 4.02734 4.57227 4.02734 6.14258c0 1.07812 -0.480469 3.63184 -1.35059 7.26172c-1.68848 6.70605 -3.3418 13.4238 -4.96094 20.1543c-6.34473 25.5576 -12.624 33.2559 -22.0381 33.2559c-11.4473 0 -16.7988 -12.5127 -22.2793 -34.459
c-4.5 -18.5137 -5.04297 -20.4502 -5.22168 -21.0166c-0.447266 -1.88867 -0.849609 -3.75781 -0.849609 -5.20508c0 -1.85645 1.15234 -5.7793 3.37988 -6.04883c0.714844 -0.0703125 1.42383 -0.118164 2.12598 -0.142578l14.6367 0.0224609l29.3896 -0.0224609
l2.83301 0.0576172h0.0654297zM367.373 333.299c0 2.59277 0.145508 3.14062 3.10156 14.752c5.8418 24.0459 7.99707 33.1855 14.1182 42.6211c2.08496 3.10645 8.41699 11.7363 20.3916 11.7363c20.5146 0 26.9023 -22.4102 31.1924 -39.5039
c6.55176 -26.9082 6.66211 -27.0156 6.66211 -29.832c0 -6.8252 -4.83301 -13.6475 -11.2334 -14.4443c-1.28418 -0.170898 -2.57715 -0.255859 -3.87109 -0.255859c-0.123047 0 -0.246094 0.000976563 -0.369141 0.000976563l-45.3389 -0.0185547
c-0.0449219 0.000976562 -0.0908203 0.00292969 -0.135742 0.00585937c-2.99805 0.126953 -7.2041 0.335938 -10.7158 4.44727c-2.54883 2.98145 -3.80176 6.67383 -3.80176 10.4912zM591.628 478.9c22.4424 0 55.6914 -12.2266 73.6865 -28.2656l0.164062 -0.174805
c15.6064 -16.6455 28.4961 -49.0586 28.4961 -71.7822c0 -2.28809 -0.135742 -5.3252 -0.172852 -6.17969c0 -0.0371094 -0.00390625 -0.0683594 -0.00390625 -0.0947266c-0.0224609 -19.0713 -5.57422 -57.6514 -53.7979 -104.403
c-92.8652 -90.0332 -143.741 -138.95 -153.831 -148.119c-1.33203 -1.21094 -1.10059 -1.49414 -3.02148 -2.23145l-2.00684 -0.842773c-2.81152 1.23828 -3.07422 1.35352 -3.91504 2.25781c-12.2178 13.1357 -156.204 150.521 -157.753 152.069
c-16.4424 16.4424 -30.4717 38.2314 -32.5713 41.8428c-4.19922 7.27441 -9.80371 19.9883 -12.3398 27.9922c-4.26074 13.4434 -5.55078 26.4238 -5.60742 37.1279l-0.00488281 0.922852c2.52344 7.11523 6.83984 26.5879 14.252 45.7959
c1.77148 4.5918 8.07422 20.168 14.0332 25.5371c17.335 15.6191 50.7246 28.5137 73.958 28.5137c10.9072 0 21.752 -1.55566 34.3027 -5.69824c20.6689 -6.82227 46.2793 -23.6865 69.9678 -47.375c4.22363 -4.22461 4.81641 -4.56641 5.3252 -4.56641
c0.0976562 0 0.193359 0.0117188 0.311523 0.0117188c1.00879 0 1.00879 0 10.498 9.49023c4.47656 4.47656 33.6309 32.7832 65.2812 43.2129c13.7441 4.67969 30.3955 4.95898 34.749 4.95898zM713.755 378.143v0.259766c0 32.0518 -18.3945 70.5664 -35.3311 87.5029
c-11.2754 11.2764 -51.418 33.4941 -87.1826 33.4941c-21.2061 0 -36.5166 -4.71582 -41.7812 -6.5957c-9.58594 -3.21289 -23.6279 -10.0322 -32.0635 -15.5723c0.00976562 0.0078125 0.0205078 0.0136719 0.03125 0.0214844
c-0.0107422 -0.0078125 -0.0214844 -0.0146484 -0.0615234 -0.0410156c0.00976562 0.00683594 0.0195312 0.0126953 0.0302734 0.0195312v0c-14.2969 -9.69238 -21.8799 -14.834 -37.0439 -28.3105c-52.542 47.0088 -85.6572 49.8652 -110.163 49.8652
c-32.9512 0 -73.2314 -19.5107 -88.415 -34.6943c-11.1963 -11.1973 -33.3408 -49.9424 -33.3408 -85.168c0 -21.5811 3.2959 -36.1172 5.99023 -44.4561c2.98633 -9.41406 9.21973 -23.5186 14.167 -32.0703c1.36914 -2.36621 3.60547 -5.47949 15.4473 -21.2852
l0.123047 -1.02344c-0.0107422 0.0439453 -0.0458984 0.0742188 -0.0458984 0.0742188c0.00585938 -0.015625 0.0224609 -0.0498047 0.0498047 -0.0996094c3.51074 -6.4873 18.332 -21.6689 23.7168 -26.8828l155.023 -150.121
c1.50488 -1.45898 8.09375 -7.54199 17.5703 -7.54199c5.4082 0 11.7559 1.98047 18.6357 7.92871c1.37793 1.19141 12.3008 10.6328 154.51 149.495c60.04 58.627 60.1338 104.012 60.1338 125.201zM37.3545 728.521h55.5146l17.1611 52.2256l17.1602 -52.2256h55.5156
l-44.8672 -32.2959l17.1611 -52.2246l-44.9697 32.2959l-44.9707 -32.2959l17.1611 52.2246z" />
  </g>

</svg>
