<?xml version="1.0" standalone="no"?>
<!DOCTYPE svg PUBLIC "-//W3C//DTD SVG 1.1//EN" "http://www.w3.org/Graphics/SVG/1.1/DTD/svg11.dtd" >
<svg xmlns="http://www.w3.org/2000/svg" xmlns:xlink="http://www.w3.org/1999/xlink" version="1.1" viewBox="-10 0 1017 1000">
  <g transform="matrix(1 0 0 -1 0 800)">
   <path fill="currentColor"
d="M807.797 558.283c0 -96.6865 68.0879 -173.199 99.375 -191.775l11.1992 -6.64941c-16.9434 -0.478516 1.18945 0.900391 -34.5742 -3.5752l-1.0752 1.36426c-22.0068 27.9238 -93.998 110.011 -106.903 207.233c-0.657227 4.95117 0.0224609 9.79688 0.582031 18.2783
c-1.38379 0.708984 -2.88672 1.4873 -4.52246 2.34082c-0.0283203 -1.83984 -0.322266 -3.81641 -0.0449219 -5.88867c33.3789 -249.661 97.5459 -216.742 97.5459 -216.742s6.91211 -4.29004 10.2793 -6.58594h-32.8613c-44.1455 16.1279 -101.697 151.17 -101.697 222.331
c0 8.73535 0.302734 15.3135 0.785156 20.6846c-60.6641 32.3369 -181.179 64.7012 -284.885 64.7012c-23.0527 0 -45.5234 -2.04883 -73.3945 -6.17773c-32.3232 -4.78906 -32.3232 -4.78906 -70.6152 -21.2002c-18.916 -8.10645 -50.2139 -47.4062 -58.166 -66.7188
c-7.02734 -17.0664 -9.0791 -30.2676 -9.0791 -45.8906c0 -22.332 3.62891 -44.376 3.62891 -77.1553c0 -8.99219 1.14648 -13.8564 1.14648 -20.1924c0 -4.57031 -0.613281 -9.64551 -2.73242 -16.6025c-19.9492 -65.4795 -40.3174 -87.0479 -63.832 -110.183
c-6.25977 -6.16016 -27.0508 -26.6172 -27.0508 -37.7881c0 -4.45605 0.882812 -6.9082 38.3447 -19.4531c55.9199 -18.7266 60.0254 -24.4102 60.0254 -90.9766c0 -43.0117 2.70801 -110.013 2.70801 -151.731c0 -5.5 0.0820312 -11.3867 0.267578 -17.7666
c0.50293 -17.292 16.4512 -45.3398 23.8975 -57.5352c1.19629 -0.303711 1.95996 -1.18164 1.95996 -1.18164c1.1543 -0.666992 2.48438 -1.60059 4.13477 -2.74414c16.0508 -11.1162 22.0049 -13.1846 40.8428 -13.1846c24.0361 0 22.3457 4.21484 79.0615 4.21484
c0.316406 0 6.94531 -0.00390625 7.01562 -0.00390625c14.7988 0 25.668 0.226562 52.1025 3.80078c20.2021 2.73242 38.8271 4.61621 56.5088 6.4043c120.938 12.2334 201.711 24.1475 280.178 80.1953c2.23438 1.5957 5.14355 3.85352 8.45703 6.42773
c12.6104 9.7959 33.0303 26.8994 48.1416 26.8994c8.16699 0 13.834 -4.95996 13.834 -14.165c0 -15.4473 -17.4082 -42.8486 -33.0938 -42.8486c-1.16406 0 -1.56543 0.129883 -3.01758 0.129883c-22.6426 0 -44.3604 -36.5264 -79.4766 -51.29
c-52.8857 -22.2344 -138.298 -27.127 -175.459 -33.71c-17.2549 -3.05664 -36.6504 -6.49316 -61.8809 -12.2393c-34.7246 -7.90918 -51.6299 -8.61133 -86.7539 -8.61133c-0.251953 0 -22.7891 0.03125 -25.0811 0.03125c-11.3115 0 -32.6182 -0.123047 -32.9473 -0.123047
c-40.7773 0 -82.5049 2.86621 -120.91 24.8125c-26.0957 14.9121 -27.9092 36.1035 -30.0449 61.0586c-0.477539 5.59082 -0.976562 11.3994 -1.75781 17.3906c-1.96484 15.7158 -2.63672 29.7119 -2.63672 42.8916c0 28.6572 -4.27441 100.664 -4.27441 131.409
c0 46.4277 -4.59863 49 -29.7539 58.8145c-27.3184 10.6582 -57.2148 13.2568 -70.834 26.876c-4.33008 4.33008 -6.66504 9.68945 -6.66504 16.1094c0 4.7959 1.30371 10.1846 4.05176 16.1768c36.4951 79.5967 68.6367 70.0742 91.3711 139.761
c5.20312 15.9443 6.93652 32.2529 6.93652 48.6797c0 32.5635 -6.77832 65.1611 -6.77832 95.8125c0 47.6494 17.2412 68.3838 35.0508 86.1934c66.2422 66.2412 143.674 66.3555 238.901 66.3555h0.988281c82.8154 0 190.135 -23.3467 246.021 -49.8477
c43.5547 -20.6533 21.8506 -15.7109 32.4561 -16.8408c11.3984 -1.2168 39 -13 47.5039 -30.4053c4.31641 -8.83496 -4.12305 -21.668 -4.50391 -29.5947c-0.257812 -5.36523 2 -14.3428 2 -20zM30.3242 741.553h55.5146l17.1611 52.2256l17.1602 -52.2256h55.5156
l-44.8672 -32.2959l17.1611 -52.2246l-44.9697 32.2959l-44.9707 -32.2959l17.1611 52.2246zM458.705 319.742c0.231445 0.308594 22.5596 30.0713 42.8271 37.2871c15.6406 5.56738 32.0215 -0.577148 47.0537 -15.6084c4.23242 -4.2334 10.1621 -10.6855 15.707 -18.8379
c24.8398 18.5059 72.4932 22.6084 92.7861 2.31445c6.45215 -6.45215 10.6123 -17.0762 5.24805 -26.9189c-7.45605 -13.6865 -24.0166 -26.7139 -35.9688 -55.9912l-8.05762 -19.7383c6.02637 -71.1484 9.03613 -106.673 -10.209 -146.759
c-1.68359 -3.50586 -6.45801 -13.7021 -10.4756 -22.375c-8.70117 -18.79 -17.2803 -22.2471 -24.5723 -25.1855c-29.1113 -20.1758 -55.0244 -28.1641 -80.3486 -16.5293c-19.498 8.95996 -50.9697 35.4385 -59.0586 49.4082
c-14.04 24.2441 -14.6494 33.623 -15.1006 102.32c-0.385742 59.0801 0.424805 54.498 -15.2451 90.5098c-0.134766 0.310547 -8.53027 19.5859 -16.6064 29.499l-7.52246 0.626953l0.34375 3.64844c-0.216797 0.172852 -14.3311 11.8008 -14.0537 23.8525
c0.165039 7.16504 5.36719 14.1689 10.6787 19.4805c15.2705 15.2705 50.7842 7.52539 51.2842 7.38965c7.82715 -2.125 14.2764 -5.6416 31.29 -18.3936zM444.758 279.302c-4.06543 4.73438 -14.4873 12.7568 -21.0967 16.8545
c4.66504 -7.2832 9.88086 -16.8184 15.334 -29.3525c15.7031 -36.1006 16.6875 -42.1553 17.0049 -106.804c0.304688 -61.8818 0.24707 -59.0625 5.66211 -70.9551c9.56152 -20.998 47.29 -43.6211 58.1777 -44.2148c3.80273 3.78418 7.99609 5.41406 11.1504 6.63086
c8.56055 3.30176 22.4785 10.7148 26.8213 15.0576c3.13379 3.13379 6.4248 8.50488 12.5928 21.2461c15.0957 31.1787 17.0391 43.9336 13.0762 99.0518c-1.10254 15.335 -2.20508 30.6699 -3.30664 46.0049c15.4795 37.2109 20.2178 48.6006 34.0859 65.625
c-13.2598 -1.5127 -28.5615 -8.91895 -30.8145 -14.0693c-10.6582 -24.3643 -37.4102 -23.6836 -44.8926 3.80469c-2.93457 10.7861 -14.5156 25.293 -25.4834 30.4648l0.498047 0.234375s-0.143555 -0.0371094 -0.498047 -0.234375
c-6.34473 -3.52637 -23.4902 -22.7295 -26.3809 -30.5918c-11.0146 -29.9463 -32.292 -25.5957 -41.8867 -8.8291c-0.0214844 0.0175781 -0.0439453 0.0429688 -0.0439453 0.0761719z" />
  </g>

</svg>
