<?xml version="1.0" standalone="no"?>
<!DOCTYPE svg PUBLIC "-//W3C//DTD SVG 1.1//EN" "http://www.w3.org/Graphics/SVG/1.1/DTD/svg11.dtd" >
<svg xmlns="http://www.w3.org/2000/svg" xmlns:xlink="http://www.w3.org/1999/xlink" version="1.1" viewBox="-10 0 827 1000">
  <g transform="matrix(1 0 0 -1 0 800)">
   <path fill="currentColor"
d="M510.461 247.028l84.5391 -83.0283l120.814 155.08l-26.2363 17.4727l-95.708 -121.229l-60.3506 57.7178zM333.065 619.28c3.43848 -61.0859 -25.5898 -235.091 -8.5127 -244.225c16.7637 -180.238 191.267 -348.641 191.487 -342.145l-29.5684 -19.7109
c-66.5244 72.5615 -140.753 144.372 -197.316 340.991c-12.5938 -86.5742 -66.6699 -183.541 -115.259 -245.248c-29.5654 -37.5459 -42.2412 -67.583 -67.585 -95.7432l-33.792 26.751c38.0166 49.2803 59.3545 81.043 84.4805 114.049
c128.286 168.514 133.652 389.767 132.657 506.979c11.9375 -0.263672 23.875 -0.526367 35.8135 -0.790039c6.71582 -0.144531 6.98926 -6.67188 7.10547 -9.46094c0.0136719 -0.313477 -0.4375 -14.9805 0.489258 -31.4473zM638.867 725.345l-248.835 -280.771
l32.6035 -25.9805l211.969 246.287c17.6074 -29.1953 42.7334 -63.7109 51.0986 -86.3682l59.4824 84.8145z" />
  </g>

</svg>
