<?xml version="1.0" standalone="no"?>
<!DOCTYPE svg PUBLIC "-//W3C//DTD SVG 1.1//EN" "http://www.w3.org/Graphics/SVG/1.1/DTD/svg11.dtd" >
<svg xmlns="http://www.w3.org/2000/svg" xmlns:xlink="http://www.w3.org/1999/xlink" version="1.1" viewBox="-10 0 1021 1000">
  <g transform="matrix(1 0 0 -1 0 800)">
   <path fill="currentColor"
d="M37.3545 -78.4795h55.5146l17.1611 52.2256l17.1602 -52.2256h55.5156l-44.8672 -32.2959l17.1611 -52.2246l-44.9697 32.2959l-44.9707 -32.2959l17.1611 52.2246zM657.504 -110.619c6.13331 0 11.0819 4.9755 11.0819 11.0415v165.686l26.9815 -34.318l25.245 22.3162
l-52.2265 60.8103v85.6112c0 6.09433 -4.97277 11.0158 -10.9985 11.0415l-226.893 0.915437c11.4157 9.85633 22.8313 19.7127 34.247 29.569l-23.3185 24.056l-59.0566 -53.431l-1.93917 0.00784631s-96.9908 0.392488 -97.0112 0.392529
c-6.13804 0 -11.082 -4.98093 -11.082 -11.0425v-300.105c0 -6.11403 5.00065 -11.0415 11.0415 -11.0415zM304.624 -77.0639v258.014l77.4518 -0.332026l64.2293 -54.164l21.5331 25.0947l-35.3589 28.8515l204.022 -0.875037v-62.9824l-55.505 -60.8728l24.0285 -22.6127
l31.4766 35.1477v-146.694zM759.772 435.706c-1.51777 0 -19.8841 -0.230865 -20.085 -0.230865c-10.1081 0 -19.4176 0.640479 -28.7716 4.17894c-8.43438 3.19059 -16.2869 7.92287 -20.5459 12.1819c-11.8456 11.8456 -20.7965 35.6112 -20.7965 50.2064
c0 59.96 67.9484 74.957 93.4268 74.957c18.7027 0 47.9097 -9.97014 55.0243 -14.7196c11.8537 -7.91304 27.0807 -29.7666 27.0807 -50.8864c0 -38.2465 -26.4343 -66.3239 -27.5076 -67.1978c-5.28088 -4.29935 -16.7379 -10.0838 -27.9411 -10.0838
c-4.52648 0 -11.0914 1.5941 -29.884 1.5941zM728.529 394.487c0.178442 0 10.1942 0.347759 17.8408 0.347759c10.6827 0 40.5244 -1.40689 40.9339 -1.40689c15.9777 0 41.0753 3.54802 60.2158 22.6885c15.2265 15.2265 36.9348 51.557 38.5013 87.7465
c0.0495024 1.42602 0.0737403 2.83538 0.0737403 4.22815c0 37.5053 -17.576 62.9854 -32.6833 78.0927c-16.9264 16.9264 -42.6851 27.1378 -75.8153 31.5613c0.885267 16.1061 3.42547 62.3211 25.3807 84.2763c3.42412 3.42146 10.0904 7.43146 17.4155 10.1807
c6.20108 2.32781 9.03937 3.10746 18.8656 3.10746c3.4168 0 7.67851 -0.0942694 13.2203 -0.250498v41.1554c-15.5892 0.43236 -15.5892 0.43236 -16.6029 0.43236c-24.5231 0 -48.7195 -12.2438 -61.97 -25.4943c-34.4278 -34.4263 -36.7886 -92.1023 -37.6277 -115.443
c-13.8072 -2.6862 -48.6435 -9.46363 -76.6658 -37.4859c-11.8229 -11.8229 -31.5823 -37.2583 -31.5823 -75.2146c0 -2.41263 0.44609 -47.3824 33.3314 -80.2677c18.3588 -18.3588 47.5495 -28.2545 67.1684 -28.2545zM512.017 634.79l-108.621 121.695l-109.379 -127.945
l22.7134 -19.7515l72.6342 87.7985l-2.57436 -308.512l36.2298 -1.64707l-4.30714 310.521l71.0606 -83.4368z" />
  </g>

</svg>
