<?xml version="1.0" standalone="no"?>
<!DOCTYPE svg PUBLIC "-//W3C//DTD SVG 1.1//EN" "http://www.w3.org/Graphics/SVG/1.1/DTD/svg11.dtd" >
<svg xmlns="http://www.w3.org/2000/svg" xmlns:xlink="http://www.w3.org/1999/xlink" version="1.1" viewBox="-10 0 1020 1000">
  <g transform="matrix(1 0 0 -1 0 800)">
   <path fill="currentColor"
d="M100 94.1675c17.677 0 36.8297 -2.22266 55.5547 -2.22266c36.0804 0 68.5822 4.89782 72.7707 5.56695c0.0657803 0.0108851 0.132441 0.0208899 0.200094 0.0299024c33.4475 4.65469 88.2183 27.4257 117.656 56.8637c41.701 41.701 52.8673 89.7043 52.8673 140.235
c0 58.6451 -13.6876 107.888 -13.6876 172.172c0 4.54898 0.060696 9.24902 0.194802 14.2949c1.86545 43.7446 28.0675 96.7183 39.1658 109.301c24.9678 28.3066 75.1711 57.4173 111.891 64.9201c33.9798 6.78607 89.966 12.3202 124.614 12.3202
c5.10351 0 8.32607 -0.0412452 16.2729 -0.205486v32.7248c-2.72283 0.0262389 -5.42186 0.0390797 -8.09679 0.0390797c-59.8324 0 -107.613 -6.42444 -140.182 -13.0354c-43.7614 -9.09058 -101.608 -43.4232 -130.283 -76.6516
c-12.5378 -14.5287 -43.5038 -75.612 -45.3264 -127.655c-0.129926 -4.60638 -0.189383 -9.1941 -0.189383 -13.7332c0 -40.0507 4.7028 -77.9711 6.8797 -91.9809l0.0196077 -0.159751c3.44208 -28.0439 6.80852 -55.3348 6.80852 -81.4063
c0 -43.8704 -9.53194 -84.2881 -44.2748 -119.031c-22.5718 -22.5717 -69.3498 -42.8877 -99.0235 -46.8544c-21.6684 -2.97116 -43.7987 -4.81381 -69.863 -4.81381c-16.2924 0 -34.122 0.719983 -54.3366 2.33437l-2.31246 -33.0531h2.68054zM348.055 -52.2222
c17.1168 0 36.0031 -2.22168 55.5547 -2.22168c33.1812 0 62.7532 4.06006 70.7426 5.31742c35.325 4.85427 88.2868 28.6713 114.303 54.6877c41.8312 41.8312 52.9533 89.373 52.9533 139.086c0 57.244 -13.4463 105.401 -13.4463 168.077
c0 4.25256 0.0536419 8.65081 0.171303 13.3864c1.74022 43.1237 27.4535 95.2018 37.5469 106.574c1.61321 1.81754 3.31853 3.62044 5.10668 5.40859c26.3362 26.3362 71.3242 51.0861 104.236 57.7921c33.1931 6.63281 87.8915 12.0422 121.738 12.0422
c5.02824 0 8.13077 -0.0394647 16.1454 -0.207373l-0.654579 32.4524c-2.58195 0.0240532 -5.14187 0.0358327 -7.67953 0.0358327c-58.5935 0 -105.316 -6.28002 -137.218 -12.7578c-42.8152 -8.92434 -99.4144 -42.5041 -127.503 -74.9825
c-11.9556 -13.8238 -42.3894 -73.5585 -44.2168 -124.599c-0.138471 -4.70201 -0.20166 -9.38747 -0.20166 -14.023c0 -38.7292 4.46487 -75.2604 6.61233 -89.1909l0.0191003 -0.156261c3.34373 -27.3552 6.59687 -53.9464 6.59687 -79.3341
c0 -42.9495 -9.31045 -82.4547 -43.2436 -116.388c-21.4916 -21.4915 -67.0346 -41.5733 -96.5033 -45.4644c-21.1748 -2.92395 -42.7903 -4.75311 -68.4139 -4.75311c-15.8543 0 -33.2431 0.700278 -53.0113 2.27479l-2.31482 -33.0547h2.68072z" />
  </g>

</svg>
