<?xml version="1.0" standalone="no"?>
<!DOCTYPE svg PUBLIC "-//W3C//DTD SVG 1.1//EN" "http://www.w3.org/Graphics/SVG/1.1/DTD/svg11.dtd" >
<svg xmlns="http://www.w3.org/2000/svg" xmlns:xlink="http://www.w3.org/1999/xlink" version="1.1" viewBox="-10 0 1046 1000">
  <g transform="matrix(1 0 0 -1 0 800)">
   <path fill="currentColor"
d="M30.3242 741.553h55.5146l17.1611 52.2256l17.1602 -52.2256h55.5156l-44.8672 -32.2959l17.1611 -52.2246l-44.9697 32.2959l-44.9707 -32.2959l17.1611 52.2246zM804 631c0 -96.6865 68.0879 -173.199 99.375 -191.775l11.1992 -6.64941
c-16.9434 -0.478516 1.18945 0.900391 -34.5742 -3.5752l-1.0752 1.36426c-22.0068 27.9238 -93.998 110.011 -106.903 207.233c-0.657227 4.95117 0.0224609 9.79688 0.582031 18.2783c-1.38379 0.708984 -2.88672 1.4873 -4.52246 2.34082
c-0.0283203 -1.83984 -0.322266 -3.81641 -0.0449219 -5.88867c33.3789 -249.661 97.5459 -216.742 97.5459 -216.742s6.91211 -4.29004 10.2793 -6.58594h-32.8613c-44.1455 16.1279 -101.697 151.17 -101.697 222.331c0 8.73535 0.302734 15.3135 0.785156 20.6846
c-60.6641 32.3369 -181.179 64.7012 -284.885 64.7012c-23.0527 0 -45.5234 -2.04883 -73.3945 -6.17773c-32.3232 -4.78906 -32.3232 -4.78906 -70.6152 -21.2002c-18.916 -8.10645 -50.2139 -47.4062 -58.166 -66.7188
c-7.02734 -17.0664 -9.0791 -30.2676 -9.0791 -45.8906c0 -22.332 3.62891 -44.376 3.62891 -77.1553c0 -8.99219 1.14648 -13.8564 1.14648 -20.1924c0 -4.57031 -0.613281 -9.64551 -2.73242 -16.6025c-19.9492 -65.4795 -40.3174 -87.0479 -63.832 -110.183
c-6.25977 -6.16016 -27.0508 -26.6172 -27.0508 -37.7881c0 -4.45605 0.882812 -6.9082 38.3447 -19.4531c55.9199 -18.7266 60.0254 -24.4102 60.0254 -90.9766c0 -43.0117 2.70801 -110.013 2.70801 -151.731c0 -5.5 0.0820312 -11.3867 0.267578 -17.7666
c0.50293 -17.292 16.4512 -45.3398 23.8975 -57.5352c1.19629 -0.303711 1.95996 -1.18164 1.95996 -1.18164c1.1543 -0.666992 2.48438 -1.60059 4.13477 -2.74414c16.0508 -11.1162 22.0049 -13.1846 40.8428 -13.1846c24.0361 0 22.3457 4.21484 79.0615 4.21484
c0.316406 0 6.94531 -0.00390625 7.01562 -0.00390625c14.7988 0 25.668 0.226562 52.1025 3.80078c20.2021 2.73242 38.8271 4.61572 56.5088 6.4043c120.938 12.2334 201.711 24.1475 280.178 80.1953c2.23438 1.5957 5.14355 3.85352 8.45703 6.42773
c12.6104 9.7959 33.0303 26.8994 48.1416 26.8994c8.16699 0 13.834 -4.95996 13.834 -14.165c0 -15.4473 -17.4082 -42.8486 -33.0938 -42.8486c-1.16406 0 -1.56543 0.129883 -3.01758 0.129883c-22.6426 0 -44.3604 -36.5264 -79.4766 -51.29
c-52.8857 -22.2344 -138.298 -27.127 -175.459 -33.71c-17.2549 -3.05664 -36.6504 -6.49316 -61.8809 -12.2393c-34.7246 -7.90918 -51.6299 -8.61133 -86.7539 -8.61133c-0.251953 0 -22.7891 0.03125 -25.0811 0.03125c-11.3115 0 -32.6182 -0.123047 -32.9473 -0.123047
c-40.7773 0 -82.5049 2.86621 -120.91 24.8125c-26.0957 14.9121 -27.9092 36.1035 -30.0449 61.0586c-0.477539 5.59082 -0.976562 11.3994 -1.75781 17.3906c-1.96484 15.7158 -2.63672 29.7119 -2.63672 42.8916c0 28.6572 -4.27441 100.664 -4.27441 131.409
c0 46.4277 -4.59863 49 -29.7539 58.8145c-27.3184 10.6582 -57.2148 13.2568 -70.834 26.876c-4.33008 4.33008 -6.66504 9.68945 -6.66504 16.1094c0 4.7959 1.30371 10.1846 4.05176 16.1768c36.4951 79.5967 68.6367 70.0742 91.3711 139.761
c5.20312 15.9443 6.93652 32.2529 6.93652 48.6797c0 32.5635 -6.77832 65.1611 -6.77832 95.8125c0 47.6494 17.2412 68.3838 35.0508 86.1934c66.2422 66.2412 143.674 66.3555 238.901 66.3555h0.988281c82.8154 0 190.135 -23.3467 246.021 -49.8477
c43.5547 -20.6533 21.8506 -15.7109 32.4561 -16.8408c11.3984 -1.2168 39 -13 47.5039 -30.4053c4.31641 -8.83496 -4.12305 -21.668 -4.50391 -29.5947c-0.257812 -5.36523 2 -14.3428 2 -20zM373.2 444.8c-0.0732422 0 -0.401367 0.140625 -0.401367 0.448242
c0 0.0478516 0.00683594 0.0957031 0.0185547 0.138672c-0.183594 3.59375 -0.368164 7.1875 -0.552734 10.7812l132.421 13.582c-1.27832 0.12207 -2.45215 0.233398 -2.46484 0.235352c-13.6611 2.3252 -18.7227 8.75195 -18.7227 22.2266
c0 30.3652 25.5322 80.9072 30.6924 107.916c0.237305 1.24316 1.86816 2.16602 1.86816 3.09668c0 0.0644531 0.335938 0.867188 0.270508 1.35059l0.540039 -0.541016c0.0136719 -0.429688 0.332031 -0.72168 0.345703 -1.15234v0
c6.11133 -29.3975 29.2129 -68.374 29.2129 -96.335c0 -9.18945 -2.72852 -16.0059 -6.87891 -24.4062c-0.958008 -1.93945 -2.13574 -4.32324 -3.68359 -7.6084c-0.126953 -0.269531 -1.24512 -1.45605 -6.50195 -5.9668l-3.63965 1.51562l-0.411133 1.22949
c0.107422 0.102539 7.30957 7.25781 7.70117 12.6504c0.189453 2.60059 0.27832 5.09375 0.27832 7.48633c0 24.2051 -9.11035 38.0811 -15.9824 48.5635c-2.17188 3.3125 -4.12598 6.28711 -5.49707 9.15625c-5.90137 -18.5029 -18.9736 -37.5869 -18.9736 -55.833
c0 -9.03711 5.02148 -16.0918 5.13086 -16.1992c2.56641 -2.56738 4.2832 -4.36133 10.3945 -6.17871v-0.829102l0.37793 0.0380859c1.32617 3.2373 4.5498 6.30859 8.37012 6.30859c5.72852 0 8.53711 -5.03809 8.53711 -9.0957
c0 -4.21387 -3.25 -9.00781 -7.42969 -9.00781c-1.93945 0 -4.20215 0.921875 -6.09766 2.3291c-27.6885 -4.2793 -94.3623 -11.8154 -136.637 -15.6533c-1.16895 -0.105469 -1.91504 -0.167969 -2.17578 -0.183594c0 0 -0.0292969 -0.0625 -0.109375 -0.0625zM399.6 309.8
l-0.599609 9.60059l141 0.599609l-0.299805 -10.2002h-140.101zM400.2 267.8l-0.600586 10.7998l140.7 -0.599609v-10.2002h-140.1zM462.3 95.5996c-6.59961 4.2002 -15 9.60059 -18.2998 11.7002c-3.2998 2.10059 -7.2002 4.7998 -8.7002 5.7002l-2.39941 1.5
l-6.90039 20.7002l-6.90039 20.7002l2.40039 22.5c1.2002 12.5996 2.40039 23.0996 2.7002 23.3994c0.299805 0.299805 9 4.7998 19.5 9.90039l19.5 9.59961l4.7998 0.600586c2.7002 0.299805 8.40039 0.899414 12.5996 1.19922
c15.3008 1.80078 12 2.40039 28.2002 -5.09961l14.1006 -6.59961l10.7998 -17.4004c6 -9.59961 -1.7998 -28.7998 -1.7998 -29.4004c0 -0.599609 25.5 -19.5 21.5996 -31.7998c-3.90039 -12.2998 -12.5996 -27 -14.0996 -31.5c-1.5 -4.5 -12 -3.59961 -12.3008 -4.5
c-0.599609 -1.2002 -0.599609 -0.599609 -20.6992 2.10059c-6 0.899414 -12.6006 -2.7002 -14.7002 -3.60059c-7.7998 -3.59961 -16.7998 -7.7998 -17.1006 -7.7998c-0.299805 0 -5.69922 3.90039 -12.2998 8.09961z" />
  </g>

</svg>
