<?xml version="1.0" standalone="no"?>
<!DOCTYPE svg PUBLIC "-//W3C//DTD SVG 1.1//EN" "http://www.w3.org/Graphics/SVG/1.1/DTD/svg11.dtd" >
<svg xmlns="http://www.w3.org/2000/svg" xmlns:xlink="http://www.w3.org/1999/xlink" version="1.1" viewBox="-10 0 976 1000">
  <g transform="matrix(1 0 0 -1 0 800)">
   <path fill="currentColor"
d="M370.152 45.8359c-27.4854 17.917 -61.499 40.0723 -75.5859 49.2354s-30.252 19.7998 -35.9229 23.6377l-10.3105 6.97754l-28.5059 85.7666l-28.5059 85.7666l9.48242 94.5947c5.21484 52.0264 10.0469 95.5059 10.7354 96.6211
c0.688477 1.11328 37.5244 19.9219 81.8555 41.7949l80.6055 39.7695l20.9717 2.2168c11.5352 1.21875 35.002 3.7207 52.1533 5.5625c64.0986 6.88184 49.6943 9.54492 116.924 -21.6191l59.0186 -27.3613l45.0996 -72.0449
c24.8047 -39.625 -7.83398 -120.691 -7.83398 -123.067c0 -2.375 105.832 -80.9199 90 -132c-15.833 -51.084 -52.3262 -113.627 -58 -132c-5.67383 -18.374 -50.1387 -14.0918 -52 -18c-2.61523 -5.49121 -2.61133 -2.86914 -86 8
c-25.3828 3.30859 -52.3672 -10.3311 -61.5537 -14.6475c-32.1777 -15.1211 -69.4072 -31.7773 -71.0205 -31.7773c-0.896484 0 -24.1191 14.6582 -51.6064 32.5742z" />
  </g>

</svg>
