<?xml version="1.0" standalone="no"?>
<!DOCTYPE svg PUBLIC "-//W3C//DTD SVG 1.1//EN" "http://www.w3.org/Graphics/SVG/1.1/DTD/svg11.dtd" >
<svg xmlns="http://www.w3.org/2000/svg" xmlns:xlink="http://www.w3.org/1999/xlink" version="1.1" viewBox="-10 0 1020 1000">
  <g transform="matrix(1 0 0 -1 0 800)">
   <path fill="currentColor"
d="M30.3242 741.553h55.5146l17.1611 52.2256l17.1602 -52.2256h55.5156l-44.8672 -32.2959l17.1611 -52.2246l-44.9697 32.2959l-44.9707 -32.2959l17.1611 52.2246zM271 608l-12 60c128.725 89.7881 355.203 55.3633 442.457 48.5605
c0 -0.0107422 0.000976562 -0.0214844 0.000976562 -0.0322266c27.4463 0.582031 75.1855 -1.32129 107.268 -33.4033c40.1396 -40.1396 38.6152 -108.841 37.5254 -169.365c-0.395508 -21.9258 -0.433594 -33.2402 -0.22168 -41.9463
c26.3789 -43.8281 72.168 -89.959 89.3252 -129.607c6.95117 -16.0635 5.49219 -24.7637 2.64551 -40.2051l-12 -14l-79.501 -63.5771v-212.431c1.93945 -31.0869 1.82422 -79.2412 -27.416 -108.48c-26.0322 -26.0322 -182.507 -12.0195 -220.584 -13.0049
l-2.90137 0.0126953c-103.732 -7.2998 -296.108 50.6025 -326.603 92.1719c-18.5059 25.2275 -31.4014 41.2529 -57.9951 55.3086v70.0371c25.8174 -16.2627 49.624 -17.8066 70.1904 -60.6357c44.2188 -92.082 349.455 -105.734 451.309 -108.438l-0.499023 -0.962891
c50 12 34.1514 4.48145 42.5352 13.5361c19.1768 20.7119 3.97852 41.9688 5.50781 57.9648h-0.541992v2.14941c-0.253906 0.990234 -0.500977 1.94141 -0.738281 2.84863h0.738281v207.174v3.4873v1.33887h1.58203l104 88h1.13281
c4.9834 45.8955 -62.8379 92.1289 -94.2158 139.501l-3 4l-1 1c-2.02051 3.99219 0.0439453 4.02539 -2.08398 11.5605c-0.0371094 0.130859 -0.189453 0.24707 -0.174805 0.367188l0.258789 2.07227l0.0644531 1.49902
c0.00976562 0.226562 0.150391 3.89551 0.242188 6.24414c3.11426 79.1523 5.19727 173.389 -83.8154 173.771c-136.35 16.7461 -373.536 9.53418 -431.49 -46.5137zM531.629 270.27c-16.8086 0.00976562 -31.4785 13.8457 -31.4785 31.6396
c0 17.46 14.1787 31.6406 31.6406 31.6406c17.4404 0 31.6396 -14.1641 31.6396 -31.6084c-0.0742188 -17.4707 -14.332 -31.6719 -31.8018 -31.6719zM542.204 241.188c0 0.0898438 -0.231445 7.40332 -0.231445 9.05664c0 0.348633 0 0.348633 0.0185547 3.7207
c6.23535 1.73145 15.2617 4.23828 24.3838 13.3604c8.85645 8.85547 14.3311 21.0859 14.3311 34.584c-0.108398 27.0068 -22.0654 48.916 -49.082 48.916c-26.3477 0 -48.749 -21.5859 -48.749 -48.9141c0 -21.585 13.9883 -39.8789 33.3369 -46.3809l2.71484 -0.912109
l0.00585938 -2.87109c0 -0.347656 0.000976562 -0.698242 0.000976562 -1.05078c0 -34.3145 -3.20605 -92.4971 -36.9121 -136.772c-12.3633 -16.8271 -20.0576 -27.2998 -24.1709 -32.6318c-0.746094 -0.967773 -1.11914 -2.13086 -1.11914 -3.29395
c0 -2.63086 0.674805 -3.16309 5.64746 -7.0918c1.43652 -1.13379 3.39258 -2.67969 6.08008 -4.80664c0.976562 -0.773438 2.16113 -1.16016 3.34668 -1.16016c3.11621 0 5.25488 1.96777 13.9824 15.5391c2.89062 4.49512 6.00586 9.35156 9.61816 13.9395
c9.13867 11.6055 18.9033 27.2588 25.7773 43.8877l3.75 9.07129l3.65723 -9.1084c13.7236 -34.1816 28.9434 -50.7441 48.1045 -71.5869c0.52832 -0.575195 1.86133 -1.74414 3.97949 -1.74414c1.03516 0 2.07715 0.295898 2.98828 0.90332
c4.63281 3.08887 9.26562 6.17773 13.8994 9.2666c0.316406 0.0761719 0.633789 0.15332 0.951172 0.230469c-7.99805 6.20215 -8.56738 6.72656 -10.6191 8.77734c-12.4463 12.4463 -44.5723 51.165 -48.2168 90.3477c-0.333008 3.57129 -1.51953 0.09375 -1.51953 7.23438
c0 11.9805 4.0459 44.1436 4.0459 59.4902zM662.135 407.808l-262.439 0.874023v17.3184h235.305v98.334h-235.305v17.3174l260.107 -1.45703z" />
  </g>

</svg>
