<?xml version="1.0" standalone="no"?>
<!DOCTYPE svg PUBLIC "-//W3C//DTD SVG 1.1//EN" "http://www.w3.org/Graphics/SVG/1.1/DTD/svg11.dtd" >
<svg xmlns="http://www.w3.org/2000/svg" xmlns:xlink="http://www.w3.org/1999/xlink" version="1.1" viewBox="-10 0 1076 1000">
  <g transform="matrix(1 0 0 -1 0 800)">
   <path fill="currentColor"
d="M828.399 483.872c0 9.49878 0.360099 25.4826 0.360099 28.905l-0.318652 61.3747l-8.69455 54.78l-24.0577 41.7601l-29.8355 19.1251l-33.9409 8.02542l-47.9505 1.85133v0.765382l-107.704 8.96128l-161.614 -4.8437l-135.511 -48.0118l4.97421 -24.8711
l90.1513 34.2037l168.519 13.9909l163.859 -8.05849l72.0585 -32.0852l24.6852 -76.5829c-11.2968 -92.7231 -11.5388 -94.7093 -10.6225 -98.1968c0.272553 -1.03738 0.408327 -1.98777 0.495372 -2.92219c0.487753 -0.641757 1.13403 -1.58506 1.4862 -2.05622
l30.4464 -40.7334l38.0432 -60.0682l23.93 -33.502l-96.7113 -80.2498l-3.19974 -219.288c0.962733 -7.56244 2.78458 -22.0112 5.01798 -45.877c-0.12894 -0.269919 -9.65147 -20.9678 -12.8349 -27.02c-1.80565 -3.43278 -3.36365 -6.39475 -8.94453 -11.1259
c-28.726 -6.87192 -37.6748 -9.01268 -53.7943 -9.01268c-3.38415 0 -6.77838 0.14333 -10.1737 0.446144l-127.95 -3.2205l-189.706 31.9736l-119.91 72.0259l-21.8729 31.5454c-0.18608 0.126152 -14.9542 10.3475 -18.5829 12.6523v-31.4635
c5.41685 -3.87145 13.5068 -7.36272 24.4398 -17.2503c7.32645 -6.62591 2.09556 -4.45645 10.6241 -11.9264c1.03002 -0.902171 1.03002 -0.902171 17.2005 -21.8062l70.2643 -41.1391l123.979 -35.7692l40.8353 -3.74581
c52.8258 -4.90757 59.0669 -6.73248 83.0467 -7.42728l68.08 -1.97257l89.7606 0.254271l51.1066 12.4914l15.1376 25.2075l6.27671 34.16l-0.268638 82.9487l0.0291888 84.2282l-0.00582149 87.5189l84.7837 67.8016l7.68593 8.96692l1.11464 7.19504
c0.44913 7.61262 -1.52476 12.8022 -3.31214 18.1783l-23.3304 38.8443l-33.0243 43.448l-34.3179 48.9016c-0.202711 16.1296 -0.202711 16.1296 -0.202711 17.6951zM33.2949 712.521h55.5146l17.1611 52.2256l17.1602 -52.2256h55.5156l-44.8672 -32.2959
l17.1611 -52.2246l-44.9697 32.2959l-44.9707 -32.2959l17.1611 52.2246zM550.83 107.52c0 18.1299 -14.7002 32.3398 -32.8301 32.3398s-33.3193 -14.21 -33.3193 -32.3398c0 -21.0693 16.6592 -31.3604 33.3193 -31.3604c9.30957 0 18.1299 2.94043 24.5 9.31055
c4.90039 4.89941 8.33008 12.25 8.33008 22.0498zM565.53 99.1895c-1.4707 -6.86035 -4.41016 -14.7002 -8.33008 -20.5801l40.6699 -40.6699c12.7393 15.1895 23.5195 41.6494 25.4795 61.25h-57.8193zM545.931 68.3193
c-5.88086 -3.91992 -13.2305 -6.85938 -20.0908 -8.33008v-58.3096c19.6006 1.95996 46.0605 12.7402 61.25 25.4795zM489.58 68.3193l-40.6699 -41.1602c15.1895 -12.7393 41.6494 -23.5195 61.25 -25.4795v58.3096c-6.86035 1.4707 -14.7002 4.41016 -20.5801 8.33008z
M478.8 78.6094c-3.91992 5.87988 -7.34961 13.7197 -8.81934 20.5801h-57.8203c1.95996 -19.6006 12.7402 -46.0605 25.4805 -61.25zM469.98 114.869c1.46973 6.86035 4.89941 14.7002 8.81934 20.5811l-41.1592 41.1592
c-12.7402 -15.1895 -23.5205 -41.6494 -25.4805 -61.7402h57.8203zM489.58 146.229c5.87988 3.91992 13.7197 6.85938 20.5801 8.33008v58.3096c-19.6006 -1.95996 -46.0605 -12.7402 -61.25 -25.4795zM545.931 146.229l41.1592 41.1602
c-15.1895 12.7393 -41.6494 23.5195 -61.25 25.4795v-58.3096c6.86035 -1.4707 14.21 -4.41016 20.0908 -8.33008zM557.2 135.45c3.91992 -5.88086 6.85938 -13.7207 8.33008 -20.5811h57.8193c-1.95996 19.6006 -12.7402 46.0605 -25.4795 61.25zM518 229.039
c67.1299 0 121.52 -54.3896 121.52 -121.52c0 -66.1504 -53.8994 -121.52 -121.52 -121.52c-67.1299 0 -121.52 54.3896 -121.52 121.52c0 67.1299 54.3896 121.52 121.52 121.52zM463.789 391.944c0 -17.1924 6.16504 -33.335 18.2139 -45.4209
c9.99902 -9.95996 29.2002 -17.8926 43.3154 -17.8926c3.20703 0 7.47852 0.511719 12.8574 1.52734c29.3135 5.53223 53.1025 34.1572 53.1025 64.0566c0 5.31934 -1.19043 13.4912 -2.70801 18.5947c-3.33887 11.7969 -14.8203 29.3311 -15.7061 30.626
c-4.10938 6.48926 -5.16016 8.1582 -6.90137 11.1914c-10.4268 18.3418 -20.8691 36.667 -31.2852 55.0186c-2.89258 6.54785 -4.09961 7.74707 -6.35156 8.73438c-2.44434 0 -3.24219 -0.0205078 -4.59766 -1.37598
c-0.837891 -0.836914 -0.885742 -0.955078 -2.36426 -3.72363c-0.867188 -1.62402 -20.7168 -37.7764 -30.8525 -54.0957c-1.93945 -3.12402 -11.8896 -19.1875 -18.0322 -31.5537c-5.82324 -11.749 -8.69043 -23.9619 -8.69043 -35.6865zM525.516 337.051
c-11.4502 0 -28.6328 6.52246 -37.8701 15.7598c-10.1758 10.1758 -15.4238 23.959 -15.4238 38.8555c0 10.4355 2.5752 21.417 7.83496 32.0879c4.66016 9.38184 10.2637 18.6621 15.7012 27.6621c4.8623 7.90137 4.84277 7.86621 28.6426 49.4043
c0.0478516 0.0917969 0.0478516 0.0917969 2.50293 4.86426l31.6729 -54.9941c1.32129 -2.27637 2.51367 -4.28906 7.15918 -11.5557c4.19141 -6.13379 9.97949 -16.6074 12.9395 -23.3779c0.0488281 -0.12207 0.102539 -0.239258 0.154297 -0.358398v-0.03125
c2.98242 -7.63281 4.10742 -16.5049 4.10742 -21.4238c0 -26.0508 -20.8477 -51.0908 -46.5273 -55.7695c-5.58105 -1.0166 -9.4209 -1.12305 -10.8936 -1.12305zM587.886 281.207c0.298828 0.0126953 19.124 0.00195312 19.1299 0.0117188
c-5.7998 24.3213 -4.16992 32.1523 -2.05469 38.9766c0.0195312 0.0615234 1.65625 5.71875 1.87891 6.16504l13.6768 27.3525c-7 108.499 -7 108.499 -6.96094 108.966c2.2998 27.2969 4.30469 59.1377 1.96094 79.5342c-6.0957 24.208 -21.2197 19.0996 -24.752 11.3564
c-1.24805 -2.73633 -2.65527 -3.05859 -6.28613 -3.89062c-2.82227 -2.52441 -7.26172 -1.97168 -9.37305 1.20703c-2.64648 3.98535 -14.8906 22.9443 -15.2119 23.5752c-4.42773 8.67188 -21.5078 14.0068 -24.7725 -3.16016
c-0.118164 -0.620117 -0.118164 -0.620117 -5.94824 -14.8311c-2.17188 -5.29395 -9.8291 -5.07324 -11.6895 0.338867l-10.9668 31.9043c-2.93262 8.52832 -21.2246 15.3389 -30.8887 -0.811523c-0.177734 -0.532227 -1.48242 -4.48828 -8.53418 -26.6045
c-1.5332 -4.80762 -7.93066 -5.90625 -10.9707 -1.82129c-9.02051 12.1211 -9.02051 12.1211 -9.17969 12.2803c-0.0595703 0.0595703 -10.3027 10.2861 -16.1055 4.48242c-3.17773 -3.17773 -4.97559 -10.9355 -5.76758 -15.6934
c0.0224609 -0.712891 0.164062 -4.92383 0.946289 -25.3438c0.464844 -12.7158 1.03027 -39.8896 1.04297 -40.293c3.71875 -26.5088 1.99902 -27.3369 3.93262 -41.5205c0.140625 -0.544922 1.21387 -4.67871 6.7832 -25.7637
c0.0546875 -0.207031 0.563477 -12.0127 -1.05078 -14.7578c-3.9707 -6.75 -4.24609 -7.21777 -6.86621 -7.81836c-10.3672 -2.375 -13.6475 -0.287109 -17.1533 4.57715c-1.80273 2.50195 -14.0664 14.793 -15.2998 16.2158l-25.6992 29.6533
c-0.695312 0.458984 -4.26172 2.7959 -14.9912 9.59277c-0.626953 0.189453 -3.62988 1.08691 -12.6982 3.62598c-2.53613 -1.3916 -5.55859 -0.552734 -7.85156 -2.8457c-1.66309 -1.66309 -3.58203 -7.23633 -2.97168 -10.3926l14.1787 -19.0684
c2.73145 -2.56055 17.2461 -15.2119 17.957 -16.0713c21.1875 -25.6221 21.1875 -25.6221 21.2891 -25.7607c15.3984 -20.8613 15.3984 -20.8613 15.5137 -21.043c13.8848 -21.8184 13.8848 -21.8184 14.0811 -22.2734l10.7236 -24.8594
c2.96191 -4.59277 14.415 -21.873 14.7217 -22.4551c4.8252 -9.16797 4.8252 -9.16797 5.00684 -9.93066c3.59082 -15.0449 29.0176 -15.7939 29.3516 -15.7998l27.8125 -0.49707zM607.017 268.715h-18.7383c-84.2998 -3.50098 -84.2998 -3.50098 -84.4873 -3.49805
l-28.0127 0.500977c-4.44727 0.0830078 -34.8125 1.50293 -41.0625 24.5713l-3.97949 7.56055c-14.5625 22.0928 -14.3154 21.3613 -15.1963 23.4033l-10.6074 24.5898l-13.2373 20.8018l-15.041 20.377l-20.6543 24.9785
c-17.7441 15.7148 -17.7441 15.7148 -18.5234 16.7627l-14.5 19.5c-5.17285 6.95703 -1.56152 20.5312 4.35059 26.4434c3.46582 3.4668 6.73438 4.52539 11.5801 5.41699c2.68066 1.19824 5.69727 1.40625 8.49414 0.623047
c13.1924 -3.69434 13.4795 -3.49902 15.7979 -4.96777c14.1562 -8.96484 15.2305 -9.30371 17.2578 -11.3311c0.236328 -0.236328 -0.304688 -0.731445 26.291 -30.2998c13.8564 -15.4062 14.3975 -14.9111 16.3867 -17.6074
c0.329102 0.0292969 0.780273 0.0849609 1.34961 0.177734l0.669922 1.13867l0.298828 7.47168c-6.66504 25.2227 -6.5918 24.5254 -6.81738 26.1729c-2.08301 15.165 -0.250977 15.3809 -3.99414 41.957c-0.0576172 0.408203 -0.805664 32.8604 -1.11328 41.2617
c-1 26.1104 -1.23926 25.0811 -0.848633 27.4971c1.2168 7.54102 4.02148 24.9209 18.7051 28.0186c12.209 2.57422 24.0439 -8.8877 25.668 -11.0693l1.81836 -2.44336c4.87891 15.4814 4.72168 15.3779 5.86523 17.3232c15.1133 25.7041 47.2393 17.2402 53.5977 -1.25586
l5.36523 -15.6084c7.48438 25.1504 37.5898 21.4053 47.1689 3.27246c0.112305 -0.172852 10.7607 -16.7168 11.1621 -17.335c10.5078 13.5801 37.1152 15.8701 45.6035 -17.8389c0.135742 -0.538086 0.235352 -1.08301 0.297852 -1.63086
c2.55859 -22.2695 0.422852 -54.1162 -1.88379 -81.5605l6.93945 -107.565c0.141602 -2.18652 -0.289062 -4.40234 -1.29004 -6.40527l-13.373 -26.7461c-0.384766 -1.49023 -0.834961 -2.97949 -1.42773 -4.89258c-1.66406 -5.37012 -3.4209 -8.46484 2.27441 -32.3525
c1.87305 -7.85254 -4.07812 -15.4121 -12.1543 -15.4121z" />
  </g>

</svg>
