<?xml version="1.0" standalone="no"?>
<!DOCTYPE svg PUBLIC "-//W3C//DTD SVG 1.1//EN" "http://www.w3.org/Graphics/SVG/1.1/DTD/svg11.dtd" >
<svg xmlns="http://www.w3.org/2000/svg" xmlns:xlink="http://www.w3.org/1999/xlink" version="1.1" viewBox="-10 0 1010 1000">
  <g transform="matrix(1 0 0 -1 0 800)">
   <path fill="currentColor"
d="M134.221 -61.2959zM340.548 -55.9424v263.013l80.8701 -0.34668l63.0251 -53.1485c1.23064 24.1913 1.23064 24.1913 2.20835 54.5l190.772 -2.45117v-66.4404l-54.499 -59.7695l32.7266 -4.33887l26 4l-4.22754 -136.465zM695.938 -84.5088
c4.71561 0 8.54759 3.82766 8.57399 8.39457l-1.86111 158.189c12.9088 -1.84411 12.9088 -1.84411 53.0537 -4.0831l-51.1944 59.6085v86.5381c0 4.71977 -3.8161 8.4982 -8.24219 8.54782l-211.617 -4.6113c-2.01115 37.2063 -2.01115 37.2063 -4.71543 58.173
l-57.9857 -52.4621l-3.87834 0.0156927s-96.0008 0.388525 -96.0416 0.388607c-4.71785 0 -8.57227 -3.83432 -8.57227 -8.54297v-300.105c0 -4.69954 3.84858 -8.54199 8.54199 -8.54199c0 0 373.898 -1.50871 373.938 -1.50879zM29.3242 18.2246h55.5146l17.1611 52.2256
l17.1602 -52.2256h55.5156l-44.8672 -32.2959l17.1611 -52.2246l-44.9697 32.2959l-44.9707 -32.2959l17.1611 52.2246zM278 735v10h300v-10h-300zM495.537 595.986l-6.66016 -7.61914l-61.7979 72.5566l2.19434 -230.376l-14.7109 -0.688477l1.81934 230.391
l-69.9512 -73.0459l-15.3916 2.47559l89.9365 94.0059zM569.169 429.701l0.0380859 -10.0391l-299.999 -1.11523l-0.0371094 10.0391z" />
  </g>

</svg>
