<?xml version="1.0" standalone="no"?>
<!DOCTYPE svg PUBLIC "-//W3C//DTD SVG 1.1//EN" "http://www.w3.org/Graphics/SVG/1.1/DTD/svg11.dtd" >
<svg xmlns="http://www.w3.org/2000/svg" xmlns:xlink="http://www.w3.org/1999/xlink" version="1.1" viewBox="-10 0 728 1000">
  <g transform="matrix(1 0 0 -1 0 800)">
   <path fill="currentColor"
d="M263.146 650.58c0 -36.2812 -2.84082 -31.7393 -2.84082 -75.3789c0 -86.2803 12.7812 -215.35 12.7812 -245.593c0 -11.4697 -2.54883 -55.1143 -40.1064 -92.6719c-16.2139 -16.2119 -34.9785 -28.2754 -52.3281 -39.4814
c-35.2529 -22.7715 -59.6113 -39.5459 -59.6113 -72.7598c0 -59.0664 60.415 -115.196 100.612 -152.541c26.7754 -24.875 32.1729 -29.8896 42.3594 -45.4551c18.4658 22.3691 18.4658 22.3691 22.4688 27.1758c-40.6455 41.3535 -109.993 112.696 -121.685 150.127
l-1.71875 9.49609c12.375 32.4805 17.915 39.3066 37.3809 50.3223c31.6729 17.9268 51.04 40.4932 87.9521 85.3857c58.5146 -104.232 69.374 -123.579 116.213 -193.206c4.31348 -6.41211 10.7529 -10.3711 22.7441 -10.3711c30.4932 0 81.7051 29.085 118.676 50.6816
c7.16309 4.18457 13.7422 8.05176 19.627 11.3535v0l20.584 10.3447l0.517578 0.333984c-8.58398 18.9805 -11.2012 25.6641 -13.3848 34.6426c-7.43164 -4.16602 -11.2637 -6.47949 -24.7285 -14.6016c-39.8799 -24.0596 -77.2607 -46.1768 -107.69 -46.1768
c-12.7529 0 -29.6367 4.22949 -39.8936 23.668c-86.3018 163.521 -104.346 298.965 -104.346 415.481c0 40.5859 1.4873 66.6846 5.83984 139.478c-4.23633 -0.0322266 -8.47852 -0.0429688 -12.458 -0.0429688c-9.64551 0 -19.1729 0.0722656 -20.9658 0.0869141
c-0.0576172 0 -0.108398 0.000976562 -0.149414 0.000976562c-3.36426 -0.141602 -5.96387 -1.70117 -5.96387 -8.96973c0 -0.839844 0.114258 -4.78125 0.114258 -11.3291zM585.463 104.459l0.1875 0.0253906z" />
  </g>

</svg>
