<?xml version="1.0" standalone="no"?>
<!DOCTYPE svg PUBLIC "-//W3C//DTD SVG 1.1//EN" "http://www.w3.org/Graphics/SVG/1.1/DTD/svg11.dtd" >
<svg xmlns="http://www.w3.org/2000/svg" xmlns:xlink="http://www.w3.org/1999/xlink" version="1.1" viewBox="-10 0 1003 1000">
  <g transform="matrix(1 0 0 -1 0 800)">
   <path fill="currentColor"
d="M151.033 708.794zM308.244 707.755zM232.615 580.149zM216.434 364.765zM238.107 471.485zM175.516 364.718zM284.061 776.956v-1.71875h-1.02734v1.71875h1.02734zM115.037 707.612c-20.5469 0 -37.2051 16.6543 -37.2051 37.2031
c0 20.5508 16.6582 37.207 37.2051 37.207c16.5898 0 30.6484 -10.8594 35.4453 -25.8633c-0.371094 0.0976562 -0.736328 0.191406 -1.09961 0.287109c1.89453 -2.92578 2.85938 -7.52734 2.85938 -11.6309c0 -9.7793 -3.77148 -18.6719 -9.94141 -25.3105
c-2.06055 -2.01953 -4.31836 -3.7168 -6.62695 -5.16406c0.125 -0.0703125 0.257812 -0.146484 0.388672 -0.222656c-5.98438 -4.10352 -13.2227 -6.50586 -21.0254 -6.50586v0zM333.713 771.081c-21.0488 0 -31.8574 -20.0273 -31.8574 -32.2656
c0 -7.91992 13.8457 -31.4395 31.2598 -31.4395c16.209 0 32.4492 13.252 32.4492 31.8574c0 17.3652 -14.4844 31.8477 -31.8516 31.8477zM232.615 568.88c-17.3672 0 -31.8496 -14.4785 -31.8496 -31.8457c0 -17.3652 14.4824 -31.8477 31.8496 -31.8477
c17.3652 0 31.8477 14.4824 31.8477 31.8477c0 17.3672 -14.4824 31.8457 -31.8477 31.8457zM194.949 362.714c-17.3652 0 -31.8457 -14.4805 -31.8457 -31.8477c0 -17.3652 14.4805 -31.8477 31.8457 -31.8477c17.3672 0 31.8477 14.4824 31.8477 31.8477
c0 17.3672 -14.4805 31.8477 -31.8477 31.8477zM194.949 289.86c-23.2734 0 -42.4922 19.2188 -42.4922 42.4922c0 16.3281 9.83398 28.1602 23.8262 33.7227c0.0117188 -0.0976562 0.0136719 -0.193359 0.0214844 -0.289062c16.209 3.85352 16.209 3.85352 19.375 3.85352
c7.27734 0 14.0664 -1.36523 19.9727 -3.94141c0.00976562 0.101562 0.015625 0.207031 0.0253906 0.310547c0.363281 -0.144531 0.730469 -0.291016 1.09766 -0.451172l-0.351562 -0.208984c12.6426 -5.82617 21.0156 -17.3438 21.0156 -32.9961
c0 -23.2734 -19.2148 -42.4922 -42.4902 -42.4922v0zM310.57 777.546c0.447266 0.488281 0.900391 0.978516 1.35352 1.4668l0.636719 -1.44336c-0.666016 0 -1.32812 -0.0234375 -1.99023 -0.0234375v0zM310.57 777.546
c-45.2285 -0.8125 -81.4512 -22.4062 -115.832 -22.4062c-21.0488 0 -20.8047 -5.06055 -44.2559 1.01953c1.14453 -3.57422 1.75977 -7.38672 1.75977 -11.3438c0 -11.7812 -4.25391 -19.7598 -9.94141 -25.3105c-1.87109 -2.01758 -3.96289 -3.82617 -6.23828 -5.38672
c9.7168 -5.55859 2.75195 -5.45898 13.7324 -7.23633c5.95117 -0.962891 12.0098 -1.38867 18.1055 -1.38867c44.5273 0 92.8789 22.9297 111.863 22.9297l12.5762 -0.728516c-1.26562 3.66797 -1.97852 7.7207 -1.97852 12.166
c0 2.00391 0.142578 3.97656 0.416016 5.91016c0.224609 1.93945 0.615234 3.78906 1.20508 5.63672c2.01758 6.28125 6.38672 12.4785 14.5957 21.7266c7.25977 5.75781 16.4023 9.21875 26.2754 9.21875c23.4121 0 43.3535 -18.5488 43.3535 -41.8535
c0 -16.25 -10.4258 -32.166 -24.2168 -39.0234l0.238281 0.482422c-10.0938 -3.68359 -10.0938 -3.68359 -10.334 -3.68359c-0.0605469 0 -0.0605469 0 -0.775391 0.0625c-12.7148 1.16602 -18.7227 1.76172 -32.7168 10.0449
c-0.0996094 -0.164062 -0.195312 -0.330078 -0.294922 -0.494141c-0.0351562 0.0253906 -0.0761719 0.0507812 -0.111328 0.078125c-0.0332031 -0.0507812 -0.0996094 -0.123047 -0.537109 -0.589844l-0.34375 0.169922l-0.0214844 -0.154297
c-0.144531 0.150391 -0.169922 0.177734 -0.316406 0.3125c0.279297 0.134766 0.365234 0.458984 0.402344 0.835938c-6.47461 4.6543 -12.0234 10.9648 -14.8398 19.1543c0.269531 -0.0175781 0.550781 -0.0332031 0.835938 -0.0507812
c-1.69141 4.54492 -2.63086 8.85352 -2.63086 13.6934c0 1.54297 0.0703125 3.01367 0.232422 4.43359c0.275391 1.91797 0.681641 3.80078 1.20508 5.63672c2.48438 8.66016 7.68555 16.2363 14.5957 21.7266c1.24219 1.39648 2.57227 2.86328 3.99219 4.41211v0z
M274.889 545.593c0.201172 -0.738281 0.396484 -1.49023 0.578125 -2.25781l-0.644531 0.0742188c0.1875 -1.60547 0.28125 -3.23438 0.28125 -4.89062c0 -17.1113 -10.3867 -32.0273 -25.1328 -38.7285c0.0253906 0.0605469 0.0546875 0.123047 0.0800781 0.183594
c-0.630859 -0.347656 -1.29492 -0.681641 -1.98438 -0.994141c-4.80469 -1.90039 -10.0137 -2.95117 -15.4512 -2.95117c-8.55664 0 -16.5645 2.5957 -23.2695 7.03711c-2.77734 2.11328 -5.46484 4.80859 -7.88867 8.24219
c-0.169922 -0.318359 -0.337891 -0.640625 -0.511719 -0.966797c-6.71484 7.52539 -10.8203 17.418 -10.8203 28.1777c0 23.2598 19.1895 42.4668 42.4395 42.4922c0.191406 0.0214844 0.388672 0.03125 0.601562 0.03125
c0.292969 0 0.607422 -0.0195312 0.935547 -0.0546875h-0.00585938c0.0136719 0 0.0273438 -0.00195313 0.0410156 -0.00195313c3.01562 -0.330078 7.50195 -2.04297 9.66016 -2.53906c14.9766 -3.44922 24.4238 -13.4141 29.5859 -28.0312
c0.521484 -1.75781 0.929688 -3.56055 1.21875 -5.4043zM274.889 545.593v0c-0.451172 1.6582 -0.957031 3.26758 -1.50586 4.82227c-5.07031 17.1152 -20.75 29.9023 -39.2461 30.5703c-0.0136719 0 -0.0234375 0.00195313 -0.0351562 0.00195313
c24.7051 42.2617 49.127 84.8066 74.0059 126.9c10.0449 -6.89258 22.0508 -9.93164 29.5137 -9.93164c4.99023 0 9.86133 1.27539 14.3691 3.51953zM237.074 471.272c0.0820312 0.1875 0.162109 0.373047 0.244141 0.558594l0.923828 -1.19922
c-0.0527344 -0.00585938 -0.111328 -0.0136719 -0.171875 -0.0136719c-0.214844 0 -0.783203 0.0703125 -0.996094 0.654297v0zM237.074 471.272v0c-9.29883 -21.5898 -18.0859 -68.0098 -21.3965 -105.264c-7.85547 3.13086 -14.998 3.63086 -19.998 3.63086
c-6.91797 0 -13.5254 -1.23047 -19.3965 -3.56445c-1.76172 26.0254 -3.04883 49.0078 -3.04883 57.3984c1.90039 5.91602 14.7344 61.748 27.7109 86.8672c2.4707 -2.77148 5.29688 -5.21875 8.40039 -7.27539c8.31836 -6.32422 17.4355 -7.41211 22.7109 -7.41211
c5.90625 0 11.5 1.27539 16.0098 3.32617c0.642578 0.257812 1.27734 0.523438 1.9043 0.810547c-4.54297 -10.0059 -12.9961 -23.8594 -12.9961 -27.8613c0 -0.255859 0.0332031 -0.474609 0.0996094 -0.65625zM307.963 707.989
c-0.207031 0.136719 -0.404297 0.279297 -0.605469 0.425781c-0.160156 -0.0957031 -0.25 -0.251953 -0.205078 -0.552734zM829.354 -28.4795h55.5146l17.1611 52.2256l17.1602 -52.2256h55.5156l-44.8672 -32.2959l17.1611 -52.2246l-44.9697 32.2959l-44.9707 -32.2959
l17.1611 52.2246zM2091.84 907.643zM653.986 432.693c-17.9541 2.09668 -59.0137 11.3232 -88.5996 51.8164c-12.7959 -6.62402 -27.3125 -14.8477 -50.5273 -29.002c-3.4707 10.4297 -3.53711 10.6318 -13.3789 23.8203c17.6143 9.86426 34.5264 19.1348 50.8848 27.377
c-7.44922 16.2461 -11.6055 34.3281 -11.6055 53.3584c0 26.3848 7.96387 50.6953 21.4268 70.8691c-12.209 10.9023 -24.6875 21.6191 -42.0625 36.25c8.4375 7.05078 8.46875 7.0957 16.9824 19.3164c15.7539 -11.9844 27.8096 -22.791 41.4092 -35.707
c19.5957 19.5127 45.293 32.667 73.4648 36.4141c-0.277344 16.7676 -0.382812 32.5605 0.276367 52.2852l25.6143 0.609375c-0.263672 -9.6084 -0.617188 -23.335 0.819336 -52.1963c18.3721 -1.44238 58.2832 -9.05859 89.2012 -46.583
c10.7656 7.41309 19.9141 12.7109 42.6348 25.8682c5.41797 -7.14844 7.33496 -9.84863 11.5342 -16.7383c2.9834 -4.89453 0.257812 -5.19141 -2.55762 -6.96875c-1.5459 -0.975586 -22.7158 -14.0293 -37.4014 -23.3682
c8.2207 -15.3711 26.8232 -59.3018 4.78027 -110.605c13.7949 -8.64453 26.3916 -17.9258 41.1182 -29.5088c-5.75391 -10.3037 -7.23242 -12.3809 -14.8193 -22.9297c-8.69238 6.17285 -20.5068 14.5771 -39.7939 28.5068
c-10.4492 -14.6133 -40.3369 -48.8408 -93.54 -53.3018c-0.43457 -13.5088 -0.476562 -31.4883 -0.194336 -56.4766c-9.40137 0 -9.95312 0 -27.7246 1.31641c0.449219 17.5752 1.1377 34.6602 2.05859 55.5781zM770.962 560.101c0 56.2539 -45.708 101.92 -101.96 101.92
c-56.2773 0 -101.963 -45.6865 -101.963 -101.961c0 -57.1641 47.0127 -101.928 101.493 -101.961c56.2852 0 102.188 45.709 102.43 102.002zM136.279 153.49c-18.8193 0 -23.1992 -1.60645 -47.4834 -1.60645c-0.466797 0 -0.847656 0 -1.19727 0.000976563
c-2.31641 0 -9.0918 0 -9.11133 -6.44141l-0.143555 -35.6162c14.9375 0.373047 32.0371 0.71582 50.8799 0.71582c121.515 0 315.508 -14.2812 469.567 -127.238c1.16211 -0.852539 83.0332 -58.418 117.378 -83.7158l25.5752 33.5293
c-28.8818 24.8379 -59.8643 37.4658 -98.3867 66.6895c-55.6406 42.2119 -138.773 88.3291 -217.851 106.841l-33.9287 7.94238l32.9795 11.2529c163.447 55.7698 240.347 116.373 305.028 178.316l12.4141 11.8398l-20.1631 24.832
c-41.5449 -42.5576 -197.409 -174.517 -352.12 -192.008c-0.402344 -2.21973 -2.85449 -2.38867 -4.74609 -3.11914c-7.10645 -2.42871 -16.6641 -3.11914 -28.5986 -3.11914c-52.333 0 -146.355 10.9043 -200.093 10.9043z" />
  </g>

</svg>
