<?xml version="1.0" standalone="no"?>
<!DOCTYPE svg PUBLIC "-//W3C//DTD SVG 1.1//EN" "http://www.w3.org/Graphics/SVG/1.1/DTD/svg11.dtd" >
<svg xmlns="http://www.w3.org/2000/svg" xmlns:xlink="http://www.w3.org/1999/xlink" version="1.1" viewBox="-10 0 998 1000">
  <g transform="matrix(1 0 0 -1 0 800)">
   <path fill="currentColor"
d="M30.3242 741.553h55.5146l17.1611 52.2256l17.1602 -52.2256h55.5156l-44.8672 -32.2959l17.1611 -52.2246l-44.9697 32.2959l-44.9707 -32.2959l17.1611 52.2246zM271 608l-12 60c128.725 89.7881 355.203 55.3633 442.457 48.5605
c0 -0.0107422 0.000976562 -0.0214844 0.000976562 -0.0322266c27.4463 0.582031 75.1855 -1.32129 107.268 -33.4033c40.1396 -40.1396 38.6152 -108.841 37.5254 -169.365c-0.395508 -21.9258 -0.433594 -33.2402 -0.22168 -41.9463
c26.3789 -43.8281 72.168 -89.959 89.3252 -129.607c6.95117 -16.0635 5.49219 -24.7637 2.64551 -40.2051l-12 -14l-79.501 -63.5771v-212.431c1.93945 -31.0869 1.82422 -79.2412 -27.416 -108.48c-26.0322 -26.0322 -182.507 -12.0195 -220.584 -13.0049
l-2.90137 0.0126953c-103.732 -7.2998 -296.108 50.6025 -326.603 92.1719c-18.5059 25.2275 -31.4014 41.2529 -57.9951 55.3086v70.0371c25.8174 -16.2627 49.624 -17.8066 70.1904 -60.6357c44.2188 -92.082 349.455 -105.734 451.309 -108.438l-0.499023 -0.962891
c50 12 34.1514 4.48145 42.5352 13.5361c19.1768 20.7119 3.97852 41.9688 5.50781 57.9648h-0.541992v2.14941c-0.253906 0.990234 -0.500977 1.94141 -0.738281 2.84863h0.738281v207.174v3.4873v1.33887h1.58203l104 88h1.13281
c4.9834 45.8955 -62.8379 92.1289 -94.2158 139.501l-3 4l-1 1c-2.02051 3.99219 0.0439453 4.02539 -2.08398 11.5605c-0.0371094 0.130859 -0.189453 0.24707 -0.174805 0.367188l0.258789 2.07227l0.0644531 1.49902
c0.00976562 0.226562 0.150391 3.89551 0.242188 6.24414c3.11426 79.1523 5.19727 173.389 -83.8154 173.771c-136.35 16.7461 -373.536 9.53418 -431.49 -46.5137zM624.653 429.652zM430.361 560.364zM394.078 493.567zM535.45 406.232zM535.194 398.121zM427.178 428.283
zM489.449 408.692zM659.31 508.67zM394.078 493.567zM659.31 508.67zM664.092 513.223c2.50586 -7.58887 4.11914 -15.8008 6.22656 -23.668l1.46777 -0.0234375c-1.11621 -23.5713 -1.53711 -32.4473 -39.8125 -62.6924
c-28.4805 -22.5049 -49.3311 -30.4316 -96.7275 -30.9658c-32.6016 -0.367188 -74.123 0.852539 -110.523 30.958c-14.3428 11.8633 -37.1113 34.8213 -36.8994 60.9014h-1.02051c1.11426 4.18066 1.11426 4.18066 1.2207 7.39062l0.74707 -0.0126953l3.19629 11.9854
h-1.40332c0.728516 0.989258 1.45703 1.97949 2.18555 2.96875v3.36816h2.47949l36.1963 49.1807h1.14844c12.5234 29.2842 60.501 43.3916 79.1357 20.708c2.64648 -1.18945 14.6465 -5.97754 27.2822 -1.37012c6.50879 8.71094 24.7959 17.1182 45.376 12.8506
c19.9043 -4.12695 39.9834 -22.6436 48.792 -31.6592h0.422852c0.30957 -0.457031 0.522461 -0.982422 0.913086 -1.38281l2.76758 -2.8877l26.4297 -45.1621c0.394531 0.0332031 0.706055 0.00878906 0.644531 -0.277344zM406.235 489.314
c-0.438477 -15.0303 1.22363 -32.9043 37.7256 -58.4551c30.9746 -21.6826 56.6396 -23.2393 91.875 -22.3672c41.0537 1.05762 58.1836 6.33398 82.9736 26.5908c32.9658 26.9385 38.4277 35.3809 34.4629 51.2051l-5.24121 20.9277l-0.192383 -0.34375
c0.0107422 1.2666 -0.835938 2.87695 -0.825195 4.14355l-29.415 46.3955c-0.789062 -0.03125 -0.15918 0.685547 -0.948242 0.655273c-18.208 12.0039 -20.1494 17.2051 -26.9502 21.2158c-10.4736 6.17578 -26.5762 4.93262 -36.8271 -2.06348
c-5.10254 -15.373 -36.7646 -17.8359 -51.3545 -3.97363c-1.35938 1.29199 -2.36328 0.573242 -2.23438 2.1582c-15.5947 10.7314 -44.8057 -0.0800781 -53.0605 -19.5215l-1.00098 -2.35742l-1.66895 0.641602l-32.168 -45.542zM634.329 336.666
c-0.199219 -9.76465 0.560547 -10.5322 0.15625 -20.7334c4.99121 0.723633 11.0059 0.0371094 17.3203 -3.76562c14.2334 8.83105 27.335 1.33301 31.3896 -2.88574c6.83789 -7.11426 12.4395 -23.8496 -3.36133 -39.2803
c-16.5479 -16.1592 -18.8242 -18.2783 -19.6123 -18.9736c-4.71582 -4.46973 -12.0967 -4.4541 -16.8145 0.114258l-13.166 12.751c-0.0166016 -0.227539 -1.57715 -21.085 0.129883 -22.792c0.683594 -0.683594 1.00586 -1.63574 1.07227 -2.4375
c5.25391 -56.4844 56.1553 -111.194 65.9521 -119.152c0.0244141 -0.00488281 1.09766 -0.31543 1.68652 -1.87598l3.7373 -2.08594l-18.0303 -12.0195c-2.19531 2.38379 -4.3916 4.76855 -6.58691 7.15234c-20.9775 22.709 -44.1553 47.9688 -62.7109 104.244
c-7.56445 -27.5137 -23.877 -55.3984 -38.8135 -74.3672c-12.7471 -16.1885 -11.8984 -20.625 -26.8799 -37.2705l-18.1445 14.3643c11.0342 14.3037 32.3057 43.4971 32.6377 43.9326c47.6201 62.5527 46.9463 146.512 46.6357 183.146
c5.64844 -0.125 11.2959 -0.25 16.9443 -0.374023c3.58398 -0.0771484 6.55859 -2.68848 6.45801 -7.69141zM665.796 295.838c-5.32324 0 -6.87695 -7.24219 -13.8848 -7.24219c-3.84277 0 -6.16895 2.32812 -7.25098 3.41113
c-5.13281 4.12988 -5.74316 4.45898 -9.27344 2.83984c-0.0185547 -0.0175781 -0.0380859 -0.0273438 -0.0595703 -0.0273438c-0.151367 -0.435547 -0.415039 -1.34375 -1.05762 -3.55273l-0.0595703 0.524414
c0.00878906 -0.141602 0.0263672 -0.317383 0.0595703 -0.524414c0.200195 -1.26758 0.969727 -3.67969 3.81934 -6.42773l13.8379 -13.3486l13.6953 13.1816c1.73047 1.73633 4.04883 4.35742 4.09375 7.42188c-0.078125 0.416992 -0.669922 1.90527 -1.02051 2.66016
l0.448242 -0.236328c-0.0703125 0.0527344 -0.231445 0.135742 -0.448242 0.236328c-0.803711 0.370117 -2.36914 0.980469 -2.89941 1.08398zM354 288l-225.793 0.751953v14.9004h202.446v84.6025h-202.446v14.8984l223.785 -1.25391z" />
  </g>

</svg>
