<?xml version="1.0" standalone="no"?>
<!DOCTYPE svg PUBLIC "-//W3C//DTD SVG 1.1//EN" "http://www.w3.org/Graphics/SVG/1.1/DTD/svg11.dtd" >
<svg xmlns="http://www.w3.org/2000/svg" xmlns:xlink="http://www.w3.org/1999/xlink" version="1.1" viewBox="-10 0 1050 1000">
  <g transform="matrix(1 0 0 -1 0 800)">
   <path fill="currentColor"
d="M523 -65.4975c-215.746 0 -390.498 171.225 -390.498 381.498c0 210.28 174.758 381.498 390.498 381.498c215.746 0 390.498 -171.225 390.498 -381.498c0 -210.28 -174.758 -381.498 -390.498 -381.498zM523 649.102c-190.127 0 -343.903 -148.252 -343.903 -331.302
c0 -183.045 153.772 -331.302 343.903 -331.302c190.126 0 343.903 148.252 343.903 331.302c0 183.046 -153.772 331.302 -343.903 331.302zM339.084 101.604c-10.4919 0 -19.6025 9.51357 -19.6025 25.2186c0 2.56931 0.630567 12.6461 10.2458 16.96
c20.3655 9.47773 38.3644 19.3949 55.6415 28.921c45.3603 25.0106 86.8006 47.849 149.483 47.849c68.3455 0 110.36 -26.5648 156.56 -55.7764c14.7645 -9.33533 30.1096 -19.0326 47.2097 -28.5637c2.60025 -1.37302 9.13969 -5.82959 9.13969 -15.927
c0 -13.8137 -11.0232 -26.1743 -22.2429 -26.1743c-4.43798 0 -6.68856 0 -50.9838 29.8942c-45.7564 30.8802 -80.498 53.5599 -138.461 53.5599c-57.7064 0 -92.5949 -19.8893 -141.04 -47.4384c-14.8815 -8.46263 -30.9261 -17.5897 -49.0371 -26.8557
c-2.31002 -1.18215 -4.66054 -1.66729 -6.91285 -1.66729zM357.2 418.4c-26.123 0 -44.8975 15.7949 -44.8975 34.0967c0 18.3018 18.7725 34.0986 44.8975 34.0986c26.1221 0 44.8975 -15.7949 44.8975 -34.0986c0 -18.3008 -18.7725 -34.0967 -44.8975 -34.0967zM674 422
c-24.9492 0 -43.0967 15.7881 -43.0967 34.0977c0 18.3115 18.1494 34.0977 43.0967 34.0977c24.9492 0 43.0977 -15.7871 43.0977 -34.0977c0 -18.3115 -18.1494 -34.0977 -43.0977 -34.0977z" />
  </g>

</svg>
