<?xml version="1.0" standalone="no"?>
<!DOCTYPE svg PUBLIC "-//W3C//DTD SVG 1.1//EN" "http://www.w3.org/Graphics/SVG/1.1/DTD/svg11.dtd" >
<svg xmlns="http://www.w3.org/2000/svg" xmlns:xlink="http://www.w3.org/1999/xlink" version="1.1" viewBox="-10 0 940 1000">
  <g transform="matrix(1 0 0 -1 0 800)">
   <path fill="currentColor"
d="M175.576 -150.928c-10.2461 0 -42.7705 0 -93.999 45.0742l-12.5059 -8.15039c8.2666 -6.2002 12.2568 -10.3711 19.8047 -16.0312c18.4648 -13.8496 50.6533 -33.1572 86.6377 -33.1572c29.5791 0 50.3203 9.6582 67.8955 22.8398
c21.8955 16.4209 32.9824 32.7422 59.4648 51.6377c12.4766 8.63184 39.335 18.3838 54.6719 18.3838c26.9346 0 46.2607 0 94.666 -36.0254c8.21777 -6.20703 12.1064 -10.2568 19.3076 -15.6572c20.4072 -15.3057 52.8203 -33.9863 89.4805 -33.9863
c29.4863 0 50.4062 9.76855 68.2715 23.168c22.4736 16.8545 33.9961 33.7109 61.1562 53.0215c0.948242 0.65332 53.7451 36.4941 115.003 6.14258c2.67383 -1.33691 29.585 -14.9902 54.0947 -34.1455l11.5693 8.67773
c-11.3291 8.66113 -32.0293 23.4551 -57.0195 35.8721c-1.0459 0.514648 -73.1123 33.5986 -125.075 -2.73633c-8.70508 -6.16895 -38.7832 -29.4482 -44.3047 -34.7266c-23.4619 -22.5205 -45.0205 -43.2148 -84.1113 -43.2148c-9.96094 0 -41.9668 0 -91.1484 41.6084
l0.105469 0.0820312c-2.25684 1.72363 -2.25684 1.72363 -5.32031 4.41992l-0.299805 -0.195312c-34.0547 25.1748 -99.501 72.8125 -176.945 14.7305c-25.5215 -19.1416 -35.0703 -33.3184 -54.9609 -48.2363c-15.1855 -11.3887 -32.4443 -19.3955 -56.4385 -19.3955z
M157.05 383.754zM715.541 24.5332l-463.401 3.37988l-182.762 297.887l418.622 15.2002v23l-362 -7l-1.27734 26.1787l1.6123 -0.0566406l4.66504 12.8779l361.371 323.839l-0.0136719 0.663086h26l0.642578 -389.502l345.329 -2.91992zM119.798 303.174l150.234 -247.885
c125.6 -0.209961 442.089 -0.740234 426.504 -0.713867c1.30273 2.24902 84.1631 150.786 115.913 232.587l5.26855 13.5742zM492.934 691.756l-342.183 -309.479l335.249 -0.277344z" />
  </g>

</svg>
