<?xml version="1.0" standalone="no"?>
<!DOCTYPE svg PUBLIC "-//W3C//DTD SVG 1.1//EN" "http://www.w3.org/Graphics/SVG/1.1/DTD/svg11.dtd" >
<svg xmlns="http://www.w3.org/2000/svg" xmlns:xlink="http://www.w3.org/1999/xlink" version="1.1" viewBox="-10 0 1051 1000">
  <g transform="matrix(1 0 0 -1 0 800)">
   <path fill="currentColor"
d="M828.399 483.872c0 9.49878 0.360099 25.4826 0.360099 28.905l-0.318652 61.3747l-8.69455 54.78l-24.0577 41.7601l-29.8355 19.1251l-33.9409 8.02542l-47.9505 1.85133v0.765382l-107.704 8.96128l-161.614 -4.8437l-135.511 -48.0118l4.97421 -24.8711
l90.1513 34.2037l168.519 13.9909l163.859 -8.05849l72.0585 -32.0852l24.6852 -76.5829c-11.2968 -92.7231 -11.5388 -94.7093 -10.6225 -98.1968c0.272553 -1.03738 0.408327 -1.98777 0.495372 -2.92219c0.487753 -0.641757 1.13403 -1.58506 1.4862 -2.05622
l30.4464 -40.7334l38.0432 -60.0682l23.93 -33.502l-96.7113 -80.2498l-3.19974 -219.288c0.962733 -7.56244 2.78458 -22.0112 5.01798 -45.877c-0.12894 -0.269919 -9.65147 -20.9678 -12.8349 -27.02c-1.80565 -3.43278 -3.36365 -6.39475 -8.94453 -11.1259
c-28.726 -6.87192 -37.6748 -9.01268 -53.7943 -9.01268c-3.38415 0 -6.77838 0.14333 -10.1737 0.446144l-127.95 -3.2205l-189.706 31.9736l-119.91 72.0259l-21.8729 31.5454c-0.18608 0.126152 -14.9542 10.3475 -18.5829 12.6523v-31.4635
c5.41685 -3.87145 13.5068 -7.36272 24.4398 -17.2503c7.32645 -6.62591 2.09556 -4.45645 10.6241 -11.9264c1.03002 -0.902171 1.03002 -0.902171 17.2005 -21.8062l70.2643 -41.1391l123.979 -35.7692l40.8353 -3.74581
c52.8258 -4.90757 59.0669 -6.73248 83.0467 -7.42728l68.08 -1.97257l89.7606 0.254271l51.1066 12.4914l15.1376 25.2075l6.27671 34.16l-0.268638 82.9487l0.0291888 84.2282l-0.00582149 87.5189l84.7837 67.8016l7.68593 8.96692l1.11464 7.19504
c0.44913 7.61262 -1.52476 12.8022 -3.31214 18.1783l-23.3304 38.8443l-33.0243 43.448l-34.3179 48.9016c-0.202711 16.1296 -0.202711 16.1296 -0.202711 17.6951zM33.2949 712.521h55.5146l17.1611 52.2256l17.1602 -52.2256h55.5156l-44.8672 -32.2959
l17.1611 -52.2246l-44.9697 32.2959l-44.9707 -32.2959l17.1611 52.2246zM697.039 264.987v-35.2363l-50.1592 14.4863l-0.000976562 -133.454s-14.3994 0 -14.3994 -0.000976563h-262.08v-1.43945h-32.6387v224.172l-44.4004 12.8223v35.2363zM620 144.862v107.138
l-249.601 72.0879v-179.226h249.601zM678.554 512.668c0 1.09082 -4.36523 37.165 -102.505 37.165c-15.8955 0 -27.418 -0.952148 -39.9336 -2.44141c-8.94336 13.0918 -26.5762 38.9043 -92.5039 38.9043c-15.9023 0 -63.7275 0 -89.4287 -36.04
c-15.75 1.57324 -25.9893 1.91992 -36.458 1.91992c-4.64258 0 -97.6836 -0.417969 -97.6836 -33.9258c0 -12.0547 9.3457 -40.6299 97.9531 -40.6299c16.8789 0 30.208 0.994141 43.7812 2.72852c8.45605 -9.04883 26.6416 -28.5068 83.6113 -28.5068
c20.4287 0 52.7568 0 80.9844 27.2246c17.2656 -2.82715 32.9346 -3.8252 50.0947 -3.8252c97.3975 0 102.07 36.3398 102.088 37.4268zM547.837 519.353c-0.00878906 0.125977 -3.63477 11.0605 -3.96582 12.0391c15.0303 1.44043 24.0283 2.02441 37.9805 2.02441
c22.3135 0 42.7441 -1.76758 52.4922 -6.6416c13.1357 -6.56836 16.0508 -9.5625 16.5654 -13.4727v-0.296875c0 -11.5283 -39.0928 -22.4629 -81.293 -22.4629c-8.32227 0 -13.7188 0 -31.7432 2.3877c9.36914 18.0137 9.80273 26.1904 9.96387 26.4229zM244.163 515.889
c0 19.3047 70.7383 20.0342 81.4346 20.0342c5.8252 0 8.95801 -0.0185547 21.292 -0.695312c-0.889648 -7.02344 -0.963867 -7.60742 -0.963867 -10.5703c0 -7.69434 1.69629 -15.2881 4.76172 -24.0508v-4.67285c-18.127 -2.58398 -28.0107 -2.94141 -38.1328 -2.94141
c-53.1768 0 -68.3916 16.9424 -68.3916 22.8965zM501.563 513.489c0 3.86914 0 3.86914 23.5811 12.502l-2.00391 -6.23828c-6.7627 -8.45117 1.22949 0.401367 -10.5859 -18.2549c-7.39062 4.91895 -10.9912 7.31641 -10.9912 11.9912zM421.154 515.068
c0 12.5234 -28.9531 26.9609 -29.2354 27.2432l-9.37793 4.09082l9.35254 4.14648c15.6475 6.93652 37.9385 10.6494 58.8867 10.6494c38.4277 0 47.9707 -9.19336 57.9629 -18.8203c-11.1143 -4.40723 -30.7021 -12.415 -30.7021 -26.5283
c0 -6.86816 11.9375 -21.9492 18.0996 -27.2969c-11.3105 -5.20898 -29.0127 -13.3604 -57.4609 -13.3604c-23.9131 0 -34.5498 5.30664 -48.3018 12.166c10.4834 5.39551 30.7793 15.8408 30.7793 27.5869c0 0.0810547 -0.00292969 0.123047 -0.00292969 0.123047z
M374.341 502.353c-1.51172 9.89062 -4.19238 8.66016 -4.19238 18.2568c0 2.46191 0 2.46387 1.23828 11.3457c18.0137 -9.01367 21.3828 -11.1299 22.123 -16.5498c0 -2.26367 -1.61914 -8.79004 -19.1689 -13.0527z" />
  </g>

</svg>
