<?xml version="1.0" standalone="no"?>
<!DOCTYPE svg PUBLIC "-//W3C//DTD SVG 1.1//EN" "http://www.w3.org/Graphics/SVG/1.1/DTD/svg11.dtd" >
<svg xmlns="http://www.w3.org/2000/svg" xmlns:xlink="http://www.w3.org/1999/xlink" version="1.1" viewBox="-10 0 1010 1000">
  <g transform="matrix(1 0 0 -1 0 800)">
   <path fill="currentColor"
d="M44.8232 745.879h55.5146l17.1611 52.2256l17.1602 -52.2256h55.5156l-44.8672 -32.2959l17.1611 -52.2246l-44.9697 32.2959l-44.9707 -32.2959l17.1611 52.2246zM285.499 612.326l-12 60c128.725 89.7881 355.203 55.3633 442.457 48.5605
c0 -0.0107422 0.000976562 -0.0214844 0.000976562 -0.0322266c27.4463 0.582031 75.1855 -1.32129 107.268 -33.4033c40.1396 -40.1396 38.6152 -108.841 37.5254 -169.365c-0.395508 -21.9258 -0.433594 -33.2402 -0.22168 -41.9463
c26.3789 -43.8281 72.168 -89.959 89.3252 -129.607c6.95117 -16.0635 5.49219 -24.7637 2.64551 -40.2051l-12 -14l-79.501 -63.5771v-212.431c1.93945 -31.0869 1.82422 -79.2412 -27.416 -108.48c-26.0322 -26.0322 -182.507 -12.0195 -220.584 -13.0049
l-2.90137 0.0126953c-103.732 -7.2998 -296.108 50.6025 -326.603 92.1719c-18.5059 25.2275 -31.4014 41.2529 -57.9951 55.3086v70.0371c25.8174 -16.2627 49.624 -17.8066 70.1904 -60.6357c44.2188 -92.082 349.455 -105.734 451.309 -108.438l-0.499023 -0.962891
c50 12 34.1514 4.48145 42.5352 13.5361c19.1768 20.7119 3.97852 41.9688 5.50781 57.9648h-0.541992v2.14941c-0.253906 0.990234 -0.500977 1.94141 -0.738281 2.84863h0.738281v207.174v3.4873v1.33887h1.58203l104 88h1.13281
c4.9834 45.8955 -62.8379 92.1289 -94.2158 139.501l-3 4l-1 1c-2.02051 3.99219 0.0439453 4.02539 -2.08398 11.5605c-0.0371094 0.130859 -0.189453 0.24707 -0.174805 0.367188l0.258789 2.07227l0.0644531 1.49902
c0.00976563 0.226562 0.150391 3.89551 0.242188 6.24414c3.11426 79.1523 5.19727 173.389 -83.8154 173.771c-136.35 16.7461 -373.536 9.53418 -431.49 -46.5137zM524.907 7.63867c-6.00781 0 -12.0938 2.60547 -16.0654 6.62695l-112.238 108.688
c-1.70996 1.4375 -3.97656 3.56641 -5.38965 5.05176c-2.58203 2.58203 -6.06836 6.79102 -10.7246 12.665c-4.10254 5.13281 -9.72656 13.2197 -13.1494 18.9219c-3.85059 6.6543 -8.36328 16.8789 -10.6553 24.1064c-2.53711 7.84863 -4.39941 19.6582 -4.39941 27.9326
c0 1.99902 -0.137695 3.90234 -0.137695 5.5459c0 21.3789 11.2168 49.5957 25.8877 65.1367c0.101562 0.106445 0.249023 0.25 0.330078 0.323242c15.9531 14.4844 44.6348 25.5576 66.1719 25.5576c1.33984 0 3.55859 -0.0566406 4.68945 -0.112305
c7.57812 -0.0380859 18.9482 -1.92969 26.2959 -4.41895c7.43164 -2.48438 17.7354 -7.4873 24.2764 -11.7842c6.90332 -4.52734 12.9395 -8.85059 18.125 -12.999c2.80859 -2.24707 5.79688 -4.82031 6.50195 -5.44629c3.33789 2.91602 4.05371 3.50195 6.41113 5.41797
c3.92285 3.18652 11.3799 8.43066 18.1182 13c6.60156 4.33789 16.9375 9.3457 24.2578 11.791c7.42188 2.66016 19.0605 4.76758 26.8848 4.88379c1.19043 0.0576172 3.3623 0.112305 4.7168 0.112305c21.5479 0 50.2256 -11.0801 66.1729 -25.5576
c0.0957031 -0.0869141 0.225586 -0.214844 0.292969 -0.285156c15 -15.6084 26.4727 -44.1113 26.4727 -65.75c0 -1.45117 -0.0556641 -3.52148 -0.132812 -5.01465c-0.0556641 -30.127 -15.5771 -60.0107 -44.6816 -89.1152l-111.93 -108.266
c-3.99121 -4.2207 -10.2676 -6.94336 -16.1016 -7.0127zM449.368 285.422c-1.18262 0.0634766 -3.03418 0.112305 -4.10547 0.112305c-15.7471 0 -39.4189 -9.53516 -50.8701 -19.6094c-10.7842 -11.9824 -19.1504 -33.8594 -19.1504 -48.8154
c0 -1.16797 0.0693359 -3.37109 0.143555 -4.53418c0.00585937 -0.0976562 0.0107422 -0.235352 0.0117188 -0.308594c0.0673828 -5.67773 1.81445 -15.8164 3.69824 -21.3018c1.74512 -5.50977 5.78418 -14.6562 8.59863 -19.5312
c2.63574 -4.53125 7.81738 -12.2246 10.9746 -16.3066c4.29297 -5.36523 7.62598 -9.17188 8.93555 -10.335c0.129883 -0.116211 0.302734 -0.287109 0.391602 -0.381836c0.921875 -0.982422 2.91309 -2.87402 3.94238 -3.74512
c0.0957031 -0.0810547 0.223633 -0.198242 0.290039 -0.262695l112.781 -108.783l112.296 108.081c25.5303 25.5303 37.7578 50.1914 37.7578 72.8291c0 0.110352 0.00488281 0.264648 0.00976563 0.34668c0.0615234 1.05859 0.119141 3.06152 0.119141 4.12402
c0 15.3818 -9.4707 38.2197 -19.54 49.2305c-12.5146 10.8887 -35.1396 19.3281 -50.5586 19.3281c-1.15137 0 -3.30566 -0.0634766 -4.4541 -0.130859c-0.0986328 -0.00585938 -0.237305 -0.00976562 -0.310547 -0.0107422
c-5.04785 -0.0361328 -14.3115 -1.60156 -19.1377 -3.24414c-5.2998 -1.74609 -14.333 -6.09473 -18.9512 -9.1084c-6.25293 -4.0957 -11.9199 -8.21094 -16.292 -11.6455c-3.49414 -2.91016 -9.49902 -8.50684 -12.8164 -11.9746l-3.93652 -3.93555
c-2.41016 -2.41113 -6.35938 -2.125 -8.48438 -0.000976562l-3.90039 3.90039c-3.24121 3.25684 -9.13379 8.55664 -12.7432 11.457c-4.42578 3.58203 -9.96777 7.50098 -16.2812 11.6377c-4.67676 3.0498 -13.5645 7.33301 -19.0371 9.13965
c-4.99023 1.8457 -14.2227 3.62305 -19.3809 3.7793zM493.606 460.576c29.9727 4.58789 55.9697 11.8857 80.7793 22.7744c35.6299 15.6387 67.0078 38.2891 95.375 69.2939c1.50293 1.64258 3.95703 2.21094 5.75977 1.80078l14.8184 -3.37598
c3.3623 -0.766602 5.42188 -4.3457 4.39453 -7.63867c-0.263672 -0.842773 -0.919922 -1.84668 -1.30664 -2.26855c-32.6074 -35.5361 -69.6895 -61.9355 -112.05 -79.4902c-13.1816 -5.46289 -28.7148 -10.5752 -41.751 -14.0117
c7.45605 -2.01953 13.1963 -3.72266 20.0352 -5.89941c51.8574 -16.5078 104.617 -42.4434 131.837 -66.8789c2.56641 -2.30371 2.62695 -6.43262 0.128906 -8.81055c-0.589844 -0.561523 -1.88086 -1.21777 -2.07422 -1.28906l-14.9814 -5.4834
c-2.09961 -0.767578 -4.54297 -0.146484 -5.97559 1.08691c-24.2207 20.8379 -52.7451 37.8818 -85.9717 51.1182c-60.5547 24.123 -136.765 35.5596 -230.412 33.9375c-3.50391 -0.0605469 -6.22656 3.0293 -6.09863 6.23828l0.349609 8.75879
c0.449219 10.8672 24.8965 5.96973 24.8965 5.96973c34.4248 0 115.984 -5.41406 122.247 -5.83203zM243.532 -154.656z" />
  </g>

</svg>
