<?xml version="1.0" standalone="no"?>
<!DOCTYPE svg PUBLIC "-//W3C//DTD SVG 1.1//EN" "http://www.w3.org/Graphics/SVG/1.1/DTD/svg11.dtd" >
<svg xmlns="http://www.w3.org/2000/svg" xmlns:xlink="http://www.w3.org/1999/xlink" version="1.1" viewBox="-10 0 3204 1000">
  <g transform="matrix(1 0 0 -1 0 800)">
   <path fill="currentColor"
d="M510.917 349.928c8.97363 5.8916 22.4014 11.9248 39.7363 11.9248c19.5039 0 40.6279 -11.6992 47.0586 -18.1299c9.34863 -9.34961 19.0859 -29.7285 19.0859 -47.2246v-0.135742c0 -11.4189 -0.339844 -35.9307 -32.0049 -66.8496
c-73.9668 -72.2256 -79.6016 -77.1006 -80.4541 -77.8379c-3.94238 -3.4082 -7.84082 -4.71484 -11.2832 -4.71484c-5.99219 0 -9.9248 3.72656 -10.832 4.60742c-81.2061 78.6377 -81.2061 78.6377 -81.9414 79.373c-2.70605 2.70703 -10.6201 10.6201 -11.7861 14.1201
c-5.76172 7.69141 -6.89941 9.25586 -7.73145 10.6943c-2.69922 4.66406 -5.94531 12.0059 -7.5752 17.1445c-1.47754 4.57227 -3.2334 12.3965 -3.2334 23.8691c0 19.2422 11.6924 39.6523 18.0508 46.0107c8.47363 8.47266 29.7227 18.7549 47.6992 18.7549
c12.8643 0 30.5127 -1.70996 57.2891 -25.1152c6.93164 6.04883 10.9951 8.8125 17.8926 13.4883l2.68262 -4.07031s0.105469 0.0712891 0.116211 0.078125c-0.926758 1.33398 -1.87402 2.64746 -2.76953 4.0127zM493.768 163.263l-0.0585938 -0.0615234
s0.0224609 0.0224609 0.0585938 0.0615234zM493.438 163.127c1.09473 0.459961 76.1084 72.9219 82.4434 79.2568c23.1689 23.168 25.6641 41.8398 25.6641 50.9961c0 0.00390625 0.00195312 0.0458984 0.00585938 0.118164
c0.0175781 0.453125 0.0869141 2.09863 0.0869141 3.1416c0 11.0352 -6.56738 27.5635 -14.168 35.6699l0.0810547 -0.0722656c-0.0263672 0.0244141 -0.0537109 0.0478516 -0.0810547 0.0722656c-8.82129 7.80762 -25.7246 14.0098 -36.6152 14.0098
c-2.15137 0 -10.6367 -0.185547 -17.2812 -2.44824c-15.7168 -5.17969 -30.7803 -19.6572 -33.0107 -21.8877c-4.52539 -4.52539 -4.99707 -5.62891 -7.12598 -5.64746l-0.00390625 -0.000976562h0.0322266c-0.0185547 0 -0.0332031 -0.000976563 -0.0458984 -0.000976563
c-0.0429688 -0.00195312 -0.109375 -0.00585938 -0.201172 -0.00585938c-1.97461 0 -2.52148 1.11816 -4.49219 3.08887c-12.1074 12.1064 -25.209 20.6719 -35.4277 24.0439c-6.30176 2.08105 -11.6367 2.84082 -17.0693 2.84082
c-13.4785 0 -31.2998 -8.66406 -37.0205 -14.3857c-4.39453 -4.39453 -9.05078 -18.96 -12.1133 -30.0186c-0.624023 -2.25293 -1.13281 -4.10645 -1.59375 -5.48438v-0.0625c0.0498047 -9.25977 2.10449 -20.7012 9.00684 -32.6572
c0.973633 -1.67383 8.27246 -12.9756 16.5479 -21.25c0.806641 -0.807617 71.6572 -68.3613 82.1562 -79.208c0.0341797 -0.0166016 0.106445 -0.0517578 0.225586 -0.108398zM477.966 425.519c28.4268 1.59961 109.398 -11.9082 113.648 -3.96191
c83.8721 7.80176 131.409 70.3398 128.386 70.4434l9.17285 -13.7598c-33.7656 -30.957 -36.3545 -46.835 -127.849 -73.1553c40.2852 -5.86035 85.4086 -31.024 114.123 -53.6348c17.4717 -13.7578 -12.1025 12.0684 1.00098 0.274414l-12.4482 -15.7246
c-22.9316 17.6904 5.83866 -4.10379 -9.51953 7.58789c-78.417 59.6963 -181.373 62.1934 -235.917 61.7305c0.121094 5.55566 0.244141 11.1104 0.367188 16.665c0.0664062 3.12598 3.10547 3.25293 4.40234 3.30664
c0.146484 0.00683594 6.97168 -0.203125 14.6328 0.228516zM809 627c0 -96.6865 78.0879 -230.199 109.375 -248.775l11.1992 -6.64941c-16.9434 -0.478516 1.18945 0.900391 -34.5742 -3.5752l-1.0752 1.36426c-22.0068 27.9238 -104.004 167.01 -116.903 264.233
c-0.657227 4.95117 0.0224609 9.79688 0.582031 18.2783c-1.38379 0.708984 -2.88672 1.4873 -4.52246 2.34082c-0.0283203 -1.83984 -0.322266 -3.81641 -0.0449219 -5.88867c33.3789 -249.661 107.546 -273.742 107.546 -273.742s6.91211 -4.29004 10.2793 -6.58594
h-32.8613c-44.1455 16.1279 -111.697 208.17 -111.697 279.331c0 8.73535 0.302734 15.3135 0.785156 20.6846c-60.6641 32.3369 -123.179 64.7012 -226.885 64.7012c-23.0527 0 -45.5234 -2.04883 -73.3945 -6.17773
c-32.3232 -4.78906 -32.3232 -4.78906 -70.6152 -21.2002c-18.916 -8.10645 -50.2139 -47.4062 -58.166 -66.7188c-7.02734 -17.0664 -9.0791 -30.2676 -9.0791 -45.8906c0 -22.332 3.62891 -44.376 3.62891 -77.1553c0 -8.99219 1.14648 -13.8564 1.14648 -20.1924
c0 -4.57031 -0.613281 -9.64551 -2.73242 -16.6025c-19.9492 -65.4795 -40.3174 -87.0479 -63.832 -110.183c-6.25977 -6.16016 -27.0508 -26.6172 -27.0508 -37.7881c0 -4.45605 0.882812 -6.9082 38.3447 -19.4531c55.9199 -18.7266 60.0254 -24.4102 60.0254 -90.9766
c0 -43.0117 -4.74121 -62.7734 -4.74121 -104.492c0 -5.5 0.0820312 -11.3867 0.267578 -17.7666c0.50293 -17.292 16.4512 -45.3398 23.8975 -57.5352c1.19629 -0.303711 1.95996 -1.18164 1.95996 -1.18164c1.1543 -0.666992 2.48438 -1.60059 4.13477 -2.74414
c16.0508 -11.1162 22.0049 -13.1846 40.8428 -13.1846c24.0361 0 22.3457 4.21484 79.0615 4.21484c0.316406 0 6.94531 -0.00390625 7.01562 -0.00390625c14.7988 0 25.668 0.226562 52.1025 3.80078c20.2021 2.73242 38.8271 4.61523 56.5088 6.4043
c120.938 12.2334 143.711 24.1475 222.178 80.1953c2.23438 1.5957 5.14355 3.85352 8.45703 6.42773c12.6104 9.7959 33.0303 26.8994 48.1416 26.8994c8.16699 0 13.834 -4.95996 13.834 -14.165c0 -15.4473 -17.4082 -42.8486 -33.0938 -42.8486
c-1.16406 0 -1.56543 0.129883 -3.01758 0.129883c-22.6426 0 -44.3604 -36.5264 -79.4766 -51.29c-52.8857 -22.2344 -80.2979 -27.1279 -117.459 -33.71c-17.2549 -3.05664 -36.6504 -6.49316 -61.8809 -12.2393c-34.7246 -7.90918 -51.6299 -8.61133 -86.7539 -8.61133
c-0.251953 0 -22.7891 0.03125 -25.0811 0.03125c-11.3115 0 -32.6182 -0.123047 -32.9473 -0.123047c-40.7773 0 -82.5049 2.86621 -120.91 24.8125c-26.0957 14.9121 -27.9092 36.1035 -30.0449 61.0586c-0.477539 5.59082 -0.976562 11.3994 -1.75781 17.3906
c-1.96484 15.7158 -2.63672 29.7119 -2.63672 42.8916c0 28.6572 3.1748 53.4248 3.1748 84.1699c0 46.4277 -4.59863 49 -29.7539 58.8145c-27.3184 10.6582 -57.2148 13.2568 -70.834 26.876c-4.33008 4.33008 -6.66504 9.68945 -6.66504 16.1094
c0 4.7959 1.30371 10.1846 4.05176 16.1768c36.4951 79.5967 68.6367 70.0742 91.3711 139.761c5.20312 15.9443 6.93652 32.2529 6.93652 48.6797c0 32.5635 -6.77832 65.1611 -6.77832 95.8125c0 47.6494 17.2412 68.3838 35.0508 86.1934
c66.2422 66.2412 143.674 66.3555 238.901 66.3555h0.988281c82.8154 0 132.135 -23.3467 188.021 -49.8477c43.5547 -20.6533 21.8506 -15.7109 32.4561 -16.8408c11.3984 -1.2168 39 -13 47.5039 -30.4053c4.31641 -8.83496 -4.12305 -21.668 -4.50391 -29.5947
c-0.257812 -5.36523 2 -14.3428 2 -20zM65.3545 743.521h55.5146l17.1611 52.2256l17.1602 -52.2256h55.5156l-44.8672 -32.2959l17.1611 -52.2246l-44.9697 32.2959l-44.9707 -32.2959l17.1611 52.2246zM2200.36 704.285l37.1855 54.043
c2.29785 3.33887 7.27148 3.3457 9.66016 0.306641l45.2246 -57.542c2.13184 -2.71191 1.47949 -6.78906 -1.39062 -8.70117c-0.647461 -0.431641 -1.41797 -0.742188 -2.13965 -0.887695l-7.70508 -1.55469c-2.23438 -0.451172 -4.58496 0.49707 -5.90234 2.17188
l-24.293 30.8789l1.17383 -123.924c0.0322266 -3.49219 -3.05469 -6.2207 -6.31641 -6.04883l-7.37012 0.388672c-3.27148 0.172852 -5.69727 3.08789 -5.68359 6.02051l0.578125 122.084l-19.7871 -28.7061c-1.95801 -2.83984 -6.0459 -3.42676 -8.72266 -1.25293
c-0.408203 0.332031 -1.05176 1.10156 -1.09082 1.15723l-3.35059 4.66504c-1.54883 2.15625 -1.26855 5.16016 -0.0703125 6.90137zM3058.1 627.646c0 -121.509 76.9482 -217.664 112.307 -241.01l12.6562 -8.35645c-19.1475 -0.601562 1.34473 1.13184 -39.0732 -4.49316
l-1.21484 1.71484c-24.8701 35.0928 -106.23 138.254 -120.814 260.437c-0.743164 6.22168 0.0253906 12.3115 0.657227 22.9707c-1.56348 0.890625 -3.26172 1.86914 -5.11035 2.94141c-0.0322266 -2.31152 -0.364258 -4.7959 -0.0507812 -7.40039
c37.7227 -313.757 110.239 -272.387 110.239 -272.387s7.81152 -5.39062 11.6172 -8.27637h-37.1377c-49.8906 20.2686 -114.932 189.979 -114.932 279.41c0 10.9775 0.342773 19.2451 0.887695 25.9951c-68.5586 40.6387 -204.756 81.3115 -321.957 81.3115
c-26.0527 0 -51.4473 -2.57422 -82.9453 -7.76367c-36.5293 -6.01855 -36.5293 -6.01855 -79.8037 -26.6426c-21.3779 -10.1875 -56.749 -59.5771 -65.7354 -83.8477c-7.94238 -21.4482 -10.2607 -38.0381 -10.2607 -57.6719c0 -28.0654 4.10059 -55.7686 4.10059 -96.9639
c0 -11.3008 1.2959 -17.4131 1.2959 -25.376c0 -5.74414 -0.692383 -12.1221 -3.08789 -20.8652c-22.5449 -82.29 -45.5635 -109.396 -72.1387 -138.47c-7.07422 -7.74121 -30.5703 -33.4502 -30.5703 -47.4893c0 -5.60059 0.99707 -8.68164 43.334 -24.4473
c63.1973 -23.5342 67.8369 -30.6768 67.8369 -114.333c0 -54.0547 3.06055 -138.256 3.06055 -190.686c0 -6.91211 0.0927734 -14.3096 0.301758 -22.3281c0.568359 -21.7314 18.5928 -56.9795 27.0078 -72.3057c1.35156 -0.381836 2.21484 -1.48535 2.21484 -1.48535
c1.30469 -0.837891 2.80762 -2.01172 4.67285 -3.44824c18.1396 -13.9707 24.8682 -16.5693 46.1572 -16.5693c27.1641 0 25.2539 5.29688 89.3506 5.29688c0.357422 0 7.84863 -0.00488281 7.92773 -0.00488281c16.7246 0 29.0088 0.28418 58.8828 4.77637
c22.8311 3.43359 43.8799 5.80078 63.8623 8.04785c136.677 15.375 227.96 30.3477 316.638 100.784c2.52441 2.00586 5.8125 4.84277 9.55762 8.07812c14.251 12.3105 37.3281 33.8057 54.4062 33.8057c9.22949 0 15.6338 -6.2334 15.6338 -17.8018
c0 -19.4131 -19.6738 -53.8496 -37.4004 -53.8496c-1.31543 0 -1.76855 0.163086 -3.41016 0.163086c-25.5889 0 -50.1328 -45.9033 -89.8184 -64.457c-59.7686 -27.9434 -156.295 -34.0918 -198.292 -42.3643c-19.5 -3.8418 -41.4199 -8.16016 -69.9336 -15.3818
c-39.2432 -9.93945 -58.3477 -10.8223 -98.043 -10.8223c-0.28418 0 -25.7549 0.0390625 -28.3447 0.0390625c-12.7832 0 -36.8623 -0.154297 -37.2344 -0.154297c-46.084 0 -93.2412 3.60156 -136.645 31.1826c-29.4912 18.7402 -31.541 45.3721 -33.9551 76.7344
c-0.539062 7.02637 -1.10352 14.3262 -1.98633 21.8555c-2.2207 19.75 -2.97949 37.3398 -2.97949 53.9023c0 36.0146 -4.83105 126.508 -4.83105 165.146c0 58.3467 -5.19727 61.5791 -33.626 73.9141c-30.873 13.3945 -64.6602 16.6602 -80.0508 33.7754
c-4.89355 5.44141 -7.5332 12.1768 -7.5332 20.2451c0 6.02734 1.47363 12.7998 4.5791 20.3301c41.2441 100.031 77.5684 88.0645 103.262 175.642c5.87988 20.0371 7.83887 40.5332 7.83887 61.1768c0 40.9238 -7.66016 81.8906 -7.66016 120.411
c0 59.8818 19.4844 85.9395 39.6123 108.321c74.8623 83.2471 162.37 83.3906 269.989 83.3906h1.11719c93.5918 0 214.877 -29.3398 278.036 -62.6445c49.2227 -25.9561 24.6934 -19.7441 36.6797 -21.165c12.8818 -1.52832 44.0752 -16.3369 53.6855 -38.2109
c4.87793 -11.1025 -4.66016 -27.2305 -5.08984 -37.1924c-0.291992 -6.74219 2.25977 -18.0254 2.25977 -25.1348zM2670.69 217.713c6.85156 5.46875 17.1035 11.0684 30.3398 11.0684c14.8926 0 31.0205 -10.8584 35.9307 -16.8271
c7.1377 -8.67773 14.5732 -27.5938 14.5732 -43.833v-0.125977c0 -10.5977 -0.259766 -33.3486 -24.4365 -62.0469c-56.4766 -67.0371 -60.7793 -71.5615 -61.4307 -72.2461c-3.00977 -3.16406 -5.98633 -4.37598 -8.61426 -4.37598
c-4.57617 0 -7.57812 3.45898 -8.27148 4.27637c-62.0039 72.9883 -62.0039 72.9883 -62.5654 73.6709c-2.06543 2.51172 -8.1084 9.85742 -8.99902 13.1055c-4.39941 7.13867 -5.26758 8.5918 -5.90332 9.92578c-2.06055 4.33008 -4.53906 11.1445 -5.7832 15.9131
c-1.12891 4.24414 -2.46875 11.5068 -2.46875 22.1543c0 17.8604 8.92676 36.8047 13.7822 42.7061c6.46973 7.86426 22.6943 17.4072 36.4199 17.4072c9.82227 0 23.2979 -1.58594 43.7422 -23.3105c5.29199 5.61426 8.39551 8.17969 13.6621 12.5195l2.04785 -3.77832
c0 0.000976562 0.0800781 0.0664062 0.0888672 0.0732422c-0.708008 1.23828 -1.43066 2.45703 -2.11426 3.72363zM2657.59 44.457l-0.0439453 -0.0566406s0.0166016 0.0205078 0.0439453 0.0566406zM2657.34 44.3311c0.835938 0.427734 58.1113 67.6836 62.9492 73.5635
c17.6895 21.5039 19.5957 38.835 19.5957 47.333c0 0.00390625 0.000976562 0.0429688 0.00390625 0.109375c0.0136719 0.420898 0.0664062 1.94824 0.0664062 2.91602c0 10.2432 -5.01465 25.583 -10.8184 33.1074l0.0625 -0.0673828
c-0.0205078 0.0234375 -0.0410156 0.0449219 -0.0625 0.0673828c-6.73535 7.24707 -19.6406 13.0039 -27.9561 13.0039c-1.64355 0 -8.12207 -0.171875 -13.1953 -2.27246c-12.001 -4.80762 -23.502 -18.2461 -25.2051 -20.3154
c-3.45508 -4.2002 -3.81543 -5.22461 -5.44141 -5.24219h-0.00292969h0.0244141c-0.0136719 0 -0.0253906 -0.000976562 -0.0341797 -0.000976562c-0.0332031 -0.00292969 -0.0839844 -0.00585938 -0.154297 -0.00585938c-1.50781 0 -1.9248 1.03809 -3.42969 2.86621
c-9.24512 11.2373 -19.248 19.1875 -27.0498 22.3174c-4.8125 1.93164 -8.88574 2.63672 -13.0342 2.63672c-10.291 0 -23.8984 -8.04199 -28.2656 -13.3516c-3.35547 -4.0791 -6.91113 -17.5986 -9.24902 -27.8623c-0.476562 -2.0918 -0.865234 -3.8125 -1.21777 -5.09082
v-0.0585938c0.0380859 -8.59473 1.60742 -19.2139 6.87793 -30.3105c0.743164 -1.55371 6.31641 -12.0439 12.6348 -19.7246c0.616211 -0.749023 54.7129 -63.4502 62.7295 -73.5166c0.0253906 -0.015625 0.0810547 -0.0488281 0.171875 -0.101562zM2645.53 287.874
c21.7051 1.48535 83.5303 -11.0527 86.7754 -3.67773c64.04 7.24121 123.874 82.6113 121.565 82.7061l7.00391 -12.7705c-25.7812 -28.7324 -51.2959 -60.7939 -121.156 -85.2236c30.7607 -5.43945 65.2129 -28.7949 87.1377 -49.7822
c13.3408 -12.7686 24.0127 -18.2441 34.0186 -29.1904l-9.50488 -14.5947c-17.5098 16.4189 -28.7959 25.6357 -40.5225 36.4883c-59.874 55.4082 -138.485 57.7256 -180.132 57.2959c0.0927734 5.15625 0.186523 10.3115 0.280273 15.4678
c0.0517578 2.90137 2.37109 3.01953 3.36133 3.06934c0.112305 0.00585938 5.32324 -0.188477 11.1729 0.211914z" />
  </g>

</svg>
