<?xml version="1.0" standalone="no"?>
<!DOCTYPE svg PUBLIC "-//W3C//DTD SVG 1.1//EN" "http://www.w3.org/Graphics/SVG/1.1/DTD/svg11.dtd" >
<svg xmlns="http://www.w3.org/2000/svg" xmlns:xlink="http://www.w3.org/1999/xlink" version="1.1" viewBox="-10 0 1510 1000">
  <g transform="matrix(1 0 0 -1 0 800)">
   <path fill="currentColor"
d="M548.528 628.993c-2.27441 0 -4.49707 1.03418 -5.94922 2.91406l-86.3955 111.837l-87.9561 -109.98c-1.4541 -1.81836 -3.63867 -2.81445 -5.87109 -2.81445c-0.97168 0 -1.95215 0.188477 -2.88574 0.579102l-127.051 53.2578l69.21 -174.786h322.37l54.749 173.721
l-127.3 -54.1318c-0.944336 -0.402344 -1.9375 -0.595703 -2.9209 -0.595703zM625.392 634.388c4.10254 0 7.49707 -3.33301 7.49707 -7.51172c0 -1.16211 0 -1.16211 -28.4736 -90.7705c-0.983398 -3.09473 -3.88477 -5.21289 -7.16406 -5.21289l-272.073 0.969727
c-2.96191 0.0107422 -5.66113 1.78223 -6.8418 4.49316l-40.4551 92.8418c-2.70801 6.21582 3.69043 12.5898 9.89355 9.86523l82.6729 -36.3154c81.8369 95.8701 81.8369 95.8701 82.1152 96.1367c1.45312 1.38867 3.32031 2.07812 5.18555 2.07812
c1.06445 0 3.88184 -0.268555 5.93066 -2.90039l77.9639 -100.186c82.1484 36.5117 82.1484 36.5117 83.749 36.5117zM1096.09 499.938c-1.75684 0 -7.46191 0.464844 -10.8076 6.21191l-78.1377 134.22l-25.7568 -10.8818l114.615 -207.488l112.546 207.625
l-30.2959 12.2686c-9.85547 -18.7549 -18.7373 -35.6689 -26.625 -50.6914c-45.2334 -86.1406 -45.2334 -86.1406 -46.6992 -87.6064c-2.43555 -2.43555 -5.63379 -3.65723 -8.83887 -3.65723zM1434.93 286.971l-2.10645 25.9932l-700.447 -5.80176l1 -25.0166z
M948.198 167.375c0 26.3785 5.85585 42.8193 5.85585 89.4595c0 4.15402 -0.0462817 8.55352 -0.147244 13.2283c0 0 -0.00117434 0.0722353 -0.00117434 0.108764c0 0.563659 0.0316978 1.06185 0.0663924 1.44103c-0.478672 1.43785 -1.92262 4.51534 -5.52845 4.59164
l-17.852 0.393995c0.00785601 -1.82754 0.0125591 -3.68888 0.0125591 -5.58222c0 -57.0425 -4.12155 -143.364 -55.9951 -211.504c-8.78403 -12.0761 -21.9368 -30.0558 -37.5272 -50.5157l18.1834 -14.3949c18.2038 20.7709 14.2074 21.9615 30.501 42.6535
c26.8385 34.0878 35.6367 61.9987 39.4163 65.7784c2.26699 2.26699 5.39434 3.6598 8.83995 3.6598c1.30653 0 8.51021 -0.34133 11.5534 -7.72234c19.6369 -47.6275 38.4134 -68.7278 71.0097 -104.232c13.1715 8.75045 13.1715 8.75045 16.4278 11.1694
c-2.48685 2.33992 -8.77845 8.23056 -8.8858 8.33791c-17.4212 17.4212 -67.8638 76.0981 -73.6383 138.188c-0.861904 9.26124 -2.29102 1.66726 -2.29102 14.5478c0 0.130211 2.0514e-05 0.261398 2.0514e-05 0.393583zM1284.2 171.375
c0 26.3785 5.85585 42.8193 5.85585 89.4595c0 4.15402 -0.0462818 8.55352 -0.147244 13.2283c0 0 -0.00117434 0.0722353 -0.00117434 0.108764c0 0.563659 0.0316978 1.06185 0.0663924 1.44103c-0.478672 1.43785 -1.92262 4.51534 -5.52845 4.59164l-17.852 0.393995
c0.00785601 -1.82754 0.0125591 -3.68888 0.0125591 -5.58222c0 -57.0425 -4.12155 -143.364 -55.9951 -211.504c-8.78404 -12.0761 -21.9368 -30.0558 -37.5272 -50.5157l18.1834 -14.3949c18.2038 20.7709 14.2074 21.9615 30.501 42.6535
c26.8385 34.0878 35.6367 61.9987 39.4163 65.7784c2.26699 2.26699 5.39434 3.6598 8.83995 3.6598c1.30653 0 8.51021 -0.34133 11.5534 -7.72234c19.6392 -47.633 38.4178 -68.7328 71.0211 -104.245l12.1952 8.13114c1.11314 1.75051 1.85791 2.93414 2.76529 4.01341
c-3.07283 3.38678 -7.41535 7.36803 -7.49001 7.44269c-17.6419 17.6419 -67.8215 76.2218 -73.5782 138.12c-0.861904 9.26124 -2.29102 1.66726 -2.29102 14.5478c0 0.130211 2.052e-05 0.261398 2.052e-05 0.393583zM29.8877 740.158h55.5146l17.1611 52.2256
l17.1602 -52.2256h55.5156l-44.8672 -32.2959l17.1611 -52.2246l-44.9697 32.2959l-44.9707 -32.2959l17.1611 52.2246zM266.248 376.152c42.5752 33.3652 160.894 36.2471 202.251 36.2471c36.5908 0 72.1289 -2.03516 101.342 -5.62305
c1.04688 -0.12793 3.28516 -0.65625 4.97852 -2.81348c51.5635 -7.7041 55.1318 -63.2529 55.1318 -96.5264c0 -0.379883 -0.539062 -32.6084 -1.12109 -37.9727c0.529297 -2.24121 0.691406 -4.14062 0.731445 -5.29883
c2.14844 -2.86523 2.14844 -2.86523 2.27051 -3.04883c21.79 -32.8955 67.3838 -62.7363 67.3838 -98.1592c0 -3.64844 0 -8.90723 -5.24902 -10.7197l-69.6416 -58.9336c0 -47.9922 0.00292969 -95.9834 0.00292969 -143.976
c0 -0.320312 -0.0205078 -0.641602 -0.0625 -0.964844c0.28418 -0.791992 0.439453 -1.64258 0.439453 -2.52734c0 -0.645508 -0.0693359 -0.772461 -0.0693359 -1.52246c0 -5.26172 2.9873 -12.9434 2.9873 -21.7559c0 -7.0459 -1.87598 -14.9531 -8.7666 -22.3945
c-1.70898 -1.84668 -0.938477 -1.80762 -2.70215 -3.57129c-3.24805 -3.24805 -5.73535 -2.76074 -7.82031 -3.14355c-4.98633 -0.914062 -24.4883 -5.16504 -24.7402 -5.16504c-0.981445 0 -2.14941 0.193359 -3.31934 0.768555
c-120.575 3.41113 -289.818 19.2354 -319.025 80.0586c-9.75684 20.3184 -19.1621 25.0605 -34.875 32.9834v-31.8936c17.7012 -10.2725 27.1211 -22.3066 39.1504 -38.7061c17.1885 -23.4316 133.731 -61.8848 209.53 -61.8848
c7.63965 0 12.4658 0.432617 13.0713 0.432617c0.639648 0 1.28027 -0.00878906 1.91992 -0.00878906c1.0127 0.0253906 2.11426 0.0361328 3.2998 0.0361328c0.791016 0 62.4561 -2.05859 79.167 -2.05859c17.5576 0 58.665 0.87793 66.7168 8.93066
c14.2158 14.2139 17.4482 37.1846 17.4482 56.9092c0 6.81445 -0.452148 13.585 -0.452148 13.7227v148.696c0 2.27539 1.04199 4.44629 2.82031 5.86816l55.0947 44.0596l6.62793 7.73242c0.764648 4.13867 1.28613 7.10547 1.28613 9.91992
c0 22.4043 -44.2285 67.0664 -65.083 101.716c-1.16406 1.93457 -1.16406 3.06543 -1.16406 12.2002c0 5.17676 0.0771484 11.8125 0.246094 21.1807l0.015625 0.883789c0.114258 6.3584 0.211914 12.7617 0.211914 19.1377c0 63.1045 -9.75098 114.33 -89.5254 114.33
c-1.52539 0 -2.99512 -0.0185547 -4.56152 -0.0498047c-1.29883 0 -76.29 8.37402 -129.637 8.37402c-59.9736 0 -125.193 -7.90332 -171.749 -38.2695zM421.5 192.028c-7.07812 0 -21.5 19.8467 -54.957 19.8467c-20.6182 0 -41.8643 -11.1182 -50.8623 -20.1152
c-8.08301 -8.08398 -19.4033 -30.2686 -19.4033 -49.207c0 -19.3369 6.30078 -43.4902 29.5762 -66.7656c1.90918 -1.90918 3.34668 -3.15918 3.37988 -3.19141l76.8574 -74.4277c4.11914 -3.98828 9.55762 -6.4209 15.6094 -6.4209
c8.24805 0 12.8486 4.03125 15.6621 6.49609c0.821289 0.720703 58.3613 55.8477 78.5176 76.0039c30.0957 30.0957 31.4961 55.5225 31.4961 68.0488v0.166016c0 19.0186 -9.87109 39.6777 -20.4287 50.2363c-8.26367 8.26367 -31.2031 19.4531 -50.1416 19.4824
c-16.3145 -0.328125 -28.6055 -2.16113 -50.8438 -18.6807c-1.32031 -0.980469 -2.89062 -1.47168 -4.46191 -1.47168zM518.372 142.43c0 -0.525391 -0.0878906 -3.04297 -0.0888672 -3.07422c0 -13.0195 -6.71875 -28.6768 -23.8818 -45.1953l-67.3252 -64.7979
c-1.44922 -1.39551 -3.32324 -2.09277 -5.19727 -2.09277c-1.87695 0 -3.75391 0.700195 -5.2041 2.09863c-68.0176 65.6084 -68.0176 65.6084 -68.376 65.9668c-6.07422 6.07422 -22.6094 24.5146 -22.6094 45.252c0 1.2002 6.30566 26.9355 12.0146 31.3965
c7.77539 6.07617 20.4062 10.8174 29.3389 10.8174c18.6641 0 35.6133 -14.0605 44.3184 -22.7656c4.51172 -4.51172 5.87109 -5.95996 10.4678 -5.95996c1.28711 0 4.50879 0 8.09082 3.58203c10.2773 10.2773 24.8398 25.1602 47.0059 25.1602
c12.4121 0 27.5664 -8.3877 30.5557 -11.9785c6 -7.2041 10.8906 -19.5107 10.8906 -28.4092z" />
  </g>

</svg>
