<?xml version="1.0" standalone="no"?>
<!DOCTYPE svg PUBLIC "-//W3C//DTD SVG 1.1//EN" "http://www.w3.org/Graphics/SVG/1.1/DTD/svg11.dtd" >
<svg xmlns="http://www.w3.org/2000/svg" xmlns:xlink="http://www.w3.org/1999/xlink" version="1.1" viewBox="-10 0 791 1000">
  <g transform="matrix(1 0 0 -1 0 800)">
   <path fill="currentColor"
d="M23.5039 -33.9844h42.7031l13.2012 40.1738l13.2002 -40.1738h42.7041l-34.5127 -24.8428l13.2002 -40.1729l-34.5918 24.8428l-34.5928 -24.8428l13.2012 40.1729zM368.719 282.898c2.06836 -36.7354 -15.3887 -141.376 -5.11914 -146.868
c10.0811 -108.389 115.021 -209.66 115.154 -205.752l-17.7832 -11.8555c-40.0049 43.6357 -84.6436 86.8203 -118.658 205.06c-7.57227 -52.0625 -40.0928 -110.375 -69.3125 -147.482c-17.7793 -22.5791 -25.4014 -40.6426 -40.6436 -57.5771l-20.3213 16.0879
c22.8623 29.6357 35.6953 48.7363 50.8047 68.584c77.1465 101.339 80.373 234.391 79.7754 304.879c7.17773 -0.158203 14.3564 -0.316406 21.5361 -0.474609c4.03809 -0.0878906 4.20215 -4.01465 4.27344 -5.68945
c0.0078125 -0.189453 -0.262695 -9.00977 0.293945 -18.9111zM595.099 620.003zM594.458 573.282zM533.014 579.042v0h62.085v38.4307l-60.4521 -0.429688zM663.17 579.042l-2.04004 38.8994l-58.3516 -0.415039v-38.4844h60.3916zM664.446 554.691l-132.504 -0.587891
l-38.1553 -308.024l214.213 3.9209zM721.323 628.979l1.06836 -0.96582l-1.06836 -0.474609v1.44043v0zM478.123 630.209v-1.3916l-1.05566 0.486328zM749.023 218.819zM465.178 214.882l-0.0175781 -0.664062l-0.647461 0.657227zM693.687 650.43l-0.0273438 0.614258
l0.642578 -0.611328c-0.205078 0 -0.410156 -0.00292969 -0.615234 -0.00292969v0zM502.106 649.545l191.58 0.884766l46.6914 -431.707l-275.2 -3.84082zM502.106 649.545c-0.206055 0 -0.413086 -0.00292969 -0.619141 -0.00292969l0.636719 0.62207zM602.923 757.986
v-0.000976563v-0.268555v0.268555l0.951172 0.533203v0l0.824219 -0.686523v0s-0.000976563 -0.0244141 -0.000976563 -0.0566406l117.267 -105.918v-24.3193l-118.828 107.328l-125.652 -106.035v23.0293l125.44 105.855v0.220703v0.0488281zM167.489 580.32z
M167.294 578.016zM308.163 554.031c0 -17.8672 -5.82324 -35.293 -20.9648 -50.4336c-6.7793 -6.78027 -12.4932 -11.4883 -17.7412 -14.7354c30.8721 5.50098 71.0771 19.7881 97.3818 65.4541c-5.71289 9.89746 -12.5918 18.875 -20.6914 26.9756
c-17.7451 17.7451 -42.5312 32.3164 -75.3193 38.3564c-0.410156 0.0742188 -0.266602 -0.499023 -1.58105 -0.106445c-0.871094 0.259766 -3.45996 1.03418 -7.16895 1.6748c7.97559 -3.14062 16.4658 -8.30664 24.8154 -16.6562
c14.7803 -14.7793 21.2695 -31.8838 21.2695 -50.5293zM234.704 502.199c20.0918 0 31.7031 9.64258 37.9463 15.8838c13.1611 13.1621 15.0312 27.0117 15.0312 36.1523c-0.0458984 13.0957 -4.45996 25.2139 -15.0283 35.7812
c-21.4512 21.4521 -47.0146 16.6143 -58.5869 11.6152c-0.110352 0 -16.2852 -10.6719 -16.4502 -10.7803c-4.21484 -6.13574 -8.3584 -12.3438 -12.5459 -18.5078l-0.0419922 0.015625c-6.79102 -18.7988 -3.50781 -39.2852 11.8418 -54.6357
c10.5898 -10.5889 23.2363 -15.5244 37.834 -15.5244zM238 464v0c-19.1904 0 -82.7422 0.916992 -133.996 52.1709c-11.4287 11.4287 -20.4502 23.7861 -28.5225 38.1455c-0.0283203 0.0478516 -0.0546875 0.0976562 -0.0820312 0.147461l0.0820312 -0.147461
c9.14355 16.2627 18.4902 28.21 29.3223 39.041c24.8447 24.8457 66.7383 51.4863 133.196 51.4863c17.1201 0 81.9004 -0.301758 133.156 -51.5586c11.6914 -11.6914 20.873 -24.3242 29.0059 -38.9688c0.0273438 -0.0478516 0.0537109 -0.0966797 0.0800781 -0.144531
l-0.0800781 0.144531c-4.3457 -7.82812 -13.1748 -22.9688 -28.4561 -38.25c-50.8018 -50.8018 -113.482 -52.0664 -133.706 -52.0664zM205.301 619.799c-53.46 -9.7207 -80.9453 -38.5381 -96.4922 -65.4824c6.64355 -11.4629 14.1416 -20.332 20.7061 -26.8975
c15.4307 -15.4307 38.4824 -30.8408 71.9434 -37.6963c-6.35449 3.11719 -12.9717 7.55469 -19.3037 13.8867c-24.417 24.417 -24.0537 55.1611 -16.2539 75.5586c0.118164 0.178711 0.0673828 0.292969 -0.116211 0.356445c-0.294922 1.57129 4.27832 9.33789 5.0293 11.25
c0.935547 2.38379 2.0459 3.54004 3.83301 5.1543c1.25098 1.12695 1.27148 1.15039 2.12207 2.56934c1.27441 2.12695 1.33203 2.24805 6.90625 7.82227c4.38477 4.38379 14.6504 10.8555 21.626 13.4785z" />
  </g>

</svg>
