<?xml version="1.0" standalone="no"?>
<!DOCTYPE svg PUBLIC "-//W3C//DTD SVG 1.1//EN" "http://www.w3.org/Graphics/SVG/1.1/DTD/svg11.dtd" >
<svg xmlns="http://www.w3.org/2000/svg" xmlns:xlink="http://www.w3.org/1999/xlink" version="1.1" viewBox="-10 0 1022 1000">
  <g transform="matrix(1 0 0 -1 0 800)">
   <path fill="currentColor"
d="M30.3242 741.553h55.5146l17.1611 52.2256l17.1602 -52.2256h55.5156l-44.8672 -32.2959l17.1611 -52.2246l-44.9697 32.2959l-44.9707 -32.2959l17.1611 52.2246zM271 608l-12 60c128.725 89.7881 355.203 55.3633 442.457 48.5605
c0 -0.0107422 0.000976562 -0.0214844 0.000976562 -0.0322266c27.4463 0.582031 75.1855 -1.32129 107.268 -33.4033c40.1396 -40.1396 38.6152 -108.841 37.5254 -169.365c-0.395508 -21.9258 -0.433594 -33.2402 -0.22168 -41.9463
c26.3789 -43.8281 72.168 -89.959 89.3252 -129.607c6.95117 -16.0635 5.49219 -24.7637 2.64551 -40.2051l-12 -14l-79.501 -63.5771v-212.431c1.93945 -31.0869 1.82422 -79.2412 -27.416 -108.48c-26.0322 -26.0322 -182.507 -12.0195 -220.584 -13.0049
l-2.90137 0.0126953c-103.732 -7.2998 -296.108 50.6025 -326.603 92.1719c-18.5059 25.2275 -31.4014 41.2529 -57.9951 55.3086v70.0371c25.8174 -16.2627 49.624 -17.8066 70.1904 -60.6357c44.2188 -92.082 349.455 -105.734 451.309 -108.438l-0.499023 -0.962891
c50 12 34.1514 4.48145 42.5352 13.5361c19.1768 20.7119 3.97852 41.9688 5.50781 57.9648h-0.541992v2.14941c-0.253906 0.990234 -0.500977 1.94141 -0.738281 2.84863h0.738281v207.174v3.4873v1.33887h1.58203l104 88h1.13281
c4.9834 45.8955 -62.8379 92.1289 -94.2158 139.501l-3 4l-1 1c-2.02051 3.99219 0.0439453 4.02539 -2.08398 11.5605c-0.0371094 0.130859 -0.189453 0.24707 -0.174805 0.367188l0.258789 2.07227l0.0644531 1.49902
c0.00976562 0.226562 0.150391 3.89551 0.242188 6.24414c3.11426 79.1523 5.19727 173.389 -83.8154 173.771c-136.35 16.7461 -373.536 9.53418 -431.49 -46.5137zM411.509 349.387c-27.543 -13.5771 -27.835 -13.6963 -30.7188 -13.6963
c-1.70312 0 -5.10938 0.447266 -7.69043 3.64648c-0.337891 0.416016 -29.5762 42.4121 -30.666 43.9014c-1.78125 2.43359 -3.9873 5.0127 -3.9873 9.08496c0 5.63477 3.71289 8.16309 10.6328 12.876c37.2305 25.627 84.5547 58.2803 90.3926 62.6934h24.0508
c3.84473 0 7.03613 0.00683594 9.71387 0.00683594c11.0781 0 13.3389 -0.131836 16.5566 -1.49316c0.000976562 0 0.267578 -0.0996094 0.267578 -0.0996094c1.97266 -0.728516 11.8545 -4.07324 24.1748 -4.07324h1.24609c8.15137 0 12.6016 0.727539 23.4785 5.65918
h44.5947c1.04199 -0.71582 86.0625 -59.1328 103.704 -72.3525c-8.40527 -12.6934 -12.3574 -18.8291 -23.6689 -37.5732c-5.3252 -8.82715 -8.54004 -14.5674 -11.4336 -17.4629c-3.02246 -3.02148 -6.40918 -3.06445 -7.0459 -3.06445
c-2.38574 0 -17.3125 4.20605 -41.5215 11.1826c13.7061 -151.34 13.7061 -151.042 13.7061 -151.34v-11.2822h-215.295c1.31934 17.1357 1.31934 17.1357 2.39551 37.0732c0.000976563 0 2.1543 38.5195 2.1543 38.5195l2.16406 37.8428
c0 0.00488281 1.89258 33.8379 2.79492 49.9512zM593.659 208.781c-0.134766 1.55859 -14.0908 153.977 -14.0908 155.765c0 5.47461 3.02832 9.31055 7.11426 10.5674v1.55469c2.05469 -0.524414 4.1084 -1.0498 6.16309 -1.5752l-0.0273438 -0.109375
c8.98633 -2.1416 34.4072 -9.70117 46.6807 -13.0127l17.1875 27.8057c-2.35156 1.63086 -4.9668 3.43652 -7.29199 5.03223c-39.1387 27.1924 -39.1387 27.1924 -72.5176 50.3145c-2.11914 0.0732422 -6.95117 0.189453 -16.1006 0.189453
c-5.625 0 -11.251 0.00195312 -16.875 0.00195312c-7.74805 -2.94922 -15.3564 -5.58789 -28.624 -5.58789c-8.34375 0 -16.3633 0.134766 -33.8164 5.58789h-17.8193c-8.51465 0 -14.2529 -0.116211 -16.9209 -0.210938
c-10.5049 -7.12305 -65.4668 -45.1279 -80.9043 -55.8184c4.19434 -6.00293 9.86426 -14.1836 19.2188 -27.6797c9.23633 4.50391 31.5 15.4033 36.0381 17.4502c1.26562 0.796875 3.5918 0.959961 4.11914 0.959961c0.0703125 0 0.0947266 -0.0126953 0.0947266 -0.0126953
c5.57227 0 10.0215 -4.21875 10.0215 -11.0771c0 -0.249023 -0.796875 -13.0752 -1.44238 -24.8955l-7.65625 -135.34c13.8896 -0.0751953 40.4316 -0.110352 68.8076 -0.110352z" />
  </g>

</svg>
