<?xml version="1.0" standalone="no"?>
<!DOCTYPE svg PUBLIC "-//W3C//DTD SVG 1.1//EN" "http://www.w3.org/Graphics/SVG/1.1/DTD/svg11.dtd" >
<svg xmlns="http://www.w3.org/2000/svg" xmlns:xlink="http://www.w3.org/1999/xlink" version="1.1" viewBox="-10 0 987 1000">
  <g transform="matrix(1 0 0 -1 0 800)">
   <path fill="currentColor"
d="M33.3545 735.521h55.5146l17.1611 52.2256l17.1602 -52.2256h55.5156l-44.8672 -32.2959l17.1611 -52.2246l-44.9697 32.2959l-44.9707 -32.2959l17.1611 52.2246zM271 608l-12 60c128.725 89.7881 355.203 55.3633 442.457 48.5605
c0 -0.0107422 0.000976562 -0.0214844 0.000976562 -0.0322266c27.4463 0.582031 75.1855 -1.32129 107.268 -33.4033c40.1396 -40.1396 38.6152 -108.841 37.5254 -169.365c-0.395508 -21.9258 -0.433594 -33.2402 -0.22168 -41.9463
c26.3789 -43.8281 72.168 -89.959 89.3252 -129.607c6.95117 -16.0635 5.49219 -24.7637 2.64551 -40.2051l-12 -14l-79.501 -63.5771v-212.431c1.93945 -31.0869 1.82422 -79.2412 -27.416 -108.48c-26.0322 -26.0322 -182.507 -12.0195 -220.584 -13.0049
l-2.90137 0.0126953c-103.732 -7.2998 -296.108 50.6025 -326.603 92.1719c-18.5059 25.2275 -31.4014 41.2529 -57.9951 55.3086v70.0371c25.8174 -16.2627 49.624 -17.8066 70.1904 -60.6357c44.2188 -92.082 349.455 -105.734 451.309 -108.438l-0.499023 -0.962891
c50 12 34.1514 4.48145 42.5352 13.5361c19.1768 20.7119 3.97852 41.9688 5.50781 57.9648h-0.541992v2.14941c-0.253906 0.990234 -0.500977 1.94141 -0.738281 2.84863h0.738281v207.174v3.4873v1.33887h1.58203l104 88h1.13281
c4.9834 45.8955 -62.8379 92.1289 -94.2158 139.501l-3 4l-1 1c-2.02051 3.99219 0.0439453 4.02539 -2.08398 11.5605c-0.0371094 0.130859 -0.189453 0.24707 -0.174805 0.367188l0.258789 2.07227l0.0644531 1.49902
c0.00976562 0.226562 0.150391 3.89551 0.242188 6.24414c3.11426 79.1523 5.19727 173.389 -83.8154 173.771c-136.35 16.7461 -373.536 9.53418 -431.49 -46.5137zM635.906 131.416c2.61816 0 2.89355 -2.0957 2.89355 -2.51074
c0 -2.33496 -3.72266 -3.19629 -10.8369 -4.78223c-14.6396 -3.26367 -31.499 -5.45508 -50.0352 -6.50879c-4.0127 -0.228516 -13.1699 -0.34082 -22.8418 -0.34082c-64.377 0 -91.9424 6.62207 -119.252 14.7988c-12.041 3.60449 -19.6172 5.70215 -29.6787 8.21484
c-22.0439 5.50586 -31.125 8.54395 -32.8809 10.3594c-1.10547 0.145508 -5.32031 3.33105 -6.88574 5.30859c-2.96094 3.74219 -7.0625 12.0186 -7.0625 15.3008c0 0.387695 0.0488281 0.452148 0.0488281 0.680664c0 3.19336 -10.2451 16.8115 -13.3838 53.9346
c-0.264648 3.13379 -0.390625 9.39355 -0.390625 16.0469c0 3.62012 0.0595703 24.083 1.41602 27.9727c-0.192383 0.28418 -0.250977 0.560547 -0.250977 0.830078c0 0.65625 2.57422 27.2461 11.9238 64.5615c4.00781 15.9961 14.7412 53.543 16.3398 55.3125
c0.140625 0.155273 4.69531 8.34277 13.3984 16.0967c5.98242 5.33105 15.3135 11.7471 26.2578 18.084c3.18848 1.8457 9.33594 5.4668 13.6455 8.03809c7.78027 4.64062 15.6152 9.27441 22.2139 9.27441c6.98926 0 14.7725 -5.51562 21.501 -13.7949
c1.75684 -2.16211 5.00488 -6.08691 7.2041 -8.70605c8.36719 -9.96387 12.6143 -15.5342 12.6143 -22.9678c0 -5.85156 -1.74707 -4.19043 -1.88477 -10.7236c-0.19043 -8.98633 -5.31543 -11.3584 -8.1582 -21.1367
c-0.670898 -2.31152 -4.4707 -4.21777 -8.02148 -4.21777c-4.72461 0 -5.78906 1.93555 -7.79297 5.58008c-1.09766 -1.65039 -4.49902 -4.77734 -7.23145 -4.77734c-0.498047 0 -0.618164 0 -0.963867 -0.584961
c-0.0410156 -0.0693359 -2.97656 -4.99316 -10.8477 -4.99316c-3.99316 0 -9.33398 1.13477 -11.918 1.15527c-2.60547 0.0195312 -4.04395 1.50391 -4.04395 3.27051c0 0.713867 0.228516 1.45801 0.642578 2.15137
c-0.580078 -0.0302734 -0.580078 -0.0302734 -3.41992 -0.245117c-2.12695 -7.60938 -5.35449 -19.1533 -5.35449 -31.8457c0 -9.33887 1.81055 -17.4268 5.40137 -24.6123c6.58691 -13.1807 34.4609 -32.501 34.4609 -53.9121
c0 -2.35645 -0.266602 -4.65625 -0.80957 -6.40234c3.34863 2.125 5.27051 3.23438 6.1084 3.55664c0 0 0.260742 0.228516 0.649414 0.228516c0.0517578 0 0.106445 -0.00390625 0.163086 -0.0136719c1.58691 1.30664 14.3213 7.74121 28.9971 7.74121
c20.5605 0 35.6611 -10.8652 48.1641 -20.1455c8.54199 -6.33887 14.7031 -10.3564 19.6807 -12.8564c3.35059 -1.68262 4.76855 -2.49316 6.04883 -2.49316c1.21387 0 2.30469 0.726562 4.79883 2.12793c9.0752 5.09961 20.708 9.99023 25.2373 10.3965
c0.949219 0.0849609 3.42285 1.44141 12.4463 1.44141c12.8203 -0.00390625 23.1328 -5.29395 25.1133 -7.27441c0.484375 -0.484375 0.941406 -1.20996 0.941406 -1.96777c0 -1.02344 -1.01758 -2.1875 -2.44922 -2.1875c-3.68945 0 -8.4375 5.52051 -22.4658 5.52051
c-12.751 0 -19.9971 -3.2041 -32.2148 -9.25684c14.5498 -0.433594 14.5596 -0.443359 15.7969 -1.68066c0.411133 -0.411133 0.553711 -0.873047 0.553711 -1.31934c0 -0.736328 -0.435547 -1.67969 -0.869141 -2.11328
c-0.666992 -0.666992 -1.00195 -1.00195 -12.1953 -1.00195c-3.09277 0 -12.0791 0.425781 -12.2012 0.425781c-2.87891 0 -2.63281 -1.43066 -4.67969 -1.43555c-1.57227 0 -2.96875 1.71387 -2.96875 3.08691c0 0.136719 0.0117188 0.276367 0.0380859 0.417969
c-0.269531 0.154297 -0.832031 0.448242 -1.71875 0.825195c-13.4912 5.7334 -30.2686 21.9609 -44.668 28.293c-7.04688 3.09961 -14.583 4.65527 -22.1299 4.65527c-4.25293 0 -16.9395 0 -34.249 -11.1758c-4.96777 -3.20703 -4.96777 -3.20703 -4.98535 -3.2168
c-1.43066 -0.826172 -10.9707 -8.58301 -20.0322 -16.3916c-6.70996 -5.78223 -8.13477 -7.24902 -9.74805 -7.24902c-1.9502 0 -3.07422 1.89551 -3.07422 3.13574c0 0.901367 0.524414 1.42676 0.678711 1.58105c1.52832 1.52832 15.5 13.5156 20.2783 17.4072
c7.3457 5.98145 8.78613 7.85449 10.083 11.7041c0.495117 1.4707 0.744141 2.52051 0.744141 3.69043c0 1.14258 -0.237305 2.39941 -0.716797 4.27441c-4.58789 17.9395 -23.457 32.3213 -31.2656 43.1777c-6.3457 8.82227 -9.49512 19.7158 -9.49512 32.5
c0 1.8252 0.18457 16.3926 5.49707 33.8076c0.303711 0.996094 0.532227 1.88184 0.646484 2.3418c-0.494141 0.369141 -6.95996 3.96777 -9.28809 6.2959c-0.694336 0.694336 -1.05371 1.48242 -1.05371 2.30078c0 0.246094 0.0664062 2.74316 2.74805 2.74316
c1.63184 0 2.69141 -2.27051 6.99219 -4.94434c4.61914 -2.87109 6.90137 -4.36816 7.3623 -5.37793c1.19336 0.149414 7.09668 0.950195 7.09668 2.0791c0 0.402344 -0.457031 1.08203 -0.457031 2.05957c0 1.51953 1.31836 2.53125 2.59277 2.53125
c1.98047 0 1.75586 -1.55371 3.9541 -2.0293c2.25488 -0.487305 5.35156 -1.29102 5.35156 -3.56055c0 -1.05859 -0.917969 -2.8252 -2.56445 -2.8252c-0.886719 0 -1.42676 0.40332 -1.76465 0.40332c-0.555664 0 -2.59766 -1.14355 -3.9873 -2.67383
c0.0898438 -0.0175781 5.72559 -1.06152 9.12109 -1.06152c2.84863 0 3.56348 0.750977 5.58105 2.87109c-3.32031 7.94922 -7.50977 16.2461 -12.3467 22.2383c-1.18066 1.46289 -2.25781 2.78711 -2.25781 3.97754c0 1.22949 1.31543 2.22656 2.32031 2.22656
c1.10156 0 1.79004 -0.793945 2.37598 -1.46973c3.11426 -3.58691 9.97266 -13.1924 9.97266 -15.3359c0 -0.0537109 -0.00195313 -0.108398 -0.00683594 -0.161133c1.38574 -1.28711 3.43652 -6.86914 4.51953 -8.44629c2.84473 0.46875 3.41309 4.32715 3.41309 6.36426
c0 9.03125 -10.6924 17.8105 -10.6924 27.8242c0 1.84473 0 1.84473 2.74512 7.08301c1.6709 -9.89941 1.78516 -10.5762 6.6875 -18.3857c1.66504 -2.65234 2.69629 -4.8623 2.73535 -4.90234c0.707031 -0.707031 4.03516 -6.03613 4.03516 -12.002
c0 -0.375977 -0.00976562 -0.760742 -0.0292969 -1.1543c2.19434 1.70703 4.04199 2.0127 5.88867 3.8584c8.35645 8.35645 -10.0127 31.9736 -12.958 35.6416c-2.19043 2.72754 -3.19238 4.25391 -3.19238 5.27148c0 0.451172 0.289062 1.59277 1.82129 1.59277
c1.12305 0 1.40332 -0.756836 1.94727 -1.30176c0.170898 -0.170898 12.1426 -13.1104 14.5674 -19.2578c2.0459 -1.65918 5.00879 -10.832 5.0625 -10.9395c0.0859375 0.0585938 5.13281 3.86328 5.13281 9.15332c0 4.18359 -3.51367 9.56152 -3.57812 9.6416
c-0.00195312 0.00390625 -3.8623 4.80664 -3.8623 4.80664c-11.7256 14.5801 -13.5771 16.8828 -16.8555 19.8867c-3.83105 3.51074 -7.34277 5.1543 -11.2461 5.1543c-3.01465 0 -6.49707 -0.514648 -16.667 -6.78809
c-10.7031 -6.60352 -28.7979 -15.8418 -30.1543 -17.9131c-1.42285 -2.16992 -9.37598 -6.95605 -17.1865 -14.7666c-3.72168 -3.72168 -5.96094 -6.89258 -6.28711 -8.42676c-2.04395 -9.61035 -21.8066 -65.6016 -27.4473 -118.335
c-1.10449 -10.3252 -1.33496 -14.3184 -1.33496 -26.1465c0 -9.33789 0.242188 -19.4619 0.681641 -23.4023c3.32715 -29.8145 10.9492 -45.9629 11.2783 -46.3076c1.51562 -0.0693359 2.22363 -1.66602 2.80371 -2.9707
c3.72852 -8.40723 5.27832 -10.4893 6.60254 -11.8135c3.53027 -3.53027 10.3604 -6.05469 35.083 -12.498c6.86035 -1.78809 18.2246 -5.02734 25.3037 -7.21289c36.543 -11.2812 46.0107 -12.5889 87.7383 -15.4434c8.20996 -0.5625 23.6426 -0.897461 36.7969 -0.897461
c16.2617 0 45.1113 0.951172 70.5107 6.76367c3.98926 0.913086 6.3125 1.51562 7.83984 1.51562zM494.985 123.221c-0.5625 -0.0917969 -1.49023 0.180664 -1.57227 -0.392578c0.0703125 -0.535156 0.845703 -0.365234 1.32715 -0.490234l0.138672 0.109375
s0.0771484 0.55957 0.106445 0.773438zM636.598 129.236c-0.46875 0.0419922 -0.618164 -0.236328 -0.712891 -0.569336c0.411133 0.0166016 0.791992 0.0634766 0.712891 0.569336zM465.61 243.721c-0.0966797 0.331055 -0.242188 0.613281 -0.713867 0.569336
c-0.0751953 -0.50293 0.298828 -0.555664 0.713867 -0.569336zM517.135 249.502c-0.46875 0.0410156 -0.619141 -0.236328 -0.713867 -0.569336c0.412109 0.015625 0.791992 0.0634766 0.713867 0.569336zM350.364 272.223
c0.00292969 0.0722656 -0.0761719 0.0634766 -0.118164 0.0917969c-0.00195312 -0.0722656 0.0761719 -0.0634766 0.118164 -0.0917969zM482.517 381.966c-0.378906 0 -0.612305 0.0371094 -1.18457 0.128906c-0.585938 -7.30176 -3.04102 -10.5889 -9.19531 -13.8545
c0.352539 -0.741211 0.655273 -1.375 2.0332 -1.78613c1.02051 0.212891 2.35352 0.491211 2.66699 0.803711c0.586914 0.586914 1.66895 3.57617 5.07715 9.23047c2.60059 4.31445 3.14355 5.21484 3.66309 7.00391c-1.14551 -1.07617 -1.95996 -1.52637 -3.06055 -1.52637
zM645.526 319.183c0.0966797 0.00390625 6.19629 0.000976562 6.19727 0.00390625c-1.87793 7.87988 -1.35059 10.417 -0.665039 12.6279c0.00585938 0.0205078 0.536133 1.85352 0.608398 1.99805l4.43164 8.86133c-2.26855 35.1543 -2.26855 35.1543 -2.25586 35.3057
c0.745117 8.84375 1.39551 19.1602 0.635742 25.7686c-1.97461 7.84375 -6.875 6.18848 -8.01953 3.67969c-0.404297 -0.886719 -0.860352 -0.991211 -2.03711 -1.26074c-0.914062 -0.817383 -2.35254 -0.638672 -3.03711 0.391602
c-0.857422 1.29102 -4.82422 7.43359 -4.92773 7.6377c-1.43457 2.81055 -6.96875 4.53809 -8.02637 -1.02344c-0.0380859 -0.201172 -0.0380859 -0.201172 -1.92676 -4.80566c-0.704102 -1.71484 -3.18555 -1.64355 -3.78809 0.110352l-3.55371 10.3369
c-0.950195 2.7627 -6.87598 4.96973 -10.0078 -0.262695c-0.0576172 -0.172852 -0.479492 -1.4541 -2.76465 -8.62012c-0.496094 -1.55762 -2.56934 -1.91406 -3.55469 -0.589844c-2.92285 3.92676 -2.92285 3.92676 -2.97461 3.97852
c-0.0185547 0.0195312 -3.33789 3.33301 -5.21777 1.45215c-1.0293 -1.0293 -1.6123 -3.54297 -1.86816 -5.08398c0.00683594 -0.231445 0.0527344 -1.5957 0.305664 -8.21191c0.151367 -4.12012 0.333984 -12.9238 0.337891 -13.0547
c1.20508 -8.58887 0.648438 -8.85742 1.27441 -13.4531c0.0458984 -0.175781 0.393555 -1.51562 2.19824 -8.34766c0.0175781 -0.0664062 0.182617 -3.8916 -0.34082 -4.78125c-1.28711 -2.18652 -1.37598 -2.33887 -2.22461 -2.5332
c-3.35938 -0.769531 -4.42188 -0.0927734 -5.55762 1.4834c-0.583984 0.810547 -4.55762 4.79297 -4.95703 5.25391l-8.32715 9.60742c-0.224609 0.148438 -1.37988 0.90625 -4.85645 3.1084c-0.203125 0.0615234 -1.17676 0.351562 -4.11426 1.1748
c-0.821289 -0.451172 -1.80078 -0.179688 -2.54395 -0.921875c-0.539062 -0.539062 -1.16113 -2.34473 -0.962891 -3.36719l4.59375 -6.17871c0.884766 -0.829102 5.58789 -4.92871 5.81836 -5.20703c6.86426 -8.30176 6.86426 -8.30176 6.89746 -8.3457
c4.98926 -6.75977 4.98926 -6.75977 5.02637 -6.81836c4.49805 -7.06934 4.49805 -7.06934 4.5625 -7.2168l3.47363 -8.05469c0.960938 -1.4873 4.6709 -7.08594 4.77051 -7.27539c1.56348 -2.96973 1.56348 -2.96973 1.62207 -3.2168
c1.16309 -4.875 9.40137 -5.11816 9.50977 -5.11914l9.01172 -0.161133zM651.725 315.135h-6.07129c-27.3135 -1.13379 -27.3135 -1.13379 -27.374 -1.13281l-9.07617 0.162109c-1.44043 0.0273438 -11.2793 0.487305 -13.3037 7.96094l-1.29004 2.4502
c-4.71777 7.15723 -4.6377 6.91992 -4.92285 7.58203l-3.43652 7.96777l-4.28906 6.73926l-4.87402 6.60254l-6.69238 8.09277c-5.74805 5.0918 -5.74805 5.0918 -6.00098 5.43066l-4.69824 6.31836c-1.67578 2.25391 -0.505859 6.65234 1.40918 8.56738
c1.12402 1.12305 2.18262 1.46582 3.75293 1.75488c0.868164 0.388672 1.8457 0.456055 2.75195 0.202148c4.27441 -1.19629 4.36719 -1.13379 5.11816 -1.60938c4.58691 -2.9043 4.93457 -3.01465 5.5918 -3.6709
c0.0761719 -0.0771484 -0.0986328 -0.237305 8.51855 -9.81738c4.48926 -4.99121 4.66406 -4.83203 5.30957 -5.70508c0.105469 0.00976562 0.251953 0.0273438 0.436523 0.0576172l0.217773 0.369141l0.0966797 2.4209c-2.16016 8.17188 -2.13574 7.94629 -2.20898 8.47949
c-0.674805 4.91406 -0.0810547 4.98438 -1.29395 13.5938c-0.0185547 0.132812 -0.261719 10.6475 -0.361328 13.3691c-0.323242 8.45996 -0.401367 8.12695 -0.275391 8.90918c0.394531 2.44336 1.30371 8.07422 6.06055 9.07812
c3.95605 0.833984 7.79102 -2.87988 8.31738 -3.58691l0.588867 -0.791016c1.58008 5.01562 1.53027 4.98242 1.90039 5.6123c4.89648 8.32812 15.3057 5.58594 17.3652 -0.40625l1.73828 -5.05762c2.4248 8.14844 12.1797 6.93555 15.2832 1.06055
c0.0361328 -0.0556641 3.48633 -5.41602 3.61621 -5.61719c3.4043 4.40039 12.0254 5.14258 14.7754 -5.7793c0.0439453 -0.173828 0.0761719 -0.350586 0.0966797 -0.52832c0.829102 -7.21484 0.136719 -17.5332 -0.610352 -26.4258l2.24902 -34.8506
c0.0449219 -0.708984 -0.09375 -1.42676 -0.417969 -2.0752l-4.33301 -8.66602c-0.125 -0.483398 -0.270508 -0.96582 -0.462891 -1.58594c-0.539062 -1.74023 -1.1084 -2.74219 0.736328 -10.4814c0.607422 -2.54395 -1.32031 -4.99414 -3.9375 -4.99414zM280 412
l-72.7705 131.736l8.40039 3.54883l65.0996 -111.825l59.3252 112.875l11.3545 -4.59863z" />
  </g>

</svg>
