<?xml version="1.0" standalone="no"?>
<!DOCTYPE svg PUBLIC "-//W3C//DTD SVG 1.1//EN" "http://www.w3.org/Graphics/SVG/1.1/DTD/svg11.dtd" >
<svg xmlns="http://www.w3.org/2000/svg" xmlns:xlink="http://www.w3.org/1999/xlink" version="1.1" viewBox="-10 0 1051 1000">
  <g transform="matrix(1 0 0 -1 0 800)">
   <path fill="currentColor"
d="M828.399 483.872c0 9.49878 0.360099 25.4826 0.360099 28.905l-0.318652 61.3747l-8.69455 54.78l-24.0577 41.7601l-29.8355 19.1251l-33.9409 8.02542l-47.9505 1.85133v0.765382l-107.704 8.96128l-161.614 -4.8437l-135.511 -48.0118l4.97421 -24.8711
l90.1513 34.2037l168.519 13.9909l163.859 -8.05849l72.0585 -32.0852l24.6852 -76.5829c-12.0195 -98.6551 -12.0195 -98.6551 -8.64097 -103.175l30.4464 -40.7334l38.0432 -60.0682l23.93 -33.502l-96.7113 -80.2498l-3.19974 -219.288
c0.962733 -7.56244 2.78458 -22.0112 5.01798 -45.877c-15.8013 -33.078 -15.8013 -33.078 -21.7795 -38.1459c-28.726 -6.87192 -37.6748 -9.01268 -53.7943 -9.01268c-3.38415 0 -6.77838 0.14333 -10.1737 0.446144l-127.95 -3.2205l-189.706 31.9736l-119.91 72.0259
l-21.8729 31.5454c-0.18608 0.126152 -14.9542 10.3475 -18.5829 12.6523v-31.4635c5.41685 -3.87145 13.5068 -7.36272 24.4398 -17.2503c0.324316 -0.293306 6.03353 -5.56267 27.8246 -33.7326l70.2643 -41.1391l123.979 -35.7692l40.8353 -3.74581
c52.8258 -4.90757 59.0669 -6.73248 83.0467 -7.42728l68.08 -1.97257l89.7606 0.254271l51.1066 12.4914l15.1376 25.2075l6.27671 34.16l-0.268638 82.9487l0.0291888 84.2282l-0.00582149 87.5189l84.7837 67.8016l7.68593 8.96692
c1.77472 11.4559 1.98289 12.7996 -2.19749 25.3734l-23.3304 38.8443c-23.3118 29.9188 -45.6511 60.8101 -67.3422 92.3496c-0.202711 16.1296 -0.202711 16.1296 -0.202711 17.6951zM33.2949 712.521h55.5146l17.1611 52.2256l17.1602 -52.2256h55.5156
l-44.8672 -32.2959l17.1611 -52.2246l-44.9697 32.2959l-44.9707 -32.2959l17.1611 52.2246zM395.068 451.428zM394.927 449.759zM432.377 379.63c-30.4729 7.57106 -51.437 39.201 -39.3252 71.1445c-0.241766 0.98828 3.1829 9.5057 6.61523 12.6074
c3.05256 2.75421 -1.29015 -0.250116 6.79102 7.83105c27.9645 27.9496 91.373 12.5956 91.373 -38.8262c0 -22.7245 -13.2064 -40.5196 -30.1396 -48.8447c79.1327 15.4977 85.4179 83.7771 85.2773 94.9502c-0.201172 20.9385 -13.5352 50.7422 -29.8145 65.0537
c-35.3418 31.4541 -74.5957 31.4541 -147.154 31.4541v15.166c73.0215 0 117.205 0 157.25 -35.2461c17.9316 -15.7324 35.0371 -48.8418 35.0371 -77.5859c0 -26.0342 -15.1436 -59.9854 -33.9453 -77.2441c-39.6279 -36.4756 -80.6709 -36.4756 -160.383 -36.4756v15.166
c22.416 0 41.5967 0.849609 58.418 0.849609zM443.752 395.719c20.5325 0 37.499 16.0425 37.499 36.8164c-0.0937238 26.8391 -28.4435 43.8406 -52.1826 33.4912l-11.5889 -7.62695l-8.96973 -13.2607c-8.68472 -23.774 8.41737 -49.4199 35.2422 -49.4199z
M450.876 247.517l44.3516 -44.1006l46.0791 44.0762l14.251 -12.3262l-45.9902 -46.4463l50.2617 -46.2002l-13.8291 -11.5195l-49.6328 45.6895l-45.5518 -46.3633l-13.0215 14.2383l44.502 45.2559l-43.9463 45.7148zM601.69 114.159zM385.811 259.396zM345.496 185.176z
M502.576 88.1377zM502.292 79.125zM382.273 112.638zM451.465 90.8701zM640.197 201.957zM345.496 185.176zM640.197 201.957zM645.512 207.015c5.76339 -17.4519 4.99481 -26.2658 8.5498 -26.3232c-1.24121 -26.1904 -1.70801 -36.0527 -44.2363 -69.6582
c-31.6455 -25.0049 -54.8135 -33.8125 -107.476 -34.4062c-36.2246 -0.40918 -82.3594 0.947266 -122.804 34.3975c-15.9365 13.1807 -41.2344 38.6904 -41 67.668h-1.13379c1.23926 4.64551 1.23926 4.64551 1.35742 8.21191l0.829102 -0.0136719l3.55176 13.3174h-1.55957
c0.80957 1.09863 1.61914 2.19824 2.42871 3.29785v3.74219h2.75488l40.2178 54.6455h1.27637c13.915 32.5391 67.2236 48.2139 87.9287 23.0088c2.94043 -1.32129 16.2734 -6.6416 30.3135 -1.52246c0.638589 0.854787 39.0174 46.2544 104.632 -20.8984h0.46875
c1.11103 -1.63665 1.11103 -1.63665 4.09082 -4.74414l29.3662 -50.1807c0.600227 0.0509121 1.0399 -0.0291407 0.443359 -0.541992zM359.005 180.45c-0.487305 -16.6992 1.35938 -36.5596 41.917 -64.9502c34.416 -24.0908 62.9326 -25.8213 102.083 -24.8516
c45.6152 1.17383 64.6484 7.03711 92.1934 29.5449c36.6279 29.9316 42.6973 39.3125 38.292 56.8955l-6.03809 22.8701c0.0126953 1.40723 -0.928711 3.19727 -0.916016 4.60449l-32.6836 51.5498c-0.876953 -0.0351562 -0.176758 0.761719 -1.05371 0.727539
c-20.2314 13.3379 -22.3877 19.1172 -29.9453 23.5732c-11.6367 6.8623 -29.5283 5.48145 -40.918 -2.29199c-5.66992 -17.0811 -40.8506 -19.8184 -57.0605 -4.41504c-1.51074 1.43555 -2.62598 0.636719 -2.48242 2.39746
c-13.6191 9.37158 -47.2626 5.84634 -60.0693 -24.3096l-1.85352 0.712891l-35.7432 -50.6016z" />
  </g>

</svg>
