<?xml version="1.0" standalone="no"?>
<!DOCTYPE svg PUBLIC "-//W3C//DTD SVG 1.1//EN" "http://www.w3.org/Graphics/SVG/1.1/DTD/svg11.dtd" >
<svg xmlns="http://www.w3.org/2000/svg" xmlns:xlink="http://www.w3.org/1999/xlink" version="1.1" viewBox="-10 0 1032 1000">
  <g transform="matrix(1 0 0 -1 0 800)">
   <path fill="currentColor"
d="M188.596 243.626v-370.153h26.4043v2.40039h460.8c0 69.4756 0.000976562 138.951 0.000976562 208.429v7.97656v10.6377l83.5986 -24.1436v29.582l-644.803 186.225v-29.582zM651.795 -93.7227l-436.795 -1.59961v331.322l436.795 -126.631v-203.092zM807 239
l-124.604 101.067l20.3887 19.3848l97.1162 -75.2998l126.645 190.385l29.5605 -16.9834zM133.188 538.799h166.749c0.756836 -2.0752 -1.65234 -0.542969 2.94238 -9.62402c3.34961 -6.62402 11.8369 -13.9785 14.0684 -15.3037
c0.40625 -0.241211 -1.13184 1.24023 -1.13184 1.24023c1.16016 -0.145508 2.52539 -2.10156 4.84375 -3.0957h1.11133c0.953125 -0.423828 0.953125 -0.423828 8.45215 -2.9541v-166.986l-6.22266 0.65918c-38.374 4.07324 -87.5615 24.4404 -117.585 48.6875
l-4.87109 3.93457l0.598633 0.595703c-4.91113 6.16309 -5.19141 6.51465 -8.0791 8.66211c-2.02246 1.50488 -3.86328 2.98242 -6.72949 6.2168l-0.711914 -0.713867l-3.94141 4.86816c-24.292 30.0078 -44.7178 79.1992 -48.8271 117.587zM340.852 778.643
c-126.526 0 -229.221 -102.689 -229.221 -229.219c0 -126.534 102.697 -229.218 229.219 -229.218c126.534 0 229.216 102.698 229.216 229.218c-0.172852 126.364 -102.869 229.044 -229.214 229.219zM330.224 757.084v-166.802l-2.79785 -1.24219
c-0.920898 -0.802734 -2.06348 -1.33008 -4.2959 -3.05371c-1.97363 -1.52344 -0.191406 1.15332 -3.93652 -3.37402l-3.93848 -3.93945c-0.560547 -0.558594 -2.8125 -2.24902 -2.8125 -2.24902c-6.75 -6.18848 -5.06348 -4.5 -6.31348 -6.00781
c-0.746094 -0.899414 -1.12012 -3.25586 -2.6875 -5.80566c-0.21875 -0.355469 -1.65527 0.417969 -2.63379 -4.5625l-167.311 0.000976563l0.654297 6.21582c4.04004 38.3584 30.5342 90.4854 54.7441 120.518c0 0 1.49707 2.26367 5.43262 6.7627
c1.57227 1.7959 2.25098 2.25098 2.68652 3.00098c0.0986328 0.167969 10.6641 8.39453 15.8662 12.9121c19.1875 13.3438 54.7314 40.917 111.117 46.959zM548.52 559.891l-166.763 0.000976562c-0.706055 1.93555 0.483398 -2.70508 0 0
c-1.20508 6.73242 -3.55078 9.98535 -11.3799 16.9941c-0.0898438 0.0820312 -3.91113 3.60352 -8.40332 8.71387c-2.56445 1.36523 -3.46582 1.84375 -10.501 4.48438l0.000976562 166.688l6.22559 -0.667969c36.1943 -3.87305 81.9258 -22.2646 112.192 -44.6738
c6.08594 -4.50586 5.87988 -2.6123 12.2822 -8.6709c2.0127 -1.90332 2.28809 -2.16309 3.23633 -2.52148c1.93848 -0.732422 3.25293 -1.22852 4.39551 -3.4541c1.58594 -3.09082 1.63379 -1.34863 4.05566 -6.13867c6.40918 -4.30566 6.97266 -5.47949 11.126 -14.1445
l-0.115234 -0.176758c24.2578 -34.124 39.6797 -78.6143 42.9941 -110.216zM351.474 341.763l-0.000976562 166.804l2.1748 0.96875c3.79492 0.513672 14.4814 6.1377 20.2451 13.873c0.102539 0.137695 5.08301 8.91211 7.70605 15.3906h166.601l-0.654297 -6.21582
c-4.03711 -38.3594 -24.3428 -87.5449 -48.5449 -117.583c-7.60645 -9.44043 -4.47168 -7.0127 -9.2002 -11.7422c-3.5459 -3.5459 -7.21582 -5.93848 -9.95605 -7.74414l0.313477 -0.313477l-4.85938 -3.93555c-30.0078 -24.2949 -79.2041 -44.7256 -117.599 -48.834z
M807.522 484.197l-124.604 101.067l20.3887 19.3857l97.1162 -75.3008l126.645 190.386l29.5605 -16.9844z" />
  </g>

</svg>
