<?xml version="1.0" standalone="no"?>
<!DOCTYPE svg PUBLIC "-//W3C//DTD SVG 1.1//EN" "http://www.w3.org/Graphics/SVG/1.1/DTD/svg11.dtd" >
<svg xmlns="http://www.w3.org/2000/svg" xmlns:xlink="http://www.w3.org/1999/xlink" version="1.1" viewBox="-10 0 1131 1000">
  <g transform="matrix(1 0 0 -1 0 800)">
   <path fill="currentColor"
d="M143.735 318.405c0 -25.0049 8.96582 -48.4834 26.4902 -66.0625c14.543 -14.4854 42.4707 -26.0225 63 -26.0225c4.66309 0 10.877 0.743164 18.7002 2.2207c42.6357 8.0459 77.2344 49.6807 77.2344 93.166c0 7.7373 -1.73145 19.623 -3.9375 27.0449
c-4.85645 17.1592 -21.5557 42.6602 -22.8428 44.5449c-5.97852 9.4375 -7.50684 11.8652 -10.0391 16.2773c-15.1641 26.6768 -30.3535 53.3291 -45.502 80.0205c-4.20703 9.52441 -5.96387 11.2676 -9.23926 12.7051c-3.55371 0 -4.71484 -0.0302734 -6.68652 -2.00098
c-1.21777 -1.21875 -1.28809 -1.39062 -3.4375 -5.41602c-1.26172 -2.36426 -30.1318 -54.9453 -44.874 -78.6807c-2.82129 -4.54395 -17.293 -27.9062 -26.2266 -45.8926c-8.4707 -17.0869 -12.6396 -34.8516 -12.6396 -51.9043zM233.512 238.565
c-16.6533 0 -41.6436 9.48828 -55.0791 22.9219c-14.7998 14.8008 -22.4326 34.8477 -22.4326 56.5127c0 15.1787 3.74512 31.1504 11.3955 46.6709c6.77832 13.6455 14.9277 27.1426 22.8359 40.2324c7.07227 11.4941 7.04297 11.4414 41.6582 71.8555
c0.0712891 0.133789 0.0712891 0.133789 3.64062 7.0752l46.0674 -79.9854c1.92188 -3.31055 3.65527 -6.23926 10.4131 -16.8076c6.09375 -8.9209 14.5146 -24.1543 18.8184 -34.001c0.0712891 -0.178711 0.149414 -0.348633 0.224609 -0.522461v-0.0439453
c4.33789 -11.1025 5.97461 -24.0059 5.97461 -31.1602c0 -37.8896 -30.3223 -74.3086 -67.6719 -81.1133c-8.11621 -1.47852 -13.7021 -1.63477 -15.8447 -1.63477zM285.684 718.181l14.625 -12.6504l-45.9951 -46.4521l50.2803 -46.2188l-14.2178 -11.8428
l-49.6152 45.6729l-45.5664 -46.3789l-13.3613 14.6104l44.4971 45.251l-43.9512 45.7197l12.8848 12.3242l44.3525 -44.1006zM530.105 253.776c-4.78418 0 -8.57227 -3.90234 -8.57227 -8.54297v-300.105c0 -4.7666 3.91797 -8.54199 8.54199 -8.54199l373.938 -1.50879
c4.70996 0 8.57227 3.82617 8.57227 8.54199l-0.804688 155.248l12.9453 0.793945c13.0273 -0.706055 26.0547 -1.41211 39.083 -2.11719l-51.2236 59.6426v86.5381c0 4.73145 -3.87012 8.54199 -8.50977 8.54199l-212.295 -0.399414
c-0.349609 10.8555 -0.698242 21.7109 -1.04785 32.5654c-0.756836 6.13867 -1.30859 10.4141 -2.72656 21.3984l-57.9814 -52.459l-1.93945 0.0078125s-97.96 0.396484 -97.9805 0.396484zM548.623 -36.3564v263.013l80.8701 -0.34668l63.0283 -53.1514
c-0.633789 23.9238 -0.811523 31.8213 -0.811523 39.3877c0 2.90234 0.00390625 3.60938 0.12207 15.3203l193.667 -2.65625v-66.4404l-54.499 -59.7695c38.1592 1.01172 38.1592 1.01172 54.7812 1.91309l-0.282227 -138.717zM17.3545 -71.4795h55.5146l17.1611 52.2256
l17.1602 -52.2256h55.5156l-44.8672 -32.2959l17.1611 -52.2246l-44.9697 32.2959l-44.9707 -32.2959l17.1611 52.2246zM547.009 501.387c38.1143 31.3555 59.1514 66.6787 108.354 65.4883c44.8623 -1.19043 45.6562 -70.6475 90.4932 -70.252
c42.8779 0.397461 40.4971 70.6494 83.3496 71.4424c53.5938 0.793945 76.6143 -35.3232 119.069 -67.8701c5.56934 -4.36523 -3.16211 -18.2568 -9.52539 -15.4785c-44.8369 19.8457 -57.1406 69.458 -105.972 66.6787
c-43.25 -2.38086 -36.5029 -75.8076 -79.7773 -77.3955c-48.8066 -1.58691 -53.5693 69.0605 -102.4 71.4424c-44.8369 1.98535 -55.1562 -44.4521 -96.4463 -61.917c-6.73535 -2.77734 -13.085 13.0977 -7.14453 17.8613z" />
  </g>

</svg>
