<?xml version="1.0" standalone="no"?>
<!DOCTYPE svg PUBLIC "-//W3C//DTD SVG 1.1//EN" "http://www.w3.org/Graphics/SVG/1.1/DTD/svg11.dtd" >
<svg xmlns="http://www.w3.org/2000/svg" xmlns:xlink="http://www.w3.org/1999/xlink" version="1.1" viewBox="-10 0 1001 1000">
  <g transform="matrix(1 0 0 -1 0 800)">
   <path fill="currentColor"
d="M42.5645 738.611h55.5146l17.1611 52.2256l17.1602 -52.2256h55.5156l-44.8672 -32.2959l17.1611 -52.2246l-44.9697 32.2959l-44.9707 -32.2959l17.1611 52.2246zM816.24 628.059c0 -96.6865 68.0879 -173.199 99.375 -191.775l11.1992 -6.64941
c-16.9434 -0.478516 1.18945 0.900391 -34.5742 -3.5752l-1.0752 1.36426c-22.0068 27.9238 -93.998 110.011 -106.903 207.233c-0.657227 4.95117 0.0224609 9.79688 0.582031 18.2783c-1.38379 0.708984 -2.88672 1.4873 -4.52246 2.34082
c-0.0283203 -1.83984 -0.322266 -3.81641 -0.0449219 -5.88867c33.3789 -249.661 97.5459 -216.742 97.5459 -216.742s6.91211 -4.29004 10.2793 -6.58594h-32.8613c-44.1455 16.1279 -101.697 151.17 -101.697 222.331c0 8.73535 0.302734 15.3135 0.785156 20.6846
c-60.6641 32.3369 -181.179 64.7012 -284.885 64.7012c-23.0527 0 -45.5234 -2.04883 -73.3945 -6.17773c-32.3232 -4.78906 -32.3232 -4.78906 -70.6152 -21.2002c-18.916 -8.10645 -50.2139 -47.4062 -58.166 -66.7188
c-7.02734 -17.0664 -9.0791 -30.2676 -9.0791 -45.8906c0 -22.332 3.62891 -44.376 3.62891 -77.1553c0 -8.99219 1.14648 -13.8564 1.14648 -20.1924c0 -4.57031 -0.613281 -9.64551 -2.73242 -16.6025c-19.9492 -65.4795 -40.3174 -87.0479 -63.832 -110.183
c-6.25977 -6.16016 -27.0508 -26.6172 -27.0508 -37.7881c0 -4.45605 0.882812 -6.9082 38.3447 -19.4531c55.9199 -18.7266 60.0254 -24.4102 60.0254 -90.9766c0 -43.0117 2.70801 -110.013 2.70801 -151.731c0 -5.5 0.0820312 -11.3867 0.267578 -17.7666
c0.50293 -17.292 16.4512 -45.3398 23.8975 -57.5352c1.19629 -0.303711 1.95996 -1.18164 1.95996 -1.18164c1.1543 -0.666992 2.48438 -1.60059 4.13477 -2.74414c16.0508 -11.1162 22.0049 -13.1846 40.8428 -13.1846c24.0361 0 22.3457 4.21484 79.0615 4.21484
c0.316406 0 6.94531 -0.00390625 7.01562 -0.00390625c14.7988 0 25.668 0.226562 52.1025 3.80078c20.2021 2.73242 38.8271 4.61621 56.5088 6.4043c120.938 12.2334 201.711 24.1475 280.178 80.1953c2.23438 1.5957 5.14355 3.85352 8.45703 6.42773
c12.6104 9.7959 33.0303 26.8994 48.1416 26.8994c8.16699 0 13.834 -4.95996 13.834 -14.165c0 -15.4473 -17.4082 -42.8486 -33.0938 -42.8486c-1.16406 0 -1.56543 0.129883 -3.01758 0.129883c-22.6426 0 -44.3604 -36.5264 -79.4766 -51.29
c-52.8857 -22.2344 -138.298 -27.127 -175.459 -33.71c-17.2549 -3.05664 -36.6504 -6.49316 -61.8809 -12.2393c-34.7246 -7.90918 -51.6299 -8.61133 -86.7539 -8.61133c-0.251953 0 -22.7891 0.03125 -25.0811 0.03125c-11.3115 0 -32.6182 -0.123047 -32.9473 -0.123047
c-40.7773 0 -82.5049 2.86621 -120.91 24.8125c-26.0957 14.9121 -27.9092 36.1035 -30.0449 61.0586c-0.477539 5.59082 -0.976562 11.3994 -1.75781 17.3906c-1.96484 15.7158 -2.63672 29.7119 -2.63672 42.8916c0 28.6572 -4.27441 100.664 -4.27441 131.409
c0 46.4277 -4.59863 49 -29.7539 58.8145c-27.3184 10.6582 -57.2148 13.2568 -70.834 26.876c-4.33008 4.33008 -6.66504 9.68945 -6.66504 16.1094c0 4.7959 1.30371 10.1846 4.05176 16.1768c36.4951 79.5967 68.6367 70.0742 91.3711 139.761
c5.20312 15.9443 6.93652 32.2529 6.93652 48.6797c0 32.5635 -6.77832 65.1611 -6.77832 95.8125c0 47.6494 17.2412 68.3838 35.0508 86.1934c66.2422 66.2412 143.674 66.3555 238.901 66.3555h0.988281c82.8154 0 190.135 -23.3467 246.021 -49.8477
c43.5547 -20.6533 21.8506 -15.7109 32.4561 -16.8408c11.3984 -1.2168 39 -13 47.5039 -30.4053c4.31641 -8.83496 -4.12305 -21.668 -4.50391 -29.5947c-0.257812 -5.36523 2 -14.3428 2 -20zM683.24 325.059l-282.24 0.941406v18.624h253.059v105.753h-253.059v18.624
l279.731 -1.56836zM385.216 76.1953c-1.81348 -6.84668 -7.34082 -10.4824 -13.041 -10.4824c-12.1445 0 -22.1416 13.9102 -10.0352 24.2051c1.50781 1.28223 3.34082 2.54883 5.66406 3.10449c1.95801 1.33887 10.957 10.2432 26.1406 25.5977
c-16.3555 12.1074 -16.7676 16.6914 -16.7676 19.4287c0 6.37109 7.73242 14.0176 14.6504 14.0166c4.88574 0 9.1123 -3.85352 8.54688 -11.4609c0 -1.44531 3.83594 -8.13574 7.13379 -6.58984c128.414 122.659 128.414 122.659 128.832 122.994
c0.266602 0.213867 22.8682 17.2881 29.6504 17.2881c3.21875 0 5.59082 -2.5459 5.59082 -5.32715c0 -2.41504 -1.11719 -4.34473 -13.0459 -24.1221l-0.155273 -0.150391c-106.083 -104.349 -131.451 -129.302 -131.451 -130.542
c0 -0.473633 0.202148 -1.53516 2.51465 -3.85352c4.51074 -4.52441 7.09863 -1.11523 12.1387 -3.6123c4.19336 -2.07715 7.47461 -8.92676 0.417969 -16.2295c-1.4082 -1.45703 -5.67676 -5.54785 -11.5498 -5.2627
c-1.70215 0.0820312 -6.35938 0.435547 -18.9736 16.3467c-8.75391 -9.13281 -11.7461 -12.1465 -20.4678 -19.1855c-4.57715 -3.69434 -5.35547 -4.51562 -5.79297 -6.16309v0zM376.723 84.5156c-4.53516 -3.89941 -8.11816 -1.41113 -8.11719 -4.6123
c-0.000976562 -1.53613 1.25098 -3.08887 2.94043 -3.08984c3.12793 0.000976562 1.29004 2.8291 5.17676 7.70215v0zM431.496 96.7197c-0.0439453 0.0078125 -0.206055 0.131836 -0.25 0.140625c0.0917969 -0.0576172 0.176758 -0.105469 0.25 -0.140625zM407.497 122.44
c0.505859 -0.924805 1.35156 -3.1377 -0.458984 -6.01367c-2.96191 -4.70801 -19.5146 -18.9355 -27.9219 -29.3623c4.37305 4.08887 11.2744 8.41504 21.0713 18.8848c7.39746 7.90625 9.13867 9.7666 12.0947 9.7666c1.13867 0 2.09082 -0.362305 2.9541 -0.973633
c0.0410156 1.70215 0.511719 3.51855 1.73633 5.15723c2.49414 3.33789 4.10352 5.46191 81.8418 81.8877c0.505859 0.492188 41.3613 40.2549 49.707 50.0518c-11.6904 -8.75098 -28.0518 -24.5801 -72.5381 -67.8633
c-25.9482 -25.2451 -34.9883 -33.8955 -51.5605 -49.668c-6.22266 -5.92383 -9.41602 -9.07129 -11.623 -10.2861c-1.13281 -0.624023 -2.95898 -1.40137 -5.30273 -1.58105v0zM388.937 138.187c-0.0302734 -0.0419922 -0.0556641 -0.0791016 -0.0771484 -0.113281
c-0.00195312 0.0107422 0.0791016 0.102539 0.0771484 0.113281zM722.044 116.025c6.83496 -1.30273 10.7158 -6.21582 11.0303 -11.4873c0.670898 -11.2314 -12.46 -21.2402 -23.2559 -10.6074c-1.34375 1.32422 -2.69043 2.9502 -3.36621 5.06934
c-1.42383 1.7373 -10.6797 9.57227 -26.6211 22.7744c-11.0068 -15.79 -15.4941 -16.4229 -18.1855 -16.5723c-6.26758 -0.348633 -14.2148 6.38379 -14.5967 12.7822c-0.269531 4.51855 3.28809 8.63867 10.8027 8.53223c1.4209 0.0791016 7.79102 3.99414 6.08887 6.95898
c-127.741 112.048 -127.741 112.048 -128.094 112.416c-0.224609 0.235352 -18.2666 20.2031 -18.6406 26.4756c-0.177734 2.97656 2.19531 5.31055 4.93066 5.46289c2.37598 0.132812 4.33594 -0.794922 24.4482 -10.7441l0.15625 -0.135742
c108.496 -92.3975 134.441 -114.493 135.662 -114.425c0.464844 0.0253906 1.49805 0.271484 3.65137 2.53711c4.20117 4.41895 0.705078 6.62598 2.88281 11.4248c1.8125 3.99219 8.36914 7.40137 15.9414 1.27441c1.51172 -1.22266 5.77051 -4.94629 5.81445 -10.3936
c0.0126953 -1.57812 -0.078125 -5.90527 -15.0322 -18.4434c9.4668 -7.5957 12.5957 -10.1982 20.001 -17.8789c3.88574 -4.03125 4.7373 -4.70605 6.38184 -5.02051v0zM714.329 107.715c4.08496 -3.98047 1.83496 -7.43066 4.98438 -7.25488
c1.51074 0.0839844 2.96973 1.32617 2.87695 2.88867c-0.172852 2.89258 -2.85352 1.03809 -7.86133 4.36621v0zM699.302 157.705c-0.00585938 -0.0419922 -0.119141 -0.198242 -0.124023 -0.239258c0.0507812 0.0878906 0.0927734 0.168945 0.124023 0.239258z
M675.325 134.1c0.881836 0.518555 3.01172 1.42188 5.94141 -0.0947266c4.79395 -2.48242 19.7021 -17.0117 30.4229 -24.2158c-4.26367 3.82031 -8.89941 9.96582 -19.7393 18.4531c-8.18457 6.40918 -10.1113 7.91797 -10.2744 10.6514
c-0.0625 1.05371 0.242188 1.9541 0.794922 2.78613c-1.67676 -0.0556641 -3.48926 0.279297 -5.16895 1.32324c-3.4209 2.12305 -5.59863 3.49609 -85.0645 71.207c-0.512695 0.441406 -41.8789 36.0488 -51.9775 43.2314
c9.25391 -10.333 25.7266 -24.5977 70.7568 -63.3721c26.2646 -22.6152 35.2725 -30.502 51.7021 -44.9658c6.16895 -5.42969 9.44238 -8.21094 10.7588 -10.1865c0.675781 -1.01367 1.54199 -2.65918 1.84766 -4.81738v0zM660.86 116.07
c0.0429688 -0.0253906 0.0820312 -0.046875 0.116211 -0.0654297c-0.0107422 -0.00195312 -0.105469 0.0683594 -0.116211 0.0654297z" />
  </g>

</svg>
