<?xml version="1.0" standalone="no"?>
<!DOCTYPE svg PUBLIC "-//W3C//DTD SVG 1.1//EN" "http://www.w3.org/Graphics/SVG/1.1/DTD/svg11.dtd" >
<svg xmlns="http://www.w3.org/2000/svg" xmlns:xlink="http://www.w3.org/1999/xlink" version="1.1" viewBox="-10 0 1008 1000">
  <g transform="matrix(1 0 0 -1 0 800)">
   <path fill="currentColor"
d="M810.038 697.378c0 1.64746 -1.65625 6.16309 -3.07812 8.01074c-1.96777 1.45996 -6.69629 3.14453 -8.50098 3.14453c-6.52637 0 -11.1973 -4.5293 -15.4258 -8.75879c-1.82422 -1.82324 -4.21875 -2.7373 -6.61328 -2.7373
c-3.85938 0 -5.98828 2.11328 -7.72266 3.84668c-0.359375 0.360352 -6.51172 5.75879 -10.1289 6.95215c-1.65039 0.544922 -2.72949 0.691406 -4.0625 0.691406c-1.7207 0 -6.25684 -1.55957 -8.40234 -3.08105c-0.914062 -1.44336 -0.945312 -1.54785 -3.125 -9.04199
c0.179688 -2.78906 1.49805 -8.48145 7.7832 -14.5439l25.6787 -24.7705l25.4971 24.541c2.75781 2.7627 8.10059 8.19141 8.10059 15.7471zM743.438 750.651c0.331055 -5.87598 0.129883 -13.6318 -0.382812 -22.4785c8.3584 2.95703 20.1133 3.7002 33.2305 -5.48828
c8.93262 6.34766 15.252 7.45703 22.0957 7.5918c9.40332 0 19.5283 -4.99316 23.8311 -9.47168c9.23828 -9.61035 17.5312 -32.5947 -5.21289 -54.8047c-26.8867 -26.2549 -30.0928 -29.1973 -31.0068 -29.998c-5.41504 -5.2002 -13.8799 -5.21582 -19.3457 0.078125
l-29.0439 28.127c-0.994141 -11.5137 -1.7793 -22.2061 -2.00977 -30.8262c-0.09375 -3.49023 -0.353516 -19.1523 2.48047 -20.668c0.324219 -0.113281 0.583008 -0.291992 0.523438 -0.789062c9.20898 -98.9971 102.682 -191.717 107.881 -193.622
c0.169922 -0.0625 -0.322266 0.0136719 -0.322266 0.0136719l-0.488281 -0.25293l-0.264648 -0.597656l1.55371 -0.866211l-17.5117 -11.6748c-1.94922 2.12402 -2.88672 3.14648 -7.35742 7.98633c-35.5156 38.4502 -74.21 80.3906 -104.311 182.503
c-8.31836 -48.3086 -38.1201 -101.278 -64.9883 -135.4c-17.3301 -22.0088 -23.2012 -37.5156 -39.0713 -55.1484l-20.71 16.3955c12.2129 15.832 20.0449 26.5664 30.8691 41.5049c6.09961 8.41992 11.7227 16.1807 17.7295 24.0713
c73.5107 96.5615 75.71 223.811 75.1611 288.473l21.3789 -0.47168c1.89844 -0.0400391 5.125 -0.957031 5.00879 -6.74414c-0.0341797 -1.67676 -0.182617 -9.16406 0.282227 -17.4414h0.000976562zM332.481 97.6934l-82.2217 148.848l24.0225 10.1475l58.4395 -100.383
l53.3027 101.418l27.2285 -11.0254zM249.568 -67.707v34.6641h38.626v22.0713h-38.626v34.6641h38.626v33.7148h31.3828v-33.7148h23.2197v31.2539h31.3828v-31.2539h41.292v-34.6641h-41.292v-22.0713h41.292v-34.6641h-41.292v-36.1855h-31.3828v36.1855h-23.2197
v-33.7246h-31.3828v33.7246h-38.626zM319.577 -33.043h23.2197v22.0713h-23.2197v-22.0713zM764.659 223.904c-0.529297 0 -0.985352 0.173828 -1.32227 0.358398l-214.094 -88.2627v-37.8242c12.126 5.10742 24.251 10.2148 36.376 15.3213v-3.77051l-0.21875 -161.659
h318.305l0.646484 155.446c10.9619 -6.48535 21.9238 -12.9697 32.8867 -19.4551l-0.677734 40.7051l-136.33 79.1182l1.46387 0.616211c-22.6963 11.7715 -24.457 12.7314 -36.2109 19.5508c-0.288086 -0.102539 -0.56543 -0.144531 -0.824219 -0.144531zM868.594 -16.7148
h-248.003l-0.665039 144.662l142.009 59.8174l107.859 -63.8086zM38.3545 -39.4795h55.5146l17.1611 52.2256l17.1602 -52.2256h55.5156l-44.8672 -32.2959l17.1611 -52.2246l-44.9697 32.2959l-44.9707 -32.2959l17.1611 52.2246zM307.5 539l-84 82.5l16 16.5l67.5 -62
l120 152l18 -12.5z" />
  </g>

</svg>
