<?xml version="1.0" standalone="no"?>
<!DOCTYPE svg PUBLIC "-//W3C//DTD SVG 1.1//EN" "http://www.w3.org/Graphics/SVG/1.1/DTD/svg11.dtd" >
<svg xmlns="http://www.w3.org/2000/svg" xmlns:xlink="http://www.w3.org/1999/xlink" version="1.1" viewBox="-10 0 1025 1000">
  <g transform="matrix(1 0 0 -1 0 800)">
   <path fill="currentColor"
d="M556.495 612.033l112.118 -202.969l111.894 210.921l-16.8086 11.3369l-93.6973 -177.637l-96.9277 170.117zM980.174 357.123l-0.925781 25.9131l-658.607 -5.4541v-24.9951zM590.077 84.457c10.7988 7.17188 10.7988 7.17188 12.627 8.49805
c0 0 -6.85352 6.43262 -6.95703 6.5332c-10.6738 10.6748 -62.7793 65.3994 -70.0879 131.973l-1.83496 0.981445c-0.323242 10.3779 -0.323242 10.3779 -0.323242 12.9453c0 25.1055 5.5332 40.5342 5.5332 84.5137c0 2.25098 -0.000976563 6.12305 -0.157227 13.3252
l-0.00878906 0.419922l0.0429688 0.256836c-1.16309 2.46484 -2.79688 2.62598 -3.52637 2.64062l-15.1406 0.333984c0.00390625 -1.24219 0.00683594 -2.5 0.00683594 -3.77441c0 -108.396 -23.042 -159.094 -53.9531 -201.622
c-3.57031 -4.91211 -17.4482 -24.0088 -33.7695 -45.4668l14.6367 -11.5879c14.7285 16.9473 13.4043 20.8887 27.6973 39.0391c21.3779 27.1504 28.1592 43.1172 47.1133 87.7402c28.2383 -68.4922 31.2949 -75.6729 78.1016 -126.749zM831.299 245.383
c0 25.1084 5.53613 40.5371 5.53613 84.5186c0 2.24902 -0.00292969 6.12402 -0.157227 13.3262l-0.00878906 0.418945l0.0419922 0.256836c-1.16211 2.46094 -2.79297 2.62402 -3.52734 2.63867l-15.1387 0.334961
c0.00292969 -1.24414 0.00585938 -2.50488 0.00585938 -3.78125c0 -108.805 -23.2402 -159.373 -54.042 -201.737c-3.69727 -5.08496 -17.4863 -24.0518 -33.6816 -45.3447l14.6377 -11.5879c14.5889 16.7959 13.6309 21.1729 27.6973 39.0391
c21.373 27.1475 28.1562 43.1104 47.1162 87.7402c28.1758 -68.3447 31.2168 -75.5977 78.1123 -126.765l10.0293 6.6875c0.673828 1.06055 1.17383 1.86426 1.61328 2.52441c-1.54102 1.69922 -5.57031 5.56543 -5.62695 5.62207
c-14.7256 14.7256 -63.3701 67.6191 -70.4453 132.177l-1.83789 0.980469c-0.324219 10.3867 -0.324219 10.3867 -0.324219 12.9512zM228.549 443.713c2.625 -46.6484 -19.542 -179.524 -6.50195 -186.499c12.8027 -137.637 146.059 -266.235 146.228 -261.273
l-22.5801 -15.0527c-50.8008 55.4092 -107.485 110.247 -150.679 260.393c-9.61523 -66.1113 -50.9111 -140.158 -88.0156 -187.28c-22.5762 -28.6719 -32.2559 -51.6094 -51.6104 -73.1123l-25.8047 20.4287c29.0303 37.6318 45.3262 61.8867 64.5127 87.0908
c97.9639 128.684 102.062 297.639 101.302 387.146c9.11621 -0.200195 18.2314 -0.401367 27.3486 -0.602539c5.12891 -0.110352 5.33691 -5.0957 5.42578 -7.22461c0.0107422 -0.240234 -0.333008 -11.4404 0.375 -24.0137zM42.3545 738.521h55.5146l17.1611 52.2256
l17.1602 -52.2256h55.5156l-44.8672 -32.2959l17.1611 -52.2246l-44.9697 32.2959l-44.9707 -32.2959l17.1611 52.2246zM147.251 659z" />
  </g>

</svg>
