<?xml version="1.0" standalone="no"?>
<!DOCTYPE svg PUBLIC "-//W3C//DTD SVG 1.1//EN" "http://www.w3.org/Graphics/SVG/1.1/DTD/svg11.dtd" >
<svg xmlns="http://www.w3.org/2000/svg" xmlns:xlink="http://www.w3.org/1999/xlink" version="1.1" viewBox="-10 0 1043 1000">
  <g transform="matrix(1 0 0 -1 0 800)">
   <path fill="currentColor"
d="M45.001 748.1c5.23633 0 42.7637 -34 48 -34l19 -12l520.999 -280.314v271.354l314 2.38867v55.583l-841.85 -2.02344zM375.608 155.104c0 -69.7559 56.6279 -126.392 126.392 -126.392c69.7607 0 126.392 56.6328 126.392 126.392
c0 69.7559 -56.6279 126.392 -126.392 126.392c-69.7607 0 -126.392 -56.6328 -126.392 -126.392zM609.753 296.769h321.411v-52.7725h-273.985c10.5664 -19.2715 18.9336 -42.5352 22.4639 -63.0605h251.521v-52.7734h-251.598
c-3.67578 -20.5459 -12.2383 -43.8066 -22.9912 -63.0596h274.589v-52.7734h-321.411c-29.8281 -21.2256 -73.5645 -36.3291 -107.753 -36.3291s-77.9248 15.1035 -107.753 36.3291h-321.411v52.7734h273.985c-10.5664 19.2715 -18.9336 42.5352 -22.4639 63.0596h-251.521
v52.7734h251.598c3.67578 20.5459 12.2393 43.8066 22.9912 63.0605h-274.589v52.7725h321.411c29.8281 21.2266 73.5635 36.3301 107.753 36.3301s77.9248 -15.1035 107.753 -36.3301z" />
  </g>

</svg>
