<?xml version="1.0" standalone="no"?>
<!DOCTYPE svg PUBLIC "-//W3C//DTD SVG 1.1//EN" "http://www.w3.org/Graphics/SVG/1.1/DTD/svg11.dtd" >
<svg xmlns="http://www.w3.org/2000/svg" xmlns:xlink="http://www.w3.org/1999/xlink" version="1.1" viewBox="-10 0 949 1000">
  <g transform="matrix(1 0 0 -1 0 800)">
   <path fill="currentColor"
d="M508 344c-10 0 -19 1 -28 1h-6l2 27c29 -3 48 -2 66 1c14 2 36 12 46 22c26 26 23 58 18 96c0 3 -5 28 -4 54c1 28 17 59 24 67c15 17 44 35 68 40c18 4 45 7 80 6v-26h-13c-17 0 -45 -3 -61 -6c-17 -3 -41 -17 -53 -31c-9 -12 -18 -36 -19 -51c-1 -19 1 -33 3 -49
c5 -42 11 -86 -27 -121v0c-14 -13 -40 -24 -59 -27c-2 0 -19 -3 -37 -3zM632 271c-10 0 -19 1 -27 1h-7l2 27c28 -3 46 -1 64 1c13 2 36 11 46 21c25 25 22 57 17 94c-1 5 -5 29 -4 53c1 27 17 57 24 65c15 17 43 34 66 39c18 4 45 7 79 6v-26h-13c-16 0 -44 -3 -60 -6
s-40 -17 -52 -30c-9 -12 -16 -35 -17 -50c0 -19 1 -31 3 -48c5 -40 10 -83 -27 -118v0c-14 -13 -39 -23 -58 -26c-4 -1 -19 -3 -36 -3zM264 452h146v0h7l-9 -468v-28h-31l-118 1v28l118 -1l10 443l-123 1v24zM68 -131h56l17 52l17 -52h56l-45 -33l17 -52l-45 32l-45 -32
l17 52zM778 -107c0 -60 -50 -123 -125 -125v0v0c-27 0 -64 15 -83 34c-23 23 -35 54 -35 87c0 43 18 73 46 119c5 9 10 17 15 26c36 63 36 64 38 67c9 17 12 23 21 23h4c8 -3 9 -7 16 -20c58 -105 60 -104 69 -119c0 -1 22 -34 29 -57c3 -10 5 -25 5 -35zM653 -206
c57 0 99 50 99 98c0 0 0 20 -7 38c-6 14 -14 27 -24 42c-9 14 -8 14 -65 112v0c-43 -76 -44 -76 -53 -90c-26 -44 -42 -70 -42 -106c0 -8 0 -41 27 -67c14 -14 45 -27 65 -27z" />
  </g>

</svg>
