<?xml version="1.0" standalone="no"?>
<!DOCTYPE svg PUBLIC "-//W3C//DTD SVG 1.1//EN" "http://www.w3.org/Graphics/SVG/1.1/DTD/svg11.dtd" >
<svg xmlns="http://www.w3.org/2000/svg" xmlns:xlink="http://www.w3.org/1999/xlink" version="1.1" viewBox="-10 0 991 1000">
  <g transform="matrix(1 0 0 -1 0 800)">
   <path fill="currentColor"
d="M671.216 64.9844c0.596 0.0244 38.247 0.0039 38.258 0.0224c-11.598 48.6432 -8.339 64.3052 -4.109 77.9532c0.039 0.123 3.312 11.438 3.758 12.33l27.353 54.705c-14 216.999 -14 216.999 -13.921 217.932c4.599 54.594 8.609 118.276 3.921 159.068
c-12.191 48.416 -42.438 38.199 -49.503 22.713c-2.497 -5.473 -5.31 -6.117 -12.573 -7.781c-5.644 -5.049 -14.523 -3.944 -18.746 2.415c-5.293 7.971 -29.78 45.889 -30.424 47.149c-8.855 17.344 -43.015 28.014 -49.544 -6.319
c-0.236 -1.241 -0.236 -1.241 -11.896 -29.662c-4.344 -10.588 -19.659 -10.148 -23.38 0.678l-21.934 63.807c-5.864 17.058 -42.449 30.679 -61.776 -1.623c-0.356 -1.064 -2.966 -8.976 -17.069 -53.209c-3.066 -9.615 -15.861 -11.812 -21.942 -3.642
c-18.041 24.242 -18.041 24.242 -18.359 24.56c-0.119 0.12 -20.605 20.572 -32.211 8.966c-6.356 -6.356 -9.951 -21.872 -11.534 -31.387c0.045 -1.427 0.328 -9.847 1.892 -50.687c0.93 -25.432 2.061 -79.781 2.085 -80.587c7.439 -53.018 3.998 -54.673 7.866 -83.04
c0.282 -1.091 2.427 -9.358 13.567 -51.529c0.109 -0.414 1.127 -24.024 -2.103 -29.514c-7.941 -13.5 -8.492 -14.437 -13.731 -15.637c-20.735 -4.751 -27.296 -0.574 -34.307 9.154c-3.606 5.004 -28.134 29.586 -30.6 32.431l-51.399 59.307
c-1.39 0.919 -8.522 5.592 -29.981 19.185c-1.254 0.38 -7.261 2.174 -25.398 7.252c-5.071 -2.782 -11.116 -1.105 -15.702 -5.69c-3.327 -3.327 -7.165 -14.473 -5.944 -20.785l28.357 -38.137c5.463 -5.121 34.492 -30.425 35.914 -32.144
c42.375 -51.244 42.375 -51.244 42.579 -51.521c30.796 -41.723 30.796 -41.723 31.027 -42.085c27.769 -43.638 27.769 -43.638 28.162 -44.548l21.447 -49.718c5.925 -9.185 28.831 -43.746 29.444 -44.911c9.65 -18.3359 9.65 -18.3359 10.014 -19.8603
c7.181 -30.0898 58.035 -31.5879 58.702 -31.6006l55.626 -0.9931zM709.476 40h-37.476c-168.6 -7.0029 -168.6 -7.0029 -168.974 -6.9961l-56.025 1.001c-8.896 0.167 -69.625 3.0068 -82.125 49.1435l-7.959 15.1211c-29.126 44.1845 -28.631 42.7215 -30.393 46.8065
l-21.215 49.18l-26.475 41.603l-30.081 40.754l-41.31 49.957c-35.487 31.43 -35.487 31.43 -37.046 33.526l-29 39c-10.346 13.913 -3.124 41.062 8.7 52.886c6.932 6.933 13.469 9.05 23.161 10.834c5.361 2.397 11.395 2.812 16.989 1.246
c26.384 -7.388 26.958 -6.998 31.595 -9.935c28.312 -17.931 30.46 -18.608 34.515 -22.663c0.473 -0.473 -0.608 -1.462 52.582 -60.599c27.713 -30.812 28.795 -29.823 32.774 -35.216c0.658 0.059 1.56 0.171 2.7 0.356l1.339 2.277l0.598 14.944
c-13.331 50.445 -13.183 49.051 -13.635 52.345c-4.166 30.33 -0.502 30.763 -7.988 83.914c-0.115 0.818 -1.612 65.722 -2.227 82.525c-1.999 52.22 -2.478 50.162 -1.698 54.993c2.434 15.082 8.043 49.843 37.411 56.037c24.418 5.15 48.088 -17.774 51.336 -22.138
l3.636 -4.886c9.758 30.962 9.445 30.756 11.732 34.645c30.226 51.409 94.478 34.482 107.195 -2.512l10.73 -31.216c14.969 50.3 75.179 42.811 94.338 6.546c0.224 -0.346 21.522 -33.435 22.325 -34.671c21.014 27.161 74.23 31.741 91.207 -35.678
c0.27 -1.075 0.469 -2.165 0.595 -3.261c5.118 -44.539 0.845 -108.233 -3.768 -163.122l13.88 -215.131c0.282 -4.372 -0.578 -8.804 -2.581 -12.809l-26.746 -53.493c-0.769 -2.981 -1.669 -5.958 -2.855 -9.785c-3.329 -10.741 -6.843 -16.93 4.549 -64.7048
c3.746 -15.7051 -8.157 -30.8242 -24.31 -30.8242zM458.975 271.25zM458.782 268.98zM597.449 245.371c0 -17.5869 -5.73145 -34.7412 -20.6357 -49.6455c-6.67383 -6.67285 -12.2998 -11.3076 -17.4648 -14.5039c30.3896 5.41406 69.9668 19.4775 95.8604 64.4307
c-5.62305 9.74219 -12.3945 18.5811 -20.3682 26.5537c-17.4678 17.4678 -41.8662 31.8115 -74.1416 37.7568c-0.404297 0.0742188 -0.263672 -0.491211 -1.55762 -0.104492c-0.856445 0.255859 -3.40527 1.01855 -7.05566 1.64941
c7.85059 -3.0918 16.207 -8.17676 24.4277 -16.3965c14.5479 -14.5479 20.9355 -31.3857 20.9355 -49.7402zM525.139 194.35c19.7773 0 31.209 9.49121 37.3535 15.6357c12.9551 12.9561 14.7969 26.5898 14.7969 35.5879
c-0.0449219 12.8896 -4.39062 24.8193 -14.7949 35.2217c-21.1143 21.1172 -46.2793 16.3545 -57.6699 11.4326c-0.109375 0 -16.0312 -10.5049 -16.1934 -10.6104c-4.14941 -6.04004 -8.22852 -12.1514 -12.3506 -18.2188l-0.0410156 0.015625
c-6.68359 -18.5059 -3.45312 -38.6719 11.6562 -53.7822c10.4238 -10.4248 22.874 -15.2822 37.2432 -15.2822zM528.383 156.747v-0.000976562c-18.8896 0 -81.4492 0.90332 -131.901 51.3564c-11.251 11.251 -20.1309 23.415 -28.0771 37.5498
c-0.0273438 0.0478516 -0.0537109 0.0957031 -0.0810547 0.144531l0.0810547 -0.144531c9 16.0088 18.2012 27.7686 28.8623 38.4307c24.459 24.457 65.6973 50.6816 131.116 50.6816c16.8535 0 80.6211 -0.296875 131.076 -50.752
c11.5088 -11.5088 20.5469 -23.9443 28.5527 -38.3594c0.0263672 -0.0488281 0.0517578 -0.0957031 0.0791016 -0.143555l-0.0791016 0.143555c-4.27734 -7.70703 -12.9688 -22.6113 -28.0117 -37.6533c-50.0078 -50.0078 -111.709 -51.2529 -131.617 -51.2529z
M496.195 310.112c-52.625 -9.57031 -79.6807 -37.9365 -94.9844 -64.459c6.53906 -11.2852 13.9199 -20.0156 20.3828 -26.4785c15.1885 -15.1895 37.8809 -30.3594 70.8184 -37.1074c-6.25488 3.06836 -12.7686 7.43652 -19.002 13.6699
c-24.0361 24.0361 -23.6777 54.3008 -16 74.3779c0.116211 0.175781 0.0664062 0.289062 -0.114258 0.350586c-0.290039 1.54785 4.21191 9.19238 4.9502 11.0742c0.920898 2.34668 2.01465 3.48633 3.77344 5.07324c1.23047 1.11133 1.25195 1.13281 2.08887 2.53027
c1.25488 2.09277 1.31152 2.21387 6.79785 7.69922c4.31738 4.31641 14.4229 10.6865 21.2891 13.2695zM347.364 218.023zM690.494 173.208z" />
  </g>

</svg>
