<?xml version="1.0" standalone="no"?>
<!DOCTYPE svg PUBLIC "-//W3C//DTD SVG 1.1//EN" "http://www.w3.org/Graphics/SVG/1.1/DTD/svg11.dtd" >
<svg xmlns="http://www.w3.org/2000/svg" xmlns:xlink="http://www.w3.org/1999/xlink" version="1.1" viewBox="-10 0 1032 1000">
  <g transform="matrix(1 0 0 -1 0 800)">
   <path fill="currentColor"
d="M63.3545 -23.4795h55.5146l17.1611 52.2256l17.1602 -52.2256h55.5156l-44.8672 -32.2959l17.1611 -52.2246l-44.9697 32.2959l-44.9707 -32.2959l17.1611 52.2246zM323.917 41.6191c-4.47363 0 -8.32812 3.64746 -8.32812 8.3291v292.603
c0 4.48828 3.65918 8.3291 8.35645 8.3291c0 0 82.0684 -0.332031 97.4229 -0.393555l56.5332 51.1475l2.64941 -20.6416l1.95117 -36.0742l206.065 4.49023c4.46191 0.0976562 8.29688 -3.66406 8.29688 -8.3291v-84.374l49.9424 -58.1514l-38.1055 2.06348
l-13.6504 1.9502l1.81348 -154.091c0.0527344 -4.47754 -3.67285 -8.32812 -8.35742 -8.32812zM674.576 199.643l-25.3496 -3.90039l-31.9082 4.23047l53.1367 58.2764v64.7783l-186.004 2.39062l-0.974609 -30.2256l-1.17578 -22.9141l-61.4512 51.8213l-78.8496 0.337891
v-256.438l328.455 -1.41113zM629.714 762.86l-126.088 -127.338l137.215 -126.128l-17.8633 -14.8789l-137.369 126.453l-124.24 -126.453l-12.9736 14.1885l122.66 124.739l-120.582 125.433l15.9395 15.2461l121.968 -121.275l127.512 121.968zM498.577 541.84
c-114.18 0 -207.098 40.0586 -207.098 89.3125c0 49.2529 92.918 89.3125 207.098 89.3125c114.179 0 207.097 -40.0596 207.097 -89.3125c0 -49.2539 -92.918 -89.3125 -207.097 -89.3125zM498.577 710.707c-106.587 0.376953 -193.291 -35.4629 -193.291 -79.5547
c0 -44.0928 86.7041 -79.9316 193.291 -79.9316c106.586 0 193.291 35.8389 193.291 79.9316c0 44.0918 -86.7051 79.9316 -193.291 79.9316v-0.376953z" />
  </g>

</svg>
