<?xml version="1.0" standalone="no"?>
<!DOCTYPE svg PUBLIC "-//W3C//DTD SVG 1.1//EN" "http://www.w3.org/Graphics/SVG/1.1/DTD/svg11.dtd" >
<svg xmlns="http://www.w3.org/2000/svg" xmlns:xlink="http://www.w3.org/1999/xlink" version="1.1" viewBox="-10 0 1151 1000">
  <g transform="matrix(1 0 0 -1 0 800)">
   <path fill="currentColor"
d="M891.034 619.508c-2.39258 -3.39746 -3.63184 -4.95508 -5.96777 -7.04688c9.71191 -8.2041 15.501 -13.1777 25.4727 -22.083c-4.69629 -7.03809 -14.4902 -21.7148 -14.4902 -44.8789c0 -11.3779 2.48242 -22.1758 6.93457 -31.8887l1.40723 -3.06836
c-8.32812 -4.19629 -15.3184 -7.7627 -31.2148 -16.6201c2.74316 -3.78125 3.93457 -5.76953 5.04297 -8.54688c12.0635 7.2959 19.1699 11.3828 30.7783 17.3916c3.16602 -4.33398 5.3916 -7.37988 9.62695 -11.6152c16.4639 -16.4639 35.916 -20.7109 45.1006 -21.7832
l3.23047 -0.376953c-0.90918 -20.6396 -1.12695 -27.1699 -1.33789 -34.5898c5.71875 -0.418945 7.62109 -0.529297 10.2031 -0.557617c-0.0488281 5.08887 -0.0751953 9.6875 -0.0751953 13.8613c0 7.85645 0.0439453 12.0859 0.335938 21.1533
c9.51562 0.797852 30.8955 2.59082 50.8682 22.5645c2.81348 2.8125 4.59277 4.5918 10.1895 12.4199c11.1816 -8.07617 16.8887 -12.1729 24.8613 -17.8428c2.48535 3.47754 3.59277 5.14258 5.54688 8.55762c-8.69531 6.76953 -14.4375 10.9941 -25.5713 17.9717
c2.92676 6.81348 7.39355 17.21 7.39355 32.5068c0 17.042 -5.85645 30.3369 -9.06836 36.3438l-1.53125 2.8623c0.261719 0.166992 17.0518 10.8027 26.2822 16.4521c-1.84473 3.01074 -2.90918 4.59082 -4.8291 7.17383
c-14.3125 -8.29102 -17.1611 -9.94238 -26.375 -16.2871c-3.27246 3.9707 -4.50488 5.4668 -7.19531 8.15723c-17.5352 17.5352 -38.208 21.3906 -48.1729 22.1729l-3.06641 0.240234c-0.625 12.5684 -0.818359 19.0098 -0.818359 26.2988
c0 2.28223 0.0253906 4.24707 0.0605469 5.98633l-9.02441 -0.214844c-0.148438 -5.38672 -0.205078 -10.3223 -0.205078 -15.1016c0 -3.47461 0 -5.95312 0.186523 -17.2148c-8.47656 -1.12793 -28.5332 -3.7959 -46.9961 -22.1816l-2.41211 -2.40137
c-12.5762 11.9443 -17.8281 16.4434 -25.1699 22.1855zM972.404 478.271c-36.0156 0.0214844 -66.9307 29.5947 -66.9307 67.2246c0 37.1064 30.1201 67.2256 67.2266 67.2256c37.1006 0 67.2246 -30.1143 67.2246 -67.2139
c-0.15918 -37.1133 -30.4131 -67.2363 -67.5205 -67.2363zM476.646 608.335zM476.428 605.742zM632.205 578.759c0 20.3125 -6.99512 38.7949 -23.1367 54.9365c-9.13477 9.13477 -18.3594 14.7324 -27.001 18.1367l-24.5244 9.65918
c30.293 -5.2334 30.293 -5.2334 34.2715 -6.4209c0.436523 0.149414 1.00879 0.268555 1.58105 0.162109c37.4209 -6.89258 65.8135 -23.5586 86.1504 -43.8955c10.5352 -10.5361 17.7617 -20.6045 24.4873 -32.2559c-17.5312 -30.4336 -47.5049 -64.7656 -112.195 -76.2939
l-13.9072 -2.47852c12.5693 7.71484 19.5791 11.4961 31.4814 23.623c16.5117 16.5117 22.793 35.3428 22.793 54.8271zM552.264 517.749c-17.0674 0 -32.0654 5.84766 -44.4727 18.2559c-18.0381 18.0391 -21.9082 42.2686 -13.9512 64.2939l0.923828 2.55762
l0.616211 -0.228516c12.5039 18.457 12.5039 18.457 13.2363 19.5215c19.5439 12.7949 19.5439 12.7949 19.8027 12.8281c13.8008 5.80371 43.5342 11.0879 68.4463 -13.8242c12.3857 -12.3857 17.6445 -26.7959 17.6973 -42.1641
c0 -10.6768 -2.26074 -27.1406 -17.7012 -42.5811c-7.24707 -7.24609 -21.0439 -18.6592 -44.5977 -18.6592zM735.311 579.079c-9.60156 17.0391 -56.3096 99.1445 -179.339 99.1445c-73.9883 0 -120.391 -29.585 -147.938 -57.1318
c-11.7324 -11.7324 -21.8545 -24.583 -31.793 -42.0117c8.79004 -15.4111 18.5811 -28.6914 30.8926 -41.0029c45.6895 -45.6895 101.866 -57.9043 148.838 -57.9043c22.5859 0.000976563 92.1631 1.43945 148.51 57.7852c16.1162 16.1162 25.7627 32.0977 30.8291 41.1211z
M520.138 650.222c-7.36133 -2.76855 -18.8896 -10.0635 -23.374 -14.5469c-5.99023 -5.99023 -5.99023 -5.99023 -7.36035 -8.27637c-1.14844 -1.91797 -1.39746 -2.1582 -2.89648 -3.50977c-2.10742 -1.9043 -2.81641 -2.76562 -3.60742 -4.78223
c-0.620117 -1.58008 -4.33691 -8.31055 -5.37793 -11.2041c0.137695 -0.679688 0.0410156 -1.35352 -0.140625 -1.83105c-8.48047 -22.2021 -8.89453 -55.5605 17.6738 -82.1279c6.89941 -6.89941 14.0908 -11.7197 20.9971 -15.1084l18.9844 -9.31348l-20.7197 4.24512
c-38.1992 7.82715 -64.6191 25.4639 -82.2998 43.1445c-10.4912 10.4922 -17.7842 20.5693 -24.5049 32.167c12.6143 21.8623 40.7373 63.5146 111.188 76.3252zM26.3545 -53.4795h55.5146l17.1611 52.2256l17.1602 -52.2256h55.5156l-44.8672 -32.2959l17.1611 -52.2246
l-44.9697 32.2959l-44.9707 -32.2959l17.1611 52.2246zM335.287 152.125l-82.2217 148.848l24.0225 10.1475l58.4395 -100.383l53.3027 101.418l27.2285 -11.0254zM252.374 -13.2754v34.6641h38.626v22.0713h-38.626v34.6641h38.626v33.7148h31.3828v-33.7148h23.2197
v31.2539h31.3828v-31.2539h41.292v-34.6641h-41.292v-22.0713h41.292v-34.6641h-41.292v-36.1855h-31.3828v36.1855h-23.2197v-33.7246h-31.3828v33.7246h-38.626zM322.383 21.3887h23.2197v22.0713h-23.2197v-22.0713zM879 -39h-323.297l0.216797 164.161
c-12.123 -5.10645 -24.2471 -10.2129 -36.3701 -15.3193v43.2637l216.847 89.3984c0.620117 -0.28125 1.39551 -1.04395 1.56934 0.0556641c14.0449 -8.15234 14.0449 -8.15234 42.4219 -22.8662l-1.75293 -0.737305l133.207 -77.3066l0.775391 -46.5869
c-10.9932 6.50293 -21.9854 13.0059 -32.9785 19.5098zM595.885 1.21582h243.036l1.16699 136.753l-105.537 62.4346l-139.312 -58.6816z" />
  </g>

</svg>
