<?xml version="1.0" standalone="no"?>
<!DOCTYPE svg PUBLIC "-//W3C//DTD SVG 1.1//EN" "http://www.w3.org/Graphics/SVG/1.1/DTD/svg11.dtd" >
<svg xmlns="http://www.w3.org/2000/svg" xmlns:xlink="http://www.w3.org/1999/xlink" version="1.1" viewBox="-10 0 999 1000">
  <g transform="matrix(1 0 0 -1 0 800)">
   <path fill="currentColor"
d="M828.399 483.872c0 9.49878 0.360099 25.4826 0.360099 28.905l-0.318652 61.3747l-8.69455 54.78l-24.0577 41.7601l-29.8355 19.1251l-33.9409 8.02542l-47.9505 1.85133v0.765382l-107.704 8.96128l-161.614 -4.8437l-135.511 -48.0118l4.97421 -24.8711
l90.1513 34.2037l168.519 13.9909l163.859 -8.05849l72.0585 -32.0852l24.6852 -76.5829c-11.2968 -92.7231 -11.5388 -94.7093 -10.6225 -98.1968c0.272553 -1.03738 0.408327 -1.98777 0.495372 -2.92219c0.487753 -0.641757 1.13403 -1.58506 1.4862 -2.05622
l30.4464 -40.7334l38.0432 -60.0682l23.93 -33.502l-96.7113 -80.2498l-3.19974 -219.288c0.962733 -7.56244 2.78458 -22.0112 5.01798 -45.877c-0.12894 -0.269919 -9.65147 -20.9678 -12.8349 -27.02c-1.80565 -3.43278 -3.36365 -6.39475 -8.94453 -11.1259
c-28.726 -6.87192 -37.6748 -9.01268 -53.7943 -9.01268c-3.38415 0 -6.77838 0.14333 -10.1737 0.446144l-127.95 -3.2205l-189.706 31.9736l-119.91 72.0259l-21.8729 31.5454c-0.18608 0.126152 -14.9542 10.3475 -18.5829 12.6523v-31.4635
c5.41685 -3.87145 13.5068 -7.36272 24.4398 -17.2503c7.32645 -6.62591 2.09556 -4.45645 10.6241 -11.9264c1.03002 -0.902171 1.03002 -0.902171 17.2005 -21.8062l70.2643 -41.1391l123.979 -35.7692l40.8353 -3.74581
c52.8258 -4.90757 59.0669 -6.73248 83.0467 -7.42728l68.08 -1.97257l89.7606 0.254271l51.1066 12.4914l15.1376 25.2075l6.27671 34.16l-0.268638 82.9487l0.0291888 84.2282l-0.00582149 87.5189l84.7837 67.8016l7.68593 8.96692l1.11464 7.19504
c0.44913 7.61262 -1.52476 12.8022 -3.31214 18.1783l-23.3304 38.8443l-33.0243 43.448l-34.3179 48.9016c-0.202711 16.1296 -0.202711 16.1296 -0.202711 17.6951zM454.229 575.968l71.5469 -129.519l70.2246 129.551l-14.0596 5.69336l-55.5664 -105.723
l-60.9648 104.721zM416.808 242.218c-0.0605469 0.0517578 -0.114258 0.0976562 -0.166992 0.137695zM356.349 256.615c0.185547 -0.207031 0.319336 -0.349609 0.389648 -0.424805zM598.367 144.577c-1.14648 -1.7959 0.164062 0.439453 -1.58789 -0.889648
l1.02051 -0.65332c0.0634766 -0.0400391 -2.28711 -9.20801 -0.679688 -16.8486c0.749023 -3.5625 2.68457 -3.31055 2.69629 -6.23535c0.015625 -3.33594 -0.743164 -1.6416 -1.34473 -4.36523c-5.51367 -7.01855 -7.65625 -7.36523 -14.0762 -8.40332
c-10.5029 -1.7002 -27.8057 -0.689453 -43.6875 -4.63574c-4.66992 -0.391602 -44.3975 -2.88184 -49.4883 -1.54395c-2.57422 0.676758 -5.50977 0.458984 -7.50879 -0.789062c-12.7646 2.81445 -34.2783 16.2041 -36.3809 23.4873l0.0244141 1.94336l-0.685547 1.72461
l-1.11914 1.40527c-9.49023 16.2119 -18.6543 28.8447 -18.8887 29.0996c-0.698242 4.76758 -2.89746 7.06348 -2.89746 7.59668c0 6.56152 -18.8154 39.8838 -22.6289 42.8164c-0.238281 0.18457 -15.7158 17.793 -20.0781 22.4639
c-0.139648 0.25 -5.63867 8.07227 -20.1289 20.1934c-2.50098 2.09375 -1.53613 3.76465 -4.5791 5.67188c-7.51855 8.42188 -4.52051 8.01562 -7.36621 12.2783c0.337891 9.91016 14.7695 14.8496 14.9717 14.9092c1.75586 0.0498047 6.49023 -0.19043 7.5 -0.421875
c4.67773 -1.06836 8.32031 -5.87695 12.2451 -7.77637c5.28418 -7.1748 28.9326 -29.1562 29.1602 -29.5029c1.04785 -2.34473 3.05371 -3.4873 3.94824 -3.88379c3.25488 -2.86523 4.14453 -6.87207 9.11816 -8.66602c2.01465 -2.06152 5.52832 -2.8252 8.66699 -1.92383
c0.616211 -0.106445 0.616211 -0.106445 5.80078 -1.14258l1.44824 1.57129c0.935547 3.00391 -0.597656 12.7012 -3.66309 13.8418c-0.824219 4.66016 -1.09082 5.9668 -1.17383 6.26367c0.902344 1.75195 1.78809 4.44629 0.0302734 7.06055
c-0.131836 0.664062 -5.14355 61.042 -6.82324 67.2061c-0.0244141 1.56836 1.10938 5.7373 0.00488281 8.34863c0.732422 5.52734 0.147461 24.0859 0.661133 31.0713c0 3.11328 3.14062 7.84473 6.29492 15.9326c2.23535 3.06641 2.23535 3.06641 7.0166 4.67676
c3.50098 -0.196289 3.58496 -0.62207 4.08105 -0.978516c1.2002 -0.862305 1.2002 -0.862305 5.70508 -3.3252c0.568359 -0.746094 2.84082 -4.59961 2.87012 -4.64551c3.10547 -9.50781 5.25586 -26.374 6.52441 -38.8916l7.48828 14.0391l2.12695 5.97852
c2.78516 7.81934 3.58398 21.9297 7.7793 32.0684c2.7998 6.76758 4.66016 8.72754 11.0742 11.1797c5.51758 -0.225586 5.75195 -0.53125 7.04492 -1.62305c0.0800781 -0.277344 9.72363 -18.6377 11.9297 -26.2119l-0.629883 -4.03809l1.58984 0.0566406
c0.0205078 -0.0996094 0.512695 -5.55469 1.31836 -10.0664l0.999023 -0.104492c0.234375 -3.49512 0.234375 -3.49512 -0.0517578 -5.6875c0.256836 -0.0419922 0.672852 0.0380859 0.579102 -0.276367c4.6709 0.261719 6.38477 -24.9893 9.59277 -23.5947
c6.21387 2.70117 1.37305 35.7861 3.81738 35.6406c1.76953 -0.104492 0.492188 3.14355 0.619141 4.17871c0.369141 3 1.41309 1.93359 2.31836 6.2041c1.27539 6.03516 9.95605 16.7305 10.0332 16.9121c3.36133 3.26465 7.80469 4.47461 9.58594 3.10352
c10.0098 -11.1836 15.623 -38.4668 15.2773 -56.6787c2.13867 -0.0234375 2.61523 -7.00195 2.80859 -8.64062c3.87402 -32.8643 5.98047 23.7314 8.24414 20.0684l1.90723 3.28613c2.0459 3.52148 13.7031 16.3838 17.5703 19.3594
c1.02051 0.785156 1.23145 0.869141 6.00488 0.0761719c3.22852 -2.00879 5.81348 -6.30859 5.9209 -6.53223c5.32715 -11.0449 -1.34668 -77.7666 -1.41309 -88.9756c-1.91992 -6.38184 -1.07715 -17.2852 -0.644531 -19.957c0 -14.3936 2.3457 -39.4023 2.63867 -41.5
c-2.61035 -4.81152 4.0166 -24.5908 2.38086 -39.0312c-0.421875 -3.72559 -12.9131 -33.2734 -12.9131 -33.2734zM437.173 381.781c0.03125 0.0449219 0.03125 0.078125 0.0351562 0.0869141c-0.00195312 -0.00390625 -0.0136719 -0.0341797 -0.0351562 -0.0869141z
M599.327 383.086l-0.870117 -5.04492l2.89941 0.805664zM497.343 401.339l0.341797 -0.0380859c-0.0869141 0.0136719 -0.204102 0.0195312 -0.341797 0.0380859zM560.872 377.051c0 -0.0458984 0.0292969 -0.0927734 0.0302734 -0.09375
c-0.00976562 0.0273438 -0.0302734 0.0595703 -0.0302734 0.09375zM426.634 157.771c0 -0.0205078 0.0478516 -0.0410156 0.0507812 -0.0615234zM459.626 113.257zM569.465 393.773l0.0615234 -0.119141c-0.0136719 0.0283203 -0.0332031 0.0683594 -0.0615234 0.119141z
M477.584 405.984l0.0419922 0.0332031c-0.0136719 -0.00976562 -0.0273438 -0.0214844 -0.0419922 -0.0332031zM415.339 261.278l0.0488281 -0.0498047c-0.0175781 0.0175781 -0.0488281 0.0498047 -0.0488281 0.0498047zM365.198 294.722l0.141602 -0.0302734
c-0.0292969 0.00292969 -0.141602 0.0302734 -0.141602 0.0302734zM356.415 238.805c0 0 -0.0283203 0.0214844 -0.0292969 0.0234375c0.0078125 -0.0078125 0.015625 -0.0234375 0.0292969 -0.0234375zM355.967 239.232
c0.841797 -0.842773 2.87695 -2.16797 5.7959 -5.08789c6 -6.00098 7.23438 -10.3721 14.5459 -17.3818c5.34082 -5.12109 4.44336 -5.76074 12.5762 -15.8672c16.5527 -20.583 25.1465 -52.7324 37.7578 -66.1279c2.98926 -6.44629 -0.49707 -4.53027 2.81934 -9.22168
c0.0800781 -0.248047 0.0800781 -0.248047 2.375 -6.12305l-1.99219 -2.07422c-0.0292969 -0.0302734 -0.860352 -1.93457 -0.464844 -5.15039c0.467773 -3.80566 2.33691 -8.05566 4.0459 -9.7627c2.52246 -1.79883 0.246094 -2.16211 4.41992 -3.46289
c22.583 -16.0771 141.937 -5.83105 157.803 0.133789c6.63867 0.0898438 14.6396 7.50781 17.8467 13.9766c4.44922 8.97168 -2.99316 15.8213 -0.259766 29.5459c-1.3252 2.57031 -0.236328 4.54883 3.62598 11.5635c2.84766 5.16797 4.37109 7.93652 4.73242 10.1006
c4.61035 5.80273 4.24219 13.9277 1.82129 41.0498c0.771484 1.53418 0.771484 1.53418 0.52832 2.5459c-3.16113 13.1289 -3.53418 35.0234 -3.1377 55.7793c0.171875 8.92383 1.41406 41.834 2.42285 50.5479c1.46191 12.6201 0.101562 44.2373 -0.427734 48.2783
c-0.714844 5.43945 -2.56152 13.8564 -7.23535 15.8789c-0.119141 0.0439453 -5.0293 3.42773 -11.6621 5.10547c-1.49609 0.37793 -5.85742 1.47949 -8.99023 -0.00976562c-5.33496 -0.666992 -11.457 -5.59961 -12.6885 -6.86816l-5.72461 -5.89844l-1.88477 7.99316
c-2.72656 11.5713 -2.21191 10.084 -4.69043 14.1084c-1.46191 2.59961 -2.36719 4.21289 -4.85352 6.69824c-3.81836 3.81836 -4.5 2.59277 -6.57812 4.07422c-5.31152 3.78027 -14.4893 3.375 -18.5742 0.888672c-5.61328 -2.51953 -6.57422 -2.95117 -8.55469 -4.93066
c-1.46094 -1.46191 -1.78125 -1.85742 -12.0791 -14.5791l-2.04199 9.05566c-0.612305 2.71191 -0.658203 3.61426 -4.72461 8.19141c-5.25098 5.91309 -5.46387 6.15234 -11.1992 7.53223c-1.16504 0.279297 -2.62305 0.630859 -3.63965 2.29883
c-4.08105 6.67871 -8.15625 5.43359 -17.0137 -3.28906c-4.47852 -4.41211 -4.50781 -3.50098 -9.67285 -8.66504c-3.43555 -3.43652 -3.74805 -4.04004 -6.58105 -9.5166l-4.04785 2.23828c-15.4307 8.52539 -25.6895 3.43945 -32.2217 -3.09277
c-3.85547 -3.85547 -6.42188 -8.77441 -6.86328 -10.7803c0.0986328 -1.14941 -0.321289 -1.78223 -0.807617 -2.34766c-7.01465 -9.99023 -2.96582 -66.2148 0.698242 -93.9121c0 0 -0.154297 -1.76562 0.288086 -2.18359
c1.29395 -5.95508 1.43457 -6.60547 1.87793 -27.5742l-7.96582 8.33594c-0.817383 0.811523 -15.542 15.1484 -25.6553 23.0771c-5.73535 4.49707 -9.86719 6.95801 -13.084 8.31836c-5.94531 2.51367 -9.61914 1.64746 -11.3203 2.05273
c-0.446289 0.0654297 -12.2119 1.77637 -27.0215 -14.6709c-8.63574 -9.59277 3.57812 -24.707 3.85059 -24.9502c0.308594 -0.325195 0.75 -0.517578 0.889648 -1.0127v0.00195312v-0.00195312c1.80566 -2.19727 10.2002 -12.0918 12.9375 -14.8281zM433.674 102.205
l-4.35938 0.875977c0.914062 0.299805 2.68457 0.580078 4.35938 -0.875977zM343.029 254.062c-0.250977 0.375 -0.0234375 0.0292969 -0.0234375 0.0292969c0.00683594 -0.00976562 0.0234375 -0.0292969 0.0234375 -0.0292969zM613.235 142.629
c0.225586 1.13672 0.225586 1.13672 0.972656 3.72168l1.20312 -4.04199l6.08398 -0.195312c-4.02148 -3.84277 -7.29883 -1.35059 -8.25977 0.515625zM428.979 120.177zM586.153 91.6445zM494.548 221.329c0 -6.83984 7.2002 -12.2402 15.8418 -12.2402
c8.63867 0 15.8389 5.40039 15.8389 12.2402c0 6.83887 -7.2002 12.2393 -15.8389 12.2393c-8.6416 0 -15.8418 -5.40039 -15.8418 -12.2393zM37.3545 728.521h55.5146l17.1611 52.2256l17.1602 -52.2256h55.5156l-44.8672 -32.2959l17.1611 -52.2246l-44.9697 32.2959
l-44.9707 -32.2959l17.1611 52.2246z" />
  </g>

</svg>
