<?xml version="1.0" standalone="no"?>
<!DOCTYPE svg PUBLIC "-//W3C//DTD SVG 1.1//EN" "http://www.w3.org/Graphics/SVG/1.1/DTD/svg11.dtd" >
<svg xmlns="http://www.w3.org/2000/svg" xmlns:xlink="http://www.w3.org/1999/xlink" version="1.1" viewBox="-10 0 943 1000">
  <g transform="matrix(1 0 0 -1 0 800)">
   <path fill="currentColor"
d="M446.136 279.522c-4.78418 0 -8.57227 -3.90234 -8.57227 -8.54297v-300.105c0 -4.7666 3.91797 -8.54199 8.54199 -8.54199l373.938 -1.50879c4.70996 0 8.57227 3.82617 8.57227 8.54199l-0.804688 155.248l12.9453 0.793945
c13.0273 -0.706055 26.0547 -1.41211 39.083 -2.11719l-51.2236 59.6426v86.5381c0 4.73145 -3.87012 8.54199 -8.50977 8.54199l-212.295 -0.399414c-0.349609 10.8555 -0.698242 21.7109 -1.04785 32.5654c-0.756836 6.13867 -1.30859 10.4141 -2.72656 21.3984
l-57.9814 -52.459l-1.93945 0.0078125s-97.96 0.396484 -97.9805 0.396484zM464.653 -10.6104v263.013l80.8701 -0.34668l63.0283 -53.1514c-0.633789 23.9238 -0.811523 31.8213 -0.811523 39.3877c0 2.90234 0.00390625 3.60938 0.12207 15.3203l193.667 -2.65625
v-66.4404l-54.499 -59.7695c38.1592 1.01172 38.1592 1.01172 54.7812 1.91309l-0.282227 -138.717zM31.0078 -73.0898h55.5146l17.1611 52.2256l17.1602 -52.2256h55.5156l-44.8672 -32.2959l17.1611 -52.2246l-44.9697 32.2959l-44.9707 -32.2959l17.1611 52.2246z
M606 561.907h-25.6338v-24.3252h25.6338v24.3252zM530.998 514c-2.4209 0 -4.49902 2.07715 -4.49902 4.49902v14.584c0 2.4209 2.07715 4.49902 4.49902 4.49902h28.4443v24.3252h-28.4443c-2.4209 0 -4.49902 2.07715 -4.49902 4.5v14.583
c0 2.4209 2.07715 4.49902 4.49902 4.49902h28.4443v23.9717c0 2.4209 2.07715 4.49902 4.49902 4.49902h11.9258c2.41992 0 4.49902 -2.07715 4.49902 -4.49902v-23.9717h25.6338v21.9023c0 2.4209 2.07715 4.49902 4.49902 4.49902h11.9238
c2.4209 0 4.5 -2.07715 4.5 -4.49902v-21.9023h30.7021c2.4209 0 4.49902 -2.07715 4.49902 -4.49902v-14.583c0 -2.4209 -2.07715 -4.5 -4.49902 -4.5h-30.7021v-24.3252h30.7021c2.4209 0 4.49902 -2.07715 4.49902 -4.49902v-14.584
c0 -2.4209 -2.07715 -4.49902 -4.49902 -4.49902h-30.7021v-26.0615c0 -2.41992 -2.07715 -4.49902 -4.5 -4.49902h-11.9238c-2.4209 0 -4.49902 2.07715 -4.49902 4.49902v26.0615h-25.6338v-23.9922c0 -2.4209 -2.07715 -4.49902 -4.49902 -4.49902h-11.9258
c-2.41992 0 -4.49902 2.07715 -4.49902 4.49902v23.9922h-28.4443zM405.246 456.122v224.638c0 3.2959 3.56836 4.90918 5.74121 6.16504c9.49512 5.48242 91.3994 52.1523 179.921 -36.3691c0.72168 -0.72168 1.44434 -1.45312 2.16699 -2.19238
c0.864258 0.887695 1.72852 1.76367 2.59082 2.62598c93.2637 93.2646 174.454 36.1865 176.002 35.0537c1.72559 -1.29492 4.20312 -2.58887 4.20312 -5.4043v-225.716c0 -3.33887 -4.15234 -5.97168 -7.25879 -3.55566l-9.68457 7.53223
c-2.10156 1.59766 -65.6074 50.2812 -150.018 -34.1289c-4.98633 -4.98633 -9.99316 -11.0762 -15.1699 -16.2529c-1.84863 -1.84863 -4.85352 -1.68164 -6.52441 0.169922c-4.33105 4.7998 -8.92383 9.89453 -13.3643 14.335
c-78.2422 78.2422 -148.426 37.541 -152.649 35.1318l-9.02051 -5.81641c-3.08594 -1.98926 -6.93555 0.532227 -6.93555 3.78418zM472.607 491.357c33.0361 0 76.1426 -12.8379 117.933 -55.2754c0.996094 1.02539 1.99023 2.03418 2.9834 3.02734
c48.2871 48.2871 92.1982 57.4062 121.44 55.7236c11.7197 -0.567383 27.8076 -4.47363 40.0234 -9.49316v186.512c-16.0049 9.26074 -73.835 34.8496 -144.315 -35.6309c-4.71777 -4.71777 -9.41504 -10.4385 -14.2891 -15.3135
c-1.84961 -1.84863 -4.85449 -1.68164 -6.52539 0.169922c-4.34961 4.82031 -8.96973 9.93457 -13.4268 14.3916c-70.5449 70.5449 -133.092 45.2061 -150.181 36.1504v-188.38c14.0889 4.7207 33.0244 8.11816 46.3574 8.11816zM208.469 671.66
c0.723633 -17.292 -3.62891 -55.3828 -4.66211 -63.9375c4.73926 -16.8398 13.5449 -31.8574 27.2773 -45.5898c12.041 -12.04 27.9365 -23.1152 48.2168 -33.3604c4.92578 -2.48926 0.775391 -9.0166 -0.672852 -12.5264
c-0.898438 -2.17773 -3.77344 -3.52148 -6.19434 -2.29492c-22.1006 11.1982 -40.0195 23.5752 -53.875 37.4307c-10.873 10.8721 -19.2119 22.6465 -25.0234 35.3711c3.49219 -28.2637 -22.4512 -37.1514 -37.5654 -52.2656
c-7.89648 -7.89551 -16.1201 -14.7012 -24.1855 -19.6631c-2.10547 -1.29492 -4.86719 -0.523438 -6.11035 1.35059l-4.5498 6.86426c-1.42285 2.14648 -0.617188 5.02734 1.32422 6.27344c10.3271 6.62793 19.4785 13.9297 27.4717 21.9229
c29.6699 29.6699 43.8633 69.2061 42.2402 120.949c-0.178711 5.6709 6.5293 4.59668 11.8779 4.47949c1.55176 -0.0419922 2.57617 -0.831055 3.0625 -1.31738c2.64258 -2.64258 1.36816 -1.44238 1.36816 -3.68652z" />
  </g>

</svg>
