<?xml version="1.0" standalone="no"?>
<!DOCTYPE svg PUBLIC "-//W3C//DTD SVG 1.1//EN" "http://www.w3.org/Graphics/SVG/1.1/DTD/svg11.dtd" >
<svg xmlns="http://www.w3.org/2000/svg" xmlns:xlink="http://www.w3.org/1999/xlink" version="1.1" viewBox="-10 0 978 1000">
  <g transform="matrix(1 0 0 -1 0 800)">
   <path fill="currentColor"
d="M503.17 602.337c3.43848 -61.0859 -25.5908 -235.091 -8.51367 -244.224c16.7646 -180.239 191.267 -348.642 191.488 -342.146l-29.5684 -19.7109c-66.5254 72.5615 -140.753 144.372 -197.317 340.991c-12.5928 -86.5742 -66.6689 -183.541 -115.259 -245.248
c-29.5654 -37.5459 -42.2402 -67.583 -67.584 -95.7432l-33.792 26.751c38.0166 49.2803 59.3545 81.043 84.4805 114.049c128.286 168.514 133.652 389.767 132.657 506.979c11.9375 -0.263672 23.875 -0.526367 35.8125 -0.790039
c6.7168 -0.143555 6.99023 -6.67188 7.10547 -9.46094c0.0146484 -0.313477 -0.4375 -14.9805 0.490234 -31.4473zM801.922 637.136l-248.836 -280.772l32.6035 -25.9805l211.969 246.288c17.6074 -29.1963 42.7334 -63.7119 51.0996 -86.3691l59.4814 84.8154z
M271.753 275.353c10.9951 10.6602 29.3232 29.6504 29.3232 59.6533c0 11.3545 -7.05273 29.1426 -14.876 37.5371c-10.0586 8.83398 -34.8916 19.6455 -56.8486 12.168c-16.5664 -5.45898 -33.0273 -21.1387 -35.3848 -23.4961
c-4.60449 -4.60449 -5.54297 -6.82812 -9.38086 -6.88574c-2.8457 0 -2.8457 0 -6.91113 4.06543c-6.45703 6.45703 -28.8633 28.8633 -56.0469 28.8633c-13.8984 0 -33.1699 -9.25781 -39.04 -15.1289c-4.78516 -4.78418 -10.4062 -23.6289 -12.7139 -31.9619
c-0.636719 -2.29785 -1.16016 -4.2168 -1.66699 -5.77734c0.296875 -31.3838 21.8984 -52.043 34.7412 -64.3252c54.0137 -51.6553 75.3613 -72.2939 81.6436 -78.668c6.89258 6.36035 35.8574 34.2168 87.1611 83.9561zM121.055 413.638
c14.4639 0 34.8877 -2.40137 62.9541 -25.332c7.0625 5.76172 19.1367 13.8457 19.3105 13.6533c46.3564 27.5801 90.6523 0.250977 100.94 -10.0371c0.966797 -0.966797 60.1533 -63.2588 -14.2598 -135.922c-81.3096 -79.3955 -87.4014 -84.6797 -88.7412 -85.8379
c-11.2432 -9.72168 -24.9141 -8.78223 -33.333 -0.628906l-90.9639 88.0859c-6.2168 6.2168 -11.8535 11.7646 -14.2285 17.0928c-9.31543 12.4453 -21.251 29.0566 -21.251 60.4346c0 23.8584 13.4346 47.1953 21.9785 55.7383
c10.999 10.999 35.3691 22.7529 57.5938 22.7529zM210.59 716.505c1.2627 -22.4336 -7.74219 -81.3936 -5.23047 -95.668c0.770508 -0.875977 1.56445 -2.23145 1.72852 -3.98535c5.23145 -56.2568 51.2754 -111.696 69.0869 -129.507
c3.60547 -3.60547 3.60547 -3.60547 14.0586 -11.6914c-1.22754 -0.802734 -1.22754 -0.802734 -19.9932 -13.3145c-2.84668 -1.90039 -6.69922 -1.45703 -9.03418 1.08984c-30.0791 32.7197 -53.7002 58.416 -74.6094 118.096
c-9.44629 -29.4131 -26.6836 -58.2959 -42.6045 -78.5156c-11.126 -14.1289 -19.8799 -31.4688 -28.2031 -39.793c-2.53711 -2.53711 -6.54395 -2.71484 -9.28906 -0.542969c-14.1436 11.1963 -14.1436 11.1963 -14.4336 11.4873
c-2.5166 2.51562 -2.71289 6.47656 -0.598633 9.21973c7.94727 10.3027 34.1816 46.1582 34.5322 46.6201c50.7832 66.708 53.252 155.368 52.8457 203.106c-0.0341797 3.9502 3.20312 7.14551 7.1543 7.05664c18.7012 -0.416016 18.7012 -0.416016 21.4033 -3.11816
c2.02734 -2.02734 3.06055 -5.03613 2.99219 -8.46777c-0.0234375 -1.15625 -0.125977 -6.3916 0.194336 -12.0723z" />
  </g>

</svg>
