<?xml version="1.0" standalone="no"?>
<!DOCTYPE svg PUBLIC "-//W3C//DTD SVG 1.1//EN" "http://www.w3.org/Graphics/SVG/1.1/DTD/svg11.dtd" >
<svg xmlns="http://www.w3.org/2000/svg" xmlns:xlink="http://www.w3.org/1999/xlink" version="1.1" viewBox="-10 0 1002 1000">
  <g transform="matrix(1 0 0 -1 0 800)">
   <path fill="currentColor"
d="M485.578 81.8203c-45.1152 -22.2402 -45.5938 -22.4355 -50.3164 -22.4355c-2.79102 0 -8.36914 0.732422 -12.5977 5.97266c-0.552734 0.681641 -48.4453 69.4707 -50.2305 71.9102c-2.91797 3.9873 -6.53125 8.21094 -6.53125 14.8828
c0 9.22949 6.08203 13.3711 17.416 21.0898c60.9844 41.9766 138.502 95.4629 148.064 102.691h39.3945c6.29688 0 11.5254 0.0117188 15.9102 0.0117188c18.1465 0 21.8496 -0.216797 27.1211 -2.44531c0.00195312 0 0.4375 -0.164062 0.4375 -0.164062
c3.23242 -1.19336 19.418 -6.67188 39.5996 -6.67188h2.04102c13.3516 0 20.6406 1.19141 38.457 9.26953h73.0469c1.70703 -1.17188 140.971 -96.8594 169.867 -118.513c-13.7676 -20.792 -20.2422 -30.8428 -38.7695 -61.5459
c-8.72266 -14.459 -13.9883 -23.8604 -18.7285 -28.6025c-4.95117 -4.9502 -10.498 -5.02051 -11.541 -5.02051c-3.9082 0 -28.3574 6.88867 -68.0117 18.3174c22.4492 -247.406 22.4492 -247.406 22.4492 -247.896v-18.4795h-352.652
c2.16016 28.0674 2.16016 28.0674 3.92383 60.7266c0.00195312 0 3.52734 63.0938 3.52734 63.0938l3.54492 61.9873c0 0.0078125 3.10156 55.4268 4.57812 81.8203zM783.941 -148.492c-0.220703 2.55273 -23.0801 252.213 -23.0801 255.143
c0 8.9668 4.95898 15.25 11.6523 17.3086v2.54688c3.36523 -0.859375 6.73047 -1.71875 10.0957 -2.5791l-0.0449219 -0.179688c14.7188 -3.50781 56.3594 -15.8906 76.4629 -21.3154l28.1523 45.5469c-3.85156 2.66992 -8.13477 5.62891 -11.9434 8.24219
c-64.1094 44.542 -64.1094 44.542 -118.785 82.4141c-3.4707 0.121094 -11.3848 0.310547 -26.3711 0.310547c-9.21484 0 -18.4297 0.00488281 -27.6426 0.00488281c-12.6914 -4.83105 -25.1523 -9.15332 -46.8848 -9.15332c-13.668 0 -26.8027 0.220703 -55.3926 9.15332
h-29.1875c-13.9473 0 -23.3477 -0.192383 -27.7168 -0.34668c-17.207 -11.668 -107.234 -73.9189 -132.521 -91.4316c6.87109 -9.83105 16.1582 -23.2324 31.4805 -45.3379c15.1289 7.37695 51.5977 25.2305 59.0312 28.585
c2.07227 1.30469 5.88281 1.57129 6.74609 1.57129c0.115234 0 0.15625 -0.0214844 0.15625 -0.0214844c9.12695 0 16.4141 -6.90918 16.4141 -18.1436c0 -0.40918 -1.30469 -21.4189 -2.36328 -40.7803l-12.5391 -221.686
c22.75 -0.123047 66.2266 -0.181641 112.707 -0.181641zM73.7852 -203.855c0.258789 0.577148 65.2705 137.67 144.471 304.65c79.2002 166.979 145.732 307.617 147.849 312.528c4.9707 11.5342 8.43848 20.5996 17.4805 45.6982
c9.97266 27.6836 13.6553 37.124 20.3848 52.2627c11.8076 26.5615 22.7217 44.4102 35.9707 58.8291c13.8691 15.0928 26.5586 21.3252 36.5039 17.9277c14.375 -4.90918 17.2588 -29.5928 7.16895 -61.377c-2.1543 -6.78906 -5.78809 -16.417 -6.19824 -16.4248
c-0.295898 -0.00488281 -7.9502 6.45215 -13.3877 11.2969c-2.23926 1.99414 -2.88672 2.86719 -2.71875 3.66797c0.12207 0.577148 1.29883 4.20117 2.61719 8.05273c3.50391 10.2393 4.33398 14.1094 4.3916 20.4854c0.0478516 5.3252 0.0234375 5.45117 -1.26172 6.69727
c-1.70117 1.64941 -2.38281 1.60352 -5.93457 -0.391602c-2.1377 -1.20215 -4.3291 -3.20312 -7.90625 -7.22266c-18.2197 -20.4707 -39.5762 -65.3369 -40.54 -85.168c-0.277344 -5.72168 0.400391 -8.10645 2.4707 -8.69141
c2.85547 -0.805664 8.5957 3.34277 14.4883 10.4707c3.84766 4.6543 12.2197 16.918 14.9678 21.9248c0.94043 1.71289 1.875 3.11523 2.0752 3.11523c0.200195 0 0.958984 -0.554688 1.68555 -1.23242c0.725586 -0.677734 4.31836 -3.76855 7.98242 -6.86816
c4.18164 -3.53711 6.54297 -5.86523 6.34277 -6.25293c-0.174805 -0.338867 -2.21094 -3.80762 -4.52441 -7.70801c-7.1709 -12.0879 -13.0059 -20.9336 -28.7236 -43.5459c-21.3311 -30.6885 -25.0117 -36.627 -44.4658 -71.748
c-7.52051 -13.5781 -24.6055 -44.4238 -37.9648 -68.5469c-13.3604 -24.1221 -28.8086 -52.0137 -34.3301 -61.9805c-5.52148 -9.9668 -19.4004 -35.0215 -30.8418 -55.6768c-11.4424 -20.6562 -28.4678 -51.3838 -37.8359 -68.2842
c-9.36816 -16.9004 -24.2266 -43.7275 -33.0195 -59.6172c-8.79297 -15.8887 -23.7158 -42.835 -33.1631 -59.8789c-25.9463 -46.8145 -63.5107 -114.635 -84.6602 -152.851c-16.8594 -30.4619 -20.9844 -37.7324 -19.373 -34.1416zM581.874 429.868
c-41.7686 4.02734 -89.376 30.7227 -141.208 79.1807l-5.28027 4.93652l1.27246 2.45801c2.7793 5.36816 7.76953 13.75 8.18555 13.75c0.243164 0 2.37695 -1.85156 4.74219 -4.11523c16.1201 -15.4258 36.4482 -32.0508 52.8799 -43.2471
c40.5996 -27.665 77.1797 -38.5713 106.967 -31.8916c5.69043 1.27637 14.416 4.49121 19.5498 7.20312c26.0078 13.7402 46.6611 45.6904 58.0039 89.7295c4.7793 18.5557 7.75 36.8467 9.83984 60.585c1.01367 11.5146 1.42578 48.2324 0.700195 62.3447
c-1.9248 37.4248 -7.41406 76.29 -15.9629 113.022c-1.03223 4.43848 -1.79492 8.16406 -1.69336 8.27832c0.101562 0.114258 1.88965 -5.52637 3.97266 -12.5361c21.4111 -72.0381 30.1797 -144.98 24.5771 -204.463
c-2.63867 -28.0273 -7.89355 -48.5654 -18.4111 -71.9609c-19.0498 -42.376 -48.2773 -67.5234 -84.5459 -72.7441c-5.49512 -0.791016 -17.9766 -1.07129 -23.5889 -0.530273zM4.2959 453.137c0.128906 0.137695 3.9248 1.80176 8.4375 3.69922
c34.9648 14.6992 61.7695 30.8379 83.8164 50.4639c20.8672 18.5762 37.4326 38.6162 74.2813 89.8643c20.2197 28.1221 27.1846 37.2539 36.0176 47.2285c19.0137 21.4707 34.6729 31.291 53.3467 33.4551c21.1631 2.45215 46.5 -8.75879 75.8467 -33.5596
c18.4561 -15.5977 30.9443 -28.502 64.8291 -66.9883c14.5391 -16.5137 19.2285 -22.1416 18.8936 -22.6768c-0.244141 -0.390625 -2.43359 -4.02832 -4.86621 -8.08301l-4.42188 -7.37207l-2.88379 2.99805c-1.58594 1.64844 -11.8799 13.2256 -22.875 25.7256
c-25.0156 28.4385 -36.6592 40.6855 -50.8779 53.5117c-20.4258 18.4268 -37.4932 29.1768 -53.8174 33.8965c-5.64062 1.63086 -6.41309 1.72559 -13.9131 1.69727c-7.00781 -0.0253906 -8.46484 -0.1875 -12.4023 -1.37891
c-18.4824 -5.5918 -31.9492 -18.7393 -62.0273 -60.5547c-29.1328 -40.5029 -44.0361 -58.7402 -62.9404 -77.0215c-33.2744 -32.1768 -71.2891 -53.1133 -114.167 -62.8779c-8.46387 -1.92773 -10.5723 -2.34375 -10.2764 -2.02734z" />
  </g>

</svg>
