<?xml version="1.0" standalone="no"?>
<!DOCTYPE svg PUBLIC "-//W3C//DTD SVG 1.1//EN" "http://www.w3.org/Graphics/SVG/1.1/DTD/svg11.dtd" >
<svg xmlns="http://www.w3.org/2000/svg" xmlns:xlink="http://www.w3.org/1999/xlink" version="1.1" viewBox="-10 0 861 1000">
  <g transform="matrix(1 0 0 -1 0 800)">
   <path fill="currentColor"
d="M173.188 230.357l103.991 8.13379l-5.72559 -100.857l-16.4541 0.366211l5.81934 72.6523l-64.6602 -66.4785c56.3652 -60.1816 136.2 -97.4092 222.52 -97.46c169.25 0 307.213 137.382 307.935 306.633c0 169.229 -137.377 306.586 -306.612 306.586
c-169.256 0 -306.611 -137.373 -306.611 -306.611c0 -75.0859 26.9902 -143.163 71.1299 -195.989l65.2383 64.1592l-75.4531 -7.13379zM433.279 460.333c1.00977 -17.9473 -6.19336 -65.1152 -4.18457 -76.5342c0.616211 -0.701172 1.25195 -1.78516 1.38281 -3.18848
c4.18555 -45.0059 41.0205 -89.3574 55.2695 -103.605c2.88477 -2.88477 2.88477 -2.88477 11.2471 -9.35352c-0.982422 -0.641602 -0.982422 -0.641602 -15.9941 -10.6514c-2.27734 -1.52051 -5.35938 -1.16602 -7.22754 0.87207
c-24.0635 26.1758 -42.96 46.7324 -59.6875 94.4766c-7.55762 -23.5303 -21.3467 -46.6367 -34.084 -62.8125c-8.90039 -11.3037 -15.9033 -25.1748 -22.5625 -31.835c-2.0293 -2.0293 -5.23535 -2.17188 -7.43066 -0.433594
c-11.3154 8.95703 -11.3154 8.95703 -11.5469 9.18945c-2.01367 2.0127 -2.1709 5.18164 -0.479492 7.37598c6.3584 8.24219 27.3457 36.9268 27.626 37.2959c40.627 53.3662 42.6016 124.295 42.2764 162.485c-0.0273438 3.16016 2.5625 5.71582 5.72363 5.64551
c14.9609 -0.333008 14.9609 -0.333008 17.123 -2.49512c1.62109 -1.62207 2.44824 -4.02832 2.39355 -6.77441c-0.0185547 -0.924805 -0.100586 -5.11328 0.155273 -9.65723v0zM757.832 353.327c0 -186.462 -151.331 -337.826 -337.832 -337.826
c-96.8125 0 -184.162 40.791 -245.778 106.118l-53.8916 -55.4082l-13.4668 14.751l55.1885 54.2754c-49.8271 58.8613 -79.8848 134.986 -79.8848 218.096c0 189.551 155.795 337.826 336.502 337.826c186.482 0 338.421 -151.332 339.163 -337.832v0z" />
  </g>

</svg>
