<?xml version="1.0" standalone="no"?>
<!DOCTYPE svg PUBLIC "-//W3C//DTD SVG 1.1//EN" "http://www.w3.org/Graphics/SVG/1.1/DTD/svg11.dtd" >
<svg xmlns="http://www.w3.org/2000/svg" xmlns:xlink="http://www.w3.org/1999/xlink" version="1.1" viewBox="-10 0 1008 1000">
  <g transform="matrix(1 0 0 -1 0 800)">
   <path fill="currentColor"
d="M332.481 97.6934l-82.2217 148.848l24.0225 10.1475l58.4395 -100.383l53.3027 101.418l27.2285 -11.0254zM249.568 -67.707v34.6641h38.626v22.0713h-38.626v34.6641h38.626v33.7148h31.3828v-33.7148h23.2197v31.2539h31.3828v-31.2539h41.292v-34.6641h-41.292
v-22.0713h41.292v-34.6641h-41.292v-36.1855h-31.3828v36.1855h-23.2197v-33.7246h-31.3828v33.7246h-38.626zM319.577 -33.043h23.2197v22.0713h-23.2197v-22.0713zM764.659 223.904c-0.529297 0 -0.985352 0.173828 -1.32227 0.358398l-214.094 -88.2627v-37.8242
c12.126 5.10742 24.251 10.2148 36.376 15.3213v-3.77051l-0.21875 -161.659h318.305l0.646484 155.446c10.9619 -6.48535 21.9238 -12.9697 32.8867 -19.4551l-0.677734 40.7051l-136.33 79.1182l1.46387 0.616211c-22.6963 11.7715 -24.457 12.7314 -36.2109 19.5508
c-0.288086 -0.102539 -0.56543 -0.144531 -0.824219 -0.144531zM868.594 -16.7148h-248.003l-0.665039 144.662l142.009 59.8174l107.859 -63.8086zM38.3545 -39.4795h55.5146l17.1611 52.2256l17.1602 -52.2256h55.5156l-44.8672 -32.2959l17.1611 -52.2246
l-44.9697 32.2959l-44.9707 -32.2959l17.1611 52.2246zM716.225 409.209c-1.38574 0 -2.50098 1.125 -2.50098 2.49902l2.39844 69.0293c-6.97266 8.34668 -14.125 16.1592 -21.168 23.8516c-31.0508 33.9141 -60.1094 65.7266 -60.21 129.897
c-0.0849609 53.4785 19.3691 80.8379 30.2637 91.9199c34.4336 33.6602 79.8916 42.1211 103.517 42.1211c2.14844 0 4.86621 1.82227 7.69727 1.68848c69.8301 -3.28516 84.7324 -8.80762 120.311 -39.7539c4.59277 -3.99512 5.92871 -7.25098 6.52637 -10.3262
c0.107422 -0.554688 0.167969 -0.771484 0.189453 -0.838867c16.3027 -18.8115 27.7412 -68.251 28.6279 -82.6299c0.0605469 -0.974609 0.207031 -2.10742 0.375 -3.3877c0.476562 -3.62109 1.10742 -8.40527 0.0537109 -14.4258
c-14.5068 -82.8516 -53.9326 -106.695 -58.5693 -119.685c-0.25293 -0.708008 -0.486328 -0.825195 -0.586914 -0.925781c-1.10547 -1.10547 -10.6836 -5.98926 -18.3789 -9.6084c-0.96582 -2.75098 -0.96582 -2.75098 -1.45605 -3.25977
c-0.226562 -0.87207 -0.432617 -2.41406 -0.432617 -2.41406l-1.42871 -70.5146c-0.0273438 -1.35547 -1.12793 -2.44043 -2.4834 -2.44824zM903.143 719.406l-0.165039 0.143555l-1.51074 -1.97363zM896.123 728.323l-1.6543 0.682617l-1.65625 -4.15137zM788 751.11
c-40.0898 0 -66.2324 -7.07715 -99.5674 -31.792c-8.79004 -8.79004 -33.2559 -35.1709 -33.3711 -80.9375c-0.15332 -60.2461 26.1045 -88.6094 40.208 -102.713c7.02734 -7.02832 7.02734 -7.02832 8.19141 -8.7666c2.30078 -3.4375 2.30078 -3.4375 17.2344 -19.625
c3.42969 -0.84375 8.67188 -3.00488 13.9883 -8.53223c2.9082 -3.02148 1.73438 -14.2412 1.19629 -19.374l-0.478516 -58.3711l92.6289 -0.475586l4.35645 71.6416c0.0410156 0.678711 0.354492 1.30957 0.879883 1.75488c3.07715 2.62305 3.15723 2.69238 4.75293 4.28711
c1.57422 1.57422 6.14258 6.03516 10.1602 7.2041c1.45605 0.423828 3.4873 4.4502 7.70703 7.60449c20.1855 15.0898 50.0625 53.0723 53.7725 107.815c0.542969 8.00879 -0.693359 16.7461 -2.27344 26.1201c-3.34375 19.8359 -8.24414 48.0264 -23.3262 65.5996
c-2.34473 1.93262 -3.05664 2.57422 -13.8525 13.3701c-19.3135 19.3135 -51.292 25.1895 -82.207 25.1895zM500.5 567.002l-243 0.80957v16.0352h217.875v91.0498h-217.875v16.0352l240.84 -1.35059z" />
  </g>

</svg>
