<?xml version="1.0" standalone="no"?>
<!DOCTYPE svg PUBLIC "-//W3C//DTD SVG 1.1//EN" "http://www.w3.org/Graphics/SVG/1.1/DTD/svg11.dtd" >
<svg xmlns="http://www.w3.org/2000/svg" xmlns:xlink="http://www.w3.org/1999/xlink" version="1.1" viewBox="-10 0 1275 1000">
  <g transform="matrix(1 0 0 -1 0 800)">
   <path fill="currentColor"
d="M273.028 -6.89355c-3.04883 0 -5.50195 2.47559 -5.50195 5.5l5.27441 151.864c-15.3379 18.3613 -31.0732 35.5498 -46.5684 52.4736c-68.3105 74.6094 -132.241 144.599 -132.463 285.773c-0.18457 117.653 34.8105 160.722 59.2588 184.621
c75.7529 74.0527 205.177 101.318 257.151 101.318c4.72852 0 10.707 4.00684 16.9355 3.71387c153.625 -7.22656 186.412 -19.377 264.683 -87.458c10.1045 -8.78906 13.0449 -15.9531 14.3574 -22.7178c0.237305 -1.2207 0.371094 -1.69824 0.417969 -1.84668
c35.8652 -41.3857 38.9443 -141.2 40.8887 -172.833c0.131836 -2.14453 0.454102 -4.63574 0.824219 -7.4541c1.04785 -7.96484 2.43652 -18.4902 0.117188 -31.7344c-31.915 -182.275 -118.651 -234.731 -128.852 -263.308
c-0.555664 -1.55762 -1.07031 -1.81543 -1.29102 -2.03613c-2.43164 -2.43262 -23.5059 -13.1758 -40.4346 -21.1387c-2.12598 -6.05273 -2.12598 -6.05273 -3.20312 -7.17285c-0.498047 -1.91797 -0.952148 -5.30957 -0.952148 -5.30957l-3.1416 -155.133
c-0.0605469 -2.98047 -2.48242 -5.36914 -5.46484 -5.38672zM706.341 666.59l-0.362305 0.316406l-3.32422 -4.34375zM690.897 686.207l-3.63965 1.50098l-3.64453 -9.13281zM453.028 736.339c-88.1992 0 -166.665 -8.62598 -240 -63
c-19.3379 -19.3379 -74.3047 -75.3652 -74.5596 -176.053c-0.335938 -132.541 57.4287 -194.941 88.457 -225.97c15.4609 -15.46 15.4609 -15.46 18.0215 -19.2852c5.0625 -7.5625 5.0625 -7.5625 37.916 -43.1748c7.54395 -1.85645 19.0781 -6.61035 30.7754 -18.7705
c6.39746 -6.64941 3.81348 -31.3311 2.63086 -42.624l-1.05273 -128.417l203.783 -1.04492l9.58496 157.61c0.0908203 1.49414 0.779297 2.88281 1.93457 3.8623c6.76953 5.77051 6.94727 5.92188 10.4561 9.43066c3.46289 3.46387 13.5146 13.2773 22.3545 15.8506
c3.20312 0.931641 7.6709 9.78906 16.9541 16.7295c44.4072 33.1963 110.138 116.758 118.3 237.193c1.19434 17.6191 -1.52637 36.8418 -5.00293 57.4629c-7.35645 43.6406 3.95703 96.707 -29.2236 135.369c-5.15723 4.25 -6.72363 5.66211 -30.4756 29.4131
c-42.4893 42.4902 -112.841 55.417 -180.854 55.417zM861.8 490.922v0v0zM1115.98 498.72c48.9336 -1.15234 88.3779 -45.3018 88.3779 -94.3516c0 -52.1982 -42.3516 -94.5537 -94.5537 -94.5537c-52.1982 0 -94.5537 42.3516 -94.5537 94.5537
c0 22.1377 10.4121 45.7998 25.4199 63.2695l-188.866 -7.82324v23.6084v7.49902c88.6777 -0.0136719 175.593 9.88379 264.176 7.79785zM1109.59 467.972c-35.0156 0 -63.4463 -28.4316 -63.4463 -63.4463c0 -35.0166 28.4316 -63.4473 63.4463 -63.4473
c35.0166 0 63.4463 28.4316 63.4463 63.4463c0 35.0186 -28.4316 63.4473 -63.4463 63.4473zM413.346 194.534l-91.4443 89.8125l17.418 17.9619l73.4824 -67.4941l113.039 143.078l19.5967 -13.6064zM407.051 565.895l83.1064 79.4922l20.2773 -17.5352l-82.6992 -83.5195
l90.3906 -83.0859l-23.3242 -19.4316l-89.4053 82.3037l-81.7783 -83.2363l-18.6299 20.375l80.1602 81.5205l-79.084 82.2637l21.1533 20.2324z" />
  </g>

</svg>
