<?xml version="1.0" standalone="no"?>
<!DOCTYPE svg PUBLIC "-//W3C//DTD SVG 1.1//EN" "http://www.w3.org/Graphics/SVG/1.1/DTD/svg11.dtd" >
<svg xmlns="http://www.w3.org/2000/svg" xmlns:xlink="http://www.w3.org/1999/xlink" version="1.1" viewBox="-10 0 1040 1000">
  <g transform="matrix(1 0 0 -1 0 800)">
   <path fill="currentColor"
d="M69.8252 750.129h55.5146l17.1611 52.2256l17.1602 -52.2256h55.5156l-44.8672 -32.2959l17.1611 -52.2246l-44.9697 32.2959l-44.9707 -32.2959l17.1611 52.2246zM310.501 616.576l-12 60c128.725 89.7881 355.203 55.3633 442.457 48.5605
c0 -0.0107422 0.000976563 -0.0214844 0.000976563 -0.0322266c27.4463 0.582031 75.1855 -1.32129 107.268 -33.4033c40.1396 -40.1396 38.6152 -108.841 37.5254 -169.365c-0.395508 -21.9258 -0.433594 -33.2402 -0.22168 -41.9463
c26.3789 -43.8281 72.168 -89.959 89.3252 -129.607c6.95117 -16.0635 5.49219 -24.7637 2.64551 -40.2051l-12 -14l-79.501 -63.5771v-212.431c1.93945 -31.0869 1.82422 -79.2412 -27.416 -108.48c-26.0322 -26.0322 -182.507 -12.0195 -220.584 -13.0049
l-2.90137 0.0126953c-103.732 -7.2998 -296.108 50.6025 -326.603 92.1719c-18.5059 25.2275 -31.4014 41.2529 -57.9951 55.3086v70.0371c25.8174 -16.2627 49.624 -17.8066 70.1904 -60.6357c44.2188 -92.082 349.455 -105.734 451.309 -108.438l-0.499023 -0.962891
c50 12 34.1514 4.48145 42.5352 13.5361c19.1768 20.7119 3.97852 41.9688 5.50781 57.9648h-0.541992v2.14941c-0.253906 0.990234 -0.500977 1.94141 -0.738281 2.84863h0.738281v207.174v3.4873v1.33887h1.58203l104 88h1.13281
c4.9834 45.8955 -62.8379 92.1289 -94.2158 139.501l-3 4l-1 1c-2.02051 3.99219 0.0439453 4.02539 -2.08398 11.5605c-0.0371094 0.130859 -0.189453 0.24707 -0.174805 0.367188l0.258789 2.07227l0.0644531 1.49902
c0.00976562 0.226562 0.150391 3.89551 0.242188 6.24414c3.11426 79.1523 5.19727 173.389 -83.8154 173.771c-136.35 16.7461 -373.536 9.53418 -431.49 -46.5137zM632.275 591.124c59.9062 -0.0830078 108.593 -48.7695 108.675 -108.676
c0 -59.9883 -48.6855 -108.675 -108.675 -108.675c-59.9883 0 -108.675 48.6865 -108.675 108.675c0 59.9893 48.6865 108.676 108.675 108.676zM733.301 486.123v0.0761719c-0.731445 20.6865 -12.7598 49.7842 -26.8496 64.9492l-58.4258 -58.4248
c1.12305 -1.67188 2.36621 -4.62793 2.77441 -6.60059h82.501zM642.626 498.048l58.4248 58.2754c-15.165 14.1533 -44.2959 26.249 -65.0244 27v-82.499c1.9707 -0.40918 4.92773 -1.65234 6.59961 -2.77637zM628.525 500.824v82.6494
c-20.7295 -0.751953 -49.8604 -12.8477 -65.0254 -27l58.4258 -58.4258c1.67188 1.12402 4.62793 2.36719 6.59961 2.77637zM621.926 466.849l-58.4258 -58.3506c15.1748 -14.1279 44.3057 -26.1904 65.0254 -26.9238v82.499
c-1.97168 0.40918 -6.59961 2.77539 -6.59961 2.77539zM636.026 464.073v-82.6494c20.7285 0.750977 49.8594 12.8477 65.0244 27l-58.4248 58.4248c-1.67188 -1.12305 -4.62891 -2.36621 -6.59961 -2.77539zM558.251 551.224
c-14.1055 -15.1826 -26.1338 -44.3145 -26.8496 -65.0244h82.499c0.408203 1.9707 1.65234 4.92773 2.77539 6.59961zM531.251 478.698c0.750977 -20.7285 12.8477 -49.8604 27 -65.0254l58.2744 58.4258c-1.12305 1.67188 -2.36621 4.62793 -2.77441 6.59961h-82.5z
M706.301 413.673c14.1035 15.1836 26.1328 44.3145 26.8496 65.0254h-82.499c-0.40918 -1.97168 -1.65234 -4.92773 -2.77637 -6.59961zM649.675 296.675c59.9062 -0.0830078 108.592 -48.7686 108.675 -108.675c0 -59.9893 -48.6865 -108.676 -108.675 -108.676
c-59.9893 0 -108.675 48.6865 -108.675 108.676c0 59.9883 48.6855 108.675 108.675 108.675zM750.699 191.675v0.0751953c-0.730469 20.6865 -12.7598 49.7852 -26.8496 64.9492l-58.4248 -58.4238c1.12305 -1.67188 2.36621 -4.62891 2.77441 -6.60059h82.5z
M660.024 203.6l58.4258 58.2744c-15.165 14.1533 -44.2959 26.249 -65.0254 27v-82.499c1.97168 -0.40918 4.92773 -1.65234 6.59961 -2.77539zM645.924 206.375v82.6494c-20.7285 -0.750977 -49.8594 -12.8477 -65.0244 -27l58.4248 -58.4248
c1.67188 1.12305 4.62891 2.36621 6.59961 2.77539zM639.324 172.4l-58.4248 -58.3506c15.1738 -14.1289 44.3057 -26.1914 65.0244 -26.9248v82.499c-1.9707 0.40918 -6.59961 2.77637 -6.59961 2.77637zM653.425 169.624v-82.6494
c20.7295 0.751953 49.8604 12.8477 65.0254 27l-58.4258 58.4258c-1.67188 -1.12402 -4.62793 -2.36719 -6.59961 -2.77637zM575.649 256.775c-14.1045 -15.1836 -26.1328 -44.3135 -26.8496 -65.0254h82.499c0.40918 1.97168 1.65234 4.92773 2.77637 6.59961z
M548.649 184.249c0.751953 -20.7285 12.8477 -49.8604 27 -65.0244l58.2754 58.4248c-1.12305 1.67188 -2.36621 4.62891 -2.77441 6.59961h-82.501zM723.699 119.225c14.1055 15.1826 26.1338 44.3145 26.8496 65.0244h-82.499
c-0.408203 -1.9707 -1.65234 -4.92773 -2.77539 -6.59961z" />
  </g>

</svg>
