<?xml version="1.0" standalone="no"?>
<!DOCTYPE svg PUBLIC "-//W3C//DTD SVG 1.1//EN" "http://www.w3.org/Graphics/SVG/1.1/DTD/svg11.dtd" >
<svg xmlns="http://www.w3.org/2000/svg" xmlns:xlink="http://www.w3.org/1999/xlink" version="1.1" viewBox="-10 0 1008 1000">
  <g transform="matrix(1 0 0 -1 0 800)">
   <path fill="currentColor"
d="M348.481 97.6934l-82.2217 148.848l24.0225 10.1475l58.4395 -100.383l53.3027 101.418l27.2285 -11.0254zM258 603l-82.2217 148.848l24.0225 10.1475l58.4395 -100.383l53.3027 101.418l27.2285 -11.0254zM265.568 -67.707v34.6641h38.626v22.0713h-38.626v34.6641
h38.626v33.7148h31.3828v-33.7148h23.2197v31.2539h31.3828v-31.2539h41.292v-34.6641h-41.292v-22.0713h41.292v-34.6641h-41.292v-36.1855h-31.3828v36.1855h-23.2197v-33.7246h-31.3828v33.7246h-38.626zM335.577 -33.043h23.2197v22.0713h-23.2197v-22.0713z
M780.659 223.904c-0.529297 0 -0.985352 0.173828 -1.32227 0.358398l-214.094 -88.2627v-37.8242c12.126 5.10742 24.251 10.2148 36.376 15.3213v-3.77051l-0.21875 -161.659h318.305l0.646484 155.446c10.9619 -6.48535 21.9238 -12.9697 32.8867 -19.4551
l-0.677734 40.7051l-136.33 79.1182l1.46387 0.616211c-22.6963 11.7715 -24.457 12.7314 -36.2109 19.5508c-0.288086 -0.102539 -0.56543 -0.144531 -0.824219 -0.144531zM884.594 -16.7148h-248.003l-0.665039 144.662l142.009 59.8174l107.859 -63.8086z
M63.3545 -23.4795h55.5146l17.1611 52.2256l17.1602 -52.2256h55.5156l-44.8672 -32.2959l17.1611 -52.2246l-44.9697 32.2959l-44.9707 -32.2959l17.1611 52.2246zM643.861 704.401zM643.618 701.521zM816.704 671.539c0 22.5693 -7.77246 43.1055 -25.708 61.041
c-10.1494 10.1494 -20.3984 16.3691 -30 20.1504l-27.25 10.7334c33.6592 -5.81445 33.6592 -5.81445 38.0791 -7.13379c0.485352 0.166016 1.12109 0.296875 1.75781 0.179688c41.5781 -7.65918 73.126 -26.1758 95.7217 -48.7725
c11.7061 -11.707 19.7354 -22.8945 27.208 -35.8408c-19.4785 -33.8145 -52.7822 -71.9619 -124.661 -84.7705l-15.4521 -2.75293c13.9658 8.57227 21.7539 12.7725 34.9795 26.248c18.3457 18.3457 25.3252 39.2686 25.3252 60.918zM727.881 603.75
c-18.9648 0 -35.6289 6.49805 -49.415 20.2842c-20.042 20.0439 -24.3418 46.9658 -15.501 71.4385l1.02637 2.8418l0.68457 -0.253906c13.8936 20.5078 13.8936 20.5078 14.707 21.6914c21.7158 14.2158 21.7158 14.2158 22.0029 14.252
c15.335 6.44922 48.3721 12.3203 76.0518 -15.3604c13.7617 -13.7617 19.6045 -29.7725 19.6641 -46.8477c0 -11.8643 -2.51172 -30.1562 -19.668 -47.3125c-8.05273 -8.05176 -23.3818 -20.7334 -49.5527 -20.7334zM931.266 671.895
c-10.668 18.9336 -62.5664 110.161 -199.266 110.161c-82.208 0 -133.768 -32.8721 -164.375 -63.4795c-13.0352 -13.0361 -24.2822 -27.3145 -35.3252 -46.6807c9.76758 -17.123 20.6455 -31.8789 34.3252 -45.5586c50.7656 -50.7656 113.184 -64.3369 165.375 -64.3369
c25.0967 0 102.404 1.59863 165.012 64.2051c17.9062 17.9062 28.624 35.6641 34.2539 45.6895zM692.185 750.942c-8.17969 -3.07617 -20.9883 -11.1807 -25.9707 -16.1631c-6.65625 -6.65625 -6.65625 -6.65625 -8.17871 -9.19629
c-1.27637 -2.12988 -1.55273 -2.39746 -3.21875 -3.90039c-2.3418 -2.11523 -3.12891 -3.07227 -4.00781 -5.3125c-0.688477 -1.75586 -4.81836 -9.2334 -5.97559 -12.4502c0.154297 -0.753906 0.0458984 -1.50293 -0.15625 -2.0332
c-9.42285 -24.6699 -9.88184 -61.7344 19.6377 -91.2539c7.66602 -7.66602 15.6572 -13.0215 23.3301 -16.7861l21.0947 -10.3486l-23.0225 4.7168c-42.4443 8.69629 -71.7988 28.292 -91.4443 47.9385c-11.6572 11.6572 -19.7598 22.8545 -27.2275 35.7412
c14.0156 24.291 45.2637 70.5723 123.541 84.8057zM291 432l-72.5664 68.2227l16.7998 17.3242l55.2422 -46.6973l98.0586 132.498l18.8994 -13.125z" />
  </g>

</svg>
