<?xml version="1.0" standalone="no"?>
<!DOCTYPE svg PUBLIC "-//W3C//DTD SVG 1.1//EN" "http://www.w3.org/Graphics/SVG/1.1/DTD/svg11.dtd" >
<svg xmlns="http://www.w3.org/2000/svg" xmlns:xlink="http://www.w3.org/1999/xlink" version="1.1" viewBox="-10 0 1051 1000">
  <g transform="matrix(1 0 0 -1 0 800)">
   <path fill="currentColor"
d="M30.3242 741.553h55.5146l17.1611 52.2256l17.1602 -52.2256h55.5156l-44.8672 -32.2959l17.1611 -52.2246l-44.9697 32.2959l-44.9707 -32.2959l17.1611 52.2246zM271 608l-12 60c128.725 89.7881 355.203 55.3633 442.457 48.5605
c0 -0.0107422 0.000976562 -0.0214844 0.000976562 -0.0322266c27.4463 0.582031 75.1855 -1.32129 107.268 -33.4033c40.1396 -40.1396 38.6152 -108.841 37.5254 -169.365c-0.395508 -21.9258 -0.433594 -33.2402 -0.22168 -41.9463
c26.3789 -43.8281 72.168 -89.959 89.3252 -129.607c6.95117 -16.0635 5.49219 -24.7637 2.64551 -40.2051l-12 -14l-79.501 -63.5771v-212.431c1.93945 -31.0869 1.82422 -79.2412 -27.416 -108.48c-26.0322 -26.0322 -182.507 -12.0195 -220.584 -13.0049
l-2.90137 0.0126953c-103.732 -7.2998 -296.108 50.6025 -326.603 92.1719c-18.5059 25.2275 -31.4014 41.2529 -57.9951 55.3086v70.0371c25.8174 -16.2627 49.624 -17.8066 70.1904 -60.6357c44.2188 -92.082 349.455 -105.734 451.309 -108.438l-0.499023 -0.962891
c50 12 34.1514 4.48145 42.5352 13.5361c19.1768 20.7119 3.97852 41.9688 5.50781 57.9648h-0.541992v2.14941c-0.253906 0.990234 -0.500977 1.94141 -0.738281 2.84863h0.738281v207.174v3.4873v1.33887h1.58203l104 88h1.13281
c4.9834 45.8955 -62.8379 92.1289 -94.2158 139.501l-3 4l-1 1c-2.02051 3.99219 0.0439453 4.02539 -2.08398 11.5605c-0.0371094 0.130859 -0.189453 0.24707 -0.174805 0.367188l0.258789 2.07227l0.0644531 1.49902
c0.00976562 0.226562 0.150391 3.89551 0.242188 6.24414c3.11426 79.1523 5.19727 173.389 -83.8154 173.771c-136.35 16.7461 -373.536 9.53418 -431.49 -46.5137zM606.688 215.78h-101.14l-23.584 59.5645l43.584 -18.2715l28.5254 35.6719l28.0166 -36.2666
l43.2158 18.3799zM528.635 243.464l-26.6621 11.7129l12.2852 -28.2002l82.6406 -0.295898l8.54297 26.8828l-26.1426 -11.6191l-24.7812 31.8418zM548.215 522.503c0.568359 -10.0938 -3.4834 -36.627 -2.35254 -43.0508
c0.345703 -0.393555 0.703125 -1.00391 0.77832 -1.79297c2.35352 -25.3145 23.0723 -50.2627 31.0879 -58.2783c1.62305 -1.62207 1.62305 -1.62207 6.32617 -5.26074c-0.551758 -0.361328 -0.551758 -0.361328 -8.99609 -5.99219
c-1.28223 -0.853516 -3.01562 -0.654297 -4.06543 0.490234c-13.5361 14.7246 -24.165 26.2891 -33.5742 53.1436c-4.25098 -13.2363 -12.0088 -26.2324 -19.1719 -35.332c-5.00684 -6.35742 -8.94727 -14.1611 -12.6914 -17.9062
c-1.14258 -1.14258 -2.94629 -1.22168 -4.18066 -0.245117c-6.36523 5.03809 -6.36523 5.03809 -6.49512 5.16992c-1.13184 1.13281 -1.21973 2.91406 -0.269531 4.14844c3.5752 4.63672 15.3818 20.7715 15.5391 20.9795c22.8525 30.0186 23.9639 69.915 23.7822 91.3975
c-0.0166016 1.77832 1.44141 3.21484 3.21777 3.17578c8.41504 -0.1875 8.41504 -0.1875 9.63184 -1.40332c0.912109 -0.913086 1.37793 -2.2666 1.34766 -3.80957c-0.0117188 -0.520508 -0.0576172 -2.87695 0.0859375 -5.43359zM451.875 245.255
c0 43.1133 44.8867 78.2549 100.125 78.2549s100.125 -35.1416 100.125 -78.2549s-44.8867 -78.2549 -100.125 -78.2549s-100.125 35.1396 -100.125 78.2549zM439.096 246.065c0 -49.4688 50.3828 -89.416 112.904 -89.416c62.5176 0 112.904 39.9463 112.904 89.416
c0 49.4658 -50.3828 89.4141 -112.904 89.4141c-62.5195 0 -112.904 -39.9473 -112.904 -89.4141z" />
  </g>

</svg>
