<?xml version="1.0" standalone="no"?>
<!DOCTYPE svg PUBLIC "-//W3C//DTD SVG 1.1//EN" "http://www.w3.org/Graphics/SVG/1.1/DTD/svg11.dtd" >
<svg xmlns="http://www.w3.org/2000/svg" xmlns:xlink="http://www.w3.org/1999/xlink" version="1.1" viewBox="-10 0 1007 1000">
  <g transform="matrix(1 0 0 -1 0 800)">
   <path fill="currentColor"
d="M828.399 483.872c0 9.49878 0.360099 25.4826 0.360099 28.905l-0.318652 61.3747l-8.69455 54.78l-24.0577 41.7601l-29.8355 19.1251l-33.9409 8.02542l-47.9505 1.85133v0.765382l-107.704 8.96128l-161.614 -4.8437l-135.511 -48.0118l4.97421 -24.8711
l90.1513 34.2037l168.519 13.9909l163.859 -8.05849l72.0585 -32.0852l24.6852 -76.5829c-11.2968 -92.7231 -11.5388 -94.7093 -10.6225 -98.1968c0.272553 -1.03738 0.408327 -1.98777 0.495372 -2.92219c0.487753 -0.641757 1.13403 -1.58506 1.4862 -2.05622
l30.4464 -40.7334l38.0432 -60.0682l23.93 -33.502l-96.7113 -80.2498l-3.19974 -219.288c0.962733 -7.56244 2.78458 -22.0112 5.01798 -45.877c-0.12894 -0.269919 -9.65147 -20.9678 -12.8349 -27.02c-1.80565 -3.43278 -3.36365 -6.39475 -8.94453 -11.1259
c-28.726 -6.87192 -37.6748 -9.01268 -53.7943 -9.01268c-3.38415 0 -6.77838 0.14333 -10.1737 0.446144l-127.95 -3.2205l-189.706 31.9736l-119.91 72.0259l-21.8729 31.5454c-0.18608 0.126152 -14.9542 10.3475 -18.5829 12.6523v-31.4635
c5.41685 -3.87145 13.5068 -7.36272 24.4398 -17.2503c7.32645 -6.62591 2.09556 -4.45645 10.6241 -11.9264c1.03002 -0.902171 1.03002 -0.902171 17.2005 -21.8062l70.2643 -41.1391l123.979 -35.7692l40.8353 -3.74581
c52.8258 -4.90757 59.0669 -6.73248 83.0467 -7.42728l68.08 -1.97257l89.7606 0.254271l51.1066 12.4914l15.1376 25.2075l6.27671 34.16l-0.268638 82.9487l0.0291888 84.2282l-0.00582149 87.5189l84.7837 67.8016l7.68593 8.96692l1.11464 7.19504
c0.44913 7.61262 -1.52476 12.8022 -3.31214 18.1783l-23.3304 38.8443l-33.0243 43.448l-34.3179 48.9016c-0.202711 16.1296 -0.202711 16.1296 -0.202711 17.6951zM33.2949 712.521h55.5146l17.1611 52.2256l17.1602 -52.2256h55.5156l-44.8672 -32.2959
l17.1611 -52.2246l-44.9697 32.2959l-44.9707 -32.2959l17.1611 52.2246zM126.935 300l0.179688 135.794l-29.1143 -12.2627v3.01172v11.1113v1.26758l146.892 69.4336c1.7832 -0.924805 3.56543 -1.84961 5.34863 -2.77344l0.0810547 0.161133
c3.24512 -1.88281 3.24512 -1.88281 143.999 -75.0791l0.277344 -16.627l-26.0586 15.416l-0.539062 -129.453h-241.065zM140.928 441.711l0.583984 -127.135h211.912l1.0498 123.117l-109.768 56.4668zM589.333 451.805l-32.6328 33.9473
c-5.85742 6.09082 2.30566 12.0547 5.16016 14.7842c2.77148 2.64941 7.17285 2.62891 9.91016 -0.0986328l32.9375 -32.75l34.5664 33.0625c2.65234 2.53711 6.79492 2.62207 9.54395 0.242188c1.57812 -1.36328 3.02832 -2.42188 4.6709 -4.06445
c2.76172 -2.76172 2.76855 -7.24121 0.0253906 -10.0146l-33.9424 -34.2793l37.3711 -34.3506c6.5 -6.5 -2.8916 -12.4922 -6.0293 -15.1055c-2.70996 -2.25586 -6.71582 -2.18652 -9.3418 0.235352l-37.5723 34.5869l-33.7803 -34.3838
c-2.97656 -2.97168 -7.67285 -2.5957 -10.2627 0.235352c-2.59863 2.84277 -9.29395 8.6377 -3.8457 14.167zM611.265 336.978c62.2588 -0.0859375 112.735 -50.6094 112.735 -112.978c-0.128906 -62.0771 -50.5908 -112.509 -112.743 -112.509
c-62.2393 0 -112.743 50.5029 -112.743 112.743c0 62.2441 50.5059 112.743 112.751 112.743zM656.353 232.444h49.6113c-2.0957 16.8848 -11.127 38.6582 -21.6045 52.0723l-35.1553 -35.1553c3.24902 -4.94141 5.87109 -11.1455 7.14844 -16.917zM671.987 297.038
c-13.3975 10.4658 -35.1406 19.4951 -52.0049 21.6006l-0.0625 -50.0234c5.7207 -1.21289 11.8936 -3.70898 16.8389 -6.80664zM602.524 268.616v50.0264c-16.8574 -2.09082 -38.5986 -11.0947 -52.001 -21.54l35.1641 -35.29
c4.94531 3.09668 11.1182 5.5918 16.8369 6.80371zM573.316 249.371l-35.1709 35.3574c-10.5137 -13.4697 -19.5498 -35.335 -21.6084 -52.2842h49.625c1.27832 5.77539 3.90332 11.9834 7.1543 16.9268zM566.087 214.979h-49.5186
c2.1416 -16.7988 11.166 -38.4453 21.5947 -51.7871l35.0654 34.8789c-3.24512 4.93945 -5.86523 11.1396 -7.1416 16.9082zM550.527 150.907c13.3975 -10.4658 35.1406 -19.4961 52.0039 -21.6006l0.0634766 50.0225c-5.7207 1.21387 -11.8936 3.70996 -16.8389 6.80762z
M619.989 179.328v-50.0254c16.8857 2.0957 38.6582 11.127 52.0732 21.6045l-35.2295 35.2295c-4.94629 -3.09863 -11.1221 -5.5957 -16.8438 -6.80859zM649.213 198.074l35.1309 -34.8809c10.4082 13.3477 19.4062 34.9932 21.5322 51.7861h-49.5234
c-1.27637 -5.76758 -3.89551 -11.9658 -7.13965 -16.9053zM611.257 252.089c-15.6572 0 -28.6006 -12.4443 -28.6006 -28.0781c0 -8.41504 2.8877 -14.5107 7.23242 -18.8555c10.8389 -10.8398 31.8721 -10.8018 42.7334 0.0585938
c4.35156 4.35156 7.23535 10.4365 7.23535 18.7969c0 15.6338 -12.9434 28.0781 -28.6006 28.0781z" />
  </g>

</svg>
