<?xml version="1.0" standalone="no"?>
<!DOCTYPE svg PUBLIC "-//W3C//DTD SVG 1.1//EN" "http://www.w3.org/Graphics/SVG/1.1/DTD/svg11.dtd" >
<svg xmlns="http://www.w3.org/2000/svg" xmlns:xlink="http://www.w3.org/1999/xlink" version="1.1" viewBox="-10 0 1040 1000">
  <g transform="matrix(1 0 0 -1 0 800)">
   <path fill="currentColor"
d="M615.283 711.136c30.2646 0 44.9668 -32.2041 44.9668 -66.0693c0 -34.6133 -14.2344 -59.2529 -41.4629 -97.6436c-17.7881 -24.9092 -22.085 -32.3174 -26.0195 -42.2715l66.2324 2.84863v-30.4639l-93.6963 -2.97461
c-0.0400391 2.1543 -0.0439453 2.35156 -0.0439453 3.13281c-1.06348 -0.183594 -2.15723 -0.280273 -3.27344 -0.280273c-10.5488 0 -19.0996 8.55176 -19.0996 19.0996c0 10.5498 8.55078 19.1006 19.0996 19.1006c3.73828 0 7.22461 -1.07324 10.1699 -2.92969
c7.79199 20.7129 20.5049 38.5996 29.0742 50.2949c26.1572 35.7793 38.4238 58.6689 38.4238 82.7227c0 20.3496 -9.1377 38.7959 -24.751 38.7959c-15.0908 0 -25.6719 -15.7969 -25.7988 -45.1494l-0.0078125 -1.77051l-14.6113 2.50293
c-2.96387 -1.89062 -6.4834 -2.98535 -10.2588 -2.98535c-10.5488 0 -19.0996 8.55078 -19.0996 19.0996s8.55078 19.0996 19.0996 19.0996c3.26074 0 6.33105 -0.817383 9.0166 -2.25781c2.8291 9.7832 7.37891 19.6309 14.7969 27.0488
c7.34961 7.34961 16.502 11.0498 27.2432 11.0498zM464.482 273.133c-4.78418 0 -8.57227 -3.90234 -8.57227 -8.54297v-300.105c0 -4.7666 3.91797 -8.54199 8.54199 -8.54199l373.938 -1.50879c4.70996 0 8.57227 3.82617 8.57227 8.54199l-0.804688 155.248
l12.9453 0.793945c13.0273 -0.706055 26.0557 -1.41113 39.083 -2.11719l-51.2236 59.6426v86.5381c0 4.73145 -3.87012 8.54199 -8.50977 8.54199l-212.295 -0.399414c-0.348633 10.8555 -0.698242 21.7109 -1.04688 32.5664
c-0.757812 6.1377 -1.30957 10.4131 -2.72656 21.3975l-57.9824 -52.459l-1.93945 0.0078125s-97.96 0.396484 -97.9805 0.396484zM483 -17v263.013l80.8701 -0.34668l63.0283 -53.1514c-0.633789 23.9238 -0.811523 31.8213 -0.811523 39.3877
c0 2.90234 0.00488281 3.61035 0.12207 15.3203l193.667 -2.65625v-66.4404l-54.499 -59.7695c38.1592 1.01172 38.1592 1.01172 54.7812 1.91309l-0.282227 -138.717zM49.3545 -79.4795h55.5146l17.1611 52.2256l17.1602 -52.2256h55.5156l-44.8672 -32.2959
l17.1611 -52.2246l-44.9697 32.2959l-44.9707 -32.2959l17.1611 52.2246z" />
  </g>

</svg>
