<?xml version="1.0" standalone="no"?>
<!DOCTYPE svg PUBLIC "-//W3C//DTD SVG 1.1//EN" "http://www.w3.org/Graphics/SVG/1.1/DTD/svg11.dtd" >
<svg xmlns="http://www.w3.org/2000/svg" xmlns:xlink="http://www.w3.org/1999/xlink" version="1.1" viewBox="-10 0 1025 1000">
  <g transform="matrix(1 0 0 -1 0 800)">
   <path fill="currentColor"
d="M30.3242 741.553h55.5146l17.1611 52.2256l17.1602 -52.2256h55.5156l-44.8672 -32.2959l17.1611 -52.2246l-44.9697 32.2959l-44.9707 -32.2959l17.1611 52.2246zM271 608l-12 60c128.725 89.7881 355.203 55.3633 442.457 48.5605
c0 -0.0107422 0.000976562 -0.0214844 0.000976562 -0.0322266c27.4463 0.582031 75.1855 -1.32129 107.268 -33.4033c40.1396 -40.1396 38.6152 -108.841 37.5254 -169.365c-0.395508 -21.9258 -0.433594 -33.2402 -0.22168 -41.9463
c26.3789 -43.8281 72.168 -89.959 89.3252 -129.607c6.95117 -16.0635 5.49219 -24.7637 2.64551 -40.2051l-12 -14l-79.501 -63.5771v-212.431c1.93945 -31.0869 1.82422 -79.2412 -27.416 -108.48c-26.0322 -26.0322 -182.507 -12.0195 -220.584 -13.0049
l-2.90137 0.0126953c-103.732 -7.2998 -296.108 50.6025 -326.603 92.1719c-18.5059 25.2275 -31.4014 41.2529 -57.9951 55.3086v70.0371c25.8174 -16.2627 49.624 -17.8066 70.1904 -60.6357c44.2188 -92.082 349.455 -105.734 451.309 -108.438l-0.499023 -0.962891
c50 12 34.1514 4.48145 42.5352 13.5361c19.1768 20.7119 3.97852 41.9688 5.50781 57.9648h-0.541992v2.14941c-0.253906 0.990234 -0.500977 1.94141 -0.738281 2.84863h0.738281v207.174v3.4873v1.33887h1.58203l104 88h1.13281
c4.9834 45.8955 -62.8379 92.1289 -94.2158 139.501l-3 4l-1 1c-2.02051 3.99219 0.0439453 4.02539 -2.08398 11.5605c-0.0371094 0.130859 -0.189453 0.24707 -0.174805 0.367188l0.258789 2.07227l0.0644531 1.49902
c0.00976562 0.226562 0.150391 3.89551 0.242188 6.24414c3.11426 79.1523 5.19727 173.389 -83.8154 173.771c-136.35 16.7461 -373.536 9.53418 -431.49 -46.5137zM578.22 477.161c-9.27148 0 -15.9932 -0.555664 -23.2949 -1.42383
c-3.24121 4.74512 -5.38965 7.22754 -9.22656 10.9287c-6.89551 6.65234 -26.2188 11.7646 -44.7334 11.7646c-12.5078 0 -25.7334 -2.17188 -37.3447 -7.66602c-2.73926 -1.29688 -7.99512 -3.78418 -14.8213 -13.3564c-9.1875 0.917969 -15.1611 1.11914 -21.2686 1.11914
c-12.3896 0 -25.5322 -1.1543 -37.0898 -4.06445c-4.54883 -1.14551 -11.6523 -3.77832 -16.9082 -9.03418c-2.21777 -2.21875 -2.9834 -4.41602 -2.9834 -6.69141c0 -5.23242 4.57324 -10.7373 5.75 -11.915c2.41113 -2.41016 6.20898 -4.27637 8.91992 -5.5625
c8.95508 -4.24512 26.0127 -6.22266 42.4697 -6.22266c9.8457 0 17.6211 0.580078 25.5391 1.5918c2.32715 -2.49023 3.16504 -3.28809 5.0791 -4.99414c12.5654 -11.1973 38.6279 -11.6348 43.6934 -11.6348c14.4814 0 28.4209 2.66113 36.0576 7.15723
c4.6543 2.74121 7.76758 5.42871 11.1836 8.72266c10.0723 -1.64844 19.2119 -2.23047 29.2227 -2.23047c14.3662 0 28.3027 1.47266 35.8809 3.84766c18.3359 5.74512 23.6162 14.6094 23.6699 17.9424v0.0419922c0 1.98242 -3.25977 6.14648 -5.18262 8.07031
c-2.61914 2.61816 -5.95312 4.82324 -10.8984 7.3623c-6.22852 3.19727 -24.0439 6.24707 -43.7139 6.24707zM621.889 455.679c0 -6.72559 -22.8047 -13.1045 -47.4209 -13.1045c-4.85449 0 -8.00195 0 -18.5176 1.39258c3.56543 6.85352 4.54883 9.01562 5.37012 14.626
c0.650391 0.918945 0.4375 0.780273 0.443359 0.788086c-0.00683594 0.0888672 -0.0537109 0.1875 -0.0537109 0.1875c-0.0136719 -0.773438 -1.88672 5.73242 -2.26074 6.83496c8.76855 0.84082 14.0166 1.18164 22.1562 1.18164
c13.0156 0 24.9336 -1.03125 30.6201 -3.875c7.66211 -3.83105 9.36328 -5.57715 9.66309 -7.8584v-0.172852zM446.759 448.445v-2.72559c-10.5732 -1.50781 -16.3389 -1.71582 -22.2441 -1.71582c-11.4307 0 -22.4189 1.33398 -29.8369 4.7002
c-8.18359 3.71484 -10.0576 6.33887 -10.0576 8.65625c0 4.26465 3.73242 5.71582 7.86426 7.05273c13.1289 4.25 33.0674 4.63379 39.6396 4.63379c3.39746 0 5.22461 -0.0107422 12.4199 -0.405273c-0.518555 -4.09766 -0.5625 -4.43848 -0.5625 -6.16602
c0 -4.48926 0.990234 -8.91797 2.77734 -14.0303zM534.771 455.961c0 2.63965 2.42773 3.61621 10.7617 6.42383c1.84961 0.62207 3.44531 1.21875 3.44531 1.21875l-0.452148 -0.350586l-1.16895 -3.63867l-1.39941 -1.75c-0.40918 -0.0224609 1.39941 1.75 0 0
c-1.40039 -3.5 -2.41309 -5.16895 -4.77539 -8.89844c-4.31055 2.86914 -6.41113 4.26758 -6.41113 6.99512zM521.049 457.338c0 -4.00684 6.96289 -12.8047 10.5576 -15.9238l7.24219 3.15039l-11.3096 -5.02344c-8.63672 -3.83691 -19.2363 -5.91992 -29.4512 -5.91992
c-13.9492 0 -20.1543 3.09473 -28.1758 7.09668c7.35742 3.78613 10.2988 5.30078 13.7266 8.72754c4.0459 4.0459 4.22754 6.88574 4.22754 7.36426c0 0.0478516 -0.00195313 0.0722656 -0.00195313 0.0722656c0 1.59375 -2.70215 5.6123 -5.13867 8.04688
c-4.3877 4.3877 -11.915 7.84473 -11.915 7.84473l-5.46973 2.38672l5.45605 2.41895c9.12695 4.0459 22.1299 6.21191 34.3506 6.21191c13.3506 0 24.874 -2.50195 30.0137 -7.33105c0.464844 -0.4375 0.464844 -0.4375 3.79688 -3.64746
c-6.4834 -2.57129 -17.9092 -7.24219 -17.9092 -15.4746zM471.738 457.078c0 -3.89551 -7.92383 -6.87012 -8.02246 -6.90625c-0.120117 -0.0439453 -0.00878906 -0.0078125 -0.914062 -0.163086l-2.24512 -0.543945l-0.379883 2.48438
c-1.35059 2.5293 -2.06543 5.22363 -2.06543 8.16504c0 1.43652 0 1.43652 0.722656 6.61816c10.5078 -5.25879 12.4727 -6.49219 12.9043 -9.6543zM414.452 218.046c20.4082 1.14941 78.541 -8.54883 81.5928 -2.84473c60.2158 5.60156 116.478 63.9014 114.308 63.9746
l6.58496 -9.87793c-24.2412 -22.2256 -48.2334 -47.0254 -113.922 -65.9229c28.9238 -4.20605 61.3193 -22.2734 81.9355 -38.5068c12.5439 -9.87695 22.5791 -14.1113 31.9863 -22.5791l-8.9375 -11.2891c-16.4639 12.7002 -27.0752 19.8301 -38.1025 28.2236
c-56.2988 42.8594 -130.217 44.6523 -169.376 44.3193c0.0878906 3.98828 0.174805 7.97656 0.263672 11.9648c0.0478516 2.24414 2.22949 2.33594 3.16016 2.375c0.105469 0.00390625 5.00586 -0.146484 10.5068 0.163086z" />
  </g>

</svg>
