<?xml version="1.0" standalone="no"?>
<!DOCTYPE svg PUBLIC "-//W3C//DTD SVG 1.1//EN" "http://www.w3.org/Graphics/SVG/1.1/DTD/svg11.dtd" >
<svg xmlns="http://www.w3.org/2000/svg" xmlns:xlink="http://www.w3.org/1999/xlink" version="1.1" viewBox="-10 0 1051 1000">
  <g transform="matrix(1 0 0 -1 0 800)">
   <path fill="currentColor"
d="M271 608l-12 60c128.725 89.7881 355.203 55.3633 442.457 48.5605c0 -0.0107422 0.000976562 -0.0214844 0.000976562 -0.0322266c27.4463 0.582031 75.1855 -1.32129 107.268 -33.4033c40.1396 -40.1396 38.6152 -108.841 37.5254 -169.365
c-0.395508 -21.9258 -0.433594 -33.2402 -0.22168 -41.9463c26.3789 -43.8281 72.168 -89.959 89.3252 -129.607c6.95117 -16.0635 5.49219 -24.7637 2.64551 -40.2051l-12 -14l-79.501 -63.5771v-212.431c1.93945 -31.0869 1.82422 -79.2412 -27.416 -108.48
c-26.0322 -26.0322 -182.507 -12.0195 -220.584 -13.0049l-2.90137 0.0126953c-103.732 -7.2998 -296.108 50.6025 -326.603 92.1719c-18.5059 25.2275 -31.4014 41.2529 -57.9951 55.3086v70.0371c25.8174 -16.2627 49.624 -17.8066 70.1904 -60.6357
c44.2188 -92.082 349.455 -105.734 451.309 -108.438l-0.499023 -0.962891c50 12 34.1514 4.48145 42.5352 13.5361c19.1768 20.7119 3.97852 41.9688 5.50781 57.9648h-0.541992v2.14941c-0.253906 0.990234 -0.500977 1.94141 -0.738281 2.84863h0.738281v207.174v3.4873
v1.33887h1.58203l104 88h1.13281c4.9834 45.8955 -62.8379 92.1289 -94.2158 139.501l-3 4l-1 1c-2.02051 3.99219 0.0439453 4.02539 -2.08398 11.5605c-0.0371094 0.130859 -0.189453 0.24707 -0.174805 0.367188l0.258789 2.07227l0.0644531 1.49902
c0.00976562 0.226562 0.150391 3.89551 0.242188 6.24414c3.11426 79.1523 14.1973 176.389 -74.8154 176.771c-136.35 16.7461 -373.536 9.53418 -431.49 -46.5137zM30.3545 728.521h55.5146l17.1611 52.2256l17.1602 -52.2256h55.5156l-44.8672 -32.2959l17.1611 -52.2246
l-44.9697 32.2959l-44.9707 -32.2959l17.1611 52.2246zM488.729 83.5596c-1.08105 0 -1.95117 0.876953 -1.95117 1.94922l1.87012 53.8428c-5.4375 6.50977 -11.0166 12.6045 -16.5107 18.6045c-24.2188 26.4521 -46.8848 51.2666 -46.9639 101.32
c-0.0654297 41.7129 21.6406 62.7451 30.1377 71.3887c26.3311 26.7842 55.7842 33.1631 74.2109 33.1631c1.67676 0 3.7959 1.4209 6.00488 1.31641c54.4668 -2.56152 66.0908 -6.87012 93.8418 -31.0078c3.58203 -3.11621 4.625 -5.65527 5.09082 -8.05371
c0.0830078 -0.433594 0.130859 -0.602539 0.147461 -0.655273c12.7158 -14.6729 21.6377 -53.2354 22.3301 -64.4502c0.046875 -0.760742 0.161133 -1.64453 0.291992 -2.64355c0.37207 -2.82324 0.864258 -6.55566 0.0419922 -11.251
c-11.3154 -64.625 -42.0674 -83.2236 -45.6836 -93.3545c-0.197266 -0.552734 -0.379883 -0.643555 -0.458008 -0.722656c-0.862305 -0.862305 -8.33398 -4.6709 -14.3359 -7.49414c-0.753906 -2.14551 -0.753906 -2.14551 -1.13574 -2.54297
c-0.176758 -0.679688 -0.337891 -1.88281 -0.337891 -1.88281l-1.11328 -55.001c-0.0214844 -1.05762 -0.879883 -1.9043 -1.9375 -1.91016zM634.524 325.514l-0.128906 0.111328l-1.17871 -1.53906zM629.049 332.468l-1.29102 0.533203l-1.29199 -3.23828zM544.714 350.243
c-31.2715 0 -43.9023 -4.97949 -69.9033 -24.2568c-6.85645 -6.85742 -33.6992 -27.9746 -33.79 -63.6729c-0.119141 -46.9922 20.3613 -69.1152 31.3623 -80.1162c5.48145 -5.48145 5.48145 -5.48145 6.38965 -6.83789c1.79492 -2.68066 1.79492 -2.68066 13.4424 -15.3076
c2.67578 -0.657227 6.76465 -2.34375 10.9121 -6.6543c2.26758 -2.35742 1.35156 -11.1084 0.932617 -15.1123l-0.373047 -45.5303l72.25 -0.370117l3.39844 55.8799c0.03125 0.530273 0.276367 1.02246 0.685547 1.36914c2.40039 2.0459 2.46387 2.10059 3.70801 3.34473
c1.22754 1.22754 4.79102 4.70605 7.9248 5.61914c1.13574 0.331055 2.71973 3.4707 6.01074 5.93164c15.7451 11.7695 39.0488 41.3955 41.9434 84.0957c0.422852 6.24707 -0.541992 13.0625 -1.77344 20.373c-2.6084 15.4727 -6.43066 37.4609 -18.1943 51.168
c-1.8291 1.50781 -2.38477 2.00781 -10.8057 10.4287c-15.0645 15.0645 -40.0068 19.6484 -64.1201 19.6484zM543 315.886c12.7471 0 19.9639 -6.30566 23.167 -9.50684c5.66895 -5.66895 8.64941 -12.4805 8.64941 -20.1045c0 -10.2021 -5.12988 -16.585 -16.3145 -26.3633
c-14.4131 -12.583 -22.4805 -20.459 -22.4805 -40.7598c0 -0.646484 0.00976562 -1.49316 0.0302734 -2.5332h11.96c0.618164 18.1211 3.59473 22.374 18.2773 35.2627c15.8887 13.9307 21.5664 22.7949 21.5664 35.6064c0 8.75 -2.78613 18.0029 -12.1045 26.4385
c-8.0752 7.30859 -18.9492 11.0723 -33.0576 11.0723c-9.81152 0 -39.292 -1.55957 -45.1748 -37.2812l13.1709 -1.55176c1.60059 8.0752 4.68848 16.0801 10.7217 21.666c5.80273 5.37207 13.1338 8.05469 21.5889 8.05469zM535 195v-14.874h15.0801v14.874h-15.0801z
M575 415l-69.958 137.126l12 5.06934l59 -108.681l54.7773 115.25l16.2227 -6.56934zM245.708 691.432z" />
  </g>

</svg>
