<?xml version="1.0" standalone="no"?>
<!DOCTYPE svg PUBLIC "-//W3C//DTD SVG 1.1//EN" "http://www.w3.org/Graphics/SVG/1.1/DTD/svg11.dtd" >
<svg xmlns="http://www.w3.org/2000/svg" xmlns:xlink="http://www.w3.org/1999/xlink" version="1.1" viewBox="-10 0 1014 1000">
  <g transform="matrix(1 0 0 -1 0 800)">
   <path fill="currentColor"
d="M50.0732 743.793h55.5146l17.1611 52.2256l17.1602 -52.2256h55.5156l-44.8672 -32.2959l17.1611 -52.2246l-44.9697 32.2959l-44.9707 -32.2959l17.1611 52.2246zM290.749 610.24l-12 60c128.725 89.7881 355.203 55.3633 442.457 48.5605
c0 -0.0107422 0.000976562 -0.0214844 0.000976562 -0.0322266c27.4463 0.582031 75.1855 -1.32129 107.268 -33.4033c40.1396 -40.1396 38.6152 -108.841 37.5254 -169.365c-0.395508 -21.9258 -0.433594 -33.2402 -0.22168 -41.9463
c26.3789 -43.8281 72.168 -89.959 89.3252 -129.607c6.95117 -16.0635 5.49219 -24.7637 2.64551 -40.2051l-12 -14l-79.501 -63.5771v-212.431c1.93945 -31.0869 1.82422 -79.2412 -27.416 -108.48c-26.0322 -26.0322 -182.507 -12.0195 -220.584 -13.0049
l-2.90137 0.0126953c-103.732 -7.2998 -296.108 50.6025 -326.603 92.1719c-18.5059 25.2275 -31.4014 41.2529 -57.9951 55.3086v70.0371c25.8174 -16.2627 49.624 -17.8066 70.1904 -60.6357c44.2188 -92.082 349.455 -105.734 451.309 -108.438l-0.499023 -0.962891
c50 12 34.1514 4.48145 42.5352 13.5361c19.1768 20.7119 3.97852 41.9688 5.50781 57.9648h-0.541992v2.14941c-0.253906 0.990234 -0.500977 1.94141 -0.738281 2.84863h0.738281v207.174v3.4873v1.33887h1.58203l104 88h1.13281
c4.9834 45.8955 -62.8379 92.1289 -94.2158 139.501l-3 4l-1 1c-2.02051 3.99219 0.0439453 4.02539 -2.08398 11.5605c-0.0371094 0.130859 -0.189453 0.24707 -0.174805 0.367188l0.258789 2.07227l0.0644531 1.49902
c0.00976563 0.226562 0.150391 3.89551 0.242188 6.24414c3.11426 79.1523 5.19727 173.389 -83.8154 173.771c-136.35 16.7461 -373.536 9.53418 -431.49 -46.5137zM404.325 541.619c0 10.918 9.64941 20.127 22.2432 20.127s22.2441 -9.20898 22.2441 -20.127
c0 -10.917 -9.65137 -20.127 -22.2441 -20.127c-12.5938 0 -22.2432 9.21094 -22.2432 20.127zM456.56 368.281c0 4.61328 -1.31543 4.91797 -1.31543 4.91797l-0.870117 1.87695c-6.55566 15.7393 -14.5488 27.209 -29.8584 28.0566
c-19.3936 1.37207 -28.207 -12.5596 -35.0771 -30.085l2.125 4.31152c-2.49121 -3.94727 -3.31934 -8.25781 -3.60938 -9.12598c-0.0126953 -0.0390625 -0.488281 -1.18945 -1.46484 -3.86621c-0.262695 -0.756836 -0.587891 -1.46094 -0.816406 -2.07227
c-0.172852 -0.71582 -0.172852 -0.71582 -0.785156 -2.16699l-0.0351562 0.0126953c-0.121094 -0.400391 -0.240234 -0.793945 -0.358398 -1.18066l0.0136719 -0.00390625c-0.00390625 -0.0117188 -0.0361328 -0.0732422 -0.376953 -1.19336v0
c-6.48535 -21.3574 -6.58691 -21.6641 -8.88672 -28.5654c-2.04102 -6.7168 -2.50684 -8.59082 0.426758 -11.5244c1.68164 -1.68066 2.78516 -1.7334 7.34277 -1.89062c80.5088 0.0283203 80.6572 0.0546875 82.6992 0.271484
c0.0986328 0.00976562 6.76465 1.4707 4.68066 8.79785c-0.946289 3.30957 -4.26953 14.9111 -9.42676 31.2158l-0.602539 1.45215c-1.28027 3.51953 -2.28223 4.25781 -2.28223 4.25781l1.11523 -5.42969c-1.95312 16.8779 0.847656 1.81152 -0.287109 4.4375
c-0.392578 0.90918 -1.79688 6.92969 -1.78906 6.93262l2.13965 0.564453c-0.371094 0 -0.733398 -0.000976562 -1.08691 -0.000976562c-1.09473 -0.439453 -1.11426 -0.413086 -1.16504 -0.342773c-0.0996094 0.139648 -0.177734 0.24707 -0.237305 0.342773h-0.211914z
M377.63 581.075c6.0332 6.7207 24.4951 25.21 55.6611 21.4678c19.4092 -2.13867 32.3125 -12.75 40.3691 -21.7568c6.58594 -7.73242 12.2051 -16.415 16.8408 -25.9912c9.69824 -20.5391 16.3096 -42.3047 23.0957 -69.6504
c4.92578 -20.4727 9.96191 -40.9336 15.0967 -61.3281c1.30469 -5.43652 2.50391 -10.9004 3.59766 -16.4121c2.49219 -12.2656 0.796875 -23.7354 -5.13379 -34.1387c-1.89746 -3.14062 -3.99316 -5.87109 -6.30371 -8.18164
c-5.99316 -5.99316 -13.3789 -9.00293 -21.8242 -8.88379c-7.89258 -0.161133 -8.7373 -0.178711 -21.2197 -0.15918c2.5332 -8.3418 4.31348 -14.1172 6.26953 -20.335c2.6416 -8.80078 5.8916 -19.5586 -3.88965 -29.3389
c-6.81738 -6.81836 -14.3438 -6.65039 -20.0342 -6.52344c-5.19531 0.115234 -18.2158 0.40625 -77.2852 -0.117188c-0.314453 -0.00292969 -18.4961 0.0214844 -26.4785 16.8916c2.05859 8.4873 3.89941 17.041 6.17285 25.4658
c1.38867 5.14355 2.64746 8.95898 4.24512 13.957c-16.1631 -0.0126953 -22.0391 0.157227 -26.752 2.16602c-1.11719 0.476562 -6.74805 3.02637 -11.001 7.7373c-10.6191 11.7637 -12.8574 25.6885 -10.9893 39.1846c1.63086 8.92773 4.16016 17.7891 7.88477 32.7588
c15.5723 62.5771 17.3828 71.5088 24.4395 92.1104c3.10156 9.01562 6.6875 17.6953 10.7578 26.0352c4.52051 9.25195 10.0312 17.623 16.4805 25.042zM372.356 373.043c3.87207 11.1338 9.00781 23.9492 18.3682 33.3105c7.6875 7.6875 19.4639 14.3086 36.2656 12.6934
c27.9141 -2.46094 38.9277 -27.8213 45.3467 -45.9688c24.7568 -0.0253906 26.5459 0.00878906 31.0322 0.604492c7.71484 0.961914 18.25 13.0996 14.7344 29.7471c-1.21094 6.10059 -2.55469 12.1357 -4.03516 18.1406c-13.0586 52.1016 -14.75 59.8828 -14.9043 60.4873
c-14.7988 58.9561 -31.6689 101.134 -69.252 103.734c-15.3408 1.35547 -41.8057 -1.45215 -61.1826 -49.4814c-7.56348 -19.0605 -12.209 -35.8184 -17.3174 -56.1709c-0.00488281 -0.0185547 -10.5547 -43.4492 -10.5547 -43.4492
c-1.83203 -7.19434 -3.70215 -14.3711 -5.61133 -21.5322c-3.41309 -14.0283 -6.12207 -25.1621 3.2002 -36.0996c2.15527 -2.35059 4.38672 -3.82812 6.50293 -4.7832c2.90332 -0.896484 6.3291 -1.05566 10.6182 -1.24023zM615.44 -6.01758
c-77.585 0 -137.114 66.2402 -137.114 143.773c0 77.543 59.5225 143.772 137.114 143.772c77.584 0 137.114 -66.2393 137.114 -143.772c0 -77.543 -59.5225 -143.773 -137.114 -143.773zM613.338 259.266c-65.3379 0 -115.903 -56.1143 -115.903 -121.51
c0 -65.4043 50.5586 -121.511 115.903 -121.511c65.3379 0 115.902 56.1152 115.902 121.511c0 65.4033 -50.5576 121.51 -115.902 121.51zM622.327 220.334c0.707031 -16.8936 -3.47656 -53.5098 -4.52734 -62.2168c4.5918 -16.2412 13.0938 -30.7227 26.3604 -43.9893
c11.6611 -11.6611 27.0801 -22.4082 46.7773 -32.3604c5.2334 -2.64355 1.20508 -9.18457 -0.362305 -12.9834c-0.998047 -2.41992 -4.19238 -3.91211 -6.88184 -2.5498c-21.5566 10.9229 -39.0547 23.0039 -52.6016 36.5508
c-10.2891 10.2891 -18.2666 21.415 -23.9277 33.416c-8.3623 -17.3018 -21.6943 -35.4316 -36.125 -49.8633c-7.71191 -7.71191 -15.749 -14.3652 -23.6543 -19.2285c-2.33887 -1.43848 -5.40723 -0.582031 -6.78809 1.50098l-4.42969 6.68262
c-1.58105 2.38477 -0.686523 5.58496 1.47168 6.96973c10.0186 6.43066 18.8906 13.5107 26.6367 21.2568c28.7461 28.7451 42.5137 67.0381 40.9385 117.279c-0.188477 6.00879 6.44922 5.12598 12.165 5c1.73926 -0.0351562 2.89258 -0.920898 3.43555 -1.46387
c2.92285 -2.92285 1.5127 -1.61523 1.5127 -4.00098zM608.538 154.145c-0.318359 1.07715 -0.782227 2.17773 -0.818359 3.44727c-0.334961 -1.11426 -0.681641 -2.2207 -1.03906 -3.32031c0.620117 0.0732422 1.25098 0.03125 1.85742 -0.126953zM515.077 219.837
c22.8369 29.876 57.9668 49.4268 98.2607 49.4268c70.9541 0 125.9 -60.6416 125.9 -131.508c0 -70.876 -54.9404 -131.509 -125.9 -131.509c-40.4502 0 -75.6982 19.708 -98.5283 49.7842c22.9512 -31.3857 58.9697 -52.0508 100.631 -52.0508
c71.9717 0 127.116 61.6973 127.116 133.775c0 72.0889 -55.1367 133.774 -127.116 133.774c-41.4961 0 -77.3984 -20.5098 -100.363 -51.6934z" />
  </g>

</svg>
