<?xml version="1.0" standalone="no"?>
<!DOCTYPE svg PUBLIC "-//W3C//DTD SVG 1.1//EN" "http://www.w3.org/Graphics/SVG/1.1/DTD/svg11.dtd" >
<svg xmlns="http://www.w3.org/2000/svg" xmlns:xlink="http://www.w3.org/1999/xlink" version="1.1" viewBox="-10 0 1051 1000">
  <g transform="matrix(1 0 0 -1 0 800)">
   <path fill="currentColor"
d="M271 608l-12 60c128.725 89.7881 355.203 55.3633 442.457 48.5605c0 -0.0107422 0.000976562 -0.0214844 0.000976562 -0.0322266c27.4463 0.582031 75.1855 -1.32129 107.268 -33.4033c40.1396 -40.1396 38.6152 -108.841 37.5254 -169.365
c-0.395508 -21.9258 -0.433594 -33.2402 -0.22168 -41.9463c26.3789 -43.8281 72.168 -89.959 89.3252 -129.607c6.95117 -16.0635 5.49219 -24.7637 2.64551 -40.2051l-12 -14l-79.501 -63.5771v-212.431c1.93945 -31.0869 1.82422 -79.2412 -27.416 -108.48
c-26.0322 -26.0322 -182.507 -12.0195 -220.584 -13.0049l-2.90137 0.0126953c-103.732 -7.2998 -296.108 50.6025 -326.603 92.1719c-18.5059 25.2275 -31.4014 41.2529 -57.9951 55.3086v70.0371c25.8174 -16.2627 49.624 -17.8066 70.1904 -60.6357
c44.2188 -92.082 349.455 -105.734 451.309 -108.438l-0.499023 -0.962891c50 12 34.1514 4.48145 42.5352 13.5361c19.1768 20.7119 3.97852 41.9688 5.50781 57.9648h-0.541992v2.14941c-0.253906 0.990234 -0.500977 1.94141 -0.738281 2.84863h0.738281v207.174v3.4873
v1.33887h1.58203l104 88h1.13281c4.9834 45.8955 -62.8379 92.1289 -94.2158 139.501l-3 4l-1 1c-2.02051 3.99219 0.0439453 4.02539 -2.08398 11.5605c-0.0371094 0.130859 -0.189453 0.24707 -0.174805 0.367188l0.258789 2.07227l0.0644531 1.49902
c0.00976562 0.226562 0.150391 3.89551 0.242188 6.24414c3.11426 79.1523 14.1973 176.389 -74.8154 176.771c-136.35 16.7461 -373.536 9.53418 -431.49 -46.5137zM30.3545 728.521h55.5146l17.1611 52.2256l17.1602 -52.2256h55.5156l-44.8672 -32.2959l17.1611 -52.2246
l-44.9697 32.2959l-44.9707 -32.2959l17.1611 52.2246zM327 244v19h28v22h-28v18h28v24h16v-24h23v23h16v-23h30v-18h-30v-22h30v-19h-30v-25h-16v25h-23v-24h-16v24h-28zM382 348l-54 98l12 5l43 -74l39 75l14 -6zM394 285h-23v-22h23v22zM608 395c0 1 -1 4 -2 5s-4 2 -5 2
c-4 0 -6 -2 -9 -5c-1 -1 -3 -2 -4 -2c-2 0 -4 2 -5 3c0 0 -4 3 -6 4h-2s-4 -1 -5 -2s-1 -1 -2 -5c0 -2 1 -5 5 -9l15 -15l15 15c2 2 5 4 5 9zM568 427v-13c5 2 12 3 20 -3c5 4 9 4 13 4c6 0 11 -2 14 -5c6 -6 11 -20 -3 -33c-16 -16 -17 -18 -18 -18c-3 -3 -9 -3 -12 0
l-17 17c-1 -7 -2 -14 -2 -19c0 -2 0 -11 2 -12v-1c6 -59 62 -115 65 -116v0v0h-1l1 -1l-10 -7l-5 5c-21 23 -44 48 -62 109c-5 -29 -23 -61 -39 -81c-10 -13 -14 -22 -24 -33l-12 10c7 9 12 16 18 25c4 5 7 9 11 14c44 58 45 134 45 173h13c1 0 3 -1 3 -4v-11v0z" />
  </g>

</svg>
