<?xml version="1.0" standalone="no"?>
<!DOCTYPE svg PUBLIC "-//W3C//DTD SVG 1.1//EN" "http://www.w3.org/Graphics/SVG/1.1/DTD/svg11.dtd" >
<svg xmlns="http://www.w3.org/2000/svg" xmlns:xlink="http://www.w3.org/1999/xlink" version="1.1" viewBox="-10 0 1014 1000">
  <g transform="matrix(1 0 0 -1 0 800)">
   <path fill="currentColor"
d="M828.399 483.872c0 9.49878 0.360099 25.4826 0.360099 28.905l-0.318652 61.3747l-8.69455 54.78l-24.0577 41.7601l-29.8355 19.1251l-33.9409 8.02542l-47.9505 1.85133v0.765382l-107.704 8.96128l-161.614 -4.8437l-135.511 -48.0118l4.97421 -24.8711
l90.1513 34.2037l168.519 13.9909l163.859 -8.05849l72.0585 -32.0852l24.6852 -76.5829c-11.2968 -92.7231 -11.5388 -94.7093 -10.6225 -98.1968c0.272553 -1.03738 0.408327 -1.98777 0.495372 -2.92219c0.487753 -0.641757 1.13403 -1.58506 1.4862 -2.05622
l30.4464 -40.7334l38.0432 -60.0682l23.93 -33.502l-96.7113 -80.2498l-3.19974 -219.288c0.962733 -7.56244 2.78458 -22.0112 5.01798 -45.877c-0.12894 -0.269919 -9.65147 -20.9678 -12.8349 -27.02c-1.80565 -3.43278 -3.36365 -6.39475 -8.94453 -11.1259
c-28.726 -6.87192 -37.6748 -9.01268 -53.7943 -9.01268c-3.38415 0 -6.77838 0.14333 -10.1737 0.446144l-127.95 -3.2205l-189.706 31.9736l-119.91 72.0259l-21.8729 31.5454c-0.18608 0.126152 -14.9542 10.3475 -18.5829 12.6523v-31.4635
c5.41685 -3.87145 13.5068 -7.36272 24.4398 -17.2503c7.32645 -6.62591 2.09556 -4.45645 10.6241 -11.9264c1.03002 -0.902171 1.03002 -0.902171 17.2005 -21.8062l70.2643 -41.1391l123.979 -35.7692l40.8353 -3.74581
c52.8258 -4.90757 59.0669 -6.73248 83.0467 -7.42728l68.08 -1.97257l89.7606 0.254271l51.1066 12.4914l15.1376 25.2075l6.27671 34.16l-0.268638 82.9487l0.0291888 84.2282l-0.00582149 87.5189l84.7837 67.8016l7.68593 8.96692l1.11464 7.19504
c0.44913 7.61262 -1.52476 12.8022 -3.31214 18.1783l-23.3304 38.8443l-33.0243 43.448l-34.3179 48.9016c-0.202711 16.1296 -0.202711 16.1296 -0.202711 17.6951zM636.498 333.052zM350.241 525.634zM296.783 427.22zM505.07 298.547zM504.695 286.596zM345.551 331.034
zM437.299 302.171zM687.559 449.472zM296.783 427.22zM687.559 449.472zM560.801 575.821c-20.1797 0 -37.2627 -7.84863 -45.9277 -16.5137c-3.29688 -3.29688 -2.45508 -3.46875 -3.81836 -3.96484c-6.12598 -2.23438 -12.1289 -3.04297 -17.6074 -3.04297
c-5.17188 0 -14.5703 0.763672 -24.7461 5.33594c-6.91406 8.41602 -18.6074 16.0762 -38.2686 16.0762c-29.5166 0 -63.1758 -18.2695 -74.8818 -45.6426l-0.578125 -1.35254h-2.03613l-53.3291 -72.46h-2.55176v-3.46582
c-0.345703 -0.469727 -0.691406 -0.938477 -1.03711 -1.40918h0.557617l-5.90625 -22.1484l-0.664062 0.00976562c-0.119141 -2.26758 -0.333008 -3.57031 -1.04883 -6.38867h0.859375c-0.0205078 -2.50391 -0.0205078 -2.50391 -0.0205078 -2.75879
c0 -16.1924 6.9873 -48.9619 53.5596 -87.4795c49.1855 -40.6826 104.811 -45.168 150.924 -45.168c75.582 0 106.396 9.47168 151.623 45.2109c55.25 43.6562 56.1816 56.5117 57.7012 88.4209l-1.54688 0.0244141c-0.09375 0.355469 -6.87988 28.0469 -9.28711 35.501
l-39.4873 67.4766c-4.4502 4.64551 -4.4502 4.64551 -4.89844 5.41406h-0.292969c-13.8838 14.209 -42.9873 40.7988 -71.4033 46.6904c-5.4375 1.12793 -10.7627 1.63477 -15.8867 1.63477zM429.662 556.306c4.24805 0 13.6895 0 24.4541 -7.4082l-0.0830078 -1.02734
c0.621094 -0.253906 1.61719 -0.72168 2.58398 -1.64062c9.12109 -8.66699 23.1387 -12.7363 36.4473 -12.7363c12.3975 0 24.1797 3.53027 30.8125 10.1641c1.29004 1.29102 3.375 3.37402 4.98438 8.22656c6.83496 4.66406 17.6924 9.75391 32.5107 9.75391
c19.665 0 28.8584 -8.56445 35.9092 -15.1289c5.47852 -5.10254 12.6934 -11.8379 28.21 -22.1055c0.592773 -0.128906 1.0791 -0.414062 1.46973 -0.855469l0.34082 0.0136719l44.376 -69.9941c0 -0.119141 -0.00292969 -0.239258 -0.00292969 -0.359375
c3.18262 -11.9238 6.08887 -24.125 9.15332 -36.167c1.07129 -4.28027 1.67383 -8.24707 1.67383 -12.0879c0 -18.4277 -13.71 -33.3574 -53.2031 -65.6309c-36.3926 -29.7363 -62.7461 -39.9375 -142.168 -39.9375c-42.9961 0 -77.6543 5.28223 -118.131 33.6152
c-49.8955 34.9277 -56.6045 60.6494 -56.6045 83.5547c0 1.51074 0.0283203 2.99902 0.0703125 4.46387c2.49023 9.88086 5.19434 19.5469 7.76465 29.3457l48.627 68.8457c0.69043 -0.265625 1.37891 -0.532227 2.06836 -0.796875
c1.63867 3.85742 4.42773 10.4297 11.9961 17.998c12.1963 12.1963 30.248 19.8945 46.7402 19.8945zM597.401 63.4004c-44.4932 0 -80.5996 36.1045 -80.5996 80.5996c0 20.5049 10.9434 43.5186 26.3008 58.876c0.880859 0.880859 1.77734 1.73633 2.68848 2.56641
h-177.775v18.998c78.1943 -0.00683594 156.47 1.76172 234.592 -0.00976563c41.707 -0.945312 75.3926 -38.6592 75.3926 -80.4307c0 -44.4932 -36.1045 -80.5996 -80.5986 -80.5996zM597.215 82.54h0.0078125c33.9971 0 61.5928 27.6045 61.5928 61.6006
c0 34.001 -27.5986 61.6016 -61.6006 61.6016c-34 0 -61.6016 -27.5996 -61.6016 -61.6016c0 -33.918 27.4736 -61.4922 61.4092 -61.6006v0h0.192383v0zM37.3545 728.521h55.5146l17.1611 52.2256l17.1602 -52.2256h55.5156l-44.8672 -32.2959l17.1611 -52.2246
l-44.9697 32.2959l-44.9707 -32.2959l17.1611 52.2246z" />
  </g>

</svg>
