<?xml version="1.0" standalone="no"?>
<!DOCTYPE svg PUBLIC "-//W3C//DTD SVG 1.1//EN" "http://www.w3.org/Graphics/SVG/1.1/DTD/svg11.dtd" >
<svg xmlns="http://www.w3.org/2000/svg" xmlns:xlink="http://www.w3.org/1999/xlink" version="1.1" viewBox="-10 0 1051 1000">
  <g transform="matrix(1 0 0 -1 0 800)">
   <path fill="currentColor"
d="M282.499 615.326l-12 60c128.725 89.7881 355.203 55.3633 442.457 48.5605c0 -0.0107422 0.000976562 -0.0214844 0.000976562 -0.0322266c27.4463 0.582031 75.1855 -1.32129 107.268 -33.4033c40.1396 -40.1396 38.6152 -108.841 37.5254 -169.365
c-0.395508 -21.9258 -0.433594 -33.2402 -0.22168 -41.9463c26.3789 -43.8281 72.168 -89.959 89.3252 -129.607c6.95117 -16.0635 5.49219 -24.7637 2.64551 -40.2051l-12 -14l-79.501 -63.5771v-212.431c1.93945 -31.0869 1.82422 -79.2412 -27.416 -108.48
c-26.0322 -26.0322 -182.507 -12.0195 -220.584 -13.0049l-2.90137 0.0126953c-103.732 -7.2998 -296.108 50.6025 -326.603 92.1719c-18.5059 25.2275 -31.4014 41.2529 -57.9951 55.3086v70.0371c25.8174 -16.2627 49.624 -17.8066 70.1904 -60.6357
c44.2188 -92.082 349.455 -105.734 451.309 -108.438l-0.499023 -0.962891c50 12 34.1514 4.48145 42.5352 13.5361c19.1768 20.7119 3.97852 41.9688 5.50781 57.9648h-0.541992v2.14941c-0.253906 0.990234 -0.500977 1.94141 -0.738281 2.84863h0.738281v207.174v3.4873
v1.33887h1.58203l104 88h1.13281c4.9834 45.8955 -62.8379 92.1289 -94.2158 139.501l-3 4l-1 1c-2.02051 3.99219 0.0439453 4.02539 -2.08398 11.5605c-0.0371094 0.130859 -0.189453 0.24707 -0.174805 0.367188l0.258789 2.07227l0.0644531 1.49902
c0.00976563 0.226562 0.150391 3.89551 0.242188 6.24414c3.11426 79.1523 14.1973 176.389 -74.8154 176.771c-136.35 16.7461 -373.536 9.53418 -431.49 -46.5137zM41.8535 735.847h55.5146l17.1611 52.2256l17.1602 -52.2256h55.5156l-44.8672 -32.2959l17.1611 -52.2246
l-44.9697 32.2959l-44.9707 -32.2959l17.1611 52.2246zM438.126 328.453c1.28906 -22.9072 -9.59668 -88.1592 -3.19336 -91.584c6.28711 -67.5898 71.7256 -130.74 71.8086 -128.305l-11.0879 -7.3916c-24.9473 27.2109 -52.7832 54.1396 -73.9941 127.872
c-4.72266 -32.4658 -25.001 -68.8281 -43.2227 -91.9678c-11.0869 -14.0801 -15.8398 -25.3447 -25.3438 -35.9043l-12.6719 10.0322c14.2559 18.4795 22.2578 30.3906 31.6797 42.7676c48.1074 63.1934 50.1201 146.162 49.7471 190.117
c4.47656 -0.0986328 8.95312 -0.197266 13.4297 -0.296875c2.51855 -0.0537109 2.62109 -2.50195 2.66406 -3.54785c0.00585938 -0.117188 -0.164062 -5.61719 0.18457 -11.792zM550.157 341.502l-93.3135 -105.289l12.2266 -9.74219l79.4883 92.3574
c6.60254 -10.9482 16.0254 -23.8916 19.1621 -32.3887l22.3057 31.8057zM411.932 473.481zM411.811 472.051zM560.404 495.687c0 -22.3145 -12.9805 -51.416 -29.0957 -66.209c-33.9668 -31.2646 -69.1465 -31.2646 -137.471 -31.2646v12.999
c19.2139 0 35.6543 0.728516 50.0723 0.728516c-6.62402 1.64551 -15.3379 5.32227 -23.4033 13.3877c-15.3652 15.3643 -15.1836 34.7227 -10.3037 47.5938c-0.363281 1.48047 2.4375 5.64844 3.0957 7.32422c0.641602 1.63477 1.43555 2.45215 2.57422 3.48145
c0.702148 0.633789 0.702148 0.633789 1.12695 1.34082c1.01172 1.6875 2.64941 3.32715 4.69434 5.37109c1.56934 1.56934 8.84082 6.84473 14.4307 8.5918c4.1377 1.29395 4.71289 2.0498 7.43652 2.37012c1.24414 0.146484 1.9541 0.305664 2.72754 0.479492
c1.35547 0.302734 22.7275 4.75195 40.5361 -13.0566c8.75781 -8.75781 13.1885 -19.3838 13.1885 -31.6641c0 -7.5752 -1.86035 -21.6025 -13.8438 -33.3457c-3.67871 -3.56055 -7.68066 -6.40234 -11.9902 -8.52051c18.6953 3.66113 33.7432 10.6064 48.1904 23.7832
c13.0674 11.9766 25.1543 37.7803 24.9043 57.6025c-0.171875 17.9463 -11.6016 43.4932 -25.5547 55.7598c-30.2939 26.9609 -63.9395 26.9609 -126.133 26.9609v12.999c62.5898 0 100.462 0 134.786 -30.21c15.3701 -13.4854 30.0312 -41.8652 30.0312 -66.5029z
M453.66 425.73c12.2119 0 19.2139 5.82715 23.0273 9.6416c7.99805 7.99707 9.11426 16.3477 9.11426 21.916c-0.0273438 7.91016 -2.6543 15.4209 -9.50684 22.0752c-11.5791 11.3936 -26.3389 10.5029 -35.2207 6.63086l-9.93359 -6.53711l-7.6875 -11.3662
l0.0234375 0.0634766c-0.0078125 -0.0214844 -0.015625 -0.0419922 -0.0234375 -0.0634766c-1.53418 -4.19824 -5.97266 -19.8975 7.4248 -33.1162c6.27148 -6.18848 13.7881 -9.24414 22.7822 -9.24414zM741.72 180.439l-118.72 0.560547l1.67969 239.68l13.9385 -0.374023
v-225.399h90.2227v225.399l12.8789 -0.186523v-239.68z" />
  </g>

</svg>
