<?xml version="1.0" standalone="no"?>
<!DOCTYPE svg PUBLIC "-//W3C//DTD SVG 1.1//EN" "http://www.w3.org/Graphics/SVG/1.1/DTD/svg11.dtd" >
<svg xmlns="http://www.w3.org/2000/svg" xmlns:xlink="http://www.w3.org/1999/xlink" version="1.1" viewBox="-10 0 1051 1000">
  <g transform="matrix(1 0 0 -1 0 800)">
   <path fill="currentColor"
d="M828.399 483.872c0 9.49878 0.360099 25.4826 0.360099 28.905l-0.318652 61.3747l-8.69455 54.78l-24.0577 41.7601l-29.8355 19.1251l-33.9409 8.02542l-47.9505 1.85133v0.765382l-107.704 8.96128l-161.614 -4.8437l-135.511 -48.0118l4.97421 -24.8711
l90.1513 34.2037l168.519 13.9909l163.859 -8.05849l72.0585 -32.0852l24.6852 -76.5829c-11.2968 -92.7231 -11.5388 -94.7093 -10.6225 -98.1968c0.272553 -1.03738 0.408327 -1.98777 0.495372 -2.92219c0.487753 -0.641757 1.13403 -1.58506 1.4862 -2.05622
l30.4464 -40.7334l38.0432 -60.0682l23.93 -33.502l-96.7113 -80.2498l-3.19974 -219.288c0.962733 -7.56244 2.78458 -22.0112 5.01798 -45.877c-0.12894 -0.269919 -9.65147 -20.9678 -12.8349 -27.02c-1.80565 -3.43278 -3.36365 -6.39475 -8.94453 -11.1259
c-28.726 -6.87192 -37.6748 -9.01268 -53.7943 -9.01268c-3.38415 0 -6.77838 0.14333 -10.1737 0.446144l-127.95 -3.2205l-189.706 31.9736l-119.91 72.0259l-21.8729 31.5454c-0.18608 0.126152 -14.9542 10.3475 -18.5829 12.6523v-31.4635
c5.41685 -3.87145 13.5068 -7.36272 24.4398 -17.2503c7.32645 -6.62591 2.09556 -4.45645 10.6241 -11.9264c1.03002 -0.902171 1.03002 -0.902171 17.2005 -21.8062l70.2643 -41.1391l123.979 -35.7692l40.8353 -3.74581
c52.8258 -4.90757 59.0669 -6.73248 83.0467 -7.42728l68.08 -1.97257l89.7606 0.254271l51.1066 12.4914l15.1376 25.2075l6.27671 34.16l-0.268638 82.9487l0.0291888 84.2282l-0.00582149 87.5189l84.7837 67.8016l7.68593 8.96692l1.11464 7.19504
c0.44913 7.61262 -1.52476 12.8022 -3.31214 18.1783l-23.3304 38.8443l-33.0243 43.448l-34.3179 48.9016c-0.202711 16.1296 -0.202711 16.1296 -0.202711 17.6951zM33.2949 712.521h55.5146l17.1611 52.2256l17.1602 -52.2256h55.5156l-44.8672 -32.2959
l17.1611 -52.2246l-44.9697 32.2959l-44.9707 -32.2959l17.1611 52.2246zM442.618 494.447c0.883789 -15.7041 -5.41992 -56.9756 -3.66113 -66.9678c0.539062 -0.613281 1.09473 -1.5625 1.20996 -2.79004c3.66211 -39.3799 35.8926 -78.1875 48.3604 -90.6543
c2.52441 -2.52441 2.52441 -2.52441 9.84082 -8.18457c-0.858398 -0.561523 -0.858398 -0.561523 -13.9951 -9.32031c-1.99219 -1.33008 -4.68945 -1.01953 -6.32324 0.763672c-21.0557 22.9033 -37.5908 40.8906 -52.2266 82.667
c-6.6123 -20.5898 -18.6787 -40.8076 -29.8232 -54.9609c-7.78809 -9.89062 -13.916 -22.0283 -19.7422 -27.8555c-1.77637 -1.77637 -4.58105 -1.90039 -6.50293 -0.379883c-9.90039 7.83691 -9.90039 7.83691 -10.1035 8.04102
c-1.76172 1.76074 -1.89844 4.5332 -0.418945 6.4541c5.56348 7.21191 23.9277 32.3105 24.1729 32.6338c35.5479 46.6953 37.2764 108.758 36.9922 142.175c-0.0244141 2.76465 2.24219 5.00098 5.00781 4.93945c13.0908 -0.291016 13.0908 -0.291016 14.9824 -2.18262
c1.41895 -1.41992 2.14258 -3.52539 2.09473 -5.92773c-0.0166016 -0.80957 -0.0888672 -4.47461 0.135742 -8.4502zM230.812 494.641c0.883789 -15.7031 -5.41895 -56.9756 -3.66113 -66.9668c0.539062 -0.613281 1.09473 -1.5625 1.20996 -2.79004
c3.66211 -39.3799 35.8926 -78.1875 48.3613 -90.6553c2.52344 -2.52344 2.52344 -2.52344 9.84082 -8.18359c-0.859375 -0.561523 -0.859375 -0.561523 -13.9951 -9.32031c-1.99316 -1.33008 -4.68945 -1.01953 -6.32422 0.762695
c-21.0557 22.9043 -37.5898 40.8916 -52.2266 82.667c-6.6123 -20.5889 -18.6787 -40.8066 -29.8232 -54.9609c-7.78809 -9.88965 -13.916 -22.0273 -19.7422 -27.8545c-1.77637 -1.77637 -4.58105 -1.90039 -6.50195 -0.379883
c-9.90039 7.83691 -9.90039 7.83691 -10.1035 8.04102c-1.76172 1.76074 -1.89941 4.5332 -0.418945 6.45312c5.5625 7.21191 23.9268 32.3115 24.1719 32.6348c35.5488 46.6953 37.2764 108.758 36.9922 142.174c-0.0234375 2.76562 2.24219 5.00195 5.00781 4.94043
c13.0908 -0.291992 13.0908 -0.291992 14.9824 -2.18359c1.41895 -1.41895 2.14258 -3.52441 2.09473 -5.92676c-0.0166016 -0.80957 -0.0878906 -4.47461 0.135742 -8.45117zM704.588 326.439l-118.721 0.560547l1.67969 239.68l13.9385 -0.374023v-225.399h90.2227
v225.399l12.8799 -0.186523v-239.68zM216.801 210.601v0l-7.60254 -3.5791l9.29102 -7.08789l201.511 -106.934l4 99.2002l125.601 0.955078v18.2451z" />
  </g>

</svg>
