<?xml version="1.0" standalone="no"?>
<!DOCTYPE svg PUBLIC "-//W3C//DTD SVG 1.1//EN" "http://www.w3.org/Graphics/SVG/1.1/DTD/svg11.dtd" >
<svg xmlns="http://www.w3.org/2000/svg" xmlns:xlink="http://www.w3.org/1999/xlink" version="1.1" viewBox="-10 0 996 1000">
  <g transform="matrix(1 0 0 -1 0 800)">
   <path fill="currentColor"
d="M21.8252 740.129h55.5146l17.1611 52.2256l17.1602 -52.2256h55.5156l-44.8672 -32.2959l17.1611 -52.2246l-44.9697 32.2959l-44.9707 -32.2959l17.1611 52.2246zM262.501 606.576l-12 60c128.725 89.7881 355.203 55.3633 442.457 48.5605
c0 -0.0107422 0.000976563 -0.0214844 0.000976563 -0.0322266c27.4463 0.582031 75.1855 -1.32129 107.268 -33.4033c40.1396 -40.1396 38.6152 -108.841 37.5254 -169.365c-0.395508 -21.9258 -0.433594 -33.2402 -0.22168 -41.9463
c26.3789 -43.8281 72.168 -89.959 89.3252 -129.607c6.95117 -16.0635 5.49219 -24.7637 2.64551 -40.2051l-12 -14l-79.501 -63.5771v-212.431c1.93945 -31.0869 1.82422 -79.2412 -27.416 -108.48c-26.0322 -26.0322 -182.507 -12.0195 -220.584 -13.0049
l-2.90137 0.0126953c-103.732 -7.2998 -296.108 50.6025 -326.603 92.1719c-18.5059 25.2275 -31.4014 41.2529 -57.9951 55.3086v70.0371c25.8174 -16.2627 49.624 -17.8066 70.1904 -60.6357c44.2188 -92.082 349.455 -105.734 451.309 -108.438l-0.499023 -0.962891
c50 12 34.1514 4.48145 42.5352 13.5361c19.1768 20.7119 3.97852 41.9688 5.50781 57.9648h-0.541992v2.14941c-0.253906 0.990234 -0.500977 1.94141 -0.738281 2.84863h0.738281v207.174v3.4873v1.33887h1.58203l104 88h1.13281
c4.9834 45.8955 -62.8379 92.1289 -94.2158 139.501l-3 4l-1 1c-2.02051 3.99219 0.0439453 4.02539 -2.08398 11.5605c-0.0371094 0.130859 -0.189453 0.24707 -0.174805 0.367188l0.258789 2.07227l0.0644531 1.49902
c0.00976562 0.226562 0.150391 3.89551 0.242188 6.24414c3.11426 79.1523 5.19727 173.389 -83.8154 173.771c-136.35 16.7461 -373.536 9.53418 -431.49 -46.5137zM472.1 57.9648c0 -1.2959 1.08594 -2.24414 2.24414 -2.24414l178.656 -0.720703
c1.24023 0 2.25098 1.01465 2.25098 2.22168l-0.914062 77.6484c2.91113 -0.416016 5.7959 -1.08789 8.73242 -1.24707l14.293 -0.774414l-22.1113 25.7451v42.0254c0 1.24316 -1.01367 2.24512 -2.14648 2.24512l-102.793 -2.23926l-1.04785 19.3838l-0.842773 6.56055
l-25.6211 -23.1807l-0.712891 0.00195312s-47.7295 0.193359 -47.7363 0.193359c-1.29883 0 -2.25098 -1.08203 -2.25098 -2.24414v-143.375zM481.367 64.9805v129.329l41.1484 -0.176758l27.791 -23.4355c0.47168 7.87109 0.641602 16.0439 0.920898 24.1074
l94.7568 -1.21777v-34.2676l-24.1475 -26.4834l11.8887 -1.57617l14.3457 2.20703l-2.14355 -69.1924zM528.396 560.354c0 10.5039 9.4043 19.3896 21.7031 19.3896s27.3047 -7.06445 27.3047 -17.5684c0 -10.502 -15.0059 -21.21 -27.3047 -21.21
s-21.7031 8.88672 -21.7031 19.3887zM543.929 293.669zM582.648 471.834l0.0283203 -0.0341797c-0.00976562 0.0107422 -0.0283203 0.0341797 -0.0283203 0.0341797zM472.69 332.427l0.00878906 0.0546875
c-0.00292969 -0.0185547 -0.00878906 -0.0371094 -0.00878906 -0.0546875zM482.381 310.121l-0.1875 0.0576172c0.0625 -0.0205078 0.125 -0.0390625 0.1875 -0.0576172zM485.508 309.501l-0.0410156 0.00390625c0.00683594 0 0.0136719 -0.00390625 0.0410156 -0.00390625z
M605.388 291.767c-62.9355 0.220703 -114.64 0 -114.65 0.000976563c-7.08887 0.228516 -15.8848 0.511719 -23.4775 8.92285c-12.5898 13.9473 -10.374 30.8818 -9.69141 34.6182c1.38672 7.59375 3.56055 15.2197 6.72168 27.9258
c13.2471 53.2363 14.7988 60.877 20.8242 78.4678c13.7334 39.9248 30.3662 53.4053 45.0459 59.3828c8.98438 3.35254 38.1533 11.2676 62.2783 -15.6758c12.4258 -14.5898 22.4824 -34.3457 34.3086 -81.9961c4.18848 -17.4121 8.4668 -34.791 12.8428 -52.1719
c1.11523 -4.64355 2.1377 -9.30469 3.07227 -14.0127c4.6084 -22.6846 -8.55273 -45.5898 -29.7188 -45.3096zM477.396 313.819c0.0126953 -0.0107422 0.0263672 -0.0205078 0.0263672 -0.03125c3.87891 -4.21484 6.45215 -4.32617 13.5039 -4.63086
c0 0 117.229 0.0507812 117.281 0.0507812c2.74609 -0.0390625 5.48145 0.12207 8.21191 0.484375c5.66113 0.706055 14.1504 10.1309 11.3145 23.5771c-1.31152 6.60156 -1.31152 6.60156 -6.88281 28.9736c-13.8486 56.8789 -17.0039 69.8389 -26.4561 90.5469
c-1.73242 3.71289 -7.29297 14.8711 -14.873 22.4512c-7.41797 7.41797 -15.7988 11.3242 -25.5127 11.9961c-12.085 1.06836 -34.1982 -0.617188 -50.5693 -41.1992c-6.4082 -16.1484 -10.3398 -30.3477 -14.6699 -47.5977
c-10.0938 -41.5557 -10.0938 -41.5557 -13.75 -55.2695l0.00878906 0.0371094c-0.00292969 -0.0126953 -0.00878906 -0.0371094 -0.00878906 -0.0371094c-2.88086 -11.8477 -5.0166 -20.6309 2.37598 -29.3516z" />
  </g>

</svg>
