<?xml version="1.0" standalone="no"?>
<!DOCTYPE svg PUBLIC "-//W3C//DTD SVG 1.1//EN" "http://www.w3.org/Graphics/SVG/1.1/DTD/svg11.dtd" >
<svg xmlns="http://www.w3.org/2000/svg" xmlns:xlink="http://www.w3.org/1999/xlink" version="1.1" viewBox="-10 0 1051 1000">
  <g transform="matrix(1 0 0 -1 0 800)">
   <path fill="currentColor"
d="M271 608l-12 60c128.725 89.7881 355.203 55.3633 442.457 48.5605c0 -0.0107422 0.000976562 -0.0214844 0.000976562 -0.0322266c27.4463 0.582031 75.1855 -1.32129 107.268 -33.4033c40.1396 -40.1396 38.6152 -108.841 37.5254 -169.365
c-0.395508 -21.9258 -0.433594 -33.2402 -0.22168 -41.9463c26.3789 -43.8281 72.168 -89.959 89.3252 -129.607c6.95117 -16.0635 5.49219 -24.7637 2.64551 -40.2051l-12 -14l-79.501 -63.5771v-212.431c1.93945 -31.0869 1.82422 -79.2412 -27.416 -108.48
c-26.0322 -26.0322 -182.507 -12.0195 -220.584 -13.0049l-2.90137 0.0126953c-103.732 -7.2998 -296.108 50.6025 -326.603 92.1719c-18.5059 25.2275 -31.4014 41.2529 -57.9951 55.3086v70.0371c25.8174 -16.2627 49.624 -17.8066 70.1904 -60.6357
c44.2188 -92.082 349.455 -105.734 451.309 -108.438l-0.499023 -0.962891c50 12 34.1514 4.48145 42.5352 13.5361c19.1768 20.7119 3.97852 41.9688 5.50781 57.9648h-0.541992v2.14941c-0.253906 0.990234 -0.500977 1.94141 -0.738281 2.84863h0.738281v207.174v3.4873
v1.33887h1.58203l104 88h1.13281c4.9834 45.8955 -62.8379 92.1289 -94.2158 139.501l-3 4l-1 1c-2.02051 3.99219 0.0439453 4.02539 -2.08398 11.5605c-0.0371094 0.130859 -0.189453 0.24707 -0.174805 0.367188l0.258789 2.07227l0.0644531 1.49902
c0.00976562 0.226562 0.150391 3.89551 0.242188 6.24414c3.11426 79.1523 14.1973 176.389 -74.8154 176.771c-136.35 16.7461 -373.536 9.53418 -431.49 -46.5137zM30.3545 728.521h55.5146l17.1611 52.2256l17.1602 -52.2256h55.5156l-44.8672 -32.2959l17.1611 -52.2246
l-44.9697 32.2959l-44.9707 -32.2959l17.1611 52.2246zM649 227zM396 212zM649 227zM428 150zM396 212zM431 276zM616 152zM560 145v0v0v0zM625 277c-1 1 0 1 -1 1c-9 9 -28 27 -47 31s-36 -5 -42 -13c-13 -5 -27 1 -27 2c-18 21 -64 9 -76 -19v-1l-34 -47h-3v-3l-1 -2h1
l-3 -12h-1c0 -3 0 -4 -1 -7h1c0 -12 5 -33 35 -58c35 -29 74 -29 105 -29c45 1 65 8 92 29c36 29 37 37 38 59h-2s-4 17 -6 23v0v0l-25 43zM490 294v0v0v0zM526 282v1v-1zM637 229c0 -2 1 -2 1 -4v0s2 -1 5 -20c2 -15 -6 -30 -33 -48c-24 -16 -47 -12 -49 -12h-1
c-1 0 -3 -1 -6 -1v1l1 -1h-1v22h-16v-22v0v1v-1h-1h1h-1v22h-18c0 -4 3 -22 -1 -22v0v0h-1v1v0v-1c0 4 1 18 1 22h-18c0 -4 -1 -23 -1 -23v0v0c-17 -1 -44 0 -55 10c-30 27 -37 41 -36 55l5 19l30 42s1 1 0 1v0h1c5 4 11 10 11 14c0 9 22 13 35 9v-41h29v28h7v-28h26l-1 33
c4 1 7 3 10 4c13 7 18 7 26 4c5 -2 1 -4 5 -8c2 -2 4 -3 10 -7c2 -1 4 -3 6 -4c1 0 0 -1 1 -1zM554 144h1l-1 -1v1zM496 290v0v0zM500 166v1v-1zM518 166v0v0zM519 166h-1h1zM537 166h1h-1zM538 166c-1 0 0 1 0 1v-1zM554 166v0v0zM638 225v-1h-1zM608 274v0v0zM443 270v0v0
zM443 270v-1v0v1zM443 270v0v0zM444 270v0v0zM608 273v0v0zM638 225v0v0zM638 225v0v0zM638 225v0v0zM560 145v0v0zM661 208v1s1 -1 0 -1zM390 207v0h-1h1zM391 214v0v0zM394 226l-1 -1v1h1zM395 231c-1 0 0 0 0 0v0zM432 279v0v0zM624 278v1v-1zM628 274v0v0zM653 231v0v0z
M519 282v0v0zM519 252c1 0 0 -1 0 -1v1zM490 252v-1s-1 1 0 1zM551 287v0v0v0zM552 252c1 0 0 -1 0 -1v1zM526 252v-1s-1 1 0 1zM666 396l-270 0.899414v17.8164h242.083v101.167h-242.083v17.8164l267.6 -1.5z" />
  </g>

</svg>
