<?xml version="1.0" standalone="no"?>
<!DOCTYPE svg PUBLIC "-//W3C//DTD SVG 1.1//EN" "http://www.w3.org/Graphics/SVG/1.1/DTD/svg11.dtd" >
<svg xmlns="http://www.w3.org/2000/svg" xmlns:xlink="http://www.w3.org/1999/xlink" version="1.1" viewBox="-10 0 1214 1000">
  <g transform="matrix(1 0 0 -1 0 800)">
   <path fill="currentColor"
d="M561.92 714.502c27.334 -0.583984 55.5898 -15.2617 67.5352 -38.9092c10.1895 -20.1738 13.9219 -62.7627 6.96875 -79.5439c-2.72656 -6.58887 -16.375 -21.9121 -34.7891 -40.2812c-0.205078 2.72168 -1.60938 5.88965 -4.6582 9.08496l-1.85742 1.94238
c-2.39648 2.29785 -4.96094 4.4209 -7.1875 6.88574c-2.06445 2.02441 -4.26758 3.90234 -6.15234 6.0957c-2.1582 2.55176 -4.3125 5.15332 -7.02734 7.14355c-2.03125 1.7666 -3.99023 3.58594 -5.86523 5.52539c-0.966797 1.07227 -1.95703 2.12598 -2.9873 3.13184
c20.9541 20.6777 9.69043 31.0781 -36.5869 33.79c-35.0088 2.04883 -59.0918 8.43457 -64.5928 17.1211c-5.31738 8.39355 -3.62793 26.7637 2.98926 32.4854c3.43359 2.97559 14.2637 7.36133 24.0566 9.75c9.79688 2.38379 18.6328 5.49512 19.6406 6.91016
c1.00977 1.41504 7.95312 6.12012 15.4297 10.4502c10.4277 6.04102 22.6621 8.68359 35.084 8.41797zM552.096 584.938c1.54102 -1.12109 2.79883 -2.55664 4.07617 -3.97266c2.32617 -2.44629 4.7832 -4.73145 7.31836 -6.95508
c2.06836 -1.4375 3.60547 -3.40137 5.21484 -5.30176c2.16797 -2.63965 4.78125 -4.84082 7.20508 -7.2334c2.27539 -2.52051 4.89551 -4.68457 7.33984 -7.03516c0.431641 -0.459961 0.861328 -0.918945 1.29297 -1.37891
c3.12695 -3.32812 6.31738 -4.89551 9.08594 -5.17383c-15.4902 -15.0732 -33.4551 -31.5391 -51.0254 -46.7842c-1.36719 2.35742 -2.73047 4.7168 -4.00391 7.13281c-2.34375 3.70996 -4.72852 7.40137 -7.25977 10.9834
c-2.24805 3.02734 -4.67578 5.91016 -6.94922 8.9209c-1.94922 2.41992 -3.85352 4.93457 -5.21484 7.73242c-1.58789 2.5332 -3.26172 5.20508 -5.46582 7.2334c-1.49512 2.02344 -2.0752 4.62793 -3.34863 6.79102c-1.01953 2.42578 -2.16406 4.79492 -3.64648 6.95508
c17.3496 10.1562 34.1953 20.5459 45.3809 28.0859zM491.766 548.245c1.2207 -1.45996 2.0459 -3.09961 2.75977 -4.88672c1.48242 -3.17383 2.87695 -6.38086 4.68945 -9.38379c1.76172 -2.33301 3.89648 -4.40723 5.31445 -6.99121
c1.71484 -3.39258 4.08789 -6.48242 6.42773 -9.47461c2.08594 -2.87012 4.49219 -5.50488 6.54883 -8.39355c2.29297 -3.26855 4.47656 -6.62598 6.59961 -10.0098c1.62695 -3.17285 3.48438 -6.21387 5.25 -9.30859c-15.0723 -12.6592 -29.3145 -23.8916 -40.6777 -31.71
c-1.29492 -0.888672 -2.62891 -1.87793 -3.97852 -2.90918c-0.326172 0.376953 -0.677734 0.751953 -1.04883 1.12793c-2.13672 2.14648 -4.375 4.24707 -6.98438 5.81836c-1.44141 0.743164 -1.93359 1.21484 -3.12891 2.90039
c-1.82812 1.79785 -3.76367 3.46289 -5.86523 4.92188c-2.17969 2.12402 -3.94727 4.39648 -5.26367 7.2041c-1.83203 2.86523 -3.43555 5.76172 -4.71973 8.93457c-1.37793 2.5791 -2.86426 5.10645 -4.0166 7.7998c-1.09766 2.28125 -2.00195 4.56055 -2.40039 7.08887
c-0.738281 2.86816 -1.19336 5.83105 -2.46094 8.53809c-1.11133 3.15137 -2.66016 6.03711 -4.36914 8.89453c-0.498047 0.852539 -1.00977 1.69629 -1.52734 2.53613c6.34375 4.11719 11.873 7.50586 14.9727 9.04688c9.48633 4.71094 21.4414 11.2031 33.8789 18.2559z
M428.672 511.383c0.330078 -0.541016 0.664062 -1.08398 0.988281 -1.63379c1 -1.91602 2.29395 -3.64746 2.92188 -5.73145c1.07812 -2.27637 1.4707 -4.75391 2.06152 -7.1748c0.68457 -3.63574 1.9873 -7.04199 3.5791 -10.3672
c1.25586 -2.90625 2.86133 -5.6377 4.33789 -8.43262c1.44141 -3.58203 3.33789 -6.86621 5.4082 -10.1133c1.94922 -3.91406 4.63086 -7.21875 7.74023 -10.251c1.77539 -1.72461 4 -2.87109 5.66016 -4.71582c1.65234 -2.49609 4.2207 -4.1875 6.77148 -5.69922
c1.13281 -0.858398 2.26367 -1.83008 3.22852 -2.90527c0.128906 -0.141602 0.259766 -0.27832 0.388672 -0.414062c-8.44922 -8.0625 -16.3613 -17.0361 -21.293 -24.2012c-1.02539 3.26074 -4.51758 6.33887 -10.793 7.41406
c-1.98047 0.339844 -3.93848 0.796875 -5.80078 1.5791c-3.44727 1.38867 -6.95117 2.61914 -10.4336 3.91797c-2.50586 0.641602 -4.26172 3.11328 -6.61914 4.13574c-3.88867 2.5 -7.9707 4.75879 -12.5078 5.83594c-3.95117 1.02344 -7.92773 1.93457 -11.9248 2.76953
c-3.13965 0.802734 -6.27637 1.82812 -9.22754 3.17578c-2.25 1.12988 -4.16602 2.87598 -6.40039 4.05176c-0.515625 0.269531 -1.01953 0.514648 -1.52148 0.738281c0.662109 1.37598 1.27539 2.67383 2.01465 4.15723c11.4893 22.9971 16.3018 28.4766 40.583 46.1748
c3.51367 2.5625 7.18945 5.1582 10.8379 7.68945zM1131.56 448.919v0c2.70508 -0.342773 10.0293 -6.18359 17.6309 -14.2324c12.2344 -12.9512 15.7842 -19.3945 15.7051 -28.543c-0.125 -14.9424 -10.3555 -34.8018 -25.375 -50.3887
c-0.357422 0.685547 -0.771484 1.38574 -1.24219 2.09766c-1.3418 2.01953 -0.619141 0.894531 -2.1543 3.39551c-2.30859 3.48633 -4.82422 6.81152 -7.18555 10.2539c-2.31836 3.54492 -4.44141 7.21875 -6.97656 10.6201
c21.6895 15.7891 23.5098 21.7617 14.0742 44.5342c-4.41602 10.6523 -6.82031 20.584 -5.33984 22.0615c0.185547 0.18457 0.476562 0.249023 0.863281 0.201172zM732.252 445.55v0c8.67969 -0.172852 15.916 -1.62305 21.3359 -4.42676
c12.1641 -6.2959 26.0352 -15.4893 39.7832 -26.0889c-2.11328 -1.08984 -4.22852 -3.07617 -6.04688 -6.1582c-0.87207 -1.47949 -2.02148 -2.72363 -3.31641 -3.84961c-3.29688 -3.08789 -6.59082 -6.17285 -9.52539 -9.62012
c-3.59766 -3.67676 -7.8457 -6.59473 -11.9121 -9.72363c-4.36523 -3.5166 -8.70801 -7.07031 -12.7969 -10.9111c-2.82031 -2.68262 -5.33398 -5.65625 -8.25 -8.23145c-3.7793 -3.33984 -5.50195 -6.80664 -5.71289 -9.74707
c-1.46875 0.875 -2.85938 1.65723 -4.02539 2.21484c-7.37695 3.51562 -11.0566 4.5752 -19.8223 2.78516c0.167969 0.949219 0.275391 1.96973 0.314453 3.06445c0.0292969 0.764648 0.0546875 1.52734 0.0820312 2.29199
c0.216797 5.40527 0.511719 10.8066 0.845703 16.207c0.193359 6.24512 -0.101562 12.4941 -0.317383 18.7344c-0.334961 6.54297 -0.766602 13.1084 -2.0498 19.5469c-1.01367 4.59766 -2.02734 9.25488 -3.75 13.6406c-1.3125 2.62012 -2.88477 5.01074 -4.82422 7.0498
c11.1865 2.29395 21.3105 3.39551 29.9883 3.22168zM368.471 437.644c2.08984 -1.39453 4.18359 -2.78613 6.35938 -4.04004c4.15039 -2.13086 8.66211 -3.54199 13.1543 -4.76367c4.02734 -0.870117 8.04688 -1.76953 12.0312 -2.79883
c2.69531 -0.655273 5.13281 -2.0332 7.41016 -3.58203c3.05664 -1.98145 5.94922 -4.02051 9.27734 -5.55762c3.58008 -1.38379 7.21094 -2.62305 10.7754 -4.05566c2.94727 -1.22754 6.04688 -1.97949 9.17969 -2.55371
c3.70508 -0.677734 6.73438 -0.364258 9.02539 0.56543c-0.0410156 -0.147461 -0.105469 -0.314453 -0.136719 -0.455078c-1.78711 -7.58984 2.20312 -17.624 9.05859 -25.7314c-0.837891 -0.350586 -1.69824 -0.767578 -2.58398 -1.2793
c-0.689453 -0.398438 -1.37695 -0.794922 -2.06738 -1.19531c-4.14941 -2.49023 -8.40332 -4.81152 -12.5869 -7.24609c-3.45117 -1.91211 -7.01953 -3.59082 -10.5635 -5.30762c-4.46387 -2.02539 -8.87598 -4.14941 -13.2891 -6.27637
c-3.94824 -1.75195 -7.91113 -3.45312 -11.7598 -5.41895c-3.90137 -1.99316 -7.94531 -3.75586 -12.041 -5.29785c-4.76367 -1.52246 -9.5791 -2.91797 -14.1514 -4.97461c-1.47559 -0.661133 -2.74805 -1.40332 -3.83008 -2.19727
c-3.08789 4.7793 -5.50391 9.52148 -6.99023 14.0137c-2.5918 7.8623 -3.50488 24.1611 -2.37109 42.3594c0.992188 15.8408 2.38184 25.3105 6.09961 35.793zM683.416 437.608v0c1.27637 -2.16602 3.27539 -4.4248 6.08789 -6.56543
c1 -0.759766 1.65039 -1.99512 2.13086 -3.15918c0.943359 -3.25684 1.75195 -6.57422 2.46289 -9.89844c1.05469 -5.52832 1.39453 -11.1621 1.67969 -16.7725c0.147461 -5.75391 0.533203 -11.5176 0.306641 -17.2715
c-0.341797 -5.36426 -0.626953 -10.7314 -0.844727 -16.1006c-0.0283203 -0.794922 -0.0537109 -1.58789 -0.0830078 -2.38184c-0.111328 -3.16992 0.394531 -5.76953 1.29688 -7.78711c-1.00977 -0.298828 -1.83984 -0.536133 -2.93652 -0.861328
c-14.5186 -4.3252 -32.0615 -11.7129 -38.9873 -16.4189c-2.7168 -1.8457 -5.3623 -3.47168 -7.78711 -4.87402c0.0332031 1.88672 -0.322266 4.04004 -1.17383 6.42676c-0.632812 1.77051 -0.304688 0.758789 -0.919922 3.0498
c-1.08984 3.99902 -1.5 8.12402 -2.61328 12.123c-1.18164 3.84668 -2.67578 7.57324 -3.99609 11.3701c-1.40625 3.57715 -2.67773 7.18945 -4.03125 10.7842c-1.05859 3.31738 -1.54492 6.7832 -2.29492 10.1807c-0.992188 4.53906 -1.89844 9.19727 -4.0332 13.3604
c-2.19531 3.70312 -4.86328 6.94629 -8.35547 9.34277c3.96875 1.78027 7.95703 3.60254 11.9668 5.48047c18.3574 8.5957 35.9883 15.2734 52.125 19.9727zM1012.99 423.193v0c9.97266 -3.27832 23.9668 -12.0586 39.5156 -24.9873
c3.44531 -2.86426 6.57422 -5.39941 9.5625 -7.77734c-0.415039 -0.703125 -0.8125 -1.46777 -1.1875 -2.30273c-1.64648 -3.68359 -3.76758 -7.12891 -5.63477 -10.7051c-1.75586 -3.09766 -3.33789 -6.28809 -5.11133 -9.37793
c-1.46289 -2.76562 -2.97461 -5.50781 -4.89453 -7.98438c-2.39648 -2.97559 -5.02344 -5.74805 -7.57422 -8.58887c-13.1797 6.90527 -23.1055 11.4102 -29.8438 13.4404c0.0234375 0.626953 0.0488281 1.25195 0.0761719 1.87598
c0.265625 6.0166 0.611328 12.04 1.4082 18.0117c0.890625 5.40137 2.44727 10.6318 3.52148 15.9922c0.890625 5.2832 1.29395 10.623 1.23438 15.9844c-0.150391 2.47266 -0.486328 4.52051 -1.07227 6.41895zM994.553 421.492h-0.00195312
c0.710938 -1.39258 2.73438 -3.35156 2.80273 -4.79004c0.0078125 -0.191406 -0.279297 0.577148 -0.386719 0.421875c-0.1875 -0.28418 -0.015625 -0.683594 -0.0234375 -1.02344c-0.0292969 -4.14844 -0.246094 -8.28809 -0.994141 -12.374
c-1.18555 -5.37012 -2.61328 -10.6621 -3.53516 -16.0938c-0.9375 -6.65332 -1.32812 -13.3682 -1.63281 -20.0771c-0.0722656 -1.68066 -0.123047 -3.36328 -0.164062 -5.04688c-5.60352 -2.95605 -12.752 -7.3916 -20.1504 -12.4307
c-2.79102 4.36426 -5.73633 8.62109 -9.06445 12.6152c-3.30859 4.8916 -6.65625 9.75781 -9.94336 14.666c-3.07227 4.64844 -6.07031 9.34277 -8.92578 14.1289c-0.666016 1.01465 -1.26953 2.06348 -1.83398 3.13184
c0.345703 0.18457 0.681641 0.352539 1.03125 0.537109c26.8135 14.2295 43.0215 22.3467 52.8223 26.335zM804.504 406.1v0c7.64648 -6.37598 15.1191 -13.0557 22.0332 -19.873c6.26953 -6.18164 11.0742 -10.6748 15.1465 -14.1182
c-1.83008 -1.45605 -3.67383 -2.90527 -5.52051 -4.3418c-4.60645 -3.46289 -9.07715 -7.11914 -13.3428 -10.9912c-3.46875 -2.85156 -6.32617 -6.31445 -9.36719 -9.58887c-2.67773 -3.0498 -5.26758 -6.1709 -7.8457 -9.30859
c-2 -2.31152 -4.72363 -3.85254 -7.26758 -5.50098c-2.99219 -2.13086 -1.50586 -1.05176 -4.46094 -3.23535c-1.38672 -1.02734 -2.50586 -2.09082 -3.42383 -3.16309c-0.558594 0.0820312 -1.14844 0.123047 -1.76953 0.12207
c-2.08594 -0.0117188 -4.49414 -0.530273 -7.15625 -1.72168c-0.983398 -0.439453 -1.97461 -0.856445 -2.96973 -1.26562c-6.31152 4.84766 -12.8389 10.292 -19.7568 16.5439c-3.72852 3.36816 -8.22656 6.93066 -12.6406 10.165
c1.96875 0.598633 4.11328 1.74121 6.3291 3.55664c3.28809 2.69336 5.94043 6.03809 9.03613 8.93262c3.77148 3.5332 7.77539 6.79395 11.7939 10.0322c4.64062 3.41211 9.19434 6.9043 13.29 10.96c2.81055 3.2959 5.93945 6.25781 9.0957 9.2041
c2.35742 2.02539 4.24414 4.44727 5.96875 7.00781c1.58105 2.3418 2.47266 4.56738 2.82812 6.58398zM601.941 404.619v0c1.25 -2.21973 3.52734 -4.40918 7.03516 -6.20117c1.82422 -0.931641 2.92383 -2.34668 3.83789 -4.11328
c0.962891 -2.74316 1.54297 -5.65137 2.16211 -8.49902c0.774414 -3.88477 1.51367 -7.77051 2.65625 -11.5674c1.48242 -4.0127 2.89844 -8.03809 4.46289 -12.0195c1.0625 -3.36133 2.56836 -6.57422 3.51562 -9.97363
c0.890625 -3.9043 1.45508 -7.84473 2.49609 -11.7158c0.705078 -2.62988 0.298828 -1.25879 1.24219 -4.10645c0.945312 -2.85059 2.24609 -5.01367 3.70898 -6.56543c-5.0918 -1.99902 -12.6973 -5.30273 -21.0293 -9.22363
c-13.084 -6.16113 -30.2207 -12.5713 -38.0781 -14.2471c-1.6543 -0.354492 -3.13086 -0.641602 -4.74609 -0.980469c0.015625 0.180664 0.0234375 0.362305 0.0273438 0.546875c0.09375 2.64062 -0.105469 5.27148 -0.328125 7.90137
c-0.455078 5.31152 -2.45312 8.80664 -4.9375 10.5801c-0.558594 2.0498 -1.10938 4.10156 -1.72852 6.13965c-0.962891 2.46191 -2.20312 4.80469 -2.94922 7.35156c-1.1875 3.64355 -2.03125 7.40918 -3.70117 10.8867
c-1.49219 3.70801 -2.21484 7.61133 -2.75586 11.5625c-0.708984 4.23145 -1.12891 8.53223 -2.60547 12.5977c-0.849609 2.69043 -1.83008 5.41113 -2.37109 8.12695c-0.226562 1.14258 -0.517578 2.19238 -0.859375 3.1582
c17.6016 5.58691 35.9902 12.4072 54.9453 20.3613zM925.46 386.799v0c0.826172 -1.54395 1.70605 -3.05859 2.6416 -4.53906c2.89648 -4.8623 5.94727 -9.62988 9.07031 -14.3525c3.31641 -4.95703 6.69922 -9.87012 10.0391 -14.8096
c3.42188 -4.13672 6.45117 -8.53125 9.32031 -13.0449c-6.19336 -4.7002 -12 -9.43457 -16.5234 -13.6611c-6.97266 -6.52246 -15.2324 -12.4199 -24.0176 -17.415c-1.17188 2.6748 -2.44727 5.2998 -4.26562 7.61523c-0.84375 1.06348 -1.75 2.0791 -2.64258 3.10254
c0.691406 0.486328 0.564453 0.492188 -0.138672 0.163086c-1.69336 1.92871 -3.42383 3.82617 -5.18359 5.68652c-0.683594 0.650391 -1.34375 1.33008 -2.04883 1.94922c-1.46875 1.28516 -3.12891 1.93945 -4.06836 3.74414
c-1.09766 2.10547 -2.29492 3.70605 -3.53125 4.86523c-0.158203 0.337891 -0.318359 0.673828 -0.474609 1.01172c-1.66406 3.96289 -3.31641 7.92676 -5.11523 11.8291c-1.89844 4.06055 -4.27539 7.72656 -6.84961 11.3857
c-1.44043 1.94824 -2.96289 3.82031 -4.55273 5.63574c12.1016 3.92383 29.0527 11.2217 48.3408 20.834zM1076.03 380.066v0c13.1016 -8.71094 21.5566 -10.5156 31.1035 -6.78516c0.0175781 -0.0214844 0.0351562 -0.0390625 0.0527344 -0.0615234
c2.75781 -3.44531 4.98047 -7.23047 7.32227 -10.9434c2.38086 -3.54492 4.98047 -6.9248 7.33789 -10.4854c1.30859 -2.15625 0.597656 -1.02734 2.14258 -3.37793c1.00195 -1.52637 2.05859 -2.77734 3.14648 -3.77637
c-10.9502 -8.68262 -17.2598 -10.8545 -31.5918 -12.0439c-15.4648 -1.28516 -20.6797 -0.479492 -42.2168 10.6592c1.89844 2.09375 3.78906 4.20117 5.54297 6.42188c2.33789 3.10156 4.36328 6.40332 6.13672 9.85742c1.88281 3.29102 3.57812 6.68262 5.44141 9.98438
c1.82812 3.5332 3.92969 6.92578 5.58203 10.5508zM530.787 379.393v0c0.0332031 -0.235352 0.0683594 -0.472656 0.109375 -0.71582c0.620117 -3.67676 1.87305 -7.25 2.97656 -10.8154c1.19922 -3.31152 1.49414 -6.82031 2.05664 -10.2695
c0.648438 -5.14453 1.8457 -10.1455 3.68945 -14.9844c1.49414 -3.1377 2.30469 -6.50098 3.31641 -9.80078c0.761719 -2.92969 2.26562 -5.57227 3.3125 -8.38965c0.876953 -3.56348 1.8457 -7.0957 2.96094 -10.5947c0.755859 -2.37598 1.77148 -4.23633 2.9082 -5.72168
c0.0175781 -0.714844 0.0175781 -1.42871 -0.015625 -2.14746c-0.0644531 -1.44629 -0.000976562 -2.76855 0.174805 -3.96582c-33.8311 -6.55664 -57.6846 -9.31152 -80.2979 -9.37207c-0.015625 0.0927734 -0.0234375 0.183594 -0.0351562 0.275391
c-0.308594 2.21973 -0.521484 4.44727 -0.691406 6.67969c2.36719 1.58398 4.47266 4.54395 5.57227 9.1582c0.463867 1.94727 0.938477 3.89062 1.5293 5.80566c1.11914 3.73633 1.98242 7.57129 3.67383 11.1094c1.94727 4.04297 3.5332 8.22168 5.49023 12.2578
c2.08594 3.80957 3.875 7.75488 5.30078 11.8633c1.10938 3.02832 2.85547 5.74121 4.71875 8.3584c1.92773 3.16602 4.60742 5.71777 6.94531 8.57129c2.10742 2.57324 3.33398 4.91602 3.85938 6.94141c1.3125 0.303711 2.44922 0.555664 3.88477 0.893555
c6.04688 1.42676 12.2656 3.09277 18.5605 4.86328zM466.881 374.402c1.13672 -0.632812 2.28711 -1.21875 3.46289 -1.71094c5.19336 -2.1709 8.93164 -3.25977 14.1914 -3.16406c-0.513672 -0.755859 -1.00586 -1.51172 -1.48047 -2.24609
c-2.56836 -3.47559 -4.58203 -7.28125 -6.19336 -11.2803c-1.17188 -3.41016 -2.61328 -6.68848 -4.35547 -9.84277c-2.20703 -4.25488 -3.82617 -8.75781 -5.91016 -13.0732c-2.14844 -4.33008 -3.27539 -9.03223 -4.65332 -13.6367
c-0.264648 -0.858398 -0.499023 -1.72363 -0.731445 -2.59277c-2.67383 -1.33691 -5.04102 -4.03125 -6.1875 -8.39355c-0.650391 -2.47949 -1.23828 -4.93066 -1.0332 -7.52441c0.166016 -2.66797 0.375 -5.33496 0.675781 -7.99219
c-13.8926 0.794922 -20.9434 3.32227 -35.3906 10.5449v-0.00292969c-13.5469 6.77051 -26.7734 17.1738 -37.0039 28.4268c0.0839844 0.0351562 0.164062 0.0673828 0.246094 0.105469c4.01367 1.78125 8.23242 2.97949 12.4004 4.30664
c4.97852 1.77734 9.82617 3.95996 14.5527 6.32422c3.58008 1.83789 7.27148 3.42285 10.9531 5.03711c4.48047 2.14062 8.93945 4.30273 13.457 6.35352c3.95312 1.88672 7.89844 3.79395 11.7402 5.89453c4.36719 2.53125 8.79102 4.96973 13.127 7.55664
c0.611328 0.353516 1.22559 0.708984 1.83984 1.06348c3.05469 1.7627 5.09766 3.79883 6.29297 5.84668zM857.662 363.029v0c0.203125 -0.0351562 0.414062 -0.0458984 0.619141 -0.0761719c0.732422 -1.91895 1.99219 -3.95508 3.89648 -6.00586
c2 -2.15332 3.94336 -4.34668 5.66211 -6.73438c1.12402 -2.17773 2.93359 -3.94629 4.11914 -6.07715c0.431641 -0.776367 0.669922 -1.64355 1.04688 -2.44824c1.70703 -3.69141 3.25977 -7.44824 4.83398 -11.2012c2.07422 -4.52539 4.15625 -9.02637 6.55859 -13.3857
c1.55273 -2.8125 3.3457 -4.7666 5.17773 -6.02051c-2.67578 -2.10352 -1.61133 -1.89844 1.08984 -0.650391c0.224609 -0.119141 0.445312 -0.254883 0.667969 -0.351562c0.703125 -2.80273 1.33398 -5.61914 2.16992 -8.38379
c0.291016 -0.961914 0.623047 -1.84961 0.984375 -2.66309c-11.2793 -4.10449 -22.5176 -6.48145 -32.3789 -6.48145c-25.0078 0 -45.4004 5.50586 -67.4941 19.3037c2.69922 -0.0869141 5.95898 0.928711 9.4502 3.5127c2.54883 1.88477 1.34277 1.00488 3.61035 2.64844
c4.01758 2.61621 8.13086 5.21191 11.1719 8.99121c2.36719 2.87988 4.74805 5.74902 7.19727 8.56152c2.68945 2.92676 5.23047 6.01172 8.3125 8.54785c3.91602 3.59277 8.08203 6.9209 12.3242 10.1279c3.3457 2.60254 6.67188 5.2334 9.96094 7.90723
c0.361328 0.290039 0.695312 0.583984 1.01953 0.878906zM892.344 309.715c1.24609 -1.8125 1.66016 -1.81055 3.14648 -0.430664c-0.0175781 0.0214844 -0.0351562 0.0439453 -0.0537109 0.0644531c-0.983398 -0.0927734 -2.02832 0.0361328 -3.09277 0.366211v0zM73 757
l190 -1v0h9l-11 -608v-36h-41l-154 1v36l154 -1l13 576l-160 1v32zM515.053 -122.857c-4.47363 0 -8.32812 3.64746 -8.32812 8.3291v292.603c0 4.48828 3.65918 8.3291 8.35645 8.3291c0 0 82.0684 -0.332031 97.4229 -0.393555l56.5332 51.1475l2.64941 -20.6416
l1.95117 -36.0742l206.065 4.49023c4.46191 0.0976562 8.29688 -3.66406 8.29688 -8.3291v-84.374l49.9424 -58.1514l-38.1055 2.06348l-13.6504 1.9502l1.81348 -154.091c0.0527344 -4.47754 -3.67285 -8.32812 -8.35742 -8.32812zM865.712 35.166l-25.3496 -3.90039
l-31.9082 4.23047l53.1367 58.2764v64.7783l-186.004 2.39062l-0.974609 -30.2256l-1.17578 -22.9141l-61.4512 51.8213l-78.8496 0.337891v-256.438l328.455 -1.41113zM87.002 -40.1582h47.1875l14.5869 44.3926l14.5859 -44.3926h47.1885l-38.1367 -27.4512
l14.5859 -44.3906l-38.2236 27.4512l-38.2256 -27.4512l14.5879 44.3906z" />
  </g>

</svg>
