<?xml version="1.0" standalone="no"?>
<!DOCTYPE svg PUBLIC "-//W3C//DTD SVG 1.1//EN" "http://www.w3.org/Graphics/SVG/1.1/DTD/svg11.dtd" >
<svg xmlns="http://www.w3.org/2000/svg" xmlns:xlink="http://www.w3.org/1999/xlink" version="1.1" viewBox="-10 0 1020 1000">
  <g transform="matrix(1 0 0 -1 0 800)">
   <path fill="currentColor"
d="M30.3242 741.553h55.5146l17.1611 52.2256l17.1602 -52.2256h55.5156l-44.8672 -32.2959l17.1611 -52.2246l-44.9697 32.2959l-44.9707 -32.2959l17.1611 52.2246zM271 608l-12 60c128.725 89.7881 355.203 55.3633 442.457 48.5605
c0 -0.0107422 0.000976562 -0.0214844 0.000976562 -0.0322266c27.4463 0.582031 75.1855 -1.32129 107.268 -33.4033c40.1396 -40.1396 38.6152 -108.841 37.5254 -169.365c-0.395508 -21.9258 -0.433594 -33.2402 -0.22168 -41.9463
c26.3789 -43.8281 72.168 -89.959 89.3252 -129.607c6.95117 -16.0635 5.49219 -24.7637 2.64551 -40.2051l-12 -14l-79.501 -63.5771v-212.431c1.93945 -31.0869 1.82422 -79.2412 -27.416 -108.48c-26.0322 -26.0322 -182.507 -12.0195 -220.584 -13.0049
l-2.90137 0.0126953c-103.732 -7.2998 -296.108 50.6025 -326.603 92.1719c-18.5059 25.2275 -31.4014 41.2529 -57.9951 55.3086v70.0371c25.8174 -16.2627 49.624 -17.8066 70.1904 -60.6357c44.2188 -92.082 349.455 -105.734 451.309 -108.438l-0.499023 -0.962891
c50 12 34.1514 4.48145 42.5352 13.5361c19.1768 20.7119 3.97852 41.9688 5.50781 57.9648h-0.541992v2.14941c-0.253906 0.990234 -0.500977 1.94141 -0.738281 2.84863h0.738281v207.174v3.4873v1.33887h1.58203l104 88h1.13281
c4.9834 45.8955 -62.8379 92.1289 -94.2158 139.501l-3 4l-1 1c-2.02051 3.99219 0.0439453 4.02539 -2.08398 11.5605c-0.0371094 0.130859 -0.189453 0.24707 -0.174805 0.367188l0.258789 2.07227l0.0644531 1.49902
c0.00976562 0.226562 0.150391 3.89551 0.242188 6.24414c3.11426 79.1523 5.19727 173.389 -83.8154 173.771c-136.35 16.7461 -373.536 9.53418 -431.49 -46.5137zM226.908 274.953l-62.375 112.917l7.2002 3.04102l55.7998 -95.8496l50.8506 96.75l9.7334 -3.94141z
M512.384 445.812l-170.062 0.566406v11.2227h152.478v63.7197h-152.478v11.2227l168.551 -0.945312zM598.712 395.545v-82.873h9.77832v82.873h-9.77832zM520.855 397.641v-63.8213h8.57324v63.8213h-8.57324zM453.256 397.641l10.4775 -0.507812v-80.0156
l-10.4775 0.507812v80.0156zM530 336.898c73.2207 0 132.818 -48.6123 132.818 -108.401c0 -59.7881 -59.6299 -108.497 -132.818 -108.497s-132.818 48.6133 -132.818 108.434c0 59.8213 59.6299 108.465 132.818 108.465zM654.023 228.402
c0 54.9307 -55.6641 99.626 -124.023 99.0352c-65.7158 -0.570312 -123.59 -44.6982 -123.991 -99.5752c-0.402344 -54.9609 55.6611 -99.0342 123.991 -99.0342c68.3623 0 124.023 44.6436 124.023 99.5742zM467.29 223.132
c16.0674 -61.7891 108.688 -59.0586 125.483 0.444336l8.82715 -2.47656c-18.8291 -67.7598 -125.77 -70.7754 -143.138 0z" />
  </g>

</svg>
