<?xml version="1.0" standalone="no"?>
<!DOCTYPE svg PUBLIC "-//W3C//DTD SVG 1.1//EN" "http://www.w3.org/Graphics/SVG/1.1/DTD/svg11.dtd" >
<svg xmlns="http://www.w3.org/2000/svg" xmlns:xlink="http://www.w3.org/1999/xlink" version="1.1" viewBox="-10 0 961 1000">
  <g transform="matrix(1 0 0 -1 0 800)">
   <path fill="currentColor"
d="M30.3242 741.553h55.5146l17.1611 52.2256l17.1602 -52.2256h55.5156l-44.8672 -32.2959l17.1611 -52.2246l-44.9697 32.2959l-44.9707 -32.2959l17.1611 52.2246zM271 608l-12 60c128.725 89.7881 355.203 55.3633 442.457 48.5605
c0 -0.0107422 0.000976562 -0.0214844 0.000976562 -0.0322266c27.4463 0.582031 75.1855 -1.32129 107.268 -33.4033c40.1396 -40.1396 38.6152 -108.841 37.5254 -169.365c-0.395508 -21.9258 -0.433594 -33.2402 -0.22168 -41.9463
c26.3789 -43.8281 72.168 -89.959 89.3252 -129.607c6.95117 -16.0635 5.49219 -24.7637 2.64551 -40.2051l-12 -14l-79.501 -63.5771v-212.431c1.93945 -31.0869 1.82422 -79.2412 -27.416 -108.48c-26.0322 -26.0322 -182.507 -12.0195 -220.584 -13.0049
l-2.90137 0.0126953c-103.732 -7.2998 -296.108 50.6025 -326.603 92.1719c-18.5059 25.2275 -31.4014 41.2529 -57.9951 55.3086v70.0371c25.8174 -16.2627 49.624 -17.8066 70.1904 -60.6357c44.2188 -92.082 349.455 -105.734 451.309 -108.438l-0.499023 -0.962891
c50 12 34.1514 4.48145 42.5352 13.5361c19.1768 20.7119 3.97852 41.9688 5.50781 57.9648h-0.541992v2.14941c-0.253906 0.990234 -0.500977 1.94141 -0.738281 2.84863h0.738281v207.174v3.4873v1.33887h1.58203l104 88h1.13281
c4.9834 45.8955 -62.8379 92.1289 -94.2158 139.501l-3 4l-1 1c-2.02051 3.99219 0.0439453 4.02539 -2.08398 11.5605c-0.0371094 0.130859 -0.189453 0.24707 -0.174805 0.367188l0.258789 2.07227l0.0644531 1.49902
c0.00976562 0.226562 0.150391 3.89551 0.242188 6.24414c3.11426 79.1523 5.19727 173.389 -83.8154 173.771c-136.35 16.7461 -373.536 9.53418 -431.49 -46.5137zM372 502zM296.374 465.52c0 29.6943 49.9619 53.3691 76.46 53.3691
c27.2793 0 50.3516 -21.6572 52.3086 -48.6826c4.46777 -4.50293 11.6113 -10.5078 16.1348 -13.6191c2.39941 -1.65039 12.6953 -6.99414 23.0762 -6.42969c4.72949 0.782227 14.3203 4.70801 19.6494 10.0361c10.9121 10.9121 15.6172 20.3184 25.2021 29.9023
c10.4531 10.4531 21.4561 15.1846 34.0273 14.8359c9.4375 -0.260742 20.8184 -5.27539 27.3848 -10.4355c0.231445 -0.176758 12.1328 -9.50586 20.9209 -20.2832l2.4668 -3.02441l-12.8203 -10.9658c-3.8877 4.71582 -5.16211 6.26074 -9.17188 10.2705
c-4.57129 4.57129 -7.79004 7.33594 -11.2188 10.0615c-4.04785 3.2168 -12.6787 6.58008 -17.8438 6.96387c-14.1582 0.658203 -21.9561 -9.55078 -32.0908 -22.9102c-0.136719 -0.192383 -7.2373 -9.97363 -15.3994 -17.8613
c-9.86328 -9.39941 -25.6074 -13.9023 -29.4248 -13.9023c-4.43359 0 -4.43359 0 -4.51172 0.00292969c-9.16504 0.357422 -21.5771 4.42578 -29.1709 9.55469c-2.94434 1.93555 -6.67871 4.76172 -10.0088 7.53125c-7.16406 -19.543 -27.5439 -34.8574 -48.9688 -34.8574
c-28.6572 0 -77.001 21.7871 -77.001 50.4434zM381 346zM305.374 309.52c0 29.6943 49.9619 53.3691 76.46 53.3691c27.2793 0 50.3516 -21.6572 52.3086 -48.6826c4.46777 -4.50293 11.6113 -10.5078 16.1348 -13.6191c2.39941 -1.65039 12.6953 -6.99414 23.0762 -6.42969
c4.72949 0.782227 14.3203 4.70801 19.6494 10.0361c10.9121 10.9121 15.6172 20.3184 25.2021 29.9023c10.4531 10.4531 21.4561 15.1846 34.0273 14.8359c9.4375 -0.260742 20.8184 -5.27539 27.3848 -10.4355c0.231445 -0.176758 12.1328 -9.50586 20.9209 -20.2832
l2.4668 -3.02441l-12.8203 -10.9658c-3.8877 4.71582 -5.16211 6.26074 -9.17188 10.2705c-4.57129 4.57129 -7.79004 7.33594 -11.2188 10.0615c-4.04785 3.2168 -12.6787 6.58008 -17.8438 6.96387c-14.1582 0.658203 -21.9561 -9.55078 -32.0908 -22.9102
c-0.136719 -0.192383 -7.2373 -9.97363 -15.3994 -17.8613c-9.86328 -9.39941 -25.6074 -13.9023 -29.4248 -13.9023c-4.43359 0 -4.43359 0 -4.51172 0.00292969c-9.16504 0.357422 -21.5771 4.42578 -29.1709 9.55469c-2.94434 1.93555 -6.67871 4.76172 -10.0088 7.53125
c-7.16406 -19.543 -27.5439 -34.8574 -48.9688 -34.8574c-28.6572 0 -77.001 21.7871 -77.001 50.4434z" />
  </g>

</svg>
