<?xml version="1.0" standalone="no"?>
<!DOCTYPE svg PUBLIC "-//W3C//DTD SVG 1.1//EN" "http://www.w3.org/Graphics/SVG/1.1/DTD/svg11.dtd" >
<svg xmlns="http://www.w3.org/2000/svg" xmlns:xlink="http://www.w3.org/1999/xlink" version="1.1" viewBox="-10 0 1051 1000">
  <g transform="matrix(1 0 0 -1 0 800)">
   <path fill="currentColor"
d="M30.3242 741.553h55.5146l17.1611 52.2256l17.1602 -52.2256h55.5156l-44.8672 -32.2959l17.1611 -52.2246l-44.9697 32.2959l-44.9707 -32.2959l17.1611 52.2246zM271 608l-12 60c128.725 89.7881 355.203 55.3633 442.457 48.5605
c0 -0.0107422 0.000976562 -0.0214844 0.000976562 -0.0322266c27.4463 0.582031 75.1855 -1.32129 107.268 -33.4033c40.1396 -40.1396 38.6152 -108.841 37.5254 -169.365c-0.395508 -21.9258 -0.433594 -33.2402 -0.22168 -41.9463
c26.3789 -43.8281 72.168 -89.959 89.3252 -129.607c6.95117 -16.0635 5.49219 -24.7637 2.64551 -40.2051l-12 -14l-79.501 -63.5771v-212.431c1.93945 -31.0869 1.82422 -79.2412 -27.416 -108.48c-26.0322 -26.0322 -182.507 -12.0195 -220.584 -13.0049
l-2.90137 0.0126953c-103.732 -7.2998 -296.108 50.6025 -326.603 92.1719c-18.5059 25.2275 -31.4014 41.2529 -57.9951 55.3086v70.0371c25.8174 -16.2627 49.624 -17.8066 70.1904 -60.6357c44.2188 -92.082 349.455 -105.734 451.309 -108.438l-0.499023 -0.962891
c50 12 34.1514 4.48145 42.5352 13.5361c19.1768 20.7119 3.97852 41.9688 5.50781 57.9648h-0.541992v2.14941c-0.253906 0.990234 -0.500977 1.94141 -0.738281 2.84863h0.738281v207.174v3.4873v1.33887h1.58203l104 88h1.13281
c4.9834 45.8955 -62.8379 92.1289 -94.2158 139.501l-3 4l-1 1c-2.02051 3.99219 0.0439453 4.02539 -2.08398 11.5605c-0.0371094 0.130859 -0.189453 0.24707 -0.174805 0.367188l0.258789 2.07227l0.0644531 1.49902
c0.00976562 0.226562 0.150391 3.89551 0.242188 6.24414c3.11426 79.1523 5.19727 173.389 -83.8154 173.771c-136.35 16.7461 -373.536 9.53418 -431.49 -46.5137zM463.271 221.714l-0.00292969 -0.124023
c0.000976563 0.0410156 0.00292969 0.0830078 0.00292969 0.124023zM441.354 291.348l0.0302734 -0.0361328c-0.00976562 0.0126953 -0.0302734 0.0361328 -0.0302734 0.0361328zM410.82 288.54l0.0322266 0.0478516
c-0.00488281 -0.0078125 -0.0107422 -0.015625 -0.0322266 -0.0478516zM391.078 224.009l0.00878906 0.0576172c-0.00292969 -0.0195312 -0.00878906 -0.0380859 -0.00878906 -0.0576172zM392.916 216.577l-0.0410156 0.0449219
c0.0136719 -0.0146484 0.0273438 -0.0292969 0.0410156 -0.0449219zM394.545 215.342l-0.203125 0.0595703c0.0673828 -0.0205078 0.135742 -0.0410156 0.203125 -0.0595703zM395.545 215.155l-0.0429688 0.00390625
c0.0078125 0 0.015625 -0.00390625 0.0429688 -0.00390625zM428.793 298.151c-16.6133 1.50488 -23.4443 -16.4121 -29.8711 -41.958c-4.94629 -20.3643 -4.94629 -20.3643 -6.73633 -27.0781l0.00878906 0.0390625
c-0.00292969 -0.0126953 -0.00878906 -0.0390625 -0.00878906 -0.0390625c-1.26367 -5.19922 -2.30957 -9.50391 0.899414 -12.7129c1.17871 -1.17871 1.61133 -1.25879 4.96289 -1.40625c59.5049 0.0263672 59.5049 0.0263672 61.1533 0.244141
c1.42188 0.177734 5.00293 3.48926 3.81445 9.13184c-0.0927734 0.46582 -7.39355 32.335 -11.5996 46.0488c-7.38379 23.8096 -16.1807 27.2842 -22.623 27.7305zM457.775 202.482c-4.62305 -0.0947266 -59.3311 -0.0927734 -59.9297 -0.0732422
c-3.61719 0.116211 -8.64551 0.27832 -12.9463 5.04199c-1.25586 1.3916 -7.0957 8.50781 -5.23633 18.6865c0.685547 3.75195 1.60645 7.53125 3.32324 13.8213c7.35547 30.2568 9.34863 38.458 14.8574 49.7461c4.50586 9.21875 14.4453 23.1016 32.8516 20.9004
c21.8379 -2.4209 29.9785 -27.499 35.8115 -51c2.0498 -8.52148 4.14355 -17.0264 6.29102 -25.5547c1.88086 -7.83594 3.70117 -15.4189 -0.958984 -23.1299c-2.31836 -3.83496 -6.66797 -8.51953 -14.0635 -8.43848zM584.471 111.313l-0.00292969 -0.124023
c0.000976562 0.0419922 0.00292969 0.0830078 0.00292969 0.124023zM562.555 180.948l0.0302734 -0.0361328c-0.00976563 0.0117188 -0.0302734 0.0361328 -0.0302734 0.0361328zM532.021 178.14l0.0322266 0.0488281
c-0.00585938 -0.00878906 -0.0107422 -0.0166016 -0.0322266 -0.0488281zM512.277 113.609l0.00878906 0.0566406c-0.00292969 -0.0185547 -0.00878906 -0.0380859 -0.00878906 -0.0566406zM514.116 106.178l-0.0410156 0.0449219
c0.0136719 -0.015625 0.0273438 -0.0302734 0.0410156 -0.0449219zM515.745 104.941l-0.203125 0.0605469c0.0673828 -0.0214844 0.135742 -0.0419922 0.203125 -0.0605469zM516.744 104.756l-0.0429688 0.00390625
c0.0078125 0 0.0166016 -0.00390625 0.0429688 -0.00390625zM549.993 187.751c-16.6143 1.50586 -23.4443 -16.4121 -29.8711 -41.958c-4.94629 -20.3633 -4.94629 -20.3633 -6.7373 -27.0781l0.00976562 0.0400391
c-0.00292969 -0.0136719 -0.00976562 -0.0400391 -0.00976562 -0.0400391c-1.2627 -5.19922 -2.30957 -9.50293 0.900391 -12.7129c1.17871 -1.17871 1.61133 -1.25879 4.96289 -1.40527c59.5049 0.0253906 59.5049 0.0253906 61.1523 0.244141
c1.42285 0.176758 5.00391 3.48926 3.81543 9.13086c-0.0927734 0.46582 -7.39355 32.335 -11.5996 46.0498c-7.38379 23.8096 -16.1807 27.2842 -22.623 27.7295zM578.976 92.082c-4.62402 -0.0947266 -59.3311 -0.0917969 -59.9307 -0.0732422
c-3.61621 0.117188 -8.64453 0.27832 -12.9453 5.04199c-1.25586 1.3916 -7.0957 8.50879 -5.23633 18.6875c0.685547 3.75098 1.60645 7.53027 3.32324 13.8203c7.35449 30.2568 9.34863 38.458 14.8574 49.7461c4.50586 9.21973 14.4443 23.1016 32.8516 20.9004
c21.8379 -2.41992 29.9785 -27.499 35.8115 -51c2.0498 -8.52051 4.14355 -17.0254 6.29004 -25.5537c1.88184 -7.83594 3.70215 -15.4199 -0.958008 -23.1299c-2.31836 -3.83496 -6.66797 -8.52051 -14.0635 -8.43945zM544.548 261.349
c0.959961 0 32.8203 37.1338 33.5518 36.4023l8.20215 -7.84863c0.729492 -0.697266 1.09766 -1.69141 1.09766 -2.65137c0 -0.847656 1.29004 2.93359 0.693359 2.26562c-96.9932 -108.766 -183.212 -206.295 -198.093 -224.517
c-0.654297 -0.801758 -3.24023 -5.74902 -4.2002 -5.74902c-0.959961 0 -1.91992 0.366211 -2.65137 1.09766l-6.2998 6.2998c-0.732422 0.732422 -1.09863 1.69141 -1.09863 2.65234c0 0.84668 0.254883 1.7207 0.855469 2.38477
c107.895 119.266 133.793 147.965 152.294 172.065c0.630859 0.821289 14.6885 17.5977 15.6484 17.5977zM474 396l-67.1992 66l12.7998 13.1992l54 -49.5996l96 121.6l14.3994 -10z" />
  </g>

</svg>
