<?xml version="1.0" standalone="no"?>
<!DOCTYPE svg PUBLIC "-//W3C//DTD SVG 1.1//EN" "http://www.w3.org/Graphics/SVG/1.1/DTD/svg11.dtd" >
<svg xmlns="http://www.w3.org/2000/svg" xmlns:xlink="http://www.w3.org/1999/xlink" version="1.1" viewBox="-10 0 1051 1000">
  <g transform="matrix(1 0 0 -1 0 800)">
   <path fill="currentColor"
d="M828.399 483.872c0 9.49878 0.360099 25.4826 0.360099 28.905l-0.318652 61.3747l-8.69455 54.78l-24.0577 41.7601l-29.8355 19.1251l-33.9409 8.02542l-47.9505 1.85133v0.765382l-107.704 8.96128l-161.614 -4.8437l-135.511 -48.0118l4.97421 -24.8711
l90.1513 34.2037l168.519 13.9909l163.859 -8.05849l72.0585 -32.0852l24.6852 -76.5829c-11.2968 -92.7231 -11.5388 -94.7093 -10.6225 -98.1968c0.272553 -1.03738 0.408327 -1.98777 0.495372 -2.92219c0.487753 -0.641757 1.13403 -1.58506 1.4862 -2.05622
l30.4464 -40.7334l38.0432 -60.0682l23.93 -33.502l-96.7113 -80.2498l-3.19974 -219.288c0.962733 -7.56244 2.78458 -22.0112 5.01798 -45.877c-0.12894 -0.269919 -9.65147 -20.9678 -12.8349 -27.02c-1.80565 -3.43278 -3.36365 -6.39475 -8.94453 -11.1259
c-28.726 -6.87192 -37.6748 -9.01268 -53.7943 -9.01268c-3.38415 0 -6.77838 0.14333 -10.1737 0.446144l-127.95 -3.2205l-189.706 31.9736l-119.91 72.0259l-21.8729 31.5454c-0.18608 0.126152 -14.9542 10.3475 -18.5829 12.6523v-31.4635
c5.41685 -3.87145 13.5068 -7.36272 24.4398 -17.2503c7.32645 -6.62591 2.09556 -4.45645 10.6241 -11.9264c1.03002 -0.902171 1.03002 -0.902171 17.2005 -21.8062l70.2643 -41.1391l123.979 -35.7692l40.8353 -3.74581
c52.8258 -4.90757 59.0669 -6.73248 83.0467 -7.42728l68.08 -1.97257l89.7606 0.254271l51.1066 12.4914l15.1376 25.2075l6.27671 34.16l-0.268638 82.9487l0.0291888 84.2282l-0.00582149 87.5189l84.7837 67.8016l7.68593 8.96692l1.11464 7.19504
c0.44913 7.61262 -1.52476 12.8022 -3.31214 18.1783l-23.3304 38.8443l-33.0243 43.448l-34.3179 48.9016c-0.202711 16.1296 -0.202711 16.1296 -0.202711 17.6951zM33.2949 712.521h55.5146l17.1611 52.2256l17.1602 -52.2256h55.5156l-44.8672 -32.2959
l17.1611 -52.2246l-44.9697 32.2959l-44.9707 -32.2959l17.1611 52.2246zM502.343 50.0762c48.416 0.168945 96.832 0.168945 145.246 0c3.18555 0.0615234 6.36914 0.124023 9.55078 0.193359c11.7314 -0.179688 21.4072 5.36426 28.1309 17.1582
c6.05762 10.626 9.16016 24.2266 7.87207 30.5703c-0.584961 2.95508 -5.05176 16.1963 -6.51465 22.0137c-5.54102 22.0049 -10.9697 44.0566 -16.2832 66.1504c-3.15625 12.7168 -6.63867 25.2861 -10.4375 37.707c-3.96191 12.8154 -8.73047 25.124 -14.2998 36.9248
c-4.91211 10.1445 -10.8438 19.2988 -17.7988 27.4648c-11.8945 13.2842 -25.8457 20.8086 -41.8564 22.5723c-10.9238 1.3125 -21.6406 0.00878906 -32.1494 -3.91406c-9.625 -3.91992 -18.1816 -10.0508 -25.6777 -18.3984
c-6.80176 -7.82227 -12.5938 -16.6299 -17.3799 -26.417c-4.34277 -8.90332 -8.16797 -18.166 -11.4805 -27.793c-3.30078 -9.63379 -6.29199 -19.418 -8.97754 -29.3584c-2.01074 -7.5 -3.95996 -15.0254 -5.8457 -22.5723
c-3.7959 -15.7568 -7.62207 -31.5 -11.4814 -47.2324c-1.96289 -7.18555 -3.83984 -14.4053 -5.63672 -21.6582c-1.05176 -4.44043 -1.99414 -8.92383 -2.81836 -13.4404c-2.21484 -16.0059 1.52734 -29.3799 11.2207 -40.1201
c3.25488 -3.40625 6.90723 -5.9707 10.96 -7.70117c2.22168 -0.787109 4.48438 -1.30762 6.78711 -1.56543c2.96973 -0.292969 5.9248 -0.492188 8.87012 -0.583984v0zM502.343 63.2539c-2.38477 0.101562 -4.78711 0.253906 -7.20117 0.457031
c-1.73047 0.164062 -3.43457 0.510742 -5.11426 1.04199c-2.99316 1.3252 -5.6709 3.2832 -8.03906 5.87109c-6.38867 7.47852 -8.73633 16.5889 -7.04297 27.335c0.894531 4.69336 1.90234 9.34766 3.02539 13.9609c2.05957 7.72266 4.07812 15.4658 6.05371 23.2256
c3.77734 15.6211 7.56934 31.2324 11.3789 46.8389c1.86426 7.42871 3.81152 14.8223 5.84375 22.1836c3.64062 13.2646 7.95801 26.1826 12.9443 38.749c3.72363 9.23438 8.17871 17.8467 13.3584 25.8359c14.376 21.4268 32.7998 31.1465 55.2705 29.1592
c15.2451 -1.05078 28.3623 -8.09961 39.3535 -21.1348c6.0459 -7.55469 11.2109 -15.9287 15.5 -25.1172c4.74414 -10.3965 8.85059 -21.1816 12.3164 -32.3604c3.55957 -11.6055 6.83008 -23.3486 9.81152 -35.2275c3.92871 -15.9912 7.82715 -31.998 11.6895 -48.0127
c1.46191 -5.74023 2.92285 -11.4814 4.38477 -17.2236c1.6084 -6.51562 3.06934 -13.0811 4.38574 -19.7031c0.649414 -3.08105 0.928711 -6.21094 0.834961 -9.39258c-0.964844 -10.0059 -4.87891 -17.5938 -11.7422 -22.7695
c-2.22168 -1.67676 -4.62109 -2.67969 -7.20508 -3c-3.67578 -0.488281 -7.3623 -0.704102 -11.0635 -0.65332c-49.5811 -0.0634766 -99.1621 -0.0878906 -148.743 -0.0634766v0zM532 397l-84 82.5l16 16.5l67.5 -62l120 152l18 -12.5z" />
  </g>

</svg>
