<?xml version="1.0" standalone="no"?>
<!DOCTYPE svg PUBLIC "-//W3C//DTD SVG 1.1//EN" "http://www.w3.org/Graphics/SVG/1.1/DTD/svg11.dtd" >
<svg xmlns="http://www.w3.org/2000/svg" xmlns:xlink="http://www.w3.org/1999/xlink" version="1.1" viewBox="-10 0 1049 1000">
  <g transform="matrix(1 0 0 -1 0 800)">
   <path fill="currentColor"
d="M45.8232 732.879h55.5146l17.1611 52.2256l17.1602 -52.2256h55.5156l-44.8672 -32.2959l17.1611 -52.2246l-44.9697 32.2959l-44.9707 -32.2959l17.1611 52.2246zM286.499 599.326l-12 60c128.725 89.7881 355.203 55.3633 442.457 48.5605
c0 -0.0107422 0.000976562 -0.0214844 0.000976562 -0.0322266c27.4463 0.582031 75.1855 -1.32129 107.268 -33.4033c40.1396 -40.1396 38.6152 -108.841 37.5254 -169.365c-0.395508 -21.9258 -0.433594 -33.2402 -0.22168 -41.9463
c26.3789 -43.8281 72.168 -89.959 89.3252 -129.607c6.95117 -16.0635 5.49219 -24.7637 2.64551 -40.2051l-12 -14l-79.501 -63.5771v-212.431c1.93945 -31.0869 1.82422 -79.2412 -27.416 -108.48c-26.0322 -26.0322 -182.507 -12.0195 -220.584 -13.0049
l-2.90137 0.0126953c-103.732 -7.2998 -296.108 50.6025 -326.603 92.1719c-18.5059 25.2275 -31.4014 41.2529 -57.9951 55.3086v70.0371c25.8174 -16.2627 49.624 -17.8066 70.1904 -60.6357c44.2188 -92.082 349.455 -105.734 451.309 -108.438l-0.499023 -0.962891
c50 12 34.1514 4.48145 42.5352 13.5361c19.1768 20.7119 3.97852 41.9688 5.50781 57.9648h-0.541992v2.14941c-0.253906 0.990234 -0.500977 1.94141 -0.738281 2.84863h0.738281v207.174v3.4873v1.33887h1.58203l104 88h1.13281
c4.9834 45.8955 -62.8379 92.1289 -94.2158 139.501l-3 4l-1 1c-2.02051 3.99219 0.0439453 4.02539 -2.08398 11.5605c-0.0371094 0.130859 -0.189453 0.24707 -0.174805 0.367188l0.258789 2.07227l0.0644531 1.49902
c0.00976563 0.226562 0.150391 3.89551 0.242188 6.24414c3.11426 79.1523 5.19727 173.389 -83.8154 173.771c-136.35 16.7461 -373.536 9.53418 -431.49 -46.5137zM559.454 441.552c-3.73828 -66.833 -5.69727 -100.842 -6.21191 -107.552h43.6992
c-5.54199 -23.6719 -19.6631 -82 -49.5127 -122.027c-42.9062 -57.5361 -41.7178 -56.3916 -41.7178 -56.4463c0 -0.100586 0.0371094 -0.199219 0.112305 -0.274414c0.166992 -0.133789 14.4902 -11.5596 16.833 -13.1924c6.21875 3.96191 19.7539 29.5098 33.71 47.2344
c20.833 26.458 43.748 66.043 53.4492 104.054l3.47363 13.6104l4.30273 -13.3711c25.4766 -79.1543 57.1221 -113.455 86.3789 -145.127c3.92773 -4.28027 5.16699 -5.60547 6.06152 -6.40039c0.973633 0.595703 4.25391 2.64746 12.1162 7.84375l-7.08008 3.95117
l5.89941 1.43457c-16.4238 14.7324 -83.0518 87.9277 -90.2627 165.447c-0.000976563 0.0175781 -1.00684 0.950195 -1.25684 1.2793c-1.24609 1.64844 -1.33398 2.83203 -2.01758 11.9844h61.5693v5.21973l-9.16895 101.25
c21.5947 -6.24023 26.833 -7.74316 29.2783 -8.01465c2.34863 0 3.26953 0.65918 8.72168 9.77246c6.94336 11.6025 10.1904 16.7744 15.9209 25.4717c-12.876 9.36426 -43.4268 30.5107 -65.29 45.5176h-28.1221c-0.250977 7.62695 -0.451172 13.6758 -0.451172 16.8975
c0 2.59766 0.0449219 4.19043 0.0449219 4.51367c0 1.24707 -0.0947266 5.03613 -3.87598 5.11523l-17.6836 0.390625c-0.194336 -0.0107422 -0.361328 -0.175781 -0.361328 -0.382812c0.0117188 -1.56152 0.0185547 -3.1377 0.0185547 -4.83301
c0 -9.26465 -0.163086 -15.8975 -0.400391 -25.1836c-6.19434 1.39941 -9.44336 2.13184 -10.8496 3.00879c-0.84375 0.137695 -3.53613 0.482422 -9.41309 0.478516l-6.31152 -0.00488281h-14.9844c-14.3486 -10.4209 -60.6807 -41.6855 -62.8711 -43.874
c-1.10742 -1.1084 -1.43848 -1.75586 -1.43848 -3.23047c0 -0.947266 0 -1.74512 1.88965 -4.28418c20.2822 -29.0137 20.2822 -29.0137 20.5352 -29.2656c1.0498 -1.05078 2.24512 -1.24414 3.08008 -1.24414c0.0878906 0 0.165039 -0.00195312 0.242188 -0.00195312
c1.14258 0 1.21094 0 21.9443 10.2354zM664.149 502.481c0.0507812 0 0.0507812 0 0.666016 -0.0214844l-0.202148 -6.07617l1.77539 5.37891l52.9756 -36.7402l-12.9795 -21.002c-11.8105 3.25195 -23.8223 6.80371 -29.8516 8.37402c0 0 -3.87012 1.00684 -3.8584 1.05273
c-0.0546875 0.0136719 -0.107422 0.0263672 -0.161133 0.0400391c-2.36816 -1.24219 -3.8584 -2.02637 -3.9873 -5.28516l9.34668 -103.436l-50.4863 -0.103516c1.35352 45.7979 9.21973 109.27 12.3262 156.711l3.23242 1.21289h11.3359
c5.16113 0 8.22461 -0.0576172 9.86816 -0.105469zM570.687 450.988c-0.00683594 0.606445 -0.198242 5.09766 -4.55273 5.09766c-0.0244141 0 -0.300781 0.00195312 -0.303711 0.00195312c-0.0615234 0 -0.123047 -0.00195312 -0.182617 -0.00195312
c-1.04102 -0.288086 -9.94043 -4.5459 -26.292 -12.5283l-14.6465 21.0938c18.0957 12.4824 36.1836 24.9717 54.2832 37.4482l3.42285 -5.0459l-1.75098 5.41406c1.94727 0.0576172 5.47949 0.119141 10.4678 0.119141h11.8916
c5.79883 -1.79688 7.39844 -2.14941 14.2227 -3.39648c-2.72852 -61.6738 -8.83105 -109.306 -18.0127 -154.539l-34.5791 0.0537109c5.48242 96.9316 5.48242 96.9316 5.82812 102.803c0.105469 1.77832 0.18457 3.11426 0.204102 3.48047zM578.511 501.773
c0 0 -0.00195313 -0.00195312 0 0z" />
  </g>

</svg>
