<?xml version="1.0" standalone="no"?>
<!DOCTYPE svg PUBLIC "-//W3C//DTD SVG 1.1//EN" "http://www.w3.org/Graphics/SVG/1.1/DTD/svg11.dtd" >
<svg xmlns="http://www.w3.org/2000/svg" xmlns:xlink="http://www.w3.org/1999/xlink" version="1.1" viewBox="-10 0 1225 1000">
  <g transform="matrix(1 0 0 -1 0 800)">
   <path fill="currentColor"
d="M645.106 685.381zM800.15 684.355zM725.562 558.514zM709.606 346.104zM730.979 451.348zM669.25 346.056zM776.297 752.604v-1.69727h-1.01074v1.69727h1.01074zM609.608 684.215c-20.2646 0 -36.6914 16.4268 -36.6914 36.6914
c0 20.2656 16.4268 36.6924 36.6914 36.6924c16.3623 0 30.2246 -10.7109 34.9551 -25.5049c-0.363281 0.09375 -0.725586 0.188477 -1.08496 0.28418c1.86914 -2.88672 2.82129 -7.42578 2.82129 -11.4717c0 -9.64258 -3.71973 -18.416 -9.80273 -24.9639
c-2.03613 -1.99023 -4.26074 -3.66406 -6.53809 -5.08887c0.125 -0.0732422 0.253906 -0.146484 0.384766 -0.22168c-5.89941 -4.04785 -13.041 -6.41699 -20.7354 -6.41699v0zM825.268 746.81c-20.7588 0 -31.4209 -19.751 -31.4209 -31.8232
c0 -7.80957 13.6572 -31.001 30.8262 -31.001c15.9863 0 32.002 13.0664 32.002 31.416c0 17.126 -14.2832 31.4082 -31.4072 31.4082zM725.562 547.399c-17.125 0 -31.4082 -14.2822 -31.4082 -31.4072s14.2832 -31.4082 31.4082 -31.4082s31.4082 14.2832 31.4082 31.4082
s-14.2832 31.4072 -31.4082 31.4072zM688.417 344.08c-17.125 0 -31.4072 -14.2832 -31.4072 -31.4082s14.2822 -31.4082 31.4072 -31.4082s31.4082 14.2832 31.4082 31.4082s-14.2832 31.4082 -31.4082 31.4082zM688.417 272.233
c-22.9531 0 -41.9043 18.9531 -41.9043 41.9053c0 16.1035 9.69629 27.7686 23.498 33.2559c0.00683594 -0.0947266 0.0126953 -0.189453 0.0195312 -0.28418c15.9863 3.80176 15.9863 3.80176 19.1055 3.80176c7.17773 0 13.876 -1.34668 19.6982 -3.89062
c0.00878906 0.102539 0.0175781 0.206055 0.0273438 0.30957c0.358398 -0.142578 0.717773 -0.291016 1.0791 -0.445312l-0.344727 -0.207031c12.4678 -5.74902 20.7266 -17.1064 20.7266 -32.54c0 -22.9531 -18.9531 -41.9053 -41.9053 -41.9053v0zM802.442 753.185
c0.442383 0.481445 0.885742 0.963867 1.33203 1.44727l0.628906 -1.42578c-0.655273 0 -1.30859 -0.0214844 -1.96094 -0.0214844v0zM802.442 753.185c-44.6035 -0.800781 -80.3281 -22.0986 -114.233 -22.0986c-20.7588 0 -20.5176 -4.99023 -43.6455 1.00781
c1.12793 -3.52734 1.73633 -7.28613 1.73633 -11.1875c0 -11.6191 -4.19336 -19.4873 -9.80273 -24.9639c-1.8457 -1.98828 -3.90918 -3.77051 -6.15332 -5.31055c9.58398 -5.48047 2.7168 -5.38574 13.543 -7.13672c5.86816 -0.949219 11.8408 -1.36816 17.8555 -1.36816
c43.9131 0 91.5986 22.6143 110.316 22.6143c0.00292969 0 12.4023 -0.72168 12.4023 -0.72168c-1.24512 3.62012 -1.94824 7.61328 -1.94824 11.999c0 1.97559 0.140625 3.92188 0.411133 5.82812c0.219727 1.91211 0.603516 3.73828 1.18652 5.55762
c1.98828 6.19531 6.2998 12.3076 14.3955 21.4268c7.15625 5.68066 16.1738 9.0918 25.9111 9.0918c23.0889 0 42.7559 -18.29 42.7559 -41.2764c0 -16.0234 -10.2812 -31.7178 -23.8809 -38.4814l0.234375 0.474609c-9.95508 -3.63477 -9.95508 -3.63477 -10.1943 -3.63477
c-0.0585938 0 -0.0585938 0 -0.760742 0.0644531c-12.543 1.14941 -18.4668 1.7373 -32.2686 9.90625c-0.0966797 -0.163086 -0.192383 -0.326172 -0.289062 -0.488281c-0.0380859 0.0253906 -0.0751953 0.0517578 -0.113281 0.078125
c-0.0302734 -0.0517578 -0.0966797 -0.12207 -0.526367 -0.581055l-0.341797 0.165039l-0.0195312 -0.151367c-0.141602 0.148438 -0.166016 0.173828 -0.311523 0.308594c0.275391 0.131836 0.361328 0.452148 0.396484 0.824219
c-6.38477 4.59082 -11.8594 10.8125 -14.6367 18.8887c0.269531 -0.015625 0.543945 -0.03125 0.825195 -0.0478516c-1.66797 4.48145 -2.5957 8.73145 -2.5957 13.5039c0 1.52344 0.0732422 2.96973 0.233398 4.37109c0.269531 1.89453 0.668945 3.75 1.18652 5.55762
c2.45117 8.54395 7.57812 16.0146 14.3955 21.4268c1.22363 1.37891 2.53516 2.82617 3.93652 4.35352v0zM767.252 524.434c0.200195 -0.729492 0.390625 -1.47168 0.574219 -2.22656l-0.639648 0.0712891c0.185547 -1.58301 0.280273 -3.19141 0.280273 -4.82031
c0 -16.874 -10.2432 -31.5859 -24.7881 -38.1943c0.0273438 0.0595703 0.0546875 0.120117 0.0820312 0.179688c-0.626953 -0.342773 -1.28125 -0.669922 -1.96094 -0.978516c-4.73438 -1.87793 -9.87695 -2.91113 -15.2373 -2.91113
c-8.43848 0 -16.3359 2.56152 -22.9502 6.94141c-2.7373 2.08203 -5.38672 4.74023 -7.77832 8.12598c-0.166992 -0.3125 -0.333984 -0.630859 -0.501953 -0.954102c-6.62402 7.42383 -10.6738 17.1797 -10.6738 27.791c0 22.9375 18.9258 41.8789 41.8555 41.9053
c0.1875 0.0205078 0.384766 0.0302734 0.591797 0.0302734c0.291016 0 0.598633 -0.0195312 0.921875 -0.0537109l-0.00195312 -0.00195312c0.0126953 0 0.0253906 -0.00195312 0.0390625 -0.00195312c2.97559 -0.324219 7.39648 -2.01074 9.52734 -2.50195
c14.7676 -3.40137 24.084 -13.2314 29.1758 -27.6436c0.513672 -1.73438 0.916992 -3.5127 1.20215 -5.3291zM767.252 524.434v0c-0.447266 1.63574 -0.942383 3.22266 -1.48438 4.75684c-5 16.876 -20.4629 29.4873 -38.7031 30.1455
c-0.0126953 0 -0.0253906 0.00390625 -0.0371094 0.00390625c24.3652 41.6787 48.4521 83.6367 72.9863 125.146c9.9043 -6.79492 21.7461 -9.79102 29.1084 -9.79102c4.91602 0 9.7207 1.25684 14.1699 3.46875zM729.961 451.139
c0.0800781 0.185547 0.160156 0.369141 0.240234 0.551758l0.912109 -1.18262c-0.0527344 -0.0078125 -0.110352 -0.0126953 -0.170898 -0.0126953c-0.208984 0 -0.770508 0.0683594 -0.981445 0.643555v0zM729.961 451.139v0
c-9.1709 -21.291 -17.8359 -67.0693 -21.0996 -103.808c-7.74902 3.08496 -14.792 3.58105 -19.7256 3.58105c-6.82227 0 -13.335 -1.21484 -19.125 -3.51758c-1.73828 25.667 -3.01074 48.3311 -3.01074 56.6055c1.875 5.83398 14.5312 60.8955 27.332 85.667
c2.43652 -2.73047 5.22168 -5.14551 8.28027 -7.17188c8.2041 -6.24023 17.1982 -7.30859 22.4004 -7.30859c5.82324 0 11.3418 1.25586 15.7871 3.27832c0.633789 0.250977 1.25977 0.517578 1.87891 0.798828c-4.47949 -9.87012 -12.8154 -23.5312 -12.8154 -27.4775
c0 -0.251953 0.03125 -0.46875 0.0976562 -0.647461zM799.869 684.586c-0.200195 0.138672 -0.398438 0.27832 -0.59668 0.419922c-0.154297 -0.0927734 -0.246094 -0.248047 -0.199219 -0.541992zM62.3545 -113.479h55.5146l11.1309 59.4795l23.1904 -59.4795h55.5156
l-44.8672 -32.2959l17.1611 -52.2246l-44.9697 32.2959l-44.9707 -32.2959l17.1611 52.2246zM456.777 347.996c0 103.192 -83.7588 186.946 -186.945 186.946c-103.19 0 -186.946 -83.7578 -186.946 -186.946c0 -86.9873 59.96 -161.056 141.774 -181.413
c-12.1016 9.43555 -28.5498 28.3428 -28.5498 61.415c-0.000976562 81.0107 99.4736 101.256 145.528 55.2021c28.417 -28.417 29.3252 -76.3369 3.88867 -106.173c21.1836 9.40234 40.3037 22.6299 56.4707 38.7969c33.8418 33.8408 54.7793 80.5811 54.7793 132.172z
M485.663 348c0 -119.157 -96.7002 -215.832 -215.831 -215.832c-119.138 0 -215.832 96.6816 -215.832 215.832c0 119.011 96.8242 215.83 215.832 215.83c119.151 0 215.831 -96.6914 215.831 -215.83zM335.07 227.9l2.34277 0.0419922l0.00878906 0.00878906
l-1.19336 1.14844l-1.16309 -1.19434c0.00195312 0 0.00292969 -0.00488281 0.00488281 -0.00488281zM334.882 230.396l-1.17578 1.13184l1.11035 0.0136719c-0.785156 11.627 -5.44824 22.9922 -13.9834 31.5264c-28.5049 28.5059 -95.834 18.9385 -95.834 -35.0918
c0.0175781 -53.9922 67.3115 -63.5557 95.832 -35.0342c8.47461 8.47363 13.1279 19.7275 13.9668 31.2549c-0.576172 -0.00683594 -0.980469 -0.0107422 -1.00098 -0.0107422l1.06934 1.11035c0.0878906 1.69824 0.0927734 3.40039 0.015625 5.09961zM804.705 415.677
c0 32.0879 7.84668 65.416 23.6934 97.3896c16.5479 33.3096 43.1104 76.1699 48.3164 84.5527c27.9561 45.0098 81.7441 143.287 82.5293 144.757c6.25195 11.7139 9.29883 15.4609 22.5566 15.4609h1.05273c8.51465 -3.7334 12.0088 -7.17188 20.3574 -26.0381
l83.2939 -146.48c4.58203 -7.98535 7.31152 -12.3203 18.248 -29.5869c2.88477 -4.24121 33.2656 -50.3809 42.4912 -82.9854c4.24023 -14.2607 7.42871 -36.1436 7.42871 -51.0146c0 -82.2754 -65.249 -160.553 -145.673 -175.731
c-14.5215 -2.74121 -26.1445 -4.15918 -35.2188 -4.15918c-39.2539 0 -91.248 21.4902 -119.05 49.1826c-33.127 33.2305 -50.0264 77.5947 -50.0264 124.653zM974.307 274.292c84.793 0 148.125 74.3818 148.125 146.716c0 14.3848 -3.72656 38.3154 -10.9775 56.2295
c-7.71973 17.6387 -23.125 45.5078 -34.1084 61.5898c-12.3926 19.3818 -15.6514 24.8789 -19.2021 30.9941l-79.8887 138.712c-4.46875 -8.68457 -60.334 -106.486 -79.04 -136.885c-38.7393 -64.1152 -62.0244 -102.731 -62.0244 -156.716
c0 -38.5361 13.5479 -73.96 39.665 -100.077c23.4482 -23.4482 68.4932 -40.5635 97.4512 -40.5635z" />
  </g>

</svg>
