<?xml version="1.0" standalone="no"?>
<!DOCTYPE svg PUBLIC "-//W3C//DTD SVG 1.1//EN" "http://www.w3.org/Graphics/SVG/1.1/DTD/svg11.dtd" >
<svg xmlns="http://www.w3.org/2000/svg" xmlns:xlink="http://www.w3.org/1999/xlink" version="1.1" viewBox="-10 0 864 1000">
  <g transform="matrix(1 0 0 -1 0 800)">
   <path fill="currentColor"
d="M430.072 714.72c-60.9794 -63.6261 -102.754 -103.252 -148.13 -103.252c-41.4831 0 -81.644 33.4399 -131.793 95.839c-1.50454 1.87197 -11.7869 10.0611 -55.1478 14.7798v-363.198c0 -264.717 45.7819 -296.766 138.636 -324.258
c62.3405 -18.4581 143.658 -74.3078 180.168 -128.105l15.2226 -20.1897l16.1124 19.8602c37.1397 54.9512 117.582 109.213 177.133 127.347c91.903 27.9849 136.893 59.9344 136.893 325.346v363.13l-42.8056 -14.7934
c-65.9003 -65.3805 -106.615 -100.68 -145.906 -100.68c-41.7771 0 -78.079 39.3199 -140.382 108.175zM132.777 358.889v319.779c68.6168 -70.1935 114.221 -116.228 156.982 -116.228c43.3674 0 87.2093 49.424 139.347 115.108
c49.7591 -61.3318 92.6414 -108.156 136.32 -108.156c42.5048 0 87.924 42.5454 155.13 106.298v-318.189c0 -164.948 -17.0916 -227.764 -46.6507 -257.323c-16.4384 -16.4384 -37.3732 -23.4236 -63.7824 -32.0054
c-0.396223 -0.111712 -0.769768 -0.246103 -1.15636 -0.367442h-0.154963c-59.1143 -16.7462 -132.761 -66.07 -173.914 -113.834l-5.71332 -6.63095c-9.14719 10.7166 -12.8047 15.0016 -21.2973 23.4942c-43.7373 43.7373 -108.891 84.6636 -162.004 99.4832h-0.15707
c-72.83 22.54 -112.949 35.8217 -112.949 288.572z" />
  </g>

</svg>
