<?xml version="1.0" standalone="no"?>
<!DOCTYPE svg PUBLIC "-//W3C//DTD SVG 1.1//EN" "http://www.w3.org/Graphics/SVG/1.1/DTD/svg11.dtd" >
<svg xmlns="http://www.w3.org/2000/svg" xmlns:xlink="http://www.w3.org/1999/xlink" version="1.1" viewBox="-10 0 888 1000">
  <g transform="matrix(1 0 0 -1 0 800)">
   <path fill="currentColor"
d="M50.5039 -102.984h42.7031l13.2012 40.1738l13.2002 -40.1738h42.7041l-34.5127 -24.8428l13.2002 -40.1729l-34.5918 24.8428l-34.5928 -24.8428l13.2012 40.1729zM767.406 257.387l0.351562 -17.4639c-2.38379 0.0517578 -6.25 0.0947266 -8.63184 0.0947266
c-21.6357 0 -25.4121 2.56055 -46.6279 -1.67969c-23.2744 -4.74219 -54.8857 -23.0762 -70.5596 -40.9248c-12.4248 -16.8555 -23.1729 -47.5186 -23.9902 -68.4434c-0.0615234 -2.3877 -0.108398 -6.26465 -0.108398 -8.65234
c0 -14.8379 1.86523 -38.7803 4.16504 -53.4395c6.1748 -49.9219 12.5244 -101.431 -31.3994 -142.885c-16.4229 -14.5605 -47.4004 -28.7871 -69.1484 -31.752c-11.7188 -1.85449 -30.8574 -3.3584 -42.7227 -3.3584c-0.524414 0 -1.38086 0.00292969 -1.90723 0.00683594
c-12.3467 0 -24.3418 1.41113 -35.2793 1.41113l1.23535 17.6406c8.32227 -0.758789 21.8623 -1.37207 30.2207 -1.37207c12.6533 0 33.0957 1.4043 45.6309 3.13574c18.8232 2.48535 45.6924 14.6553 59.9756 27.166c37.3975 35.2793 31.752 80.2607 25.9316 127.889
c-2.32617 15.0176 -4.21289 39.5391 -4.21289 54.7373c0 2.90723 0.0703125 7.625 0.154297 10.5312c0.858398 23.9736 13.2656 58.9824 27.6963 78.1445c17.708 20.4756 53.584 41.5762 80.085 47.0996c22.2988 4.52734 27.8623 2.20312 50.6162 2.20312
c2.35352 0 6.17285 -0.0400391 8.52539 -0.0888672zM467.831 163.897c6.35156 -51.5098 12.8779 -104.429 -31.9297 -146.06c-16.7617 -14.8525 -48.373 -29.3926 -70.5586 -32.458c-12.167 -1.9502 -32.041 -3.53223 -44.3633 -3.53223
c-0.462891 0 -1.21387 0.00195312 -1.67676 0.00488281c-11.8193 0 -23.9902 1.41113 -35.2793 1.41113l1.2334 17.6406c8.55859 -0.779297 22.4785 -1.41113 31.0713 -1.41113c12.9062 0 33.7598 1.4209 46.5449 3.1748c19.2666 2.5752 46.7666 15.0615 61.3877 27.8701
c38.4551 36.1631 32.6348 82.2031 26.6367 131.066c-2.41895 15.499 -4.38086 40.8105 -4.38086 56.4961c0 2.86035 0.0664062 7.5 0.145508 10.3584c0.862305 24.5791 13.584 60.457 28.4014 80.085c18.083 20.9541 54.752 42.5303 81.8506 48.1592
c22.7969 4.62695 60.1807 8.38281 83.4453 8.38281c2.43164 0 6.37988 -0.0410156 8.81152 -0.0927734v-17.6396c-2.41309 0.0517578 -6.33203 0.09375 -8.74609 0.09375c-22.1436 0 -57.7393 -3.51953 -79.4551 -7.85547
c-23.8223 -4.86719 -56.1436 -23.6777 -72.1455 -41.9834c-12.9355 -17.2295 -24.1582 -48.6807 -25.0488 -70.207c-0.0703125 -2.58105 -0.125 -6.76953 -0.125 -9.34961c0 -15.0361 1.87207 -39.2969 4.18066 -54.1543zM697.598 621.92v-0.25
c0 -23.25 13.6406 -54.6943 30.5459 -70.4307c10.6396 -9.93262 4.26172 -28.2373 -9.16699 -29.583c-3.71387 -0.499023 -9.77051 -0.90332 -13.5186 -0.90332h-0.370117c-55.748 0.539062 -102.104 46.21 -103.472 101.944
c-0.0107422 0.543945 -0.0185547 1.42578 -0.0185547 1.96973c0 57.5 46.666 104.166 104.166 104.166c5.61719 0 14.6475 -0.881836 20.1582 -1.96875c12.9189 -2.72168 18.3428 -20.8799 7.36035 -29.792c-19.7412 -16.0049 -35.7637 -49.6211 -35.7637 -75.0352
c0 -0.0283203 0.0791016 -0.117188 0.0791016 -0.117188zM725.922 535.268c0.300781 0.90625 0.544922 2.41602 0.544922 3.37109c0 2.59473 -1.55078 6.12402 -3.46191 7.87891c-17.9277 17.0059 -32.4775 50.8633 -32.4775 75.5732
c0 27.2041 17.0693 63.2842 38.1025 80.5371c1.99023 1.60059 3.60547 4.9707 3.60547 7.52441c0 5.10547 -3.93848 9.27344 -8.18848 10.1152c-5.18262 1.0293 -13.6758 1.86914 -18.959 1.875h-2.36133c-52.5605 -1.92676 -95.3301 -46.2842 -94.8604 -99.3057
c1.14941 -53.624 45.2275 -95.1572 99.0693 -95.1572c3.06543 0 8.02441 0.288086 11.0693 0.642578c3.47168 0.449219 7.01855 3.56055 7.91699 6.94531zM631.477 624.851c0 9.58789 7.77344 17.3613 17.3613 17.3613c9.58887 0 17.3613 -7.77344 17.3613 -17.3613
c0 -9.58887 -7.77246 -17.3613 -17.3613 -17.3613c-9.58789 0 -17.3613 7.77246 -17.3613 17.3613zM352 728.416c55.3145 -0.0761719 100.208 -45.0312 100.208 -100.347v-0.0693359c-0.114258 -55.2002 -45.0078 -100 -100.208 -100
c-55.3145 0 -100.208 44.8926 -100.208 100.208c0 55.3154 44.8936 100.208 100.208 100.208zM445.125 631.194c-0.688477 19.1016 -11.8262 45.9502 -24.8613 59.9307l-39.0967 -39.0977c4.26465 -4.97461 8.21582 -14.3086 8.81934 -20.833h55.1387zM355.473 721.056
l-0.0703125 -55.5557c6.46289 -0.553711 15.7959 -4.31836 20.834 -8.40332l39.0967 39.0977c-13.9639 13.0205 -40.7812 24.1592 -59.8604 24.8613zM348.527 721.056c-19.0713 -0.686523 -45.8887 -11.793 -59.8604 -24.792l39.0273 -39.167
c5.03809 4.08496 14.3711 7.84961 20.833 8.40332v55.5557zM283.736 691.333c-13.0781 -14.0283 -24.2158 -40.9707 -24.8613 -60.1387h55.1387c0.603516 6.52441 4.55469 15.8584 8.81934 20.833zM258.875 624.25c0.744141 -19.0137 11.8828 -45.7383 24.8613 -59.6533
l39.0273 38.8193c-4.26465 4.97559 -8.21484 14.3086 -8.81934 20.834h-55.0693zM348.527 534.875l0.0703125 55.5557c-6.46289 0.552734 -15.7959 4.31738 -20.834 8.40234l-39.0967 -39.0967c13.9639 -13.0215 40.7812 -24.1592 59.8604 -24.8613zM355.473 534.875
c19.1016 0.6875 45.9502 11.8262 59.9297 24.8613l-39.0967 39.0967c-5.03809 -4.08496 -14.3711 -7.84961 -20.833 -8.40234v-55.5557zM420.264 564.597c12.957 13.9229 24.0635 40.6475 24.792 59.6533h-55.0693c-0.603516 -6.52539 -4.55469 -15.8584 -8.81934 -20.834z
M320.75 628c0 -39.8174 62.5 -39.6133 62.5 0c0 16.9902 -13.9912 30.7637 -31.25 30.7637s-31.25 -13.7734 -31.25 -30.7637zM352 728.416c55.3145 -0.0761719 100.208 -45.0312 100.208 -100.347v-0.0693359c-0.114258 -55.2002 -45.0078 -100 -100.208 -100
c-55.3145 0 -100.208 44.8926 -100.208 100.208c0 55.3154 44.8936 100.208 100.208 100.208zM445.125 631.194c-0.688477 19.1016 -11.8262 45.9502 -24.8613 59.9307l-39.0967 -39.0977c4.26465 -4.97461 8.21582 -14.3086 8.81934 -20.833h55.1387zM355.473 721.056
l-0.0703125 -55.5557c6.46289 -0.553711 15.7959 -4.31836 20.834 -8.40332l39.0967 39.0977c-13.9639 13.0205 -40.7812 24.1592 -59.8604 24.8613zM348.527 721.056c-19.0713 -0.686523 -45.8887 -11.793 -59.8604 -24.792l39.0273 -39.167
c5.03809 4.08496 14.3711 7.84961 20.833 8.40332v55.5557zM283.736 691.333c-13.0781 -14.0283 -24.2158 -40.9707 -24.8613 -60.1387h55.1387c0.603516 6.52441 4.55469 15.8584 8.81934 20.833zM258.875 624.25c0.744141 -19.0137 11.8828 -45.7383 24.8613 -59.6533
l39.0273 38.8193c-4.26465 4.97559 -8.21484 14.3086 -8.81934 20.834h-55.0693zM348.527 534.875l0.0703125 55.5557c-6.46289 0.552734 -15.7959 4.31738 -20.834 8.40234l-39.0967 -39.0967c13.9639 -13.0215 40.7812 -24.1592 59.8604 -24.8613zM355.473 534.875
c19.1016 0.6875 45.9502 11.8262 59.9297 24.8613l-39.0967 39.0967c-5.03809 -4.08496 -14.3711 -7.84961 -20.833 -8.40234v-55.5557zM420.264 564.597c12.957 13.9229 24.0635 40.6475 24.792 59.6533h-55.0693c-0.603516 -6.52539 -4.55469 -15.8584 -8.81934 -20.834z
M320.75 628c0 -39.8174 62.5 -39.6133 62.5 0c0 16.9902 -13.9912 30.7637 -31.25 30.7637s-31.25 -13.7734 -31.25 -30.7637zM674.464 667.233z" />
  </g>

</svg>
