<?xml version="1.0" standalone="no"?>
<!DOCTYPE svg PUBLIC "-//W3C//DTD SVG 1.1//EN" "http://www.w3.org/Graphics/SVG/1.1/DTD/svg11.dtd" >
<svg xmlns="http://www.w3.org/2000/svg" xmlns:xlink="http://www.w3.org/1999/xlink" version="1.1" viewBox="-10 0 1008 1000">
  <g transform="matrix(1 0 0 -1 0 800)">
   <path fill="currentColor"
d="M348.481 97.6934l-82.2217 148.848l24.0225 10.1475l58.4395 -100.383l53.3027 101.418l27.2285 -11.0254zM265.568 -67.707v34.6641h38.626v22.0713h-38.626v34.6641h38.626v33.7148h31.3828v-33.7148h23.2197v31.2539h31.3828v-31.2539h41.292v-34.6641h-41.292
v-22.0713h41.292v-34.6641h-41.292v-36.1855h-31.3828v36.1855h-23.2197v-33.7246h-31.3828v33.7246h-38.626zM335.577 -33.043h23.2197v22.0713h-23.2197v-22.0713zM780.659 223.904c-0.529297 0 -0.985352 0.173828 -1.32227 0.358398l-214.094 -88.2627v-37.8242
c12.126 5.10742 24.251 10.2148 36.376 15.3213v-3.77051l-0.21875 -161.659h318.305l0.646484 155.446c10.9619 -6.48535 21.9238 -12.9697 32.8867 -19.4551l-0.677734 40.7051l-136.33 79.1182l1.46387 0.616211c-22.6963 11.7715 -24.457 12.7314 -36.2109 19.5508
c-0.288086 -0.102539 -0.56543 -0.144531 -0.824219 -0.144531zM884.594 -16.7148h-248.003l-0.665039 144.662l142.009 59.8174l107.859 -63.8086zM63.3545 -23.4795h55.5146l17.1611 52.2256l17.1602 -52.2256h55.5156l-44.8672 -32.2959l17.1611 -52.2246
l-44.9697 32.2959l-44.9707 -32.2959l17.1611 52.2246zM641.415 607.09c0 -15.3023 3.29176 -35.1711 43.9082 -63.6036c31.7584 -22.2298 58.4589 -26.3926 92.6658 -26.3926c64.5468 0 83.9976 8.03936 112.475 31.3099c32.5869 26.6292 41.4913 37.333 41.4913 49.3636
c0 3.82437 0 3.82437 -6.02064 27.8608l-1.9144 -3.41334s0.0819692 9.73542 0.0819841 9.739c0 0.746202 -0.786312 2.62605 -0.942376 4.11871c-32.3624 51.0422 -32.3624 51.0422 -35.0752 54.7221c-21.5993 14.2425 -24.3476 20.69 -31.9653 25.1823
c-5.01283 2.95618 -11.3215 4.36686 -17.7905 4.36686c-8.05064 0 -16.3496 -2.18481 -22.7085 -6.29453c-4.10372 -10.6241 -17.6736 -16.5274 -32.4821 -16.5274c-11.8387 0 -24.2096 3.78187 -32.4475 11.6098c-0.768589 0.730113 -2.68317 0.704253 -3.29744 2.93552
c-4.36515 2.68891 -9.73114 3.94031 -15.4566 3.94031c-16.9 0 -36.3061 -10.8252 -43.0519 -26.7126l-2.13498 -5.02945l-2.42473 0.933414l-36.9157 -52.2614c-5.9949 -22.4821 -5.9949 -22.4821 -5.9949 -25.8474zM837.726 740.478
c33.8822 0 63.0125 -29.5027 72.4496 -39.0603h0.780701c1.80992 -2.67178 1.80992 -2.67178 5.06523 -6.06893l30.9637 -52.9089c0.246863 -0.112429 1.75275 -0.837896 1.75275 -2.69494c0 -0.199911 -0.0199908 -0.384183 -0.0590013 -0.563324
c0.215518 -0.675137 0.215518 -0.675137 6.61809 -25.3993l2.43274 -0.0380328c-1.49904 -31.6262 -2.00704 -42.3438 -48.4673 -79.056c-32.8071 -25.9233 -59.4775 -44.0683 -120.413 -44.0683c-40.2596 0 -96.5707 10.0023 -142.595 56.027
c-14.8065 14.8065 -30.782 36.0083 -31.6587 59.9973h-2.00534c2.09245 7.8463 2.09245 7.8463 2.28995 13.837l1.39439 -0.0229593l2.46322 9.23771h-3.36352l5.04953 6.85523v5.68676h4.18581l43.0908 58.5488h1.01159c10.8153 23.1328 39.2814 38.0849 63.8457 38.0849
c4.61704 0 21.9711 -0.293123 33.5242 -13.8757c2.53916 -1.07691 9.23475 -3.50999 17.4038 -3.50999c3.77595 0 7.86671 0.519842 12.0073 1.93374c0.836782 1.0507 14.0484 17.0582 42.233 17.0582zM748.234 571.222c0 0 0.988505 -0.275114 0.991961 -0.262552z
M750.238 556.804l-0.476421 0.0837476l-0.46691 -3.15591zM772.073 644.598l0.533774 1.28929l-4.36404 1.30181zM282.333 607.583c0 -50.5609 51.5681 -91.6675 114.667 -91.6675c63.0963 0 114.667 41.0218 114.667 91.5845c0 50.5599 -51.5681 91.6665 -114.667 91.6665
c-63.0969 0 -114.667 -41.0213 -114.667 -91.5835zM852.556 562.357c0 -13.8472 -9.75488 -26.5421 -23.4426 -26.5421c-0.0867572 0 -0.173811 0.000477357 -0.261163 0.00143706c-3.91868 -0.0807702 -35.0419 -0.10831 -55.9603 -0.10831
c-10.7203 0 -18.7604 0.00723306 -19.0851 0.0182414c-4.59441 0.146894 -11.8704 0.381358 -17.958 7.12596c-1.52249 1.68629 -7.64599 9.08846 -7.64599 20.0464c0 5.02998 1.85438 12.4899 4.68275 22.8559c10.9075 44.8719 15.6838 64.5213 29.9882 78.8256
c6.47709 6.47709 15.4705 11.6794 27.2999 11.6794c33.5565 0 44.5457 -36.0375 51.9706 -65.9531c10.4117 -43.2737 10.4117 -43.2737 10.4117 -47.9494zM750.958 556.662c324.341 0 3.23698 -0.204076 3.23698 -0.204076
c73.1637 0.0317187 74.4468 0.0716676 75.9856 0.273518c0.623584 0.270856 2.96945 2.26244 2.96945 6.1703c0 2.84556 -10.4659 45.8325 -14.6889 59.602c-9.89267 31.9002 -21.4675 33.0076 -28.2825 33.0076c-16.0213 0 -24.1278 -17.3047 -32.5216 -50.6707
c-9.86096 -40.598 -9.86096 -40.598 -9.86096 -42.2561c0 -2.83704 1.72044 -5.92246 3.16188 -5.92246zM940.258 634.069zM624.505 616.09zM940.258 634.069zM738.043 515.048zM663.91 538.37zM792.806 512.12zM624.505 616.09zM667.7 695.61zM899 540zM397 500.084
c-72.1194 0 -130.499 48.2164 -130.499 107.416c0 15.4058 9.58886 50.6943 43.499 78.5l-55.6768 54.0029c-2.04507 1.98359 -3.32324 4.84473 -3.32324 7.99707c0 6.4834 4.59761 9.37734 11.0293 9.37734c2.75841 0 5.59651 -1.07783 7.84155 -3.32287
c42.185 -42.185 53.1009 -53.0328 56.2704 -56.303c20.4557 10.9319 44.7986 17.2476 70.8588 17.2476c27.7987 0 49.7422 -4.70214 71 -16.999l58 56c1.30957 1.17188 2.83105 1.82812 4.33398 1.82812c3.80469 0 9.69506 -7.17433 9.69506 -10.7781
c0 -1.73943 -0.6981 -3.30481 -1.8275 -4.43421l-53.5149 -53.5149c13.2009 -9.91814 42.8124 -36.4667 42.8124 -79.5179c0 -59.1978 -58.3785 -107.499 -130.499 -107.499z" />
  </g>

</svg>
