<?xml version="1.0" standalone="no"?>
<!DOCTYPE svg PUBLIC "-//W3C//DTD SVG 1.1//EN" "http://www.w3.org/Graphics/SVG/1.1/DTD/svg11.dtd" >
<svg xmlns="http://www.w3.org/2000/svg" xmlns:xlink="http://www.w3.org/1999/xlink" version="1.1" viewBox="-10 0 1051 1000">
  <g transform="matrix(1 0 0 -1 0 800)">
   <path fill="currentColor"
d="M271 608l-12 60c128.725 89.7881 355.203 55.3633 442.457 48.5605c0 -0.0107422 0.000976562 -0.0214844 0.000976562 -0.0322266c27.4463 0.582031 75.1855 -1.32129 107.268 -33.4033c40.1396 -40.1396 38.6152 -108.841 37.5254 -169.365
c-0.395508 -21.9258 -0.433594 -33.2402 -0.22168 -41.9463c26.3789 -43.8281 72.168 -89.959 89.3252 -129.607c6.95117 -16.0635 5.49219 -24.7637 2.64551 -40.2051l-12 -14l-79.501 -63.5771v-212.431c1.93945 -31.0869 1.82422 -79.2412 -27.416 -108.48
c-26.0322 -26.0322 -182.507 -12.0195 -220.584 -13.0049l-2.90137 0.0126953c-103.732 -7.2998 -296.108 50.6025 -326.603 92.1719c-18.5059 25.2275 -31.4014 41.2529 -57.9951 55.3086v70.0371c25.8174 -16.2627 49.624 -17.8066 70.1904 -60.6357
c44.2188 -92.082 349.455 -105.734 451.309 -108.438l-0.499023 -0.962891c50 12 34.1514 4.48145 42.5352 13.5361c19.1768 20.7119 3.97852 41.9688 5.50781 57.9648h-0.541992v2.14941c-0.253906 0.990234 -0.500977 1.94141 -0.738281 2.84863h0.738281v207.174v3.4873
v1.33887h1.58203l104 88h1.13281c4.9834 45.8955 -62.8379 92.1289 -94.2158 139.501l-3 4l-1 1c-2.02051 3.99219 0.0439453 4.02539 -2.08398 11.5605c-0.0371094 0.130859 -0.189453 0.24707 -0.174805 0.367188l0.258789 2.07227l0.0644531 1.49902
c0.00976562 0.226562 0.150391 3.89551 0.242188 6.24414c3.11426 79.1523 14.1973 176.389 -74.8154 176.771c-136.35 16.7461 -373.536 9.53418 -431.49 -46.5137zM30.3545 728.521h55.5146l17.1611 52.2256l17.1602 -52.2256h55.5156l-44.8672 -32.2959l17.1611 -52.2246
l-44.9697 32.2959l-44.9707 -32.2959l17.1611 52.2246zM581.97 590.5c40.874 0 74.1299 -22.3516 74.1299 -49.7695c0 -6.79395 -1.99512 -13.2832 -5.96387 -19.5479l18.1934 -86.9229h-10.5059l-17.4443 75.8613c-6.02148 -5.0498 -11.5537 -8.23145 -17.8789 -11.042
v-66.0791h-10.5v62.2285c-3.94922 -1.1543 -14.79 -4.26855 -30.0303 -4.26855c-8.13281 0 -15.2158 0.825195 -22.4863 2.33984l7.60547 -59.46h-9.66309l-7.95215 62.1641c-12.7676 4.24121 -19.9932 9.45508 -23.9619 12.5117l-8.87695 -68.7959h-9.66309
l9.95605 77.1621c-2.21875 2.73535 -6.80957 8.82617 -8.4707 17.418c-0.0644531 0 -0.128906 -0.000976563 -0.193359 -0.000976563c-4.45312 0 -9.40625 1.29492 -14.707 4.27734c-13.7568 7.74023 -28.3535 18.751 -28.3535 30.624
c0 14.8691 9.14746 21.5098 34.0273 21.5098c16.1338 0 24.9541 -6.07617 28.9033 -15.8896c9.89258 7.00391 27.4688 15.6797 53.8359 15.6797zM506.972 439.72h-0.477539l0.416016 -0.474609zM516.635 439.72l-0.046875 -0.366211l0.416016 0.366211h-0.369141z
M557.426 433.84h-0.370117l0.416016 -0.366211zM567.089 433.84l0.0605469 -0.473633l0.416016 0.473633h-0.476562zM612 433h-0.419922l0.419922 -0.419922v0.419922zM622.5 433v-0.419922l0.419922 0.419922h-0.419922zM657.823 434.26h-0.334961l0.40918 -0.325195z
M668.329 434.26l0.106445 -0.506836l0.410156 0.506836h-0.516602zM577.774 110.087c-0.0546875 0 -0.146484 -0.000976562 -0.202148 -0.000976562c-16.4844 0 -39.3848 9.40039 -51.0225 21.0752c-23.8506 23.9258 -28.2305 61.4395 -11.1748 95.7754
c5.77441 11.625 12.5381 22.9873 19.2002 33.9004c3.52539 5.77441 7.01953 11.6416 10.3496 17.4746l23.8496 41.7744l1.125 2.17578s6.59961 12.8252 9.60059 12.8252h1.4248c2.5498 0 4.19238 -4.2793 6.375 -9.07617
c0.375 -0.824219 0.71582 -1.55176 0.899414 -1.87402l36.9756 -64.875c2.6123 -4.58301 5.31738 -9.10449 8.3252 -13.5c5.29883 -7.74316 12.624 -21.0146 16.3496 -29.625c0.900391 -2.2002 1.64355 -4.45996 2.3252 -6.75
c1.76562 -5.92969 3.19922 -15.7617 3.19922 -21.9482c0 -35.2021 -28.3018 -67.9561 -62.6748 -75.5518c-4.07031 -0.899414 -10.7559 -1.7998 -14.9248 -1.7998zM579.5 324.287c0 0 -2.20703 -4.37305 -2.85059 -5.625l-1.34961 -2.62598l-23.8496 -41.625
c-3.38965 -5.91602 -6.94922 -11.7441 -10.501 -17.624c-6.52441 -10.8008 -13.3096 -21.959 -18.8994 -33.3008c-15.5996 -31.6504 -11.7744 -65.6992 9.6748 -87c10.5586 -10.4854 31.2041 -18.9951 46.085 -18.9951c3.71387 0 9.66113 0.704102 13.3145 1.37012
c31.4316 5.72656 56.9404 36.3037 56.9404 68.252c0 5.77832 -1.5 14.916 -3.08887 20.4727c-0.600586 2.10059 -1.30078 4.15039 -2.10156 6.15039c-3.58301 8.23535 -10.8379 20.7832 -15.6738 28.3496c-2.9248 4.57617 -5.86621 9.14062 -8.5498 13.8008
l-36.9756 64.1992c-0.227539 0.394531 -0.591797 1.51855 -1.2002 2.5498z" />
  </g>

</svg>
