<?xml version="1.0" standalone="no"?>
<!DOCTYPE svg PUBLIC "-//W3C//DTD SVG 1.1//EN" "http://www.w3.org/Graphics/SVG/1.1/DTD/svg11.dtd" >
<svg xmlns="http://www.w3.org/2000/svg" xmlns:xlink="http://www.w3.org/1999/xlink" version="1.1" viewBox="-10 0 1011 1000">
  <g transform="matrix(1 0 0 -1 0 800)">
   <path fill="currentColor"
d="M289.094 310.269zM288.973 308.838zM437.566 332.474c0 -22.3145 -12.9805 -51.416 -29.0957 -66.209c-33.9668 -31.2646 -69.1465 -31.2646 -137.471 -31.2646v12.999c19.2139 0 35.6543 0.728516 50.0723 0.728516c-6.62402 1.64551 -15.3379 5.32227 -23.4033 13.3877
c-15.3652 15.3643 -15.1836 34.7227 -10.3037 47.5938c-0.363281 1.48047 2.4375 5.64844 3.0957 7.32422c0.641602 1.63477 1.43555 2.45215 2.57422 3.48145c0.702148 0.633789 0.702148 0.633789 1.12695 1.34082c1.01172 1.6875 2.64941 3.32715 4.69434 5.37109
c1.56934 1.56934 8.84082 6.84473 14.4307 8.5918c4.1377 1.29395 4.71289 2.0498 7.43652 2.37012c1.24414 0.146484 1.9541 0.305664 2.72754 0.479492c1.35547 0.302734 22.7275 4.75195 40.5361 -13.0566c8.75781 -8.75781 13.1885 -19.3838 13.1885 -31.6641
c0 -7.5752 -1.86035 -21.6025 -13.8438 -33.3457c-3.67871 -3.56055 -7.68066 -6.40234 -11.9902 -8.52051c18.6953 3.66113 33.7432 10.6064 48.1904 23.7832c13.0674 11.9766 25.1543 37.7803 24.9043 57.6025c-0.171875 17.9463 -11.6016 43.4932 -25.5547 55.7598
c-30.2939 26.9609 -63.9395 26.9609 -126.133 26.9609v12.999c62.5898 0 100.462 0 134.786 -30.21c15.3701 -13.4854 30.0312 -41.8652 30.0312 -66.5029zM330.822 262.518c12.2119 0 19.2139 5.82715 23.0273 9.6416c7.99805 7.99707 9.11426 16.3477 9.11426 21.916
c-0.0273438 7.91016 -2.6543 15.4209 -9.50684 22.0752c-11.5791 11.3936 -26.3389 10.5029 -35.2207 6.63086l-9.93359 -6.53711l-7.6875 -11.3662l0.0234375 0.0634766c-0.0078125 -0.0214844 -0.015625 -0.0419922 -0.0234375 -0.0634766
c-1.53418 -4.19824 -5.97266 -19.8975 7.4248 -33.1162c6.27148 -6.18848 13.7881 -9.24414 22.7822 -9.24414zM598.969 517.951c1.28906 -22.9072 -9.59668 -88.1592 -3.19336 -91.584c6.28711 -67.5898 71.7256 -130.74 71.8086 -128.305l-11.0879 -7.3916
c-24.9473 27.2109 -52.7832 54.1396 -73.9941 127.872c-4.72266 -32.4658 -25.001 -68.8281 -43.2227 -91.9678c-11.0869 -14.0801 -15.8398 -25.3447 -25.3438 -35.9043l-12.6719 10.0322c14.2559 18.4795 22.2578 30.3906 31.6797 42.7676
c48.1074 63.1934 50.1201 146.162 49.7471 190.117c4.47656 -0.0986328 8.95312 -0.197266 13.4297 -0.296875c2.51855 -0.0537109 2.62109 -2.50195 2.66406 -3.54785c0.00585937 -0.117188 -0.164062 -5.61719 0.18457 -11.792zM711 531l-93.3135 -105.289
l12.2266 -9.74219l79.4883 92.3574c6.60254 -10.9482 16.0254 -23.8916 19.1621 -32.3887l22.3057 31.8057zM701.856 71.7031zM530.103 187.252zM498.027 128.204zM623 51zM622.774 43.8291zM527.288 70.4922zM582.337 53.1748zM732.492 141.555zM498.027 128.204z
M732.492 141.555zM656.438 217.365c-12.1074 0 -22.3574 -4.70996 -27.5566 -9.9082c-1.97754 -1.97852 -1.47266 -2.08203 -2.29102 -2.37891c-3.6748 -1.34082 -7.27734 -1.82617 -10.5645 -1.82617c-3.10254 0 -8.74219 0.458008 -14.8477 3.20117
c-4.14844 5.0498 -11.1641 9.64648 -22.9609 9.64648c-17.71 0 -37.9053 -10.9619 -44.9287 -27.3857l-0.34668 -0.811523h-1.22168l-31.998 -43.4766h-1.53125v-2.0791c-0.207031 -0.282227 -0.414062 -0.563477 -0.62207 -0.845703h0.334961l-3.54395 -13.2891
l-0.398438 0.00585938c-0.0712891 -1.36035 -0.200195 -2.1416 -0.628906 -3.83301h0.515625c-0.0126953 -1.50195 -0.0126953 -1.50195 -0.0126953 -1.65527c0 -9.71582 4.19238 -29.377 32.1357 -52.4873c29.5117 -24.4102 62.8867 -27.1016 90.5547 -27.1016
c45.3486 0 63.8379 5.68359 90.9736 27.127c33.1494 26.1934 33.709 33.9072 34.6201 53.0527l-0.927734 0.0146484c-0.0566406 0.212891 -4.12793 16.8281 -5.57227 21.3008l-23.6924 40.4854c-2.66992 2.78711 -2.66992 2.78711 -2.93945 3.24902h-0.175781
c-8.33008 8.52539 -25.792 24.4785 -42.8418 28.0137c-3.2627 0.676758 -6.45703 0.981445 -9.53223 0.981445zM577.755 205.655c2.54883 0 8.21387 0 14.6719 -4.44434l-0.0498047 -0.617188c0.373047 -0.152344 0.970703 -0.432617 1.55078 -0.984375
c5.47266 -5.2002 13.8828 -7.6416 21.8682 -7.6416c7.43848 0 14.5078 2.11816 18.4873 6.09863c0.774414 0.774414 2.02539 2.02441 2.99121 4.93555c4.10059 2.79883 10.6152 5.85254 19.5059 5.85254c11.7998 0 17.3154 -5.13867 21.5459 -9.07715
c3.28711 -3.06152 7.61621 -7.10254 16.9258 -13.2637c0.355469 -0.0771484 0.647461 -0.248047 0.881836 -0.512695l0.205078 0.0078125l26.625 -41.9961c0 -0.0712891 -0.00195313 -0.143555 -0.00195313 -0.21582c1.91016 -7.1543 3.65332 -14.4746 5.49219 -21.7002
c0.642578 -2.56836 1.00488 -4.94824 1.00488 -7.25293c0 -11.0566 -8.22656 -20.0146 -31.9219 -39.3779c-21.8359 -17.8418 -37.6484 -23.9629 -85.3008 -23.9629c-25.7979 0 -46.5928 3.16895 -70.8789 20.1689c-29.9375 20.957 -33.9629 36.3896 -33.9629 50.1328
c0 0.90625 0.0175781 1.7998 0.0419922 2.67871c1.49414 5.92871 3.11719 11.7275 4.65918 17.6074l29.1758 41.3076c0.415039 -0.160156 0.828125 -0.319336 1.24121 -0.478516c0.983398 2.31445 2.65723 6.25781 7.19824 10.7988
c7.31738 7.31738 18.1484 11.9365 28.0439 11.9365zM30.3242 741.553h55.5146l17.1611 52.2256l17.1602 -52.2256h55.5156l-44.8672 -32.2959l17.1611 -52.2246l-44.9697 32.2959l-44.9707 -32.2959l17.1611 52.2246zM271 608l-12 60
c128.725 89.7881 355.203 55.3633 442.457 48.5605c0 -0.0107422 0.000976562 -0.0214844 0.000976562 -0.0322266c27.4463 0.582031 75.1855 -1.32129 107.268 -33.4033c40.1396 -40.1396 38.6152 -108.841 37.5254 -169.365
c-0.395508 -21.9258 -0.433594 -33.2402 -0.22168 -41.9463c26.3789 -43.8281 72.168 -89.959 89.3252 -129.607c6.95117 -16.0635 5.49219 -24.7637 2.64551 -40.2051l-12 -14l-79.501 -63.5771v-212.431c1.93945 -31.0869 1.82422 -79.2412 -27.416 -108.48
c-26.0322 -26.0322 -182.507 -12.0195 -220.584 -13.0049l-2.90137 0.0126953c-103.732 -7.2998 -296.108 50.6025 -326.603 92.1719c-18.5059 25.2275 -31.4014 41.2529 -57.9951 55.3086v70.0371c25.8174 -16.2627 49.624 -17.8066 70.1904 -60.6357
c44.2188 -92.082 349.455 -105.734 451.309 -108.438l-0.499023 -0.962891c50 12 34.1514 4.48145 42.5352 13.5361c19.1768 20.7119 3.97852 41.9688 5.50781 57.9648h-0.541992v2.14941c-0.253906 0.990234 -0.500977 1.94141 -0.738281 2.84863h0.738281v207.174v3.4873
v1.33887h1.58203l104 88h1.13281c4.9834 45.8955 -62.8379 92.1289 -94.2158 139.501l-3 4l-1 1c-2.02051 3.99219 0.0439453 4.02539 -2.08398 11.5605c-0.0371094 0.130859 -0.189453 0.24707 -0.174805 0.367188l0.258789 2.07227l0.0644531 1.49902
c0.00976562 0.226562 0.150391 3.89551 0.242188 6.24414c3.11426 79.1523 5.19727 173.389 -83.8154 173.771c-136.35 16.7461 -373.536 9.53418 -431.49 -46.5137z" />
  </g>

</svg>
