<?xml version="1.0" standalone="no"?>
<!DOCTYPE svg PUBLIC "-//W3C//DTD SVG 1.1//EN" "http://www.w3.org/Graphics/SVG/1.1/DTD/svg11.dtd" >
<svg xmlns="http://www.w3.org/2000/svg" xmlns:xlink="http://www.w3.org/1999/xlink" version="1.1" viewBox="-10 0 1051 1000">
  <g transform="matrix(1 0 0 -1 0 800)">
   <path fill="currentColor"
d="M828.399 483.872c0 9.49878 0.360099 25.4826 0.360099 28.905l-0.318652 61.3747l-8.69455 54.78l-24.0577 41.7601l-29.8355 19.1251l-33.9409 8.02542l-47.9505 1.85133v0.765382l-107.704 8.96128l-161.614 -4.8437l-135.511 -48.0118l4.97421 -24.8711
l90.1513 34.2037l168.519 13.9909l163.859 -8.05849l72.0585 -32.0852l24.6852 -76.5829c-11.2968 -92.7231 -11.5388 -94.7093 -10.6225 -98.1968c0.272553 -1.03738 0.408327 -1.98777 0.495372 -2.92219c0.487753 -0.641757 1.13403 -1.58506 1.4862 -2.05622
l30.4464 -40.7334l38.0432 -60.0682l23.93 -33.502l-96.7113 -80.2498l-3.19974 -219.288c0.962733 -7.56244 2.78458 -22.0112 5.01798 -45.877c-0.12894 -0.269919 -9.65147 -20.9678 -12.8349 -27.02c-1.80565 -3.43278 -3.36365 -6.39475 -8.94453 -11.1259
c-28.726 -6.87192 -37.6748 -9.01268 -53.7943 -9.01268c-3.38415 0 -6.77838 0.14333 -10.1737 0.446144l-127.95 -3.2205l-189.706 31.9736l-119.91 72.0259l-21.8729 31.5454c-0.18608 0.126152 -14.9542 10.3475 -18.5829 12.6523v-31.4635
c5.41685 -3.87145 13.5068 -7.36272 24.4398 -17.2503c7.32645 -6.62591 2.09556 -4.45645 10.6241 -11.9264c1.03002 -0.902171 1.03002 -0.902171 17.2005 -21.8062l70.2643 -41.1391l123.979 -35.7692l40.8353 -3.74581
c52.8258 -4.90757 59.0669 -6.73248 83.0467 -7.42728l68.08 -1.97257l89.7606 0.254271l51.1066 12.4914l15.1376 25.2075l6.27671 34.16l-0.268638 82.9487l0.0291888 84.2282l-0.00582149 87.5189l84.7837 67.8016l7.68593 8.96692l1.11464 7.19504
c0.44913 7.61262 -1.52476 12.8022 -3.31214 18.1783l-23.3304 38.8443l-33.0243 43.448l-34.3179 48.9016c-0.202711 16.1296 -0.202711 16.1296 -0.202711 17.6951zM33.2949 712.521h55.5146l17.1611 52.2256l17.1602 -52.2256h55.5156l-44.8672 -32.2959
l17.1611 -52.2246l-44.9697 32.2959l-44.9707 -32.2959l17.1611 52.2246zM701.044 184c0 74.2988 -60.3057 134.602 -134.601 134.602c-74.2969 0 -134.602 -60.3057 -134.602 -134.602c0 -62.6309 43.1719 -115.96 102.077 -130.617
c-8.71289 6.79395 -20.5557 20.4062 -20.5557 44.2178c-0.000976562 58.3281 71.6211 72.9053 104.781 39.7461c20.46 -20.4609 21.1133 -54.9619 2.7998 -76.4443c15.252 6.76953 29.0176 16.293 40.6582 27.9336c24.3662 24.3652 39.4414 58.0186 39.4414 95.1641z
M721.842 184.002c0 -85.793 -69.624 -155.398 -155.398 -155.398c-85.7793 0 -155.399 69.6104 -155.399 155.398c0 85.6885 69.7139 155.398 155.399 155.398c85.7881 0 155.398 -69.6182 155.398 -155.398zM613.415 97.5312l1.68652 0.0292969l0.00585938 0.00683594
l-0.858398 0.827148l-0.837891 -0.859375c0.000976563 0 0.00292969 -0.00390625 0.00390625 -0.00390625zM613.278 99.3281l-0.84668 0.814453l0.799805 0.0107422c-0.564453 8.37109 -3.92188 16.5547 -10.0674 22.6982c-20.5234 20.5244 -69 13.6357 -69 -25.2666
c0.0117188 -38.874 48.4639 -45.7588 68.999 -25.2246c6.10156 6.10156 9.45215 14.2041 10.0557 22.5049c-0.415039 -0.00585938 -0.706055 -0.0078125 -0.720703 -0.00878906l0.769531 0.799805c0.0634766 1.22363 0.0673828 2.44824 0.0107422 3.67188zM600 412
l-98.5996 156.684l14.3994 6.08301l85.4502 -122.551l64.1504 128.468l19.4668 -7.88281zM379.917 433.284l-270 0.899414v17.8164h242.083v101.167h-242.083v17.8164l267.6 -1.5z" />
  </g>

</svg>
