<?xml version="1.0" standalone="no"?>
<!DOCTYPE svg PUBLIC "-//W3C//DTD SVG 1.1//EN" "http://www.w3.org/Graphics/SVG/1.1/DTD/svg11.dtd" >
<svg xmlns="http://www.w3.org/2000/svg" xmlns:xlink="http://www.w3.org/1999/xlink" version="1.1" viewBox="-10 0 1051 1000">
  <g transform="matrix(1 0 0 -1 0 800)">
   <path fill="currentColor"
d="M271 608l-12 60c128.725 89.7881 355.203 55.3633 442.457 48.5605c0 -0.0107422 0.000976562 -0.0214844 0.000976562 -0.0322266c27.4463 0.582031 75.1855 -1.32129 107.268 -33.4033c40.1396 -40.1396 38.6152 -108.841 37.5254 -169.365
c-0.395508 -21.9258 -0.433594 -33.2402 -0.22168 -41.9463c26.3789 -43.8281 72.168 -89.959 89.3252 -129.607c6.95117 -16.0635 5.49219 -24.7637 2.64551 -40.2051l-12 -14l-79.501 -63.5771v-212.431c1.93945 -31.0869 1.82422 -79.2412 -27.416 -108.48
c-26.0322 -26.0322 -182.507 -12.0195 -220.584 -13.0049l-2.90137 0.0126953c-103.732 -7.2998 -296.108 50.6025 -326.603 92.1719c-18.5059 25.2275 -31.4014 41.2529 -57.9951 55.3086v70.0371c25.8174 -16.2627 49.624 -17.8066 70.1904 -60.6357
c44.2188 -92.082 349.455 -105.734 451.309 -108.438l-0.499023 -0.962891c50 12 34.1514 4.48145 42.5352 13.5361c19.1768 20.7119 3.97852 41.9688 5.50781 57.9648h-0.541992v2.14941c-0.253906 0.990234 -0.500977 1.94141 -0.738281 2.84863h0.738281v207.174v3.4873
v1.33887h1.58203l104 88h1.13281c4.9834 45.8955 -62.8379 92.1289 -94.2158 139.501l-3 4l-1 1c-2.02051 3.99219 0.0439453 4.02539 -2.08398 11.5605c-0.0371094 0.130859 -0.189453 0.24707 -0.174805 0.367188l0.258789 2.07227l0.0644531 1.49902
c0.00976562 0.226562 0.150391 3.89551 0.242188 6.24414c3.11426 79.1523 14.1973 176.389 -74.8154 176.771c-136.35 16.7461 -373.536 9.53418 -431.49 -46.5137zM30.3545 728.521h55.5146l17.1611 52.2256l17.1602 -52.2256h55.5156l-44.8672 -32.2959l17.1611 -52.2246
l-44.9697 32.2959l-44.9707 -32.2959l17.1611 52.2246zM564.989 262.7c-13.5645 0 -23.3975 -0.8125 -34.0771 -2.08301c-4.74219 6.94238 -7.88574 10.5742 -13.498 15.9873c-10.0879 9.73242 -38.3545 17.2109 -65.4385 17.2109
c-18.2969 0 -37.6436 -3.17773 -54.6299 -11.2148c-4.00781 -1.89746 -11.6953 -5.53516 -21.6816 -19.5381c-13.4404 1.3418 -22.1777 1.6377 -31.1123 1.6377c-18.125 0 -37.3506 -1.69043 -54.2568 -5.94629c-6.6543 -1.67578 -17.0469 -5.52734 -24.7344 -13.2158
c-3.24609 -3.24512 -4.36523 -6.45996 -4.36523 -9.78809c0 -7.65527 6.68945 -15.707 8.41211 -17.4297c3.52734 -3.52734 9.08203 -6.25781 13.0488 -8.1377c13.0986 -6.20996 38.0527 -9.10449 62.127 -9.10449c14.4023 0 25.7764 0.849609 37.3594 2.3291
c3.40527 -3.64258 4.62988 -4.80957 7.42969 -7.30469c18.3818 -16.3799 56.5078 -17.0205 63.918 -17.0205c21.1836 0 41.5762 3.89258 52.7461 10.4707c6.80957 4.00977 11.3633 7.94043 16.3613 12.7598c14.7334 -2.41211 28.1035 -3.2627 42.748 -3.2627
c21.0156 0 41.4023 2.15332 52.4883 5.62793c26.8232 8.4043 34.5469 21.3721 34.625 26.248c0 0.0195312 0.000976563 0.0400391 0.000976563 0.0615234c-0.000976563 2.89941 -4.76758 8.99121 -7.58105 11.8047c-3.83105 3.83008 -8.70898 7.05566 -15.9434 10.7705
c-9.11133 4.67578 -35.1719 9.1377 -63.9463 9.1377zM628.87 231.274c0 -9.83691 -33.3594 -19.1689 -69.3701 -19.1689c-7.10156 0 -11.7061 0 -27.0879 2.03711c5.21484 10.0254 6.65332 13.1885 7.85547 21.3955c0.950195 1.34375 0.640625 1.1416 0.647461 1.15332
c-0.00878906 0.128906 -0.078125 0.273438 -0.078125 0.273438c-0.0195312 -1.13086 -2.76074 8.38672 -3.30664 9.99902c12.8271 1.22949 20.5039 1.72754 32.4111 1.72754c19.041 0 36.4746 -1.50781 44.793 -5.66797c11.209 -5.60449 13.6973 -8.15918 14.1357 -11.4961
v-0.25293zM372.681 220.694v-3.9873c-15.4678 -2.20605 -23.9023 -2.50977 -32.54 -2.50977c-16.7227 0 -32.7959 1.9502 -43.6475 6.875c-11.9717 5.43457 -14.7139 9.27148 -14.7139 12.6621c0 6.23926 5.45996 8.3623 11.5039 10.3184
c19.207 6.2168 48.375 6.77734 57.9883 6.77734c4.9707 0 7.64258 -0.015625 18.168 -0.591797c-0.757812 -5.99414 -0.822266 -6.49316 -0.822266 -9.02051c0 -6.56641 1.44727 -13.0459 4.06348 -20.5234zM501.428 231.688c0 3.86328 3.55176 5.29004 15.7441 9.39746
c2.70508 0.90918 5.03906 1.78223 5.03906 1.78223l-0.660156 -0.511719l-1.70996 -5.32324l-2.04883 -2.55957c-0.598633 -0.0341797 2.04883 2.55957 0 0c-2.04785 -5.12012 -3.52832 -7.56152 -6.98535 -13.0186c-6.30469 4.19824 -9.37891 6.24316 -9.37891 10.2334z
M481.355 233.702c0 -5.8623 10.1865 -18.7305 15.4453 -23.2939l10.5928 4.60742l-16.543 -7.34766c-12.6348 -5.61328 -28.1416 -8.66016 -43.083 -8.66016c-20.4062 0 -29.4834 4.52734 -41.2188 10.3818c10.7637 5.53906 15.0674 7.75391 20.0811 12.7666
c5.91895 5.91895 6.18457 10.0742 6.18457 10.7734c0 0.0703125 -0.00292969 0.105469 -0.00292969 0.105469c0 2.33105 -3.95312 8.20898 -7.5166 11.7715c-6.41895 6.41797 -17.4307 11.4756 -17.4307 11.4756l-8.00195 3.49121l7.98145 3.53906
c13.3516 5.91797 32.373 9.08594 50.25 9.08594c19.5303 0 36.3887 -3.65918 43.9072 -10.7236c0.679688 -0.639648 0.679688 -0.639648 5.55371 -5.33496c-9.48438 -3.76172 -26.1992 -10.5957 -26.1992 -22.6377zM409.222 233.322
c0 -5.69922 -11.5908 -10.0498 -11.7363 -10.1035c-0.175781 -0.0634766 -0.0126953 -0.0107422 -1.33691 -0.237305l-3.28418 -0.796875l-0.555664 3.63574c-1.97559 3.69922 -3.02148 7.63965 -3.02148 11.9424c0 2.10156 0 2.10254 1.05762 9.68164
c15.3711 -7.69141 18.2461 -9.49707 18.877 -14.1221zM379.802 509.37l51.6748 -42.7988l-47.7188 -43.9502l-4.4707 4.53027l41.2373 36.248l-144.15 -4.25098l0.262695 8.80469l143.801 1.04688l-44.5635 35.708zM473.068 426.891
c12.1328 -44.5508 44.7441 -80.2051 104.049 -110.167l-3.73535 -9.05176c-58.0088 29.3916 -93.3203 64.6191 -107.771 107.675c-13.6084 -38.2246 -51.9648 -86.0488 -85.6172 -106.75l-6.06738 9.15234c66.5312 42.6992 98.501 106.636 95.7061 195.736
l9.67969 -0.212891c0.131836 -0.00195313 0.241211 -8.3584 0.241211 -11.5479c0 -21.6963 -6.48438 -74.834 -6.48438 -74.834z" />
  </g>

</svg>
