<?xml version="1.0" standalone="no"?>
<!DOCTYPE svg PUBLIC "-//W3C//DTD SVG 1.1//EN" "http://www.w3.org/Graphics/SVG/1.1/DTD/svg11.dtd" >
<svg xmlns="http://www.w3.org/2000/svg" xmlns:xlink="http://www.w3.org/1999/xlink" version="1.1" viewBox="-10 0 1051 1000">
  <g transform="matrix(1 0 0 -1 0 800)">
   <path fill="currentColor"
d="M271 608l-12 60c128.725 89.7881 355.203 55.3633 442.457 48.5605c0 -0.0107422 0.000976562 -0.0214844 0.000976562 -0.0322266c27.4463 0.582031 75.1855 -1.32129 107.268 -33.4033c40.1396 -40.1396 38.6152 -108.841 37.5254 -169.365
c-0.395508 -21.9258 -0.433594 -33.2402 -0.22168 -41.9463c26.3789 -43.8281 72.168 -89.959 89.3252 -129.607c6.95117 -16.0635 5.49219 -24.7637 2.64551 -40.2051l-12 -14l-79.501 -63.5771v-212.431c1.93945 -31.0869 1.82422 -79.2412 -27.416 -108.48
c-26.0322 -26.0322 -182.507 -12.0195 -220.584 -13.0049l-2.90137 0.0126953c-103.732 -7.2998 -296.108 50.6025 -326.603 92.1719c-18.5059 25.2275 -31.4014 41.2529 -57.9951 55.3086v70.0371c25.8174 -16.2627 49.624 -17.8066 70.1904 -60.6357
c44.2188 -92.082 349.455 -105.734 451.309 -108.438l-0.499023 -0.962891c50 12 34.1514 4.48145 42.5352 13.5361c19.1768 20.7119 3.97852 41.9688 5.50781 57.9648h-0.541992v2.14941c-0.253906 0.990234 -0.500977 1.94141 -0.738281 2.84863h0.738281v207.174v3.4873
v1.33887h1.58203l104 88h1.13281c4.9834 45.8955 -62.8379 92.1289 -94.2158 139.501l-3 4l-1 1c-2.02051 3.99219 0.0439453 4.02539 -2.08398 11.5605c-0.0371094 0.130859 -0.189453 0.24707 -0.174805 0.367188l0.258789 2.07227l0.0644531 1.49902
c0.00976562 0.226562 0.150391 3.89551 0.242188 6.24414c3.11426 79.1523 14.1973 176.389 -74.8154 176.771c-136.35 16.7461 -373.536 9.53418 -431.49 -46.5137zM30.3545 728.521h55.5146l17.1611 52.2256l17.1602 -52.2256h55.5156l-44.8672 -32.2959l17.1611 -52.2246
l-44.9697 32.2959l-44.9707 -32.2959l17.1611 52.2246zM483.613 273.254c0 -0.948242 0.166016 -6.31934 0.166016 -6.38281c0 -9.62598 -2.6582 -29.249 -2.6582 -37.4727c0 -2.17871 0.197266 -3.79492 0.294922 -4.36621l0.589844 -0.31543l0.111328 -1.2041
c2.88281 -30.9883 31.9883 -60.7305 34.6191 -62.3975l-2.55469 -0.398438l-0.648438 -1.48926l3.49512 -1.9502c-2.38184 -1.58789 -4.76367 -3.17578 -7.14648 -4.76465c-2.04199 2.22754 -2.04199 2.22754 -3.53516 3.84473
c-10.9316 11.835 -23.0195 25.0166 -32.7227 54.1826c-4.02344 -14.2852 -12.4805 -28.6875 -20.2246 -38.5234c-6.77051 -8.59766 -6.0957 -10.6523 -14.1826 -19.6367l-9.73438 7.70605c5.93457 7.69238 17.0127 22.9004 17.1875 23.1299
c22.3066 29.3018 24.4316 67.6143 24.4316 90.1738c0 1.6582 -0.00585938 2.29883 -0.0361328 5.82422c3.01074 -0.0664062 6.02148 -0.132812 9.0332 -0.199219c2.01074 -0.0429688 3.53711 -1.6748 3.53711 -3.56543
c0 -0.00488281 -0.000976563 3.8457 -0.000976563 -0.520508c0 -0.0166016 -0.0214844 -0.422852 -0.0214844 -1.6748zM557.425 263.991l-11.0088 -15.6963c-2.52539 4.54004 -2.52539 4.54004 -9.69336 16.0244l-39.7764 -46.2158l-6.11328 4.87109l46.6572 52.6455z
M606 151zM413.559 280.467zM377.62 214.307zM517.646 127.804zM517.394 119.77zM410.405 149.644zM472.084 130.239zM640.326 229.265zM377.62 214.307zM640.326 229.265zM555.111 314.206c-13.5654 0 -25.0498 -5.27539 -30.875 -11.1006
c-2.2168 -2.2168 -1.65137 -2.33301 -2.56738 -2.66699c-4.11816 -1.50098 -8.15332 -2.04395 -11.8379 -2.04395c-3.47656 0 -9.79395 0.512695 -16.6348 3.58594c-4.64844 5.6582 -12.5098 10.8076 -25.7275 10.8076c-19.8428 0 -42.4707 -12.2822 -50.3398 -30.6846
l-0.388672 -0.90918h-1.36914l-35.8525 -48.7129h-1.71387v-2.3291l-0.697266 -0.946289h0.375l-3.97168 -14.8906l-0.446289 0.0078125c-0.0810547 -1.52539 -0.223633 -2.40137 -0.705078 -4.29688h0.578125c-0.0136719 -1.68262 -0.0136719 -1.68262 -0.0136719 -1.85449
c0 -10.8848 4.69629 -32.916 36.0049 -58.8096c33.0674 -27.3486 70.4619 -30.3643 101.463 -30.3643c50.8105 0 71.5254 6.36719 101.931 30.3936c37.1426 29.3496 37.7686 37.9912 38.792 59.4424l-1.04004 0.0166016
c-0.0644531 0.238281 -4.62598 18.8545 -6.24316 23.8662l-26.5469 45.3633c-2.99219 3.12109 -2.99219 3.12109 -3.29297 3.63867h-0.197266c-9.33398 9.55273 -28.8994 27.4277 -48.002 31.3887c-3.65527 0.758789 -7.23535 1.09863 -10.6807 1.09863zM466.95 301.087
c2.85645 0 9.20312 0 16.4404 -4.98047l-0.0566406 -0.689453c0.417969 -0.171875 1.08789 -0.486328 1.7373 -1.10449c6.13281 -5.82617 15.5566 -8.5625 24.5039 -8.5625c8.33398 0 16.2539 2.37402 20.7139 6.83398c0.867188 0.867188 2.26855 2.26855 3.35059 5.53027
c4.5957 3.13574 11.8936 6.55664 21.8564 6.55664c13.2197 0 19.4014 -5.75684 24.1396 -10.1709c3.68359 -3.42969 8.5332 -7.95801 18.9648 -14.8604c0.398438 -0.0859375 0.726562 -0.27832 0.988281 -0.575195l0.228516 0.00878906l29.834 -47.0547
c0 -0.0800781 -0.00195313 -0.160156 -0.00195313 -0.241211c2.13965 -8.0166 4.09277 -16.2188 6.15234 -24.3145c0.720703 -2.87695 1.125 -5.54297 1.125 -8.12598c0 -12.3877 -9.21582 -22.4248 -35.7666 -44.1211
c-24.4648 -19.9912 -42.1816 -26.8486 -95.5752 -26.8486c-28.9043 0 -52.2041 3.55078 -79.415 22.5986c-33.543 23.4795 -38.0537 40.7715 -38.0537 56.1709c0 1.01562 0.0185547 2.01562 0.0478516 3.00098c1.67383 6.64258 3.49121 13.1406 5.21973 19.7285
l32.6914 46.2812c0.462891 -0.177734 0.925781 -0.356445 1.38965 -0.53418c1.10059 2.59277 2.97559 7.01074 8.06445 12.0986c8.19922 8.19922 20.334 13.375 31.4209 13.375zM523.131 113.076zM583.752 573.963l-63.2725 -61.998l-63.1826 60.9756l-12.8984 -12.3369
l62.3613 -63.6123l-66.9727 -57.6484l14.2109 -15.5391l68.3057 59.0713l61.2939 -57.8721l14.4023 11.9971l-61.5029 57.9482l62.7012 65.6553z" />
  </g>

</svg>
