<?xml version="1.0" standalone="no"?>
<!DOCTYPE svg PUBLIC "-//W3C//DTD SVG 1.1//EN" "http://www.w3.org/Graphics/SVG/1.1/DTD/svg11.dtd" >
<svg xmlns="http://www.w3.org/2000/svg" xmlns:xlink="http://www.w3.org/1999/xlink" version="1.1" viewBox="-10 0 796 1000">
  <g transform="matrix(1 0 0 -1 0 800)">
   <path fill="currentColor"
d="M551.931 209.201c-43.9766 -0.358398 -47.9049 -15.9477 -145.969 2.75586c-69.3271 13.2227 -104.466 16.8242 -153.651 15.748c-79.5664 -1.74219 -128.677 5.86328 -158.198 24.502c-19.04 12.0186 -32.293 16.5606 -30.7471 36.7842
c2.33115 30.4959 11.469 21.4605 23.9619 64.2354c5.20132 17.8089 8.55078 46.7695 8.2627 64.1289c-1.19727 72.2383 12.3428 110.279 40.2295 113.021c7.35547 0.726562 30.3311 -7.17969 51.0566 -17.5625c46.5049 -23.3008 51.7158 -24.4346 82.2021 -17.8486
l24.4902 5.28906l14.916 33.7188c16.6006 37.5254 31.2402 56.7939 47.7061 62.7871c13.7939 5.02051 28.0898 -7.51367 71.668 -62.8467c17.7783 -22.5723 42.7578 -52.2021 55.5088 -65.8457c44.8193 -47.9561 66.9152 -61.8233 97.7803 -63.9482
c6.96484 -0.479492 18.7891 1.35938 26.2773 4.08496c20.3008 7.38867 64.2617 -2.39648 83.7676 -18.6465c40.1211 -33.4248 35.9619 -92.0498 -9.19238 -129.559c-29.8916 -24.833 -95.6592 -50.5186 -130.069 -50.7988zM587.609 248.524
c-75.0889 -3.98145 -89.1616 -14.2104 -243.217 33.5967c-66.0127 20.4854 -89.9756 25.249 -133.066 26.4473c-58.1582 1.61816 -78.7031 3.91309 -106.729 14.2891c-19.5879 7.25195 -18.5967 -10.8574 -15.4414 -24.6338
c8.46399 -36.955 51.4189 -46.0977 161.539 -44.6514c49.1641 0.644531 89.4267 -3.49914 160.077 -16.4746c145.338 -26.6924 145.99 -7.69922 183.601 5.92969l18.9277 6.8623l-25.6914 -1.36328zM681.925 319.629c10.3182 26.3576 14.3232 38.9258 -9.16992 53.2197
c-19.5508 11.8955 -44.2566 15.2346 -62.793 8.48828c-28.0049 -10.1924 -67.6123 3.91602 -67.6123 3.91602l-17.7852 11.627l-14.5645 -22.8799c-13.1514 -20.6592 -15.4648 -22.3721 -23.8438 -17.6484c-10.1826 5.74023 -10.0439 6.42676 8.64648 42.8291
l8.14941 15.8711l-16.0391 14.4941l-16.041 14.4951l-8.56055 -14.6719c-4.70801 -8.07129 -12.1074 -15.1299 -16.4424 -15.6865c-12.6777 -1.63184 -16.4121 11.8428 -7.06348 25.499c17.5107 25.5781 17.3906 23.543 2.43848 41.6504
c-7.62207 9.22852 -14.7861 17.3418 -15.918 18.0273c-1.13379 0.68457 -6.1416 -5.74805 -11.1289 -14.2979c-9.5459 -16.3564 -21.5391 -19.6016 -26.1035 -7.06055c-1.49023 4.09473 2.65625 15.9287 9.21289 26.2959l11.9209 18.8486l-20.1533 23.3906
c-11.084 12.8652 -20.457 24.2197 -20.8252 25.2324c-4.42676 12.1631 -35.8975 -35.2061 -49.0801 -73.876c-4.36914 -12.8174 -9.54688 -17.6309 -25.0332 -23.2676c-33.7451 -12.2822 -64.1494 -9.44531 -102.9 9.5957
c-64.9902 31.9355 -68.2079 29.5447 -71.5254 -53.0518c-1.28613 -32.0215 -4.6416 -53.0566 -7.21973 -64.0146c-4 -17 0 -16 1.50977 -16.6543c22.2559 -9.64551 33.4455 -10.9483 92.2598 -15.3936c64.8736 -4.90317 54.8949 0.349639 161.999 -33.5
c102.293 -32.3291 154.795 -24.2306 205.471 -27.5293c45.3403 -2.95135 84.3984 -14.7372 108.195 46.0518z" />
  </g>

</svg>
