<?xml version="1.0" standalone="no"?>
<!DOCTYPE svg PUBLIC "-//W3C//DTD SVG 1.1//EN" "http://www.w3.org/Graphics/SVG/1.1/DTD/svg11.dtd" >
<svg xmlns="http://www.w3.org/2000/svg" xmlns:xlink="http://www.w3.org/1999/xlink" version="1.1" viewBox="-10 0 1015 1000">
  <g transform="matrix(1 0 0 -1 0 800)">
   <path fill="currentColor"
d="M659.613 623.384c0 -0.803917 -0.0914109 -3.78544 -0.0914109 -9.02314c0 -5.42859 0.858596 -32.7978 0.858596 -33.1292c0 -19.8077 -2.03057 -46.5229 -4.54318 -74.7048h263.302v-42.527h-267.228c-2.97587 -32.1887 -5.50653 -62.7258 -5.50653 -83.2907
c0 -28.8106 4.84 -23.1948 5.02497 -25.1805c15.9551 -171.279 172.961 -328.438 187.83 -338.619c-0.679335 -2.1905 -0.774419 -4.96525 -1.83229 -6.7772l-33.5545 -22.3704c-81.0149 88.0197 -140.362 152.499 -191.859 317.431
c-18.2253 -79.7478 -66.273 -163.427 -109.932 -218.874c-32.6041 -41.4052 -36.4734 -60.8746 -70.7229 -98.9286l-42.7037 33.807c25.6548 33.2554 86.0191 115.957 86.9024 117.117c76.9256 101.048 108.415 221.858 121.091 325.685h-265.198v42.527h208.621
c-3.93192 5.22072 -6.27202 11.6942 -6.27202 18.6721c0 17.1175 14.0819 31.199 31.199 31.199c17.1175 0 31.198 -14.0819 31.198 -31.199c0 -6.97807 -2.33997 -13.4515 -6.27164 -18.6721h11.0168c3.31189 41.0667 3.99581 78.2655 3.99581 108.922
c0 8.33455 -0.0505507 16.1856 -0.112588 23.4993l-0.00874377 1.03083c13.8971 -0.3064 27.7943 -0.612799 41.6914 -0.919199c5.3038 -0.114435 13.1042 -3.17139 13.1042 -15.6759z" />
  </g>

</svg>
