<?xml version="1.0" standalone="no"?>
<!DOCTYPE svg PUBLIC "-//W3C//DTD SVG 1.1//EN" "http://www.w3.org/Graphics/SVG/1.1/DTD/svg11.dtd" >
<svg xmlns="http://www.w3.org/2000/svg" xmlns:xlink="http://www.w3.org/1999/xlink" version="1.1" viewBox="-10 0 1051 1000">
  <g transform="matrix(1 0 0 -1 0 800)">
   <path fill="currentColor"
d="M828.399 483.872c0 9.49878 0.360099 25.4826 0.360099 28.905l-0.318652 61.3747l-8.69455 54.78l-24.0577 41.7601l-29.8355 19.1251l-33.9409 8.02542l-47.9505 1.85133v0.765382l-107.704 8.96128l-161.614 -4.8437l-135.511 -48.0118l4.97421 -24.8711
l90.1513 34.2037l168.519 13.9909l163.859 -8.05849l72.0585 -32.0852l24.6852 -76.5829c-11.2968 -92.7231 -11.5388 -94.7093 -10.6225 -98.1968c0.272553 -1.03738 0.408327 -1.98777 0.495372 -2.92219c0.487753 -0.641757 1.13403 -1.58506 1.4862 -2.05622
l30.4464 -40.7334l38.0432 -60.0682l23.93 -33.502l-96.7113 -80.2498l-3.19974 -219.288c0.962733 -7.56244 2.78458 -22.0112 5.01798 -45.877c-0.12894 -0.269919 -9.65147 -20.9678 -12.8349 -27.02c-1.80565 -3.43278 -3.36365 -6.39475 -8.94453 -11.1259
c-28.726 -6.87192 -37.6748 -9.01268 -53.7943 -9.01268c-3.38415 0 -6.77838 0.14333 -10.1737 0.446144l-127.95 -3.2205l-189.706 31.9736l-119.91 72.0259l-21.8729 31.5454c-0.18608 0.126152 -14.9542 10.3475 -18.5829 12.6523v-31.4635
c5.41685 -3.87145 13.5068 -7.36272 24.4398 -17.2503c7.32645 -6.62591 2.09556 -4.45645 10.6241 -11.9264c1.03002 -0.902171 1.03002 -0.902171 17.2005 -21.8062l70.2643 -41.1391l123.979 -35.7692l40.8353 -3.74581
c52.8258 -4.90757 59.0669 -6.73248 83.0467 -7.42728l68.08 -1.97257l89.7606 0.254271l51.1066 12.4914l15.1376 25.2075l6.27671 34.16l-0.268638 82.9487l0.0291888 84.2282l-0.00582149 87.5189l84.7837 67.8016l7.68593 8.96692l1.11464 7.19504
c0.44913 7.61262 -1.52476 12.8022 -3.31214 18.1783l-23.3304 38.8443l-33.0243 43.448l-34.3179 48.9016c-0.202711 16.1296 -0.202711 16.1296 -0.202711 17.6951zM33.2949 712.521h55.5146l17.1611 52.2256l17.1602 -52.2256h55.5156l-44.8672 -32.2959
l17.1611 -52.2246l-44.9697 32.2959l-44.9707 -32.2959l17.1611 52.2246zM627.394 193.663c-13.2461 0 -22.8486 -0.792969 -33.2783 -2.03418c-4.63086 6.78027 -7.70117 10.3262 -13.1816 15.6133c-9.85156 9.50391 -37.4561 16.8066 -63.9053 16.8066
c-17.8672 0 -36.7607 -3.10254 -53.3496 -10.9512c-3.91309 -1.85254 -11.4209 -5.40625 -21.1738 -19.0811c-13.125 1.31055 -21.6572 1.59961 -30.3818 1.59961c-17.7002 0 -36.4756 -1.65039 -52.9863 -5.80762c-6.49805 -1.63574 -16.6455 -5.39746 -24.1543 -12.9053
c-3.16895 -3.16895 -4.2627 -6.30859 -4.2627 -9.55859c0 -7.47559 6.5332 -15.3398 8.21484 -17.0215c3.44434 -3.44434 8.86914 -6.11035 12.7432 -7.94727c12.792 -6.06445 37.1602 -8.88965 60.6699 -8.88965c14.0654 0 25.1729 0.828125 36.4844 2.27344
c3.3252 -3.55762 4.52148 -4.69727 7.25586 -7.13379c17.9502 -15.9961 55.1836 -16.6211 62.4199 -16.6211c20.6875 0 40.6016 3.80078 51.5107 10.2256c6.64941 3.91602 11.0967 7.75391 15.9766 12.4609c14.3887 -2.35645 27.4453 -3.1875 41.7461 -3.1875
c20.5234 0 40.4326 2.10352 51.2588 5.49609c26.1934 8.20801 33.7373 20.8711 33.8135 25.6328c0 0.0205078 0.000976563 0.0400391 0.000976563 0.0605469c-0.000976563 2.83203 -4.65625 8.78027 -7.4043 11.5283c-3.74121 3.74023 -8.50391 6.89062 -15.5693 10.5176
c-8.89746 4.56738 -34.3477 8.92383 -62.4473 8.92383zM689.777 162.974c0 -9.60645 -32.5781 -18.7197 -67.7441 -18.7197c-6.93555 0 -11.4326 0 -26.4531 1.99023c5.0918 9.79004 6.49707 12.8789 7.6709 20.8926c0.928711 1.31348 0.625 1.11621 0.632812 1.12695
c-0.00878906 0.125977 -0.0761719 0.267578 -0.0761719 0.267578c-0.0195312 -1.10449 -2.69629 8.18945 -3.22949 9.76465c12.5254 1.2002 20.0234 1.6875 31.6514 1.6875c18.5938 0 35.6201 -1.47363 43.7432 -5.53516c10.9463 -5.47363 13.376 -7.96875 13.8047 -11.2275
v-0.24707zM439.592 152.642v-3.89355c-15.1055 -2.1543 -23.3418 -2.45117 -31.7773 -2.45117c-16.3301 0 -32.0273 1.90527 -42.624 6.71484c-11.6914 5.30566 -14.3682 9.05371 -14.3682 12.3652c0 6.09277 5.33105 8.16504 11.2334 10.0762
c18.7568 6.07129 47.2402 6.61816 56.6289 6.61816c4.85352 0 7.46387 -0.0146484 17.7432 -0.579102c-0.741211 -5.85254 -0.803711 -6.33984 -0.803711 -8.80859c0 -6.41211 1.41406 -12.7393 3.96777 -20.042zM565.322 163.377c0 3.77246 3.46777 5.16699 15.375 9.17676
c2.64062 0.889648 4.9209 1.74219 4.9209 1.74219l-0.645508 -0.500977l-1.66992 -5.19824l-2 -2.5c-0.584961 -0.0322266 2 2.5 0 0c-2 -5 -3.44629 -7.38379 -6.82129 -12.7119c-6.1582 4.09863 -9.15918 6.09668 -9.15918 9.99219zM545.72 165.345
c0 -5.72461 9.94824 -18.292 15.083 -22.748l10.3447 4.5l-16.1553 -7.17578c-12.3389 -5.48145 -27.4814 -8.45801 -42.0732 -8.45801c-19.9277 0 -28.792 4.42188 -40.252 10.1387c10.5107 5.40918 14.7139 7.57227 19.6104 12.4688
c5.7793 5.7793 6.03906 9.83691 6.03906 10.5205c0 0.0673828 -0.00195312 0.102539 -0.00195312 0.102539c0 2.27637 -3.86133 8.01758 -7.3418 11.4951c-6.26855 6.26855 -17.0215 11.207 -17.0215 11.207l-7.81445 3.40918l7.79395 3.45605
c13.0391 5.78027 31.6152 8.87402 49.0723 8.87402c19.0732 0 35.5361 -3.57422 42.8779 -10.4727c0.664062 -0.625 0.664062 -0.625 5.42383 -5.21094c-9.26172 -3.67285 -25.585 -10.3457 -25.585 -22.1064zM475.277 164.974
c0 -5.56543 -11.3203 -9.81445 -11.4619 -9.86621c-0.171875 -0.0625 -0.0126953 -0.0107422 -1.30566 -0.232422l-3.20703 -0.77832l-0.541992 3.55078c-1.92969 3.61328 -2.95117 7.46094 -2.95117 11.6631c0 2.05176 0 2.05273 1.03223 9.45508
c15.0107 -7.51172 17.8184 -9.27539 18.4355 -13.792zM525.386 435.854l-0.525391 7.47559l22.8174 0.199219l-0.291992 -8.1748c-6.39941 0.378906 -12.9805 0.716797 -22 0.5zM621 547h-106.718v-196.375h106.718v196.375zM498.821 565.663h137.64v-233.701h-137.64
v233.701z" />
  </g>

</svg>
