<?xml version="1.0" standalone="no"?>
<!DOCTYPE svg PUBLIC "-//W3C//DTD SVG 1.1//EN" "http://www.w3.org/Graphics/SVG/1.1/DTD/svg11.dtd" >
<svg xmlns="http://www.w3.org/2000/svg" xmlns:xlink="http://www.w3.org/1999/xlink" version="1.1" viewBox="-10 0 1051 1000">
  <g transform="matrix(1 0 0 -1 0 800)">
   <path fill="currentColor"
d="M271 608l-12 60c128.725 89.7881 355.203 55.3633 442.457 48.5605c0 -0.0107422 0.000976562 -0.0214844 0.000976562 -0.0322266c27.4463 0.582031 75.1855 -1.32129 107.268 -33.4033c40.1396 -40.1396 38.6152 -108.841 37.5254 -169.365
c-0.395508 -21.9258 -0.433594 -33.2402 -0.22168 -41.9463c26.3789 -43.8281 72.168 -89.959 89.3252 -129.607c6.95117 -16.0635 5.49219 -24.7637 2.64551 -40.2051l-12 -14l-79.501 -63.5771v-212.431c1.93945 -31.0869 1.82422 -79.2412 -27.416 -108.48
c-26.0322 -26.0322 -182.507 -12.0195 -220.584 -13.0049l-2.90137 0.0126953c-103.732 -7.2998 -296.108 50.6025 -326.603 92.1719c-18.5059 25.2275 -31.4014 41.2529 -57.9951 55.3086v70.0371c25.8174 -16.2627 49.624 -17.8066 70.1904 -60.6357
c44.2188 -92.082 349.455 -105.734 451.309 -108.438l-0.499023 -0.962891c50 12 34.1514 4.48145 42.5352 13.5361c19.1768 20.7119 3.97852 41.9688 5.50781 57.9648h-0.541992v2.14941c-0.253906 0.990234 -0.500977 1.94141 -0.738281 2.84863h0.738281v207.174v3.4873
v1.33887h1.58203l104 88h1.13281c4.9834 45.8955 -62.8379 92.1289 -94.2158 139.501l-3 4l-1 1c-2.02051 3.99219 0.0439453 4.02539 -2.08398 11.5605c-0.0371094 0.130859 -0.189453 0.24707 -0.174805 0.367188l0.258789 2.07227l0.0644531 1.49902
c0.00976562 0.226562 0.150391 3.89551 0.242188 6.24414c3.11426 79.1523 14.1973 176.389 -74.8154 176.771c-136.35 16.7461 -373.536 9.53418 -431.49 -46.5137zM30.3545 728.521h55.5146l17.1611 52.2256l17.1602 -52.2256h55.5156l-44.8672 -32.2959l17.1611 -52.2246
l-44.9697 32.2959l-44.9707 -32.2959l17.1611 52.2246zM664 459c0 62 -50 112 -112 112s-112 -50 -112 -112c0 -52 36 -97 85 -109c-7 6 -17 17 -17 37c0 49 59 61 87 33c17 -17 17 -46 2 -64c13 6 24 13 34 23c20 20 33 49 33 80zM681 459c0 -71 -58 -130 -129 -130
s-129 59 -129 130s58 129 129 129s129 -58 129 -129zM591 387h2v0h-1h-1v0zM591 388l-1 1h1c0 7 -3 14 -8 19c-17 17 -58 11 -58 -21s41 -38 58 -21c5 5 7 11 8 18h-1l1 1v3zM556 262c0 -11 -1 -9 -1 -22c0 -26 4 -65 4 -74c0 -3 -1 -17 -12 -28c-5 -5 -11 -9 -16 -12
c-11 -7 -18 -11 -18 -21c0 -18 18 -35 30 -46c8 -7 10 -9 13 -14c6 7 6 7 7 8c-12 12 -33 34 -37 45v3c4 10 5 12 11 15c10 5 15 13 26 26c18 -31 21 -37 35 -58c1 -2 3 -3 7 -3c9 0 25 9 36 15c2 1 3 2 5 3v0l7 4v0c-3 6 -3 7 -4 10l-8 -4c-12 -7 -23 -14 -32 -14
c-4 0 -9 1 -12 7c-26 49 -31 90 -31 125c0 12 1 19 2 41h-4h-7v0c-1 0 -1 0 -1 -2v-4zM652 98v0v0z" />
  </g>

</svg>
