<?xml version="1.0" standalone="no"?>
<!DOCTYPE svg PUBLIC "-//W3C//DTD SVG 1.1//EN" "http://www.w3.org/Graphics/SVG/1.1/DTD/svg11.dtd" >
<svg xmlns="http://www.w3.org/2000/svg" xmlns:xlink="http://www.w3.org/1999/xlink" version="1.1" viewBox="-10 0 1014 1000">
  <g transform="matrix(1 0 0 -1 0 800)">
   <path fill="currentColor"
d="M30.3242 741.553h55.5146l17.1611 52.2256l17.1602 -52.2256h55.5156l-44.8672 -32.2959l17.1611 -52.2246l-44.9697 32.2959l-44.9707 -32.2959l17.1611 52.2246zM271 608l-12 60c128.725 89.7881 355.203 55.3633 442.457 48.5605
c0 -0.0107422 0.000976562 -0.0214844 0.000976562 -0.0322266c27.4463 0.582031 75.1855 -1.32129 107.268 -33.4033c40.1396 -40.1396 38.6152 -108.841 37.5254 -169.365c-0.395508 -21.9258 -0.433594 -33.2402 -0.22168 -41.9463
c26.3789 -43.8281 72.168 -89.959 89.3252 -129.607c6.95117 -16.0635 5.49219 -24.7637 2.64551 -40.2051l-12 -14l-79.501 -63.5771v-212.431c1.93945 -31.0869 1.82422 -79.2412 -27.416 -108.48c-26.0322 -26.0322 -182.507 -12.0195 -220.584 -13.0049
l-2.90137 0.0126953c-103.732 -7.2998 -296.108 50.6025 -326.603 92.1719c-18.5059 25.2275 -31.4014 41.2529 -57.9951 55.3086v70.0371c25.8174 -16.2627 49.624 -17.8066 70.1904 -60.6357c44.2188 -92.082 349.455 -105.734 451.309 -108.438l-0.499023 -0.962891
c50 12 34.1514 4.48145 42.5352 13.5361c19.1768 20.7119 3.97852 41.9688 5.50781 57.9648h-0.541992v2.14941c-0.253906 0.990234 -0.500977 1.94141 -0.738281 2.84863h0.738281v207.174v3.4873v1.33887h1.58203l104 88h1.13281
c4.9834 45.8955 -62.8379 92.1289 -94.2158 139.501l-3 4l-1 1c-2.02051 3.99219 0.0439453 4.02539 -2.08398 11.5605c-0.0371094 0.130859 -0.189453 0.24707 -0.174805 0.367188l0.258789 2.07227l0.0644531 1.49902
c0.00976562 0.226562 0.150391 3.89551 0.242188 6.24414c3.11426 79.1523 5.19727 173.389 -83.8154 173.771c-136.35 16.7461 -373.536 9.53418 -431.49 -46.5137zM631.861 170.08c0 72.2344 -58.6309 130.862 -130.861 130.862
c-72.2334 0 -130.862 -58.6309 -130.862 -130.862c0 -60.8906 41.9717 -112.739 99.2412 -126.989c-8.4707 6.60547 -19.9844 19.8398 -19.9844 42.9902c-0.000976562 56.708 69.6318 70.8799 101.87 38.6416c19.8916 -19.8916 20.5273 -53.4355 2.72168 -74.3203
c14.8281 6.58105 28.2129 15.8398 39.5293 27.1572c23.6895 23.6885 38.3457 56.4062 38.3457 92.5205zM652.082 170.082c0 -83.4092 -67.6904 -151.082 -151.082 -151.082c-83.3965 0 -151.083 67.6768 -151.083 151.082c0 83.3086 67.7773 151.082 151.083 151.082
c83.4053 0 151.082 -67.6846 151.082 -151.082zM546.667 86.0137l1.63965 0.0283203l0.00585938 0.00585938l-0.834961 0.804688l-0.814453 -0.835938c0.000976562 0 0.00195312 -0.00292969 0.00390625 -0.00292969zM546.534 87.7598l-0.823242 0.792969
l0.77832 0.00976562c-0.549805 8.13867 -3.81445 16.0938 -9.78809 22.0684c-19.9541 19.9541 -67.084 13.2568 -67.084 -24.5645c0.0117188 -37.7949 47.1172 -44.4893 67.082 -24.5244c5.93262 5.93164 9.18945 13.8096 9.77637 21.8789
c-0.40332 -0.00488281 -0.685547 -0.0078125 -0.700195 -0.0078125l0.748047 0.777344c0.0615234 1.18848 0.0654297 2.38086 0.0107422 3.56934zM660 436l-324 1.08008v21.3799h290.5v121.4h-290.5v21.3799l321.12 -1.80078z" />
  </g>

</svg>
