<?xml version="1.0" standalone="no"?>
<!DOCTYPE svg PUBLIC "-//W3C//DTD SVG 1.1//EN" "http://www.w3.org/Graphics/SVG/1.1/DTD/svg11.dtd" >
<svg xmlns="http://www.w3.org/2000/svg" xmlns:xlink="http://www.w3.org/1999/xlink" version="1.1" viewBox="-10 0 1032 1000">
  <g transform="matrix(1 0 0 -1 0 800)">
   <path fill="currentColor"
d="M524.498 649.998zM911.999 672.498h-506.999v-22.498h124.104c0.914062 -33.7744 6.83105 -46.0576 12.627 -57.375c-25.4883 -17.127 -31.8223 -21.5234 -40.8389 -27.7959c5.91699 -9.40137 7.28711 -11.5039 10.875 -16.4121
c20.4111 15.374 28.3809 21.1162 40.5254 29.5645c4.35645 -4.79785 4.83105 -5.32031 6.78711 -7.27539c29.0186 -29.0195 63.8369 -32.3701 78.2998 -32.5049l4.90137 -0.0449219c0.21582 -21.0576 0.329102 -29.001 0.583008 -43.6201
c9.50098 0.12207 11.7793 0.242188 19.4346 1.18555c0.188477 6.92871 0.275391 12.7188 0.275391 17.7891c0 7.8291 -0.0517578 12.6035 -1.0459 27.0781c11.6797 2.94336 33.6299 8.47656 55.0146 29.8613c5.38086 5.38086 13.1475 13.1475 23.377 33.4307
c30.4873 -11.8525 40.54 -16.1191 40.9551 -16.2686c1.74609 2.5957 3.60645 8.05469 6.08496 16.2354c-23.1074 10.0537 -26.9209 11.7129 -41.0293 16.7158c1.75195 7.93457 2.88965 13.083 2.88965 23.5107c0 0.441406 0 0.441406 -0.0390625 5.92578h163.219v22.498z
M637.983 556.924c-23.2656 0 -47.3037 8.39551 -66.29 27.3818c-22.3271 22.3271 -23.3398 45.2148 -24.2451 65.6943h179.919c-1.66309 -18.1992 -4.27148 -46.7256 -25.376 -67.8311c-15.9824 -15.9824 -39.5684 -25.2451 -64.0078 -25.2451zM454.216 24.0195
c-2.86328 0 -5.33008 2.33496 -5.33008 5.33105v187.266c0 2.87207 2.34277 5.33008 5.34863 5.33008c0 0 52.5234 -0.211914 62.3496 -0.250977l36.1816 32.7344l1.69629 -13.2109l1.24805 -23.0879l131.882 2.87305c2.85547 0.0625 5.31055 -2.34375 5.31055 -5.33008
v-53.999l31.9629 -37.2178l-24.3867 1.32129l-8.7373 1.24805l1.16113 -98.6182c0.0332031 -2.86523 -2.35059 -5.33008 -5.34863 -5.33008zM678.639 125.154l-16.2246 -2.49512l-20.4209 2.70703l34.0068 37.2969v41.458l-119.042 1.53027l-0.624023 -19.3447
l-0.751953 -14.665l-39.3301 33.166l-50.4629 0.21582v-164.12l210.211 -0.90332zM63.3545 -23.4795h55.5146l17.1611 52.2256l17.1602 -52.2256h55.5156l-44.8672 -32.2959l17.1611 -52.2246l-44.9697 32.2959l-44.9707 -32.2959l17.1611 52.2246z" />
  </g>

</svg>
