<?xml version="1.0" standalone="no"?>
<!DOCTYPE svg PUBLIC "-//W3C//DTD SVG 1.1//EN" "http://www.w3.org/Graphics/SVG/1.1/DTD/svg11.dtd" >
<svg xmlns="http://www.w3.org/2000/svg" xmlns:xlink="http://www.w3.org/1999/xlink" version="1.1" viewBox="-10 0 1264 1000">
  <g transform="matrix(1 0 0 -1 0 800)">
   <path fill="currentColor"
d="M809.117 107.883zM192.317 522.843zM77.1318 310.789zM525.933 33.5361zM525.121 7.78516zM182.212 103.536zM379.899 41.3438zM919.137 358.734zM77.1318 310.789zM919.137 358.734zM646.146 625.772c-28.2294 0 -77.4763 -8.95666 -102.745 -42.7762
c-7.83341 -2.856 -21.7162 -7.91755 -42.6057 -7.91755c-19.314 0 -38.0112 4.18625 -56.4667 12.4795c-6.56728 7.9944 -27.7684 33.8026 -78.9768 33.8026c-60.2853 0 -132.068 -37.4404 -156.819 -95.3185l-2.59111 -6.05893h-5.18821l-114.909 -156.13h-2.93154
v-0.119156h0.533276l-0.533276 -1.99981v-1.86455c-0.782772 -1.07088 -0.782772 -1.07088 -14.9803 -54.3122l-0.683264 0.0115426c-0.139356 -1.08672 -0.309133 -2.16795 -0.51973 -3.30669h0.625937c-0.0859068 -10.6014 -0.0859068 -10.6014 -0.0859068 -11.1239
c0 -32.7227 14.0543 -102.238 113.516 -184.498c104.589 -86.5028 222.899 -96.1351 321.963 -96.1351c162.94 0 227.193 20.2649 323.418 96.3009c114.008 90.088 118.791 117.651 122.09 181.34l-1.87941 0.0307003c-0.212569 0.79358 -16.2537 65.3786 -20.7756 79.4853
l-84.4928 144.38c-11.1501 11.634 917.375 -946.008 -9.19843 9.62109c-32.0368 32.7863 -93.6142 88.4569 -152.726 100.714c-11.3093 2.3452 -22.3833 3.39425 -33.0377 3.39425zM234.079 513.929c21.2451 48.0687 79.0605 80.2953 129.298 80.2953
c19.3801 0 37.9459 -4.75584 53.4078 -15.3958l4.77078 -3.28297l-0.142357 -1.75494c1.18075 -0.720638 2.46372 -1.64315 3.68665 -2.80521c18.1757 -17.2701 47.168 -26.1682 75.1086 -26.1682c3.01898 0 60.1828 0.453212 71.5486 34.6917l1.06086 3.19575
c8.1885 5.58874 33.6584 22.9722 74.3908 22.9722c44.3802 0 65.585 -19.7496 80.9437 -34.0542c11.6929 -10.8904 26.7027 -24.9373 59.4408 -46.6538c0.914839 -0.292771 1.8677 -0.724464 2.79532 -1.35322l1.69783 0.066828l92.7907 -146.353l2.03859 3.63755
c1.12476 -3.91827 1.78748 -8.29857 3.21127 -11.9178c0 -0.290472 -0.00761801 -0.580943 -0.00761801 -0.871415l19.5524 -78.0546c2.38353 -9.51472 3.83606 -18.6664 3.83606 -27.7234c0 -41.2832 -29.7328 -74.0251 -116.621 -145.028
c-79.5665 -65.0171 -138.6 -87.2153 -309.233 -87.2153c-93.275 0 -169.531 11.5089 -257.888 73.359c-106.708 74.6955 -124.177 131.147 -124.177 184.707c0 3.65815 0.0624784 6.47409 0.180633 10.5252l17.1082 64.1498l107.648 152.399zM457.998 92.2568
c98.1265 0.0721036 177.767 79.7272 177.767 177.872c0 121.293 -98.2319 218.229 -217.86 218.373l-10.6354 0.0130798v-33.7451l10.6091 -0.0130797c101.633 -0.130114 184.14 -82.7375 184.14 -184.378c0.0019096 -0.299439 0.0028631 -0.598726 0.0028631 -0.897858
c0 -76.6388 -62.7143 -143.413 -144.013 -143.479c-61.6768 0.126578 -111.743 50.3359 -111.743 112.002c0 48.4311 39.1213 86.3779 86.1279 86.3779c36.0807 -0.0599463 65.4431 -29.4314 65.5019 -65.5197l0.0166014 -10.6053h33.7441l-0.0145886 10.6366
c-0.0780684 54.7126 -44.5214 99.1573 -99.2328 99.2336c-66.1105 -0.0757012 -119.813 -53.7416 -119.888 -119.86c0 -81.3493 65.7976 -145.863 145.479 -146.01z" />
  </g>

</svg>
