<?xml version="1.0" standalone="no"?>
<!DOCTYPE svg PUBLIC "-//W3C//DTD SVG 1.1//EN" "http://www.w3.org/Graphics/SVG/1.1/DTD/svg11.dtd" >
<svg xmlns="http://www.w3.org/2000/svg" xmlns:xlink="http://www.w3.org/1999/xlink" version="1.1" viewBox="-10 0 1010 1000">
  <g transform="matrix(1 0 0 -1 0 800)">
   <path fill="currentColor"
d="M339.993 -162.333c-6.48633 0 -11.833 5.2793 -11.833 11.833v240.084c0 6.50684 5.29688 11.833 11.877 11.833c0 0 65.7803 -0.266602 77.9971 -0.31543l52.0459 47.0879c3.43555 -26.9775 3.43555 -26.9775 4.76465 -51.5605l164.489 3.58496
c6.35254 0 11.666 -5.28613 11.666 -11.8369v-67.377l47.4023 -55.1924c-43.6182 2.40039 -43.6182 2.40039 -48.8213 3.14355l1.41992 -120.739c0 -6.43457 -5.30762 -11.752 -11.8779 -11.752zM619.486 -131.826l3.04492 98.2959
c-5.18848 -0.797852 -10.376 -1.5957 -15.5645 -2.39453l-36.374 4.82227l48.7402 53.4541v46.2783l-142.78 1.83496c-0.43457 -15.876 -0.43457 -15.876 -2.12695 -48.8555l-56.7363 47.8438l-57.8594 0.248047v-200.412zM50.3545 720.521h55.5146l17.1611 52.2256
l17.1602 -52.2256h55.5156l-44.8672 -32.2959l17.1611 -52.2246l-44.9697 32.2959l-44.9707 -32.2959l17.1611 52.2246zM610.601 568.301c25.1553 -22.0693 45.8535 -67.1387 46.2002 -100.601c0.00585938 -0.480469 0.0107422 -1.26074 0.0107422 -1.74023
c0 -33.5771 -20.0752 -79.2549 -44.8115 -101.96c-52.7988 -48.5996 -110.799 -48.5996 -206.299 -48.5996h-4.60059v9.99902h3.89941c93.6006 0 150.001 0.401367 200.001 46c22.9688 21.0527 41.6104 63.4258 41.6104 94.583
c0 0.446289 -0.00488281 1.1709 -0.0107422 1.61719c-0.297852 30.9863 -19.4268 72.7402 -42.7002 93.2002c-50 44.5 -106.899 44.5 -200 44.5v10c92.2002 0 153.3 0 206.7 -46.999zM509.201 465.2c0 13.8066 11.1924 25 24.999 25c13.8076 0 25.001 -11.1934 25.001 -25
c0 -13.8076 -11.1934 -25 -25.001 -25c-13.8066 0 -24.999 11.1924 -24.999 25z" />
  </g>

</svg>
