<?xml version="1.0" standalone="no"?>
<!DOCTYPE svg PUBLIC "-//W3C//DTD SVG 1.1//EN" "http://www.w3.org/Graphics/SVG/1.1/DTD/svg11.dtd" >
<svg xmlns="http://www.w3.org/2000/svg" xmlns:xlink="http://www.w3.org/1999/xlink" version="1.1" viewBox="-10 0 1009 1000">
  <g transform="matrix(1 0 0 -1 0 800)">
   <path fill="currentColor"
d="M47.0957 737.826h42.7031l13.2012 40.1738l13.2002 -40.1738h42.7041l-34.5127 -24.8428l13.2002 -40.1729l-34.5918 24.8428l-34.5928 -24.8428l13.2012 40.1729zM207.499 642.326l-12 60c128.725 89.7881 355.203 55.3633 442.457 48.5605
c0 -0.0107422 0.000976562 -0.0214844 0.000976562 -0.0322266c27.4463 0.582031 75.1855 -1.32129 107.268 -33.4033c40.1396 -40.1396 38.6152 -108.841 37.5254 -169.365c-0.395508 -21.9258 -0.433594 -33.2402 -0.22168 -41.9463
c26.3789 -43.8281 72.168 -89.959 89.3252 -129.607c6.95117 -16.0635 5.49219 -24.7637 2.64551 -40.2051l-12 -14l-79.501 -63.5771v-212.431c1.93945 -31.0869 1.82422 -79.2412 -27.416 -108.48c-26.0322 -26.0322 -182.507 -12.0195 -220.584 -13.0049
l-2.90137 0.0126953c-103.732 -7.2998 -296.108 50.6025 -326.603 92.1719c-18.5059 25.2275 -31.4014 41.2529 -57.9951 55.3086v70.0371c25.8174 -16.2627 49.624 -17.8066 70.1904 -60.6357c44.2188 -92.082 349.455 -105.734 451.309 -108.438l-0.499023 -0.962891
c50 12 34.1514 4.48145 42.5352 13.5361c19.1768 20.7119 3.97852 41.9688 5.50781 57.9648h-0.541992v2.14941c-0.253906 0.990234 -0.500977 1.94141 -0.738281 2.84863h0.738281v207.174v3.4873v1.33887h1.58203l104 88h1.13281
c4.9834 45.8955 -62.8379 92.1289 -94.2158 139.501l-3 4l-1 1c-2.02051 3.99219 0.0439453 4.02539 -2.08398 11.5605c-0.0371094 0.130859 -0.189453 0.24707 -0.174805 0.367188l0.258789 2.07227l0.0644531 1.49902
c0.00976563 0.226562 0.150391 3.89551 0.242188 6.24414c3.11426 79.1523 5.19727 173.389 -83.8154 173.771c-136.35 16.7461 -373.536 9.53418 -431.49 -46.5137zM340.548 262.92zM340.791 265.781zM424.249 182.775c20.0332 0 30.6162 9.02539 37.2158 15.625
c13.0732 13.0723 14.5703 25.6602 14.5703 34.9932c-0.0429688 12.1963 -3.48242 23.7803 -15.2236 35.1807c-18.3008 18.0078 -41.4365 17.0566 -55.8105 11.1641l-16.834 -11.0781l-13.0654 -19.3154c-2.89648 -8.7793 -7.72949 -31.8574 12.3604 -51.6787
c10.3164 -10.1797 21.8154 -14.8906 36.7871 -14.8906zM650.234 310.191c0 -49.5967 -27.6758 -109.902 -62.2305 -141.62c-71.5137 -65.8242 -141.702 -65.8242 -295.898 -65.8242v50.9912c32.2012 0 40.0576 0.165039 63.707 0.678711
c-2.25293 1.93164 -4.49316 4.00098 -6.70996 6.21777c-7.55176 7.55176 -13.4521 15.5479 -17.9502 23.7383c-4.46484 -6.60156 -9.38477 -13.874 -14.8047 -21.8867l10.9609 29.6846c-11.4961 26.1934 -9.76562 53.5371 -2.66895 74.1436
c0.0664062 3.11426 6.49609 20.958 15.6768 29.2539c7.03418 11.5791 26.0771 27.2891 45.1172 33.2393c2.9707 0.928711 4.6582 1.60938 6.4209 2.31348c2.45996 0.983398 6.20117 2.37891 10.7295 2.91211c1.99512 0.233398 2.60156 0.387695 4.1543 0.735352
c4.14844 0.927734 52.3623 10.8525 92.6787 -29.4639c39.2119 -39.2119 35.2363 -92.7354 15.5596 -126.175c2.79004 1.44531 23.9902 12.6973 40.7607 29.4678c22.3457 22.3447 43.668 69.7041 43.2432 103.459c-0.294922 30.7129 -21.3535 79.8223 -46.916 102.295
c-57.0439 50.7695 -117.325 50.7695 -256.459 50.7695v50.9922c143.354 0 218.141 0 290.304 -63.5137c32.7988 -28.7764 64.3252 -87.7832 64.3252 -142.408z" />
  </g>

</svg>
