<?xml version="1.0" standalone="no"?>
<!DOCTYPE svg PUBLIC "-//W3C//DTD SVG 1.1//EN" "http://www.w3.org/Graphics/SVG/1.1/DTD/svg11.dtd" >
<svg xmlns="http://www.w3.org/2000/svg" xmlns:xlink="http://www.w3.org/1999/xlink" version="1.1" viewBox="-10 0 1009 1000">
  <g transform="matrix(1 0 0 -1 0 800)">
   <path fill="currentColor"
d="M828.399 483.872c0 9.49878 0.360099 25.4826 0.360099 28.905l-0.318652 61.3747l-8.69455 54.78l-24.0577 41.7601l-29.8355 19.1251l-33.9409 8.02542l-47.9505 1.85133v0.765382l-107.704 8.96128l-161.614 -4.8437l-135.511 -48.0118l4.97421 -24.8711
l90.1513 34.2037l168.519 13.9909l163.859 -8.05849l72.0585 -32.0852l24.6852 -76.5829c-12.0195 -98.6551 -12.0195 -98.6551 -8.64097 -103.175l30.4464 -40.7334l38.0432 -60.0682l23.93 -33.502l-96.7113 -80.2498l-3.19974 -219.288
c0.962733 -7.56244 2.78458 -22.0112 5.01798 -45.877c-15.8013 -33.078 -15.8013 -33.078 -21.7795 -38.1459c-28.726 -6.87192 -37.6748 -9.01268 -53.7943 -9.01268c-3.38415 0 -6.77838 0.14333 -10.1737 0.446144l-127.95 -3.2205l-189.706 31.9736l-119.91 72.0259
l-21.8729 31.5454c-0.18608 0.126152 -14.9542 10.3475 -18.5829 12.6523v-31.4635c5.41685 -3.87145 13.5068 -7.36272 24.4398 -17.2503c0.324316 -0.293306 6.03353 -5.56267 27.8246 -33.7326l70.2643 -41.1391l123.979 -35.7692l40.8353 -3.74581
c52.8258 -4.90757 59.0669 -6.73248 83.0467 -7.42728l68.08 -1.97257l89.7606 0.254271l51.1066 12.4914l15.1376 25.2075l6.27671 34.16l-0.268638 82.9487l0.0291888 84.2282l-0.00582149 87.5189l84.7837 67.8016l7.68593 8.96692
c1.77472 11.4559 1.98289 12.7996 -2.19749 25.3734l-23.3304 38.8443c-23.3118 29.9188 -45.6511 60.8101 -67.3422 92.3496c-0.202711 16.1296 -0.202711 16.1296 -0.202711 17.6951zM33.2949 712.521h55.5146l17.1611 52.2256l17.1602 -52.2256h55.5156
l-44.8672 -32.2959l17.1611 -52.2246l-44.9697 32.2959l-44.9707 -32.2959l17.1611 52.2246zM340.548 262.92zM340.791 265.781zM493.532 233.394c0 -38.0512 -31.2649 -68.1147 -69.2827 -68.1147c-40.0629 0 -69.2769 31.6782 -69.2769 67.3485
c0 0.0511556 -0.00320709 0.265744 -0.00320709 0.619459c0 35.7244 32.7691 67.7913 69.8608 67.7913c36.1939 0 68.5663 -29.1462 68.7019 -67.6446zM336.511 232.342c0 -50.2909 36.7853 -60.737 36.7853 -77.91c0 -9.53069 -7.61646 -17.301 -17.101 -17.507
c-18.6623 -0.40535 -27.7266 -0.596674 -46.5933 -0.658906v-16.0169c142.901 0.115261 203.113 2.80802 266.558 61.2062c31.2263 28.6626 56.5775 85.8179 56.5775 128.736c0 47.4168 -28.5581 103.097 -58.3592 129.243
c-63.8022 56.1549 -128.583 59.0411 -261.277 59.1756v-15.9936c125.944 -0.0453663 190.365 -1.58536 250.587 -55.183c28.201 -24.7923 52.7953 -76.4989 52.7953 -116.483c0 -39.8444 -22.4846 -88.839 -48.3712 -114.726
c-11.976 -11.976 -41.3447 -34.5829 -53.1228 -34.5829c-9.69001 0 -17.5085 7.85872 -17.5085 17.4941c0 10.1748 14.5325 22.3718 14.5325 54.0492c0 48.2894 -40.5618 85.8203 -87.157 85.8203c-42.1027 0 -88.3461 -30.624 -88.3461 -86.6637z" />
  </g>

</svg>
