<?xml version="1.0" standalone="no"?>
<!DOCTYPE svg PUBLIC "-//W3C//DTD SVG 1.1//EN" "http://www.w3.org/Graphics/SVG/1.1/DTD/svg11.dtd" >
<svg xmlns="http://www.w3.org/2000/svg" xmlns:xlink="http://www.w3.org/1999/xlink" version="1.1" viewBox="-10 0 1018 1000">
  <g transform="matrix(1 0 0 -1 0 800)">
   <path fill="currentColor"
d="M454.216 24.0195c-2.86328 0 -5.33008 2.33496 -5.33008 5.33105v187.266c0 2.87207 2.34277 5.33008 5.34863 5.33008c0 0 52.5234 -0.211914 62.3496 -0.250977l36.1816 32.7344l1.69629 -13.2109l1.24805 -23.0879l131.882 2.87305
c2.85547 0.0625 5.31055 -2.34375 5.31055 -5.33008v-53.999l31.9629 -37.2178l-24.3867 1.32129l-8.7373 1.24805l1.16113 -98.6182c0.0332031 -2.86523 -2.35059 -5.33008 -5.34863 -5.33008zM678.639 125.154l-16.2246 -2.49512l-20.4209 2.70703l34.0068 37.2969v41.458
l-119.042 1.53027l-0.624023 -19.3447l-0.751953 -14.665l-39.3301 33.166l-50.4629 0.21582v-164.12l210.211 -0.90332zM63.3545 -23.4795h55.5146l17.1611 52.2256l17.1602 -52.2256h55.5156l-44.8672 -32.2959l17.1611 -52.2246l-44.9697 32.2959l-44.9707 -32.2959
l17.1611 52.2246zM712.236 552.1c0.206055 -27.8818 -34.1436 -43.6768 -54.8965 -22.9248c-3.62402 3.62402 -6.13281 7.66797 -7.65625 11.8721l-141.684 -1.04688l3.875 -93.9805c-0.737305 -0.191406 -1.85059 -0.480469 -3.25684 -0.74707l0.0244141 -0.0927734
l-5.79004 -1.50195l-0.24707 0.945312c-1.45996 -0.0361328 -3.02637 0.0166016 -4.66797 0.206055c0.0361328 -0.386719 -5.86035 0.422852 -8.37305 0.277344l-3.56055 -1.81348c0.364258 6.89844 0.364258 6.89844 0.506836 8.52344l-3.75879 88.0293l-131.803 0.796875
c-7.88574 -19.917 -35.1475 -28.4932 -52.6914 -10.9492c-20.583 20.584 -5.19141 54.6826 22.4609 54.8867c12.6523 0.0927734 23.8232 -7.39355 29.1416 -18.1504c1.14844 -0.385742 1.53711 -0.489258 1.64453 -0.420898l130.964 0.413086l-0.930664 126.237
c-3.62891 1.55176 -7.11328 3.86719 -10.2803 7.03418c-20.583 20.584 -5.19141 54.6826 22.4609 54.8867c17.583 0.129883 32.3057 -14.3809 32.4355 -31.9619c0.102539 -13.8496 -8.32129 -24.7178 -19.3701 -29.6045l0.933594 -126.416l144.445 1.06641
c5.33691 9.42285 15.2588 16.3066 27.6377 16.3975c17.583 0.129883 32.3057 -14.3809 32.4355 -31.9619zM482.154 419.118c0.206055 -27.8818 -34.1436 -43.6768 -54.8965 -22.9248c-20.583 20.584 -5.19141 54.6826 22.4609 54.8867
c17.583 0.129883 32.3057 -14.3809 32.4355 -31.9619zM577.154 413.118c0.206055 -27.8818 -34.1436 -43.6768 -54.8965 -22.9248c-20.583 20.584 -5.19141 54.6826 22.4609 54.8867c17.583 0.129883 32.3057 -14.3809 32.4355 -31.9619z" />
  </g>

</svg>
