<?xml version="1.0" standalone="no"?>
<!DOCTYPE svg PUBLIC "-//W3C//DTD SVG 1.1//EN" "http://www.w3.org/Graphics/SVG/1.1/DTD/svg11.dtd" >
<svg xmlns="http://www.w3.org/2000/svg" xmlns:xlink="http://www.w3.org/1999/xlink" version="1.1" viewBox="-10 0 1006 1000">
  <g transform="matrix(1 0 0 -1 0 800)">
   <path fill="currentColor"
d="M589.992 461.52c-3.66992 0 -6.83398 2.99316 -6.83398 6.83398v240.084c0 3.68359 3.00391 6.83398 6.85742 6.83398c0 0 67.3379 -0.271484 79.9365 -0.322266l46.3867 41.9668l2.17383 -16.9365l1.60059 -29.5996l169.079 3.68457
c3.66113 0.0800781 6.80762 -3.00684 6.80762 -6.83398v-69.2305l40.9795 -47.7139l-31.2666 1.69336l-11.2002 1.60059l1.4873 -126.434c0.0439453 -3.67383 -3.01367 -6.83398 -6.85742 -6.83398zM877.713 591.18l-20.7998 -3.2002l-26.1816 3.47168l43.5996 47.8154
v53.1523l-152.618 1.96094l-0.799805 -24.7998l-0.964844 -18.8018l-50.4219 42.5205l-64.6963 0.277344v-210.41l269.501 -1.1582zM28.3545 710.521h55.5146l17.1611 52.2256l17.1602 -52.2256h55.5156l-44.8672 -32.2959l17.1611 -52.2246l-44.9697 32.2959
l-44.9707 -32.2959l17.1611 52.2246zM28.3545 710.521h55.5146l17.1611 52.2256l17.1602 -52.2256h55.5156l-44.8672 -32.2959l17.1611 -52.2246l-44.9697 32.2959l-44.9707 -32.2959l17.1611 52.2246zM738.59 266.505c1.2627 -22.4336 -7.74219 -81.3936 -5.23047 -95.668
c0.770508 -0.875977 1.56445 -2.23145 1.72852 -3.98535c5.23145 -56.2568 51.2754 -111.696 69.0869 -129.507c3.60547 -3.60547 3.60547 -3.60547 14.0586 -11.6914c-1.22754 -0.802734 -1.22754 -0.802734 -19.9932 -13.3145
c-2.84668 -1.90039 -6.69922 -1.45703 -9.03418 1.08984c-30.0791 32.7197 -53.7002 58.416 -74.6094 118.096c-9.44629 -29.4131 -26.6836 -58.2959 -42.6045 -78.5156c-11.126 -14.1289 -19.8799 -31.4688 -28.2031 -39.793
c-2.53711 -2.53711 -6.54395 -2.71484 -9.28906 -0.542969c-14.1436 11.1963 -14.1436 11.1963 -14.4336 11.4873c-2.5166 2.51562 -2.71289 6.47656 -0.598633 9.21973c7.94727 10.3027 34.1816 46.1582 34.5322 46.6201c50.7832 66.708 53.252 155.368 52.8457 203.106
c-0.0341797 3.9502 3.20312 7.14551 7.1543 7.05664c18.7012 -0.416016 18.7012 -0.416016 21.4033 -3.11816c2.02734 -2.02734 3.06055 -5.03613 2.99219 -8.46777c-0.0234375 -1.15625 -0.125977 -6.3916 0.194336 -12.0723zM436.011 266.782
c1.2627 -22.4336 -7.74219 -81.3936 -5.23047 -95.668c0.770508 -0.875977 1.56445 -2.23145 1.72852 -3.98535c5.23145 -56.2568 51.2754 -111.696 69.0869 -129.507c3.60547 -3.60547 3.60547 -3.60547 14.0586 -11.6914
c-1.22754 -0.802734 -1.22754 -0.802734 -19.9932 -13.3145c-2.84668 -1.90039 -6.69922 -1.45703 -9.03418 1.08984c-30.0791 32.7197 -53.7002 58.416 -74.6094 118.096c-9.44629 -29.4131 -26.6836 -58.2959 -42.6045 -78.5156
c-11.126 -14.1289 -19.8799 -31.4688 -28.2031 -39.793c-2.53711 -2.53711 -6.54395 -2.71484 -9.28906 -0.542969c-14.1436 11.1963 -14.1436 11.1963 -14.4336 11.4873c-2.5166 2.51562 -2.71289 6.47656 -0.598633 9.21973
c7.94727 10.3027 34.1816 46.1582 34.5322 46.6201c50.7832 66.708 53.252 155.368 52.8457 203.106c-0.0341797 3.9502 3.20312 7.14551 7.1543 7.05664c18.7012 -0.416016 18.7012 -0.416016 21.4033 -3.11816c2.02734 -2.02734 3.06055 -5.03613 2.99219 -8.46777
c-0.0234375 -1.15625 -0.125977 -6.3916 0.194336 -12.0723zM368.025 405.267c-0.00292969 0 -0.219727 -0.000976562 -0.264648 -0.000976562c-23.2441 0 -53.9805 12.707 -70.4434 29.1025c-19.624 19.6865 -29.5898 45.915 -29.5898 73.7432
c0 37.0801 15.5547 62.8867 39.3838 102.422c4.61133 7.55566 9.2168 15.2012 13.4971 22.7871c31.2207 54.6875 31.2207 54.6875 32.6387 57.4268c7.53906 14.7539 9.98438 19.5391 17.04 19.5391h1.86816c5.81934 0 8.87988 -6.43945 13.707 -16.5938
c0.657227 -0.989258 45.2285 -80.3965 59.4092 -102.782c0.310547 -0.454102 19.4893 -29.165 25.0977 -49.0088c2.51562 -8.44531 4.4043 -21.3955 4.4043 -30.2119c0 -56.8828 -50.7178 -106.423 -106.748 -106.423zM368.07 424.974
c49.8613 0 87.1201 43.751 87.1201 86.2891c0 0.0712891 -0.0175781 16.9297 -6.41992 32.9795c-5.34277 12.2529 -11.7744 23.3066 -20.1533 36.4111c-8.01953 12.541 -8.01953 12.541 -58.2031 99.6768c-0.432617 -0.834961 -0.856445 -1.67871 -1.29492 -2.50684
c-37.4512 -65.3643 -37.4512 -65.3643 -45.1191 -77.8232c-22.8486 -37.8193 -36.5664 -60.5781 -36.5664 -92.3105c0 -6.97363 0.316406 -36.1699 23.7207 -59.2471c12.6963 -12.6094 39.0303 -23.4688 56.916 -23.4688z" />
  </g>

</svg>
