<?xml version="1.0" standalone="no"?>
<!DOCTYPE svg PUBLIC "-//W3C//DTD SVG 1.1//EN" "http://www.w3.org/Graphics/SVG/1.1/DTD/svg11.dtd" >
<svg xmlns="http://www.w3.org/2000/svg" xmlns:xlink="http://www.w3.org/1999/xlink" version="1.1" viewBox="-10 0 911 1000">
  <g transform="matrix(1 0 0 -1 0 800)">
   <path fill="currentColor"
d="M791.258 461.615l-76.417 -77.1748l83.1592 -76.4404l-10.8262 -9.01758l-83.2529 76.6387l-75.2969 -76.6387l-7.86328 8.59766l74.3398 75.6006l-73.0801 76.0195l9.66016 9.24023l73.9199 -73.5l77.2803 73.9199zM791.258 461.615l-76.417 -77.1748l83.1592 -76.4404
l-10.8262 -9.01758l-83.2529 76.6387l-75.2969 -76.6387l-7.86328 8.59766l74.3398 75.6006l-73.0801 76.0195l9.66016 9.24023l73.9199 -73.5l77.2803 73.9199zM800.083 230.634l-76.417 -77.1758l83.1602 -76.4395l-10.8262 -9.01855l-83.2539 76.6387l-75.2959 -76.6387
l-7.86328 8.59863l74.3389 75.5996l-73.0791 76.0195l9.65918 9.24023l73.9199 -73.5l77.2803 73.9199zM800.083 230.634l-76.417 -77.1758l83.1602 -76.4395l-10.8262 -9.01855l-83.2539 76.6387l-75.2959 -76.6387l-7.86328 8.59863l74.3389 75.5996l-73.0791 76.0195
l9.65918 9.24023l73.9199 -73.5l77.2803 73.9199zM373.753 653.28c3.43848 -61.0859 -25.5898 -235.091 -8.5127 -244.225c16.7637 -180.238 191.267 -348.641 191.487 -342.145l-29.5684 -19.7109c-66.5244 72.5615 -140.753 144.372 -197.316 340.991
c-12.5938 -86.5742 -66.6699 -183.541 -115.259 -245.248c-29.5654 -37.5459 -42.2412 -67.583 -67.585 -95.7432l-33.792 26.751c38.0166 49.2803 59.3545 81.043 84.4805 114.049c128.286 168.514 133.652 389.767 132.657 506.979
c11.9375 -0.263672 23.875 -0.526367 35.8135 -0.790039c6.71582 -0.144531 6.98926 -6.67188 7.10547 -9.46094c0.0136719 -0.313477 -0.4375 -14.9805 0.489258 -31.4473zM679.555 759.345l-248.835 -280.771l32.6035 -25.9805l211.969 246.287
c17.6074 -29.1953 42.7334 -63.7109 51.0986 -86.3682l59.4824 84.8145zM174.277 702.505c1.2627 -22.4336 -7.74219 -81.3936 -5.23047 -95.668c0.770508 -0.875977 1.56445 -2.23145 1.72852 -3.98535c5.23145 -56.2568 51.2754 -111.696 69.0869 -129.507
c3.60547 -3.60547 3.60547 -3.60547 14.0586 -11.6914c-1.22754 -0.802734 -1.22754 -0.802734 -19.9932 -13.3145c-2.84668 -1.90039 -6.69922 -1.45703 -9.03418 1.08984c-30.0791 32.7197 -53.7002 58.416 -74.6094 118.096
c-9.44629 -29.4131 -26.6836 -58.2959 -42.6045 -78.5156c-11.126 -14.1289 -19.8799 -31.4688 -28.2031 -39.793c-2.53711 -2.53711 -6.54395 -2.71484 -9.28906 -0.542969c-14.1436 11.1963 -14.1436 11.1963 -14.4336 11.4873
c-2.5166 2.51562 -2.71289 6.47656 -0.598633 9.21973c7.94727 10.3027 34.1816 46.1582 34.5322 46.6201c50.7832 66.708 53.252 155.368 52.8457 203.106c-0.0341797 3.9502 3.20312 7.14551 7.1543 7.05664c18.7012 -0.416016 18.7012 -0.416016 21.4033 -3.11816
c2.02734 -2.02734 3.06055 -5.03613 2.99219 -8.46777c-0.0234375 -1.15625 -0.125977 -6.3916 0.194336 -12.0723z" />
  </g>

</svg>
