<?xml version="1.0" standalone="no"?>
<!DOCTYPE svg PUBLIC "-//W3C//DTD SVG 1.1//EN" "http://www.w3.org/Graphics/SVG/1.1/DTD/svg11.dtd" >
<svg xmlns="http://www.w3.org/2000/svg" xmlns:xlink="http://www.w3.org/1999/xlink" version="1.1" viewBox="-10 0 1310 1000">
  <g transform="matrix(1 0 0 -1 0 800)">
   <path fill="currentColor"
d="M546.363 537.921v22.0993l220.632 -0.243353l2.09298 -118.77l-222.725 -0.264928v22.1095h197.701v75.0693h-197.701zM273.243 207.501c4.72949 0 13.2646 0 27.6357 -10.5498c12.793 -9.3916 12.749 -12.4326 15.6172 -12.4326
c0.170898 0 0.360352 0.00195312 0.575195 0.00195312c1.94922 0 3.00879 1.05957 3.64453 1.69531c8.13965 8.13867 20.75 21.2988 40.4336 21.2988c9.69336 0 23.8633 -6.63477 27.5146 -11.0195c5.12598 -6.15527 9.6416 -17.6152 9.6416 -25.2891
c0 -6.7373 0 -21.0488 -20.3438 -41.4414l-60.8594 -58.5752c-61.3711 59.1992 -61.3711 59.1992 -61.6836 59.5117c-5.35156 5.35254 -18.4541 18.4541 -19.3145 40.2666c4.76074 16.3711 6.87695 23.6484 11.1982 27.0254
c6.52246 5.09766 18.1631 9.50781 25.9404 9.50781zM272.843 222.762c-15.0557 0 -31.2842 -8.34473 -37.8613 -14.9209c-5.60156 -5.60156 -14.3516 -22.7432 -14.3516 -36.5371c0 -0.800781 0.0234375 -1.78027 0.0644531 -2.6377l0.00976562 -0.219727v-0.220703
c0.0800781 -24.7461 19.8828 -45.5469 24.8486 -49.7969l61.71 -59.7588c2.60938 -2.52637 5.97852 -4.01172 9.70605 -4.01172c5.09277 0 7.81348 2.38477 9.89551 4.20898c0.655273 0.574219 46.9648 44.9648 62.6201 60.6201
c23.2227 23.2227 24.0254 42.1719 24.0254 51.6113v0.132812c0 13.874 -7.42676 29.6152 -15.1729 37.3604c-5.69141 5.69238 -23.418 14.376 -37.248 14.415c-19.1895 -0.386719 -25.4316 -4.58594 -44.2734 -18.582c-13.709 10.1738 -24.708 18.3369 -43.9727 18.3369z
M273.243 207.501c4.72949 0 13.2646 0 27.6357 -10.5498c12.793 -9.3916 12.749 -12.4326 15.6172 -12.4326c0.170898 0 0.360352 0.00195312 0.575195 0.00195312c1.94922 0 3.00879 1.05957 3.64453 1.69531c8.13965 8.13867 20.75 21.2988 40.4336 21.2988
c9.69336 0 23.8633 -6.63477 27.5146 -11.0195c5.12598 -6.15527 9.6416 -17.6152 9.6416 -25.2891c0 -6.7373 0 -21.0488 -20.3438 -41.4414l-60.8594 -58.5752c-61.3711 59.1992 -61.3711 59.1992 -61.6836 59.5117c-5.35156 5.35254 -18.4541 18.4541 -19.3145 40.2666
c4.76074 16.3711 6.87695 23.6484 11.1982 27.0254c6.52246 5.09766 18.1631 9.50781 25.9404 9.50781zM272.843 222.762c-15.0557 0 -31.2842 -8.34473 -37.8613 -14.9209c-5.60156 -5.60156 -14.3516 -22.7432 -14.3516 -36.5371
c0 -0.800781 0.0234375 -1.78027 0.0644531 -2.6377l0.00976562 -0.219727v-0.220703c0.0800781 -24.7461 19.8828 -45.5469 24.8486 -49.7969l61.71 -59.7588c2.60938 -2.52637 5.97852 -4.01172 9.70605 -4.01172c5.09277 0 7.81348 2.38477 9.89551 4.20898
c0.655273 0.574219 46.9648 44.9648 62.6201 60.6201c23.2227 23.2227 24.0254 42.1719 24.0254 51.6113v0.132812c0 13.874 -7.42676 29.6152 -15.1729 37.3604c-5.69141 5.69238 -23.418 14.376 -37.248 14.415c-19.1895 -0.386719 -25.4316 -4.58594 -44.2734 -18.582
c-13.709 10.1738 -24.708 18.3369 -43.9727 18.3369zM492.814 409.489c0 -61.8799 43.5771 -110.848 63.6006 -122.736l7.16797 -4.25586c-10.8438 -0.305664 0.760742 0.576172 -22.1279 -2.28711l-0.6875 0.87207c-14.085 17.8721 -60.1602 70.4072 -68.418 132.63
c-0.421875 3.16895 0.0136719 6.27051 0.371094 11.6973c-0.884766 0.454102 -1.84668 0.953125 -2.89355 1.49902c-0.0185547 -1.17773 -0.207031 -2.44238 -0.0283203 -3.76855c21.3623 -159.783 62.4287 -138.715 62.4287 -138.715s4.42383 -2.74609 6.5791 -4.21484
h-21.0312c-28.2539 10.3213 -65.0859 96.748 -65.0859 142.291c0 5.59082 0.193359 9.80078 0.501953 13.2383c-38.8252 20.6953 -115.955 41.4082 -182.327 41.4082c-14.7529 0 -29.1338 -1.31055 -46.9717 -3.95312
c-20.6875 -3.06543 -20.6875 -3.06543 -45.1934 -13.5684c-12.1064 -5.1875 -32.1377 -30.3398 -37.2266 -42.7002c-4.49805 -10.9219 -5.81152 -19.3711 -5.81152 -29.3691c0 -14.293 2.32324 -28.4014 2.32324 -49.3799c0 -5.75488 0.733398 -8.86816 0.733398 -12.9229
c0 -2.9248 -0.392578 -6.17285 -1.74805 -10.626c-12.7676 -41.9062 -25.8037 -55.7109 -40.8525 -70.5166c-4.00684 -3.94238 -17.3125 -17.0352 -17.3125 -24.1846c0 -2.85156 0.564453 -4.4209 24.54 -12.4502c35.7891 -11.9854 38.417 -15.6221 38.417 -58.2246
c0 -27.5273 1.73242 -70.4082 1.73242 -97.1084c0 -3.51953 0.0527344 -7.28711 0.170898 -11.3711c0.322266 -11.0664 10.5293 -29.0166 15.2949 -36.8213c0.765625 -0.194336 1.25488 -0.756836 1.25488 -0.756836c0.738281 -0.426758 1.58984 -1.02441 2.64551 -1.75586
c10.2725 -7.11523 14.083 -8.43848 26.1396 -8.43848c15.3828 0 14.3018 2.69824 50.5986 2.69824c0.203125 0 4.44531 -0.00390625 4.49121 -0.00390625c9.4707 0 16.4268 0.145508 33.3447 2.43359c12.9297 1.74805 24.8496 2.95312 36.166 4.09766
c77.4004 7.83008 129.095 15.4551 179.314 51.3252c1.42969 1.02246 3.29102 2.4668 5.41211 4.11426c8.07031 6.26953 21.1396 17.2158 30.8105 17.2158c5.22754 0 8.85352 -3.1748 8.85352 -9.06543c0 -9.88672 -11.1416 -27.4238 -21.1797 -27.4238
c-0.745117 0 -1.00195 0.0839844 -1.93066 0.0839844c-14.4922 0 -28.3906 -23.3779 -50.8662 -32.8262c-33.8467 -14.2295 -88.5098 -17.3613 -112.294 -21.5742c-11.043 -1.95605 -23.4561 -4.15527 -39.6025 -7.83398
c-22.2246 -5.06152 -33.0439 -5.51074 -55.5234 -5.51074c-0.161133 0 -14.585 0.0205078 -16.0518 0.0205078c-7.23926 0 -20.875 -0.0791016 -21.0859 -0.0791016c-26.0977 0 -52.8037 1.83496 -77.3828 15.8799c-16.7012 9.54395 -17.8623 23.1064 -19.2295 39.0771
c-0.304688 3.57812 -0.625 7.2959 -1.125 11.1309c-1.25684 10.0576 -1.6875 19.0156 -1.6875 27.4502c0 18.3408 -2.73438 64.4248 -2.73438 84.1016c0 29.7148 -2.94336 31.3604 -19.043 37.6416c-17.4844 6.82129 -36.6172 8.48438 -45.334 17.2012
c-2.77148 2.77051 -4.26562 6.2002 -4.26562 10.3096c0 3.06934 0.833984 6.51855 2.59375 10.3525c23.3564 50.9424 43.9277 44.8477 58.4775 89.4473c3.3291 10.2041 4.43848 20.6416 4.43848 31.1553c0 20.8408 -4.33789 41.7031 -4.33789 61.3193
c0 30.4961 11.0342 43.7656 22.4326 55.1641c42.3955 42.3945 91.9521 42.4678 152.897 42.4678h0.632812c53.001 0 121.686 -14.9414 157.453 -31.9023c27.875 -13.2188 13.9844 -10.0547 20.7715 -10.7783c7.2959 -0.779297 24.96 -8.31934 30.4033 -19.46
c2.7627 -5.65332 -2.63867 -13.8672 -2.88281 -18.9404c-0.165039 -3.43359 1.2793 -9.17969 1.2793 -12.7998zM972.808 186.373c4.72949 0 13.2646 0 27.6357 -10.5498c12.793 -9.3916 12.749 -12.4326 15.6172 -12.4326
c0.170898 0 0.360352 0.00195312 0.576172 0.00195312c1.94922 0 3.00879 1.05957 3.64453 1.69531c8.13867 8.13965 20.749 21.2988 40.4326 21.2988c9.69336 0 23.8643 -6.63477 27.5146 -11.0186c5.12695 -6.15527 9.6416 -17.6162 9.6416 -25.29
c0 -6.73633 0 -21.0488 -20.3428 -41.4414l-60.8604 -58.5752c-61.3711 59.1992 -61.3711 59.1992 -61.6836 59.5117c-5.35156 5.35254 -18.4541 18.4551 -19.3145 40.2666c4.76172 16.3721 6.87695 23.6494 11.1992 27.0254
c6.52246 5.09766 18.1621 9.50781 25.9395 9.50781zM972.407 201.635c-15.0547 0 -31.2842 -8.34473 -37.8604 -14.9219c-5.60254 -5.60156 -14.3525 -22.7422 -14.3525 -36.5361c0 -0.800781 0.0244141 -1.78027 0.0644531 -2.63867l0.0107422 -0.219727v-0.219727
c0.0791016 -24.7471 19.8828 -45.5479 24.8486 -49.7969l61.709 -59.7598c2.60938 -2.52539 5.97852 -4.01172 9.70605 -4.01172c5.09277 0 7.81445 2.38574 9.89551 4.20996c0.655273 0.574219 46.9648 44.9648 62.6201 60.6201
c23.2227 23.2227 24.0264 42.1709 24.0264 51.6104v0.132812c0 13.875 -7.42773 29.6162 -15.1729 37.3604c-5.69238 5.69336 -23.418 14.376 -37.249 14.415c-19.1885 -0.386719 -25.4316 -4.58496 -44.2734 -18.5811c-13.708 10.1729 -24.707 18.3369 -43.9727 18.3369z
M972.808 186.373c4.72949 0 13.2646 0 27.6357 -10.5498c12.793 -9.3916 12.749 -12.4326 15.6172 -12.4326c0.170898 0 0.360352 0.00195312 0.576172 0.00195312c1.94922 0 3.00879 1.05957 3.64453 1.69531c8.13867 8.13965 20.749 21.2988 40.4326 21.2988
c9.69336 0 23.8643 -6.63477 27.5146 -11.0186c5.12695 -6.15527 9.6416 -17.6162 9.6416 -25.29c0 -6.73633 0 -21.0488 -20.3428 -41.4414l-60.8604 -58.5752c-61.3711 59.1992 -61.3711 59.1992 -61.6836 59.5117c-5.35156 5.35254 -18.4541 18.4551 -19.3145 40.2666
c4.76172 16.3721 6.87695 23.6494 11.1992 27.0254c6.52246 5.09766 18.1621 9.50781 25.9395 9.50781zM972.407 201.635c-15.0547 0 -31.2842 -8.34473 -37.8604 -14.9219c-5.60254 -5.60156 -14.3525 -22.7422 -14.3525 -36.5361
c0 -0.800781 0.0244141 -1.78027 0.0644531 -2.63867l0.0107422 -0.219727v-0.219727c0.0791016 -24.7471 19.8828 -45.5479 24.8486 -49.7969l61.709 -59.7598c2.60938 -2.52539 5.97852 -4.01172 9.70605 -4.01172c5.09277 0 7.81445 2.38574 9.89551 4.20996
c0.655273 0.574219 46.9648 44.9648 62.6201 60.6201c23.2227 23.2227 24.0264 42.1709 24.0264 51.6104v0.132812c0 13.875 -7.42773 29.6162 -15.1729 37.3604c-5.69238 5.69336 -23.418 14.376 -37.249 14.415c-19.1885 -0.386719 -25.4316 -4.58496 -44.2734 -18.5811
c-13.708 10.1729 -24.707 18.3369 -43.9727 18.3369zM1192.38 388.361c0 -61.8789 43.5762 -110.848 63.5996 -122.735l7.16797 -4.25684c-10.8438 -0.304688 0.760742 0.577148 -22.127 -2.28711l-0.688477 0.873047c-14.085 17.8711 -60.1592 70.4062 -68.418 132.629
c-0.420898 3.16895 0.0136719 6.27051 0.37207 11.6982c-0.885742 0.454102 -1.84766 0.952148 -2.89453 1.49805c-0.0185547 -1.17676 -0.207031 -2.44238 -0.0283203 -3.76855c21.3623 -159.783 62.4287 -138.715 62.4287 -138.715s4.42383 -2.74512 6.5791 -4.21484
h-21.0312c-28.2529 10.3223 -65.0859 96.748 -65.0859 142.291c0 5.59082 0.193359 9.80078 0.501953 13.2383c-38.8252 20.6953 -115.954 41.4092 -182.326 41.4092c-14.7529 0 -29.1348 -1.31152 -46.9717 -3.95312
c-20.6875 -3.06543 -20.6875 -3.06543 -45.1943 -13.5693c-12.1064 -5.1875 -32.1377 -30.3398 -37.2266 -42.6992c-4.49707 -10.9219 -5.81055 -19.3711 -5.81055 -29.3701c0 -14.293 2.32227 -28.4004 2.32227 -49.3799c0 -5.75391 0.733398 -8.86719 0.733398 -12.9219
c0 -2.92578 -0.391602 -6.17383 -1.74805 -10.626c-12.7676 -41.9072 -25.8027 -55.7109 -40.8525 -70.5176c-4.00586 -3.94238 -17.3125 -17.0352 -17.3125 -24.1846c0 -2.85156 0.56543 -4.4209 24.541 -12.4492c35.7881 -11.9854 38.416 -15.623 38.416 -58.2256
c0 -27.5273 1.7334 -70.4072 1.7334 -97.1074c0 -3.52051 0.0517578 -7.28809 0.170898 -11.3711c0.321289 -11.0664 10.5283 -29.0176 15.2939 -36.8223c0.765625 -0.194336 1.25488 -0.755859 1.25488 -0.755859c0.738281 -0.427734 1.58984 -1.02539 2.64648 -1.75684
c10.2715 -7.11426 14.083 -8.4375 26.1387 -8.4375c15.3828 0 14.3018 2.69727 50.5996 2.69727c0.203125 0 4.44531 -0.00292969 4.49023 -0.00292969c9.47168 0 16.4277 0.145508 33.3457 2.43262c12.9297 1.74805 24.8486 2.9541 36.165 4.09863
c77.4014 7.8291 129.095 15.4541 179.314 51.3252c1.42969 1.02148 3.29102 2.46582 5.41211 4.11328c8.07031 6.26953 21.1396 17.2158 30.8105 17.2158c5.22754 0 8.85352 -3.17383 8.85352 -9.06543c0 -9.88574 -11.1406 -27.4238 -21.1797 -27.4238
c-0.745117 0 -1.00195 0.0839844 -1.93066 0.0839844c-14.4912 0 -28.3906 -23.377 -50.8662 -32.8262c-33.8467 -14.2295 -88.5098 -17.3613 -112.293 -21.5742c-11.043 -1.95605 -23.457 -4.15527 -39.6035 -7.83301
c-22.2246 -5.06152 -33.0439 -5.51074 -55.5225 -5.51074c-0.162109 0 -14.585 0.0195312 -16.0527 0.0195312c-7.23926 0 -20.875 -0.078125 -21.0859 -0.078125c-26.0977 0 -52.8027 1.83398 -77.3828 15.8789c-16.7002 9.54395 -17.8613 23.1064 -19.2285 39.0781
c-0.305664 3.57812 -0.625 7.2959 -1.125 11.1299c-1.25684 10.0576 -1.6875 19.0156 -1.6875 27.4512c0 18.3408 -2.73535 64.4238 -2.73535 84.1016c0 29.7139 -2.94336 31.3604 -19.042 37.6416c-17.4844 6.82031 -36.6182 8.48438 -45.335 17.2002
c-2.77051 2.77148 -4.26562 6.20117 -4.26562 10.3096c0 3.06934 0.834961 6.51855 2.59375 10.3535c23.3564 50.9414 43.9277 44.8477 58.4775 89.4463c3.33008 10.2051 4.43945 20.6426 4.43945 31.1553c0 20.8408 -4.33887 41.7031 -4.33887 61.3203
c0 30.4961 11.0352 43.7656 22.4336 55.1641c42.3945 42.3945 91.9512 42.4668 152.896 42.4668h0.632812c53.002 0 121.686 -14.9414 157.453 -31.9023c27.875 -13.2178 13.9844 -10.0547 20.7715 -10.7783c7.2959 -0.77832 24.9609 -8.31934 30.4033 -19.459
c2.7627 -5.6543 -2.63867 -13.8672 -2.88281 -18.9404c-0.165039 -3.43359 1.28027 -9.17969 1.28027 -12.8008z" />
  </g>

</svg>
