<?xml version="1.0" standalone="no"?>
<!DOCTYPE svg PUBLIC "-//W3C//DTD SVG 1.1//EN" "http://www.w3.org/Graphics/SVG/1.1/DTD/svg11.dtd" >
<svg xmlns="http://www.w3.org/2000/svg" xmlns:xlink="http://www.w3.org/1999/xlink" version="1.1" viewBox="-10 0 1005 1000">
  <g transform="matrix(1 0 0 -1 0 800)">
   <path fill="currentColor"
d="M446.229 452.539l-0.0107422 -0.413086c0.00488281 0.137695 0.0107422 0.275391 0.0107422 0.413086zM373.175 684.652l0.101562 -0.120117c-0.0332031 0.0400391 -0.101562 0.120117 -0.101562 0.120117zM271.395 675.292l0.106445 0.161133
c-0.0175781 -0.0263672 -0.0351562 -0.0537109 -0.106445 -0.161133zM205.585 460.189l0.0292969 0.191406c-0.00976562 -0.0644531 -0.0292969 -0.12793 -0.0292969 -0.191406zM211.713 435.418l-0.137695 0.149414zM217.142 431.298l-0.676758 0.201172
c0.226562 -0.0712891 0.452148 -0.138672 0.676758 -0.201172zM220.475 430.678l-0.143555 0.0136719c0.0263672 0 0.0527344 -0.0136719 0.143555 -0.0136719zM331.304 707.33c-55.3799 5.01758 -78.1494 -54.707 -99.5723 -139.86
c-16.4873 -67.8789 -16.4873 -67.8789 -22.4551 -90.2598l0.0322266 0.131836c-0.0107422 -0.0439453 -0.0322266 -0.131836 -0.0322266 -0.131836c-4.21094 -17.3311 -7.69824 -31.6787 3 -42.376c3.92773 -3.92871 5.37109 -4.19629 16.543 -4.68652
c198.349 0.0859375 198.349 0.0859375 203.843 0.814453c4.74219 0.59082 16.6768 11.6309 12.7158 30.4375c-0.307617 1.55273 -24.6455 107.782 -38.666 153.497c-24.6113 79.3652 -53.9336 90.9482 -75.4082 92.4336zM427.912 388.434
c-15.4131 -0.31543 -197.771 -0.307617 -199.769 -0.243164c-12.0547 0.387695 -28.8174 0.927734 -43.1514 16.8057c-4.18652 4.63867 -23.6533 28.3613 -17.4561 62.29c2.28516 12.5059 5.35645 25.1025 11.0791 46.0693c24.5156 100.855 31.1611 128.193 49.5225 165.82
c15.0205 30.7305 48.1504 77.0049 109.506 69.6689c72.7939 -8.06836 99.9287 -91.6641 119.372 -170c6.83398 -28.4043 13.8115 -56.7539 20.9688 -85.1816c6.27051 -26.1201 12.3398 -51.3984 -3.19531 -77.0996c-7.72656 -12.7832 -22.2266 -28.4004 -46.877 -28.1299z
M698.078 763.49l-113.612 -131.35l26.3848 -23.2129l70.5254 84.2539l2.47949 -227.082l36.1445 1.90039l-4.64355 225.465l68.0801 -80.8809l26.0479 24.626zM302.059 252.025c-7.51735 0 -13.592 -6.08579 -13.592 -13.5425v-300.105
c0 -7.48696 6.10943 -13.5405 13.5405 -13.5405l373.918 -1.50885c7.51507 0 13.5921 6.08243 13.5921 13.5406v158.461l24.1532 -30.721l29.0764 25.7036l-53.2296 61.9774v84.6841c0 7.46398 -6.07512 13.5096 -13.4872 13.5416l-220.215 0.888451
c10.399 8.97824 20.798 17.9565 31.1969 26.9347l-26.8441 27.6925l-60.1299 -54.4024l-2.90877 0.0117722s-95.0407 0.384704 -95.0713 0.384766zM652.433 213.482v-59.5246l-56.5104 -61.9754l27.6863 -26.0562l28.8241 32.1856v-137.645l-326.878 1.40427v253.015
l74.0333 -0.317404l65.4312 -55.1779l24.8166 28.921l-31.8707 26.0049z" />
  </g>

</svg>
