<?xml version="1.0" standalone="no"?>
<!DOCTYPE svg PUBLIC "-//W3C//DTD SVG 1.1//EN" "http://www.w3.org/Graphics/SVG/1.1/DTD/svg11.dtd" >
<svg xmlns="http://www.w3.org/2000/svg" xmlns:xlink="http://www.w3.org/1999/xlink" version="1.1" viewBox="-10 0 1042 1000">
  <g transform="matrix(1 0 0 -1 0 800)">
   <path fill="currentColor"
d="M711.256 83.7607c-30.5039 0 -50.1953 -1.96582 -72.3057 -4.59473c-9.29004 13.6016 -14.457 20.7412 -28.7285 34.5088c-18.835 18.1699 -75.8867 33.8945 -130.73 33.8945c-36.9541 0 -75.917 -6.44238 -109.894 -22.5186
c-16.6992 -7.90625 -27.9141 -17.9541 -44.2158 -40.8125c-24 2.39746 -41.2588 3.62109 -66.1943 3.62109c-36.8574 0 -75.9297 -3.45215 -110.043 -12.041c-13.1367 -3.30859 -33.6436 -11.0195 -48.416 -25.791c-5.83691 -5.83984 -7.48633 -10.959 -7.48633 -16.5391
c0 -13.082 12.6748 -29.0957 15.7881 -32.2109c6.34473 -6.3418 17.3057 -11.8789 25.3682 -15.7041c25.4492 -12.0645 76.2793 -18.1865 125.264 -18.1865c35.3701 0 58.5791 2.51172 78.5234 5.05957c8.66406 -9.27051 10.373 -10.9307 16.6553 -16.5303
c35.5957 -31.7207 112.608 -33.6406 127.756 -33.6406c42.8721 0 84.084 8.09375 105.637 20.7832c15.2988 9.00977 24.2373 17.377 34.4199 27.1963c19.3955 -3.17383 46.0049 -7.03125 89.335 -7.03125c42.7314 0 84.3633 4.48828 106.142 11.3135
c54.2578 17.001 67.4072 42.4873 67.5117 49.1836c0 2.37695 -6.13086 12.7178 -14.085 20.6768c-7.32324 7.32031 -16.8213 13.665 -31.4443 21.1729c-17.0762 8.76562 -70.3857 18.1904 -128.856 18.1904zM847.262 24.3125
c0 -26.0303 -73.1631 -44.3125 -147.262 -44.3125c-22.8193 0 -32.2031 1.04199 -63.2812 5.15723c15.041 28.9111 16.4062 31.6367 19.0664 49.8105l0.467773 0.660156c-0.0908203 0.249023 -6.65137 21.042 -8.07227 25.2314
c26.4004 2.53223 43.5127 4.1709 73.2324 4.1709c39.2842 0 75.3555 -2.77832 94.0977 -12.1514c22.6846 -11.3418 30.4014 -17.4512 31.751 -27.7188v-0.847656zM321.872 3.46582v-13.3672c-26.1348 -3.72754 -44.0537 -5.80957 -71.7314 -5.80957
c-34.6611 0 -68.168 3.92285 -91.5801 14.5469c-20.125 9.13574 -33.1025 18.2373 -33.1025 30.5215c0 17.1621 16.0762 22.3643 27.0459 25.9141c40.5469 13.125 100.534 14.1445 120.465 14.1445c11.8809 0 15.5811 -0.0195312 42.8936 -1.51758
c-2.32227 -18.3496 -2.32227 -18.3496 -2.32227 -23.1953c0 -15.3174 4.12988 -29.2178 8.33203 -41.2373zM575.909 25.1592c0 11.9873 10.4189 15.4971 35.6846 24.0088c5.4834 1.84473 10.1797 3.60156 10.1797 3.60156l30.8164 11.5225
c-8.70996 -6.75293 -17.4199 -13.5068 -26.1299 -20.2598c-3.31445 -10.3184 -3.31445 -10.3184 -3.88574 -11.0322c-10.5439 -13.1855 1.77051 0.0380859 -18.2061 -31.5l-2.73926 -4.32324c-19.0918 12.707 -25.7197 17.1191 -25.7197 27.9824zM544.742 29.29
c0 -7.67285 14.626 -29.3184 27.6602 -41.8887l18.7422 8.15234l4.03125 -9.15332l-33.9287 -15.0703c-26.6631 -11.8447 -59.0684 -18.1895 -90.3867 -18.1895c-43.0361 0 -60.3271 8.62695 -95.5908 26.2197c33.6436 17.3135 38.9736 20.0557 48.708 29.7871
c10.9248 10.9258 11.2197 17.7197 11.2129 18.5732v0.201172c-0.961914 4.5166 -8.5625 15.2158 -13.9365 20.5889c-12.3252 12.3252 -34.2285 22.5039 -34.2285 22.5039c-0.0869141 0.0380859 -16.4092 7.16016 -16.4092 7.16016l-10.418 4.5459
c8.91992 3.9541 17.8398 7.90918 26.7598 11.8633c28.3232 12.5557 67.8408 19.0645 105.081 19.0645c40.4668 0 76.2295 -7.1543 93.4658 -23.3496c1.41602 -1.33301 1.41602 -1.33301 17.0264 -16.3711c-26.0068 -10.3145 -57.7891 -22.9189 -57.7891 -44.6377z
M396.811 28.5107c0 -13.8545 -22.1191 -24.626 -30.791 -26.1064c-3.95703 -0.958008 -7.91406 -1.91699 -11.8711 -2.87598c-0.612305 4.00293 -1.22461 8.00586 -1.83594 12.0088c-4.14355 8.0293 -6.38086 16.7266 -6.38086 26.082c0 4.65918 0 4.65918 3.17773 27.4434
c39.0674 -19.5518 45.9033 -23.0361 47.7012 -36.21v-0.341797zM510.547 725.545c0 10.4854 -0.753906 13.5068 -0.753906 29.0205c0 4.52539 0.0849609 7.92871 0.0849609 8.00879c-0.243164 5.37598 -2.06055 5.70703 -3.70898 5.74316l-28.4375 0.625
c0.0341797 -4.60156 0.0556641 -9.38281 0.0556641 -14.3301c0 -104.935 -9.68945 -284.709 -115.461 -423.651c-23.7598 -31.209 -37.7012 -52.6846 -71.6631 -96.8193l25.4756 -20.1689c20.7373 23.6777 31.7842 49.1816 56.8613 81.0273
c41.8711 53.1758 88.502 136.924 99.3027 211.194c0.176758 1.2168 1.22168 2.13672 2.47461 2.13672c1.12207 0 2.09375 -0.745117 2.39941 -1.80469c45.9609 -159.765 105.148 -223.717 159.972 -283.07c2.97656 -3.22266 5.94141 -6.43164 8.89062 -9.6416
l20.4658 13.6445c-22.1572 17.8936 -149.525 151.631 -163.46 295.101c-3.98633 3.67969 -4.85352 13.0645 -4.85352 24.624c0 46.5244 12.3555 132.792 12.3555 178.361z" />
  </g>

</svg>
