<?xml version="1.0" standalone="no"?>
<!DOCTYPE svg PUBLIC "-//W3C//DTD SVG 1.1//EN" "http://www.w3.org/Graphics/SVG/1.1/DTD/svg11.dtd" >
<svg xmlns="http://www.w3.org/2000/svg" xmlns:xlink="http://www.w3.org/1999/xlink" version="1.1" viewBox="-10 0 1025 1000">
  <g transform="matrix(1 0 0 -1 0 800)">
   <path fill="currentColor"
d="M163.328 371.068c-11.4067 0 -14.8078 -0.830171 -31.9273 -0.830171c-4.97802 0 -8.69035 0.0927344 -8.77814 0.0927344c-4.0892 -0.206658 -4.10838 -1.09945 -4.12538 -1.89131l-0.639595 -29.0398c4.41078 0.0286678 8.96592 0.0461822 13.6569 0.0461822
c115.808 0 314.429 -10.6743 468.189 -127.729c23.2149 -17.6726 66.2287 -47.8951 104.98 -77.6513l19.524 24.6626c-25.4767 21.8157 -53.1333 34.0557 -87.6099 61.2029c-58.3821 45.9712 -150.494 97.1885 -231.735 109.005l-22.9523 3.33833l22.2884 6.4119
c175.763 50.5635 245.738 115.431 311.128 175.831c3.07857 2.84368 6.14716 5.67814 9.21617 8.50129l-12.3128 18.4702c-25.0048 -28.8034 -168.832 -163.115 -324.07 -178.599c-2.07288 -1.90118 -6.25312 -5.39467 -30.2243 -5.39467
c-48.2745 0 -145.174 13.5736 -194.608 13.5736z" />
  </g>

</svg>
