<?xml version="1.0" standalone="no"?>
<!DOCTYPE svg PUBLIC "-//W3C//DTD SVG 1.1//EN" "http://www.w3.org/Graphics/SVG/1.1/DTD/svg11.dtd" >
<svg xmlns="http://www.w3.org/2000/svg" xmlns:xlink="http://www.w3.org/1999/xlink" version="1.1" viewBox="-10 0 1079 1000">
  <g transform="matrix(1 0 0 -1 0 800)">
   <path fill="currentColor"
d="M630.767 340.143l-16.193 -16.6989l113.413 -111.389l191.307 245.568l-17.7183 12.3046l-173.224 -219.417zM165.715 286.473v42.7764h64.376v51.7822h-64.376v42.7764h64.376v56.1914h37.3076v-56.1914h53.6973v52.0898h37.3076v-52.0898h68.8193v-42.7764h-68.8193
v-51.7822h68.8193v-42.7764h-68.8193v-60.3096h-37.3076v60.3096h-53.6973v-56.208h-37.3076v56.208h-64.376zM294 529l-126.38 228.785l26.2803 11.1016l100.896 -173.312l91.9844 175.015l31.3057 -12.6768zM321.096 381.031h-53.6973v-51.7822h53.6973v51.7822z
M21.3984 578.09zM76.666 19v27.7773h833.334v-27.7773h-833.334z" />
  </g>

</svg>
