<?xml version="1.0" standalone="no"?>
<!DOCTYPE svg PUBLIC "-//W3C//DTD SVG 1.1//EN" "http://www.w3.org/Graphics/SVG/1.1/DTD/svg11.dtd" >
<svg xmlns="http://www.w3.org/2000/svg" xmlns:xlink="http://www.w3.org/1999/xlink" version="1.1" viewBox="-10 0 1132 1000">
  <g transform="matrix(1 0 0 -1 0 800)">
   <path fill="currentColor"
d="M861.066 231.241c-18.9396 4.418e-06 -36.5093 10.2275 -57.8018 10.2275c-10.1789 0 -15.0514 -2.67645 -17.2906 -4.86639c-0.41869 -0.464089 -2.02435 -2.27731 -6.83609 -7.73899c4.80711 -11.2203 10.9333 -26.9573 10.9333 -47.1007
c0 -26.2529 -12.2034 -52.3749 -20.2203 -62.3445c-4.54491 -6.17358 -9.85557 -12.1657 -15.6202 -17.9303c-17.8024 -17.8024 -39.8953 -33.6984 -59.0138 -41.4337c-44.386 -17.9551 -82.2319 -18.2046 -85.5959 -18.2046c-29.1554 0 -70.4223 10.6919 -75.8644 14.2056
c-38.2115 16.0745 -83.566 60.4094 -99.679 104.647c-2.17196 5.62732 -8.46675 11.6173 -15.2448 13.0986c-1.77631 0.0985513 -3.81871 0.135291 -6.02182 0.138676c-0.183392 -0.0302852 -10.9449 -1.88241 -16.4626 -8.63027
c-37.1908 -45.4721 -100.521 -68.3079 -140.348 -68.3079c-94.1938 0 -170.716 82.7716 -170.716 172.122c0 44.1947 26.1122 96.8015 44.8637 115.967c3.76014 3.92941 5.62945 8.92297 5.62945 13.8755c0 4.93599 -1.80037 9.82342 -5.58049 13.7125
c-24.1568 24.1835 -43.1495 70.0393 -43.1802 103.961c0 3.80203 4.61767 41.0566 9.46014 51.8137c20.6923 47.526 79.4712 89.1176 134.848 90.4523h0.302291l0.356107 -0.0143092c47.576 -1.67742 107.336 -36.8511 130.459 -89.2674
c3.01448 -6.20973 10.4822 -11.5996 18.5024 -11.5996c5.5964 0 8.67498 2.07282 11.6613 4.04673c28.3866 18.7655 77.6429 33.6349 111.611 33.6349c2.59107 0 6.71257 -0.108057 8.09516 -0.143972c0.0649129 0 0.116236 -0.00303372 0.150619 -0.00303372
c8.00739 0.0813517 15.8493 6.10909 18.5369 12.8989c23.5015 56.9895 91.3192 103.89 153.952 106.175c1.18457 1.04854 2.14628 1.24518 2.75834 1.24518c0.367354 0 0.608753 -0.070836 0.696784 -0.0708363c7.72269 0 86.2961 -25.4848 113.629 -52.8182
c10.3133 -10.3143 40.3272 -43.0067 48.0409 -85.6046c2.24868 -11.3239 12.1923 -16.2676 18.7754 -16.4774c88.4709 -2.3755 160.249 -76.111 160.249 -164.607c0 -1.6466 -1.15392 -68.599 -44.7604 -112.206c-25.7856 -25.7846 -56.0803 -38.9722 -58.8063 -40.0475
c-23.6902 -9.3417 -50.9792 -12.8066 -64.4674 -12.8066zM535.182 55.4694l-0.111328 0.0488281l4.0231 9.1569l0.111328 -0.0488281zM58.8965 266.104c0 -109.34 96.0994 -201.115 195.453 -201.115c74.539 0 133.164 46.3746 142.465 54.3181l14.8503 12.6823
c13.7445 -21.4579 21.3451 -34.4874 42.3809 -55.4258c21.472 -21.472 47.8095 -40.4567 71.4887 -49.7944c21.9953 -8.57891 58.9793 -15.5284 82.5823 -15.5284c30.6051 0 63.813 7.11736 100.602 21.3188c23.4128 9.03733 51.9155 29.1256 72.8248 50.0349
c7.80247 7.80247 14.5517 15.7117 19.6012 23.1065c9.06755 13.2796 20.3167 49.7326 20.3167 74.7195c0 1.79359 0 1.79359 -1.02895 25.1913c27.6957 -5.59291 33.2411 -6.71274 41.3082 -6.71274c9.05893 0 47.5364 4.92849 74.0058 16.2094
c28.4011 11.5572 66.1279 41.1186 84.0963 65.9697c20.413 28.52 36.9868 80.1772 36.9868 115.234c0 25.3279 -9.02464 64.2945 -20.1629 87.049c-19.3086 39.4484 -82.5187 94.4349 -149.442 105.053c-3.47532 0.552011 -6.95064 1.10402 -10.426 1.65603
c-6.62988 21.3745 -17.2919 55.7484 -55.6082 94.0647c-21.8632 21.8632 -69.396 60.2025 -132.312 60.2025c-81.5143 0 -151.87 -59.9299 -178.533 -110.663l-4.45467 -8.47632c-41.1544 -2.4885 -76.0003 -11.5261 -107.099 -26.8492l-13.3674 -6.58685
c-13.0925 19.5733 -16.8023 25.1193 -28.8256 37.1426c-32.4062 32.4062 -81.0673 56.933 -124.116 58.3336c-0.51751 0.00922478 -0.965369 0.0119844 -1.49049 0.0119844c-51.439 0 -132.568 -42.5092 -159.632 -111.655
c-5.01678 -13.4857 -9.1176 -45.6663 -10.6344 -57.9443c-0.270071 -2.18612 -0.440042 -3.64011 -0.587246 -4.59988c0.129084 -33.2372 16.0924 -79.4129 37.3967 -108.38l7.18699 -9.77127l-6.91456 -9.96786c-22.1918 -31.9874 -38.9112 -82.8588 -38.9112 -118.828z
" />
  </g>

</svg>
