<?xml version="1.0" standalone="no"?>
<!DOCTYPE svg PUBLIC "-//W3C//DTD SVG 1.1//EN" "http://www.w3.org/Graphics/SVG/1.1/DTD/svg11.dtd" >
<svg xmlns="http://www.w3.org/2000/svg" xmlns:xlink="http://www.w3.org/1999/xlink" version="1.1" viewBox="-10 0 1100 1000">
  <g transform="matrix(1 0 0 -1 0 800)">
   <path fill="currentColor"
d="M906.214 490.619c0 9.49805 0.360352 25.4824 0.360352 28.9043l-0.319336 61.375l-8.69434 54.7803l-24.0576 41.7598l-29.835 19.125l-33.9414 8.02539l-47.9502 1.85156v0.765625l-107.704 8.96094l-161.614 -4.84375l-135.511 -48.0117l4.97363 -24.8711
l90.1514 34.2041l168.52 13.9902l163.859 -8.05859l72.0586 -32.085l24.6846 -76.583c-11.2969 -92.7227 -11.5391 -94.709 -10.6221 -98.1963c0.272461 -1.03711 0.408203 -1.98828 0.495117 -2.92188c0.487305 -0.642578 1.13379 -1.58594 1.48633 -2.05664
l30.4463 -40.7334l38.043 -60.0684c7.97656 -11.167 15.9531 -22.335 23.9307 -33.502l-96.7119 -80.25l-3.19922 -219.288c0.962891 -7.5625 2.78418 -22.0107 5.01758 -45.877c-0.128906 -0.269531 -9.65137 -20.9678 -12.835 -27.0195
c-1.80566 -3.43262 -3.36328 -6.39453 -8.94434 -11.126c-28.7266 -6.87207 -37.6748 -9.0127 -53.7939 -9.0127c-3.38477 0 -6.77832 0.143555 -10.1738 0.446289l-127.95 -3.2207l-189.706 31.9736l-119.91 72.0254c-7.29102 10.5156 -14.582 21.0303 -21.8721 31.5459
c-0.186523 0.125977 -14.9551 10.3477 -18.583 12.6523v-31.4639c5.41699 -3.87109 13.5068 -7.3623 24.4395 -17.25c7.32617 -6.62598 2.0957 -4.45605 10.624 -11.9268c1.03027 -0.901367 1.03027 -0.901367 17.2002 -21.8057l70.2646 -41.1396l123.979 -35.7686
l40.8359 -3.74609c52.8252 -4.90723 59.0664 -6.73242 83.0469 -7.42676l68.0791 -1.97266l89.7607 0.253906l51.1064 12.4912l15.1377 25.208l6.27734 34.1602l-0.268555 82.9482l0.0292969 84.2285l-0.00585938 87.5186l84.7832 67.8018l7.68555 8.9668l1.11523 7.19531
c0.449219 7.6123 -1.52441 12.8018 -3.3125 18.1777l-23.3301 38.8447l-33.0244 43.4482l-34.3174 48.9014c-0.203125 16.1299 -0.203125 16.1299 -0.203125 17.6953zM85.2314 526.457h282.431v-121.525h-282.431v-17.293l303.769 0.361328l-2.73828 155.404
l-301.03 0.331055v-17.2783zM633.69 244.307c6.32922 0 21.9937 28.7476 54.7517 28.7476c12.6435 0 29.0626 -7.68361 34.1827 -13.5295c7.36574 -8.40713 12.2626 -21.4574 12.2626 -31.8563v-0.21875c0 -21.298 -11.2991 -37.478 -24.0038 -50.181l-74.0284 -71.2813
c-0.966344 -0.930484 -2.21603 -1.39566 -3.46568 -1.39566c-1.25134 0 -2.50264 0.466427 -3.46938 1.39914l-73.6406 71.0473c-7.87508 7.87508 -24.1276 26.8888 -24.1276 49.6759c0 0.365173 5.71369 26.2216 13.4445 33.9524
c4.59406 4.59406 20.8607 12.3711 32.9628 12.3711c22.2094 0 40.3306 -16.7049 47.8715 -24.2458c4.4362 -4.43519 4.40342 -4.4798 6.91458 -4.4798c0.0889732 0 0.20439 -0.00544668 0.344974 -0.00544668zM633.025 270.48c-6.2282 0 -21.4687 21.6356 -54.9662 21.6356
c-19.0746 0 -39.4772 -10.8031 -47.3258 -18.6517c-6.99221 -6.99137 -17.9408 -28.4412 -17.9408 -45.6715c0 -0.99814 0.0304998 -2.21909 0.0812423 -3.2874l0.00774114 -0.161671c0.00382817 -0.0803916 0.00574315 -0.16087 0.00574315 -0.241361
c-0.00434722 -23.3088 15.8294 -49.2049 30.975 -62.3314c0.106139 -0.0919891 0.106139 -0.0919891 77.222 -74.7701c3.26133 -3.15765 7.47422 -5.01572 12.1321 -5.01572c6.41866 0 9.64905 2.87808 12.3707 5.26211c0.25717 0.225664 58.0962 55.5981 78.2745 75.7755
c29.0336 29.0336 30.0325 52.7037 30.0325 64.5132v0.166016c0 17.4952 -9.48101 37.2156 -18.9662 46.7008c-7.10302 7.10302 -29.2831 17.9696 -46.5588 18.0179c-24.0515 -0.493952 -31.7827 -6.0235 -52.4144 -20.9926
c-0.870605 -0.631657 -1.89992 -0.947558 -2.92929 -0.947558z" />
  </g>

</svg>
