<?xml version="1.0" standalone="no"?>
<!DOCTYPE svg PUBLIC "-//W3C//DTD SVG 1.1//EN" "http://www.w3.org/Graphics/SVG/1.1/DTD/svg11.dtd" >
<svg xmlns="http://www.w3.org/2000/svg" xmlns:xlink="http://www.w3.org/1999/xlink" version="1.1" viewBox="-10 0 1030 1000">
  <g transform="matrix(1 0 0 -1 0 800)">
   <path fill="currentColor"
d="M588.475 147.039c5.91211 0 16.5811 0 34.5459 -13.1875c15.9912 -11.7393 15.9365 -15.541 19.5215 -15.541c0.212891 0 0.449219 0.00292969 0.71875 0.00292969c2.4375 0 3.76074 1.32324 4.55566 2.11816c10.1748 10.1748 25.9375 26.624 50.541 26.624
c12.1182 0 29.8311 -8.29297 34.3945 -13.7734c6.4082 -7.69531 12.0518 -22.0195 12.0518 -31.6133c0 -8.41992 0 -26.3096 -25.4297 -51.8008l-76.0752 -73.2197c-76.7129 74 -76.7129 74 -77.1035 74.3906c-6.69043 6.68945 -23.0684 23.0674 -24.1436 50.333
c5.95117 20.4648 8.59668 29.5615 13.998 33.7822c8.1543 6.37207 22.7031 11.8848 32.4248 11.8848zM587.975 166.115c-18.8184 0 -39.1055 -10.4307 -47.3262 -18.6514c-7.00195 -7.00293 -17.9395 -28.4297 -17.9395 -45.6719
c0 -1 0.0302734 -2.22461 0.0800781 -3.29688l0.0136719 -0.274414v-0.275391c0.0986328 -30.9346 21.4395 -52.9307 31.0605 -62.2471l77.1367 -74.6982c3.26172 -3.1582 7.47363 -5.01465 12.1318 -5.01465c6.36621 0 9.76758 2.98047 12.3701 5.26074
c0.819336 0.71875 58.7051 56.2061 78.2744 75.7754c29.0293 29.0293 30.0332 52.7148 30.0332 64.5137v0.166016c0 17.3428 -9.28516 37.0195 -18.9658 46.7012c-7.11523 7.11523 -29.2725 17.9688 -46.5605 18.0186c-23.9863 -0.484375 -31.79 -5.73145 -55.3418 -23.2266
c-17.1357 12.7168 -30.8857 22.9209 -54.9668 22.9209zM588.475 147.039c5.91211 0 16.5811 0 34.5459 -13.1875c15.9912 -11.7393 15.9365 -15.541 19.5215 -15.541c0.212891 0 0.449219 0.00292969 0.71875 0.00292969c2.4375 0 3.76074 1.32324 4.55566 2.11816
c10.1748 10.1748 25.9375 26.624 50.541 26.624c12.1182 0 29.8311 -8.29297 34.3945 -13.7734c6.4082 -7.69531 12.0518 -22.0195 12.0518 -31.6133c0 -8.41992 0 -26.3096 -25.4297 -51.8008l-76.0752 -73.2197c-76.7129 74 -76.7129 74 -77.1035 74.3906
c-6.69043 6.68945 -23.0684 23.0674 -24.1436 50.333c5.95117 20.4648 8.59668 29.5615 13.998 33.7822c8.1543 6.37207 22.7031 11.8848 32.4248 11.8848zM587.975 166.115c-18.8184 0 -39.1055 -10.4307 -47.3262 -18.6514
c-7.00195 -7.00293 -17.9395 -28.4297 -17.9395 -45.6719c0 -1 0.0302734 -2.22461 0.0800781 -3.29688l0.0136719 -0.274414v-0.275391c0.0986328 -30.9346 24.8535 -56.9355 31.0605 -62.2471l77.1367 -74.6982c3.26172 -3.1582 7.47363 -5.01465 12.1318 -5.01465
c6.36621 0 9.76758 2.98047 12.3701 5.26074c0.819336 0.71875 58.7051 56.2061 78.2744 75.7754c29.0293 29.0293 30.0332 52.7148 30.0332 64.5137v0.166016c0 17.3428 -9.28516 37.0195 -18.9658 46.7012c-7.11523 7.11523 -29.2725 17.9688 -46.5605 18.0186
c-23.9863 -0.484375 -31.79 -5.73145 -55.3418 -23.2266c-17.1357 12.7168 -30.8857 22.9209 -54.9668 22.9209zM90.2314 357.457h282.431v-121.525h-282.431v-17.293l303.769 0.361328l-2.73828 155.404l-301.03 0.331055v-17.2783zM94.6631 576.706h282.431v-121.525
h-282.431v-17.293l303.769 0.361328l-2.73828 155.404l-301.03 0.331055v-17.2783zM852.399 472.025c0 9.51562 0.360352 25.5273 0.360352 28.9561l-0.319336 61.4814l-8.69434 54.875l-24.0576 41.833l-29.8359 19.1582l-33.9404 8.03906l-47.9502 1.85449v0.766602
l-107.704 8.97754l-161.614 -4.85254l-135.511 -48.0947l4.97363 -24.915l90.1514 34.2637l168.52 14.0146l163.858 -8.07227l72.0586 -32.1406l24.6855 -76.7168c-11.2969 -92.8838 -11.5391 -94.874 -10.6221 -98.3672
c0.272461 -1.03906 0.408203 -1.99121 0.495117 -2.92773c0.487305 -0.642578 1.13379 -1.58691 1.48633 -2.05957l30.4463 -40.8037l38.043 -60.1729c7.97656 -11.1875 15.9531 -22.374 23.9297 -33.5605l-96.7109 -80.3896l-3.2002 -219.669
c0.962891 -7.57617 2.78516 -22.0498 5.01855 -45.957c-0.128906 -0.270508 -9.65137 -21.0049 -12.835 -27.0674c-1.80566 -3.43848 -3.36328 -6.40527 -8.94434 -11.1455c-28.7266 -6.88379 -37.6748 -9.02832 -53.7949 -9.02832
c-3.38379 0 -6.77832 0.143555 -10.1729 0.447266l-127.95 -3.22559l-189.706 32.0283l-119.91 72.1514c-7.29102 10.5342 -14.582 21.0674 -21.873 31.6006c-0.185547 0.125977 -14.9541 10.3652 -18.583 12.6738v-31.5176
c5.41699 -3.87793 13.5068 -7.37598 24.4404 -17.2803c7.32617 -6.6377 2.0957 -4.46484 10.624 -11.9473c1.03027 -0.904297 1.03027 -0.904297 17.2002 -21.8438l70.2646 -41.2109l123.979 -35.832l40.8359 -3.75195c52.8252 -4.91602 59.0664 -6.74414 83.0459 -7.44043
l68.0801 -1.97559l89.7607 0.254883l51.1064 12.5127l15.1377 25.252l6.27734 34.2188l-0.269531 83.0928l0.0292969 84.375l-0.00585938 87.6719l84.7842 67.9189l7.68555 8.98242l1.11523 7.20801c0.449219 7.62598 -1.52539 12.8242 -3.3125 18.21l-23.3301 38.9121
l-33.0244 43.5234l-34.3184 48.9863c-0.202148 16.1582 -0.202148 16.1582 -0.202148 17.7256z" />
  </g>

</svg>
