<?xml version="1.0" standalone="no"?>
<!DOCTYPE svg PUBLIC "-//W3C//DTD SVG 1.1//EN" "http://www.w3.org/Graphics/SVG/1.1/DTD/svg11.dtd" >
<svg xmlns="http://www.w3.org/2000/svg" xmlns:xlink="http://www.w3.org/1999/xlink" version="1.1" viewBox="-10 0 995 1000">
  <g transform="matrix(1 0 0 -1 0 800)">
   <path fill="currentColor"
d="M703.622 12.0186c0.628906 0.0253906 40.3887 0.00390625 40.4004 0.0234375c-12.2471 51.3672 -8.80664 67.9062 -4.33984 82.3184c0.0419922 0.129883 3.49805 12.0781 3.96875 13.0205l28.8848 57.7686c-14.7832 229.151 -14.7832 229.151 -14.7002 230.136
c4.85645 57.6523 9.09082 124.899 4.13965 167.976c-12.873 51.1279 -44.8125 40.3389 -52.2744 23.9854c-2.63574 -5.7793 -5.60742 -6.45996 -13.2773 -8.21582c-5.95996 -5.33301 -15.3359 -4.16602 -19.7959 2.5498c-5.58887 8.41699 -31.4463 48.459 -32.1279 49.7891
c-9.35059 18.3145 -45.4238 29.583 -52.3174 -6.67285c-0.249023 -1.31055 -0.249023 -1.31055 -12.5625 -31.3232c-4.58691 -11.1807 -20.7598 -10.7158 -24.6895 0.71582l-23.1621 67.3809c-6.19238 18.0127 -44.8262 32.3975 -65.2354 -1.71484
c-0.375977 -1.12207 -3.13281 -9.47852 -18.0254 -56.1885c-3.2373 -10.1523 -16.749 -12.4727 -23.1699 -3.84473c-19.0518 25.5986 -19.0518 25.5986 -19.3877 25.9346c-0.125977 0.126953 -21.7588 21.7236 -34.0146 9.46777
c-6.71191 -6.71191 -10.5078 -23.0967 -12.1807 -33.1445c0.0488281 -1.50684 0.347656 -10.3984 1.99805 -53.5254c0.982422 -26.8564 2.17676 -84.249 2.20215 -85.0996c7.85547 -55.9873 4.22168 -57.7354 8.30664 -87.6904
c0.297852 -1.15332 2.5625 -9.88184 14.3262 -54.4141c0.115234 -0.4375 1.19043 -25.3691 -2.2207 -31.168c-8.38477 -14.2549 -8.9668 -15.2451 -14.5 -16.5117c-21.8965 -5.0166 -28.8242 -0.606445 -36.2275 9.66602c-3.80859 5.28418 -29.71 31.2432 -32.3135 34.2471
l-54.2773 62.6289c-1.46777 0.969727 -9 5.9043 -31.6602 20.2578c-1.32422 0.402344 -7.66797 2.29688 -26.8193 7.66016c-5.35645 -2.93848 -11.7393 -1.16699 -16.583 -6.00977c-3.5127 -3.5127 -7.56543 -15.2832 -6.27637 -21.9492l29.9443 -40.2725
c5.76953 -5.40723 36.4248 -32.1289 37.9258 -33.9443c44.748 -54.1133 44.748 -54.1133 44.9639 -54.4062c32.5205 -44.0586 32.5205 -44.0586 32.7646 -44.4404c29.3232 -46.082 29.3232 -46.082 29.7393 -47.0439l22.6475 -52.501
c6.25684 -9.7002 30.4463 -46.1963 31.0928 -47.4268c10.1904 -19.3623 10.1904 -19.3623 10.5752 -20.9727c7.58301 -31.7744 61.2852 -33.3564 61.9893 -33.3701l58.7402 -1.04883zM744.024 -14.3652h-39.5752c-178.04 -7.39453 -178.04 -7.39453 -178.436 -7.3877
l-59.1631 1.05762c-9.39453 0.174805 -73.5244 3.1748 -86.7236 51.8945l-8.40527 15.9678c-30.7568 46.6592 -30.2344 45.1143 -32.0947 49.4277l-22.4033 51.9336l-27.957 43.9326l-31.7656 43.0371l-43.623 52.7549c-37.4746 33.1895 -37.4746 33.1895 -39.1211 35.4033
l-30.624 41.1836c-10.9248 14.6924 -3.29883 43.3623 9.1875 55.8477c7.32031 7.32031 14.2236 9.55762 24.458 11.4414c5.66113 2.53027 12.0322 2.96875 17.9404 1.31543c27.8613 -7.80176 28.4668 -7.38965 33.3643 -10.4912
c29.8975 -18.9355 32.165 -19.6504 36.4473 -23.9326c0.499023 -0.5 -0.641602 -1.54395 55.5264 -63.9922c29.2656 -32.5371 30.4082 -31.4932 34.6104 -37.1885c0.694336 0.0625 1.64746 0.180664 2.85059 0.375977l1.41406 2.4043l0.632812 15.7812
c-14.0791 53.2705 -13.9219 51.7979 -14.3994 55.2764c-4.39941 32.0293 -0.530273 32.4863 -8.43652 88.6133c-0.121094 0.863281 -1.70215 69.4023 -2.35059 87.1465c-2.11133 55.1445 -2.61719 52.9717 -1.79297 58.0723
c2.56934 15.9268 8.49219 52.6348 39.5059 59.1748c25.7861 5.43945 50.7803 -18.7686 54.21 -23.377l3.83984 -5.16016c10.3047 32.6963 9.97461 32.4785 12.3896 36.585c31.918 54.2881 99.7686 36.4131 113.198 -2.65234l11.3301 -32.9639
c15.8076 53.1172 79.3896 45.208 99.6211 6.91211c0.237305 -0.364258 22.7275 -35.3066 23.5752 -36.6123c22.1904 28.6816 78.3867 33.5176 96.3154 -37.6758c0.28418 -1.13574 0.495117 -2.28613 0.62793 -3.44336c5.40527 -47.0342 0.891602 -114.295 -3.97852 -172.258
l14.6562 -227.179c0.298828 -4.61621 -0.610352 -9.2959 -2.72461 -13.5254l-28.2451 -56.4883c-0.811523 -3.14746 -1.7627 -6.29199 -3.01367 -10.333c-3.51562 -11.3428 -7.22656 -17.8789 4.80371 -68.3291c3.95508 -16.584 -8.61426 -32.5498 -25.6719 -32.5498z
M685.188 114.437l-295.2 0.864258v17.1035h264.679v97.1201h-264.679v17.1045l292.576 -1.44043zM658.592 448.249c-42.1514 -44.1045 -99.8525 -107.169 -128.295 -134.554v-28.2197h-9.74805v28.2197l-128.295 134.554l6.91992 7.15723l121.375 -127.295v115.945
l-0.292969 -0.306641l-76.041 79.8525l6.9209 7.1582l69.4131 -72.7988v134.247h9.74805v-136.394l70.1924 73.6152l6.92285 -7.25879l-74.7744 -78.4219l-2.34082 2.55664v-118.195l121.374 127.295z" />
  </g>

</svg>
