<?xml version="1.0" standalone="no"?>
<!DOCTYPE svg PUBLIC "-//W3C//DTD SVG 1.1//EN" "http://www.w3.org/Graphics/SVG/1.1/DTD/svg11.dtd" >
<svg xmlns="http://www.w3.org/2000/svg" xmlns:xlink="http://www.w3.org/1999/xlink" version="1.1" viewBox="-10 0 972 1000">
  <g transform="matrix(1 0 0 -1 0 800)">
   <path fill="currentColor"
d="M592.162 -2.64453c-6.48631 0 -11.833 5.28008 -11.833 11.833v240.084c0 6.50695 5.29661 11.833 11.8768 11.833c0 0 65.7808 -0.266007 77.9974 -0.315402l52.046 47.0879c3.43504 -26.9775 3.43504 -26.9775 4.76432 -51.5598l164.49 3.58456
c6.35195 0 11.6655 -5.28664 11.6655 -11.8373v-67.3766l47.4028 -55.1928c-43.6188 2.40107 -43.6188 2.40107 -48.8219 3.14417l1.42033 -120.739c0 -6.4347 -5.3078 -11.7526 -11.8781 -11.7526zM871.655 27.8626l3.04494 98.2963l-15.5639 -2.39462l-36.374 4.82183
l48.7399 53.4539v46.2786l-142.781 1.83454c-0.434266 -15.8752 -0.434266 -15.8752 -2.12679 -48.8555l-56.7358 47.8439l-57.8597 0.248036v-200.412zM34.3545 -40.4795h55.5146l17.1611 52.2256l17.1602 -52.2256h55.5156l-44.8672 -32.2959l17.1611 -52.2246
l-44.9697 32.2959l-44.9707 -32.2959l17.1611 52.2246zM430.254 338.516c-27.8818 -0.206055 -43.6768 34.1436 -22.9248 54.8955c3.625 3.625 7.66797 6.13379 11.8711 7.65723l-1.0459 141.684l-93.9814 -3.875c-0.191406 0.737305 -0.479492 1.85059 -0.746094 3.25684
l-0.09375 -0.0244141l-1.50195 5.79004l0.946289 0.24707c-0.0361328 1.45996 0.0166016 3.02637 0.206055 4.66699c-0.386719 -0.0351562 0.422852 5.86133 0.277344 8.37402l-1.81348 3.55957c6.89941 -0.363281 6.89941 -0.363281 8.52246 -0.506836l88.0303 3.75977
l0.795898 131.802c-19.916 7.88672 -28.4922 35.1484 -10.9482 52.6914c20.583 20.584 54.6826 5.19238 54.8867 -22.46c0.0927734 -12.6523 -7.39355 -23.8232 -18.1504 -29.1426c-0.385742 -1.14746 -0.489258 -1.53613 -0.420898 -1.64453l0.413086 -130.964
l126.237 0.931641c1.55078 3.62891 3.86719 7.1123 7.03418 10.2793c20.583 20.584 54.6826 5.19238 54.8867 -22.46c0.129883 -17.584 -14.3818 -32.3057 -31.9619 -32.4355c-13.8496 -0.102539 -24.7168 8.32129 -29.6045 19.3691l-126.416 -0.933594l1.06641 -144.444
c9.42285 -5.33789 16.3057 -15.2588 16.3975 -27.6377c0.128906 -17.584 -14.3809 -32.3057 -31.9619 -32.4355zM297.272 568.598c-27.8828 -0.206055 -43.6777 34.1436 -22.9248 54.8955c20.583 20.584 54.6826 5.19238 54.8867 -22.46
c0.129883 -17.584 -14.3818 -32.3057 -31.9619 -32.4355zM291.272 473.598c-27.8828 -0.206055 -43.6777 34.1436 -22.9248 54.8955c20.583 20.584 54.6826 5.19238 54.8867 -22.46c0.129883 -17.584 -14.3818 -32.3057 -31.9619 -32.4355z" />
  </g>

</svg>
