<?xml version="1.0" standalone="no"?>
<!DOCTYPE svg PUBLIC "-//W3C//DTD SVG 1.1//EN" "http://www.w3.org/Graphics/SVG/1.1/DTD/svg11.dtd" >
<svg xmlns="http://www.w3.org/2000/svg" xmlns:xlink="http://www.w3.org/1999/xlink" version="1.1" viewBox="-10 0 1122 1000">
  <g transform="matrix(1 0 0 -1 0 800)">
   <path fill="currentColor"
d="M91.3594 558.63l2.22168 -7.58789c0.858398 0.485352 1.78906 0.899414 2.60156 1.43066zM179.28 677.72l0.207031 0.195312s-0.174805 -0.164062 -0.207031 -0.195312zM798.289 138.486c0 32.7031 11.0049 56.8066 42.3174 107.231
c16.2285 26.1289 47.6152 83.4629 48.0723 84.3193c3.44434 6.45508 5.81348 10.126 14.999 10.126h1.05273c5.99805 -2.63184 8.1875 -4.78711 13.2998 -16.333c51.0312 -89.7441 51.0312 -89.7441 59.1133 -102.503c1.86914 -2.75195 19.5195 -29.4482 25.0391 -48.9541
c2.55469 -8.59082 4.41992 -21.3936 4.41992 -30.3555c0 -56.6914 -50.248 -107.018 -107.603 -107.018c-23.5693 0 -54.2305 12.6758 -70.9219 29.3008c-19.7383 19.8018 -29.7891 46.2305 -29.7891 74.1855zM899.306 58.0947c48.3281 0 84.3232 42.4893 84.3232 83.501
c0 8.7373 -2.42578 22.6514 -6.23828 31.9873c-4.43066 10.1162 -13.4062 26.3525 -19.7344 35.6191c-20.7783 33.0586 -36.3496 62.5322 -55.959 95.7881c-36.7617 -64.1602 -36.8311 -64.2803 -44.4033 -76.585c-22.584 -37.3789 -35.8896 -59.4834 -35.8896 -90.3525
c0 -21.9844 7.71777 -42.0957 22.5283 -56.9062c13.1855 -13.1836 39.1377 -23.0518 55.373 -23.0518zM606.913 373.904zM175.152 664.377zM74.7842 518.155l-0.15625 -0.969727l0.0185547 -0.322266l7.13477 0.169922zM84.5361 526.415
c-0.342773 0.765625 -0.342773 0.765625 -2.9668 2.0127l-3.80371 -2.53027l1.50879 -2.69336zM85.4893 530.984l-7.50195 1.41699s-0.117188 -0.834961 -0.118164 -0.90625zM85.8975 534.245l-6.71191 2.81348l-0.269531 -0.760742zM93.959 554.505l-2.89746 5.8457
l-2.55469 -2.2627zM184.316 672.683l-4.95117 5.10254l-0.532227 -0.575195zM662.604 564.303c9.17969 26.3652 9.17969 26.3652 10.9971 31.5l11.9424 -4.13867zM669.14 592.542h17.1396l-11.9717 -14.2803c-5.11621 6.82129 -5.16797 6.88965 -5.16797 9.28125v4.99902z
M683.455 587.331c0 -3.93066 -3.18945 -7.09668 -7.10254 -7.09668c-1.20605 0 -1.25488 0.0166016 -7.44238 2.1709l3.4668 9.96875l-4.4873 24.6504c15.5654 -27.8359 15.5654 -27.8359 15.5654 -29.6934zM773.886 502.136
c-0.147461 0.12793 -7.54004 6.69238 -13.8682 13.8008l-28.4092 -12.7129c8.84961 7.56738 17.7002 15.1357 26.5498 22.7031c0 0 52.832 44.9951 71.1016 60.5547c-32.3789 -0.448242 -151.025 -2.0918 -151.025 -2.0918
c-0.0878906 0 -0.27832 -0.00683594 -0.509766 -0.00683594l-0.0576172 8.56641l-2.58789 -7.43945c-0.532227 0.433594 -10.2793 10.6572 -12.2881 27.2627l0.160156 0.30957l-3.98145 6.68066l169.625 -1.81152c-9.20898 7.68359 -31.9912 26.5713 -78.3906 65.0381
c4.65137 6.52734 10.8115 15.1699 20.8447 23.7607c7.35059 -5.76562 8.22656 -6.45215 122.204 -103.892l-113.087 -100.938l-3.21875 8.46777zM882.095 605.509l6.9834 -6.38086c0.661133 0.904297 1.00781 2.12207 1.54688 3.14746zM769.77 704.128l1.79395 -4.88672
l1.58984 4.95703zM492.296 739.198c-7.39258 0 -44.7295 -1.22168 -68.6045 -25.0967c-4.53613 -4.53516 -11.9229 -10.3301 -32.2402 -10.3301c-16.7324 0 -29.8057 4.69629 -33.3369 6.1377c-2.21973 0.719727 -4.93066 2.56738 -9.33789 6.97461
c-15.4775 15.4766 -37.3213 19.1758 -52.8799 19.1758c-34.0977 0 -81.7188 -17.9668 -105.96 -57.1396c-3.9502 -6.38086 -91.6279 -123.8 -92.5947 -125.019c-2.20703 -0.342773 -2.20703 -0.342773 -2.46484 -0.391602
c-7.35547 -21.8789 -9.23438 -15.7822 -9.23438 -26.5156v-2.38965c-1.125 -2.33594 -2.76074 -5.89355 -3.08789 -7.49512l2.9873 -26.0723c4.25586 -37.9893 30.5869 -73.0527 55.9209 -98.3877c77.1094 -77.1084 160.738 -89.6104 250.722 -89.6104
c111.95 0 158.837 13.0771 228.334 67.9932c82.9307 65.5283 84.0117 81.1289 87.0615 141.174c-0.0820312 0.229492 -12.7852 35.6895 -16.1982 45.1543c-0.75 2.07617 -2.89844 3.67773 -3.79883 5.22266c-3.34863 5.6748 -15.2793 25.9385 -15.4463 26.1924
c-5.18164 7.88672 -7.68848 11.7021 -11.7725 24.2393l0.426758 0.212891c-0.955078 0.442383 -1.20996 0.560547 -4.19531 1.86523c-8.60938 15.2461 -11.9521 33.165 -17.5684 39.375v-7.22852c-9.31445 13.1865 -9.31445 13.1865 -10.4844 14.4873
c-1.07031 1.18945 -2.57812 2.86719 -4.32812 5.15625l-9.62305 -5.6582l4.08789 10.415c-64.2607 63.8691 -103.772 67.5586 -126.384 67.5586zM604.101 637.424c28.0049 28.0947 28.0049 28.0947 29.3369 28.6777l3.18457 1.39355
c2.91895 -3.0166 2.91895 -3.0166 4.73438 -6.31641c-2.34766 -3.4834 -2.81543 -4.17773 -4.54395 -4.73633zM677.391 481.99c0 -27.8311 -21.6533 -51.0615 -80.7461 -99.3477c-55.418 -45.2852 -93.1309 -60.4736 -216.309 -60.4736
c-64.2227 0 -116.827 8.47559 -177.425 50.8936c-69.5342 48.6777 -85.8115 86.916 -85.8115 125.162l0.0869141 6.2207c-0.0273438 0.513672 11.0498 45.6865 13.7588 49.5215c21.4814 30.3018 42.8125 60.7529 64.3877 90.9609l16.3311 16.1055
c1.3291 2.71777 4.38281 9.74414 5.58203 12.2871c2.53613 1.88477 10.3555 6.93457 12.4316 8.44336c22.833 16.6338 40.1748 29.4727 65.5439 29.4727c0.317383 0 23.6738 -0.662109 30.8682 -7.24902c7.43555 -6.80859 9.59082 -7.83203 9.59082 -7.83203
c1.24805 -0.341797 18.7461 -19.1006 54.7568 -19.1006c3.81055 0 38.3799 0.546875 49.9512 20.1914c1.26465 2.14648 3.11719 5.10352 7.99414 9.98047c2.15625 2.15527 18.6611 12.165 45.3516 12.165c29.6543 0 43.4111 -12.3936 54.874 -23.0273
c19.1055 -17.7246 45.1787 -35.707 45.5898 -36.1182c2.44434 -2.44434 2.44434 -2.44434 28.1357 -43.2686l-0.255859 -0.391602c0.802734 -1.04004 1.73145 -2.34277 2.81445 -3.90039c0 0 1.48438 -2.13281 1.47754 -2.15137
c1.16211 -1.74414 1.33008 -1.99707 1.96191 -2.95996c3.3916 -3.40723 8.63867 -8.74902 10.2217 -16.3086l0.975586 -1.62012l-0.163086 -0.736328c8.89453 -12.4922 12.8037 -18.6357 18.0098 -27.3174l0.503906 0.203125
c0.621094 -1.9541 1.4668 -3.68359 2.50391 -5.2207l-0.487305 -0.200195c1.4873 -4.18066 2.38574 -8.91211 7.55957 -34.624c0.969727 -2.2959 4.10645 -8.47754 4.37793 -9.56055c4.33398 -17.2979 5.55664 -22.1396 5.55664 -30.1992zM441.516 697.813
c0 1.2373 0.365234 1.97559 0.599609 2.38867l8.9834 -4.39746c-3.19434 -6.56641 -6.38867 -13.1328 -9.58301 -19.6982v21.707zM707.652 511.773l5.50684 1.03906l-5.56348 -0.466797zM625.173 678.827c2.66895 0 3.4541 -1.10547 6.01172 -4.70605
c-1.44238 -2.88379 -2.88379 -5.76758 -4.3252 -8.65137c-4.83691 4.8418 -10.5635 8.79199 -15.9736 13.0576c14.2305 0.299805 14.2305 0.299805 14.2871 0.299805zM639.498 583.852l-96.6689 -1.33984l1.70215 37.791l76.5605 -0.637695
s-0.524414 -5.43652 -0.524414 -5.45117c0 -3.08984 2.57617 -1.14648 5.23145 -4.05566c3.64844 -3.99707 3.96387 -4.34277 12.79 -18.9463c0.228516 -1.43359 0.228516 -1.43359 0.90918 -7.36035zM643.68 657.843c-7.90137 -1.97559 -7.90137 -1.97559 -19.1562 -5.2334
c3.19824 5.91602 6.30469 11.9219 8.5791 18.7617c3.27148 -4.76367 6.71191 -9.35742 10.5771 -13.5283z" />
  </g>

</svg>
