<?xml version="1.0" standalone="no"?>
<!DOCTYPE svg PUBLIC "-//W3C//DTD SVG 1.1//EN" "http://www.w3.org/Graphics/SVG/1.1/DTD/svg11.dtd" >
<svg xmlns="http://www.w3.org/2000/svg" xmlns:xlink="http://www.w3.org/1999/xlink" version="1.1" viewBox="-10 0 773 1000">
  <g transform="matrix(1 0 0 -1 0 800)">
   <path fill="currentColor"
d="M179.064 506.987c-18.3434 0.150429 -36.7302 -3.29938 -53.632 -10.429c-16.1826 -6.82625 -31.2787 -16.9475 -41.9478 -30.899c-10.9553 -14.3259 -16.743 -32.3847 -16.8504 -50.419c-0.0158211 -2.65617 0.0897432 -5.31288 0.3094 -7.96
c0.198431 -2.39132 0.488224 -4.77459 0.8414 -7.148c0.350908 -2.35817 0.763172 -4.70714 1.2306 -7.045c-0.281892 -1.99597 -0.531205 -3.99657 -0.7448 -6.001c-0.222877 -2.09154 -0.406298 -4.18747 -0.5334 -6.287
c-0.144969 -2.39467 -0.215201 -4.79398 -0.203 -7.193c0.115018 -22.6156 7.99706 -45.1526 22.2488 -62.713c14.1362 -17.4181 34.0902 -29.3215 55.1002 -37.183c22.9614 -8.5917 46.3842 -15.9 69.806 -23.143c3.33574 -1.03154 6.7101 -1.93256 10.093 -2.797
c2.03026 -0.518798 4.05858 -1.05273 6.045 -1.72c1.17181 -0.393631 2.32836 -0.831693 3.474 -1.296c2.52859 -1.02479 5.01531 -2.16338 7.609 -3.01c2.33929 -0.76358 4.7544 -1.28446 7.193 -1.614c2.23775 -0.302398 4.49497 -0.46055 6.753 -0.476
c4.61603 -0.0315831 9.23055 0.601304 13.684 1.816c4.11184 1.12152 8.08259 2.69764 12.065 4.216c4.59529 1.75203 9.23953 3.38516 13.974 4.716c1.67265 -0.2425 3.34972 -0.4552 5.031 -0.628c1.2704 -0.13057 2.54355 -0.236173 3.819 -0.301
c1.38667 -0.0704807 2.77562 -0.0917794 4.164 -0.077c6.65166 0.0708072 13.288 0.716791 19.881 1.601c6.022 0.807629 11.9905 1.96476 17.981 2.98c4.84666 0.82139 9.72951 1.54765 14.645 1.6c4.45633 0.0474631 8.94117 -0.591214 13.111 -2.164
c3.62105 -1.36579 6.97803 -3.33334 10.43 -5.083c4.81384 -2.43993 9.92942 -4.20894 14.944 -6.204c3.05934 -1.21716 6.05539 -2.62434 8.81 -4.428c3.39639 -2.22388 6.38125 -5.01695 9.215 -7.924c3.82774 -3.92676 7.52635 -7.97712 11.284 -11.971
c5.8919 -6.2623 11.7067 -12.6109 17.995 -18.475c6.5099 -6.07079 13.7221 -11.4947 21.836 -15.155c8.73909 -3.94236 18.285 -5.72017 27.791 -6.965c1.35423 -0.177339 2.70942 -0.347281 4.065 -0.514c2.82795 -0.347801 5.65746 -0.686946 8.495 -0.945
c3.58509 -0.326038 7.18412 -0.506674 10.784 -0.505c4.32329 0.00201075 8.64968 0.253196 12.932 0.847c4.31752 0.598685 8.59025 1.54471 12.734 2.897c4.20851 1.37343 8.24487 3.24268 12.088 5.44c1.22102 0.698121 2.42938 1.41809 3.643 2.129
c2.00922 1.17695 4.03889 2.31863 6.078 3.443c3.77897 2.08373 7.55638 4.17033 11.317 6.287c8.248 4.64239 16.5308 9.22578 24.675 14.048c8.63136 5.11069 17.0556 10.5788 25.137 16.521c8.23616 6.05602 16.1436 12.585 23.359 19.827
c10.0472 10.0842 18.6728 21.6309 25.069 34.348c4.82439 9.59191 8.41631 19.8123 10.535 30.338c1.33544 6.63452 2.07976 13.3926 2.124 20.16c0.115766 17.7095 -4.99588 35.392 -14.479 50.349c-9.35428 14.7538 -22.129 27.2287 -36.531 37.116
c-6.98348 4.79434 -14.5437 8.84085 -22.6533 11.2882c-8.10956 2.44739 -16.6541 3.03497 -25.1247 3.09376c-5.10286 0.0354144 -10.2143 0.10251 -15.285 0.676c-3.4394 0.388995 -6.86069 0.92718 -10.301 1.308c-2.76959 0.306576 -5.54883 0.520654 -8.318 0.831
c-3.87455 0.434227 -7.72066 1.12118 -11.502 2.071c-7.19009 1.80605 -14.2018 4.3293 -20.894 7.519c-8.01722 3.82126 -15.5677 8.74936 -21.822 15.055c-4.3235 4.35896 -7.99842 9.36649 -10.799 14.83c-2.72244 5.31108 -4.61365 11.0311 -5.791 16.882
c-1.20618 5.99422 -1.69705 12.1196 -1.708 18.234c-0.00555297 3.1003 0.126089 6.19994 0.352 9.292c0.196411 2.68829 0.456292 5.37165 0.652 8.06c0.237227 3.25867 0.366712 6.52574 0.352 9.793c-0.0479192 10.6422 -1.37455 21.3431 -4.723 31.445
c-4.0953 12.355 -11.6062 23.6519 -21.875 31.65c-14.078 10.9649 -32.5533 15.8116 -50.338 14.354c-9.15355 -0.750204 -18.2061 -3.3931 -26.043 -8.182c-8.28733 -5.06415 -15.0042 -12.3225 -21.024 -19.944c-6.24911 -7.91179 -11.9683 -16.2267 -17.63 -24.569
c-1.4712 -2.16777 -2.93085 -4.34344 -4.417 -6.501c-1.39508 -2.02535 -2.82518 -4.0286 -4.369 -5.943c-1.45813 -1.80813 -3.01513 -3.53436 -4.608 -5.225c-6.22198 -6.6039 -12.6777 -12.9833 -19.191 -19.3c-2.79926 -2.71477 -5.5706 -5.48589 -7.869 -8.636
c-1.22079 -1.67317 -2.3059 -3.4459 -3.229 -5.3l-5.383 -4.776l-4.537 -4.18c-3.67782 -1.11154 -7.36762 -2.18806 -11.095 -3.12c-2.59002 -0.647575 -5.20627 -1.20462 -7.855 -1.539c-2.76806 -0.349448 -5.56331 -0.450526 -8.353 -0.407
c-6.10017 0.0951775 -12.1801 0.721331 -18.239 1.436c-7.49235 0.883748 -14.9716 1.87597 -22.471 2.698c-3.74983 0.41103 -7.49749 0.860996 -11.213 1.513c-3.56272 0.625191 -7.09607 1.41233 -10.665 2.001c-3.56591 0.588169 -7.16555 0.956062 -10.772 1.191
c-3.57396 0.232821 -7.15459 0.36463 -10.736 0.394z" />
  </g>

</svg>
