<?xml version="1.0" standalone="no"?>
<!DOCTYPE svg PUBLIC "-//W3C//DTD SVG 1.1//EN" "http://www.w3.org/Graphics/SVG/1.1/DTD/svg11.dtd" >
<svg xmlns="http://www.w3.org/2000/svg" xmlns:xlink="http://www.w3.org/1999/xlink" version="1.1" viewBox="-10 0 1052 1000">
  <g transform="matrix(1 0 0 -1 0 800)">
   <path fill="currentColor"
d="M628.516 311.971l76.0322 -75.6006l78.9922 75.5586l24.4297 -21.1299l-78.8398 -79.623l86.1621 -79.1992l-23.707 -19.748l-85.084 78.3242l-78.0889 -79.4805l-22.3223 24.4092l76.2881 77.582l-75.3359 78.3672zM887.056 83.3584zM516.976 332.334zM447.864 205.102z
M717.145 38.75zM716.658 23.2998zM510.912 80.75zM629.524 43.4346zM953.067 233.869zM447.864 205.102zM953.067 233.869zM962.178 242.54c4.77246 -14.4541 7.84473 -30.0967 11.8584 -45.0811l2.79785 -0.0458984c-2.12793 -44.8975 -2.92871 -61.8037 -75.834 -119.413
c-54.248 -42.8662 -93.9648 -57.9658 -184.243 -58.9834c-62.0996 -0.700195 -141.187 1.62402 -210.521 58.9688c-27.3203 22.5947 -70.6885 66.3262 -70.2861 116.002h-1.94336c2.12402 7.96289 2.12402 7.96289 2.32617 14.0771l1.42188 -0.0244141l6.08789 22.8301
h-2.67188c1.38672 1.88477 2.77539 3.76953 4.16309 5.65332v6.41602h4.72168l68.9453 93.6777h2.1875c23.8545 55.7803 115.241 82.6514 150.736 39.4434c5.03906 -2.26465 27.8965 -11.3848 51.9648 -2.60938c12.3975 16.5928 47.2314 32.6064 86.4307 24.4775
c37.9131 -7.86133 76.1582 -43.1309 92.9385 -60.3027h0.803711c0.591797 -0.871094 0.996094 -1.87109 1.74023 -2.63379l5.27246 -5.50098l50.3418 -86.0234c0.750977 0.0634766 1.34473 0.0166016 1.22656 -0.52832zM471.022 197
c-0.834961 -28.6279 2.33105 -62.6738 71.8584 -111.343c58.998 -41.2988 107.885 -44.2656 174.999 -42.6025c78.1973 2.0127 110.826 12.0625 158.045 50.6475c62.792 51.3115 73.1963 67.3926 65.6455 97.5352l-9.98535 39.8604l-0.367188 -0.654297
c0.0214844 2.41211 -1.5918 5.48047 -1.57031 7.89355l-56.0293 88.3711c-1.50391 -0.0595703 -0.302734 1.30664 -1.80664 1.24805c-34.6807 22.8652 -38.3789 32.7715 -51.334 40.4111c-19.9482 11.7637 -50.6191 9.39648 -70.1455 -3.93066
c-9.71973 -29.2803 -70.0283 -33.9727 -97.8184 -7.56836c-2.58984 2.46094 -4.5 1.0918 -4.25488 4.11133c-29.7051 20.4404 -85.3457 -0.15332 -101.068 -37.1846l-1.90723 -4.49023l-3.17773 1.22363l-61.2744 -86.7471zM240.281 400.202
c2.10938 -37.4658 -14.3652 -145.104 -7.84668 -159.313l1.89551 -1.01367l0.249023 -2.67578c10.4375 -112.21 115.399 -218.879 124.778 -224.644c0.299805 -0.18457 -0.398438 0.176758 -0.398438 0.176758l-4.97656 -1.16797l-1.42773 -3.27344l7.7666 -4.33594
c-7.77246 -5.18164 -15.5459 -10.3623 -23.3184 -15.5439c-5.18262 5.65234 -5.53223 6.0332 -10.8584 11.7998c-40.123 43.4375 -84.2129 91.3945 -119.145 201.789c-12.8496 -53.4805 -44.9336 -109.087 -74.1328 -146.168
c-22.5879 -28.6865 -24.1084 -40.6016 -48.5146 -67.7178l-30.1309 23.8516c18.167 23.5498 58.8379 79.292 59.4424 80.0859c88.084 115.706 88.1816 269.848 87.5781 340.839c9.69336 -0.212891 19.3867 -0.426758 29.0801 -0.640625
c2.01855 -0.0429688 9.85059 -0.912109 9.63184 -11.8301c-0.0390625 -1.94238 -0.210938 -10.6514 0.327148 -20.2178zM609.911 654.396zM609.606 650.796zM824.714 613.319c0 59.5705 -45.4543 91.1153 -68.8435 100.327l-45.4569 17.9035
c54.0815 -9.35237 54.0815 -9.35237 59.4808 -10.9464c0.481653 0.132445 1.02632 0.229141 1.5894 0.229141c1.86349 0 101.244 -12.7525 154.244 -104.569l1.44096 -2.49634c-22.6644 -39.3454 -63.1521 -90.463 -157.049 -107.195l-25.7524 -4.58898
c19.4934 12.286 31.2358 17.6542 49.057 36.0719c22.6918 22.6918 31.2905 48.4872 31.2905 75.2643zM714.935 527.334c-52.0756 0 -87.8467 41.6374 -87.8467 85.4371c0 15.5897 3.79345 26.0912 7.24222 35.6386l1.1183 -0.417277
c17.916 26.4615 17.916 26.4615 19.0769 27.2272c26.2782 17.3304 26.3279 17.3364 27.0102 17.4188c8.26235 3.44395 20.4984 6.73046 34.5139 6.73046c19.1174 0 41.5455 -6.11473 61.7154 -26.2853c17.4323 -17.4323 24.8707 -37.805 24.9461 -59.444
c0 -15.0123 -3.21285 -38.2859 -24.951 -60.024c-10.17 -10.169 -29.6709 -26.2817 -62.8254 -26.2817zM967.73 613.763c-13.4635 23.7754 -78.1168 136.452 -247.646 136.452c-29.7944 0 -170.233 -0.386094 -248.184 -136.45
c12.0689 -21.0521 25.5072 -39.222 42.3466 -56.0614c77.5308 -77.5318 173.525 -80.0057 204.607 -80.0581c0.410213 0 0.820425 -0.000488282 1.23064 -0.000488282c31.2938 0.000488282 127.495 2.00511 205.38 79.8905c21.9074 21.9074 35.1656 43.6379 42.2657 56.2277
zM612.435 652.988c0 -3.16849 -7.40625 -17.1793 -7.40625 -40.757c0 -47.2628 30.8933 -80.545 60.1624 -94.9046l35.1535 -17.2465l-38.3668 7.86069c-38.9273 7.97553 -106.682 31.8756 -148.083 103.32l-1.44921 2.50084
c16.6884 28.9222 55.4466 89.0196 155.646 107.239l2.66453 -9.59686c-13.7445 -5.1685 -35.2595 -19.8315 -42.056 -31.1723c-3.3191 -5.53834 -6.75296 -5.74977 -8.94194 -11.3305c-0.892558 -2.27413 -5.19257 -9.96463 -7.35808 -15.2816
c0.0236414 -0.212781 0.0344402 -0.423736 0.0344402 -0.631101z" />
  </g>

</svg>
