<?xml version="1.0" standalone="no"?>
<!DOCTYPE svg PUBLIC "-//W3C//DTD SVG 1.1//EN" "http://www.w3.org/Graphics/SVG/1.1/DTD/svg11.dtd" >
<svg xmlns="http://www.w3.org/2000/svg" xmlns:xlink="http://www.w3.org/1999/xlink" version="1.1" viewBox="-10 0 823 1000">
  <g transform="matrix(1 0 0 -1 0 800)">
   <path fill="currentColor"
d="M268.709 683.625c3.2832 -58.3105 -24.4277 -224.406 -8.12695 -233.125c16.0039 -172.045 182.574 -332.793 182.785 -326.592l-28.2266 -18.8145c-63.5 69.2617 -134.355 137.809 -188.348 325.49c-12.0195 -82.6387 -63.6387 -175.197 -110.02 -234.1
c-28.2207 -35.8398 -40.3203 -64.5117 -64.5117 -91.3906l-32.2578 25.5352c36.2891 47.0391 56.6582 77.3594 80.6406 108.863c122.457 160.855 127.578 372.049 126.629 483.934c11.3945 -0.25 22.7891 -0.5 34.1836 -0.753906
c6.41211 -0.136719 6.67188 -6.36914 6.78516 -9.0293c0.0117188 -0.300781 -0.417969 -14.3008 0.466797 -30.0176zM481.787 544.926l141.211 165.18l140.143 -157.012l-24.7773 -23.7012l-98.457 115.602l5.82227 -419.742l-41.5664 1.89062l3.48438 417.52
l-100.646 -121.662z" />
  </g>

</svg>
