<?xml version="1.0" standalone="no"?>
<!DOCTYPE svg PUBLIC "-//W3C//DTD SVG 1.1//EN" "http://www.w3.org/Graphics/SVG/1.1/DTD/svg11.dtd" >
<svg xmlns="http://www.w3.org/2000/svg" xmlns:xlink="http://www.w3.org/1999/xlink" version="1.1" viewBox="-10 0 1150 1000">
  <g transform="matrix(1 0 0 -1 0 800)">
   <path fill="currentColor"
d="M901.138 470.381c0 -0.241211 -0.00683594 -0.419922 -0.0136719 -0.591797zM826.892 705.736c0 0 0.0664062 -0.0771484 0.147461 -0.174805zM650.496 478.031c0 0.451172 0.0527344 0.763672 0.0869141 0.945312zM657.944 449.873l-0.137695 0.149414zM665.706 444.324
c-0.286133 0.0791016 -0.564453 0.163086 -0.836914 0.248047zM774.951 730.459c28.5059 0 60.4795 -12.5 86.4502 -96.249c14.1611 -46.1748 38.3955 -151.998 38.7783 -153.933c0.619141 -2.94043 0.896484 -5.73438 0.896484 -8.36816
c0 -15.9355 -10.417 -27.1357 -17.8418 -28.0615c-6.43945 -0.853516 -6.0752 -0.771484 -204.502 -0.857422h-0.223633c-10.8145 0.474609 -14.9912 1.28418 -19.8525 6.14453l-0.00585938 0.00585938c-6.4707 6.4707 -8.5918 13.9688 -8.5918 21.918
c0 7.70605 1.9082 15.5117 4.30469 25.3184c5.95508 22.3262 5.94336 22.2803 22.4316 90.1602c19.46 77.3506 41.5283 143.922 98.1562 143.922zM654.331 496.245v0zM633.348 529.874c-11.1309 -40.7803 -12.1006 -50.6162 -12.1006 -57.8662
c0 -3.28516 0.601562 -29.1475 19.1279 -47.6738c12.4482 -12.4482 26.3135 -12.9346 37.8408 -13.3057c0.498047 -0.015625 18.6201 -0.0283203 43.7842 -0.0283203c55.5186 0 145.312 0.0605469 155.799 0.274414h0.0791016
c0.194336 -0.00195312 0.388672 -0.00390625 0.582031 -0.00390625c30.6279 0 51.0537 29.2246 51.0537 59.0439c0 12.8252 -3.11035 25.9854 -6.47852 40.0137c-7.16211 28.4482 -14.1309 56.7617 -20.9688 85.1826c-22.6191 91.1299 -51.7363 166.953 -127.313 166.953
c-24.6387 0 -64.1562 -10.2441 -92.2119 -67.6436c-18.0742 -37.0371 -24.6133 -63.835 -49.1582 -164.811c-0.0107422 -0.0458984 -0.0224609 -0.0908203 -0.0351562 -0.135742zM689.907 -145.278c-63.1787 0 -114.443 51.2656 -114.443 114.443
c0 59.4287 47.9053 112.864 107.154 114.208c36.2588 0.822266 72.5869 1.0957 108.868 1.0957l209.565 -1.07812l9.94629 -0.0517578v-31.3369h-243.211c21.4219 -21.7803 36.5625 -53.7744 36.5625 -82.8369c0 -63.1787 -51.2646 -114.443 -114.442 -114.443z
M690.166 52.418c-45.8428 0 -83.0576 -37.2158 -83.0576 -83.0566c0 -43.7158 33.8311 -79.5254 76.6035 -82.8115l3.33887 -0.256836l3.22461 0.0107422h3.25879c9.52734 0.761719 33.707 2.69336 55.3496 24.3359c15.0439 15.0439 24.3389 35.8154 24.3389 58.7217
c0 45.8418 -37.2158 83.0566 -83.0566 83.0566zM848.861 347.863l29.7139 -25.7012l-65.8408 -66.4941l72.2861 -66.4424l-29.4502 -24.5312l-70.4805 64.8799l-65.4531 -66.6201l-27.0527 29.5791l63.4688 64.5459l-62.9111 65.4414l26.8271 25.6611l63.3604 -63z
M270.964 -64.3154zM228.527 -85.5303c-7.78613 6.77637 -11.7959 25.8223 -6.05469 31.7969c-0.0195312 0.0449219 -1.5127 3.64453 -1.7793 4.47656c-4.29102 6.06934 -1.59375 8.23047 -3.70117 12.7734c-0.249023 0.264648 -13.4805 15.5586 -18.1768 29.4512
c-1.13867 3.13965 -5.3291 11.9092 -6.42871 14.1113c-2.30664 2.74609 -2.13379 4.51074 -2.91309 5.63867c-1.68457 2.44043 -2.81543 5.0459 -3.71973 7.04492c-2.29297 5.08203 -1.64062 1.87695 -3.10547 6.34473c-1.61328 4.9248 -4.06348 5.35938 -4.62012 9.82812
c-2.18359 2.5166 -3.15332 5.05176 -3.63281 6.30762c-3.08301 3.55859 -1.31543 3.45117 -4.04785 6.64551c-4.97266 5.80664 -2.01172 3.38672 -8.39453 11.3232c-12.0781 15.0107 -10.5459 15.6279 -17.8828 22.6602c-2.86816 2.75293 -6.18555 5.83496 -8.4375 9.14355
c-0.804688 1.18359 -4.30176 6.1416 -5.30273 7.21387c-2.27148 1.80859 -3.07031 3.5 -4.24414 5.20703c-0.890625 1.30176 -1.79297 2.47852 -1.9707 2.70996c-0.885742 0.683594 -2.51758 2.85645 -8.74609 7.65039c-3.01855 2.32227 -2.25 2.76953 -4.93164 5.11133
c-5.44141 4.75293 -6.74512 8.74902 -11.2666 13.2266c-1.73047 1.71387 -4.55176 4.61621 -5.08496 5.81836c-4.45117 3.96484 -7.2627 9.91016 -10.2275 18.1533c-2.99805 8.34961 -3.97656 18.9131 4.05176 27.8291c9.75684 10.8369 14.5693 14.1904 17.3633 15.1201
c2.50098 1.5332 10.6885 6.55078 19.7109 7.8418c3.03906 1.30176 6.35156 1.22852 8.88379 0.625c10.3799 -0.294922 18.9541 -1.14258 38.5264 -16.4863c26.626 -20.875 10.9512 -9.97266 37.4268 -33.6748c0.545898 -0.489258 0.482422 -0.363281 0.900391 -0.797852
c-0.198242 9.38672 -0.900391 16.0146 -2.04883 21.3027c-2.18848 4.0293 -0.306641 5.02344 -3.71191 30.2676c-0.15625 1.16797 -0.15625 1.16797 -1.96094 26.8662c-2.03027 12.2461 -2.42578 56.6533 -0.628906 68.9482
c0.0322266 0.21582 2.75684 16.9355 5.69727 21.1211c0.386719 7.45801 7.03418 12.8555 8.11914 15.2021c3.33203 7.22949 15.6279 15.8975 27.6904 16.8223c5.27148 2.36035 15.9385 0.993164 20.6445 -1.66016c3.60449 -0.62793 8.08691 -3.10547 10.7188 -4.55957
c2.55371 4.93945 7.21973 9.61523 11.9023 13.3594c3.66699 2.93164 6.30859 5.57031 6.37695 5.62305c4.51562 3.47266 27.0811 13.2422 38.9521 6.9082c0.160156 -0.0625 1.01074 -0.316406 2.21094 -0.62793c9.61328 -2.47949 11.2246 -4.24414 18.876 -12.8584
c6.33496 -7.13184 7.4082 -10.4004 8.43457 -14.9492c0.600586 0.742188 1.125 1.42285 1.57812 2.09766c2.36621 3.50781 10.9844 13.5947 19.6455 16.582c0.586914 0.203125 2.07617 0.858398 2.54102 1.06641c6.6123 4.02246 19.6084 4.72363 26.5244 1.79297
c2.06445 -0.448242 4.80664 -1.54297 7.65527 -3.57324c9.45703 -2.28809 18.1182 -15.835 18.585 -17.7373c3.80469 -6.17773 3.80469 -6.17773 7.6875 -22.6514c4.97363 5.12402 14.8613 11.0781 21.4883 11.9072c9.66699 4.5957 29.377 -3.67188 34.832 -7.84082
c11.1641 -4.83203 13.6123 -21.4209 14.542 -28.5088c0.918945 -7.00586 2.93945 -52.6768 0.640625 -72.5127c-0.0488281 -0.478516 -2.17188 -24.6348 -3.09375 -48.0332c-1.11328 -53.7207 -0.0966797 -75.832 2.24707 -95.9082
c0.837891 -2.62305 1.0127 -6.75879 1.75488 -9.83691c0.249023 -1.03223 1.00293 -3.7041 -0.450195 -6.58789c0.12793 -1.42188 0.486328 -4.33789 1.22266 -8.66406c0.0908203 -0.526367 4.27344 -42.1562 -4.40723 -53.083
c-0.967773 -5.79883 -8.73242 -13.6191 -12.6514 -20.3516c-0.643555 -1.10742 -1.53613 -2.57031 -2.53906 -4.15332c-4.28516 -6.78418 -4.28516 -6.78418 -4.25977 -12.1455c0.0263672 -5.12891 -0.445312 -5.20996 3.47461 -11.2324
c6.05957 -9.3125 8.14258 -18.6445 3.77148 -27.4639c-2.96777 -5.98633 -9.68945 -13.8857 -14.5352 -17.3867c-1.22266 -0.880859 -9.51758 -6.69141 -16.3359 -6.78418c-7.09961 -2.6709 -11.3164 -2.37305 -18.6865 -3.94238
c-15.4121 -3.2793 -37.0811 -3.59668 -45.0371 -4.96289c-5.27637 -1.75195 -10.7236 -0.792969 -13.7822 -1.39844c-8.76074 -1.73926 -22.082 -1.17285 -29.5908 -1.87695c-10.6357 -1 -62.7334 -0.854492 -74.9561 0.71582
c-3.86133 0.493164 -11.1787 0.71582 -16.6133 1.62109c-3.45703 0.106445 -20.1084 2.05566 -24.6855 5.18848c-2.68652 0.416016 -7.65039 1.56641 -12.5488 5.05371c-6.28809 1.96094 -6.98926 5.91309 -7.48438 5.75098zM222.524 1.03516
c0 -0.03125 0.0703125 -0.0585938 0.0732422 -0.0888672zM419.604 322.968c0 -0.0683594 0.0419922 -0.135742 0.0439453 -0.137695c-0.0126953 0.0419922 -0.0439453 0.0888672 -0.0439453 0.137695zM326.336 358.626l0.5 -0.0556641
c-0.126953 0.0205078 -0.296875 0.0283203 -0.5 0.0556641zM476.062 331.828l-1.27734 -7.40527l4.25586 1.18164zM238 329.913c0.0439453 0.0654297 0.0439453 0.115234 0.0498047 0.126953c-0.00195313 -0.00390625 -0.0205078 -0.0498047 -0.0498047 -0.126953z
M244.854 110.099c-0.00195312 0.179688 -2.12695 -2.30957 -2.12695 -2.30957c-7.61035 1.52148 -7.61035 1.52148 -8.5166 1.67969c-4.60547 -1.32422 -9.7666 -0.202148 -12.7236 2.82422c-7.30273 2.63379 -8.60742 8.51562 -13.3877 12.7236
c-1.34863 0.597656 -4.55566 2.35156 -6.0459 5.99219l0.25 -0.291992c-0.0332031 0.0537109 -0.119141 0.151367 -0.25 0.291992c-5.34961 5.75391 -23.8838 21.3623 -25.7607 24.9355c-3.2998 2.82324 -9.46875 10.4717 -12.6895 13.7646
c-2.0166 1.59766 -3.31836 3.24902 -4.11035 4.32324c-2.33984 1.13281 -4.42676 2.81836 -7.01074 4.91406c-3.10645 2.52246 -6.84863 5.56152 -10.9678 6.50293c-1.59277 0.363281 -9.50195 0.576172 -11.5107 0.454102l0.5 0.166016
s-0.172852 -0.0527344 -0.5 -0.166016c-3.80859 -1.32715 -9.7959 -4.46973 -15.2217 -9.16992c-1.41406 -2.47852 -4.18262 -2.32031 -5.91895 -9.82812c-0.226562 -0.984375 -0.314453 -2.01367 -0.338867 -2.72559c4.17676 -6.25879 -0.223633 -5.66309 10.8154 -18.0264
c4.46387 -2.80078 3.04883 -5.25391 6.7207 -8.32812c15.0771 -12.6094 18.2002 -15.8965 19.2412 -18.0781l-0.392578 0.480469c0.105469 -0.136719 0.236328 -0.297852 0.392578 -0.480469c2.82324 -3.33301 8.83398 -8.92188 10.3115 -11.5674
c15.5127 -16.6172 16.6191 -19.1191 16.832 -19.2842c0.856445 -0.674805 3.86426 -3.12891 4.83301 -5.14941c2.76562 -2.36816 6.57227 -7.59277 7.8125 -8.5459c3.25488 -2.50684 2.86719 -4.51074 5.49219 -7.34863c5.5166 -5.97168 1.32617 -2.97559 8.73438 -14.3418
c3.34473 -5.12891 5.77148 -8.85254 6.12012 -10.7109l-0.255859 0.387695s0.0751953 -0.12793 0.255859 -0.387695c2.64258 -3.8418 2.7002 -3.92676 3.12305 -5.94336c2.07031 -2.69043 1.79102 -5.12305 2.82617 -6.66016
c0.112305 -0.166016 6.92578 -12.2588 6.92578 -17.8555c0 -0.279297 1.04199 -1.38574 1.43066 -3.05273c1.82031 -2.3457 2.58008 -6.44336 2.82422 -8.09961c2.32715 -2.54004 5.12109 -7.10156 9.60645 -13.8818c5.76855 -8.71875 12.8809 -19.8838 18.124 -28.8418
l3.49707 -0.423828l-0.847656 -4.17188l1.36719 -2.37598l-1.40332 -0.475586c3.08691 -10.6943 34.6699 -30.3506 53.4131 -34.4844c2.93359 1.83301 7.24414 2.15234 11.0234 1.16016c7.05371 -1.85352 31.8213 0.595703 50.5088 0.766602
c1.90234 0.0175781 17.9854 1.15039 22.1475 1.49902c23.3164 5.7959 48.7168 4.30957 64.1357 6.80664c9.53125 1.54102 10.6582 1.72363 17.1982 8.06055c0.849609 1.83594 1.9541 2.34766 3.46777 4.27734c0.885742 3.99609 1.99805 1.50977 1.97754 6.40723
c-0.0195312 4.2959 -0.363281 5.2041 -3.96094 9.15527c-3.71777 4.08496 -6.10254 24.1094 -6.0957 24.3574v0l-1.5 0.959961c2.57324 1.95215 4.2627 4.58105 5.94531 7.2168l0.917969 -0.363281c0.790039 2.04688 7.24316 12.46 7.32324 12.583l-0.0263672 -0.154297
c0.00878906 0.0458984 0.0263672 0.0976562 0.0263672 0.154297c0.161133 0.976562 0.625 3.28711 2.73828 5.45703c0.707031 2.16406 5.24902 6.63867 9.0166 19.4727c0.855469 2.91406 1.68457 4.84961 2.44434 6.16699l-0.0986328 -0.649414
c0.0341797 0.157227 0.0673828 0.376953 0.0986328 0.649414c0.411133 3.64062 0.505859 16.7129 0.0986328 18.5049c-2.74902 12.0498 -4.2002 31.3594 -4.25195 31.6758c-0.314453 1.43164 -0.914062 4.22559 0.657227 7.12207
c-2.36426 16.9766 -0.251953 14.3447 -2.19922 26.1279c-1.05371 6.37598 -1.05371 6.37598 -1.67383 34.7988c0 -0.150391 0.0595703 -0.337891 0.0595703 -0.338867c-0.0195312 0.100586 -0.0595703 0.212891 -0.0595703 0.338867
c-0.635742 3.92383 -1.87305 19.9316 0.947266 29.3008c0.0478516 8.25 1.18945 32.4082 1.85547 38.8604c1.17285 11.3613 2.03027 22.2275 2.9834 35.6113c0.820312 11.5127 0.123047 41.2646 -0.486328 43.8438c-1.6416 6.95117 -1.45605 10.6055 -2.27832 12.3115
c-0.158203 0.330078 -3.9541 6.64062 -8.69434 9.59082c0.438477 -0.125977 1.07227 -0.180664 1.07227 -0.180664c-0.374023 0.0634766 -0.730469 0.125 -1.07227 0.180664c-7.0498 1.17188 -7.33105 1.03027 -8.81445 -0.112305
c-5.67871 -4.36719 -22.791 -23.252 -25.7959 -28.4219l-2.7998 -4.82324c-3.32324 5.37793 -6.41699 -77.7139 -12.1064 -29.4619c-0.282227 2.40527 -0.982422 12.6484 -4.12109 12.6836c0.176758 9.30664 -2.30469 33.0371 -3.34863 36.71
c-3.83594 13.5039 -1.38281 13.209 -6.83301 24.4961c-1.21484 2.51465 -2.46484 4.5166 -3.05859 6.72559c-0.948242 1.16797 -1.53516 2.45312 -1.78906 3.68945l0.140625 -0.24707s-0.0488281 0.0869141 -0.140625 0.24707
c-2.49316 4.39746 -5.56348 9.54004 -7.39844 11.5898c-2.61816 2.01367 -9.14062 0.238281 -14.0771 -4.55469c-0.34082 -0.808594 -1.09961 -2.22461 -2.91309 -3.58301l0.470703 0.639648s-0.171875 -0.230469 -0.470703 -0.639648
c-1.47949 -2.02832 -6.0957 -8.46191 -8.59863 -13.1885c-0.59375 -3.42188 -2.44922 -4.42773 -3.2168 -8.05859c-1.3291 -6.26953 -2.8623 -4.70312 -3.4043 -9.1084c-0.18457 -1.51855 1.69141 -6.28711 -0.90625 -6.13379
c-3.30957 0.195312 3.08594 -50.3525 -5.60645 -52.3242c-2.52832 -0.574219 2.29492 0.996094 0 0c-4.70801 -2.04785 -7.22559 35.0234 -14.0859 34.6396c0.140625 0.458008 -0.470703 0.341797 -0.847656 0.405273c0.421875 3.21973 0.421875 3.21973 0.0751953 8.34961
l-1.46484 0.15332c-1.18457 6.62207 -1.90723 14.6318 -1.93555 14.7793l-2.33594 -0.0849609l0.924805 5.93066c-3.54102 12.1611 -6.81445 15.1445 -9.95312 23.0508c-4.36523 10.9912 -6.35742 11.2373 -7.55762 15.4297
c-1.92969 1.62695 -2.25586 1.90137 -10.7021 2.23926l0.357422 0.146484s-0.0996094 -0.0390625 -0.357422 -0.146484c-7.87891 -3.28223 -11.0801 -4.61328 -15.9023 -16.2686c-6.15918 -14.8838 -7.33398 -35.6016 -11.4189 -47.0811l-3.12402 -8.77539
l-10.9941 -20.6113c-1.21094 11.957 -5.97949 46.7656 -7.38379 50.4824c-0.25293 0.668945 -0.25293 0.668945 -2.19531 6.6123c-0.0439453 0.0693359 -3.37793 5.72754 -4.21289 6.82129c-6.61426 3.61719 -6.61426 3.61719 -8.375 4.88281
c-0.729492 0.523438 -0.851562 1.14844 -5.99219 1.4375c-1.49316 -0.50293 -2.85059 -0.709961 -3.71484 -0.826172c-1.8418 -1.02344 -3.72852 -2.24609 -4.94531 -3.47656c0.0439453 0.0693359 0.101562 0.181641 0.101562 0.181641
c-0.0332031 -0.0595703 -0.0693359 -0.121094 -0.101562 -0.181641c-0.487305 -0.855469 -1.03516 -1.73438 -1.63965 -2.56445c-3.25488 -8.3418 -3.25488 -8.3418 -4.82812 -10.8418c-1.83984 -2.91992 -2.19922 -4.2041 -4.41406 -12.5488l0.0273438 0.356445
c-0.00878906 -0.116211 -0.0273438 -0.233398 -0.0273438 -0.356445c-0.753906 -10.2559 0.102539 -37.501 -0.972656 -45.6162c1.62207 -3.83398 -0.0419922 -9.95605 -0.00683594 -12.2578c0.9375 -3.44238 1.8291 -13.1797 2.56055 -20.1104
c0.0234375 -0.225586 1.63965 -7.44727 2.50488 -22.6309c0.488281 -8.59375 4.84082 -55.3711 4.95312 -55.9258c2.58105 -3.83984 1.2793 -7.79297 -0.046875 -10.3652c0.12207 -0.436523 0.515625 -2.35547 1.72656 -9.19727
c4.49902 -1.6748 6.75098 -15.9111 5.37695 -20.3203zM119.339 146.153c0.272461 -0.303711 0.464844 -0.515625 0.571289 -0.624023zM208.099 125.017c-0.0869141 0.0742188 -0.168945 0.142578 -0.243164 0.200195zM237.709 139.532l-0.00195312 -0.000976562
c0 -0.00292969 0.00195312 0.000976562 0.00195312 0.000976562z" />
  </g>

</svg>
