<?xml version="1.0" standalone="no"?>
<!DOCTYPE svg PUBLIC "-//W3C//DTD SVG 1.1//EN" "http://www.w3.org/Graphics/SVG/1.1/DTD/svg11.dtd" >
<svg xmlns="http://www.w3.org/2000/svg" xmlns:xlink="http://www.w3.org/1999/xlink" version="1.1" viewBox="-10 0 1023 1000">
  <g transform="matrix(1 0 0 -1 0 800)">
   <path fill="currentColor"
d="M724.596 -52.2031c0.744141 0.0302734 47.8086 0.00488281 47.8223 0.0283203c-14.4971 60.8037 -10.4238 80.3809 -5.13574 97.4414c0.0488281 0.15332 4.13965 14.2979 4.69727 15.4121l34.1904 68.3818c-17.5 271.248 -17.5 271.248 -17.4004 272.414
c5.74902 68.2432 10.7617 147.846 4.90039 198.836c-15.2383 60.5195 -53.0469 47.749 -61.8789 28.3906c-3.12109 -6.84082 -6.63672 -7.64648 -15.7148 -9.72656c-7.05566 -6.31055 -18.1543 -4.92871 -23.4326 3.01855
c-6.61621 9.96484 -37.2256 57.3623 -38.0303 58.9375c-11.0684 21.6797 -53.7695 35.0166 -61.9307 -7.89941c-0.293945 -1.55176 -0.293945 -1.55176 -14.8691 -37.0781c-5.42969 -13.2344 -24.5742 -12.6836 -29.2256 0.848633l-27.418 79.7588
c-7.3291 21.3213 -53.0605 38.3477 -77.2188 -2.0293c-0.445312 -1.33008 -3.70703 -11.2197 -21.3369 -66.5107c-3.83203 -12.0195 -19.8271 -14.7656 -27.4268 -4.55273c-22.5508 30.3018 -22.5508 30.3018 -22.9492 30.7002
c-0.148438 0.149414 -25.7568 25.7148 -40.2637 11.207c-7.94531 -7.94434 -12.4395 -27.3398 -14.418 -39.2334c0.0566406 -1.7832 0.410156 -12.3086 2.36523 -63.3594c1.16309 -31.79 2.57617 -99.7256 2.60547 -100.733
c9.2998 -66.2725 4.99805 -68.3418 9.83301 -103.801c0.352539 -1.36328 3.03418 -11.6963 16.959 -64.4102c0.135742 -0.517578 1.40918 -30.0303 -2.62891 -36.8936c-9.92578 -16.875 -10.6143 -18.0449 -17.1631 -19.5459
c-25.9199 -5.93848 -34.1201 -0.717773 -42.8848 11.4434c-4.50684 6.25488 -35.167 36.9824 -38.25 40.5381l-64.248 74.1338c-1.73828 1.14844 -10.6523 6.99023 -37.4766 23.9814c-1.56738 0.474609 -9.07617 2.71777 -31.748 9.06543
c-6.33789 -3.47852 -13.8936 -1.38184 -19.626 -7.11328c-4.15918 -4.15918 -8.95605 -18.0908 -7.43066 -25.9814l35.4453 -47.6709c6.83008 -6.40137 43.1152 -38.0312 44.8926 -40.1797c52.9688 -64.0547 52.9688 -64.0547 53.2246 -64.4014
c38.4941 -52.1533 38.4941 -52.1533 38.7832 -52.6064c34.7109 -54.5469 34.7109 -54.5469 35.2031 -55.6846l26.8086 -62.1475c7.40625 -11.4824 36.0391 -54.6826 36.8047 -56.1387c12.0625 -22.9199 12.0625 -22.9199 12.5186 -24.8262
c8.97559 -37.6123 72.542 -39.4844 73.376 -39.5l69.5332 -1.24219zM772.42 -83.4336h-46.8438c-210.75 -8.75391 -210.75 -8.75391 -211.218 -8.74512l-70.0312 1.25098c-11.1201 0.208984 -87.0312 3.75879 -102.656 61.4297l-9.94922 18.9014
c-36.4072 55.2305 -35.7881 53.4023 -37.9902 58.5078l-26.5205 61.4746l-33.0928 52.0049l-37.6016 50.9424l-51.6367 62.4463c-44.3594 39.2871 -44.3594 39.2871 -46.3076 41.9062l-36.25 48.75c-12.9336 17.3916 -3.9043 51.3281 10.874 66.1084
c8.66602 8.66602 16.8369 11.3125 28.9521 13.543c6.70117 2.99512 14.2441 3.51465 21.2363 1.55664c32.9795 -9.23535 33.6973 -8.74707 39.4932 -12.4189c35.3906 -22.4131 38.0752 -23.2598 43.1445 -28.3281c0.59082 -0.59082 -0.760742 -1.82812 65.7275 -75.749
c34.6406 -38.5156 35.9941 -37.2783 40.9668 -44.0195c0.822266 0.0732422 1.95117 0.213867 3.375 0.444336l1.67383 2.84668l0.74707 18.6797c-16.6641 63.0566 -16.4785 61.3145 -17.0439 65.4316c-5.20703 37.9131 -0.626953 38.4531 -9.98438 104.893
c-0.143555 1.02148 -2.01465 82.1523 -2.7832 103.155c-2.49902 65.2764 -3.09766 62.7031 -2.12305 68.7422c3.04297 18.8525 10.0537 62.3027 46.7637 70.0459c30.5225 6.43848 60.1094 -22.2178 64.1699 -27.6719l4.54492 -6.1084
c12.1982 38.7021 11.8066 38.4463 14.665 43.3066c37.7822 64.2617 118.097 43.1016 133.994 -3.13965l13.4121 -39.0205c18.7109 62.876 93.9746 53.5137 117.923 8.18164c0.280273 -0.431641 26.9023 -41.793 27.9062 -43.3379
c26.2666 33.9512 92.7881 39.6758 114.009 -44.5977c0.337891 -1.34375 0.585938 -2.70605 0.743164 -4.07617c6.39746 -55.6738 1.05664 -135.291 -4.70898 -203.902l17.3496 -268.913c0.352539 -5.46582 -0.722656 -11.0059 -3.22656 -16.0127l-33.4326 -66.8652
c-0.960938 -3.72656 -2.08594 -7.44727 -3.56836 -12.2314c-4.16113 -13.4258 -8.55469 -21.1631 5.68652 -80.8809c4.68262 -19.6318 -10.1973 -38.5303 -30.3887 -38.5303zM649.488 98.9551h-166.484l-38.8232 98.0469l71.7451 -30.0762l46.9551 58.7188l46.1172 -59.6973
l71.1387 30.2549zM521.005 144.523l-43.8887 19.2793l20.2246 -46.418l136.032 -0.488281l14.0615 44.2529l-43.0332 -19.126l-40.791 52.4121zM552.576 298.387c100.865 0 182.625 -64.2393 182.625 -142.936c0 -78.6973 -81.7617 -142.935 -182.625 -142.935
c-100.859 0 -182.626 64.2334 -182.626 142.935c0 78.6973 81.7617 142.936 182.626 142.936zM552.576 -4.43359c112.967 0 203.984 72.1143 203.984 161.354c0 89.2344 -91.0098 161.355 -203.984 161.355c-112.966 0 -203.985 -72.1143 -203.985 -161.355
c0 -89.2344 91.0107 -161.354 203.985 -161.354z" />
  </g>

</svg>
