<?xml version="1.0" standalone="no"?>
<!DOCTYPE svg PUBLIC "-//W3C//DTD SVG 1.1//EN" "http://www.w3.org/Graphics/SVG/1.1/DTD/svg11.dtd" >
<svg xmlns="http://www.w3.org/2000/svg" xmlns:xlink="http://www.w3.org/1999/xlink" version="1.1" viewBox="-10 0 1157 1000">
  <g transform="matrix(1 0 0 -1 0 800)">
   <path fill="currentColor"
d="M798.363 556.291c1.6123 -28.6543 -12.0039 -110.273 -3.99414 -114.558c7.86426 -84.543 89.7168 -163.535 89.8213 -160.486l-13.8701 -9.24707c-31.2051 34.0361 -66.0225 67.7197 -92.5547 159.946c-5.90625 -40.6084 -31.2715 -86.0928 -54.0635 -115.037
c-13.8691 -17.6123 -19.8135 -31.7002 -31.7021 -44.9092l-15.8506 12.5488c17.833 23.1143 27.8418 38.0137 39.6279 53.4951c60.1729 79.0439 62.6904 182.825 62.2246 237.805c5.59961 -0.123047 11.1982 -0.246094 16.7979 -0.369141
c3.15039 -0.0683594 3.27832 -3.13184 3.33398 -4.4375c0.00585938 -0.148438 -0.205078 -7.0293 0.229492 -14.751zM347.323 325.357l-17.3232 -19.3574c-36.4453 37.0449 -72.4531 73.4209 -107.917 108.967l-108.967 -108.966l-18.6787 18.6787l108.976 108.976
c-36.5127 36.4941 -72.4258 72.0703 -107.622 106.554l17.3252 19.3564l108.103 -108.104l107.425 107.426l18.6797 -18.6797l-107.425 -107.426zM653.497 1.04102c-2.77246 0 -5.00195 2.25 -5.00195 4.99902l4.79492 138.059
c-13.9434 16.6924 -28.248 32.3184 -42.334 47.7031c-62.1016 67.8271 -120.219 131.453 -120.421 259.795c-0.168945 106.957 38.7393 161.675 60.5283 183.839c68.8662 67.3203 159.782 84.2432 207.031 84.2432c4.29883 0 9.7334 3.64355 15.3955 3.37695
c139.66 -6.57031 169.465 -17.6162 240.621 -79.5078c9.18555 -7.99023 11.8584 -14.502 13.0518 -20.6523c0.21582 -1.10938 0.337891 -1.54395 0.380859 -1.67871c32.6045 -37.623 55.4824 -136.502 57.2559 -165.26c0.120117 -1.94922 0.413086 -4.21387 0.75 -6.77539
c0.952148 -7.24121 2.21484 -16.8096 0.106445 -28.8496c-29.0137 -165.705 -107.865 -213.392 -117.138 -239.37c-0.505859 -1.41699 -0.972656 -1.65137 -1.17383 -1.85254c-2.21094 -2.20996 -21.3691 -11.9775 -36.7588 -19.2158
c-1.93262 -5.50293 -1.93262 -5.50293 -2.91113 -6.52051c-0.453125 -1.74414 -0.866211 -4.82715 -0.866211 -4.82715l-2.85645 -141.03c-0.0546875 -2.70996 -2.25586 -4.88086 -4.96777 -4.89648zM1027.33 621.436l-0.330078 0.288086l-3.02246 -3.94824zM1013.29 639.27
l-3.30859 1.36523l-3.31348 -8.30273zM797.048 684.845c-80.1807 0 -132.467 -14.1543 -199.135 -63.585c-17.5801 -17.5801 -66.5127 -70.3408 -66.7432 -161.874c-0.305664 -120.492 52.208 -177.22 80.415 -205.427c14.0557 -14.0557 14.0557 -14.0557 16.3838 -17.5332
c4.60254 -6.875 4.60254 -6.875 34.4697 -39.249c6.85742 -1.6875 17.3428 -6.00977 27.9766 -17.0645c5.81641 -6.04395 3.4668 -28.4824 2.39258 -38.749l-0.957031 -116.742l185.257 -0.950195l8.71387 143.282c0.0820312 1.3584 0.708984 2.62012 1.75879 3.51074
c6.1543 5.24609 6.31543 5.38379 9.50488 8.57422c3.14844 3.14844 12.2861 12.0693 20.3223 14.4082c2.91211 0.847656 6.97363 8.90039 15.4131 15.209c40.3701 30.1787 100.126 106.145 107.546 215.631c1.08496 16.0176 -1.3877 33.4932 -4.54883 52.2393
c-6.6875 39.6729 -16.4883 96.0537 -46.6514 131.2c-4.68848 3.86426 -6.11328 5.14844 -27.7051 26.7402c-38.6279 38.627 -102.583 50.3789 -164.413 50.3789z" />
  </g>

</svg>
