<?xml version="1.0" standalone="no"?>
<!DOCTYPE svg PUBLIC "-//W3C//DTD SVG 1.1//EN" "http://www.w3.org/Graphics/SVG/1.1/DTD/svg11.dtd" >
<svg xmlns="http://www.w3.org/2000/svg" xmlns:xlink="http://www.w3.org/1999/xlink" version="1.1" viewBox="-10 0 667 1000">
  <g transform="matrix(1 0 0 -1 0 800)">
   <path fill="currentColor"
d="M129.244 183.234l27.5576 23.3154c1.54785 -59.3994 5.83105 -104.921 12.8496 -136.563c7.12109 -31.6426 17.0293 -47.4639 29.7246 -47.4639c12.7979 0 22.293 13.8779 28.4854 41.6348c6.19238 28.3115 9.28906 61.3428 9.28906 99.0918
c0 33.8633 -2.64408 60.5357 -8.20508 79.9395c0 0 -5.41033 63.2878 -10.9453 86.8115c-8 34 -6.32643 21.9081 -14 42c-7.84473 20.54 -56.0342 62.4531 -60 98c-4.02539 36.084 -10.1113 55.4746 -10.1113 98.7754c0 39.415 1.65137 75.7764 4.9541 109.084
c3.40625 33.8633 7.99902 61.8975 13.7783 84.1025c4.33496 17.21 10.2188 31.6436 17.6494 43.3008c7.53418 12.2129 15.585 18.3193 24.1514 18.3193c12.9014 0 24.2021 -9.99219 33.9043 -29.9775c9.80469 -19.9844 17.0293 -47.1855 21.6738 -81.6045
c4.64453 -33.8633 7.84375 -79.3848 9.59863 -136.563l-27.2471 -19.9844c-1.23926 45.5205 -4.85156 81.0498 -10.8369 106.586c-5.88379 25.5361 -14.2432 38.3037 -25.0801 38.3037c-12.7979 0 -21.9326 -11.3799 -27.4023 -34.1406
c-5.46973 -22.7607 -8.20508 -49.4072 -8.20508 -79.9395c0 -19.4297 1.13477 -36.916 3.40527 -52.46c2.27051 -16.0986 5.83203 -29.4219 10.6826 -39.9697c2.78613 -5.55176 10.9912 -18.3193 24.6152 -38.3047c19.7139 -28.3115 33.4404 -51.627 41.1816 -69.9463
c7.84375 -17.7646 13.9844 -43.8555 18.4229 -78.2744s6.65723 -77.1641 6.65723 -128.236c0 -49.9619 -2.73535 -97.1484 -8.20605 -141.56c-5.36621 -43.8555 -13.1592 -77.9961 -23.377 -102.422c-10.2178 -23.8711 -21.7773 -35.8066 -34.6787 -35.8066
c-21.3643 0 -37.6719 23.8711 -48.9209 71.6123c-11.1475 47.7412 -18.2686 118.521 -21.3652 212.34z" />
  </g>

</svg>
