<?xml version="1.0" standalone="no"?>
<!DOCTYPE svg PUBLIC "-//W3C//DTD SVG 1.1//EN" "http://www.w3.org/Graphics/SVG/1.1/DTD/svg11.dtd" >
<svg xmlns="http://www.w3.org/2000/svg" xmlns:xlink="http://www.w3.org/1999/xlink" version="1.1" viewBox="-10 0 936 1000">
  <g transform="matrix(1 0 0 -1 0 800)">
   <path fill="currentColor"
d="M219.131 -28.2471c-10.9941 7.16699 -24.5996 16.0293 -30.2344 19.6943s-12.1016 7.91992 -14.3691 9.45508l-4.125 2.79102l-11.4023 34.3066l-11.4023 34.3066l3.79297 37.8379c2.08594 20.8105 4.01953 38.2021 4.29492 38.6484
c0.275391 0.445312 15.0098 7.96875 32.7422 16.7178l32.2422 15.9082l8.38867 0.886719c4.61328 0.487305 14 1.48828 20.8613 2.22461c25.6387 2.75293 19.877 3.81836 46.7695 -8.64746l23.6074 -10.9443l18.0391 -28.8184
c9.92188 -15.8496 -3.13281 -48.2764 -3.13281 -49.2266s42.332 -32.3682 36 -52.7998c-6.33398 -20.4336 -20.9307 -45.4512 -23.2002 -52.8008s-20.0557 -5.63672 -20.7998 -7.19922c-1.04688 -2.19727 -1.04492 -1.14844 -34.4004 3.19922
c-10.1533 1.32422 -20.9473 -4.13184 -24.6211 -5.8584c-12.8711 -6.04883 -27.7637 -12.7109 -28.4082 -12.7109c-0.359375 0 -9.64844 5.86328 -20.6426 13.0293zM281.071 671.876c0 -0.105469 0.106445 -5.18359 0.106445 -10.5498
c0 -6.36719 -0.015625 -10.1211 -0.545898 -23.4053c40.8389 -13.5537 181.459 -77.2881 244.06 -133.206c0.542969 -10.5586 0.832031 -18.2266 0.832031 -27.3184c0 -22.4951 -1.51465 -29.8564 -6.27539 -35.2031c-7.02246 -61.4932 -40.7832 -86.6582 -85.3779 -115.396
c-31.6455 -20.3926 -55.0312 -36.2539 -55.0312 -67.2666c0 -54.4893 55.2666 -105.981 94.3525 -142.399c19.1807 -17.8701 32.96 -30.71 37.8672 -41.0977c14.6523 17.7764 19.2783 23.4219 21.0996 25.5762c-4.39355 5.72949 -40.6885 48.3223 -74.3779 92.3555
c-31.4248 41.0742 -41.082 55.9531 -41.082 73.9912c0 47.5215 90.7188 21.043 131.286 131.278l9.8916 26.877l4.54785 -28.2754c14.7441 -91.6514 70.5625 -190.377 127.576 -254.836c36.6211 -41.4053 43.4795 -69.8223 75.2822 -106.984l34.5576 27.3584
c-15.0967 19.6074 -27.9336 36.5732 -59.1094 79.6025c-12.2002 16.8398 -23.4238 32.3301 -35.3965 48.0566c-75.6426 99.3623 -104.953 203.838 -123.782 305.523c-35.9658 53.4531 -127.206 105.648 -197.963 145.673
c-0.280273 0.158203 -25.3818 14.0449 -28.0312 15.8438c-20.2246 1.02637 -54.2344 20.7695 -70.7734 20.7695c-1.48438 0 -3.71289 0 -3.71289 -6.9668z" />
  </g>

</svg>
