<?xml version="1.0" standalone="no"?>
<!DOCTYPE svg PUBLIC "-//W3C//DTD SVG 1.1//EN" "http://www.w3.org/Graphics/SVG/1.1/DTD/svg11.dtd" >
<svg xmlns="http://www.w3.org/2000/svg" xmlns:xlink="http://www.w3.org/1999/xlink" version="1.1" viewBox="-10 0 730 1000">
  <g transform="matrix(1 0 0 -1 0 800)">
   <path fill="currentColor"
d="M112.771 658.345c0 -0.1055 0.106545 -5.18363 0.106545 -10.5495c0 -6.36776 -0.0164464 -10.1215 -0.546409 -23.4058c40.8395 -13.5535 181.459 -77.2877 244.059 -133.206c0.543664 -10.5585 0.832042 -18.2264 0.832042 -27.3181
c0 -22.4952 -1.51439 -29.8565 -6.2751 -35.2034c-7.02224 -61.4926 -40.7828 -86.6581 -85.3782 -115.396c-31.645 -20.3923 -55.0314 -36.2541 -55.0314 -67.2662c0 -54.4893 55.2671 -105.982 94.3533 -142.399c19.1801 -17.8708 32.96 -30.7099 37.867 -41.0977
c14.6524 17.7757 19.2782 23.4215 21.0996 25.576c-4.3938 5.72908 -40.6883 48.3219 -74.3776 92.3551c-31.4252 41.0738 -41.0829 55.9535 -41.0829 73.9913c0 47.522 90.7194 21.0432 131.287 131.279l9.8909 26.8769l4.54865 -28.2757
c14.7438 -91.6517 70.5618 -190.377 127.576 -254.836c36.6214 -41.4055 43.4799 -69.822 75.2826 -106.984l34.5573 27.3586c-15.0965 19.6071 -27.9341 36.5732 -59.1097 79.6022c-12.2001 16.84 -23.4234 32.3307 -35.3962 48.0568
c-75.6423 99.3623 -104.953 203.838 -123.782 305.523c-35.9656 53.4533 -127.206 105.648 -197.962 145.673c-0.280262 0.158537 -25.3826 14.0455 -28.0319 15.8436c-20.2238 1.02636 -54.2343 20.7697 -70.7734 20.7697c-1.48429 0 -3.71238 0 -3.71238 -6.96671z" />
  </g>

</svg>
