<?xml version="1.0" standalone="no"?>
<!DOCTYPE svg PUBLIC "-//W3C//DTD SVG 1.1//EN" "http://www.w3.org/Graphics/SVG/1.1/DTD/svg11.dtd" >
<svg xmlns="http://www.w3.org/2000/svg" xmlns:xlink="http://www.w3.org/1999/xlink" version="1.1" viewBox="-10 0 1006 1000">
  <g transform="matrix(1 0 0 -1 0 800)">
   <path fill="currentColor"
d="M288.928 377.604h13.002c0.320312 -8.95996 0.640625 -17.9199 0.959961 -26.8799c49.5312 1.7334 94.3096 22.5957 127.135 55.4209c11.9307 11.9307 22.2832 25.4434 30.7109 40.1914l-20.8018 11.0391l-2.55957 -4.05273l-127.579 60.1953
c-4.16211 -2.28027 -8.93945 -3.57617 -14.0205 -3.57617c-16.1396 0 -29.2207 13.082 -29.2207 29.2217c0 12.335 7.64062 22.8828 18.4473 27.1719v136.269h3v24.9004c-25.501 -1.2002 -98.1133 -11.0498 -146.688 -81.9873
c7.30664 -4.21777 14.6133 -8.43652 21.9199 -12.6553l-7.50098 -12.9902c-7.4668 4.31152 -14.9336 8.62207 -22.4004 12.9336c-15.834 -27.5986 -24.8877 -59.5693 -24.8877 -93.6455c0 -33.2334 8.66602 -64.5068 23.8633 -91.6758
c7.72461 4.45996 15.4482 8.91992 23.1729 13.3799l7.50098 -12.9912l-22.834 -13.1836c32.6416 -48.8203 87.4023 -81.6201 149.74 -83.9521c-0.320312 8.95605 -0.639648 17.9121 -0.959961 26.8672zM503.167 539.162c0 -113.801 -92.3613 -206.162 -206.167 -206.162
c-113.805 0 -206.166 92.3613 -206.166 206.167c0 113.134 91.8115 205.483 204.938 206.162h0.412109c113.82 0 206.529 -92.3701 206.982 -206.167zM303 727.621v-25.0176h1.96484l4.92383 -137.846c7.98926 -4.41504 13.6914 -12.4629 14.8789 -21.915l125.646 -68.873
l-3.52148 -5.57617l19.8984 -10.5605c11.9111 24.6328 18.6406 52.2168 18.7656 81.3379c0 35.1738 -9.64844 68.0996 -26.4404 96.291c-7.27051 -4.55078 -14.541 -9.10254 -21.8115 -13.6533l-6.50195 11.2607c7.09375 4.44043 14.1885 8.88184 21.2822 13.3223
c-14.5488 20.9922 -62.1992 78.5088 -149.085 81.2295zM-3055.02 737zM-1250.54 793.551zM-3055.02 737zM-1250.54 793.551zM247.897 60.2437c-0.273961 0 -1.48904 0.517881 -1.48904 1.65786c0 0.177932 0.0263594 0.352772 0.0695103 0.512176l-2.04784 39.9318
l490.447 50.3032c-4.73472 0.451482 -9.07973 0.86631 -9.12964 0.872925c-50.5952 8.61278 -69.3412 32.4169 -69.3412 82.3197c0 112.465 94.5612 299.656 113.673 399.689c0.879883 4.60547 6.92188 8.02539 6.92188 11.4697c0 0.240234 1.24414 3.21094 1 5l2 -2
c0.0488281 -1.59375 1.23242 -2.67383 1.28223 -4.26758v0c22.6328 -108.881 108.194 -253.239 108.194 -356.796c0 -34.0382 -10.1018 -59.2813 -25.4762 -90.3965c-3.54902 -7.18259 -7.91127 -16.011 -13.6425 -28.1801
c-0.46928 -0.996416 -4.60864 -5.38991 -24.0813 -22.1003l-13.4829 5.61786l-1.51789 4.55368c0.398031 0.3774 27.0696 26.8791 28.5204 46.8528c0.699605 9.63206 1.02913 18.8656 1.02913 27.7256c0 89.6506 -33.7388 141.042 -59.1915 179.863
c-8.0443 12.2695 -15.2795 23.2888 -20.3589 33.9124c-21.8601 -68.5281 -70.274 -139.208 -70.274 -206.786c0 -33.4746 18.5986 -59.5986 19 -60c9.50879 -9.50879 15.8665 -16.1515 38.4997 -22.8809v-3.07302l1.40117 0.143713
c4.91306 11.987 16.8528 23.3616 31.0006 23.3616c21.2174 0 31.6208 -18.6602 31.6208 -33.6866c0 -15.6061 -12.0399 -33.3646 -27.5223 -33.3646c-7.18056 0 -15.5628 3.41446 -22.579 8.63027c-102.553 -15.8494 -349.492 -43.7635 -506.066 -57.9746
c-4.32504 -0.392552 -7.08822 -0.626714 -8.05697 -0.681673c0 0 -0.105069 -0.230605 -0.401532 -0.230605zM-612.3 472.3zM-612.3 472.3z" />
  </g>

</svg>
