<?xml version="1.0" standalone="no"?>
<!DOCTYPE svg PUBLIC "-//W3C//DTD SVG 1.1//EN" "http://www.w3.org/Graphics/SVG/1.1/DTD/svg11.dtd" >
<svg xmlns="http://www.w3.org/2000/svg" xmlns:xlink="http://www.w3.org/1999/xlink" version="1.1" viewBox="-10 0 1151 1000">
  <g transform="matrix(1 0 0 -1 0 800)">
   <path fill="currentColor"
d="M308 352zM1083 397.001h-1014v-44.9971h248.207c1.82717 -67.5475 13.6613 -92.1156 25.2537 -114.749c-50.9771 -34.2548 -63.6452 -43.0479 -81.679 -55.5929c11.8336 -18.8017 14.5744 -23.0067 21.7507 -32.8237c40.8214 30.7483 56.7613 42.2337 81.0505 59.1291
c8.71335 -9.59528 9.66241 -10.6404 13.5735 -14.5515c58.0383 -58.0383 127.675 -64.7389 156.6 -65.0082l9.80335 -0.0912975c0.43106 -42.1141 0.657633 -58.0018 1.1647 -87.2393c19.0023 0.243313 23.5588 0.483588 38.8698 2.37048
c0.377763 13.8573 0.551339 25.4373 0.551339 35.5785c0 15.6588 -0.103898 25.2062 -2.09153 54.1558c23.3579 5.88768 67.2588 16.9535 110.029 59.7242c10.7611 10.7611 26.2947 26.2947 46.7537 66.8601c60.973 -23.7044 81.08 -32.2379 81.909 -32.5369
c3.493 5.19238 7.21375 16.1098 12.1707 32.4699c-46.2158 20.1085 -53.842 23.4267 -82.0593 33.4333c3.50516 15.8675 5.77998 26.1653 5.77998 47.02c0 0.884096 0 0.884096 -0.0790829 11.8518h326.438v44.9971zM534.971 165.851
c-46.5312 0 -94.6079 16.7909 -132.581 54.7638c-44.6541 44.6541 -46.6787 90.431 -48.4901 131.389h359.839c-3.32758 -36.3983 -8.54343 -93.451 -50.7534 -135.661c-31.9645 -31.9645 -79.1367 -50.4916 -128.014 -50.4916z" />
  </g>

</svg>
