<?xml version="1.0" standalone="no"?>
<!DOCTYPE svg PUBLIC "-//W3C//DTD SVG 1.1//EN" "http://www.w3.org/Graphics/SVG/1.1/DTD/svg11.dtd" >
<svg xmlns="http://www.w3.org/2000/svg" xmlns:xlink="http://www.w3.org/1999/xlink" version="1.1" viewBox="-10 0 1111 1000">
  <g transform="matrix(1 0 0 -1 0 800)">
   <path fill="currentColor"
d="M112.606 -84.4873h-37.6895c10.1504 -7.30566 20.3008 -14.6123 30.4502 -21.9189c-3.89844 -11.8643 -7.79688 -23.7295 -11.6963 -35.5938c10.2217 7.34082 20.4434 14.6807 30.665 22.0215c10.2217 -7.33984 20.4424 -14.6807 30.6641 -22.0215
c-3.89844 11.8643 -7.79785 23.7295 -11.6963 35.5938c10.1504 7.30664 20.3008 14.6133 30.4512 21.9189h-37.6895c-3.91016 11.8994 -7.81934 23.7979 -11.7295 35.6973c-3.91016 -11.8994 -7.81934 -23.7979 -11.7295 -35.6973zM778.784 535.155h-19.374
l-0.400777 -73.2627h-76.4176v76.6709h-16.1191l-0.480494 -76.6709h-69.8096v80.0771h-16.0965l-0.0915314 -80.0771h-63.4877v-30.8936h327.494v30.8936h-65.2168v73.2627zM356.001 178.999v543.346h-174.797v-33.7471h141.051v-475.854h-137.2v-33.7451h170.946z
M475.913 -70.4707c0 -7.46226 6.08385 -13.541 13.541 -13.541l373.918 -1.50883c7.50228 -9.00002e-10 13.5939 6.07441 13.5939 13.4415l-1.78591 151.773l59.4042 -3.34229l-57.6202 67.0904v84.6839c0 7.4801 -6.051 13.5061 -13.2552 13.5467l-206.873 -4.50738
l-1.72383 31.8948l-3.98983 31.2953l-63.637 -57.5751l-2.90876 0.0117716s-95.0409 0.384686 -95.0714 0.384748c-7.49263 0 -13.5919 -6.05998 -13.5919 -13.542v-300.105zM513.001 -46.9776v253.015l74.034 -0.317396l69.3398 -58.4748
c1.72929 33.779 1.72929 33.779 2.56966 59.7561l180.934 -2.32462v-56.6593v-2.90779l-59.6391 -65.4067l42.9182 -5.69059l20.7652 3.19534l-3.89063 -125.59z" />
  </g>

</svg>
