<?xml version="1.0" standalone="no"?>
<!DOCTYPE svg PUBLIC "-//W3C//DTD SVG 1.1//EN" "http://www.w3.org/Graphics/SVG/1.1/DTD/svg11.dtd" >
<svg xmlns="http://www.w3.org/2000/svg" xmlns:xlink="http://www.w3.org/1999/xlink" version="1.1" viewBox="-10 0 1092 1000">
  <g transform="matrix(1 0 0 -1 0 800)">
   <path fill="currentColor"
d="M348.481 97.6934l-82.2217 148.848l24.0225 10.1475l58.4395 -100.383l53.3027 101.418l27.2285 -11.0254zM265.568 -67.707v34.6641h38.626v22.0713h-38.626v34.6641h38.626v33.7148h31.3828v-33.7148h23.2197v31.2539h31.3828v-31.2539h41.292v-34.6641h-41.292
v-22.0713h41.292v-34.6641h-41.292v-36.1855h-31.3828v36.1855h-23.2197v-33.7246h-31.3828v33.7246h-38.626zM335.577 -33.043h23.2197v22.0713h-23.2197v-22.0713zM780.659 223.904c-0.529297 0 -0.985352 0.173828 -1.32227 0.358398l-214.094 -88.2627v-37.8242
c12.126 5.10742 24.251 10.2148 36.376 15.3213v-3.77051l-0.21875 -161.659h318.305l0.646484 155.446c10.9619 -6.48535 21.9238 -12.9697 32.8867 -19.4551l-0.677734 40.7051l-136.33 79.1182l1.46387 0.616211c-22.6963 11.7715 -24.457 12.7314 -36.2109 19.5508
c-0.288086 -0.102539 -0.56543 -0.144531 -0.824219 -0.144531zM884.594 -16.7148h-248.003l-0.665039 144.662l142.009 59.8174l107.859 -63.8086zM63.3545 -23.4795h55.5146l17.1611 52.2256l17.1602 -52.2256h55.5156l-44.8672 -32.2959l17.1611 -52.2246
l-44.9697 32.2959l-44.9707 -32.2959l17.1611 52.2246zM466.716 337.858c-16.4434 7.55566 -47.9209 33.5947 -54.6426 45.2051c-12.6475 21.8389 -13.1768 25.4297 -13.626 92.5322c-0.463867 69.3857 -0.180664 67.6631 -17.7236 107.984
c-9.0957 20.9102 -20.7598 38.2969 -25.6895 38.2969c-1.72266 0 -5.37305 3.18945 -8.11426 7.08594c-4.84863 6.89941 -4.83203 7.2793 0.683594 14.3789c4.59766 5.91797 9.15039 7.33594 24.1709 7.5332c16.1377 0.208984 20.583 -1.24902 34.7334 -11.3984
c8.9248 -6.40137 17.7783 -13.2041 19.6738 -15.1152c1.89453 -1.91211 3.71973 -2.86133 4.05566 -2.10938c0.336914 0.750977 1.92285 4.49805 3.52832 8.3291c1.60449 3.8291 10.498 14.4053 19.7637 23.501c18.6719 18.3262 29.0264 20.8789 44.3916 10.9365
c12.3174 -7.97168 31.6445 -32.9229 31.6445 -40.8535c0 -5.89551 0.658203 -5.62988 5.43945 2.19434c8.54395 13.9805 36.8926 24.6426 59.8936 22.5225c17.7363 -1.63184 29.3271 -8.45996 29.3271 -17.2773c0 -1.71582 -6.55469 -10.9014 -14.5664 -20.4131
c-8.82617 -10.4805 -18.4238 -26.7451 -24.3574 -41.2793l-9.79004 -23.9834l3.0498 -36.0088c4.67773 -55.25 1.58594 -84.4814 -11.915 -112.604c-1.83887 -3.82812 -6.79004 -14.4053 -11.0029 -23.5c-4.21289 -9.0957 -9.38574 -16.5371 -11.4971 -16.5371
c-2.11035 0 -5.94922 -1.4707 -8.53223 -3.27051c-29.1709 -20.3027 -49.4922 -25.0664 -68.8984 -16.1504zM498.278 346.448c0.817383 1.70312 4.84473 4.1543 8.94922 5.44922c4.10449 1.29395 13.7607 6.1582 21.46 10.8086
c11.8867 7.18262 15.8623 12.3105 26.3818 34.0371c16.6934 34.4795 19.2588 53.3174 15.1123 110.989l-3.18164 44.2676l9.82715 23.623c5.87695 14.1279 15.4756 30.1279 23.8799 39.8027c7.72852 8.89844 13.2676 17.2207 12.3096 18.4941
c-0.959961 1.27051 -8.40332 3.19531 -16.542 4.27734c-20.7705 2.75977 -49.4766 -9.49023 -55.7266 -23.7812c-5.63672 -12.8848 -14.0947 -12.0117 -17.8672 1.84961c-6.07227 22.3145 -32.3408 47 -45.3574 42.625c-10.5977 -3.56055 -32.959 -28.041 -37.9062 -41.4922
c-5.21289 -14.1738 -10.6006 -16.3809 -16.0527 -6.56836c-1.94336 3.49902 -10.8359 11.5801 -19.7617 17.959c-13.0439 9.32031 -19.0791 11.5381 -30.7676 11.3027c-7.99609 -0.160156 -15.8467 -1.97559 -17.4443 -4.03125
c-2.06934 -2.66406 -1.73926 -3.73828 1.14453 -3.73828c6.00293 0 22.6357 -23.4414 32.1143 -45.2598c18.0195 -41.4785 17.5127 -38.3945 17.8574 -108.449c0.311523 -63.3809 0.487305 -65.2979 7.39258 -80.4648c10.8213 -23.7705 52.3613 -53.8252 75.4131 -54.5625
c4.00391 -0.12793 7.94824 1.16016 8.76562 2.8623z" />
  </g>

</svg>
