<?xml version="1.0" standalone="no"?>
<!DOCTYPE svg PUBLIC "-//W3C//DTD SVG 1.1//EN" "http://www.w3.org/Graphics/SVG/1.1/DTD/svg11.dtd" >
<svg xmlns="http://www.w3.org/2000/svg" xmlns:xlink="http://www.w3.org/1999/xlink" version="1.1" viewBox="-10 0 1043 1000">
  <g transform="matrix(1 0 0 -1 0 800)">
   <path fill="currentColor"
d="M683.335 286.667zM127.775 420.44c0 4.10153 3.34471 7.50543 7.50284 7.50543c0.543187 0 2.00494 -0.0517186 3.58765 -0.91232l207.219 -112.681c2.40372 -1.30703 3.91369 -3.8486 3.91369 -6.58749v-12.24c0 -2.71341 -1.48057 -5.23568 -3.85114 -6.556
c-208.057 -115.733 -208.057 -115.733 -208.989 -115.974c-0.630053 -0.163403 -1.26233 -0.241503 -1.8846 -0.241503c-3.33438 0 -6.38122 2.24249 -7.25701 5.61941c-0.16352 0.630507 -0.241676 1.88592 -0.241676 1.88592v240.182zM905.561 178.172
c0 -4.10142 -3.34468 -7.50543 -7.50286 -7.50543c-0.79948 0 -2.17775 0.137193 -3.58309 0.915019l-207.225 112.678c-2.40373 1.30703 -3.9137 3.8486 -3.9137 6.58749v15.0126c0 2.71594 1.48331 5.24014 3.85586 6.55691
c208.059 115.475 208.059 115.475 208.989 115.716c0.628942 0.162795 1.26006 0.240609 1.88119 0.240609c4.10308 0 7.49867 -3.33809 7.49867 -7.50534v-242.696zM516.668 465.057c-43.2876 0 -86.8415 -20.6244 -118.385 -52.1681
c-26.7239 -26.7239 -35.5521 -50.7166 -40.6395 -64.4051c-0.167555 -0.450825 -1.94639 -4.88929 -7.03611 -4.88929c-0.607718 0 -2.03011 0.0668817 -3.59664 0.922589l-247.01 134.928v-358.888c246.873 136.352 246.873 136.352 247.139 136.474
c1.00844 0.45997 2.06601 0.677707 3.10704 0.677707c3.06589 0 5.93428 -1.88165 7.04822 -4.92242c7.2041 -19.6653 16.3201 -41.3218 41.3537 -66.3554c31.5257 -31.5257 75.0178 -51.9442 118.208 -51.9442c43.2157 0 86.9185 20.7274 118.518 52.3265
c26.054 26.054 34.8509 49.2326 39.9866 62.6309c1.14575 2.98908 3.98789 4.81769 7.0094 4.81769c0.625558 0 2.02887 -0.072403 3.57621 -0.911525l247.945 -134.46l-0.555664 362.222c-247.23 -136.67 -247.23 -136.67 -247.477 -136.784
c-1.01933 -0.471869 -2.0905 -0.695249 -3.14505 -0.695249c-0.500829 0 -5.23262 0.126159 -7.02014 4.84608c-7.28303 19.2307 -16.3228 40.1035 -40.6928 64.4735c-31.5754 31.5754 -75.2118 52.1056 -118.332 52.1056zM381.668 299.986
c0 75.5971 61.3557 136.944 136.944 136.944c75.3024 0 136.885 -60.9874 136.944 -136.917c0 -68.7506 -57.8398 -136.903 -138.874 -136.958c-68.0001 0 -135.014 57.3603 -135.014 136.93z" />
  </g>

</svg>
