<?xml version="1.0" standalone="no"?>
<!DOCTYPE svg PUBLIC "-//W3C//DTD SVG 1.1//EN" "http://www.w3.org/Graphics/SVG/1.1/DTD/svg11.dtd" >
<svg xmlns="http://www.w3.org/2000/svg" xmlns:xlink="http://www.w3.org/1999/xlink" version="1.1" viewBox="-10 0 1046 1000">
  <g transform="matrix(1 0 0 -1 0 800)">
   <path fill="currentColor"
d="M42.917 -61.2578h55.5146l17.1611 52.2256l17.1602 -52.2256h55.5156l-44.8662 -32.2959l17.1602 -52.2246l-44.9697 32.2959l-44.9707 -32.2959l17.1621 52.2246zM285.807 -82.7959h318.305l0.646443 155.445l32.8859 -19.4544l-0.677302 40.7048l-136.35 79.1298
l1.46188 0.617411c-22.1474 11.4938 -25.1603 13.1438 -37.2802 20.1694l-215.149 -88.6816v-37.8246l36.3762 15.3226zM569.001 -47.5791h-248.004l-0.665178 144.663l142.01 59.8168l107.859 -63.8079zM406.005 365.855c48.6555 0 112.116 -17.695 178.753 -84.3321
c7.24146 -7.24239 8.24378 -8.30452 27.5473 -29.6915c18.9045 20.9485 21.4978 23.8222 30.4282 32.7526c68.3345 68.3345 129.248 87.0657 175.487 87.0657c52.0085 0 85.4522 -23.6972 90.0102 -27.1613l25.8328 -20.0923v408.798l-6.40067 4.80069
c-7.86543 5.90051 -49.6796 31.6483 -110.177 31.6483c-103.087 0 -176.395 -74.2464 -200.777 -99.0218c-24.8756 25.1743 -97.9282 98.6387 -203.78 98.6387c-24.3575 0 -68.8049 -4.2283 -113.668 -29.9591h-0.295149l-8.4185 -5.74136v-405.909
c24.3064 15.6722 24.3064 15.6722 24.5437 15.8079c4.69658 2.68394 39.5587 22.397 90.9138 22.397zM322.544 381.964v334.155c9.94344 5.13955 42.0104 21.7143 88.8153 21.7143c85.1466 0 148.385 -55.1988 178.145 -84.9585
c7.20406 -7.20406 8.62456 -8.73012 27.4228 -29.5523c18.1894 20.1589 20.5309 22.7539 28.9009 31.1239c65.5052 65.5052 125.527 84.121 172.264 84.121c10.8882 0 44.6279 0 84.1833 -22.1046v-331.034c-39.3292 15.2861 -62.8953 17.9853 -84.0281 17.9853
c-45.9488 0 -120.141 -16.6337 -202.418 -100.477l-3.54185 -3.60927c-23.5437 23.6238 -97.3428 97.6742 -206.287 97.6742c-28.7895 0 -59.2043 -7.33679 -83.4561 -15.0366zM850.083 596.013v28.6514h-70.71v53.832h-28.6514v-53.832h-70.71v-28.5059l69.71 2v-145.418
l29.6514 -1.49568v144.768h70.71z" />
  </g>

</svg>
