<?xml version="1.0" standalone="no"?>
<!DOCTYPE svg PUBLIC "-//W3C//DTD SVG 1.1//EN" "http://www.w3.org/Graphics/SVG/1.1/DTD/svg11.dtd" >
<svg xmlns="http://www.w3.org/2000/svg" xmlns:xlink="http://www.w3.org/1999/xlink" version="1.1" viewBox="-10 0 933 1000">
  <g transform="matrix(1 0 0 -1 0 800)">
   <path fill="currentColor"
d="M522.581 246.379c27.8457 0 56.4189 15.4521 65.1221 46.2256l1.16211 4.11035l17.7676 -4.97461c-2.6709 -9.60254 -6.66895 -23.9805 -20.9912 -38.3018c-16.6152 -16.6152 -40.0586 -25.1338 -63.3242 -25.1338c-22.124 0 -44.085 7.7041 -59.8555 23.4727
c-14.6836 14.6846 -18.4814 30.1621 -20.9443 40.1914l17.832 4.10156c2.29199 -8.82715 5.27148 -20.3027 16.4473 -31.4795c12.207 -12.2061 29.415 -18.2119 46.7842 -18.2119zM376.858 298.147c0 66.9141 66.1631 121.478 147.774 121.478
c81.6182 0 147.775 -54.4727 147.775 -121.383c0 -66.9141 -66.1631 -121.478 -147.775 -121.478c-81.6172 0 -147.774 54.4727 -147.774 121.383zM394.959 298.242c0 -57.0352 58.3828 -103.377 129.674 -103.377c71.2871 0 129.674 46.2451 129.674 103.282
c0 57.0352 -58.3828 103.377 -129.674 103.377c-71.2871 0 -129.674 -46.2451 -129.674 -103.282zM558.133 343.747c0 7.20312 5.14551 13.0342 11.6621 13.0342c6.51758 0 11.6621 -5.83105 11.6621 -13.0342s-5.14453 -13.0342 -11.6621 -13.0342
c-6.5166 0 -11.6621 5.83105 -11.6621 13.0342zM475.127 344.433c0 6.86035 5.14551 12.3486 11.6621 12.3486s11.6621 -5.48828 11.6621 -12.3486c0 -6.85938 -5.14551 -12.3477 -11.6621 -12.3477s-11.6621 5.48828 -11.6621 12.3477zM30.3242 741.553h55.5146
l17.1611 52.2256l17.1602 -52.2256h55.5156l-44.8672 -32.2959l17.1611 -52.2246l-44.9697 32.2959l-44.9707 -32.2959l17.1611 52.2246zM746 631c0 -96.6865 78.0879 -230.199 109.375 -248.775l11.1992 -6.64941c-16.9434 -0.478516 1.18945 0.900391 -34.5742 -3.5752
l-1.0752 1.36426c-22.0068 27.9238 -104.004 167.01 -116.903 264.233c-0.657227 4.95117 0.0224609 9.79688 0.582031 18.2783c-1.38379 0.708984 -2.88672 1.4873 -4.52246 2.34082c-0.0283203 -1.83984 -0.322266 -3.81641 -0.0449219 -5.88867
c33.3789 -249.661 107.546 -273.742 107.546 -273.742s6.91211 -4.29004 10.2793 -6.58594h-32.8613c-44.1455 16.1279 -111.697 208.17 -111.697 279.331c0 8.73535 0.302734 15.3135 0.785156 20.6846c-60.6641 32.3369 -123.179 64.7012 -226.885 64.7012
c-23.0527 0 -45.5234 -2.04883 -73.3945 -6.17773c-32.3232 -4.78906 -32.3232 -4.78906 -70.6152 -21.2002c-18.916 -8.10645 -50.2139 -47.4062 -58.166 -66.7188c-7.02734 -17.0664 -9.0791 -30.2676 -9.0791 -45.8906c0 -22.332 3.62891 -44.376 3.62891 -77.1553
c0 -8.99219 1.14648 -13.8564 1.14648 -20.1924c0 -4.57031 -0.613281 -9.64551 -2.73242 -16.6025c-19.9492 -65.4795 -40.3174 -87.0479 -63.832 -110.183c-6.25977 -6.16016 -27.0508 -26.6172 -27.0508 -37.7881c0 -4.45605 0.882812 -6.9082 38.3447 -19.4531
c55.9199 -18.7266 60.0254 -24.4102 60.0254 -90.9766c0 -43.0117 -4.74121 -62.7734 -4.74121 -104.492c0 -5.5 0.0820312 -11.3867 0.267578 -17.7666c0.50293 -17.292 16.4512 -45.3398 23.8975 -57.5352c1.19629 -0.303711 1.95996 -1.18164 1.95996 -1.18164
c1.1543 -0.666992 2.48438 -1.60059 4.13477 -2.74414c16.0508 -11.1162 22.0049 -13.1846 40.8428 -13.1846c24.0361 0 22.3457 4.21484 79.0615 4.21484c0.316406 0 6.94531 -0.00390625 7.01562 -0.00390625c14.7988 0 25.668 0.226562 52.1025 3.80078
c20.2021 2.73242 38.8271 4.61523 56.5088 6.4043c120.938 12.2334 143.711 24.1475 222.178 80.1953c2.23438 1.5957 5.14355 3.85352 8.45703 6.42773c12.6104 9.7959 33.0303 26.8994 48.1416 26.8994c8.16699 0 13.834 -4.95996 13.834 -14.165
c0 -15.4473 -17.4082 -42.8486 -33.0938 -42.8486c-1.16406 0 -1.56543 0.129883 -3.01758 0.129883c-22.6426 0 -44.3604 -36.5264 -79.4766 -51.29c-52.8857 -22.2344 -80.2979 -27.1279 -117.459 -33.71c-17.2549 -3.05664 -36.6504 -6.49316 -61.8809 -12.2393
c-34.7246 -7.90918 -51.6299 -8.61133 -86.7539 -8.61133c-0.251953 0 -22.7891 0.03125 -25.0811 0.03125c-11.3115 0 -32.6182 -0.123047 -32.9473 -0.123047c-40.7773 0 -82.5049 2.86621 -120.91 24.8125c-26.0957 14.9121 -27.9092 36.1035 -30.0449 61.0586
c-0.477539 5.59082 -0.976562 11.3994 -1.75781 17.3906c-1.96484 15.7158 -2.63672 29.7119 -2.63672 42.8916c0 28.6572 3.1748 53.4248 3.1748 84.1699c0 46.4277 -4.59863 49 -29.7539 58.8145c-27.3184 10.6582 -57.2148 13.2568 -70.834 26.876
c-4.33008 4.33008 -6.66504 9.68945 -6.66504 16.1094c0 4.7959 1.30371 10.1846 4.05176 16.1768c36.4951 79.5967 68.6367 70.0742 91.3711 139.761c5.20312 15.9443 6.93652 32.2529 6.93652 48.6797c0 32.5635 -6.77832 65.1611 -6.77832 95.8125
c0 47.6494 17.2412 68.3838 35.0508 86.1934c66.2422 66.2412 143.674 66.3555 238.901 66.3555h0.988281c82.8154 0 132.135 -23.3467 188.021 -49.8477c43.5547 -20.6533 21.8506 -15.7109 32.4561 -16.8408c11.3984 -1.2168 39 -13 47.5039 -30.4053
c4.31641 -8.83496 -4.12305 -21.668 -4.50391 -29.5947c-0.257812 -5.36523 2 -14.3428 2 -20z" />
  </g>

</svg>
