<?xml version="1.0" standalone="no"?>
<!DOCTYPE svg PUBLIC "-//W3C//DTD SVG 1.1//EN" "http://www.w3.org/Graphics/SVG/1.1/DTD/svg11.dtd" >
<svg xmlns="http://www.w3.org/2000/svg" xmlns:xlink="http://www.w3.org/1999/xlink" version="1.1" viewBox="-10 0 1007 1000">
  <g transform="matrix(1 0 0 -1 0 800)">
   <path fill="currentColor"
d="M828.399 483.872c0 9.49878 0.360099 25.4826 0.360099 28.905l-0.318652 61.3747l-8.69455 54.78l-24.0577 41.7601l-29.8355 19.1251l-33.9409 8.02542l-47.9505 1.85133v0.765382l-107.704 8.96128l-161.614 -4.8437l-135.511 -48.0118l4.97421 -24.8711
l90.1513 34.2037l168.519 13.9909l163.859 -8.05849l72.0585 -32.0852l24.6852 -76.5829c-11.2968 -92.7231 -11.5388 -94.7093 -10.6225 -98.1968c0.272553 -1.03738 0.408327 -1.98777 0.495372 -2.92219c0.487753 -0.641757 1.13403 -1.58506 1.4862 -2.05622
l30.4464 -40.7334l38.0432 -60.0682l23.93 -33.502l-96.7113 -80.2498l-3.19974 -219.288c0.962733 -7.56244 2.78458 -22.0112 5.01798 -45.877c-0.12894 -0.269919 -9.65147 -20.9678 -12.8349 -27.02c-1.80565 -3.43278 -3.36365 -6.39475 -8.94453 -11.1259
c-28.726 -6.87192 -37.6748 -9.01268 -53.7943 -9.01268c-3.38415 0 -6.77838 0.14333 -10.1737 0.446144l-127.95 -3.2205l-189.706 31.9736l-119.91 72.0259l-21.8729 31.5454c-0.18608 0.126152 -14.9542 10.3475 -18.5829 12.6523v-31.4635
c5.41685 -3.87145 13.5068 -7.36272 24.4398 -17.2503c7.32645 -6.62591 2.09556 -4.45645 10.6241 -11.9264c1.03002 -0.902171 1.03002 -0.902171 17.2005 -21.8062l70.2643 -41.1391l123.979 -35.7692l40.8353 -3.74581
c52.8258 -4.90757 59.0669 -6.73248 83.0467 -7.42728l68.08 -1.97257l89.7606 0.254271l51.1066 12.4914l15.1376 25.2075l6.27671 34.16l-0.268638 82.9487l0.0291888 84.2282l-0.00582149 87.5189l84.7837 67.8016l7.68593 8.96692l1.11464 7.19504
c0.44913 7.61262 -1.52476 12.8022 -3.31214 18.1783l-23.3304 38.8443l-33.0243 43.448l-34.3179 48.9016c-0.202711 16.1296 -0.202711 16.1296 -0.202711 17.6951zM33.2949 712.521h55.5146l17.1611 52.2256l17.1602 -52.2256h55.5156l-44.8672 -32.2959
l17.1611 -52.2246l-44.9697 32.2959l-44.9707 -32.2959l17.1611 52.2246zM678.253 153.647c0.223633 0.00878906 14.3428 0.000976562 14.3457 0.00878906c-1.49659 6.27915 -5.51153 23.1244 -0.129883 33.8564l10.2559 20.5137
c-5.24902 81.374 -5.24902 81.374 -5.21973 81.7246c1.72461 20.4727 3.22852 44.3535 1.46973 59.6494c-4.57129 18.1572 -15.9131 14.3252 -18.5635 8.51855c-1.02747 -2.25335 -8.77316 -6.48841 -11.7441 -2.0127c-1.98438 2.98926 -11.167 17.209 -11.4082 17.6816
c-3.32227 6.50391 -16.1318 10.5039 -18.5791 -2.37109c-0.0898438 -0.464844 -0.0898438 -0.464844 -4.46191 -11.123c-1.62891 -3.96973 -7.37207 -3.80469 -8.76758 0.255859l-8.22461 23.9268c-2.2002 6.39648 -15.918 11.5049 -23.167 -0.609375
c-0.132812 -0.397461 -1.11133 -3.36523 -6.39941 -19.9521c-1.15039 -3.60645 -5.94922 -4.42969 -8.22949 -1.36621c-7.61294 10.2308 -19.1469 25.7309 -23.2881 0.801758c2.16649 -69.7099 2.24097 -72.1065 9.52832 -99.6904
c0.536718 -2.03186 0.400005 -15.4832 -5.93848 -16.9316c-6.71975 -1.54045 -9.02112 -2.06803 -24.3398 15.5938l-19.2744 22.2412c-10.8096 7.1254 -10.8096 7.1254 -20.7666 9.91309c-1.90234 -1.04395 -4.16895 -0.414062 -5.88867 -2.13379
c-1.24805 -1.24805 -2.68652 -5.42773 -2.22949 -7.79395l10.6338 -14.3018c0.599226 -0.561542 41.1344 -39.4395 51.6309 -63.8613l8.04297 -18.6455c14.2874 -22.1439 14.2874 -22.1439 14.7969 -24.2881c2.69238 -11.2842 21.7637 -11.8457 22.0137 -11.8506
l20.8594 -0.37207zM692.601 144.278h-14.0547c-63.2236 -2.62695 -63.2236 -2.62695 -63.3643 -2.62402l-21.0088 0.375977c-3.33691 0.0625 -26.1104 1.12793 -30.7979 18.4287c-7.76698 14.7563 -12.3508 18.5087 -14.3818 23.2227l-7.95508 18.4424l-9.92871 15.6006
l-11.2803 15.2832l-15.4902 18.7344c-13.3086 11.7861 -13.3086 11.7861 -13.8936 12.5723l-10.875 14.625c-12.5063 16.8199 18.8755 36.3725 43.1104 12.1377c0.176758 -0.177734 -0.228516 -0.548828 19.7178 -22.7246c10.3936 -11.5547 10.7988 -11.1836 12.29 -13.2061
c0.24707 0.0224609 0.585938 0.0634766 1.01367 0.132812l0.501953 0.854492l0.224609 5.60449c-5 18.916 -4.94434 18.3936 -5.11426 19.6289c-3.10182 22.5774 -4.59967 82.2161 -4.46777 83.0371c5.24333 32.475 27.0651 21.0695 34.6436 10.8799
c3.66016 11.6104 3.54297 11.5332 4.40137 12.9922c11.334 19.2773 35.4277 12.9297 40.1973 -0.942383l4.02344 -11.7061c5.61426 18.8633 28.1924 16.0547 35.377 2.4541c0.0849609 -0.128906 8.07031 -12.5371 8.37207 -13.001
c11.7525 15.1913 32.3595 3.52046 34.4258 -14.6025c1.91895 -16.7012 0.316406 -40.5869 -1.41309 -61.1709l5.20508 -80.6738c0.106445 -1.63867 -0.217773 -3.30176 -0.967773 -4.80273l-10.0293 -20.0605c-3.13989 -12.105 -3.13989 -12.105 0.634766 -27.9326
c1.4043 -5.89062 -3.05957 -11.5596 -9.11621 -11.5596zM399.243 479.201l37.624 -23.9355l17.998 34.5488l10.5 1.71094l-28.498 -46.5186l-38.499 23.0801zM169.125 446.717l34.999 36.7588l33.249 -35.9033l-12.25 0.854492l-20.999 24.79l-25.375 -25.6445z
M205.875 455.266c0 -57.8428 49.8721 -104.573 111.12 -104.573c61.248 0 111.122 46.7305 111.122 104.573s-49.874 104.573 -111.122 104.573c-61.248 0 -111.12 -46.7305 -111.12 -104.573zM197.124 455.266c0 62.6875 53.665 113.692 119.871 113.692
c66.2061 0 119.872 -51.0049 119.872 -113.692c0 -62.6865 -53.666 -113.691 -119.872 -113.691c-66.2061 0 -119.871 51.0049 -119.871 113.691zM363.565 461.601l2.48926 -74.8105l-76.4658 10.1777l5.70117 7.58887l59.4463 -7.88184l-92.4326 115.047l6.66602 5.71777
l90.6826 -116.694l-2.01172 61.9414z" />
  </g>

</svg>
