<?xml version="1.0" standalone="no"?>
<!DOCTYPE svg PUBLIC "-//W3C//DTD SVG 1.1//EN" "http://www.w3.org/Graphics/SVG/1.1/DTD/svg11.dtd" >
<svg xmlns="http://www.w3.org/2000/svg" xmlns:xlink="http://www.w3.org/1999/xlink" version="1.1" viewBox="-10 0 1018 1000">
  <g transform="matrix(1 0 0 -1 0 800)">
   <path fill="currentColor"
d="M71.4482 432.871c-0.137695 0 -0.745117 0.258789 -0.745117 0.829102c0 0.0888672 0.0136719 0.176758 0.0351562 0.255859c-0.341797 6.65527 -0.682617 13.3105 -1.02441 19.9658l245.224 25.1523c-2.36719 0.225586 -4.53906 0.432617 -4.56445 0.435547
c-25.2979 4.30664 -34.6709 16.209 -34.6709 41.1602c0 56.2324 47.2812 149.828 56.8369 199.845c0.439453 2.30273 3.46094 4.0127 3.46094 5.73438c0 0.120117 0.62207 1.60547 0.5 2.5l1 -1c0.0244141 -0.796875 0.616211 -1.33691 0.640625 -2.13379v0
c11.3164 -54.4404 54.0967 -126.619 54.0967 -178.397c0 -17.0195 -5.05078 -29.6406 -12.7383 -45.1982c-1.77441 -3.59082 -3.95508 -8.00586 -6.82129 -14.0898c-0.234375 -0.498047 -2.30371 -2.69531 -12.04 -11.0508l-6.74121 2.80957l-0.759766 2.27637
c0.199219 0.189453 13.5352 13.4395 14.2607 23.4268c0.349609 4.81641 0.514648 9.43262 0.514648 13.8623c0 44.8262 -16.8701 70.5215 -29.5957 89.9316c-4.02246 6.13477 -7.63965 11.6445 -10.1797 16.957c-10.9297 -34.2646 -35.1367 -69.6045 -35.1367 -103.394
c0 -16.7373 9.29883 -29.7988 9.5 -30c4.75391 -4.75391 7.93262 -8.0752 19.25 -11.4404v-1.53613l0.700195 0.0722656c2.45605 5.99316 8.42676 11.6807 15.5 11.6807c10.6094 0 15.8105 -9.33008 15.8105 -16.8438c0 -7.80273 -6.01953 -16.6816 -13.7607 -16.6816
c-3.59082 0 -7.78125 1.70703 -11.29 4.31445c-51.2764 -7.9248 -174.746 -21.8818 -253.032 -28.9873c-2.16309 -0.196289 -3.54492 -0.313477 -4.0293 -0.34082c0 0 -0.0517578 -0.115234 -0.200195 -0.115234zM572 448
c-0.137695 0 -0.745117 0.258789 -0.745117 0.829102c0 0.0888672 0.0136719 0.176758 0.0351562 0.255859c-0.341797 6.65527 -0.682617 13.3105 -1.02441 19.9658l245.224 25.1523c-2.36719 0.225586 -4.53906 0.432617 -4.56445 0.435547
c-25.2979 4.30664 -34.6709 16.209 -34.6709 41.1602c0 56.2324 47.2812 149.828 56.8369 199.845c0.439453 2.30273 3.46094 4.0127 3.46094 5.73438c0 0.120117 0.62207 1.60547 0.5 2.5l1 -1c0.0244141 -0.796875 0.616211 -1.33691 0.640625 -2.13379v0
c11.3164 -54.4404 54.0967 -126.619 54.0967 -178.397c0 -17.0195 -5.05078 -29.6406 -12.7383 -45.1982c-1.77441 -3.59082 -3.95508 -8.00586 -6.82129 -14.0898c-0.234375 -0.498047 -2.30371 -2.69531 -12.04 -11.0508l-6.74121 2.80957l-0.759766 2.27637
c0.199219 0.189453 13.5352 13.4395 14.2607 23.4268c0.349609 4.81641 0.514648 9.43262 0.514648 13.8623c0 44.8262 -16.8701 70.5215 -29.5957 89.9316c-4.02246 6.13477 -7.63965 11.6445 -10.1797 16.957c-10.9297 -34.2646 -35.1367 -69.6045 -35.1367 -103.394
c0 -16.7373 9.29883 -29.7988 9.5 -30c4.75391 -4.75391 7.93262 -8.0752 19.25 -11.4404v-1.53613l0.700195 0.0722656c2.45605 5.99316 8.42676 11.6807 15.5 11.6807c10.6094 0 15.8105 -9.33008 15.8105 -16.8438c0 -7.80273 -6.01953 -16.6816 -13.7607 -16.6816
c-3.59082 0 -7.78125 1.70703 -11.29 4.31445c-51.2764 -7.9248 -174.746 -21.8818 -253.032 -28.9873c-2.16309 -0.196289 -3.54492 -0.313477 -4.0293 -0.34082c0 0 -0.0517578 -0.115234 -0.200195 -0.115234zM34.3545 -40.4795h55.5146l17.1611 52.2256
l17.1602 -52.2256h55.5156l-44.8672 -32.2959l17.1611 -52.2246l-44.9697 32.2959l-44.9707 -32.2959l17.1611 52.2246zM435.911 303.59c0 7.42841 6.0471 13.5419 13.5917 13.5419c-0.0186957 0 84.0667 -0.340158 97.9808 -0.396451l63.6425 57.58
c1.31783 -10.3854 2.6902 -20.7163 3.97386 -31.1358l0.898828 -27.9477l207.445 0.390289c7.38455 0.0141859 13.5185 -6.02991 13.5185 -13.541v-84.6842l57.647 -67.1216l-50.4873 2.73498l-7.93986 -0.486957l0.780191 -150.522
c0.0378545 -7.4179 -6.04061 -13.5667 -13.5915 -13.5667c0.0203248 -4.10037e-05 -373.918 1.50875 -373.918 1.50875c-7.40362 0 -13.541 6.02741 -13.541 13.541v300.105zM472.999 26.9776l326.888 -1.40436l0.261361 128.418
c-11.49 -0.623344 -11.49 -0.623344 -61.3779 -1.94307l61.1064 67.0159v59.571l-183.72 2.52008c-0.154819 -15.4527 -0.159257 -15.8957 1.03468 -60.6456l-70.1594 59.1648l-74.0335 0.317372v-253.015zM34.3545 -40.4795h55.5146l17.1611 52.2256l17.1602 -52.2256
h55.5156l-44.8672 -32.2959l17.1611 -52.2246l-44.9697 32.2959l-44.9707 -32.2959l17.1611 52.2246zM435.911 303.59c0 7.42841 6.0471 13.5419 13.5917 13.5419c-0.0186957 0 84.0667 -0.340158 97.9808 -0.396451l63.6425 57.58
c1.31783 -10.3854 2.6902 -20.7163 3.97386 -31.1358l0.898828 -27.9477l207.445 0.390289c7.38455 0.0141859 13.5185 -6.02991 13.5185 -13.541v-84.6842l57.647 -67.1216l-50.4873 2.73498l-7.93986 -0.486957l0.780191 -150.522
c0.0378545 -7.4179 -6.04061 -13.5667 -13.5915 -13.5667c0.0203248 -4.10037e-05 -373.918 1.50875 -373.918 1.50875c-7.40362 0 -13.541 6.02741 -13.541 13.541v300.105zM472.999 26.9776l326.888 -1.40436l0.261361 128.418
c-11.49 -0.623344 -11.49 -0.623344 -61.3779 -1.94307l61.1064 67.0159v59.571l-183.72 2.52008c-0.154819 -15.4527 -0.159257 -15.8957 1.03468 -60.6456l-70.1594 59.1648l-74.0335 0.317372v-253.015zM34.3545 -40.4795h55.5146l17.1611 52.2256l17.1602 -52.2256
h55.5156l-44.8672 -32.2959l17.1611 -52.2246l-44.9697 32.2959l-44.9707 -32.2959l17.1611 52.2246zM435.911 303.59c0 7.42841 6.0471 13.5419 13.5917 13.5419c-0.0186957 0 84.0667 -0.340158 97.9808 -0.396451l63.6425 57.58
c1.31783 -10.3854 2.6902 -20.7163 3.97386 -31.1358l0.898828 -27.9477l207.445 0.390289c7.38455 0.0141859 13.5185 -6.02991 13.5185 -13.541v-84.6842l57.647 -67.1216l-50.4873 2.73498l-7.93986 -0.486957l0.780191 -150.522
c0.0378545 -7.4179 -6.04061 -13.5667 -13.5915 -13.5667c0.0203248 -4.10037e-05 -373.918 1.50875 -373.918 1.50875c-7.40362 0 -13.541 6.02741 -13.541 13.541v300.105zM472.999 26.9776l326.888 -1.40436l0.261361 128.418
c-11.49 -0.623344 -11.49 -0.623344 -61.3779 -1.94307l61.1064 67.0159v59.571l-183.72 2.52008c-0.154819 -15.4527 -0.159257 -15.8957 1.03468 -60.6456l-70.1594 59.1648l-74.0335 0.317372v-253.015z" />
  </g>

</svg>
