<?xml version="1.0" standalone="no"?>
<!DOCTYPE svg PUBLIC "-//W3C//DTD SVG 1.1//EN" "http://www.w3.org/Graphics/SVG/1.1/DTD/svg11.dtd" >
<svg xmlns="http://www.w3.org/2000/svg" xmlns:xlink="http://www.w3.org/1999/xlink" version="1.1" viewBox="-10 0 1020 1000">
  <g transform="matrix(1 0 0 -1 0 800)">
   <path fill="currentColor"
d="M30.3242 741.553h55.5146l17.1611 52.2256l17.1602 -52.2256h55.5156l-44.8672 -32.2959l17.1611 -52.2246l-44.9697 32.2959l-44.9707 -32.2959l17.1611 52.2246zM271 608l-12 60c128.725 89.7881 355.203 55.3633 442.457 48.5605
c0 -0.0107422 0.000976562 -0.0214844 0.000976562 -0.0322266c27.4463 0.582031 75.1855 -1.32129 107.268 -33.4033c40.1396 -40.1396 38.6152 -108.841 37.5254 -169.365c-0.395508 -21.9258 -0.433594 -33.2402 -0.22168 -41.9463
c26.3789 -43.8281 72.168 -89.959 89.3252 -129.607c6.95117 -16.0635 5.49219 -24.7637 2.64551 -40.2051l-12 -14l-79.501 -63.5771v-212.431c1.93945 -31.0869 1.82422 -79.2412 -27.416 -108.48c-26.0322 -26.0322 -182.507 -12.0195 -220.584 -13.0049
l-2.90137 0.0126953c-103.732 -7.2998 -296.108 50.6025 -326.603 92.1719c-18.5059 25.2275 -31.4014 41.2529 -57.9951 55.3086v70.0371c25.8174 -16.2627 49.624 -17.8066 70.1904 -60.6357c44.2188 -92.082 349.455 -105.734 451.309 -108.438l-0.499023 -0.962891
c50 12 34.1514 4.48145 42.5352 13.5361c19.1768 20.7119 3.97852 41.9688 5.50781 57.9648h-0.541992v2.14941c-0.253906 0.990234 -0.500977 1.94141 -0.738281 2.84863h0.738281v207.174v3.4873v1.33887h1.58203l104 88h1.13281
c4.9834 45.8955 -62.8379 92.1289 -94.2158 139.501l-3 4l-1 1c-2.02051 3.99219 0.0439453 4.02539 -2.08398 11.5605c-0.0371094 0.130859 -0.189453 0.24707 -0.174805 0.367188l0.258789 2.07227l0.0644531 1.49902
c0.00976562 0.226562 0.150391 3.89551 0.242188 6.24414c3.11426 79.1523 5.19727 173.389 -83.8154 173.771c-136.35 16.7461 -373.536 9.53418 -431.49 -46.5137zM428.35 560.878l107.65 -194.878l105.661 194.927l-21.1533 8.56738l-83.6074 -159.074l-91.7285 157.565z
M601.867 231.27v6.375h-48.7031v37.0781h-6.37402v-37.0781h-48.7031v-6.375h48.7031v-99.8906h6.37402v99.8906h48.7031zM498.721 75.8145c-0.935547 0 -1.6875 0.759766 -1.6875 1.6875l1.61816 46.5947c-4.70605 5.63379 -9.53418 10.9072 -14.2881 16.1006
c-20.959 22.8906 -40.5742 44.3652 -40.6416 87.6797c-0.0576172 36.0986 13.0742 54.5664 20.4277 62.0459c23.2422 22.7217 53.9268 28.4326 69.874 28.4326c1.4502 0 3.28418 1.23047 5.19531 1.13965c47.1348 -2.21777 57.1943 -5.94531 81.21 -26.833
c3.09961 -2.69727 4.00195 -4.89551 4.4043 -6.9707c0.0732422 -0.375 0.114258 -0.521484 0.12793 -0.567383c11.0049 -12.6982 18.7266 -46.0693 19.3242 -55.7744c0.0410156 -0.658203 0.139648 -1.42188 0.253906 -2.28711
c0.320312 -2.44336 0.74707 -5.67285 0.0361328 -9.7373c-9.79297 -55.9248 -36.4053 -72.0186 -39.5342 -80.7861c-0.170898 -0.478516 -0.329102 -0.557617 -0.396484 -0.625977c-0.746094 -0.745117 -7.21191 -4.04199 -12.4062 -6.48535
c-0.652344 -1.85742 -0.652344 -1.85742 -0.982422 -2.2002c-0.15332 -0.588867 -0.291992 -1.62988 -0.291992 -1.62988l-0.963867 -47.5977c-0.0195312 -0.914062 -0.761719 -1.64648 -1.67773 -1.65234zM624.891 285.198l-0.111328 0.0976562l-1.01953 -1.33301z
M620.152 291.217l-1.11719 0.460938l-1.11816 -2.80176zM547.169 306.599c-27.0605 0 -44.707 -4.77637 -67.207 -21.46c-5.93359 -5.93359 -22.4482 -23.7402 -22.5264 -54.6318c-0.102539 -40.666 17.6201 -59.8115 27.1406 -69.332
c4.74316 -4.74316 4.74316 -4.74316 5.52832 -5.91699c1.55371 -2.32031 1.55371 -2.32031 11.6338 -13.2461c2.31445 -0.570312 5.85352 -2.0293 9.44238 -5.75977c1.96289 -2.04004 1.16992 -9.61328 0.807617 -13.0781l-0.323242 -39.4004l62.5244 -0.320312
l2.94141 48.3574c0.0273438 0.458008 0.238281 0.884766 0.592773 1.18457c2.07715 1.77051 2.13184 1.81738 3.20801 2.89355c1.0625 1.0625 4.14746 4.07422 6.85938 4.86328c0.982422 0.286133 2.35352 3.00391 5.20117 5.13281
c13.626 10.1855 33.793 35.8242 36.2969 72.7754c0.366211 5.40625 -0.46875 11.3037 -1.53516 17.6309c-2.25684 13.3896 -5.56445 32.418 -15.7451 44.2803c-1.58203 1.30371 -2.0625 1.7373 -9.35059 9.02441c-13.0361 13.0371 -34.6211 17.0029 -55.4893 17.0029z" />
  </g>

</svg>
