<?xml version="1.0" standalone="no"?>
<!DOCTYPE svg PUBLIC "-//W3C//DTD SVG 1.1//EN" "http://www.w3.org/Graphics/SVG/1.1/DTD/svg11.dtd" >
<svg xmlns="http://www.w3.org/2000/svg" xmlns:xlink="http://www.w3.org/1999/xlink" version="1.1" viewBox="-10 0 1051 1000">
  <g transform="matrix(1 0 0 -1 0 800)">
   <path fill="currentColor"
d="M30.3242 741.553h55.5146l17.1611 52.2256l17.1602 -52.2256h55.5156l-44.8672 -32.2959l17.1611 -52.2246l-44.9697 32.2959l-44.9707 -32.2959l17.1611 52.2246zM271 608l-12 60c128.725 89.7881 355.203 55.3633 442.457 48.5605
c0 -0.0107422 0.000976562 -0.0214844 0.000976562 -0.0322266c27.4463 0.582031 75.1855 -1.32129 107.268 -33.4033c40.1396 -40.1396 38.6152 -108.841 37.5254 -169.365c-0.395508 -21.9258 -0.433594 -33.2402 -0.22168 -41.9463
c26.3789 -43.8281 72.168 -89.959 89.3252 -129.607c6.95117 -16.0635 5.49219 -24.7637 2.64551 -40.2051l-12 -14l-79.501 -63.5771v-212.431c1.93945 -31.0869 1.82422 -79.2412 -27.416 -108.48c-26.0322 -26.0322 -182.507 -12.0195 -220.584 -13.0049
l-2.90137 0.0126953c-103.732 -7.2998 -296.108 50.6025 -326.603 92.1719c-18.5059 25.2275 -31.4014 41.2529 -57.9951 55.3086v70.0371c25.8174 -16.2627 49.624 -17.8066 70.1904 -60.6357c44.2188 -92.082 349.455 -105.734 451.309 -108.438l-0.499023 -0.962891
c50 12 34.1514 4.48145 42.5352 13.5361c19.1768 20.7119 3.97852 41.9688 5.50781 57.9648h-0.541992v2.14941c-0.253906 0.990234 -0.500977 1.94141 -0.738281 2.84863h0.738281v207.174v3.4873v1.33887h1.58203l104 88h1.13281
c4.9834 45.8955 -62.8379 92.1289 -94.2158 139.501l-3 4l-1 1c-2.02051 3.99219 0.0439453 4.02539 -2.08398 11.5605c-0.0371094 0.130859 -0.189453 0.24707 -0.174805 0.367188l0.258789 2.07227l0.0644531 1.49902
c0.00976562 0.226562 0.150391 3.89551 0.242188 6.24414c3.11426 79.1523 5.19727 173.389 -83.8154 173.771c-136.35 16.7461 -373.536 9.53418 -431.49 -46.5137zM527.028 100.986l35.25 31.5h10.5l35.25 -37.5l-9 -2.25l-30.75 30.75l-36.75 -30zM587.778 174.486l36 36
l5.25 -6l-36.75 -36zM555.528 175.986l-4.5 -6.75zM517.278 206.736l38.25 -30.75l-4.5 -6.75l-38.75 29.25zM574.361 244.417c57.6387 0 104.583 -38.2646 104.583 -85.3477c0 -47.083 -46.9443 -85.417 -104.583 -85.417s-104.583 38.2646 -104.583 85.3477
s46.9443 85.417 104.583 85.417zM574.361 80.5967c53.8193 0 97.6387 35.1396 97.6387 78.4033s-43.8193 78.4717 -97.6387 78.4717s-97.6387 -35.1387 -97.6387 -78.4023c0 -43.2637 43.8193 -78.4727 97.6387 -78.4727zM561.911 298.415l-55.8828 54.8857l10.6445 10.9766
l44.9062 -41.2461l79.833 101.121l11.9756 -8.31543zM626.031 578.447l-50.4346 -50.9355l54.8857 -50.4502l-7.14648 -5.95312l-54.9473 50.582l-49.6953 -50.582l-5.18945 5.67578l49.0635 49.8965l-48.2324 50.1719l6.37598 6.09863l48.7861 -48.5098l51.0059 48.7871z
" />
  </g>

</svg>
