<?xml version="1.0" standalone="no"?>
<!DOCTYPE svg PUBLIC "-//W3C//DTD SVG 1.1//EN" "http://www.w3.org/Graphics/SVG/1.1/DTD/svg11.dtd" >
<svg xmlns="http://www.w3.org/2000/svg" xmlns:xlink="http://www.w3.org/1999/xlink" version="1.1" viewBox="-10 0 1008 1000">
  <g transform="matrix(1 0 0 -1 0 800)">
   <path fill="currentColor"
d="M36.8232 747.879h55.5146l17.1611 52.2256l17.1602 -52.2256h55.5156l-44.8672 -32.2959l17.1611 -52.2246l-44.9697 32.2959l-44.9707 -32.2959l17.1611 52.2246zM277.499 614.326l-12 60c128.725 89.7881 355.203 55.3633 442.457 48.5605
c0 -0.0107422 0.000976562 -0.0214844 0.000976562 -0.0322266c27.4463 0.582031 75.1855 -1.32129 107.268 -33.4033c40.1396 -40.1396 38.6152 -108.841 37.5254 -169.365c-0.395508 -21.9258 -0.433594 -33.2402 -0.22168 -41.9463
c26.3789 -43.8281 72.168 -89.959 89.3252 -129.607c6.95117 -16.0635 5.49219 -24.7637 2.64551 -40.2051l-12 -14l-79.501 -63.5771v-212.431c1.93945 -31.0869 1.82422 -79.2412 -27.416 -108.48c-26.0322 -26.0322 -182.507 -12.0195 -220.584 -13.0049
l-2.90137 0.0126953c-103.732 -7.2998 -296.108 50.6025 -326.603 92.1719c-18.5059 25.2275 -31.4014 41.2529 -57.9951 55.3086v70.0371c25.8174 -16.2627 49.624 -17.8066 70.1904 -60.6357c44.2188 -92.082 349.455 -105.734 451.309 -108.438l-0.499023 -0.962891
c50 12 34.1514 4.48145 42.5352 13.5361c19.1768 20.7119 3.97852 41.9688 5.50781 57.9648h-0.541992v2.14941c-0.253906 0.990234 -0.500977 1.94141 -0.738281 2.84863h0.738281v207.174v3.4873v1.33887h1.58203l104 88h1.13281
c4.9834 45.8955 -62.8379 92.1289 -94.2158 139.501l-3 4l-1 1c-2.02051 3.99219 0.0439453 4.02539 -2.08398 11.5605c-0.0371094 0.130859 -0.189453 0.24707 -0.174805 0.367188l0.258789 2.07227l0.0644531 1.49902
c0.00976563 0.226562 0.150391 3.89551 0.242188 6.24414c3.11426 79.1523 5.19727 173.389 -83.8154 173.771c-136.35 16.7461 -373.536 9.53418 -431.49 -46.5137zM506.942 283.541c0 -1.11035 0.929688 -1.92285 1.92285 -1.92285l153.135 -0.618164
c1.0625 0 1.92871 0.870117 1.92871 1.9043l-0.783203 66.5557c2.49512 -0.356445 4.96777 -0.932617 7.48438 -1.06934l12.251 -0.663086l-18.9521 22.0674v36.0215c0 1.06543 -0.869141 1.9248 -1.83984 1.9248l-88.1084 -1.91992l-0.898438 16.6143l-0.72168 5.62402
l-21.9609 -19.8691l-0.611328 0.00195312s-40.9111 0.166016 -40.917 0.166016c-1.11328 0 -1.92871 -0.927734 -1.92871 -1.92383v-122.894zM514.886 289.555v110.854l35.2705 -0.151367l23.8203 -20.0879c0.404297 6.74707 0.549805 13.752 0.789062 20.6641
l81.2197 -1.04395v-29.3721l-20.6973 -22.7002l10.1904 -1.35059l12.2969 1.8916l-1.83789 -59.3086zM382.728 99.1602c29.7529 27.3877 46.1797 58.2412 84.6104 57.2012c35.0215 -1.04004 35.6406 -61.708 70.6621 -61.3613
c33.4727 0.34668 31.6123 61.709 65.084 62.4014c41.8408 0.693359 59.8164 -30.8535 92.9775 -59.2813c4.33887 -3.81348 -2.47852 -15.9473 -7.4375 -13.5205c-34.7119 17.334 -44.6289 60.668 -82.75 58.2412c-33.7812 -2.08008 -28.5137 -66.2148 -62.2949 -67.6006
c-38.1211 -1.3877 -41.8398 60.3203 -79.9609 62.4004c-34.7109 1.73438 -43.0791 -38.8291 -75.3125 -54.0811c-5.26758 -2.42676 -10.2266 11.4404 -5.57812 15.6006zM376.711 563.238l-0.477539 -10.4434h5.56445v-0.589844l180.202 -63.2051v63.3623l112.317 0.56543
v10.7822z" />
  </g>

</svg>
