<?xml version="1.0" standalone="no"?>
<!DOCTYPE svg PUBLIC "-//W3C//DTD SVG 1.1//EN" "http://www.w3.org/Graphics/SVG/1.1/DTD/svg11.dtd" >
<svg xmlns="http://www.w3.org/2000/svg" xmlns:xlink="http://www.w3.org/1999/xlink" version="1.1" viewBox="-10 0 1046 1000">
  <g transform="matrix(1 0 0 -1 0 800)">
   <path fill="currentColor"
d="M69.3545 724.521h55.5146l17.1611 52.2256l17.1602 -52.2256h55.5156l-44.8672 -32.2959l17.1611 -52.2246l-44.9697 32.2959l-44.9707 -32.2959l17.1611 52.2246zM843.03 613.968c0 -96.6865 68.0879 -173.199 99.375 -191.775l11.1992 -6.64941
c-16.9434 -0.478516 1.18945 0.900391 -34.5742 -3.5752l-1.0752 1.36426c-22.0068 27.9238 -93.998 110.011 -106.903 207.233c-0.657227 4.95117 0.0224609 9.79688 0.582031 18.2783c-1.38379 0.708984 -2.88672 1.4873 -4.52246 2.34082
c-0.0283203 -1.83984 -0.322266 -3.81641 -0.0449219 -5.88867c33.3789 -249.661 97.5459 -216.742 97.5459 -216.742s6.91211 -4.29004 10.2793 -6.58594h-32.8613c-44.1455 16.1279 -101.697 151.17 -101.697 222.331c0 8.73535 0.302734 15.3135 0.785156 20.6846
c-60.6641 32.3369 -181.179 64.7012 -284.885 64.7012c-23.0527 0 -45.5234 -2.04883 -73.3945 -6.17773c-32.3232 -4.78906 -32.3232 -4.78906 -70.6152 -21.2002c-18.916 -8.10645 -50.2139 -47.4062 -58.166 -66.7188
c-7.02734 -17.0664 -9.0791 -30.2676 -9.0791 -45.8906c0 -22.332 3.62891 -44.376 3.62891 -77.1553c0 -8.99219 1.14648 -13.8564 1.14648 -20.1924c0 -4.57031 -0.613281 -9.64551 -2.73242 -16.6025c-19.9492 -65.4795 -40.3174 -87.0479 -63.832 -110.183
c-6.25977 -6.16016 -27.0508 -26.6172 -27.0508 -37.7881c0 -4.45605 0.882812 -6.9082 38.3447 -19.4531c55.9199 -18.7266 60.0254 -24.4102 60.0254 -90.9766c0 -43.0117 2.70801 -110.013 2.70801 -151.731c0 -5.5 0.0820312 -11.3867 0.267578 -17.7666
c0.50293 -17.292 16.4512 -45.3398 23.8975 -57.5352c1.19629 -0.303711 1.95996 -1.18164 1.95996 -1.18164c1.1543 -0.666992 2.48438 -1.60059 4.13477 -2.74414c16.0508 -11.1162 22.0049 -13.1846 40.8428 -13.1846c24.0361 0 22.3457 4.21484 79.0615 4.21484
c0.316406 0 6.94531 -0.00390625 7.01562 -0.00390625c14.7988 0 25.668 0.226562 52.1025 3.80078c20.2021 2.73242 38.8271 4.61621 56.5088 6.4043c120.938 12.2334 201.711 24.1475 280.178 80.1953c2.23438 1.5957 5.14355 3.85352 8.45703 6.42773
c12.6104 9.7959 33.0303 26.8994 48.1416 26.8994c8.16699 0 13.834 -4.95996 13.834 -14.165c0 -15.4473 -17.4082 -42.8486 -33.0938 -42.8486c-1.16406 0 -1.56543 0.129883 -3.01758 0.129883c-22.6426 0 -44.3604 -36.5264 -79.4766 -51.29
c-52.8857 -22.2344 -138.298 -27.127 -175.459 -33.71c-17.2549 -3.05664 -36.6504 -6.49316 -61.8809 -12.2393c-34.7246 -7.90918 -51.6299 -8.61133 -86.7539 -8.61133c-0.251953 0 -22.7891 0.03125 -25.0811 0.03125c-11.3115 0 -32.6182 -0.123047 -32.9473 -0.123047
c-40.7773 0 -82.5049 2.86621 -120.91 24.8125c-26.0957 14.9121 -27.9092 36.1035 -30.0449 61.0586c-0.477539 5.59082 -0.976562 11.3994 -1.75781 17.3906c-1.96484 15.7158 -2.63672 29.7119 -2.63672 42.8916c0 28.6572 -4.27441 100.664 -4.27441 131.409
c0 46.4277 -4.59863 49 -29.7539 58.8145c-27.3184 10.6582 -57.2148 13.2568 -70.834 26.876c-4.33008 4.33008 -6.66504 9.68945 -6.66504 16.1094c0 4.7959 1.30371 10.1846 4.05176 16.1768c36.4951 79.5967 68.6367 70.0742 91.3711 139.761
c5.20312 15.9443 6.93652 32.2529 6.93652 48.6797c0 32.5635 -6.77832 65.1611 -6.77832 95.8125c0 47.6494 17.2412 68.3838 35.0508 86.1934c66.2422 66.2412 143.674 66.3555 238.901 66.3555h0.988281c82.8154 0 190.135 -23.3467 246.021 -49.8477
c43.5547 -20.6533 21.8506 -15.7109 32.4561 -16.8408c11.3984 -1.2168 39 -13 47.5039 -30.4053c4.31641 -8.83496 -4.12305 -21.668 -4.50391 -29.5947c-0.257812 -5.36523 2 -14.3428 2 -20zM514.562 380.551
c-0.0488281 0 -0.129883 -0.000976562 -0.179688 -0.000976562c-14.6523 0 -34.9717 8.39258 -45.3535 18.7334c-21.2002 21.2676 -25.0664 54.6006 -9.93262 85.1338c5.13281 10.334 11.2002 20.4004 17.0664 30.1338c3.13379 5.13281 6.2666 10.333 9.2002 15.5332
l21.1992 37.1328l1 1.93359c4.66699 9.13281 5.86719 11.4004 8.53418 11.4004h1.2666c2.26562 -0.933594 3.7334 -3.7998 5.66602 -8.06738c0.333984 -0.732422 0.599609 -1.39941 0.799805 -1.66602l32.8672 -57.667c2.33301 -4.06641 4.86621 -8 7.40039 -12
c4.70996 -6.88281 11.2207 -18.6797 14.5322 -26.333c0.800781 -1.95605 1.48926 -3.95605 2.06738 -6c1.56934 -5.27051 2.84375 -14.0107 2.84375 -19.5098c0 -31.29 -24.958 -61.377 -55.7109 -67.1572c-3.61816 -0.798828 -9.56152 -1.51562 -13.2666 -1.59961z
M516.096 570.951c-1 -1.80078 -2 -3.86719 -2.53418 -5l-1.19922 -2.33398l-21.2002 -37c-3 -5.2666 -6.13379 -10.4668 -9.33398 -15.666c-5.7998 -9.60059 -11.7998 -19.5342 -16.7998 -29.6006c-13.8662 -28.1338 -10.5332 -58.4668 8.59961 -77.334
c9.38574 -9.32031 27.7383 -16.8838 40.9648 -16.8838c3.30078 0 8.60352 0.544922 11.8359 1.21777c27.9385 5.08984 50.6133 32.2695 50.6133 60.668c0 5.13672 -1.23047 13.29 -2.74609 18.1982c-0.53418 1.86719 -1.15625 3.68945 -1.86719 5.4668
c-3.18555 7.32031 -9.42773 18.6104 -13.9336 25.2002c-2.59961 4.06738 -5.19922 8.13379 -7.59961 12.2666l-32.8672 57.0664c0 0.466797 -0.666016 1.2666 -1.06641 2.2666zM518 122.4c-0.0488281 0 -0.129883 -0.000976563 -0.179688 -0.000976563
c-14.6523 0 -34.9717 8.39258 -45.3535 18.7334c-21.2002 21.2676 -25.0664 54.6006 -9.93262 85.1338c5.13281 10.334 11.2002 20.4004 17.0664 30.1338c3.13379 5.13281 6.2666 10.333 9.2002 15.5332l21.1992 37.1328l1 1.93359
c4.66699 9.13281 5.86719 11.4004 8.53418 11.4004h1.2666c2.26562 -0.933594 3.7334 -3.7998 5.66602 -8.06738c0.333984 -0.732422 0.599609 -1.39941 0.799805 -1.66602l32.8672 -57.667c2.33301 -4.06641 4.86621 -8 7.40039 -12
c4.70996 -6.88281 11.2207 -18.6797 14.5322 -26.333c0.800781 -1.95605 1.48926 -3.95605 2.06738 -6c1.56934 -5.27051 2.84375 -14.0107 2.84375 -19.5098c0 -31.29 -24.958 -61.377 -55.7109 -67.1572c-3.61816 -0.798828 -9.56152 -1.51562 -13.2666 -1.59961z
M519.534 312.801c-1 -1.80078 -2 -3.86719 -2.53418 -5l-1.19922 -2.33398l-21.2002 -37c-3 -5.2666 -6.13379 -10.4668 -9.33398 -15.666c-5.7998 -9.60059 -11.7998 -19.5342 -16.7998 -29.6006c-13.8662 -28.1338 -10.5332 -58.4668 8.59961 -77.334
c9.38574 -9.32031 27.7383 -16.8838 40.9648 -16.8838c3.30078 0 8.60352 0.544922 11.8359 1.21777c27.9385 5.08984 50.6133 32.2695 50.6133 60.668c0 5.13672 -1.23047 13.29 -2.74609 18.1982c-0.53418 1.86719 -1.15625 3.68945 -1.86719 5.4668
c-3.18555 7.32031 -9.42773 18.6104 -13.9336 25.2002c-2.59961 4.06738 -5.19922 8.13379 -7.59961 12.2666l-32.8672 57.0664c0 0.466797 -0.666016 1.2666 -1.06641 2.2666z" />
  </g>

</svg>
