<?xml version="1.0" standalone="no"?>
<!DOCTYPE svg PUBLIC "-//W3C//DTD SVG 1.1//EN" "http://www.w3.org/Graphics/SVG/1.1/DTD/svg11.dtd" >
<svg xmlns="http://www.w3.org/2000/svg" xmlns:xlink="http://www.w3.org/1999/xlink" version="1.1" viewBox="-10 0 1043 1000">
  <g transform="matrix(1 0 0 -1 0 800)">
   <path fill="currentColor"
d="M398.767 602.344c44.3924 0 47.9981 -47.7626 102.826 -47.7626c24.0416 0 42.1173 24.229 50.5993 28.8947c23.5529 12.961 45.147 18.2579 64.7391 18.2579c57.2816 0 96.0517 -45.0846 116.448 -71.9515c10.5928 -13.954 12.2795 -12.7608 17.0135 -19.3244
c38.1766 -52.9411 41.7861 -105.834 41.7861 -134.506c0 -3.76005 -0.0620769 -7.10354 -0.116409 -9.97596v-0.17928c-0.0404026 -2.11672 -0.0776168 -3.95806 -0.0776168 -5.48541c0 -0.337108 0.00164621 -0.658921 0.00523091 -0.965023l0.0163504 -1.39618
c-7.41781 -20.0347 -36.6852 -69.4356 -56.0952 -83.0233c-36.2962 -25.3894 -59.0932 -42.0172 -59.7369 -42.3664l-37.7814 -20.4958l-23.7727 53.8288c-6.33344 14.3428 -38.6383 27.4937 -72.0462 27.4937c-10.4037 0 -27.4 0 -49.0783 -13.1469
c-11.2734 5.98637 -24.7161 13.1246 -66.6486 13.1246c-56.981 0 -97.5896 -13.9352 -97.5896 -22.8773c0 -3.55359 17.4858 -14.5053 32.4837 -31.9055l25.9631 -30.1217c-50.8161 26.8839 -56.2038 29.7342 -93.689 54.6414
c-31.4474 20.8953 -58.7113 75.4279 -67.897 96.2091l-11.9892 27.124l4.24084 -3.28487c-0.390047 1.69416 -0.566364 3.50471 -0.566364 5.42402c0 35.3738 56.5819 128.07 72.1883 139.794c15.2597 11.4636 23.5222 40.5975 39.0276 49.719
c27.2438 16.0283 50.5038 24.2569 69.7481 24.2569zM631.885 617.053c-101.069 0 -93.2097 -47.7353 -128.465 -47.7353c-14.6597 0 -43.6686 23.5839 -62.0526 38.5299c-10.0849 8.21506 -34.6127 11.7793 -56.5878 11.7793
c-26.8223 0 -30.0695 -3.42969 -40.9578 -11.0517c-55.4352 -38.805 -156.962 -170.669 -156.962 -222.387c0 -29.4719 16.4536 -54.8286 21.9855 -61.797c20.715 -26.0946 20.1082 -37.923 48.707 -66.5218c50.9691 -50.9691 127.053 -78.2596 144.432 -83.9271
c11.514 -3.62633 12.6485 -3.98364 19.3802 -22.3595c10.2622 -28.0118 36.6771 -66.6006 104.327 -66.6006c5.58615 0 64.9396 0.707532 94.6739 30.4419c16.971 16.971 17.7036 30.3334 20.1462 74.883c51.6216 27.6897 111.584 59.8536 147.365 103.363
c14.1875 17.2507 16.3287 16.1202 16.9544 19.2292c3.67367 18.2458 20.307 50.2507 20.307 69.9163c0 32.0191 -9.13604 165.634 -157.185 228.916c-9.28187 3.96754 -22.4638 5.32217 -36.068 5.32217zM363.02 274.185c17.6039 5.95298 46.3861 8.13198 87.6496 8.13198
c22.279 0 27.8812 -2.62133 38.0792 -9.75998c15.49 -10.843 28.8515 -20.1961 33.6306 -20.1961c0.197576 0 0.374323 0.0162109 0.534876 0.0450654c-1.90676 2.90528 -1.90676 2.90528 -22.4217 21.6237c14.1221 8.30135 20.9201 12.2974 39.7584 12.2974
c3.8418 0 44.0704 -0.583562 62.4771 -24.7705c15.4903 -20.3557 22.7571 -64.099 22.7571 -90.5221c0 -43.4569 -23.9471 -78.4654 -101.11 -78.4654c-19.0405 0 -45.3912 4.04411 -64.34 22.9928c-35.4 35.4 -18.2936 95.6757 -82.0083 141.535
c-6.30584 4.53815 -6.66805 4.79882 -15.0071 17.088zM530 219.501c-25.4467 0 -46.5015 -14.6928 -46.5015 -32.5015c0 -17.6684 16.4648 -36.5015 42.5015 -36.5015c25.4467 0 46.5015 14.6928 46.5015 32.5015c0 17.6684 -16.4648 36.5015 -42.5015 36.5015z" />
  </g>

</svg>
