<?xml version="1.0" standalone="no"?>
<!DOCTYPE svg PUBLIC "-//W3C//DTD SVG 1.1//EN" "http://www.w3.org/Graphics/SVG/1.1/DTD/svg11.dtd" >
<svg xmlns="http://www.w3.org/2000/svg" xmlns:xlink="http://www.w3.org/1999/xlink" version="1.1" viewBox="-10 0 1043 1000">
  <g transform="matrix(1 0 0 -1 0 800)">
   <path fill="currentColor"
d="M795.734 125.333zM223.221 510.497zM116.305 313.669zM532.879 56.3232zM532.129 32.4209zM213.84 121.298zM397.336 63.5713zM897.855 358.173zM116.305 313.669zM897.855 358.173zM675.093 602.708c-60.2715 12.5029 -110.026 -14.6719 -123.768 -33.7793
c-0.926758 -1.28906 -1.92676 -2.67871 -4.7627 -3.71094c-15.3027 -5.58203 -48.6699 -13.1621 -89.54 5.20215c-53.5957 65.2383 -185.385 20.6162 -218.586 -57.0215c-0.817383 -1.91113 -1.63379 -3.82324 -2.45117 -5.73438h-4.84473l-106.658 -144.92h-2.15039
c-0.483398 -2.05957 -0.483398 -2.05957 -0.483398 -3.57617c-0.651367 -0.680664 -0.651367 -0.680664 -13.9443 -50.5273c-0.193359 0 -0.387695 0.00878906 -0.582031 0.00878906c-0.116211 -0.894531 -0.255859 -1.78516 -0.424805 -2.71191h0.509766
l-0.078125 -10.5537c0 -38.1387 19.8672 -100.406 105.303 -171.065c97.0039 -80.2344 206.716 -89.1934 298.665 -89.1934c150.75 0 210.428 18.4482 300.149 89.3496c107.896 85.2539 110.461 110.503 113.259 167.998l-1.72168 0.0273438
c-0.195312 0.738281 -14.7949 59.6602 -19.2998 73.8887l-78.4014 133.974c-19.2373 20.0771 -85.1387 88.8584 -150.189 102.346zM261.917 502.444c21.4092 47.335 75.958 74.3955 120.146 74.3955c24.6055 0 39.0166 -6.9375 54.124 -17.335l-0.129883 -1.60352
c1.06348 -0.657227 2.2168 -1.50195 3.3584 -2.58691c33.4053 -31.7412 102.186 -30.5947 127.54 -5.23633c4.81543 4.81836 6.50391 7.69043 9.29199 16.0977c7.60352 5.18848 31.2559 21.3281 69.2354 21.3281c41.083 0 61.0908 -18.4326 75.3457 -31.71
c10.835 -10.0908 24.75 -23.085 55.002 -43.1562c0.901367 -0.295898 1.76465 -0.712891 2.55859 -1.24023l1.63379 0.0654297l91.0703 -143.644v-1.53613c4.70605 -17.666 17.9678 -71.0342 18.1504 -71.752c13.376 -53.4414 -9.68164 -82.8457 -104.747 -160.532
c-73.5508 -60.0977 -128.282 -80.999 -287.496 -80.999c-86.416 0 -157.221 10.7979 -239.126 68.1299c-108.771 76.1416 -116.602 131.425 -115.186 180.832c3.57617 14.1875 15.7471 59.541 15.9043 60.1426l100.023 141.611zM289.935 455.373v-286.559
c15.1919 9.79564 15.1919 9.79564 15.3936 9.9109c12.4313 7.10411 98.9424 50.9167 194.501 -44.6327c4.91126 -4.91126 5.88097 -5.94009 18.5035 -19.9233c12.0874 13.395 14.3152 15.8637 20.7238 22.2723c104.332 104.332 185.078 47.809 191.515 42.918
l16.1603 -12.5698v288.363c-34.6488 25.9894 -124.274 55.0336 -219.82 -40.512c-0.937862 -0.937862 -0.937862 -0.937862 -5.43066 -5.50327c-4.24364 4.29458 -4.24364 4.29458 -4.9243 4.97524c-103.165 103.165 -199.978 59.433 -226.622 41.26zM309.933 203.037
v241.504c31.8908 16.4845 107.947 40.1354 193.078 -44.9882c5.06077 -5.06077 6.16634 -6.23744 18.6229 -20.0321c11.5747 12.8285 13.625 15.1008 19.6326 21.1085c83.9141 83.9141 155.717 60.835 183.056 45.5573l2.56013 -1.43063v-239.38
c-10.1666 3.95095 -31.4244 12.2121 -53.3051 13.2721c-33.5719 1.9328 -89.4315 -7.6447 -151.708 -71.1074l-3.54185 -3.60934c-29.2015 29.301 -99.0277 93.828 -201.878 61.1747z" />
  </g>

</svg>
