<?xml version="1.0" standalone="no"?>
<!DOCTYPE svg PUBLIC "-//W3C//DTD SVG 1.1//EN" "http://www.w3.org/Graphics/SVG/1.1/DTD/svg11.dtd" >
<svg xmlns="http://www.w3.org/2000/svg" xmlns:xlink="http://www.w3.org/1999/xlink" version="1.1" viewBox="-10 0 1055 1000">
  <g transform="matrix(1 0 0 -1 0 800)">
   <path fill="currentColor"
d="M30.3242 741.553h55.5146l17.1611 52.2256l17.1602 -52.2256h55.5156l-44.8672 -32.2959l17.1611 -52.2246l-44.9697 32.2959l-44.9707 -32.2959l17.1611 52.2246zM271 608l-12 60c128.725 89.7881 355.203 55.3633 442.457 48.5605
c0 -0.0107422 0.000976562 -0.0214844 0.000976562 -0.0322266c27.4463 0.582031 75.1855 -1.32129 107.268 -33.4033c40.1396 -40.1396 38.6152 -108.841 37.5254 -169.365c-0.395508 -21.9258 -0.433594 -33.2402 -0.22168 -41.9463
c26.3789 -43.8281 72.168 -89.959 89.3252 -129.607c6.95117 -16.0635 5.49219 -24.7637 2.64551 -40.2051l-12 -14l-79.501 -63.5771v-212.431c1.93945 -31.0869 1.82422 -79.2412 -27.416 -108.48c-26.0322 -26.0322 -182.507 -12.0195 -220.584 -13.0049
l-2.90137 0.0126953c-103.732 -7.2998 -296.108 50.6025 -326.603 92.1719c-18.5059 25.2275 -31.4014 41.2529 -57.9951 55.3086v70.0371c25.8174 -16.2627 49.624 -17.8066 70.1904 -60.6357c44.2188 -92.082 349.455 -105.734 451.309 -108.438l-0.499023 -0.962891
c50 12 34.1514 4.48145 42.5352 13.5361c19.1768 20.7119 3.97852 41.9688 5.50781 57.9648h-0.541992v2.14941c-0.253906 0.990234 -0.500977 1.94141 -0.738281 2.84863h0.738281v207.174v3.4873v1.33887h1.58203l104 88h1.13281
c4.9834 45.8955 -62.8379 92.1289 -94.2158 139.501l-3 4l-1 1c-2.02051 3.99219 0.0439453 4.02539 -2.08398 11.5605c-0.0371094 0.130859 -0.189453 0.24707 -0.174805 0.367188l0.258789 2.07227l0.0644531 1.49902
c0.00976562 0.226562 0.150391 3.89551 0.242188 6.24414c3.11426 79.1523 5.19727 173.389 -83.8154 173.771c-136.35 16.7461 -373.536 9.53418 -431.49 -46.5137zM656.575 278.23v7.22461h-55.1973v42.0225h-7.22363v-42.0225h-55.1973v-7.22461h55.1973v-113.209
h7.22363v113.209h55.1973zM539.675 102.048c-1.05957 0 -1.91211 0.861328 -1.91211 1.91309l1.83398 52.8066c-5.33398 6.38477 -10.8047 12.3613 -16.1924 18.2471c-23.7549 25.9443 -45.9844 50.2812 -46.0625 99.3711
c-0.0634766 40.9121 14.8184 61.8408 23.1523 70.3193c26.3418 25.749 61.1172 32.2227 79.1904 32.2227c1.64355 0 3.72363 1.39258 5.88867 1.29102c53.4199 -2.5127 64.8203 -6.73828 92.0371 -30.4111c3.51465 -3.05664 4.53613 -5.54785 4.99219 -7.89941
c0.0830078 -0.425781 0.129883 -0.59082 0.146484 -0.642578c12.4707 -14.3906 21.2217 -52.2119 21.9004 -63.2119c0.0458984 -0.745117 0.158203 -1.61133 0.287109 -2.5918c0.364258 -2.76953 0.84668 -6.42969 0.0400391 -11.0342
c-11.0977 -63.3828 -41.2578 -81.623 -44.8047 -91.5596c-0.193359 -0.541992 -0.373047 -0.631836 -0.450195 -0.708984c-0.844727 -0.844727 -8.17285 -4.58105 -14.0596 -7.34961c-0.739258 -2.10547 -0.739258 -2.10547 -1.11328 -2.49414
c-0.173828 -0.666992 -0.331055 -1.84668 -0.331055 -1.84668l-1.09375 -53.9434c-0.0205078 -1.03711 -0.862305 -1.86719 -1.89941 -1.87402zM682.668 339.35l-0.126953 0.110352l-1.15527 -1.51074zM677.298 346.171l-1.26562 0.521484l-1.2666 -3.17578z
M594.584 363.604c-30.6689 0 -50.668 -5.41406 -76.1699 -24.3213c-6.72363 -6.72461 -25.4404 -26.9053 -25.5283 -61.917c-0.117188 -46.0879 19.9697 -67.7861 30.7588 -78.5762c5.37598 -5.37598 5.37598 -5.37598 6.2666 -6.70605
c1.76074 -2.62891 1.76074 -2.62891 13.1846 -15.0137c2.62305 -0.644531 6.63379 -2.29785 10.7012 -6.52637c2.22363 -2.31152 1.32617 -10.8945 0.915039 -14.8223l-0.366211 -44.6533l70.8613 -0.363281l3.33203 54.8057
c0.0322266 0.519531 0.271484 1.00195 0.672852 1.34277c2.35449 2.00684 2.41602 2.05957 3.63574 3.2793c1.20508 1.2041 4.7002 4.61719 7.77441 5.51172c1.1123 0.324219 2.66699 3.4043 5.89453 5.81738c15.4414 11.5439 38.2988 40.5996 41.1367 82.4785
c0.415039 6.12695 -0.53125 12.8105 -1.74023 19.9814c-2.55762 15.1748 -6.30664 36.7402 -17.8438 50.1846c-1.79297 1.47754 -2.33887 1.96875 -10.5977 10.2285c-14.7744 14.7744 -39.2383 19.2695 -62.8877 19.2695zM687.516 426.574l-229.5 0.764648v15.1445h205.771
v85.9912h-205.771v15.1445l227.459 -1.27539z" />
  </g>

</svg>
