<?xml version="1.0" standalone="no"?>
<!DOCTYPE svg PUBLIC "-//W3C//DTD SVG 1.1//EN" "http://www.w3.org/Graphics/SVG/1.1/DTD/svg11.dtd" >
<svg xmlns="http://www.w3.org/2000/svg" xmlns:xlink="http://www.w3.org/1999/xlink" version="1.1" viewBox="-10 0 1051 1000">
  <g transform="matrix(1 0 0 -1 0 800)">
   <path fill="currentColor"
d="M30.3242 741.553h55.5146l17.1611 52.2256l17.1602 -52.2256h55.5156l-44.8672 -32.2959l17.1611 -52.2246l-44.9697 32.2959l-44.9707 -32.2959l17.1611 52.2246zM271 608l-12 60c128.725 89.7881 355.203 55.3633 442.457 48.5605
c0 -0.0107422 0.000976562 -0.0214844 0.000976562 -0.0322266c27.4463 0.582031 75.1855 -1.32129 107.268 -33.4033c40.1396 -40.1396 38.6152 -108.841 37.5254 -169.365c-0.395508 -21.9258 -0.433594 -33.2402 -0.22168 -41.9463
c26.3789 -43.8281 72.168 -89.959 89.3252 -129.607c6.95117 -16.0635 5.49219 -24.7637 2.64551 -40.2051l-12 -14l-79.501 -63.5771v-212.431c1.93945 -31.0869 1.82422 -79.2412 -27.416 -108.48c-26.0322 -26.0322 -182.507 -12.0195 -220.584 -13.0049
l-2.90137 0.0126953c-103.732 -7.2998 -296.108 50.6025 -326.603 92.1719c-18.5059 25.2275 -31.4014 41.2529 -57.9951 55.3086v70.0371c25.8174 -16.2627 49.624 -17.8066 70.1904 -60.6357c44.2188 -92.082 349.455 -105.734 451.309 -108.438l-0.499023 -0.962891
c50 12 34.1514 4.48145 42.5352 13.5361c19.1768 20.7119 3.97852 41.9688 5.50781 57.9648h-0.541992v2.14941c-0.253906 0.990234 -0.500977 1.94141 -0.738281 2.84863h0.738281v207.174v3.4873v1.33887h1.58203l104 88h1.13281
c4.9834 45.8955 -62.8379 92.1289 -94.2158 139.501l-3 4l-1 1c-2.02051 3.99219 0.0439453 4.02539 -2.08398 11.5605c-0.0371094 0.130859 -0.189453 0.24707 -0.174805 0.367188l0.258789 2.07227l0.0644531 1.49902
c0.00976562 0.226562 0.150391 3.89551 0.242188 6.24414c3.11426 79.1523 5.19727 173.389 -83.8154 173.771c-136.35 16.7461 -373.536 9.53418 -431.49 -46.5137zM513.666 452.57c1.28906 -22.9072 -9.59668 -88.1592 -3.19336 -91.584
c6.28711 -67.5898 71.7256 -130.74 71.8086 -128.305l-11.0879 -7.3916c-24.9473 27.2109 -52.7832 54.1396 -73.9941 127.872c-4.72266 -32.4658 -25.001 -68.8281 -43.2227 -91.9678c-11.0869 -14.0801 -15.8398 -25.3447 -25.3438 -35.9043l-12.6719 10.0322
c14.2559 18.4795 22.2578 30.3906 31.6797 42.7676c48.1074 63.1934 50.1201 146.162 49.7471 190.117c4.47656 -0.0986328 8.95312 -0.197266 13.4297 -0.296875c2.51855 -0.0537109 2.62109 -2.50195 2.66406 -3.54785
c0.00585938 -0.117188 -0.164062 -5.61719 0.18457 -11.792zM625.697 465.619l-93.3135 -105.289l12.2266 -9.74219l79.4883 92.3574c6.60254 -10.9482 16.0254 -23.8916 19.1621 -32.3887l22.3057 31.8057zM289.816 293.682zM323.005 446.395l0.0244141 -0.0292969
c-0.00878906 0.00976562 -0.0244141 0.0292969 -0.0244141 0.0292969zM228.755 326.902l0.0078125 0.046875c-0.00292969 -0.015625 -0.0078125 -0.03125 -0.0078125 -0.046875zM237.061 307.783l-0.160156 0.0498047
c0.0537109 -0.0175781 0.106445 -0.0332031 0.160156 -0.0498047zM239.741 307.252l-0.0351562 0.00390625c0.00585937 0 0.0117188 -0.00390625 0.0351562 -0.00390625zM342.495 292.051c-53.9443 0.189453 -98.2627 0.000976562 -98.2715 0.000976562
c-6.07617 0.196289 -13.6152 0.438477 -20.123 7.64844c-10.792 11.9551 -8.89258 26.4697 -8.30762 29.6729c1.18945 6.50879 3.05176 13.0459 5.76172 23.9365c11.3545 45.6309 12.6846 52.1807 17.8496 67.2578c11.7705 34.2217 26.0273 45.7764 38.6104 50.8994
c7.70117 2.87402 32.7031 9.6582 53.3818 -13.4355c10.6504 -12.5068 19.2705 -29.4395 29.4072 -70.2832c3.58984 -14.9248 7.25684 -29.8203 11.0078 -44.7188c0.956055 -3.98047 1.83301 -7.97461 2.63379 -12.0107
c3.94922 -19.4443 -7.33105 -39.0771 -25.4736 -38.8369zM232.789 310.954c0.0107422 -0.00976562 0.0224609 -0.0185547 0.0224609 -0.0273438c3.32422 -3.6123 5.53027 -3.70801 11.5742 -3.96973c0 0 100.482 0.0439453 100.527 0.0439453
c2.35352 -0.0332031 4.69824 0.104492 7.03906 0.415039c4.85156 0.605469 12.1289 8.68359 9.69727 20.209c-1.12402 5.6582 -1.12402 5.6582 -5.89941 24.835c-11.8701 48.7529 -14.5752 59.8623 -22.6758 77.6113c-1.48535 3.18262 -6.25195 12.7461 -12.749 19.2441
c-6.3584 6.35742 -13.542 9.70605 -21.8682 10.2822c-10.3584 0.915039 -29.3125 -0.529297 -43.3447 -35.3135c-5.49316 -13.8418 -8.8623 -26.0127 -12.5742 -40.7988c-8.65137 -35.6182 -8.65137 -35.6182 -11.7861 -47.373l0.0078125 0.03125
c-0.00195312 -0.0107422 -0.0078125 -0.03125 -0.0078125 -0.03125c-2.46973 -10.1553 -4.2998 -17.6836 2.03711 -25.1582zM114 330l-43.04 37.2285l41.4453 36.5645l10.5195 -11.126l-21.2158 -17.8574l87.4502 0.706055l0.807617 -15.3613l-88.3809 -0.102539
l22.375 -18.7295z" />
  </g>

</svg>
