<?xml version="1.0" standalone="no"?>
<!DOCTYPE svg PUBLIC "-//W3C//DTD SVG 1.1//EN" "http://www.w3.org/Graphics/SVG/1.1/DTD/svg11.dtd" >
<svg xmlns="http://www.w3.org/2000/svg" xmlns:xlink="http://www.w3.org/1999/xlink" version="1.1" viewBox="-10 0 1010 1000">
  <g transform="matrix(1 0 0 -1 0 800)">
   <path fill="currentColor"
d="M348.481 97.6934l-82.2217 148.848l24.0225 10.1475l58.4395 -100.383l53.3027 101.418l27.2285 -11.0254zM265.568 -67.707v34.6641h38.626v22.0713h-38.626v34.6641h38.626v33.7148h31.3828v-33.7148h23.2197v31.2539h31.3828v-31.2539h41.292v-34.6641h-41.292
v-22.0713h41.292v-34.6641h-41.292v-36.1855h-31.3828v36.1855h-23.2197v-33.7246h-31.3828v33.7246h-38.626zM335.577 -33.043h23.2197v22.0713h-23.2197v-22.0713zM780.659 223.904c-0.529297 0 -0.985352 0.173828 -1.32227 0.358398l-214.094 -88.2627v-37.8242
c12.126 5.10742 24.251 10.2148 36.376 15.3213v-3.77051l-0.21875 -161.659h318.305l0.646484 155.446c10.9619 -6.48535 21.9238 -12.9697 32.8867 -19.4551l-0.677734 40.7051l-136.33 79.1182l1.46387 0.616211c-22.6963 11.7715 -24.457 12.7314 -36.2109 19.5508
c-0.288086 -0.102539 -0.56543 -0.144531 -0.824219 -0.144531zM884.594 -16.7148h-248.003l-0.665039 144.662l142.009 59.8174l107.859 -63.8086zM63.3545 -23.4795h55.5146l17.1611 52.2256l17.1602 -52.2256h55.5156l-44.8672 -32.2959l17.1611 -52.2246
l-44.9697 32.2959l-44.9707 -32.2959l17.1611 52.2246zM147 441.409c53.6084 0.1875 107.218 0.1875 160.825 0c3.52734 0.0683594 7.05273 0.137695 10.5752 0.214844c12.9902 -0.200195 23.7031 5.93848 31.1484 18.998c6.70801 11.7656 10.1436 26.8252 8.7168 33.8496
c-0.648438 3.27246 -5.59375 17.9336 -7.21289 24.375c-6.13672 24.3652 -12.1465 48.7822 -18.0303 73.2461c-3.49512 14.0811 -7.35059 27.998 -11.5576 41.752c-4.38672 14.1895 -9.66602 27.8184 -15.833 40.8857c-5.43945 11.2324 -12.0068 21.3682 -19.708 30.4111
c-13.1709 14.709 -28.6191 23.04 -46.3467 24.9932c-12.0957 1.45312 -23.9619 0.00976562 -35.5986 -4.33398c-10.6572 -4.34082 -20.1318 -11.1289 -28.4316 -20.3721c-7.53125 -8.66113 -13.9443 -18.4131 -19.2432 -29.251
c-4.80957 -9.8584 -9.04492 -20.1143 -12.7129 -30.7744c-3.6543 -10.667 -6.9668 -21.5 -9.94043 -32.5068c-2.22656 -8.30566 -4.38477 -16.6367 -6.47266 -24.9932c-4.20215 -17.4482 -8.44043 -34.8789 -12.7129 -52.2998
c-2.17383 -7.95605 -4.25195 -15.9502 -6.24121 -23.9814c-1.16504 -4.91699 -2.20801 -9.88086 -3.12109 -14.8818c-2.45215 -17.7227 1.69141 -32.5312 12.4248 -44.4238c3.60449 -3.77246 7.64746 -6.61133 12.1357 -8.52637
c2.45898 -0.87207 4.96484 -1.44922 7.51465 -1.7334c3.28809 -0.325195 6.55957 -0.544922 9.82227 -0.647461v0zM147 456c-2.6416 0.113281 -5.30176 0.28125 -7.97461 0.506836c-1.91602 0.180664 -3.80176 0.56543 -5.66309 1.15332
c-3.31348 1.46777 -6.27832 3.63672 -8.90137 6.50098c-7.07324 8.28027 -9.67383 18.3691 -7.79785 30.2676c0.990234 5.19727 2.10547 10.3496 3.34961 15.458c2.28125 8.55176 4.51562 17.125 6.70312 25.7168c4.18262 17.2969 8.38086 34.583 12.5996 51.8643
c2.06445 8.22461 4.2207 16.4111 6.4707 24.5625c4.03125 14.6875 8.81055 28.9912 14.333 42.9043c4.12305 10.2256 9.05566 19.7617 14.79 28.6084c15.9189 23.7246 36.3193 34.4873 61.2002 32.2871c16.8809 -1.16406 31.4053 -8.96875 43.5752 -23.4023
c6.69336 -8.36426 12.4141 -17.6367 17.1621 -27.8115c5.25391 -11.5107 9.80078 -23.4531 13.6377 -35.8311c3.94043 -12.8506 7.5625 -25.8535 10.8643 -39.0068c4.34961 -17.7061 8.66699 -35.4297 12.9434 -53.1621c1.61914 -6.35645 3.23633 -12.7129 4.85547 -19.0723
c1.78125 -7.21387 3.39844 -14.4844 4.85547 -21.8154c0.71875 -3.41211 1.02832 -6.87793 0.924805 -10.4004c-1.06836 -11.0791 -5.40234 -19.4814 -13.0029 -25.2119c-2.45898 -1.85645 -5.11621 -2.96777 -7.97656 -3.32227
c-4.07031 -0.540039 -8.15234 -0.77832 -12.251 -0.722656c-54.8984 -0.0712891 -109.799 -0.0976562 -164.697 -0.0712891v0zM896.051 471.079zM674.003 620.465zM632.536 544.126zM794.104 444.314zM793.812 435.044zM670.365 469.515zM741.533 447.125zM935.658 561.386z
M632.536 544.126zM935.658 561.386zM447.136 755.753v0zM450 426v0zM450.775 408.753v0zM575.126 408.753l-0.986328 363.247h-127.004v-16.2471h109.751v-329.753h-106.887l0.775391 -17.2471h124.351zM575.126 408.753v0zM574.14 772v0zM447.136 772v0zM645.172 538.961
c0 0 0 0.00976562 0.00976562 0.339844l5.00195 -0.144531l-4.88477 0.713867l5.86816 22.002l37.4551 53.0264l1.6875 -0.650391c1.50781 3.55371 3.58008 8.43359 9.37305 14.2266c9.45215 9.45215 23.1953 15.2188 35.9893 15.2188c3.6084 0 9.70605 0 17.9551 -5.05957
c0.347656 -1.21484 0.347656 -1.21484 0.602539 -1.32715c0.334961 -0.148438 1.03027 -0.333008 1.95703 -1.21387c7.0166 -6.66797 17.9971 -10.1465 28.6377 -10.1465c1.71191 0 22.626 0.271484 27.7695 13.5146c0.193359 0.891602 0.711914 1.45898 1.46387 1.79297
c6.80371 4.38672 15.3896 6.60352 23.75 6.60352c15.0801 0 21.9199 -6.36328 27.5488 -11.5986c5.5293 -5.14355 10.6543 -9.73926 22.7568 -17.7207c0.192383 -0.369141 0.557617 -0.56543 0.921875 -0.763672l33.7461 -53.2266
c0.239258 -2.22754 0.189453 -0.436523 0.436523 -1.46973c8.12207 -32.4268 8.12207 -32.4268 8.12207 -36.5498c0 -13.458 -10.0723 -24.793 -41.1777 -50.2109c-27.8584 -22.7656 -48.0566 -30.8779 -110.284 -30.8779c-33.1445 0 -59.8789 4.17676 -91.0479 25.9941
c-38.1943 26.7363 -43.7109 46.5146 -43.7109 64.0449c0 1.18359 0.0214844 2.34375 0.0527344 3.48242zM675.851 621.785h-1.89746l3.02344 1.5293zM675.851 621.785l-41.3672 -56.207h-2.21582v-3.01074l-1.27441 -1.73145h0.757812l-4.32422 -16.2129
l-0.652344 0.0107422c-0.146484 -1.99512 -0.398438 -3.5459 -0.967773 -5.92773h0.728516c0.382812 -9.99707 1.16309 -30.3672 29.4619 -58.666c39.8418 -39.8418 83.3994 -46.3662 129.687 -46.3662c58.2627 0 82.4736 7.13086 117.96 35.1729
c42.8037 33.8223 43.7168 43.7061 44.9648 69.4375l-1.34863 0.0214844c-1.3916 5.37891 -1.47656 5.73047 -2.69141 10.7578c-2.50391 10.3594 -3.25195 12.8271 -4.59766 17.0459l0.0566406 0.263672l-0.492188 0.232422l-30.0781 51.3965
c-3.32227 3.4668 -3.32227 3.4668 -3.52344 3.78418c0 0 -0.160156 0.253906 -0.384766 0.604492h-0.294922c-25.5557 25.874 -46.748 37.499 -67.4355 37.499h-0.592773c-20.7783 0 -32.3574 -9.54004 -36.2344 -13.416
c-0.821289 -0.821289 -1.02637 -1.05273 -2.12012 -2.42285c-2.67676 -0.911133 -7.0293 -2.39355 -13.7119 -2.39355c-6.64355 0 -12.7422 1.37598 -18.9268 3.99316c-2.45996 2.8877 -10.8164 12.6992 -29.9639 12.6992c-21.8027 0 -48.0762 -13.3359 -57.9619 -34.4092
l-1.01074 -2.15527h-1.44531zM905.549 622.391c-0.325195 0.507812 -0.783203 1.21875 -1.07227 1.64551l3.10449 -1.64551h-2.03223zM940.027 566.373l0.123047 0.458008l0.264648 -0.603516zM948.608 538.284c0.0605469 1.24609 0.121094 2.5332 0.183594 3.86426
l3.68359 -3.92773c-1.28906 0.0214844 -2.57812 0.0419922 -3.86719 0.0634766zM625.807 538.706c-0.304688 -1.27148 -0.699219 -2.78027 -1.2168 -4.71973l-3.62207 4.71973h4.83887zM626.774 544.634c-1.21191 0.0205078 -2.4248 0.0400391 -3.63672 0.0605469
l3.80957 3.62402c-0.0488281 -1.47168 -0.0957031 -2.63965 -0.172852 -3.68457zM630.993 560.836l-4.39648 -5.96973l-3.02246 5.96973h7.41895zM632.268 565.578h-3.74902l3.74902 3.74902v-3.74902z" />
  </g>

</svg>
