<?xml version="1.0" standalone="no"?>
<!DOCTYPE svg PUBLIC "-//W3C//DTD SVG 1.1//EN" "http://www.w3.org/Graphics/SVG/1.1/DTD/svg11.dtd" >
<svg xmlns="http://www.w3.org/2000/svg" xmlns:xlink="http://www.w3.org/1999/xlink" version="1.1" viewBox="-10 0 1010 1000">
  <g transform="matrix(1 0 0 -1 0 800)">
   <path fill="currentColor"
d="M744.046 667.013zM860.854 669.789c-33.8896 32.542 -70.3057 62.1289 -70.5723 62.3955c-0.456055 0.457031 -1.33496 1.36328 -2.37891 2.49902c-1.00586 -0.871094 -1.65234 -1.97168 -2.29102 -2.70215c-5.68848 -6.50391 -5.68848 -6.50391 -6.29492 -6.8916
c-0.388672 -0.396484 -0.913086 -0.935547 -1.60352 -1.65332c0.354492 -0.320312 0.354492 -0.320312 2.56641 -2.06055l54.2734 -46.4541l-96.9092 -1.3125l-52.3594 49.4414l-6.91504 -7.68848l43.5361 -41.5576l-16.2568 -0.0205078h-106.726l0.0859375 -12.1758
c1.7373 0.0244141 1.7373 0.0244141 123.003 -1.51953l-47.0117 -39.0889l7.28711 -7.87988l53.418 46.1572c0.780273 0.257812 0.780273 0.257812 1.50195 0.547852l97.1357 0.990234c-17.5117 -14.415 -35.0332 -28.8203 -52.5488 -43.2305l-0.288086 -0.261719
l0.288086 0.261719v0l-0.288086 -0.261719v0v0l-2.53516 -2.08691c1.08398 -1.54199 1.34766 -1.24023 2.23633 -2.20117l5.875 -6.35352v0v0v0c-0.00878906 -0.101562 0.0107422 -0.21582 0 0v0l2.33691 -2.52734c0.978516 0.836914 2.03613 1.74219 2.44629 2.15137
c68.6328 59.2217 68.6328 59.2217 69.7402 60.3291c0.355469 0.355469 0.771484 0.766602 1.27246 1.18457c-0.213867 0.169922 -0.182617 0.201172 -2.02441 1.96973zM915.199 450.104v-29.3643l-41.7998 12.0723l-0.000976562 -111.212h-12l0.000976562 -0.000976563
h-218.4v-1.19922h-27.1992v186.81l-37 10.6855v29.3633zM851 350v89.2812l-208.001 60.0732v-149.354h208.001zM134.221 -61.2959zM340.548 -55.9424v263.013l80.8701 -0.34668l63.0251 -53.1485c1.23064 24.1913 1.23064 24.1913 2.20835 54.5l190.772 -2.45117v-66.4404
l-54.499 -59.7695l32.7266 -4.33887l26 4l-4.22754 -136.465zM695.938 -84.5088c4.71561 0 8.54759 3.82766 8.57399 8.39457l-1.86111 158.189c12.9088 -1.84411 12.9088 -1.84411 53.0537 -4.0831l-51.1944 59.6085v86.5381c0 4.71977 -3.8161 8.4982 -8.24219 8.54782
l-211.617 -4.6113c-2.01115 37.2063 -2.01115 37.2063 -4.71543 58.173l-57.9857 -52.4621l-3.87834 0.0156927s-96.0008 0.388525 -96.0416 0.388607c-4.71785 0 -8.57227 -3.83432 -8.57227 -8.54297v-300.105c0 -4.69954 3.84858 -8.54199 8.54199 -8.54199
c0 0 373.898 -1.50871 373.938 -1.50879zM29.3242 18.2246h55.5146l17.1611 52.2256l17.1602 -52.2256h55.5156l-44.8672 -32.2959l17.1611 -52.2246l-44.9697 32.2959l-44.9707 -32.2959l17.1611 52.2246zM357.744 490.223l-88.7441 167.777l13.4395 5.67871
l76.4727 -135.92l75.9199 141.6l18.168 -7.3584z" />
  </g>

</svg>
