<?xml version="1.0" standalone="no"?>
<!DOCTYPE svg PUBLIC "-//W3C//DTD SVG 1.1//EN" "http://www.w3.org/Graphics/SVG/1.1/DTD/svg11.dtd" >
<svg xmlns="http://www.w3.org/2000/svg" xmlns:xlink="http://www.w3.org/1999/xlink" version="1.1" viewBox="-10 0 1051 1000">
  <g transform="matrix(1 0 0 -1 0 800)">
   <path fill="currentColor"
d="M271 608l-12 60c128.725 89.7881 355.203 55.3633 442.457 48.5605c0 -0.0107422 0.000976562 -0.0214844 0.000976562 -0.0322266c27.4463 0.582031 75.1855 -1.32129 107.268 -33.4033c40.1396 -40.1396 38.6152 -108.841 37.5254 -169.365
c-0.395508 -21.9258 -0.433594 -33.2402 -0.22168 -41.9463c26.3789 -43.8281 72.168 -89.959 89.3252 -129.607c6.95117 -16.0635 5.49219 -24.7637 2.64551 -40.2051l-12 -14l-79.501 -63.5771v-212.431c1.93945 -31.0869 1.82422 -79.2412 -27.416 -108.48
c-26.0322 -26.0322 -182.507 -12.0195 -220.584 -13.0049l-2.90137 0.0126953c-103.732 -7.2998 -296.108 50.6025 -326.603 92.1719c-18.5059 25.2275 -31.4014 41.2529 -57.9951 55.3086v70.0371c25.8174 -16.2627 49.624 -17.8066 70.1904 -60.6357
c44.2188 -92.082 349.455 -105.734 451.309 -108.438l-0.499023 -0.962891c50 12 34.1514 4.48145 42.5352 13.5361c19.1768 20.7119 3.97852 41.9688 5.50781 57.9648h-0.541992v2.14941c-0.253906 0.990234 -0.500977 1.94141 -0.738281 2.84863h0.738281v207.174v3.4873
v1.33887h1.58203l104 88h1.13281c4.9834 45.8955 -62.8379 92.1289 -94.2158 139.501l-3 4l-1 1c-2.02051 3.99219 0.0439453 4.02539 -2.08398 11.5605c-0.0371094 0.130859 -0.189453 0.24707 -0.174805 0.367188l0.258789 2.07227l0.0644531 1.49902
c0.00976562 0.226562 0.150391 3.89551 0.242188 6.24414c3.11426 79.1523 14.1973 176.389 -74.8154 176.771c-136.35 16.7461 -373.536 9.53418 -431.49 -46.5137zM30.3545 728.521h55.5146l17.1611 52.2256l17.1602 -52.2256h55.5156l-44.8672 -32.2959l17.1611 -52.2246
l-44.9697 32.2959l-44.9707 -32.2959l17.1611 52.2246zM435.804 224.024zM434.919 246.382zM586.849 226.278zM586.188 246.963zM626.177 259.741l1.06836 2.08691l1.02246 2.10449l0.927734 2.13184l0.319336 16.7266l-10.4336 10.6221l-14.4434 4.0752l-14.0918 -3.2832
l-6.52441 -7.38086l-1.72852 -4.93457l0.0175781 -9.22363l1.80176 -11.3633l1.43164 -14.9209h-150.625l-0.0849609 -2.72656l-0.00488281 -2.73633v0l0.360352 -7.42578l0.326172 -4.79688l0.288086 -4.67188h148.734l-0.154297 -5.47754l0.126953 -5.46484
l0.522461 -5.42188l4.33594 -14.7246l5.98242 -8.16113l4.86426 -3.38379l11.6699 -0.788086l8.89258 5.83203l5.41602 6.37695l6.69531 11.8545l0.543945 10.084l-4.77734 10.2461l-6.25391 11.0264l-1.24316 10.2168zM585.951 246.382v0.457031
c0.168945 -0.208008 0.760742 -0.55957 0 -0.457031zM435.804 224.024l-0.884766 22.3574v0c0.197266 4.82422 0.751953 9.62793 1.51562 14.3965c0.581055 3.62598 1.29395 7.2334 1.71973 10.8809c0.348633 3 0.47168 6.05371 -0.0527344 9.02832
c-0.745117 4.22754 -2.93066 8.2041 -6.19141 10.999c-3.25977 2.79492 -7.42676 4.41113 -11.6768 5.02246c-4.44727 0.637695 -9.02441 0.263672 -13.3516 -0.939453c-4.3291 -1.20508 -8.44922 -3.26855 -11.8271 -6.22656
c-3.47559 -3.04492 -6.11328 -7.11816 -7.11035 -11.6309c-0.996094 -4.51172 -0.236328 -9.28223 1.51172 -13.5586c0.742188 -1.81836 1.63281 -3.57227 2.53125 -5.31836c0.995117 -1.93555 2 -3.86719 2.87988 -5.8584
c0.87207 -1.98438 1.62598 -4.02832 2.12012 -6.13965c0.620117 -2.6582 0.792969 -5.44043 0.333008 -8.12988c-0.428711 -2.50488 -1.38477 -4.89355 -2.56738 -7.14258c-1.3916 -2.64062 -3.07129 -5.12012 -4.67578 -7.64062
c-2.10547 -3.30566 -4.08789 -6.77734 -4.91895 -10.6064c-0.749023 -3.44824 -0.500977 -7.08203 0.561523 -10.4463c1.41309 -4.46094 4.04395 -8.43262 6.85059 -12.1758c1.71875 -2.29004 3.53516 -4.51465 5.56641 -6.53125
c2.64062 -2.62695 5.7334 -4.89453 9.28027 -6.03223c3.99805 -1.2793 8.47168 -0.953125 12.2549 0.866211c1.86133 0.893555 3.55957 2.1084 5.06934 3.51562c2.55664 2.37402 4.59473 5.27539 6.17383 8.3877c2.38184 4.68945 3.72852 9.85156 4.45215 15.0615
c0.273438 1.96875 0.455078 3.95117 0.553711 5.93848c0.102539 1.9873 0.124023 3.97754 0.0976562 5.9668c-0.0263672 1.98633 -0.100586 3.97168 -0.214844 5.95605v0v0zM585.951 224.024c-0.101562 -0.763672 0.248047 -0.170898 0.456055 0h-0.456055zM316.801 457.601
l-0.53418 -17.667h6.22266v-1l201.511 -106.934v107.2l125.601 0.955078v18.2451z" />
  </g>

</svg>
