<?xml version="1.0" standalone="no"?>
<!DOCTYPE svg PUBLIC "-//W3C//DTD SVG 1.1//EN" "http://www.w3.org/Graphics/SVG/1.1/DTD/svg11.dtd" >
<svg xmlns="http://www.w3.org/2000/svg" xmlns:xlink="http://www.w3.org/1999/xlink" version="1.1" viewBox="-10 0 1248 1000">
  <g transform="matrix(1 0 0 -1 0 800)">
   <path fill="currentColor"
d="M773.799 528.444c17.2158 0 31.1396 -13.541 31.1396 -30.7197c0 -19.1572 -14.0957 -29.8789 -31.1396 -29.8789c-16.4395 0 -31.5596 10.5605 -31.5596 29.8789c0 17.166 14.3262 30.7197 31.5596 30.7197zM812.114 493.584h55.2988l-0.330078 -3.2998
c-1.75195 -17.5254 -11.1035 -40.5088 -22.5244 -54.126l-2.10547 -2.51074l-38.915 38.915c5.60938 8.41504 6.89746 13.1875 8.57617 21.0215zM777.52 403.689v55.7197c10.8682 2.33008 14.5938 4.57227 20.6016 8.57617l39.335 -39.335l-2.51074 -2.10645
c-5.26172 -4.41211 -25.5088 -19.6621 -57.4258 -22.8545zM770.078 459.409v-55.7197l-3.2998 0.331055c-17.5254 1.75195 -40.5088 11.1035 -54.126 22.5234l-2.49609 2.09375l38.8887 39.3555c8.38574 -5.58984 13.1201 -6.8877 21.0332 -8.58398zM679.764 493.584
h55.3008c2.30469 -10.7588 5.12891 -15.2217 9.00293 -21.0332l-39.3555 -38.8887l-2.09375 2.49609c-4.41211 5.26172 -19.6621 25.5088 -22.8545 57.4258zM735.064 501.025h-55.292l0.321289 3.29297c1.75 17.9385 11.1035 40.9346 22.5244 54.5527l2.10645 2.51074
l39.335 -39.335c-6.49121 -9.73828 -7.64453 -14.7148 -8.99512 -21.0215zM770.078 591.339v-55.7197c-11.8105 -2.53125 -15.7158 -5.03809 -21.0332 -8.58398l-38.8887 39.3564l2.49609 2.09277c5.26172 4.41309 25.5088 19.6631 57.4258 22.8545zM777.52 535.619v55.7197
l3.2998 -0.330078c17.5254 -1.75195 40.5088 -11.1035 54.126 -22.5244l2.51074 -2.10547l-39.335 -39.335c-8.57227 5.71484 -12.8506 6.91406 -20.6016 8.5752zM867.413 501.025h-55.2988c-2.53223 11.8135 -5.04492 15.7246 -8.57617 21.0215l38.915 38.9141
l2.10547 -2.51074c4.41309 -5.26074 19.6631 -25.5088 22.8545 -57.4248zM874.959 497.725c0 55.8828 -45.2773 101.16 -101.16 101.16s-101.16 -45.2773 -101.16 -101.16s45.2773 -101.16 101.16 -101.16c56.3154 0 101.16 46.1318 101.16 101.16zM97.459 -41.541h55.5146
l17.1611 52.2256l17.1602 -52.2256h55.5156l-44.8672 -32.2959l17.1611 -52.2246l-44.9697 32.2959l-44.9707 -32.2959l17.1611 52.2246zM198.785 401.1v0v163.858c0 1.32812 1.08789 2.56445 2.57129 2.56445c0.00878906 0 54.5566 -0.220703 54.5566 -0.220703
l0.814453 -0.00292969l29.2822 26.4922l0.961914 -7.49805l1.19824 -22.1533l117.477 2.56055c1.29492 0 2.45312 -1.14551 2.45312 -2.56738v-48.0273l25.2705 -29.4238l-16.334 0.884766c-3.35645 0.181641 -6.65332 0.950195 -9.98047 1.42578l1.04395 -88.7412
c0.000976563 -1.37891 -1.1543 -2.53906 -2.57129 -2.53906l-204.179 0.824219c-1.32422 0 -2.56445 1.08301 -2.56445 2.56348zM209.376 409.118l188.069 -0.806641l2.4502 79.0781l-16.3955 -2.52246l-13.5879 1.80176l27.5977 30.2666v39.1631l-108.293 1.3916
c-0.319336 -9.21582 -0.513672 -18.5557 -1.05273 -27.5518l-31.7607 26.7832l-47.0273 0.202148v-147.806zM656.164 89.9375v0v173.074c0 1.40332 1.15039 2.70898 2.7168 2.70898c0.00976562 0 57.626 -0.233398 57.626 -0.233398l0.859375 -0.00292969l30.9297 27.9824
l1.0166 -7.91992l1.26465 -23.3984l124.086 2.70312c1.36719 0 2.59082 -1.20898 2.59082 -2.71094v-50.7295l26.6924 -31.0791l-17.2539 0.935547c-3.54492 0.191406 -7.02734 1.00293 -10.542 1.50586l1.10352 -93.7334
c0.000976562 -1.45703 -1.21973 -2.68164 -2.7168 -2.68164l-215.663 0.870117c-1.39844 0 -2.70996 1.14453 -2.70996 2.70898zM667.353 98.4062l198.648 -0.852539l2.58789 83.5254l-17.3184 -2.66406l-14.3516 1.90234l29.1504 31.9697v41.3662l-114.385 1.46973
c-0.336914 -9.73438 -0.542969 -19.5996 -1.1123 -29.1016l-33.5479 28.29l-49.6719 0.213867v-156.119zM507 661l-11.6992 58.5c125.506 87.543 346.322 53.9795 431.396 47.3467v-0.0302734c26.7607 0.566406 73.3066 -1.28906 104.586 -32.5684
c39.1367 -39.1367 37.6504 -106.121 36.5859 -165.132c-0.384766 -21.3779 -0.421875 -32.4092 -0.214844 -40.8975c25.7197 -42.7324 70.3633 -87.71 87.0918 -126.367c6.77734 -15.6621 5.35449 -24.1445 2.58008 -39.2012l-11.7012 -13.6484l-77.5117 -61.9883v-207.12
c1.88867 -30.3096 1.77734 -77.2607 -26.7324 -105.768c-25.3809 -25.3818 -177.943 -11.7197 -215.068 -12.6797l-2.82812 0.0117188c-101.141 -7.11816 -288.707 49.3369 -318.438 89.8682c-18.043 24.5957 -30.6152 40.2217 -56.5459 53.9258v68.2861
c25.1729 -15.8564 48.3848 -17.3613 68.4355 -59.1201c43.1133 -89.7793 340.72 -103.092 440.026 -105.729l-0.486328 -0.938477c48.75 11.6992 33.2979 4.36914 41.4717 13.1973c18.6973 20.1953 3.87988 40.9199 5.36914 56.5156h-0.527344v2.0957
c-0.24707 0.96582 -0.488281 1.89258 -0.720703 2.77734h0.720703v201.995v3.39941v1.30566h1.54297l101.399 85.7998h1.10449c4.85938 44.748 -61.2676 89.8262 -91.8604 136.014l-2.9248 3.90039l-0.974609 0.974609c-1.9707 3.89258 0.0429687 3.9248 -2.03125 11.2715
c-0.0371094 0.126953 -0.186523 0.241211 -0.171875 0.358398l0.251953 2.02051l0.0625 1.46094c0.0107422 0.22168 0.146484 3.79883 0.238281 6.08789c3.03516 77.1738 5.06641 169.055 -81.7207 169.429c-132.941 16.3262 -364.199 9.29492 -420.703 -45.3506z" />
  </g>

</svg>
