<?xml version="1.0" standalone="no"?>
<!DOCTYPE svg PUBLIC "-//W3C//DTD SVG 1.1//EN" "http://www.w3.org/Graphics/SVG/1.1/DTD/svg11.dtd" >
<svg xmlns="http://www.w3.org/2000/svg" xmlns:xlink="http://www.w3.org/1999/xlink" version="1.1" viewBox="-10 0 1020 1000">
  <g transform="matrix(1 0 0 -1 0 800)">
   <path fill="currentColor"
d="M30.3242 741.553h55.5146l17.1611 52.2256l17.1602 -52.2256h55.5156l-44.8672 -32.2959l17.1611 -52.2246l-44.9697 32.2959l-44.9707 -32.2959l17.1611 52.2246zM271 608l-12 60c128.725 89.7881 355.203 55.3633 442.457 48.5605
c0 -0.0107422 0.000976562 -0.0214844 0.000976562 -0.0322266c27.4463 0.582031 75.1855 -1.32129 107.268 -33.4033c40.1396 -40.1396 38.6152 -108.841 37.5254 -169.365c-0.395508 -21.9258 -0.433594 -33.2402 -0.22168 -41.9463
c26.3789 -43.8281 72.168 -89.959 89.3252 -129.607c6.95117 -16.0635 5.49219 -24.7637 2.64551 -40.2051l-12 -14l-79.501 -63.5771v-212.431c1.93945 -31.0869 1.82422 -79.2412 -27.416 -108.48c-26.0322 -26.0322 -182.507 -12.0195 -220.584 -13.0049
l-2.90137 0.0126953c-103.732 -7.2998 -296.108 50.6025 -326.603 92.1719c-18.5059 25.2275 -31.4014 41.2529 -57.9951 55.3086v70.0371c25.8174 -16.2627 49.624 -17.8066 70.1904 -60.6357c44.2188 -92.082 349.455 -105.734 451.309 -108.438l-0.499023 -0.962891
c50 12 34.1514 4.48145 42.5352 13.5361c19.1768 20.7119 3.97852 41.9688 5.50781 57.9648h-0.541992v2.14941c-0.253906 0.990234 -0.500977 1.94141 -0.738281 2.84863h0.738281v207.174v3.4873v1.33887h1.58203l104 88h1.13281
c4.9834 45.8955 -62.8379 92.1289 -94.2158 139.501l-3 4l-1 1c-2.02051 3.99219 0.0439453 4.02539 -2.08398 11.5605c-0.0371094 0.130859 -0.189453 0.24707 -0.174805 0.367188l0.258789 2.07227l0.0644531 1.49902
c0.00976562 0.226562 0.150391 3.89551 0.242188 6.24414c3.11426 79.1523 5.19727 173.389 -83.8154 173.771c-136.35 16.7461 -373.536 9.53418 -431.49 -46.5137zM422.1 101.965c0 -1.2959 1.08594 -2.24414 2.24414 -2.24414l178.656 -0.720703
c1.24023 0 2.25098 1.01465 2.25098 2.22168l-0.914062 77.6484c2.91113 -0.416016 5.7959 -1.08789 8.73242 -1.24707l14.293 -0.774414l-22.1113 25.7451v42.0254c0 1.24316 -1.01367 2.24512 -2.14648 2.24512l-102.793 -2.23926l-1.04785 19.3838l-0.842773 6.56055
l-25.6211 -23.1807l-0.712891 0.00195312s-47.7295 0.193359 -47.7363 0.193359c-1.29883 0 -2.25098 -1.08203 -2.25098 -2.24414v-143.375zM431.367 108.98v129.329l41.1484 -0.176758l27.791 -23.4355c0.47168 7.87109 0.641602 16.0439 0.920898 24.1074
l94.7568 -1.21777v-34.2676l-24.1475 -26.4834l11.8887 -1.57617l14.3457 2.20703l-2.14355 -69.1924zM514.058 524.428c53.124 -0.0732422 96.2393 -43.249 96.2393 -96.374v-0.0664062c-0.109375 -53.0137 -43.2246 -96.04 -96.2393 -96.04
c-53.124 0 -96.2393 43.1162 -96.2393 96.2402s43.1152 96.2402 96.2393 96.2402zM603.495 431.056c-0.661133 18.3447 -11.3584 44.1309 -23.877 57.5566l-37.5488 -37.5488c4.0957 -4.77832 7.89062 -13.7412 8.4707 -20.0078h52.9551zM517.393 517.358
l-0.0664062 -53.3555c6.20605 -0.532227 15.1699 -4.14746 20.0078 -8.07031l37.5488 37.5488c-13.4102 12.5049 -39.167 23.2021 -57.4902 23.877zM510.723 517.358c-18.3164 -0.65918 -44.0713 -11.3262 -57.4902 -23.8105l37.4824 -37.6152
c4.83789 3.92285 13.8018 7.53809 20.0078 8.07031v53.3555zM448.497 488.812c-12.5596 -13.4727 -23.2568 -39.3486 -23.877 -57.7568h52.9551c0.580078 6.2666 4.375 15.2295 8.4707 20.0078zM424.62 424.386c0.714844 -18.2607 11.4121 -43.9268 23.877 -57.29
l37.4824 37.2822c-4.09668 4.77734 -7.89062 13.7412 -8.4707 20.0078h-52.8887zM510.723 338.55l0.0664062 53.3555c-6.20605 0.532227 -15.1699 4.14746 -20.0078 8.07031l-37.5488 -37.5488c13.4102 -12.5059 39.166 -23.2021 57.4902 -23.877zM517.393 338.55
c18.3447 0.661133 44.1309 11.3584 57.5576 23.877l-37.5498 37.5488c-4.83789 -3.92285 -13.8018 -7.53809 -20.0078 -8.07031v-53.3555zM579.618 367.096c12.4434 13.3711 23.1104 39.0371 23.8096 57.29h-52.8877c-0.580078 -6.2666 -4.375 -15.2305 -8.4707 -20.0078z
M484.045 427.987c0 -38.2402 60.0254 -38.0439 60.0254 0c0 16.3174 -13.4375 29.5459 -30.0127 29.5459c-16.5752 0 -30.0127 -13.2285 -30.0127 -29.5459z" />
  </g>

</svg>
