<?xml version="1.0" standalone="no"?>
<!DOCTYPE svg PUBLIC "-//W3C//DTD SVG 1.1//EN" "http://www.w3.org/Graphics/SVG/1.1/DTD/svg11.dtd" >
<svg xmlns="http://www.w3.org/2000/svg" xmlns:xlink="http://www.w3.org/1999/xlink" version="1.1" viewBox="-10 0 780 1000">
  <g transform="matrix(1 0 0 -1 0 800)">
   <path fill="currentColor"
d="M439.007 297c0 -147.995 16.8311 -360.837 132.08 -360.837c21.0664 0 47.5254 6.48535 70.9873 38.5371c50.1348 68.6318 61.0918 195.603 61.0918 322.3c0 71.4473 -1.81152 188.026 -36.1719 275.966c-16.8652 43.6514 -46.0293 85.3672 -95.9072 85.3672
c-20.8252 0 -47.2578 -6.4209 -71.0146 -38.5732c-53.7803 -73.4736 -61.0654 -214.783 -61.0654 -322.76zM474 297c0 186.178 21.3633 256.775 53.3301 288.741c12.1016 12.1025 26.8418 18.7188 43.1621 18.7188c25.6904 0 51.2051 -16.8359 71.6104 -65.0518
c18.0811 -42.2227 26.0703 -122.306 26.0703 -242.408c0 -119.444 -7.98828 -199.333 -26.042 -241.846c-8.62305 -20.5449 -29.9971 -65.6133 -71.0439 -65.6133c-31.5557 0 -54.5713 25.958 -71.3418 65.1172c-17.8369 42.5 -25.7451 122.569 -25.7451 242.342z
M334.905 -80.2188c-3.5459 338.843 -6.11523 631.256 -6.11523 718.838c0 4.10742 0.00488281 7.84766 0.015625 11.1982l-39.2334 0.785156c-5.03516 -17.6211 -5.03516 -17.6211 -5.45801 -18.6484c-8.78516 -21.3145 -28.3564 -41.7666 -58.9307 -67.874
l-59.1543 -52.9277c-9.75293 14.7227 -19.6543 29.2949 -29.3125 44.1113c-3.63672 3.51758 -16.0566 10.1846 -29.5293 12.792c-11.792 -0.52832 -25.3994 -3.3877 -38.6045 -7.35059c-7.76367 -4.57422 -28.2305 -20.2686 -28.2305 -45.1602
c0 -5.62012 1.22461 -10.6367 3.14551 -17.9023c0.765625 -2.89551 1.62891 -6.11426 2.39746 -9.7041c5.97754 -7.97949 10.6621 -14.2324 29.4121 -25.3145c5.4082 -3.19531 5.4082 -3.19531 16.7471 -10.4238c1.04004 -16.1064 1.46094 -22.6416 2.09863 -34.4033
c4.48926 2.57617 4.48926 2.57617 30.0059 18.4346c4.76172 3.39648 9.33984 6.58105 13.7246 9.63086c19.8701 13.8232 28.8193 20.4424 39.4238 30.6445l105.329 77.3838v-634.109h52.2686z" />
  </g>

</svg>
