<?xml version="1.0" standalone="no"?>
<!DOCTYPE svg PUBLIC "-//W3C//DTD SVG 1.1//EN" "http://www.w3.org/Graphics/SVG/1.1/DTD/svg11.dtd" >
<svg xmlns="http://www.w3.org/2000/svg" xmlns:xlink="http://www.w3.org/1999/xlink" version="1.1" viewBox="-10 0 1014 1000">
  <g transform="matrix(1 0 0 -1 0 800)">
   <path fill="currentColor"
d="M800.544 419.568l26.1123 10.2393l-4.84082 -76.7998l-16.6631 -43.0078h-26.625l17.4092 47.1045zM614.565 436.678c9.59863 0.134766 19.1963 1.72852 28.7949 4.90625l19.4561 -73.2158l-10.2402 -72.7041l-16.3838 -6.14355l5.46387 74.752zM589.088 441.072
c5.27734 -2.03906 10.4941 -4.12695 18.4326 -4.0957c0.426758 -50.9746 3.24121 -92.957 1.02344 -133.12h-17.4072zM832.801 434.928l21.5273 20.418l29.6719 -145.346h-25.5996zM792.71 597.802v0c25.3486 -59.1973 -22.0068 -69.6709 -42.6445 -78.4707
l-1.88965 0.758789c37.4648 22.2676 52.042 30.8105 44.5342 77.7119zM624.615 623.229v0c63.9404 -7.64551 49.332 -53.8936 46.6348 -76.167l-1.60156 -1.25781c-0.550781 43.5801 -0.662109 60.4746 -45.0332 77.4248zM615.283 454.961
c-39.8125 0 -72.1201 35.0811 -72.1201 72.7314c0 18.46 11.2646 41.1387 18.9229 48.9658c2.0293 2.12109 3.05176 4.83301 3.05176 7.54199c0 2.7002 -1.0166 5.39844 -3.06445 7.50488c-10.0146 10.0273 -18.1426 29.6562 -18.1553 43.707
c0 1.04785 2.20703 17.8379 3.93555 21.6797c8.92578 20.5 34.2715 37.5205 56.5889 38.0557l0.155273 0.00390625l0.15625 -0.00585938c19.6123 -0.69043 45.0791 -15.335 54.877 -37.5879c1.61035 -3.35742 5.55469 -6.30957 10.0283 -6.30957
c3.06543 0 4.95312 1.24609 6.27441 2.11914c11.8936 7.8623 33.1562 14.2793 47.374 14.2793c1.08789 0 2.91406 -0.0478516 3.4873 -0.0625c0.0332031 0 0.0605469 -0.000976563 0.0839844 -0.000976563c4.5293 0.0253906 8.66016 3.33008 10.0957 6.95703
c10.2158 24.7725 40.334 44.9014 67.0625 44.9014c-0.478516 0.220703 -0.704102 0.362305 -0.704102 0.428711c0 0.0302734 0.0458984 0.0439453 0.133789 0.0439453c2.39355 0 36.377 -10.8125 47.9121 -22.3496c4.36426 -4.36328 17.0938 -18.3691 20.3125 -36.1416
c1.15234 -5.79883 6.19238 -8.79102 10.2461 -8.9209c37.3232 -1.00195 67.624 -32.1289 67.624 -69.4609c0 -0.509766 -0.621094 -29.0713 -18.8428 -47.293c-10.8711 -10.8711 -23.9062 -16.5703 -24.8545 -16.9443c-9.9502 -3.92383 -21.7119 -5.4209 -27.2559 -5.4209
h-0.118164c-8.53125 0.19043 -15.3623 4.4502 -25.0371 4.4502c-4.85938 0 -7.61328 -1.30371 -9.09766 -2.78809c-0.178711 -0.195312 -0.946289 -1.0625 -3.94727 -4.46973c2.13477 -4.92773 5.12695 -11.833 5.12695 -20.9014
c0 -13.1426 -7.72949 -25.4258 -8.11719 -25.4863c-1.9502 -2.7002 -4.2832 -5.35156 -6.84375 -7.91113c-7.56641 -7.56641 -17.041 -14.3486 -24.9609 -17.5537c-18.9316 -7.6582 -35.1289 -7.76367 -36.4336 -7.76367c-13.4805 0 -30.9297 5.1123 -31.9648 5.92578
c-16.1777 6.71484 -35.5859 25.6953 -42.4023 44.4082c-1.2041 3.11914 -4.56641 6.32715 -8.37695 7.07715c-0.919922 0.0576172 -1.95508 0.0742188 -3.05762 0.0742188c-0.0986328 0 -5.61523 -0.78125 -8.7002 -4.55566
c-15.8379 -19.3643 -42.9873 -28.9277 -59.3945 -28.9277zM737.659 436.703l-0.0488281 0.0214844zM561.984 576.55v0zM527.328 526.38c0 -48.7676 42.7646 -89.7021 87.2373 -89.7021c33.3262 0 59.2061 20.5674 63.4121 24.1592l4.5625 3.89551
c5.32227 -8.34277 8.78809 -13.7744 17.3906 -22.376c9.51758 -9.51855 21.1484 -17.9385 31.8545 -22.1592c9.91797 -3.87012 26.0918 -6.91016 36.7393 -6.91016c13.6631 0 28.3789 3.1748 44.5684 9.42383c14.5654 5.62207 32.7891 20.2646 41.2354 32.6348
c4.33691 6.34961 9.21973 22.3281 9.21973 33.7441c0 0.828125 0 0.828125 -0.327148 8.28027c8.75684 -1.76855 11.9512 -2.41504 15.6816 -2.41504c4.36328 0 21.0908 2.12793 33.0615 7.22949c13.0527 5.31055 29.6182 18.5244 37.5088 29.4385
c9.21777 12.877 16.5078 35.584 16.5078 51.4219c0 11.4717 -3.95508 28.543 -8.99609 38.8418c-8.64746 17.666 -36.626 42.1465 -66.6484 46.9111l-3.20312 0.507812c-2.3418 7.5498 -7.28223 23.4814 -24.3398 40.5391c-9.6875 9.6875 -30.8301 26.8369 -59.1211 26.8369
c-36.5205 0 -67.7539 -26.7363 -79.624 -49.3232l-1.36816 -2.60352c-11.5273 -0.697266 -28.9336 -3.31543 -46.2158 -11.8311l-4.10645 -2.02344c-4.20117 6.28223 -6.37012 9.52441 -11.7578 14.9111c-14.4473 14.4473 -36.0166 25.3867 -55.4795 26.0195
c-0.239258 0.00488281 -0.479492 0.00683594 -0.720703 0.00683594c-23.583 0 -59.4678 -19.2393 -71.4971 -49.9736c-2.85352 -7.66992 -4.7793 -26.4248 -5.03418 -27.8379c0 -15.0869 7.08496 -35.5605 16.6973 -48.6309l2.20801 -3.00098l-2.125 -3.06152
c-9.94043 -14.3281 -17.3203 -36.71 -17.3203 -52.9531zM95.3564 -53.4346h55.5146l17.1611 52.2256l17.1602 -52.2256h55.5156l-44.8672 -32.2959l17.1611 -52.2246l-44.9697 32.2959l-44.9707 -32.2959l17.1611 52.2246zM792.392 -128.522
c4.71566 0 8.54805 3.82816 8.57445 8.3949l-1.86106 158.192c12.9092 -1.84687 12.9092 -1.84687 53.0538 -4.08558l-51.1945 59.6086v86.5378c0 4.7199 -3.81595 8.49775 -8.24181 8.54737l-211.618 -4.61139c-2.01099 37.2079 -2.01099 37.2079 -4.71525 58.1739
l-57.9861 -52.4624l-3.87834 0.0156954s-96.0002 0.388589 -96.041 0.388672c-4.7178 0 -8.57252 -3.83435 -8.57252 -8.54306v-300.105c0 -4.69938 3.84823 -8.542 8.542 -8.542c0 0 373.897 -1.50879 373.938 -1.50887zM437.002 -99.9552v263.013l80.8706 -0.346706
l63.0241 -53.1487c1.23063 24.1914 1.23063 24.1914 2.20901 54.5004l190.772 -2.45102v-66.4408l-54.499 -59.7695l32.7259 -4.33919l26.001 4.00104l-4.22755 -136.465z" />
  </g>

</svg>
