<?xml version="1.0" standalone="no"?>
<!DOCTYPE svg PUBLIC "-//W3C//DTD SVG 1.1//EN" "http://www.w3.org/Graphics/SVG/1.1/DTD/svg11.dtd" >
<svg xmlns="http://www.w3.org/2000/svg" xmlns:xlink="http://www.w3.org/1999/xlink" version="1.1" viewBox="-10 0 1008 1000">
  <g transform="matrix(1 0 0 -1 0 800)">
   <path fill="currentColor"
d="M332.481 97.6934l-82.2217 148.848l24.0225 10.1475l58.4395 -100.383l53.3027 101.418l27.2285 -11.0254zM249.568 -67.707v34.6641h38.626v22.0713h-38.626v34.6641h38.626v33.7148h31.3828v-33.7148h23.2197v31.2539h31.3828v-31.2539h41.292v-34.6641h-41.292
v-22.0713h41.292v-34.6641h-41.292v-36.1855h-31.3828v36.1855h-23.2197v-33.7246h-31.3828v33.7246h-38.626zM319.577 -33.043h23.2197v22.0713h-23.2197v-22.0713zM764.659 223.904c-0.529297 0 -0.985352 0.173828 -1.32227 0.358398l-214.094 -88.2627v-37.8242
c12.126 5.10742 24.251 10.2148 36.376 15.3213v-3.77051l-0.21875 -161.659h318.305l0.646484 155.446c10.9619 -6.48535 21.9238 -12.9697 32.8867 -19.4551l-0.677734 40.7051l-136.33 79.1182l1.46387 0.616211c-22.6963 11.7715 -24.457 12.7314 -36.2109 19.5508
c-0.288086 -0.102539 -0.56543 -0.144531 -0.824219 -0.144531zM868.594 -16.7148h-248.003l-0.665039 144.662l142.009 59.8174l107.859 -63.8086zM38.3545 -39.4795h55.5146l17.1611 52.2256l17.1602 -52.2256h55.5156l-44.8672 -32.2959l17.1611 -52.2246
l-44.9697 32.2959l-44.9707 -32.2959l17.1611 52.2246zM670 626c-67.0312 0 -121.58 23.5176 -121.58 52.4326c0 28.915 54.5488 52.4326 121.58 52.4326s121.58 -23.5176 121.58 -52.4326c0 -28.915 -54.5488 -52.4326 -121.58 -52.4326zM670 725.137
c-62.5732 0.220703 -113.475 -20.8184 -113.475 -46.7041c0 -25.8857 50.9014 -46.9248 113.475 -46.9248s113.474 21.0391 113.474 46.9248c0 25.8857 -50.9004 46.9248 -113.474 46.9248v-0.220703zM669.1 528.618c-1.9294 -1.44423 -6.23214 2.73532 -7.5 5.58301
c-9.98926 22.4365 -37.5097 45.4021 -60.666 53.584c-23.584 8.33301 -54.5 2.75 -54.5 2.75l-4.25 7.16602s37.2752 5.38549 61.416 -2c25.2812 -7.73438 54.625 -33.5693 65.5 -57.666c16.667 46.5 64.0812 60.3453 78.25 63.5c21.334 4.75 47.2819 -4.4685 47.25 -4.5
l-5.91602 -5.83398s-19.5555 6.53951 -39.417 2.16699c-13.25 -2.91699 -60.6503 -14.9495 -72.25 -58.333c-0.860352 -3.21777 -5.36241 -4.50479 -7.58301 -6.16699zM646.6 507.018c0 12 10.2002 21.6006 22.5 21.6006c12.3008 0 22.5 -9.60059 22.5 -21.6006
s-10.1992 -21.5996 -22.5 -21.5996c-12.2998 0 -22.5 9.59961 -22.5 21.5996zM326 494.667c-0.0615234 0 -0.163086 -0.000976563 -0.224609 -0.000976563c-18.3164 0 -43.7612 10.4448 -56.6924 23.417c-26.5 26.584 -31.3659 68.2663 -12.416 106.417
c6.41602 12.917 13.9307 25.542 21.333 37.667c3.91699 6.41602 7.79987 12.9349 11.5 19.416l26.5 46.417l1.25 2.41699c5.88905 11.387 7.33301 14.25 10.667 14.25h1.58301c2.83301 0 4.65693 -4.75457 7.08301 -10.084c0.416992 -0.916016 0.79544 -1.7241 1 -2.08301
l41.084 -72.083c2.90214 -5.09189 5.90744 -10.1156 9.25 -15c5.8877 -8.60352 14.0264 -23.3496 18.166 -32.917c1.00098 -2.44434 1.82595 -4.95461 2.58398 -7.5c1.96191 -6.58789 3.55469 -17.5127 3.55469 -24.3867c0 -39.1133 -31.446 -75.5094 -69.6387 -83.9463
c-4.52246 -0.999023 -11.9509 -2 -16.583 -2zM327.917 732.667c0 0 -2.45163 -4.85886 -3.16699 -6.25l-1.5 -2.91699l-26.5 -46.25c-3.76648 -6.57357 -7.72028 -13.0505 -11.667 -19.583c-7.25 -12 -14.7887 -24.3978 -21 -37
c-17.333 -35.167 -13.0823 -72.9994 10.75 -96.667c11.7314 -11.6504 34.6719 -21.1055 51.2051 -21.1055c4.12695 0 10.7351 0.782862 14.7949 1.52246c34.9238 6.3623 63.2666 40.3369 63.2666 75.835c0 6.4209 -1.66745 16.5738 -3.43262 22.748
c-0.666992 2.33301 -1.44434 4.61133 -2.33398 6.83301c-3.98145 9.15039 -12.0415 23.0926 -17.416 31.5c-3.25 5.08398 -6.51809 10.1566 -9.5 15.334l-41.084 71.333c-0.252142 0.437787 -0.656431 1.68728 -1.33301 2.83301z" />
  </g>

</svg>
