<?xml version="1.0" standalone="no"?>
<!DOCTYPE svg PUBLIC "-//W3C//DTD SVG 1.1//EN" "http://www.w3.org/Graphics/SVG/1.1/DTD/svg11.dtd" >
<svg xmlns="http://www.w3.org/2000/svg" xmlns:xlink="http://www.w3.org/1999/xlink" version="1.1" viewBox="-10 0 578 1000">
  <g transform="matrix(1 0 0 -1 0 800)">
   <path fill="currentColor"
d="M237 248c0 0.575195 -0.138672 1.09082 -0.138672 2.30664c0 10.9678 21.3525 54.4121 28.3994 91.9229c13.9307 74.1572 15.3145 141.674 15.3145 197.962c0 13.9551 -0.0849609 27.2031 -0.0849609 39.7012c0 6.67188 -0.0341797 13.084 -0.0869141 19.209
l-0.00878906 1.03125c0.00390625 0.56543 0.451172 1.00879 1.00684 1.00879l36.6553 -0.807617c2.97559 -0.0644531 9.02344 -1.42969 9.02344 -11.4727c0 -0.117188 -0.0986328 -3.93848 -0.0986328 -9.17871c0 -5.76465 0.869141 -33.123 0.869141 -33.458
c0 -51.5303 -14.0273 -151.507 -14.0273 -202.819c0 -29.5654 4.97168 -25.2217 5.2666 -28.3965c16.1084 -173.17 179.663 -335.342 188.633 -338.63c0.193359 -0.0722656 0.74707 -0.336914 0.74707 -1.00781c0 -0.246094 -0.0839844 -0.4375 -0.174805 -0.572266
c0.375 -0.208984 0.758789 -0.423828 0.758789 -1.01074c0 -0.887695 -30.7344 -21.0732 -31.1104 -21.0732c-0.439453 0 -0.439453 0 -13.1787 13.8281c-62.0352 67.1602 -129.654 140.461 -182.296 318.451c-14.8193 -84.3193 -66.752 -176.519 -113.597 -236.01
c-29.9668 -38.0576 -41.1191 -66.2275 -67.9131 -95.998c-0.197266 -0.21875 -0.470703 -0.332031 -0.745117 -0.332031c-0.34668 0 -0.34668 0 -35.7295 28.0107c-0.249023 0.198242 -0.379883 0.491211 -0.379883 0.786133c0 0.74707 0 -0.852539 80.4561 108.858
c23.8096 32.4678 30.4395 41.6904 74.0879 106.641c-3.88281 -1.75 -8.17773 -2.72461 -12.6836 -2.72461c-17.1172 0 -31.1982 14.0811 -31.1982 31.1982c0 17.1182 14.082 31.1992 31.1982 31.1992c12.4482 0 23.291 -7.44727 28.2803 -18.0938
c1.6416 3.91895 2.75488 7.30371 2.75488 9.4707z" />
  </g>

</svg>
