<?xml version="1.0" standalone="no"?>
<!DOCTYPE svg PUBLIC "-//W3C//DTD SVG 1.1//EN" "http://www.w3.org/Graphics/SVG/1.1/DTD/svg11.dtd" >
<svg xmlns="http://www.w3.org/2000/svg" xmlns:xlink="http://www.w3.org/1999/xlink" version="1.1" viewBox="-10 0 828 1000">
  <g transform="matrix(1 0 0 -1 0 800)">
   <path fill="currentColor"
d="M188.211 -44.1465c134.023 0.46875 268.042 0.46875 402.063 0c8.81836 0.170898 17.6318 0.34375 26.4375 0.537109c32.4756 -0.500977 59.2578 14.8457 77.8711 47.4951c16.7676 29.4141 25.3594 67.0625 21.792 84.624
c-1.62109 8.18066 -13.9844 44.834 -18.0322 60.9375c-15.3418 60.9102 -30.3662 121.955 -45.0781 183.115c-8.73535 35.2021 -18.374 69.9951 -28.8916 104.377c-10.9668 35.4766 -24.165 69.5488 -39.585 102.217c-13.5957 28.0811 -30.0146 53.4209 -49.2676 76.0254
c-32.9268 36.7754 -71.5479 57.6025 -115.864 62.4854c-30.2412 3.63281 -59.9072 0.0244141 -88.999 -10.835c-26.6426 -10.8516 -50.3291 -27.8223 -71.0791 -50.9297c-18.8281 -21.6533 -34.8604 -46.0332 -48.1104 -73.1279
c-12.0234 -24.6455 -22.6094 -50.2881 -31.7793 -76.9355c-9.13867 -26.668 -17.4199 -53.75 -24.8535 -81.2676c-5.56641 -20.7637 -10.96 -41.5918 -16.1797 -62.4824c-10.5078 -43.6211 -21.1006 -87.2002 -31.7822 -130.75
c-5.43652 -19.8896 -10.6318 -39.875 -15.6025 -59.9531c-2.91309 -12.293 -5.52051 -24.7021 -7.80273 -37.2051c-6.13281 -44.3066 4.22852 -81.3281 31.0615 -111.062c9.00879 -9.42871 19.1191 -16.5264 30.3369 -21.3135
c6.15039 -2.18262 12.415 -3.62305 18.7891 -4.33398c8.2207 -0.8125 16.3994 -1.36426 24.5557 -1.61816v0zM188.211 -7.66992c-6.60156 0.28125 -13.2539 0.703125 -19.9385 1.26758c-4.78809 0.451172 -9.50195 1.41309 -14.1553 2.88086
c-8.28613 3.67188 -15.6963 9.09375 -22.2539 16.2549c-17.6826 20.6982 -24.1846 45.9229 -19.4971 75.6689c2.47852 12.9902 5.2666 25.874 8.37695 38.6426c5.70312 21.3789 11.2891 42.8125 16.7578 64.2939c10.4561 43.2422 20.9521 86.458 31.499 129.661
c5.16113 20.5615 10.5518 41.0273 16.1768 61.4062c10.0781 36.7188 22.0264 72.4775 35.8301 107.261c10.3096 25.5635 22.6416 49.4062 36.9775 71.5205c39.7969 59.3115 90.7979 86.2188 153 80.7178c42.2021 -2.91016 78.5156 -22.4219 108.938 -58.5059
c16.7334 -20.9131 31.0352 -44.0918 42.9053 -69.5283c13.1318 -28.7773 24.499 -58.6328 34.0938 -89.5781c9.85156 -32.126 18.9062 -64.6338 27.1611 -97.5166c10.874 -44.2656 21.667 -88.5742 32.3584 -132.905c4.04785 -15.8916 8.09082 -31.7822 12.1357 -47.6807
c4.45312 -18.0352 8.50098 -36.2109 12.1416 -54.5391c1.79688 -8.53223 2.57031 -17.1943 2.31152 -26.001c-2.6709 -27.6973 -13.5059 -48.7031 -32.5068 -63.0293c-6.14746 -4.6416 -12.791 -7.41992 -19.9414 -8.30566
c-10.1758 -1.35254 -20.3789 -1.94629 -30.6279 -1.80664c-137.246 -0.178711 -274.497 -0.244141 -411.743 -0.178711v0z" />
  </g>

</svg>
