<?xml version="1.0" standalone="no"?>
<!DOCTYPE svg PUBLIC "-//W3C//DTD SVG 1.1//EN" "http://www.w3.org/Graphics/SVG/1.1/DTD/svg11.dtd" >
<svg xmlns="http://www.w3.org/2000/svg" xmlns:xlink="http://www.w3.org/1999/xlink" version="1.1" viewBox="-10 0 1209 1000">
  <g transform="matrix(1 0 0 -1 0 800)">
   <path fill="currentColor"
d="M720.991 202.938h-214.937l-67.2878 357.061h345.149zM690.391 238.364l48.656 286.861l-254.901 -1.46293l52.0695 -286.841zM823.863 711.715c42.748 0 106.078 -23.2891 140.355 -53.8398l0.311523 -0.332031c29.7275 -31.7061 54.2793 -93.4453 54.2793 -136.729
c0 -4.35645 -0.258789 -10.1416 -0.330078 -11.7695c0 -0.0703125 -0.0078125 -0.131836 -0.0078125 -0.181641c-0.0410156 -36.3252 -10.6172 -109.811 -102.472 -198.862c-176.886 -171.493 -273.792 -264.669 -293.011 -282.132
c-2.53809 -2.30566 -2.09668 -2.84668 -5.75586 -4.25098l-3.82227 -1.60547c-5.35645 2.35938 -5.85645 2.5791 -7.45801 4.30176c-23.2705 25.0195 -297.53 286.704 -300.481 289.655c-31.3184 31.3184 -58.041 72.8223 -62.04 79.7002
c-7.99902 13.8555 -18.6729 38.0723 -23.5039 53.3184c-8.11621 25.6074 -10.5742 50.3311 -10.6816 70.7207l-0.00878906 1.75586c4.80566 13.5537 13.0283 50.6455 27.1455 87.2324c3.37402 8.74512 15.3809 38.4141 26.7314 48.6416
c33.0195 29.75 96.6182 54.3115 140.872 54.3115c20.7744 0 41.4316 -2.96387 65.3389 -10.8545c39.3691 -12.9932 88.1504 -45.1172 133.271 -90.2373c8.0459 -8.0459 9.17578 -8.69922 10.1436 -8.69922c0.1875 0 0.369141 0.0244141 0.59375 0.0244141
c1.9209 0 1.9209 0 19.9971 18.0762c8.52637 8.52637 64.0586 62.4434 124.344 82.3105c26.1797 8.91309 57.8965 9.44531 66.1895 9.44531zM1056.49 519.795v0.495117c0 61.0508 -35.0381 134.413 -67.2969 166.672c-21.4785 21.4785 -97.9395 63.7979 -166.062 63.7979
c-40.3916 0 -69.5557 -8.9834 -79.583 -12.5625c-18.2598 -6.12012 -45.0068 -19.1094 -61.0742 -29.6611c0.0195312 0.0136719 0.0400391 0.0263672 0.0595703 0.0400391c-0.0195312 -0.0136719 -0.0400391 -0.0273438 -0.117188 -0.078125
c0.0195312 0.0126953 0.0380859 0.0253906 0.0576172 0.0380859v0c-27.2324 -18.4619 -41.6768 -28.2549 -70.5586 -53.9258c-100.081 89.541 -163.158 94.9814 -209.836 94.9814c-62.7637 0 -139.488 -37.1641 -168.409 -66.085
c-21.3262 -21.3271 -63.5068 -95.1289 -63.5068 -162.224c0 -41.1064 6.27832 -68.7959 11.4102 -84.6787c5.68945 -17.9307 17.5615 -44.7979 26.9854 -61.085c2.60742 -4.50879 6.86621 -10.4375 29.4238 -40.5439l0.234375 -1.9502
c-0.0205078 0.0849609 -0.0878906 0.142578 -0.0878906 0.142578c0.0107422 -0.0302734 0.0419922 -0.0957031 0.09375 -0.19043c6.68848 -12.3574 34.9189 -41.2734 45.1758 -51.2061l295.282 -285.945c2.86621 -2.77734 15.416 -14.3643 33.4688 -14.3643
c10.2998 0 22.3906 3.77148 35.4951 15.1025c2.62402 2.26855 23.4297 20.252 294.304 284.751c114.363 111.671 114.542 198.117 114.542 238.479z" />
  </g>

</svg>
