<?xml version="1.0" standalone="no"?>
<!DOCTYPE svg PUBLIC "-//W3C//DTD SVG 1.1//EN" "http://www.w3.org/Graphics/SVG/1.1/DTD/svg11.dtd" >
<svg xmlns="http://www.w3.org/2000/svg" xmlns:xlink="http://www.w3.org/1999/xlink" version="1.1" viewBox="-10 0 1042 1000">
  <g transform="matrix(1 0 0 -1 0 800)">
   <path fill="currentColor"
d="M257.14 117.463c0 -23.3315 18.9221 -42.252 42.2529 -42.252c3.76884 0 3.76884 0 21.2808 3.10511c7.29008 -29.5779 18.7442 -76.0504 52.012 -109.318c19.1779 -19.1779 41.5608 -29.2879 67.2072 -29.2879c27.1412 0 62.6444 9.62001 94.432 59.9897
c26.2671 41.9359 39.653 93.2206 39.653 154.821c0 73.6713 -18.8277 122.399 -44.5043 148.075c-11.6781 11.6781 -15.0904 13.1532 -48.3919 27.5491c23.6909 19.307 23.6909 19.307 27.8447 23.4609c37.1599 37.1599 43.651 95.5039 43.651 127.131
c0 95.2319 -47.4138 176.139 -114.767 176.139c-64.0383 0 -93.3519 -67.305 -105.113 -107.274l-4.36701 -14.8416c-21.1198 6.95578 -21.1494 6.95578 -27.9384 6.95578c-23.3323 0 -42.252 -18.9239 -42.252 -42.2529c0 -23.3303 18.9199 -42.252 42.252 -42.252
c5.62734 0 23.0792 1.42972 34.7109 18.1604l6.19551 8.91142l7.96839 -2.36322c6.95221 54.0737 21.3338 86.9398 40.6834 106.289c15.3415 15.3415 33.2802 20.7891 49.0492 20.7891h3.06322c3.08617 -1.3092 3.08617 -1.3092 7.22156 -2.38536
c8.69567 -2.26289 25.7176 -5.67826 38.0484 -18.009c32.9422 -32.9399 35.7508 -83.0408 35.7508 -105.884c0 -65.0319 -21.601 -91.4152 -34.7011 -104.515c-21.9139 -21.9139 -39.2245 -25.7232 -58.1162 -29.8804c-8.02754 12.0436 -8.02754 12.0436 -11 15.0161
c-7.65414 7.65414 -18.2192 12.3767 -29.874 12.3767c-23.3322 0 -42.2529 -18.9238 -42.2529 -42.2529c0 -23.3315 18.9221 -42.252 42.2529 -42.252c14.3277 0 22.2546 6.07519 29.7037 11.7842h5.0932c10.2908 0 11.9361 3.58203 20.458 3.58203
c54.0476 0 98.0537 -58.4994 98.0537 -154.042c0 -44.6742 -9.08917 -83.1501 -27.9635 -114.631c-6.75396 -11.3944 -30.2218 -49.8219 -74.5482 -49.8219c-75.8178 0 -91.8281 109.292 -96.1506 140.055l-2.09517 -0.466106
c-7.81191 14.3669 -8.33181 15.3231 -12.675 19.6663c-7.65512 7.65512 -18.2202 12.3781 -29.8761 12.3781c-23.3322 0 -42.2529 -18.9238 -42.2529 -42.2529z" />
  </g>

</svg>
