<?xml version="1.0" standalone="no"?>
<!DOCTYPE svg PUBLIC "-//W3C//DTD SVG 1.1//EN" "http://www.w3.org/Graphics/SVG/1.1/DTD/svg11.dtd" >
<svg xmlns="http://www.w3.org/2000/svg" xmlns:xlink="http://www.w3.org/1999/xlink" version="1.1" viewBox="-10 0 1260 1000">
  <g transform="matrix(1 0 0 -1 0 800)">
   <path fill="currentColor"
d="M309.491 172.873v-40.8193h17.5029v103.603h-17.5029v-40.9746l-217.822 -1.75879l38.0264 31.9756l-14.8027 15.6562l-64.96 -58.1133l66.7148 -54.6826l13.918 15.8203l-39.0537 29.041zM710.452 183.867l-60.8418 58.5068l-13.918 -15.8193l33.1807 -32.8662
l-225.782 -0.261719c-0.170898 14.3096 -0.341797 28.6191 -0.513672 42.9297h-18.9023l1.23242 -102.903h18.9023c-0.152344 12.7041 -0.303711 25.4082 -0.457031 38.1123l225.363 1.82129l-33.1572 -37.4297l14.8027 -15.6572zM572.661 282h-424.661l0.314453 236.929
l-50.9482 -21.46v30.1055l288.913 119.109l8.5791 -4.44824l0.173828 0.345703l7.04297 -4.08691l13.4893 -6.99512l-0.833008 -0.350586l203.982 -118.381l0.538086 -32.2832l-45.6543 27.0078zM546.188 523.707l-160.756 95.1006l-210.14 -88.5146l1.01172 -219.985
h368.063zM942.221 211.866v-44.8652h-27.2197v44.8652l1.78952 -3.83429l-231.249 193.952l20.0641 16.59l217.604 -182.506l-8.20851 -3.8343v163.8l8.20989 -3.83314l-3.72837 -3.12929l-142.143 119.37l20.0594 16.5891l125.81 -105.518l-8.2085 -3.8343v194.655h27.2197
v-197.688l-8.20851 3.8343l127.209 106.692c6.66993 -5.59396 13.3399 -11.1879 20.0098 -16.7819l-139.942 -117.371l-7.35398 6.42453l8.28542 3.76846v-166.978l-8.20851 3.8343l217.604 182.506l20.0641 -16.59l-231.249 -193.952z" />
  </g>

</svg>
