<?xml version="1.0" standalone="no"?>
<!DOCTYPE svg PUBLIC "-//W3C//DTD SVG 1.1//EN" "http://www.w3.org/Graphics/SVG/1.1/DTD/svg11.dtd" >
<svg xmlns="http://www.w3.org/2000/svg" xmlns:xlink="http://www.w3.org/1999/xlink" version="1.1" viewBox="-10 0 1060 1000">
  <g transform="matrix(1 0 0 -1 0 800)">
   <path fill="currentColor"
d="M681 406c12.8994 51.4277 12.4658 43.3418 27.8994 37.4277c-12.3242 -103.51 -103 -78 -103 -78l-9 1c-15.6934 -1.91113 -27.792 -8.48828 -41.0303 -13.5859c-11.5195 1.43945 -23.333 5.69336 -23.7598 6.11914l-6.12012 6.12109s-10.5869 12.8164 -14.3994 18.7188
c-47.6992 73.8486 167.302 251.779 150.636 283.828c-0.595703 -1.33594 20.6602 47.0596 35.4834 3.36914c-22.9844 -64.7129 -240.485 -258.094 -151.81 -295.57c60.7959 24.2734 133.594 -8.67969 135.1 30.5723h0.000976562zM654.503 630.941l-0.353516 0.463867
l0.610352 0.0615234c-0.0849609 -0.175781 -0.169922 -0.349609 -0.256836 -0.525391v0zM56.3545 -98.4795h55.5146l17.1611 52.2256l17.1602 -52.2256h55.5156l-44.8672 -32.2959l17.1611 -52.2246l-44.9697 32.2959l-44.9707 -32.2959l17.1611 52.2246zM364.611 99.9004
l-82.2217 148.848l24.0225 10.1475l58.4395 -100.383l53.3027 101.418l27.2285 -11.0254zM281.698 -65.5v34.6641h38.626v22.0713h-38.626v34.6641h38.626v33.7148h31.3828v-33.7148h23.2197v31.2539h31.3828v-31.2539h41.292v-34.6641h-41.292v-22.0713h41.292v-34.6641
h-41.292v-36.1855h-31.3828v36.1855h-23.2197v-33.7246h-31.3828v33.7246h-38.626zM351.707 -30.8359h23.2197v22.0713h-23.2197v-22.0713zM938.324 -52.2246h-323.297l0.216797 164.161c-12.123 -5.10645 -24.2471 -10.2129 -36.3701 -15.3193v43.2637l216.847 89.3984
c0.620117 -0.28125 1.39551 -1.04395 1.56934 0.0556641c14.0449 -8.15234 14.0449 -8.15234 42.4219 -22.8662l-1.75293 -0.737305l133.207 -77.3066l0.775391 -46.5869c-10.9932 6.50293 -21.9854 13.0059 -32.9785 19.5098zM655.209 -12.0088h243.036l1.16699 136.753
l-105.537 62.4346l-139.312 -58.6816z" />
  </g>

</svg>
