<?xml version="1.0" standalone="no"?>
<!DOCTYPE svg PUBLIC "-//W3C//DTD SVG 1.1//EN" "http://www.w3.org/Graphics/SVG/1.1/DTD/svg11.dtd" >
<svg xmlns="http://www.w3.org/2000/svg" xmlns:xlink="http://www.w3.org/1999/xlink" version="1.1" viewBox="-10 0 1095 1000">
  <g transform="matrix(1 0 0 -1 0 800)">
   <path fill="currentColor"
d="M348.481 97.6934l-82.2217 148.848l24.0225 10.1475l58.4395 -100.383l53.3027 101.418l27.2285 -11.0254zM265.568 -67.707v34.6641h38.626v22.0713h-38.626v34.6641h38.626v33.7148h31.3828v-33.7148h23.2197v31.2539h31.3828v-31.2539h41.292v-34.6641h-41.292
v-22.0713h41.292v-34.6641h-41.292v-36.1855h-31.3828v36.1855h-23.2197v-33.7246h-31.3828v33.7246h-38.626zM335.577 -33.043h23.2197v22.0713h-23.2197v-22.0713zM780.659 223.904c-0.529297 0 -0.985352 0.173828 -1.32227 0.358398l-214.094 -88.2627v-37.8242
c12.126 5.10742 24.251 10.2148 36.376 15.3213v-3.77051l-0.21875 -161.659h318.305l0.646484 155.446c10.9619 -6.48535 21.9238 -12.9697 32.8867 -19.4551l-0.677734 40.7051l-136.33 79.1182l1.46387 0.616211c-22.6963 11.7715 -24.457 12.7314 -36.2109 19.5508
c-0.288086 -0.102539 -0.56543 -0.144531 -0.824219 -0.144531zM884.594 -16.7148h-248.003l-0.665039 144.662l142.009 59.8174l107.859 -63.8086zM63.3545 -23.4795h55.5146l17.1611 52.2256l17.1602 -52.2256h55.5156l-44.8672 -32.2959l17.1611 -52.2246
l-44.9697 32.2959l-44.9707 -32.2959l17.1611 52.2246zM939.346 663.416l0.235352 -11.5469c-1.5791 0.0351562 -4.13086 0.0634766 -5.71094 0.0634766c-14.3037 0 -37.2988 -2.27441 -51.3271 -5.07812c-15.3877 -3.13672 -36.292 -15.2598 -46.6553 -27.0596
c-8.21484 -11.1455 -15.3223 -31.4209 -15.8633 -45.2568c-0.0390625 -1.5791 -0.0722656 -4.14258 -0.0722656 -5.72168c0 -9.81152 1.23438 -25.6426 2.75488 -35.3359c4.08301 -33.0088 8.28223 -67.0684 -20.7617 -94.4775
c-10.8584 -9.62891 -31.3428 -19.0352 -45.7227 -20.9961c-7.74902 -1.22559 -20.4033 -2.22168 -28.249 -2.22168c-0.347656 0 -0.912109 0.00292969 -1.26172 0.00488281c-8.16406 0 -16.0947 0.933594 -23.3281 0.933594l0.817383 11.6641
c5.50391 -0.500977 14.4561 -0.90625 19.9824 -0.90625c8.36816 0 21.8848 0.926758 30.1729 2.07129c12.4463 1.64453 30.2129 9.69141 39.6582 17.9639c24.7275 23.3281 20.9941 53.0713 17.1455 84.5645c-1.53711 9.92969 -2.78613 26.1436 -2.78613 36.1924
c0 1.92285 0.046875 5.04297 0.102539 6.96387c0.569336 15.8516 8.77246 39.001 18.3135 51.6729c11.71 13.5371 35.4316 27.4883 52.9551 31.1416c14.7432 2.99414 38.9219 5.42383 53.9639 5.42383c1.55469 0 4.08203 -0.0263672 5.63672 -0.0595703zM720.765 597.632
c4.19922 -34.0586 8.51465 -69.0518 -21.1133 -96.5771c-11.084 -9.82129 -31.9854 -19.4355 -46.6553 -21.4609c-8.04395 -1.29102 -21.1865 -2.33594 -29.335 -2.33594c-0.304688 0 -0.801758 0 -1.1084 0.00195312c-7.81445 0 -15.8623 0.933594 -23.3271 0.933594
l0.816406 11.6631c5.6582 -0.514648 14.8623 -0.932617 20.5439 -0.932617c8.53418 0 22.3223 0.94043 30.7773 2.09961c12.7383 1.70312 30.9229 9.95996 40.5908 18.4287c25.4277 23.9121 21.5791 54.3545 17.6133 86.6641
c-1.59961 10.249 -2.89648 26.9844 -2.89648 37.3564c0 1.89062 0.0429688 4.95898 0.0966797 6.84863c0.568359 16.2539 8.98145 39.9775 18.7793 52.9561c11.9551 13.8545 36.2031 28.1201 54.1211 31.8428c15.0742 3.05859 39.793 5.54297 55.1748 5.54297
c1.6084 0 4.21875 -0.0273438 5.82715 -0.0615234v-11.6631c-1.5957 0.0341797 -4.18652 0.0615234 -5.7832 0.0615234c-14.6426 0 -38.1787 -2.32715 -52.5361 -5.19434c-15.7539 -3.21777 -37.124 -15.6553 -47.7051 -27.7607
c-8.55469 -11.3926 -15.9746 -32.1895 -16.5635 -46.4219c-0.046875 -1.70605 -0.0820312 -4.47656 -0.0820312 -6.18359c0 -9.93945 1.23828 -25.9824 2.76465 -35.8076zM456 505l-103 188l18.1396 7.66309l86.4346 -145.001l78.9033 147.268l24.5225 -9.92969z" />
  </g>

</svg>
