<?xml version="1.0" standalone="no"?>
<!DOCTYPE svg PUBLIC "-//W3C//DTD SVG 1.1//EN" "http://www.w3.org/Graphics/SVG/1.1/DTD/svg11.dtd" >
<svg xmlns="http://www.w3.org/2000/svg" xmlns:xlink="http://www.w3.org/1999/xlink" version="1.1" viewBox="-10 0 902 1000">
  <g transform="matrix(1 0 0 -1 0 800)">
   <path fill="currentColor"
d="M627.397 559.67c0.222008 1.10103 1.57442 3.33413 4.66586 3.33413c32.3069 0 52.6273 -13.7538 66.4052 -23.0793c0.827481 -0.560076 41.049 -37.4411 41.049 -91.0992c0 -10.3166 -1.52873 -21.1883 -5.17813 -32.4362
c-2.30373 -7.1068 -1.29662 -8.01759 -3.08838 -10.0372c-0.654757 -3.53706 -8.84925 -23.2197 -20.139 -36.9513c-0.117118 -0.14245 -11.8975 -13.962 -11.9669 -14.0314c-0.218529 -0.218529 -22.5505 -18.2135 -24.0822 -19.3687
c-4.47916 -3.37798 -8.30582 -6.6068 -11.8947 -7.55407c-0.195347 -0.235205 -0.939863 -1.0985 -2.28203 -1.39198c-0.426904 -0.197551 -35.9514 -18.8222 -42.599 -19.9513c-0.769329 -0.305514 -2.71395 -1.08994 -4.82391 -1.94202
c-3.88969 -1.57078 -6.61879 -3.34435 -9.13521 -3.55833c-0.6253 -0.174583 -2.28037 -0.680245 -4.59872 -1.39208c-13.7111 -4.20989 -51.7713 -15.9481 -80.8495 -20.5121c2.28516 -0.718717 2.28516 -0.718717 21.1811 -7.39981
c10.2605 -0.806146 90.0412 -57.4641 90.9858 -58.61c1.18864 -0.284468 17.0068 -11.2048 46.187 -29.4524c16.5067 -10.3223 32.1973 -18.8655 32.1973 -18.8655c2.47749 0 1.60171 -0.363601 2.29079 -0.689965c0.266861 -0.126391 25.5104 -11.9995 26.9797 -11.9995
c1.93702 0 4.25931 -1.69318 4.25931 -4.70996c0 -1.24924 -1.03568 -21.2755 -8.41034 -21.2755c-0.469452 0 -0.972839 0.0879416 -1.49907 0.304859c-0.000207486 0 -0.539968 0.217439 -0.539968 0.217439c-2.4683 0.993404 -12.2156 4.91021 -14.5282 5.82149
c-0.765287 0.0906706 -23.6832 10.2642 -51.8773 27.543c-0.108823 0.0666925 -10.6441 6.25525 -10.919 6.6091c-0.562464 0.27499 -0.828045 0.659828 -1.3685 0.978882c-0.127771 0.0754285 -11.0067 6.77131 -12.4026 8.144
c-0.30862 0 -23.4474 15.7051 -25.3478 17.6055c-3.59107 3.59107 1.4519 0.795162 -3.34247 3.7085c-0.578447 0.351498 -50.8624 33.6335 -56.7047 36.9607c-0.53263 0.106268 -1.34198 1.1798 -2.8834 2.19528c-5.77247 3.80285 -17.6716 10.3044 -25.1372 13.2147
c-0.749023 0.291992 -3.36914 2 -4 2c-0.739258 0 3.37598 -16.6436 2 -17c-0.232422 -0.0605469 -8.54219 17.82 -8.84766 17.9922c-6.65137 3.75 -6.4178 7.0991 -21.9766 8.92969c-6.39941 0.75293 -12.4053 -1.93066 -21.1758 -0.921875
c2.93945 -22.832 -32.6162 -50.5859 -47 -46c-21.6758 6.91211 -47.288 33.6756 -42 47c-78.4609 -9.87305 -90 -22 -136.26 -59.9023c-0.403779 -0.330829 -1.02744 -1.56381 -2.55731 -1.92443c-3.41131 -2.0773 -26.0949 -21.6002 -28.097 -22.9967
c-4.91521 -3.42853 -32.9752 -28.6411 -33.2791 -28.9608c0 -0.855959 -0.371207 0.209003 -1.88803 -1.30783c-5.15468 -5.15468 -0.602753 -0.10034 -5.73259 -5.23017c-0.129643 -0.129643 -10.3116 -9.02719 -13.5907 -12.306
c-0.415323 -0.469556 -1.40095 -1.38357 -2.78018 -1.38357c-1.82297 0 -3.2215 1.54883 -3.2215 1.54883c-1.65221 1.65221 -3.80802 5.34367 -6.53343 11.0843c-0.431886 0.165503 -2.97941 1.26772 -2.97941 4.23987c0 2.71316 0 4.02012 14.9273 17.5016
c0.399282 0.360609 36.7967 32.6606 40.6796 35.2111c1.14156 2.32516 0.687905 0.102565 4.22528 3.7987c4.33369 4.52821 3.64794 1.75228 11.8507 9.95505c0.376376 0.376376 0.827481 0.679763 1.33164 0.884014c0.24668 0.182317 22.9133 17.7857 24.2824 18.7421
c32.9971 23.0679 56.172 39.3914 80.7697 46.6281c-26.3988 4.00459 -43.3148 10.022 -92.8539 27.6443c-6.92912 0.450705 -24.7466 11.8477 -52.5555 30.9185c-7.35618 5.04471 -7.35618 5.04471 -7.69691 5.75761c-2.10293 1.38671 -8.56921 7.36509 -10.4381 8.90196
c-1.90016 0.75894 -0.618035 0.699299 -3.80085 3.88211c-5.52251 5.52251 -5.52251 5.52251 -5.52251 6.86683c0 0.249649 0.0265358 0.499504 0.0798385 0.744962c-1.75548 0.901841 -4.42535 3.88449 -5.74547 7.08311
c-0.164709 -0.0234789 -0.331019 -0.035291 -0.497575 -0.035291c-0.453579 0 -1.88797 0.113945 -2.85485 1.4739c-5.62985 7.91856 -16.0505 23.8018 -16.1557 27.4128c-0.110314 0.35719 -0.538238 1.49569 -1.12353 2.94362
c-2.65072 6.55752 -8.2362 20.4589 -8.2362 39.5762c0 51.4129 38.3 101.088 100.244 101.088c15.4645 0 30.1888 -3.38719 42.054 -9.48294c1.63767 -0.840776 13.6654 -8.03296 15.1052 -9.59572c0.839636 -0.92037 0.873733 -1.73167 0.908433 -2.17748
c11.6417 -1.78361 47.2313 -54.5238 47.344 -55.8704c0.0807112 -0.147825 8.32148 -13.847 8.36518 -14.6181c1.84822 -3.8308 6.72656 -11.1752 6.93026 -12.9254c0.17062 -0.334658 17.6589 -33.0575 17.6969 -33.1345c0 0 0.0516755 0.0697952 0.119909 0.0697952
c0.112862 0 0.271024 -0.190955 0.315564 -1.20457c0.109932 -0.237651 11.8118 -22.0653 12.6646 -22.9181c0.800015 -0.800015 2.81286 -5.8877 4.17573 -7.25056c0.438016 -0.438016 4.23623 -7.70907 5.57919 -9.05203
c0.233774 -0.233774 15.9272 -16.2309 15.9272 -16.2309c-1.96484 -3.28711 -2.6709 -2.27832 2.52734 -8.09473c2.42383 3.11133 15.8018 -1.35449 20.2959 -1.35449c2.14453 0 15.6465 4.33594 18.7041 0.354492c0.191406 0.279297 7.74929 9.40004 9.68475 13.1702
c1.58503 3.08753 3.27154 6.37272 3.69665 7.61925c0.0424385 0.881901 0.355727 2.10122 1.57458 3.03612c6.70959 12.6932 42.7589 122.088 80.1069 159.436c0.760247 0.760247 3.35341 3.26397 3.38747 3.29675c0 1.68363 27.3051 22.4007 31.7656 22.9088
c8.46548 4.36392 23.5765 12.1536 48.1808 14.5628c0.760049 0.0744384 1.49413 0.110658 2.20198 0.110658c3.80173 0 6.84681 -1.04478 9.09448 -2.82454zM158.805 158.465c-0.019209 -0.0169576 -0.0420797 -0.0374319 0 0zM602.607 533.633
c-0.560641 0 -1.78587 0.150307 -2.75478 1.33199c-1.1885 -0.247468 -1.29105 -3.16207 -4.45225 -3.16207c-5.28004 -2.08255 -5.49636 -2.16787 -12.2456 -5.00543c-16.1552 -6.79205 -31.7255 -20.8891 -31.9806 -21.1755
c-0.143227 -0.465858 -0.739755 -1.99711 -2.52974 -2.60907c-12.4726 -10.9901 -34.3982 -49.8645 -36.2173 -56.4194c-0.0274503 -0.0989874 -2.21732 -4.36221 -4.40196 -9.28132c-2.28888 -9.91543 -35.7438 -84.1853 -41.6179 -99.4027
c-0.0105442 -0.147595 -2.87965 -7.36732 -6.35484 -13.363c-7.2248 -12.4648 4.01717 2.72005 -1.27018 -5.07439c-2.5332 -3.73438 -0.248047 -4.96973 -2.78223 -8.47266c10.1426 1.11035 80.3147 -2.63883 88.2019 0.814617
c0.0344877 0.0151006 0.835779 0.390751 1.73556 0.390751c1.22178 0 33.7274 9.06445 34.0801 9.06445c1.05431 0 46.5932 16.2373 49.0389 18.683c0.807627 0.807627 1.7625 1.17242 2.72811 1.24404c4.89064 1.76856 8.71123 5.45188 11.9342 5.45188
c0 0 23.7547 14.356 27.7296 17.6865c1.51967 3.08937 2.31649 0.0368495 8.74875 6.46911c8.3765 8.3765 22.6888 28.3196 22.9256 28.5995c0.18485 1.27597 13.729 20.8577 13.729 51.0683c0 16.2913 -4.88168 41.2468 -28.94 65.3051
c-3.4312 3.4312 -3.20134 2.11778 -3.99533 3.86734c-3.45242 3.06241 -25.7797 16.8419 -53.0577 16.9675c-5.31941 0.0244122 -6.17113 0.16413 -7.23658 0.928296c-0.1211 -1.16331 -1.4694 -3.31746 -3.90348 -3.31746c-1.64167 0 -2.5316 0.946374 -3.40982 2.09987
c-1.13146 -0.798053 -2.27056 -0.913417 -3.41217 -0.913417c-0.464294 0 -0.929005 0.0190818 -1.39379 0.0190818c-1.53313 0 -3.00623 0.0822771 -4.32826 0.618577c-0.725617 -0.960283 -2.21268 -2.4135 -4.56724 -2.4135zM140.908 435.853
c0 -12.6427 2.54556 -9.59309 2.54556 -14.3042c0 -4.33032 10.2906 -22.3332 16.0102 -31.6545c3.9439 -6.42734 3.9439 -6.42734 3.9439 -7.71859c0 -0.048226 0.00321132 -0.0975608 0.00321132 -0.148008c2.18233 -0.804857 11.1053 -7.68333 11.7424 -9.23768
c11.309 -9.87492 11.309 -9.87492 17.4215 -14.1678c9.27661 -6.51511 31.522 -22.1384 39.1236 -24.663c2.4159 0 1.51531 -0.324111 2.21716 -0.640565c20.6993 -9.33304 20.6993 -9.33304 23.5792 -10.1487c0 0 0.284207 -0.101816 0.290604 -0.101925
c2.13631 -0.0345961 3.02845 -1.07199 3.61839 -1.73583c0.396588 0.108442 1.27676 0.261884 2.24777 -0.135031c36.1048 -14.7584 91.4932 -13.7207 115.349 -15.1972c-22.3965 28.3193 -17.0844 42.5286 -17.0844 42.5286
c-4.75087 2.36273 -3.63905 6.10861 -4.2465 6.71606c-1.00338 1.00338 -2.69724 5.75415 -4.1844 7.24129c-0.490184 0.490184 -2.733 5.81855 -4.22667 7.31222c-0.110659 0.110659 -3.29841 6.43974 -7.34652 13.818
c-0.218316 0.397911 -17.7253 33.0949 -21.2596 40.0996c0 0 -0.0732046 -0.152971 -0.159578 -0.152971c-0.12974 0 -3.68901 9.1432 -6.03223 11.4864c-0.901858 0.901858 -1.20451 1.94826 -1.20451 2.9615c-12.7365 20.6156 -23.3489 37.793 -41.5629 56.007
c-4.4242 4.4242 -5.38578 3.67616 -5.38578 3.74174c0 0.14753 0.258769 0.282895 0.258769 0.29744c0 0.172564 -11.5818 9.05325 -13.9338 10.1801c-2.17044 0 -15.3658 7.49023 -34.7964 7.49023c-17.0261 0 -24.5114 -5.67676 -28.2954 -5.67676
c-3.0278 0 -10.1456 -3.96894 -21.3656 -11.8708c-7.058 -4.97073 -16.2922 -18.8436 -16.4062 -19.0678c-0.219964 -1.73545 -1.44612 -2.90116 -2.70702 -3.31609c-1.59506 -2.3524 -8.1534 -21.8403 -8.1534 -39.9427zM523.034 252.65zM623.501 559.117
c0 2.30751 1.91968 3.85407 3.90149 3.85407c2.37157 0 4.46916 -1.78536 4.46916 -4.40278c0 -2.48845 -1.6975 -4.48258 -3.78503 -4.48258c-2.05432 0 -4.58563 1.85545 -4.58563 5.03128z" />
  </g>

</svg>
