<?xml version="1.0" standalone="no"?>
<!DOCTYPE svg PUBLIC "-//W3C//DTD SVG 1.1//EN" "http://www.w3.org/Graphics/SVG/1.1/DTD/svg11.dtd" >
<svg xmlns="http://www.w3.org/2000/svg" xmlns:xlink="http://www.w3.org/1999/xlink" version="1.1" viewBox="-10 0 1161 1000">
  <g transform="matrix(1 0 0 -1 0 800)">
   <path fill="currentColor"
d="M828.399 483.872c0 9.49878 0.360099 25.4826 0.360099 28.905l-0.318652 61.3747l-8.69455 54.78l-24.0577 41.7601l-29.8355 19.1251l-33.9409 8.02542l-47.9505 1.85133v0.765382l-107.704 8.96128l-161.614 -4.8437l-135.511 -48.0118l4.97421 -24.8711
l90.1513 34.2037l168.519 13.9909l163.859 -8.05849l72.0585 -32.0852l24.6852 -76.5829c-11.2968 -92.7231 -11.5388 -94.7093 -10.6225 -98.1968c0.272553 -1.03738 0.408327 -1.98777 0.495372 -2.92219c0.487753 -0.641757 1.13403 -1.58506 1.4862 -2.05622
l30.4464 -40.7334l38.0432 -60.0682l23.93 -33.502l-96.7113 -80.2498l-3.19974 -219.288c0.962733 -7.56244 2.78458 -22.0112 5.01798 -45.877c-0.12894 -0.269919 -9.65147 -20.9678 -12.8349 -27.02c-1.80565 -3.43278 -3.36365 -6.39475 -8.94453 -11.1259
c-28.726 -6.87192 -37.6748 -9.01268 -53.7943 -9.01268c-3.38415 0 -6.77838 0.14333 -10.1737 0.446144l-127.95 -3.2205l-189.706 31.9736l-119.91 72.0259l-21.8729 31.5454c-0.18608 0.126152 -14.9542 10.3475 -18.5829 12.6523v-31.4635
c5.41685 -3.87145 13.5068 -7.36272 24.4398 -17.2503c7.32645 -6.62591 2.09556 -4.45645 10.6241 -11.9264c1.03002 -0.902171 1.03002 -0.902171 17.2005 -21.8062l70.2643 -41.1391l123.979 -35.7692l40.8353 -3.74581
c52.8258 -4.90757 59.0669 -6.73248 83.0467 -7.42728l68.08 -1.97257l89.7606 0.254271l51.1066 12.4914l15.1376 25.2075l6.27671 34.16l-0.268638 82.9487l0.0291888 84.2282l-0.00582149 87.5189l84.7837 67.8016l7.68593 8.96692l1.11464 7.19504
c0.44913 7.61262 -1.52476 12.8022 -3.31214 18.1783l-23.3304 38.8443l-33.0243 43.448l-34.3179 48.9016c-0.202711 16.1296 -0.202711 16.1296 -0.202711 17.6951zM33.2949 712.521h55.5146l17.1611 52.2256l17.1602 -52.2256h55.5156l-44.8672 -32.2959
l17.1611 -52.2246l-44.9697 32.2959l-44.9707 -32.2959l17.1611 52.2246zM408.248 261.926zM408.157 260.845zM474.188 249.603c0 -8.375 -2.72852 -16.5439 -9.82617 -23.6406c-3.17773 -3.17871 -5.85645 -5.38574 -8.31641 -6.90723
c14.4717 2.57812 33.3174 9.27539 45.6475 30.6807c-2.67773 4.63965 -5.90234 8.84863 -9.69922 12.6455c-8.31738 8.31836 -19.9355 15.1484 -35.3057 17.9795c-0.192383 0.0351562 -0.125 -0.233398 -0.741211 -0.0498047
c-0.408203 0.12207 -1.62207 0.484375 -3.36035 0.785156c3.73926 -1.47266 7.71777 -3.89355 11.6328 -7.80762c6.92773 -6.92773 9.96875 -14.9453 9.96875 -23.6855zM439.756 225.307c9.41699 0 14.8604 4.51953 17.7861 7.44531
c6.16992 6.16895 7.04688 12.6611 7.04688 16.9463c-0.0214844 6.13867 -2.09082 11.8193 -7.04492 16.7725c-10.0547 10.0557 -22.0381 7.78809 -27.4619 5.44434c-0.0527344 0 -7.63477 -5.00293 -7.71094 -5.05273
c-1.97656 -2.87695 -3.91895 -5.78613 -5.88184 -8.67578l-0.0195312 0.00683594c-3.18262 -8.81152 -1.64453 -18.4141 5.55078 -25.6104c4.96387 -4.96387 10.8926 -7.27637 17.7354 -7.27637zM441.3 207.4v0c-8.99512 0 -38.7852 0.429688 -62.8096 24.4551
c-5.3584 5.35742 -9.58594 11.1494 -13.3701 17.8799c-0.0136719 0.0234375 -0.0263672 0.0458984 -0.0390625 0.0693359l0.0390625 -0.0693359c4.28516 7.62402 8.66699 13.2236 13.7441 18.3008c11.6465 11.6465 31.2842 24.1348 62.4355 24.1348
c8.02539 0 38.3906 -0.141602 62.417 -24.168c5.48145 -5.48047 9.78516 -11.4023 13.5967 -18.2666c0.0126953 -0.0224609 0.0253906 -0.0458984 0.0380859 -0.0683594l-0.0380859 0.0683594c-2.03613 -3.66992 -6.17578 -10.7666 -13.3389 -17.9297
c-23.8125 -23.8135 -53.1943 -24.4062 -62.6748 -24.4062zM425.973 280.431c-25.0596 -4.55664 -37.9434 -18.0645 -45.2305 -30.6943c3.11328 -5.37402 6.62793 -9.53125 9.70605 -12.6084c7.23242 -7.2334 18.0381 -14.457 33.7227 -17.6709
c-2.97852 1.46191 -6.08008 3.54199 -9.04785 6.50977c-11.4463 11.4463 -11.2754 25.8574 -7.62012 35.4189c0.0556641 0.0830078 0.0322266 0.136719 -0.0537109 0.166992c-0.138672 0.736328 2.00586 4.37695 2.35742 5.27344
c0.438477 1.11719 0.958984 1.65918 1.79688 2.41504c0.585938 0.529297 0.595703 0.540039 0.994141 1.20508c0.597656 0.99707 0.625 1.05371 3.2373 3.66602c2.05566 2.05566 6.86816 5.08887 10.1377 6.31836zM398.612 429.997l38.0156 -37.7998l39.4961 37.7793
l12.2148 -10.5645l-39.4199 -39.8115l43.0811 -39.6006l-11.8535 -9.87402l-42.542 39.1621l-39.0439 -39.7393l-11.1611 12.2041l38.1436 38.791l-37.668 39.1836zM552.719 525.029c25.6484 0 63.6465 -13.9736 84.2129 -32.3037l0.186523 -0.200195
c17.8369 -19.0234 32.5684 -56.0664 32.5684 -82.0371c0 -2.61426 -0.15625 -6.08496 -0.198242 -7.06152c0 -0.0429688 -0.00488281 -0.0800781 -0.00488281 -0.109375c-0.0244141 -21.7949 -6.37109 -65.8857 -61.4834 -119.317
c-106.131 -102.896 -164.274 -158.801 -175.807 -169.279c-1.52246 -1.38379 -1.25781 -1.70801 -3.45312 -2.55078l-2.29297 -0.962891c-3.21387 1.41602 -3.51367 1.54785 -4.47559 2.58105c-13.9619 15.0117 -178.518 172.022 -180.288 173.793
c-18.791 18.791 -34.8252 43.6934 -37.2246 47.8203c-4.7998 8.31348 -11.2031 22.8428 -14.1025 31.9912c-4.86914 15.3643 -6.34375 30.1982 -6.4082 42.4316l-0.00585938 1.05469c2.88379 8.13184 7.81738 30.3867 16.2871 52.3389
c2.02441 5.24707 9.22949 23.0488 16.0391 29.1846c19.8125 17.8506 57.9717 32.5869 84.5234 32.5869c12.4648 0 24.8594 -1.77832 39.2031 -6.51172c23.6221 -7.79688 52.8906 -27.0703 79.9629 -54.1426c4.82715 -4.82812 5.50488 -5.21973 6.08594 -5.21973
c0.112305 0 0.22168 0.0146484 0.356445 0.0146484c1.15234 0 1.15234 0 11.998 10.8457c5.11523 5.11523 38.4346 37.4658 74.6064 49.3857c15.708 5.34863 34.7373 5.66797 39.7139 5.66797zM692.292 409.877v0.297852c0 36.6299 -21.0225 80.6475 -40.3779 100.002
c-12.8867 12.8877 -58.7637 38.2793 -99.6377 38.2793c-24.2344 0 -41.7334 -5.38965 -47.749 -7.53809c-10.9561 -3.67188 -27.0049 -11.4658 -36.6455 -17.7959c0.0126953 0.0078125 0.0244141 0.015625 0.0361328 0.0234375l-0.0703125 -0.046875
c0.0117188 0.0078125 0.0224609 0.015625 0.0341797 0.0234375v-0.000976562c-16.3389 -11.0762 -25.0059 -16.9521 -42.335 -32.3545c-60.0488 53.7246 -97.8945 56.9883 -125.901 56.9883c-37.6582 0 -83.6924 -22.2979 -101.046 -39.6514
c-12.7959 -12.7959 -38.1035 -57.0771 -38.1035 -97.334c0 -24.6641 3.7666 -41.2773 6.8457 -50.8066c3.41406 -10.7588 10.5371 -26.8789 16.1914 -36.6514c1.56445 -2.70508 4.11914 -6.2627 17.6543 -24.3262l0.140625 -1.16992
c-0.0126953 0.0507812 -0.0527344 0.0859375 -0.0527344 0.0859375c0.00585938 -0.0185547 0.0253906 -0.0576172 0.0556641 -0.115234c4.01367 -7.41406 20.9512 -24.7637 27.1055 -30.7236l177.17 -171.566c1.71973 -1.66699 9.24902 -8.61914 20.0811 -8.61914
c6.17969 0 13.4346 2.2627 21.2979 9.06152c1.57422 1.36133 14.0566 12.1514 176.581 170.851c68.6182 67.0029 68.7256 118.87 68.7256 143.088z" />
  </g>

</svg>
