<?xml version="1.0" standalone="no"?>
<!DOCTYPE svg PUBLIC "-//W3C//DTD SVG 1.1//EN" "http://www.w3.org/Graphics/SVG/1.1/DTD/svg11.dtd" >
<svg xmlns="http://www.w3.org/2000/svg" xmlns:xlink="http://www.w3.org/1999/xlink" version="1.1" viewBox="-10 0 1010 1000">
  <g transform="matrix(1 0 0 -1 0 800)">
   <path fill="currentColor"
d="M134.221 -61.2959zM340.548 -55.9424v263.013l80.8701 -0.34668l63.0251 -53.1485c1.23064 24.1913 1.23064 24.1913 2.20835 54.5l190.772 -2.45117v-66.4404l-54.499 -59.7695l32.7266 -4.33887l26 4l-4.22754 -136.465zM695.938 -84.5088
c4.71561 0 8.54759 3.82766 8.57399 8.39457l-1.86111 158.189c12.9088 -1.84411 12.9088 -1.84411 53.0537 -4.0831l-51.1944 59.6085v86.5381c0 4.71977 -3.8161 8.4982 -8.24219 8.54782l-211.617 -4.6113c-2.01115 37.2063 -2.01115 37.2063 -4.71543 58.173
l-57.9857 -52.4621l-3.87834 0.0156927s-96.0008 0.388525 -96.0416 0.388607c-4.71785 0 -8.57227 -3.83432 -8.57227 -8.54297v-300.105c0 -4.69954 3.84858 -8.54199 8.54199 -8.54199c0 0 373.898 -1.50871 373.938 -1.50879zM29.3242 18.2246h55.5146l17.1611 52.2256
l17.1602 -52.2256h55.5156l-44.8672 -32.2959l17.1611 -52.2246l-44.9697 32.2959l-44.9707 -32.2959l17.1611 52.2246zM880.244 598.059c0 70.7891 -57.458 128.245 -128.244 128.245c-70.7881 0 -128.245 -57.458 -128.245 -128.245
c0 -59.6729 41.1328 -110.484 97.2568 -124.45c-8.30176 6.47363 -19.5859 19.4434 -19.5859 42.1318c0 55.5732 68.2393 69.4609 99.833 37.8682c19.4951 -19.4951 20.1172 -52.3672 2.66797 -72.835c14.5312 6.4502 27.6484 15.5244 38.7393 26.6152
c23.2148 23.2148 37.5781 55.2783 37.5781 90.6699zM900.061 598.062c0 -81.7422 -66.3369 -148.062 -148.061 -148.062c-81.7285 0 -148.062 66.3242 -148.062 148.062c0 81.6406 66.4229 148.059 148.062 148.059c81.7373 0 148.061 -66.3301 148.061 -148.059z
M796.753 515.673l1.60742 0.0283203l0.00585938 0.00585938l-0.818359 0.788086l-0.797852 -0.818359c0.000976562 0 0.00195312 -0.00390625 0.00292969 -0.00390625zM796.623 517.385l-0.806641 0.777344l0.762695 0.00976562
c-0.539062 7.97559 -3.7373 15.7715 -9.5918 21.627c-19.5557 19.5537 -65.7432 12.9902 -65.7432 -24.0742c0.0126953 -37.0391 46.1758 -43.5996 65.7412 -24.0332c5.81348 5.81348 9.00586 13.5332 9.58105 21.4414
c-0.395508 -0.00488281 -0.671875 -0.0078125 -0.686523 -0.0078125l0.733398 0.761719c0.0605469 1.16504 0.0634766 2.33203 0.00976562 3.49805zM471.667 501.11h-241.667v250h4.66699c0.230469 0 0.604492 0.000976563 0.834961 0.000976563
c130.228 0 236.329 -105.691 236.832 -235.918v-6.16602v-3.58398zM238.334 509.443h225v5.5c-0.299805 123.733 -100.95 225.803 -224.667 227.833z" />
  </g>

</svg>
