<?xml version="1.0" standalone="no"?>
<!DOCTYPE svg PUBLIC "-//W3C//DTD SVG 1.1//EN" "http://www.w3.org/Graphics/SVG/1.1/DTD/svg11.dtd" >
<svg xmlns="http://www.w3.org/2000/svg" xmlns:xlink="http://www.w3.org/1999/xlink" version="1.1" viewBox="-10 0 961 1000">
  <g transform="matrix(1 0 0 -1 0 800)">
   <path fill="currentColor"
d="M528.258 23.873c4.4707 -7.57617 2.93555 -15.5078 -1.94434 -20.3877c-10.3984 -10.3984 -31.1943 -6.7207 -29.8877 12.7031c0.163086 2.41797 0.619141 5.10156 2.11914 7.58008c0.499023 2.85449 0.370117 18.3926 -0.137695 44.9023
c-24.6553 -3.35254 -29.041 0.328125 -31.4492 2.73535c-5.60547 5.60547 -5.71191 18.9521 0.211914 24.875c4.18262 4.18359 11.1924 4.41113 17.4004 -2.76465c1.27148 -1.27148 10.4424 -3.87305 11.9053 0.30957c2.03711 217.86 2.03711 217.86 2.10059 218.512
c0.0410156 0.416992 4.37012 34.7891 10.1777 40.5967c2.75586 2.75586 7.02637 2.54785 9.47363 0.100586c2.12402 -2.125 2.86621 -4.7793 10.0508 -32.3916v-0.264648c0.973633 -182.631 1.20605 -226.305 2.29688 -227.396
c0.416992 -0.416016 1.52441 -1.17773 5.54395 -1.2373c7.84277 -0.118164 7.05762 5.09668 13.5713 7.21582c5.41797 1.7627 14.2529 -1.4541 14.6348 -13.9209c0.0771484 -2.48828 0.0205078 -9.74219 -5.25781 -14.5195
c-1.5293 -1.38379 -5.82812 -5.06055 -30.627 -1.86426c0.540039 -15.5293 0.628906 -20.7422 -0.644531 -34.4014c-0.669922 -7.16992 -0.613281 -8.55957 0.461914 -10.3828zM513.666 23.9209c-0.453125 -7.31348 -5.70898 -8.19141 -2.89258 -11.0088
c1.35059 -1.35059 3.79004 -1.64551 5.23535 -0.200195c2.67871 2.67871 -1.38379 3.59375 -2.34277 11.209zM549.827 81.5547c-0.0449219 -0.0302734 -0.292969 -0.0605469 -0.338867 -0.0908203c0.129883 0.0283203 0.244141 0.0585938 0.338867 0.0908203z
M506.649 83.6348c1.24707 -0.380859 3.91797 -1.60352 4.89844 -5.68359c1.60547 -6.67773 -0.0507812 -33.3682 1.9248 -49.7393c0.146484 7.3418 2.25 17.0566 1.42676 34.6553c-0.621094 13.2891 -0.767578 16.418 1.76367 18.9492
c0.974609 0.974609 2.10938 1.4707 3.38574 1.67285c-1.46289 1.53223 -2.65723 3.53223 -3.05078 6.02344c-0.800781 5.07129 -1.29102 8.31836 -1.96777 142.114c0 0.866211 -0.00195313 70.8281 -1.47559 86.5947c-2.31055 -17.71 -2.39258 -45.6436 -2.4043 -121.812
c-0.00683594 -44.4268 -0.135742 -59.7773 -0.448242 -87.8438c-0.117188 -10.5381 -0.0820312 -16.042 -0.90332 -19.001c-0.421875 -1.51758 -1.2998 -3.76465 -3.14941 -5.92969zM476.905 81.5957c0.0117188 -0.0615234 0.0224609 -0.117188 0.0332031 -0.166016
c-0.0107422 0.0078125 -0.0214844 0.15918 -0.0332031 0.166016zM631.23 400.327h-233.079l-54.3516 137.266l100.442 -42.1055l65.7373 82.2061l64.5635 -83.5762l99.5938 42.3564zM451.353 464.123l-61.4443 26.9922l28.3145 -64.9863l190.445 -0.683594l19.6865 61.9541
l-60.2461 -26.7764l-57.1084 73.377zM37.3545 728.521h55.5146l17.1611 52.2256l17.1602 -52.2256h55.5156l-44.8672 -32.2959l17.1611 -52.2246l-44.9697 32.2959l-44.9707 -32.2959l17.1611 52.2246zM271 608l-12 60c128.725 89.7881 355.203 55.3633 442.457 48.5605
c0 -0.0107422 0.000976562 -0.0214844 0.000976562 -0.0322266c27.4463 0.582031 75.1855 -1.32129 107.268 -33.4033c40.1396 -40.1396 38.6152 -108.841 37.5254 -169.365c-0.395508 -21.9258 -0.433594 -33.2402 -0.22168 -41.9463
c26.3789 -43.8281 72.168 -89.959 89.3252 -129.607c6.95117 -16.0635 5.49219 -24.7637 2.64551 -40.2051l-12 -14l-79.501 -63.5771v-212.431c1.93945 -31.0869 1.82422 -79.2412 -27.416 -108.48c-26.0322 -26.0322 -182.507 -12.0195 -220.584 -13.0049
l-2.90137 0.0126953c-103.732 -7.2998 -296.108 50.6025 -326.603 92.1719c-18.5059 25.2275 -31.4014 41.2529 -57.9951 55.3086v70.0371c25.8174 -16.2627 49.624 -17.8066 70.1904 -60.6357c44.2188 -92.082 349.455 -105.734 451.309 -108.438l-0.499023 -0.962891
c50 12 34.1514 4.48145 42.5352 13.5361c19.1768 20.7119 3.97852 41.9688 5.50781 57.9648h-0.541992v2.14941c-0.253906 0.990234 -0.500977 1.94141 -0.738281 2.84863h0.738281v207.174v3.4873v1.33887h1.58203l104 88h1.13281
c4.9834 45.8955 -62.8379 92.1289 -94.2158 139.501l-3 4l-1 1c-2.02051 3.99219 0.0439453 4.02539 -2.08398 11.5605c-0.0371094 0.130859 -0.189453 0.24707 -0.174805 0.367188l0.258789 2.07227l0.0644531 1.49902
c0.00976562 0.226562 0.150391 3.89551 0.242188 6.24414c3.11426 79.1523 5.19727 173.389 -83.8154 173.771c-136.35 16.7461 -373.536 9.53418 -431.49 -46.5137z" />
  </g>

</svg>
