<?xml version="1.0" standalone="no"?>
<!DOCTYPE svg PUBLIC "-//W3C//DTD SVG 1.1//EN" "http://www.w3.org/Graphics/SVG/1.1/DTD/svg11.dtd" >
<svg xmlns="http://www.w3.org/2000/svg" xmlns:xlink="http://www.w3.org/1999/xlink" version="1.1" viewBox="-10 0 1008 1000">
  <g transform="matrix(1 0 0 -1 0 800)">
   <path fill="currentColor"
d="M348.481 97.6934l-82.2217 148.848l24.0225 10.1475l58.4395 -100.383l53.3027 101.418l27.2285 -11.0254zM265.568 -67.707v34.6641h38.626v22.0713h-38.626v34.6641h38.626v33.7148h31.3828v-33.7148h23.2197v31.2539h31.3828v-31.2539h41.292v-34.6641h-41.292
v-22.0713h41.292v-34.6641h-41.292v-36.1855h-31.3828v36.1855h-23.2197v-33.7246h-31.3828v33.7246h-38.626zM335.577 -33.043h23.2197v22.0713h-23.2197v-22.0713zM780.659 223.904c-0.529297 0 -0.985352 0.173828 -1.32227 0.358398l-214.094 -88.2627v-37.8242
c12.126 5.10742 24.251 10.2148 36.376 15.3213v-3.77051l-0.21875 -161.659h318.305l0.646484 155.446c10.9619 -6.48535 21.9238 -12.9697 32.8867 -19.4551l-0.677734 40.7051l-136.33 79.1182l1.46387 0.616211c-22.6963 11.7715 -24.457 12.7314 -36.2109 19.5508
c-0.288086 -0.102539 -0.56543 -0.144531 -0.824219 -0.144531zM884.594 -16.7148h-248.003l-0.665039 144.662l142.009 59.8174l107.859 -63.8086zM63.3545 -23.4795h55.5146l17.1611 52.2256l17.1602 -52.2256h55.5156l-44.8672 -32.2959l17.1611 -52.2246
l-44.9697 32.2959l-44.9707 -32.2959l17.1611 52.2246zM580.261 485.729l-86.4004 92.7998l11.2207 10.6689l71.0469 -77.3574l139.971 166.494l17.7617 -10.2061zM707.775 732.823c20.5186 0 50.917 -11.1787 67.3701 -25.8428l0.149414 -0.160156
c14.2695 -15.2188 26.0547 -44.8535 26.0547 -65.6299c0 -2.09082 -0.125 -4.86816 -0.15918 -5.64941c0 -0.0341797 -0.00390625 -0.0634766 -0.00390625 -0.0869141c-0.0195312 -17.4365 -5.09668 -52.709 -49.1865 -95.4541
c-84.9043 -82.3164 -131.419 -127.041 -140.646 -135.424c-1.21777 -1.10645 -1.00586 -1.36621 -2.7627 -2.04004l-1.83398 -0.770508c-2.57129 1.13281 -2.81055 1.23828 -3.58008 2.06445c-11.1699 12.0098 -142.814 137.618 -144.23 139.035
c-15.0332 15.0322 -27.8604 34.9541 -29.7803 38.2559c-3.83984 6.65039 -8.96191 18.2744 -11.2812 25.5928c-3.89551 12.292 -5.0752 24.1582 -5.12695 33.9453l-0.00488281 0.84375c2.30664 6.50586 6.25391 24.3096 13.0303 41.8711
c1.61914 4.19824 7.38281 18.4395 12.8311 23.3477c15.8496 14.2803 46.377 26.0693 67.6182 26.0693c9.97266 0 19.8877 -1.42188 31.3633 -5.20898c18.8975 -6.2373 42.3125 -21.6562 63.9697 -43.3145c3.8623 -3.8623 4.4043 -4.17578 4.86914 -4.17578
c0.0898438 0 0.176758 0.0117188 0.285156 0.0117188c0.921875 0 0.921875 0 9.59863 8.67676c4.0918 4.0918 30.7471 29.9727 59.6846 39.5088c12.5664 4.2793 27.79 4.53418 31.7715 4.53418zM819.434 640.701v0.238281c0 29.3047 -16.8174 64.5186 -32.3018 80.002
c-10.3096 10.3105 -47.0117 30.623 -79.7109 30.623c-19.3867 0 -33.3867 -4.31152 -38.1992 -6.03027c-8.76465 -2.9375 -21.6035 -9.17285 -29.3164 -14.2363c0.0107422 0.00585938 0.0195312 0.0117188 0.0292969 0.0185547
c-0.00976562 -0.00683594 -0.0185547 -0.0126953 -0.0566406 -0.0380859c0.00976562 0.00683594 0.0185547 0.0126953 0.0273438 0.0195312v-0.000976562c-13.0703 -8.86133 -20.0039 -13.5615 -33.8672 -25.8838c-48.04 42.9795 -78.3164 45.5908 -100.722 45.5908
c-30.126 0 -66.9541 -17.8379 -80.8369 -31.7207c-10.2363 -10.2373 -30.4824 -45.6621 -30.4824 -77.8672c0 -19.7314 3.01367 -33.0225 5.47656 -40.6455c2.73145 -8.60742 8.42969 -21.5029 12.9531 -29.3213c1.25195 -2.16406 3.29492 -5.00977 14.123 -19.4609
l0.113281 -0.935547c-0.0107422 0.0400391 -0.0429688 0.0683594 -0.0429688 0.0683594c0.00488281 -0.0146484 0.0205078 -0.0458984 0.0449219 -0.0927734c3.21094 -5.93066 16.7607 -19.8105 21.6846 -24.5781l141.735 -137.253
c1.37598 -1.33398 7.39941 -6.89551 16.0654 -6.89551c4.94336 0 10.7471 1.80957 17.0381 7.24902c1.25977 1.08887 11.2451 9.7207 141.265 136.681c54.8945 53.6025 54.9805 95.0957 54.9805 114.47zM42.9785 733.875l37.1855 54.043
c2.29722 3.33863 7.27158 3.34578 9.66016 0.306641l45.2246 -57.542c2.13157 -2.71212 1.47844 -6.78846 -1.39062 -8.70117c-0.647461 -0.431641 -1.41799 -0.742083 -2.13965 -0.887695l-7.70508 -1.55469c-2.23444 -0.450853 -4.58533 0.496781 -5.90234 2.1709
l-24.293 30.8799l1.17285 -123.925c0.0330416 -3.49121 -3.05372 -6.21986 -6.31543 -6.04785l-7.37012 0.388672c-3.2715 0.172527 -5.69748 3.08789 -5.68359 6.01953l0.578125 122.085l-19.7881 -28.707c-1.95692 -2.83895 -6.04046 -3.42125 -8.72168 -1.25195
c-0.40918 0.331055 -1.0518 1.10153 -1.0918 1.15723l-3.35059 4.66504c-1.5484 2.15585 -1.26747 5.16008 -0.0693359 6.90137z" />
  </g>

</svg>
