<?xml version="1.0" standalone="no"?>
<!DOCTYPE svg PUBLIC "-//W3C//DTD SVG 1.1//EN" "http://www.w3.org/Graphics/SVG/1.1/DTD/svg11.dtd" >
<svg xmlns="http://www.w3.org/2000/svg" xmlns:xlink="http://www.w3.org/1999/xlink" version="1.1" viewBox="-10 0 1017 1000">
  <g transform="matrix(1 0 0 -1 0 800)">
   <path fill="currentColor"
d="M192.784 301.25c-9.79297 6.24316 -19.0645 9.61914 -30.75 26.25c-2.09961 12.6289 -8.61328 21.9834 -0.75 42c5.07422 10.0518 12.2471 18.6904 23.25 24.75c10.5 3.24902 21.75 5.75 32.25 6c12.4395 -1.98145 27.7461 -9.29492 30.75 -15.75l10.5 -15.75
l28.625 21.25c12.1641 10.3838 30.0732 30.6211 36 45l6 21s37.5 -1 36 -1s1 -473 1 -473l-41 -3l2 386l-55 -50c-10.7607 -10.3516 -23 -18 -37 -28c-11.0166 -6.82715 -27.1211 -17.7803 -40 -22c0 0 -0.375 13 -1.875 36.25zM475.223 209
c0 57.2891 3.50098 103.341 10.502 138.154c7.13379 35.0342 17.6357 62.0254 31.5068 80.9756c14.002 18.9492 31.5723 28.4238 52.71 28.4238c15.5879 0 29.2607 -5.28809 41.0176 -15.8643c11.7568 -10.3564 21.4668 -25.4492 29.1289 -45.2803
c7.66211 -19.6104 13.6729 -43.6279 18.0322 -72.0518c4.35938 -28.2041 6.53906 -66.3232 6.53906 -114.357c0 -56.8486 -3.50098 -102.79 -10.5029 -137.824c-7.00098 -34.8135 -17.5029 -61.8057 -31.5059 -80.9756
c-13.8711 -18.9492 -31.4404 -28.4238 -52.709 -28.4238c-28.0068 0 -50.002 16.7461 -65.9863 50.2383c-19.1553 40.3223 -28.7324 105.984 -28.7324 196.985v0zM511.882 209c0 -79.5439 5.54785 -132.536 16.6445 -158.977
c11.2295 -26.2207 25.0342 -39.3311 41.415 -39.3311c16.3799 0 30.1191 13.2207 41.2158 39.6611c11.2285 26.4404 16.8428 79.3232 16.8428 158.646c0 79.7637 -5.61426 132.756 -16.8428 158.977c-11.0967 26.2207 -24.9678 39.3311 -41.6123 39.3311
c-16.3809 0 -29.459 -11.5684 -39.2344 -34.7041c-12.2861 -29.5264 -18.4287 -84.0596 -18.4287 -163.604v0zM841.498 170.311zM617.361 -309.947zM628.304 -198.171v-1.34473h1.99961v1.34473h-1.99961zM906.778 -102.146v32.423
c-1.64651 426.259 -346.159 785.395 -791.22 785.395c-4.85254 0 -9.70509 -0.00488271 -14.5576 -0.00488271v-831.334h803.698zM127.89 689.905c417.137 -6.84664 749.895 -350.116 750.887 -760.461v-19.3328l-752.002 2.0494e-06z" />
  </g>

</svg>
