<?xml version="1.0" standalone="no"?>
<!DOCTYPE svg PUBLIC "-//W3C//DTD SVG 1.1//EN" "http://www.w3.org/Graphics/SVG/1.1/DTD/svg11.dtd" >
<svg xmlns="http://www.w3.org/2000/svg" xmlns:xlink="http://www.w3.org/1999/xlink" version="1.1" viewBox="-10 0 771 1000">
  <g transform="matrix(1 0 0 -1 0 800)">
   <path fill="currentColor"
d="M655.859 152c-4.24805 57.5859 -49.623 104.604 -106.699 111.253l-0.160156 -111.253h106.859zM535.895 292.4c82.1328 0 148.998 -66.6826 148.998 -148.801v-6.56934l-2.05859 -13.3506h-162.17v168.681h14.1904
c0.260742 0.0136719 0.521484 0.0263672 0.782227 0.0400391h0.257812zM293.575 566.29c-0.545898 18.4277 -0.748047 25.2861 -0.748047 28.8711c0 4.04004 0.0800781 7.8877 0.0800781 7.9668c0 3.68555 -1.00488 10.9111 -8.8623 11.0791
c0 0 -31.1963 0.6875 -31.252 0.688477c-1.48535 0 -2.69043 -1.26367 -2.69043 -2.74902c0.0449219 -5.33398 0.0742188 -10.8438 0.0742188 -16.5967c0 -105.014 -9.7334 -284.406 -114.837 -422.468c-5.2832 -6.94141 -52.9922 -72.6377 -73.4287 -99.1299
c-0.379883 -0.492188 -0.569336 -1.08496 -0.569336 -1.67676c0 -0.703125 0.267578 -1.40723 0.804688 -1.94434c2.30957 -1.84766 30.3516 -24.2656 31.1104 -24.2656c0.131836 0 0.0292969 0.204102 0.208984 0.204102c7.08887 0 37.4424 54.4727 60.915 84.2822
c38.5234 48.9248 80.9912 123.052 96.7812 193.169l2.05078 9.1084l2.77344 -8.91504c45.4746 -146.181 102.884 -208.469 155.567 -265.504c6.6416 -7.24316 11.208 -12.2207 11.8076 -12.2207c0.139648 0 0.269531 0.0800781 0.585938 0.0800781
c1.55664 0 25.5859 16.5996 25.8389 16.7764h0.786133c0.0263672 0 0.430664 -0.00195312 0.435547 -0.00195312c28.8398 0 56.3145 24.7617 56.3145 47.3887c0 15.0205 -12.5127 24.0879 -29.5645 24.0879c-23.4775 0 -46.3389 -16.4912 -53.8076 -35.1445
l-1.49219 -3.72754c-40.5273 45.0703 -125.763 152.388 -136.534 268.196c-0.430664 4.64746 -4.66309 -2.84961 -4.66309 23.7285c0 43.3604 12.3145 133.863 12.3145 178.717z" />
  </g>

</svg>
