<?xml version="1.0" standalone="no"?>
<!DOCTYPE svg PUBLIC "-//W3C//DTD SVG 1.1//EN" "http://www.w3.org/Graphics/SVG/1.1/DTD/svg11.dtd" >
<svg xmlns="http://www.w3.org/2000/svg" xmlns:xlink="http://www.w3.org/1999/xlink" version="1.1" viewBox="-10 0 976 1000">
  <g transform="matrix(1 0 0 -1 0 800)">
   <path fill="currentColor"
d="M30.3242 741.553h55.5146l17.1611 52.2256l17.1602 -52.2256h55.5156l-44.8672 -32.2959l17.1611 -52.2246l-44.9697 32.2959l-44.9707 -32.2959l17.1611 52.2246zM271 608l-12 60c128.725 89.7881 355.203 55.3633 442.457 48.5605
c0 -0.0107422 0.000976562 -0.0214844 0.000976562 -0.0322266c27.4463 0.582031 75.1855 -1.32129 107.268 -33.4033c40.1396 -40.1396 38.6152 -108.841 37.5254 -169.365c-0.395508 -21.9258 -0.433594 -33.2402 -0.22168 -41.9463
c26.3789 -43.8281 72.168 -89.959 89.3252 -129.607c6.95117 -16.0635 5.49219 -24.7637 2.64551 -40.2051l-12 -14l-79.501 -63.5771v-212.431c1.93945 -31.0869 1.82422 -79.2412 -27.416 -108.48c-26.0322 -26.0322 -182.507 -12.0195 -220.584 -13.0049
l-2.90137 0.0126953c-103.732 -7.2998 -296.108 50.6025 -326.603 92.1719c-18.5059 25.2275 -31.4014 41.2529 -57.9951 55.3086v70.0371c25.8174 -16.2627 49.624 -17.8066 70.1904 -60.6357c44.2188 -92.082 349.455 -105.734 451.309 -108.438l-0.499023 -0.962891
c50 12 34.1514 4.48145 42.5352 13.5361c19.1768 20.7119 3.97852 41.9688 5.50781 57.9648h-0.541992v2.14941c-0.253906 0.990234 -0.500977 1.94141 -0.738281 2.84863h0.738281v207.174v3.4873v1.33887h1.58203l104 88h1.13281
c4.9834 45.8955 -62.8379 92.1289 -94.2158 139.501l-3 4l-1 1c-2.02051 3.99219 0.0439453 4.02539 -2.08398 11.5605c-0.0371094 0.130859 -0.189453 0.24707 -0.174805 0.367188l0.258789 2.07227l0.0644531 1.49902
c0.00976562 0.226562 0.150391 3.89551 0.242188 6.24414c3.11426 79.1523 5.19727 173.389 -83.8154 173.771c-136.35 16.7461 -373.536 9.53418 -431.49 -46.5137zM375.115 327.224zM373.721 362.503zM613.453 330.782zM612.41 363.421zM675.506 383.585l1.6875 3.29102
l1.61328 3.32227l1.46289 3.36133l0.503906 26.3945l-16.4609 16.7598l-22.793 6.42969l-22.2324 -5.17969l-10.2949 -11.6465l-2.72852 -7.78516l0.0273438 -14.5566l2.8418 -17.9277l2.25977 -23.5449h-237.672l-0.136719 -4.30078l-0.00585938 -4.31836v0
l0.568359 -11.7168l0.513672 -7.57031l0.455078 -7.37305h234.691l-0.246094 -8.63867l0.201172 -8.62695l0.826172 -8.55273l6.8418 -23.2344l9.4375 -12.8789l7.67773 -5.33789l18.4141 -1.24414l14.0312 9.20117l8.54688 10.0625l10.5625 18.7051l0.859375 15.9121
l-7.54102 16.168l-9.86719 17.3984l-1.95898 16.123zM612.035 362.503v0.720703c0.265625 -0.328125 1.20117 -0.880859 0 -0.720703zM375.115 327.224l-1.39453 35.2793v0c0.308594 7.61133 1.18359 15.1934 2.39062 22.7148
c0.917969 5.72266 2.04297 11.4141 2.71484 17.1699c0.548828 4.73438 0.744141 9.55273 -0.0839844 14.2441c-1.17578 6.67383 -4.62695 12.9492 -9.76953 17.3594c-5.14648 4.41016 -11.7188 6.95898 -18.4277 7.92188
c-7.01562 1.00977 -14.2344 0.417969 -21.0664 -1.48047c-6.83008 -1.90039 -13.3301 -5.15625 -18.6621 -9.82617c-5.48438 -4.80469 -9.64453 -11.2305 -11.2168 -18.3496c-1.57031 -7.12109 -0.373047 -14.6465 2.38281 -21.3965
c1.17188 -2.86914 2.57812 -5.63477 3.99609 -8.39258c1.57031 -3.05273 3.1543 -6.10156 4.54102 -9.24219c1.37891 -3.13281 2.56836 -6.35742 3.3457 -9.68945c0.980469 -4.19531 1.25391 -8.58203 0.527344 -12.8281
c-0.675781 -3.95117 -2.18555 -7.7207 -4.05273 -11.2695c-2.19336 -4.16797 -4.8457 -8.07812 -7.37695 -12.0547c-3.32031 -5.2168 -6.44922 -10.6953 -7.76172 -16.7383c-1.17969 -5.43945 -0.791016 -11.1738 0.886719 -16.4824
c2.22852 -7.03906 6.37891 -13.3047 10.8086 -19.2109c2.71289 -3.61523 5.58008 -7.12305 8.78516 -10.3086c4.16797 -4.14453 9.04688 -7.72266 14.6426 -9.51562c6.30664 -2.02148 13.3691 -1.50391 19.3379 1.36523c2.93555 1.41211 5.61523 3.32617 8 5.54492
c4.03125 3.75 7.24805 8.32812 9.74023 13.2383c3.75781 7.39844 5.88477 15.5449 7.02539 23.7656c0.429688 3.10742 0.716797 6.23438 0.875 9.36914c0.160156 3.13477 0.195312 6.27539 0.152344 9.41602c-0.0429688 3.13281 -0.158203 6.26562 -0.339844 9.39648v0v0z
M612.035 327.224c-0.162109 -1.20312 0.392578 -0.267578 0.720703 0h-0.720703z" />
  </g>

</svg>
