<?xml version="1.0" standalone="no"?>
<!DOCTYPE svg PUBLIC "-//W3C//DTD SVG 1.1//EN" "http://www.w3.org/Graphics/SVG/1.1/DTD/svg11.dtd" >
<svg xmlns="http://www.w3.org/2000/svg" xmlns:xlink="http://www.w3.org/1999/xlink" version="1.1" viewBox="-10 0 1186 1000">
  <g transform="matrix(1 0 0 -1 0 800)">
   <path fill="currentColor"
d="M627.567 661.32c0 5.65518 -0.361835 6.75454 -0.361835 14.0122c0 1.73485 0.0367807 3.68863 0.0367807 3.72589c0 7.35955 -4.49923 15.0264 -13.8967 15.2276c-14.9536 0.330025 -14.9536 0.330025 -15.08 0.330025c-6.04968 0 -11.194 -4.84301 -11.1932 -11.2921
c0.0201768 -2.37531 0.0329368 -4.84867 0.0329368 -7.41258c0 -49.4938 -4.75498 -132.729 -52.7023 -195.71c-4.82537 -6.33929 -23.7078 -32.6126 -34.9481 -47.1835c-1.54878 -2.00675 -2.32269 -4.41904 -2.32269 -6.83123
c0 -2.8673 1.09349 -5.73448 3.27889 -7.92024c0.191193 -0.191193 0.236319 -0.284815 14.973 -11.9513c2.0283 -1.6055 4.48543 -2.40812 6.94251 -2.40812c6.46323 0 10.368 4.21527 23.0631 24.0052c4.1259 6.43171 8.54853 13.3398 13.7381 19.9308
c12.3717 15.7118 25.5163 36.3862 35.3878 58.6821c0.169439 0.382701 1.43174 2.97168 4.57149 2.97168c2.05704 0 3.83773 -1.24414 4.60087 -3.03938c19.9038 -46.8228 40.7123 -69.3951 67.8592 -98.9338c1.09528 -1.19482 3.85626 -3.61443 8.25322 -3.61443
c3.3915 0 3.3915 0 18.4445 10.0357c0.990241 0.660283 4.08899 3.09039 4.08899 7.6453c0 0.103812 -0.208556 6.79673 -3.17329 9.88427c-17.4356 14.6297 -69.7446 74.9484 -75.2882 134.559c-0.563348 6.07138 -2.13769 0.501415 -2.13769 11.0834
c0 21.6439 5.83252 60.9802 5.83252 84.2034zM791.567 339.319c0 5.64956 -0.361532 6.7572 -0.361532 14.0271c0 1.73223 0.036461 3.67465 0.036461 3.71177c0 7.36089 -4.49965 15.0274 -13.8957 15.2286c-14.9558 0.329067 -14.9558 0.329067 -15.0818 0.329067
c-6.05209 0 -11.1932 -4.84657 -11.1924 -11.2917c0.0201769 -2.37532 0.032937 -4.8487 0.032937 -7.41262c0 -49.4938 -4.75494 -132.729 -52.7013 -195.71c-0.355672 -0.467194 -26.9865 -36.8615 -34.9491 -47.1835
c-1.54818 -2.00607 -2.32182 -4.41807 -2.32182 -6.83004c0 -2.86746 1.09341 -5.73488 3.31373 -7.95523c0.127351 -0.127351 0.480694 -0.471979 14.9373 -11.9165c2.02829 -1.60612 4.48567 -2.40906 6.94305 -2.40906c6.46301 0 10.368 4.21622 23.0614 24.0037
c4.12624 6.43231 8.54923 13.3411 13.7394 19.9323c12.3716 15.7118 25.5162 36.387 35.3877 58.6821c0.169447 0.382703 1.43176 2.97161 4.57146 2.97161c2.05701 0 3.83768 -1.24411 4.60083 -3.0393c19.9056 -46.8248 40.7141 -69.3971 67.8627 -98.9376
c1.08173 -1.17992 3.84514 -3.61122 8.25026 -3.61122c3.39014 0 3.39014 0 18.4452 10.0363c0.98715 0.658344 4.08826 3.08921 4.08826 7.64705c0 0.103793 -0.207248 6.79262 -3.17284 9.88248c-17.4103 14.6045 -69.7427 74.9298 -75.2881 134.559
c-0.565776 6.07203 -2.1377 0.505192 -2.1377 11.0839c0 21.6437 5.83157 60.979 5.83157 84.2022zM417.567 349.32c0 5.65614 -0.362425 6.763 -0.362425 14.0327c0 1.72857 0.0364435 3.6693 0.0364435 3.70637c0 7.35832 -4.49828 15.0248 -13.8958 15.226
c-14.9536 0.330025 -14.9536 0.330025 -15.08 0.330025c-6.05187 0 -11.1949 -4.84602 -11.1942 -11.2927c0.0201769 -2.37528 0.032937 -4.84861 0.032937 -7.41249c0 -49.493 -4.75494 -132.728 -52.7013 -195.709c-4.85413 -6.37707 -23.6858 -32.583 -34.9491 -47.1836
c-1.54854 -2.00684 -2.32237 -4.419 -2.32237 -6.83099c0 -2.86735 1.09359 -5.73447 3.27927 -7.92015c0.191193 -0.191193 0.236621 -0.285117 14.9733 -11.9516c2.0283 -1.6055 4.48543 -2.40812 6.94251 -2.40812c6.46207 0 10.3647 4.21109 23.0605 24.0021
c4.12649 6.43261 8.54987 13.3419 13.7409 19.9341c12.3717 15.7128 25.5152 36.3869 35.3877 58.6831c0.169458 0.382705 1.43179 2.97152 4.57142 2.97152c2.05708 0 3.83781 -1.24419 4.60091 -3.03949c19.9019 -46.8217 40.7105 -69.394 67.8558 -98.931
c1.10773 -1.20831 3.86701 -3.61816 8.25595 -3.61816c3.39111 0 3.39111 0 18.4442 10.0358c0.991038 0.660692 4.08953 3.09064 4.08953 7.64649c0 0.103802 -0.208605 6.79616 -3.17308 9.88332c-17.4359 14.6317 -69.7438 74.9423 -75.288 134.559
c-0.563364 6.07155 -2.13785 0.500705 -2.13785 11.0871c0 21.6448 5.83266 60.9786 5.83266 84.2004zM129.499 344c0 219.933 200.787 398.501 448.501 398.501c247.704 0 448.501 -178.559 448.501 -398.501c0 -219.933 -200.787 -398.501 -448.501 -398.501
c-247.704 0 -448.501 178.559 -448.501 398.501zM82.5015 350c0 -244.049 222.19 -441.499 495.499 -441.499c273.307 0 495.499 197.449 495.499 441.499c0 244.049 -222.19 441.499 -495.499 441.499c-273.307 0 -495.499 -197.449 -495.499 -441.499z" />
  </g>

</svg>
