<?xml version="1.0" standalone="no"?>
<!DOCTYPE svg PUBLIC "-//W3C//DTD SVG 1.1//EN" "http://www.w3.org/Graphics/SVG/1.1/DTD/svg11.dtd" >
<svg xmlns="http://www.w3.org/2000/svg" xmlns:xlink="http://www.w3.org/1999/xlink" version="1.1" viewBox="-10 0 1022 1000">
  <g transform="matrix(1 0 0 -1 0 800)">
   <path fill="currentColor"
d="M828.399 483.872c0 9.49878 0.360099 25.4826 0.360099 28.905l-0.318652 61.3747l-8.69455 54.78l-24.0577 41.7601l-29.8355 19.1251l-33.9409 8.02542l-47.9505 1.85133v0.765382l-107.704 8.96128l-161.614 -4.8437l-135.511 -48.0118l4.97421 -24.8711
l90.1513 34.2037l168.519 13.9909l163.859 -8.05849l72.0585 -32.0852l24.6852 -76.5829c-11.2968 -92.7231 -11.5388 -94.7093 -10.6225 -98.1968c0.272553 -1.03738 0.408327 -1.98777 0.495372 -2.92219c0.487753 -0.641757 1.13403 -1.58506 1.4862 -2.05622
l30.4464 -40.7334l38.0432 -60.0682l23.93 -33.502l-96.7113 -80.2498l-3.19974 -219.288c0.962733 -7.56244 2.78458 -22.0112 5.01798 -45.877c-0.12894 -0.269919 -9.65147 -20.9678 -12.8349 -27.02c-1.80565 -3.43278 -3.36365 -6.39475 -8.94453 -11.1259
c-28.726 -6.87192 -37.6748 -9.01268 -53.7943 -9.01268c-3.38415 0 -6.77838 0.14333 -10.1737 0.446144l-127.95 -3.2205l-189.706 31.9736l-119.91 72.0259l-21.8729 31.5454c-0.18608 0.126152 -14.9542 10.3475 -18.5829 12.6523v-31.4635
c5.41685 -3.87145 13.5068 -7.36272 24.4398 -17.2503c7.32645 -6.62591 2.09556 -4.45645 10.6241 -11.9264c1.03002 -0.902171 1.03002 -0.902171 17.2005 -21.8062l70.2643 -41.1391l123.979 -35.7692l40.8353 -3.74581
c52.8258 -4.90757 59.0669 -6.73248 83.0467 -7.42728l68.08 -1.97257l89.7606 0.254271l51.1066 12.4914l15.1376 25.2075l6.27671 34.16l-0.268638 82.9487l0.0291888 84.2282l-0.00582149 87.5189l84.7837 67.8016l7.68593 8.96692l1.11464 7.19504
c0.44913 7.61262 -1.52476 12.8022 -3.31214 18.1783l-23.3304 38.8443l-33.0243 43.448l-34.3179 48.9016c-0.202711 16.1296 -0.202711 16.1296 -0.202711 17.6951zM33.2949 712.521h55.5146l17.1611 52.2256l17.1602 -52.2256h55.5156l-44.8672 -32.2959
l17.1611 -52.2246l-44.9697 32.2959l-44.9707 -32.2959l17.1611 52.2246zM552.564 589.342c0.463867 -8.22559 0.182617 -19.085 -0.535156 -31.4688c11.7012 4.13965 28.1582 5.17969 46.5225 -7.68359c12.5049 8.88672 21.3525 10.4385 30.9336 10.6279
c13.166 0 27.3398 -6.99121 33.3643 -13.2598c12.9326 -13.4561 24.543 -45.6328 -7.29883 -76.7275c-37.6416 -36.7568 -42.1299 -40.876 -43.4092 -41.9971c-7.58105 -7.28027 -19.4316 -7.30176 -27.084 0.109375l-40.6611 39.3779
c-1.3916 -16.1191 -2.49121 -31.0889 -2.81445 -43.1562c-0.130859 -4.8877 -0.494141 -26.8135 3.47363 -28.9365c0.453125 -0.158203 0.81543 -0.408203 0.732422 -1.10352c12.8916 -138.596 143.755 -268.403 151.032 -271.071
c0.238281 -0.0869141 -0.451172 0.0195312 -0.451172 0.0195312l-0.682617 -0.354492l-0.371094 -0.835938l2.17578 -1.21387l-24.5176 -16.3447c-2.72754 2.97461 -4.04004 4.40625 -10.2988 11.1816c-49.7217 53.8301 -103.895 112.547 -146.035 255.504
c-11.6455 -67.6318 -53.3682 -141.79 -90.9834 -189.561c-24.2627 -30.8125 -32.4824 -52.5225 -54.7002 -77.208l-28.9941 22.9531c17.0986 22.165 28.0635 37.1934 43.2168 58.1074c8.54004 11.7871 16.4111 22.6523 24.8213 33.6992
c102.915 135.188 105.994 313.335 105.226 403.862l29.9297 -0.660156c2.65918 -0.0566406 7.17676 -1.34082 7.01367 -9.44141c-0.0478516 -2.34863 -0.256836 -12.8311 0.395508 -24.4189zM645.805 514.759c0 2.30664 -2.31934 8.62891 -4.30957 11.2158
c-2.75488 2.04297 -9.375 4.40234 -11.9023 4.40234c-9.13574 0 -15.6748 -6.34082 -21.5947 -12.2617c-2.55469 -2.55273 -5.90625 -3.83301 -9.25879 -3.83301c-5.4043 0 -8.38379 2.95801 -10.8115 5.38574c-0.503906 0.503906 -9.11621 8.06152 -14.1807 9.73242
c-2.31152 0.762695 -3.82129 0.967773 -5.68848 0.967773c-2.4082 0 -8.75879 -2.18359 -11.7627 -4.3125c-1.28027 -2.02148 -1.32422 -2.16699 -4.375 -12.6602c0.251953 -3.90332 2.09766 -11.873 10.8965 -20.3604l35.9502 -34.6787l35.6963 34.3564
c3.86035 3.86914 11.3408 11.4678 11.3408 22.0459zM284.023 329.39l-94.1196 92.4378l28.7456 29.6445l62.7352 -57.624l112.048 141.927l33.3381 -23.1508z" />
  </g>

</svg>
