<?xml version="1.0" standalone="no"?>
<!DOCTYPE svg PUBLIC "-//W3C//DTD SVG 1.1//EN" "http://www.w3.org/Graphics/SVG/1.1/DTD/svg11.dtd" >
<svg xmlns="http://www.w3.org/2000/svg" xmlns:xlink="http://www.w3.org/1999/xlink" version="1.1" viewBox="-10 0 1014 1000">
  <g transform="matrix(1 0 0 -1 0 800)">
   <path fill="currentColor"
d="M52.7012 763.544h41.6357l12.8711 39.1699l12.8701 -39.1699h41.6367l-33.6504 -24.2217l12.8711 -39.168l-33.7275 24.2217l-33.7275 -24.2217l12.8701 39.168zM264.521 609.221l-12.6758 63.3936c136.002 94.8662 375.292 58.4941 467.481 51.3066v-0.0322266
c29.001 0.613281 79.4395 -1.39844 113.337 -35.2939c42.4092 -42.4102 40.7979 -114.996 39.6455 -178.943c-0.416016 -23.167 -0.457031 -35.123 -0.233398 -44.3203c27.873 -46.3066 76.252 -95.0469 94.3799 -136.938
c7.34277 -16.9707 5.80176 -26.1641 2.79395 -42.4785l-12.6807 -14.791l-83.9961 -67.1738v-224.448c2.04785 -32.8447 1.92871 -83.7236 -28.9658 -114.614c-27.5059 -27.5059 -192.831 -12.7002 -233.062 -13.7412l-3.06641 0.0136719
c-109.601 -7.71484 -312.854 53.4648 -345.075 97.3857c-19.5508 26.6543 -33.1758 43.585 -61.2744 58.4365v73.998c27.2783 -17.1826 52.4307 -18.8125 74.1611 -64.0645c46.7197 -97.292 369.22 -111.715 476.835 -114.573l-0.527344 -1.0166
c52.8281 12.6768 36.083 4.73438 44.9424 14.3018c20.2598 21.8828 4.2041 44.3428 5.81836 61.2441h-0.571289v2.27051c-0.269531 1.04492 -0.530273 2.05176 -0.78125 3.00781h0.78125v218.894v3.68359v1.41504h1.6709l109.881 92.9756h1.19727
c5.26562 48.4922 -66.3906 97.3398 -99.5449 147.394l-3.16895 4.22559l-1.05762 1.05664c-2.13379 4.2168 0.0449219 4.25195 -2.20117 12.2139c-0.0390625 0.138672 -0.200195 0.261719 -0.18457 0.386719l0.273438 2.19141l0.0683594 1.58203
c0.00976562 0.242188 0.15918 4.11719 0.255859 6.59766c3.29004 83.6279 5.49121 183.196 -88.5566 183.601l9.05664 11.0186c-144.061 17.6953 -394.666 10.0771 -455.897 -49.1416zM570.892 441.628l-182.25 0.607422v12.0264h163.406v68.2871h-163.406v12.0264
l180.63 -1.0127zM442.458 191.181l1.96191 -1.51562zM625.965 219.684c7.2373 -5.41797 17.7861 -15.4248 23.5439 -22.3369l-7.84863 -6.57031c-5.25098 6.23535 -14.8281 15.291 -21.376 20.2148c-5.66504 4.40625 -16.1201 8.3916 -23.3379 8.89453
c-19.3115 0.90918 -29.9473 -13.2402 -41.3076 -27.8965c-4.27832 -5.86816 -12.0508 -14.6982 -17.3486 -19.708c-7.21875 -6.7334 -21.0977 -13.2539 -30.9805 -14.5547h-5.05957c-9.50684 0.362305 -23.6172 4.89062 -31.4971 10.1074
c-4.91992 3.16309 -12.3682 8.95898 -16.626 12.9365c-5.13867 -23.873 -29.5391 -43.2471 -54.4658 -43.2471c-30.7256 0 -55.6611 24.4053 -55.6611 54.4766c0 29.4873 24.4463 53.8877 54.5693 54.4668c0.12793 0.00195312 0.334961 0.00195312 0.462891 0.00195312
c29.7832 0 54.9746 -23.6367 56.2305 -52.7607c5.18848 -5.35645 14.4414 -13.0996 20.6533 -17.2832c6.71094 -4.51562 18.7676 -8.18066 26.9121 -8.18066c0.838867 0 2.19922 0.0429688 3.03613 0.0957031c7.9375 1.19922 19.0879 6.58789 24.8867 12.0273
c4.88574 4.65723 12.0557 12.8525 16.0068 18.293c12.3926 16.0703 25.4033 31.9385 50.085 31.9385c8.99316 -0.569336 22.04 -5.45898 29.1221 -10.915zM398.155 147.721c0.113281 -0.000976563 0.295898 -0.00195312 0.408203 -0.00195312
c23.708 0 44.2051 18.792 45.7529 41.9463l-1.65234 1.61719l1.85938 1.71777c-0.878906 23.9355 -21.4531 43.3623 -45.9248 43.3623c-0.12207 0 -0.320312 -0.000976563 -0.443359 -0.00292969c-0.595703 0.0283203 -1.56543 0.0507812 -2.16211 0.0507812
c-25.0254 0 -45.334 -19.8779 -45.334 -44.3701s20.3086 -44.3691 45.334 -44.3691c0.59668 0 1.56641 0.0224609 2.16211 0.0498047z" />
  </g>

</svg>
