<?xml version="1.0" standalone="no"?>
<!DOCTYPE svg PUBLIC "-//W3C//DTD SVG 1.1//EN" "http://www.w3.org/Graphics/SVG/1.1/DTD/svg11.dtd" >
<svg xmlns="http://www.w3.org/2000/svg" xmlns:xlink="http://www.w3.org/1999/xlink" version="1.1" viewBox="-10 0 1148 1000">
  <g transform="matrix(1 0 0 -1 0 800)">
   <path fill="currentColor"
d="M460.38 710.831l-30.2676 26.1807l-146.757 -140.376l-140.8 140l-25.4746 -24.3662l139.302 -144.906l-141.442 -143.841l27.8193 -30.4199l143.999 146.565l158.241 -145.668l28.3936 23.6504l-158.789 145.958zM1025.25 578.168
c0 -17.5439 -12.126 -29.7012 -17.7324 -35.0977l-54.4658 -52.4209c-55.3174 53.3613 -55.3174 53.3613 -55.7979 53.8428c-8.06055 8.05957 -15.3037 18.9072 -16.168 32.2852c4.48535 15.4229 5.7334 19.7148 8.4082 21.6113
c5.38574 3.81836 14.3135 7.07715 19.6914 7.07715c13.9414 0 27.5498 -12.3799 31.9189 -16.748c3.48438 -3.4834 6.28125 -6.23242 11.9102 -6.23242c2.40527 0 6.31543 0.635742 9.77344 4.09375c8.32031 8.32031 18.8066 18.8994 34.3037 18.8994
c7.23047 0 18.8955 -5.54688 20.9697 -8.24219c3.75977 -4.88672 7.18848 -13.7109 7.18848 -19.0684zM881.384 709.784c0 5.42773 0.106445 10.3379 0.106445 10.4424c0 6.92578 -2.77637 7.8125 -5.13379 7.86328l-37.6104 0.829102
c0.0429688 -6.04785 0.0712891 -12.3535 0.0712891 -18.8994c0 -135.206 -11.9033 -372.653 -151.45 -555.96c-11.9678 -15.7197 -23.1885 -31.207 -35.3896 -48.0479c-20.7471 -28.6357 -36.0459 -49.6104 -58.8174 -79.2217l33.8398 -26.79
c29.0566 33.416 41.1543 63.7754 74.8184 106.528c53.334 67.7324 112.567 173.237 128.983 268.565l3.64648 21.1729l6.07422 -20.6074c59.9727 -203.454 136.537 -286.206 207.502 -363.035l11.8193 -12.832l24.7588 16.5049l1.16309 2.62598
c-22.1914 18.2129 -194.66 194.624 -213.245 386.514c-2.39453 2.11719 -6.26465 5.53906 -6.26465 36.7686c0 13.7012 0.587891 28.8672 5.04883 80.5303l65.6396 -63.5703c4.52148 -4.37793 10.2539 -6.55078 15.9678 -6.55078c8.45898 0 13.2861 4.22852 15.9551 6.56738
c0.658203 0.576172 46.3184 44.3027 62.9082 60.8926c19.8105 19.8105 26.7139 39.6406 26.7139 56.8965c0 21.6387 -10.752 37.8516 -17.8613 44.9609c-7.73242 7.73242 -26.8018 17.0352 -43.6924 17.0352c-19.5527 -0.385742 -28.8564 -5.42188 -44.1699 -16.3037
c-8.24707 5.77637 -23.0156 16.1221 -43.6533 16.1221c-10.5908 0 -16.4512 -2.07422 -28.2549 -6.25c0.824219 14.2168 1.51465 26.1094 1.51465 39.2305c0 0.379883 -0.988281 31.0381 -0.988281 38.0186zM127 16h318.305l0.646484 155.445
c10.9619 -6.48438 21.9248 -12.9697 32.8867 -19.4541l-0.677734 40.7051l-136.351 79.1289l1.46191 0.618164c-22.1475 11.4932 -25.1602 13.1436 -37.2803 20.1689l-215.148 -88.6816v-37.8242c12.126 5.10742 24.251 10.2148 36.376 15.3223zM410.194 51.2168h-248.004
l-0.665039 144.663l142.01 59.8164l107.858 -63.8076z" />
  </g>

</svg>
