<?xml version="1.0" standalone="no"?>
<!DOCTYPE svg PUBLIC "-//W3C//DTD SVG 1.1//EN" "http://www.w3.org/Graphics/SVG/1.1/DTD/svg11.dtd" >
<svg xmlns="http://www.w3.org/2000/svg" xmlns:xlink="http://www.w3.org/1999/xlink" version="1.1" viewBox="-10 0 1010 1000">
  <g transform="matrix(1 0 0 -1 0 800)">
   <path fill="currentColor"
d="M406.705 349.112c-1.52344 0 -2.75 1.2373 -2.75 2.75l2.63672 75.9316c-7.66895 9.18066 -15.5371 17.7754 -23.2842 26.2373c-34.1553 37.3047 -66.1201 72.2988 -66.2314 142.887c-0.0917969 58.8262 17.4053 80.3604 29.6289 92.3105
c37.877 37.0264 102.589 50.6592 128.576 50.6592c2.36426 0 5.35352 2.00293 8.46777 1.85645c76.8125 -3.61328 93.2061 -9.68848 132.341 -43.7285c5.05273 -4.39453 6.52344 -7.97656 7.17969 -11.3594c0.118164 -0.610352 0.185547 -0.848633 0.208984 -0.922852
c17.9316 -20.6934 19.4717 -70.6006 20.4434 -86.417c0.0664062 -1.07227 0.227539 -2.31738 0.412109 -3.72656c0.524414 -3.98242 1.21875 -9.24512 0.0585938 -15.8672c-15.957 -91.1377 -59.3252 -117.366 -64.4258 -131.654
c-0.277344 -0.77832 -0.535156 -0.907227 -0.644531 -1.01758c-1.2168 -1.2168 -11.7539 -6.58789 -20.2178 -10.5693c-1.06348 -3.02637 -1.06348 -3.02637 -1.60156 -3.58691c-0.249023 -0.958984 -0.475586 -2.6543 -0.475586 -2.6543l-1.57129 -77.5664
c-0.0302734 -1.49023 -1.24121 -2.68457 -2.73242 -2.69336zM623.361 685.854l-0.180664 0.158203l-1.66211 -2.17188zM615.641 695.662l-1.82031 0.750977l-1.82227 -4.56641zM496.705 720.729c-44.0996 0 -83.332 -4.31348 -120 -31.5
c-9.66797 -9.66895 -37.1523 -37.6826 -37.2793 -88.0264c-0.167969 -66.2705 28.7148 -97.4707 44.2285 -112.985c7.73047 -7.72949 7.73047 -7.72949 9.01074 -9.64258c2.53125 -3.78125 2.53125 -3.78125 18.958 -21.5869
c3.77148 -0.928711 9.53906 -3.30566 15.3877 -9.38574c3.19824 -3.32422 1.90723 -15.665 1.31543 -21.3115l-0.526367 -64.209l101.892 -0.522461l4.79297 78.8057c0.0449219 0.74707 0.388672 1.44141 0.966797 1.93066c3.38477 2.88574 3.47363 2.96094 5.22852 4.71582
c1.73047 1.73145 6.75684 6.63867 11.1768 7.9248c1.60156 0.46582 3.83496 4.89453 8.47754 8.36523c22.2031 16.5977 55.0684 58.3789 59.1494 118.597c0.59668 8.80957 -0.762695 18.4209 -2.50098 28.7314c-3.67871 21.8203 1.97852 48.3535 -14.6123 67.6846
c-2.5791 2.125 -3.3623 2.83105 -15.2373 14.7061c-21.2451 21.2451 -56.4209 27.709 -90.4277 27.709zM701.092 598.02v0v0zM828.18 601.919c24.4668 -0.576172 44.1895 -22.6514 44.1895 -47.1758c0 -26.0996 -21.1758 -47.2773 -47.2773 -47.2773
c-26.0986 0 -47.2764 21.1758 -47.2764 47.2773c0 11.0684 5.20605 22.8994 12.71 31.6348l-94.4336 -3.91211v11.8047v3.74902c44.3398 -0.00683594 87.7969 4.94238 132.088 3.89941zM824.988 586.545c-17.5078 0 -31.7227 -14.2158 -31.7227 -31.7236
s14.2158 -31.7236 31.7227 -31.7236c17.5088 0 31.7236 14.2158 31.7236 31.7236c0 17.5088 -14.2158 31.7236 -31.7236 31.7236zM476.864 449.826l-45.7217 44.9062l8.70898 8.98047l36.7402 -33.7471l56.5195 71.5391l9.79883 -6.80273zM473.717 635.506l41.5527 39.7461
l10.1387 -8.76758l-41.3496 -41.7598l45.1953 -41.543l-11.6621 -9.71582l-44.7021 41.1523l-40.8896 -41.6182l-9.31445 10.1875l40.0801 40.7598l-39.542 41.1318l10.5771 10.1162zM214.545 -103.521zM420.872 -98.167v263.013l80.8701 -0.34668l63.0254 -53.1484
c1.23047 24.1914 1.23047 24.1914 2.20801 54.5l190.772 -2.45117v-66.4404l-54.499 -59.7695l32.7266 -4.33887c8.66699 1.33301 17.333 2.66699 26 4l-4.22754 -136.465zM776.263 -126.733c4.71582 0 8.54785 3.82812 8.57422 8.39453l-1.86133 158.189
c12.9092 -1.84375 12.9092 -1.84375 53.0537 -4.08301l-51.1943 59.6084v86.5381c0 4.71973 -3.81641 8.49805 -8.24219 8.54785l-211.617 -4.61133c-2.01074 37.2061 -2.01074 37.2061 -4.71582 58.1729l-57.9854 -52.4619l-3.87793 0.015625
s-96.001 0.388672 -96.042 0.388672c-4.71777 0 -8.57227 -3.83398 -8.57227 -8.54297v-300.105c0 -4.69922 3.84863 -8.54199 8.54199 -8.54199c0 0 373.897 -1.50879 373.938 -1.50879zM109.648 -24h55.5146l17.1611 52.2256l17.1602 -52.2256h55.5156l-44.8672 -32.2959
l17.1611 -52.2246l-44.9697 32.2959l-44.9707 -32.2959l17.1611 52.2246z" />
  </g>

</svg>
