<?xml version="1.0" standalone="no"?>
<!DOCTYPE svg PUBLIC "-//W3C//DTD SVG 1.1//EN" "http://www.w3.org/Graphics/SVG/1.1/DTD/svg11.dtd" >
<svg xmlns="http://www.w3.org/2000/svg" xmlns:xlink="http://www.w3.org/1999/xlink" version="1.1" viewBox="-10 0 754 1000">
  <g transform="matrix(1 0 0 -1 0 800)">
   <path fill="currentColor"
d="M73.4453 357.788l84.5391 -83.0283l120.814 155.08l-26.2363 17.4727l-95.708 -121.229l-60.3506 57.7178zM113.353 601.308l-56.3525 -57.3076l22.3057 -22.2246l58.4199 59.4609l62.6895 -57.708l23.0146 22.3672l-61.8955 57.7598l58.6211 59.2021l-21.8027 18.8398
l-58.0693 -55.5449l-61.9775 57.4141l-22.9814 -21.9814zM589.641 572.027c0 3.29492 -3.3125 12.3262 -6.15625 16.0225c-3.93555 2.91895 -13.3936 6.28906 -17.0029 6.28906c-13.0518 0 -22.3926 -9.05859 -30.8496 -17.5176
c-3.64941 -3.64648 -8.43848 -5.47559 -13.2275 -5.47559c-7.71973 0 -11.9766 4.22656 -15.4453 7.69434c-0.71875 0.719727 -13.0225 11.5166 -20.2568 13.9033c-3.30273 1.08984 -5.45996 1.38281 -8.12695 1.38281c-3.44043 0 -12.5127 -3.11914 -16.8037 -6.16113
c-1.8291 -2.8877 -1.8916 -3.0957 -6.25098 -18.085c0.360352 -5.57715 2.99805 -16.9619 15.5674 -29.0869l51.3574 -49.541l50.9951 49.0811c5.51367 5.52637 16.2002 16.3828 16.2002 31.4941zM456.441 678.574c0.661133 -11.751 0.260742 -27.2637 -0.765625 -44.9561
c16.7158 5.91406 40.2266 7.40039 66.4609 -10.9766c17.8643 12.6953 30.5039 14.9131 44.1914 15.1836c18.8076 0 39.0566 -9.9873 47.6631 -18.9434c18.4746 -19.2217 35.0615 -65.1895 -10.4277 -109.61c-53.7734 -52.5098 -60.1846 -58.3936 -62.0127 -59.9951
c-10.8301 -10.4014 -27.7598 -10.4316 -38.6914 0.155273l-58.0869 56.2549c-1.98828 -23.0273 -3.55859 -44.4131 -4.02148 -61.6523c-0.186523 -6.98145 -0.705078 -38.3047 4.96289 -41.3369c0.647461 -0.226562 1.16504 -0.583984 1.04688 -1.57715
c18.416 -197.994 205.363 -383.434 215.76 -387.245c0.34082 -0.124023 -0.644531 0.0283203 -0.644531 0.0283203l-0.975586 -0.506836l-0.529297 -1.19434l3.10742 -1.7334l-35.0244 -23.3496c-3.89648 4.24902 -5.77148 6.29395 -14.7129 15.9736
c-71.0312 76.9004 -148.421 160.781 -208.621 365.006c-16.6377 -96.6172 -76.2412 -202.558 -129.978 -270.801c-34.6602 -44.0176 -46.4033 -75.0322 -78.1426 -110.298l-41.4199 32.791c24.4258 31.6641 40.0908 53.1328 61.7373 83.0098
c12.2002 16.8398 23.4453 32.3613 35.46 48.1426c147.021 193.124 151.42 447.621 150.322 576.946l42.7568 -0.943359c3.79883 -0.0810547 10.252 -1.91504 10.0186 -13.4883c-0.0673828 -3.35449 -0.366211 -18.3291 0.56543 -34.8838h0.000976562z" />
  </g>

</svg>
