<?xml version="1.0" standalone="no"?>
<!DOCTYPE svg PUBLIC "-//W3C//DTD SVG 1.1//EN" "http://www.w3.org/Graphics/SVG/1.1/DTD/svg11.dtd" >
<svg xmlns="http://www.w3.org/2000/svg" xmlns:xlink="http://www.w3.org/1999/xlink" version="1.1" viewBox="-10 0 1040 1000">
  <g transform="matrix(1 0 0 -1 0 800)">
   <path fill="currentColor"
d="M308.318 561.13c7.32975 0 10.9434 1.2722 13.1281 1.2722c4.22701 0 7.96907 -2.67361 9.38979 -6.56594c9.91762 5.07366 51.3064 25.6631 91.5779 36.2501c17.6232 4.63203 41.78 7.26527 63.1433 7.26527c13.4322 0 25.76 -1.04098 34.6652 -3.28065
c39.2674 -9.87679 88.353 -42.2091 88.353 -108.522c0 -13.8584 -2.34477 -27.9448 -7.05849 -41.4776c-16.2656 -46.6917 -36.8633 -70.4987 -184.992 -221.196l-89.5907 -91.1474v-50.831h342.672c0 2.15351 0.00158404 4.30701 0.00158404 6.46052
c0 5.50048 4.48155 9.988 10.0098 9.988c3.95761 0 4.35451 -0.396899 9.95833 -6.00072c10.8203 -10.8203 25.7041 -17.5142 41.9419 -17.5142c32.5686 0 59.46 26.8904 59.46 59.46c0 32.5696 -26.8904 59.4609 -59.46 59.4609
c-31.6878 0 -57.9435 -25.4414 -59.3985 -56.7169c-0.247795 -5.32653 -4.65324 -9.54935 -10.0228 -9.52822l-250.744 0.986868c-5.49582 0.0215312 -9.95549 4.50629 -9.95549 10.008c0 1.34799 0.313368 4.38031 2.83303 6.96554l75.8867 77.8613
c135.895 139.43 147.455 153.036 166.931 192.134c12.1229 24.3397 18.1219 36.3843 18.1219 81.3627c0 99.3071 -89.1058 146.723 -180.176 146.723c-57.3737 0 -103.143 -18.5621 -108.961 -18.5621c-4.54169 0 -8.67501 3.10845 -9.74337 7.75146
c-6.05032 26.2942 -29.8587 46.3139 -57.9716 46.3139c-32.5697 0 -59.458 -26.8905 -59.458 -59.46c0 -32.569 26.8869 -59.4609 59.458 -59.4609z" />
  </g>

</svg>
