<?xml version="1.0" standalone="no"?>
<!DOCTYPE svg PUBLIC "-//W3C//DTD SVG 1.1//EN" "http://www.w3.org/Graphics/SVG/1.1/DTD/svg11.dtd" >
<svg xmlns="http://www.w3.org/2000/svg" xmlns:xlink="http://www.w3.org/1999/xlink" version="1.1" viewBox="-10 0 1062 1000">
  <g transform="matrix(1 0 0 -1 0 800)">
   <path fill="currentColor"
d="M133.987 325.172c0 -53.4873 19.1797 -103.709 56.6631 -141.311c31.1094 -30.9863 90.8477 -55.6641 134.762 -55.6641c9.97363 0 23.2656 1.58984 40 4.75c91.1973 17.2109 165.207 106.269 165.207 199.287c0 16.5488 -3.70312 41.9736 -8.42383 57.8496
c-10.3877 36.7031 -46.1074 91.252 -48.8613 95.2832c-12.7871 20.1875 -16.0576 25.3799 -21.4727 34.8174c-32.4375 57.0625 -64.9287 114.073 -97.332 171.167c-8.99805 20.3721 -12.7559 24.1016 -19.7617 27.1768c-7.60156 0 -10.0859 -0.0654297 -14.3037 -4.28125
c-2.60449 -2.60645 -2.75488 -2.97363 -7.35254 -11.585c-2.69922 -5.05566 -64.4531 -117.529 -95.9863 -168.301c-6.03613 -9.71875 -36.9902 -59.6924 -56.1016 -98.166c-18.1172 -36.5498 -27.0361 -74.5469 -27.0361 -111.023zM326.023 154.391
c-35.623 0 -89.0781 20.2949 -117.817 49.0312c-31.6572 31.6582 -47.9844 74.5391 -47.9844 120.883c0 32.4658 8.0127 66.6309 24.375 99.8301c14.499 29.1875 31.9326 58.0586 48.8486 86.0586c15.1279 24.585 15.0645 24.4727 89.1094 153.702
c0.150391 0.28418 0.150391 0.28418 7.78711 15.1328l98.5391 -171.091c4.11133 -7.08105 7.81738 -13.3457 22.2734 -35.9512c13.0361 -19.083 31.0469 -51.6689 40.2539 -72.7314c0.152344 -0.381836 0.320312 -0.745117 0.480469 -1.11719v-0.09375
c9.27734 -23.749 12.7783 -51.3486 12.7783 -66.6533c0 -81.0469 -64.8594 -158.947 -144.751 -173.503c-17.3613 -3.16406 -29.3086 -3.49707 -33.8926 -3.49707zM257.771 304.012l39.6865 -38.9775l63.5488 81.5723l-10.1504 7.04883l-53.8945 -68.2646l-30.2783 27.8115z
M338.277 471.428l-36.6602 -35.0654l-35.2002 35l-7.26172 -6.94629l34.8389 -36.2402l-35.3496 -35.9492l7.79883 -8.5293l36.0381 36.6807l39.5186 -36.3779l8.06738 6.71973l-39.7461 36.5342l36.458 36.8193zM79.5039 748.016h42.7031l13.2012 40.1738l13.2002 -40.1738
h42.7041l-34.5127 -24.8428l13.2002 -40.1729l-34.5918 24.8428l-34.5928 -24.8428l13.2012 40.1729zM968.509 203.782l0.351562 -17.4639s-6.25 0.0947266 -8.63184 0.0947266c-21.6357 0 -56.4277 -3.36035 -77.6279 -7.67969
c-23.2744 -4.74219 -56.4648 -21.8047 -70.5596 -40.9248c-12.4248 -16.8555 -23.4512 -47.5098 -23.9902 -68.4434c-0.0615234 -2.3877 -0.108398 -6.26465 -0.108398 -8.65234c0 -14.8379 2.34375 -38.7129 4.16504 -53.4395
c6.1748 -49.9219 13.793 -102.817 -31.3994 -142.885c-16.4229 -14.5605 -47.4688 -28.3213 -69.1484 -31.752c-11.7188 -1.85449 -30.8574 -3.3584 -42.7227 -3.3584c-0.524414 0 -1.38086 0.00683594 -1.90723 0.00683594c-12.3467 0 -35.2793 1.41113 -35.2793 1.41113
l1.23535 17.6406s21.8623 -1.37207 30.2207 -1.37207c12.6533 0 33.0859 1.47949 45.6309 3.13574c18.8232 2.48535 46.1641 14.1367 59.9756 27.166c37.3975 35.2793 33.2764 80.4717 25.9316 127.889c-2.32617 15.0176 -4.21289 39.5391 -4.21289 54.7373
c0 2.90723 0.0498047 7.62598 0.154297 10.5312c0.858398 23.9736 12.0049 60.001 27.6963 78.1445c17.708 20.4756 53.5557 41.7129 80.085 47.0996c22.2988 4.52734 58.8623 8.20312 81.6162 8.20312c2.35352 0 8.52344 0.00683594 8.52539 -0.0888672zM637.934 104.293
c6.35156 -51.5098 13.8467 -105.497 -31.9297 -146.06c-16.7617 -14.8525 -48.4443 -28.9131 -70.5586 -32.458c-12.167 -1.9502 -32.041 -3.53223 -44.3633 -3.53223c-0.462891 0 -1.21387 0.00488281 -1.67676 0.00488281c-11.8193 0 -35.2793 1.41113 -35.2793 1.41113
l1.2334 17.6406s22.4785 -1.41113 31.0713 -1.41113c12.9062 0 33.7539 1.46484 46.5449 3.1748c19.2666 2.5752 47.2275 14.5537 61.3877 27.8701c38.4551 36.1631 34.2285 82.4248 26.6367 131.066c-2.41895 15.499 -4.38086 40.8105 -4.38086 56.4961
c0 2.86035 0.0449219 7.50098 0.145508 10.3584c0.862305 24.5791 12.334 61.4668 28.4014 80.085c18.083 20.9541 54.7266 42.6543 81.8506 48.1592c22.7969 4.62695 60.1807 8.38281 83.4453 8.38281c2.43164 0 8.81152 -0.0410156 8.81152 -0.0927734v-17.6396
s-6.33203 0.09375 -8.74609 0.09375c-22.1436 0 -57.7588 -3.42285 -79.4551 -7.85547c-23.8223 -4.86719 -57.5479 -22.54 -72.1455 -41.9834c-12.9355 -17.2295 -24.4619 -48.6699 -25.0488 -70.207c-0.0703125 -2.58105 -0.125 -6.76953 -0.125 -9.34961
c0 -15.0361 2.34082 -39.2314 4.18066 -54.1543z" />
  </g>

</svg>
