<?xml version="1.0" standalone="no"?>
<!DOCTYPE svg PUBLIC "-//W3C//DTD SVG 1.1//EN" "http://www.w3.org/Graphics/SVG/1.1/DTD/svg11.dtd" >
<svg xmlns="http://www.w3.org/2000/svg" xmlns:xlink="http://www.w3.org/1999/xlink" version="1.1" viewBox="-10 0 1182 1000">
  <g transform="matrix(1 0 0 -1 0 800)">
   <path fill="currentColor"
d="M449.125 442.25c-9.79297 6.24316 -19.0645 9.61914 -30.75 26.25c-2.09961 12.6289 -8.61328 21.9834 -0.75 42c5.07422 10.0518 12.2471 18.6904 23.25 24.75c10.5 3.24902 21.75 5.75 32.25 6c12.4395 -1.98145 27.7461 -9.29492 30.75 -15.75l10.5 -15.75
l28.625 21.25c12.1641 10.3838 30.0732 30.6211 36 45l6 21s37.5 -1 36 -1s1 -473 1 -473l-41 -3l2 386l-55 -50c-10.7607 -10.3516 -23 -18 -37 -28c-11.0166 -6.82715 -27.1211 -17.7803 -40 -22c0 0 -0.375 13 -1.875 36.25zM937.693 -198.947zM949.636 -87.1709
v-1.34473zM124 348c0 -233 204 -423 456 -423s456 190 456 423s-204 423 -456 423s-456 -190 -456 -423zM100 345c0 250 218 453 486 453s486 -203 486 -453s-218 -453 -486 -453s-486 203 -486 453z" />
  </g>

</svg>
