<?xml version="1.0" standalone="no"?>
<!DOCTYPE svg PUBLIC "-//W3C//DTD SVG 1.1//EN" "http://www.w3.org/Graphics/SVG/1.1/DTD/svg11.dtd" >
<svg xmlns="http://www.w3.org/2000/svg" xmlns:xlink="http://www.w3.org/1999/xlink" version="1.1" viewBox="-10 0 1004 1000">
  <g transform="matrix(1 0 0 -1 0 800)">
   <path fill="currentColor"
d="M745.548 350.478zM252.107 682.445zM159.959 512.803zM519 291zM518.351 270.399zM244.023 347zM402.174 297.246zM833.563 551.158zM159.959 512.803zM833.563 551.158zM615.093 767.798c-34.5041 0 -63.6888 -13.4307 -78.3804 -28.1223
c-6.2846 -6.2846 -3.93491 -5.98638 -7.00231 -7.10465c-10.7157 -3.90659 -21.203 -5.31885 -30.7695 -5.31885c-10.3868 0 -26.1441 1.68126 -43.3536 9.41442c-12.975 15.7945 -33.3585 27.4693 -65.2645 27.4693c-50.5489 0 -108.039 -31.2697 -128.001 -77.9493
l-1.29555 -3.02949h-3.68836l-91.9277 -124.904h-3.82661v-5.19931l-0.658639 -0.894446h0.180181l-10.8003 -40.5012l-0.94855 0.0156301c-0.204521 -2.95445 -0.562283 -5.15688 -1.41754 -8.69216h1.17483c-0.0443793 -5.4727 -0.0443793 -5.4727 -0.0443793 -5.90605
c0 -27.4107 11.8049 -83.6622 91.9024 -149.905c84.4773 -69.8696 180.019 -77.5939 259.442 -77.5939c130.286 0 182.931 16.2863 260.631 77.6845c94.633 74.7776 96.4045 96.8202 98.9708 150.376l-2.34647 0.0380841c-0.165464 0.61763 -12.1816 49.45 -16.1787 61.8603
l-67.9373 116.09c-7.50982 7.83664 -7.50982 7.83664 -8.16917 8.8778h-0.33818c-24.3889 24.9595 -74.3122 70.4476 -122.832 80.508c-9.28227 1.92496 -18.3721 2.78827 -27.12 2.78827zM845.284 558.987c0 0 -2.5554e-05 1.2124e-05 0 0zM388.995 736.492
c8.08754 0 23.9399 0 43.3733 -13.373l-0.130948 -1.61608c1.11329 -0.5199 2.60427 -1.36241 4.03183 -2.71892c15.4911 -14.7198 39.375 -21.6016 62.0247 -21.6016c4.97669 0 50.6335 0.790899 60.2126 29.6471c0.20784 1.28559 0.915137 2.07172 1.92833 2.55196
c15.4847 10.5685 35.7502 16.2928 55.6072 16.2928c34.344 0 50.5025 -15.0496 62.6906 -26.4012c9.41719 -8.77091 21.7304 -20.273 48.3114 -37.8752c0.83414 -0.21278 1.73196 -0.621915 2.53411 -1.37613l0.737315 0.0287312l75.9965 -119.865l0.39801 0.710846
c0.224744 -0.770638 0.346781 -1.64398 0.639264 -2.34688c0 -0.0660345 -0.00174408 -0.132069 -0.00174408 -0.198104c18.6311 -74.3756 18.6311 -74.3756 18.6311 -83.8386c0 -32.5178 -24.1738 -58.602 -92.1111 -114.119
c-63.0283 -51.503 -108.986 -69.1017 -245.709 -69.1017c-74.2564 0 -134.348 9.13354 -204.374 58.1511c-85.8539 60.0981 -98.0649 104.668 -98.0649 145.068c0 2.58573 0.0475425 5.13005 0.120596 7.63476c4.27076 17.2377 9.02275 33.9941 13.4759 51.0493
l84.4608 119.574l3.36048 -1.29416c19.2317 45.305 68.7448 65.016 101.857 65.016zM533.062 253.238zM504.219 -104.801l112.55 125.165l-22.2121 20.315l-75.1241 -86.314l3.61492 217.455l-31.1383 -1.03604l-1.37899 -215.847l-69.0794 85.353l-22.7707 -20.7111z
M492.523 370.68h25.8301v28.1221l113.337 113.337l-18.3789 18.1201l-94.958 -94.958v67.501l69.543 69.543l-18.291 18.291l-51.252 -51.252v98.793h-25.8301v-97.043l-50.541 50.542l-18.374 -18.1172l68.915 -69.0039v-69.2539l-94.958 94.958l-18.3779 -18.1201
l113.336 -113.337v-28.1221z" />
  </g>

</svg>
