<?xml version="1.0" standalone="no"?>
<!DOCTYPE svg PUBLIC "-//W3C//DTD SVG 1.1//EN" "http://www.w3.org/Graphics/SVG/1.1/DTD/svg11.dtd" >
<svg xmlns="http://www.w3.org/2000/svg" xmlns:xlink="http://www.w3.org/1999/xlink" version="1.1" viewBox="-10 0 1019 1000">
  <g transform="matrix(1 0 0 -1 0 800)">
   <path fill="currentColor"
d="M570.419 13.9561c-10.2588 1.19824 -33.7217 6.46973 -50.6279 29.6094c-7.31152 -3.78516 -15.6064 -8.48438 -28.8721 -16.5723c-1.9834 5.95996 -2.02148 6.0752 -7.64551 13.6113c10.0654 5.63672 19.7295 10.9346 29.0771 15.6436
c-4.25684 9.28418 -6.63184 19.6162 -6.63184 30.4912c0 15.0771 4.55078 28.9687 12.2432 40.4961c-6.97559 6.23047 -14.1064 12.3545 -24.0352 20.7139c4.82129 4.0293 4.83984 4.05469 9.7041 11.0391c9.00293 -6.84863 15.8916 -13.0234 23.6631 -20.4043
c11.1973 11.1504 25.8809 18.666 41.9795 20.8076c-0.158203 9.58105 -0.21875 18.6064 0.157227 29.8779l14.6367 0.347656c-0.150391 -5.49023 -0.351562 -13.334 0.46875 -29.8262c10.498 -0.824219 33.3047 -5.17676 50.9727 -26.6191
c6.15137 4.23633 11.3789 7.26367 24.3623 14.7812c3.0957 -4.08398 4.19141 -5.62695 6.59082 -9.56445c1.70508 -2.79688 0.147461 -2.9668 -1.46094 -3.98242c-0.883789 -0.556641 -12.9805 -8.01562 -21.373 -13.3525
c4.69824 -8.78418 15.3281 -33.8867 2.73242 -63.2031c7.88281 -4.93945 15.0801 -10.2432 23.4961 -16.8623c-3.28906 -5.8877 -4.13281 -7.07422 -8.46875 -13.1025c-4.9668 3.52734 -11.7178 8.33008 -22.7393 16.29
c-5.97168 -8.35059 -23.0498 -27.9092 -53.4512 -30.459c-0.249023 -7.71875 -0.272461 -17.9932 -0.111328 -32.2715c-5.37207 0 -5.6875 0 -15.8428 0.751953c0.256836 10.043 0.650391 19.8057 1.17578 31.7588zM637.263 86.7598
c0 32.1455 -26.1191 58.2402 -58.2627 58.2402c-32.1592 0 -58.2646 -26.1064 -58.2646 -58.2637c0 -32.665 26.8643 -58.2441 57.9961 -58.2627c32.1631 0 58.3936 26.1191 58.5312 58.2861zM349.862 265.174zM349.74 263.733zM437.783 248.742
c0 -11.166 -3.63965 -22.0576 -13.1025 -31.5205c-4.2373 -4.2373 -7.80859 -7.17969 -11.0879 -9.20996c19.2949 3.43848 44.4229 12.3682 60.8633 40.9092c-3.57031 6.18555 -7.87012 11.7979 -12.9326 16.8604c-11.0908 11.0898 -26.5811 20.1973 -47.0742 23.9717
c-0.256836 0.0478516 -0.166992 -0.311523 -0.988281 -0.0654297c-0.543945 0.162109 -2.16309 0.645508 -4.48047 1.04688c4.98535 -1.96387 10.291 -5.19141 15.5098 -10.4102c9.2373 -9.23828 13.293 -19.9277 13.293 -31.582zM391.872 216.348
c12.5566 0 19.8145 6.02637 23.7158 9.92773c8.22559 8.22559 9.39453 16.8818 9.39453 22.5957c-0.0283203 8.18359 -2.78711 15.7578 -9.39258 22.3633c-13.4072 13.4062 -29.3838 10.3828 -36.6162 7.25879c-0.0693359 0 -10.1787 -6.66992 -10.2812 -6.7373
c-2.63477 -3.83496 -5.22461 -7.71484 -7.8418 -11.5674l-0.0263672 0.00976563c-4.24414 -11.749 -2.19238 -24.5537 7.40137 -34.1475c6.61816 -6.61816 14.5225 -9.70312 23.6465 -9.70312zM393.932 192.474v-0.000976562c-11.9941 0 -51.7139 0.573242 -83.7471 32.6074
c-7.14355 7.14258 -12.7812 14.8662 -17.8271 23.8408c-0.0175781 0.0302734 -0.0341797 0.0605469 -0.0517578 0.0917969l0.0517578 -0.0917969c5.71484 10.165 11.5566 17.6309 18.3262 24.4004c15.5283 15.5283 41.7119 32.1787 83.248 32.1787
c10.7002 0 51.1875 -0.188477 83.2227 -32.2227c7.30762 -7.30859 13.0459 -15.2031 18.1279 -24.3555c0.0175781 -0.03125 0.0341797 -0.0615234 0.0507812 -0.0908203l-0.0507812 0.0908203c-2.71484 -4.89355 -8.2334 -14.3564 -17.7842 -23.9072
c-31.751 -31.751 -70.9268 -32.541 -83.5664 -32.541zM373.495 289.848c-33.4131 -6.0752 -50.5918 -24.0859 -60.3086 -40.9258c4.15234 -7.16504 8.83887 -12.708 12.9414 -16.8115c9.64453 -9.64453 24.0518 -19.2764 44.9648 -23.5605
c-3.97168 1.94824 -8.10742 4.72168 -12.0645 8.67871c-15.2617 15.2617 -15.0332 34.4766 -10.1592 47.2246c0.0742188 0.111328 0.0419922 0.183594 -0.0722656 0.222656c-0.18457 0.982422 2.67383 5.83594 3.14355 7.03125
c0.583984 1.49023 1.27832 2.21289 2.39453 3.22168c0.782227 0.704102 0.794922 0.71875 1.32715 1.60645c0.795898 1.32812 0.832031 1.4043 4.31543 4.8877c2.74121 2.74121 9.15723 6.78516 13.5176 8.4248zM412.816 393.144
c-1.49707 -7.70898 -7.2168 -12.1035 -13.3682 -12.4766c-13.1055 -0.796875 -24.8311 13.9707 -12.46 26.1807c1.54004 1.52051 3.43359 3.04395 5.90332 3.81348c2.02246 1.61328 11.1338 12.0762 26.4844 30.0986c-18.4658 12.3516 -19.2197 17.4072 -19.4043 20.4434
c-0.429688 7.06348 7.39941 16.0488 14.8643 16.5029c5.27246 0.319336 10.0938 -3.67676 9.99609 -12.1484c0.0976562 -1.60254 4.6875 -8.76953 8.14258 -6.83984c130.309 144.43 130.309 144.43 130.738 144.828c0.273438 0.253906 23.5117 20.6689 30.8301 21.1133
c3.47363 0.211914 6.20508 -2.45508 6.39258 -5.53906c0.163086 -2.67773 -0.911133 -4.89062 -12.4521 -27.6035l-0.157227 -0.175781c-107.445 -122.661 -133.139 -151.994 -133.056 -153.369c0.0322266 -0.525391 0.321289 -1.68848 2.97266 -4.1084
c5.17285 -4.72168 7.73535 -0.770508 13.3438 -3.20898c4.66504 -2.02832 8.66699 -9.4082 1.54395 -17.9678c-1.42188 -1.70898 -5.75391 -6.52539 -12.1094 -6.59375c-1.8418 -0.0195312 -6.89062 0.0664062 -21.5762 16.8809
c-8.83105 -10.7012 -11.8574 -14.2383 -20.7939 -22.6152c-4.69043 -4.39648 -5.47559 -5.3584 -5.83496 -7.21484zM403.09 401.813c-4.63184 -4.62109 -8.66406 -2.09668 -8.44922 -5.64746c0.103516 -1.70215 1.55859 -3.34277 3.38086 -3.23242
c3.37695 0.205078 1.20215 3.22168 5.06836 8.87988zM461.375 418.937c-0.0478516 0.00683594 -0.232422 0.133789 -0.280273 0.140625c0.104492 -0.0585938 0.198242 -0.105469 0.280273 -0.140625zM433.743 445.884
c0.608398 -0.992188 1.66992 -3.39062 -0.0898438 -6.69922c-2.87988 -5.41406 -19.7842 -22.2754 -28.1523 -34.3887c4.44238 4.82227 11.5986 10.0703 21.4648 22.3213c7.45117 9.25195 9.2041 11.4307 12.3955 11.624
c1.22754 0.0742188 2.28027 -0.265625 3.25293 -0.886719c-0.0712891 1.8916 0.314453 3.93652 1.52441 5.83301c2.4668 3.86426 4.06055 6.3252 82.8008 96.166c0.512695 0.578125 41.9209 47.3477 50.2676 58.7588c-12.0264 -10.4707 -28.6152 -29.0947 -73.7061 -80.0049
c-26.2998 -29.6943 -35.4717 -39.8789 -52.292 -58.4561c-6.31641 -6.97559 -9.5498 -10.6758 -11.8516 -12.167c-1.17969 -0.765625 -3.09668 -1.74805 -5.61426 -2.10059zM412.652 462.126c-0.0292969 -0.0488281 -0.0546875 -0.0927734 -0.0751953 -0.130859
c-0.00292969 0.0117188 0.0791016 0.119141 0.0751953 0.130859zM656.227 419.726c7.63477 -1.84473 11.7637 -7.75781 11.8594 -13.9199c0.202148 -13.1279 -15.0811 -24.1719 -26.7188 -11.2617c-1.44922 1.60742 -2.88574 3.56836 -3.54199 6.07031
c-1.51953 2.09375 -11.5596 11.6699 -28.8682 27.8213c-13.1748 -17.8877 -18.2598 -18.4121 -21.3008 -18.459c-7.07617 -0.108398 -15.6973 8.12012 -15.8125 15.5967c-0.0820312 5.28125 4.12988 9.91699 12.5879 9.43555
c1.60547 0.0244141 8.97363 4.28613 7.20215 7.82324c-138.379 136.72 -138.379 136.72 -138.758 137.165c-0.241211 0.286133 -19.583 24.4238 -19.6953 31.7568c-0.0527344 3.47852 2.73438 6.08789 5.82422 6.13477c2.68262 0.0410156 4.84473 -1.13281 27.0107 -13.6904
l1.66992 -0.164062c117.667 -112.893 145.806 -139.889 147.184 -139.868c0.525391 0.00878906 0.201172 0.245117 2.73828 2.78418c4.9502 4.95312 1.12109 7.69238 3.81055 13.1846c2.2373 4.56836 9.79102 8.23242 18.0195 0.727539
c1.64258 -1.49707 6.25684 -6.04199 6.03711 -12.3945c-0.0625 -1.84082 -0.37793 -6.88086 -17.8408 -20.79c10.29 -9.30566 13.6865 -12.4893 21.6494 -21.7969c4.18066 -4.88477 5.10547 -5.71289 6.94336 -6.15527zM647.126 410.401
c4.40527 -4.83594 1.70215 -8.75098 5.25879 -8.69727c1.70508 0.0273438 3.41016 1.40625 3.38184 3.23242c-0.0517578 3.38086 -3.16406 1.3457 -8.64062 5.46484zM632.66 469.402c-0.00878906 -0.0478516 -0.143555 -0.225586 -0.152344 -0.273438
c0.0625 0.101562 0.113281 0.192383 0.152344 0.273438zM604.49 443.02c1.01758 0.5625 3.46191 1.51465 6.68652 -0.393555c5.27832 -3.12207 21.3564 -20.7715 33.0791 -29.6816c-4.61523 4.65625 -9.53516 12.043 -21.3262 22.4551
c-8.90527 7.8623 -11.002 9.71191 -11.0508 12.9082c-0.0185547 1.23047 0.369141 2.2666 1.03223 3.20996c-1.8916 0.0146484 -3.91699 0.492188 -5.75684 1.78809c-3.74805 2.63867 -6.13477 4.34375 -92.3164 87.0713
c-0.554688 0.538086 -45.4004 44.0225 -56.4219 52.8779c9.91504 -12.4883 27.7686 -29.9043 76.584 -77.2549c28.4727 -27.6182 38.2314 -37.2422 56.0273 -54.8867c6.68262 -6.625 10.2324 -10.0234 11.6182 -12.3896c0.709961 -1.21289 1.60547 -3.17383 1.84473 -5.7041
zM587.309 422.687c0.046875 -0.03125 0.0898438 -0.0585938 0.126953 -0.0820312c-0.0117188 -0.00195313 -0.115234 0.0849609 -0.126953 0.0820312zM37.3545 728.521h55.5146l17.1611 52.2256l17.1602 -52.2256h55.5156l-44.8672 -32.2959l17.1611 -52.2246
l-44.9697 32.2959l-44.9707 -32.2959l17.1611 52.2246zM271 608l-12 60c128.725 89.7881 355.203 55.3633 442.457 48.5605c0 -0.0107422 0.000976562 -0.0214844 0.000976562 -0.0322266c27.4463 0.582031 75.1855 -1.32129 107.268 -33.4033
c40.1396 -40.1396 38.6152 -108.841 37.5254 -169.365c-0.395508 -21.9258 -0.433594 -33.2402 -0.22168 -41.9463c26.3789 -43.8281 72.168 -89.959 89.3252 -129.607c6.95117 -16.0635 5.49219 -24.7637 2.64551 -40.2051l-12 -14l-79.501 -63.5771v-212.431
c1.93945 -31.0869 1.82422 -79.2412 -27.416 -108.48c-26.0322 -26.0322 -182.507 -12.0195 -220.584 -13.0049l-2.90137 0.0126953c-103.732 -7.2998 -296.108 50.6025 -326.603 92.1719c-18.5059 25.2275 -31.4014 41.2529 -57.9951 55.3086v70.0371
c25.8174 -16.2627 49.624 -17.8066 70.1904 -60.6357c44.2188 -92.082 349.455 -105.734 451.309 -108.438l-0.499023 -0.962891c50 12 34.1514 4.48145 42.5352 13.5361c19.1768 20.7119 3.97852 41.9688 5.50781 57.9648h-0.541992v2.14941
c-0.253906 0.990234 -0.500977 1.94141 -0.738281 2.84863h0.738281v207.174v3.4873v1.33887h1.58203l104 88h1.13281c4.9834 45.8955 -62.8379 92.1289 -94.2158 139.501l-3 4l-1 1c-2.02051 3.99219 0.0439453 4.02539 -2.08398 11.5605
c-0.0371094 0.130859 -0.189453 0.24707 -0.174805 0.367188l0.258789 2.07227l0.0644531 1.49902c0.00976562 0.226562 0.150391 3.89551 0.242188 6.24414c3.11426 79.1523 5.19727 173.389 -83.8154 173.771c-136.35 16.7461 -373.536 9.53418 -431.49 -46.5137z" />
  </g>

</svg>
