<?xml version="1.0" standalone="no"?>
<!DOCTYPE svg PUBLIC "-//W3C//DTD SVG 1.1//EN" "http://www.w3.org/Graphics/SVG/1.1/DTD/svg11.dtd" >
<svg xmlns="http://www.w3.org/2000/svg" xmlns:xlink="http://www.w3.org/1999/xlink" version="1.1" viewBox="-10 0 1051 1000">
  <g transform="matrix(1 0 0 -1 0 800)">
   <path fill="currentColor"
d="M324 102c-0.0820312 0 -0.446289 0.155273 -0.446289 0.49707c0 0.0537109 0.0078125 0.106445 0.0205078 0.154297c-0.204102 3.99316 -0.40918 7.98633 -0.614258 11.9795l147.135 15.0908c-1.4209 0.135742 -2.72461 0.259766 -2.73926 0.261719
c-15.1787 2.58398 -20.8027 9.72461 -20.8027 24.6963c0 33.7393 28.3691 89.8965 34.1025 119.906c0.263672 1.38184 2.07617 2.40723 2.07617 3.44141c0 0.0712891 0.373047 0.962891 0.299805 1.5l0.600586 -0.600586
c0.0146484 -0.477539 0.369141 -0.801758 0.383789 -1.28027v0c6.79004 -32.6641 32.459 -75.9717 32.459 -107.039c0 -10.2109 -3.03125 -17.7842 -7.64355 -27.1182c-1.06445 -2.15527 -2.37305 -4.80371 -4.09277 -8.4541
c-0.140625 -0.298828 -1.38281 -1.61719 -7.22461 -6.62988l-4.04395 1.68457l-0.456055 1.36621c0.119141 0.113281 8.12109 8.06445 8.55664 14.0557c0.209961 2.88965 0.308594 5.66016 0.308594 8.31836c0 26.8945 -10.1221 42.3125 -17.7578 53.959
c-2.41309 3.68066 -4.58398 6.98633 -6.10742 10.1738c-6.55762 -20.5586 -21.082 -41.7627 -21.082 -62.0361c0 -10.042 5.5791 -17.8799 5.7002 -18c2.85254 -2.85254 4.75977 -4.8457 11.5498 -6.86426v-0.921875l0.419922 0.0429688
c1.47363 3.59668 5.05566 7.00879 9.2998 7.00879c6.36523 0 9.48633 -5.59766 9.48633 -10.1064c0 -4.68164 -3.61133 -10.0088 -8.25586 -10.0088c-2.1543 0 -4.66895 1.02441 -6.77441 2.58887c-30.7656 -4.75488 -104.848 -13.1289 -151.819 -17.3926
c-1.29785 -0.117188 -2.12695 -0.1875 -2.41699 -0.204102c0 0 -0.0322266 -0.0693359 -0.121094 -0.0693359zM606.176 81.9492c28.4785 0.0996094 56.959 0.0996094 85.4375 0c1.87402 0.0361328 3.74609 0.0742188 5.61816 0.114258
c6.90137 -0.106445 12.5928 3.15527 16.5479 10.0928c3.56348 6.25098 5.38867 14.251 4.63086 17.9824c-0.344727 1.73926 -2.97168 9.52734 -3.83203 12.9492c-3.25977 12.9443 -6.45215 25.916 -9.57812 38.9121c-1.85742 7.48047 -3.90527 14.874 -6.14062 22.1807
c-2.33008 7.53809 -5.13477 14.7783 -8.41113 21.7207c-2.88965 5.96777 -6.37793 11.3525 -10.4697 16.1562c-6.99707 7.81348 -15.2041 12.2402 -24.6221 13.2773c-6.42578 0.772461 -12.7295 0.00488281 -18.9111 -2.30273
c-5.66211 -2.30566 -10.6953 -5.91211 -15.1045 -10.8223c-4.00098 -4.60156 -7.4082 -9.78223 -10.2227 -15.54c-2.55566 -5.2373 -4.80566 -10.6855 -6.75391 -16.3486c-1.94141 -5.66699 -3.70117 -11.4229 -5.28125 -17.2695
c-1.18262 -4.41211 -2.3291 -8.83789 -3.43848 -13.2783c-2.23242 -9.26855 -4.4834 -18.5283 -6.75391 -27.7832c-1.1543 -4.22656 -2.25879 -8.47363 -3.31543 -12.7402c-0.619141 -2.6123 -1.17285 -5.24902 -1.6582 -7.90625
c-1.30273 -9.41504 0.898438 -17.2822 6.60059 -23.5996c1.91504 -2.00391 4.06348 -3.5127 6.44727 -4.53027c1.30664 -0.462891 2.63672 -0.769531 3.99219 -0.919922c1.74707 -0.172852 3.48535 -0.290039 5.21875 -0.344727v0zM606.176 89.7012
c-1.4043 0.0595703 -2.81641 0.149414 -4.2373 0.268555c-1.01758 0.0966797 -2.01953 0.300781 -3.00781 0.613281c-1.76074 0.779297 -3.33594 1.93164 -4.72949 3.4541c-3.75781 4.39844 -5.13867 9.75781 -4.14258 16.0791
c0.526367 2.76074 1.11914 5.49805 1.7793 8.21191c1.21191 4.54297 2.39941 9.09766 3.56152 13.6621c2.22168 9.18945 4.45215 18.3721 6.69238 27.5527c1.09766 4.37012 2.24316 8.71875 3.43848 13.0488c2.1416 7.80273 4.68066 15.4014 7.61426 22.793
c2.19043 5.43262 4.81152 10.498 7.85742 15.1982c8.45703 12.6035 19.2949 18.3213 32.5127 17.1523c8.96777 -0.618164 16.6836 -4.76465 23.1494 -12.4326c3.55566 -4.44336 6.59473 -9.36914 9.11621 -14.7744c2.79199 -6.11523 5.20801 -12.46 7.24609 -19.0352
c2.09375 -6.82812 4.01758 -13.7344 5.77148 -20.7227c2.31152 -9.40625 4.60449 -18.8213 6.87695 -28.2422c0.859375 -3.37695 1.71875 -6.75488 2.5791 -10.1318c0.946289 -3.83301 1.80469 -7.69531 2.57812 -11.5898
c0.382812 -1.8125 0.547852 -3.6543 0.492188 -5.52539c-0.567383 -5.88574 -2.87012 -10.3496 -6.90723 -13.3936c-1.30664 -0.986328 -2.71875 -1.57617 -4.2373 -1.76465c-2.16406 -0.287109 -4.33203 -0.414062 -6.50879 -0.384766
c-29.165 -0.0371094 -58.3311 -0.0507812 -87.4951 -0.0371094v0zM404.636 361.174c-35.2207 0 -63.8018 31.0342 -63.8018 64.3428c0 16.3301 9.96484 36.3926 16.7393 43.3164c1.7959 1.87695 2.70117 4.27637 2.70117 6.67285
c0 2.38965 -0.899414 4.77539 -2.71094 6.63965c-8.86035 8.86914 -16.0508 26.2344 -16.0625 38.665c0 0.926758 1.95312 15.7803 3.48242 19.1777c7.89551 18.1357 30.3184 33.1943 50.0615 33.667l0.137695 0.00390625l0.137695 -0.00585938
c17.3496 -0.611328 39.8789 -13.5654 48.5469 -33.252c1.42383 -2.96973 4.91406 -5.58301 8.87109 -5.58301c2.71191 0 4.38184 1.10352 5.55078 1.87598c10.5215 6.95605 29.333 12.6318 41.9092 12.6318c0.962891 0 2.5791 -0.0419922 3.08594 -0.0546875
c0.0283203 0 0.0537109 -0.00195312 0.0742188 -0.00195312c4.00586 0.0234375 7.66016 2.94629 8.93066 6.15527c9.03809 21.915 35.6816 39.7227 59.3271 39.7227c-0.423828 0.195312 -0.623047 0.320312 -0.623047 0.378906
c0 0.0263672 0.0410156 0.0390625 0.118164 0.0390625c2.11816 0 32.1807 -9.56641 42.3867 -19.7715c3.86035 -3.86133 14.8564 -16.3008 17.9688 -31.9736c1.01855 -5.12891 5.47852 -7.77637 9.06445 -7.89062c33.0176 -0.886719 59.8223 -28.4238 59.8223 -61.4502
c0 -0.450195 -0.548828 -25.7178 -16.668 -41.8379c-9.61719 -9.61621 -21.1484 -14.6582 -21.9873 -14.9893c-8.80273 -3.4707 -19.207 -4.7959 -24.1123 -4.7959h-0.104492c-7.54785 0.169922 -13.5898 3.9375 -22.1494 3.9375
c-4.29883 0 -6.73438 -1.15332 -8.04785 -2.46582c-0.158203 -0.172852 -0.837891 -0.94043 -3.49219 -3.95508c1.88867 -4.35938 4.53613 -10.4678 4.53613 -18.4902c0 -11.626 -6.83789 -22.4932 -7.18066 -22.5469c-1.72656 -2.3877 -3.79004 -4.7334 -6.05469 -6.99805
c-6.69336 -6.69336 -15.0762 -12.6943 -22.083 -15.5283c-16.7471 -6.77441 -31.0762 -6.86816 -32.2305 -6.86816c-11.9248 0 -27.3623 4.52246 -28.2783 5.24219c-14.3105 5.93945 -31.4805 22.7305 -37.5107 39.2852c-1.06543 2.75977 -4.03906 5.59863 -7.41016 6.26172
c-0.814453 0.0498047 -1.72949 0.0654297 -2.70508 0.0654297c-0.0878906 0 -4.9668 -0.691406 -7.69727 -4.03027c-14.0107 -17.1309 -38.0273 -25.5918 -52.542 -25.5918zM512.895 345.022l-0.0429688 0.0185547zM357.484 468.737v0zM326.825 424.354
c0 -43.1416 37.832 -79.3535 77.1748 -79.3535c29.4824 0 52.377 18.1953 56.0977 21.3721l4.03613 3.44727c4.70801 -7.38086 7.77441 -12.1865 15.3848 -19.7959c8.41895 -8.41992 18.709 -15.8691 28.1797 -19.6035c8.77539 -3.42285 23.082 -6.1123 32.502 -6.1123
c12.0859 0 25.1055 2.80859 39.4268 8.33691c12.8857 4.97363 29.0068 17.9268 36.4805 28.8701c3.83496 5.61816 8.15527 19.752 8.15527 29.8516c0 0.733398 0 0.733398 -0.290039 7.3252c7.74707 -1.56543 10.5732 -2.13574 13.873 -2.13574
c3.86035 0 18.6582 1.88086 29.248 6.39453c11.5469 4.69922 26.2012 16.3877 33.1826 26.043c8.15332 11.3916 14.6035 31.4795 14.6035 45.4912c0 10.1475 -3.49902 25.25 -7.95898 34.3613c-7.64941 15.6279 -32.4014 37.2852 -58.96 41.499l-2.83398 0.449219
c-2.07227 6.67969 -6.44238 20.7734 -21.5322 35.8633c-8.56934 8.57031 -27.2744 23.7412 -52.3008 23.7412c-32.3096 0 -59.9385 -23.6523 -70.4404 -43.6338l-1.20996 -2.30371c-10.1973 -0.616211 -25.5977 -2.93262 -40.8857 -10.4658l-3.63184 -1.78906
c-3.71777 5.55664 -5.63574 8.4248 -10.4023 13.1904c-12.7803 12.7803 -31.8623 22.458 -49.0791 23.0176c-0.211914 0.00488281 -0.423828 0.00683594 -0.637695 0.00683594c-20.8623 0 -52.6084 -17.0205 -63.25 -44.209
c-2.52441 -6.78516 -4.22852 -23.3779 -4.4541 -24.627c0 -13.3477 6.26758 -31.459 14.7715 -43.0215l1.95312 -2.65625l-1.87891 -2.70801c-8.79395 -12.6748 -15.3232 -32.4756 -15.3232 -46.8457zM271 608l-12 60c128.725 89.7881 355.203 55.3633 442.457 48.5605
c0 -0.0107422 0.000976562 -0.0214844 0.000976562 -0.0322266c27.4463 0.582031 75.1855 -1.32129 107.268 -33.4033c40.1396 -40.1396 38.6152 -108.841 37.5254 -169.365c-0.395508 -21.9258 -0.433594 -33.2402 -0.22168 -41.9463
c26.3789 -43.8281 72.168 -89.959 89.3252 -129.607c6.95117 -16.0635 5.49219 -24.7637 2.64551 -40.2051l-12 -14l-79.501 -63.5771v-212.431c1.93945 -31.0869 1.82422 -79.2412 -27.416 -108.48c-26.0322 -26.0322 -182.507 -12.0195 -220.584 -13.0049
l-2.90137 0.0126953c-103.732 -7.2998 -296.108 50.6025 -326.603 92.1719c-18.5059 25.2275 -31.4014 41.2529 -57.9951 55.3086v70.0371c25.8174 -16.2627 49.624 -17.8066 70.1904 -60.6357c44.2188 -92.082 349.455 -105.734 451.309 -108.438l-0.499023 -0.962891
c50 12 34.1514 4.48145 42.5352 13.5361c19.1768 20.7119 3.97852 41.9688 5.50781 57.9648h-0.541992v2.14941c-0.253906 0.990234 -0.500977 1.94141 -0.738281 2.84863h0.738281v207.174v3.4873v1.33887h1.58203l104 88h1.13281
c4.9834 45.8955 -62.8379 92.1289 -94.2158 139.501l-3 4l-1 1c-2.02051 3.99219 0.0439453 4.02539 -2.08398 11.5605c-0.0371094 0.130859 -0.189453 0.24707 -0.174805 0.367188l0.258789 2.07227l0.0644531 1.49902
c0.00976562 0.226562 0.150391 3.89551 0.242188 6.24414c3.11426 79.1523 5.19727 173.389 -83.8154 173.771c-136.35 16.7461 -373.536 9.53418 -431.49 -46.5137zM30.3545 728.521h55.5146l17.1611 52.2256l17.1602 -52.2256h55.5156l-44.8672 -32.2959l17.1611 -52.2246
l-44.9697 32.2959l-44.9707 -32.2959l17.1611 52.2246z" />
  </g>

</svg>
