<?xml version="1.0" standalone="no"?>
<!DOCTYPE svg PUBLIC "-//W3C//DTD SVG 1.1//EN" "http://www.w3.org/Graphics/SVG/1.1/DTD/svg11.dtd" >
<svg xmlns="http://www.w3.org/2000/svg" xmlns:xlink="http://www.w3.org/1999/xlink" version="1.1" viewBox="-10 0 1051 1000">
  <g transform="matrix(1 0 0 -1 0 800)">
   <path fill="currentColor"
d="M828.399 483.872c0 9.49878 0.360099 25.4826 0.360099 28.905l-0.318652 61.3747l-8.69455 54.78l-24.0577 41.7601l-29.8355 19.1251l-33.9409 8.02542l-47.9505 1.85133v0.765382l-107.704 8.96128l-161.614 -4.8437l-135.511 -48.0118l4.97421 -24.8711
l90.1513 34.2037l168.519 13.9909l163.859 -8.05849l72.0585 -32.0852l24.6852 -76.5829c-11.2968 -92.7231 -11.5388 -94.7093 -10.6225 -98.1968c0.272553 -1.03738 0.408327 -1.98777 0.495372 -2.92219c0.487753 -0.641757 1.13403 -1.58506 1.4862 -2.05622
l30.4464 -40.7334l38.0432 -60.0682l23.93 -33.502l-96.7113 -80.2498l-3.19974 -219.288c0.962733 -7.56244 2.78458 -22.0112 5.01798 -45.877c-0.12894 -0.269919 -9.65147 -20.9678 -12.8349 -27.02c-1.80565 -3.43278 -3.36365 -6.39475 -8.94453 -11.1259
c-28.726 -6.87192 -37.6748 -9.01268 -53.7943 -9.01268c-3.38415 0 -6.77838 0.14333 -10.1737 0.446144l-127.95 -3.2205l-189.706 31.9736l-119.91 72.0259l-21.8729 31.5454c-0.18608 0.126152 -14.9542 10.3475 -18.5829 12.6523v-31.4635
c5.41685 -3.87145 13.5068 -7.36272 24.4398 -17.2503c7.32645 -6.62591 2.09556 -4.45645 10.6241 -11.9264c1.03002 -0.902171 1.03002 -0.902171 17.2005 -21.8062l70.2643 -41.1391l123.979 -35.7692l40.8353 -3.74581
c52.8258 -4.90757 59.0669 -6.73248 83.0467 -7.42728l68.08 -1.97257l89.7606 0.254271l51.1066 12.4914l15.1376 25.2075l6.27671 34.16l-0.268638 82.9487l0.0291888 84.2282l-0.00582149 87.5189l84.7837 67.8016l7.68593 8.96692l1.11464 7.19504
c0.44913 7.61262 -1.52476 12.8022 -3.31214 18.1783l-23.3304 38.8443l-33.0243 43.448l-34.3179 48.9016c-0.202711 16.1296 -0.202711 16.1296 -0.202711 17.6951zM33.2949 712.521h55.5146l17.1611 52.2256l17.1602 -52.2256h55.5156l-44.8672 -32.2959
l17.1611 -52.2246l-44.9697 32.2959l-44.9707 -32.2959l17.1611 52.2246zM321.938 333.648c-0.720703 0 -1.30078 0.584961 -1.30078 1.2998l1.24805 35.8945c-3.62598 4.33984 -7.3457 8.40332 -11.0078 12.4033c-16.1455 17.6348 -31.2568 34.1777 -31.3096 67.5469
c-0.105019 67.9661 63.1088 69.7012 69.5664 69.7012c35.8259 0 43.8073 0 66.5635 -19.7939c9.01657 -7.84066 20.7655 -45.6793 18.6025 -58.0361c-7.54395 -43.083 -28.0459 -55.4824 -30.4561 -62.2363c-0.269093 -0.751466 -3.66722 -2.56372 -9.8623 -5.47754
c-0.50293 -1.43066 -0.50293 -1.43066 -0.757812 -1.69531c-0.117188 -0.453125 -0.224609 -1.25488 -0.224609 -1.25488l-0.742188 -36.668c-0.0146484 -0.705078 -0.586914 -1.26953 -1.29199 -1.27344zM419.136 494.951l-0.0859375 0.0751953zM415.486 499.588
l-0.861328 0.354492l-0.861328 -2.1582zM359.263 511.438c-20.8477 0 -34.4424 -3.68066 -51.7754 -16.5322c-24.2294 -24.2243 -23.9587 -67.9846 3.55469 -95.498c7.22442 -7.22442 -1.54646 1.24505 13.2217 -14.7637
c9.17844 -2.25691 8.56477 -8.12328 7.89648 -14.5117l-0.249023 -30.3525l48.166 -0.24707l2.26562 37.2529c0.0542557 0.892753 47.4393 30.4056 39 80.4893c-3.3139 19.6527 -9.13316 54.1631 -62.0801 54.1631zM324 84c-0.720703 0 -1.30078 0.584961 -1.30078 1.2998
l1.24805 35.8945c-3.62598 4.33984 -7.3457 8.40332 -11.0078 12.4033c-16.1455 17.6348 -31.2568 34.1777 -31.3096 67.5469c-0.105019 67.9661 63.1088 69.7012 69.5664 69.7012c35.8259 0 43.8073 0 66.5635 -19.7939
c9.01657 -7.84066 20.7655 -45.6793 18.6025 -58.0361c-7.54395 -43.083 -28.0459 -55.4824 -30.4561 -62.2363c-0.269093 -0.751466 -3.66722 -2.56372 -9.8623 -5.47754c-0.50293 -1.43066 -0.50293 -1.43066 -0.757812 -1.69531
c-0.117188 -0.453125 -0.224609 -1.25488 -0.224609 -1.25488l-0.742188 -36.668c-0.0146484 -0.705078 -0.586914 -1.26953 -1.29199 -1.27344zM421.197 245.303l-0.0859375 0.0751953zM417.548 249.939l-0.861328 0.354492l-0.861328 -2.1582zM361.324 261.789
c-20.8477 0 -34.4424 -3.68066 -51.7754 -16.5322c-24.2294 -24.2243 -23.9587 -67.9846 3.55469 -95.498c7.22442 -7.22442 -1.54646 1.24505 13.2217 -14.7637c9.17844 -2.25691 8.56477 -8.12328 7.89648 -14.5117l-0.249023 -30.3525l48.166 -0.24707l2.26562 37.2529
c0.0542557 0.892753 47.4393 30.4056 39 80.4893c-3.3139 19.6527 -9.13316 54.1631 -62.0801 54.1631zM639 291l-43.5605 39.46l7.05762 5.19922l33.751 -31l60.1826 76.2314l9.58887 -4.40625zM719.503 255.765c2.86914 0.0546875 5.73926 0.113281 8.6084 0.176758
c20.9565 -0.323241 34.9877 22.7214 30.0586 46.9814c-0.288957 1.45546 -22.2828 104.282 -40.4541 142.766c-21.7778 44.9971 -99.9572 97.8488 -139.991 -50.332c-24.4799 -91.2492 -30.0394 -111.972 -13.125 -130.713
c7.44484 -7.78932 13.7704 -8.5479 23.9902 -8.87891c43.6377 0.15332 87.2764 0.15332 130.913 0zM722.655 267.701c-140.478 -0.184189 -140.478 -0.184189 -145.166 1.29395c-19.3782 8.57668 -15.3429 24.4279 -5.41016 63.4453
c22.7419 94.047 36.596 151.339 89.0469 146.706c45.4902 -3.14584 58.5318 -57.2102 79.9219 -145.884c9.97495 -39.2042 12.9839 -51.03 -1.92871 -62.2686c-1.76299 -1.33278 -4.5815 -3.46351 -16.4639 -3.29297z" />
  </g>

</svg>
