<?xml version="1.0" standalone="no"?>
<!DOCTYPE svg PUBLIC "-//W3C//DTD SVG 1.1//EN" "http://www.w3.org/Graphics/SVG/1.1/DTD/svg11.dtd" >
<svg xmlns="http://www.w3.org/2000/svg" xmlns:xlink="http://www.w3.org/1999/xlink" version="1.1" viewBox="-10 0 1020 1000">
  <g transform="matrix(1 0 0 -1 0 800)">
   <path fill="currentColor"
d="M30.3242 741.553h55.5146l17.1611 52.2256l17.1602 -52.2256h55.5156l-44.8672 -32.2959l17.1611 -52.2246l-44.9697 32.2959l-44.9707 -32.2959l17.1611 52.2246zM271 608l-12 60c128.725 89.7881 355.203 55.3633 442.457 48.5605
c0 -0.0107422 0.000976562 -0.0214844 0.000976562 -0.0322266c27.4463 0.582031 75.1855 -1.32129 107.268 -33.4033c40.1396 -40.1396 38.6152 -108.841 37.5254 -169.365c-0.395508 -21.9258 -0.433594 -33.2402 -0.22168 -41.9463
c26.3789 -43.8281 72.168 -89.959 89.3252 -129.607c6.95117 -16.0635 5.49219 -24.7637 2.64551 -40.2051l-12 -14l-79.501 -63.5771v-212.431c1.93945 -31.0869 1.82422 -79.2412 -27.416 -108.48c-26.0322 -26.0322 -182.507 -12.0195 -220.584 -13.0049
l-2.90137 0.0126953c-103.732 -7.2998 -296.108 50.6025 -326.603 92.1719c-18.5059 25.2275 -31.4014 41.2529 -57.9951 55.3086v70.0371c25.8174 -16.2627 49.624 -17.8066 70.1904 -60.6357c44.2188 -92.082 349.455 -105.734 451.309 -108.438l-0.499023 -0.962891
c50 12 34.1514 4.48145 42.5352 13.5361c19.1768 20.7119 3.97852 41.9688 5.50781 57.9648h-0.541992v2.14941c-0.253906 0.990234 -0.500977 1.94141 -0.738281 2.84863h0.738281v207.174v3.4873v1.33887h1.58203l104 88h1.13281
c4.9834 45.8955 -62.8379 92.1289 -94.2158 139.501l-3 4l-1 1c-2.02051 3.99219 0.0439453 4.02539 -2.08398 11.5605c-0.0371094 0.130859 -0.189453 0.24707 -0.174805 0.367188l0.258789 2.07227l0.0644531 1.49902
c0.00976562 0.226562 0.150391 3.89551 0.242188 6.24414c3.11426 79.1523 5.19727 173.389 -83.8154 173.771c-136.35 16.7461 -373.536 9.53418 -431.49 -46.5137zM621.444 153.136c2.32715 0 2.57129 -1.86328 2.57129 -2.23242
c0 -2.07617 -3.30859 -2.84082 -9.63184 -4.25098c-13.0137 -2.90137 -28 -4.84863 -44.4766 -5.78613c-3.56641 -0.203125 -11.7061 -0.302734 -20.3037 -0.302734c-57.2236 0 -81.7266 5.88672 -106.002 13.1553c-10.7031 3.2041 -17.4365 5.06738 -26.3809 7.30176
c-19.5947 4.89355 -27.667 7.59473 -29.2275 9.20801c-0.982422 0.129883 -4.72852 2.96094 -6.12012 4.71973c-2.63281 3.32617 -6.27832 10.6826 -6.27832 13.5996c0 0.344727 0.0439453 0.402344 0.0439453 0.605469c0 2.83887 -9.10742 14.9434 -11.8965 47.9424
c-0.235352 2.78516 -0.348633 8.34961 -0.348633 14.2627c0 3.21875 0.0537109 21.4072 1.25977 24.8652c-0.171875 0.251953 -0.223633 0.498047 -0.223633 0.738281c0 0.583008 2.28809 24.2178 10.5986 57.3877c3.5625 14.2178 13.1035 47.5938 14.5244 49.166
c0.125 0.138672 4.17383 7.41699 11.9102 14.3086c5.31836 4.73828 13.6123 10.4424 23.3398 16.0742c2.83496 1.6416 8.29883 4.86035 12.1299 7.14551c6.91504 4.125 13.8809 8.24414 19.7461 8.24414c6.21191 0 13.1309 -4.90332 19.1113 -12.2627
c1.56152 -1.92188 4.44824 -5.41016 6.4043 -7.73828c7.43652 -8.85742 11.2119 -13.8086 11.2119 -20.416c0 -5.20215 -1.55273 -3.72461 -1.6748 -9.53223c-0.168945 -7.9873 -4.72559 -10.0957 -7.25195 -18.7881c-0.59668 -2.05469 -3.97363 -3.74902 -7.13086 -3.74902
c-4.19922 0 -5.14551 1.71973 -6.92676 4.95996c-0.975586 -1.46777 -3.99902 -4.24707 -6.42773 -4.24707c-0.442383 0 -0.549805 0 -0.856445 -0.519531c-0.0371094 -0.0615234 -2.64648 -4.4375 -9.64258 -4.4375c-3.5498 0 -8.29688 1.00781 -10.5938 1.02637
c-2.31641 0.0175781 -3.59473 1.33691 -3.59473 2.90723c0 0.634766 0.203125 1.2959 0.571289 1.91211c-0.515625 -0.0263672 -0.515625 -0.0263672 -3.04004 -0.217773c-1.89062 -6.76465 -4.75977 -17.0254 -4.75977 -28.3076
c0 -8.30078 1.60938 -15.4912 4.80078 -21.8779c5.85547 -11.7158 30.6318 -28.8896 30.6318 -47.9209c0 -2.09473 -0.236328 -4.13965 -0.71875 -5.69141c2.97656 1.88867 4.68457 2.875 5.42969 3.16113c0 0 0.231445 0.203125 0.577148 0.203125
c0.0458984 0 0.0947266 -0.00390625 0.144531 -0.0117188c1.41016 1.16113 12.7305 6.88086 25.7754 6.88086c18.2764 0 31.6992 -9.6582 42.8135 -17.9062c7.5918 -5.63574 13.0684 -9.20605 17.4932 -11.4287c2.97852 -1.49609 4.23828 -2.21582 5.37695 -2.21582
c1.07812 0 2.04785 0.645508 4.26465 1.8916c8.06738 4.5332 18.4082 8.87988 22.4336 9.24023c0.84375 0.0761719 3.04297 1.28125 11.0635 1.28125c11.3955 -0.00292969 20.5625 -4.70508 22.3232 -6.46582c0.430664 -0.429688 0.835938 -1.0752 0.835938 -1.74902
c0 -0.90918 -0.904297 -1.94434 -2.17676 -1.94434c-3.2793 0 -7.5 4.90723 -19.9688 4.90723c-11.335 0 -17.7754 -2.84766 -28.6357 -8.22852c12.9326 -0.385742 12.9414 -0.394531 14.041 -1.49414c0.366211 -0.365234 0.492188 -0.775391 0.492188 -1.17188
c0 -0.655273 -0.386719 -1.49316 -0.771484 -1.87891c-0.59375 -0.592773 -0.891602 -0.890625 -10.8408 -0.890625c-2.74902 0 -10.7363 0.37793 -10.8447 0.37793c-2.55957 0 -2.34082 -1.27148 -4.16016 -1.27539c-1.39746 0 -2.63965 1.52344 -2.63965 2.74316
c0 0.12207 0.0107422 0.246094 0.0341797 0.37207c-0.239258 0.137695 -0.739258 0.398438 -1.52734 0.733398c-11.9922 5.09668 -26.9062 19.5205 -39.7051 25.1494c-6.26465 2.75586 -12.9629 4.13867 -19.6709 4.13867c-3.78027 0 -15.0576 0 -30.4443 -9.93457
c-4.41602 -2.85059 -4.41602 -2.85059 -4.43164 -2.85938c-1.27051 -0.734375 -9.75098 -7.62891 -17.8057 -14.5703c-5.96484 -5.13965 -7.23047 -6.44336 -8.66504 -6.44336c-1.7334 0 -2.73242 1.68457 -2.73242 2.78711c0 0.801758 0.46582 1.26855 0.603516 1.40527
c1.3584 1.3584 13.7773 12.0137 18.0244 15.4727c6.5293 5.31738 7.81055 6.98242 8.96289 10.4043c0.44043 1.30664 0.662109 2.24023 0.662109 3.28027c0 1.01562 -0.211914 2.13281 -0.637695 3.7998c-4.07812 15.9463 -20.8506 28.7295 -27.791 38.3799
c-5.64062 7.8418 -8.44043 17.5254 -8.44043 28.8887c0 1.62305 0.164062 14.5713 4.88574 30.0518c0.270508 0.884766 0.473633 1.67285 0.575195 2.08203c-0.439453 0.327148 -6.18652 3.52637 -8.25586 5.5957c-0.617188 0.617188 -0.936523 1.31738 -0.936523 2.04492
c0 0.21875 0.0585938 2.43848 2.44238 2.43848c1.4502 0 2.39258 -2.01855 6.21484 -4.39453c4.10645 -2.55176 6.13477 -3.88379 6.54492 -4.78125c1.06055 0.133789 6.30762 0.844727 6.30762 1.84863c0 0.357422 -0.40625 0.961914 -0.40625 1.83008
c0 1.35059 1.17188 2.25098 2.30469 2.25098c1.76074 0 1.56152 -1.38184 3.51465 -1.80371c2.00488 -0.433594 4.75781 -1.14746 4.75781 -3.16504c0 -0.941406 -0.816406 -2.51172 -2.28027 -2.51172c-0.788086 0 -1.26855 0.358398 -1.56836 0.358398
c-0.494141 0 -2.30957 -1.01562 -3.54492 -2.37598c0.0800781 -0.0166016 5.08984 -0.944336 8.1084 -0.944336c2.53223 0 3.16699 0.667969 4.96094 2.55273c-2.95117 7.06543 -6.67578 14.4404 -10.9756 19.7666c-1.0498 1.30078 -2.00684 2.47754 -2.00684 3.53613
c0 1.09277 1.16992 1.97852 2.0625 1.97852c0.979492 0 1.5918 -0.706055 2.1123 -1.30566c2.76855 -3.18945 8.86426 -11.7266 8.86426 -13.6318c0 -0.0488281 -0.00195312 -0.0966797 -0.00585938 -0.144531c1.23145 -1.14355 3.05566 -6.10547 4.01758 -7.50684
c2.5293 0.416016 3.03418 3.8457 3.03418 5.65625c0 8.02832 -9.50391 15.833 -9.50391 24.7334c0 1.63965 0 1.63965 2.43945 6.2959c1.48535 -8.7998 1.58691 -9.40039 5.94434 -16.3428c1.48047 -2.3584 2.39648 -4.32227 2.43164 -4.35742
c0.62793 -0.628906 3.58691 -5.36621 3.58691 -10.668c0 -0.334961 -0.00878906 -0.677734 -0.0263672 -1.02734c1.9502 1.51758 3.59277 1.78906 5.23438 3.42969c7.42773 7.42871 -8.90039 28.4209 -11.5186 31.6816c-1.94629 2.4248 -2.83691 3.78223 -2.83691 4.68652
c0 0.400391 0.256836 1.41504 1.61816 1.41504c0.999023 0 1.24707 -0.672852 1.73145 -1.15723c0.151367 -0.151367 10.793 -11.6533 12.9492 -17.1172c1.81836 -1.47559 4.45215 -9.62891 4.49902 -9.72461c0.0771484 0.0527344 4.5625 3.43457 4.5625 8.13574
c0 3.71973 -3.12305 8.5 -3.18066 8.57129c-0.00195312 0.00292969 -3.43262 4.27246 -3.43262 4.27246c-10.4229 12.96 -12.0693 15.0068 -14.9834 17.6768c-3.40527 3.12012 -6.52637 4.58105 -9.99609 4.58105c-2.67969 0 -5.77539 -0.457031 -14.8145 -6.0332
c-9.51465 -5.87012 -25.5986 -14.082 -26.8047 -15.9229c-1.26367 -1.92871 -8.33398 -6.18359 -15.2764 -13.126c-3.30762 -3.30859 -5.29883 -6.12695 -5.58887 -7.49023c-1.81641 -8.54297 -19.3838 -58.3125 -24.3975 -105.187
c-0.981445 -9.17773 -1.18652 -12.7275 -1.18652 -23.2412c0 -8.30078 0.214844 -17.2998 0.605469 -20.8027c2.95801 -26.501 9.7334 -40.8555 10.0254 -41.1621c1.34766 -0.0615234 1.97754 -1.48047 2.49219 -2.64062c3.31445 -7.47266 4.69141 -9.32324 5.86914 -10.5
c3.1377 -3.13867 9.20898 -5.38281 31.1846 -11.1104c6.09863 -1.58887 16.2002 -4.46875 22.4922 -6.41113c32.4834 -10.0273 40.8984 -11.1904 77.9893 -13.7275c7.29883 -0.5 21.0166 -0.797852 32.709 -0.797852c14.4551 0 40.0986 0.845703 62.6758 6.0127
c3.5459 0.811523 5.61133 1.34766 6.96973 1.34766zM496.181 145.851c-0.5 -0.0820312 -1.32422 0.160156 -1.39746 -0.348633c0.0625 -0.476562 0.751953 -0.325195 1.17969 -0.436523l0.123047 0.0976562s0.0693359 0.49707 0.0947266 0.6875zM622.059 151.198
c-0.416992 0.0361328 -0.549805 -0.209961 -0.633789 -0.506836c0.365234 0.0146484 0.703125 0.0566406 0.633789 0.506836zM470.069 252.962c-0.0859375 0.293945 -0.214844 0.544922 -0.633789 0.505859c-0.0673828 -0.447266 0.265625 -0.494141 0.633789 -0.505859z
M515.869 258.101c-0.416992 0.0361328 -0.550781 -0.209961 -0.633789 -0.506836c0.365234 0.0146484 0.703125 0.0566406 0.633789 0.506836zM367.629 278.297c0.00195312 0.0644531 -0.0683594 0.0566406 -0.105469 0.0810547
c-0.00195312 -0.0634766 0.0683594 -0.0566406 0.105469 -0.0810547zM485.097 375.846c-0.335938 0 -0.543945 0.0332031 -1.05176 0.114258c-0.521484 -6.49023 -2.7041 -9.41211 -8.1748 -12.3145c0.314453 -0.65918 0.583008 -1.22266 1.80762 -1.58789
c0.907227 0.189453 2.09277 0.436523 2.37109 0.714844c0.521484 0.521484 1.4834 3.17871 4.5127 8.2041c2.3125 3.83594 2.79492 4.63574 3.25684 6.22656c-1.01855 -0.957031 -1.74316 -1.35742 -2.72168 -1.35742zM554.257 197.967
c1.25684 0 2.11133 -1.2627 2.11133 -2.46289c0 -1.42578 -1.41992 -2.08691 -3.69531 -3.14844c-19.1699 -8.9375 -29.5703 -9.65332 -39.876 -9.65332c-5.95215 0 -14.8408 0.751953 -28.5723 5.29102c-5.08691 1.68164 -6.99414 2.3125 -6.99414 4.0498
c0 0.650391 0.438477 1.7832 1.88281 1.7832c1.20801 0 3.07422 -0.701172 6.46387 -1.64355c13.624 -3.78809 18.5059 -4.58105 28.5176 -4.58105c8.77734 0 16.6426 0 37.1865 9.35352c1.26367 0.575195 2.19141 1.01172 2.97559 1.01172zM629.995 320.039
c0.0859375 0.00292969 5.50781 0 5.50879 0.00292969c-1.66992 7.00488 -1.2002 9.25977 -0.591797 11.2246c0.00585938 0.0185547 0.477539 1.64746 0.541992 1.77637l3.93848 7.87695c-2.0166 31.248 -2.0166 31.248 -2.00488 31.3818
c0.662109 7.8623 1.24023 17.0322 0.564453 22.9062c-1.75488 6.97266 -6.11133 5.50098 -7.12793 3.27051c-0.360352 -0.788086 -0.764648 -0.880859 -1.81055 -1.12012c-0.813477 -0.726562 -2.0918 -0.568359 -2.7002 0.347656
c-0.761719 1.14844 -4.28809 6.6084 -4.38086 6.78906c-1.27441 2.49805 -6.19336 4.03418 -7.13379 -0.90918c-0.0341797 -0.178711 -0.0341797 -0.178711 -1.71289 -4.27148c-0.625977 -1.52441 -2.83105 -1.46191 -3.36719 0.0976562l-3.1582 9.18848
c-0.844727 2.45605 -6.1123 4.41699 -8.89551 -0.234375c-0.0517578 -0.15332 -0.427734 -1.29199 -2.45801 -7.66211c-0.441406 -1.38477 -2.28418 -1.70117 -3.16016 -0.524414c-2.59766 3.49121 -2.59766 3.49121 -2.64355 3.53711
c-0.0175781 0.0166016 -2.9668 2.96191 -4.63867 1.29102c-0.915039 -0.915039 -1.43262 -3.14941 -1.66016 -4.51953c0.00585937 -0.206055 0.046875 -1.41797 0.271484 -7.2998c0.134766 -3.66211 0.296875 -11.4883 0.300781 -11.6035
c1.07129 -7.63477 0.576172 -7.87305 1.13281 -11.958c0.0410156 -0.157227 0.349609 -1.34766 1.95312 -7.4209c0.015625 -0.0585938 0.163086 -3.45898 -0.302734 -4.25c-1.14355 -1.94336 -1.22266 -2.07812 -1.97656 -2.25098
c-2.98633 -0.68457 -3.93066 -0.0830078 -4.94043 1.31738c-0.519531 0.720703 -4.05176 4.26074 -4.40625 4.6709l-7.40137 8.54004c-0.200195 0.131836 -1.22754 0.804688 -4.31738 2.7627c-0.180664 0.0546875 -1.0459 0.3125 -3.65723 1.04395
c-0.730469 -0.400391 -1.60156 -0.15918 -2.26172 -0.819336c-0.478516 -0.479492 -1.03125 -2.08398 -0.855469 -2.99316l4.08301 -5.49121c0.787109 -0.737305 4.9668 -4.38184 5.17188 -4.62891c6.10254 -7.37891 6.10254 -7.37891 6.13184 -7.41895
c4.43359 -6.00781 4.43359 -6.00781 4.46777 -6.06055c3.99805 -6.28418 3.99805 -6.28418 4.05469 -6.41504l3.08887 -7.15918c0.853516 -1.32227 4.15137 -6.29883 4.24023 -6.4668c1.38867 -2.64062 1.38867 -2.64062 1.44141 -2.86035
c1.03418 -4.33301 8.35742 -4.54883 8.45312 -4.5498l8.00977 -0.143555zM635.505 316.44h-5.39648c-24.2793 -1.00781 -24.2793 -1.00781 -24.333 -1.00684l-8.06738 0.143555c-1.28125 0.0244141 -10.0264 0.433594 -11.8262 7.07715l-1.14648 2.17773
c-4.19336 6.3623 -4.12207 6.15137 -4.37598 6.73926l-3.05469 7.08203l-3.8125 5.99121l-4.33203 5.86816l-5.94824 7.19434c-5.11035 4.52637 -5.11035 4.52637 -5.33496 4.82715l-4.17578 5.61621c-1.49023 2.00391 -0.450195 5.91309 1.25293 7.61621
c0.998047 0.998047 1.93945 1.30273 3.33496 1.55957c0.772461 0.345703 1.64062 0.405273 2.44629 0.179688c3.79883 -1.06348 3.88184 -1.00781 4.5498 -1.43066c4.07715 -2.58203 4.38574 -2.67969 4.96973 -3.26367
c0.0683594 -0.0683594 -0.0869141 -0.210938 7.57227 -8.72656c3.99023 -4.43652 4.14648 -4.29395 4.71973 -5.07031c0.0947266 0.0078125 0.224609 0.0244141 0.388672 0.0507812l0.192383 0.328125l0.0859375 2.15234c-1.91895 7.26367 -1.89844 7.0625 -1.96289 7.53711
c-0.599609 4.36719 -0.0722656 4.42969 -1.15039 12.084c-0.0166016 0.117188 -0.232422 9.46387 -0.320312 11.8828c-0.288086 7.52051 -0.357422 7.22363 -0.245117 7.91992c0.350586 2.17188 1.1582 7.17676 5.3877 8.06836
c3.51562 0.742188 6.92383 -2.55859 7.39258 -3.1875l0.523438 -0.703125c1.4043 4.45801 1.35938 4.42871 1.68945 4.98828c4.35156 7.40332 13.6045 4.96582 15.4355 -0.361328l1.54492 -4.49512c2.15625 7.24316 10.8262 6.16504 13.585 0.942383
c0.0322266 -0.0498047 3.09961 -4.81445 3.21484 -4.99219c3.02637 3.91113 10.6895 4.57031 13.1338 -5.1377c0.0390625 -0.155273 0.0673828 -0.311523 0.0859375 -0.469727c0.736328 -6.41406 0.121094 -15.5859 -0.542969 -23.4902l1.99902 -30.9785
c0.0400391 -0.628906 -0.0830078 -1.26758 -0.37207 -1.84375l-3.85156 -7.70312c-0.110352 -0.429688 -0.240234 -0.858398 -0.411133 -1.40918c-0.479492 -1.54688 -0.985352 -2.43848 0.655273 -9.31738c0.539062 -2.26172 -1.17383 -4.43945 -3.5 -4.43945zM386 501.666
v8.33398c0 3.63184 3.4248 6 6 6h250c3.63184 0 6 -3.4248 6 -6v-8.33398c0 -3.63184 -3.4248 -6 -6 -6h-250c-3.63184 0 -6 3.4248 -6 6z" />
  </g>

</svg>
