<?xml version="1.0" standalone="no"?>
<!DOCTYPE svg PUBLIC "-//W3C//DTD SVG 1.1//EN" "http://www.w3.org/Graphics/SVG/1.1/DTD/svg11.dtd" >
<svg xmlns="http://www.w3.org/2000/svg" xmlns:xlink="http://www.w3.org/1999/xlink" version="1.1" viewBox="-52 0 1064 1000">
  <g transform="matrix(1 0 0 -1 0 800)">
   <path fill="currentColor"
d="M111.2 228.4h99.5996l153.601 -259.2c30.3994 -14.6221 117.199 -18.8584 147.6 0l118.8 259.2l105 3.59961v-43.2002l-82.7998 -9l-136.2 -253.8c-43.8623 -9.74023 -126.358 -9.03613 -154.8 0l-166.2 257.4l-84.5996 1.7998v43.2002zM-41.4961 -117.984h42.7031
l13.2012 40.1738l13.2002 -40.1738h42.7041l-34.5127 -24.8428l13.2002 -40.1729l-34.5918 24.8428l-34.5928 -24.8428l13.2012 40.1729zM571.275 461.514c0.208008 -2.2207 0.375977 -5.8291 0.375977 -8.05469c0 -1.05371 -0.0380859 -2.76465 -0.0839844 -3.81836
c-1.47656 -26.9688 -22.7012 -63.9951 -47.377 -82.6475c-13.6641 -9.48242 -39.5088 -17.1777 -57.6885 -17.1777c-0.171875 0 -0.449219 0.000976562 -0.62207 0.00195312c-0.959961 -0.0283203 -2.52051 -0.0507812 -3.48242 -0.0507812
c-1.73633 0 -4.55078 0.0742188 -6.2832 0.166016c-12.9072 0.828125 -33.8936 1.5 -46.8428 1.5c-6.22461 0 -16.3262 -0.155273 -22.5459 -0.347656c-0.388672 -0.00390625 -1.01953 -0.00683594 -1.40723 -0.00683594c-24.7822 0 -58.8281 11.4678 -75.998 25.5967
c-20.3691 16.2725 -36.9004 48.0596 -36.9004 70.9551c0 0.492188 0.00878906 1.28906 0.0205078 1.78027c1.01953 42.3037 35.7139 77.3467 93.1484 93.7139c13.0674 3.6377 34.8799 7.30469 48.6885 8.18457c0 26.166 1.16602 88.7568 43.7314 122.416
c15.2793 12.1055 45.2334 21.9307 66.8623 21.9307c0.738281 0 1.93457 -0.0126953 2.6709 -0.0292969v-11.5273c-0.663086 0.015625 -1.74219 0.0292969 -2.40723 0.0292969c-18.3564 0 -43.792 -8.32715 -56.7764 -18.5869
c-37.7539 -29.8555 -39.3584 -90.4873 -39.3584 -113.541c1.4668 0.0371094 3.84863 0.0683594 5.31641 0.0683594c25.4424 0 63.6816 -8.55176 85.3545 -19.0879c27.2305 -13.8613 50.3486 -45.8789 51.6045 -71.4668zM514.569 375.407
c21.9355 16.6104 41.0059 49.5576 42.5664 73.542c0.120117 1.58887 0.216797 4.1709 0.216797 5.76367c0 1.5918 -0.0966797 4.17383 -0.216797 5.76367c-1.08984 22.3564 -21.2695 50.3457 -45.0449 62.4756c-21.0723 9.62793 -57.9277 17.4424 -82.2646 17.4424
c-16.7529 0 -43.0488 -3.83789 -58.6982 -8.56641c-52.333 -14.8701 -82.6533 -45.0703 -83.5273 -82.9941c-0.0126953 -0.486328 -0.0224609 -1.27441 -0.0224609 -1.76074c0 -20.2119 14.5732 -48.29 32.5293 -62.6748c14.7363 -11.9658 43.8379 -21.6777 64.96 -21.6777
c0.336914 0 0.883789 0.00292969 1.22168 0.00683594h29.1543c1.31934 0.0126953 3.46094 0.0224609 4.7793 0.0224609c10.4521 0 27.3809 -0.629883 37.7861 -1.40527c2.28516 -0.208008 6.00781 -0.375977 8.30762 -0.375977c15.2246 0 36.8428 6.46875 48.2529 14.4385z
" />
  </g>

</svg>
