<?xml version="1.0" standalone="no"?>
<!DOCTYPE svg PUBLIC "-//W3C//DTD SVG 1.1//EN" "http://www.w3.org/Graphics/SVG/1.1/DTD/svg11.dtd" >
<svg xmlns="http://www.w3.org/2000/svg" xmlns:xlink="http://www.w3.org/1999/xlink" version="1.1" viewBox="-10 0 1015 1000">
  <g transform="matrix(1 0 0 -1 0 800)">
   <path fill="currentColor"
d="M828.399 483.872c0 9.49878 0.360099 25.4826 0.360099 28.905l-0.318652 61.3747l-8.69455 54.78l-24.0577 41.7601l-29.8355 19.1251l-33.9409 8.02542l-47.9505 1.85133v0.765382l-107.704 8.96128l-161.614 -4.8437l-135.511 -48.0118l4.97421 -24.8711
l90.1513 34.2037l168.519 13.9909l163.859 -8.05849l72.0585 -32.0852l24.6852 -76.5829c-11.2968 -92.7231 -11.5388 -94.7093 -10.6225 -98.1968c0.272553 -1.03738 0.408327 -1.98777 0.495372 -2.92219c0.487753 -0.641757 1.13403 -1.58506 1.4862 -2.05622
l30.4464 -40.7334l38.0432 -60.0682l23.93 -33.502l-96.7113 -80.2498l-3.19974 -219.288c0.962733 -7.56244 2.78458 -22.0112 5.01798 -45.877c-0.12894 -0.269919 -9.65147 -20.9678 -12.8349 -27.02c-1.80565 -3.43278 -3.36365 -6.39475 -8.94453 -11.1259
c-28.726 -6.87192 -37.6748 -9.01268 -53.7943 -9.01268c-3.38415 0 -6.77838 0.14333 -10.1737 0.446144l-127.95 -3.2205l-189.706 31.9736l-119.91 72.0259l-21.8729 31.5454c-0.18608 0.126152 -14.9542 10.3475 -18.5829 12.6523v-31.4635
c5.41685 -3.87145 13.5068 -7.36272 24.4398 -17.2503c7.32645 -6.62591 2.09556 -4.45645 10.6241 -11.9264c1.03002 -0.902171 1.03002 -0.902171 17.2005 -21.8062l70.2643 -41.1391l123.979 -35.7692l40.8353 -3.74581
c52.8258 -4.90757 59.0669 -6.73248 83.0467 -7.42728l68.08 -1.97257l89.7606 0.254271l51.1066 12.4914l15.1376 25.2075l6.27671 34.16l-0.268638 82.9487l0.0291888 84.2282l-0.00582149 87.5189l84.7837 67.8016l7.68593 8.96692l1.11464 7.19504
c0.44913 7.61262 -1.52476 12.8022 -3.31214 18.1783l-23.3304 38.8443l-33.0243 43.448l-34.3179 48.9016c-0.202711 16.1296 -0.202711 16.1296 -0.202711 17.6951zM33.2949 712.521h55.5146l17.1611 52.2256l17.1602 -52.2256h55.5156l-44.8672 -32.2959
l17.1611 -52.2246l-44.9697 32.2959l-44.9707 -32.2959l17.1611 52.2246zM480.367 174.766v30.5547h45.9834v36.9873h-45.9834v30.5537h45.9834v40.1367h26.6475v-40.1367h38.3555v37.207h26.6475v-37.207h49.1572v-30.5537h-49.1572v-36.9873h49.1572v-30.5547h-49.1572
v-43.0781h-26.6475v43.0781h-38.3555v-40.1484h-26.6475v40.1484h-45.9834zM572 348l-90.2715 163.418l18.7715 7.92969l72.0684 -123.795l65.7031 125.011l22.3613 -9.05566zM591.354 242.308h-38.3555v-36.9873h38.3555v36.9873zM242.405 470.014
c1.28906 -22.9072 -9.59668 -88.1592 -3.19336 -91.584c6.28711 -67.5898 71.7256 -130.74 71.8086 -128.305l-11.0879 -7.3916c-24.9473 27.2109 -52.7822 54.1396 -73.9951 127.872c-4.72168 -32.4658 -25 -68.8281 -43.2217 -91.9688
c-11.0869 -14.0791 -15.8398 -25.3428 -25.3438 -35.9033l-12.6719 10.0312c14.2559 18.4805 22.2578 30.3916 31.6807 42.7686c48.1064 63.1924 50.1191 146.163 49.7461 190.117l13.4297 -0.295898c2.51855 -0.0546875 2.62109 -2.50195 2.66406 -3.54785
c0.00585938 -0.118164 -0.164062 -5.61816 0.18457 -11.793zM354.437 483.063l-93.3135 -105.29l12.2266 -9.74316l79.4883 92.3584c6.60254 -10.9482 16.0254 -23.8916 19.1621 -32.3887l22.3057 31.8057z" />
  </g>

</svg>
