<?xml version="1.0" standalone="no"?>
<!DOCTYPE svg PUBLIC "-//W3C//DTD SVG 1.1//EN" "http://www.w3.org/Graphics/SVG/1.1/DTD/svg11.dtd" >
<svg xmlns="http://www.w3.org/2000/svg" xmlns:xlink="http://www.w3.org/1999/xlink" version="1.1" viewBox="-10 0 1036 1000">
  <g transform="matrix(1 0 0 -1 0 800)">
   <path fill="currentColor"
d="M337.068 9.59473c-1.99609 -10.2793 -9.62305 -16.1387 -17.8242 -16.6367c-17.4736 -1.0625 -33.1074 18.6279 -16.6133 34.9082c2.05371 2.02734 4.57812 4.05859 7.87109 5.08496c2.69629 2.15039 14.8457 16.1016 35.3125 40.1309
c-24.6211 16.4688 -25.627 23.21 -25.8721 27.2578c-0.573242 9.41797 9.86621 21.3984 19.8193 22.0039c7.0293 0.425781 13.457 -4.90234 13.3281 -16.1973c0.128906 -2.13672 6.25 -11.6934 10.8555 -9.12012c173.746 192.573 173.746 192.573 174.318 193.104
c0.364258 0.338867 31.3486 27.5586 41.1074 28.1514c4.63086 0.28125 8.27344 -3.27344 8.52344 -7.38574c0.216797 -3.57129 -1.21582 -6.52148 -16.6035 -36.8047l-0.208984 -0.235352c-143.262 -163.548 -177.52 -202.658 -177.408 -204.492
c0.0429688 -0.699219 0.428711 -2.25098 3.96387 -5.47754c6.89746 -6.29492 10.3135 -1.02734 17.791 -4.27832c6.2207 -2.7041 11.5557 -12.5439 2.05957 -23.957c-1.89648 -2.2793 -7.67188 -8.7002 -16.1465 -8.79102
c-2.45508 -0.0273438 -9.1875 0.0878906 -28.7686 22.5078c-11.7744 -14.2695 -15.8096 -18.9854 -27.7246 -30.1543c-6.25488 -5.86133 -7.30176 -7.14453 -7.78027 -9.61914zM324.1 21.1533c-6.17578 -6.16016 -11.5527 -2.79492 -11.2656 -7.5293
c0.138672 -2.26953 2.07812 -4.45703 4.50781 -4.30957c4.50195 0.273438 1.60254 4.29492 6.75781 11.8389zM401.813 43.9854c-0.0644531 0.00878906 -0.30957 0.177734 -0.374023 0.186523c0.138672 -0.0771484 0.263672 -0.139648 0.374023 -0.186523zM364.971 79.9141
c0.810547 -1.32227 2.22656 -4.52051 -0.120117 -8.93164c-3.83887 -7.21875 -26.3779 -29.7002 -37.5361 -45.8516c5.92383 6.42871 15.4648 13.4268 28.6201 29.7617c9.93457 12.3359 12.2725 15.2402 16.5264 15.498
c1.6377 0.0996094 3.04102 -0.353516 4.33789 -1.18164c-0.0957031 2.52148 0.418945 5.24805 2.0332 7.77734c3.28906 5.15234 5.41406 8.43262 110.4 128.221c0.683594 0.771484 55.8945 63.1309 67.0234 78.3457c-16.0352 -13.9609 -38.1543 -38.793 -98.2744 -106.674
c-35.0674 -39.5918 -47.2959 -53.1719 -69.7236 -77.9414c-8.4209 -9.30078 -12.7324 -14.2344 -15.8008 -16.2227c-1.57324 -1.02051 -4.12988 -2.33008 -7.48633 -2.80078zM336.85 101.57c-0.0390625 -0.0644531 -0.0722656 -0.123047 -0.100586 -0.173828
c-0.00390625 0.015625 0.105469 0.158203 0.100586 0.173828zM661.615 45.0361c10.1797 -2.45898 15.6855 -10.3438 15.8125 -18.5586c0.269531 -17.5049 -20.1084 -32.2305 -35.625 -15.0156c-1.93164 2.14258 -3.84766 4.75684 -4.72266 8.09375
c-2.02637 2.79102 -15.4121 15.5586 -38.4902 37.0947c-17.5674 -23.8506 -24.3477 -24.5498 -28.4014 -24.6123c-9.43555 -0.144531 -20.9307 10.8262 -21.083 20.7959c-0.109375 7.04199 5.50586 13.2227 16.7832 12.5801
c2.14062 0.0332031 11.9648 5.71484 9.60254 10.4316c-184.505 182.292 -184.505 182.292 -185.01 182.887c-0.321289 0.380859 -26.1104 32.5654 -26.2607 42.3418c-0.0703125 4.63867 3.64551 8.11719 7.76562 8.17969
c3.57617 0.0546875 6.45898 -1.50977 36.0137 -18.2539l2.22656 -0.21875c156.89 -150.523 194.408 -186.519 196.245 -186.49c0.700195 0.0107422 0.268555 0.326172 3.65137 3.71191c6.60059 6.60449 1.49414 10.2568 5.08008 17.5791
c2.9834 6.0918 13.0547 10.9766 24.0264 0.970703c2.19043 -1.99609 8.34277 -8.05664 8.0498 -16.5264c-0.0839844 -2.4541 -0.503906 -9.1748 -23.7881 -27.7197c13.7207 -12.4082 18.249 -16.6533 28.8662 -29.0625c5.57422 -6.51367 6.80762 -7.61719 9.25781 -8.20801z
M649.481 32.6045c5.87402 -6.44824 2.26855 -11.668 7.01074 -11.5957c2.27344 0.0351562 4.54688 1.875 4.50977 4.30859c-0.0693359 4.50879 -4.21875 1.79492 -11.5205 7.28711zM630.193 111.272c-0.0117188 -0.0634766 -0.191406 -0.300781 -0.203125 -0.364258
c0.0830078 0.134766 0.151367 0.256836 0.203125 0.364258zM592.633 76.0957c1.35742 0.75 4.61621 2.01855 8.91602 -0.525391c7.03711 -4.16211 28.4756 -27.6953 44.1055 -39.5752c-6.1543 6.20898 -12.7129 16.0576 -28.4355 29.9404
c-11.873 10.4824 -14.668 12.9492 -14.7334 17.2109c-0.0253906 1.64062 0.491211 3.02148 1.37598 4.2793c-2.52148 0.0195312 -5.22266 0.65625 -7.67578 2.38477c-4.99805 3.51855 -8.17969 5.79102 -123.088 116.095
c-0.740234 0.717773 -60.5352 58.6973 -75.2305 70.5039c13.2207 -16.6514 37.0254 -39.8721 102.113 -103.007c37.9629 -36.8242 50.9746 -49.6562 74.7031 -73.1816c8.90918 -8.83398 13.6426 -13.3652 15.4902 -16.5195
c0.947266 -1.61816 2.14062 -4.23145 2.45898 -7.60547zM569.725 48.9854c0.0625 -0.0429688 0.119141 -0.0791016 0.169922 -0.109375c-0.015625 -0.00390625 -0.154297 0.112305 -0.169922 0.109375zM244.239 397.999h470.085l76.2649 244.016l-176.887 -77.5506
l-144.04 180.394l-144.482 -180.398l-176.94 78.007zM279.404 420.771l-75.7449 175.406l142.112 -62.9502l126.101 159.922l121.121 -167.079l137.064 61.4266l-70.8133 -168.198z" />
  </g>

</svg>
