<?xml version="1.0" standalone="no"?>
<!DOCTYPE svg PUBLIC "-//W3C//DTD SVG 1.1//EN" "http://www.w3.org/Graphics/SVG/1.1/DTD/svg11.dtd" >
<svg xmlns="http://www.w3.org/2000/svg" xmlns:xlink="http://www.w3.org/1999/xlink" version="1.1" viewBox="-10 0 1000 1000">
  <g transform="matrix(1 0 0 -1 0 800)">
   <path fill="currentColor"
d="M882.132 360.092c16.276 0 23.349 1.34346 31.8313 9.82572c0.984417 0.984417 13.7708 14.1474 13.7708 33.6967c0 11.5888 -4.99315 31.2054 -15.4577 72.3175c-28.3146 116.288 -34.8449 143.108 -54.3735 185.891c-32.74 70.1777 -74.643 74.2675 -96.4385 74.2675
c-77.1574 0 -106.487 -89.909 -130.667 -186.236c-20.6218 -84.8956 -20.6218 -84.8956 -28.0593 -112.784c-2.387 -9.80719 -5.7013 -23.4243 -5.7013 -32.7755c0 -15.1209 8.63674 -41.2816 32.4672 -43.5651c3.86691 -0.324428 7.69835 -0.567292 11.5169 -0.729775
l239.379 0.104483c0.577364 -0.00823859 1.15469 -0.0123585 1.73195 -0.0123585zM151.346 402.17l-0.104104 -0.364242l1.45927 -0.350837zM167.909 268.23l0.195358 -13.5979c0.425984 0.53579 0.740816 0.970408 1.10127 1.52648zM153.372 410.193l1.11243 -0.88998
l0.192555 0.562648zM652.228 471.174c0 1.03116 13.4338 10.2834 13.6043 10.2834c0.390015 0 0.390015 0 60.1536 -54.8925l106.801 135.281c0.194213 0.246003 0.487434 0.380188 0.786729 0.380188c0.299607 0 17.4778 -7.9132 17.6432 -8.01412
c0.30867 -0.188311 0.479134 -0.51757 0.479134 -0.854684c0 -0.343882 0 -0.343882 -119.893 -153.264c-0.213341 -0.25363 -0.506762 -0.381664 -0.797729 -0.381664c-0.420332 0 -77.8105 70.0072 -78.5193 70.7916
c-0.172822 0.19127 -0.257977 0.431245 -0.257977 0.670445zM946.672 404.191c0 -31.2336 -19.9752 -67.0933 -55.6302 -67.0933c-0.291341 0 -0.583566 0.00225857 -0.876672 0.0067763c-0.0361946 -9.2379e-05 -15.3963 -0.315636 -15.3963 -0.315636
c-38.9603 0.136713 -77.9217 0.205069 -116.883 0.205069c-38.9623 0 -77.9246 -0.0683589 -116.919 -0.204548c-15.6742 0.506973 -28.9805 0.937359 -43.5491 16.1852c-12.8764 14.2648 -19.3032 31.4412 -19.3032 51.3681c0 9.13741 0.366906 18.4043 14.6225 70.6043
c0.00702939 0.0272422 18.481 76.0267 18.481 76.0267c23.841 95.4255 55.2991 208.296 151.189 208.296c89.278 0 123.526 -95.6976 149.962 -202.215c8.55387 -35.5552 17.291 -71.0536 26.2081 -106.471c3.65524 -15.2212 8.09557 -33.7117 8.09557 -46.3929z
M219.634 597.232c10.6183 0 1.04872 0.665921 5.61537 0.665921c0.376005 0 0.888863 -0.14007 1.36821 -0.548563c33.8637 2.79905 55.8074 3.11968 57.8237 3.11968c0.100996 0 0.138534 -0.00346469 0.138534 -0.00346469c50.3066 0 108.678 -9.54693 171.944 -53.6759
c20.5631 -13.2176 23.6353 -15.1923 23.6353 -20.1635c0 -0.197934 -0.0117478 -0.3968 -0.0360671 -0.595478c3.2748 -8.42811 15.6031 -195.854 67.4525 -208.821c4.48481 -1.12186 4.85242 -1.21382 4.85242 -2.54718
c0 -0.0953598 -0.00682841 -0.172765 -0.00682841 -0.22558c0 -1.68108 0 -1.68108 -8.14773 -2.99712c-0.174622 -0.0282052 -9.87182 -1.62641 -10.8309 -1.62641c-0.639243 0 -9.05186 1.54662 -18.2306 10.7254c-30.5469 30.5469 -43.0451 115.05 -51.9789 188.348
c-1.33716 -1.10165 -2.75126 -2.12114 -4.20864 -3.05447c4.06044 -20.0723 6.20446 -41.7206 8.34303 -63.2925c5.85192 -59.0286 11.99 -119.19 57.6081 -137.254c2.8462 -1.12705 4.32917 -1.71428 4.32917 -3.29396c0 -1.10706 -0.896338 -2.00115 -2.00036 -2.00115
c0 1.919e-06 -2.79106 0.00385672 -2.79106 0.00385672c-0.00245205 0 -8.35353 -0.00879676 -8.35353 -0.00879676c-2.61306 0 -4.28749 -0.00776712 -5.39118 -0.00776712c-5.05789 0 -17.7954 4.93409 -27.9557 15.0944
c-38.7551 38.7551 -29.2552 131.88 -45.3445 197.603c-35.6096 25.671 -95.4647 41.6539 -162.019 41.6539c-17.4807 0 -34.3768 -1.07269 -51.5601 -3.16554c-0.0422476 0 -0.0839791 0.0033212 -0.125033 0.0033212
c-16.9383 -0.0992919 -29.605 -6.21867 -39.255 -15.8687c-25.5515 -25.5515 -29.594 -76.4433 -29.594 -104.917c0 -12.8819 0.762079 -20.2123 0.762079 -20.5172c0 -0.38921 -0.818959 -6.39254 -1.54384 -8.51438c0 -0.828182 -0.998317 -0.818069 -4.52555 -6.27809
c-17.7201 -27.4301 -53.2447 -47.1303 -53.2447 -76.4159c0 -2.78305 0 -2.78305 0.69232 -3.33344c17.2019 -13.6754 54.8622 -24.5186 70.4642 -38.838c0.239115 -0.24598 0.828151 -0.839958 2.02927 -2.04108c0.743757 -0.743757 5.01263 -5.27263 5.01263 -11.2411
c0 -2.52686 -0.730637 -5.12571 -2.26415 -7.74894c0.35543 -3.29985 0.358104 -3.21248 0.358104 -3.44201c0 -1.34221 -1.50443 -2.30744 -2.75186 -2.30744c-0.339928 0 -0.557507 0.0633724 -0.568454 0.0633724
c-0.0534532 0 -0.107137 0.00710944 -0.160921 0.00710944c2.06239 -143.49 2.20894 -143.92 2.21064 -143.92c0.792856 -1.0249 1.09447 -1.45175 1.09447 -2.09781c0 -0.553464 -0.224947 -1.05287 -0.62521 -1.4521
c0.0667568 -0.194247 0.107659 -0.411355 0.107659 -0.64805c0 -0.424626 -0.230701 -1.07646 -1.01346 -1.85861c0 -0.115693 0.00326372 -0.231484 0.00326372 -0.347371c0 -7.421 -4.46599 -15.8828 -4.46599 -24.9747c0 -10.9325 5.71687 -13.7702 8.15799 -20.7408
c0.620534 -1.77114 0.620534 -1.77114 25.9307 -8.04465c13.8859 -1.1648 31.6599 -1.87338 51.3528 -1.87338c70.8016 0 166.144 9.3321 195.529 38.7165c11.386 11.3895 41.3103 55.7994 61.7605 70.1479v0.234996c0 1.10497 0.896629 2.00052 1.99962 2.00052
c0.960053 0 3.07206 -0.998521 3.07206 -2.59368c0 -1.06005 -0.716997 -1.53965 -1.07316 -1.77789c0 -14.958 -0.000278065 -29.9161 -0.000278065 -44.8741c0.234131 -0.327166 0.372453 -0.728376 0.372453 -1.16263c0 -2.59448 -5.18177 -2.2977 -15.1946 -12.3105
c-0.271613 -0.271613 -18.0295 -21.3857 -26.2577 -28.0358c-26.5774 -21.4798 -65.76 -51.5281 -129.242 -51.5281c-0.215055 0 -14.2888 0.171963 -20.2481 0.171963c-0.550708 0 -25.4079 -0.619538 -55.0673 -0.619538c-51.902 0 -114.196 1.61266 -126.242 13.6594
c-17.0575 17.0575 -19.8932 42.8481 -19.8932 63.5417c0 5.65476 6.94207 5.64201 6.94207 171.948c-61.9261 33.6856 -61.9261 33.6856 -62.0475 33.8272c-8.34194 9.73255 -8.4615 9.53803 -8.63755 10.4937c-0.91622 4.97383 -1.63629 9.03775 -1.63629 13.152
c0 30.506 40.6011 56.3109 61.1093 90.18c-0.00585329 0.220606 -0.0129013 0.482955 -0.0129013 0.482955c0.0520837 1.18567 0.0734699 3.28551 0.0734699 5.80571c0 3.42025 -0.335971 31.7582 -0.335971 32.079c0 41.9766 5.07732 99.4443 31.6885 126.057
c21.0499 21.049 51.3419 23.8179 71.0486 23.8179zM168.233 275.814c-0.0512629 0.0500377 -1.24328 1.21735 -0.712756 0.671593c0.242989 -0.223013 0.480627 -0.44687 0.712756 -0.671593zM168.233 275.814l0.00164663 -0.00159672z" />
  </g>

</svg>
