<?xml version="1.0" standalone="no"?>
<!DOCTYPE svg PUBLIC "-//W3C//DTD SVG 1.1//EN" "http://www.w3.org/Graphics/SVG/1.1/DTD/svg11.dtd" >
<svg xmlns="http://www.w3.org/2000/svg" xmlns:xlink="http://www.w3.org/1999/xlink" version="1.1" viewBox="-10 0 943 1000">
  <g transform="matrix(1 0 0 -1 0 800)">
   <path fill="currentColor"
d="M828.399 483.872c0 9.49878 0.360099 25.4826 0.360099 28.905l-0.318652 61.3747l-8.69455 54.78l-24.0577 41.7601l-29.8355 19.1251l-33.9409 8.02542l-47.9505 1.85133v0.765382l-107.704 8.96128l-161.614 -4.8437l-135.511 -48.0118l4.97421 -24.8711
l90.1513 34.2037l168.519 13.9909l163.859 -8.05849l72.0585 -32.0852l24.6852 -76.5829c-11.2968 -92.7231 -11.5388 -94.7093 -10.6225 -98.1968c0.272553 -1.03738 0.408327 -1.98777 0.495372 -2.92219c0.487753 -0.641757 1.13403 -1.58506 1.4862 -2.05622
l30.4464 -40.7334l38.0432 -60.0682l23.93 -33.502l-96.7113 -80.2498l-3.19974 -219.288c0.962733 -7.56244 2.78458 -22.0112 5.01798 -45.877c-0.12894 -0.269919 -9.65147 -20.9678 -12.8349 -27.02c-1.80565 -3.43278 -3.36365 -6.39475 -8.94453 -11.1259
c-28.726 -6.87192 -37.6748 -9.01268 -53.7943 -9.01268c-3.38415 0 -6.77838 0.14333 -10.1737 0.446144l-127.95 -3.2205l-189.706 31.9736l-119.91 72.0259l-21.8729 31.5454c-0.18608 0.126152 -14.9542 10.3475 -18.5829 12.6523v-31.4635
c5.41685 -3.87145 13.5068 -7.36272 24.4398 -17.2503c7.32645 -6.62591 2.09556 -4.45645 10.6241 -11.9264c1.03002 -0.902171 1.03002 -0.902171 17.2005 -21.8062l70.2643 -41.1391l123.979 -35.7692l40.8353 -3.74581
c52.8258 -4.90757 59.0669 -6.73248 83.0467 -7.42728l68.08 -1.97257l89.7606 0.254271l51.1066 12.4914l15.1376 25.2075l6.27671 34.16l-0.268638 82.9487l0.0291888 84.2282l-0.00582149 87.5189l84.7837 67.8016l7.68593 8.96692l1.11464 7.19504
c0.44913 7.61262 -1.52476 12.8022 -3.31214 18.1783l-23.3304 38.8443l-33.0243 43.448l-34.3179 48.9016c-0.202711 16.1296 -0.202711 16.1296 -0.202711 17.6951zM33.2949 712.521h55.5146l17.1611 52.2256l17.1602 -52.2256h55.5156l-44.8672 -32.2959
l17.1611 -52.2246l-44.9697 32.2959l-44.9707 -32.2959l17.1611 52.2246zM334.058 271.827c0 -0.132812 -0.00292969 -0.220703 -0.0078125 -0.353516c0 0 2.99707 -0.109375 2.99805 -0.0751953c0.00390625 0.0957031 0.00976563 0.241211 0.00976563 0.428711h-3z
M291.804 414.777l-2.0459 -1.72363l2.08594 0.0498047zM183.673 276.418c0 0.262695 0.0253906 0.413086 0.0458984 0.533203l-2.95312 0.522461c-0.0361328 -0.202148 -0.0917969 -0.578125 -0.0917969 -1.05566h2.99902zM258.376 427.873
c-28.1367 0 -44.2393 -25.8213 -58.9678 -86.5293c-9.83887 -40.5088 -9.84766 -40.5439 -13.4268 -53.9678c-1.54395 -6.31543 -2.58203 -10.6377 -2.58203 -15.1338c0 -4.57812 1.13477 -8.83887 4.6582 -12.6309l0.000976562 0.000976563l0.0830078 -0.0888672
l-0.000976562 -0.000976562c0.137695 -0.147461 0.279297 -0.292969 0.424805 -0.438477c3.3916 -3.39258 4.98438 -3.38672 11.915 -3.69141c119.295 0.0458984 119.295 0.0458984 122.835 0.515625c4.63281 0.577148 10.7041 7.49902 10.7041 16.8457
c0 1.57422 -0.165039 3.24609 -0.537109 5.01172c-0.230469 1.16211 -14.7695 64.6523 -23.2666 92.3594c-15.5918 50.2803 -34.7969 57.748 -51.8398 57.748zM320.417 236.361c0 0 -0.362305 0.000976563 -0.410156 0.00195312
c-6.2998 -0.128906 -61.1719 -0.163086 -94.4004 -0.163086l-25.3018 0.015625c-6.90723 0.222656 -15.2412 0.520508 -22.7051 7.9834c-11.2148 11.2148 -11.4736 26.8027 -11.4736 28.627c0 4.66406 0.762695 10.9004 7.26367 34.7178
c15.7363 64.7373 19.1758 77.7705 29.5098 98.9473c8.24414 16.8662 25.1934 40.5859 55.3184 40.5859c45.3379 0 63.2119 -45.3633 76.3975 -100.172c0.537109 -2.23242 1.0752 -4.46289 1.61523 -6.69336l177.562 1.77637c9.35352 37.5332 13.2051 49.29 21.5068 66.3027
c8.24414 16.8662 25.1934 40.5859 55.3184 40.5859c45.3379 0 62.8184 -45.46 76.3975 -100.172c4.10254 -17.0527 8.28418 -34.04 12.5811 -51.1094c2.03125 -8.45898 3.88867 -16.3115 3.88867 -24.0176c0 -17.8604 -12.2168 -35.417 -30.668 -35.417
c0 0 -0.361328 0.000976563 -0.410156 0.00195313c-6.29883 -0.128906 -61.1709 -0.163086 -94.3994 -0.163086l-25.3027 0.015625c-6.90625 0.222656 -15.2412 0.520508 -22.7041 7.98438c-11.2148 11.2139 -11.4736 26.8018 -11.4736 28.626
c0 4.66406 0.762695 10.9004 7.26367 34.7178c1.49023 6.12891 2.86914 11.7939 4.15527 17.0469l-170.062 -1.17285c2.40332 -9.79883 4.83887 -19.5967 7.3125 -29.4219c2.03027 -8.45898 3.8877 -16.3115 3.8877 -24.0176c0 -17.8604 -12.2168 -35.417 -30.667 -35.417z
M666.458 273.627c0 -0.132812 -0.00390625 -0.220703 -0.00878906 -0.353516c0 0 2.99805 -0.109375 2.99902 -0.0751953c0.00390625 0.0957031 0.00878906 0.242188 0.00878906 0.428711h-2.99902zM516.073 278.218c0 0.262695 0.0244141 0.413086 0.0449219 0.530273
c0 0.00292969 -2.95312 0.525391 -2.95312 0.525391c-0.0361328 -0.202148 -0.0917969 -0.578125 -0.0917969 -1.05566h3zM590.776 429.673c-28.1367 0 -44.2402 -25.8213 -58.9678 -86.5293c-9.83887 -40.5088 -9.84766 -40.5439 -13.4277 -53.9678
c-1.54297 -6.31543 -2.58203 -10.6367 -2.58203 -15.1338c0 -4.60449 1.14844 -8.8877 4.71875 -12.6963c0.00878906 -0.00585938 0.0166016 -0.0136719 0.0244141 -0.0224609l-0.00195313 -0.00195313c0.137695 -0.146484 0.279297 -0.291992 0.424805 -0.4375
c3.39258 -3.3916 4.98438 -3.38672 11.916 -3.69043c119.295 0.0449219 119.295 0.0449219 122.835 0.514648c4.63184 0.577148 10.7041 7.49902 10.7041 16.8457c0 1.57422 -0.165039 3.24609 -0.537109 5.01172c-0.230469 1.16309 -14.7695 64.6533 -23.2676 92.3594
c-15.5918 50.2803 -34.7959 57.748 -51.8389 57.748z" />
  </g>

</svg>
