<?xml version="1.0" standalone="no"?>
<!DOCTYPE svg PUBLIC "-//W3C//DTD SVG 1.1//EN" "http://www.w3.org/Graphics/SVG/1.1/DTD/svg11.dtd" >
<svg xmlns="http://www.w3.org/2000/svg" xmlns:xlink="http://www.w3.org/1999/xlink" version="1.1" viewBox="-10 0 1107 1000">
  <g transform="matrix(1 0 0 -1 0 800)">
   <path fill="currentColor"
d="M838.372 378.15h12.2871c0.301758 -8.46777 0.604492 -16.9346 0.907227 -25.4023c46.8066 1.63867 89.1221 21.3535 120.142 52.373c11.2744 11.2744 21.0586 24.0439 29.0225 37.9805l-19.6582 10.4326l-2.41895 -3.83008l-120.562 56.8848
c-3.93359 -2.15527 -8.44824 -3.38086 -13.249 -3.38086c-15.2529 0 -27.6152 12.3643 -27.6152 27.6162c0 11.6553 7.2207 21.624 17.4326 25.6758v128.775h2.83594v23.5303c-24.0977 -1.13379 -92.7168 -10.4414 -138.62 -77.4775
c6.9043 -3.9873 13.8096 -7.97363 20.7139 -11.96l-7.08691 -12.2754c-7.05762 4.0752 -14.1133 8.14746 -21.1689 12.2227c-14.9639 -26.082 -23.5195 -56.293 -23.5195 -88.4951c0 -31.4062 8.18945 -60.96 22.5518 -86.6338
c7.2998 4.21387 14.5986 8.42871 21.8975 12.6436l7.08887 -12.2764c-7.19238 -4.15332 -14.3857 -8.30566 -21.5781 -12.459c30.8467 -46.1348 82.5947 -77.1309 141.505 -79.335c-0.303711 8.46387 -0.604492 16.9277 -0.907227 25.3906zM1040.83 530.822
c0 -107.542 -87.2822 -194.822 -194.828 -194.822c-107.545 0 -194.827 87.2803 -194.827 194.827c0 106.912 86.7627 194.182 193.667 194.822h0.389648c107.561 0 195.17 -87.2891 195.599 -194.827zM851.67 708.916v-23.6406h1.85645l4.65332 -130.265
c7.5498 -4.17285 12.9385 -11.7783 14.0605 -20.71l118.735 -65.085l-3.32715 -5.26953l18.8037 -9.97949c11.2559 23.2773 17.6162 49.3447 17.7344 76.8643c0 33.2393 -9.11719 64.3535 -24.9863 90.9951c-6.87012 -4.2998 -13.7412 -8.60156 -20.6113 -12.9023
l-6.14551 10.6416c6.7041 4.19531 13.4082 8.39258 20.1123 12.5889c-13.75 19.8379 -58.7783 74.1904 -140.886 76.7617zM451.908 664.299c0 14.6871 -1.05167 18.8794 -1.05167 40.5171c0 5.92332 0.0992539 10.2147 0.120291 11.1229
c-0.0397642 6.3609 -2.63601 6.4174 -3.66146 6.43972l-37.924 0.834922c0.0432842 -6.18097 0.0652656 -11.5888 0.0652656 -18.0495c0 -145.756 -13.3018 -396.037 -160.672 -589.621c-1.02158 -1.3419 -75.6833 -103.402 -100.356 -135.543h-101.429v-35.002h767.002
v35.002h-154.535c-60.9652 59.0098 -200.562 225.892 -217.919 401.848c-1.82497 1.84418 -6.71851 6.78922 -6.71851 39.3358c0 58.0492 17.0791 181.588 17.0791 243.115zM619.414 -19.999h-417.456c11.5708 17.5524 11.5708 17.5524 19.2795 29.715
c10.9303 17.2457 22.7661 35.9244 39.9536 57.7513c56.003 71.1237 118.209 181.837 135.877 281.853l5.53748 31.347l9.03533 -30.5219c57.0727 -192.795 128.166 -282.446 196.394 -357.608z" />
  </g>

</svg>
