<?xml version="1.0" standalone="no"?>
<!DOCTYPE svg PUBLIC "-//W3C//DTD SVG 1.1//EN" "http://www.w3.org/Graphics/SVG/1.1/DTD/svg11.dtd" >
<svg xmlns="http://www.w3.org/2000/svg" xmlns:xlink="http://www.w3.org/1999/xlink" version="1.1" viewBox="-10 0 703 1000">
  <g transform="matrix(1 0 0 -1 0 800)">
   <path fill="currentColor"
d="M243.194 736.667c0 7.13379 -0.133789 12.4268 -0.133789 12.5518c0.138672 2.70605 0.835938 5.04102 1.08203 5.29297c0 0.220703 0 0.220703 42.3896 1.15527c-0.0400391 -6.19336 -0.0634766 -12.585 -0.0634766 -19.1641
c0 -165.462 15.2451 -449.283 182.542 -669.04c23.001 -30.2139 70.2148 -96.9365 110.716 -149.694l-34.667 -27.4463c-30.6201 36.3408 -45.9082 78.1846 -87.4932 125.202c-73.5586 83.166 -145.334 214.461 -155.325 330.114l-3.6875 42.6865l-11.0283 -39.3975
c-25.582 -96.0342 -79.0322 -119.594 -118.341 -136.845c-26.2725 -11.5303 -47.3838 -22.7949 -47.3838 -49.6992c0 -22.9365 5.35742 -40.5342 128.679 -189.212c3.49902 -4.21973 6.40723 -7.72852 8.49707 -10.2695l-18.6318 -22.584
c-25.5137 38.082 -155.045 123.274 -155.045 212.064c0 81.1562 117.257 82.5082 169.7 213.617c2 5 6.39844 12.6357 6.39844 47.0518c0 68.9912 -19.3906 207.429 -19.3906 278.031c0 16.2852 1.18652 21.1035 1.18652 45.584zM243.059 749.334
c0 -0.0244141 0.00195312 -0.0634766 0.00195312 -0.115234c0.00195312 0.0615234 -0.00195312 0.115234 -0.00195312 0.115234zM286.532 755.667zM579.727 -82.2314l5.80664 4.59668l-1.29395 -10.4609c-1.52344 1.97461 -3.02734 3.92969 -4.5127 5.86426z
M545.06 -109.678c1.50195 -1.7832 3.04102 -3.55273 4.62305 -5.31055l-10.2285 0.873047zM258.977 -37.0977zM241.982 698.976z" />
  </g>

</svg>
