<?xml version="1.0" standalone="no"?>
<!DOCTYPE svg PUBLIC "-//W3C//DTD SVG 1.1//EN" "http://www.w3.org/Graphics/SVG/1.1/DTD/svg11.dtd" >
<svg xmlns="http://www.w3.org/2000/svg" xmlns:xlink="http://www.w3.org/1999/xlink" version="1.1" viewBox="-10 0 1093 1000">
  <g transform="matrix(1 0 0 -1 0 800)">
   <path fill="currentColor"
d="M142.835 -95.7744c-2.77299 0 -5.0053 2.24801 -5.0053 4.99283c0 0 0.00627729 740.564 0.0066475 740.625c0.033019 2.73835 2.26655 4.93875 4.99755 4.93875h191.659c2.75455 0 4.99278 -2.23433 4.9989 -4.98883l0.484253 -217.847l366.145 -1.89712
l2.60778 219.793c0.0324464 2.73469 2.26296 4.93926 4.99867 4.93926h191.888c2.74833 0 4.99345 -2.23018 4.99345 -5.00344l0.00556983 -740.553c0 -2.7912 -2.27173 -5.00446 -4.9948 -5.00446zM105.059 707.002v-854.999h838.333v854.999h-267.494l0.102727 -213.965
c0 -2.74439 -2.218 -4.97879 -4.96246 -4.99854c0 0 -287.867 -2.07006 -287.903 -2.07019c-2.70248 0 -4.92244 2.15626 -4.99588 4.8614l-5.86895 216.173h-267.211z" />
  </g>

</svg>
