<?xml version="1.0" standalone="no"?>
<!DOCTYPE svg PUBLIC "-//W3C//DTD SVG 1.1//EN" "http://www.w3.org/Graphics/SVG/1.1/DTD/svg11.dtd" >
<svg xmlns="http://www.w3.org/2000/svg" xmlns:xlink="http://www.w3.org/1999/xlink" version="1.1" viewBox="-10 0 952 1000">
  <g transform="matrix(1 0 0 -1 0 800)">
   <path fill="currentColor"
d="M677.643 560.048zM676.643 487.048zM580.636 496.048v0h97.0068v60.0469l-94.4561 -0.670898zM784.005 496.048l-3.1875 60.7803l-91.1748 -0.648438v-60.1318h94.3623zM786 458l-207.038 -0.919922l-59.6182 -481.288l334.708 6.12695zM874.869 574.072
l1.66992 -1.50879l-1.66992 -0.742188v2.25098v0zM494.869 575.995v-2.17383l-1.65039 0.759766zM918.15 -66.7998zM474.643 -72.9521l-0.0283203 -1.03906l-1.01074 1.02734zM831.687 607.591l-0.0429688 0.958984l1.00391 -0.955078
c-0.320312 0 -0.640625 -0.00390625 -0.960938 -0.00390625v0zM532.344 606.208l299.343 1.38281l72.9561 -674.543l-430 -6zM532.344 606.208c-0.322266 0 -0.645508 -0.00488281 -0.967773 -0.00488281l0.994141 0.972656zM689.869 775.647v-0.000976563v-0.420898
v0.420898l1.48535 0.833008v0l1.28809 -1.07227v0s-0.000976563 -0.0390625 -0.000976563 -0.0898438l183.229 -165.496v-38l-185.669 167.701l-196.331 -165.68v35.9834l196 165.398v0.344727v0.0771484zM167.861 433.399zM167.617 430.52zM343.703 400.538
c0 -22.333 -7.27832 -44.1152 -26.2051 -63.041c-8.47461 -8.47559 -15.6172 -14.3604 -22.1768 -18.4199c38.5898 6.87695 88.8467 24.7354 121.728 81.8174c-7.1416 12.3721 -15.7402 23.5947 -25.8652 33.7197c-22.1807 22.1816 -53.1631 40.3955 -94.1484 47.9453
c-0.512695 0.09375 -0.333008 -0.623047 -1.97656 -0.132812c-1.08887 0.325195 -4.3252 1.29297 -8.96094 2.09375c9.96973 -3.92578 20.582 -10.3828 31.0195 -20.8203c18.4746 -18.4746 26.5859 -39.8545 26.5859 -63.1621zM251.88 335.749
c25.1143 0 39.6289 12.0527 47.4326 19.8545c16.4512 16.4521 18.7891 33.7646 18.7891 45.1904c-0.0566406 16.3691 -5.57422 31.5176 -18.7852 44.7266c-26.8135 26.8145 -58.7686 20.7676 -73.2334 14.5186c-0.137695 0 -20.3564 -13.3398 -20.5625 -13.4756
c-5.26953 -7.66895 -10.4482 -15.4297 -15.6826 -23.1338l-0.0527344 0.0195312c-8.48828 -23.499 -4.38477 -49.1064 14.8018 -68.2949c13.2373 -13.2363 29.0459 -19.4053 47.293 -19.4053zM256 288v-0.000976562c-23.9883 0 -103.428 1.14648 -167.495 65.2139
c-14.2861 14.2861 -25.5625 29.7334 -35.6533 47.6816c-0.0351562 0.0605469 -0.0683594 0.12207 -0.102539 0.18457l0.102539 -0.18457c11.4297 20.3291 23.1133 35.2627 36.6523 48.8018c31.0566 31.0566 83.4229 64.3574 166.496 64.3574
c21.4004 0 102.375 -0.376953 166.445 -64.4473c14.6143 -14.6152 26.0908 -30.4062 36.2568 -48.7109c0.0341797 -0.0605469 0.0673828 -0.121094 0.100586 -0.180664l-0.100586 0.180664c-5.43164 -9.78516 -16.4678 -28.7109 -35.5693 -47.8125
c-63.5029 -63.5029 -141.854 -65.083 -167.133 -65.083zM215.126 482.748c-66.8252 -12.1504 -101.182 -48.1729 -120.615 -81.8525c8.30371 -14.3291 17.6768 -25.415 25.8828 -33.6221c19.2881 -19.2881 48.1025 -38.5518 89.9287 -47.1211
c-7.94336 3.89648 -16.2148 9.44336 -24.1299 17.3584c-30.5215 30.5215 -30.0664 68.9521 -20.3174 94.4492c0.148438 0.222656 0.0849609 0.365234 -0.144531 0.445312c-0.369141 1.96387 5.34766 11.6719 6.28613 14.0625
c1.16895 2.97949 2.55762 4.4248 4.79102 6.44238c1.56348 1.40918 1.58984 1.43848 2.65332 3.21191c1.59277 2.6582 1.66406 2.81055 8.63184 9.77734c5.48145 5.48047 18.3135 13.5703 27.0332 16.8486z" />
  </g>

</svg>
