<?xml version="1.0" standalone="no"?>
<!DOCTYPE svg PUBLIC "-//W3C//DTD SVG 1.1//EN" "http://www.w3.org/Graphics/SVG/1.1/DTD/svg11.dtd" >
<svg xmlns="http://www.w3.org/2000/svg" xmlns:xlink="http://www.w3.org/1999/xlink" version="1.1" viewBox="-10 0 766 1000">
  <g transform="matrix(1 0 0 -1 0 800)">
   <path fill="currentColor"
d="M113.616 166.464c0 -71.532 25.6235 -138.517 75.6064 -188.652c41.1697 -41.0091 121.621 -74.2342 179.733 -74.2342c13.039 0 30.8878 2.10657 53.4664 6.36883c121.769 22.982 220.615 142.155 220.615 266.119c0 21.8226 -5.0214 56.3078 -11.2481 77.2446
c-13.7441 48.5699 -62.2392 122.997 -65.8863 128.344c-17.3769 27.4305 -21.895 34.61 -29.3132 47.5373c-44.1971 77.7569 -88.443 155.465 -132.609 233.253c-9.19331 20.8152 -16.5895 33.9843 -25.3443 33.9843c-7.69939 0 -8.73268 -0.219954 -12.8787 -4.36177
c-2.87894 -2.88291 -2.87894 -2.88291 -9.11662 -14.5737c-3.74975 -7.01895 -87.6535 -159.854 -130.705 -229.171c-8.17931 -13.1608 -50.2478 -81.1062 -76.0722 -133.094c-24.318 -49.0669 -36.2478 -99.984 -36.2478 -148.766zM369.786 -70.7978
c-50.0236 0 -123.497 27.8783 -163.767 68.1471c-44.0702 44.0712 -66.7213 103.719 -66.7213 167.932c0 44.985 11.1068 92.2123 33.6712 137.998c19.8419 39.9433 43.6466 79.3484 66.6989 117.508c20.4203 33.1737 20.5635 33.4252 121.008 208.727
c4.91186 9.54782 9.82372 19.0956 14.7356 28.6435l138.587 -240.626c5.56067 -9.57698 10.5193 -17.9626 30.1408 -48.6457c18.6322 -27.2899 43.8265 -73.1466 56.2232 -102.165v-0.213347c12.6735 -32.8926 17.3799 -70.2885 17.3799 -91.5868
c0 -122.199 -106.467 -245.72 -247.956 -245.72z" />
  </g>

</svg>
