<?xml version="1.0" standalone="no"?>
<!DOCTYPE svg PUBLIC "-//W3C//DTD SVG 1.1//EN" "http://www.w3.org/Graphics/SVG/1.1/DTD/svg11.dtd" >
<svg xmlns="http://www.w3.org/2000/svg" xmlns:xlink="http://www.w3.org/1999/xlink" version="1.1" viewBox="-10 0 1075 1000">
  <g transform="matrix(1 0 0 -1 0 800)">
   <path fill="currentColor"
d="M97.1543 180.08c8.2666 -6.2002 12.2568 -10.3711 19.8047 -16.0312c11.7305 -8.79883 23.6211 -15.5635 26.8906 -17.3486c14.2051 -8.08008 41.3516 -15.8086 59.7471 -15.8086c29.5791 0 50.3203 9.6582 67.8955 22.8398
c21.8955 16.4209 32.9824 32.7422 59.4648 51.6377c12.4766 8.63184 39.335 18.3838 54.6719 18.3838c18.6221 0 33.8125 -0.326172 47.8193 -7.27441c13.9053 -6.95605 34.8037 -19.7881 46.8467 -28.751c8.21777 -6.20703 12.1064 -10.2568 19.3076 -15.6572
c8.77344 -6.58008 17.5879 -12.1338 27.7783 -17.8652c13.4717 -7.63477 40.8857 -16.1211 61.7021 -16.1211c29.4863 0 50.4062 9.76855 68.2715 23.168c22.4736 16.8545 33.9961 33.7109 61.1562 53.0215c16.125 11.1055 44.1182 18.2041 52.4902 18.5977
c18.8359 0.885742 46.877 -4.70801 62.5127 -12.4551c2.67383 -1.33691 29.585 -14.9902 54.0947 -34.1455l11.5693 8.67773c-11.3291 8.66113 -32.0293 23.4551 -57.0195 35.8721c-1.0459 0.514648 -73.1123 33.5986 -125.075 -2.73633
c-8.70508 -6.16895 -38.7832 -29.4482 -44.3047 -34.7266c-23.4619 -22.5205 -45.0205 -43.2148 -84.1113 -43.2148c-15.9609 0 -39.6826 7.01758 -51.5762 13.834c-11.9775 6.81641 -24.2637 14.8232 -39.5723 27.7744l0.105469 0.0820312
c-0.62793 0.479492 -1.25195 0.954102 -1.87402 1.42383c-1.13184 0.970703 -2.28027 1.96973 -3.44629 2.99609l-0.299805 -0.195312c-61.5674 45.5146 -93.5518 43.8447 -110.556 42.9209c-0.760742 -0.0419922 -36.4297 -5.7207 -66.3896 -28.1904
c-25.5215 -19.1416 -35.0703 -33.3184 -54.9609 -48.2363c-15.1855 -11.3887 -32.4443 -19.3955 -56.4385 -19.3955c-15.1963 0 -38.3994 6.75195 -50.1934 13.5342c-13.0029 7.38574 -26.3438 16.1758 -43.8057 31.54z" />
  </g>

</svg>
