<?xml version="1.0" standalone="no"?>
<!DOCTYPE svg PUBLIC "-//W3C//DTD SVG 1.1//EN" "http://www.w3.org/Graphics/SVG/1.1/DTD/svg11.dtd" >
<svg xmlns="http://www.w3.org/2000/svg" xmlns:xlink="http://www.w3.org/1999/xlink" version="1.1" viewBox="-10 0 998 1000">
  <g transform="matrix(1 0 0 -1 0 800)">
   <path fill="currentColor"
d="M141.392 210.573c-11.4062 0 -14.8076 -0.830078 -31.9268 -0.830078c-4.97852 0 -8.69043 0.0927734 -8.77832 0.0927734c-4.08887 -0.206055 -4.1084 -1.09961 -4.125 -1.89062l-0.639648 -29.04c4.41016 0.0283203 8.96582 0.0458984 13.6562 0.0458984
c115.809 0 314.429 -10.6738 468.189 -127.729c23.2148 -17.6729 66.2285 -47.8955 104.98 -77.6514l19.5244 24.6621c-25.4766 21.8164 -53.1338 34.0557 -87.6104 61.2031c-58.3818 45.9717 -150.493 97.1885 -231.734 109.005l-22.9521 3.33789l22.2881 6.41211
c175.764 50.5635 245.738 115.431 311.128 175.831c3.07812 2.84375 6.14648 5.67773 9.21582 8.50098l-12.3125 18.4707c-25.0049 -28.8037 -168.832 -163.115 -324.07 -178.6c-2.07324 -1.90137 -6.25391 -5.39453 -30.2246 -5.39453
c-48.2744 0 -145.174 13.5732 -194.608 13.5732zM568.325 691.145l102.142 -101.562l106.878 102.23c0.96493 0.92297 2.20983 1.38445 3.45473 1.38445c1.1658 0 2.33159 -0.404701 3.26747 -1.2141c4.0469 -3.50001 8.45336 -6.81749 12.2349 -10.599
c0.975657 -0.975657 1.46349 -2.2556 1.46349 -3.53553c0 -1.27216 -0.481915 -2.54431 -1.44574 -3.51771l-105.516 -106.563l115.134 -105.831c0.982739 -0.982739 1.44119 -2.2483 1.44119 -3.50172c0 -1.46904 -0.629745 -2.92141 -1.78325 -3.88227l-15.4658 -12.8828
c-0.923488 -0.769253 -2.06 -1.15388 -3.19652 -1.15388c-1.21473 0 -2.42945 0.439386 -3.38408 1.31816l-115.375 106.208s-104.174 -106.03 -104.205 -106.062c-0.979992 -0.979992 -2.25436 -1.45238 -3.52139 -1.45238c-1.37157 0 -2.73453 0.553554 -3.70616 1.61598
l-11.2334 12.2832c-0.87134 0.95277 -1.30701 2.16235 -1.30701 3.37193c0 1.26668 0.477778 2.53337 1.43333 3.50513l102.791 104.534l-101.032 105.096c-0.930835 0.968284 -1.38777 2.21471 -1.38777 3.45735c0 1.32534 0.519775 2.64638 1.53874 3.62106
l13.7998 13.2002c0.964939 0.923012 2.20987 1.38452 3.45479 1.38452c1.27545 0 2.5509 -0.484413 3.52526 -1.45324zM229.622 432.582l-124.75 225.834c-1.49011 2.69753 -0.0160607 5.99027 2.42846 7.02289l14.4004 6.08301
c2.34841 0.992014 5.10146 -0.0798412 6.27197 -2.09049l107.053 -183.89l97.4971 185.503c1.09885 2.09074 3.88351 3.28834 6.30767 2.30654l19.4658 -7.88379c2.4706 -1.00061 3.99198 -4.29299 2.51565 -7.01653l-122.416 -225.834
c-1.72732 -3.18657 -6.87505 -3.47306 -8.77445 -0.0345933z" />
  </g>

</svg>
