<?xml version="1.0" standalone="no"?>
<!DOCTYPE svg PUBLIC "-//W3C//DTD SVG 1.1//EN" "http://www.w3.org/Graphics/SVG/1.1/DTD/svg11.dtd" >
<svg xmlns="http://www.w3.org/2000/svg" xmlns:xlink="http://www.w3.org/1999/xlink" version="1.1" viewBox="-10 0 850 1000">
  <g transform="matrix(1 0 0 -1 0 800)">
   <path fill="currentColor"
d="M759.945 232.828c0 103.192 -83.7588 186.946 -186.945 186.946c-103.19 0 -186.946 -83.7578 -186.946 -186.946c0 -86.9873 59.96 -161.056 141.774 -181.413c-12.1016 9.43555 -28.5498 28.3428 -28.5498 61.415
c-0.000976562 81.0107 99.4736 101.256 145.528 55.2021c28.417 -28.417 29.3252 -76.3369 3.88867 -106.173c21.1836 9.40234 40.3037 22.6299 56.4707 38.7969c33.8418 33.8408 54.7793 80.5811 54.7793 132.172zM788.831 232.832
c0 -119.157 -96.7002 -215.832 -215.831 -215.832c-119.138 0 -215.832 96.6816 -215.832 215.832c0 119.011 96.8242 215.83 215.832 215.83c119.151 0 215.831 -96.6914 215.831 -215.83zM638.238 112.732l2.34277 0.0419922l0.00878906 0.00878906l-1.19336 1.14844
l-1.16309 -1.19434c0.00195312 0 0.00292969 -0.00488281 0.00488281 -0.00488281zM638.05 115.229l-1.17578 1.13184l1.11035 0.0136719c-0.785156 11.627 -5.44824 22.9922 -13.9834 31.5264c-28.5049 28.5059 -95.834 18.9385 -95.834 -35.0918
c0.0175781 -53.9922 67.3115 -63.5557 95.832 -35.0342c8.47461 8.47363 13.1279 19.7275 13.9668 31.2549c-0.576172 -0.00683594 -0.980469 -0.0107422 -1.00098 -0.0107422l1.06934 1.11035c0.0878906 1.69824 0.0927734 3.40039 0.015625 5.09961zM45.4595 471.842
c0 27.2885 6.67416 55.5687 20.0928 82.6418c13.9004 27.9818 36.0547 63.7123 40.4161 70.7334c23.1575 37.2855 68.0011 119.2 68.6538 120.422c4.87247 9.12952 8.35209 14.6676 21.7509 14.6676h1.57874c8.73872 -3.83214 11.8953 -6.93621 19.2424 -23.5277
c72.9043 -128.208 72.9043 -128.208 84.4263 -146.397c2.70544 -3.9815 27.9073 -42.08 35.8153 -70.0287c3.66299 -12.3203 6.32937 -30.615 6.32937 -43.4665c0 -70.2612 -55.5849 -136.786 -124.105 -149.717c-12.219 -2.30603 -22.0594 -3.52336 -29.9705 -3.52336
c-33.7863 0 -77.6428 18.1323 -101.57 41.9645c-28.2693 28.359 -42.6603 66.2073 -42.6603 106.231zM190.127 357.353c68.8613 0 120.105 60.5586 120.105 118.931c0 12.2333 -3.37595 32.0347 -8.88692 45.5607c-7.48529 17.0897 -16.4704 32.5397 -28.1627 50.8274
c-11.3895 17.8142 -11.3895 17.8142 -79.6376 136.315c-52.2027 -91.1094 -52.3317 -91.3296 -63.1543 -108.916c-32.2567 -53.3874 -51.1947 -84.8821 -51.1947 -128.85c0 -31.3222 10.9936 -59.9559 32.0792 -81.0414c18.7514 -18.7514 55.7711 -32.8272 78.852 -32.8272z
" />
  </g>

</svg>
