<?xml version="1.0" standalone="no"?>
<!DOCTYPE svg PUBLIC "-//W3C//DTD SVG 1.1//EN" "http://www.w3.org/Graphics/SVG/1.1/DTD/svg11.dtd" >
<svg xmlns="http://www.w3.org/2000/svg" xmlns:xlink="http://www.w3.org/1999/xlink" version="1.1" viewBox="-10 0 908 1000">
  <g transform="matrix(1 0 0 -1 0 800)">
   <path fill="currentColor"
d="M556.138 484.381c0 -0.240234 -0.0078125 -0.419922 -0.0136719 -0.591797zM481.891 719.737c0 0 0.0673828 -0.078125 0.148438 -0.174805zM305.496 492.031c0 0.451172 0.0517578 0.764648 0.0859375 0.945312zM312.944 463.874l-0.137695 0.149414zM320.705 458.324
c-0.285156 0.0791016 -0.564453 0.163086 -0.836914 0.249023zM429.951 744.459c28.5049 0 60.4785 -12.5 86.4492 -96.249c14.1621 -46.1748 38.3955 -151.998 38.7793 -153.933c0.619141 -2.94043 0.896484 -5.73438 0.896484 -8.36719
c0 -15.9365 -10.418 -27.1367 -17.8418 -28.0615c-6.43945 -0.854492 -6.0752 -0.772461 -204.503 -0.858398h-0.222656c-10.8154 0.474609 -14.9922 1.28418 -19.8525 6.14551l-0.00585938 0.00585937c-6.4707 6.46973 -8.5918 13.9678 -8.5918 21.917
c0 7.70605 1.90723 15.5117 4.30469 25.3184c5.95508 22.3262 5.94336 22.2803 22.4307 90.1602c19.46 77.3506 41.5283 143.922 98.1572 143.922zM309.331 510.245v0zM288.348 543.875c-11.1309 -40.7812 -12.1006 -50.6172 -12.1006 -57.8672
c0 -3.28418 0.601562 -29.1475 19.127 -47.6729c12.4492 -12.4492 26.3145 -12.9355 37.8418 -13.3066c0.498047 -0.015625 18.6201 -0.0283203 43.7842 -0.0283203c55.5176 0 145.311 0.0605469 155.799 0.275391h0.0791016
c0.194336 -0.00292969 0.388672 -0.00488281 0.582031 -0.00488281c30.627 0 51.0527 29.2246 51.0527 59.0439c0 12.8262 -3.11035 25.9854 -6.47754 40.0137c-7.16211 28.4482 -14.1309 56.7617 -20.9688 85.1826c-22.6191 91.1299 -51.7363 166.953 -127.314 166.953
c-24.6387 0 -64.1553 -10.2432 -92.2119 -67.6436c-18.0732 -37.0371 -24.6133 -63.835 -49.1572 -164.811c-0.0117188 -0.0458984 -0.0224609 -0.0908203 -0.0351562 -0.134766zM676.994 -62.8135zM161.731 283.835zM65.5068 106.689zM440.424 -124.922zM439.749 -146.434z
M153.289 -66.4443zM318.436 -118.398zM768.903 146.743zM65.5068 106.689zM768.903 146.743zM568.417 366.824c-54.2451 11.2529 -99.0244 -13.2041 -111.392 -30.4014c-0.833984 -1.16016 -1.7334 -2.41016 -4.28613 -3.33984
c-13.7725 -5.02344 -43.8027 -11.8457 -80.5859 4.68262c-48.2363 58.7139 -166.847 18.5537 -196.728 -51.3193c-0.735352 -1.7207 -1.4707 -3.44141 -2.20605 -5.16113h-4.36035l-95.9922 -130.428h-1.93555c-0.43457 -1.85449 -0.43457 -1.85449 -0.43457 -3.21875
c-0.586914 -0.613281 -0.586914 -0.613281 -12.5498 -45.4746c-0.174805 0 -0.349609 0.0078125 -0.524414 0.0078125c-0.104492 -0.805664 -0.230469 -1.60645 -0.381836 -2.44043h0.458984l-0.0703125 -9.49902c0 -34.3242 17.8799 -90.3652 94.7725 -153.959
c87.3027 -72.2109 186.044 -80.2734 268.798 -80.2734c135.675 0 189.385 16.6035 270.135 80.4141c97.1055 76.7285 99.415 99.4531 101.933 151.198l-1.54883 0.0253906c-0.175781 0.664062 -13.3154 53.6934 -17.3701 66.499l-70.5615 120.576
c-17.3135 18.0703 -76.625 79.9727 -135.17 92.1113zM196.559 276.587c19.2676 42.6016 68.3623 66.9561 108.131 66.9561c22.1445 0 35.1152 -6.24316 48.7119 -15.6016l-0.117188 -1.44336c0.957031 -0.59082 1.99512 -1.35156 3.02246 -2.32812
c30.0645 -28.5664 91.9668 -27.5352 114.786 -4.71191c4.33398 4.33594 5.85352 6.9209 8.3623 14.4873c6.84375 4.66992 28.1309 19.1953 62.3125 19.1953c36.9746 0 54.9814 -16.5889 67.8105 -28.5391c9.75195 -9.08105 22.2754 -20.7764 49.502 -38.8408
c0.811523 -0.265625 1.58789 -0.641602 2.30273 -1.11621l1.4707 0.0595703l81.9629 -129.279v-1.38281c4.23535 -15.8994 16.1709 -63.9307 16.3359 -64.5762c12.0381 -48.0977 -8.71387 -74.5615 -94.2725 -144.479
c-66.1963 -54.0879 -115.454 -72.8994 -258.747 -72.8994c-77.7744 0 -141.498 9.71875 -215.213 61.3174c-97.8936 68.5273 -104.941 118.282 -103.667 162.749c3.21875 12.7686 14.1719 53.5869 14.3135 54.1279l90.0215 127.45zM412.102 13.0342
c-0.138672 4.86426 -0.207031 8.51074 -0.207031 10.9424c0 14.3213 2.06738 26.6816 6.20605 37.085c3.03516 7.83691 7.93066 15.7393 14.6895 23.7109c4.96484 5.80762 13.8613 14.252 26.6865 25.3301c12.9648 11.2139 21.3789 20.1309 25.2422 26.75
c3.86035 6.62012 5.79199 13.8477 5.79199 21.6836c0 14.1855 -5.65527 26.6152 -16.9639 37.2871c-11.3115 10.8096 -25.1709 16.2129 -41.584 16.2129c-15.8623 0 -29.1025 -4.86426 -39.7227 -14.5918c-10.6211 -9.72754 -17.585 -24.9268 -20.8955 -45.5957
l-38.2725 4.45801c3.44629 27.6953 13.6533 48.9062 30.6172 63.6318c17.1025 14.7266 39.6523 22.0879 67.6514 22.0879c29.6553 0 53.3076 -7.90234 70.9619 -23.709c17.6533 -15.8066 26.4805 -34.9229 26.4805 -57.3496c0 -12.9688 -3.10254 -24.9258 -9.30859 -35.8691
c-6.20801 -10.9424 -18.3447 -24.25 -36.4121 -39.9219c-12.1367 -10.5381 -20.0684 -18.3057 -23.792 -23.3027c-3.72461 -5 -6.48242 -10.7422 -8.27539 -17.2256c-1.79297 -6.48438 -2.82812 -17.0234 -3.10352 -31.6143h-35.79zM409.824 -60.1221v41.543h42.4121
v-41.543h-42.4121zM1277.27 601.909z" />
  </g>

</svg>
