<?xml version="1.0" standalone="no"?>
<!DOCTYPE svg PUBLIC "-//W3C//DTD SVG 1.1//EN" "http://www.w3.org/Graphics/SVG/1.1/DTD/svg11.dtd" >
<svg xmlns="http://www.w3.org/2000/svg" xmlns:xlink="http://www.w3.org/1999/xlink" version="1.1" viewBox="-10 0 874 1000">
  <g transform="matrix(1 0 0 -1 0 800)">
   <path fill="currentColor"
d="M718.26 130.184c-31.7975 29.4251 -94.4451 91.4002 -94.4451 167.495c0 40.8873 19.3945 72.2484 22.3071 76.7257c11.1613 17.1569 31.7988 42.4942 46.7346 57.43c3.57639 3.57639 29.2013 33.0755 29.5126 33.3945c16.612 17.0281 44.7596 61.7003 44.7596 112.101
c0 3.71039 -0.152545 7.45182 -0.473469 11.2156c0 0 -3.15454 35.4799 -34.1619 66.4873c-50.5425 50.5425 -142.637 63.4206 -213.76 64.1031l-422.094 -824.103l29.1641 -15.0751l412.641 806.373c55.4473 -3.89645 180.555 -16.289 196.848 -102.449
c0.0841619 -2.15922 0.105798 -3.15929 0.105798 -4.71181c0 -38.7692 -21.6892 -76.9449 -36.9064 -92.6928c-0.278808 -0.338178 -17.8338 -20.6058 -29.5748 -32.3468c-2.83832 -2.83832 -28.6206 -27.4655 -51.0675 -63.135
c-20.0498 -31.8604 -27.0214 -63.7877 -27.0214 -93.4517c0 -93.813 78.6554 -167.151 105.455 -191.635z" />
  </g>

</svg>
