<?xml version="1.0" standalone="no"?>
<!DOCTYPE svg PUBLIC "-//W3C//DTD SVG 1.1//EN" "http://www.w3.org/Graphics/SVG/1.1/DTD/svg11.dtd" >
<svg xmlns="http://www.w3.org/2000/svg" xmlns:xlink="http://www.w3.org/1999/xlink" version="1.1" viewBox="-10 0 566 1000">
  <g transform="matrix(1 0 0 -1 0 800)">
   <path fill="currentColor"
d="M269 179.8c28.6924 0 51.8994 -22.5674 51.8994 -51.1992c0 -31.9287 -23.4922 -49.7988 -51.8994 -49.7988c-27.3994 0 -52.5986 17.6016 -52.5986 49.7988c0 28.6094 23.876 51.1992 52.5986 51.1992zM332.858 121.699h92.166l-0.550781 -5.5
c-2.91992 -29.208 -18.5059 -67.5137 -37.54 -90.209l-3.50977 -4.18457l-64.8584 64.8584c9.34961 14.0244 11.4951 21.9795 14.293 35.0352zM275.201 -28.124v92.8662c18.1143 3.88281 24.3232 7.61914 34.3359 14.293l65.5576 -65.5586l-4.18457 -3.50977
c-8.76855 -7.35449 -42.5146 -32.7715 -95.709 -38.0908zM262.799 64.7422v-92.8662l-5.5 0.550781c-29.208 2.91992 -67.5137 18.5059 -90.209 37.54l-4.16016 3.48926l64.8135 65.5928c13.9766 -9.31738 21.8672 -11.4795 35.0557 -14.3066zM112.275 121.699h92.167
c3.8418 -17.9316 8.54883 -25.3691 15.0059 -35.0557l-65.5928 -64.8135l-3.48926 4.16016c-7.35449 8.76855 -32.7715 42.5146 -38.0908 95.709zM204.442 134.102h-92.1533l0.535156 5.48828c2.91699 29.8975 18.5068 68.2246 37.542 90.9209l3.50977 4.18457
l65.5586 -65.5576c-10.8193 -16.2305 -12.7402 -24.5254 -14.9922 -35.0361zM262.799 284.625v-92.8662c-19.6846 -4.21875 -26.1924 -8.39746 -35.0557 -14.3066l-64.8135 65.5928l4.16016 3.48926c8.76855 7.35449 42.5146 32.7715 95.709 38.0908zM275.201 191.759
v92.8662l5.5 -0.550781c29.208 -2.91992 67.5137 -18.5059 90.209 -37.54l4.18457 -3.50977l-65.5576 -65.5586c-14.2871 9.52539 -21.418 11.5244 -34.3359 14.293zM425.024 134.102h-92.166c-4.21973 19.6895 -8.4082 26.208 -14.293 35.0361l64.8584 64.8574
l3.50977 -4.18457c7.35449 -8.76855 32.7715 -42.5146 38.0908 -95.709zM437.601 128.601c0 93.1377 -75.4629 168.601 -168.601 168.601s-168.601 -75.4629 -168.601 -168.601c0 -93.1377 75.4629 -168.601 168.601 -168.601c93.8584 0 168.601 76.8867 168.601 168.601z
M292.941 625.493l90.6855 86.7422c1.86816 1.78711 4.78711 1.84375 6.72168 0.169922c3.4668 -2.99805 7.23926 -5.8418 10.4795 -9.08105c1.94531 -1.94531 1.95117 -5.10059 0.0175781 -7.05273l-89.5039 -90.3936l97.71 -89.8145
c2.13477 -2.13379 1.7959 -5.60254 -0.341797 -7.38379l-13.1982 -10.9941c-1.91113 -1.59082 -4.7334 -1.53613 -6.58105 0.164062l-97.9307 90.1504s-88.3975 -89.9727 -88.4287 -90.0049c-2.04102 -2.04004 -5.3584 -1.87988 -7.22754 0.164062l-9.58594 10.4814
c-1.78418 1.9502 -1.74219 4.97754 0.125977 6.87695l87.2158 88.6953l-85.7197 89.1689c-1.92383 2.00098 -1.82324 5.18945 0.151367 7.07812l11.7754 11.2637c1.95312 1.86816 5.05469 1.8457 6.97949 -0.0683594z" />
  </g>

</svg>
