<?xml version="1.0" standalone="no"?>
<!DOCTYPE svg PUBLIC "-//W3C//DTD SVG 1.1//EN" "http://www.w3.org/Graphics/SVG/1.1/DTD/svg11.dtd" >
<svg xmlns="http://www.w3.org/2000/svg" xmlns:xlink="http://www.w3.org/1999/xlink" version="1.1" viewBox="-10 0 1040 1000">
  <g transform="matrix(1 0 0 -1 0 800)">
   <path fill="currentColor"
d="M604.204 25.791c-1.80176 0 -3.25098 1.46289 -3.25098 3.24902l3.11719 89.7383c-9.06445 10.8496 -18.3623 21.0068 -27.5186 31.0068c-40.3652 44.0879 -78.1416 85.4453 -78.2734 168.867c-0.109375 69.5225 25.1807 105.089 39.3438 119.495
c44.7637 43.7588 103.858 54.7578 134.571 54.7578c2.79297 0 6.32617 2.36816 10.0068 2.19531c90.7783 -4.27051 110.151 -11.4502 156.403 -51.6797c5.9707 -5.19434 7.70801 -9.42676 8.4834 -13.4238c0.140625 -0.72168 0.219727 -1.00391 0.24707 -1.0918
c21.1934 -24.4551 36.0645 -88.7266 37.2168 -107.419c0.078125 -1.2666 0.268555 -2.73926 0.487305 -4.4043c0.619141 -4.70605 1.43945 -10.9258 0.0693359 -18.752c-18.8584 -107.708 -70.1123 -138.705 -76.1396 -155.591
c-0.328125 -0.920898 -0.631836 -1.07324 -0.762695 -1.20312c-1.4375 -1.4375 -13.8896 -7.78613 -23.8936 -12.4912c-1.25586 -3.57715 -1.25586 -3.57715 -1.89258 -4.23828c-0.293945 -1.13379 -0.5625 -3.1377 -0.5625 -3.1377l-1.85645 -91.6689
c-0.0351562 -1.76172 -1.4668 -3.17285 -3.22949 -3.18359zM847.197 429.048l-0.214844 0.186523l-1.96387 -2.56641zM838.071 440.64l-2.15039 0.886719l-2.15332 -5.39648zM697.513 470.264c-52.1182 0 -86.1035 -9.2002 -129.438 -41.3301
c-11.4268 -11.4268 -43.2324 -45.7217 -43.3828 -105.219c-0.198242 -78.3193 33.9355 -115.192 52.2705 -133.527c9.13574 -9.13574 9.13574 -9.13574 10.6484 -11.3965c2.99219 -4.46875 2.99219 -4.46875 22.4053 -25.5117
c4.45801 -1.09668 11.2734 -3.90625 18.1855 -11.0918c3.78027 -3.92871 2.25293 -18.5137 1.55469 -25.1875l-0.62207 -75.8818l120.417 -0.618164l5.66406 93.1338c0.0537109 0.882812 0.460938 1.70312 1.14258 2.28223c4.00098 3.41016 4.10547 3.5 6.17871 5.57324
c2.04688 2.0459 7.98633 7.84473 13.21 9.36523c1.89258 0.550781 4.53223 5.78516 10.0186 9.88574c26.2402 19.6162 65.0811 68.9941 69.9043 140.16c0.706055 10.4111 -0.902344 21.7705 -2.95605 33.9551c-4.34766 25.7881 -10.7178 62.4355 -30.3242 85.2812
c-3.04688 2.51074 -3.97363 3.3457 -18.0078 17.3809c-25.1084 25.1074 -66.6787 32.7461 -106.868 32.7461zM695 371c15.9814 0 44 -9.29004 44 -41c0 -15.1064 -7.5166 -22.4902 -15.7881 -30.2559c-38.6846 -36.3184 -43.2119 -41.6748 -43.2119 -72.7441v-9h27
c0 29.7979 2.99414 34.667 27.0508 56.043c33.2129 28.4873 34.9492 46.7979 34.9492 57.957c0 15.9326 -7.04688 30.1396 -18.6396 41.7334c-9.07715 9.07617 -23.9912 20.2666 -55.3604 20.2666c-12.96 0 -37.8145 -2.5459 -55.3457 -20.0781
c-12.7979 -12.7969 -17.0518 -30.082 -19.6016 -45.9277l28.9434 -2.99414c2.46191 12.749 8.88281 46 46.0039 46zM678 194v-32h32v32h-32zM422 511zM113 719zM56 613zM280 474zM280 461zM108 509zM207 478zM477 637zM56 613zM477 637zM339 774.502
c-23.3945 0 -44.4883 -8.75586 -53.4805 -22.2461c-13.7725 -2.75391 -13.7725 -2.75391 -17.5195 -2.75391c-10.2236 0 -18.8467 2.87402 -25.1719 4.98242c-4.94043 5.26953 -16.8916 18.0176 -42.8281 18.0176c-29.4531 0 -66.4189 -18.0449 -81.335 -46.9434
l-2.09375 -4.05664h-1.76074l-57 -78h-3.81055h-0.501953v-5.61035c-3.07715 -3.07812 -3.07715 -3.07812 -3.72754 -4.39355h1.83496l-4.74902 -18.9961h-1.3584v-2.50195c0 -2.21094 -0.144531 -2.77441 -1.86328 -9.50195h2.19434
c1.55566 -16.5977 4.00488 -42.7256 41.4746 -80.1943c55.1416 -55.1426 115.497 -64.8057 176.696 -64.8057c85.4551 0 118.514 9.32324 168.307 49.3525c60.4209 47.2041 62.2305 60.4385 64.708 98.6514h-2.93848c-5.45996 22.9307 -5.45996 22.9307 -9.57422 35.2744
v3.22363c0 0.394531 -0.0419922 0.770508 -0.0742188 0.966797c-2.82324 2.86133 -2.96484 4.04785 -42.249 71.1289c-4.01855 3.1377 -4.01855 3.1377 -6.67676 5.7959v0.610352h-0.560547c-30.5723 29.8916 -60.6543 52 -95.9414 52zM74.502 599v7.02148l8.62109 31.252
l50.9854 71.5967l2.09082 -0.697266c6 11.999 7.24219 14.4824 13.6494 20.8906c13.3486 13.3486 32.3906 20.4346 49.1514 20.4346c5.93945 0 12.416 0 23.2383 -6.49316c0.694336 -2.08398 0.694336 -2.08398 2.20117 -2.83789
c7.49121 -7.49121 20.6826 -15.6689 42.5605 -15.6689c4.57715 0 32.0566 0.75293 40.1729 18.6094c0.453125 1.58398 1.43457 2.63867 2.85449 3.25586c9.41504 5.88379 19.9766 8.13477 30.9727 8.13477c20.3994 0 31.2334 -10.0801 38.0547 -16.4268
c8.87012 -8.25391 15.3232 -13.6465 32.4658 -24.7061l44.9775 -74.2656v-0.211914c0.183594 -0.3125 1.34473 -2.33398 1.77539 -4.05957c9.9375 -39.748 10.2246 -41.4238 10.2246 -46.8281c0 -18.7705 -14.4951 -33.5938 -55.7988 -67.8457
c-37.0117 -29.8154 -66.0498 -42.6523 -150.699 -42.6523c-46.5469 0 -83.8857 5.375 -127.312 35.3594c-51.6562 36.3516 -60.1865 62.7754 -60.1865 86.1387zM223.241 740.031c0 0 -0.00195313 0.00195312 0 0zM326.502 642c0 22.9404 -16.7314 44.502 -53.502 44.502
c-43.4775 0 -50.5273 -27.7031 -54.2412 -47.707l21.0146 -1.75098c1.6123 8.73047 5.99219 32.458 33.6113 32.458c0.292969 0 0.501953 -0.00390625 0.615234 -0.00390625c18.1211 0 31.498 -13.3086 31.498 -28.498
c0 -0.182617 0.000976563 -0.375977 0.000976563 -0.577148c0 -11.2891 -3.89453 -14.7812 -16.835 -26.3857c-4.59863 -4.12402 -9.91504 -8.89453 -15.3604 -14.3408c-6.97852 -6.97852 -11.8057 -21.2734 -11.8057 -33.6963c0 -1.51465 1 -2.83789 1 -6v-0.501953
h19.0039v0.501953c0 22.251 7.70605 28.7715 20.5439 39.6328c10.9395 10.0371 16.5557 16.4795 19.0615 22.3271c2.91406 6.7998 5.39453 13.9072 5.39453 20.04zM260.498 541.502v-23.0039h24.0039v23.0039h-24.0039z" />
  </g>

</svg>
