<?xml version="1.0" standalone="no"?>
<!DOCTYPE svg PUBLIC "-//W3C//DTD SVG 1.1//EN" "http://www.w3.org/Graphics/SVG/1.1/DTD/svg11.dtd" >
<svg xmlns="http://www.w3.org/2000/svg" xmlns:xlink="http://www.w3.org/1999/xlink" version="1.1" viewBox="-10 0 1123 1000">
  <g transform="matrix(1 0 0 -1 0 800)">
   <path fill="currentColor"
d="M953.947 374.997h-846.666v-500.832h846.666v500.832zM145.058 -88.0591v425.279h153.891v-254.722h37.7754v254.722h171.113v-254.722h37.7764v254.722h171.112v-254.722h37.7754v254.722h162.492l-0.812844 -425.279h-771.122zM92.4937 623.356l154.072 -143.364
l30.1897 34.3151l-95.7824 88.696l723.091 0.844817l-105.618 -86.1684l32.0432 -34.2284l161.883 143.353l-172.028 132.024l-29.8185 -33.5571l116.55 -73.2502l-306.509 -2.47669l-417.824 1.58145l112.738 80.0169l-31.9842 33.8295z" />
  </g>

</svg>
