<?xml version="1.0" standalone="no"?>
<!DOCTYPE svg PUBLIC "-//W3C//DTD SVG 1.1//EN" "http://www.w3.org/Graphics/SVG/1.1/DTD/svg11.dtd" >
<svg xmlns="http://www.w3.org/2000/svg" xmlns:xlink="http://www.w3.org/1999/xlink" version="1.1" viewBox="-10 0 880 1000">
  <g transform="matrix(1 0 0 -1 0 800)">
   <path fill="currentColor"
d="M335.698 122.017c5.91211 0 16.5811 0 34.5449 -13.1875c15.9912 -11.7393 15.9365 -15.541 19.5225 -15.541c0.212891 0 0.449219 0.00292969 0.71875 0.00292969c2.43652 0 3.76074 1.32422 4.55566 2.11914c10.1748 10.1748 25.9375 26.623 50.541 26.623
c12.1182 0 29.8311 -8.29297 34.3945 -13.7725c6.40723 -7.69531 12.0508 -22.0205 12.0508 -31.6133c0 -8.41992 0 -26.3105 -25.4287 -51.8018l-76.0752 -73.2188c-76.7129 73.999 -76.7129 73.999 -77.1035 74.3896c-6.69043 6.69043 -23.0684 23.0684 -24.1436 50.333
c5.95117 20.4648 8.59668 29.5615 13.998 33.7832c8.15332 6.37109 22.7031 11.8838 32.4248 11.8838zM335.198 141.093c-18.8184 0 -39.1055 -10.4297 -47.3262 -18.6514c-7.00293 -7.00195 -17.9404 -28.4287 -17.9404 -45.6709
c0 -1.00098 0.03125 -2.22461 0.0810547 -3.29688l0.0126953 -0.275391v-0.275391c0.0996094 -30.9336 24.8545 -56.9346 31.0605 -62.2461l77.1377 -74.6982c3.26172 -3.1582 7.47363 -5.01562 12.1318 -5.01562c6.36621 0 9.76758 2.98145 12.3691 5.26172
c0.819336 0.717773 58.7061 56.2061 78.2754 75.7754c29.0293 29.0293 30.0322 52.7139 30.0322 64.5137v0.166016c0 17.3428 -9.28418 37.0195 -18.9648 46.7002c-7.11621 7.11621 -29.2725 17.9697 -46.5615 18.0186
c-23.9863 -0.483398 -31.79 -5.73145 -55.3408 -23.2256c-17.1357 12.7158 -30.8857 22.9199 -54.9668 22.9199zM335.698 122.017c5.91211 0 16.5811 0 34.5449 -13.1875c15.9912 -11.7393 15.9365 -15.541 19.5225 -15.541
c0.212891 0 0.449219 0.00292969 0.71875 0.00292969c2.43652 0 3.76074 1.32422 4.55566 2.11914c10.1748 10.1748 25.9375 26.623 50.541 26.623c12.1182 0 29.8311 -8.29297 34.3945 -13.7725c6.40723 -7.69531 12.0508 -22.0205 12.0508 -31.6133
c0 -8.41992 0 -26.3105 -25.4287 -51.8018l-76.0752 -73.2188c-76.7129 73.999 -76.7129 73.999 -77.1035 74.3896c-6.69043 6.69043 -23.0684 23.0684 -24.1436 50.333c5.95117 20.4648 8.59668 29.5615 13.998 33.7832c8.15332 6.37109 22.7031 11.8838 32.4248 11.8838z
M335.198 141.093c-18.8184 0 -39.1055 -10.4297 -47.3262 -18.6514c-7.00293 -7.00195 -17.9404 -28.4287 -17.9404 -45.6709c0 -1.00098 0.03125 -2.22461 0.0810547 -3.29688l0.0126953 -0.275391v-0.275391c0.0996094 -30.9336 24.8545 -56.9346 31.0605 -62.2461
l77.1377 -74.6982c3.26172 -3.1582 7.47363 -5.01562 12.1318 -5.01562c6.36621 0 9.76758 2.98145 12.3691 5.26172c0.819336 0.717773 58.7061 56.2061 78.2754 75.7754c29.0293 29.0293 30.0322 52.7139 30.0322 64.5137v0.166016
c0 17.3428 -9.28418 37.0195 -18.9648 46.7002c-7.11621 7.11621 -29.2725 17.9697 -46.5615 18.0186c-23.9863 -0.483398 -31.79 -5.73145 -55.3408 -23.2256c-17.1357 12.7158 -30.8857 22.9199 -54.9668 22.9199zM531.207 527.356l-17.3232 -19.3574
c-36.4453 37.0449 -72.4531 73.4209 -107.917 108.967l-108.967 -108.966l-18.6787 18.6787l108.976 108.976c-36.5127 36.4941 -72.4258 72.0703 -107.622 106.554l17.3252 19.3564l108.103 -108.104l107.425 107.426l18.6797 -18.6797l-107.425 -107.426zM163.328 371.068
c-11.4067 0 -14.8078 -0.830171 -31.9273 -0.830171c-4.97802 0 -8.69035 0.0927344 -8.77814 0.0927344c-4.0892 -0.206658 -4.10838 -1.09945 -4.12538 -1.89131l-0.639595 -29.0398c4.41078 0.0286678 8.96592 0.0461822 13.6569 0.0461822
c115.808 0 314.429 -10.6743 468.189 -127.729c23.2149 -17.6726 66.2287 -47.8951 104.98 -77.6513l19.524 24.6626c-25.4767 21.8157 -53.1333 34.0557 -87.6099 61.2029c-58.3821 45.9712 -150.494 97.1885 -231.735 109.005l-22.9523 3.33833l22.2884 6.4119
c175.763 50.5635 245.738 115.431 311.128 175.831c3.07857 2.84368 6.14716 5.67814 9.21617 8.50129l-12.3128 18.4702c-25.0048 -28.8034 -168.832 -163.115 -324.07 -178.599c-2.07288 -1.90118 -6.25312 -5.39467 -30.2243 -5.39467
c-48.2745 0 -145.174 13.5736 -194.608 13.5736z" />
  </g>

</svg>
