<?xml version="1.0" standalone="no"?>
<!DOCTYPE svg PUBLIC "-//W3C//DTD SVG 1.1//EN" "http://www.w3.org/Graphics/SVG/1.1/DTD/svg11.dtd" >
<svg xmlns="http://www.w3.org/2000/svg" xmlns:xlink="http://www.w3.org/1999/xlink" version="1.1" viewBox="-10 0 1074 1000">
  <g transform="matrix(1 0 0 -1 0 800)">
   <path fill="currentColor"
d="M277.622 746.645l132.378 -239.645l130.1 240.007l-33.7539 22.7676l-96 -182l-98 172zM745.353 265.455l161.168 139.41l-165.748 145.686l-16.74 -19.0275l138.161 -116.016l-727.08 -0.844856l1.47064 -27.9713l727.851 5.88233l-137.198 -107.957zM357.995 -59.4995
c64.9617 0.0488944 117.677 52.784 117.677 117.749c0 80.4123 -65.1321 144.657 -144.408 144.753c-2.08549 0 -4.17099 0.00536017 -6.25648 0.00536017v-20.8322c2.08012 0 4.16024 -0.00813819 6.24037 -0.00813819
c68.2164 -0.0880619 123.593 -55.5326 123.593 -123.751c0.00128036 -0.201046 0.00176647 -0.353878 0.00176647 -0.554733c0 -51.6217 -42.2 -96.4861 -96.8412 -96.5297c-41.5752 0.0841105 -75.3295 33.9236 -75.3295 75.5005
c0 32.7173 26.4217 58.4185 58.2515 58.4185c24.5136 -0.0406742 44.4607 -19.9904 44.5005 -44.5114l0.0113932 -6.23859h20.7613c-0.39432 23.8474 -2.71758 36.0069 -19.1168 52.4062c-13.2285 13.2285 -29.7643 19.1977 -46.6548 19.1977
c-37.9437 0 -78.5284 -30.9775 -78.5841 -79.0975c0 -53.7631 43.4848 -96.409 96.154 -96.5063z" />
  </g>

</svg>
