<?xml version="1.0" standalone="no"?>
<!DOCTYPE svg PUBLIC "-//W3C//DTD SVG 1.1//EN" "http://www.w3.org/Graphics/SVG/1.1/DTD/svg11.dtd" >
<svg xmlns="http://www.w3.org/2000/svg" xmlns:xlink="http://www.w3.org/1999/xlink" version="1.1" viewBox="-10 0 1043 1000">
  <g transform="matrix(1 0 0 -1 0 800)">
   <path fill="currentColor"
d="M427.03 400.317v0.000976563c96.0859 -0.135742 174.222 -77.9834 174.852 -173.937h-22.9551c-0.630859 83.2939 -68.4902 150.844 -151.895 150.981c-105.46 0 -192.809 -85.1758 -192.809 -193.305c0 -134.484 109.146 -243.851 243.63 -244.124
c173.774 0.140625 307.592 143.198 307.592 308.335c0 213.726 -167.854 413.67 -380.967 414.514v22.9561c224.787 -0.839844 403.921 -210.059 403.921 -437.965c0 -182.39 -147.349 -334.538 -329.87 -334.675c-145.708 0.269531 -267.26 122.024 -267.26 271.143
c0 119.362 96.9082 215.938 215.761 216.075zM903.11 -86.3887l-4.10645 772.777h-772.779l4.10645 -772.777h772.779zM935.833 719.166v-838.332h-838.332v838.332h838.332z" />
  </g>

</svg>
