<?xml version="1.0" standalone="no"?>
<!DOCTYPE svg PUBLIC "-//W3C//DTD SVG 1.1//EN" "http://www.w3.org/Graphics/SVG/1.1/DTD/svg11.dtd" >
<svg xmlns="http://www.w3.org/2000/svg" xmlns:xlink="http://www.w3.org/1999/xlink" version="1.1" viewBox="-10 0 967 1000">
  <g transform="matrix(1 0 0 -1 0 800)">
   <path fill="currentColor"
d="M853.199 534.899l-110.637 -39.1191l-23.1445 111.266l17.9863 4.39355l14.8311 -80.6445l110.607 197.866l18.9297 -12.1074l-114.361 -194.314l79.917 29.7207zM472.5 202.801c-9.34277 0.415039 -19.4229 7.91895 -22.5 16.75
c-29.9697 67.3096 -111.506 139.325 -182.001 160.75c-70.749 25 -138.749 23 -163.499 8.25098l-12.75 21.499c34.999 20.751 112.5 18.25 184.25 -6c75.8418 -23.2051 163.874 -100.708 196.5 -172.999c50 139.5 192.25 180.999 234.749 190.499
c64.001 14.251 119.75 9 141.75 -13.5l-17.749 -17.5c-13 13.251 -58.751 20.001 -118.25 6.50098c-39.75 -8.75098 -172.5 -47.751 -216.751 -175c-2.58203 -9.65234 -12.7734 -17.9404 -22.749 -18.5zM405 138c0 36 30.5996 64.7998 67.5 64.7998
c36.8994 0 67.5 -28.7998 67.5 -64.7998s-30.6006 -64.7998 -67.5 -64.7998c-36.9004 0 -67.5 28.7998 -67.5 64.7998z" />
  </g>

</svg>
