<?xml version="1.0" standalone="no"?>
<!DOCTYPE svg PUBLIC "-//W3C//DTD SVG 1.1//EN" "http://www.w3.org/Graphics/SVG/1.1/DTD/svg11.dtd" >
<svg xmlns="http://www.w3.org/2000/svg" xmlns:xlink="http://www.w3.org/1999/xlink" version="1.1" viewBox="-10 0 1016 1000">
  <g transform="matrix(1 0 0 -1 0 800)">
   <path fill="currentColor"
d="M705.415 684.598c-41.1419 0 -83.5405 -33.682 -83.5405 -84.089c0 -56.5044 45.691 -101.409 101.144 -101.511c67.7258 0.0505551 122.686 55.009 122.686 122.747c0 83.1583 -67.3503 149.653 -149.401 149.753c-3.75373 0 -7.50747 0.00982261 -11.2612 0.00982261
v-30.8284l11.2327 -0.0144758c65.4512 -0.0842509 118.6 -53.2894 118.6 -118.753c0.00121674 -0.190834 0.00182429 -0.381572 0.00182429 -0.572213c0 -48.7887 -39.9188 -91.4715 -91.8464 -91.5127c-38.8117 0.0785708 -70.3263 31.6952 -70.3263 70.501
c0 29.9837 24.2126 53.4199 53.2519 53.4199c21.7534 -0.036633 39.4666 -17.7612 39.5019 -39.5207l0.0206802 -11.2293h30.8085c-0.211106 27.3788 -2.00952 42.3116 -20.6386 60.9407c-14.1832 14.1829 -32.1113 20.6591 -50.2332 20.6591zM208.998 454.313h28.4688
v32.3218l131.877 131.878l-20.2551 19.9685l-111.621 -111.621v81.1095l80.7875 80.7875l-20.1606 20.1606l-60.6269 -60.6269v116.437h-28.4688v-114.395l-59.8018 59.803l-20.2507 -19.9663l80.0526 -80.1565v-83.1525l-111.621 111.621l-20.2551 -19.9685
l131.877 -131.878v-4.14408v-28.1777zM587.798 387.029l-384.798 -341.029l78.4834 -134.543l97.0369 68.052c-35.9662 17.8639 -46.1992 29.014 -119.398 73.1593l353.011 303.821z" />
  </g>

</svg>
