<?xml version="1.0" standalone="no"?>
<!DOCTYPE svg PUBLIC "-//W3C//DTD SVG 1.1//EN" "http://www.w3.org/Graphics/SVG/1.1/DTD/svg11.dtd" >
<svg xmlns="http://www.w3.org/2000/svg" xmlns:xlink="http://www.w3.org/1999/xlink" version="1.1" viewBox="-10 0 1074 1000">
  <g transform="matrix(1 0 0 -1 0 800)">
   <path fill="currentColor"
d="M837.608 622.719c0 11.355 -0.852184 15.0327 -0.852184 32.9495c0 4.83517 0.0957825 9.38002 0.0957825 9.47478c0 2.1237 0 7.11751 -4.81654 7.22054l-34.0548 0.751849c0.0410063 -5.4315 0.0667661 -11.0739 0.0667661 -16.9128
c0 -7.4046 -0.00180955 -9.05456 -0.173341 -27.125l-509.001 -2.62931c-0.737643 14.7483 -0.969943 19.3929 -0.969943 30.2358c0 4.83465 0.0954827 9.37016 0.0954827 9.46481c0 2.1237 0 7.11751 -4.81654 7.22054l-34.0548 0.751847
c0.0424465 -5.59007 0.0695181 -11.4043 0.0695181 -17.4269c0 -123.919 -12.288 -335.467 -136.27 -500.032c-52.0524 -69.0909 -69.4649 -94.5307 -84.8952 -114.681c3.30226 -2.62384 11.4611 -9.09722 30.8395 -24.4394
c17.6125 18.8406 40.9777 62.5707 67.3786 96.0986c44.0303 55.9179 92.6175 140.455 111.706 220.365l8.38604 35.106l10.8701 -34.4184c52.9927 -167.793 118.961 -239.153 180.32 -305.581l10.7549 -11.6716l18.2439 12.163l-2.991 1.66906l3.59903 8.23418
c-28.5832 25.5938 -171.307 178.521 -187.225 343.393c-5.17451 2.41783 -5.61519 22.0086 -5.61519 28.602c0 2.48708 0 2.48708 0.223881 15.0791l503.962 2.76683c-10.6499 -50.3029 -36.0225 -166.237 -116.704 -273.692
c-51.9397 -69.1752 -69.4649 -94.5307 -84.8952 -114.681c3.30226 -2.62384 11.4611 -9.09722 30.8395 -24.4394c17.6125 18.8406 40.9777 62.5707 67.3786 96.0986c44.0303 55.9179 92.6175 140.455 111.706 220.365l8.38604 35.106l10.8701 -34.4184
c52.9927 -167.793 118.961 -239.153 180.32 -305.581l10.7549 -11.6716l18.2439 12.163l-2.991 1.66906l3.59903 8.23418c-28.5832 25.5938 -171.307 178.521 -187.225 343.393c-5.04243 2.35612 -5.61721 20.5916 -5.61721 28.7574
c0 48.3263 14.4585 160.201 14.4585 212.068zM287.362 587.23h509.282c-2.43503 -46.0211 -4.42808 -69.5563 -10.9343 -115.781l-508.122 -0.115709c9.08715 106.307 9.08715 106.307 9.77353 115.897z" />
  </g>

</svg>
