<?xml version="1.0" standalone="no"?>
<!DOCTYPE svg PUBLIC "-//W3C//DTD SVG 1.1//EN" "http://www.w3.org/Graphics/SVG/1.1/DTD/svg11.dtd" >
<svg xmlns="http://www.w3.org/2000/svg" xmlns:xlink="http://www.w3.org/1999/xlink" version="1.1" viewBox="-10 0 1280 1000">
  <g transform="matrix(1 0 0 -1 0 800)">
   <path fill="currentColor"
d="M523.6 249.2l40.7998 16l-7.56348 -120l-26.0361 -67.2002h-41.6006l27.2002 73.6006zM233.008 275.935c14.998 0.209961 29.9951 2.7002 44.9922 7.66602l30.3994 -114.4l-16 -113.6l-25.5996 -9.60059l8.53613 116.801zM193.199 282.801
c8.24512 -3.1875 16.3975 -6.44824 28.8008 -6.40039c0.666992 -79.6475 5.06543 -145.245 1.59961 -208h-27.2002zM574 273.2l33.6377 31.9023l46.3623 -227.103h-40zM511.358 527.69v0c39.6084 -92.4961 -34.3857 -108.86 -66.6318 -122.61l-2.95312 1.18555
c58.5391 34.792 81.3154 48.1416 69.585 121.425zM248.711 567.421v0c99.9072 -11.9463 77.0811 -84.209 72.8672 -119.011l-2.50391 -1.96582c-0.860352 68.0938 -1.03418 94.4932 -70.3633 120.977zM234.129 304.501c-62.207 0 -112.688 54.8145 -112.688 113.644
c0 28.8438 17.6016 64.2793 29.5664 76.5078c3.17188 3.31543 4.76953 7.55273 4.76953 11.7852c0 4.21973 -1.58789 8.43457 -4.78906 11.7275c-15.6475 15.666 -28.3477 46.3369 -28.3682 68.292c0 1.63672 3.44824 27.8711 6.15039 33.873
c13.9463 32.0312 53.5498 58.627 88.4199 59.4629l0.243164 0.00585938l0.243164 -0.00878906c30.6445 -1.08008 70.4365 -23.9609 85.7451 -58.7314c2.5166 -5.24609 8.67969 -9.85938 15.6699 -9.85938c4.79004 0 7.73828 1.94824 9.80273 3.3125
c18.584 12.2852 51.8086 22.3105 74.0225 22.3105c1.7002 0 4.55371 -0.0742188 5.44922 -0.0976562c0.0517578 0 0.0957031 -0.00195312 0.131836 -0.00195312c7.07617 0.0410156 13.5303 5.2041 15.7734 10.8711c15.9629 38.707 63.0215 70.1582 104.786 70.1582
c-0.749023 0.345703 -1.10059 0.566406 -1.10059 0.669922c0 0.046875 0.0712891 0.0693359 0.208984 0.0693359c3.74023 0 56.8379 -16.8955 74.8633 -34.9219c6.81836 -6.81836 26.709 -28.7012 31.7383 -56.4717c1.79883 -9.05957 9.67578 -13.7354 16.0098 -13.9375
c58.3164 -1.56641 105.661 -50.2021 105.661 -108.534c0 -0.795898 -0.969727 -45.4238 -29.4424 -73.8955c-16.9844 -16.9844 -37.3516 -25.8906 -38.834 -26.4746c-15.5469 -6.13086 -33.9238 -8.4707 -42.5879 -8.4707h-0.18457
c-13.3301 0.298828 -24.0029 6.9541 -39.1201 6.9541c-7.59375 0 -11.8955 -2.03711 -14.2148 -4.35645c-0.279297 -0.304688 -1.47852 -1.66016 -6.16797 -6.98438c3.33691 -7.69922 8.01172 -18.4893 8.01172 -32.6582c0 -20.5352 -12.0771 -39.7285 -12.6826 -39.8223
c-3.04883 -4.21875 -6.69336 -8.36133 -10.6934 -12.3604c-11.8232 -11.8232 -26.6279 -22.4209 -39.0029 -27.4287c-29.5801 -11.9658 -54.8896 -12.1299 -56.9277 -12.1299c-21.0615 0 -48.3281 7.9873 -49.9453 9.25879
c-25.2773 10.4912 -55.6025 40.1475 -66.2529 69.3877c-1.88184 4.87402 -7.13574 9.88672 -13.0889 11.0586c-1.4375 0.0888672 -3.05469 0.115234 -4.77734 0.115234c-0.154297 0 -8.77344 -1.2207 -13.5947 -7.11816
c-24.7471 -30.2568 -67.167 -45.2002 -92.8037 -45.2002zM425.341 275.974l-0.0751953 0.0332031zM150.851 494.484v0zM96.6992 416.093c0 -76.1982 66.8193 -140.158 136.309 -140.158c52.0723 0 92.5098 32.1357 99.082 37.748l7.12793 6.08691
c8.31641 -13.0352 13.7324 -21.5234 27.1729 -34.9629c14.8711 -14.8721 33.0449 -28.0283 49.7725 -34.624c15.498 -6.0459 40.7686 -10.7959 57.4062 -10.7959c21.3467 0 44.3418 4.95996 69.6367 14.7246c22.7588 8.78418 51.2334 31.6631 64.4316 50.9912
c6.77539 9.92188 14.4053 34.8867 14.4053 52.7256c0 1.29395 0 1.29395 -0.511719 12.9375c13.6826 -2.76367 18.6748 -3.77246 24.502 -3.77246c6.81836 0 32.9551 3.32324 51.6592 11.2949c20.3955 8.29883 46.2783 28.9443 58.6084 45.9971
c14.4014 20.1211 25.793 55.6006 25.793 80.3486c0 17.9229 -6.17969 44.5967 -14.0566 60.6895c-13.5107 27.6035 -57.2285 65.8545 -104.139 73.2979l-5.00391 0.793945c-3.65918 11.7969 -11.3789 36.6904 -38.0312 63.3418
c-15.1357 15.1367 -48.1719 41.9336 -92.376 41.9336c-57.0645 0 -105.865 -41.7754 -124.413 -77.0674l-2.1377 -4.06934c-18.0107 -1.08887 -45.21 -5.17969 -72.2129 -18.4844l-6.41602 -3.16211c-6.56543 9.81543 -9.9541 14.8818 -18.3721 23.2988
c-22.5723 22.5732 -56.2754 39.666 -86.6865 40.6553c-0.373047 0.00683594 -0.748047 0.00976562 -1.125 0.00976562c-36.8486 0 -92.9189 -30.0605 -111.715 -78.083c-4.45898 -11.9844 -7.46777 -41.2891 -7.86621 -43.4961
c0 -23.5742 11.0703 -55.5645 26.0898 -75.9863l3.44922 -4.68945l-3.31934 -4.78418c-15.5322 -22.3877 -27.0635 -57.3594 -27.0635 -82.7393zM807.627 170.175c-39.4756 -19.46 -39.8936 -19.6309 -44.0273 -19.6309c-2.44141 0 -7.32227 0.640625 -11.0225 5.22559
c-0.483398 0.59668 -42.3896 60.7871 -43.9521 62.9219c-2.55273 3.4873 -5.71289 7.18457 -5.71289 13.0225c0 8.0752 5.32031 11.6992 15.2373 18.4541c53.3623 36.7295 121.189 83.5283 129.558 89.8545h34.4688c5.51074 0 10.085 0.0107422 13.9219 0.0107422
c15.8779 0 19.1191 -0.19043 23.7324 -2.14062c0.000976563 0 0.382812 -0.142578 0.382812 -0.142578c2.82715 -1.0459 16.9893 -5.83789 34.6484 -5.83789c0.603516 0 1.19824 -0.00195312 1.78613 -0.00195312c11.6836 0 18.0605 1.04395 33.6494 8.1123h63.916
c1.49512 -1.02539 123.35 -84.752 148.635 -103.699c-12.0459 -18.1924 -17.7129 -26.9863 -33.9229 -53.8525c-7.63379 -12.6514 -12.2402 -20.8789 -16.3887 -25.0273c-4.33105 -4.33105 -9.18555 -4.3916 -10.0986 -4.3916c-3.41992 0 -24.8125 6.02734 -59.5107 16.0264
c19.6436 -216.48 19.6436 -216.48 19.6436 -216.908v-16.1699h-308.57c1.88965 24.5596 1.88965 24.5596 3.43359 53.1357c0.000976562 0 5.08594 19.2061 5.08594 19.2061c0.000976562 0 3.10254 54.2402 3.10254 54.2402c0 0.00683594 0.712891 84.498 2.00488 107.593z
M1068.7 -31.3486c-0.194336 2.2334 -20.1963 220.687 -20.1963 223.25c0 7.84668 4.33887 13.3438 10.1963 15.1445v2.22852c2.94434 -0.751953 5.88867 -1.50391 8.83301 -2.25684l-0.0390625 -0.157227c12.8789 -3.07031 49.3145 -13.9043 66.9062 -18.6504
l24.6328 39.8535c-3.37109 2.33594 -7.11816 4.92578 -10.4512 7.21191c-56.0957 38.9727 -56.0957 38.9727 -103.938 72.1123c-3.03516 0.106445 -9.95996 0.270508 -23.0742 0.272461c-8.0625 0 -16.126 0.00292969 -24.1875 0.00292969
c-11.1035 -4.22656 -22.0078 -8.00781 -41.0234 -8.00781c-11.96 0 -23.4521 0.192383 -48.4688 8.00781h-25.5391c-12.2041 0 -20.4287 -0.166992 -24.2529 -0.302734c-15.0557 -10.21 -93.8301 -64.6797 -115.955 -80.0029
c6.01172 -8.60254 14.1387 -20.3281 27.5449 -39.6699c13.2383 6.4541 45.1475 22.0762 51.6533 25.0107c1.8125 1.14062 5.14746 1.375 5.90137 1.375c0.100586 0 0.137695 -0.0175781 0.137695 -0.0175781c7.98633 0 14.3613 -6.04688 14.3613 -15.877
c0 -0.357422 -1.1416 -18.7402 -2.06641 -35.6816l-10.9717 -193.976c19.9053 -0.107422 57.9473 -0.15918 98.6172 -0.15918z" />
  </g>

</svg>
