<?xml version="1.0" standalone="no"?>
<!DOCTYPE svg PUBLIC "-//W3C//DTD SVG 1.1//EN" "http://www.w3.org/Graphics/SVG/1.1/DTD/svg11.dtd" >
<svg xmlns="http://www.w3.org/2000/svg" xmlns:xlink="http://www.w3.org/1999/xlink" version="1.1" viewBox="-10 0 1082 1000">
  <g transform="matrix(1 0 0 -1 0 800)">
   <path fill="currentColor"
d="M678.717 446.176c-0.354573 13.3336 -0.354573 13.3336 -0.354573 14.008c0 1.25351 0.018974 2.57679 0.0282667 3.24761c0 0.120521 0.00375505 0.221097 0.00375505 0.277529c0 0.0259542 0.00456225 0.218755 0.00456225 0.365531
c-0.00900828 3.75694 -0.602365 3.82769 -0.602365 3.82769c0 0 -2.54823 2.2935 -12.8341 2.2935l-5.4656 -0.0295673h-0.660896c-1.60157 0 -1.7337 -0.894156 -1.9872 -2.60971c0.00941928 -1.30441 0.0278388 -4.12308 0.0278388 -6.74505
c0 -49.3507 -4.38378 -133.799 -53.8947 -198.836c-12.6347 -17.2516 -29.0651 -39.5328 -34.5521 -46.6461c-0.277086 -0.359507 -0.413012 -0.791592 -0.413012 -1.22137c0 -1.66904 14.3696 -12.1757 15.4249 -12.9453
c0.216307 0.00338519 0.399304 0.00436163 0.399305 0.00436163c3.74006 0 9.92276 13.7252 32.5261 44.4843c13.6693 18.6015 14.4609 20.098 25.3379 40.6633c4.76375 9.00683 14.2689 10.7313 17.7282 10.7313c2.46187 0 13.0015 -0.650602 18.0943 -11.4671
c17.3256 -36.7973 36.5149 -57.8294 60.3611 -83.769c0.333851 -0.36415 0.784153 -0.549315 1.26306 -0.62571c1.85886 1.09388 8.23257 4.89056 15.5705 9.7806c-27.0672 22.1888 -74.1535 82.9425 -79.5902 140.185c-0.666251 1.90359 -2.17104 6.20303 -2.17104 11.2118
c0 20.9388 5.7202 62.8115 5.75586 83.8141zM376.138 446.466c-0.354482 13.6482 -0.354482 13.6482 -0.354482 13.9957c0 1.33796 0.0228367 2.88302 0.0331773 3.61044c0 0.104423 0.00347078 0.192767 0.00347078 0.248069
c-0.0129271 3.80596 -0.596486 3.8582 -0.596486 3.8582s-2.46637 2.29514 -12.84 2.29514l-5.4656 -0.0295673h-0.660896c-1.01933 0 -1.95644 -0.796197 -1.99063 -1.96546c0.00630852 -0.850394 0.0312691 -4.19697 0.0312691 -7.3893
c0 -49.3507 -4.38378 -133.799 -53.8947 -198.836c-12.6347 -17.2516 -29.0651 -39.5328 -34.5521 -46.6461c-0.277086 -0.359507 -0.413012 -0.791592 -0.413012 -1.22137c0 -1.66904 14.3696 -12.1757 15.4249 -12.9453
c0.216307 0.00338519 0.399304 0.00436163 0.399305 0.00436163c3.74006 0 9.92276 13.7252 32.5261 44.4843c13.6693 18.6015 14.4609 20.098 25.3379 40.6633c4.76375 9.00683 14.2689 10.7313 17.7282 10.7313c2.46187 0 13.0015 -0.650602 18.0943 -11.4671
c17.3256 -36.7973 36.5149 -57.8294 60.3611 -83.769c0.333848 -0.364147 0.784073 -0.549263 1.26288 -0.625681c1.85888 1.09388 8.23162 4.88995 15.5708 9.7806c-27.0181 22.1469 -74.1495 82.8995 -79.5903 140.185
c-0.666251 1.90359 -2.17104 6.20303 -2.17104 11.2118c0 21.0139 5.70891 62.5769 5.75577 83.8263zM354.265 468.461c0 0 4.944e-06 0.00437868 0 0zM536 751c-240.991 0 -436 -190.991 -436 -427c0 -235.987 194.987 -427 436 -427c240.991 0 436 190.991 436 427
c0 235.987 -194.987 427 -436 427zM538 -86c-226.996 0 -412 181.996 -412 406c0 224.001 185.001 406 412 406c226.996 0 412 -181.996 412 -406c0 -224.001 -185.001 -406 -412 -406z" />
  </g>

</svg>
