<?xml version="1.0" standalone="no"?>
<!DOCTYPE svg PUBLIC "-//W3C//DTD SVG 1.1//EN" "http://www.w3.org/Graphics/SVG/1.1/DTD/svg11.dtd" >
<svg xmlns="http://www.w3.org/2000/svg" xmlns:xlink="http://www.w3.org/1999/xlink" version="1.1" viewBox="-10 0 1201 1000">
  <g transform="matrix(1 0 0 -1 0 800)">
   <path fill="currentColor"
d="M267.525 663.61h403.473v-173.608h-403.473v-24.7042l433.956 0.516684l-3.91211 222.006l-430.044 0.473089v-24.6831zM243.822 230.196c0 -49.2344 103.619 -83.7793 154.732 -83.7793c48.6367 0 84.3105 37.6094 89.1572 78.4639
c-2.50684 2.50684 -5.0127 5.01367 -7.51953 7.51953l8.08301 7.63477c-3.63867 41.7441 -38.8145 79.2803 -89.7119 81.2744c-53.8867 2.11035 -154.741 -44.1641 -154.741 -91.1133zM209.497 230.108c0 74.2363 124.906 133.423 191.149 133.423
c68.2002 0 125.879 -54.1436 130.771 -121.706c11.1709 -11.2578 29.0293 -26.2695 40.3369 -34.0488c6 -4.125 31.7383 -17.4844 57.6914 -16.0732c11.8232 1.95508 35.8018 11.7686 49.123 25.0908c27.2803 27.2803 39.043 50.7939 63.0049 74.7549
c26.1328 26.1328 53.6416 37.9609 85.0684 37.0908c23.5947 -0.65332 52.0479 -13.1904 68.4639 -26.0898c0.578125 -0.442383 30.3311 -23.7646 52.3018 -50.707l6.16699 -7.5625l-32.0518 -27.4131c-9.71875 11.7881 -12.9043 15.6514 -22.9287 25.6758
c-11.4287 11.4287 -19.4766 18.3389 -28.0479 25.1523c-10.1182 8.04297 -31.6963 16.4512 -44.6094 17.4102c-35.3945 1.64551 -54.8906 -23.876 -80.2256 -57.2754c-0.342773 -0.479492 -18.0947 -24.9336 -38.499 -44.6533
c-24.6582 -23.499 -64.0195 -34.7559 -73.5615 -34.7559c-11.0859 0 -11.0859 0 -11.2812 0.0078125c-22.9121 0.892578 -53.9414 11.0645 -72.9258 23.8857c-7.3623 4.83984 -16.6963 11.9062 -25.0215 18.8301c-17.9121 -48.8574 -68.8613 -87.1445 -122.423 -87.1445
c-71.6436 0 -192.503 54.4668 -192.503 126.108z" />
  </g>

</svg>
