<?xml version="1.0" standalone="no"?>
<!DOCTYPE svg PUBLIC "-//W3C//DTD SVG 1.1//EN" "http://www.w3.org/Graphics/SVG/1.1/DTD/svg11.dtd" >
<svg xmlns="http://www.w3.org/2000/svg" xmlns:xlink="http://www.w3.org/1999/xlink" version="1.1" viewBox="-10 0 1001 1000">
  <g transform="matrix(1 0 0 -1 0 800)">
   <path fill="currentColor"
d="M383.369 539.415l-116.681 105.696l18.9072 13.9258l90.4043 -83.0371l161.203 204.191l25.6836 -11.8018zM670.475 260.314l53.5352 23.7939l-19.3779 -60.9844l-157.975 0.566406l-27.8408 63.9004l55.8779 -24.5459l48.9883 57.3906zM497.086 309.445
l38.9258 -98.3076h180.739l30.791 97.6992l-74.4629 -31.668l-50.4131 65.2598l-51.2812 -64.1299zM535.162 209.889zM622 130c-103.513 0 -187.5 66.0088 -187.5 147c0 80.9863 83.9805 147 187.5 147c103.513 0 187.5 -66.0088 187.5 -147
c0 -80.9863 -83.9805 -147 -187.5 -147zM622 442c-114.507 0 -207 -73.0039 -207 -163.5c0 -90.4932 92.4893 -163.5 207 -163.5c114.507 0 207 73.0039 207 163.5c0 90.4932 -92.4893 163.5 -207 163.5z" />
  </g>

</svg>
