<?xml version="1.0" standalone="no"?>
<!DOCTYPE svg PUBLIC "-//W3C//DTD SVG 1.1//EN" "http://www.w3.org/Graphics/SVG/1.1/DTD/svg11.dtd" >
<svg xmlns="http://www.w3.org/2000/svg" xmlns:xlink="http://www.w3.org/1999/xlink" version="1.1" viewBox="-10 0 1057 1000">
  <g transform="matrix(1 0 0 -1 0 800)">
   <path fill="currentColor"
d="M373.909 388.868c-37.5586 -18.5146 -37.957 -18.6768 -41.8887 -18.6768c-2.32324 0 -6.96777 0.609375 -10.4873 4.97168c-0.459961 0.568359 -40.3311 57.835 -41.8174 59.8652c-2.42871 3.31934 -5.4375 6.83594 -5.4375 12.3896
c0 7.68359 5.06348 11.1318 14.499 17.5576c50.7695 34.9453 115.303 79.4736 123.264 85.4912h32.7959c5.24316 0 9.5957 0.00878906 13.2461 0.00878906c15.1064 0 18.1895 -0.179688 22.5771 -2.03516c0.00195312 0 0.365234 -0.136719 0.365234 -0.136719
c2.69043 -0.993164 16.165 -5.55371 32.9658 -5.55371h1.69922c11.1152 0 17.1836 0.991211 32.0156 7.7168h60.8115c1.4209 -0.975586 117.358 -80.6357 141.415 -98.6631c-11.4619 -17.3086 -16.8516 -25.6758 -32.2764 -51.2363
c-7.26172 -12.0361 -11.6445 -19.8643 -15.5918 -23.8125c-4.12109 -4.12012 -8.73828 -4.17871 -9.60742 -4.17871c-3.25391 0 -23.6074 5.73535 -56.6201 15.249c18.6895 -205.966 18.6895 -205.966 18.6895 -206.373v-15.3838h-293.583
c1.79883 23.3662 1.79883 23.3662 3.2666 50.5547c0.000976562 0 2.93652 52.5254 2.93652 52.5254l2.95117 51.6045c0 0.00683594 2.58203 46.1426 3.81152 68.1152zM622.296 197.134c-0.183594 2.125 -19.2139 209.967 -19.2139 212.406
c0 7.46484 4.12891 12.6953 9.70117 14.4092v2.12012c2.80078 -0.714844 5.60254 -1.43066 8.4043 -2.14746l-0.0371094 -0.149414c12.2529 -2.9209 46.918 -13.2295 63.6553 -17.7451l23.4365 37.918c-3.20703 2.22266 -6.77148 4.68555 -9.94238 6.8623
c-53.3721 37.0801 -53.3721 37.0801 -98.8887 68.6094c-2.88965 0.100586 -9.47852 0.258789 -21.9541 0.258789c-7.67188 0 -15.3438 0.00292969 -23.0127 0.00292969c-10.5654 -4.02148 -20.9395 -7.62012 -39.0322 -7.62012
c-11.3779 0 -22.3125 0.18457 -46.1133 7.62012h-24.2988c-11.6113 0 -19.4365 -0.15918 -23.0742 -0.288086c-14.3252 -9.71387 -89.2734 -61.5381 -110.324 -76.1162c5.71973 -8.18555 13.4512 -19.3408 26.207 -37.7441c12.5947 6.1416 42.9551 21.0049 49.1436 23.7959
c1.72559 1.08594 4.89746 1.30859 5.61621 1.30859c0.0957031 0 0.130859 -0.0175781 0.130859 -0.0175781c7.59766 0 13.6641 -5.75195 13.6641 -15.1055c0 -0.339844 -1.08594 -17.8301 -1.9668 -33.9482l-10.4395 -184.554
c18.9395 -0.102539 55.1338 -0.150391 93.8281 -0.150391zM1439 486zM502.5 776.326c0.230469 0 0.605469 0.000976563 0.836914 0.000976563c230.002 0 417.414 -186.668 418.33 -416.668c-0.00488281 -229.996 -186.671 -416.659 -416.667 -416.659
c-230 0 -416.667 186.667 -416.667 416.667c0 228.624 185.547 415.287 414.167 416.659zM502.5 -29.2295c0.231445 -0.000976562 0.605469 -0.000976562 0.836914 -0.000976562c214.669 0 389.637 174.223 390.552 388.89
c-0.00390625 214.662 -174.227 388.881 -388.889 388.881c-214.667 0 -388.889 -174.223 -388.889 -388.889c0 -213.291 173.102 -387.51 386.389 -388.881z" />
  </g>

</svg>
