<?xml version="1.0" standalone="no"?>
<!DOCTYPE svg PUBLIC "-//W3C//DTD SVG 1.1//EN" "http://www.w3.org/Graphics/SVG/1.1/DTD/svg11.dtd" >
<svg xmlns="http://www.w3.org/2000/svg" xmlns:xlink="http://www.w3.org/1999/xlink" version="1.1" viewBox="-10 0 1109 1000">
  <g transform="matrix(1 0 0 -1 0 800)">
   <path fill="currentColor"
d="M723.819 556.369l-183.764 -210.394l199.98 -208.39l-26.0361 -24.5859l-200.204 208.931l-181.071 -208.931l-18.9092 23.4404l178.771 206.101l-175.74 207.244l23.2295 25.1904l177.761 -200.375l185.84 201.52zM519.5 745.326
c0.230469 0 0.605469 0.000976563 0.836914 0.000976563c230.002 0 417.414 -186.668 418.33 -416.668c-0.00488281 -229.996 -186.671 -416.659 -416.667 -416.659c-230 0 -416.667 186.667 -416.667 416.667c0 228.624 185.547 415.287 414.167 416.659zM519.5 -60.2295
c0.231445 -0.000976562 0.605469 -0.000976562 0.836914 -0.000976562c214.669 0 389.637 174.223 390.552 388.89c-0.00390625 214.662 -174.227 388.881 -388.889 388.881c-214.667 0 -388.889 -174.223 -388.889 -388.889c0 -213.291 173.102 -387.51 386.389 -388.881z
" />
  </g>

</svg>
