<?xml version="1.0" standalone="no"?>
<!DOCTYPE svg PUBLIC "-//W3C//DTD SVG 1.1//EN" "http://www.w3.org/Graphics/SVG/1.1/DTD/svg11.dtd" >
<svg xmlns="http://www.w3.org/2000/svg" xmlns:xlink="http://www.w3.org/1999/xlink" version="1.1" viewBox="-10 0 546 1000">
  <g transform="matrix(1 0 0 -1 0 800)">
   <path fill="currentColor"
d="M144.404 742.211c-3.82812 -5.4375 -5.81055 -7.92871 -9.5498 -11.2764c15.541 -13.127 24.8018 -21.084 40.7568 -35.332c-7.51367 -11.2607 -23.1846 -34.7451 -23.1846 -71.8066c0 -18.2051 3.97168 -35.4824 11.0967 -51.0215l2.25 -4.91016
c-13.3242 -6.71387 -24.5098 -12.4189 -49.9434 -26.5918c4.38867 -6.0498 6.2959 -9.23145 8.06934 -13.6748c19.3018 11.6738 30.6729 18.2129 49.2441 27.8252c5.06543 -6.93262 8.62695 -11.8066 15.4033 -18.583c26.3428 -26.3428 57.4668 -33.1377 72.1611 -34.8535
l5.16797 -0.602539c-1.45312 -33.0244 -1.80176 -43.4727 -2.13965 -55.3457c9.14941 -0.667969 12.1943 -0.844727 16.3262 -0.890625c-0.0800781 8.1416 -0.121094 15.501 -0.121094 22.1768c0 12.5713 0.0703125 19.3389 0.538086 33.8457
c15.2236 1.27734 49.4316 4.14551 81.3896 36.1035c4.50098 4.50098 7.34766 7.34766 16.3027 19.8721c17.8896 -12.9209 27.0205 -19.4756 39.7783 -28.5479c3.97559 5.56445 5.74707 8.22852 8.87402 13.6924c-13.9121 10.8311 -23.0996 17.5898 -40.9141 28.7549
c4.68359 10.9014 11.8301 27.5352 11.8301 52.0098c0 27.2676 -9.36914 48.54 -14.5098 58.1494l-2.4502 4.58203c0.417969 0.264648 27.2822 17.2832 42.0518 26.3223c-2.95215 4.81641 -4.6543 7.3457 -7.72754 11.4775
c-22.8984 -13.2656 -27.457 -15.9072 -42.1992 -26.0586c-5.23633 6.35352 -7.20801 8.74707 -11.5117 13.0508c-28.0576 28.0566 -61.1338 34.2266 -77.0771 35.4775l-4.90625 0.383789c-1.00098 20.1104 -1.30859 30.415 -1.30859 42.0781
c0 3.65137 0.0400391 6.7959 0.0957031 9.57812l-14.4385 -0.342773c-0.237305 -8.61914 -0.328125 -16.5156 -0.328125 -24.1641c0 -5.55859 0 -9.52441 0.297852 -27.543c-13.5615 -1.80469 -45.6533 -6.07324 -75.1943 -35.4912l-3.8584 -3.8418
c-20.1221 19.1113 -28.5244 26.3105 -40.2715 35.498zM274.596 516.232c-57.624 0.0341797 -107.089 47.3496 -107.089 107.56c0 59.3701 48.1924 107.56 107.562 107.56c59.3613 0 107.56 -48.1826 107.56 -107.542
c-0.254883 -59.3809 -48.6611 -107.577 -108.033 -107.577zM269 179.8c28.6924 0 51.8994 -22.5674 51.8994 -51.1992c0 -31.9287 -23.4922 -49.7988 -51.8994 -49.7988c-27.3994 0 -52.5986 17.6016 -52.5986 49.7988c0 28.6094 23.876 51.1992 52.5986 51.1992z
M332.858 121.699h92.166l-0.550781 -5.5c-2.91992 -29.208 -18.5059 -67.5137 -37.54 -90.209l-3.50977 -4.18457l-64.8584 64.8584c9.34961 14.0244 11.4951 21.9795 14.293 35.0352zM275.201 -28.124v92.8662c18.1143 3.88281 24.3232 7.61914 34.3359 14.293
l65.5576 -65.5586l-4.18457 -3.50977c-8.76855 -7.35449 -42.5146 -32.7715 -95.709 -38.0908zM262.799 64.7422v-92.8662l-5.5 0.550781c-29.208 2.91992 -67.5137 18.5059 -90.209 37.54l-4.16016 3.48926l64.8135 65.5928
c13.9766 -9.31738 21.8672 -11.4795 35.0557 -14.3066zM112.275 121.699h92.167c3.8418 -17.9316 8.54883 -25.3691 15.0059 -35.0557l-65.5928 -64.8135l-3.48926 4.16016c-7.35449 8.76855 -32.7715 42.5146 -38.0908 95.709zM204.442 134.102h-92.1533l0.535156 5.48828
c2.91699 29.8975 18.5068 68.2246 37.542 90.9209l3.50977 4.18457l65.5586 -65.5576c-10.8193 -16.2305 -12.7402 -24.5254 -14.9922 -35.0361zM262.799 284.625v-92.8662c-19.6846 -4.21875 -26.1924 -8.39746 -35.0557 -14.3066l-64.8135 65.5928l4.16016 3.48926
c8.76855 7.35449 42.5146 32.7715 95.709 38.0908zM275.201 191.759v92.8662l5.5 -0.550781c29.208 -2.91992 67.5137 -18.5059 90.209 -37.54l4.18457 -3.50977l-65.5576 -65.5586c-14.2871 9.52539 -21.418 11.5244 -34.3359 14.293zM425.024 134.102h-92.166
c-4.21973 19.6895 -8.4082 26.208 -14.293 35.0361l64.8584 64.8574l3.50977 -4.18457c7.35449 -8.76855 32.7715 -42.5146 38.0908 -95.709zM437.601 128.601c0 93.1377 -75.4629 168.601 -168.601 168.601s-168.601 -75.4629 -168.601 -168.601
c0 -93.1377 75.4629 -168.601 168.601 -168.601c93.8584 0 168.601 76.8867 168.601 168.601z" />
  </g>

</svg>
