<?xml version="1.0" standalone="no"?>
<!DOCTYPE svg PUBLIC "-//W3C//DTD SVG 1.1//EN" "http://www.w3.org/Graphics/SVG/1.1/DTD/svg11.dtd" >
<svg xmlns="http://www.w3.org/2000/svg" xmlns:xlink="http://www.w3.org/1999/xlink" version="1.1" viewBox="-10 0 830 1000">
  <g transform="matrix(1 0 0 -1 0 800)">
   <path fill="currentColor"
d="M164.205 669.5c0 27.7344 -6.54297 77.499 -53.5 77.499c-25.5127 0 -51.2178 -0.446289 -67.4453 -59.0977c-21.7959 -78.7812 48.0742 -151.938 87.8037 -121.089c-1.22363 -5.6543 -1.85742 -11.4346 -1.85742 -17.3125c0 -20.6523 7.8252 -40.1055 21.5898 -57.0801
l-23.7959 -184.42h25.0244l21.0244 162.944c15.3887 -11.8535 34.1924 -21.6504 55.373 -28.6865l18.9629 -148.258h25.0244l-18.0742 141.305c16.5566 -3.44727 34.1445 -5.30469 52.3701 -5.30469c25.0449 0 48.8848 3.50684 70.501 9.8291v-147.829h26.999v157.681
c15.5244 6.89551 29.3496 15.3877 40.96 25.125l41.3457 -179.806h27.041l-43.4854 207.765c9.10059 14.3662 14.1387 30.165 14.1387 46.7354c0 65.8428 -79.542 119.499 -177.5 119.499c-62.6426 0 -117.756 -21.9424 -149.352 -54.9844
c4.33887 15.9805 6.85156 34.79 6.85156 55.4854zM293.272 28.8525l398.823 353.46l36.9043 -46.3125l-349.84 -301.092c41.4717 -25.0107 90.499 -60.7002 122.683 -72.585l-120.476 -84.4893z" />
  </g>

</svg>
