<?xml version="1.0" standalone="no"?>
<!DOCTYPE svg PUBLIC "-//W3C//DTD SVG 1.1//EN" "http://www.w3.org/Graphics/SVG/1.1/DTD/svg11.dtd" >
<svg xmlns="http://www.w3.org/2000/svg" xmlns:xlink="http://www.w3.org/1999/xlink" version="1.1" viewBox="-10 0 1046 1000">
  <g transform="matrix(1 0 0 -1 0 800)">
   <path fill="currentColor"
d="M520.279 286.552v0.000976563c0 51.8574 -28.5664 112.839 -68.666 152.938c-3.43945 3.43945 -3.43945 3.43945 -35.626 32.7314h517.589v22.7852c-4.19238 0.00390625 -394.744 2.15625 -419.131 2.15625c-72.4609 0 -144.861 -0.545898 -217.176 -2.18457
c-107.818 -2.44531 -194.771 -100.745 -194.771 -208.427c0 -115.3 93.5801 -208.89 208.891 -208.89c115.3 0 208.89 93.5791 208.89 208.89zM326.904 101.43v0v-0.59668h-14.7109l-14.7363 -0.0478516c0 0.200195 -0.000976562 0.399414 -0.000976562 0.599609
c-95.9902 7.37402 -171.659 87.6943 -171.659 185.56c0 102.734 83.374 186.11 186.11 186.11c102.734 0 186.11 -83.375 186.11 -186.109c0 -97.6426 -75.3301 -177.861 -171.113 -185.516z" />
  </g>

</svg>
