<?xml version="1.0" standalone="no"?>
<!DOCTYPE svg PUBLIC "-//W3C//DTD SVG 1.1//EN" "http://www.w3.org/Graphics/SVG/1.1/DTD/svg11.dtd" >
<svg xmlns="http://www.w3.org/2000/svg" xmlns:xlink="http://www.w3.org/1999/xlink" version="1.1" viewBox="-10 0 1051 1000">
  <g transform="matrix(1 0 0 -1 0 800)">
   <path fill="currentColor"
d="M271 608l-12 60c128.725 89.7881 355.203 55.3633 442.457 48.5605c0 -0.0107422 0.000976562 -0.0214844 0.000976562 -0.0322266c27.4463 0.582031 75.1855 -1.32129 107.268 -33.4033c40.1396 -40.1396 38.6152 -108.841 37.5254 -169.365
c-0.395508 -21.9258 -0.433594 -33.2402 -0.22168 -41.9463c26.3789 -43.8281 72.168 -89.959 89.3252 -129.607c6.95117 -16.0635 5.49219 -24.7637 2.64551 -40.2051l-12 -14l-79.501 -63.5771v-212.431c1.93945 -31.0869 1.82422 -79.2412 -27.416 -108.48
c-26.0322 -26.0322 -182.507 -12.0195 -220.584 -13.0049l-2.90137 0.0126953c-103.732 -7.2998 -296.108 50.6025 -326.603 92.1719c-18.5059 25.2275 -31.4014 41.2529 -57.9951 55.3086v70.0371c25.8174 -16.2627 49.624 -17.8066 70.1904 -60.6357
c44.2188 -92.082 349.455 -105.734 451.309 -108.438l-0.499023 -0.962891c50 12 34.1514 4.48145 42.5352 13.5361c19.1768 20.7119 3.97852 41.9688 5.50781 57.9648h-0.541992v2.14941c-0.253906 0.990234 -0.500977 1.94141 -0.738281 2.84863h0.738281v207.174v3.4873
v1.33887h1.58203l104 88h1.13281c4.9834 45.8955 -62.8379 92.1289 -94.2158 139.501l-3 4l-1 1c-2.02051 3.99219 0.0439453 4.02539 -2.08398 11.5605c-0.0371094 0.130859 -0.189453 0.24707 -0.174805 0.367188l0.258789 2.07227l0.0644531 1.49902
c0.00976562 0.226562 0.150391 3.89551 0.242188 6.24414c3.11426 79.1523 14.1973 176.389 -74.8154 176.771c-136.35 16.7461 -373.536 9.53418 -431.49 -46.5137zM30.3545 728.521h55.5146l17.1611 52.2256l17.1602 -52.2256h55.5156l-44.8672 -32.2959l17.1611 -52.2246
l-44.9697 32.2959l-44.9707 -32.2959l17.1611 52.2246zM465.601 565.5l57 -0.299805v0h2.7002l-3.30078 -182.4v-10.7998h-12.2998l-46.2002 0.299805v10.7998l46.2002 -0.299805l3.90039 172.8l-48 0.300781v9.59961zM512.204 216.846
c6.44824 -23.6748 23.7793 -42.623 55.2959 -58.5459l-1.98438 -4.81055c-30.8301 15.6191 -49.5957 34.3408 -57.2754 57.2236c-7.23145 -20.3154 -27.6162 -45.7305 -45.5 -56.7314l-3.22461 4.8623c35.3564 22.6934 52.3467 56.6709 50.8623 104.023l5.14355 -0.113281
c0.0703125 -0.00195312 0.128906 -4.44238 0.128906 -6.1377c0 -11.5293 -3.44629 -39.7705 -3.44629 -39.7705zM530.586 85.3887c-0.120117 -0.000976562 -0.31543 -0.00195312 -0.4375 -0.00195312c-7.71289 0 -19.8076 2.27539 -26.9941 5.07812
c-13.8516 5.46387 -30.3018 20.8008 -36.7207 34.2354c-11.126 -12.1143 -33.5049 -21.9473 -49.9541 -21.9473c-1.89648 0 -4.96582 0.15625 -6.85352 0.347656c-32.0557 3.87305 -58.0723 33.2227 -58.0723 65.5117c0 12.9814 6.66309 31.6777 14.8721 41.7324
c-7.9873 9.09668 -14.4697 26.3037 -14.4697 38.4102c0 5.79688 1.64453 14.9102 3.66895 20.3418c7.7793 19.9111 31.4385 36.3125 52.8135 36.6113c18.6768 -0.594727 40.9336 -14.4814 49.6797 -30.9951c9.82324 5.90234 27.0957 10.7412 38.5557 10.7988
c9.7168 21.3184 36.6172 38.6201 60.0449 38.6201c1.31445 0 3.44531 -0.0761719 4.75488 -0.170898c24.9883 -3.0918 50.1494 -25.4453 56.1611 -49.8955c19.5547 -1.80566 42.8271 -17.3838 51.9473 -34.7764c3.64258 -7.44238 6.59863 -20.2051 6.59863 -28.4893
c0 -11.4824 -5.4248 -28.3779 -12.1064 -37.7148c-5.88867 -8.14453 -18.2266 -17.8213 -27.541 -21.5996c-6.4541 -2.75879 -17.3887 -5.13086 -24.4072 -5.29199c-3.06152 0.0859375 -7.90039 0.956055 -10.7998 1.94336h-2.05176
c0.365234 -2.1416 0.661133 -5.6416 0.661133 -7.81348c0 -7.15332 -3.00488 -17.9268 -6.70898 -24.0459c-6.30762 -9.2373 -19.9033 -19.9785 -30.3486 -23.9766c-8.51562 -3.75781 -22.9824 -6.85547 -32.292 -6.91211zM467.515 139.389h1.1875
c2.37695 -0.401367 4.94238 -2.5791 5.72363 -4.86035c4.79492 -13.2705 19.3105 -28.3184 32.4004 -33.5879c6.35352 -2.39551 17.0205 -4.33887 23.8115 -4.33887c7.93066 0 20.2451 2.62109 27.4883 5.85059c8.77148 3.54883 20.0449 12.8867 25.1641 20.8447
c2.85156 4.55566 5.16504 12.6152 5.16504 17.9893c0 3.4668 -1.00781 8.90625 -2.24902 12.1426l-1.4043 3.24023l2.37598 2.7002c3.88867 4.21094 16.7402 0 16.8486 0c2.14453 -0.736328 5.72461 -1.36523 7.99219 -1.40527h0.0859375
c5.9248 0 15.1758 1.83887 20.6494 4.10449c7.69238 3.0332 17.9492 10.8721 22.8955 17.4961c5.65918 7.69238 10.251 21.6836 10.251 31.2305c0 28.3232 -22.9785 51.9258 -51.29 52.6865c-3.16309 0.100586 -6.16211 2.71289 -6.69629 5.83105
c-4.24902 21.5498 -25.3926 41.1934 -47.1963 43.8486c-1.1377 0.0859375 -2.98828 0.155273 -4.12988 0.155273c-20.332 0 -43.1094 -15.2627 -50.8418 -34.0674c-0.976562 -2.50781 -3.95117 -4.54102 -6.6416 -4.54102
c-0.0751953 0 -0.196289 0.000976563 -0.270508 0.00488281c-0.648438 0.0234375 -1.7002 0.0429688 -2.34766 0.0429688c-10.8096 0 -26.8848 -4.8584 -35.8848 -10.8438c-1.03125 -0.746094 -2.9043 -1.35352 -4.17871 -1.35352
c-2.66699 0 -5.63184 2.00977 -6.62109 4.48633c-6.58691 15.0537 -25.2627 27.6816 -41.6885 28.1875c-17.0889 -0.335938 -36.4414 -13.3516 -43.1992 -29.0518c-1.625 -4.37207 -2.94434 -11.7041 -2.94434 -16.3682c0 -10.7344 6.15723 -25.6104 13.7451 -33.2041
c1.1123 -1.14551 2.01562 -3.37012 2.01562 -4.96777c0 -1.59668 -0.90332 -3.82324 -2.01562 -4.96777c-7.90234 -8.70996 -14.3154 -25.3223 -14.3154 -37.082c0 -27.1572 21.8955 -51.7197 48.875 -54.8252c1.59277 -0.163086 4.1875 -0.294922 5.78906 -0.294922
c15.3535 0 35.501 9.80859 44.9707 21.8945c1.23438 1.50879 3.81836 2.7334 5.76855 2.7334c0.197266 0 0.515625 -0.0146484 0.711914 -0.0332031v0.323242zM368.478 208.509v0zM368.478 213.584v0zM618.715 271.149v0zM615.149 274.173v0zM496.351 283.137v0z
M499.914 285.512v0z" />
  </g>

</svg>
