<?xml version="1.0" standalone="no"?>
<!DOCTYPE svg PUBLIC "-//W3C//DTD SVG 1.1//EN" "http://www.w3.org/Graphics/SVG/1.1/DTD/svg11.dtd" >
<svg xmlns="http://www.w3.org/2000/svg" xmlns:xlink="http://www.w3.org/1999/xlink" version="1.1" viewBox="-10 0 1051 1000">
  <g transform="matrix(1 0 0 -1 0 800)">
   <path fill="currentColor"
d="M271 608l-12 60c128.725 89.7881 355.203 55.3633 442.457 48.5605c0 -0.0107422 0.000976562 -0.0214844 0.000976562 -0.0322266c27.4463 0.582031 75.1855 -1.32129 107.268 -33.4033c40.1396 -40.1396 38.6152 -108.841 37.5254 -169.365
c-0.395508 -21.9258 -0.433594 -33.2402 -0.22168 -41.9463c26.3789 -43.8281 72.168 -89.959 89.3252 -129.607c6.95117 -16.0635 5.49219 -24.7637 2.64551 -40.2051l-12 -14l-79.501 -63.5771v-212.431c1.93945 -31.0869 1.82422 -79.2412 -27.416 -108.48
c-26.0322 -26.0322 -182.507 -12.0195 -220.584 -13.0049l-2.90137 0.0126953c-103.732 -7.2998 -296.108 50.6025 -326.603 92.1719c-18.5059 25.2275 -31.4014 41.2529 -57.9951 55.3086v70.0371c25.8174 -16.2627 49.624 -17.8066 70.1904 -60.6357
c44.2188 -92.082 349.455 -105.734 451.309 -108.438l-0.499023 -0.962891c50 12 34.1514 4.48145 42.5352 13.5361c19.1768 20.7119 3.97852 41.9688 5.50781 57.9648h-0.541992v2.14941c-0.253906 0.990234 -0.500977 1.94141 -0.738281 2.84863h0.738281v207.174v3.4873
v1.33887h1.58203l104 88h1.13281c4.9834 45.8955 -62.8379 92.1289 -94.2158 139.501l-3 4l-1 1c-2.02051 3.99219 0.0439453 4.02539 -2.08398 11.5605c-0.0371094 0.130859 -0.189453 0.24707 -0.174805 0.367188l0.258789 2.07227l0.0644531 1.49902
c0.00976562 0.226562 0.150391 3.89551 0.242188 6.24414c3.11426 79.1523 14.1973 176.389 -74.8154 176.771c-136.35 16.7461 -373.536 9.53418 -431.49 -46.5137zM30.3545 728.521h55.5146l17.1611 52.2256l17.1602 -52.2256h55.5156l-44.8672 -32.2959l17.1611 -52.2246
l-44.9697 32.2959l-44.9707 -32.2959l17.1611 52.2246zM605.128 256.069c9.28418 -4.01367 15.8535 -16.0264 15.8535 -35.9199c0 -12.7568 -2.79102 -23.623 -8.39062 -32.5635c-4.25391 -6.74121 -10.9092 -13.3975 -21.4248 -13.3975
c-12.6172 0 -22.0146 10.7588 -26.085 27.2764c-0.654297 -0.116211 -1.32812 -0.176758 -2.01562 -0.176758c-6.32324 0 -11.4492 5.12695 -11.4492 11.4502c0 6.32422 5.12598 11.4502 11.4492 11.4502c4.34668 0 8.12695 -2.42188 10.0664 -5.98926l1.41895 0.31543
c0.875 -7.2002 3.48047 -28.6533 16.6748 -28.6533c3.73242 0 8.26172 1.63574 12.335 8.50684c3.43652 5.73242 5.16699 12.8516 5.16699 21.3848c0 16.4248 -7.05859 27.8086 -16.6113 27.8086c-0.731445 0 -1.83398 -0.71582 -4.0918 -0.71582
c-1.92871 -1.47852 -4.34082 -2.35742 -6.95898 -2.35742c-6.32324 0 -11.4492 5.12598 -11.4492 11.4502c0 6.32324 5.12598 11.4502 11.4492 11.4502c3.97754 0 7.48145 -2.02832 9.53418 -5.10742c2.92188 0.642578 5.92188 2.2793 8.85449 5.46875
c3.53613 3.84766 5.35059 9.83691 5.35059 18.0391c0 4.37305 -0.72168 13.5049 -6.27246 19.0557c-2.14551 2.14648 -6.50195 2.75879 -7.54492 3.20117c-5.9834 0 -13.3867 -4.64258 -15.3545 -26.3145l-2.95996 0.87793
c-2.06836 -2.97461 -5.50977 -4.9209 -9.40723 -4.9209c-6.32324 0 -11.4502 5.12598 -11.4502 11.4492c0 6.32422 5.12695 11.4502 11.4502 11.4502c1.25195 0 2.45605 -0.200195 3.58398 -0.571289c1.79492 6.09863 4.71387 12.6465 9.5459 17.4785
c4.07031 4.07031 8.87305 6.125 14.3535 6.125c15.041 0 25.9531 -17.0449 25.9531 -38.2275c0 -7.07422 -1.4043 -21.0342 -11.5742 -29.3232zM593.166 388.188l-67.5996 113.944l9.59961 4.05566l58.834 -91.1885l50.1885 104.444l12.9775 -5.25586z" />
  </g>

</svg>
