<?xml version="1.0" standalone="no"?>
<!DOCTYPE svg PUBLIC "-//W3C//DTD SVG 1.1//EN" "http://www.w3.org/Graphics/SVG/1.1/DTD/svg11.dtd" >
<svg xmlns="http://www.w3.org/2000/svg" xmlns:xlink="http://www.w3.org/1999/xlink" version="1.1" viewBox="-10 0 1008 1000">
  <g transform="matrix(1 0 0 -1 0 800)">
   <path fill="currentColor"
d="M251.279 575.188c-0.24707 33.458 40.9727 52.4121 65.875 27.5088c4.34961 -4.34863 7.36035 -9.20117 9.18848 -14.2461l170.02 1.25586l-4.64941 112.777c0.884766 0.229492 2.2207 0.576172 3.9082 0.895508l-0.0292969 0.112305l6.94824 1.80273l0.295898 -1.13477
c1.75195 0.0429688 3.63281 -0.0205078 5.60156 -0.248047c-0.0429688 0.464844 7.0332 -0.506836 10.0488 -0.333008l4.27148 2.17676c-0.436523 -8.27832 -0.436523 -8.27832 -0.608398 -10.2275l4.51172 -105.636l158.162 -0.956055
c9.46387 23.9004 42.1768 34.1914 63.2295 13.1387c24.7002 -24.7002 6.23047 -65.6191 -26.9521 -65.8643c-15.1826 -0.111328 -28.5879 8.87305 -34.9707 21.7803c-1.37695 0.462891 -1.84375 0.586914 -1.97363 0.504883l-157.156 -0.495117l1.11719 -151.484
c4.35547 -1.8623 8.53516 -4.64062 12.3359 -8.44141c24.7002 -24.7002 6.23047 -65.6191 -26.9521 -65.8643c-21.1006 -0.155273 -38.7676 17.2578 -38.9238 38.3545c-0.12207 16.6201 9.98633 29.6611 23.2441 35.5254l-1.12012 151.699l-173.334 -1.2793
c-6.40527 -11.3076 -18.3105 -19.5674 -33.165 -19.6777c-21.1006 -0.155273 -38.7676 17.2578 -38.9229 38.3555zM527.377 734.765c-0.24707 33.459 40.9727 52.4121 65.876 27.5098c24.7002 -24.7002 6.23047 -65.6191 -26.9521 -65.8643
c-21.1006 -0.155273 -38.7676 17.2578 -38.9238 38.3545zM413.377 741.965c-0.24707 33.458 40.9727 52.4121 65.876 27.5098c24.7002 -24.7002 6.23047 -65.6191 -26.9521 -65.8643c-21.1006 -0.155273 -38.7676 17.2568 -38.9238 38.3545zM348.481 97.6934
l-82.2217 148.848l24.0225 10.1475l58.4395 -100.383l53.3027 101.418l27.2285 -11.0254zM265.568 -67.707v34.6641h38.626v22.0713h-38.626v34.6641h38.626v33.7148h31.3828v-33.7148h23.2197v31.2539h31.3828v-31.2539h41.292v-34.6641h-41.292v-22.0713h41.292v-34.6641
h-41.292v-36.1855h-31.3828v36.1855h-23.2197v-33.7246h-31.3828v33.7246h-38.626zM335.577 -33.043h23.2197v22.0713h-23.2197v-22.0713zM780.659 223.904c-0.529297 0 -0.985352 0.173828 -1.32227 0.358398l-214.094 -88.2627v-37.8242
c12.126 5.10742 24.251 10.2148 36.376 15.3213v-3.77051l-0.21875 -161.659h318.305l0.646484 155.446c10.9619 -6.48535 21.9238 -12.9697 32.8867 -19.4551l-0.677734 40.7051l-136.33 79.1182l1.46387 0.616211c-22.6963 11.7715 -24.457 12.7314 -36.2109 19.5508
c-0.288086 -0.102539 -0.56543 -0.144531 -0.824219 -0.144531zM884.594 -16.7148h-248.003l-0.665039 144.662l142.009 59.8174l107.859 -63.8086zM63.3545 -23.4795h55.5146l17.1611 52.2256l17.1602 -52.2256h55.5156l-44.8672 -32.2959l17.1611 -52.2246
l-44.9697 32.2959l-44.9707 -32.2959l17.1611 52.2246z" />
  </g>

</svg>
