<?xml version="1.0" standalone="no"?>
<!DOCTYPE svg PUBLIC "-//W3C//DTD SVG 1.1//EN" "http://www.w3.org/Graphics/SVG/1.1/DTD/svg11.dtd" >
<svg xmlns="http://www.w3.org/2000/svg" xmlns:xlink="http://www.w3.org/1999/xlink" version="1.1" viewBox="-10 0 1014 1000">
  <g transform="matrix(1 0 0 -1 0 800)">
   <path fill="currentColor"
d="M38.8555 750.097h55.5146l17.1611 52.2256l17.1602 -52.2256h55.5156l-44.8672 -32.2959l17.1611 -52.2246l-44.9697 32.2959l-44.9707 -32.2959l17.1611 52.2246zM279.531 616.544l-12 60c128.725 89.7881 355.203 55.3633 442.457 48.5605
c0 -0.0107422 0.000976562 -0.0214844 0.000976562 -0.0322266c27.4463 0.582031 75.1855 -1.32129 107.268 -33.4033c40.1396 -40.1396 38.6152 -108.841 37.5254 -169.365c-0.395508 -21.9258 -0.433594 -33.2402 -0.22168 -41.9463
c26.3789 -43.8281 72.168 -89.959 89.3252 -129.607c6.95117 -16.0635 5.49219 -24.7637 2.64551 -40.2051l-12 -14l-79.501 -63.5771v-212.431c1.93945 -31.0869 1.82422 -79.2412 -27.416 -108.48c-26.0322 -26.0322 -182.507 -12.0195 -220.584 -13.0049
l-2.90137 0.0126953c-103.732 -7.2998 -296.108 50.6025 -326.603 92.1719c-18.5059 25.2275 -31.4014 41.2529 -57.9951 55.3086v70.0371c25.8174 -16.2627 49.624 -17.8066 70.1904 -60.6357c44.2188 -92.082 349.455 -105.734 451.309 -108.438l-0.499023 -0.962891
c50 12 34.1514 4.48145 42.5352 13.5361c19.1768 20.7119 3.97852 41.9688 5.50781 57.9648h-0.541992v2.14941c-0.253906 0.990234 -0.500977 1.94141 -0.738281 2.84863h0.738281v207.174v3.4873v1.33887h1.58203l104 88h1.13281
c4.9834 45.8955 -62.8379 92.1289 -94.2158 139.501l-3 4l-1 1c-2.02051 3.99219 0.0439453 4.02539 -2.08398 11.5605c-0.0371094 0.130859 -0.189453 0.24707 -0.174805 0.367188l0.258789 2.07227l0.0644531 1.49902
c0.00976562 0.226562 0.150391 3.89551 0.242188 6.24414c3.11426 79.1523 5.19727 173.389 -83.8154 173.771c-136.35 16.7461 -373.536 9.53418 -431.49 -46.5137zM320.007 127.729c-0.120117 0 -0.655273 0.228516 -0.655273 0.731445
c0 0.078125 0.0117188 0.15625 0.0302734 0.226562c-0.299805 5.87012 -0.601562 11.7402 -0.90332 17.6094l216.288 22.1836c-2.08887 0.200195 -4.00488 0.381836 -4.02637 0.384766c-22.3125 3.79883 -30.5801 14.2949 -30.5801 36.3037
c0 49.5967 41.7021 132.147 50.1309 176.263c0.387695 2.03027 3.05176 3.53809 3.05176 5.05859c0 0.104492 0.548828 1.41504 0.44043 2.20508l0.882812 -0.883789c0.0214844 -0.702148 0.542969 -1.17773 0.564453 -1.88184v0
c9.98145 -48.0156 47.7148 -111.678 47.7148 -157.348c0 -15.0098 -4.45605 -26.1426 -11.2363 -39.8623c-1.56445 -3.16895 -3.48828 -7.06152 -6.0166 -12.4277c-0.206055 -0.44043 -2.03223 -2.37793 -10.6201 -9.74609l-5.94434 2.47559l-0.670898 2.00879
c0.175781 0.166016 11.9385 11.8545 12.5791 20.6621c0.308594 4.24805 0.453125 8.32031 0.453125 12.2275c0 39.5352 -14.8789 62.1992 -26.1035 79.3203c-3.54688 5.41016 -6.73926 10.2695 -8.97852 14.9551c-9.63965 -30.2217 -30.9902 -61.3916 -30.9902 -91.1934
c0 -14.7617 8.20117 -26.2832 8.37891 -26.46c4.19336 -4.19336 6.99707 -7.12305 16.9785 -10.0908v-1.35449l0.617188 0.0625c2.16602 5.28711 7.43262 10.3037 13.6709 10.3037c9.35645 0 13.9453 -8.22852 13.9453 -14.8564
c0 -6.88281 -15.6699 -13.0439 -16.5059 -13.0439c-0.387695 0 -0.84082 0.18457 -1.21973 0.466797c-5.54004 -0.856445 -158.495 -17.6299 -227.544 -23.8975c-1.9082 -0.172852 -3.12598 -0.275391 -3.55273 -0.299805c0 0 -0.046875 -0.102539 -0.178711 -0.102539z
M587.338 524.39l10.6094 0.173828l148.503 0.357422v-9.80469l-55.3896 -0.421875v-47.8662l-91.9043 49.4473l-3.35156 2.11719c-0.923828 0 -7.54395 5.99707 -8.4668 5.99707zM568.64 540.11c0 2.96582 -0.213867 3.8252 -0.213867 8.26758
c0 1.17578 0.0234375 2.2832 0.0234375 2.30664c0 1.39062 -0.470703 2.36621 -1.7793 2.39355l-8.97461 0.198242c0.0126953 -1.5498 0.0224609 -3.17383 0.0224609 -4.8623c0 -30.3242 -2.81348 -82.1748 -33.2617 -122.17
c-2.39941 -3.15332 -14.6182 -20.0869 -21.168 -28.5771c0.00195312 -0.000976563 0.00195312 -0.000976563 8.4668 -6.70312c4.41602 4.41602 10.2549 15.5068 16.9346 23.9902c11.2373 14.2715 23.6602 36.0752 27.9766 56.416l0.981445 4.62598l1.38672 -4.52148
c13.1201 -42.7598 29.6875 -60.7021 44.9873 -77.2666c0 0 2.98828 -3.24219 2.99023 -3.24414l5.73926 3.82617c-0.374023 0.208984 -0.749023 0.417969 -1.12305 0.626953l0.837891 1.91602c-0.65332 0.583008 -1.49219 1.36426 -2.47266 2.34375
c-11.2354 11.2354 -40.1738 45.6328 -43.5596 81.96c-0.367188 0.161133 -1.39258 1.0791 -1.39258 6.33203c0 12.751 3.59863 39.1025 3.59863 52.1416zM557.695 553.275v0z" />
  </g>

</svg>
