<?xml version="1.0" standalone="no"?>
<!DOCTYPE svg PUBLIC "-//W3C//DTD SVG 1.1//EN" "http://www.w3.org/Graphics/SVG/1.1/DTD/svg11.dtd" >
<svg xmlns="http://www.w3.org/2000/svg" xmlns:xlink="http://www.w3.org/1999/xlink" version="1.1" viewBox="-10 0 1046 1000">
  <g transform="matrix(1 0 0 -1 0 800)">
   <path fill="currentColor"
d="M30.3242 741.553h55.5146l17.1611 52.2256l17.1602 -52.2256h55.5156l-44.8672 -32.2959l17.1611 -52.2246l-44.9697 32.2959l-44.9707 -32.2959l17.1611 52.2246zM804 631c0 -96.6865 68.0879 -173.199 99.375 -191.775l11.1992 -6.64941
c-16.9434 -0.478516 1.18945 0.900391 -34.5742 -3.5752l-1.0752 1.36426c-22.0068 27.9238 -93.998 110.011 -106.903 207.233c-0.657227 4.95117 0.0224609 9.79688 0.582031 18.2783c-1.38379 0.708984 -2.88672 1.4873 -4.52246 2.34082
c-0.0283203 -1.83984 -0.322266 -3.81641 -0.0449219 -5.88867c33.3789 -249.661 97.5459 -216.742 97.5459 -216.742s6.91211 -4.29004 10.2793 -6.58594h-32.8613c-44.1455 16.1279 -101.697 151.17 -101.697 222.331c0 8.73535 0.302734 15.3135 0.785156 20.6846
c-60.6641 32.3369 -181.179 64.7012 -284.885 64.7012c-23.0527 0 -45.5234 -2.04883 -73.3945 -6.17773c-32.3232 -4.78906 -32.3232 -4.78906 -70.6152 -21.2002c-18.916 -8.10645 -50.2139 -47.4062 -58.166 -66.7188
c-7.02734 -17.0664 -9.0791 -30.2676 -9.0791 -45.8906c0 -22.332 3.62891 -44.376 3.62891 -77.1553c0 -8.99219 1.14648 -13.8564 1.14648 -20.1924c0 -4.57031 -0.613281 -9.64551 -2.73242 -16.6025c-19.9492 -65.4795 -40.3174 -87.0479 -63.832 -110.183
c-6.25977 -6.16016 -27.0508 -26.6172 -27.0508 -37.7881c0 -4.45605 0.882812 -6.9082 38.3447 -19.4531c55.9199 -18.7266 60.0254 -24.4102 60.0254 -90.9766c0 -43.0117 2.70801 -110.013 2.70801 -151.731c0 -5.5 0.0820312 -11.3867 0.267578 -17.7666
c0.50293 -17.292 16.4512 -45.3398 23.8975 -57.5352c1.19629 -0.303711 1.95996 -1.18164 1.95996 -1.18164c1.1543 -0.666992 2.48438 -1.60059 4.13477 -2.74414c16.0508 -11.1162 22.0049 -13.1846 40.8428 -13.1846c24.0361 0 22.3457 4.21484 79.0615 4.21484
c0.316406 0 6.94531 -0.00390625 7.01562 -0.00390625c14.7988 0 25.668 0.226562 52.1025 3.80078c20.2021 2.73242 38.8271 4.61572 56.5088 6.4043c120.938 12.2334 201.711 24.1475 280.178 80.1953c2.23438 1.5957 5.14355 3.85352 8.45703 6.42773
c12.6104 9.7959 33.0303 26.8994 48.1416 26.8994c8.16699 0 13.834 -4.95996 13.834 -14.165c0 -15.4473 -17.4082 -42.8486 -33.0938 -42.8486c-1.16406 0 -1.56543 0.129883 -3.01758 0.129883c-22.6426 0 -44.3604 -36.5264 -79.4766 -51.29
c-52.8857 -22.2344 -138.298 -27.127 -175.459 -33.71c-17.2549 -3.05664 -36.6504 -6.49316 -61.8809 -12.2393c-34.7246 -7.90918 -51.6299 -8.61133 -86.7539 -8.61133c-0.251953 0 -22.7891 0.03125 -25.0811 0.03125c-11.3115 0 -32.6182 -0.123047 -32.9473 -0.123047
c-40.7773 0 -82.5049 2.86621 -120.91 24.8125c-26.0957 14.9121 -27.9092 36.1035 -30.0449 61.0586c-0.477539 5.59082 -0.976562 11.3994 -1.75781 17.3906c-1.96484 15.7158 -2.63672 29.7119 -2.63672 42.8916c0 28.6572 -4.27441 100.664 -4.27441 131.409
c0 46.4277 -4.59863 49 -29.7539 58.8145c-27.3184 10.6582 -57.2148 13.2568 -70.834 26.876c-4.33008 4.33008 -6.66504 9.68945 -6.66504 16.1094c0 4.7959 1.30371 10.1846 4.05176 16.1768c36.4951 79.5967 68.6367 70.0742 91.3711 139.761
c5.20312 15.9443 6.93652 32.2529 6.93652 48.6797c0 32.5635 -6.77832 65.1611 -6.77832 95.8125c0 47.6494 17.2412 68.3838 35.0508 86.1934c66.2422 66.2412 143.674 66.3555 238.901 66.3555h0.988281c82.8154 0 190.135 -23.3467 246.021 -49.8477
c43.5547 -20.6533 21.8506 -15.7109 32.4561 -16.8408c11.3984 -1.2168 39 -13 47.5039 -30.4053c4.31641 -8.83496 -4.12305 -21.668 -4.50391 -29.5947c-0.257812 -5.36523 2 -14.3428 2 -20zM572 322c0.213867 0.00878906 13.7686 0.000976562 13.7725 0.0078125
c-4.1748 17.5117 -3.00195 23.1494 -1.47949 28.0625c0.0146484 0.0449219 1.19238 4.11816 1.35352 4.43945l9.84668 19.6934c-5.04004 78.1201 -5.04004 78.1201 -5.01172 78.4551c1.65527 19.6543 3.09961 42.5801 1.41211 57.2646
c-4.38867 17.4307 -15.2783 13.752 -17.8213 8.17676c-0.899414 -1.96973 -1.91211 -2.20215 -4.52637 -2.80078c-2.03223 -1.81738 -5.22852 -1.41992 -6.74902 0.869141c-1.90527 2.87012 -10.7207 16.5205 -10.9521 16.9736
c-3.1875 6.24414 -15.4854 10.085 -17.8359 -2.27441c-0.0849609 -0.447266 -0.0849609 -0.447266 -4.28223 -10.6787c-1.56445 -3.81152 -7.07715 -3.65332 -8.41699 0.244141l-7.89648 22.9707c-2.11133 6.14062 -15.2812 11.0439 -22.2393 -0.583984
c-0.12793 -0.383789 -1.06738 -3.23145 -6.14453 -19.1553c-1.10352 -3.46191 -5.70996 -4.25293 -7.89941 -1.31152c-6.49512 8.72754 -6.49512 8.72754 -6.60938 8.8418c-0.0429688 0.0429688 -7.41797 7.40625 -11.5957 3.22754
c-2.28809 -2.28809 -3.58203 -7.87402 -4.15234 -11.2988c0.0166016 -0.513672 0.118164 -3.54492 0.680664 -18.248c0.334961 -9.15527 0.742188 -28.7207 0.750977 -29.0107c2.67773 -19.0869 1.43945 -19.6826 2.83203 -29.8945
c0.101562 -0.392578 0.873047 -3.36914 4.88379 -18.5508c0.0390625 -0.148438 0.40625 -8.64844 -0.756836 -10.625c-2.85938 -4.85938 -3.05762 -5.19727 -4.94336 -5.62891c-7.46484 -1.71094 -9.82617 -0.207031 -12.3506 3.29492
c-1.29785 1.80176 -10.1279 10.6514 -11.0156 11.6758l-18.5039 21.3506c-0.5 0.330078 -3.06738 2.0127 -10.793 6.90625c-0.451172 0.136719 -2.61426 0.782227 -9.14355 2.61035c-1.8252 -1.00098 -4.00195 -0.397461 -5.65234 -2.04785
c-1.19824 -1.19824 -2.58008 -5.21094 -2.14062 -7.48242l10.209 -13.7295c1.9668 -1.84375 12.417 -10.9531 12.9297 -11.5723c15.2549 -18.4473 15.2549 -18.4473 15.3281 -18.5469c11.0859 -15.0205 11.0928 -15.0166 11.1699 -15.1514
c28.459 -50.1035 9.99609 -15.71 10.1377 -16.0371l7.7207 -17.8984c2.13379 -3.30664 10.3799 -15.748 10.6006 -16.168c3.47363 -6.60059 3.47363 -6.60059 3.60449 -7.14941c2.58496 -10.833 20.8926 -11.3721 21.1328 -11.376l20.0254 -0.357422zM585.773 313.005
h-13.4912c-60.6963 -2.52051 -60.6963 -2.52051 -60.8311 -2.51855l-20.1689 0.360352c-3.20215 0.0605469 -25.0654 1.08301 -29.5654 17.6914l-2.86523 5.44434c-10.4854 15.9062 -10.3066 15.3789 -10.9414 16.8496l-7.63672 17.7051l-9.53125 14.9775l-10.8291 14.6709
l-14.8721 17.9844c-12.7754 11.3154 -12.7754 11.3154 -13.3359 12.0693l-10.4404 14.04c-3.72461 5.00879 -1.12402 14.7822 3.13184 19.0391c2.49609 2.49609 4.84961 3.25781 8.33789 3.90039c1.93066 0.863281 4.10254 1.0127 6.11621 0.448242
c9.49805 -2.65918 9.70508 -2.51855 11.374 -3.57617c10.1924 -6.45508 10.9658 -6.69922 12.4258 -8.1582c0.169922 -0.170898 -0.21875 -0.527344 18.9297 -21.8164c9.97656 -11.0918 10.3662 -10.7363 11.7988 -12.6777
c0.236328 0.0214844 0.561523 0.0615234 0.97168 0.128906l0.482422 0.819336l0.214844 5.37988c-4.79883 18.1602 -4.74609 17.6582 -4.9082 18.8438c-1.5 10.9189 -0.180664 11.0752 -2.87598 30.209c-0.0410156 0.294922 -0.580078 23.6602 -0.801758 29.709
c-0.719727 18.7998 -0.891602 18.0586 -0.611328 19.7979c0.875977 5.42969 2.89551 17.9434 13.4678 20.1729c8.79102 1.85449 17.3115 -6.39844 18.4814 -7.96973l1.30859 -1.75879c3.5127 11.1465 3.40039 11.0723 4.22363 12.4727
c10.8809 18.5068 34.0117 12.4131 38.5898 -0.904297l3.86328 -11.2383c5.38867 18.1084 27.0645 15.4121 33.9609 2.35742c0.0810547 -0.125 7.74902 -12.0371 8.03711 -12.4824c7.56543 9.77832 26.7236 11.4268 32.835 -12.8438
c0.0966797 -0.386719 0.168945 -0.779297 0.213867 -1.17383c1.84277 -16.0342 0.304688 -38.9639 -1.35645 -58.7246l4.99707 -77.4463c0.101562 -1.57422 -0.208008 -3.16992 -0.928711 -4.61133l-9.62891 -19.2578
c-0.277344 -1.07324 -0.600586 -2.14453 -1.02832 -3.52246c-1.19824 -3.86719 -2.46289 -6.09473 1.6377 -23.2939c1.34863 -5.65332 -2.93555 -11.0967 -8.75098 -11.0967zM620.644 234.902l81.1953 -70.2305l-77.8389 -68.6719l-6.99707 7.40137l67.208 56.5713
l-230.734 -1.86426l-0.555664 10.5557l231.343 0.269531l-70.0615 58.6455z" />
  </g>

</svg>
