<?xml version="1.0" standalone="no"?>
<!DOCTYPE svg PUBLIC "-//W3C//DTD SVG 1.1//EN" "http://www.w3.org/Graphics/SVG/1.1/DTD/svg11.dtd" >
<svg xmlns="http://www.w3.org/2000/svg" xmlns:xlink="http://www.w3.org/1999/xlink" version="1.1" viewBox="-10 0 1051 1000">
  <g transform="matrix(1 0 0 -1 0 800)">
   <path fill="currentColor"
d="M828.399 483.872c0 9.49878 0.360099 25.4826 0.360099 28.905l-0.318652 61.3747l-8.69455 54.78l-24.0577 41.7601l-29.8355 19.1251l-33.9409 8.02542l-47.9505 1.85133v0.765382l-107.704 8.96128l-161.614 -4.8437l-135.511 -48.0118l4.97421 -24.8711
l90.1513 34.2037l168.519 13.9909l163.859 -8.05849l72.0585 -32.0852l24.6852 -76.5829c-11.2968 -92.7231 -11.5388 -94.7093 -10.6225 -98.1968c0.272553 -1.03738 0.408327 -1.98777 0.495372 -2.92219c0.487753 -0.641757 1.13403 -1.58506 1.4862 -2.05622
l30.4464 -40.7334l38.0432 -60.0682l23.93 -33.502l-96.7113 -80.2498l-3.19974 -219.288c0.962733 -7.56244 2.78458 -22.0112 5.01798 -45.877c-0.12894 -0.269919 -9.65147 -20.9678 -12.8349 -27.02c-1.80565 -3.43278 -3.36365 -6.39475 -8.94453 -11.1259
c-28.726 -6.87192 -37.6748 -9.01268 -53.7943 -9.01268c-3.38415 0 -6.77838 0.14333 -10.1737 0.446144l-127.95 -3.2205l-189.706 31.9736l-119.91 72.0259l-21.8729 31.5454c-0.18608 0.126152 -14.9542 10.3475 -18.5829 12.6523v-31.4635
c5.41685 -3.87145 13.5068 -7.36272 24.4398 -17.2503c7.32645 -6.62591 2.09556 -4.45645 10.6241 -11.9264c1.03002 -0.902171 1.03002 -0.902171 17.2005 -21.8062l70.2643 -41.1391l123.979 -35.7692l40.8353 -3.74581
c52.8258 -4.90757 59.0669 -6.73248 83.0467 -7.42728l68.08 -1.97257l89.7606 0.254271l51.1066 12.4914l15.1376 25.2075l6.27671 34.16l-0.268638 82.9487l0.0291888 84.2282l-0.00582149 87.5189l84.7837 67.8016l7.68593 8.96692l1.11464 7.19504
c0.44913 7.61262 -1.52476 12.8022 -3.31214 18.1783l-23.3304 38.8443l-33.0243 43.448l-34.3179 48.9016c-0.202711 16.1296 -0.202711 16.1296 -0.202711 17.6951zM33.2949 712.521h55.5146l17.1611 52.2256l17.1602 -52.2256h55.5156l-44.8672 -32.2959
l17.1611 -52.2246l-44.9697 32.2959l-44.9707 -32.2959l17.1611 52.2246zM654 72h-201.39v208.334h3.88965c0.192383 0 0.503906 0.000976563 0.695312 0.000976563c108.523 0 196.94 -88.0762 197.36 -196.599v-5.13867v-2.98633zM459.556 78.9443h187.5v4.58398
c-0.25 103.11 -84.125 188.168 -187.223 189.86zM533.36 580.75c66.5625 -0.0917969 120.658 -54.1875 120.75 -120.75c0 -66.6543 -54.0957 -120.75 -120.75 -120.75c-66.6543 0 -120.75 54.0957 -120.75 120.75s54.0957 120.75 120.75 120.75zM645.61 464.083v0.0839844
c-0.8125 22.9854 -14.1777 55.3164 -29.833 72.166l-64.917 -64.916c1.24805 -1.85742 2.62891 -5.14258 3.08301 -7.33398h91.667zM544.86 477.333l64.917 64.75c-16.8496 15.7256 -49.2178 29.165 -72.25 30v-91.666c2.19043 -0.454102 5.47559 -1.83594 7.33301 -3.08398
zM529.193 480.417v91.833c-23.0322 -0.834961 -55.4004 -14.2754 -72.25 -30l64.917 -64.917c1.85742 1.24805 5.14258 2.62988 7.33301 3.08398zM521.86 442.667l-64.917 -64.834c16.8604 -15.6982 49.2285 -29.1006 72.25 -29.916v91.666
c-2.19043 0.454102 -7.33301 3.08398 -7.33301 3.08398zM537.527 439.583v-91.833c23.0322 0.834961 55.4004 14.2754 72.25 30l-64.917 64.917c-1.85742 -1.24805 -5.14258 -2.62988 -7.33301 -3.08398zM451.11 536.417
c-15.6719 -16.8701 -29.0371 -49.2383 -29.833 -72.25h91.666c0.454102 2.19043 1.83594 5.47559 3.08398 7.33301zM421.11 455.833c0.834961 -23.0322 14.2754 -55.4004 30 -72.25l64.75 64.917c-1.24805 1.85742 -2.62891 5.14258 -3.08301 7.33301h-91.667z
M615.61 383.583c15.6719 16.8701 29.0371 49.2383 29.833 72.25h-91.666c-0.454102 -2.19043 -1.83594 -5.47559 -3.08398 -7.33301z" />
  </g>

</svg>
