<?xml version="1.0" standalone="no"?>
<!DOCTYPE svg PUBLIC "-//W3C//DTD SVG 1.1//EN" "http://www.w3.org/Graphics/SVG/1.1/DTD/svg11.dtd" >
<svg xmlns="http://www.w3.org/2000/svg" xmlns:xlink="http://www.w3.org/1999/xlink" version="1.1" viewBox="-10 0 1010 1000">
  <g transform="matrix(1 0 0 -1 0 800)">
   <path fill="currentColor"
d="M134.221 -61.2959zM340.548 -55.9424v263.013l80.8701 -0.34668l63.0251 -53.1485c1.23064 24.1913 1.23064 24.1913 2.20835 54.5l190.772 -2.45117v-66.4404l-54.499 -59.7695l32.7266 -4.33887l26 4l-4.22754 -136.465zM695.938 -84.5088
c4.71561 0 8.54759 3.82766 8.57399 8.39457l-1.86111 158.189c12.9088 -1.84411 12.9088 -1.84411 53.0537 -4.0831l-51.1944 59.6085v86.5381c0 4.71977 -3.8161 8.4982 -8.24219 8.54782l-211.617 -4.6113c-2.01115 37.2063 -2.01115 37.2063 -4.71543 58.173
l-57.9857 -52.4621l-3.87834 0.0156927s-96.0008 0.388525 -96.0416 0.388607c-4.71785 0 -8.57227 -3.83432 -8.57227 -8.54297v-300.105c0 -4.69954 3.84858 -8.54199 8.54199 -8.54199c0 0 373.898 -1.50871 373.938 -1.50879zM29.3242 18.2246h55.5146l17.1611 52.2256
l17.1602 -52.2256h55.5156l-44.8672 -32.2959l17.1611 -52.2246l-44.9697 32.2959l-44.9707 -32.2959l17.1611 52.2246zM923.436 402.225c0.264648 0.0117188 16.9053 0.00292969 16.9102 0.00976562c-5.12598 21.501 -3.68457 28.4238 -1.81641 34.4551
c0.0175781 0.0546875 1.46484 5.05566 1.66211 5.4502l12.0898 24.1797c-6.1875 95.9141 -6.1875 95.9141 -6.15332 96.3262c2.0332 24.1309 3.80566 52.2793 1.7334 70.3086c-5.38867 21.3994 -18.7578 16.8838 -21.8799 10.0381
c-1.10449 -2.41797 -2.34766 -2.7041 -5.55762 -3.43848c-2.49512 -2.23242 -6.41895 -1.74316 -8.28711 1.06738c-2.33887 3.52246 -13.1621 20.2832 -13.4463 20.8389c-3.91406 7.66699 -19.0127 12.3838 -21.8984 -2.79297
c-0.103516 -0.547852 -0.103516 -0.547852 -5.25781 -13.1104c-1.91992 -4.67871 -8.68945 -4.48535 -10.334 0.300781l-9.69434 28.2021c-2.59277 7.53906 -18.7637 13.5605 -27.3057 -0.717773c-0.157227 -0.469727 -1.31152 -3.9668 -7.54492 -23.5176
c-1.35547 -4.25098 -7.00977 -5.2207 -9.69727 -1.61035c-7.97559 10.7148 -7.97559 10.7148 -8.11523 10.8564c-0.0527344 0.0527344 -9.10742 9.0918 -14.2373 3.96191c-2.80957 -2.80859 -4.39844 -9.66602 -5.09863 -13.8721
c0.0205078 -0.630859 0.145508 -4.35352 0.836914 -22.4033c0.411133 -11.2422 0.911133 -35.2637 0.920898 -35.6211c3.28809 -23.4336 1.76758 -24.165 3.47754 -36.7031c0.124023 -0.482422 1.07324 -4.13574 5.99609 -22.7754
c0.0478516 -0.182617 0.499023 -10.6182 -0.929688 -13.0459c-3.50977 -5.9668 -3.75391 -6.38086 -6.06934 -6.91113c-9.16309 -2.09961 -12.0645 -0.253906 -15.1631 4.0459c-1.59375 2.21191 -12.4355 13.0771 -13.5254 14.3359l-22.7178 26.2129
c-0.615234 0.40625 -3.76758 2.47168 -13.252 8.47949c-0.553711 0.168945 -3.20996 0.960938 -11.2256 3.20508c-2.24219 -1.22852 -4.91406 -0.488281 -6.94043 -2.51465c-1.46973 -1.46973 -3.16699 -6.39746 -2.62793 -9.1875l12.5342 -16.8555
c2.41504 -2.26367 15.2461 -13.4482 15.874 -14.208c18.7295 -22.6504 18.7295 -22.6504 18.8193 -22.7725c13.6123 -18.4414 13.6123 -18.4414 13.7148 -18.6016c12.2744 -19.2871 12.2744 -19.2871 12.4463 -19.6914l9.48145 -21.9746
c2.61719 -4.05957 12.7422 -19.3359 13.0137 -19.8496c4.26465 -8.10547 4.26465 -8.10547 4.42578 -8.7793c3.17383 -13.2998 25.6523 -13.9609 25.9463 -13.9668l24.5869 -0.439453zM940.348 391.183h-16.5654c-74.5195 -3.0957 -74.5195 -3.0957 -74.6865 -3.09277
l-24.7627 0.441406c-3.93262 0.0751953 -30.7734 1.3291 -36.2988 21.7217l-3.51758 6.68457c-12.875 19.5293 -12.6553 18.8828 -13.4346 20.6885l-9.37695 21.7373l-11.7021 18.3887l-13.2949 18.0127l-18.2598 22.0811
c-15.6846 13.8926 -15.6846 13.8926 -16.374 14.8184l-12.8184 17.2393c-4.57324 6.14941 -1.37988 18.1484 3.84668 23.374c3.06348 3.06445 5.95312 4 10.2363 4.79004c2.36914 1.05859 5.03613 1.24121 7.50879 0.549805
c11.6621 -3.26562 11.916 -3.09277 13.9648 -4.3916c12.5137 -7.92578 13.4639 -8.22363 15.2559 -10.0166c0.209961 -0.208984 -0.268555 -0.645508 23.2412 -26.7842c12.249 -13.6201 12.7275 -13.1826 14.4854 -15.5654
c0.291992 0.0263672 0.691406 0.0742188 1.19336 0.157227l0.59375 1.00684l0.263672 6.60352c-5.8916 22.2979 -5.82715 21.6816 -6.02637 23.1377c-1.8418 13.4062 -0.222656 13.5967 -3.53027 37.0889c-0.0507812 0.362305 -0.712891 29.0498 -0.985352 36.4766
c-0.883789 23.0811 -1.0957 22.1719 -0.750977 24.3076c1.07715 6.66602 3.55469 22.0303 16.5361 24.7676c10.792 2.27734 21.2559 -7.85645 22.6904 -9.78418l1.60742 -2.16016c4.3125 13.6846 4.17383 13.5947 5.18555 15.3135
c13.3594 22.7217 41.7588 15.2402 47.3799 -1.11133l4.74219 -13.7969c6.61719 22.2334 33.2295 18.9219 41.6973 2.89355c0.0996094 -0.152344 9.5127 -14.7773 9.86816 -15.3252c9.28809 12.0059 32.8105 14.0303 40.3145 -15.7686
c0.119141 -0.475586 0.207031 -0.957031 0.262695 -1.44238c2.2627 -19.6855 0.373047 -47.8379 -1.66602 -72.0986l6.13477 -95.0879c0.125977 -1.93359 -0.254883 -3.89258 -1.13965 -5.66211l-11.8223 -23.6445c-0.339844 -1.31738 -0.737305 -2.63281 -1.26172 -4.3252
c-1.47168 -4.74609 -3.02539 -7.48242 2.01074 -28.5986c1.65527 -6.94141 -3.60547 -13.624 -10.7451 -13.624zM876.615 518.115c0.378906 -6.74414 -2.32617 -24.4639 -1.57227 -28.7549c0.232422 -0.262695 0.470703 -0.670898 0.520508 -1.19727
c1.57129 -16.9092 15.4102 -33.5713 20.7646 -38.9248c1.08203 -1.08301 1.08203 -1.08301 4.22559 -3.51465c-0.369141 -0.241211 -0.369141 -0.241211 -6.00977 -4.00098c-0.855469 -0.571289 -2.01367 -0.438477 -2.71582 0.327148
c-9.04004 9.83398 -16.1406 17.5576 -22.4238 35.4951c-2.83984 -8.83984 -8.02051 -17.5225 -12.8057 -23.5996c-3.34375 -4.24512 -5.97559 -9.45801 -8.47656 -11.959c-0.762695 -0.762695 -1.96777 -0.816406 -2.79297 -0.164062
c-4.25 3.36621 -4.25 3.36621 -4.33691 3.45215c-0.755859 0.756836 -0.81543 1.94727 -0.179688 2.77148c2.3877 3.09668 10.2725 13.873 10.3779 14.0117c15.2637 20.0508 16.0049 46.6982 15.8838 61.0469c-0.0107422 1.18652 0.962891 2.14746 2.15039 2.12012
c5.62109 -0.125 5.62109 -0.125 6.43262 -0.935547c0.609375 -0.611328 0.919922 -1.51465 0.900391 -2.5459c-0.0078125 -0.347656 -0.0380859 -1.9209 0.0576172 -3.62793zM540.066 622.704h162.923l0.34082 81.8057c5.68457 -3.3623 11.3682 -6.72559 17.0518 -10.0889
l-0.300781 18.1094l-72.5215 42.0869l0.613281 0.258789c-9.0293 4.69336 -11.0264 5.79199 -16.4297 8.91992l-110.479 -45.5381v-16.8398c6.30566 2.65723 12.6113 5.3125 18.9189 7.96875zM555.771 638.417l-0.356445 77.3867l75.248 31.6953l57.2939 -33.8936
l-0.641602 -75.1885h-131.544zM263 663l65.3994 76.5l64.7998 -72.5996l-6.89941 -6.59961l-53.4004 62.6992l3 -216.3l-13.2002 0.600586l1.80078 215.699l-54.6006 -66zM42.9785 733.875l37.1856 54.043c2.2972 3.339 7.2715 3.346 9.6601 0.307l45.2248 -57.542
c2.131 -2.713 1.478 -6.789 -1.391 -8.702c-0.647 -0.431 -1.418 -0.742 -2.139 -0.887l-7.706 -1.555c-2.234 -0.451 -4.585 0.497 -5.902 2.171l-24.2928 30.88l1.1728 -123.925c0.0331 -3.491 -3.0537 -6.22 -6.3154 -6.048l-7.3701 0.389
c-3.2715 0.172 -5.6975 3.088 -5.6836 6.019l0.5781 122.085l-19.7881 -28.707c-1.9569 -2.839 -6.0404 -3.421 -8.7217 -1.252c-0.4091 0.331 -1.0518 1.102 -1.0918 1.158l-3.3505 4.665c-1.5485 2.155 -1.2675 5.16 -0.0694 6.901z" />
  </g>

</svg>
