<?xml version="1.0" standalone="no"?>
<!DOCTYPE svg PUBLIC "-//W3C//DTD SVG 1.1//EN" "http://www.w3.org/Graphics/SVG/1.1/DTD/svg11.dtd" >
<svg xmlns="http://www.w3.org/2000/svg" xmlns:xlink="http://www.w3.org/1999/xlink" version="1.1" viewBox="-10 0 1010 1000">
  <g transform="matrix(1 0 0 -1 0 800)">
   <path fill="currentColor"
d="M682.406 36.0518l26.5059 68.2842c62.9561 -102.438 62.4795 -142.953 90.0215 -184.836h87.0664v-43.5h-520.5v43.5h61.75l71.8213 190.713c20.3232 -33.0684 34.0498 -59.7168 44.2461 -82.0459l69.8027 168.227c31.5908 -51.4033 52.543 -109.279 69.2861 -160.342z
M57.5039 -16.9844h42.7031l13.2012 40.1738l13.2002 -40.1738h42.7041l-34.5127 -24.8428l13.2002 -40.1729l-34.5918 24.8428l-34.5928 -24.8428l13.2012 40.1729zM426.282 469.256l-37.8037 -56.3477l43.8301 -42.2354l-15.7246 -1.34082l-42.7607 41.2061l36.7354 57.377
zM377.146 627.938c96.3154 -41.6152 239.616 -12.3623 241.948 -117.313c2.19629 -101.803 -141.843 -72.2725 -236.7 -109.377c-6.25781 -2.21582 -6.20605 13.8848 -0.310547 16.793c85.6768 41.4844 228.238 -2.77246 226.126 92.3828
c-2.5332 98.9971 -142.503 60.0068 -230.83 104.919c-4.24316 2.37109 -4.81934 14.6094 -0.233398 12.5957z" />
  </g>

</svg>
