<?xml version="1.0" standalone="no"?>
<!DOCTYPE svg PUBLIC "-//W3C//DTD SVG 1.1//EN" "http://www.w3.org/Graphics/SVG/1.1/DTD/svg11.dtd" >
<svg xmlns="http://www.w3.org/2000/svg" xmlns:xlink="http://www.w3.org/1999/xlink" version="1.1" viewBox="-10 0 1020 1000">
  <g transform="matrix(1 0 0 -1 0 800)">
   <path fill="currentColor"
d="M30.3242 741.553h55.5146l17.1611 52.2256l17.1602 -52.2256h55.5156l-44.8672 -32.2959l17.1611 -52.2246l-44.9697 32.2959l-44.9707 -32.2959l17.1611 52.2246zM271 608l-12 60c128.725 89.7881 355.203 55.3633 442.457 48.5605
c0 -0.0107422 0.000976562 -0.0214844 0.000976562 -0.0322266c27.4463 0.582031 75.1855 -1.32129 107.268 -33.4033c40.1396 -40.1396 38.6152 -108.841 37.5254 -169.365c-0.395508 -21.9258 -0.433594 -33.2402 -0.22168 -41.9463
c26.3789 -43.8281 72.168 -89.959 89.3252 -129.607c6.95117 -16.0635 5.49219 -24.7637 2.64551 -40.2051l-12 -14l-79.501 -63.5771v-212.431c1.93945 -31.0869 1.82422 -79.2412 -27.416 -108.48c-26.0322 -26.0322 -182.507 -12.0195 -220.584 -13.0049
l-2.90137 0.0126953c-103.732 -7.2998 -296.108 50.6025 -326.603 92.1719c-18.5059 25.2275 -31.4014 41.2529 -57.9951 55.3086v70.0371c25.8174 -16.2627 49.624 -17.8066 70.1904 -60.6357c44.2188 -92.082 349.455 -105.734 451.309 -108.438l-0.499023 -0.962891
c50 12 34.1514 4.48145 42.5352 13.5361c19.1768 20.7119 3.97852 41.9688 5.50781 57.9648h-0.541992v2.14941c-0.253906 0.990234 -0.500977 1.94141 -0.738281 2.84863h0.738281v207.174v3.4873v1.33887h1.58203l104 88h1.13281
c4.9834 45.8955 -62.8379 92.1289 -94.2158 139.501l-3 4l-1 1c-2.02051 3.99219 0.0439453 4.02539 -2.08398 11.5605c-0.0371094 0.130859 -0.189453 0.24707 -0.174805 0.367188l0.258789 2.07227l0.0644531 1.49902
c0.00976562 0.226562 0.150391 3.89551 0.242188 6.24414c3.11426 79.1523 5.19727 173.389 -83.8154 173.771c-136.35 16.7461 -373.536 9.53418 -431.49 -46.5137zM306 348v-15.1875l158.145 -0.526367l-1.4502 82.2734l-156.694 0.87793v-15.21h137.181v-52.2275
h-137.181zM550.127 231.073c46.3232 0 84.0137 -25.332 84.0137 -56.4062c0 -7.69922 -2.26074 -15.0537 -6.75977 -22.1533l20.6191 -98.5137h-11.9062l-19.7695 85.9766c-6.8252 -5.72363 -13.0947 -9.3291 -20.2637 -12.5146v-74.8896h-11.8994v70.5264
c-4.47559 -1.30957 -16.7617 -4.83789 -34.0342 -4.83789c-9.21777 0 -17.2451 0.935547 -25.4844 2.65137l8.61914 -67.3877h-10.9521l-9.01172 70.4521c-14.4697 4.80664 -22.6592 10.7158 -27.1572 14.1807l-10.0605 -77.9687h-10.9521l11.2842 87.4492
c-2.51465 3.10156 -7.71777 10.0039 -9.59961 19.7412c-0.0732422 0 -0.146484 -0.000976562 -0.219727 -0.000976562c-5.04688 0 -10.6602 1.4668 -16.668 4.84863c-15.5908 8.77148 -32.1338 21.251 -32.1338 34.7061c0 16.8516 10.3672 24.3779 38.5645 24.3779
c18.2842 0 28.2812 -6.88672 32.7568 -18.0078c11.2119 7.93652 31.1318 17.7705 61.0146 17.7705zM465.128 60.1885h-0.541016l0.47168 -0.537109zM476.08 60.1885l-0.0537109 -0.415039l0.472656 0.415039h-0.418945zM522.31 53.5244h-0.418945l0.47168 -0.415039z
M533.262 53.5244l0.0683594 -0.537109l0.47168 0.537109h-0.540039zM584.161 52.5723h-0.476562l0.476562 -0.475586v0.475586zM596.061 52.5723v-0.475586l0.476562 0.475586h-0.476562zM636.094 54h-0.378906l0.463867 -0.368164zM648 54l0.121094 -0.573242
l0.464844 0.573242h-0.585938zM525.4 618.341l64.5996 -0.34082v0h3.05957l-3.73926 -206.72v-12.2402h-13.9404l-52.3594 0.34082v12.2393l52.3594 -0.339844l4.41992 195.84l-54.3994 0.339844v10.8809z" />
  </g>

</svg>
