<?xml version="1.0" standalone="no"?>
<!DOCTYPE svg PUBLIC "-//W3C//DTD SVG 1.1//EN" "http://www.w3.org/Graphics/SVG/1.1/DTD/svg11.dtd" >
<svg xmlns="http://www.w3.org/2000/svg" xmlns:xlink="http://www.w3.org/1999/xlink" version="1.1" viewBox="-10 0 1038 1000">
  <g transform="matrix(1 0 0 -1 0 800)">
   <path fill="currentColor"
d="M860.395 472.694c0 9.49902 0.360352 25.4824 0.360352 28.9053l-0.318359 61.375l-8.69434 54.7793l-24.0586 41.7607l-29.835 19.125l-33.9414 8.02539c-15.9834 0.617188 -31.9668 1.23438 -47.9502 1.85059v0.765625l-107.704 8.96191l-161.613 -4.84375
l-135.512 -48.0117l4.97461 -24.8711l90.1514 34.2031l168.52 13.9912l163.858 -8.05859l72.0586 -32.085l24.6855 -76.583c-11.2969 -92.7236 -11.5391 -94.709 -10.623 -98.1973c0.272461 -1.03711 0.408203 -1.9873 0.495117 -2.92188
c0.488281 -0.641602 1.13477 -1.58496 1.48633 -2.05664l30.4463 -40.7334l38.0439 -60.0674c7.97656 -11.168 15.9531 -22.335 23.9297 -33.502l-96.7109 -80.25l-3.2002 -219.288c0.962891 -7.5625 2.78418 -22.0117 5.01758 -45.877
c-0.128906 -0.270508 -9.65137 -20.9678 -12.835 -27.0205c-1.80566 -3.43262 -3.36328 -6.39453 -8.94434 -11.126c-28.7256 -6.87109 -37.6748 -9.0127 -53.7939 -9.0127c-3.38379 0 -6.77832 0.143555 -10.1738 0.446289l-127.95 -3.2207l-189.706 31.9736
l-119.909 72.0264c-7.29102 10.5146 -14.582 21.0303 -21.873 31.5449c-0.186523 0.126953 -14.9541 10.3477 -18.583 12.6523v-31.4629c5.41699 -3.87207 13.5068 -7.36328 24.4395 -17.251c7.32715 -6.625 2.0957 -4.45605 10.624 -11.9258
c1.03027 -0.902344 1.03027 -0.902344 17.2012 -21.8066l70.2637 -41.1387l123.979 -35.7695l40.835 -3.74512c52.8262 -4.9082 59.0674 -6.7334 83.0469 -7.42773l68.0801 -1.97266l89.7607 0.253906l51.1064 12.4922l15.1377 25.207l6.27637 34.1602l-0.268555 82.9482
l0.0292969 84.2285l-0.00585938 87.5186l84.7832 67.8018l7.68652 8.9668l1.11426 7.19531c0.449219 7.6123 -1.52441 12.8027 -3.31152 18.1787l-23.3311 38.8438l-33.0244 43.4482l-34.3174 48.9014c-0.203125 16.1299 -0.203125 16.1299 -0.203125 17.6953z
M62.3203 730.375h55.5146l17.1611 52.2256l17.1602 -52.2256h55.5156l-44.8672 -32.2959l17.1611 -52.2246l-44.9697 32.2959l-44.9707 -32.2959l17.1611 52.2246zM558.524 373.35zM558.33 371.046zM699.198 347.061c0 -17.8662 -5.82227 -35.293 -20.9639 -50.4336
c-6.7793 -6.7793 -12.4941 -11.4873 -17.7412 -14.7354c30.8721 5.50098 71.0771 19.7881 97.3818 65.4541c-5.71289 9.89648 -12.5928 18.876 -20.6924 26.9756c-17.7441 17.7451 -42.5293 32.3164 -75.3184 38.3555
c-0.410156 0.0761719 -0.266602 -0.49707 -1.58203 -0.105469c-0.870117 0.260742 -3.45996 1.03418 -7.16797 1.6748c7.97656 -3.14062 16.4648 -8.30566 24.8164 -16.6562c14.7783 -14.7793 21.2676 -31.8828 21.2676 -50.5293zM625.74 295.229
c20.0908 0 31.7031 9.6416 37.9453 15.8838c13.1611 13.1602 15.0322 27.0107 15.0322 36.1523c-0.0458984 13.0947 -4.45996 25.2139 -15.0293 35.7812c-21.4502 21.4512 -47.0137 16.6133 -58.5859 11.6143c-0.110352 0 -16.2852 -10.6719 -16.4492 -10.7803
c-4.21582 -6.13477 -8.35938 -12.3438 -12.5469 -18.5068l-0.0419922 0.015625c-6.79004 -18.7998 -3.50879 -39.2852 11.8418 -54.6357c10.5889 -10.5898 23.2363 -15.5244 37.834 -15.5244zM629.036 257.03v-0.000976563c-19.1904 0 -82.7422 0.916016 -133.996 52.1709
c-11.4297 11.4287 -20.4492 23.7861 -28.5225 38.1455c-0.0283203 0.0488281 -0.0556641 0.0966797 -0.0830078 0.146484l0.0830078 -0.146484c9.14355 16.2637 18.4902 28.209 29.3213 39.041c24.8457 24.8457 66.7393 51.4863 133.197 51.4863
c17.1201 0 81.8994 -0.302734 133.156 -51.5576c11.6914 -11.6924 20.873 -24.3252 29.0049 -38.9688c0.0273438 -0.0488281 0.0537109 -0.0976562 0.0810547 -0.144531l-0.0810547 0.144531c-4.34473 -7.8291 -13.1738 -22.9697 -28.4551 -38.251
c-50.8018 -50.8018 -113.483 -52.0654 -133.706 -52.0654zM596.337 412.828c-53.4609 -9.71973 -80.9453 -38.5381 -96.4922 -65.4814c6.64258 -11.4639 14.1406 -20.332 20.7061 -26.8975c15.4307 -15.4316 38.4814 -30.8418 71.9424 -37.6973
c-6.35352 3.11719 -12.9717 7.55469 -19.3027 13.8867c-24.418 24.417 -24.0527 55.1621 -16.2549 75.5596c0.119141 0.177734 0.0683594 0.291992 -0.114258 0.356445c-0.296875 1.57031 4.27734 9.33691 5.02832 11.25c0.93457 2.38281 2.0459 3.53906 3.83203 5.15332
c1.25098 1.12793 1.27246 1.15039 2.12305 2.56934c1.27441 2.12695 1.33203 2.24902 6.90527 7.82129c4.38477 4.38574 14.6514 10.8564 21.627 13.4795zM255.368 351.73l124.807 -61.1504l-73.6465 -105.21l21.0137 -17.0742l92.458 132.704l-121.045 60.5225
c15.8516 20.3809 32.2119 41.4824 57.7451 75.0322l-18.8604 22.7002z" />
  </g>

</svg>
