<?xml version="1.0" standalone="no"?>
<!DOCTYPE svg PUBLIC "-//W3C//DTD SVG 1.1//EN" "http://www.w3.org/Graphics/SVG/1.1/DTD/svg11.dtd" >
<svg xmlns="http://www.w3.org/2000/svg" xmlns:xlink="http://www.w3.org/1999/xlink" version="1.1" viewBox="-10 0 1008 1000">
  <g transform="matrix(1 0 0 -1 0 800)">
   <path fill="currentColor"
d="M317.547 143.929l-82.2217 148.848l24.0225 10.1475l58.4395 -100.383l53.3027 101.418l27.2285 -11.0254zM234.634 -21.4717v34.6641h38.626v22.0713h-38.626v34.6641h38.626v33.7148h31.3828v-33.7148h23.2197v31.2539h31.3828v-31.2539h41.292v-34.6641h-41.292
v-22.0713h41.292v-34.6641h-41.292v-36.1855h-31.3828v36.1855h-23.2197v-33.7246h-31.3828v33.7246h-38.626zM304.643 13.1924h23.2197v22.0713h-23.2197v-22.0713zM749.725 270.14c-0.529297 0 -0.985352 0.173828 -1.32227 0.358398l-214.094 -88.2627v-37.8242
c12.126 5.10742 24.251 10.2148 36.376 15.3213v-3.77051l-0.21875 -161.659h318.305l0.646484 155.446c10.9619 -6.48535 21.9238 -12.9697 32.8867 -19.4551l-0.677734 40.7051l-136.33 79.1182l1.46387 0.616211c-22.6963 11.7715 -24.457 12.7314 -36.2109 19.5508
c-0.288086 -0.102539 -0.56543 -0.144531 -0.824219 -0.144531zM853.659 29.5205h-248.003l-0.665039 144.662l142.009 59.8174l107.859 -63.8086zM23.4199 6.75586h55.5146l17.1611 52.2256l17.1602 -52.2256h55.5156l-44.8672 -32.2959l17.1611 -52.2246l-44.9697 32.2959
l-44.9707 -32.2959l17.1611 52.2246zM668.239 681.922zM667.789 649.071zM624.586 653.122v0h43.6533v27.0205l-42.5059 -0.301758zM716.102 653.122l-1.43359 27.3506l-41.0293 -0.291992v-27.0586h42.4629zM717 636l-93.167 -0.414062l-26.8291 -216.579l150.619 2.75684z
M756.991 688.232l0.750977 -0.678711l-0.750977 -0.333984v1.0127v0zM585.991 689.098v-0.977539l-0.743164 0.341797zM776.468 399.84zM576.889 397.071l-0.0126953 -0.466797l-0.455078 0.461914zM737.559 703.316l-0.0195312 0.430664l0.452148 -0.429688
c-0.144531 0 -0.288086 -0.000976562 -0.432617 -0.000976562v0zM602.854 702.693l134.704 0.623047l32.8301 -303.545l-193.5 -2.7002zM602.854 702.693c-0.145508 0 -0.291016 -0.00195312 -0.435547 -0.00195312l0.447266 0.4375zM673.741 778.941v0v-0.189453v0.189453
l0.667969 0.374023v0l0.580078 -0.482422v0s-0.000976562 -0.0175781 -0.000976562 -0.0400391l82.4531 -74.4736v-17.0996l-83.5508 75.4658l-88.3496 -74.5566v16.1934l88.2002 74.4287v0.155273v0.0351562v0zM261 688.85l85.5 -0.450195v0h4.0498l-4.94922 -273.6
v-16.2002h-18.4502l-69.2998 0.450195v16.2002l69.2998 -0.450195l5.84961 259.2l-72 0.449219v14.4004z" />
  </g>

</svg>
