<?xml version="1.0" standalone="no"?>
<!DOCTYPE svg PUBLIC "-//W3C//DTD SVG 1.1//EN" "http://www.w3.org/Graphics/SVG/1.1/DTD/svg11.dtd" >
<svg xmlns="http://www.w3.org/2000/svg" xmlns:xlink="http://www.w3.org/1999/xlink" version="1.1" viewBox="-10 0 1001 1000">
  <g transform="matrix(1 0 0 -1 0 800)">
   <path fill="currentColor"
d="M35.8232 734.879h55.5146l17.1611 52.2256l17.1602 -52.2256h55.5156l-44.8672 -32.2959l17.1611 -52.2246l-44.9697 32.2959l-44.9707 -32.2959l17.1611 52.2246zM276.499 601.326l-12 60c128.725 89.7881 355.203 55.3633 442.457 48.5605
c0 -0.0107422 0.000976562 -0.0214844 0.000976562 -0.0322266c27.4463 0.582031 75.1855 -1.32129 107.268 -33.4033c40.1396 -40.1396 38.6152 -108.841 37.5254 -169.365c-0.395508 -21.9258 -0.433594 -33.2402 -0.22168 -41.9463
c26.3789 -43.8281 72.168 -89.959 89.3252 -129.607c6.95117 -16.0635 5.49219 -24.7637 2.64551 -40.2051l-12 -14l-79.501 -63.5771v-212.431c1.93945 -31.0869 1.82422 -79.2412 -27.416 -108.48c-26.0322 -26.0322 -182.507 -12.0195 -220.584 -13.0049
l-2.90137 0.0126953c-103.732 -7.2998 -296.108 50.6025 -326.603 92.1719c-18.5059 25.2275 -31.4014 41.2529 -57.9951 55.3086v70.0371c25.8174 -16.2627 49.624 -17.8066 70.1904 -60.6357c44.2188 -92.082 349.455 -105.734 451.309 -108.438l-0.499023 -0.962891
c50 12 34.1514 4.48145 42.5352 13.5361c19.1768 20.7119 3.97852 41.9688 5.50781 57.9648h-0.541992v2.14941c-0.253906 0.990234 -0.500977 1.94141 -0.738281 2.84863h0.738281v207.174v3.4873v1.33887h1.58203l104 88h1.13281
c4.9834 45.8955 -62.8379 92.1289 -94.2158 139.501l-3 4l-1 1c-2.02051 3.99219 0.0439453 4.02539 -2.08398 11.5605c-0.0371094 0.130859 -0.189453 0.24707 -0.174805 0.367188l0.258789 2.07227l0.0644531 1.49902
c0.00976563 0.226562 0.150391 3.89551 0.242188 6.24414c3.11426 79.1523 5.19727 173.389 -83.8154 173.771c-136.35 16.7461 -373.536 9.53418 -431.49 -46.5137zM365.597 297.796h7.80078c0.192383 -5.37598 0.384766 -10.752 0.576172 -16.1279
c29.7188 1.04004 56.5859 13.5576 76.2812 33.252c7.1582 7.15918 13.3701 15.2666 18.4268 24.1152l-12.4814 6.62305l-1.53613 -2.43164l-76.5469 36.1172c-2.49707 -1.36816 -5.36426 -2.14551 -8.41211 -2.14551c-9.68457 0 -17.5332 7.84961 -17.5332 17.5332
c0 7.40137 4.58496 13.7295 11.0684 16.3027v81.7617h1.80078v14.9404c-15.3008 -0.720703 -58.8682 -6.62988 -88.0127 -49.1924l13.1514 -7.59375l-4.5 -7.79395c-4.48047 2.58691 -8.95996 5.17285 -13.4404 7.75977c-9.5 -16.5586 -14.9326 -35.7412 -14.9326 -56.1865
c0 -19.9404 5.19922 -38.7041 14.3184 -55.0059c4.63477 2.67578 9.26855 5.35156 13.9033 8.02832l4.50098 -7.79492c-4.56738 -2.63672 -9.13379 -5.27344 -13.7012 -7.91016c19.585 -29.292 52.4414 -48.9727 89.8447 -50.3711
c-0.192383 5.37305 -0.383789 10.7471 -0.576172 16.1201zM494.141 394.73c0 -68.2803 -55.417 -123.697 -123.7 -123.697c-68.2832 0 -123.7 55.417 -123.7 123.7c0 67.8809 55.0869 123.29 122.963 123.697h0.248047c68.292 0 123.917 -55.4219 124.189 -123.7z
M374.04 507.807v-15.0107h1.17871l2.9541 -82.708c4.79395 -2.64844 8.21484 -7.47754 8.92773 -13.1484l75.3877 -41.3242l-2.1123 -3.3457l11.9385 -6.33594c7.14648 14.7793 11.1846 31.3301 11.2598 48.8027c0 21.1045 -5.78906 40.8594 -15.8643 57.7744
c-4.3623 -2.73047 -8.72461 -5.46191 -13.0869 -8.19238l-3.90137 6.75684c4.25586 2.66406 8.5127 5.3291 12.7695 7.99316c-8.72949 12.5957 -37.3193 47.1055 -89.4512 48.7383zM741 190l-78.8096 68.168l-13.9277 -15.8311l50.6943 -42.4346l-184.389 -0.213867
l1.14062 -21.6953l183.085 1.47949l-48.3369 -40.6885l14.7744 -15.6279z" />
  </g>

</svg>
