<?xml version="1.0" standalone="no"?>
<!DOCTYPE svg PUBLIC "-//W3C//DTD SVG 1.1//EN" "http://www.w3.org/Graphics/SVG/1.1/DTD/svg11.dtd" >
<svg xmlns="http://www.w3.org/2000/svg" xmlns:xlink="http://www.w3.org/1999/xlink" version="1.1" viewBox="-10 0 1020 1000">
  <g transform="matrix(1 0 0 -1 0 800)">
   <path fill="currentColor"
d="M30.3242 741.553h55.5146l17.1611 52.2256l17.1602 -52.2256h55.5156l-44.8672 -32.2959l17.1611 -52.2246l-44.9697 32.2959l-44.9707 -32.2959l17.1611 52.2246zM271 608l-12 60c128.725 89.7881 355.203 55.3633 442.457 48.5605
c0 -0.0107422 0.000976562 -0.0214844 0.000976562 -0.0322266c27.4463 0.582031 75.1855 -1.32129 107.268 -33.4033c40.1396 -40.1396 38.6152 -108.841 37.5254 -169.365c-0.395508 -21.9258 -0.433594 -33.2402 -0.22168 -41.9463
c26.3789 -43.8281 72.168 -89.959 89.3252 -129.607c6.95117 -16.0635 5.49219 -24.7637 2.64551 -40.2051l-12 -14l-79.501 -63.5771v-212.431c1.93945 -31.0869 1.82422 -79.2412 -27.416 -108.48c-26.0322 -26.0322 -182.507 -12.0195 -220.584 -13.0049
l-2.90137 0.0126953c-103.732 -7.2998 -296.108 50.6025 -326.603 92.1719c-18.5059 25.2275 -31.4014 41.2529 -57.9951 55.3086v70.0371c25.8174 -16.2627 49.624 -17.8066 70.1904 -60.6357c44.2188 -92.082 349.455 -105.734 451.309 -108.438l-0.499023 -0.962891
c50 12 34.1514 4.48145 42.5352 13.5361c19.1768 20.7119 3.97852 41.9688 5.50781 57.9648h-0.541992v2.14941c-0.253906 0.990234 -0.500977 1.94141 -0.738281 2.84863h0.738281v207.174v3.4873v1.33887h1.58203l104 88h1.13281
c4.9834 45.8955 -62.8379 92.1289 -94.2158 139.501l-3 4l-1 1c-2.02051 3.99219 0.0439453 4.02539 -2.08398 11.5605c-0.0371094 0.130859 -0.189453 0.24707 -0.174805 0.367188l0.258789 2.07227l0.0644531 1.49902
c0.00976562 0.226562 0.150391 3.89551 0.242188 6.24414c3.11426 79.1523 5.19727 173.389 -83.8154 173.771c-136.35 16.7461 -373.536 9.53418 -431.49 -46.5137zM159.652 360.794zM159.426 358.115zM320.396 330.232c0 20.9902 -7.22852 40.0879 -23.9082 56.7676
c-9.43945 9.43945 -18.9717 15.2236 -27.9004 18.7402l-25.3428 9.98242c31.3027 -5.40723 31.3027 -5.40723 35.4141 -6.63477c0.451172 0.154297 1.04297 0.276367 1.63379 0.166992c38.668 -7.12305 68.0078 -24.3438 89.0225 -45.3584
c10.8867 -10.8867 18.3525 -21.291 25.3027 -33.3311c-18.1152 -31.4482 -49.0869 -66.9258 -115.936 -78.8369l-14.3691 -2.56055c12.9873 7.9707 20.2305 11.8789 32.5303 24.4102c17.0615 17.0615 23.5527 36.5205 23.5527 56.6543zM237.791 267.188
c-17.6377 0 -33.1357 6.04297 -45.9561 18.8652c-18.6396 18.6396 -22.6377 43.6768 -14.416 66.4365l0.955078 2.64258l0.635742 -0.235352c12.9219 19.0713 12.9219 19.0713 13.6787 20.1729c20.1943 13.2207 20.1943 13.2207 20.4609 13.2549
c14.2617 5.99707 44.9863 11.458 70.7285 -14.2852c12.7988 -12.7988 18.2334 -27.6885 18.2891 -43.5693c0 -11.0332 -2.33691 -28.0439 -18.292 -44c-7.48926 -7.48828 -21.7451 -19.2822 -46.084 -19.2822zM426.938 330.562
c-9.9209 17.6084 -58.1865 102.45 -185.317 102.45c-76.4531 0 -124.402 -30.5713 -152.868 -59.0361c-12.124 -12.123 -22.583 -25.4014 -32.8525 -43.4121c9.08398 -15.9248 19.2012 -29.6484 31.9229 -42.3701c47.2119 -47.2119 105.261 -59.833 153.798 -59.833
c23.3398 0 95.2373 1.48633 153.461 59.7109c16.6533 16.6523 26.6211 33.167 31.8564 42.4902zM204.594 404.077c-7.6084 -2.86035 -19.5195 -10.3984 -24.1533 -15.0312c-6.18945 -6.19043 -6.18945 -6.19043 -7.60547 -8.55273
c-1.1875 -1.98047 -1.44434 -2.22949 -2.99414 -3.62695c-2.17773 -1.9668 -2.91016 -2.85742 -3.72754 -4.94141c-0.640625 -1.63184 -4.48047 -8.58691 -5.55762 -11.5781c0.143555 -0.701172 0.0439453 -1.39746 -0.145508 -1.89062
c-8.76172 -22.9434 -9.18945 -57.4131 18.2637 -84.8662c7.12988 -7.12988 14.5615 -12.1104 21.6973 -15.6113l19.6172 -9.62402l-21.4102 4.38672c-39.4727 8.08691 -66.7725 26.3115 -85.043 44.582c-10.8418 10.8418 -18.3779 21.2539 -25.3213 33.2393
c13.0342 22.5908 42.0938 65.6328 114.893 78.8691zM551.797 400.739zM551.397 371.539zM512.994 375.14v0h38.8027v24.0186l-37.7822 -0.268555zM594.342 375.14l-1.27441 24.3115l-36.4707 -0.258789v-24.0527h37.7451zM595.14 359.92l-82.8145 -0.368164
l-23.8477 -192.515l133.883 2.4502zM630.688 406.349l0.667969 -0.603516l-0.667969 -0.296875v0.900391v0zM478.688 407.118v-0.869141l-0.660156 0.303711zM648 150zM470.597 147.539l-0.0107422 -0.415039l-0.404297 0.410156zM613.415 419.757l-0.0175781 0.382812
l0.401367 -0.381836c-0.12793 0 -0.255859 -0.000976562 -0.383789 -0.000976562v0zM493.678 419.203l119.737 0.553711l29.1816 -269.817l-172 -2.40039zM493.678 419.203c-0.128906 0 -0.258789 -0.00195312 -0.387695 -0.00195312l0.398438 0.389648zM556.688 486.979
v-0.000976563v-0.167969v0.167969l0.594727 0.333008v0l0.514648 -0.428711v0v-0.0361328l73.291 -66.1982v-15.2002l-74.2676 67.0811l-78.5322 -66.2725v14.3936l78.4004 66.1592v0.138672v0.0302734z" />
  </g>

</svg>
