<?xml version="1.0" standalone="no"?>
<!DOCTYPE svg PUBLIC "-//W3C//DTD SVG 1.1//EN" "http://www.w3.org/Graphics/SVG/1.1/DTD/svg11.dtd" >
<svg xmlns="http://www.w3.org/2000/svg" xmlns:xlink="http://www.w3.org/1999/xlink" version="1.1" viewBox="-10 0 1010 1000">
  <g transform="matrix(1 0 0 -1 0 800)">
   <path fill="currentColor"
d="M637.372 200.365c0.128906 0.62207 0.251953 1.58203 0.251953 3.07617c0 2.24219 -0.21582 5.49219 -0.626953 9.92578c-9.57227 0.225586 -15.6797 0.357422 -20.6035 0.357422c-3.85254 0 -5.1875 -0.0136719 -12.6504 -0.357422
c-1.56836 9.77344 -5.90137 36.7842 -32.9619 57.248l-2.58594 1.95508c6.18359 11.2949 10.3262 18.7666 17.5332 29.9766l-11.6094 6.7207c-4.8623 -7.45703 -8.11133 -12.4775 -18.2227 -29.6133c-7.18164 3.00879 -18.3936 7.70801 -35.2393 7.70801
c-9.13867 0 -14.9883 -1.27148 -21.5889 -2.70703c-3.51953 12.958 -5.87988 21.3818 -10.9014 34.5566c-5.81445 -2.49805 -8.24902 -3.29395 -12.9229 -4.10059c5.9375 -17.8281 8.03125 -24.5908 11.1602 -34.8799c-6.51172 -3.16602 -15.4902 -7.52832 -25.3789 -17.418
c-12.9473 -12.9473 -21.2812 -29.8291 -23.7852 -47.6768l-0.489258 -3.49023c-10.8389 0.850586 -18.0176 1.37305 -38.1787 2.1709c0.242188 -2.90039 0.373047 -5.07812 0.373047 -6.9834c0 -2.61621 -0.24707 -4.71973 -0.792969 -7.47656
c18.3926 -0.0664062 25.8252 -0.335938 38.3877 -1.16699c0.963867 -9.61035 3.7793 -37.7197 30.6963 -59.7969l2.64062 -2.16602c-9.42188 -14.0029 -13.957 -20.7441 -23.4111 -35.3535h-115.466v-16.874h380.249v16.874h-129.445
c-6.99512 18.5791 -9.17773 23.1582 -14.0283 33.0605c4.53613 3.33398 7.77344 5.71387 12.2646 10.2041c18.9609 18.9619 23.1406 41.8301 24.0029 52.5488l0.272461 3.39062c7.34082 0.118164 20.2539 0.301758 30.7373 0.301758
c1.64258 0 1.94531 -0.0166016 1.96484 -0.0166016c0.132812 0 0.251953 0.00195312 0.354492 0.00195312zM590.568 203.275c0 -39.25 -32.0508 -69.8789 -70.3682 -69.8789c-39.1787 0 -69.8906 31.8047 -69.8906 70.2266c0 38.4336 31.3271 69.9365 70.21 69.9365
c38.2646 0 70.0488 -30.9834 70.0488 -70.2842zM519.998 119.401c16.4365 0 27.7676 4.49219 35.0918 7.39648l10.9365 -25.9238h-102.179c8.5791 14.1895 10.6699 17.6465 17.4756 28.123c7.62793 -3.65332 20.0342 -9.5957 38.6748 -9.5957zM48.3545 723.521h55.5146
l17.1611 52.2256l17.1602 -52.2256h55.5156l-44.8672 -32.2959l17.1611 -52.2246l-44.9697 32.2959l-44.9707 -32.2959l17.1611 52.2246zM271 608l-12 60c128.725 89.7881 355.203 55.3633 442.457 48.5605c0 -0.0107422 0.000976562 -0.0214844 0.000976562 -0.0322266
c27.4463 0.582031 75.1855 -1.32129 107.268 -33.4033c40.1396 -40.1396 38.6152 -108.841 37.5254 -169.365c-0.395508 -21.9258 -0.433594 -33.2402 -0.22168 -41.9463c26.3789 -43.8281 72.168 -89.959 89.3252 -129.607
c6.95117 -16.0635 5.49219 -24.7637 2.64551 -40.2051l-12 -14l-79.501 -63.5771v-212.431c1.93945 -31.0869 1.82422 -79.2412 -27.416 -108.48c-26.0322 -26.0322 -182.507 -12.0195 -220.584 -13.0049l-2.90137 0.0126953
c-103.732 -7.2998 -296.108 50.6025 -326.603 92.1719c-18.5059 25.2275 -31.4014 41.2529 -57.9951 55.3086v70.0371c25.8174 -16.2627 49.624 -17.8066 70.1904 -60.6357c44.2188 -92.082 349.455 -105.734 451.309 -108.438l-0.499023 -0.962891
c50 12 34.1514 4.48145 42.5352 13.5361c19.1768 20.7119 3.97852 41.9688 5.50781 57.9648h-0.541992v2.14941c-0.253906 0.990234 -0.500977 1.94141 -0.738281 2.84863h0.738281v207.174v3.4873v1.33887h1.58203l104 88h1.13281
c4.9834 45.8955 -62.8379 92.1289 -94.2158 139.501l-3 4l-1 1c-2.02051 3.99219 0.0439453 4.02539 -2.08398 11.5605c-0.0371094 0.130859 -0.189453 0.24707 -0.174805 0.367188l0.258789 2.07227l0.0644531 1.49902
c0.00976562 0.226562 0.150391 3.89551 0.242188 6.24414c3.11426 79.1523 5.19727 173.389 -83.8154 173.771c-136.35 16.7461 -373.536 9.53418 -431.49 -46.5137zM501 378l-86.4521 162.979l14.4004 6.08301l73.3018 -128.844l75.832 133.645l19.4658 -7.88379z" />
  </g>

</svg>
