<?xml version="1.0" standalone="no"?>
<!DOCTYPE svg PUBLIC "-//W3C//DTD SVG 1.1//EN" "http://www.w3.org/Graphics/SVG/1.1/DTD/svg11.dtd" >
<svg xmlns="http://www.w3.org/2000/svg" xmlns:xlink="http://www.w3.org/1999/xlink" version="1.1" viewBox="-10 0 1051 1000">
  <g transform="matrix(1 0 0 -1 0 800)">
   <path fill="currentColor"
d="M828.399 483.872c0 9.49878 0.360099 25.4826 0.360099 28.905l-0.318652 61.3747l-8.69455 54.78l-24.0577 41.7601l-29.8355 19.1251l-33.9409 8.02542l-47.9505 1.85133v0.765382l-107.704 8.96128l-161.614 -4.8437l-135.511 -48.0118l4.97421 -24.8711
l90.1513 34.2037l168.519 13.9909l163.859 -8.05849l72.0585 -32.0852l24.6852 -76.5829c-11.2968 -92.7231 -11.5388 -94.7093 -10.6225 -98.1968c0.272553 -1.03738 0.408327 -1.98777 0.495372 -2.92219c0.487753 -0.641757 1.13403 -1.58506 1.4862 -2.05622
l30.4464 -40.7334l38.0432 -60.0682l23.93 -33.502l-96.7113 -80.2498l-3.19974 -219.288c0.962733 -7.56244 2.78458 -22.0112 5.01798 -45.877c-0.12894 -0.269919 -9.65147 -20.9678 -12.8349 -27.02c-1.80565 -3.43278 -3.36365 -6.39475 -8.94453 -11.1259
c-28.726 -6.87192 -37.6748 -9.01268 -53.7943 -9.01268c-3.38415 0 -6.77838 0.14333 -10.1737 0.446144l-127.95 -3.2205l-189.706 31.9736l-119.91 72.0259l-21.8729 31.5454c-0.18608 0.126152 -14.9542 10.3475 -18.5829 12.6523v-31.4635
c5.41685 -3.87145 13.5068 -7.36272 24.4398 -17.2503c7.32645 -6.62591 2.09556 -4.45645 10.6241 -11.9264c1.03002 -0.902171 1.03002 -0.902171 17.2005 -21.8062l70.2643 -41.1391l123.979 -35.7692l40.8353 -3.74581
c52.8258 -4.90757 59.0669 -6.73248 83.0467 -7.42728l68.08 -1.97257l89.7606 0.254271l51.1066 12.4914l15.1376 25.2075l6.27671 34.16l-0.268638 82.9487l0.0291888 84.2282l-0.00582149 87.5189l84.7837 67.8016l7.68593 8.96692l1.11464 7.19504
c0.44913 7.61262 -1.52476 12.8022 -3.31214 18.1783l-23.3304 38.8443l-33.0243 43.448l-34.3179 48.9016c-0.202711 16.1296 -0.202711 16.1296 -0.202711 17.6951zM33.2949 712.521h55.5146l17.1611 52.2256l17.1602 -52.2256h55.5156l-44.8672 -32.2959
l17.1611 -52.2246l-44.9697 32.2959l-44.9707 -32.2959l17.1611 52.2246zM534.116 252.884c-2.46191 -3.49512 -3.73633 -5.09766 -6.13965 -7.24902c9.99023 -8.43848 15.9443 -13.5537 26.2012 -22.7139c-4.83008 -7.23926 -14.9043 -22.335 -14.9043 -46.1611
c0 -11.7041 2.55273 -22.8105 7.13281 -32.7998l1.44727 -3.15625c-8.56641 -4.31641 -15.7559 -7.98438 -32.1074 -17.0947c2.82227 -3.88965 4.04785 -5.93359 5.1875 -8.79102c12.4092 7.50391 19.7188 11.708 31.6572 17.8877
c3.25684 -4.45703 5.5459 -7.58984 9.90234 -11.9463c16.9346 -16.9346 36.9434 -21.3027 46.3887 -22.4053l3.32324 -0.388672c-0.93457 -21.2295 -1.15918 -27.9463 -1.37598 -35.5781c5.88184 -0.430664 7.83887 -0.542969 10.4951 -0.573242
c-0.0507812 5.23438 -0.0771484 9.96484 -0.0771484 14.2568c0 8.08105 0.0449219 12.4316 0.344727 21.7588c9.78711 0.820312 31.7783 2.66406 52.3223 23.209c2.89355 2.89258 4.72363 4.72266 10.4805 12.7744c11.501 -8.30664 17.3711 -12.5195 25.5713 -18.3525
c2.55664 3.57715 3.69531 5.29004 5.70508 8.80176c-8.94336 6.96289 -14.8496 11.3086 -26.3018 18.4854c3.01074 7.00879 7.60547 17.7012 7.60547 33.4355c0 17.5293 -6.02344 31.2041 -9.32812 37.3818l-1.5752 2.94434
c0.269531 0.171875 17.5391 11.1123 27.0342 16.9219c-1.89844 3.09668 -2.99316 4.72266 -4.96777 7.37988c-14.7217 -8.52832 -17.6514 -10.2266 -27.1289 -16.7529c-3.36621 4.08496 -4.63281 5.62305 -7.40039 8.39062
c-18.0361 18.0361 -39.2998 22.002 -49.5498 22.8057l-3.15332 0.248047c-0.643555 12.9268 -0.841797 19.5518 -0.841797 27.0498c0 2.34766 0.0263672 4.36914 0.0625 6.15723l-9.28223 -0.220703c-0.15332 -5.54102 -0.210938 -10.6172 -0.210938 -15.5342
c0 -3.57324 0 -6.12207 0.191406 -17.7061c-8.71875 -1.16016 -29.3486 -3.90332 -48.3389 -22.8145l-2.48145 -2.4707c-12.9346 12.2861 -18.3369 16.9141 -25.8877 22.8203zM617.811 107.612c-37.0449 0.0214844 -68.8428 30.4395 -68.8428 69.1445
c0 38.167 30.9805 69.1455 69.1465 69.1455c38.1611 0 69.1455 -30.9746 69.1455 -69.1338c-0.163086 -38.1738 -31.2822 -69.1562 -69.4492 -69.1562zM514.208 301.235l-103.958 188.195l12 5.06934l93 -159.75l84.75 161.25l16.2227 -6.56934zM159.101 404.3l65.3994 76.5
l64.7998 -72.5996l-6.89941 -6.59961l-53.4004 62.6992l3 -216.3l-13.2002 0.600586l1.80078 215.699l-54.6006 -66z" />
  </g>

</svg>
