<?xml version="1.0" standalone="no"?>
<!DOCTYPE svg PUBLIC "-//W3C//DTD SVG 1.1//EN" "http://www.w3.org/Graphics/SVG/1.1/DTD/svg11.dtd" >
<svg xmlns="http://www.w3.org/2000/svg" xmlns:xlink="http://www.w3.org/1999/xlink" version="1.1" viewBox="-10 0 1051 1000">
  <g transform="matrix(1 0 0 -1 0 800)">
   <path fill="currentColor"
d="M271 608l-12 60c128.725 89.7881 355.203 55.3633 442.457 48.5605c0 -0.0107422 0.000976562 -0.0214844 0.000976562 -0.0322266c27.4463 0.582031 75.1855 -1.32129 107.268 -33.4033c40.1396 -40.1396 38.6152 -108.841 37.5254 -169.365
c-0.395508 -21.9258 -0.433594 -33.2402 -0.22168 -41.9463c26.3789 -43.8281 72.168 -89.959 89.3252 -129.607c6.95117 -16.0635 5.49219 -24.7637 2.64551 -40.2051l-12 -14l-79.501 -63.5771v-212.431c1.93945 -31.0869 1.82422 -79.2412 -27.416 -108.48
c-26.0322 -26.0322 -182.507 -12.0195 -220.584 -13.0049l-2.90137 0.0126953c-103.732 -7.2998 -296.108 50.6025 -326.603 92.1719c-18.5059 25.2275 -31.4014 41.2529 -57.9951 55.3086v70.0371c25.8174 -16.2627 49.624 -17.8066 70.1904 -60.6357
c44.2188 -92.082 349.455 -105.734 451.309 -108.438l-0.499023 -0.962891c50 12 34.1514 4.48145 42.5352 13.5361c19.1768 20.7119 3.97852 41.9688 5.50781 57.9648h-0.541992v2.14941c-0.253906 0.990234 -0.500977 1.94141 -0.738281 2.84863h0.738281v207.174v3.4873
v1.33887h1.58203l104 88h1.13281c4.9834 45.8955 -62.8379 92.1289 -94.2158 139.501l-3 4l-1 1c-2.02051 3.99219 0.0439453 4.02539 -2.08398 11.5605c-0.0371094 0.130859 -0.189453 0.24707 -0.174805 0.367188l0.258789 2.07227l0.0644531 1.49902
c0.00976562 0.226562 0.150391 3.89551 0.242188 6.24414c3.11426 79.1523 14.1973 176.389 -74.8154 176.771c-136.35 16.7461 -373.536 9.53418 -431.49 -46.5137zM30.3545 728.521h55.5146l17.1611 52.2256l17.1602 -52.2256h55.5156l-44.8672 -32.2959l17.1611 -52.2246
l-44.9697 32.2959l-44.9707 -32.2959l17.1611 52.2246zM633.39 374.229zM462.39 490.229zM430.39 431.229zM555.39 353.229zM554.39 346.229zM459.39 373.229zM514.39 356.229zM664.39 444.229zM430.39 431.229zM664.39 444.229zM588.39 520.229c-12 0 -23 -5 -28 -10
c-2 -2 -1 -3 -2 -3c-4 -1 -7 -1 -10 -1s-9 0 -15 3c-4 5 -11 9 -23 9c-18 0 -38 -11 -45 -27l-1 -1h-1l-32 -43h-1v-2l-1 -1v0l-3 -13h-1v-4v0v-2c0 -10 5 -29 33 -52c30 -24 62 -28 90 -28c45 0 64 7 91 28c33 26 34 34 35 53h-1s-5 17 -6 21l-24 40c-3 3 -2 4 -2 4h-1
c-8 9 -26 24 -43 28c-3 1 -6 1 -9 1zM509.39 508.229c3 0 9 0 15 -4v-1l1 -1c5 -5 14 -8 22 -8c7 0 15 2 19 6c1 1 2 2 3 5c4 3 10 6 19 6c12 0 18 -5 22 -9c3 -3 8 -7 17 -13l1 -1v0l26 -42v0c2 -7 4 -15 6 -22c1 -3 1 -5 1 -7c0 -11 -8 -20 -32 -39
c-22 -18 -37 -24 -85 -24c-26 0 -47 3 -71 20c-30 21 -34 36 -34 50v3c1 6 3 11 5 17l29 42l1 -1c1 2 2 6 7 11c7 7 18 12 28 12zM254.926 262.229v19h28v22h-28v18h28v24h16v-24h23v23h16v-23h30v-18h-30v-22h30v-19h-30v-25h-16v25h-23v-24h-16v24h-28zM309.926 366.229
l-54 98l12 5l43 -74l39 75l14 -6zM321.926 303.229h-23v-22h23v22zM543.39 139.229l-65.3203 64.1523l12.4424 12.8311l52.4883 -48.2129l93.3115 118.196l13.998 -9.71973z" />
  </g>

</svg>
