<?xml version="1.0" standalone="no"?>
<!DOCTYPE svg PUBLIC "-//W3C//DTD SVG 1.1//EN" "http://www.w3.org/Graphics/SVG/1.1/DTD/svg11.dtd" >
<svg xmlns="http://www.w3.org/2000/svg" xmlns:xlink="http://www.w3.org/1999/xlink" version="1.1" viewBox="-10 0 1020 1000">
  <g transform="matrix(1 0 0 -1 0 800)">
   <path fill="currentColor"
d="M220.05 205.649h107.9l166.399 -280.8c32.9336 -15.8398 126.967 -20.4297 159.9 0l128.7 280.8l113.75 3.90039v-46.7998l-89.7002 -9.75l-147.55 -274.95c-47.5176 -10.5518 -136.889 -9.78906 -167.7 0l-180.05 278.85l-91.6504 1.9502v46.7998zM38.5039 -90.9844
h42.7031l13.2012 40.1738l13.2002 -40.1738h42.7041l-34.5127 -24.8428l13.2002 -40.1729l-34.5918 24.8428l-34.5928 -24.8428l13.2012 40.1729zM629.514 270.188c-12.8154 0 -12.8154 0 -84.9209 0.661133l0.09375 0.506836h-5.06152l4.49609 275.03l-99.6689 54.7725
v15.8096l93.7803 -53.5283c5.23828 -0.0126953 10.7168 0.00390625 16.584 0.0341797l-64.6055 121.521h18.3525l64.543 -121.399l2.70117 0.0185547l1.03906 166.549h21.0801l-1.03711 -166.44c2.05371 0 4.10938 0.00195313 6.16309 0.00195313l69.8906 132.693h18.3457
l-69.2158 -131.411l85.9102 34.5312v-16.1035c-23.3027 -10.3037 -46.5732 -20.6377 -69.8975 -30.9209l-12.8867 -3.06836l2.25586 -75.1416l18.5322 10.7754l4.04785 -26.3115l-21.7168 -13.2188l5.34961 -178.171c-1.38477 0.9375 -2.76855 1.87402 -4.1543 2.80957z
M609.004 290.233l-6.44336 257.712h-3.32715l3.86426 -257.712h5.90625zM573.204 290.856v257.82l-3.84277 0.452148l-1.28711 -258.795z" />
  </g>

</svg>
