<?xml version="1.0" standalone="no"?>
<!DOCTYPE svg PUBLIC "-//W3C//DTD SVG 1.1//EN" "http://www.w3.org/Graphics/SVG/1.1/DTD/svg11.dtd" >
<svg xmlns="http://www.w3.org/2000/svg" xmlns:xlink="http://www.w3.org/1999/xlink" version="1.1" viewBox="-10 0 1051 1000">
  <g transform="matrix(1 0 0 -1 0 800)">
   <path fill="currentColor"
d="M828.399 483.872c0 9.49878 0.360099 25.4826 0.360099 28.905l-0.318652 61.3747l-8.69455 54.78l-24.0577 41.7601l-29.8355 19.1251l-33.9409 8.02542l-47.9505 1.85133v0.765382l-107.704 8.96128l-161.614 -4.8437l-135.511 -48.0118l4.97421 -24.8711
l90.1513 34.2037l168.519 13.9909l163.859 -8.05849l72.0585 -32.0852l24.6852 -76.5829c-11.2968 -92.7231 -11.5388 -94.7093 -10.6225 -98.1968c0.272553 -1.03738 0.408327 -1.98777 0.495372 -2.92219c0.487753 -0.641757 1.13403 -1.58506 1.4862 -2.05622
l30.4464 -40.7334l38.0432 -60.0682l23.93 -33.502l-96.7113 -80.2498l-3.19974 -219.288c0.962733 -7.56244 2.78458 -22.0112 5.01798 -45.877c-0.12894 -0.269919 -9.65147 -20.9678 -12.8349 -27.02c-1.80565 -3.43278 -3.36365 -6.39475 -8.94453 -11.1259
c-28.726 -6.87192 -37.6748 -9.01268 -53.7943 -9.01268c-3.38415 0 -6.77838 0.14333 -10.1737 0.446144l-127.95 -3.2205l-189.706 31.9736l-119.91 72.0259l-21.8729 31.5454c-0.18608 0.126152 -14.9542 10.3475 -18.5829 12.6523v-31.4635
c5.41685 -3.87145 13.5068 -7.36272 24.4398 -17.2503c7.32645 -6.62591 2.09556 -4.45645 10.6241 -11.9264c1.03002 -0.902171 1.03002 -0.902171 17.2005 -21.8062l70.2643 -41.1391l123.979 -35.7692l40.8353 -3.74581
c52.8258 -4.90757 59.0669 -6.73248 83.0467 -7.42728l68.08 -1.97257l89.7606 0.254271l51.1066 12.4914l15.1376 25.2075l6.27671 34.16l-0.268638 82.9487l0.0291888 84.2282l-0.00582149 87.5189l84.7837 67.8016l7.68593 8.96692l1.11464 7.19504
c0.44913 7.61262 -1.52476 12.8022 -3.31214 18.1783l-23.3304 38.8443l-33.0243 43.448l-34.3179 48.9016c-0.202711 16.1296 -0.202711 16.1296 -0.202711 17.6951zM33.2949 712.521h55.5146l17.1611 52.2256l17.1602 -52.2256h55.5156l-44.8672 -32.2959
l17.1611 -52.2246l-44.9697 32.2959l-44.9707 -32.2959l17.1611 52.2246zM495.165 338.888c-0.886719 0 -1.60059 0.719727 -1.60059 1.59961l1.53516 44.1787c-4.46289 5.34082 -9.04004 10.3418 -13.5479 15.2646c-19.8721 21.7051 -38.4697 42.0654 -38.5342 83.1348
c-0.0537109 34.2266 12.3955 51.7354 19.3682 58.8281c22.0381 21.543 51.1309 26.958 66.251 26.958c1.375 0 3.11426 1.16602 4.92676 1.08105c44.6904 -2.10254 54.2285 -5.6377 76.999 -25.4424c2.93848 -2.55762 3.79395 -4.64062 4.17578 -6.6084
c0.0693359 -0.355469 0.108398 -0.495117 0.12207 -0.538086c10.4336 -12.04 17.7539 -43.6807 18.3223 -52.8828c0.0380859 -0.624023 0.131836 -1.34863 0.239258 -2.16895c0.304688 -2.31641 0.708984 -5.37891 0.0351562 -9.23145
c-9.28516 -53.0254 -34.5176 -68.2852 -37.4844 -76.5986c-0.162109 -0.453125 -0.311523 -0.52832 -0.375977 -0.591797c-0.707031 -0.708008 -6.83789 -3.83301 -11.7627 -6.14941c-0.619141 -1.76074 -0.619141 -1.76074 -0.931641 -2.08691
c-0.144531 -0.557617 -0.277344 -1.54492 -0.277344 -1.54492l-0.914062 -45.1289c-0.0175781 -0.867188 -0.72168 -1.5625 -1.58984 -1.56738zM614.793 537.414l-0.105469 0.0927734l-0.967773 -1.26465zM610.301 543.12l-1.05957 0.4375l-1.06055 -2.65625z
M541.102 557.705c-25.6572 0 -42.3896 -4.53027 -63.7236 -20.3477c-5.625 -5.625 -21.2832 -22.5088 -21.3574 -51.7998c-0.0976562 -38.5576 16.707 -56.71 25.7324 -65.7363c4.49805 -4.49805 4.49805 -4.49805 5.24316 -5.61035
c1.47266 -2.2002 1.47266 -2.2002 11.0303 -12.5596c2.19531 -0.540039 5.5498 -1.92285 8.95312 -5.46094c1.86035 -1.93359 1.10938 -9.11426 0.765625 -12.3994l-0.306641 -37.3584l59.2822 -0.303711l2.78809 45.8506
c0.0263672 0.43457 0.227539 0.838867 0.5625 1.12305c1.96973 1.67871 2.02246 1.72363 3.04199 2.74414c1.00781 1.00781 3.93164 3.8623 6.50391 4.61035c0.931641 0.271484 2.23047 2.84863 4.93164 4.86719c12.9189 9.65723 32.04 33.9658 34.415 69.002
c0.34668 5.12598 -0.444336 10.7178 -1.45605 16.7158c-2.13965 12.6953 -5.27637 30.7383 -14.9287 41.9844c-1.5 1.2373 -1.95605 1.64844 -8.86523 8.55762c-12.3613 12.3604 -32.8271 16.1211 -52.6123 16.1211zM477.082 79.6631
c42.8877 0.149414 85.7734 0.149414 128.66 0c2.82227 0.0546875 5.64258 0.109375 8.46094 0.171875c10.3916 -0.160156 18.9619 4.75 24.918 15.1982c5.36621 9.41211 8.11523 21.46 6.97363 27.0791c-0.518555 2.61816 -4.47461 14.3477 -5.77051 19.5
c-4.90918 19.4922 -9.7168 39.0264 -14.4248 58.5977c-2.79492 11.2646 -5.87988 22.3984 -9.24512 33.4004c-3.50977 11.3525 -7.73242 22.2559 -12.667 32.709c-4.35059 8.98633 -9.60449 17.0947 -15.7656 24.3281c-10.5371 11.7686 -22.8955 18.4336 -37.0771 19.9961
c-9.67676 1.16211 -19.1699 0.0078125 -28.4795 -3.46777c-8.52539 -3.47266 -16.1055 -8.90332 -22.7451 -16.2979c-6.02539 -6.92871 -11.1553 -14.7305 -15.3955 -23.4004c-3.84766 -7.88672 -7.23535 -16.0918 -10.1699 -24.6191
c-2.92383 -8.53418 -5.57422 -17.2002 -7.95312 -26.0059c-1.78125 -6.64453 -3.50684 -13.3096 -5.17676 -19.9941c-3.3623 -13.959 -6.75293 -27.9043 -10.1709 -41.8398c-1.73926 -6.36523 -3.40234 -12.7607 -4.99219 -19.1855
c-0.932617 -3.93359 -1.7666 -7.9043 -2.49707 -11.9053c-1.96289 -14.1787 1.35254 -26.0254 9.93945 -35.54c2.88281 -3.01758 6.11816 -5.28809 9.70801 -6.82031c1.96777 -0.698242 3.97266 -1.15918 6.0127 -1.38672
c2.62988 -0.259766 5.24707 -0.436523 7.85742 -0.517578v0zM477.082 91.335c-2.1123 0.0898438 -4.24121 0.225586 -6.37988 0.40625c-1.53223 0.144531 -3.04102 0.452148 -4.53027 0.921875c-2.65137 1.1748 -5.02246 2.91016 -7.12109 5.20117
c-5.6582 6.62305 -7.73926 14.6953 -6.23926 24.2139c0.792969 4.15723 1.68555 8.28027 2.68066 12.3662c1.8252 6.84082 3.6123 13.6992 5.3623 20.5742c3.34668 13.8369 6.70508 27.666 10.0801 41.4912c1.65137 6.5791 3.37695 13.1289 5.17676 19.6494
c3.22461 11.75 7.04785 23.1934 11.4658 34.3242c3.29883 8.17969 7.24512 15.8096 11.832 22.8867c12.7354 18.9795 29.0557 27.5898 48.9609 25.8291c13.5049 -0.930664 25.125 -7.1748 34.8604 -18.7217c5.35449 -6.69238 9.93066 -14.1094 13.7295 -22.249
c4.20215 -9.20898 7.83984 -18.7627 10.9102 -28.665c3.15234 -10.2803 6.0498 -20.6826 8.69141 -31.2051c3.47949 -14.165 6.93359 -28.3438 10.3545 -42.5303c1.29492 -5.08496 2.58887 -10.1699 3.88379 -15.2578c1.4248 -5.77051 2.71973 -11.5869 3.88477 -17.4521
c0.575195 -2.73047 0.823242 -5.50195 0.740234 -8.32031c-0.854492 -8.86328 -4.32227 -15.585 -10.4023 -20.1699c-1.96777 -1.48438 -4.09277 -2.37402 -6.38184 -2.65723c-3.25586 -0.432617 -6.52051 -0.623047 -9.80078 -0.578125
c-43.918 -0.0576172 -87.8389 -0.078125 -131.758 -0.0576172v0z" />
  </g>

</svg>
