<?xml version="1.0" standalone="no"?>
<!DOCTYPE svg PUBLIC "-//W3C//DTD SVG 1.1//EN" "http://www.w3.org/Graphics/SVG/1.1/DTD/svg11.dtd" >
<svg xmlns="http://www.w3.org/2000/svg" xmlns:xlink="http://www.w3.org/1999/xlink" version="1.1" viewBox="-10 0 1040 1000">
  <g transform="matrix(1 0 0 -1 0 800)">
   <path fill="currentColor"
d="M353.92 290.141c0 -147.995 16.8309 -360.837 132.08 -360.837c21.0667 0 47.5251 6.48517 70.9876 38.5373c50.1344 68.6321 61.0915 195.602 61.0915 322.3c0 71.4472 -1.81165 188.027 -36.1717 275.966c-16.8651 43.6509 -46.0297 85.3669 -95.9074 85.3669
c-20.8254 0 -47.2574 -6.42131 -71.0151 -38.5733c-53.7803 -73.4739 -61.065 -214.784 -61.065 -322.76zM388.913 290.141c0 186.178 21.3634 256.775 53.3299 288.741c12.1019 12.1019 26.8422 18.7185 43.1623 18.7185c25.6908 0 51.2053 -16.8361 71.6103 -65.0514
c18.0816 -42.2229 26.0704 -122.306 26.0704 -242.409c0 -119.444 -7.98778 -199.333 -26.0423 -241.846c-8.62255 -20.5449 -29.9966 -65.6128 -71.0436 -65.6128c-31.5559 0 -54.5713 25.9585 -71.3415 65.1167c-17.8372 42.5007 -25.7454 122.57 -25.7454 242.342z" />
  </g>

</svg>
