<?xml version="1.0" standalone="no"?>
<!DOCTYPE svg PUBLIC "-//W3C//DTD SVG 1.1//EN" "http://www.w3.org/Graphics/SVG/1.1/DTD/svg11.dtd" >
<svg xmlns="http://www.w3.org/2000/svg" xmlns:xlink="http://www.w3.org/1999/xlink" version="1.1" viewBox="-10 0 1043 1000">
  <g transform="matrix(1 0 0 -1 0 800)">
   <path fill="currentColor"
d="M271 608l-12 60c128.725 89.7881 355.203 55.3633 442.457 48.5605c0 -0.0107422 0.000976562 -0.0214844 0.000976562 -0.0322266c27.4463 0.582031 75.1855 -1.32129 107.268 -33.4033c40.1396 -40.1396 38.6152 -108.841 37.5254 -169.365
c-0.395508 -21.9258 -0.433594 -33.2402 -0.22168 -41.9463c26.3789 -43.8281 72.168 -89.959 89.3252 -129.607c6.95117 -16.0635 5.49219 -24.7637 2.64551 -40.2051l-12 -14l-79.501 -63.5771v-212.431c1.93945 -31.0869 1.82422 -79.2412 -27.416 -108.48
c-26.0322 -26.0322 -182.507 -12.0195 -220.584 -13.0049l-2.90137 0.0126953c-103.732 -7.2998 -296.108 50.6025 -326.603 92.1719c-18.5059 25.2275 -31.4014 41.2529 -57.9951 55.3086v70.0371c25.8174 -16.2627 49.624 -17.8066 70.1904 -60.6357
c44.2188 -92.082 349.455 -105.734 451.309 -108.438l-0.499023 -0.962891c50 12 34.1514 4.48145 42.5352 13.5361c19.1768 20.7119 3.97852 41.9688 5.50781 57.9648h-0.541992v2.14941c-0.253906 0.990234 -0.500977 1.94141 -0.738281 2.84863h0.738281v207.174v3.4873
v1.33887h1.58203l104 88h1.13281c4.9834 45.8955 -62.8379 92.1289 -94.2158 139.501l-3 4l-1 1c-2.02051 3.99219 0.0439453 4.02539 -2.08398 11.5605c-0.0371094 0.130859 -0.189453 0.24707 -0.174805 0.367188l0.258789 2.07227l0.0644531 1.49902
c0.00976562 0.226562 0.150391 3.89551 0.242188 6.24414c3.11426 79.1523 14.1973 176.389 -74.8154 176.771c-136.35 16.7461 -373.536 9.53418 -431.49 -46.5137zM30.3545 728.521h55.5146l17.1611 52.2256l17.1602 -52.2256h55.5156l-44.8672 -32.2959l17.1611 -52.2246
l-44.9697 32.2959l-44.9707 -32.2959l17.1611 52.2246zM582.031 366.889v-11.4326l-56.918 15.8711l-0.886719 -59.376h0.473633v-14.4678h-123.667v63.5771l-46.4102 -43.6797v15.1748l46.4102 43.6797v1.78223h1.89258l4.38477 4.12598v-4.12598h6.00684v-66.0664h96.9863
l1.06836 71.5254h7.59766v0.998047c1.18945 -0.333008 2.38086 -0.665039 3.57129 -0.998047h2.71191v-0.754883zM363.241 231.184c-35.6787 0 -64.6299 31.4375 -64.6299 65.1777c0 16.5439 10.0947 36.8662 16.957 43.8799
c1.81934 1.90137 2.73535 4.33203 2.73535 6.75977c0 2.41895 -0.910156 4.83691 -2.74609 6.72559c-8.97559 8.98438 -16.2588 26.5752 -16.2695 39.166c0 0.939453 1.97656 15.9863 3.52637 19.4277c7.99805 18.3721 30.7129 33.625 50.7109 34.1035l0.139648 0.00390625
l0.139648 -0.00488281c17.5762 -0.620117 40.3984 -13.7412 49.1787 -33.6836c1.44141 -3.00879 4.97754 -5.65527 8.98535 -5.65527c2.74707 0 4.43848 1.11719 5.62305 1.90039c10.6582 7.0459 29.7129 12.7959 42.4541 12.7959
c0.974609 0 2.61133 -0.0439453 3.12598 -0.0566406c0.0283203 0 0.0537109 -0.00195312 0.0742188 -0.00195312c4.05859 0.0234375 7.76074 2.98535 9.04688 6.23535c9.1543 22.1992 36.1445 40.2383 60.0986 40.2383
c-0.430664 0.198242 -0.630859 0.325195 -0.630859 0.384766c0 0.0253906 0.0400391 0.0390625 0.119141 0.0390625c2.14551 0 32.5977 -9.69043 42.9365 -20.0283c3.91016 -3.91113 15.3184 -16.4609 18.2031 -32.3896c1.03027 -5.19434 5.54883 -7.87695 9.18066 -7.99219
c33.4473 -0.898438 60.5996 -28.793 60.5996 -62.248c0 -0.457031 -0.555664 -26.0518 -16.8848 -42.3809c-9.74219 -9.74121 -21.4229 -14.8486 -22.2725 -15.1836c-8.91699 -3.5166 -19.457 -4.8584 -24.4258 -4.8584h-0.106445
c-7.64551 0.170898 -13.7656 3.9873 -22.4365 3.9873c-4.35449 0 -6.82227 -1.16797 -8.15137 -2.49805c-0.161133 -0.173828 -0.848633 -0.952148 -3.53809 -4.00586c1.91406 -4.41504 4.5957 -10.6045 4.5957 -18.7305c0 -11.7773 -6.92773 -22.7852 -7.27441 -22.8389
c-1.74805 -2.41992 -3.83984 -4.79492 -6.13379 -7.08887c-6.78027 -6.78027 -15.2705 -12.8594 -22.3691 -15.7305c-16.9648 -6.86328 -31.4805 -6.95898 -32.6494 -6.95898c-12.0801 0 -27.7178 4.58203 -28.6455 5.3125
c-14.4971 6.01562 -31.8896 23.0234 -37.9971 39.7959c-1.0791 2.79492 -4.09277 5.66895 -7.50684 6.3418c-0.825195 0.0498047 -1.75195 0.0654297 -2.74121 0.0654297c-0.0878906 0 -5.03125 -0.700195 -7.7959 -4.08203
c-14.1934 -17.3525 -38.5225 -25.9238 -53.2256 -25.9238zM472.906 214.822l-0.0429688 0.0185547zM315.478 340.146v0zM284.422 295.185c0 -43.7021 38.3213 -80.3838 78.1758 -80.3838c29.8643 0 53.0576 18.4297 56.8262 21.6494l4.08887 3.49121
c4.76953 -7.47656 7.87598 -12.3457 15.585 -20.0527c8.52734 -8.53027 18.9512 -16.0762 28.5449 -19.8574c8.88965 -3.46777 23.3828 -6.19336 32.9238 -6.19336c12.2441 0 25.4316 2.84473 39.9385 8.44531c13.0537 5.03809 29.3848 18.1602 36.9551 29.2461
c3.88477 5.68945 8.26074 20.0078 8.26074 30.2393c0 0.742188 0 0.742188 -0.292969 7.41895c7.84668 -1.58496 10.709 -2.16211 14.0518 -2.16211c3.91016 0 18.9014 1.90527 29.6289 6.47656c11.6973 4.76074 26.542 16.6006 33.6133 26.3809
c8.25977 11.54 14.792 31.8887 14.792 46.083c0 10.2783 -3.54297 25.5771 -8.06152 34.8066c-7.74902 15.8311 -32.8223 37.7705 -59.7256 42.0381l-2.87109 0.456055c-2.09863 6.76562 -6.52539 21.0439 -21.8115 36.3291
c-8.68066 8.68066 -27.6279 24.0498 -52.9805 24.0498c-32.7285 0 -60.7158 -23.96 -71.3535 -44.2012l-1.22656 -2.33398c-10.3301 -0.624023 -25.9297 -2.9707 -41.416 -10.6016l-3.68066 -1.8125c-3.76465 5.62891 -5.70898 8.53516 -10.5371 13.3623
c-12.9453 12.9463 -32.2744 22.749 -49.7168 23.3164c-0.213867 0.00390625 -0.427734 0.00683594 -0.645508 0.00683594c-21.1338 0 -53.291 -17.2422 -64.0713 -44.7832c-2.55664 -6.87402 -4.28223 -23.6816 -4.51074 -24.9463
c0 -13.5215 6.34863 -31.8691 14.9629 -43.5801l1.97754 -2.69043l-1.90332 -2.74414c-8.9082 -12.8408 -15.5205 -32.8965 -15.5205 -47.4531z" />
  </g>

</svg>
