<?xml version="1.0" standalone="no"?>
<!DOCTYPE svg PUBLIC "-//W3C//DTD SVG 1.1//EN" "http://www.w3.org/Graphics/SVG/1.1/DTD/svg11.dtd" >
<svg xmlns="http://www.w3.org/2000/svg" xmlns:xlink="http://www.w3.org/1999/xlink" version="1.1" viewBox="-10 0 1023 1000">
  <g transform="matrix(1 0 0 -1 0 800)">
   <path fill="currentColor"
d="M30.3242 741.553h55.5146l17.1611 52.2256l17.1602 -52.2256h55.5156l-44.8672 -32.2959l17.1611 -52.2246l-44.9697 32.2959l-44.9707 -32.2959l17.1611 52.2246zM804 631c0 -96.6865 68.0879 -173.199 99.375 -191.775l11.1992 -6.64941
c-16.9434 -0.478516 1.18945 0.900391 -34.5742 -3.5752l-1.0752 1.36426c-22.0068 27.9238 -93.998 110.011 -106.903 207.233c-0.657227 4.95117 0.0224609 9.79688 0.582031 18.2783c-1.38379 0.708984 -2.88672 1.4873 -4.52246 2.34082
c-0.0283203 -1.83984 -0.322266 -3.81641 -0.0449219 -5.88867c33.3789 -249.661 97.5459 -216.742 97.5459 -216.742s6.91211 -4.29004 10.2793 -6.58594h-32.8613c-44.1455 16.1279 -101.697 151.17 -101.697 222.331c0 8.73535 0.302734 15.3135 0.785156 20.6846
c-60.6641 32.3369 -181.179 64.7012 -284.885 64.7012c-23.0527 0 -45.5234 -2.04883 -73.3945 -6.17773c-32.3232 -4.78906 -32.3232 -4.78906 -70.6152 -21.2002c-18.916 -8.10645 -50.2139 -47.4062 -58.166 -66.7188
c-7.02734 -17.0664 -9.0791 -30.2676 -9.0791 -45.8906c0 -22.332 3.62891 -44.376 3.62891 -77.1553c0 -8.99219 1.14648 -13.8564 1.14648 -20.1924c0 -4.57031 -0.613281 -9.64551 -2.73242 -16.6025c-19.9492 -65.4795 -40.3174 -87.0479 -63.832 -110.183
c-6.25977 -6.16016 -27.0508 -26.6172 -27.0508 -37.7881c0 -4.45605 0.882812 -6.9082 38.3447 -19.4531c55.9199 -18.7266 60.0254 -24.4102 60.0254 -90.9766c0 -43.0117 2.70801 -110.013 2.70801 -151.731c0 -5.5 0.0820312 -11.3867 0.267578 -17.7666
c0.50293 -17.292 16.4512 -45.3398 23.8975 -57.5352c1.19629 -0.303711 1.95996 -1.18164 1.95996 -1.18164c1.1543 -0.666992 2.48438 -1.60059 4.13477 -2.74414c16.0508 -11.1162 22.0049 -13.1846 40.8428 -13.1846c24.0361 0 22.3457 4.21484 79.0615 4.21484
c0.316406 0 6.94531 -0.00390625 7.01562 -0.00390625c14.7988 0 25.668 0.226562 52.1025 3.80078c20.2021 2.73242 38.8271 4.61572 56.5088 6.4043c120.938 12.2334 201.711 24.1475 280.178 80.1953c2.23438 1.5957 5.14355 3.85352 8.45703 6.42773
c12.6104 9.7959 33.0303 26.8994 48.1416 26.8994c8.16699 0 13.834 -4.95996 13.834 -14.165c0 -15.4473 -17.4082 -42.8486 -33.0938 -42.8486c-1.16406 0 -1.56543 0.129883 -3.01758 0.129883c-22.6426 0 -44.3604 -36.5264 -79.4766 -51.29
c-52.8857 -22.2344 -138.298 -27.127 -175.459 -33.71c-17.2549 -3.05664 -36.6504 -6.49316 -61.8809 -12.2393c-34.7246 -7.90918 -51.6299 -8.61133 -86.7539 -8.61133c-0.251953 0 -22.7891 0.03125 -25.0811 0.03125c-11.3115 0 -32.6182 -0.123047 -32.9473 -0.123047
c-40.7773 0 -82.5049 2.86621 -120.91 24.8125c-26.0957 14.9121 -27.9092 36.1035 -30.0449 61.0586c-0.477539 5.59082 -0.976562 11.3994 -1.75781 17.3906c-1.96484 15.7158 -2.63672 29.7119 -2.63672 42.8916c0 28.6572 -4.27441 100.664 -4.27441 131.409
c0 46.4277 -4.59863 49 -29.7539 58.8145c-27.3184 10.6582 -57.2148 13.2568 -70.834 26.876c-4.33008 4.33008 -6.66504 9.68945 -6.66504 16.1094c0 4.7959 1.30371 10.1846 4.05176 16.1768c36.4951 79.5967 68.6367 70.0742 91.3711 139.761
c5.20312 15.9443 6.93652 32.2529 6.93652 48.6797c0 32.5635 -6.77832 65.1611 -6.77832 95.8125c0 47.6494 17.2412 68.3838 35.0508 86.1934c66.2422 66.2412 143.674 66.3555 238.901 66.3555h0.988281c82.8154 0 190.135 -23.3467 246.021 -49.8477
c43.5547 -20.6533 21.8506 -15.7109 32.4561 -16.8408c11.3984 -1.2168 39 -13 47.5039 -30.4053c4.31641 -8.83496 -4.12305 -21.668 -4.50391 -29.5947c-0.257812 -5.36523 2 -14.3428 2 -20zM434.377 316.607c0 -20.6309 7.39746 -40.002 21.8555 -54.5049
c12 -11.9521 35.042 -21.4707 51.9785 -21.4707c3.84961 0 8.97461 0.614258 15.4287 1.83301c35.1768 6.63867 63.7236 40.9893 63.7236 76.8672c0 6.38379 -1.42773 16.1895 -3.25 22.3145c-4.00488 14.1562 -17.7832 35.1973 -18.8467 36.751
c-4.93066 7.78711 -6.19238 9.79004 -8.28125 13.4297c-12.5127 22.0098 -25.0439 44 -37.542 66.0225c-3.47168 7.85742 -4.9209 9.29688 -7.62305 10.4805c-2.93262 0 -3.89062 -0.0234375 -5.5166 -1.65039c-1.00488 -1.00488 -1.06348 -1.14746 -2.83594 -4.46777
c-1.04199 -1.9502 -24.8613 -45.333 -37.0244 -64.916c-2.32715 -3.74902 -14.2676 -23.0244 -21.6387 -37.8633c-6.98828 -14.0996 -10.4277 -28.7549 -10.4277 -42.8252zM508.448 250.736c-13.7402 0 -34.3594 7.82715 -45.4443 18.9111
c-12.2109 12.2109 -18.5078 28.751 -18.5078 46.626c0 12.5234 3.09082 25.7012 9.40137 38.5068c5.59277 11.2568 12.3164 22.3945 18.8418 33.1934c5.83496 9.48145 5.81152 9.43945 34.3701 59.2852c0.0585938 0.109375 0.0585938 0.109375 3.00391 5.83691
l38.0068 -65.9922c1.58691 -2.73242 3.0166 -5.14746 8.5918 -13.8662c5.03027 -7.36133 11.9766 -19.9297 15.5273 -28.0547c0.0585938 -0.146484 0.123047 -0.286133 0.18457 -0.429688v-0.0380859c3.58008 -9.15918 4.93066 -19.8047 4.93066 -25.708
c0 -31.2607 -25.0186 -61.3096 -55.834 -66.9229c-6.69727 -1.21973 -11.3047 -1.34766 -13.0723 -1.34766zM583.293 183.723c0.357422 0.0146484 22.9482 0.00292969 22.9551 0.0146484c-6.95898 29.1855 -5.00391 38.583 -2.46484 46.7715
c0.0234375 0.0742188 1.98633 6.8623 2.25391 7.39844l16.4121 32.8232c-8.40039 130.199 -8.40039 130.199 -8.35254 130.759c2.75879 32.7559 5.16504 70.9658 2.35254 95.4404c-7.31543 29.0498 -25.4629 22.9189 -29.7021 13.6279
c-1.49902 -3.2832 -3.18652 -3.66992 -7.54395 -4.66895c-3.38574 -3.0293 -8.71289 -2.36523 -11.2471 1.44922c-3.17578 4.78223 -17.8682 27.5332 -18.2549 28.29c-5.31348 10.4062 -25.8096 16.8076 -29.7266 -3.79199
c-0.141602 -0.744141 -0.141602 -0.744141 -7.1377 -17.7969c-2.60645 -6.35254 -11.7949 -6.08887 -14.0273 0.40625l-13.1602 38.2852c-3.51855 10.2344 -25.4697 18.4072 -37.0664 -0.974609c-0.212891 -0.638672 -1.77832 -5.38574 -10.2412 -31.9248
c-1.83984 -5.76953 -9.5166 -7.08789 -13.166 -2.18555c-10.8232 14.5449 -10.8232 14.5449 -11.0137 14.7363c-0.0722656 0.0722656 -12.3633 12.3428 -19.3271 5.37891c-3.81348 -3.8125 -5.9707 -13.123 -6.91992 -18.832
c0.0263672 -0.856445 0.196289 -5.90723 1.13477 -30.4111c0.558594 -15.2598 1.23633 -47.8701 1.25098 -48.3535c4.46387 -31.8105 2.39844 -32.8037 4.71973 -49.8232c0.168945 -0.655273 1.45605 -5.61523 8.14062 -30.917
c0.0644531 -0.249023 0.674805 -14.416 -1.2627 -17.709c-4.76367 -8.10059 -5.09473 -8.66309 -8.23828 -9.38184c-12.4414 -2.85059 -16.377 -0.344727 -20.584 5.49121c-2.16406 3.00293 -16.8809 17.7529 -18.3604 19.459l-30.8398 35.584
c-0.833008 0.552734 -5.11328 3.35645 -17.9883 11.5107c-0.75293 0.228516 -4.35645 1.30566 -15.2383 4.35254c-3.04297 -1.66992 -6.66992 -0.664062 -9.42188 -3.41504c-1.99512 -1.99609 -4.29785 -8.68359 -3.56543 -12.4697l17.0137 -22.8828
c3.27734 -3.07324 20.6953 -18.2549 21.5479 -19.2861c25.4258 -30.7471 25.4258 -30.7471 25.5469 -30.9121c18.4775 -25.0342 18.4775 -25.0342 18.6172 -25.251c16.6611 -26.1846 16.6611 -26.1846 16.8965 -26.7295l12.8691 -29.8311
c3.55469 -5.51074 17.2979 -26.2471 17.666 -26.9463c5.79004 -11.002 5.79004 -11.002 6.00879 -11.916c4.30762 -18.0547 34.8203 -18.9541 35.2207 -18.9609l33.376 -0.59668zM606.248 168.733h-22.4854c-101.159 -4.20312 -101.159 -4.20312 -101.383 -4.19824
l-33.6152 0.600586c-5.33789 0.100586 -41.7764 1.80469 -49.2764 29.4854l-4.77539 9.07324c-17.4756 26.5107 -17.1777 25.6338 -18.2354 28.084l-12.7285 29.5078l-15.8857 24.9629l-18.0488 24.4521l-24.7852 29.9736c-21.293 18.8584 -21.293 18.8584 -22.2275 20.1152
l-17.4004 23.4014c-6.20703 8.34668 -1.87402 24.6367 5.2207 31.7314c4.1582 4.1582 8.08105 5.42969 13.8965 6.49902c3.21582 1.43848 6.83691 1.6875 10.1924 0.749023c15.8311 -4.43262 16.1748 -4.2002 18.958 -5.96191
c16.9863 -10.7578 18.2754 -11.165 20.709 -13.5967c0.28418 -0.28418 -0.365234 -0.87793 31.5479 -36.3604c16.6289 -18.4863 17.2783 -17.8936 19.666 -21.1289c0.393555 0.0351562 0.935547 0.102539 1.62012 0.213867l0.802734 1.36523l0.358398 8.96582
c-7.99805 30.2666 -7.91016 29.4316 -8.18066 31.4082c-2.49902 18.1973 -0.300781 18.457 -4.79297 50.3477c-0.0693359 0.491211 -0.966797 39.4336 -1.33594 49.5146c-1.2002 31.332 -1.4873 30.0986 -1.01855 32.9961c1.46094 9.0498 4.8252 29.9062 22.4463 33.6221
c14.6514 3.08984 28.8525 -10.6641 30.8008 -13.2832l2.18262 -2.93066c5.85547 18.5771 5.66602 18.4541 7.03906 20.7871c18.1357 30.8457 56.6865 20.6885 64.3164 -1.50684l6.43848 -18.7295c8.98047 30.1787 45.1064 25.6855 56.6025 3.92676
c0.134766 -0.208008 12.9131 -20.0605 13.3945 -20.8018c12.6094 16.2959 44.5391 19.0439 54.7256 -21.4072c0.161133 -0.644531 0.28125 -1.2998 0.355469 -1.95703c3.07227 -26.7236 0.508789 -64.9395 -2.25977 -97.874l8.32715 -129.077
c0.169922 -2.62402 -0.345703 -5.28223 -1.54785 -7.68652l-16.0479 -32.0957c-0.460938 -1.78906 -1.00195 -3.57422 -1.71191 -5.87012c-1.99805 -6.44531 -4.10645 -10.1582 2.72852 -38.8242c2.24707 -9.42188 -4.89355 -18.4932 -14.5869 -18.4932z" />
  </g>

</svg>
