<?xml version="1.0" standalone="no"?>
<!DOCTYPE svg PUBLIC "-//W3C//DTD SVG 1.1//EN" "http://www.w3.org/Graphics/SVG/1.1/DTD/svg11.dtd" >
<svg xmlns="http://www.w3.org/2000/svg" xmlns:xlink="http://www.w3.org/1999/xlink" version="1.1" viewBox="-10 0 1009 1000">
  <g transform="matrix(1 0 0 -1 0 800)">
   <path fill="currentColor"
d="M37.3545 728.521h55.5146l17.1611 52.2256l17.1602 -52.2256h55.5156l-44.8672 -32.2959l17.1611 -52.2246l-44.9697 32.2959l-44.9707 -32.2959l17.1611 52.2246zM271 608l-12 60c128.725 89.7881 355.203 55.3633 442.457 48.5605
c0 -0.0107422 0.000976562 -0.0214844 0.000976562 -0.0322266c27.4463 0.582031 75.1855 -1.32129 107.268 -33.4033c40.1396 -40.1396 38.6152 -108.841 37.5254 -169.365c-0.395508 -21.9258 -0.433594 -33.2402 -0.22168 -41.9463
c26.3789 -43.8281 72.168 -89.959 89.3252 -129.607c6.95117 -16.0635 5.49219 -24.7637 2.64551 -40.2051l-12 -14l-79.501 -63.5771v-212.431c1.93945 -31.0869 1.82422 -79.2412 -27.416 -108.48c-26.0322 -26.0322 -182.507 -12.0195 -220.584 -13.0049
l-2.90137 0.0126953c-103.732 -7.2998 -296.108 50.6025 -326.603 92.1719c-18.5059 25.2275 -31.4014 41.2529 -57.9951 55.3086v70.0371c25.8174 -16.2627 49.624 -17.8066 70.1904 -60.6357c44.2188 -92.082 349.455 -105.734 451.309 -108.438l-0.499023 -0.962891
c50 12 34.1514 4.48145 42.5352 13.5361c19.1768 20.7119 3.97852 41.9688 5.50781 57.9648h-0.541992v2.14941c-0.253906 0.990234 -0.500977 1.94141 -0.738281 2.84863h0.738281v207.174v3.4873v1.33887h1.58203l104 88h1.13281
c4.9834 45.8955 -62.8379 92.1289 -94.2158 139.501l-3 4l-1 1c-2.02051 3.99219 0.0439453 4.02539 -2.08398 11.5605c-0.0371094 0.130859 -0.189453 0.24707 -0.174805 0.367188l0.258789 2.07227l0.0644531 1.49902
c0.00976562 0.226562 0.150391 3.89551 0.242188 6.24414c3.11426 79.1523 5.19727 173.389 -83.8154 173.771c-136.35 16.7461 -373.536 9.53418 -431.49 -46.5137zM687.917 92.7695l-363.604 1.07422v21.2734h326.009v120.789h-326.009v21.2725l360.372 -1.79102z
M625.856 434.547l-7.40234 5.93164c-1.59473 1.27832 -4.07715 1.18164 -5.55078 -0.0175781l-122.867 -99.9033v84.1855c0.614258 0.25293 1.03711 0.563477 1.16699 0.668945l79.9492 65.0068c1.93457 1.57324 1.43457 4.2207 0 5.3877l-7.39941 6.01758
c-1.58105 1.28418 -4.06445 1.22852 -5.57422 0l-68.1426 -55.4062v104.752c0 2.21289 -2.35254 3.65527 -4.12207 3.65527h-10.4238c-2.49512 0 -4.12207 -2.08691 -4.12207 -3.65527v-102.973l-67.3086 54.7285c-1.58496 1.28906 -4.06836 1.20703 -5.55273 0.0175781
l-7.39941 -5.93359c-1.93945 -1.55469 -1.49414 -4.20605 -0.0234375 -5.40234l80.2842 -65.3633v-85.6855l-122.866 99.9033c-1.58496 1.28809 -4.06836 1.20703 -5.55273 0.0175781l-7.40039 -5.93262c-1.9375 -1.55469 -1.49609 -4.20605 -0.0214844 -5.40527
l135.842 -110.453v-29.668c0 -2.21191 2.35352 -3.6543 4.12207 -3.6543h10.4238c2.49512 0 4.12207 2.08691 4.12207 3.6543v29.668l135.842 110.453c1.9248 1.56543 1.46387 4.21387 -0.0224609 5.40527z" />
  </g>

</svg>
