<?xml version="1.0" standalone="no"?>
<!DOCTYPE svg PUBLIC "-//W3C//DTD SVG 1.1//EN" "http://www.w3.org/Graphics/SVG/1.1/DTD/svg11.dtd" >
<svg xmlns="http://www.w3.org/2000/svg" xmlns:xlink="http://www.w3.org/1999/xlink" version="1.1" viewBox="-10 0 1051 1000">
  <g transform="matrix(1 0 0 -1 0 800)">
   <path fill="currentColor"
d="M828.399 483.872c0 9.49878 0.360099 25.4826 0.360099 28.905l-0.318652 61.3747l-8.69455 54.78l-24.0577 41.7601l-29.8355 19.1251l-33.9409 8.02542l-47.9505 1.85133v0.765382l-107.704 8.96128l-161.614 -4.8437l-135.511 -48.0118l4.97421 -24.8711
l90.1513 34.2037l168.519 13.9909l163.859 -8.05849l72.0585 -32.0852l24.6852 -76.5829c-11.2968 -92.7231 -11.5388 -94.7093 -10.6225 -98.1968c0.272553 -1.03738 0.408327 -1.98777 0.495372 -2.92219c0.487753 -0.641757 1.13403 -1.58506 1.4862 -2.05622
l30.4464 -40.7334l38.0432 -60.0682l23.93 -33.502l-96.7113 -80.2498l-3.19974 -219.288c0.962733 -7.56244 2.78458 -22.0112 5.01798 -45.877c-0.12894 -0.269919 -9.65147 -20.9678 -12.8349 -27.02c-1.80565 -3.43278 -3.36365 -6.39475 -8.94453 -11.1259
c-28.726 -6.87192 -37.6748 -9.01268 -53.7943 -9.01268c-3.38415 0 -6.77838 0.14333 -10.1737 0.446144l-127.95 -3.2205l-189.706 31.9736l-119.91 72.0259l-21.8729 31.5454c-0.18608 0.126152 -14.9542 10.3475 -18.5829 12.6523v-31.4635
c5.41685 -3.87145 13.5068 -7.36272 24.4398 -17.2503c7.32645 -6.62591 2.09556 -4.45645 10.6241 -11.9264c1.03002 -0.902171 1.03002 -0.902171 17.2005 -21.8062l70.2643 -41.1391l123.979 -35.7692l40.8353 -3.74581
c52.8258 -4.90757 59.0669 -6.73248 83.0467 -7.42728l68.08 -1.97257l89.7606 0.254271l51.1066 12.4914l15.1376 25.2075l6.27671 34.16l-0.268638 82.9487l0.0291888 84.2282l-0.00582149 87.5189l84.7837 67.8016l7.68593 8.96692l1.11464 7.19504
c0.44913 7.61262 -1.52476 12.8022 -3.31214 18.1783l-23.3304 38.8443l-33.0243 43.448l-34.3179 48.9016c-0.202711 16.1296 -0.202711 16.1296 -0.202711 17.6951zM33.2949 712.521h55.5146l17.1611 52.2256l17.1602 -52.2256h55.5156l-44.8672 -32.2959
l17.1611 -52.2246l-44.9697 32.2959l-44.9707 -32.2959l17.1611 52.2246zM489.811 307.266c-8.67773 0 -8.67773 0 -57.499 0.448242l0.0634766 0.342773h-3.42773l3.04492 186.218l-67.4844 37.0859v10.7041l63.4961 -36.2432
c3.54688 -0.00878906 7.25781 0.00292969 11.2295 0.0234375l-43.7432 82.2803h12.4258l43.7012 -82.1982l1.8291 0.0136719l0.703125 112.767h14.2734l-0.702148 -112.694c1.39062 0 2.78223 0.00195313 4.17285 0.00195313l47.3223 89.8438h12.4219l-46.8652 -88.9756
l58.168 23.3799v-10.9033c-15.7783 -6.97559 -31.5352 -13.9727 -47.3262 -20.9355l-8.72559 -2.07812l1.52734 -50.877l12.5479 7.2959l2.74121 -17.8145l-14.7051 -8.9502l3.62207 -120.637c-0.9375 0.634766 -1.87402 1.26855 -2.81152 1.90234zM475.923 320.837
l-4.3623 174.493h-2.25391l2.61719 -174.493h3.99902zM451.684 321.26v174.565l-2.60254 0.305664l-0.87207 -175.225zM467 4.66699c-0.0615234 0 -0.163086 -0.000976562 -0.224609 -0.000976562c-18.3164 0 -43.7148 10.4912 -56.6924 23.417
c-26.5 26.584 -31.333 68.25 -12.416 106.417c6.41602 12.917 14 25.5 21.333 37.667c3.91699 6.41602 7.83301 12.916 11.5 19.416l26.5 46.417l1.25 2.41699s7.33301 14.25 10.667 14.25h1.58301c2.83301 -1.16699 4.66699 -4.75 7.08301 -10.084
c0.416992 -0.916016 0.75 -1.75 1 -2.08301l41.084 -72.083c2.91602 -5.08398 6.08301 -10 9.25 -15c5.8877 -8.60352 14.0264 -23.3496 18.166 -32.917c1.00098 -2.44434 1.86133 -4.94434 2.58398 -7.5c1.96191 -6.58789 3.55469 -17.5127 3.55469 -24.3867
c0 -39.1133 -31.1982 -76.7217 -69.6387 -83.9463c-4.52246 -0.999023 -11.9521 -1.89453 -16.583 -2zM468.917 242.667c-1.25 -2.25 -2.5 -4.83398 -3.16699 -6.25l-1.5 -2.91699l-26.5 -46.25c-3.75 -6.58301 -7.66699 -13.083 -11.667 -19.583
c-7.25 -12 -14.75 -24.417 -21 -37c-17.333 -35.167 -13.166 -73.084 10.75 -96.667c11.7314 -11.6504 34.6719 -21.1055 51.2051 -21.1055c4.12695 0 10.7549 0.681641 14.7949 1.52246c34.9238 6.3623 63.2666 40.3369 63.2666 75.835
c0 6.4209 -1.53809 16.6123 -3.43262 22.748c-0.666992 2.33301 -1.44434 4.61133 -2.33398 6.83301c-3.98145 9.15039 -11.7842 23.2627 -17.416 31.5c-3.25 5.08398 -6.5 10.167 -9.5 15.334l-41.084 71.333c0 0.583008 -0.833008 1.58301 -1.33301 2.83301z" />
  </g>

</svg>
