<?xml version="1.0" standalone="no"?>
<!DOCTYPE svg PUBLIC "-//W3C//DTD SVG 1.1//EN" "http://www.w3.org/Graphics/SVG/1.1/DTD/svg11.dtd" >
<svg xmlns="http://www.w3.org/2000/svg" xmlns:xlink="http://www.w3.org/1999/xlink" version="1.1" viewBox="-10 0 1019 1000">
  <g transform="matrix(1 0 0 -1 0 800)">
   <path fill="currentColor"
d="M33.2949 712.521h55.5146l17.1611 52.2256l17.1602 -52.2256h55.5156l-44.8672 -32.2959l17.1611 -52.2246l-44.9697 32.2959l-44.9707 -32.2959l17.1611 52.2246zM399.262 387.307zM152.541 553.291zM106.467 468.47zM285.987 357.568zM285.663 347.268z
M148.499 385.568zM227.574 360.691zM443.27 487.647zM106.467 468.47zM443.27 487.647zM449.343 493.428c3.18164 -9.63574 5.22949 -20.0645 7.90625 -30.0537l1.86523 -0.0302734c-1.41895 -29.9316 -1.95312 -41.2031 -50.5566 -79.6084
c-36.165 -28.5781 -62.6426 -38.6436 -122.829 -39.3223c-41.3994 -0.466797 -94.124 1.08301 -140.347 39.3115c-18.2139 15.0645 -47.126 44.2178 -46.8574 77.335h-1.2959c1.41602 5.30859 1.41602 5.30859 1.55078 9.38477l0.948242 -0.015625l4.05859 15.2197h-1.78125
c0.924805 1.25586 1.85059 2.5127 2.77539 3.76953v4.27637h3.14746l45.9639 62.4521h1.45898c15.9023 37.1875 76.8271 55.1016 100.49 26.2959c3.35938 -1.50977 18.5977 -7.58984 34.6436 -1.74023c8.26465 11.0625 31.4873 21.7373 57.6201 16.3184
c25.2754 -5.24121 50.7725 -28.7539 61.959 -40.2021h0.536133c0.394531 -0.580078 0.664062 -1.24609 1.16016 -1.75488l3.51465 -3.66699l33.5615 -57.3496c0.500977 0.0429688 0.896484 0.0107422 0.817383 -0.352539zM121.906 463.068
c-0.556641 -19.085 1.55371 -41.7822 47.9053 -74.2285c39.332 -27.5322 71.9229 -29.5098 116.666 -28.4023c52.1318 1.3418 73.8838 8.04297 105.363 33.7656c41.8613 34.208 48.7979 44.9287 43.7637 65.0234l-6.65723 26.5742l-0.244141 -0.436523
c0.0146484 1.6084 -1.06152 3.65332 -1.04688 5.26172l-37.3525 58.9141c-1.00293 -0.0390625 -0.202148 0.871094 -1.20508 0.832031c-23.1201 15.2432 -25.5859 21.8477 -34.2227 26.9414c-13.2988 7.84277 -33.7461 6.26367 -46.7637 -2.62012
c-6.47949 -19.5215 -46.6855 -22.6494 -65.2119 -5.0459c-1.72656 1.64062 -3 0.727539 -2.83691 2.74023c-19.8037 13.6279 -56.8975 -0.101562 -67.3789 -24.7891l-1.27148 -2.99414l-2.11816 0.81543l-40.8496 -57.8311zM250.618 386.296l-8.16895 8.77148
l64.418 59.8232l-58.7256 23.3555l68.4336 62.0762l8.04883 -8.88965l-54.166 -49.1318l58.542 -23.3008zM749.961 118.807c18.5488 -73.0527 68.4062 -131.518 159.07 -180.648l-5.70996 -14.8438c-88.6855 48.1963 -142.669 105.962 -164.761 176.564
c-20.8057 -62.6816 -79.4434 -141.1 -130.892 -175.048l-9.27539 15.0078c101.711 70.0186 150.587 174.861 146.316 320.968l14.7979 -0.350586c0.200195 -0.00585938 0.369141 -13.707 0.369141 -18.9346c0 -35.5781 -9.91602 -122.715 -9.91602 -122.715zM903.25 633.227
l-136.239 -147.58l148.262 -146.176l-19.3018 -17.2451l-148.429 146.555l-134.244 -146.555l-14.0176 16.4424l132.536 144.569l-130.291 145.371l17.2227 17.6689l131.787 -140.552l137.78 141.355z" />
  </g>

</svg>
