<?xml version="1.0" standalone="no"?>
<!DOCTYPE svg PUBLIC "-//W3C//DTD SVG 1.1//EN" "http://www.w3.org/Graphics/SVG/1.1/DTD/svg11.dtd" >
<svg xmlns="http://www.w3.org/2000/svg" xmlns:xlink="http://www.w3.org/1999/xlink" version="1.1" viewBox="-10 0 1014 1000">
  <g transform="matrix(1 0 0 -1 0 800)">
   <path fill="currentColor"
d="M30.3242 741.553h55.5146l17.1611 52.2256l17.1602 -52.2256h55.5156l-44.8672 -32.2959l17.1611 -52.2246l-44.9697 32.2959l-44.9707 -32.2959l17.1611 52.2246zM271 608l-12 60c128.725 89.7881 355.203 55.3633 442.457 48.5605
c0 -0.0107422 0.000976562 -0.0214844 0.000976562 -0.0322266c27.4463 0.582031 75.1855 -1.32129 107.268 -33.4033c40.1396 -40.1396 38.6152 -108.841 37.5254 -169.365c-0.395508 -21.9258 -0.433594 -33.2402 -0.22168 -41.9463
c26.3789 -43.8281 72.168 -89.959 89.3252 -129.607c6.95117 -16.0635 5.49219 -24.7637 2.64551 -40.2051l-12 -14l-79.501 -63.5771v-212.431c1.93945 -31.0869 1.82422 -79.2412 -27.416 -108.48c-26.0322 -26.0322 -182.507 -12.0195 -220.584 -13.0049
l-2.90137 0.0126953c-103.732 -7.2998 -296.108 50.6025 -326.603 92.1719c-18.5059 25.2275 -31.4014 41.2529 -57.9951 55.3086v70.0371c25.8174 -16.2627 49.624 -17.8066 70.1904 -60.6357c44.2188 -92.082 349.455 -105.734 451.309 -108.438l-0.499023 -0.962891
c50 12 34.1514 4.48145 42.5352 13.5361c19.1768 20.7119 3.97852 41.9688 5.50781 57.9648h-0.541992v2.14941c-0.253906 0.990234 -0.500977 1.94141 -0.738281 2.84863h0.738281v207.174v3.4873v1.33887h1.58203l104 88h1.13281
c4.9834 45.8955 -62.8379 92.1289 -94.2158 139.501l-3 4l-1 1c-2.02051 3.99219 0.0439453 4.02539 -2.08398 11.5605c-0.0371094 0.130859 -0.189453 0.24707 -0.174805 0.367188l0.258789 2.07227l0.0644531 1.49902
c0.00976562 0.226562 0.150391 3.89551 0.242188 6.24414c3.11426 79.1523 5.19727 173.389 -83.8154 173.771c-136.35 16.7461 -373.536 9.53418 -431.49 -46.5137zM503.75 493.816c108.417 -0.149414 196.407 -88.2627 196.407 -196.681v-0.135742
c-0.223633 -108.192 -88.2148 -196 -196.407 -196c-108.417 0 -196.407 87.9912 -196.407 196.408s87.9902 196.408 196.407 196.408zM686.275 303.261c-1.34961 37.4395 -23.1797 90.0635 -48.7285 117.464l-76.6299 -76.6309
c8.3584 -9.75098 16.1025 -28.0439 17.2861 -40.833h108.072zM510.556 479.389l-0.135742 -108.889c12.665 -1.08496 30.959 -8.46387 40.833 -16.4697l76.6299 76.6309c-27.3682 25.5205 -79.9316 47.3516 -117.327 48.7275zM496.944 479.389
c-37.3809 -1.34473 -89.9424 -23.1133 -117.327 -48.5918l76.4941 -76.7666c9.87402 8.00586 28.167 15.3848 40.833 16.4697v108.889zM369.953 421.133c-25.6328 -27.4961 -47.4629 -80.3027 -48.7285 -117.872h108.072c1.18359 12.7891 8.92773 31.082 17.2861 40.833z
M321.225 289.65c1.45898 -37.2676 23.29 -89.6465 48.7285 -116.92l76.4941 76.0859c-8.35938 9.75098 -16.1025 28.0449 -17.2861 40.834h-107.937zM496.944 114.475l0.135742 108.889c-12.666 1.08496 -30.959 8.46387 -40.833 16.4697l-76.6299 -76.6299
c27.3682 -25.5225 79.9307 -47.3516 117.327 -48.7285zM510.556 114.475c37.4395 1.34863 90.0635 23.1797 117.464 48.7285l-76.6309 76.6299c-9.87402 -8.00586 -28.167 -15.3848 -40.833 -16.4697v-108.889zM637.547 172.73
c25.3955 27.2891 47.1641 79.6689 48.5918 116.92h-107.936c-1.18359 -12.7891 -8.92773 -31.083 -17.2861 -40.834zM442.5 297c0 -78.042 122.5 -77.6416 122.5 0c0 33.3008 -27.4229 60.2969 -61.25 60.2969s-61.25 -26.9961 -61.25 -60.2969z" />
  </g>

</svg>
