<?xml version="1.0" standalone="no"?>
<!DOCTYPE svg PUBLIC "-//W3C//DTD SVG 1.1//EN" "http://www.w3.org/Graphics/SVG/1.1/DTD/svg11.dtd" >
<svg xmlns="http://www.w3.org/2000/svg" xmlns:xlink="http://www.w3.org/1999/xlink" version="1.1" viewBox="-10 0 1051 1000">
  <g transform="matrix(1 0 0 -1 0 800)">
   <path fill="currentColor"
d="M828.399 483.872c0 9.49878 0.360099 25.4826 0.360099 28.905l-0.318652 61.3747l-8.69455 54.78l-24.0577 41.7601l-29.8355 19.1251l-33.9409 8.02542l-47.9505 1.85133v0.765382l-107.704 8.96128l-161.614 -4.8437l-135.511 -48.0118l4.97421 -24.8711
l90.1513 34.2037l168.519 13.9909l163.859 -8.05849l72.0585 -32.0852l24.6852 -76.5829c-11.2968 -92.7231 -11.5388 -94.7093 -10.6225 -98.1968c0.272553 -1.03738 0.408327 -1.98777 0.495372 -2.92219c0.487753 -0.641757 1.13403 -1.58506 1.4862 -2.05622
l30.4464 -40.7334l38.0432 -60.0682l23.93 -33.502l-96.7113 -80.2498l-3.19974 -219.288c0.962733 -7.56244 2.78458 -22.0112 5.01798 -45.877c-0.12894 -0.269919 -9.65147 -20.9678 -12.8349 -27.02c-1.80565 -3.43278 -3.36365 -6.39475 -8.94453 -11.1259
c-28.726 -6.87192 -37.6748 -9.01268 -53.7943 -9.01268c-3.38415 0 -6.77838 0.14333 -10.1737 0.446144l-127.95 -3.2205l-189.706 31.9736l-119.91 72.0259l-21.8729 31.5454c-0.18608 0.126152 -14.9542 10.3475 -18.5829 12.6523v-31.4635
c5.41685 -3.87145 13.5068 -7.36272 24.4398 -17.2503c7.32645 -6.62591 2.09556 -4.45645 10.6241 -11.9264c1.03002 -0.902171 1.03002 -0.902171 17.2005 -21.8062l70.2643 -41.1391l123.979 -35.7692l40.8353 -3.74581
c52.8258 -4.90757 59.0669 -6.73248 83.0467 -7.42728l68.08 -1.97257l89.7606 0.254271l51.1066 12.4914l15.1376 25.2075l6.27671 34.16l-0.268638 82.9487l0.0291888 84.2282l-0.00582149 87.5189l84.7837 67.8016l7.68593 8.96692l1.11464 7.19504
c0.44913 7.61262 -1.52476 12.8022 -3.31214 18.1783l-23.3304 38.8443l-33.0243 43.448l-34.3179 48.9016c-0.202711 16.1296 -0.202711 16.1296 -0.202711 17.6951zM33.2949 712.521h55.5146l17.1611 52.2256l17.1602 -52.2256h55.5156l-44.8672 -32.2959
l17.1611 -52.2246l-44.9697 32.2959l-44.9707 -32.2959l17.1611 52.2246zM527.143 538.372c75.2754 0 136.522 -41.1641 136.522 -91.6602c0 -12.5107 -3.6748 -24.4619 -10.9844 -35.999l33.5059 -160.083h-19.3486l-32.126 139.711
c-11.0898 -9.30078 -21.2773 -15.1602 -32.9268 -20.3359v-121.696h-19.3379v114.604c-7.27246 -2.12598 -27.2383 -7.86133 -55.3047 -7.86133c-14.9795 0 -28.0234 1.52051 -41.4121 4.30859l14.0059 -109.505h-17.7969l-14.6436 114.485
c-23.5137 7.81055 -36.8213 17.4131 -44.1318 23.043l-16.3467 -126.698h-17.7979l18.3369 142.104c-4.08594 5.04004 -12.542 16.2559 -15.6006 32.0791c-0.118164 0 -0.238281 -0.000976563 -0.356445 -0.000976563c-8.20117 0 -17.3223 2.38379 -27.0859 7.87793
c-25.334 14.2539 -52.2178 34.5332 -52.2178 56.3984c0 27.3838 16.8467 39.6143 62.668 39.6143c29.7129 0 45.9561 -11.1914 53.2295 -29.2637c18.2197 12.8975 50.5889 28.877 99.1494 28.877zM389.02 260.686h-0.878906l0.766602 -0.874023zM406.817 260.686
l-0.0888672 -0.674805l0.768555 0.674805h-0.679688zM481.939 249.855h-0.680664l0.766602 -0.674805zM499.736 249.855l0.110352 -0.873047l0.767578 0.873047h-0.87793zM582.447 248.309h-0.773438l0.773438 -0.773438v0.773438zM601.785 248.309v-0.773438
l0.773438 0.773438h-0.773438zM666.838 250.63h-0.616211l0.753906 -0.599609zM686.187 250.63l0.195312 -0.933594l0.756836 0.933594h-0.952148zM602.507 195.788l101.493 -87.7881l-97.2979 -85.8389l-8.74707 9.25098l84.0107 70.7148l-288.418 -2.33105
l-0.694336 13.1943l289.178 0.336914l-87.5771 73.3076z" />
  </g>

</svg>
