<?xml version="1.0" standalone="no"?>
<!DOCTYPE svg PUBLIC "-//W3C//DTD SVG 1.1//EN" "http://www.w3.org/Graphics/SVG/1.1/DTD/svg11.dtd" >
<svg xmlns="http://www.w3.org/2000/svg" xmlns:xlink="http://www.w3.org/1999/xlink" version="1.1" viewBox="-10 0 1044 1000">
  <g transform="matrix(1 0 0 -1 0 800)">
   <path fill="currentColor"
d="M828.399 483.872c0 9.49878 0.360099 25.4826 0.360099 28.905l-0.318652 61.3747l-8.69455 54.78l-24.0577 41.7601l-29.8355 19.1251l-33.9409 8.02542l-47.9505 1.85133v0.765382l-107.704 8.96128l-161.614 -4.8437l-135.511 -48.0118l4.97421 -24.8711
l90.1513 34.2037l168.519 13.9909l163.859 -8.05849l72.0585 -32.0852l24.6852 -76.5829c-11.2968 -92.7231 -11.5388 -94.7093 -10.6225 -98.1968c0.272553 -1.03738 0.408327 -1.98777 0.495372 -2.92219c0.487753 -0.641757 1.13403 -1.58506 1.4862 -2.05622
l30.4464 -40.7334l38.0432 -60.0682l23.93 -33.502l-96.7113 -80.2498l-3.19974 -219.288c0.962733 -7.56244 2.78458 -22.0112 5.01798 -45.877c-0.12894 -0.269919 -9.65147 -20.9678 -12.8349 -27.02c-1.80565 -3.43278 -3.36365 -6.39475 -8.94453 -11.1259
c-28.726 -6.87192 -37.6748 -9.01268 -53.7943 -9.01268c-3.38415 0 -6.77838 0.14333 -10.1737 0.446144l-127.95 -3.2205l-189.706 31.9736l-119.91 72.0259l-21.8729 31.5454c-0.18608 0.126152 -14.9542 10.3475 -18.5829 12.6523v-31.4635
c5.41685 -3.87145 13.5068 -7.36272 24.4398 -17.2503c7.32645 -6.62591 2.09556 -4.45645 10.6241 -11.9264c1.03002 -0.902171 1.03002 -0.902171 17.2005 -21.8062l70.2643 -41.1391l123.979 -35.7692l40.8353 -3.74581
c52.8258 -4.90757 59.0669 -6.73248 83.0467 -7.42728l68.08 -1.97257l89.7606 0.254271l51.1066 12.4914l15.1376 25.2075l6.27671 34.16l-0.268638 82.9487l0.0291888 84.2282l-0.00582149 87.5189l84.7837 67.8016l7.68593 8.96692l1.11464 7.19504
c0.44913 7.61262 -1.52476 12.8022 -3.31214 18.1783l-23.3304 38.8443l-33.0243 43.448l-34.3179 48.9016c-0.202711 16.1296 -0.202711 16.1296 -0.202711 17.6951zM30.3242 741.553h55.5146l17.1611 52.2256l17.1602 -52.2256h55.5156l-44.8672 -32.2959
l17.1611 -52.2246l-44.9697 32.2959l-44.9707 -32.2959l17.1611 52.2246zM459.865 -12.3799c-1.45508 0 -2.62598 1.18164 -2.62598 2.625l2.51758 72.4805c-7.32031 8.76367 -14.8311 16.9678 -22.2256 25.0449c-32.6035 35.6084 -63.1152 69.0117 -63.2217 136.392
c-0.0888672 56.1533 20.3389 84.8799 31.7773 96.5156c36.1553 35.3438 83.8857 44.2275 108.692 44.2275c2.25586 0 5.10938 1.91309 8.08203 1.77344c73.3213 -3.44922 88.9688 -9.24902 126.326 -41.7422c4.82227 -4.19434 6.22559 -7.61328 6.85254 -10.8418
c0.113281 -0.583008 0.177734 -0.810547 0.199219 -0.881836c17.1172 -19.752 29.1289 -71.6631 30.0605 -86.7607c0.0625 -1.02344 0.21582 -2.21289 0.392578 -3.55859c0.5 -3.80078 1.16309 -8.82422 0.0556641 -15.1455
c-15.2314 -86.9951 -56.6279 -112.03 -61.4971 -125.669c-0.265625 -0.744141 -0.509766 -0.867188 -0.616211 -0.972656c-1.16016 -1.16016 -11.2178 -6.28711 -19.2979 -10.0879c-1.01465 -2.88965 -1.01465 -2.88965 -1.52832 -3.42383
c-0.238281 -0.915039 -18.2686 -15.4756 -18.2686 -15.4756l-1.49902 -74.041c-0.0292969 -1.42285 16.6289 10.3799 15.2051 10.3701zM656.129 313.328l-0.173828 0.151367l-1.58594 -2.07422zM648.758 322.69l-1.7373 0.716797l-1.73926 -4.3584zM535.229 346.618
c-42.0957 0 -69.5449 -7.43164 -104.546 -33.3828c-9.22949 -9.22949 -34.9189 -36.9287 -35.04 -84.9834c-0.161133 -63.2588 27.4092 -93.04 42.2178 -107.85c7.37891 -7.37891 7.37891 -7.37891 8.60156 -9.20508c2.41602 -3.6084 2.41602 -3.6084 18.0957 -20.6045
c3.60059 -0.886719 9.10547 -3.15625 14.6885 -8.95898c3.05273 -3.17383 1.82031 -14.9541 1.25586 -20.3438l-0.50293 -61.29l97.2607 -0.499023l4.57422 75.2236c0.0429688 0.712891 0.373047 1.375 0.923828 1.84277c3.23047 2.75391 3.31543 2.82715 4.99023 4.50098
c1.65332 1.65332 6.4502 6.33691 10.6689 7.56543c1.5293 0.444336 3.66113 4.67188 8.0918 7.98438c21.1943 15.8437 52.5654 55.7266 56.4609 113.207c0.570312 8.4082 -0.728516 17.583 -2.3877 27.4238c-3.51074 20.8291 -8.65625 50.4297 -24.4922 68.8809
c-2.46094 2.0293 -3.20898 2.70312 -14.5449 14.0391c-20.2793 20.2793 -53.8555 26.4492 -86.3164 26.4492zM527.32 434.842l-80.7998 136.396l9.32617 3.67383l72.2832 -115.78l65.8701 116.868l12.6084 -4.76172z" />
  </g>

</svg>
