<?xml version="1.0" standalone="no"?>
<!DOCTYPE svg PUBLIC "-//W3C//DTD SVG 1.1//EN" "http://www.w3.org/Graphics/SVG/1.1/DTD/svg11.dtd" >
<svg xmlns="http://www.w3.org/2000/svg" xmlns:xlink="http://www.w3.org/1999/xlink" version="1.1" viewBox="-10 0 1012 1000">
  <g transform="matrix(1 0 0 -1 0 800)">
   <path fill="currentColor"
d="M348.481 97.6934l-82.2217 148.848l24.0225 10.1475l58.4395 -100.383l53.3027 101.418l27.2285 -11.0254zM265.568 -67.707v34.6641h38.626v22.0713h-38.626v34.6641h38.626v33.7148h31.3828v-33.7148h23.2197v31.2539h31.3828v-31.2539h41.292v-34.6641h-41.292
v-22.0713h41.292v-34.6641h-41.292v-36.1855h-31.3828v36.1855h-23.2197v-33.7246h-31.3828v33.7246h-38.626zM335.577 -33.043h23.2197v22.0713h-23.2197v-22.0713zM780.659 223.904c-0.529297 0 -0.985352 0.173828 -1.32227 0.358398l-214.094 -88.2627v-37.8242
c12.126 5.10742 24.251 10.2148 36.376 15.3213v-3.77051l-0.21875 -161.659h318.305l0.646484 155.446c10.9619 -6.48535 21.9238 -12.9697 32.8867 -19.4551l-0.677734 40.7051l-136.33 79.1182l1.46387 0.616211c-22.6963 11.7715 -24.457 12.7314 -36.2109 19.5508
c-0.288086 -0.102539 -0.56543 -0.144531 -0.824219 -0.144531zM884.594 -16.7148h-248.003l-0.665039 144.662l142.009 59.8174l107.859 -63.8086zM63.3545 -23.4795h55.5146l17.1611 52.2256l17.1602 -52.2256h55.5156l-44.8672 -32.2959l17.1611 -52.2246
l-44.9697 32.2959l-44.9707 -32.2959l17.1611 52.2246zM386.476 509.727zM310.812 532.938l-0.0478516 0.0517578c0.015625 -0.0175781 0.03125 -0.0341797 0.0478516 -0.0517578zM305.074 548.375c0 -5.4375 1.46484 -10.3896 5.66797 -15.3535
c4.28418 -4.28418 5.16113 -4.76074 15.1748 -5.19434c0.193359 0 134.021 0.0585938 134.021 0.0585938c0.303711 -0.00488281 0.607422 -0.00683594 0.911133 -0.00683594c10.2354 0 12.3564 1.58887 15.1143 4.34668c3.55469 3.55469 6.53516 9.3877 6.53516 16.7178
c0 4.63965 -0.762695 7.99219 -8.49805 39.0566c-15.8301 65.0146 -19.4277 79.7861 -30.2109 103.412c-1.97168 4.22559 -8.31934 16.9453 -16.917 25.543c-9.5459 9.54492 -20.1562 13.8271 -33.9248 13.8271c-40.4648 0 -56.3105 -50.3789 -69.1211 -101.415
c-11.5205 -47.4297 -11.5371 -47.4951 -15.7002 -63.1113c-0.00488281 -0.0244141 -0.0107422 -0.0478516 -0.0185547 -0.0703125c-1.62988 -6.70215 -3.0332 -12.4893 -3.0332 -17.8105zM500.765 549.084c0 -22.167 -14.0859 -41.7598 -34.9629 -41.7598
c-0.147461 0 -0.295898 0.000976562 -0.444336 0.00292969c-0.0136719 0 -8.64453 -0.174805 -8.64453 -0.174805c-24.0303 0.0839844 -46.6279 0.112305 -66.0684 0.112305c-41.5283 0 -64.3213 -0.117188 -64.9717 -0.111328
c-8.11426 0.261719 -18.3252 0.59082 -27.1152 10.3301c-9.88867 10.9541 -11.8555 23.4941 -11.8555 31.7432c0 6.30176 0.852539 10.6025 5.5459 28.9463c1.94727 7.61426 2.36914 9.26172 9.4375 37.8174c9.26855 37.4453 11.4658 46.3213 17.1963 63.0479
c12.6875 36.8877 33.291 72.6025 76.3525 72.6025c14.3301 0 31.834 -4.73145 46.9863 -22.5234c13.0986 -15.3799 23.5645 -36.3428 35.6592 -81.8643c0.810547 1.3125 1.75977 2.52539 2.84863 3.61426c3.59375 3.59375 8.69141 5.81152 15.2217 5.81152
c14.2842 0 24.0049 -9.62402 24.0049 -21.8408c0 -12.2373 -8.54297 -22.1592 -22.8057 -22.1592c-4.17676 0 -7.86035 0.768555 -10.9824 2.16113c4.68945 -18.0146 10.709 -40.9922 13.5391 -55.251c0.714844 -3.51855 1.05859 -7.04199 1.05859 -10.5049z
M305.417 554.024c0 0 0.0429688 -0.0078125 0.0429688 -0.00390625c-0.0146484 0 -0.0283203 0.00390625 -0.0429688 0.00390625z" />
  </g>

</svg>
