<?xml version="1.0" standalone="no"?>
<!DOCTYPE svg PUBLIC "-//W3C//DTD SVG 1.1//EN" "http://www.w3.org/Graphics/SVG/1.1/DTD/svg11.dtd" >
<svg xmlns="http://www.w3.org/2000/svg" xmlns:xlink="http://www.w3.org/1999/xlink" version="1.1" viewBox="-10 0 1006 1000">
  <g transform="matrix(1 0 0 -1 0 800)">
   <path fill="currentColor"
d="M41.3545 731.521h55.5146l17.1611 52.2256l17.1602 -52.2256h55.5156l-44.8672 -32.2959l17.1611 -52.2246l-44.9697 32.2959l-44.9707 -32.2959l17.1611 52.2246zM527 -113.153h251.022v-15.278h-526.578v15.278h257.778v325.875h-186.666v15.278h186.666v106.944
h17.778v-106.944h186.666v-15.278h-186.666v-325.875zM521.909 588.919l-0.948242 -150.971s1.30859 0.0273438 2.03906 0.0517578l0.936523 153.718c0.0166016 2.67285 0.634766 4.22363 4.40527 5.69922c-2.94238 0.926758 -2.21094 0.859375 -3.20117 2.17578
c-0.808594 1.07617 -1.2041 2.90332 -1.2041 3.60645v159.204h-2.02734v-156.604c0 -3.44824 -3.03223 -6.25293 -6.4707 -5.98145c-1.33496 0.104492 -2.99023 1.03711 -3.48145 1.4668c-31.8486 27.8828 -66.0967 57.4912 -96.5586 84.1602
c34.1592 -30.1963 67.7871 -60.2979 101.814 -90.376zM531.651 597.435c-0.405273 -0.135742 -0.928711 -0.30957 -1.61133 -0.543945c-0.673828 0.207031 -1.23242 0.379883 -1.69824 0.526367c0.489258 0.191406 1.03223 0.381836 1.63281 0.573242
c0.717773 -0.238281 1.2627 -0.417969 1.67676 -0.555664zM531.651 597.435c1.99219 -0.665039 0.961914 -0.352539 1.69531 -0.807617c33.2002 29.3105 66.7451 60.502 97.0391 87.2471l-96.4785 -85.1729c-0.980469 -0.866211 -0.416016 -0.658203 -2.25586 -1.2666z
M515.103 434.198l-6.16602 0.0390625l0.951172 151.291l-107.79 95.2822c-2.42871 2.14648 -2.74512 6.25391 -0.276367 8.73047l8.86621 8.89453c1.94922 1.95508 5.71484 2.4541 8.20117 0.277344l91.0205 -79.6855v149.376c0 2.5752 2.36816 6 6 6h14.0273
c2.5752 0 6 -2.36816 6 -6v-151.903l91.0293 80.3623c1.96289 1.73242 5.56738 2.09473 7.94141 0l9.95996 -8.79199c2.44531 -2.1582 2.79395 -6.53027 0 -8.99609l-107.593 -94.9863c-0.21875 -0.192383 -0.84668 -0.65625 -1.38965 -0.918945l-0.920898 -151.007
c-0.0175781 -2.79199 -2.63379 -6.53809 -7.17188 -5.85352c-0.349609 -0.0126953 -5.33301 -0.755859 -13.3525 -0.0888672z" />
  </g>

</svg>
