<?xml version="1.0" standalone="no"?>
<!DOCTYPE svg PUBLIC "-//W3C//DTD SVG 1.1//EN" "http://www.w3.org/Graphics/SVG/1.1/DTD/svg11.dtd" >
<svg xmlns="http://www.w3.org/2000/svg" xmlns:xlink="http://www.w3.org/1999/xlink" version="1.1" viewBox="-10 0 1051 1000">
  <g transform="matrix(1 0 0 -1 0 800)">
   <path fill="currentColor"
d="M271 608l-12 60c128.725 89.7881 355.203 55.3633 442.457 48.5605c0 -0.0107422 0.000976562 -0.0214844 0.000976562 -0.0322266c27.4463 0.582031 75.1855 -1.32129 107.268 -33.4033c40.1396 -40.1396 38.6152 -108.841 37.5254 -169.365
c-0.395508 -21.9258 -0.433594 -33.2402 -0.22168 -41.9463c26.3789 -43.8281 72.168 -89.959 89.3252 -129.607c6.95117 -16.0635 5.49219 -24.7637 2.64551 -40.2051l-12 -14l-79.501 -63.5771v-212.431c1.93945 -31.0869 1.82422 -79.2412 -27.416 -108.48
c-26.0322 -26.0322 -182.507 -12.0195 -220.584 -13.0049l-2.90137 0.0126953c-103.732 -7.2998 -296.108 50.6025 -326.603 92.1719c-18.5059 25.2275 -31.4014 41.2529 -57.9951 55.3086v70.0371c25.8174 -16.2627 49.624 -17.8066 70.1904 -60.6357
c44.2188 -92.082 349.455 -105.734 451.309 -108.438l-0.499023 -0.962891c50 12 34.1514 4.48145 42.5352 13.5361c19.1768 20.7119 3.97852 41.9688 5.50781 57.9648h-0.541992v2.14941c-0.253906 0.990234 -0.500977 1.94141 -0.738281 2.84863h0.738281v207.174v3.4873
v1.33887h1.58203l104 88h1.13281c4.9834 45.8955 -62.8379 92.1289 -94.2158 139.501l-3 4l-1 1c-2.02051 3.99219 0.0439453 4.02539 -2.08398 11.5605c-0.0371094 0.130859 -0.189453 0.24707 -0.174805 0.367188l0.258789 2.07227l0.0644531 1.49902
c0.00976562 0.226562 0.150391 3.89551 0.242188 6.24414c3.11426 79.1523 14.1973 176.389 -74.8154 176.771c-136.35 16.7461 -373.536 9.53418 -431.49 -46.5137zM30.3545 728.521h55.5146l17.1611 52.2256l17.1602 -52.2256h55.5156l-44.8672 -32.2959l17.1611 -52.2246
l-44.9697 32.2959l-44.9707 -32.2959l17.1611 52.2246zM634.584 300.949l0.166016 -8.25c-1.125 0.0253906 -2.95215 0.0449219 -4.07812 0.0449219c-10.2207 0 -26.6494 -1.625 -36.6719 -3.62793c-10.9951 -2.24023 -25.9287 -10.9014 -33.333 -19.333
c-5.87012 -7.96289 -10.9473 -22.4482 -11.334 -32.333c-0.0273438 -1.12793 -0.0507812 -2.95996 -0.0507812 -4.08789c0 -7.00977 0.881836 -18.3203 1.96777 -25.2461c2.91699 -23.583 5.91699 -47.916 -14.833 -67.5c-7.75879 -6.87891 -22.3936 -13.5986 -32.667 -15
c-5.53613 -0.875977 -14.5771 -1.58594 -20.1826 -1.58594c-0.248047 0 -0.652344 0.000976562 -0.900391 0.00292969c-5.83398 0 -11.5 0.666016 -16.667 0.666016l0.583984 8.33398c3.93164 -0.357422 10.3271 -0.648438 14.2764 -0.648438
c5.97754 0 15.6348 0.664062 21.5566 1.48145c8.89258 1.1748 21.585 6.92383 28.333 12.834c17.667 16.666 15 37.916 12.25 60.416c-1.09863 7.09473 -1.99023 18.6787 -1.99023 25.8584c0 1.37305 0.0332031 3.60254 0.0732422 4.97461
c0.40625 11.3252 6.2666 27.8643 13.084 36.917c8.36523 9.67285 25.3145 19.6406 37.833 22.25c10.5342 2.13867 27.8076 3.875 38.5566 3.875c1.11133 0 2.91602 -0.0185547 4.02734 -0.0419922zM478.417 253.95c3 -24.334 6.08301 -49.334 -15.084 -69
c-7.91895 -7.0166 -22.8525 -13.8857 -33.333 -15.334c-5.74805 -0.920898 -15.1367 -1.66895 -20.958 -1.66895c-0.21875 0 -0.573242 0.000976563 -0.791992 0.00195312c-5.58301 0 -11.333 0.666992 -16.666 0.666992l0.583008 8.33398
c4.04199 -0.368164 10.6182 -0.666992 14.6777 -0.666992c6.09668 0 15.9482 0.671875 21.9883 1.5c9.10156 1.2168 22.0938 7.11523 29 13.167c18.167 17.083 15.417 38.833 12.584 61.916c-1.14258 7.32227 -2.06934 19.2793 -2.06934 26.6895
c0 1.35156 0.03125 3.54395 0.0693359 4.89355c0.40625 11.6113 6.41699 28.5615 13.416 37.834c8.54297 9.89844 25.8652 20.0908 38.667 22.75c10.7705 2.18652 28.4307 3.95996 39.4199 3.95996c1.14941 0 3.01465 -0.0195312 4.16406 -0.0439453v-8.33301
c-1.14062 0.0244141 -2.99219 0.0449219 -4.13184 0.0449219c-10.4619 0 -27.2773 -1.66309 -37.5352 -3.71191c-11.2549 -2.29883 -26.5234 -11.1846 -34.083 -19.833c-6.11133 -8.13867 -11.4121 -22.9971 -11.834 -33.166
c-0.0322266 -1.21875 -0.0585938 -3.19824 -0.0585938 -4.41699c0 -7.10352 0.884766 -18.5645 1.97559 -25.583zM668 429l-270 0.899414v17.8164h242.083v101.167h-242.083v17.8164l267.6 -1.5z" />
  </g>

</svg>
