<?xml version="1.0" standalone="no"?>
<!DOCTYPE svg PUBLIC "-//W3C//DTD SVG 1.1//EN" "http://www.w3.org/Graphics/SVG/1.1/DTD/svg11.dtd" >
<svg xmlns="http://www.w3.org/2000/svg" xmlns:xlink="http://www.w3.org/1999/xlink" version="1.1" viewBox="-10 0 1008 1000">
  <g transform="matrix(1 0 0 -1 0 800)">
   <path fill="currentColor"
d="M445.787 554.562l107.366 -91.7871l-102.058 -91.0928l-15.4053 16.1055l75.1416 63.9971l-272.832 -3.78516l1.22754 27.0186l271.388 -2.26465l-79.0791 65.4209zM719.602 577.357v0c-50.7129 -0.0585938 -91.9102 -41.2412 -91.9688 -91.957
c-0.0712891 -62.8799 51.1396 -114.231 112.644 -114.345c76.2285 0.0566406 137.819 63.5078 137.819 139.739c0 94.7119 -74.583 181.129 -167.925 181.241c-1.63672 0.00292969 -3.27246 0.00488281 -4.90918 0.00585938v-19.7676
c1.63379 -0.000976562 3.26465 -0.00390625 4.89648 -0.00585937c82.9629 -0.106445 148.17 -78.3252 148.17 -161.274c0 -63.3652 -51.3428 -118.558 -118.317 -118.612c-51.1182 0.104492 -92.6104 41.7002 -92.6104 92.8135c0 40.5615 32.7666 72.3945 72.1953 72.3945
c30.7207 -0.0507812 55.708 -25.0449 55.7578 -55.7676c0.00292969 -1.63086 0.00683594 -3.26172 0.0078125 -4.89453h19.7666c0 0.421875 0 0.421875 -0.00683594 4.91016c-0.0585938 41.6318 -33.8828 75.4609 -75.5195 75.5195zM312 570l-82.2217 148.848
l24.0225 10.1475l58.4395 -100.383l53.3027 101.418l27.2285 -11.0254zM352 116l-82.2217 148.848l24.0225 10.1475l58.4395 -100.383l53.3027 101.418l27.2285 -11.0254zM265.568 -67.707v34.6641h38.626v22.0713h-38.626v34.6641h38.626v33.7148h31.3828v-33.7148h23.2197
v31.2539h31.3828v-31.2539h41.292v-34.6641h-41.292v-22.0713h41.292v-34.6641h-41.292v-36.1855h-31.3828v36.1855h-23.2197v-33.7246h-31.3828v33.7246h-38.626zM335.577 -33.043h23.2197v22.0713h-23.2197v-22.0713zM780.659 223.904
c-0.529297 0 -0.985352 0.173828 -1.32227 0.358398l-214.094 -88.2627v-37.8242c12.126 5.10742 24.251 10.2148 36.376 15.3213v-3.77051l-0.21875 -161.659h318.305l0.646484 155.446c10.9619 -6.48535 21.9238 -12.9697 32.8867 -19.4551l-0.677734 40.7051
l-136.33 79.1182l1.46387 0.616211c-22.6963 11.7715 -24.457 12.7314 -36.2109 19.5508c-0.288086 -0.102539 -0.56543 -0.144531 -0.824219 -0.144531zM884.594 -16.7148h-248.003l-0.665039 144.662l142.009 59.8174l107.859 -63.8086zM63.3545 -23.4795h55.5146
l17.1611 52.2256l17.1602 -52.2256h55.5156l-44.8672 -32.2959l17.1611 -52.2246l-44.9697 32.2959l-44.9707 -32.2959l17.1611 52.2246z" />
  </g>

</svg>
