<?xml version="1.0" standalone="no"?>
<!DOCTYPE svg PUBLIC "-//W3C//DTD SVG 1.1//EN" "http://www.w3.org/Graphics/SVG/1.1/DTD/svg11.dtd" >
<svg xmlns="http://www.w3.org/2000/svg" xmlns:xlink="http://www.w3.org/1999/xlink" version="1.1" viewBox="-10 0 1051 1000">
  <g transform="matrix(1 0 0 -1 0 800)">
   <path fill="currentColor"
d="M271 608l-12 60c128.725 89.7881 355.203 55.3633 442.457 48.5605c0 -0.0107422 0.000976562 -0.0214844 0.000976562 -0.0322266c27.4463 0.582031 75.1855 -1.32129 107.268 -33.4033c40.1396 -40.1396 38.6152 -108.841 37.5254 -169.365
c-0.395508 -21.9258 -0.433594 -33.2402 -0.22168 -41.9463c26.3789 -43.8281 72.168 -89.959 89.3252 -129.607c6.95117 -16.0635 5.49219 -24.7637 2.64551 -40.2051l-12 -14l-79.501 -63.5771v-212.431c1.93945 -31.0869 1.82422 -79.2412 -27.416 -108.48
c-26.0322 -26.0322 -182.507 -12.0195 -220.584 -13.0049l-2.90137 0.0126953c-103.732 -7.2998 -296.108 50.6025 -326.603 92.1719c-18.5059 25.2275 -31.4014 41.2529 -57.9951 55.3086v70.0371c25.8174 -16.2627 49.624 -17.8066 70.1904 -60.6357
c44.2188 -92.082 349.455 -105.734 451.309 -108.438l-0.499023 -0.962891c50 12 34.1514 4.48145 42.5352 13.5361c19.1768 20.7119 3.97852 41.9688 5.50781 57.9648h-0.541992v2.14941c-0.253906 0.990234 -0.500977 1.94141 -0.738281 2.84863h0.738281v207.174v3.4873
v1.33887h1.58203l104 88h1.13281c4.9834 45.8955 -62.8379 92.1289 -94.2158 139.501l-3 4l-1 1c-2.02051 3.99219 0.0439453 4.02539 -2.08398 11.5605c-0.0371094 0.130859 -0.189453 0.24707 -0.174805 0.367188l0.258789 2.07227l0.0644531 1.49902
c0.00976562 0.226562 0.150391 3.89551 0.242188 6.24414c3.11426 79.1523 14.1973 176.389 -74.8154 176.771c-136.35 16.7461 -373.536 9.53418 -431.49 -46.5137zM30.3545 728.521h55.5146l17.1611 52.2256l17.1602 -52.2256h55.5156l-44.8672 -32.2959l17.1611 -52.2246
l-44.9697 32.2959l-44.9707 -32.2959l17.1611 52.2246zM481 594c-3 -4 -4 -6 -7 -9c12 -10 17 -15 31 -27c-6 -9 -18 -28 -18 -58c0 -15 3 -29 9 -41l2 -4c-10 -6 -20 -9 -41 -21c3 -4 6 -9 8 -12c15 9 24 14 39 22c4 -6 6 -9 12 -15c21 -21 46 -25 58 -27l5 -1
c-2 -27 -2 -35 -2 -44c8 0 9 -1 12 -1v18c0 10 2 15 2 27c12 2 38 4 64 30c3 3 6 5 14 15c15 -10 21 -15 31 -23c3 4 5 7 8 11c-10 9 -18 15 -33 24c4 9 9 22 9 42c0 22 -7 38 -11 46l-3 3s23 13 35 21c-3 4 -3 6 -6 9c-18 -10 -23 -11 -35 -19c-4 4 -6 7 -9 10
c-22 22 -47 27 -61 29h-5c-2 16 -1 24 -1 33v7h-11v-19v-21c-10 -2 -37 -5 -61 -29l-3 -4c-16 15 -23 20 -32 28zM586 413c-46 0 -87 39 -87 87s39 87 87 87s86 -39 86 -87s-38 -87 -86 -87zM616 143zM721 146l-63 56l-2 2l-2 -2c-5 -6 -5 -6 -6 -6l-2 -2c0 0 1 0 3 -2
l49 -42l-88 -1l-47 45l-6 -7l39 -38h-14h-96v-10c2 0 1 -1 110 -2l-42 -35l7 -7l48 41c1 0 0 1 1 1l87 1c-16 -13 -31 -26 -47 -39v0v0v0v0v0v0l-2 -2l2 -2l5 -6v0v0v0v0v0l2 -2l2 2c62 53 62 53 63 54l1 1z" />
  </g>

</svg>
