<?xml version="1.0" standalone="no"?>
<!DOCTYPE svg PUBLIC "-//W3C//DTD SVG 1.1//EN" "http://www.w3.org/Graphics/SVG/1.1/DTD/svg11.dtd" >
<svg xmlns="http://www.w3.org/2000/svg" xmlns:xlink="http://www.w3.org/1999/xlink" version="1.1" viewBox="-10 0 1002 1000">
  <g transform="matrix(1 0 0 -1 0 800)">
   <path fill="currentColor"
d="M30.3242 741.553h55.5146l17.1611 52.2256l17.1602 -52.2256h55.5156l-44.8672 -32.2959l17.1611 -52.2246l-44.9697 32.2959l-44.9707 -32.2959l17.1611 52.2246zM271 608l-12 60c128.725 89.7881 355.203 55.3633 442.457 48.5605
c0 -0.0107422 0.000976562 -0.0214844 0.000976562 -0.0322266c27.4463 0.582031 75.1855 -1.32129 107.268 -33.4033c40.1396 -40.1396 38.6152 -108.841 37.5254 -169.365c-0.395508 -21.9258 -0.433594 -33.2402 -0.22168 -41.9463
c26.3789 -43.8281 72.168 -89.959 89.3252 -129.607c6.95117 -16.0635 5.49219 -24.7637 2.64551 -40.2051l-12 -14l-79.501 -63.5771v-212.431c1.93945 -31.0869 1.82422 -79.2412 -27.416 -108.48c-26.0322 -26.0322 -182.507 -12.0195 -220.584 -13.0049
l-2.90137 0.0126953c-103.732 -7.2998 -296.108 50.6025 -326.603 92.1719c-18.5059 25.2275 -31.4014 41.2529 -57.9951 55.3086v70.0371c25.8174 -16.2627 49.624 -17.8066 70.1904 -60.6357c44.2188 -92.082 349.455 -105.734 451.309 -108.438l-0.499023 -0.962891
c50 12 34.1514 4.48145 42.5352 13.5361c19.1768 20.7119 3.97852 41.9688 5.50781 57.9648h-0.541992v2.14941c-0.253906 0.990234 -0.500977 1.94141 -0.738281 2.84863h0.738281v207.174v3.4873v1.33887h1.58203l104 88h1.13281
c4.9834 45.8955 -62.8379 92.1289 -94.2158 139.501l-3 4l-1 1c-2.02051 3.99219 0.0439453 4.02539 -2.08398 11.5605c-0.0371094 0.130859 -0.189453 0.24707 -0.174805 0.367188l0.258789 2.07227l0.0644531 1.49902
c0.00976562 0.226562 0.150391 3.89551 0.242188 6.24414c3.11426 79.1523 5.19727 173.389 -83.8154 173.771c-136.35 16.7461 -373.536 9.53418 -431.49 -46.5137zM537 209.8c28.6924 0 51.8994 -22.5674 51.8994 -51.1992
c0 -31.9287 -23.4922 -49.7988 -51.8994 -49.7988c-27.3994 0 -52.5986 17.6016 -52.5986 49.7988c0 28.6094 23.876 51.1992 52.5986 51.1992zM600.858 151.699h92.166l-0.550781 -5.5c-2.91992 -29.208 -18.5059 -67.5137 -37.54 -90.209l-3.50977 -4.18457
l-64.8584 64.8584c9.34961 14.0244 11.4951 21.9795 14.293 35.0352zM543.201 1.87598v92.8662c18.1143 3.88281 24.3232 7.61914 34.3359 14.293l65.5576 -65.5586l-4.18457 -3.50977c-8.76855 -7.35449 -42.5146 -32.7715 -95.709 -38.0908zM530.799 94.7422v-92.8662
l-5.5 0.550781c-29.208 2.91992 -67.5137 18.5059 -90.209 37.54l-4.16016 3.48926l64.8135 65.5928c13.9766 -9.31738 21.8672 -11.4795 35.0557 -14.3066zM380.275 151.699h92.167c3.8418 -17.9316 8.54883 -25.3691 15.0059 -35.0557l-65.5928 -64.8135l-3.48926 4.16016
c-7.35449 8.76855 -32.7715 42.5146 -38.0908 95.709zM472.442 164.102h-92.1533l0.535156 5.48828c2.91699 29.8975 18.5068 68.2246 37.542 90.9209l3.50977 4.18457l65.5586 -65.5576c-10.8193 -16.2305 -12.7402 -24.5254 -14.9922 -35.0361zM530.799 314.625v-92.8662
c-19.6846 -4.21875 -26.1924 -8.39746 -35.0557 -14.3066l-64.8135 65.5928l4.16016 3.48926c8.76855 7.35449 42.5146 32.7715 95.709 38.0908zM543.201 221.759v92.8662l5.5 -0.550781c29.208 -2.91992 67.5137 -18.5059 90.209 -37.54l4.18457 -3.50977
l-65.5576 -65.5586c-14.2871 9.52539 -21.418 11.5244 -34.3359 14.293zM693.024 164.102h-92.166c-4.21973 19.6895 -8.4082 26.208 -14.293 35.0361l64.8584 64.8574l3.50977 -4.18457c7.35449 -8.76855 32.7715 -42.5146 38.0908 -95.709zM705.601 158.601
c0 93.1377 -75.4629 168.601 -168.601 168.601s-168.601 -75.4629 -168.601 -168.601c0 -93.1377 75.4629 -168.601 168.601 -168.601c93.8584 0 168.601 76.8867 168.601 168.601zM621.693 535.888l-69.8662 -70.5605l76.0312 -69.8877l-9.89746 -8.24512l-76.1182 70.0693
l-68.8418 -70.0693l-7.18945 7.86133l67.9668 69.1201l-66.8154 69.5029l8.83203 8.44922l67.584 -67.2002l70.6562 67.583zM242.333 -134.277z" />
  </g>

</svg>
