<?xml version="1.0" standalone="no"?>
<!DOCTYPE svg PUBLIC "-//W3C//DTD SVG 1.1//EN" "http://www.w3.org/Graphics/SVG/1.1/DTD/svg11.dtd" >
<svg xmlns="http://www.w3.org/2000/svg" xmlns:xlink="http://www.w3.org/1999/xlink" version="1.1" viewBox="-489 0 2704 1000">
  <g transform="matrix(1 0 0 -1 0 800)">
   <path fill="currentColor"
d="M-462.715 379.833c-2.05176 -2.91211 -3.11328 -4.24707 -5.11621 -6.04004c8.3252 -7.03223 13.2871 -11.2949 21.834 -18.9287c-4.02539 -6.03223 -12.4199 -18.6123 -12.4199 -38.4678c0 -9.75293 2.12695 -19.0078 5.94336 -27.333l1.20605 -2.62988
c-7.1377 -3.59668 -13.1299 -6.65332 -26.7559 -14.2461c2.35254 -3.24121 3.37402 -4.94434 4.32324 -7.3252c10.3408 6.25293 16.4316 9.75684 26.3809 14.9062c2.71387 -3.71484 4.62207 -6.3252 8.25195 -9.95508c14.1123 -14.1123 30.7861 -17.752 38.6572 -18.6719
l2.76953 -0.323242c-0.779297 -17.6914 -0.96582 -23.2881 -1.14648 -29.6484c4.90137 -0.358398 6.53223 -0.453125 8.74609 -0.477539c-0.0429688 4.36133 -0.0644531 8.30371 -0.0644531 11.8809c0 6.73438 0.0371094 10.3594 0.288086 18.1318
c8.15527 0.683594 26.4805 2.2207 43.6006 19.3408c2.41113 2.41113 3.93652 3.93555 8.73438 10.6455c9.58398 -6.92285 14.4756 -10.4336 21.3096 -15.2939c2.12988 2.98145 3.0791 4.4082 4.75391 7.33496c-7.45312 5.80273 -12.375 9.42383 -21.9189 15.4043
c2.50977 5.84082 6.33789 14.751 6.33789 27.8633c0 14.6074 -5.01953 26.0029 -7.77246 31.1514l-1.3125 2.4541c0.223633 0.142578 14.6152 9.25977 22.5273 14.1016c-1.58105 2.58008 -2.49316 3.93457 -4.13965 6.14844
c-12.2676 -7.10645 -14.709 -8.52148 -22.6064 -13.96c-2.80566 3.4043 -3.86133 4.68555 -6.16699 6.99219c-15.0312 15.0303 -32.75 18.335 -41.292 19.0049l-2.62793 0.206055c-0.536133 10.7734 -0.701172 16.2939 -0.701172 22.542
c0 1.95605 0.0214844 3.64062 0.0517578 5.13086l-7.73535 -0.183594c-0.126953 -4.61719 -0.175781 -8.84766 -0.175781 -12.9453c0 -2.97754 0 -5.10156 0.15918 -14.7549c-7.26465 -0.966797 -24.4561 -3.25293 -40.2822 -19.0127l-2.06738 -2.05859
c-10.7793 10.2383 -15.2803 14.0947 -21.5732 19.0166zM-392.97 258.773c-30.8701 0.0185547 -57.3691 25.3662 -57.3691 57.6211c0 31.8057 25.8174 57.6211 57.623 57.6211c31.8008 0 57.6211 -25.8115 57.6211 -57.6113
c-0.136719 -31.8115 -26.0684 -57.6309 -57.875 -57.6309zM425 310.832v9.16797h275v-9.16797h-275zM271 608l-12 60c128.725 89.7881 355.203 55.3633 442.457 48.5605c0 -0.0107422 0.000976562 -0.0214844 0.000976562 -0.0322266
c27.4463 0.582031 75.1855 -1.32129 107.268 -33.4033c40.1396 -40.1396 38.6152 -108.841 37.5254 -169.365c-0.395508 -21.9258 -0.433594 -33.2402 -0.22168 -41.9463c26.3789 -43.8281 72.168 -89.959 89.3252 -129.607
c6.95117 -16.0635 5.49219 -24.7637 2.64551 -40.2051l-12 -14l-79.501 -63.5771v-212.431c1.93945 -31.0869 1.82422 -79.2412 -27.416 -108.48c-26.0322 -26.0322 -182.507 -12.0195 -220.584 -13.0049l-2.90137 0.0126953
c-103.732 -7.2998 -296.108 50.6025 -326.603 92.1719c-18.5059 25.2275 -31.4014 41.2529 -57.9951 55.3086v70.0371c25.8174 -16.2627 49.624 -17.8066 70.1904 -60.6357c44.2188 -92.082 349.455 -105.734 451.309 -108.438l-0.499023 -0.962891
c50 12 34.1514 4.48145 42.5352 13.5361c19.1768 20.7119 3.97852 41.9688 5.50781 57.9648h-0.541992v2.14941c-0.253906 0.990234 -0.500977 1.94141 -0.738281 2.84863h0.738281v207.174v3.4873v1.33887h1.58203l104 88h1.13281
c4.9834 45.8955 -62.8379 92.1289 -94.2158 139.501l-3 4l-1 1c-2.02051 3.99219 0.0439453 4.02539 -2.08398 11.5605c-0.0371094 0.130859 -0.189453 0.24707 -0.174805 0.367188l0.258789 2.07227l0.0644531 1.49902
c0.00976562 0.226562 0.150391 3.89551 0.242188 6.24414c3.11426 79.1523 14.1973 176.389 -74.8154 176.771c-136.35 16.7461 -373.536 9.53418 -431.49 -46.5137zM30.3545 728.521h55.5146l17.1611 52.2256l17.1602 -52.2256h55.5156l-44.8672 -32.2959l17.1611 -52.2246
l-44.9697 32.2959l-44.9707 -32.2959l17.1611 52.2246zM428.419 141.09c29.3896 1.65527 113.101 -12.3115 117.495 -4.0957c86.7109 8.06543 167.728 92.0166 164.602 92.124l9.48438 -14.2256c-34.9092 -32.0049 -69.457 -67.7158 -164.048 -94.9287
c41.6494 -6.05664 88.2998 -32.0732 117.986 -55.4492c18.0635 -14.2236 32.5137 -20.3203 46.0615 -32.5146l-12.8711 -16.2568c-23.707 18.29 -38.9883 28.5557 -54.8672 40.6436c-81.0713 61.7168 -187.513 64.2979 -243.902 63.8203
c0.125977 5.74316 0.25293 11.4854 0.378906 17.2295c0.0703125 3.23047 3.21191 3.36133 4.55078 3.41797c0.152344 0.00683594 7.20996 -0.209961 15.1299 0.235352zM1526.31 283.8h329.67v-9.90039h-329.67v9.90039zM1494.88 714.739l30.1201 43.7754
c1.86035 2.70312 5.88965 2.70996 7.8252 0.248047l36.6318 -46.6094c1.72559 -2.19629 1.19727 -5.5 -1.12695 -7.04883c-0.524414 -0.348633 -1.14844 -0.599609 -1.7334 -0.71875l-6.24121 -1.25879c-1.80957 -0.365234 -3.71387 0.40332 -4.78125 1.75879
l-19.6768 25.0127l0.950195 -100.379c0.0273438 -2.8291 -2.47363 -5.03906 -5.11523 -4.89844l-5.96973 0.314453c-2.65039 0.138672 -4.61523 2.5 -4.60449 4.87598l0.46875 98.8887l-16.0283 -23.2529c-1.58496 -2.2998 -4.89648 -2.77539 -7.06543 -1.01367
c-0.330078 0.267578 -0.850586 0.891602 -0.882812 0.9375l-2.71387 3.77832c-1.25488 1.74609 -1.02832 4.17871 -0.0566406 5.58984zM2104.82 436.835l99.8994 -104.285l-99.8994 -99.5693l4.8291 -326.776l-507.948 2.99414l-5.43359 62.9043h459.056v305.532
l69.7178 54.915l-69.7178 64.9014l-5.43262 293.549h-431.893l5.43262 61.4619h481.39v-315.628v0.000976563zM1578.05 103.176c1.91211 0 10.8633 0.157227 10.9736 0.157227c17.3779 0 49.9941 -2.58008 67.4424 -2.58008c4.36133 0 7.30273 0.335938 7.92188 0.677734
c0.25293 0.192383 0.552734 0.358398 1.20508 0.331055c53.2422 2.85547 103.548 29.1318 110.297 33.7461l1.61719 1.10645l7.4834 -6.19824c-4.83398 -2.46094 -4.83398 -2.46094 -4.90918 -2.49902c-21.9551 -11.1982 -45.999 -23.415 -103.755 -32.957
c27.5166 -2.84961 57.3223 -12.1592 76.665 -20.5693c13.3105 -5.78809 19.8955 -6.67578 32.0693 -12.5625l-9.90137 -6.90527c-10.1299 4.30469 -37.7012 15.4277 -38.0781 15.5869c-51.9639 21.8438 -119.462 23.8955 -159.049 23.8955
c-1.74805 0 -2.56934 0 -7.35156 -0.0195312c0.09375 2.33691 0.186523 4.6748 0.279297 7.01172c0.0410156 1.02832 1.15332 1.72461 3.97559 1.79492l0.0429688 0.000976562h0.0429688c0.0791016 0 1.31543 -0.0175781 3.02832 -0.0175781zM1614.61 482.972
c-1.96289 -2.57031 -2.97852 -3.74902 -4.89551 -5.33105c7.9668 -6.20703 12.7158 -9.96973 20.8955 -16.707c-3.85254 -5.3252 -11.8867 -16.4287 -11.8867 -33.9541c0 -8.6084 2.03613 -16.7773 5.68848 -24.125l1.1543 -2.32227
c-6.83105 -3.17383 -12.5654 -5.87207 -25.6055 -12.5732c2.25098 -2.86133 3.22852 -4.36523 4.1377 -6.46582c9.89551 5.51855 15.7246 8.61133 25.2461 13.1572c2.59766 -3.2793 4.42285 -5.58301 7.89746 -8.78711c13.5049 -12.4561 29.4619 -15.6699 36.9951 -16.4805
l2.64941 -0.285156c-0.745117 -15.6152 -0.923828 -20.5566 -1.09668 -26.1699c4.69043 -0.316406 6.25098 -0.399414 8.36914 -0.421875c-0.0400391 3.84961 -0.0615234 7.3291 -0.0615234 10.4863c0 5.94434 0.0361328 9.14453 0.276367 16.0049
c7.80469 0.603516 25.3418 1.95996 41.7256 17.0703c2.30762 2.12891 3.76758 3.47461 8.3584 9.39648c9.17188 -6.10938 13.8535 -9.20898 20.3936 -13.499c2.03906 2.63184 2.94727 3.8916 4.5498 6.47461c-7.13281 5.12109 -11.8428 8.31738 -20.9766 13.5967
c2.40234 5.15527 6.06543 13.0205 6.06543 24.5928c0 12.8936 -4.80371 22.9521 -7.43848 27.4961l-1.25586 2.16602c0.214844 0.125977 13.9863 8.17285 21.5586 12.4463c-1.5127 2.27832 -2.38574 3.47363 -3.96094 5.42773
c-11.7402 -6.27246 -14.0771 -7.52148 -21.6357 -12.3223c-2.68359 3.00488 -3.69434 4.13672 -5.90137 6.17188c-14.3838 13.2666 -31.3418 16.1836 -39.5156 16.7754l-2.51562 0.181641c-0.512695 9.50879 -0.670898 14.3818 -0.670898 19.8965
c0 1.72656 0.0205078 3.21387 0.0488281 4.5293l-7.40137 -0.163086c-0.12207 -4.0752 -0.168945 -7.80859 -0.168945 -11.4258c0 -2.62793 0 -4.50293 0.152344 -13.0234c-6.95215 -0.852539 -23.4043 -2.87109 -38.5498 -16.7812l-1.97852 -1.81738
c-10.3154 9.03711 -14.624 12.4414 -20.6465 16.7852zM1681.36 376.118c-29.543 0.0166016 -54.9023 22.3896 -54.9023 50.8594c0 28.0732 24.707 50.8594 55.1445 50.8594c30.4336 0 55.1436 -22.7832 55.1436 -50.8506
c-0.129883 -28.0781 -24.9473 -50.8682 -55.3857 -50.8682z" />
  </g>

</svg>
