<?xml version="1.0" standalone="no"?>
<!DOCTYPE svg PUBLIC "-//W3C//DTD SVG 1.1//EN" "http://www.w3.org/Graphics/SVG/1.1/DTD/svg11.dtd" >
<svg xmlns="http://www.w3.org/2000/svg" xmlns:xlink="http://www.w3.org/1999/xlink" version="1.1" viewBox="-10 0 1077 1000">
  <g transform="matrix(1 0 0 -1 0 800)">
   <path fill="currentColor"
d="M40.9248 744.072h55.5146l17.1611 52.2256l17.1602 -52.2256h55.5156l-44.8672 -32.2959l17.1611 -52.2246l-44.9697 32.2959l-44.9707 -32.2959l17.1611 52.2246zM281.601 610.52l-12 60c128.725 89.7881 355.203 55.3633 442.457 48.5605
c0 -0.0107422 0.000976562 -0.0214844 0.000976562 -0.0322266c27.4463 0.582031 75.1855 -1.32129 107.268 -33.4033c40.1396 -40.1396 38.6152 -108.841 37.5254 -169.365c-0.395508 -21.9258 -0.433594 -33.2402 -0.22168 -41.9463
c26.3789 -43.8281 72.168 -89.959 89.3252 -129.607c6.95117 -16.0635 5.49219 -24.7637 2.64551 -40.2051l-12 -14l-79.501 -63.5771v-212.431c1.93945 -31.0869 1.82422 -79.2412 -27.416 -108.48c-26.0322 -26.0322 -182.507 -12.0195 -220.584 -13.0049
l-2.90137 0.0126953c-103.732 -7.2998 -296.108 50.6025 -326.603 92.1719c-18.5059 25.2275 -31.4014 41.2529 -57.9951 55.3086v70.0371c25.8174 -16.2627 49.624 -17.8066 70.1904 -60.6357c44.2188 -92.082 349.455 -105.734 451.309 -108.438l-0.499023 -0.962891
c50 12 34.1514 4.48145 42.5352 13.5361c19.1768 20.7119 3.97852 41.9688 5.50781 57.9648h-0.541992v2.14941c-0.253906 0.990234 -0.500977 1.94141 -0.738281 2.84863h0.738281v207.174v3.4873v1.33887h1.58203l104 88h1.13281
c4.9834 45.8955 -62.8379 92.1289 -94.2158 139.501l-3 4l-1 1c-2.02051 3.99219 0.0439453 4.02539 -2.08398 11.5605c-0.0371094 0.130859 -0.189453 0.24707 -0.174805 0.367188l0.258789 2.07227l0.0644531 1.49902
c0.00976563 0.226562 0.150391 3.89551 0.242188 6.24414c3.11426 79.1523 5.19727 173.389 -83.8154 173.771c-136.35 16.7461 -373.536 9.53418 -431.49 -46.5137zM384.406 464.343l-56.2002 -71.2002l73.8223 -69.6221l-20.6221 -17.1777l-74 70l-70 -71
l-14.9775 16.3779l68.1768 69.0215l-63.1992 59.6006l18.3994 17.6006l64.7998 -54.8008l57.8457 65.001zM384.406 464.343l-56.2002 -71.2002l73.8223 -69.6221l-20.6221 -17.1777l-74 70l-70 -71l-14.9775 16.3779l68.1768 69.0215l-63.1992 59.6006l18.3994 17.6006
l64.7998 -54.8008l57.8457 65.001zM505.561 298.881h95.7598v-12.4805h-0.719727v-71.7598l143.399 -0.600586v-17.04l-143.399 0.600586v-52.0801h0.239258v-13.4404h-83.04h-2.15918h-10.0801v154.32v2.63965v9.84082zM567.825 483.393
c-0.151367 -0.481445 -0.204102 -0.625977 -0.657227 -2.04395c0 0 0.558594 0.0195312 1.25586 -0.0839844c0 0 -0.40918 1.43359 -0.598633 2.12793zM579.713 485.429c10.123 -35.2002 35.377 -62.6885 83.3154 -86.9082
c2.76953 -1.39941 4.01465 -4.79883 2.84082 -7.64355l-3.1123 -7.54395c-1.31641 -3.19043 -5.19043 -4.61816 -8.25879 -3.06445c-43.3623 21.9707 -72.4062 48.5645 -87.2334 79.457c-15.123 -30.7021 -42.3174 -62.6025 -68.0674 -78.4443
c-2.76855 -1.70215 -6.44434 -0.771484 -8.14551 1.7959l-5.05566 7.62695c-1.99023 3.00195 -0.544922 6.88477 1.75977 8.36328c53.6445 34.4307 79.2764 85.291 76.999 157.877c-0.110352 3.5127 2.96094 6.25684 6.12891 6.1875l8.09473 -0.178711
c10.8145 -0.290039 6.04102 -15.6211 6.04102 -15.6211c0 -17.2168 -4.64746 -56.3887 -5.30664 -61.9033z" />
  </g>

</svg>
