<?xml version="1.0" standalone="no"?>
<!DOCTYPE svg PUBLIC "-//W3C//DTD SVG 1.1//EN" "http://www.w3.org/Graphics/SVG/1.1/DTD/svg11.dtd" >
<svg xmlns="http://www.w3.org/2000/svg" xmlns:xlink="http://www.w3.org/1999/xlink" version="1.1" viewBox="-10 0 995 1000">
  <g transform="matrix(1 0 0 -1 0 800)">
   <path fill="currentColor"
d="M763.964 417.162zM338.372 703.484zM258.894 557.167zM568.566 365.863zM568.007 348.095zM331.399 414.163zM467.803 371.25zM839.878 590.25zM258.894 557.167zM839.878 590.25zM850.354 600.222c5.48828 -16.6221 9.02148 -34.6113 13.6367 -51.8438
l3.21777 -0.0527344c-2.44727 -51.6318 -3.36816 -71.0742 -87.209 -137.325c-62.3848 -49.2959 -108.06 -66.6602 -211.88 -67.8301c-71.4141 -0.805664 -162.364 1.86719 -242.099 67.8135c-31.418 25.9844 -81.291 76.2754 -80.8291 133.402h-2.23438
c2.44238 9.15723 2.44238 9.15723 2.6748 16.1885l1.63574 -0.0273438l7.00098 26.2539h-3.07324c1.59473 2.16797 3.19238 4.33496 4.78809 6.50195v7.37793h5.42969l79.2871 107.729h2.51562c27.4326 64.1475 132.527 95.0488 173.347 45.3594
c5.79492 -2.60352 32.0811 -13.0918 59.7598 -3c1.25904 1.68507 76.913 91.1868 206.274 -41.1992h0.923828c2.19411 -3.22978 2.19411 -3.22978 8.06543 -9.35547l57.8926 -98.9268c0.863281 0.0732422 1.54688 0.0195312 1.41016 -0.607422zM285.525 547.851
c-0.959961 -32.9219 2.68164 -72.0752 82.6377 -128.044c67.8477 -47.4941 124.067 -50.9062 201.249 -48.9932c89.9268 2.31445 127.45 13.8721 181.751 58.2441c72.2109 59.0088 84.1758 77.502 75.4932 112.166l-11.4834 45.8389
c-0.253139 2.63923 -2.25077 5.79508 -2.22852 8.3252l-64.4336 101.627c-1.72949 -0.0683594 -0.347656 1.50293 -2.07715 1.43555c-39.8828 26.2949 -44.1357 37.6865 -59.0342 46.4727c-22.9404 13.5283 -58.2119 10.8057 -80.668 -4.52051
c-11.1777 -33.6719 -80.5322 -39.0684 -112.49 -8.70312c-2.97852 2.83008 -5.17578 1.25488 -4.89355 4.72754c-26.8337 18.4647 -93.1573 11.5462 -118.422 -47.9258l-3.6543 1.40723l-70.4658 -99.7598zM546.348 648.419l-22.4473 23.3496l10.9092 11.0605
l22.5283 -22.3994l23.0391 22.0371l12.5518 -9.99316l-23.5381 -23.7715l25.1934 -21.4941l-12.3359 -10.4082l-24.8047 20.4336l-23.6367 -22.3955l-9.95898 12.3623zM577.013 482.326c-15.7648 -0.311968 -19 -8.06152 -22.0908 -8.06152
c-2.10254 0 -8.60254 7.93945 -21.9854 7.93945c-17.1938 0 -29.1055 -13.8319 -29.1055 -28.7285c0 -8.88326 3.14722 -19.1006 13.4863 -28.7012l30.7432 -29.7715c1.81934 -1.76172 4.24023 -2.84961 6.93848 -2.84961c3.25382 0 5.08691 0 38.3799 33.293
c12.251 12.252 12.8906 22.7705 12.8906 27.9932c0 17.3271 -14.4796 28.8867 -29.2568 28.8867zM577.09 468.581c8.24121 0 15.5791 -6.56932 15.5791 -15.1543c0 -0.15918 -0.0361328 -1.21777 -0.0361328 -1.23047c0 -4.82812 -2.53418 -10.8975 -9.29102 -17.4004
l-26.8848 -25.876c-0.386719 -0.37207 -0.886719 -0.557617 -1.38672 -0.557617c-0.580451 0 -37.4756 30.0649 -37.4756 44.3262c0 0.222248 1.33145 15.8867 15.542 15.8867c11.243 0 17.0833 -11.4902 21.9141 -11.4902c5.35944 0 9.50885 11.4961 22.0391 11.4961z
M490.858 536.594c93.216 0 125.94 -24.1778 184.178 -67.2061l12.7549 16.7207c-17.3496 14.8623 -17.75 11.3291 -33.7344 23.4561c-34.0285 25.8137 -61.5527 30.1796 -61.5527 33.375c0 8.78157 23.341 -3.51729 86.502 56.9668l6.40137 6.10645l-9.22461 13.3115
c-0.698242 -1.30664 -1.05664 -1.97559 -2.25586 -1.97559c-0.483398 0 -1.65039 0.169922 -1.99414 1.76172c-3.7636 -5.21942 -50.2627 -56.1649 -108.145 -62.624c-0.511719 -1 -0.844727 -1.65039 -8.90039 -1.65039c-15.1592 0 -43.9531 3.37891 -60.8936 3.37891
c-6.19141 0 -7.47754 -0.505859 -14.9736 -0.505859h-0.344727c-4.78418 0 -6.93848 -2.91895 -6.94922 -6.10156l-0.0615234 -15.3125c5.57715 0.146484 12.043 0.298828 19.1934 0.298828zM51.3545 703.521h55.5146l17.1611 52.2256l17.1602 -52.2256h55.5156
l-44.8672 -32.2959l17.1611 -52.2246l-44.9697 32.2959l-44.9707 -32.2959l17.1611 52.2246zM51.3545 703.521h55.5146l17.1611 52.2256l17.1602 -52.2256h55.5156l-44.8672 -32.2959l17.1611 -52.2246l-44.9697 32.2959l-44.9707 -32.2959l17.1611 52.2246z
M735.177 213.219c1.2627 -22.4336 -7.74219 -81.3936 -5.23047 -95.668c0.770508 -0.875977 1.56445 -2.23145 1.72852 -3.98535c5.23145 -56.2568 51.2754 -111.696 69.0869 -129.507c3.60547 -3.60547 3.60547 -3.60547 14.0586 -11.6914
c-1.22754 -0.802734 -1.22754 -0.802734 -19.9932 -13.3145c-2.84668 -1.90039 -6.69922 -1.45703 -9.03418 1.08984c-30.0791 32.7197 -53.7002 58.416 -74.6094 118.096c-9.44629 -29.4131 -26.6836 -58.2959 -42.6045 -78.5156
c-11.126 -14.1289 -19.8799 -31.4688 -28.2031 -39.793c-2.53711 -2.53711 -6.54395 -2.71484 -9.28906 -0.542969c-14.1436 11.1963 -14.1436 11.1963 -14.4336 11.4873c-2.5166 2.51562 -2.71289 6.47656 -0.598633 9.21973
c7.94727 10.3027 34.1816 46.1582 34.5322 46.6201c50.7832 66.708 53.252 155.368 52.8457 203.106c-0.0341797 3.9502 3.20312 7.14551 7.1543 7.05664c18.7012 -0.416016 18.7012 -0.416016 21.4033 -3.11816c2.02734 -2.02734 3.06055 -5.03613 2.99219 -8.46777
c-0.0234375 -1.15625 -0.125977 -6.3916 0.194336 -12.0723zM432.598 213.496c1.2627 -22.4336 -7.74219 -81.3936 -5.23047 -95.668c0.770508 -0.875977 1.56445 -2.23145 1.72852 -3.98535c5.23145 -56.2568 51.2754 -111.696 69.0869 -129.507
c3.60547 -3.60547 3.60547 -3.60547 14.0586 -11.6914c-1.22754 -0.802734 -1.22754 -0.802734 -19.9932 -13.3145c-2.84668 -1.90039 -6.69922 -1.45703 -9.03418 1.08984c-30.0791 32.7197 -53.7002 58.416 -74.6094 118.096
c-9.44629 -29.4131 -26.6836 -58.2959 -42.6045 -78.5156c-11.126 -14.1289 -19.8799 -31.4688 -28.2031 -39.793c-2.53711 -2.53711 -6.54395 -2.71484 -9.28906 -0.542969c-14.1436 11.1963 -14.1436 11.1963 -14.4336 11.4873
c-2.5166 2.51562 -2.71289 6.47656 -0.598633 9.21973c7.94727 10.3027 34.1816 46.1582 34.5322 46.6201c50.7832 66.708 53.252 155.368 52.8457 203.106c-0.0341797 3.9502 3.20312 7.14551 7.1543 7.05664c18.7012 -0.416016 18.7012 -0.416016 21.4033 -3.11816
c2.02734 -2.02734 3.06055 -5.03613 2.99219 -8.46777c-0.0234375 -1.15625 -0.125977 -6.3916 0.194336 -12.0723z" />
  </g>

</svg>
